<?xml version="1.0" encoding="UTF-8" standalone="no"?>
<!DOCTYPE svg PUBLIC "-//W3C//DTD SVG 1.1//EN" "http://www.w3.org/Graphics/SVG/1.1/DTD/svg11.dtd">
<svg width="100%" height="100%" viewBox="0 0 791 406" version="1.1" xmlns="http://www.w3.org/2000/svg" xmlns:xlink="http://www.w3.org/1999/xlink" xml:space="preserve" xmlns:serif="http://www.serif.com/" style="fill-rule:evenodd;clip-rule:evenodd;stroke-linejoin:round;stroke-miterlimit:10;">
    <rect id="Page-27" serif:id="Page 27" x="-32.25" y="-124.625" width="842" height="595" style="fill:none;"/>
    <path d="M63.75,54.375L735.75,246.375" style="fill:none;fill-rule:nonzero;stroke:black;stroke-width:2.4px;"/>
    <path d="M127.75,182.375L383.75,70.375" style="fill:none;fill-rule:nonzero;stroke:black;stroke-width:2.4px;"/>
    <path d="M159.75,134.375L347.75,122.375" style="fill:none;fill-rule:nonzero;stroke:black;stroke-width:2.4px;"/>
    <path d="M91.75,214.375L223.75,250.375" style="fill:none;fill-rule:nonzero;stroke:black;stroke-width:2.4px;"/>
    <path d="M191.75,286.375L671.75,162.375" style="fill:none;fill-rule:nonzero;stroke:black;stroke-width:2.4px;"/>
    <path d="M435.365,207.505L487.75,254.375" style="fill:none;fill-rule:nonzero;stroke:black;stroke-width:2.4px;"/>
    <path d="M110.747,58.375L110.747,56.935L113.626,56.935L113.626,45.572L110.747,46.291L110.747,44.813L115.553,43.616L115.553,56.935L118.433,56.935L118.433,58.375L110.747,58.375Z" style="fill-rule:nonzero;"/>
    <path d="M141.404,194.375L141.404,192.692C141.962,191.388 143.09,189.968 144.79,188.431L145.889,187.448C147.303,186.17 148.01,184.902 148.01,183.644C148.01,182.84 147.768,182.207 147.285,181.747C146.802,181.286 146.139,181.056 145.296,181.056C144.297,181.056 143.12,181.442 141.764,182.214L141.764,180.521C143.042,179.918 144.31,179.616 145.568,179.616C146.917,179.616 148,179.979 148.818,180.706C149.635,181.432 150.043,182.395 150.043,183.595C150.043,184.458 149.837,185.223 149.426,185.891C149.014,186.559 148.247,187.37 147.125,188.323L146.385,188.956C144.848,190.26 143.959,191.505 143.719,192.692L149.975,192.692L149.975,194.375L141.404,194.375Z" style="fill-rule:nonzero;"/>
    <path d="M111.251,238.375L111.251,234.299L104.772,234.299L104.772,232.849L111.251,223.976L113.051,223.976L113.051,232.732L114.977,232.732L114.977,234.299L113.051,234.299L113.051,238.375L111.251,238.375ZM106.649,232.732L111.378,232.732L111.378,226.33L106.649,232.732Z" style="fill-rule:nonzero;"/>
    <path d="M330.173,270.433L330.173,268.721C331.126,269.104 332.034,269.295 332.897,269.295C333.844,269.295 334.588,269.016 335.13,268.458C335.671,267.901 335.942,267.132 335.942,266.153C335.942,263.993 334.453,262.913 331.476,262.913C331.139,262.913 330.785,262.935 330.416,262.981L330.416,255.976L337.703,255.976L337.703,257.649L332.099,257.649L332.099,261.444C333.947,261.444 335.391,261.869 336.428,262.718C337.466,263.568 337.985,264.745 337.985,266.25C337.985,267.651 337.513,268.749 336.569,269.543C335.626,270.338 334.317,270.735 332.644,270.735C331.917,270.735 331.094,270.634 330.173,270.433Z" style="fill-rule:nonzero;"/>
    <path d="M177.774,126.268L177.774,124.478C179.149,125.023 180.232,125.295 181.023,125.295C181.938,125.295 182.682,125.028 183.256,124.492C183.83,123.957 184.117,123.265 184.117,122.415C184.117,120.392 182.7,119.38 179.865,119.38L179.107,119.38L179.107,118.086L179.778,118.076C182.437,118.076 183.767,117.139 183.767,115.264C183.767,113.792 182.891,113.056 181.14,113.056C180.18,113.056 179.123,113.325 177.968,113.863L177.968,112.19C179.103,111.807 180.206,111.616 181.276,111.616C184.221,111.616 185.693,112.728 185.693,114.953C185.693,116.646 184.691,117.852 182.687,118.572C185.009,119.111 186.17,120.382 186.17,122.386C186.17,123.742 185.722,124.805 184.827,125.577C183.932,126.349 182.703,126.735 181.14,126.735C180.251,126.735 179.129,126.579 177.774,126.268Z" style="fill-rule:nonzero;"/>
    <path d="M463.175,250.913C464.089,249.726 465.24,249.132 466.628,249.132C467.887,249.132 468.916,249.549 469.717,250.383C470.518,251.216 470.919,252.285 470.919,253.588C470.919,255.087 470.47,256.319 469.572,257.285C468.673,258.252 467.533,258.735 466.152,258.735C464.563,258.735 463.321,258.096 462.426,256.818C461.53,255.541 461.083,253.767 461.083,251.497C461.083,248.999 461.597,247.06 462.625,245.679C463.653,244.297 465.101,243.606 466.969,243.606C467.825,243.606 468.895,243.788 470.18,244.151L470.18,245.824C468.824,245.306 467.715,245.046 466.852,245.046C464.401,245.046 463.175,247.002 463.175,250.913ZM468.993,254.016C468.993,252.927 468.748,252.071 468.258,251.448C467.768,250.825 467.089,250.514 466.22,250.514C465.409,250.514 464.712,250.786 464.128,251.331C463.544,251.876 463.252,252.531 463.252,253.296C463.252,254.503 463.53,255.471 464.084,256.201C464.639,256.93 465.373,257.295 466.288,257.295C467.112,257.295 467.768,256.998 468.258,256.405C468.748,255.811 468.993,255.015 468.993,254.016Z" style="fill-rule:nonzero;"/>
</svg>
