<?xml version="1.0" encoding="UTF-8" standalone="no"?>
<!DOCTYPE svg PUBLIC "-//W3C//DTD SVG 1.1//EN" "http://www.w3.org/Graphics/SVG/1.1/DTD/svg11.dtd">
<svg width="100%" height="100%" viewBox="0 0 791 406" version="1.1" xmlns="http://www.w3.org/2000/svg" xmlns:xlink="http://www.w3.org/1999/xlink" xml:space="preserve" xmlns:serif="http://www.serif.com/" style="fill-rule:evenodd;clip-rule:evenodd;stroke-linejoin:round;stroke-miterlimit:10;">
    <rect id="Page-102" serif:id="Page 102" x="-32.25" y="-124.75" width="842" height="595" style="fill:none;"/>
    <rect x="159.75" y="374.25" width="432" height="32" style="fill:rgb(176,226,255);"/>
    <path d="M63.75,54.25L735.75,246.25" style="fill:none;fill-rule:nonzero;stroke:black;stroke-width:2.4px;"/>
    <path d="M127.75,182.25L383.75,70.25" style="fill:none;fill-rule:nonzero;stroke:black;stroke-width:2.4px;"/>
    <path d="M159.75,134.25L347.75,122.25" style="fill:none;fill-rule:nonzero;stroke:black;stroke-width:2.4px;"/>
    <path d="M91.75,214.25L223.75,250.25" style="fill:none;fill-rule:nonzero;stroke:black;stroke-width:2.4px;"/>
    <path d="M191.75,286.25L671.75,162.25" style="fill:none;fill-rule:nonzero;stroke:black;stroke-width:2.4px;"/>
    <path d="M435.365,207.38L487.75,254.25" style="fill:none;fill-rule:nonzero;stroke:black;stroke-width:2.4px;"/>
    <rect x="31.75" y="310.25" width="736" height="32" style="fill:rgb(255,228,225);"/>
    <rect x="-0.25" y="22.25" width="32" height="288" style="fill:rgb(255,236,139);"/>
    <path d="M671.749,22.25L670.75,310.25" style="fill:none;fill-rule:nonzero;stroke:rgb(255,165,0);stroke-width:3.6px;"/>
    <g transform="matrix(1,0,0,1,-32.25,-124.75)">
        <g transform="matrix(19.9252,0,0,19.9252,696,454.986)">
            <path d="M0.437,0.193L0.437,-0.1C0.397,-0.025 0.339,0.012 0.26,0.012C0.196,0.012 0.146,-0.011 0.109,-0.058C0.073,-0.104 0.054,-0.168 0.054,-0.249C0.054,-0.337 0.075,-0.408 0.116,-0.461C0.158,-0.515 0.213,-0.542 0.28,-0.542C0.343,-0.542 0.395,-0.518 0.437,-0.47L0.437,-0.53L0.533,-0.53L0.533,0.193L0.437,0.193ZM0.437,-0.404C0.387,-0.448 0.34,-0.47 0.295,-0.47C0.203,-0.47 0.157,-0.399 0.157,-0.258C0.157,-0.134 0.198,-0.072 0.28,-0.072C0.333,-0.072 0.385,-0.101 0.437,-0.16L0.437,-0.404Z" style="fill-rule:nonzero;"/>
        </g>
        <g transform="matrix(13.9476,0,0,13.9476,708.541,457.974)">
            <path d="M0.122,0.003L0.122,-0.083C0.169,-0.064 0.215,-0.054 0.258,-0.054C0.306,-0.054 0.343,-0.068 0.37,-0.096C0.398,-0.124 0.411,-0.163 0.411,-0.212C0.411,-0.32 0.336,-0.375 0.187,-0.375C0.17,-0.375 0.152,-0.373 0.134,-0.371L0.134,-0.723L0.5,-0.723L0.5,-0.639L0.218,-0.639L0.218,-0.448C0.311,-0.448 0.383,-0.427 0.436,-0.384C0.488,-0.342 0.514,-0.283 0.514,-0.207C0.514,-0.137 0.49,-0.082 0.443,-0.042C0.395,-0.002 0.33,0.018 0.246,0.018C0.209,0.018 0.168,0.013 0.122,0.003Z" style="fill-rule:nonzero;"/>
        </g>
    </g>
    <g transform="matrix(1,0,0,1,-32.25,-124.75)">
        <g transform="matrix(19.9252,0,0,19.9252,760,454.986)">
            <path d="M0.437,0.193L0.437,-0.1C0.397,-0.025 0.339,0.012 0.26,0.012C0.196,0.012 0.146,-0.011 0.109,-0.058C0.073,-0.104 0.054,-0.168 0.054,-0.249C0.054,-0.337 0.075,-0.408 0.116,-0.461C0.158,-0.515 0.213,-0.542 0.28,-0.542C0.343,-0.542 0.395,-0.518 0.437,-0.47L0.437,-0.53L0.533,-0.53L0.533,0.193L0.437,0.193ZM0.437,-0.404C0.387,-0.448 0.34,-0.47 0.295,-0.47C0.203,-0.47 0.157,-0.399 0.157,-0.258C0.157,-0.134 0.198,-0.072 0.28,-0.072C0.333,-0.072 0.385,-0.101 0.437,-0.16L0.437,-0.404Z" style="fill-rule:nonzero;"/>
        </g>
        <g transform="matrix(13.9476,0,0,13.9476,772.541,457.974)">
            <path d="M0.15,-0L0.15,-0.072L0.295,-0.072L0.295,-0.643L0.15,-0.606L0.15,-0.681L0.392,-0.741L0.392,-0.072L0.536,-0.072L0.536,-0L0.15,-0Z" style="fill-rule:nonzero;"/>
        </g>
    </g>
    <path d="M110.747,58.25L110.747,56.81L113.626,56.81L113.626,45.447L110.747,46.166L110.747,44.688L115.553,43.491L115.553,56.81L118.433,56.81L118.433,58.25L110.747,58.25Z" style="fill-rule:nonzero;"/>
    <path d="M141.404,194.25L141.404,192.567C141.962,191.263 143.09,189.843 144.79,188.306L145.889,187.323C147.303,186.045 148.01,184.777 148.01,183.519C148.01,182.715 147.768,182.082 147.285,181.622C146.802,181.161 146.139,180.931 145.296,180.931C144.297,180.931 143.12,181.317 141.764,182.089L141.764,180.396C143.042,179.793 144.31,179.491 145.568,179.491C146.917,179.491 148,179.854 148.818,180.581C149.635,181.307 150.043,182.27 150.043,183.47C150.043,184.333 149.837,185.098 149.426,185.766C149.014,186.434 148.247,187.245 147.125,188.198L146.385,188.831C144.848,190.135 143.959,191.38 143.719,192.567L149.975,192.567L149.975,194.25L141.404,194.25Z" style="fill-rule:nonzero;"/>
    <path d="M111.251,238.25L111.251,234.174L104.772,234.174L104.772,232.724L111.251,223.851L113.051,223.851L113.051,232.607L114.977,232.607L114.977,234.174L113.051,234.174L113.051,238.25L111.251,238.25ZM106.649,232.607L111.378,232.607L111.378,226.205L106.649,232.607Z" style="fill-rule:nonzero;"/>
    <path d="M330.173,270.308L330.173,268.596C331.126,268.979 332.034,269.17 332.897,269.17C333.844,269.17 334.588,268.891 335.13,268.333C335.671,267.776 335.942,267.007 335.942,266.028C335.942,263.868 334.453,262.788 331.476,262.788C331.139,262.788 330.785,262.81 330.416,262.856L330.416,255.851L337.703,255.851L337.703,257.524L332.099,257.524L332.099,261.319C333.947,261.319 335.391,261.744 336.428,262.593C337.466,263.443 337.985,264.62 337.985,266.125C337.985,267.526 337.513,268.624 336.569,269.418C335.626,270.213 334.317,270.61 332.644,270.61C331.917,270.61 331.094,270.509 330.173,270.308Z" style="fill-rule:nonzero;"/>
    <path d="M177.774,126.143L177.774,124.353C179.149,124.898 180.232,125.17 181.023,125.17C181.938,125.17 182.682,124.903 183.256,124.367C183.83,123.832 184.117,123.14 184.117,122.29C184.117,120.267 182.7,119.255 179.865,119.255L179.107,119.255L179.107,117.961L179.778,117.951C182.437,117.951 183.767,117.014 183.767,115.139C183.767,113.667 182.891,112.931 181.14,112.931C180.18,112.931 179.123,113.2 177.968,113.738L177.968,112.065C179.103,111.682 180.206,111.491 181.276,111.491C184.221,111.491 185.693,112.603 185.693,114.828C185.693,116.521 184.691,117.727 182.687,118.447C185.009,118.986 186.17,120.257 186.17,122.261C186.17,123.617 185.722,124.68 184.827,125.452C183.932,126.224 182.703,126.61 181.14,126.61C180.251,126.61 179.129,126.454 177.774,126.143Z" style="fill-rule:nonzero;"/>
    <path d="M463.175,250.788C464.089,249.601 465.24,249.007 466.628,249.007C467.887,249.007 468.916,249.424 469.717,250.258C470.518,251.091 470.919,252.16 470.919,253.463C470.919,254.962 470.47,256.194 469.572,257.16C468.673,258.127 467.533,258.61 466.152,258.61C464.563,258.61 463.321,257.971 462.426,256.693C461.53,255.416 461.083,253.642 461.083,251.372C461.083,248.874 461.597,246.935 462.625,245.554C463.653,244.172 465.101,243.481 466.969,243.481C467.825,243.481 468.895,243.663 470.18,244.026L470.18,245.699C468.824,245.181 467.715,244.921 466.852,244.921C464.401,244.921 463.175,246.877 463.175,250.788ZM468.993,253.891C468.993,252.802 468.748,251.946 468.258,251.323C467.768,250.7 467.089,250.389 466.22,250.389C465.409,250.389 464.712,250.661 464.128,251.206C463.544,251.751 463.252,252.406 463.252,253.171C463.252,254.378 463.53,255.346 464.084,256.076C464.639,256.805 465.373,257.17 466.288,257.17C467.112,257.17 467.768,256.873 468.258,256.28C468.748,255.686 468.993,254.89 468.993,253.891Z" style="fill-rule:nonzero;"/>
    <g transform="matrix(1,0,0,1,-32.25,-124.75)">
        <g transform="matrix(19.9252,0,0,19.9252,304,518.992)">
            <path d="M0.096,-0L0.096,-0.53L0.192,-0.53L0.192,-0.431C0.23,-0.505 0.286,-0.542 0.358,-0.542C0.368,-0.542 0.378,-0.541 0.389,-0.54L0.389,-0.45C0.373,-0.455 0.358,-0.458 0.345,-0.458C0.284,-0.458 0.233,-0.422 0.192,-0.35L0.192,-0L0.096,-0Z" style="fill-rule:nonzero;"/>
        </g>
        <g transform="matrix(13.9476,0,0,13.9476,312.153,521.98)">
            <path d="M0.15,-0L0.15,-0.072L0.295,-0.072L0.295,-0.643L0.15,-0.606L0.15,-0.681L0.392,-0.741L0.392,-0.072L0.536,-0.072L0.536,-0L0.15,-0Z" style="fill-rule:nonzero;"/>
        </g>
        <g transform="matrix(13.9476,0,0,13.9476,320.972,521.98)">
            <path d="M0.083,-0L0.083,-0.084C0.111,-0.15 0.168,-0.221 0.253,-0.298L0.308,-0.348C0.379,-0.412 0.415,-0.475 0.415,-0.539C0.415,-0.579 0.402,-0.611 0.378,-0.634C0.354,-0.657 0.321,-0.668 0.278,-0.668C0.228,-0.668 0.169,-0.649 0.101,-0.61L0.101,-0.695C0.165,-0.726 0.229,-0.741 0.292,-0.741C0.36,-0.741 0.414,-0.722 0.455,-0.686C0.496,-0.65 0.517,-0.601 0.517,-0.541C0.517,-0.498 0.506,-0.459 0.486,-0.426C0.465,-0.392 0.426,-0.352 0.37,-0.304L0.333,-0.272C0.256,-0.207 0.211,-0.144 0.199,-0.084L0.513,-0.084L0.513,-0L0.083,-0Z" style="fill-rule:nonzero;"/>
        </g>
    </g>
    <g transform="matrix(1,0,0,1,-32.25,-124.75)">
        <g transform="matrix(19.9252,0,0,19.9252,272,518.992)">
            <path d="M0.096,-0L0.096,-0.53L0.192,-0.53L0.192,-0.431C0.23,-0.505 0.286,-0.542 0.358,-0.542C0.368,-0.542 0.378,-0.541 0.389,-0.54L0.389,-0.45C0.373,-0.455 0.358,-0.458 0.345,-0.458C0.284,-0.458 0.233,-0.422 0.192,-0.35L0.192,-0L0.096,-0Z" style="fill-rule:nonzero;"/>
        </g>
        <g transform="matrix(13.9476,0,0,13.9476,280.153,521.98)">
            <path d="M0.083,-0L0.083,-0.084C0.111,-0.15 0.168,-0.221 0.253,-0.298L0.308,-0.348C0.379,-0.412 0.415,-0.475 0.415,-0.539C0.415,-0.579 0.402,-0.611 0.378,-0.634C0.354,-0.657 0.321,-0.668 0.278,-0.668C0.228,-0.668 0.169,-0.649 0.101,-0.61L0.101,-0.695C0.165,-0.726 0.229,-0.741 0.292,-0.741C0.36,-0.741 0.414,-0.722 0.455,-0.686C0.496,-0.65 0.517,-0.601 0.517,-0.541C0.517,-0.498 0.506,-0.459 0.486,-0.426C0.465,-0.392 0.426,-0.352 0.37,-0.304L0.333,-0.272C0.256,-0.207 0.211,-0.144 0.199,-0.084L0.513,-0.084L0.513,-0L0.083,-0Z" style="fill-rule:nonzero;"/>
        </g>
        <g transform="matrix(13.9476,0,0,13.9476,288.972,521.98)">
            <path d="M0.102,-0.005L0.102,-0.095C0.171,-0.068 0.225,-0.054 0.265,-0.054C0.311,-0.054 0.348,-0.068 0.377,-0.094C0.406,-0.121 0.42,-0.156 0.42,-0.199C0.42,-0.3 0.349,-0.351 0.207,-0.351L0.168,-0.351L0.168,-0.416L0.202,-0.417C0.336,-0.417 0.402,-0.464 0.402,-0.558C0.402,-0.632 0.358,-0.668 0.271,-0.668C0.222,-0.668 0.169,-0.655 0.111,-0.628L0.111,-0.712C0.168,-0.731 0.224,-0.741 0.277,-0.741C0.425,-0.741 0.499,-0.685 0.499,-0.573C0.499,-0.488 0.449,-0.428 0.348,-0.392C0.465,-0.365 0.523,-0.301 0.523,-0.2C0.523,-0.132 0.5,-0.079 0.456,-0.04C0.411,-0.001 0.349,0.018 0.271,0.018C0.226,0.018 0.17,0.01 0.102,-0.005Z" style="fill-rule:nonzero;"/>
        </g>
    </g>
    <g transform="matrix(1,0,0,1,-32.25,-124.75)">
        <g transform="matrix(19.9252,0,0,19.9252,576,518.992)">
            <path d="M0.096,-0L0.096,-0.53L0.192,-0.53L0.192,-0.431C0.23,-0.505 0.286,-0.542 0.358,-0.542C0.368,-0.542 0.378,-0.541 0.389,-0.54L0.389,-0.45C0.373,-0.455 0.358,-0.458 0.345,-0.458C0.284,-0.458 0.233,-0.422 0.192,-0.35L0.192,-0L0.096,-0Z" style="fill-rule:nonzero;"/>
        </g>
        <g transform="matrix(13.9476,0,0,13.9476,584.153,521.98)">
            <path d="M0.15,-0L0.15,-0.072L0.295,-0.072L0.295,-0.643L0.15,-0.606L0.15,-0.681L0.392,-0.741L0.392,-0.072L0.536,-0.072L0.536,-0L0.15,-0Z" style="fill-rule:nonzero;"/>
        </g>
        <g transform="matrix(13.9476,0,0,13.9476,592.972,521.98)">
            <path d="M0.122,0.003L0.122,-0.083C0.169,-0.064 0.215,-0.054 0.258,-0.054C0.306,-0.054 0.343,-0.068 0.37,-0.096C0.398,-0.124 0.411,-0.163 0.411,-0.212C0.411,-0.32 0.336,-0.375 0.187,-0.375C0.17,-0.375 0.152,-0.373 0.134,-0.371L0.134,-0.723L0.5,-0.723L0.5,-0.639L0.218,-0.639L0.218,-0.448C0.311,-0.448 0.383,-0.427 0.436,-0.384C0.488,-0.342 0.514,-0.283 0.514,-0.207C0.514,-0.137 0.49,-0.082 0.443,-0.042C0.395,-0.002 0.33,0.018 0.246,0.018C0.209,0.018 0.168,0.013 0.122,0.003Z" style="fill-rule:nonzero;"/>
        </g>
    </g>
    <g transform="matrix(1,0,0,1,-32.25,-124.75)">
        <g transform="matrix(19.9252,0,0,19.9252,480,518.992)">
            <path d="M0.096,-0L0.096,-0.53L0.192,-0.53L0.192,-0.431C0.23,-0.505 0.286,-0.542 0.358,-0.542C0.368,-0.542 0.378,-0.541 0.389,-0.54L0.389,-0.45C0.373,-0.455 0.358,-0.458 0.345,-0.458C0.284,-0.458 0.233,-0.422 0.192,-0.35L0.192,-0L0.096,-0Z" style="fill-rule:nonzero;"/>
        </g>
        <g transform="matrix(13.9476,0,0,13.9476,488.153,521.98)">
            <path d="M0.122,0.003L0.122,-0.083C0.169,-0.064 0.215,-0.054 0.258,-0.054C0.306,-0.054 0.343,-0.068 0.37,-0.096C0.398,-0.124 0.411,-0.163 0.411,-0.212C0.411,-0.32 0.336,-0.375 0.187,-0.375C0.17,-0.375 0.152,-0.373 0.134,-0.371L0.134,-0.723L0.5,-0.723L0.5,-0.639L0.218,-0.639L0.218,-0.448C0.311,-0.448 0.383,-0.427 0.436,-0.384C0.488,-0.342 0.514,-0.283 0.514,-0.207C0.514,-0.137 0.49,-0.082 0.443,-0.042C0.395,-0.002 0.33,0.018 0.246,0.018C0.209,0.018 0.168,0.013 0.122,0.003Z" style="fill-rule:nonzero;"/>
        </g>
        <g transform="matrix(13.9476,0,0,13.9476,496.972,521.98)">
            <path d="M0.172,-0.375C0.218,-0.434 0.276,-0.464 0.345,-0.464C0.408,-0.464 0.46,-0.443 0.5,-0.401C0.54,-0.359 0.561,-0.306 0.561,-0.24C0.561,-0.165 0.538,-0.103 0.493,-0.055C0.448,-0.006 0.391,0.018 0.321,0.018C0.242,0.018 0.179,-0.014 0.134,-0.078C0.089,-0.142 0.067,-0.231 0.067,-0.345C0.067,-0.471 0.093,-0.568 0.144,-0.637C0.196,-0.707 0.269,-0.741 0.362,-0.741C0.405,-0.741 0.459,-0.732 0.523,-0.714L0.523,-0.63C0.455,-0.656 0.4,-0.669 0.356,-0.669C0.233,-0.669 0.172,-0.571 0.172,-0.375ZM0.464,-0.219C0.464,-0.273 0.452,-0.316 0.427,-0.348C0.402,-0.379 0.368,-0.395 0.325,-0.395C0.284,-0.395 0.249,-0.381 0.22,-0.354C0.19,-0.326 0.176,-0.293 0.176,-0.255C0.176,-0.194 0.19,-0.146 0.218,-0.109C0.245,-0.073 0.282,-0.054 0.328,-0.054C0.369,-0.054 0.402,-0.069 0.427,-0.099C0.452,-0.129 0.464,-0.169 0.464,-0.219Z" style="fill-rule:nonzero;"/>
        </g>
    </g>
    <g transform="matrix(1,0,0,1,-32.25,-124.75)">
        <g transform="matrix(19.9252,0,0,19.9252,336,518.992)">
            <path d="M0.096,-0L0.096,-0.53L0.192,-0.53L0.192,-0.431C0.23,-0.505 0.286,-0.542 0.358,-0.542C0.368,-0.542 0.378,-0.541 0.389,-0.54L0.389,-0.45C0.373,-0.455 0.358,-0.458 0.345,-0.458C0.284,-0.458 0.233,-0.422 0.192,-0.35L0.192,-0L0.096,-0Z" style="fill-rule:nonzero;"/>
        </g>
        <g transform="matrix(13.9476,0,0,13.9476,344.153,521.98)">
            <path d="M0.15,-0L0.15,-0.072L0.295,-0.072L0.295,-0.643L0.15,-0.606L0.15,-0.681L0.392,-0.741L0.392,-0.072L0.536,-0.072L0.536,-0L0.15,-0Z" style="fill-rule:nonzero;"/>
        </g>
        <g transform="matrix(13.9476,0,0,13.9476,352.972,521.98)">
            <path d="M0.102,-0.005L0.102,-0.095C0.171,-0.068 0.225,-0.054 0.265,-0.054C0.311,-0.054 0.348,-0.068 0.377,-0.094C0.406,-0.121 0.42,-0.156 0.42,-0.199C0.42,-0.3 0.349,-0.351 0.207,-0.351L0.168,-0.351L0.168,-0.416L0.202,-0.417C0.336,-0.417 0.402,-0.464 0.402,-0.558C0.402,-0.632 0.358,-0.668 0.271,-0.668C0.222,-0.668 0.169,-0.655 0.111,-0.628L0.111,-0.712C0.168,-0.731 0.224,-0.741 0.277,-0.741C0.425,-0.741 0.499,-0.685 0.499,-0.573C0.499,-0.488 0.449,-0.428 0.348,-0.392C0.465,-0.365 0.523,-0.301 0.523,-0.2C0.523,-0.132 0.5,-0.079 0.456,-0.04C0.411,-0.001 0.349,0.018 0.271,0.018C0.226,0.018 0.17,0.01 0.102,-0.005Z" style="fill-rule:nonzero;"/>
        </g>
    </g>
    <g transform="matrix(1,0,0,1,-32.25,-124.75)">
        <g transform="matrix(19.9252,0,0,19.9252,40,334.992)">
            <path d="M0.237,0.012C0.193,0.012 0.139,0.002 0.077,-0.019L0.077,-0.107C0.139,-0.076 0.194,-0.06 0.241,-0.06C0.268,-0.06 0.291,-0.068 0.31,-0.083C0.328,-0.097 0.337,-0.116 0.337,-0.139C0.337,-0.172 0.311,-0.199 0.26,-0.22L0.204,-0.244C0.121,-0.279 0.08,-0.328 0.08,-0.393C0.08,-0.439 0.096,-0.476 0.129,-0.502C0.161,-0.529 0.206,-0.542 0.263,-0.542C0.293,-0.542 0.329,-0.538 0.373,-0.53L0.393,-0.526L0.393,-0.446C0.339,-0.462 0.297,-0.47 0.265,-0.47C0.203,-0.47 0.172,-0.447 0.172,-0.402C0.172,-0.373 0.196,-0.349 0.243,-0.329L0.289,-0.31C0.341,-0.287 0.379,-0.264 0.4,-0.24C0.422,-0.215 0.433,-0.184 0.433,-0.147C0.433,-0.101 0.415,-0.063 0.378,-0.033C0.341,-0.003 0.294,0.012 0.237,0.012Z" style="fill-rule:nonzero;"/>
        </g>
        <g transform="matrix(13.9476,0,0,13.9476,50.1572,337.98)">
            <path d="M0.15,-0L0.15,-0.072L0.295,-0.072L0.295,-0.643L0.15,-0.606L0.15,-0.681L0.392,-0.741L0.392,-0.072L0.536,-0.072L0.536,-0L0.15,-0Z" style="fill-rule:nonzero;"/>
        </g>
    </g>
    <path d="M777.98,334.25L777.98,316.971L787.635,316.971L787.635,318.804L780.432,318.804L780.432,324.35L786.468,324.35L786.468,326.159L780.432,326.159L780.432,332.417L788.137,332.417L788.137,334.25L777.98,334.25Z" style="fill-rule:nonzero;"/>
    <path d="M9.98,18.25L9.98,0.971L12.432,0.971L12.432,16.417L20.207,16.417L20.207,18.25L9.98,18.25Z" style="fill-rule:nonzero;"/>
    <path d="M601.98,398.25L601.98,380.971L607.21,380.971C608.868,380.971 610.139,381.337 611.022,382.068C611.906,382.8 612.347,383.863 612.347,385.256C612.347,387.56 611.184,389.194 608.857,390.159L614.624,398.25L611.612,398.25L606.697,390.941L604.408,390.941L604.408,398.25L601.98,398.25ZM604.408,389.108L605.202,389.108C608.284,389.108 609.826,387.898 609.826,385.478C609.826,383.695 608.533,382.804 605.949,382.804L604.408,382.804L604.408,389.108Z" style="fill-rule:nonzero;"/>
</svg>
