<?xml version="1.0" encoding="UTF-8" standalone="no"?>
<!DOCTYPE svg PUBLIC "-//W3C//DTD SVG 1.1//EN" "http://www.w3.org/Graphics/SVG/1.1/DTD/svg11.dtd">
<svg width="100%" height="100%" viewBox="0 0 790 406" version="1.1" xmlns="http://www.w3.org/2000/svg" xmlns:xlink="http://www.w3.org/1999/xlink" xml:space="preserve" xmlns:serif="http://www.serif.com/" style="fill-rule:evenodd;clip-rule:evenodd;stroke-linejoin:round;stroke-miterlimit:10;">
    <rect id="Page-28" serif:id="Page 28" x="-33" y="-124.625" width="842" height="595" style="fill:none;"/>
    <path d="M63,54.375L735,246.375" style="fill:none;fill-rule:nonzero;stroke:black;stroke-width:2.4px;"/>
    <path d="M127,182.375L383,70.375" style="fill:none;fill-rule:nonzero;stroke:black;stroke-width:2.4px;"/>
    <path d="M159,134.375L347,122.375" style="fill:none;fill-rule:nonzero;stroke:black;stroke-width:2.4px;"/>
    <path d="M91,214.375L223,250.375" style="fill:none;fill-rule:nonzero;stroke:black;stroke-width:2.4px;"/>
    <path d="M191,286.375L671,162.375" style="fill:none;fill-rule:nonzero;stroke:black;stroke-width:2.4px;"/>
    <path d="M434.615,207.505L487,254.375" style="fill:none;fill-rule:nonzero;stroke:black;stroke-width:2.4px;"/>
    <rect x="31" y="310.375" width="736" height="32" style="fill:rgb(255,228,225);"/>
    <path d="M109.997,58.375L109.997,56.935L112.876,56.935L112.876,45.572L109.997,46.291L109.997,44.813L114.803,43.616L114.803,56.935L117.683,56.935L117.683,58.375L109.997,58.375Z" style="fill-rule:nonzero;"/>
    <path d="M140.654,194.375L140.654,192.692C141.212,191.388 142.34,189.968 144.04,188.431L145.139,187.448C146.553,186.17 147.26,184.902 147.26,183.644C147.26,182.84 147.018,182.207 146.535,181.747C146.052,181.286 145.389,181.056 144.546,181.056C143.547,181.056 142.37,181.442 141.014,182.214L141.014,180.521C142.292,179.918 143.56,179.616 144.818,179.616C146.167,179.616 147.25,179.979 148.068,180.706C148.885,181.432 149.293,182.395 149.293,183.595C149.293,184.458 149.087,185.223 148.676,185.891C148.264,186.559 147.497,187.37 146.375,188.323L145.635,188.956C144.098,190.26 143.209,191.505 142.969,192.692L149.225,192.692L149.225,194.375L140.654,194.375Z" style="fill-rule:nonzero;"/>
    <path d="M110.501,238.375L110.501,234.299L104.022,234.299L104.022,232.849L110.501,223.976L112.301,223.976L112.301,232.732L114.227,232.732L114.227,234.299L112.301,234.299L112.301,238.375L110.501,238.375ZM105.899,232.732L110.628,232.732L110.628,226.33L105.899,232.732Z" style="fill-rule:nonzero;"/>
    <path d="M329.423,270.433L329.423,268.721C330.376,269.104 331.284,269.295 332.147,269.295C333.094,269.295 333.838,269.016 334.38,268.458C334.921,267.901 335.192,267.132 335.192,266.153C335.192,263.993 333.703,262.913 330.726,262.913C330.389,262.913 330.035,262.935 329.666,262.981L329.666,255.976L336.953,255.976L336.953,257.649L331.349,257.649L331.349,261.444C333.197,261.444 334.641,261.869 335.678,262.718C336.716,263.568 337.235,264.745 337.235,266.25C337.235,267.651 336.763,268.749 335.819,269.543C334.876,270.338 333.567,270.735 331.894,270.735C331.167,270.735 330.344,270.634 329.423,270.433Z" style="fill-rule:nonzero;"/>
    <path d="M177.024,126.268L177.024,124.478C178.399,125.023 179.482,125.295 180.273,125.295C181.188,125.295 181.932,125.028 182.506,124.492C183.08,123.957 183.367,123.265 183.367,122.415C183.367,120.392 181.95,119.38 179.115,119.38L178.357,119.38L178.357,118.086L179.028,118.076C181.687,118.076 183.017,117.139 183.017,115.264C183.017,113.792 182.141,113.056 180.39,113.056C179.43,113.056 178.373,113.325 177.218,113.863L177.218,112.19C178.353,111.807 179.456,111.616 180.526,111.616C183.471,111.616 184.943,112.728 184.943,114.953C184.943,116.646 183.941,117.852 181.937,118.572C184.259,119.111 185.42,120.382 185.42,122.386C185.42,123.742 184.972,124.805 184.077,125.577C183.182,126.349 181.953,126.735 180.39,126.735C179.501,126.735 178.379,126.579 177.024,126.268Z" style="fill-rule:nonzero;"/>
    <path d="M462.425,250.913C463.339,249.726 464.49,249.132 465.878,249.132C467.137,249.132 468.166,249.549 468.967,250.383C469.768,251.216 470.169,252.285 470.169,253.588C470.169,255.087 469.72,256.319 468.822,257.285C467.923,258.252 466.783,258.735 465.402,258.735C463.813,258.735 462.571,258.096 461.676,256.818C460.78,255.541 460.333,253.767 460.333,251.497C460.333,248.999 460.847,247.06 461.875,245.679C462.903,244.297 464.351,243.606 466.219,243.606C467.075,243.606 468.145,243.788 469.43,244.151L469.43,245.824C468.074,245.306 466.965,245.046 466.102,245.046C463.651,245.046 462.425,247.002 462.425,250.913ZM468.243,254.016C468.243,252.927 467.998,252.071 467.508,251.448C467.018,250.825 466.339,250.514 465.47,250.514C464.659,250.514 463.962,250.786 463.378,251.331C462.794,251.876 462.502,252.531 462.502,253.296C462.502,254.503 462.78,255.471 463.334,256.201C463.889,256.93 464.623,257.295 465.538,257.295C466.362,257.295 467.018,256.998 467.508,256.405C467.998,255.811 468.243,255.015 468.243,254.016Z" style="fill-rule:nonzero;"/>
    <path d="M777.23,334.375L777.23,317.096L786.885,317.096L786.885,318.929L779.682,318.929L779.682,324.475L785.718,324.475L785.718,326.284L779.682,326.284L779.682,332.542L787.387,332.542L787.387,334.375L777.23,334.375Z" style="fill-rule:nonzero;"/>
</svg>
