<?xml version="1.0" encoding="UTF-8" standalone="no"?>
<!DOCTYPE svg PUBLIC "-//W3C//DTD SVG 1.1//EN" "http://www.w3.org/Graphics/SVG/1.1/DTD/svg11.dtd">
<svg width="100%" height="100%" viewBox="0 0 790 406" version="1.1" xmlns="http://www.w3.org/2000/svg" xmlns:xlink="http://www.w3.org/1999/xlink" xml:space="preserve" xmlns:serif="http://www.serif.com/" style="fill-rule:evenodd;clip-rule:evenodd;stroke-linejoin:round;stroke-miterlimit:10;">
    <rect id="Page-41" serif:id="Page 41" x="-32.5" y="-125.25" width="842" height="595" style="fill:none;"/>
    <rect x="159.5" y="373.75" width="432" height="32" style="fill:rgb(176,226,255);"/>
    <path d="M63.5,53.75L735.5,245.75" style="fill:none;fill-rule:nonzero;stroke:black;stroke-width:2.4px;"/>
    <path d="M159.5,133.75L347.5,121.75" style="fill:none;fill-rule:nonzero;stroke:black;stroke-width:2.4px;"/>
    <path d="M191.5,285.75L671.5,161.75" style="fill:none;fill-rule:nonzero;stroke:black;stroke-width:2.4px;"/>
    <path d="M435.115,206.88L487.5,253.75" style="fill:none;fill-rule:nonzero;stroke:black;stroke-width:2.4px;"/>
    <rect x="31.5" y="309.75" width="736" height="32" style="fill:rgb(255,228,225);"/>
    <rect x="-0.5" y="21.75" width="32" height="288" style="fill:rgb(255,236,139);"/>
    <g transform="matrix(1,0,0,1,-32.5,-125.25)">
        <g transform="matrix(19.9252,0,0,19.9252,152,454.986)">
            <path d="M0.096,0.193L0.096,-0.53L0.192,-0.53L0.192,-0.431C0.232,-0.505 0.291,-0.542 0.37,-0.542C0.433,-0.542 0.484,-0.519 0.52,-0.472C0.557,-0.426 0.575,-0.362 0.575,-0.281C0.575,-0.193 0.554,-0.122 0.513,-0.069C0.471,-0.015 0.417,0.012 0.349,0.012C0.286,0.012 0.234,-0.012 0.192,-0.06L0.192,0.193L0.096,0.193ZM0.192,-0.126C0.242,-0.082 0.289,-0.06 0.334,-0.06C0.426,-0.06 0.473,-0.131 0.473,-0.271C0.473,-0.396 0.432,-0.458 0.35,-0.458C0.296,-0.458 0.243,-0.429 0.192,-0.371L0.192,-0.126Z" style="fill-rule:nonzero;"/>
        </g>
        <g transform="matrix(13.9476,0,0,13.9476,164.541,457.974)">
            <path d="M0.083,-0L0.083,-0.084C0.111,-0.15 0.168,-0.221 0.253,-0.298L0.308,-0.348C0.379,-0.412 0.415,-0.475 0.415,-0.539C0.415,-0.579 0.402,-0.611 0.378,-0.634C0.354,-0.657 0.321,-0.668 0.278,-0.668C0.228,-0.668 0.169,-0.649 0.101,-0.61L0.101,-0.695C0.165,-0.726 0.229,-0.741 0.292,-0.741C0.36,-0.741 0.414,-0.722 0.455,-0.686C0.496,-0.65 0.517,-0.601 0.517,-0.541C0.517,-0.498 0.506,-0.459 0.486,-0.426C0.465,-0.392 0.426,-0.352 0.37,-0.304L0.333,-0.272C0.256,-0.207 0.211,-0.144 0.199,-0.084L0.513,-0.084L0.513,-0L0.083,-0Z" style="fill-rule:nonzero;"/>
        </g>
    </g>
    <g transform="matrix(1,0,0,1,-32.5,-125.25)">
        <g transform="matrix(19.9252,0,0,19.9252,216,454.986)">
            <path d="M0.096,0.193L0.096,-0.53L0.192,-0.53L0.192,-0.431C0.232,-0.505 0.291,-0.542 0.37,-0.542C0.433,-0.542 0.484,-0.519 0.52,-0.472C0.557,-0.426 0.575,-0.362 0.575,-0.281C0.575,-0.193 0.554,-0.122 0.513,-0.069C0.471,-0.015 0.417,0.012 0.349,0.012C0.286,0.012 0.234,-0.012 0.192,-0.06L0.192,0.193L0.096,0.193ZM0.192,-0.126C0.242,-0.082 0.289,-0.06 0.334,-0.06C0.426,-0.06 0.473,-0.131 0.473,-0.271C0.473,-0.396 0.432,-0.458 0.35,-0.458C0.296,-0.458 0.243,-0.429 0.192,-0.371L0.192,-0.126Z" style="fill-rule:nonzero;"/>
        </g>
        <g transform="matrix(13.9476,0,0,13.9476,228.541,457.974)">
            <path d="M0.122,0.003L0.122,-0.083C0.169,-0.064 0.215,-0.054 0.258,-0.054C0.306,-0.054 0.343,-0.068 0.37,-0.096C0.398,-0.124 0.411,-0.163 0.411,-0.212C0.411,-0.32 0.336,-0.375 0.187,-0.375C0.17,-0.375 0.152,-0.373 0.134,-0.371L0.134,-0.723L0.5,-0.723L0.5,-0.639L0.218,-0.639L0.218,-0.448C0.311,-0.448 0.383,-0.427 0.436,-0.384C0.488,-0.342 0.514,-0.283 0.514,-0.207C0.514,-0.137 0.49,-0.082 0.443,-0.042C0.395,-0.002 0.33,0.018 0.246,0.018C0.209,0.018 0.168,0.013 0.122,0.003Z" style="fill-rule:nonzero;"/>
        </g>
        <g transform="matrix(19.9252,0,0,19.9252,248,454.986)">
            <path d="M0.437,0.193L0.437,-0.1C0.397,-0.025 0.339,0.012 0.26,0.012C0.196,0.012 0.146,-0.011 0.109,-0.058C0.073,-0.104 0.054,-0.168 0.054,-0.249C0.054,-0.337 0.075,-0.408 0.116,-0.461C0.158,-0.515 0.213,-0.542 0.28,-0.542C0.343,-0.542 0.395,-0.518 0.437,-0.47L0.437,-0.53L0.533,-0.53L0.533,0.193L0.437,0.193ZM0.437,-0.404C0.387,-0.448 0.34,-0.47 0.295,-0.47C0.203,-0.47 0.157,-0.399 0.157,-0.258C0.157,-0.134 0.198,-0.072 0.28,-0.072C0.333,-0.072 0.385,-0.101 0.437,-0.16L0.437,-0.404Z" style="fill-rule:nonzero;"/>
        </g>
        <g transform="matrix(13.9476,0,0,13.9476,260.541,457.974)">
            <path d="M0.376,-0L0.376,-0.205L0.051,-0.205L0.051,-0.277L0.376,-0.723L0.467,-0.723L0.467,-0.283L0.563,-0.283L0.563,-0.205L0.467,-0.205L0.467,-0L0.376,-0ZM0.146,-0.283L0.383,-0.283L0.383,-0.604L0.146,-0.283Z" style="fill-rule:nonzero;"/>
        </g>
    </g>
    <g transform="matrix(1,0,0,1,-32.5,-125.25)">
        <g transform="matrix(19.9252,0,0,19.9252,184,454.986)">
            <path d="M0.096,0.193L0.096,-0.53L0.192,-0.53L0.192,-0.431C0.232,-0.505 0.291,-0.542 0.37,-0.542C0.433,-0.542 0.484,-0.519 0.52,-0.472C0.557,-0.426 0.575,-0.362 0.575,-0.281C0.575,-0.193 0.554,-0.122 0.513,-0.069C0.471,-0.015 0.417,0.012 0.349,0.012C0.286,0.012 0.234,-0.012 0.192,-0.06L0.192,0.193L0.096,0.193ZM0.192,-0.126C0.242,-0.082 0.289,-0.06 0.334,-0.06C0.426,-0.06 0.473,-0.131 0.473,-0.271C0.473,-0.396 0.432,-0.458 0.35,-0.458C0.296,-0.458 0.243,-0.429 0.192,-0.371L0.192,-0.126Z" style="fill-rule:nonzero;"/>
        </g>
        <g transform="matrix(13.9476,0,0,13.9476,196.541,457.974)">
            <path d="M0.102,-0.005L0.102,-0.095C0.171,-0.068 0.225,-0.054 0.265,-0.054C0.311,-0.054 0.348,-0.068 0.377,-0.094C0.406,-0.121 0.42,-0.156 0.42,-0.199C0.42,-0.3 0.349,-0.351 0.207,-0.351L0.168,-0.351L0.168,-0.416L0.202,-0.417C0.336,-0.417 0.402,-0.464 0.402,-0.558C0.402,-0.632 0.358,-0.668 0.271,-0.668C0.222,-0.668 0.169,-0.655 0.111,-0.628L0.111,-0.712C0.168,-0.731 0.224,-0.741 0.277,-0.741C0.425,-0.741 0.499,-0.685 0.499,-0.573C0.499,-0.488 0.449,-0.428 0.348,-0.392C0.465,-0.365 0.523,-0.301 0.523,-0.2C0.523,-0.132 0.5,-0.079 0.456,-0.04C0.411,-0.001 0.349,0.018 0.271,0.018C0.226,0.018 0.17,0.01 0.102,-0.005Z" style="fill-rule:nonzero;"/>
        </g>
    </g>
    <g transform="matrix(1,0,0,1,-32.5,-125.25)">
        <g transform="matrix(19.9252,0,0,19.9252,372,454.986)">
            <path d="M0.437,0.193L0.437,-0.1C0.397,-0.025 0.339,0.012 0.26,0.012C0.196,0.012 0.146,-0.011 0.109,-0.058C0.073,-0.104 0.054,-0.168 0.054,-0.249C0.054,-0.337 0.075,-0.408 0.116,-0.461C0.158,-0.515 0.213,-0.542 0.28,-0.542C0.343,-0.542 0.395,-0.518 0.437,-0.47L0.437,-0.53L0.533,-0.53L0.533,0.193L0.437,0.193ZM0.437,-0.404C0.387,-0.448 0.34,-0.47 0.295,-0.47C0.203,-0.47 0.157,-0.399 0.157,-0.258C0.157,-0.134 0.198,-0.072 0.28,-0.072C0.333,-0.072 0.385,-0.101 0.437,-0.16L0.437,-0.404Z" style="fill-rule:nonzero;"/>
        </g>
        <g transform="matrix(13.9476,0,0,13.9476,384.541,457.974)">
            <path d="M0.102,-0.005L0.102,-0.095C0.171,-0.068 0.225,-0.054 0.265,-0.054C0.311,-0.054 0.348,-0.068 0.377,-0.094C0.406,-0.121 0.42,-0.156 0.42,-0.199C0.42,-0.3 0.349,-0.351 0.207,-0.351L0.168,-0.351L0.168,-0.416L0.202,-0.417C0.336,-0.417 0.402,-0.464 0.402,-0.558C0.402,-0.632 0.358,-0.668 0.271,-0.668C0.222,-0.668 0.169,-0.655 0.111,-0.628L0.111,-0.712C0.168,-0.731 0.224,-0.741 0.277,-0.741C0.425,-0.741 0.499,-0.685 0.499,-0.573C0.499,-0.488 0.449,-0.428 0.348,-0.392C0.465,-0.365 0.523,-0.301 0.523,-0.2C0.523,-0.132 0.5,-0.079 0.456,-0.04C0.411,-0.001 0.349,0.018 0.271,0.018C0.226,0.018 0.17,0.01 0.102,-0.005Z" style="fill-rule:nonzero;"/>
        </g>
        <g transform="matrix(19.9252,0,0,19.9252,408,454.986)">
            <path d="M0.437,0.193L0.437,-0.1C0.397,-0.025 0.339,0.012 0.26,0.012C0.196,0.012 0.146,-0.011 0.109,-0.058C0.073,-0.104 0.054,-0.168 0.054,-0.249C0.054,-0.337 0.075,-0.408 0.116,-0.461C0.158,-0.515 0.213,-0.542 0.28,-0.542C0.343,-0.542 0.395,-0.518 0.437,-0.47L0.437,-0.53L0.533,-0.53L0.533,0.193L0.437,0.193ZM0.437,-0.404C0.387,-0.448 0.34,-0.47 0.295,-0.47C0.203,-0.47 0.157,-0.399 0.157,-0.258C0.157,-0.134 0.198,-0.072 0.28,-0.072C0.333,-0.072 0.385,-0.101 0.437,-0.16L0.437,-0.404Z" style="fill-rule:nonzero;"/>
        </g>
        <g transform="matrix(13.9476,0,0,13.9476,420.541,457.974)">
            <path d="M0.083,-0L0.083,-0.084C0.111,-0.15 0.168,-0.221 0.253,-0.298L0.308,-0.348C0.379,-0.412 0.415,-0.475 0.415,-0.539C0.415,-0.579 0.402,-0.611 0.378,-0.634C0.354,-0.657 0.321,-0.668 0.278,-0.668C0.228,-0.668 0.169,-0.649 0.101,-0.61L0.101,-0.695C0.165,-0.726 0.229,-0.741 0.292,-0.741C0.36,-0.741 0.414,-0.722 0.455,-0.686C0.496,-0.65 0.517,-0.601 0.517,-0.541C0.517,-0.498 0.506,-0.459 0.486,-0.426C0.465,-0.392 0.426,-0.352 0.37,-0.304L0.333,-0.272C0.256,-0.207 0.211,-0.144 0.199,-0.084L0.513,-0.084L0.513,-0L0.083,-0Z" style="fill-rule:nonzero;"/>
        </g>
        <g transform="matrix(19.9252,0,0,19.9252,456,454.986)">
            <path d="M0.096,0.193L0.096,-0.53L0.192,-0.53L0.192,-0.431C0.232,-0.505 0.291,-0.542 0.37,-0.542C0.433,-0.542 0.484,-0.519 0.52,-0.472C0.557,-0.426 0.575,-0.362 0.575,-0.281C0.575,-0.193 0.554,-0.122 0.513,-0.069C0.471,-0.015 0.417,0.012 0.349,0.012C0.286,0.012 0.234,-0.012 0.192,-0.06L0.192,0.193L0.096,0.193ZM0.192,-0.126C0.242,-0.082 0.289,-0.06 0.334,-0.06C0.426,-0.06 0.473,-0.131 0.473,-0.271C0.473,-0.396 0.432,-0.458 0.35,-0.458C0.296,-0.458 0.243,-0.429 0.192,-0.371L0.192,-0.126Z" style="fill-rule:nonzero;"/>
        </g>
        <g transform="matrix(13.9476,0,0,13.9476,468.541,457.974)">
            <path d="M0.172,-0.375C0.218,-0.434 0.276,-0.464 0.345,-0.464C0.408,-0.464 0.46,-0.443 0.5,-0.401C0.54,-0.359 0.561,-0.306 0.561,-0.24C0.561,-0.165 0.538,-0.103 0.493,-0.055C0.448,-0.006 0.391,0.018 0.321,0.018C0.242,0.018 0.179,-0.014 0.134,-0.078C0.089,-0.142 0.067,-0.231 0.067,-0.345C0.067,-0.471 0.093,-0.568 0.144,-0.637C0.196,-0.707 0.269,-0.741 0.362,-0.741C0.405,-0.741 0.459,-0.732 0.523,-0.714L0.523,-0.63C0.455,-0.656 0.4,-0.669 0.356,-0.669C0.233,-0.669 0.172,-0.571 0.172,-0.375ZM0.464,-0.219C0.464,-0.273 0.452,-0.316 0.427,-0.348C0.402,-0.379 0.368,-0.395 0.325,-0.395C0.284,-0.395 0.249,-0.381 0.22,-0.354C0.19,-0.326 0.176,-0.293 0.176,-0.255C0.176,-0.194 0.19,-0.146 0.218,-0.109C0.245,-0.073 0.282,-0.054 0.328,-0.054C0.369,-0.054 0.402,-0.069 0.427,-0.099C0.452,-0.129 0.464,-0.169 0.464,-0.219Z" style="fill-rule:nonzero;"/>
        </g>
    </g>
    <g transform="matrix(1,0,0,1,-32.5,-125.25)">
        <g transform="matrix(19.9252,0,0,19.9252,512,454.986)">
            <path d="M0.437,0.193L0.437,-0.1C0.397,-0.025 0.339,0.012 0.26,0.012C0.196,0.012 0.146,-0.011 0.109,-0.058C0.073,-0.104 0.054,-0.168 0.054,-0.249C0.054,-0.337 0.075,-0.408 0.116,-0.461C0.158,-0.515 0.213,-0.542 0.28,-0.542C0.343,-0.542 0.395,-0.518 0.437,-0.47L0.437,-0.53L0.533,-0.53L0.533,0.193L0.437,0.193ZM0.437,-0.404C0.387,-0.448 0.34,-0.47 0.295,-0.47C0.203,-0.47 0.157,-0.399 0.157,-0.258C0.157,-0.134 0.198,-0.072 0.28,-0.072C0.333,-0.072 0.385,-0.101 0.437,-0.16L0.437,-0.404Z" style="fill-rule:nonzero;"/>
        </g>
        <g transform="matrix(13.9476,0,0,13.9476,524.541,457.974)">
            <path d="M0.172,-0.375C0.218,-0.434 0.276,-0.464 0.345,-0.464C0.408,-0.464 0.46,-0.443 0.5,-0.401C0.54,-0.359 0.561,-0.306 0.561,-0.24C0.561,-0.165 0.538,-0.103 0.493,-0.055C0.448,-0.006 0.391,0.018 0.321,0.018C0.242,0.018 0.179,-0.014 0.134,-0.078C0.089,-0.142 0.067,-0.231 0.067,-0.345C0.067,-0.471 0.093,-0.568 0.144,-0.637C0.196,-0.707 0.269,-0.741 0.362,-0.741C0.405,-0.741 0.459,-0.732 0.523,-0.714L0.523,-0.63C0.455,-0.656 0.4,-0.669 0.356,-0.669C0.233,-0.669 0.172,-0.571 0.172,-0.375ZM0.464,-0.219C0.464,-0.273 0.452,-0.316 0.427,-0.348C0.402,-0.379 0.368,-0.395 0.325,-0.395C0.284,-0.395 0.249,-0.381 0.22,-0.354C0.19,-0.326 0.176,-0.293 0.176,-0.255C0.176,-0.194 0.19,-0.146 0.218,-0.109C0.245,-0.073 0.282,-0.054 0.328,-0.054C0.369,-0.054 0.402,-0.069 0.427,-0.099C0.452,-0.129 0.464,-0.169 0.464,-0.219Z" style="fill-rule:nonzero;"/>
        </g>
    </g>
    <g transform="matrix(1,0,0,1,-32.5,-125.25)">
        <g transform="matrix(19.9252,0,0,19.9252,696,454.986)">
            <path d="M0.437,0.193L0.437,-0.1C0.397,-0.025 0.339,0.012 0.26,0.012C0.196,0.012 0.146,-0.011 0.109,-0.058C0.073,-0.104 0.054,-0.168 0.054,-0.249C0.054,-0.337 0.075,-0.408 0.116,-0.461C0.158,-0.515 0.213,-0.542 0.28,-0.542C0.343,-0.542 0.395,-0.518 0.437,-0.47L0.437,-0.53L0.533,-0.53L0.533,0.193L0.437,0.193ZM0.437,-0.404C0.387,-0.448 0.34,-0.47 0.295,-0.47C0.203,-0.47 0.157,-0.399 0.157,-0.258C0.157,-0.134 0.198,-0.072 0.28,-0.072C0.333,-0.072 0.385,-0.101 0.437,-0.16L0.437,-0.404Z" style="fill-rule:nonzero;"/>
        </g>
        <g transform="matrix(13.9476,0,0,13.9476,708.541,457.974)">
            <path d="M0.122,0.003L0.122,-0.083C0.169,-0.064 0.215,-0.054 0.258,-0.054C0.306,-0.054 0.343,-0.068 0.37,-0.096C0.398,-0.124 0.411,-0.163 0.411,-0.212C0.411,-0.32 0.336,-0.375 0.187,-0.375C0.17,-0.375 0.152,-0.373 0.134,-0.371L0.134,-0.723L0.5,-0.723L0.5,-0.639L0.218,-0.639L0.218,-0.448C0.311,-0.448 0.383,-0.427 0.436,-0.384C0.488,-0.342 0.514,-0.283 0.514,-0.207C0.514,-0.137 0.49,-0.082 0.443,-0.042C0.395,-0.002 0.33,0.018 0.246,0.018C0.209,0.018 0.168,0.013 0.122,0.003Z" style="fill-rule:nonzero;"/>
        </g>
    </g>
    <g transform="matrix(1,0,0,1,-32.5,-125.25)">
        <g transform="matrix(19.9252,0,0,19.9252,760,454.986)">
            <path d="M0.437,0.193L0.437,-0.1C0.397,-0.025 0.339,0.012 0.26,0.012C0.196,0.012 0.146,-0.011 0.109,-0.058C0.073,-0.104 0.054,-0.168 0.054,-0.249C0.054,-0.337 0.075,-0.408 0.116,-0.461C0.158,-0.515 0.213,-0.542 0.28,-0.542C0.343,-0.542 0.395,-0.518 0.437,-0.47L0.437,-0.53L0.533,-0.53L0.533,0.193L0.437,0.193ZM0.437,-0.404C0.387,-0.448 0.34,-0.47 0.295,-0.47C0.203,-0.47 0.157,-0.399 0.157,-0.258C0.157,-0.134 0.198,-0.072 0.28,-0.072C0.333,-0.072 0.385,-0.101 0.437,-0.16L0.437,-0.404Z" style="fill-rule:nonzero;"/>
        </g>
        <g transform="matrix(13.9476,0,0,13.9476,772.541,457.974)">
            <path d="M0.15,-0L0.15,-0.072L0.295,-0.072L0.295,-0.643L0.15,-0.606L0.15,-0.681L0.392,-0.741L0.392,-0.072L0.536,-0.072L0.536,-0L0.15,-0Z" style="fill-rule:nonzero;"/>
        </g>
    </g>
    <g transform="matrix(1,0,0,1,-32.5,-125.25)">
        <g transform="matrix(19.9252,0,0,19.9252,40,182.992)">
            <path d="M0.237,0.012C0.193,0.012 0.139,0.002 0.077,-0.019L0.077,-0.107C0.139,-0.076 0.194,-0.06 0.241,-0.06C0.268,-0.06 0.291,-0.068 0.31,-0.083C0.328,-0.097 0.337,-0.116 0.337,-0.139C0.337,-0.172 0.311,-0.199 0.26,-0.22L0.204,-0.244C0.121,-0.279 0.08,-0.328 0.08,-0.393C0.08,-0.439 0.096,-0.476 0.129,-0.502C0.161,-0.529 0.206,-0.542 0.263,-0.542C0.293,-0.542 0.329,-0.538 0.373,-0.53L0.393,-0.526L0.393,-0.446C0.339,-0.462 0.297,-0.47 0.265,-0.47C0.203,-0.47 0.172,-0.447 0.172,-0.402C0.172,-0.373 0.196,-0.349 0.243,-0.329L0.289,-0.31C0.341,-0.287 0.379,-0.264 0.4,-0.24C0.422,-0.215 0.433,-0.184 0.433,-0.147C0.433,-0.101 0.415,-0.063 0.378,-0.033C0.341,-0.003 0.294,0.012 0.237,0.012Z" style="fill-rule:nonzero;"/>
        </g>
        <g transform="matrix(13.9476,0,0,13.9476,50.1572,185.98)">
            <path d="M0.15,-0L0.15,-0.072L0.295,-0.072L0.295,-0.643L0.15,-0.606L0.15,-0.681L0.392,-0.741L0.392,-0.072L0.536,-0.072L0.536,-0L0.15,-0Z" style="fill-rule:nonzero;"/>
        </g>
    </g>
    <g transform="matrix(1,0,0,1,-32.5,-125.25)">
        <g transform="matrix(19.9252,0,0,19.9252,40,342.992)">
            <path d="M0.237,0.012C0.193,0.012 0.139,0.002 0.077,-0.019L0.077,-0.107C0.139,-0.076 0.194,-0.06 0.241,-0.06C0.268,-0.06 0.291,-0.068 0.31,-0.083C0.328,-0.097 0.337,-0.116 0.337,-0.139C0.337,-0.172 0.311,-0.199 0.26,-0.22L0.204,-0.244C0.121,-0.279 0.08,-0.328 0.08,-0.393C0.08,-0.439 0.096,-0.476 0.129,-0.502C0.161,-0.529 0.206,-0.542 0.263,-0.542C0.293,-0.542 0.329,-0.538 0.373,-0.53L0.393,-0.526L0.393,-0.446C0.339,-0.462 0.297,-0.47 0.265,-0.47C0.203,-0.47 0.172,-0.447 0.172,-0.402C0.172,-0.373 0.196,-0.349 0.243,-0.329L0.289,-0.31C0.341,-0.287 0.379,-0.264 0.4,-0.24C0.422,-0.215 0.433,-0.184 0.433,-0.147C0.433,-0.101 0.415,-0.063 0.378,-0.033C0.341,-0.003 0.294,0.012 0.237,0.012Z" style="fill-rule:nonzero;"/>
        </g>
        <g transform="matrix(13.9476,0,0,13.9476,50.1572,345.98)">
            <path d="M0.376,-0L0.376,-0.205L0.051,-0.205L0.051,-0.277L0.376,-0.723L0.467,-0.723L0.467,-0.283L0.563,-0.283L0.563,-0.205L0.467,-0.205L0.467,-0L0.376,-0ZM0.146,-0.283L0.383,-0.283L0.383,-0.604L0.146,-0.283Z" style="fill-rule:nonzero;"/>
        </g>
    </g>
    <path d="M110.497,57.75L110.497,56.31L113.376,56.31L113.376,44.947L110.497,45.666L110.497,44.188L115.303,42.991L115.303,56.31L118.183,56.31L118.183,57.75L110.497,57.75Z" style="fill-rule:nonzero;"/>
    <path d="M141.154,193.75L141.154,192.067C141.712,190.763 142.84,189.343 144.54,187.806L145.639,186.823C147.053,185.545 147.76,184.277 147.76,183.019C147.76,182.215 147.518,181.582 147.035,181.122C146.552,180.661 145.889,180.431 145.046,180.431C144.047,180.431 142.87,180.817 141.514,181.589L141.514,179.896C142.792,179.293 144.06,178.991 145.318,178.991C146.667,178.991 147.75,179.354 148.568,180.081C149.385,180.807 149.793,181.77 149.793,182.97C149.793,183.833 149.587,184.598 149.176,185.266C148.764,185.934 147.997,186.745 146.875,187.698L146.135,188.331C144.598,189.635 143.709,190.88 143.469,192.067L149.725,192.067L149.725,193.75L141.154,193.75Z" style="fill-rule:nonzero;"/>
    <path d="M111.001,237.75L111.001,233.674L104.522,233.674L104.522,232.224L111.001,223.351L112.801,223.351L112.801,232.107L114.727,232.107L114.727,233.674L112.801,233.674L112.801,237.75L111.001,237.75ZM106.399,232.107L111.128,232.107L111.128,225.705L106.399,232.107Z" style="fill-rule:nonzero;"/>
    <path d="M329.923,269.808L329.923,268.096C330.876,268.479 331.784,268.67 332.647,268.67C333.594,268.67 334.338,268.391 334.88,267.833C335.421,267.276 335.692,266.507 335.692,265.528C335.692,263.368 334.203,262.288 331.226,262.288C330.889,262.288 330.535,262.31 330.166,262.356L330.166,255.351L337.453,255.351L337.453,257.024L331.849,257.024L331.849,260.819C333.697,260.819 335.141,261.244 336.178,262.093C337.216,262.943 337.735,264.12 337.735,265.625C337.735,267.026 337.263,268.124 336.319,268.918C335.376,269.713 334.067,270.11 332.394,270.11C331.667,270.11 330.844,270.009 329.923,269.808Z" style="fill-rule:nonzero;"/>
    <path d="M177.524,125.643L177.524,123.853C178.899,124.398 179.982,124.67 180.773,124.67C181.688,124.67 182.432,124.403 183.006,123.867C183.58,123.332 183.867,122.64 183.867,121.79C183.867,119.767 182.45,118.755 179.615,118.755L178.857,118.755L178.857,117.461L179.528,117.451C182.187,117.451 183.517,116.514 183.517,114.639C183.517,113.167 182.641,112.431 180.89,112.431C179.93,112.431 178.873,112.7 177.718,113.238L177.718,111.565C178.853,111.182 179.956,110.991 181.026,110.991C183.971,110.991 185.443,112.103 185.443,114.328C185.443,116.021 184.441,117.227 182.437,117.947C184.759,118.486 185.92,119.757 185.92,121.761C185.92,123.117 185.472,124.18 184.577,124.952C183.682,125.724 182.453,126.11 180.89,126.11C180.001,126.11 178.879,125.954 177.524,125.643Z" style="fill-rule:nonzero;"/>
    <path d="M462.925,250.288C463.839,249.101 464.99,248.507 466.378,248.507C467.637,248.507 468.666,248.924 469.467,249.758C470.268,250.591 470.669,251.66 470.669,252.963C470.669,254.462 470.22,255.694 469.322,256.66C468.423,257.627 467.283,258.11 465.902,258.11C464.313,258.11 463.071,257.471 462.176,256.193C461.28,254.916 460.833,253.142 460.833,250.872C460.833,248.374 461.347,246.435 462.375,245.054C463.403,243.672 464.851,242.981 466.719,242.981C467.575,242.981 468.645,243.163 469.93,243.526L469.93,245.199C468.574,244.681 467.465,244.421 466.602,244.421C464.151,244.421 462.925,246.377 462.925,250.288ZM468.743,253.391C468.743,252.302 468.498,251.446 468.008,250.823C467.518,250.2 466.839,249.889 465.97,249.889C465.159,249.889 464.462,250.161 463.878,250.706C463.294,251.251 463.002,251.906 463.002,252.671C463.002,253.878 463.28,254.846 463.834,255.576C464.389,256.305 465.123,256.67 466.038,256.67C466.862,256.67 467.518,256.373 468.008,255.78C468.498,255.186 468.743,254.39 468.743,253.391Z" style="fill-rule:nonzero;"/>
    <g transform="matrix(1,0,0,1,-32.5,-125.25)">
        <g transform="matrix(19.9252,0,0,19.9252,40,310.992)">
            <path d="M0.237,0.012C0.193,0.012 0.139,0.002 0.077,-0.019L0.077,-0.107C0.139,-0.076 0.194,-0.06 0.241,-0.06C0.268,-0.06 0.291,-0.068 0.31,-0.083C0.328,-0.097 0.337,-0.116 0.337,-0.139C0.337,-0.172 0.311,-0.199 0.26,-0.22L0.204,-0.244C0.121,-0.279 0.08,-0.328 0.08,-0.393C0.08,-0.439 0.096,-0.476 0.129,-0.502C0.161,-0.529 0.206,-0.542 0.263,-0.542C0.293,-0.542 0.329,-0.538 0.373,-0.53L0.393,-0.526L0.393,-0.446C0.339,-0.462 0.297,-0.47 0.265,-0.47C0.203,-0.47 0.172,-0.447 0.172,-0.402C0.172,-0.373 0.196,-0.349 0.243,-0.329L0.289,-0.31C0.341,-0.287 0.379,-0.264 0.4,-0.24C0.422,-0.215 0.433,-0.184 0.433,-0.147C0.433,-0.101 0.415,-0.063 0.378,-0.033C0.341,-0.003 0.294,0.012 0.237,0.012Z" style="fill:rgb(26,26,26);fill-rule:nonzero;"/>
        </g>
        <g transform="matrix(13.9476,0,0,13.9476,50.1572,313.98)">
            <path d="M0.083,-0L0.083,-0.084C0.111,-0.15 0.168,-0.221 0.253,-0.298L0.308,-0.348C0.379,-0.412 0.415,-0.475 0.415,-0.539C0.415,-0.579 0.402,-0.611 0.378,-0.634C0.354,-0.657 0.321,-0.668 0.278,-0.668C0.228,-0.668 0.169,-0.649 0.101,-0.61L0.101,-0.695C0.165,-0.726 0.229,-0.741 0.292,-0.741C0.36,-0.741 0.414,-0.722 0.455,-0.686C0.496,-0.65 0.517,-0.601 0.517,-0.541C0.517,-0.498 0.506,-0.459 0.486,-0.426C0.465,-0.392 0.426,-0.352 0.37,-0.304L0.333,-0.272C0.256,-0.207 0.211,-0.144 0.199,-0.084L0.513,-0.084L0.513,-0L0.083,-0Z" style="fill:rgb(26,26,26);fill-rule:nonzero;"/>
        </g>
    </g>
    <g transform="matrix(1,0,0,1,-32.5,-125.25)">
        <g transform="matrix(19.9252,0,0,19.9252,304,454.992)">
            <path d="M0.096,-0L0.096,-0.53L0.192,-0.53L0.192,-0.431C0.23,-0.505 0.286,-0.542 0.358,-0.542C0.368,-0.542 0.378,-0.541 0.389,-0.54L0.389,-0.45C0.373,-0.455 0.358,-0.458 0.345,-0.458C0.284,-0.458 0.233,-0.422 0.192,-0.35L0.192,-0L0.096,-0Z" style="fill-rule:nonzero;"/>
        </g>
        <g transform="matrix(13.9476,0,0,13.9476,312.153,457.98)">
            <path d="M0.15,-0L0.15,-0.072L0.295,-0.072L0.295,-0.643L0.15,-0.606L0.15,-0.681L0.392,-0.741L0.392,-0.072L0.536,-0.072L0.536,-0L0.15,-0Z" style="fill-rule:nonzero;"/>
        </g>
        <g transform="matrix(13.9476,0,0,13.9476,320.972,457.98)">
            <path d="M0.083,-0L0.083,-0.084C0.111,-0.15 0.168,-0.221 0.253,-0.298L0.308,-0.348C0.379,-0.412 0.415,-0.475 0.415,-0.539C0.415,-0.579 0.402,-0.611 0.378,-0.634C0.354,-0.657 0.321,-0.668 0.278,-0.668C0.228,-0.668 0.169,-0.649 0.101,-0.61L0.101,-0.695C0.165,-0.726 0.229,-0.741 0.292,-0.741C0.36,-0.741 0.414,-0.722 0.455,-0.686C0.496,-0.65 0.517,-0.601 0.517,-0.541C0.517,-0.498 0.506,-0.459 0.486,-0.426C0.465,-0.392 0.426,-0.352 0.37,-0.304L0.333,-0.272C0.256,-0.207 0.211,-0.144 0.199,-0.084L0.513,-0.084L0.513,-0L0.083,-0Z" style="fill-rule:nonzero;"/>
        </g>
        <g transform="matrix(19.9252,0,0,19.9252,304,518.987)">
            <path d="M0.096,-0L0.096,-0.53L0.192,-0.53L0.192,-0.431C0.23,-0.505 0.286,-0.542 0.358,-0.542C0.368,-0.542 0.378,-0.541 0.389,-0.54L0.389,-0.45C0.373,-0.455 0.358,-0.458 0.345,-0.458C0.284,-0.458 0.233,-0.422 0.192,-0.35L0.192,-0L0.096,-0Z" style="fill-rule:nonzero;"/>
        </g>
        <g transform="matrix(13.9476,0,0,13.9476,312.153,521.975)">
            <path d="M0.15,-0L0.15,-0.072L0.295,-0.072L0.295,-0.643L0.15,-0.606L0.15,-0.681L0.392,-0.741L0.392,-0.072L0.536,-0.072L0.536,-0L0.15,-0Z" style="fill-rule:nonzero;"/>
        </g>
        <g transform="matrix(13.9476,0,0,13.9476,320.972,521.975)">
            <path d="M0.083,-0L0.083,-0.084C0.111,-0.15 0.168,-0.221 0.253,-0.298L0.308,-0.348C0.379,-0.412 0.415,-0.475 0.415,-0.539C0.415,-0.579 0.402,-0.611 0.378,-0.634C0.354,-0.657 0.321,-0.668 0.278,-0.668C0.228,-0.668 0.169,-0.649 0.101,-0.61L0.101,-0.695C0.165,-0.726 0.229,-0.741 0.292,-0.741C0.36,-0.741 0.414,-0.722 0.455,-0.686C0.496,-0.65 0.517,-0.601 0.517,-0.541C0.517,-0.498 0.506,-0.459 0.486,-0.426C0.465,-0.392 0.426,-0.352 0.37,-0.304L0.333,-0.272C0.256,-0.207 0.211,-0.144 0.199,-0.084L0.513,-0.084L0.513,-0L0.083,-0Z" style="fill-rule:nonzero;"/>
        </g>
    </g>
    <path d="M777.73,333.75L777.73,316.471L787.385,316.471L787.385,318.304L780.182,318.304L780.182,323.85L786.218,323.85L786.218,325.659L780.182,325.659L780.182,331.917L787.887,331.917L787.887,333.75L777.73,333.75Z" style="fill-rule:nonzero;"/>
    <path d="M9.73,17.75L9.73,0.471L12.182,0.471L12.182,15.917L19.957,15.917L19.957,17.75L9.73,17.75Z" style="fill-rule:nonzero;"/>
    <path d="M601.73,397.75L601.73,380.471L606.96,380.471C608.618,380.471 609.889,380.837 610.772,381.568C611.656,382.3 612.097,383.363 612.097,384.756C612.097,387.06 610.934,388.694 608.607,389.659L614.374,397.75L611.362,397.75L606.447,390.441L604.158,390.441L604.158,397.75L601.73,397.75ZM604.158,388.608L604.952,388.608C608.034,388.608 609.576,387.398 609.576,384.978C609.576,383.195 608.283,382.304 605.699,382.304L604.158,382.304L604.158,388.608Z" style="fill-rule:nonzero;"/>
    <path d="M127.5,21.75L127.5,309.75" style="fill:none;fill-rule:nonzero;stroke:rgb(255,165,0);stroke-width:3.6px;"/>
    <path d="M127.5,181.75L383.5,69.75" style="fill:none;fill-rule:nonzero;stroke:rgb(255,0,0);stroke-width:2.4px;"/>
    <path d="M91.5,213.75L223.5,249.75" style="fill:none;fill-rule:nonzero;stroke:rgb(255,0,0);stroke-width:2.4px;"/>
</svg>
