<?xml version="1.0" encoding="UTF-8" standalone="no"?>
<!DOCTYPE svg PUBLIC "-//W3C//DTD SVG 1.1//EN" "http://www.w3.org/Graphics/SVG/1.1/DTD/svg11.dtd">
<svg width="100%" height="100%" viewBox="0 0 791 406" version="1.1" xmlns="http://www.w3.org/2000/svg" xmlns:xlink="http://www.w3.org/1999/xlink" xml:space="preserve" xmlns:serif="http://www.serif.com/" style="fill-rule:evenodd;clip-rule:evenodd;stroke-linejoin:round;stroke-miterlimit:10;">
    <rect id="Page-29" serif:id="Page 29" x="-31.75" y="-124.625" width="842" height="595" style="fill:none;"/>
    <path d="M64.25,54.375L736.25,246.375" style="fill:none;fill-rule:nonzero;stroke:black;stroke-width:2.4px;"/>
    <path d="M128.25,182.375L384.25,70.375" style="fill:none;fill-rule:nonzero;stroke:black;stroke-width:2.4px;"/>
    <path d="M160.25,134.375L348.25,122.375" style="fill:none;fill-rule:nonzero;stroke:black;stroke-width:2.4px;"/>
    <path d="M92.25,214.375L224.25,250.375" style="fill:none;fill-rule:nonzero;stroke:black;stroke-width:2.4px;"/>
    <path d="M192.25,286.375L672.25,162.375" style="fill:none;fill-rule:nonzero;stroke:black;stroke-width:2.4px;"/>
    <path d="M435.865,207.505L488.25,254.375" style="fill:none;fill-rule:nonzero;stroke:black;stroke-width:2.4px;"/>
    <rect x="32.25" y="310.375" width="736" height="32" style="fill:rgb(255,228,225);"/>
    <g transform="matrix(1,0,0,1,-31.75,-124.625)">
        <g transform="matrix(19.9252,0,0,19.9252,88,454.986)">
            <path d="M0.096,0.193L0.096,-0.53L0.192,-0.53L0.192,-0.431C0.232,-0.505 0.291,-0.542 0.37,-0.542C0.433,-0.542 0.484,-0.519 0.52,-0.472C0.557,-0.426 0.575,-0.362 0.575,-0.281C0.575,-0.193 0.554,-0.122 0.513,-0.069C0.471,-0.015 0.417,0.012 0.349,0.012C0.286,0.012 0.234,-0.012 0.192,-0.06L0.192,0.193L0.096,0.193ZM0.192,-0.126C0.242,-0.082 0.289,-0.06 0.334,-0.06C0.426,-0.06 0.473,-0.131 0.473,-0.271C0.473,-0.396 0.432,-0.458 0.35,-0.458C0.296,-0.458 0.243,-0.429 0.192,-0.371L0.192,-0.126Z" style="fill-rule:nonzero;"/>
        </g>
        <g transform="matrix(13.9476,0,0,13.9476,100.541,457.974)">
            <path d="M0.15,-0L0.15,-0.072L0.295,-0.072L0.295,-0.643L0.15,-0.606L0.15,-0.681L0.392,-0.741L0.392,-0.072L0.536,-0.072L0.536,-0L0.15,-0Z" style="fill-rule:nonzero;"/>
        </g>
        <g transform="matrix(19.9252,0,0,19.9252,116,454.986)">
            <path d="M0.096,0.193L0.096,-0.53L0.192,-0.53L0.192,-0.431C0.232,-0.505 0.291,-0.542 0.37,-0.542C0.433,-0.542 0.484,-0.519 0.52,-0.472C0.557,-0.426 0.575,-0.362 0.575,-0.281C0.575,-0.193 0.554,-0.122 0.513,-0.069C0.471,-0.015 0.417,0.012 0.349,0.012C0.286,0.012 0.234,-0.012 0.192,-0.06L0.192,0.193L0.096,0.193ZM0.192,-0.126C0.242,-0.082 0.289,-0.06 0.334,-0.06C0.426,-0.06 0.473,-0.131 0.473,-0.271C0.473,-0.396 0.432,-0.458 0.35,-0.458C0.296,-0.458 0.243,-0.429 0.192,-0.371L0.192,-0.126Z" style="fill-rule:nonzero;"/>
        </g>
        <g transform="matrix(13.9476,0,0,13.9476,128.541,457.974)">
            <path d="M0.376,-0L0.376,-0.205L0.051,-0.205L0.051,-0.277L0.376,-0.723L0.467,-0.723L0.467,-0.283L0.563,-0.283L0.563,-0.205L0.467,-0.205L0.467,-0L0.376,-0ZM0.146,-0.283L0.383,-0.283L0.383,-0.604L0.146,-0.283Z" style="fill-rule:nonzero;"/>
        </g>
        <g transform="matrix(19.9252,0,0,19.9252,152,454.986)">
            <path d="M0.096,0.193L0.096,-0.53L0.192,-0.53L0.192,-0.431C0.232,-0.505 0.291,-0.542 0.37,-0.542C0.433,-0.542 0.484,-0.519 0.52,-0.472C0.557,-0.426 0.575,-0.362 0.575,-0.281C0.575,-0.193 0.554,-0.122 0.513,-0.069C0.471,-0.015 0.417,0.012 0.349,0.012C0.286,0.012 0.234,-0.012 0.192,-0.06L0.192,0.193L0.096,0.193ZM0.192,-0.126C0.242,-0.082 0.289,-0.06 0.334,-0.06C0.426,-0.06 0.473,-0.131 0.473,-0.271C0.473,-0.396 0.432,-0.458 0.35,-0.458C0.296,-0.458 0.243,-0.429 0.192,-0.371L0.192,-0.126Z" style="fill-rule:nonzero;"/>
        </g>
        <g transform="matrix(13.9476,0,0,13.9476,164.541,457.974)">
            <path d="M0.083,-0L0.083,-0.084C0.111,-0.15 0.168,-0.221 0.253,-0.298L0.308,-0.348C0.379,-0.412 0.415,-0.475 0.415,-0.539C0.415,-0.579 0.402,-0.611 0.378,-0.634C0.354,-0.657 0.321,-0.668 0.278,-0.668C0.228,-0.668 0.169,-0.649 0.101,-0.61L0.101,-0.695C0.165,-0.726 0.229,-0.741 0.292,-0.741C0.36,-0.741 0.414,-0.722 0.455,-0.686C0.496,-0.65 0.517,-0.601 0.517,-0.541C0.517,-0.498 0.506,-0.459 0.486,-0.426C0.465,-0.392 0.426,-0.352 0.37,-0.304L0.333,-0.272C0.256,-0.207 0.211,-0.144 0.199,-0.084L0.513,-0.084L0.513,-0L0.083,-0Z" style="fill-rule:nonzero;"/>
        </g>
    </g>
    <g transform="matrix(1,0,0,1,-31.75,-124.625)">
        <g transform="matrix(19.9252,0,0,19.9252,216,454.986)">
            <path d="M0.096,0.193L0.096,-0.53L0.192,-0.53L0.192,-0.431C0.232,-0.505 0.291,-0.542 0.37,-0.542C0.433,-0.542 0.484,-0.519 0.52,-0.472C0.557,-0.426 0.575,-0.362 0.575,-0.281C0.575,-0.193 0.554,-0.122 0.513,-0.069C0.471,-0.015 0.417,0.012 0.349,0.012C0.286,0.012 0.234,-0.012 0.192,-0.06L0.192,0.193L0.096,0.193ZM0.192,-0.126C0.242,-0.082 0.289,-0.06 0.334,-0.06C0.426,-0.06 0.473,-0.131 0.473,-0.271C0.473,-0.396 0.432,-0.458 0.35,-0.458C0.296,-0.458 0.243,-0.429 0.192,-0.371L0.192,-0.126Z" style="fill-rule:nonzero;"/>
        </g>
        <g transform="matrix(13.9476,0,0,13.9476,228.541,457.974)">
            <path d="M0.122,0.003L0.122,-0.083C0.169,-0.064 0.215,-0.054 0.258,-0.054C0.306,-0.054 0.343,-0.068 0.37,-0.096C0.398,-0.124 0.411,-0.163 0.411,-0.212C0.411,-0.32 0.336,-0.375 0.187,-0.375C0.17,-0.375 0.152,-0.373 0.134,-0.371L0.134,-0.723L0.5,-0.723L0.5,-0.639L0.218,-0.639L0.218,-0.448C0.311,-0.448 0.383,-0.427 0.436,-0.384C0.488,-0.342 0.514,-0.283 0.514,-0.207C0.514,-0.137 0.49,-0.082 0.443,-0.042C0.395,-0.002 0.33,0.018 0.246,0.018C0.209,0.018 0.168,0.013 0.122,0.003Z" style="fill-rule:nonzero;"/>
        </g>
        <g transform="matrix(19.9252,0,0,19.9252,248,454.986)">
            <path d="M0.437,0.193L0.437,-0.1C0.397,-0.025 0.339,0.012 0.26,0.012C0.196,0.012 0.146,-0.011 0.109,-0.058C0.073,-0.104 0.054,-0.168 0.054,-0.249C0.054,-0.337 0.075,-0.408 0.116,-0.461C0.158,-0.515 0.213,-0.542 0.28,-0.542C0.343,-0.542 0.395,-0.518 0.437,-0.47L0.437,-0.53L0.533,-0.53L0.533,0.193L0.437,0.193ZM0.437,-0.404C0.387,-0.448 0.34,-0.47 0.295,-0.47C0.203,-0.47 0.157,-0.399 0.157,-0.258C0.157,-0.134 0.198,-0.072 0.28,-0.072C0.333,-0.072 0.385,-0.101 0.437,-0.16L0.437,-0.404Z" style="fill-rule:nonzero;"/>
        </g>
        <g transform="matrix(13.9476,0,0,13.9476,260.541,457.974)">
            <path d="M0.376,-0L0.376,-0.205L0.051,-0.205L0.051,-0.277L0.376,-0.723L0.467,-0.723L0.467,-0.283L0.563,-0.283L0.563,-0.205L0.467,-0.205L0.467,-0L0.376,-0ZM0.146,-0.283L0.383,-0.283L0.383,-0.604L0.146,-0.283Z" style="fill-rule:nonzero;"/>
        </g>
    </g>
    <g transform="matrix(1,0,0,1,-31.75,-124.625)">
        <g transform="matrix(19.9252,0,0,19.9252,184,454.986)">
            <path d="M0.096,0.193L0.096,-0.53L0.192,-0.53L0.192,-0.431C0.232,-0.505 0.291,-0.542 0.37,-0.542C0.433,-0.542 0.484,-0.519 0.52,-0.472C0.557,-0.426 0.575,-0.362 0.575,-0.281C0.575,-0.193 0.554,-0.122 0.513,-0.069C0.471,-0.015 0.417,0.012 0.349,0.012C0.286,0.012 0.234,-0.012 0.192,-0.06L0.192,0.193L0.096,0.193ZM0.192,-0.126C0.242,-0.082 0.289,-0.06 0.334,-0.06C0.426,-0.06 0.473,-0.131 0.473,-0.271C0.473,-0.396 0.432,-0.458 0.35,-0.458C0.296,-0.458 0.243,-0.429 0.192,-0.371L0.192,-0.126Z" style="fill-rule:nonzero;"/>
        </g>
        <g transform="matrix(13.9476,0,0,13.9476,196.541,457.974)">
            <path d="M0.102,-0.005L0.102,-0.095C0.171,-0.068 0.225,-0.054 0.265,-0.054C0.311,-0.054 0.348,-0.068 0.377,-0.094C0.406,-0.121 0.42,-0.156 0.42,-0.199C0.42,-0.3 0.349,-0.351 0.207,-0.351L0.168,-0.351L0.168,-0.416L0.202,-0.417C0.336,-0.417 0.402,-0.464 0.402,-0.558C0.402,-0.632 0.358,-0.668 0.271,-0.668C0.222,-0.668 0.169,-0.655 0.111,-0.628L0.111,-0.712C0.168,-0.731 0.224,-0.741 0.277,-0.741C0.425,-0.741 0.499,-0.685 0.499,-0.573C0.499,-0.488 0.449,-0.428 0.348,-0.392C0.465,-0.365 0.523,-0.301 0.523,-0.2C0.523,-0.132 0.5,-0.079 0.456,-0.04C0.411,-0.001 0.349,0.018 0.271,0.018C0.226,0.018 0.17,0.01 0.102,-0.005Z" style="fill-rule:nonzero;"/>
        </g>
    </g>
    <g transform="matrix(1,0,0,1,-31.75,-124.625)">
        <g transform="matrix(19.9252,0,0,19.9252,372,454.986)">
            <path d="M0.437,0.193L0.437,-0.1C0.397,-0.025 0.339,0.012 0.26,0.012C0.196,0.012 0.146,-0.011 0.109,-0.058C0.073,-0.104 0.054,-0.168 0.054,-0.249C0.054,-0.337 0.075,-0.408 0.116,-0.461C0.158,-0.515 0.213,-0.542 0.28,-0.542C0.343,-0.542 0.395,-0.518 0.437,-0.47L0.437,-0.53L0.533,-0.53L0.533,0.193L0.437,0.193ZM0.437,-0.404C0.387,-0.448 0.34,-0.47 0.295,-0.47C0.203,-0.47 0.157,-0.399 0.157,-0.258C0.157,-0.134 0.198,-0.072 0.28,-0.072C0.333,-0.072 0.385,-0.101 0.437,-0.16L0.437,-0.404Z" style="fill-rule:nonzero;"/>
        </g>
        <g transform="matrix(13.9476,0,0,13.9476,384.541,457.974)">
            <path d="M0.102,-0.005L0.102,-0.095C0.171,-0.068 0.225,-0.054 0.265,-0.054C0.311,-0.054 0.348,-0.068 0.377,-0.094C0.406,-0.121 0.42,-0.156 0.42,-0.199C0.42,-0.3 0.349,-0.351 0.207,-0.351L0.168,-0.351L0.168,-0.416L0.202,-0.417C0.336,-0.417 0.402,-0.464 0.402,-0.558C0.402,-0.632 0.358,-0.668 0.271,-0.668C0.222,-0.668 0.169,-0.655 0.111,-0.628L0.111,-0.712C0.168,-0.731 0.224,-0.741 0.277,-0.741C0.425,-0.741 0.499,-0.685 0.499,-0.573C0.499,-0.488 0.449,-0.428 0.348,-0.392C0.465,-0.365 0.523,-0.301 0.523,-0.2C0.523,-0.132 0.5,-0.079 0.456,-0.04C0.411,-0.001 0.349,0.018 0.271,0.018C0.226,0.018 0.17,0.01 0.102,-0.005Z" style="fill-rule:nonzero;"/>
        </g>
        <g transform="matrix(19.9252,0,0,19.9252,408,454.986)">
            <path d="M0.437,0.193L0.437,-0.1C0.397,-0.025 0.339,0.012 0.26,0.012C0.196,0.012 0.146,-0.011 0.109,-0.058C0.073,-0.104 0.054,-0.168 0.054,-0.249C0.054,-0.337 0.075,-0.408 0.116,-0.461C0.158,-0.515 0.213,-0.542 0.28,-0.542C0.343,-0.542 0.395,-0.518 0.437,-0.47L0.437,-0.53L0.533,-0.53L0.533,0.193L0.437,0.193ZM0.437,-0.404C0.387,-0.448 0.34,-0.47 0.295,-0.47C0.203,-0.47 0.157,-0.399 0.157,-0.258C0.157,-0.134 0.198,-0.072 0.28,-0.072C0.333,-0.072 0.385,-0.101 0.437,-0.16L0.437,-0.404Z" style="fill-rule:nonzero;"/>
        </g>
        <g transform="matrix(13.9476,0,0,13.9476,420.541,457.974)">
            <path d="M0.083,-0L0.083,-0.084C0.111,-0.15 0.168,-0.221 0.253,-0.298L0.308,-0.348C0.379,-0.412 0.415,-0.475 0.415,-0.539C0.415,-0.579 0.402,-0.611 0.378,-0.634C0.354,-0.657 0.321,-0.668 0.278,-0.668C0.228,-0.668 0.169,-0.649 0.101,-0.61L0.101,-0.695C0.165,-0.726 0.229,-0.741 0.292,-0.741C0.36,-0.741 0.414,-0.722 0.455,-0.686C0.496,-0.65 0.517,-0.601 0.517,-0.541C0.517,-0.498 0.506,-0.459 0.486,-0.426C0.465,-0.392 0.426,-0.352 0.37,-0.304L0.333,-0.272C0.256,-0.207 0.211,-0.144 0.199,-0.084L0.513,-0.084L0.513,-0L0.083,-0Z" style="fill-rule:nonzero;"/>
        </g>
        <g transform="matrix(19.9252,0,0,19.9252,456,454.986)">
            <path d="M0.096,0.193L0.096,-0.53L0.192,-0.53L0.192,-0.431C0.232,-0.505 0.291,-0.542 0.37,-0.542C0.433,-0.542 0.484,-0.519 0.52,-0.472C0.557,-0.426 0.575,-0.362 0.575,-0.281C0.575,-0.193 0.554,-0.122 0.513,-0.069C0.471,-0.015 0.417,0.012 0.349,0.012C0.286,0.012 0.234,-0.012 0.192,-0.06L0.192,0.193L0.096,0.193ZM0.192,-0.126C0.242,-0.082 0.289,-0.06 0.334,-0.06C0.426,-0.06 0.473,-0.131 0.473,-0.271C0.473,-0.396 0.432,-0.458 0.35,-0.458C0.296,-0.458 0.243,-0.429 0.192,-0.371L0.192,-0.126Z" style="fill-rule:nonzero;"/>
        </g>
        <g transform="matrix(13.9476,0,0,13.9476,468.541,457.974)">
            <path d="M0.172,-0.375C0.218,-0.434 0.276,-0.464 0.345,-0.464C0.408,-0.464 0.46,-0.443 0.5,-0.401C0.54,-0.359 0.561,-0.306 0.561,-0.24C0.561,-0.165 0.538,-0.103 0.493,-0.055C0.448,-0.006 0.391,0.018 0.321,0.018C0.242,0.018 0.179,-0.014 0.134,-0.078C0.089,-0.142 0.067,-0.231 0.067,-0.345C0.067,-0.471 0.093,-0.568 0.144,-0.637C0.196,-0.707 0.269,-0.741 0.362,-0.741C0.405,-0.741 0.459,-0.732 0.523,-0.714L0.523,-0.63C0.455,-0.656 0.4,-0.669 0.356,-0.669C0.233,-0.669 0.172,-0.571 0.172,-0.375ZM0.464,-0.219C0.464,-0.273 0.452,-0.316 0.427,-0.348C0.402,-0.379 0.368,-0.395 0.325,-0.395C0.284,-0.395 0.249,-0.381 0.22,-0.354C0.19,-0.326 0.176,-0.293 0.176,-0.255C0.176,-0.194 0.19,-0.146 0.218,-0.109C0.245,-0.073 0.282,-0.054 0.328,-0.054C0.369,-0.054 0.402,-0.069 0.427,-0.099C0.452,-0.129 0.464,-0.169 0.464,-0.219Z" style="fill-rule:nonzero;"/>
        </g>
    </g>
    <g transform="matrix(1,0,0,1,-31.75,-124.625)">
        <g transform="matrix(19.9252,0,0,19.9252,512,454.986)">
            <path d="M0.437,0.193L0.437,-0.1C0.397,-0.025 0.339,0.012 0.26,0.012C0.196,0.012 0.146,-0.011 0.109,-0.058C0.073,-0.104 0.054,-0.168 0.054,-0.249C0.054,-0.337 0.075,-0.408 0.116,-0.461C0.158,-0.515 0.213,-0.542 0.28,-0.542C0.343,-0.542 0.395,-0.518 0.437,-0.47L0.437,-0.53L0.533,-0.53L0.533,0.193L0.437,0.193ZM0.437,-0.404C0.387,-0.448 0.34,-0.47 0.295,-0.47C0.203,-0.47 0.157,-0.399 0.157,-0.258C0.157,-0.134 0.198,-0.072 0.28,-0.072C0.333,-0.072 0.385,-0.101 0.437,-0.16L0.437,-0.404Z" style="fill-rule:nonzero;"/>
        </g>
        <g transform="matrix(13.9476,0,0,13.9476,524.541,457.974)">
            <path d="M0.172,-0.375C0.218,-0.434 0.276,-0.464 0.345,-0.464C0.408,-0.464 0.46,-0.443 0.5,-0.401C0.54,-0.359 0.561,-0.306 0.561,-0.24C0.561,-0.165 0.538,-0.103 0.493,-0.055C0.448,-0.006 0.391,0.018 0.321,0.018C0.242,0.018 0.179,-0.014 0.134,-0.078C0.089,-0.142 0.067,-0.231 0.067,-0.345C0.067,-0.471 0.093,-0.568 0.144,-0.637C0.196,-0.707 0.269,-0.741 0.362,-0.741C0.405,-0.741 0.459,-0.732 0.523,-0.714L0.523,-0.63C0.455,-0.656 0.4,-0.669 0.356,-0.669C0.233,-0.669 0.172,-0.571 0.172,-0.375ZM0.464,-0.219C0.464,-0.273 0.452,-0.316 0.427,-0.348C0.402,-0.379 0.368,-0.395 0.325,-0.395C0.284,-0.395 0.249,-0.381 0.22,-0.354C0.19,-0.326 0.176,-0.293 0.176,-0.255C0.176,-0.194 0.19,-0.146 0.218,-0.109C0.245,-0.073 0.282,-0.054 0.328,-0.054C0.369,-0.054 0.402,-0.069 0.427,-0.099C0.452,-0.129 0.464,-0.169 0.464,-0.219Z" style="fill-rule:nonzero;"/>
        </g>
    </g>
    <g transform="matrix(1,0,0,1,-31.75,-124.625)">
        <g transform="matrix(19.9252,0,0,19.9252,696,454.986)">
            <path d="M0.437,0.193L0.437,-0.1C0.397,-0.025 0.339,0.012 0.26,0.012C0.196,0.012 0.146,-0.011 0.109,-0.058C0.073,-0.104 0.054,-0.168 0.054,-0.249C0.054,-0.337 0.075,-0.408 0.116,-0.461C0.158,-0.515 0.213,-0.542 0.28,-0.542C0.343,-0.542 0.395,-0.518 0.437,-0.47L0.437,-0.53L0.533,-0.53L0.533,0.193L0.437,0.193ZM0.437,-0.404C0.387,-0.448 0.34,-0.47 0.295,-0.47C0.203,-0.47 0.157,-0.399 0.157,-0.258C0.157,-0.134 0.198,-0.072 0.28,-0.072C0.333,-0.072 0.385,-0.101 0.437,-0.16L0.437,-0.404Z" style="fill-rule:nonzero;"/>
        </g>
        <g transform="matrix(13.9476,0,0,13.9476,708.541,457.974)">
            <path d="M0.122,0.003L0.122,-0.083C0.169,-0.064 0.215,-0.054 0.258,-0.054C0.306,-0.054 0.343,-0.068 0.37,-0.096C0.398,-0.124 0.411,-0.163 0.411,-0.212C0.411,-0.32 0.336,-0.375 0.187,-0.375C0.17,-0.375 0.152,-0.373 0.134,-0.371L0.134,-0.723L0.5,-0.723L0.5,-0.639L0.218,-0.639L0.218,-0.448C0.311,-0.448 0.383,-0.427 0.436,-0.384C0.488,-0.342 0.514,-0.283 0.514,-0.207C0.514,-0.137 0.49,-0.082 0.443,-0.042C0.395,-0.002 0.33,0.018 0.246,0.018C0.209,0.018 0.168,0.013 0.122,0.003Z" style="fill-rule:nonzero;"/>
        </g>
    </g>
    <g transform="matrix(1,0,0,1,-31.75,-124.625)">
        <g transform="matrix(19.9252,0,0,19.9252,760,454.986)">
            <path d="M0.437,0.193L0.437,-0.1C0.397,-0.025 0.339,0.012 0.26,0.012C0.196,0.012 0.146,-0.011 0.109,-0.058C0.073,-0.104 0.054,-0.168 0.054,-0.249C0.054,-0.337 0.075,-0.408 0.116,-0.461C0.158,-0.515 0.213,-0.542 0.28,-0.542C0.343,-0.542 0.395,-0.518 0.437,-0.47L0.437,-0.53L0.533,-0.53L0.533,0.193L0.437,0.193ZM0.437,-0.404C0.387,-0.448 0.34,-0.47 0.295,-0.47C0.203,-0.47 0.157,-0.399 0.157,-0.258C0.157,-0.134 0.198,-0.072 0.28,-0.072C0.333,-0.072 0.385,-0.101 0.437,-0.16L0.437,-0.404Z" style="fill-rule:nonzero;"/>
        </g>
        <g transform="matrix(13.9476,0,0,13.9476,772.541,457.974)">
            <path d="M0.15,-0L0.15,-0.072L0.295,-0.072L0.295,-0.643L0.15,-0.606L0.15,-0.681L0.392,-0.741L0.392,-0.072L0.536,-0.072L0.536,-0L0.15,-0Z" style="fill-rule:nonzero;"/>
        </g>
    </g>
    <path d="M111.247,58.375L111.247,56.935L114.126,56.935L114.126,45.572L111.247,46.291L111.247,44.813L116.053,43.616L116.053,56.935L118.933,56.935L118.933,58.375L111.247,58.375Z" style="fill-rule:nonzero;"/>
    <path d="M141.904,194.375L141.904,192.692C142.462,191.388 143.59,189.968 145.29,188.431L146.389,187.448C147.803,186.17 148.51,184.902 148.51,183.644C148.51,182.84 148.268,182.207 147.785,181.747C147.302,181.286 146.639,181.056 145.796,181.056C144.797,181.056 143.62,181.442 142.264,182.214L142.264,180.521C143.542,179.918 144.81,179.616 146.068,179.616C147.417,179.616 148.5,179.979 149.318,180.706C150.135,181.432 150.543,182.395 150.543,183.595C150.543,184.458 150.337,185.223 149.926,185.891C149.514,186.559 148.747,187.37 147.625,188.323L146.885,188.956C145.348,190.26 144.459,191.505 144.219,192.692L150.475,192.692L150.475,194.375L141.904,194.375Z" style="fill-rule:nonzero;"/>
    <path d="M111.751,238.375L111.751,234.299L105.272,234.299L105.272,232.849L111.751,223.976L113.551,223.976L113.551,232.732L115.477,232.732L115.477,234.299L113.551,234.299L113.551,238.375L111.751,238.375ZM107.149,232.732L111.878,232.732L111.878,226.33L107.149,232.732Z" style="fill-rule:nonzero;"/>
    <path d="M330.673,270.433L330.673,268.721C331.626,269.104 332.534,269.295 333.397,269.295C334.344,269.295 335.088,269.016 335.63,268.458C336.171,267.901 336.442,267.132 336.442,266.153C336.442,263.993 334.953,262.913 331.976,262.913C331.639,262.913 331.285,262.935 330.916,262.981L330.916,255.976L338.203,255.976L338.203,257.649L332.599,257.649L332.599,261.444C334.447,261.444 335.891,261.869 336.928,262.718C337.966,263.568 338.485,264.745 338.485,266.25C338.485,267.651 338.013,268.749 337.069,269.543C336.126,270.338 334.817,270.735 333.144,270.735C332.417,270.735 331.594,270.634 330.673,270.433Z" style="fill-rule:nonzero;"/>
    <path d="M178.274,126.268L178.274,124.478C179.649,125.023 180.732,125.295 181.523,125.295C182.438,125.295 183.182,125.028 183.756,124.492C184.33,123.957 184.617,123.265 184.617,122.415C184.617,120.392 183.2,119.38 180.365,119.38L179.607,119.38L179.607,118.086L180.278,118.076C182.937,118.076 184.267,117.139 184.267,115.264C184.267,113.792 183.391,113.056 181.64,113.056C180.68,113.056 179.623,113.325 178.468,113.863L178.468,112.19C179.603,111.807 180.706,111.616 181.776,111.616C184.721,111.616 186.193,112.728 186.193,114.953C186.193,116.646 185.191,117.852 183.187,118.572C185.509,119.111 186.67,120.382 186.67,122.386C186.67,123.742 186.222,124.805 185.327,125.577C184.432,126.349 183.203,126.735 181.64,126.735C180.751,126.735 179.629,126.579 178.274,126.268Z" style="fill-rule:nonzero;"/>
    <path d="M463.675,250.913C464.589,249.726 465.74,249.132 467.128,249.132C468.387,249.132 469.416,249.549 470.217,250.383C471.018,251.216 471.419,252.285 471.419,253.588C471.419,255.087 470.97,256.319 470.072,257.285C469.173,258.252 468.033,258.735 466.652,258.735C465.063,258.735 463.821,258.096 462.926,256.818C462.03,255.541 461.583,253.767 461.583,251.497C461.583,248.999 462.097,247.06 463.125,245.679C464.153,244.297 465.601,243.606 467.469,243.606C468.325,243.606 469.395,243.788 470.68,244.151L470.68,245.824C469.324,245.306 468.215,245.046 467.352,245.046C464.901,245.046 463.675,247.002 463.675,250.913ZM469.493,254.016C469.493,252.927 469.248,252.071 468.758,251.448C468.268,250.825 467.589,250.514 466.72,250.514C465.909,250.514 465.212,250.786 464.628,251.331C464.044,251.876 463.752,252.531 463.752,253.296C463.752,254.503 464.03,255.471 464.584,256.201C465.139,256.93 465.873,257.295 466.788,257.295C467.612,257.295 468.268,256.998 468.758,256.405C469.248,255.811 469.493,255.015 469.493,254.016Z" style="fill-rule:nonzero;"/>
    <path d="M778.48,334.375L778.48,317.096L788.135,317.096L788.135,318.929L780.932,318.929L780.932,324.475L786.968,324.475L786.968,326.284L780.932,326.284L780.932,332.542L788.637,332.542L788.637,334.375L778.48,334.375Z" style="fill-rule:nonzero;"/>
    <path d="M64.25,58.375L64.25,314.375" style="fill:none;fill-rule:nonzero;stroke:rgb(26,26,26);stroke-width:1.2px;stroke-dasharray:4,4;"/>
    <path d="M64.25,314.375L66.583,307.375L61.917,307.375L64.25,314.375Z" style="fill:rgb(26,26,26);stroke:rgb(26,26,26);stroke-width:1.2px;"/>
    <path d="M92.25,218.375L92.25,314.375" style="fill:none;fill-rule:nonzero;stroke:rgb(26,26,26);stroke-width:1.2px;stroke-dasharray:4,4;"/>
    <path d="M92.25,314.375L94.583,307.375L89.917,307.375L92.25,314.375Z" style="fill:rgb(26,26,26);stroke:rgb(26,26,26);stroke-width:1.2px;"/>
    <path d="M128.25,186.375L128.25,314.375" style="fill:none;fill-rule:nonzero;stroke:rgb(26,26,26);stroke-width:1.2px;stroke-dasharray:4,4;"/>
    <path d="M128.25,314.375L130.583,307.375L125.917,307.375L128.25,314.375Z" style="fill:rgb(26,26,26);stroke:rgb(26,26,26);stroke-width:1.2px;"/>
    <path d="M160.25,138.375L160.25,314.375" style="fill:none;fill-rule:nonzero;stroke:rgb(26,26,26);stroke-width:1.2px;stroke-dasharray:4,4;"/>
    <path d="M160.25,314.375L162.583,307.375L157.917,307.375L160.25,314.375Z" style="fill:rgb(26,26,26);stroke:rgb(26,26,26);stroke-width:1.2px;"/>
    <path d="M192.25,286.375L192.25,314.375" style="fill:none;fill-rule:nonzero;stroke:rgb(26,26,26);stroke-width:1.2px;stroke-dasharray:4,4;"/>
    <path d="M192.25,314.375L194.583,307.375L189.917,307.375L192.25,314.375Z" style="fill:rgb(26,26,26);stroke:rgb(26,26,26);stroke-width:1.2px;"/>
    <path d="M224.25,250.375L224.25,314.375" style="fill:none;fill-rule:nonzero;stroke:rgb(26,26,26);stroke-width:1.2px;stroke-dasharray:4,4;"/>
    <path d="M224.25,314.375L226.583,307.375L221.917,307.375L224.25,314.375Z" style="fill:rgb(26,26,26);stroke:rgb(26,26,26);stroke-width:1.2px;"/>
    <path d="M348.25,122.375L348.25,314.375" style="fill:none;fill-rule:nonzero;stroke:rgb(26,26,26);stroke-width:1.2px;stroke-dasharray:4,4;"/>
    <path d="M348.25,314.375L350.583,307.375L345.917,307.375L348.25,314.375Z" style="fill:rgb(26,26,26);stroke:rgb(26,26,26);stroke-width:1.2px;"/>
    <path d="M384.25,74.375L384.25,314.375" style="fill:none;fill-rule:nonzero;stroke:rgb(26,26,26);stroke-width:1.2px;stroke-dasharray:4,4;"/>
    <path d="M384.25,314.375L386.583,307.375L381.917,307.375L384.25,314.375Z" style="fill:rgb(26,26,26);stroke:rgb(26,26,26);stroke-width:1.2px;"/>
    <path d="M435.865,207.505L436.25,314.375" style="fill:none;fill-rule:nonzero;stroke:rgb(26,26,26);stroke-width:1.2px;stroke-dasharray:4,4;"/>
    <path d="M436.25,314.375L438.558,307.367L433.891,307.383L436.25,314.375Z" style="fill:rgb(26,26,26);stroke:rgb(26,26,26);stroke-width:1.2px;"/>
    <path d="M488.25,258.375L488.25,314.375" style="fill:none;fill-rule:nonzero;stroke:rgb(26,26,26);stroke-width:1.2px;stroke-dasharray:4,4;"/>
    <path d="M488.25,314.375L490.583,307.375L485.917,307.375L488.25,314.375Z" style="fill:rgb(26,26,26);stroke:rgb(26,26,26);stroke-width:1.2px;"/>
    <path d="M672.25,166.375L672.25,314.375" style="fill:none;fill-rule:nonzero;stroke:rgb(26,26,26);stroke-width:1.2px;stroke-dasharray:4,4;"/>
    <path d="M672.25,314.375L674.583,307.375L669.917,307.375L672.25,314.375Z" style="fill:rgb(26,26,26);stroke:rgb(26,26,26);stroke-width:1.2px;"/>
    <path d="M736.25,250.375L736.25,314.375" style="fill:none;fill-rule:nonzero;stroke:rgb(26,26,26);stroke-width:1.2px;stroke-dasharray:4,4;"/>
    <path d="M736.25,314.375L738.583,307.375L733.917,307.375L736.25,314.375Z" style="fill:rgb(26,26,26);stroke:rgb(26,26,26);stroke-width:1.2px;"/>
</svg>
