<?xml version="1.0" encoding="UTF-8" standalone="no"?>
<!DOCTYPE svg PUBLIC "-//W3C//DTD SVG 1.1//EN" "http://www.w3.org/Graphics/SVG/1.1/DTD/svg11.dtd">
<svg width="100%" height="100%" viewBox="0 0 791 406" version="1.1" xmlns="http://www.w3.org/2000/svg" xmlns:xlink="http://www.w3.org/1999/xlink" xml:space="preserve" xmlns:serif="http://www.serif.com/" style="fill-rule:evenodd;clip-rule:evenodd;stroke-linejoin:round;stroke-miterlimit:10;">
    <rect id="Page-33" serif:id="Page 33" x="-31.5" y="-125.25" width="842" height="595" style="fill:none;"/>
    <path d="M64.5,53.75L736.5,245.75" style="fill:none;fill-rule:nonzero;stroke:black;stroke-width:2.4px;"/>
    <path d="M128.5,181.75L384.5,69.75" style="fill:none;fill-rule:nonzero;stroke:black;stroke-width:2.4px;"/>
    <path d="M160.5,133.75L348.5,121.75" style="fill:none;fill-rule:nonzero;stroke:black;stroke-width:2.4px;"/>
    <path d="M92.5,213.75L224.5,249.75" style="fill:none;fill-rule:nonzero;stroke:black;stroke-width:2.4px;"/>
    <path d="M192.5,285.75L672.5,161.75" style="fill:none;fill-rule:nonzero;stroke:black;stroke-width:2.4px;"/>
    <path d="M436.115,206.88L488.5,253.75" style="fill:none;fill-rule:nonzero;stroke:black;stroke-width:2.4px;"/>
    <rect x="32.5" y="309.75" width="736" height="32" style="fill:rgb(255,228,225);"/>
    <rect x="0.5" y="21.75" width="32" height="288" style="fill:rgb(255,236,139);"/>
    <g transform="matrix(1,0,0,1,-31.5,-125.25)">
        <g transform="matrix(19.9252,0,0,19.9252,116,454.986)">
            <path d="M0.096,0.193L0.096,-0.53L0.192,-0.53L0.192,-0.431C0.232,-0.505 0.291,-0.542 0.37,-0.542C0.433,-0.542 0.484,-0.519 0.52,-0.472C0.557,-0.426 0.575,-0.362 0.575,-0.281C0.575,-0.193 0.554,-0.122 0.513,-0.069C0.471,-0.015 0.417,0.012 0.349,0.012C0.286,0.012 0.234,-0.012 0.192,-0.06L0.192,0.193L0.096,0.193ZM0.192,-0.126C0.242,-0.082 0.289,-0.06 0.334,-0.06C0.426,-0.06 0.473,-0.131 0.473,-0.271C0.473,-0.396 0.432,-0.458 0.35,-0.458C0.296,-0.458 0.243,-0.429 0.192,-0.371L0.192,-0.126Z" style="fill-rule:nonzero;"/>
        </g>
        <g transform="matrix(13.9476,0,0,13.9476,128.541,457.974)">
            <path d="M0.376,-0L0.376,-0.205L0.051,-0.205L0.051,-0.277L0.376,-0.723L0.467,-0.723L0.467,-0.283L0.563,-0.283L0.563,-0.205L0.467,-0.205L0.467,-0L0.376,-0ZM0.146,-0.283L0.383,-0.283L0.383,-0.604L0.146,-0.283Z" style="fill-rule:nonzero;"/>
        </g>
        <g transform="matrix(19.9252,0,0,19.9252,152,454.986)">
            <path d="M0.096,0.193L0.096,-0.53L0.192,-0.53L0.192,-0.431C0.232,-0.505 0.291,-0.542 0.37,-0.542C0.433,-0.542 0.484,-0.519 0.52,-0.472C0.557,-0.426 0.575,-0.362 0.575,-0.281C0.575,-0.193 0.554,-0.122 0.513,-0.069C0.471,-0.015 0.417,0.012 0.349,0.012C0.286,0.012 0.234,-0.012 0.192,-0.06L0.192,0.193L0.096,0.193ZM0.192,-0.126C0.242,-0.082 0.289,-0.06 0.334,-0.06C0.426,-0.06 0.473,-0.131 0.473,-0.271C0.473,-0.396 0.432,-0.458 0.35,-0.458C0.296,-0.458 0.243,-0.429 0.192,-0.371L0.192,-0.126Z" style="fill-rule:nonzero;"/>
        </g>
        <g transform="matrix(13.9476,0,0,13.9476,164.541,457.974)">
            <path d="M0.083,-0L0.083,-0.084C0.111,-0.15 0.168,-0.221 0.253,-0.298L0.308,-0.348C0.379,-0.412 0.415,-0.475 0.415,-0.539C0.415,-0.579 0.402,-0.611 0.378,-0.634C0.354,-0.657 0.321,-0.668 0.278,-0.668C0.228,-0.668 0.169,-0.649 0.101,-0.61L0.101,-0.695C0.165,-0.726 0.229,-0.741 0.292,-0.741C0.36,-0.741 0.414,-0.722 0.455,-0.686C0.496,-0.65 0.517,-0.601 0.517,-0.541C0.517,-0.498 0.506,-0.459 0.486,-0.426C0.465,-0.392 0.426,-0.352 0.37,-0.304L0.333,-0.272C0.256,-0.207 0.211,-0.144 0.199,-0.084L0.513,-0.084L0.513,-0L0.083,-0Z" style="fill-rule:nonzero;"/>
        </g>
    </g>
    <g transform="matrix(1,0,0,1,-31.5,-125.25)">
        <g transform="matrix(19.9252,0,0,19.9252,216,454.986)">
            <path d="M0.096,0.193L0.096,-0.53L0.192,-0.53L0.192,-0.431C0.232,-0.505 0.291,-0.542 0.37,-0.542C0.433,-0.542 0.484,-0.519 0.52,-0.472C0.557,-0.426 0.575,-0.362 0.575,-0.281C0.575,-0.193 0.554,-0.122 0.513,-0.069C0.471,-0.015 0.417,0.012 0.349,0.012C0.286,0.012 0.234,-0.012 0.192,-0.06L0.192,0.193L0.096,0.193ZM0.192,-0.126C0.242,-0.082 0.289,-0.06 0.334,-0.06C0.426,-0.06 0.473,-0.131 0.473,-0.271C0.473,-0.396 0.432,-0.458 0.35,-0.458C0.296,-0.458 0.243,-0.429 0.192,-0.371L0.192,-0.126Z" style="fill-rule:nonzero;"/>
        </g>
        <g transform="matrix(13.9476,0,0,13.9476,228.541,457.974)">
            <path d="M0.122,0.003L0.122,-0.083C0.169,-0.064 0.215,-0.054 0.258,-0.054C0.306,-0.054 0.343,-0.068 0.37,-0.096C0.398,-0.124 0.411,-0.163 0.411,-0.212C0.411,-0.32 0.336,-0.375 0.187,-0.375C0.17,-0.375 0.152,-0.373 0.134,-0.371L0.134,-0.723L0.5,-0.723L0.5,-0.639L0.218,-0.639L0.218,-0.448C0.311,-0.448 0.383,-0.427 0.436,-0.384C0.488,-0.342 0.514,-0.283 0.514,-0.207C0.514,-0.137 0.49,-0.082 0.443,-0.042C0.395,-0.002 0.33,0.018 0.246,0.018C0.209,0.018 0.168,0.013 0.122,0.003Z" style="fill-rule:nonzero;"/>
        </g>
        <g transform="matrix(19.9252,0,0,19.9252,248,454.986)">
            <path d="M0.437,0.193L0.437,-0.1C0.397,-0.025 0.339,0.012 0.26,0.012C0.196,0.012 0.146,-0.011 0.109,-0.058C0.073,-0.104 0.054,-0.168 0.054,-0.249C0.054,-0.337 0.075,-0.408 0.116,-0.461C0.158,-0.515 0.213,-0.542 0.28,-0.542C0.343,-0.542 0.395,-0.518 0.437,-0.47L0.437,-0.53L0.533,-0.53L0.533,0.193L0.437,0.193ZM0.437,-0.404C0.387,-0.448 0.34,-0.47 0.295,-0.47C0.203,-0.47 0.157,-0.399 0.157,-0.258C0.157,-0.134 0.198,-0.072 0.28,-0.072C0.333,-0.072 0.385,-0.101 0.437,-0.16L0.437,-0.404Z" style="fill-rule:nonzero;"/>
        </g>
        <g transform="matrix(13.9476,0,0,13.9476,260.541,457.974)">
            <path d="M0.376,-0L0.376,-0.205L0.051,-0.205L0.051,-0.277L0.376,-0.723L0.467,-0.723L0.467,-0.283L0.563,-0.283L0.563,-0.205L0.467,-0.205L0.467,-0L0.376,-0ZM0.146,-0.283L0.383,-0.283L0.383,-0.604L0.146,-0.283Z" style="fill-rule:nonzero;"/>
        </g>
    </g>
    <g transform="matrix(1,0,0,1,-31.5,-125.25)">
        <g transform="matrix(19.9252,0,0,19.9252,184,454.986)">
            <path d="M0.096,0.193L0.096,-0.53L0.192,-0.53L0.192,-0.431C0.232,-0.505 0.291,-0.542 0.37,-0.542C0.433,-0.542 0.484,-0.519 0.52,-0.472C0.557,-0.426 0.575,-0.362 0.575,-0.281C0.575,-0.193 0.554,-0.122 0.513,-0.069C0.471,-0.015 0.417,0.012 0.349,0.012C0.286,0.012 0.234,-0.012 0.192,-0.06L0.192,0.193L0.096,0.193ZM0.192,-0.126C0.242,-0.082 0.289,-0.06 0.334,-0.06C0.426,-0.06 0.473,-0.131 0.473,-0.271C0.473,-0.396 0.432,-0.458 0.35,-0.458C0.296,-0.458 0.243,-0.429 0.192,-0.371L0.192,-0.126Z" style="fill-rule:nonzero;"/>
        </g>
        <g transform="matrix(13.9476,0,0,13.9476,196.541,457.974)">
            <path d="M0.102,-0.005L0.102,-0.095C0.171,-0.068 0.225,-0.054 0.265,-0.054C0.311,-0.054 0.348,-0.068 0.377,-0.094C0.406,-0.121 0.42,-0.156 0.42,-0.199C0.42,-0.3 0.349,-0.351 0.207,-0.351L0.168,-0.351L0.168,-0.416L0.202,-0.417C0.336,-0.417 0.402,-0.464 0.402,-0.558C0.402,-0.632 0.358,-0.668 0.271,-0.668C0.222,-0.668 0.169,-0.655 0.111,-0.628L0.111,-0.712C0.168,-0.731 0.224,-0.741 0.277,-0.741C0.425,-0.741 0.499,-0.685 0.499,-0.573C0.499,-0.488 0.449,-0.428 0.348,-0.392C0.465,-0.365 0.523,-0.301 0.523,-0.2C0.523,-0.132 0.5,-0.079 0.456,-0.04C0.411,-0.001 0.349,0.018 0.271,0.018C0.226,0.018 0.17,0.01 0.102,-0.005Z" style="fill-rule:nonzero;"/>
        </g>
    </g>
    <g transform="matrix(1,0,0,1,-31.5,-125.25)">
        <g transform="matrix(19.9252,0,0,19.9252,372,454.986)">
            <path d="M0.437,0.193L0.437,-0.1C0.397,-0.025 0.339,0.012 0.26,0.012C0.196,0.012 0.146,-0.011 0.109,-0.058C0.073,-0.104 0.054,-0.168 0.054,-0.249C0.054,-0.337 0.075,-0.408 0.116,-0.461C0.158,-0.515 0.213,-0.542 0.28,-0.542C0.343,-0.542 0.395,-0.518 0.437,-0.47L0.437,-0.53L0.533,-0.53L0.533,0.193L0.437,0.193ZM0.437,-0.404C0.387,-0.448 0.34,-0.47 0.295,-0.47C0.203,-0.47 0.157,-0.399 0.157,-0.258C0.157,-0.134 0.198,-0.072 0.28,-0.072C0.333,-0.072 0.385,-0.101 0.437,-0.16L0.437,-0.404Z" style="fill-rule:nonzero;"/>
        </g>
        <g transform="matrix(13.9476,0,0,13.9476,384.541,457.974)">
            <path d="M0.102,-0.005L0.102,-0.095C0.171,-0.068 0.225,-0.054 0.265,-0.054C0.311,-0.054 0.348,-0.068 0.377,-0.094C0.406,-0.121 0.42,-0.156 0.42,-0.199C0.42,-0.3 0.349,-0.351 0.207,-0.351L0.168,-0.351L0.168,-0.416L0.202,-0.417C0.336,-0.417 0.402,-0.464 0.402,-0.558C0.402,-0.632 0.358,-0.668 0.271,-0.668C0.222,-0.668 0.169,-0.655 0.111,-0.628L0.111,-0.712C0.168,-0.731 0.224,-0.741 0.277,-0.741C0.425,-0.741 0.499,-0.685 0.499,-0.573C0.499,-0.488 0.449,-0.428 0.348,-0.392C0.465,-0.365 0.523,-0.301 0.523,-0.2C0.523,-0.132 0.5,-0.079 0.456,-0.04C0.411,-0.001 0.349,0.018 0.271,0.018C0.226,0.018 0.17,0.01 0.102,-0.005Z" style="fill-rule:nonzero;"/>
        </g>
        <g transform="matrix(19.9252,0,0,19.9252,408,454.986)">
            <path d="M0.437,0.193L0.437,-0.1C0.397,-0.025 0.339,0.012 0.26,0.012C0.196,0.012 0.146,-0.011 0.109,-0.058C0.073,-0.104 0.054,-0.168 0.054,-0.249C0.054,-0.337 0.075,-0.408 0.116,-0.461C0.158,-0.515 0.213,-0.542 0.28,-0.542C0.343,-0.542 0.395,-0.518 0.437,-0.47L0.437,-0.53L0.533,-0.53L0.533,0.193L0.437,0.193ZM0.437,-0.404C0.387,-0.448 0.34,-0.47 0.295,-0.47C0.203,-0.47 0.157,-0.399 0.157,-0.258C0.157,-0.134 0.198,-0.072 0.28,-0.072C0.333,-0.072 0.385,-0.101 0.437,-0.16L0.437,-0.404Z" style="fill-rule:nonzero;"/>
        </g>
        <g transform="matrix(13.9476,0,0,13.9476,420.541,457.974)">
            <path d="M0.083,-0L0.083,-0.084C0.111,-0.15 0.168,-0.221 0.253,-0.298L0.308,-0.348C0.379,-0.412 0.415,-0.475 0.415,-0.539C0.415,-0.579 0.402,-0.611 0.378,-0.634C0.354,-0.657 0.321,-0.668 0.278,-0.668C0.228,-0.668 0.169,-0.649 0.101,-0.61L0.101,-0.695C0.165,-0.726 0.229,-0.741 0.292,-0.741C0.36,-0.741 0.414,-0.722 0.455,-0.686C0.496,-0.65 0.517,-0.601 0.517,-0.541C0.517,-0.498 0.506,-0.459 0.486,-0.426C0.465,-0.392 0.426,-0.352 0.37,-0.304L0.333,-0.272C0.256,-0.207 0.211,-0.144 0.199,-0.084L0.513,-0.084L0.513,-0L0.083,-0Z" style="fill-rule:nonzero;"/>
        </g>
        <g transform="matrix(19.9252,0,0,19.9252,456,454.986)">
            <path d="M0.096,0.193L0.096,-0.53L0.192,-0.53L0.192,-0.431C0.232,-0.505 0.291,-0.542 0.37,-0.542C0.433,-0.542 0.484,-0.519 0.52,-0.472C0.557,-0.426 0.575,-0.362 0.575,-0.281C0.575,-0.193 0.554,-0.122 0.513,-0.069C0.471,-0.015 0.417,0.012 0.349,0.012C0.286,0.012 0.234,-0.012 0.192,-0.06L0.192,0.193L0.096,0.193ZM0.192,-0.126C0.242,-0.082 0.289,-0.06 0.334,-0.06C0.426,-0.06 0.473,-0.131 0.473,-0.271C0.473,-0.396 0.432,-0.458 0.35,-0.458C0.296,-0.458 0.243,-0.429 0.192,-0.371L0.192,-0.126Z" style="fill-rule:nonzero;"/>
        </g>
        <g transform="matrix(13.9476,0,0,13.9476,468.541,457.974)">
            <path d="M0.172,-0.375C0.218,-0.434 0.276,-0.464 0.345,-0.464C0.408,-0.464 0.46,-0.443 0.5,-0.401C0.54,-0.359 0.561,-0.306 0.561,-0.24C0.561,-0.165 0.538,-0.103 0.493,-0.055C0.448,-0.006 0.391,0.018 0.321,0.018C0.242,0.018 0.179,-0.014 0.134,-0.078C0.089,-0.142 0.067,-0.231 0.067,-0.345C0.067,-0.471 0.093,-0.568 0.144,-0.637C0.196,-0.707 0.269,-0.741 0.362,-0.741C0.405,-0.741 0.459,-0.732 0.523,-0.714L0.523,-0.63C0.455,-0.656 0.4,-0.669 0.356,-0.669C0.233,-0.669 0.172,-0.571 0.172,-0.375ZM0.464,-0.219C0.464,-0.273 0.452,-0.316 0.427,-0.348C0.402,-0.379 0.368,-0.395 0.325,-0.395C0.284,-0.395 0.249,-0.381 0.22,-0.354C0.19,-0.326 0.176,-0.293 0.176,-0.255C0.176,-0.194 0.19,-0.146 0.218,-0.109C0.245,-0.073 0.282,-0.054 0.328,-0.054C0.369,-0.054 0.402,-0.069 0.427,-0.099C0.452,-0.129 0.464,-0.169 0.464,-0.219Z" style="fill-rule:nonzero;"/>
        </g>
    </g>
    <g transform="matrix(1,0,0,1,-31.5,-125.25)">
        <g transform="matrix(19.9252,0,0,19.9252,512,454.986)">
            <path d="M0.437,0.193L0.437,-0.1C0.397,-0.025 0.339,0.012 0.26,0.012C0.196,0.012 0.146,-0.011 0.109,-0.058C0.073,-0.104 0.054,-0.168 0.054,-0.249C0.054,-0.337 0.075,-0.408 0.116,-0.461C0.158,-0.515 0.213,-0.542 0.28,-0.542C0.343,-0.542 0.395,-0.518 0.437,-0.47L0.437,-0.53L0.533,-0.53L0.533,0.193L0.437,0.193ZM0.437,-0.404C0.387,-0.448 0.34,-0.47 0.295,-0.47C0.203,-0.47 0.157,-0.399 0.157,-0.258C0.157,-0.134 0.198,-0.072 0.28,-0.072C0.333,-0.072 0.385,-0.101 0.437,-0.16L0.437,-0.404Z" style="fill-rule:nonzero;"/>
        </g>
        <g transform="matrix(13.9476,0,0,13.9476,524.541,457.974)">
            <path d="M0.172,-0.375C0.218,-0.434 0.276,-0.464 0.345,-0.464C0.408,-0.464 0.46,-0.443 0.5,-0.401C0.54,-0.359 0.561,-0.306 0.561,-0.24C0.561,-0.165 0.538,-0.103 0.493,-0.055C0.448,-0.006 0.391,0.018 0.321,0.018C0.242,0.018 0.179,-0.014 0.134,-0.078C0.089,-0.142 0.067,-0.231 0.067,-0.345C0.067,-0.471 0.093,-0.568 0.144,-0.637C0.196,-0.707 0.269,-0.741 0.362,-0.741C0.405,-0.741 0.459,-0.732 0.523,-0.714L0.523,-0.63C0.455,-0.656 0.4,-0.669 0.356,-0.669C0.233,-0.669 0.172,-0.571 0.172,-0.375ZM0.464,-0.219C0.464,-0.273 0.452,-0.316 0.427,-0.348C0.402,-0.379 0.368,-0.395 0.325,-0.395C0.284,-0.395 0.249,-0.381 0.22,-0.354C0.19,-0.326 0.176,-0.293 0.176,-0.255C0.176,-0.194 0.19,-0.146 0.218,-0.109C0.245,-0.073 0.282,-0.054 0.328,-0.054C0.369,-0.054 0.402,-0.069 0.427,-0.099C0.452,-0.129 0.464,-0.169 0.464,-0.219Z" style="fill-rule:nonzero;"/>
        </g>
    </g>
    <g transform="matrix(1,0,0,1,-31.5,-125.25)">
        <g transform="matrix(19.9252,0,0,19.9252,696,454.986)">
            <path d="M0.437,0.193L0.437,-0.1C0.397,-0.025 0.339,0.012 0.26,0.012C0.196,0.012 0.146,-0.011 0.109,-0.058C0.073,-0.104 0.054,-0.168 0.054,-0.249C0.054,-0.337 0.075,-0.408 0.116,-0.461C0.158,-0.515 0.213,-0.542 0.28,-0.542C0.343,-0.542 0.395,-0.518 0.437,-0.47L0.437,-0.53L0.533,-0.53L0.533,0.193L0.437,0.193ZM0.437,-0.404C0.387,-0.448 0.34,-0.47 0.295,-0.47C0.203,-0.47 0.157,-0.399 0.157,-0.258C0.157,-0.134 0.198,-0.072 0.28,-0.072C0.333,-0.072 0.385,-0.101 0.437,-0.16L0.437,-0.404Z" style="fill-rule:nonzero;"/>
        </g>
        <g transform="matrix(13.9476,0,0,13.9476,708.541,457.974)">
            <path d="M0.122,0.003L0.122,-0.083C0.169,-0.064 0.215,-0.054 0.258,-0.054C0.306,-0.054 0.343,-0.068 0.37,-0.096C0.398,-0.124 0.411,-0.163 0.411,-0.212C0.411,-0.32 0.336,-0.375 0.187,-0.375C0.17,-0.375 0.152,-0.373 0.134,-0.371L0.134,-0.723L0.5,-0.723L0.5,-0.639L0.218,-0.639L0.218,-0.448C0.311,-0.448 0.383,-0.427 0.436,-0.384C0.488,-0.342 0.514,-0.283 0.514,-0.207C0.514,-0.137 0.49,-0.082 0.443,-0.042C0.395,-0.002 0.33,0.018 0.246,0.018C0.209,0.018 0.168,0.013 0.122,0.003Z" style="fill-rule:nonzero;"/>
        </g>
    </g>
    <g transform="matrix(1,0,0,1,-31.5,-125.25)">
        <g transform="matrix(19.9252,0,0,19.9252,760,454.986)">
            <path d="M0.437,0.193L0.437,-0.1C0.397,-0.025 0.339,0.012 0.26,0.012C0.196,0.012 0.146,-0.011 0.109,-0.058C0.073,-0.104 0.054,-0.168 0.054,-0.249C0.054,-0.337 0.075,-0.408 0.116,-0.461C0.158,-0.515 0.213,-0.542 0.28,-0.542C0.343,-0.542 0.395,-0.518 0.437,-0.47L0.437,-0.53L0.533,-0.53L0.533,0.193L0.437,0.193ZM0.437,-0.404C0.387,-0.448 0.34,-0.47 0.295,-0.47C0.203,-0.47 0.157,-0.399 0.157,-0.258C0.157,-0.134 0.198,-0.072 0.28,-0.072C0.333,-0.072 0.385,-0.101 0.437,-0.16L0.437,-0.404Z" style="fill-rule:nonzero;"/>
        </g>
        <g transform="matrix(13.9476,0,0,13.9476,772.541,457.974)">
            <path d="M0.15,-0L0.15,-0.072L0.295,-0.072L0.295,-0.643L0.15,-0.606L0.15,-0.681L0.392,-0.741L0.392,-0.072L0.536,-0.072L0.536,-0L0.15,-0Z" style="fill-rule:nonzero;"/>
        </g>
    </g>
    <g transform="matrix(1,0,0,1,-31.5,-125.25)">
        <g transform="matrix(19.9252,0,0,19.9252,40,182.992)">
            <path d="M0.237,0.012C0.193,0.012 0.139,0.002 0.077,-0.019L0.077,-0.107C0.139,-0.076 0.194,-0.06 0.241,-0.06C0.268,-0.06 0.291,-0.068 0.31,-0.083C0.328,-0.097 0.337,-0.116 0.337,-0.139C0.337,-0.172 0.311,-0.199 0.26,-0.22L0.204,-0.244C0.121,-0.279 0.08,-0.328 0.08,-0.393C0.08,-0.439 0.096,-0.476 0.129,-0.502C0.161,-0.529 0.206,-0.542 0.263,-0.542C0.293,-0.542 0.329,-0.538 0.373,-0.53L0.393,-0.526L0.393,-0.446C0.339,-0.462 0.297,-0.47 0.265,-0.47C0.203,-0.47 0.172,-0.447 0.172,-0.402C0.172,-0.373 0.196,-0.349 0.243,-0.329L0.289,-0.31C0.341,-0.287 0.379,-0.264 0.4,-0.24C0.422,-0.215 0.433,-0.184 0.433,-0.147C0.433,-0.101 0.415,-0.063 0.378,-0.033C0.341,-0.003 0.294,0.012 0.237,0.012Z" style="fill-rule:nonzero;"/>
        </g>
        <g transform="matrix(13.9476,0,0,13.9476,50.1572,185.98)">
            <path d="M0.15,-0L0.15,-0.072L0.295,-0.072L0.295,-0.643L0.15,-0.606L0.15,-0.681L0.392,-0.741L0.392,-0.072L0.536,-0.072L0.536,-0L0.15,-0Z" style="fill-rule:nonzero;"/>
        </g>
    </g>
    <path d="M111.497,57.75L111.497,56.31L114.376,56.31L114.376,44.947L111.497,45.666L111.497,44.188L116.303,42.991L116.303,56.31L119.183,56.31L119.183,57.75L111.497,57.75Z" style="fill-rule:nonzero;"/>
    <path d="M142.154,193.75L142.154,192.067C142.712,190.763 143.84,189.343 145.54,187.806L146.639,186.823C148.053,185.545 148.76,184.277 148.76,183.019C148.76,182.215 148.518,181.582 148.035,181.122C147.552,180.661 146.889,180.431 146.046,180.431C145.047,180.431 143.87,180.817 142.514,181.589L142.514,179.896C143.792,179.293 145.06,178.991 146.318,178.991C147.667,178.991 148.75,179.354 149.568,180.081C150.385,180.807 150.793,181.77 150.793,182.97C150.793,183.833 150.587,184.598 150.176,185.266C149.764,185.934 148.997,186.745 147.875,187.698L147.135,188.331C145.598,189.635 144.709,190.88 144.469,192.067L150.725,192.067L150.725,193.75L142.154,193.75Z" style="fill-rule:nonzero;"/>
    <path d="M112.001,237.75L112.001,233.674L105.522,233.674L105.522,232.224L112.001,223.351L113.801,223.351L113.801,232.107L115.727,232.107L115.727,233.674L113.801,233.674L113.801,237.75L112.001,237.75ZM107.399,232.107L112.128,232.107L112.128,225.705L107.399,232.107Z" style="fill-rule:nonzero;"/>
    <path d="M330.923,269.808L330.923,268.096C331.876,268.479 332.784,268.67 333.647,268.67C334.594,268.67 335.338,268.391 335.88,267.833C336.421,267.276 336.692,266.507 336.692,265.528C336.692,263.368 335.203,262.288 332.226,262.288C331.889,262.288 331.535,262.31 331.166,262.356L331.166,255.351L338.453,255.351L338.453,257.024L332.849,257.024L332.849,260.819C334.697,260.819 336.141,261.244 337.178,262.093C338.216,262.943 338.735,264.12 338.735,265.625C338.735,267.026 338.263,268.124 337.319,268.918C336.376,269.713 335.067,270.11 333.394,270.11C332.667,270.11 331.844,270.009 330.923,269.808Z" style="fill-rule:nonzero;"/>
    <path d="M178.524,125.643L178.524,123.853C179.899,124.398 180.982,124.67 181.773,124.67C182.688,124.67 183.432,124.403 184.006,123.867C184.58,123.332 184.867,122.64 184.867,121.79C184.867,119.767 183.45,118.755 180.615,118.755L179.857,118.755L179.857,117.461L180.528,117.451C183.187,117.451 184.517,116.514 184.517,114.639C184.517,113.167 183.641,112.431 181.89,112.431C180.93,112.431 179.873,112.7 178.718,113.238L178.718,111.565C179.853,111.182 180.956,110.991 182.026,110.991C184.971,110.991 186.443,112.103 186.443,114.328C186.443,116.021 185.441,117.227 183.437,117.947C185.759,118.486 186.92,119.757 186.92,121.761C186.92,123.117 186.472,124.18 185.577,124.952C184.682,125.724 183.453,126.11 181.89,126.11C181.001,126.11 179.879,125.954 178.524,125.643Z" style="fill-rule:nonzero;"/>
    <path d="M463.925,250.288C464.839,249.101 465.99,248.507 467.378,248.507C468.637,248.507 469.666,248.924 470.467,249.758C471.268,250.591 471.669,251.66 471.669,252.963C471.669,254.462 471.22,255.694 470.322,256.66C469.423,257.627 468.283,258.11 466.902,258.11C465.313,258.11 464.071,257.471 463.176,256.193C462.28,254.916 461.833,253.142 461.833,250.872C461.833,248.374 462.347,246.435 463.375,245.054C464.403,243.672 465.851,242.981 467.719,242.981C468.575,242.981 469.645,243.163 470.93,243.526L470.93,245.199C469.574,244.681 468.465,244.421 467.602,244.421C465.151,244.421 463.925,246.377 463.925,250.288ZM469.743,253.391C469.743,252.302 469.498,251.446 469.008,250.823C468.518,250.2 467.839,249.889 466.97,249.889C466.159,249.889 465.462,250.161 464.878,250.706C464.294,251.251 464.002,251.906 464.002,252.671C464.002,253.878 464.28,254.846 464.834,255.576C465.389,256.305 466.123,256.67 467.038,256.67C467.862,256.67 468.518,256.373 469.008,255.78C469.498,255.186 469.743,254.39 469.743,253.391Z" style="fill-rule:nonzero;"/>
    <path d="M778.73,333.75L778.73,316.471L788.385,316.471L788.385,318.304L781.182,318.304L781.182,323.85L787.218,323.85L787.218,325.659L781.182,325.659L781.182,331.917L788.887,331.917L788.887,333.75L778.73,333.75Z" style="fill-rule:nonzero;"/>
    <path d="M10.73,17.75L10.73,0.471L13.182,0.471L13.182,15.917L20.957,15.917L20.957,17.75L10.73,17.75Z" style="fill-rule:nonzero;"/>
    <path d="M92.5,21.75L92.5,309.75" style="fill:none;fill-rule:nonzero;stroke:rgb(255,165,0);stroke-width:3.6px;"/>
</svg>
