<?xml version="1.0" encoding="UTF-8" standalone="no"?>
<!DOCTYPE svg PUBLIC "-//W3C//DTD SVG 1.1//EN" "http://www.w3.org/Graphics/SVG/1.1/DTD/svg11.dtd">
<svg width="100%" height="100%" viewBox="0 0 692 719" version="1.1" xmlns="http://www.w3.org/2000/svg" xmlns:xlink="http://www.w3.org/1999/xlink" xml:space="preserve" xmlns:serif="http://www.serif.com/" style="fill-rule:evenodd;clip-rule:evenodd;stroke-linecap:round;stroke-linejoin:round;stroke-miterlimit:1.5;">
    <g transform="matrix(1,0,0,1,-7405,-6207)">
        <rect id="DEM" x="4792" y="6066" width="3956" height="1997" style="fill:none;"/>
        <g id="DEM1" serif:id="DEM">
            <g id="white-squares" serif:id="white squares">
                <g transform="matrix(0.41897,0,0,0.41897,7264.4,6227.68)">
                    <rect x="346" y="294" width="326" height="326" style="fill:white;fill-opacity:0.83;stroke:black;stroke-width:9.55px;"/>
                </g>
                <g transform="matrix(0.41897,0,0,0.41897,7264.4,6637.51)">
                    <rect x="346" y="294" width="326" height="326" style="fill:white;fill-opacity:0.83;stroke:black;stroke-width:9.55px;"/>
                </g>
                <g transform="matrix(0.41897,0,0,0.41897,7537.57,6227.68)">
                    <rect x="346" y="294" width="326" height="326" style="fill:white;fill-opacity:0.83;stroke:black;stroke-width:9.55px;"/>
                </g>
                <g transform="matrix(0.41897,0,0,0.41897,7537.57,6637.51)">
                    <rect x="346" y="294" width="326" height="326" style="fill:white;fill-opacity:0.83;stroke:black;stroke-width:9.55px;"/>
                </g>
                <g transform="matrix(0.41897,0,0,0.41897,7400.98,6227.68)">
                    <rect x="346" y="294" width="326" height="326" style="fill:white;fill-opacity:0.83;stroke:black;stroke-width:9.55px;"/>
                </g>
                <g transform="matrix(0.41897,0,0,0.41897,7400.98,6090.81)">
                    <rect x="346" y="294" width="326" height="326" style="fill:white;fill-opacity:0.83;stroke:black;stroke-width:9.55px;"/>
                </g>
                <g transform="matrix(0.41897,0,0,0.41897,7400.98,6500.83)">
                    <rect x="346" y="294" width="326" height="326" style="fill:white;fill-opacity:0.83;stroke:black;stroke-width:9.55px;"/>
                </g>
                <g transform="matrix(0.41897,0,0,0.41897,7400.98,6364.36)">
                    <rect x="346" y="294" width="326" height="326" style="fill:white;fill-opacity:0.83;stroke:black;stroke-width:9.55px;"/>
                </g>
                <g transform="matrix(0.41897,0,0,0.41897,7400.98,6637.51)">
                    <rect x="346" y="294" width="326" height="326" style="fill:white;fill-opacity:0.83;stroke:black;stroke-width:9.55px;"/>
                </g>
                <g transform="matrix(0.41897,0,0,0.41897,7674.15,6227.68)">
                    <rect x="346" y="294" width="326" height="326" style="fill:white;fill-opacity:0.83;stroke:black;stroke-width:9.55px;"/>
                </g>
                <g transform="matrix(0.41897,0,0,0.41897,7810.26,6227.68)">
                    <rect x="346" y="294" width="326" height="326" style="fill:white;fill-opacity:0.83;stroke:black;stroke-width:9.55px;"/>
                </g>
                <g transform="matrix(0.41897,0,0,0.41897,7810.26,6090.81)">
                    <rect x="346" y="294" width="326" height="326" style="fill:white;fill-opacity:0.83;stroke:black;stroke-width:9.55px;"/>
                </g>
                <g transform="matrix(0.41897,0,0,0.41897,7810.26,6500.83)">
                    <rect x="346" y="294" width="326" height="326" style="fill:white;fill-opacity:0.83;stroke:black;stroke-width:9.55px;"/>
                </g>
                <g transform="matrix(0.41897,0,0,0.41897,7810.26,6364.25)">
                    <rect x="346" y="294" width="326" height="326" style="fill:white;fill-opacity:0.83;stroke:black;stroke-width:9.55px;"/>
                </g>
                <g transform="matrix(0.41897,0,0,0.41897,7674.15,6637.51)">
                    <rect x="346" y="294" width="326" height="326" style="fill:white;fill-opacity:0.83;stroke:black;stroke-width:9.55px;"/>
                </g>
                <g transform="matrix(0.41897,0,0,0.41897,7810.26,6637.51)">
                    <rect x="346" y="294" width="326" height="326" style="fill:white;fill-opacity:0.83;stroke:black;stroke-width:9.55px;"/>
                </g>
                <g transform="matrix(0.41897,0,0,0.41897,7264.4,6090.81)">
                    <rect x="346" y="294" width="326" height="326" style="fill:white;fill-opacity:0.83;stroke:black;stroke-width:9.55px;"/>
                </g>
                <g transform="matrix(0.41897,0,0,0.41897,7264.4,6500.83)">
                    <rect x="346" y="294" width="326" height="326" style="fill:white;fill-opacity:0.83;stroke:black;stroke-width:9.55px;"/>
                </g>
                <g transform="matrix(0.41897,0,0,0.41897,7264.4,6364.36)">
                    <rect x="346" y="294" width="326" height="326" style="fill:white;fill-opacity:0.83;stroke:black;stroke-width:9.55px;"/>
                </g>
                <g transform="matrix(0.41897,0,0,0.41897,7537.57,6090.81)">
                    <rect x="346" y="294" width="326" height="326" style="fill:white;fill-opacity:0.83;stroke:black;stroke-width:9.55px;"/>
                </g>
                <g transform="matrix(0.41897,0,0,0.41897,7537.57,6500.83)">
                    <rect x="346" y="294" width="326" height="326" style="fill:white;fill-opacity:0.83;stroke:black;stroke-width:9.55px;"/>
                </g>
                <g transform="matrix(0.41897,0,0,0.41897,7537.57,6364.36)">
                    <rect x="346" y="294" width="326" height="326" style="fill:white;fill-opacity:0.83;stroke:black;stroke-width:9.55px;"/>
                </g>
                <g transform="matrix(0.41897,0,0,0.41897,7674.15,6090.81)">
                    <rect x="346" y="294" width="326" height="326" style="fill:white;fill-opacity:0.83;stroke:black;stroke-width:9.55px;"/>
                </g>
                <g transform="matrix(0.41897,0,0,0.41897,7674.15,6500.83)">
                    <rect x="346" y="294" width="326" height="326" style="fill:white;fill-opacity:0.83;stroke:black;stroke-width:9.55px;"/>
                </g>
                <g transform="matrix(0.41897,0,0,0.41897,7674.15,6364.36)">
                    <rect x="346" y="294" width="326" height="326" style="fill:white;fill-opacity:0.83;stroke:black;stroke-width:9.55px;"/>
                </g>
            </g>
            <g id="Tracing">
                <g id="_0-cells" serif:id="0 cells">
                    <g transform="matrix(1,0,0,1,1055.29,-165.834)">
                        <g transform="matrix(56,0,0,56,6406.46,6467.71)">
                            <path d="M0.04,-0.351C0.04,-0.474 0.061,-0.565 0.103,-0.625C0.145,-0.684 0.205,-0.714 0.284,-0.714C0.368,-0.714 0.43,-0.685 0.469,-0.626C0.508,-0.567 0.528,-0.475 0.528,-0.351C0.528,-0.228 0.507,-0.136 0.465,-0.076C0.422,-0.016 0.362,0.014 0.283,0.014C0.2,0.014 0.138,-0.018 0.099,-0.081C0.06,-0.144 0.04,-0.234 0.04,-0.351ZM0.17,-0.351C0.17,-0.27 0.179,-0.207 0.197,-0.163C0.214,-0.118 0.243,-0.096 0.284,-0.096C0.323,-0.096 0.352,-0.116 0.371,-0.157C0.389,-0.198 0.398,-0.262 0.398,-0.351C0.398,-0.432 0.389,-0.494 0.372,-0.538C0.355,-0.582 0.325,-0.604 0.283,-0.604C0.243,-0.604 0.214,-0.583 0.197,-0.542C0.179,-0.501 0.17,-0.437 0.17,-0.351Z" style="fill-rule:nonzero;"/>
                        </g>
                    </g>
                    <g transform="matrix(1,0,0,1,1054.15,244.973)">
                        <g transform="matrix(56,0,0,56,6406.46,6467.71)">
                            <path d="M0.04,-0.351C0.04,-0.474 0.061,-0.565 0.103,-0.625C0.145,-0.684 0.205,-0.714 0.284,-0.714C0.368,-0.714 0.43,-0.685 0.469,-0.626C0.508,-0.567 0.528,-0.475 0.528,-0.351C0.528,-0.228 0.507,-0.136 0.465,-0.076C0.422,-0.016 0.362,0.014 0.283,0.014C0.2,0.014 0.138,-0.018 0.099,-0.081C0.06,-0.144 0.04,-0.234 0.04,-0.351ZM0.17,-0.351C0.17,-0.27 0.179,-0.207 0.197,-0.163C0.214,-0.118 0.243,-0.096 0.284,-0.096C0.323,-0.096 0.352,-0.116 0.371,-0.157C0.389,-0.198 0.398,-0.262 0.398,-0.351C0.398,-0.432 0.389,-0.494 0.372,-0.538C0.355,-0.582 0.325,-0.604 0.283,-0.604C0.243,-0.604 0.214,-0.583 0.197,-0.542C0.179,-0.501 0.17,-0.437 0.17,-0.351Z" style="fill-rule:nonzero;"/>
                        </g>
                    </g>
                    <g transform="matrix(1,0,0,1,1054.15,382.018)">
                        <g transform="matrix(56,0,0,56,6406.46,6467.71)">
                            <path d="M0.04,-0.351C0.04,-0.474 0.061,-0.565 0.103,-0.625C0.145,-0.684 0.205,-0.714 0.284,-0.714C0.368,-0.714 0.43,-0.685 0.469,-0.626C0.508,-0.567 0.528,-0.475 0.528,-0.351C0.528,-0.228 0.507,-0.136 0.465,-0.076C0.422,-0.016 0.362,0.014 0.283,0.014C0.2,0.014 0.138,-0.018 0.099,-0.081C0.06,-0.144 0.04,-0.234 0.04,-0.351ZM0.17,-0.351C0.17,-0.27 0.179,-0.207 0.197,-0.163C0.214,-0.118 0.243,-0.096 0.284,-0.096C0.323,-0.096 0.352,-0.116 0.371,-0.157C0.389,-0.198 0.398,-0.262 0.398,-0.351C0.398,-0.432 0.389,-0.494 0.372,-0.538C0.355,-0.582 0.325,-0.604 0.283,-0.604C0.243,-0.604 0.214,-0.583 0.197,-0.542C0.179,-0.501 0.17,-0.437 0.17,-0.351Z" style="fill-rule:nonzero;"/>
                        </g>
                    </g>
                    <g transform="matrix(1,0,0,1,1190.51,-30.4205)">
                        <g transform="matrix(56,0,0,56,6406.46,6467.71)">
                            <path d="M0.04,-0.351C0.04,-0.474 0.061,-0.565 0.103,-0.625C0.145,-0.684 0.205,-0.714 0.284,-0.714C0.368,-0.714 0.43,-0.685 0.469,-0.626C0.508,-0.567 0.528,-0.475 0.528,-0.351C0.528,-0.228 0.507,-0.136 0.465,-0.076C0.422,-0.016 0.362,0.014 0.283,0.014C0.2,0.014 0.138,-0.018 0.099,-0.081C0.06,-0.144 0.04,-0.234 0.04,-0.351ZM0.17,-0.351C0.17,-0.27 0.179,-0.207 0.197,-0.163C0.214,-0.118 0.243,-0.096 0.284,-0.096C0.323,-0.096 0.352,-0.116 0.371,-0.157C0.389,-0.198 0.398,-0.262 0.398,-0.351C0.398,-0.432 0.389,-0.494 0.372,-0.538C0.355,-0.582 0.325,-0.604 0.283,-0.604C0.243,-0.604 0.214,-0.583 0.197,-0.542C0.179,-0.501 0.17,-0.437 0.17,-0.351Z" style="fill-rule:nonzero;"/>
                        </g>
                    </g>
                    <g transform="matrix(1,0,0,1,1328.34,-165.834)">
                        <g transform="matrix(56,0,0,56,6406.46,6467.71)">
                            <path d="M0.04,-0.351C0.04,-0.474 0.061,-0.565 0.103,-0.625C0.145,-0.684 0.205,-0.714 0.284,-0.714C0.368,-0.714 0.43,-0.685 0.469,-0.626C0.508,-0.567 0.528,-0.475 0.528,-0.351C0.528,-0.228 0.507,-0.136 0.465,-0.076C0.422,-0.016 0.362,0.014 0.283,0.014C0.2,0.014 0.138,-0.018 0.099,-0.081C0.06,-0.144 0.04,-0.234 0.04,-0.351ZM0.17,-0.351C0.17,-0.27 0.179,-0.207 0.197,-0.163C0.214,-0.118 0.243,-0.096 0.284,-0.096C0.323,-0.096 0.352,-0.116 0.371,-0.157C0.389,-0.198 0.398,-0.262 0.398,-0.351C0.398,-0.432 0.389,-0.494 0.372,-0.538C0.355,-0.582 0.325,-0.604 0.283,-0.604C0.243,-0.604 0.214,-0.583 0.197,-0.542C0.179,-0.501 0.17,-0.437 0.17,-0.351Z" style="fill-rule:nonzero;"/>
                        </g>
                    </g>
                    <g transform="matrix(1,0,0,1,1600.8,106.385)">
                        <g transform="matrix(56,0,0,56,6406.46,6467.71)">
                            <path d="M0.04,-0.351C0.04,-0.474 0.061,-0.565 0.103,-0.625C0.145,-0.684 0.205,-0.714 0.284,-0.714C0.368,-0.714 0.43,-0.685 0.469,-0.626C0.508,-0.567 0.528,-0.475 0.528,-0.351C0.528,-0.228 0.507,-0.136 0.465,-0.076C0.422,-0.016 0.362,0.014 0.283,0.014C0.2,0.014 0.138,-0.018 0.099,-0.081C0.06,-0.144 0.04,-0.234 0.04,-0.351ZM0.17,-0.351C0.17,-0.27 0.179,-0.207 0.197,-0.163C0.214,-0.118 0.243,-0.096 0.284,-0.096C0.323,-0.096 0.352,-0.116 0.371,-0.157C0.389,-0.198 0.398,-0.262 0.398,-0.351C0.398,-0.432 0.389,-0.494 0.372,-0.538C0.355,-0.582 0.325,-0.604 0.283,-0.604C0.243,-0.604 0.214,-0.583 0.197,-0.542C0.179,-0.501 0.17,-0.437 0.17,-0.351Z" style="fill-rule:nonzero;"/>
                        </g>
                    </g>
                    <g transform="matrix(1,0,0,1,1190.51,-165.834)">
                        <g transform="matrix(56,0,0,56,6406.46,6467.71)">
                            <path d="M0.04,-0.351C0.04,-0.474 0.061,-0.565 0.103,-0.625C0.145,-0.684 0.205,-0.714 0.284,-0.714C0.368,-0.714 0.43,-0.685 0.469,-0.626C0.508,-0.567 0.528,-0.475 0.528,-0.351C0.528,-0.228 0.507,-0.136 0.465,-0.076C0.422,-0.016 0.362,0.014 0.283,0.014C0.2,0.014 0.138,-0.018 0.099,-0.081C0.06,-0.144 0.04,-0.234 0.04,-0.351ZM0.17,-0.351C0.17,-0.27 0.179,-0.207 0.197,-0.163C0.214,-0.118 0.243,-0.096 0.284,-0.096C0.323,-0.096 0.352,-0.116 0.371,-0.157C0.389,-0.198 0.398,-0.262 0.398,-0.351C0.398,-0.432 0.389,-0.494 0.372,-0.538C0.355,-0.582 0.325,-0.604 0.283,-0.604C0.243,-0.604 0.214,-0.583 0.197,-0.542C0.179,-0.501 0.17,-0.437 0.17,-0.351Z" style="fill-rule:nonzero;"/>
                        </g>
                    </g>
                    <g transform="matrix(1,0,0,1,1601.15,-30.4205)">
                        <g transform="matrix(56,0,0,56,6406.46,6467.71)">
                            <path d="M0.04,-0.351C0.04,-0.474 0.061,-0.565 0.103,-0.625C0.145,-0.684 0.205,-0.714 0.284,-0.714C0.368,-0.714 0.43,-0.685 0.469,-0.626C0.508,-0.567 0.528,-0.475 0.528,-0.351C0.528,-0.228 0.507,-0.136 0.465,-0.076C0.422,-0.016 0.362,0.014 0.283,0.014C0.2,0.014 0.138,-0.018 0.099,-0.081C0.06,-0.144 0.04,-0.234 0.04,-0.351ZM0.17,-0.351C0.17,-0.27 0.179,-0.207 0.197,-0.163C0.214,-0.118 0.243,-0.096 0.284,-0.096C0.323,-0.096 0.352,-0.116 0.371,-0.157C0.389,-0.198 0.398,-0.262 0.398,-0.351C0.398,-0.432 0.389,-0.494 0.372,-0.538C0.355,-0.582 0.325,-0.604 0.283,-0.604C0.243,-0.604 0.214,-0.583 0.197,-0.542C0.179,-0.501 0.17,-0.437 0.17,-0.351Z" style="fill-rule:nonzero;"/>
                        </g>
                    </g>
                    <g transform="matrix(1,0,0,1,1465.04,106.385)">
                        <g transform="matrix(56,0,0,56,6406.46,6467.71)">
                            <path d="M0.04,-0.351C0.04,-0.474 0.061,-0.565 0.103,-0.625C0.145,-0.684 0.205,-0.714 0.284,-0.714C0.368,-0.714 0.43,-0.685 0.469,-0.626C0.508,-0.567 0.528,-0.475 0.528,-0.351C0.528,-0.228 0.507,-0.136 0.465,-0.076C0.422,-0.016 0.362,0.014 0.283,0.014C0.2,0.014 0.138,-0.018 0.099,-0.081C0.06,-0.144 0.04,-0.234 0.04,-0.351ZM0.17,-0.351C0.17,-0.27 0.179,-0.207 0.197,-0.163C0.214,-0.118 0.243,-0.096 0.284,-0.096C0.323,-0.096 0.352,-0.116 0.371,-0.157C0.389,-0.198 0.398,-0.262 0.398,-0.351C0.398,-0.432 0.389,-0.494 0.372,-0.538C0.355,-0.582 0.325,-0.604 0.283,-0.604C0.243,-0.604 0.214,-0.583 0.197,-0.542C0.179,-0.501 0.17,-0.437 0.17,-0.351Z" style="fill-rule:nonzero;"/>
                        </g>
                    </g>
                    <g transform="matrix(1,0,0,1,1465.04,382.018)">
                        <g transform="matrix(56,0,0,56,6406.46,6467.71)">
                            <path d="M0.04,-0.351C0.04,-0.474 0.061,-0.565 0.103,-0.625C0.145,-0.684 0.205,-0.714 0.284,-0.714C0.368,-0.714 0.43,-0.685 0.469,-0.626C0.508,-0.567 0.528,-0.475 0.528,-0.351C0.528,-0.228 0.507,-0.136 0.465,-0.076C0.422,-0.016 0.362,0.014 0.283,0.014C0.2,0.014 0.138,-0.018 0.099,-0.081C0.06,-0.144 0.04,-0.234 0.04,-0.351ZM0.17,-0.351C0.17,-0.27 0.179,-0.207 0.197,-0.163C0.214,-0.118 0.243,-0.096 0.284,-0.096C0.323,-0.096 0.352,-0.116 0.371,-0.157C0.389,-0.198 0.398,-0.262 0.398,-0.351C0.398,-0.432 0.389,-0.494 0.372,-0.538C0.355,-0.582 0.325,-0.604 0.283,-0.604C0.243,-0.604 0.214,-0.583 0.197,-0.542C0.179,-0.501 0.17,-0.437 0.17,-0.351Z" style="fill-rule:nonzero;"/>
                        </g>
                    </g>
                    <g transform="matrix(1,0,0,1,1601.15,-165.624)">
                        <g transform="matrix(56,0,0,56,6406.46,6467.71)">
                            <path d="M0.04,-0.351C0.04,-0.474 0.061,-0.565 0.103,-0.625C0.145,-0.684 0.205,-0.714 0.284,-0.714C0.368,-0.714 0.43,-0.685 0.469,-0.626C0.508,-0.567 0.528,-0.475 0.528,-0.351C0.528,-0.228 0.507,-0.136 0.465,-0.076C0.422,-0.016 0.362,0.014 0.283,0.014C0.2,0.014 0.138,-0.018 0.099,-0.081C0.06,-0.144 0.04,-0.234 0.04,-0.351ZM0.17,-0.351C0.17,-0.27 0.179,-0.207 0.197,-0.163C0.214,-0.118 0.243,-0.096 0.284,-0.096C0.323,-0.096 0.352,-0.116 0.371,-0.157C0.389,-0.198 0.398,-0.262 0.398,-0.351C0.398,-0.432 0.389,-0.494 0.372,-0.538C0.355,-0.582 0.325,-0.604 0.283,-0.604C0.243,-0.604 0.214,-0.583 0.197,-0.542C0.179,-0.501 0.17,-0.437 0.17,-0.351Z" style="fill-rule:nonzero;"/>
                        </g>
                    </g>
                    <g transform="matrix(1,0,0,1,1328.6,382.018)">
                        <g transform="matrix(56,0,0,56,6406.46,6467.71)">
                            <path d="M0.04,-0.351C0.04,-0.474 0.061,-0.565 0.103,-0.625C0.145,-0.684 0.205,-0.714 0.284,-0.714C0.368,-0.714 0.43,-0.685 0.469,-0.626C0.508,-0.567 0.528,-0.475 0.528,-0.351C0.528,-0.228 0.507,-0.136 0.465,-0.076C0.422,-0.016 0.362,0.014 0.283,0.014C0.2,0.014 0.138,-0.018 0.099,-0.081C0.06,-0.144 0.04,-0.234 0.04,-0.351ZM0.17,-0.351C0.17,-0.27 0.179,-0.207 0.197,-0.163C0.214,-0.118 0.243,-0.096 0.284,-0.096C0.323,-0.096 0.352,-0.116 0.371,-0.157C0.389,-0.198 0.398,-0.262 0.398,-0.351C0.398,-0.432 0.389,-0.494 0.372,-0.538C0.355,-0.582 0.325,-0.604 0.283,-0.604C0.243,-0.604 0.214,-0.583 0.197,-0.542C0.179,-0.501 0.17,-0.437 0.17,-0.351Z" style="fill-rule:nonzero;"/>
                        </g>
                    </g>
                </g>
            </g>
            <g transform="matrix(1,0,0,0.866074,832.466,875.505)">
                <g transform="matrix(1,-0,-0,1.15464,6572.53,6155.93)">
                    <path d="M502.42,128.071L482.17,168.571L461.92,128.071L502.42,128.071Z"/>
                    <path d="M482.17,109.425L482.17,136.171" style="fill:none;stroke:black;stroke-width:9px;stroke-linecap:square;stroke-miterlimit:10;"/>
                </g>
            </g>
            <g transform="matrix(0.832197,0.168393,0.168393,0.831014,887.403,-55.218)">
                <g transform="matrix(1.25302,-0.253906,-0.253906,1.2548,6576.64,6202.97)">
                    <path d="M432.049,291.051L389.117,305.445L403.36,262.463L432.049,291.051Z"/>
                    <path d="M434.25,260.153C434.25,260.153 423.168,271.274 411.987,282.494" style="fill:none;stroke:black;stroke-width:9px;stroke-linecap:square;stroke-miterlimit:10;"/>
                </g>
            </g>
            <g transform="matrix(0.866074,0.133926,0.133926,0.866074,837.727,-5.26049)">
                <g transform="matrix(1.18292,-0.182922,-0.182922,1.18292,6632.21,6147.32)">
                    <path d="M295.489,427.798L252.533,442.117L266.852,399.16L295.489,427.798Z"/>
                    <path d="M302.533,392.117C302.533,392.117 288.599,406.05 275.443,419.206" style="fill:none;stroke:black;stroke-width:9px;stroke-linecap:square;stroke-miterlimit:10;"/>
                </g>
            </g>
            <g transform="matrix(1,0,0,0.85357,832.466,1014.95)">
                <g transform="matrix(1,-0,-0,1.17155,6572.53,6082.74)">
                    <path d="M229.491,538.097L209.241,578.597L188.991,538.097L229.491,538.097Z"/>
                    <path d="M209.241,520.304L209.241,546.197" style="fill:none;stroke:black;stroke-width:9px;stroke-linecap:square;stroke-miterlimit:10;"/>
                </g>
            </g>
            <g transform="matrix(1,0,0,0.838927,832.466,1135.96)">
                <g transform="matrix(1,-0,-0,1.192,6572.53,6044.67)">
                    <path d="M229.491,674.768L209.241,715.268L188.991,674.768L229.491,674.768Z"/>
                    <path d="M209.241,657.976L209.241,682.868" style="fill:none;stroke:black;stroke-width:9px;stroke-linecap:square;stroke-miterlimit:10;"/>
                </g>
            </g>
            <g transform="matrix(1,0,0,0.866074,832.466,875.505)">
                <g transform="matrix(1,-0,-0,1.15464,6572.53,6155.93)">
                    <path d="M92.906,128.071L72.656,168.571L52.406,128.071L92.906,128.071Z"/>
                    <path d="M72.656,109.425L72.656,136.171" style="fill:none;stroke:black;stroke-width:9px;stroke-linecap:square;stroke-miterlimit:10;"/>
                </g>
            </g>
            <g transform="matrix(1,0,0,0.839608,832.466,1065.53)">
                <g transform="matrix(1,-0,-0,1.19103,6572.53,6123.65)">
                    <path d="M92.906,264.945L72.656,305.445L52.406,264.945L92.906,264.945Z"/>
                    <path d="M72.656,246.299L72.656,273.045" style="fill:none;stroke:black;stroke-width:9px;stroke-linecap:square;stroke-miterlimit:10;"/>
                </g>
            </g>
            <g transform="matrix(0.882856,-0.117144,-0.117144,0.882856,2417.88,1587.42)">
                <g transform="matrix(1.15299,0.152987,0.152987,1.15299,6456.81,6089.28)">
                    <path d="M149.63,399.16L163.948,442.117L120.992,427.798L149.63,399.16Z"/>
                    <path d="M111.656,389.825C111.656,389.825 126.981,405.149 141.038,419.206" style="fill:none;stroke:black;stroke-width:9px;stroke-linecap:square;stroke-miterlimit:10;"/>
                </g>
            </g>
            <g transform="matrix(0.866431,-0.133365,-0.133365,0.866839,2760.84,1515.59)">
                <g transform="matrix(1.18216,0.181877,0.181877,1.1816,6343.38,6388.03)">
                    <path d="M540.216,161.806L525.864,118.861L568.832,133.147L540.216,161.806Z"/>
                    <path d="M575.941,168.861C575.941,168.861 561.974,154.915 548.792,141.753" style="fill:none;stroke:black;stroke-width:9px;stroke-linecap:square;stroke-miterlimit:10;"/>
                </g>
            </g>
            <g transform="matrix(0.866431,-0.133365,-0.133365,0.866839,2624.09,1788.85)">
                <g transform="matrix(1.18216,0.181877,0.181877,1.1816,6455.34,6090.02)">
                    <path d="M403.469,435.062L389.117,392.117L432.085,406.403L403.469,435.062Z"/>
                    <path d="M439.194,442.117C439.194,442.117 425.226,428.171 412.045,415.009" style="fill:none;stroke:black;stroke-width:9px;stroke-linecap:square;stroke-miterlimit:10;"/>
                </g>
            </g>
            <g transform="matrix(0.911522,0,0,1,1436.72,0)">
                <g transform="matrix(1.09707,-0,-0,1,6547.6,6207)">
                    <path d="M565.201,505.554L524.701,485.304L565.201,465.054L565.201,505.554Z"/>
                    <path d="M586.515,485.304L557.101,485.304" style="fill:none;stroke:black;stroke-width:9px;stroke-linecap:square;stroke-miterlimit:10;"/>
                </g>
            </g>
            <g transform="matrix(1,0,0,0.839133,832.466,1061.55)">
                <g transform="matrix(1,-0,-0,1.19171,6572.53,6131.86)">
                    <path d="M598.265,568.097L618.515,527.597L638.765,568.097L598.265,568.097Z"/>
                    <path d="M618.515,584.976L618.515,559.997" style="fill:none;stroke:black;stroke-width:9px;stroke-linecap:square;stroke-miterlimit:10;"/>
                </g>
            </g>
            <g transform="matrix(1,0,0,0.838927,832.466,1062.96)">
                <g transform="matrix(1,-0,-0,1.192,6572.53,6131.69)">
                    <path d="M325.575,568.184L345.825,527.684L366.075,568.184L325.575,568.184Z"/>
                    <path d="M345.825,584.976L345.825,560.084" style="fill:none;stroke:black;stroke-width:9px;stroke-linecap:square;stroke-miterlimit:10;"/>
                </g>
            </g>
            <g transform="matrix(1,0,0,0.897342,832.466,654.017)">
                <g transform="matrix(1,-0,-0,1.1144,6572.53,6188.26)">
                    <path d="M325.575,431.617L345.825,391.117L366.075,431.617L325.575,431.617Z"/>
                    <path d="M345.825,452.304L345.825,423.517" style="fill:none;stroke:black;stroke-width:9px;stroke-linecap:square;stroke-miterlimit:10;"/>
                </g>
            </g>
            <g transform="matrix(1,0,0,0.866074,832.466,875.505)">
                <g transform="matrix(1,-0,-0,1.15464,6572.53,6155.93)">
                    <path d="M366.075,128.071L345.825,168.571L325.575,128.071L366.075,128.071Z"/>
                    <path d="M345.825,109.425L345.825,136.171" style="fill:none;stroke:black;stroke-width:9px;stroke-linecap:square;stroke-miterlimit:10;"/>
                </g>
            </g>
            <g transform="matrix(0.912142,0,0,1,1470.3,0)">
                <g transform="matrix(1.09632,-0,-0,1,6506.33,6207)">
                    <path d="M397.617,191.903L438.117,212.153L397.617,232.403L397.617,191.903Z"/>
                    <path d="M375.825,212.153L405.717,212.153" style="fill:none;stroke:black;stroke-width:9px;stroke-linecap:square;stroke-miterlimit:10;"/>
                </g>
            </g>
            <g transform="matrix(0.85357,0,0,1,1606.35,409.824)">
                <g transform="matrix(1.17155,-0,-0,1,6793.41,5797.18)">
                    <path d="M124.448,601.726L164.948,621.976L124.448,642.226L124.448,601.726Z"/>
                    <path d="M106.656,621.976L132.548,621.976" style="fill:none;stroke:black;stroke-width:9px;stroke-linecap:square;stroke-miterlimit:10;"/>
                </g>
            </g>
            <g transform="matrix(0.85357,0,0,1,2020.96,409.824)">
                <g transform="matrix(1.17155,-0,-0,1,6307.67,5797.18)">
                    <path d="M539.061,601.726L579.561,621.976L539.061,642.226L539.061,601.726Z"/>
                    <path d="M521.269,621.976L547.161,621.976" style="fill:none;stroke:black;stroke-width:9px;stroke-linecap:square;stroke-miterlimit:10;"/>
                </g>
            </g>
            <g transform="matrix(0.911522,0,0,1,1436.72,0)">
                <g transform="matrix(1.09707,-0,-0,1,6547.6,6207)">
                    <path d="M565.201,95.529L524.701,75.279L565.201,55.029L565.201,95.529Z"/>
                    <path d="M586.515,75.279L557.101,75.279" style="fill:none;stroke:black;stroke-width:9px;stroke-linecap:square;stroke-miterlimit:10;"/>
                </g>
            </g>
            <g transform="matrix(1,0,0,0.824284,832.466,1188.96)">
                <g transform="matrix(1,-0,-0,1.21317,6572.53,6087.75)">
                    <path d="M229.491,401.617L209.241,442.117L188.991,401.617L229.491,401.617Z"/>
                    <path d="M209.241,385.825L209.241,409.717" style="fill:none;stroke:black;stroke-width:9px;stroke-linecap:square;stroke-miterlimit:10;"/>
                </g>
            </g>
            <g transform="matrix(0.912142,0.0878578,0.0878578,0.912142,839.351,-6.88459)">
                <g transform="matrix(1.10659,-0.106587,-0.106587,1.10659,6603.14,6176.39)">
                    <path d="M158.905,154.252L115.948,168.571L130.267,125.614L158.905,154.252Z"/>
                    <path d="M172.241,112.279C172.241,112.279 154.44,130.079 138.859,145.661" style="fill:none;stroke:black;stroke-width:9px;stroke-linecap:square;stroke-miterlimit:10;"/>
                </g>
            </g>
            <g transform="matrix(1,0,0,0.866074,832.466,893.836)">
                <g transform="matrix(1,-0,-0,1.15464,6572.53,6134.77)">
                    <path d="M229.491,264.945L209.241,305.445L188.991,264.945L229.491,264.945Z"/>
                    <path d="M209.241,246.299L209.241,273.045" style="fill:none;stroke:black;stroke-width:9px;stroke-linecap:square;stroke-miterlimit:10;"/>
                </g>
            </g>
            <g transform="matrix(0.824284,0,0,1,2034.13,0)">
                <g transform="matrix(1.21317,-0,-0,1,6515.8,6207)">
                    <path d="M428.617,369.075L388.117,348.825L428.617,328.575L428.617,369.075Z"/>
                    <path d="M444.409,348.825L420.517,348.825" style="fill:none;stroke:black;stroke-width:9px;stroke-linecap:square;stroke-miterlimit:10;"/>
                </g>
            </g>
            <g transform="matrix(1,0,0,0.809641,832.466,1285.96)">
                <g transform="matrix(1,-0,-0,1.23511,6572.53,6078.05)">
                    <path d="M638.765,401.617L618.515,442.117L598.265,401.617L638.765,401.617Z"/>
                    <path d="M618.515,386.825L618.515,409.717" style="fill:none;stroke:black;stroke-width:9px;stroke-linecap:square;stroke-miterlimit:10;"/>
                </g>
            </g>
            <g transform="matrix(0.851431,-0.148569,-0.148569,0.851431,2857.29,2026.83)">
                <g transform="matrix(1.21138,0.211377,0.211377,1.21138,6392.58,6025.04)">
                    <path d="M149.63,535.64L163.948,578.597L120.992,564.278L149.63,535.64Z"/>
                    <path d="M115.948,530.597C115.948,530.597 128.686,543.334 141.038,555.686" style="fill:none;stroke:black;stroke-width:9px;stroke-linecap:square;stroke-miterlimit:10;"/>
                </g>
            </g>
        </g>
    </g>
</svg>
