<?xml version="1.0" encoding="UTF-8" standalone="no"?>
<!DOCTYPE svg PUBLIC "-//W3C//DTD SVG 1.1//EN" "http://www.w3.org/Graphics/SVG/1.1/DTD/svg11.dtd">
<svg width="100%" height="100%" viewBox="0 0 464 510" version="1.1" xmlns="http://www.w3.org/2000/svg" xmlns:xlink="http://www.w3.org/1999/xlink" xml:space="preserve" xmlns:serif="http://www.serif.com/" style="fill-rule:evenodd;clip-rule:evenodd;stroke-linejoin:round;stroke-miterlimit:10;">
    <g transform="matrix(1,0,0,1,-365,-8936)">
        <rect id="Networks" x="0" y="8209" width="2985" height="2153" style="fill:none;"/>
        <g id="Networks1" serif:id="Networks">
            <g transform="matrix(1,0,0,1,-1121.71,186.192)">
                <g transform="matrix(48,0,0,48,1803.74,8792.71)">
                    <path d="M0.23,-0.238L0.247,-0.161L0.252,-0.161L0.266,-0.24L0.351,-0.5L0.491,-0.5L0.282,0.005L0.203,0.005L-0.014,-0.5L0.137,-0.5L0.23,-0.238Z" style="fill-rule:nonzero;"/>
                </g>
                <g transform="matrix(27.984,0,0,27.984,1826.63,8808.69)">
                    <path d="M0.475,-0.529C0.475,-0.495 0.469,-0.461 0.457,-0.426C0.444,-0.391 0.429,-0.357 0.41,-0.324C0.391,-0.291 0.37,-0.259 0.347,-0.228C0.324,-0.197 0.301,-0.168 0.279,-0.142L0.226,-0.101L0.226,-0.096L0.298,-0.11L0.49,-0.11L0.49,-0L0.069,-0L0.069,-0.067C0.085,-0.084 0.103,-0.103 0.123,-0.126C0.143,-0.148 0.163,-0.171 0.184,-0.197C0.204,-0.222 0.224,-0.247 0.243,-0.274C0.262,-0.301 0.28,-0.327 0.295,-0.355C0.31,-0.382 0.323,-0.408 0.332,-0.433C0.341,-0.458 0.345,-0.482 0.345,-0.505C0.345,-0.532 0.337,-0.555 0.322,-0.573C0.306,-0.59 0.281,-0.599 0.247,-0.599C0.226,-0.599 0.204,-0.595 0.182,-0.586C0.159,-0.577 0.14,-0.565 0.125,-0.551L0.073,-0.643C0.099,-0.664 0.129,-0.682 0.162,-0.695C0.195,-0.708 0.233,-0.714 0.278,-0.714C0.307,-0.714 0.333,-0.71 0.357,-0.702C0.381,-0.694 0.402,-0.682 0.419,-0.667C0.436,-0.652 0.45,-0.632 0.46,-0.61C0.47,-0.587 0.475,-0.56 0.475,-0.529Z" style="fill-rule:nonzero;"/>
                </g>
            </g>
            <g transform="matrix(1,0,0,1,-1317.96,187.768)">
                <g transform="matrix(48,0,0,48,1803.74,8792.71)">
                    <path d="M0.23,-0.238L0.247,-0.161L0.252,-0.161L0.266,-0.24L0.351,-0.5L0.491,-0.5L0.282,0.005L0.203,0.005L-0.014,-0.5L0.137,-0.5L0.23,-0.238Z" style="fill-rule:nonzero;"/>
                </g>
                <g transform="matrix(27.984,0,0,27.984,1826.63,8808.69)">
                    <path d="M0.101,-0.11L0.24,-0.11L0.24,-0.505L0.255,-0.573L0.207,-0.514L0.118,-0.453L0.063,-0.528L0.291,-0.712L0.364,-0.712L0.364,-0.11L0.5,-0.11L0.5,-0L0.101,-0L0.101,-0.11Z" style="fill-rule:nonzero;"/>
                </g>
            </g>
            <g transform="matrix(1,0,0,1,-1084.15,307.256)">
                <g transform="matrix(48,0,0,48,1803.74,8792.71)">
                    <path d="M0.23,-0.238L0.247,-0.161L0.252,-0.161L0.266,-0.24L0.351,-0.5L0.491,-0.5L0.282,0.005L0.203,0.005L-0.014,-0.5L0.137,-0.5L0.23,-0.238Z" style="fill-rule:nonzero;"/>
                </g>
                <g transform="matrix(27.984,0,0,27.984,1826.63,8808.69)">
                    <path d="M0.241,-0.096C0.282,-0.096 0.314,-0.107 0.336,-0.129C0.357,-0.151 0.368,-0.178 0.368,-0.209C0.368,-0.247 0.357,-0.275 0.334,-0.293C0.311,-0.311 0.276,-0.32 0.227,-0.32L0.155,-0.32L0.155,-0.389L0.276,-0.554L0.333,-0.599L0.254,-0.59L0.086,-0.59L0.086,-0.7L0.468,-0.7L0.468,-0.629L0.327,-0.44L0.283,-0.413L0.283,-0.408L0.325,-0.414C0.348,-0.412 0.371,-0.407 0.392,-0.398C0.413,-0.389 0.431,-0.377 0.447,-0.361C0.462,-0.344 0.475,-0.324 0.484,-0.3C0.493,-0.276 0.498,-0.248 0.498,-0.217C0.498,-0.178 0.492,-0.144 0.479,-0.115C0.466,-0.086 0.448,-0.062 0.425,-0.043C0.401,-0.024 0.375,-0.009 0.344,-0C0.313,0.009 0.28,0.014 0.245,0.014C0.216,0.014 0.185,0.011 0.154,0.006C0.123,0.001 0.097,-0.007 0.078,-0.017L0.113,-0.125C0.13,-0.116 0.15,-0.109 0.171,-0.104C0.192,-0.099 0.215,-0.096 0.241,-0.096Z" style="fill-rule:nonzero;"/>
                </g>
            </g>
            <g transform="matrix(1,0,0,1,-1024.99,406.953)">
                <g transform="matrix(48,0,0,48,1803.74,8792.71)">
                    <path d="M0.23,-0.238L0.247,-0.161L0.252,-0.161L0.266,-0.24L0.351,-0.5L0.491,-0.5L0.282,0.005L0.203,0.005L-0.014,-0.5L0.137,-0.5L0.23,-0.238Z" style="fill-rule:nonzero;"/>
                </g>
                <g transform="matrix(27.984,0,0,27.984,1826.63,8808.69)">
                    <path d="M0.553,-0.195L0.443,-0.195L0.443,-0L0.322,-0L0.322,-0.195L0.019,-0.195L0.019,-0.269L0.336,-0.705L0.443,-0.705L0.443,-0.299L0.553,-0.299L0.553,-0.195ZM0.322,-0.452L0.331,-0.536L0.327,-0.536L0.293,-0.464L0.189,-0.329L0.139,-0.291L0.203,-0.299L0.322,-0.299L0.322,-0.452Z" style="fill-rule:nonzero;"/>
                </g>
            </g>
            <g transform="matrix(1,0,0,1,-1156.08,507.682)">
                <g transform="matrix(48,0,0,48,1803.74,8792.71)">
                    <path d="M0.23,-0.238L0.247,-0.161L0.252,-0.161L0.266,-0.24L0.351,-0.5L0.491,-0.5L0.282,0.005L0.203,0.005L-0.014,-0.5L0.137,-0.5L0.23,-0.238Z" style="fill-rule:nonzero;"/>
                </g>
                <g transform="matrix(27.984,0,0,27.984,1826.63,8808.69)">
                    <path d="M0.22,-0.101C0.264,-0.101 0.298,-0.112 0.321,-0.133C0.344,-0.154 0.356,-0.184 0.356,-0.221C0.356,-0.261 0.342,-0.29 0.315,-0.309C0.288,-0.328 0.249,-0.337 0.198,-0.337L0.119,-0.334L0.119,-0.7L0.463,-0.7L0.463,-0.578L0.231,-0.578L0.231,-0.443L0.272,-0.447C0.305,-0.446 0.334,-0.44 0.361,-0.429C0.387,-0.418 0.409,-0.404 0.428,-0.385C0.447,-0.366 0.461,-0.342 0.471,-0.316C0.481,-0.289 0.486,-0.258 0.486,-0.225C0.486,-0.186 0.479,-0.151 0.466,-0.121C0.453,-0.091 0.434,-0.066 0.411,-0.046C0.387,-0.026 0.359,-0.011 0.327,-0.001C0.295,0.009 0.26,0.014 0.222,0.014C0.192,0.014 0.164,0.012 0.137,0.007C0.11,0.002 0.087,-0.005 0.068,-0.014L0.103,-0.122C0.118,-0.115 0.135,-0.11 0.154,-0.107C0.172,-0.103 0.194,-0.101 0.22,-0.101Z" style="fill-rule:nonzero;"/>
                </g>
            </g>
            <g transform="matrix(1,0,0,1,-1318.15,416.56)">
                <g transform="matrix(48,0,0,48,1803.74,8792.71)">
                    <path d="M0.23,-0.238L0.247,-0.161L0.252,-0.161L0.266,-0.24L0.351,-0.5L0.491,-0.5L0.282,0.005L0.203,0.005L-0.014,-0.5L0.137,-0.5L0.23,-0.238Z" style="fill-rule:nonzero;"/>
                </g>
                <g transform="matrix(27.984,0,0,27.984,1826.63,8808.69)">
                    <path d="M0.52,-0.217C0.52,-0.184 0.515,-0.154 0.504,-0.126C0.493,-0.098 0.477,-0.074 0.457,-0.053C0.437,-0.032 0.413,-0.016 0.385,-0.004C0.356,0.008 0.325,0.014 0.291,0.014C0.256,0.014 0.225,0.009 0.196,-0.003C0.167,-0.014 0.141,-0.03 0.12,-0.052C0.099,-0.074 0.082,-0.102 0.07,-0.135C0.058,-0.168 0.052,-0.207 0.052,-0.251C0.052,-0.317 0.062,-0.377 0.081,-0.43C0.099,-0.483 0.125,-0.53 0.158,-0.57C0.19,-0.609 0.228,-0.641 0.271,-0.666C0.314,-0.69 0.359,-0.706 0.407,-0.714L0.436,-0.611C0.403,-0.606 0.372,-0.595 0.344,-0.58C0.316,-0.565 0.291,-0.546 0.27,-0.525C0.248,-0.504 0.23,-0.48 0.215,-0.454C0.2,-0.427 0.189,-0.4 0.183,-0.372C0.196,-0.389 0.214,-0.403 0.235,-0.415C0.256,-0.426 0.283,-0.432 0.315,-0.432C0.345,-0.432 0.373,-0.427 0.398,-0.418C0.423,-0.409 0.445,-0.395 0.463,-0.377C0.481,-0.358 0.495,-0.336 0.505,-0.309C0.515,-0.282 0.52,-0.252 0.52,-0.217ZM0.394,-0.21C0.394,-0.285 0.357,-0.322 0.284,-0.322C0.257,-0.322 0.235,-0.316 0.217,-0.304C0.198,-0.292 0.185,-0.278 0.178,-0.262C0.177,-0.255 0.176,-0.248 0.176,-0.243L0.176,-0.227C0.176,-0.211 0.178,-0.195 0.183,-0.18C0.188,-0.164 0.195,-0.15 0.204,-0.138C0.213,-0.125 0.224,-0.115 0.238,-0.108C0.252,-0.1 0.269,-0.096 0.288,-0.096C0.319,-0.096 0.345,-0.107 0.365,-0.128C0.384,-0.149 0.394,-0.177 0.394,-0.21Z" style="fill-rule:nonzero;"/>
                </g>
            </g>
            <g transform="matrix(1,0,0,1,-1375.14,496.801)">
                <g transform="matrix(48,0,0,48,1803.74,8792.71)">
                    <path d="M0.23,-0.238L0.247,-0.161L0.252,-0.161L0.266,-0.24L0.351,-0.5L0.491,-0.5L0.282,0.005L0.203,0.005L-0.014,-0.5L0.137,-0.5L0.23,-0.238Z" style="fill-rule:nonzero;"/>
                </g>
                <g transform="matrix(27.984,0,0,27.984,1826.63,8808.69)">
                    <path d="M0.104,-0L0.333,-0.539L0.377,-0.588L0.317,-0.578L0.06,-0.578L0.06,-0.7L0.511,-0.7L0.511,-0.662L0.231,-0L0.104,-0Z" style="fill-rule:nonzero;"/>
                </g>
            </g>
            <g transform="matrix(1,0,0,1,-1425.92,579.977)">
                <g transform="matrix(48,0,0,48,1803.74,8792.71)">
                    <path d="M0.23,-0.238L0.247,-0.161L0.252,-0.161L0.266,-0.24L0.351,-0.5L0.491,-0.5L0.282,0.005L0.203,0.005L-0.014,-0.5L0.137,-0.5L0.23,-0.238Z" style="fill-rule:nonzero;"/>
                </g>
                <g transform="matrix(27.984,0,0,27.984,1826.63,8808.69)">
                    <path d="M0.061,-0.171C0.061,-0.194 0.064,-0.215 0.07,-0.234C0.076,-0.252 0.085,-0.269 0.096,-0.284C0.107,-0.299 0.12,-0.312 0.135,-0.324C0.15,-0.336 0.166,-0.347 0.183,-0.357C0.15,-0.378 0.125,-0.401 0.106,-0.429C0.087,-0.456 0.078,-0.489 0.078,-0.529C0.078,-0.555 0.083,-0.579 0.093,-0.602C0.102,-0.625 0.116,-0.644 0.135,-0.661C0.153,-0.678 0.175,-0.691 0.201,-0.7C0.227,-0.709 0.256,-0.714 0.289,-0.714C0.319,-0.714 0.346,-0.71 0.371,-0.702C0.396,-0.694 0.417,-0.683 0.435,-0.668C0.452,-0.653 0.466,-0.636 0.476,-0.615C0.485,-0.594 0.49,-0.57 0.49,-0.545C0.49,-0.506 0.481,-0.472 0.464,-0.445C0.446,-0.418 0.42,-0.393 0.386,-0.37C0.426,-0.347 0.456,-0.321 0.477,-0.293C0.497,-0.265 0.507,-0.229 0.507,-0.185C0.507,-0.155 0.501,-0.128 0.491,-0.104C0.48,-0.079 0.464,-0.058 0.444,-0.041C0.424,-0.024 0.4,-0.01 0.372,-0.001C0.344,0.009 0.313,0.014 0.28,0.014C0.247,0.014 0.217,0.01 0.19,0.001C0.163,-0.009 0.139,-0.021 0.121,-0.037C0.101,-0.053 0.087,-0.072 0.077,-0.095C0.066,-0.118 0.061,-0.143 0.061,-0.171ZM0.383,-0.184C0.383,-0.199 0.379,-0.213 0.372,-0.226C0.365,-0.239 0.355,-0.25 0.344,-0.261C0.332,-0.271 0.319,-0.28 0.305,-0.289C0.29,-0.298 0.276,-0.306 0.261,-0.314C0.23,-0.296 0.208,-0.277 0.197,-0.256C0.185,-0.235 0.179,-0.214 0.179,-0.193C0.179,-0.166 0.188,-0.143 0.207,-0.125C0.225,-0.106 0.25,-0.096 0.283,-0.096C0.313,-0.096 0.337,-0.103 0.356,-0.118C0.374,-0.133 0.383,-0.155 0.383,-0.184ZM0.202,-0.527C0.202,-0.511 0.205,-0.497 0.211,-0.485C0.217,-0.473 0.225,-0.463 0.236,-0.454C0.246,-0.444 0.258,-0.436 0.271,-0.429C0.284,-0.421 0.297,-0.414 0.311,-0.407C0.351,-0.441 0.371,-0.478 0.371,-0.519C0.371,-0.547 0.363,-0.568 0.347,-0.583C0.33,-0.597 0.31,-0.604 0.287,-0.604C0.258,-0.604 0.236,-0.596 0.223,-0.581C0.209,-0.566 0.202,-0.548 0.202,-0.527Z" style="fill-rule:nonzero;"/>
                </g>
            </g>
            <g transform="matrix(1,-0,-0,1,365,8936)">
                <path d="M215.931,247.312L189.864,262.536L193.325,232.548L215.931,247.312Z" style="fill:rgb(45,231,231);"/>
                <path d="M313,74C313,74 232.499,197.257 201.675,244.451" style="fill:none;stroke:rgb(45,231,231);stroke-width:6px;"/>
            </g>
            <g transform="matrix(1,-0,-0,1,365,8936)">
                <path d="M137.662,366.203L111.487,381.24L115.162,351.278L137.662,366.203Z" style="fill:rgb(45,231,231);"/>
                <path d="M182.864,273.64C182.864,273.64 143.744,332.612 123.427,363.24" style="fill:none;stroke:rgb(45,231,231);stroke-width:6px;"/>
            </g>
            <g transform="matrix(1,-0,-0,1,365,8936)">
                <path d="M83.312,449.204L57,464L60.95,434.073L83.312,449.204Z" style="fill:rgb(45,231,231);"/>
                <path d="M105.487,392.345C105.487,392.345 83.466,424.887 69.105,446.111" style="fill:none;stroke:rgb(45,231,231);stroke-width:6px;"/>
            </g>
            <g transform="matrix(1,-0,-0,1,365,8936)">
                <path d="M185.274,233.008L179,262.536L159.142,239.8L185.274,233.008Z" style="fill:rgb(45,231,231);"/>
                <path d="M130,74C130,74 160.808,192.538 173.567,241.63" style="fill:none;stroke:rgb(45,231,231);stroke-width:6px;"/>
            </g>
            <g transform="matrix(1,-0,-0,1,365,8936)">
                <path d="M147.869,394.677L117.773,392.345L137.697,369.667L147.869,394.677Z" style="fill:rgb(45,231,231);"/>
                <path d="M284.668,324.461C284.668,324.461 182.103,366.179 137.781,384.206" style="fill:none;stroke:rgb(45,231,231);stroke-width:6px;"/>
            </g>
            <g transform="matrix(1,-0,-0,1,365,8936)">
                <path d="M336.312,319.331L306.284,316.246L326.769,294.074L336.312,319.331Z" style="fill:rgb(45,231,231);"/>
                <path d="M394.773,282.811C394.773,282.811 352.607,298.743 326.489,308.611" style="fill:none;stroke:rgb(45,231,231);stroke-width:6px;"/>
            </g>
            <g transform="matrix(1,-0,-0,1,365,8936)">
                <path d="M323.52,288.521L301.095,308.73L298.383,278.665L323.52,288.521Z" style="fill:rgb(45,231,231);"/>
                <path d="M350,184C350,184 322.813,253.34 308.98,288.62" style="fill:none;stroke:rgb(45,231,231);stroke-width:6px;"/>
            </g>
            <g transform="matrix(0.552599,0,0,0.552599,43.5026,8763.29)">
                <circle cx="817.043" cy="446.457" r="20.095" style="fill:white;stroke:black;stroke-width:7.24px;stroke-linecap:round;stroke-miterlimit:1.5;"/>
            </g>
            <g transform="matrix(0.552599,0,0,0.552599,226.396,8763.12)">
                <circle cx="817.043" cy="446.457" r="20.095" style="fill:white;stroke:black;stroke-width:7.24px;stroke-linecap:round;stroke-miterlimit:1.5;"/>
            </g>
            <g transform="matrix(0.552599,0,0,0.552599,96.1109,8962.93)">
                <circle cx="817.043" cy="446.457" r="20.095" style="fill:white;stroke:black;stroke-width:7.24px;stroke-linecap:round;stroke-miterlimit:1.5;"/>
            </g>
            <g transform="matrix(0.552599,0,0,0.552599,263.078,8875.17)">
                <circle cx="817.043" cy="446.457" r="20.095" style="fill:white;stroke:black;stroke-width:7.24px;stroke-linecap:round;stroke-miterlimit:1.5;"/>
            </g>
            <g transform="matrix(0.552599,0,0,0.552599,209.275,9009.12)">
                <circle cx="817.043" cy="446.457" r="20.095" style="fill:white;stroke:black;stroke-width:7.24px;stroke-linecap:round;stroke-miterlimit:1.5;"/>
            </g>
            <g transform="matrix(0.552599,0,0,0.552599,320.1,8967.73)">
                <circle cx="817.043" cy="446.457" r="20.095" style="fill:white;stroke:black;stroke-width:7.24px;stroke-linecap:round;stroke-miterlimit:1.5;"/>
            </g>
            <g transform="matrix(0.552599,0,0,0.552599,-34.9907,9162.87)">
                <circle cx="817.043" cy="446.457" r="20.095" style="fill:white;stroke:black;stroke-width:7.24px;stroke-linecap:round;stroke-miterlimit:1.5;"/>
            </g>
            <g transform="matrix(0.552599,0,0,0.552599,18.8964,9081.63)">
                <circle cx="817.043" cy="446.457" r="20.095" style="fill:white;stroke:black;stroke-width:7.24px;stroke-linecap:round;stroke-miterlimit:1.5;"/>
            </g>
        </g>
    </g>
</svg>
