<?xml version="1.0" encoding="UTF-8" standalone="no"?>
<!DOCTYPE svg PUBLIC "-//W3C//DTD SVG 1.1//EN" "http://www.w3.org/Graphics/SVG/1.1/DTD/svg11.dtd">
<svg width="100%" height="100%" viewBox="0 0 613 353" version="1.1" xmlns="http://www.w3.org/2000/svg" xmlns:xlink="http://www.w3.org/1999/xlink" xml:space="preserve" xmlns:serif="http://www.serif.com/" style="fill-rule:evenodd;clip-rule:evenodd;stroke-linecap:round;stroke-linejoin:round;stroke-miterlimit:10;">
    <g transform="matrix(1,0,0,1,-7422,-635)">
        <g id="Attribute" transform="matrix(1.90372,0,0,0.999018,1107.92,-8.99116)">
            <rect x="2388" y="9" width="1641" height="1018" style="fill:none;"/>
            <g transform="matrix(0.646607,0,0,0.469027,1441.16,545.31)">
                <g transform="matrix(-0.812376,1.95457e-16,-8.7337e-17,-1.40111,5024.69,1105.16)">
                    <rect x="2500" y="106.496" width="110" height="65.504" style="fill:rgb(89,89,89);stroke:black;stroke-width:3.55px;"/>
                </g>
                <g transform="matrix(-0.812376,1.95457e-16,-8.7337e-17,-1.40111,5024.69,738.051)">
                    <rect x="2500" y="106.496" width="110" height="65.504" style="fill:rgb(200,200,200);stroke:black;stroke-width:3.55px;"/>
                </g>
                <g transform="matrix(-0.812376,1.95457e-16,-8.7337e-17,-1.40111,5024.69,921.607)">
                    <rect x="2500" y="106.496" width="110" height="65.504" style="fill:rgb(216,216,216);stroke:black;stroke-width:3.55px;"/>
                </g>
                <g transform="matrix(-0.812376,1.95457e-16,-8.7337e-17,-1.40111,5024.69,554.494)">
                    <rect x="2500" y="106.496" width="110" height="65.504" style="fill:rgb(77,77,77);stroke:black;stroke-width:3.55px;"/>
                </g>
                <g transform="matrix(-0.812376,1.95457e-16,-8.7337e-17,-1.40111,5024.69,1013.38)">
                    <rect x="2500" y="106.496" width="110" height="65.504" style="fill:rgb(164,164,164);stroke:black;stroke-width:3.55px;"/>
                </g>
                <g transform="matrix(-0.812376,1.95457e-16,-8.7337e-17,-1.40111,5024.69,646.273)">
                    <rect x="2500" y="106.496" width="110" height="65.504" style="fill:rgb(102,102,102);stroke:black;stroke-width:3.55px;"/>
                </g>
                <g transform="matrix(-0.812376,1.95457e-16,-8.7337e-17,-1.40111,5024.69,829.829)">
                    <rect x="2500" y="106.496" width="110" height="65.504" style="fill:rgb(150,150,150);stroke:black;stroke-width:3.55px;"/>
                </g>
                <g transform="matrix(-0.812376,1.95457e-16,-8.7337e-17,-1.40111,5024.69,462.716)">
                    <rect x="2500" y="106.496" width="110" height="65.504" style="fill:rgb(153,153,153);stroke:black;stroke-width:3.55px;"/>
                </g>
            </g>
            <g transform="matrix(0.646607,0,0,0.469027,1498.94,545.31)">
                <g transform="matrix(-0.812376,1.95457e-16,-8.7337e-17,-1.40111,5024.69,1105.16)">
                    <rect x="2500" y="106.496" width="110" height="65.504" style="fill:rgb(45,231,231);stroke:black;stroke-width:3.55px;"/>
                </g>
                <g transform="matrix(-0.812376,1.95457e-16,-8.7337e-17,-1.40111,5024.69,738.051)">
                    <rect x="2500" y="106.496" width="110" height="65.504" style="fill:rgb(255,235,51);stroke:black;stroke-width:3.55px;"/>
                </g>
                <g transform="matrix(-0.812376,1.95457e-16,-8.7337e-17,-1.40111,5024.69,921.607)">
                    <rect x="2500" y="106.496" width="110" height="65.504" style="fill:rgb(229,242,13);stroke:black;stroke-width:3.55px;"/>
                </g>
                <g transform="matrix(0.812376,6.59037e-17,2.20226e-17,1.40111,873.444,164.292)">
                    <rect x="2500" y="106.496" width="110" height="65.504" style="fill:rgb(251,133,255);stroke:black;stroke-width:3.55px;"/>
                </g>
                <g transform="matrix(-0.812376,1.95457e-16,-8.7337e-17,-1.40111,5024.69,1013.38)">
                    <rect x="2500" y="106.496" width="110" height="65.504" style="fill:rgb(45,231,231);stroke:black;stroke-width:3.55px;"/>
                </g>
                <g transform="matrix(0.812376,6.59037e-17,2.20226e-17,1.40111,873.444,72.5143)">
                    <rect x="2500" y="106.496" width="110" height="65.504" style="fill:rgb(251,133,255);stroke:black;stroke-width:3.55px;"/>
                </g>
                <g transform="matrix(-0.812376,1.95457e-16,-8.7337e-17,-1.40111,5024.69,829.829)">
                    <rect x="2500" y="106.496" width="110" height="65.504" style="fill:rgb(255,235,51);stroke:black;stroke-width:3.55px;"/>
                </g>
                <g transform="matrix(0.812376,6.59037e-17,2.20226e-17,1.40111,873.444,256.07)">
                    <rect x="2500" y="106.496" width="110" height="65.504" style="fill:rgb(251,133,255);stroke:black;stroke-width:3.55px;"/>
                </g>
            </g>
            <g transform="matrix(0.525288,0,0,1.00098,1934.21,556.128)">
                <g transform="matrix(32,0,0,32,2790.57,126.659)">
                    <path d="M0.196,-0.32L0.42,-0.32L0.311,-0.669L0.196,-0.32ZM0.276,-0.765L0.357,-0.765L0.611,-0L0.519,-0L0.438,-0.261L0.179,-0.261L0.097,-0L0.015,-0L0.276,-0.765Z" style="fill-rule:nonzero;"/>
                </g>
            </g>
            <g transform="matrix(0.525288,0,0,1.00098,1934.21,599.366)">
                <g transform="matrix(32,0,0,32,2790.57,126.659)">
                    <path d="M0.196,-0.32L0.42,-0.32L0.311,-0.669L0.196,-0.32ZM0.276,-0.765L0.357,-0.765L0.611,-0L0.519,-0L0.438,-0.261L0.179,-0.261L0.097,-0L0.015,-0L0.276,-0.765Z" style="fill-rule:nonzero;"/>
                </g>
            </g>
            <g transform="matrix(0.525288,0,0,1.00098,1934.21,642.421)">
                <g transform="matrix(32,0,0,32,2790.57,126.659)">
                    <path d="M0.196,-0.32L0.42,-0.32L0.311,-0.669L0.196,-0.32ZM0.276,-0.765L0.357,-0.765L0.611,-0L0.519,-0L0.438,-0.261L0.179,-0.261L0.097,-0L0.015,-0L0.276,-0.765Z" style="fill-rule:nonzero;"/>
                </g>
            </g>
            <g transform="matrix(0.525288,0,0,1.00098,1934.21,685.42)">
                <g transform="matrix(32,0,0,32,2790.57,126.659)">
                    <path d="M0.156,-0.703L0.156,-0.432L0.256,-0.432C0.306,-0.432 0.348,-0.444 0.384,-0.467C0.42,-0.491 0.438,-0.523 0.438,-0.564C0.438,-0.612 0.423,-0.646 0.395,-0.669C0.367,-0.691 0.318,-0.703 0.247,-0.703L0.156,-0.703ZM0.156,-0.368L0.156,-0.063L0.288,-0.063C0.344,-0.063 0.388,-0.076 0.42,-0.1C0.453,-0.125 0.469,-0.159 0.469,-0.204C0.469,-0.253 0.453,-0.292 0.422,-0.323C0.39,-0.353 0.343,-0.368 0.282,-0.368L0.156,-0.368ZM0.292,-0.765C0.364,-0.765 0.419,-0.749 0.459,-0.716C0.5,-0.683 0.52,-0.636 0.52,-0.575C0.52,-0.526 0.504,-0.488 0.474,-0.46C0.443,-0.432 0.413,-0.415 0.384,-0.41C0.424,-0.403 0.462,-0.382 0.5,-0.348C0.537,-0.314 0.555,-0.262 0.555,-0.191C0.555,-0.136 0.532,-0.091 0.487,-0.054C0.441,-0.018 0.375,-0 0.29,-0L0.073,-0L0.073,-0.765L0.292,-0.765Z" style="fill-rule:nonzero;"/>
                </g>
            </g>
            <g transform="matrix(0.525288,0,0,1.00098,1934.21,728.992)">
                <g transform="matrix(32,0,0,32,2790.57,126.659)">
                    <path d="M0.156,-0.703L0.156,-0.432L0.256,-0.432C0.306,-0.432 0.348,-0.444 0.384,-0.467C0.42,-0.491 0.438,-0.523 0.438,-0.564C0.438,-0.612 0.423,-0.646 0.395,-0.669C0.367,-0.691 0.318,-0.703 0.247,-0.703L0.156,-0.703ZM0.156,-0.368L0.156,-0.063L0.288,-0.063C0.344,-0.063 0.388,-0.076 0.42,-0.1C0.453,-0.125 0.469,-0.159 0.469,-0.204C0.469,-0.253 0.453,-0.292 0.422,-0.323C0.39,-0.353 0.343,-0.368 0.282,-0.368L0.156,-0.368ZM0.292,-0.765C0.364,-0.765 0.419,-0.749 0.459,-0.716C0.5,-0.683 0.52,-0.636 0.52,-0.575C0.52,-0.526 0.504,-0.488 0.474,-0.46C0.443,-0.432 0.413,-0.415 0.384,-0.41C0.424,-0.403 0.462,-0.382 0.5,-0.348C0.537,-0.314 0.555,-0.262 0.555,-0.191C0.555,-0.136 0.532,-0.091 0.487,-0.054C0.441,-0.018 0.375,-0 0.29,-0L0.073,-0L0.073,-0.765L0.292,-0.765Z" style="fill-rule:nonzero;"/>
                </g>
            </g>
            <g transform="matrix(0.525288,0,0,1.00098,1934.21,772.676)">
                <g transform="matrix(32,0,0,32,2790.57,126.659)">
                    <path d="M0.156,-0.703L0.156,-0.432L0.256,-0.432C0.306,-0.432 0.348,-0.444 0.384,-0.467C0.42,-0.491 0.438,-0.523 0.438,-0.564C0.438,-0.612 0.423,-0.646 0.395,-0.669C0.367,-0.691 0.318,-0.703 0.247,-0.703L0.156,-0.703ZM0.156,-0.368L0.156,-0.063L0.288,-0.063C0.344,-0.063 0.388,-0.076 0.42,-0.1C0.453,-0.125 0.469,-0.159 0.469,-0.204C0.469,-0.253 0.453,-0.292 0.422,-0.323C0.39,-0.353 0.343,-0.368 0.282,-0.368L0.156,-0.368ZM0.292,-0.765C0.364,-0.765 0.419,-0.749 0.459,-0.716C0.5,-0.683 0.52,-0.636 0.52,-0.575C0.52,-0.526 0.504,-0.488 0.474,-0.46C0.443,-0.432 0.413,-0.415 0.384,-0.41C0.424,-0.403 0.462,-0.382 0.5,-0.348C0.537,-0.314 0.555,-0.262 0.555,-0.191C0.555,-0.136 0.532,-0.091 0.487,-0.054C0.441,-0.018 0.375,-0 0.29,-0L0.073,-0L0.073,-0.765L0.292,-0.765Z" style="fill-rule:nonzero;"/>
                </g>
            </g>
            <g transform="matrix(0.525288,0,0,1.00098,1934.21,815.033)">
                <g transform="matrix(32,0,0,32,2790.57,126.659)">
                    <path d="M0.627,-0.11C0.602,-0.076 0.57,-0.046 0.533,-0.023C0.497,0 0.444,0.012 0.377,0.012C0.281,0.012 0.205,-0.025 0.148,-0.1C0.092,-0.175 0.063,-0.271 0.063,-0.389C0.063,-0.499 0.091,-0.592 0.145,-0.669C0.199,-0.747 0.28,-0.785 0.386,-0.785C0.43,-0.785 0.469,-0.779 0.503,-0.767C0.537,-0.754 0.569,-0.732 0.6,-0.699L0.547,-0.644C0.525,-0.667 0.499,-0.685 0.472,-0.697C0.444,-0.709 0.414,-0.715 0.381,-0.715C0.309,-0.715 0.252,-0.684 0.212,-0.622C0.171,-0.56 0.151,-0.487 0.151,-0.402C0.151,-0.291 0.174,-0.206 0.219,-0.147C0.265,-0.088 0.317,-0.058 0.375,-0.058C0.431,-0.058 0.472,-0.067 0.498,-0.084C0.523,-0.102 0.546,-0.126 0.567,-0.155L0.627,-0.11Z" style="fill-rule:nonzero;"/>
                </g>
            </g>
            <g transform="matrix(0.525288,0,0,1.00098,1934.21,858.541)">
                <g transform="matrix(32,0,0,32,2790.57,126.659)">
                    <path d="M0.627,-0.11C0.602,-0.076 0.57,-0.046 0.533,-0.023C0.497,0 0.444,0.012 0.377,0.012C0.281,0.012 0.205,-0.025 0.148,-0.1C0.092,-0.175 0.063,-0.271 0.063,-0.389C0.063,-0.499 0.091,-0.592 0.145,-0.669C0.199,-0.747 0.28,-0.785 0.386,-0.785C0.43,-0.785 0.469,-0.779 0.503,-0.767C0.537,-0.754 0.569,-0.732 0.6,-0.699L0.547,-0.644C0.525,-0.667 0.499,-0.685 0.472,-0.697C0.444,-0.709 0.414,-0.715 0.381,-0.715C0.309,-0.715 0.252,-0.684 0.212,-0.622C0.171,-0.56 0.151,-0.487 0.151,-0.402C0.151,-0.291 0.174,-0.206 0.219,-0.147C0.265,-0.088 0.317,-0.058 0.375,-0.058C0.431,-0.058 0.472,-0.067 0.498,-0.084C0.523,-0.102 0.546,-0.126 0.567,-0.155L0.627,-0.11Z" style="fill-rule:nonzero;"/>
                </g>
            </g>
            <g transform="matrix(0.646607,0,0,0.469027,1504.19,545.31)">
                <g transform="matrix(0.812376,0,0,-0.521115,443.782,928.28)">
                    <rect x="3291.06" y="387.197" width="110" height="171.512" style="fill:rgb(127,127,127);stroke:black;stroke-width:4.12px;"/>
                </g>
                <g transform="matrix(0.812376,0,0,-0.521115,533.011,928.28)">
                    <rect x="3291.06" y="387.197" width="110" height="171.512" style="fill:rgb(45,231,231);stroke:black;stroke-width:4.12px;"/>
                </g>
                <g transform="matrix(0.812376,0,0,1.07186,443.782,224.253)">
                    <rect x="3291.06" y="214.684" width="110" height="170.512" style="fill:rgb(184,184,184);stroke:black;stroke-width:3.79px;"/>
                </g>
                <g transform="matrix(0.812376,0,0,0.537378,533.011,430.132)">
                    <rect x="3291.06" y="214.684" width="110" height="170.512" style="fill:rgb(255,235,51);stroke:black;stroke-width:4.11px;"/>
                </g>
                <g transform="matrix(0.812376,0,0,-0.799373,443.782,625.177)">
                    <rect x="3291.06" y="99.676" width="110" height="114.008" style="fill:rgb(95,95,95);stroke:black;stroke-width:3.97px;"/>
                </g>
                <g transform="matrix(0.812376,0,0,-0.799373,533.011,625.177)">
                    <rect x="3291.06" y="99.676" width="110" height="114.008" style="fill:rgb(251,133,255);stroke:black;stroke-width:3.97px;"/>
                </g>
            </g>
            <g transform="matrix(0.404013,0,0,1.00098,2229.31,540.522)">
                <rect x="3049.9" y="109" width="110" height="128.688" style="fill:none;stroke:black;stroke-width:3.36px;"/>
            </g>
            <g transform="matrix(0.404013,0,0,1.00957,2229.31,668.401)">
                <rect x="3049.9" y="109" width="110" height="128.688" style="fill:none;stroke:black;stroke-width:3.34px;"/>
            </g>
            <g transform="matrix(0.404013,0,0,0.666514,2229.31,835.369)">
                <rect x="3049.9" y="109" width="110" height="128.688" style="fill:none;stroke:black;stroke-width:4.17px;"/>
            </g>
            <g transform="matrix(0.153546,0,0,0.292595,3083.16,223.893)">
                <g transform="matrix(3.42105,-0,-0,3.42105,1521.02,1437.93)">
                    <path d="M243.494,13.957L265.994,25.207L243.494,36.457L243.494,13.957Z"/>
                    <path d="M246.994,25.207L247.994,25.207" style="fill:none;stroke:black;stroke-width:5px;stroke-linecap:butt;stroke-linejoin:miter;stroke-miterlimit:1;stroke-dasharray:5,5;"/>
                </g>
            </g>
            <g transform="matrix(0.153546,0,0,0.292595,3083.16,267.153)">
                <g transform="matrix(3.42105,-0,-0,3.42105,1521.02,1290.08)">
                    <path d="M243.494,57.174L265.994,68.424L243.494,79.674L243.494,57.174Z"/>
                    <path d="M246.994,68.424L247.994,68.424" style="fill:none;stroke:black;stroke-width:5px;stroke-linecap:butt;stroke-linejoin:miter;stroke-miterlimit:1;stroke-dasharray:5,5;"/>
                </g>
            </g>
            <g transform="matrix(0.153546,0,0,0.292595,3083.16,308.741)">
                <g transform="matrix(3.42105,-0,-0,3.42105,1521.02,1147.95)">
                    <path d="M243.494,98.721L265.994,109.971L243.494,121.221L243.494,98.721Z"/>
                    <path d="M246.994,109.971L247.994,109.971" style="fill:none;stroke:black;stroke-width:5px;stroke-linecap:butt;stroke-linejoin:miter;stroke-miterlimit:1;stroke-dasharray:5,5;"/>
                </g>
            </g>
            <g transform="matrix(0.153546,0,0,0.292595,3083.16,353.426)">
                <g transform="matrix(3.42105,-0,-0,3.42105,1521.02,995.226)">
                    <path d="M243.494,143.363L265.994,154.613L243.494,165.863L243.494,143.363Z"/>
                    <path d="M246.994,154.613L247.994,154.613" style="fill:none;stroke:black;stroke-width:5px;stroke-linecap:butt;stroke-linejoin:miter;stroke-miterlimit:1;stroke-dasharray:5,5;"/>
                </g>
            </g>
            <g transform="matrix(0.153546,0,0,0.292595,3083.16,396.848)">
                <g transform="matrix(3.42105,-0,-0,3.42105,1521.02,846.823)">
                    <path d="M243.494,186.742L265.994,197.992L243.494,209.242L243.494,186.742Z"/>
                    <path d="M246.994,197.992L247.994,197.992" style="fill:none;stroke:black;stroke-width:5px;stroke-linecap:butt;stroke-linejoin:miter;stroke-miterlimit:1;stroke-dasharray:5,5;"/>
                </g>
            </g>
            <g transform="matrix(0.153546,0,0,0.292595,3083.16,440.436)">
                <g transform="matrix(3.42105,-0,-0,3.42105,1521.02,697.854)">
                    <path d="M243.494,230.287L265.994,241.537L243.494,252.787L243.494,230.287Z"/>
                    <path d="M246.994,241.537L247.994,241.537" style="fill:none;stroke:black;stroke-width:5px;stroke-linecap:butt;stroke-linejoin:miter;stroke-miterlimit:1;stroke-dasharray:5,5;"/>
                </g>
            </g>
            <g transform="matrix(0.153546,0,0,0.292595,3083.16,482.877)">
                <g transform="matrix(3.42105,-0,-0,3.42105,1521.02,552.802)">
                    <path d="M243.494,272.687L265.994,283.937L243.494,295.187L243.494,272.687Z"/>
                    <path d="M246.994,283.937L247.994,283.937" style="fill:none;stroke:black;stroke-width:5px;stroke-linecap:butt;stroke-linejoin:miter;stroke-miterlimit:1;stroke-dasharray:5,5;"/>
                </g>
            </g>
            <g transform="matrix(0.153546,0,0,0.292595,3083.16,525.935)">
                <g transform="matrix(3.42105,-0,-0,3.42105,1521.02,405.644)">
                    <path d="M243.494,315.702L265.994,326.952L243.494,338.202L243.494,315.702Z"/>
                    <path d="M246.994,326.952L247.994,326.952" style="fill:none;stroke:black;stroke-width:5px;stroke-linecap:butt;stroke-linejoin:miter;stroke-miterlimit:1;stroke-dasharray:5,5;"/>
                </g>
            </g>
            <g transform="matrix(0.525288,0,0,1.00098,1815.57,540.522)">
                <path d="M3219,237.688L3245.06,259.191" style="fill:none;stroke:black;stroke-width:3px;"/>
            </g>
            <g transform="matrix(0.525288,0,0,1.00098,1815.57,540.522)">
                <path d="M3219,110L3245.06,217.682" style="fill:none;stroke:black;stroke-width:3px;"/>
            </g>
            <g transform="matrix(0.525288,0,0,1.00098,1815.57,540.522)">
                <path d="M3219,366.701L3245.06,303.319" style="fill:none;stroke:black;stroke-width:3px;"/>
            </g>
            <g transform="matrix(0.525288,0,0,1.00098,1815.57,540.522)">
                <path d="M3219,453L3245.06,345.199" style="fill:none;stroke:black;stroke-width:3px;"/>
            </g>
            <g transform="matrix(0.525288,0,0,1.00098,2135.12,666.232)">
                <g transform="matrix(32,0,0,32,2790.57,126.659)">
                    <path d="M0.196,-0.32L0.42,-0.32L0.311,-0.669L0.196,-0.32ZM0.276,-0.765L0.357,-0.765L0.611,-0L0.519,-0L0.438,-0.261L0.179,-0.261L0.097,-0L0.015,-0L0.276,-0.765Z" style="fill-rule:nonzero;"/>
                </g>
            </g>
            <g transform="matrix(0.525288,0,0,1.00098,2135.12,709.031)">
                <g transform="matrix(32,0,0,32,2790.57,126.659)">
                    <path d="M0.156,-0.703L0.156,-0.432L0.256,-0.432C0.306,-0.432 0.348,-0.444 0.384,-0.467C0.42,-0.491 0.438,-0.523 0.438,-0.564C0.438,-0.612 0.423,-0.646 0.395,-0.669C0.367,-0.691 0.318,-0.703 0.247,-0.703L0.156,-0.703ZM0.156,-0.368L0.156,-0.063L0.288,-0.063C0.344,-0.063 0.388,-0.076 0.42,-0.1C0.453,-0.125 0.469,-0.159 0.469,-0.204C0.469,-0.253 0.453,-0.292 0.422,-0.323C0.39,-0.353 0.343,-0.368 0.282,-0.368L0.156,-0.368ZM0.292,-0.765C0.364,-0.765 0.419,-0.749 0.459,-0.716C0.5,-0.683 0.52,-0.636 0.52,-0.575C0.52,-0.526 0.504,-0.488 0.474,-0.46C0.443,-0.432 0.413,-0.415 0.384,-0.41C0.424,-0.403 0.462,-0.382 0.5,-0.348C0.537,-0.314 0.555,-0.262 0.555,-0.191C0.555,-0.136 0.532,-0.091 0.487,-0.054C0.441,-0.018 0.375,-0 0.29,-0L0.073,-0L0.073,-0.765L0.292,-0.765Z" style="fill-rule:nonzero;"/>
                </g>
            </g>
            <g transform="matrix(0.525288,0,0,1.00098,2135.12,750.467)">
                <g transform="matrix(32,0,0,32,2790.57,126.659)">
                    <path d="M0.627,-0.11C0.602,-0.076 0.57,-0.046 0.533,-0.023C0.497,0 0.444,0.012 0.377,0.012C0.281,0.012 0.205,-0.025 0.148,-0.1C0.092,-0.175 0.063,-0.271 0.063,-0.389C0.063,-0.499 0.091,-0.592 0.145,-0.669C0.199,-0.747 0.28,-0.785 0.386,-0.785C0.43,-0.785 0.469,-0.779 0.503,-0.767C0.537,-0.754 0.569,-0.732 0.6,-0.699L0.547,-0.644C0.525,-0.667 0.499,-0.685 0.472,-0.697C0.444,-0.709 0.414,-0.715 0.381,-0.715C0.309,-0.715 0.252,-0.684 0.212,-0.622C0.171,-0.56 0.151,-0.487 0.151,-0.402C0.151,-0.291 0.174,-0.206 0.219,-0.147C0.265,-0.088 0.317,-0.058 0.375,-0.058C0.431,-0.058 0.472,-0.067 0.498,-0.084C0.523,-0.102 0.546,-0.126 0.567,-0.155L0.627,-0.11Z" style="fill-rule:nonzero;"/>
                </g>
            </g>
            <g transform="matrix(0.525288,0,0,1.00098,1777.31,564.401)">
                <g transform="matrix(40,0,0,40,3240.17,165.349)">
                    <path d="M0.113,-0.437L0.042,-0.437L0.042,-0.476C0.055,-0.483 0.07,-0.49 0.085,-0.496C0.099,-0.501 0.114,-0.506 0.127,-0.509L0.134,-0.544C0.143,-0.585 0.155,-0.619 0.17,-0.647C0.185,-0.674 0.202,-0.695 0.222,-0.711C0.242,-0.726 0.265,-0.737 0.29,-0.743C0.315,-0.749 0.343,-0.752 0.372,-0.752C0.393,-0.752 0.415,-0.75 0.437,-0.747C0.459,-0.743 0.477,-0.737 0.49,-0.73C0.491,-0.721 0.491,-0.711 0.489,-0.7C0.486,-0.689 0.483,-0.678 0.478,-0.668C0.472,-0.658 0.467,-0.649 0.46,-0.641C0.453,-0.633 0.446,-0.627 0.438,-0.623L0.366,-0.699C0.357,-0.697 0.347,-0.694 0.339,-0.69C0.33,-0.685 0.321,-0.678 0.313,-0.668C0.305,-0.658 0.297,-0.644 0.29,-0.625C0.282,-0.606 0.275,-0.581 0.269,-0.55L0.26,-0.5L0.37,-0.5C0.371,-0.493 0.371,-0.483 0.37,-0.47C0.369,-0.456 0.364,-0.446 0.357,-0.437L0.247,-0.437L0.185,-0.043C0.178,0.004 0.165,0.044 0.144,0.075C0.123,0.106 0.1,0.131 0.076,0.151C0.05,0.169 0.025,0.184 0,0.193C-0.025,0.202 -0.046,0.209 -0.062,0.212L-0.073,0.178C-0.065,0.174 -0.055,0.168 -0.043,0.159C-0.031,0.15 -0.019,0.137 -0.007,0.121C0.005,0.105 0.016,0.085 0.027,0.062C0.037,0.038 0.045,0.009 0.05,-0.024L0.113,-0.437Z" style="fill-rule:nonzero;"/>
                </g>
            </g>
            <g transform="matrix(0.525288,0,0,1.00098,1777.31,689.092)">
                <g transform="matrix(40,0,0,40,3240.17,165.349)">
                    <path d="M0.113,-0.437L0.042,-0.437L0.042,-0.476C0.055,-0.483 0.07,-0.49 0.085,-0.496C0.099,-0.501 0.114,-0.506 0.127,-0.509L0.134,-0.544C0.143,-0.585 0.155,-0.619 0.17,-0.647C0.185,-0.674 0.202,-0.695 0.222,-0.711C0.242,-0.726 0.265,-0.737 0.29,-0.743C0.315,-0.749 0.343,-0.752 0.372,-0.752C0.393,-0.752 0.415,-0.75 0.437,-0.747C0.459,-0.743 0.477,-0.737 0.49,-0.73C0.491,-0.721 0.491,-0.711 0.489,-0.7C0.486,-0.689 0.483,-0.678 0.478,-0.668C0.472,-0.658 0.467,-0.649 0.46,-0.641C0.453,-0.633 0.446,-0.627 0.438,-0.623L0.366,-0.699C0.357,-0.697 0.347,-0.694 0.339,-0.69C0.33,-0.685 0.321,-0.678 0.313,-0.668C0.305,-0.658 0.297,-0.644 0.29,-0.625C0.282,-0.606 0.275,-0.581 0.269,-0.55L0.26,-0.5L0.37,-0.5C0.371,-0.493 0.371,-0.483 0.37,-0.47C0.369,-0.456 0.364,-0.446 0.357,-0.437L0.247,-0.437L0.185,-0.043C0.178,0.004 0.165,0.044 0.144,0.075C0.123,0.106 0.1,0.131 0.076,0.151C0.05,0.169 0.025,0.184 0,0.193C-0.025,0.202 -0.046,0.209 -0.062,0.212L-0.073,0.178C-0.065,0.174 -0.055,0.168 -0.043,0.159C-0.031,0.15 -0.019,0.137 -0.007,0.121C0.005,0.105 0.016,0.085 0.027,0.062C0.037,0.038 0.045,0.009 0.05,-0.024L0.113,-0.437Z" style="fill-rule:nonzero;"/>
                </g>
            </g>
            <g transform="matrix(0.525288,0,0,1.00098,1777.31,796.205)">
                <g transform="matrix(40,0,0,40,3240.17,165.349)">
                    <path d="M0.113,-0.437L0.042,-0.437L0.042,-0.476C0.055,-0.483 0.07,-0.49 0.085,-0.496C0.099,-0.501 0.114,-0.506 0.127,-0.509L0.134,-0.544C0.143,-0.585 0.155,-0.619 0.17,-0.647C0.185,-0.674 0.202,-0.695 0.222,-0.711C0.242,-0.726 0.265,-0.737 0.29,-0.743C0.315,-0.749 0.343,-0.752 0.372,-0.752C0.393,-0.752 0.415,-0.75 0.437,-0.747C0.459,-0.743 0.477,-0.737 0.49,-0.73C0.491,-0.721 0.491,-0.711 0.489,-0.7C0.486,-0.689 0.483,-0.678 0.478,-0.668C0.472,-0.658 0.467,-0.649 0.46,-0.641C0.453,-0.633 0.446,-0.627 0.438,-0.623L0.366,-0.699C0.357,-0.697 0.347,-0.694 0.339,-0.69C0.33,-0.685 0.321,-0.678 0.313,-0.668C0.305,-0.658 0.297,-0.644 0.29,-0.625C0.282,-0.606 0.275,-0.581 0.269,-0.55L0.26,-0.5L0.37,-0.5C0.371,-0.493 0.371,-0.483 0.37,-0.47C0.369,-0.456 0.364,-0.446 0.357,-0.437L0.247,-0.437L0.185,-0.043C0.178,0.004 0.165,0.044 0.144,0.075C0.123,0.106 0.1,0.131 0.076,0.151C0.05,0.169 0.025,0.184 0,0.193C-0.025,0.202 -0.046,0.209 -0.062,0.212L-0.073,0.178C-0.065,0.174 -0.055,0.168 -0.043,0.159C-0.031,0.15 -0.019,0.137 -0.007,0.121C0.005,0.105 0.016,0.085 0.027,0.062C0.037,0.038 0.045,0.009 0.05,-0.024L0.113,-0.437Z" style="fill-rule:nonzero;"/>
                </g>
            </g>
        </g>
    </g>
</svg>
