<?xml version="1.0" encoding="UTF-8" standalone="no"?>
<!DOCTYPE svg PUBLIC "-//W3C//DTD SVG 1.1//EN" "http://www.w3.org/Graphics/SVG/1.1/DTD/svg11.dtd">
<svg width="100%" height="100%" viewBox="0 0 206 208" version="1.1" xmlns="http://www.w3.org/2000/svg" xmlns:xlink="http://www.w3.org/1999/xlink" xml:space="preserve" xmlns:serif="http://www.serif.com/" style="fill-rule:evenodd;clip-rule:evenodd;stroke-linecap:round;stroke-miterlimit:10;">
    <g transform="matrix(1,0,0,1,-1650,-4743)">
        <rect id="Vector-analysis" serif:id="Vector analysis" x="0" y="3502" width="2985" height="2387" style="fill:none;"/>
        <g id="Vector-analysis1" serif:id="Vector analysis">
            <g id="Voronoy_colored">
            </g>
            <g id="Dots">
            </g>
            <g id="Outer-dots" serif:id="Outer dots">
            </g>
            <g id="dashed">
            </g>
            <g id="dots-2" serif:id="dots 2">
            </g>
            <g id="dots">
            </g>
            <g transform="matrix(0.970443,0,0,1.00943,1493.98,3409.51)">
                <rect x="165" y="1325" width="203" height="197" style="fill:none;stroke:black;stroke-width:4.04px;"/>
            </g>
            <g transform="matrix(1,0,0,1,854.098,0)">
                <path d="M800,4891.86L856.58,4920.56L867,4945.86L800,4945.86L800,4891.86Z" style="fill:rgb(235,253,253);stroke:black;stroke-width:4px;stroke-linecap:butt;stroke-linejoin:bevel;"/>
            </g>
            <g transform="matrix(1,0,0,1,854.098,0)">
                <path d="M867,4945.86L855.414,4921.11L910.167,4895.26L997,4918.86L997,4945.86L867,4945.86Z" style="fill:rgb(208,250,250);stroke:black;stroke-width:4px;stroke-linecap:butt;stroke-linejoin:bevel;"/>
            </g>
            <g transform="matrix(1,0,0,1,1489.1,3422)">
                <path d="M165,1325L283,1325L271,1359.71L213.69,1386.09L165,1381L165,1325Z" style="fill:rgb(22,191,191);stroke:black;stroke-width:4px;"/>
            </g>
            <g transform="matrix(1,0,0,1,1489.1,3422)">
                <path d="M165,1381L213.69,1386.09L275.167,1473.26L221.58,1498.56L165,1469.86L165,1381Z" style="fill:rgb(62,233,233);stroke:black;stroke-width:4px;"/>
            </g>
            <g transform="matrix(1,0,0,1,1489.1,3422)">
                <path d="M304,1394.43L271,1359.71L283,1325L362,1325L362,1388.43L304,1394.43Z" style="fill:rgb(14,126,126);stroke:black;stroke-width:4px;"/>
            </g>
            <g transform="matrix(1,0,0,1,854.098,0)">
                <path d="M910.167,4895.26L939,4816.43L906,4781.71L848.69,4808.09L910.167,4895.26Z" style="fill:rgb(20,174,174);stroke:black;stroke-width:4px;stroke-linecap:butt;stroke-linejoin:bevel;"/>
            </g>
            <g transform="matrix(1,0,0,1,854.098,0)">
                <path d="M800,4891.86L855.083,4920.4L867,4945.86" style="fill:none;stroke:black;stroke-width:4px;stroke-linecap:butt;stroke-linejoin:bevel;"/>
            </g>
            <g transform="matrix(1,0,0,1,854.098,0)">
                <path d="M867,4945.86L855.414,4921.11L910.167,4895.26L997,4918.86" style="fill:none;stroke:black;stroke-width:4px;stroke-linecap:butt;stroke-linejoin:bevel;"/>
            </g>
            <g transform="matrix(1,0,0,1,854.098,0)">
                <path d="M939,4816.43L997,4810.43L997,4918.86L910.167,4895.26L939,4816.43Z" style="fill:rgb(133,241,241);stroke:black;stroke-width:4px;stroke-linecap:butt;stroke-linejoin:bevel;"/>
            </g>
            <path d="M1654.1,4747L1760.1,4747L1736,4827L1654.1,4849L1654.1,4747Z" style="fill:none;stroke:rgb(255,0,0);stroke-width:5px;stroke-linecap:butt;stroke-linejoin:round;"/>
            <path d="M1736,4827L1851.1,4869L1851.1,4747L1760.1,4747" style="fill:none;stroke:rgb(255,0,0);stroke-width:5px;stroke-linecap:butt;stroke-linejoin:round;"/>
            <path d="M1769.07,4839.07L1732.1,4947" style="fill:none;stroke:rgb(255,0,0);stroke-width:5px;stroke-linecap:butt;stroke-linejoin:round;"/>
            <path d="M1654.1,4849L1654.1,4947L1851.1,4947L1851.1,4869" style="fill:none;stroke:rgb(255,0,0);stroke-width:5px;stroke-linecap:butt;stroke-linejoin:round;"/>
            <g transform="matrix(1.01109,0,0,1,-203.061,-84.7024)">
                <g transform="matrix(36,0,0,36,1870.02,4882.31)">
                    <path d="M0.209,-0.208C0.208,-0.213 0.208,-0.219 0.208,-0.224C0.207,-0.229 0.207,-0.234 0.207,-0.239C0.207,-0.268 0.212,-0.294 0.221,-0.315C0.23,-0.336 0.242,-0.355 0.257,-0.371C0.271,-0.386 0.286,-0.4 0.303,-0.412C0.32,-0.423 0.335,-0.435 0.35,-0.447C0.364,-0.458 0.376,-0.47 0.385,-0.483C0.394,-0.495 0.399,-0.51 0.399,-0.527C0.399,-0.55 0.389,-0.569 0.37,-0.583C0.351,-0.597 0.321,-0.604 0.28,-0.604C0.259,-0.604 0.24,-0.601 0.223,-0.595C0.206,-0.589 0.19,-0.582 0.175,-0.574C0.16,-0.565 0.147,-0.557 0.136,-0.548C0.125,-0.539 0.115,-0.531 0.106,-0.525L0.043,-0.609C0.059,-0.626 0.077,-0.642 0.098,-0.655C0.118,-0.668 0.139,-0.679 0.162,-0.688C0.185,-0.697 0.208,-0.703 0.232,-0.708C0.256,-0.712 0.28,-0.714 0.303,-0.714C0.376,-0.714 0.432,-0.699 0.473,-0.669C0.513,-0.638 0.533,-0.597 0.533,-0.546C0.533,-0.512 0.528,-0.484 0.518,-0.462C0.507,-0.439 0.494,-0.42 0.478,-0.405C0.462,-0.389 0.445,-0.375 0.427,-0.363C0.408,-0.351 0.391,-0.338 0.376,-0.325C0.36,-0.311 0.347,-0.295 0.336,-0.277C0.325,-0.259 0.32,-0.236 0.32,-0.208L0.209,-0.208ZM0.189,-0.066C0.189,-0.089 0.196,-0.108 0.211,-0.122C0.226,-0.135 0.245,-0.142 0.269,-0.142C0.294,-0.142 0.314,-0.135 0.329,-0.122C0.344,-0.108 0.351,-0.089 0.351,-0.066C0.351,-0.043 0.344,-0.024 0.329,-0.01C0.314,0.004 0.294,0.011 0.269,0.011C0.245,0.011 0.226,0.004 0.211,-0.01C0.196,-0.024 0.189,-0.043 0.189,-0.066Z" style="fill:rgb(255,0,0);fill-rule:nonzero;"/>
                </g>
            </g>
            <g transform="matrix(1.01109,0,0,1,-98.5987,-71.6524)">
                <g transform="matrix(36,0,0,36,1870.02,4882.31)">
                    <path d="M0.209,-0.208C0.208,-0.213 0.208,-0.219 0.208,-0.224C0.207,-0.229 0.207,-0.234 0.207,-0.239C0.207,-0.268 0.212,-0.294 0.221,-0.315C0.23,-0.336 0.242,-0.355 0.257,-0.371C0.271,-0.386 0.286,-0.4 0.303,-0.412C0.32,-0.423 0.335,-0.435 0.35,-0.447C0.364,-0.458 0.376,-0.47 0.385,-0.483C0.394,-0.495 0.399,-0.51 0.399,-0.527C0.399,-0.55 0.389,-0.569 0.37,-0.583C0.351,-0.597 0.321,-0.604 0.28,-0.604C0.259,-0.604 0.24,-0.601 0.223,-0.595C0.206,-0.589 0.19,-0.582 0.175,-0.574C0.16,-0.565 0.147,-0.557 0.136,-0.548C0.125,-0.539 0.115,-0.531 0.106,-0.525L0.043,-0.609C0.059,-0.626 0.077,-0.642 0.098,-0.655C0.118,-0.668 0.139,-0.679 0.162,-0.688C0.185,-0.697 0.208,-0.703 0.232,-0.708C0.256,-0.712 0.28,-0.714 0.303,-0.714C0.376,-0.714 0.432,-0.699 0.473,-0.669C0.513,-0.638 0.533,-0.597 0.533,-0.546C0.533,-0.512 0.528,-0.484 0.518,-0.462C0.507,-0.439 0.494,-0.42 0.478,-0.405C0.462,-0.389 0.445,-0.375 0.427,-0.363C0.408,-0.351 0.391,-0.338 0.376,-0.325C0.36,-0.311 0.347,-0.295 0.336,-0.277C0.325,-0.259 0.32,-0.236 0.32,-0.208L0.209,-0.208ZM0.189,-0.066C0.189,-0.089 0.196,-0.108 0.211,-0.122C0.226,-0.135 0.245,-0.142 0.269,-0.142C0.294,-0.142 0.314,-0.135 0.329,-0.122C0.344,-0.108 0.351,-0.089 0.351,-0.066C0.351,-0.043 0.344,-0.024 0.329,-0.01C0.314,0.004 0.294,0.011 0.269,0.011C0.245,0.011 0.226,0.004 0.211,-0.01C0.196,-0.024 0.189,-0.043 0.189,-0.066Z" style="fill:rgb(255,0,0);fill-rule:nonzero;"/>
                </g>
            </g>
            <g transform="matrix(1.01109,0,0,1,-98.5987,32.5373)">
                <g transform="matrix(36,0,0,36,1870.02,4882.31)">
                    <path d="M0.209,-0.208C0.208,-0.213 0.208,-0.219 0.208,-0.224C0.207,-0.229 0.207,-0.234 0.207,-0.239C0.207,-0.268 0.212,-0.294 0.221,-0.315C0.23,-0.336 0.242,-0.355 0.257,-0.371C0.271,-0.386 0.286,-0.4 0.303,-0.412C0.32,-0.423 0.335,-0.435 0.35,-0.447C0.364,-0.458 0.376,-0.47 0.385,-0.483C0.394,-0.495 0.399,-0.51 0.399,-0.527C0.399,-0.55 0.389,-0.569 0.37,-0.583C0.351,-0.597 0.321,-0.604 0.28,-0.604C0.259,-0.604 0.24,-0.601 0.223,-0.595C0.206,-0.589 0.19,-0.582 0.175,-0.574C0.16,-0.565 0.147,-0.557 0.136,-0.548C0.125,-0.539 0.115,-0.531 0.106,-0.525L0.043,-0.609C0.059,-0.626 0.077,-0.642 0.098,-0.655C0.118,-0.668 0.139,-0.679 0.162,-0.688C0.185,-0.697 0.208,-0.703 0.232,-0.708C0.256,-0.712 0.28,-0.714 0.303,-0.714C0.376,-0.714 0.432,-0.699 0.473,-0.669C0.513,-0.638 0.533,-0.597 0.533,-0.546C0.533,-0.512 0.528,-0.484 0.518,-0.462C0.507,-0.439 0.494,-0.42 0.478,-0.405C0.462,-0.389 0.445,-0.375 0.427,-0.363C0.408,-0.351 0.391,-0.338 0.376,-0.325C0.36,-0.311 0.347,-0.295 0.336,-0.277C0.325,-0.259 0.32,-0.236 0.32,-0.208L0.209,-0.208ZM0.189,-0.066C0.189,-0.089 0.196,-0.108 0.211,-0.122C0.226,-0.135 0.245,-0.142 0.269,-0.142C0.294,-0.142 0.314,-0.135 0.329,-0.122C0.344,-0.108 0.351,-0.089 0.351,-0.066C0.351,-0.043 0.344,-0.024 0.329,-0.01C0.314,0.004 0.294,0.011 0.269,0.011C0.245,0.011 0.226,0.004 0.211,-0.01C0.196,-0.024 0.189,-0.043 0.189,-0.066Z" style="fill:rgb(255,0,0);fill-rule:nonzero;"/>
                </g>
            </g>
            <g transform="matrix(1.01109,0,0,1,-194.143,17.4873)">
                <g transform="matrix(36,0,0,36,1870.02,4882.31)">
                    <path d="M0.209,-0.208C0.208,-0.213 0.208,-0.219 0.208,-0.224C0.207,-0.229 0.207,-0.234 0.207,-0.239C0.207,-0.268 0.212,-0.294 0.221,-0.315C0.23,-0.336 0.242,-0.355 0.257,-0.371C0.271,-0.386 0.286,-0.4 0.303,-0.412C0.32,-0.423 0.335,-0.435 0.35,-0.447C0.364,-0.458 0.376,-0.47 0.385,-0.483C0.394,-0.495 0.399,-0.51 0.399,-0.527C0.399,-0.55 0.389,-0.569 0.37,-0.583C0.351,-0.597 0.321,-0.604 0.28,-0.604C0.259,-0.604 0.24,-0.601 0.223,-0.595C0.206,-0.589 0.19,-0.582 0.175,-0.574C0.16,-0.565 0.147,-0.557 0.136,-0.548C0.125,-0.539 0.115,-0.531 0.106,-0.525L0.043,-0.609C0.059,-0.626 0.077,-0.642 0.098,-0.655C0.118,-0.668 0.139,-0.679 0.162,-0.688C0.185,-0.697 0.208,-0.703 0.232,-0.708C0.256,-0.712 0.28,-0.714 0.303,-0.714C0.376,-0.714 0.432,-0.699 0.473,-0.669C0.513,-0.638 0.533,-0.597 0.533,-0.546C0.533,-0.512 0.528,-0.484 0.518,-0.462C0.507,-0.439 0.494,-0.42 0.478,-0.405C0.462,-0.389 0.445,-0.375 0.427,-0.363C0.408,-0.351 0.391,-0.338 0.376,-0.325C0.36,-0.311 0.347,-0.295 0.336,-0.277C0.325,-0.259 0.32,-0.236 0.32,-0.208L0.209,-0.208ZM0.189,-0.066C0.189,-0.089 0.196,-0.108 0.211,-0.122C0.226,-0.135 0.245,-0.142 0.269,-0.142C0.294,-0.142 0.314,-0.135 0.329,-0.122C0.344,-0.108 0.351,-0.089 0.351,-0.066C0.351,-0.043 0.344,-0.024 0.329,-0.01C0.314,0.004 0.294,0.011 0.269,0.011C0.245,0.011 0.226,0.004 0.211,-0.01C0.196,-0.024 0.189,-0.043 0.189,-0.066Z" style="fill:rgb(255,0,0);fill-rule:nonzero;"/>
                </g>
            </g>
        </g>
    </g>
</svg>
