<?xml version="1.0" encoding="UTF-8" standalone="no"?>
<!DOCTYPE svg PUBLIC "-//W3C//DTD SVG 1.1//EN" "http://www.w3.org/Graphics/SVG/1.1/DTD/svg11.dtd">
<svg width="100%" height="100%" viewBox="0 0 216 223" version="1.1" xmlns="http://www.w3.org/2000/svg" xmlns:xlink="http://www.w3.org/1999/xlink" xml:space="preserve" xmlns:serif="http://www.serif.com/" style="fill-rule:evenodd;clip-rule:evenodd;stroke-miterlimit:10;">
    <g transform="matrix(1,0,0,1,-1984,-4376)">
        <rect id="Vector-analysis" serif:id="Vector analysis" x="0" y="3502" width="2985" height="2387" style="fill:none;"/>
        <g id="Vector-analysis1" serif:id="Vector analysis">
            <rect x="1992.9" y="4386.77" width="197" height="198.857" style="fill:none;stroke:black;stroke-width:13px;"/>
            <g transform="matrix(0.970443,0,0,1.00943,1832.78,3049.28)">
                <rect x="165" y="1325" width="203" height="197" style="fill:none;stroke:black;stroke-width:4.04px;stroke-linecap:round;"/>
            </g>
            <g transform="matrix(1,0,0,1,1192.9,-360.228)">
                <path d="M800,4891.86L856.58,4920.56L867,4945.86L800,4945.86L800,4891.86Z" style="fill:rgb(230,230,230);stroke:black;stroke-width:4px;stroke-linejoin:bevel;"/>
            </g>
            <g transform="matrix(1,0,0,1,1192.9,-360.228)">
                <path d="M867,4945.86L855.414,4921.11L910.167,4895.26L997,4918.86L997,4945.86L867,4945.86Z" style="fill:rgb(230,230,230);stroke:black;stroke-width:4px;stroke-linejoin:bevel;"/>
            </g>
            <g transform="matrix(1,0,0,1,1827.9,3061.77)">
                <path d="M165,1381L213.69,1386.09L275.167,1473.26L221.58,1498.56L165,1469.86L165,1381Z" style="fill:rgb(230,230,230);stroke:black;stroke-width:4px;stroke-linecap:round;"/>
            </g>
            <g transform="matrix(1,0,0,1,1827.9,3061.77)">
                <path d="M304,1394.43L271,1359.71L283,1325L362,1325L362,1388.43L304,1394.43Z" style="fill:rgb(230,230,230);stroke:black;stroke-width:4px;stroke-linecap:round;"/>
            </g>
            <g transform="matrix(1,0,0,1,1192.9,-360.228)">
                <path d="M910.167,4895.26L939,4816.43L906,4781.71L848.69,4808.09L910.167,4895.26Z" style="fill:rgb(230,230,230);stroke:black;stroke-width:4px;stroke-linejoin:bevel;"/>
            </g>
            <g transform="matrix(1,0,0,1,1192.9,-360.228)">
                <path d="M800,4891.86L855.083,4920.4L867,4945.86" style="fill:none;stroke:black;stroke-width:4px;stroke-linejoin:bevel;"/>
            </g>
            <g transform="matrix(1,0,0,1,1192.9,-360.228)">
                <path d="M867,4945.86L855.414,4921.11L910.167,4895.26L997,4918.86" style="fill:none;stroke:black;stroke-width:4px;stroke-linejoin:bevel;"/>
            </g>
            <g transform="matrix(1,0,0,1,1192.9,-360.228)">
                <path d="M939,4816.43L997,4810.43L997,4918.86L910.167,4895.26L939,4816.43Z" style="fill:rgb(45,231,231);stroke:rgb(0,148,234);stroke-width:4px;stroke-linejoin:bevel;"/>
            </g>
            <g transform="matrix(1,0,0,1,1827.9,3061.77)">
                <path d="M165,1325L283,1325L271,1359.71L213.69,1386.09L165,1381L165,1325Z" style="fill:rgb(45,231,231);stroke:rgb(0,148,234);stroke-width:4px;stroke-linecap:round;"/>
            </g>
            <g transform="matrix(1,0,0,1,-67,0)">
                <path d="M2059.9,4473L2122.47,4467.55L2157,4386.77L2059.9,4386.77L2059.9,4473Z" style="fill:rgb(255,206,243);fill-opacity:0.7;stroke:rgb(249,1,1);stroke-width:5px;"/>
            </g>
            <g id="Voronoy_colored">
            </g>
            <g id="Dots">
            </g>
            <g id="Outer-dots" serif:id="Outer dots">
            </g>
            <g id="dashed">
            </g>
            <g id="dots-2" serif:id="dots 2">
            </g>
            <g id="dots">
            </g>
            <g transform="matrix(1.52209,-3.43969e-32,-6.9935e-33,1.52209,980.361,3941.75)">
                <g transform="matrix(24.7733,0,0,24.7733,694.89,317.132)">
                    <path d="M0.405,-0.155L0.19,-0.155L0.137,-0L0,-0L0.252,-0.705L0.353,-0.705L0.605,-0L0.461,-0L0.405,-0.155ZM0.225,-0.265L0.375,-0.265L0.323,-0.421L0.302,-0.531L0.297,-0.531L0.276,-0.42L0.225,-0.265Z" style="fill:rgb(0,81,127);fill-rule:nonzero;"/>
                </g>
            </g>
            <g transform="matrix(1.52209,-3.43969e-32,-6.9935e-33,1.52209,943.933,3973.58)">
                <g transform="matrix(24.7733,0,0,24.7733,695.064,317.132)">
                    <path d="M0.531,-0.537C0.531,-0.52 0.529,-0.502 0.525,-0.485C0.52,-0.468 0.513,-0.452 0.503,-0.438C0.493,-0.423 0.48,-0.411 0.464,-0.4C0.448,-0.389 0.429,-0.38 0.406,-0.375L0.406,-0.369C0.426,-0.366 0.445,-0.36 0.463,-0.352C0.481,-0.344 0.497,-0.333 0.51,-0.319C0.523,-0.305 0.534,-0.288 0.542,-0.268C0.549,-0.248 0.553,-0.224 0.553,-0.197C0.553,-0.161 0.545,-0.13 0.53,-0.104C0.515,-0.077 0.494,-0.056 0.469,-0.039C0.443,-0.022 0.414,-0.01 0.381,-0.002C0.348,0.006 0.315,0.01 0.28,0.01L0.237,0.01C0.219,0.01 0.2,0.01 0.18,0.009C0.159,0.008 0.138,0.006 0.118,0.004C0.097,0.002 0.077,-0.001 0.06,-0.005L0.06,-0.695C0.073,-0.697 0.087,-0.699 0.104,-0.701C0.12,-0.703 0.137,-0.705 0.156,-0.706C0.175,-0.707 0.194,-0.708 0.214,-0.709C0.233,-0.71 0.253,-0.71 0.272,-0.71C0.305,-0.71 0.337,-0.708 0.368,-0.703C0.399,-0.698 0.426,-0.689 0.451,-0.676C0.475,-0.663 0.494,-0.646 0.509,-0.623C0.524,-0.6 0.531,-0.572 0.531,-0.537ZM0.281,-0.103C0.298,-0.103 0.314,-0.105 0.33,-0.109C0.345,-0.113 0.359,-0.119 0.371,-0.128C0.383,-0.136 0.393,-0.146 0.4,-0.159C0.407,-0.172 0.411,-0.187 0.411,-0.204C0.411,-0.226 0.407,-0.243 0.398,-0.256C0.389,-0.269 0.378,-0.279 0.364,-0.286C0.35,-0.293 0.334,-0.297 0.317,-0.299C0.3,-0.301 0.282,-0.302 0.265,-0.302L0.192,-0.302L0.192,-0.109C0.195,-0.108 0.201,-0.107 0.208,-0.106C0.215,-0.105 0.223,-0.105 0.232,-0.105C0.24,-0.104 0.249,-0.104 0.258,-0.104C0.267,-0.103 0.274,-0.103 0.281,-0.103ZM0.236,-0.406C0.245,-0.406 0.256,-0.406 0.269,-0.407C0.281,-0.408 0.291,-0.409 0.299,-0.41C0.324,-0.418 0.346,-0.43 0.365,-0.446C0.383,-0.462 0.392,-0.483 0.392,-0.509C0.392,-0.526 0.389,-0.541 0.382,-0.552C0.375,-0.563 0.367,-0.572 0.356,-0.579C0.345,-0.586 0.332,-0.59 0.318,-0.593C0.304,-0.596 0.289,-0.597 0.274,-0.597C0.257,-0.597 0.241,-0.597 0.226,-0.596C0.211,-0.595 0.2,-0.594 0.192,-0.593L0.192,-0.406L0.236,-0.406Z" style="fill:rgb(234,0,0);fill-rule:nonzero;"/>
                </g>
            </g>
            <path d="M2189.9,4412L2103,4460L2134,4526L2189.9,4542L2189.9,4412Z" style="fill:rgb(255,206,243);fill-opacity:0.71;stroke:rgb(249,1,1);stroke-width:5px;"/>
            <g transform="matrix(1.52209,-3.43969e-32,-6.9935e-33,1.52209,1095.43,4038.41)">
                <g transform="matrix(24.7733,0,0,24.7733,694.89,317.132)">
                    <path d="M0.405,-0.155L0.19,-0.155L0.137,-0L0,-0L0.252,-0.705L0.353,-0.705L0.605,-0L0.461,-0L0.405,-0.155ZM0.225,-0.265L0.375,-0.265L0.323,-0.421L0.302,-0.531L0.297,-0.531L0.276,-0.42L0.225,-0.265Z" style="fill:rgb(0,81,127);fill-rule:nonzero;"/>
                </g>
            </g>
            <g transform="matrix(1.52209,-3.43969e-32,-6.9935e-33,1.52209,1076.31,4000.89)">
                <g transform="matrix(24.7733,0,0,24.7733,695.064,317.132)">
                    <path d="M0.531,-0.537C0.531,-0.52 0.529,-0.502 0.525,-0.485C0.52,-0.468 0.513,-0.452 0.503,-0.438C0.493,-0.423 0.48,-0.411 0.464,-0.4C0.448,-0.389 0.429,-0.38 0.406,-0.375L0.406,-0.369C0.426,-0.366 0.445,-0.36 0.463,-0.352C0.481,-0.344 0.497,-0.333 0.51,-0.319C0.523,-0.305 0.534,-0.288 0.542,-0.268C0.549,-0.248 0.553,-0.224 0.553,-0.197C0.553,-0.161 0.545,-0.13 0.53,-0.104C0.515,-0.077 0.494,-0.056 0.469,-0.039C0.443,-0.022 0.414,-0.01 0.381,-0.002C0.348,0.006 0.315,0.01 0.28,0.01L0.237,0.01C0.219,0.01 0.2,0.01 0.18,0.009C0.159,0.008 0.138,0.006 0.118,0.004C0.097,0.002 0.077,-0.001 0.06,-0.005L0.06,-0.695C0.073,-0.697 0.087,-0.699 0.104,-0.701C0.12,-0.703 0.137,-0.705 0.156,-0.706C0.175,-0.707 0.194,-0.708 0.214,-0.709C0.233,-0.71 0.253,-0.71 0.272,-0.71C0.305,-0.71 0.337,-0.708 0.368,-0.703C0.399,-0.698 0.426,-0.689 0.451,-0.676C0.475,-0.663 0.494,-0.646 0.509,-0.623C0.524,-0.6 0.531,-0.572 0.531,-0.537ZM0.281,-0.103C0.298,-0.103 0.314,-0.105 0.33,-0.109C0.345,-0.113 0.359,-0.119 0.371,-0.128C0.383,-0.136 0.393,-0.146 0.4,-0.159C0.407,-0.172 0.411,-0.187 0.411,-0.204C0.411,-0.226 0.407,-0.243 0.398,-0.256C0.389,-0.269 0.378,-0.279 0.364,-0.286C0.35,-0.293 0.334,-0.297 0.317,-0.299C0.3,-0.301 0.282,-0.302 0.265,-0.302L0.192,-0.302L0.192,-0.109C0.195,-0.108 0.201,-0.107 0.208,-0.106C0.215,-0.105 0.223,-0.105 0.232,-0.105C0.24,-0.104 0.249,-0.104 0.258,-0.104C0.267,-0.103 0.274,-0.103 0.281,-0.103ZM0.236,-0.406C0.245,-0.406 0.256,-0.406 0.269,-0.407C0.281,-0.408 0.291,-0.409 0.299,-0.41C0.324,-0.418 0.346,-0.43 0.365,-0.446C0.383,-0.462 0.392,-0.483 0.392,-0.509C0.392,-0.526 0.389,-0.541 0.382,-0.552C0.375,-0.563 0.367,-0.572 0.356,-0.579C0.345,-0.586 0.332,-0.59 0.318,-0.593C0.304,-0.596 0.289,-0.597 0.274,-0.597C0.257,-0.597 0.241,-0.597 0.226,-0.596C0.211,-0.595 0.2,-0.594 0.192,-0.593L0.192,-0.406L0.236,-0.406Z" style="fill:rgb(234,0,0);fill-rule:nonzero;"/>
                </g>
            </g>
            <path d="M2055.47,4467.55L2103.07,4460.14" style="fill:none;stroke:rgb(234,0,0);stroke-width:3px;stroke-linejoin:bevel;"/>
            <path d="M2134,4526L2086,4586" style="fill:none;stroke:rgb(234,0,0);stroke-width:3px;stroke-linejoin:bevel;"/>
            <path d="M1992.9,4515L2055.47,4526L2096.74,4572.58" style="fill:none;stroke:rgb(234,0,0);stroke-width:3px;stroke-linejoin:bevel;"/>
            <path d="M2055.47,4526L2023,4585.63" style="fill:none;stroke:rgb(234,0,0);stroke-width:3px;stroke-linejoin:bevel;"/>
            <path d="M2055.47,4526L2075.24,4464.47" style="fill:none;stroke:rgb(234,0,0);stroke-width:3px;stroke-linejoin:bevel;"/>
            <rect x="1992.9" y="4386.77" width="197" height="198.857" style="fill:none;stroke:rgb(234,0,0);stroke-width:3px;"/>
        </g>
    </g>
</svg>
