<?xml version="1.0" encoding="UTF-8" standalone="no"?>
<!DOCTYPE svg PUBLIC "-//W3C//DTD SVG 1.1//EN" "http://www.w3.org/Graphics/SVG/1.1/DTD/svg11.dtd">
<svg width="100%" height="100%" viewBox="0 0 1711 661" version="1.1" xmlns="http://www.w3.org/2000/svg" xmlns:xlink="http://www.w3.org/1999/xlink" xml:space="preserve" xmlns:serif="http://www.serif.com/" style="fill-rule:evenodd;clip-rule:evenodd;stroke-linejoin:round;stroke-miterlimit:10;">
    <rect id="Artboard8" x="-181" y="-173" width="5544" height="2861" style="fill:none;"/>
    <g id="Artboard81" serif:id="Artboard8">
        <path d="M1254.27,46.228C1257.24,39.87 1261.35,33.912 1266.6,28.663C1290.8,4.467 1330.08,4.467 1354.28,28.663C1374.49,48.875 1377.82,79.616 1364.27,103.294L1364.55,103.465L1287.53,231.311L1343.35,287.129L1474.65,216.824C1498.4,201.478 1530.36,203.999 1551.4,224.384L1551.41,224.378L1676.81,349.776L1676.8,349.782C1677.04,350.011 1677.28,350.246 1677.51,350.483C1697.54,370.508 1700.99,400.87 1687.87,424.463L1688.04,424.552L1589.15,610.056C1586.14,617.097 1581.76,623.695 1576.01,629.442C1551.82,653.638 1512.53,653.638 1488.33,629.442C1468.34,609.451 1464.86,579.158 1477.9,555.589L1477.72,555.492L1557.5,405.831L1497.12,345.45L1362.05,417.773L1361.93,417.552C1338.35,430.632 1308.02,427.169 1288.02,407.161C1288.02,407.161 1165.2,284.35 1165.2,284.35C1142.76,261.904 1141.13,226.468 1160.34,202.145L1254.27,46.228Z" style="fill:rgb(248,253,112);stroke:black;stroke-width:8px;"/>
        <path d="M914.452,582.773L1015.15,393.714L889.978,268.542L714.137,363.32L592.034,241.217L692.72,72.504" style="fill:none;stroke:black;stroke-width:8px;"/>
        <path d="M342.741,583.138L443.44,394.08L318.975,269.615L142.427,363.686L20.324,241.582L121.01,72.869" style="fill:none;stroke:black;stroke-width:8px;"/>
        <path d="M635.168,196.669L547.486,284.35L670.297,407.161L757.978,319.479L635.168,196.669Z" style="fill:rgb(250,112,255);fill-opacity:0.5;stroke:black;stroke-width:4px;"/>
        <path d="M933.69,224.378L846.008,312.059L971.407,437.458L1059.09,349.776L933.69,224.378Z" style="fill:rgb(250,112,255);fill-opacity:0.5;stroke:black;stroke-width:4px;"/>
        <path d="M860.004,555.492L969.429,613.82L1070.32,424.552L960.892,366.224L860.004,555.492Z" style="fill:rgb(250,112,255);fill-opacity:0.5;stroke:black;stroke-width:4px;"/>
        <path d="M685.796,308.457L744.328,417.773L919.148,324.167L860.616,214.851L685.796,308.457Z" style="fill:rgb(250,112,255);fill-opacity:0.5;stroke:black;stroke-width:4px;"/>
        <path d="M538.286,209.333L644.499,273.324L746.833,103.465L640.62,39.475L538.286,209.333Z" style="fill:rgb(250,112,255);fill-opacity:0.5;stroke:black;stroke-width:4px;"/>
        <path d="M547.486,196.669C571.683,172.473 610.971,172.473 635.168,196.669C659.364,220.866 659.364,260.154 635.168,284.35C610.971,308.547 571.683,308.547 547.486,284.35C523.29,260.154 523.29,220.866 547.486,196.669Z" style="fill:rgb(45,231,231);fill-opacity:0.5;stroke:black;stroke-width:4px;"/>
        <path d="M648.88,28.663C673.076,4.467 712.365,4.467 736.561,28.663C760.757,52.86 760.757,92.148 736.561,116.345C712.365,140.541 673.076,140.541 648.88,116.345C624.684,92.148 624.684,52.86 648.88,28.663Z" style="fill:rgb(45,231,231);fill-opacity:0.5;stroke:black;stroke-width:4px;"/>
        <path d="M670.297,319.479C694.493,295.283 733.782,295.283 757.978,319.479C782.174,343.676 782.174,382.964 757.978,407.161C733.782,431.357 694.493,431.357 670.297,407.161C646.1,382.964 646.1,343.676 670.297,319.479Z" style="fill:rgb(45,231,231);fill-opacity:0.5;stroke:black;stroke-width:4px;"/>
        <path d="M846.008,224.378C870.205,200.181 909.493,200.181 933.69,224.378C957.886,248.574 957.886,287.863 933.69,312.059C909.493,336.255 870.205,336.255 846.008,312.059C821.812,287.863 821.812,248.574 846.008,224.378Z" style="fill:rgb(45,231,231);fill-opacity:0.5;stroke:black;stroke-width:4px;"/>
        <path d="M972.114,350.483C996.31,326.287 1035.6,326.287 1059.8,350.483C1083.99,374.68 1083.99,413.968 1059.8,438.165C1035.6,462.361 996.31,462.361 972.114,438.165C947.918,413.968 947.918,374.68 972.114,350.483Z" style="fill:rgb(45,231,231);fill-opacity:0.5;stroke:black;stroke-width:4px;"/>
        <path d="M870.611,541.76C894.807,517.564 934.096,517.564 958.292,541.76C982.489,565.957 982.489,605.245 958.292,629.442C934.096,653.638 894.807,653.638 870.611,629.442C846.415,605.245 846.415,565.957 870.611,541.76Z" style="fill:rgb(45,231,231);fill-opacity:0.5;stroke:black;stroke-width:4px;"/>
        <path d="M373.499,124.899L436.499,156.399L373.499,187.899L373.499,124.899Z" style="fill:rgb(179,179,179);"/>
        <path d="M302.375,156.399L386.099,156.399" style="fill:none;stroke:rgb(179,179,179);stroke-width:14px;"/>
        <path d="M1049.94,124.899L1112.94,156.399L1049.94,187.899L1049.94,124.899Z" style="fill:rgb(179,179,179);"/>
        <path d="M978.819,156.399L1062.54,156.399" style="fill:none;stroke:rgb(179,179,179);stroke-width:14px;"/>
    </g>
</svg>
