<?xml version="1.0" encoding="UTF-8" standalone="no"?>
<!DOCTYPE svg PUBLIC "-//W3C//DTD SVG 1.1//EN" "http://www.w3.org/Graphics/SVG/1.1/DTD/svg11.dtd">
<svg width="100%" height="100%" viewBox="0 0 1711 639" version="1.1" xmlns="http://www.w3.org/2000/svg" xmlns:xlink="http://www.w3.org/1999/xlink" xml:space="preserve" xmlns:serif="http://www.serif.com/" style="fill-rule:evenodd;clip-rule:evenodd;stroke-linejoin:round;stroke-miterlimit:10;">
    <rect id="Artboard8" x="-181" y="-1690" width="5544" height="2861" style="fill:none;"/>
    <g id="Artboard81" serif:id="Artboard8">
        <path d="M578.961,291.39L711.448,73.39L1005.96,195.39L900.442,561.39L578.961,291.39Z" style="fill:rgb(172,172,172);stroke:black;stroke-width:8px;"/>
        <path d="M655.365,50.052C658.345,43.606 662.489,37.571 667.798,32.262C685.761,14.299 712.043,9.672 734.288,18.379L734.391,18.123L1023.38,134.78C1032.88,137.629 1041.83,142.805 1049.33,150.306C1066,166.97 1071.18,190.792 1064.89,211.911L1065.01,211.945L963.366,569.2C961.238,581.304 955.502,592.896 946.16,602.238C923.334,625.065 887.074,626.357 862.73,606.116L862.149,606.812L540.509,338.56L540.694,338.338C539.578,337.37 538.489,336.357 537.429,335.297C516.124,313.992 513.578,280.987 529.791,256.886L655.365,50.052ZM661.855,278.299L868.238,450.425L930.651,231.07L737.794,153.219L661.855,278.299Z" style="fill:rgb(184,90,255);fill-opacity:0.5;stroke:black;stroke-width:4px;"/>
        <path d="M1290.7,278.299L1497.08,450.425L1559.49,231.07L1366.63,153.219L1290.7,278.299Z" style="fill:rgb(248,253,112);stroke:black;stroke-width:8px;"/>
        <path d="M493.499,47.116L556.499,78.616L493.499,110.116L493.499,47.116Z" style="fill:rgb(179,179,179);"/>
        <path d="M422.375,78.616L506.099,78.616" style="fill:none;stroke:rgb(179,179,179);stroke-width:14px;"/>
        <path d="M1139.94,47.116L1202.94,78.616L1139.94,110.116L1139.94,47.116Z" style="fill:rgb(179,179,179);"/>
        <path d="M1068.82,78.616L1152.54,78.616" style="fill:none;stroke:rgb(179,179,179);stroke-width:14px;"/>
        <path d="M28.44,291.39L160.926,73.39L455.44,195.39L349.92,561.39L28.44,291.39Z" style="fill:rgb(172,172,172);stroke:black;stroke-width:8px;"/>
        <path d="M803.22,302.37L782.58,302.37L777.492,317.25L764.34,317.25L788.532,249.57L798.228,249.57L822.42,317.25L808.596,317.25L803.22,302.37ZM785.94,291.81L800.34,291.81L795.348,276.834L793.332,266.274L792.852,266.274L790.836,276.93L785.94,291.81Z" style="fill-rule:nonzero;"/>
        <path d="M1407.2,570.121L1386.56,570.121L1381.47,585.001L1368.32,585.001L1392.51,517.321L1402.21,517.321L1426.4,585.001L1412.58,585.001L1407.2,570.121ZM1389.92,559.561L1404.32,559.561L1399.33,544.585L1397.31,534.025L1396.83,534.025L1394.82,544.681L1389.92,559.561Z" style="fill:rgb(118,122,2);fill-rule:nonzero;"/>
        <path d="M1468.45,594.121L1458.94,598.441L1424.1,520.873L1433.89,516.745L1468.45,594.121Z" style="fill:rgb(118,122,2);fill-rule:nonzero;"/>
        <path d="M1518.08,533.449C1518.08,535.113 1517.87,536.777 1517.46,538.441C1517.04,540.105 1516.35,541.625 1515.39,543.001C1514.43,544.377 1513.18,545.593 1511.65,546.649C1510.11,547.705 1508.26,548.489 1506.08,549.001L1506.08,549.577C1508,549.897 1509.82,550.441 1511.55,551.209C1513.28,551.977 1514.78,553.033 1516.06,554.377C1517.34,555.721 1518.35,557.353 1519.09,559.273C1519.82,561.193 1520.19,563.465 1520.19,566.089C1520.19,569.545 1519.46,572.537 1517.98,575.065C1516.51,577.593 1514.54,579.657 1512.08,581.257C1509.62,582.857 1506.82,584.041 1503.68,584.809C1500.54,585.577 1497.31,585.961 1493.98,585.961L1489.81,585.961C1488.11,585.961 1486.29,585.913 1484.34,585.817C1482.38,585.721 1480.4,585.577 1478.38,585.385C1476.37,585.193 1474.53,584.905 1472.86,584.521L1472.86,518.281C1474.08,518.089 1475.47,517.897 1477.04,517.705C1478.61,517.513 1480.29,517.353 1482.08,517.225C1483.87,517.097 1485.71,517.001 1487.6,516.937C1489.49,516.873 1491.36,516.841 1493.22,516.841C1496.35,516.841 1499.41,517.081 1502.38,517.561C1505.36,518.041 1508.02,518.889 1510.35,520.105C1512.69,521.321 1514.56,523.017 1515.97,525.193C1517.38,527.369 1518.08,530.121 1518.08,533.449ZM1494.08,575.113C1495.68,575.113 1497.23,574.921 1498.74,574.537C1500.24,574.153 1501.57,573.561 1502.72,572.761C1503.87,571.961 1504.8,570.953 1505.5,569.737C1506.21,568.521 1506.56,567.081 1506.56,565.417C1506.56,563.305 1506.14,561.641 1505.31,560.425C1504.48,559.209 1503.39,558.265 1502.05,557.593C1500.7,556.921 1499.2,556.489 1497.54,556.297C1495.87,556.105 1494.21,556.009 1492.54,556.009L1485.54,556.009L1485.54,574.537C1485.86,574.665 1486.37,574.761 1487.07,574.825C1487.78,574.889 1488.53,574.937 1489.33,574.969C1490.13,575.001 1490.96,575.033 1491.82,575.065C1492.69,575.097 1493.44,575.113 1494.08,575.113ZM1489.76,546.025C1490.66,546.025 1491.7,545.993 1492.88,545.929C1494.06,545.865 1495.04,545.769 1495.81,545.641C1498.24,544.873 1500.34,543.721 1502.1,542.185C1503.86,540.649 1504.74,538.633 1504.74,536.137C1504.74,534.473 1504.42,533.097 1503.78,532.009C1503.14,530.921 1502.29,530.057 1501.23,529.417C1500.18,528.777 1498.98,528.329 1497.63,528.073C1496.29,527.817 1494.88,527.689 1493.41,527.689C1491.74,527.689 1490.21,527.721 1488.8,527.785C1487.39,527.849 1486.3,527.945 1485.54,528.073L1485.54,546.025L1489.76,546.025Z" style="fill:rgb(118,122,2);fill-rule:nonzero;"/>
        <path d="M657.923,503.353C657.923,505.017 657.715,506.681 657.299,508.345C656.883,510.009 656.195,511.529 655.235,512.905C654.275,514.281 653.027,515.497 651.491,516.553C649.955,517.609 648.099,518.393 645.923,518.905L645.923,519.481C647.843,519.801 649.667,520.345 651.395,521.113C653.123,521.881 654.627,522.937 655.907,524.281C657.187,525.625 658.195,527.257 658.931,529.177C659.667,531.097 660.035,533.369 660.035,535.993C660.035,539.449 659.299,542.441 657.827,544.969C656.355,547.497 654.387,549.561 651.923,551.161C649.459,552.761 646.659,553.945 643.523,554.713C640.387,555.481 637.155,555.865 633.827,555.865L629.651,555.865C627.955,555.865 626.131,555.817 624.179,555.721C622.227,555.625 620.243,555.481 618.227,555.289C616.211,555.097 614.371,554.809 612.707,554.425L612.707,488.185C613.923,487.993 615.315,487.801 616.883,487.609C618.451,487.417 620.131,487.257 621.923,487.129C623.715,487.001 625.555,486.905 627.443,486.841C629.331,486.777 631.203,486.745 633.059,486.745C636.195,486.745 639.251,486.985 642.227,487.465C645.203,487.945 647.859,488.793 650.195,490.009C652.531,491.225 654.403,492.921 655.811,495.097C657.219,497.273 657.923,500.025 657.923,503.353ZM633.923,545.017C635.523,545.017 637.075,544.825 638.579,544.441C640.083,544.057 641.411,543.465 642.563,542.665C643.715,541.865 644.643,540.857 645.347,539.641C646.051,538.425 646.403,536.985 646.403,535.321C646.403,533.209 645.987,531.545 645.155,530.329C644.323,529.113 643.235,528.169 641.891,527.497C640.547,526.825 639.043,526.393 637.379,526.201C635.715,526.009 634.051,525.913 632.387,525.913L625.379,525.913L625.379,544.441C625.699,544.569 626.211,544.665 626.915,544.729C627.619,544.793 628.371,544.841 629.171,544.873C629.971,544.905 630.803,544.937 631.667,544.969C632.531,545.001 633.283,545.017 633.923,545.017ZM629.603,515.929C630.499,515.929 631.539,515.897 632.723,515.833C633.907,515.769 634.883,515.673 635.651,515.545C638.083,514.777 640.179,513.625 641.939,512.089C643.699,510.553 644.579,508.537 644.579,506.041C644.579,504.377 644.259,503.001 643.619,501.913C642.979,500.825 642.131,499.961 641.075,499.321C640.019,498.681 638.819,498.233 637.475,497.977C636.131,497.721 634.723,497.593 633.251,497.593C631.587,497.593 630.051,497.625 628.643,497.689C627.235,497.753 626.147,497.849 625.379,497.977L625.379,515.929L629.603,515.929Z" style="fill:rgb(184,90,255);fill-rule:nonzero;"/>
    </g>
</svg>
