<?xml version="1.0" encoding="UTF-8" standalone="no"?>
<!DOCTYPE svg PUBLIC "-//W3C//DTD SVG 1.1//EN" "http://www.w3.org/Graphics/SVG/1.1/DTD/svg11.dtd">
<svg width="100%" height="100%" viewBox="0 0 470 403" version="1.1" xmlns="http://www.w3.org/2000/svg" xmlns:xlink="http://www.w3.org/1999/xlink" xml:space="preserve" xmlns:serif="http://www.serif.com/" style="fill-rule:evenodd;clip-rule:evenodd;stroke-miterlimit:1;">
    <g transform="matrix(1,0,0,1,-130,-4461)">
        <rect id="Vector-analysis" serif:id="Vector analysis" x="0" y="3502" width="2985" height="2387" style="fill:none;"/>
        <g id="Vector-analysis1" serif:id="Vector analysis">
            <g transform="matrix(1.40054,0,0,1.40054,-3885.43,2366.24)">
                <path d="M3137,1708.81L3111,1717.35L3081.2,1731C3081.2,1731 3050.93,1738.81 3050.03,1738.53C3049.12,1738.25 3029.65,1738.53 3029.65,1738.53L3008.5,1734L2975.31,1728L2952,1728L2925,1734L2898.7,1746L2872,1767L2872,1697.81L2880,1628L2925,1662L2998.75,1684L3039,1688L3081.2,1691L3137,1692L3137,1708.81Z" style="fill:rgb(194,194,194);stroke:black;stroke-width:2.14px;"/>
            </g>
            <g id="Voronoy_colored">
            </g>
            <g id="Dots">
            </g>
            <g id="Outer-dots" serif:id="Outer dots">
            </g>
            <g id="dashed">
            </g>
            <g id="dots-2" serif:id="dots 2">
            </g>
            <g id="dots">
            </g>
            <g transform="matrix(1.14198,0,0,1.14198,-2268.43,2814.49)">
                <path d="M2163,1522L2249,1454L2345.5,1512L2304,1595L2213,1615L2163,1522Z" style="fill:rgb(194,194,194);stroke:black;stroke-width:2.63px;"/>
            </g>
            <g transform="matrix(0.666045,0,0,0.666045,-241.636,4270.46)">
                <circle cx="817.043" cy="446.457" r="20.095" style="fill:rgb(251,133,255);stroke:black;stroke-width:7.51px;stroke-linecap:round;stroke-linejoin:round;stroke-miterlimit:1.5;"/>
            </g>
            <g transform="matrix(1.15955,0,0,1.14198,-2539.05,2819.41)">
                <g transform="matrix(0.862403,-0,-0,0.875671,2301.79,1437.49)">
                    <path d="M154.745,67.545L160.099,92.124L137.223,81.66L154.745,67.545Z"/>
                    <path d="M126.981,51.013C126.981,51.013 139.211,66.195 148.807,78.107" style="fill:none;stroke:black;stroke-width:5px;stroke-dasharray:5,5;"/>
                </g>
            </g>
            <g transform="matrix(1.15955,0,0,1.14198,-2539.05,2819.41)">
                <g transform="matrix(0.862403,-0,-0,0.875671,2301.79,1437.49)">
                    <path d="M129.279,116.479L154.389,114.964L140.535,135.961L129.279,116.479Z"/>
                    <path d="M103,144.656C103,144.656 123.681,132.707 138.803,123.969" style="fill:none;stroke:black;stroke-width:5px;stroke-dasharray:5,5;"/>
                </g>
            </g>
            <g transform="matrix(1.42209,0,0,1.40054,-3277.98,2441.83)">
                <g transform="matrix(0.70319,-0,-0,0.714008,2396.46,1441.7)">
                    <path d="M45.629,255.209L32.316,276.553L23.229,253.095L45.629,255.209Z"/>
                    <path d="M39.319,202.324C39.319,202.324 36.079,236.666 34.007,258.632" style="fill:none;stroke:black;stroke-width:5px;stroke-dasharray:5,5;"/>
                </g>
            </g>
            <g transform="matrix(1.42209,0,0,1.40054,-3093.86,2463.78)">
                <g transform="matrix(0.70319,-0,-0,0.714008,2266.99,1426.03)">
                    <path d="M229.674,277.117L216.433,298.506L207.266,275.08L229.674,277.117Z"/>
                    <path d="M219.234,267.694C219.234,267.694 218.679,273.803 218.063,280.58" style="fill:none;stroke:black;stroke-width:5px;stroke-dasharray:5,5;"/>
                </g>
            </g>
            <g transform="matrix(1.15955,0,0,1.14198,-2539.05,2819.41)">
                <g transform="matrix(0.862403,-0,-0,0.875671,2301.79,1437.49)">
                    <path d="M171.66,149.486L178.371,125.242L193.74,145.157L171.66,149.486Z"/>
                    <path d="M189.79,183.483C189.79,183.483 185.195,160.045 181.834,142.905" style="fill:none;stroke:black;stroke-width:5px;stroke-dasharray:5,5;"/>
                </g>
            </g>
            <g transform="matrix(1.42209,0,0,1.40054,-3328.62,2569.5)">
                <g transform="matrix(0.70319,-0,-0,0.714008,2432.07,1350.55)">
                    <path d="M27.789,306.873L33.498,282.373L49.672,301.64L27.789,306.873Z"/>
                    <path d="M48.904,346.798C48.904,346.798 42.246,318.958 37.684,299.88" style="fill:none;stroke:black;stroke-width:5px;stroke-dasharray:5,5;"/>
                </g>
            </g>
            <g transform="matrix(1.42209,0,0,1.40054,-3160.55,2614.32)">
                <g transform="matrix(0.70319,-0,-0,0.714008,2313.88,1318.55)">
                    <path d="M200.773,322.325L215.569,301.981L222.967,326.024L200.773,322.325Z"/>
                    <path d="M209.966,335.594C209.966,335.594 211.263,327.812 212.609,319.736" style="fill:none;stroke:black;stroke-width:5px;stroke-dasharray:5,5;"/>
                </g>
            </g>
            <g transform="matrix(1.15955,0,0,1.14198,-2539.05,2819.41)">
                <g transform="matrix(0.862403,-0,-0,0.875671,2301.79,1437.49)">
                    <path d="M205.922,80.786L184.08,93.266L187.201,68.305L205.922,80.786Z"/>
                    <path d="M216.056,45.303C216.056,45.303 203.447,64.216 194.065,78.289" style="fill:none;stroke:black;stroke-width:5px;stroke-dasharray:5,5;"/>
                </g>
            </g>
            <g transform="matrix(1.15955,0,0,1.14198,-2539.05,2819.41)">
                <g transform="matrix(0.862403,-0,-0,0.875671,2301.79,1437.49)">
                    <path d="M205.784,138.34L192.074,117.248L217.173,118.935L205.784,138.34Z"/>
                    <path d="M244.605,148.081C244.605,148.081 223.09,135.453 207.598,126.36" style="fill:none;stroke:black;stroke-width:5px;stroke-dasharray:5,5;"/>
                </g>
            </g>
            <g transform="matrix(1.40054,0,0,1.40054,-3885.43,2366.24)">
                <path d="M2872,1767L2872,1697.81L2880,1628L2925,1662L2998.75,1684L3039,1688L3081.2,1691L3137,1692L3137,1708.81" style="fill:none;stroke:black;stroke-width:2.14px;"/>
            </g>
            <g transform="matrix(1.40054,0,0,1.40054,-3885.43,2366.24)">
                <path d="M2872,1697.81L2903,1695L2933,1694L2959,1698L2980,1702L3005,1707L3026,1710L3044,1711L3064,1710L3086,1708L3106,1704L3126,1701L3137,1700" style="fill:none;stroke:black;stroke-width:10px;"/>
            </g>
            <g transform="matrix(1,0,0,1,-518.753,2337.03)">
                <g transform="matrix(32,0,0,32,868.559,2150.67)">
                    <path d="M0.093,-0L0.093,-0.723L0.196,-0.723L0.196,-0.077L0.54,-0.077L0.54,-0.723L0.642,-0.723L0.642,-0.077L0.738,-0.077L0.738,0.145L0.642,0.145L0.642,-0L0.093,-0Z" style="fill-rule:nonzero;"/>
                </g>
                <g transform="matrix(32,0,0,32,893.153,2150.67)">
                    <path d="M0.485,-0.017C0.42,0.002 0.365,0.012 0.319,0.012C0.241,0.012 0.177,-0.014 0.128,-0.066C0.079,-0.118 0.054,-0.185 0.054,-0.268C0.054,-0.348 0.076,-0.414 0.119,-0.465C0.163,-0.517 0.218,-0.542 0.286,-0.542C0.35,-0.542 0.4,-0.52 0.435,-0.474C0.47,-0.429 0.487,-0.364 0.487,-0.28L0.487,-0.25L0.152,-0.25C0.166,-0.124 0.228,-0.061 0.337,-0.061C0.377,-0.061 0.427,-0.072 0.485,-0.093L0.485,-0.017ZM0.157,-0.322L0.391,-0.322C0.391,-0.421 0.354,-0.47 0.28,-0.47C0.206,-0.47 0.165,-0.421 0.157,-0.322Z" style="fill-rule:nonzero;"/>
                </g>
                <g transform="matrix(32,0,0,32,910.981,2150.67)">
                    <path d="M0.096,-0L0.096,-0.53L0.192,-0.53L0.192,-0.315L0.434,-0.315L0.434,-0.53L0.53,-0.53L0.53,-0L0.434,-0L0.434,-0.243L0.192,-0.243L0.192,-0L0.096,-0Z" style="fill-rule:nonzero;"/>
                </g>
                <g transform="matrix(32,0,0,32,931.028,2150.67)">
                    <path d="M0.199,-0L0.199,-0.453L0.012,-0.453L0.012,-0.53L0.482,-0.53L0.482,-0.453L0.295,-0.453L0.295,-0L0.199,-0Z" style="fill-rule:nonzero;"/>
                </g>
                <g transform="matrix(32,0,0,32,946.841,2150.67)">
                    <path d="M0.096,0.193L0.096,-0.53L0.192,-0.53L0.192,-0.431C0.232,-0.505 0.291,-0.542 0.37,-0.542C0.433,-0.542 0.484,-0.519 0.52,-0.472C0.557,-0.426 0.575,-0.362 0.575,-0.281C0.575,-0.193 0.554,-0.122 0.513,-0.069C0.471,-0.015 0.417,0.012 0.349,0.012C0.286,0.012 0.234,-0.012 0.192,-0.06L0.192,0.193L0.096,0.193ZM0.192,-0.126C0.242,-0.082 0.289,-0.06 0.334,-0.06C0.426,-0.06 0.473,-0.131 0.473,-0.271C0.473,-0.396 0.432,-0.458 0.35,-0.458C0.296,-0.458 0.243,-0.429 0.192,-0.371L0.192,-0.126Z" style="fill-rule:nonzero;"/>
                </g>
                <g transform="matrix(32,0,0,32,966.981,2150.67)">
                    <path d="M0.304,0.012C0.228,0.012 0.167,-0.013 0.122,-0.063C0.077,-0.114 0.054,-0.181 0.054,-0.265C0.054,-0.35 0.077,-0.418 0.122,-0.468C0.168,-0.517 0.229,-0.542 0.307,-0.542C0.385,-0.542 0.447,-0.517 0.492,-0.468C0.537,-0.418 0.56,-0.351 0.56,-0.266C0.56,-0.18 0.537,-0.111 0.492,-0.062C0.446,-0.013 0.383,0.012 0.304,0.012ZM0.305,-0.06C0.407,-0.06 0.458,-0.129 0.458,-0.266C0.458,-0.402 0.408,-0.47 0.307,-0.47C0.207,-0.47 0.157,-0.402 0.157,-0.265C0.157,-0.128 0.206,-0.06 0.305,-0.06Z" style="fill-rule:nonzero;"/>
                </g>
                <g transform="matrix(32,0,0,32,986.637,2150.67)">
                    <path d="M0.096,-0L0.096,-0.53L0.187,-0.53L0.187,-0.129L0.434,-0.53L0.53,-0.53L0.53,-0L0.439,-0L0.439,-0.401L0.193,-0L0.096,-0Z" style="fill-rule:nonzero;"/>
                </g>
                <g transform="matrix(32,0,0,32,1006.68,2150.67)">
                    <path d="M0.036,0.121L0.036,-0.077L0.084,-0.077C0.121,-0.13 0.148,-0.191 0.166,-0.26C0.184,-0.329 0.193,-0.405 0.193,-0.488L0.193,-0.53L0.533,-0.53L0.533,-0.077L0.629,-0.077L0.629,0.121L0.533,0.121L0.533,-0L0.132,-0L0.132,0.121L0.036,0.121ZM0.183,-0.077L0.437,-0.077L0.437,-0.458L0.277,-0.458L0.277,-0.449C0.277,-0.382 0.269,-0.318 0.253,-0.256C0.238,-0.194 0.214,-0.134 0.183,-0.077Z" style="fill-rule:nonzero;"/>
                </g>
            </g>
            <g transform="matrix(1,0,0,1,-638.357,2699.1)">
                <g transform="matrix(32,0,0,32,868.559,2150.67)">
                    <path d="M0.403,0.018C0.291,0.018 0.204,-0.015 0.143,-0.081C0.081,-0.147 0.051,-0.24 0.051,-0.361C0.051,-0.481 0.082,-0.575 0.144,-0.641C0.207,-0.708 0.294,-0.741 0.408,-0.741C0.472,-0.741 0.548,-0.73 0.635,-0.709L0.635,-0.613C0.536,-0.647 0.46,-0.664 0.406,-0.664C0.328,-0.664 0.267,-0.638 0.224,-0.584C0.181,-0.531 0.16,-0.457 0.16,-0.36C0.16,-0.268 0.183,-0.195 0.229,-0.142C0.274,-0.089 0.337,-0.062 0.417,-0.062C0.485,-0.062 0.558,-0.083 0.636,-0.125L0.636,-0.037C0.565,-0 0.487,0.018 0.403,0.018Z" style="fill-rule:nonzero;"/>
                </g>
                <g transform="matrix(32,0,0,32,890.7,2150.67)">
                    <path d="M0.096,0.193L0.096,-0.53L0.192,-0.53L0.192,-0.431C0.232,-0.505 0.291,-0.542 0.37,-0.542C0.433,-0.542 0.484,-0.519 0.52,-0.472C0.557,-0.426 0.575,-0.362 0.575,-0.281C0.575,-0.193 0.554,-0.122 0.513,-0.069C0.471,-0.015 0.417,0.012 0.349,0.012C0.286,0.012 0.234,-0.012 0.192,-0.06L0.192,0.193L0.096,0.193ZM0.192,-0.126C0.242,-0.082 0.289,-0.06 0.334,-0.06C0.426,-0.06 0.473,-0.131 0.473,-0.271C0.473,-0.396 0.432,-0.458 0.35,-0.458C0.296,-0.458 0.243,-0.429 0.192,-0.371L0.192,-0.126Z" style="fill-rule:nonzero;"/>
                </g>
                <g transform="matrix(32,0,0,32,910.841,2150.67)">
                    <path d="M0.485,-0.017C0.42,0.002 0.365,0.012 0.319,0.012C0.241,0.012 0.177,-0.014 0.128,-0.066C0.079,-0.118 0.054,-0.185 0.054,-0.268C0.054,-0.348 0.076,-0.414 0.119,-0.465C0.163,-0.517 0.218,-0.542 0.286,-0.542C0.35,-0.542 0.4,-0.52 0.435,-0.474C0.47,-0.429 0.487,-0.364 0.487,-0.28L0.487,-0.25L0.152,-0.25C0.166,-0.124 0.228,-0.061 0.337,-0.061C0.377,-0.061 0.427,-0.072 0.485,-0.093L0.485,-0.017ZM0.157,-0.322L0.391,-0.322C0.391,-0.421 0.354,-0.47 0.28,-0.47C0.206,-0.47 0.165,-0.421 0.157,-0.322Z" style="fill-rule:nonzero;"/>
                </g>
                <g transform="matrix(32,0,0,32,928.669,2150.67)">
                    <path d="M0.036,0.121L0.036,-0.077L0.084,-0.077C0.121,-0.13 0.148,-0.191 0.166,-0.26C0.184,-0.329 0.193,-0.405 0.193,-0.488L0.193,-0.53L0.533,-0.53L0.533,-0.077L0.629,-0.077L0.629,0.121L0.533,0.121L0.533,-0L0.132,-0L0.132,0.121L0.036,0.121ZM0.183,-0.077L0.437,-0.077L0.437,-0.458L0.277,-0.458L0.277,-0.449C0.277,-0.382 0.269,-0.318 0.253,-0.256C0.238,-0.194 0.214,-0.134 0.183,-0.077Z" style="fill-rule:nonzero;"/>
                </g>
                <g transform="matrix(32,0,0,32,950.169,2150.67)">
                    <path d="M0.096,-0L0.096,-0.53L0.187,-0.53L0.187,-0.129L0.434,-0.53L0.53,-0.53L0.53,-0L0.439,-0L0.439,-0.401L0.193,-0L0.096,-0Z" style="fill-rule:nonzero;"/>
                </g>
                <g transform="matrix(32,0,0,32,970.216,2150.67)">
                    <path d="M0.096,-0L0.096,-0.53L0.192,-0.53L0.192,-0.315L0.434,-0.315L0.434,-0.53L0.53,-0.53L0.53,-0L0.434,-0L0.434,-0.243L0.192,-0.243L0.192,-0L0.096,-0Z" style="fill-rule:nonzero;"/>
                </g>
                <g transform="matrix(32,0,0,32,990.262,2150.67)">
                    <path d="M0.096,-0L0.096,-0.53L0.192,-0.53L0.192,-0.315L0.434,-0.315L0.434,-0.53L0.53,-0.53L0.53,-0L0.434,-0L0.434,-0.243L0.192,-0.243L0.192,-0L0.096,-0Z" style="fill-rule:nonzero;"/>
                </g>
                <g transform="matrix(32,0,0,32,1010.31,2150.67)">
                    <path d="M0.37,-0.067C0.312,-0.014 0.257,0.012 0.203,0.012C0.159,0.012 0.123,-0.002 0.094,-0.029C0.065,-0.057 0.05,-0.091 0.05,-0.133C0.05,-0.191 0.075,-0.236 0.123,-0.267C0.172,-0.298 0.242,-0.313 0.333,-0.313L0.355,-0.313L0.355,-0.377C0.355,-0.439 0.324,-0.47 0.261,-0.47C0.21,-0.47 0.155,-0.454 0.096,-0.423L0.096,-0.502C0.161,-0.529 0.222,-0.542 0.278,-0.542C0.338,-0.542 0.381,-0.529 0.409,-0.502C0.438,-0.475 0.452,-0.434 0.452,-0.377L0.452,-0.137C0.452,-0.082 0.469,-0.055 0.502,-0.055C0.507,-0.055 0.513,-0.055 0.521,-0.057L0.528,-0.003C0.506,0.007 0.482,0.012 0.456,0.012C0.411,0.012 0.382,-0.014 0.37,-0.067ZM0.355,-0.12L0.355,-0.257L0.323,-0.258C0.271,-0.258 0.228,-0.248 0.195,-0.228C0.163,-0.208 0.146,-0.181 0.146,-0.149C0.146,-0.126 0.155,-0.106 0.171,-0.09C0.187,-0.074 0.207,-0.066 0.23,-0.066C0.271,-0.066 0.312,-0.084 0.355,-0.12Z" style="fill-rule:nonzero;"/>
                </g>
                <g transform="matrix(32,0,0,32,1027.98,2150.67)">
                    <path d="M0.33,-0.214L0.275,-0.214C0.252,-0.191 0.228,-0.159 0.204,-0.116L0.173,-0.063C0.16,-0.039 0.148,-0.018 0.138,-0L0.03,-0C0.053,-0.035 0.074,-0.069 0.092,-0.104L0.104,-0.127C0.135,-0.186 0.165,-0.223 0.194,-0.24C0.161,-0.252 0.135,-0.271 0.115,-0.297C0.095,-0.323 0.085,-0.352 0.085,-0.384C0.085,-0.442 0.113,-0.484 0.167,-0.51C0.195,-0.523 0.246,-0.53 0.32,-0.53L0.426,-0.53L0.426,-0L0.33,-0L0.33,-0.214ZM0.33,-0.458L0.303,-0.458C0.264,-0.458 0.236,-0.451 0.217,-0.437C0.198,-0.423 0.188,-0.402 0.188,-0.374C0.188,-0.345 0.198,-0.323 0.218,-0.308C0.238,-0.293 0.268,-0.286 0.308,-0.286L0.33,-0.286L0.33,-0.458Z" style="fill-rule:nonzero;"/>
                </g>
                <g transform="matrix(32,0,0,32,1060.79,2150.67)">
                    <path d="M0.304,0.012C0.228,0.012 0.167,-0.013 0.122,-0.063C0.077,-0.114 0.054,-0.181 0.054,-0.265C0.054,-0.35 0.077,-0.418 0.122,-0.468C0.168,-0.517 0.229,-0.542 0.307,-0.542C0.385,-0.542 0.447,-0.517 0.492,-0.468C0.537,-0.418 0.56,-0.351 0.56,-0.266C0.56,-0.18 0.537,-0.111 0.492,-0.062C0.446,-0.013 0.383,0.012 0.304,0.012ZM0.305,-0.06C0.407,-0.06 0.458,-0.129 0.458,-0.266C0.458,-0.402 0.408,-0.47 0.307,-0.47C0.207,-0.47 0.157,-0.402 0.157,-0.265C0.157,-0.128 0.206,-0.06 0.305,-0.06Z" style="fill-rule:nonzero;"/>
                </g>
                <g transform="matrix(32,0,0,32,1080.45,2150.67)">
                    <path d="M0.303,0.012C0.232,0.012 0.172,-0.014 0.125,-0.067C0.078,-0.12 0.054,-0.187 0.054,-0.268C0.054,-0.354 0.078,-0.422 0.124,-0.47C0.171,-0.518 0.236,-0.542 0.32,-0.542C0.361,-0.542 0.407,-0.536 0.458,-0.525L0.458,-0.444C0.404,-0.46 0.36,-0.468 0.326,-0.468C0.277,-0.468 0.237,-0.45 0.207,-0.413C0.177,-0.376 0.163,-0.327 0.163,-0.265C0.163,-0.206 0.178,-0.157 0.208,-0.121C0.239,-0.084 0.279,-0.065 0.329,-0.065C0.373,-0.065 0.418,-0.077 0.464,-0.099L0.464,-0.016C0.402,0.003 0.348,0.012 0.303,0.012Z" style="fill-rule:nonzero;"/>
                </g>
                <g transform="matrix(32,0,0,32,1096.84,2150.67)">
                    <path d="M0.096,-0L0.096,-0.53L0.192,-0.53L0.192,-0.316L0.239,-0.316C0.312,-0.316 0.366,-0.304 0.403,-0.278C0.44,-0.252 0.458,-0.214 0.458,-0.162C0.458,-0.108 0.439,-0.068 0.4,-0.041C0.361,-0.014 0.302,-0 0.225,-0L0.096,-0ZM0.192,-0.072L0.231,-0.072C0.272,-0.072 0.303,-0.08 0.324,-0.094C0.345,-0.109 0.355,-0.131 0.355,-0.161C0.355,-0.188 0.345,-0.209 0.325,-0.223C0.304,-0.237 0.273,-0.244 0.232,-0.244L0.192,-0.244L0.192,-0.072Z" style="fill-rule:nonzero;"/>
                </g>
            </g>
            <g transform="matrix(1.40054,0,0,1.40054,-3885.43,2366.24)">
                <path d="M2873.42,1697.68L2903,1695L2933,1694L2959,1698L2980,1702L3005,1707L3026,1710L3044,1711L3064,1710L3086,1708L3106,1704L3126,1701L3135.91,1700.1" style="fill:none;stroke:rgb(45,231,231);stroke-width:3.57px;"/>
            </g>
        </g>
    </g>
</svg>
