<?xml version="1.0" encoding="UTF-8" standalone="no"?>
<!DOCTYPE svg PUBLIC "-//W3C//DTD SVG 1.1//EN" "http://www.w3.org/Graphics/SVG/1.1/DTD/svg11.dtd">
<svg width="100%" height="100%" viewBox="0 0 401 352" version="1.1" xmlns="http://www.w3.org/2000/svg" xmlns:xlink="http://www.w3.org/1999/xlink" xml:space="preserve" xmlns:serif="http://www.serif.com/" style="fill-rule:evenodd;clip-rule:evenodd;stroke-linecap:round;stroke-linejoin:round;stroke-miterlimit:10;">
    <g transform="matrix(1,0,0,1,-6865,-636)">
        <g id="Attribute" transform="matrix(1.90372,0,0,0.999018,1107.92,-8.99116)">
            <rect x="2388" y="9" width="1641" height="1018" style="fill:none;"/>
            <g transform="matrix(-0.303712,3.99659e-17,-5.04661e-17,-0.657155,3902.74,1066.66)">
                <rect x="2500" y="106.496" width="110" height="65.504" style="fill:white;stroke:black;stroke-width:4.85px;"/>
            </g>
            <g transform="matrix(-0.303712,3.99659e-17,-5.04661e-17,-0.657155,3902.74,894.478)">
                <rect x="2500" y="106.496" width="110" height="65.504" style="fill:white;stroke:black;stroke-width:4.85px;"/>
            </g>
            <g transform="matrix(-0.303712,3.99659e-17,-5.04661e-17,-0.657155,3902.74,980.571)">
                <rect x="2500" y="106.496" width="110" height="65.504" style="fill:white;stroke:black;stroke-width:4.85px;"/>
            </g>
            <g transform="matrix(-0.303712,3.99659e-17,-5.04661e-17,-0.657155,3902.74,808.385)">
                <rect x="2500" y="106.496" width="110" height="65.504" style="fill:white;stroke:black;stroke-width:4.85px;"/>
            </g>
            <g transform="matrix(-0.303712,3.99659e-17,-5.04661e-17,-0.657155,3902.74,1023.62)">
                <rect x="2500" y="106.496" width="110" height="65.504" style="fill:white;stroke:black;stroke-width:4.85px;"/>
            </g>
            <g transform="matrix(-0.303712,3.99659e-17,-5.04661e-17,-0.657155,3902.74,851.432)">
                <rect x="2500" y="106.496" width="110" height="65.504" style="fill:white;stroke:black;stroke-width:4.85px;"/>
            </g>
            <g transform="matrix(-0.303712,3.99659e-17,-5.04661e-17,-0.657155,3902.74,937.524)">
                <rect x="2500" y="106.496" width="110" height="65.504" style="fill:white;stroke:black;stroke-width:4.85px;"/>
            </g>
            <g transform="matrix(-0.303712,3.99659e-17,-5.04661e-17,-0.657155,3902.74,765.339)">
                <rect x="2500" y="106.496" width="110" height="65.504" style="fill:white;stroke:black;stroke-width:4.85px;"/>
            </g>
            <g transform="matrix(0.153546,0,0,1.00098,2788.79,-854.807)">
                <g transform="matrix(3.42105,-0,-0,1,1532.63,1498.96)">
                    <path d="M240.099,13.957L262.599,25.207L240.099,36.457L240.099,13.957Z"/>
                    <path d="M243.599,25.207L244.599,25.207" style="fill:none;stroke:black;stroke-width:5px;stroke-linecap:butt;stroke-linejoin:miter;stroke-miterlimit:1;stroke-dasharray:5,5;"/>
                </g>
            </g>
            <g transform="matrix(0.153546,0,0,1.00098,2788.79,-810.408)">
                <g transform="matrix(3.42105,-0,-0,1,1532.63,1454.6)">
                    <path d="M240.099,58.311L262.599,69.561L240.099,80.811L240.099,58.311Z"/>
                    <path d="M243.599,69.561L244.599,69.561" style="fill:none;stroke:black;stroke-width:5px;stroke-linecap:butt;stroke-linejoin:miter;stroke-miterlimit:1;stroke-dasharray:5,5;"/>
                </g>
            </g>
            <g transform="matrix(0.153546,0,0,1.00098,2788.79,-767.878)">
                <g transform="matrix(3.42105,-0,-0,1,1532.63,1412.11)">
                    <path d="M240.099,100.8L262.599,112.05L240.099,123.3L240.099,100.8Z"/>
                    <path d="M243.599,112.05L244.599,112.05" style="fill:none;stroke:black;stroke-width:5px;stroke-linecap:butt;stroke-linejoin:miter;stroke-miterlimit:1;stroke-dasharray:5,5;"/>
                </g>
            </g>
            <g transform="matrix(0.153546,0,0,1.00098,2788.79,-723.868)">
                <g transform="matrix(3.42105,-0,-0,1,1532.63,1368.15)">
                    <path d="M240.099,144.767L262.599,156.017L240.099,167.267L240.099,144.767Z"/>
                    <path d="M243.599,156.017L244.599,156.017" style="fill:none;stroke:black;stroke-width:5px;stroke-linecap:butt;stroke-linejoin:miter;stroke-miterlimit:1;stroke-dasharray:5,5;"/>
                </g>
            </g>
            <g transform="matrix(0.153546,0,0,1.00098,2788.79,-680.925)">
                <g transform="matrix(3.42105,-0,-0,1,1532.63,1325.25)">
                    <path d="M240.099,187.668L262.599,198.918L240.099,210.168L240.099,187.668Z"/>
                    <path d="M243.599,198.918L244.599,198.918" style="fill:none;stroke:black;stroke-width:5px;stroke-linecap:butt;stroke-linejoin:miter;stroke-miterlimit:1;stroke-dasharray:5,5;"/>
                </g>
            </g>
            <g transform="matrix(0.153546,0,0,1.00098,2788.79,-637.83)">
                <g transform="matrix(3.42105,-0,-0,1,1532.63,1282.19)">
                    <path d="M240.099,230.721L262.599,241.971L240.099,253.221L240.099,230.721Z"/>
                    <path d="M243.599,241.971L244.599,241.971" style="fill:none;stroke:black;stroke-width:5px;stroke-linecap:butt;stroke-linejoin:miter;stroke-miterlimit:1;stroke-dasharray:5,5;"/>
                </g>
            </g>
            <g transform="matrix(0.153546,0,0,1.00098,2788.79,-594.269)">
                <g transform="matrix(3.42105,-0,-0,1,1532.63,1238.68)">
                    <path d="M240.099,274.238L262.599,285.488L240.099,296.738L240.099,274.238Z"/>
                    <path d="M243.599,285.488L244.599,285.488" style="fill:none;stroke:black;stroke-width:5px;stroke-linecap:butt;stroke-linejoin:miter;stroke-miterlimit:1;stroke-dasharray:5,5;"/>
                </g>
            </g>
            <g transform="matrix(0.153546,0,0,1.00098,2788.79,-549.903)">
                <g transform="matrix(3.42105,-0,-0,1,1532.63,1194.35)">
                    <path d="M240.099,318.561L262.599,329.811L240.099,341.061L240.099,318.561Z"/>
                    <path d="M243.599,329.811L244.599,329.811" style="fill:none;stroke:black;stroke-width:5px;stroke-linecap:butt;stroke-linejoin:miter;stroke-miterlimit:1;stroke-dasharray:5,5;"/>
                </g>
            </g>
            <g transform="matrix(0.646607,0,0,0.469027,951.065,543.198)">
                <g transform="matrix(-0.812376,1.95457e-16,-8.7337e-17,-1.40111,5557.19,1109.66)">
                    <rect x="2500" y="106.496" width="110" height="65.504" style="fill:rgb(251,133,255);stroke:black;stroke-width:3.55px;"/>
                </g>
                <g transform="matrix(-0.812376,1.95457e-16,-8.7337e-17,-1.40111,5557.19,742.552)">
                    <rect x="2500" y="106.496" width="110" height="65.504" style="fill:rgb(45,231,231);stroke:black;stroke-width:3.55px;"/>
                </g>
                <g transform="matrix(-0.812376,1.95457e-16,-8.7337e-17,-1.40111,5557.19,926.108)">
                    <rect x="2500" y="106.496" width="110" height="65.504" style="fill:rgb(45,231,231);stroke:black;stroke-width:3.55px;"/>
                </g>
                <g transform="matrix(-0.812376,1.95457e-16,-8.7337e-17,-1.40111,5557.19,558.996)">
                    <rect x="2500" y="106.496" width="110" height="65.504" style="fill:rgb(251,133,255);stroke:black;stroke-width:3.55px;"/>
                </g>
                <g transform="matrix(-0.812376,1.95457e-16,-8.7337e-17,-1.40111,5557.19,1017.89)">
                    <rect x="2500" y="106.496" width="110" height="65.504" style="fill:rgb(255,235,51);stroke:black;stroke-width:3.55px;"/>
                </g>
                <g transform="matrix(-0.812376,1.95457e-16,-8.7337e-17,-1.40111,5557.19,650.774)">
                    <rect x="2500" y="106.496" width="110" height="65.504" style="fill:rgb(251,133,255);stroke:black;stroke-width:3.55px;"/>
                </g>
                <g transform="matrix(-0.812376,1.95457e-16,-8.7337e-17,-1.40111,5557.19,834.33)">
                    <rect x="2500" y="106.496" width="110" height="65.504" style="fill:rgb(255,235,51);stroke:black;stroke-width:3.55px;"/>
                </g>
                <g transform="matrix(-0.812376,1.95457e-16,-8.7337e-17,-1.40111,5557.19,467.218)">
                    <rect x="2500" y="106.496" width="110" height="65.504" style="fill:rgb(255,235,51);stroke:black;stroke-width:3.55px;"/>
                </g>
                <g transform="matrix(0.812376,0,0,2.13417,1204.37,28.4409)">
                    <g transform="matrix(32,0,0,32,2790.57,126.659)">
                        <path d="M0.156,-0.703L0.156,-0.432L0.256,-0.432C0.306,-0.432 0.348,-0.444 0.384,-0.467C0.42,-0.491 0.438,-0.523 0.438,-0.564C0.438,-0.612 0.423,-0.646 0.395,-0.669C0.367,-0.691 0.318,-0.703 0.247,-0.703L0.156,-0.703ZM0.156,-0.368L0.156,-0.063L0.288,-0.063C0.344,-0.063 0.388,-0.076 0.42,-0.1C0.453,-0.125 0.469,-0.159 0.469,-0.204C0.469,-0.253 0.453,-0.292 0.422,-0.323C0.39,-0.353 0.343,-0.368 0.282,-0.368L0.156,-0.368ZM0.292,-0.765C0.364,-0.765 0.419,-0.749 0.459,-0.716C0.5,-0.683 0.52,-0.636 0.52,-0.575C0.52,-0.526 0.504,-0.488 0.474,-0.46C0.443,-0.432 0.413,-0.415 0.384,-0.41C0.424,-0.403 0.462,-0.382 0.5,-0.348C0.537,-0.314 0.555,-0.262 0.555,-0.191C0.555,-0.136 0.532,-0.091 0.487,-0.054C0.441,-0.018 0.375,-0 0.29,-0L0.073,-0L0.073,-0.765L0.292,-0.765Z" style="fill-rule:nonzero;"/>
                    </g>
                </g>
                <g transform="matrix(0.812376,0,0,2.13417,1204.37,123.521)">
                    <g transform="matrix(32,0,0,32,2790.57,126.659)">
                        <path d="M0.196,-0.32L0.42,-0.32L0.311,-0.669L0.196,-0.32ZM0.276,-0.765L0.357,-0.765L0.611,-0L0.519,-0L0.438,-0.261L0.179,-0.261L0.097,-0L0.015,-0L0.276,-0.765Z" style="fill-rule:nonzero;"/>
                    </g>
                </g>
                <g transform="matrix(0.812376,0,0,2.13417,1204.37,211.539)">
                    <g transform="matrix(32,0,0,32,2790.57,126.659)">
                        <path d="M0.196,-0.32L0.42,-0.32L0.311,-0.669L0.196,-0.32ZM0.276,-0.765L0.357,-0.765L0.611,-0L0.519,-0L0.438,-0.261L0.179,-0.261L0.097,-0L0.015,-0L0.276,-0.765Z" style="fill-rule:nonzero;"/>
                    </g>
                </g>
                <g transform="matrix(0.812376,0,0,2.13417,1204.37,394.283)">
                    <g transform="matrix(32,0,0,32,2790.57,126.659)">
                        <path d="M0.156,-0.703L0.156,-0.432L0.256,-0.432C0.306,-0.432 0.348,-0.444 0.384,-0.467C0.42,-0.491 0.438,-0.523 0.438,-0.564C0.438,-0.612 0.423,-0.646 0.395,-0.669C0.367,-0.691 0.318,-0.703 0.247,-0.703L0.156,-0.703ZM0.156,-0.368L0.156,-0.063L0.288,-0.063C0.344,-0.063 0.388,-0.076 0.42,-0.1C0.453,-0.125 0.469,-0.159 0.469,-0.204C0.469,-0.253 0.453,-0.292 0.422,-0.323C0.39,-0.353 0.343,-0.368 0.282,-0.368L0.156,-0.368ZM0.292,-0.765C0.364,-0.765 0.419,-0.749 0.459,-0.716C0.5,-0.683 0.52,-0.636 0.52,-0.575C0.52,-0.526 0.504,-0.488 0.474,-0.46C0.443,-0.432 0.413,-0.415 0.384,-0.41C0.424,-0.403 0.462,-0.382 0.5,-0.348C0.537,-0.314 0.555,-0.262 0.555,-0.191C0.555,-0.136 0.532,-0.091 0.487,-0.054C0.441,-0.018 0.375,-0 0.29,-0L0.073,-0L0.073,-0.765L0.292,-0.765Z" style="fill-rule:nonzero;"/>
                    </g>
                </g>
                <g transform="matrix(0.812376,0,0,2.13417,1204.37,670.256)">
                    <g transform="matrix(32,0,0,32,2790.57,126.659)">
                        <path d="M0.196,-0.32L0.42,-0.32L0.311,-0.669L0.196,-0.32ZM0.276,-0.765L0.357,-0.765L0.611,-0L0.519,-0L0.438,-0.261L0.179,-0.261L0.097,-0L0.015,-0L0.276,-0.765Z" style="fill-rule:nonzero;"/>
                    </g>
                </g>
                <g transform="matrix(0.812376,0,0,2.13417,1204.37,304.329)">
                    <g transform="matrix(32,0,0,32,2790.57,126.659)">
                        <path d="M0.627,-0.11C0.602,-0.076 0.57,-0.046 0.533,-0.023C0.497,0 0.444,0.012 0.377,0.012C0.281,0.012 0.205,-0.025 0.148,-0.1C0.092,-0.175 0.063,-0.271 0.063,-0.389C0.063,-0.499 0.091,-0.592 0.145,-0.669C0.199,-0.747 0.28,-0.785 0.386,-0.785C0.43,-0.785 0.469,-0.779 0.503,-0.767C0.537,-0.754 0.569,-0.732 0.6,-0.699L0.547,-0.644C0.525,-0.667 0.499,-0.685 0.472,-0.697C0.444,-0.709 0.414,-0.715 0.381,-0.715C0.309,-0.715 0.252,-0.684 0.212,-0.622C0.171,-0.56 0.151,-0.487 0.151,-0.402C0.151,-0.291 0.174,-0.206 0.219,-0.147C0.265,-0.088 0.317,-0.058 0.375,-0.058C0.431,-0.058 0.472,-0.067 0.498,-0.084C0.523,-0.102 0.546,-0.126 0.567,-0.155L0.627,-0.11Z" style="fill-rule:nonzero;"/>
                    </g>
                </g>
                <g transform="matrix(0.812376,0,0,2.13417,1204.37,487.416)">
                    <g transform="matrix(32,0,0,32,2790.57,126.659)">
                        <path d="M0.627,-0.11C0.602,-0.076 0.57,-0.046 0.533,-0.023C0.497,0 0.444,0.012 0.377,0.012C0.281,0.012 0.205,-0.025 0.148,-0.1C0.092,-0.175 0.063,-0.271 0.063,-0.389C0.063,-0.499 0.091,-0.592 0.145,-0.669C0.199,-0.747 0.28,-0.785 0.386,-0.785C0.43,-0.785 0.469,-0.779 0.503,-0.767C0.537,-0.754 0.569,-0.732 0.6,-0.699L0.547,-0.644C0.525,-0.667 0.499,-0.685 0.472,-0.697C0.444,-0.709 0.414,-0.715 0.381,-0.715C0.309,-0.715 0.252,-0.684 0.212,-0.622C0.171,-0.56 0.151,-0.487 0.151,-0.402C0.151,-0.291 0.174,-0.206 0.219,-0.147C0.265,-0.088 0.317,-0.058 0.375,-0.058C0.431,-0.058 0.472,-0.067 0.498,-0.084C0.523,-0.102 0.546,-0.126 0.567,-0.155L0.627,-0.11Z" style="fill-rule:nonzero;"/>
                    </g>
                </g>
                <g transform="matrix(0.812376,0,0,2.13417,1204.37,581.258)">
                    <g transform="matrix(32,0,0,32,2790.57,126.659)">
                        <path d="M0.156,-0.703L0.156,-0.432L0.256,-0.432C0.306,-0.432 0.348,-0.444 0.384,-0.467C0.42,-0.491 0.438,-0.523 0.438,-0.564C0.438,-0.612 0.423,-0.646 0.395,-0.669C0.367,-0.691 0.318,-0.703 0.247,-0.703L0.156,-0.703ZM0.156,-0.368L0.156,-0.063L0.288,-0.063C0.344,-0.063 0.388,-0.076 0.42,-0.1C0.453,-0.125 0.469,-0.159 0.469,-0.204C0.469,-0.253 0.453,-0.292 0.422,-0.323C0.39,-0.353 0.343,-0.368 0.282,-0.368L0.156,-0.368ZM0.292,-0.765C0.364,-0.765 0.419,-0.749 0.459,-0.716C0.5,-0.683 0.52,-0.636 0.52,-0.575C0.52,-0.526 0.504,-0.488 0.474,-0.46C0.443,-0.432 0.413,-0.415 0.384,-0.41C0.424,-0.403 0.462,-0.382 0.5,-0.348C0.537,-0.314 0.555,-0.262 0.555,-0.191C0.555,-0.136 0.532,-0.091 0.487,-0.054C0.441,-0.018 0.375,-0 0.29,-0L0.073,-0L0.073,-0.765L0.292,-0.765Z" style="fill-rule:nonzero;"/>
                    </g>
                </g>
            </g>
            <g transform="matrix(0.646607,0,0,0.469027,887.05,543.198)">
                <g transform="matrix(-0.812376,1.95457e-16,-8.7337e-17,-1.40111,5429.47,1109.66)">
                    <rect x="2500" y="106.496" width="110" height="65.504" style="fill:rgb(89,89,89);stroke:black;stroke-width:3.55px;"/>
                </g>
                <g transform="matrix(-0.812376,1.95457e-16,-8.7337e-17,-1.40111,5429.47,742.552)">
                    <rect x="2500" y="106.496" width="110" height="65.504" style="fill:rgb(200,200,200);stroke:black;stroke-width:3.55px;"/>
                </g>
                <g transform="matrix(-0.812376,1.95457e-16,-8.7337e-17,-1.40111,5429.47,926.108)">
                    <rect x="2500" y="106.496" width="110" height="65.504" style="fill:rgb(216,216,216);stroke:black;stroke-width:3.55px;"/>
                </g>
                <g transform="matrix(-0.812376,1.95457e-16,-8.7337e-17,-1.40111,5429.47,558.996)">
                    <rect x="2500" y="106.496" width="110" height="65.504" style="fill:rgb(77,77,77);stroke:black;stroke-width:3.55px;"/>
                </g>
                <g transform="matrix(-0.812376,1.95457e-16,-8.7337e-17,-1.40111,5429.47,1017.89)">
                    <rect x="2500" y="106.496" width="110" height="65.504" style="fill:rgb(164,164,164);stroke:black;stroke-width:3.55px;"/>
                </g>
                <g transform="matrix(-0.812376,1.95457e-16,-8.7337e-17,-1.40111,5429.47,650.774)">
                    <rect x="2500" y="106.496" width="110" height="65.504" style="fill:rgb(102,102,102);stroke:black;stroke-width:3.55px;"/>
                </g>
                <g transform="matrix(-0.812376,1.95457e-16,-8.7337e-17,-1.40111,5429.47,834.33)">
                    <rect x="2500" y="106.496" width="110" height="65.504" style="fill:rgb(150,150,150);stroke:black;stroke-width:3.55px;"/>
                </g>
                <g transform="matrix(-0.812376,1.95457e-16,-8.7337e-17,-1.40111,5429.47,467.218)">
                    <rect x="2500" y="106.496" width="110" height="65.504" style="fill:rgb(153,153,153);stroke:black;stroke-width:3.55px;"/>
                </g>
            </g>
            <g transform="matrix(0.153546,0,0,1.00098,2731.01,-855.808)">
                <g transform="matrix(3.42105,-0,-0,1,1908.95,1499.96)">
                    <path d="M130.1,12.957L152.6,24.207L130.1,35.457L130.1,12.957Z"/>
                    <path d="M133.6,24.207L134.6,24.207" style="fill:none;stroke:black;stroke-width:5px;stroke-linecap:butt;stroke-linejoin:miter;stroke-miterlimit:1;stroke-dasharray:5,5;"/>
                </g>
            </g>
            <g transform="matrix(0.153546,0,0,1.00098,2731.01,-813.411)">
                <g transform="matrix(3.42105,-0,-0,1,1908.95,1457.6)">
                    <path d="M130.1,55.311L152.6,66.561L130.1,77.811L130.1,55.311Z"/>
                    <path d="M133.6,66.561L134.6,66.561" style="fill:none;stroke:black;stroke-width:5px;stroke-linecap:butt;stroke-linejoin:miter;stroke-miterlimit:1;stroke-dasharray:5,5;"/>
                </g>
            </g>
            <g transform="matrix(0.153546,0,0,1.00098,2731.01,-770.881)">
                <g transform="matrix(3.42105,-0,-0,1,1908.95,1415.11)">
                    <path d="M130.1,97.8L152.6,109.05L130.1,120.3L130.1,97.8Z"/>
                    <path d="M133.6,109.05L134.6,109.05" style="fill:none;stroke:black;stroke-width:5px;stroke-linecap:butt;stroke-linejoin:miter;stroke-miterlimit:1;stroke-dasharray:5,5;"/>
                </g>
            </g>
            <g transform="matrix(0.153546,0,0,1.00098,2731.01,-726.871)">
                <g transform="matrix(3.42105,-0,-0,1,1908.95,1371.15)">
                    <path d="M130.1,141.767L152.6,153.017L130.1,164.267L130.1,141.767Z"/>
                    <path d="M133.6,153.017L134.6,153.017" style="fill:none;stroke:black;stroke-width:5px;stroke-linecap:butt;stroke-linejoin:miter;stroke-miterlimit:1;stroke-dasharray:5,5;"/>
                </g>
            </g>
            <g transform="matrix(0.153546,0,0,1.00098,2731.01,-683.928)">
                <g transform="matrix(3.42105,-0,-0,1,1908.95,1328.25)">
                    <path d="M130.1,184.668L152.6,195.918L130.1,207.168L130.1,184.668Z"/>
                    <path d="M133.6,195.918L134.6,195.918" style="fill:none;stroke:black;stroke-width:5px;stroke-linecap:butt;stroke-linejoin:miter;stroke-miterlimit:1;stroke-dasharray:5,5;"/>
                </g>
            </g>
            <g transform="matrix(0.153546,0,0,1.00098,2731.01,-640.833)">
                <g transform="matrix(3.42105,-0,-0,1,1908.95,1285.19)">
                    <path d="M130.1,227.721L152.6,238.971L130.1,250.221L130.1,227.721Z"/>
                    <path d="M133.6,238.971L134.6,238.971" style="fill:none;stroke:black;stroke-width:5px;stroke-linecap:butt;stroke-linejoin:miter;stroke-miterlimit:1;stroke-dasharray:5,5;"/>
                </g>
            </g>
            <g transform="matrix(0.153546,0,0,1.00098,2731.01,-597.272)">
                <g transform="matrix(3.42105,-0,-0,1,1908.95,1241.68)">
                    <path d="M130.1,271.238L152.6,282.488L130.1,293.738L130.1,271.238Z"/>
                    <path d="M133.6,282.488L134.6,282.488" style="fill:none;stroke:black;stroke-width:5px;stroke-linecap:butt;stroke-linejoin:miter;stroke-miterlimit:1;stroke-dasharray:5,5;"/>
                </g>
            </g>
            <g transform="matrix(0.153546,0,0,1.00098,2731.01,-552.906)">
                <g transform="matrix(3.42105,-0,-0,1,1908.95,1197.35)">
                    <path d="M130.1,315.561L152.6,326.811L130.1,338.061L130.1,315.561Z"/>
                    <path d="M133.6,326.811L134.6,326.811" style="fill:none;stroke:black;stroke-width:5px;stroke-linecap:butt;stroke-linejoin:miter;stroke-miterlimit:1;stroke-dasharray:5,5;"/>
                </g>
            </g>
            <g transform="matrix(1,0,0,1,491.527,489.857)">
                <g transform="matrix(0.525288,0,0,1.00098,929.101,26.8454)">
                    <g transform="matrix(32,0,0,32,3240.17,165.349)">
                        <path d="M0.113,-0.437L0.042,-0.437L0.042,-0.476C0.055,-0.483 0.07,-0.49 0.085,-0.496C0.099,-0.501 0.114,-0.506 0.127,-0.509L0.134,-0.544C0.143,-0.585 0.155,-0.619 0.17,-0.647C0.185,-0.674 0.202,-0.695 0.222,-0.711C0.242,-0.726 0.265,-0.737 0.29,-0.743C0.315,-0.749 0.343,-0.752 0.372,-0.752C0.393,-0.752 0.415,-0.75 0.437,-0.747C0.459,-0.743 0.477,-0.737 0.49,-0.73C0.491,-0.721 0.491,-0.711 0.489,-0.7C0.486,-0.689 0.483,-0.678 0.478,-0.668C0.472,-0.658 0.467,-0.649 0.46,-0.641C0.453,-0.633 0.446,-0.627 0.438,-0.623L0.366,-0.699C0.357,-0.697 0.347,-0.694 0.339,-0.69C0.33,-0.685 0.321,-0.678 0.313,-0.668C0.305,-0.658 0.297,-0.644 0.29,-0.625C0.282,-0.606 0.275,-0.581 0.269,-0.55L0.26,-0.5L0.37,-0.5C0.371,-0.493 0.371,-0.483 0.37,-0.47C0.369,-0.456 0.364,-0.446 0.357,-0.437L0.247,-0.437L0.185,-0.043C0.178,0.004 0.165,0.044 0.144,0.075C0.123,0.106 0.1,0.131 0.076,0.151C0.05,0.169 0.025,0.184 0,0.193C-0.025,0.202 -0.046,0.209 -0.062,0.212L-0.073,0.178C-0.065,0.174 -0.055,0.168 -0.043,0.159C-0.031,0.15 -0.019,0.137 -0.007,0.121C0.005,0.105 0.016,0.085 0.027,0.062C0.037,0.038 0.045,0.009 0.05,-0.024L0.113,-0.437Z" style="fill-rule:nonzero;"/>
                    </g>
                </g>
                <g transform="matrix(0.525288,0,0,1.00098,929.101,70.0218)">
                    <g transform="matrix(32,0,0,32,3240.17,165.349)">
                        <path d="M0.113,-0.437L0.042,-0.437L0.042,-0.476C0.055,-0.483 0.07,-0.49 0.085,-0.496C0.099,-0.501 0.114,-0.506 0.127,-0.509L0.134,-0.544C0.143,-0.585 0.155,-0.619 0.17,-0.647C0.185,-0.674 0.202,-0.695 0.222,-0.711C0.242,-0.726 0.265,-0.737 0.29,-0.743C0.315,-0.749 0.343,-0.752 0.372,-0.752C0.393,-0.752 0.415,-0.75 0.437,-0.747C0.459,-0.743 0.477,-0.737 0.49,-0.73C0.491,-0.721 0.491,-0.711 0.489,-0.7C0.486,-0.689 0.483,-0.678 0.478,-0.668C0.472,-0.658 0.467,-0.649 0.46,-0.641C0.453,-0.633 0.446,-0.627 0.438,-0.623L0.366,-0.699C0.357,-0.697 0.347,-0.694 0.339,-0.69C0.33,-0.685 0.321,-0.678 0.313,-0.668C0.305,-0.658 0.297,-0.644 0.29,-0.625C0.282,-0.606 0.275,-0.581 0.269,-0.55L0.26,-0.5L0.37,-0.5C0.371,-0.493 0.371,-0.483 0.37,-0.47C0.369,-0.456 0.364,-0.446 0.357,-0.437L0.247,-0.437L0.185,-0.043C0.178,0.004 0.165,0.044 0.144,0.075C0.123,0.106 0.1,0.131 0.076,0.151C0.05,0.169 0.025,0.184 0,0.193C-0.025,0.202 -0.046,0.209 -0.062,0.212L-0.073,0.178C-0.065,0.174 -0.055,0.168 -0.043,0.159C-0.031,0.15 -0.019,0.137 -0.007,0.121C0.005,0.105 0.016,0.085 0.027,0.062C0.037,0.038 0.045,0.009 0.05,-0.024L0.113,-0.437Z" style="fill-rule:nonzero;"/>
                    </g>
                </g>
                <g transform="matrix(0.525288,0,0,1.00098,929.101,112.803)">
                    <g transform="matrix(32,0,0,32,3240.17,165.349)">
                        <path d="M0.113,-0.437L0.042,-0.437L0.042,-0.476C0.055,-0.483 0.07,-0.49 0.085,-0.496C0.099,-0.501 0.114,-0.506 0.127,-0.509L0.134,-0.544C0.143,-0.585 0.155,-0.619 0.17,-0.647C0.185,-0.674 0.202,-0.695 0.222,-0.711C0.242,-0.726 0.265,-0.737 0.29,-0.743C0.315,-0.749 0.343,-0.752 0.372,-0.752C0.393,-0.752 0.415,-0.75 0.437,-0.747C0.459,-0.743 0.477,-0.737 0.49,-0.73C0.491,-0.721 0.491,-0.711 0.489,-0.7C0.486,-0.689 0.483,-0.678 0.478,-0.668C0.472,-0.658 0.467,-0.649 0.46,-0.641C0.453,-0.633 0.446,-0.627 0.438,-0.623L0.366,-0.699C0.357,-0.697 0.347,-0.694 0.339,-0.69C0.33,-0.685 0.321,-0.678 0.313,-0.668C0.305,-0.658 0.297,-0.644 0.29,-0.625C0.282,-0.606 0.275,-0.581 0.269,-0.55L0.26,-0.5L0.37,-0.5C0.371,-0.493 0.371,-0.483 0.37,-0.47C0.369,-0.456 0.364,-0.446 0.357,-0.437L0.247,-0.437L0.185,-0.043C0.178,0.004 0.165,0.044 0.144,0.075C0.123,0.106 0.1,0.131 0.076,0.151C0.05,0.169 0.025,0.184 0,0.193C-0.025,0.202 -0.046,0.209 -0.062,0.212L-0.073,0.178C-0.065,0.174 -0.055,0.168 -0.043,0.159C-0.031,0.15 -0.019,0.137 -0.007,0.121C0.005,0.105 0.016,0.085 0.027,0.062C0.037,0.038 0.045,0.009 0.05,-0.024L0.113,-0.437Z" style="fill-rule:nonzero;"/>
                    </g>
                </g>
                <g transform="matrix(0.525288,0,0,1.00098,929.101,155.794)">
                    <g transform="matrix(32,0,0,32,3240.17,165.349)">
                        <path d="M0.113,-0.437L0.042,-0.437L0.042,-0.476C0.055,-0.483 0.07,-0.49 0.085,-0.496C0.099,-0.501 0.114,-0.506 0.127,-0.509L0.134,-0.544C0.143,-0.585 0.155,-0.619 0.17,-0.647C0.185,-0.674 0.202,-0.695 0.222,-0.711C0.242,-0.726 0.265,-0.737 0.29,-0.743C0.315,-0.749 0.343,-0.752 0.372,-0.752C0.393,-0.752 0.415,-0.75 0.437,-0.747C0.459,-0.743 0.477,-0.737 0.49,-0.73C0.491,-0.721 0.491,-0.711 0.489,-0.7C0.486,-0.689 0.483,-0.678 0.478,-0.668C0.472,-0.658 0.467,-0.649 0.46,-0.641C0.453,-0.633 0.446,-0.627 0.438,-0.623L0.366,-0.699C0.357,-0.697 0.347,-0.694 0.339,-0.69C0.33,-0.685 0.321,-0.678 0.313,-0.668C0.305,-0.658 0.297,-0.644 0.29,-0.625C0.282,-0.606 0.275,-0.581 0.269,-0.55L0.26,-0.5L0.37,-0.5C0.371,-0.493 0.371,-0.483 0.37,-0.47C0.369,-0.456 0.364,-0.446 0.357,-0.437L0.247,-0.437L0.185,-0.043C0.178,0.004 0.165,0.044 0.144,0.075C0.123,0.106 0.1,0.131 0.076,0.151C0.05,0.169 0.025,0.184 0,0.193C-0.025,0.202 -0.046,0.209 -0.062,0.212L-0.073,0.178C-0.065,0.174 -0.055,0.168 -0.043,0.159C-0.031,0.15 -0.019,0.137 -0.007,0.121C0.005,0.105 0.016,0.085 0.027,0.062C0.037,0.038 0.045,0.009 0.05,-0.024L0.113,-0.437Z" style="fill-rule:nonzero;"/>
                    </g>
                </g>
                <g transform="matrix(0.525288,0,0,1.00098,929.101,199.276)">
                    <g transform="matrix(32,0,0,32,3240.17,165.349)">
                        <path d="M0.113,-0.437L0.042,-0.437L0.042,-0.476C0.055,-0.483 0.07,-0.49 0.085,-0.496C0.099,-0.501 0.114,-0.506 0.127,-0.509L0.134,-0.544C0.143,-0.585 0.155,-0.619 0.17,-0.647C0.185,-0.674 0.202,-0.695 0.222,-0.711C0.242,-0.726 0.265,-0.737 0.29,-0.743C0.315,-0.749 0.343,-0.752 0.372,-0.752C0.393,-0.752 0.415,-0.75 0.437,-0.747C0.459,-0.743 0.477,-0.737 0.49,-0.73C0.491,-0.721 0.491,-0.711 0.489,-0.7C0.486,-0.689 0.483,-0.678 0.478,-0.668C0.472,-0.658 0.467,-0.649 0.46,-0.641C0.453,-0.633 0.446,-0.627 0.438,-0.623L0.366,-0.699C0.357,-0.697 0.347,-0.694 0.339,-0.69C0.33,-0.685 0.321,-0.678 0.313,-0.668C0.305,-0.658 0.297,-0.644 0.29,-0.625C0.282,-0.606 0.275,-0.581 0.269,-0.55L0.26,-0.5L0.37,-0.5C0.371,-0.493 0.371,-0.483 0.37,-0.47C0.369,-0.456 0.364,-0.446 0.357,-0.437L0.247,-0.437L0.185,-0.043C0.178,0.004 0.165,0.044 0.144,0.075C0.123,0.106 0.1,0.131 0.076,0.151C0.05,0.169 0.025,0.184 0,0.193C-0.025,0.202 -0.046,0.209 -0.062,0.212L-0.073,0.178C-0.065,0.174 -0.055,0.168 -0.043,0.159C-0.031,0.15 -0.019,0.137 -0.007,0.121C0.005,0.105 0.016,0.085 0.027,0.062C0.037,0.038 0.045,0.009 0.05,-0.024L0.113,-0.437Z" style="fill-rule:nonzero;"/>
                    </g>
                </g>
                <g transform="matrix(0.525288,0,0,1.00098,929.101,242.343)">
                    <g transform="matrix(32,0,0,32,3240.17,165.349)">
                        <path d="M0.113,-0.437L0.042,-0.437L0.042,-0.476C0.055,-0.483 0.07,-0.49 0.085,-0.496C0.099,-0.501 0.114,-0.506 0.127,-0.509L0.134,-0.544C0.143,-0.585 0.155,-0.619 0.17,-0.647C0.185,-0.674 0.202,-0.695 0.222,-0.711C0.242,-0.726 0.265,-0.737 0.29,-0.743C0.315,-0.749 0.343,-0.752 0.372,-0.752C0.393,-0.752 0.415,-0.75 0.437,-0.747C0.459,-0.743 0.477,-0.737 0.49,-0.73C0.491,-0.721 0.491,-0.711 0.489,-0.7C0.486,-0.689 0.483,-0.678 0.478,-0.668C0.472,-0.658 0.467,-0.649 0.46,-0.641C0.453,-0.633 0.446,-0.627 0.438,-0.623L0.366,-0.699C0.357,-0.697 0.347,-0.694 0.339,-0.69C0.33,-0.685 0.321,-0.678 0.313,-0.668C0.305,-0.658 0.297,-0.644 0.29,-0.625C0.282,-0.606 0.275,-0.581 0.269,-0.55L0.26,-0.5L0.37,-0.5C0.371,-0.493 0.371,-0.483 0.37,-0.47C0.369,-0.456 0.364,-0.446 0.357,-0.437L0.247,-0.437L0.185,-0.043C0.178,0.004 0.165,0.044 0.144,0.075C0.123,0.106 0.1,0.131 0.076,0.151C0.05,0.169 0.025,0.184 0,0.193C-0.025,0.202 -0.046,0.209 -0.062,0.212L-0.073,0.178C-0.065,0.174 -0.055,0.168 -0.043,0.159C-0.031,0.15 -0.019,0.137 -0.007,0.121C0.005,0.105 0.016,0.085 0.027,0.062C0.037,0.038 0.045,0.009 0.05,-0.024L0.113,-0.437Z" style="fill-rule:nonzero;"/>
                    </g>
                </g>
                <g transform="matrix(0.525288,0,0,1.00098,929.101,284.707)">
                    <g transform="matrix(32,0,0,32,3240.17,165.349)">
                        <path d="M0.113,-0.437L0.042,-0.437L0.042,-0.476C0.055,-0.483 0.07,-0.49 0.085,-0.496C0.099,-0.501 0.114,-0.506 0.127,-0.509L0.134,-0.544C0.143,-0.585 0.155,-0.619 0.17,-0.647C0.185,-0.674 0.202,-0.695 0.222,-0.711C0.242,-0.726 0.265,-0.737 0.29,-0.743C0.315,-0.749 0.343,-0.752 0.372,-0.752C0.393,-0.752 0.415,-0.75 0.437,-0.747C0.459,-0.743 0.477,-0.737 0.49,-0.73C0.491,-0.721 0.491,-0.711 0.489,-0.7C0.486,-0.689 0.483,-0.678 0.478,-0.668C0.472,-0.658 0.467,-0.649 0.46,-0.641C0.453,-0.633 0.446,-0.627 0.438,-0.623L0.366,-0.699C0.357,-0.697 0.347,-0.694 0.339,-0.69C0.33,-0.685 0.321,-0.678 0.313,-0.668C0.305,-0.658 0.297,-0.644 0.29,-0.625C0.282,-0.606 0.275,-0.581 0.269,-0.55L0.26,-0.5L0.37,-0.5C0.371,-0.493 0.371,-0.483 0.37,-0.47C0.369,-0.456 0.364,-0.446 0.357,-0.437L0.247,-0.437L0.185,-0.043C0.178,0.004 0.165,0.044 0.144,0.075C0.123,0.106 0.1,0.131 0.076,0.151C0.05,0.169 0.025,0.184 0,0.193C-0.025,0.202 -0.046,0.209 -0.062,0.212L-0.073,0.178C-0.065,0.174 -0.055,0.168 -0.043,0.159C-0.031,0.15 -0.019,0.137 -0.007,0.121C0.005,0.105 0.016,0.085 0.027,0.062C0.037,0.038 0.045,0.009 0.05,-0.024L0.113,-0.437Z" style="fill-rule:nonzero;"/>
                    </g>
                </g>
                <g transform="matrix(0.525288,0,0,1.00098,929.101,328.702)">
                    <g transform="matrix(32,0,0,32,3240.17,165.349)">
                        <path d="M0.113,-0.437L0.042,-0.437L0.042,-0.476C0.055,-0.483 0.07,-0.49 0.085,-0.496C0.099,-0.501 0.114,-0.506 0.127,-0.509L0.134,-0.544C0.143,-0.585 0.155,-0.619 0.17,-0.647C0.185,-0.674 0.202,-0.695 0.222,-0.711C0.242,-0.726 0.265,-0.737 0.29,-0.743C0.315,-0.749 0.343,-0.752 0.372,-0.752C0.393,-0.752 0.415,-0.75 0.437,-0.747C0.459,-0.743 0.477,-0.737 0.49,-0.73C0.491,-0.721 0.491,-0.711 0.489,-0.7C0.486,-0.689 0.483,-0.678 0.478,-0.668C0.472,-0.658 0.467,-0.649 0.46,-0.641C0.453,-0.633 0.446,-0.627 0.438,-0.623L0.366,-0.699C0.357,-0.697 0.347,-0.694 0.339,-0.69C0.33,-0.685 0.321,-0.678 0.313,-0.668C0.305,-0.658 0.297,-0.644 0.29,-0.625C0.282,-0.606 0.275,-0.581 0.269,-0.55L0.26,-0.5L0.37,-0.5C0.371,-0.493 0.371,-0.483 0.37,-0.47C0.369,-0.456 0.364,-0.446 0.357,-0.437L0.247,-0.437L0.185,-0.043C0.178,0.004 0.165,0.044 0.144,0.075C0.123,0.106 0.1,0.131 0.076,0.151C0.05,0.169 0.025,0.184 0,0.193C-0.025,0.202 -0.046,0.209 -0.062,0.212L-0.073,0.178C-0.065,0.174 -0.055,0.168 -0.043,0.159C-0.031,0.15 -0.019,0.137 -0.007,0.121C0.005,0.105 0.016,0.085 0.027,0.062C0.037,0.038 0.045,0.009 0.05,-0.024L0.113,-0.437Z" style="fill-rule:nonzero;"/>
                    </g>
                </g>
            </g>
        </g>
    </g>
</svg>
