<?xml version="1.0" encoding="UTF-8" standalone="no"?>
<!DOCTYPE svg PUBLIC "-//W3C//DTD SVG 1.1//EN" "http://www.w3.org/Graphics/SVG/1.1/DTD/svg11.dtd">
<svg width="100%" height="100%" viewBox="0 0 1421 953" version="1.1" xmlns="http://www.w3.org/2000/svg" xmlns:xlink="http://www.w3.org/1999/xlink" xml:space="preserve" xmlns:serif="http://www.serif.com/" style="fill-rule:evenodd;clip-rule:evenodd;stroke-miterlimit:10;">
    <rect id="Spatial-Databases-1" serif:id="Spatial Databases 1" x="-2665" y="-1076" width="4375" height="2153" style="fill:none;"/>
    <g id="Spatial-Databases-11" serif:id="Spatial Databases 1">
        <g id="Linear-matrix" serif:id="Linear matrix">
        </g>
        <g id="Guilbert-matrix" serif:id="Guilbert matrix">
        </g>
        <g id="Guilbert-row" serif:id="Guilbert row">
        </g>
        <path d="M252.84,902.768L252.84,897.728L255.576,897.728C256.2,897.728 256.836,897.704 257.484,897.656C258.132,897.608 258.756,897.572 259.356,897.548C259.956,897.524 260.448,897.464 260.832,897.368C262.08,897.176 263.256,896.852 264.36,896.396C265.464,895.94 266.424,895.352 267.24,894.632C268.056,893.912 268.704,893.072 269.184,892.112C269.664,891.152 269.904,890.096 269.904,888.944C269.904,887.36 269.64,886.04 269.112,884.984C268.584,883.928 267.852,883.076 266.916,882.428C265.98,881.78 264.9,881.324 263.676,881.06C262.452,880.796 261.144,880.664 259.752,880.664C257.16,880.664 254.952,880.844 253.128,881.204C251.304,881.564 249.84,882.008 248.736,882.536L247.152,877.784C248.112,877.256 249.84,876.716 252.336,876.164C254.832,875.612 257.64,875.336 260.76,875.336C262.68,875.336 264.564,875.54 266.412,875.948C268.26,876.356 269.916,877.028 271.38,877.964C272.844,878.9 274.02,880.172 274.908,881.78C275.796,883.388 276.24,885.368 276.24,887.72C276.24,890.12 275.448,892.412 273.864,894.596C272.28,896.78 269.904,898.352 266.736,899.312L266.736,899.6C270.144,900.08 272.832,901.352 274.8,903.416C276.768,905.48 277.752,908.24 277.752,911.696C277.752,914.432 277.212,916.796 276.132,918.788C275.052,920.78 273.636,922.424 271.884,923.72C270.132,925.016 268.116,925.964 265.836,926.564C263.556,927.164 261.24,927.464 258.888,927.464C255.72,927.464 253.116,927.284 251.076,926.924C249.036,926.564 247.344,926.12 246,925.592L247.512,920.192C248.616,920.72 250.164,921.176 252.156,921.56C254.148,921.944 256.56,922.136 259.392,922.136C260.88,922.136 262.344,921.932 263.784,921.524C265.224,921.116 266.508,920.492 267.636,919.652C268.764,918.812 269.676,917.768 270.372,916.52C271.068,915.272 271.416,913.784 271.416,912.056C271.416,909.032 270.36,906.812 268.248,905.396C266.136,903.98 263.376,903.152 259.968,902.912C259.392,902.864 258.852,902.828 258.348,902.804C257.844,902.78 257.328,902.768 256.8,902.768L252.84,902.768Z" style="fill-rule:nonzero;"/>
        <path d="M286.752,893.264C288.576,892.16 290.7,891.344 293.124,890.816C295.548,890.288 298.08,890.024 300.72,890.024C303.216,890.024 305.22,890.36 306.732,891.032C308.244,891.704 309.396,892.58 310.188,893.66C310.98,894.74 311.508,895.928 311.772,897.224C312.036,898.52 312.168,899.816 312.168,901.112C312.168,903.992 312.096,906.8 311.952,909.536C311.808,912.272 311.736,914.864 311.736,917.312C311.736,919.088 311.808,920.768 311.952,922.352C312.096,923.936 312.36,925.4 312.744,926.744L308.496,926.744L306.984,921.704L306.624,921.704C306.192,922.376 305.652,923.036 305.004,923.684C304.356,924.332 303.576,924.908 302.664,925.412C301.752,925.916 300.696,926.336 299.496,926.672C298.296,927.008 296.928,927.176 295.392,927.176C293.856,927.176 292.428,926.936 291.108,926.456C289.788,925.976 288.648,925.292 287.688,924.404C286.728,923.516 285.972,922.448 285.42,921.2C284.868,919.952 284.592,918.536 284.592,916.952C284.592,914.84 285.024,913.076 285.888,911.66C286.752,910.244 287.964,909.116 289.524,908.276C291.084,907.436 292.956,906.836 295.14,906.476C297.324,906.116 299.736,905.936 302.376,905.936L304.356,905.936C305.004,905.936 305.664,905.984 306.336,906.08C306.48,904.64 306.552,903.344 306.552,902.192C306.552,899.552 306.024,897.704 304.968,896.648C303.912,895.592 301.992,895.064 299.208,895.064C298.392,895.064 297.516,895.124 296.58,895.244C295.644,895.364 294.684,895.532 293.7,895.748C292.716,895.964 291.78,896.228 290.892,896.54C290.004,896.852 289.224,897.2 288.552,897.584L286.752,893.264ZM296.976,922.136C298.32,922.136 299.52,921.956 300.576,921.596C301.632,921.236 302.544,920.78 303.312,920.228C304.08,919.676 304.716,919.064 305.22,918.392C305.724,917.72 306.096,917.072 306.336,916.448L306.336,910.472C305.664,910.424 304.98,910.388 304.284,910.364C303.588,910.34 302.904,910.328 302.232,910.328C300.744,910.328 299.292,910.412 297.876,910.58C296.46,910.748 295.212,911.06 294.132,911.516C293.052,911.972 292.188,912.596 291.54,913.388C290.892,914.18 290.568,915.176 290.568,916.376C290.568,918.056 291.168,919.436 292.368,920.516C293.568,921.596 295.104,922.136 296.976,922.136Z" style="fill-rule:nonzero;"/>
        <path d="M352.776,905.216L353.208,898.376L352.848,898.376L350.256,903.92L341.544,918.032L339.528,918.032L330.456,903.92L328.08,898.376L327.792,898.376L328.368,905.144L328.368,926.6L323.04,926.6L323.04,890.6L328.728,890.6L338.808,906.728L340.896,910.904L341.04,910.904L343.2,906.584L352.632,890.6L358.392,890.6L358.392,926.6L352.776,926.6L352.776,905.216Z" style="fill-rule:nonzero;"/>
        <path d="M375.24,921.56C377.016,921.848 378.72,921.992 380.352,921.992C383.376,921.992 385.488,921.404 386.688,920.228C387.888,919.052 388.488,917.384 388.488,915.224C388.488,913.304 387.9,911.72 386.724,910.472C385.548,909.224 383.496,908.6 380.568,908.6C379.752,908.6 378.864,908.624 377.904,908.672C376.944,908.72 376.056,908.864 375.24,909.104L375.24,921.56ZM375.24,904.352C376.392,904.16 377.496,904.028 378.552,903.956C379.608,903.884 380.616,903.848 381.576,903.848C384.024,903.848 386.076,904.124 387.732,904.676C389.388,905.228 390.72,905.984 391.728,906.944C392.736,907.904 393.444,909.044 393.852,910.364C394.26,911.684 394.464,913.088 394.464,914.576C394.464,918.944 393.252,922.112 390.828,924.08C388.404,926.048 384.48,927.032 379.056,927.032C375.984,927.032 372.792,926.888 369.48,926.6L369.48,890.6L375.24,890.6L375.24,904.352ZM400.152,890.6L405.912,890.6L405.912,926.6L400.152,926.6L400.152,890.6Z" style="fill-rule:nonzero;"/>
        <path d="M426.072,910.4L422.76,910.4L422.76,926.6L417,926.6L417,890.6L422.76,890.6L422.76,906.872L425.856,905.864L437.376,890.6L443.64,890.6L432.48,905.072L429.456,907.448L433.2,910.328L445.224,926.6L438.096,926.6L426.072,910.4Z" style="fill-rule:nonzero;"/>
        <path d="M450.84,893.264C452.664,892.16 454.788,891.344 457.212,890.816C459.636,890.288 462.168,890.024 464.808,890.024C467.304,890.024 469.308,890.36 470.82,891.032C472.332,891.704 473.484,892.58 474.276,893.66C475.068,894.74 475.596,895.928 475.86,897.224C476.124,898.52 476.256,899.816 476.256,901.112C476.256,903.992 476.184,906.8 476.04,909.536C475.896,912.272 475.824,914.864 475.824,917.312C475.824,919.088 475.896,920.768 476.04,922.352C476.184,923.936 476.448,925.4 476.832,926.744L472.584,926.744L471.072,921.704L470.712,921.704C470.28,922.376 469.74,923.036 469.092,923.684C468.444,924.332 467.664,924.908 466.752,925.412C465.84,925.916 464.784,926.336 463.584,926.672C462.384,927.008 461.016,927.176 459.48,927.176C457.944,927.176 456.516,926.936 455.196,926.456C453.876,925.976 452.736,925.292 451.776,924.404C450.816,923.516 450.06,922.448 449.508,921.2C448.956,919.952 448.68,918.536 448.68,916.952C448.68,914.84 449.112,913.076 449.976,911.66C450.84,910.244 452.052,909.116 453.612,908.276C455.172,907.436 457.044,906.836 459.228,906.476C461.412,906.116 463.824,905.936 466.464,905.936L468.444,905.936C469.092,905.936 469.752,905.984 470.424,906.08C470.568,904.64 470.64,903.344 470.64,902.192C470.64,899.552 470.112,897.704 469.056,896.648C468,895.592 466.08,895.064 463.296,895.064C462.48,895.064 461.604,895.124 460.668,895.244C459.732,895.364 458.772,895.532 457.788,895.748C456.804,895.964 455.868,896.228 454.98,896.54C454.092,896.852 453.312,897.2 452.64,897.584L450.84,893.264ZM461.064,922.136C462.408,922.136 463.608,921.956 464.664,921.596C465.72,921.236 466.632,920.78 467.4,920.228C468.168,919.676 468.804,919.064 469.308,918.392C469.812,917.72 470.184,917.072 470.424,916.448L470.424,910.472C469.752,910.424 469.068,910.388 468.372,910.364C467.676,910.34 466.992,910.328 466.32,910.328C464.832,910.328 463.38,910.412 461.964,910.58C460.548,910.748 459.3,911.06 458.22,911.516C457.14,911.972 456.276,912.596 455.628,913.388C454.98,914.18 454.656,915.176 454.656,916.376C454.656,918.056 455.256,919.436 456.456,920.516C457.656,921.596 459.192,922.136 461.064,922.136Z" style="fill-rule:nonzero;"/>
        <path d="M509.16,910.688L492.888,910.688L492.888,926.6L487.128,926.6L487.128,890.6L492.888,890.6L492.888,905.648L509.16,905.648L509.16,890.6L514.92,890.6L514.92,926.6L509.16,926.6L509.16,910.688Z" style="fill-rule:nonzero;"/>
        <path d="M548.472,905.288L548.688,900.824L548.472,900.824L545.52,905.432L529.32,926.6L526.008,926.6L526.008,890.6L531.768,890.6L531.768,912.56L531.552,916.808L531.84,916.808L534.648,912.344L550.848,890.6L554.232,890.6L554.232,926.6L548.472,926.6L548.472,905.288Z" style="fill-rule:nonzero;"/>
        <path d="M591.6,923.72C590.16,924.872 588.348,925.784 586.164,926.456C583.98,927.128 581.664,927.464 579.216,927.464C576.48,927.464 574.104,927.02 572.088,926.132C570.072,925.244 568.416,923.972 567.12,922.316C565.824,920.66 564.864,918.68 564.24,916.376C563.616,914.072 563.304,911.48 563.304,908.6C563.304,902.456 564.672,897.776 567.408,894.56C570.144,891.344 574.056,889.736 579.144,889.736C580.776,889.736 582.408,889.916 584.04,890.276C585.672,890.636 587.136,891.32 588.432,892.328C589.728,893.336 590.784,894.764 591.6,896.612C592.416,898.46 592.824,900.896 592.824,903.92C592.824,905.504 592.68,907.256 592.392,909.176L569.28,909.176C569.28,911.288 569.496,913.16 569.928,914.792C570.36,916.424 571.032,917.804 571.944,918.932C572.856,920.06 574.044,920.924 575.508,921.524C576.972,922.124 578.76,922.424 580.872,922.424C582.504,922.424 584.136,922.136 585.768,921.56C587.4,920.984 588.624,920.312 589.44,919.544L591.6,923.72ZM579.216,894.776C576.384,894.776 574.116,895.52 572.412,897.008C570.708,898.496 569.688,901.04 569.352,904.64L587.208,904.64C587.208,900.992 586.512,898.436 585.12,896.972C583.728,895.508 581.76,894.776 579.216,894.776Z" style="fill-rule:nonzero;"/>
        <path d="M630.192,910.4L626.88,910.4L626.88,926.6L621.12,926.6L621.12,890.6L626.88,890.6L626.88,906.872L629.976,905.864L641.496,890.6L647.76,890.6L636.6,905.072L633.576,907.448L637.32,910.328L649.344,926.6L642.216,926.6L630.192,910.4Z" style="fill-rule:nonzero;"/>
        <path d="M653.52,908.6C653.52,902.504 654.876,897.836 657.588,894.596C660.3,891.356 664.2,889.736 669.288,889.736C671.976,889.736 674.316,890.18 676.308,891.068C678.3,891.956 679.944,893.228 681.24,894.884C682.536,896.54 683.496,898.532 684.12,900.86C684.744,903.188 685.056,905.768 685.056,908.6C685.056,914.696 683.7,919.364 680.988,922.604C678.276,925.844 674.376,927.464 669.288,927.464C666.6,927.464 664.26,927.02 662.268,926.132C660.276,925.244 658.632,923.972 657.336,922.316C656.04,920.66 655.08,918.668 654.456,916.34C653.832,914.012 653.52,911.432 653.52,908.6ZM659.496,908.6C659.496,910.424 659.676,912.176 660.036,913.856C660.396,915.536 660.96,917 661.728,918.248C662.496,919.496 663.504,920.504 664.752,921.272C666,922.04 667.512,922.424 669.288,922.424C675.816,922.472 679.08,917.864 679.08,908.6C679.08,906.728 678.9,904.952 678.54,903.272C678.18,901.592 677.616,900.128 676.848,898.88C676.08,897.632 675.072,896.636 673.824,895.892C672.576,895.148 671.064,894.776 669.288,894.776C662.76,894.728 659.496,899.336 659.496,908.6Z" style="fill-rule:nonzero;"/>
        <path d="M723.864,905.216L724.296,898.376L723.936,898.376L721.344,903.92L712.632,918.032L710.616,918.032L701.544,903.92L699.168,898.376L698.88,898.376L699.456,905.144L699.456,926.6L694.128,926.6L694.128,890.6L699.816,890.6L709.896,906.728L711.984,910.904L712.128,910.904L714.288,906.584L723.72,890.6L729.48,890.6L729.48,926.6L723.864,926.6L723.864,905.216Z" style="fill-rule:nonzero;"/>
        <path d="M743.88,897.008C745.464,894.704 747.216,893.084 749.136,892.148C751.056,891.212 753.456,890.744 756.336,890.744C760.752,890.744 764.148,892.184 766.524,895.064C768.9,897.944 770.088,902.192 770.088,907.808C770.088,914.288 768.708,919.184 765.948,922.496C763.188,925.808 759.336,927.464 754.392,927.464C749.112,927.464 745.152,925.64 742.512,921.992C739.872,918.344 738.552,912.608 738.552,904.784C738.552,900.656 738.756,897.128 739.164,894.2C739.572,891.272 740.172,888.8 740.964,886.784C741.756,884.768 742.716,883.16 743.844,881.96C744.972,880.76 746.244,879.812 747.66,879.116C749.076,878.42 750.624,877.928 752.304,877.64C753.984,877.352 755.784,877.112 757.704,876.92C760.2,876.68 762.156,876.404 763.572,876.092C764.988,875.78 766.128,875.216 766.992,874.4L767.64,879.584C767.16,880.016 766.632,880.376 766.056,880.664C765.48,880.952 764.784,881.192 763.968,881.384C763.152,881.576 762.18,881.744 761.052,881.888C759.924,882.032 758.616,882.152 757.128,882.248C755.064,882.392 753.252,882.644 751.692,883.004C750.132,883.364 748.788,884.06 747.66,885.092C746.532,886.124 745.644,887.588 744.996,889.484C744.348,891.38 743.904,893.888 743.664,897.008L743.88,897.008ZM744.528,908.672C744.528,910.496 744.72,912.248 745.104,913.928C745.488,915.608 746.076,917.084 746.868,918.356C747.66,919.628 748.68,920.624 749.928,921.344C751.176,922.064 752.64,922.424 754.32,922.424C757.632,922.424 760.092,921.236 761.7,918.86C763.308,916.484 764.112,912.968 764.112,908.312C764.112,906.488 763.944,904.808 763.608,903.272C763.272,901.736 762.744,900.404 762.024,899.276C761.304,898.148 760.392,897.284 759.288,896.684C758.184,896.084 756.864,895.784 755.328,895.784C751.584,895.736 748.848,896.828 747.12,899.06C745.392,901.292 744.528,904.496 744.528,908.672Z" style="fill-rule:nonzero;"/>
        <path d="M801.624,905.288L801.84,900.824L801.624,900.824L798.672,905.432L782.472,926.6L779.16,926.6L779.16,890.6L784.92,890.6L784.92,912.56L784.704,916.808L784.992,916.808L787.8,912.344L804,890.6L807.384,890.6L807.384,926.6L801.624,926.6L801.624,905.288Z" style="fill-rule:nonzero;"/>
        <path d="M840.504,910.688L824.232,910.688L824.232,926.6L818.472,926.6L818.472,890.6L824.232,890.6L824.232,905.648L840.504,905.648L840.504,890.6L846.264,890.6L846.264,926.6L840.504,926.6L840.504,910.688Z" style="fill-rule:nonzero;"/>
        <path d="M856.776,893.264C858.6,892.16 860.724,891.344 863.148,890.816C865.572,890.288 868.104,890.024 870.744,890.024C873.24,890.024 875.244,890.36 876.756,891.032C878.268,891.704 879.42,892.58 880.212,893.66C881.004,894.74 881.532,895.928 881.796,897.224C882.06,898.52 882.192,899.816 882.192,901.112C882.192,903.992 882.12,906.8 881.976,909.536C881.832,912.272 881.76,914.864 881.76,917.312C881.76,919.088 881.832,920.768 881.976,922.352C882.12,923.936 882.384,925.4 882.768,926.744L878.52,926.744L877.008,921.704L876.648,921.704C876.216,922.376 875.676,923.036 875.028,923.684C874.38,924.332 873.6,924.908 872.688,925.412C871.776,925.916 870.72,926.336 869.52,926.672C868.32,927.008 866.952,927.176 865.416,927.176C863.88,927.176 862.452,926.936 861.132,926.456C859.812,925.976 858.672,925.292 857.712,924.404C856.752,923.516 855.996,922.448 855.444,921.2C854.892,919.952 854.616,918.536 854.616,916.952C854.616,914.84 855.048,913.076 855.912,911.66C856.776,910.244 857.988,909.116 859.548,908.276C861.108,907.436 862.98,906.836 865.164,906.476C867.348,906.116 869.76,905.936 872.4,905.936L874.38,905.936C875.028,905.936 875.688,905.984 876.36,906.08C876.504,904.64 876.576,903.344 876.576,902.192C876.576,899.552 876.048,897.704 874.992,896.648C873.936,895.592 872.016,895.064 869.232,895.064C868.416,895.064 867.54,895.124 866.604,895.244C865.668,895.364 864.708,895.532 863.724,895.748C862.74,895.964 861.804,896.228 860.916,896.54C860.028,896.852 859.248,897.2 858.576,897.584L856.776,893.264ZM867,922.136C868.344,922.136 869.544,921.956 870.6,921.596C871.656,921.236 872.568,920.78 873.336,920.228C874.104,919.676 874.74,919.064 875.244,918.392C875.748,917.72 876.12,917.072 876.36,916.448L876.36,910.472C875.688,910.424 875.004,910.388 874.308,910.364C873.612,910.34 872.928,910.328 872.256,910.328C870.768,910.328 869.316,910.412 867.9,910.58C866.484,910.748 865.236,911.06 864.156,911.516C863.076,911.972 862.212,912.596 861.564,913.388C860.916,914.18 860.592,915.176 860.592,916.376C860.592,918.056 861.192,919.436 862.392,920.516C863.592,921.596 865.128,922.136 867,922.136Z" style="fill-rule:nonzero;"/>
        <path d="M915.96,895.64L904.728,895.64L904.728,926.6L898.968,926.6L898.968,895.64L887.736,895.64L887.736,890.6L915.96,890.6L915.96,895.64Z" style="fill-rule:nonzero;"/>
        <path d="M919.632,908.6C919.632,902.504 920.988,897.836 923.7,894.596C926.412,891.356 930.312,889.736 935.4,889.736C938.088,889.736 940.428,890.18 942.42,891.068C944.412,891.956 946.056,893.228 947.352,894.884C948.648,896.54 949.608,898.532 950.232,900.86C950.856,903.188 951.168,905.768 951.168,908.6C951.168,914.696 949.812,919.364 947.1,922.604C944.388,925.844 940.488,927.464 935.4,927.464C932.712,927.464 930.372,927.02 928.38,926.132C926.388,925.244 924.744,923.972 923.448,922.316C922.152,920.66 921.192,918.668 920.568,916.34C919.944,914.012 919.632,911.432 919.632,908.6ZM925.608,908.6C925.608,910.424 925.788,912.176 926.148,913.856C926.508,915.536 927.072,917 927.84,918.248C928.608,919.496 929.616,920.504 930.864,921.272C932.112,922.04 933.624,922.424 935.4,922.424C941.928,922.472 945.192,917.864 945.192,908.6C945.192,906.728 945.012,904.952 944.652,903.272C944.292,901.592 943.728,900.128 942.96,898.88C942.192,897.632 941.184,896.636 939.936,895.892C938.688,895.148 937.176,894.776 935.4,894.776C928.872,894.728 925.608,899.336 925.608,908.6Z" style="fill-rule:nonzero;"/>
        <path d="M960.24,890.6L964.2,890.6L965.28,894.92L965.568,894.92C966.672,893.24 968.1,891.956 969.852,891.068C971.604,890.18 973.608,889.736 975.864,889.736C980.664,889.736 984.24,891.152 986.592,893.984C988.944,896.816 990.12,901.448 990.12,907.88C990.12,910.904 989.724,913.628 988.932,916.052C988.14,918.476 987.024,920.528 985.584,922.208C984.144,923.888 982.404,925.184 980.364,926.096C978.324,927.008 976.056,927.464 973.56,927.464C971.784,927.464 970.38,927.356 969.348,927.14C968.316,926.924 967.2,926.552 966,926.024L966,941L960.24,941L960.24,890.6ZM974.784,894.776C972.336,894.776 970.404,895.412 968.988,896.684C967.572,897.956 966.576,899.888 966,902.48L966,920.336C966.864,921.008 967.848,921.524 968.952,921.884C970.056,922.244 971.52,922.424 973.344,922.424C976.656,922.424 979.284,921.188 981.228,918.716C983.172,916.244 984.144,912.608 984.144,907.808C984.144,905.84 983.976,904.052 983.64,902.444C983.304,900.836 982.764,899.468 982.02,898.34C981.276,897.212 980.316,896.336 979.14,895.712C977.964,895.088 976.512,894.776 974.784,894.776Z" style="fill-rule:nonzero;"/>
        <path d="M1021.22,910.688L1004.95,910.688L1004.95,926.6L999.192,926.6L999.192,890.6L1004.95,890.6L1004.95,905.648L1021.22,905.648L1021.22,890.6L1026.98,890.6L1026.98,926.6L1021.22,926.6L1021.22,910.688Z" style="fill-rule:nonzero;"/>
        <path d="M1036.06,908.6C1036.06,902.504 1037.41,897.836 1040.12,894.596C1042.84,891.356 1046.74,889.736 1051.82,889.736C1054.51,889.736 1056.85,890.18 1058.84,891.068C1060.84,891.956 1062.48,893.228 1063.78,894.884C1065.07,896.54 1066.03,898.532 1066.66,900.86C1067.28,903.188 1067.59,905.768 1067.59,908.6C1067.59,914.696 1066.24,919.364 1063.52,922.604C1060.81,925.844 1056.91,927.464 1051.82,927.464C1049.14,927.464 1046.8,927.02 1044.8,926.132C1042.81,925.244 1041.17,923.972 1039.87,922.316C1038.58,920.66 1037.62,918.668 1036.99,916.34C1036.37,914.012 1036.06,911.432 1036.06,908.6ZM1042.03,908.6C1042.03,910.424 1042.21,912.176 1042.57,913.856C1042.93,915.536 1043.5,917 1044.26,918.248C1045.03,919.496 1046.04,920.504 1047.29,921.272C1048.54,922.04 1050.05,922.424 1051.82,922.424C1058.35,922.472 1061.62,917.864 1061.62,908.6C1061.62,906.728 1061.44,904.952 1061.08,903.272C1060.72,901.592 1060.15,900.128 1059.38,898.88C1058.62,897.632 1057.61,896.636 1056.36,895.892C1055.11,895.148 1053.6,894.776 1051.82,894.776C1045.3,894.728 1042.03,899.336 1042.03,908.6Z" style="fill-rule:nonzero;"/>
        <path d="M1099.13,905.288L1099.34,900.824L1099.13,900.824L1096.18,905.432L1079.98,926.6L1076.66,926.6L1076.66,890.6L1082.42,890.6L1082.42,912.56L1082.21,916.808L1082.5,916.808L1085.3,912.344L1101.5,890.6L1104.89,890.6L1104.89,926.6L1099.13,926.6L1099.13,905.288ZM1084.94,876.056C1085.42,878.264 1086.25,879.8 1087.43,880.664C1088.6,881.528 1089.96,881.96 1091.5,881.96C1093.03,881.96 1094.4,881.504 1095.6,880.592C1096.8,879.68 1097.62,878.192 1098.05,876.128L1102.37,877.496C1101.94,880.28 1100.7,882.416 1098.66,883.904C1096.62,885.392 1094.18,886.136 1091.35,886.136C1090.06,886.136 1088.77,885.968 1087.5,885.632C1086.23,885.296 1085.09,884.792 1084.08,884.12C1083.07,883.448 1082.21,882.584 1081.49,881.528C1080.77,880.472 1080.29,879.224 1080.05,877.784L1084.94,876.056Z" style="fill-rule:nonzero;"/>
        <path d="M1156.22,895.64L1140.96,895.64L1140.96,926.6L1135.2,926.6L1135.2,890.6L1156.22,890.6L1156.22,895.64Z" style="fill-rule:nonzero;"/>
        <path d="M1161.77,890.6L1165.73,890.6L1166.81,894.92L1167.1,894.92C1168.2,893.24 1169.63,891.956 1171.38,891.068C1173.13,890.18 1175.14,889.736 1177.39,889.736C1182.19,889.736 1185.77,891.152 1188.12,893.984C1190.47,896.816 1191.65,901.448 1191.65,907.88C1191.65,910.904 1191.25,913.628 1190.46,916.052C1189.67,918.476 1188.55,920.528 1187.11,922.208C1185.67,923.888 1183.93,925.184 1181.89,926.096C1179.85,927.008 1177.58,927.464 1175.09,927.464C1173.31,927.464 1171.91,927.356 1170.88,927.14C1169.84,926.924 1168.73,926.552 1167.53,926.024L1167.53,941L1161.77,941L1161.77,890.6ZM1176.31,894.776C1173.86,894.776 1171.93,895.412 1170.52,896.684C1169.1,897.956 1168.1,899.888 1167.53,902.48L1167.53,920.336C1168.39,921.008 1169.38,921.524 1170.48,921.884C1171.58,922.244 1173.05,922.424 1174.87,922.424C1178.18,922.424 1180.81,921.188 1182.76,918.716C1184.7,916.244 1185.67,912.608 1185.67,907.808C1185.67,905.84 1185.5,904.052 1185.17,902.444C1184.83,900.836 1184.29,899.468 1183.55,898.34C1182.8,897.212 1181.84,896.336 1180.67,895.712C1179.49,895.088 1178.04,894.776 1176.31,894.776Z" style="fill-rule:nonzero;"/>
        <path d="M1200.14,893.264C1201.97,892.16 1204.09,891.344 1206.52,890.816C1208.94,890.288 1211.47,890.024 1214.11,890.024C1216.61,890.024 1218.61,890.36 1220.12,891.032C1221.64,891.704 1222.79,892.58 1223.58,893.66C1224.37,894.74 1224.9,895.928 1225.16,897.224C1225.43,898.52 1225.56,899.816 1225.56,901.112C1225.56,903.992 1225.49,906.8 1225.34,909.536C1225.2,912.272 1225.13,914.864 1225.13,917.312C1225.13,919.088 1225.2,920.768 1225.34,922.352C1225.49,923.936 1225.75,925.4 1226.14,926.744L1221.89,926.744L1220.38,921.704L1220.02,921.704C1219.58,922.376 1219.04,923.036 1218.4,923.684C1217.75,924.332 1216.97,924.908 1216.06,925.412C1215.14,925.916 1214.09,926.336 1212.89,926.672C1211.69,927.008 1210.32,927.176 1208.78,927.176C1207.25,927.176 1205.82,926.936 1204.5,926.456C1203.18,925.976 1202.04,925.292 1201.08,924.404C1200.12,923.516 1199.36,922.448 1198.81,921.2C1198.26,919.952 1197.98,918.536 1197.98,916.952C1197.98,914.84 1198.42,913.076 1199.28,911.66C1200.14,910.244 1201.36,909.116 1202.92,908.276C1204.48,907.436 1206.35,906.836 1208.53,906.476C1210.72,906.116 1213.13,905.936 1215.77,905.936L1217.75,905.936C1218.4,905.936 1219.06,905.984 1219.73,906.08C1219.87,904.64 1219.94,903.344 1219.94,902.192C1219.94,899.552 1219.42,897.704 1218.36,896.648C1217.3,895.592 1215.38,895.064 1212.6,895.064C1211.78,895.064 1210.91,895.124 1209.97,895.244C1209.04,895.364 1208.08,895.532 1207.09,895.748C1206.11,895.964 1205.17,896.228 1204.28,896.54C1203.4,896.852 1202.62,897.2 1201.94,897.584L1200.14,893.264ZM1210.37,922.136C1211.71,922.136 1212.91,921.956 1213.97,921.596C1215.02,921.236 1215.94,920.78 1216.7,920.228C1217.47,919.676 1218.11,919.064 1218.61,918.392C1219.12,917.72 1219.49,917.072 1219.73,916.448L1219.73,910.472C1219.06,910.424 1218.37,910.388 1217.68,910.364C1216.98,910.34 1216.3,910.328 1215.62,910.328C1214.14,910.328 1212.68,910.412 1211.27,910.58C1209.85,910.748 1208.6,911.06 1207.52,911.516C1206.44,911.972 1205.58,912.596 1204.93,913.388C1204.28,914.18 1203.96,915.176 1203.96,916.376C1203.96,918.056 1204.56,919.436 1205.76,920.516C1206.96,921.596 1208.5,922.136 1210.37,922.136Z" style="fill-rule:nonzero;"/>
        <path d="M1258.46,910.688L1242.19,910.688L1242.19,926.6L1236.43,926.6L1236.43,890.6L1242.19,890.6L1242.19,905.648L1258.46,905.648L1258.46,890.6L1264.22,890.6L1264.22,926.6L1258.46,926.6L1258.46,910.688Z" style="fill-rule:nonzero;"/>
        <path d="M1297.78,905.288L1297.99,900.824L1297.78,900.824L1294.82,905.432L1278.62,926.6L1275.31,926.6L1275.31,890.6L1281.07,890.6L1281.07,912.56L1280.86,916.808L1281.14,916.808L1283.95,912.344L1300.15,890.6L1303.54,890.6L1303.54,926.6L1297.78,926.6L1297.78,905.288Z" style="fill-rule:nonzero;"/>
        <path d="M1346.95,935.744L1343.06,935.744L1341.98,926.6L1314.62,926.6L1314.62,890.6L1320.38,890.6L1320.38,921.56L1336.01,921.56L1336.01,890.6L1341.77,890.6L1341.77,921.56L1346.95,921.56L1346.95,935.744Z" style="fill-rule:nonzero;"/>
        <path d="M1359.84,921.56C1361.62,921.848 1363.32,921.992 1364.95,921.992C1367.98,921.992 1370.09,921.404 1371.29,920.228C1372.49,919.052 1373.09,917.384 1373.09,915.224C1373.09,913.304 1372.5,911.72 1371.32,910.472C1370.15,909.224 1368.1,908.6 1365.17,908.6C1364.35,908.6 1363.46,908.624 1362.5,908.672C1361.54,908.72 1360.66,908.864 1359.84,909.104L1359.84,921.56ZM1359.84,904.352C1360.99,904.16 1362.1,904.028 1363.15,903.956C1364.21,903.884 1365.22,903.848 1366.18,903.848C1368.62,903.848 1370.68,904.124 1372.33,904.676C1373.99,905.228 1375.32,905.984 1376.33,906.944C1377.34,907.904 1378.04,909.044 1378.45,910.364C1378.86,911.684 1379.06,913.088 1379.06,914.576C1379.06,918.944 1377.85,922.112 1375.43,924.08C1373,926.048 1369.08,927.032 1363.66,927.032C1360.58,927.032 1357.39,926.888 1354.08,926.6L1354.08,890.6L1359.84,890.6L1359.84,904.352ZM1384.75,890.6L1390.51,890.6L1390.51,926.6L1384.75,926.6L1384.75,890.6Z" style="fill-rule:nonzero;"/>
        <path d="M425.67,422.581L422.286,422.581L422.286,445.909L416.31,445.909L416.31,395.509L422.286,395.509L422.286,418.981L425.526,417.973L442.446,395.509L449.358,395.509L432.51,417.181L429.486,419.557L433.158,422.437L451.59,445.909L444.03,445.909L425.67,422.581Z" style="fill-rule:nonzero;"/>
        <path d="M452.958,427.909C452.958,421.813 454.314,417.145 457.026,413.905C459.738,410.665 463.638,409.045 468.726,409.045C471.414,409.045 473.754,409.489 475.746,410.377C477.738,411.265 479.382,412.537 480.678,414.193C481.974,415.849 482.934,417.841 483.558,420.169C484.182,422.497 484.494,425.077 484.494,427.909C484.494,434.005 483.138,438.673 480.426,441.913C477.714,445.153 473.814,446.773 468.726,446.773C466.038,446.773 463.698,446.329 461.706,445.441C459.714,444.553 458.07,443.281 456.774,441.625C455.478,439.969 454.518,437.977 453.894,435.649C453.27,433.321 452.958,430.741 452.958,427.909ZM458.934,427.909C458.934,429.733 459.114,431.485 459.474,433.165C459.834,434.845 460.398,436.309 461.166,437.557C461.934,438.805 462.942,439.813 464.19,440.581C465.438,441.349 466.95,441.733 468.726,441.733C475.254,441.781 478.518,437.173 478.518,427.909C478.518,426.037 478.338,424.261 477.978,422.581C477.618,420.901 477.054,419.437 476.286,418.189C475.518,416.941 474.51,415.945 473.262,415.201C472.014,414.457 470.502,414.085 468.726,414.085C462.198,414.037 458.934,418.645 458.934,427.909Z" style="fill-rule:nonzero;"/>
        <path d="M523.302,424.525L523.734,417.685L523.374,417.685L520.782,423.229L512.07,437.341L510.054,437.341L500.982,423.229L498.606,417.685L498.318,417.685L498.894,424.453L498.894,445.909L493.566,445.909L493.566,409.909L499.254,409.909L509.334,426.037L511.422,430.213L511.566,430.213L513.726,425.893L523.158,409.909L528.918,409.909L528.918,445.909L523.302,445.909L523.302,424.525Z" style="fill-rule:nonzero;"/>
        <path d="M543.318,416.317C544.902,414.013 546.654,412.393 548.574,411.457C550.494,410.521 552.894,410.053 555.774,410.053C560.19,410.053 563.586,411.493 565.962,414.373C568.338,417.253 569.526,421.501 569.526,427.117C569.526,433.597 568.146,438.493 565.386,441.805C562.626,445.117 558.774,446.773 553.83,446.773C548.55,446.773 544.59,444.949 541.95,441.301C539.31,437.653 537.99,431.917 537.99,424.093C537.99,419.965 538.194,416.437 538.602,413.509C539.01,410.581 539.61,408.109 540.402,406.093C541.194,404.077 542.154,402.469 543.282,401.269C544.41,400.069 545.682,399.121 547.098,398.425C548.514,397.729 550.062,397.237 551.742,396.949C553.422,396.661 555.222,396.421 557.142,396.229C559.638,395.989 561.594,395.713 563.01,395.401C564.426,395.089 565.566,394.525 566.43,393.709L567.078,398.893C566.598,399.325 566.07,399.685 565.494,399.973C564.918,400.261 564.222,400.501 563.406,400.693C562.59,400.885 561.618,401.053 560.49,401.197C559.362,401.341 558.054,401.461 556.566,401.557C554.502,401.701 552.69,401.953 551.13,402.313C549.57,402.673 548.226,403.369 547.098,404.401C545.97,405.433 545.082,406.897 544.434,408.793C543.786,410.689 543.342,413.197 543.102,416.317L543.318,416.317ZM543.966,427.981C543.966,429.805 544.158,431.557 544.542,433.237C544.926,434.917 545.514,436.393 546.306,437.665C547.098,438.937 548.118,439.933 549.366,440.653C550.614,441.373 552.078,441.733 553.758,441.733C557.07,441.733 559.53,440.545 561.138,438.169C562.746,435.793 563.55,432.277 563.55,427.621C563.55,425.797 563.382,424.117 563.046,422.581C562.71,421.045 562.182,419.713 561.462,418.585C560.742,417.457 559.83,416.593 558.726,415.993C557.622,415.393 556.302,415.093 554.766,415.093C551.022,415.045 548.286,416.137 546.558,418.369C544.83,420.601 543.966,423.805 543.966,427.981Z" style="fill-rule:nonzero;"/>
        <path d="M601.062,424.597L601.278,420.133L601.062,420.133L598.11,424.741L581.91,445.909L578.598,445.909L578.598,409.909L584.358,409.909L584.358,431.869L584.142,436.117L584.43,436.117L587.238,431.653L603.438,409.909L606.822,409.909L606.822,445.909L601.062,445.909L601.062,424.597Z" style="fill-rule:nonzero;"/>
        <path d="M639.942,429.997L623.67,429.997L623.67,445.909L617.91,445.909L617.91,409.909L623.67,409.909L623.67,424.957L639.942,424.957L639.942,409.909L645.702,409.909L645.702,445.909L639.942,445.909L639.942,429.997Z" style="fill-rule:nonzero;"/>
        <path d="M656.214,412.573C658.038,411.469 660.162,410.653 662.586,410.125C665.01,409.597 667.542,409.333 670.182,409.333C672.678,409.333 674.682,409.669 676.194,410.341C677.706,411.013 678.858,411.889 679.65,412.969C680.442,414.049 680.97,415.237 681.234,416.533C681.498,417.829 681.63,419.125 681.63,420.421C681.63,423.301 681.558,426.109 681.414,428.845C681.27,431.581 681.198,434.173 681.198,436.621C681.198,438.397 681.27,440.077 681.414,441.661C681.558,443.245 681.822,444.709 682.206,446.053L677.958,446.053L676.446,441.013L676.086,441.013C675.654,441.685 675.114,442.345 674.466,442.993C673.818,443.641 673.038,444.217 672.126,444.721C671.214,445.225 670.158,445.645 668.958,445.981C667.758,446.317 666.39,446.485 664.854,446.485C663.318,446.485 661.89,446.245 660.57,445.765C659.25,445.285 658.11,444.601 657.15,443.713C656.19,442.825 655.434,441.757 654.882,440.509C654.33,439.261 654.054,437.845 654.054,436.261C654.054,434.149 654.486,432.385 655.35,430.969C656.214,429.553 657.426,428.425 658.986,427.585C660.546,426.745 662.418,426.145 664.602,425.785C666.786,425.425 669.198,425.245 671.838,425.245L673.818,425.245C674.466,425.245 675.126,425.293 675.798,425.389C675.942,423.949 676.014,422.653 676.014,421.501C676.014,418.861 675.486,417.013 674.43,415.957C673.374,414.901 671.454,414.373 668.67,414.373C667.854,414.373 666.978,414.433 666.042,414.553C665.106,414.673 664.146,414.841 663.162,415.057C662.178,415.273 661.242,415.537 660.354,415.849C659.466,416.161 658.686,416.509 658.014,416.893L656.214,412.573ZM666.438,441.445C667.782,441.445 668.982,441.265 670.038,440.905C671.094,440.545 672.006,440.089 672.774,439.537C673.542,438.985 674.178,438.373 674.682,437.701C675.186,437.029 675.558,436.381 675.798,435.757L675.798,429.781C675.126,429.733 674.442,429.697 673.746,429.673C673.05,429.649 672.366,429.637 671.694,429.637C670.206,429.637 668.754,429.721 667.338,429.889C665.922,430.057 664.674,430.369 663.594,430.825C662.514,431.281 661.65,431.905 661.002,432.697C660.354,433.489 660.03,434.485 660.03,435.685C660.03,437.365 660.63,438.745 661.83,439.825C663.03,440.905 664.566,441.445 666.438,441.445Z" style="fill-rule:nonzero;"/>
        <path d="M715.398,414.949L704.166,414.949L704.166,445.909L698.406,445.909L698.406,414.949L687.174,414.949L687.174,409.909L715.398,409.909L715.398,414.949Z" style="fill-rule:nonzero;"/>
        <path d="M719.07,427.909C719.07,421.813 720.426,417.145 723.138,413.905C725.85,410.665 729.75,409.045 734.838,409.045C737.526,409.045 739.866,409.489 741.858,410.377C743.85,411.265 745.494,412.537 746.79,414.193C748.086,415.849 749.046,417.841 749.67,420.169C750.294,422.497 750.606,425.077 750.606,427.909C750.606,434.005 749.25,438.673 746.538,441.913C743.826,445.153 739.926,446.773 734.838,446.773C732.15,446.773 729.81,446.329 727.818,445.441C725.826,444.553 724.182,443.281 722.886,441.625C721.59,439.969 720.63,437.977 720.006,435.649C719.382,433.321 719.07,430.741 719.07,427.909ZM725.046,427.909C725.046,429.733 725.226,431.485 725.586,433.165C725.946,434.845 726.51,436.309 727.278,437.557C728.046,438.805 729.054,439.813 730.302,440.581C731.55,441.349 733.062,441.733 734.838,441.733C741.366,441.781 744.63,437.173 744.63,427.909C744.63,426.037 744.45,424.261 744.09,422.581C743.73,420.901 743.166,419.437 742.398,418.189C741.63,416.941 740.622,415.945 739.374,415.201C738.126,414.457 736.614,414.085 734.838,414.085C728.31,414.037 725.046,418.645 725.046,427.909Z" style="fill-rule:nonzero;"/>
        <path d="M759.678,409.909L763.638,409.909L764.718,414.229L765.006,414.229C766.11,412.549 767.538,411.265 769.29,410.377C771.042,409.489 773.046,409.045 775.302,409.045C780.102,409.045 783.678,410.461 786.03,413.293C788.382,416.125 789.558,420.757 789.558,427.189C789.558,430.213 789.162,432.937 788.37,435.361C787.578,437.785 786.462,439.837 785.022,441.517C783.582,443.197 781.842,444.493 779.802,445.405C777.762,446.317 775.494,446.773 772.998,446.773C771.222,446.773 769.818,446.665 768.786,446.449C767.754,446.233 766.638,445.861 765.438,445.333L765.438,460.309L759.678,460.309L759.678,409.909ZM774.222,414.085C771.774,414.085 769.842,414.721 768.426,415.993C767.01,417.265 766.014,419.197 765.438,421.789L765.438,439.645C766.302,440.317 767.286,440.833 768.39,441.193C769.494,441.553 770.958,441.733 772.782,441.733C776.094,441.733 778.722,440.497 780.666,438.025C782.61,435.553 783.582,431.917 783.582,427.117C783.582,425.149 783.414,423.361 783.078,421.753C782.742,420.145 782.202,418.777 781.458,417.649C780.714,416.521 779.754,415.645 778.578,415.021C777.402,414.397 775.95,414.085 774.222,414.085Z" style="fill-rule:nonzero;"/>
        <path d="M820.662,429.997L804.39,429.997L804.39,445.909L798.63,445.909L798.63,409.909L804.39,409.909L804.39,424.957L820.662,424.957L820.662,409.909L826.422,409.909L826.422,445.909L820.662,445.909L820.662,429.997Z" style="fill-rule:nonzero;"/>
        <path d="M836.934,412.573C838.758,411.469 840.882,410.653 843.306,410.125C845.73,409.597 848.262,409.333 850.902,409.333C853.398,409.333 855.402,409.669 856.914,410.341C858.426,411.013 859.578,411.889 860.37,412.969C861.162,414.049 861.69,415.237 861.954,416.533C862.218,417.829 862.35,419.125 862.35,420.421C862.35,423.301 862.278,426.109 862.134,428.845C861.99,431.581 861.918,434.173 861.918,436.621C861.918,438.397 861.99,440.077 862.134,441.661C862.278,443.245 862.542,444.709 862.926,446.053L858.678,446.053L857.166,441.013L856.806,441.013C856.374,441.685 855.834,442.345 855.186,442.993C854.538,443.641 853.758,444.217 852.846,444.721C851.934,445.225 850.878,445.645 849.678,445.981C848.478,446.317 847.11,446.485 845.574,446.485C844.038,446.485 842.61,446.245 841.29,445.765C839.97,445.285 838.83,444.601 837.87,443.713C836.91,442.825 836.154,441.757 835.602,440.509C835.05,439.261 834.774,437.845 834.774,436.261C834.774,434.149 835.206,432.385 836.07,430.969C836.934,429.553 838.146,428.425 839.706,427.585C841.266,426.745 843.138,426.145 845.322,425.785C847.506,425.425 849.918,425.245 852.558,425.245L854.538,425.245C855.186,425.245 855.846,425.293 856.518,425.389C856.662,423.949 856.734,422.653 856.734,421.501C856.734,418.861 856.206,417.013 855.15,415.957C854.094,414.901 852.174,414.373 849.39,414.373C848.574,414.373 847.698,414.433 846.762,414.553C845.826,414.673 844.866,414.841 843.882,415.057C842.898,415.273 841.962,415.537 841.074,415.849C840.186,416.161 839.406,416.509 838.734,416.893L836.934,412.573ZM847.158,441.445C848.502,441.445 849.702,441.265 850.758,440.905C851.814,440.545 852.726,440.089 853.494,439.537C854.262,438.985 854.898,438.373 855.402,437.701C855.906,437.029 856.278,436.381 856.518,435.757L856.518,429.781C855.846,429.733 855.162,429.697 854.466,429.673C853.77,429.649 853.086,429.637 852.414,429.637C850.926,429.637 849.474,429.721 848.058,429.889C846.642,430.057 845.394,430.369 844.314,430.825C843.234,431.281 842.37,431.905 841.722,432.697C841.074,433.489 840.75,434.485 840.75,435.685C840.75,437.365 841.35,438.745 842.55,439.825C843.75,440.905 845.286,441.445 847.158,441.445Z" style="fill-rule:nonzero;"/>
        <path d="M891.15,431.005L885.606,431.869L876.102,445.909L869.118,445.909L877.758,433.597L880.638,430.933C878.142,430.549 876.018,429.541 874.266,427.909C872.514,426.277 871.638,424.069 871.638,421.285C871.638,419.125 872.01,417.277 872.754,415.741C873.498,414.205 874.566,412.933 875.958,411.925C877.35,410.917 879.006,410.185 880.926,409.729C882.846,409.273 885.006,409.045 887.406,409.045C889.182,409.045 890.838,409.165 892.374,409.405C893.91,409.645 895.422,409.909 896.91,410.197L896.91,445.909L891.15,445.909L891.15,431.005ZM891.15,414.805C890.526,414.565 889.83,414.385 889.062,414.265C888.294,414.145 887.622,414.085 887.046,414.085C883.974,414.085 881.634,414.637 880.026,415.741C878.418,416.845 877.614,418.597 877.614,420.997C877.614,423.157 878.466,424.825 880.17,426.001C881.874,427.177 884.118,427.765 886.902,427.765L887.694,427.765C887.982,427.765 888.39,427.753 888.918,427.729C889.446,427.705 890.19,427.669 891.15,427.621L891.15,414.805Z" style="fill-rule:nonzero;"/>
        <path d="M947.67,414.949L932.406,414.949L932.406,445.909L926.646,445.909L926.646,409.909L947.67,409.909L947.67,414.949Z" style="fill-rule:nonzero;"/>
        <path d="M953.214,409.909L957.174,409.909L958.254,414.229L958.542,414.229C959.646,412.549 961.074,411.265 962.826,410.377C964.578,409.489 966.582,409.045 968.838,409.045C973.638,409.045 977.214,410.461 979.566,413.293C981.918,416.125 983.094,420.757 983.094,427.189C983.094,430.213 982.698,432.937 981.906,435.361C981.114,437.785 979.998,439.837 978.558,441.517C977.118,443.197 975.378,444.493 973.338,445.405C971.298,446.317 969.03,446.773 966.534,446.773C964.758,446.773 963.354,446.665 962.322,446.449C961.29,446.233 960.174,445.861 958.974,445.333L958.974,460.309L953.214,460.309L953.214,409.909ZM967.758,414.085C965.31,414.085 963.378,414.721 961.962,415.993C960.546,417.265 959.55,419.197 958.974,421.789L958.974,439.645C959.838,440.317 960.822,440.833 961.926,441.193C963.03,441.553 964.494,441.733 966.318,441.733C969.63,441.733 972.258,440.497 974.202,438.025C976.146,435.553 977.118,431.917 977.118,427.117C977.118,425.149 976.95,423.361 976.614,421.753C976.278,420.145 975.738,418.777 974.994,417.649C974.25,416.521 973.29,415.645 972.114,415.021C970.938,414.397 969.486,414.085 967.758,414.085Z" style="fill-rule:nonzero;"/>
        <path d="M991.59,412.573C993.414,411.469 995.538,410.653 997.962,410.125C1000.39,409.597 1002.92,409.333 1005.56,409.333C1008.05,409.333 1010.06,409.669 1011.57,410.341C1013.08,411.013 1014.23,411.889 1015.03,412.969C1015.82,414.049 1016.35,415.237 1016.61,416.533C1016.87,417.829 1017.01,419.125 1017.01,420.421C1017.01,423.301 1016.93,426.109 1016.79,428.845C1016.65,431.581 1016.57,434.173 1016.57,436.621C1016.57,438.397 1016.65,440.077 1016.79,441.661C1016.93,443.245 1017.2,444.709 1017.58,446.053L1013.33,446.053L1011.82,441.013L1011.46,441.013C1011.03,441.685 1010.49,442.345 1009.84,442.993C1009.19,443.641 1008.41,444.217 1007.5,444.721C1006.59,445.225 1005.53,445.645 1004.33,445.981C1003.13,446.317 1001.77,446.485 1000.23,446.485C998.694,446.485 997.266,446.245 995.946,445.765C994.626,445.285 993.486,444.601 992.526,443.713C991.566,442.825 990.81,441.757 990.258,440.509C989.706,439.261 989.43,437.845 989.43,436.261C989.43,434.149 989.862,432.385 990.726,430.969C991.59,429.553 992.802,428.425 994.362,427.585C995.922,426.745 997.794,426.145 999.978,425.785C1002.16,425.425 1004.57,425.245 1007.21,425.245L1009.19,425.245C1009.84,425.245 1010.5,425.293 1011.17,425.389C1011.32,423.949 1011.39,422.653 1011.39,421.501C1011.39,418.861 1010.86,417.013 1009.81,415.957C1008.75,414.901 1006.83,414.373 1004.05,414.373C1003.23,414.373 1002.35,414.433 1001.42,414.553C1000.48,414.673 999.522,414.841 998.538,415.057C997.554,415.273 996.618,415.537 995.73,415.849C994.842,416.161 994.062,416.509 993.39,416.893L991.59,412.573ZM1001.81,441.445C1003.16,441.445 1004.36,441.265 1005.41,440.905C1006.47,440.545 1007.38,440.089 1008.15,439.537C1008.92,438.985 1009.55,438.373 1010.06,437.701C1010.56,437.029 1010.93,436.381 1011.17,435.757L1011.17,429.781C1010.5,429.733 1009.82,429.697 1009.12,429.673C1008.43,429.649 1007.74,429.637 1007.07,429.637C1005.58,429.637 1004.13,429.721 1002.71,429.889C1001.3,430.057 1000.05,430.369 998.97,430.825C997.89,431.281 997.026,431.905 996.378,432.697C995.73,433.489 995.406,434.485 995.406,435.685C995.406,437.365 996.006,438.745 997.206,439.825C998.406,440.905 999.942,441.445 1001.81,441.445Z" style="fill-rule:nonzero;"/>
        <path d="M1049.91,429.997L1033.64,429.997L1033.64,445.909L1027.88,445.909L1027.88,409.909L1033.64,409.909L1033.64,424.957L1049.91,424.957L1049.91,409.909L1055.67,409.909L1055.67,445.909L1049.91,445.909L1049.91,429.997Z" style="fill-rule:nonzero;"/>
        <path d="M1089.22,424.597L1089.44,420.133L1089.22,420.133L1086.27,424.741L1070.07,445.909L1066.76,445.909L1066.76,409.909L1072.52,409.909L1072.52,431.869L1072.3,436.117L1072.59,436.117L1075.4,431.653L1091.6,409.909L1094.98,409.909L1094.98,445.909L1089.22,445.909L1089.22,424.597Z" style="fill-rule:nonzero;"/>
        <path d="M1138.4,455.053L1134.51,455.053L1133.43,445.909L1106.07,445.909L1106.07,409.909L1111.83,409.909L1111.83,440.869L1127.45,440.869L1127.45,409.909L1133.21,409.909L1133.21,440.869L1138.4,440.869L1138.4,455.053Z" style="fill-rule:nonzero;"/>
        <path d="M1144.95,412.573C1146.77,411.469 1148.9,410.653 1151.32,410.125C1153.75,409.597 1156.28,409.333 1158.92,409.333C1161.41,409.333 1163.42,409.669 1164.93,410.341C1166.44,411.013 1167.59,411.889 1168.39,412.969C1169.18,414.049 1169.71,415.237 1169.97,416.533C1170.23,417.829 1170.37,419.125 1170.37,420.421C1170.37,423.301 1170.29,426.109 1170.15,428.845C1170.01,431.581 1169.93,434.173 1169.93,436.621C1169.93,438.397 1170.01,440.077 1170.15,441.661C1170.29,443.245 1170.56,444.709 1170.94,446.053L1166.69,446.053L1165.18,441.013L1164.82,441.013C1164.39,441.685 1163.85,442.345 1163.2,442.993C1162.55,443.641 1161.77,444.217 1160.86,444.721C1159.95,445.225 1158.89,445.645 1157.69,445.981C1156.49,446.317 1155.13,446.485 1153.59,446.485C1152.05,446.485 1150.63,446.245 1149.31,445.765C1147.99,445.285 1146.85,444.601 1145.89,443.713C1144.93,442.825 1144.17,441.757 1143.62,440.509C1143.07,439.261 1142.79,437.845 1142.79,436.261C1142.79,434.149 1143.22,432.385 1144.09,430.969C1144.95,429.553 1146.16,428.425 1147.72,427.585C1149.28,426.745 1151.15,426.145 1153.34,425.785C1155.52,425.425 1157.93,425.245 1160.57,425.245L1162.55,425.245C1163.2,425.245 1163.86,425.293 1164.53,425.389C1164.68,423.949 1164.75,422.653 1164.75,421.501C1164.75,418.861 1164.22,417.013 1163.17,415.957C1162.11,414.901 1160.19,414.373 1157.41,414.373C1156.59,414.373 1155.71,414.433 1154.78,414.553C1153.84,414.673 1152.88,414.841 1151.9,415.057C1150.91,415.273 1149.98,415.537 1149.09,415.849C1148.2,416.161 1147.42,416.509 1146.75,416.893L1144.95,412.573ZM1155.17,441.445C1156.52,441.445 1157.72,441.265 1158.77,440.905C1159.83,440.545 1160.74,440.089 1161.51,439.537C1162.28,438.985 1162.91,438.373 1163.42,437.701C1163.92,437.029 1164.29,436.381 1164.53,435.757L1164.53,429.781C1163.86,429.733 1163.18,429.697 1162.48,429.673C1161.79,429.649 1161.1,429.637 1160.43,429.637C1158.94,429.637 1157.49,429.721 1156.07,429.889C1154.66,430.057 1153.41,430.369 1152.33,430.825C1151.25,431.281 1150.39,431.905 1149.74,432.697C1149.09,433.489 1148.77,434.485 1148.77,435.685C1148.77,437.365 1149.37,438.745 1150.57,439.825C1151.77,440.905 1153.3,441.445 1155.17,441.445Z" style="fill-rule:nonzero;"/>
        <circle cx="72.5" cy="149.3" r="14.5"/>
        <circle cx="508.297" cy="113.389" r="14.5"/>
        <circle cx="71.5" cy="632.603" r="14.5"/>
        <path d="M214,-349.35L507.853,-475.233L760.178,-430.409" style="fill:none;stroke:rgb(250,112,255);stroke-width:24px;"/>
        <path d="M894,692.536L1098,502.751L1344,617.827L1192,839.231L894,692.536ZM1025,658.528L1141,588.213L1222,692.536L1124,736.943L1025,658.528Z" style="fill:rgb(194,194,194);stroke:rgb(45,231,231);stroke-width:24px;stroke-linejoin:round;"/>
        <path d="M862,213.119L1066,23.334L1312,138.409L1160,359.813L862,213.119ZM993,179.11L1109,108.795L1190,213.119L1092,257.525L993,179.11Z" style="fill:rgb(194,194,194);"/>
        <path d="M246,716.432L539.853,590.55L792.178,635.373" style="fill:none;stroke:black;stroke-width:7px;"/>
        <path d="M214,235.741L507.853,109.858L760.178,154.682" style="fill:none;stroke:black;stroke-width:7px;"/>
        <path d="M894,692.536L1098,502.751L1344,617.827L1192,839.231L894,692.536ZM1025,658.528L1141,588.213L1222,692.536L1124,736.943L1025,658.528Z" style="fill:none;stroke:black;stroke-width:7px;"/>
        <path d="M18,906.6L214,906.6" style="fill:none;stroke:rgb(45,231,231);stroke-width:20px;"/>
        <path d="M138,427.909L166,427.909" style="fill:none;stroke:rgb(45,231,231);stroke-width:20px;"/>
        <path d="M166.5,427.909L194.5,427.909" style="fill:none;stroke:rgb(250,112,255);stroke-width:20px;"/>
        <path d="M195.001,427.909L223.001,427.909" style="fill:none;stroke:rgb(144,250,46);stroke-width:20px;"/>
        <path d="M223.501,427.909L251.501,427.909" style="fill:none;stroke:rgb(244,251,46);stroke-width:20px;"/>
        <path d="M252.001,427.909L280.001,427.909" style="fill:none;stroke:rgb(250,46,46);stroke-width:20px;"/>
        <path d="M280.501,427.909L308.501,427.909" style="fill:none;stroke:rgb(250,189,46);stroke-width:20px;"/>
        <path d="M309.002,427.909L337.002,427.909" style="fill:none;stroke:rgb(172,46,250);stroke-width:20px;"/>
        <path d="M337.502,427.909L365.502,427.909" style="fill:none;stroke:rgb(46,124,250);stroke-width:20px;"/>
        <circle cx="214" cy="235.741" r="19.833" style="fill:rgb(45,231,231);"/>
        <circle cx="246" cy="718.25" r="19.833" style="fill:rgb(45,231,231);"/>
        <circle cx="757.943" cy="157.331" r="19.833" style="fill:rgb(250,112,255);"/>
        <circle cx="789.943" cy="637.84" r="19.833" style="fill:rgb(45,231,231);"/>
        <path d="M1066,23.334L1310.05,137.498" style="fill:none;stroke:rgb(250,112,255);stroke-width:20px;stroke-linecap:round;"/>
        <path d="M993,179.11L1092,257.525" style="fill:none;stroke:rgb(46,124,250);stroke-width:19px;stroke-linecap:round;"/>
        <path d="M1066,23.334L862,213.119" style="fill:none;stroke:rgb(45,231,231);stroke-width:20px;stroke-linecap:round;"/>
        <path d="M862,213.119L1160,359.813" style="fill:none;stroke:rgb(244,251,46);stroke-width:20px;stroke-linecap:round;"/>
        <path d="M1160,359.813L1310.05,137.498" style="fill:none;stroke:rgb(144,250,46);stroke-width:20px;stroke-linecap:round;"/>
        <path d="M862,213.119L993,179.11" style="fill:none;stroke:black;stroke-width:2px;stroke-linecap:round;"/>
        <path d="M1109,108.795L1066,23.334" style="fill:none;stroke:black;stroke-width:2px;stroke-linecap:round;"/>
        <path d="M1190,213.119L1310.05,137.498" style="fill:none;stroke:black;stroke-width:2px;stroke-linecap:round;"/>
        <path d="M1092,257.525L1160,359.813" style="fill:none;stroke:black;stroke-width:2px;stroke-linecap:round;"/>
        <path d="M1190,213.119L1160,359.813" style="fill:none;stroke:black;stroke-width:2px;stroke-linecap:round;"/>
        <path d="M1109,108.795L1310.05,137.498" style="fill:none;stroke:black;stroke-width:2px;stroke-linecap:round;"/>
        <path d="M1092,257.525L862,213.119" style="fill:none;stroke:black;stroke-width:2px;stroke-linecap:round;"/>
        <path d="M993,179.11L1066,23.334" style="fill:none;stroke:black;stroke-width:2px;stroke-linecap:round;"/>
        <path d="M993,179.11L1109,108.795" style="fill:none;stroke:rgb(250,46,46);stroke-width:19px;stroke-linecap:round;"/>
        <path d="M1109,108.795L1190,213.119" style="fill:none;stroke:rgb(250,189,46);stroke-width:19px;stroke-linecap:round;"/>
        <path d="M1190,213.119L1092,257.525" style="fill:none;stroke:rgb(172,46,250);stroke-width:19px;stroke-linecap:round;"/>
        <path d="M862,213.119L1066,23.334L1312,138.409L1160,359.813L862,213.119ZM993,179.11L1109,108.795L1190,213.119L1092,257.525L993,179.11Z" style="fill:none;stroke:black;stroke-width:7px;"/>
        <circle cx="1066.5" cy="23.334" r="14.5"/>
        <circle cx="864.102" cy="210.94" r="14.5"/>
        <circle cx="997.869" cy="181.274" r="14.5"/>
        <circle cx="538.715" cy="594.111" r="14.5"/>
        <circle cx="1097.91" cy="505.745" r="14.5"/>
        <circle cx="892.537" cy="693.411" r="14.5"/>
        <circle cx="1342.87" cy="618.592" r="14.5"/>
        <circle cx="1194.54" cy="839.349" r="14.5"/>
        <circle cx="1219.6" cy="692.142" r="14.5"/>
        <circle cx="1141.29" cy="593.214" r="14.5"/>
        <circle cx="1025.77" cy="660.562" r="14.5"/>
        <circle cx="1120.33" cy="735.033" r="14.5"/>
        <circle cx="1107.78" cy="113.046" r="14.5"/>
        <circle cx="1311.69" cy="139.498" r="14.5"/>
        <circle cx="1189.7" cy="210.178" r="14.5"/>
        <circle cx="1092.13" cy="256.265" r="14.5"/>
        <circle cx="1158.24" cy="356.841" r="14.5"/>
    </g>
</svg>
