<?xml version="1.0" encoding="UTF-8" standalone="no"?>
<!DOCTYPE svg PUBLIC "-//W3C//DTD SVG 1.1//EN" "http://www.w3.org/Graphics/SVG/1.1/DTD/svg11.dtd">
<svg width="100%" height="100%" viewBox="0 0 540 999" version="1.1" xmlns="http://www.w3.org/2000/svg" xmlns:xlink="http://www.w3.org/1999/xlink" xml:space="preserve" xmlns:serif="http://www.serif.com/" style="fill-rule:evenodd;clip-rule:evenodd;stroke-linecap:round;stroke-linejoin:round;stroke-miterlimit:10;">
    <rect id="Spatial-Databases-2" serif:id="Spatial Databases 2" x="-50.911" y="-492" width="3858" height="5937" style="fill:none;"/>
    <path d="M134.791,694.404L187.653,965.893L314.914,854.948L134.791,694.404Z" style="fill:rgb(194,194,194);fill-opacity:0.49;stroke:black;stroke-width:7px;"/>
    <path d="M134.791,694.404L187.653,965.893L65.614,901.937L134.791,694.404Z" style="fill:rgb(194,194,194);fill-opacity:0.49;stroke:black;stroke-width:7px;"/>
    <path d="M357.06,354.346C357.06,361.797 351.011,367.846 343.56,367.846C336.109,367.846 330.06,361.797 330.06,354.346C330.06,346.895 336.109,340.846 343.56,340.846C351.011,340.846 357.06,346.895 357.06,354.346Z"/>
    <path d="M140.134,42.323C140.134,49.774 134.084,55.823 126.634,55.823C119.183,55.823 113.134,49.774 113.134,42.323C113.134,34.872 119.183,28.823 126.634,28.823C134.084,28.823 140.134,34.872 140.134,42.323Z"/>
    <path d="M364.779,31.048C364.779,38.499 358.73,44.548 351.279,44.548C343.828,44.548 337.779,38.499 337.779,31.048C337.779,23.597 343.828,17.548 351.279,17.548C358.73,17.548 364.779,23.597 364.779,31.048Z"/>
    <path d="M86.681,607.977C86.681,615.428 80.631,621.477 73.181,621.477C65.73,621.477 59.681,615.428 59.681,607.977C59.681,600.526 65.73,594.477 73.181,594.477C80.631,594.477 86.681,600.526 86.681,607.977Z"/>
    <path d="M201.671,332.92L25.716,400.537L103.175,156.351L201.671,332.92Z" style="fill:rgb(194,194,194);stroke:black;stroke-width:7px;"/>
    <path d="M237.06,537.873L423.06,585.873" style="fill:none;stroke:black;stroke-width:7px;stroke-linecap:butt;"/>
    <path d="M200.698,332.824L103.175,156.351L345.488,201.696L200.698,332.824Z" style="fill:rgb(194,194,194);stroke:black;stroke-width:7px;"/>
    <path d="M134.791,694.404L314.914,854.948L65.614,901.937L134.791,694.404Z" style="fill:rgb(194,194,194);fill-opacity:0.49;stroke:black;stroke-width:7px;"/>
    <path d="M314.914,854.948L187.653,965.893L65.614,901.937L314.914,854.948Z" style="fill:rgb(115,115,115);fill-opacity:0.49;stroke:black;stroke-width:7px;"/>
    <path d="M240.081,704.507C241.441,704.507 242.701,704.307 243.861,703.907C245.021,703.507 246.021,702.917 246.861,702.137C247.701,701.357 248.361,700.427 248.841,699.347C249.321,698.267 249.561,697.087 249.561,695.807C249.561,693.007 248.731,690.927 247.071,689.567C245.411,688.207 243.121,687.527 240.201,687.527L235.761,687.527L235.761,685.787L244.401,672.467L247.161,669.827L243.261,670.427L231.381,670.427L231.381,665.987L252.801,665.987L252.801,667.727L243.261,682.067L241.161,683.807L241.161,683.927L243.201,683.507C244.801,683.547 246.281,683.837 247.641,684.377C249.001,684.917 250.181,685.697 251.181,686.717C252.181,687.737 252.961,688.957 253.521,690.377C254.081,691.797 254.361,693.407 254.361,695.207C254.361,697.367 253.981,699.287 253.221,700.967C252.461,702.647 251.431,704.057 250.131,705.197C248.831,706.337 247.301,707.207 245.541,707.807C243.781,708.407 241.921,708.707 239.961,708.707C238.161,708.707 236.541,708.567 235.101,708.287C233.661,708.007 232.401,707.647 231.321,707.207L232.581,702.947C233.501,703.387 234.591,703.757 235.851,704.057C237.111,704.357 238.521,704.507 240.081,704.507Z" style="fill-rule:nonzero;"/>
    <rect x="262.281" y="688.487" width="14.52" height="4.44" style="fill-rule:nonzero;"/>
    <path d="M292.521,694.487L289.761,694.487L289.761,707.987L284.961,707.987L284.961,677.987L289.761,677.987L289.761,691.547L292.341,690.707L301.941,677.987L307.161,677.987L297.861,690.047L295.341,692.027L298.461,694.427L308.481,707.987L302.541,707.987L292.521,694.487Z" style="fill-rule:nonzero;"/>
    <path d="M311.961,692.987C311.961,687.907 313.091,684.017 315.351,681.317C317.611,678.617 320.861,677.267 325.101,677.267C327.341,677.267 329.291,677.637 330.951,678.377C332.611,679.117 333.981,680.177 335.061,681.557C336.141,682.937 336.941,684.597 337.461,686.537C337.981,688.477 338.241,690.627 338.241,692.987C338.241,698.067 337.111,701.957 334.851,704.657C332.591,707.357 329.341,708.707 325.101,708.707C322.861,708.707 320.911,708.337 319.251,707.597C317.591,706.857 316.221,705.797 315.141,704.417C314.061,703.037 313.261,701.377 312.741,699.437C312.221,697.497 311.961,695.347 311.961,692.987ZM316.941,692.987C316.941,694.507 317.091,695.967 317.391,697.367C317.691,698.767 318.161,699.987 318.801,701.027C319.441,702.067 320.281,702.907 321.321,703.547C322.361,704.187 323.621,704.507 325.101,704.507C330.541,704.547 333.261,700.707 333.261,692.987C333.261,691.427 333.111,689.947 332.811,688.547C332.511,687.147 332.041,685.927 331.401,684.887C330.761,683.847 329.921,683.017 328.881,682.397C327.841,681.777 326.581,681.467 325.101,681.467C319.661,681.427 316.941,685.267 316.941,692.987Z" style="fill-rule:nonzero;"/>
    <path d="M370.581,690.167L370.941,684.467L370.641,684.467L368.481,689.087L361.221,700.847L359.541,700.847L351.981,689.087L350.001,684.467L349.761,684.467L350.241,690.107L350.241,707.987L345.801,707.987L345.801,677.987L350.541,677.987L358.941,691.427L360.681,694.907L360.801,694.907L362.601,691.307L370.461,677.987L375.261,677.987L375.261,707.987L370.581,707.987L370.581,690.167Z" style="fill-rule:nonzero;"/>
    <path d="M402.561,682.187L389.301,682.187L389.301,707.987L384.501,707.987L384.501,677.987L407.361,677.987L407.361,707.987L402.561,707.987L402.561,682.187Z" style="fill-rule:nonzero;"/>
    <path d="M432.741,682.187L424.041,682.187C423.921,683.867 423.801,685.677 423.681,687.617C423.561,689.557 423.381,691.497 423.141,693.437C422.901,695.377 422.581,697.237 422.181,699.017C421.781,700.797 421.271,702.367 420.651,703.727C420.031,705.087 419.271,706.177 418.371,706.997C417.471,707.817 416.401,708.227 415.161,708.227C414.401,708.227 413.741,708.187 413.181,708.107C412.621,708.027 412.121,707.887 411.681,707.687L412.401,703.667C412.881,703.827 413.401,703.907 413.961,703.907C414.761,703.907 415.481,703.567 416.121,702.887C416.761,702.207 417.321,700.917 417.801,699.017C418.281,697.117 418.681,694.487 419.001,691.127C419.321,687.767 419.541,683.387 419.661,677.987L437.541,677.987L437.541,707.987L432.741,707.987L432.741,682.187Z" style="fill-rule:nonzero;"/>
    <path d="M468.681,705.587C467.481,706.547 465.971,707.307 464.151,707.867C462.331,708.427 460.401,708.707 458.361,708.707C456.081,708.707 454.101,708.337 452.421,707.597C450.741,706.857 449.361,705.797 448.281,704.417C447.201,703.037 446.401,701.387 445.881,699.467C445.361,697.547 445.101,695.387 445.101,692.987C445.101,687.867 446.241,683.967 448.521,681.287C450.801,678.607 454.061,677.267 458.301,677.267C459.661,677.267 461.021,677.417 462.381,677.717C463.741,678.017 464.961,678.587 466.041,679.427C467.121,680.267 468.001,681.457 468.681,682.997C469.361,684.537 469.701,686.567 469.701,689.087C469.701,690.407 469.581,691.867 469.341,693.467L450.081,693.467C450.081,695.227 450.261,696.787 450.621,698.147C450.981,699.507 451.541,700.657 452.301,701.597C453.061,702.537 454.051,703.257 455.271,703.757C456.491,704.257 457.981,704.507 459.741,704.507C461.101,704.507 462.461,704.267 463.821,703.787C465.181,703.307 466.201,702.747 466.881,702.107L468.681,705.587ZM458.361,681.467C456.001,681.467 454.111,682.087 452.691,683.327C451.271,684.567 450.421,686.687 450.141,689.687L465.021,689.687C465.021,686.647 464.441,684.517 463.281,683.297C462.121,682.077 460.481,681.467 458.361,681.467Z" style="fill-rule:nonzero;"/>
    <path d="M484.821,694.487L482.061,694.487L482.061,707.987L477.261,707.987L477.261,677.987L482.061,677.987L482.061,691.547L484.641,690.707L494.241,677.987L499.461,677.987L490.161,690.047L487.641,692.027L490.761,694.427L500.781,707.987L494.841,707.987L484.821,694.487Z" style="fill-rule:nonzero;"/>
    <path d="M526.401,706.007C525.201,706.887 523.781,707.557 522.141,708.017C520.501,708.477 518.781,708.707 516.981,708.707C514.661,708.707 512.701,708.337 511.101,707.597C509.501,706.857 508.191,705.797 507.171,704.417C506.151,703.037 505.411,701.377 504.951,699.437C504.491,697.497 504.261,695.347 504.261,692.987C504.261,687.907 505.381,684.017 507.621,681.317C509.861,678.617 513.081,677.267 517.281,677.267C519.201,677.267 520.831,677.417 522.171,677.717C523.511,678.017 524.721,678.447 525.801,679.007L524.421,683.147C523.501,682.627 522.481,682.217 521.361,681.917C520.241,681.617 519.041,681.467 517.761,681.467C512.081,681.467 509.241,685.307 509.241,692.987C509.241,694.507 509.391,695.957 509.691,697.337C509.991,698.717 510.491,699.937 511.191,700.997C511.891,702.057 512.811,702.907 513.951,703.547C515.091,704.187 516.501,704.507 518.181,704.507C519.621,704.507 520.911,704.287 522.051,703.847C523.191,703.407 524.121,702.907 524.841,702.347L526.401,706.007Z" style="fill-rule:nonzero;"/>
    <path d="M201.671,332.769L237.06,537.873L135.06,693.873" style="fill:none;stroke:black;stroke-width:7px;stroke-linecap:butt;"/>
    <path d="M103.175,156.351L345.488,201.696L351.06,31.873L103.175,156.351Z" style="fill:none;stroke:black;stroke-width:7px;stroke-linecap:butt;"/>
    <path d="M118.707,156.138C118.707,163.589 112.658,169.638 105.207,169.638C97.756,169.638 91.707,163.589 91.707,156.138C91.707,148.687 97.756,142.638 105.207,142.638C112.658,142.638 118.707,148.687 118.707,156.138Z"/>
    <path d="M212.988,331.408C212.988,338.859 206.939,344.908 199.488,344.908C192.037,344.908 185.988,338.859 185.988,331.408C185.988,323.957 192.037,317.908 199.488,317.908C206.939,317.908 212.988,323.957 212.988,331.408Z"/>
    <path d="M41.338,399.842C41.338,407.293 35.288,413.342 27.838,413.342C20.387,413.342 14.338,407.293 14.338,399.842C14.338,392.391 20.387,386.342 27.838,386.342C35.288,386.342 41.338,392.391 41.338,399.842Z"/>
    <path d="M250.75,539.319C250.75,546.77 244.701,552.819 237.25,552.819C229.799,552.819 223.75,546.77 223.75,539.319C223.75,531.868 229.799,525.819 237.25,525.819C244.701,525.819 250.75,531.868 250.75,539.319Z"/>
    <path d="M434.743,584.607C434.743,592.058 428.694,598.107 421.243,598.107C413.793,598.107 407.743,592.058 407.743,584.607C407.743,577.156 413.793,571.107 421.243,571.107C428.694,571.107 434.743,577.156 434.743,584.607Z"/>
    <path d="M151.057,692.304C151.057,699.755 145.008,705.804 137.557,705.804C130.107,705.804 124.057,699.755 124.057,692.304C124.057,684.853 130.107,678.804 137.557,678.804C145.008,678.804 151.057,684.853 151.057,692.304Z"/>
    <path d="M328.092,855.745C328.092,863.196 322.043,869.245 314.592,869.245C307.141,869.245 301.092,863.196 301.092,855.745C301.092,848.294 307.141,842.245 314.592,842.245C322.043,842.245 328.092,848.294 328.092,855.745Z"/>
    <path d="M79.499,902.342C79.499,909.793 73.45,915.842 65.999,915.842C58.548,915.842 52.499,909.793 52.499,902.342C52.499,894.892 58.548,888.842 65.999,888.842C73.45,888.842 79.499,894.892 79.499,902.342Z"/>
    <path d="M200.296,963.991C200.296,971.442 194.247,977.491 186.796,977.491C179.345,977.491 173.296,971.442 173.296,963.991C173.296,956.54 179.345,950.491 186.796,950.491C194.247,950.491 200.296,956.54 200.296,963.991Z"/>
    <path d="M360.576,201.21C360.576,208.661 354.527,214.71 347.076,214.71C339.625,214.71 333.576,208.661 333.576,201.21C333.576,193.759 339.625,187.71 347.076,187.71C354.527,187.71 360.576,193.759 360.576,201.21Z"/>
</svg>
