<?xml version="1.0" encoding="UTF-8" standalone="no"?>
<!DOCTYPE svg PUBLIC "-//W3C//DTD SVG 1.1//EN" "http://www.w3.org/Graphics/SVG/1.1/DTD/svg11.dtd">
<svg width="100%" height="100%" viewBox="0 0 458 222" version="1.1" xmlns="http://www.w3.org/2000/svg" xmlns:xlink="http://www.w3.org/1999/xlink" xml:space="preserve" xmlns:serif="http://www.serif.com/" style="fill-rule:evenodd;clip-rule:evenodd;stroke-linecap:round;stroke-linejoin:round;stroke-miterlimit:1.5;">
    <g transform="matrix(1,0,0,1,-4222,-2703)">
        <g id="Features" transform="matrix(1.26784,0,0,2.06066,-2103.93,2035.64)">
            <rect x="4887" y="6" width="967" height="470" style="fill:none;"/>
            <g>
                <g transform="matrix(0.680283,0,0,0.418551,4081.18,163.301)">
                    <path d="M1337.14,520.762L1406.01,384.901L1538.06,424.224L1538.06,533.335L1460.19,589.736L1337.14,520.762Z" style="fill:rgb(194,194,194);stroke:black;stroke-width:3.48px;"/>
                </g>
                <g transform="matrix(0.788744,0,0,0.485282,1065.68,-727.747)">
                    <path d="M5007,2280C5007,2280 5028.35,2233.89 5058.86,2243C5089.38,2252.11 5123.06,2243.22 5132.3,2228" style="fill:none;stroke:rgb(0,120,146);stroke-width:7px;stroke-miterlimit:10;"/>
                </g>
                <g transform="matrix(0.788744,0,0,0.485282,1558.17,-790.105)">
                    <circle cx="4382.6" cy="2408.5" r="7.5" style="fill:white;stroke:black;stroke-width:3px;stroke-miterlimit:10;"/>
                </g>
                <g transform="matrix(0.788744,0,0,0.485282,1658.61,-816.291)">
                    <circle cx="4382.6" cy="2408.5" r="7.5" style="fill:white;stroke:black;stroke-width:3px;stroke-miterlimit:10;"/>
                </g>
            </g>
            <g transform="matrix(1,0,0,1,18.9299,-1.962)">
                <g transform="matrix(0.680283,0,0,0.418551,4275.86,165.263)">
                    <path d="M1507.43,553.423L1460.19,589.736L1337.14,520.762L1357.5,482.861L1507.43,553.423Z" style="fill:rgb(194,194,194);stroke:black;stroke-width:3.48px;"/>
                </g>
                <g transform="matrix(0.680283,0,0,0.418551,4275.86,165.263)">
                    <path d="M1369.75,456.425L1406.01,384.901L1538.06,424.224L1538.06,533.335L1369.75,456.425Z" style="fill:rgb(194,194,194);stroke:black;stroke-width:3.48px;"/>
                </g>
                <g transform="matrix(0.788744,0,0,0.485282,1260.36,-723.734)">
                    <path d="M5007,2280C5007,2280 5011.58,2270.11 5019.53,2260.39" style="fill:none;stroke:rgb(0,120,146);stroke-width:7px;stroke-miterlimit:10;"/>
                </g>
                <g transform="matrix(0.788744,0,0,0.485282,1260.36,-723.734)">
                    <path d="M5042.76,2243.03C5047.75,2241.53 5053.15,2241.29 5058.86,2243C5089.38,2252.11 5123.06,2243.22 5132.3,2228" style="fill:none;stroke:rgb(0,120,146);stroke-width:7px;stroke-miterlimit:10;"/>
                </g>
                <g transform="matrix(0.788744,0,0,0.485282,1752.84,-785.869)">
                    <circle cx="4382.6" cy="2408.5" r="7.5" style="fill:white;stroke:black;stroke-width:3px;stroke-miterlimit:10;"/>
                </g>
                <g transform="matrix(0.788744,0,0,0.485282,1853.29,-812.055)">
                    <circle cx="4382.6" cy="2408.5" r="7.5" style="fill:white;stroke:black;stroke-width:3px;stroke-miterlimit:10;"/>
                </g>
                <g transform="matrix(0.788744,0,0,0.485282,1260.36,-723.734)">
                    <path d="M5019.53,2260.39C5025.53,2253.06 5033.44,2245.83 5042.76,2243.03" style="fill:none;stroke:rgb(244,42,42);stroke-width:7px;stroke-miterlimit:10;stroke-dasharray:3.5,10.5,0,0;"/>
                </g>
            </g>
            <g transform="matrix(0.788744,0,0,0.485282,4318.69,-613.584)">
                <g transform="matrix(40,0,0,40,868.559,2150.67)">
                    <path d="M0.533,-0.029C0.513,-0.014 0.488,-0.003 0.457,0.003C0.426,0.009 0.394,0.012 0.359,0.012C0.317,0.012 0.278,0.005 0.241,-0.01C0.204,-0.024 0.172,-0.046 0.145,-0.075C0.118,-0.104 0.096,-0.142 0.08,-0.188C0.064,-0.233 0.056,-0.287 0.056,-0.35C0.056,-0.415 0.065,-0.471 0.083,-0.517C0.1,-0.562 0.124,-0.6 0.153,-0.629C0.182,-0.658 0.214,-0.679 0.25,-0.692C0.286,-0.705 0.323,-0.712 0.36,-0.712C0.4,-0.712 0.433,-0.71 0.458,-0.706C0.483,-0.701 0.505,-0.695 0.523,-0.688L0.503,-0.615C0.471,-0.63 0.425,-0.638 0.366,-0.638C0.339,-0.638 0.312,-0.633 0.285,-0.623C0.258,-0.613 0.235,-0.597 0.214,-0.574C0.193,-0.551 0.176,-0.522 0.163,-0.485C0.15,-0.448 0.144,-0.403 0.144,-0.35C0.144,-0.302 0.15,-0.26 0.162,-0.224C0.174,-0.188 0.191,-0.158 0.212,-0.134C0.233,-0.11 0.257,-0.092 0.286,-0.08C0.314,-0.068 0.345,-0.062 0.378,-0.062C0.408,-0.062 0.434,-0.065 0.457,-0.071C0.479,-0.077 0.498,-0.085 0.513,-0.094L0.533,-0.029Z" style="fill-rule:nonzero;"/>
                </g>
                <g transform="matrix(40,0,0,40,891.399,2150.67)">
                    <path d="M0.077,-0.499C0.1,-0.5 0.125,-0.502 0.151,-0.504C0.176,-0.506 0.208,-0.507 0.246,-0.507C0.312,-0.507 0.359,-0.497 0.388,-0.477C0.417,-0.456 0.431,-0.425 0.431,-0.384C0.431,-0.361 0.424,-0.338 0.411,-0.316C0.397,-0.293 0.374,-0.277 0.343,-0.266L0.343,-0.262C0.382,-0.255 0.41,-0.241 0.426,-0.221C0.442,-0.201 0.45,-0.174 0.45,-0.141C0.45,-0.089 0.431,-0.051 0.394,-0.028C0.357,-0.005 0.301,0.007 0.226,0.007C0.198,0.007 0.172,0.006 0.148,0.005C0.124,0.003 0.1,0.001 0.077,-0.001L0.077,-0.499ZM0.157,-0.067C0.17,-0.066 0.182,-0.065 0.195,-0.064C0.207,-0.063 0.221,-0.063 0.238,-0.063C0.283,-0.063 0.316,-0.069 0.338,-0.082C0.359,-0.095 0.37,-0.116 0.37,-0.147C0.37,-0.171 0.361,-0.191 0.343,-0.206C0.324,-0.221 0.292,-0.228 0.245,-0.228L0.157,-0.228L0.157,-0.067ZM0.255,-0.289C0.267,-0.289 0.279,-0.291 0.29,-0.295C0.301,-0.299 0.312,-0.305 0.321,-0.312C0.33,-0.319 0.337,-0.327 0.343,-0.336C0.348,-0.345 0.351,-0.355 0.351,-0.366C0.351,-0.393 0.343,-0.411 0.327,-0.422C0.311,-0.432 0.283,-0.437 0.243,-0.437C0.222,-0.437 0.205,-0.437 0.193,-0.436C0.18,-0.435 0.168,-0.435 0.157,-0.434L0.157,-0.289L0.255,-0.289Z" style="fill-rule:nonzero;"/>
                </g>
                <g transform="matrix(40,0,0,40,911.359,2150.67)">
                    <path d="M0.326,-0.207L0.249,-0.195L0.117,-0L0.02,-0L0.14,-0.171L0.18,-0.208C0.145,-0.213 0.116,-0.227 0.092,-0.25C0.067,-0.273 0.055,-0.303 0.055,-0.342C0.055,-0.372 0.06,-0.398 0.071,-0.419C0.081,-0.44 0.096,-0.458 0.115,-0.472C0.134,-0.486 0.157,-0.496 0.184,-0.503C0.211,-0.509 0.241,-0.512 0.274,-0.512C0.299,-0.512 0.322,-0.51 0.343,-0.507C0.364,-0.504 0.385,-0.5 0.406,-0.496L0.406,-0L0.326,-0L0.326,-0.207ZM0.326,-0.432C0.317,-0.435 0.308,-0.438 0.297,-0.44C0.286,-0.441 0.277,-0.442 0.269,-0.442C0.226,-0.442 0.194,-0.434 0.172,-0.419C0.149,-0.404 0.138,-0.379 0.138,-0.346C0.138,-0.316 0.15,-0.293 0.174,-0.277C0.197,-0.26 0.228,-0.252 0.267,-0.252L0.278,-0.252C0.282,-0.252 0.288,-0.252 0.295,-0.253C0.302,-0.253 0.313,-0.253 0.326,-0.254L0.326,-0.432Z" style="fill-rule:nonzero;"/>
                </g>
                <g transform="matrix(40,0,0,40,930.359,2150.67)">
                    <path d="M0.125,-0.223L0.125,-0.288L0.195,-0.288C0.207,-0.288 0.219,-0.29 0.231,-0.294C0.242,-0.298 0.253,-0.304 0.262,-0.311C0.271,-0.318 0.279,-0.326 0.285,-0.336C0.29,-0.345 0.293,-0.355 0.293,-0.366C0.293,-0.392 0.284,-0.41 0.266,-0.421C0.248,-0.432 0.221,-0.437 0.185,-0.437C0.159,-0.437 0.135,-0.433 0.114,-0.425C0.092,-0.417 0.075,-0.409 0.063,-0.402L0.04,-0.464C0.06,-0.475 0.084,-0.485 0.111,-0.494C0.137,-0.503 0.17,-0.507 0.207,-0.507C0.318,-0.507 0.373,-0.466 0.373,-0.384C0.373,-0.361 0.366,-0.338 0.351,-0.316C0.335,-0.293 0.314,-0.277 0.286,-0.268L0.286,-0.264C0.325,-0.257 0.353,-0.243 0.369,-0.222C0.384,-0.201 0.392,-0.174 0.392,-0.14C0.392,-0.119 0.388,-0.099 0.379,-0.081C0.37,-0.063 0.357,-0.047 0.34,-0.034C0.323,-0.021 0.301,-0.01 0.275,-0.003C0.248,0.005 0.218,0.009 0.183,0.009C0.149,0.009 0.121,0.006 0.099,-0C0.076,-0.006 0.056,-0.013 0.038,-0.022L0.061,-0.088C0.076,-0.079 0.095,-0.073 0.117,-0.068C0.138,-0.063 0.162,-0.061 0.187,-0.061C0.228,-0.061 0.259,-0.068 0.28,-0.082C0.301,-0.096 0.312,-0.117 0.312,-0.146C0.312,-0.17 0.302,-0.189 0.282,-0.203C0.262,-0.216 0.229,-0.223 0.183,-0.223L0.125,-0.223Z" style="fill-rule:nonzero;"/>
                </g>
                <g transform="matrix(40,0,0,40,947.999,2150.67)">
                    <path d="M0.383,-0.221L0.157,-0.221L0.157,-0L0.077,-0L0.077,-0.5L0.157,-0.5L0.157,-0.291L0.383,-0.291L0.383,-0.5L0.463,-0.5L0.463,-0L0.383,-0L0.383,-0.221Z" style="fill-rule:nonzero;"/>
                </g>
                <g transform="matrix(40,0,0,40,969.599,2150.67)">
                    <path d="M0.049,-0.25C0.049,-0.335 0.068,-0.4 0.106,-0.445C0.143,-0.49 0.197,-0.512 0.268,-0.512C0.305,-0.512 0.338,-0.506 0.366,-0.494C0.393,-0.481 0.416,-0.464 0.434,-0.441C0.452,-0.418 0.465,-0.39 0.474,-0.358C0.483,-0.325 0.487,-0.289 0.487,-0.25C0.487,-0.165 0.468,-0.1 0.431,-0.056C0.393,-0.011 0.339,0.012 0.268,0.012C0.231,0.012 0.198,0.006 0.171,-0.007C0.143,-0.019 0.12,-0.037 0.102,-0.06C0.084,-0.083 0.071,-0.11 0.062,-0.143C0.053,-0.175 0.049,-0.211 0.049,-0.25ZM0.132,-0.25C0.132,-0.225 0.135,-0.2 0.14,-0.177C0.145,-0.154 0.152,-0.133 0.163,-0.116C0.174,-0.099 0.188,-0.085 0.205,-0.074C0.222,-0.063 0.243,-0.058 0.268,-0.058C0.359,-0.057 0.404,-0.121 0.404,-0.25C0.404,-0.276 0.402,-0.301 0.397,-0.324C0.392,-0.347 0.384,-0.368 0.373,-0.385C0.362,-0.402 0.348,-0.416 0.331,-0.427C0.314,-0.437 0.293,-0.442 0.268,-0.442C0.177,-0.443 0.132,-0.379 0.132,-0.25Z" style="fill-rule:nonzero;"/>
                </g>
                <g transform="matrix(40,0,0,40,991.039,2150.67)">
                    <path d="M0.442,-0.04C0.422,-0.024 0.397,-0.011 0.367,-0.002C0.336,0.007 0.304,0.012 0.27,0.012C0.232,0.012 0.199,0.006 0.171,-0.007C0.143,-0.019 0.12,-0.037 0.102,-0.06C0.084,-0.083 0.071,-0.11 0.062,-0.142C0.053,-0.174 0.049,-0.21 0.049,-0.25C0.049,-0.335 0.068,-0.4 0.106,-0.445C0.144,-0.49 0.198,-0.512 0.269,-0.512C0.292,-0.512 0.314,-0.51 0.337,-0.505C0.36,-0.5 0.38,-0.49 0.398,-0.476C0.416,-0.462 0.431,-0.442 0.442,-0.417C0.453,-0.391 0.459,-0.357 0.459,-0.315C0.459,-0.293 0.457,-0.269 0.453,-0.242L0.132,-0.242C0.132,-0.213 0.135,-0.187 0.141,-0.164C0.147,-0.141 0.156,-0.122 0.169,-0.107C0.182,-0.091 0.198,-0.079 0.219,-0.071C0.239,-0.062 0.264,-0.058 0.293,-0.058C0.316,-0.058 0.338,-0.062 0.361,-0.07C0.384,-0.078 0.401,-0.087 0.412,-0.098L0.442,-0.04ZM0.27,-0.442C0.231,-0.442 0.199,-0.432 0.176,-0.411C0.152,-0.39 0.138,-0.355 0.133,-0.305L0.381,-0.305C0.381,-0.356 0.371,-0.391 0.352,-0.412C0.333,-0.432 0.305,-0.442 0.27,-0.442Z" style="fill-rule:nonzero;"/>
                </g>
            </g>
            <g transform="matrix(0.788744,0,0,0.485282,4518.56,-613.77)">
                <g transform="matrix(40,0,0,40,868.559,2150.67)">
                    <path d="M0.504,-0.321L0.168,-0.321L0.168,-0L0.085,-0L0.085,-0.7L0.168,-0.7L0.168,-0.395L0.504,-0.395L0.504,-0.7L0.587,-0.7L0.587,-0L0.504,-0L0.504,-0.321Z" style="fill-rule:nonzero;"/>
                </g>
                <g transform="matrix(40,0,0,40,895.439,2150.67)">
                    <path d="M0.442,-0.04C0.422,-0.024 0.397,-0.011 0.367,-0.002C0.336,0.007 0.304,0.012 0.27,0.012C0.232,0.012 0.199,0.006 0.171,-0.007C0.143,-0.019 0.12,-0.037 0.102,-0.06C0.084,-0.083 0.071,-0.11 0.062,-0.142C0.053,-0.174 0.049,-0.21 0.049,-0.25C0.049,-0.335 0.068,-0.4 0.106,-0.445C0.144,-0.49 0.198,-0.512 0.269,-0.512C0.292,-0.512 0.314,-0.51 0.337,-0.505C0.36,-0.5 0.38,-0.49 0.398,-0.476C0.416,-0.462 0.431,-0.442 0.442,-0.417C0.453,-0.391 0.459,-0.357 0.459,-0.315C0.459,-0.293 0.457,-0.269 0.453,-0.242L0.132,-0.242C0.132,-0.213 0.135,-0.187 0.141,-0.164C0.147,-0.141 0.156,-0.122 0.169,-0.107C0.182,-0.091 0.198,-0.079 0.219,-0.071C0.239,-0.062 0.264,-0.058 0.293,-0.058C0.316,-0.058 0.338,-0.062 0.361,-0.07C0.384,-0.078 0.401,-0.087 0.412,-0.098L0.442,-0.04ZM0.27,-0.442C0.231,-0.442 0.199,-0.432 0.176,-0.411C0.152,-0.39 0.138,-0.355 0.133,-0.305L0.381,-0.305C0.381,-0.356 0.371,-0.391 0.352,-0.412C0.333,-0.432 0.305,-0.442 0.27,-0.442Z" style="fill-rule:nonzero;"/>
                </g>
                <g transform="matrix(40,0,0,40,915.759,2150.67)">
                    <path d="M0.418,-0.033C0.398,-0.018 0.374,-0.007 0.347,0.001C0.32,0.008 0.291,0.012 0.261,0.012C0.222,0.012 0.19,0.006 0.163,-0.007C0.136,-0.019 0.115,-0.037 0.098,-0.06C0.081,-0.083 0.068,-0.11 0.061,-0.143C0.053,-0.175 0.049,-0.211 0.049,-0.25C0.049,-0.335 0.068,-0.4 0.105,-0.445C0.142,-0.49 0.196,-0.512 0.266,-0.512C0.298,-0.512 0.325,-0.51 0.348,-0.505C0.37,-0.5 0.39,-0.492 0.408,-0.483L0.385,-0.414C0.37,-0.423 0.353,-0.43 0.334,-0.435C0.315,-0.44 0.295,-0.442 0.274,-0.442C0.179,-0.442 0.132,-0.378 0.132,-0.25C0.132,-0.225 0.135,-0.2 0.14,-0.178C0.145,-0.155 0.153,-0.134 0.165,-0.117C0.176,-0.099 0.192,-0.085 0.211,-0.074C0.23,-0.063 0.253,-0.058 0.281,-0.058C0.305,-0.058 0.327,-0.062 0.346,-0.069C0.365,-0.076 0.38,-0.085 0.392,-0.094L0.418,-0.033Z" style="fill-rule:nonzero;"/>
                </g>
                <g transform="matrix(40,0,0,40,933.799,2150.67)">
                    <path d="M0.077,-0.499C0.1,-0.5 0.125,-0.502 0.151,-0.504C0.176,-0.506 0.208,-0.507 0.246,-0.507C0.312,-0.507 0.359,-0.497 0.388,-0.477C0.417,-0.456 0.431,-0.425 0.431,-0.384C0.431,-0.361 0.424,-0.338 0.411,-0.316C0.397,-0.293 0.374,-0.277 0.343,-0.266L0.343,-0.262C0.382,-0.255 0.41,-0.241 0.426,-0.221C0.442,-0.201 0.45,-0.174 0.45,-0.141C0.45,-0.089 0.431,-0.051 0.394,-0.028C0.357,-0.005 0.301,0.007 0.226,0.007C0.198,0.007 0.172,0.006 0.148,0.005C0.124,0.003 0.1,0.001 0.077,-0.001L0.077,-0.499ZM0.157,-0.067C0.17,-0.066 0.182,-0.065 0.195,-0.064C0.207,-0.063 0.221,-0.063 0.238,-0.063C0.283,-0.063 0.316,-0.069 0.338,-0.082C0.359,-0.095 0.37,-0.116 0.37,-0.147C0.37,-0.171 0.361,-0.191 0.343,-0.206C0.324,-0.221 0.292,-0.228 0.245,-0.228L0.157,-0.228L0.157,-0.067ZM0.255,-0.289C0.267,-0.289 0.279,-0.291 0.29,-0.295C0.301,-0.299 0.312,-0.305 0.321,-0.312C0.33,-0.319 0.337,-0.327 0.343,-0.336C0.348,-0.345 0.351,-0.355 0.351,-0.366C0.351,-0.393 0.343,-0.411 0.327,-0.422C0.311,-0.432 0.283,-0.437 0.243,-0.437C0.222,-0.437 0.205,-0.437 0.193,-0.436C0.18,-0.435 0.168,-0.435 0.157,-0.434L0.157,-0.289L0.255,-0.289Z" style="fill-rule:nonzero;"/>
                </g>
                <g transform="matrix(40,0,0,40,953.759,2150.67)">
                    <path d="M0.326,-0.207L0.249,-0.195L0.117,-0L0.02,-0L0.14,-0.171L0.18,-0.208C0.145,-0.213 0.116,-0.227 0.092,-0.25C0.067,-0.273 0.055,-0.303 0.055,-0.342C0.055,-0.372 0.06,-0.398 0.071,-0.419C0.081,-0.44 0.096,-0.458 0.115,-0.472C0.134,-0.486 0.157,-0.496 0.184,-0.503C0.211,-0.509 0.241,-0.512 0.274,-0.512C0.299,-0.512 0.322,-0.51 0.343,-0.507C0.364,-0.504 0.385,-0.5 0.406,-0.496L0.406,-0L0.326,-0L0.326,-0.207ZM0.326,-0.432C0.317,-0.435 0.308,-0.438 0.297,-0.44C0.286,-0.441 0.277,-0.442 0.269,-0.442C0.226,-0.442 0.194,-0.434 0.172,-0.419C0.149,-0.404 0.138,-0.379 0.138,-0.346C0.138,-0.316 0.15,-0.293 0.174,-0.277C0.197,-0.26 0.228,-0.252 0.267,-0.252L0.278,-0.252C0.282,-0.252 0.288,-0.252 0.295,-0.253C0.302,-0.253 0.313,-0.253 0.326,-0.254L0.326,-0.432Z" style="fill-rule:nonzero;"/>
                </g>
                <g transform="matrix(40,0,0,40,972.759,2150.67)">
                    <path d="M0.125,-0.223L0.125,-0.288L0.195,-0.288C0.207,-0.288 0.219,-0.29 0.231,-0.294C0.242,-0.298 0.253,-0.304 0.262,-0.311C0.271,-0.318 0.279,-0.326 0.285,-0.336C0.29,-0.345 0.293,-0.355 0.293,-0.366C0.293,-0.392 0.284,-0.41 0.266,-0.421C0.248,-0.432 0.221,-0.437 0.185,-0.437C0.159,-0.437 0.135,-0.433 0.114,-0.425C0.092,-0.417 0.075,-0.409 0.063,-0.402L0.04,-0.464C0.06,-0.475 0.084,-0.485 0.111,-0.494C0.137,-0.503 0.17,-0.507 0.207,-0.507C0.318,-0.507 0.373,-0.466 0.373,-0.384C0.373,-0.361 0.366,-0.338 0.351,-0.316C0.335,-0.293 0.314,-0.277 0.286,-0.268L0.286,-0.264C0.325,-0.257 0.353,-0.243 0.369,-0.222C0.384,-0.201 0.392,-0.174 0.392,-0.14C0.392,-0.119 0.388,-0.099 0.379,-0.081C0.37,-0.063 0.357,-0.047 0.34,-0.034C0.323,-0.021 0.301,-0.01 0.275,-0.003C0.248,0.005 0.218,0.009 0.183,0.009C0.149,0.009 0.121,0.006 0.099,-0C0.076,-0.006 0.056,-0.013 0.038,-0.022L0.061,-0.088C0.076,-0.079 0.095,-0.073 0.117,-0.068C0.138,-0.063 0.162,-0.061 0.187,-0.061C0.228,-0.061 0.259,-0.068 0.28,-0.082C0.301,-0.096 0.312,-0.117 0.312,-0.146C0.312,-0.17 0.302,-0.189 0.282,-0.203C0.262,-0.216 0.229,-0.223 0.183,-0.223L0.125,-0.223Z" style="fill-rule:nonzero;"/>
                </g>
                <g transform="matrix(40,0,0,40,990.399,2150.67)">
                    <path d="M0.383,-0.221L0.157,-0.221L0.157,-0L0.077,-0L0.077,-0.5L0.157,-0.5L0.157,-0.291L0.383,-0.291L0.383,-0.5L0.463,-0.5L0.463,-0L0.383,-0L0.383,-0.221Z" style="fill-rule:nonzero;"/>
                </g>
                <g transform="matrix(40,0,0,40,1012,2150.67)">
                    <path d="M0.049,-0.25C0.049,-0.335 0.068,-0.4 0.106,-0.445C0.143,-0.49 0.197,-0.512 0.268,-0.512C0.305,-0.512 0.338,-0.506 0.366,-0.494C0.393,-0.481 0.416,-0.464 0.434,-0.441C0.452,-0.418 0.465,-0.39 0.474,-0.358C0.483,-0.325 0.487,-0.289 0.487,-0.25C0.487,-0.165 0.468,-0.1 0.431,-0.056C0.393,-0.011 0.339,0.012 0.268,0.012C0.231,0.012 0.198,0.006 0.171,-0.007C0.143,-0.019 0.12,-0.037 0.102,-0.06C0.084,-0.083 0.071,-0.11 0.062,-0.143C0.053,-0.175 0.049,-0.211 0.049,-0.25ZM0.132,-0.25C0.132,-0.225 0.135,-0.2 0.14,-0.177C0.145,-0.154 0.152,-0.133 0.163,-0.116C0.174,-0.099 0.188,-0.085 0.205,-0.074C0.222,-0.063 0.243,-0.058 0.268,-0.058C0.359,-0.057 0.404,-0.121 0.404,-0.25C0.404,-0.276 0.402,-0.301 0.397,-0.324C0.392,-0.347 0.384,-0.368 0.373,-0.385C0.362,-0.402 0.348,-0.416 0.331,-0.427C0.314,-0.437 0.293,-0.442 0.268,-0.442C0.177,-0.443 0.132,-0.379 0.132,-0.25Z" style="fill-rule:nonzero;"/>
                </g>
                <g transform="matrix(40,0,0,40,1033.44,2150.67)">
                    <path d="M0.442,-0.04C0.422,-0.024 0.397,-0.011 0.367,-0.002C0.336,0.007 0.304,0.012 0.27,0.012C0.232,0.012 0.199,0.006 0.171,-0.007C0.143,-0.019 0.12,-0.037 0.102,-0.06C0.084,-0.083 0.071,-0.11 0.062,-0.142C0.053,-0.174 0.049,-0.21 0.049,-0.25C0.049,-0.335 0.068,-0.4 0.106,-0.445C0.144,-0.49 0.198,-0.512 0.269,-0.512C0.292,-0.512 0.314,-0.51 0.337,-0.505C0.36,-0.5 0.38,-0.49 0.398,-0.476C0.416,-0.462 0.431,-0.442 0.442,-0.417C0.453,-0.391 0.459,-0.357 0.459,-0.315C0.459,-0.293 0.457,-0.269 0.453,-0.242L0.132,-0.242C0.132,-0.213 0.135,-0.187 0.141,-0.164C0.147,-0.141 0.156,-0.122 0.169,-0.107C0.182,-0.091 0.198,-0.079 0.219,-0.071C0.239,-0.062 0.264,-0.058 0.293,-0.058C0.316,-0.058 0.338,-0.062 0.361,-0.07C0.384,-0.078 0.401,-0.087 0.412,-0.098L0.442,-0.04ZM0.27,-0.442C0.231,-0.442 0.199,-0.432 0.176,-0.411C0.152,-0.39 0.138,-0.355 0.133,-0.305L0.381,-0.305C0.381,-0.356 0.371,-0.391 0.352,-0.412C0.333,-0.432 0.305,-0.442 0.27,-0.442Z" style="fill-rule:nonzero;"/>
                </g>
            </g>
        </g>
    </g>
</svg>
