<?xml version="1.0" encoding="UTF-8" standalone="no"?>
<!DOCTYPE svg PUBLIC "-//W3C//DTD SVG 1.1//EN" "http://www.w3.org/Graphics/SVG/1.1/DTD/svg11.dtd">
<svg width="100%" height="100%" viewBox="0 0 726 771" version="1.1" xmlns="http://www.w3.org/2000/svg" xmlns:xlink="http://www.w3.org/1999/xlink" xml:space="preserve" xmlns:serif="http://www.serif.com/" style="fill-rule:evenodd;clip-rule:evenodd;stroke-linecap:square;stroke-linejoin:round;stroke-miterlimit:10;">
    <rect id="Geometric-Operations" serif:id="Geometric Operations" x="-1483" y="-2034" width="6739" height="2861" style="fill:none;"/>
    <g id="Geometric-Operations1" serif:id="Geometric Operations">
        <path d="M117.121,338.429L137.068,353.756L112.838,360.517L117.121,338.429Z" style="fill:rgb(247,0,255);"/>
        <path d="M105.122,349.497C109.951,349.497 114.715,349.78 119.397,350.33" style="fill:none;stroke:rgb(247,0,255);stroke-width:5px;"/>
        <path d="M105.122,470.748L158.379,275.709" style="fill:none;stroke:rgb(21,183,183);stroke-width:5px;"/>
        <path d="M96.122,17.901L105.122,4.401L114.122,17.901L96.122,17.901Z" style="fill:none;stroke:rgb(247,0,255);stroke-width:2px;stroke-linecap:butt;stroke-linejoin:miter;"/>
        <path d="M105.122,470.748L105.122,17.901" style="fill:none;stroke:rgb(247,0,255);stroke-width:2px;stroke-dasharray:2,6,0,0;"/>
        <circle cx="310.613" cy="149.426" r="9.784"/>
        <circle cx="431.916" cy="651.627" r="9.784"/>
        <circle cx="158.379" cy="275.709" r="15" style="fill:rgb(21,183,183);"/>
        <circle cx="478.53" cy="344.509" r="9.784"/>
        <circle cx="301.887" cy="510.023" r="9.784"/>
        <circle cx="105.122" cy="470.748" r="15" style="fill:rgb(21,183,183);"/>
        <circle cx="235.56" cy="385.147" r="9.784"/>
        <circle cx="560.223" cy="115.335" r="9.784"/>
        <circle cx="620.479" cy="371.317" r="9.784"/>
        <g transform="matrix(1,0,0,1,-334.905,-1518.46)">
            <g transform="matrix(60,0,0,60,368.503,1953.88)">
                <path d="M0.057,-0.5L0.152,-0.5L0.167,-0.44L0.171,-0.44C0.188,-0.465 0.209,-0.484 0.233,-0.496C0.256,-0.508 0.285,-0.514 0.319,-0.514C0.382,-0.514 0.429,-0.494 0.46,-0.455C0.491,-0.415 0.507,-0.351 0.507,-0.263C0.507,-0.22 0.502,-0.182 0.492,-0.148C0.482,-0.113 0.467,-0.084 0.448,-0.06C0.428,-0.036 0.404,-0.018 0.376,-0.005C0.347,0.008 0.315,0.014 0.278,0.014C0.257,0.014 0.24,0.012 0.227,0.01C0.214,0.007 0.2,0.002 0.187,-0.005L0.187,0.2L0.057,0.2L0.057,-0.5ZM0.28,-0.404C0.255,-0.404 0.235,-0.398 0.221,-0.385C0.206,-0.372 0.195,-0.353 0.187,-0.328L0.187,-0.12C0.196,-0.113 0.207,-0.107 0.218,-0.103C0.229,-0.098 0.243,-0.096 0.261,-0.096C0.298,-0.096 0.326,-0.109 0.345,-0.136C0.364,-0.162 0.373,-0.205 0.373,-0.266C0.373,-0.31 0.366,-0.344 0.351,-0.368C0.336,-0.392 0.313,-0.404 0.28,-0.404Z" style="fill:rgb(21,183,183);fill-rule:nonzero;"/>
            </g>
            <g transform="matrix(34.98,0,0,34.98,400.903,1973.86)">
                <path d="M0.04,-0.351C0.04,-0.474 0.061,-0.565 0.103,-0.625C0.145,-0.684 0.205,-0.714 0.284,-0.714C0.368,-0.714 0.43,-0.685 0.469,-0.626C0.508,-0.567 0.528,-0.475 0.528,-0.351C0.528,-0.228 0.507,-0.136 0.465,-0.076C0.422,-0.016 0.362,0.014 0.283,0.014C0.2,0.014 0.138,-0.018 0.099,-0.081C0.06,-0.144 0.04,-0.234 0.04,-0.351ZM0.17,-0.351C0.17,-0.27 0.179,-0.207 0.197,-0.163C0.214,-0.118 0.243,-0.096 0.284,-0.096C0.323,-0.096 0.352,-0.116 0.371,-0.157C0.389,-0.198 0.398,-0.262 0.398,-0.351C0.398,-0.432 0.389,-0.494 0.372,-0.538C0.355,-0.582 0.325,-0.604 0.283,-0.604C0.243,-0.604 0.214,-0.583 0.197,-0.542C0.179,-0.501 0.17,-0.437 0.17,-0.351Z" style="fill:rgb(21,183,183);fill-rule:nonzero;"/>
            </g>
        </g>
        <g transform="matrix(1,0,0,1,-256.499,-1734.27)">
            <g transform="matrix(60,0,0,60,368.503,1953.88)">
                <path d="M0.057,-0.5L0.152,-0.5L0.167,-0.44L0.171,-0.44C0.188,-0.465 0.209,-0.484 0.233,-0.496C0.256,-0.508 0.285,-0.514 0.319,-0.514C0.382,-0.514 0.429,-0.494 0.46,-0.455C0.491,-0.415 0.507,-0.351 0.507,-0.263C0.507,-0.22 0.502,-0.182 0.492,-0.148C0.482,-0.113 0.467,-0.084 0.448,-0.06C0.428,-0.036 0.404,-0.018 0.376,-0.005C0.347,0.008 0.315,0.014 0.278,0.014C0.257,0.014 0.24,0.012 0.227,0.01C0.214,0.007 0.2,0.002 0.187,-0.005L0.187,0.2L0.057,0.2L0.057,-0.5ZM0.28,-0.404C0.255,-0.404 0.235,-0.398 0.221,-0.385C0.206,-0.372 0.195,-0.353 0.187,-0.328L0.187,-0.12C0.196,-0.113 0.207,-0.107 0.218,-0.103C0.229,-0.098 0.243,-0.096 0.261,-0.096C0.298,-0.096 0.326,-0.109 0.345,-0.136C0.364,-0.162 0.373,-0.205 0.373,-0.266C0.373,-0.31 0.366,-0.344 0.351,-0.368C0.336,-0.392 0.313,-0.404 0.28,-0.404Z" style="fill:rgb(21,183,183);fill-rule:nonzero;"/>
            </g>
            <g transform="matrix(34.98,0,0,34.98,400.903,1973.86)">
                <path d="M0.101,-0.11L0.24,-0.11L0.24,-0.505L0.255,-0.573L0.207,-0.514L0.118,-0.453L0.063,-0.528L0.291,-0.712L0.364,-0.712L0.364,-0.11L0.5,-0.11L0.5,-0L0.101,-0L0.101,-0.11Z" style="fill:rgb(21,183,183);fill-rule:nonzero;"/>
            </g>
        </g>
    </g>
</svg>
