<?xml version="1.0" encoding="UTF-8" standalone="no"?>
<!DOCTYPE svg PUBLIC "-//W3C//DTD SVG 1.1//EN" "http://www.w3.org/Graphics/SVG/1.1/DTD/svg11.dtd">
<svg width="100%" height="100%" viewBox="0 0 726 771" version="1.1" xmlns="http://www.w3.org/2000/svg" xmlns:xlink="http://www.w3.org/1999/xlink" xml:space="preserve" xmlns:serif="http://www.serif.com/" style="fill-rule:evenodd;clip-rule:evenodd;stroke-linecap:square;stroke-linejoin:round;stroke-miterlimit:10;">
    <rect id="Geometric-Operations-1" serif:id="Geometric Operations 1" x="-1483" y="-2034" width="6739" height="2861" style="fill:none;"/>
    <g id="Geometric-Operations-11" serif:id="Geometric Operations 1">
        <path d="M117.121,338.429L137.068,353.756L112.838,360.517L117.121,338.429Z" style="fill:rgb(247,0,255);"/>
        <path d="M105.122,349.497C109.951,349.497 114.715,349.78 119.397,350.33" style="fill:none;stroke:rgb(247,0,255);stroke-width:5px;"/>
        <path d="M105.122,470.748L158.379,275.709" style="fill:none;stroke:rgb(21,183,183);stroke-width:5px;"/>
        <path d="M96.122,17.901L105.122,4.401L114.122,17.901L96.122,17.901Z" style="fill:none;stroke:rgb(247,0,255);stroke-width:2px;stroke-linecap:butt;stroke-linejoin:miter;"/>
        <path d="M105.122,470.748L105.122,17.901" style="fill:none;stroke:rgb(247,0,255);stroke-width:2px;stroke-dasharray:2,6,0,0;"/>
        <circle cx="310.613" cy="149.426" r="9.784"/>
        <circle cx="431.916" cy="651.627" r="9.784"/>
        <circle cx="158.379" cy="275.709" r="15" style="fill:rgb(21,183,183);"/>
        <circle cx="478.53" cy="344.509" r="9.784"/>
        <circle cx="301.887" cy="510.023" r="9.784"/>
        <circle cx="105.122" cy="470.748" r="15" style="fill:rgb(21,183,183);"/>
        <circle cx="235.56" cy="385.147" r="9.784"/>
        <circle cx="560.223" cy="115.335" r="9.784"/>
        <circle cx="620.479" cy="371.317" r="9.784"/>
        <g transform="matrix(1,0,0,1,-334.905,-1518.46)">
            <g transform="matrix(60,0,0,60,368.503,1953.88)">
                <path d="M0.48,0.2L0.35,0.2L0.35,-0.043L0.346,-0.043C0.335,-0.026 0.319,-0.012 0.3,-0.002C0.281,0.009 0.256,0.014 0.225,0.014C0.163,0.014 0.116,-0.007 0.083,-0.049C0.05,-0.091 0.033,-0.155 0.033,-0.24C0.033,-0.329 0.056,-0.397 0.101,-0.443C0.146,-0.489 0.21,-0.512 0.294,-0.512C0.312,-0.512 0.33,-0.511 0.348,-0.51C0.366,-0.508 0.383,-0.506 0.4,-0.503C0.416,-0.5 0.431,-0.496 0.445,-0.493C0.459,-0.489 0.471,-0.485 0.48,-0.482L0.48,0.2ZM0.26,-0.096C0.285,-0.096 0.305,-0.102 0.319,-0.113C0.332,-0.124 0.343,-0.141 0.35,-0.164L0.35,-0.389C0.34,-0.394 0.329,-0.398 0.316,-0.4C0.303,-0.401 0.289,-0.402 0.273,-0.402C0.238,-0.402 0.211,-0.389 0.194,-0.362C0.176,-0.335 0.167,-0.296 0.167,-0.245C0.167,-0.196 0.175,-0.159 0.191,-0.134C0.207,-0.109 0.23,-0.096 0.26,-0.096Z" style="fill:rgb(21,183,183);fill-rule:nonzero;"/>
            </g>
            <g transform="matrix(34.98,0,0,34.98,400.663,1973.86)">
                <path d="M0.04,-0.351C0.04,-0.474 0.061,-0.565 0.103,-0.625C0.145,-0.684 0.205,-0.714 0.284,-0.714C0.368,-0.714 0.43,-0.685 0.469,-0.626C0.508,-0.567 0.528,-0.475 0.528,-0.351C0.528,-0.228 0.507,-0.136 0.465,-0.076C0.422,-0.016 0.362,0.014 0.283,0.014C0.2,0.014 0.138,-0.018 0.099,-0.081C0.06,-0.144 0.04,-0.234 0.04,-0.351ZM0.17,-0.351C0.17,-0.27 0.179,-0.207 0.197,-0.163C0.214,-0.118 0.243,-0.096 0.284,-0.096C0.323,-0.096 0.352,-0.116 0.371,-0.157C0.389,-0.198 0.398,-0.262 0.398,-0.351C0.398,-0.432 0.389,-0.494 0.372,-0.538C0.355,-0.582 0.325,-0.604 0.283,-0.604C0.243,-0.604 0.214,-0.583 0.197,-0.542C0.179,-0.501 0.17,-0.437 0.17,-0.351Z" style="fill:rgb(21,183,183);fill-rule:nonzero;"/>
            </g>
        </g>
        <g transform="matrix(1,0,0,1,-256.499,-1734.27)">
            <g transform="matrix(60,0,0,60,368.503,1953.88)">
                <path d="M0.48,0.2L0.35,0.2L0.35,-0.043L0.346,-0.043C0.335,-0.026 0.319,-0.012 0.3,-0.002C0.281,0.009 0.256,0.014 0.225,0.014C0.163,0.014 0.116,-0.007 0.083,-0.049C0.05,-0.091 0.033,-0.155 0.033,-0.24C0.033,-0.329 0.056,-0.397 0.101,-0.443C0.146,-0.489 0.21,-0.512 0.294,-0.512C0.312,-0.512 0.33,-0.511 0.348,-0.51C0.366,-0.508 0.383,-0.506 0.4,-0.503C0.416,-0.5 0.431,-0.496 0.445,-0.493C0.459,-0.489 0.471,-0.485 0.48,-0.482L0.48,0.2ZM0.26,-0.096C0.285,-0.096 0.305,-0.102 0.319,-0.113C0.332,-0.124 0.343,-0.141 0.35,-0.164L0.35,-0.389C0.34,-0.394 0.329,-0.398 0.316,-0.4C0.303,-0.401 0.289,-0.402 0.273,-0.402C0.238,-0.402 0.211,-0.389 0.194,-0.362C0.176,-0.335 0.167,-0.296 0.167,-0.245C0.167,-0.196 0.175,-0.159 0.191,-0.134C0.207,-0.109 0.23,-0.096 0.26,-0.096Z" style="fill:rgb(21,183,183);fill-rule:nonzero;"/>
            </g>
            <g transform="matrix(34.98,0,0,34.98,400.663,1973.86)">
                <path d="M0.101,-0.11L0.24,-0.11L0.24,-0.505L0.255,-0.573L0.207,-0.514L0.118,-0.453L0.063,-0.528L0.291,-0.712L0.364,-0.712L0.364,-0.11L0.5,-0.11L0.5,-0L0.101,-0L0.101,-0.11Z" style="fill:rgb(21,183,183);fill-rule:nonzero;"/>
            </g>
        </g>
    </g>
</svg>
