<?xml version="1.0" encoding="UTF-8" standalone="no"?>
<!DOCTYPE svg PUBLIC "-//W3C//DTD SVG 1.1//EN" "http://www.w3.org/Graphics/SVG/1.1/DTD/svg11.dtd">
<svg width="100%" height="100%" viewBox="0 0 684 532" version="1.1" xmlns="http://www.w3.org/2000/svg" xmlns:xlink="http://www.w3.org/1999/xlink" xml:space="preserve" xmlns:serif="http://www.serif.com/" style="fill-rule:evenodd;clip-rule:evenodd;stroke-linecap:round;stroke-linejoin:round;stroke-miterlimit:10;">
    <g transform="matrix(1,0,0,1,-878,-3549)">
        <rect id="Vector-analysis" serif:id="Vector analysis" x="0" y="3502" width="2985" height="2387" style="fill:none;"/>
        <g id="Vector-analysis1" serif:id="Vector analysis">
            <g id="Voronoy_colored">
            </g>
            <g id="Dots">
            </g>
            <g id="Outer-dots" serif:id="Outer dots">
            </g>
            <g transform="matrix(1.01386,0,0,1.01386,-2906.73,1963.02)">
                <path d="M3737.95,1743.64L3740.92,1698.04L3772.93,1662.76L3824.01,1716.34L3858.86,1620.72L3914.34,1639.32L3908.27,1721.78L3952.51,1691.93L3957.62,1646.11L3981.31,1617.23L4011.18,1632.65L3997.58,1694.58L3963.73,1760.83L3912.94,1752.24L3896.06,1790.2L3823.12,1739.81L3786.73,1751.33L3737.95,1743.64Z" style="fill:rgb(194,194,194);stroke:black;stroke-width:3.95px;"/>
            </g>
            <g transform="matrix(1.90554,0,0,1.90554,-232.457,3474.38)">
                <g transform="matrix(21.7258,0,0,21.7258,691.135,314.999)">
                    <path d="M0.227,0.22C0.196,0.188 0.17,0.153 0.149,0.115C0.128,0.076 0.111,0.037 0.098,-0.004C0.085,-0.044 0.075,-0.085 0.069,-0.126C0.063,-0.167 0.06,-0.206 0.06,-0.243C0.06,-0.28 0.063,-0.318 0.069,-0.359C0.075,-0.4 0.085,-0.44 0.098,-0.482C0.111,-0.523 0.129,-0.563 0.151,-0.602C0.172,-0.641 0.199,-0.678 0.23,-0.712L0.278,-0.677C0.251,-0.643 0.229,-0.608 0.212,-0.572C0.194,-0.535 0.18,-0.498 0.169,-0.461C0.158,-0.424 0.151,-0.387 0.147,-0.35C0.142,-0.313 0.14,-0.277 0.14,-0.243C0.14,-0.211 0.142,-0.176 0.148,-0.139C0.153,-0.101 0.161,-0.063 0.172,-0.026C0.183,0.012 0.197,0.049 0.215,0.085C0.232,0.121 0.253,0.154 0.278,0.183L0.227,0.22Z" style="fill-rule:nonzero;"/>
                </g>
                <g transform="matrix(21.7258,0,0,21.7258,697.218,314.999)">
                    <path d="M0.623,-0.47L0.633,-0.575L0.628,-0.575L0.59,-0.479L0.408,-0.163L0.383,-0.163L0.19,-0.48L0.154,-0.575L0.149,-0.575L0.163,-0.471L0.163,-0L0.085,-0L0.085,-0.7L0.147,-0.7L0.366,-0.342L0.399,-0.264L0.401,-0.264L0.432,-0.344L0.641,-0.7L0.706,-0.7L0.706,-0L0.623,-0L0.623,-0.47Z" style="fill-rule:nonzero;"/>
                </g>
                <g transform="matrix(21.7258,0,0,21.7258,714.403,314.999)">
                    <path d="M0.487,-0.7L0.567,-0.7L0.567,-0.233C0.567,-0.191 0.562,-0.155 0.551,-0.124C0.54,-0.093 0.524,-0.068 0.504,-0.049C0.483,-0.029 0.459,-0.014 0.43,-0.005C0.401,0.004 0.37,0.009 0.335,0.009C0.252,0.009 0.19,-0.01 0.148,-0.047C0.106,-0.084 0.085,-0.141 0.085,-0.217L0.085,-0.7L0.168,-0.7L0.168,-0.256C0.168,-0.221 0.171,-0.191 0.179,-0.167C0.186,-0.142 0.196,-0.123 0.21,-0.108C0.224,-0.093 0.242,-0.082 0.263,-0.075C0.284,-0.068 0.308,-0.065 0.336,-0.065C0.39,-0.065 0.429,-0.08 0.452,-0.11C0.475,-0.139 0.487,-0.188 0.487,-0.256L0.487,-0.7Z" style="fill-rule:nonzero;"/>
                </g>
                <g transform="matrix(21.7258,0,0,21.7258,728.568,314.999)">
                    <path d="M0.499,-0L0.085,-0L0.085,-0.7L0.168,-0.7L0.168,-0.074L0.499,-0.074L0.499,-0Z" style="fill-rule:nonzero;"/>
                </g>
                <g transform="matrix(21.7258,0,0,21.7258,737.15,314.999)">
                    <path d="M0.537,-0.626L0.319,-0.626L0.319,-0L0.236,-0L0.236,-0.626L0.018,-0.626L0.018,-0.7L0.537,-0.7L0.537,-0.626Z" style="fill-rule:nonzero;"/>
                </g>
                <g transform="matrix(21.7258,0,0,21.7258,749.208,314.999)">
                    <rect x="0.104" y="-0.7" width="0.083" height="0.7" style="fill-rule:nonzero;"/>
                </g>
                <g transform="matrix(21.7258,0,0,21.7258,755.53,314.999)">
                    <path d="M0.053,-0.712C0.084,-0.68 0.11,-0.645 0.131,-0.607C0.152,-0.568 0.169,-0.529 0.183,-0.489C0.196,-0.448 0.205,-0.407 0.211,-0.367C0.217,-0.325 0.22,-0.286 0.22,-0.249C0.22,-0.212 0.217,-0.174 0.211,-0.133C0.205,-0.092 0.195,-0.052 0.182,-0.011C0.169,0.031 0.151,0.071 0.13,0.11C0.108,0.149 0.081,0.186 0.05,0.22L0.002,0.185C0.029,0.151 0.051,0.116 0.069,0.079C0.087,0.042 0.101,0.005 0.112,-0.032C0.122,-0.069 0.129,-0.106 0.134,-0.143C0.138,-0.18 0.14,-0.215 0.14,-0.249C0.14,-0.281 0.137,-0.316 0.132,-0.353C0.127,-0.39 0.118,-0.428 0.108,-0.466C0.096,-0.504 0.082,-0.541 0.065,-0.577C0.048,-0.613 0.027,-0.646 0.002,-0.675L0.053,-0.712Z" style="fill-rule:nonzero;"/>
                </g>
                <g transform="matrix(21.7258,0,0,21.7258,761.613,314.999)">
                    <path d="M0.06,-0.693C0.088,-0.698 0.119,-0.703 0.153,-0.706C0.186,-0.708 0.22,-0.71 0.253,-0.71C0.288,-0.71 0.323,-0.707 0.358,-0.702C0.393,-0.696 0.424,-0.685 0.452,-0.668C0.48,-0.651 0.503,-0.627 0.521,-0.597C0.538,-0.566 0.547,-0.527 0.547,-0.478C0.547,-0.434 0.539,-0.397 0.524,-0.367C0.509,-0.336 0.488,-0.311 0.463,-0.292C0.438,-0.273 0.409,-0.259 0.377,-0.25C0.344,-0.241 0.311,-0.237 0.276,-0.237L0.26,-0.237C0.253,-0.237 0.245,-0.237 0.237,-0.238C0.229,-0.238 0.221,-0.238 0.214,-0.239C0.206,-0.24 0.2,-0.24 0.197,-0.241L0.197,-0L0.06,-0L0.06,-0.693ZM0.264,-0.592C0.251,-0.592 0.238,-0.592 0.226,-0.591C0.214,-0.59 0.204,-0.588 0.197,-0.587L0.197,-0.36C0.2,-0.359 0.204,-0.359 0.209,-0.358C0.214,-0.357 0.22,-0.357 0.226,-0.357C0.232,-0.356 0.238,-0.356 0.244,-0.356L0.256,-0.356C0.274,-0.356 0.292,-0.358 0.31,-0.361C0.327,-0.364 0.343,-0.371 0.357,-0.38C0.371,-0.389 0.382,-0.401 0.391,-0.417C0.399,-0.433 0.403,-0.454 0.403,-0.48C0.403,-0.502 0.399,-0.52 0.391,-0.535C0.383,-0.549 0.373,-0.56 0.36,-0.569C0.347,-0.578 0.332,-0.584 0.315,-0.587C0.298,-0.59 0.281,-0.592 0.264,-0.592Z" style="fill-rule:nonzero;"/>
                </g>
                <g transform="matrix(21.7258,0,0,21.7258,774.04,314.999)">
                    <path d="M0.038,-0.35C0.038,-0.467 0.064,-0.557 0.115,-0.62C0.166,-0.683 0.24,-0.714 0.335,-0.714C0.385,-0.714 0.429,-0.705 0.466,-0.688C0.503,-0.671 0.534,-0.646 0.559,-0.614C0.584,-0.582 0.602,-0.544 0.614,-0.499C0.626,-0.454 0.632,-0.405 0.632,-0.35C0.632,-0.233 0.606,-0.144 0.555,-0.081C0.503,-0.018 0.43,0.014 0.335,0.014C0.284,0.014 0.24,0.005 0.203,-0.012C0.166,-0.029 0.135,-0.054 0.111,-0.086C0.086,-0.118 0.068,-0.156 0.056,-0.201C0.044,-0.246 0.038,-0.295 0.038,-0.35ZM0.182,-0.35C0.182,-0.315 0.185,-0.282 0.191,-0.253C0.197,-0.223 0.206,-0.197 0.219,-0.176C0.231,-0.155 0.247,-0.138 0.266,-0.126C0.285,-0.114 0.308,-0.108 0.335,-0.108C0.384,-0.108 0.421,-0.127 0.448,-0.165C0.475,-0.203 0.488,-0.265 0.488,-0.35C0.488,-0.384 0.485,-0.416 0.48,-0.445C0.474,-0.474 0.465,-0.5 0.453,-0.522C0.441,-0.544 0.425,-0.561 0.406,-0.574C0.387,-0.586 0.363,-0.592 0.335,-0.592C0.286,-0.592 0.249,-0.572 0.222,-0.534C0.195,-0.495 0.182,-0.433 0.182,-0.35Z" style="fill-rule:nonzero;"/>
                </g>
                <g transform="matrix(21.7258,0,0,21.7258,788.597,314.999)">
                    <rect x="0.074" y="-0.7" width="0.137" height="0.7" style="fill-rule:nonzero;"/>
                </g>
                <g transform="matrix(21.7258,0,0,21.7258,794.789,314.999)">
                    <path d="M0.234,-0.365L0.179,-0.475L0.174,-0.475L0.19,-0.365L0.19,-0L0.06,-0L0.06,-0.705L0.16,-0.705L0.425,-0.332L0.478,-0.225L0.483,-0.225L0.467,-0.332L0.467,-0.7L0.597,-0.7L0.597,0.005L0.497,0.005L0.234,-0.365Z" style="fill-rule:nonzero;"/>
                </g>
                <g transform="matrix(21.7258,0,0,21.7258,809.062,314.999)">
                    <path d="M0.557,-0.578L0.353,-0.578L0.353,-0L0.216,-0L0.216,-0.578L0.011,-0.578L0.011,-0.7L0.557,-0.7L0.557,-0.578Z" style="fill-rule:nonzero;"/>
                </g>
            </g>
            <g transform="matrix(1.90554,0,0,1.90554,-57.5877,2989.15)">
                <g transform="matrix(21.7258,0,0,21.7258,705.765,314.999)">
                    <path d="M0.503,-0L0.06,-0L0.06,-0.7L0.197,-0.7L0.197,-0.122L0.503,-0.122L0.503,-0Z" style="fill-rule:nonzero;"/>
                </g>
                <g transform="matrix(21.7258,0,0,21.7258,716.932,314.999)">
                    <rect x="0.074" y="-0.7" width="0.137" height="0.7" style="fill-rule:nonzero;"/>
                </g>
                <g transform="matrix(21.7258,0,0,21.7258,723.124,314.999)">
                    <path d="M0.234,-0.365L0.179,-0.475L0.174,-0.475L0.19,-0.365L0.19,-0L0.06,-0L0.06,-0.705L0.16,-0.705L0.425,-0.332L0.478,-0.225L0.483,-0.225L0.467,-0.332L0.467,-0.7L0.597,-0.7L0.597,0.005L0.497,0.005L0.234,-0.365Z" style="fill-rule:nonzero;"/>
                </g>
                <g transform="matrix(21.7258,0,0,21.7258,737.398,314.999)">
                    <path d="M0.06,-0.7L0.475,-0.7L0.475,-0.578L0.197,-0.578L0.197,-0.415L0.45,-0.415L0.45,-0.293L0.197,-0.293L0.197,-0.122L0.48,-0.122L0.48,-0L0.06,-0L0.06,-0.7Z" style="fill-rule:nonzero;"/>
                </g>
                <g transform="matrix(21.7258,0,0,21.7258,748.739,314.999)">
                    <path d="M0.362,-0.188C0.362,-0.209 0.354,-0.227 0.339,-0.24C0.323,-0.253 0.303,-0.266 0.28,-0.277C0.256,-0.288 0.23,-0.299 0.203,-0.311C0.175,-0.322 0.149,-0.337 0.126,-0.354C0.102,-0.371 0.082,-0.392 0.067,-0.417C0.051,-0.442 0.043,-0.475 0.043,-0.514C0.043,-0.548 0.049,-0.578 0.06,-0.603C0.071,-0.628 0.088,-0.648 0.109,-0.665C0.13,-0.682 0.154,-0.694 0.183,-0.702C0.212,-0.71 0.244,-0.714 0.279,-0.714C0.32,-0.714 0.358,-0.711 0.394,-0.704C0.43,-0.697 0.46,-0.686 0.483,-0.673L0.44,-0.558C0.425,-0.567 0.403,-0.576 0.374,-0.584C0.345,-0.591 0.313,-0.595 0.279,-0.595C0.247,-0.595 0.223,-0.589 0.206,-0.576C0.189,-0.563 0.18,-0.546 0.18,-0.525C0.18,-0.505 0.188,-0.488 0.204,-0.475C0.219,-0.462 0.239,-0.449 0.263,-0.438C0.286,-0.427 0.312,-0.415 0.34,-0.403C0.367,-0.391 0.393,-0.377 0.417,-0.36C0.44,-0.343 0.46,-0.322 0.476,-0.297C0.491,-0.272 0.499,-0.24 0.499,-0.203C0.499,-0.166 0.493,-0.133 0.481,-0.107C0.468,-0.08 0.451,-0.057 0.429,-0.039C0.406,-0.021 0.379,-0.008 0.348,0.001C0.316,0.01 0.281,0.014 0.243,0.014C0.193,0.014 0.149,0.009 0.111,-0C0.073,-0.009 0.045,-0.019 0.027,-0.028L0.071,-0.145C0.078,-0.141 0.088,-0.137 0.1,-0.132C0.111,-0.127 0.124,-0.123 0.139,-0.119C0.154,-0.115 0.169,-0.112 0.186,-0.109C0.202,-0.106 0.219,-0.105 0.236,-0.105C0.277,-0.105 0.308,-0.112 0.33,-0.126C0.351,-0.139 0.362,-0.16 0.362,-0.188Z" style="fill-rule:nonzero;"/>
                </g>
                <g transform="matrix(21.7258,0,0,21.7258,760.254,314.999)">
                    <path d="M0.557,-0.578L0.353,-0.578L0.353,-0L0.216,-0L0.216,-0.578L0.011,-0.578L0.011,-0.7L0.557,-0.7L0.557,-0.578Z" style="fill-rule:nonzero;"/>
                </g>
                <g transform="matrix(21.7258,0,0,21.7258,772.594,314.999)">
                    <path d="M0.06,-0.693C0.075,-0.696 0.092,-0.698 0.11,-0.701C0.127,-0.703 0.145,-0.705 0.163,-0.706C0.18,-0.707 0.197,-0.708 0.214,-0.709C0.231,-0.71 0.246,-0.71 0.26,-0.71C0.293,-0.71 0.325,-0.707 0.357,-0.701C0.388,-0.695 0.417,-0.685 0.442,-0.67C0.467,-0.655 0.487,-0.635 0.502,-0.61C0.517,-0.584 0.524,-0.552 0.524,-0.513C0.524,-0.456 0.511,-0.409 0.484,-0.373C0.457,-0.337 0.422,-0.312 0.377,-0.298L0.426,-0.267L0.586,-0L0.428,-0L0.269,-0.274L0.197,-0.287L0.197,-0L0.06,-0L0.06,-0.693ZM0.27,-0.588C0.256,-0.588 0.242,-0.588 0.229,-0.587C0.215,-0.586 0.204,-0.585 0.197,-0.583L0.197,-0.38L0.255,-0.38C0.293,-0.38 0.323,-0.389 0.346,-0.406C0.369,-0.423 0.38,-0.452 0.38,-0.492C0.38,-0.522 0.371,-0.546 0.352,-0.563C0.333,-0.58 0.306,-0.588 0.27,-0.588Z" style="fill-rule:nonzero;"/>
                </g>
                <g transform="matrix(21.7258,0,0,21.7258,785.673,314.999)">
                    <rect x="0.074" y="-0.7" width="0.137" height="0.7" style="fill-rule:nonzero;"/>
                </g>
                <g transform="matrix(21.7258,0,0,21.7258,791.865,314.999)">
                    <path d="M0.234,-0.365L0.179,-0.475L0.174,-0.475L0.19,-0.365L0.19,-0L0.06,-0L0.06,-0.705L0.16,-0.705L0.425,-0.332L0.478,-0.225L0.483,-0.225L0.467,-0.332L0.467,-0.7L0.597,-0.7L0.597,0.005L0.497,0.005L0.234,-0.365Z" style="fill-rule:nonzero;"/>
                </g>
                <g transform="matrix(21.7258,0,0,21.7258,806.139,314.999)">
                    <path d="M0.307,-0.365L0.568,-0.365L0.568,-0.053C0.54,-0.03 0.507,-0.013 0.468,-0.002C0.429,0.009 0.39,0.014 0.352,0.014C0.307,0.014 0.266,0.007 0.228,-0.007C0.189,-0.021 0.156,-0.043 0.128,-0.073C0.1,-0.102 0.078,-0.14 0.062,-0.186C0.046,-0.232 0.038,-0.287 0.038,-0.35C0.038,-0.416 0.048,-0.472 0.067,-0.519C0.086,-0.565 0.111,-0.603 0.142,-0.632C0.173,-0.661 0.207,-0.682 0.246,-0.695C0.285,-0.708 0.324,-0.714 0.364,-0.714C0.404,-0.714 0.439,-0.711 0.47,-0.705C0.5,-0.699 0.524,-0.693 0.542,-0.686L0.514,-0.571C0.497,-0.578 0.479,-0.583 0.458,-0.587C0.437,-0.59 0.411,-0.592 0.379,-0.592C0.35,-0.592 0.324,-0.588 0.3,-0.579C0.276,-0.57 0.255,-0.556 0.238,-0.537C0.22,-0.517 0.206,-0.492 0.197,-0.461C0.187,-0.43 0.182,-0.393 0.182,-0.349C0.182,-0.307 0.187,-0.271 0.196,-0.241C0.205,-0.21 0.218,-0.185 0.235,-0.166C0.252,-0.146 0.271,-0.131 0.294,-0.122C0.316,-0.113 0.34,-0.108 0.365,-0.108C0.382,-0.108 0.399,-0.11 0.416,-0.115C0.433,-0.119 0.447,-0.125 0.458,-0.134L0.458,-0.266L0.307,-0.282L0.307,-0.365Z" style="fill-rule:nonzero;"/>
                </g>
            </g>
            <g transform="matrix(1.90554,0,0,1.90554,-428.092,2989.15)">
                <g transform="matrix(21.7258,0,0,21.7258,717.943,314.999)">
                    <path d="M0.06,-0.693C0.088,-0.698 0.119,-0.703 0.153,-0.706C0.186,-0.708 0.22,-0.71 0.253,-0.71C0.288,-0.71 0.323,-0.707 0.358,-0.702C0.393,-0.696 0.424,-0.685 0.452,-0.668C0.48,-0.651 0.503,-0.627 0.521,-0.597C0.538,-0.566 0.547,-0.527 0.547,-0.478C0.547,-0.434 0.539,-0.397 0.524,-0.367C0.509,-0.336 0.488,-0.311 0.463,-0.292C0.438,-0.273 0.409,-0.259 0.377,-0.25C0.344,-0.241 0.311,-0.237 0.276,-0.237L0.26,-0.237C0.253,-0.237 0.245,-0.237 0.237,-0.238C0.229,-0.238 0.221,-0.238 0.214,-0.239C0.206,-0.24 0.2,-0.24 0.197,-0.241L0.197,-0L0.06,-0L0.06,-0.693ZM0.264,-0.592C0.251,-0.592 0.238,-0.592 0.226,-0.591C0.214,-0.59 0.204,-0.588 0.197,-0.587L0.197,-0.36C0.2,-0.359 0.204,-0.359 0.209,-0.358C0.214,-0.357 0.22,-0.357 0.226,-0.357C0.232,-0.356 0.238,-0.356 0.244,-0.356L0.256,-0.356C0.274,-0.356 0.292,-0.358 0.31,-0.361C0.327,-0.364 0.343,-0.371 0.357,-0.38C0.371,-0.389 0.382,-0.401 0.391,-0.417C0.399,-0.433 0.403,-0.454 0.403,-0.48C0.403,-0.502 0.399,-0.52 0.391,-0.535C0.383,-0.549 0.373,-0.56 0.36,-0.569C0.347,-0.578 0.332,-0.584 0.315,-0.587C0.298,-0.59 0.281,-0.592 0.264,-0.592Z" style="fill-rule:nonzero;"/>
                </g>
                <g transform="matrix(21.7258,0,0,21.7258,730.37,314.999)">
                    <path d="M0.038,-0.35C0.038,-0.467 0.064,-0.557 0.115,-0.62C0.166,-0.683 0.24,-0.714 0.335,-0.714C0.385,-0.714 0.429,-0.705 0.466,-0.688C0.503,-0.671 0.534,-0.646 0.559,-0.614C0.584,-0.582 0.602,-0.544 0.614,-0.499C0.626,-0.454 0.632,-0.405 0.632,-0.35C0.632,-0.233 0.606,-0.144 0.555,-0.081C0.503,-0.018 0.43,0.014 0.335,0.014C0.284,0.014 0.24,0.005 0.203,-0.012C0.166,-0.029 0.135,-0.054 0.111,-0.086C0.086,-0.118 0.068,-0.156 0.056,-0.201C0.044,-0.246 0.038,-0.295 0.038,-0.35ZM0.182,-0.35C0.182,-0.315 0.185,-0.282 0.191,-0.253C0.197,-0.223 0.206,-0.197 0.219,-0.176C0.231,-0.155 0.247,-0.138 0.266,-0.126C0.285,-0.114 0.308,-0.108 0.335,-0.108C0.384,-0.108 0.421,-0.127 0.448,-0.165C0.475,-0.203 0.488,-0.265 0.488,-0.35C0.488,-0.384 0.485,-0.416 0.48,-0.445C0.474,-0.474 0.465,-0.5 0.453,-0.522C0.441,-0.544 0.425,-0.561 0.406,-0.574C0.387,-0.586 0.363,-0.592 0.335,-0.592C0.286,-0.592 0.249,-0.572 0.222,-0.534C0.195,-0.495 0.182,-0.433 0.182,-0.35Z" style="fill-rule:nonzero;"/>
                </g>
                <g transform="matrix(21.7258,0,0,21.7258,744.926,314.999)">
                    <path d="M0.503,-0L0.06,-0L0.06,-0.7L0.197,-0.7L0.197,-0.122L0.503,-0.122L0.503,-0Z" style="fill-rule:nonzero;"/>
                </g>
                <g transform="matrix(21.7258,0,0,21.7258,753.312,314.999)">
                    <path d="M0.228,-0.26L-0.002,-0.7L0.161,-0.7L0.289,-0.437L0.303,-0.363L0.308,-0.363L0.323,-0.439L0.447,-0.7L0.594,-0.7L0.365,-0.261L0.365,-0L0.228,-0L0.228,-0.26Z" style="fill-rule:nonzero;"/>
                </g>
                <g transform="matrix(21.7258,0,0,21.7258,765.131,314.999)">
                    <path d="M0.307,-0.365L0.568,-0.365L0.568,-0.053C0.54,-0.03 0.507,-0.013 0.468,-0.002C0.429,0.009 0.39,0.014 0.352,0.014C0.307,0.014 0.266,0.007 0.228,-0.007C0.189,-0.021 0.156,-0.043 0.128,-0.073C0.1,-0.102 0.078,-0.14 0.062,-0.186C0.046,-0.232 0.038,-0.287 0.038,-0.35C0.038,-0.416 0.048,-0.472 0.067,-0.519C0.086,-0.565 0.111,-0.603 0.142,-0.632C0.173,-0.661 0.207,-0.682 0.246,-0.695C0.285,-0.708 0.324,-0.714 0.364,-0.714C0.404,-0.714 0.439,-0.711 0.47,-0.705C0.5,-0.699 0.524,-0.693 0.542,-0.686L0.514,-0.571C0.497,-0.578 0.479,-0.583 0.458,-0.587C0.437,-0.59 0.411,-0.592 0.379,-0.592C0.35,-0.592 0.324,-0.588 0.3,-0.579C0.276,-0.57 0.255,-0.556 0.238,-0.537C0.22,-0.517 0.206,-0.492 0.197,-0.461C0.187,-0.43 0.182,-0.393 0.182,-0.349C0.182,-0.307 0.187,-0.271 0.196,-0.241C0.205,-0.21 0.218,-0.185 0.235,-0.166C0.252,-0.146 0.271,-0.131 0.294,-0.122C0.316,-0.113 0.34,-0.108 0.365,-0.108C0.382,-0.108 0.399,-0.11 0.416,-0.115C0.433,-0.119 0.447,-0.125 0.458,-0.134L0.458,-0.266L0.307,-0.282L0.307,-0.365Z" style="fill-rule:nonzero;"/>
                </g>
                <g transform="matrix(21.7258,0,0,21.7258,778.362,314.999)">
                    <path d="M0.038,-0.35C0.038,-0.467 0.064,-0.557 0.115,-0.62C0.166,-0.683 0.24,-0.714 0.335,-0.714C0.385,-0.714 0.429,-0.705 0.466,-0.688C0.503,-0.671 0.534,-0.646 0.559,-0.614C0.584,-0.582 0.602,-0.544 0.614,-0.499C0.626,-0.454 0.632,-0.405 0.632,-0.35C0.632,-0.233 0.606,-0.144 0.555,-0.081C0.503,-0.018 0.43,0.014 0.335,0.014C0.284,0.014 0.24,0.005 0.203,-0.012C0.166,-0.029 0.135,-0.054 0.111,-0.086C0.086,-0.118 0.068,-0.156 0.056,-0.201C0.044,-0.246 0.038,-0.295 0.038,-0.35ZM0.182,-0.35C0.182,-0.315 0.185,-0.282 0.191,-0.253C0.197,-0.223 0.206,-0.197 0.219,-0.176C0.231,-0.155 0.247,-0.138 0.266,-0.126C0.285,-0.114 0.308,-0.108 0.335,-0.108C0.384,-0.108 0.421,-0.127 0.448,-0.165C0.475,-0.203 0.488,-0.265 0.488,-0.35C0.488,-0.384 0.485,-0.416 0.48,-0.445C0.474,-0.474 0.465,-0.5 0.453,-0.522C0.441,-0.544 0.425,-0.561 0.406,-0.574C0.387,-0.586 0.363,-0.592 0.335,-0.592C0.286,-0.592 0.249,-0.572 0.222,-0.534C0.195,-0.495 0.182,-0.433 0.182,-0.35Z" style="fill-rule:nonzero;"/>
                </g>
                <g transform="matrix(21.7258,0,0,21.7258,792.919,314.999)">
                    <path d="M0.234,-0.365L0.179,-0.475L0.174,-0.475L0.19,-0.365L0.19,-0L0.06,-0L0.06,-0.705L0.16,-0.705L0.425,-0.332L0.478,-0.225L0.483,-0.225L0.467,-0.332L0.467,-0.7L0.597,-0.7L0.597,0.005L0.497,0.005L0.234,-0.365Z" style="fill-rule:nonzero;"/>
                </g>
            </g>
            <g transform="matrix(1.01386,0,0,1.01386,-2515.32,1963.02)">
                <path d="M3737.95,1743.64L3740.92,1698.04L3772.93,1662.76L3824.01,1716.34L3858.86,1620.72L3914.34,1639.32L3908.27,1721.78L3952.51,1691.93L3957.62,1646.11L3981.31,1617.23L4011.18,1632.65L3997.58,1694.58L3963.73,1760.83L3912.94,1752.24L3896.06,1790.2L3823.12,1739.81L3786.73,1751.33L3737.95,1743.64Z" style="fill:white;stroke:black;stroke-width:3.95px;"/>
            </g>
            <g transform="matrix(0.642194,0,0,0.642194,996.232,1516.81)">
                <circle cx="148.208" cy="3711.62" r="8.384" style="stroke:black;stroke-width:9.34px;stroke-linecap:square;stroke-linejoin:miter;"/>
            </g>
            <g transform="matrix(0.642194,0,0,0.642194,1048.45,1569.61)">
                <circle cx="148.208" cy="3711.62" r="8.384" style="stroke:black;stroke-width:9.34px;stroke-linecap:square;stroke-linejoin:miter;"/>
            </g>
            <g transform="matrix(0.642194,0,0,0.642194,1084.58,1474.14)">
                <circle cx="148.208" cy="3711.62" r="8.384" style="stroke:black;stroke-width:9.34px;stroke-linecap:square;stroke-linejoin:miter;"/>
            </g>
            <g transform="matrix(0.642194,0,0,0.642194,1140.08,1491.98)">
                <circle cx="148.208" cy="3711.62" r="8.384" style="stroke:black;stroke-width:9.34px;stroke-linecap:square;stroke-linejoin:miter;"/>
            </g>
            <g transform="matrix(0.642194,0,0,0.642194,1132.89,1575.7)">
                <circle cx="148.208" cy="3711.62" r="8.384" style="stroke:black;stroke-width:9.34px;stroke-linecap:square;stroke-linejoin:miter;"/>
            </g>
            <g transform="matrix(0.642194,0,0,0.642194,1177.82,1546.1)">
                <circle cx="148.208" cy="3711.62" r="8.384" style="stroke:black;stroke-width:9.34px;stroke-linecap:square;stroke-linejoin:miter;"/>
            </g>
            <g transform="matrix(0.642194,0,0,0.642194,1183.78,1499.54)">
                <circle cx="148.208" cy="3711.62" r="8.384" style="stroke:black;stroke-width:9.34px;stroke-linecap:square;stroke-linejoin:miter;"/>
            </g>
            <g transform="matrix(0.642194,0,0,0.642194,1207.06,1469.95)">
                <circle cx="148.208" cy="3711.62" r="8.384" style="stroke:black;stroke-width:9.34px;stroke-linecap:square;stroke-linejoin:miter;"/>
            </g>
            <g transform="matrix(0.642194,0,0,0.642194,1238.29,1486.05)">
                <circle cx="148.208" cy="3711.62" r="8.384" style="stroke:black;stroke-width:9.34px;stroke-linecap:square;stroke-linejoin:miter;"/>
            </g>
            <g transform="matrix(0.642194,0,0,0.642194,1223.47,1549.11)">
                <circle cx="148.208" cy="3711.62" r="8.384" style="stroke:black;stroke-width:9.34px;stroke-linecap:square;stroke-linejoin:miter;"/>
            </g>
            <g transform="matrix(0.642194,0,0,0.642194,1190.66,1615.09)">
                <circle cx="148.208" cy="3711.62" r="8.384" style="stroke:black;stroke-width:9.34px;stroke-linecap:square;stroke-linejoin:miter;"/>
            </g>
            <g transform="matrix(0.642194,0,0,0.642194,1138.1,1606.67)">
                <circle cx="148.208" cy="3711.62" r="8.384" style="stroke:black;stroke-width:9.34px;stroke-linecap:square;stroke-linejoin:miter;"/>
            </g>
            <g transform="matrix(0.642194,0,0,0.642194,1121.34,1644.16)">
                <circle cx="148.208" cy="3711.62" r="8.384" style="stroke:black;stroke-width:9.34px;stroke-linecap:square;stroke-linejoin:miter;"/>
            </g>
            <g transform="matrix(0.642194,0,0,0.642194,1048.53,1592.9)">
                <circle cx="148.208" cy="3711.62" r="8.384" style="stroke:black;stroke-width:9.34px;stroke-linecap:square;stroke-linejoin:miter;"/>
            </g>
            <g transform="matrix(0.642194,0,0,0.642194,1009.37,1604.75)">
                <circle cx="148.208" cy="3711.62" r="8.384" style="stroke:black;stroke-width:9.34px;stroke-linecap:square;stroke-linejoin:miter;"/>
            </g>
            <g transform="matrix(0.642194,0,0,0.642194,961.726,1596.96)">
                <circle cx="148.208" cy="3711.62" r="8.384" style="stroke:black;stroke-width:9.34px;stroke-linecap:square;stroke-linejoin:miter;"/>
            </g>
            <g transform="matrix(0.642194,0,0,0.642194,964.494,1550.57)">
                <circle cx="148.208" cy="3711.62" r="8.384" style="stroke:black;stroke-width:9.34px;stroke-linecap:square;stroke-linejoin:miter;"/>
            </g>
            <g id="dashed">
            </g>
            <g id="dots-2" serif:id="dots 2">
            </g>
            <g id="dots">
            </g>
            <g transform="matrix(1,0,0,1,20,10)">
                <g transform="matrix(1,-0,-0,1,858,3539)">
                    <path d="M225.599,299.874L243.608,302.421L246.155,284.412" style="fill:none;stroke:rgb(108,108,108);stroke-width:5px;stroke-linecap:butt;stroke-linejoin:miter;"/>
                    <path d="M210.996,218.611L226.988,209.948L235.652,225.94" style="fill:none;stroke:rgb(108,108,108);stroke-width:5px;stroke-linecap:butt;stroke-linejoin:miter;"/>
                    <path d="M243.608,302.421C230.661,284.613 223.022,262.702 223.022,239.022C223.022,228.951 224.404,219.199 226.988,209.948" style="fill:none;stroke:rgb(108,108,108);stroke-width:5px;stroke-linecap:butt;stroke-linejoin:bevel;"/>
                </g>
            </g>
            <g transform="matrix(1,0,0,1,20,0)">
                <g transform="matrix(1,-0,-0,1,858,3549)">
                    <path d="M284.172,116.664L279.339,134.199L296.874,139.031" style="fill:none;stroke:rgb(108,108,108);stroke-width:5px;stroke-linecap:butt;stroke-linejoin:miter;"/>
                    <path d="M382.1,118.547L386.257,136.254L368.55,140.411" style="fill:none;stroke:rgb(108,108,108);stroke-width:5px;stroke-linecap:butt;stroke-linejoin:miter;"/>
                    <path d="M279.339,134.199C294.688,125.812 312.292,121.044 331,121.044C351.187,121.044 370.088,126.596 386.257,136.254" style="fill:none;stroke:rgb(108,108,108);stroke-width:5px;stroke-linecap:butt;stroke-linejoin:bevel;"/>
                </g>
            </g>
            <g transform="matrix(1,0,0,1,20,10)">
                <g transform="matrix(1,-0,-0,1,858,3539)">
                    <path d="M449.127,209.613L432.523,202.19L425.1,218.794" style="fill:none;stroke:rgb(108,108,108);stroke-width:5px;stroke-linecap:butt;stroke-linejoin:miter;"/>
                    <path d="M447.624,273.92L430.689,280.554L424.054,263.619" style="fill:none;stroke:rgb(108,108,108);stroke-width:5px;stroke-linecap:butt;stroke-linejoin:miter;"/>
                    <path d="M432.523,202.19C436.7,213.686 438.978,226.09 438.978,239.022C438.978,253.736 436.029,267.767 430.689,280.554" style="fill:none;stroke:rgb(108,108,108);stroke-width:5px;stroke-linecap:butt;stroke-linejoin:bevel;"/>
                </g>
            </g>
        </g>
    </g>
</svg>
