<?xml version="1.0" encoding="UTF-8" standalone="no"?>
<!DOCTYPE svg PUBLIC "-//W3C//DTD SVG 1.1//EN" "http://www.w3.org/Graphics/SVG/1.1/DTD/svg11.dtd">
<svg width="100%" height="100%" viewBox="0 0 196 171" version="1.1" xmlns="http://www.w3.org/2000/svg" xmlns:xlink="http://www.w3.org/1999/xlink" xml:space="preserve" xmlns:serif="http://www.serif.com/" style="fill-rule:evenodd;clip-rule:evenodd;stroke-linecap:square;stroke-linejoin:bevel;stroke-miterlimit:10;">
    <g transform="matrix(1,0,0,1,-392,-3869)">
        <rect id="Vector-analysis" serif:id="Vector analysis" x="0" y="3502" width="2985" height="2387" style="fill:none;"/>
        <g id="Vector-analysis1" serif:id="Vector analysis">
            <path d="M495.179,3875L543.427,3888.46L581.387,3932.91L554.196,4015.51L451,4034L398.202,3981.29L435.117,3911.85L495.179,3875Z" style="fill:rgb(194,194,194);stroke:black;stroke-width:3px;"/>
            <g id="dashed">
            </g>
            <g id="dots-2" serif:id="dots 2">
                <g transform="matrix(0.642194,0,0,0.642194,400.001,1491.42)">
                    <circle cx="148.208" cy="3711.62" r="8.384"/>
                </g>
                <g transform="matrix(0.642194,0,0,0.642194,339.939,1528.27)">
                    <circle cx="148.208" cy="3711.62" r="8.384"/>
                </g>
                <g transform="matrix(0.642194,0,0,0.642194,352.954,1549.06)">
                    <circle cx="148.208" cy="3711.62" r="8.384"/>
                </g>
                <g transform="matrix(0.642194,0,0,0.642194,303.024,1597.71)">
                    <circle cx="148.208" cy="3711.62" r="8.384"/>
                </g>
                <g transform="matrix(0.642194,0,0,0.642194,459.017,1631.93)">
                    <circle cx="148.208" cy="3711.62" r="8.384"/>
                </g>
                <g transform="matrix(0.642194,0,0,0.642194,420.628,1628.76)">
                    <circle cx="148.208" cy="3711.62" r="8.384"/>
                </g>
                <g transform="matrix(0.642194,0,0,0.642194,422.862,1595.43)">
                    <circle cx="148.208" cy="3711.62" r="8.384"/>
                </g>
                <g transform="matrix(0.642194,0,0,0.642194,429.785,1618.31)">
                    <circle cx="148.208" cy="3711.62" r="8.384"/>
                </g>
                <g transform="matrix(0.642194,0,0,0.642194,355.323,1650.42)">
                    <circle cx="148.208" cy="3711.62" r="8.384"/>
                </g>
                <g transform="matrix(0.642194,0,0,0.642194,428.954,1556.54)">
                    <circle cx="148.208" cy="3711.62" r="8.384"/>
                </g>
                <g transform="matrix(0.642194,0,0,0.642194,405.243,1515.65)">
                    <circle cx="148.208" cy="3711.62" r="8.384"/>
                </g>
                <g transform="matrix(0.642194,0,0,0.642194,444.978,1592.32)">
                    <circle cx="148.208" cy="3711.62" r="8.384"/>
                </g>
                <g transform="matrix(0.642194,0,0,0.642194,457.865,1582.67)">
                    <circle cx="148.208" cy="3711.62" r="8.384"/>
                </g>
                <g transform="matrix(0.642194,0,0,0.642194,461.865,1565.54)">
                    <circle cx="148.208" cy="3711.62" r="8.384"/>
                </g>
                <g transform="matrix(0.642194,0,0,0.642194,435.169,1577.29)">
                    <circle cx="148.208" cy="3711.62" r="8.384"/>
                </g>
                <g transform="matrix(0.642194,0,0,0.642194,366.092,1586.94)">
                    <circle cx="148.208" cy="3711.62" r="8.384"/>
                </g>
                <g transform="matrix(0.642194,0,0,0.642194,448.248,1504.88)">
                    <circle cx="148.208" cy="3711.62" r="8.384"/>
                </g>
                <g transform="matrix(0.642194,0,0,0.642194,452.48,1549.06)">
                    <circle cx="148.208" cy="3711.62" r="8.384"/>
                </g>
                <g transform="matrix(0.642194,0,0,0.642194,385.056,1585)">
                    <circle cx="148.208" cy="3711.62" r="8.384"/>
                </g>
                <g transform="matrix(0.642194,0,0,0.642194,350.707,1629)">
                    <circle cx="148.208" cy="3711.62" r="8.384"/>
                </g>
                <g transform="matrix(0.642194,0,0,0.642194,334.554,1618.23)">
                    <circle cx="148.208" cy="3711.62" r="8.384"/>
                </g>
                <g transform="matrix(0.642194,0,0,0.642194,362.671,1618.23)">
                    <circle cx="148.208" cy="3711.62" r="8.384"/>
                </g>
                <g transform="matrix(0.642194,0,0,0.642194,384.209,1629)">
                    <circle cx="148.208" cy="3711.62" r="8.384"/>
                </g>
                <g transform="matrix(0.642194,0,0,0.642194,486.209,1549.34)">
                    <circle cx="148.208" cy="3711.62" r="8.384"/>
                </g>
                <g transform="matrix(0.642194,0,0,0.642194,461.209,1533.65)">
                    <circle cx="148.208" cy="3711.62" r="8.384"/>
                </g>
                <g transform="matrix(0.642194,0,0,0.642194,405.243,1565.49)">
                    <circle cx="148.208" cy="3711.62" r="8.384"/>
                </g>
                <g transform="matrix(0.642194,0,0,0.642194,437.243,1533.65)">
                    <circle cx="148.208" cy="3711.62" r="8.384"/>
                </g>
                <g transform="matrix(0.642194,0,0,0.642194,409.491,1583)">
                    <circle cx="148.208" cy="3711.62" r="8.384"/>
                </g>
                <g transform="matrix(0.642194,0,0,0.642194,399.859,1611.77)">
                    <circle cx="148.208" cy="3711.62" r="8.384"/>
                </g>
                <g transform="matrix(0.642194,0,0,0.642194,373.44,1522.88)">
                    <circle cx="148.208" cy="3711.62" r="8.384"/>
                </g>
                <g transform="matrix(0.642194,0,0,0.642194,331.554,1565.54)">
                    <circle cx="148.208" cy="3711.62" r="8.384"/>
                </g>
                <g transform="matrix(0.642194,0,0,0.642194,416.266,1538.29)">
                    <circle cx="148.208" cy="3711.62" r="8.384"/>
                </g>
                <g transform="matrix(0.642194,0,0,0.642194,373.44,1554.72)">
                    <circle cx="148.208" cy="3711.62" r="8.384"/>
                </g>
                <g transform="matrix(0.642194,0,0,0.642194,339.911,1593.44)">
                    <circle cx="148.208" cy="3711.62" r="8.384"/>
                </g>
            </g>
            <g id="dots">
            </g>
        </g>
    </g>
</svg>
