<?xml version="1.0" encoding="UTF-8" standalone="no"?>
<!DOCTYPE svg PUBLIC "-//W3C//DTD SVG 1.1//EN" "http://www.w3.org/Graphics/SVG/1.1/DTD/svg11.dtd">
<svg width="100%" height="100%" viewBox="0 0 917 1116" version="1.1" xmlns="http://www.w3.org/2000/svg" xmlns:xlink="http://www.w3.org/1999/xlink" xml:space="preserve" xmlns:serif="http://www.serif.com/" style="fill-rule:evenodd;clip-rule:evenodd;stroke-linejoin:round;stroke-miterlimit:10;">
    <rect id="polygon_triangulation" x="-1989" y="-2606" width="8206" height="4260" style="fill:none;"/>
    <g id="polygon_triangulation1" serif:id="polygon_triangulation">
        <g id="TIN-vertices" serif:id="TIN vertices">
        </g>
        <g id="TIN-edges" serif:id="TIN edges">
        </g>
        <rect x="12.875" y="100" width="393.2" height="393.2" style="fill:white;stroke:black;stroke-width:2px;"/>
        <rect x="515.636" y="296.6" width="196.6" height="196.6" style="fill:white;stroke:black;stroke-width:2px;"/>
        <rect x="712.236" y="296.6" width="196.6" height="196.6" style="fill:white;stroke:black;stroke-width:2px;"/>
        <rect x="515.636" y="100" width="196.6" height="196.6" style="fill:white;stroke:black;stroke-width:2px;"/>
        <rect x="12.076" y="603.56" width="98.3" height="98.3" style="fill:white;stroke:black;stroke-width:2px;"/>
        <rect x="513.427" y="603.56" width="49.193" height="49.193" style="fill:white;stroke:black;stroke-width:2px;"/>
        <rect x="513.427" y="799.558" width="49.193" height="49.193" style="fill:white;stroke:black;stroke-width:2px;"/>
        <rect x="709.682" y="603.56" width="49.193" height="49.193" style="fill:white;stroke:black;stroke-width:2px;"/>
        <rect x="709.682" y="799.558" width="49.193" height="49.193" style="fill:white;stroke:black;stroke-width:2px;"/>
        <rect x="12.076" y="800.506" width="98.3" height="98.3" style="fill:white;stroke:black;stroke-width:2px;"/>
        <rect x="513.427" y="702.12" width="49.193" height="49.193" style="fill:white;stroke:black;stroke-width:2px;"/>
        <rect x="513.427" y="898.118" width="49.193" height="49.193" style="fill:white;stroke:black;stroke-width:2px;"/>
        <rect x="709.682" y="702.12" width="49.193" height="49.193" style="fill:white;stroke:black;stroke-width:2px;"/>
        <rect x="709.682" y="898.118" width="49.193" height="49.193" style="fill:white;stroke:black;stroke-width:2px;"/>
        <rect x="208.676" y="603.56" width="98.3" height="98.3" style="fill:white;stroke:black;stroke-width:2px;"/>
        <rect x="611.814" y="603.56" width="49.193" height="49.193" style="fill:white;stroke:black;stroke-width:2px;"/>
        <rect x="611.814" y="799.558" width="49.193" height="49.193" style="fill:white;stroke:black;stroke-width:2px;"/>
        <rect x="808.068" y="603.56" width="49.193" height="49.193" style="fill:white;stroke:black;stroke-width:2px;"/>
        <rect x="808.068" y="799.558" width="49.193" height="49.193" style="fill:white;stroke:black;stroke-width:2px;"/>
        <rect x="208.676" y="800.506" width="98.3" height="98.3" style="fill:white;stroke:black;stroke-width:2px;"/>
        <rect x="611.814" y="702.12" width="49.193" height="49.193" style="fill:white;stroke:black;stroke-width:2px;"/>
        <rect x="611.814" y="898.118" width="49.193" height="49.193" style="fill:white;stroke:black;stroke-width:2px;"/>
        <rect x="808.068" y="702.12" width="49.193" height="49.193" style="fill:white;stroke:black;stroke-width:2px;"/>
        <rect x="808.068" y="898.118" width="49.193" height="49.193" style="fill:white;stroke:black;stroke-width:2px;"/>
        <rect x="12.076" y="701.86" width="98.3" height="98.3" style="fill:white;stroke:black;stroke-width:2px;"/>
        <rect x="513.427" y="652.753" width="49.193" height="49.193" style="fill:white;stroke:black;stroke-width:2px;"/>
        <rect x="513.427" y="848.751" width="49.193" height="49.193" style="fill:white;stroke:black;stroke-width:2px;"/>
        <rect x="709.682" y="652.753" width="49.193" height="49.193" style="fill:white;stroke:black;stroke-width:2px;"/>
        <rect x="709.682" y="848.751" width="49.193" height="49.193" style="fill:white;stroke:black;stroke-width:2px;"/>
        <rect x="12.076" y="898.806" width="98.3" height="98.3" style="fill:white;stroke:black;stroke-width:2px;"/>
        <rect x="513.427" y="751.313" width="49.193" height="49.193" style="fill:white;stroke:black;stroke-width:2px;"/>
        <rect x="513.427" y="947.311" width="49.193" height="49.193" style="fill:white;stroke:black;stroke-width:2px;"/>
        <rect x="709.682" y="751.313" width="49.193" height="49.193" style="fill:white;stroke:black;stroke-width:2px;"/>
        <rect x="709.682" y="947.311" width="49.193" height="49.193" style="fill:white;stroke:black;stroke-width:2px;"/>
        <rect x="208.676" y="701.86" width="98.3" height="98.3" style="fill:white;stroke:black;stroke-width:2px;"/>
        <rect x="611.814" y="652.753" width="49.193" height="49.193" style="fill:white;stroke:black;stroke-width:2px;"/>
        <rect x="611.814" y="848.751" width="49.193" height="49.193" style="fill:white;stroke:black;stroke-width:2px;"/>
        <rect x="808.068" y="652.753" width="49.193" height="49.193" style="fill:white;stroke:black;stroke-width:2px;"/>
        <rect x="808.068" y="848.751" width="49.193" height="49.193" style="fill:white;stroke:black;stroke-width:2px;"/>
        <rect x="208.676" y="898.806" width="98.3" height="98.3" style="fill:white;stroke:black;stroke-width:2px;"/>
        <rect x="611.814" y="751.313" width="49.193" height="49.193" style="fill:white;stroke:black;stroke-width:2px;"/>
        <rect x="611.814" y="947.311" width="49.193" height="49.193" style="fill:white;stroke:black;stroke-width:2px;"/>
        <rect x="808.068" y="751.313" width="49.193" height="49.193" style="fill:white;stroke:black;stroke-width:2px;"/>
        <rect x="808.068" y="947.311" width="49.193" height="49.193" style="fill:white;stroke:black;stroke-width:2px;"/>
        <rect x="110.376" y="603.56" width="98.3" height="98.3" style="fill:white;stroke:black;stroke-width:2px;"/>
        <rect x="562.62" y="603.56" width="49.193" height="49.193" style="fill:white;stroke:black;stroke-width:2px;"/>
        <rect x="562.62" y="799.558" width="49.193" height="49.193" style="fill:white;stroke:black;stroke-width:2px;"/>
        <rect x="758.875" y="603.56" width="49.193" height="49.193" style="fill:white;stroke:black;stroke-width:2px;"/>
        <rect x="758.875" y="799.558" width="49.193" height="49.193" style="fill:white;stroke:black;stroke-width:2px;"/>
        <rect x="110.376" y="800.506" width="98.3" height="98.3" style="fill:white;stroke:black;stroke-width:2px;"/>
        <rect x="562.62" y="702.12" width="49.193" height="49.193" style="fill:white;stroke:black;stroke-width:2px;"/>
        <rect x="562.62" y="898.118" width="49.193" height="49.193" style="fill:white;stroke:black;stroke-width:2px;"/>
        <rect x="758.875" y="702.12" width="49.193" height="49.193" style="fill:white;stroke:black;stroke-width:2px;"/>
        <rect x="758.875" y="898.118" width="49.193" height="49.193" style="fill:white;stroke:black;stroke-width:2px;"/>
        <rect x="306.976" y="603.56" width="98.3" height="98.3" style="fill:white;stroke:black;stroke-width:2px;"/>
        <rect x="661.007" y="603.56" width="49.193" height="49.193" style="fill:white;stroke:black;stroke-width:2px;"/>
        <rect x="661.007" y="799.558" width="49.193" height="49.193" style="fill:white;stroke:black;stroke-width:2px;"/>
        <rect x="857.262" y="603.56" width="49.193" height="49.193" style="fill:white;stroke:black;stroke-width:2px;"/>
        <rect x="857.262" y="799.558" width="49.193" height="49.193" style="fill:white;stroke:black;stroke-width:2px;"/>
        <rect x="306.976" y="800.506" width="98.3" height="98.3" style="fill:white;stroke:black;stroke-width:2px;"/>
        <rect x="661.007" y="702.12" width="49.193" height="49.193" style="fill:white;stroke:black;stroke-width:2px;"/>
        <rect x="661.007" y="898.118" width="49.193" height="49.193" style="fill:white;stroke:black;stroke-width:2px;"/>
        <rect x="857.262" y="702.12" width="49.193" height="49.193" style="fill:white;stroke:black;stroke-width:2px;"/>
        <rect x="857.262" y="898.118" width="49.193" height="49.193" style="fill:white;stroke:black;stroke-width:2px;"/>
        <rect x="110.376" y="701.86" width="98.3" height="98.3" style="fill:white;stroke:black;stroke-width:2px;"/>
        <rect x="562.62" y="652.753" width="49.193" height="49.193" style="fill:white;stroke:black;stroke-width:2px;"/>
        <rect x="562.62" y="848.751" width="49.193" height="49.193" style="fill:white;stroke:black;stroke-width:2px;"/>
        <rect x="758.875" y="652.753" width="49.193" height="49.193" style="fill:white;stroke:black;stroke-width:2px;"/>
        <rect x="758.875" y="848.751" width="49.193" height="49.193" style="fill:white;stroke:black;stroke-width:2px;"/>
        <rect x="110.376" y="898.806" width="98.3" height="98.3" style="fill:white;stroke:black;stroke-width:2px;"/>
        <rect x="562.62" y="751.313" width="49.193" height="49.193" style="fill:white;stroke:black;stroke-width:2px;"/>
        <rect x="562.62" y="947.311" width="49.193" height="49.193" style="fill:white;stroke:black;stroke-width:2px;"/>
        <rect x="758.875" y="751.313" width="49.193" height="49.193" style="fill:white;stroke:black;stroke-width:2px;"/>
        <rect x="758.875" y="947.311" width="49.193" height="49.193" style="fill:white;stroke:black;stroke-width:2px;"/>
        <rect x="306.976" y="701.86" width="98.3" height="98.3" style="fill:white;stroke:black;stroke-width:2px;"/>
        <rect x="661.007" y="652.753" width="49.193" height="49.193" style="fill:white;stroke:black;stroke-width:2px;"/>
        <rect x="661.007" y="848.751" width="49.193" height="49.193" style="fill:white;stroke:black;stroke-width:2px;"/>
        <rect x="857.262" y="652.753" width="49.193" height="49.193" style="fill:white;stroke:black;stroke-width:2px;"/>
        <rect x="857.262" y="848.751" width="49.193" height="49.193" style="fill:white;stroke:black;stroke-width:2px;"/>
        <rect x="306.976" y="898.806" width="98.3" height="98.3" style="fill:white;stroke:black;stroke-width:2px;"/>
        <rect x="661.007" y="751.313" width="49.193" height="49.193" style="fill:white;stroke:black;stroke-width:2px;"/>
        <rect x="661.007" y="947.311" width="49.193" height="49.193" style="fill:white;stroke:black;stroke-width:2px;"/>
        <rect x="857.262" y="751.313" width="49.193" height="49.193" style="fill:white;stroke:black;stroke-width:2px;"/>
        <rect x="857.262" y="947.311" width="49.193" height="49.193" style="fill:white;stroke:black;stroke-width:2px;"/>
        <rect x="712.236" y="100" width="196.6" height="196.6" style="fill:white;stroke:black;stroke-width:2px;"/>
        <g transform="matrix(1,0,0,1,-13616.4,-16355)">
            <g transform="matrix(60,0,0,60,13764.3,16411.3)">
                <path d="M0.222,-0.207L0.187,-0.207L0.187,-0L0.057,-0L0.057,-0.7L0.187,-0.7L0.187,-0.287L0.217,-0.301L0.331,-0.5L0.474,-0.5L0.354,-0.31L0.303,-0.272L0.358,-0.233L0.493,-0L0.344,-0L0.222,-0.207Z" style="fill-rule:nonzero;"/>
            </g>
            <g transform="matrix(60,0,0,60,13809.8,16411.3)">
                <path d="M0.04,-0.457L0.464,-0.457L0.464,-0.385L0.04,-0.385L0.04,-0.457ZM0.04,-0.291L0.464,-0.291L0.464,-0.219L0.04,-0.219L0.04,-0.291Z" style="fill-rule:nonzero;"/>
            </g>
            <g transform="matrix(60,0,0,60,13856.1,16411.3)">
                <path d="M0.043,-0.35C0.043,-0.47 0.063,-0.56 0.102,-0.621C0.14,-0.682 0.197,-0.712 0.272,-0.712C0.353,-0.712 0.411,-0.682 0.448,-0.623C0.484,-0.563 0.502,-0.472 0.502,-0.35C0.502,-0.23 0.483,-0.14 0.444,-0.079C0.405,-0.018 0.347,0.012 0.272,0.012C0.193,0.012 0.135,-0.02 0.098,-0.083C0.061,-0.146 0.043,-0.235 0.043,-0.35ZM0.126,-0.35C0.126,-0.307 0.129,-0.267 0.135,-0.232C0.14,-0.196 0.149,-0.165 0.161,-0.14C0.173,-0.114 0.188,-0.094 0.207,-0.08C0.225,-0.065 0.247,-0.058 0.272,-0.058C0.323,-0.058 0.36,-0.082 0.384,-0.129C0.407,-0.175 0.419,-0.249 0.419,-0.35C0.419,-0.393 0.417,-0.432 0.412,-0.468C0.407,-0.504 0.398,-0.535 0.387,-0.561C0.375,-0.587 0.36,-0.607 0.341,-0.621C0.322,-0.635 0.299,-0.642 0.272,-0.642C0.222,-0.642 0.185,-0.618 0.162,-0.571C0.138,-0.524 0.126,-0.45 0.126,-0.35Z" style="fill-rule:nonzero;"/>
            </g>
        </g>
        <g transform="matrix(1,0,0,1,-13616.4,-15318.4)">
            <g transform="matrix(60,0,0,60,13764.3,16411.3)">
                <path d="M0.222,-0.207L0.187,-0.207L0.187,-0L0.057,-0L0.057,-0.7L0.187,-0.7L0.187,-0.287L0.217,-0.301L0.331,-0.5L0.474,-0.5L0.354,-0.31L0.303,-0.272L0.358,-0.233L0.493,-0L0.344,-0L0.222,-0.207Z" style="fill-rule:nonzero;"/>
            </g>
            <g transform="matrix(60,0,0,60,13809.8,16411.3)">
                <path d="M0.04,-0.457L0.464,-0.457L0.464,-0.385L0.04,-0.385L0.04,-0.457ZM0.04,-0.291L0.464,-0.291L0.464,-0.219L0.04,-0.219L0.04,-0.291Z" style="fill-rule:nonzero;"/>
            </g>
            <g transform="matrix(60,0,0,60,13856.1,16411.3)">
                <path d="M0.446,-0.541C0.446,-0.506 0.44,-0.47 0.427,-0.433C0.413,-0.396 0.397,-0.358 0.376,-0.321C0.355,-0.284 0.331,-0.247 0.305,-0.212C0.279,-0.176 0.253,-0.142 0.227,-0.11L0.178,-0.067L0.178,-0.063L0.242,-0.074L0.46,-0.074L0.46,-0L0.062,-0L0.062,-0.029C0.077,-0.044 0.094,-0.063 0.115,-0.086C0.136,-0.109 0.157,-0.134 0.18,-0.162C0.202,-0.189 0.224,-0.219 0.246,-0.25C0.267,-0.28 0.287,-0.312 0.305,-0.344C0.322,-0.376 0.336,-0.408 0.347,-0.439C0.358,-0.47 0.363,-0.5 0.363,-0.528C0.363,-0.561 0.354,-0.588 0.335,-0.61C0.316,-0.631 0.288,-0.642 0.25,-0.642C0.225,-0.642 0.2,-0.637 0.176,-0.627C0.152,-0.616 0.131,-0.604 0.114,-0.591L0.081,-0.648C0.104,-0.668 0.132,-0.684 0.164,-0.695C0.196,-0.706 0.23,-0.712 0.267,-0.712C0.296,-0.712 0.321,-0.708 0.343,-0.7C0.365,-0.691 0.384,-0.679 0.399,-0.664C0.414,-0.649 0.426,-0.631 0.434,-0.61C0.442,-0.588 0.446,-0.566 0.446,-0.541Z" style="fill-rule:nonzero;"/>
            </g>
        </g>
        <g transform="matrix(1,0,0,1,-13121.2,-16355)">
            <g transform="matrix(60,0,0,60,13764.3,16411.3)">
                <path d="M0.222,-0.207L0.187,-0.207L0.187,-0L0.057,-0L0.057,-0.7L0.187,-0.7L0.187,-0.287L0.217,-0.301L0.331,-0.5L0.474,-0.5L0.354,-0.31L0.303,-0.272L0.358,-0.233L0.493,-0L0.344,-0L0.222,-0.207Z" style="fill-rule:nonzero;"/>
            </g>
            <g transform="matrix(60,0,0,60,13809.8,16411.3)">
                <path d="M0.04,-0.457L0.464,-0.457L0.464,-0.385L0.04,-0.385L0.04,-0.457ZM0.04,-0.291L0.464,-0.291L0.464,-0.219L0.04,-0.219L0.04,-0.291Z" style="fill-rule:nonzero;"/>
            </g>
            <g transform="matrix(60,0,0,60,13856.1,16411.3)">
                <path d="M0.108,-0.074L0.248,-0.074L0.248,-0.558L0.258,-0.617L0.218,-0.57L0.108,-0.491L0.07,-0.542L0.29,-0.712L0.326,-0.712L0.326,-0.074L0.463,-0.074L0.463,-0L0.108,-0L0.108,-0.074Z" style="fill-rule:nonzero;"/>
            </g>
        </g>
        <g transform="matrix(1,0,0,1,-13121.2,-15318.4)">
            <g transform="matrix(60,0,0,60,13764.3,16411.3)">
                <path d="M0.222,-0.207L0.187,-0.207L0.187,-0L0.057,-0L0.057,-0.7L0.187,-0.7L0.187,-0.287L0.217,-0.301L0.331,-0.5L0.474,-0.5L0.354,-0.31L0.303,-0.272L0.358,-0.233L0.493,-0L0.344,-0L0.222,-0.207Z" style="fill-rule:nonzero;"/>
            </g>
            <g transform="matrix(60,0,0,60,13809.8,16411.3)">
                <path d="M0.04,-0.457L0.464,-0.457L0.464,-0.385L0.04,-0.385L0.04,-0.457ZM0.04,-0.291L0.464,-0.291L0.464,-0.219L0.04,-0.219L0.04,-0.291Z" style="fill-rule:nonzero;"/>
            </g>
            <g transform="matrix(60,0,0,60,13856.1,16411.3)">
                <path d="M0.234,-0.058C0.257,-0.058 0.278,-0.061 0.297,-0.068C0.316,-0.075 0.333,-0.085 0.347,-0.098C0.361,-0.111 0.372,-0.126 0.38,-0.144C0.388,-0.162 0.392,-0.182 0.392,-0.203C0.392,-0.25 0.378,-0.284 0.351,-0.307C0.323,-0.33 0.285,-0.341 0.236,-0.341L0.162,-0.341L0.162,-0.37L0.306,-0.592L0.352,-0.636L0.287,-0.626L0.089,-0.626L0.089,-0.7L0.446,-0.7L0.446,-0.671L0.287,-0.432L0.252,-0.403L0.252,-0.401L0.286,-0.408C0.313,-0.407 0.337,-0.403 0.36,-0.394C0.383,-0.385 0.402,-0.372 0.419,-0.355C0.436,-0.337 0.449,-0.317 0.458,-0.294C0.467,-0.27 0.472,-0.243 0.472,-0.213C0.472,-0.177 0.466,-0.145 0.453,-0.117C0.44,-0.089 0.423,-0.066 0.402,-0.047C0.38,-0.028 0.354,-0.013 0.325,-0.003C0.296,0.007 0.265,0.012 0.232,0.012C0.202,0.012 0.175,0.01 0.151,0.005C0.127,0 0.106,-0.006 0.088,-0.013L0.109,-0.084C0.124,-0.077 0.142,-0.07 0.164,-0.066C0.185,-0.061 0.208,-0.058 0.234,-0.058Z" style="fill-rule:nonzero;"/>
            </g>
        </g>
    </g>
</svg>
