<?xml version="1.0" encoding="UTF-8" standalone="no"?>
<!DOCTYPE svg PUBLIC "-//W3C//DTD SVG 1.1//EN" "http://www.w3.org/Graphics/SVG/1.1/DTD/svg11.dtd">
<svg width="100%" height="100%" viewBox="0 0 413 415" version="1.1" xmlns="http://www.w3.org/2000/svg" xmlns:xlink="http://www.w3.org/1999/xlink" xml:space="preserve" xmlns:serif="http://www.serif.com/" style="fill-rule:evenodd;clip-rule:evenodd;stroke-linecap:round;stroke-linejoin:round;stroke-miterlimit:1.5;">
    <rect id="Spatial-Databases-2" serif:id="Spatial Databases 2" x="-742.911" y="-4485" width="3858" height="5937" style="fill:none;"/>
    <g id="Rectangles">
    </g>
    <g id="Rectangles1" serif:id="Rectangles">
        <rect x="2.009" y="139.206" width="136.584" height="136.584" style="fill:rgb(191,191,191);stroke:black;stroke-width:1px;"/>
        <rect x="274.698" y="139.206" width="136.584" height="136.584" style="fill:rgb(153,153,153);stroke:black;stroke-width:1px;"/>
        <rect x="274.698" y="2.332" width="136.584" height="136.584" style="fill:rgb(217,217,217);stroke:black;stroke-width:1px;"/>
        <rect x="274.698" y="275.878" width="136.584" height="136.584" style="fill:rgb(140,140,140);stroke:black;stroke-width:1px;"/>
        <rect x="2.009" y="2.332" width="136.584" height="136.584" style="fill:rgb(230,230,230);stroke:black;stroke-width:1px;"/>
        <rect x="2.009" y="275.878" width="136.584" height="136.584" style="fill:rgb(102,102,102);stroke:black;stroke-width:1px;"/>
        <rect x="138.593" y="2.332" width="136.584" height="136.584" style="fill:rgb(191,191,191);stroke:black;stroke-width:1px;"/>
        <rect x="138.593" y="275.878" width="136.584" height="136.584" style="fill:rgb(128,128,128);stroke:black;stroke-width:1px;"/>
        <rect x="138.593" y="139.206" width="136.584" height="136.584" style="fill:rgb(18,250,219);stroke:black;stroke-width:6px;"/>
    </g>
    <g id="Height-Spread" serif:id="Height Spread">
    </g>
    <g id="Labels-Corrected" serif:id="Labels Corrected">
    </g>
    <path d="M180.341,219.424L188.125,219.424L188.125,197.304L188.965,193.496L186.277,196.8L181.293,200.216L178.213,196.016L190.981,185.712L195.069,185.712L195.069,219.424L202.685,219.424L202.685,225.584L180.341,225.584L180.341,219.424Z" style="fill-rule:nonzero;"/>
    <path d="M235.557,213.432C235.557,215.261 235.249,216.96 234.633,218.528C234.017,220.096 233.149,221.459 232.029,222.616C230.909,223.773 229.556,224.688 227.969,225.36C226.383,226.032 224.637,226.368 222.733,226.368C220.792,226.368 219.009,226.06 217.385,225.444C215.761,224.828 214.352,223.904 213.157,222.672C211.963,221.44 211.029,219.891 210.357,218.024C209.685,216.157 209.349,213.992 209.349,211.528C209.349,207.832 209.881,204.491 210.945,201.504C212.009,198.517 213.447,195.913 215.257,193.692C217.068,191.471 219.177,189.679 221.585,188.316C223.993,186.953 226.541,186.048 229.229,185.6L230.853,191.368C228.987,191.667 227.269,192.245 225.701,193.104C224.133,193.963 222.743,194.989 221.529,196.184C220.316,197.379 219.289,198.713 218.449,200.188C217.609,201.663 217.021,203.184 216.685,204.752C217.432,203.819 218.403,203.025 219.597,202.372C220.792,201.719 222.285,201.392 224.077,201.392C225.757,201.392 227.307,201.653 228.725,202.176C230.144,202.699 231.357,203.473 232.365,204.5C233.373,205.527 234.157,206.787 234.717,208.28C235.277,209.773 235.557,211.491 235.557,213.432ZM228.501,213.824C228.501,209.643 226.448,207.552 222.341,207.552C220.848,207.552 219.588,207.888 218.561,208.56C217.535,209.232 216.816,210.016 216.405,210.912C216.331,211.323 216.293,211.677 216.293,211.976L216.293,212.872C216.293,213.768 216.424,214.655 216.685,215.532C216.947,216.409 217.329,217.193 217.833,217.884C218.337,218.575 218.981,219.135 219.765,219.564C220.549,219.993 221.483,220.208 222.565,220.208C224.32,220.208 225.748,219.611 226.849,218.416C227.951,217.221 228.501,215.691 228.501,213.824Z" style="fill-rule:nonzero;"/>
    <path d="M93.245,340.193L64.663,349.72L74.191,321.138L93.245,340.193Z"/>
    <path d="M138.593,275.79C138.593,275.79 101.551,312.832 79.907,334.476" style="fill:none;stroke:black;stroke-width:6px;stroke-miterlimit:10;"/>
</svg>
