<?xml version="1.0" encoding="UTF-8" standalone="no"?>
<!DOCTYPE svg PUBLIC "-//W3C//DTD SVG 1.1//EN" "http://www.w3.org/Graphics/SVG/1.1/DTD/svg11.dtd">
<svg width="100%" height="100%" viewBox="0 0 414 415" version="1.1" xmlns="http://www.w3.org/2000/svg" xmlns:xlink="http://www.w3.org/1999/xlink" xml:space="preserve" xmlns:serif="http://www.serif.com/" style="fill-rule:evenodd;clip-rule:evenodd;stroke-linecap:round;stroke-linejoin:round;stroke-miterlimit:1.5;">
    <rect id="Spatial-Databases-2" serif:id="Spatial Databases 2" x="-242.911" y="-4485" width="3858" height="5937" style="fill:none;"/>
    <g id="Rectangles">
        <rect x="2.353" y="139.206" width="136.584" height="136.584" style="fill:rgb(191,191,191);stroke:black;stroke-width:1px;"/>
        <rect x="138.937" y="139.206" width="136.584" height="136.584" style="fill:rgb(166,166,166);stroke:black;stroke-width:1px;"/>
        <rect x="275.042" y="139.206" width="136.584" height="136.584" style="fill:rgb(153,153,153);stroke:black;stroke-width:1px;"/>
        <rect x="275.042" y="2.332" width="136.584" height="136.584" style="fill:rgb(217,217,217);stroke:black;stroke-width:1px;"/>
        <rect x="275.042" y="275.878" width="136.584" height="136.584" style="fill:rgb(140,140,140);stroke:black;stroke-width:1px;"/>
        <rect x="2.353" y="2.332" width="136.584" height="136.584" style="fill:rgb(230,230,230);stroke:black;stroke-width:1px;"/>
        <rect x="2.353" y="275.878" width="136.584" height="136.584" style="fill:rgb(102,102,102);stroke:black;stroke-width:1px;"/>
        <rect x="138.937" y="2.332" width="136.584" height="136.584" style="fill:rgb(191,191,191);stroke:black;stroke-width:1px;"/>
        <rect x="138.937" y="275.878" width="136.584" height="136.584" style="fill:rgb(128,128,128);stroke:black;stroke-width:1px;"/>
    </g>
    <g id="Height-Spread" serif:id="Height Spread">
        <path d="M189.886,218.234C191.998,218.234 193.614,217.722 194.734,216.698C195.854,215.674 196.414,214.266 196.414,212.474C196.414,210.554 195.758,209.146 194.446,208.25C193.134,207.354 191.262,206.906 188.83,206.906L185.038,207.05L185.038,189.482L201.55,189.482L201.55,195.338L190.414,195.338L190.414,201.818L192.382,201.626C193.95,201.69 195.366,201.978 196.63,202.49C197.894,203.002 198.974,203.714 199.87,204.626C200.766,205.538 201.454,206.642 201.934,207.938C202.414,209.234 202.654,210.682 202.654,212.282C202.654,214.17 202.334,215.834 201.694,217.274C201.054,218.714 200.166,219.914 199.03,220.874C197.894,221.834 196.558,222.554 195.022,223.034C193.486,223.514 191.806,223.754 189.982,223.754C188.542,223.754 187.174,223.634 185.878,223.394C184.582,223.154 183.486,222.826 182.59,222.41L184.27,217.226C185.006,217.546 185.814,217.794 186.694,217.97C187.574,218.146 188.638,218.234 189.886,218.234Z" style="fill-rule:nonzero;"/>
        <path d="M233.086,213.722L227.806,213.722L227.806,223.082L221.998,223.082L221.998,213.722L207.454,213.722L207.454,210.17L222.67,189.242L227.806,189.242L227.806,208.73L233.086,208.73L233.086,213.722ZM221.998,201.386L222.43,197.354L222.238,197.354L220.606,200.81L215.614,207.29L213.214,209.114L216.286,208.73L221.998,208.73L221.998,201.386Z" style="fill-rule:nonzero;"/>
        <path d="M354.061,84.022L366.109,55.894L368.221,53.542L365.389,53.974L351.709,53.974L351.709,50.422L371.773,50.422L371.773,51.718L357.949,84.022L354.061,84.022Z" style="fill-rule:nonzero;"/>
        <path d="M377.005,67.222C377.005,61.462 377.941,57.126 379.813,54.214C381.685,51.302 384.413,49.846 387.997,49.846C391.869,49.846 394.677,51.278 396.421,54.142C398.165,57.006 399.037,61.366 399.037,67.222C399.037,72.982 398.101,77.318 396.229,80.23C394.357,83.142 391.613,84.598 387.997,84.598C384.189,84.598 381.405,83.078 379.645,80.038C377.885,76.998 377.005,72.726 377.005,67.222ZM380.989,67.222C380.989,69.302 381.125,71.198 381.397,72.91C381.669,74.622 382.093,76.094 382.669,77.326C383.245,78.558 383.973,79.518 384.853,80.206C385.733,80.894 386.781,81.238 387.997,81.238C390.429,81.238 392.213,80.11 393.349,77.854C394.485,75.598 395.053,72.054 395.053,67.222C395.053,65.174 394.933,63.286 394.693,61.558C394.453,59.83 394.053,58.342 393.493,57.094C392.933,55.846 392.205,54.886 391.309,54.214C390.413,53.542 389.309,53.206 387.997,53.206C385.597,53.206 383.829,54.342 382.693,56.614C381.557,58.886 380.989,62.422 380.989,67.222Z" style="fill-rule:nonzero;"/>
        <path d="M357.591,220.514C359.799,220.514 361.623,219.874 363.063,218.594C364.503,217.314 365.223,215.458 365.223,213.026C365.223,210.69 364.511,208.946 363.087,207.794C361.663,206.642 359.703,206.066 357.207,206.066L353.175,206.306L353.175,189.698L368.151,189.698L368.151,193.25L356.775,193.25L356.775,202.802L358.839,202.706C362.007,202.738 364.503,203.618 366.327,205.346C368.151,207.074 369.063,209.554 369.063,212.786C369.063,214.578 368.759,216.17 368.151,217.562C367.543,218.954 366.719,220.114 365.679,221.042C364.639,221.97 363.415,222.674 362.007,223.154C360.599,223.634 359.095,223.874 357.495,223.874C356.055,223.874 354.839,223.794 353.847,223.634C352.855,223.474 351.927,223.234 351.063,222.914L352.071,219.65C352.807,219.938 353.599,220.154 354.447,220.298C355.295,220.442 356.343,220.514 357.591,220.514Z" style="fill-rule:nonzero;"/>
        <path d="M394.935,197.33C394.935,199.026 394.623,200.762 393.999,202.538C393.375,204.314 392.559,206.098 391.551,207.89C390.543,209.682 389.415,211.434 388.167,213.146C386.919,214.858 385.671,216.482 384.423,218.018L382.071,220.082L382.071,220.274L385.143,219.746L395.607,219.746L395.607,223.298L376.503,223.298L376.503,221.906C377.207,221.17 378.055,220.258 379.047,219.17C380.039,218.082 381.071,216.874 382.143,215.546C383.215,214.218 384.271,212.81 385.311,211.322C386.351,209.834 387.295,208.322 388.143,206.786C388.991,205.25 389.671,203.73 390.183,202.226C390.695,200.722 390.951,199.298 390.951,197.954C390.951,196.386 390.503,195.082 389.607,194.042C388.711,193.002 387.351,192.482 385.527,192.482C384.311,192.482 383.127,192.73 381.975,193.226C380.823,193.722 379.831,194.29 378.999,194.93L377.415,192.194C378.535,191.234 379.863,190.482 381.399,189.938C382.935,189.394 384.583,189.122 386.343,189.122C387.719,189.122 388.935,189.322 389.991,189.722C391.047,190.122 391.943,190.69 392.679,191.426C393.415,192.162 393.975,193.034 394.359,194.042C394.743,195.05 394.935,196.146 394.935,197.33Z" style="fill-rule:nonzero;"/>
        <path d="M374.749,349.65L369.085,349.65L369.085,359.97L365.341,359.97L365.341,349.65L350.557,349.65L350.557,348.066L366.493,325.842L369.085,325.842L369.085,346.29L374.749,346.29L374.749,349.65ZM365.341,335.826L365.821,331.89L365.677,331.89L363.997,335.154L357.229,344.322L354.925,346.674L358.285,346.29L365.341,346.29L365.341,335.826Z" style="fill-rule:nonzero;"/>
        <path d="M378.253,336.546C378.253,335.01 378.477,333.586 378.925,332.274C379.373,330.962 380.029,329.826 380.893,328.866C381.757,327.906 382.837,327.154 384.133,326.61C385.429,326.066 386.941,325.794 388.669,325.794C391.933,325.794 394.477,326.85 396.301,328.962C398.125,331.074 399.037,334.05 399.037,337.89C399.037,341.506 398.629,344.666 397.813,347.37C396.997,350.074 395.869,352.354 394.429,354.21C392.989,356.066 391.285,357.514 389.317,358.554C387.349,359.594 385.213,360.258 382.909,360.546L382.045,357.474C383.901,357.186 385.573,356.642 387.061,355.842C388.549,355.042 389.829,354.034 390.901,352.818C391.973,351.602 392.845,350.218 393.517,348.666C394.189,347.114 394.653,345.426 394.909,343.602C394.045,344.626 393.093,345.338 392.053,345.738C391.013,346.138 389.645,346.338 387.949,346.338C386.637,346.338 385.397,346.122 384.229,345.69C383.061,345.258 382.029,344.626 381.133,343.794C380.237,342.962 379.533,341.938 379.021,340.722C378.509,339.506 378.253,338.114 378.253,336.546ZM382.237,336.162C382.237,338.434 382.837,340.138 384.037,341.274C385.237,342.41 386.813,342.978 388.765,342.978C390.333,342.978 391.677,342.722 392.797,342.21C393.917,341.698 394.717,341.026 395.197,340.194C395.261,339.778 395.293,339.41 395.293,339.09L395.293,338.082C395.293,336.93 395.157,335.818 394.885,334.746C394.613,333.674 394.205,332.714 393.661,331.866C393.117,331.018 392.405,330.354 391.525,329.874C390.645,329.394 389.613,329.154 388.429,329.154C386.477,329.154 384.957,329.77 383.869,331.002C382.781,332.234 382.237,333.954 382.237,336.162Z" style="fill-rule:nonzero;"/>
        <path d="M207.709,351.226L202.045,351.226L202.045,361.546L198.301,361.546L198.301,351.226L183.517,351.226L183.517,349.642L199.453,327.418L202.045,327.418L202.045,347.866L207.709,347.866L207.709,351.226ZM198.301,337.402L198.781,333.466L198.637,333.466L196.957,336.73L190.189,345.898L187.885,348.25L191.245,347.866L198.301,347.866L198.301,337.402Z" style="fill-rule:nonzero;"/>
        <path d="M213.901,357.994L220.621,357.994L220.621,334.762L221.101,331.93L219.181,334.186L213.901,337.978L212.077,335.53L222.637,327.37L224.365,327.37L224.365,357.994L230.941,357.994L230.941,361.546L213.901,361.546L213.901,357.994Z" style="fill-rule:nonzero;"/>
        <path d="M19.965,358.762C21.053,358.762 22.061,358.602 22.989,358.282C23.917,357.962 24.717,357.49 25.389,356.866C26.061,356.242 26.589,355.498 26.973,354.634C27.357,353.77 27.549,352.826 27.549,351.802C27.549,349.562 26.885,347.898 25.557,346.81C24.229,345.722 22.397,345.178 20.061,345.178L16.509,345.178L16.509,343.786L23.421,333.13L25.629,331.018L22.509,331.498L13.005,331.498L13.005,327.946L30.141,327.946L30.141,329.338L22.509,340.81L20.829,342.202L20.829,342.298L22.461,341.962C23.741,341.994 24.925,342.226 26.013,342.658C27.101,343.09 28.045,343.714 28.845,344.53C29.645,345.346 30.269,346.322 30.717,347.458C31.165,348.594 31.389,349.882 31.389,351.322C31.389,353.05 31.085,354.586 30.477,355.93C29.869,357.274 29.045,358.402 28.005,359.314C26.965,360.226 25.741,360.922 24.333,361.402C22.925,361.882 21.437,362.122 19.869,362.122C18.429,362.122 17.133,362.01 15.981,361.786C14.829,361.562 13.821,361.274 12.957,360.922L13.965,357.514C14.701,357.866 15.573,358.162 16.581,358.402C17.589,358.642 18.717,358.762 19.965,358.762Z" style="fill-rule:nonzero;"/>
        <path d="M56.301,335.578C56.301,337.274 55.989,339.01 55.365,340.786C54.741,342.562 53.925,344.346 52.917,346.138C51.909,347.93 50.781,349.682 49.533,351.394C48.285,353.106 47.037,354.73 45.789,356.266L43.437,358.33L43.437,358.522L46.509,357.994L56.973,357.994L56.973,361.546L37.869,361.546L37.869,360.154C38.573,359.418 39.421,358.506 40.413,357.418C41.405,356.33 42.437,355.122 43.509,353.794C44.581,352.466 45.637,351.058 46.677,349.57C47.717,348.082 48.661,346.57 49.509,345.034C50.357,343.498 51.037,341.978 51.549,340.474C52.061,338.97 52.317,337.546 52.317,336.202C52.317,334.634 51.869,333.33 50.973,332.29C50.077,331.25 48.717,330.73 46.893,330.73C45.677,330.73 44.493,330.978 43.341,331.474C42.189,331.97 41.197,332.538 40.365,333.178L38.781,330.442C39.901,329.482 41.229,328.73 42.765,328.186C44.301,327.642 45.949,327.37 47.709,327.37C49.085,327.37 50.301,327.57 51.357,327.97C52.413,328.37 53.309,328.938 54.045,329.674C54.781,330.41 55.341,331.282 55.725,332.29C56.109,333.298 56.301,334.394 56.301,335.578Z" style="fill-rule:nonzero;"/>
        <path d="M32.597,211.943C32.597,213.415 32.373,214.799 31.925,216.095C31.477,217.391 30.821,218.527 29.957,219.503C29.093,220.479 28.021,221.247 26.741,221.807C25.461,222.367 24.005,222.647 22.373,222.647C20.773,222.647 19.333,222.391 18.053,221.879C16.773,221.367 15.669,220.607 14.741,219.599C13.813,218.591 13.101,217.351 12.605,215.879C12.109,214.407 11.861,212.711 11.861,210.791C11.861,207.623 12.269,204.703 13.085,202.031C13.901,199.359 15.029,197.031 16.469,195.047C17.909,193.063 19.613,191.455 21.581,190.223C23.549,188.991 25.685,188.215 27.989,187.895L28.805,190.967C27.013,191.287 25.381,191.895 23.909,192.791C22.437,193.687 21.149,194.791 20.045,196.103C18.941,197.415 18.037,198.887 17.333,200.519C16.629,202.151 16.149,203.831 15.893,205.559C16.405,204.695 17.269,203.903 18.485,203.183C19.701,202.463 21.189,202.103 22.949,202.103C25.957,202.103 28.317,202.967 30.029,204.695C31.741,206.423 32.597,208.839 32.597,211.943ZM28.613,212.327C28.613,210.055 28.085,208.343 27.029,207.191C25.973,206.039 24.341,205.463 22.133,205.463C20.565,205.463 19.213,205.847 18.077,206.615C16.941,207.383 16.149,208.247 15.701,209.207C15.637,209.655 15.605,210.023 15.605,210.311L15.605,211.271C15.605,212.263 15.741,213.239 16.013,214.199C16.285,215.159 16.709,216.015 17.285,216.767C17.861,217.519 18.573,218.127 19.421,218.591C20.269,219.055 21.269,219.287 22.421,219.287C23.349,219.287 24.189,219.111 24.941,218.759C25.693,218.407 26.341,217.927 26.885,217.319C27.429,216.711 27.853,215.975 28.157,215.111C28.461,214.247 28.613,213.319 28.613,212.327Z" style="fill-rule:nonzero;"/>
        <path d="M58.757,211.943C58.757,213.415 58.533,214.799 58.085,216.095C57.637,217.391 56.981,218.527 56.117,219.503C55.253,220.479 54.181,221.247 52.901,221.807C51.621,222.367 50.165,222.647 48.533,222.647C46.933,222.647 45.493,222.391 44.213,221.879C42.933,221.367 41.829,220.607 40.901,219.599C39.973,218.591 39.261,217.351 38.765,215.879C38.269,214.407 38.021,212.711 38.021,210.791C38.021,207.623 38.429,204.703 39.245,202.031C40.061,199.359 41.189,197.031 42.629,195.047C44.069,193.063 45.773,191.455 47.741,190.223C49.709,188.991 51.845,188.215 54.149,187.895L54.965,190.967C53.173,191.287 51.541,191.895 50.069,192.791C48.597,193.687 47.309,194.791 46.205,196.103C45.101,197.415 44.197,198.887 43.493,200.519C42.789,202.151 42.309,203.831 42.053,205.559C42.565,204.695 43.429,203.903 44.645,203.183C45.861,202.463 47.349,202.103 49.109,202.103C52.117,202.103 54.477,202.967 56.189,204.695C57.901,206.423 58.757,208.839 58.757,211.943ZM54.773,212.327C54.773,210.055 54.245,208.343 53.189,207.191C52.133,206.039 50.501,205.463 48.293,205.463C46.725,205.463 45.373,205.847 44.237,206.615C43.101,207.383 42.309,208.247 41.861,209.207C41.797,209.655 41.765,210.023 41.765,210.311L41.765,211.271C41.765,212.263 41.901,213.239 42.173,214.199C42.445,215.159 42.869,216.015 43.445,216.767C44.021,217.519 44.733,218.127 45.581,218.591C46.429,219.055 47.429,219.287 48.581,219.287C49.509,219.287 50.349,219.111 51.101,218.759C51.853,218.407 52.501,217.927 53.045,217.319C53.589,216.711 54.013,215.975 54.317,215.111C54.621,214.247 54.773,213.319 54.773,212.327Z" style="fill-rule:nonzero;"/>
        <path d="M13.701,85.022L25.749,56.894L27.861,54.542L25.029,54.974L11.349,54.974L11.349,51.422L31.413,51.422L31.413,52.718L17.589,85.022L13.701,85.022Z" style="fill-rule:nonzero;"/>
        <path d="M55.989,59.054C55.989,60.75 55.677,62.486 55.053,64.262C54.429,66.038 53.613,67.822 52.605,69.614C51.597,71.406 50.469,73.158 49.221,74.87C47.973,76.582 46.725,78.206 45.477,79.742L43.125,81.806L43.125,81.998L46.197,81.47L56.661,81.47L56.661,85.022L37.557,85.022L37.557,83.63C38.261,82.894 39.109,81.982 40.101,80.894C41.093,79.806 42.125,78.598 43.197,77.27C44.269,75.942 45.325,74.534 46.365,73.046C47.405,71.558 48.349,70.046 49.197,68.51C50.045,66.974 50.725,65.454 51.237,63.95C51.749,62.446 52.005,61.022 52.005,59.678C52.005,58.11 51.557,56.806 50.661,55.766C49.765,54.726 48.405,54.206 46.581,54.206C45.365,54.206 44.181,54.454 43.029,54.95C41.877,55.446 40.885,56.014 40.053,56.654L38.469,53.918C39.589,52.958 40.917,52.206 42.453,51.662C43.989,51.118 45.637,50.846 47.397,50.846C48.773,50.846 49.989,51.046 51.045,51.446C52.101,51.846 52.997,52.414 53.733,53.15C54.469,53.886 55.029,54.758 55.413,55.766C55.797,56.774 55.989,57.87 55.989,59.054Z" style="fill-rule:nonzero;"/>
        <path d="M203.877,74.318C203.877,75.79 203.653,77.174 203.205,78.47C202.757,79.766 202.101,80.902 201.237,81.878C200.373,82.854 199.301,83.622 198.021,84.182C196.741,84.742 195.285,85.022 193.653,85.022C192.053,85.022 190.613,84.766 189.333,84.254C188.053,83.742 186.949,82.982 186.021,81.974C185.093,80.966 184.381,79.726 183.885,78.254C183.389,76.782 183.141,75.086 183.141,73.166C183.141,69.998 183.549,67.078 184.365,64.406C185.181,61.734 186.309,59.406 187.749,57.422C189.189,55.438 190.893,53.83 192.861,52.598C194.829,51.366 196.965,50.59 199.269,50.27L200.085,53.342C198.293,53.662 196.661,54.27 195.189,55.166C193.717,56.062 192.429,57.166 191.325,58.478C190.221,59.79 189.317,61.262 188.613,62.894C187.909,64.526 187.429,66.206 187.173,67.934C187.685,67.07 188.549,66.278 189.765,65.558C190.981,64.838 192.469,64.478 194.229,64.478C197.237,64.478 199.597,65.342 201.309,67.07C203.021,68.798 203.877,71.214 203.877,74.318ZM199.893,74.702C199.893,72.43 199.365,70.718 198.309,69.566C197.253,68.414 195.621,67.838 193.413,67.838C191.845,67.838 190.493,68.222 189.357,68.99C188.221,69.758 187.429,70.622 186.981,71.582C186.917,72.03 186.885,72.398 186.885,72.686L186.885,73.646C186.885,74.638 187.021,75.614 187.293,76.574C187.565,77.534 187.989,78.39 188.565,79.142C189.141,79.894 189.853,80.502 190.701,80.966C191.549,81.43 192.549,81.662 193.701,81.662C194.629,81.662 195.469,81.486 196.221,81.134C196.973,80.782 197.621,80.302 198.165,79.694C198.709,79.086 199.133,78.35 199.437,77.486C199.741,76.622 199.893,75.694 199.893,74.702Z" style="fill-rule:nonzero;"/>
        <path d="M209.685,76.43C209.685,74.414 210.213,72.662 211.269,71.174C212.325,69.686 213.973,68.334 216.213,67.118C215.413,66.638 214.669,66.134 213.981,65.606C213.293,65.078 212.685,64.478 212.157,63.806C211.629,63.134 211.213,62.382 210.909,61.55C210.605,60.718 210.453,59.758 210.453,58.67C210.453,57.422 210.669,56.286 211.101,55.262C211.533,54.238 212.157,53.358 212.973,52.622C213.789,51.886 214.765,51.31 215.901,50.894C217.037,50.478 218.325,50.27 219.765,50.27C221.109,50.27 222.325,50.462 223.413,50.846C224.501,51.23 225.421,51.758 226.173,52.43C226.925,53.102 227.509,53.902 227.925,54.83C228.341,55.758 228.549,56.782 228.549,57.902C228.549,59.726 228.133,61.334 227.301,62.726C226.469,64.118 225.093,65.486 223.173,66.83C224.005,67.31 224.797,67.838 225.549,68.414C226.301,68.99 226.957,69.63 227.517,70.334C228.077,71.038 228.517,71.83 228.837,72.71C229.157,73.59 229.317,74.59 229.317,75.71C229.317,77.086 229.093,78.342 228.645,79.478C228.197,80.614 227.541,81.59 226.677,82.406C225.813,83.222 224.757,83.862 223.509,84.326C222.261,84.79 220.837,85.022 219.237,85.022C217.701,85.022 216.341,84.798 215.157,84.35C213.973,83.902 212.973,83.294 212.157,82.526C211.341,81.758 210.725,80.854 210.309,79.814C209.893,78.774 209.685,77.646 209.685,76.43ZM225.573,75.95C225.573,74.99 225.381,74.15 224.997,73.43C224.613,72.71 224.109,72.054 223.485,71.462C222.861,70.87 222.149,70.334 221.349,69.854C220.549,69.374 219.717,68.91 218.853,68.462C216.901,69.55 215.509,70.766 214.677,72.11C213.845,73.454 213.429,74.734 213.429,75.95C213.429,76.718 213.557,77.454 213.813,78.158C214.069,78.862 214.453,79.47 214.965,79.982C215.477,80.494 216.109,80.902 216.861,81.206C217.613,81.51 218.485,81.662 219.477,81.662C220.277,81.662 221.045,81.542 221.781,81.302C222.517,81.062 223.165,80.71 223.725,80.246C224.285,79.782 224.733,79.19 225.069,78.47C225.405,77.75 225.573,76.91 225.573,75.95ZM214.197,58.574C214.197,59.47 214.373,60.262 214.725,60.95C215.077,61.638 215.549,62.254 216.141,62.798C216.733,63.342 217.413,63.846 218.181,64.31C218.949,64.774 219.749,65.214 220.581,65.63C222.021,64.51 223.085,63.406 223.773,62.318C224.461,61.23 224.805,60.03 224.805,58.718C224.805,57.086 224.301,55.83 223.293,54.95C222.285,54.07 221.077,53.63 219.669,53.63C218.805,53.63 218.037,53.774 217.365,54.062C216.693,54.35 216.117,54.718 215.637,55.166C215.157,55.614 214.797,56.134 214.557,56.726C214.317,57.318 214.197,57.934 214.197,58.574Z" style="fill-rule:nonzero;"/>
    </g>
    <g id="Labels-Raw" serif:id="Labels Raw">
        <rect x="276.042" y="105.004" width="61.776" height="33.205" style="fill:rgb(255,0,0);"/>
        <rect x="76.552" y="104.712" width="61.776" height="33.205" style="fill:rgb(255,0,0);"/>
        <rect x="75.641" y="190.351" width="61.776" height="33.205" style="fill:rgb(255,0,0);"/>
        <rect x="276.042" y="189.351" width="61.776" height="33.205" style="fill:rgb(5,126,255);"/>
        <rect x="276.042" y="276.79" width="61.776" height="33.205" style="fill:rgb(5,126,255);"/>
        <rect x="176.326" y="104.712" width="61.776" height="33.205" style="fill:rgb(255,0,0);"/>
        <rect x="176.326" y="277.188" width="61.776" height="33.205" style="fill:rgb(5,126,255);"/>
        <rect x="75.458" y="276.79" width="61.776" height="33.205" style="fill:rgb(5,126,255);"/>
        <path d="M278.486,119.628L284.318,119.628L284.318,113.544L288.53,113.544L288.53,119.628L294.398,119.628L294.398,123.66L288.53,123.66L288.53,129.816L284.318,129.816L284.318,123.66L278.486,123.66L278.486,119.628Z" style="fill:white;fill-rule:nonzero;"/>
        <path d="M299.546,129.852L304.55,129.852L304.55,115.632L305.09,113.184L303.362,115.308L300.158,117.504L298.178,114.804L306.386,108.18L309.014,108.18L309.014,129.852L313.91,129.852L313.91,133.812L299.546,133.812L299.546,129.852Z" style="fill:white;fill-rule:nonzero;"/>
        <path d="M335.042,126C335.042,127.176 334.844,128.268 334.448,129.276C334.052,130.284 333.494,131.16 332.774,131.904C332.054,132.648 331.184,133.236 330.164,133.668C329.144,134.1 328.022,134.316 326.798,134.316C325.55,134.316 324.404,134.118 323.36,133.722C322.316,133.326 321.41,132.732 320.642,131.94C319.874,131.148 319.274,130.152 318.842,128.952C318.41,127.752 318.194,126.36 318.194,124.776C318.194,122.4 318.536,120.252 319.22,118.332C319.904,116.412 320.828,114.738 321.992,113.31C323.156,111.882 324.512,110.73 326.06,109.854C327.608,108.978 329.246,108.396 330.974,108.108L332.018,111.816C330.818,112.008 329.714,112.38 328.706,112.932C327.698,113.484 326.804,114.144 326.024,114.912C325.244,115.68 324.584,116.538 324.044,117.486C323.504,118.434 323.126,119.412 322.91,120.42C323.39,119.82 324.014,119.31 324.782,118.89C325.55,118.47 326.51,118.26 327.662,118.26C328.742,118.26 329.738,118.428 330.65,118.764C331.562,119.1 332.342,119.598 332.99,120.258C333.638,120.918 334.142,121.728 334.502,122.688C334.862,123.648 335.042,124.752 335.042,126ZM330.506,126.252C330.506,123.564 329.186,122.22 326.546,122.22C325.586,122.22 324.776,122.436 324.116,122.868C323.456,123.3 322.994,123.804 322.73,124.38C322.682,124.644 322.658,124.872 322.658,125.064L322.658,125.64C322.658,126.216 322.742,126.786 322.91,127.35C323.078,127.914 323.324,128.418 323.648,128.862C323.972,129.306 324.386,129.666 324.89,129.942C325.394,130.218 325.994,130.356 326.69,130.356C327.818,130.356 328.736,129.972 329.444,129.204C330.152,128.436 330.506,127.452 330.506,126.252Z" style="fill:white;fill-rule:nonzero;"/>
        <path d="M79.451,119.232L85.283,119.232L85.283,113.148L89.495,113.148L89.495,119.232L95.363,119.232L95.363,123.264L89.495,123.264L89.495,129.42L85.283,129.42L85.283,123.264L79.451,123.264L79.451,119.232Z" style="fill:white;fill-rule:nonzero;"/>
        <path d="M100.511,129.456L105.515,129.456L105.515,115.236L106.055,112.788L104.327,114.912L101.123,117.108L99.143,114.408L107.351,107.784L109.979,107.784L109.979,129.456L114.875,129.456L114.875,133.416L100.511,133.416L100.511,129.456Z" style="fill:white;fill-rule:nonzero;"/>
        <path d="M119.483,127.26C119.483,126.42 119.591,125.67 119.807,125.01C120.023,124.35 120.329,123.75 120.725,123.21C121.121,122.67 121.589,122.184 122.129,121.752C122.669,121.32 123.251,120.924 123.875,120.564C122.699,119.82 121.775,118.962 121.103,117.99C120.431,117.018 120.095,115.812 120.095,114.372C120.095,113.436 120.269,112.56 120.617,111.744C120.965,110.928 121.469,110.22 122.129,109.62C122.789,109.02 123.587,108.552 124.523,108.216C125.459,107.88 126.515,107.712 127.691,107.712C128.771,107.712 129.755,107.856 130.643,108.144C131.531,108.432 132.293,108.84 132.929,109.368C133.565,109.896 134.057,110.538 134.405,111.294C134.753,112.05 134.927,112.884 134.927,113.796C134.927,115.212 134.609,116.412 133.973,117.396C133.337,118.38 132.407,119.28 131.183,120.096C132.623,120.936 133.709,121.86 134.441,122.868C135.173,123.876 135.539,125.172 135.539,126.756C135.539,127.836 135.341,128.814 134.945,129.69C134.549,130.566 133.991,131.316 133.271,131.94C132.551,132.564 131.687,133.05 130.679,133.398C129.671,133.746 128.567,133.92 127.367,133.92C126.167,133.92 125.081,133.758 124.109,133.434C123.137,133.11 122.309,132.66 121.625,132.084C120.941,131.508 120.413,130.812 120.041,129.996C119.669,129.18 119.483,128.268 119.483,127.26ZM131.075,126.792C131.075,126.24 130.943,125.736 130.679,125.28C130.415,124.824 130.073,124.41 129.653,124.038C129.233,123.666 128.765,123.324 128.249,123.012C127.733,122.7 127.211,122.4 126.683,122.112C125.555,122.76 124.781,123.462 124.361,124.218C123.941,124.974 123.731,125.724 123.731,126.468C123.731,127.428 124.061,128.25 124.721,128.934C125.381,129.618 126.299,129.96 127.475,129.96C128.555,129.96 129.425,129.696 130.085,129.168C130.745,128.64 131.075,127.848 131.075,126.792ZM124.559,114.444C124.559,115.02 124.667,115.524 124.883,115.956C125.099,116.388 125.393,116.766 125.765,117.09C126.137,117.414 126.557,117.714 127.025,117.99C127.493,118.266 127.979,118.524 128.483,118.764C129.923,117.54 130.643,116.196 130.643,114.732C130.643,113.724 130.349,112.962 129.761,112.446C129.173,111.93 128.459,111.672 127.619,111.672C126.563,111.672 125.789,111.948 125.297,112.5C124.805,113.052 124.559,113.7 124.559,114.444Z" style="fill:white;fill-rule:nonzero;"/>
        <path d="M78.54,204.871L84.372,204.871L84.372,198.787L88.584,198.787L88.584,204.871L94.452,204.871L94.452,208.903L88.584,208.903L88.584,215.059L84.372,215.059L84.372,208.903L78.54,208.903L78.54,204.871Z" style="fill:white;fill-rule:nonzero;"/>
        <path d="M99.6,215.095L104.604,215.095L104.604,200.875L105.144,198.427L103.416,200.551L100.212,202.747L98.232,200.047L106.44,193.423L109.068,193.423L109.068,215.095L113.964,215.095L113.964,219.055L99.6,219.055L99.6,215.095Z" style="fill:white;fill-rule:nonzero;"/>
        <path d="M133.476,200.011C133.476,201.235 133.254,202.471 132.81,203.719C132.366,204.967 131.802,206.191 131.118,207.391C130.434,208.591 129.678,209.749 128.85,210.865C128.022,211.981 127.212,213.007 126.42,213.943L124.512,215.419L124.512,215.599L127.104,215.095L134.016,215.095L134.016,219.055L118.86,219.055L118.86,216.643C119.436,216.043 120.084,215.341 120.804,214.537C121.524,213.733 122.25,212.881 122.982,211.981C123.714,211.081 124.428,210.151 125.124,209.191C125.82,208.231 126.444,207.265 126.996,206.293C127.548,205.321 127.986,204.379 128.31,203.467C128.634,202.555 128.796,201.691 128.796,200.875C128.796,199.891 128.514,199.081 127.95,198.445C127.386,197.809 126.492,197.491 125.268,197.491C124.5,197.491 123.714,197.653 122.91,197.977C122.106,198.301 121.428,198.715 120.876,199.219L119.004,195.907C119.94,195.139 121.002,194.521 122.19,194.053C123.378,193.585 124.776,193.351 126.384,193.351C127.416,193.351 128.364,193.495 129.228,193.783C130.092,194.071 130.836,194.491 131.46,195.043C132.084,195.595 132.576,196.285 132.936,197.113C133.296,197.941 133.476,198.907 133.476,200.011Z" style="fill:white;fill-rule:nonzero;"/>
        <rect x="277.924" y="205.599" width="15.912" height="4.176" style="fill:white;fill-rule:nonzero;"/>
        <path d="M299.2,205.419C299.2,201.003 299.956,197.721 301.468,195.573C302.98,193.425 305.152,192.351 307.984,192.351C311.008,192.351 313.228,193.413 314.644,195.537C316.06,197.661 316.768,200.955 316.768,205.419C316.768,209.859 316.006,213.159 314.482,215.319C312.958,217.479 310.78,218.559 307.948,218.559C304.948,218.559 302.74,217.425 301.324,215.157C299.908,212.889 299.2,209.643 299.2,205.419ZM303.88,205.419C303.88,208.347 304.198,210.609 304.834,212.205C305.47,213.801 306.52,214.599 307.984,214.599C309.4,214.599 310.438,213.867 311.098,212.403C311.758,210.939 312.088,208.611 312.088,205.419C312.088,202.515 311.776,200.271 311.152,198.687C310.528,197.103 309.46,196.311 307.948,196.311C306.508,196.311 305.47,197.055 304.834,198.543C304.198,200.031 303.88,202.323 303.88,205.419Z" style="fill:white;fill-rule:nonzero;"/>
        <path d="M335.272,199.011C335.272,200.235 335.05,201.471 334.606,202.719C334.162,203.967 333.598,205.191 332.914,206.391C332.23,207.591 331.474,208.749 330.646,209.865C329.818,210.981 329.008,212.007 328.216,212.943L326.308,214.419L326.308,214.599L328.9,214.095L335.812,214.095L335.812,218.055L320.656,218.055L320.656,215.643C321.232,215.043 321.88,214.341 322.6,213.537C323.32,212.733 324.046,211.881 324.778,210.981C325.51,210.081 326.224,209.151 326.92,208.191C327.616,207.231 328.24,206.265 328.792,205.293C329.344,204.321 329.782,203.379 330.106,202.467C330.43,201.555 330.592,200.691 330.592,199.875C330.592,198.891 330.31,198.081 329.746,197.445C329.182,196.809 328.288,196.491 327.064,196.491C326.296,196.491 325.51,196.653 324.706,196.977C323.902,197.301 323.224,197.715 322.672,198.219L320.8,194.907C321.736,194.139 322.798,193.521 323.986,193.053C325.174,192.585 326.572,192.351 328.18,192.351C329.212,192.351 330.16,192.495 331.024,192.783C331.888,193.071 332.632,193.491 333.256,194.043C333.88,194.595 334.372,195.285 334.732,196.113C335.092,196.941 335.272,197.907 335.272,199.011Z" style="fill:white;fill-rule:nonzero;"/>
        <rect x="277.924" y="293.038" width="15.912" height="4.176" style="fill:white;fill-rule:nonzero;"/>
        <path d="M299.2,292.858C299.2,288.442 299.956,285.16 301.468,283.012C302.98,280.864 305.152,279.79 307.984,279.79C311.008,279.79 313.228,280.852 314.644,282.976C316.06,285.1 316.768,288.394 316.768,292.858C316.768,297.298 316.006,300.598 314.482,302.758C312.958,304.918 310.78,305.998 307.948,305.998C304.948,305.998 302.74,304.864 301.324,302.596C299.908,300.328 299.2,297.082 299.2,292.858ZM303.88,292.858C303.88,295.786 304.198,298.048 304.834,299.644C305.47,301.24 306.52,302.038 307.984,302.038C309.4,302.038 310.438,301.306 311.098,299.842C311.758,298.378 312.088,296.05 312.088,292.858C312.088,289.954 311.776,287.71 311.152,286.126C310.528,284.542 309.46,283.75 307.948,283.75C306.508,283.75 305.47,284.494 304.834,285.982C304.198,287.47 303.88,289.762 303.88,292.858Z" style="fill:white;fill-rule:nonzero;"/>
        <path d="M326.092,301.858C327.676,301.858 328.888,301.474 329.728,300.706C330.568,299.938 330.988,298.882 330.988,297.538C330.988,296.098 330.496,295.042 329.512,294.37C328.528,293.698 327.124,293.362 325.3,293.362L322.456,293.47L322.456,280.294L334.84,280.294L334.84,284.686L326.488,284.686L326.488,289.546L327.964,289.402C329.14,289.45 330.202,289.666 331.15,290.05C332.098,290.434 332.908,290.968 333.58,291.652C334.252,292.336 334.768,293.164 335.128,294.136C335.488,295.108 335.668,296.194 335.668,297.394C335.668,298.81 335.428,300.058 334.948,301.138C334.468,302.218 333.802,303.118 332.95,303.838C332.098,304.558 331.096,305.098 329.944,305.458C328.792,305.818 327.532,305.998 326.164,305.998C325.084,305.998 324.058,305.908 323.086,305.728C322.114,305.548 321.292,305.302 320.62,304.99L321.88,301.102C322.432,301.342 323.038,301.528 323.698,301.66C324.358,301.792 325.156,301.858 326.092,301.858Z" style="fill:white;fill-rule:nonzero;"/>
        <path d="M178.779,119.628L184.611,119.628L184.611,113.544L188.823,113.544L188.823,119.628L194.691,119.628L194.691,123.66L188.823,123.66L188.823,129.816L184.611,129.816L184.611,123.66L178.779,123.66L178.779,119.628Z" style="fill:white;fill-rule:nonzero;"/>
        <path d="M199.839,129.852L204.843,129.852L204.843,115.632L205.383,113.184L203.655,115.308L200.451,117.504L198.471,114.804L206.679,108.18L209.307,108.18L209.307,129.852L214.203,129.852L214.203,133.812L199.839,133.812L199.839,129.852Z" style="fill:white;fill-rule:nonzero;"/>
        <path d="M236.523,126.792L232.563,126.792L232.563,133.812L228.207,133.812L228.207,126.792L217.299,126.792L217.299,124.128L228.711,108.432L232.563,108.432L232.563,123.048L236.523,123.048L236.523,126.792ZM228.207,117.54L228.531,114.516L228.387,114.516L227.163,117.108L223.419,121.968L221.619,123.336L223.923,123.048L228.207,123.048L228.207,117.54Z" style="fill:white;fill-rule:nonzero;"/>
        <rect x="178.761" y="293.833" width="15.912" height="4.176" style="fill:white;fill-rule:nonzero;"/>
        <path d="M202.233,302.329L207.237,302.329L207.237,288.109L207.777,285.661L206.049,287.785L202.845,289.981L200.865,287.281L209.073,280.657L211.701,280.657L211.701,302.329L216.597,302.329L216.597,306.289L202.233,306.289L202.233,302.329Z" style="fill:white;fill-rule:nonzero;"/>
        <path d="M227.685,302.833C229.173,302.833 230.307,302.437 231.087,301.645C231.867,300.853 232.257,299.893 232.257,298.765C232.257,297.397 231.849,296.389 231.033,295.741C230.217,295.093 228.933,294.769 227.181,294.769L224.589,294.769L224.589,292.285L228.945,286.345L230.997,284.725L228.153,285.049L222.105,285.049L222.105,281.089L235.857,281.089L235.857,283.645L230.781,290.449L229.197,291.421L229.197,291.601L230.709,291.385C231.549,291.457 232.347,291.649 233.103,291.961C233.859,292.273 234.519,292.723 235.083,293.311C235.647,293.899 236.097,294.625 236.433,295.489C236.769,296.353 236.937,297.349 236.937,298.477C236.937,299.893 236.703,301.117 236.235,302.149C235.767,303.181 235.119,304.045 234.291,304.741C233.463,305.437 232.497,305.953 231.393,306.289C230.289,306.625 229.101,306.793 227.829,306.793C226.773,306.793 225.681,306.697 224.553,306.505C223.425,306.313 222.513,306.037 221.817,305.677L223.077,301.789C223.701,302.101 224.391,302.353 225.147,302.545C225.903,302.737 226.749,302.833 227.685,302.833Z" style="fill:white;fill-rule:nonzero;"/>
        <rect x="77.894" y="293.435" width="15.912" height="4.176" style="fill:white;fill-rule:nonzero;"/>
        <path d="M114.83,286.847C114.83,288.071 114.608,289.307 114.164,290.555C113.72,291.803 113.156,293.027 112.472,294.227C111.788,295.427 111.032,296.585 110.204,297.701C109.376,298.817 108.566,299.843 107.774,300.779L105.866,302.255L105.866,302.435L108.458,301.931L115.37,301.931L115.37,305.891L100.214,305.891L100.214,303.479C100.79,302.879 101.438,302.177 102.158,301.373C102.878,300.569 103.604,299.717 104.336,298.817C105.068,297.917 105.782,296.987 106.478,296.027C107.174,295.067 107.798,294.101 108.35,293.129C108.902,292.157 109.34,291.215 109.664,290.303C109.988,289.391 110.15,288.527 110.15,287.711C110.15,286.727 109.868,285.917 109.304,285.281C108.74,284.645 107.846,284.327 106.622,284.327C105.854,284.327 105.068,284.489 104.264,284.813C103.46,285.137 102.782,285.551 102.23,286.055L100.358,282.743C101.294,281.975 102.356,281.357 103.544,280.889C104.732,280.421 106.13,280.187 107.738,280.187C108.77,280.187 109.718,280.331 110.582,280.619C111.446,280.907 112.19,281.327 112.814,281.879C113.438,282.431 113.93,283.121 114.29,283.949C114.65,284.777 114.83,285.743 114.83,286.847Z" style="fill:white;fill-rule:nonzero;"/>
        <path d="M135.242,286.847C135.242,288.071 135.02,289.307 134.576,290.555C134.132,291.803 133.568,293.027 132.884,294.227C132.2,295.427 131.444,296.585 130.616,297.701C129.788,298.817 128.978,299.843 128.186,300.779L126.278,302.255L126.278,302.435L128.87,301.931L135.782,301.931L135.782,305.891L120.626,305.891L120.626,303.479C121.202,302.879 121.85,302.177 122.57,301.373C123.29,300.569 124.016,299.717 124.748,298.817C125.48,297.917 126.194,296.987 126.89,296.027C127.586,295.067 128.21,294.101 128.762,293.129C129.314,292.157 129.752,291.215 130.076,290.303C130.4,289.391 130.562,288.527 130.562,287.711C130.562,286.727 130.28,285.917 129.716,285.281C129.152,284.645 128.258,284.327 127.034,284.327C126.266,284.327 125.48,284.489 124.676,284.813C123.872,285.137 123.194,285.551 122.642,286.055L120.77,282.743C121.706,281.975 122.768,281.357 123.956,280.889C125.144,280.421 126.542,280.187 128.15,280.187C129.182,280.187 130.13,280.331 130.994,280.619C131.858,280.907 132.602,281.327 133.226,281.879C133.85,282.431 134.342,283.121 134.702,283.949C135.062,284.777 135.242,285.743 135.242,286.847Z" style="fill:white;fill-rule:nonzero;"/>
    </g>
</svg>
