<?xml version="1.0" encoding="UTF-8" standalone="no"?>
<!DOCTYPE svg PUBLIC "-//W3C//DTD SVG 1.1//EN" "http://www.w3.org/Graphics/SVG/1.1/DTD/svg11.dtd">
<svg width="100%" height="100%" viewBox="0 0 350 427" version="1.1" xmlns="http://www.w3.org/2000/svg" xmlns:xlink="http://www.w3.org/1999/xlink" xml:space="preserve" xmlns:serif="http://www.serif.com/" style="fill-rule:evenodd;clip-rule:evenodd;stroke-linejoin:round;stroke-miterlimit:1.5;">
    <rect id="Geometric-Operations" serif:id="Geometric Operations" x="-1180" y="-701" width="6739" height="2861" style="fill:none;"/>
    <g id="Geometric-Operations1" serif:id="Geometric Operations">
        <path d="M77.551,322.292L237.913,111.997" style="fill:none;stroke:rgb(247,0,255);stroke-width:4px;"/>
        <path d="M290.236,249.828L191.665,173.099" style="fill:none;stroke:rgb(21,183,183);stroke-width:4px;"/>
        <path d="M6.416,415.292L308.902,19.825" style="fill:none;stroke:black;stroke-width:2px;stroke-dasharray:2,4,0,0;"/>
        <circle cx="242.751" cy="105.277" r="11.72"/>
        <circle cx="290.236" cy="249.828" r="11.72"/>
        <circle cx="76.972" cy="322.292" r="11.72"/>
        <g transform="matrix(1,0,0,1,-302.287,-1578.05)">
            <g transform="matrix(48,0,0,48,368.503,1953.88)">
                <path d="M0.057,-0.5L0.152,-0.5L0.167,-0.44L0.171,-0.44C0.188,-0.465 0.209,-0.484 0.233,-0.496C0.256,-0.508 0.285,-0.514 0.319,-0.514C0.382,-0.514 0.429,-0.494 0.46,-0.455C0.491,-0.415 0.507,-0.351 0.507,-0.263C0.507,-0.22 0.502,-0.182 0.492,-0.148C0.482,-0.113 0.467,-0.084 0.448,-0.06C0.428,-0.036 0.404,-0.018 0.376,-0.005C0.347,0.008 0.315,0.014 0.278,0.014C0.257,0.014 0.24,0.012 0.227,0.01C0.214,0.007 0.2,0.002 0.187,-0.005L0.187,0.2L0.057,0.2L0.057,-0.5ZM0.28,-0.404C0.255,-0.404 0.235,-0.398 0.221,-0.385C0.206,-0.372 0.195,-0.353 0.187,-0.328L0.187,-0.12C0.196,-0.113 0.207,-0.107 0.218,-0.103C0.229,-0.098 0.243,-0.096 0.261,-0.096C0.298,-0.096 0.326,-0.109 0.345,-0.136C0.364,-0.162 0.373,-0.205 0.373,-0.266C0.373,-0.31 0.366,-0.344 0.351,-0.368C0.336,-0.392 0.313,-0.404 0.28,-0.404Z" style="fill-rule:nonzero;"/>
            </g>
            <g transform="matrix(27.984,0,0,27.984,394.423,1969.87)">
                <path d="M0.101,-0.11L0.24,-0.11L0.24,-0.505L0.255,-0.573L0.207,-0.514L0.118,-0.453L0.063,-0.528L0.291,-0.712L0.364,-0.712L0.364,-0.11L0.5,-0.11L0.5,-0L0.101,-0L0.101,-0.11Z" style="fill-rule:nonzero;"/>
            </g>
        </g>
        <g transform="matrix(1,0,0,1,-95.0023,-1842.74)">
            <g transform="matrix(48,0,0,48,368.503,1953.88)">
                <path d="M0.057,-0.5L0.152,-0.5L0.167,-0.44L0.171,-0.44C0.188,-0.465 0.209,-0.484 0.233,-0.496C0.256,-0.508 0.285,-0.514 0.319,-0.514C0.382,-0.514 0.429,-0.494 0.46,-0.455C0.491,-0.415 0.507,-0.351 0.507,-0.263C0.507,-0.22 0.502,-0.182 0.492,-0.148C0.482,-0.113 0.467,-0.084 0.448,-0.06C0.428,-0.036 0.404,-0.018 0.376,-0.005C0.347,0.008 0.315,0.014 0.278,0.014C0.257,0.014 0.24,0.012 0.227,0.01C0.214,0.007 0.2,0.002 0.187,-0.005L0.187,0.2L0.057,0.2L0.057,-0.5ZM0.28,-0.404C0.255,-0.404 0.235,-0.398 0.221,-0.385C0.206,-0.372 0.195,-0.353 0.187,-0.328L0.187,-0.12C0.196,-0.113 0.207,-0.107 0.218,-0.103C0.229,-0.098 0.243,-0.096 0.261,-0.096C0.298,-0.096 0.326,-0.109 0.345,-0.136C0.364,-0.162 0.373,-0.205 0.373,-0.266C0.373,-0.31 0.366,-0.344 0.351,-0.368C0.336,-0.392 0.313,-0.404 0.28,-0.404Z" style="fill-rule:nonzero;"/>
            </g>
            <g transform="matrix(27.984,0,0,27.984,394.423,1969.87)">
                <path d="M0.475,-0.529C0.475,-0.495 0.469,-0.461 0.457,-0.426C0.444,-0.391 0.429,-0.357 0.41,-0.324C0.391,-0.291 0.37,-0.259 0.347,-0.228C0.324,-0.197 0.301,-0.168 0.279,-0.142L0.226,-0.101L0.226,-0.096L0.298,-0.11L0.49,-0.11L0.49,-0L0.069,-0L0.069,-0.067C0.085,-0.084 0.103,-0.103 0.123,-0.126C0.143,-0.148 0.163,-0.171 0.184,-0.197C0.204,-0.222 0.224,-0.247 0.243,-0.274C0.262,-0.301 0.28,-0.327 0.295,-0.355C0.31,-0.382 0.323,-0.408 0.332,-0.433C0.341,-0.458 0.345,-0.482 0.345,-0.505C0.345,-0.532 0.337,-0.555 0.322,-0.573C0.306,-0.59 0.281,-0.599 0.247,-0.599C0.226,-0.599 0.204,-0.595 0.182,-0.586C0.159,-0.577 0.14,-0.565 0.125,-0.551L0.073,-0.643C0.099,-0.664 0.129,-0.682 0.162,-0.695C0.195,-0.708 0.233,-0.714 0.278,-0.714C0.307,-0.714 0.333,-0.71 0.357,-0.702C0.381,-0.694 0.402,-0.682 0.419,-0.667C0.436,-0.652 0.45,-0.632 0.46,-0.61C0.47,-0.587 0.475,-0.56 0.475,-0.529Z" style="fill-rule:nonzero;"/>
            </g>
        </g>
        <path d="M323.721,231.692L328.281,231.692L329.001,234.572L329.193,234.572C330.025,233.356 331.009,232.46 332.145,231.884C333.281,231.308 334.665,231.02 336.297,231.02C339.305,231.02 341.561,231.972 343.065,233.876C344.569,235.78 345.321,238.844 345.321,243.068C345.321,245.116 345.081,246.964 344.601,248.612C344.121,250.26 343.409,251.66 342.465,252.812C341.521,253.964 340.369,254.844 339.009,255.452C337.649,256.06 336.089,256.364 334.329,256.364C333.337,256.364 332.521,256.292 331.881,256.148C331.241,256.004 330.601,255.772 329.961,255.452L329.961,265.292L323.721,265.292L323.721,231.692ZM334.425,236.3C333.209,236.3 332.257,236.604 331.569,237.212C330.881,237.82 330.345,238.732 329.961,239.948L329.961,249.932C330.409,250.284 330.897,250.564 331.425,250.772C331.953,250.98 332.649,251.084 333.513,251.084C335.305,251.084 336.649,250.452 337.545,249.188C338.441,247.924 338.889,245.836 338.889,242.924C338.889,240.812 338.537,239.18 337.833,238.028C337.129,236.876 335.993,236.3 334.425,236.3Z" style="fill-rule:nonzero;"/>
        <path d="M324.5,33.241C324.42,33.694 324.38,34.067 324.38,34.361C324.38,34.867 324.467,35.234 324.64,35.461C324.813,35.687 325.047,35.801 325.34,35.801C325.873,35.801 326.32,35.767 326.68,35.701C327.04,35.634 327.473,35.507 327.98,35.321L327.98,37.601C327.74,37.734 327.46,37.847 327.14,37.941C326.82,38.034 326.493,38.107 326.16,38.161C325.827,38.214 325.493,38.261 325.16,38.301C324.827,38.341 324.527,38.361 324.26,38.361C323.327,38.361 322.58,38.147 322.02,37.721C321.46,37.294 321.18,36.507 321.18,35.361C321.18,34.827 321.26,34.174 321.42,33.401L326.38,10.001L329.38,10.001L324.5,33.241Z" style="fill-rule:nonzero;"/>
        <g transform="matrix(1,0,0,1,-0.667491,-11533)">
            <g transform="matrix(32,0,0,32,240.85,11728.9)">
                <path d="M0.461,-0.172C0.461,-0.138 0.461,-0.107 0.462,-0.08C0.463,-0.052 0.466,-0.025 0.471,0.002L0.417,0.002L0.397,-0.069L0.393,-0.069C0.38,-0.046 0.36,-0.026 0.335,-0.011C0.31,0.004 0.28,0.012 0.246,0.012C0.179,0.012 0.13,-0.009 0.098,-0.051C0.065,-0.093 0.049,-0.159 0.049,-0.248C0.049,-0.333 0.069,-0.398 0.11,-0.443C0.15,-0.487 0.205,-0.509 0.276,-0.509C0.301,-0.509 0.32,-0.508 0.335,-0.505C0.349,-0.502 0.364,-0.498 0.381,-0.492L0.381,-0.7L0.461,-0.7L0.461,-0.172ZM0.259,-0.058C0.293,-0.058 0.32,-0.067 0.34,-0.085C0.36,-0.102 0.374,-0.129 0.381,-0.165L0.381,-0.413C0.369,-0.422 0.355,-0.429 0.34,-0.433C0.325,-0.437 0.304,-0.439 0.279,-0.439C0.233,-0.439 0.197,-0.424 0.171,-0.394C0.145,-0.363 0.132,-0.315 0.132,-0.248C0.132,-0.221 0.134,-0.195 0.139,-0.172C0.143,-0.149 0.15,-0.129 0.16,-0.112C0.17,-0.095 0.183,-0.082 0.2,-0.073C0.216,-0.063 0.236,-0.058 0.259,-0.058Z" style="fill:rgb(21,183,183);fill-rule:nonzero;"/>
            </g>
            <g transform="matrix(32,0,0,32,258.066,11728.9)">
                <path d="M0.227,0.22C0.196,0.188 0.17,0.153 0.149,0.115C0.128,0.076 0.111,0.037 0.098,-0.004C0.085,-0.044 0.075,-0.085 0.069,-0.126C0.063,-0.167 0.06,-0.206 0.06,-0.243C0.06,-0.28 0.063,-0.318 0.069,-0.359C0.075,-0.4 0.085,-0.44 0.098,-0.482C0.111,-0.523 0.129,-0.563 0.151,-0.602C0.172,-0.641 0.199,-0.678 0.23,-0.712L0.278,-0.677C0.251,-0.643 0.229,-0.608 0.212,-0.572C0.194,-0.535 0.18,-0.498 0.169,-0.461C0.158,-0.424 0.151,-0.387 0.147,-0.35C0.142,-0.313 0.14,-0.277 0.14,-0.243C0.14,-0.211 0.142,-0.176 0.148,-0.139C0.153,-0.101 0.161,-0.063 0.172,-0.026C0.183,0.012 0.197,0.049 0.215,0.085C0.232,0.121 0.253,0.154 0.278,0.183L0.227,0.22Z" style="fill:rgb(21,183,183);fill-rule:nonzero;"/>
            </g>
            <g transform="matrix(32,0,0,32,267.026,11728.9)">
                <path d="M0.144,-0.5L0.196,-0.5L0.191,-0.414L0.195,-0.414C0.204,-0.426 0.215,-0.438 0.227,-0.45C0.238,-0.461 0.251,-0.472 0.265,-0.481C0.279,-0.49 0.294,-0.498 0.311,-0.504C0.328,-0.509 0.346,-0.512 0.365,-0.512C0.381,-0.512 0.396,-0.51 0.41,-0.505C0.424,-0.5 0.436,-0.491 0.447,-0.48C0.458,-0.468 0.466,-0.452 0.473,-0.433C0.479,-0.414 0.482,-0.39 0.482,-0.362C0.482,-0.303 0.474,-0.251 0.458,-0.205C0.442,-0.158 0.421,-0.119 0.395,-0.087C0.369,-0.055 0.34,-0.031 0.308,-0.014C0.275,0.004 0.243,0.012 0.211,0.012C0.188,0.012 0.167,0.01 0.15,0.006C0.132,0.001 0.12,-0.003 0.114,-0.008L0.07,0.2L-0.005,0.2L0.144,-0.5ZM0.337,-0.448C0.319,-0.448 0.302,-0.443 0.286,-0.434C0.269,-0.425 0.254,-0.413 0.241,-0.4C0.227,-0.386 0.215,-0.371 0.204,-0.356C0.193,-0.34 0.185,-0.325 0.178,-0.312L0.129,-0.075C0.14,-0.066 0.152,-0.06 0.164,-0.057C0.176,-0.054 0.189,-0.052 0.203,-0.052C0.229,-0.052 0.254,-0.059 0.278,-0.074C0.301,-0.088 0.322,-0.108 0.341,-0.135C0.36,-0.162 0.375,-0.194 0.386,-0.231C0.397,-0.268 0.402,-0.31 0.402,-0.356C0.402,-0.383 0.397,-0.405 0.386,-0.422C0.375,-0.439 0.358,-0.448 0.337,-0.448Z" style="fill:rgb(21,183,183);fill-rule:nonzero;"/>
            </g>
            <g transform="matrix(32,0,0,32,283.282,11728.9)">
                <path d="M0.049,-0.043C0.049,-0.059 0.054,-0.072 0.065,-0.082C0.076,-0.092 0.089,-0.097 0.106,-0.097C0.127,-0.097 0.143,-0.09 0.157,-0.075C0.169,-0.06 0.176,-0.039 0.176,-0.011C0.176,0.013 0.173,0.034 0.166,0.052C0.159,0.07 0.151,0.086 0.14,0.099C0.129,0.112 0.118,0.122 0.105,0.131C0.092,0.139 0.08,0.145 0.067,0.149L0.042,0.11C0.066,0.101 0.084,0.086 0.096,0.067C0.107,0.047 0.113,0.027 0.113,0.007C0.107,0.009 0.101,0.01 0.096,0.01C0.083,0.01 0.071,0.006 0.063,-0.004C0.054,-0.013 0.049,-0.026 0.049,-0.043Z" style="fill:rgb(21,183,183);fill-rule:nonzero;"/>
            </g>
            <g transform="matrix(32,0,0,32,295.57,11728.9)">
                <path d="M0.133,-0.119C0.131,-0.108 0.13,-0.098 0.13,-0.091C0.13,-0.078 0.132,-0.069 0.137,-0.064C0.141,-0.058 0.147,-0.055 0.154,-0.055C0.167,-0.055 0.179,-0.056 0.188,-0.058C0.197,-0.059 0.207,-0.062 0.22,-0.067L0.22,-0.01C0.214,-0.007 0.207,-0.004 0.199,-0.002C0.191,0.001 0.183,0.003 0.175,0.004C0.166,0.005 0.158,0.007 0.15,0.008C0.141,0.009 0.134,0.009 0.127,0.009C0.104,0.009 0.085,0.004 0.071,-0.007C0.057,-0.018 0.05,-0.037 0.05,-0.066C0.05,-0.079 0.052,-0.096 0.056,-0.115L0.18,-0.7L0.255,-0.7L0.133,-0.119Z" style="fill:rgb(21,183,183);fill-rule:nonzero;"/>
            </g>
            <g transform="matrix(32,0,0,32,304.21,11728.9)">
                <path d="M0.053,-0.712C0.084,-0.68 0.11,-0.645 0.131,-0.607C0.152,-0.568 0.169,-0.529 0.183,-0.489C0.196,-0.448 0.205,-0.407 0.211,-0.367C0.217,-0.325 0.22,-0.286 0.22,-0.249C0.22,-0.212 0.217,-0.174 0.211,-0.133C0.205,-0.092 0.195,-0.052 0.182,-0.011C0.169,0.031 0.151,0.071 0.13,0.11C0.108,0.149 0.081,0.186 0.05,0.22L0.002,0.185C0.029,0.151 0.051,0.116 0.069,0.079C0.087,0.042 0.101,0.005 0.112,-0.032C0.122,-0.069 0.129,-0.106 0.134,-0.143C0.138,-0.18 0.14,-0.215 0.14,-0.249C0.14,-0.281 0.137,-0.316 0.132,-0.353C0.127,-0.39 0.118,-0.428 0.108,-0.466C0.096,-0.504 0.082,-0.541 0.065,-0.577C0.048,-0.613 0.027,-0.646 0.002,-0.675L0.053,-0.712Z" style="fill:rgb(21,183,183);fill-rule:nonzero;"/>
            </g>
        </g>
        <g transform="matrix(1,0,0,1,-188.867,-11533)">
            <g transform="matrix(32,0,0,32,240.85,11728.9)">
                <path d="M0.461,-0.172C0.461,-0.138 0.461,-0.107 0.462,-0.08C0.463,-0.052 0.466,-0.025 0.471,0.002L0.417,0.002L0.397,-0.069L0.393,-0.069C0.38,-0.046 0.36,-0.026 0.335,-0.011C0.31,0.004 0.28,0.012 0.246,0.012C0.179,0.012 0.13,-0.009 0.098,-0.051C0.065,-0.093 0.049,-0.159 0.049,-0.248C0.049,-0.333 0.069,-0.398 0.11,-0.443C0.15,-0.487 0.205,-0.509 0.276,-0.509C0.301,-0.509 0.32,-0.508 0.335,-0.505C0.349,-0.502 0.364,-0.498 0.381,-0.492L0.381,-0.7L0.461,-0.7L0.461,-0.172ZM0.259,-0.058C0.293,-0.058 0.32,-0.067 0.34,-0.085C0.36,-0.102 0.374,-0.129 0.381,-0.165L0.381,-0.413C0.369,-0.422 0.355,-0.429 0.34,-0.433C0.325,-0.437 0.304,-0.439 0.279,-0.439C0.233,-0.439 0.197,-0.424 0.171,-0.394C0.145,-0.363 0.132,-0.315 0.132,-0.248C0.132,-0.221 0.134,-0.195 0.139,-0.172C0.143,-0.149 0.15,-0.129 0.16,-0.112C0.17,-0.095 0.183,-0.082 0.2,-0.073C0.216,-0.063 0.236,-0.058 0.259,-0.058Z" style="fill:rgb(247,0,255);fill-rule:nonzero;"/>
            </g>
            <g transform="matrix(32,0,0,32,258.066,11728.9)">
                <path d="M0.227,0.22C0.196,0.188 0.17,0.153 0.149,0.115C0.128,0.076 0.111,0.037 0.098,-0.004C0.085,-0.044 0.075,-0.085 0.069,-0.126C0.063,-0.167 0.06,-0.206 0.06,-0.243C0.06,-0.28 0.063,-0.318 0.069,-0.359C0.075,-0.4 0.085,-0.44 0.098,-0.482C0.111,-0.523 0.129,-0.563 0.151,-0.602C0.172,-0.641 0.199,-0.678 0.23,-0.712L0.278,-0.677C0.251,-0.643 0.229,-0.608 0.212,-0.572C0.194,-0.535 0.18,-0.498 0.169,-0.461C0.158,-0.424 0.151,-0.387 0.147,-0.35C0.142,-0.313 0.14,-0.277 0.14,-0.243C0.14,-0.211 0.142,-0.176 0.148,-0.139C0.153,-0.101 0.161,-0.063 0.172,-0.026C0.183,0.012 0.197,0.049 0.215,0.085C0.232,0.121 0.253,0.154 0.278,0.183L0.227,0.22Z" style="fill:rgb(247,0,255);fill-rule:nonzero;"/>
            </g>
            <g transform="matrix(32,0,0,32,267.026,11728.9)">
                <path d="M0.144,-0.5L0.196,-0.5L0.191,-0.414L0.195,-0.414C0.204,-0.426 0.215,-0.438 0.227,-0.45C0.238,-0.461 0.251,-0.472 0.265,-0.481C0.279,-0.49 0.294,-0.498 0.311,-0.504C0.328,-0.509 0.346,-0.512 0.365,-0.512C0.381,-0.512 0.396,-0.51 0.41,-0.505C0.424,-0.5 0.436,-0.491 0.447,-0.48C0.458,-0.468 0.466,-0.452 0.473,-0.433C0.479,-0.414 0.482,-0.39 0.482,-0.362C0.482,-0.303 0.474,-0.251 0.458,-0.205C0.442,-0.158 0.421,-0.119 0.395,-0.087C0.369,-0.055 0.34,-0.031 0.308,-0.014C0.275,0.004 0.243,0.012 0.211,0.012C0.188,0.012 0.167,0.01 0.15,0.006C0.132,0.001 0.12,-0.003 0.114,-0.008L0.07,0.2L-0.005,0.2L0.144,-0.5ZM0.337,-0.448C0.319,-0.448 0.302,-0.443 0.286,-0.434C0.269,-0.425 0.254,-0.413 0.241,-0.4C0.227,-0.386 0.215,-0.371 0.204,-0.356C0.193,-0.34 0.185,-0.325 0.178,-0.312L0.129,-0.075C0.14,-0.066 0.152,-0.06 0.164,-0.057C0.176,-0.054 0.189,-0.052 0.203,-0.052C0.229,-0.052 0.254,-0.059 0.278,-0.074C0.301,-0.088 0.322,-0.108 0.341,-0.135C0.36,-0.162 0.375,-0.194 0.386,-0.231C0.397,-0.268 0.402,-0.31 0.402,-0.356C0.402,-0.383 0.397,-0.405 0.386,-0.422C0.375,-0.439 0.358,-0.448 0.337,-0.448Z" style="fill:rgb(247,0,255);fill-rule:nonzero;"/>
            </g>
            <g transform="matrix(18.656,0,0,18.656,283.282,11739.6)">
                <path d="M0.078,-0.074L0.211,-0.074L0.315,-0.558L0.337,-0.617L0.288,-0.57L0.168,-0.491L0.14,-0.542L0.387,-0.712L0.421,-0.712L0.285,-0.074L0.415,-0.074L0.4,-0L0.063,-0L0.078,-0.074Z" style="fill:rgb(247,0,255);fill-rule:nonzero;"/>
            </g>
            <g transform="matrix(32,0,0,32,292.983,11728.9)">
                <path d="M0.049,-0.043C0.049,-0.059 0.054,-0.072 0.065,-0.082C0.076,-0.092 0.089,-0.097 0.106,-0.097C0.127,-0.097 0.143,-0.09 0.157,-0.075C0.169,-0.06 0.176,-0.039 0.176,-0.011C0.176,0.013 0.173,0.034 0.166,0.052C0.159,0.07 0.151,0.086 0.14,0.099C0.129,0.112 0.118,0.122 0.105,0.131C0.092,0.139 0.08,0.145 0.067,0.149L0.042,0.11C0.066,0.101 0.084,0.086 0.096,0.067C0.107,0.047 0.113,0.027 0.113,0.007C0.107,0.009 0.101,0.01 0.096,0.01C0.083,0.01 0.071,0.006 0.063,-0.004C0.054,-0.013 0.049,-0.026 0.049,-0.043Z" style="fill:rgb(247,0,255);fill-rule:nonzero;"/>
            </g>
            <g transform="matrix(32,0,0,32,305.271,11728.9)">
                <path d="M0.144,-0.5L0.196,-0.5L0.191,-0.414L0.195,-0.414C0.204,-0.426 0.215,-0.438 0.227,-0.45C0.238,-0.461 0.251,-0.472 0.265,-0.481C0.279,-0.49 0.294,-0.498 0.311,-0.504C0.328,-0.509 0.346,-0.512 0.365,-0.512C0.381,-0.512 0.396,-0.51 0.41,-0.505C0.424,-0.5 0.436,-0.491 0.447,-0.48C0.458,-0.468 0.466,-0.452 0.473,-0.433C0.479,-0.414 0.482,-0.39 0.482,-0.362C0.482,-0.303 0.474,-0.251 0.458,-0.205C0.442,-0.158 0.421,-0.119 0.395,-0.087C0.369,-0.055 0.34,-0.031 0.308,-0.014C0.275,0.004 0.243,0.012 0.211,0.012C0.188,0.012 0.167,0.01 0.15,0.006C0.132,0.001 0.12,-0.003 0.114,-0.008L0.07,0.2L-0.005,0.2L0.144,-0.5ZM0.337,-0.448C0.319,-0.448 0.302,-0.443 0.286,-0.434C0.269,-0.425 0.254,-0.413 0.241,-0.4C0.227,-0.386 0.215,-0.371 0.204,-0.356C0.193,-0.34 0.185,-0.325 0.178,-0.312L0.129,-0.075C0.14,-0.066 0.152,-0.06 0.164,-0.057C0.176,-0.054 0.189,-0.052 0.203,-0.052C0.229,-0.052 0.254,-0.059 0.278,-0.074C0.301,-0.088 0.322,-0.108 0.341,-0.135C0.36,-0.162 0.375,-0.194 0.386,-0.231C0.397,-0.268 0.402,-0.31 0.402,-0.356C0.402,-0.383 0.397,-0.405 0.386,-0.422C0.375,-0.439 0.358,-0.448 0.337,-0.448Z" style="fill:rgb(247,0,255);fill-rule:nonzero;"/>
            </g>
            <g transform="matrix(18.656,0,0,18.656,321.527,11739.6)">
                <path d="M0.515,-0.571C0.515,-0.536 0.505,-0.499 0.486,-0.458C0.467,-0.417 0.442,-0.377 0.413,-0.336C0.383,-0.295 0.35,-0.255 0.315,-0.216C0.28,-0.177 0.246,-0.141 0.213,-0.11L0.158,-0.067L0.158,-0.063L0.22,-0.074L0.425,-0.074L0.411,-0L0.032,-0L0.038,-0.029C0.055,-0.046 0.076,-0.067 0.103,-0.092C0.129,-0.117 0.157,-0.144 0.187,-0.175C0.216,-0.205 0.246,-0.237 0.276,-0.27C0.306,-0.303 0.333,-0.337 0.358,-0.371C0.382,-0.404 0.401,-0.437 0.416,-0.468C0.43,-0.499 0.437,-0.528 0.437,-0.555C0.437,-0.568 0.436,-0.579 0.433,-0.59C0.43,-0.601 0.426,-0.61 0.42,-0.618C0.414,-0.625 0.405,-0.631 0.394,-0.636C0.383,-0.64 0.368,-0.642 0.35,-0.642C0.326,-0.642 0.303,-0.637 0.28,-0.628C0.257,-0.618 0.233,-0.605 0.208,-0.588L0.187,-0.648C0.219,-0.671 0.25,-0.688 0.279,-0.698C0.308,-0.707 0.34,-0.712 0.375,-0.712C0.422,-0.712 0.457,-0.699 0.48,-0.673C0.503,-0.646 0.515,-0.612 0.515,-0.571Z" style="fill:rgb(247,0,255);fill-rule:nonzero;"/>
            </g>
            <g transform="matrix(32,0,0,32,331.228,11728.9)">
                <path d="M0.053,-0.712C0.084,-0.68 0.11,-0.645 0.131,-0.607C0.152,-0.568 0.169,-0.529 0.183,-0.489C0.196,-0.448 0.205,-0.407 0.211,-0.367C0.217,-0.325 0.22,-0.286 0.22,-0.249C0.22,-0.212 0.217,-0.174 0.211,-0.133C0.205,-0.092 0.195,-0.052 0.182,-0.011C0.169,0.031 0.151,0.071 0.13,0.11C0.108,0.149 0.081,0.186 0.05,0.22L0.002,0.185C0.029,0.151 0.051,0.116 0.069,0.079C0.087,0.042 0.101,0.005 0.112,-0.032C0.122,-0.069 0.129,-0.106 0.134,-0.143C0.138,-0.18 0.14,-0.215 0.14,-0.249C0.14,-0.281 0.137,-0.316 0.132,-0.353C0.127,-0.39 0.118,-0.428 0.108,-0.466C0.096,-0.504 0.082,-0.541 0.065,-0.577C0.048,-0.613 0.027,-0.646 0.002,-0.675L0.053,-0.712Z" style="fill:rgb(247,0,255);fill-rule:nonzero;"/>
            </g>
        </g>
    </g>
</svg>
