<?xml version="1.0" encoding="UTF-8" standalone="no"?>
<!DOCTYPE svg PUBLIC "-//W3C//DTD SVG 1.1//EN" "http://www.w3.org/Graphics/SVG/1.1/DTD/svg11.dtd">
<svg width="100%" height="100%" viewBox="0 0 2253 578" version="1.1" xmlns="http://www.w3.org/2000/svg" xmlns:xlink="http://www.w3.org/1999/xlink" xml:space="preserve" xmlns:serif="http://www.serif.com/" style="fill-rule:evenodd;clip-rule:evenodd;stroke-linecap:square;stroke-linejoin:round;stroke-miterlimit:10;">
    <rect id="Clementini-Line-Areas" serif:id="Clementini Line-Areas" x="-226" y="-3760" width="2683.8" height="4624" style="fill:none;"/>
    <g id="Clementini-Line-Areas1" serif:id="Clementini Line-Areas">
        <rect x="115.759" y="117.364" width="292.111" height="213.652" style="fill:rgb(251,133,255);fill-opacity:0.5;stroke:rgb(251,133,255);stroke-width:6px;"/>
        <rect x="550.37" y="117.364" width="292.111" height="213.652" style="fill:rgb(251,133,255);fill-opacity:0.5;stroke:rgb(251,133,255);stroke-width:6px;"/>
        <rect x="993.43" y="117.364" width="292.111" height="213.652" style="fill:rgb(251,133,255);fill-opacity:0.5;stroke:rgb(251,133,255);stroke-width:6px;"/>
        <rect x="1435.28" y="117.364" width="292.111" height="213.652" style="fill:rgb(251,133,255);fill-opacity:0.5;stroke:rgb(251,133,255);stroke-width:6px;"/>
        <rect x="1872.24" y="117.364" width="292.111" height="213.652" style="fill:rgb(251,133,255);fill-opacity:0.5;stroke:rgb(251,133,255);stroke-width:6px;"/>
        <path d="M1933.16,224.19L1820.71,172.112L1806.22,23.582L1894.17,21.168L1958.15,118.699L2107.99,118.699" style="fill:none;stroke:rgb(21,183,183);stroke-width:10px;"/>
        <path d="M333.584,118.344L177.189,118.344L198.917,225.887L336.523,331.016" style="fill:none;stroke:rgb(21,183,183);stroke-width:10px;"/>
        <path d="M1655.21,118.344L1498.82,118.344L1520.54,225.887L1604.15,289.759" style="fill:none;stroke:rgb(21,183,183);stroke-width:10px;"/>
        <path d="M1203.3,118.344L1046.9,118.344L1068.63,225.887L1285.54,408.269" style="fill:none;stroke:rgb(21,183,183);stroke-width:10px;"/>
        <path d="M765.776,118.344L609.382,118.344L656.932,331.016L842.481,402.233L900.355,331.016L842.481,224.68" style="fill:none;stroke:rgb(21,183,183);stroke-width:10px;"/>
        <g transform="matrix(1.20707,0,0,1.20707,-17091.3,-1745.34)">
            <g transform="matrix(48,0,0,48,14325.5,1796.71)">
                <path d="M0.127,-0.072L0.284,-0.072L0.284,-0.598L0.124,-0.486L0.085,-0.543L0.305,-0.7L0.361,-0.7L0.361,-0.072L0.515,-0.072L0.515,-0L0.127,-0L0.127,-0.072Z" style="fill:rgb(242,0,0);fill-rule:nonzero;"/>
            </g>
            <g transform="matrix(48,0,0,48,14383.1,1796.71)">
                <path d="M0.127,-0.072L0.284,-0.072L0.284,-0.598L0.124,-0.486L0.085,-0.543L0.305,-0.7L0.361,-0.7L0.361,-0.072L0.515,-0.072L0.515,-0L0.127,-0L0.127,-0.072Z" style="fill:rgb(242,0,0);fill-rule:nonzero;"/>
            </g>
            <g transform="matrix(48,0,0,48,14325.5,1868.71)">
                <rect x="0.088" y="-0.325" width="0.424" height="0.074" style="fill:rgb(242,0,0);fill-rule:nonzero;"/>
            </g>
            <g transform="matrix(48,0,0,48,14383.1,1868.71)">
                <path d="M0.055,-0.35C0.055,-0.407 0.06,-0.458 0.07,-0.503C0.08,-0.548 0.095,-0.586 0.115,-0.617C0.135,-0.648 0.16,-0.671 0.191,-0.688C0.222,-0.704 0.258,-0.712 0.3,-0.712C0.345,-0.712 0.383,-0.704 0.414,-0.688C0.445,-0.672 0.47,-0.649 0.489,-0.618C0.508,-0.587 0.522,-0.55 0.531,-0.505C0.54,-0.46 0.544,-0.408 0.544,-0.35C0.544,-0.293 0.539,-0.243 0.529,-0.198C0.519,-0.153 0.504,-0.115 0.484,-0.084C0.464,-0.053 0.439,-0.029 0.408,-0.013C0.377,0.004 0.341,0.012 0.299,0.012C0.255,0.012 0.218,0.003 0.187,-0.015C0.156,-0.032 0.13,-0.057 0.111,-0.089C0.091,-0.121 0.077,-0.159 0.068,-0.204C0.059,-0.248 0.055,-0.297 0.055,-0.35ZM0.462,-0.35C0.462,-0.385 0.46,-0.419 0.456,-0.451L0.159,-0.18C0.17,-0.142 0.187,-0.112 0.21,-0.089C0.233,-0.066 0.262,-0.055 0.299,-0.055C0.358,-0.055 0.4,-0.079 0.425,-0.128C0.45,-0.177 0.462,-0.251 0.462,-0.35ZM0.138,-0.35C0.138,-0.333 0.139,-0.317 0.14,-0.302C0.141,-0.287 0.142,-0.272 0.143,-0.257L0.441,-0.527C0.43,-0.563 0.413,-0.592 0.391,-0.613C0.368,-0.634 0.338,-0.645 0.3,-0.645C0.241,-0.645 0.199,-0.62 0.175,-0.572C0.15,-0.523 0.138,-0.449 0.138,-0.35Z" style="fill:rgb(242,0,0);fill-rule:nonzero;"/>
            </g>
        </g>
        <g transform="matrix(1.20707,0,0,1.20707,-16654.3,-1745.34)">
            <g transform="matrix(48,0,0,48,14325.5,1796.71)">
                <path d="M0.127,-0.072L0.284,-0.072L0.284,-0.598L0.124,-0.486L0.085,-0.543L0.305,-0.7L0.361,-0.7L0.361,-0.072L0.515,-0.072L0.515,-0L0.127,-0L0.127,-0.072Z" style="fill:rgb(242,0,0);fill-rule:nonzero;"/>
            </g>
            <g transform="matrix(48,0,0,48,14383.1,1796.71)">
                <path d="M0.127,-0.072L0.284,-0.072L0.284,-0.598L0.124,-0.486L0.085,-0.543L0.305,-0.7L0.361,-0.7L0.361,-0.072L0.515,-0.072L0.515,-0L0.127,-0L0.127,-0.072Z" style="fill:rgb(242,0,0);fill-rule:nonzero;"/>
            </g>
            <g transform="matrix(48,0,0,48,14325.5,1868.71)">
                <rect x="0.088" y="-0.325" width="0.424" height="0.074" style="fill:rgb(242,0,0);fill-rule:nonzero;"/>
            </g>
            <g transform="matrix(48,0,0,48,14383.1,1868.71)">
                <path d="M0.055,-0.35C0.055,-0.407 0.06,-0.458 0.07,-0.503C0.08,-0.548 0.095,-0.586 0.115,-0.617C0.135,-0.648 0.16,-0.671 0.191,-0.688C0.222,-0.704 0.258,-0.712 0.3,-0.712C0.345,-0.712 0.383,-0.704 0.414,-0.688C0.445,-0.672 0.47,-0.649 0.489,-0.618C0.508,-0.587 0.522,-0.55 0.531,-0.505C0.54,-0.46 0.544,-0.408 0.544,-0.35C0.544,-0.293 0.539,-0.243 0.529,-0.198C0.519,-0.153 0.504,-0.115 0.484,-0.084C0.464,-0.053 0.439,-0.029 0.408,-0.013C0.377,0.004 0.341,0.012 0.299,0.012C0.255,0.012 0.218,0.003 0.187,-0.015C0.156,-0.032 0.13,-0.057 0.111,-0.089C0.091,-0.121 0.077,-0.159 0.068,-0.204C0.059,-0.248 0.055,-0.297 0.055,-0.35ZM0.462,-0.35C0.462,-0.385 0.46,-0.419 0.456,-0.451L0.159,-0.18C0.17,-0.142 0.187,-0.112 0.21,-0.089C0.233,-0.066 0.262,-0.055 0.299,-0.055C0.358,-0.055 0.4,-0.079 0.425,-0.128C0.45,-0.177 0.462,-0.251 0.462,-0.35ZM0.138,-0.35C0.138,-0.333 0.139,-0.317 0.14,-0.302C0.141,-0.287 0.142,-0.272 0.143,-0.257L0.441,-0.527C0.43,-0.563 0.413,-0.592 0.391,-0.613C0.368,-0.634 0.338,-0.645 0.3,-0.645C0.241,-0.645 0.199,-0.62 0.175,-0.572C0.15,-0.523 0.138,-0.449 0.138,-0.35Z" style="fill:rgb(242,0,0);fill-rule:nonzero;"/>
            </g>
        </g>
        <g transform="matrix(1.20707,0,0,1.20707,-16209,-1745.34)">
            <g transform="matrix(48,0,0,48,14325.5,1796.71)">
                <path d="M0.127,-0.072L0.284,-0.072L0.284,-0.598L0.124,-0.486L0.085,-0.543L0.305,-0.7L0.361,-0.7L0.361,-0.072L0.515,-0.072L0.515,-0L0.127,-0L0.127,-0.072Z" style="fill:rgb(242,0,0);fill-rule:nonzero;"/>
            </g>
            <g transform="matrix(48,0,0,48,14383.1,1796.71)">
                <path d="M0.127,-0.072L0.284,-0.072L0.284,-0.598L0.124,-0.486L0.085,-0.543L0.305,-0.7L0.361,-0.7L0.361,-0.072L0.515,-0.072L0.515,-0L0.127,-0L0.127,-0.072Z" style="fill:rgb(242,0,0);fill-rule:nonzero;"/>
            </g>
            <g transform="matrix(48,0,0,48,14325.5,1868.71)">
                <rect x="0.088" y="-0.325" width="0.424" height="0.074" style="fill:rgb(242,0,0);fill-rule:nonzero;"/>
            </g>
            <g transform="matrix(48,0,0,48,14383.1,1868.71)">
                <path d="M0.055,-0.35C0.055,-0.407 0.06,-0.458 0.07,-0.503C0.08,-0.548 0.095,-0.586 0.115,-0.617C0.135,-0.648 0.16,-0.671 0.191,-0.688C0.222,-0.704 0.258,-0.712 0.3,-0.712C0.345,-0.712 0.383,-0.704 0.414,-0.688C0.445,-0.672 0.47,-0.649 0.489,-0.618C0.508,-0.587 0.522,-0.55 0.531,-0.505C0.54,-0.46 0.544,-0.408 0.544,-0.35C0.544,-0.293 0.539,-0.243 0.529,-0.198C0.519,-0.153 0.504,-0.115 0.484,-0.084C0.464,-0.053 0.439,-0.029 0.408,-0.013C0.377,0.004 0.341,0.012 0.299,0.012C0.255,0.012 0.218,0.003 0.187,-0.015C0.156,-0.032 0.13,-0.057 0.111,-0.089C0.091,-0.121 0.077,-0.159 0.068,-0.204C0.059,-0.248 0.055,-0.297 0.055,-0.35ZM0.462,-0.35C0.462,-0.385 0.46,-0.419 0.456,-0.451L0.159,-0.18C0.17,-0.142 0.187,-0.112 0.21,-0.089C0.233,-0.066 0.262,-0.055 0.299,-0.055C0.358,-0.055 0.4,-0.079 0.425,-0.128C0.45,-0.177 0.462,-0.251 0.462,-0.35ZM0.138,-0.35C0.138,-0.333 0.139,-0.317 0.14,-0.302C0.141,-0.287 0.142,-0.272 0.143,-0.257L0.441,-0.527C0.43,-0.563 0.413,-0.592 0.391,-0.613C0.368,-0.634 0.338,-0.645 0.3,-0.645C0.241,-0.645 0.199,-0.62 0.175,-0.572C0.15,-0.523 0.138,-0.449 0.138,-0.35Z" style="fill:rgb(242,0,0);fill-rule:nonzero;"/>
            </g>
        </g>
        <g transform="matrix(1.20707,0,0,1.20707,-15771.6,-1745.34)">
            <g transform="matrix(48,0,0,48,14325.5,1796.71)">
                <path d="M0.127,-0.072L0.284,-0.072L0.284,-0.598L0.124,-0.486L0.085,-0.543L0.305,-0.7L0.361,-0.7L0.361,-0.072L0.515,-0.072L0.515,-0L0.127,-0L0.127,-0.072Z" style="fill:rgb(0,122,229);fill-rule:nonzero;"/>
            </g>
            <g transform="matrix(48,0,0,48,14383.1,1796.71)">
                <path d="M0.127,-0.072L0.284,-0.072L0.284,-0.598L0.124,-0.486L0.085,-0.543L0.305,-0.7L0.361,-0.7L0.361,-0.072L0.515,-0.072L0.515,-0L0.127,-0L0.127,-0.072Z" style="fill:rgb(0,122,229);fill-rule:nonzero;"/>
            </g>
            <g transform="matrix(48,0,0,48,14325.5,1868.71)">
                <path d="M0.055,-0.35C0.055,-0.407 0.06,-0.458 0.07,-0.503C0.08,-0.548 0.095,-0.586 0.115,-0.617C0.135,-0.648 0.16,-0.671 0.191,-0.688C0.222,-0.704 0.258,-0.712 0.3,-0.712C0.345,-0.712 0.383,-0.704 0.414,-0.688C0.445,-0.672 0.47,-0.649 0.489,-0.618C0.508,-0.587 0.522,-0.55 0.531,-0.505C0.54,-0.46 0.544,-0.408 0.544,-0.35C0.544,-0.293 0.539,-0.243 0.529,-0.198C0.519,-0.153 0.504,-0.115 0.484,-0.084C0.464,-0.053 0.439,-0.029 0.408,-0.013C0.377,0.004 0.341,0.012 0.299,0.012C0.255,0.012 0.218,0.003 0.187,-0.015C0.156,-0.032 0.13,-0.057 0.111,-0.089C0.091,-0.121 0.077,-0.159 0.068,-0.204C0.059,-0.248 0.055,-0.297 0.055,-0.35ZM0.462,-0.35C0.462,-0.385 0.46,-0.419 0.456,-0.451L0.159,-0.18C0.17,-0.142 0.187,-0.112 0.21,-0.089C0.233,-0.066 0.262,-0.055 0.299,-0.055C0.358,-0.055 0.4,-0.079 0.425,-0.128C0.45,-0.177 0.462,-0.251 0.462,-0.35ZM0.138,-0.35C0.138,-0.333 0.139,-0.317 0.14,-0.302C0.141,-0.287 0.142,-0.272 0.143,-0.257L0.441,-0.527C0.43,-0.563 0.413,-0.592 0.391,-0.613C0.368,-0.634 0.338,-0.645 0.3,-0.645C0.241,-0.645 0.199,-0.62 0.175,-0.572C0.15,-0.523 0.138,-0.449 0.138,-0.35Z" style="fill:rgb(0,122,229);fill-rule:nonzero;"/>
            </g>
            <g transform="matrix(48,0,0,48,14383.1,1868.71)">
                <path d="M0.055,-0.35C0.055,-0.407 0.06,-0.458 0.07,-0.503C0.08,-0.548 0.095,-0.586 0.115,-0.617C0.135,-0.648 0.16,-0.671 0.191,-0.688C0.222,-0.704 0.258,-0.712 0.3,-0.712C0.345,-0.712 0.383,-0.704 0.414,-0.688C0.445,-0.672 0.47,-0.649 0.489,-0.618C0.508,-0.587 0.522,-0.55 0.531,-0.505C0.54,-0.46 0.544,-0.408 0.544,-0.35C0.544,-0.293 0.539,-0.243 0.529,-0.198C0.519,-0.153 0.504,-0.115 0.484,-0.084C0.464,-0.053 0.439,-0.029 0.408,-0.013C0.377,0.004 0.341,0.012 0.299,0.012C0.255,0.012 0.218,0.003 0.187,-0.015C0.156,-0.032 0.13,-0.057 0.111,-0.089C0.091,-0.121 0.077,-0.159 0.068,-0.204C0.059,-0.248 0.055,-0.297 0.055,-0.35ZM0.462,-0.35C0.462,-0.385 0.46,-0.419 0.456,-0.451L0.159,-0.18C0.17,-0.142 0.187,-0.112 0.21,-0.089C0.233,-0.066 0.262,-0.055 0.299,-0.055C0.358,-0.055 0.4,-0.079 0.425,-0.128C0.45,-0.177 0.462,-0.251 0.462,-0.35ZM0.138,-0.35C0.138,-0.333 0.139,-0.317 0.14,-0.302C0.141,-0.287 0.142,-0.272 0.143,-0.257L0.441,-0.527C0.43,-0.563 0.413,-0.592 0.391,-0.613C0.368,-0.634 0.338,-0.645 0.3,-0.645C0.241,-0.645 0.199,-0.62 0.175,-0.572C0.15,-0.523 0.138,-0.449 0.138,-0.35Z" style="fill:rgb(0,122,229);fill-rule:nonzero;"/>
            </g>
        </g>
        <g transform="matrix(1.20707,0,0,1.20707,-15327.3,-1745.34)">
            <g transform="matrix(48,0,0,48,14325.5,1796.71)">
                <path d="M0.127,-0.072L0.284,-0.072L0.284,-0.598L0.124,-0.486L0.085,-0.543L0.305,-0.7L0.361,-0.7L0.361,-0.072L0.515,-0.072L0.515,-0L0.127,-0L0.127,-0.072Z" style="fill:rgb(0,122,229);fill-rule:nonzero;"/>
            </g>
            <g transform="matrix(48,0,0,48,14383.1,1796.71)">
                <path d="M0.127,-0.072L0.284,-0.072L0.284,-0.598L0.124,-0.486L0.085,-0.543L0.305,-0.7L0.361,-0.7L0.361,-0.072L0.515,-0.072L0.515,-0L0.127,-0L0.127,-0.072Z" style="fill:rgb(0,122,229);fill-rule:nonzero;"/>
            </g>
            <g transform="matrix(48,0,0,48,14325.5,1868.71)">
                <path d="M0.055,-0.35C0.055,-0.407 0.06,-0.458 0.07,-0.503C0.08,-0.548 0.095,-0.586 0.115,-0.617C0.135,-0.648 0.16,-0.671 0.191,-0.688C0.222,-0.704 0.258,-0.712 0.3,-0.712C0.345,-0.712 0.383,-0.704 0.414,-0.688C0.445,-0.672 0.47,-0.649 0.489,-0.618C0.508,-0.587 0.522,-0.55 0.531,-0.505C0.54,-0.46 0.544,-0.408 0.544,-0.35C0.544,-0.293 0.539,-0.243 0.529,-0.198C0.519,-0.153 0.504,-0.115 0.484,-0.084C0.464,-0.053 0.439,-0.029 0.408,-0.013C0.377,0.004 0.341,0.012 0.299,0.012C0.255,0.012 0.218,0.003 0.187,-0.015C0.156,-0.032 0.13,-0.057 0.111,-0.089C0.091,-0.121 0.077,-0.159 0.068,-0.204C0.059,-0.248 0.055,-0.297 0.055,-0.35ZM0.462,-0.35C0.462,-0.385 0.46,-0.419 0.456,-0.451L0.159,-0.18C0.17,-0.142 0.187,-0.112 0.21,-0.089C0.233,-0.066 0.262,-0.055 0.299,-0.055C0.358,-0.055 0.4,-0.079 0.425,-0.128C0.45,-0.177 0.462,-0.251 0.462,-0.35ZM0.138,-0.35C0.138,-0.333 0.139,-0.317 0.14,-0.302C0.141,-0.287 0.142,-0.272 0.143,-0.257L0.441,-0.527C0.43,-0.563 0.413,-0.592 0.391,-0.613C0.368,-0.634 0.338,-0.645 0.3,-0.645C0.241,-0.645 0.199,-0.62 0.175,-0.572C0.15,-0.523 0.138,-0.449 0.138,-0.35Z" style="fill:rgb(0,122,229);fill-rule:nonzero;"/>
            </g>
            <g transform="matrix(48,0,0,48,14383.1,1868.71)">
                <path d="M0.055,-0.35C0.055,-0.407 0.06,-0.458 0.07,-0.503C0.08,-0.548 0.095,-0.586 0.115,-0.617C0.135,-0.648 0.16,-0.671 0.191,-0.688C0.222,-0.704 0.258,-0.712 0.3,-0.712C0.345,-0.712 0.383,-0.704 0.414,-0.688C0.445,-0.672 0.47,-0.649 0.489,-0.618C0.508,-0.587 0.522,-0.55 0.531,-0.505C0.54,-0.46 0.544,-0.408 0.544,-0.35C0.544,-0.293 0.539,-0.243 0.529,-0.198C0.519,-0.153 0.504,-0.115 0.484,-0.084C0.464,-0.053 0.439,-0.029 0.408,-0.013C0.377,0.004 0.341,0.012 0.299,0.012C0.255,0.012 0.218,0.003 0.187,-0.015C0.156,-0.032 0.13,-0.057 0.111,-0.089C0.091,-0.121 0.077,-0.159 0.068,-0.204C0.059,-0.248 0.055,-0.297 0.055,-0.35ZM0.462,-0.35C0.462,-0.385 0.46,-0.419 0.456,-0.451L0.159,-0.18C0.17,-0.142 0.187,-0.112 0.21,-0.089C0.233,-0.066 0.262,-0.055 0.299,-0.055C0.358,-0.055 0.4,-0.079 0.425,-0.128C0.45,-0.177 0.462,-0.251 0.462,-0.35ZM0.138,-0.35C0.138,-0.333 0.139,-0.317 0.14,-0.302C0.141,-0.287 0.142,-0.272 0.143,-0.257L0.441,-0.527C0.43,-0.563 0.413,-0.592 0.391,-0.613C0.368,-0.634 0.338,-0.645 0.3,-0.645C0.241,-0.645 0.199,-0.62 0.175,-0.572C0.15,-0.523 0.138,-0.449 0.138,-0.35Z" style="fill:rgb(0,122,229);fill-rule:nonzero;"/>
            </g>
        </g>
        <path d="M252.77,75.917L252.77,67.441L239.899,67.441L239.899,64.394L252.77,45.605L256.422,45.605L256.422,64.394L262.028,64.394L262.028,67.441L256.422,67.441L256.422,75.917L252.77,75.917ZM252.77,64.394L252.77,51.113L243.766,64.394L252.77,64.394Z" style="fill:rgb(128,128,128);fill-rule:nonzero;"/>
        <path d="M276.774,75.917L276.774,67.441L263.903,67.441L263.903,64.394L276.774,45.605L280.426,45.605L280.426,64.394L286.032,64.394L286.032,67.441L280.426,67.441L280.426,75.917L276.774,75.917ZM276.774,64.394L276.774,51.113L267.77,64.394L276.774,64.394Z" style="fill:rgb(128,128,128);fill-rule:nonzero;"/>
        <path d="M690.885,75.917L690.885,67.441L678.014,67.441L678.014,64.394L690.885,45.605L694.537,45.605L694.537,64.394L700.143,64.394L700.143,67.441L694.537,67.441L694.537,75.917L690.885,75.917ZM690.885,64.394L690.885,51.113L681.881,64.394L690.885,64.394Z" style="fill:rgb(128,128,128);fill-rule:nonzero;"/>
        <path d="M704.752,60.156L704.752,45.605L721.725,45.605L721.725,49.101L708.385,49.101L708.385,56.523L709.01,56.523C713.372,56.523 716.731,57.434 719.088,59.257C721.445,61.08 722.623,63.534 722.623,66.62C722.623,68.574 722.148,70.325 721.197,71.874C720.247,73.424 718.906,74.638 717.174,75.517C715.442,76.396 713.6,76.835 711.646,76.835C709.693,76.835 707.193,76.36 704.146,75.409L704.146,71.445C705.253,72.044 706.49,72.535 707.857,72.919C709.225,73.303 710.488,73.495 711.646,73.495C712.805,73.495 713.938,73.215 715.045,72.656C716.152,72.096 717.011,71.279 717.623,70.204C718.235,69.13 718.541,68.033 718.541,66.913C718.541,65.025 717.704,63.427 716.031,62.118C714.358,60.81 711.386,60.156 707.115,60.156L704.752,60.156Z" style="fill:rgb(128,128,128);fill-rule:nonzero;"/>
        <path d="M1574.09,75.917L1574.09,67.441L1561.22,67.441L1561.22,64.394L1574.09,45.605L1577.74,45.605L1577.74,64.394L1583.35,64.394L1583.35,67.441L1577.74,67.441L1577.74,75.917L1574.09,75.917ZM1574.09,64.394L1574.09,51.113L1565.09,64.394L1574.09,64.394Z" style="fill:rgb(128,128,128);fill-rule:nonzero;"/>
        <path d="M1590.52,75.917L1590.52,73.202C1590.52,71.08 1590.76,69.296 1591.24,67.851C1591.72,66.406 1592.57,64.797 1593.78,63.027C1594.99,61.256 1595.96,59.889 1596.69,58.925L1599.85,54.745L1600.99,53.281C1601.84,52.122 1602.59,50.781 1603.21,49.257L1587.49,49.257L1587.49,45.605L1606.73,45.605L1606.73,48.027C1606.73,48.99 1606.54,49.882 1606.15,50.702C1605.77,51.523 1604.61,53.274 1602.66,55.956C1602.2,56.594 1601.73,57.232 1601.28,57.87L1599.25,60.722C1597.94,62.558 1596.98,64.023 1596.36,65.116C1595.73,66.21 1595.26,67.35 1594.94,68.534C1594.62,69.719 1594.46,71.275 1594.46,73.202L1594.46,75.917L1590.52,75.917Z" style="fill:rgb(128,128,128);fill-rule:nonzero;"/>
        <path d="M1135.57,75.917L1135.57,67.441L1122.7,67.441L1122.7,64.394L1135.57,45.605L1139.22,45.605L1139.22,64.394L1144.83,64.394L1144.83,67.441L1139.22,67.441L1139.22,75.917L1135.57,75.917ZM1135.57,64.394L1135.57,51.113L1126.57,64.394L1135.57,64.394Z" style="fill:rgb(128,128,128);fill-rule:nonzero;"/>
        <path d="M1151.47,61.699C1152.4,60.305 1153.57,59.169 1154.95,58.29C1156.34,57.411 1157.87,56.972 1159.53,56.972C1161.11,56.972 1162.6,57.356 1164.02,58.124C1165.43,58.893 1166.51,59.964 1167.25,61.337C1167.99,62.711 1168.36,64.309 1168.36,66.132C1168.36,69.01 1167.44,71.513 1165.6,73.642C1163.76,75.771 1161.33,76.835 1158.32,76.835C1154.78,76.835 1152.13,75.354 1150.38,72.392C1148.63,69.43 1147.76,65.663 1147.76,61.093C1147.76,56.041 1148.87,52.047 1151.1,49.111C1153.32,46.174 1156.34,44.706 1160.14,44.706C1162.18,44.706 1164.17,45.006 1166.1,45.605L1166.1,49.277C1163.93,48.248 1161.9,47.734 1159.98,47.734C1157.28,47.734 1155.18,48.977 1153.69,51.464C1152.21,53.951 1151.47,57.102 1151.47,60.917L1151.47,61.699ZM1158.6,73.808C1159.57,73.808 1160.56,73.518 1161.55,72.939C1162.54,72.359 1163.31,71.467 1163.88,70.263C1164.45,69.059 1164.73,67.747 1164.73,66.327C1164.73,64.478 1164.25,62.962 1163.29,61.777C1162.34,60.592 1160.97,59.999 1159.2,59.999C1157.37,59.999 1155.86,60.686 1154.68,62.06C1153.5,63.434 1152.91,65.103 1152.91,67.07C1152.91,69.049 1153.49,70.667 1154.64,71.923C1155.79,73.18 1157.11,73.808 1158.6,73.808Z" style="fill:rgb(128,128,128);fill-rule:nonzero;"/>
        <path d="M2010.84,75.917L2010.84,67.441L1997.97,67.441L1997.97,64.394L2010.84,45.605L2014.49,45.605L2014.49,64.394L2020.1,64.394L2020.1,67.441L2014.49,67.441L2014.49,75.917L2010.84,75.917ZM2010.84,64.394L2010.84,51.113L2001.84,64.394L2010.84,64.394Z" style="fill:rgb(128,128,128);fill-rule:nonzero;"/>
        <path d="M2030,59.57L2029.34,59.081C2028.41,58.43 2027.51,57.47 2026.62,56.2C2025.74,54.931 2025.29,53.534 2025.29,52.011C2025.29,49.993 2026.09,48.271 2027.68,46.845C2029.27,45.419 2031.28,44.706 2033.73,44.706C2035.23,44.706 2036.58,44.977 2037.77,45.517C2038.97,46.057 2039.9,46.855 2040.55,47.909C2041.2,48.964 2041.52,50.116 2041.52,51.366C2041.52,52.226 2041.38,53.056 2041.08,53.857C2040.78,54.658 2040.33,55.452 2039.74,56.24C2039.14,57.027 2037.97,58.137 2036.21,59.57L2037.85,60.878C2039.77,62.441 2041.06,63.788 2041.72,64.921C2042.38,66.054 2042.72,67.324 2042.72,68.73C2042.72,70.917 2041.92,72.815 2040.33,74.423C2038.74,76.031 2036.36,76.835 2033.18,76.835C2029.99,76.835 2027.61,76.083 2026.02,74.579C2024.43,73.075 2023.63,71.21 2023.63,68.984C2023.63,65.663 2025.76,62.525 2030,59.57ZM2033.73,57.714C2035.57,56.321 2036.72,55.156 2037.18,54.218C2037.64,53.281 2037.87,52.408 2037.87,51.601C2037.87,50.624 2037.44,49.736 2036.58,48.935C2035.72,48.134 2034.62,47.734 2033.26,47.734C2031.8,47.734 2030.69,48.17 2029.93,49.042C2029.17,49.915 2028.79,50.82 2028.79,51.757C2028.79,52.669 2029.11,53.528 2029.75,54.335C2030.38,55.143 2031.41,56.047 2032.81,57.05L2033.73,57.714ZM2032.74,61.503C2029.3,64.146 2027.58,66.62 2027.58,68.925C2027.58,70.292 2028.15,71.445 2029.28,72.382C2030.41,73.32 2031.75,73.788 2033.3,73.788C2034.72,73.788 2035.99,73.339 2037.11,72.441C2038.23,71.542 2038.79,70.422 2038.79,69.081C2038.79,67.766 2038.11,66.432 2036.75,65.077C2035.39,63.723 2034.44,62.838 2033.91,62.421L2032.74,61.503Z" style="fill:rgb(128,128,128);fill-rule:nonzero;"/>
    </g>
</svg>
