<?xml version="1.0" encoding="UTF-8" standalone="no"?>
<!DOCTYPE svg PUBLIC "-//W3C//DTD SVG 1.1//EN" "http://www.w3.org/Graphics/SVG/1.1/DTD/svg11.dtd">
<svg width="100%" height="100%" viewBox="0 0 2065 1027" version="1.1" xmlns="http://www.w3.org/2000/svg" xmlns:xlink="http://www.w3.org/1999/xlink" xml:space="preserve" xmlns:serif="http://www.serif.com/" style="fill-rule:evenodd;clip-rule:evenodd;stroke-linecap:square;stroke-linejoin:round;stroke-miterlimit:10;">
    <rect id="Clementini-Line-Lines" serif:id="Clementini Line-Lines" x="-281.849" y="-240" width="2683.8" height="4624" style="fill:none;"/>
    <path d="M32.744,306.682L146.209,127.432" style="fill:none;stroke:rgb(21,183,183);stroke-width:10px;"/>
    <path d="M922.444,220.689L1134.59,221.2" style="fill:none;stroke:rgb(21,183,183);stroke-width:10px;"/>
    <path d="M922.444,686.267L1134.59,686.779" style="fill:none;stroke:rgb(21,183,183);stroke-width:10px;"/>
    <path d="M1801.4,694.267L2013.55,694.779" style="fill:none;stroke:rgb(21,183,183);stroke-width:10px;"/>
    <path d="M1325.56,686.173L1640.7,686.933" style="fill:none;stroke:rgb(21,183,183);stroke-width:10px;"/>
    <path d="M694.832,288.885L546.199,137.515" style="fill:none;stroke:rgb(21,183,183);stroke-width:10px;"/>
    <path d="M1464.28,205.716L1549.78,284" style="fill:none;stroke:rgb(21,183,183);stroke-width:10px;"/>
    <path d="M1857.35,232.716L1913.36,284L1991,244.858L1948.81,150.495" style="fill:none;stroke:rgb(21,183,183);stroke-width:10px;"/>
    <path d="M40.155,734.011L245.069,679.104" style="fill:none;stroke:rgb(247,0,255);stroke-width:10px;"/>
    <path d="M508.956,734.011L713.87,679.104" style="fill:none;stroke:rgb(247,0,255);stroke-width:10px;"/>
    <path d="M519.813,244.51L724.728,189.603" style="fill:none;stroke:rgb(247,0,255);stroke-width:10px;"/>
    <path d="M161.131,302.825L312.228,153.914" style="fill:none;stroke:rgb(247,0,255);stroke-width:10px;"/>
    <path d="M86.364,810.558L90.364,622.558L147.495,602.558L198.86,693.39" style="fill:none;stroke:rgb(21,183,183);stroke-width:10px;"/>
    <path d="M611.413,706.558L622.27,779L555.165,810.558L559.165,622.558L616.296,602.558L667.661,693.39" style="fill:none;stroke:rgb(21,183,183);stroke-width:10px;"/>
    <path d="M956.048,127.432L994,213.2L1075,212.689L1134.59,284" style="fill:none;stroke:rgb(247,0,255);stroke-width:10px;"/>
    <path d="M994,696.779L1075,696.267L1134.59,767.579" style="fill:none;stroke:rgb(247,0,255);stroke-width:10px;"/>
    <path d="M1872.96,702.779L1953.96,702.267" style="fill:none;stroke:rgb(247,0,255);stroke-width:10px;"/>
    <path d="M1366.12,694.779L1447.12,694.267L1506.7,765.579L1563,765.579L1588,694.933" style="fill:none;stroke:rgb(247,0,255);stroke-width:10px;"/>
    <path d="M1380,284L1551,127.432" style="fill:none;stroke:rgb(247,0,255);stroke-width:10px;"/>
    <path d="M1803,284L1991,111.867" style="fill:none;stroke:rgb(247,0,255);stroke-width:10px;"/>
    <g transform="matrix(1.20707,0,0,1.20707,-17199.1,-1812.46)">
        <g transform="matrix(48,0,0,48,14325.5,1796.71)">
            <rect x="0.088" y="-0.325" width="0.424" height="0.074" style="fill-rule:nonzero;"/>
        </g>
        <g transform="matrix(48,0,0,48,14383.1,1796.71)">
            <rect x="0.088" y="-0.325" width="0.424" height="0.074" style="fill-rule:nonzero;"/>
        </g>
        <g transform="matrix(48,0,0,48,14325.5,1868.71)">
            <rect x="0.088" y="-0.325" width="0.424" height="0.074" style="fill-rule:nonzero;"/>
        </g>
        <g transform="matrix(48,0,0,48,14383.1,1868.71)">
            <rect x="0.088" y="-0.325" width="0.424" height="0.074" style="fill-rule:nonzero;"/>
        </g>
    </g>
    <g transform="matrix(1.20707,0,0,1.20707,-17199.1,-1293.06)">
        <g transform="matrix(48,0,0,48,14325.5,1796.71)">
            <path d="M0.055,-0.35C0.055,-0.407 0.06,-0.458 0.07,-0.503C0.08,-0.548 0.095,-0.586 0.115,-0.617C0.135,-0.648 0.16,-0.671 0.191,-0.688C0.222,-0.704 0.258,-0.712 0.3,-0.712C0.345,-0.712 0.383,-0.704 0.414,-0.688C0.445,-0.672 0.47,-0.649 0.489,-0.618C0.508,-0.587 0.522,-0.55 0.531,-0.505C0.54,-0.46 0.544,-0.408 0.544,-0.35C0.544,-0.293 0.539,-0.243 0.529,-0.198C0.519,-0.153 0.504,-0.115 0.484,-0.084C0.464,-0.053 0.439,-0.029 0.408,-0.013C0.377,0.004 0.341,0.012 0.299,0.012C0.255,0.012 0.218,0.003 0.187,-0.015C0.156,-0.032 0.13,-0.057 0.111,-0.089C0.091,-0.121 0.077,-0.159 0.068,-0.204C0.059,-0.248 0.055,-0.297 0.055,-0.35ZM0.462,-0.35C0.462,-0.385 0.46,-0.419 0.456,-0.451L0.159,-0.18C0.17,-0.142 0.187,-0.112 0.21,-0.089C0.233,-0.066 0.262,-0.055 0.299,-0.055C0.358,-0.055 0.4,-0.079 0.425,-0.128C0.45,-0.177 0.462,-0.251 0.462,-0.35ZM0.138,-0.35C0.138,-0.333 0.139,-0.317 0.14,-0.302C0.141,-0.287 0.142,-0.272 0.143,-0.257L0.441,-0.527C0.43,-0.563 0.413,-0.592 0.391,-0.613C0.368,-0.634 0.338,-0.645 0.3,-0.645C0.241,-0.645 0.199,-0.62 0.175,-0.572C0.15,-0.523 0.138,-0.449 0.138,-0.35Z" style="fill:rgb(242,0,0);fill-rule:nonzero;"/>
        </g>
        <g transform="matrix(48,0,0,48,14383.1,1796.71)">
            <rect x="0.088" y="-0.325" width="0.424" height="0.074" style="fill:rgb(242,0,0);fill-rule:nonzero;"/>
        </g>
        <g transform="matrix(48,0,0,48,14325.5,1868.71)">
            <path d="M0.055,-0.35C0.055,-0.407 0.06,-0.458 0.07,-0.503C0.08,-0.548 0.095,-0.586 0.115,-0.617C0.135,-0.648 0.16,-0.671 0.191,-0.688C0.222,-0.704 0.258,-0.712 0.3,-0.712C0.345,-0.712 0.383,-0.704 0.414,-0.688C0.445,-0.672 0.47,-0.649 0.489,-0.618C0.508,-0.587 0.522,-0.55 0.531,-0.505C0.54,-0.46 0.544,-0.408 0.544,-0.35C0.544,-0.293 0.539,-0.243 0.529,-0.198C0.519,-0.153 0.504,-0.115 0.484,-0.084C0.464,-0.053 0.439,-0.029 0.408,-0.013C0.377,0.004 0.341,0.012 0.299,0.012C0.255,0.012 0.218,0.003 0.187,-0.015C0.156,-0.032 0.13,-0.057 0.111,-0.089C0.091,-0.121 0.077,-0.159 0.068,-0.204C0.059,-0.248 0.055,-0.297 0.055,-0.35ZM0.462,-0.35C0.462,-0.385 0.46,-0.419 0.456,-0.451L0.159,-0.18C0.17,-0.142 0.187,-0.112 0.21,-0.089C0.233,-0.066 0.262,-0.055 0.299,-0.055C0.358,-0.055 0.4,-0.079 0.425,-0.128C0.45,-0.177 0.462,-0.251 0.462,-0.35ZM0.138,-0.35C0.138,-0.333 0.139,-0.317 0.14,-0.302C0.141,-0.287 0.142,-0.272 0.143,-0.257L0.441,-0.527C0.43,-0.563 0.413,-0.592 0.391,-0.613C0.368,-0.634 0.338,-0.645 0.3,-0.645C0.241,-0.645 0.199,-0.62 0.175,-0.572C0.15,-0.523 0.138,-0.449 0.138,-0.35Z" style="fill:rgb(242,0,0);fill-rule:nonzero;"/>
        </g>
        <g transform="matrix(48,0,0,48,14383.1,1868.71)">
            <rect x="0.088" y="-0.325" width="0.424" height="0.074" style="fill:rgb(242,0,0);fill-rule:nonzero;"/>
        </g>
    </g>
    <g transform="matrix(1.20707,0,0,1.20707,-16725.7,-1293.06)">
        <g transform="matrix(48,0,0,48,14325.5,1796.71)">
            <path d="M0.055,-0.35C0.055,-0.407 0.06,-0.458 0.07,-0.503C0.08,-0.548 0.095,-0.586 0.115,-0.617C0.135,-0.648 0.16,-0.671 0.191,-0.688C0.222,-0.704 0.258,-0.712 0.3,-0.712C0.345,-0.712 0.383,-0.704 0.414,-0.688C0.445,-0.672 0.47,-0.649 0.489,-0.618C0.508,-0.587 0.522,-0.55 0.531,-0.505C0.54,-0.46 0.544,-0.408 0.544,-0.35C0.544,-0.293 0.539,-0.243 0.529,-0.198C0.519,-0.153 0.504,-0.115 0.484,-0.084C0.464,-0.053 0.439,-0.029 0.408,-0.013C0.377,0.004 0.341,0.012 0.299,0.012C0.255,0.012 0.218,0.003 0.187,-0.015C0.156,-0.032 0.13,-0.057 0.111,-0.089C0.091,-0.121 0.077,-0.159 0.068,-0.204C0.059,-0.248 0.055,-0.297 0.055,-0.35ZM0.462,-0.35C0.462,-0.385 0.46,-0.419 0.456,-0.451L0.159,-0.18C0.17,-0.142 0.187,-0.112 0.21,-0.089C0.233,-0.066 0.262,-0.055 0.299,-0.055C0.358,-0.055 0.4,-0.079 0.425,-0.128C0.45,-0.177 0.462,-0.251 0.462,-0.35ZM0.138,-0.35C0.138,-0.333 0.139,-0.317 0.14,-0.302C0.141,-0.287 0.142,-0.272 0.143,-0.257L0.441,-0.527C0.43,-0.563 0.413,-0.592 0.391,-0.613C0.368,-0.634 0.338,-0.645 0.3,-0.645C0.241,-0.645 0.199,-0.62 0.175,-0.572C0.15,-0.523 0.138,-0.449 0.138,-0.35Z" style="fill:rgb(242,0,0);fill-rule:nonzero;"/>
        </g>
        <g transform="matrix(48,0,0,48,14383.1,1796.71)">
            <rect x="0.088" y="-0.325" width="0.424" height="0.074" style="fill:rgb(242,0,0);fill-rule:nonzero;"/>
        </g>
        <g transform="matrix(48,0,0,48,14325.5,1868.71)">
            <path d="M0.055,-0.35C0.055,-0.407 0.06,-0.458 0.07,-0.503C0.08,-0.548 0.095,-0.586 0.115,-0.617C0.135,-0.648 0.16,-0.671 0.191,-0.688C0.222,-0.704 0.258,-0.712 0.3,-0.712C0.345,-0.712 0.383,-0.704 0.414,-0.688C0.445,-0.672 0.47,-0.649 0.489,-0.618C0.508,-0.587 0.522,-0.55 0.531,-0.505C0.54,-0.46 0.544,-0.408 0.544,-0.35C0.544,-0.293 0.539,-0.243 0.529,-0.198C0.519,-0.153 0.504,-0.115 0.484,-0.084C0.464,-0.053 0.439,-0.029 0.408,-0.013C0.377,0.004 0.341,0.012 0.299,0.012C0.255,0.012 0.218,0.003 0.187,-0.015C0.156,-0.032 0.13,-0.057 0.111,-0.089C0.091,-0.121 0.077,-0.159 0.068,-0.204C0.059,-0.248 0.055,-0.297 0.055,-0.35ZM0.462,-0.35C0.462,-0.385 0.46,-0.419 0.456,-0.451L0.159,-0.18C0.17,-0.142 0.187,-0.112 0.21,-0.089C0.233,-0.066 0.262,-0.055 0.299,-0.055C0.358,-0.055 0.4,-0.079 0.425,-0.128C0.45,-0.177 0.462,-0.251 0.462,-0.35ZM0.138,-0.35C0.138,-0.333 0.139,-0.317 0.14,-0.302C0.141,-0.287 0.142,-0.272 0.143,-0.257L0.441,-0.527C0.43,-0.563 0.413,-0.592 0.391,-0.613C0.368,-0.634 0.338,-0.645 0.3,-0.645C0.241,-0.645 0.199,-0.62 0.175,-0.572C0.15,-0.523 0.138,-0.449 0.138,-0.35Z" style="fill:rgb(242,0,0);fill-rule:nonzero;"/>
        </g>
        <g transform="matrix(48,0,0,48,14383.1,1868.71)">
            <rect x="0.088" y="-0.325" width="0.424" height="0.074" style="fill:rgb(242,0,0);fill-rule:nonzero;"/>
        </g>
    </g>
    <g transform="matrix(1.20707,0,0,1.20707,-16308.3,-1293.06)">
        <g transform="matrix(48,0,0,48,14325.5,1796.71)">
            <path d="M0.127,-0.072L0.284,-0.072L0.284,-0.598L0.124,-0.486L0.085,-0.543L0.305,-0.7L0.361,-0.7L0.361,-0.072L0.515,-0.072L0.515,-0L0.127,-0L0.127,-0.072Z" style="fill:rgb(0,122,229);fill-rule:nonzero;"/>
        </g>
        <g transform="matrix(48,0,0,48,14383.1,1796.71)">
            <rect x="0.088" y="-0.325" width="0.424" height="0.074" style="fill:rgb(0,122,229);fill-rule:nonzero;"/>
        </g>
        <g transform="matrix(48,0,0,48,14325.5,1868.71)">
            <path d="M0.055,-0.35C0.055,-0.407 0.06,-0.458 0.07,-0.503C0.08,-0.548 0.095,-0.586 0.115,-0.617C0.135,-0.648 0.16,-0.671 0.191,-0.688C0.222,-0.704 0.258,-0.712 0.3,-0.712C0.345,-0.712 0.383,-0.704 0.414,-0.688C0.445,-0.672 0.47,-0.649 0.489,-0.618C0.508,-0.587 0.522,-0.55 0.531,-0.505C0.54,-0.46 0.544,-0.408 0.544,-0.35C0.544,-0.293 0.539,-0.243 0.529,-0.198C0.519,-0.153 0.504,-0.115 0.484,-0.084C0.464,-0.053 0.439,-0.029 0.408,-0.013C0.377,0.004 0.341,0.012 0.299,0.012C0.255,0.012 0.218,0.003 0.187,-0.015C0.156,-0.032 0.13,-0.057 0.111,-0.089C0.091,-0.121 0.077,-0.159 0.068,-0.204C0.059,-0.248 0.055,-0.297 0.055,-0.35ZM0.462,-0.35C0.462,-0.385 0.46,-0.419 0.456,-0.451L0.159,-0.18C0.17,-0.142 0.187,-0.112 0.21,-0.089C0.233,-0.066 0.262,-0.055 0.299,-0.055C0.358,-0.055 0.4,-0.079 0.425,-0.128C0.45,-0.177 0.462,-0.251 0.462,-0.35ZM0.138,-0.35C0.138,-0.333 0.139,-0.317 0.14,-0.302C0.141,-0.287 0.142,-0.272 0.143,-0.257L0.441,-0.527C0.43,-0.563 0.413,-0.592 0.391,-0.613C0.368,-0.634 0.338,-0.645 0.3,-0.645C0.241,-0.645 0.199,-0.62 0.175,-0.572C0.15,-0.523 0.138,-0.449 0.138,-0.35Z" style="fill:rgb(0,122,229);fill-rule:nonzero;"/>
        </g>
        <g transform="matrix(48,0,0,48,14383.1,1868.71)">
            <rect x="0.088" y="-0.325" width="0.424" height="0.074" style="fill:rgb(0,122,229);fill-rule:nonzero;"/>
        </g>
    </g>
    <g transform="matrix(1.20707,0,0,1.20707,-15865.7,-1293.06)">
        <g transform="matrix(48,0,0,48,14325.5,1796.71)">
            <path d="M0.127,-0.072L0.284,-0.072L0.284,-0.598L0.124,-0.486L0.085,-0.543L0.305,-0.7L0.361,-0.7L0.361,-0.072L0.515,-0.072L0.515,-0L0.127,-0L0.127,-0.072Z" style="fill:rgb(0,122,229);fill-rule:nonzero;"/>
        </g>
        <g transform="matrix(48,0,0,48,14383.1,1796.71)">
            <rect x="0.088" y="-0.325" width="0.424" height="0.074" style="fill:rgb(0,122,229);fill-rule:nonzero;"/>
        </g>
        <g transform="matrix(48,0,0,48,14325.5,1868.71)">
            <path d="M0.055,-0.35C0.055,-0.407 0.06,-0.458 0.07,-0.503C0.08,-0.548 0.095,-0.586 0.115,-0.617C0.135,-0.648 0.16,-0.671 0.191,-0.688C0.222,-0.704 0.258,-0.712 0.3,-0.712C0.345,-0.712 0.383,-0.704 0.414,-0.688C0.445,-0.672 0.47,-0.649 0.489,-0.618C0.508,-0.587 0.522,-0.55 0.531,-0.505C0.54,-0.46 0.544,-0.408 0.544,-0.35C0.544,-0.293 0.539,-0.243 0.529,-0.198C0.519,-0.153 0.504,-0.115 0.484,-0.084C0.464,-0.053 0.439,-0.029 0.408,-0.013C0.377,0.004 0.341,0.012 0.299,0.012C0.255,0.012 0.218,0.003 0.187,-0.015C0.156,-0.032 0.13,-0.057 0.111,-0.089C0.091,-0.121 0.077,-0.159 0.068,-0.204C0.059,-0.248 0.055,-0.297 0.055,-0.35ZM0.462,-0.35C0.462,-0.385 0.46,-0.419 0.456,-0.451L0.159,-0.18C0.17,-0.142 0.187,-0.112 0.21,-0.089C0.233,-0.066 0.262,-0.055 0.299,-0.055C0.358,-0.055 0.4,-0.079 0.425,-0.128C0.45,-0.177 0.462,-0.251 0.462,-0.35ZM0.138,-0.35C0.138,-0.333 0.139,-0.317 0.14,-0.302C0.141,-0.287 0.142,-0.272 0.143,-0.257L0.441,-0.527C0.43,-0.563 0.413,-0.592 0.391,-0.613C0.368,-0.634 0.338,-0.645 0.3,-0.645C0.241,-0.645 0.199,-0.62 0.175,-0.572C0.15,-0.523 0.138,-0.449 0.138,-0.35Z" style="fill:rgb(0,122,229);fill-rule:nonzero;"/>
        </g>
        <g transform="matrix(48,0,0,48,14383.1,1868.71)">
            <rect x="0.088" y="-0.325" width="0.424" height="0.074" style="fill:rgb(0,122,229);fill-rule:nonzero;"/>
        </g>
    </g>
    <g transform="matrix(1.20707,0,0,1.20707,-15431.6,-1293.06)">
        <g transform="matrix(48,0,0,48,14325.5,1796.71)">
            <path d="M0.127,-0.072L0.284,-0.072L0.284,-0.598L0.124,-0.486L0.085,-0.543L0.305,-0.7L0.361,-0.7L0.361,-0.072L0.515,-0.072L0.515,-0L0.127,-0L0.127,-0.072Z" style="fill:rgb(0,122,229);fill-rule:nonzero;"/>
        </g>
        <g transform="matrix(48,0,0,48,14383.1,1796.71)">
            <rect x="0.088" y="-0.325" width="0.424" height="0.074" style="fill:rgb(0,122,229);fill-rule:nonzero;"/>
        </g>
        <g transform="matrix(48,0,0,48,14325.5,1868.71)">
            <path d="M0.055,-0.35C0.055,-0.407 0.06,-0.458 0.07,-0.503C0.08,-0.548 0.095,-0.586 0.115,-0.617C0.135,-0.648 0.16,-0.671 0.191,-0.688C0.222,-0.704 0.258,-0.712 0.3,-0.712C0.345,-0.712 0.383,-0.704 0.414,-0.688C0.445,-0.672 0.47,-0.649 0.489,-0.618C0.508,-0.587 0.522,-0.55 0.531,-0.505C0.54,-0.46 0.544,-0.408 0.544,-0.35C0.544,-0.293 0.539,-0.243 0.529,-0.198C0.519,-0.153 0.504,-0.115 0.484,-0.084C0.464,-0.053 0.439,-0.029 0.408,-0.013C0.377,0.004 0.341,0.012 0.299,0.012C0.255,0.012 0.218,0.003 0.187,-0.015C0.156,-0.032 0.13,-0.057 0.111,-0.089C0.091,-0.121 0.077,-0.159 0.068,-0.204C0.059,-0.248 0.055,-0.297 0.055,-0.35ZM0.462,-0.35C0.462,-0.385 0.46,-0.419 0.456,-0.451L0.159,-0.18C0.17,-0.142 0.187,-0.112 0.21,-0.089C0.233,-0.066 0.262,-0.055 0.299,-0.055C0.358,-0.055 0.4,-0.079 0.425,-0.128C0.45,-0.177 0.462,-0.251 0.462,-0.35ZM0.138,-0.35C0.138,-0.333 0.139,-0.317 0.14,-0.302C0.141,-0.287 0.142,-0.272 0.143,-0.257L0.441,-0.527C0.43,-0.563 0.413,-0.592 0.391,-0.613C0.368,-0.634 0.338,-0.645 0.3,-0.645C0.241,-0.645 0.199,-0.62 0.175,-0.572C0.15,-0.523 0.138,-0.449 0.138,-0.35Z" style="fill:rgb(0,122,229);fill-rule:nonzero;"/>
        </g>
        <g transform="matrix(48,0,0,48,14383.1,1868.71)">
            <rect x="0.088" y="-0.325" width="0.424" height="0.074" style="fill:rgb(0,122,229);fill-rule:nonzero;"/>
        </g>
    </g>
    <g transform="matrix(1.20707,0,0,1.20707,-16726.4,-1812.46)">
        <g transform="matrix(48,0,0,48,14325.5,1796.71)">
            <path d="M0.038,-0.351C0.038,-0.412 0.044,-0.465 0.057,-0.511C0.07,-0.556 0.088,-0.594 0.111,-0.624C0.133,-0.654 0.161,-0.677 0.193,-0.692C0.225,-0.707 0.261,-0.714 0.3,-0.714C0.384,-0.714 0.449,-0.685 0.494,-0.626C0.539,-0.567 0.562,-0.475 0.562,-0.351C0.562,-0.29 0.556,-0.236 0.543,-0.191C0.53,-0.145 0.513,-0.107 0.49,-0.077C0.466,-0.046 0.439,-0.024 0.407,-0.009C0.374,0.007 0.338,0.014 0.299,0.014C0.214,0.014 0.15,-0.017 0.105,-0.08C0.06,-0.142 0.038,-0.232 0.038,-0.351ZM0.434,-0.351C0.434,-0.362 0.434,-0.372 0.434,-0.382C0.433,-0.391 0.433,-0.401 0.432,-0.41L0.187,-0.187C0.208,-0.126 0.245,-0.096 0.3,-0.096C0.343,-0.096 0.376,-0.116 0.399,-0.157C0.422,-0.198 0.434,-0.262 0.434,-0.351ZM0.166,-0.351C0.166,-0.341 0.166,-0.332 0.167,-0.323C0.167,-0.314 0.167,-0.304 0.168,-0.295L0.412,-0.518C0.392,-0.575 0.354,-0.604 0.299,-0.604C0.256,-0.604 0.224,-0.584 0.201,-0.543C0.178,-0.501 0.166,-0.438 0.166,-0.351Z" style="fill-rule:nonzero;"/>
        </g>
        <g transform="matrix(48,0,0,48,14383.1,1796.71)">
            <rect x="0.088" y="-0.325" width="0.424" height="0.074" style="fill-rule:nonzero;"/>
        </g>
        <g transform="matrix(48,0,0,48,14325.5,1868.71)">
            <rect x="0.088" y="-0.325" width="0.424" height="0.074" style="fill-rule:nonzero;"/>
        </g>
        <g transform="matrix(48,0,0,48,14383.1,1868.71)">
            <rect x="0.088" y="-0.325" width="0.424" height="0.074" style="fill-rule:nonzero;"/>
        </g>
    </g>
    <g transform="matrix(1.20707,0,0,1.20707,-16302.9,-1812.46)">
        <g transform="matrix(48,0,0,48,14325.5,1796.71)">
            <path d="M0.106,-0.11L0.259,-0.11L0.259,-0.547L0.127,-0.446L0.067,-0.526L0.295,-0.7L0.383,-0.7L0.383,-0.11L0.533,-0.11L0.533,-0L0.106,-0L0.106,-0.11Z" style="fill-rule:nonzero;"/>
        </g>
        <g transform="matrix(48,0,0,48,14383.1,1796.71)">
            <rect x="0.088" y="-0.325" width="0.424" height="0.074" style="fill-rule:nonzero;"/>
        </g>
        <g transform="matrix(48,0,0,48,14325.5,1868.71)">
            <rect x="0.088" y="-0.325" width="0.424" height="0.074" style="fill-rule:nonzero;"/>
        </g>
        <g transform="matrix(48,0,0,48,14383.1,1868.71)">
            <rect x="0.088" y="-0.325" width="0.424" height="0.074" style="fill-rule:nonzero;"/>
        </g>
    </g>
    <g transform="matrix(1.20707,0,0,1.20707,-15857.8,-1812.46)">
        <g transform="matrix(48,0,0,48,14325.5,1796.71)">
            <rect x="0.088" y="-0.325" width="0.424" height="0.074" style="fill:rgb(242,0,0);fill-rule:nonzero;"/>
        </g>
        <g transform="matrix(48,0,0,48,14383.1,1796.71)">
            <rect x="0.088" y="-0.325" width="0.424" height="0.074" style="fill:rgb(242,0,0);fill-rule:nonzero;"/>
        </g>
        <g transform="matrix(48,0,0,48,14325.5,1868.71)">
            <path d="M0.055,-0.35C0.055,-0.407 0.06,-0.458 0.07,-0.503C0.08,-0.548 0.095,-0.586 0.115,-0.617C0.135,-0.648 0.16,-0.671 0.191,-0.688C0.222,-0.704 0.258,-0.712 0.3,-0.712C0.345,-0.712 0.383,-0.704 0.414,-0.688C0.445,-0.672 0.47,-0.649 0.489,-0.618C0.508,-0.587 0.522,-0.55 0.531,-0.505C0.54,-0.46 0.544,-0.408 0.544,-0.35C0.544,-0.293 0.539,-0.243 0.529,-0.198C0.519,-0.153 0.504,-0.115 0.484,-0.084C0.464,-0.053 0.439,-0.029 0.408,-0.013C0.377,0.004 0.341,0.012 0.299,0.012C0.255,0.012 0.218,0.003 0.187,-0.015C0.156,-0.032 0.13,-0.057 0.111,-0.089C0.091,-0.121 0.077,-0.159 0.068,-0.204C0.059,-0.248 0.055,-0.297 0.055,-0.35ZM0.462,-0.35C0.462,-0.385 0.46,-0.419 0.456,-0.451L0.159,-0.18C0.17,-0.142 0.187,-0.112 0.21,-0.089C0.233,-0.066 0.262,-0.055 0.299,-0.055C0.358,-0.055 0.4,-0.079 0.425,-0.128C0.45,-0.177 0.462,-0.251 0.462,-0.35ZM0.138,-0.35C0.138,-0.333 0.139,-0.317 0.14,-0.302C0.141,-0.287 0.142,-0.272 0.143,-0.257L0.441,-0.527C0.43,-0.563 0.413,-0.592 0.391,-0.613C0.368,-0.634 0.338,-0.645 0.3,-0.645C0.241,-0.645 0.199,-0.62 0.175,-0.572C0.15,-0.523 0.138,-0.449 0.138,-0.35Z" style="fill:rgb(242,0,0);fill-rule:nonzero;"/>
        </g>
        <g transform="matrix(48,0,0,48,14383.1,1868.71)">
            <rect x="0.088" y="-0.325" width="0.424" height="0.074" style="fill:rgb(242,0,0);fill-rule:nonzero;"/>
        </g>
    </g>
    <g transform="matrix(1.20707,0,0,1.20707,-15428.5,-1812.46)">
        <g transform="matrix(48,0,0,48,14325.5,1796.71)">
            <rect x="0.088" y="-0.325" width="0.424" height="0.074" style="fill:rgb(242,0,0);fill-rule:nonzero;"/>
        </g>
        <g transform="matrix(48,0,0,48,14383.1,1796.71)">
            <rect x="0.088" y="-0.325" width="0.424" height="0.074" style="fill:rgb(242,0,0);fill-rule:nonzero;"/>
        </g>
        <g transform="matrix(48,0,0,48,14325.5,1868.71)">
            <path d="M0.055,-0.35C0.055,-0.407 0.06,-0.458 0.07,-0.503C0.08,-0.548 0.095,-0.586 0.115,-0.617C0.135,-0.648 0.16,-0.671 0.191,-0.688C0.222,-0.704 0.258,-0.712 0.3,-0.712C0.345,-0.712 0.383,-0.704 0.414,-0.688C0.445,-0.672 0.47,-0.649 0.489,-0.618C0.508,-0.587 0.522,-0.55 0.531,-0.505C0.54,-0.46 0.544,-0.408 0.544,-0.35C0.544,-0.293 0.539,-0.243 0.529,-0.198C0.519,-0.153 0.504,-0.115 0.484,-0.084C0.464,-0.053 0.439,-0.029 0.408,-0.013C0.377,0.004 0.341,0.012 0.299,0.012C0.255,0.012 0.218,0.003 0.187,-0.015C0.156,-0.032 0.13,-0.057 0.111,-0.089C0.091,-0.121 0.077,-0.159 0.068,-0.204C0.059,-0.248 0.055,-0.297 0.055,-0.35ZM0.462,-0.35C0.462,-0.385 0.46,-0.419 0.456,-0.451L0.159,-0.18C0.17,-0.142 0.187,-0.112 0.21,-0.089C0.233,-0.066 0.262,-0.055 0.299,-0.055C0.358,-0.055 0.4,-0.079 0.425,-0.128C0.45,-0.177 0.462,-0.251 0.462,-0.35ZM0.138,-0.35C0.138,-0.333 0.139,-0.317 0.14,-0.302C0.141,-0.287 0.142,-0.272 0.143,-0.257L0.441,-0.527C0.43,-0.563 0.413,-0.592 0.391,-0.613C0.368,-0.634 0.338,-0.645 0.3,-0.645C0.241,-0.645 0.199,-0.62 0.175,-0.572C0.15,-0.523 0.138,-0.449 0.138,-0.35Z" style="fill:rgb(242,0,0);fill-rule:nonzero;"/>
        </g>
        <g transform="matrix(48,0,0,48,14383.1,1868.71)">
            <rect x="0.088" y="-0.325" width="0.424" height="0.074" style="fill:rgb(242,0,0);fill-rule:nonzero;"/>
        </g>
    </g>
    <path d="M184.374,67.209L184.374,58.733L171.503,58.733L171.503,55.686L184.374,36.897L188.026,36.897L188.026,55.686L193.632,55.686L193.632,58.733L188.026,58.733L188.026,67.209L184.374,67.209ZM184.374,55.686L184.374,42.405L175.37,55.686L184.374,55.686Z" style="fill:rgb(128,128,128);fill-rule:nonzero;"/>
    <path d="M212.85,51.116C211.913,52.509 210.751,53.645 209.364,54.524C207.977,55.403 206.451,55.842 204.784,55.842C203.208,55.842 201.714,55.461 200.302,54.7C198.889,53.938 197.811,52.867 197.069,51.487C196.327,50.106 195.956,48.505 195.956,46.682C195.956,43.817 196.877,41.321 198.72,39.192C200.562,37.063 202.987,35.998 205.995,35.998C209.537,35.998 212.183,37.48 213.934,40.442C215.686,43.404 216.561,47.17 216.561,51.741C216.561,56.793 215.448,60.787 213.221,63.723C210.995,66.659 207.981,68.127 204.178,68.127C202.134,68.127 200.149,67.821 198.221,67.209L198.221,63.557C200.383,64.573 202.421,65.08 204.335,65.08C207.043,65.08 209.139,63.837 210.624,61.35C212.108,58.863 212.85,55.712 212.85,51.897L212.85,51.116ZM205.721,39.026C204.745,39.026 203.762,39.315 202.772,39.895C201.783,40.474 201.005,41.363 200.438,42.561C199.872,43.759 199.589,45.074 199.589,46.506C199.589,48.342 200.067,49.853 201.024,51.037C201.981,52.222 203.345,52.815 205.116,52.815C206.952,52.815 208.459,52.128 209.637,50.754C210.816,49.381 211.405,47.717 211.405,45.764C211.405,43.785 210.829,42.167 209.677,40.911C208.524,39.654 207.206,39.026 205.721,39.026Z" style="fill:rgb(128,128,128);fill-rule:nonzero;"/>
    <path d="M174.237,543.459L174.237,528.908L191.21,528.908L191.21,532.404L177.87,532.404L177.87,539.826L178.495,539.826C182.857,539.826 186.216,540.738 188.573,542.561C190.93,544.384 192.108,546.838 192.108,549.924C192.108,551.877 191.633,553.628 190.682,555.178C189.732,556.727 188.391,557.942 186.659,558.821C184.927,559.699 183.085,560.139 181.132,560.139C179.178,560.139 176.678,559.664 173.632,558.713L173.632,554.748C174.738,555.347 175.975,555.839 177.343,556.223C178.71,556.607 179.973,556.799 181.132,556.799C182.29,556.799 183.423,556.519 184.53,555.959C185.637,555.399 186.496,554.582 187.108,553.508C187.72,552.434 188.026,551.337 188.026,550.217C188.026,548.329 187.19,546.731 185.516,545.422C183.843,544.113 180.871,543.459 176.6,543.459L174.237,543.459Z" style="fill:rgb(128,128,128);fill-rule:nonzero;"/>
    <path d="M208.378,559.221L208.378,550.744L195.507,550.744L195.507,547.697L208.378,528.908L212.03,528.908L212.03,547.697L217.636,547.697L217.636,550.744L212.03,550.744L212.03,559.221L208.378,559.221ZM208.378,547.697L208.378,534.416L199.374,547.697L208.378,547.697Z" style="fill:rgb(128,128,128);fill-rule:nonzero;"/>
    <path d="M604.402,51.448L604.402,36.897L621.375,36.897L621.375,40.393L608.035,40.393L608.035,47.815L608.66,47.815C613.022,47.815 616.381,48.726 618.738,50.549C621.095,52.372 622.273,54.827 622.273,57.912C622.273,59.866 621.798,61.617 620.847,63.166C619.897,64.716 618.556,65.93 616.824,66.809C615.092,67.688 613.25,68.127 611.297,68.127C609.344,68.127 606.844,67.652 603.797,66.702L603.797,62.737C604.903,63.336 606.14,63.827 607.508,64.211C608.875,64.595 610.138,64.787 611.297,64.787C612.455,64.787 613.588,64.508 614.695,63.948C615.802,63.388 616.661,62.571 617.273,61.496C617.885,60.422 618.191,59.325 618.191,58.205C618.191,56.317 617.355,54.719 615.681,53.411C614.008,52.102 611.036,51.448 606.765,51.448L604.402,51.448Z" style="fill:rgb(128,128,128);fill-rule:nonzero;"/>
    <path d="M636.726,35.998C640.177,35.998 642.807,37.447 644.617,40.344C646.427,43.241 647.332,47.144 647.332,52.053C647.332,56.975 646.427,60.884 644.617,63.782C642.807,66.679 640.177,68.127 636.726,68.127C633.289,68.127 630.662,66.679 628.845,63.782C627.029,60.884 626.121,56.975 626.121,52.053C626.121,47.144 627.029,43.241 628.845,40.344C630.662,37.447 633.289,35.998 636.726,35.998ZM630.808,58.537L641.297,42.112C640.633,40.901 639.913,40.084 639.138,39.661C638.364,39.237 637.56,39.026 636.726,39.026C634.552,39.026 632.898,40.233 631.765,42.649C630.633,45.064 630.066,48.127 630.066,51.838C630.066,52.685 630.092,53.596 630.144,54.573C630.196,55.549 630.418,56.871 630.808,58.537ZM642.605,45.725L632.195,62.248C632.755,63.199 633.4,63.912 634.129,64.387C634.858,64.862 635.672,65.1 636.57,65.1C639.044,65.1 640.802,63.717 641.844,60.95C642.885,58.183 643.406,55.113 643.406,51.741C643.406,49.657 643.139,47.652 642.605,45.725Z" style="fill:rgb(128,128,128);fill-rule:nonzero;"/>
    <path d="M604.402,543.459L604.402,528.908L621.375,528.908L621.375,532.404L608.035,532.404L608.035,539.826L608.66,539.826C613.022,539.826 616.381,540.738 618.738,542.561C621.095,544.384 622.273,546.838 622.273,549.924C622.273,551.877 621.798,553.628 620.847,555.178C619.897,556.727 618.556,557.942 616.824,558.821C615.092,559.699 613.25,560.139 611.297,560.139C609.344,560.139 606.844,559.664 603.797,558.713L603.797,554.748C604.903,555.347 606.14,555.839 607.508,556.223C608.875,556.607 610.138,556.799 611.297,556.799C612.455,556.799 613.588,556.519 614.695,555.959C615.802,555.399 616.661,554.582 617.273,553.508C617.885,552.434 618.191,551.337 618.191,550.217C618.191,548.329 617.355,546.731 615.681,545.422C614.008,544.113 611.036,543.459 606.765,543.459L604.402,543.459Z" style="fill:rgb(128,128,128);fill-rule:nonzero;"/>
    <path d="M628.406,543.459L628.406,528.908L645.379,528.908L645.379,532.404L632.039,532.404L632.039,539.826L632.664,539.826C637.026,539.826 640.385,540.738 642.742,542.561C645.099,544.384 646.277,546.838 646.277,549.924C646.277,551.877 645.802,553.628 644.851,555.178C643.901,556.727 642.56,557.942 640.828,558.821C639.096,559.699 637.254,560.139 635.301,560.139C633.347,560.139 630.847,559.664 627.801,558.713L627.801,554.748C628.907,555.347 630.144,555.839 631.511,556.223C632.879,556.607 634.142,556.799 635.301,556.799C636.459,556.799 637.592,556.519 638.699,555.959C639.806,555.399 640.665,554.582 641.277,553.508C641.889,552.434 642.195,551.337 642.195,550.217C642.195,548.329 641.358,546.731 639.685,545.422C638.012,544.113 635.04,543.459 630.769,543.459L628.406,543.459Z" style="fill:rgb(128,128,128);fill-rule:nonzero;"/>
    <path d="M1018.1,51.448L1018.1,36.897L1035.07,36.897L1035.07,40.393L1021.73,40.393L1021.73,47.815L1022.36,47.815C1026.72,47.815 1030.08,48.726 1032.43,50.549C1034.79,52.372 1035.97,54.827 1035.97,57.912C1035.97,59.866 1035.5,61.617 1034.54,63.166C1033.59,64.716 1032.25,65.93 1030.52,66.809C1028.79,67.688 1026.95,68.127 1024.99,68.127C1023.04,68.127 1020.54,67.652 1017.49,66.702L1017.49,62.737C1018.6,63.336 1019.84,63.827 1021.2,64.211C1022.57,64.595 1023.84,64.787 1024.99,64.787C1026.15,64.787 1027.29,64.508 1028.39,63.948C1029.5,63.388 1030.36,62.571 1030.97,61.496C1031.58,60.422 1031.89,59.325 1031.89,58.205C1031.89,56.317 1031.05,54.719 1029.38,53.411C1027.7,52.102 1024.73,51.448 1020.46,51.448L1018.1,51.448Z" style="fill:rgb(128,128,128);fill-rule:nonzero;"/>
    <path d="M1049.53,64.182L1049.53,40.784C1048.43,41.656 1047.37,42.398 1046.34,43.01C1045.31,43.622 1043.9,44.247 1042.1,44.885L1042.1,41.604C1044.95,40.393 1047.43,38.824 1049.53,36.897L1053.16,36.897L1053.16,64.182L1060.44,64.182L1060.44,67.209L1042.1,67.209L1042.1,64.182L1049.53,64.182Z" style="fill:rgb(128,128,128);fill-rule:nonzero;"/>
    <path d="M1018.1,543.459L1018.1,528.908L1035.07,528.908L1035.07,532.404L1021.73,532.404L1021.73,539.826L1022.36,539.826C1026.72,539.826 1030.08,540.738 1032.43,542.561C1034.79,544.384 1035.97,546.838 1035.97,549.924C1035.97,551.877 1035.5,553.628 1034.54,555.178C1033.59,556.727 1032.25,557.942 1030.52,558.821C1028.79,559.699 1026.95,560.139 1024.99,560.139C1023.04,560.139 1020.54,559.664 1017.49,558.713L1017.49,554.748C1018.6,555.347 1019.84,555.839 1021.2,556.223C1022.57,556.607 1023.84,556.799 1024.99,556.799C1026.15,556.799 1027.29,556.519 1028.39,555.959C1029.5,555.399 1030.36,554.582 1030.97,553.508C1031.58,552.434 1031.89,551.337 1031.89,550.217C1031.89,548.329 1031.05,546.731 1029.38,545.422C1027.7,544.113 1024.73,543.459 1020.46,543.459L1018.1,543.459Z" style="fill:rgb(128,128,128);fill-rule:nonzero;"/>
    <path d="M1044.13,545.002C1045.07,543.609 1046.23,542.473 1047.62,541.594C1049.01,540.715 1050.53,540.276 1052.2,540.276C1053.78,540.276 1055.27,540.66 1056.68,541.428C1058.1,542.196 1059.17,543.267 1059.91,544.641C1060.66,546.015 1061.03,547.613 1061.03,549.436C1061.03,552.313 1060.11,554.817 1058.27,556.946C1056.42,559.074 1054,560.139 1050.99,560.139C1047.45,560.139 1044.8,558.658 1043.05,555.696C1041.3,552.733 1040.42,548.967 1040.42,544.397C1040.42,539.345 1041.54,535.35 1043.76,532.414C1045.99,529.478 1049,528.01 1052.81,528.01C1054.85,528.01 1056.84,528.309 1058.76,528.908L1058.76,532.58C1056.6,531.552 1054.56,531.037 1052.65,531.037C1049.94,531.037 1047.85,532.281 1046.36,534.768C1044.88,537.255 1044.13,540.406 1044.13,544.221L1044.13,545.002ZM1051.26,557.112C1052.24,557.112 1053.22,556.822 1054.21,556.242C1055.2,555.663 1055.98,554.771 1056.55,553.567C1057.11,552.362 1057.4,551.05 1057.4,549.631C1057.4,547.782 1056.92,546.265 1055.96,545.08C1055,543.895 1053.64,543.303 1051.87,543.303C1050.03,543.303 1048.53,543.99 1047.35,545.363C1046.17,546.737 1045.58,548.407 1045.58,550.373C1045.58,552.352 1046.16,553.97 1047.31,555.227C1048.46,556.483 1049.78,557.112 1051.26,557.112Z" style="fill:rgb(128,128,128);fill-rule:nonzero;"/>
    <path d="M1450.19,51.448L1450.19,36.897L1467.16,36.897L1467.16,40.393L1453.82,40.393L1453.82,47.815L1454.45,47.815C1458.81,47.815 1462.17,48.726 1464.52,50.549C1466.88,52.372 1468.06,54.827 1468.06,57.912C1468.06,59.866 1467.58,61.617 1466.63,63.166C1465.68,64.716 1464.34,65.93 1462.61,66.809C1460.88,67.688 1459.04,68.127 1457.08,68.127C1455.13,68.127 1452.63,67.652 1449.58,66.702L1449.58,62.737C1450.69,63.336 1451.93,63.827 1453.29,64.211C1454.66,64.595 1455.92,64.787 1457.08,64.787C1458.24,64.787 1459.38,64.508 1460.48,63.948C1461.59,63.388 1462.45,62.571 1463.06,61.496C1463.67,60.422 1463.98,59.325 1463.98,58.205C1463.98,56.317 1463.14,54.719 1461.47,53.411C1459.8,52.102 1456.82,51.448 1452.55,51.448L1450.19,51.448Z" style="fill:rgb(128,128,128);fill-rule:nonzero;"/>
    <path d="M1491.77,67.209L1473.43,67.209L1473.43,63.87C1473.43,63.01 1473.61,62.089 1473.96,61.106C1474.31,60.123 1474.98,59.019 1475.97,57.795C1476.96,56.571 1478.01,55.393 1479.11,54.26L1481.18,52.151C1481.6,51.721 1482.51,50.725 1483.92,49.162C1485.33,47.6 1486.25,46.402 1486.7,45.569C1487.15,44.735 1487.38,43.915 1487.38,43.108C1487.38,41.806 1486.86,40.8 1485.81,40.09C1484.77,39.381 1483.6,39.026 1482.3,39.026C1481.56,39.026 1480.73,39.11 1479.81,39.28C1478.89,39.449 1478.09,39.648 1477.39,39.875C1476.7,40.103 1475.59,40.569 1474.04,41.272L1474.04,38.049C1475.68,37.268 1477.32,36.731 1478.97,36.438C1480.62,36.145 1481.97,35.998 1483.04,35.998C1484.62,35.998 1486.06,36.256 1487.39,36.77C1488.71,37.284 1489.69,38.082 1490.34,39.162C1490.98,40.243 1491.3,41.396 1491.3,42.62C1491.3,43.987 1490.89,45.386 1490.06,46.819C1489.24,48.251 1487.67,50.093 1485.38,52.346L1483.16,54.553L1481.28,56.389C1480.1,57.587 1479.14,58.746 1478.41,59.866C1477.68,60.985 1477.28,62.32 1477.2,63.87L1491.77,63.87L1491.77,67.209Z" style="fill:rgb(128,128,128);fill-rule:nonzero;"/>
    <path d="M1450.19,543.459L1450.19,528.908L1467.16,528.908L1467.16,532.404L1453.82,532.404L1453.82,539.826L1454.45,539.826C1458.81,539.826 1462.17,540.738 1464.52,542.561C1466.88,544.384 1468.06,546.838 1468.06,549.924C1468.06,551.877 1467.58,553.628 1466.63,555.178C1465.68,556.727 1464.34,557.942 1462.61,558.821C1460.88,559.699 1459.04,560.139 1457.08,560.139C1455.13,560.139 1452.63,559.664 1449.58,558.713L1449.58,554.748C1450.69,555.347 1451.93,555.839 1453.29,556.223C1454.66,556.607 1455.92,556.799 1457.08,556.799C1458.24,556.799 1459.38,556.519 1460.48,555.959C1461.59,555.399 1462.45,554.582 1463.06,553.508C1463.67,552.434 1463.98,551.337 1463.98,550.217C1463.98,548.329 1463.14,546.731 1461.47,545.422C1459.8,544.113 1456.82,543.459 1452.55,543.459L1450.19,543.459Z" style="fill:rgb(128,128,128);fill-rule:nonzero;"/>
    <path d="M1476.75,559.221L1476.75,556.506C1476.75,554.384 1476.99,552.6 1477.47,551.154C1477.95,549.709 1478.8,548.101 1480.01,546.33C1481.22,544.559 1482.19,543.192 1482.92,542.229L1486.09,538.049L1487.22,536.584C1488.08,535.425 1488.82,534.084 1489.45,532.561L1473.72,532.561L1473.72,528.908L1492.96,528.908L1492.96,531.33C1492.96,532.294 1492.77,533.186 1492.39,534.006C1492,534.826 1490.84,536.578 1488.9,539.26C1488.43,539.898 1487.97,540.536 1487.51,541.174L1485.48,544.026C1484.18,545.862 1483.22,547.326 1482.59,548.42C1481.97,549.514 1481.49,550.653 1481.17,551.838C1480.86,553.023 1480.7,554.579 1480.7,556.506L1480.7,559.221L1476.75,559.221Z" style="fill:rgb(128,128,128);fill-rule:nonzero;"/>
    <path d="M1875.89,51.448L1875.89,36.897L1892.86,36.897L1892.86,40.393L1879.52,40.393L1879.52,47.815L1880.15,47.815C1884.51,47.815 1887.87,48.726 1890.23,50.549C1892.58,52.372 1893.76,54.827 1893.76,57.912C1893.76,59.866 1893.29,61.617 1892.34,63.166C1891.39,64.716 1890.05,65.93 1888.31,66.809C1886.58,67.688 1884.74,68.127 1882.79,68.127C1880.83,68.127 1878.33,67.652 1875.29,66.702L1875.29,62.737C1876.39,63.336 1877.63,63.827 1879,64.211C1880.36,64.595 1881.63,64.787 1882.79,64.787C1883.94,64.787 1885.08,64.508 1886.18,63.948C1887.29,63.388 1888.15,62.571 1888.76,61.496C1889.38,60.422 1889.68,59.325 1889.68,58.205C1889.68,56.317 1888.84,54.719 1887.17,53.411C1885.5,52.102 1882.53,51.448 1878.26,51.448L1875.89,51.448Z" style="fill:rgb(128,128,128);fill-rule:nonzero;"/>
    <path d="M1899.06,66.662L1899.06,62.834C1902.04,64.345 1904.62,65.1 1906.81,65.1C1908.82,65.1 1910.47,64.491 1911.78,63.274C1913.09,62.056 1913.74,60.491 1913.74,58.577C1913.74,56.649 1913.02,55.08 1911.59,53.87C1910.15,52.659 1907.7,52.053 1904.25,52.053L1902.24,52.053L1902.24,49.026L1905.03,49.026C1907.57,49.026 1909.41,48.456 1910.54,47.317C1911.67,46.177 1912.24,44.911 1912.24,43.518C1912.24,42.255 1911.78,41.19 1910.85,40.325C1909.93,39.459 1908.51,39.026 1906.6,39.026C1904.45,39.026 1902.13,39.631 1899.66,40.842L1899.66,37.385C1902.13,36.461 1904.4,35.998 1906.46,35.998C1910.14,35.998 1912.68,36.724 1914.09,38.176C1915.49,39.628 1916.18,41.285 1916.18,43.147C1916.18,44.527 1915.81,45.823 1915.07,47.034C1914.33,48.245 1912.96,49.325 1910.97,50.276C1912.73,50.797 1914.06,51.435 1914.95,52.19C1915.85,52.945 1916.53,53.837 1917,54.866C1917.46,55.894 1917.69,57.047 1917.69,58.323C1917.69,61.161 1916.64,63.505 1914.53,65.354C1912.43,67.203 1909.71,68.127 1906.38,68.127C1905.42,68.127 1904.37,68.056 1903.23,67.912C1902.09,67.769 1900.7,67.353 1899.06,66.662Z" style="fill:rgb(128,128,128);fill-rule:nonzero;"/>
    <path d="M1875.89,543.459L1875.89,528.908L1892.86,528.908L1892.86,532.404L1879.52,532.404L1879.52,539.826L1880.15,539.826C1884.51,539.826 1887.87,540.738 1890.23,542.561C1892.58,544.384 1893.76,546.838 1893.76,549.924C1893.76,551.877 1893.29,553.628 1892.34,555.178C1891.39,556.727 1890.05,557.942 1888.31,558.821C1886.58,559.699 1884.74,560.139 1882.79,560.139C1880.83,560.139 1878.33,559.664 1875.29,558.713L1875.29,554.748C1876.39,555.347 1877.63,555.839 1879,556.223C1880.36,556.607 1881.63,556.799 1882.79,556.799C1883.94,556.799 1885.08,556.519 1886.18,555.959C1887.29,555.399 1888.15,554.582 1888.76,553.508C1889.38,552.434 1889.68,551.337 1889.68,550.217C1889.68,548.329 1888.84,546.731 1887.17,545.422C1885.5,544.113 1882.53,543.459 1878.26,543.459L1875.89,543.459Z" style="fill:rgb(128,128,128);fill-rule:nonzero;"/>
    <path d="M1905.19,542.873L1904.52,542.385C1903.6,541.734 1902.69,540.774 1901.81,539.504C1900.92,538.235 1900.48,536.838 1900.48,535.315C1900.48,533.296 1901.28,531.574 1902.86,530.149C1904.45,528.723 1906.47,528.01 1908.92,528.01C1910.42,528.01 1911.76,528.28 1912.96,528.821C1914.16,529.361 1915.08,530.158 1915.74,531.213C1916.39,532.268 1916.71,533.42 1916.71,534.67C1916.71,535.529 1916.56,536.36 1916.26,537.16C1915.96,537.961 1915.52,538.755 1914.92,539.543C1914.33,540.331 1913.16,541.441 1911.4,542.873L1913.04,544.182C1914.95,545.744 1916.24,547.092 1916.91,548.225C1917.57,549.358 1917.9,550.627 1917.9,552.033C1917.9,554.221 1917.11,556.119 1915.52,557.727C1913.93,559.335 1911.55,560.139 1908.37,560.139C1905.18,560.139 1902.79,559.387 1901.2,557.883C1899.62,556.379 1898.82,554.514 1898.82,552.287C1898.82,548.967 1900.94,545.829 1905.19,542.873ZM1908.92,541.018C1910.76,539.625 1911.9,538.459 1912.37,537.522C1912.83,536.584 1913.06,535.712 1913.06,534.904C1913.06,533.928 1912.63,533.039 1911.77,532.238C1910.91,531.438 1909.8,531.037 1908.45,531.037C1906.99,531.037 1905.88,531.474 1905.12,532.346C1904.36,533.218 1903.98,534.123 1903.98,535.061C1903.98,535.972 1904.3,536.832 1904.93,537.639C1905.57,538.446 1906.6,539.351 1908,540.354L1908.92,541.018ZM1907.92,544.807C1904.49,547.45 1902.77,549.924 1902.77,552.229C1902.77,553.596 1903.33,554.748 1904.47,555.686C1905.6,556.623 1906.94,557.092 1908.49,557.092C1909.91,557.092 1911.18,556.643 1912.3,555.744C1913.42,554.846 1913.98,553.726 1913.98,552.385C1913.98,551.07 1913.3,549.735 1911.94,548.381C1910.58,547.027 1909.63,546.141 1909.1,545.725L1907.92,544.807Z" style="fill:rgb(128,128,128);fill-rule:nonzero;"/>
</svg>
