<?xml version="1.0" encoding="UTF-8" standalone="no"?>
<!DOCTYPE svg PUBLIC "-//W3C//DTD SVG 1.1//EN" "http://www.w3.org/Graphics/SVG/1.1/DTD/svg11.dtd">
<svg width="100%" height="100%" viewBox="0 0 2065 1130" version="1.1" xmlns="http://www.w3.org/2000/svg" xmlns:xlink="http://www.w3.org/1999/xlink" xml:space="preserve" xmlns:serif="http://www.serif.com/" style="fill-rule:evenodd;clip-rule:evenodd;stroke-linecap:square;stroke-linejoin:round;stroke-miterlimit:10;">
    <rect id="Clementini-Line-Lines" serif:id="Clementini Line-Lines" x="-281.849" y="-2569" width="2683.8" height="4624" style="fill:none;"/>
    <path d="M1576.08,240.613L1277.12,240.613" style="fill:none;stroke:rgb(21,183,183);stroke-width:10px;"/>
    <path d="M1851.62,790.648L1552.66,790.648" style="fill:none;stroke:rgb(21,183,183);stroke-width:10px;"/>
    <path d="M1880.23,336.613L1799.53,240.613L1686.28,240.613" style="fill:none;stroke:rgb(21,183,183);stroke-width:10px;"/>
    <path d="M1157.14,243.613L1118,341.613L1053.14,341.613L972.435,245.613L859.178,245.613" style="fill:none;stroke:rgb(21,183,183);stroke-width:10px;"/>
    <path d="M1347.14,790.648L1308,888.648L1243.14,888.648L1162.43,792.648L1049.18,792.648" style="fill:none;stroke:rgb(21,183,183);stroke-width:10px;"/>
    <path d="M338.62,780.847L299.482,878.847L234.62,878.847L153.917,782.847" style="fill:none;stroke:rgb(21,183,183);stroke-width:10px;"/>
    <path d="M1577.08,230.613L1278.12,230.613" style="fill:none;stroke:rgb(247,0,255);stroke-width:10px;"/>
    <path d="M1976.62,780.648L1553.66,780.648" style="fill:none;stroke:rgb(247,0,255);stroke-width:10px;"/>
    <path d="M1985.23,230.613L1686.28,230.613" style="fill:none;stroke:rgb(247,0,255);stroke-width:10px;"/>
    <path d="M1158.14,235.613L859.178,235.613" style="fill:none;stroke:rgb(247,0,255);stroke-width:10px;"/>
    <path d="M1422.14,782.648L1049.18,782.648" style="fill:none;stroke:rgb(247,0,255);stroke-width:10px;"/>
    <path d="M339.62,777.847L40.66,777.847" style="fill:none;stroke:rgb(247,0,255);stroke-width:10px;"/>
    <path d="M81.956,257.059L286.87,202.152" style="fill:none;stroke:rgb(247,0,255);stroke-width:10px;"/>
    <path d="M554.331,831.959L818.245,761.244" style="fill:none;stroke:rgb(247,0,255);stroke-width:10px;"/>
    <path d="M512.324,257.059L717.239,202.152" style="fill:none;stroke:rgb(247,0,255);stroke-width:10px;"/>
    <path d="M81.956,257.059L123.48,333.595L184.413,318.152L184.413,124.152L235.506,110.152L286.87,200.985" style="fill:none;stroke:rgb(21,183,183);stroke-width:10px;"/>
    <path d="M554.331,831.959L595.855,908.495L656.788,893.053L656.788,699.053L707.881,685.053L759.245,775.885" style="fill:none;stroke:rgb(21,183,183);stroke-width:10px;"/>
    <path d="M512.324,257.059L553.848,333.595L614.781,318.152L614.781,124.152L665.874,110.152" style="fill:none;stroke:rgb(21,183,183);stroke-width:10px;"/>
    <g transform="matrix(1.20707,0,0,1.20707,-17199.1,-1711.72)">
        <g transform="matrix(48,0,0,48,14325.5,1796.71)">
            <path d="M0.055,-0.35C0.055,-0.407 0.06,-0.458 0.07,-0.503C0.08,-0.548 0.095,-0.586 0.115,-0.617C0.135,-0.648 0.16,-0.671 0.191,-0.688C0.222,-0.704 0.258,-0.712 0.3,-0.712C0.345,-0.712 0.383,-0.704 0.414,-0.688C0.445,-0.672 0.47,-0.649 0.489,-0.618C0.508,-0.587 0.522,-0.55 0.531,-0.505C0.54,-0.46 0.544,-0.408 0.544,-0.35C0.544,-0.293 0.539,-0.243 0.529,-0.198C0.519,-0.153 0.504,-0.115 0.484,-0.084C0.464,-0.053 0.439,-0.029 0.408,-0.013C0.377,0.004 0.341,0.012 0.299,0.012C0.255,0.012 0.218,0.003 0.187,-0.015C0.156,-0.032 0.13,-0.057 0.111,-0.089C0.091,-0.121 0.077,-0.159 0.068,-0.204C0.059,-0.248 0.055,-0.297 0.055,-0.35ZM0.462,-0.35C0.462,-0.385 0.46,-0.419 0.456,-0.451L0.159,-0.18C0.17,-0.142 0.187,-0.112 0.21,-0.089C0.233,-0.066 0.262,-0.055 0.299,-0.055C0.358,-0.055 0.4,-0.079 0.425,-0.128C0.45,-0.177 0.462,-0.251 0.462,-0.35ZM0.138,-0.35C0.138,-0.333 0.139,-0.317 0.14,-0.302C0.141,-0.287 0.142,-0.272 0.143,-0.257L0.441,-0.527C0.43,-0.563 0.413,-0.592 0.391,-0.613C0.368,-0.634 0.338,-0.645 0.3,-0.645C0.241,-0.645 0.199,-0.62 0.175,-0.572C0.15,-0.523 0.138,-0.449 0.138,-0.35Z" style="fill:rgb(242,0,0);fill-rule:nonzero;"/>
        </g>
        <g transform="matrix(48,0,0,48,14383.1,1796.71)">
            <rect x="0.088" y="-0.325" width="0.424" height="0.074" style="fill:rgb(242,0,0);fill-rule:nonzero;"/>
        </g>
        <g transform="matrix(48,0,0,48,14325.5,1868.71)">
            <rect x="0.088" y="-0.325" width="0.424" height="0.074" style="fill:rgb(242,0,0);fill-rule:nonzero;"/>
        </g>
        <g transform="matrix(48,0,0,48,14383.1,1868.71)">
            <path d="M0.055,-0.35C0.055,-0.407 0.06,-0.458 0.07,-0.503C0.08,-0.548 0.095,-0.586 0.115,-0.617C0.135,-0.648 0.16,-0.671 0.191,-0.688C0.222,-0.704 0.258,-0.712 0.3,-0.712C0.345,-0.712 0.383,-0.704 0.414,-0.688C0.445,-0.672 0.47,-0.649 0.489,-0.618C0.508,-0.587 0.522,-0.55 0.531,-0.505C0.54,-0.46 0.544,-0.408 0.544,-0.35C0.544,-0.293 0.539,-0.243 0.529,-0.198C0.519,-0.153 0.504,-0.115 0.484,-0.084C0.464,-0.053 0.439,-0.029 0.408,-0.013C0.377,0.004 0.341,0.012 0.299,0.012C0.255,0.012 0.218,0.003 0.187,-0.015C0.156,-0.032 0.13,-0.057 0.111,-0.089C0.091,-0.121 0.077,-0.159 0.068,-0.204C0.059,-0.248 0.055,-0.297 0.055,-0.35ZM0.462,-0.35C0.462,-0.385 0.46,-0.419 0.456,-0.451L0.159,-0.18C0.17,-0.142 0.187,-0.112 0.21,-0.089C0.233,-0.066 0.262,-0.055 0.299,-0.055C0.358,-0.055 0.4,-0.079 0.425,-0.128C0.45,-0.177 0.462,-0.251 0.462,-0.35ZM0.138,-0.35C0.138,-0.333 0.139,-0.317 0.14,-0.302C0.141,-0.287 0.142,-0.272 0.143,-0.257L0.441,-0.527C0.43,-0.563 0.413,-0.592 0.391,-0.613C0.368,-0.634 0.338,-0.645 0.3,-0.645C0.241,-0.645 0.199,-0.62 0.175,-0.572C0.15,-0.523 0.138,-0.449 0.138,-0.35Z" style="fill:rgb(242,0,0);fill-rule:nonzero;"/>
        </g>
    </g>
    <g transform="matrix(1.20707,0,0,1.20707,-17149.7,-1193.71)">
        <g transform="matrix(48,0,0,48,14325.5,1796.71)">
            <rect x="0.129" y="-0.325" width="0.342" height="0.074" style="fill-rule:nonzero;"/>
        </g>
        <g transform="matrix(48,0,0,48,14383.1,1796.71)">
            <rect x="0.088" y="-0.325" width="0.424" height="0.074" style="fill-rule:nonzero;"/>
        </g>
        <g transform="matrix(48,0,0,48,14325.5,1868.71)">
            <path d="M0.038,-0.351C0.038,-0.412 0.044,-0.465 0.057,-0.511C0.07,-0.556 0.088,-0.594 0.111,-0.624C0.133,-0.654 0.161,-0.677 0.193,-0.692C0.225,-0.707 0.261,-0.714 0.3,-0.714C0.384,-0.714 0.449,-0.685 0.494,-0.626C0.539,-0.567 0.562,-0.475 0.562,-0.351C0.562,-0.29 0.556,-0.236 0.543,-0.191C0.53,-0.145 0.513,-0.107 0.49,-0.077C0.466,-0.046 0.439,-0.024 0.407,-0.009C0.374,0.007 0.338,0.014 0.299,0.014C0.214,0.014 0.15,-0.017 0.105,-0.08C0.06,-0.142 0.038,-0.232 0.038,-0.351ZM0.434,-0.351C0.434,-0.362 0.434,-0.372 0.434,-0.382C0.433,-0.391 0.433,-0.401 0.432,-0.41L0.187,-0.187C0.208,-0.126 0.245,-0.096 0.3,-0.096C0.343,-0.096 0.376,-0.116 0.399,-0.157C0.422,-0.198 0.434,-0.262 0.434,-0.351ZM0.166,-0.351C0.166,-0.341 0.166,-0.332 0.167,-0.323C0.167,-0.314 0.167,-0.304 0.168,-0.295L0.412,-0.518C0.392,-0.575 0.354,-0.604 0.299,-0.604C0.256,-0.604 0.224,-0.584 0.201,-0.543C0.178,-0.501 0.166,-0.438 0.166,-0.351Z" style="fill-rule:nonzero;"/>
        </g>
        <g transform="matrix(48,0,0,48,14383.1,1868.71)">
            <path d="M0.038,-0.351C0.038,-0.412 0.044,-0.465 0.057,-0.511C0.07,-0.556 0.088,-0.594 0.111,-0.624C0.133,-0.654 0.161,-0.677 0.193,-0.692C0.225,-0.707 0.261,-0.714 0.3,-0.714C0.384,-0.714 0.449,-0.685 0.494,-0.626C0.539,-0.567 0.562,-0.475 0.562,-0.351C0.562,-0.29 0.556,-0.236 0.543,-0.191C0.53,-0.145 0.513,-0.107 0.49,-0.077C0.466,-0.046 0.439,-0.024 0.407,-0.009C0.374,0.007 0.338,0.014 0.299,0.014C0.214,0.014 0.15,-0.017 0.105,-0.08C0.06,-0.142 0.038,-0.232 0.038,-0.351ZM0.434,-0.351C0.434,-0.362 0.434,-0.372 0.434,-0.382C0.433,-0.391 0.433,-0.401 0.432,-0.41L0.187,-0.187C0.208,-0.126 0.245,-0.096 0.3,-0.096C0.343,-0.096 0.376,-0.116 0.399,-0.157C0.422,-0.198 0.434,-0.262 0.434,-0.351ZM0.166,-0.351C0.166,-0.341 0.166,-0.332 0.167,-0.323C0.167,-0.314 0.167,-0.304 0.168,-0.295L0.412,-0.518C0.392,-0.575 0.354,-0.604 0.299,-0.604C0.256,-0.604 0.224,-0.584 0.201,-0.543C0.178,-0.501 0.166,-0.438 0.166,-0.351Z" style="fill-rule:nonzero;"/>
        </g>
    </g>
    <g transform="matrix(1.20707,0,0,1.20707,-16733,-1171.29)">
        <g transform="matrix(48,0,0,48,14325.5,1796.71)">
            <path d="M0.038,-0.351C0.038,-0.412 0.044,-0.465 0.057,-0.511C0.07,-0.556 0.088,-0.594 0.111,-0.624C0.133,-0.654 0.161,-0.677 0.193,-0.692C0.225,-0.707 0.261,-0.714 0.3,-0.714C0.384,-0.714 0.449,-0.685 0.494,-0.626C0.539,-0.567 0.562,-0.475 0.562,-0.351C0.562,-0.29 0.556,-0.236 0.543,-0.191C0.53,-0.145 0.513,-0.107 0.49,-0.077C0.466,-0.046 0.439,-0.024 0.407,-0.009C0.374,0.007 0.338,0.014 0.299,0.014C0.214,0.014 0.15,-0.017 0.105,-0.08C0.06,-0.142 0.038,-0.232 0.038,-0.351ZM0.434,-0.351C0.434,-0.362 0.434,-0.372 0.434,-0.382C0.433,-0.391 0.433,-0.401 0.432,-0.41L0.187,-0.187C0.208,-0.126 0.245,-0.096 0.3,-0.096C0.343,-0.096 0.376,-0.116 0.399,-0.157C0.422,-0.198 0.434,-0.262 0.434,-0.351ZM0.166,-0.351C0.166,-0.341 0.166,-0.332 0.167,-0.323C0.167,-0.314 0.167,-0.304 0.168,-0.295L0.412,-0.518C0.392,-0.575 0.354,-0.604 0.299,-0.604C0.256,-0.604 0.224,-0.584 0.201,-0.543C0.178,-0.501 0.166,-0.438 0.166,-0.351Z" style="fill-rule:nonzero;"/>
        </g>
        <g transform="matrix(48,0,0,48,14383.1,1796.71)">
            <rect x="0.129" y="-0.325" width="0.342" height="0.074" style="fill-rule:nonzero;"/>
        </g>
        <g transform="matrix(48,0,0,48,14325.5,1868.71)">
            <path d="M0.038,-0.351C0.038,-0.412 0.044,-0.465 0.057,-0.511C0.07,-0.556 0.088,-0.594 0.111,-0.624C0.133,-0.654 0.161,-0.677 0.193,-0.692C0.225,-0.707 0.261,-0.714 0.3,-0.714C0.384,-0.714 0.449,-0.685 0.494,-0.626C0.539,-0.567 0.562,-0.475 0.562,-0.351C0.562,-0.29 0.556,-0.236 0.543,-0.191C0.53,-0.145 0.513,-0.107 0.49,-0.077C0.466,-0.046 0.439,-0.024 0.407,-0.009C0.374,0.007 0.338,0.014 0.299,0.014C0.214,0.014 0.15,-0.017 0.105,-0.08C0.06,-0.142 0.038,-0.232 0.038,-0.351ZM0.434,-0.351C0.434,-0.362 0.434,-0.372 0.434,-0.382C0.433,-0.391 0.433,-0.401 0.432,-0.41L0.187,-0.187C0.208,-0.126 0.245,-0.096 0.3,-0.096C0.343,-0.096 0.376,-0.116 0.399,-0.157C0.422,-0.198 0.434,-0.262 0.434,-0.351ZM0.166,-0.351C0.166,-0.341 0.166,-0.332 0.167,-0.323C0.167,-0.314 0.167,-0.304 0.168,-0.295L0.412,-0.518C0.392,-0.575 0.354,-0.604 0.299,-0.604C0.256,-0.604 0.224,-0.584 0.201,-0.543C0.178,-0.501 0.166,-0.438 0.166,-0.351Z" style="fill-rule:nonzero;"/>
        </g>
        <g transform="matrix(48,0,0,48,14383.1,1868.71)">
            <path d="M0.038,-0.351C0.038,-0.412 0.044,-0.465 0.057,-0.511C0.07,-0.556 0.088,-0.594 0.111,-0.624C0.133,-0.654 0.161,-0.677 0.193,-0.692C0.225,-0.707 0.261,-0.714 0.3,-0.714C0.384,-0.714 0.449,-0.685 0.494,-0.626C0.539,-0.567 0.562,-0.475 0.562,-0.351C0.562,-0.29 0.556,-0.236 0.543,-0.191C0.53,-0.145 0.513,-0.107 0.49,-0.077C0.466,-0.046 0.439,-0.024 0.407,-0.009C0.374,0.007 0.338,0.014 0.299,0.014C0.214,0.014 0.15,-0.017 0.105,-0.08C0.06,-0.142 0.038,-0.232 0.038,-0.351ZM0.434,-0.351C0.434,-0.362 0.434,-0.372 0.434,-0.382C0.433,-0.391 0.433,-0.401 0.432,-0.41L0.187,-0.187C0.208,-0.126 0.245,-0.096 0.3,-0.096C0.343,-0.096 0.376,-0.116 0.399,-0.157C0.422,-0.198 0.434,-0.262 0.434,-0.351ZM0.166,-0.351C0.166,-0.341 0.166,-0.332 0.167,-0.323C0.167,-0.314 0.167,-0.304 0.168,-0.295L0.412,-0.518C0.392,-0.575 0.354,-0.604 0.299,-0.604C0.256,-0.604 0.224,-0.584 0.201,-0.543C0.178,-0.501 0.166,-0.438 0.166,-0.351Z" style="fill-rule:nonzero;"/>
        </g>
    </g>
    <g transform="matrix(1.20707,0,0,1.20707,-16124.4,-1171.29)">
        <g transform="matrix(48,0,0,48,14325.5,1796.71)">
            <path d="M0.127,-0.072L0.284,-0.072L0.284,-0.598L0.124,-0.486L0.085,-0.543L0.305,-0.7L0.361,-0.7L0.361,-0.072L0.515,-0.072L0.515,-0L0.127,-0L0.127,-0.072Z" style="fill:rgb(242,0,0);fill-rule:nonzero;"/>
        </g>
        <g transform="matrix(48,0,0,48,14383.1,1796.71)">
            <rect x="0.129" y="-0.325" width="0.342" height="0.074" style="fill:rgb(242,0,0);fill-rule:nonzero;"/>
        </g>
        <g transform="matrix(48,0,0,48,14325.5,1868.71)">
            <path d="M0.055,-0.35C0.055,-0.407 0.06,-0.458 0.07,-0.503C0.08,-0.548 0.095,-0.586 0.115,-0.617C0.135,-0.648 0.16,-0.671 0.191,-0.688C0.222,-0.704 0.258,-0.712 0.3,-0.712C0.345,-0.712 0.383,-0.704 0.414,-0.688C0.445,-0.672 0.47,-0.649 0.489,-0.618C0.508,-0.587 0.522,-0.55 0.531,-0.505C0.54,-0.46 0.544,-0.408 0.544,-0.35C0.544,-0.293 0.539,-0.243 0.529,-0.198C0.519,-0.153 0.504,-0.115 0.484,-0.084C0.464,-0.053 0.439,-0.029 0.408,-0.013C0.377,0.004 0.341,0.012 0.299,0.012C0.255,0.012 0.218,0.003 0.187,-0.015C0.156,-0.032 0.13,-0.057 0.111,-0.089C0.091,-0.121 0.077,-0.159 0.068,-0.204C0.059,-0.248 0.055,-0.297 0.055,-0.35ZM0.462,-0.35C0.462,-0.385 0.46,-0.419 0.456,-0.451L0.159,-0.18C0.17,-0.142 0.187,-0.112 0.21,-0.089C0.233,-0.066 0.262,-0.055 0.299,-0.055C0.358,-0.055 0.4,-0.079 0.425,-0.128C0.45,-0.177 0.462,-0.251 0.462,-0.35ZM0.138,-0.35C0.138,-0.333 0.139,-0.317 0.14,-0.302C0.141,-0.287 0.142,-0.272 0.143,-0.257L0.441,-0.527C0.43,-0.563 0.413,-0.592 0.391,-0.613C0.368,-0.634 0.338,-0.645 0.3,-0.645C0.241,-0.645 0.199,-0.62 0.175,-0.572C0.15,-0.523 0.138,-0.449 0.138,-0.35Z" style="fill:rgb(242,0,0);fill-rule:nonzero;"/>
        </g>
        <g transform="matrix(48,0,0,48,14383.1,1868.71)">
            <path d="M0.055,-0.35C0.055,-0.407 0.06,-0.458 0.07,-0.503C0.08,-0.548 0.095,-0.586 0.115,-0.617C0.135,-0.648 0.16,-0.671 0.191,-0.688C0.222,-0.704 0.258,-0.712 0.3,-0.712C0.345,-0.712 0.383,-0.704 0.414,-0.688C0.445,-0.672 0.47,-0.649 0.489,-0.618C0.508,-0.587 0.522,-0.55 0.531,-0.505C0.54,-0.46 0.544,-0.408 0.544,-0.35C0.544,-0.293 0.539,-0.243 0.529,-0.198C0.519,-0.153 0.504,-0.115 0.484,-0.084C0.464,-0.053 0.439,-0.029 0.408,-0.013C0.377,0.004 0.341,0.012 0.299,0.012C0.255,0.012 0.218,0.003 0.187,-0.015C0.156,-0.032 0.13,-0.057 0.111,-0.089C0.091,-0.121 0.077,-0.159 0.068,-0.204C0.059,-0.248 0.055,-0.297 0.055,-0.35ZM0.462,-0.35C0.462,-0.385 0.46,-0.419 0.456,-0.451L0.159,-0.18C0.17,-0.142 0.187,-0.112 0.21,-0.089C0.233,-0.066 0.262,-0.055 0.299,-0.055C0.358,-0.055 0.4,-0.079 0.425,-0.128C0.45,-0.177 0.462,-0.251 0.462,-0.35ZM0.138,-0.35C0.138,-0.333 0.139,-0.317 0.14,-0.302C0.141,-0.287 0.142,-0.272 0.143,-0.257L0.441,-0.527C0.43,-0.563 0.413,-0.592 0.391,-0.613C0.368,-0.634 0.338,-0.645 0.3,-0.645C0.241,-0.645 0.199,-0.62 0.175,-0.572C0.15,-0.523 0.138,-0.449 0.138,-0.35Z" style="fill:rgb(242,0,0);fill-rule:nonzero;"/>
        </g>
    </g>
    <g transform="matrix(1.20707,0,0,1.20707,-15621.7,-1171.29)">
        <g transform="matrix(48,0,0,48,14325.5,1796.71)">
            <path d="M0.127,-0.072L0.284,-0.072L0.284,-0.598L0.124,-0.486L0.085,-0.543L0.305,-0.7L0.361,-0.7L0.361,-0.072L0.515,-0.072L0.515,-0L0.127,-0L0.127,-0.072Z" style="fill:rgb(242,0,0);fill-rule:nonzero;"/>
        </g>
        <g transform="matrix(48,0,0,48,14383.1,1796.71)">
            <rect x="0.129" y="-0.325" width="0.342" height="0.074" style="fill:rgb(242,0,0);fill-rule:nonzero;"/>
        </g>
        <g transform="matrix(48,0,0,48,14325.5,1868.71)">
            <path d="M0.055,-0.35C0.055,-0.407 0.06,-0.458 0.07,-0.503C0.08,-0.548 0.095,-0.586 0.115,-0.617C0.135,-0.648 0.16,-0.671 0.191,-0.688C0.222,-0.704 0.258,-0.712 0.3,-0.712C0.345,-0.712 0.383,-0.704 0.414,-0.688C0.445,-0.672 0.47,-0.649 0.489,-0.618C0.508,-0.587 0.522,-0.55 0.531,-0.505C0.54,-0.46 0.544,-0.408 0.544,-0.35C0.544,-0.293 0.539,-0.243 0.529,-0.198C0.519,-0.153 0.504,-0.115 0.484,-0.084C0.464,-0.053 0.439,-0.029 0.408,-0.013C0.377,0.004 0.341,0.012 0.299,0.012C0.255,0.012 0.218,0.003 0.187,-0.015C0.156,-0.032 0.13,-0.057 0.111,-0.089C0.091,-0.121 0.077,-0.159 0.068,-0.204C0.059,-0.248 0.055,-0.297 0.055,-0.35ZM0.462,-0.35C0.462,-0.385 0.46,-0.419 0.456,-0.451L0.159,-0.18C0.17,-0.142 0.187,-0.112 0.21,-0.089C0.233,-0.066 0.262,-0.055 0.299,-0.055C0.358,-0.055 0.4,-0.079 0.425,-0.128C0.45,-0.177 0.462,-0.251 0.462,-0.35ZM0.138,-0.35C0.138,-0.333 0.139,-0.317 0.14,-0.302C0.141,-0.287 0.142,-0.272 0.143,-0.257L0.441,-0.527C0.43,-0.563 0.413,-0.592 0.391,-0.613C0.368,-0.634 0.338,-0.645 0.3,-0.645C0.241,-0.645 0.199,-0.62 0.175,-0.572C0.15,-0.523 0.138,-0.449 0.138,-0.35Z" style="fill:rgb(242,0,0);fill-rule:nonzero;"/>
        </g>
        <g transform="matrix(48,0,0,48,14383.1,1868.71)">
            <path d="M0.055,-0.35C0.055,-0.407 0.06,-0.458 0.07,-0.503C0.08,-0.548 0.095,-0.586 0.115,-0.617C0.135,-0.648 0.16,-0.671 0.191,-0.688C0.222,-0.704 0.258,-0.712 0.3,-0.712C0.345,-0.712 0.383,-0.704 0.414,-0.688C0.445,-0.672 0.47,-0.649 0.489,-0.618C0.508,-0.587 0.522,-0.55 0.531,-0.505C0.54,-0.46 0.544,-0.408 0.544,-0.35C0.544,-0.293 0.539,-0.243 0.529,-0.198C0.519,-0.153 0.504,-0.115 0.484,-0.084C0.464,-0.053 0.439,-0.029 0.408,-0.013C0.377,0.004 0.341,0.012 0.299,0.012C0.255,0.012 0.218,0.003 0.187,-0.015C0.156,-0.032 0.13,-0.057 0.111,-0.089C0.091,-0.121 0.077,-0.159 0.068,-0.204C0.059,-0.248 0.055,-0.297 0.055,-0.35ZM0.462,-0.35C0.462,-0.385 0.46,-0.419 0.456,-0.451L0.159,-0.18C0.17,-0.142 0.187,-0.112 0.21,-0.089C0.233,-0.066 0.262,-0.055 0.299,-0.055C0.358,-0.055 0.4,-0.079 0.425,-0.128C0.45,-0.177 0.462,-0.251 0.462,-0.35ZM0.138,-0.35C0.138,-0.333 0.139,-0.317 0.14,-0.302C0.141,-0.287 0.142,-0.272 0.143,-0.257L0.441,-0.527C0.43,-0.563 0.413,-0.592 0.391,-0.613C0.368,-0.634 0.338,-0.645 0.3,-0.645C0.241,-0.645 0.199,-0.62 0.175,-0.572C0.15,-0.523 0.138,-0.449 0.138,-0.35Z" style="fill:rgb(242,0,0);fill-rule:nonzero;"/>
        </g>
    </g>
    <g transform="matrix(1.20707,0,0,1.20707,-16734.9,-1711.72)">
        <g transform="matrix(48,0,0,48,14325.5,1796.71)">
            <path d="M0.055,-0.35C0.055,-0.407 0.06,-0.458 0.07,-0.503C0.08,-0.548 0.095,-0.586 0.115,-0.617C0.135,-0.648 0.16,-0.671 0.191,-0.688C0.222,-0.704 0.258,-0.712 0.3,-0.712C0.345,-0.712 0.383,-0.704 0.414,-0.688C0.445,-0.672 0.47,-0.649 0.489,-0.618C0.508,-0.587 0.522,-0.55 0.531,-0.505C0.54,-0.46 0.544,-0.408 0.544,-0.35C0.544,-0.293 0.539,-0.243 0.529,-0.198C0.519,-0.153 0.504,-0.115 0.484,-0.084C0.464,-0.053 0.439,-0.029 0.408,-0.013C0.377,0.004 0.341,0.012 0.299,0.012C0.255,0.012 0.218,0.003 0.187,-0.015C0.156,-0.032 0.13,-0.057 0.111,-0.089C0.091,-0.121 0.077,-0.159 0.068,-0.204C0.059,-0.248 0.055,-0.297 0.055,-0.35ZM0.462,-0.35C0.462,-0.385 0.46,-0.419 0.456,-0.451L0.159,-0.18C0.17,-0.142 0.187,-0.112 0.21,-0.089C0.233,-0.066 0.262,-0.055 0.299,-0.055C0.358,-0.055 0.4,-0.079 0.425,-0.128C0.45,-0.177 0.462,-0.251 0.462,-0.35ZM0.138,-0.35C0.138,-0.333 0.139,-0.317 0.14,-0.302C0.141,-0.287 0.142,-0.272 0.143,-0.257L0.441,-0.527C0.43,-0.563 0.413,-0.592 0.391,-0.613C0.368,-0.634 0.338,-0.645 0.3,-0.645C0.241,-0.645 0.199,-0.62 0.175,-0.572C0.15,-0.523 0.138,-0.449 0.138,-0.35Z" style="fill:rgb(242,0,0);fill-rule:nonzero;"/>
        </g>
        <g transform="matrix(48,0,0,48,14383.1,1796.71)">
            <rect x="0.088" y="-0.325" width="0.424" height="0.074" style="fill:rgb(242,0,0);fill-rule:nonzero;"/>
        </g>
        <g transform="matrix(48,0,0,48,14325.5,1868.71)">
            <rect x="0.088" y="-0.325" width="0.424" height="0.074" style="fill:rgb(242,0,0);fill-rule:nonzero;"/>
        </g>
        <g transform="matrix(48,0,0,48,14383.1,1868.71)">
            <path d="M0.055,-0.35C0.055,-0.407 0.06,-0.458 0.07,-0.503C0.08,-0.548 0.095,-0.586 0.115,-0.617C0.135,-0.648 0.16,-0.671 0.191,-0.688C0.222,-0.704 0.258,-0.712 0.3,-0.712C0.345,-0.712 0.383,-0.704 0.414,-0.688C0.445,-0.672 0.47,-0.649 0.489,-0.618C0.508,-0.587 0.522,-0.55 0.531,-0.505C0.54,-0.46 0.544,-0.408 0.544,-0.35C0.544,-0.293 0.539,-0.243 0.529,-0.198C0.519,-0.153 0.504,-0.115 0.484,-0.084C0.464,-0.053 0.439,-0.029 0.408,-0.013C0.377,0.004 0.341,0.012 0.299,0.012C0.255,0.012 0.218,0.003 0.187,-0.015C0.156,-0.032 0.13,-0.057 0.111,-0.089C0.091,-0.121 0.077,-0.159 0.068,-0.204C0.059,-0.248 0.055,-0.297 0.055,-0.35ZM0.462,-0.35C0.462,-0.385 0.46,-0.419 0.456,-0.451L0.159,-0.18C0.17,-0.142 0.187,-0.112 0.21,-0.089C0.233,-0.066 0.262,-0.055 0.299,-0.055C0.358,-0.055 0.4,-0.079 0.425,-0.128C0.45,-0.177 0.462,-0.251 0.462,-0.35ZM0.138,-0.35C0.138,-0.333 0.139,-0.317 0.14,-0.302C0.141,-0.287 0.142,-0.272 0.143,-0.257L0.441,-0.527C0.43,-0.563 0.413,-0.592 0.391,-0.613C0.368,-0.634 0.338,-0.645 0.3,-0.645C0.241,-0.645 0.199,-0.62 0.175,-0.572C0.15,-0.523 0.138,-0.449 0.138,-0.35Z" style="fill:rgb(242,0,0);fill-rule:nonzero;"/>
        </g>
    </g>
    <g transform="matrix(1.20707,0,0,1.20707,-16339.1,-1711.72)">
        <g transform="matrix(48,0,0,48,14325.5,1796.71)">
            <path d="M0.127,-0.072L0.284,-0.072L0.284,-0.598L0.124,-0.486L0.085,-0.543L0.305,-0.7L0.361,-0.7L0.361,-0.072L0.515,-0.072L0.515,-0L0.127,-0L0.127,-0.072Z" style="fill:rgb(0,122,229);fill-rule:nonzero;"/>
        </g>
        <g transform="matrix(48,0,0,48,14383.1,1796.71)">
            <rect x="0.088" y="-0.325" width="0.424" height="0.074" style="fill:rgb(0,122,229);fill-rule:nonzero;"/>
        </g>
        <g transform="matrix(48,0,0,48,14325.5,1868.71)">
            <rect x="0.088" y="-0.325" width="0.424" height="0.074" style="fill:rgb(0,122,229);fill-rule:nonzero;"/>
        </g>
        <g transform="matrix(48,0,0,48,14383.1,1868.71)">
            <path d="M0.055,-0.35C0.055,-0.407 0.06,-0.458 0.07,-0.503C0.08,-0.548 0.095,-0.586 0.115,-0.617C0.135,-0.648 0.16,-0.671 0.191,-0.688C0.222,-0.704 0.258,-0.712 0.3,-0.712C0.345,-0.712 0.383,-0.704 0.414,-0.688C0.445,-0.672 0.47,-0.649 0.489,-0.618C0.508,-0.587 0.522,-0.55 0.531,-0.505C0.54,-0.46 0.544,-0.408 0.544,-0.35C0.544,-0.293 0.539,-0.243 0.529,-0.198C0.519,-0.153 0.504,-0.115 0.484,-0.084C0.464,-0.053 0.439,-0.029 0.408,-0.013C0.377,0.004 0.341,0.012 0.299,0.012C0.255,0.012 0.218,0.003 0.187,-0.015C0.156,-0.032 0.13,-0.057 0.111,-0.089C0.091,-0.121 0.077,-0.159 0.068,-0.204C0.059,-0.248 0.055,-0.297 0.055,-0.35ZM0.462,-0.35C0.462,-0.385 0.46,-0.419 0.456,-0.451L0.159,-0.18C0.17,-0.142 0.187,-0.112 0.21,-0.089C0.233,-0.066 0.262,-0.055 0.299,-0.055C0.358,-0.055 0.4,-0.079 0.425,-0.128C0.45,-0.177 0.462,-0.251 0.462,-0.35ZM0.138,-0.35C0.138,-0.333 0.139,-0.317 0.14,-0.302C0.141,-0.287 0.142,-0.272 0.143,-0.257L0.441,-0.527C0.43,-0.563 0.413,-0.592 0.391,-0.613C0.368,-0.634 0.338,-0.645 0.3,-0.645C0.241,-0.645 0.199,-0.62 0.175,-0.572C0.15,-0.523 0.138,-0.449 0.138,-0.35Z" style="fill:rgb(0,122,229);fill-rule:nonzero;"/>
        </g>
    </g>
    <g transform="matrix(1.20707,0,0,1.20707,-15918.1,-1711.72)">
        <g transform="matrix(48,0,0,48,14325.5,1796.71)">
            <path d="M0.127,-0.072L0.284,-0.072L0.284,-0.598L0.124,-0.486L0.085,-0.543L0.305,-0.7L0.361,-0.7L0.361,-0.072L0.515,-0.072L0.515,-0L0.127,-0L0.127,-0.072Z" style="fill:rgb(0,122,229);fill-rule:nonzero;"/>
        </g>
        <g transform="matrix(48,0,0,48,14383.1,1796.71)">
            <rect x="0.088" y="-0.325" width="0.424" height="0.074" style="fill:rgb(0,122,229);fill-rule:nonzero;"/>
        </g>
        <g transform="matrix(48,0,0,48,14325.5,1868.71)">
            <rect x="0.088" y="-0.325" width="0.424" height="0.074" style="fill:rgb(0,122,229);fill-rule:nonzero;"/>
        </g>
        <g transform="matrix(48,0,0,48,14383.1,1868.71)">
            <path d="M0.055,-0.35C0.055,-0.407 0.06,-0.458 0.07,-0.503C0.08,-0.548 0.095,-0.586 0.115,-0.617C0.135,-0.648 0.16,-0.671 0.191,-0.688C0.222,-0.704 0.258,-0.712 0.3,-0.712C0.345,-0.712 0.383,-0.704 0.414,-0.688C0.445,-0.672 0.47,-0.649 0.489,-0.618C0.508,-0.587 0.522,-0.55 0.531,-0.505C0.54,-0.46 0.544,-0.408 0.544,-0.35C0.544,-0.293 0.539,-0.243 0.529,-0.198C0.519,-0.153 0.504,-0.115 0.484,-0.084C0.464,-0.053 0.439,-0.029 0.408,-0.013C0.377,0.004 0.341,0.012 0.299,0.012C0.255,0.012 0.218,0.003 0.187,-0.015C0.156,-0.032 0.13,-0.057 0.111,-0.089C0.091,-0.121 0.077,-0.159 0.068,-0.204C0.059,-0.248 0.055,-0.297 0.055,-0.35ZM0.462,-0.35C0.462,-0.385 0.46,-0.419 0.456,-0.451L0.159,-0.18C0.17,-0.142 0.187,-0.112 0.21,-0.089C0.233,-0.066 0.262,-0.055 0.299,-0.055C0.358,-0.055 0.4,-0.079 0.425,-0.128C0.45,-0.177 0.462,-0.251 0.462,-0.35ZM0.138,-0.35C0.138,-0.333 0.139,-0.317 0.14,-0.302C0.141,-0.287 0.142,-0.272 0.143,-0.257L0.441,-0.527C0.43,-0.563 0.413,-0.592 0.391,-0.613C0.368,-0.634 0.338,-0.645 0.3,-0.645C0.241,-0.645 0.199,-0.62 0.175,-0.572C0.15,-0.523 0.138,-0.449 0.138,-0.35Z" style="fill:rgb(0,122,229);fill-rule:nonzero;"/>
        </g>
    </g>
    <g transform="matrix(1.20707,0,0,1.20707,-15518.9,-1711.72)">
        <g transform="matrix(48,0,0,48,14325.5,1796.71)">
            <path d="M0.127,-0.072L0.284,-0.072L0.284,-0.598L0.124,-0.486L0.085,-0.543L0.305,-0.7L0.361,-0.7L0.361,-0.072L0.515,-0.072L0.515,-0L0.127,-0L0.127,-0.072Z" style="fill:rgb(0,122,229);fill-rule:nonzero;"/>
        </g>
        <g transform="matrix(48,0,0,48,14383.1,1796.71)">
            <rect x="0.088" y="-0.325" width="0.424" height="0.074" style="fill:rgb(0,122,229);fill-rule:nonzero;"/>
        </g>
        <g transform="matrix(48,0,0,48,14325.5,1868.71)">
            <rect x="0.088" y="-0.325" width="0.424" height="0.074" style="fill:rgb(0,122,229);fill-rule:nonzero;"/>
        </g>
        <g transform="matrix(48,0,0,48,14383.1,1868.71)">
            <path d="M0.055,-0.35C0.055,-0.407 0.06,-0.458 0.07,-0.503C0.08,-0.548 0.095,-0.586 0.115,-0.617C0.135,-0.648 0.16,-0.671 0.191,-0.688C0.222,-0.704 0.258,-0.712 0.3,-0.712C0.345,-0.712 0.383,-0.704 0.414,-0.688C0.445,-0.672 0.47,-0.649 0.489,-0.618C0.508,-0.587 0.522,-0.55 0.531,-0.505C0.54,-0.46 0.544,-0.408 0.544,-0.35C0.544,-0.293 0.539,-0.243 0.529,-0.198C0.519,-0.153 0.504,-0.115 0.484,-0.084C0.464,-0.053 0.439,-0.029 0.408,-0.013C0.377,0.004 0.341,0.012 0.299,0.012C0.255,0.012 0.218,0.003 0.187,-0.015C0.156,-0.032 0.13,-0.057 0.111,-0.089C0.091,-0.121 0.077,-0.159 0.068,-0.204C0.059,-0.248 0.055,-0.297 0.055,-0.35ZM0.462,-0.35C0.462,-0.385 0.46,-0.419 0.456,-0.451L0.159,-0.18C0.17,-0.142 0.187,-0.112 0.21,-0.089C0.233,-0.066 0.262,-0.055 0.299,-0.055C0.358,-0.055 0.4,-0.079 0.425,-0.128C0.45,-0.177 0.462,-0.251 0.462,-0.35ZM0.138,-0.35C0.138,-0.333 0.139,-0.317 0.14,-0.302C0.141,-0.287 0.142,-0.272 0.143,-0.257L0.441,-0.527C0.43,-0.563 0.413,-0.592 0.391,-0.613C0.368,-0.634 0.338,-0.645 0.3,-0.645C0.241,-0.645 0.199,-0.62 0.175,-0.572C0.15,-0.523 0.138,-0.449 0.138,-0.35Z" style="fill:rgb(0,122,229);fill-rule:nonzero;"/>
        </g>
    </g>
    <path d="M176.796,73.128L176.796,70.413C176.796,68.291 177.037,66.507 177.518,65.062C178,63.617 178.846,62.009 180.057,60.238C181.268,58.467 182.238,57.1 182.968,56.136L186.132,51.956L187.264,50.492C188.124,49.333 188.866,47.992 189.491,46.468L173.768,46.468L173.768,42.816L193.007,42.816L193.007,45.238C193.007,46.201 192.815,47.093 192.43,47.913C192.046,48.734 190.884,50.485 188.944,53.167C188.475,53.805 188.013,54.443 187.557,55.081L185.526,57.933C184.224,59.769 183.261,61.234 182.636,62.328C182.011,63.421 181.539,64.561 181.22,65.746C180.9,66.93 180.741,68.486 180.741,70.413L180.741,73.128L176.796,73.128Z" style="fill:rgb(128,128,128);fill-rule:nonzero;"/>
    <path d="M206.561,41.917C210.012,41.917 212.642,43.366 214.452,46.263C216.262,49.16 217.167,53.063 217.167,57.972C217.167,62.894 216.262,66.803 214.452,69.701C212.642,72.598 210.012,74.046 206.561,74.046C203.124,74.046 200.497,72.598 198.68,69.701C196.864,66.803 195.956,62.894 195.956,57.972C195.956,53.063 196.864,49.16 198.68,46.263C200.497,43.366 203.124,41.917 206.561,41.917ZM200.643,64.456L211.132,48.031C210.468,46.82 209.748,46.003 208.973,45.579C208.199,45.156 207.395,44.945 206.561,44.945C204.387,44.945 202.733,46.152 201.6,48.568C200.468,50.983 199.901,54.046 199.901,57.757C199.901,58.604 199.927,59.515 199.979,60.492C200.031,61.468 200.253,62.79 200.643,64.456ZM212.44,51.644L202.03,68.167C202.59,69.118 203.234,69.831 203.964,70.306C204.693,70.781 205.507,71.019 206.405,71.019C208.879,71.019 210.637,69.635 211.678,66.869C212.72,64.102 213.241,61.032 213.241,57.66C213.241,55.576 212.974,53.571 212.44,51.644Z" style="fill:rgb(128,128,128);fill-rule:nonzero;"/>
    <path d="M176.796,666.979L176.796,664.264C176.796,662.142 177.037,660.358 177.518,658.913C178,657.467 178.846,655.859 180.057,654.088C181.268,652.318 182.238,650.95 182.968,649.987L186.132,645.807L187.264,644.342C188.124,643.183 188.866,641.842 189.491,640.319L173.768,640.319L173.768,636.667L193.007,636.667L193.007,639.088C193.007,640.052 192.815,640.944 192.43,641.764C192.046,642.585 190.884,644.336 188.944,647.018C188.475,647.656 188.013,648.294 187.557,648.932L185.526,651.784C184.224,653.62 183.261,655.085 182.636,656.178C182.011,657.272 181.539,658.411 181.22,659.596C180.9,660.781 180.741,662.337 180.741,664.264L180.741,666.979L176.796,666.979Z" style="fill:rgb(128,128,128);fill-rule:nonzero;"/>
    <path d="M198.241,651.217L198.241,636.667L215.214,636.667L215.214,640.163L201.874,640.163L201.874,647.585L202.499,647.585C206.861,647.585 210.22,648.496 212.577,650.319C214.934,652.142 216.112,654.596 216.112,657.682C216.112,659.635 215.637,661.387 214.686,662.936C213.736,664.486 212.395,665.7 210.663,666.579C208.931,667.458 207.089,667.897 205.136,667.897C203.182,667.897 200.682,667.422 197.636,666.471L197.636,662.506C198.742,663.105 199.979,663.597 201.346,663.981C202.714,664.365 203.977,664.557 205.136,664.557C206.294,664.557 207.427,664.277 208.534,663.717C209.641,663.157 210.5,662.34 211.112,661.266C211.724,660.192 212.03,659.095 212.03,657.975C212.03,656.087 211.193,654.489 209.52,653.18C207.847,651.872 204.875,651.217 200.604,651.217L198.241,651.217Z" style="fill:rgb(128,128,128);fill-rule:nonzero;"/>
    <path d="M642.961,73.128L642.961,70.413C642.961,68.291 643.202,66.507 643.683,65.062C644.165,63.617 645.011,62.009 646.222,60.238C647.433,58.467 648.403,57.1 649.133,56.136L652.297,51.956L653.429,50.492C654.289,49.333 655.031,47.992 655.656,46.468L639.933,46.468L639.933,42.816L659.172,42.816L659.172,45.238C659.172,46.201 658.98,47.093 658.595,47.913C658.211,48.734 657.049,50.485 655.109,53.167C654.64,53.805 654.178,54.443 653.722,55.081L651.691,57.933C650.389,59.769 649.426,61.234 648.801,62.328C648.176,63.421 647.704,64.561 647.385,65.746C647.066,66.93 646.906,68.486 646.906,70.413L646.906,73.128L642.961,73.128Z" style="fill:rgb(128,128,128);fill-rule:nonzero;"/>
    <path d="M671.828,70.101L671.828,46.703C670.734,47.575 669.673,48.317 668.644,48.929C667.616,49.541 666.203,50.166 664.406,50.804L664.406,47.523C667.258,46.312 669.732,44.743 671.828,42.816L675.461,42.816L675.461,70.101L682.746,70.101L682.746,73.128L664.406,73.128L664.406,70.101L671.828,70.101Z" style="fill:rgb(128,128,128);fill-rule:nonzero;"/>
    <path d="M588.961,666.979L588.961,664.264C588.961,662.142 589.202,660.358 589.683,658.913C590.165,657.467 591.011,655.859 592.222,654.088C593.433,652.318 594.403,650.95 595.133,649.987L598.297,645.807L599.429,644.342C600.289,643.183 601.031,641.842 601.656,640.319L585.933,640.319L585.933,636.667L605.172,636.667L605.172,639.088C605.172,640.052 604.98,640.944 604.595,641.764C604.211,642.585 603.049,644.336 601.109,647.018C600.64,647.656 600.178,648.294 599.722,648.932L597.691,651.784C596.389,653.62 595.426,655.085 594.801,656.178C594.176,657.272 593.704,658.411 593.385,659.596C593.066,660.781 592.906,662.337 592.906,664.264L592.906,666.979L588.961,666.979Z" style="fill:rgb(128,128,128);fill-rule:nonzero;"/>
    <path d="M612.437,652.76C613.375,651.367 614.537,650.231 615.924,649.352C617.31,648.473 618.837,648.034 620.504,648.034C622.079,648.034 623.573,648.418 624.986,649.186C626.399,649.954 627.476,651.025 628.219,652.399C628.961,653.773 629.332,655.371 629.332,657.194C629.332,660.071 628.411,662.575 626.568,664.704C624.726,666.833 622.301,667.897 619.293,667.897C615.751,667.897 613.105,666.416 611.353,663.454C609.602,660.491 608.726,656.725 608.726,652.155C608.726,647.103 609.84,643.109 612.066,640.172C614.293,637.236 617.307,635.768 621.109,635.768C623.153,635.768 625.139,636.068 627.066,636.667L627.066,640.338C624.905,639.31 622.867,638.795 620.953,638.795C618.245,638.795 616.148,640.039 614.664,642.526C613.179,645.013 612.437,648.164 612.437,651.979L612.437,652.76ZM619.566,664.87C620.543,664.87 621.526,664.58 622.515,664.001C623.505,663.421 624.283,662.529 624.849,661.325C625.416,660.12 625.699,658.808 625.699,657.389C625.699,655.54 625.22,654.023 624.263,652.838C623.306,651.654 621.942,651.061 620.172,651.061C618.336,651.061 616.829,651.748 615.65,653.122C614.472,654.495 613.883,656.165 613.883,658.131C613.883,660.111 614.459,661.728 615.611,662.985C616.763,664.241 618.082,664.87 619.566,664.87Z" style="fill:rgb(128,128,128);fill-rule:nonzero;"/>
    <path d="M1035.66,73.128L1035.66,70.413C1035.66,68.291 1035.9,66.507 1036.38,65.062C1036.86,63.617 1037.71,62.009 1038.92,60.238C1040.13,58.467 1041.1,57.1 1041.83,56.136L1044.99,51.956L1046.13,50.492C1046.99,49.333 1047.73,47.992 1048.35,46.468L1032.63,46.468L1032.63,42.816L1051.87,42.816L1051.87,45.238C1051.87,46.201 1051.68,47.093 1051.29,47.913C1050.91,48.734 1049.75,50.485 1047.81,53.167C1047.34,53.805 1046.88,54.443 1046.42,55.081L1044.39,57.933C1043.09,59.769 1042.12,61.234 1041.5,62.328C1040.87,63.421 1040.4,64.561 1040.08,65.746C1039.76,66.93 1039.6,68.486 1039.6,70.413L1039.6,73.128L1035.66,73.128Z" style="fill:rgb(128,128,128);fill-rule:nonzero;"/>
    <path d="M1074.68,73.128L1056.34,73.128L1056.34,69.788C1056.34,68.929 1056.52,68.008 1056.87,67.025C1057.22,66.042 1057.89,64.938 1058.88,63.714C1059.87,62.49 1060.92,61.312 1062.03,60.179L1064.1,58.07C1064.51,57.64 1065.42,56.644 1066.83,55.081C1068.24,53.519 1069.16,52.321 1069.61,51.488C1070.06,50.654 1070.29,49.834 1070.29,49.027C1070.29,47.725 1069.77,46.719 1068.72,46.009C1067.68,45.3 1066.51,44.945 1065.21,44.945C1064.47,44.945 1063.64,45.029 1062.72,45.199C1061.8,45.368 1061,45.566 1060.31,45.794C1059.62,46.022 1058.5,46.488 1056.95,47.191L1056.95,43.968C1058.59,43.187 1060.23,42.65 1061.88,42.357C1063.53,42.064 1064.88,41.917 1065.95,41.917C1067.53,41.917 1068.97,42.175 1070.3,42.689C1071.62,43.203 1072.6,44.001 1073.25,45.081C1073.89,46.162 1074.21,47.315 1074.21,48.538C1074.21,49.906 1073.8,51.305 1072.97,52.738C1072.14,54.17 1070.59,56.012 1068.29,58.265L1066.07,60.472L1064.19,62.308C1063.01,63.506 1062.05,64.665 1061.32,65.785C1060.59,66.904 1060.19,68.239 1060.11,69.788L1074.68,69.788L1074.68,73.128Z" style="fill:rgb(128,128,128);fill-rule:nonzero;"/>
    <path d="M1200.98,666.979L1200.98,664.264C1200.98,662.142 1201.22,660.358 1201.7,658.913C1202.18,657.467 1203.03,655.859 1204.24,654.088C1205.45,652.318 1206.42,650.95 1207.15,649.987L1210.31,645.807L1211.44,644.342C1212.3,643.183 1213.05,641.842 1213.67,640.319L1197.95,640.319L1197.95,636.667L1217.19,636.667L1217.19,639.088C1217.19,640.052 1216.99,640.944 1216.61,641.764C1216.23,642.585 1215.06,644.336 1213.12,647.018C1212.65,647.656 1212.19,648.294 1211.74,648.932L1209.7,651.784C1208.4,653.62 1207.44,655.085 1206.82,656.178C1206.19,657.272 1205.72,658.411 1205.4,659.596C1205.08,660.781 1204.92,662.337 1204.92,664.264L1204.92,666.979L1200.98,666.979Z" style="fill:rgb(128,128,128);fill-rule:nonzero;"/>
    <path d="M1224.98,666.979L1224.98,664.264C1224.98,662.142 1225.22,660.358 1225.7,658.913C1226.18,657.467 1227.03,655.859 1228.24,654.088C1229.45,652.318 1230.42,650.95 1231.15,649.987L1234.32,645.807L1235.45,644.342C1236.31,643.183 1237.05,641.842 1237.67,640.319L1221.95,640.319L1221.95,636.667L1241.19,636.667L1241.19,639.088C1241.19,640.052 1241,640.944 1240.61,641.764C1240.23,642.585 1239.07,644.336 1237.13,647.018C1236.66,647.656 1236.2,648.294 1235.74,648.932L1233.71,651.784C1232.41,653.62 1231.44,655.085 1230.82,656.178C1230.19,657.272 1229.72,658.411 1229.4,659.596C1229.08,660.781 1228.92,662.337 1228.92,664.264L1228.92,666.979L1224.98,666.979Z" style="fill:rgb(128,128,128);fill-rule:nonzero;"/>
    <path d="M1403.14,73.128L1403.14,70.413C1403.14,68.291 1403.38,66.507 1403.86,65.062C1404.34,63.617 1405.19,62.009 1406.4,60.238C1407.61,58.467 1408.58,57.1 1409.31,56.136L1412.48,51.956L1413.61,50.492C1414.47,49.333 1415.21,47.992 1415.84,46.468L1400.11,46.468L1400.11,42.816L1419.35,42.816L1419.35,45.238C1419.35,46.201 1419.16,47.093 1418.77,47.913C1418.39,48.734 1417.23,50.485 1415.29,53.167C1414.82,53.805 1414.36,54.443 1413.9,55.081L1411.87,57.933C1410.57,59.769 1409.6,61.234 1408.98,62.328C1408.35,63.421 1407.88,64.561 1407.56,65.746C1407.24,66.93 1407.09,68.486 1407.09,70.413L1407.09,73.128L1403.14,73.128Z" style="fill:rgb(128,128,128);fill-rule:nonzero;"/>
    <path d="M1423.75,72.581L1423.75,68.753C1426.73,70.264 1429.31,71.019 1431.5,71.019C1433.5,71.019 1435.16,70.41 1436.47,69.193C1437.78,67.975 1438.43,66.41 1438.43,64.496C1438.43,62.568 1437.71,60.999 1436.27,59.788C1434.84,58.578 1432.39,57.972 1428.94,57.972L1426.93,57.972L1426.93,54.945L1429.72,54.945C1432.26,54.945 1434.1,54.375 1435.23,53.236C1436.36,52.096 1436.93,50.83 1436.93,49.437C1436.93,48.174 1436.47,47.109 1435.54,46.244C1434.62,45.378 1433.2,44.945 1431.28,44.945C1429.13,44.945 1426.82,45.55 1424.35,46.761L1424.35,43.304C1426.82,42.38 1429.09,41.917 1431.15,41.917C1434.83,41.917 1437.37,42.643 1438.77,44.095C1440.17,45.547 1440.87,47.204 1440.87,49.066C1440.87,50.446 1440.5,51.742 1439.76,52.953C1439.02,54.163 1437.65,55.244 1435.66,56.195C1437.42,56.716 1438.75,57.354 1439.64,58.109C1440.54,58.864 1441.22,59.756 1441.68,60.785C1442.15,61.813 1442.38,62.966 1442.38,64.242C1442.38,67.08 1441.33,69.424 1439.22,71.273C1437.12,73.122 1434.4,74.046 1431.07,74.046C1430.11,74.046 1429.05,73.975 1427.91,73.831C1426.78,73.688 1425.38,73.272 1423.75,72.581Z" style="fill:rgb(128,128,128);fill-rule:nonzero;"/>
    <path d="M1704.14,666.979L1704.14,664.264C1704.14,662.142 1704.38,660.358 1704.86,658.913C1705.34,657.467 1706.19,655.859 1707.4,654.088C1708.61,652.318 1709.58,650.95 1710.31,649.987L1713.48,645.807L1714.61,644.342C1715.47,643.183 1716.21,641.842 1716.84,640.319L1701.11,640.319L1701.11,636.667L1720.35,636.667L1720.35,639.088C1720.35,640.052 1720.16,640.944 1719.77,641.764C1719.39,642.585 1718.23,644.336 1716.29,647.018C1715.82,647.656 1715.36,648.294 1714.9,648.932L1712.87,651.784C1711.57,653.62 1710.6,655.085 1709.98,656.178C1709.35,657.272 1708.88,658.411 1708.56,659.596C1708.24,660.781 1708.09,662.337 1708.09,664.264L1708.09,666.979L1704.14,666.979Z" style="fill:rgb(128,128,128);fill-rule:nonzero;"/>
    <path d="M1730.88,650.631L1730.21,650.143C1729.29,649.492 1728.38,648.532 1727.5,647.262C1726.61,645.993 1726.17,644.596 1726.17,643.073C1726.17,641.055 1726.97,639.333 1728.55,637.907C1730.14,636.481 1732.16,635.768 1734.61,635.768C1736.11,635.768 1737.45,636.038 1738.65,636.579C1739.85,637.119 1740.77,637.917 1741.42,638.971C1742.08,640.026 1742.4,641.178 1742.4,642.428C1742.4,643.288 1742.25,644.118 1741.95,644.919C1741.65,645.719 1741.21,646.514 1740.61,647.301C1740.02,648.089 1738.85,649.199 1737.09,650.631L1738.73,651.94C1740.64,653.502 1741.93,654.85 1742.6,655.983C1743.26,657.116 1743.59,658.385 1743.59,659.792C1743.59,661.979 1742.8,663.877 1741.21,665.485C1739.62,667.093 1737.24,667.897 1734.06,667.897C1730.87,667.897 1728.48,667.145 1726.89,665.641C1725.31,664.137 1724.51,662.272 1724.51,660.045C1724.51,656.725 1726.63,653.587 1730.88,650.631ZM1734.61,648.776C1736.44,647.383 1737.59,646.217 1738.06,645.28C1738.52,644.342 1738.75,643.47 1738.75,642.663C1738.75,641.686 1738.32,640.797 1737.46,639.997C1736.6,639.196 1735.49,638.795 1734.14,638.795C1732.68,638.795 1731.57,639.232 1730.81,640.104C1730.05,640.976 1729.67,641.881 1729.67,642.819C1729.67,643.73 1729.99,644.59 1730.62,645.397C1731.26,646.204 1732.28,647.109 1733.69,648.112L1734.61,648.776ZM1733.61,652.565C1730.17,655.208 1728.46,657.682 1728.46,659.987C1728.46,661.354 1729.02,662.506 1730.15,663.444C1731.29,664.381 1732.63,664.85 1734.18,664.85C1735.6,664.85 1736.87,664.401 1737.99,663.502C1739.11,662.604 1739.67,661.484 1739.67,660.143C1739.67,658.828 1738.99,657.493 1737.63,656.139C1736.27,654.785 1735.32,653.9 1734.78,653.483L1733.61,652.565Z" style="fill:rgb(128,128,128);fill-rule:nonzero;"/>
    <path d="M1768.45,73.128L1768.45,70.413C1768.45,68.291 1768.69,66.507 1769.17,65.062C1769.65,63.617 1770.5,62.009 1771.71,60.238C1772.92,58.467 1773.89,57.1 1774.62,56.136L1777.79,51.956L1778.92,50.492C1779.78,49.333 1780.52,47.992 1781.14,46.468L1765.42,46.468L1765.42,42.816L1784.66,42.816L1784.66,45.238C1784.66,46.201 1784.47,47.093 1784.09,47.913C1783.7,48.734 1782.54,50.485 1780.6,53.167C1780.13,53.805 1779.67,54.443 1779.21,55.081L1777.18,57.933C1775.88,59.769 1774.91,61.234 1774.29,62.328C1773.66,63.421 1773.19,64.561 1772.87,65.746C1772.56,66.93 1772.39,68.486 1772.39,70.413L1772.39,73.128L1768.45,73.128Z" style="fill:rgb(128,128,128);fill-rule:nonzero;"/>
    <path d="M1800.03,73.128L1800.03,64.652L1787.16,64.652L1787.16,61.605L1800.03,42.816L1803.68,42.816L1803.68,61.605L1809.29,61.605L1809.29,64.652L1803.68,64.652L1803.68,73.128L1800.03,73.128ZM1800.03,61.605L1800.03,48.324L1791.03,61.605L1800.03,61.605Z" style="fill:rgb(128,128,128);fill-rule:nonzero;"/>
</svg>
