<?xml version="1.0" encoding="UTF-8" standalone="no"?>
<!DOCTYPE svg PUBLIC "-//W3C//DTD SVG 1.1//EN" "http://www.w3.org/Graphics/SVG/1.1/DTD/svg11.dtd">
<svg width="100%" height="100%" viewBox="0 0 2065 584" version="1.1" xmlns="http://www.w3.org/2000/svg" xmlns:xlink="http://www.w3.org/1999/xlink" xml:space="preserve" xmlns:serif="http://www.serif.com/" style="fill-rule:evenodd;clip-rule:evenodd;stroke-linecap:square;stroke-linejoin:round;stroke-miterlimit:10;">
    <rect id="Clementini-Line-Lines" serif:id="Clementini Line-Lines" x="-281.849" y="-3754" width="2683.8" height="4624" style="fill:none;"/>
    <path d="M1197,227.851L1229,141L1302,141L1352.14,225.851L1303.15,333.851L1221.96,333.851L1120.94,237.851L979.178,237.851" style="fill:none;stroke:rgb(247,0,255);stroke-width:10px;"/>
    <path d="M40.66,227.638L110,121L291,121L338.62,230.638L299.482,328.638L234.62,328.638L153.917,232.638" style="fill:none;stroke:rgb(21,183,183);stroke-width:10px;"/>
    <path d="M499.914,224.819L530,328.638L569.914,328.638L619.254,121L750.254,121L797.873,230.638L758.736,328.638L693.873,328.638L649.394,227.638" style="fill:none;stroke:rgb(21,183,183);stroke-width:10px;"/>
    <path d="M1352.14,227.851L979.178,227.851" style="fill:none;stroke:rgb(21,183,183);stroke-width:10px;"/>
    <path d="M339.62,227.638L40.66,227.638" style="fill:none;stroke:rgb(247,0,255);stroke-width:10px;"/>
    <path d="M798.873,222.638L499.914,222.638" style="fill:none;stroke:rgb(247,0,255);stroke-width:10px;"/>
    <g transform="matrix(1.20707,0,0,1.20707,-17163.1,-1751.61)">
        <g transform="matrix(48,0,0,48,14325.5,1796.71)">
            <rect x="0.129" y="-0.325" width="0.342" height="0.074" style="fill-rule:nonzero;"/>
        </g>
        <g transform="matrix(48,0,0,48,14383.1,1796.71)">
            <path d="M0.038,-0.351C0.038,-0.412 0.044,-0.465 0.057,-0.511C0.07,-0.556 0.088,-0.594 0.111,-0.624C0.133,-0.654 0.161,-0.677 0.193,-0.692C0.225,-0.707 0.261,-0.714 0.3,-0.714C0.384,-0.714 0.449,-0.685 0.494,-0.626C0.539,-0.567 0.562,-0.475 0.562,-0.351C0.562,-0.29 0.556,-0.236 0.543,-0.191C0.53,-0.145 0.513,-0.107 0.49,-0.077C0.466,-0.046 0.439,-0.024 0.407,-0.009C0.374,0.007 0.338,0.014 0.299,0.014C0.214,0.014 0.15,-0.017 0.105,-0.08C0.06,-0.142 0.038,-0.232 0.038,-0.351ZM0.434,-0.351C0.434,-0.362 0.434,-0.372 0.434,-0.382C0.433,-0.391 0.433,-0.401 0.432,-0.41L0.187,-0.187C0.208,-0.126 0.245,-0.096 0.3,-0.096C0.343,-0.096 0.376,-0.116 0.399,-0.157C0.422,-0.198 0.434,-0.262 0.434,-0.351ZM0.166,-0.351C0.166,-0.341 0.166,-0.332 0.167,-0.323C0.167,-0.314 0.167,-0.304 0.168,-0.295L0.412,-0.518C0.392,-0.575 0.354,-0.604 0.299,-0.604C0.256,-0.604 0.224,-0.584 0.201,-0.543C0.178,-0.501 0.166,-0.438 0.166,-0.351Z" style="fill-rule:nonzero;"/>
        </g>
        <g transform="matrix(48,0,0,48,14325.5,1868.71)">
            <path d="M0.038,-0.351C0.038,-0.412 0.044,-0.465 0.057,-0.511C0.07,-0.556 0.088,-0.594 0.111,-0.624C0.133,-0.654 0.161,-0.677 0.193,-0.692C0.225,-0.707 0.261,-0.714 0.3,-0.714C0.384,-0.714 0.449,-0.685 0.494,-0.626C0.539,-0.567 0.562,-0.475 0.562,-0.351C0.562,-0.29 0.556,-0.236 0.543,-0.191C0.53,-0.145 0.513,-0.107 0.49,-0.077C0.466,-0.046 0.439,-0.024 0.407,-0.009C0.374,0.007 0.338,0.014 0.299,0.014C0.214,0.014 0.15,-0.017 0.105,-0.08C0.06,-0.142 0.038,-0.232 0.038,-0.351ZM0.434,-0.351C0.434,-0.362 0.434,-0.372 0.434,-0.382C0.433,-0.391 0.433,-0.401 0.432,-0.41L0.187,-0.187C0.208,-0.126 0.245,-0.096 0.3,-0.096C0.343,-0.096 0.376,-0.116 0.399,-0.157C0.422,-0.198 0.434,-0.262 0.434,-0.351ZM0.166,-0.351C0.166,-0.341 0.166,-0.332 0.167,-0.323C0.167,-0.314 0.167,-0.304 0.168,-0.295L0.412,-0.518C0.392,-0.575 0.354,-0.604 0.299,-0.604C0.256,-0.604 0.224,-0.584 0.201,-0.543C0.178,-0.501 0.166,-0.438 0.166,-0.351Z" style="fill-rule:nonzero;"/>
        </g>
        <g transform="matrix(48,0,0,48,14383.1,1868.71)">
            <path d="M0.038,-0.351C0.038,-0.412 0.044,-0.465 0.057,-0.511C0.07,-0.556 0.088,-0.594 0.111,-0.624C0.133,-0.654 0.161,-0.677 0.193,-0.692C0.225,-0.707 0.261,-0.714 0.3,-0.714C0.384,-0.714 0.449,-0.685 0.494,-0.626C0.539,-0.567 0.562,-0.475 0.562,-0.351C0.562,-0.29 0.556,-0.236 0.543,-0.191C0.53,-0.145 0.513,-0.107 0.49,-0.077C0.466,-0.046 0.439,-0.024 0.407,-0.009C0.374,0.007 0.338,0.014 0.299,0.014C0.214,0.014 0.15,-0.017 0.105,-0.08C0.06,-0.142 0.038,-0.232 0.038,-0.351ZM0.434,-0.351C0.434,-0.362 0.434,-0.372 0.434,-0.382C0.433,-0.391 0.433,-0.401 0.432,-0.41L0.187,-0.187C0.208,-0.126 0.245,-0.096 0.3,-0.096C0.343,-0.096 0.376,-0.116 0.399,-0.157C0.422,-0.198 0.434,-0.262 0.434,-0.351ZM0.166,-0.351C0.166,-0.341 0.166,-0.332 0.167,-0.323C0.167,-0.314 0.167,-0.304 0.168,-0.295L0.412,-0.518C0.392,-0.575 0.354,-0.604 0.299,-0.604C0.256,-0.604 0.224,-0.584 0.201,-0.543C0.178,-0.501 0.166,-0.438 0.166,-0.351Z" style="fill-rule:nonzero;"/>
        </g>
    </g>
    <g transform="matrix(1.20707,0,0,1.20707,-16680.7,-1751.61)">
        <g transform="matrix(48,0,0,48,14325.5,1796.71)">
            <path d="M0.038,-0.351C0.038,-0.412 0.044,-0.465 0.057,-0.511C0.07,-0.556 0.088,-0.594 0.111,-0.624C0.133,-0.654 0.161,-0.677 0.193,-0.692C0.225,-0.707 0.261,-0.714 0.3,-0.714C0.384,-0.714 0.449,-0.685 0.494,-0.626C0.539,-0.567 0.562,-0.475 0.562,-0.351C0.562,-0.29 0.556,-0.236 0.543,-0.191C0.53,-0.145 0.513,-0.107 0.49,-0.077C0.466,-0.046 0.439,-0.024 0.407,-0.009C0.374,0.007 0.338,0.014 0.299,0.014C0.214,0.014 0.15,-0.017 0.105,-0.08C0.06,-0.142 0.038,-0.232 0.038,-0.351ZM0.434,-0.351C0.434,-0.362 0.434,-0.372 0.434,-0.382C0.433,-0.391 0.433,-0.401 0.432,-0.41L0.187,-0.187C0.208,-0.126 0.245,-0.096 0.3,-0.096C0.343,-0.096 0.376,-0.116 0.399,-0.157C0.422,-0.198 0.434,-0.262 0.434,-0.351ZM0.166,-0.351C0.166,-0.341 0.166,-0.332 0.167,-0.323C0.167,-0.314 0.167,-0.304 0.168,-0.295L0.412,-0.518C0.392,-0.575 0.354,-0.604 0.299,-0.604C0.256,-0.604 0.224,-0.584 0.201,-0.543C0.178,-0.501 0.166,-0.438 0.166,-0.351Z" style="fill-rule:nonzero;"/>
        </g>
        <g transform="matrix(48,0,0,48,14383.1,1796.71)">
            <path d="M0.038,-0.351C0.038,-0.412 0.044,-0.465 0.057,-0.511C0.07,-0.556 0.088,-0.594 0.111,-0.624C0.133,-0.654 0.161,-0.677 0.193,-0.692C0.225,-0.707 0.261,-0.714 0.3,-0.714C0.384,-0.714 0.449,-0.685 0.494,-0.626C0.539,-0.567 0.562,-0.475 0.562,-0.351C0.562,-0.29 0.556,-0.236 0.543,-0.191C0.53,-0.145 0.513,-0.107 0.49,-0.077C0.466,-0.046 0.439,-0.024 0.407,-0.009C0.374,0.007 0.338,0.014 0.299,0.014C0.214,0.014 0.15,-0.017 0.105,-0.08C0.06,-0.142 0.038,-0.232 0.038,-0.351ZM0.434,-0.351C0.434,-0.362 0.434,-0.372 0.434,-0.382C0.433,-0.391 0.433,-0.401 0.432,-0.41L0.187,-0.187C0.208,-0.126 0.245,-0.096 0.3,-0.096C0.343,-0.096 0.376,-0.116 0.399,-0.157C0.422,-0.198 0.434,-0.262 0.434,-0.351ZM0.166,-0.351C0.166,-0.341 0.166,-0.332 0.167,-0.323C0.167,-0.314 0.167,-0.304 0.168,-0.295L0.412,-0.518C0.392,-0.575 0.354,-0.604 0.299,-0.604C0.256,-0.604 0.224,-0.584 0.201,-0.543C0.178,-0.501 0.166,-0.438 0.166,-0.351Z" style="fill-rule:nonzero;"/>
        </g>
        <g transform="matrix(48,0,0,48,14325.5,1868.71)">
            <path d="M0.038,-0.351C0.038,-0.412 0.044,-0.465 0.057,-0.511C0.07,-0.556 0.088,-0.594 0.111,-0.624C0.133,-0.654 0.161,-0.677 0.193,-0.692C0.225,-0.707 0.261,-0.714 0.3,-0.714C0.384,-0.714 0.449,-0.685 0.494,-0.626C0.539,-0.567 0.562,-0.475 0.562,-0.351C0.562,-0.29 0.556,-0.236 0.543,-0.191C0.53,-0.145 0.513,-0.107 0.49,-0.077C0.466,-0.046 0.439,-0.024 0.407,-0.009C0.374,0.007 0.338,0.014 0.299,0.014C0.214,0.014 0.15,-0.017 0.105,-0.08C0.06,-0.142 0.038,-0.232 0.038,-0.351ZM0.434,-0.351C0.434,-0.362 0.434,-0.372 0.434,-0.382C0.433,-0.391 0.433,-0.401 0.432,-0.41L0.187,-0.187C0.208,-0.126 0.245,-0.096 0.3,-0.096C0.343,-0.096 0.376,-0.116 0.399,-0.157C0.422,-0.198 0.434,-0.262 0.434,-0.351ZM0.166,-0.351C0.166,-0.341 0.166,-0.332 0.167,-0.323C0.167,-0.314 0.167,-0.304 0.168,-0.295L0.412,-0.518C0.392,-0.575 0.354,-0.604 0.299,-0.604C0.256,-0.604 0.224,-0.584 0.201,-0.543C0.178,-0.501 0.166,-0.438 0.166,-0.351Z" style="fill-rule:nonzero;"/>
        </g>
        <g transform="matrix(48,0,0,48,14383.1,1868.71)">
            <path d="M0.038,-0.351C0.038,-0.412 0.044,-0.465 0.057,-0.511C0.07,-0.556 0.088,-0.594 0.111,-0.624C0.133,-0.654 0.161,-0.677 0.193,-0.692C0.225,-0.707 0.261,-0.714 0.3,-0.714C0.384,-0.714 0.449,-0.685 0.494,-0.626C0.539,-0.567 0.562,-0.475 0.562,-0.351C0.562,-0.29 0.556,-0.236 0.543,-0.191C0.53,-0.145 0.513,-0.107 0.49,-0.077C0.466,-0.046 0.439,-0.024 0.407,-0.009C0.374,0.007 0.338,0.014 0.299,0.014C0.214,0.014 0.15,-0.017 0.105,-0.08C0.06,-0.142 0.038,-0.232 0.038,-0.351ZM0.434,-0.351C0.434,-0.362 0.434,-0.372 0.434,-0.382C0.433,-0.391 0.433,-0.401 0.432,-0.41L0.187,-0.187C0.208,-0.126 0.245,-0.096 0.3,-0.096C0.343,-0.096 0.376,-0.116 0.399,-0.157C0.422,-0.198 0.434,-0.262 0.434,-0.351ZM0.166,-0.351C0.166,-0.341 0.166,-0.332 0.167,-0.323C0.167,-0.314 0.167,-0.304 0.168,-0.295L0.412,-0.518C0.392,-0.575 0.354,-0.604 0.299,-0.604C0.256,-0.604 0.224,-0.584 0.201,-0.543C0.178,-0.501 0.166,-0.438 0.166,-0.351Z" style="fill-rule:nonzero;"/>
        </g>
    </g>
    <g transform="matrix(1.20707,0,0,1.20707,-16152.8,-1751.61)">
        <g transform="matrix(48,0,0,48,14325.5,1796.71)">
            <path d="M0.106,-0.11L0.259,-0.11L0.259,-0.547L0.127,-0.446L0.067,-0.526L0.295,-0.7L0.383,-0.7L0.383,-0.11L0.533,-0.11L0.533,-0L0.106,-0L0.106,-0.11Z" style="fill-rule:nonzero;"/>
        </g>
        <g transform="matrix(48,0,0,48,14383.1,1796.71)">
            <path d="M0.038,-0.351C0.038,-0.412 0.044,-0.465 0.057,-0.511C0.07,-0.556 0.088,-0.594 0.111,-0.624C0.133,-0.654 0.161,-0.677 0.193,-0.692C0.225,-0.707 0.261,-0.714 0.3,-0.714C0.384,-0.714 0.449,-0.685 0.494,-0.626C0.539,-0.567 0.562,-0.475 0.562,-0.351C0.562,-0.29 0.556,-0.236 0.543,-0.191C0.53,-0.145 0.513,-0.107 0.49,-0.077C0.466,-0.046 0.439,-0.024 0.407,-0.009C0.374,0.007 0.338,0.014 0.299,0.014C0.214,0.014 0.15,-0.017 0.105,-0.08C0.06,-0.142 0.038,-0.232 0.038,-0.351ZM0.434,-0.351C0.434,-0.362 0.434,-0.372 0.434,-0.382C0.433,-0.391 0.433,-0.401 0.432,-0.41L0.187,-0.187C0.208,-0.126 0.245,-0.096 0.3,-0.096C0.343,-0.096 0.376,-0.116 0.399,-0.157C0.422,-0.198 0.434,-0.262 0.434,-0.351ZM0.166,-0.351C0.166,-0.341 0.166,-0.332 0.167,-0.323C0.167,-0.314 0.167,-0.304 0.168,-0.295L0.412,-0.518C0.392,-0.575 0.354,-0.604 0.299,-0.604C0.256,-0.604 0.224,-0.584 0.201,-0.543C0.178,-0.501 0.166,-0.438 0.166,-0.351Z" style="fill-rule:nonzero;"/>
        </g>
        <g transform="matrix(48,0,0,48,14325.5,1868.71)">
            <path d="M0.038,-0.351C0.038,-0.412 0.044,-0.465 0.057,-0.511C0.07,-0.556 0.088,-0.594 0.111,-0.624C0.133,-0.654 0.161,-0.677 0.193,-0.692C0.225,-0.707 0.261,-0.714 0.3,-0.714C0.384,-0.714 0.449,-0.685 0.494,-0.626C0.539,-0.567 0.562,-0.475 0.562,-0.351C0.562,-0.29 0.556,-0.236 0.543,-0.191C0.53,-0.145 0.513,-0.107 0.49,-0.077C0.466,-0.046 0.439,-0.024 0.407,-0.009C0.374,0.007 0.338,0.014 0.299,0.014C0.214,0.014 0.15,-0.017 0.105,-0.08C0.06,-0.142 0.038,-0.232 0.038,-0.351ZM0.434,-0.351C0.434,-0.362 0.434,-0.372 0.434,-0.382C0.433,-0.391 0.433,-0.401 0.432,-0.41L0.187,-0.187C0.208,-0.126 0.245,-0.096 0.3,-0.096C0.343,-0.096 0.376,-0.116 0.399,-0.157C0.422,-0.198 0.434,-0.262 0.434,-0.351ZM0.166,-0.351C0.166,-0.341 0.166,-0.332 0.167,-0.323C0.167,-0.314 0.167,-0.304 0.168,-0.295L0.412,-0.518C0.392,-0.575 0.354,-0.604 0.299,-0.604C0.256,-0.604 0.224,-0.584 0.201,-0.543C0.178,-0.501 0.166,-0.438 0.166,-0.351Z" style="fill-rule:nonzero;"/>
        </g>
        <g transform="matrix(48,0,0,48,14383.1,1868.71)">
            <path d="M0.038,-0.351C0.038,-0.412 0.044,-0.465 0.057,-0.511C0.07,-0.556 0.088,-0.594 0.111,-0.624C0.133,-0.654 0.161,-0.677 0.193,-0.692C0.225,-0.707 0.261,-0.714 0.3,-0.714C0.384,-0.714 0.449,-0.685 0.494,-0.626C0.539,-0.567 0.562,-0.475 0.562,-0.351C0.562,-0.29 0.556,-0.236 0.543,-0.191C0.53,-0.145 0.513,-0.107 0.49,-0.077C0.466,-0.046 0.439,-0.024 0.407,-0.009C0.374,0.007 0.338,0.014 0.299,0.014C0.214,0.014 0.15,-0.017 0.105,-0.08C0.06,-0.142 0.038,-0.232 0.038,-0.351ZM0.434,-0.351C0.434,-0.362 0.434,-0.372 0.434,-0.382C0.433,-0.391 0.433,-0.401 0.432,-0.41L0.187,-0.187C0.208,-0.126 0.245,-0.096 0.3,-0.096C0.343,-0.096 0.376,-0.116 0.399,-0.157C0.422,-0.198 0.434,-0.262 0.434,-0.351ZM0.166,-0.351C0.166,-0.341 0.166,-0.332 0.167,-0.323C0.167,-0.314 0.167,-0.304 0.168,-0.295L0.412,-0.518C0.392,-0.575 0.354,-0.604 0.299,-0.604C0.256,-0.604 0.224,-0.584 0.201,-0.543C0.178,-0.501 0.166,-0.438 0.166,-0.351Z" style="fill-rule:nonzero;"/>
        </g>
    </g>
    <path d="M176.796,63.38L176.796,60.665C176.796,58.543 177.037,56.759 177.518,55.314C178,53.868 178.846,52.26 180.057,50.489C181.268,48.718 182.238,47.351 182.968,46.388L186.132,42.208L187.264,40.743C188.124,39.584 188.866,38.243 189.491,36.72L173.768,36.72L173.768,33.067L193.007,33.067L193.007,35.489C193.007,36.453 192.815,37.345 192.43,38.165C192.046,38.985 190.884,40.737 188.944,43.419C188.475,44.057 188.013,44.695 187.557,45.333L185.526,48.185C184.224,50.021 183.261,51.485 182.636,52.579C182.011,53.673 181.539,54.812 181.22,55.997C180.9,57.182 180.741,58.738 180.741,60.665L180.741,63.38L176.796,63.38Z" style="fill:rgb(128,128,128);fill-rule:nonzero;"/>
    <path d="M212.85,47.286C211.913,48.679 210.751,49.815 209.364,50.694C207.977,51.573 206.451,52.013 204.784,52.013C203.208,52.013 201.714,51.632 200.302,50.87C198.889,50.108 197.811,49.037 197.069,47.657C196.327,46.277 195.956,44.675 195.956,42.853C195.956,39.988 196.877,37.491 198.72,35.362C200.562,33.233 202.987,32.169 205.995,32.169C209.537,32.169 212.183,33.65 213.934,36.612C215.686,39.575 216.561,43.341 216.561,47.911C216.561,52.963 215.448,56.957 213.221,59.894C210.995,62.83 207.981,64.298 204.178,64.298C202.134,64.298 200.149,63.992 198.221,63.38L198.221,59.728C200.383,60.743 202.421,61.251 204.335,61.251C207.043,61.251 209.139,60.008 210.624,57.521C212.108,55.034 212.85,51.883 212.85,48.067L212.85,47.286ZM205.721,35.196C204.745,35.196 203.762,35.486 202.772,36.065C201.783,36.645 201.005,37.534 200.438,38.731C199.872,39.929 199.589,41.244 199.589,42.677C199.589,44.513 200.067,46.023 201.024,47.208C201.981,48.393 203.345,48.985 205.116,48.985C206.952,48.985 208.459,48.299 209.637,46.925C210.816,45.551 211.405,43.888 211.405,41.935C211.405,39.955 210.829,38.338 209.677,37.081C208.524,35.825 207.206,35.196 205.721,35.196Z" style="fill:rgb(128,128,128);fill-rule:nonzero;"/>
    <path d="M637.779,47.032L637.115,46.544C636.191,45.893 635.286,44.933 634.4,43.663C633.515,42.394 633.072,40.997 633.072,39.474C633.072,37.455 633.866,35.733 635.455,34.308C637.043,32.882 639.062,32.169 641.51,32.169C643.007,32.169 644.355,32.439 645.552,32.98C646.75,33.52 647.675,34.317 648.326,35.372C648.977,36.427 649.302,37.579 649.302,38.829C649.302,39.689 649.153,40.519 648.853,41.319C648.554,42.12 648.108,42.914 647.515,43.702C646.923,44.49 645.748,45.6 643.99,47.032L645.631,48.341C647.545,49.903 648.834,51.251 649.498,52.384C650.162,53.517 650.494,54.786 650.494,56.192C650.494,58.38 649.7,60.278 648.111,61.886C646.523,63.494 644.14,64.298 640.963,64.298C637.773,64.298 635.383,63.546 633.795,62.042C632.206,60.538 631.412,58.673 631.412,56.446C631.412,53.126 633.534,49.988 637.779,47.032ZM641.51,45.177C643.345,43.784 644.495,42.618 644.957,41.681C645.419,40.743 645.65,39.871 645.65,39.064C645.65,38.087 645.22,37.198 644.361,36.397C643.502,35.597 642.395,35.196 641.041,35.196C639.582,35.196 638.472,35.633 637.711,36.505C636.949,37.377 636.568,38.282 636.568,39.22C636.568,40.131 636.887,40.991 637.525,41.798C638.163,42.605 639.185,43.51 640.592,44.513L641.51,45.177ZM640.513,48.966C637.076,51.609 635.357,54.083 635.357,56.388C635.357,57.755 635.924,58.907 637.056,59.845C638.189,60.782 639.53,61.251 641.08,61.251C642.499,61.251 643.769,60.802 644.888,59.903C646.008,59.005 646.568,57.885 646.568,56.544C646.568,55.229 645.888,53.894 644.527,52.54C643.166,51.186 642.219,50.3 641.685,49.884L640.513,48.966Z" style="fill:rgb(128,128,128);fill-rule:nonzero;"/>
    <path d="M664.81,32.169C668.261,32.169 670.891,33.618 672.701,36.515C674.511,39.412 675.416,43.315 675.416,48.224C675.416,53.146 674.511,57.055 672.701,59.952C670.891,62.849 668.261,64.298 664.81,64.298C661.373,64.298 658.746,62.849 656.929,59.952C655.113,57.055 654.205,53.146 654.205,48.224C654.205,43.315 655.113,39.412 656.929,36.515C658.746,33.618 661.373,32.169 664.81,32.169ZM658.892,54.708L669.381,38.282C668.717,37.071 667.997,36.254 667.222,35.831C666.448,35.408 665.644,35.196 664.81,35.196C662.636,35.196 660.982,36.404 659.849,38.819C658.717,41.235 658.15,44.298 658.15,48.009C658.15,48.855 658.176,49.767 658.228,50.743C658.28,51.72 658.502,53.041 658.892,54.708ZM670.689,41.896L660.279,58.419C660.839,59.369 661.483,60.082 662.213,60.558C662.942,61.033 663.756,61.271 664.654,61.271C667.128,61.271 668.886,59.887 669.927,57.12C670.969,54.353 671.49,51.284 671.49,47.911C671.49,45.828 671.223,43.823 670.689,41.896Z" style="fill:rgb(128,128,128);fill-rule:nonzero;"/>
    <path d="M1173.19,47.032L1172.52,46.544C1171.6,45.893 1170.69,44.933 1169.81,43.663C1168.92,42.394 1168.48,40.997 1168.48,39.474C1168.48,37.455 1169.27,35.733 1170.86,34.308C1172.45,32.882 1174.47,32.169 1176.92,32.169C1178.41,32.169 1179.76,32.439 1180.96,32.98C1182.16,33.52 1183.08,34.317 1183.73,35.372C1184.38,36.427 1184.71,37.579 1184.71,38.829C1184.71,39.689 1184.56,40.519 1184.26,41.319C1183.96,42.12 1183.52,42.914 1182.92,43.702C1182.33,44.49 1181.16,45.6 1179.4,47.032L1181.04,48.341C1182.95,49.903 1184.24,51.251 1184.91,52.384C1185.57,53.517 1185.9,54.786 1185.9,56.192C1185.9,58.38 1185.11,60.278 1183.52,61.886C1181.93,63.494 1179.55,64.298 1176.37,64.298C1173.18,64.298 1170.79,63.546 1169.2,62.042C1167.61,60.538 1166.82,58.673 1166.82,56.446C1166.82,53.126 1168.94,49.988 1173.19,47.032ZM1176.92,45.177C1178.75,43.784 1179.9,42.618 1180.37,41.681C1180.83,40.743 1181.06,39.871 1181.06,39.064C1181.06,38.087 1180.63,37.198 1179.77,36.397C1178.91,35.597 1177.8,35.196 1176.45,35.196C1174.99,35.196 1173.88,35.633 1173.12,36.505C1172.36,37.377 1171.98,38.282 1171.98,39.22C1171.98,40.131 1172.3,40.991 1172.93,41.798C1173.57,42.605 1174.59,43.51 1176,44.513L1176.92,45.177ZM1175.92,48.966C1172.48,51.609 1170.77,54.083 1170.77,56.388C1170.77,57.755 1171.33,58.907 1172.46,59.845C1173.6,60.782 1174.94,61.251 1176.49,61.251C1177.91,61.251 1179.18,60.802 1180.3,59.903C1181.42,59.005 1181.98,57.885 1181.98,56.544C1181.98,55.229 1181.3,53.894 1179.93,52.54C1178.57,51.186 1177.63,50.3 1177.09,49.884L1175.92,48.966Z" style="fill:rgb(128,128,128);fill-rule:nonzero;"/>
    <path d="M1199.32,60.353L1199.32,36.954C1198.23,37.827 1197.16,38.569 1196.14,39.181C1195.11,39.793 1193.69,40.418 1191.9,41.056L1191.9,37.774C1194.75,36.564 1197.22,34.994 1199.32,33.067L1202.95,33.067L1202.95,60.353L1210.24,60.353L1210.24,63.38L1191.9,63.38L1191.9,60.353L1199.32,60.353Z" style="fill:rgb(128,128,128);fill-rule:nonzero;"/>
</svg>
