<?xml version="1.0" encoding="UTF-8" standalone="no"?>
<!DOCTYPE svg PUBLIC "-//W3C//DTD SVG 1.1//EN" "http://www.w3.org/Graphics/SVG/1.1/DTD/svg11.dtd">
<svg width="100%" height="100%" viewBox="0 0 2065 1115" version="1.1" xmlns="http://www.w3.org/2000/svg" xmlns:xlink="http://www.w3.org/1999/xlink" xml:space="preserve" xmlns:serif="http://www.serif.com/" style="fill-rule:evenodd;clip-rule:evenodd;stroke-linecap:square;stroke-linejoin:round;stroke-miterlimit:10;">
    <rect id="Clementini-Line-Lines" serif:id="Clementini Line-Lines" x="-281.849" y="-1367" width="2683.8" height="4624" style="fill:none;"/>
    <path d="M344.959,817.5L46,817.5L9,724L175,724L228.699,767.829" style="fill:none;stroke:rgb(21,183,183);stroke-width:10px;"/>
    <path d="M816.064,817.5L517.105,817.5" style="fill:none;stroke:rgb(21,183,183);stroke-width:10px;"/>
    <path d="M1276.29,817.5L977.328,817.5" style="fill:none;stroke:rgb(21,183,183);stroke-width:10px;"/>
    <path d="M439.813,233.991L644.728,179.084" style="fill:none;stroke:rgb(247,0,255);stroke-width:10px;"/>
    <path d="M1430.28,282.444L1657.2,206.538" style="fill:none;stroke:rgb(247,0,255);stroke-width:10px;"/>
    <path d="M1785.96,282.444L2012.88,206.538" style="fill:none;stroke:rgb(247,0,255);stroke-width:10px;"/>
    <path d="M754.217,233.991L959.132,179.084" style="fill:none;stroke:rgb(247,0,255);stroke-width:10px;"/>
    <path d="M1213.27,316.776L1149.55,336L1080.31,252.545L1317.66,188.945" style="fill:none;stroke:rgb(247,0,255);stroke-width:10px;"/>
    <path d="M79.734,248.985L131.943,336L210.256,336L250.654,240.284L213.42,124.791L169.606,124L130.361,169.09" style="fill:none;stroke:rgb(21,183,183);stroke-width:10px;"/>
    <path d="M1465.5,895.028L1575.86,895.028L1653.5,855.886L1653.5,722.894" style="fill:none;stroke:rgb(21,183,183);stroke-width:10px;"/>
    <path d="M1936.56,895.028L2014.2,855.886L2014.2,722.894" style="fill:none;stroke:rgb(21,183,183);stroke-width:10px;"/>
    <path d="M1465.5,895.028L1653.5,722.894" style="fill:none;stroke:rgb(247,0,255);stroke-width:10px;"/>
    <path d="M1826.2,895.028L2014.2,722.894" style="fill:none;stroke:rgb(247,0,255);stroke-width:10px;"/>
    <path d="M250.654,240.284L130.361,169.09L79.734,248.985L41.764,336L131.943,336" style="fill:none;stroke:rgb(247,0,255);stroke-width:10px;"/>
    <path d="M542.27,206.538L504,123L439.813,130L439.813,233.991L531.413,353" style="fill:none;stroke:rgb(21,183,183);stroke-width:10px;"/>
    <path d="M856.675,206.538L818.405,123L754.217,130L754.217,233.991L845.818,353L913,336L922.332,188.945" style="fill:none;stroke:rgb(21,183,183);stroke-width:10px;"/>
    <path d="M1252.01,206.538L1213.74,123L1149.55,130L1149.55,233.991L1241.15,353L1308.33,336L1317.66,188.945" style="fill:none;stroke:rgb(21,183,183);stroke-width:10px;"/>
    <path d="M1467.44,265.375L1473.66,146.449L1532.82,125.813L1588,320.038L1657.2,286.048L1657.2,123.038" style="fill:none;stroke:rgb(21,183,183);stroke-width:10px;"/>
    <path d="M1823.12,265.375L1829.34,146.449L1888.51,125.813L1943.69,320.038L2012.88,286.048L2012.88,123.038L1958,123L1968.04,221.538" style="fill:none;stroke:rgb(21,183,183);stroke-width:10px;"/>
    <path d="M137,826L203,826L259,733L321,733L362,893L299,920L248,826.5" style="fill:none;stroke:rgb(247,0,255);stroke-width:10px;"/>
    <path d="M608.105,826L674.105,826L730.105,733L792.105,733L833.105,893L770.105,920L719.105,826.5" style="fill:none;stroke:rgb(247,0,255);stroke-width:10px;"/>
    <path d="M1068.33,826L1134.33,826L1190.33,733L1252.33,733L1293.33,893" style="fill:none;stroke:rgb(247,0,255);stroke-width:10px;"/>
    <g transform="matrix(1.20707,0,0,1.20707,-17199.1,-1750.26)">
        <g transform="matrix(48,0,0,48,14325.5,1796.71)">
            <rect x="0.088" y="-0.325" width="0.424" height="0.074" style="fill:rgb(242,0,0);fill-rule:nonzero;"/>
        </g>
        <g transform="matrix(48,0,0,48,14383.1,1796.71)">
            <path d="M0.055,-0.35C0.055,-0.407 0.06,-0.458 0.07,-0.503C0.08,-0.548 0.095,-0.586 0.115,-0.617C0.135,-0.648 0.16,-0.671 0.191,-0.688C0.222,-0.704 0.258,-0.712 0.3,-0.712C0.345,-0.712 0.383,-0.704 0.414,-0.688C0.445,-0.672 0.47,-0.649 0.489,-0.618C0.508,-0.587 0.522,-0.55 0.531,-0.505C0.54,-0.46 0.544,-0.408 0.544,-0.35C0.544,-0.293 0.539,-0.243 0.529,-0.198C0.519,-0.153 0.504,-0.115 0.484,-0.084C0.464,-0.053 0.439,-0.029 0.408,-0.013C0.377,0.004 0.341,0.012 0.299,0.012C0.255,0.012 0.218,0.003 0.187,-0.015C0.156,-0.032 0.13,-0.057 0.111,-0.089C0.091,-0.121 0.077,-0.159 0.068,-0.204C0.059,-0.248 0.055,-0.297 0.055,-0.35ZM0.462,-0.35C0.462,-0.385 0.46,-0.419 0.456,-0.451L0.159,-0.18C0.17,-0.142 0.187,-0.112 0.21,-0.089C0.233,-0.066 0.262,-0.055 0.299,-0.055C0.358,-0.055 0.4,-0.079 0.425,-0.128C0.45,-0.177 0.462,-0.251 0.462,-0.35ZM0.138,-0.35C0.138,-0.333 0.139,-0.317 0.14,-0.302C0.141,-0.287 0.142,-0.272 0.143,-0.257L0.441,-0.527C0.43,-0.563 0.413,-0.592 0.391,-0.613C0.368,-0.634 0.338,-0.645 0.3,-0.645C0.241,-0.645 0.199,-0.62 0.175,-0.572C0.15,-0.523 0.138,-0.449 0.138,-0.35Z" style="fill:rgb(242,0,0);fill-rule:nonzero;"/>
        </g>
        <g transform="matrix(48,0,0,48,14325.5,1868.71)">
            <path d="M0.055,-0.35C0.055,-0.407 0.06,-0.458 0.07,-0.503C0.08,-0.548 0.095,-0.586 0.115,-0.617C0.135,-0.648 0.16,-0.671 0.191,-0.688C0.222,-0.704 0.258,-0.712 0.3,-0.712C0.345,-0.712 0.383,-0.704 0.414,-0.688C0.445,-0.672 0.47,-0.649 0.489,-0.618C0.508,-0.587 0.522,-0.55 0.531,-0.505C0.54,-0.46 0.544,-0.408 0.544,-0.35C0.544,-0.293 0.539,-0.243 0.529,-0.198C0.519,-0.153 0.504,-0.115 0.484,-0.084C0.464,-0.053 0.439,-0.029 0.408,-0.013C0.377,0.004 0.341,0.012 0.299,0.012C0.255,0.012 0.218,0.003 0.187,-0.015C0.156,-0.032 0.13,-0.057 0.111,-0.089C0.091,-0.121 0.077,-0.159 0.068,-0.204C0.059,-0.248 0.055,-0.297 0.055,-0.35ZM0.462,-0.35C0.462,-0.385 0.46,-0.419 0.456,-0.451L0.159,-0.18C0.17,-0.142 0.187,-0.112 0.21,-0.089C0.233,-0.066 0.262,-0.055 0.299,-0.055C0.358,-0.055 0.4,-0.079 0.425,-0.128C0.45,-0.177 0.462,-0.251 0.462,-0.35ZM0.138,-0.35C0.138,-0.333 0.139,-0.317 0.14,-0.302C0.141,-0.287 0.142,-0.272 0.143,-0.257L0.441,-0.527C0.43,-0.563 0.413,-0.592 0.391,-0.613C0.368,-0.634 0.338,-0.645 0.3,-0.645C0.241,-0.645 0.199,-0.62 0.175,-0.572C0.15,-0.523 0.138,-0.449 0.138,-0.35Z" style="fill:rgb(242,0,0);fill-rule:nonzero;"/>
        </g>
        <g transform="matrix(48,0,0,48,14383.1,1868.71)">
            <rect x="0.088" y="-0.325" width="0.424" height="0.074" style="fill:rgb(242,0,0);fill-rule:nonzero;"/>
        </g>
    </g>
    <g transform="matrix(1.20707,0,0,1.20707,-17148.9,-1187.63)">
        <g transform="matrix(48,0,0,48,14325.5,1796.71)">
            <path d="M0.127,-0.072L0.284,-0.072L0.284,-0.598L0.124,-0.486L0.085,-0.543L0.305,-0.7L0.361,-0.7L0.361,-0.072L0.515,-0.072L0.515,-0L0.127,-0L0.127,-0.072Z" style="fill:rgb(242,0,0);fill-rule:nonzero;"/>
        </g>
        <g transform="matrix(48,0,0,48,14383.1,1796.71)">
            <path d="M0.055,-0.35C0.055,-0.407 0.06,-0.458 0.07,-0.503C0.08,-0.548 0.095,-0.586 0.115,-0.617C0.135,-0.648 0.16,-0.671 0.191,-0.688C0.222,-0.704 0.258,-0.712 0.3,-0.712C0.345,-0.712 0.383,-0.704 0.414,-0.688C0.445,-0.672 0.47,-0.649 0.489,-0.618C0.508,-0.587 0.522,-0.55 0.531,-0.505C0.54,-0.46 0.544,-0.408 0.544,-0.35C0.544,-0.293 0.539,-0.243 0.529,-0.198C0.519,-0.153 0.504,-0.115 0.484,-0.084C0.464,-0.053 0.439,-0.029 0.408,-0.013C0.377,0.004 0.341,0.012 0.299,0.012C0.255,0.012 0.218,0.003 0.187,-0.015C0.156,-0.032 0.13,-0.057 0.111,-0.089C0.091,-0.121 0.077,-0.159 0.068,-0.204C0.059,-0.248 0.055,-0.297 0.055,-0.35ZM0.462,-0.35C0.462,-0.385 0.46,-0.419 0.456,-0.451L0.159,-0.18C0.17,-0.142 0.187,-0.112 0.21,-0.089C0.233,-0.066 0.262,-0.055 0.299,-0.055C0.358,-0.055 0.4,-0.079 0.425,-0.128C0.45,-0.177 0.462,-0.251 0.462,-0.35ZM0.138,-0.35C0.138,-0.333 0.139,-0.317 0.14,-0.302C0.141,-0.287 0.142,-0.272 0.143,-0.257L0.441,-0.527C0.43,-0.563 0.413,-0.592 0.391,-0.613C0.368,-0.634 0.338,-0.645 0.3,-0.645C0.241,-0.645 0.199,-0.62 0.175,-0.572C0.15,-0.523 0.138,-0.449 0.138,-0.35Z" style="fill:rgb(242,0,0);fill-rule:nonzero;"/>
        </g>
        <g transform="matrix(48,0,0,48,14325.5,1868.71)">
            <path d="M0.055,-0.35C0.055,-0.407 0.06,-0.458 0.07,-0.503C0.08,-0.548 0.095,-0.586 0.115,-0.617C0.135,-0.648 0.16,-0.671 0.191,-0.688C0.222,-0.704 0.258,-0.712 0.3,-0.712C0.345,-0.712 0.383,-0.704 0.414,-0.688C0.445,-0.672 0.47,-0.649 0.489,-0.618C0.508,-0.587 0.522,-0.55 0.531,-0.505C0.54,-0.46 0.544,-0.408 0.544,-0.35C0.544,-0.293 0.539,-0.243 0.529,-0.198C0.519,-0.153 0.504,-0.115 0.484,-0.084C0.464,-0.053 0.439,-0.029 0.408,-0.013C0.377,0.004 0.341,0.012 0.299,0.012C0.255,0.012 0.218,0.003 0.187,-0.015C0.156,-0.032 0.13,-0.057 0.111,-0.089C0.091,-0.121 0.077,-0.159 0.068,-0.204C0.059,-0.248 0.055,-0.297 0.055,-0.35ZM0.462,-0.35C0.462,-0.385 0.46,-0.419 0.456,-0.451L0.159,-0.18C0.17,-0.142 0.187,-0.112 0.21,-0.089C0.233,-0.066 0.262,-0.055 0.299,-0.055C0.358,-0.055 0.4,-0.079 0.425,-0.128C0.45,-0.177 0.462,-0.251 0.462,-0.35ZM0.138,-0.35C0.138,-0.333 0.139,-0.317 0.14,-0.302C0.141,-0.287 0.142,-0.272 0.143,-0.257L0.441,-0.527C0.43,-0.563 0.413,-0.592 0.391,-0.613C0.368,-0.634 0.338,-0.645 0.3,-0.645C0.241,-0.645 0.199,-0.62 0.175,-0.572C0.15,-0.523 0.138,-0.449 0.138,-0.35Z" style="fill:rgb(242,0,0);fill-rule:nonzero;"/>
        </g>
        <g transform="matrix(48,0,0,48,14383.1,1868.71)">
            <rect x="0.088" y="-0.325" width="0.424" height="0.074" style="fill:rgb(242,0,0);fill-rule:nonzero;"/>
        </g>
    </g>
    <g transform="matrix(1.20707,0,0,1.20707,-16668.6,-1187.63)">
        <g transform="matrix(48,0,0,48,14325.5,1796.71)">
            <path d="M0.127,-0.072L0.284,-0.072L0.284,-0.598L0.124,-0.486L0.085,-0.543L0.305,-0.7L0.361,-0.7L0.361,-0.072L0.515,-0.072L0.515,-0L0.127,-0L0.127,-0.072Z" style="fill:rgb(242,0,0);fill-rule:nonzero;"/>
        </g>
        <g transform="matrix(48,0,0,48,14383.1,1796.71)">
            <path d="M0.055,-0.35C0.055,-0.407 0.06,-0.458 0.07,-0.503C0.08,-0.548 0.095,-0.586 0.115,-0.617C0.135,-0.648 0.16,-0.671 0.191,-0.688C0.222,-0.704 0.258,-0.712 0.3,-0.712C0.345,-0.712 0.383,-0.704 0.414,-0.688C0.445,-0.672 0.47,-0.649 0.489,-0.618C0.508,-0.587 0.522,-0.55 0.531,-0.505C0.54,-0.46 0.544,-0.408 0.544,-0.35C0.544,-0.293 0.539,-0.243 0.529,-0.198C0.519,-0.153 0.504,-0.115 0.484,-0.084C0.464,-0.053 0.439,-0.029 0.408,-0.013C0.377,0.004 0.341,0.012 0.299,0.012C0.255,0.012 0.218,0.003 0.187,-0.015C0.156,-0.032 0.13,-0.057 0.111,-0.089C0.091,-0.121 0.077,-0.159 0.068,-0.204C0.059,-0.248 0.055,-0.297 0.055,-0.35ZM0.462,-0.35C0.462,-0.385 0.46,-0.419 0.456,-0.451L0.159,-0.18C0.17,-0.142 0.187,-0.112 0.21,-0.089C0.233,-0.066 0.262,-0.055 0.299,-0.055C0.358,-0.055 0.4,-0.079 0.425,-0.128C0.45,-0.177 0.462,-0.251 0.462,-0.35ZM0.138,-0.35C0.138,-0.333 0.139,-0.317 0.14,-0.302C0.141,-0.287 0.142,-0.272 0.143,-0.257L0.441,-0.527C0.43,-0.563 0.413,-0.592 0.391,-0.613C0.368,-0.634 0.338,-0.645 0.3,-0.645C0.241,-0.645 0.199,-0.62 0.175,-0.572C0.15,-0.523 0.138,-0.449 0.138,-0.35Z" style="fill:rgb(242,0,0);fill-rule:nonzero;"/>
        </g>
        <g transform="matrix(48,0,0,48,14325.5,1868.71)">
            <path d="M0.055,-0.35C0.055,-0.407 0.06,-0.458 0.07,-0.503C0.08,-0.548 0.095,-0.586 0.115,-0.617C0.135,-0.648 0.16,-0.671 0.191,-0.688C0.222,-0.704 0.258,-0.712 0.3,-0.712C0.345,-0.712 0.383,-0.704 0.414,-0.688C0.445,-0.672 0.47,-0.649 0.489,-0.618C0.508,-0.587 0.522,-0.55 0.531,-0.505C0.54,-0.46 0.544,-0.408 0.544,-0.35C0.544,-0.293 0.539,-0.243 0.529,-0.198C0.519,-0.153 0.504,-0.115 0.484,-0.084C0.464,-0.053 0.439,-0.029 0.408,-0.013C0.377,0.004 0.341,0.012 0.299,0.012C0.255,0.012 0.218,0.003 0.187,-0.015C0.156,-0.032 0.13,-0.057 0.111,-0.089C0.091,-0.121 0.077,-0.159 0.068,-0.204C0.059,-0.248 0.055,-0.297 0.055,-0.35ZM0.462,-0.35C0.462,-0.385 0.46,-0.419 0.456,-0.451L0.159,-0.18C0.17,-0.142 0.187,-0.112 0.21,-0.089C0.233,-0.066 0.262,-0.055 0.299,-0.055C0.358,-0.055 0.4,-0.079 0.425,-0.128C0.45,-0.177 0.462,-0.251 0.462,-0.35ZM0.138,-0.35C0.138,-0.333 0.139,-0.317 0.14,-0.302C0.141,-0.287 0.142,-0.272 0.143,-0.257L0.441,-0.527C0.43,-0.563 0.413,-0.592 0.391,-0.613C0.368,-0.634 0.338,-0.645 0.3,-0.645C0.241,-0.645 0.199,-0.62 0.175,-0.572C0.15,-0.523 0.138,-0.449 0.138,-0.35Z" style="fill:rgb(242,0,0);fill-rule:nonzero;"/>
        </g>
        <g transform="matrix(48,0,0,48,14383.1,1868.71)">
            <rect x="0.088" y="-0.325" width="0.424" height="0.074" style="fill:rgb(242,0,0);fill-rule:nonzero;"/>
        </g>
    </g>
    <g transform="matrix(1.20707,0,0,1.20707,-16226.1,-1187.63)">
        <g transform="matrix(48,0,0,48,14325.5,1796.71)">
            <path d="M0.127,-0.072L0.284,-0.072L0.284,-0.598L0.124,-0.486L0.085,-0.543L0.305,-0.7L0.361,-0.7L0.361,-0.072L0.515,-0.072L0.515,-0L0.127,-0L0.127,-0.072Z" style="fill:rgb(242,0,0);fill-rule:nonzero;"/>
        </g>
        <g transform="matrix(48,0,0,48,14383.1,1796.71)">
            <path d="M0.055,-0.35C0.055,-0.407 0.06,-0.458 0.07,-0.503C0.08,-0.548 0.095,-0.586 0.115,-0.617C0.135,-0.648 0.16,-0.671 0.191,-0.688C0.222,-0.704 0.258,-0.712 0.3,-0.712C0.345,-0.712 0.383,-0.704 0.414,-0.688C0.445,-0.672 0.47,-0.649 0.489,-0.618C0.508,-0.587 0.522,-0.55 0.531,-0.505C0.54,-0.46 0.544,-0.408 0.544,-0.35C0.544,-0.293 0.539,-0.243 0.529,-0.198C0.519,-0.153 0.504,-0.115 0.484,-0.084C0.464,-0.053 0.439,-0.029 0.408,-0.013C0.377,0.004 0.341,0.012 0.299,0.012C0.255,0.012 0.218,0.003 0.187,-0.015C0.156,-0.032 0.13,-0.057 0.111,-0.089C0.091,-0.121 0.077,-0.159 0.068,-0.204C0.059,-0.248 0.055,-0.297 0.055,-0.35ZM0.462,-0.35C0.462,-0.385 0.46,-0.419 0.456,-0.451L0.159,-0.18C0.17,-0.142 0.187,-0.112 0.21,-0.089C0.233,-0.066 0.262,-0.055 0.299,-0.055C0.358,-0.055 0.4,-0.079 0.425,-0.128C0.45,-0.177 0.462,-0.251 0.462,-0.35ZM0.138,-0.35C0.138,-0.333 0.139,-0.317 0.14,-0.302C0.141,-0.287 0.142,-0.272 0.143,-0.257L0.441,-0.527C0.43,-0.563 0.413,-0.592 0.391,-0.613C0.368,-0.634 0.338,-0.645 0.3,-0.645C0.241,-0.645 0.199,-0.62 0.175,-0.572C0.15,-0.523 0.138,-0.449 0.138,-0.35Z" style="fill:rgb(242,0,0);fill-rule:nonzero;"/>
        </g>
        <g transform="matrix(48,0,0,48,14325.5,1868.71)">
            <path d="M0.055,-0.35C0.055,-0.407 0.06,-0.458 0.07,-0.503C0.08,-0.548 0.095,-0.586 0.115,-0.617C0.135,-0.648 0.16,-0.671 0.191,-0.688C0.222,-0.704 0.258,-0.712 0.3,-0.712C0.345,-0.712 0.383,-0.704 0.414,-0.688C0.445,-0.672 0.47,-0.649 0.489,-0.618C0.508,-0.587 0.522,-0.55 0.531,-0.505C0.54,-0.46 0.544,-0.408 0.544,-0.35C0.544,-0.293 0.539,-0.243 0.529,-0.198C0.519,-0.153 0.504,-0.115 0.484,-0.084C0.464,-0.053 0.439,-0.029 0.408,-0.013C0.377,0.004 0.341,0.012 0.299,0.012C0.255,0.012 0.218,0.003 0.187,-0.015C0.156,-0.032 0.13,-0.057 0.111,-0.089C0.091,-0.121 0.077,-0.159 0.068,-0.204C0.059,-0.248 0.055,-0.297 0.055,-0.35ZM0.462,-0.35C0.462,-0.385 0.46,-0.419 0.456,-0.451L0.159,-0.18C0.17,-0.142 0.187,-0.112 0.21,-0.089C0.233,-0.066 0.262,-0.055 0.299,-0.055C0.358,-0.055 0.4,-0.079 0.425,-0.128C0.45,-0.177 0.462,-0.251 0.462,-0.35ZM0.138,-0.35C0.138,-0.333 0.139,-0.317 0.14,-0.302C0.141,-0.287 0.142,-0.272 0.143,-0.257L0.441,-0.527C0.43,-0.563 0.413,-0.592 0.391,-0.613C0.368,-0.634 0.338,-0.645 0.3,-0.645C0.241,-0.645 0.199,-0.62 0.175,-0.572C0.15,-0.523 0.138,-0.449 0.138,-0.35Z" style="fill:rgb(242,0,0);fill-rule:nonzero;"/>
        </g>
        <g transform="matrix(48,0,0,48,14383.1,1868.71)">
            <rect x="0.088" y="-0.325" width="0.424" height="0.074" style="fill:rgb(242,0,0);fill-rule:nonzero;"/>
        </g>
    </g>
    <g transform="matrix(1.20707,0,0,1.20707,-15783.9,-1187.63)">
        <g transform="matrix(48,0,0,48,14325.5,1796.71)">
            <rect x="0.088" y="-0.325" width="0.424" height="0.074" style="fill:rgb(0,122,229);fill-rule:nonzero;"/>
        </g>
        <g transform="matrix(48,0,0,48,14383.1,1796.71)">
            <rect x="0.088" y="-0.325" width="0.424" height="0.074" style="fill:rgb(0,122,229);fill-rule:nonzero;"/>
        </g>
        <g transform="matrix(48,0,0,48,14325.5,1868.71)">
            <rect x="0.088" y="-0.325" width="0.424" height="0.074" style="fill:rgb(0,122,229);fill-rule:nonzero;"/>
        </g>
        <g transform="matrix(48,0,0,48,14383.1,1868.71)">
            <path d="M0.055,-0.35C0.055,-0.407 0.06,-0.458 0.07,-0.503C0.08,-0.548 0.095,-0.586 0.115,-0.617C0.135,-0.648 0.16,-0.671 0.191,-0.688C0.222,-0.704 0.258,-0.712 0.3,-0.712C0.345,-0.712 0.383,-0.704 0.414,-0.688C0.445,-0.672 0.47,-0.649 0.489,-0.618C0.508,-0.587 0.522,-0.55 0.531,-0.505C0.54,-0.46 0.544,-0.408 0.544,-0.35C0.544,-0.293 0.539,-0.243 0.529,-0.198C0.519,-0.153 0.504,-0.115 0.484,-0.084C0.464,-0.053 0.439,-0.029 0.408,-0.013C0.377,0.004 0.341,0.012 0.299,0.012C0.255,0.012 0.218,0.003 0.187,-0.015C0.156,-0.032 0.13,-0.057 0.111,-0.089C0.091,-0.121 0.077,-0.159 0.068,-0.204C0.059,-0.248 0.055,-0.297 0.055,-0.35ZM0.462,-0.35C0.462,-0.385 0.46,-0.419 0.456,-0.451L0.159,-0.18C0.17,-0.142 0.187,-0.112 0.21,-0.089C0.233,-0.066 0.262,-0.055 0.299,-0.055C0.358,-0.055 0.4,-0.079 0.425,-0.128C0.45,-0.177 0.462,-0.251 0.462,-0.35ZM0.138,-0.35C0.138,-0.333 0.139,-0.317 0.14,-0.302C0.141,-0.287 0.142,-0.272 0.143,-0.257L0.441,-0.527C0.43,-0.563 0.413,-0.592 0.391,-0.613C0.368,-0.634 0.338,-0.645 0.3,-0.645C0.241,-0.645 0.199,-0.62 0.175,-0.572C0.15,-0.523 0.138,-0.449 0.138,-0.35Z" style="fill:rgb(0,122,229);fill-rule:nonzero;"/>
        </g>
    </g>
    <g transform="matrix(1.20707,0,0,1.20707,-15432.1,-1187.63)">
        <g transform="matrix(48,0,0,48,14325.5,1796.71)">
            <rect x="0.088" y="-0.325" width="0.424" height="0.074" style="fill:rgb(0,122,229);fill-rule:nonzero;"/>
        </g>
        <g transform="matrix(48,0,0,48,14383.1,1796.71)">
            <rect x="0.088" y="-0.325" width="0.424" height="0.074" style="fill:rgb(0,122,229);fill-rule:nonzero;"/>
        </g>
        <g transform="matrix(48,0,0,48,14325.5,1868.71)">
            <rect x="0.088" y="-0.325" width="0.424" height="0.074" style="fill:rgb(0,122,229);fill-rule:nonzero;"/>
        </g>
        <g transform="matrix(48,0,0,48,14383.1,1868.71)">
            <path d="M0.055,-0.35C0.055,-0.407 0.06,-0.458 0.07,-0.503C0.08,-0.548 0.095,-0.586 0.115,-0.617C0.135,-0.648 0.16,-0.671 0.191,-0.688C0.222,-0.704 0.258,-0.712 0.3,-0.712C0.345,-0.712 0.383,-0.704 0.414,-0.688C0.445,-0.672 0.47,-0.649 0.489,-0.618C0.508,-0.587 0.522,-0.55 0.531,-0.505C0.54,-0.46 0.544,-0.408 0.544,-0.35C0.544,-0.293 0.539,-0.243 0.529,-0.198C0.519,-0.153 0.504,-0.115 0.484,-0.084C0.464,-0.053 0.439,-0.029 0.408,-0.013C0.377,0.004 0.341,0.012 0.299,0.012C0.255,0.012 0.218,0.003 0.187,-0.015C0.156,-0.032 0.13,-0.057 0.111,-0.089C0.091,-0.121 0.077,-0.159 0.068,-0.204C0.059,-0.248 0.055,-0.297 0.055,-0.35ZM0.462,-0.35C0.462,-0.385 0.46,-0.419 0.456,-0.451L0.159,-0.18C0.17,-0.142 0.187,-0.112 0.21,-0.089C0.233,-0.066 0.262,-0.055 0.299,-0.055C0.358,-0.055 0.4,-0.079 0.425,-0.128C0.45,-0.177 0.462,-0.251 0.462,-0.35ZM0.138,-0.35C0.138,-0.333 0.139,-0.317 0.14,-0.302C0.141,-0.287 0.142,-0.272 0.143,-0.257L0.441,-0.527C0.43,-0.563 0.413,-0.592 0.391,-0.613C0.368,-0.634 0.338,-0.645 0.3,-0.645C0.241,-0.645 0.199,-0.62 0.175,-0.572C0.15,-0.523 0.138,-0.449 0.138,-0.35Z" style="fill:rgb(0,122,229);fill-rule:nonzero;"/>
        </g>
    </g>
    <g transform="matrix(1.20707,0,0,1.20707,-16815.9,-1750.26)">
        <g transform="matrix(48,0,0,48,14325.5,1796.71)">
            <rect x="0.088" y="-0.325" width="0.424" height="0.074" style="fill:rgb(242,0,0);fill-rule:nonzero;"/>
        </g>
        <g transform="matrix(48,0,0,48,14383.1,1796.71)">
            <path d="M0.055,-0.35C0.055,-0.407 0.06,-0.458 0.07,-0.503C0.08,-0.548 0.095,-0.586 0.115,-0.617C0.135,-0.648 0.16,-0.671 0.191,-0.688C0.222,-0.704 0.258,-0.712 0.3,-0.712C0.345,-0.712 0.383,-0.704 0.414,-0.688C0.445,-0.672 0.47,-0.649 0.489,-0.618C0.508,-0.587 0.522,-0.55 0.531,-0.505C0.54,-0.46 0.544,-0.408 0.544,-0.35C0.544,-0.293 0.539,-0.243 0.529,-0.198C0.519,-0.153 0.504,-0.115 0.484,-0.084C0.464,-0.053 0.439,-0.029 0.408,-0.013C0.377,0.004 0.341,0.012 0.299,0.012C0.255,0.012 0.218,0.003 0.187,-0.015C0.156,-0.032 0.13,-0.057 0.111,-0.089C0.091,-0.121 0.077,-0.159 0.068,-0.204C0.059,-0.248 0.055,-0.297 0.055,-0.35ZM0.462,-0.35C0.462,-0.385 0.46,-0.419 0.456,-0.451L0.159,-0.18C0.17,-0.142 0.187,-0.112 0.21,-0.089C0.233,-0.066 0.262,-0.055 0.299,-0.055C0.358,-0.055 0.4,-0.079 0.425,-0.128C0.45,-0.177 0.462,-0.251 0.462,-0.35ZM0.138,-0.35C0.138,-0.333 0.139,-0.317 0.14,-0.302C0.141,-0.287 0.142,-0.272 0.143,-0.257L0.441,-0.527C0.43,-0.563 0.413,-0.592 0.391,-0.613C0.368,-0.634 0.338,-0.645 0.3,-0.645C0.241,-0.645 0.199,-0.62 0.175,-0.572C0.15,-0.523 0.138,-0.449 0.138,-0.35Z" style="fill:rgb(242,0,0);fill-rule:nonzero;"/>
        </g>
        <g transform="matrix(48,0,0,48,14325.5,1868.71)">
            <path d="M0.055,-0.35C0.055,-0.407 0.06,-0.458 0.07,-0.503C0.08,-0.548 0.095,-0.586 0.115,-0.617C0.135,-0.648 0.16,-0.671 0.191,-0.688C0.222,-0.704 0.258,-0.712 0.3,-0.712C0.345,-0.712 0.383,-0.704 0.414,-0.688C0.445,-0.672 0.47,-0.649 0.489,-0.618C0.508,-0.587 0.522,-0.55 0.531,-0.505C0.54,-0.46 0.544,-0.408 0.544,-0.35C0.544,-0.293 0.539,-0.243 0.529,-0.198C0.519,-0.153 0.504,-0.115 0.484,-0.084C0.464,-0.053 0.439,-0.029 0.408,-0.013C0.377,0.004 0.341,0.012 0.299,0.012C0.255,0.012 0.218,0.003 0.187,-0.015C0.156,-0.032 0.13,-0.057 0.111,-0.089C0.091,-0.121 0.077,-0.159 0.068,-0.204C0.059,-0.248 0.055,-0.297 0.055,-0.35ZM0.462,-0.35C0.462,-0.385 0.46,-0.419 0.456,-0.451L0.159,-0.18C0.17,-0.142 0.187,-0.112 0.21,-0.089C0.233,-0.066 0.262,-0.055 0.299,-0.055C0.358,-0.055 0.4,-0.079 0.425,-0.128C0.45,-0.177 0.462,-0.251 0.462,-0.35ZM0.138,-0.35C0.138,-0.333 0.139,-0.317 0.14,-0.302C0.141,-0.287 0.142,-0.272 0.143,-0.257L0.441,-0.527C0.43,-0.563 0.413,-0.592 0.391,-0.613C0.368,-0.634 0.338,-0.645 0.3,-0.645C0.241,-0.645 0.199,-0.62 0.175,-0.572C0.15,-0.523 0.138,-0.449 0.138,-0.35Z" style="fill:rgb(242,0,0);fill-rule:nonzero;"/>
        </g>
        <g transform="matrix(48,0,0,48,14383.1,1868.71)">
            <rect x="0.088" y="-0.325" width="0.424" height="0.074" style="fill:rgb(242,0,0);fill-rule:nonzero;"/>
        </g>
    </g>
    <g transform="matrix(1.20707,0,0,1.20707,-16489.8,-1750.26)">
        <g transform="matrix(48,0,0,48,14325.5,1796.71)">
            <rect x="0.088" y="-0.325" width="0.424" height="0.074" style="fill:rgb(242,0,0);fill-rule:nonzero;"/>
        </g>
        <g transform="matrix(48,0,0,48,14383.1,1796.71)">
            <path d="M0.055,-0.35C0.055,-0.407 0.06,-0.458 0.07,-0.503C0.08,-0.548 0.095,-0.586 0.115,-0.617C0.135,-0.648 0.16,-0.671 0.191,-0.688C0.222,-0.704 0.258,-0.712 0.3,-0.712C0.345,-0.712 0.383,-0.704 0.414,-0.688C0.445,-0.672 0.47,-0.649 0.489,-0.618C0.508,-0.587 0.522,-0.55 0.531,-0.505C0.54,-0.46 0.544,-0.408 0.544,-0.35C0.544,-0.293 0.539,-0.243 0.529,-0.198C0.519,-0.153 0.504,-0.115 0.484,-0.084C0.464,-0.053 0.439,-0.029 0.408,-0.013C0.377,0.004 0.341,0.012 0.299,0.012C0.255,0.012 0.218,0.003 0.187,-0.015C0.156,-0.032 0.13,-0.057 0.111,-0.089C0.091,-0.121 0.077,-0.159 0.068,-0.204C0.059,-0.248 0.055,-0.297 0.055,-0.35ZM0.462,-0.35C0.462,-0.385 0.46,-0.419 0.456,-0.451L0.159,-0.18C0.17,-0.142 0.187,-0.112 0.21,-0.089C0.233,-0.066 0.262,-0.055 0.299,-0.055C0.358,-0.055 0.4,-0.079 0.425,-0.128C0.45,-0.177 0.462,-0.251 0.462,-0.35ZM0.138,-0.35C0.138,-0.333 0.139,-0.317 0.14,-0.302C0.141,-0.287 0.142,-0.272 0.143,-0.257L0.441,-0.527C0.43,-0.563 0.413,-0.592 0.391,-0.613C0.368,-0.634 0.338,-0.645 0.3,-0.645C0.241,-0.645 0.199,-0.62 0.175,-0.572C0.15,-0.523 0.138,-0.449 0.138,-0.35Z" style="fill:rgb(242,0,0);fill-rule:nonzero;"/>
        </g>
        <g transform="matrix(48,0,0,48,14325.5,1868.71)">
            <path d="M0.055,-0.35C0.055,-0.407 0.06,-0.458 0.07,-0.503C0.08,-0.548 0.095,-0.586 0.115,-0.617C0.135,-0.648 0.16,-0.671 0.191,-0.688C0.222,-0.704 0.258,-0.712 0.3,-0.712C0.345,-0.712 0.383,-0.704 0.414,-0.688C0.445,-0.672 0.47,-0.649 0.489,-0.618C0.508,-0.587 0.522,-0.55 0.531,-0.505C0.54,-0.46 0.544,-0.408 0.544,-0.35C0.544,-0.293 0.539,-0.243 0.529,-0.198C0.519,-0.153 0.504,-0.115 0.484,-0.084C0.464,-0.053 0.439,-0.029 0.408,-0.013C0.377,0.004 0.341,0.012 0.299,0.012C0.255,0.012 0.218,0.003 0.187,-0.015C0.156,-0.032 0.13,-0.057 0.111,-0.089C0.091,-0.121 0.077,-0.159 0.068,-0.204C0.059,-0.248 0.055,-0.297 0.055,-0.35ZM0.462,-0.35C0.462,-0.385 0.46,-0.419 0.456,-0.451L0.159,-0.18C0.17,-0.142 0.187,-0.112 0.21,-0.089C0.233,-0.066 0.262,-0.055 0.299,-0.055C0.358,-0.055 0.4,-0.079 0.425,-0.128C0.45,-0.177 0.462,-0.251 0.462,-0.35ZM0.138,-0.35C0.138,-0.333 0.139,-0.317 0.14,-0.302C0.141,-0.287 0.142,-0.272 0.143,-0.257L0.441,-0.527C0.43,-0.563 0.413,-0.592 0.391,-0.613C0.368,-0.634 0.338,-0.645 0.3,-0.645C0.241,-0.645 0.199,-0.62 0.175,-0.572C0.15,-0.523 0.138,-0.449 0.138,-0.35Z" style="fill:rgb(242,0,0);fill-rule:nonzero;"/>
        </g>
        <g transform="matrix(48,0,0,48,14383.1,1868.71)">
            <rect x="0.088" y="-0.325" width="0.424" height="0.074" style="fill:rgb(242,0,0);fill-rule:nonzero;"/>
        </g>
    </g>
    <g transform="matrix(1.20707,0,0,1.20707,-16113,-1750.26)">
        <g transform="matrix(48,0,0,48,14325.5,1796.71)">
            <path d="M0.055,-0.35C0.055,-0.407 0.06,-0.458 0.07,-0.503C0.08,-0.548 0.095,-0.586 0.115,-0.617C0.135,-0.648 0.16,-0.671 0.191,-0.688C0.222,-0.704 0.258,-0.712 0.3,-0.712C0.345,-0.712 0.383,-0.704 0.414,-0.688C0.445,-0.672 0.47,-0.649 0.489,-0.618C0.508,-0.587 0.522,-0.55 0.531,-0.505C0.54,-0.46 0.544,-0.408 0.544,-0.35C0.544,-0.293 0.539,-0.243 0.529,-0.198C0.519,-0.153 0.504,-0.115 0.484,-0.084C0.464,-0.053 0.439,-0.029 0.408,-0.013C0.377,0.004 0.341,0.012 0.299,0.012C0.255,0.012 0.218,0.003 0.187,-0.015C0.156,-0.032 0.13,-0.057 0.111,-0.089C0.091,-0.121 0.077,-0.159 0.068,-0.204C0.059,-0.248 0.055,-0.297 0.055,-0.35ZM0.462,-0.35C0.462,-0.385 0.46,-0.419 0.456,-0.451L0.159,-0.18C0.17,-0.142 0.187,-0.112 0.21,-0.089C0.233,-0.066 0.262,-0.055 0.299,-0.055C0.358,-0.055 0.4,-0.079 0.425,-0.128C0.45,-0.177 0.462,-0.251 0.462,-0.35ZM0.138,-0.35C0.138,-0.333 0.139,-0.317 0.14,-0.302C0.141,-0.287 0.142,-0.272 0.143,-0.257L0.441,-0.527C0.43,-0.563 0.413,-0.592 0.391,-0.613C0.368,-0.634 0.338,-0.645 0.3,-0.645C0.241,-0.645 0.199,-0.62 0.175,-0.572C0.15,-0.523 0.138,-0.449 0.138,-0.35Z" style="fill:rgb(0,122,229);fill-rule:nonzero;"/>
        </g>
        <g transform="matrix(48,0,0,48,14383.1,1796.71)">
            <path d="M0.055,-0.35C0.055,-0.407 0.06,-0.458 0.07,-0.503C0.08,-0.548 0.095,-0.586 0.115,-0.617C0.135,-0.648 0.16,-0.671 0.191,-0.688C0.222,-0.704 0.258,-0.712 0.3,-0.712C0.345,-0.712 0.383,-0.704 0.414,-0.688C0.445,-0.672 0.47,-0.649 0.489,-0.618C0.508,-0.587 0.522,-0.55 0.531,-0.505C0.54,-0.46 0.544,-0.408 0.544,-0.35C0.544,-0.293 0.539,-0.243 0.529,-0.198C0.519,-0.153 0.504,-0.115 0.484,-0.084C0.464,-0.053 0.439,-0.029 0.408,-0.013C0.377,0.004 0.341,0.012 0.299,0.012C0.255,0.012 0.218,0.003 0.187,-0.015C0.156,-0.032 0.13,-0.057 0.111,-0.089C0.091,-0.121 0.077,-0.159 0.068,-0.204C0.059,-0.248 0.055,-0.297 0.055,-0.35ZM0.462,-0.35C0.462,-0.385 0.46,-0.419 0.456,-0.451L0.159,-0.18C0.17,-0.142 0.187,-0.112 0.21,-0.089C0.233,-0.066 0.262,-0.055 0.299,-0.055C0.358,-0.055 0.4,-0.079 0.425,-0.128C0.45,-0.177 0.462,-0.251 0.462,-0.35ZM0.138,-0.35C0.138,-0.333 0.139,-0.317 0.14,-0.302C0.141,-0.287 0.142,-0.272 0.143,-0.257L0.441,-0.527C0.43,-0.563 0.413,-0.592 0.391,-0.613C0.368,-0.634 0.338,-0.645 0.3,-0.645C0.241,-0.645 0.199,-0.62 0.175,-0.572C0.15,-0.523 0.138,-0.449 0.138,-0.35Z" style="fill:rgb(0,122,229);fill-rule:nonzero;"/>
        </g>
        <g transform="matrix(48,0,0,48,14325.5,1868.71)">
            <path d="M0.055,-0.35C0.055,-0.407 0.06,-0.458 0.07,-0.503C0.08,-0.548 0.095,-0.586 0.115,-0.617C0.135,-0.648 0.16,-0.671 0.191,-0.688C0.222,-0.704 0.258,-0.712 0.3,-0.712C0.345,-0.712 0.383,-0.704 0.414,-0.688C0.445,-0.672 0.47,-0.649 0.489,-0.618C0.508,-0.587 0.522,-0.55 0.531,-0.505C0.54,-0.46 0.544,-0.408 0.544,-0.35C0.544,-0.293 0.539,-0.243 0.529,-0.198C0.519,-0.153 0.504,-0.115 0.484,-0.084C0.464,-0.053 0.439,-0.029 0.408,-0.013C0.377,0.004 0.341,0.012 0.299,0.012C0.255,0.012 0.218,0.003 0.187,-0.015C0.156,-0.032 0.13,-0.057 0.111,-0.089C0.091,-0.121 0.077,-0.159 0.068,-0.204C0.059,-0.248 0.055,-0.297 0.055,-0.35ZM0.462,-0.35C0.462,-0.385 0.46,-0.419 0.456,-0.451L0.159,-0.18C0.17,-0.142 0.187,-0.112 0.21,-0.089C0.233,-0.066 0.262,-0.055 0.299,-0.055C0.358,-0.055 0.4,-0.079 0.425,-0.128C0.45,-0.177 0.462,-0.251 0.462,-0.35ZM0.138,-0.35C0.138,-0.333 0.139,-0.317 0.14,-0.302C0.141,-0.287 0.142,-0.272 0.143,-0.257L0.441,-0.527C0.43,-0.563 0.413,-0.592 0.391,-0.613C0.368,-0.634 0.338,-0.645 0.3,-0.645C0.241,-0.645 0.199,-0.62 0.175,-0.572C0.15,-0.523 0.138,-0.449 0.138,-0.35Z" style="fill:rgb(0,122,229);fill-rule:nonzero;"/>
        </g>
        <g transform="matrix(48,0,0,48,14383.1,1868.71)">
            <rect x="0.088" y="-0.325" width="0.424" height="0.074" style="fill:rgb(0,122,229);fill-rule:nonzero;"/>
        </g>
    </g>
    <g transform="matrix(1.20707,0,0,1.20707,-15779.9,-1750.26)">
        <g transform="matrix(48,0,0,48,14325.5,1796.71)">
            <path d="M0.055,-0.35C0.055,-0.407 0.06,-0.458 0.07,-0.503C0.08,-0.548 0.095,-0.586 0.115,-0.617C0.135,-0.648 0.16,-0.671 0.191,-0.688C0.222,-0.704 0.258,-0.712 0.3,-0.712C0.345,-0.712 0.383,-0.704 0.414,-0.688C0.445,-0.672 0.47,-0.649 0.489,-0.618C0.508,-0.587 0.522,-0.55 0.531,-0.505C0.54,-0.46 0.544,-0.408 0.544,-0.35C0.544,-0.293 0.539,-0.243 0.529,-0.198C0.519,-0.153 0.504,-0.115 0.484,-0.084C0.464,-0.053 0.439,-0.029 0.408,-0.013C0.377,0.004 0.341,0.012 0.299,0.012C0.255,0.012 0.218,0.003 0.187,-0.015C0.156,-0.032 0.13,-0.057 0.111,-0.089C0.091,-0.121 0.077,-0.159 0.068,-0.204C0.059,-0.248 0.055,-0.297 0.055,-0.35ZM0.462,-0.35C0.462,-0.385 0.46,-0.419 0.456,-0.451L0.159,-0.18C0.17,-0.142 0.187,-0.112 0.21,-0.089C0.233,-0.066 0.262,-0.055 0.299,-0.055C0.358,-0.055 0.4,-0.079 0.425,-0.128C0.45,-0.177 0.462,-0.251 0.462,-0.35ZM0.138,-0.35C0.138,-0.333 0.139,-0.317 0.14,-0.302C0.141,-0.287 0.142,-0.272 0.143,-0.257L0.441,-0.527C0.43,-0.563 0.413,-0.592 0.391,-0.613C0.368,-0.634 0.338,-0.645 0.3,-0.645C0.241,-0.645 0.199,-0.62 0.175,-0.572C0.15,-0.523 0.138,-0.449 0.138,-0.35Z" style="fill:rgb(0,122,229);fill-rule:nonzero;"/>
        </g>
        <g transform="matrix(48,0,0,48,14383.1,1796.71)">
            <path d="M0.055,-0.35C0.055,-0.407 0.06,-0.458 0.07,-0.503C0.08,-0.548 0.095,-0.586 0.115,-0.617C0.135,-0.648 0.16,-0.671 0.191,-0.688C0.222,-0.704 0.258,-0.712 0.3,-0.712C0.345,-0.712 0.383,-0.704 0.414,-0.688C0.445,-0.672 0.47,-0.649 0.489,-0.618C0.508,-0.587 0.522,-0.55 0.531,-0.505C0.54,-0.46 0.544,-0.408 0.544,-0.35C0.544,-0.293 0.539,-0.243 0.529,-0.198C0.519,-0.153 0.504,-0.115 0.484,-0.084C0.464,-0.053 0.439,-0.029 0.408,-0.013C0.377,0.004 0.341,0.012 0.299,0.012C0.255,0.012 0.218,0.003 0.187,-0.015C0.156,-0.032 0.13,-0.057 0.111,-0.089C0.091,-0.121 0.077,-0.159 0.068,-0.204C0.059,-0.248 0.055,-0.297 0.055,-0.35ZM0.462,-0.35C0.462,-0.385 0.46,-0.419 0.456,-0.451L0.159,-0.18C0.17,-0.142 0.187,-0.112 0.21,-0.089C0.233,-0.066 0.262,-0.055 0.299,-0.055C0.358,-0.055 0.4,-0.079 0.425,-0.128C0.45,-0.177 0.462,-0.251 0.462,-0.35ZM0.138,-0.35C0.138,-0.333 0.139,-0.317 0.14,-0.302C0.141,-0.287 0.142,-0.272 0.143,-0.257L0.441,-0.527C0.43,-0.563 0.413,-0.592 0.391,-0.613C0.368,-0.634 0.338,-0.645 0.3,-0.645C0.241,-0.645 0.199,-0.62 0.175,-0.572C0.15,-0.523 0.138,-0.449 0.138,-0.35Z" style="fill:rgb(0,122,229);fill-rule:nonzero;"/>
        </g>
        <g transform="matrix(48,0,0,48,14325.5,1868.71)">
            <path d="M0.055,-0.35C0.055,-0.407 0.06,-0.458 0.07,-0.503C0.08,-0.548 0.095,-0.586 0.115,-0.617C0.135,-0.648 0.16,-0.671 0.191,-0.688C0.222,-0.704 0.258,-0.712 0.3,-0.712C0.345,-0.712 0.383,-0.704 0.414,-0.688C0.445,-0.672 0.47,-0.649 0.489,-0.618C0.508,-0.587 0.522,-0.55 0.531,-0.505C0.54,-0.46 0.544,-0.408 0.544,-0.35C0.544,-0.293 0.539,-0.243 0.529,-0.198C0.519,-0.153 0.504,-0.115 0.484,-0.084C0.464,-0.053 0.439,-0.029 0.408,-0.013C0.377,0.004 0.341,0.012 0.299,0.012C0.255,0.012 0.218,0.003 0.187,-0.015C0.156,-0.032 0.13,-0.057 0.111,-0.089C0.091,-0.121 0.077,-0.159 0.068,-0.204C0.059,-0.248 0.055,-0.297 0.055,-0.35ZM0.462,-0.35C0.462,-0.385 0.46,-0.419 0.456,-0.451L0.159,-0.18C0.17,-0.142 0.187,-0.112 0.21,-0.089C0.233,-0.066 0.262,-0.055 0.299,-0.055C0.358,-0.055 0.4,-0.079 0.425,-0.128C0.45,-0.177 0.462,-0.251 0.462,-0.35ZM0.138,-0.35C0.138,-0.333 0.139,-0.317 0.14,-0.302C0.141,-0.287 0.142,-0.272 0.143,-0.257L0.441,-0.527C0.43,-0.563 0.413,-0.592 0.391,-0.613C0.368,-0.634 0.338,-0.645 0.3,-0.645C0.241,-0.645 0.199,-0.62 0.175,-0.572C0.15,-0.523 0.138,-0.449 0.138,-0.35Z" style="fill:rgb(0,122,229);fill-rule:nonzero;"/>
        </g>
        <g transform="matrix(48,0,0,48,14383.1,1868.71)">
            <rect x="0.088" y="-0.325" width="0.424" height="0.074" style="fill:rgb(0,122,229);fill-rule:nonzero;"/>
        </g>
    </g>
    <g transform="matrix(1.20707,0,0,1.20707,-15410.2,-1750.26)">
        <g transform="matrix(48,0,0,48,14325.5,1796.71)">
            <path d="M0.055,-0.35C0.055,-0.407 0.06,-0.458 0.07,-0.503C0.08,-0.548 0.095,-0.586 0.115,-0.617C0.135,-0.648 0.16,-0.671 0.191,-0.688C0.222,-0.704 0.258,-0.712 0.3,-0.712C0.345,-0.712 0.383,-0.704 0.414,-0.688C0.445,-0.672 0.47,-0.649 0.489,-0.618C0.508,-0.587 0.522,-0.55 0.531,-0.505C0.54,-0.46 0.544,-0.408 0.544,-0.35C0.544,-0.293 0.539,-0.243 0.529,-0.198C0.519,-0.153 0.504,-0.115 0.484,-0.084C0.464,-0.053 0.439,-0.029 0.408,-0.013C0.377,0.004 0.341,0.012 0.299,0.012C0.255,0.012 0.218,0.003 0.187,-0.015C0.156,-0.032 0.13,-0.057 0.111,-0.089C0.091,-0.121 0.077,-0.159 0.068,-0.204C0.059,-0.248 0.055,-0.297 0.055,-0.35ZM0.462,-0.35C0.462,-0.385 0.46,-0.419 0.456,-0.451L0.159,-0.18C0.17,-0.142 0.187,-0.112 0.21,-0.089C0.233,-0.066 0.262,-0.055 0.299,-0.055C0.358,-0.055 0.4,-0.079 0.425,-0.128C0.45,-0.177 0.462,-0.251 0.462,-0.35ZM0.138,-0.35C0.138,-0.333 0.139,-0.317 0.14,-0.302C0.141,-0.287 0.142,-0.272 0.143,-0.257L0.441,-0.527C0.43,-0.563 0.413,-0.592 0.391,-0.613C0.368,-0.634 0.338,-0.645 0.3,-0.645C0.241,-0.645 0.199,-0.62 0.175,-0.572C0.15,-0.523 0.138,-0.449 0.138,-0.35Z" style="fill:rgb(0,122,229);fill-rule:nonzero;"/>
        </g>
        <g transform="matrix(48,0,0,48,14383.1,1796.71)">
            <path d="M0.055,-0.35C0.055,-0.407 0.06,-0.458 0.07,-0.503C0.08,-0.548 0.095,-0.586 0.115,-0.617C0.135,-0.648 0.16,-0.671 0.191,-0.688C0.222,-0.704 0.258,-0.712 0.3,-0.712C0.345,-0.712 0.383,-0.704 0.414,-0.688C0.445,-0.672 0.47,-0.649 0.489,-0.618C0.508,-0.587 0.522,-0.55 0.531,-0.505C0.54,-0.46 0.544,-0.408 0.544,-0.35C0.544,-0.293 0.539,-0.243 0.529,-0.198C0.519,-0.153 0.504,-0.115 0.484,-0.084C0.464,-0.053 0.439,-0.029 0.408,-0.013C0.377,0.004 0.341,0.012 0.299,0.012C0.255,0.012 0.218,0.003 0.187,-0.015C0.156,-0.032 0.13,-0.057 0.111,-0.089C0.091,-0.121 0.077,-0.159 0.068,-0.204C0.059,-0.248 0.055,-0.297 0.055,-0.35ZM0.462,-0.35C0.462,-0.385 0.46,-0.419 0.456,-0.451L0.159,-0.18C0.17,-0.142 0.187,-0.112 0.21,-0.089C0.233,-0.066 0.262,-0.055 0.299,-0.055C0.358,-0.055 0.4,-0.079 0.425,-0.128C0.45,-0.177 0.462,-0.251 0.462,-0.35ZM0.138,-0.35C0.138,-0.333 0.139,-0.317 0.14,-0.302C0.141,-0.287 0.142,-0.272 0.143,-0.257L0.441,-0.527C0.43,-0.563 0.413,-0.592 0.391,-0.613C0.368,-0.634 0.338,-0.645 0.3,-0.645C0.241,-0.645 0.199,-0.62 0.175,-0.572C0.15,-0.523 0.138,-0.449 0.138,-0.35Z" style="fill:rgb(0,122,229);fill-rule:nonzero;"/>
        </g>
        <g transform="matrix(48,0,0,48,14325.5,1868.71)">
            <path d="M0.055,-0.35C0.055,-0.407 0.06,-0.458 0.07,-0.503C0.08,-0.548 0.095,-0.586 0.115,-0.617C0.135,-0.648 0.16,-0.671 0.191,-0.688C0.222,-0.704 0.258,-0.712 0.3,-0.712C0.345,-0.712 0.383,-0.704 0.414,-0.688C0.445,-0.672 0.47,-0.649 0.489,-0.618C0.508,-0.587 0.522,-0.55 0.531,-0.505C0.54,-0.46 0.544,-0.408 0.544,-0.35C0.544,-0.293 0.539,-0.243 0.529,-0.198C0.519,-0.153 0.504,-0.115 0.484,-0.084C0.464,-0.053 0.439,-0.029 0.408,-0.013C0.377,0.004 0.341,0.012 0.299,0.012C0.255,0.012 0.218,0.003 0.187,-0.015C0.156,-0.032 0.13,-0.057 0.111,-0.089C0.091,-0.121 0.077,-0.159 0.068,-0.204C0.059,-0.248 0.055,-0.297 0.055,-0.35ZM0.462,-0.35C0.462,-0.385 0.46,-0.419 0.456,-0.451L0.159,-0.18C0.17,-0.142 0.187,-0.112 0.21,-0.089C0.233,-0.066 0.262,-0.055 0.299,-0.055C0.358,-0.055 0.4,-0.079 0.425,-0.128C0.45,-0.177 0.462,-0.251 0.462,-0.35ZM0.138,-0.35C0.138,-0.333 0.139,-0.317 0.14,-0.302C0.141,-0.287 0.142,-0.272 0.143,-0.257L0.441,-0.527C0.43,-0.563 0.413,-0.592 0.391,-0.613C0.368,-0.634 0.338,-0.645 0.3,-0.645C0.241,-0.645 0.199,-0.62 0.175,-0.572C0.15,-0.523 0.138,-0.449 0.138,-0.35Z" style="fill:rgb(0,122,229);fill-rule:nonzero;"/>
        </g>
        <g transform="matrix(48,0,0,48,14383.1,1868.71)">
            <rect x="0.088" y="-0.325" width="0.424" height="0.074" style="fill:rgb(0,122,229);fill-rule:nonzero;"/>
        </g>
    </g>
    <path d="M176.268,671.276C177.206,669.883 178.368,668.747 179.755,667.868C181.141,666.989 182.668,666.55 184.335,666.55C185.91,666.55 187.404,666.934 188.817,667.702C190.23,668.47 191.307,669.541 192.05,670.915C192.792,672.289 193.163,673.887 193.163,675.71C193.163,678.587 192.242,681.091 190.399,683.22C188.557,685.349 186.132,686.413 183.124,686.413C179.582,686.413 176.936,684.932 175.184,681.97C173.433,679.007 172.557,675.241 172.557,670.671C172.557,665.619 173.671,661.625 175.897,658.688C178.124,655.752 181.138,654.284 184.94,654.284C186.984,654.284 188.97,654.584 190.897,655.183L190.897,658.854C188.736,657.826 186.698,657.311 184.784,657.311C182.076,657.311 179.979,658.555 178.495,661.042C177.011,663.529 176.268,666.68 176.268,670.495L176.268,671.276ZM183.397,683.386C184.374,683.386 185.357,683.096 186.346,682.517C187.336,681.937 188.114,681.045 188.68,679.841C189.247,678.636 189.53,677.324 189.53,675.905C189.53,674.056 189.052,672.539 188.095,671.354C187.137,670.17 185.774,669.577 184.003,669.577C182.167,669.577 180.66,670.264 179.481,671.638C178.303,673.011 177.714,674.681 177.714,676.647C177.714,678.627 178.29,680.244 179.442,681.501C180.595,682.757 181.913,683.386 183.397,683.386Z" style="fill:rgb(128,128,128);fill-rule:nonzero;"/>
    <path d="M198.241,669.733L198.241,655.183L215.214,655.183L215.214,658.679L201.874,658.679L201.874,666.101L202.499,666.101C206.861,666.101 210.22,667.012 212.577,668.835C214.934,670.658 216.112,673.112 216.112,676.198C216.112,678.151 215.637,679.903 214.686,681.452C213.736,683.002 212.395,684.216 210.663,685.095C208.931,685.974 207.089,686.413 205.136,686.413C203.182,686.413 200.682,685.938 197.636,684.987L197.636,681.022C198.742,681.621 199.979,682.113 201.346,682.497C202.714,682.881 203.977,683.073 205.136,683.073C206.294,683.073 207.427,682.793 208.534,682.233C209.641,681.673 210.5,680.856 211.112,679.782C211.724,678.708 212.03,677.611 212.03,676.491C212.03,674.603 211.193,673.005 209.52,671.696C207.847,670.388 204.875,669.733 200.604,669.733L198.241,669.733Z" style="fill:rgb(128,128,128);fill-rule:nonzero;"/>
    <path d="M174.237,60.059L174.237,45.509L191.21,45.509L191.21,49.005L177.87,49.005L177.87,56.427L178.495,56.427C182.857,56.427 186.216,57.338 188.573,59.161C190.93,60.984 192.108,63.438 192.108,66.524C192.108,68.477 191.633,70.229 190.682,71.778C189.732,73.328 188.391,74.542 186.659,75.421C184.927,76.3 183.085,76.739 181.132,76.739C179.178,76.739 176.678,76.264 173.632,75.313L173.632,71.348C174.738,71.947 175.975,72.439 177.343,72.823C178.71,73.207 179.973,73.399 181.132,73.399C182.29,73.399 183.423,73.119 184.53,72.559C185.637,72 186.496,71.182 187.108,70.108C187.72,69.034 188.026,67.937 188.026,66.817C188.026,64.929 187.19,63.331 185.516,62.022C183.843,60.714 180.871,60.059 176.6,60.059L174.237,60.059Z" style="fill:rgb(128,128,128);fill-rule:nonzero;"/>
    <path d="M212.85,59.727C211.913,61.121 210.751,62.257 209.364,63.136C207.977,64.015 206.451,64.454 204.784,64.454C203.208,64.454 201.714,64.073 200.302,63.311C198.889,62.55 197.811,61.479 197.069,60.098C196.327,58.718 195.956,57.117 195.956,55.294C195.956,52.429 196.877,49.932 198.72,47.804C200.562,45.675 202.987,44.61 205.995,44.61C209.537,44.61 212.183,46.091 213.934,49.054C215.686,52.016 216.561,55.782 216.561,60.352C216.561,65.404 215.448,69.399 213.221,72.335C210.995,75.271 207.981,76.739 204.178,76.739C202.134,76.739 200.149,76.433 198.221,75.821L198.221,72.169C200.383,73.184 202.421,73.692 204.335,73.692C207.043,73.692 209.139,72.449 210.624,69.962C212.108,67.475 212.85,64.324 212.85,60.509L212.85,59.727ZM205.721,47.638C204.745,47.638 203.762,47.927 202.772,48.507C201.783,49.086 201.005,49.975 200.438,51.173C199.872,52.371 199.589,53.686 199.589,55.118C199.589,56.954 200.067,58.464 201.024,59.649C201.981,60.834 203.345,61.427 205.116,61.427C206.952,61.427 208.459,60.74 209.637,59.366C210.816,57.992 211.405,56.329 211.405,54.376C211.405,52.397 210.829,50.779 209.677,49.522C208.524,48.266 207.206,47.638 205.721,47.638Z" style="fill:rgb(128,128,128);fill-rule:nonzero;"/>
    <path d="M642.433,671.276C643.371,669.883 644.533,668.747 645.92,667.868C647.306,666.989 648.833,666.55 650.5,666.55C652.075,666.55 653.569,666.934 654.982,667.702C656.395,668.47 657.472,669.541 658.215,670.915C658.957,672.289 659.328,673.887 659.328,675.71C659.328,678.587 658.407,681.091 656.564,683.22C654.722,685.349 652.297,686.413 649.289,686.413C645.747,686.413 643.101,684.932 641.349,681.97C639.598,679.007 638.722,675.241 638.722,670.671C638.722,665.619 639.836,661.625 642.062,658.688C644.289,655.752 647.303,654.284 651.105,654.284C653.15,654.284 655.135,654.584 657.062,655.183L657.062,658.854C654.901,657.826 652.863,657.311 650.949,657.311C648.241,657.311 646.144,658.555 644.66,661.042C643.176,663.529 642.433,666.68 642.433,670.495L642.433,671.276ZM649.562,683.386C650.539,683.386 651.522,683.096 652.511,682.517C653.501,681.937 654.279,681.045 654.845,679.841C655.412,678.636 655.695,677.324 655.695,675.905C655.695,674.056 655.217,672.539 654.26,671.354C653.302,670.17 651.939,669.577 650.168,669.577C648.332,669.577 646.825,670.264 645.646,671.638C644.468,673.011 643.879,674.681 643.879,676.647C643.879,678.627 644.455,680.244 645.607,681.501C646.76,682.757 648.078,683.386 649.562,683.386Z" style="fill:rgb(128,128,128);fill-rule:nonzero;"/>
    <path d="M666.437,671.276C667.375,669.883 668.537,668.747 669.924,667.868C671.31,666.989 672.837,666.55 674.504,666.55C676.079,666.55 677.573,666.934 678.986,667.702C680.399,668.47 681.476,669.541 682.219,670.915C682.961,672.289 683.332,673.887 683.332,675.71C683.332,678.587 682.411,681.091 680.568,683.22C678.726,685.349 676.301,686.413 673.293,686.413C669.751,686.413 667.105,684.932 665.353,681.97C663.602,679.007 662.726,675.241 662.726,670.671C662.726,665.619 663.84,661.625 666.066,658.688C668.293,655.752 671.307,654.284 675.109,654.284C677.153,654.284 679.139,654.584 681.066,655.183L681.066,658.854C678.905,657.826 676.867,657.311 674.953,657.311C672.245,657.311 670.148,658.555 668.664,661.042C667.179,663.529 666.437,666.68 666.437,670.495L666.437,671.276ZM673.566,683.386C674.543,683.386 675.526,683.096 676.515,682.517C677.505,681.937 678.283,681.045 678.849,679.841C679.416,678.636 679.699,677.324 679.699,675.905C679.699,674.056 679.22,672.539 678.263,671.354C677.306,670.17 675.942,669.577 674.172,669.577C672.336,669.577 670.829,670.264 669.65,671.638C668.472,673.011 667.883,674.681 667.883,676.647C667.883,678.627 668.459,680.244 669.611,681.501C670.763,682.757 672.082,683.386 673.566,683.386Z" style="fill:rgb(128,128,128);fill-rule:nonzero;"/>
    <path d="M525.433,61.602C526.371,60.209 527.533,59.073 528.92,58.194C530.306,57.315 531.833,56.876 533.5,56.876C535.075,56.876 536.569,57.26 537.982,58.028C539.395,58.796 540.472,59.867 541.215,61.241C541.957,62.615 542.328,64.213 542.328,66.036C542.328,68.914 541.407,71.417 539.564,73.546C537.722,75.675 535.297,76.739 532.289,76.739C528.747,76.739 526.101,75.258 524.349,72.296C522.598,69.334 521.722,65.567 521.722,60.997C521.722,55.945 522.836,51.951 525.062,49.015C527.289,46.078 530.303,44.61 534.105,44.61C536.15,44.61 538.135,44.91 540.062,45.509L540.062,49.181C537.901,48.152 535.863,47.638 533.949,47.638C531.241,47.638 529.144,48.881 527.66,51.368C526.176,53.855 525.433,57.006 525.433,60.821L525.433,61.602ZM532.562,73.712C533.539,73.712 534.522,73.422 535.511,72.843C536.501,72.263 537.279,71.371 537.845,70.167C538.412,68.962 538.695,67.651 538.695,66.231C538.695,64.382 538.217,62.865 537.26,61.681C536.302,60.496 534.939,59.903 533.168,59.903C531.332,59.903 529.825,60.59 528.646,61.964C527.468,63.337 526.879,65.007 526.879,66.973C526.879,68.953 527.455,70.57 528.607,71.827C529.76,73.084 531.078,73.712 532.562,73.712Z" style="fill:rgb(128,128,128);fill-rule:nonzero;"/>
    <path d="M555.726,44.61C559.177,44.61 561.807,46.059 563.617,48.956C565.427,51.853 566.332,55.756 566.332,60.665C566.332,65.587 565.427,69.496 563.617,72.393C561.807,75.291 559.177,76.739 555.726,76.739C552.289,76.739 549.662,75.291 547.845,72.393C546.029,69.496 545.121,65.587 545.121,60.665C545.121,55.756 546.029,51.853 547.845,48.956C549.662,46.059 552.289,44.61 555.726,44.61ZM549.808,67.149L560.297,50.723C559.633,49.513 558.913,48.695 558.138,48.272C557.364,47.849 556.56,47.638 555.726,47.638C553.552,47.638 551.898,48.845 550.765,51.261C549.633,53.676 549.066,56.739 549.066,60.45C549.066,61.296 549.092,62.208 549.144,63.184C549.196,64.161 549.418,65.483 549.808,67.149ZM561.605,54.337L551.195,70.86C551.755,71.811 552.4,72.524 553.129,72.999C553.858,73.474 554.672,73.712 555.57,73.712C558.044,73.712 559.802,72.328 560.844,69.561C561.885,66.794 562.406,63.725 562.406,60.352C562.406,58.269 562.139,56.264 561.605,54.337Z" style="fill:rgb(128,128,128);fill-rule:nonzero;"/>
    <path d="M1105.13,671.276C1106.07,669.883 1107.23,668.747 1108.62,667.868C1110,666.989 1111.53,666.55 1113.2,666.55C1114.77,666.55 1116.27,666.934 1117.68,667.702C1119.09,668.47 1120.17,669.541 1120.91,670.915C1121.65,672.289 1122.03,673.887 1122.03,675.71C1122.03,678.587 1121.1,681.091 1119.26,683.22C1117.42,685.349 1114.99,686.413 1111.99,686.413C1108.44,686.413 1105.8,684.932 1104.05,681.97C1102.3,679.007 1101.42,675.241 1101.42,670.671C1101.42,665.619 1102.53,661.625 1104.76,658.688C1106.99,655.752 1110,654.284 1113.8,654.284C1115.85,654.284 1117.83,654.584 1119.76,655.183L1119.76,658.854C1117.6,657.826 1115.56,657.311 1113.65,657.311C1110.94,657.311 1108.84,658.555 1107.36,661.042C1105.87,663.529 1105.13,666.68 1105.13,670.495L1105.13,671.276ZM1112.26,683.386C1113.24,683.386 1114.22,683.096 1115.21,682.517C1116.2,681.937 1116.98,681.045 1117.54,679.841C1118.11,678.636 1118.39,677.324 1118.39,675.905C1118.39,674.056 1117.91,672.539 1116.96,671.354C1116,670.17 1114.63,669.577 1112.87,669.577C1111.03,669.577 1109.52,670.264 1108.34,671.638C1107.16,673.011 1106.58,674.681 1106.58,676.647C1106.58,678.627 1107.15,680.244 1108.3,681.501C1109.46,682.757 1110.78,683.386 1112.26,683.386Z" style="fill:rgb(128,128,128);fill-rule:nonzero;"/>
    <path d="M1129.66,685.495L1129.66,682.78C1129.66,680.658 1129.9,678.874 1130.38,677.429C1130.87,675.983 1131.71,674.375 1132.92,672.604C1134.13,670.834 1135.1,669.466 1135.83,668.503L1139,664.323L1140.13,662.858C1140.99,661.699 1141.73,660.358 1142.36,658.835L1126.63,658.835L1126.63,655.183L1145.87,655.183L1145.87,657.604C1145.87,658.568 1145.68,659.46 1145.3,660.28C1144.91,661.101 1143.75,662.852 1141.81,665.534C1141.34,666.172 1140.88,666.81 1140.42,667.448L1138.39,670.3C1137.09,672.136 1136.13,673.601 1135.5,674.694C1134.88,675.788 1134.4,676.927 1134.09,678.112C1133.77,679.297 1133.61,680.853 1133.61,682.78L1133.61,685.495L1129.66,685.495Z" style="fill:rgb(128,128,128);fill-rule:nonzero;"/>
    <path d="M836.13,61.602C837.068,60.209 838.23,59.073 839.617,58.194C841.003,57.315 842.53,56.876 844.197,56.876C845.772,56.876 847.266,57.26 848.679,58.028C850.092,58.796 851.169,59.867 851.911,61.241C852.654,62.615 853.025,64.213 853.025,66.036C853.025,68.914 852.104,71.417 850.261,73.546C848.419,75.675 845.993,76.739 842.986,76.739C839.444,76.739 836.798,75.258 835.046,72.296C833.295,69.334 832.419,65.567 832.419,60.997C832.419,55.945 833.533,51.951 835.759,49.015C837.986,46.078 841,44.61 844.802,44.61C846.846,44.61 848.832,44.91 850.759,45.509L850.759,49.181C848.598,48.152 846.56,47.638 844.646,47.638C841.937,47.638 839.841,48.881 838.357,51.368C836.872,53.855 836.13,57.006 836.13,60.821L836.13,61.602ZM843.259,73.712C844.236,73.712 845.219,73.422 846.208,72.843C847.198,72.263 847.976,71.371 848.542,70.167C849.109,68.962 849.392,67.651 849.392,66.231C849.392,64.382 848.913,62.865 847.956,61.681C846.999,60.496 845.635,59.903 843.865,59.903C842.029,59.903 840.521,60.59 839.343,61.964C838.165,63.337 837.576,65.007 837.576,66.973C837.576,68.953 838.152,70.57 839.304,71.827C840.456,73.084 841.775,73.712 843.259,73.712Z" style="fill:rgb(128,128,128);fill-rule:nonzero;"/>
    <path d="M865.525,72.794L865.525,49.395C864.431,50.268 863.37,51.01 862.341,51.622C861.312,52.234 859.9,52.859 858.103,53.497L858.103,50.216C860.954,49.005 863.428,47.436 865.525,45.509L869.158,45.509L869.158,72.794L876.443,72.794L876.443,75.821L858.103,75.821L858.103,72.794L865.525,72.794Z" style="fill:rgb(128,128,128);fill-rule:nonzero;"/>
    <path d="M1542.93,671.276C1543.87,669.883 1545.03,668.747 1546.42,667.868C1547.81,666.989 1549.33,666.55 1551,666.55C1552.58,666.55 1554.07,666.934 1555.48,667.702C1556.9,668.47 1557.97,669.541 1558.72,670.915C1559.46,672.289 1559.83,673.887 1559.83,675.71C1559.83,678.587 1558.91,681.091 1557.07,683.22C1555.22,685.349 1552.8,686.413 1549.79,686.413C1546.25,686.413 1543.6,684.932 1541.85,681.97C1540.1,679.007 1539.22,675.241 1539.22,670.671C1539.22,665.619 1540.34,661.625 1542.56,658.688C1544.79,655.752 1547.8,654.284 1551.61,654.284C1553.65,654.284 1555.64,654.584 1557.56,655.183L1557.56,658.854C1555.4,657.826 1553.36,657.311 1551.45,657.311C1548.74,657.311 1546.64,658.555 1545.16,661.042C1543.68,663.529 1542.93,666.68 1542.93,670.495L1542.93,671.276ZM1550.06,683.386C1551.04,683.386 1552.02,683.096 1553.01,682.517C1554,681.937 1554.78,681.045 1555.35,679.841C1555.91,678.636 1556.2,677.324 1556.2,675.905C1556.2,674.056 1555.72,672.539 1554.76,671.354C1553.8,670.17 1552.44,669.577 1550.67,669.577C1548.83,669.577 1547.33,670.264 1546.15,671.638C1544.97,673.011 1544.38,674.681 1544.38,676.647C1544.38,678.627 1544.95,680.244 1546.11,681.501C1547.26,682.757 1548.58,683.386 1550.06,683.386Z" style="fill:rgb(128,128,128);fill-rule:nonzero;"/>
    <path d="M1570.2,669.147L1569.54,668.659C1568.61,668.008 1567.71,667.048 1566.82,665.778C1565.93,664.509 1565.49,663.112 1565.49,661.589C1565.49,659.571 1566.29,657.849 1567.88,656.423C1569.46,654.997 1571.48,654.284 1573.93,654.284C1575.43,654.284 1576.78,654.554 1577.97,655.095C1579.17,655.635 1580.1,656.433 1580.75,657.487C1581.4,658.542 1581.72,659.694 1581.72,660.944C1581.72,661.804 1581.57,662.634 1581.27,663.434C1580.97,664.235 1580.53,665.03 1579.94,665.817C1579.34,666.605 1578.17,667.715 1576.41,669.147L1578.05,670.456C1579.97,672.018 1581.25,673.366 1581.92,674.499C1582.58,675.632 1582.91,676.901 1582.91,678.308C1582.91,680.495 1582.12,682.393 1580.53,684.001C1578.94,685.609 1576.56,686.413 1573.38,686.413C1570.19,686.413 1567.8,685.661 1566.22,684.157C1564.63,682.653 1563.83,680.788 1563.83,678.561C1563.83,675.241 1565.95,672.103 1570.2,669.147ZM1573.93,667.292C1575.77,665.899 1576.91,664.733 1577.38,663.796C1577.84,662.858 1578.07,661.986 1578.07,661.179C1578.07,660.202 1577.64,659.313 1576.78,658.513C1575.92,657.712 1574.82,657.311 1573.46,657.311C1572,657.311 1570.89,657.748 1570.13,658.62C1569.37,659.492 1568.99,660.397 1568.99,661.335C1568.99,662.246 1569.31,663.106 1569.95,663.913C1570.58,664.72 1571.61,665.625 1573.01,666.628L1573.93,667.292ZM1572.93,671.081C1569.5,673.724 1567.78,676.198 1567.78,678.503C1567.78,679.87 1568.34,681.022 1569.48,681.96C1570.61,682.897 1571.95,683.366 1573.5,683.366C1574.92,683.366 1576.19,682.917 1577.31,682.018C1578.43,681.12 1578.99,680 1578.99,678.659C1578.99,677.344 1578.31,676.009 1576.95,674.655C1575.59,673.301 1574.64,672.416 1574.11,671.999L1572.93,671.081Z" style="fill:rgb(128,128,128);fill-rule:nonzero;"/>
    <path d="M1196.22,61.602C1197.16,60.209 1198.32,59.073 1199.71,58.194C1201.09,57.315 1202.62,56.876 1204.29,56.876C1205.86,56.876 1207.36,57.26 1208.77,58.028C1210.18,58.796 1211.26,59.867 1212,61.241C1212.74,62.615 1213.11,64.213 1213.11,66.036C1213.11,68.914 1212.19,71.417 1210.35,73.546C1208.51,75.675 1206.08,76.739 1203.08,76.739C1199.53,76.739 1196.89,75.258 1195.14,72.296C1193.38,69.334 1192.51,65.567 1192.51,60.997C1192.51,55.945 1193.62,51.951 1195.85,49.015C1198.08,46.078 1201.09,44.61 1204.89,44.61C1206.94,44.61 1208.92,44.91 1210.85,45.509L1210.85,49.181C1208.69,48.152 1206.65,47.638 1204.74,47.638C1202.03,47.638 1199.93,48.881 1198.45,51.368C1196.96,53.855 1196.22,57.006 1196.22,60.821L1196.22,61.602ZM1203.35,73.712C1204.33,73.712 1205.31,73.422 1206.3,72.843C1207.29,72.263 1208.07,71.371 1208.63,70.167C1209.2,68.962 1209.48,67.651 1209.48,66.231C1209.48,64.382 1209,62.865 1208.05,61.681C1207.09,60.496 1205.73,59.903 1203.95,59.903C1202.12,59.903 1200.61,60.59 1199.43,61.964C1198.25,63.337 1197.66,65.007 1197.66,66.973C1197.66,68.953 1198.24,70.57 1199.39,71.827C1200.55,73.084 1201.86,73.712 1203.35,73.712Z" style="fill:rgb(128,128,128);fill-rule:nonzero;"/>
    <path d="M1235.77,75.821L1217.43,75.821L1217.43,72.481C1217.43,71.622 1217.61,70.701 1217.96,69.718C1218.31,68.735 1218.98,67.631 1219.97,66.407C1220.96,65.183 1222.01,64.005 1223.11,62.872L1225.18,60.763C1225.6,60.333 1226.51,59.337 1227.92,57.774C1229.33,56.212 1230.25,55.014 1230.7,54.181C1231.15,53.347 1231.38,52.527 1231.38,51.72C1231.38,50.417 1230.86,49.412 1229.81,48.702C1228.77,47.992 1227.6,47.638 1226.3,47.638C1225.56,47.638 1224.73,47.722 1223.81,47.891C1222.89,48.061 1222.09,48.259 1221.39,48.487C1220.7,48.715 1219.59,49.181 1218.04,49.884L1218.04,46.661C1219.68,45.88 1221.32,45.343 1222.97,45.05C1224.62,44.757 1225.97,44.61 1227.04,44.61C1228.62,44.61 1230.06,44.867 1231.39,45.382C1232.71,45.896 1233.69,46.694 1234.34,47.774C1234.98,48.855 1235.3,50.007 1235.3,51.231C1235.3,52.598 1234.89,53.998 1234.06,55.431C1233.24,56.863 1231.67,58.705 1229.38,60.958L1227.16,63.165L1225.28,65.001C1224.1,66.199 1223.14,67.358 1222.41,68.477C1221.68,69.597 1221.28,70.932 1221.2,72.481L1235.77,72.481L1235.77,75.821Z" style="fill:rgb(128,128,128);fill-rule:nonzero;"/>
    <path d="M1894.57,671.276C1895.51,669.883 1896.67,668.747 1898.05,667.868C1899.44,666.989 1900.97,666.55 1902.63,666.55C1904.21,666.55 1905.7,666.934 1907.12,667.702C1908.53,668.47 1909.61,669.541 1910.35,670.915C1911.09,672.289 1911.46,673.887 1911.46,675.71C1911.46,678.587 1910.54,681.091 1908.7,683.22C1906.86,685.349 1904.43,686.413 1901.42,686.413C1897.88,686.413 1895.24,684.932 1893.48,681.97C1891.73,679.007 1890.86,675.241 1890.86,670.671C1890.86,665.619 1891.97,661.625 1894.2,658.688C1896.42,655.752 1899.44,654.284 1903.24,654.284C1905.28,654.284 1907.27,654.584 1909.2,655.183L1909.2,658.854C1907.04,657.826 1905,657.311 1903.08,657.311C1900.38,657.311 1898.28,658.555 1896.79,661.042C1895.31,663.529 1894.57,666.68 1894.57,670.495L1894.57,671.276ZM1901.7,683.386C1902.67,683.386 1903.66,683.096 1904.65,682.517C1905.63,681.937 1906.41,681.045 1906.98,679.841C1907.55,678.636 1907.83,677.324 1907.83,675.905C1907.83,674.056 1907.35,672.539 1906.39,671.354C1905.44,670.17 1904.07,669.577 1902.3,669.577C1900.47,669.577 1898.96,670.264 1897.78,671.638C1896.6,673.011 1896.01,674.681 1896.01,676.647C1896.01,678.627 1896.59,680.244 1897.74,681.501C1898.89,682.757 1900.21,683.386 1901.7,683.386Z" style="fill:rgb(128,128,128);fill-rule:nonzero;"/>
    <path d="M1931.15,669.401C1930.21,670.795 1929.05,671.931 1927.66,672.809C1926.28,673.688 1924.75,674.128 1923.08,674.128C1921.51,674.128 1920.01,673.747 1918.6,672.985C1917.19,672.224 1916.11,671.153 1915.37,669.772C1914.63,668.392 1914.26,666.791 1914.26,664.968C1914.26,662.103 1915.18,659.606 1917.02,657.477C1918.86,655.349 1921.29,654.284 1924.29,654.284C1927.84,654.284 1930.48,655.765 1932.23,658.727C1933.99,661.69 1934.86,665.456 1934.86,670.026C1934.86,675.078 1933.75,679.073 1931.52,682.009C1929.29,684.945 1926.28,686.413 1922.48,686.413C1920.43,686.413 1918.45,686.107 1916.52,685.495L1916.52,681.843C1918.68,682.858 1920.72,683.366 1922.63,683.366C1925.34,683.366 1927.44,682.123 1928.92,679.636C1930.41,677.149 1931.15,673.998 1931.15,670.183L1931.15,669.401ZM1924.02,657.311C1923.04,657.311 1922.06,657.601 1921.07,658.181C1920.08,658.76 1919.3,659.649 1918.74,660.847C1918.17,662.045 1917.89,663.36 1917.89,664.792C1917.89,666.628 1918.37,668.138 1919.32,669.323C1920.28,670.508 1921.64,671.101 1923.41,671.101C1925.25,671.101 1926.76,670.414 1927.94,669.04C1929.12,667.666 1929.7,666.003 1929.7,664.05C1929.7,662.071 1929.13,660.453 1927.98,659.196C1926.82,657.94 1925.51,657.311 1924.02,657.311Z" style="fill:rgb(128,128,128);fill-rule:nonzero;"/>
    <path d="M1877.92,61.602C1878.86,60.209 1880.02,59.073 1881.41,58.194C1882.8,57.315 1884.32,56.876 1885.99,56.876C1887.57,56.876 1889.06,57.26 1890.47,58.028C1891.88,58.796 1892.96,59.867 1893.7,61.241C1894.45,62.615 1894.82,64.213 1894.82,66.036C1894.82,68.914 1893.9,71.417 1892.05,73.546C1890.21,75.675 1887.79,76.739 1884.78,76.739C1881.24,76.739 1878.59,75.258 1876.84,72.296C1875.09,69.334 1874.21,65.567 1874.21,60.997C1874.21,55.945 1875.33,51.951 1877.55,49.015C1879.78,46.078 1882.79,44.61 1886.6,44.61C1888.64,44.61 1890.62,44.91 1892.55,45.509L1892.55,49.181C1890.39,48.152 1888.35,47.638 1886.44,47.638C1883.73,47.638 1881.63,48.881 1880.15,51.368C1878.66,53.855 1877.92,57.006 1877.92,60.821L1877.92,61.602ZM1885.05,73.712C1886.03,73.712 1887.01,73.422 1888,72.843C1888.99,72.263 1889.77,71.371 1890.34,70.167C1890.9,68.962 1891.18,67.651 1891.18,66.231C1891.18,64.382 1890.71,62.865 1889.75,61.681C1888.79,60.496 1887.43,59.903 1885.66,59.903C1883.82,59.903 1882.31,60.59 1881.14,61.964C1879.96,63.337 1879.37,65.007 1879.37,66.973C1879.37,68.953 1879.94,70.57 1881.1,71.827C1882.25,73.084 1883.57,73.712 1885.05,73.712Z" style="fill:rgb(128,128,128);fill-rule:nonzero;"/>
    <path d="M1910.03,75.821L1910.03,67.345L1897.16,67.345L1897.16,64.298L1910.03,45.509L1913.68,45.509L1913.68,64.298L1919.29,64.298L1919.29,67.345L1913.68,67.345L1913.68,75.821L1910.03,75.821ZM1910.03,64.298L1910.03,51.016L1901.03,64.298L1910.03,64.298Z" style="fill:rgb(128,128,128);fill-rule:nonzero;"/>
    <path d="M1534.46,61.602C1535.39,60.209 1536.56,59.073 1537.94,58.194C1539.33,57.315 1540.86,56.876 1542.52,56.876C1544.1,56.876 1545.59,57.26 1547.01,58.028C1548.42,58.796 1549.5,59.867 1550.24,61.241C1550.98,62.615 1551.35,64.213 1551.35,66.036C1551.35,68.914 1550.43,71.417 1548.59,73.546C1546.75,75.675 1544.32,76.739 1541.31,76.739C1537.77,76.739 1535.12,75.258 1533.37,72.296C1531.62,69.334 1530.75,65.567 1530.75,60.997C1530.75,55.945 1531.86,51.951 1534.09,49.015C1536.31,46.078 1539.33,44.61 1543.13,44.61C1545.17,44.61 1547.16,44.91 1549.09,45.509L1549.09,49.181C1546.92,48.152 1544.89,47.638 1542.97,47.638C1540.27,47.638 1538.17,48.881 1536.68,51.368C1535.2,53.855 1534.46,57.006 1534.46,60.821L1534.46,61.602ZM1541.59,73.712C1542.56,73.712 1543.55,73.422 1544.54,72.843C1545.53,72.263 1546.3,71.371 1546.87,70.167C1547.44,68.962 1547.72,67.651 1547.72,66.231C1547.72,64.382 1547.24,62.865 1546.28,61.681C1545.33,60.496 1543.96,59.903 1542.19,59.903C1540.36,59.903 1538.85,60.59 1537.67,61.964C1536.49,63.337 1535.9,65.007 1535.9,66.973C1535.9,68.953 1536.48,70.57 1537.63,71.827C1538.78,73.084 1540.1,73.712 1541.59,73.712Z" style="fill:rgb(128,128,128);fill-rule:nonzero;"/>
    <path d="M1555.59,75.274L1555.59,71.446C1558.57,72.957 1561.16,73.712 1563.34,73.712C1565.35,73.712 1567.01,73.103 1568.32,71.886C1569.62,70.668 1570.28,69.102 1570.28,67.188C1570.28,65.261 1569.56,63.692 1568.12,62.481C1566.68,61.27 1564.24,60.665 1560.79,60.665L1558.77,60.665L1558.77,57.638L1561.57,57.638C1564.11,57.638 1565.94,57.068 1567.08,55.929C1568.21,54.789 1568.77,53.523 1568.77,52.13C1568.77,50.867 1568.31,49.802 1567.39,48.936C1566.46,48.07 1565.04,47.638 1563.13,47.638C1560.98,47.638 1558.67,48.243 1556.2,49.454L1556.2,45.997C1558.67,45.072 1560.94,44.61 1562.99,44.61C1566.68,44.61 1569.22,45.336 1570.62,46.788C1572.02,48.24 1572.72,49.897 1572.72,51.759C1572.72,53.139 1572.35,54.434 1571.61,55.645C1570.86,56.856 1569.5,57.937 1567.51,58.888C1569.26,59.408 1570.59,60.046 1571.49,60.802C1572.39,61.557 1573.07,62.449 1573.53,63.477C1573.99,64.506 1574.22,65.658 1574.22,66.934C1574.22,69.773 1573.17,72.117 1571.07,73.966C1568.97,75.815 1566.25,76.739 1562.91,76.739C1561.95,76.739 1560.9,76.667 1559.76,76.524C1558.62,76.381 1557.23,75.964 1555.59,75.274Z" style="fill:rgb(128,128,128);fill-rule:nonzero;"/>
</svg>
