<?xml version="1.0" encoding="UTF-8" standalone="no"?>
<!DOCTYPE svg PUBLIC "-//W3C//DTD SVG 1.1//EN" "http://www.w3.org/Graphics/SVG/1.1/DTD/svg11.dtd">
<svg width="100%" height="100%" viewBox="0 0 1145 525" version="1.1" xmlns="http://www.w3.org/2000/svg" xmlns:xlink="http://www.w3.org/1999/xlink" xml:space="preserve" xmlns:serif="http://www.serif.com/" style="fill-rule:evenodd;clip-rule:evenodd;stroke-linecap:square;stroke-linejoin:round;stroke-miterlimit:10;">
    <rect id="Clementini-Points-Polygons" serif:id="Clementini Points-Polygons" x="-423" y="-2390" width="2683.8" height="4517.66" style="fill:none;"/>
    <g transform="matrix(1.20707,0,0,1.20707,-17192,-1756.05)">
        <g transform="matrix(48,0,0,48,14325.5,1796.71)">
            <path d="M0.523,-0L0.077,-0L0.077,-0.097C0.085,-0.104 0.095,-0.113 0.107,-0.124C0.119,-0.135 0.132,-0.147 0.148,-0.161C0.163,-0.175 0.178,-0.19 0.195,-0.207C0.212,-0.224 0.228,-0.241 0.244,-0.259C0.267,-0.284 0.287,-0.307 0.304,-0.328C0.321,-0.349 0.335,-0.368 0.346,-0.387C0.357,-0.405 0.365,-0.423 0.37,-0.441C0.375,-0.458 0.378,-0.476 0.378,-0.495C0.378,-0.508 0.375,-0.521 0.369,-0.534C0.363,-0.547 0.355,-0.558 0.344,-0.568C0.333,-0.577 0.321,-0.585 0.306,-0.591C0.291,-0.596 0.274,-0.599 0.256,-0.599C0.232,-0.599 0.21,-0.595 0.191,-0.588C0.171,-0.581 0.15,-0.568 0.129,-0.551L0.077,-0.643C0.105,-0.663 0.136,-0.68 0.171,-0.694C0.205,-0.707 0.244,-0.714 0.289,-0.714C0.318,-0.714 0.345,-0.71 0.372,-0.702C0.398,-0.694 0.421,-0.682 0.442,-0.667C0.462,-0.651 0.478,-0.631 0.49,-0.608C0.502,-0.585 0.508,-0.558 0.508,-0.527C0.508,-0.506 0.506,-0.486 0.503,-0.468C0.499,-0.449 0.493,-0.431 0.486,-0.413C0.478,-0.394 0.468,-0.375 0.456,-0.356C0.443,-0.337 0.428,-0.316 0.411,-0.293C0.398,-0.276 0.383,-0.258 0.368,-0.241C0.352,-0.223 0.336,-0.206 0.321,-0.19C0.306,-0.174 0.291,-0.159 0.276,-0.145C0.261,-0.131 0.247,-0.119 0.235,-0.11L0.523,-0.11L0.523,-0Z" style="fill-rule:nonzero;"/>
        </g>
        <g transform="matrix(48,0,0,48,14383.1,1796.71)">
            <path d="M0.106,-0.11L0.259,-0.11L0.259,-0.547L0.127,-0.446L0.067,-0.526L0.295,-0.7L0.383,-0.7L0.383,-0.11L0.533,-0.11L0.533,-0L0.106,-0L0.106,-0.11Z" style="fill-rule:nonzero;"/>
        </g>
        <g transform="matrix(48,0,0,48,14325.5,1868.71)">
            <rect x="0.088" y="-0.325" width="0.424" height="0.074" style="fill-rule:nonzero;"/>
        </g>
        <g transform="matrix(48,0,0,48,14383.1,1868.71)">
            <path d="M0.038,-0.351C0.038,-0.412 0.044,-0.465 0.057,-0.511C0.07,-0.556 0.088,-0.594 0.111,-0.624C0.133,-0.654 0.161,-0.677 0.193,-0.692C0.225,-0.707 0.261,-0.714 0.3,-0.714C0.384,-0.714 0.449,-0.685 0.494,-0.626C0.539,-0.567 0.562,-0.475 0.562,-0.351C0.562,-0.29 0.556,-0.236 0.543,-0.191C0.53,-0.145 0.513,-0.107 0.49,-0.077C0.466,-0.046 0.439,-0.024 0.407,-0.009C0.374,0.007 0.338,0.014 0.299,0.014C0.214,0.014 0.15,-0.017 0.105,-0.08C0.06,-0.142 0.038,-0.232 0.038,-0.351ZM0.434,-0.351C0.434,-0.362 0.434,-0.372 0.434,-0.382C0.433,-0.391 0.433,-0.401 0.432,-0.41L0.187,-0.187C0.208,-0.126 0.245,-0.096 0.3,-0.096C0.343,-0.096 0.376,-0.116 0.399,-0.157C0.422,-0.198 0.434,-0.262 0.434,-0.351ZM0.166,-0.351C0.166,-0.341 0.166,-0.332 0.167,-0.323C0.167,-0.314 0.167,-0.304 0.168,-0.295L0.412,-0.518C0.392,-0.575 0.354,-0.604 0.299,-0.604C0.256,-0.604 0.224,-0.584 0.201,-0.543C0.178,-0.501 0.166,-0.438 0.166,-0.351Z" style="fill-rule:nonzero;"/>
        </g>
    </g>
    <g transform="matrix(1.20707,0,0,1.20707,-16765.3,-1756.05)">
        <g transform="matrix(48,0,0,48,14325.5,1796.71)">
            <path d="M0.523,-0L0.077,-0L0.077,-0.097C0.085,-0.104 0.095,-0.113 0.107,-0.124C0.119,-0.135 0.132,-0.147 0.148,-0.161C0.163,-0.175 0.178,-0.19 0.195,-0.207C0.212,-0.224 0.228,-0.241 0.244,-0.259C0.267,-0.284 0.287,-0.307 0.304,-0.328C0.321,-0.349 0.335,-0.368 0.346,-0.387C0.357,-0.405 0.365,-0.423 0.37,-0.441C0.375,-0.458 0.378,-0.476 0.378,-0.495C0.378,-0.508 0.375,-0.521 0.369,-0.534C0.363,-0.547 0.355,-0.558 0.344,-0.568C0.333,-0.577 0.321,-0.585 0.306,-0.591C0.291,-0.596 0.274,-0.599 0.256,-0.599C0.232,-0.599 0.21,-0.595 0.191,-0.588C0.171,-0.581 0.15,-0.568 0.129,-0.551L0.077,-0.643C0.105,-0.663 0.136,-0.68 0.171,-0.694C0.205,-0.707 0.244,-0.714 0.289,-0.714C0.318,-0.714 0.345,-0.71 0.372,-0.702C0.398,-0.694 0.421,-0.682 0.442,-0.667C0.462,-0.651 0.478,-0.631 0.49,-0.608C0.502,-0.585 0.508,-0.558 0.508,-0.527C0.508,-0.506 0.506,-0.486 0.503,-0.468C0.499,-0.449 0.493,-0.431 0.486,-0.413C0.478,-0.394 0.468,-0.375 0.456,-0.356C0.443,-0.337 0.428,-0.316 0.411,-0.293C0.398,-0.276 0.383,-0.258 0.368,-0.241C0.352,-0.223 0.336,-0.206 0.321,-0.19C0.306,-0.174 0.291,-0.159 0.276,-0.145C0.261,-0.131 0.247,-0.119 0.235,-0.11L0.523,-0.11L0.523,-0Z" style="fill-rule:nonzero;"/>
        </g>
        <g transform="matrix(48,0,0,48,14383.1,1796.71)">
            <path d="M0.106,-0.11L0.259,-0.11L0.259,-0.547L0.127,-0.446L0.067,-0.526L0.295,-0.7L0.383,-0.7L0.383,-0.11L0.533,-0.11L0.533,-0L0.106,-0L0.106,-0.11Z" style="fill-rule:nonzero;"/>
        </g>
        <g transform="matrix(48,0,0,48,14325.5,1868.71)">
            <rect x="0.129" y="-0.325" width="0.342" height="0.074" style="fill-rule:nonzero;"/>
        </g>
        <g transform="matrix(48,0,0,48,14383.1,1868.71)">
            <rect x="0.088" y="-0.325" width="0.424" height="0.074" style="fill-rule:nonzero;"/>
        </g>
    </g>
    <g transform="matrix(1.20707,0,0,1.20707,-16352.1,-1756.05)">
        <g transform="matrix(48,0,0,48,14325.5,1796.71)">
            <path d="M0.523,-0L0.077,-0L0.077,-0.097C0.085,-0.104 0.095,-0.113 0.107,-0.124C0.119,-0.135 0.132,-0.147 0.148,-0.161C0.163,-0.175 0.178,-0.19 0.195,-0.207C0.212,-0.224 0.228,-0.241 0.244,-0.259C0.267,-0.284 0.287,-0.307 0.304,-0.328C0.321,-0.349 0.335,-0.368 0.346,-0.387C0.357,-0.405 0.365,-0.423 0.37,-0.441C0.375,-0.458 0.378,-0.476 0.378,-0.495C0.378,-0.508 0.375,-0.521 0.369,-0.534C0.363,-0.547 0.355,-0.558 0.344,-0.568C0.333,-0.577 0.321,-0.585 0.306,-0.591C0.291,-0.596 0.274,-0.599 0.256,-0.599C0.232,-0.599 0.21,-0.595 0.191,-0.588C0.171,-0.581 0.15,-0.568 0.129,-0.551L0.077,-0.643C0.105,-0.663 0.136,-0.68 0.171,-0.694C0.205,-0.707 0.244,-0.714 0.289,-0.714C0.318,-0.714 0.345,-0.71 0.372,-0.702C0.398,-0.694 0.421,-0.682 0.442,-0.667C0.462,-0.651 0.478,-0.631 0.49,-0.608C0.502,-0.585 0.508,-0.558 0.508,-0.527C0.508,-0.506 0.506,-0.486 0.503,-0.468C0.499,-0.449 0.493,-0.431 0.486,-0.413C0.478,-0.394 0.468,-0.375 0.456,-0.356C0.443,-0.337 0.428,-0.316 0.411,-0.293C0.398,-0.276 0.383,-0.258 0.368,-0.241C0.352,-0.223 0.336,-0.206 0.321,-0.19C0.306,-0.174 0.291,-0.159 0.276,-0.145C0.261,-0.131 0.247,-0.119 0.235,-0.11L0.523,-0.11L0.523,-0Z" style="fill-rule:nonzero;"/>
        </g>
        <g transform="matrix(48,0,0,48,14383.1,1796.71)">
            <rect x="0.129" y="-0.325" width="0.342" height="0.074" style="fill-rule:nonzero;"/>
        </g>
        <g transform="matrix(48,0,0,48,14325.5,1868.71)">
            <rect x="0.088" y="-0.325" width="0.424" height="0.074" style="fill-rule:nonzero;"/>
        </g>
        <g transform="matrix(48,0,0,48,14383.1,1868.71)">
            <path d="M0.106,-0.11L0.259,-0.11L0.259,-0.547L0.127,-0.446L0.067,-0.526L0.295,-0.7L0.383,-0.7L0.383,-0.11L0.533,-0.11L0.533,-0L0.106,-0L0.106,-0.11Z" style="fill-rule:nonzero;"/>
        </g>
    </g>
    <path d="M20.867,205.828L86.425,92.277L217.542,92.277L283.101,205.828L217.542,319.379L86.425,319.379L20.867,205.828Z" style="fill:rgb(198,237,237);stroke:rgb(21,183,183);stroke-width:6px;"/>
    <path d="M449.867,205.828L515.425,92.277L646.542,92.277L712.101,205.828L646.542,319.379L515.425,319.379L449.867,205.828Z" style="fill:rgb(198,237,237);stroke:rgb(21,183,183);stroke-width:6px;"/>
    <path d="M865.852,205.694L931.411,92.143L1062.53,92.143L1128.09,205.694L1062.53,319.245L931.411,319.245L865.852,205.694Z" style="fill:rgb(198,237,237);stroke:rgb(21,183,183);stroke-width:6px;"/>
    <path d="M872.385,205.694L934.561,98.003L1058.91,98.003L1121.09,205.694L1058.91,313.385L934.561,313.385L872.385,205.694Z" style="fill:rgb(253,194,255);fill-opacity:0.5;stroke:rgb(247,0,255);stroke-width:6px;"/>
    <path d="M501.123,203.694L541.181,134.311L621.298,134.311L661.357,203.694L621.298,273.077L541.181,273.077L501.123,203.694Z" style="fill:rgb(253,194,255);fill-opacity:0.5;stroke:rgb(247,0,255);stroke-width:6px;"/>
    <path d="M111.6,150.769L180.984,110.711L250.367,150.769L250.367,230.887L180.984,270.945L111.6,230.887L111.6,150.769Z" style="fill:rgb(253,194,255);fill-opacity:0.5;stroke:rgb(247,0,255);stroke-width:6px;"/>
    <path d="M141.055,43.622L141.055,20.224C139.961,21.096 138.9,21.838 137.872,22.45C136.843,23.062 135.43,23.687 133.633,24.325L133.633,21.044C136.485,19.833 138.959,18.264 141.055,16.337L144.688,16.337L144.688,43.622L151.973,43.622L151.973,46.65L133.633,46.65L133.633,43.622L141.055,43.622Z" style="fill:rgb(128,128,128);fill-rule:nonzero;"/>
    <path d="M157.637,30.888L157.637,16.337L174.61,16.337L174.61,19.833L161.27,19.833L161.27,27.255L161.895,27.255C166.257,27.255 169.616,28.166 171.973,29.989C174.33,31.812 175.508,34.267 175.508,37.353C175.508,39.306 175.033,41.057 174.082,42.607C173.132,44.156 171.791,45.37 170.059,46.249C168.327,47.128 166.485,47.567 164.532,47.567C162.579,47.567 160.079,47.092 157.032,46.142L157.032,42.177C158.138,42.776 159.375,43.267 160.743,43.651C162.11,44.036 163.373,44.228 164.532,44.228C165.691,44.228 166.823,43.948 167.93,43.388C169.037,42.828 169.896,42.011 170.508,40.937C171.12,39.862 171.426,38.765 171.426,37.646C171.426,35.758 170.59,34.159 168.916,32.851C167.243,31.542 164.271,30.888 160,30.888L157.637,30.888Z" style="fill:rgb(128,128,128);fill-rule:nonzero;"/>
    <path d="M572.515,43.622L572.515,20.224C571.422,21.096 570.36,21.838 569.332,22.45C568.303,23.062 566.89,23.687 565.094,24.325L565.094,21.044C567.945,19.833 570.419,18.264 572.515,16.337L576.148,16.337L576.148,43.622L583.433,43.622L583.433,46.65L565.094,46.65L565.094,43.622L572.515,43.622Z" style="fill:rgb(128,128,128);fill-rule:nonzero;"/>
    <path d="M591.129,32.431C592.066,31.038 593.228,29.901 594.615,29.023C596.002,28.144 597.528,27.704 599.195,27.704C600.771,27.704 602.265,28.088 603.678,28.857C605.09,29.625 606.168,30.696 606.91,32.069C607.652,33.443 608.023,35.041 608.023,36.864C608.023,39.742 607.102,42.245 605.26,44.374C603.417,46.503 600.992,47.567 597.984,47.567C594.442,47.567 591.796,46.086 590.045,43.124C588.293,40.162 587.418,36.396 587.418,31.825C587.418,26.773 588.531,22.779 590.758,19.843C592.984,16.907 595.998,15.439 599.801,15.439C601.845,15.439 603.831,15.738 605.758,16.337L605.758,20.009C603.596,18.98 601.558,18.466 599.644,18.466C596.936,18.466 594.84,19.709 593.355,22.196C591.871,24.683 591.129,27.834 591.129,31.65L591.129,32.431ZM598.258,44.54C599.234,44.54 600.217,44.25 601.207,43.671C602.196,43.092 602.974,42.2 603.541,40.995C604.107,39.791 604.39,38.479 604.39,37.06C604.39,35.211 603.912,33.694 602.955,32.509C601.998,31.324 600.634,30.732 598.863,30.732C597.027,30.732 595.52,31.418 594.342,32.792C593.163,34.166 592.574,35.836 592.574,37.802C592.574,39.781 593.15,41.399 594.303,42.655C595.455,43.912 596.773,44.54 598.258,44.54Z" style="fill:rgb(128,128,128);fill-rule:nonzero;"/>
    <path d="M984.603,47.842L984.603,24.444C983.509,25.316 982.448,26.058 981.42,26.67C980.391,27.282 978.978,27.907 977.181,28.545L977.181,25.264C980.033,24.053 982.507,22.484 984.603,20.557L988.236,20.557L988.236,47.842L995.521,47.842L995.521,50.87L977.181,50.87L977.181,47.842L984.603,47.842Z" style="fill:rgb(128,128,128);fill-rule:nonzero;"/>
    <path d="M1003.74,50.87L1003.74,48.155C1003.74,46.032 1003.99,44.248 1004.47,42.803C1004.95,41.358 1005.8,39.75 1007.01,37.979C1008.22,36.208 1009.19,34.841 1009.92,33.877L1013.08,29.698L1014.21,28.233C1015.07,27.074 1015.81,25.733 1016.44,24.209L1000.72,24.209L1000.72,20.557L1019.96,20.557L1019.96,22.979C1019.96,23.942 1019.76,24.834 1019.38,25.655C1019,26.475 1017.83,28.226 1015.89,30.909C1015.42,31.547 1014.96,32.185 1014.51,32.823L1012.47,35.674C1011.17,37.51 1010.21,38.975 1009.58,40.069C1008.96,41.162 1008.49,42.302 1008.17,43.487C1007.85,44.672 1007.69,46.228 1007.69,48.155L1007.69,50.87L1003.74,50.87Z" style="fill:rgb(128,128,128);fill-rule:nonzero;"/>
</svg>
