<?xml version="1.0" encoding="UTF-8" standalone="no"?>
<!DOCTYPE svg PUBLIC "-//W3C//DTD SVG 1.1//EN" "http://www.w3.org/Graphics/SVG/1.1/DTD/svg11.dtd">
<svg width="100%" height="100%" viewBox="0 0 1803 1115" version="1.1" xmlns="http://www.w3.org/2000/svg" xmlns:xlink="http://www.w3.org/1999/xlink" xml:space="preserve" xmlns:serif="http://www.serif.com/" style="fill-rule:evenodd;clip-rule:evenodd;stroke-linecap:square;stroke-linejoin:round;stroke-miterlimit:10;">
    <rect id="Clementini-Points-Polygons" serif:id="Clementini Points-Polygons" x="-429" y="-1146" width="2683.8" height="4517.66" style="fill:none;"/>
    <g transform="matrix(1.20707,0,0,1.20707,-17198,-1681.73)">
        <g transform="matrix(48,0,0,48,14325.5,1796.71)">
            <rect x="0.088" y="-0.325" width="0.424" height="0.074" style="fill-rule:nonzero;"/>
        </g>
        <g transform="matrix(48,0,0,48,14383.1,1796.71)">
            <rect x="0.088" y="-0.325" width="0.424" height="0.074" style="fill-rule:nonzero;"/>
        </g>
        <g transform="matrix(48,0,0,48,14325.5,1868.71)">
            <rect x="0.088" y="-0.325" width="0.424" height="0.074" style="fill-rule:nonzero;"/>
        </g>
        <g transform="matrix(48,0,0,48,14383.1,1868.71)">
            <rect x="0.088" y="-0.325" width="0.424" height="0.074" style="fill-rule:nonzero;"/>
        </g>
    </g>
    <g transform="matrix(1.20707,0,0,1.20707,-16085,-1691.1)">
        <g transform="matrix(48,0,0,48,14325.5,1796.71)">
            <path d="M0.523,-0L0.077,-0L0.077,-0.097C0.085,-0.104 0.095,-0.113 0.107,-0.124C0.119,-0.135 0.132,-0.147 0.148,-0.161C0.163,-0.175 0.178,-0.19 0.195,-0.207C0.212,-0.224 0.228,-0.241 0.244,-0.259C0.267,-0.284 0.287,-0.307 0.304,-0.328C0.321,-0.349 0.335,-0.368 0.346,-0.387C0.357,-0.405 0.365,-0.423 0.37,-0.441C0.375,-0.458 0.378,-0.476 0.378,-0.495C0.378,-0.508 0.375,-0.521 0.369,-0.534C0.363,-0.547 0.355,-0.558 0.344,-0.568C0.333,-0.577 0.321,-0.585 0.306,-0.591C0.291,-0.596 0.274,-0.599 0.256,-0.599C0.232,-0.599 0.21,-0.595 0.191,-0.588C0.171,-0.581 0.15,-0.568 0.129,-0.551L0.077,-0.643C0.105,-0.663 0.136,-0.68 0.171,-0.694C0.205,-0.707 0.244,-0.714 0.289,-0.714C0.318,-0.714 0.345,-0.71 0.372,-0.702C0.398,-0.694 0.421,-0.682 0.442,-0.667C0.462,-0.651 0.478,-0.631 0.49,-0.608C0.502,-0.585 0.508,-0.558 0.508,-0.527C0.508,-0.506 0.506,-0.486 0.503,-0.468C0.499,-0.449 0.493,-0.431 0.486,-0.413C0.478,-0.394 0.468,-0.375 0.456,-0.356C0.443,-0.337 0.428,-0.316 0.411,-0.293C0.398,-0.276 0.383,-0.258 0.368,-0.241C0.352,-0.223 0.336,-0.206 0.321,-0.19C0.306,-0.174 0.291,-0.159 0.276,-0.145C0.261,-0.131 0.247,-0.119 0.235,-0.11L0.523,-0.11L0.523,-0Z" style="fill-rule:nonzero;"/>
        </g>
        <g transform="matrix(48,0,0,48,14383.1,1796.71)">
            <path d="M0.106,-0.11L0.259,-0.11L0.259,-0.547L0.127,-0.446L0.067,-0.526L0.295,-0.7L0.383,-0.7L0.383,-0.11L0.533,-0.11L0.533,-0L0.106,-0L0.106,-0.11Z" style="fill-rule:nonzero;"/>
        </g>
        <g transform="matrix(48,0,0,48,14325.5,1868.71)">
            <path d="M0.106,-0.11L0.259,-0.11L0.259,-0.547L0.127,-0.446L0.067,-0.526L0.295,-0.7L0.383,-0.7L0.383,-0.11L0.533,-0.11L0.533,-0L0.106,-0L0.106,-0.11Z" style="fill-rule:nonzero;"/>
        </g>
        <g transform="matrix(48,0,0,48,14383.1,1868.71)">
            <path d="M0.038,-0.351C0.038,-0.412 0.044,-0.465 0.057,-0.511C0.07,-0.556 0.088,-0.594 0.111,-0.624C0.133,-0.654 0.161,-0.677 0.193,-0.692C0.225,-0.707 0.261,-0.714 0.3,-0.714C0.384,-0.714 0.449,-0.685 0.494,-0.626C0.539,-0.567 0.562,-0.475 0.562,-0.351C0.562,-0.29 0.556,-0.236 0.543,-0.191C0.53,-0.145 0.513,-0.107 0.49,-0.077C0.466,-0.046 0.439,-0.024 0.407,-0.009C0.374,0.007 0.338,0.014 0.299,0.014C0.214,0.014 0.15,-0.017 0.105,-0.08C0.06,-0.142 0.038,-0.232 0.038,-0.351ZM0.434,-0.351C0.434,-0.362 0.434,-0.372 0.434,-0.382C0.433,-0.391 0.433,-0.401 0.432,-0.41L0.187,-0.187C0.208,-0.126 0.245,-0.096 0.3,-0.096C0.343,-0.096 0.376,-0.116 0.399,-0.157C0.422,-0.198 0.434,-0.262 0.434,-0.351ZM0.166,-0.351C0.166,-0.341 0.166,-0.332 0.167,-0.323C0.167,-0.314 0.167,-0.304 0.168,-0.295L0.412,-0.518C0.392,-0.575 0.354,-0.604 0.299,-0.604C0.256,-0.604 0.224,-0.584 0.201,-0.543C0.178,-0.501 0.166,-0.438 0.166,-0.351Z" style="fill-rule:nonzero;"/>
        </g>
    </g>
    <g transform="matrix(1.20707,0,0,1.20707,-16651.1,-1179.82)">
        <g transform="matrix(48,0,0,48,14325.5,1796.71)">
            <path d="M0.523,-0L0.077,-0L0.077,-0.097C0.085,-0.104 0.095,-0.113 0.107,-0.124C0.119,-0.135 0.132,-0.147 0.148,-0.161C0.163,-0.175 0.178,-0.19 0.195,-0.207C0.212,-0.224 0.228,-0.241 0.244,-0.259C0.267,-0.284 0.287,-0.307 0.304,-0.328C0.321,-0.349 0.335,-0.368 0.346,-0.387C0.357,-0.405 0.365,-0.423 0.37,-0.441C0.375,-0.458 0.378,-0.476 0.378,-0.495C0.378,-0.508 0.375,-0.521 0.369,-0.534C0.363,-0.547 0.355,-0.558 0.344,-0.568C0.333,-0.577 0.321,-0.585 0.306,-0.591C0.291,-0.596 0.274,-0.599 0.256,-0.599C0.232,-0.599 0.21,-0.595 0.191,-0.588C0.171,-0.581 0.15,-0.568 0.129,-0.551L0.077,-0.643C0.105,-0.663 0.136,-0.68 0.171,-0.694C0.205,-0.707 0.244,-0.714 0.289,-0.714C0.318,-0.714 0.345,-0.71 0.372,-0.702C0.398,-0.694 0.421,-0.682 0.442,-0.667C0.462,-0.651 0.478,-0.631 0.49,-0.608C0.502,-0.585 0.508,-0.558 0.508,-0.527C0.508,-0.506 0.506,-0.486 0.503,-0.468C0.499,-0.449 0.493,-0.431 0.486,-0.413C0.478,-0.394 0.468,-0.375 0.456,-0.356C0.443,-0.337 0.428,-0.316 0.411,-0.293C0.398,-0.276 0.383,-0.258 0.368,-0.241C0.352,-0.223 0.336,-0.206 0.321,-0.19C0.306,-0.174 0.291,-0.159 0.276,-0.145C0.261,-0.131 0.247,-0.119 0.235,-0.11L0.523,-0.11L0.523,-0Z" style="fill-rule:nonzero;"/>
        </g>
        <g transform="matrix(48,0,0,48,14383.1,1796.71)">
            <path d="M0.106,-0.11L0.259,-0.11L0.259,-0.547L0.127,-0.446L0.067,-0.526L0.295,-0.7L0.383,-0.7L0.383,-0.11L0.533,-0.11L0.533,-0L0.106,-0L0.106,-0.11Z" style="fill-rule:nonzero;"/>
        </g>
        <g transform="matrix(48,0,0,48,14325.5,1868.71)">
            <rect x="0.088" y="-0.325" width="0.424" height="0.074" style="fill-rule:nonzero;"/>
        </g>
        <g transform="matrix(48,0,0,48,14383.1,1868.71)">
            <path d="M0.038,-0.351C0.038,-0.412 0.044,-0.465 0.057,-0.511C0.07,-0.556 0.088,-0.594 0.111,-0.624C0.133,-0.654 0.161,-0.677 0.193,-0.692C0.225,-0.707 0.261,-0.714 0.3,-0.714C0.384,-0.714 0.449,-0.685 0.494,-0.626C0.539,-0.567 0.562,-0.475 0.562,-0.351C0.562,-0.29 0.556,-0.236 0.543,-0.191C0.53,-0.145 0.513,-0.107 0.49,-0.077C0.466,-0.046 0.439,-0.024 0.407,-0.009C0.374,0.007 0.338,0.014 0.299,0.014C0.214,0.014 0.15,-0.017 0.105,-0.08C0.06,-0.142 0.038,-0.232 0.038,-0.351ZM0.434,-0.351C0.434,-0.362 0.434,-0.372 0.434,-0.382C0.433,-0.391 0.433,-0.401 0.432,-0.41L0.187,-0.187C0.208,-0.126 0.245,-0.096 0.3,-0.096C0.343,-0.096 0.376,-0.116 0.399,-0.157C0.422,-0.198 0.434,-0.262 0.434,-0.351ZM0.166,-0.351C0.166,-0.341 0.166,-0.332 0.167,-0.323C0.167,-0.314 0.167,-0.304 0.168,-0.295L0.412,-0.518C0.392,-0.575 0.354,-0.604 0.299,-0.604C0.256,-0.604 0.224,-0.584 0.201,-0.543C0.178,-0.501 0.166,-0.438 0.166,-0.351Z" style="fill-rule:nonzero;"/>
        </g>
    </g>
    <g transform="matrix(1.20707,0,0,1.20707,-16839.5,-1681.73)">
        <g transform="matrix(48,0,0,48,14325.5,1796.71)">
            <rect x="0.088" y="-0.325" width="0.424" height="0.074" style="fill-rule:nonzero;"/>
        </g>
        <g transform="matrix(48,0,0,48,14383.1,1796.71)">
            <rect x="0.088" y="-0.325" width="0.424" height="0.074" style="fill-rule:nonzero;"/>
        </g>
        <g transform="matrix(48,0,0,48,14325.5,1868.71)">
            <rect x="0.088" y="-0.325" width="0.424" height="0.074" style="fill-rule:nonzero;"/>
        </g>
        <g transform="matrix(48,0,0,48,14383.1,1868.71)">
            <path d="M0.038,-0.351C0.038,-0.412 0.044,-0.465 0.057,-0.511C0.07,-0.556 0.088,-0.594 0.111,-0.624C0.133,-0.654 0.161,-0.677 0.193,-0.692C0.225,-0.707 0.261,-0.714 0.3,-0.714C0.384,-0.714 0.449,-0.685 0.494,-0.626C0.539,-0.567 0.562,-0.475 0.562,-0.351C0.562,-0.29 0.556,-0.236 0.543,-0.191C0.53,-0.145 0.513,-0.107 0.49,-0.077C0.466,-0.046 0.439,-0.024 0.407,-0.009C0.374,0.007 0.338,0.014 0.299,0.014C0.214,0.014 0.15,-0.017 0.105,-0.08C0.06,-0.142 0.038,-0.232 0.038,-0.351ZM0.434,-0.351C0.434,-0.362 0.434,-0.372 0.434,-0.382C0.433,-0.391 0.433,-0.401 0.432,-0.41L0.187,-0.187C0.208,-0.126 0.245,-0.096 0.3,-0.096C0.343,-0.096 0.376,-0.116 0.399,-0.157C0.422,-0.198 0.434,-0.262 0.434,-0.351ZM0.166,-0.351C0.166,-0.341 0.166,-0.332 0.167,-0.323C0.167,-0.314 0.167,-0.304 0.168,-0.295L0.412,-0.518C0.392,-0.575 0.354,-0.604 0.299,-0.604C0.256,-0.604 0.224,-0.584 0.201,-0.543C0.178,-0.501 0.166,-0.438 0.166,-0.351Z" style="fill-rule:nonzero;"/>
        </g>
    </g>
    <g transform="matrix(1.20707,0,0,1.20707,-15721.3,-1691.1)">
        <g transform="matrix(48,0,0,48,14325.5,1796.71)">
            <path d="M0.523,-0L0.077,-0L0.077,-0.097C0.085,-0.104 0.095,-0.113 0.107,-0.124C0.119,-0.135 0.132,-0.147 0.148,-0.161C0.163,-0.175 0.178,-0.19 0.195,-0.207C0.212,-0.224 0.228,-0.241 0.244,-0.259C0.267,-0.284 0.287,-0.307 0.304,-0.328C0.321,-0.349 0.335,-0.368 0.346,-0.387C0.357,-0.405 0.365,-0.423 0.37,-0.441C0.375,-0.458 0.378,-0.476 0.378,-0.495C0.378,-0.508 0.375,-0.521 0.369,-0.534C0.363,-0.547 0.355,-0.558 0.344,-0.568C0.333,-0.577 0.321,-0.585 0.306,-0.591C0.291,-0.596 0.274,-0.599 0.256,-0.599C0.232,-0.599 0.21,-0.595 0.191,-0.588C0.171,-0.581 0.15,-0.568 0.129,-0.551L0.077,-0.643C0.105,-0.663 0.136,-0.68 0.171,-0.694C0.205,-0.707 0.244,-0.714 0.289,-0.714C0.318,-0.714 0.345,-0.71 0.372,-0.702C0.398,-0.694 0.421,-0.682 0.442,-0.667C0.462,-0.651 0.478,-0.631 0.49,-0.608C0.502,-0.585 0.508,-0.558 0.508,-0.527C0.508,-0.506 0.506,-0.486 0.503,-0.468C0.499,-0.449 0.493,-0.431 0.486,-0.413C0.478,-0.394 0.468,-0.375 0.456,-0.356C0.443,-0.337 0.428,-0.316 0.411,-0.293C0.398,-0.276 0.383,-0.258 0.368,-0.241C0.352,-0.223 0.336,-0.206 0.321,-0.19C0.306,-0.174 0.291,-0.159 0.276,-0.145C0.261,-0.131 0.247,-0.119 0.235,-0.11L0.523,-0.11L0.523,-0Z" style="fill-rule:nonzero;"/>
        </g>
        <g transform="matrix(48,0,0,48,14383.1,1796.71)">
            <path d="M0.106,-0.11L0.259,-0.11L0.259,-0.547L0.127,-0.446L0.067,-0.526L0.295,-0.7L0.383,-0.7L0.383,-0.11L0.533,-0.11L0.533,-0L0.106,-0L0.106,-0.11Z" style="fill-rule:nonzero;"/>
        </g>
        <g transform="matrix(48,0,0,48,14325.5,1868.71)">
            <path d="M0.106,-0.11L0.259,-0.11L0.259,-0.547L0.127,-0.446L0.067,-0.526L0.295,-0.7L0.383,-0.7L0.383,-0.11L0.533,-0.11L0.533,-0L0.106,-0L0.106,-0.11Z" style="fill-rule:nonzero;"/>
        </g>
        <g transform="matrix(48,0,0,48,14383.1,1868.71)">
            <path d="M0.106,-0.11L0.259,-0.11L0.259,-0.547L0.127,-0.446L0.067,-0.526L0.295,-0.7L0.383,-0.7L0.383,-0.11L0.533,-0.11L0.533,-0L0.106,-0L0.106,-0.11Z" style="fill-rule:nonzero;"/>
        </g>
    </g>
    <g transform="matrix(1.20707,0,0,1.20707,-16268.4,-1171.72)">
        <g transform="matrix(48,0,0,48,14325.5,1796.71)">
            <path d="M0.523,-0L0.077,-0L0.077,-0.097C0.085,-0.104 0.095,-0.113 0.107,-0.124C0.119,-0.135 0.132,-0.147 0.148,-0.161C0.163,-0.175 0.178,-0.19 0.195,-0.207C0.212,-0.224 0.228,-0.241 0.244,-0.259C0.267,-0.284 0.287,-0.307 0.304,-0.328C0.321,-0.349 0.335,-0.368 0.346,-0.387C0.357,-0.405 0.365,-0.423 0.37,-0.441C0.375,-0.458 0.378,-0.476 0.378,-0.495C0.378,-0.508 0.375,-0.521 0.369,-0.534C0.363,-0.547 0.355,-0.558 0.344,-0.568C0.333,-0.577 0.321,-0.585 0.306,-0.591C0.291,-0.596 0.274,-0.599 0.256,-0.599C0.232,-0.599 0.21,-0.595 0.191,-0.588C0.171,-0.581 0.15,-0.568 0.129,-0.551L0.077,-0.643C0.105,-0.663 0.136,-0.68 0.171,-0.694C0.205,-0.707 0.244,-0.714 0.289,-0.714C0.318,-0.714 0.345,-0.71 0.372,-0.702C0.398,-0.694 0.421,-0.682 0.442,-0.667C0.462,-0.651 0.478,-0.631 0.49,-0.608C0.502,-0.585 0.508,-0.558 0.508,-0.527C0.508,-0.506 0.506,-0.486 0.503,-0.468C0.499,-0.449 0.493,-0.431 0.486,-0.413C0.478,-0.394 0.468,-0.375 0.456,-0.356C0.443,-0.337 0.428,-0.316 0.411,-0.293C0.398,-0.276 0.383,-0.258 0.368,-0.241C0.352,-0.223 0.336,-0.206 0.321,-0.19C0.306,-0.174 0.291,-0.159 0.276,-0.145C0.261,-0.131 0.247,-0.119 0.235,-0.11L0.523,-0.11L0.523,-0Z" style="fill-rule:nonzero;"/>
        </g>
        <g transform="matrix(48,0,0,48,14383.1,1796.71)">
            <path d="M0.106,-0.11L0.259,-0.11L0.259,-0.547L0.127,-0.446L0.067,-0.526L0.295,-0.7L0.383,-0.7L0.383,-0.11L0.533,-0.11L0.533,-0L0.106,-0L0.106,-0.11Z" style="fill-rule:nonzero;"/>
        </g>
        <g transform="matrix(48,0,0,48,14325.5,1868.71)">
            <rect x="0.129" y="-0.325" width="0.342" height="0.074" style="fill-rule:nonzero;"/>
        </g>
        <g transform="matrix(48,0,0,48,14383.1,1868.71)">
            <rect x="0.088" y="-0.325" width="0.424" height="0.074" style="fill-rule:nonzero;"/>
        </g>
    </g>
    <g transform="matrix(1.20707,0,0,1.20707,-16482.7,-1681.73)">
        <g transform="matrix(48,0,0,48,14325.5,1796.71)">
            <rect x="0.088" y="-0.325" width="0.424" height="0.074" style="fill-rule:nonzero;"/>
        </g>
        <g transform="matrix(48,0,0,48,14383.1,1796.71)">
            <rect x="0.088" y="-0.325" width="0.424" height="0.074" style="fill-rule:nonzero;"/>
        </g>
        <g transform="matrix(48,0,0,48,14325.5,1868.71)">
            <rect x="0.088" y="-0.325" width="0.424" height="0.074" style="fill-rule:nonzero;"/>
        </g>
        <g transform="matrix(48,0,0,48,14383.1,1868.71)">
            <path d="M0.106,-0.11L0.259,-0.11L0.259,-0.547L0.127,-0.446L0.067,-0.526L0.295,-0.7L0.383,-0.7L0.383,-0.11L0.533,-0.11L0.533,-0L0.106,-0L0.106,-0.11Z" style="fill-rule:nonzero;"/>
        </g>
    </g>
    <g transform="matrix(1.20707,0,0,1.20707,-17034.5,-1177.72)">
        <g transform="matrix(48,0,0,48,14325.5,1796.71)">
            <path d="M0.523,-0L0.077,-0L0.077,-0.097C0.085,-0.104 0.095,-0.113 0.107,-0.124C0.119,-0.135 0.132,-0.147 0.148,-0.161C0.163,-0.175 0.178,-0.19 0.195,-0.207C0.212,-0.224 0.228,-0.241 0.244,-0.259C0.267,-0.284 0.287,-0.307 0.304,-0.328C0.321,-0.349 0.335,-0.368 0.346,-0.387C0.357,-0.405 0.365,-0.423 0.37,-0.441C0.375,-0.458 0.378,-0.476 0.378,-0.495C0.378,-0.508 0.375,-0.521 0.369,-0.534C0.363,-0.547 0.355,-0.558 0.344,-0.568C0.333,-0.577 0.321,-0.585 0.306,-0.591C0.291,-0.596 0.274,-0.599 0.256,-0.599C0.232,-0.599 0.21,-0.595 0.191,-0.588C0.171,-0.581 0.15,-0.568 0.129,-0.551L0.077,-0.643C0.105,-0.663 0.136,-0.68 0.171,-0.694C0.205,-0.707 0.244,-0.714 0.289,-0.714C0.318,-0.714 0.345,-0.71 0.372,-0.702C0.398,-0.694 0.421,-0.682 0.442,-0.667C0.462,-0.651 0.478,-0.631 0.49,-0.608C0.502,-0.585 0.508,-0.558 0.508,-0.527C0.508,-0.506 0.506,-0.486 0.503,-0.468C0.499,-0.449 0.493,-0.431 0.486,-0.413C0.478,-0.394 0.468,-0.375 0.456,-0.356C0.443,-0.337 0.428,-0.316 0.411,-0.293C0.398,-0.276 0.383,-0.258 0.368,-0.241C0.352,-0.223 0.336,-0.206 0.321,-0.19C0.306,-0.174 0.291,-0.159 0.276,-0.145C0.261,-0.131 0.247,-0.119 0.235,-0.11L0.523,-0.11L0.523,-0Z" style="fill-rule:nonzero;"/>
        </g>
        <g transform="matrix(48,0,0,48,14383.1,1796.71)">
            <path d="M0.106,-0.11L0.259,-0.11L0.259,-0.547L0.127,-0.446L0.067,-0.526L0.295,-0.7L0.383,-0.7L0.383,-0.11L0.533,-0.11L0.533,-0L0.106,-0L0.106,-0.11Z" style="fill-rule:nonzero;"/>
        </g>
        <g transform="matrix(48,0,0,48,14325.5,1868.71)">
            <rect x="0.088" y="-0.325" width="0.424" height="0.074" style="fill-rule:nonzero;"/>
        </g>
        <g transform="matrix(48,0,0,48,14383.1,1868.71)">
            <path d="M0.106,-0.11L0.259,-0.11L0.259,-0.547L0.127,-0.446L0.067,-0.526L0.295,-0.7L0.383,-0.7L0.383,-0.11L0.533,-0.11L0.533,-0L0.106,-0L0.106,-0.11Z" style="fill-rule:nonzero;"/>
        </g>
    </g>
    <g transform="matrix(1.20707,0,0,1.20707,-15876.3,-1171.72)">
        <g transform="matrix(48,0,0,48,14325.5,1796.71)">
            <path d="M0.523,-0L0.077,-0L0.077,-0.097C0.085,-0.104 0.095,-0.113 0.107,-0.124C0.119,-0.135 0.132,-0.147 0.148,-0.161C0.163,-0.175 0.178,-0.19 0.195,-0.207C0.212,-0.224 0.228,-0.241 0.244,-0.259C0.267,-0.284 0.287,-0.307 0.304,-0.328C0.321,-0.349 0.335,-0.368 0.346,-0.387C0.357,-0.405 0.365,-0.423 0.37,-0.441C0.375,-0.458 0.378,-0.476 0.378,-0.495C0.378,-0.508 0.375,-0.521 0.369,-0.534C0.363,-0.547 0.355,-0.558 0.344,-0.568C0.333,-0.577 0.321,-0.585 0.306,-0.591C0.291,-0.596 0.274,-0.599 0.256,-0.599C0.232,-0.599 0.21,-0.595 0.191,-0.588C0.171,-0.581 0.15,-0.568 0.129,-0.551L0.077,-0.643C0.105,-0.663 0.136,-0.68 0.171,-0.694C0.205,-0.707 0.244,-0.714 0.289,-0.714C0.318,-0.714 0.345,-0.71 0.372,-0.702C0.398,-0.694 0.421,-0.682 0.442,-0.667C0.462,-0.651 0.478,-0.631 0.49,-0.608C0.502,-0.585 0.508,-0.558 0.508,-0.527C0.508,-0.506 0.506,-0.486 0.503,-0.468C0.499,-0.449 0.493,-0.431 0.486,-0.413C0.478,-0.394 0.468,-0.375 0.456,-0.356C0.443,-0.337 0.428,-0.316 0.411,-0.293C0.398,-0.276 0.383,-0.258 0.368,-0.241C0.352,-0.223 0.336,-0.206 0.321,-0.19C0.306,-0.174 0.291,-0.159 0.276,-0.145C0.261,-0.131 0.247,-0.119 0.235,-0.11L0.523,-0.11L0.523,-0Z" style="fill-rule:nonzero;"/>
        </g>
        <g transform="matrix(48,0,0,48,14383.1,1796.71)">
            <rect x="0.129" y="-0.325" width="0.342" height="0.074" style="fill-rule:nonzero;"/>
        </g>
        <g transform="matrix(48,0,0,48,14325.5,1868.71)">
            <rect x="0.088" y="-0.325" width="0.424" height="0.074" style="fill-rule:nonzero;"/>
        </g>
        <g transform="matrix(48,0,0,48,14383.1,1868.71)">
            <path d="M0.106,-0.11L0.259,-0.11L0.259,-0.547L0.127,-0.446L0.067,-0.526L0.295,-0.7L0.383,-0.7L0.383,-0.11L0.533,-0.11L0.533,-0L0.106,-0L0.106,-0.11Z" style="fill-rule:nonzero;"/>
        </g>
    </g>
    <path d="M13.34,283.154L78.899,169.604L210.016,169.604L275.575,283.154L210.016,396.705L78.899,396.705L13.34,283.154Z" style="fill:rgb(198,237,237);stroke:rgb(21,183,183);stroke-width:6px;"/>
    <path d="M371.078,283.154L436.637,169.604L567.754,169.604L633.312,283.154L567.754,396.705L436.637,396.705L371.078,283.154Z" style="fill:rgb(198,237,237);stroke:rgb(21,183,183);stroke-width:6px;"/>
    <path d="M561.758,798.233L627.316,684.682L758.433,684.682L823.992,798.233L758.433,911.784L627.316,911.784L561.758,798.233Z" style="fill:rgb(198,237,237);stroke:rgb(21,183,183);stroke-width:6px;"/>
    <path d="M946.789,800.33L1012.35,686.78L1143.46,686.78L1209.02,800.33L1143.46,913.881L1012.35,913.881L946.789,800.33Z" style="fill:rgb(198,237,237);stroke:rgb(21,183,183);stroke-width:6px;"/>
    <path d="M1330.74,811.142L1396.3,697.592L1527.42,697.592L1592.98,811.142L1527.42,924.693L1396.3,924.693L1330.74,811.142Z" style="fill:rgb(198,237,237);stroke:rgb(21,183,183);stroke-width:6px;"/>
    <path d="M730.085,283.154L795.643,169.604L926.76,169.604L992.319,283.154L926.76,396.705L795.643,396.705L730.085,283.154Z" style="fill:rgb(198,237,237);stroke:rgb(21,183,183);stroke-width:6px;"/>
    <path d="M1127.95,285.154L1193.51,171.604L1324.63,171.604L1390.18,285.154L1324.63,398.705L1193.51,398.705L1127.95,285.154Z" style="fill:rgb(198,237,237);stroke:rgb(21,183,183);stroke-width:6px;"/>
    <path d="M1493.87,285.154L1559.42,171.604L1690.54,171.604L1756.1,285.154L1690.54,398.705L1559.42,398.705L1493.87,285.154Z" style="fill:rgb(198,237,237);stroke:rgb(21,183,183);stroke-width:6px;"/>
    <path d="M182.817,798.54L248.375,684.989L379.492,684.989L445.051,798.54L379.492,912.091L248.375,912.091L182.817,798.54Z" style="fill:rgb(198,237,237);stroke:rgb(21,183,183);stroke-width:6px;"/>
    <path d="M1337.28,811.142L1399.45,703.451L1523.8,703.451L1585.98,811.142L1523.8,918.833L1399.45,918.833L1337.28,811.142Z" style="fill:rgb(253,194,255);fill-opacity:0.5;stroke:rgb(247,0,255);stroke-width:6px;"/>
    <path d="M1299.09,214.987L1339.15,145.604L1419.27,145.604L1459.33,214.987L1419.27,284.37L1339.15,284.37L1299.09,214.987Z" style="fill:rgb(253,194,255);fill-opacity:0.5;stroke:rgb(247,0,255);stroke-width:6px;"/>
    <path d="M1621.98,240.987L1662.04,171.604L1742.16,171.604L1782.22,240.987L1742.16,310.37L1662.04,310.37L1621.98,240.987Z" style="fill:rgb(253,194,255);fill-opacity:0.5;stroke:rgb(247,0,255);stroke-width:6px;"/>
    <path d="M270.538,775.373L310.597,705.989L390.714,705.989L430.773,775.373L390.714,844.756L310.597,844.756L270.538,775.373Z" style="fill:rgb(253,194,255);fill-opacity:0.5;stroke:rgb(247,0,255);stroke-width:6px;"/>
    <path d="M998.045,798.196L1038.1,728.813L1118.22,728.813L1158.28,798.196L1118.22,867.58L1038.1,867.58L998.045,798.196Z" style="fill:rgb(253,194,255);fill-opacity:0.5;stroke:rgb(247,0,255);stroke-width:6px;"/>
    <path d="M652.492,743.174L721.875,703.116L791.258,743.174L791.258,823.292L721.875,863.35L652.492,823.292L652.492,743.174Z" style="fill:rgb(253,194,255);fill-opacity:0.5;stroke:rgb(247,0,255);stroke-width:6px;"/>
    <path d="M189.514,79.179L229.572,9.796L309.689,9.796L349.748,79.179L309.689,148.563L229.572,148.563L189.514,79.179Z" style="fill:rgb(253,194,255);fill-opacity:0.5;stroke:rgb(247,0,255);stroke-width:6px;"/>
    <path d="M529.848,97.543L569.906,28.16L650.023,28.16L690.082,97.543L650.023,166.927L569.906,166.927L529.848,97.543Z" style="fill:rgb(253,194,255);fill-opacity:0.5;stroke:rgb(247,0,255);stroke-width:6px;"/>
    <path d="M935.476,184.543L975.534,115.16L1055.65,115.16L1095.71,184.543L1055.65,253.927L975.534,253.927L935.476,184.543Z" style="fill:rgb(253,194,255);fill-opacity:0.5;stroke:rgb(247,0,255);stroke-width:6px;"/>
    <path d="M1248.06,118.421L1248.06,95.023C1246.96,95.895 1245.9,96.638 1244.87,97.249C1243.84,97.861 1242.43,98.486 1240.63,99.124L1240.63,95.843C1243.49,94.632 1245.96,93.063 1248.06,91.136L1251.69,91.136L1251.69,118.421L1258.97,118.421L1258.97,121.449L1240.63,121.449L1240.63,118.421L1248.06,118.421Z" style="fill:rgb(128,128,128);fill-rule:nonzero;"/>
    <path d="M1282.21,121.449L1263.88,121.449L1263.88,118.109C1263.88,117.249 1264.05,116.328 1264.4,115.345C1264.75,114.362 1265.42,113.259 1266.41,112.035C1267.4,110.811 1268.45,109.632 1269.56,108.499L1271.63,106.39C1272.05,105.96 1272.96,104.964 1274.36,103.402C1275.77,101.839 1276.7,100.641 1277.15,99.808C1277.6,98.975 1277.82,98.154 1277.82,97.347C1277.82,96.045 1277.3,95.039 1276.26,94.33C1275.22,93.62 1274.05,93.265 1272.74,93.265C1272,93.265 1271.17,93.35 1270.25,93.519C1269.33,93.688 1268.53,93.887 1267.84,94.115C1267.15,94.343 1266.03,94.808 1264.48,95.511L1264.48,92.289C1266.12,91.507 1267.77,90.97 1269.41,90.677C1271.06,90.384 1272.42,90.238 1273.49,90.238C1275.06,90.238 1276.51,90.495 1277.83,91.009C1279.15,91.524 1280.13,92.321 1280.78,93.402C1281.42,94.483 1281.75,95.635 1281.75,96.859C1281.75,98.226 1281.33,99.626 1280.51,101.058C1279.68,102.49 1278.12,104.333 1275.83,106.585L1273.6,108.792L1271.73,110.628C1270.54,111.826 1269.59,112.985 1268.86,114.105C1268.13,115.225 1267.72,116.559 1267.64,118.109L1282.21,118.109L1282.21,121.449Z" style="fill:rgb(128,128,128);fill-rule:nonzero;"/>
    <path d="M681.946,636.027L681.946,612.629C680.853,613.501 679.791,614.243 678.763,614.855C677.734,615.467 676.321,616.092 674.525,616.73L674.525,613.449C677.376,612.238 679.85,610.669 681.946,608.742L685.579,608.742L685.579,636.027L692.864,636.027L692.864,639.055L674.525,639.055L674.525,636.027L681.946,636.027Z" style="fill:rgb(128,128,128);fill-rule:nonzero;"/>
    <path d="M698.528,623.293L698.528,608.742L715.501,608.742L715.501,612.238L702.161,612.238L702.161,619.66L702.786,619.66C707.148,619.66 710.508,620.571 712.864,622.394C715.221,624.217 716.4,626.672 716.4,629.758C716.4,631.711 715.924,633.462 714.974,635.012C714.023,636.561 712.682,637.775 710.95,638.654C709.219,639.533 707.376,639.972 705.423,639.972C703.47,639.972 700.97,639.497 697.923,638.547L697.923,634.582C699.03,635.181 700.267,635.672 701.634,636.056C703.001,636.441 704.264,636.633 705.423,636.633C706.582,636.633 707.715,636.353 708.821,635.793C709.928,635.233 710.788,634.416 711.4,633.342C712.012,632.267 712.318,631.17 712.318,630.051C712.318,628.163 711.481,626.564 709.808,625.256C708.135,623.947 705.163,623.293 700.892,623.293L698.528,623.293Z" style="fill:rgb(128,128,128);fill-rule:nonzero;"/>
    <path d="M152.243,103.192C151.305,104.586 150.143,105.722 148.756,106.601C147.37,107.479 145.843,107.919 144.176,107.919C142.601,107.919 141.107,107.538 139.694,106.776C138.281,106.015 137.204,104.944 136.461,103.563C135.719,102.183 135.348,100.582 135.348,98.759C135.348,95.894 136.269,93.397 138.112,91.268C139.954,89.14 142.379,88.075 145.387,88.075C148.929,88.075 151.575,89.556 153.327,92.518C155.078,95.481 155.954,99.247 155.954,103.817C155.954,108.869 154.84,112.864 152.614,115.8C150.387,118.736 147.373,120.204 143.571,120.204C141.526,120.204 139.541,119.898 137.614,119.286L137.614,115.634C139.775,116.649 141.813,117.157 143.727,117.157C146.435,117.157 148.532,115.914 150.016,113.427C151.5,110.94 152.243,107.789 152.243,103.974L152.243,103.192ZM145.114,91.102C144.137,91.102 143.154,91.392 142.164,91.972C141.175,92.551 140.397,93.44 139.831,94.638C139.264,95.836 138.981,97.151 138.981,98.583C138.981,100.419 139.459,101.929 140.416,103.114C141.373,104.299 142.737,104.892 144.508,104.892C146.344,104.892 147.851,104.205 149.03,102.831C150.208,101.457 150.797,99.794 150.797,97.841C150.797,95.862 150.221,94.244 149.069,92.987C147.916,91.731 146.598,91.102 145.114,91.102Z" style="fill:rgb(128,128,128);fill-rule:nonzero;"/>
    <path d="M1615.52,118.421L1615.52,95.023C1614.42,95.895 1613.36,96.638 1612.33,97.249C1611.3,97.861 1609.89,98.486 1608.09,99.124L1608.09,95.843C1610.94,94.632 1613.42,93.063 1615.52,91.136L1619.15,91.136L1619.15,118.421L1626.43,118.421L1626.43,121.449L1608.09,121.449L1608.09,118.421L1615.52,118.421Z" style="fill:rgb(128,128,128);fill-rule:nonzero;"/>
    <path d="M1631.26,120.902L1631.26,117.074C1634.24,118.584 1636.82,119.339 1639.01,119.339C1641.02,119.339 1642.67,118.731 1643.98,117.513C1645.29,116.296 1645.94,114.73 1645.94,112.816C1645.94,110.889 1645.23,109.32 1643.79,108.109C1642.35,106.898 1639.9,106.292 1636.45,106.292L1634.44,106.292L1634.44,103.265L1637.23,103.265C1639.77,103.265 1641.61,102.695 1642.74,101.556C1643.88,100.417 1644.44,99.151 1644.44,97.757C1644.44,96.494 1643.98,95.43 1643.05,94.564C1642.13,93.698 1640.71,93.265 1638.8,93.265C1636.65,93.265 1634.34,93.871 1631.86,95.082L1631.86,91.624C1634.34,90.7 1636.6,90.238 1638.66,90.238C1642.35,90.238 1644.89,90.964 1646.29,92.416C1647.69,93.867 1648.39,95.524 1648.39,97.386C1648.39,98.766 1648.02,100.062 1647.27,101.273C1646.53,102.484 1645.16,103.565 1643.17,104.515C1644.93,105.036 1646.26,105.674 1647.16,106.429C1648.05,107.184 1648.74,108.076 1649.2,109.105C1649.66,110.134 1649.89,111.286 1649.89,112.562C1649.89,115.401 1648.84,117.744 1646.74,119.593C1644.63,121.442 1641.91,122.367 1638.58,122.367C1637.62,122.367 1636.57,122.295 1635.43,122.152C1634.29,122.009 1632.9,121.592 1631.26,120.902Z" style="fill:rgb(128,128,128);fill-rule:nonzero;"/>
    <path d="M1069.44,638.124L1069.44,614.726C1068.34,615.598 1067.28,616.341 1066.25,616.953C1065.22,617.565 1063.81,618.19 1062.02,618.828L1062.02,615.546C1064.87,614.335 1067.34,612.766 1069.44,610.839L1073.07,610.839L1073.07,638.124L1080.36,638.124L1080.36,641.152L1062.02,641.152L1062.02,638.124L1069.44,638.124Z" style="fill:rgb(128,128,128);fill-rule:nonzero;"/>
    <path d="M1088.05,626.933C1088.99,625.54 1090.15,624.404 1091.54,623.525C1092.92,622.646 1094.45,622.207 1096.12,622.207C1097.69,622.207 1099.19,622.591 1100.6,623.359C1102.01,624.127 1103.09,625.198 1103.83,626.572C1104.57,627.945 1104.94,629.544 1104.94,631.367C1104.94,634.244 1104.02,636.748 1102.18,638.876C1100.34,641.005 1097.91,642.07 1094.91,642.07C1091.37,642.07 1088.72,640.589 1086.97,637.626C1085.21,634.664 1084.34,630.898 1084.34,626.328C1084.34,621.276 1085.45,617.281 1087.68,614.345C1089.91,611.409 1092.92,609.941 1096.72,609.941C1098.77,609.941 1100.75,610.24 1102.68,610.839L1102.68,614.511C1100.52,613.483 1098.48,612.968 1096.57,612.968C1093.86,612.968 1091.76,614.212 1090.28,616.699C1088.79,619.186 1088.05,622.337 1088.05,626.152L1088.05,626.933ZM1095.18,639.042C1096.16,639.042 1097.14,638.753 1098.13,638.173C1099.12,637.594 1099.9,636.702 1100.46,635.498C1101.03,634.293 1101.31,632.981 1101.31,631.562C1101.31,629.713 1100.83,628.196 1099.88,627.011C1098.92,625.826 1097.56,625.234 1095.79,625.234C1093.95,625.234 1092.44,625.921 1091.26,627.294C1090.09,628.668 1089.5,630.338 1089.5,632.304C1089.5,634.283 1090.07,635.901 1091.22,637.158C1092.38,638.414 1093.69,639.042 1095.18,639.042Z" style="fill:rgb(128,128,128);fill-rule:nonzero;"/>
    <path d="M464.468,116.259L464.468,92.86C463.375,93.733 462.313,94.475 461.285,95.087C460.256,95.699 458.843,96.324 457.046,96.962L457.046,93.681C459.898,92.47 462.372,90.901 464.468,88.974L468.101,88.974L468.101,116.259L475.386,116.259L475.386,119.286L457.046,119.286L457.046,116.259L464.468,116.259Z" style="fill:rgb(128,128,128);fill-rule:nonzero;"/>
    <path d="M489.371,88.075C492.821,88.075 495.451,89.524 497.261,92.421C499.071,95.318 499.976,99.221 499.976,104.13C499.976,109.052 499.071,112.961 497.261,115.858C495.451,118.755 492.821,120.204 489.371,120.204C485.933,120.204 483.306,118.755 481.49,115.858C479.673,112.961 478.765,109.052 478.765,104.13C478.765,99.221 479.673,95.318 481.49,92.421C483.306,89.524 485.933,88.075 489.371,88.075ZM483.453,110.614L493.941,94.188C493.277,92.977 492.558,92.16 491.783,91.737C491.008,91.314 490.204,91.102 489.371,91.102C487.196,91.102 485.543,92.31 484.41,94.726C483.277,97.141 482.711,100.204 482.711,103.915C482.711,104.761 482.737,105.673 482.789,106.649C482.841,107.626 483.062,108.948 483.453,110.614ZM495.25,97.802L484.839,114.325C485.399,115.276 486.044,115.989 486.773,116.464C487.502,116.939 488.316,117.177 489.214,117.177C491.688,117.177 493.446,115.793 494.488,113.026C495.53,110.259 496.05,107.19 496.05,103.817C496.05,101.734 495.783,99.729 495.25,97.802Z" style="fill:rgb(128,128,128);fill-rule:nonzero;"/>
    <path d="M849.76,116.259L849.76,92.86C848.666,93.733 847.605,94.475 846.577,95.087C845.548,95.699 844.135,96.324 842.338,96.962L842.338,93.681C845.19,92.47 847.664,90.901 849.76,88.974L853.393,88.974L853.393,116.259L860.678,116.259L860.678,119.286L842.338,119.286L842.338,116.259L849.76,116.259Z" style="fill:rgb(128,128,128);fill-rule:nonzero;"/>
    <path d="M873.764,116.259L873.764,92.86C872.67,93.733 871.609,94.475 870.581,95.087C869.552,95.699 868.139,96.324 866.342,96.962L866.342,93.681C869.194,92.47 871.668,90.901 873.764,88.974L877.397,88.974L877.397,116.259L884.682,116.259L884.682,119.286L866.342,119.286L866.342,116.259L873.764,116.259Z" style="fill:rgb(128,128,128);fill-rule:nonzero;"/>
    <path d="M302.495,636.027L302.495,612.629C301.401,613.501 300.34,614.243 299.311,614.855C298.282,615.467 296.87,616.092 295.073,616.73L295.073,613.449C297.924,612.238 300.398,610.669 302.495,608.742L306.127,608.742L306.127,636.027L313.413,636.027L313.413,639.055L295.073,639.055L295.073,636.027L302.495,636.027Z" style="fill:rgb(128,128,128);fill-rule:nonzero;"/>
    <path d="M329.213,639.055L329.213,630.578L316.342,630.578L316.342,627.531L329.213,608.742L332.866,608.742L332.866,627.531L338.471,627.531L338.471,630.578L332.866,630.578L332.866,639.055L329.213,639.055ZM329.213,627.531L329.213,614.25L320.209,627.531L329.213,627.531Z" style="fill:rgb(128,128,128);fill-rule:nonzero;"/>
    <path d="M1449.5,653.291L1449.5,629.892C1448.4,630.764 1447.34,631.507 1446.31,632.119C1445.28,632.731 1443.87,633.356 1442.07,633.994L1442.07,630.712C1444.92,629.501 1447.4,627.932 1449.5,626.005L1453.13,626.005L1453.13,653.291L1460.41,653.291L1460.41,656.318L1442.07,656.318L1442.07,653.291L1449.5,653.291Z" style="fill:rgb(128,128,128);fill-rule:nonzero;"/>
    <path d="M1468.63,656.318L1468.63,653.603C1468.63,651.481 1468.88,649.697 1469.36,648.251C1469.84,646.806 1470.69,645.198 1471.9,643.427C1473.11,641.656 1474.08,640.289 1474.81,639.326L1477.97,635.146L1479.1,633.681C1479.96,632.522 1480.7,631.181 1481.33,629.658L1465.61,629.658L1465.61,626.005L1484.85,626.005L1484.85,628.427C1484.85,629.391 1484.65,630.283 1484.27,631.103C1483.89,631.923 1482.72,633.675 1480.78,636.357C1480.32,636.995 1479.85,637.633 1479.4,638.271L1477.37,641.123C1476.06,642.958 1475.1,644.423 1474.48,645.517C1473.85,646.611 1473.38,647.75 1473.06,648.935C1472.74,650.12 1472.58,651.676 1472.58,653.603L1472.58,656.318L1468.63,656.318Z" style="fill:rgb(128,128,128);fill-rule:nonzero;"/>
</svg>
