<?xml version="1.0" encoding="UTF-8" standalone="no"?>
<!DOCTYPE svg PUBLIC "-//W3C//DTD SVG 1.1//EN" "http://www.w3.org/Graphics/SVG/1.1/DTD/svg11.dtd">
<svg width="100%" height="100%" viewBox="0 0 1481 840" version="1.1" xmlns="http://www.w3.org/2000/svg" xmlns:xlink="http://www.w3.org/1999/xlink" xml:space="preserve" xmlns:serif="http://www.serif.com/" style="fill-rule:evenodd;clip-rule:evenodd;stroke-linecap:square;stroke-linejoin:round;stroke-miterlimit:10;">
    <rect id="Clementini-Points-Polygons" serif:id="Clementini Points-Polygons" x="-318" y="-199" width="2683.8" height="4517.66" style="fill:none;"/>
    <path d="M559.33,545.796L624.888,432.246L756.005,432.246L821.564,545.796L756.005,659.347L624.888,659.347L559.33,545.796Z" style="fill:rgb(198,237,237);stroke:rgb(21,183,183);stroke-width:6px;"/>
    <path d="M977.453,545.796L1043.01,432.246L1174.13,432.246L1239.69,545.796L1174.13,659.347L1043.01,659.347L977.453,545.796Z" style="fill:rgb(198,237,237);stroke:rgb(21,183,183);stroke-width:6px;"/>
    <circle cx="377.781" cy="134" r="26" style="fill:rgb(247,0,255);"/>
    <circle cx="49" cy="134" r="18" style="fill:rgb(21,183,183);"/>
    <g transform="matrix(1.20707,0,0,1.20707,-17230,-1940.46)">
        <g transform="matrix(48,0,0,48,14325.5,1796.71)">
            <rect x="0.088" y="-0.325" width="0.424" height="0.074" style="fill-rule:nonzero;"/>
        </g>
        <g transform="matrix(48,0,0,48,14383.1,1796.71)">
            <rect x="0.088" y="-0.325" width="0.424" height="0.074" style="fill-rule:nonzero;"/>
        </g>
        <g transform="matrix(48,0,0,48,14325.5,1868.71)">
            <rect x="0.088" y="-0.325" width="0.424" height="0.074" style="fill-rule:nonzero;"/>
        </g>
        <g transform="matrix(48,0,0,48,14383.1,1868.71)">
            <rect x="0.088" y="-0.325" width="0.424" height="0.074" style="fill-rule:nonzero;"/>
        </g>
    </g>
    <g transform="matrix(1.20707,0,0,1.20707,-17094,-1444.02)">
        <g transform="matrix(48,0,0,48,14325.5,1796.71)">
            <rect x="0.088" y="-0.325" width="0.424" height="0.074" style="fill-rule:nonzero;"/>
        </g>
        <g transform="matrix(48,0,0,48,14383.1,1796.71)">
            <rect x="0.088" y="-0.325" width="0.424" height="0.074" style="fill-rule:nonzero;"/>
        </g>
        <g transform="matrix(48,0,0,48,14325.5,1868.71)">
            <rect x="0.088" y="-0.325" width="0.424" height="0.074" style="fill-rule:nonzero;"/>
        </g>
        <g transform="matrix(48,0,0,48,14383.1,1868.71)">
            <rect x="0.088" y="-0.325" width="0.424" height="0.074" style="fill-rule:nonzero;"/>
        </g>
    </g>
    <g transform="matrix(1.20707,0,0,1.20707,-16647.2,-1940.46)">
        <g transform="matrix(48,0,0,48,14325.5,1796.71)">
            <rect x="0.088" y="-0.325" width="0.424" height="0.074" style="fill-rule:nonzero;"/>
        </g>
        <g transform="matrix(48,0,0,48,14383.1,1796.71)">
            <rect x="0.088" y="-0.325" width="0.424" height="0.074" style="fill-rule:nonzero;"/>
        </g>
        <g transform="matrix(48,0,0,48,14325.5,1868.71)">
            <rect x="0.088" y="-0.325" width="0.424" height="0.074" style="fill-rule:nonzero;"/>
        </g>
        <g transform="matrix(48,0,0,48,14383.1,1868.71)">
            <rect x="0.088" y="-0.325" width="0.424" height="0.074" style="fill-rule:nonzero;"/>
        </g>
    </g>
    <g transform="matrix(1.20707,0,0,1.20707,-16966.1,-1940.46)">
        <g transform="matrix(48,0,0,48,14325.5,1796.71)">
            <path d="M0.038,-0.351C0.038,-0.412 0.044,-0.465 0.057,-0.511C0.07,-0.556 0.088,-0.594 0.111,-0.624C0.133,-0.654 0.161,-0.677 0.193,-0.692C0.225,-0.707 0.261,-0.714 0.3,-0.714C0.384,-0.714 0.449,-0.685 0.494,-0.626C0.539,-0.567 0.562,-0.475 0.562,-0.351C0.562,-0.29 0.556,-0.236 0.543,-0.191C0.53,-0.145 0.513,-0.107 0.49,-0.077C0.466,-0.046 0.439,-0.024 0.407,-0.009C0.374,0.007 0.338,0.014 0.299,0.014C0.214,0.014 0.15,-0.017 0.105,-0.08C0.06,-0.142 0.038,-0.232 0.038,-0.351ZM0.434,-0.351C0.434,-0.362 0.434,-0.372 0.434,-0.382C0.433,-0.391 0.433,-0.401 0.432,-0.41L0.187,-0.187C0.208,-0.126 0.245,-0.096 0.3,-0.096C0.343,-0.096 0.376,-0.116 0.399,-0.157C0.422,-0.198 0.434,-0.262 0.434,-0.351ZM0.166,-0.351C0.166,-0.341 0.166,-0.332 0.167,-0.323C0.167,-0.314 0.167,-0.304 0.168,-0.295L0.412,-0.518C0.392,-0.575 0.354,-0.604 0.299,-0.604C0.256,-0.604 0.224,-0.584 0.201,-0.543C0.178,-0.501 0.166,-0.438 0.166,-0.351Z" style="fill-rule:nonzero;"/>
        </g>
        <g transform="matrix(48,0,0,48,14383.1,1796.71)">
            <rect x="0.088" y="-0.325" width="0.424" height="0.074" style="fill-rule:nonzero;"/>
        </g>
        <g transform="matrix(48,0,0,48,14325.5,1868.71)">
            <rect x="0.088" y="-0.325" width="0.424" height="0.074" style="fill-rule:nonzero;"/>
        </g>
        <g transform="matrix(48,0,0,48,14383.1,1868.71)">
            <rect x="0.088" y="-0.325" width="0.424" height="0.074" style="fill-rule:nonzero;"/>
        </g>
    </g>
    <g transform="matrix(1.20707,0,0,1.20707,-15988.3,-1940.46)">
        <g transform="matrix(48,0,0,48,14325.5,1796.71)">
            <path d="M0.038,-0.351C0.038,-0.412 0.044,-0.465 0.057,-0.511C0.07,-0.556 0.088,-0.594 0.111,-0.624C0.133,-0.654 0.161,-0.677 0.193,-0.692C0.225,-0.707 0.261,-0.714 0.3,-0.714C0.384,-0.714 0.449,-0.685 0.494,-0.626C0.539,-0.567 0.562,-0.475 0.562,-0.351C0.562,-0.29 0.556,-0.236 0.543,-0.191C0.53,-0.145 0.513,-0.107 0.49,-0.077C0.466,-0.046 0.439,-0.024 0.407,-0.009C0.374,0.007 0.338,0.014 0.299,0.014C0.214,0.014 0.15,-0.017 0.105,-0.08C0.06,-0.142 0.038,-0.232 0.038,-0.351ZM0.434,-0.351C0.434,-0.362 0.434,-0.372 0.434,-0.382C0.433,-0.391 0.433,-0.401 0.432,-0.41L0.187,-0.187C0.208,-0.126 0.245,-0.096 0.3,-0.096C0.343,-0.096 0.376,-0.116 0.399,-0.157C0.422,-0.198 0.434,-0.262 0.434,-0.351ZM0.166,-0.351C0.166,-0.341 0.166,-0.332 0.167,-0.323C0.167,-0.314 0.167,-0.304 0.168,-0.295L0.412,-0.518C0.392,-0.575 0.354,-0.604 0.299,-0.604C0.256,-0.604 0.224,-0.584 0.201,-0.543C0.178,-0.501 0.166,-0.438 0.166,-0.351Z" style="fill-rule:nonzero;"/>
        </g>
        <g transform="matrix(48,0,0,48,14383.1,1796.71)">
            <rect x="0.088" y="-0.325" width="0.424" height="0.074" style="fill-rule:nonzero;"/>
        </g>
        <g transform="matrix(48,0,0,48,14325.5,1868.71)">
            <rect x="0.088" y="-0.325" width="0.424" height="0.074" style="fill-rule:nonzero;"/>
        </g>
        <g transform="matrix(48,0,0,48,14383.1,1868.71)">
            <rect x="0.088" y="-0.325" width="0.424" height="0.074" style="fill-rule:nonzero;"/>
        </g>
    </g>
    <g transform="matrix(1.20707,0,0,1.20707,-16238.3,-1432.75)">
        <g transform="matrix(48,0,0,48,14325.5,1796.71)">
            <path d="M0.038,-0.351C0.038,-0.412 0.044,-0.465 0.057,-0.511C0.07,-0.556 0.088,-0.594 0.111,-0.624C0.133,-0.654 0.161,-0.677 0.193,-0.692C0.225,-0.707 0.261,-0.714 0.3,-0.714C0.384,-0.714 0.449,-0.685 0.494,-0.626C0.539,-0.567 0.562,-0.475 0.562,-0.351C0.562,-0.29 0.556,-0.236 0.543,-0.191C0.53,-0.145 0.513,-0.107 0.49,-0.077C0.466,-0.046 0.439,-0.024 0.407,-0.009C0.374,0.007 0.338,0.014 0.299,0.014C0.214,0.014 0.15,-0.017 0.105,-0.08C0.06,-0.142 0.038,-0.232 0.038,-0.351ZM0.434,-0.351C0.434,-0.362 0.434,-0.372 0.434,-0.382C0.433,-0.391 0.433,-0.401 0.432,-0.41L0.187,-0.187C0.208,-0.126 0.245,-0.096 0.3,-0.096C0.343,-0.096 0.376,-0.116 0.399,-0.157C0.422,-0.198 0.434,-0.262 0.434,-0.351ZM0.166,-0.351C0.166,-0.341 0.166,-0.332 0.167,-0.323C0.167,-0.314 0.167,-0.304 0.168,-0.295L0.412,-0.518C0.392,-0.575 0.354,-0.604 0.299,-0.604C0.256,-0.604 0.224,-0.584 0.201,-0.543C0.178,-0.501 0.166,-0.438 0.166,-0.351Z" style="fill-rule:nonzero;"/>
        </g>
        <g transform="matrix(48,0,0,48,14383.1,1796.71)">
            <rect x="0.088" y="-0.325" width="0.424" height="0.074" style="fill-rule:nonzero;"/>
        </g>
        <g transform="matrix(48,0,0,48,14325.5,1868.71)">
            <rect x="0.088" y="-0.325" width="0.424" height="0.074" style="fill-rule:nonzero;"/>
        </g>
        <g transform="matrix(48,0,0,48,14383.1,1868.71)">
            <rect x="0.088" y="-0.325" width="0.424" height="0.074" style="fill-rule:nonzero;"/>
        </g>
    </g>
    <g transform="matrix(1.20707,0,0,1.20707,-16301.9,-1940.46)">
        <g transform="matrix(48,0,0,48,14325.5,1796.71)">
            <rect x="0.088" y="-0.325" width="0.424" height="0.074" style="fill-rule:nonzero;"/>
        </g>
        <g transform="matrix(48,0,0,48,14383.1,1796.71)">
            <path d="M0.038,-0.351C0.038,-0.412 0.044,-0.465 0.057,-0.511C0.07,-0.556 0.088,-0.594 0.111,-0.624C0.133,-0.654 0.161,-0.677 0.193,-0.692C0.225,-0.707 0.261,-0.714 0.3,-0.714C0.384,-0.714 0.449,-0.685 0.494,-0.626C0.539,-0.567 0.562,-0.475 0.562,-0.351C0.562,-0.29 0.556,-0.236 0.543,-0.191C0.53,-0.145 0.513,-0.107 0.49,-0.077C0.466,-0.046 0.439,-0.024 0.407,-0.009C0.374,0.007 0.338,0.014 0.299,0.014C0.214,0.014 0.15,-0.017 0.105,-0.08C0.06,-0.142 0.038,-0.232 0.038,-0.351ZM0.434,-0.351C0.434,-0.362 0.434,-0.372 0.434,-0.382C0.433,-0.391 0.433,-0.401 0.432,-0.41L0.187,-0.187C0.208,-0.126 0.245,-0.096 0.3,-0.096C0.343,-0.096 0.376,-0.116 0.399,-0.157C0.422,-0.198 0.434,-0.262 0.434,-0.351ZM0.166,-0.351C0.166,-0.341 0.166,-0.332 0.167,-0.323C0.167,-0.314 0.167,-0.304 0.168,-0.295L0.412,-0.518C0.392,-0.575 0.354,-0.604 0.299,-0.604C0.256,-0.604 0.224,-0.584 0.201,-0.543C0.178,-0.501 0.166,-0.438 0.166,-0.351Z" style="fill-rule:nonzero;"/>
        </g>
        <g transform="matrix(48,0,0,48,14325.5,1868.71)">
            <rect x="0.088" y="-0.325" width="0.424" height="0.074" style="fill-rule:nonzero;"/>
        </g>
        <g transform="matrix(48,0,0,48,14383.1,1868.71)">
            <rect x="0.088" y="-0.325" width="0.424" height="0.074" style="fill-rule:nonzero;"/>
        </g>
    </g>
    <g transform="matrix(1.20707,0,0,1.20707,-16659.4,-1437.06)">
        <g transform="matrix(48,0,0,48,14325.5,1796.71)">
            <rect x="0.088" y="-0.325" width="0.424" height="0.074" style="fill-rule:nonzero;"/>
        </g>
        <g transform="matrix(48,0,0,48,14383.1,1796.71)">
            <path d="M0.038,-0.351C0.038,-0.412 0.044,-0.465 0.057,-0.511C0.07,-0.556 0.088,-0.594 0.111,-0.624C0.133,-0.654 0.161,-0.677 0.193,-0.692C0.225,-0.707 0.261,-0.714 0.3,-0.714C0.384,-0.714 0.449,-0.685 0.494,-0.626C0.539,-0.567 0.562,-0.475 0.562,-0.351C0.562,-0.29 0.556,-0.236 0.543,-0.191C0.53,-0.145 0.513,-0.107 0.49,-0.077C0.466,-0.046 0.439,-0.024 0.407,-0.009C0.374,0.007 0.338,0.014 0.299,0.014C0.214,0.014 0.15,-0.017 0.105,-0.08C0.06,-0.142 0.038,-0.232 0.038,-0.351ZM0.434,-0.351C0.434,-0.362 0.434,-0.372 0.434,-0.382C0.433,-0.391 0.433,-0.401 0.432,-0.41L0.187,-0.187C0.208,-0.126 0.245,-0.096 0.3,-0.096C0.343,-0.096 0.376,-0.116 0.399,-0.157C0.422,-0.198 0.434,-0.262 0.434,-0.351ZM0.166,-0.351C0.166,-0.341 0.166,-0.332 0.167,-0.323C0.167,-0.314 0.167,-0.304 0.168,-0.295L0.412,-0.518C0.392,-0.575 0.354,-0.604 0.299,-0.604C0.256,-0.604 0.224,-0.584 0.201,-0.543C0.178,-0.501 0.166,-0.438 0.166,-0.351Z" style="fill-rule:nonzero;"/>
        </g>
        <g transform="matrix(48,0,0,48,14325.5,1868.71)">
            <rect x="0.088" y="-0.325" width="0.424" height="0.074" style="fill-rule:nonzero;"/>
        </g>
        <g transform="matrix(48,0,0,48,14383.1,1868.71)">
            <rect x="0.088" y="-0.325" width="0.424" height="0.074" style="fill-rule:nonzero;"/>
        </g>
    </g>
    <circle cx="377.781" cy="134" r="18" style="fill:rgb(21,183,183);"/>
    <circle cx="178.497" cy="134" r="18" style="fill:rgb(247,0,255);"/>
    <path d="M825.782,134L636.897,134" style="fill:none;stroke:rgb(21,183,183);stroke-width:10px;"/>
    <path d="M1140.78,133.07L951.897,133.07" style="fill:none;stroke:rgb(21,183,183);stroke-width:10px;"/>
    <path d="M1447.36,133.07L1258.47,133.07" style="fill:none;stroke:rgb(21,183,183);stroke-width:10px;"/>
    <circle cx="573.774" cy="134" r="18" style="fill:rgb(247,0,255);"/>
    <circle cx="951.897" cy="134" r="18" style="fill:rgb(247,0,255);"/>
    <circle cx="1352.91" cy="134" r="18" style="fill:rgb(247,0,255);"/>
    <circle cx="401.482" cy="455.987" r="18" style="fill:rgb(247,0,255);"/>
    <circle cx="785.034" cy="485.987" r="18" style="fill:rgb(247,0,255);"/>
    <circle cx="1105.73" cy="541.035" r="18" style="fill:rgb(247,0,255);"/>
    <path d="M127.303,545.796L192.862,432.246L323.979,432.246L389.537,545.796L323.979,659.347L192.862,659.347L127.303,545.796Z" style="fill:rgb(198,237,237);stroke:rgb(21,183,183);stroke-width:6px;"/>
    <path d="M113.006,46.512L113.006,23.114C111.912,23.986 110.851,24.728 109.822,25.34C108.794,25.952 107.381,26.577 105.584,27.215L105.584,23.934C108.436,22.723 110.91,21.154 113.006,19.227L116.639,19.227L116.639,46.512L123.924,46.512L123.924,49.54L105.584,49.54L105.584,46.512L113.006,46.512Z" style="fill:rgb(128,128,128);fill-rule:nonzero;"/>
    <path d="M388.631,49.54L370.291,49.54L370.291,46.2C370.291,45.34 370.467,44.419 370.818,43.436C371.17,42.453 371.84,41.35 372.83,40.126C373.82,38.902 374.868,37.723 375.975,36.59L378.045,34.481C378.462,34.051 379.373,33.055 380.779,31.493C382.185,29.93 383.113,28.732 383.562,27.899C384.012,27.066 384.236,26.245 384.236,25.438C384.236,24.136 383.715,23.13 382.674,22.42C381.632,21.711 380.46,21.356 379.158,21.356C378.416,21.356 377.586,21.441 376.668,21.61C375.75,21.779 374.946,21.978 374.256,22.206C373.566,22.433 372.446,22.899 370.896,23.602L370.896,20.379C372.537,19.598 374.181,19.061 375.828,18.768C377.475,18.475 378.833,18.329 379.9,18.329C381.476,18.329 382.924,18.586 384.246,19.1C385.568,19.614 386.551,20.412 387.195,21.493C387.84,22.573 388.162,23.726 388.162,24.95C388.162,26.317 387.749,27.717 386.922,29.149C386.095,30.581 384.536,32.424 382.244,34.676L380.018,36.883L378.143,38.719C376.958,39.917 376.001,41.076 375.271,42.196C374.542,43.316 374.139,44.65 374.06,46.2L388.631,46.2L388.631,49.54Z" style="fill:rgb(128,128,128);fill-rule:nonzero;"/>
    <path d="M250.664,379.796C251.602,378.402 252.764,377.266 254.151,376.387C255.538,375.508 257.064,375.069 258.731,375.069C260.306,375.069 261.801,375.453 263.213,376.221C264.626,376.99 265.704,378.061 266.446,379.434C267.188,380.808 267.559,382.406 267.559,384.229C267.559,387.107 266.638,389.61 264.795,391.739C262.953,393.868 260.528,394.932 257.52,394.932C253.978,394.932 251.332,393.451 249.581,390.489C247.829,387.527 246.954,383.76 246.954,379.19C246.954,374.138 248.067,370.144 250.293,367.208C252.52,364.272 255.534,362.803 259.336,362.803C261.381,362.803 263.366,363.103 265.293,363.702L265.293,367.374C263.132,366.345 261.094,365.831 259.18,365.831C256.472,365.831 254.375,367.074 252.891,369.561C251.407,372.048 250.664,375.199 250.664,379.014L250.664,379.796ZM257.793,391.905C258.77,391.905 259.753,391.615 260.743,391.036C261.732,390.456 262.51,389.564 263.077,388.36C263.643,387.156 263.926,385.844 263.926,384.425C263.926,382.576 263.448,381.059 262.491,379.874C261.534,378.689 260.17,378.096 258.399,378.096C256.563,378.096 255.056,378.783 253.877,380.157C252.699,381.531 252.11,383.201 252.11,385.167C252.11,387.146 252.686,388.764 253.838,390.02C254.991,391.277 256.309,391.905 257.793,391.905Z" style="fill:rgb(128,128,128);fill-rule:nonzero;"/>
    <path d="M682.652,394.014L682.652,391.3C682.652,389.177 682.893,387.393 683.375,385.948C683.857,384.503 684.703,382.895 685.914,381.124C687.125,379.353 688.095,377.986 688.824,377.022L691.988,372.842L693.121,371.378C693.98,370.219 694.722,368.878 695.347,367.354L679.625,367.354L679.625,363.702L698.863,363.702L698.863,366.124C698.863,367.087 698.671,367.979 698.287,368.8C697.903,369.62 696.741,371.371 694.801,374.053C694.332,374.691 693.87,375.329 693.414,375.967L691.383,378.819C690.081,380.655 689.117,382.12 688.492,383.214C687.867,384.307 687.395,385.447 687.076,386.632C686.757,387.816 686.597,389.372 686.597,391.3L686.597,394.014L682.652,394.014Z" style="fill:rgb(128,128,128);fill-rule:nonzero;"/>
    <path d="M1099.03,377.667L1098.37,377.178C1097.45,376.527 1096.54,375.567 1095.65,374.298C1094.77,373.028 1094.33,371.632 1094.33,370.108C1094.33,368.09 1095.12,366.368 1096.71,364.942C1098.3,363.516 1100.32,362.803 1102.77,362.803C1104.26,362.803 1105.61,363.074 1106.81,363.614C1108.01,364.154 1108.93,364.952 1109.58,366.007C1110.23,367.061 1110.56,368.214 1110.56,369.464C1110.56,370.323 1110.41,371.153 1110.11,371.954C1109.81,372.755 1109.36,373.549 1108.77,374.337C1108.18,375.124 1107,376.234 1105.25,377.667L1106.89,378.975C1108.8,380.538 1110.09,381.885 1110.75,383.018C1111.42,384.151 1111.75,385.421 1111.75,386.827C1111.75,389.014 1110.95,390.912 1109.37,392.52C1107.78,394.128 1105.39,394.932 1102.22,394.932C1099.03,394.932 1096.64,394.18 1095.05,392.676C1093.46,391.173 1092.67,389.307 1092.67,387.081C1092.67,383.76 1094.79,380.622 1099.03,377.667ZM1102.77,375.811C1104.6,374.418 1105.75,373.253 1106.21,372.315C1106.67,371.378 1106.9,370.505 1106.9,369.698C1106.9,368.721 1106.48,367.833 1105.62,367.032C1104.76,366.231 1103.65,365.831 1102.3,365.831C1100.84,365.831 1099.73,366.267 1098.97,367.139C1098.2,368.012 1097.82,368.917 1097.82,369.854C1097.82,370.766 1098.14,371.625 1098.78,372.432C1099.42,373.24 1100.44,374.145 1101.85,375.147L1102.77,375.811ZM1101.77,379.6C1098.33,382.244 1096.61,384.717 1096.61,387.022C1096.61,388.389 1097.18,389.542 1098.31,390.479C1099.44,391.417 1100.79,391.885 1102.34,391.885C1103.75,391.885 1105.02,391.436 1106.14,390.538C1107.26,389.639 1107.82,388.52 1107.82,387.178C1107.82,385.863 1107.14,384.529 1105.78,383.175C1104.42,381.82 1103.47,380.935 1102.94,380.518L1101.77,379.6Z" style="fill:rgb(128,128,128);fill-rule:nonzero;"/>
    <path d="M686.657,48.993L686.657,45.165C689.639,46.675 692.224,47.43 694.411,47.43C696.416,47.43 698.073,46.822 699.382,45.604C700.69,44.387 701.345,42.821 701.345,40.907C701.345,38.98 700.625,37.411 699.186,36.2C697.748,34.989 695.303,34.383 691.852,34.383L689.841,34.383L689.841,31.356L692.634,31.356C695.173,31.356 697.009,30.786 698.142,29.647C699.274,28.508 699.841,27.241 699.841,25.848C699.841,24.585 699.379,23.521 698.454,22.655C697.53,21.789 696.11,21.356 694.196,21.356C692.048,21.356 689.737,21.961 687.263,23.172L687.263,19.715C689.737,18.791 692.002,18.329 694.06,18.329C697.744,18.329 700.287,19.055 701.686,20.506C703.086,21.958 703.786,23.615 703.786,25.477C703.786,26.857 703.415,28.153 702.673,29.364C701.931,30.575 700.563,31.655 698.571,32.606C700.329,33.127 701.657,33.765 702.556,34.52C703.454,35.275 704.134,36.167 704.597,37.196C705.059,38.225 705.29,39.377 705.29,40.653C705.29,43.491 704.239,45.835 702.136,47.684C700.033,49.533 697.315,50.458 693.981,50.458C693.018,50.458 691.966,50.386 690.827,50.243C689.688,50.1 688.298,49.683 686.657,48.993Z" style="fill:rgb(128,128,128);fill-rule:nonzero;"/>
    <path d="M1039.41,49.54L1039.41,41.063L1026.54,41.063L1026.54,38.016L1039.41,19.227L1043.07,19.227L1043.07,38.016L1048.67,38.016L1048.67,41.063L1043.07,41.063L1043.07,49.54L1039.41,49.54ZM1039.41,38.016L1039.41,24.735L1030.41,38.016L1039.41,38.016Z" style="fill:rgb(128,128,128);fill-rule:nonzero;"/>
    <path d="M1346.83,33.778L1346.83,19.227L1363.81,19.227L1363.81,22.723L1350.47,22.723L1350.47,30.145L1351.09,30.145C1355.45,30.145 1358.81,31.057 1361.17,32.879C1363.53,34.702 1364.7,37.157 1364.7,40.243C1364.7,42.196 1364.23,43.947 1363.28,45.497C1362.33,47.046 1360.99,48.26 1359.26,49.139C1357.52,50.018 1355.68,50.458 1353.73,50.458C1351.78,50.458 1349.28,49.982 1346.23,49.032L1346.23,45.067C1347.33,45.666 1348.57,46.157 1349.94,46.542C1351.31,46.926 1352.57,47.118 1353.73,47.118C1354.89,47.118 1356.02,46.838 1357.13,46.278C1358.23,45.718 1359.09,44.901 1359.7,43.827C1360.32,42.752 1360.62,41.655 1360.62,40.536C1360.62,38.648 1359.79,37.049 1358.11,35.741C1356.44,34.432 1353.47,33.778 1349.2,33.778L1346.83,33.778Z" style="fill:rgb(128,128,128);fill-rule:nonzero;"/>
</svg>
