<?xml version="1.0" encoding="UTF-8" standalone="no"?>
<!DOCTYPE svg PUBLIC "-//W3C//DTD SVG 1.1//EN" "http://www.w3.org/Graphics/SVG/1.1/DTD/svg11.dtd">
<svg width="100%" height="100%" viewBox="0 0 331 238" version="1.1" xmlns="http://www.w3.org/2000/svg" xmlns:xlink="http://www.w3.org/1999/xlink" xml:space="preserve" xmlns:serif="http://www.serif.com/" style="fill-rule:evenodd;clip-rule:evenodd;stroke-linecap:square;stroke-miterlimit:10;">
    <g transform="matrix(1,0,0,1,-547,-2097)">
        <rect id="Artboard4" x="0" y="1152" width="1416" height="1244" style="fill:none;"/>
        <g id="Artboard41" serif:id="Artboard4">
            <path d="M722,2216L722,2243" style="fill:none;stroke:rgb(45,231,231);stroke-width:9px;"/>
            <g transform="matrix(6.12323e-17,1,-1,6.12323e-17,2951.5,1507.5)">
                <path d="M722,2216L722,2243" style="fill:none;stroke:rgb(45,231,231);stroke-width:9px;"/>
            </g>
            <g transform="matrix(1,0,0,1,36,-8)">
                <path d="M549,2147L559,2167L539,2167L549,2147Z" style="fill:rgb(221,0,229);stroke:rgb(221,0,229);stroke-width:4px;"/>
                <path d="M549,2160.33L549,2137" style="fill:none;stroke:rgb(221,0,229);stroke-width:4px;"/>
                <g transform="matrix(1,0,0,1,0,-1)">
                    <path d="M556,2137L542,2137" style="fill:none;"/>
                    <g transform="matrix(1,-0,-0,1,511,2106)">
                        <path d="M51,34L45,31L51,28L51,34Z" style="fill:rgb(221,0,229);stroke:rgb(221,0,229);stroke-width:3px;stroke-linecap:butt;"/>
                        <path d="M32.8,35.5L23.8,31L32.8,26.5C30.55,28.75 30.55,33.25 32.8,35.5Z" style="fill:rgb(221,0,229);"/>
                        <path d="M45,31L31,31" style="fill:none;stroke:rgb(221,0,229);stroke-width:3px;"/>
                    </g>
                </g>
            </g>
            <g transform="matrix(1,0,0,1,69.3718,14.2102)">
                <path d="M549,2147L559,2167L539,2167L549,2147Z" style="fill:rgb(221,0,229);stroke:rgb(221,0,229);stroke-width:4px;"/>
                <path d="M549,2160.33L549,2137" style="fill:none;stroke:rgb(221,0,229);stroke-width:4px;"/>
                <g transform="matrix(1,0,0,1,0,-1)">
                    <path d="M556,2137L542,2137" style="fill:none;"/>
                    <g transform="matrix(1,-0,-0,1,477.628,2083.79)">
                        <path d="M84.372,56.21L78.372,53.21L84.372,50.21L84.372,56.21Z" style="fill:rgb(221,0,229);stroke:rgb(221,0,229);stroke-width:3px;stroke-linecap:butt;"/>
                        <path d="M66.172,57.71L57.172,53.21L66.172,48.71C63.922,50.96 63.922,55.46 66.172,57.71Z" style="fill:rgb(221,0,229);"/>
                        <path d="M78.372,53.21L64.372,53.21" style="fill:none;stroke:rgb(221,0,229);stroke-width:3px;"/>
                    </g>
                </g>
            </g>
            <g transform="matrix(1,0,0,1,103.771,-26.9081)">
                <path d="M549,2147L559,2167L539,2167L549,2147Z" style="fill:rgb(221,0,229);stroke:rgb(221,0,229);stroke-width:4px;"/>
                <path d="M549,2160.33L549,2137" style="fill:none;stroke:rgb(221,0,229);stroke-width:4px;"/>
                <g transform="matrix(1,0,0,1,0,-1)">
                    <path d="M556,2137L542,2137" style="fill:none;"/>
                    <g transform="matrix(1,-0,-0,1,443.229,2124.91)">
                        <path d="M118.771,15.092L112.771,12.092L118.771,9.092L118.771,15.092Z" style="fill:rgb(221,0,229);stroke:rgb(221,0,229);stroke-width:3px;stroke-linecap:butt;"/>
                        <path d="M100.571,16.592L91.571,12.092L100.571,7.592C98.321,9.842 98.321,14.342 100.571,16.592Z" style="fill:rgb(221,0,229);"/>
                        <path d="M112.771,12.092L98.771,12.092" style="fill:none;stroke:rgb(221,0,229);stroke-width:3px;"/>
                    </g>
                </g>
            </g>
            <g transform="matrix(1,0,0,1,84.3718,131.828)">
                <path d="M549,2147L559,2167L539,2167L549,2147Z"/>
                <path d="M549,2160.33L549,2137" style="fill:none;stroke:black;stroke-width:4px;"/>
                <g transform="matrix(1,0,0,1,0,-1)">
                    <g transform="matrix(1,-0,-0,1,462.628,1966.17)">
                        <path d="M99.372,173.828L93.372,170.828L99.372,167.828L99.372,173.828Z" style="stroke:black;stroke-width:3px;stroke-linecap:butt;"/>
                        <path d="M81.172,175.328L72.172,170.828L81.172,166.328C78.922,168.578 78.922,173.078 81.172,175.328Z"/>
                        <path d="M93.372,170.828L79.372,170.828" style="fill:none;stroke:black;stroke-width:3px;"/>
                    </g>
                </g>
            </g>
            <g transform="matrix(1,0,0,1,17.3718,91.7102)">
                <path d="M549,2147L559,2167L539,2167L549,2147Z"/>
                <path d="M549,2160.33L549,2137" style="fill:none;stroke:black;stroke-width:4px;"/>
                <g transform="matrix(1,0,0,1,0,-1)">
                    <g transform="matrix(1,-0,-0,1,529.628,2006.29)">
                        <path d="M32.372,133.71L26.372,130.71L32.372,127.71L32.372,133.71Z" style="stroke:black;stroke-width:3px;stroke-linecap:butt;"/>
                        <path d="M14.172,135.21L5.172,130.71L14.172,126.21C11.922,128.46 11.922,132.96 14.172,135.21Z"/>
                        <path d="M26.372,130.71L12.372,130.71" style="fill:none;stroke:black;stroke-width:3px;"/>
                    </g>
                </g>
            </g>
            <g transform="matrix(1,0,0,1,110.471,37.089)">
                <path d="M549,2147L559,2167L539,2167L549,2147Z" style="fill:rgb(221,0,229);stroke:rgb(221,0,229);stroke-width:4px;"/>
                <path d="M549,2160.33L549,2137" style="fill:none;stroke:rgb(221,0,229);stroke-width:4px;"/>
                <g transform="matrix(1,0,0,1,0,-1)">
                    <path d="M556,2137L542,2137" style="fill:none;"/>
                    <g transform="matrix(1,-0,-0,1,436.529,2060.91)">
                        <path d="M125.471,79.089L119.471,76.089L125.471,73.089L125.471,79.089Z" style="fill:rgb(221,0,229);stroke:rgb(221,0,229);stroke-width:3px;stroke-linecap:butt;"/>
                        <path d="M107.271,80.589L98.271,76.089L107.271,71.589C105.021,73.839 105.021,78.339 107.271,80.589Z" style="fill:rgb(221,0,229);"/>
                        <path d="M119.471,76.089L105.471,76.089" style="fill:none;stroke:rgb(221,0,229);stroke-width:3px;"/>
                    </g>
                </g>
            </g>
            <g transform="matrix(1,0,0,1,261.797,-34.1514)">
                <path d="M549,2147L559,2167L539,2167L549,2147Z"/>
                <path d="M549,2160.33L549,2137" style="fill:none;stroke:black;stroke-width:4px;"/>
                <g transform="matrix(1,0,0,1,0,-1)">
                    <g transform="matrix(1,-0,-0,1,285.203,2132.15)">
                        <path d="M276.797,7.849L270.797,4.849L276.797,1.849L276.797,7.849Z" style="stroke:black;stroke-width:3px;stroke-linecap:butt;"/>
                        <path d="M258.597,9.349L249.597,4.849L258.597,0.349C256.347,2.599 256.347,7.099 258.597,9.349Z"/>
                        <path d="M270.797,4.849L256.797,4.849" style="fill:none;stroke:black;stroke-width:3px;"/>
                    </g>
                </g>
            </g>
            <g transform="matrix(1,0,0,1,293.797,-23.678)">
                <path d="M549,2147L559,2167L539,2167L549,2147Z"/>
                <path d="M549,2160.33L549,2137" style="fill:none;stroke:black;stroke-width:4px;"/>
                <g transform="matrix(1,0,0,1,0,-1)">
                    <g transform="matrix(1,-0,-0,1,253.203,2121.68)">
                        <path d="M308.797,18.322L302.797,15.322L308.797,12.322L308.797,18.322Z" style="stroke:black;stroke-width:3px;stroke-linecap:butt;"/>
                        <path d="M290.597,19.822L281.597,15.322L290.597,10.822C288.347,13.072 288.347,17.572 290.597,19.822Z"/>
                        <path d="M302.797,15.322L288.797,15.322" style="fill:none;stroke:black;stroke-width:3px;"/>
                    </g>
                </g>
            </g>
            <g transform="matrix(1,0,0,1,141.591,135.713)">
                <path d="M549,2147L559,2167L539,2167L549,2147Z"/>
                <path d="M549,2160.33L549,2137" style="fill:none;stroke:black;stroke-width:4px;"/>
                <g transform="matrix(1,0,0,1,0,-1)">
                    <g transform="matrix(1,-0,-0,1,405.409,1962.29)">
                        <path d="M156.591,177.713L150.591,174.713L156.591,171.713L156.591,177.713Z" style="stroke:black;stroke-width:3px;stroke-linecap:butt;"/>
                        <path d="M138.391,179.213L129.391,174.713L138.391,170.213C136.141,172.463 136.141,176.963 138.391,179.213Z"/>
                        <path d="M150.591,174.713L136.591,174.713" style="fill:none;stroke:black;stroke-width:3px;"/>
                    </g>
                </g>
            </g>
            <g transform="matrix(1,0,0,1,226.797,135.713)">
                <path d="M549,2147L559,2167L539,2167L549,2147Z"/>
                <path d="M549,2160.33L549,2137" style="fill:none;stroke:black;stroke-width:4px;"/>
                <g transform="matrix(1,0,0,1,0,-1)">
                    <g transform="matrix(1,-0,-0,1,320.203,1962.29)">
                        <path d="M241.797,177.713L235.797,174.713L241.797,171.713L241.797,177.713Z" style="stroke:black;stroke-width:3px;stroke-linecap:butt;"/>
                        <path d="M223.597,179.213L214.597,174.713L223.597,170.213C221.347,172.463 221.347,176.963 223.597,179.213Z"/>
                        <path d="M235.797,174.713L221.797,174.713" style="fill:none;stroke:black;stroke-width:3px;"/>
                    </g>
                </g>
            </g>
            <g transform="matrix(1,0,0,1,191.797,163.713)">
                <path d="M549,2147L559,2167L539,2167L549,2147Z"/>
                <path d="M549,2160.33L549,2137" style="fill:none;stroke:black;stroke-width:4px;"/>
                <g transform="matrix(1,0,0,1,0,-1)">
                    <g transform="matrix(1,-0,-0,1,355.203,1934.29)">
                        <path d="M206.797,205.713L200.797,202.713L206.797,199.713L206.797,205.713Z" style="stroke:black;stroke-width:3px;stroke-linecap:butt;"/>
                        <path d="M188.597,207.213L179.597,202.713L188.597,198.213C186.347,200.463 186.347,204.963 188.597,207.213Z"/>
                        <path d="M200.797,202.713L186.797,202.713" style="fill:none;stroke:black;stroke-width:3px;"/>
                    </g>
                </g>
            </g>
            <g transform="matrix(1,0,0,1,303.797,45.2102)">
                <path d="M549,2147L559,2167L539,2167L549,2147Z"/>
                <path d="M549,2160.33L549,2137" style="fill:none;stroke:black;stroke-width:4px;"/>
                <g transform="matrix(1,0,0,1,0,-1)">
                    <g transform="matrix(1,-0,-0,1,243.203,2052.79)">
                        <path d="M318.797,87.21L312.797,84.21L318.797,81.21L318.797,87.21Z" style="stroke:black;stroke-width:3px;stroke-linecap:butt;"/>
                        <path d="M300.597,88.71L291.597,84.21L300.597,79.71C298.347,81.96 298.347,86.46 300.597,88.71Z"/>
                        <path d="M312.797,84.21L298.797,84.21" style="fill:none;stroke:black;stroke-width:3px;"/>
                    </g>
                </g>
            </g>
            <g transform="matrix(1,0,0,1,186.797,-12.7898)">
                <path d="M549,2147L559,2167L539,2167L549,2147Z"/>
                <path d="M549,2160.33L549,2137" style="fill:none;stroke:black;stroke-width:4px;"/>
                <g transform="matrix(1,0,0,1,0,-1)">
                    <g transform="matrix(1,-0,-0,1,360.203,2110.79)">
                        <path d="M201.797,29.21L195.797,26.21L201.797,23.21L201.797,29.21Z" style="stroke:black;stroke-width:3px;stroke-linecap:butt;"/>
                        <path d="M183.597,30.71L174.597,26.21L183.597,21.71C181.347,23.96 181.347,28.46 183.597,30.71Z"/>
                        <path d="M195.797,26.21L181.797,26.21" style="fill:none;stroke:black;stroke-width:3px;"/>
                    </g>
                </g>
            </g>
            <g transform="matrix(1,0,0,1,246.797,60.7102)">
                <path d="M549,2147L559,2167L539,2167L549,2147Z"/>
                <path d="M549,2160.33L549,2137" style="fill:none;stroke:black;stroke-width:4px;"/>
                <g transform="matrix(1,0,0,1,0,-1)">
                    <g transform="matrix(1,-0,-0,1,300.203,2037.29)">
                        <path d="M261.797,102.71L255.797,99.71L261.797,96.71L261.797,102.71Z" style="stroke:black;stroke-width:3px;stroke-linecap:butt;"/>
                        <path d="M243.597,104.21L234.597,99.71L243.597,95.21C241.347,97.46 241.347,101.96 243.597,104.21Z"/>
                        <path d="M255.797,99.71L241.797,99.71" style="fill:none;stroke:black;stroke-width:3px;"/>
                    </g>
                </g>
            </g>
            <g transform="matrix(1,0,0,1,308.796,131.828)">
                <path d="M549,2147L559,2167L539,2167L549,2147Z"/>
                <path d="M549,2160.33L549,2137" style="fill:none;stroke:black;stroke-width:4px;"/>
                <g transform="matrix(1,0,0,1,0,-1)">
                    <g transform="matrix(1,-0,-0,1,238.204,1966.17)">
                        <path d="M323.796,173.828L317.796,170.828L323.796,167.828L323.796,173.828Z" style="stroke:black;stroke-width:3px;stroke-linecap:butt;"/>
                        <path d="M305.596,175.328L296.596,170.828L305.596,166.328C303.346,168.578 303.346,173.078 305.596,175.328Z"/>
                        <path d="M317.796,170.828L303.796,170.828" style="fill:none;stroke:black;stroke-width:3px;"/>
                    </g>
                </g>
            </g>
        </g>
    </g>
</svg>
