<?xml version="1.0" encoding="UTF-8" standalone="no"?>
<!DOCTYPE svg PUBLIC "-//W3C//DTD SVG 1.1//EN" "http://www.w3.org/Graphics/SVG/1.1/DTD/svg11.dtd">
<svg width="100%" height="100%" viewBox="0 0 384 386" version="1.1" xmlns="http://www.w3.org/2000/svg" xmlns:xlink="http://www.w3.org/1999/xlink" xml:space="preserve" xmlns:serif="http://www.serif.com/" style="fill-rule:evenodd;clip-rule:evenodd;stroke-linejoin:round;stroke-miterlimit:1.5;">
    <g transform="matrix(1,0,0,1,-3608,-4107)">
        <g id="Relations" transform="matrix(0.812257,0,0,0.72638,3262.13,2076.21)">
            <rect x="0" y="1710" width="2317" height="1630" style="fill:none;"/>
            <g transform="matrix(1.86614,0,0,2.08589,-424.924,-1578.16)">
                <rect x="611" y="2100" width="95" height="99" style="fill:rgb(217,217,217);"/>
            </g>
            <g transform="matrix(2.29183,0,0,2.56278,-616.974,-2821.47)">
                <path d="M561.719,2275L520.355,2285.21L508,2333.02L551.512,2348.06L581.057,2326.03L561.719,2275Z" style="fill:none;stroke:black;stroke-width:2.69px;"/>
            </g>
            <g transform="matrix(1.67087,0,0,1.86841,-332.286,-1187.66)">
                <path d="M723.714,2145L685.173,2150.72L689.895,2180.38L721.503,2193.55L723.714,2145Z" style="fill:none;stroke:black;stroke-width:3.68px;"/>
            </g>
            <g transform="matrix(1.23114,0,0,1.37669,46.2028,-81.1573)">
                <path d="M543,2145L543,2477" style="fill:none;stroke:black;stroke-width:3px;stroke-dasharray:3,6,0,0;"/>
            </g>
            <g transform="matrix(1.23114,0,0,1.37669,-121.232,-81.1573)">
                <path d="M543,2145L543,2477" style="fill:none;stroke:black;stroke-width:3px;stroke-dasharray:3,6,0,0;"/>
            </g>
            <g transform="matrix(7.53854e-17,1.37669,-1.23114,8.42979e-17,3476.15,2448.55)">
                <path d="M543,2145L543,2477" style="fill:none;stroke:black;stroke-width:3px;stroke-dasharray:3,6,0,0;"/>
            </g>
            <g transform="matrix(7.53854e-17,1.37669,-1.23114,8.42979e-17,3476.15,2261.32)">
                <path d="M543,2145L543,2477" style="fill:none;stroke:black;stroke-width:3px;stroke-dasharray:3,6,0,0;"/>
            </g>
            <g transform="matrix(1.23114,0,0,1.37669,-452.818,-3.51569)">
                <g transform="matrix(36,0,0,36,868.559,2150.67)">
                    <path d="M0.211,-0.458L0.157,-0.559L0.153,-0.559L0.163,-0.458L0.163,-0L0.085,-0L0.085,-0.711L0.129,-0.711L0.464,-0.244L0.516,-0.148L0.521,-0.148L0.51,-0.244L0.51,-0.7L0.588,-0.7L0.588,0.011L0.544,0.011L0.211,-0.458Z" style="fill-rule:nonzero;"/>
                </g>
            </g>
            <g transform="matrix(1.23114,0,0,1.37669,-609.78,-3.51569)">
                <g transform="matrix(36,0,0,36,868.559,2150.67)">
                    <path d="M0.211,-0.458L0.157,-0.559L0.153,-0.559L0.163,-0.458L0.163,-0L0.085,-0L0.085,-0.711L0.129,-0.711L0.464,-0.244L0.516,-0.148L0.521,-0.148L0.51,-0.244L0.51,-0.7L0.588,-0.7L0.588,0.011L0.544,0.011L0.211,-0.458Z" style="fill-rule:nonzero;"/>
                </g>
                <g transform="matrix(36,0,0,36,892.787,2150.67)">
                    <path d="M0.222,-0.231L0.238,-0.115L0.239,-0.115L0.256,-0.233L0.4,-0.7L0.44,-0.7L0.585,-0.231L0.602,-0.115L0.603,-0.115L0.621,-0.233L0.739,-0.7L0.82,-0.7L0.625,0.011L0.579,0.011L0.437,-0.458L0.419,-0.564L0.414,-0.564L0.396,-0.457L0.254,0.011L0.208,0.011L0.008,-0.7L0.096,-0.7L0.222,-0.231Z" style="fill-rule:nonzero;"/>
                </g>
            </g>
            <g transform="matrix(1.23114,0,0,1.37669,-609.78,309.194)">
                <g transform="matrix(36,0,0,36,868.559,2150.67)">
                    <path d="M0.401,-0.178C0.401,-0.206 0.393,-0.229 0.376,-0.247C0.359,-0.264 0.339,-0.28 0.314,-0.294C0.289,-0.307 0.261,-0.32 0.232,-0.332C0.203,-0.344 0.175,-0.359 0.151,-0.376C0.126,-0.393 0.105,-0.413 0.088,-0.439C0.071,-0.464 0.063,-0.495 0.063,-0.534C0.063,-0.589 0.082,-0.632 0.12,-0.664C0.158,-0.696 0.212,-0.712 0.282,-0.712C0.323,-0.712 0.36,-0.709 0.393,-0.703C0.426,-0.697 0.452,-0.689 0.471,-0.68L0.446,-0.607C0.431,-0.614 0.408,-0.621 0.379,-0.628C0.349,-0.635 0.315,-0.638 0.278,-0.638C0.234,-0.638 0.201,-0.628 0.179,-0.609C0.157,-0.589 0.146,-0.566 0.146,-0.539C0.146,-0.513 0.154,-0.491 0.171,-0.474C0.188,-0.457 0.209,-0.441 0.234,-0.428C0.259,-0.414 0.286,-0.4 0.315,-0.387C0.344,-0.374 0.372,-0.358 0.397,-0.341C0.422,-0.323 0.442,-0.302 0.459,-0.277C0.476,-0.252 0.484,-0.222 0.484,-0.185C0.484,-0.155 0.479,-0.128 0.468,-0.104C0.457,-0.08 0.442,-0.059 0.421,-0.042C0.4,-0.025 0.375,-0.011 0.346,-0.002C0.317,0.007 0.283,0.012 0.246,0.012C0.196,0.012 0.155,0.008 0.122,0.001C0.089,-0.007 0.064,-0.016 0.046,-0.025L0.074,-0.1C0.089,-0.091 0.112,-0.083 0.142,-0.075C0.172,-0.066 0.206,-0.062 0.243,-0.062C0.265,-0.062 0.286,-0.064 0.305,-0.069C0.324,-0.073 0.341,-0.08 0.355,-0.09C0.369,-0.099 0.38,-0.111 0.389,-0.126C0.397,-0.141 0.401,-0.158 0.401,-0.178Z" style="fill-rule:nonzero;"/>
                </g>
                <g transform="matrix(36,0,0,36,887.675,2150.67)">
                    <path d="M0.222,-0.231L0.238,-0.115L0.239,-0.115L0.256,-0.233L0.4,-0.7L0.44,-0.7L0.585,-0.231L0.602,-0.115L0.603,-0.115L0.621,-0.233L0.739,-0.7L0.82,-0.7L0.625,0.011L0.579,0.011L0.437,-0.458L0.419,-0.564L0.414,-0.564L0.396,-0.457L0.254,0.011L0.208,0.011L0.008,-0.7L0.096,-0.7L0.222,-0.231Z" style="fill-rule:nonzero;"/>
                </g>
            </g>
            <g transform="matrix(1.23114,0,0,1.37669,-317.335,154.049)">
                <g transform="matrix(36,0,0,36,868.559,2150.67)">
                    <path d="M0.085,-0.7L0.466,-0.7L0.466,-0.626L0.168,-0.626L0.168,-0.397L0.441,-0.397L0.441,-0.323L0.168,-0.323L0.168,-0.074L0.471,-0.074L0.471,-0L0.085,-0L0.085,-0.7Z" style="fill-rule:nonzero;"/>
                </g>
            </g>
            <g transform="matrix(1.23114,0,0,1.37669,-317.335,-1.69913)">
                <g transform="matrix(36,0,0,36,868.559,2150.67)">
                    <path d="M0.211,-0.458L0.157,-0.559L0.153,-0.559L0.163,-0.458L0.163,-0L0.085,-0L0.085,-0.711L0.129,-0.711L0.464,-0.244L0.516,-0.148L0.521,-0.148L0.51,-0.244L0.51,-0.7L0.588,-0.7L0.588,0.011L0.544,0.011L0.211,-0.458Z" style="fill-rule:nonzero;"/>
                </g>
                <g transform="matrix(36,0,0,36,892.787,2150.67)">
                    <path d="M0.085,-0.7L0.466,-0.7L0.466,-0.626L0.168,-0.626L0.168,-0.397L0.441,-0.397L0.441,-0.323L0.168,-0.323L0.168,-0.074L0.471,-0.074L0.471,-0L0.085,-0L0.085,-0.7Z" style="fill-rule:nonzero;"/>
                </g>
            </g>
            <g transform="matrix(1.23114,0,0,1.37669,-600.371,154.049)">
                <g transform="matrix(36,0,0,36,868.559,2150.67)">
                    <path d="M0.222,-0.231L0.238,-0.115L0.239,-0.115L0.256,-0.233L0.4,-0.7L0.44,-0.7L0.585,-0.231L0.602,-0.115L0.603,-0.115L0.621,-0.233L0.739,-0.7L0.82,-0.7L0.625,0.011L0.579,0.011L0.437,-0.458L0.419,-0.564L0.414,-0.564L0.396,-0.457L0.254,0.011L0.208,0.011L0.008,-0.7L0.096,-0.7L0.222,-0.231Z" style="fill-rule:nonzero;"/>
                </g>
            </g>
            <g transform="matrix(1.23114,0,0,1.37669,-326.828,308.459)">
                <g transform="matrix(36,0,0,36,868.559,2150.67)">
                    <path d="M0.401,-0.178C0.401,-0.206 0.393,-0.229 0.376,-0.247C0.359,-0.264 0.339,-0.28 0.314,-0.294C0.289,-0.307 0.261,-0.32 0.232,-0.332C0.203,-0.344 0.175,-0.359 0.151,-0.376C0.126,-0.393 0.105,-0.413 0.088,-0.439C0.071,-0.464 0.063,-0.495 0.063,-0.534C0.063,-0.589 0.082,-0.632 0.12,-0.664C0.158,-0.696 0.212,-0.712 0.282,-0.712C0.323,-0.712 0.36,-0.709 0.393,-0.703C0.426,-0.697 0.452,-0.689 0.471,-0.68L0.446,-0.607C0.431,-0.614 0.408,-0.621 0.379,-0.628C0.349,-0.635 0.315,-0.638 0.278,-0.638C0.234,-0.638 0.201,-0.628 0.179,-0.609C0.157,-0.589 0.146,-0.566 0.146,-0.539C0.146,-0.513 0.154,-0.491 0.171,-0.474C0.188,-0.457 0.209,-0.441 0.234,-0.428C0.259,-0.414 0.286,-0.4 0.315,-0.387C0.344,-0.374 0.372,-0.358 0.397,-0.341C0.422,-0.323 0.442,-0.302 0.459,-0.277C0.476,-0.252 0.484,-0.222 0.484,-0.185C0.484,-0.155 0.479,-0.128 0.468,-0.104C0.457,-0.08 0.442,-0.059 0.421,-0.042C0.4,-0.025 0.375,-0.011 0.346,-0.002C0.317,0.007 0.283,0.012 0.246,0.012C0.196,0.012 0.155,0.008 0.122,0.001C0.089,-0.007 0.064,-0.016 0.046,-0.025L0.074,-0.1C0.089,-0.091 0.112,-0.083 0.142,-0.075C0.172,-0.066 0.206,-0.062 0.243,-0.062C0.265,-0.062 0.286,-0.064 0.305,-0.069C0.324,-0.073 0.341,-0.08 0.355,-0.09C0.369,-0.099 0.38,-0.111 0.389,-0.126C0.397,-0.141 0.401,-0.158 0.401,-0.178Z" style="fill-rule:nonzero;"/>
                </g>
                <g transform="matrix(36,0,0,36,887.675,2150.67)">
                    <path d="M0.085,-0.7L0.466,-0.7L0.466,-0.626L0.168,-0.626L0.168,-0.397L0.441,-0.397L0.441,-0.323L0.168,-0.323L0.168,-0.074L0.471,-0.074L0.471,-0L0.085,-0L0.085,-0.7Z" style="fill-rule:nonzero;"/>
                </g>
            </g>
            <g transform="matrix(1.23114,0,0,1.37669,-451.539,308.459)">
                <g transform="matrix(36,0,0,36,868.559,2150.67)">
                    <path d="M0.401,-0.178C0.401,-0.206 0.393,-0.229 0.376,-0.247C0.359,-0.264 0.339,-0.28 0.314,-0.294C0.289,-0.307 0.261,-0.32 0.232,-0.332C0.203,-0.344 0.175,-0.359 0.151,-0.376C0.126,-0.393 0.105,-0.413 0.088,-0.439C0.071,-0.464 0.063,-0.495 0.063,-0.534C0.063,-0.589 0.082,-0.632 0.12,-0.664C0.158,-0.696 0.212,-0.712 0.282,-0.712C0.323,-0.712 0.36,-0.709 0.393,-0.703C0.426,-0.697 0.452,-0.689 0.471,-0.68L0.446,-0.607C0.431,-0.614 0.408,-0.621 0.379,-0.628C0.349,-0.635 0.315,-0.638 0.278,-0.638C0.234,-0.638 0.201,-0.628 0.179,-0.609C0.157,-0.589 0.146,-0.566 0.146,-0.539C0.146,-0.513 0.154,-0.491 0.171,-0.474C0.188,-0.457 0.209,-0.441 0.234,-0.428C0.259,-0.414 0.286,-0.4 0.315,-0.387C0.344,-0.374 0.372,-0.358 0.397,-0.341C0.422,-0.323 0.442,-0.302 0.459,-0.277C0.476,-0.252 0.484,-0.222 0.484,-0.185C0.484,-0.155 0.479,-0.128 0.468,-0.104C0.457,-0.08 0.442,-0.059 0.421,-0.042C0.4,-0.025 0.375,-0.011 0.346,-0.002C0.317,0.007 0.283,0.012 0.246,0.012C0.196,0.012 0.155,0.008 0.122,0.001C0.089,-0.007 0.064,-0.016 0.046,-0.025L0.074,-0.1C0.089,-0.091 0.112,-0.083 0.142,-0.075C0.172,-0.066 0.206,-0.062 0.243,-0.062C0.265,-0.062 0.286,-0.064 0.305,-0.069C0.324,-0.073 0.341,-0.08 0.355,-0.09C0.369,-0.099 0.38,-0.111 0.389,-0.126C0.397,-0.141 0.401,-0.158 0.401,-0.178Z" style="fill-rule:nonzero;"/>
                </g>
            </g>
            <g transform="matrix(1.23114,0,0,1.37669,160.203,428.639)">
                <g transform="matrix(36,0,0,36,368.503,1953.88)">
                    <path d="M0.405,-0.155L0.19,-0.155L0.137,-0L0,-0L0.252,-0.705L0.353,-0.705L0.605,-0L0.461,-0L0.405,-0.155ZM0.225,-0.265L0.375,-0.265L0.323,-0.421L0.302,-0.531L0.297,-0.531L0.276,-0.42L0.225,-0.265Z" style="fill-rule:nonzero;"/>
                </g>
            </g>
            <g transform="matrix(1.23114,0,0,1.37669,380.256,187.637)">
                <g transform="matrix(36,0,0,36,368.503,1953.88)">
                    <path d="M0.531,-0.537C0.531,-0.52 0.529,-0.502 0.525,-0.485C0.52,-0.468 0.513,-0.452 0.503,-0.438C0.493,-0.423 0.48,-0.411 0.464,-0.4C0.448,-0.389 0.429,-0.38 0.406,-0.375L0.406,-0.369C0.426,-0.366 0.445,-0.36 0.463,-0.352C0.481,-0.344 0.497,-0.333 0.51,-0.319C0.523,-0.305 0.534,-0.288 0.542,-0.268C0.549,-0.248 0.553,-0.224 0.553,-0.197C0.553,-0.161 0.545,-0.13 0.53,-0.104C0.515,-0.077 0.494,-0.056 0.469,-0.039C0.443,-0.022 0.414,-0.01 0.381,-0.002C0.348,0.006 0.315,0.01 0.28,0.01L0.237,0.01C0.219,0.01 0.2,0.01 0.18,0.009C0.159,0.008 0.138,0.006 0.118,0.004C0.097,0.002 0.077,-0.001 0.06,-0.005L0.06,-0.695C0.073,-0.697 0.087,-0.699 0.104,-0.701C0.12,-0.703 0.137,-0.705 0.156,-0.706C0.175,-0.707 0.194,-0.708 0.214,-0.709C0.233,-0.71 0.253,-0.71 0.272,-0.71C0.305,-0.71 0.337,-0.708 0.368,-0.703C0.399,-0.698 0.426,-0.689 0.451,-0.676C0.475,-0.663 0.494,-0.646 0.509,-0.623C0.524,-0.6 0.531,-0.572 0.531,-0.537ZM0.281,-0.103C0.298,-0.103 0.314,-0.105 0.33,-0.109C0.345,-0.113 0.359,-0.119 0.371,-0.128C0.383,-0.136 0.393,-0.146 0.4,-0.159C0.407,-0.172 0.411,-0.187 0.411,-0.204C0.411,-0.226 0.407,-0.243 0.398,-0.256C0.389,-0.269 0.378,-0.279 0.364,-0.286C0.35,-0.293 0.334,-0.297 0.317,-0.299C0.3,-0.301 0.282,-0.302 0.265,-0.302L0.192,-0.302L0.192,-0.109C0.195,-0.108 0.201,-0.107 0.208,-0.106C0.215,-0.105 0.223,-0.105 0.232,-0.105C0.24,-0.104 0.249,-0.104 0.258,-0.104C0.267,-0.103 0.274,-0.103 0.281,-0.103ZM0.236,-0.406C0.245,-0.406 0.256,-0.406 0.269,-0.407C0.281,-0.408 0.291,-0.409 0.299,-0.41C0.324,-0.418 0.346,-0.43 0.365,-0.446C0.383,-0.462 0.392,-0.483 0.392,-0.509C0.392,-0.526 0.389,-0.541 0.382,-0.552C0.375,-0.563 0.367,-0.572 0.356,-0.579C0.345,-0.586 0.332,-0.59 0.318,-0.593C0.304,-0.596 0.289,-0.597 0.274,-0.597C0.257,-0.597 0.241,-0.597 0.226,-0.596C0.211,-0.595 0.2,-0.594 0.192,-0.593L0.192,-0.406L0.236,-0.406Z" style="fill-rule:nonzero;"/>
                </g>
            </g>
        </g>
    </g>
</svg>
