<?xml version="1.0" encoding="UTF-8" standalone="no"?>
<!DOCTYPE svg PUBLIC "-//W3C//DTD SVG 1.1//EN" "http://www.w3.org/Graphics/SVG/1.1/DTD/svg11.dtd">
<svg width="100%" height="100%" viewBox="0 0 390 150" version="1.1" xmlns="http://www.w3.org/2000/svg" xmlns:xlink="http://www.w3.org/1999/xlink" xml:space="preserve" xmlns:serif="http://www.serif.com/" style="fill-rule:evenodd;clip-rule:evenodd;stroke-linejoin:round;stroke-miterlimit:10;">
    <g transform="matrix(1,0,0,1,-5607,-4224)">
        <g id="Artboard2" transform="matrix(1,0,0,1,0,-0.319317)">
            <rect x="5322" y="3318.32" width="1962" height="1184" style="fill:none;"/>
            <g transform="matrix(-1.35006e-17,-0.695473,0.695473,1.05302e-16,3278.22,7623.29)">
                <path d="M4676,3692L4759,3599L4881.46,3681L4845,3806L4735,3842L4751.03,3754.93L4676,3692Z" style="fill:rgb(133,239,255);fill-opacity:0.5;stroke:rgb(0,148,234);stroke-width:7.19px;"/>
            </g>
            <g transform="matrix(-1.35006e-17,-0.695473,0.695473,1.05302e-16,3166.66,7636.96)">
                <path d="M4710.51,3692L4759,3599L4800.21,3625.51L4806.42,3668.56L4881.46,3681L4845.99,3738.3L4845,3806L4759.44,3837.69L4705.99,3785.13L4710.51,3692Z" style="fill:rgb(255,162,232);fill-opacity:0.53;stroke:rgb(255,7,189);stroke-width:7.19px;"/>
            </g>
            <g transform="matrix(1.52209,-1.91605e-32,-1.25547e-32,1.52209,4780.64,3816.22)">
                <g transform="matrix(24.7733,0,0,24.7733,701.698,317.132)">
                    <path d="M0.531,-0.537C0.531,-0.52 0.529,-0.502 0.525,-0.485C0.52,-0.468 0.513,-0.452 0.503,-0.438C0.493,-0.423 0.48,-0.411 0.464,-0.4C0.448,-0.389 0.429,-0.38 0.406,-0.375L0.406,-0.369C0.426,-0.366 0.445,-0.36 0.463,-0.352C0.481,-0.344 0.497,-0.333 0.51,-0.319C0.523,-0.305 0.534,-0.288 0.542,-0.268C0.549,-0.248 0.553,-0.224 0.553,-0.197C0.553,-0.161 0.545,-0.13 0.53,-0.104C0.515,-0.077 0.494,-0.056 0.469,-0.039C0.443,-0.022 0.414,-0.01 0.381,-0.002C0.348,0.006 0.315,0.01 0.28,0.01L0.237,0.01C0.219,0.01 0.2,0.01 0.18,0.009C0.159,0.008 0.138,0.006 0.118,0.004C0.097,0.002 0.077,-0.001 0.06,-0.005L0.06,-0.695C0.073,-0.697 0.087,-0.699 0.104,-0.701C0.12,-0.703 0.137,-0.705 0.156,-0.706C0.175,-0.707 0.194,-0.708 0.214,-0.709C0.233,-0.71 0.253,-0.71 0.272,-0.71C0.305,-0.71 0.337,-0.708 0.368,-0.703C0.399,-0.698 0.426,-0.689 0.451,-0.676C0.475,-0.663 0.494,-0.646 0.509,-0.623C0.524,-0.6 0.531,-0.572 0.531,-0.537ZM0.281,-0.103C0.298,-0.103 0.314,-0.105 0.33,-0.109C0.345,-0.113 0.359,-0.119 0.371,-0.128C0.383,-0.136 0.393,-0.146 0.4,-0.159C0.407,-0.172 0.411,-0.187 0.411,-0.204C0.411,-0.226 0.407,-0.243 0.398,-0.256C0.389,-0.269 0.378,-0.279 0.364,-0.286C0.35,-0.293 0.334,-0.297 0.317,-0.299C0.3,-0.301 0.282,-0.302 0.265,-0.302L0.192,-0.302L0.192,-0.109C0.195,-0.108 0.201,-0.107 0.208,-0.106C0.215,-0.105 0.223,-0.105 0.232,-0.105C0.24,-0.104 0.249,-0.104 0.258,-0.104C0.267,-0.103 0.274,-0.103 0.281,-0.103ZM0.236,-0.406C0.245,-0.406 0.256,-0.406 0.269,-0.407C0.281,-0.408 0.291,-0.409 0.299,-0.41C0.324,-0.418 0.346,-0.43 0.365,-0.446C0.383,-0.462 0.392,-0.483 0.392,-0.509C0.392,-0.526 0.389,-0.541 0.382,-0.552C0.375,-0.563 0.367,-0.572 0.356,-0.579C0.345,-0.586 0.332,-0.59 0.318,-0.593C0.304,-0.596 0.289,-0.597 0.274,-0.597C0.257,-0.597 0.241,-0.597 0.226,-0.596C0.211,-0.595 0.2,-0.594 0.192,-0.593L0.192,-0.406L0.236,-0.406Z" style="fill:rgb(0,81,127);fill-rule:nonzero;"/>
                </g>
                <g transform="matrix(14.4428,0,0,14.4428,716.339,308.883)">
                    <path d="M0.033,-0.25C0.033,-0.335 0.054,-0.4 0.095,-0.446C0.136,-0.491 0.194,-0.514 0.269,-0.514C0.309,-0.514 0.344,-0.508 0.373,-0.495C0.402,-0.482 0.427,-0.464 0.446,-0.442C0.465,-0.419 0.48,-0.391 0.49,-0.358C0.499,-0.325 0.504,-0.289 0.504,-0.25C0.504,-0.165 0.484,-0.1 0.443,-0.055C0.401,-0.009 0.344,0.014 0.269,0.014C0.229,0.014 0.194,0.008 0.165,-0.005C0.136,-0.018 0.111,-0.036 0.092,-0.059C0.072,-0.082 0.057,-0.109 0.048,-0.142C0.038,-0.175 0.033,-0.211 0.033,-0.25ZM0.167,-0.25C0.167,-0.228 0.169,-0.208 0.173,-0.189C0.177,-0.17 0.183,-0.154 0.191,-0.14C0.199,-0.126 0.21,-0.115 0.223,-0.108C0.236,-0.1 0.251,-0.096 0.269,-0.096C0.303,-0.096 0.328,-0.108 0.345,-0.133C0.362,-0.158 0.37,-0.197 0.37,-0.25C0.37,-0.296 0.362,-0.333 0.347,-0.362C0.332,-0.39 0.306,-0.404 0.269,-0.404C0.237,-0.404 0.212,-0.392 0.194,-0.368C0.176,-0.344 0.167,-0.305 0.167,-0.25Z" style="fill:rgb(0,81,127);fill-rule:nonzero;"/>
                </g>
            </g>
            <g transform="matrix(1.52209,-1.91605e-32,-1.25547e-32,1.52209,4601.34,3796.96)">
                <g transform="matrix(24.7733,0,0,24.7733,698.738,317.132)">
                    <path d="M0.276,-0.503C0.29,-0.503 0.302,-0.502 0.312,-0.501C0.322,-0.5 0.331,-0.498 0.338,-0.496C0.345,-0.493 0.352,-0.491 0.358,-0.488C0.364,-0.485 0.37,-0.481 0.375,-0.478L0.38,-0.478C0.377,-0.504 0.368,-0.526 0.355,-0.543C0.342,-0.56 0.326,-0.574 0.307,-0.585C0.288,-0.596 0.267,-0.603 0.244,-0.608C0.221,-0.612 0.199,-0.614 0.176,-0.614L0.162,-0.614C0.157,-0.614 0.153,-0.614 0.148,-0.613L0.17,-0.714C0.175,-0.715 0.181,-0.715 0.187,-0.715L0.203,-0.715C0.247,-0.715 0.288,-0.71 0.326,-0.7C0.364,-0.69 0.397,-0.673 0.425,-0.65C0.452,-0.627 0.474,-0.595 0.49,-0.556C0.506,-0.517 0.514,-0.468 0.514,-0.41C0.514,-0.335 0.507,-0.271 0.493,-0.218C0.478,-0.165 0.458,-0.121 0.433,-0.087C0.408,-0.052 0.378,-0.027 0.343,-0.011C0.308,0.006 0.269,0.014 0.228,0.014C0.162,0.014 0.111,-0.004 0.074,-0.041C0.037,-0.077 0.018,-0.126 0.018,-0.189C0.018,-0.227 0.023,-0.265 0.034,-0.302C0.044,-0.339 0.059,-0.373 0.081,-0.403C0.101,-0.433 0.128,-0.457 0.161,-0.476C0.194,-0.494 0.232,-0.503 0.276,-0.503ZM0.284,-0.393C0.246,-0.393 0.215,-0.375 0.19,-0.34C0.165,-0.305 0.152,-0.256 0.152,-0.194C0.152,-0.167 0.159,-0.143 0.174,-0.125C0.188,-0.106 0.21,-0.096 0.239,-0.096C0.266,-0.096 0.289,-0.104 0.307,-0.119C0.325,-0.134 0.339,-0.154 0.351,-0.179C0.362,-0.204 0.369,-0.232 0.374,-0.263C0.378,-0.294 0.38,-0.326 0.38,-0.357C0.368,-0.368 0.355,-0.377 0.34,-0.384C0.325,-0.39 0.307,-0.393 0.284,-0.393Z" style="fill:rgb(255,7,189);fill-rule:nonzero;"/>
                </g>
                <g transform="matrix(24.7733,0,0,24.7733,712.066,317.132)">
                    <path d="M0.405,-0.155L0.19,-0.155L0.137,-0L0,-0L0.252,-0.705L0.353,-0.705L0.605,-0L0.461,-0L0.405,-0.155ZM0.225,-0.265L0.375,-0.265L0.323,-0.421L0.302,-0.531L0.297,-0.531L0.276,-0.42L0.225,-0.265Z" style="fill:rgb(255,7,189);fill-rule:nonzero;"/>
                </g>
            </g>
            <g transform="matrix(1.52209,-1.91605e-32,-1.25547e-32,1.52209,4823.7,3882.03)">
                <g transform="matrix(24.7733,0,0,24.7733,698.912,317.132)">
                    <path d="M0.276,-0.503C0.29,-0.503 0.302,-0.502 0.312,-0.501C0.322,-0.5 0.331,-0.498 0.338,-0.496C0.345,-0.493 0.352,-0.491 0.358,-0.488C0.364,-0.485 0.37,-0.481 0.375,-0.478L0.38,-0.478C0.377,-0.504 0.368,-0.526 0.355,-0.543C0.342,-0.56 0.326,-0.574 0.307,-0.585C0.288,-0.596 0.267,-0.603 0.244,-0.608C0.221,-0.612 0.199,-0.614 0.176,-0.614L0.162,-0.614C0.157,-0.614 0.153,-0.614 0.148,-0.613L0.17,-0.714C0.175,-0.715 0.181,-0.715 0.187,-0.715L0.203,-0.715C0.247,-0.715 0.288,-0.71 0.326,-0.7C0.364,-0.69 0.397,-0.673 0.425,-0.65C0.452,-0.627 0.474,-0.595 0.49,-0.556C0.506,-0.517 0.514,-0.468 0.514,-0.41C0.514,-0.335 0.507,-0.271 0.493,-0.218C0.478,-0.165 0.458,-0.121 0.433,-0.087C0.408,-0.052 0.378,-0.027 0.343,-0.011C0.308,0.006 0.269,0.014 0.228,0.014C0.162,0.014 0.111,-0.004 0.074,-0.041C0.037,-0.077 0.018,-0.126 0.018,-0.189C0.018,-0.227 0.023,-0.265 0.034,-0.302C0.044,-0.339 0.059,-0.373 0.081,-0.403C0.101,-0.433 0.128,-0.457 0.161,-0.476C0.194,-0.494 0.232,-0.503 0.276,-0.503ZM0.284,-0.393C0.246,-0.393 0.215,-0.375 0.19,-0.34C0.165,-0.305 0.152,-0.256 0.152,-0.194C0.152,-0.167 0.159,-0.143 0.174,-0.125C0.188,-0.106 0.21,-0.096 0.239,-0.096C0.266,-0.096 0.289,-0.104 0.307,-0.119C0.325,-0.134 0.339,-0.154 0.351,-0.179C0.362,-0.204 0.369,-0.232 0.374,-0.263C0.378,-0.294 0.38,-0.326 0.38,-0.357C0.368,-0.368 0.355,-0.377 0.34,-0.384C0.325,-0.39 0.307,-0.393 0.284,-0.393Z" style="fill:rgb(0,148,234);fill-rule:nonzero;"/>
                </g>
                <g transform="matrix(24.7733,0,0,24.7733,712.24,317.132)">
                    <path d="M0.531,-0.537C0.531,-0.52 0.529,-0.502 0.525,-0.485C0.52,-0.468 0.513,-0.452 0.503,-0.438C0.493,-0.423 0.48,-0.411 0.464,-0.4C0.448,-0.389 0.429,-0.38 0.406,-0.375L0.406,-0.369C0.426,-0.366 0.445,-0.36 0.463,-0.352C0.481,-0.344 0.497,-0.333 0.51,-0.319C0.523,-0.305 0.534,-0.288 0.542,-0.268C0.549,-0.248 0.553,-0.224 0.553,-0.197C0.553,-0.161 0.545,-0.13 0.53,-0.104C0.515,-0.077 0.494,-0.056 0.469,-0.039C0.443,-0.022 0.414,-0.01 0.381,-0.002C0.348,0.006 0.315,0.01 0.28,0.01L0.237,0.01C0.219,0.01 0.2,0.01 0.18,0.009C0.159,0.008 0.138,0.006 0.118,0.004C0.097,0.002 0.077,-0.001 0.06,-0.005L0.06,-0.695C0.073,-0.697 0.087,-0.699 0.104,-0.701C0.12,-0.703 0.137,-0.705 0.156,-0.706C0.175,-0.707 0.194,-0.708 0.214,-0.709C0.233,-0.71 0.253,-0.71 0.272,-0.71C0.305,-0.71 0.337,-0.708 0.368,-0.703C0.399,-0.698 0.426,-0.689 0.451,-0.676C0.475,-0.663 0.494,-0.646 0.509,-0.623C0.524,-0.6 0.531,-0.572 0.531,-0.537ZM0.281,-0.103C0.298,-0.103 0.314,-0.105 0.33,-0.109C0.345,-0.113 0.359,-0.119 0.371,-0.128C0.383,-0.136 0.393,-0.146 0.4,-0.159C0.407,-0.172 0.411,-0.187 0.411,-0.204C0.411,-0.226 0.407,-0.243 0.398,-0.256C0.389,-0.269 0.378,-0.279 0.364,-0.286C0.35,-0.293 0.334,-0.297 0.317,-0.299C0.3,-0.301 0.282,-0.302 0.265,-0.302L0.192,-0.302L0.192,-0.109C0.195,-0.108 0.201,-0.107 0.208,-0.106C0.215,-0.105 0.223,-0.105 0.232,-0.105C0.24,-0.104 0.249,-0.104 0.258,-0.104C0.267,-0.103 0.274,-0.103 0.281,-0.103ZM0.236,-0.406C0.245,-0.406 0.256,-0.406 0.269,-0.407C0.281,-0.408 0.291,-0.409 0.299,-0.41C0.324,-0.418 0.346,-0.43 0.365,-0.446C0.383,-0.462 0.392,-0.483 0.392,-0.509C0.392,-0.526 0.389,-0.541 0.382,-0.552C0.375,-0.563 0.367,-0.572 0.356,-0.579C0.345,-0.586 0.332,-0.59 0.318,-0.593C0.304,-0.596 0.289,-0.597 0.274,-0.597C0.257,-0.597 0.241,-0.597 0.226,-0.596C0.211,-0.595 0.2,-0.594 0.192,-0.593L0.192,-0.406L0.236,-0.406Z" style="fill:rgb(0,148,234);fill-rule:nonzero;"/>
                </g>
            </g>
            <g transform="matrix(1.52209,-1.91605e-32,-1.25547e-32,1.52209,4889.95,3804.99)">
                <g transform="matrix(24.7733,0,0,24.7733,699.654,317.132)">
                    <path d="M0.531,-0.537C0.531,-0.52 0.529,-0.502 0.525,-0.485C0.52,-0.468 0.513,-0.452 0.503,-0.438C0.493,-0.423 0.48,-0.411 0.464,-0.4C0.448,-0.389 0.429,-0.38 0.406,-0.375L0.406,-0.369C0.426,-0.366 0.445,-0.36 0.463,-0.352C0.481,-0.344 0.497,-0.333 0.51,-0.319C0.523,-0.305 0.534,-0.288 0.542,-0.268C0.549,-0.248 0.553,-0.224 0.553,-0.197C0.553,-0.161 0.545,-0.13 0.53,-0.104C0.515,-0.077 0.494,-0.056 0.469,-0.039C0.443,-0.022 0.414,-0.01 0.381,-0.002C0.348,0.006 0.315,0.01 0.28,0.01L0.237,0.01C0.219,0.01 0.2,0.01 0.18,0.009C0.159,0.008 0.138,0.006 0.118,0.004C0.097,0.002 0.077,-0.001 0.06,-0.005L0.06,-0.695C0.073,-0.697 0.087,-0.699 0.104,-0.701C0.12,-0.703 0.137,-0.705 0.156,-0.706C0.175,-0.707 0.194,-0.708 0.214,-0.709C0.233,-0.71 0.253,-0.71 0.272,-0.71C0.305,-0.71 0.337,-0.708 0.368,-0.703C0.399,-0.698 0.426,-0.689 0.451,-0.676C0.475,-0.663 0.494,-0.646 0.509,-0.623C0.524,-0.6 0.531,-0.572 0.531,-0.537ZM0.281,-0.103C0.298,-0.103 0.314,-0.105 0.33,-0.109C0.345,-0.113 0.359,-0.119 0.371,-0.128C0.383,-0.136 0.393,-0.146 0.4,-0.159C0.407,-0.172 0.411,-0.187 0.411,-0.204C0.411,-0.226 0.407,-0.243 0.398,-0.256C0.389,-0.269 0.378,-0.279 0.364,-0.286C0.35,-0.293 0.334,-0.297 0.317,-0.299C0.3,-0.301 0.282,-0.302 0.265,-0.302L0.192,-0.302L0.192,-0.109C0.195,-0.108 0.201,-0.107 0.208,-0.106C0.215,-0.105 0.223,-0.105 0.232,-0.105C0.24,-0.104 0.249,-0.104 0.258,-0.104C0.267,-0.103 0.274,-0.103 0.281,-0.103ZM0.236,-0.406C0.245,-0.406 0.256,-0.406 0.269,-0.407C0.281,-0.408 0.291,-0.409 0.299,-0.41C0.324,-0.418 0.346,-0.43 0.365,-0.446C0.383,-0.462 0.392,-0.483 0.392,-0.509C0.392,-0.526 0.389,-0.541 0.382,-0.552C0.375,-0.563 0.367,-0.572 0.356,-0.579C0.345,-0.586 0.332,-0.59 0.318,-0.593C0.304,-0.596 0.289,-0.597 0.274,-0.597C0.257,-0.597 0.241,-0.597 0.226,-0.596C0.211,-0.595 0.2,-0.594 0.192,-0.593L0.192,-0.406L0.236,-0.406Z" style="fill:rgb(0,96,152);fill-rule:nonzero;"/>
                </g>
                <g transform="matrix(14.4428,0,0,14.4428,714.295,308.883)">
                    <rect x="0.109" y="-0.346" width="0.602" height="0.116" style="fill:rgb(0,96,152);fill-rule:nonzero;"/>
                </g>
            </g>
            <g transform="matrix(1.52209,-1.91605e-32,-1.25547e-32,1.52209,4548.46,3862.77)">
                <g transform="matrix(24.7733,0,0,24.7733,699.481,317.132)">
                    <path d="M0.405,-0.155L0.19,-0.155L0.137,-0L0,-0L0.252,-0.705L0.353,-0.705L0.605,-0L0.461,-0L0.405,-0.155ZM0.225,-0.265L0.375,-0.265L0.323,-0.421L0.302,-0.531L0.297,-0.531L0.276,-0.42L0.225,-0.265Z" style="fill:rgb(154,0,115);fill-rule:nonzero;"/>
                </g>
                <g transform="matrix(14.4428,0,0,14.4428,714.469,308.883)">
                    <rect x="0.109" y="-0.346" width="0.602" height="0.116" style="fill:rgb(154,0,115);fill-rule:nonzero;"/>
                </g>
            </g>
            <g transform="matrix(1.52209,-1.91605e-32,-1.25547e-32,1.52209,4667.58,3843.51)">
                <g transform="matrix(24.7733,0,0,24.7733,701.524,317.132)">
                    <path d="M0.405,-0.155L0.19,-0.155L0.137,-0L0,-0L0.252,-0.705L0.353,-0.705L0.605,-0L0.461,-0L0.405,-0.155ZM0.225,-0.265L0.375,-0.265L0.323,-0.421L0.302,-0.531L0.297,-0.531L0.276,-0.42L0.225,-0.265Z" style="fill:rgb(154,0,115);fill-rule:nonzero;"/>
                </g>
                <g transform="matrix(14.4428,0,0,14.4428,716.512,308.883)">
                    <path d="M0.033,-0.25C0.033,-0.335 0.054,-0.4 0.095,-0.446C0.136,-0.491 0.194,-0.514 0.269,-0.514C0.309,-0.514 0.344,-0.508 0.373,-0.495C0.402,-0.482 0.427,-0.464 0.446,-0.442C0.465,-0.419 0.48,-0.391 0.49,-0.358C0.499,-0.325 0.504,-0.289 0.504,-0.25C0.504,-0.165 0.484,-0.1 0.443,-0.055C0.401,-0.009 0.344,0.014 0.269,0.014C0.229,0.014 0.194,0.008 0.165,-0.005C0.136,-0.018 0.111,-0.036 0.092,-0.059C0.072,-0.082 0.057,-0.109 0.048,-0.142C0.038,-0.175 0.033,-0.211 0.033,-0.25ZM0.167,-0.25C0.167,-0.228 0.169,-0.208 0.173,-0.189C0.177,-0.17 0.183,-0.154 0.191,-0.14C0.199,-0.126 0.21,-0.115 0.223,-0.108C0.236,-0.1 0.251,-0.096 0.269,-0.096C0.303,-0.096 0.328,-0.108 0.345,-0.133C0.362,-0.158 0.37,-0.197 0.37,-0.25C0.37,-0.296 0.362,-0.333 0.347,-0.362C0.332,-0.39 0.306,-0.404 0.269,-0.404C0.237,-0.404 0.212,-0.392 0.194,-0.368C0.176,-0.344 0.167,-0.305 0.167,-0.25Z" style="fill:rgb(154,0,115);fill-rule:nonzero;"/>
                </g>
            </g>
        </g>
    </g>
</svg>
