<?xml version="1.0" encoding="UTF-8" standalone="no"?>
<!DOCTYPE svg PUBLIC "-//W3C//DTD SVG 1.1//EN" "http://www.w3.org/Graphics/SVG/1.1/DTD/svg11.dtd">
<svg width="100%" height="100%" viewBox="0 0 1263 256" version="1.1" xmlns="http://www.w3.org/2000/svg" xmlns:xlink="http://www.w3.org/1999/xlink" xml:space="preserve" xmlns:serif="http://www.serif.com/" style="fill-rule:evenodd;clip-rule:evenodd;stroke-linejoin:round;stroke-miterlimit:10;">
    <g transform="matrix(1,0,0,1,-1826,-664)">
        <rect id="Artboard3" x="1726" y="549" width="1464" height="562" style="fill:none;"/>
        <g id="Artboard31" serif:id="Artboard3">
            <rect x="1837" y="721" width="93" height="93" style="fill:rgb(251,133,255);stroke:black;stroke-width:2px;"/>
            <g transform="matrix(0.505376,0,0,0.505376,908.624,494.373)">
                <rect x="1837" y="721" width="93" height="93" style="fill:rgb(251,133,255);stroke:black;stroke-width:3.96px;"/>
            </g>
            <g transform="matrix(0.505376,0,0,0.505376,1341.36,494.373)">
                <rect x="1837" y="721" width="93" height="93" style="fill:rgb(255,235,51);stroke:black;stroke-width:3.96px;"/>
            </g>
            <g transform="matrix(0.505376,0,0,0.505376,1706.31,494.373)">
                <rect x="1837" y="721" width="93" height="93" style="fill:rgb(45,231,231);stroke:black;stroke-width:3.96px;"/>
            </g>
            <path d="M1930,814L2116,814L2116,721L1930,721L1930,814Z" style="fill:rgb(255,235,51);stroke:black;stroke-width:2px;"/>
            <g transform="matrix(1,0,0,1,186,0)">
                <path d="M1930,814L2116,814L2116,721L1930,721L1930,814Z" style="fill:rgb(255,235,51);stroke:black;stroke-width:2px;"/>
            </g>
            <g transform="matrix(1,0,0,1,517.791,0)">
                <path d="M1930,814L2116,814L2116,721L1930,721L1930,814Z" style="fill:rgb(255,235,51);stroke:black;stroke-width:2px;"/>
            </g>
            <g transform="matrix(2.38868,0,0,1,-1976.36,0)">
                <path d="M1930,814L2116,814L2116,721L1930,721L1930,814Z" style="fill:rgb(45,231,231);stroke:black;stroke-width:1.09px;"/>
            </g>
            <g transform="matrix(1,0,0,1,-159,121.5)">
                <g transform="matrix(40,0,0,40,2030.5,659)">
                    <path d="M0.256,-0.058C0.281,-0.058 0.305,-0.061 0.326,-0.068C0.347,-0.074 0.366,-0.084 0.381,-0.097C0.396,-0.11 0.407,-0.126 0.416,-0.145C0.424,-0.164 0.428,-0.187 0.428,-0.213C0.428,-0.261 0.411,-0.298 0.377,-0.323C0.342,-0.347 0.295,-0.36 0.236,-0.36L0.142,-0.355L0.142,-0.7L0.485,-0.7L0.485,-0.628L0.217,-0.628L0.217,-0.425L0.267,-0.427C0.341,-0.427 0.399,-0.409 0.442,-0.373C0.485,-0.337 0.506,-0.286 0.506,-0.219C0.506,-0.182 0.5,-0.149 0.487,-0.12C0.474,-0.091 0.456,-0.067 0.433,-0.048C0.41,-0.028 0.384,-0.013 0.353,-0.003C0.321,0.007 0.288,0.012 0.251,0.012C0.231,0.012 0.212,0.011 0.194,0.008C0.176,0.005 0.16,0.001 0.145,-0.004C0.13,-0.008 0.117,-0.013 0.107,-0.018C0.095,-0.023 0.088,-0.027 0.083,-0.031L0.115,-0.096C0.126,-0.089 0.144,-0.081 0.167,-0.072C0.19,-0.063 0.22,-0.058 0.256,-0.058Z" style="fill-rule:nonzero;"/>
                </g>
            </g>
            <g transform="matrix(1,0,0,1,-93,119.5)">
                <g transform="matrix(40,0,0,40,2044,659)">
                    <path d="M0.584,0.141L0.514,0.141L0.514,-0L0.078,-0L0.078,0.141L0.008,0.141L0.008,-0.074L0.075,-0.074C0.078,-0.082 0.084,-0.1 0.094,-0.127C0.103,-0.154 0.113,-0.193 0.124,-0.243C0.134,-0.293 0.143,-0.356 0.152,-0.431C0.161,-0.506 0.165,-0.596 0.165,-0.7L0.509,-0.7L0.509,-0.074L0.584,-0.074L0.584,0.141ZM0.426,-0.074L0.426,-0.626L0.243,-0.626C0.241,-0.553 0.237,-0.487 0.231,-0.428C0.224,-0.369 0.217,-0.317 0.209,-0.272C0.201,-0.227 0.193,-0.188 0.185,-0.155C0.176,-0.122 0.169,-0.095 0.163,-0.074L0.426,-0.074Z" style="fill-rule:nonzero;"/>
                </g>
                <g transform="matrix(40,0,0,40,2068,659)">
                    <path d="M0.437,-0.314L0.44,-0.38L0.437,-0.38L0.156,-0L0.085,-0L0.085,-0.5L0.163,-0.5L0.163,-0.177L0.16,-0.114L0.164,-0.114L0.443,-0.5L0.515,-0.5L0.515,-0L0.437,-0L0.437,-0.314Z" style="fill-rule:nonzero;"/>
                </g>
                <g transform="matrix(40,0,0,40,2092,659)">
                    <path d="M0.241,-0.226L0.186,-0.226L0.186,-0L0.109,-0L0.109,-0.5L0.186,-0.5L0.186,-0.286L0.241,-0.286L0.438,-0.5L0.532,-0.5L0.311,-0.263L0.493,-0.067L0.558,-0.067L0.558,-0L0.455,-0L0.241,-0.226Z" style="fill-rule:nonzero;"/>
                </g>
                <g transform="matrix(40,0,0,40,2116,659)">
                    <path d="M0.439,-0.423C0.424,-0.428 0.407,-0.433 0.39,-0.437C0.372,-0.44 0.354,-0.442 0.337,-0.442C0.272,-0.442 0.223,-0.427 0.191,-0.396C0.159,-0.365 0.143,-0.317 0.143,-0.25C0.143,-0.221 0.148,-0.195 0.157,-0.172C0.166,-0.149 0.18,-0.129 0.197,-0.113C0.214,-0.097 0.235,-0.085 0.26,-0.076C0.284,-0.067 0.311,-0.063 0.34,-0.063C0.371,-0.063 0.402,-0.068 0.432,-0.079C0.461,-0.09 0.486,-0.104 0.506,-0.121L0.541,-0.063C0.532,-0.055 0.52,-0.047 0.506,-0.038C0.492,-0.029 0.476,-0.021 0.458,-0.014C0.439,-0.006 0.419,0 0.397,0.005C0.374,0.01 0.35,0.012 0.324,0.012C0.281,0.012 0.243,0.006 0.21,-0.007C0.177,-0.019 0.149,-0.037 0.127,-0.06C0.105,-0.083 0.088,-0.11 0.077,-0.143C0.066,-0.175 0.06,-0.211 0.06,-0.25C0.06,-0.292 0.066,-0.329 0.078,-0.362C0.089,-0.395 0.106,-0.422 0.128,-0.444C0.15,-0.466 0.177,-0.483 0.208,-0.495C0.239,-0.506 0.274,-0.512 0.313,-0.512C0.362,-0.512 0.403,-0.508 0.434,-0.499C0.464,-0.49 0.491,-0.481 0.512,-0.47L0.511,-0.467L0.511,-0.328L0.439,-0.328L0.439,-0.423Z" style="fill-rule:nonzero;"/>
                </g>
                <g transform="matrix(40,0,0,40,2140,659)">
                    <path d="M0.057,-0.25C0.057,-0.331 0.078,-0.395 0.12,-0.442C0.162,-0.489 0.222,-0.512 0.3,-0.512C0.342,-0.512 0.378,-0.505 0.409,-0.492C0.439,-0.478 0.464,-0.459 0.484,-0.436C0.504,-0.413 0.519,-0.385 0.529,-0.353C0.538,-0.321 0.543,-0.287 0.543,-0.25C0.543,-0.21 0.538,-0.174 0.527,-0.142C0.516,-0.109 0.501,-0.082 0.48,-0.059C0.459,-0.036 0.434,-0.019 0.404,-0.007C0.373,0.006 0.339,0.012 0.3,0.012C0.259,0.012 0.223,0.005 0.192,-0.009C0.161,-0.022 0.136,-0.041 0.116,-0.064C0.096,-0.087 0.081,-0.115 0.072,-0.147C0.062,-0.179 0.057,-0.213 0.057,-0.25ZM0.14,-0.25C0.14,-0.227 0.143,-0.203 0.149,-0.18C0.154,-0.157 0.163,-0.136 0.176,-0.117C0.189,-0.098 0.205,-0.083 0.226,-0.072C0.246,-0.061 0.271,-0.055 0.3,-0.055C0.353,-0.055 0.393,-0.071 0.421,-0.105C0.448,-0.137 0.461,-0.186 0.461,-0.25C0.461,-0.274 0.458,-0.298 0.453,-0.321C0.447,-0.343 0.438,-0.364 0.425,-0.383C0.412,-0.402 0.395,-0.417 0.375,-0.428C0.354,-0.439 0.329,-0.445 0.3,-0.445C0.247,-0.445 0.207,-0.429 0.18,-0.396C0.153,-0.363 0.14,-0.315 0.14,-0.25Z" style="fill-rule:nonzero;"/>
                </g>
                <g transform="matrix(40,0,0,40,2164,659)">
                    <path d="M0.434,-0.222L0.165,-0.222L0.165,-0L0.088,-0L0.088,-0.5L0.165,-0.5L0.165,-0.292L0.434,-0.292L0.434,-0.5L0.512,-0.5L0.512,-0L0.434,-0L0.434,-0.222Z" style="fill-rule:nonzero;"/>
                </g>
            </g>
            <g transform="matrix(1,0,0,1,93.8622,119.5)">
                <g transform="matrix(40,0,0,40,2068,659)">
                    <path d="M0.127,-0.072L0.284,-0.072L0.284,-0.598L0.124,-0.486L0.085,-0.543L0.305,-0.7L0.361,-0.7L0.361,-0.072L0.515,-0.072L0.515,-0L0.127,-0L0.127,-0.072Z" style="fill-rule:nonzero;"/>
                </g>
                <g transform="matrix(40,0,0,40,2092,659)">
                    <path d="M0.061,-0.489C0.061,-0.52 0.066,-0.549 0.076,-0.576C0.086,-0.603 0.101,-0.626 0.122,-0.647C0.142,-0.667 0.167,-0.683 0.197,-0.695C0.227,-0.706 0.262,-0.712 0.302,-0.712C0.339,-0.712 0.373,-0.706 0.402,-0.694C0.431,-0.682 0.456,-0.665 0.477,-0.644C0.497,-0.622 0.512,-0.596 0.523,-0.565C0.534,-0.534 0.539,-0.499 0.539,-0.461C0.539,-0.386 0.53,-0.321 0.511,-0.264C0.492,-0.207 0.466,-0.159 0.433,-0.12C0.4,-0.081 0.36,-0.05 0.315,-0.028C0.269,-0.006 0.219,0.007 0.166,0.012L0.151,-0.051C0.195,-0.056 0.234,-0.066 0.269,-0.083C0.304,-0.1 0.334,-0.121 0.359,-0.147C0.384,-0.173 0.405,-0.203 0.421,-0.237C0.437,-0.271 0.448,-0.307 0.454,-0.346C0.443,-0.335 0.432,-0.325 0.422,-0.318C0.411,-0.31 0.398,-0.304 0.385,-0.299C0.372,-0.294 0.357,-0.291 0.341,-0.289C0.325,-0.287 0.307,-0.286 0.286,-0.286C0.255,-0.286 0.226,-0.291 0.199,-0.3C0.172,-0.309 0.148,-0.323 0.128,-0.341C0.107,-0.358 0.091,-0.38 0.079,-0.405C0.067,-0.43 0.061,-0.458 0.061,-0.489ZM0.143,-0.497C0.143,-0.449 0.158,-0.413 0.187,-0.389C0.216,-0.365 0.254,-0.353 0.302,-0.353C0.34,-0.353 0.373,-0.359 0.401,-0.371C0.428,-0.382 0.448,-0.397 0.459,-0.414C0.46,-0.423 0.461,-0.431 0.461,-0.437L0.461,-0.456C0.461,-0.479 0.458,-0.502 0.452,-0.525C0.445,-0.548 0.435,-0.568 0.422,-0.586C0.409,-0.604 0.392,-0.619 0.371,-0.63C0.349,-0.641 0.324,-0.646 0.295,-0.646C0.247,-0.646 0.21,-0.633 0.183,-0.607C0.156,-0.581 0.143,-0.544 0.143,-0.497Z" style="fill-rule:nonzero;"/>
                </g>
                <g transform="matrix(40,0,0,40,2116,659)">
                    <path d="M0.127,-0.072L0.284,-0.072L0.284,-0.598L0.124,-0.486L0.085,-0.543L0.305,-0.7L0.361,-0.7L0.361,-0.072L0.515,-0.072L0.515,-0L0.127,-0L0.127,-0.072Z" style="fill-rule:nonzero;"/>
                </g>
                <g transform="matrix(40,0,0,40,2140,659)">
                    <path d="M0.256,-0.058C0.281,-0.058 0.305,-0.061 0.326,-0.068C0.347,-0.074 0.366,-0.084 0.381,-0.097C0.396,-0.11 0.407,-0.126 0.416,-0.145C0.424,-0.164 0.428,-0.187 0.428,-0.213C0.428,-0.261 0.411,-0.298 0.377,-0.323C0.342,-0.347 0.295,-0.36 0.236,-0.36L0.142,-0.355L0.142,-0.7L0.485,-0.7L0.485,-0.628L0.217,-0.628L0.217,-0.425L0.267,-0.427C0.341,-0.427 0.399,-0.409 0.442,-0.373C0.485,-0.337 0.506,-0.286 0.506,-0.219C0.506,-0.182 0.5,-0.149 0.487,-0.12C0.474,-0.091 0.456,-0.067 0.433,-0.048C0.41,-0.028 0.384,-0.013 0.353,-0.003C0.321,0.007 0.288,0.012 0.251,0.012C0.231,0.012 0.212,0.011 0.194,0.008C0.176,0.005 0.16,0.001 0.145,-0.004C0.13,-0.008 0.117,-0.013 0.107,-0.018C0.095,-0.023 0.088,-0.027 0.083,-0.031L0.115,-0.096C0.126,-0.089 0.144,-0.081 0.167,-0.072C0.19,-0.063 0.22,-0.058 0.256,-0.058Z" style="fill-rule:nonzero;"/>
                </g>
            </g>
            <g transform="matrix(1,0,0,1,425.354,119.5)">
                <g transform="matrix(40,0,0,40,2056,659)">
                    <rect x="0.129" y="-0.325" width="0.342" height="0.074" style="fill-rule:nonzero;"/>
                </g>
                <g transform="matrix(40,0,0,40,2080,659)">
                    <path d="M0.58,-0.218L0.445,-0.218L0.445,-0L0.367,-0L0.367,-0.218L0.044,-0.218L0.044,-0.276L0.379,-0.7L0.445,-0.7L0.445,-0.284L0.58,-0.284L0.58,-0.218ZM0.367,-0.575L0.136,-0.284L0.367,-0.284L0.367,-0.575Z" style="fill-rule:nonzero;"/>
                </g>
                <g transform="matrix(40,0,0,40,2104,659)">
                    <path d="M0.075,-0.17C0.075,-0.251 0.124,-0.316 0.222,-0.365C0.203,-0.375 0.186,-0.385 0.17,-0.396C0.154,-0.407 0.14,-0.419 0.129,-0.432C0.117,-0.445 0.108,-0.461 0.101,-0.478C0.094,-0.495 0.091,-0.515 0.091,-0.538C0.091,-0.563 0.096,-0.586 0.106,-0.607C0.116,-0.628 0.13,-0.647 0.149,-0.662C0.168,-0.677 0.19,-0.69 0.217,-0.699C0.244,-0.708 0.273,-0.712 0.306,-0.712C0.337,-0.712 0.365,-0.708 0.39,-0.7C0.415,-0.692 0.436,-0.681 0.454,-0.667C0.471,-0.652 0.485,-0.635 0.494,-0.616C0.503,-0.597 0.508,-0.576 0.508,-0.554C0.508,-0.516 0.499,-0.481 0.48,-0.45C0.46,-0.418 0.43,-0.389 0.388,-0.363C0.407,-0.353 0.425,-0.342 0.442,-0.331C0.459,-0.32 0.473,-0.307 0.486,-0.293C0.498,-0.279 0.507,-0.263 0.515,-0.246C0.522,-0.228 0.525,-0.208 0.525,-0.185C0.525,-0.157 0.52,-0.131 0.51,-0.107C0.5,-0.082 0.485,-0.061 0.466,-0.044C0.446,-0.027 0.422,-0.013 0.393,-0.003C0.364,0.007 0.331,0.012 0.293,0.012C0.258,0.012 0.226,0.007 0.199,-0.003C0.172,-0.013 0.149,-0.026 0.131,-0.043C0.112,-0.06 0.098,-0.079 0.089,-0.101C0.08,-0.123 0.075,-0.146 0.075,-0.17ZM0.446,-0.18C0.446,-0.199 0.442,-0.217 0.433,-0.232C0.424,-0.247 0.411,-0.26 0.397,-0.272C0.382,-0.284 0.364,-0.295 0.345,-0.305C0.326,-0.315 0.306,-0.325 0.285,-0.335C0.237,-0.312 0.203,-0.286 0.183,-0.258C0.162,-0.23 0.152,-0.204 0.152,-0.179C0.152,-0.162 0.155,-0.147 0.162,-0.132C0.168,-0.117 0.177,-0.103 0.19,-0.092C0.202,-0.081 0.217,-0.072 0.236,-0.065C0.254,-0.058 0.275,-0.055 0.299,-0.055C0.318,-0.055 0.337,-0.058 0.355,-0.063C0.372,-0.068 0.388,-0.076 0.402,-0.087C0.415,-0.097 0.426,-0.11 0.434,-0.126C0.442,-0.141 0.446,-0.159 0.446,-0.18ZM0.169,-0.541C0.169,-0.522 0.173,-0.506 0.182,-0.491C0.191,-0.476 0.202,-0.463 0.217,-0.452C0.231,-0.44 0.247,-0.429 0.266,-0.42C0.285,-0.41 0.304,-0.4 0.325,-0.391C0.36,-0.414 0.387,-0.438 0.405,-0.461C0.422,-0.484 0.431,-0.51 0.431,-0.538C0.431,-0.555 0.428,-0.57 0.421,-0.583C0.413,-0.596 0.404,-0.607 0.393,-0.616C0.381,-0.625 0.367,-0.632 0.352,-0.638C0.337,-0.643 0.321,-0.645 0.304,-0.645C0.283,-0.645 0.264,-0.642 0.247,-0.636C0.23,-0.63 0.216,-0.622 0.205,-0.612C0.194,-0.602 0.185,-0.591 0.179,-0.579C0.172,-0.566 0.169,-0.554 0.169,-0.541Z" style="fill-rule:nonzero;"/>
                </g>
                <g transform="matrix(40,0,0,40,2128,659)">
                    <path d="M0.233,-0.055C0.233,-0.076 0.239,-0.093 0.251,-0.105C0.263,-0.116 0.279,-0.122 0.299,-0.122C0.32,-0.122 0.337,-0.116 0.349,-0.105C0.361,-0.093 0.367,-0.076 0.367,-0.055C0.367,-0.036 0.361,-0.02 0.349,-0.007C0.337,0.006 0.32,0.012 0.299,0.012C0.279,0.012 0.263,0.006 0.251,-0.007C0.239,-0.02 0.233,-0.036 0.233,-0.055Z" style="fill-rule:nonzero;"/>
                </g>
                <g transform="matrix(40,0,0,40,2152,659)">
                    <path d="M0.127,-0.072L0.284,-0.072L0.284,-0.598L0.124,-0.486L0.085,-0.543L0.305,-0.7L0.361,-0.7L0.361,-0.072L0.515,-0.072L0.515,-0L0.127,-0L0.127,-0.072Z" style="fill-rule:nonzero;"/>
                </g>
            </g>
            <g transform="matrix(1,0,0,1,-159,44.8997)">
                <g transform="matrix(40,0,0,40,2026.34,659)">
                    <path d="M0.069,-0.5L0.199,-0.5L0.199,-0L0.069,-0L0.069,-0.5ZM0.05,-0.641C0.05,-0.66 0.057,-0.677 0.072,-0.691C0.086,-0.704 0.106,-0.711 0.131,-0.711C0.156,-0.711 0.177,-0.704 0.193,-0.691C0.208,-0.677 0.216,-0.66 0.216,-0.641C0.216,-0.622 0.208,-0.606 0.193,-0.593C0.177,-0.58 0.156,-0.573 0.131,-0.573C0.106,-0.573 0.086,-0.58 0.072,-0.593C0.057,-0.606 0.05,-0.622 0.05,-0.641Z" style="fill-rule:nonzero;"/>
                </g>
                <g transform="matrix(40,0,0,40,2037.1,659)">
                    <path d="M0.482,-0.176C0.482,-0.148 0.482,-0.12 0.483,-0.092C0.484,-0.064 0.487,-0.033 0.492,0.001L0.399,0.001L0.381,-0.064L0.377,-0.064C0.364,-0.041 0.345,-0.022 0.32,-0.008C0.295,0.007 0.265,0.014 0.231,0.014C0.168,0.014 0.12,-0.007 0.085,-0.048C0.05,-0.089 0.033,-0.154 0.033,-0.242C0.033,-0.327 0.052,-0.394 0.091,-0.441C0.13,-0.488 0.186,-0.512 0.261,-0.512C0.282,-0.512 0.299,-0.511 0.312,-0.509C0.325,-0.506 0.339,-0.502 0.352,-0.497L0.352,-0.7L0.482,-0.7L0.482,-0.176ZM0.261,-0.096C0.286,-0.096 0.306,-0.102 0.321,-0.115C0.336,-0.127 0.346,-0.145 0.352,-0.168L0.352,-0.38C0.343,-0.387 0.332,-0.393 0.321,-0.397C0.31,-0.4 0.295,-0.402 0.277,-0.402C0.24,-0.402 0.213,-0.39 0.195,-0.365C0.176,-0.34 0.167,-0.298 0.167,-0.238C0.167,-0.195 0.175,-0.161 0.19,-0.135C0.204,-0.109 0.228,-0.096 0.261,-0.096Z" style="fill-rule:nonzero;"/>
                </g>
            </g>
            <g transform="matrix(1,0,0,1,-139.5,236.46)">
                <g transform="matrix(40,0,0,40,2046.46,659)">
                    <path d="M0.389,-0.296L0.392,-0.358L0.389,-0.358L0.348,-0.294L0.123,-0L0.077,-0L0.077,-0.5L0.157,-0.5L0.157,-0.195L0.154,-0.136L0.158,-0.136L0.197,-0.198L0.422,-0.5L0.469,-0.5L0.469,-0L0.389,-0L0.389,-0.296Z" style="fill-rule:nonzero;"/>
                </g>
                <g transform="matrix(40,0,0,40,2068.3,659)">
                    <path d="M0.519,0.127L0.465,0.127L0.45,-0L0.074,-0L0.059,0.127L0.005,0.127L0.005,-0.07L0.064,-0.07C0.069,-0.077 0.076,-0.091 0.085,-0.11C0.094,-0.129 0.102,-0.155 0.111,-0.19C0.119,-0.224 0.126,-0.267 0.133,-0.318C0.139,-0.369 0.143,-0.429 0.144,-0.5L0.446,-0.5L0.446,-0.07L0.519,-0.07L0.519,0.127ZM0.366,-0.07L0.366,-0.43L0.216,-0.43C0.215,-0.402 0.212,-0.372 0.209,-0.339C0.206,-0.306 0.201,-0.273 0.196,-0.24C0.19,-0.207 0.183,-0.175 0.174,-0.146C0.165,-0.117 0.155,-0.091 0.144,-0.07L0.366,-0.07Z" style="fill-rule:nonzero;"/>
                </g>
                <g transform="matrix(40,0,0,40,2089.94,659)">
                    <path d="M0.442,-0.04C0.422,-0.024 0.397,-0.011 0.367,-0.002C0.336,0.007 0.304,0.012 0.27,0.012C0.232,0.012 0.199,0.006 0.171,-0.007C0.143,-0.019 0.12,-0.037 0.102,-0.06C0.084,-0.083 0.071,-0.11 0.062,-0.142C0.053,-0.174 0.049,-0.21 0.049,-0.25C0.049,-0.335 0.068,-0.4 0.106,-0.445C0.144,-0.49 0.198,-0.512 0.269,-0.512C0.292,-0.512 0.314,-0.51 0.337,-0.505C0.36,-0.5 0.38,-0.49 0.398,-0.476C0.416,-0.462 0.431,-0.442 0.442,-0.417C0.453,-0.391 0.459,-0.357 0.459,-0.315C0.459,-0.293 0.457,-0.269 0.453,-0.242L0.132,-0.242C0.132,-0.213 0.135,-0.187 0.141,-0.164C0.147,-0.141 0.156,-0.122 0.169,-0.107C0.182,-0.091 0.198,-0.079 0.219,-0.071C0.239,-0.062 0.264,-0.058 0.293,-0.058C0.316,-0.058 0.338,-0.062 0.361,-0.07C0.384,-0.078 0.401,-0.087 0.412,-0.098L0.442,-0.04ZM0.27,-0.442C0.231,-0.442 0.199,-0.432 0.176,-0.411C0.152,-0.39 0.138,-0.355 0.133,-0.305L0.381,-0.305C0.381,-0.356 0.371,-0.391 0.352,-0.412C0.333,-0.432 0.305,-0.442 0.27,-0.442Z" style="fill-rule:nonzero;"/>
                </g>
                <g transform="matrix(40,0,0,40,2110.26,659)">
                    <path d="M0.383,-0.221L0.157,-0.221L0.157,-0L0.077,-0L0.077,-0.5L0.157,-0.5L0.157,-0.291L0.383,-0.291L0.383,-0.5L0.463,-0.5L0.463,-0L0.383,-0L0.383,-0.221Z" style="fill-rule:nonzero;"/>
                </g>
                <g transform="matrix(40,0,0,40,2131.86,659)">
                    <path d="M0.395,-0.43L0.239,-0.43L0.239,-0L0.159,-0L0.159,-0.43L0.003,-0.43L0.003,-0.5L0.395,-0.5L0.395,-0.43Z" style="fill-rule:nonzero;"/>
                </g>
                <g transform="matrix(40,0,0,40,2147.74,659)">
                    <path d="M0.389,-0.296L0.392,-0.358L0.389,-0.358L0.348,-0.294L0.123,-0L0.077,-0L0.077,-0.5L0.157,-0.5L0.157,-0.195L0.154,-0.136L0.158,-0.136L0.197,-0.198L0.422,-0.5L0.469,-0.5L0.469,-0L0.389,-0L0.389,-0.296Z" style="fill-rule:nonzero;"/>
                </g>
                <g transform="matrix(40,0,0,40,2169.58,659)">
                    <path d="M0.302,0.004C0.291,0.008 0.279,0.01 0.267,0.011C0.254,0.012 0.243,0.012 0.233,0.012C0.172,0.012 0.126,-0.009 0.093,-0.052C0.06,-0.095 0.044,-0.161 0.044,-0.25C0.044,-0.335 0.062,-0.4 0.098,-0.443C0.134,-0.486 0.186,-0.508 0.254,-0.508C0.273,-0.508 0.289,-0.507 0.302,-0.504L0.302,-0.7L0.378,-0.7L0.378,-0.503C0.39,-0.505 0.401,-0.506 0.41,-0.507C0.419,-0.508 0.428,-0.508 0.437,-0.508C0.503,-0.508 0.553,-0.489 0.586,-0.451C0.619,-0.412 0.636,-0.349 0.636,-0.26C0.636,-0.218 0.632,-0.18 0.623,-0.147C0.614,-0.113 0.6,-0.084 0.583,-0.061C0.566,-0.038 0.545,-0.02 0.52,-0.007C0.494,0.006 0.466,0.012 0.433,0.012C0.427,0.012 0.418,0.012 0.407,0.011C0.395,0.01 0.385,0.008 0.378,0.005L0.378,0.2L0.302,0.2L0.302,0.004ZM0.422,-0.442C0.414,-0.442 0.407,-0.442 0.401,-0.442C0.394,-0.441 0.386,-0.44 0.377,-0.437L0.377,-0.057C0.384,-0.056 0.391,-0.055 0.4,-0.055C0.408,-0.054 0.417,-0.054 0.427,-0.054C0.47,-0.054 0.502,-0.072 0.524,-0.107C0.545,-0.142 0.556,-0.193 0.556,-0.26C0.556,-0.317 0.546,-0.361 0.527,-0.394C0.507,-0.426 0.472,-0.442 0.422,-0.442ZM0.253,-0.054C0.261,-0.054 0.269,-0.054 0.277,-0.055C0.285,-0.056 0.294,-0.057 0.303,-0.059L0.303,-0.438C0.295,-0.439 0.288,-0.44 0.281,-0.441C0.274,-0.442 0.265,-0.442 0.255,-0.442C0.214,-0.442 0.182,-0.427 0.159,-0.396C0.135,-0.365 0.124,-0.316 0.124,-0.25C0.124,-0.222 0.127,-0.196 0.132,-0.172C0.137,-0.148 0.144,-0.127 0.155,-0.11C0.166,-0.092 0.179,-0.078 0.196,-0.069C0.212,-0.059 0.231,-0.054 0.253,-0.054Z" style="fill-rule:nonzero;"/>
                </g>
                <g transform="matrix(40,0,0,40,2196.78,659)">
                    <path d="M0.389,-0.296L0.392,-0.358L0.389,-0.358L0.348,-0.294L0.123,-0L0.077,-0L0.077,-0.5L0.157,-0.5L0.157,-0.195L0.154,-0.136L0.158,-0.136L0.197,-0.198L0.422,-0.5L0.469,-0.5L0.469,-0L0.389,-0L0.389,-0.296Z" style="fill-rule:nonzero;"/>
                </g>
                <g transform="matrix(40,0,0,40,2218.62,659)">
                    <path d="M0.203,-0.225L0.157,-0.225L0.157,-0L0.077,-0L0.077,-0.5L0.157,-0.5L0.157,-0.274L0.2,-0.288L0.36,-0.5L0.447,-0.5L0.292,-0.299L0.25,-0.266L0.302,-0.226L0.469,-0L0.37,-0L0.203,-0.225Z" style="fill-rule:nonzero;"/>
                </g>
                <g transform="matrix(40,0,0,40,2237.74,659)">
                    <path d="M0.069,-0.463C0.094,-0.478 0.124,-0.49 0.158,-0.497C0.191,-0.504 0.226,-0.508 0.263,-0.508C0.298,-0.508 0.326,-0.503 0.347,-0.494C0.368,-0.485 0.384,-0.472 0.395,-0.458C0.406,-0.443 0.413,-0.426 0.417,-0.408C0.42,-0.39 0.422,-0.372 0.422,-0.354C0.422,-0.314 0.421,-0.275 0.419,-0.237C0.417,-0.199 0.416,-0.163 0.416,-0.129C0.416,-0.104 0.417,-0.081 0.419,-0.059C0.421,-0.037 0.425,-0.017 0.43,0.002L0.371,0.002L0.35,-0.068L0.345,-0.068C0.339,-0.059 0.332,-0.049 0.323,-0.041C0.314,-0.032 0.303,-0.024 0.29,-0.017C0.277,-0.01 0.263,-0.004 0.246,0.001C0.229,0.006 0.21,0.008 0.189,0.008C0.168,0.008 0.148,0.005 0.13,-0.002C0.111,-0.009 0.095,-0.018 0.082,-0.031C0.069,-0.043 0.058,-0.058 0.051,-0.075C0.043,-0.092 0.039,-0.112 0.039,-0.134C0.039,-0.163 0.045,-0.188 0.057,-0.208C0.069,-0.227 0.086,-0.243 0.108,-0.255C0.129,-0.266 0.155,-0.275 0.186,-0.28C0.216,-0.285 0.249,-0.287 0.286,-0.287L0.314,-0.287C0.323,-0.287 0.332,-0.286 0.341,-0.285C0.343,-0.305 0.344,-0.323 0.344,-0.339C0.344,-0.376 0.337,-0.401 0.322,-0.416C0.307,-0.431 0.281,-0.438 0.242,-0.438C0.231,-0.438 0.219,-0.437 0.206,-0.436C0.193,-0.434 0.179,-0.432 0.166,-0.429C0.152,-0.426 0.139,-0.422 0.127,-0.418C0.114,-0.413 0.103,-0.408 0.094,-0.403L0.069,-0.463ZM0.211,-0.062C0.23,-0.062 0.246,-0.065 0.261,-0.07C0.276,-0.075 0.288,-0.081 0.299,-0.089C0.31,-0.096 0.319,-0.105 0.326,-0.114C0.333,-0.123 0.338,-0.132 0.341,-0.141L0.341,-0.224C0.332,-0.225 0.322,-0.225 0.313,-0.226C0.303,-0.226 0.293,-0.226 0.284,-0.226C0.263,-0.226 0.243,-0.225 0.224,-0.223C0.204,-0.22 0.187,-0.216 0.172,-0.21C0.157,-0.203 0.145,-0.195 0.136,-0.184C0.127,-0.173 0.122,-0.159 0.122,-0.142C0.122,-0.119 0.13,-0.099 0.147,-0.085C0.164,-0.07 0.185,-0.062 0.211,-0.062Z" style="fill-rule:nonzero;"/>
                </g>
                <g transform="matrix(40,0,0,40,2257.58,659)">
                    <path d="M0.395,-0.43L0.239,-0.43L0.239,-0L0.159,-0L0.159,-0.43L0.003,-0.43L0.003,-0.5L0.395,-0.5L0.395,-0.43Z" style="fill-rule:nonzero;"/>
                </g>
                <g transform="matrix(40,0,0,40,2273.46,659)">
                    <path d="M0.049,-0.25C0.049,-0.335 0.068,-0.4 0.106,-0.445C0.143,-0.49 0.197,-0.512 0.268,-0.512C0.305,-0.512 0.338,-0.506 0.366,-0.494C0.393,-0.481 0.416,-0.464 0.434,-0.441C0.452,-0.418 0.465,-0.39 0.474,-0.358C0.483,-0.325 0.487,-0.289 0.487,-0.25C0.487,-0.165 0.468,-0.1 0.431,-0.056C0.393,-0.011 0.339,0.012 0.268,0.012C0.231,0.012 0.198,0.006 0.171,-0.007C0.143,-0.019 0.12,-0.037 0.102,-0.06C0.084,-0.083 0.071,-0.11 0.062,-0.143C0.053,-0.175 0.049,-0.211 0.049,-0.25ZM0.132,-0.25C0.132,-0.225 0.135,-0.2 0.14,-0.177C0.145,-0.154 0.152,-0.133 0.163,-0.116C0.174,-0.099 0.188,-0.085 0.205,-0.074C0.222,-0.063 0.243,-0.058 0.268,-0.058C0.359,-0.057 0.404,-0.121 0.404,-0.25C0.404,-0.276 0.402,-0.301 0.397,-0.324C0.392,-0.347 0.384,-0.368 0.373,-0.385C0.362,-0.402 0.348,-0.416 0.331,-0.427C0.314,-0.437 0.293,-0.442 0.268,-0.442C0.177,-0.443 0.132,-0.379 0.132,-0.25Z" style="fill-rule:nonzero;"/>
                </g>
                <g transform="matrix(40,0,0,40,2294.9,659)">
                    <path d="M0.077,-0.5L0.132,-0.5L0.147,-0.44L0.151,-0.44C0.166,-0.463 0.186,-0.481 0.211,-0.494C0.235,-0.506 0.263,-0.512 0.294,-0.512C0.361,-0.512 0.41,-0.492 0.443,-0.453C0.476,-0.414 0.492,-0.349 0.492,-0.26C0.492,-0.218 0.487,-0.18 0.476,-0.147C0.464,-0.113 0.449,-0.084 0.429,-0.061C0.409,-0.038 0.385,-0.02 0.357,-0.007C0.328,0.006 0.297,0.012 0.262,0.012C0.237,0.012 0.218,0.011 0.204,0.008C0.189,0.005 0.174,-0.001 0.157,-0.008L0.157,0.2L0.077,0.2L0.077,-0.5ZM0.279,-0.442C0.245,-0.442 0.218,-0.433 0.199,-0.416C0.179,-0.398 0.165,-0.371 0.157,-0.335L0.157,-0.087C0.169,-0.078 0.183,-0.07 0.198,-0.066C0.213,-0.061 0.234,-0.058 0.259,-0.058C0.305,-0.058 0.341,-0.075 0.369,-0.11C0.396,-0.144 0.409,-0.194 0.409,-0.261C0.409,-0.288 0.407,-0.313 0.402,-0.336C0.397,-0.358 0.39,-0.377 0.38,-0.393C0.369,-0.408 0.356,-0.42 0.34,-0.429C0.323,-0.438 0.303,-0.442 0.279,-0.442Z" style="fill-rule:nonzero;"/>
                </g>
            </g>
            <g transform="matrix(1,0,0,1,313.732,236.46)">
                <g transform="matrix(40,0,0,40,2033.72,659)">
                    <path d="M0.069,-0.463C0.094,-0.478 0.124,-0.49 0.158,-0.497C0.191,-0.504 0.226,-0.508 0.263,-0.508C0.298,-0.508 0.326,-0.503 0.347,-0.494C0.368,-0.485 0.384,-0.472 0.395,-0.458C0.406,-0.443 0.413,-0.426 0.417,-0.408C0.42,-0.39 0.422,-0.372 0.422,-0.354C0.422,-0.314 0.421,-0.275 0.419,-0.237C0.417,-0.199 0.416,-0.163 0.416,-0.129C0.416,-0.104 0.417,-0.081 0.419,-0.059C0.421,-0.037 0.425,-0.017 0.43,0.002L0.371,0.002L0.35,-0.068L0.345,-0.068C0.339,-0.059 0.332,-0.049 0.323,-0.041C0.314,-0.032 0.303,-0.024 0.29,-0.017C0.277,-0.01 0.263,-0.004 0.246,0.001C0.229,0.006 0.21,0.008 0.189,0.008C0.168,0.008 0.148,0.005 0.13,-0.002C0.111,-0.009 0.095,-0.018 0.082,-0.031C0.069,-0.043 0.058,-0.058 0.051,-0.075C0.043,-0.092 0.039,-0.112 0.039,-0.134C0.039,-0.163 0.045,-0.188 0.057,-0.208C0.069,-0.227 0.086,-0.243 0.108,-0.255C0.129,-0.266 0.155,-0.275 0.186,-0.28C0.216,-0.285 0.249,-0.287 0.286,-0.287L0.314,-0.287C0.323,-0.287 0.332,-0.286 0.341,-0.285C0.343,-0.305 0.344,-0.323 0.344,-0.339C0.344,-0.376 0.337,-0.401 0.322,-0.416C0.307,-0.431 0.281,-0.438 0.242,-0.438C0.231,-0.438 0.219,-0.437 0.206,-0.436C0.193,-0.434 0.179,-0.432 0.166,-0.429C0.152,-0.426 0.139,-0.422 0.127,-0.418C0.114,-0.413 0.103,-0.408 0.094,-0.403L0.069,-0.463ZM0.211,-0.062C0.23,-0.062 0.246,-0.065 0.261,-0.07C0.276,-0.075 0.288,-0.081 0.299,-0.089C0.31,-0.096 0.319,-0.105 0.326,-0.114C0.333,-0.123 0.338,-0.132 0.341,-0.141L0.341,-0.224C0.332,-0.225 0.322,-0.225 0.313,-0.226C0.303,-0.226 0.293,-0.226 0.284,-0.226C0.263,-0.226 0.243,-0.225 0.224,-0.223C0.204,-0.22 0.187,-0.216 0.172,-0.21C0.157,-0.203 0.145,-0.195 0.136,-0.184C0.127,-0.173 0.122,-0.159 0.122,-0.142C0.122,-0.119 0.13,-0.099 0.147,-0.085C0.164,-0.07 0.185,-0.062 0.211,-0.062Z" style="fill-rule:nonzero;"/>
                </g>
                <g transform="matrix(40,0,0,40,2053.56,659)">
                    <path d="M0.395,-0.43L0.239,-0.43L0.239,-0L0.159,-0L0.159,-0.43L0.003,-0.43L0.003,-0.5L0.395,-0.5L0.395,-0.43Z" style="fill-rule:nonzero;"/>
                </g>
                <g transform="matrix(40,0,0,40,2069.44,659)">
                    <path d="M0.077,-0.5L0.132,-0.5L0.147,-0.44L0.151,-0.44C0.166,-0.463 0.186,-0.481 0.211,-0.494C0.235,-0.506 0.263,-0.512 0.294,-0.512C0.361,-0.512 0.41,-0.492 0.443,-0.453C0.476,-0.414 0.492,-0.349 0.492,-0.26C0.492,-0.218 0.487,-0.18 0.476,-0.147C0.464,-0.113 0.449,-0.084 0.429,-0.061C0.409,-0.038 0.385,-0.02 0.357,-0.007C0.328,0.006 0.297,0.012 0.262,0.012C0.237,0.012 0.218,0.011 0.204,0.008C0.189,0.005 0.174,-0.001 0.157,-0.008L0.157,0.2L0.077,0.2L0.077,-0.5ZM0.279,-0.442C0.245,-0.442 0.218,-0.433 0.199,-0.416C0.179,-0.398 0.165,-0.371 0.157,-0.335L0.157,-0.087C0.169,-0.078 0.183,-0.07 0.198,-0.066C0.213,-0.061 0.234,-0.058 0.259,-0.058C0.305,-0.058 0.341,-0.075 0.369,-0.11C0.396,-0.144 0.409,-0.194 0.409,-0.261C0.409,-0.288 0.407,-0.313 0.402,-0.336C0.397,-0.358 0.39,-0.377 0.38,-0.393C0.369,-0.408 0.356,-0.42 0.34,-0.429C0.323,-0.438 0.303,-0.442 0.279,-0.442Z" style="fill-rule:nonzero;"/>
                </g>
                <g transform="matrix(40,0,0,40,2091.08,659)">
                    <path d="M0.389,-0.296L0.392,-0.358L0.389,-0.358L0.348,-0.294L0.123,-0L0.077,-0L0.077,-0.5L0.157,-0.5L0.157,-0.195L0.154,-0.136L0.158,-0.136L0.197,-0.198L0.422,-0.5L0.469,-0.5L0.469,-0L0.389,-0L0.389,-0.296Z" style="fill-rule:nonzero;"/>
                </g>
                <g transform="matrix(40,0,0,40,2112.92,659)">
                    <path d="M0.123,-0.411C0.145,-0.443 0.169,-0.466 0.196,-0.479C0.223,-0.492 0.256,-0.498 0.296,-0.498C0.357,-0.498 0.405,-0.478 0.438,-0.438C0.47,-0.398 0.487,-0.339 0.487,-0.261C0.487,-0.171 0.468,-0.103 0.43,-0.057C0.391,-0.011 0.338,0.012 0.269,0.012C0.196,0.012 0.141,-0.013 0.104,-0.064C0.067,-0.115 0.049,-0.194 0.049,-0.303C0.049,-0.36 0.052,-0.409 0.058,-0.45C0.063,-0.491 0.072,-0.525 0.083,-0.553C0.094,-0.581 0.107,-0.603 0.123,-0.62C0.138,-0.637 0.156,-0.65 0.176,-0.66C0.195,-0.669 0.217,-0.676 0.24,-0.68C0.263,-0.684 0.288,-0.687 0.315,-0.69C0.35,-0.693 0.377,-0.697 0.397,-0.702C0.416,-0.706 0.432,-0.714 0.444,-0.725L0.453,-0.653C0.446,-0.647 0.439,-0.642 0.431,-0.638C0.423,-0.634 0.413,-0.631 0.402,-0.628C0.391,-0.625 0.377,-0.623 0.362,-0.621C0.346,-0.619 0.328,-0.617 0.307,-0.616C0.278,-0.614 0.253,-0.611 0.232,-0.606C0.21,-0.6 0.191,-0.591 0.176,-0.577C0.16,-0.562 0.148,-0.542 0.139,-0.516C0.13,-0.489 0.123,-0.454 0.12,-0.411L0.123,-0.411ZM0.132,-0.249C0.132,-0.224 0.135,-0.199 0.14,-0.176C0.145,-0.153 0.154,-0.132 0.165,-0.115C0.175,-0.097 0.19,-0.083 0.207,-0.073C0.224,-0.063 0.245,-0.058 0.268,-0.058C0.314,-0.058 0.348,-0.075 0.371,-0.108C0.393,-0.14 0.404,-0.189 0.404,-0.254C0.404,-0.279 0.402,-0.303 0.397,-0.324C0.392,-0.345 0.385,-0.364 0.375,-0.38C0.365,-0.395 0.352,-0.407 0.337,-0.416C0.322,-0.424 0.303,-0.428 0.282,-0.428C0.23,-0.429 0.192,-0.413 0.168,-0.383C0.144,-0.352 0.132,-0.307 0.132,-0.249Z" style="fill-rule:nonzero;"/>
                </g>
                <g transform="matrix(40,0,0,40,2134.36,659)">
                    <path d="M0.224,-0.176L0.252,-0.08L0.257,-0.08L0.279,-0.177L0.376,-0.5L0.457,-0.5L0.309,-0.051C0.298,-0.018 0.286,0.013 0.276,0.044C0.265,0.075 0.252,0.102 0.239,0.126C0.226,0.15 0.211,0.169 0.194,0.184C0.177,0.198 0.158,0.205 0.136,0.205C0.112,0.205 0.092,0.202 0.077,0.195L0.091,0.126C0.1,0.129 0.108,0.131 0.116,0.131C0.135,0.131 0.153,0.121 0.17,0.102C0.187,0.082 0.202,0.048 0.213,-0L0.012,-0.5L0.104,-0.5L0.224,-0.176Z" style="fill-rule:nonzero;"/>
                </g>
                <g transform="matrix(40,0,0,40,2153,659)">
                    <path d="M0.395,-0.43L0.239,-0.43L0.239,-0L0.159,-0L0.159,-0.43L0.003,-0.43L0.003,-0.5L0.395,-0.5L0.395,-0.43Z" style="fill-rule:nonzero;"/>
                </g>
                <g transform="matrix(40,0,0,40,2168.88,659)">
                    <path d="M0.157,-0.07C0.182,-0.066 0.205,-0.064 0.228,-0.064C0.27,-0.064 0.299,-0.072 0.316,-0.089C0.333,-0.105 0.341,-0.128 0.341,-0.158C0.341,-0.185 0.333,-0.207 0.317,-0.224C0.3,-0.241 0.272,-0.25 0.231,-0.25C0.22,-0.25 0.207,-0.25 0.194,-0.249C0.181,-0.248 0.168,-0.246 0.157,-0.243L0.157,-0.07ZM0.157,-0.309C0.173,-0.312 0.188,-0.314 0.203,-0.315C0.218,-0.316 0.232,-0.316 0.245,-0.316C0.279,-0.316 0.308,-0.312 0.331,-0.305C0.354,-0.297 0.372,-0.286 0.386,-0.273C0.4,-0.26 0.41,-0.244 0.416,-0.226C0.421,-0.207 0.424,-0.188 0.424,-0.167C0.424,-0.106 0.407,-0.062 0.374,-0.035C0.34,-0.008 0.285,0.006 0.21,0.006C0.167,0.006 0.123,0.004 0.077,-0L0.077,-0.5L0.157,-0.5L0.157,-0.309ZM0.503,-0.5L0.583,-0.5L0.583,-0L0.503,-0L0.503,-0.5Z" style="fill-rule:nonzero;"/>
                </g>
            </g>
            <g transform="matrix(1,0,0,1,678.687,236.46)">
                <g transform="matrix(40,0,0,40,2034.08,659)">
                    <path d="M0.203,-0.225L0.157,-0.225L0.157,-0L0.077,-0L0.077,-0.5L0.157,-0.5L0.157,-0.274L0.2,-0.288L0.36,-0.5L0.447,-0.5L0.292,-0.299L0.25,-0.266L0.302,-0.226L0.469,-0L0.37,-0L0.203,-0.225Z" style="fill-rule:nonzero;"/>
                </g>
                <g transform="matrix(40,0,0,40,2053.2,659)">
                    <path d="M0.049,-0.25C0.049,-0.335 0.068,-0.4 0.106,-0.445C0.143,-0.49 0.197,-0.512 0.268,-0.512C0.305,-0.512 0.338,-0.506 0.366,-0.494C0.393,-0.481 0.416,-0.464 0.434,-0.441C0.452,-0.418 0.465,-0.39 0.474,-0.358C0.483,-0.325 0.487,-0.289 0.487,-0.25C0.487,-0.165 0.468,-0.1 0.431,-0.056C0.393,-0.011 0.339,0.012 0.268,0.012C0.231,0.012 0.198,0.006 0.171,-0.007C0.143,-0.019 0.12,-0.037 0.102,-0.06C0.084,-0.083 0.071,-0.11 0.062,-0.143C0.053,-0.175 0.049,-0.211 0.049,-0.25ZM0.132,-0.25C0.132,-0.225 0.135,-0.2 0.14,-0.177C0.145,-0.154 0.152,-0.133 0.163,-0.116C0.174,-0.099 0.188,-0.085 0.205,-0.074C0.222,-0.063 0.243,-0.058 0.268,-0.058C0.359,-0.057 0.404,-0.121 0.404,-0.25C0.404,-0.276 0.402,-0.301 0.397,-0.324C0.392,-0.347 0.384,-0.368 0.373,-0.385C0.362,-0.402 0.348,-0.416 0.331,-0.427C0.314,-0.437 0.293,-0.442 0.268,-0.442C0.177,-0.443 0.132,-0.379 0.132,-0.25Z" style="fill-rule:nonzero;"/>
                </g>
                <g transform="matrix(40,0,0,40,2074.64,659)">
                    <path d="M0.049,-0.25C0.049,-0.335 0.068,-0.4 0.106,-0.445C0.143,-0.49 0.197,-0.512 0.268,-0.512C0.305,-0.512 0.338,-0.506 0.366,-0.494C0.393,-0.481 0.416,-0.464 0.434,-0.441C0.452,-0.418 0.465,-0.39 0.474,-0.358C0.483,-0.325 0.487,-0.289 0.487,-0.25C0.487,-0.165 0.468,-0.1 0.431,-0.056C0.393,-0.011 0.339,0.012 0.268,0.012C0.231,0.012 0.198,0.006 0.171,-0.007C0.143,-0.019 0.12,-0.037 0.102,-0.06C0.084,-0.083 0.071,-0.11 0.062,-0.143C0.053,-0.175 0.049,-0.211 0.049,-0.25ZM0.132,-0.25C0.132,-0.225 0.135,-0.2 0.14,-0.177C0.145,-0.154 0.152,-0.133 0.163,-0.116C0.174,-0.099 0.188,-0.085 0.205,-0.074C0.222,-0.063 0.243,-0.058 0.268,-0.058C0.359,-0.057 0.404,-0.121 0.404,-0.25C0.404,-0.276 0.402,-0.301 0.397,-0.324C0.392,-0.347 0.384,-0.368 0.373,-0.385C0.362,-0.402 0.348,-0.416 0.331,-0.427C0.314,-0.437 0.293,-0.442 0.268,-0.442C0.177,-0.443 0.132,-0.379 0.132,-0.25Z" style="fill-rule:nonzero;"/>
                </g>
                <g transform="matrix(40,0,0,40,2096.08,659)">
                    <path d="M0.077,-0.5L0.132,-0.5L0.147,-0.44L0.151,-0.44C0.166,-0.463 0.186,-0.481 0.211,-0.494C0.235,-0.506 0.263,-0.512 0.294,-0.512C0.361,-0.512 0.41,-0.492 0.443,-0.453C0.476,-0.414 0.492,-0.349 0.492,-0.26C0.492,-0.218 0.487,-0.18 0.476,-0.147C0.464,-0.113 0.449,-0.084 0.429,-0.061C0.409,-0.038 0.385,-0.02 0.357,-0.007C0.328,0.006 0.297,0.012 0.262,0.012C0.237,0.012 0.218,0.011 0.204,0.008C0.189,0.005 0.174,-0.001 0.157,-0.008L0.157,0.2L0.077,0.2L0.077,-0.5ZM0.279,-0.442C0.245,-0.442 0.218,-0.433 0.199,-0.416C0.179,-0.398 0.165,-0.371 0.157,-0.335L0.157,-0.087C0.169,-0.078 0.183,-0.07 0.198,-0.066C0.213,-0.061 0.234,-0.058 0.259,-0.058C0.305,-0.058 0.341,-0.075 0.369,-0.11C0.396,-0.144 0.409,-0.194 0.409,-0.261C0.409,-0.288 0.407,-0.313 0.402,-0.336C0.397,-0.358 0.39,-0.377 0.38,-0.393C0.369,-0.408 0.356,-0.42 0.34,-0.429C0.323,-0.438 0.303,-0.442 0.279,-0.442Z" style="fill-rule:nonzero;"/>
                </g>
                <g transform="matrix(40,0,0,40,2117.72,659)">
                    <path d="M0.519,0.127L0.465,0.127L0.45,-0L0.074,-0L0.059,0.127L0.005,0.127L0.005,-0.07L0.064,-0.07C0.069,-0.077 0.076,-0.091 0.085,-0.11C0.094,-0.129 0.102,-0.155 0.111,-0.19C0.119,-0.224 0.126,-0.267 0.133,-0.318C0.139,-0.369 0.143,-0.429 0.144,-0.5L0.446,-0.5L0.446,-0.07L0.519,-0.07L0.519,0.127ZM0.366,-0.07L0.366,-0.43L0.216,-0.43C0.215,-0.402 0.212,-0.372 0.209,-0.339C0.206,-0.306 0.201,-0.273 0.196,-0.24C0.19,-0.207 0.183,-0.175 0.174,-0.146C0.165,-0.117 0.155,-0.091 0.144,-0.07L0.366,-0.07Z" style="fill-rule:nonzero;"/>
                </g>
                <g transform="matrix(40,0,0,40,2139.36,659)">
                    <path d="M0.389,-0.296L0.392,-0.358L0.389,-0.358L0.348,-0.294L0.123,-0L0.077,-0L0.077,-0.5L0.157,-0.5L0.157,-0.195L0.154,-0.136L0.158,-0.136L0.197,-0.198L0.422,-0.5L0.469,-0.5L0.469,-0L0.389,-0L0.389,-0.296Z" style="fill-rule:nonzero;"/>
                </g>
                <g transform="matrix(40,0,0,40,2161.2,659)">
                    <path d="M0.383,-0.221L0.157,-0.221L0.157,-0L0.077,-0L0.077,-0.5L0.157,-0.5L0.157,-0.291L0.383,-0.291L0.383,-0.5L0.463,-0.5L0.463,-0L0.383,-0L0.383,-0.221Z" style="fill-rule:nonzero;"/>
                </g>
                <g transform="matrix(40,0,0,40,2182.8,659)">
                    <path d="M0.069,-0.463C0.094,-0.478 0.124,-0.49 0.158,-0.497C0.191,-0.504 0.226,-0.508 0.263,-0.508C0.298,-0.508 0.326,-0.503 0.347,-0.494C0.368,-0.485 0.384,-0.472 0.395,-0.458C0.406,-0.443 0.413,-0.426 0.417,-0.408C0.42,-0.39 0.422,-0.372 0.422,-0.354C0.422,-0.314 0.421,-0.275 0.419,-0.237C0.417,-0.199 0.416,-0.163 0.416,-0.129C0.416,-0.104 0.417,-0.081 0.419,-0.059C0.421,-0.037 0.425,-0.017 0.43,0.002L0.371,0.002L0.35,-0.068L0.345,-0.068C0.339,-0.059 0.332,-0.049 0.323,-0.041C0.314,-0.032 0.303,-0.024 0.29,-0.017C0.277,-0.01 0.263,-0.004 0.246,0.001C0.229,0.006 0.21,0.008 0.189,0.008C0.168,0.008 0.148,0.005 0.13,-0.002C0.111,-0.009 0.095,-0.018 0.082,-0.031C0.069,-0.043 0.058,-0.058 0.051,-0.075C0.043,-0.092 0.039,-0.112 0.039,-0.134C0.039,-0.163 0.045,-0.188 0.057,-0.208C0.069,-0.227 0.086,-0.243 0.108,-0.255C0.129,-0.266 0.155,-0.275 0.186,-0.28C0.216,-0.285 0.249,-0.287 0.286,-0.287L0.314,-0.287C0.323,-0.287 0.332,-0.286 0.341,-0.285C0.343,-0.305 0.344,-0.323 0.344,-0.339C0.344,-0.376 0.337,-0.401 0.322,-0.416C0.307,-0.431 0.281,-0.438 0.242,-0.438C0.231,-0.438 0.219,-0.437 0.206,-0.436C0.193,-0.434 0.179,-0.432 0.166,-0.429C0.152,-0.426 0.139,-0.422 0.127,-0.418C0.114,-0.413 0.103,-0.408 0.094,-0.403L0.069,-0.463ZM0.211,-0.062C0.23,-0.062 0.246,-0.065 0.261,-0.07C0.276,-0.075 0.288,-0.081 0.299,-0.089C0.31,-0.096 0.319,-0.105 0.326,-0.114C0.333,-0.123 0.338,-0.132 0.341,-0.141L0.341,-0.224C0.332,-0.225 0.322,-0.225 0.313,-0.226C0.303,-0.226 0.293,-0.226 0.284,-0.226C0.263,-0.226 0.243,-0.225 0.224,-0.223C0.204,-0.22 0.187,-0.216 0.172,-0.21C0.157,-0.203 0.145,-0.195 0.136,-0.184C0.127,-0.173 0.122,-0.159 0.122,-0.142C0.122,-0.119 0.13,-0.099 0.147,-0.085C0.164,-0.07 0.185,-0.062 0.211,-0.062Z" style="fill-rule:nonzero;"/>
                </g>
                <g transform="matrix(40,0,0,40,2202.64,659)">
                    <path d="M0.395,-0.43L0.239,-0.43L0.239,-0L0.159,-0L0.159,-0.43L0.003,-0.43L0.003,-0.5L0.395,-0.5L0.395,-0.43Z" style="fill-rule:nonzero;"/>
                </g>
                <g transform="matrix(40,0,0,40,2218.52,659)">
                    <path d="M0.157,-0.07C0.182,-0.066 0.205,-0.064 0.228,-0.064C0.27,-0.064 0.299,-0.072 0.316,-0.089C0.333,-0.105 0.341,-0.128 0.341,-0.158C0.341,-0.185 0.333,-0.207 0.317,-0.224C0.3,-0.241 0.272,-0.25 0.231,-0.25C0.22,-0.25 0.207,-0.25 0.194,-0.249C0.181,-0.248 0.168,-0.246 0.157,-0.243L0.157,-0.07ZM0.157,-0.309C0.173,-0.312 0.188,-0.314 0.203,-0.315C0.218,-0.316 0.232,-0.316 0.245,-0.316C0.279,-0.316 0.308,-0.312 0.331,-0.305C0.354,-0.297 0.372,-0.286 0.386,-0.273C0.4,-0.26 0.41,-0.244 0.416,-0.226C0.421,-0.207 0.424,-0.188 0.424,-0.167C0.424,-0.106 0.407,-0.062 0.374,-0.035C0.34,-0.008 0.285,0.006 0.21,0.006C0.167,0.006 0.123,0.004 0.077,-0L0.077,-0.5L0.157,-0.5L0.157,-0.309ZM0.503,-0.5L0.583,-0.5L0.583,-0L0.503,-0L0.503,-0.5Z" style="fill-rule:nonzero;"/>
                </g>
            </g>
            <g transform="matrix(1,0,0,1,728.199,44.8997)">
                <g transform="matrix(40,0,0,40,2058.56,659)">
                    <path d="M0.48,-0C0.48,0.073 0.46,0.126 0.421,0.161C0.382,0.195 0.327,0.212 0.256,0.212C0.208,0.212 0.17,0.209 0.143,0.202C0.115,0.195 0.094,0.188 0.08,0.181L0.107,0.078C0.122,0.084 0.14,0.09 0.161,0.096C0.181,0.102 0.206,0.105 0.236,0.105C0.281,0.105 0.312,0.095 0.329,0.076C0.345,0.056 0.353,0.028 0.353,-0.007L0.353,-0.039L0.349,-0.039C0.326,-0.008 0.284,0.008 0.225,0.008C0.16,0.008 0.112,-0.012 0.081,-0.052C0.049,-0.092 0.033,-0.155 0.033,-0.24C0.033,-0.329 0.054,-0.397 0.097,-0.443C0.14,-0.489 0.202,-0.512 0.283,-0.512C0.326,-0.512 0.364,-0.509 0.398,-0.503C0.431,-0.497 0.459,-0.49 0.48,-0.482L0.48,-0ZM0.26,-0.096C0.285,-0.096 0.305,-0.102 0.319,-0.113C0.332,-0.124 0.343,-0.141 0.35,-0.164L0.35,-0.389C0.329,-0.398 0.304,-0.402 0.273,-0.402C0.24,-0.402 0.214,-0.39 0.195,-0.365C0.176,-0.339 0.167,-0.3 0.167,-0.245C0.167,-0.196 0.175,-0.159 0.191,-0.134C0.207,-0.109 0.23,-0.096 0.26,-0.096Z" style="fill-rule:nonzero;"/>
                </g>
                <g transform="matrix(40,0,0,40,2080,659)">
                    <path d="M0.457,-0.043C0.437,-0.027 0.41,-0.014 0.376,-0.003C0.341,0.009 0.305,0.014 0.266,0.014C0.185,0.014 0.126,-0.01 0.089,-0.057C0.052,-0.103 0.033,-0.168 0.033,-0.25C0.033,-0.338 0.054,-0.404 0.096,-0.448C0.138,-0.492 0.197,-0.514 0.273,-0.514C0.298,-0.514 0.323,-0.511 0.347,-0.504C0.371,-0.497 0.392,-0.486 0.411,-0.471C0.43,-0.456 0.445,-0.435 0.456,-0.409C0.467,-0.383 0.473,-0.351 0.473,-0.312C0.473,-0.298 0.472,-0.283 0.471,-0.267C0.469,-0.251 0.466,-0.234 0.463,-0.217L0.163,-0.217C0.165,-0.175 0.176,-0.143 0.196,-0.122C0.215,-0.101 0.247,-0.09 0.291,-0.09C0.318,-0.09 0.343,-0.094 0.365,-0.103C0.386,-0.111 0.403,-0.119 0.414,-0.128L0.457,-0.043ZM0.271,-0.41C0.237,-0.41 0.212,-0.4 0.196,-0.38C0.179,-0.359 0.169,-0.332 0.166,-0.298L0.352,-0.298C0.355,-0.334 0.349,-0.362 0.336,-0.381C0.322,-0.4 0.3,-0.41 0.271,-0.41Z" style="fill-rule:nonzero;"/>
                </g>
                <g transform="matrix(40,0,0,40,2100.32,659)">
                    <path d="M0.033,-0.25C0.033,-0.335 0.054,-0.4 0.095,-0.446C0.136,-0.491 0.194,-0.514 0.269,-0.514C0.309,-0.514 0.344,-0.508 0.373,-0.495C0.402,-0.482 0.427,-0.464 0.446,-0.442C0.465,-0.419 0.48,-0.391 0.49,-0.358C0.499,-0.325 0.504,-0.289 0.504,-0.25C0.504,-0.165 0.484,-0.1 0.443,-0.055C0.401,-0.009 0.344,0.014 0.269,0.014C0.229,0.014 0.194,0.008 0.165,-0.005C0.136,-0.018 0.111,-0.036 0.092,-0.059C0.072,-0.082 0.057,-0.109 0.048,-0.142C0.038,-0.175 0.033,-0.211 0.033,-0.25ZM0.167,-0.25C0.167,-0.228 0.169,-0.208 0.173,-0.189C0.177,-0.17 0.183,-0.154 0.191,-0.14C0.199,-0.126 0.21,-0.115 0.223,-0.108C0.236,-0.1 0.251,-0.096 0.269,-0.096C0.303,-0.096 0.328,-0.108 0.345,-0.133C0.362,-0.158 0.37,-0.197 0.37,-0.25C0.37,-0.296 0.362,-0.333 0.347,-0.362C0.332,-0.39 0.306,-0.404 0.269,-0.404C0.237,-0.404 0.212,-0.392 0.194,-0.368C0.176,-0.344 0.167,-0.305 0.167,-0.25Z" style="fill-rule:nonzero;"/>
                </g>
                <g transform="matrix(40,0,0,40,2121.8,659)">
                    <path d="M0.341,-0L0.341,-0.272C0.341,-0.318 0.337,-0.351 0.328,-0.37C0.319,-0.389 0.301,-0.399 0.274,-0.399C0.251,-0.399 0.233,-0.393 0.219,-0.381C0.205,-0.368 0.194,-0.352 0.187,-0.333L0.187,-0L0.057,-0L0.057,-0.5L0.158,-0.5L0.173,-0.434L0.177,-0.434C0.192,-0.455 0.212,-0.474 0.236,-0.49C0.259,-0.506 0.29,-0.514 0.327,-0.514C0.359,-0.514 0.385,-0.507 0.406,-0.495C0.426,-0.482 0.442,-0.46 0.453,-0.429C0.468,-0.455 0.488,-0.476 0.512,-0.491C0.536,-0.506 0.565,-0.514 0.599,-0.514C0.627,-0.514 0.651,-0.511 0.671,-0.504C0.69,-0.497 0.706,-0.486 0.719,-0.47C0.731,-0.453 0.74,-0.431 0.746,-0.404C0.752,-0.377 0.755,-0.342 0.755,-0.3L0.755,-0L0.625,-0L0.625,-0.281C0.625,-0.32 0.621,-0.35 0.613,-0.37C0.604,-0.389 0.586,-0.399 0.557,-0.399C0.534,-0.399 0.515,-0.393 0.502,-0.38C0.488,-0.367 0.478,-0.35 0.471,-0.328L0.471,-0L0.341,-0Z" style="fill-rule:nonzero;"/>
                </g>
                <g transform="matrix(40,0,0,40,2154,659)">
                    <path d="M0.457,-0.043C0.437,-0.027 0.41,-0.014 0.376,-0.003C0.341,0.009 0.305,0.014 0.266,0.014C0.185,0.014 0.126,-0.01 0.089,-0.057C0.052,-0.103 0.033,-0.168 0.033,-0.25C0.033,-0.338 0.054,-0.404 0.096,-0.448C0.138,-0.492 0.197,-0.514 0.273,-0.514C0.298,-0.514 0.323,-0.511 0.347,-0.504C0.371,-0.497 0.392,-0.486 0.411,-0.471C0.43,-0.456 0.445,-0.435 0.456,-0.409C0.467,-0.383 0.473,-0.351 0.473,-0.312C0.473,-0.298 0.472,-0.283 0.471,-0.267C0.469,-0.251 0.466,-0.234 0.463,-0.217L0.163,-0.217C0.165,-0.175 0.176,-0.143 0.196,-0.122C0.215,-0.101 0.247,-0.09 0.291,-0.09C0.318,-0.09 0.343,-0.094 0.365,-0.103C0.386,-0.111 0.403,-0.119 0.414,-0.128L0.457,-0.043ZM0.271,-0.41C0.237,-0.41 0.212,-0.4 0.196,-0.38C0.179,-0.359 0.169,-0.332 0.166,-0.298L0.352,-0.298C0.355,-0.334 0.349,-0.362 0.336,-0.381C0.322,-0.4 0.3,-0.41 0.271,-0.41Z" style="fill-rule:nonzero;"/>
                </g>
                <g transform="matrix(40,0,0,40,2174.32,659)">
                    <path d="M0.005,-0.5L0.074,-0.5L0.074,-0.594L0.204,-0.631L0.204,-0.5L0.326,-0.5L0.326,-0.39L0.204,-0.39L0.204,-0.198C0.204,-0.163 0.208,-0.138 0.215,-0.124C0.222,-0.109 0.235,-0.101 0.254,-0.101C0.267,-0.101 0.279,-0.102 0.289,-0.105C0.298,-0.108 0.309,-0.112 0.321,-0.117L0.344,-0.017C0.326,-0.008 0.305,-0.001 0.281,0.005C0.257,0.011 0.233,0.014 0.208,0.014C0.162,0.014 0.128,0.002 0.107,-0.022C0.085,-0.045 0.074,-0.084 0.074,-0.138L0.074,-0.39L0.005,-0.39L0.005,-0.5Z" style="fill-rule:nonzero;"/>
                </g>
                <g transform="matrix(40,0,0,40,2188.28,659)">
                    <path d="M0.333,-0.378C0.312,-0.385 0.294,-0.389 0.277,-0.389C0.254,-0.389 0.234,-0.383 0.219,-0.371C0.203,-0.358 0.192,-0.342 0.187,-0.323L0.187,-0L0.057,-0L0.057,-0.5L0.158,-0.5L0.173,-0.434L0.177,-0.434C0.188,-0.459 0.204,-0.478 0.223,-0.491C0.242,-0.504 0.265,-0.511 0.291,-0.511C0.308,-0.511 0.328,-0.507 0.35,-0.5L0.333,-0.378Z" style="fill-rule:nonzero;"/>
                </g>
                <g transform="matrix(40,0,0,40,2202.32,659)">
                    <path d="M0.239,-0.219L0.257,-0.141L0.263,-0.141L0.276,-0.22L0.352,-0.5L0.486,-0.5L0.334,-0.049C0.321,-0.012 0.309,0.023 0.298,0.054C0.286,0.085 0.273,0.111 0.259,0.134C0.245,0.157 0.23,0.174 0.213,0.187C0.196,0.199 0.175,0.205 0.152,0.205C0.117,0.205 0.09,0.199 0.069,0.188L0.093,0.084C0.103,0.088 0.113,0.09 0.123,0.09C0.138,0.09 0.153,0.084 0.168,0.071C0.182,0.058 0.193,0.034 0.2,-0L-0.009,-0.5L0.147,-0.5L0.239,-0.219Z" style="fill-rule:nonzero;"/>
                </g>
            </g>
            <g transform="matrix(1,0,0,1,-83,44.8997)">
                <g transform="matrix(40,0,0,40,2058.92,659)">
                    <path d="M0.363,-0L0.363,-0.284C0.363,-0.325 0.357,-0.354 0.346,-0.372C0.334,-0.39 0.314,-0.399 0.286,-0.399C0.261,-0.399 0.241,-0.392 0.224,-0.378C0.207,-0.363 0.194,-0.345 0.187,-0.324L0.187,-0L0.057,-0L0.057,-0.5L0.16,-0.5L0.175,-0.434L0.179,-0.434C0.194,-0.455 0.215,-0.474 0.24,-0.49C0.265,-0.506 0.298,-0.514 0.338,-0.514C0.363,-0.514 0.385,-0.511 0.404,-0.504C0.423,-0.497 0.44,-0.486 0.453,-0.471C0.466,-0.456 0.476,-0.435 0.483,-0.409C0.49,-0.382 0.493,-0.35 0.493,-0.311L0.493,-0L0.363,-0Z" style="fill-rule:nonzero;"/>
                </g>
                <g transform="matrix(40,0,0,40,2080.72,659)">
                    <path d="M0.054,-0.471C0.081,-0.483 0.112,-0.493 0.149,-0.5C0.186,-0.507 0.224,-0.51 0.264,-0.51C0.299,-0.51 0.328,-0.506 0.351,-0.498C0.374,-0.489 0.393,-0.477 0.407,-0.462C0.42,-0.447 0.43,-0.428 0.436,-0.407C0.441,-0.386 0.444,-0.362 0.444,-0.335C0.444,-0.306 0.443,-0.276 0.441,-0.247C0.439,-0.217 0.438,-0.188 0.438,-0.159C0.437,-0.13 0.438,-0.102 0.44,-0.076C0.442,-0.049 0.447,-0.023 0.455,0.001L0.349,0.001L0.328,-0.068L0.323,-0.068C0.31,-0.047 0.291,-0.029 0.268,-0.015C0.244,0 0.213,0.008 0.176,0.008C0.153,0.008 0.132,0.005 0.113,-0.003C0.094,-0.01 0.078,-0.02 0.065,-0.033C0.052,-0.046 0.041,-0.061 0.034,-0.079C0.027,-0.096 0.023,-0.116 0.023,-0.138C0.023,-0.169 0.03,-0.195 0.044,-0.216C0.057,-0.237 0.077,-0.254 0.103,-0.267C0.128,-0.28 0.159,-0.289 0.195,-0.294C0.23,-0.299 0.27,-0.3 0.314,-0.298C0.319,-0.335 0.316,-0.362 0.306,-0.379C0.296,-0.395 0.274,-0.403 0.239,-0.403C0.213,-0.403 0.186,-0.4 0.157,-0.395C0.128,-0.39 0.104,-0.383 0.085,-0.374L0.054,-0.471ZM0.219,-0.099C0.245,-0.099 0.266,-0.105 0.281,-0.117C0.296,-0.128 0.308,-0.141 0.315,-0.154L0.315,-0.219C0.294,-0.221 0.275,-0.221 0.256,-0.22C0.237,-0.219 0.22,-0.216 0.205,-0.211C0.19,-0.206 0.179,-0.2 0.17,-0.191C0.161,-0.182 0.157,-0.171 0.157,-0.158C0.157,-0.139 0.163,-0.125 0.174,-0.115C0.185,-0.104 0.2,-0.099 0.219,-0.099Z" style="fill-rule:nonzero;"/>
                </g>
                <g transform="matrix(40,0,0,40,2100.56,659)">
                    <path d="M0.341,-0L0.341,-0.272C0.341,-0.318 0.337,-0.351 0.328,-0.37C0.319,-0.389 0.301,-0.399 0.274,-0.399C0.251,-0.399 0.233,-0.393 0.219,-0.381C0.205,-0.368 0.194,-0.352 0.187,-0.333L0.187,-0L0.057,-0L0.057,-0.5L0.158,-0.5L0.173,-0.434L0.177,-0.434C0.192,-0.455 0.212,-0.474 0.236,-0.49C0.259,-0.506 0.29,-0.514 0.327,-0.514C0.359,-0.514 0.385,-0.507 0.406,-0.495C0.426,-0.482 0.442,-0.46 0.453,-0.429C0.468,-0.455 0.488,-0.476 0.512,-0.491C0.536,-0.506 0.565,-0.514 0.599,-0.514C0.627,-0.514 0.651,-0.511 0.671,-0.504C0.69,-0.497 0.706,-0.486 0.719,-0.47C0.731,-0.453 0.74,-0.431 0.746,-0.404C0.752,-0.377 0.755,-0.342 0.755,-0.3L0.755,-0L0.625,-0L0.625,-0.281C0.625,-0.32 0.621,-0.35 0.613,-0.37C0.604,-0.389 0.586,-0.399 0.557,-0.399C0.534,-0.399 0.515,-0.393 0.502,-0.38C0.488,-0.367 0.478,-0.35 0.471,-0.328L0.471,-0L0.341,-0Z" style="fill-rule:nonzero;"/>
                </g>
                <g transform="matrix(40,0,0,40,2132.76,659)">
                    <path d="M0.457,-0.043C0.437,-0.027 0.41,-0.014 0.376,-0.003C0.341,0.009 0.305,0.014 0.266,0.014C0.185,0.014 0.126,-0.01 0.089,-0.057C0.052,-0.103 0.033,-0.168 0.033,-0.25C0.033,-0.338 0.054,-0.404 0.096,-0.448C0.138,-0.492 0.197,-0.514 0.273,-0.514C0.298,-0.514 0.323,-0.511 0.347,-0.504C0.371,-0.497 0.392,-0.486 0.411,-0.471C0.43,-0.456 0.445,-0.435 0.456,-0.409C0.467,-0.383 0.473,-0.351 0.473,-0.312C0.473,-0.298 0.472,-0.283 0.471,-0.267C0.469,-0.251 0.466,-0.234 0.463,-0.217L0.163,-0.217C0.165,-0.175 0.176,-0.143 0.196,-0.122C0.215,-0.101 0.247,-0.09 0.291,-0.09C0.318,-0.09 0.343,-0.094 0.365,-0.103C0.386,-0.111 0.403,-0.119 0.414,-0.128L0.457,-0.043ZM0.271,-0.41C0.237,-0.41 0.212,-0.4 0.196,-0.38C0.179,-0.359 0.169,-0.332 0.166,-0.298L0.352,-0.298C0.355,-0.334 0.349,-0.362 0.336,-0.381C0.322,-0.4 0.3,-0.41 0.271,-0.41Z" style="fill-rule:nonzero;"/>
                </g>
            </g>
            <g transform="matrix(1,0,0,1,103,44.8997)">
                <g transform="matrix(40,0,0,40,2069.34,659)">
                    <path d="M0.239,-0.219L0.257,-0.141L0.263,-0.141L0.276,-0.22L0.352,-0.5L0.486,-0.5L0.334,-0.049C0.321,-0.012 0.309,0.023 0.298,0.054C0.286,0.085 0.273,0.111 0.259,0.134C0.245,0.157 0.23,0.174 0.213,0.187C0.196,0.199 0.175,0.205 0.152,0.205C0.117,0.205 0.09,0.199 0.069,0.188L0.093,0.084C0.103,0.088 0.113,0.09 0.123,0.09C0.138,0.09 0.153,0.084 0.168,0.071C0.182,0.058 0.193,0.034 0.2,-0L-0.009,-0.5L0.147,-0.5L0.239,-0.219Z" style="fill-rule:nonzero;"/>
                </g>
                <g transform="matrix(40,0,0,40,2088.46,659)">
                    <path d="M0.457,-0.043C0.437,-0.027 0.41,-0.014 0.376,-0.003C0.341,0.009 0.305,0.014 0.266,0.014C0.185,0.014 0.126,-0.01 0.089,-0.057C0.052,-0.103 0.033,-0.168 0.033,-0.25C0.033,-0.338 0.054,-0.404 0.096,-0.448C0.138,-0.492 0.197,-0.514 0.273,-0.514C0.298,-0.514 0.323,-0.511 0.347,-0.504C0.371,-0.497 0.392,-0.486 0.411,-0.471C0.43,-0.456 0.445,-0.435 0.456,-0.409C0.467,-0.383 0.473,-0.351 0.473,-0.312C0.473,-0.298 0.472,-0.283 0.471,-0.267C0.469,-0.251 0.466,-0.234 0.463,-0.217L0.163,-0.217C0.165,-0.175 0.176,-0.143 0.196,-0.122C0.215,-0.101 0.247,-0.09 0.291,-0.09C0.318,-0.09 0.343,-0.094 0.365,-0.103C0.386,-0.111 0.403,-0.119 0.414,-0.128L0.457,-0.043ZM0.271,-0.41C0.237,-0.41 0.212,-0.4 0.196,-0.38C0.179,-0.359 0.169,-0.332 0.166,-0.298L0.352,-0.298C0.355,-0.334 0.349,-0.362 0.336,-0.381C0.322,-0.4 0.3,-0.41 0.271,-0.41Z" style="fill-rule:nonzero;"/>
                </g>
                <g transform="matrix(40,0,0,40,2108.78,659)">
                    <path d="M0.054,-0.471C0.081,-0.483 0.112,-0.493 0.149,-0.5C0.186,-0.507 0.224,-0.51 0.264,-0.51C0.299,-0.51 0.328,-0.506 0.351,-0.498C0.374,-0.489 0.393,-0.477 0.407,-0.462C0.42,-0.447 0.43,-0.428 0.436,-0.407C0.441,-0.386 0.444,-0.362 0.444,-0.335C0.444,-0.306 0.443,-0.276 0.441,-0.247C0.439,-0.217 0.438,-0.188 0.438,-0.159C0.437,-0.13 0.438,-0.102 0.44,-0.076C0.442,-0.049 0.447,-0.023 0.455,0.001L0.349,0.001L0.328,-0.068L0.323,-0.068C0.31,-0.047 0.291,-0.029 0.268,-0.015C0.244,0 0.213,0.008 0.176,0.008C0.153,0.008 0.132,0.005 0.113,-0.003C0.094,-0.01 0.078,-0.02 0.065,-0.033C0.052,-0.046 0.041,-0.061 0.034,-0.079C0.027,-0.096 0.023,-0.116 0.023,-0.138C0.023,-0.169 0.03,-0.195 0.044,-0.216C0.057,-0.237 0.077,-0.254 0.103,-0.267C0.128,-0.28 0.159,-0.289 0.195,-0.294C0.23,-0.299 0.27,-0.3 0.314,-0.298C0.319,-0.335 0.316,-0.362 0.306,-0.379C0.296,-0.395 0.274,-0.403 0.239,-0.403C0.213,-0.403 0.186,-0.4 0.157,-0.395C0.128,-0.39 0.104,-0.383 0.085,-0.374L0.054,-0.471ZM0.219,-0.099C0.245,-0.099 0.266,-0.105 0.281,-0.117C0.296,-0.128 0.308,-0.141 0.315,-0.154L0.315,-0.219C0.294,-0.221 0.275,-0.221 0.256,-0.22C0.237,-0.219 0.22,-0.216 0.205,-0.211C0.19,-0.206 0.179,-0.2 0.17,-0.191C0.161,-0.182 0.157,-0.171 0.157,-0.158C0.157,-0.139 0.163,-0.125 0.174,-0.115C0.185,-0.104 0.2,-0.099 0.219,-0.099Z" style="fill-rule:nonzero;"/>
                </g>
                <g transform="matrix(40,0,0,40,2128.62,659)">
                    <path d="M0.333,-0.378C0.312,-0.385 0.294,-0.389 0.277,-0.389C0.254,-0.389 0.234,-0.383 0.219,-0.371C0.203,-0.358 0.192,-0.342 0.187,-0.323L0.187,-0L0.057,-0L0.057,-0.5L0.158,-0.5L0.173,-0.434L0.177,-0.434C0.188,-0.459 0.204,-0.478 0.223,-0.491C0.242,-0.504 0.265,-0.511 0.291,-0.511C0.308,-0.511 0.328,-0.507 0.35,-0.5L0.333,-0.378Z" style="fill-rule:nonzero;"/>
                </g>
            </g>
            <g transform="matrix(1,0,0,1,434.791,44.8997)">
                <g transform="matrix(40,0,0,40,2066.64,659)">
                    <path d="M0.005,-0.5L0.074,-0.5L0.074,-0.594L0.204,-0.631L0.204,-0.5L0.326,-0.5L0.326,-0.39L0.204,-0.39L0.204,-0.198C0.204,-0.163 0.208,-0.138 0.215,-0.124C0.222,-0.109 0.235,-0.101 0.254,-0.101C0.267,-0.101 0.279,-0.102 0.289,-0.105C0.298,-0.108 0.309,-0.112 0.321,-0.117L0.344,-0.017C0.326,-0.008 0.305,-0.001 0.281,0.005C0.257,0.011 0.233,0.014 0.208,0.014C0.162,0.014 0.128,0.002 0.107,-0.022C0.085,-0.045 0.074,-0.084 0.074,-0.138L0.074,-0.39L0.005,-0.39L0.005,-0.5Z" style="fill-rule:nonzero;"/>
                </g>
                <g transform="matrix(40,0,0,40,2080.6,659)">
                    <path d="M0.341,-0L0.341,-0.272C0.341,-0.318 0.337,-0.351 0.328,-0.37C0.319,-0.389 0.301,-0.399 0.274,-0.399C0.251,-0.399 0.233,-0.393 0.219,-0.381C0.205,-0.368 0.194,-0.352 0.187,-0.333L0.187,-0L0.057,-0L0.057,-0.5L0.158,-0.5L0.173,-0.434L0.177,-0.434C0.192,-0.455 0.212,-0.474 0.236,-0.49C0.259,-0.506 0.29,-0.514 0.327,-0.514C0.359,-0.514 0.385,-0.507 0.406,-0.495C0.426,-0.482 0.442,-0.46 0.453,-0.429C0.468,-0.455 0.488,-0.476 0.512,-0.491C0.536,-0.506 0.565,-0.514 0.599,-0.514C0.627,-0.514 0.651,-0.511 0.671,-0.504C0.69,-0.497 0.706,-0.486 0.719,-0.47C0.731,-0.453 0.74,-0.431 0.746,-0.404C0.752,-0.377 0.755,-0.342 0.755,-0.3L0.755,-0L0.625,-0L0.625,-0.281C0.625,-0.32 0.621,-0.35 0.613,-0.37C0.604,-0.389 0.586,-0.399 0.557,-0.399C0.534,-0.399 0.515,-0.393 0.502,-0.38C0.488,-0.367 0.478,-0.35 0.471,-0.328L0.471,-0L0.341,-0Z" style="fill-rule:nonzero;"/>
                </g>
                <g transform="matrix(40,0,0,40,2112.8,659)">
                    <path d="M0.069,-0.5L0.199,-0.5L0.199,-0L0.069,-0L0.069,-0.5ZM0.05,-0.641C0.05,-0.66 0.057,-0.677 0.072,-0.691C0.086,-0.704 0.106,-0.711 0.131,-0.711C0.156,-0.711 0.177,-0.704 0.193,-0.691C0.208,-0.677 0.216,-0.66 0.216,-0.641C0.216,-0.622 0.208,-0.606 0.193,-0.593C0.177,-0.58 0.156,-0.573 0.131,-0.573C0.106,-0.573 0.086,-0.58 0.072,-0.593C0.057,-0.606 0.05,-0.622 0.05,-0.641Z" style="fill-rule:nonzero;"/>
                </g>
                <g transform="matrix(40,0,0,40,2123.56,659)">
                    <path d="M0.363,-0L0.363,-0.284C0.363,-0.325 0.357,-0.354 0.346,-0.372C0.334,-0.39 0.314,-0.399 0.286,-0.399C0.261,-0.399 0.241,-0.392 0.224,-0.378C0.207,-0.363 0.194,-0.345 0.187,-0.324L0.187,-0L0.057,-0L0.057,-0.5L0.16,-0.5L0.175,-0.434L0.179,-0.434C0.194,-0.455 0.215,-0.474 0.24,-0.49C0.265,-0.506 0.298,-0.514 0.338,-0.514C0.363,-0.514 0.385,-0.511 0.404,-0.504C0.423,-0.497 0.44,-0.486 0.453,-0.471C0.466,-0.456 0.476,-0.435 0.483,-0.409C0.49,-0.382 0.493,-0.35 0.493,-0.311L0.493,-0L0.363,-0Z" style="fill-rule:nonzero;"/>
                </g>
            </g>
            <g transform="matrix(1,0,0,1,632.699,119.5)">
                <g transform="matrix(40,0,0,40,2034,659)">
                    <path d="M0.1,-0.693C0.125,-0.699 0.153,-0.703 0.182,-0.705C0.211,-0.707 0.24,-0.708 0.269,-0.708C0.3,-0.708 0.331,-0.705 0.363,-0.699C0.394,-0.693 0.423,-0.682 0.449,-0.666C0.475,-0.65 0.496,-0.628 0.513,-0.6C0.529,-0.572 0.537,-0.536 0.537,-0.493C0.537,-0.45 0.529,-0.414 0.514,-0.385C0.499,-0.356 0.478,-0.332 0.453,-0.314C0.428,-0.295 0.399,-0.282 0.366,-0.274C0.333,-0.266 0.3,-0.262 0.265,-0.262L0.249,-0.262C0.241,-0.262 0.233,-0.262 0.225,-0.263C0.216,-0.263 0.208,-0.263 0.2,-0.264C0.192,-0.265 0.186,-0.265 0.183,-0.266L0.183,-0L0.1,-0L0.1,-0.693ZM0.271,-0.636C0.254,-0.636 0.237,-0.636 0.221,-0.635C0.205,-0.634 0.192,-0.633 0.183,-0.63L0.183,-0.34C0.186,-0.339 0.192,-0.338 0.199,-0.338C0.206,-0.337 0.214,-0.337 0.222,-0.337C0.23,-0.336 0.238,-0.336 0.245,-0.336L0.261,-0.336C0.284,-0.336 0.306,-0.338 0.329,-0.343C0.351,-0.347 0.371,-0.355 0.389,-0.366C0.407,-0.377 0.422,-0.393 0.433,-0.414C0.444,-0.435 0.449,-0.461 0.449,-0.493C0.449,-0.52 0.444,-0.543 0.434,-0.562C0.423,-0.58 0.409,-0.595 0.393,-0.606C0.376,-0.616 0.356,-0.624 0.335,-0.629C0.314,-0.634 0.292,-0.636 0.271,-0.636Z" style="fill-rule:nonzero;"/>
                </g>
                <g transform="matrix(40,0,0,40,2058,659)">
                    <path d="M0.048,-0.35C0.048,-0.466 0.069,-0.555 0.11,-0.618C0.151,-0.681 0.214,-0.712 0.299,-0.712C0.346,-0.712 0.385,-0.703 0.418,-0.686C0.45,-0.669 0.476,-0.644 0.496,-0.613C0.516,-0.581 0.53,-0.543 0.539,-0.499C0.548,-0.454 0.552,-0.405 0.552,-0.35C0.552,-0.234 0.532,-0.145 0.491,-0.082C0.45,-0.019 0.386,0.012 0.299,0.012C0.253,0.012 0.214,0.003 0.182,-0.014C0.15,-0.031 0.124,-0.056 0.104,-0.088C0.084,-0.119 0.07,-0.157 0.061,-0.202C0.052,-0.246 0.048,-0.295 0.048,-0.35ZM0.136,-0.35C0.136,-0.311 0.139,-0.275 0.144,-0.24C0.149,-0.205 0.157,-0.175 0.17,-0.149C0.183,-0.122 0.199,-0.101 0.22,-0.086C0.241,-0.07 0.267,-0.062 0.299,-0.062C0.356,-0.062 0.398,-0.085 0.425,-0.132C0.451,-0.179 0.464,-0.251 0.464,-0.35C0.464,-0.388 0.462,-0.425 0.457,-0.46C0.452,-0.495 0.443,-0.525 0.43,-0.552C0.417,-0.578 0.4,-0.599 0.379,-0.615C0.358,-0.63 0.331,-0.638 0.299,-0.638C0.242,-0.638 0.201,-0.615 0.175,-0.568C0.149,-0.521 0.136,-0.448 0.136,-0.35Z" style="fill-rule:nonzero;"/>
                </g>
                <g transform="matrix(40,0,0,40,2082,659)">
                    <path d="M0.06,-0.7L0.54,-0.7L0.54,-0.626L0.341,-0.626L0.341,-0.074L0.54,-0.074L0.54,-0L0.06,-0L0.06,-0.074L0.258,-0.074L0.258,-0.626L0.06,-0.626L0.06,-0.7Z" style="fill-rule:nonzero;"/>
                </g>
                <g transform="matrix(40,0,0,40,2106,659)">
                    <path d="M0.196,-0.438L0.142,-0.539L0.138,-0.539L0.148,-0.438L0.148,-0L0.07,-0L0.07,-0.7L0.124,-0.7L0.406,-0.264L0.458,-0.168L0.463,-0.168L0.452,-0.264L0.452,-0.7L0.53,-0.7L0.53,-0L0.476,-0L0.196,-0.438Z" style="fill-rule:nonzero;"/>
                </g>
                <g transform="matrix(40,0,0,40,2130,659)">
                    <path d="M0.04,-0.7L0.56,-0.7L0.56,-0.517L0.486,-0.517L0.486,-0.626L0.341,-0.626L0.341,-0.074L0.451,-0.074L0.451,-0L0.148,-0L0.148,-0.074L0.258,-0.074L0.258,-0.626L0.114,-0.626L0.114,-0.517L0.04,-0.517L0.04,-0.7Z" style="fill-rule:nonzero;"/>
                </g>
                <g transform="matrix(40,0,0,40,2154,659)">
                    <path d="M0.432,0.212C0.387,0.201 0.345,0.184 0.307,0.162C0.268,0.139 0.234,0.11 0.205,0.074C0.175,0.038 0.153,-0.006 0.136,-0.058C0.119,-0.11 0.11,-0.172 0.11,-0.243C0.11,-0.314 0.119,-0.376 0.136,-0.429C0.153,-0.482 0.177,-0.527 0.206,-0.564C0.235,-0.6 0.27,-0.63 0.309,-0.653C0.347,-0.675 0.389,-0.691 0.432,-0.7L0.457,-0.637C0.418,-0.626 0.382,-0.611 0.349,-0.593C0.316,-0.574 0.288,-0.55 0.265,-0.52C0.241,-0.489 0.223,-0.452 0.21,-0.407C0.197,-0.362 0.19,-0.307 0.19,-0.243C0.19,-0.178 0.198,-0.123 0.214,-0.078C0.229,-0.032 0.25,0.006 0.276,0.037C0.301,0.067 0.33,0.091 0.362,0.108C0.393,0.125 0.425,0.136 0.457,0.143L0.432,0.212Z" style="fill-rule:nonzero;"/>
                </g>
                <g transform="matrix(40,0,0,40,2178,659)">
                    <path d="M0.075,-0.17C0.075,-0.251 0.124,-0.316 0.222,-0.365C0.203,-0.375 0.186,-0.385 0.17,-0.396C0.154,-0.407 0.14,-0.419 0.129,-0.432C0.117,-0.445 0.108,-0.461 0.101,-0.478C0.094,-0.495 0.091,-0.515 0.091,-0.538C0.091,-0.563 0.096,-0.586 0.106,-0.607C0.116,-0.628 0.13,-0.647 0.149,-0.662C0.168,-0.677 0.19,-0.69 0.217,-0.699C0.244,-0.708 0.273,-0.712 0.306,-0.712C0.337,-0.712 0.365,-0.708 0.39,-0.7C0.415,-0.692 0.436,-0.681 0.454,-0.667C0.471,-0.652 0.485,-0.635 0.494,-0.616C0.503,-0.597 0.508,-0.576 0.508,-0.554C0.508,-0.516 0.499,-0.481 0.48,-0.45C0.46,-0.418 0.43,-0.389 0.388,-0.363C0.407,-0.353 0.425,-0.342 0.442,-0.331C0.459,-0.32 0.473,-0.307 0.486,-0.293C0.498,-0.279 0.507,-0.263 0.515,-0.246C0.522,-0.228 0.525,-0.208 0.525,-0.185C0.525,-0.157 0.52,-0.131 0.51,-0.107C0.5,-0.082 0.485,-0.061 0.466,-0.044C0.446,-0.027 0.422,-0.013 0.393,-0.003C0.364,0.007 0.331,0.012 0.293,0.012C0.258,0.012 0.226,0.007 0.199,-0.003C0.172,-0.013 0.149,-0.026 0.131,-0.043C0.112,-0.06 0.098,-0.079 0.089,-0.101C0.08,-0.123 0.075,-0.146 0.075,-0.17ZM0.446,-0.18C0.446,-0.199 0.442,-0.217 0.433,-0.232C0.424,-0.247 0.411,-0.26 0.397,-0.272C0.382,-0.284 0.364,-0.295 0.345,-0.305C0.326,-0.315 0.306,-0.325 0.285,-0.335C0.237,-0.312 0.203,-0.286 0.183,-0.258C0.162,-0.23 0.152,-0.204 0.152,-0.179C0.152,-0.162 0.155,-0.147 0.162,-0.132C0.168,-0.117 0.177,-0.103 0.19,-0.092C0.202,-0.081 0.217,-0.072 0.236,-0.065C0.254,-0.058 0.275,-0.055 0.299,-0.055C0.318,-0.055 0.337,-0.058 0.355,-0.063C0.372,-0.068 0.388,-0.076 0.402,-0.087C0.415,-0.097 0.426,-0.11 0.434,-0.126C0.442,-0.141 0.446,-0.159 0.446,-0.18ZM0.169,-0.541C0.169,-0.522 0.173,-0.506 0.182,-0.491C0.191,-0.476 0.202,-0.463 0.217,-0.452C0.231,-0.44 0.247,-0.429 0.266,-0.42C0.285,-0.41 0.304,-0.4 0.325,-0.391C0.36,-0.414 0.387,-0.438 0.405,-0.461C0.422,-0.484 0.431,-0.51 0.431,-0.538C0.431,-0.555 0.428,-0.57 0.421,-0.583C0.413,-0.596 0.404,-0.607 0.393,-0.616C0.381,-0.625 0.367,-0.632 0.352,-0.638C0.337,-0.643 0.321,-0.645 0.304,-0.645C0.283,-0.645 0.264,-0.642 0.247,-0.636C0.23,-0.63 0.216,-0.622 0.205,-0.612C0.194,-0.602 0.185,-0.591 0.179,-0.579C0.172,-0.566 0.169,-0.554 0.169,-0.541Z" style="fill-rule:nonzero;"/>
                </g>
                <g transform="matrix(40,0,0,40,2202,659)">
                    <path d="M0.055,-0.35C0.055,-0.407 0.06,-0.458 0.07,-0.503C0.08,-0.548 0.095,-0.586 0.115,-0.617C0.135,-0.648 0.16,-0.671 0.191,-0.688C0.222,-0.704 0.258,-0.712 0.3,-0.712C0.345,-0.712 0.383,-0.704 0.414,-0.688C0.445,-0.672 0.47,-0.649 0.489,-0.618C0.508,-0.587 0.522,-0.55 0.531,-0.505C0.54,-0.46 0.544,-0.408 0.544,-0.35C0.544,-0.293 0.539,-0.243 0.529,-0.198C0.519,-0.153 0.504,-0.115 0.484,-0.084C0.464,-0.053 0.439,-0.029 0.408,-0.013C0.377,0.004 0.341,0.012 0.299,0.012C0.255,0.012 0.218,0.003 0.187,-0.015C0.156,-0.032 0.13,-0.057 0.111,-0.089C0.091,-0.121 0.077,-0.159 0.068,-0.204C0.059,-0.248 0.055,-0.297 0.055,-0.35ZM0.462,-0.35C0.462,-0.385 0.46,-0.419 0.456,-0.451L0.159,-0.18C0.17,-0.142 0.187,-0.112 0.21,-0.089C0.233,-0.066 0.262,-0.055 0.299,-0.055C0.358,-0.055 0.4,-0.079 0.425,-0.128C0.45,-0.177 0.462,-0.251 0.462,-0.35ZM0.138,-0.35C0.138,-0.333 0.139,-0.317 0.14,-0.302C0.141,-0.287 0.142,-0.272 0.143,-0.257L0.441,-0.527C0.43,-0.563 0.413,-0.592 0.391,-0.613C0.368,-0.634 0.338,-0.645 0.3,-0.645C0.241,-0.645 0.199,-0.62 0.175,-0.572C0.15,-0.523 0.138,-0.449 0.138,-0.35Z" style="fill-rule:nonzero;"/>
                </g>
                <g transform="matrix(40,0,0,40,2226,659)">
                    <path d="M0.233,-0.055C0.233,-0.076 0.239,-0.093 0.251,-0.105C0.263,-0.116 0.279,-0.122 0.299,-0.122C0.32,-0.122 0.337,-0.116 0.349,-0.105C0.361,-0.093 0.367,-0.076 0.367,-0.055C0.367,-0.036 0.361,-0.02 0.349,-0.007C0.337,0.006 0.32,0.012 0.299,0.012C0.279,0.012 0.263,0.006 0.251,-0.007C0.239,-0.02 0.233,-0.036 0.233,-0.055Z" style="fill-rule:nonzero;"/>
                </g>
                <g transform="matrix(40,0,0,40,2250,659)">
                    <path d="M0.256,-0.058C0.281,-0.058 0.305,-0.061 0.326,-0.068C0.347,-0.074 0.366,-0.084 0.381,-0.097C0.396,-0.11 0.407,-0.126 0.416,-0.145C0.424,-0.164 0.428,-0.187 0.428,-0.213C0.428,-0.261 0.411,-0.298 0.377,-0.323C0.342,-0.347 0.295,-0.36 0.236,-0.36L0.142,-0.355L0.142,-0.7L0.485,-0.7L0.485,-0.628L0.217,-0.628L0.217,-0.425L0.267,-0.427C0.341,-0.427 0.399,-0.409 0.442,-0.373C0.485,-0.337 0.506,-0.286 0.506,-0.219C0.506,-0.182 0.5,-0.149 0.487,-0.12C0.474,-0.091 0.456,-0.067 0.433,-0.048C0.41,-0.028 0.384,-0.013 0.353,-0.003C0.321,0.007 0.288,0.012 0.251,0.012C0.231,0.012 0.212,0.011 0.194,0.008C0.176,0.005 0.16,0.001 0.145,-0.004C0.13,-0.008 0.117,-0.013 0.107,-0.018C0.095,-0.023 0.088,-0.027 0.083,-0.031L0.115,-0.096C0.126,-0.089 0.144,-0.081 0.167,-0.072C0.19,-0.063 0.22,-0.058 0.256,-0.058Z" style="fill-rule:nonzero;"/>
                </g>
                <g transform="matrix(40,0,0,40,2298,659)">
                    <path d="M0.124,-0L0.43,-0.628L0.069,-0.628L0.069,-0.7L0.511,-0.7L0.511,-0.635L0.206,-0L0.124,-0Z" style="fill-rule:nonzero;"/>
                </g>
                <g transform="matrix(40,0,0,40,2322,659)">
                    <path d="M0.248,-0.057C0.275,-0.057 0.299,-0.061 0.322,-0.068C0.344,-0.075 0.363,-0.084 0.38,-0.097C0.397,-0.11 0.41,-0.125 0.419,-0.143C0.428,-0.161 0.433,-0.181 0.433,-0.203C0.433,-0.249 0.417,-0.282 0.385,-0.302C0.352,-0.321 0.309,-0.331 0.254,-0.331L0.19,-0.331L0.19,-0.379L0.387,-0.628L0.088,-0.628L0.088,-0.7L0.483,-0.7L0.483,-0.628L0.286,-0.397L0.302,-0.397C0.333,-0.397 0.361,-0.393 0.386,-0.384C0.411,-0.375 0.433,-0.363 0.452,-0.347C0.471,-0.331 0.485,-0.312 0.496,-0.289C0.506,-0.266 0.511,-0.241 0.511,-0.212C0.511,-0.176 0.504,-0.144 0.49,-0.116C0.476,-0.088 0.457,-0.065 0.433,-0.046C0.409,-0.027 0.381,-0.012 0.349,-0.003C0.316,0.007 0.282,0.012 0.245,0.012C0.211,0.012 0.182,0.01 0.157,0.005C0.132,-0 0.109,-0.007 0.088,-0.014L0.108,-0.084C0.125,-0.076 0.146,-0.07 0.169,-0.065C0.192,-0.059 0.219,-0.057 0.248,-0.057Z" style="fill-rule:nonzero;"/>
                </g>
                <g transform="matrix(40,0,0,40,2346,659)">
                    <path d="M0.233,-0.055C0.233,-0.076 0.239,-0.093 0.251,-0.105C0.263,-0.116 0.279,-0.122 0.299,-0.122C0.32,-0.122 0.337,-0.116 0.349,-0.105C0.361,-0.093 0.367,-0.076 0.367,-0.055C0.367,-0.036 0.361,-0.02 0.349,-0.007C0.337,0.006 0.32,0.012 0.299,0.012C0.279,0.012 0.263,0.006 0.251,-0.007C0.239,-0.02 0.233,-0.036 0.233,-0.055Z" style="fill-rule:nonzero;"/>
                </g>
                <g transform="matrix(40,0,0,40,2370,659)">
                    <path d="M0.256,-0.058C0.281,-0.058 0.305,-0.061 0.326,-0.068C0.347,-0.074 0.366,-0.084 0.381,-0.097C0.396,-0.11 0.407,-0.126 0.416,-0.145C0.424,-0.164 0.428,-0.187 0.428,-0.213C0.428,-0.261 0.411,-0.298 0.377,-0.323C0.342,-0.347 0.295,-0.36 0.236,-0.36L0.142,-0.355L0.142,-0.7L0.485,-0.7L0.485,-0.628L0.217,-0.628L0.217,-0.425L0.267,-0.427C0.341,-0.427 0.399,-0.409 0.442,-0.373C0.485,-0.337 0.506,-0.286 0.506,-0.219C0.506,-0.182 0.5,-0.149 0.487,-0.12C0.474,-0.091 0.456,-0.067 0.433,-0.048C0.41,-0.028 0.384,-0.013 0.353,-0.003C0.321,0.007 0.288,0.012 0.251,0.012C0.231,0.012 0.212,0.011 0.194,0.008C0.176,0.005 0.16,0.001 0.145,-0.004C0.13,-0.008 0.117,-0.013 0.107,-0.018C0.095,-0.023 0.088,-0.027 0.083,-0.031L0.115,-0.096C0.126,-0.089 0.144,-0.081 0.167,-0.072C0.19,-0.063 0.22,-0.058 0.256,-0.058Z" style="fill-rule:nonzero;"/>
                </g>
                <g transform="matrix(40,0,0,40,2394,659)">
                    <path d="M0.143,0.143C0.175,0.136 0.207,0.125 0.239,0.108C0.27,0.091 0.299,0.067 0.325,0.037C0.35,0.006 0.371,-0.032 0.387,-0.078C0.402,-0.123 0.41,-0.178 0.41,-0.243C0.41,-0.307 0.404,-0.362 0.391,-0.407C0.378,-0.452 0.359,-0.489 0.336,-0.52C0.312,-0.55 0.284,-0.574 0.251,-0.593C0.218,-0.611 0.182,-0.626 0.143,-0.637L0.168,-0.7C0.211,-0.691 0.253,-0.675 0.292,-0.653C0.331,-0.63 0.365,-0.6 0.394,-0.564C0.423,-0.527 0.447,-0.482 0.464,-0.429C0.481,-0.376 0.49,-0.314 0.49,-0.243C0.49,-0.172 0.482,-0.11 0.465,-0.058C0.448,-0.006 0.425,0.038 0.396,0.074C0.367,0.11 0.332,0.139 0.294,0.162C0.255,0.184 0.213,0.201 0.168,0.212L0.143,0.143Z" style="fill-rule:nonzero;"/>
                </g>
            </g>
            <g transform="matrix(1,0,0,1,305.094,134.5)">
                <g transform="matrix(40,0,0,40,2033,659)">
                    <path d="M0.219,-0.066C0.219,-0.089 0.226,-0.108 0.241,-0.122C0.256,-0.135 0.275,-0.142 0.299,-0.142C0.324,-0.142 0.344,-0.135 0.359,-0.122C0.374,-0.108 0.381,-0.089 0.381,-0.066C0.381,-0.043 0.374,-0.024 0.359,-0.01C0.344,0.004 0.324,0.011 0.299,0.011C0.275,0.011 0.256,0.004 0.241,-0.01C0.226,-0.024 0.219,-0.043 0.219,-0.066Z" style="fill-rule:nonzero;"/>
                </g>
                <g transform="matrix(40,0,0,40,2057,659)">
                    <path d="M0.219,-0.066C0.219,-0.089 0.226,-0.108 0.241,-0.122C0.256,-0.135 0.275,-0.142 0.299,-0.142C0.324,-0.142 0.344,-0.135 0.359,-0.122C0.374,-0.108 0.381,-0.089 0.381,-0.066C0.381,-0.043 0.374,-0.024 0.359,-0.01C0.344,0.004 0.324,0.011 0.299,0.011C0.275,0.011 0.256,0.004 0.241,-0.01C0.226,-0.024 0.219,-0.043 0.219,-0.066Z" style="fill-rule:nonzero;"/>
                </g>
                <g transform="matrix(40,0,0,40,2081,659)">
                    <path d="M0.219,-0.066C0.219,-0.089 0.226,-0.108 0.241,-0.122C0.256,-0.135 0.275,-0.142 0.299,-0.142C0.324,-0.142 0.344,-0.135 0.359,-0.122C0.374,-0.108 0.381,-0.089 0.381,-0.066C0.381,-0.043 0.374,-0.024 0.359,-0.01C0.344,0.004 0.324,0.011 0.299,0.011C0.275,0.011 0.256,0.004 0.241,-0.01C0.226,-0.024 0.219,-0.043 0.219,-0.066Z" style="fill-rule:nonzero;"/>
                </g>
            </g>
        </g>
    </g>
</svg>
