<?xml version="1.0" encoding="UTF-8" standalone="no"?>
<!DOCTYPE svg PUBLIC "-//W3C//DTD SVG 1.1//EN" "http://www.w3.org/Graphics/SVG/1.1/DTD/svg11.dtd">
<svg width="100%" height="100%" viewBox="0 0 926 368" version="1.1" xmlns="http://www.w3.org/2000/svg" xmlns:xlink="http://www.w3.org/1999/xlink" xml:space="preserve" xmlns:serif="http://www.serif.com/" style="fill-rule:evenodd;clip-rule:evenodd;stroke-linecap:round;stroke-linejoin:round;stroke-miterlimit:10;">
    <g transform="matrix(1,0,0,1,-5769,-140)">
        <g id="Attribute" transform="matrix(1.90372,0,0,0.999018,1107.92,-8.99116)">
            <rect x="2388" y="9" width="1641" height="1018" style="fill:none;"/>
            <g transform="matrix(-0.525288,9.16745e-17,-5.64727e-17,-0.657155,3823.79,575.727)">
                <rect x="2500" y="106.496" width="110" height="65.504" style="fill:rgb(89,89,89);stroke:black;stroke-width:3.55px;"/>
            </g>
            <g transform="matrix(-0.525288,9.16745e-17,-5.64727e-17,-0.657155,4028.06,575.727)">
                <rect x="2500" y="106.496" width="110" height="65.504" style="fill:rgb(89,89,89);stroke:black;stroke-width:3.55px;"/>
            </g>
            <g transform="matrix(-0.525288,9.16745e-17,-5.64727e-17,-0.657155,4184.16,492.629)">
                <rect x="2500" y="106.496" width="110" height="65.504" style="fill:rgb(89,89,89);stroke:black;stroke-width:3.55px;"/>
            </g>
            <g transform="matrix(-0.525288,9.16745e-17,-5.64727e-17,-0.657155,3823.79,403.541)">
                <rect x="2500" y="106.496" width="110" height="65.504" style="fill:rgb(200,200,200);stroke:black;stroke-width:3.55px;"/>
            </g>
            <g transform="matrix(-0.525288,9.16745e-17,-5.64727e-17,-0.657155,3823.79,489.634)">
                <rect x="2500" y="106.496" width="110" height="65.504" style="fill:rgb(216,216,216);stroke:black;stroke-width:3.55px;"/>
            </g>
            <g transform="matrix(-0.525288,9.16745e-17,-5.64727e-17,-0.657155,3823.79,317.449)">
                <rect x="2500" y="106.496" width="110" height="65.504" style="fill:rgb(77,77,77);stroke:black;stroke-width:3.55px;"/>
            </g>
            <g transform="matrix(-0.525288,9.16745e-17,-5.64727e-17,-0.657155,4028.06,317.449)">
                <rect x="2500" y="106.496" width="110" height="65.504" style="fill:rgb(77,77,77);stroke:black;stroke-width:3.55px;"/>
            </g>
            <g transform="matrix(-0.525288,9.16745e-17,-5.64727e-17,-0.657155,4184.16,406.536)">
                <rect x="2500" y="106.496" width="110" height="65.504" style="fill:rgb(77,77,77);stroke:black;stroke-width:3.55px;"/>
            </g>
            <g transform="matrix(-0.525288,9.16745e-17,-5.64727e-17,-0.657155,3823.79,532.68)">
                <rect x="2500" y="106.496" width="110" height="65.504" style="fill:rgb(164,164,164);stroke:black;stroke-width:3.55px;"/>
            </g>
            <g transform="matrix(-0.525288,9.16745e-17,-5.64727e-17,-0.657155,3823.79,360.495)">
                <rect x="2500" y="106.496" width="110" height="65.504" style="fill:rgb(102,102,102);stroke:black;stroke-width:3.55px;"/>
            </g>
            <g transform="matrix(-0.525288,9.16745e-17,-5.64727e-17,-0.657155,4028.06,360.495)">
                <rect x="2500" y="106.496" width="110" height="65.504" style="fill:rgb(102,102,102);stroke:black;stroke-width:3.55px;"/>
            </g>
            <g transform="matrix(-0.525288,9.16745e-17,-5.64727e-17,-0.657155,4184.16,449.582)">
                <rect x="2500" y="106.496" width="110" height="65.504" style="fill:rgb(102,102,102);stroke:black;stroke-width:3.55px;"/>
            </g>
            <g transform="matrix(-0.525288,9.16745e-17,-5.64727e-17,-0.657155,3823.79,446.588)">
                <rect x="2500" y="106.496" width="110" height="65.504" style="fill:rgb(150,150,150);stroke:black;stroke-width:3.55px;"/>
            </g>
            <g transform="matrix(-0.525288,9.16745e-17,-5.64727e-17,-0.657155,3823.79,274.402)">
                <rect x="2500" y="106.496" width="110" height="65.504" style="fill:rgb(153,153,153);stroke:black;stroke-width:3.55px;"/>
            </g>
            <g transform="matrix(-0.525288,9.16745e-17,-5.64727e-17,-0.657155,3881.57,575.727)">
                <rect x="2500" y="106.496" width="110" height="65.504" style="fill:rgb(45,231,231);stroke:black;stroke-width:3.55px;"/>
            </g>
            <g transform="matrix(-0.525288,9.16745e-17,-5.64727e-17,-0.657155,4085.84,575.727)">
                <rect x="2500" y="106.496" width="110" height="65.504" style="fill:rgb(45,231,231);stroke:black;stroke-width:3.55px;"/>
            </g>
            <g transform="matrix(-0.525288,9.16745e-17,-5.64727e-17,-0.657155,4241.94,492.629)">
                <rect x="2500" y="106.496" width="110" height="65.504" style="fill:rgb(45,231,231);stroke:black;stroke-width:3.55px;"/>
            </g>
            <g transform="matrix(-0.525288,9.16745e-17,-5.64727e-17,-0.657155,3881.57,403.541)">
                <rect x="2500" y="106.496" width="110" height="65.504" style="fill:rgb(255,235,51);stroke:black;stroke-width:3.55px;"/>
            </g>
            <g transform="matrix(-0.525288,9.16745e-17,-5.64727e-17,-0.657155,3881.57,489.634)">
                <rect x="2500" y="106.496" width="110" height="65.504" style="fill:rgb(229,242,13);stroke:black;stroke-width:3.55px;"/>
            </g>
            <g transform="matrix(0.525288,3.09106e-17,1.42399e-17,0.657155,1197.35,134.433)">
                <rect x="2500" y="106.496" width="110" height="65.504" style="fill:rgb(251,133,255);stroke:black;stroke-width:3.55px;"/>
            </g>
            <g transform="matrix(0.525288,3.09106e-17,1.42399e-17,0.657155,1401.62,134.433)">
                <rect x="2500" y="106.496" width="110" height="65.504" style="fill:rgb(251,133,255);stroke:black;stroke-width:3.55px;"/>
            </g>
            <g transform="matrix(0.525288,3.09106e-17,1.42399e-17,0.657155,1557.72,223.521)">
                <rect x="2500" y="106.496" width="110" height="65.504" style="fill:rgb(251,133,255);stroke:black;stroke-width:3.55px;"/>
            </g>
            <g transform="matrix(-0.525288,9.16745e-17,-5.64727e-17,-0.657155,3881.57,532.68)">
                <rect x="2500" y="106.496" width="110" height="65.504" style="fill:rgb(45,231,231);stroke:black;stroke-width:3.55px;"/>
            </g>
            <g transform="matrix(0.525288,3.09106e-17,1.42399e-17,0.657155,1197.35,91.387)">
                <rect x="2500" y="106.496" width="110" height="65.504" style="fill:rgb(251,133,255);stroke:black;stroke-width:3.55px;"/>
            </g>
            <g transform="matrix(-0.525288,9.16745e-17,-5.64727e-17,-0.657155,3881.57,446.588)">
                <rect x="2500" y="106.496" width="110" height="65.504" style="fill:rgb(255,235,51);stroke:black;stroke-width:3.55px;"/>
            </g>
            <g transform="matrix(0.525288,3.09106e-17,1.42399e-17,0.657155,1197.35,177.48)">
                <rect x="2500" y="106.496" width="110" height="65.504" style="fill:rgb(251,133,255);stroke:black;stroke-width:3.55px;"/>
            </g>
            <g transform="matrix(0.525288,3.09106e-17,1.42399e-17,0.657155,1401.62,177.48)">
                <rect x="2500" y="106.496" width="110" height="65.504" style="fill:rgb(251,133,255);stroke:black;stroke-width:3.55px;"/>
            </g>
            <g transform="matrix(0.525288,3.09106e-17,1.42399e-17,0.657155,1557.72,266.567)">
                <rect x="2500" y="106.496" width="110" height="65.504" style="fill:rgb(251,133,255);stroke:black;stroke-width:3.55px;"/>
            </g>
            <g transform="matrix(0.525288,0,0,1.00098,1067.84,68.194)">
                <g transform="matrix(32,0,0,32,2790.57,126.659)">
                    <path d="M0.196,-0.32L0.42,-0.32L0.311,-0.669L0.196,-0.32ZM0.276,-0.765L0.357,-0.765L0.611,-0L0.519,-0L0.438,-0.261L0.179,-0.261L0.097,-0L0.015,-0L0.276,-0.765Z" style="fill-rule:nonzero;"/>
                </g>
            </g>
            <g transform="matrix(0.525288,0,0,1.00098,1272.24,111.409)">
                <g transform="matrix(32,0,0,32,2790.57,126.659)">
                    <path d="M0.196,-0.32L0.42,-0.32L0.311,-0.669L0.196,-0.32ZM0.276,-0.765L0.357,-0.765L0.611,-0L0.519,-0L0.438,-0.261L0.179,-0.261L0.097,-0L0.015,-0L0.276,-0.765Z" style="fill-rule:nonzero;"/>
                </g>
            </g>
            <g transform="matrix(0.525288,0,0,1.00098,1428.5,201.402)">
                <g transform="matrix(32,0,0,32,2790.57,126.659)">
                    <path d="M0.196,-0.32L0.42,-0.32L0.311,-0.669L0.196,-0.32ZM0.276,-0.765L0.357,-0.765L0.611,-0L0.519,-0L0.438,-0.261L0.179,-0.261L0.097,-0L0.015,-0L0.276,-0.765Z" style="fill-rule:nonzero;"/>
                </g>
            </g>
            <g transform="matrix(0.525288,0,0,1.00098,1428.5,244.774)">
                <g transform="matrix(32,0,0,32,2790.57,126.659)">
                    <path d="M0.196,-0.32L0.42,-0.32L0.311,-0.669L0.196,-0.32ZM0.276,-0.765L0.357,-0.765L0.611,-0L0.519,-0L0.438,-0.261L0.179,-0.261L0.097,-0L0.015,-0L0.276,-0.765Z" style="fill-rule:nonzero;"/>
                </g>
            </g>
            <g transform="matrix(0.525288,0,0,1.00098,1272.24,155.254)">
                <g transform="matrix(32,0,0,32,2790.57,126.659)">
                    <path d="M0.196,-0.32L0.42,-0.32L0.311,-0.669L0.196,-0.32ZM0.276,-0.765L0.357,-0.765L0.611,-0L0.519,-0L0.438,-0.261L0.179,-0.261L0.097,-0L0.015,-0L0.276,-0.765Z" style="fill-rule:nonzero;"/>
                </g>
            </g>
            <g transform="matrix(0.525288,0,0,1.00098,1067.84,111.432)">
                <g transform="matrix(32,0,0,32,2790.57,126.659)">
                    <path d="M0.196,-0.32L0.42,-0.32L0.311,-0.669L0.196,-0.32ZM0.276,-0.765L0.357,-0.765L0.611,-0L0.519,-0L0.438,-0.261L0.179,-0.261L0.097,-0L0.015,-0L0.276,-0.765Z" style="fill-rule:nonzero;"/>
                </g>
            </g>
            <g transform="matrix(0.525288,0,0,1.00098,1067.84,154.487)">
                <g transform="matrix(32,0,0,32,2790.57,126.659)">
                    <path d="M0.196,-0.32L0.42,-0.32L0.311,-0.669L0.196,-0.32ZM0.276,-0.765L0.357,-0.765L0.611,-0L0.519,-0L0.438,-0.261L0.179,-0.261L0.097,-0L0.015,-0L0.276,-0.765Z" style="fill-rule:nonzero;"/>
                </g>
            </g>
            <g transform="matrix(0.525288,0,0,1.00098,1067.84,197.486)">
                <g transform="matrix(32,0,0,32,2790.57,126.659)">
                    <path d="M0.156,-0.703L0.156,-0.432L0.256,-0.432C0.306,-0.432 0.348,-0.444 0.384,-0.467C0.42,-0.491 0.438,-0.523 0.438,-0.564C0.438,-0.612 0.423,-0.646 0.395,-0.669C0.367,-0.691 0.318,-0.703 0.247,-0.703L0.156,-0.703ZM0.156,-0.368L0.156,-0.063L0.288,-0.063C0.344,-0.063 0.388,-0.076 0.42,-0.1C0.453,-0.125 0.469,-0.159 0.469,-0.204C0.469,-0.253 0.453,-0.292 0.422,-0.323C0.39,-0.353 0.343,-0.368 0.282,-0.368L0.156,-0.368ZM0.292,-0.765C0.364,-0.765 0.419,-0.749 0.459,-0.716C0.5,-0.683 0.52,-0.636 0.52,-0.575C0.52,-0.526 0.504,-0.488 0.474,-0.46C0.443,-0.432 0.413,-0.415 0.384,-0.41C0.424,-0.403 0.462,-0.382 0.5,-0.348C0.537,-0.314 0.555,-0.262 0.555,-0.191C0.555,-0.136 0.532,-0.091 0.487,-0.054C0.441,-0.018 0.375,-0 0.29,-0L0.073,-0L0.073,-0.765L0.292,-0.765Z" style="fill-rule:nonzero;"/>
                </g>
            </g>
            <g transform="matrix(0.525288,0,0,1.00098,1067.84,241.059)">
                <g transform="matrix(32,0,0,32,2790.57,126.659)">
                    <path d="M0.156,-0.703L0.156,-0.432L0.256,-0.432C0.306,-0.432 0.348,-0.444 0.384,-0.467C0.42,-0.491 0.438,-0.523 0.438,-0.564C0.438,-0.612 0.423,-0.646 0.395,-0.669C0.367,-0.691 0.318,-0.703 0.247,-0.703L0.156,-0.703ZM0.156,-0.368L0.156,-0.063L0.288,-0.063C0.344,-0.063 0.388,-0.076 0.42,-0.1C0.453,-0.125 0.469,-0.159 0.469,-0.204C0.469,-0.253 0.453,-0.292 0.422,-0.323C0.39,-0.353 0.343,-0.368 0.282,-0.368L0.156,-0.368ZM0.292,-0.765C0.364,-0.765 0.419,-0.749 0.459,-0.716C0.5,-0.683 0.52,-0.636 0.52,-0.575C0.52,-0.526 0.504,-0.488 0.474,-0.46C0.443,-0.432 0.413,-0.415 0.384,-0.41C0.424,-0.403 0.462,-0.382 0.5,-0.348C0.537,-0.314 0.555,-0.262 0.555,-0.191C0.555,-0.136 0.532,-0.091 0.487,-0.054C0.441,-0.018 0.375,-0 0.29,-0L0.073,-0L0.073,-0.765L0.292,-0.765Z" style="fill-rule:nonzero;"/>
                </g>
            </g>
            <g transform="matrix(0.525288,0,0,1.00098,1067.84,284.742)">
                <g transform="matrix(32,0,0,32,2790.57,126.659)">
                    <path d="M0.156,-0.703L0.156,-0.432L0.256,-0.432C0.306,-0.432 0.348,-0.444 0.384,-0.467C0.42,-0.491 0.438,-0.523 0.438,-0.564C0.438,-0.612 0.423,-0.646 0.395,-0.669C0.367,-0.691 0.318,-0.703 0.247,-0.703L0.156,-0.703ZM0.156,-0.368L0.156,-0.063L0.288,-0.063C0.344,-0.063 0.388,-0.076 0.42,-0.1C0.453,-0.125 0.469,-0.159 0.469,-0.204C0.469,-0.253 0.453,-0.292 0.422,-0.323C0.39,-0.353 0.343,-0.368 0.282,-0.368L0.156,-0.368ZM0.292,-0.765C0.364,-0.765 0.419,-0.749 0.459,-0.716C0.5,-0.683 0.52,-0.636 0.52,-0.575C0.52,-0.526 0.504,-0.488 0.474,-0.46C0.443,-0.432 0.413,-0.415 0.384,-0.41C0.424,-0.403 0.462,-0.382 0.5,-0.348C0.537,-0.314 0.555,-0.262 0.555,-0.191C0.555,-0.136 0.532,-0.091 0.487,-0.054C0.441,-0.018 0.375,-0 0.29,-0L0.073,-0L0.073,-0.765L0.292,-0.765Z" style="fill-rule:nonzero;"/>
                </g>
            </g>
            <g transform="matrix(0.525288,0,0,1.00098,1067.84,327.1)">
                <g transform="matrix(32,0,0,32,2790.57,126.659)">
                    <path d="M0.627,-0.11C0.602,-0.076 0.57,-0.046 0.533,-0.023C0.497,0 0.444,0.012 0.377,0.012C0.281,0.012 0.205,-0.025 0.148,-0.1C0.092,-0.175 0.063,-0.271 0.063,-0.389C0.063,-0.499 0.091,-0.592 0.145,-0.669C0.199,-0.747 0.28,-0.785 0.386,-0.785C0.43,-0.785 0.469,-0.779 0.503,-0.767C0.537,-0.754 0.569,-0.732 0.6,-0.699L0.547,-0.644C0.525,-0.667 0.499,-0.685 0.472,-0.697C0.444,-0.709 0.414,-0.715 0.381,-0.715C0.309,-0.715 0.252,-0.684 0.212,-0.622C0.171,-0.56 0.151,-0.487 0.151,-0.402C0.151,-0.291 0.174,-0.206 0.219,-0.147C0.265,-0.088 0.317,-0.058 0.375,-0.058C0.431,-0.058 0.472,-0.067 0.498,-0.084C0.523,-0.102 0.546,-0.126 0.567,-0.155L0.627,-0.11Z" style="fill-rule:nonzero;"/>
                </g>
            </g>
            <g transform="matrix(0.525288,0,0,1.00098,1067.84,370.608)">
                <g transform="matrix(32,0,0,32,2790.57,126.659)">
                    <path d="M0.627,-0.11C0.602,-0.076 0.57,-0.046 0.533,-0.023C0.497,0 0.444,0.012 0.377,0.012C0.281,0.012 0.205,-0.025 0.148,-0.1C0.092,-0.175 0.063,-0.271 0.063,-0.389C0.063,-0.499 0.091,-0.592 0.145,-0.669C0.199,-0.747 0.28,-0.785 0.386,-0.785C0.43,-0.785 0.469,-0.779 0.503,-0.767C0.537,-0.754 0.569,-0.732 0.6,-0.699L0.547,-0.644C0.525,-0.667 0.499,-0.685 0.472,-0.697C0.444,-0.709 0.414,-0.715 0.381,-0.715C0.309,-0.715 0.252,-0.684 0.212,-0.622C0.171,-0.56 0.151,-0.487 0.151,-0.402C0.151,-0.291 0.174,-0.206 0.219,-0.147C0.265,-0.088 0.317,-0.058 0.375,-0.058C0.431,-0.058 0.472,-0.067 0.498,-0.084C0.523,-0.102 0.546,-0.126 0.567,-0.155L0.627,-0.11Z" style="fill-rule:nonzero;"/>
                </g>
            </g>
            <g transform="matrix(0.525288,0,0,1.00098,1271.88,370.608)">
                <g transform="matrix(32,0,0,32,2790.57,126.659)">
                    <path d="M0.627,-0.11C0.602,-0.076 0.57,-0.046 0.533,-0.023C0.497,0 0.444,0.012 0.377,0.012C0.281,0.012 0.205,-0.025 0.148,-0.1C0.092,-0.175 0.063,-0.271 0.063,-0.389C0.063,-0.499 0.091,-0.592 0.145,-0.669C0.199,-0.747 0.28,-0.785 0.386,-0.785C0.43,-0.785 0.469,-0.779 0.503,-0.767C0.537,-0.754 0.569,-0.732 0.6,-0.699L0.547,-0.644C0.525,-0.667 0.499,-0.685 0.472,-0.697C0.444,-0.709 0.414,-0.715 0.381,-0.715C0.309,-0.715 0.252,-0.684 0.212,-0.622C0.171,-0.56 0.151,-0.487 0.151,-0.402C0.151,-0.291 0.174,-0.206 0.219,-0.147C0.265,-0.088 0.317,-0.058 0.375,-0.058C0.431,-0.058 0.472,-0.067 0.498,-0.084C0.523,-0.102 0.546,-0.126 0.567,-0.155L0.627,-0.11Z" style="fill-rule:nonzero;"/>
                </g>
            </g>
            <g transform="matrix(0.525288,0,0,1.00098,1428.09,288.83)">
                <g transform="matrix(32,0,0,32,2790.57,126.659)">
                    <path d="M0.627,-0.11C0.602,-0.076 0.57,-0.046 0.533,-0.023C0.497,0 0.444,0.012 0.377,0.012C0.281,0.012 0.205,-0.025 0.148,-0.1C0.092,-0.175 0.063,-0.271 0.063,-0.389C0.063,-0.499 0.091,-0.592 0.145,-0.669C0.199,-0.747 0.28,-0.785 0.386,-0.785C0.43,-0.785 0.469,-0.779 0.503,-0.767C0.537,-0.754 0.569,-0.732 0.6,-0.699L0.547,-0.644C0.525,-0.667 0.499,-0.685 0.472,-0.697C0.444,-0.709 0.414,-0.715 0.381,-0.715C0.309,-0.715 0.252,-0.684 0.212,-0.622C0.171,-0.56 0.151,-0.487 0.151,-0.402C0.151,-0.291 0.174,-0.206 0.219,-0.147C0.265,-0.088 0.317,-0.058 0.375,-0.058C0.431,-0.058 0.472,-0.067 0.498,-0.084C0.523,-0.102 0.546,-0.126 0.567,-0.155L0.627,-0.11Z" style="fill-rule:nonzero;"/>
                </g>
            </g>
            <g transform="matrix(-0.303712,3.99659e-17,-5.04661e-17,-0.657155,3388.13,575.328)">
                <rect x="2500" y="106.496" width="110" height="65.504" style="fill:white;stroke:black;stroke-width:4.85px;"/>
            </g>
            <g transform="matrix(-0.303712,3.99659e-17,-5.04661e-17,-0.657155,3388.13,403.142)">
                <rect x="2500" y="106.496" width="110" height="65.504" style="fill:white;stroke:black;stroke-width:4.85px;"/>
            </g>
            <g transform="matrix(-0.303712,3.99659e-17,-5.04661e-17,-0.657155,3388.13,489.235)">
                <rect x="2500" y="106.496" width="110" height="65.504" style="fill:white;stroke:black;stroke-width:4.85px;"/>
            </g>
            <g transform="matrix(-0.303712,3.99659e-17,-5.04661e-17,-0.657155,3388.13,317.05)">
                <rect x="2500" y="106.496" width="110" height="65.504" style="fill:white;stroke:black;stroke-width:4.85px;"/>
            </g>
            <g transform="matrix(-0.303712,3.99659e-17,-5.04661e-17,-0.657155,3388.13,532.281)">
                <rect x="2500" y="106.496" width="110" height="65.504" style="fill:white;stroke:black;stroke-width:4.85px;"/>
            </g>
            <g transform="matrix(-0.303712,3.99659e-17,-5.04661e-17,-0.657155,3388.13,360.096)">
                <rect x="2500" y="106.496" width="110" height="65.504" style="fill:white;stroke:black;stroke-width:4.85px;"/>
            </g>
            <g transform="matrix(-0.303712,3.99659e-17,-5.04661e-17,-0.657155,3388.13,446.189)">
                <rect x="2500" y="106.496" width="110" height="65.504" style="fill:white;stroke:black;stroke-width:4.85px;"/>
            </g>
            <g transform="matrix(-0.303712,3.99659e-17,-5.04661e-17,-0.657155,3388.13,274.003)">
                <rect x="2500" y="106.496" width="110" height="65.504" style="fill:white;stroke:black;stroke-width:4.85px;"/>
            </g>
            <g transform="matrix(0.153546,0,0,1.00098,2215.13,-1346.14)">
                <g transform="matrix(3.42105,-0,-0,1,1519.27,1493.81)">
                    <path d="M244.005,19.103L266.505,30.353L244.005,41.603L244.005,19.103Z"/>
                    <path d="M247.505,30.353L248.505,30.353" style="fill:none;stroke:black;stroke-width:5px;stroke-linecap:butt;stroke-linejoin:miter;stroke-miterlimit:1;stroke-dasharray:5,5;"/>
                </g>
            </g>
            <g transform="matrix(0.153546,0,0,1.00098,2215.13,-1301.74)">
                <g transform="matrix(3.42105,-0,-0,1,1519.27,1449.46)">
                    <path d="M244.005,63.458L266.505,74.708L244.005,85.958L244.005,63.458Z"/>
                    <path d="M247.505,74.708L248.505,74.708" style="fill:none;stroke:black;stroke-width:5px;stroke-linecap:butt;stroke-linejoin:miter;stroke-miterlimit:1;stroke-dasharray:5,5;"/>
                </g>
            </g>
            <g transform="matrix(0.153546,0,0,1.00098,2274.19,-1301.74)">
                <g transform="matrix(3.42105,-0,-0,1,1134.65,1449.46)">
                    <path d="M356.434,63.458L378.934,74.708L356.434,85.958L356.434,63.458Z"/>
                    <path d="M359.934,74.708L360.934,74.708" style="fill:none;stroke:black;stroke-width:5px;stroke-linecap:butt;stroke-linejoin:miter;stroke-miterlimit:1;stroke-dasharray:5,5;"/>
                </g>
            </g>
            <g transform="matrix(0.153546,0,0,1.00098,2215.13,-1259.21)">
                <g transform="matrix(3.42105,-0,-0,1,1519.27,1406.97)">
                    <path d="M244.005,105.947L266.505,117.197L244.005,128.447L244.005,105.947Z"/>
                    <path d="M247.505,117.197L248.505,117.197" style="fill:none;stroke:black;stroke-width:5px;stroke-linecap:butt;stroke-linejoin:miter;stroke-miterlimit:1;stroke-dasharray:5,5;"/>
                </g>
            </g>
            <g transform="matrix(0.153546,0,0,1.00098,2215.13,-1215.2)">
                <g transform="matrix(3.42105,-0,-0,1,1519.27,1363)">
                    <path d="M244.005,149.914L266.505,161.164L244.005,172.414L244.005,149.914Z"/>
                    <path d="M247.505,161.164L248.505,161.164" style="fill:none;stroke:black;stroke-width:5px;stroke-linecap:butt;stroke-linejoin:miter;stroke-miterlimit:1;stroke-dasharray:5,5;"/>
                </g>
            </g>
            <g transform="matrix(0.153546,0,0,1.00098,2215.13,-1172.26)">
                <g transform="matrix(3.42105,-0,-0,1,1519.27,1320.1)">
                    <path d="M244.005,192.815L266.505,204.065L244.005,215.315L244.005,192.815Z"/>
                    <path d="M247.505,204.065L248.505,204.065" style="fill:none;stroke:black;stroke-width:5px;stroke-linecap:butt;stroke-linejoin:miter;stroke-miterlimit:1;stroke-dasharray:5,5;"/>
                </g>
            </g>
            <g transform="matrix(0.153546,0,0,1.00098,2215.13,-1129.17)">
                <g transform="matrix(3.42105,-0,-0,1,1519.27,1277.05)">
                    <path d="M244.005,235.868L266.505,247.118L244.005,258.368L244.005,235.868Z"/>
                    <path d="M247.505,247.118L248.505,247.118" style="fill:none;stroke:black;stroke-width:5px;stroke-linecap:butt;stroke-linejoin:miter;stroke-miterlimit:1;stroke-dasharray:5,5;"/>
                </g>
            </g>
            <g transform="matrix(0.153546,0,0,1.00098,2215.13,-1085.61)">
                <g transform="matrix(3.42105,-0,-0,1,1519.27,1233.53)">
                    <path d="M244.005,279.385L266.505,290.635L244.005,301.885L244.005,279.385Z"/>
                    <path d="M247.505,290.635L248.505,290.635" style="fill:none;stroke:black;stroke-width:5px;stroke-linecap:butt;stroke-linejoin:miter;stroke-miterlimit:1;stroke-dasharray:5,5;"/>
                </g>
            </g>
            <g transform="matrix(0.153546,0,0,1.00098,2274.19,-1257.77)">
                <g transform="matrix(3.42105,-0,-0,1,1134.65,1405.53)">
                    <path d="M356.434,107.385L378.934,118.635L356.434,129.885L356.434,107.385Z"/>
                    <path d="M359.934,118.635L360.934,118.635" style="fill:none;stroke:black;stroke-width:5px;stroke-linecap:butt;stroke-linejoin:miter;stroke-miterlimit:1;stroke-dasharray:5,5;"/>
                </g>
            </g>
            <g transform="matrix(0.153546,0,0,1.00098,2215.13,-1041.24)">
                <g transform="matrix(3.42105,-0,-0,1,1519.27,1189.21)">
                    <path d="M244.005,323.708L266.505,334.958L244.005,346.208L244.005,323.708Z"/>
                    <path d="M247.505,334.958L248.505,334.958" style="fill:none;stroke:black;stroke-width:5px;stroke-linecap:butt;stroke-linejoin:miter;stroke-miterlimit:1;stroke-dasharray:5,5;"/>
                </g>
            </g>
            <g transform="matrix(0.153546,0,0,1.00098,2274.19,-1041.24)">
                <g transform="matrix(3.42105,-0,-0,1,1134.65,1189.21)">
                    <path d="M356.434,323.708L378.934,334.958L356.434,346.208L356.434,323.708Z"/>
                    <path d="M359.934,334.958L360.934,334.958" style="fill:none;stroke:black;stroke-width:5px;stroke-linecap:butt;stroke-linejoin:miter;stroke-miterlimit:1;stroke-dasharray:5,5;"/>
                </g>
            </g>
            <g transform="matrix(1,0,0,1,-23.1311,0)">
                <g transform="matrix(0.525288,0,0,1.00098,929.101,26.8454)">
                    <g transform="matrix(32,0,0,32,3240.17,165.349)">
                        <path d="M0.113,-0.437L0.042,-0.437L0.042,-0.476C0.055,-0.483 0.07,-0.49 0.085,-0.496C0.099,-0.501 0.114,-0.506 0.127,-0.509L0.134,-0.544C0.143,-0.585 0.155,-0.619 0.17,-0.647C0.185,-0.674 0.202,-0.695 0.222,-0.711C0.242,-0.726 0.265,-0.737 0.29,-0.743C0.315,-0.749 0.343,-0.752 0.372,-0.752C0.393,-0.752 0.415,-0.75 0.437,-0.747C0.459,-0.743 0.477,-0.737 0.49,-0.73C0.491,-0.721 0.491,-0.711 0.489,-0.7C0.486,-0.689 0.483,-0.678 0.478,-0.668C0.472,-0.658 0.467,-0.649 0.46,-0.641C0.453,-0.633 0.446,-0.627 0.438,-0.623L0.366,-0.699C0.357,-0.697 0.347,-0.694 0.339,-0.69C0.33,-0.685 0.321,-0.678 0.313,-0.668C0.305,-0.658 0.297,-0.644 0.29,-0.625C0.282,-0.606 0.275,-0.581 0.269,-0.55L0.26,-0.5L0.37,-0.5C0.371,-0.493 0.371,-0.483 0.37,-0.47C0.369,-0.456 0.364,-0.446 0.357,-0.437L0.247,-0.437L0.185,-0.043C0.178,0.004 0.165,0.044 0.144,0.075C0.123,0.106 0.1,0.131 0.076,0.151C0.05,0.169 0.025,0.184 0,0.193C-0.025,0.202 -0.046,0.209 -0.062,0.212L-0.073,0.178C-0.065,0.174 -0.055,0.168 -0.043,0.159C-0.031,0.15 -0.019,0.137 -0.007,0.121C0.005,0.105 0.016,0.085 0.027,0.062C0.037,0.038 0.045,0.009 0.05,-0.024L0.113,-0.437Z" style="fill-rule:nonzero;"/>
                    </g>
                </g>
                <g transform="matrix(0.525288,0,0,1.00098,929.101,70.0218)">
                    <g transform="matrix(32,0,0,32,3240.17,165.349)">
                        <path d="M0.113,-0.437L0.042,-0.437L0.042,-0.476C0.055,-0.483 0.07,-0.49 0.085,-0.496C0.099,-0.501 0.114,-0.506 0.127,-0.509L0.134,-0.544C0.143,-0.585 0.155,-0.619 0.17,-0.647C0.185,-0.674 0.202,-0.695 0.222,-0.711C0.242,-0.726 0.265,-0.737 0.29,-0.743C0.315,-0.749 0.343,-0.752 0.372,-0.752C0.393,-0.752 0.415,-0.75 0.437,-0.747C0.459,-0.743 0.477,-0.737 0.49,-0.73C0.491,-0.721 0.491,-0.711 0.489,-0.7C0.486,-0.689 0.483,-0.678 0.478,-0.668C0.472,-0.658 0.467,-0.649 0.46,-0.641C0.453,-0.633 0.446,-0.627 0.438,-0.623L0.366,-0.699C0.357,-0.697 0.347,-0.694 0.339,-0.69C0.33,-0.685 0.321,-0.678 0.313,-0.668C0.305,-0.658 0.297,-0.644 0.29,-0.625C0.282,-0.606 0.275,-0.581 0.269,-0.55L0.26,-0.5L0.37,-0.5C0.371,-0.493 0.371,-0.483 0.37,-0.47C0.369,-0.456 0.364,-0.446 0.357,-0.437L0.247,-0.437L0.185,-0.043C0.178,0.004 0.165,0.044 0.144,0.075C0.123,0.106 0.1,0.131 0.076,0.151C0.05,0.169 0.025,0.184 0,0.193C-0.025,0.202 -0.046,0.209 -0.062,0.212L-0.073,0.178C-0.065,0.174 -0.055,0.168 -0.043,0.159C-0.031,0.15 -0.019,0.137 -0.007,0.121C0.005,0.105 0.016,0.085 0.027,0.062C0.037,0.038 0.045,0.009 0.05,-0.024L0.113,-0.437Z" style="fill-rule:nonzero;"/>
                    </g>
                </g>
                <g transform="matrix(0.525288,0,0,1.00098,929.101,112.803)">
                    <g transform="matrix(32,0,0,32,3240.17,165.349)">
                        <path d="M0.113,-0.437L0.042,-0.437L0.042,-0.476C0.055,-0.483 0.07,-0.49 0.085,-0.496C0.099,-0.501 0.114,-0.506 0.127,-0.509L0.134,-0.544C0.143,-0.585 0.155,-0.619 0.17,-0.647C0.185,-0.674 0.202,-0.695 0.222,-0.711C0.242,-0.726 0.265,-0.737 0.29,-0.743C0.315,-0.749 0.343,-0.752 0.372,-0.752C0.393,-0.752 0.415,-0.75 0.437,-0.747C0.459,-0.743 0.477,-0.737 0.49,-0.73C0.491,-0.721 0.491,-0.711 0.489,-0.7C0.486,-0.689 0.483,-0.678 0.478,-0.668C0.472,-0.658 0.467,-0.649 0.46,-0.641C0.453,-0.633 0.446,-0.627 0.438,-0.623L0.366,-0.699C0.357,-0.697 0.347,-0.694 0.339,-0.69C0.33,-0.685 0.321,-0.678 0.313,-0.668C0.305,-0.658 0.297,-0.644 0.29,-0.625C0.282,-0.606 0.275,-0.581 0.269,-0.55L0.26,-0.5L0.37,-0.5C0.371,-0.493 0.371,-0.483 0.37,-0.47C0.369,-0.456 0.364,-0.446 0.357,-0.437L0.247,-0.437L0.185,-0.043C0.178,0.004 0.165,0.044 0.144,0.075C0.123,0.106 0.1,0.131 0.076,0.151C0.05,0.169 0.025,0.184 0,0.193C-0.025,0.202 -0.046,0.209 -0.062,0.212L-0.073,0.178C-0.065,0.174 -0.055,0.168 -0.043,0.159C-0.031,0.15 -0.019,0.137 -0.007,0.121C0.005,0.105 0.016,0.085 0.027,0.062C0.037,0.038 0.045,0.009 0.05,-0.024L0.113,-0.437Z" style="fill-rule:nonzero;"/>
                    </g>
                </g>
                <g transform="matrix(0.525288,0,0,1.00098,929.101,155.794)">
                    <g transform="matrix(32,0,0,32,3240.17,165.349)">
                        <path d="M0.113,-0.437L0.042,-0.437L0.042,-0.476C0.055,-0.483 0.07,-0.49 0.085,-0.496C0.099,-0.501 0.114,-0.506 0.127,-0.509L0.134,-0.544C0.143,-0.585 0.155,-0.619 0.17,-0.647C0.185,-0.674 0.202,-0.695 0.222,-0.711C0.242,-0.726 0.265,-0.737 0.29,-0.743C0.315,-0.749 0.343,-0.752 0.372,-0.752C0.393,-0.752 0.415,-0.75 0.437,-0.747C0.459,-0.743 0.477,-0.737 0.49,-0.73C0.491,-0.721 0.491,-0.711 0.489,-0.7C0.486,-0.689 0.483,-0.678 0.478,-0.668C0.472,-0.658 0.467,-0.649 0.46,-0.641C0.453,-0.633 0.446,-0.627 0.438,-0.623L0.366,-0.699C0.357,-0.697 0.347,-0.694 0.339,-0.69C0.33,-0.685 0.321,-0.678 0.313,-0.668C0.305,-0.658 0.297,-0.644 0.29,-0.625C0.282,-0.606 0.275,-0.581 0.269,-0.55L0.26,-0.5L0.37,-0.5C0.371,-0.493 0.371,-0.483 0.37,-0.47C0.369,-0.456 0.364,-0.446 0.357,-0.437L0.247,-0.437L0.185,-0.043C0.178,0.004 0.165,0.044 0.144,0.075C0.123,0.106 0.1,0.131 0.076,0.151C0.05,0.169 0.025,0.184 0,0.193C-0.025,0.202 -0.046,0.209 -0.062,0.212L-0.073,0.178C-0.065,0.174 -0.055,0.168 -0.043,0.159C-0.031,0.15 -0.019,0.137 -0.007,0.121C0.005,0.105 0.016,0.085 0.027,0.062C0.037,0.038 0.045,0.009 0.05,-0.024L0.113,-0.437Z" style="fill-rule:nonzero;"/>
                    </g>
                </g>
                <g transform="matrix(0.525288,0,0,1.00098,929.101,199.276)">
                    <g transform="matrix(32,0,0,32,3240.17,165.349)">
                        <path d="M0.113,-0.437L0.042,-0.437L0.042,-0.476C0.055,-0.483 0.07,-0.49 0.085,-0.496C0.099,-0.501 0.114,-0.506 0.127,-0.509L0.134,-0.544C0.143,-0.585 0.155,-0.619 0.17,-0.647C0.185,-0.674 0.202,-0.695 0.222,-0.711C0.242,-0.726 0.265,-0.737 0.29,-0.743C0.315,-0.749 0.343,-0.752 0.372,-0.752C0.393,-0.752 0.415,-0.75 0.437,-0.747C0.459,-0.743 0.477,-0.737 0.49,-0.73C0.491,-0.721 0.491,-0.711 0.489,-0.7C0.486,-0.689 0.483,-0.678 0.478,-0.668C0.472,-0.658 0.467,-0.649 0.46,-0.641C0.453,-0.633 0.446,-0.627 0.438,-0.623L0.366,-0.699C0.357,-0.697 0.347,-0.694 0.339,-0.69C0.33,-0.685 0.321,-0.678 0.313,-0.668C0.305,-0.658 0.297,-0.644 0.29,-0.625C0.282,-0.606 0.275,-0.581 0.269,-0.55L0.26,-0.5L0.37,-0.5C0.371,-0.493 0.371,-0.483 0.37,-0.47C0.369,-0.456 0.364,-0.446 0.357,-0.437L0.247,-0.437L0.185,-0.043C0.178,0.004 0.165,0.044 0.144,0.075C0.123,0.106 0.1,0.131 0.076,0.151C0.05,0.169 0.025,0.184 0,0.193C-0.025,0.202 -0.046,0.209 -0.062,0.212L-0.073,0.178C-0.065,0.174 -0.055,0.168 -0.043,0.159C-0.031,0.15 -0.019,0.137 -0.007,0.121C0.005,0.105 0.016,0.085 0.027,0.062C0.037,0.038 0.045,0.009 0.05,-0.024L0.113,-0.437Z" style="fill-rule:nonzero;"/>
                    </g>
                </g>
                <g transform="matrix(0.525288,0,0,1.00098,929.101,242.343)">
                    <g transform="matrix(32,0,0,32,3240.17,165.349)">
                        <path d="M0.113,-0.437L0.042,-0.437L0.042,-0.476C0.055,-0.483 0.07,-0.49 0.085,-0.496C0.099,-0.501 0.114,-0.506 0.127,-0.509L0.134,-0.544C0.143,-0.585 0.155,-0.619 0.17,-0.647C0.185,-0.674 0.202,-0.695 0.222,-0.711C0.242,-0.726 0.265,-0.737 0.29,-0.743C0.315,-0.749 0.343,-0.752 0.372,-0.752C0.393,-0.752 0.415,-0.75 0.437,-0.747C0.459,-0.743 0.477,-0.737 0.49,-0.73C0.491,-0.721 0.491,-0.711 0.489,-0.7C0.486,-0.689 0.483,-0.678 0.478,-0.668C0.472,-0.658 0.467,-0.649 0.46,-0.641C0.453,-0.633 0.446,-0.627 0.438,-0.623L0.366,-0.699C0.357,-0.697 0.347,-0.694 0.339,-0.69C0.33,-0.685 0.321,-0.678 0.313,-0.668C0.305,-0.658 0.297,-0.644 0.29,-0.625C0.282,-0.606 0.275,-0.581 0.269,-0.55L0.26,-0.5L0.37,-0.5C0.371,-0.493 0.371,-0.483 0.37,-0.47C0.369,-0.456 0.364,-0.446 0.357,-0.437L0.247,-0.437L0.185,-0.043C0.178,0.004 0.165,0.044 0.144,0.075C0.123,0.106 0.1,0.131 0.076,0.151C0.05,0.169 0.025,0.184 0,0.193C-0.025,0.202 -0.046,0.209 -0.062,0.212L-0.073,0.178C-0.065,0.174 -0.055,0.168 -0.043,0.159C-0.031,0.15 -0.019,0.137 -0.007,0.121C0.005,0.105 0.016,0.085 0.027,0.062C0.037,0.038 0.045,0.009 0.05,-0.024L0.113,-0.437Z" style="fill-rule:nonzero;"/>
                    </g>
                </g>
                <g transform="matrix(0.525288,0,0,1.00098,929.101,284.707)">
                    <g transform="matrix(32,0,0,32,3240.17,165.349)">
                        <path d="M0.113,-0.437L0.042,-0.437L0.042,-0.476C0.055,-0.483 0.07,-0.49 0.085,-0.496C0.099,-0.501 0.114,-0.506 0.127,-0.509L0.134,-0.544C0.143,-0.585 0.155,-0.619 0.17,-0.647C0.185,-0.674 0.202,-0.695 0.222,-0.711C0.242,-0.726 0.265,-0.737 0.29,-0.743C0.315,-0.749 0.343,-0.752 0.372,-0.752C0.393,-0.752 0.415,-0.75 0.437,-0.747C0.459,-0.743 0.477,-0.737 0.49,-0.73C0.491,-0.721 0.491,-0.711 0.489,-0.7C0.486,-0.689 0.483,-0.678 0.478,-0.668C0.472,-0.658 0.467,-0.649 0.46,-0.641C0.453,-0.633 0.446,-0.627 0.438,-0.623L0.366,-0.699C0.357,-0.697 0.347,-0.694 0.339,-0.69C0.33,-0.685 0.321,-0.678 0.313,-0.668C0.305,-0.658 0.297,-0.644 0.29,-0.625C0.282,-0.606 0.275,-0.581 0.269,-0.55L0.26,-0.5L0.37,-0.5C0.371,-0.493 0.371,-0.483 0.37,-0.47C0.369,-0.456 0.364,-0.446 0.357,-0.437L0.247,-0.437L0.185,-0.043C0.178,0.004 0.165,0.044 0.144,0.075C0.123,0.106 0.1,0.131 0.076,0.151C0.05,0.169 0.025,0.184 0,0.193C-0.025,0.202 -0.046,0.209 -0.062,0.212L-0.073,0.178C-0.065,0.174 -0.055,0.168 -0.043,0.159C-0.031,0.15 -0.019,0.137 -0.007,0.121C0.005,0.105 0.016,0.085 0.027,0.062C0.037,0.038 0.045,0.009 0.05,-0.024L0.113,-0.437Z" style="fill-rule:nonzero;"/>
                    </g>
                </g>
                <g transform="matrix(0.525288,0,0,1.00098,929.101,328.702)">
                    <g transform="matrix(32,0,0,32,3240.17,165.349)">
                        <path d="M0.113,-0.437L0.042,-0.437L0.042,-0.476C0.055,-0.483 0.07,-0.49 0.085,-0.496C0.099,-0.501 0.114,-0.506 0.127,-0.509L0.134,-0.544C0.143,-0.585 0.155,-0.619 0.17,-0.647C0.185,-0.674 0.202,-0.695 0.222,-0.711C0.242,-0.726 0.265,-0.737 0.29,-0.743C0.315,-0.749 0.343,-0.752 0.372,-0.752C0.393,-0.752 0.415,-0.75 0.437,-0.747C0.459,-0.743 0.477,-0.737 0.49,-0.73C0.491,-0.721 0.491,-0.711 0.489,-0.7C0.486,-0.689 0.483,-0.678 0.478,-0.668C0.472,-0.658 0.467,-0.649 0.46,-0.641C0.453,-0.633 0.446,-0.627 0.438,-0.623L0.366,-0.699C0.357,-0.697 0.347,-0.694 0.339,-0.69C0.33,-0.685 0.321,-0.678 0.313,-0.668C0.305,-0.658 0.297,-0.644 0.29,-0.625C0.282,-0.606 0.275,-0.581 0.269,-0.55L0.26,-0.5L0.37,-0.5C0.371,-0.493 0.371,-0.483 0.37,-0.47C0.369,-0.456 0.364,-0.446 0.357,-0.437L0.247,-0.437L0.185,-0.043C0.178,0.004 0.165,0.044 0.144,0.075C0.123,0.106 0.1,0.131 0.076,0.151C0.05,0.169 0.025,0.184 0,0.193C-0.025,0.202 -0.046,0.209 -0.062,0.212L-0.073,0.178C-0.065,0.174 -0.055,0.168 -0.043,0.159C-0.031,0.15 -0.019,0.137 -0.007,0.121C0.005,0.105 0.016,0.085 0.027,0.062C0.037,0.038 0.045,0.009 0.05,-0.024L0.113,-0.437Z" style="fill-rule:nonzero;"/>
                    </g>
                </g>
            </g>
            <g transform="matrix(0.153546,9.24446e-33,1.2326e-32,1.00098,2421.9,-1169.13)">
                <g transform="matrix(3.42105,-3.15947e-32,-8.02754e-32,1,172.632,1316.97)">
                    <path d="M639.927,189.191L666.927,207.191L639.927,225.191L639.927,189.191Z" style="fill:none;stroke:black;stroke-width:8px;stroke-linecap:butt;stroke-linejoin:miter;"/>
                    <path d="M639.138,207.191L639.927,207.191" style="fill:none;stroke:black;stroke-width:8px;stroke-linecap:butt;stroke-linejoin:miter;stroke-miterlimit:1;stroke-dasharray:8,8;"/>
                </g>
            </g>
            <g transform="matrix(0.525288,0,0,1.00098,-605.11,9)">
                <path d="M6430.25,195.226L6507,284" style="fill:none;stroke:black;stroke-width:2px;stroke-linecap:butt;"/>
            </g>
            <g transform="matrix(0.525288,0,0,1.00098,-605.11,9)">
                <path d="M6430.25,496L6507,413.238" style="fill:none;stroke:black;stroke-width:2px;stroke-linecap:butt;"/>
            </g>
        </g>
    </g>
</svg>
