<?xml version="1.0" encoding="UTF-8" standalone="no"?>
<!DOCTYPE svg PUBLIC "-//W3C//DTD SVG 1.1//EN" "http://www.w3.org/Graphics/SVG/1.1/DTD/svg11.dtd">
<svg width="100%" height="100%" viewBox="0 0 503 465" version="1.1" xmlns="http://www.w3.org/2000/svg" xmlns:xlink="http://www.w3.org/1999/xlink" xml:space="preserve" xmlns:serif="http://www.serif.com/" style="fill-rule:evenodd;clip-rule:evenodd;stroke-linejoin:round;stroke-miterlimit:1.5;">
    <g transform="matrix(1,0,0,1,-1664,-8248)">
        <rect id="Networks" x="0" y="8209" width="2985" height="2153" style="fill:none;"/>
        <g id="Networks1" serif:id="Networks">
            <rect x="1925.83" y="8262" width="195.181" height="63.243" style="fill:rgb(250,112,255);"/>
            <g transform="matrix(0.738704,0,0,1,397.047,313.87)">
                <rect x="1925.83" y="8262" width="195.181" height="63.243" style="fill:rgb(45,231,231);"/>
            </g>
            <g transform="matrix(1,0,0,1,416.496,7768.83)">
                <g transform="matrix(44,0,0,44,1519.15,537.012)">
                    <path d="M0.531,-0.537C0.531,-0.52 0.529,-0.502 0.525,-0.485C0.52,-0.468 0.513,-0.452 0.503,-0.438C0.493,-0.423 0.48,-0.411 0.464,-0.4C0.448,-0.389 0.429,-0.38 0.406,-0.375L0.406,-0.369C0.426,-0.366 0.445,-0.36 0.463,-0.352C0.481,-0.344 0.497,-0.333 0.51,-0.319C0.523,-0.305 0.534,-0.288 0.542,-0.268C0.549,-0.248 0.553,-0.224 0.553,-0.197C0.553,-0.161 0.545,-0.13 0.53,-0.104C0.515,-0.077 0.494,-0.056 0.469,-0.039C0.443,-0.022 0.414,-0.01 0.381,-0.002C0.348,0.006 0.315,0.01 0.28,0.01L0.237,0.01C0.219,0.01 0.2,0.01 0.18,0.009C0.159,0.008 0.138,0.006 0.118,0.004C0.097,0.002 0.077,-0.001 0.06,-0.005L0.06,-0.695C0.073,-0.697 0.087,-0.699 0.104,-0.701C0.12,-0.703 0.137,-0.705 0.156,-0.706C0.175,-0.707 0.194,-0.708 0.214,-0.709C0.233,-0.71 0.253,-0.71 0.272,-0.71C0.305,-0.71 0.337,-0.708 0.368,-0.703C0.399,-0.698 0.426,-0.689 0.451,-0.676C0.475,-0.663 0.494,-0.646 0.509,-0.623C0.524,-0.6 0.531,-0.572 0.531,-0.537ZM0.281,-0.103C0.298,-0.103 0.314,-0.105 0.33,-0.109C0.345,-0.113 0.359,-0.119 0.371,-0.128C0.383,-0.136 0.393,-0.146 0.4,-0.159C0.407,-0.172 0.411,-0.187 0.411,-0.204C0.411,-0.226 0.407,-0.243 0.398,-0.256C0.389,-0.269 0.378,-0.279 0.364,-0.286C0.35,-0.293 0.334,-0.297 0.317,-0.299C0.3,-0.301 0.282,-0.302 0.265,-0.302L0.192,-0.302L0.192,-0.109C0.195,-0.108 0.201,-0.107 0.208,-0.106C0.215,-0.105 0.223,-0.105 0.232,-0.105C0.24,-0.104 0.249,-0.104 0.258,-0.104C0.267,-0.103 0.274,-0.103 0.281,-0.103ZM0.236,-0.406C0.245,-0.406 0.256,-0.406 0.269,-0.407C0.281,-0.408 0.291,-0.409 0.299,-0.41C0.324,-0.418 0.346,-0.43 0.365,-0.446C0.383,-0.462 0.392,-0.483 0.392,-0.509C0.392,-0.526 0.389,-0.541 0.382,-0.552C0.375,-0.563 0.367,-0.572 0.356,-0.579C0.345,-0.586 0.332,-0.59 0.318,-0.593C0.304,-0.596 0.289,-0.597 0.274,-0.597C0.257,-0.597 0.241,-0.597 0.226,-0.596C0.211,-0.595 0.2,-0.594 0.192,-0.593L0.192,-0.406L0.236,-0.406Z" style="fill:white;fill-rule:nonzero;"/>
                </g>
                <g transform="matrix(44,0,0,44,1545.15,537.012)">
                    <path d="M0.457,-0.043C0.437,-0.027 0.41,-0.014 0.376,-0.003C0.341,0.009 0.305,0.014 0.266,0.014C0.185,0.014 0.126,-0.01 0.089,-0.057C0.052,-0.103 0.033,-0.168 0.033,-0.25C0.033,-0.338 0.054,-0.404 0.096,-0.448C0.138,-0.492 0.197,-0.514 0.273,-0.514C0.298,-0.514 0.323,-0.511 0.347,-0.504C0.371,-0.497 0.392,-0.486 0.411,-0.471C0.43,-0.456 0.445,-0.435 0.456,-0.409C0.467,-0.383 0.473,-0.351 0.473,-0.312C0.473,-0.298 0.472,-0.283 0.471,-0.267C0.469,-0.251 0.466,-0.234 0.463,-0.217L0.163,-0.217C0.165,-0.175 0.176,-0.143 0.196,-0.122C0.215,-0.101 0.247,-0.09 0.291,-0.09C0.318,-0.09 0.343,-0.094 0.365,-0.103C0.386,-0.111 0.403,-0.119 0.414,-0.128L0.457,-0.043ZM0.271,-0.41C0.237,-0.41 0.212,-0.4 0.196,-0.38C0.179,-0.359 0.169,-0.332 0.166,-0.298L0.352,-0.298C0.355,-0.334 0.349,-0.362 0.336,-0.381C0.322,-0.4 0.3,-0.41 0.271,-0.41Z" style="fill:white;fill-rule:nonzero;"/>
                </g>
                <g transform="matrix(44,0,0,44,1567.5,537.012)">
                    <path d="M0.057,-0.5L0.152,-0.5L0.167,-0.44L0.171,-0.44C0.188,-0.465 0.209,-0.484 0.233,-0.496C0.256,-0.508 0.285,-0.514 0.319,-0.514C0.382,-0.514 0.429,-0.494 0.46,-0.455C0.491,-0.415 0.507,-0.351 0.507,-0.263C0.507,-0.22 0.502,-0.182 0.492,-0.148C0.482,-0.113 0.467,-0.084 0.448,-0.06C0.428,-0.036 0.404,-0.018 0.376,-0.005C0.347,0.008 0.315,0.014 0.278,0.014C0.257,0.014 0.24,0.012 0.227,0.01C0.214,0.007 0.2,0.002 0.187,-0.005L0.187,0.2L0.057,0.2L0.057,-0.5ZM0.28,-0.404C0.255,-0.404 0.235,-0.398 0.221,-0.385C0.206,-0.372 0.195,-0.353 0.187,-0.328L0.187,-0.12C0.196,-0.113 0.207,-0.107 0.218,-0.103C0.229,-0.098 0.243,-0.096 0.261,-0.096C0.298,-0.096 0.326,-0.109 0.345,-0.136C0.364,-0.162 0.373,-0.205 0.373,-0.266C0.373,-0.31 0.366,-0.344 0.351,-0.368C0.336,-0.392 0.313,-0.404 0.28,-0.404Z" style="fill:white;fill-rule:nonzero;"/>
                </g>
                <g transform="matrix(44,0,0,44,1591.26,537.012)">
                    <path d="M0.057,-0L0.057,-0.5L0.187,-0.5L0.187,-0.115L0.312,-0.115L0.312,-0.5L0.442,-0.5L0.442,-0.115L0.567,-0.115L0.567,-0.5L0.697,-0.5L0.697,-0L0.057,-0Z" style="fill:white;fill-rule:nonzero;"/>
                </g>
                <g transform="matrix(44,0,0,44,1624.44,537.012)">
                    <path d="M0.358,-0.228L0.363,-0.299L0.36,-0.299L0.317,-0.226L0.139,-0L0.057,-0L0.057,-0.5L0.187,-0.5L0.187,-0.262L0.181,-0.194L0.185,-0.194L0.226,-0.265L0.406,-0.5L0.488,-0.5L0.488,-0L0.358,-0L0.358,-0.228Z" style="fill:white;fill-rule:nonzero;"/>
                </g>
                <g transform="matrix(44,0,0,44,1648.42,537.012)">
                    <path d="M0.35,-0.196L0.187,-0.196L0.187,-0L0.057,-0L0.057,-0.5L0.187,-0.5L0.187,-0.312L0.35,-0.312L0.35,-0.5L0.48,-0.5L0.48,-0L0.35,-0L0.35,-0.196Z" style="fill:white;fill-rule:nonzero;"/>
                </g>
                <g transform="matrix(44,0,0,44,1672.05,537.012)">
                    <path d="M0.054,-0.471C0.081,-0.483 0.112,-0.493 0.149,-0.5C0.186,-0.507 0.224,-0.51 0.264,-0.51C0.299,-0.51 0.328,-0.506 0.351,-0.498C0.374,-0.489 0.393,-0.477 0.407,-0.462C0.42,-0.447 0.43,-0.428 0.436,-0.407C0.441,-0.386 0.444,-0.362 0.444,-0.335C0.444,-0.306 0.443,-0.276 0.441,-0.247C0.439,-0.217 0.438,-0.188 0.438,-0.159C0.437,-0.13 0.438,-0.102 0.44,-0.076C0.442,-0.049 0.447,-0.023 0.455,0.001L0.349,0.001L0.328,-0.068L0.323,-0.068C0.31,-0.047 0.291,-0.029 0.268,-0.015C0.244,0 0.213,0.008 0.176,0.008C0.153,0.008 0.132,0.005 0.113,-0.003C0.094,-0.01 0.078,-0.02 0.065,-0.033C0.052,-0.046 0.041,-0.061 0.034,-0.079C0.027,-0.096 0.023,-0.116 0.023,-0.138C0.023,-0.169 0.03,-0.195 0.044,-0.216C0.057,-0.237 0.077,-0.254 0.103,-0.267C0.128,-0.28 0.159,-0.289 0.195,-0.294C0.23,-0.299 0.27,-0.3 0.314,-0.298C0.319,-0.335 0.316,-0.362 0.306,-0.379C0.296,-0.395 0.274,-0.403 0.239,-0.403C0.213,-0.403 0.186,-0.4 0.157,-0.395C0.128,-0.39 0.104,-0.383 0.085,-0.374L0.054,-0.471ZM0.219,-0.099C0.245,-0.099 0.266,-0.105 0.281,-0.117C0.296,-0.128 0.308,-0.141 0.315,-0.154L0.315,-0.219C0.294,-0.221 0.275,-0.221 0.256,-0.22C0.237,-0.219 0.22,-0.216 0.205,-0.211C0.19,-0.206 0.179,-0.2 0.17,-0.191C0.161,-0.182 0.157,-0.171 0.157,-0.158C0.157,-0.139 0.163,-0.125 0.174,-0.115C0.185,-0.104 0.2,-0.099 0.219,-0.099Z" style="fill:white;fill-rule:nonzero;"/>
                </g>
            </g>
            <g transform="matrix(0.879148,-0.00185205,-0.00210668,1.31025,551.565,7769.01)">
                <path d="M1670.22,477.643L1670.69,426.887" style="fill:none;"/>
                <g transform="matrix(1.13747,0.00160783,0.00182887,0.763217,1266.24,367.363)">
                    <path d="M341.643,116.641L354.932,143.746L368.643,116.852L341.643,116.641Z" style="fill:rgb(250,112,255);"/>
                    <path d="M355.101,122.147C355.252,102.729 355.452,77.243 355.452,77.243" style="fill:none;stroke:rgb(250,112,255);stroke-width:6px;stroke-dasharray:6,6;"/>
                </g>
            </g>
            <g transform="matrix(-0.879115,0.00817449,-0.00679014,-1.36936,3369,9151.26)">
                <g transform="matrix(-1.13745,-0.00679014,0.00564022,-0.730237,1934.27,671.172)">
                    <path d="M246.872,279.401L233.372,252.401L219.872,279.401L246.872,279.401Z" style="fill:rgb(45,231,231);"/>
                    <path d="M233.372,274.001L233.372,332.358" style="fill:none;stroke:rgb(45,231,231);stroke-width:6px;stroke-dasharray:6,6;"/>
                </g>
            </g>
            <g transform="matrix(1,0,0,1,312.474,8083.83)">
                <g transform="matrix(44,0,0,44,1519.15,537.012)">
                    <path d="M0.06,-0.693C0.088,-0.698 0.119,-0.703 0.153,-0.706C0.186,-0.708 0.22,-0.71 0.253,-0.71C0.288,-0.71 0.323,-0.707 0.358,-0.702C0.393,-0.696 0.424,-0.685 0.452,-0.668C0.48,-0.651 0.503,-0.627 0.521,-0.597C0.538,-0.566 0.547,-0.527 0.547,-0.478C0.547,-0.434 0.539,-0.397 0.524,-0.367C0.509,-0.336 0.488,-0.311 0.463,-0.292C0.438,-0.273 0.409,-0.259 0.377,-0.25C0.344,-0.241 0.311,-0.237 0.276,-0.237L0.26,-0.237C0.253,-0.237 0.245,-0.237 0.237,-0.238C0.229,-0.238 0.221,-0.238 0.214,-0.239C0.206,-0.24 0.2,-0.24 0.197,-0.241L0.197,-0L0.06,-0L0.06,-0.693ZM0.264,-0.592C0.251,-0.592 0.238,-0.592 0.226,-0.591C0.214,-0.59 0.204,-0.588 0.197,-0.587L0.197,-0.36C0.2,-0.359 0.204,-0.359 0.209,-0.358C0.214,-0.357 0.22,-0.357 0.226,-0.357C0.232,-0.356 0.238,-0.356 0.244,-0.356L0.256,-0.356C0.274,-0.356 0.292,-0.358 0.31,-0.361C0.327,-0.364 0.343,-0.371 0.357,-0.38C0.371,-0.389 0.382,-0.401 0.391,-0.417C0.399,-0.433 0.403,-0.454 0.403,-0.48C0.403,-0.502 0.399,-0.52 0.391,-0.535C0.383,-0.549 0.373,-0.56 0.36,-0.569C0.347,-0.578 0.332,-0.584 0.315,-0.587C0.298,-0.59 0.281,-0.592 0.264,-0.592Z" style="fill:white;fill-rule:nonzero;"/>
                </g>
                <g transform="matrix(44,0,0,44,1544.31,537.012)">
                    <path d="M0.457,-0.043C0.437,-0.027 0.41,-0.014 0.376,-0.003C0.341,0.009 0.305,0.014 0.266,0.014C0.185,0.014 0.126,-0.01 0.089,-0.057C0.052,-0.103 0.033,-0.168 0.033,-0.25C0.033,-0.338 0.054,-0.404 0.096,-0.448C0.138,-0.492 0.197,-0.514 0.273,-0.514C0.298,-0.514 0.323,-0.511 0.347,-0.504C0.371,-0.497 0.392,-0.486 0.411,-0.471C0.43,-0.456 0.445,-0.435 0.456,-0.409C0.467,-0.383 0.473,-0.351 0.473,-0.312C0.473,-0.298 0.472,-0.283 0.471,-0.267C0.469,-0.251 0.466,-0.234 0.463,-0.217L0.163,-0.217C0.165,-0.175 0.176,-0.143 0.196,-0.122C0.215,-0.101 0.247,-0.09 0.291,-0.09C0.318,-0.09 0.343,-0.094 0.365,-0.103C0.386,-0.111 0.403,-0.119 0.414,-0.128L0.457,-0.043ZM0.271,-0.41C0.237,-0.41 0.212,-0.4 0.196,-0.38C0.179,-0.359 0.169,-0.332 0.166,-0.298L0.352,-0.298C0.355,-0.334 0.349,-0.362 0.336,-0.381C0.322,-0.4 0.3,-0.41 0.271,-0.41Z" style="fill:white;fill-rule:nonzero;"/>
                </g>
                <g transform="matrix(44,0,0,44,1566.67,537.012)">
                    <path d="M0.142,-0.406C0.161,-0.435 0.184,-0.456 0.211,-0.47C0.237,-0.483 0.269,-0.489 0.306,-0.489C0.367,-0.489 0.415,-0.47 0.451,-0.434C0.486,-0.397 0.504,-0.339 0.504,-0.261C0.504,-0.171 0.484,-0.103 0.443,-0.056C0.402,-0.009 0.345,0.014 0.271,0.014C0.194,0.014 0.135,-0.012 0.094,-0.063C0.053,-0.114 0.033,-0.194 0.033,-0.303C0.033,-0.36 0.036,-0.409 0.043,-0.45C0.05,-0.491 0.059,-0.525 0.072,-0.553C0.084,-0.581 0.098,-0.603 0.116,-0.62C0.133,-0.637 0.152,-0.65 0.173,-0.66C0.194,-0.669 0.216,-0.676 0.24,-0.68C0.264,-0.684 0.289,-0.687 0.316,-0.69C0.351,-0.693 0.38,-0.698 0.405,-0.703C0.43,-0.708 0.448,-0.716 0.46,-0.727L0.465,-0.611C0.452,-0.6 0.433,-0.592 0.408,-0.588C0.383,-0.583 0.35,-0.579 0.308,-0.576C0.283,-0.575 0.26,-0.572 0.241,-0.567C0.222,-0.562 0.205,-0.554 0.191,-0.542C0.177,-0.53 0.166,-0.513 0.158,-0.492C0.149,-0.47 0.143,-0.441 0.139,-0.406L0.142,-0.406ZM0.167,-0.244C0.167,-0.201 0.175,-0.166 0.192,-0.138C0.209,-0.11 0.234,-0.096 0.269,-0.096C0.305,-0.096 0.331,-0.109 0.347,-0.134C0.362,-0.159 0.37,-0.196 0.37,-0.244C0.37,-0.287 0.363,-0.321 0.348,-0.344C0.333,-0.367 0.309,-0.379 0.275,-0.379C0.238,-0.379 0.211,-0.367 0.194,-0.343C0.176,-0.319 0.167,-0.286 0.167,-0.244Z" style="fill:white;fill-rule:nonzero;"/>
                </g>
                <g transform="matrix(44,0,0,44,1590.29,537.012)">
                    <path d="M0.057,-0.5L0.152,-0.5L0.167,-0.44L0.171,-0.44C0.188,-0.465 0.209,-0.484 0.233,-0.496C0.256,-0.508 0.285,-0.514 0.319,-0.514C0.382,-0.514 0.429,-0.494 0.46,-0.455C0.491,-0.415 0.507,-0.351 0.507,-0.263C0.507,-0.22 0.502,-0.182 0.492,-0.148C0.482,-0.113 0.467,-0.084 0.448,-0.06C0.428,-0.036 0.404,-0.018 0.376,-0.005C0.347,0.008 0.315,0.014 0.278,0.014C0.257,0.014 0.24,0.012 0.227,0.01C0.214,0.007 0.2,0.002 0.187,-0.005L0.187,0.2L0.057,0.2L0.057,-0.5ZM0.28,-0.404C0.255,-0.404 0.235,-0.398 0.221,-0.385C0.206,-0.372 0.195,-0.353 0.187,-0.328L0.187,-0.12C0.196,-0.113 0.207,-0.107 0.218,-0.103C0.229,-0.098 0.243,-0.096 0.261,-0.096C0.298,-0.096 0.326,-0.109 0.345,-0.136C0.364,-0.162 0.373,-0.205 0.373,-0.266C0.373,-0.31 0.366,-0.344 0.351,-0.368C0.336,-0.392 0.313,-0.404 0.28,-0.404Z" style="fill:white;fill-rule:nonzero;"/>
                </g>
                <g transform="matrix(44,0,0,44,1614.05,537.012)">
                    <path d="M0.033,-0.25C0.033,-0.335 0.054,-0.4 0.095,-0.446C0.136,-0.491 0.194,-0.514 0.269,-0.514C0.309,-0.514 0.344,-0.508 0.373,-0.495C0.402,-0.482 0.427,-0.464 0.446,-0.442C0.465,-0.419 0.48,-0.391 0.49,-0.358C0.499,-0.325 0.504,-0.289 0.504,-0.25C0.504,-0.165 0.484,-0.1 0.443,-0.055C0.401,-0.009 0.344,0.014 0.269,0.014C0.229,0.014 0.194,0.008 0.165,-0.005C0.136,-0.018 0.111,-0.036 0.092,-0.059C0.072,-0.082 0.057,-0.109 0.048,-0.142C0.038,-0.175 0.033,-0.211 0.033,-0.25ZM0.167,-0.25C0.167,-0.228 0.169,-0.208 0.173,-0.189C0.177,-0.17 0.183,-0.154 0.191,-0.14C0.199,-0.126 0.21,-0.115 0.223,-0.108C0.236,-0.1 0.251,-0.096 0.269,-0.096C0.303,-0.096 0.328,-0.108 0.345,-0.133C0.362,-0.158 0.37,-0.197 0.37,-0.25C0.37,-0.296 0.362,-0.333 0.347,-0.362C0.332,-0.39 0.306,-0.404 0.269,-0.404C0.237,-0.404 0.212,-0.392 0.194,-0.368C0.176,-0.344 0.167,-0.305 0.167,-0.25Z" style="fill:white;fill-rule:nonzero;"/>
                </g>
            </g>
            <g transform="matrix(0.998705,0,0,0.631902,-125.959,7086.79)">
                <g transform="matrix(0.558169,0,0,1.36437,820.425,1785.4)">
                    <path d="M1885,87.802L2000,204L2068,328" style="fill:none;stroke:black;stroke-width:11.02px;stroke-linecap:square;"/>
                </g>
                <g transform="matrix(0.558169,0,0,1.36437,820.425,1785.4)">
                    <path d="M2068,328L2249,334" style="fill:none;stroke:rgb(0,160,160);stroke-width:11.02px;stroke-linecap:square;"/>
                </g>
                <g transform="matrix(0.558169,0,0,1.36437,820.425,1785.4)">
                    <path d="M2249,334L2380.43,214.274L2565.34,180" style="fill:none;stroke:black;stroke-width:11.02px;stroke-linecap:square;"/>
                </g>
                <g transform="matrix(0.558169,0,0,1.36437,820.425,1785.4)">
                    <path d="M1859.83,474L1936,362L2068,328" style="fill:none;stroke:black;stroke-width:11.02px;stroke-linecap:square;"/>
                </g>
                <g transform="matrix(0.558169,0,0,1.36437,820.425,1785.4)">
                    <path d="M2249,334L2333,427L2471,474" style="fill:none;stroke:black;stroke-width:11.02px;stroke-linecap:square;"/>
                </g>
                <g transform="matrix(0.558169,0,0,1.36437,820.425,1785.4)">
                    <path d="M2114.4,122L2000,204" style="fill:none;stroke:black;stroke-width:11.02px;stroke-linecap:square;"/>
                </g>
                <g transform="matrix(0.863265,0,0,1.36437,252.998,1744.47)">
                    <path d="M1951.77,232.554L2065.55,262L2111.46,364" style="fill:none;stroke:black;stroke-width:9.28px;stroke-linecap:square;"/>
                </g>
            </g>
            <g transform="matrix(0.998705,0,0,0.631902,-125.959,7086.79)">
                <g transform="matrix(0.553315,0,0,0.874501,1420.49,1514.77)">
                    <circle cx="817.043" cy="446.457" r="20.095" style="fill:white;stroke:black;stroke-width:7.24px;stroke-linecap:round;"/>
                </g>
                <g transform="matrix(0.553315,0,0,0.874501,1548.33,1560.74)">
                    <circle cx="817.043" cy="446.457" r="20.095" style="fill:white;stroke:black;stroke-width:7.24px;stroke-linecap:round;"/>
                </g>
                <g transform="matrix(0.553315,0,0,0.874501,1586.22,1714.42)">
                    <circle cx="817.043" cy="446.457" r="20.095" style="fill:white;stroke:black;stroke-width:7.24px;stroke-linecap:round;"/>
                </g>
                <g transform="matrix(0.553315,0,0,0.874501,1798.9,1639.72)">
                    <circle cx="817.043" cy="446.457" r="20.095" style="fill:white;stroke:black;stroke-width:7.24px;stroke-linecap:round;"/>
                </g>
                <g transform="matrix(0.553315,0,0,0.874501,1750.02,2040.16)">
                    <circle cx="817.043" cy="446.457" r="20.095" style="fill:white;stroke:black;stroke-width:7.24px;stroke-linecap:round;"/>
                </g>
                <g transform="matrix(0.553315,0,0,0.874501,1405.83,2039)">
                    <circle cx="817.043" cy="446.457" r="20.095" style="fill:white;stroke:black;stroke-width:7.24px;stroke-linecap:round;"/>
                </g>
                <g transform="matrix(0.553315,0,0,0.874501,1450.18,1886.64)">
                    <circle cx="817.043" cy="446.457" r="20.095" style="fill:white;stroke:black;stroke-width:7.24px;stroke-linecap:round;"/>
                </g>
                <g transform="matrix(0.553315,0,0,0.874501,1523.2,1843.79)">
                    <circle cx="817.043" cy="446.457" r="20.095" style="fill:white;stroke:black;stroke-width:7.24px;stroke-linecap:round;"/>
                </g>
                <g transform="matrix(0.553315,0,0,0.874501,1624.42,1852.09)">
                    <circle cx="817.043" cy="446.457" r="20.095" style="fill:white;stroke:black;stroke-width:7.24px;stroke-linecap:round;"/>
                </g>
                <g transform="matrix(0.553315,0,0,0.874501,1696.67,1690.55)">
                    <circle cx="817.043" cy="446.457" r="20.095" style="fill:rgb(199,27,208);stroke:black;stroke-width:7.24px;stroke-linecap:round;"/>
                </g>
                <g transform="matrix(0.553315,0,0,0.874501,1484.28,1671.33)">
                    <circle cx="817.043" cy="446.457" r="20.095" style="fill:white;stroke:black;stroke-width:7.24px;stroke-linecap:round;"/>
                </g>
                <g transform="matrix(0.553315,0,0,0.874501,1669.85,1976.16)">
                    <circle cx="817.043" cy="446.457" r="20.095" style="fill:white;stroke:black;stroke-width:7.24px;stroke-linecap:round;"/>
                </g>
            </g>
            <g transform="matrix(1,0,0,1,-116.4,-498.008)">
                <g transform="matrix(48,0,0,48,1803.74,8792.71)">
                    <path d="M0.23,-0.238L0.247,-0.161L0.252,-0.161L0.266,-0.24L0.351,-0.5L0.491,-0.5L0.282,0.005L0.203,0.005L-0.014,-0.5L0.137,-0.5L0.23,-0.238Z" style="fill-rule:nonzero;"/>
                </g>
                <g transform="matrix(27.984,0,0,27.984,1826.63,8808.69)">
                    <path d="M0.101,-0.11L0.24,-0.11L0.24,-0.505L0.255,-0.573L0.207,-0.514L0.118,-0.453L0.063,-0.528L0.291,-0.712L0.364,-0.712L0.364,-0.11L0.5,-0.11L0.5,-0L0.101,-0L0.101,-0.11Z" style="fill-rule:nonzero;"/>
                </g>
            </g>
            <g transform="matrix(1,0,0,1,-51.1098,-392.255)">
                <g transform="matrix(48,0,0,48,1803.74,8792.71)">
                    <path d="M0.23,-0.238L0.247,-0.161L0.252,-0.161L0.266,-0.24L0.351,-0.5L0.491,-0.5L0.282,0.005L0.203,0.005L-0.014,-0.5L0.137,-0.5L0.23,-0.238Z" style="fill-rule:nonzero;"/>
                </g>
                <g transform="matrix(27.984,0,0,27.984,1826.63,8808.69)">
                    <path d="M0.475,-0.529C0.475,-0.495 0.469,-0.461 0.457,-0.426C0.444,-0.391 0.429,-0.357 0.41,-0.324C0.391,-0.291 0.37,-0.259 0.347,-0.228C0.324,-0.197 0.301,-0.168 0.279,-0.142L0.226,-0.101L0.226,-0.096L0.298,-0.11L0.49,-0.11L0.49,-0L0.069,-0L0.069,-0.067C0.085,-0.084 0.103,-0.103 0.123,-0.126C0.143,-0.148 0.163,-0.171 0.184,-0.197C0.204,-0.222 0.224,-0.247 0.243,-0.274C0.262,-0.301 0.28,-0.327 0.295,-0.355C0.31,-0.382 0.323,-0.408 0.332,-0.433C0.341,-0.458 0.345,-0.482 0.345,-0.505C0.345,-0.532 0.337,-0.555 0.322,-0.573C0.306,-0.59 0.281,-0.599 0.247,-0.599C0.226,-0.599 0.204,-0.595 0.182,-0.586C0.159,-0.577 0.14,-0.565 0.125,-0.551L0.073,-0.643C0.099,-0.664 0.129,-0.682 0.162,-0.695C0.195,-0.708 0.233,-0.714 0.278,-0.714C0.307,-0.714 0.333,-0.71 0.357,-0.702C0.381,-0.694 0.402,-0.682 0.419,-0.667C0.436,-0.652 0.45,-0.632 0.46,-0.61C0.47,-0.587 0.475,-0.56 0.475,-0.529Z" style="fill-rule:nonzero;"/>
                </g>
            </g>
            <g transform="matrix(1,0,0,1,67.2995,-498.008)">
                <g transform="matrix(48,0,0,48,1803.74,8792.71)">
                    <path d="M0.23,-0.238L0.247,-0.161L0.252,-0.161L0.266,-0.24L0.351,-0.5L0.491,-0.5L0.282,0.005L0.203,0.005L-0.014,-0.5L0.137,-0.5L0.23,-0.238Z" style="fill-rule:nonzero;"/>
                </g>
                <g transform="matrix(27.984,0,0,27.984,1826.63,8808.69)">
                    <path d="M0.241,-0.096C0.282,-0.096 0.314,-0.107 0.336,-0.129C0.357,-0.151 0.368,-0.178 0.368,-0.209C0.368,-0.247 0.357,-0.275 0.334,-0.293C0.311,-0.311 0.276,-0.32 0.227,-0.32L0.155,-0.32L0.155,-0.389L0.276,-0.554L0.333,-0.599L0.254,-0.59L0.086,-0.59L0.086,-0.7L0.468,-0.7L0.468,-0.629L0.327,-0.44L0.283,-0.413L0.283,-0.408L0.325,-0.414C0.348,-0.412 0.371,-0.407 0.392,-0.398C0.413,-0.389 0.431,-0.377 0.447,-0.361C0.462,-0.344 0.475,-0.324 0.484,-0.3C0.493,-0.276 0.498,-0.248 0.498,-0.217C0.498,-0.178 0.492,-0.144 0.479,-0.115C0.466,-0.086 0.448,-0.062 0.425,-0.043C0.401,-0.024 0.375,-0.009 0.344,-0C0.313,0.009 0.28,0.014 0.245,0.014C0.216,0.014 0.185,0.011 0.154,0.006C0.123,0.001 0.097,-0.007 0.078,-0.017L0.113,-0.125C0.13,-0.116 0.15,-0.109 0.171,-0.104C0.192,-0.099 0.215,-0.096 0.241,-0.096Z" style="fill-rule:nonzero;"/>
                </g>
            </g>
            <g transform="matrix(1,0,0,1,-125.942,-159.462)">
                <g transform="matrix(48,0,0,48,1803.74,8792.71)">
                    <path d="M0.23,-0.238L0.247,-0.161L0.252,-0.161L0.266,-0.24L0.351,-0.5L0.491,-0.5L0.282,0.005L0.203,0.005L-0.014,-0.5L0.137,-0.5L0.23,-0.238Z" style="fill-rule:nonzero;"/>
                </g>
                <g transform="matrix(27.984,0,0,27.984,1826.63,8808.69)">
                    <path d="M0.553,-0.195L0.443,-0.195L0.443,-0L0.322,-0L0.322,-0.195L0.019,-0.195L0.019,-0.269L0.336,-0.705L0.443,-0.705L0.443,-0.299L0.553,-0.299L0.553,-0.195ZM0.322,-0.452L0.331,-0.536L0.327,-0.536L0.293,-0.464L0.189,-0.329L0.139,-0.291L0.203,-0.299L0.322,-0.299L0.322,-0.452Z" style="fill-rule:nonzero;"/>
                </g>
            </g>
            <g transform="matrix(1,0,0,1,-86.8984,-275.083)">
                <g transform="matrix(48,0,0,48,1803.74,8792.71)">
                    <path d="M0.23,-0.238L0.247,-0.161L0.252,-0.161L0.266,-0.24L0.351,-0.5L0.491,-0.5L0.282,0.005L0.203,0.005L-0.014,-0.5L0.137,-0.5L0.23,-0.238Z" style="fill-rule:nonzero;"/>
                </g>
                <g transform="matrix(27.984,0,0,27.984,1826.63,8808.69)">
                    <path d="M0.22,-0.101C0.264,-0.101 0.298,-0.112 0.321,-0.133C0.344,-0.154 0.356,-0.184 0.356,-0.221C0.356,-0.261 0.342,-0.29 0.315,-0.309C0.288,-0.328 0.249,-0.337 0.198,-0.337L0.119,-0.334L0.119,-0.7L0.463,-0.7L0.463,-0.578L0.231,-0.578L0.231,-0.443L0.272,-0.447C0.305,-0.446 0.334,-0.44 0.361,-0.429C0.387,-0.418 0.409,-0.404 0.428,-0.385C0.447,-0.366 0.461,-0.342 0.471,-0.316C0.481,-0.289 0.486,-0.258 0.486,-0.225C0.486,-0.186 0.479,-0.151 0.466,-0.121C0.453,-0.091 0.434,-0.066 0.411,-0.046C0.387,-0.026 0.359,-0.011 0.327,-0.001C0.295,0.009 0.26,0.014 0.222,0.014C0.192,0.014 0.164,0.012 0.137,0.007C0.11,0.002 0.087,-0.005 0.068,-0.014L0.103,-0.122C0.118,-0.115 0.135,-0.11 0.154,-0.107C0.172,-0.103 0.194,-0.101 0.22,-0.101Z" style="fill-rule:nonzero;"/>
                </g>
            </g>
            <g transform="matrix(1,0,0,1,-20.3151,-315.459)">
                <g transform="matrix(48,0,0,48,1803.74,8792.71)">
                    <path d="M0.23,-0.238L0.247,-0.161L0.252,-0.161L0.266,-0.24L0.351,-0.5L0.491,-0.5L0.282,0.005L0.203,0.005L-0.014,-0.5L0.137,-0.5L0.23,-0.238Z" style="fill-rule:nonzero;"/>
                </g>
                <g transform="matrix(27.984,0,0,27.984,1826.63,8808.69)">
                    <path d="M0.52,-0.217C0.52,-0.184 0.515,-0.154 0.504,-0.126C0.493,-0.098 0.477,-0.074 0.457,-0.053C0.437,-0.032 0.413,-0.016 0.385,-0.004C0.356,0.008 0.325,0.014 0.291,0.014C0.256,0.014 0.225,0.009 0.196,-0.003C0.167,-0.014 0.141,-0.03 0.12,-0.052C0.099,-0.074 0.082,-0.102 0.07,-0.135C0.058,-0.168 0.052,-0.207 0.052,-0.251C0.052,-0.317 0.062,-0.377 0.081,-0.43C0.099,-0.483 0.125,-0.53 0.158,-0.57C0.19,-0.609 0.228,-0.641 0.271,-0.666C0.314,-0.69 0.359,-0.706 0.407,-0.714L0.436,-0.611C0.403,-0.606 0.372,-0.595 0.344,-0.58C0.316,-0.565 0.291,-0.546 0.27,-0.525C0.248,-0.504 0.23,-0.48 0.215,-0.454C0.2,-0.427 0.189,-0.4 0.183,-0.372C0.196,-0.389 0.214,-0.403 0.235,-0.415C0.256,-0.426 0.283,-0.432 0.315,-0.432C0.345,-0.432 0.373,-0.427 0.398,-0.418C0.423,-0.409 0.445,-0.395 0.463,-0.377C0.481,-0.358 0.495,-0.336 0.505,-0.309C0.515,-0.282 0.52,-0.252 0.52,-0.217ZM0.394,-0.21C0.394,-0.285 0.357,-0.322 0.284,-0.322C0.257,-0.322 0.235,-0.316 0.217,-0.304C0.198,-0.292 0.185,-0.278 0.178,-0.262C0.177,-0.255 0.176,-0.248 0.176,-0.243L0.176,-0.227C0.176,-0.211 0.178,-0.195 0.183,-0.18C0.188,-0.164 0.195,-0.15 0.204,-0.138C0.213,-0.125 0.224,-0.115 0.238,-0.108C0.252,-0.1 0.269,-0.096 0.288,-0.096C0.319,-0.096 0.345,-0.107 0.365,-0.128C0.384,-0.149 0.394,-0.177 0.394,-0.21Z" style="fill-rule:nonzero;"/>
                </g>
            </g>
            <g transform="matrix(1,0,0,1,108.996,-401.443)">
                <g transform="matrix(48,0,0,48,1803.74,8792.71)">
                    <path d="M0.23,-0.238L0.247,-0.161L0.252,-0.161L0.266,-0.24L0.351,-0.5L0.491,-0.5L0.282,0.005L0.203,0.005L-0.014,-0.5L0.137,-0.5L0.23,-0.238Z" style="fill-rule:nonzero;"/>
                </g>
                <g transform="matrix(27.984,0,0,27.984,1826.63,8808.69)">
                    <path d="M0.104,-0L0.333,-0.539L0.377,-0.588L0.317,-0.578L0.06,-0.578L0.06,-0.7L0.511,-0.7L0.511,-0.662L0.231,-0L0.104,-0Z" style="fill-rule:nonzero;"/>
                </g>
            </g>
            <g transform="matrix(1,0,0,1,174.684,-275.083)">
                <g transform="matrix(48,0,0,48,1803.74,8792.71)">
                    <path d="M0.23,-0.238L0.247,-0.161L0.252,-0.161L0.266,-0.24L0.351,-0.5L0.491,-0.5L0.282,0.005L0.203,0.005L-0.014,-0.5L0.137,-0.5L0.23,-0.238Z" style="fill-rule:nonzero;"/>
                </g>
                <g transform="matrix(27.984,0,0,27.984,1826.63,8808.69)">
                    <path d="M0.061,-0.171C0.061,-0.194 0.064,-0.215 0.07,-0.234C0.076,-0.252 0.085,-0.269 0.096,-0.284C0.107,-0.299 0.12,-0.312 0.135,-0.324C0.15,-0.336 0.166,-0.347 0.183,-0.357C0.15,-0.378 0.125,-0.401 0.106,-0.429C0.087,-0.456 0.078,-0.489 0.078,-0.529C0.078,-0.555 0.083,-0.579 0.093,-0.602C0.102,-0.625 0.116,-0.644 0.135,-0.661C0.153,-0.678 0.175,-0.691 0.201,-0.7C0.227,-0.709 0.256,-0.714 0.289,-0.714C0.319,-0.714 0.346,-0.71 0.371,-0.702C0.396,-0.694 0.417,-0.683 0.435,-0.668C0.452,-0.653 0.466,-0.636 0.476,-0.615C0.485,-0.594 0.49,-0.57 0.49,-0.545C0.49,-0.506 0.481,-0.472 0.464,-0.445C0.446,-0.418 0.42,-0.393 0.386,-0.37C0.426,-0.347 0.456,-0.321 0.477,-0.293C0.497,-0.265 0.507,-0.229 0.507,-0.185C0.507,-0.155 0.501,-0.128 0.491,-0.104C0.48,-0.079 0.464,-0.058 0.444,-0.041C0.424,-0.024 0.4,-0.01 0.372,-0.001C0.344,0.009 0.313,0.014 0.28,0.014C0.247,0.014 0.217,0.01 0.19,0.001C0.163,-0.009 0.139,-0.021 0.121,-0.037C0.101,-0.053 0.087,-0.072 0.077,-0.095C0.066,-0.118 0.061,-0.143 0.061,-0.171ZM0.383,-0.184C0.383,-0.199 0.379,-0.213 0.372,-0.226C0.365,-0.239 0.355,-0.25 0.344,-0.261C0.332,-0.271 0.319,-0.28 0.305,-0.289C0.29,-0.298 0.276,-0.306 0.261,-0.314C0.23,-0.296 0.208,-0.277 0.197,-0.256C0.185,-0.235 0.179,-0.214 0.179,-0.193C0.179,-0.166 0.188,-0.143 0.207,-0.125C0.225,-0.106 0.25,-0.096 0.283,-0.096C0.313,-0.096 0.337,-0.103 0.356,-0.118C0.374,-0.133 0.383,-0.155 0.383,-0.184ZM0.202,-0.527C0.202,-0.511 0.205,-0.497 0.211,-0.485C0.217,-0.473 0.225,-0.463 0.236,-0.454C0.246,-0.444 0.258,-0.436 0.271,-0.429C0.284,-0.421 0.297,-0.414 0.311,-0.407C0.351,-0.441 0.371,-0.478 0.371,-0.519C0.371,-0.547 0.363,-0.568 0.347,-0.583C0.33,-0.597 0.31,-0.604 0.287,-0.604C0.258,-0.604 0.236,-0.596 0.223,-0.581C0.209,-0.566 0.202,-0.548 0.202,-0.527Z" style="fill-rule:nonzero;"/>
                </g>
            </g>
            <g transform="matrix(1,0,0,1,174.684,-157.433)">
                <g transform="matrix(48,0,0,48,1803.74,8792.71)">
                    <path d="M0.23,-0.238L0.247,-0.161L0.252,-0.161L0.266,-0.24L0.351,-0.5L0.491,-0.5L0.282,0.005L0.203,0.005L-0.014,-0.5L0.137,-0.5L0.23,-0.238Z" style="fill-rule:nonzero;"/>
                </g>
                <g transform="matrix(27.984,0,0,27.984,1826.63,8808.69)">
                    <path d="M0.045,-0.481C0.045,-0.515 0.05,-0.546 0.061,-0.575C0.071,-0.604 0.086,-0.628 0.106,-0.649C0.125,-0.669 0.149,-0.685 0.178,-0.697C0.206,-0.708 0.238,-0.714 0.275,-0.714C0.35,-0.714 0.409,-0.692 0.453,-0.647C0.496,-0.602 0.517,-0.536 0.517,-0.45C0.517,-0.373 0.507,-0.306 0.488,-0.25C0.468,-0.193 0.442,-0.146 0.409,-0.109C0.376,-0.071 0.337,-0.042 0.294,-0.022C0.251,-0.002 0.205,0.01 0.157,0.014L0.129,-0.088C0.166,-0.093 0.198,-0.102 0.227,-0.115C0.256,-0.128 0.28,-0.145 0.301,-0.165C0.322,-0.184 0.339,-0.207 0.352,-0.232C0.365,-0.257 0.374,-0.283 0.379,-0.312C0.363,-0.295 0.346,-0.283 0.328,-0.276C0.309,-0.269 0.285,-0.266 0.254,-0.266C0.229,-0.266 0.204,-0.27 0.179,-0.279C0.154,-0.288 0.131,-0.301 0.112,-0.319C0.092,-0.336 0.076,-0.359 0.064,-0.386C0.051,-0.413 0.045,-0.444 0.045,-0.481ZM0.171,-0.488C0.171,-0.45 0.182,-0.421 0.203,-0.402C0.224,-0.383 0.251,-0.373 0.283,-0.373C0.31,-0.373 0.333,-0.377 0.35,-0.386C0.367,-0.395 0.381,-0.405 0.39,-0.418C0.392,-0.432 0.393,-0.445 0.393,-0.458C0.393,-0.477 0.391,-0.495 0.386,-0.513C0.381,-0.531 0.374,-0.547 0.365,-0.561C0.355,-0.575 0.343,-0.586 0.328,-0.595C0.313,-0.603 0.295,-0.607 0.274,-0.607C0.241,-0.607 0.216,-0.596 0.198,-0.576C0.18,-0.555 0.171,-0.525 0.171,-0.488Z" style="fill-rule:nonzero;"/>
                </g>
            </g>
            <g transform="matrix(1,0,0,1,116.304,-107.41)">
                <g transform="matrix(48,0,0,48,1702.5,8792.71)">
                    <path d="M0.123,-0.096C0.123,-0.13 0.116,-0.153 0.102,-0.166C0.088,-0.179 0.068,-0.185 0.043,-0.185L0.043,-0.285C0.068,-0.285 0.088,-0.292 0.102,-0.306C0.116,-0.319 0.123,-0.341 0.123,-0.37L0.123,-0.579C0.123,-0.615 0.131,-0.644 0.149,-0.667C0.166,-0.69 0.193,-0.701 0.23,-0.701L0.35,-0.701L0.35,-0.591L0.3,-0.591C0.282,-0.591 0.269,-0.586 0.261,-0.577C0.252,-0.568 0.248,-0.552 0.248,-0.531L0.248,-0.336C0.248,-0.307 0.241,-0.284 0.227,-0.27C0.213,-0.255 0.197,-0.245 0.178,-0.242L0.178,-0.232C0.196,-0.229 0.212,-0.219 0.227,-0.202C0.241,-0.185 0.248,-0.162 0.248,-0.134L0.248,0.06C0.248,0.081 0.252,0.097 0.26,0.106C0.268,0.115 0.282,0.12 0.301,0.12L0.35,0.12L0.35,0.23L0.23,0.23C0.195,0.23 0.169,0.22 0.151,0.199C0.132,0.178 0.123,0.148 0.123,0.109L0.123,-0.096Z" style="fill:rgb(45,231,231);fill-rule:nonzero;"/>
                </g>
                <g transform="matrix(48,0,0,48,1720.31,8792.71)">
                    <path d="M0.23,-0.238L0.247,-0.161L0.252,-0.161L0.266,-0.24L0.351,-0.5L0.491,-0.5L0.282,0.005L0.203,0.005L-0.014,-0.5L0.137,-0.5L0.23,-0.238Z" style="fill:rgb(45,231,231);fill-rule:nonzero;"/>
                </g>
                <g transform="matrix(27.984,0,0,27.984,1743.21,8808.69)">
                    <path d="M0.52,-0.217C0.52,-0.184 0.515,-0.154 0.504,-0.126C0.493,-0.098 0.477,-0.074 0.457,-0.053C0.437,-0.032 0.413,-0.016 0.385,-0.004C0.356,0.008 0.325,0.014 0.291,0.014C0.256,0.014 0.225,0.009 0.196,-0.003C0.167,-0.014 0.141,-0.03 0.12,-0.052C0.099,-0.074 0.082,-0.102 0.07,-0.135C0.058,-0.168 0.052,-0.207 0.052,-0.251C0.052,-0.317 0.062,-0.377 0.081,-0.43C0.099,-0.483 0.125,-0.53 0.158,-0.57C0.19,-0.609 0.228,-0.641 0.271,-0.666C0.314,-0.69 0.359,-0.706 0.407,-0.714L0.436,-0.611C0.403,-0.606 0.372,-0.595 0.344,-0.58C0.316,-0.565 0.291,-0.546 0.27,-0.525C0.248,-0.504 0.23,-0.48 0.215,-0.454C0.2,-0.427 0.189,-0.4 0.183,-0.372C0.196,-0.389 0.214,-0.403 0.235,-0.415C0.256,-0.426 0.283,-0.432 0.315,-0.432C0.345,-0.432 0.373,-0.427 0.398,-0.418C0.423,-0.409 0.445,-0.395 0.463,-0.377C0.481,-0.358 0.495,-0.336 0.505,-0.309C0.515,-0.282 0.52,-0.252 0.52,-0.217ZM0.394,-0.21C0.394,-0.285 0.357,-0.322 0.284,-0.322C0.257,-0.322 0.235,-0.316 0.217,-0.304C0.198,-0.292 0.185,-0.278 0.178,-0.262C0.177,-0.255 0.176,-0.248 0.176,-0.243L0.176,-0.227C0.176,-0.211 0.178,-0.195 0.183,-0.18C0.188,-0.164 0.195,-0.15 0.204,-0.138C0.213,-0.125 0.224,-0.115 0.238,-0.108C0.252,-0.1 0.269,-0.096 0.288,-0.096C0.319,-0.096 0.345,-0.107 0.365,-0.128C0.384,-0.149 0.394,-0.177 0.394,-0.21Z" style="fill:rgb(45,231,231);fill-rule:nonzero;"/>
                </g>
                <g transform="matrix(48,0,0,48,1766.15,8792.71)">
                    <path d="M0.042,-0.064C0.042,-0.087 0.05,-0.105 0.065,-0.118C0.08,-0.131 0.098,-0.138 0.12,-0.138C0.148,-0.138 0.17,-0.129 0.186,-0.11C0.202,-0.091 0.21,-0.067 0.21,-0.036C0.21,-0.006 0.205,0.02 0.196,0.042C0.187,0.063 0.175,0.081 0.162,0.096C0.148,0.11 0.133,0.121 0.118,0.13C0.102,0.138 0.088,0.144 0.075,0.148L0.037,0.094C0.055,0.087 0.071,0.075 0.084,0.058C0.097,0.041 0.105,0.024 0.106,0.005C0.091,0.007 0.076,0.002 0.063,-0.009C0.049,-0.02 0.042,-0.039 0.042,-0.064Z" style="fill:rgb(45,231,231);fill-rule:nonzero;"/>
                </g>
                <g transform="matrix(48,0,0,48,1785.93,8792.71)">
                    <path d="M0.23,-0.238L0.247,-0.161L0.252,-0.161L0.266,-0.24L0.351,-0.5L0.491,-0.5L0.282,0.005L0.203,0.005L-0.014,-0.5L0.137,-0.5L0.23,-0.238Z" style="fill:rgb(45,231,231);fill-rule:nonzero;"/>
                </g>
                <g transform="matrix(27.984,0,0,27.984,1808.83,8808.69)">
                    <path d="M0.061,-0.171C0.061,-0.194 0.064,-0.215 0.07,-0.234C0.076,-0.252 0.085,-0.269 0.096,-0.284C0.107,-0.299 0.12,-0.312 0.135,-0.324C0.15,-0.336 0.166,-0.347 0.183,-0.357C0.15,-0.378 0.125,-0.401 0.106,-0.429C0.087,-0.456 0.078,-0.489 0.078,-0.529C0.078,-0.555 0.083,-0.579 0.093,-0.602C0.102,-0.625 0.116,-0.644 0.135,-0.661C0.153,-0.678 0.175,-0.691 0.201,-0.7C0.227,-0.709 0.256,-0.714 0.289,-0.714C0.319,-0.714 0.346,-0.71 0.371,-0.702C0.396,-0.694 0.417,-0.683 0.435,-0.668C0.452,-0.653 0.466,-0.636 0.476,-0.615C0.485,-0.594 0.49,-0.57 0.49,-0.545C0.49,-0.506 0.481,-0.472 0.464,-0.445C0.446,-0.418 0.42,-0.393 0.386,-0.37C0.426,-0.347 0.456,-0.321 0.477,-0.293C0.497,-0.265 0.507,-0.229 0.507,-0.185C0.507,-0.155 0.501,-0.128 0.491,-0.104C0.48,-0.079 0.464,-0.058 0.444,-0.041C0.424,-0.024 0.4,-0.01 0.372,-0.001C0.344,0.009 0.313,0.014 0.28,0.014C0.247,0.014 0.217,0.01 0.19,0.001C0.163,-0.009 0.139,-0.021 0.121,-0.037C0.101,-0.053 0.087,-0.072 0.077,-0.095C0.066,-0.118 0.061,-0.143 0.061,-0.171ZM0.383,-0.184C0.383,-0.199 0.379,-0.213 0.372,-0.226C0.365,-0.239 0.355,-0.25 0.344,-0.261C0.332,-0.271 0.319,-0.28 0.305,-0.289C0.29,-0.298 0.276,-0.306 0.261,-0.314C0.23,-0.296 0.208,-0.277 0.197,-0.256C0.185,-0.235 0.179,-0.214 0.179,-0.193C0.179,-0.166 0.188,-0.143 0.207,-0.125C0.225,-0.106 0.25,-0.096 0.283,-0.096C0.313,-0.096 0.337,-0.103 0.356,-0.118C0.374,-0.133 0.383,-0.155 0.383,-0.184ZM0.202,-0.527C0.202,-0.511 0.205,-0.497 0.211,-0.485C0.217,-0.473 0.225,-0.463 0.236,-0.454C0.246,-0.444 0.258,-0.436 0.271,-0.429C0.284,-0.421 0.297,-0.414 0.311,-0.407C0.351,-0.441 0.371,-0.478 0.371,-0.519C0.371,-0.547 0.363,-0.568 0.347,-0.583C0.33,-0.597 0.31,-0.604 0.287,-0.604C0.258,-0.604 0.236,-0.596 0.223,-0.581C0.209,-0.566 0.202,-0.548 0.202,-0.527Z" style="fill:rgb(45,231,231);fill-rule:nonzero;"/>
                </g>
                <g transform="matrix(48,0,0,48,1824.69,8792.71)">
                    <path d="M0.261,-0.375C0.261,-0.341 0.268,-0.318 0.282,-0.305C0.296,-0.292 0.316,-0.286 0.341,-0.286L0.341,-0.186C0.316,-0.186 0.296,-0.179 0.282,-0.166C0.268,-0.152 0.261,-0.13 0.261,-0.101L0.261,0.108C0.261,0.144 0.252,0.173 0.235,0.196C0.217,0.219 0.189,0.23 0.152,0.23L0.035,0.23L0.035,0.12L0.085,0.12C0.103,0.12 0.116,0.115 0.125,0.107C0.133,0.097 0.137,0.082 0.137,0.06L0.137,-0.135C0.137,-0.164 0.144,-0.187 0.158,-0.202C0.172,-0.217 0.188,-0.226 0.207,-0.229L0.207,-0.239C0.189,-0.242 0.173,-0.252 0.159,-0.269C0.144,-0.286 0.137,-0.309 0.137,-0.337L0.137,-0.531C0.137,-0.552 0.133,-0.567 0.125,-0.577C0.117,-0.586 0.103,-0.591 0.084,-0.591L0.035,-0.591L0.035,-0.701L0.154,-0.701C0.189,-0.701 0.216,-0.691 0.234,-0.67C0.252,-0.649 0.261,-0.619 0.261,-0.58L0.261,-0.375Z" style="fill:rgb(45,231,231);fill-rule:nonzero;"/>
                </g>
            </g>
            <g transform="matrix(1,0,0,1,309.139,-159.854)">
                <g transform="matrix(48,0,0,48,1787.87,8792.71)">
                    <path d="M0.23,-0.238L0.247,-0.161L0.252,-0.161L0.266,-0.24L0.351,-0.5L0.491,-0.5L0.282,0.005L0.203,0.005L-0.014,-0.5L0.137,-0.5L0.23,-0.238Z" style="fill-rule:nonzero;"/>
                </g>
                <g transform="matrix(27.984,0,0,27.984,1810.77,8808.69)">
                    <path d="M0.101,-0.11L0.24,-0.11L0.24,-0.505L0.255,-0.573L0.207,-0.514L0.118,-0.453L0.063,-0.528L0.291,-0.712L0.364,-0.712L0.364,-0.11L0.5,-0.11L0.5,-0L0.101,-0L0.101,-0.11Z" style="fill-rule:nonzero;"/>
                </g>
                <g transform="matrix(27.984,0,0,27.984,1826.63,8808.69)">
                    <path d="M0.04,-0.351C0.04,-0.474 0.061,-0.565 0.103,-0.625C0.145,-0.684 0.205,-0.714 0.284,-0.714C0.368,-0.714 0.43,-0.685 0.469,-0.626C0.508,-0.567 0.528,-0.475 0.528,-0.351C0.528,-0.228 0.507,-0.136 0.465,-0.076C0.422,-0.016 0.362,0.014 0.283,0.014C0.2,0.014 0.138,-0.018 0.099,-0.081C0.06,-0.144 0.04,-0.234 0.04,-0.351ZM0.17,-0.351C0.17,-0.27 0.179,-0.207 0.197,-0.163C0.214,-0.118 0.243,-0.096 0.284,-0.096C0.323,-0.096 0.352,-0.116 0.371,-0.157C0.389,-0.198 0.398,-0.262 0.398,-0.351C0.398,-0.432 0.389,-0.494 0.372,-0.538C0.355,-0.582 0.325,-0.604 0.283,-0.604C0.243,-0.604 0.214,-0.583 0.197,-0.542C0.179,-0.501 0.17,-0.437 0.17,-0.351Z" style="fill-rule:nonzero;"/>
                </g>
            </g>
            <g transform="matrix(1,0,0,1,228.887,-347.006)">
                <g transform="matrix(48,0,0,48,1787.87,8792.71)">
                    <path d="M0.23,-0.238L0.247,-0.161L0.252,-0.161L0.266,-0.24L0.351,-0.5L0.491,-0.5L0.282,0.005L0.203,0.005L-0.014,-0.5L0.137,-0.5L0.23,-0.238Z" style="fill-rule:nonzero;"/>
                </g>
                <g transform="matrix(27.984,0,0,27.984,1810.77,8808.69)">
                    <path d="M0.101,-0.11L0.24,-0.11L0.24,-0.505L0.255,-0.573L0.207,-0.514L0.118,-0.453L0.063,-0.528L0.291,-0.712L0.364,-0.712L0.364,-0.11L0.5,-0.11L0.5,-0L0.101,-0L0.101,-0.11Z" style="fill-rule:nonzero;"/>
                </g>
                <g transform="matrix(27.984,0,0,27.984,1826.63,8808.69)">
                    <path d="M0.101,-0.11L0.24,-0.11L0.24,-0.505L0.255,-0.573L0.207,-0.514L0.118,-0.453L0.063,-0.528L0.291,-0.712L0.364,-0.712L0.364,-0.11L0.5,-0.11L0.5,-0L0.101,-0L0.101,-0.11Z" style="fill-rule:nonzero;"/>
                </g>
            </g>
            <g transform="matrix(1,0,0,1,307.24,-381.451)">
                <g transform="matrix(48,0,0,48,1787.87,8792.71)">
                    <path d="M0.23,-0.238L0.247,-0.161L0.252,-0.161L0.266,-0.24L0.351,-0.5L0.491,-0.5L0.282,0.005L0.203,0.005L-0.014,-0.5L0.137,-0.5L0.23,-0.238Z" style="fill-rule:nonzero;"/>
                </g>
                <g transform="matrix(27.984,0,0,27.984,1810.77,8808.69)">
                    <path d="M0.101,-0.11L0.24,-0.11L0.24,-0.505L0.255,-0.573L0.207,-0.514L0.118,-0.453L0.063,-0.528L0.291,-0.712L0.364,-0.712L0.364,-0.11L0.5,-0.11L0.5,-0L0.101,-0L0.101,-0.11Z" style="fill-rule:nonzero;"/>
                </g>
                <g transform="matrix(27.984,0,0,27.984,1826.63,8808.69)">
                    <path d="M0.475,-0.529C0.475,-0.495 0.469,-0.461 0.457,-0.426C0.444,-0.391 0.429,-0.357 0.41,-0.324C0.391,-0.291 0.37,-0.259 0.347,-0.228C0.324,-0.197 0.301,-0.168 0.279,-0.142L0.226,-0.101L0.226,-0.096L0.298,-0.11L0.49,-0.11L0.49,-0L0.069,-0L0.069,-0.067C0.085,-0.084 0.103,-0.103 0.123,-0.126C0.143,-0.148 0.163,-0.171 0.184,-0.197C0.204,-0.222 0.224,-0.247 0.243,-0.274C0.262,-0.301 0.28,-0.327 0.295,-0.355C0.31,-0.382 0.323,-0.408 0.332,-0.433C0.341,-0.458 0.345,-0.482 0.345,-0.505C0.345,-0.532 0.337,-0.555 0.322,-0.573C0.306,-0.59 0.281,-0.599 0.247,-0.599C0.226,-0.599 0.204,-0.595 0.182,-0.586C0.159,-0.577 0.14,-0.565 0.125,-0.551L0.073,-0.643C0.099,-0.664 0.129,-0.682 0.162,-0.695C0.195,-0.708 0.233,-0.714 0.278,-0.714C0.307,-0.714 0.333,-0.71 0.357,-0.702C0.381,-0.694 0.402,-0.682 0.419,-0.667C0.436,-0.652 0.45,-0.632 0.46,-0.61C0.47,-0.587 0.475,-0.56 0.475,-0.529Z" style="fill-rule:nonzero;"/>
                </g>
            </g>
        </g>
    </g>
</svg>
