<?xml version="1.0" encoding="UTF-8" standalone="no"?>
<!DOCTYPE svg PUBLIC "-//W3C//DTD SVG 1.1//EN" "http://www.w3.org/Graphics/SVG/1.1/DTD/svg11.dtd">
<svg width="100%" height="100%" viewBox="0 0 1026 588" version="1.1" xmlns="http://www.w3.org/2000/svg" xmlns:xlink="http://www.w3.org/1999/xlink" xml:space="preserve" xmlns:serif="http://www.serif.com/" style="fill-rule:evenodd;clip-rule:evenodd;stroke-linejoin:round;stroke-miterlimit:10;">
    <g transform="matrix(1,0,0,1,-8896,-6637)">
        <rect id="Artboard5" x="8854" y="4804" width="1160" height="3259" style="fill:none;"/>
        <g id="Artboard51" serif:id="Artboard5">
            <g transform="matrix(1,0,0,0.694334,6,2174.81)">
                <g transform="matrix(1,-0,-0,1.44023,8890,6426.57)">
                    <path d="M500,46.739L513.5,19.739L527,46.739L500,46.739Z"/>
                    <path d="M513.5,478L513.5,41.339" style="fill:none;stroke:black;stroke-width:9px;"/>
                </g>
            </g>
            <g transform="matrix(1,0,0,0.697813,0,2169.91)">
                <path d="M8912,7045C9333.41,7045 9257.47,6542 9410,6542C9575.53,6542 9448.49,7045 9895,7045" style="fill:none;stroke:rgb(39,179,0);stroke-width:15.08px;"/>
            </g>
            <g>
                <path d="M8912,7115L9895,7115" style="fill:none;"/>
                <g transform="matrix(1,-0,-0,1,8896,6637)">
                    <path d="M972,464.5L999,478L972,491.5L972,464.5Z"/>
                    <path d="M16,478L977.4,478" style="fill:none;stroke:black;stroke-width:9px;"/>
                </g>
            </g>
            <g>
                <g transform="matrix(72,0,0,72,9818.57,7192.33)">
                    <path d="M0.306,-0.7L0.515,-0.7L0.515,-0.268C0.515,-0.218 0.518,-0.169 0.523,-0.12C0.523,-0.117 0.523,-0.113 0.524,-0.11L0.588,-0.11L0.588,-0L0.427,-0L0.414,-0.064L0.41,-0.064C0.403,-0.052 0.394,-0.041 0.383,-0.032C0.372,-0.023 0.359,-0.015 0.345,-0.008C0.331,-0 0.316,0.005 0.299,0.009C0.282,0.012 0.266,0.014 0.249,0.014C0.218,0.014 0.188,0.009 0.161,-0.001C0.133,-0.011 0.109,-0.027 0.088,-0.048C0.067,-0.069 0.051,-0.095 0.039,-0.128C0.027,-0.16 0.021,-0.198 0.021,-0.242C0.021,-0.285 0.028,-0.323 0.041,-0.356C0.054,-0.389 0.071,-0.418 0.095,-0.441C0.118,-0.464 0.145,-0.481 0.176,-0.494C0.207,-0.506 0.242,-0.512 0.279,-0.512C0.3,-0.512 0.319,-0.511 0.338,-0.509C0.356,-0.506 0.372,-0.502 0.385,-0.497L0.385,-0.59L0.306,-0.59L0.306,-0.7ZM0.279,-0.096C0.304,-0.096 0.327,-0.102 0.347,-0.115C0.366,-0.127 0.379,-0.145 0.385,-0.168L0.385,-0.38C0.376,-0.387 0.363,-0.393 0.347,-0.397C0.33,-0.4 0.313,-0.402 0.295,-0.402C0.277,-0.402 0.26,-0.399 0.243,-0.393C0.226,-0.387 0.211,-0.378 0.198,-0.365C0.185,-0.352 0.174,-0.335 0.167,-0.314C0.159,-0.293 0.155,-0.268 0.155,-0.238C0.155,-0.195 0.166,-0.161 0.187,-0.135C0.208,-0.109 0.239,-0.096 0.279,-0.096Z" style="fill-rule:nonzero;"/>
                </g>
                <g transform="matrix(41.976,0,0,41.976,9861.77,7216.3)">
                    <path d="M0.059,-0.11L0.235,-0.11L0.235,-0.39L0.059,-0.39L0.059,-0.5L0.365,-0.5L0.365,-0.11L0.55,-0.11L0.55,-0L0.059,-0L0.059,-0.11ZM0.211,-0.636C0.211,-0.657 0.219,-0.674 0.234,-0.689C0.249,-0.704 0.271,-0.711 0.298,-0.711C0.326,-0.711 0.348,-0.704 0.365,-0.689C0.382,-0.674 0.39,-0.657 0.39,-0.636C0.39,-0.615 0.382,-0.597 0.365,-0.584C0.348,-0.57 0.326,-0.563 0.298,-0.563C0.271,-0.563 0.249,-0.57 0.234,-0.584C0.219,-0.597 0.211,-0.615 0.211,-0.636Z" style="fill-rule:nonzero;"/>
                </g>
                <g transform="matrix(41.976,0,0,41.976,9886.96,7216.3)">
                    <path d="M0.094,-0.5L0.462,-0.5L0.462,-0.039C0.462,0.038 0.442,0.098 0.402,0.142C0.362,0.186 0.302,0.208 0.222,0.208C0.189,0.208 0.158,0.203 0.129,0.193C0.1,0.183 0.074,0.168 0.053,0.149L0.111,0.053C0.118,0.059 0.131,0.067 0.151,0.076C0.169,0.085 0.191,0.089 0.215,0.089C0.231,0.089 0.246,0.087 0.261,0.082C0.275,0.077 0.287,0.068 0.298,0.057C0.309,0.045 0.317,0.03 0.323,0.011C0.329,-0.008 0.332,-0.031 0.332,-0.059L0.332,-0.39L0.094,-0.39L0.094,-0.5ZM0.257,-0.636C0.257,-0.657 0.265,-0.674 0.28,-0.689C0.295,-0.704 0.317,-0.711 0.344,-0.711C0.372,-0.711 0.394,-0.704 0.411,-0.689C0.428,-0.674 0.436,-0.657 0.436,-0.636C0.436,-0.615 0.428,-0.597 0.411,-0.584C0.394,-0.57 0.372,-0.563 0.344,-0.563C0.317,-0.563 0.295,-0.57 0.28,-0.584C0.265,-0.597 0.257,-0.615 0.257,-0.636Z" style="fill-rule:nonzero;"/>
                </g>
            </g>
            <g transform="matrix(1,0,0,1,-371.782,-499.588)">
                <g transform="matrix(72,0,0,72,9818.57,7192.33)">
                    <path d="M0.351,-0.38L0.426,-0.161L0.431,-0.161L0.44,-0.247L0.481,-0.5L0.598,-0.5L0.497,-0L0.366,-0L0.31,-0.198L0.305,-0.198L0.242,-0L0.107,-0L0.002,-0.5L0.132,-0.5L0.181,-0.223L0.189,-0.161L0.194,-0.161L0.268,-0.38L0.351,-0.38Z" style="fill-rule:nonzero;"/>
                </g>
                <g transform="matrix(41.976,0,0,41.976,9861.77,7216.3)">
                    <path d="M0.059,-0.11L0.235,-0.11L0.235,-0.39L0.059,-0.39L0.059,-0.5L0.365,-0.5L0.365,-0.11L0.55,-0.11L0.55,-0L0.059,-0L0.059,-0.11ZM0.211,-0.636C0.211,-0.657 0.219,-0.674 0.234,-0.689C0.249,-0.704 0.271,-0.711 0.298,-0.711C0.326,-0.711 0.348,-0.704 0.365,-0.689C0.382,-0.674 0.39,-0.657 0.39,-0.636C0.39,-0.615 0.382,-0.597 0.365,-0.584C0.348,-0.57 0.326,-0.563 0.298,-0.563C0.271,-0.563 0.249,-0.57 0.234,-0.584C0.219,-0.597 0.211,-0.615 0.211,-0.636Z" style="fill-rule:nonzero;"/>
                </g>
                <g transform="matrix(41.976,0,0,41.976,9886.96,7216.3)">
                    <path d="M0.094,-0.5L0.462,-0.5L0.462,-0.039C0.462,0.038 0.442,0.098 0.402,0.142C0.362,0.186 0.302,0.208 0.222,0.208C0.189,0.208 0.158,0.203 0.129,0.193C0.1,0.183 0.074,0.168 0.053,0.149L0.111,0.053C0.118,0.059 0.131,0.067 0.151,0.076C0.169,0.085 0.191,0.089 0.215,0.089C0.231,0.089 0.246,0.087 0.261,0.082C0.275,0.077 0.287,0.068 0.298,0.057C0.309,0.045 0.317,0.03 0.323,0.011C0.329,-0.008 0.332,-0.031 0.332,-0.059L0.332,-0.39L0.094,-0.39L0.094,-0.5ZM0.257,-0.636C0.257,-0.657 0.265,-0.674 0.28,-0.689C0.295,-0.704 0.317,-0.711 0.344,-0.711C0.372,-0.711 0.394,-0.704 0.411,-0.689C0.428,-0.674 0.436,-0.657 0.436,-0.636C0.436,-0.615 0.428,-0.597 0.411,-0.584C0.394,-0.57 0.372,-0.563 0.344,-0.563C0.317,-0.563 0.295,-0.57 0.28,-0.584C0.265,-0.597 0.257,-0.615 0.257,-0.636Z" style="fill-rule:nonzero;"/>
                </g>
            </g>
            <g transform="matrix(1,0,0,1,-532.967,-476.034)">
                <g transform="matrix(72,0,0,72,9868.94,7192.33)">
                    <path d="M0.127,-0.072L0.284,-0.072L0.284,-0.598L0.124,-0.486L0.085,-0.543L0.305,-0.7L0.361,-0.7L0.361,-0.072L0.515,-0.072L0.515,-0L0.127,-0L0.127,-0.072Z" style="fill-rule:nonzero;"/>
                </g>
            </g>
            <g transform="matrix(1,0,0,1,-530.807,2.83385)">
                <g transform="matrix(72,0,0,72,9868.94,7192.33)">
                    <path d="M0.055,-0.35C0.055,-0.407 0.06,-0.458 0.07,-0.503C0.08,-0.548 0.095,-0.586 0.115,-0.617C0.135,-0.648 0.16,-0.671 0.191,-0.688C0.222,-0.704 0.258,-0.712 0.3,-0.712C0.345,-0.712 0.383,-0.704 0.414,-0.688C0.445,-0.672 0.47,-0.649 0.489,-0.618C0.508,-0.587 0.522,-0.55 0.531,-0.505C0.54,-0.46 0.544,-0.408 0.544,-0.35C0.544,-0.293 0.539,-0.243 0.529,-0.198C0.519,-0.153 0.504,-0.115 0.484,-0.084C0.464,-0.053 0.439,-0.029 0.408,-0.013C0.377,0.004 0.341,0.012 0.299,0.012C0.255,0.012 0.218,0.003 0.187,-0.015C0.156,-0.032 0.13,-0.057 0.111,-0.089C0.091,-0.121 0.077,-0.159 0.068,-0.204C0.059,-0.248 0.055,-0.297 0.055,-0.35ZM0.462,-0.35C0.462,-0.385 0.46,-0.419 0.456,-0.451L0.159,-0.18C0.17,-0.142 0.187,-0.112 0.21,-0.089C0.233,-0.066 0.262,-0.055 0.299,-0.055C0.358,-0.055 0.4,-0.079 0.425,-0.128C0.45,-0.177 0.462,-0.251 0.462,-0.35ZM0.138,-0.35C0.138,-0.333 0.139,-0.317 0.14,-0.302C0.141,-0.287 0.142,-0.272 0.143,-0.257L0.441,-0.527C0.43,-0.563 0.413,-0.592 0.391,-0.613C0.368,-0.634 0.338,-0.645 0.3,-0.645C0.241,-0.645 0.199,-0.62 0.175,-0.572C0.15,-0.523 0.138,-0.449 0.138,-0.35Z" style="fill-rule:nonzero;"/>
                </g>
            </g>
            <g transform="matrix(1,0,0,1,-416.928,-281.827)">
                <g transform="matrix(72,0,0,72,9868.94,7192.33)">
                    <path d="M0,-0.7L0.202,-0.7L0.202,-0.444L0.206,-0.444C0.222,-0.465 0.243,-0.482 0.27,-0.495C0.297,-0.508 0.328,-0.514 0.364,-0.514C0.389,-0.514 0.413,-0.511 0.434,-0.504C0.455,-0.497 0.474,-0.486 0.489,-0.471C0.504,-0.456 0.516,-0.435 0.525,-0.409C0.534,-0.382 0.538,-0.35 0.538,-0.311L0.538,-0L0.408,-0L0.408,-0.284C0.408,-0.325 0.399,-0.354 0.382,-0.372C0.365,-0.39 0.342,-0.399 0.314,-0.399C0.289,-0.399 0.267,-0.392 0.246,-0.377C0.225,-0.362 0.211,-0.342 0.202,-0.319L0.202,-0L0.072,-0L0.072,-0.59L0,-0.59L0,-0.7Z" style="fill-rule:nonzero;"/>
                </g>
            </g>
            <g transform="matrix(0.851003,0,0,1,1407.09,96)">
                <g transform="matrix(1.17508,-0,-0,1,8800.09,6541)">
                    <path d="M635,297.5L662,311L635,324.5L635,297.5Z"/>
                    <path d="M513.5,311L640.4,311" style="fill:none;stroke:black;stroke-width:9px;stroke-dasharray:9,9;"/>
                </g>
            </g>
        </g>
    </g>
</svg>
