<?xml version="1.0" encoding="UTF-8" standalone="no"?>
<!DOCTYPE svg PUBLIC "-//W3C//DTD SVG 1.1//EN" "http://www.w3.org/Graphics/SVG/1.1/DTD/svg11.dtd">
<svg width="100%" height="100%" viewBox="0 0 684 349" version="1.1" xmlns="http://www.w3.org/2000/svg" xmlns:xlink="http://www.w3.org/1999/xlink" xml:space="preserve" xmlns:serif="http://www.serif.com/" style="fill-rule:evenodd;clip-rule:evenodd;stroke-linecap:square;stroke-linejoin:round;stroke-miterlimit:10;">
    <rect id="Geometric-Operations" serif:id="Geometric Operations" x="-2911" y="-679" width="6739" height="2861" style="fill:none;"/>
    <g id="Geometric-Operations1" serif:id="Geometric Operations">
        <path d="M400.82,141.633L220.988,165.073" style="fill:none;stroke:rgb(247,0,255);stroke-width:2px;stroke-dasharray:2,6,0,0;"/>
        <path d="M564.432,176.793L220.988,165.073" style="fill:none;stroke:rgb(247,0,255);stroke-width:2px;stroke-dasharray:2,6,0,0;"/>
        <path d="M440.263,197.561L220.988,165.073" style="fill:none;stroke:rgb(247,0,255);stroke-width:2px;stroke-dasharray:2,6,0,0;"/>
        <path d="M373.603,241.307L220.988,287.061" style="fill:none;stroke:rgb(247,0,255);stroke-width:2px;stroke-dasharray:2,6,0,0;"/>
        <path d="M474.16,261.379L220.988,287.061" style="fill:none;stroke:rgb(247,0,255);stroke-width:2px;stroke-dasharray:2,6,0,0;"/>
        <path d="M540.61,333.745L220.988,287.061" style="fill:none;stroke:rgb(247,0,255);stroke-width:2px;stroke-dasharray:2,6,0,0;"/>
        <path d="M606.181,59.674L234.73,63.967" style="fill:none;stroke:rgb(247,0,255);stroke-width:2px;stroke-dasharray:2,6,0,0;"/>
        <path d="M478.619,77.096L234.73,63.967" style="fill:none;stroke:rgb(247,0,255);stroke-width:2px;stroke-dasharray:2,6,0,0;"/>
        <path d="M662.527,129.168L234.73,63.967" style="fill:none;stroke:rgb(247,0,255);stroke-width:5px;stroke-dasharray:5,15,0,0;"/>
        <circle cx="16.032" cy="105.615" r="11.72" style="fill:rgb(21,183,183);"/>
        <circle cx="117.724" cy="69.289" r="11.72" style="fill:rgb(21,183,183);"/>
        <circle cx="55.129" cy="225.144" r="11.72" style="fill:rgb(21,183,183);"/>
        <circle cx="197.414" cy="221.595" r="11.72" style="fill:rgb(21,183,183);"/>
        <circle cx="122.007" cy="164.765" r="11.72" style="fill:rgb(21,183,183);"/>
        <circle cx="220.988" cy="165.073" r="11.72" style="fill:rgb(21,183,183);"/>
        <circle cx="141.895" cy="329.137" r="11.72" style="fill:rgb(21,183,183);"/>
        <circle cx="220.988" cy="287.061" r="11.72" style="fill:rgb(21,183,183);"/>
        <circle cx="234.73" cy="63.967" r="11.72" style="fill:rgb(21,183,183);"/>
        <circle cx="478.619" cy="77.096" r="11.72" style="fill:rgb(247,0,255);"/>
        <circle cx="540.61" cy="333.745" r="11.72" style="fill:rgb(247,0,255);"/>
        <circle cx="400.82" cy="141.633" r="11.72" style="fill:rgb(247,0,255);"/>
        <circle cx="564.432" cy="176.793" r="11.72" style="fill:rgb(247,0,255);"/>
        <circle cx="474.16" cy="261.379" r="11.72" style="fill:rgb(247,0,255);"/>
        <circle cx="373.603" cy="241.307" r="11.72" style="fill:rgb(247,0,255);"/>
        <circle cx="440.263" cy="197.561" r="11.72" style="fill:rgb(247,0,255);"/>
        <circle cx="606.181" cy="59.674" r="11.72" style="fill:rgb(247,0,255);"/>
        <circle cx="662.527" cy="129.168" r="11.72" style="fill:rgb(247,0,255);"/>
        <path d="M179.452,31.292L169.66,31.292L165.676,38.732L159.052,38.732L177.724,4.892L182.332,4.892L186.7,38.732L180.412,38.732L179.452,31.292ZM172.396,26.012L179.212,26.012L178.444,18.524L178.492,13.244L178.252,13.244L176.332,18.572L172.396,26.012Z" style="fill-rule:nonzero;"/>
        <path d="M534.034,5.612C534.642,5.516 535.33,5.42 536.098,5.324C536.866,5.228 537.682,5.148 538.546,5.084C539.41,5.02 540.298,4.972 541.21,4.94C542.122,4.908 543.01,4.892 543.874,4.892C545.346,4.892 546.714,5.044 547.978,5.348C549.242,5.652 550.33,6.124 551.242,6.764C552.154,7.404 552.874,8.228 553.402,9.236C553.93,10.244 554.194,11.452 554.194,12.86C554.194,13.916 554.018,14.932 553.666,15.908C553.314,16.884 552.81,17.756 552.154,18.524C551.498,19.292 550.714,19.932 549.802,20.444C548.89,20.956 547.858,21.292 546.706,21.452L546.706,21.692C547.314,21.82 547.922,22.052 548.53,22.388C549.138,22.724 549.682,23.156 550.162,23.684C550.642,24.212 551.026,24.836 551.314,25.556C551.602,26.276 551.746,27.084 551.746,27.98C551.746,30.028 551.346,31.78 550.546,33.236C549.746,34.692 548.674,35.876 547.33,36.788C545.986,37.7 544.418,38.372 542.626,38.804C540.834,39.236 538.946,39.452 536.962,39.452L534.97,39.452C534.154,39.452 533.282,39.428 532.354,39.38C531.426,39.332 530.498,39.26 529.57,39.164C528.642,39.068 527.794,38.924 527.026,38.732L534.034,5.612ZM534.082,33.74C534.21,33.804 534.442,33.852 534.778,33.884C535.114,33.916 535.482,33.94 535.882,33.956C536.282,33.972 536.69,33.988 537.106,34.004C537.522,34.02 537.874,34.028 538.162,34.028C538.962,34.028 539.786,33.932 540.634,33.74C541.482,33.548 542.25,33.228 542.938,32.78C543.626,32.332 544.194,31.756 544.642,31.052C545.09,30.348 545.314,29.484 545.314,28.46C545.314,27.66 545.138,27.004 544.786,26.492C544.434,25.98 543.97,25.572 543.394,25.268C542.818,24.964 542.154,24.756 541.402,24.644C540.65,24.532 539.874,24.476 539.074,24.476L536.002,24.476L534.082,33.74ZM537.106,19.484L539.17,19.484C539.618,19.484 540.146,19.476 540.754,19.46C541.362,19.444 541.874,19.404 542.29,19.34C542.866,19.244 543.482,19.084 544.138,18.86C544.794,18.636 545.386,18.316 545.914,17.9C546.442,17.484 546.882,16.956 547.234,16.316C547.586,15.676 547.762,14.876 547.762,13.916C547.762,12.54 547.306,11.596 546.394,11.084C545.482,10.572 544.322,10.316 542.914,10.316C542.082,10.316 541.314,10.332 540.61,10.364C539.906,10.396 539.362,10.444 538.978,10.508L537.106,19.484Z" style="fill-rule:nonzero;"/>
    </g>
</svg>
