<?xml version="1.0" encoding="UTF-8" standalone="no"?>
<!DOCTYPE svg PUBLIC "-//W3C//DTD SVG 1.1//EN" "http://www.w3.org/Graphics/SVG/1.1/DTD/svg11.dtd">
<svg width="100%" height="100%" viewBox="0 0 897 368" version="1.1" xmlns="http://www.w3.org/2000/svg" xmlns:xlink="http://www.w3.org/1999/xlink" xml:space="preserve" xmlns:serif="http://www.serif.com/" style="fill-rule:evenodd;clip-rule:evenodd;stroke-linecap:square;stroke-linejoin:round;stroke-miterlimit:10;">
    <rect id="Geometric-Operations" serif:id="Geometric Operations" x="-3823" y="-215" width="6739" height="2861" style="fill:none;"/>
    <g id="Geometric-Operations1" serif:id="Geometric Operations">
        <circle cx="49.391" cy="336.773" r="11.72" style="fill:rgb(21,183,183);"/>
        <circle cx="178.107" cy="32.18" r="11.72" style="fill:rgb(21,183,183);"/>
        <circle cx="319.631" cy="353.411" r="11.72" style="fill:rgb(21,183,183);"/>
        <circle cx="444.399" cy="27.212" r="11.72" style="fill:rgb(21,183,183);"/>
        <circle cx="552.585" cy="339.838" r="11.72" style="fill:rgb(21,183,183);"/>
        <circle cx="723.167" cy="14.714" r="11.72" style="fill:rgb(21,183,183);"/>
        <circle cx="26.21" cy="274.677" r="11.72" style="fill:rgb(247,0,255);"/>
        <circle cx="826.598" cy="337.847" r="11.72" style="fill:rgb(247,0,255);"/>
        <circle cx="832.567" cy="236.889" r="11.72" style="fill:rgb(247,0,255);"/>
        <circle cx="58.881" cy="160.763" r="11.72" style="fill:rgb(247,0,255);"/>
        <circle cx="877.959" cy="98.684" r="11.72" style="fill:rgb(247,0,255);"/>
        <circle cx="70.98" cy="57.315" r="11.72" style="fill:rgb(247,0,255);"/>
        <path d="M49.682,335L177.197,29L319.287,359L444.981,23L550.637,339L721.873,12L787.452,347" style="fill:none;stroke:rgb(21,183,183);stroke-width:5.12px;"/>
        <path d="M69.72,58L884,96L49.682,160L836.637,235L26,274L827.529,335" style="fill:none;stroke:rgb(247,0,255);stroke-width:5px;"/>
    </g>
</svg>
