<?xml version="1.0" encoding="UTF-8" standalone="no"?>
<!DOCTYPE svg PUBLIC "-//W3C//DTD SVG 1.1//EN" "http://www.w3.org/Graphics/SVG/1.1/DTD/svg11.dtd">
<svg width="100%" height="100%" viewBox="0 0 572 1164" version="1.1" xmlns="http://www.w3.org/2000/svg" xmlns:xlink="http://www.w3.org/1999/xlink" xml:space="preserve" xmlns:serif="http://www.serif.com/" style="fill-rule:evenodd;clip-rule:evenodd;stroke-linejoin:round;stroke-miterlimit:10;">
    <rect id="Spatial-Databases-2" serif:id="Spatial Databases 2" x="-183.911" y="-3139" width="3858" height="5937" style="fill:none;"/>
    <g transform="matrix(1,0,0,1,-9993.91,-440.382)">
        <g transform="matrix(72,0,0,72,10032.2,508.377)">
            <path d="M0.453,-0.293L0.197,-0.293L0.197,-0L0.06,-0L0.06,-0.7L0.197,-0.7L0.197,-0.415L0.453,-0.415L0.453,-0.7L0.59,-0.7L0.59,-0L0.453,-0L0.453,-0.293Z" style="fill-rule:nonzero;"/>
        </g>
        <g transform="matrix(72,0,0,72,10079.1,508.377)">
            <path d="M0.457,-0.043C0.437,-0.027 0.41,-0.014 0.376,-0.003C0.341,0.009 0.305,0.014 0.266,0.014C0.185,0.014 0.126,-0.01 0.089,-0.057C0.052,-0.103 0.033,-0.168 0.033,-0.25C0.033,-0.338 0.054,-0.404 0.096,-0.448C0.138,-0.492 0.197,-0.514 0.273,-0.514C0.298,-0.514 0.323,-0.511 0.347,-0.504C0.371,-0.497 0.392,-0.486 0.411,-0.471C0.43,-0.456 0.445,-0.435 0.456,-0.409C0.467,-0.383 0.473,-0.351 0.473,-0.312C0.473,-0.298 0.472,-0.283 0.471,-0.267C0.469,-0.251 0.466,-0.234 0.463,-0.217L0.163,-0.217C0.165,-0.175 0.176,-0.143 0.196,-0.122C0.215,-0.101 0.247,-0.09 0.291,-0.09C0.318,-0.09 0.343,-0.094 0.365,-0.103C0.386,-0.111 0.403,-0.119 0.414,-0.128L0.457,-0.043ZM0.271,-0.41C0.237,-0.41 0.212,-0.4 0.196,-0.38C0.179,-0.359 0.169,-0.332 0.166,-0.298L0.352,-0.298C0.355,-0.334 0.349,-0.362 0.336,-0.381C0.322,-0.4 0.3,-0.41 0.271,-0.41Z" style="fill-rule:nonzero;"/>
        </g>
        <g transform="matrix(72,0,0,72,10115.7,508.377)">
            <path d="M0.554,0.114L0.459,0.114L0.444,-0L0.108,-0L0.093,0.114L-0.002,0.114L-0.002,-0.115L0.057,-0.115C0.062,-0.122 0.069,-0.135 0.078,-0.153C0.086,-0.17 0.094,-0.194 0.103,-0.225C0.111,-0.256 0.118,-0.294 0.124,-0.339C0.13,-0.384 0.133,-0.438 0.133,-0.5L0.481,-0.5L0.481,-0.115L0.554,-0.115L0.554,0.114ZM0.351,-0.109L0.351,-0.39L0.246,-0.39C0.245,-0.366 0.242,-0.341 0.239,-0.314C0.236,-0.287 0.232,-0.26 0.227,-0.235C0.222,-0.21 0.216,-0.186 0.209,-0.164C0.202,-0.142 0.195,-0.124 0.187,-0.109L0.351,-0.109Z" style="fill-rule:nonzero;"/>
        </g>
        <g transform="matrix(72,0,0,72,10156.6,508.377)">
            <path d="M0.033,-0.25C0.033,-0.335 0.054,-0.4 0.095,-0.446C0.136,-0.491 0.194,-0.514 0.269,-0.514C0.309,-0.514 0.344,-0.508 0.373,-0.495C0.402,-0.482 0.427,-0.464 0.446,-0.442C0.465,-0.419 0.48,-0.391 0.49,-0.358C0.499,-0.325 0.504,-0.289 0.504,-0.25C0.504,-0.165 0.484,-0.1 0.443,-0.055C0.401,-0.009 0.344,0.014 0.269,0.014C0.229,0.014 0.194,0.008 0.165,-0.005C0.136,-0.018 0.111,-0.036 0.092,-0.059C0.072,-0.082 0.057,-0.109 0.048,-0.142C0.038,-0.175 0.033,-0.211 0.033,-0.25ZM0.167,-0.25C0.167,-0.228 0.169,-0.208 0.173,-0.189C0.177,-0.17 0.183,-0.154 0.191,-0.14C0.199,-0.126 0.21,-0.115 0.223,-0.108C0.236,-0.1 0.251,-0.096 0.269,-0.096C0.303,-0.096 0.328,-0.108 0.345,-0.133C0.362,-0.158 0.37,-0.197 0.37,-0.25C0.37,-0.296 0.362,-0.333 0.347,-0.362C0.332,-0.39 0.306,-0.404 0.269,-0.404C0.237,-0.404 0.212,-0.392 0.194,-0.368C0.176,-0.344 0.167,-0.305 0.167,-0.25Z" style="fill-rule:nonzero;"/>
        </g>
        <g transform="matrix(72,0,0,72,10195.2,508.377)">
            <path d="M0.345,-0.385L0.187,-0.385L0.187,-0L0.057,-0L0.057,-0.5L0.475,-0.5L0.475,-0L0.345,-0L0.345,-0.385Z" style="fill-rule:nonzero;"/>
        </g>
        <g transform="matrix(72,0,0,72,10233.5,508.377)">
            <path d="M0.239,-0.219L0.257,-0.141L0.263,-0.141L0.276,-0.22L0.352,-0.5L0.486,-0.5L0.334,-0.049C0.321,-0.012 0.309,0.023 0.298,0.054C0.286,0.085 0.273,0.111 0.259,0.134C0.245,0.157 0.23,0.174 0.213,0.187C0.196,0.199 0.175,0.205 0.152,0.205C0.117,0.205 0.09,0.199 0.069,0.188L0.093,0.084C0.103,0.088 0.113,0.09 0.123,0.09C0.138,0.09 0.153,0.084 0.168,0.071C0.182,0.058 0.193,0.034 0.2,-0L-0.009,-0.5L0.147,-0.5L0.239,-0.219Z" style="fill-rule:nonzero;"/>
        </g>
        <g transform="matrix(72,0,0,72,10267.9,508.377)">
            <path d="M0.411,-0.031C0.391,-0.016 0.367,-0.005 0.339,0.003C0.31,0.01 0.281,0.014 0.251,0.014C0.211,0.014 0.177,0.008 0.15,-0.005C0.122,-0.018 0.099,-0.036 0.082,-0.059C0.065,-0.082 0.052,-0.109 0.045,-0.142C0.037,-0.175 0.033,-0.211 0.033,-0.25C0.033,-0.335 0.052,-0.4 0.09,-0.446C0.128,-0.491 0.183,-0.514 0.256,-0.514C0.293,-0.514 0.322,-0.511 0.345,-0.505C0.367,-0.499 0.387,-0.491 0.405,-0.482L0.374,-0.376C0.359,-0.383 0.343,-0.389 0.329,-0.393C0.314,-0.397 0.296,-0.399 0.277,-0.399C0.241,-0.399 0.214,-0.387 0.195,-0.364C0.176,-0.34 0.167,-0.302 0.167,-0.25C0.167,-0.229 0.169,-0.209 0.174,-0.191C0.179,-0.173 0.186,-0.157 0.195,-0.144C0.204,-0.131 0.217,-0.12 0.232,-0.113C0.247,-0.105 0.264,-0.101 0.284,-0.101C0.306,-0.101 0.325,-0.104 0.34,-0.11C0.355,-0.115 0.369,-0.122 0.381,-0.13L0.411,-0.031Z" style="fill-rule:nonzero;"/>
        </g>
        <g transform="matrix(72,0,0,72,10299.1,508.377)">
            <path d="M0.417,-0.385L0.278,-0.385L0.278,-0L0.144,-0L0.144,-0.385L0.001,-0.385L0.001,-0.5L0.417,-0.5L0.417,-0.385Z" style="fill-rule:nonzero;"/>
        </g>
        <g transform="matrix(72,0,0,72,10329.2,508.377)">
            <path d="M0.358,-0.228L0.363,-0.299L0.36,-0.299L0.317,-0.226L0.139,-0L0.057,-0L0.057,-0.5L0.187,-0.5L0.187,-0.262L0.181,-0.194L0.185,-0.194L0.226,-0.265L0.406,-0.5L0.488,-0.5L0.488,-0L0.358,-0L0.358,-0.228Z" style="fill-rule:nonzero;"/>
        </g>
        <g transform="matrix(72,0,0,72,10368.5,508.377)">
            <path d="M0.485,-0.229L0.493,-0.333L0.488,-0.333L0.448,-0.247L0.354,-0.092L0.307,-0.092L0.204,-0.247L0.166,-0.333L0.16,-0.333L0.173,-0.23L0.173,-0L0.057,-0L0.057,-0.5L0.192,-0.5L0.307,-0.312L0.335,-0.249L0.339,-0.249L0.368,-0.314L0.474,-0.5L0.61,-0.5L0.61,-0L0.485,-0L0.485,-0.229Z" style="fill-rule:nonzero;"/>
        </g>
        <g transform="matrix(72,0,0,72,10416.4,508.377)">
            <path d="M0.187,-0.109C0.207,-0.105 0.226,-0.103 0.244,-0.103C0.274,-0.103 0.295,-0.109 0.307,-0.12C0.319,-0.131 0.325,-0.148 0.325,-0.171C0.325,-0.192 0.319,-0.209 0.307,-0.22C0.295,-0.231 0.275,-0.236 0.247,-0.236C0.225,-0.236 0.205,-0.234 0.187,-0.229L0.187,-0.109ZM0.187,-0.322C0.203,-0.325 0.219,-0.327 0.236,-0.328C0.252,-0.329 0.267,-0.329 0.28,-0.329C0.314,-0.329 0.342,-0.325 0.365,-0.318C0.388,-0.31 0.406,-0.299 0.42,-0.285C0.434,-0.271 0.444,-0.255 0.45,-0.236C0.456,-0.217 0.459,-0.196 0.459,-0.174C0.459,-0.144 0.455,-0.118 0.447,-0.095C0.439,-0.072 0.426,-0.054 0.408,-0.039C0.39,-0.024 0.367,-0.012 0.338,-0.005C0.309,0.003 0.274,0.007 0.232,0.007C0.194,0.007 0.161,0.006 0.134,0.005C0.106,0.004 0.08,0.002 0.057,-0L0.057,-0.5L0.187,-0.5L0.187,-0.322ZM0.516,-0.5L0.646,-0.5L0.646,-0L0.516,-0L0.516,-0.5Z" style="fill-rule:nonzero;"/>
        </g>
        <g transform="matrix(72,0,0,72,10467,508.377)">
            <path d="M0.457,-0.043C0.437,-0.027 0.41,-0.014 0.376,-0.003C0.341,0.009 0.305,0.014 0.266,0.014C0.185,0.014 0.126,-0.01 0.089,-0.057C0.052,-0.103 0.033,-0.168 0.033,-0.25C0.033,-0.338 0.054,-0.404 0.096,-0.448C0.138,-0.492 0.197,-0.514 0.273,-0.514C0.298,-0.514 0.323,-0.511 0.347,-0.504C0.371,-0.497 0.392,-0.486 0.411,-0.471C0.43,-0.456 0.445,-0.435 0.456,-0.409C0.467,-0.383 0.473,-0.351 0.473,-0.312C0.473,-0.298 0.472,-0.283 0.471,-0.267C0.469,-0.251 0.466,-0.234 0.463,-0.217L0.163,-0.217C0.165,-0.175 0.176,-0.143 0.196,-0.122C0.215,-0.101 0.247,-0.09 0.291,-0.09C0.318,-0.09 0.343,-0.094 0.365,-0.103C0.386,-0.111 0.403,-0.119 0.414,-0.128L0.457,-0.043ZM0.271,-0.41C0.237,-0.41 0.212,-0.4 0.196,-0.38C0.179,-0.359 0.169,-0.332 0.166,-0.298L0.352,-0.298C0.355,-0.334 0.349,-0.362 0.336,-0.381C0.322,-0.4 0.3,-0.41 0.271,-0.41Z" style="fill-rule:nonzero;"/>
        </g>
        <g transform="matrix(72,0,0,72,10113.8,588.945)">
            <path d="M0.345,-0.385L0.187,-0.385L0.187,-0L0.057,-0L0.057,-0.5L0.475,-0.5L0.475,-0L0.345,-0L0.345,-0.385Z" style="fill-rule:nonzero;"/>
        </g>
        <g transform="matrix(72,0,0,72,10152.1,588.945)">
            <path d="M0.033,-0.25C0.033,-0.335 0.054,-0.4 0.095,-0.446C0.136,-0.491 0.194,-0.514 0.269,-0.514C0.309,-0.514 0.344,-0.508 0.373,-0.495C0.402,-0.482 0.427,-0.464 0.446,-0.442C0.465,-0.419 0.48,-0.391 0.49,-0.358C0.499,-0.325 0.504,-0.289 0.504,-0.25C0.504,-0.165 0.484,-0.1 0.443,-0.055C0.401,-0.009 0.344,0.014 0.269,0.014C0.229,0.014 0.194,0.008 0.165,-0.005C0.136,-0.018 0.111,-0.036 0.092,-0.059C0.072,-0.082 0.057,-0.109 0.048,-0.142C0.038,-0.175 0.033,-0.211 0.033,-0.25ZM0.167,-0.25C0.167,-0.228 0.169,-0.208 0.173,-0.189C0.177,-0.17 0.183,-0.154 0.191,-0.14C0.199,-0.126 0.21,-0.115 0.223,-0.108C0.236,-0.1 0.251,-0.096 0.269,-0.096C0.303,-0.096 0.328,-0.108 0.345,-0.133C0.362,-0.158 0.37,-0.197 0.37,-0.25C0.37,-0.296 0.362,-0.333 0.347,-0.362C0.332,-0.39 0.306,-0.404 0.269,-0.404C0.237,-0.404 0.212,-0.392 0.194,-0.368C0.176,-0.344 0.167,-0.305 0.167,-0.25Z" style="fill-rule:nonzero;"/>
        </g>
        <g transform="matrix(72,0,0,72,10190.7,588.945)">
            <path d="M0.329,-0.385L0.23,-0.385C0.226,-0.338 0.221,-0.291 0.216,-0.244C0.211,-0.197 0.202,-0.156 0.191,-0.119C0.179,-0.082 0.163,-0.051 0.143,-0.029C0.123,-0.006 0.097,0.006 0.065,0.006C0.026,0.006 -0.001,0.001 -0.017,-0.009L-0.001,-0.117C0.01,-0.113 0.02,-0.111 0.029,-0.111C0.042,-0.111 0.054,-0.117 0.064,-0.128C0.074,-0.139 0.083,-0.16 0.09,-0.189C0.096,-0.218 0.102,-0.258 0.107,-0.309C0.111,-0.359 0.114,-0.423 0.116,-0.5L0.459,-0.5L0.459,-0L0.329,-0L0.329,-0.385Z" style="fill-rule:nonzero;"/>
        </g>
        <g transform="matrix(72,0,0,72,10227.8,588.945)">
            <path d="M0.358,-0.228L0.363,-0.299L0.36,-0.299L0.317,-0.226L0.139,-0L0.057,-0L0.057,-0.5L0.187,-0.5L0.187,-0.262L0.181,-0.194L0.185,-0.194L0.226,-0.265L0.406,-0.5L0.488,-0.5L0.488,-0L0.358,-0L0.358,-0.228Z" style="fill-rule:nonzero;"/>
        </g>
        <g transform="matrix(72,0,0,72,10267,588.945)">
            <path d="M0.38,-0.385L0.191,-0.385L0.191,-0L0.057,-0L0.057,-0.5L0.38,-0.5L0.38,-0.385Z" style="fill-rule:nonzero;"/>
        </g>
        <g transform="matrix(72,0,0,72,10294.1,588.945)">
            <path d="M0.033,-0.25C0.033,-0.335 0.054,-0.4 0.095,-0.446C0.136,-0.491 0.194,-0.514 0.269,-0.514C0.309,-0.514 0.344,-0.508 0.373,-0.495C0.402,-0.482 0.427,-0.464 0.446,-0.442C0.465,-0.419 0.48,-0.391 0.49,-0.358C0.499,-0.325 0.504,-0.289 0.504,-0.25C0.504,-0.165 0.484,-0.1 0.443,-0.055C0.401,-0.009 0.344,0.014 0.269,0.014C0.229,0.014 0.194,0.008 0.165,-0.005C0.136,-0.018 0.111,-0.036 0.092,-0.059C0.072,-0.082 0.057,-0.109 0.048,-0.142C0.038,-0.175 0.033,-0.211 0.033,-0.25ZM0.167,-0.25C0.167,-0.228 0.169,-0.208 0.173,-0.189C0.177,-0.17 0.183,-0.154 0.191,-0.14C0.199,-0.126 0.21,-0.115 0.223,-0.108C0.236,-0.1 0.251,-0.096 0.269,-0.096C0.303,-0.096 0.328,-0.108 0.345,-0.133C0.362,-0.158 0.37,-0.197 0.37,-0.25C0.37,-0.296 0.362,-0.333 0.347,-0.362C0.332,-0.39 0.306,-0.404 0.269,-0.404C0.237,-0.404 0.212,-0.392 0.194,-0.368C0.176,-0.344 0.167,-0.305 0.167,-0.25Z" style="fill-rule:nonzero;"/>
        </g>
        <g transform="matrix(72,0,0,72,10332.8,588.945)">
            <path d="M0.35,-0.196L0.187,-0.196L0.187,-0L0.057,-0L0.057,-0.5L0.187,-0.5L0.187,-0.312L0.35,-0.312L0.35,-0.5L0.48,-0.5L0.48,-0L0.35,-0L0.35,-0.196Z" style="fill-rule:nonzero;"/>
        </g>
        <g transform="matrix(72,0,0,72,10371.4,588.945)">
            <path d="M0.187,-0.109C0.207,-0.105 0.226,-0.103 0.244,-0.103C0.274,-0.103 0.295,-0.109 0.307,-0.12C0.319,-0.131 0.325,-0.148 0.325,-0.171C0.325,-0.192 0.319,-0.209 0.307,-0.22C0.295,-0.231 0.275,-0.236 0.247,-0.236C0.225,-0.236 0.205,-0.234 0.187,-0.229L0.187,-0.109ZM0.187,-0.322C0.203,-0.325 0.219,-0.327 0.236,-0.328C0.252,-0.329 0.267,-0.329 0.28,-0.329C0.314,-0.329 0.342,-0.325 0.365,-0.318C0.388,-0.31 0.406,-0.299 0.42,-0.285C0.434,-0.271 0.444,-0.255 0.45,-0.236C0.456,-0.217 0.459,-0.196 0.459,-0.174C0.459,-0.144 0.455,-0.118 0.447,-0.095C0.439,-0.072 0.426,-0.054 0.408,-0.039C0.39,-0.024 0.367,-0.012 0.338,-0.005C0.309,0.003 0.274,0.007 0.232,0.007C0.194,0.007 0.161,0.006 0.134,0.005C0.106,0.004 0.08,0.002 0.057,-0L0.057,-0.5L0.187,-0.5L0.187,-0.322ZM0.516,-0.5L0.646,-0.5L0.646,-0L0.516,-0L0.516,-0.5Z" style="fill-rule:nonzero;"/>
        </g>
    </g>
    <path d="M20.742,266.961L282.101,189L489.128,297.502L418.239,380.286L163.937,395.556L20.742,266.961Z" style="fill:rgb(45,231,231);stroke:black;stroke-width:8px;"/>
    <path d="M20.742,508.018L184.206,430.057L454.907,459.954L489.128,538.56L418.239,621.343L163.937,636.614L20.742,508.018Z" style="fill:rgb(251,133,255);stroke:black;stroke-width:8px;"/>
    <path d="M20.742,755.657L184.206,677.696L454.907,707.594L489.128,786.199L418.239,868.982L163.937,884.253L20.742,755.657Z" style="fill:rgb(255,235,51);stroke:black;stroke-width:8px;"/>
    <path d="M254.935,931.144L525.636,961.041L559.857,1039.65L488.968,1122.43L254.935,931.144Z" style="fill:rgb(150,255,21);stroke:black;stroke-width:8px;"/>
    <path d="M418.239,1122.43L163.937,1137.7L20.742,1009.11L184.206,931.144L418.239,1122.43Z" style="fill:rgb(150,255,21);stroke:black;stroke-width:8px;"/>
    <path d="M147.771,229.069L254.935,306.343L402.021,251.85L147.771,229.069Z" style="fill:white;stroke:black;stroke-width:8px;"/>
    <path d="M184.206,430.057L172.939,533.335L372.104,553.627L454.907,459.954L184.206,430.057Z" style="fill:white;stroke:black;stroke-width:8px;"/>
    <path d="M184.206,677.696L418.239,868.982" style="fill:none;stroke:black;stroke-width:8px;"/>
    <path d="M454.907,707.594L522.885,655.793" style="fill:none;stroke:black;stroke-width:8px;"/>
    <ellipse cx="265.632" cy="822.372" rx="10.697" ry="7.641"/>
</svg>
