<?xml version="1.0" encoding="UTF-8" standalone="no"?>
<!DOCTYPE svg PUBLIC "-//W3C//DTD SVG 1.1//EN" "http://www.w3.org/Graphics/SVG/1.1/DTD/svg11.dtd">
<svg width="100%" height="100%" viewBox="0 0 510 355" version="1.1" xmlns="http://www.w3.org/2000/svg" xmlns:xlink="http://www.w3.org/1999/xlink" xml:space="preserve" xmlns:serif="http://www.serif.com/" style="fill-rule:evenodd;clip-rule:evenodd;stroke-linecap:round;stroke-linejoin:round;stroke-miterlimit:10;">
    <g transform="matrix(1,0,0,1,-6172,-635)">
        <g id="Attribute" transform="matrix(1.90372,0,0,0.999018,1107.92,-8.99116)">
            <rect x="2388" y="9" width="1641" height="1018" style="fill:none;"/>
            <g transform="matrix(0.646607,0,0,0.469027,389.528,545.31)">
                <g transform="matrix(0.812376,0,0,1.40111,1800.15,72.5143)">
                    <rect x="2500" y="106.496" width="110" height="65.504" style="fill:rgb(153,153,153);stroke:black;stroke-width:3.55px;"/>
                </g>
                <g transform="matrix(0.812376,0,0,1.40111,1800.15,439.627)">
                    <rect x="2500" y="106.496" width="110" height="65.504" style="fill:rgb(150,150,150);stroke:black;stroke-width:3.55px;"/>
                </g>
                <g transform="matrix(0.812376,0,0,1.40111,1800.15,256.07)">
                    <rect x="2500" y="106.496" width="110" height="65.504" style="fill:rgb(102,102,102);stroke:black;stroke-width:3.55px;"/>
                </g>
                <g transform="matrix(0.812376,0,0,1.40111,1800.15,623.183)">
                    <rect x="2500" y="106.496" width="110" height="65.504" style="fill:rgb(108,108,108);stroke:black;stroke-width:3.55px;"/>
                </g>
                <g transform="matrix(0.812376,0,0,1.40111,1800.15,164.292)">
                    <rect x="2500" y="106.496" width="110" height="65.504" style="fill:rgb(77,77,77);stroke:black;stroke-width:3.55px;"/>
                </g>
                <g transform="matrix(0.812376,0,0,1.40111,1800.15,531.405)">
                    <rect x="2500" y="106.496" width="110" height="65.504" style="fill:rgb(130,130,130);stroke:black;stroke-width:3.55px;"/>
                </g>
                <g transform="matrix(0.812376,0,0,1.40111,1800.15,347.849)">
                    <rect x="2500" y="106.496" width="110" height="65.504" style="fill:rgb(128,128,128);stroke:black;stroke-width:3.55px;"/>
                </g>
                <g transform="matrix(0.812376,0,0,1.40111,1800.15,714.961)">
                    <rect x="2500" y="106.496" width="110" height="65.504" style="fill:rgb(89,89,89);stroke:black;stroke-width:3.55px;"/>
                </g>
            </g>
            <g transform="matrix(0.646607,0,0,0.469027,316.659,545.31)">
                <g transform="matrix(0.812376,0,0,1.40111,1666.67,72.5143)">
                    <rect x="2500" y="106.496" width="110" height="65.504" style="fill:rgb(152,152,152);stroke:black;stroke-width:3.55px;"/>
                </g>
                <g transform="matrix(0.812376,0,0,1.40111,1666.67,439.627)">
                    <rect x="2500" y="106.496" width="110" height="65.504" style="fill:rgb(149,149,149);stroke:black;stroke-width:3.55px;"/>
                </g>
                <g transform="matrix(0.812376,0,0,1.40111,1666.67,256.07)">
                    <rect x="2500" y="106.496" width="110" height="65.504" style="fill:none;stroke:black;stroke-width:3.55px;"/>
                </g>
                <g transform="matrix(0.812376,0,0,1.40111,1666.67,623.183)">
                    <rect x="2500" y="106.496" width="110" height="65.504" style="fill:none;stroke:black;stroke-width:3.55px;"/>
                </g>
                <g transform="matrix(0.812376,0,0,1.40111,1666.67,164.292)">
                    <rect x="2500" y="106.496" width="110" height="65.504" style="fill:rgb(78,78,78);stroke:black;stroke-width:3.55px;"/>
                </g>
                <g transform="matrix(0.812376,0,0,1.40111,1666.67,531.405)">
                    <rect x="2500" y="106.496" width="110" height="65.504" style="fill:none;stroke:black;stroke-width:3.55px;"/>
                </g>
                <g transform="matrix(0.812376,0,0,1.40111,1666.67,347.849)">
                    <rect x="2500" y="106.496" width="110" height="65.504" style="fill:none;stroke:black;stroke-width:3.55px;"/>
                </g>
                <g transform="matrix(0.812376,0,0,1.40111,1666.67,714.961)">
                    <rect x="2500" y="106.496" width="110" height="65.504" style="fill:rgb(89,89,89);stroke:black;stroke-width:3.55px;"/>
                </g>
                <g transform="matrix(0.812376,0,0,2.13417,1101.72,127.065)">
                    <g transform="matrix(32,0,0,32,3240.17,165.349)">
                        <path d="M0.174,-0.187C0.178,-0.21 0.182,-0.23 0.187,-0.248C0.192,-0.266 0.198,-0.282 0.205,-0.298C0.213,-0.313 0.222,-0.327 0.234,-0.34C0.245,-0.353 0.26,-0.367 0.278,-0.38C0.293,-0.391 0.306,-0.4 0.318,-0.409C0.33,-0.418 0.341,-0.426 0.351,-0.435C0.361,-0.443 0.37,-0.452 0.378,-0.461C0.387,-0.47 0.394,-0.48 0.4,-0.491C0.406,-0.502 0.412,-0.514 0.417,-0.529C0.421,-0.543 0.425,-0.56 0.429,-0.579C0.43,-0.585 0.431,-0.591 0.431,-0.597C0.432,-0.603 0.432,-0.609 0.432,-0.615C0.432,-0.629 0.43,-0.642 0.427,-0.655C0.423,-0.667 0.417,-0.678 0.408,-0.687C0.4,-0.696 0.389,-0.703 0.376,-0.708C0.363,-0.713 0.346,-0.716 0.327,-0.716C0.314,-0.716 0.301,-0.714 0.289,-0.711C0.277,-0.708 0.266,-0.704 0.256,-0.699C0.246,-0.694 0.236,-0.689 0.228,-0.683C0.22,-0.677 0.212,-0.672 0.206,-0.666L0.169,-0.718C0.193,-0.739 0.221,-0.755 0.25,-0.767C0.28,-0.779 0.315,-0.785 0.354,-0.785C0.378,-0.785 0.399,-0.782 0.419,-0.776C0.438,-0.769 0.455,-0.76 0.469,-0.747C0.482,-0.734 0.493,-0.718 0.5,-0.698C0.508,-0.678 0.512,-0.654 0.512,-0.627C0.512,-0.618 0.511,-0.609 0.51,-0.599C0.51,-0.589 0.508,-0.579 0.506,-0.568C0.502,-0.543 0.496,-0.521 0.487,-0.502C0.479,-0.483 0.469,-0.465 0.458,-0.45C0.446,-0.434 0.434,-0.421 0.421,-0.408C0.408,-0.396 0.395,-0.385 0.381,-0.375C0.368,-0.365 0.355,-0.355 0.342,-0.347C0.329,-0.338 0.318,-0.329 0.307,-0.321C0.285,-0.302 0.271,-0.284 0.266,-0.268C0.26,-0.252 0.254,-0.225 0.247,-0.187L0.174,-0.187ZM0.13,-0.05C0.132,-0.058 0.135,-0.066 0.139,-0.073C0.143,-0.08 0.148,-0.086 0.154,-0.091C0.16,-0.096 0.167,-0.1 0.174,-0.103C0.181,-0.106 0.188,-0.107 0.196,-0.107C0.209,-0.107 0.219,-0.103 0.228,-0.094C0.236,-0.086 0.24,-0.075 0.24,-0.062C0.24,-0.052 0.238,-0.044 0.234,-0.035C0.231,-0.027 0.226,-0.02 0.22,-0.013C0.214,-0.007 0.208,-0.002 0.2,0.002C0.192,0.006 0.184,0.008 0.176,0.008C0.162,0.008 0.151,0.003 0.142,-0.006C0.134,-0.015 0.129,-0.026 0.129,-0.04C0.129,-0.042 0.129,-0.043 0.13,-0.045C0.13,-0.047 0.13,-0.048 0.13,-0.05Z" style="fill-rule:nonzero;"/>
                    </g>
                </g>
                <g transform="matrix(0.812376,0,0,2.13417,1101.72,214.524)">
                    <g transform="matrix(32,0,0,32,3240.17,165.349)">
                        <path d="M0.174,-0.187C0.178,-0.21 0.182,-0.23 0.187,-0.248C0.192,-0.266 0.198,-0.282 0.205,-0.298C0.213,-0.313 0.222,-0.327 0.234,-0.34C0.245,-0.353 0.26,-0.367 0.278,-0.38C0.293,-0.391 0.306,-0.4 0.318,-0.409C0.33,-0.418 0.341,-0.426 0.351,-0.435C0.361,-0.443 0.37,-0.452 0.378,-0.461C0.387,-0.47 0.394,-0.48 0.4,-0.491C0.406,-0.502 0.412,-0.514 0.417,-0.529C0.421,-0.543 0.425,-0.56 0.429,-0.579C0.43,-0.585 0.431,-0.591 0.431,-0.597C0.432,-0.603 0.432,-0.609 0.432,-0.615C0.432,-0.629 0.43,-0.642 0.427,-0.655C0.423,-0.667 0.417,-0.678 0.408,-0.687C0.4,-0.696 0.389,-0.703 0.376,-0.708C0.363,-0.713 0.346,-0.716 0.327,-0.716C0.314,-0.716 0.301,-0.714 0.289,-0.711C0.277,-0.708 0.266,-0.704 0.256,-0.699C0.246,-0.694 0.236,-0.689 0.228,-0.683C0.22,-0.677 0.212,-0.672 0.206,-0.666L0.169,-0.718C0.193,-0.739 0.221,-0.755 0.25,-0.767C0.28,-0.779 0.315,-0.785 0.354,-0.785C0.378,-0.785 0.399,-0.782 0.419,-0.776C0.438,-0.769 0.455,-0.76 0.469,-0.747C0.482,-0.734 0.493,-0.718 0.5,-0.698C0.508,-0.678 0.512,-0.654 0.512,-0.627C0.512,-0.618 0.511,-0.609 0.51,-0.599C0.51,-0.589 0.508,-0.579 0.506,-0.568C0.502,-0.543 0.496,-0.521 0.487,-0.502C0.479,-0.483 0.469,-0.465 0.458,-0.45C0.446,-0.434 0.434,-0.421 0.421,-0.408C0.408,-0.396 0.395,-0.385 0.381,-0.375C0.368,-0.365 0.355,-0.355 0.342,-0.347C0.329,-0.338 0.318,-0.329 0.307,-0.321C0.285,-0.302 0.271,-0.284 0.266,-0.268C0.26,-0.252 0.254,-0.225 0.247,-0.187L0.174,-0.187ZM0.13,-0.05C0.132,-0.058 0.135,-0.066 0.139,-0.073C0.143,-0.08 0.148,-0.086 0.154,-0.091C0.16,-0.096 0.167,-0.1 0.174,-0.103C0.181,-0.106 0.188,-0.107 0.196,-0.107C0.209,-0.107 0.219,-0.103 0.228,-0.094C0.236,-0.086 0.24,-0.075 0.24,-0.062C0.24,-0.052 0.238,-0.044 0.234,-0.035C0.231,-0.027 0.226,-0.02 0.22,-0.013C0.214,-0.007 0.208,-0.002 0.2,0.002C0.192,0.006 0.184,0.008 0.176,0.008C0.162,0.008 0.151,0.003 0.142,-0.006C0.134,-0.015 0.129,-0.026 0.129,-0.04C0.129,-0.042 0.129,-0.043 0.13,-0.045C0.13,-0.047 0.13,-0.048 0.13,-0.05Z" style="fill-rule:nonzero;"/>
                    </g>
                </g>
                <g transform="matrix(0.812376,0,0,2.13417,1101.72,398.732)">
                    <g transform="matrix(32,0,0,32,3240.17,165.349)">
                        <path d="M0.174,-0.187C0.178,-0.21 0.182,-0.23 0.187,-0.248C0.192,-0.266 0.198,-0.282 0.205,-0.298C0.213,-0.313 0.222,-0.327 0.234,-0.34C0.245,-0.353 0.26,-0.367 0.278,-0.38C0.293,-0.391 0.306,-0.4 0.318,-0.409C0.33,-0.418 0.341,-0.426 0.351,-0.435C0.361,-0.443 0.37,-0.452 0.378,-0.461C0.387,-0.47 0.394,-0.48 0.4,-0.491C0.406,-0.502 0.412,-0.514 0.417,-0.529C0.421,-0.543 0.425,-0.56 0.429,-0.579C0.43,-0.585 0.431,-0.591 0.431,-0.597C0.432,-0.603 0.432,-0.609 0.432,-0.615C0.432,-0.629 0.43,-0.642 0.427,-0.655C0.423,-0.667 0.417,-0.678 0.408,-0.687C0.4,-0.696 0.389,-0.703 0.376,-0.708C0.363,-0.713 0.346,-0.716 0.327,-0.716C0.314,-0.716 0.301,-0.714 0.289,-0.711C0.277,-0.708 0.266,-0.704 0.256,-0.699C0.246,-0.694 0.236,-0.689 0.228,-0.683C0.22,-0.677 0.212,-0.672 0.206,-0.666L0.169,-0.718C0.193,-0.739 0.221,-0.755 0.25,-0.767C0.28,-0.779 0.315,-0.785 0.354,-0.785C0.378,-0.785 0.399,-0.782 0.419,-0.776C0.438,-0.769 0.455,-0.76 0.469,-0.747C0.482,-0.734 0.493,-0.718 0.5,-0.698C0.508,-0.678 0.512,-0.654 0.512,-0.627C0.512,-0.618 0.511,-0.609 0.51,-0.599C0.51,-0.589 0.508,-0.579 0.506,-0.568C0.502,-0.543 0.496,-0.521 0.487,-0.502C0.479,-0.483 0.469,-0.465 0.458,-0.45C0.446,-0.434 0.434,-0.421 0.421,-0.408C0.408,-0.396 0.395,-0.385 0.381,-0.375C0.368,-0.365 0.355,-0.355 0.342,-0.347C0.329,-0.338 0.318,-0.329 0.307,-0.321C0.285,-0.302 0.271,-0.284 0.266,-0.268C0.26,-0.252 0.254,-0.225 0.247,-0.187L0.174,-0.187ZM0.13,-0.05C0.132,-0.058 0.135,-0.066 0.139,-0.073C0.143,-0.08 0.148,-0.086 0.154,-0.091C0.16,-0.096 0.167,-0.1 0.174,-0.103C0.181,-0.106 0.188,-0.107 0.196,-0.107C0.209,-0.107 0.219,-0.103 0.228,-0.094C0.236,-0.086 0.24,-0.075 0.24,-0.062C0.24,-0.052 0.238,-0.044 0.234,-0.035C0.231,-0.027 0.226,-0.02 0.22,-0.013C0.214,-0.007 0.208,-0.002 0.2,0.002C0.192,0.006 0.184,0.008 0.176,0.008C0.162,0.008 0.151,0.003 0.142,-0.006C0.134,-0.015 0.129,-0.026 0.129,-0.04C0.129,-0.042 0.129,-0.043 0.13,-0.045C0.13,-0.047 0.13,-0.048 0.13,-0.05Z" style="fill-rule:nonzero;"/>
                    </g>
                </g>
                <g transform="matrix(0.812376,0,0,2.13417,1101.72,491.201)">
                    <g transform="matrix(32,0,0,32,3240.17,165.349)">
                        <path d="M0.174,-0.187C0.178,-0.21 0.182,-0.23 0.187,-0.248C0.192,-0.266 0.198,-0.282 0.205,-0.298C0.213,-0.313 0.222,-0.327 0.234,-0.34C0.245,-0.353 0.26,-0.367 0.278,-0.38C0.293,-0.391 0.306,-0.4 0.318,-0.409C0.33,-0.418 0.341,-0.426 0.351,-0.435C0.361,-0.443 0.37,-0.452 0.378,-0.461C0.387,-0.47 0.394,-0.48 0.4,-0.491C0.406,-0.502 0.412,-0.514 0.417,-0.529C0.421,-0.543 0.425,-0.56 0.429,-0.579C0.43,-0.585 0.431,-0.591 0.431,-0.597C0.432,-0.603 0.432,-0.609 0.432,-0.615C0.432,-0.629 0.43,-0.642 0.427,-0.655C0.423,-0.667 0.417,-0.678 0.408,-0.687C0.4,-0.696 0.389,-0.703 0.376,-0.708C0.363,-0.713 0.346,-0.716 0.327,-0.716C0.314,-0.716 0.301,-0.714 0.289,-0.711C0.277,-0.708 0.266,-0.704 0.256,-0.699C0.246,-0.694 0.236,-0.689 0.228,-0.683C0.22,-0.677 0.212,-0.672 0.206,-0.666L0.169,-0.718C0.193,-0.739 0.221,-0.755 0.25,-0.767C0.28,-0.779 0.315,-0.785 0.354,-0.785C0.378,-0.785 0.399,-0.782 0.419,-0.776C0.438,-0.769 0.455,-0.76 0.469,-0.747C0.482,-0.734 0.493,-0.718 0.5,-0.698C0.508,-0.678 0.512,-0.654 0.512,-0.627C0.512,-0.618 0.511,-0.609 0.51,-0.599C0.51,-0.589 0.508,-0.579 0.506,-0.568C0.502,-0.543 0.496,-0.521 0.487,-0.502C0.479,-0.483 0.469,-0.465 0.458,-0.45C0.446,-0.434 0.434,-0.421 0.421,-0.408C0.408,-0.396 0.395,-0.385 0.381,-0.375C0.368,-0.365 0.355,-0.355 0.342,-0.347C0.329,-0.338 0.318,-0.329 0.307,-0.321C0.285,-0.302 0.271,-0.284 0.266,-0.268C0.26,-0.252 0.254,-0.225 0.247,-0.187L0.174,-0.187ZM0.13,-0.05C0.132,-0.058 0.135,-0.066 0.139,-0.073C0.143,-0.08 0.148,-0.086 0.154,-0.091C0.16,-0.096 0.167,-0.1 0.174,-0.103C0.181,-0.106 0.188,-0.107 0.196,-0.107C0.209,-0.107 0.219,-0.103 0.228,-0.094C0.236,-0.086 0.24,-0.075 0.24,-0.062C0.24,-0.052 0.238,-0.044 0.234,-0.035C0.231,-0.027 0.226,-0.02 0.22,-0.013C0.214,-0.007 0.208,-0.002 0.2,0.002C0.192,0.006 0.184,0.008 0.176,0.008C0.162,0.008 0.151,0.003 0.142,-0.006C0.134,-0.015 0.129,-0.026 0.129,-0.04C0.129,-0.042 0.129,-0.043 0.13,-0.045C0.13,-0.047 0.13,-0.048 0.13,-0.05Z" style="fill-rule:nonzero;"/>
                    </g>
                </g>
            </g>
            <g transform="matrix(1,0,0,1,-258.069,-2.27374e-13)">
                <g transform="matrix(0.252765,0,0,0.469027,2008.42,545.31)">
                    <g transform="matrix(0.812376,0,0,1.40111,1666.67,72.5143)">
                        <rect x="2500" y="106.496" width="110" height="65.504" style="fill:white;stroke:black;stroke-width:5.55px;"/>
                    </g>
                    <g transform="matrix(0.812376,0,0,1.40111,1666.67,439.627)">
                        <rect x="2500" y="106.496" width="110" height="65.504" style="fill:white;stroke:black;stroke-width:5.55px;"/>
                    </g>
                    <g transform="matrix(0.812376,0,0,1.40111,1666.67,256.07)">
                        <rect x="2500" y="106.496" width="110" height="65.504" style="fill:white;stroke:black;stroke-width:5.55px;"/>
                    </g>
                    <g transform="matrix(0.812376,0,0,1.40111,1666.67,623.183)">
                        <rect x="2500" y="106.496" width="110" height="65.504" style="fill:white;stroke:black;stroke-width:5.55px;"/>
                    </g>
                    <g transform="matrix(0.812376,0,0,1.40111,1666.67,164.292)">
                        <rect x="2500" y="106.496" width="110" height="65.504" style="fill:white;stroke:black;stroke-width:5.55px;"/>
                    </g>
                    <g transform="matrix(0.812376,0,0,1.40111,1666.67,531.405)">
                        <rect x="2500" y="106.496" width="110" height="65.504" style="fill:white;stroke:black;stroke-width:5.55px;"/>
                    </g>
                    <g transform="matrix(0.812376,0,0,1.40111,1666.67,347.849)">
                        <rect x="2500" y="106.496" width="110" height="65.504" style="fill:white;stroke:black;stroke-width:5.55px;"/>
                    </g>
                    <g transform="matrix(0.812376,0,0,1.40111,1666.67,714.961)">
                        <rect x="2500" y="106.496" width="110" height="65.504" style="fill:white;stroke:black;stroke-width:5.55px;"/>
                    </g>
                </g>
                <g transform="matrix(0.525288,0,0,1.00098,1247.32,516.702)">
                    <g transform="matrix(32,0,0,32,3240.17,165.349)">
                        <path d="M0.26,-0.067L0.26,-0.68L0.116,-0.604L0.116,-0.684L0.274,-0.765L0.343,-0.765L0.343,-0.067L0.471,-0.067L0.471,-0L0.121,-0L0.121,-0.067L0.26,-0.067Z" style="fill-rule:nonzero;"/>
                    </g>
                </g>
                <g transform="matrix(0.525288,0,0,1.00098,1247.32,559.879)">
                    <g transform="matrix(32,0,0,32,3240.17,165.349)">
                        <path d="M0.516,-0L0.07,-0L0.07,-0.045C0.07,-0.075 0.076,-0.102 0.086,-0.126C0.097,-0.15 0.111,-0.173 0.128,-0.194C0.146,-0.215 0.165,-0.235 0.188,-0.254C0.21,-0.273 0.233,-0.291 0.256,-0.309C0.279,-0.327 0.302,-0.345 0.324,-0.363C0.346,-0.381 0.366,-0.4 0.384,-0.42C0.401,-0.44 0.415,-0.461 0.426,-0.483C0.436,-0.506 0.441,-0.531 0.441,-0.558C0.441,-0.61 0.43,-0.649 0.406,-0.675C0.382,-0.701 0.344,-0.714 0.292,-0.714C0.281,-0.714 0.269,-0.713 0.257,-0.71C0.244,-0.708 0.232,-0.705 0.22,-0.7C0.208,-0.696 0.196,-0.69 0.185,-0.683C0.173,-0.677 0.163,-0.669 0.153,-0.66L0.108,-0.717C0.133,-0.738 0.161,-0.755 0.193,-0.767C0.224,-0.779 0.261,-0.785 0.302,-0.785C0.334,-0.785 0.364,-0.781 0.392,-0.772C0.419,-0.763 0.443,-0.749 0.463,-0.731C0.483,-0.713 0.498,-0.69 0.51,-0.662C0.521,-0.634 0.526,-0.602 0.526,-0.565C0.526,-0.534 0.521,-0.505 0.511,-0.479C0.5,-0.453 0.486,-0.429 0.469,-0.406C0.452,-0.383 0.432,-0.362 0.411,-0.343C0.389,-0.324 0.367,-0.305 0.344,-0.287C0.321,-0.269 0.299,-0.252 0.277,-0.235C0.255,-0.218 0.235,-0.201 0.218,-0.184C0.201,-0.166 0.187,-0.149 0.176,-0.13C0.165,-0.112 0.16,-0.092 0.16,-0.071L0.516,-0.071L0.516,-0Z" style="fill-rule:nonzero;"/>
                    </g>
                </g>
                <g transform="matrix(0.525288,0,0,1.00098,1247.32,602.66)">
                    <g transform="matrix(32,0,0,32,3240.17,165.349)">
                        <path d="M0.196,-0.45L0.209,-0.45C0.24,-0.45 0.267,-0.453 0.292,-0.46C0.316,-0.466 0.337,-0.476 0.354,-0.488C0.372,-0.501 0.385,-0.517 0.394,-0.536C0.404,-0.555 0.408,-0.578 0.408,-0.603C0.408,-0.62 0.405,-0.635 0.399,-0.65C0.393,-0.664 0.383,-0.676 0.371,-0.686C0.358,-0.697 0.343,-0.704 0.324,-0.71C0.305,-0.715 0.284,-0.718 0.259,-0.718C0.244,-0.718 0.23,-0.717 0.215,-0.713C0.201,-0.71 0.187,-0.705 0.174,-0.7C0.161,-0.695 0.149,-0.69 0.138,-0.684C0.128,-0.677 0.119,-0.672 0.113,-0.666L0.074,-0.723C0.083,-0.73 0.094,-0.737 0.107,-0.744C0.12,-0.751 0.135,-0.758 0.151,-0.764C0.167,-0.77 0.185,-0.775 0.204,-0.779C0.222,-0.783 0.243,-0.785 0.264,-0.785C0.294,-0.785 0.323,-0.782 0.351,-0.775C0.379,-0.768 0.403,-0.757 0.424,-0.742C0.445,-0.728 0.462,-0.71 0.475,-0.687C0.487,-0.665 0.494,-0.639 0.494,-0.608C0.494,-0.582 0.489,-0.559 0.481,-0.539C0.472,-0.519 0.461,-0.502 0.448,-0.488C0.434,-0.473 0.418,-0.461 0.4,-0.452C0.383,-0.442 0.365,-0.435 0.347,-0.431C0.373,-0.427 0.397,-0.42 0.42,-0.411C0.442,-0.402 0.461,-0.389 0.478,-0.373C0.494,-0.356 0.507,-0.336 0.516,-0.312C0.525,-0.288 0.53,-0.259 0.53,-0.225C0.53,-0.183 0.523,-0.148 0.509,-0.118C0.494,-0.088 0.474,-0.063 0.448,-0.044C0.423,-0.025 0.392,-0.011 0.355,-0.001C0.319,0.008 0.279,0.012 0.234,0.012C0.218,0.012 0.202,0.011 0.185,0.009C0.169,0.006 0.152,0.003 0.137,-0.002C0.121,-0.006 0.106,-0.011 0.093,-0.018C0.079,-0.024 0.067,-0.031 0.057,-0.039L0.095,-0.105C0.12,-0.089 0.144,-0.076 0.167,-0.067C0.19,-0.059 0.214,-0.055 0.239,-0.055C0.308,-0.055 0.359,-0.069 0.393,-0.096C0.426,-0.124 0.443,-0.167 0.443,-0.225C0.443,-0.255 0.438,-0.28 0.429,-0.301C0.42,-0.322 0.407,-0.339 0.39,-0.353C0.372,-0.366 0.351,-0.376 0.326,-0.382C0.301,-0.388 0.272,-0.391 0.239,-0.391L0.196,-0.391L0.196,-0.45Z" style="fill-rule:nonzero;"/>
                    </g>
                </g>
                <g transform="matrix(0.525288,0,0,1.00098,1247.32,645.651)">
                    <g transform="matrix(32,0,0,32,3240.17,165.349)">
                        <path d="M0.132,-0.284L0.383,-0.284L0.383,-0.646L0.132,-0.284ZM0.383,-0.214L0.047,-0.214L0.047,-0.263L0.395,-0.765L0.466,-0.765L0.466,-0.285L0.543,-0.285L0.543,-0.214L0.466,-0.214L0.466,-0L0.383,-0L0.383,-0.214Z" style="fill-rule:nonzero;"/>
                    </g>
                </g>
                <g transform="matrix(0.525288,0,0,1.00098,1247.32,689.133)">
                    <g transform="matrix(32,0,0,32,3240.17,165.349)">
                        <path d="M0.478,-0.765L0.478,-0.692L0.18,-0.692L0.18,-0.481C0.198,-0.491 0.217,-0.497 0.238,-0.501C0.259,-0.504 0.278,-0.506 0.296,-0.506C0.334,-0.506 0.369,-0.499 0.401,-0.486C0.432,-0.472 0.461,-0.446 0.487,-0.408C0.513,-0.369 0.525,-0.316 0.525,-0.248C0.525,-0.176 0.502,-0.114 0.454,-0.064C0.407,-0.013 0.346,0.012 0.271,0.012C0.248,0.012 0.226,0.01 0.204,0.006C0.183,0.002 0.164,-0.003 0.147,-0.008C0.13,-0.013 0.115,-0.019 0.103,-0.025C0.091,-0.03 0.083,-0.035 0.079,-0.038L0.115,-0.107C0.183,-0.076 0.238,-0.06 0.28,-0.06C0.326,-0.06 0.364,-0.078 0.394,-0.115C0.424,-0.151 0.439,-0.196 0.439,-0.25C0.439,-0.296 0.431,-0.334 0.415,-0.362C0.398,-0.391 0.38,-0.411 0.359,-0.422C0.338,-0.433 0.314,-0.438 0.288,-0.438C0.258,-0.438 0.232,-0.434 0.208,-0.427C0.183,-0.419 0.163,-0.406 0.146,-0.389L0.102,-0.389L0.102,-0.765L0.478,-0.765Z" style="fill-rule:nonzero;"/>
                    </g>
                </g>
                <g transform="matrix(0.525288,0,0,1.00098,1247.32,732.2)">
                    <g transform="matrix(32,0,0,32,3240.17,165.349)">
                        <path d="M0.458,-0.246C0.458,-0.273 0.453,-0.301 0.444,-0.328C0.435,-0.355 0.417,-0.377 0.392,-0.396C0.366,-0.414 0.332,-0.423 0.29,-0.423C0.254,-0.423 0.223,-0.419 0.198,-0.409C0.174,-0.399 0.152,-0.382 0.133,-0.358C0.131,-0.352 0.13,-0.347 0.129,-0.341C0.128,-0.335 0.128,-0.329 0.127,-0.323C0.127,-0.317 0.127,-0.312 0.127,-0.306C0.127,-0.3 0.127,-0.295 0.127,-0.291C0.127,-0.249 0.131,-0.213 0.14,-0.183C0.148,-0.153 0.16,-0.129 0.175,-0.111C0.19,-0.092 0.207,-0.079 0.227,-0.07C0.247,-0.062 0.267,-0.058 0.288,-0.058C0.311,-0.058 0.335,-0.063 0.361,-0.073C0.387,-0.084 0.41,-0.103 0.429,-0.132C0.448,-0.16 0.458,-0.198 0.458,-0.246ZM0.472,-0.685C0.463,-0.688 0.454,-0.692 0.443,-0.696C0.433,-0.7 0.421,-0.703 0.41,-0.706C0.398,-0.708 0.386,-0.71 0.374,-0.712C0.362,-0.714 0.35,-0.714 0.338,-0.714C0.307,-0.714 0.28,-0.708 0.257,-0.696C0.234,-0.683 0.214,-0.665 0.198,-0.641C0.181,-0.618 0.168,-0.589 0.158,-0.555C0.148,-0.521 0.14,-0.48 0.135,-0.434C0.152,-0.451 0.174,-0.465 0.202,-0.477C0.229,-0.488 0.261,-0.494 0.296,-0.494C0.356,-0.494 0.404,-0.482 0.438,-0.459C0.472,-0.436 0.497,-0.407 0.514,-0.373C0.53,-0.34 0.539,-0.298 0.539,-0.248C0.539,-0.167 0.516,-0.104 0.471,-0.057C0.426,-0.011 0.361,0.012 0.276,0.012C0.201,0.012 0.143,-0.015 0.103,-0.071C0.063,-0.126 0.043,-0.208 0.043,-0.318C0.043,-0.392 0.049,-0.459 0.061,-0.517C0.072,-0.575 0.091,-0.624 0.115,-0.664C0.14,-0.703 0.173,-0.733 0.212,-0.754C0.251,-0.775 0.299,-0.785 0.354,-0.785C0.381,-0.785 0.406,-0.783 0.431,-0.778C0.456,-0.774 0.479,-0.767 0.501,-0.759L0.472,-0.685Z" style="fill-rule:nonzero;"/>
                    </g>
                </g>
                <g transform="matrix(0.525288,0,0,1.00098,1247.32,774.564)">
                    <g transform="matrix(32,0,0,32,3240.17,165.349)">
                        <path d="M0.448,-0.695L0.048,-0.695L0.048,-0.765L0.529,-0.765L0.529,-0.71L0.225,-0L0.144,-0L0.448,-0.695Z" style="fill-rule:nonzero;"/>
                    </g>
                </g>
                <g transform="matrix(0.525288,0,0,1.00098,1247.32,818.559)">
                    <g transform="matrix(32,0,0,32,3240.17,165.349)">
                        <path d="M0.254,-0.387C0.236,-0.377 0.219,-0.366 0.203,-0.356C0.187,-0.346 0.173,-0.334 0.161,-0.32C0.149,-0.307 0.14,-0.292 0.133,-0.274C0.126,-0.257 0.123,-0.235 0.123,-0.208C0.123,-0.184 0.127,-0.163 0.136,-0.144C0.145,-0.125 0.157,-0.109 0.173,-0.096C0.188,-0.083 0.207,-0.073 0.228,-0.066C0.25,-0.059 0.273,-0.056 0.297,-0.056C0.322,-0.056 0.345,-0.059 0.366,-0.065C0.387,-0.071 0.405,-0.08 0.421,-0.093C0.437,-0.105 0.449,-0.121 0.458,-0.14C0.466,-0.159 0.471,-0.181 0.471,-0.206C0.471,-0.227 0.467,-0.245 0.46,-0.26C0.454,-0.276 0.444,-0.289 0.433,-0.301C0.421,-0.313 0.408,-0.323 0.393,-0.332C0.378,-0.341 0.363,-0.349 0.346,-0.356C0.33,-0.363 0.314,-0.369 0.298,-0.374C0.282,-0.378 0.268,-0.383 0.254,-0.387ZM0.305,-0.444C0.327,-0.454 0.347,-0.464 0.364,-0.476C0.381,-0.487 0.396,-0.499 0.408,-0.512C0.421,-0.524 0.43,-0.537 0.437,-0.55C0.443,-0.563 0.447,-0.576 0.447,-0.589C0.447,-0.611 0.443,-0.631 0.434,-0.647C0.426,-0.663 0.414,-0.677 0.4,-0.687C0.386,-0.698 0.37,-0.706 0.352,-0.711C0.333,-0.716 0.314,-0.718 0.294,-0.718C0.275,-0.718 0.257,-0.716 0.239,-0.711C0.22,-0.707 0.204,-0.7 0.19,-0.69C0.176,-0.68 0.165,-0.667 0.156,-0.651C0.147,-0.636 0.143,-0.617 0.143,-0.595C0.143,-0.573 0.148,-0.555 0.159,-0.539C0.169,-0.523 0.182,-0.509 0.198,-0.497C0.214,-0.485 0.232,-0.475 0.251,-0.467C0.27,-0.458 0.288,-0.451 0.305,-0.444ZM0.373,-0.415C0.4,-0.403 0.425,-0.391 0.447,-0.378C0.469,-0.366 0.488,-0.351 0.503,-0.335C0.519,-0.319 0.531,-0.301 0.54,-0.281C0.548,-0.26 0.552,-0.236 0.552,-0.208C0.552,-0.179 0.549,-0.154 0.542,-0.132C0.536,-0.111 0.526,-0.091 0.514,-0.075C0.502,-0.059 0.488,-0.045 0.472,-0.034C0.455,-0.023 0.438,-0.014 0.419,-0.007C0.4,-0 0.38,0.005 0.358,0.008C0.337,0.011 0.316,0.012 0.294,0.012C0.26,0.012 0.228,0.008 0.197,0C0.167,-0.007 0.14,-0.02 0.117,-0.037C0.094,-0.055 0.075,-0.077 0.062,-0.105C0.048,-0.133 0.042,-0.168 0.042,-0.208C0.042,-0.235 0.045,-0.258 0.053,-0.279C0.061,-0.299 0.072,-0.318 0.086,-0.335C0.1,-0.352 0.116,-0.368 0.135,-0.382C0.154,-0.396 0.176,-0.41 0.199,-0.422C0.177,-0.433 0.158,-0.444 0.141,-0.455C0.125,-0.467 0.111,-0.479 0.099,-0.493C0.088,-0.507 0.079,-0.522 0.073,-0.539C0.067,-0.556 0.064,-0.576 0.064,-0.599C0.064,-0.632 0.071,-0.66 0.084,-0.683C0.097,-0.707 0.114,-0.726 0.136,-0.741C0.157,-0.756 0.182,-0.767 0.209,-0.774C0.237,-0.782 0.265,-0.785 0.294,-0.785C0.324,-0.785 0.352,-0.781 0.38,-0.774C0.408,-0.766 0.433,-0.755 0.455,-0.74C0.476,-0.724 0.493,-0.704 0.506,-0.68C0.519,-0.656 0.526,-0.627 0.526,-0.594C0.526,-0.572 0.522,-0.551 0.514,-0.532C0.506,-0.514 0.496,-0.497 0.482,-0.482C0.468,-0.467 0.452,-0.454 0.433,-0.443C0.414,-0.431 0.394,-0.422 0.373,-0.415Z" style="fill-rule:nonzero;"/>
                    </g>
                </g>
            </g>
            <g transform="matrix(0.404013,0,0,1.32387,1560,548.049)">
                <path d="M3159.9,139.244L3049.9,109L3049.9,237.688L3159.9,206.688L3159.9,139.244Z" style="fill:none;stroke:black;stroke-width:2.77px;"/>
            </g>
            <g transform="matrix(0.404013,0,0,1.35102,1560,674.417)">
                <path d="M3159.9,139.377L3049.9,109L3049.9,237.688L3159.9,206.57L3159.9,139.377Z" style="fill:none;stroke:black;stroke-width:2.73px;"/>
            </g>
            <g transform="matrix(0.153546,0,0,0.292595,2412.43,267.912)">
                <g transform="matrix(3.42105,-0,-0,3.42105,1613.01,1287.49)">
                    <path d="M216.604,57.932L239.104,69.182L216.604,80.432L216.604,57.932Z"/>
                    <path d="M220.104,69.182L221.104,69.182" style="fill:none;stroke:black;stroke-width:5px;stroke-linecap:butt;stroke-linejoin:miter;stroke-miterlimit:1;stroke-dasharray:5,5;"/>
                </g>
            </g>
            <g transform="matrix(0.153546,0,0,0.292595,2484.56,308.615)">
                <g transform="matrix(3.42105,-0,-0,3.42105,1143.22,1148.38)">
                    <path d="M353.927,98.595L376.427,109.845L353.927,121.095L353.927,98.595Z"/>
                    <path d="M357.427,109.845L358.427,109.845" style="fill:none;stroke:black;stroke-width:5px;stroke-linecap:butt;stroke-linejoin:miter;stroke-miterlimit:1;stroke-dasharray:5,5;"/>
                </g>
            </g>
            <g transform="matrix(0.153546,0,0,0.292595,2484.56,440.564)">
                <g transform="matrix(3.42105,-0,-0,3.42105,1143.22,697.416)">
                    <path d="M353.927,230.415L376.427,241.665L353.927,252.915L353.927,230.415Z"/>
                    <path d="M357.427,241.665L358.427,241.665" style="fill:none;stroke:black;stroke-width:5px;stroke-linecap:butt;stroke-linejoin:miter;stroke-miterlimit:1;stroke-dasharray:5,5;"/>
                </g>
            </g>
            <g transform="matrix(0.153546,0,0,0.292595,2484.56,354.165)">
                <g transform="matrix(3.42105,-0,-0,3.42105,1143.22,992.7)">
                    <path d="M353.927,144.101L376.427,155.351L353.927,166.601L353.927,144.101Z"/>
                    <path d="M357.427,155.351L358.427,155.351" style="fill:none;stroke:black;stroke-width:5px;stroke-linecap:butt;stroke-linejoin:miter;stroke-miterlimit:1;stroke-dasharray:5,5;"/>
                </g>
            </g>
            <g transform="matrix(0.153546,0,0,0.292595,2484.56,486.115)">
                <g transform="matrix(3.42105,-0,-0,3.42105,1143.22,541.737)">
                    <path d="M353.927,275.921L376.427,287.171L353.927,298.421L353.927,275.921Z"/>
                    <path d="M357.427,287.171L358.427,287.171" style="fill:none;stroke:black;stroke-width:5px;stroke-linecap:butt;stroke-linejoin:miter;stroke-miterlimit:1;stroke-dasharray:5,5;"/>
                </g>
            </g>
            <g transform="matrix(0.153546,0,0,0.292595,2412.43,395.468)">
                <g transform="matrix(3.42105,-0,-0,3.42105,1613.01,851.541)">
                    <path d="M216.604,185.363L239.104,196.613L216.604,207.863L216.604,185.363Z"/>
                    <path d="M220.104,196.613L221.104,196.613" style="fill:none;stroke:black;stroke-width:5px;stroke-linecap:butt;stroke-linejoin:miter;stroke-miterlimit:1;stroke-dasharray:5,5;"/>
                </g>
            </g>
            <g transform="matrix(0.153546,0,0,0.292595,2412.43,524.918)">
                <g transform="matrix(3.42105,-0,-0,3.42105,1613.01,409.118)">
                    <path d="M216.604,314.687L239.104,325.937L216.604,337.187L216.604,314.687Z"/>
                    <path d="M220.104,325.937L221.104,325.937" style="fill:none;stroke:black;stroke-width:5px;stroke-linecap:butt;stroke-linejoin:miter;stroke-miterlimit:1;stroke-dasharray:5,5;"/>
                </g>
            </g>
            <g transform="matrix(0.525288,0,0,1.00098,-1236.49,553.535)">
                <g transform="matrix(1,-0,-0,1,7418,91)">
                    <path d="M39.067,314L30.067,332L21.067,314C25.567,318.5 34.567,318.5 39.067,314Z" style="fill:rgb(7,189,255);"/>
                    <path d="M30.067,25L30.067,317.6" style="fill:none;stroke:rgb(7,189,255);stroke-width:6px;stroke-linecap:butt;"/>
                </g>
            </g>
            <g transform="matrix(0.525288,0,0,1.00098,-1219.68,565.871)">
                <g transform="matrix(32,0,0,32,7387.54,122.076)">
                    <path d="M0.224,-0.176L0.252,-0.08L0.257,-0.08L0.279,-0.177L0.376,-0.5L0.457,-0.5L0.309,-0.051C0.298,-0.018 0.286,0.013 0.276,0.044C0.265,0.075 0.252,0.102 0.239,0.126C0.226,0.15 0.211,0.169 0.194,0.184C0.177,0.198 0.158,0.205 0.136,0.205C0.112,0.205 0.092,0.202 0.077,0.195L0.091,0.126C0.1,0.129 0.108,0.131 0.116,0.131C0.135,0.131 0.153,0.121 0.17,0.102C0.187,0.082 0.202,0.048 0.213,-0L0.012,-0.5L0.104,-0.5L0.224,-0.176Z" style="fill:rgb(0,81,127);fill-rule:nonzero;"/>
                </g>
                <g transform="matrix(32,0,0,32,7386.44,147.663)">
                    <path d="M0.378,-0.43L0.157,-0.43L0.157,-0L0.077,-0L0.077,-0.5L0.458,-0.5L0.458,-0L0.378,-0L0.378,-0.43Z" style="fill:rgb(0,81,127);fill-rule:nonzero;"/>
                </g>
                <g transform="matrix(32,0,0,32,7386.42,173.25)">
                    <path d="M0.049,-0.25C0.049,-0.335 0.068,-0.4 0.106,-0.445C0.143,-0.49 0.197,-0.512 0.268,-0.512C0.305,-0.512 0.338,-0.506 0.366,-0.494C0.393,-0.481 0.416,-0.464 0.434,-0.441C0.452,-0.418 0.465,-0.39 0.474,-0.358C0.483,-0.325 0.487,-0.289 0.487,-0.25C0.487,-0.165 0.468,-0.1 0.431,-0.056C0.393,-0.011 0.339,0.012 0.268,0.012C0.231,0.012 0.198,0.006 0.171,-0.007C0.143,-0.019 0.12,-0.037 0.102,-0.06C0.084,-0.083 0.071,-0.11 0.062,-0.143C0.053,-0.175 0.049,-0.211 0.049,-0.25ZM0.132,-0.25C0.132,-0.225 0.135,-0.2 0.14,-0.177C0.145,-0.154 0.152,-0.133 0.163,-0.116C0.174,-0.099 0.188,-0.085 0.205,-0.074C0.222,-0.063 0.243,-0.058 0.268,-0.058C0.359,-0.057 0.404,-0.121 0.404,-0.25C0.404,-0.276 0.402,-0.301 0.397,-0.324C0.392,-0.347 0.384,-0.368 0.373,-0.385C0.362,-0.402 0.348,-0.416 0.331,-0.427C0.314,-0.437 0.293,-0.442 0.268,-0.442C0.177,-0.443 0.132,-0.379 0.132,-0.25Z" style="fill:rgb(0,81,127);fill-rule:nonzero;"/>
                </g>
                <g transform="matrix(32,0,0,32,7386.34,198.837)">
                    <path d="M0.077,-0.5L0.132,-0.5L0.147,-0.44L0.151,-0.44C0.166,-0.463 0.186,-0.481 0.211,-0.494C0.235,-0.506 0.263,-0.512 0.294,-0.512C0.361,-0.512 0.41,-0.492 0.443,-0.453C0.476,-0.414 0.492,-0.349 0.492,-0.26C0.492,-0.218 0.487,-0.18 0.476,-0.147C0.464,-0.113 0.449,-0.084 0.429,-0.061C0.409,-0.038 0.385,-0.02 0.357,-0.007C0.328,0.006 0.297,0.012 0.262,0.012C0.237,0.012 0.218,0.011 0.204,0.008C0.189,0.005 0.174,-0.001 0.157,-0.008L0.157,0.2L0.077,0.2L0.077,-0.5ZM0.279,-0.442C0.245,-0.442 0.218,-0.433 0.199,-0.416C0.179,-0.398 0.165,-0.371 0.157,-0.335L0.157,-0.087C0.169,-0.078 0.183,-0.07 0.198,-0.066C0.213,-0.061 0.234,-0.058 0.259,-0.058C0.305,-0.058 0.341,-0.075 0.369,-0.11C0.396,-0.144 0.409,-0.194 0.409,-0.261C0.409,-0.288 0.407,-0.313 0.402,-0.336C0.397,-0.358 0.39,-0.377 0.38,-0.393C0.369,-0.408 0.356,-0.42 0.34,-0.429C0.323,-0.438 0.303,-0.442 0.279,-0.442Z" style="fill:rgb(0,81,127);fill-rule:nonzero;"/>
                </g>
                <g transform="matrix(32,0,0,32,7387.4,224.424)">
                    <path d="M0.326,-0.207L0.249,-0.195L0.117,-0L0.02,-0L0.14,-0.171L0.18,-0.208C0.145,-0.213 0.116,-0.227 0.092,-0.25C0.067,-0.273 0.055,-0.303 0.055,-0.342C0.055,-0.372 0.06,-0.398 0.071,-0.419C0.081,-0.44 0.096,-0.458 0.115,-0.472C0.134,-0.486 0.157,-0.496 0.184,-0.503C0.211,-0.509 0.241,-0.512 0.274,-0.512C0.299,-0.512 0.322,-0.51 0.343,-0.507C0.364,-0.504 0.385,-0.5 0.406,-0.496L0.406,-0L0.326,-0L0.326,-0.207ZM0.326,-0.432C0.317,-0.435 0.308,-0.438 0.297,-0.44C0.286,-0.441 0.277,-0.442 0.269,-0.442C0.226,-0.442 0.194,-0.434 0.172,-0.419C0.149,-0.404 0.138,-0.379 0.138,-0.346C0.138,-0.316 0.15,-0.293 0.174,-0.277C0.197,-0.26 0.228,-0.252 0.267,-0.252L0.278,-0.252C0.282,-0.252 0.288,-0.252 0.295,-0.253C0.302,-0.253 0.313,-0.253 0.326,-0.254L0.326,-0.432Z" style="fill:rgb(0,81,127);fill-rule:nonzero;"/>
                </g>
                <g transform="matrix(32,0,0,32,7386.34,250.011)">
                    <path d="M0.519,0.127L0.465,0.127L0.45,-0L0.074,-0L0.059,0.127L0.005,0.127L0.005,-0.07L0.064,-0.07C0.069,-0.077 0.076,-0.091 0.085,-0.11C0.094,-0.129 0.102,-0.155 0.111,-0.19C0.119,-0.224 0.126,-0.267 0.133,-0.318C0.139,-0.369 0.143,-0.429 0.144,-0.5L0.446,-0.5L0.446,-0.07L0.519,-0.07L0.519,0.127ZM0.366,-0.07L0.366,-0.43L0.216,-0.43C0.215,-0.402 0.212,-0.372 0.209,-0.339C0.206,-0.306 0.201,-0.273 0.196,-0.24C0.19,-0.207 0.183,-0.175 0.174,-0.146C0.165,-0.117 0.155,-0.091 0.144,-0.07L0.366,-0.07Z" style="fill:rgb(0,81,127);fill-rule:nonzero;"/>
                </g>
                <g transform="matrix(32,0,0,32,7386.42,275.599)">
                    <path d="M0.049,-0.25C0.049,-0.335 0.068,-0.4 0.106,-0.445C0.143,-0.49 0.197,-0.512 0.268,-0.512C0.305,-0.512 0.338,-0.506 0.366,-0.494C0.393,-0.481 0.416,-0.464 0.434,-0.441C0.452,-0.418 0.465,-0.39 0.474,-0.358C0.483,-0.325 0.487,-0.289 0.487,-0.25C0.487,-0.165 0.468,-0.1 0.431,-0.056C0.393,-0.011 0.339,0.012 0.268,0.012C0.231,0.012 0.198,0.006 0.171,-0.007C0.143,-0.019 0.12,-0.037 0.102,-0.06C0.084,-0.083 0.071,-0.11 0.062,-0.143C0.053,-0.175 0.049,-0.211 0.049,-0.25ZM0.132,-0.25C0.132,-0.225 0.135,-0.2 0.14,-0.177C0.145,-0.154 0.152,-0.133 0.163,-0.116C0.174,-0.099 0.188,-0.085 0.205,-0.074C0.222,-0.063 0.243,-0.058 0.268,-0.058C0.359,-0.057 0.404,-0.121 0.404,-0.25C0.404,-0.276 0.402,-0.301 0.397,-0.324C0.392,-0.347 0.384,-0.368 0.373,-0.385C0.362,-0.402 0.348,-0.416 0.331,-0.427C0.314,-0.437 0.293,-0.442 0.268,-0.442C0.177,-0.443 0.132,-0.379 0.132,-0.25Z" style="fill:rgb(0,81,127);fill-rule:nonzero;"/>
                </g>
                <g transform="matrix(32,0,0,32,7387.16,301.186)">
                    <path d="M0.129,-0.5L0.129,-0.364C0.129,-0.346 0.13,-0.33 0.132,-0.316C0.134,-0.301 0.138,-0.289 0.144,-0.279C0.15,-0.268 0.159,-0.26 0.17,-0.255C0.181,-0.249 0.196,-0.246 0.215,-0.246C0.245,-0.246 0.27,-0.249 0.289,-0.256C0.308,-0.263 0.323,-0.27 0.333,-0.278L0.333,-0.5L0.413,-0.5L0.413,-0L0.333,-0L0.333,-0.21C0.322,-0.203 0.307,-0.196 0.286,-0.188C0.265,-0.18 0.236,-0.176 0.199,-0.176C0.174,-0.176 0.153,-0.179 0.134,-0.184C0.115,-0.189 0.1,-0.199 0.087,-0.212C0.074,-0.225 0.065,-0.243 0.059,-0.265C0.052,-0.287 0.049,-0.315 0.049,-0.348L0.049,-0.5L0.129,-0.5Z" style="fill:rgb(0,81,127);fill-rule:nonzero;"/>
                </g>
                <g transform="matrix(32,0,0,32,7386.87,326.773)">
                    <path d="M0.442,-0.04C0.422,-0.024 0.397,-0.011 0.367,-0.002C0.336,0.007 0.304,0.012 0.27,0.012C0.232,0.012 0.199,0.006 0.171,-0.007C0.143,-0.019 0.12,-0.037 0.102,-0.06C0.084,-0.083 0.071,-0.11 0.062,-0.142C0.053,-0.174 0.049,-0.21 0.049,-0.25C0.049,-0.335 0.068,-0.4 0.106,-0.445C0.144,-0.49 0.198,-0.512 0.269,-0.512C0.292,-0.512 0.314,-0.51 0.337,-0.505C0.36,-0.5 0.38,-0.49 0.398,-0.476C0.416,-0.462 0.431,-0.442 0.442,-0.417C0.453,-0.391 0.459,-0.357 0.459,-0.315C0.459,-0.293 0.457,-0.269 0.453,-0.242L0.132,-0.242C0.132,-0.213 0.135,-0.187 0.141,-0.164C0.147,-0.141 0.156,-0.122 0.169,-0.107C0.182,-0.091 0.198,-0.079 0.219,-0.071C0.239,-0.062 0.264,-0.058 0.293,-0.058C0.316,-0.058 0.338,-0.062 0.361,-0.07C0.384,-0.078 0.401,-0.087 0.412,-0.098L0.442,-0.04ZM0.27,-0.442C0.231,-0.442 0.199,-0.432 0.176,-0.411C0.152,-0.39 0.138,-0.355 0.133,-0.305L0.381,-0.305C0.381,-0.356 0.371,-0.391 0.352,-0.412C0.333,-0.432 0.305,-0.442 0.27,-0.442Z" style="fill:rgb(0,81,127);fill-rule:nonzero;"/>
                </g>
                <g transform="matrix(32,0,0,32,7386.36,352.36)">
                    <path d="M0.383,-0.221L0.157,-0.221L0.157,-0L0.077,-0L0.077,-0.5L0.157,-0.5L0.157,-0.291L0.383,-0.291L0.383,-0.5L0.463,-0.5L0.463,-0L0.383,-0L0.383,-0.221Z" style="fill:rgb(0,81,127);fill-rule:nonzero;"/>
                </g>
                <g transform="matrix(32,0,0,32,7386.26,377.947)">
                    <path d="M0.389,-0.296L0.392,-0.358L0.389,-0.358L0.348,-0.294L0.123,-0L0.077,-0L0.077,-0.5L0.157,-0.5L0.157,-0.195L0.154,-0.136L0.158,-0.136L0.197,-0.198L0.422,-0.5L0.469,-0.5L0.469,-0L0.389,-0L0.389,-0.296Z" style="fill:rgb(0,81,127);fill-rule:nonzero;"/>
                </g>
                <g transform="matrix(32,0,0,32,7386.87,403.534)">
                    <path d="M0.442,-0.04C0.422,-0.024 0.397,-0.011 0.367,-0.002C0.336,0.007 0.304,0.012 0.27,0.012C0.232,0.012 0.199,0.006 0.171,-0.007C0.143,-0.019 0.12,-0.037 0.102,-0.06C0.084,-0.083 0.071,-0.11 0.062,-0.142C0.053,-0.174 0.049,-0.21 0.049,-0.25C0.049,-0.335 0.068,-0.4 0.106,-0.445C0.144,-0.49 0.198,-0.512 0.269,-0.512C0.292,-0.512 0.314,-0.51 0.337,-0.505C0.36,-0.5 0.38,-0.49 0.398,-0.476C0.416,-0.462 0.431,-0.442 0.442,-0.417C0.453,-0.391 0.459,-0.357 0.459,-0.315C0.459,-0.293 0.457,-0.269 0.453,-0.242L0.132,-0.242C0.132,-0.213 0.135,-0.187 0.141,-0.164C0.147,-0.141 0.156,-0.122 0.169,-0.107C0.182,-0.091 0.198,-0.079 0.219,-0.071C0.239,-0.062 0.264,-0.058 0.293,-0.058C0.316,-0.058 0.338,-0.062 0.361,-0.07C0.384,-0.078 0.401,-0.087 0.412,-0.098L0.442,-0.04ZM0.27,-0.442C0.231,-0.442 0.199,-0.432 0.176,-0.411C0.152,-0.39 0.138,-0.355 0.133,-0.305L0.381,-0.305C0.381,-0.356 0.371,-0.391 0.352,-0.412C0.333,-0.432 0.305,-0.442 0.27,-0.442Z" style="fill:rgb(0,81,127);fill-rule:nonzero;"/>
                </g>
            </g>
            <g transform="matrix(0.525288,0,0,1.00098,1107.76,618.1)">
                <g transform="matrix(40,0,0,40,3240.17,165.349)">
                    <path d="M0.113,-0.437L0.042,-0.437L0.042,-0.476C0.055,-0.483 0.07,-0.49 0.085,-0.496C0.099,-0.501 0.114,-0.506 0.127,-0.509L0.134,-0.544C0.143,-0.585 0.155,-0.619 0.17,-0.647C0.185,-0.674 0.202,-0.695 0.222,-0.711C0.242,-0.726 0.265,-0.737 0.29,-0.743C0.315,-0.749 0.343,-0.752 0.372,-0.752C0.393,-0.752 0.415,-0.75 0.437,-0.747C0.459,-0.743 0.477,-0.737 0.49,-0.73C0.491,-0.721 0.491,-0.711 0.489,-0.7C0.486,-0.689 0.483,-0.678 0.478,-0.668C0.472,-0.658 0.467,-0.649 0.46,-0.641C0.453,-0.633 0.446,-0.627 0.438,-0.623L0.366,-0.699C0.357,-0.697 0.347,-0.694 0.339,-0.69C0.33,-0.685 0.321,-0.678 0.313,-0.668C0.305,-0.658 0.297,-0.644 0.29,-0.625C0.282,-0.606 0.275,-0.581 0.269,-0.55L0.26,-0.5L0.37,-0.5C0.371,-0.493 0.371,-0.483 0.37,-0.47C0.369,-0.456 0.364,-0.446 0.357,-0.437L0.247,-0.437L0.185,-0.043C0.178,0.004 0.165,0.044 0.144,0.075C0.123,0.106 0.1,0.131 0.076,0.151C0.05,0.169 0.025,0.184 0,0.193C-0.025,0.202 -0.046,0.209 -0.062,0.212L-0.073,0.178C-0.065,0.174 -0.055,0.168 -0.043,0.159C-0.031,0.15 -0.019,0.137 -0.007,0.121C0.005,0.105 0.016,0.085 0.027,0.062C0.037,0.038 0.045,0.009 0.05,-0.024L0.113,-0.437Z" style="fill-rule:nonzero;"/>
                </g>
            </g>
            <g transform="matrix(0.525288,0,0,1.00098,1107.76,747.639)">
                <g transform="matrix(40,0,0,40,3240.17,165.349)">
                    <path d="M0.113,-0.437L0.042,-0.437L0.042,-0.476C0.055,-0.483 0.07,-0.49 0.085,-0.496C0.099,-0.501 0.114,-0.506 0.127,-0.509L0.134,-0.544C0.143,-0.585 0.155,-0.619 0.17,-0.647C0.185,-0.674 0.202,-0.695 0.222,-0.711C0.242,-0.726 0.265,-0.737 0.29,-0.743C0.315,-0.749 0.343,-0.752 0.372,-0.752C0.393,-0.752 0.415,-0.75 0.437,-0.747C0.459,-0.743 0.477,-0.737 0.49,-0.73C0.491,-0.721 0.491,-0.711 0.489,-0.7C0.486,-0.689 0.483,-0.678 0.478,-0.668C0.472,-0.658 0.467,-0.649 0.46,-0.641C0.453,-0.633 0.446,-0.627 0.438,-0.623L0.366,-0.699C0.357,-0.697 0.347,-0.694 0.339,-0.69C0.33,-0.685 0.321,-0.678 0.313,-0.668C0.305,-0.658 0.297,-0.644 0.29,-0.625C0.282,-0.606 0.275,-0.581 0.269,-0.55L0.26,-0.5L0.37,-0.5C0.371,-0.493 0.371,-0.483 0.37,-0.47C0.369,-0.456 0.364,-0.446 0.357,-0.437L0.247,-0.437L0.185,-0.043C0.178,0.004 0.165,0.044 0.144,0.075C0.123,0.106 0.1,0.131 0.076,0.151C0.05,0.169 0.025,0.184 0,0.193C-0.025,0.202 -0.046,0.209 -0.062,0.212L-0.073,0.178C-0.065,0.174 -0.055,0.168 -0.043,0.159C-0.031,0.15 -0.019,0.137 -0.007,0.121C0.005,0.105 0.016,0.085 0.027,0.062C0.037,0.038 0.045,0.009 0.05,-0.024L0.113,-0.437Z" style="fill-rule:nonzero;"/>
                </g>
            </g>
        </g>
    </g>
</svg>
