<?xml version="1.0" encoding="UTF-8" standalone="no"?>
<!DOCTYPE svg PUBLIC "-//W3C//DTD SVG 1.1//EN" "http://www.w3.org/Graphics/SVG/1.1/DTD/svg11.dtd">
<svg width="100%" height="100%" viewBox="0 0 516 415" version="1.1" xmlns="http://www.w3.org/2000/svg" xmlns:xlink="http://www.w3.org/1999/xlink" xml:space="preserve" xmlns:serif="http://www.serif.com/" style="fill-rule:evenodd;clip-rule:evenodd;stroke-linecap:round;stroke-linejoin:round;stroke-miterlimit:10;">
    <g transform="matrix(1,0,0,1,-7314,-119)">
        <g id="Attribute" transform="matrix(1.90372,0,0,0.999018,1107.92,-8.99116)">
            <rect x="2388" y="9" width="1641" height="1018" style="fill:none;"/>
            <g transform="matrix(0.646607,0,0,0.469027,818.363,26.1161)">
                <g transform="matrix(0.812376,0,0,1.40111,1800.15,72.5143)">
                    <rect x="2500" y="106.496" width="110" height="65.504" style="fill:rgb(230,169,26);stroke:black;stroke-width:3.55px;"/>
                </g>
                <g transform="matrix(0.812376,0,0,1.40111,1800.15,256.07)">
                    <rect x="2500" y="106.496" width="110" height="65.504" style="fill:rgb(229,242,13);stroke:black;stroke-width:3.55px;"/>
                </g>
                <g transform="matrix(0.812376,0,0,1.40111,1800.15,164.292)">
                    <rect x="2500" y="106.496" width="110" height="65.504" style="fill:rgb(13,202,242);stroke:black;stroke-width:3.55px;"/>
                </g>
                <g transform="matrix(0.812376,0,0,1.40111,1800.15,347.849)">
                    <rect x="2500" y="106.496" width="110" height="65.504" style="fill:rgb(230,169,26);stroke:black;stroke-width:3.55px;"/>
                </g>
            </g>
            <g transform="matrix(0.646607,0,0,0.469027,875.094,263.047)">
                <g transform="matrix(0.812376,0,0,1.40111,1800.15,72.5143)">
                    <rect x="2500" y="106.496" width="110" height="65.504" style="fill:rgb(230,169,26);stroke:black;stroke-width:3.55px;"/>
                </g>
                <g transform="matrix(0.812376,0,0,1.40111,1800.15,256.07)">
                    <rect x="2500" y="106.496" width="110" height="65.504" style="fill:rgb(229,242,13);stroke:black;stroke-width:3.55px;"/>
                </g>
                <g transform="matrix(0.812376,0,0,1.40111,1800.15,164.292)">
                    <rect x="2500" y="106.496" width="110" height="65.504" style="fill:rgb(13,202,242);stroke:black;stroke-width:3.55px;"/>
                </g>
                <g transform="matrix(0.812376,0,0,1.40111,1800.15,347.849)">
                    <rect x="2500" y="106.496" width="110" height="65.504" style="fill:rgb(230,169,26);stroke:black;stroke-width:3.55px;"/>
                </g>
            </g>
            <g transform="matrix(0.646607,0,0,0.469027,961.242,26.1161)">
                <g transform="matrix(0.812376,0,0,1.40111,1800.15,72.5143)">
                    <rect x="2500" y="106.496" width="110" height="65.504" style="fill:rgb(140,115,133);stroke:black;stroke-width:3.55px;"/>
                </g>
                <g transform="matrix(0.812376,0,0,1.40111,1800.15,256.07)">
                    <rect x="2500" y="106.496" width="110" height="65.504" style="fill:rgb(107,166,89);stroke:black;stroke-width:3.55px;"/>
                </g>
                <g transform="matrix(0.812376,0,0,1.40111,1800.15,164.292)">
                    <rect x="2500" y="106.496" width="110" height="65.504" style="fill:rgb(121,140,115);stroke:black;stroke-width:3.55px;"/>
                </g>
                <g transform="matrix(0.812376,0,0,1.40111,1800.15,347.849)">
                    <rect x="2500" y="106.496" width="110" height="65.504" style="fill:rgb(77,179,160);stroke:black;stroke-width:3.55px;"/>
                </g>
            </g>
            <g transform="matrix(0.646607,0,0,0.469027,932.876,263.047)">
                <g transform="matrix(0.812376,0,0,1.40111,1800.15,72.5143)">
                    <rect x="2500" y="106.496" width="110" height="65.504" style="fill:rgb(107,166,89);stroke:black;stroke-width:3.55px;"/>
                </g>
                <g transform="matrix(0.812376,0,0,1.40111,1800.15,256.07)">
                    <rect x="2500" y="106.496" width="110" height="65.504" style="fill:rgb(140,115,133);stroke:black;stroke-width:3.55px;"/>
                </g>
                <g transform="matrix(0.812376,0,0,1.40111,1800.15,164.292)">
                    <rect x="2500" y="106.496" width="110" height="65.504" style="fill:rgb(77,179,160);stroke:black;stroke-width:3.55px;"/>
                </g>
                <g transform="matrix(0.812376,0,0,1.40111,1800.15,347.849)">
                    <rect x="2500" y="106.496" width="110" height="65.504" style="fill:rgb(121,140,115);stroke:black;stroke-width:3.55px;"/>
                </g>
            </g>
            <g transform="matrix(0.317425,0,0,0.469027,2179.64,26.1161)">
                <g transform="matrix(0.812376,0,0,1.40111,1666.67,72.5143)">
                    <rect x="2500" y="106.496" width="110" height="65.504" style="fill:white;stroke:black;stroke-width:5.18px;"/>
                </g>
                <g transform="matrix(0.812376,0,0,1.40111,1666.67,256.07)">
                    <rect x="2500" y="106.496" width="110" height="65.504" style="fill:white;stroke:black;stroke-width:5.18px;"/>
                </g>
                <g transform="matrix(0.812376,0,0,1.40111,1666.67,164.292)">
                    <rect x="2500" y="106.496" width="110" height="65.504" style="fill:white;stroke:black;stroke-width:5.18px;"/>
                </g>
                <g transform="matrix(0.812376,0,0,1.40111,1666.67,347.849)">
                    <rect x="2500" y="106.496" width="110" height="65.504" style="fill:white;stroke:black;stroke-width:5.18px;"/>
                </g>
            </g>
            <g transform="matrix(0.317425,0,0,0.469027,2150.23,263.047)">
                <g transform="matrix(0.812376,0,0,1.40111,1666.67,72.5143)">
                    <rect x="2500" y="106.496" width="110" height="65.504" style="fill:white;stroke:black;stroke-width:5.18px;"/>
                </g>
                <g transform="matrix(0.812376,0,0,1.40111,1666.67,256.07)">
                    <rect x="2500" y="106.496" width="110" height="65.504" style="fill:white;stroke:black;stroke-width:5.18px;"/>
                </g>
                <g transform="matrix(0.812376,0,0,1.40111,1666.67,164.292)">
                    <rect x="2500" y="106.496" width="110" height="65.504" style="fill:white;stroke:black;stroke-width:5.18px;"/>
                </g>
                <g transform="matrix(0.812376,0,0,1.40111,1666.67,347.849)">
                    <rect x="2500" y="106.496" width="110" height="65.504" style="fill:white;stroke:black;stroke-width:5.18px;"/>
                </g>
            </g>
            <g transform="matrix(0.317425,0,0,0.469027,2236.37,26.1161)">
                <g transform="matrix(0.812376,0,0,1.40111,1666.67,72.5143)">
                    <rect x="2500" y="106.496" width="110" height="65.504" style="fill:white;stroke:black;stroke-width:5.18px;"/>
                </g>
                <g transform="matrix(0.812376,0,0,1.40111,1666.67,256.07)">
                    <rect x="2500" y="106.496" width="110" height="65.504" style="fill:white;stroke:black;stroke-width:5.18px;"/>
                </g>
                <g transform="matrix(0.812376,0,0,1.40111,1666.67,164.292)">
                    <rect x="2500" y="106.496" width="110" height="65.504" style="fill:white;stroke:black;stroke-width:5.18px;"/>
                </g>
                <g transform="matrix(0.812376,0,0,1.40111,1666.67,347.849)">
                    <rect x="2500" y="106.496" width="110" height="65.504" style="fill:white;stroke:black;stroke-width:5.18px;"/>
                </g>
            </g>
            <g transform="matrix(9.40197e-18,0.292595,-0.525288,6.12925e-17,4197.09,-371.477)">
                <g transform="matrix(2.09479e-16,-1,3.42105,6.12323e-17,1707.46,1784)">
                    <path d="M277.834,191.285L259.834,218.285L241.834,191.285L277.834,191.285Z" style="fill:none;stroke:black;stroke-width:8px;stroke-linecap:butt;stroke-linejoin:miter;"/>
                    <path d="M259.834,190.496L259.834,191.285" style="fill:none;stroke:black;stroke-width:8px;stroke-linecap:butt;stroke-linejoin:miter;stroke-miterlimit:1;stroke-dasharray:8,8;"/>
                </g>
            </g>
            <g transform="matrix(0.525288,0,0,1.00098,1072.26,171.634)">
                <g transform="matrix(28,0,0,28,4469.99,120.022)">
                    <path d="M0.478,-0.765L0.478,-0.692L0.18,-0.692L0.18,-0.481C0.198,-0.491 0.217,-0.497 0.238,-0.501C0.259,-0.504 0.278,-0.506 0.296,-0.506C0.334,-0.506 0.369,-0.499 0.401,-0.486C0.432,-0.472 0.461,-0.446 0.487,-0.408C0.513,-0.369 0.525,-0.316 0.525,-0.248C0.525,-0.176 0.502,-0.114 0.454,-0.064C0.407,-0.013 0.346,0.012 0.271,0.012C0.248,0.012 0.226,0.01 0.204,0.006C0.183,0.002 0.164,-0.003 0.147,-0.008C0.13,-0.013 0.115,-0.019 0.103,-0.025C0.091,-0.03 0.083,-0.035 0.079,-0.038L0.115,-0.107C0.183,-0.076 0.238,-0.06 0.28,-0.06C0.326,-0.06 0.364,-0.078 0.394,-0.115C0.424,-0.151 0.439,-0.196 0.439,-0.25C0.439,-0.296 0.431,-0.334 0.415,-0.362C0.398,-0.391 0.38,-0.411 0.359,-0.422C0.338,-0.433 0.314,-0.438 0.288,-0.438C0.258,-0.438 0.232,-0.434 0.208,-0.427C0.183,-0.419 0.163,-0.406 0.146,-0.389L0.102,-0.389L0.102,-0.765L0.478,-0.765Z" style="fill-rule:nonzero;"/>
                </g>
            </g>
            <g transform="matrix(0.525288,0,0,1.00098,1014.42,43.1573)">
                <g transform="matrix(28,0,0,28,4469.99,120.022)">
                    <path d="M0.26,-0.067L0.26,-0.68L0.116,-0.604L0.116,-0.684L0.274,-0.765L0.343,-0.765L0.343,-0.067L0.471,-0.067L0.471,-0L0.121,-0L0.121,-0.067L0.26,-0.067Z" style="fill-rule:nonzero;"/>
                </g>
            </g>
            <g transform="matrix(0.525288,0,0,1.00098,985.001,278.905)">
                <g transform="matrix(28,0,0,28,4469.99,120.022)">
                    <path d="M0.26,-0.067L0.26,-0.68L0.116,-0.604L0.116,-0.684L0.274,-0.765L0.343,-0.765L0.343,-0.067L0.471,-0.067L0.471,-0L0.121,-0L0.121,-0.067L0.26,-0.067Z" style="fill-rule:nonzero;"/>
                </g>
            </g>
            <g transform="matrix(0.525288,0,0,1.00098,1071.8,130.192)">
                <g transform="matrix(28,0,0,28,4469.99,120.022)">
                    <path d="M0.26,-0.067L0.26,-0.68L0.116,-0.604L0.116,-0.684L0.274,-0.765L0.343,-0.765L0.343,-0.067L0.471,-0.067L0.471,-0L0.121,-0L0.121,-0.067L0.26,-0.067Z" style="fill-rule:nonzero;"/>
                </g>
            </g>
            <g transform="matrix(0.525288,0,0,1.00098,1014.29,86.6027)">
                <g transform="matrix(28,0,0,28,4469.99,120.022)">
                    <path d="M0.478,-0.765L0.478,-0.692L0.18,-0.692L0.18,-0.481C0.198,-0.491 0.217,-0.497 0.238,-0.501C0.259,-0.504 0.278,-0.506 0.296,-0.506C0.334,-0.506 0.369,-0.499 0.401,-0.486C0.432,-0.472 0.461,-0.446 0.487,-0.408C0.513,-0.369 0.525,-0.316 0.525,-0.248C0.525,-0.176 0.502,-0.114 0.454,-0.064C0.407,-0.013 0.346,0.012 0.271,0.012C0.248,0.012 0.226,0.01 0.204,0.006C0.183,0.002 0.164,-0.003 0.147,-0.008C0.13,-0.013 0.115,-0.019 0.103,-0.025C0.091,-0.03 0.083,-0.035 0.079,-0.038L0.115,-0.107C0.183,-0.076 0.238,-0.06 0.28,-0.06C0.326,-0.06 0.364,-0.078 0.394,-0.115C0.424,-0.151 0.439,-0.196 0.439,-0.25C0.439,-0.296 0.431,-0.334 0.415,-0.362C0.398,-0.391 0.38,-0.411 0.359,-0.422C0.338,-0.433 0.314,-0.438 0.288,-0.438C0.258,-0.438 0.232,-0.434 0.208,-0.427C0.183,-0.419 0.163,-0.406 0.146,-0.389L0.102,-0.389L0.102,-0.765L0.478,-0.765Z" style="fill-rule:nonzero;"/>
                </g>
            </g>
            <g transform="matrix(0.525288,0,0,1.00098,984.872,322.35)">
                <g transform="matrix(28,0,0,28,4469.99,120.022)">
                    <path d="M0.478,-0.765L0.478,-0.692L0.18,-0.692L0.18,-0.481C0.198,-0.491 0.217,-0.497 0.238,-0.501C0.259,-0.504 0.278,-0.506 0.296,-0.506C0.334,-0.506 0.369,-0.499 0.401,-0.486C0.432,-0.472 0.461,-0.446 0.487,-0.408C0.513,-0.369 0.525,-0.316 0.525,-0.248C0.525,-0.176 0.502,-0.114 0.454,-0.064C0.407,-0.013 0.346,0.012 0.271,0.012C0.248,0.012 0.226,0.01 0.204,0.006C0.183,0.002 0.164,-0.003 0.147,-0.008C0.13,-0.013 0.115,-0.019 0.103,-0.025C0.091,-0.03 0.083,-0.035 0.079,-0.038L0.115,-0.107C0.183,-0.076 0.238,-0.06 0.28,-0.06C0.326,-0.06 0.364,-0.078 0.394,-0.115C0.424,-0.151 0.439,-0.196 0.439,-0.25C0.439,-0.296 0.431,-0.334 0.415,-0.362C0.398,-0.391 0.38,-0.411 0.359,-0.422C0.338,-0.433 0.314,-0.438 0.288,-0.438C0.258,-0.438 0.232,-0.434 0.208,-0.427C0.183,-0.419 0.163,-0.406 0.146,-0.389L0.102,-0.389L0.102,-0.765L0.478,-0.765Z" style="fill-rule:nonzero;"/>
                </g>
            </g>
            <g transform="matrix(0.525288,0,0,1.00098,1014.45,129.575)">
                <g transform="matrix(28,0,0,28,4469.99,120.022)">
                    <path d="M0.516,-0L0.07,-0L0.07,-0.045C0.07,-0.075 0.076,-0.102 0.086,-0.126C0.097,-0.15 0.111,-0.173 0.128,-0.194C0.146,-0.215 0.165,-0.235 0.188,-0.254C0.21,-0.273 0.233,-0.291 0.256,-0.309C0.279,-0.327 0.302,-0.345 0.324,-0.363C0.346,-0.381 0.366,-0.4 0.384,-0.42C0.401,-0.44 0.415,-0.461 0.426,-0.483C0.436,-0.506 0.441,-0.531 0.441,-0.558C0.441,-0.61 0.43,-0.649 0.406,-0.675C0.382,-0.701 0.344,-0.714 0.292,-0.714C0.281,-0.714 0.269,-0.713 0.257,-0.71C0.244,-0.708 0.232,-0.705 0.22,-0.7C0.208,-0.696 0.196,-0.69 0.185,-0.683C0.173,-0.677 0.163,-0.669 0.153,-0.66L0.108,-0.717C0.133,-0.738 0.161,-0.755 0.193,-0.767C0.224,-0.779 0.261,-0.785 0.302,-0.785C0.334,-0.785 0.364,-0.781 0.392,-0.772C0.419,-0.763 0.443,-0.749 0.463,-0.731C0.483,-0.713 0.498,-0.69 0.51,-0.662C0.521,-0.634 0.526,-0.602 0.526,-0.565C0.526,-0.534 0.521,-0.505 0.511,-0.479C0.5,-0.453 0.486,-0.429 0.469,-0.406C0.452,-0.383 0.432,-0.362 0.411,-0.343C0.389,-0.324 0.367,-0.305 0.344,-0.287C0.321,-0.269 0.299,-0.252 0.277,-0.235C0.255,-0.218 0.235,-0.201 0.218,-0.184C0.201,-0.166 0.187,-0.149 0.176,-0.13C0.165,-0.112 0.16,-0.092 0.16,-0.071L0.516,-0.071L0.516,-0Z" style="fill-rule:nonzero;"/>
                </g>
            </g>
            <g transform="matrix(0.525288,0,0,1.00098,985.033,365.323)">
                <g transform="matrix(28,0,0,28,4469.99,120.022)">
                    <path d="M0.516,-0L0.07,-0L0.07,-0.045C0.07,-0.075 0.076,-0.102 0.086,-0.126C0.097,-0.15 0.111,-0.173 0.128,-0.194C0.146,-0.215 0.165,-0.235 0.188,-0.254C0.21,-0.273 0.233,-0.291 0.256,-0.309C0.279,-0.327 0.302,-0.345 0.324,-0.363C0.346,-0.381 0.366,-0.4 0.384,-0.42C0.401,-0.44 0.415,-0.461 0.426,-0.483C0.436,-0.506 0.441,-0.531 0.441,-0.558C0.441,-0.61 0.43,-0.649 0.406,-0.675C0.382,-0.701 0.344,-0.714 0.292,-0.714C0.281,-0.714 0.269,-0.713 0.257,-0.71C0.244,-0.708 0.232,-0.705 0.22,-0.7C0.208,-0.696 0.196,-0.69 0.185,-0.683C0.173,-0.677 0.163,-0.669 0.153,-0.66L0.108,-0.717C0.133,-0.738 0.161,-0.755 0.193,-0.767C0.224,-0.779 0.261,-0.785 0.302,-0.785C0.334,-0.785 0.364,-0.781 0.392,-0.772C0.419,-0.763 0.443,-0.749 0.463,-0.731C0.483,-0.713 0.498,-0.69 0.51,-0.662C0.521,-0.634 0.526,-0.602 0.526,-0.565C0.526,-0.534 0.521,-0.505 0.511,-0.479C0.5,-0.453 0.486,-0.429 0.469,-0.406C0.452,-0.383 0.432,-0.362 0.411,-0.343C0.389,-0.324 0.367,-0.305 0.344,-0.287C0.321,-0.269 0.299,-0.252 0.277,-0.235C0.255,-0.218 0.235,-0.201 0.218,-0.184C0.201,-0.166 0.187,-0.149 0.176,-0.13C0.165,-0.112 0.16,-0.092 0.16,-0.071L0.516,-0.071L0.516,-0Z" style="fill-rule:nonzero;"/>
                </g>
            </g>
            <g transform="matrix(0.525288,0,0,1.00098,1071.62,86.4666)">
                <g transform="matrix(28,0,0,28,4469.99,120.022)">
                    <path d="M0.293,-0.058C0.346,-0.058 0.385,-0.083 0.41,-0.134C0.435,-0.184 0.448,-0.275 0.448,-0.406C0.448,-0.497 0.438,-0.571 0.419,-0.628C0.399,-0.686 0.357,-0.715 0.293,-0.715C0.23,-0.715 0.188,-0.686 0.167,-0.628C0.145,-0.57 0.134,-0.493 0.135,-0.397C0.135,-0.263 0.148,-0.172 0.174,-0.127C0.199,-0.081 0.239,-0.058 0.293,-0.058ZM0.29,0.012C0.207,0.012 0.146,-0.022 0.106,-0.092C0.067,-0.161 0.047,-0.263 0.047,-0.397C0.047,-0.515 0.067,-0.609 0.108,-0.679C0.149,-0.75 0.21,-0.785 0.293,-0.785C0.371,-0.785 0.431,-0.753 0.473,-0.69C0.515,-0.626 0.536,-0.524 0.536,-0.383C0.536,-0.248 0.514,-0.149 0.471,-0.084C0.428,-0.02 0.368,0.012 0.29,0.012Z" style="fill-rule:nonzero;"/>
                </g>
            </g>
            <g transform="matrix(0.525288,0,0,1.00098,1014.35,171.353)">
                <g transform="matrix(28,0,0,28,4469.99,120.022)">
                    <path d="M0.293,-0.058C0.346,-0.058 0.385,-0.083 0.41,-0.134C0.435,-0.184 0.448,-0.275 0.448,-0.406C0.448,-0.497 0.438,-0.571 0.419,-0.628C0.399,-0.686 0.357,-0.715 0.293,-0.715C0.23,-0.715 0.188,-0.686 0.167,-0.628C0.145,-0.57 0.134,-0.493 0.135,-0.397C0.135,-0.263 0.148,-0.172 0.174,-0.127C0.199,-0.081 0.239,-0.058 0.293,-0.058ZM0.29,0.012C0.207,0.012 0.146,-0.022 0.106,-0.092C0.067,-0.161 0.047,-0.263 0.047,-0.397C0.047,-0.515 0.067,-0.609 0.108,-0.679C0.149,-0.75 0.21,-0.785 0.293,-0.785C0.371,-0.785 0.431,-0.753 0.473,-0.69C0.515,-0.626 0.536,-0.524 0.536,-0.383C0.536,-0.248 0.514,-0.149 0.471,-0.084C0.428,-0.02 0.368,0.012 0.29,0.012Z" style="fill-rule:nonzero;"/>
                </g>
            </g>
            <g transform="matrix(0.525288,0,0,1.00098,984.929,407.1)">
                <g transform="matrix(28,0,0,28,4469.99,120.022)">
                    <path d="M0.293,-0.058C0.346,-0.058 0.385,-0.083 0.41,-0.134C0.435,-0.184 0.448,-0.275 0.448,-0.406C0.448,-0.497 0.438,-0.571 0.419,-0.628C0.399,-0.686 0.357,-0.715 0.293,-0.715C0.23,-0.715 0.188,-0.686 0.167,-0.628C0.145,-0.57 0.134,-0.493 0.135,-0.397C0.135,-0.263 0.148,-0.172 0.174,-0.127C0.199,-0.081 0.239,-0.058 0.293,-0.058ZM0.29,0.012C0.207,0.012 0.146,-0.022 0.106,-0.092C0.067,-0.161 0.047,-0.263 0.047,-0.397C0.047,-0.515 0.067,-0.609 0.108,-0.679C0.149,-0.75 0.21,-0.785 0.293,-0.785C0.371,-0.785 0.431,-0.753 0.473,-0.69C0.515,-0.626 0.536,-0.524 0.536,-0.383C0.536,-0.248 0.514,-0.149 0.471,-0.084C0.428,-0.02 0.368,0.012 0.29,0.012Z" style="fill-rule:nonzero;"/>
                </g>
            </g>
            <g transform="matrix(0.525288,0,0,1.00098,1070.73,43.2504)">
                <g transform="matrix(28,0,0,28,4469.99,120.022)">
                    <path d="M0.516,-0L0.07,-0L0.07,-0.045C0.07,-0.075 0.076,-0.102 0.086,-0.126C0.097,-0.15 0.111,-0.173 0.128,-0.194C0.146,-0.215 0.165,-0.235 0.188,-0.254C0.21,-0.273 0.233,-0.291 0.256,-0.309C0.279,-0.327 0.302,-0.345 0.324,-0.363C0.346,-0.381 0.366,-0.4 0.384,-0.42C0.401,-0.44 0.415,-0.461 0.426,-0.483C0.436,-0.506 0.441,-0.531 0.441,-0.558C0.441,-0.61 0.43,-0.649 0.406,-0.675C0.382,-0.701 0.344,-0.714 0.292,-0.714C0.281,-0.714 0.269,-0.713 0.257,-0.71C0.244,-0.708 0.232,-0.705 0.22,-0.7C0.208,-0.696 0.196,-0.69 0.185,-0.683C0.173,-0.677 0.163,-0.669 0.153,-0.66L0.108,-0.717C0.133,-0.738 0.161,-0.755 0.193,-0.767C0.224,-0.779 0.261,-0.785 0.302,-0.785C0.334,-0.785 0.364,-0.781 0.392,-0.772C0.419,-0.763 0.443,-0.749 0.463,-0.731C0.483,-0.713 0.498,-0.69 0.51,-0.662C0.521,-0.634 0.526,-0.602 0.526,-0.565C0.526,-0.534 0.521,-0.505 0.511,-0.479C0.5,-0.453 0.486,-0.429 0.469,-0.406C0.452,-0.383 0.432,-0.362 0.411,-0.343C0.389,-0.324 0.367,-0.305 0.344,-0.287C0.321,-0.269 0.299,-0.252 0.277,-0.235C0.255,-0.218 0.235,-0.201 0.218,-0.184C0.201,-0.166 0.187,-0.149 0.176,-0.13C0.165,-0.112 0.16,-0.092 0.16,-0.071L0.516,-0.071L0.516,-0Z" style="fill-rule:nonzero;"/>
                </g>
            </g>
            <g transform="matrix(0.642541,0,0,1.00098,467.975,70.3767)">
                <path d="M4712.99,210.191L4736,210.191L4736,360L4668.8,360" style="fill:none;stroke:black;stroke-width:1.79px;"/>
            </g>
            <g transform="matrix(0.630593,0,0,1.00098,552.61,70.3767)">
                <path d="M4349.13,124.182L4310,124.182L4310,360.881L4394.8,360.881" style="fill:none;stroke:black;stroke-width:1.81px;"/>
            </g>
            <g transform="matrix(0.525288,0,0,1.00098,1015.4,30.3374)">
                <path d="M4504.8,164.182L4558.8,250.191" style="fill:none;stroke:black;stroke-width:2px;"/>
            </g>
            <g transform="matrix(0.525288,0,0,1.00098,1015.4,30.3374)">
                <path d="M4504.8,250.191L4558.8,164.182" style="fill:none;stroke:black;stroke-width:2px;"/>
            </g>
            <g transform="matrix(0.525288,0,0,1.00098,1015.4,30.3374)">
                <path d="M4504.8,121.178L4558.8,207.186" style="fill:none;stroke:black;stroke-width:2px;"/>
            </g>
            <g transform="matrix(0.525288,0,0,1.00098,1015.4,30.3374)">
                <path d="M4504.8,207.186L4558.8,121.178" style="fill:none;stroke:black;stroke-width:2px;"/>
            </g>
            <g transform="matrix(0.435822,0,0,1.00098,1433.1,70.3767)">
                <path d="M4751,167.186L4751,318L4668.8,318" style="fill:none;stroke:black;stroke-width:2.18px;"/>
            </g>
            <g transform="matrix(0.525288,0,0,1.00098,1015.4,80.3865)">
                <path d="M4737,157.186L4722.8,157.186" style="fill:none;stroke:black;stroke-width:2px;"/>
            </g>
            <g transform="matrix(0.613008,0,0,1.00098,629.893,70.3767)">
                <path d="M4348.51,81.178L4293,81.178L4293,317.877L4394.8,317.877" style="fill:none;stroke:black;stroke-width:1.84px;"/>
            </g>
            <g transform="matrix(0.509869,0,0,0.865807,1087.39,86.7571)">
                <path d="M4724.86,74.933L4771,74.933L4771,447L4668.8,447" style="fill:none;stroke:black;stroke-width:2.18px;"/>
            </g>
            <g transform="matrix(0.592106,0,0,0.861031,703.445,131.191)">
                <path d="M4716.71,74.677L4771,74.677L4771,447L4668.8,447" style="fill:none;stroke:black;stroke-width:1.99px;"/>
            </g>
            <g transform="matrix(0.647447,0,0,0.817327,478.538,108.428)">
                <path d="M4350.55,158.198L4326,158.198L4326,447L4394.8,447" style="fill:none;stroke:black;stroke-width:1.91px;"/>
            </g>
            <g transform="matrix(0.525288,0,0,1.31377,1015.4,-7.87863)">
                <path d="M4340.8,219.714L4326,219.714L4326,400L4394.8,400" style="fill:none;stroke:black;stroke-width:1.71px;"/>
            </g>
        </g>
    </g>
</svg>
