<?xml version="1.0" encoding="UTF-8" standalone="no"?>
<!DOCTYPE svg PUBLIC "-//W3C//DTD SVG 1.1//EN" "http://www.w3.org/Graphics/SVG/1.1/DTD/svg11.dtd">
<svg width="100%" height="100%" viewBox="0 0 760 1142" version="1.1" xmlns="http://www.w3.org/2000/svg" xmlns:xlink="http://www.w3.org/1999/xlink" xml:space="preserve" xmlns:serif="http://www.serif.com/" style="fill-rule:evenodd;clip-rule:evenodd;stroke-linejoin:round;stroke-miterlimit:10;">
    <rect id="Spatial-Databases-2" serif:id="Spatial Databases 2" x="-1357.91" y="-210" width="3858" height="5937" style="fill:none;"/>
    <path d="M103.111,14.284L85.471,14.284L85.471,55.9L75.607,55.9L75.607,5.5L112.975,5.5L112.975,55.9L103.111,55.9L103.111,14.284Z" style="fill-rule:nonzero;"/>
    <path d="M121.399,19.9L128.239,19.9L129.319,24.22L129.607,24.22C130.855,22.396 132.331,21.052 134.035,20.188C135.739,19.324 137.815,18.892 140.263,18.892C144.775,18.892 148.159,20.32 150.415,23.176C152.671,26.032 153.799,30.628 153.799,36.964C153.799,40.036 153.439,42.808 152.719,45.28C151.999,47.752 150.931,49.852 149.515,51.58C148.099,53.308 146.371,54.628 144.331,55.54C142.291,56.452 139.951,56.908 137.311,56.908C135.823,56.908 134.599,56.8 133.639,56.584C132.679,56.368 131.719,56.02 130.759,55.54L130.759,70.3L121.399,70.3L121.399,19.9ZM137.455,26.812C135.631,26.812 134.203,27.268 133.171,28.18C132.139,29.092 131.335,30.46 130.759,32.284L130.759,47.26C131.431,47.788 132.163,48.208 132.955,48.52C133.747,48.832 134.791,48.988 136.087,48.988C138.775,48.988 140.791,48.04 142.135,46.144C143.479,44.248 144.151,41.116 144.151,36.748C144.151,33.58 143.623,31.132 142.567,29.404C141.511,27.676 139.807,26.812 137.455,26.812Z" style="fill-rule:nonzero;"/>
    <path d="M158.551,37.9C158.551,31.804 160.039,27.112 163.015,23.824C165.991,20.536 170.167,18.892 175.543,18.892C178.423,18.892 180.919,19.348 183.031,20.26C185.143,21.172 186.895,22.456 188.287,24.112C189.679,25.768 190.723,27.772 191.419,30.124C192.115,32.476 192.463,35.068 192.463,37.9C192.463,43.996 190.987,48.688 188.035,51.976C185.083,55.264 180.919,56.908 175.543,56.908C172.663,56.908 170.167,56.452 168.055,55.54C165.943,54.628 164.179,53.344 162.763,51.688C161.347,50.032 160.291,48.028 159.595,45.676C158.899,43.324 158.551,40.732 158.551,37.9ZM168.199,37.9C168.199,39.484 168.343,40.948 168.631,42.292C168.919,43.636 169.351,44.812 169.927,45.82C170.503,46.828 171.259,47.608 172.195,48.16C173.131,48.712 174.247,48.988 175.543,48.988C177.991,48.988 179.815,48.1 181.015,46.324C182.215,44.548 182.815,41.74 182.815,37.9C182.815,34.588 182.263,31.912 181.159,29.872C180.055,27.832 178.183,26.812 175.543,26.812C173.239,26.812 171.439,27.676 170.143,29.404C168.847,31.132 168.199,33.964 168.199,37.9Z" style="fill-rule:nonzero;"/>
    <path d="M224.431,53.668C222.991,54.724 221.251,55.528 219.211,56.08C217.171,56.632 215.071,56.908 212.911,56.908C210.031,56.908 207.595,56.452 205.603,55.54C203.611,54.628 201.991,53.344 200.743,51.688C199.495,50.032 198.595,48.028 198.043,45.676C197.491,43.324 197.215,40.732 197.215,37.9C197.215,31.804 198.583,27.112 201.319,23.824C204.055,20.536 208.039,18.892 213.271,18.892C215.911,18.892 218.035,19.108 219.643,19.54C221.251,19.972 222.703,20.524 223.999,21.196L221.767,28.828C220.663,28.3 219.571,27.892 218.491,27.604C217.411,27.316 216.175,27.172 214.783,27.172C212.191,27.172 210.223,28.024 208.879,29.728C207.535,31.432 206.863,34.156 206.863,37.9C206.863,39.436 207.031,40.852 207.367,42.148C207.703,43.444 208.207,44.572 208.879,45.532C209.551,46.492 210.427,47.248 211.507,47.8C212.587,48.352 213.847,48.628 215.287,48.628C216.871,48.628 218.215,48.424 219.319,48.016C220.423,47.608 221.407,47.116 222.271,46.54L224.431,53.668Z" style="fill-rule:nonzero;"/>
    <path d="M256.039,28.18L246.031,28.18L246.031,55.9L236.383,55.9L236.383,28.18L226.087,28.18L226.087,19.9L256.039,19.9L256.039,28.18Z" style="fill-rule:nonzero;"/>
    <path d="M258.487,37.9C258.487,31.804 259.975,27.112 262.951,23.824C265.927,20.536 270.103,18.892 275.479,18.892C278.359,18.892 280.855,19.348 282.967,20.26C285.079,21.172 286.831,22.456 288.223,24.112C289.615,25.768 290.659,27.772 291.355,30.124C292.051,32.476 292.399,35.068 292.399,37.9C292.399,43.996 290.923,48.688 287.971,51.976C285.019,55.264 280.855,56.908 275.479,56.908C272.599,56.908 270.103,56.452 267.991,55.54C265.879,54.628 264.115,53.344 262.699,51.688C261.283,50.032 260.227,48.028 259.531,45.676C258.835,43.324 258.487,40.732 258.487,37.9ZM268.135,37.9C268.135,39.484 268.279,40.948 268.567,42.292C268.855,43.636 269.287,44.812 269.863,45.82C270.439,46.828 271.195,47.608 272.131,48.16C273.067,48.712 274.183,48.988 275.479,48.988C277.927,48.988 279.751,48.1 280.951,46.324C282.151,44.548 282.751,41.74 282.751,37.9C282.751,34.588 282.199,31.912 281.095,29.872C279.991,27.832 278.119,26.812 275.479,26.812C273.175,26.812 271.375,27.676 270.079,29.404C268.783,31.132 268.135,33.964 268.135,37.9Z" style="fill-rule:nonzero;"/>
    <path d="M320.551,39.484L320.911,34.372L320.695,34.372L317.599,39.628L304.783,55.9L298.879,55.9L298.879,19.9L308.239,19.9L308.239,37.036L307.807,41.932L308.095,41.932L311.047,36.82L324.007,19.9L329.911,19.9L329.911,55.9L320.551,55.9L320.551,39.484ZM310.543,5.212C310.879,7.084 311.443,8.404 312.235,9.172C313.027,9.94 314.047,10.324 315.295,10.324C316.639,10.324 317.707,9.94 318.499,9.172C319.291,8.404 319.831,7.108 320.119,5.284L327.247,7.084C326.671,10.204 325.255,12.52 322.999,14.032C320.743,15.544 318.103,16.3 315.079,16.3C313.591,16.3 312.151,16.132 310.759,15.796C309.367,15.46 308.119,14.92 307.015,14.176C305.911,13.432 304.975,12.484 304.207,11.332C303.439,10.18 302.911,8.764 302.623,7.084L310.543,5.212Z" style="fill-rule:nonzero;"/>
    <path d="M452.689,34.804L434.257,34.804L434.257,55.9L424.393,55.9L424.393,5.5L434.257,5.5L434.257,26.02L452.689,26.02L452.689,5.5L462.553,5.5L462.553,55.9L452.689,55.9L452.689,34.804Z" style="fill-rule:nonzero;"/>
    <path d="M499.849,52.804C498.409,53.956 496.453,54.928 493.981,55.72C491.509,56.512 488.881,56.908 486.097,56.908C480.289,56.908 476.041,55.216 473.353,51.832C470.665,48.448 469.321,43.804 469.321,37.9C469.321,31.564 470.833,26.812 473.857,23.644C476.881,20.476 481.129,18.892 486.601,18.892C488.425,18.892 490.201,19.132 491.929,19.612C493.657,20.092 495.193,20.884 496.537,21.988C497.881,23.092 498.961,24.58 499.777,26.452C500.593,28.324 501.001,30.652 501.001,33.436C501.001,34.444 500.941,35.524 500.821,36.676C500.701,37.828 500.521,39.028 500.281,40.276L478.681,40.276C478.825,43.3 479.605,45.58 481.021,47.116C482.437,48.652 484.729,49.42 487.897,49.42C489.865,49.42 491.629,49.12 493.189,48.52C494.749,47.92 495.937,47.308 496.753,46.684L499.849,52.804ZM486.457,26.38C484.009,26.38 482.197,27.112 481.021,28.576C479.845,30.04 479.137,31.996 478.897,34.444L492.289,34.444C492.481,31.852 492.085,29.86 491.101,28.468C490.117,27.076 488.569,26.38 486.457,26.38Z" style="fill-rule:nonzero;"/>
    <path d="M528.361,28.18L516.985,28.18L516.985,55.9L507.625,55.9L507.625,19.9L537.721,19.9L537.721,55.9L528.361,55.9L528.361,28.18Z" style="fill-rule:nonzero;"/>
    <path d="M545.929,19.9L552.769,19.9L553.849,24.22L554.137,24.22C555.385,22.396 556.861,21.052 558.565,20.188C560.269,19.324 562.345,18.892 564.793,18.892C569.305,18.892 572.689,20.32 574.945,23.176C577.201,26.032 578.329,30.628 578.329,36.964C578.329,40.036 577.969,42.808 577.249,45.28C576.529,47.752 575.461,49.852 574.045,51.58C572.629,53.308 570.901,54.628 568.861,55.54C566.821,56.452 564.481,56.908 561.841,56.908C560.353,56.908 559.129,56.8 558.169,56.584C557.209,56.368 556.249,56.02 555.289,55.54L555.289,70.3L545.929,70.3L545.929,19.9ZM561.985,26.812C560.161,26.812 558.733,27.268 557.701,28.18C556.669,29.092 555.865,30.46 555.289,32.284L555.289,47.26C555.961,47.788 556.693,48.208 557.485,48.52C558.277,48.832 559.321,48.988 560.617,48.988C563.305,48.988 565.321,48.04 566.665,46.144C568.009,44.248 568.681,41.116 568.681,36.748C568.681,33.58 568.153,31.132 567.097,29.404C566.041,27.676 564.337,26.812 561.985,26.812Z" style="fill-rule:nonzero;"/>
    <path d="M583.081,37.9C583.081,31.804 584.569,27.112 587.545,23.824C590.521,20.536 594.697,18.892 600.073,18.892C602.953,18.892 605.449,19.348 607.561,20.26C609.673,21.172 611.425,22.456 612.817,24.112C614.209,25.768 615.253,27.772 615.949,30.124C616.645,32.476 616.993,35.068 616.993,37.9C616.993,43.996 615.517,48.688 612.565,51.976C609.613,55.264 605.449,56.908 600.073,56.908C597.193,56.908 594.697,56.452 592.585,55.54C590.473,54.628 588.709,53.344 587.293,51.688C585.877,50.032 584.821,48.028 584.125,45.676C583.429,43.324 583.081,40.732 583.081,37.9ZM592.729,37.9C592.729,39.484 592.873,40.948 593.161,42.292C593.449,43.636 593.881,44.812 594.457,45.82C595.033,46.828 595.789,47.608 596.725,48.16C597.661,48.712 598.777,48.988 600.073,48.988C602.521,48.988 604.345,48.1 605.545,46.324C606.745,44.548 607.345,41.74 607.345,37.9C607.345,34.588 606.793,31.912 605.689,29.872C604.585,27.832 602.713,26.812 600.073,26.812C597.769,26.812 595.969,27.676 594.673,29.404C593.377,31.132 592.729,33.964 592.729,37.9Z" style="fill-rule:nonzero;"/>
    <path d="M648.961,53.668C647.521,54.724 645.781,55.528 643.741,56.08C641.701,56.632 639.601,56.908 637.441,56.908C634.561,56.908 632.125,56.452 630.133,55.54C628.141,54.628 626.521,53.344 625.273,51.688C624.025,50.032 623.125,48.028 622.573,45.676C622.021,43.324 621.745,40.732 621.745,37.9C621.745,31.804 623.113,27.112 625.849,23.824C628.585,20.536 632.569,18.892 637.801,18.892C640.441,18.892 642.565,19.108 644.173,19.54C645.781,19.972 647.233,20.524 648.529,21.196L646.297,28.828C645.193,28.3 644.101,27.892 643.021,27.604C641.941,27.316 640.705,27.172 639.313,27.172C636.721,27.172 634.753,28.024 633.409,29.728C632.065,31.432 631.393,34.156 631.393,37.9C631.393,39.436 631.561,40.852 631.897,42.148C632.233,43.444 632.737,44.572 633.409,45.532C634.081,46.492 634.957,47.248 636.037,47.8C637.117,48.352 638.377,48.628 639.817,48.628C641.401,48.628 642.745,48.424 643.849,48.016C644.953,47.608 645.937,47.116 646.801,46.54L648.961,53.668Z" style="fill-rule:nonzero;"/>
    <path d="M680.569,28.18L670.561,28.18L670.561,55.9L660.913,55.9L660.913,28.18L650.617,28.18L650.617,19.9L680.569,19.9L680.569,28.18Z" style="fill-rule:nonzero;"/>
    <path d="M683.017,37.9C683.017,31.804 684.505,27.112 687.481,23.824C690.457,20.536 694.633,18.892 700.009,18.892C702.889,18.892 705.385,19.348 707.497,20.26C709.609,21.172 711.361,22.456 712.753,24.112C714.145,25.768 715.189,27.772 715.885,30.124C716.581,32.476 716.929,35.068 716.929,37.9C716.929,43.996 715.453,48.688 712.501,51.976C709.549,55.264 705.385,56.908 700.009,56.908C697.129,56.908 694.633,56.452 692.521,55.54C690.409,54.628 688.645,53.344 687.229,51.688C685.813,50.032 684.757,48.028 684.061,45.676C683.365,43.324 683.017,40.732 683.017,37.9ZM692.665,37.9C692.665,39.484 692.809,40.948 693.097,42.292C693.385,43.636 693.817,44.812 694.393,45.82C694.969,46.828 695.725,47.608 696.661,48.16C697.597,48.712 698.713,48.988 700.009,48.988C702.457,48.988 704.281,48.1 705.481,46.324C706.681,44.548 707.281,41.74 707.281,37.9C707.281,34.588 706.729,31.912 705.625,29.872C704.521,27.832 702.649,26.812 700.009,26.812C697.705,26.812 695.905,27.676 694.609,29.404C693.313,31.132 692.665,33.964 692.665,37.9Z" style="fill-rule:nonzero;"/>
    <path d="M745.081,39.484L745.441,34.372L745.225,34.372L742.129,39.628L729.313,55.9L723.409,55.9L723.409,19.9L732.769,19.9L732.769,37.036L732.337,41.932L732.625,41.932L735.577,36.82L748.537,19.9L754.441,19.9L754.441,55.9L745.081,55.9L745.081,39.484ZM735.073,5.212C735.409,7.084 735.973,8.404 736.765,9.172C737.557,9.94 738.577,10.324 739.825,10.324C741.169,10.324 742.237,9.94 743.029,9.172C743.821,8.404 744.361,7.108 744.649,5.284L751.777,7.084C751.201,10.204 749.785,12.52 747.529,14.032C745.273,15.544 742.633,16.3 739.609,16.3C738.121,16.3 736.681,16.132 735.289,15.796C733.897,15.46 732.649,14.92 731.545,14.176C730.441,13.432 729.505,12.484 728.737,11.332C727.969,10.18 727.441,8.764 727.153,7.084L735.073,5.212Z" style="fill-rule:nonzero;"/>
    <path d="M9.056,528.185C8.672,526.169 8.372,523.949 8.156,521.525C7.94,519.101 7.832,516.689 7.832,514.289C7.832,511.793 8.036,509.285 8.444,506.765C8.852,504.245 9.668,501.977 10.892,499.961C12.116,497.945 13.82,496.301 16.004,495.029C18.188,493.757 21.032,493.121 24.536,493.121C27.704,493.121 30.38,493.673 32.564,494.777C34.748,495.881 36.536,497.345 37.928,499.169C39.32,500.993 40.328,503.069 40.952,505.397C41.576,507.725 41.888,510.137 41.888,512.633L41.888,513.785C41.888,514.313 41.876,514.865 41.852,515.441C41.828,516.017 41.792,516.581 41.744,517.133C41.696,517.685 41.648,518.081 41.6,518.321L58.952,518.321L58.952,528.185L9.056,528.185ZM16.328,513.497C16.328,514.457 16.364,515.369 16.436,516.233C16.508,517.097 16.592,517.793 16.688,518.321L33.032,518.321C33.08,518.129 33.128,517.841 33.176,517.457C33.224,517.073 33.26,516.665 33.284,516.233C33.308,515.801 33.32,515.381 33.32,514.973L33.32,514.073C33.32,512.777 33.2,511.493 32.96,510.221C32.72,508.949 32.276,507.809 31.628,506.801C30.98,505.793 30.08,504.989 28.928,504.389C27.776,503.789 26.264,503.489 24.392,503.489C22.808,503.489 21.5,503.777 20.468,504.353C19.436,504.929 18.608,505.685 17.984,506.621C17.36,507.557 16.928,508.625 16.688,509.825C16.448,511.025 16.328,512.249 16.328,513.497Z" style="fill-rule:nonzero;"/>
    <path d="M25.04,487.433C24.176,485.513 23.492,483.233 22.988,480.593C22.484,477.953 22.232,475.193 22.232,472.313C22.232,469.817 22.532,467.729 23.132,466.049C23.732,464.369 24.584,463.037 25.688,462.053C26.792,461.069 28.112,460.373 29.648,459.965C31.184,459.557 32.912,459.353 34.832,459.353C36.944,459.353 39.068,459.425 41.204,459.569C43.34,459.713 45.44,459.797 47.504,459.821C49.568,459.845 51.572,459.785 53.516,459.641C55.46,459.497 57.296,459.137 59.024,458.561L59.024,466.193L54.056,467.705L54.056,468.065C55.544,469.025 56.828,470.357 57.908,472.061C58.988,473.765 59.528,475.961 59.528,478.649C59.528,480.329 59.276,481.841 58.772,483.185C58.268,484.529 57.548,485.681 56.612,486.641C55.676,487.601 54.572,488.345 53.3,488.873C52.028,489.401 50.6,489.665 49.016,489.665C46.808,489.665 44.948,489.173 43.436,488.189C41.924,487.205 40.7,485.789 39.764,483.941C38.828,482.093 38.18,479.885 37.82,477.317C37.46,474.749 37.352,471.881 37.496,468.713C34.808,468.377 32.876,468.569 31.7,469.289C30.524,470.009 29.936,471.617 29.936,474.113C29.936,475.985 30.128,477.965 30.512,480.053C30.896,482.141 31.4,483.857 32.024,485.201L25.04,487.433ZM51.824,475.553C51.824,473.681 51.404,472.193 50.564,471.089C49.724,469.985 48.824,469.169 47.864,468.641L43.184,468.641C43.04,470.129 43.016,471.557 43.112,472.925C43.208,474.293 43.424,475.505 43.76,476.561C44.096,477.617 44.576,478.457 45.2,479.081C45.824,479.705 46.616,480.017 47.576,480.017C48.92,480.017 49.964,479.621 50.708,478.829C51.452,478.037 51.824,476.945 51.824,475.553Z" style="fill-rule:nonzero;"/>
    <path d="M44.048,447.761L37.496,447.761L37.496,443.369C37.496,441.689 37.16,440.309 36.488,439.229C35.816,438.149 34.928,437.609 33.824,437.609C32.528,437.609 31.604,438.089 31.052,439.049C30.5,440.009 30.224,441.473 30.224,443.441C30.224,445.313 30.464,446.969 30.944,448.409C31.424,449.849 31.928,451.001 32.456,451.865L25.328,453.881C24.512,452.441 23.804,450.533 23.204,448.157C22.604,445.781 22.304,443.249 22.304,440.561C22.304,436.433 23.072,433.349 24.608,431.309C26.144,429.269 28.376,428.249 31.304,428.249C32.12,428.249 32.948,428.357 33.788,428.573C34.628,428.789 35.432,429.137 36.2,429.617C36.968,430.097 37.652,430.685 38.252,431.381C38.852,432.077 39.32,432.905 39.656,433.865L39.944,433.865C40.52,431.321 41.54,429.521 43.004,428.465C44.468,427.409 46.424,426.881 48.872,426.881C50.408,426.881 51.836,427.193 53.156,427.817C54.476,428.441 55.616,429.389 56.576,430.661C57.536,431.933 58.304,433.529 58.88,435.449C59.456,437.369 59.744,439.649 59.744,442.289C59.744,444.929 59.468,447.221 58.916,449.165C58.364,451.109 57.728,452.729 57.008,454.025L49.736,452.009C50.36,450.905 50.864,449.573 51.248,448.013C51.632,446.453 51.824,444.713 51.824,442.793C51.824,438.425 50.432,436.241 47.648,436.241C46.4,436.241 45.488,436.805 44.912,437.933C44.336,439.061 44.048,441.161 44.048,444.233L44.048,447.761Z" style="fill-rule:nonzero;"/>
    <path d="M40.952,422.129C34.856,422.129 30.164,420.641 26.876,417.665C23.588,414.689 21.944,410.513 21.944,405.137C21.944,402.257 22.4,399.761 23.312,397.649C24.224,395.537 25.508,393.785 27.164,392.393C28.82,391.001 30.824,389.957 33.176,389.261C35.528,388.565 38.12,388.217 40.952,388.217C47.048,388.217 51.74,389.693 55.028,392.645C58.316,395.597 59.96,399.761 59.96,405.137C59.96,408.017 59.504,410.513 58.592,412.625C57.68,414.737 56.396,416.501 54.74,417.917C53.084,419.333 51.08,420.389 48.728,421.085C46.376,421.781 43.784,422.129 40.952,422.129ZM40.952,412.481C42.536,412.481 44,412.337 45.344,412.049C46.688,411.761 47.864,411.329 48.872,410.753C49.88,410.177 50.66,409.421 51.212,408.485C51.764,407.549 52.04,406.433 52.04,405.137C52.04,402.689 51.152,400.865 49.376,399.665C47.6,398.465 44.792,397.865 40.952,397.865C37.64,397.865 34.964,398.417 32.924,399.521C30.884,400.625 29.864,402.497 29.864,405.137C29.864,407.441 30.728,409.241 32.456,410.537C34.184,411.833 37.016,412.481 40.952,412.481Z" style="fill-rule:nonzero;"/>
    <path d="M42.464,350.921L34.976,350.345L34.976,350.705L41.168,353.585L52.328,360.353L52.328,363.737L41.168,371.153L34.976,373.889L34.976,374.321L42.392,373.385L58.952,373.385L58.952,381.737L22.952,381.737L22.952,372.017L36.488,363.737L41.024,361.721L41.024,361.433L36.344,359.345L22.952,351.713L22.952,341.921L58.952,341.921L58.952,350.921L42.464,350.921Z" style="fill-rule:nonzero;"/>
    <path d="M44.048,321.905L44.048,324.425L58.952,324.425L58.952,333.785L22.952,333.785L22.952,324.425L38.288,324.425L37.28,322.193L22.952,313.769L22.952,303.761L36.632,312.473L39.368,316.145L42.176,312.113L58.952,302.393L58.952,313.121L44.048,321.905Z" style="fill-rule:nonzero;"/>
    <path d="M44.84,277.481L44.84,289.217L58.952,289.217L58.952,298.577L22.952,298.577L22.952,289.217L36.488,289.217L36.488,277.481L22.952,277.481L22.952,268.121L58.952,268.121L58.952,277.481L44.84,277.481Z" style="fill-rule:nonzero;"/>
    <path d="M43.184,246.809L48.8,245.513L48.8,245.081L43.112,244.145L22.952,238.673L22.952,229.025L55.424,239.969C58.112,240.881 60.572,241.757 62.804,242.597C65.036,243.437 66.968,244.361 68.6,245.369C70.232,246.377 71.492,247.493 72.38,248.717C73.268,249.941 73.712,251.393 73.712,253.073C73.712,255.569 73.304,257.561 72.488,259.049L65,257.321C65.288,256.601 65.432,255.881 65.432,255.161C65.432,254.057 64.964,252.989 64.028,251.957C63.092,250.925 61.4,250.145 58.952,249.617L22.952,264.665L22.952,253.433L43.184,246.809Z" style="fill-rule:nonzero;"/>
    <path d="M31.232,199.577L31.232,209.585L58.952,209.585L58.952,219.233L31.232,219.233L31.232,229.529L22.952,229.529L22.952,199.577L31.232,199.577Z" style="fill-rule:nonzero;"/>
    <path d="M51.104,186.041C51.392,184.601 51.536,183.233 51.536,181.937C51.536,179.777 51.14,178.265 50.348,177.401C49.556,176.537 48.32,176.105 46.64,176.105C45.104,176.105 43.94,176.537 43.148,177.401C42.356,178.265 41.96,179.705 41.96,181.721C41.96,183.305 42.128,184.745 42.464,186.041L51.104,186.041ZM35.768,186.041C35.576,184.889 35.444,183.725 35.372,182.549C35.3,181.373 35.264,180.305 35.264,179.345C35.264,176.897 35.54,174.857 36.092,173.225C36.644,171.593 37.424,170.273 38.432,169.265C39.44,168.257 40.628,167.537 41.996,167.105C43.364,166.673 44.84,166.457 46.424,166.457C48.584,166.457 50.48,166.745 52.112,167.321C53.744,167.897 55.1,168.833 56.18,170.129C57.26,171.425 58.076,173.105 58.628,175.169C59.18,177.233 59.456,179.777 59.456,182.801C59.456,185.537 59.408,187.901 59.312,189.893C59.216,191.885 59.096,193.721 58.952,195.401L22.952,195.401L22.952,186.041L35.768,186.041ZM22.952,162.353L22.952,152.993L58.952,152.993L58.952,162.353L22.952,162.353Z" style="fill-rule:nonzero;"/>
    <path d="M42.536,123.113L37.424,122.753L37.424,122.969L42.68,126.065L58.952,138.881L58.952,144.785L22.952,144.785L22.952,135.425L40.088,135.425L44.984,135.857L44.984,135.569L39.872,132.617L22.952,119.657L22.952,113.753L58.952,113.753L58.952,123.113L42.536,123.113ZM8.264,133.121C10.136,132.785 11.456,132.221 12.224,131.429C12.992,130.637 13.376,129.617 13.376,128.369C13.376,127.025 12.992,125.957 12.224,125.165C11.456,124.373 10.16,123.833 8.336,123.545L10.136,116.417C13.256,116.993 15.572,118.409 17.084,120.665C18.596,122.921 19.352,125.561 19.352,128.585C19.352,130.073 19.184,131.513 18.848,132.905C18.512,134.297 17.972,135.545 17.228,136.649C16.484,137.753 15.536,138.689 14.384,139.457C13.232,140.225 11.816,140.753 10.136,141.041L8.264,133.121Z" style="fill-rule:nonzero;"/>
    <path d="M36.632,994.674L28.928,994.674L28.928,991.362C28.928,990.738 28.916,990.102 28.892,989.454C28.868,988.806 28.82,988.17 28.748,987.546C28.676,986.922 28.592,986.418 28.496,986.034C28.112,984.354 27.428,982.914 26.444,981.714C25.46,980.514 24.128,979.914 22.448,979.914C20.144,979.914 18.572,980.646 17.732,982.11C16.892,983.574 16.472,985.506 16.472,987.906C16.472,990.066 16.76,992.082 17.336,993.954C17.912,995.826 18.464,997.242 18.992,998.202L10.64,1000.72C10.352,1000.19 10.04,999.438 9.704,998.454C9.368,997.47 9.044,996.342 8.732,995.07C8.42,993.798 8.168,992.418 7.976,990.93C7.784,989.442 7.688,987.93 7.688,986.394C7.688,984.282 7.88,982.218 8.264,980.202C8.648,978.186 9.32,976.386 10.28,974.802C11.24,973.218 12.524,971.946 14.132,970.986C15.74,970.026 17.792,969.546 20.288,969.546C22.784,969.546 25.088,970.206 27.2,971.526C29.312,972.846 30.848,974.97 31.808,977.898L32.168,977.898C32.792,974.778 34.136,972.342 36.2,970.59C38.264,968.838 41.024,967.962 44.48,967.962C47.216,967.962 49.556,968.514 51.5,969.618C53.444,970.722 55.04,972.174 56.288,973.974C57.536,975.774 58.46,977.85 59.06,980.202C59.66,982.554 59.96,984.954 59.96,987.402C59.96,990.57 59.696,993.45 59.168,996.042C58.64,998.634 58.016,1000.63 57.296,1002.02L48.728,999.498C49.256,998.394 49.796,996.81 50.348,994.746C50.9,992.682 51.176,990.234 51.176,987.402C51.176,986.346 51.044,985.278 50.78,984.198C50.516,983.118 50.084,982.146 49.484,981.282C48.884,980.418 48.104,979.722 47.144,979.194C46.184,978.666 45.032,978.402 43.688,978.402C41.432,978.402 39.728,979.242 38.576,980.922C37.424,982.602 36.8,985.602 36.704,989.922C36.656,990.498 36.632,990.93 36.632,991.218L36.632,994.674Z" style="fill-rule:nonzero;"/>
    <path d="M25.04,961.554C24.176,959.634 23.492,957.354 22.988,954.714C22.484,952.074 22.232,949.314 22.232,946.434C22.232,943.938 22.532,941.85 23.132,940.17C23.732,938.49 24.584,937.158 25.688,936.174C26.792,935.19 28.112,934.494 29.648,934.086C31.184,933.678 32.912,933.474 34.832,933.474C36.944,933.474 39.068,933.546 41.204,933.69C43.34,933.834 45.44,933.918 47.504,933.942C49.568,933.966 51.572,933.906 53.516,933.762C55.46,933.618 57.296,933.258 59.024,932.682L59.024,940.314L54.056,941.826L54.056,942.186C55.544,943.146 56.828,944.478 57.908,946.182C58.988,947.886 59.528,950.082 59.528,952.77C59.528,954.45 59.276,955.962 58.772,957.306C58.268,958.65 57.548,959.802 56.612,960.762C55.676,961.722 54.572,962.466 53.3,962.994C52.028,963.522 50.6,963.786 49.016,963.786C46.808,963.786 44.948,963.294 43.436,962.31C41.924,961.326 40.7,959.91 39.764,958.062C38.828,956.214 38.18,954.006 37.82,951.438C37.46,948.87 37.352,946.002 37.496,942.834C34.808,942.498 32.876,942.69 31.7,943.41C30.524,944.13 29.936,945.738 29.936,948.234C29.936,950.106 30.128,952.086 30.512,954.174C30.896,956.262 31.4,957.978 32.024,959.322L25.04,961.554ZM51.824,949.674C51.824,947.802 51.404,946.314 50.564,945.21C49.724,944.106 48.824,943.29 47.864,942.762L43.184,942.762C43.04,944.25 43.016,945.678 43.112,947.046C43.208,948.414 43.424,949.626 43.76,950.682C44.096,951.738 44.576,952.578 45.2,953.202C45.824,953.826 46.616,954.138 47.576,954.138C48.92,954.138 49.964,953.742 50.708,952.95C51.452,952.158 51.824,951.066 51.824,949.674Z" style="fill-rule:nonzero;"/>
    <path d="M42.464,894.81L34.976,894.234L34.976,894.594L41.168,897.474L52.328,904.242L52.328,907.626L41.168,915.042L34.976,917.778L34.976,918.21L42.392,917.274L58.952,917.274L58.952,925.626L22.952,925.626L22.952,915.906L36.488,907.626L41.024,905.61L41.024,905.322L36.344,903.234L22.952,895.602L22.952,885.81L58.952,885.81L58.952,894.81L42.464,894.81Z" style="fill-rule:nonzero;"/>
    <path d="M44.048,865.794L44.048,868.314L58.952,868.314L58.952,877.674L22.952,877.674L22.952,868.314L38.288,868.314L37.28,866.082L22.952,857.658L22.952,847.65L36.632,856.362L39.368,860.034L42.176,856.002L58.952,846.282L58.952,857.01L44.048,865.794Z" style="fill-rule:nonzero;"/>
    <path d="M44.84,821.37L44.84,833.106L58.952,833.106L58.952,842.466L22.952,842.466L22.952,833.106L36.488,833.106L36.488,821.37L22.952,821.37L22.952,812.01L58.952,812.01L58.952,821.37L44.84,821.37Z" style="fill-rule:nonzero;"/>
    <path d="M43.184,790.698L48.8,789.402L48.8,788.97L43.112,788.034L22.952,782.562L22.952,772.914L55.424,783.858C58.112,784.77 60.572,785.646 62.804,786.486C65.036,787.326 66.968,788.25 68.6,789.258C70.232,790.266 71.492,791.382 72.38,792.606C73.268,793.83 73.712,795.282 73.712,796.962C73.712,799.458 73.304,801.45 72.488,802.938L65,801.21C65.288,800.49 65.432,799.77 65.432,799.05C65.432,797.946 64.964,796.878 64.028,795.846C63.092,794.814 61.4,794.034 58.952,793.506L22.952,808.554L22.952,797.322L43.184,790.698Z" style="fill-rule:nonzero;"/>
    <path d="M31.232,743.466L31.232,753.474L58.952,753.474L58.952,763.122L31.232,763.122L31.232,773.418L22.952,773.418L22.952,743.466L31.232,743.466Z" style="fill-rule:nonzero;"/>
    <path d="M51.104,729.93C51.392,728.49 51.536,727.122 51.536,725.826C51.536,723.666 51.14,722.154 50.348,721.29C49.556,720.426 48.32,719.994 46.64,719.994C45.104,719.994 43.94,720.426 43.148,721.29C42.356,722.154 41.96,723.594 41.96,725.61C41.96,727.194 42.128,728.634 42.464,729.93L51.104,729.93ZM35.768,729.93C35.576,728.778 35.444,727.614 35.372,726.438C35.3,725.262 35.264,724.194 35.264,723.234C35.264,720.786 35.54,718.746 36.092,717.114C36.644,715.482 37.424,714.162 38.432,713.154C39.44,712.146 40.628,711.426 41.996,710.994C43.364,710.562 44.84,710.346 46.424,710.346C48.584,710.346 50.48,710.634 52.112,711.21C53.744,711.786 55.1,712.722 56.18,714.018C57.26,715.314 58.076,716.994 58.628,719.058C59.18,721.122 59.456,723.666 59.456,726.69C59.456,729.426 59.408,731.79 59.312,733.782C59.216,735.774 59.096,737.61 58.952,739.29L22.952,739.29L22.952,729.93L35.768,729.93ZM22.952,706.242L22.952,696.882L58.952,696.882L58.952,706.242L22.952,706.242Z" style="fill-rule:nonzero;"/>
    <path d="M42.536,667.002L37.424,666.642L37.424,666.858L42.68,669.954L58.952,682.77L58.952,688.674L22.952,688.674L22.952,679.314L40.088,679.314L44.984,679.746L44.984,679.458L39.872,676.506L22.952,663.546L22.952,657.642L58.952,657.642L58.952,667.002L42.536,667.002ZM8.264,677.01C10.136,676.674 11.456,676.11 12.224,675.318C12.992,674.526 13.376,673.506 13.376,672.258C13.376,670.914 12.992,669.846 12.224,669.054C11.456,668.262 10.16,667.722 8.336,667.434L10.136,660.306C13.256,660.882 15.572,662.298 17.084,664.554C18.596,666.81 19.352,669.45 19.352,672.474C19.352,673.962 19.184,675.402 18.848,676.794C18.512,678.186 17.972,679.434 17.228,680.538C16.484,681.642 15.536,682.578 14.384,683.346C13.232,684.114 11.816,684.642 10.136,684.93L8.264,677.01Z" style="fill-rule:nonzero;"/>
    <path d="M90.04,1050.8L95.02,1050.8L95.02,1088.36L112,1088.36L112,1077.92L116.44,1077.92L116.44,1092.8L90.04,1092.8L90.04,1050.8Z" style="fill:rgb(176,0,182);fill-rule:nonzero;"/>
    <path d="M124.24,1050.8L153.04,1050.8L153.04,1055.24L141.1,1055.24L141.1,1088.36L153.04,1088.36L153.04,1092.8L124.24,1092.8L124.24,1088.36L136.12,1088.36L136.12,1055.24L124.24,1055.24L124.24,1050.8Z" style="fill:rgb(176,0,182);fill-rule:nonzero;"/>
    <path d="M168.4,1066.52L165.16,1060.46L164.92,1060.46L165.52,1066.52L165.52,1092.8L160.84,1092.8L160.84,1050.8L164.08,1050.8L181,1076.96L184.12,1082.72L184.42,1082.72L183.76,1076.96L183.76,1050.8L188.44,1050.8L188.44,1092.8L185.2,1092.8L168.4,1066.52Z" style="fill:rgb(176,0,182);fill-rule:nonzero;"/>
    <path d="M199.06,1050.8L223.72,1050.8L223.72,1055.24L204.04,1055.24L204.04,1068.98L222.22,1068.98L222.22,1073.42L204.04,1073.42L204.04,1088.36L224.02,1088.36L224.02,1092.8L199.06,1092.8L199.06,1050.8Z" style="fill:rgb(176,0,182);fill-rule:nonzero;"/>
    <path d="M254.5,1081.16L238.36,1081.16L234.52,1092.8L229.6,1092.8L243.64,1050.8L249.52,1050.8L263.68,1092.8L258.46,1092.8L254.5,1081.16ZM239.92,1076.84L253.12,1076.84L246.94,1057.1L246.22,1057.1L239.92,1076.84Z" style="fill:rgb(176,0,182);fill-rule:nonzero;"/>
    <path d="M270.64,1051.22C272.16,1050.94 273.91,1050.72 275.89,1050.56C277.87,1050.4 279.68,1050.32 281.32,1050.32C283.16,1050.32 284.91,1050.52 286.57,1050.92C288.23,1051.32 289.69,1051.98 290.95,1052.9C292.21,1053.82 293.22,1055.02 293.98,1056.5C294.74,1057.98 295.12,1059.78 295.12,1061.9C295.12,1063.54 294.85,1064.99 294.31,1066.25C293.77,1067.51 293.11,1068.59 292.33,1069.49C291.55,1070.39 290.74,1071.12 289.9,1071.68C289.06,1072.24 288.34,1072.64 287.74,1072.88L298.84,1092.8L293.02,1092.8L283.12,1074.32L275.62,1074.32L275.62,1092.8L270.64,1092.8L270.64,1051.22ZM281.44,1054.64L279.82,1054.64C279.26,1054.64 278.72,1054.66 278.2,1054.7C277.68,1054.74 277.19,1054.78 276.73,1054.82C276.27,1054.86 275.9,1054.92 275.62,1055L275.62,1070.48L280.3,1070.48C283.06,1070.48 285.34,1069.8 287.14,1068.44C288.94,1067.08 289.84,1064.96 289.84,1062.08C289.84,1059.92 289.1,1058.14 287.62,1056.74C286.14,1055.34 284.08,1054.64 281.44,1054.64Z" style="fill:rgb(176,0,182);fill-rule:nonzero;"/>
    <path d="M306.64,1051.22C308.16,1050.94 309.91,1050.72 311.89,1050.56C313.87,1050.4 315.68,1050.32 317.32,1050.32C319.16,1050.32 320.91,1050.52 322.57,1050.92C324.23,1051.32 325.69,1051.98 326.95,1052.9C328.21,1053.82 329.22,1055.02 329.98,1056.5C330.74,1057.98 331.12,1059.78 331.12,1061.9C331.12,1063.54 330.85,1064.99 330.31,1066.25C329.77,1067.51 329.11,1068.59 328.33,1069.49C327.55,1070.39 326.74,1071.12 325.9,1071.68C325.06,1072.24 324.34,1072.64 323.74,1072.88L334.84,1092.8L329.02,1092.8L319.12,1074.32L311.62,1074.32L311.62,1092.8L306.64,1092.8L306.64,1051.22ZM317.44,1054.64L315.82,1054.64C315.26,1054.64 314.72,1054.66 314.2,1054.7C313.68,1054.74 313.19,1054.78 312.73,1054.82C312.27,1054.86 311.9,1054.92 311.62,1055L311.62,1070.48L316.3,1070.48C319.06,1070.48 321.34,1069.8 323.14,1068.44C324.94,1067.08 325.84,1064.96 325.84,1062.08C325.84,1059.92 325.1,1058.14 323.62,1056.74C322.14,1055.34 320.08,1054.64 317.44,1054.64Z" style="fill:rgb(176,0,182);fill-rule:nonzero;"/>
    <path d="M340.24,1050.8L369.04,1050.8L369.04,1055.24L357.1,1055.24L357.1,1088.36L369.04,1088.36L369.04,1092.8L340.24,1092.8L340.24,1088.36L352.12,1088.36L352.12,1055.24L340.24,1055.24L340.24,1050.8Z" style="fill:rgb(176,0,182);fill-rule:nonzero;"/>
    <path d="M384.4,1066.52L381.16,1060.46L380.92,1060.46L381.52,1066.52L381.52,1092.8L376.84,1092.8L376.84,1050.8L380.08,1050.8L397,1076.96L400.12,1082.72L400.42,1082.72L399.76,1076.96L399.76,1050.8L404.44,1050.8L404.44,1092.8L401.2,1092.8L384.4,1066.52Z" style="fill:rgb(176,0,182);fill-rule:nonzero;"/>
    <path d="M434.86,1054.94C433.5,1054.66 431.84,1054.52 429.88,1054.52C428.2,1054.52 426.59,1054.81 425.05,1055.39C423.51,1055.97 422.15,1056.94 420.97,1058.3C419.79,1059.66 418.85,1061.44 418.15,1063.64C417.45,1065.84 417.1,1068.56 417.1,1071.8C417.1,1077.72 418.19,1082.08 420.37,1084.88C422.55,1087.68 425.7,1089.08 429.82,1089.08C432.38,1089.08 434.56,1088.58 436.36,1087.58L436.36,1075.88L427.72,1075.88L427.72,1071.86L440.62,1071.86L440.62,1090.34C439.98,1090.82 439.21,1091.26 438.31,1091.66C437.41,1092.06 436.45,1092.4 435.43,1092.68C434.41,1092.96 433.35,1093.17 432.25,1093.31C431.15,1093.45 430.08,1093.52 429.04,1093.52C426.36,1093.52 423.96,1093.09 421.84,1092.23C419.72,1091.37 417.92,1090.05 416.44,1088.27C414.96,1086.49 413.82,1084.23 413.02,1081.49C412.22,1078.75 411.82,1075.52 411.82,1071.8C411.82,1067.92 412.32,1064.6 413.32,1061.84C414.32,1059.08 415.64,1056.83 417.28,1055.09C418.92,1053.35 420.8,1052.08 422.92,1051.28C425.04,1050.48 427.22,1050.08 429.46,1050.08C431.86,1050.08 433.84,1050.21 435.4,1050.47C436.96,1050.73 438.28,1051.08 439.36,1051.52L439.3,1051.76L439.3,1061.78L434.86,1061.78L434.86,1054.94Z" style="fill:rgb(176,0,182);fill-rule:nonzero;"/>
    <path d="M120.736,134.208C120.736,132.768 120.304,131.64 119.44,130.824C118.576,130.008 117.508,129.324 116.236,128.772C114.964,128.22 113.572,127.692 112.06,127.188C110.548,126.684 109.156,126.036 107.884,125.244C106.612,124.452 105.544,123.432 104.68,122.184C103.816,120.936 103.384,119.256 103.384,117.144C103.384,113.688 104.368,111.156 106.336,109.548C108.304,107.94 111.04,107.136 114.544,107.136C117.136,107.136 119.308,107.364 121.06,107.82C122.812,108.276 124.336,108.816 125.632,109.44L124.264,114.192C123.16,113.664 121.828,113.196 120.268,112.788C118.708,112.38 117.04,112.176 115.264,112.176C113.152,112.176 111.604,112.536 110.62,113.256C109.636,113.976 109.144,115.224 109.144,117C109.144,118.248 109.576,119.22 110.44,119.916C111.304,120.612 112.372,121.236 113.644,121.788C114.916,122.34 116.308,122.88 117.82,123.408C119.332,123.936 120.724,124.632 121.996,125.496C123.268,126.36 124.336,127.452 125.2,128.772C126.064,130.092 126.496,131.832 126.496,133.992C126.496,135.528 126.244,136.968 125.74,138.312C125.236,139.656 124.456,140.808 123.4,141.768C122.344,142.728 121.036,143.484 119.476,144.036C117.916,144.588 116.08,144.864 113.968,144.864C111.232,144.864 108.904,144.6 106.984,144.072C105.064,143.544 103.456,142.92 102.16,142.2L103.888,137.304C104.992,137.928 106.432,138.504 108.208,139.032C109.984,139.56 111.784,139.824 113.608,139.824C115.672,139.824 117.376,139.416 118.72,138.6C120.064,137.784 120.736,136.32 120.736,134.208Z" style="fill-rule:nonzero;"/>
    <path d="M122.24,718.188C122.24,716.748 121.808,715.62 120.944,714.804C120.08,713.988 119.012,713.304 117.74,712.752C116.468,712.2 115.076,711.672 113.564,711.168C112.052,710.664 110.66,710.016 109.388,709.224C108.116,708.432 107.048,707.412 106.184,706.164C105.32,704.916 104.888,703.236 104.888,701.124C104.888,697.668 105.872,695.136 107.84,693.528C109.808,691.92 112.544,691.116 116.048,691.116C118.64,691.116 120.812,691.344 122.564,691.8C124.316,692.256 125.84,692.796 127.136,693.42L125.768,698.172C124.664,697.644 123.332,697.176 121.772,696.768C120.212,696.36 118.544,696.156 116.768,696.156C114.656,696.156 113.108,696.516 112.124,697.236C111.14,697.956 110.648,699.204 110.648,700.98C110.648,702.228 111.08,703.2 111.944,703.896C112.808,704.592 113.876,705.216 115.148,705.768C116.42,706.32 117.812,706.86 119.324,707.388C120.836,707.916 122.228,708.612 123.5,709.476C124.772,710.34 125.84,711.432 126.704,712.752C127.568,714.072 128,715.812 128,717.972C128,719.508 127.748,720.948 127.244,722.292C126.74,723.636 125.96,724.788 124.904,725.748C123.848,726.708 122.54,727.464 120.98,728.016C119.42,728.568 117.584,728.844 115.472,728.844C112.736,728.844 110.408,728.58 108.488,728.052C106.568,727.524 104.96,726.9 103.664,726.18L105.392,721.284C106.496,721.908 107.936,722.484 109.712,723.012C111.488,723.54 113.288,723.804 115.112,723.804C117.176,723.804 118.88,723.396 120.224,722.58C121.568,721.764 122.24,720.3 122.24,718.188Z" style="fill-rule:nonzero;"/>
    <path d="M449.173,643.708C449.173,642.268 448.741,641.14 447.877,640.324C447.013,639.508 445.945,638.824 444.673,638.272C443.401,637.72 442.009,637.192 440.497,636.688C438.985,636.184 437.593,635.536 436.321,634.744C435.049,633.952 433.981,632.932 433.117,631.684C432.253,630.436 431.821,628.756 431.821,626.644C431.821,623.188 432.805,620.656 434.773,619.048C436.741,617.44 439.477,616.636 442.981,616.636C445.573,616.636 447.745,616.864 449.497,617.32C451.249,617.776 452.773,618.316 454.069,618.94L452.701,623.692C451.597,623.164 450.265,622.696 448.705,622.288C447.145,621.88 445.477,621.676 443.701,621.676C441.589,621.676 440.041,622.036 439.057,622.756C438.073,623.476 437.581,624.724 437.581,626.5C437.581,627.748 438.013,628.72 438.877,629.416C439.741,630.112 440.809,630.736 442.081,631.288C443.353,631.84 444.745,632.38 446.257,632.908C447.769,633.436 449.161,634.132 450.433,634.996C451.705,635.86 452.773,636.952 453.637,638.272C454.501,639.592 454.933,641.332 454.933,643.492C454.933,645.028 454.681,646.468 454.177,647.812C453.673,649.156 452.893,650.308 451.837,651.268C450.781,652.228 449.473,652.984 447.913,653.536C446.353,654.088 444.517,654.364 442.405,654.364C439.669,654.364 437.341,654.1 435.421,653.572C433.501,653.044 431.893,652.42 430.597,651.7L432.325,646.804C433.429,647.428 434.869,648.004 436.645,648.532C438.421,649.06 440.221,649.324 442.045,649.324C444.109,649.324 445.813,648.916 447.157,648.1C448.501,647.284 449.173,645.82 449.173,643.708Z" style="fill-rule:nonzero;"/>
    <path d="M461.341,134.208C461.341,132.768 460.909,131.64 460.045,130.824C459.181,130.008 458.113,129.324 456.841,128.772C455.569,128.22 454.177,127.692 452.665,127.188C451.153,126.684 449.761,126.036 448.489,125.244C447.217,124.452 446.149,123.432 445.285,122.184C444.421,120.936 443.989,119.256 443.989,117.144C443.989,113.688 444.973,111.156 446.941,109.548C448.909,107.94 451.645,107.136 455.149,107.136C457.741,107.136 459.913,107.364 461.665,107.82C463.417,108.276 464.941,108.816 466.237,109.44L464.869,114.192C463.765,113.664 462.433,113.196 460.873,112.788C459.313,112.38 457.645,112.176 455.869,112.176C453.757,112.176 452.209,112.536 451.225,113.256C450.241,113.976 449.749,115.224 449.749,117C449.749,118.248 450.181,119.22 451.045,119.916C451.909,120.612 452.977,121.236 454.249,121.788C455.521,122.34 456.913,122.88 458.425,123.408C459.937,123.936 461.329,124.632 462.601,125.496C463.873,126.36 464.941,127.452 465.805,128.772C466.669,130.092 467.101,131.832 467.101,133.992C467.101,135.528 466.849,136.968 466.345,138.312C465.841,139.656 465.061,140.808 464.005,141.768C462.949,142.728 461.641,143.484 460.081,144.036C458.521,144.588 456.685,144.864 454.573,144.864C451.837,144.864 449.509,144.6 447.589,144.072C445.669,143.544 444.061,142.92 442.765,142.2L444.493,137.304C445.597,137.928 447.037,138.504 448.813,139.032C450.589,139.56 452.389,139.824 454.213,139.824C456.277,139.824 457.981,139.416 459.325,138.6C460.669,137.784 461.341,136.32 461.341,134.208Z" style="fill-rule:nonzero;"/>
    <path d="M316.755,503.08C315.315,504.232 313.503,505.144 311.319,505.816C309.135,506.488 306.819,506.824 304.371,506.824C301.635,506.824 299.259,506.38 297.243,505.492C295.227,504.604 293.571,503.332 292.275,501.676C290.979,500.02 290.019,498.04 289.395,495.736C288.771,493.432 288.459,490.84 288.459,487.96C288.459,481.816 289.827,477.136 292.563,473.92C295.299,470.704 299.211,469.096 304.299,469.096C305.931,469.096 307.563,469.276 309.195,469.636C310.827,469.996 312.291,470.68 313.587,471.688C314.883,472.696 315.939,474.124 316.755,475.972C317.571,477.82 317.979,480.256 317.979,483.28C317.979,484.864 317.835,486.616 317.547,488.536L294.435,488.536C294.435,490.648 294.651,492.52 295.083,494.152C295.515,495.784 296.187,497.164 297.099,498.292C298.011,499.42 299.199,500.284 300.663,500.884C302.127,501.484 303.915,501.784 306.027,501.784C307.659,501.784 309.291,501.496 310.923,500.92C312.555,500.344 313.779,499.672 314.595,498.904L316.755,503.08ZM304.371,474.136C301.539,474.136 299.271,474.88 297.567,476.368C295.863,477.856 294.843,480.4 294.507,484L312.363,484C312.363,480.352 311.667,477.796 310.275,476.332C308.883,474.868 306.915,474.136 304.371,474.136Z" style="fill-rule:nonzero;"/>
    <path d="M129.96,833.62C128.52,834.772 126.708,835.684 124.524,836.356C122.34,837.028 120.024,837.364 117.576,837.364C114.84,837.364 112.464,836.92 110.448,836.032C108.432,835.144 106.776,833.872 105.48,832.216C104.184,830.56 103.224,828.58 102.6,826.276C101.976,823.972 101.664,821.38 101.664,818.5C101.664,812.356 103.032,807.676 105.768,804.46C108.504,801.244 112.416,799.636 117.504,799.636C119.136,799.636 120.768,799.816 122.4,800.176C124.032,800.536 125.496,801.22 126.792,802.228C128.088,803.236 129.144,804.664 129.96,806.512C130.776,808.36 131.184,810.796 131.184,813.82C131.184,815.404 131.04,817.156 130.752,819.076L107.64,819.076C107.64,821.188 107.856,823.06 108.288,824.692C108.72,826.324 109.392,827.704 110.304,828.832C111.216,829.96 112.404,830.824 113.868,831.424C115.332,832.024 117.12,832.324 119.232,832.324C120.864,832.324 122.496,832.036 124.128,831.46C125.76,830.884 126.984,830.212 127.8,829.444L129.96,833.62ZM117.576,804.676C114.744,804.676 112.476,805.42 110.772,806.908C109.068,808.396 108.048,810.94 107.712,814.54L125.568,814.54C125.568,810.892 124.872,808.336 123.48,806.872C122.088,805.408 120.12,804.676 117.576,804.676Z" style="fill-rule:nonzero;"/>
    <path d="M549.385,650.62C547.945,651.772 546.133,652.684 543.949,653.356C541.765,654.028 539.449,654.364 537.001,654.364C534.265,654.364 531.889,653.92 529.873,653.032C527.857,652.144 526.201,650.872 524.905,649.216C523.609,647.56 522.649,645.58 522.025,643.276C521.401,640.972 521.089,638.38 521.089,635.5C521.089,629.356 522.457,624.676 525.193,621.46C527.929,618.244 531.841,616.636 536.929,616.636C538.561,616.636 540.193,616.816 541.825,617.176C543.457,617.536 544.921,618.22 546.217,619.228C547.513,620.236 548.569,621.664 549.385,623.512C550.201,625.36 550.609,627.796 550.609,630.82C550.609,632.404 550.465,634.156 550.177,636.076L527.065,636.076C527.065,638.188 527.281,640.06 527.713,641.692C528.145,643.324 528.817,644.704 529.729,645.832C530.641,646.96 531.829,647.824 533.293,648.424C534.757,649.024 536.545,649.324 538.657,649.324C540.289,649.324 541.921,649.036 543.553,648.46C545.185,647.884 546.409,647.212 547.225,646.444L549.385,650.62ZM537.001,621.676C534.169,621.676 531.901,622.42 530.197,623.908C528.493,625.396 527.473,627.94 527.137,631.54L544.993,631.54C544.993,627.892 544.297,625.336 542.905,623.872C541.513,622.408 539.545,621.676 537.001,621.676Z" style="fill-rule:nonzero;"/>
    <path d="M740.63,202.991C739.19,204.143 737.378,205.055 735.194,205.727C733.01,206.399 730.694,206.735 728.246,206.735C725.51,206.735 723.134,206.291 721.118,205.403C719.102,204.515 717.446,203.243 716.15,201.587C714.854,199.931 713.894,197.951 713.27,195.647C712.646,193.343 712.334,190.751 712.334,187.871C712.334,181.727 713.702,177.047 716.438,173.831C719.174,170.615 723.086,169.007 728.174,169.007C729.806,169.007 731.438,169.187 733.07,169.547C734.702,169.907 736.166,170.591 737.462,171.599C738.758,172.607 739.814,174.035 740.63,175.883C741.446,177.731 741.854,180.167 741.854,183.191C741.854,184.775 741.71,186.527 741.422,188.447L718.31,188.447C718.31,190.559 718.526,192.431 718.958,194.063C719.39,195.695 720.062,197.075 720.974,198.203C721.886,199.331 723.074,200.195 724.538,200.795C726.002,201.395 727.79,201.695 729.902,201.695C731.534,201.695 733.166,201.407 734.798,200.831C736.43,200.255 737.654,199.583 738.47,198.815L740.63,202.991ZM728.246,174.047C725.414,174.047 723.146,174.791 721.442,176.279C719.738,177.767 718.718,180.311 718.382,183.911L736.238,183.911C736.238,180.263 735.542,177.707 734.15,176.243C732.758,174.779 730.79,174.047 728.246,174.047Z" style="fill-rule:nonzero;"/>
    <path d="M164.825,112.098C156.898,108.532 147.566,112.073 144,120C140.434,127.927 143.974,137.259 151.902,140.825C159.829,144.391 169.161,140.851 172.727,132.923C176.293,124.996 172.753,115.664 164.825,112.098Z"/>
    <path d="M268.039,480.627C270.321,489.015 265.365,497.677 256.977,499.96C248.589,502.243 239.926,497.286 237.644,488.898C235.361,480.511 240.318,471.848 248.706,469.565C257.093,467.283 265.756,472.239 268.039,480.627Z"/>
    <path d="M166.982,130.339C228.49,158.009 392.231,231.671 392.231,231.671L218.788,359.627C218.788,359.627 239.427,435.471 250.36,475.644" style="fill:none;stroke:black;stroke-width:6px;"/>
    <path d="M508.867,119.003C502.451,113.137 492.481,113.584 486.615,120C480.75,126.416 481.197,136.386 487.613,142.252C494.028,148.117 503.999,147.67 509.864,141.254C515.73,134.838 515.283,124.868 508.867,119.003Z"/>
    <path d="M672.606,175.844C679.979,171.239 689.703,173.487 694.308,180.859C698.913,188.232 696.665,197.956 689.292,202.561C681.92,207.166 672.195,204.919 667.591,197.546C662.986,190.173 665.233,180.449 672.606,175.844Z"/>
    <path d="M505.214,137.003C565.556,192.168 752,362.615 752,362.615L469.308,499.96L427,347.812C427,347.812 609.548,233.798 672.934,194.209" style="fill:none;stroke:black;stroke-width:6px;"/>
    <path d="M105.559,751.56C98.693,757.782 98.17,768.407 104.392,775.273C110.614,782.139 121.239,782.662 128.105,776.44C134.971,770.218 135.494,759.593 129.272,752.727C123.05,745.861 112.425,745.338 105.559,751.56Z" style="fill:rgb(251,133,255);"/>
    <path d="M116.832,764L251.459,642L415,829L269.862,1003L275.793,864L116.832,764Z" style="fill:none;stroke:rgb(251,133,255);stroke-width:9px;"/>
    <path d="M501.517,637.789C502.78,629.189 496.824,621.181 488.223,619.917C479.623,618.654 471.615,624.61 470.351,633.211C469.088,641.811 475.044,649.819 483.644,651.083C492.245,652.346 500.253,646.39 501.517,637.789Z"/>
    <path d="M485.934,635.5L454.933,846.5L751.854,864.5L672.697,976.073L537.028,1001.5L595.715,815.442L485.934,635.5Z" style="fill:none;stroke:black;stroke-width:6px;"/>
    <g transform="matrix(1,0,0,1,-11480.4,-312.525)">
        <g transform="matrix(48,0,0,48,12002.3,1388.43)">
            <path d="M0.297,-0.136C0.297,-0.156 0.291,-0.172 0.279,-0.183C0.267,-0.194 0.252,-0.204 0.235,-0.212C0.217,-0.219 0.198,-0.227 0.177,-0.234C0.156,-0.241 0.136,-0.249 0.119,-0.261C0.101,-0.272 0.086,-0.286 0.074,-0.303C0.062,-0.32 0.056,-0.344 0.056,-0.373C0.056,-0.421 0.07,-0.456 0.097,-0.479C0.124,-0.501 0.162,-0.512 0.211,-0.512C0.247,-0.512 0.277,-0.509 0.302,-0.503C0.326,-0.496 0.347,-0.489 0.365,-0.48L0.346,-0.414C0.331,-0.421 0.312,-0.428 0.291,-0.434C0.269,-0.439 0.246,-0.442 0.221,-0.442C0.192,-0.442 0.17,-0.437 0.157,-0.427C0.143,-0.417 0.136,-0.4 0.136,-0.375C0.136,-0.358 0.142,-0.344 0.154,-0.335C0.166,-0.325 0.181,-0.316 0.199,-0.309C0.216,-0.301 0.236,-0.293 0.257,-0.286C0.278,-0.279 0.297,-0.269 0.315,-0.257C0.332,-0.245 0.347,-0.23 0.359,-0.212C0.371,-0.193 0.377,-0.169 0.377,-0.139C0.377,-0.118 0.374,-0.098 0.367,-0.079C0.36,-0.06 0.349,-0.044 0.334,-0.031C0.319,-0.018 0.301,-0.007 0.28,0.001C0.258,0.008 0.232,0.012 0.203,0.012C0.165,0.012 0.133,0.008 0.106,0.001C0.079,-0.006 0.057,-0.015 0.039,-0.025L0.063,-0.093C0.078,-0.084 0.098,-0.076 0.123,-0.069C0.148,-0.062 0.173,-0.058 0.198,-0.058C0.227,-0.058 0.25,-0.064 0.269,-0.075C0.288,-0.086 0.297,-0.107 0.297,-0.136Z" style="fill-rule:nonzero;"/>
        </g>
        <g transform="matrix(48,0,0,48,12031.4,1388.43)">
            <rect x="0.118" y="-0.325" width="0.584" height="0.074" style="fill-rule:nonzero;"/>
        </g>
        <g transform="matrix(48,0,0,48,12079.8,1388.43)">
            <path d="M0.383,-0.221L0.157,-0.221L0.157,-0L0.077,-0L0.077,-0.5L0.157,-0.5L0.157,-0.291L0.383,-0.291L0.383,-0.5L0.463,-0.5L0.463,-0L0.383,-0L0.383,-0.221Z" style="fill-rule:nonzero;"/>
        </g>
        <g transform="matrix(48,0,0,48,12105.7,1388.43)">
            <path d="M0.069,-0.463C0.094,-0.478 0.124,-0.49 0.158,-0.497C0.191,-0.504 0.226,-0.508 0.263,-0.508C0.298,-0.508 0.326,-0.503 0.347,-0.494C0.368,-0.485 0.384,-0.472 0.395,-0.458C0.406,-0.443 0.413,-0.426 0.417,-0.408C0.42,-0.39 0.422,-0.372 0.422,-0.354C0.422,-0.314 0.421,-0.275 0.419,-0.237C0.417,-0.199 0.416,-0.163 0.416,-0.129C0.416,-0.104 0.417,-0.081 0.419,-0.059C0.421,-0.037 0.425,-0.017 0.43,0.002L0.371,0.002L0.35,-0.068L0.345,-0.068C0.339,-0.059 0.332,-0.049 0.323,-0.041C0.314,-0.032 0.303,-0.024 0.29,-0.017C0.277,-0.01 0.263,-0.004 0.246,0.001C0.229,0.006 0.21,0.008 0.189,0.008C0.168,0.008 0.148,0.005 0.13,-0.002C0.111,-0.009 0.095,-0.018 0.082,-0.031C0.069,-0.043 0.058,-0.058 0.051,-0.075C0.043,-0.092 0.039,-0.112 0.039,-0.134C0.039,-0.163 0.045,-0.188 0.057,-0.208C0.069,-0.227 0.086,-0.243 0.108,-0.255C0.129,-0.266 0.155,-0.275 0.186,-0.28C0.216,-0.285 0.249,-0.287 0.286,-0.287L0.314,-0.287C0.323,-0.287 0.332,-0.286 0.341,-0.285C0.343,-0.305 0.344,-0.323 0.344,-0.339C0.344,-0.376 0.337,-0.401 0.322,-0.416C0.307,-0.431 0.281,-0.438 0.242,-0.438C0.231,-0.438 0.219,-0.437 0.206,-0.436C0.193,-0.434 0.179,-0.432 0.166,-0.429C0.152,-0.426 0.139,-0.422 0.127,-0.418C0.114,-0.413 0.103,-0.408 0.094,-0.403L0.069,-0.463ZM0.211,-0.062C0.23,-0.062 0.246,-0.065 0.261,-0.07C0.276,-0.075 0.288,-0.081 0.299,-0.089C0.31,-0.096 0.319,-0.105 0.326,-0.114C0.333,-0.123 0.338,-0.132 0.341,-0.141L0.341,-0.224C0.332,-0.225 0.322,-0.225 0.313,-0.226C0.303,-0.226 0.293,-0.226 0.284,-0.226C0.263,-0.226 0.243,-0.225 0.224,-0.223C0.204,-0.22 0.187,-0.216 0.172,-0.21C0.157,-0.203 0.145,-0.195 0.136,-0.184C0.127,-0.173 0.122,-0.159 0.122,-0.142C0.122,-0.119 0.13,-0.099 0.147,-0.085C0.164,-0.07 0.185,-0.062 0.211,-0.062Z" style="fill-rule:nonzero;"/>
        </g>
        <g transform="matrix(48,0,0,48,12129.5,1388.43)">
            <path d="M0.129,-0.5L0.129,-0.364C0.129,-0.346 0.13,-0.33 0.132,-0.316C0.134,-0.301 0.138,-0.289 0.144,-0.279C0.15,-0.268 0.159,-0.26 0.17,-0.255C0.181,-0.249 0.196,-0.246 0.215,-0.246C0.245,-0.246 0.27,-0.249 0.289,-0.256C0.308,-0.263 0.323,-0.27 0.333,-0.278L0.333,-0.5L0.413,-0.5L0.413,-0L0.333,-0L0.333,-0.21C0.322,-0.203 0.307,-0.196 0.286,-0.188C0.265,-0.18 0.236,-0.176 0.199,-0.176C0.174,-0.176 0.153,-0.179 0.134,-0.184C0.115,-0.189 0.1,-0.199 0.087,-0.212C0.074,-0.225 0.065,-0.243 0.059,-0.265C0.052,-0.287 0.049,-0.315 0.049,-0.348L0.049,-0.5L0.129,-0.5Z" style="fill-rule:nonzero;"/>
        </g>
        <g transform="matrix(48,0,0,48,12153,1388.43)">
            <path d="M0.069,-0.463C0.094,-0.478 0.124,-0.49 0.158,-0.497C0.191,-0.504 0.226,-0.508 0.263,-0.508C0.298,-0.508 0.326,-0.503 0.347,-0.494C0.368,-0.485 0.384,-0.472 0.395,-0.458C0.406,-0.443 0.413,-0.426 0.417,-0.408C0.42,-0.39 0.422,-0.372 0.422,-0.354C0.422,-0.314 0.421,-0.275 0.419,-0.237C0.417,-0.199 0.416,-0.163 0.416,-0.129C0.416,-0.104 0.417,-0.081 0.419,-0.059C0.421,-0.037 0.425,-0.017 0.43,0.002L0.371,0.002L0.35,-0.068L0.345,-0.068C0.339,-0.059 0.332,-0.049 0.323,-0.041C0.314,-0.032 0.303,-0.024 0.29,-0.017C0.277,-0.01 0.263,-0.004 0.246,0.001C0.229,0.006 0.21,0.008 0.189,0.008C0.168,0.008 0.148,0.005 0.13,-0.002C0.111,-0.009 0.095,-0.018 0.082,-0.031C0.069,-0.043 0.058,-0.058 0.051,-0.075C0.043,-0.092 0.039,-0.112 0.039,-0.134C0.039,-0.163 0.045,-0.188 0.057,-0.208C0.069,-0.227 0.086,-0.243 0.108,-0.255C0.129,-0.266 0.155,-0.275 0.186,-0.28C0.216,-0.285 0.249,-0.287 0.286,-0.287L0.314,-0.287C0.323,-0.287 0.332,-0.286 0.341,-0.285C0.343,-0.305 0.344,-0.323 0.344,-0.339C0.344,-0.376 0.337,-0.401 0.322,-0.416C0.307,-0.431 0.281,-0.438 0.242,-0.438C0.231,-0.438 0.219,-0.437 0.206,-0.436C0.193,-0.434 0.179,-0.432 0.166,-0.429C0.152,-0.426 0.139,-0.422 0.127,-0.418C0.114,-0.413 0.103,-0.408 0.094,-0.403L0.069,-0.463ZM0.211,-0.062C0.23,-0.062 0.246,-0.065 0.261,-0.07C0.276,-0.075 0.288,-0.081 0.299,-0.089C0.31,-0.096 0.319,-0.105 0.326,-0.114C0.333,-0.123 0.338,-0.132 0.341,-0.141L0.341,-0.224C0.332,-0.225 0.322,-0.225 0.313,-0.226C0.303,-0.226 0.293,-0.226 0.284,-0.226C0.263,-0.226 0.243,-0.225 0.224,-0.223C0.204,-0.22 0.187,-0.216 0.172,-0.21C0.157,-0.203 0.145,-0.195 0.136,-0.184C0.127,-0.173 0.122,-0.159 0.122,-0.142C0.122,-0.119 0.13,-0.099 0.147,-0.085C0.164,-0.07 0.185,-0.062 0.211,-0.062Z" style="fill-rule:nonzero;"/>
        </g>
        <g transform="matrix(48,0,0,48,12176.8,1388.43)">
            <path d="M0.346,-0.43L0.201,-0.43C0.199,-0.402 0.197,-0.372 0.195,-0.34C0.193,-0.307 0.19,-0.275 0.186,-0.243C0.182,-0.21 0.177,-0.179 0.17,-0.15C0.163,-0.12 0.155,-0.094 0.145,-0.071C0.134,-0.048 0.122,-0.03 0.107,-0.017C0.092,-0.003 0.074,0.004 0.053,0.004C0.04,0.004 0.029,0.003 0.02,0.002C0.011,0.001 0.002,-0.002 -0.005,-0.005L0.007,-0.072C0.015,-0.069 0.024,-0.068 0.033,-0.068C0.046,-0.068 0.058,-0.074 0.069,-0.085C0.08,-0.096 0.089,-0.118 0.097,-0.15C0.105,-0.181 0.112,-0.225 0.117,-0.281C0.122,-0.337 0.126,-0.41 0.128,-0.5L0.426,-0.5L0.426,-0L0.346,-0L0.346,-0.43Z" style="fill-rule:nonzero;"/>
        </g>
        <g transform="matrix(48,0,0,48,12201,1388.43)">
            <path d="M0.049,-0.25C0.049,-0.335 0.068,-0.4 0.106,-0.445C0.143,-0.49 0.197,-0.512 0.268,-0.512C0.305,-0.512 0.338,-0.506 0.366,-0.494C0.393,-0.481 0.416,-0.464 0.434,-0.441C0.452,-0.418 0.465,-0.39 0.474,-0.358C0.483,-0.325 0.487,-0.289 0.487,-0.25C0.487,-0.165 0.468,-0.1 0.431,-0.056C0.393,-0.011 0.339,0.012 0.268,0.012C0.231,0.012 0.198,0.006 0.171,-0.007C0.143,-0.019 0.12,-0.037 0.102,-0.06C0.084,-0.083 0.071,-0.11 0.062,-0.143C0.053,-0.175 0.049,-0.211 0.049,-0.25ZM0.132,-0.25C0.132,-0.225 0.135,-0.2 0.14,-0.177C0.145,-0.154 0.152,-0.133 0.163,-0.116C0.174,-0.099 0.188,-0.085 0.205,-0.074C0.222,-0.063 0.243,-0.058 0.268,-0.058C0.359,-0.057 0.404,-0.121 0.404,-0.25C0.404,-0.276 0.402,-0.301 0.397,-0.324C0.392,-0.347 0.384,-0.368 0.373,-0.385C0.362,-0.402 0.348,-0.416 0.331,-0.427C0.314,-0.437 0.293,-0.442 0.268,-0.442C0.177,-0.443 0.132,-0.379 0.132,-0.25Z" style="fill-rule:nonzero;"/>
        </g>
        <g transform="matrix(48,0,0,48,12002.3,1442.15)">
            <path d="M0.442,-0.04C0.422,-0.024 0.397,-0.011 0.367,-0.002C0.336,0.007 0.304,0.012 0.27,0.012C0.232,0.012 0.199,0.006 0.171,-0.007C0.143,-0.019 0.12,-0.037 0.102,-0.06C0.084,-0.083 0.071,-0.11 0.062,-0.142C0.053,-0.174 0.049,-0.21 0.049,-0.25C0.049,-0.335 0.068,-0.4 0.106,-0.445C0.144,-0.49 0.198,-0.512 0.269,-0.512C0.292,-0.512 0.314,-0.51 0.337,-0.505C0.36,-0.5 0.38,-0.49 0.398,-0.476C0.416,-0.462 0.431,-0.442 0.442,-0.417C0.453,-0.391 0.459,-0.357 0.459,-0.315C0.459,-0.293 0.457,-0.269 0.453,-0.242L0.132,-0.242C0.132,-0.213 0.135,-0.187 0.141,-0.164C0.147,-0.141 0.156,-0.122 0.169,-0.107C0.182,-0.091 0.198,-0.079 0.219,-0.071C0.239,-0.062 0.264,-0.058 0.293,-0.058C0.316,-0.058 0.338,-0.062 0.361,-0.07C0.384,-0.078 0.401,-0.087 0.412,-0.098L0.442,-0.04ZM0.27,-0.442C0.231,-0.442 0.199,-0.432 0.176,-0.411C0.152,-0.39 0.138,-0.355 0.133,-0.305L0.381,-0.305C0.381,-0.356 0.371,-0.391 0.352,-0.412C0.333,-0.432 0.305,-0.442 0.27,-0.442Z" style="fill-rule:nonzero;"/>
        </g>
        <g transform="matrix(48,0,0,48,12035.6,1442.15)">
            <rect x="0.118" y="-0.325" width="0.584" height="0.074" style="fill-rule:nonzero;"/>
        </g>
        <g transform="matrix(48,0,0,48,12084,1442.15)">
            <path d="M0.203,-0.225L0.157,-0.225L0.157,-0L0.077,-0L0.077,-0.5L0.157,-0.5L0.157,-0.274L0.2,-0.288L0.36,-0.5L0.447,-0.5L0.292,-0.299L0.25,-0.266L0.302,-0.226L0.469,-0L0.37,-0L0.203,-0.225Z" style="fill-rule:nonzero;"/>
        </g>
        <g transform="matrix(48,0,0,48,12106.9,1442.15)">
            <path d="M0.049,-0.25C0.049,-0.335 0.068,-0.4 0.106,-0.445C0.143,-0.49 0.197,-0.512 0.268,-0.512C0.305,-0.512 0.338,-0.506 0.366,-0.494C0.393,-0.481 0.416,-0.464 0.434,-0.441C0.452,-0.418 0.465,-0.39 0.474,-0.358C0.483,-0.325 0.487,-0.289 0.487,-0.25C0.487,-0.165 0.468,-0.1 0.431,-0.056C0.393,-0.011 0.339,0.012 0.268,0.012C0.231,0.012 0.198,0.006 0.171,-0.007C0.143,-0.019 0.12,-0.037 0.102,-0.06C0.084,-0.083 0.071,-0.11 0.062,-0.143C0.053,-0.175 0.049,-0.211 0.049,-0.25ZM0.132,-0.25C0.132,-0.225 0.135,-0.2 0.14,-0.177C0.145,-0.154 0.152,-0.133 0.163,-0.116C0.174,-0.099 0.188,-0.085 0.205,-0.074C0.222,-0.063 0.243,-0.058 0.268,-0.058C0.359,-0.057 0.404,-0.121 0.404,-0.25C0.404,-0.276 0.402,-0.301 0.397,-0.324C0.392,-0.347 0.384,-0.368 0.373,-0.385C0.362,-0.402 0.348,-0.416 0.331,-0.427C0.314,-0.437 0.293,-0.442 0.268,-0.442C0.177,-0.443 0.132,-0.379 0.132,-0.25Z" style="fill-rule:nonzero;"/>
        </g>
        <g transform="matrix(48,0,0,48,12132.6,1442.15)">
            <path d="M0.383,-0.221L0.157,-0.221L0.157,-0L0.077,-0L0.077,-0.5L0.157,-0.5L0.157,-0.291L0.383,-0.291L0.383,-0.5L0.463,-0.5L0.463,-0L0.383,-0L0.383,-0.221Z" style="fill-rule:nonzero;"/>
        </g>
        <g transform="matrix(48,0,0,48,12158.5,1442.15)">
            <path d="M0.442,-0.04C0.422,-0.024 0.397,-0.011 0.367,-0.002C0.336,0.007 0.304,0.012 0.27,0.012C0.232,0.012 0.199,0.006 0.171,-0.007C0.143,-0.019 0.12,-0.037 0.102,-0.06C0.084,-0.083 0.071,-0.11 0.062,-0.142C0.053,-0.174 0.049,-0.21 0.049,-0.25C0.049,-0.335 0.068,-0.4 0.106,-0.445C0.144,-0.49 0.198,-0.512 0.269,-0.512C0.292,-0.512 0.314,-0.51 0.337,-0.505C0.36,-0.5 0.38,-0.49 0.398,-0.476C0.416,-0.462 0.431,-0.442 0.442,-0.417C0.453,-0.391 0.459,-0.357 0.459,-0.315C0.459,-0.293 0.457,-0.269 0.453,-0.242L0.132,-0.242C0.132,-0.213 0.135,-0.187 0.141,-0.164C0.147,-0.141 0.156,-0.122 0.169,-0.107C0.182,-0.091 0.198,-0.079 0.219,-0.071C0.239,-0.062 0.264,-0.058 0.293,-0.058C0.316,-0.058 0.338,-0.062 0.361,-0.07C0.384,-0.078 0.401,-0.087 0.412,-0.098L0.442,-0.04ZM0.27,-0.442C0.231,-0.442 0.199,-0.432 0.176,-0.411C0.152,-0.39 0.138,-0.355 0.133,-0.305L0.381,-0.305C0.381,-0.356 0.371,-0.391 0.352,-0.412C0.333,-0.432 0.305,-0.442 0.27,-0.442Z" style="fill-rule:nonzero;"/>
        </g>
        <g transform="matrix(48,0,0,48,12182.9,1442.15)">
            <path d="M0.526,0.127L0.472,0.127L0.457,-0L0.077,-0L0.077,-0.5L0.157,-0.5L0.157,-0.07L0.374,-0.07L0.374,-0.5L0.454,-0.5L0.454,-0.07L0.526,-0.07L0.526,0.127Z" style="fill-rule:nonzero;"/>
        </g>
    </g>
</svg>
