<?xml version="1.0" encoding="UTF-8" standalone="no"?>
<!DOCTYPE svg PUBLIC "-//W3C//DTD SVG 1.1//EN" "http://www.w3.org/Graphics/SVG/1.1/DTD/svg11.dtd">
<svg width="100%" height="100%" viewBox="0 0 811 576" version="1.1" xmlns="http://www.w3.org/2000/svg" xmlns:xlink="http://www.w3.org/1999/xlink" xml:space="preserve" xmlns:serif="http://www.serif.com/" style="fill-rule:evenodd;clip-rule:evenodd;stroke-linecap:square;stroke-linejoin:round;stroke-miterlimit:10;">
    <rect id="Geometric-Operations-2" serif:id="Geometric Operations 2" x="-3244" y="-1690" width="4299" height="2861" style="fill:none;"/>
    <g id="Geometric-Operations-21" serif:id="Geometric Operations 2">
        <g transform="matrix(1,0,0,1,-7959.98,-11902.9)">
            <g transform="matrix(72,0,0,72,8403.67,11970.9)">
                <path d="M0.011,-0.5L0.08,-0.5L0.08,-0.528C0.08,-0.591 0.093,-0.637 0.12,-0.666C0.147,-0.694 0.185,-0.708 0.236,-0.708C0.289,-0.708 0.334,-0.702 0.369,-0.689L0.344,-0.585C0.329,-0.59 0.315,-0.594 0.304,-0.596C0.292,-0.597 0.28,-0.598 0.267,-0.598C0.254,-0.598 0.243,-0.596 0.236,-0.592C0.228,-0.588 0.222,-0.582 0.219,-0.574C0.215,-0.565 0.213,-0.555 0.212,-0.543C0.211,-0.53 0.21,-0.516 0.21,-0.5L0.32,-0.5L0.32,-0.39L0.21,-0.39L0.21,-0L0.08,-0L0.08,-0.39L0.011,-0.39L0.011,-0.5Z" style="fill-rule:nonzero;"/>
            </g>
            <g transform="matrix(41.976,0,0,41.976,8426.78,11994.9)">
                <path d="M0.04,-0.351C0.04,-0.474 0.061,-0.565 0.103,-0.625C0.145,-0.684 0.205,-0.714 0.284,-0.714C0.368,-0.714 0.43,-0.685 0.469,-0.626C0.508,-0.567 0.528,-0.475 0.528,-0.351C0.528,-0.228 0.507,-0.136 0.465,-0.076C0.422,-0.016 0.362,0.014 0.283,0.014C0.2,0.014 0.138,-0.018 0.099,-0.081C0.06,-0.144 0.04,-0.234 0.04,-0.351ZM0.17,-0.351C0.17,-0.27 0.179,-0.207 0.197,-0.163C0.214,-0.118 0.243,-0.096 0.284,-0.096C0.323,-0.096 0.352,-0.116 0.371,-0.157C0.389,-0.198 0.398,-0.262 0.398,-0.351C0.398,-0.432 0.389,-0.494 0.372,-0.538C0.355,-0.582 0.325,-0.604 0.283,-0.604C0.243,-0.604 0.214,-0.583 0.197,-0.542C0.179,-0.501 0.17,-0.437 0.17,-0.351Z" style="fill-rule:nonzero;"/>
            </g>
        </g>
        <path d="M557.148,535.634L557.148,303.5L777.148,303.5L777.148,83.5L557.148,83.5L557.148,147.634L364.124,147.634L364.124,30L37.124,30L37.124,357L169.148,357L169.148,535.634L557.148,535.634Z" style="fill:rgb(144,250,46);fill-opacity:0.5;stroke:black;stroke-width:8px;"/>
        <path d="M74.124,295.634L62.124,319.634L50.124,295.634L74.124,295.634Z"/>
        <path d="M62.124,54L62.124,300.434" style="fill:none;stroke:black;stroke-width:4px;"/>
        <path d="M129.124,325.634L153.124,337.634L129.124,349.634L129.124,325.634Z"/>
        <path d="M62.124,337.634L133.924,337.634" style="fill:none;stroke:black;stroke-width:4px;"/>
        <path d="M330.124,78L342.124,54L354.124,78L330.124,78Z"/>
        <path d="M342.124,131L342.124,73.2" style="fill:none;stroke:black;stroke-width:4px;"/>
        <path d="M103.124,66L79.124,54L103.124,42L103.124,66Z"/>
        <path d="M326.124,54L98.324,54" style="fill:none;stroke:black;stroke-width:4px;"/>
        <path d="M200.124,492L188.124,516L176.124,492L200.124,492Z"/>
        <path d="M188.124,393L188.124,496.8" style="fill:none;stroke:black;stroke-width:4px;"/>
        <path d="M516.124,504L540.124,516L516.124,528L516.124,504Z"/>
        <path d="M201.124,516L520.924,516" style="fill:none;stroke:black;stroke-width:4px;"/>
        <path d="M418.124,185L394.124,173L418.124,161L418.124,185Z"/>
        <path d="M516.124,173L413.324,173" style="fill:none;stroke:black;stroke-width:4px;"/>
        <path d="M525.124,335L537.124,311L549.124,335L525.124,335Z"/>
        <path d="M537.124,502L537.124,330.2" style="fill:none;stroke:black;stroke-width:4px;"/>
        <path d="M734.124,272L758.124,284L734.124,296L734.124,272Z"/>
        <path d="M592.124,284L738.924,284" style="fill:none;stroke:black;stroke-width:4px;"/>
        <path d="M746.124,130L758.124,106L770.124,130L746.124,130Z"/>
        <path d="M758.124,269L758.124,125.2" style="fill:none;stroke:black;stroke-width:4px;"/>
        <path d="M616.124,118L592.124,106L616.124,94L616.124,118Z"/>
        <path d="M747.124,106L611.324,106" style="fill:none;stroke:black;stroke-width:4px;"/>
        <path d="M588.124,120L576.124,144L564.124,120L588.124,120Z"/>
        <path d="M576.124,103L576.124,124.8" style="fill:none;stroke:black;stroke-width:4px;"/>
        <path d="M318.124,0L342.124,12L318.124,24L318.124,0Z"/>
        <path d="M61.124,12L322.924,12" style="fill:none;stroke:black;stroke-width:4px;"/>
        <path d="M400.124,99.5L388.124,123.5L376.124,99.5L400.124,99.5Z"/>
        <path d="M388.124,46L388.124,104.3" style="fill:none;stroke:black;stroke-width:4px;"/>
        <path d="M493.124,111.5L517.124,123.5L493.124,135.5L493.124,111.5Z"/>
        <path d="M410.124,123.5L497.924,123.5" style="fill:none;stroke:black;stroke-width:4px;"/>
        <path d="M526.124,111.5L538.124,87.5L550.124,111.5L526.124,111.5Z"/>
        <path d="M538.124,129.5L538.124,106.7" style="fill:none;stroke:black;stroke-width:4px;"/>
        <path d="M753.148,49L777.148,61L753.148,73L753.148,49Z"/>
        <path d="M557.148,61L757.948,61" style="fill:none;stroke:black;stroke-width:4px;"/>
        <path d="M809.124,269.5L797.124,293.5L785.124,269.5L809.124,269.5Z"/>
        <path d="M797.124,84.75L797.124,274.3" style="fill:none;stroke:black;stroke-width:4px;"/>
        <path d="M602.124,336L578.124,324L602.124,312L602.124,336Z"/>
        <path d="M757.124,324L597.324,324" style="fill:none;stroke:black;stroke-width:4px;"/>
        <path d="M593.124,510.878L581.124,534.878L569.124,510.878L593.124,510.878Z"/>
        <path d="M581.124,343L581.124,515.678" style="fill:none;stroke:black;stroke-width:4px;"/>
        <path d="M188.124,572L164.124,560L188.124,548L188.124,572Z"/>
        <path d="M557.148,560L183.324,560" style="fill:none;stroke:black;stroke-width:4px;"/>
        <path d="M136.124,406L148.124,382L160.124,406L136.124,406Z"/>
        <path d="M148.124,555L148.124,401.2" style="fill:none;stroke:black;stroke-width:4px;"/>
        <path d="M55.124,394L31.124,382L55.124,370L55.124,394Z"/>
        <path d="M135.124,382L50.324,382" style="fill:none;stroke:black;stroke-width:4px;"/>
        <path d="M3.124,42L15.124,18L27.124,42L3.124,42Z"/>
        <path d="M15.124,381L15.124,37.2" style="fill:none;stroke:black;stroke-width:4px;"/>
        <circle cx="37.124" cy="30" r="13.5"/>
        <circle cx="363.639" cy="29.714" r="13.5"/>
        <circle cx="37.049" cy="355.66" r="13.5"/>
        <circle cx="169.049" cy="358.229" r="13.5"/>
        <circle cx="363.547" cy="147.04" r="13.5"/>
        <circle cx="168.861" cy="534.878" r="13.5"/>
        <circle cx="557.095" cy="537.056" r="13.5"/>
        <circle cx="557.095" cy="303.087" r="13.5"/>
        <circle cx="557.095" cy="83.104" r="13.5"/>
        <circle cx="557.095" cy="148.917" r="13.5"/>
        <circle cx="777.789" cy="83.104" r="13.5"/>
        <circle cx="777.789" cy="303.247" r="13.5"/>
        <g transform="matrix(1,0,0,1,-8054.1,-11645.6)">
            <g transform="matrix(72,0,0,72,8403.67,11970.9)">
                <path d="M0.011,-0.5L0.08,-0.5L0.08,-0.528C0.08,-0.591 0.093,-0.637 0.12,-0.666C0.147,-0.694 0.185,-0.708 0.236,-0.708C0.289,-0.708 0.334,-0.702 0.369,-0.689L0.344,-0.585C0.329,-0.59 0.315,-0.594 0.304,-0.596C0.292,-0.597 0.28,-0.598 0.267,-0.598C0.254,-0.598 0.243,-0.596 0.236,-0.592C0.228,-0.588 0.222,-0.582 0.219,-0.574C0.215,-0.565 0.213,-0.555 0.212,-0.543C0.211,-0.53 0.21,-0.516 0.21,-0.5L0.32,-0.5L0.32,-0.39L0.21,-0.39L0.21,-0L0.08,-0L0.08,-0.39L0.011,-0.39L0.011,-0.5Z" style="fill-rule:nonzero;"/>
            </g>
            <g transform="matrix(41.976,0,0,41.976,8426.78,11994.9)">
                <path d="M0.101,-0.11L0.24,-0.11L0.24,-0.505L0.255,-0.573L0.207,-0.514L0.118,-0.453L0.063,-0.528L0.291,-0.712L0.364,-0.712L0.364,-0.11L0.5,-0.11L0.5,-0L0.101,-0L0.101,-0.11Z" style="fill-rule:nonzero;"/>
            </g>
        </g>
    </g>
</svg>
