<?xml version="1.0" encoding="UTF-8" standalone="no"?>
<!DOCTYPE svg PUBLIC "-//W3C//DTD SVG 1.1//EN" "http://www.w3.org/Graphics/SVG/1.1/DTD/svg11.dtd">
<svg width="100%" height="100%" viewBox="0 0 733 667" version="1.1" xmlns="http://www.w3.org/2000/svg" xmlns:xlink="http://www.w3.org/1999/xlink" xml:space="preserve" xmlns:serif="http://www.serif.com/" style="fill-rule:evenodd;clip-rule:evenodd;stroke-linejoin:round;stroke-miterlimit:10;">
    <rect id="Artboard10" x="-1777" y="-1292" width="8206" height="4260" style="fill:none;"/>
    <g id="Artboard101" serif:id="Artboard10">
        <path d="M129.494,288.654L192.146,183.634L195.217,56.165L304.902,204.277L382.421,156.826L370.128,72.156L460.877,16.828L528.888,122.719L554.165,240.05L665.958,128.028L692.668,297.107L601.731,436.249L574.579,540.395L499.193,510.498L428.983,419.96L344.652,503.747L325.476,616.582L258.538,646.478L234.183,570.291L264.939,486.095L244.621,365.114L169.815,422.738L129.494,288.654Z" style="fill:rgb(217,217,217);stroke:black;stroke-width:6px;"/>
        <path d="M242.444,331.246L243.26,334.942L243.5,334.942L244.172,331.15L248.252,318.67L254.972,318.67L244.94,342.91L241.148,342.91L230.732,318.67L237.98,318.67L242.444,331.246Z" style="fill-rule:nonzero;"/>
        <path d="M20.448,369.022C20.448,370.142 20.592,370.958 20.88,371.47C21.168,371.982 21.632,372.238 22.272,372.238C22.656,372.238 23.032,372.206 23.4,372.142C23.768,372.078 24.224,371.934 24.768,371.71L25.44,376.606C24.928,376.862 24.144,377.118 23.088,377.374C22.032,377.63 20.944,377.758 19.824,377.758C18,377.758 16.608,377.334 15.648,376.486C14.688,375.638 14.208,374.238 14.208,372.286L14.208,343.486L20.448,343.486L20.448,369.022Z" style="fill:rgb(192,7,121);fill-rule:nonzero;"/>
        <path d="M47.328,375.022C46.368,375.79 45.064,376.438 43.416,376.966C41.768,377.494 40.016,377.758 38.16,377.758C34.288,377.758 31.456,376.63 29.664,374.374C27.872,372.118 26.976,369.022 26.976,365.086C26.976,360.862 27.984,357.694 30,355.582C32.016,353.47 34.848,352.414 38.496,352.414C39.712,352.414 40.896,352.574 42.048,352.894C43.2,353.214 44.224,353.742 45.12,354.478C46.016,355.214 46.736,356.206 47.28,357.454C47.824,358.702 48.096,360.254 48.096,362.11C48.096,362.782 48.056,363.502 47.976,364.27C47.896,365.038 47.776,365.838 47.616,366.67L33.216,366.67C33.312,368.686 33.832,370.206 34.776,371.23C35.72,372.254 37.248,372.766 39.36,372.766C40.672,372.766 41.848,372.566 42.888,372.166C43.928,371.766 44.72,371.358 45.264,370.942L47.328,375.022ZM38.4,357.406C36.768,357.406 35.56,357.894 34.776,358.87C33.992,359.846 33.52,361.15 33.36,362.782L42.288,362.782C42.416,361.054 42.152,359.726 41.496,358.798C40.84,357.87 39.808,357.406 38.4,357.406Z" style="fill:rgb(192,7,121);fill-rule:nonzero;"/>
        <path d="M50.304,353.086L53.616,353.086L53.616,351.742C53.616,348.702 54.256,346.502 55.536,345.142C56.816,343.782 58.672,343.102 61.104,343.102C63.664,343.102 65.792,343.406 67.488,344.014L66.288,349.006C65.552,348.75 64.904,348.582 64.344,348.502C63.784,348.422 63.2,348.382 62.592,348.382C61.952,348.382 61.448,348.478 61.08,348.67C60.712,348.862 60.44,349.158 60.264,349.558C60.088,349.958 59.976,350.454 59.928,351.046C59.88,351.638 59.856,352.318 59.856,353.086L65.136,353.086L65.136,358.366L59.856,358.366L59.856,377.086L53.616,377.086L53.616,358.366L50.304,358.366L50.304,353.086Z" style="fill:rgb(192,7,121);fill-rule:nonzero;"/>
        <path d="M65.424,353.086L68.736,353.086L68.736,348.574L74.976,346.798L74.976,353.086L80.832,353.086L80.832,358.366L74.976,358.366L74.976,367.582C74.976,369.246 75.144,370.438 75.48,371.158C75.816,371.878 76.448,372.238 77.376,372.238C78.016,372.238 78.568,372.174 79.032,372.046C79.496,371.918 80.016,371.726 80.592,371.47L81.696,376.27C80.832,376.686 79.824,377.038 78.672,377.326C77.52,377.614 76.352,377.758 75.168,377.758C72.96,377.758 71.336,377.19 70.296,376.054C69.256,374.918 68.736,373.054 68.736,370.462L68.736,358.366L65.424,358.366L65.424,353.086Z" style="fill:rgb(192,7,121);fill-rule:nonzero;"/>
        <path d="M92.832,387.646C91.36,386.11 90.112,384.422 89.088,382.582C88.064,380.742 87.24,378.854 86.616,376.918C85.992,374.982 85.536,373.03 85.248,371.062C84.96,369.094 84.816,367.214 84.816,365.422C84.816,363.662 84.96,361.806 85.248,359.854C85.536,357.902 86,355.942 86.64,353.974C87.28,352.006 88.12,350.078 89.16,348.19C90.2,346.302 91.472,344.542 92.976,342.91L97.008,345.502C95.888,347.006 94.952,348.574 94.2,350.206C93.448,351.838 92.84,353.51 92.376,355.222C91.912,356.934 91.576,358.654 91.368,360.382C91.16,362.11 91.056,363.79 91.056,365.422C91.056,366.958 91.168,368.59 91.392,370.318C91.616,372.046 91.968,373.766 92.448,375.478C92.928,377.19 93.552,378.862 94.32,380.494C95.088,382.126 96.016,383.614 97.104,384.958L92.832,387.646Z" style="fill:rgb(192,7,121);fill-rule:nonzero;"/>
        <path d="M108.672,365.662L109.488,369.358L109.728,369.358L110.4,365.566L114.48,353.086L121.2,353.086L111.168,377.326L107.376,377.326L96.96,353.086L104.208,353.086L108.672,365.662Z" style="fill:rgb(192,7,121);fill-rule:nonzero;"/>
        <path d="M125.28,342.91C126.752,344.446 128,346.134 129.024,347.974C130.048,349.814 130.872,351.702 131.496,353.638C132.12,355.574 132.576,357.526 132.864,359.494C133.152,361.462 133.296,363.342 133.296,365.134C133.296,366.894 133.152,368.75 132.864,370.702C132.576,372.654 132.112,374.614 131.472,376.582C130.832,378.55 129.992,380.478 128.952,382.366C127.912,384.254 126.64,386.014 125.136,387.646L121.104,385.006C122.288,383.406 123.264,381.782 124.032,380.134C124.8,378.486 125.408,376.822 125.856,375.142C126.304,373.462 126.616,371.782 126.792,370.102C126.968,368.422 127.056,366.766 127.056,365.134C127.056,363.598 126.936,361.974 126.696,360.262C126.456,358.55 126.096,356.838 125.616,355.126C125.136,353.414 124.52,351.75 123.768,350.134C123.016,348.518 122.112,347.022 121.056,345.646L125.28,342.91Z" style="fill:rgb(192,7,121);fill-rule:nonzero;"/>
        <path d="M207.556,211.005L183.556,199.005L207.556,187.005L207.556,211.005Z" style="fill:rgb(249,85,185);"/>
        <path d="M304.74,199.005L202.756,199.005" style="fill:none;stroke:rgb(249,85,185);stroke-width:4px;"/>
        <path d="M401.459,137.351L377.459,125.351L401.459,113.351L401.459,137.351Z" style="fill:rgb(249,85,185);"/>
        <path d="M529.455,125.351L396.659,125.351" style="fill:none;stroke:rgb(249,85,185);stroke-width:4px;"/>
        <path d="M180.667,252.05L156.667,240.05L180.667,228.05L180.667,252.05Z" style="fill:rgb(249,85,185);"/>
        <path d="M554.165,240.05L175.867,240.05" style="fill:none;stroke:rgb(249,85,185);stroke-width:4px;"/>
        <path d="M162.193,309.892L138.193,297.892L162.193,285.892L162.193,309.892Z" style="fill:rgb(249,85,185);"/>
        <path d="M692.668,297.892L157.393,297.892" style="fill:none;stroke:rgb(249,85,185);stroke-width:4px;"/>
        <path d="M180.667,377.114L156.667,365.114L180.667,353.114L180.667,377.114Z" style="fill:rgb(249,85,185);"/>
        <path d="M244.621,365.114L175.867,365.114" style="fill:none;stroke:rgb(249,85,185);stroke-width:4px;"/>
        <path d="M471,448.249L447,436.249L471,424.249L471,448.249Z" style="fill:rgb(249,85,185);"/>
        <path d="M601.731,436.249L466.2,436.249" style="fill:none;stroke:rgb(249,85,185);stroke-width:4px;"/>
        <path d="M279.099,434.24L255.099,422.24L279.099,410.24L279.099,434.24Z" style="fill:rgb(249,85,185);"/>
        <path d="M429.55,422.24L274.299,422.24" style="fill:none;stroke:rgb(249,85,185);stroke-width:4px;"/>
        <path d="M282.579,514.946L258.579,502.946L282.579,490.946L282.579,514.946Z" style="fill:rgb(249,85,185);"/>
        <path d="M345.891,502.946L277.779,502.946" style="fill:none;stroke:rgb(249,85,185);stroke-width:4px;"/>
        <path d="M304.74,181.496L324.209,216.514L285.271,216.514L304.74,181.496Z" style="fill:rgb(45,231,231);stroke:black;stroke-width:3px;"/>
        <path d="M242.74,388.731L223.271,353.713L262.209,353.713L242.74,388.731Z" style="fill:rgb(249,85,185);stroke:black;stroke-width:3px;"/>
        <path d="M430.55,446.749L411.081,411.731L450.019,411.731L430.55,446.749Z" style="fill:rgb(249,85,185);stroke:black;stroke-width:3px;"/>
        <path d="M556.436,216.514L575.905,251.532L536.967,251.532L556.436,216.514Z" style="fill:rgb(45,231,231);stroke:black;stroke-width:3px;"/>
        <rect x="183.556" y="44.828" width="23.265" height="23.265" style="fill:rgb(248,253,112);stroke:black;stroke-width:3px;"/>
        <rect x="250.678" y="632.28" width="23.265" height="23.265" style="fill:rgb(144,250,46);stroke:black;stroke-width:3px;"/>
        <rect x="564.459" y="527.996" width="23.265" height="23.265" style="fill:rgb(144,250,46);stroke:black;stroke-width:3px;"/>
        <rect x="448.619" y="7.859" width="23.265" height="23.265" style="fill:rgb(248,253,112);stroke:black;stroke-width:3px;"/>
        <rect x="651.607" y="116.529" width="23.265" height="23.265" style="fill:rgb(248,253,112);stroke:black;stroke-width:3px;"/>
        <circle cx="191.056" cy="185.593" r="10.5" style="fill:white;stroke:black;stroke-width:3px;"/>
        <circle cx="384.055" cy="157.186" r="10.5" style="fill:white;stroke:black;stroke-width:3px;"/>
        <circle cx="529.455" cy="125.098" r="10.5" style="fill:white;stroke:black;stroke-width:3px;"/>
        <circle cx="369.908" cy="73.99" r="10.5" style="fill:white;stroke:black;stroke-width:3px;"/>
        <circle cx="691.531" cy="297.892" r="10.5" style="fill:white;stroke:black;stroke-width:3px;"/>
        <circle cx="601.731" cy="436.249" r="10.5" style="fill:white;stroke:black;stroke-width:3px;"/>
        <circle cx="266.793" cy="488.016" r="10.5" style="fill:white;stroke:black;stroke-width:3px;"/>
        <circle cx="233.36" cy="571.901" r="10.5" style="fill:white;stroke:black;stroke-width:3px;"/>
        <circle cx="326.112" cy="616.66" r="10.5" style="fill:white;stroke:black;stroke-width:3px;"/>
        <circle cx="345.891" cy="502.946" r="10.5" style="fill:white;stroke:black;stroke-width:3px;"/>
        <circle cx="498.968" cy="510.322" r="10.5" style="fill:white;stroke:black;stroke-width:3px;"/>
        <path d="M169.815,422.738L129.494,288.654" style="fill:none;stroke:rgb(192,7,121);stroke-width:10px;"/>
        <rect x="159.59" y="410.812" width="23.265" height="23.265" style="fill:rgb(144,250,46);stroke:black;stroke-width:3px;"/>
        <circle cx="130.412" cy="288.463" r="10.5" style="fill:white;stroke:black;stroke-width:3px;"/>
    </g>
</svg>
