<?xml version="1.0" encoding="UTF-8" standalone="no"?>
<!DOCTYPE svg PUBLIC "-//W3C//DTD SVG 1.1//EN" "http://www.w3.org/Graphics/SVG/1.1/DTD/svg11.dtd">
<svg width="100%" height="100%" viewBox="0 0 741 667" version="1.1" xmlns="http://www.w3.org/2000/svg" xmlns:xlink="http://www.w3.org/1999/xlink" xml:space="preserve" xmlns:serif="http://www.serif.com/" style="fill-rule:evenodd;clip-rule:evenodd;stroke-linejoin:round;stroke-miterlimit:10;">
    <rect id="Artboard10" x="-2560" y="-1292" width="8206" height="4260" style="fill:none;"/>
    <g id="Artboard101" serif:id="Artboard10">
        <path d="M16.916,288.654L79.567,183.634L82.638,56.165L192.323,204.277L269.842,156.826L257.549,72.156L348.298,16.828L416.31,122.719L441.586,240.05L553.379,128.028L580.089,297.107L489.152,436.249L462,540.395L386.614,510.498L316.404,419.96L232.073,503.747L212.897,616.582L145.959,646.478L121.604,570.291L152.36,486.095L132.042,365.114L57.236,422.738L16.916,288.654Z" style="fill:rgb(217,217,217);stroke:black;stroke-width:6px;"/>
        <path d="M454.329,192.51L455.145,196.206L455.385,196.206L456.057,192.414L460.137,179.934L466.857,179.934L456.825,204.174L453.033,204.174L442.617,179.934L449.865,179.934L454.329,192.51Z" style="fill-rule:nonzero;"/>
        <path d="M603.207,208.086C602.215,207.734 601.319,207.558 600.519,207.558C599.399,207.558 598.463,207.854 597.711,208.446C596.959,209.038 596.455,209.798 596.199,210.726L596.199,226.23L589.959,226.23L589.959,202.23L594.807,202.23L595.527,205.398L595.719,205.398C596.263,204.214 596.999,203.302 597.927,202.662C598.855,202.022 599.943,201.702 601.191,201.702C602.023,201.702 602.967,201.878 604.023,202.23L603.207,208.086Z" style="fill:rgb(21,183,183);fill-rule:nonzero;"/>
        <path d="M607.383,202.23L613.623,202.23L613.623,226.23L607.383,226.23L607.383,202.23ZM606.471,195.462C606.471,194.534 606.815,193.742 607.503,193.086C608.191,192.43 609.143,192.102 610.359,192.102C611.575,192.102 612.559,192.43 613.311,193.086C614.063,193.742 614.439,194.534 614.439,195.462C614.439,196.39 614.063,197.166 613.311,197.79C612.559,198.414 611.575,198.726 610.359,198.726C609.143,198.726 608.191,198.414 607.503,197.79C606.815,197.166 606.471,196.39 606.471,195.462Z" style="fill:rgb(21,183,183);fill-rule:nonzero;"/>
        <path d="M640.023,226.23C640.023,229.718 639.079,232.286 637.191,233.934C635.303,235.582 632.663,236.406 629.271,236.406C626.967,236.406 625.151,236.246 623.823,235.926C622.495,235.606 621.495,235.27 620.823,234.918L622.119,229.974C622.855,230.262 623.711,230.55 624.687,230.838C625.663,231.126 626.871,231.27 628.311,231.27C630.487,231.27 631.967,230.798 632.751,229.854C633.535,228.91 633.927,227.59 633.927,225.894L633.927,224.358L633.735,224.358C632.615,225.862 630.631,226.614 627.783,226.614C624.679,226.614 622.367,225.654 620.847,223.734C619.327,221.814 618.567,218.806 618.567,214.71C618.567,210.422 619.591,207.174 621.639,204.966C623.687,202.758 626.663,201.654 630.567,201.654C632.615,201.654 634.447,201.798 636.063,202.086C637.679,202.374 638.999,202.71 640.023,203.094L640.023,226.23ZM629.463,221.622C630.679,221.622 631.615,221.35 632.271,220.806C632.927,220.262 633.431,219.446 633.783,218.358L633.783,207.558C632.791,207.142 631.559,206.934 630.087,206.934C628.487,206.934 627.239,207.534 626.343,208.734C625.447,209.934 624.999,211.846 624.999,214.47C624.999,216.806 625.383,218.582 626.151,219.798C626.919,221.014 628.023,221.622 629.463,221.622Z" style="fill:rgb(21,183,183);fill-rule:nonzero;"/>
        <path d="M660.135,226.23L660.135,212.598C660.135,210.646 659.863,209.238 659.319,208.374C658.775,207.51 657.783,207.078 656.343,207.078C655.287,207.078 654.319,207.438 653.439,208.158C652.559,208.878 651.975,209.798 651.687,210.918L651.687,226.23L645.447,226.23L645.447,192.63L651.687,192.63L651.687,204.918L651.879,204.918C652.647,203.894 653.591,203.078 654.711,202.47C655.831,201.862 657.255,201.558 658.983,201.558C660.199,201.558 661.271,201.718 662.199,202.038C663.127,202.358 663.903,202.886 664.527,203.622C665.151,204.358 665.615,205.358 665.919,206.622C666.223,207.886 666.375,209.446 666.375,211.302L666.375,226.23L660.135,226.23Z" style="fill:rgb(21,183,183);fill-rule:nonzero;"/>
        <path d="M669.111,202.23L672.423,202.23L672.423,197.718L678.663,195.942L678.663,202.23L684.519,202.23L684.519,207.51L678.663,207.51L678.663,216.726C678.663,218.39 678.831,219.582 679.167,220.302C679.503,221.022 680.135,221.382 681.063,221.382C681.703,221.382 682.255,221.318 682.719,221.19C683.183,221.062 683.703,220.87 684.279,220.614L685.383,225.414C684.519,225.83 683.511,226.182 682.359,226.47C681.207,226.758 680.039,226.902 678.855,226.902C676.647,226.902 675.023,226.334 673.983,225.198C672.943,224.062 672.423,222.198 672.423,219.606L672.423,207.51L669.111,207.51L669.111,202.23Z" style="fill:rgb(21,183,183);fill-rule:nonzero;"/>
        <path d="M696.519,236.79C695.047,235.254 693.799,233.566 692.775,231.726C691.751,229.886 690.927,227.998 690.303,226.062C689.679,224.126 689.223,222.174 688.935,220.206C688.647,218.238 688.503,216.358 688.503,214.566C688.503,212.806 688.647,210.95 688.935,208.998C689.223,207.046 689.687,205.086 690.327,203.118C690.967,201.15 691.807,199.222 692.847,197.334C693.887,195.446 695.159,193.686 696.663,192.054L700.695,194.646C699.575,196.15 698.639,197.718 697.887,199.35C697.135,200.982 696.527,202.654 696.063,204.366C695.599,206.078 695.263,207.798 695.055,209.526C694.847,211.254 694.743,212.934 694.743,214.566C694.743,216.102 694.855,217.734 695.079,219.462C695.303,221.19 695.655,222.91 696.135,224.622C696.615,226.334 697.239,228.006 698.007,229.638C698.775,231.27 699.703,232.758 700.791,234.102L696.519,236.79Z" style="fill:rgb(21,183,183);fill-rule:nonzero;"/>
        <path d="M712.359,214.806L713.175,218.502L713.415,218.502L714.087,214.71L718.167,202.23L724.887,202.23L714.855,226.47L711.063,226.47L700.647,202.23L707.895,202.23L712.359,214.806Z" style="fill:rgb(21,183,183);fill-rule:nonzero;"/>
        <path d="M728.967,192.054C730.439,193.59 731.687,195.278 732.711,197.118C733.735,198.958 734.559,200.846 735.183,202.782C735.807,204.718 736.263,206.67 736.551,208.638C736.839,210.606 736.983,212.486 736.983,214.278C736.983,216.038 736.839,217.894 736.551,219.846C736.263,221.798 735.799,223.758 735.159,225.726C734.519,227.694 733.679,229.622 732.639,231.51C731.599,233.398 730.327,235.158 728.823,236.79L724.791,234.15C725.975,232.55 726.951,230.926 727.719,229.278C728.487,227.63 729.095,225.966 729.543,224.286C729.991,222.606 730.303,220.926 730.479,219.246C730.655,217.566 730.743,215.91 730.743,214.278C730.743,212.742 730.623,211.118 730.383,209.406C730.143,207.694 729.783,205.982 729.303,204.27C728.823,202.558 728.207,200.894 727.455,199.278C726.703,197.662 725.799,196.166 724.743,194.79L728.967,192.054Z" style="fill:rgb(21,183,183);fill-rule:nonzero;"/>
        <path d="M400.388,187.005L424.388,199.005L400.388,211.005L400.388,187.005Z" style="fill:rgb(45,231,231);"/>
        <path d="M192.162,199.005L405.188,199.005" style="fill:none;stroke:rgb(45,231,231);stroke-width:4px;"/>
        <path d="M547.075,228.05L571.075,240.05L547.075,252.05L547.075,228.05Z" style="fill:rgb(45,231,231);"/>
        <path d="M441.586,240.05L551.875,240.05" style="fill:none;stroke:rgb(45,231,231);stroke-width:4px;"/>
        <path d="M399.736,144.826L423.736,156.826L399.736,168.826L399.736,144.826Z" style="fill:rgb(45,231,231);"/>
        <path d="M269.842,156.826L404.536,156.826" style="fill:none;stroke:rgb(45,231,231);stroke-width:4px;"/>
        <path d="M511.643,353.114L535.643,365.114L511.643,377.114L511.643,353.114Z" style="fill:rgb(45,231,231);"/>
        <path d="M132.042,365.114L516.443,365.114" style="fill:none;stroke:rgb(45,231,231);stroke-width:4px;"/>
        <path d="M474.308,410.24L498.308,422.24L474.308,434.24L474.308,410.24Z" style="fill:rgb(45,231,231);"/>
        <path d="M316.971,422.24L479.108,422.24" style="fill:none;stroke:rgb(45,231,231);stroke-width:4px;"/>
        <path d="M132.042,365.114L580.089,297.107" style="fill:none;stroke:black;stroke-width:4px;"/>
        <path d="M316.971,422.24L132.042,365.114" style="fill:none;stroke:black;stroke-width:4px;"/>
        <path d="M154.191,171.634L178.191,183.634L154.191,195.634L154.191,171.634Z" style="fill:rgb(45,231,231);"/>
        <path d="M79.567,183.634L158.991,183.634" style="fill:none;stroke:rgb(45,231,231);stroke-width:4px;"/>
        <path d="M359.999,60.156L383.999,72.156L359.999,84.156L359.999,60.156Z" style="fill:rgb(45,231,231);"/>
        <path d="M257.549,72.156L364.799,72.156" style="fill:none;stroke:rgb(45,231,231);stroke-width:4px;"/>
        <path d="M227.657,474.095L251.657,486.095L227.657,498.095L227.657,474.095Z" style="fill:rgb(45,231,231);"/>
        <path d="M152.36,486.095L232.457,486.095" style="fill:none;stroke:rgb(45,231,231);stroke-width:4px;"/>
        <path d="M194,558L218,570L194,582L194,558Z" style="fill:rgb(45,231,231);"/>
        <path d="M121,570L198.8,570" style="fill:none;stroke:rgb(45,231,231);stroke-width:4px;"/>
        <path d="M443,498L467,510L443,522L443,498Z" style="fill:rgb(45,231,231);"/>
        <path d="M383.999,510L447.8,510" style="fill:none;stroke:rgb(45,231,231);stroke-width:4px;"/>
        <path d="M554,276.463L578,288.463L554,300.463L554,276.463Z" style="fill:rgb(45,231,231);"/>
        <path d="M17.833,288.463L558.8,288.463" style="fill:none;stroke:rgb(45,231,231);stroke-width:4px;"/>
        <path d="M130.162,388.731L110.693,353.713L149.631,353.713L130.162,388.731Z" style="fill:rgb(249,85,185);stroke:black;stroke-width:3px;"/>
        <path d="M317.971,446.749L298.502,411.731L337.44,411.731L317.971,446.749Z" style="fill:rgb(249,85,185);stroke:black;stroke-width:3px;"/>
        <rect x="70.978" y="44.828" width="23.265" height="23.265" style="fill:rgb(248,253,112);stroke:black;stroke-width:3px;"/>
        <rect x="138.099" y="632.28" width="23.265" height="23.265" style="fill:rgb(144,250,46);stroke:black;stroke-width:3px;"/>
        <rect x="47.012" y="410.812" width="23.265" height="23.265" style="fill:rgb(144,250,46);stroke:black;stroke-width:3px;"/>
        <rect x="451.88" y="527.996" width="23.265" height="23.265" style="fill:rgb(144,250,46);stroke:black;stroke-width:3px;"/>
        <rect x="336.04" y="7.859" width="23.265" height="23.265" style="fill:rgb(248,253,112);stroke:black;stroke-width:3px;"/>
        <circle cx="78.478" cy="185.593" r="10.5" style="fill:white;stroke:black;stroke-width:3px;"/>
        <circle cx="17.833" cy="288.463" r="10.5" style="fill:white;stroke:black;stroke-width:3px;"/>
        <circle cx="257.33" cy="73.99" r="10.5" style="fill:white;stroke:black;stroke-width:3px;"/>
        <circle cx="489.152" cy="436.249" r="10.5" style="fill:white;stroke:black;stroke-width:3px;"/>
        <circle cx="154.214" cy="488.016" r="10.5" style="fill:white;stroke:black;stroke-width:3px;"/>
        <circle cx="120.781" cy="571.901" r="10.5" style="fill:white;stroke:black;stroke-width:3px;"/>
        <circle cx="213.533" cy="616.66" r="10.5" style="fill:white;stroke:black;stroke-width:3px;"/>
        <circle cx="233.312" cy="502.946" r="10.5" style="fill:white;stroke:black;stroke-width:3px;"/>
        <circle cx="386.39" cy="510.322" r="10.5" style="fill:white;stroke:black;stroke-width:3px;"/>
        <path d="M192.162,181.496L211.631,216.514L172.693,216.514L192.162,181.496Z" style="fill:rgb(45,231,231);stroke:black;stroke-width:3px;"/>
        <path d="M580.089,297.107L553.379,128.028" style="fill:none;stroke:rgb(21,183,183);stroke-width:10px;"/>
        <rect x="539.029" y="116.529" width="23.265" height="23.265" style="fill:rgb(248,253,112);stroke:black;stroke-width:3px;"/>
        <circle cx="580.089" cy="297.107" r="10.5" style="fill:white;stroke:black;stroke-width:3px;"/>
        <circle cx="416.877" cy="125.098" r="10.5" style="fill:white;stroke:black;stroke-width:3px;"/>
        <path d="M443.857,216.514L463.326,251.532L424.388,251.532L443.857,216.514Z" style="fill:rgb(45,231,231);stroke:black;stroke-width:3px;"/>
        <circle cx="271.477" cy="157.186" r="10.5" style="fill:white;stroke:black;stroke-width:3px;"/>
    </g>
</svg>
