<?xml version="1.0" encoding="UTF-8" standalone="no"?>
<!DOCTYPE svg PUBLIC "-//W3C//DTD SVG 1.1//EN" "http://www.w3.org/Graphics/SVG/1.1/DTD/svg11.dtd">
<svg width="100%" height="100%" viewBox="0 0 725 316" version="1.1" xmlns="http://www.w3.org/2000/svg" xmlns:xlink="http://www.w3.org/1999/xlink" xml:space="preserve" xmlns:serif="http://www.serif.com/" style="fill-rule:evenodd;clip-rule:evenodd;stroke-linecap:square;stroke-miterlimit:10;">
    <g transform="matrix(1,0,0,1,-146,-5126)">
        <rect id="Vector-analysis" serif:id="Vector analysis" x="0" y="3502" width="2985" height="2387" style="fill:none;"/>
        <g id="Vector-analysis1" serif:id="Vector analysis">
            <g id="Voronoy_colored">
            </g>
            <g id="Dots">
            </g>
            <g id="Outer-dots" serif:id="Outer dots">
            </g>
            <g transform="matrix(1.90554,0,0,1.90554,-747.558,4559.64)">
                <g transform="matrix(21.7258,0,0,21.7258,717.943,314.999)">
                    <path d="M0.06,-0.693C0.088,-0.698 0.119,-0.703 0.153,-0.706C0.186,-0.708 0.22,-0.71 0.253,-0.71C0.288,-0.71 0.323,-0.707 0.358,-0.702C0.393,-0.696 0.424,-0.685 0.452,-0.668C0.48,-0.651 0.503,-0.627 0.521,-0.597C0.538,-0.566 0.547,-0.527 0.547,-0.478C0.547,-0.434 0.539,-0.397 0.524,-0.367C0.509,-0.336 0.488,-0.311 0.463,-0.292C0.438,-0.273 0.409,-0.259 0.377,-0.25C0.344,-0.241 0.311,-0.237 0.276,-0.237L0.26,-0.237C0.253,-0.237 0.245,-0.237 0.237,-0.238C0.229,-0.238 0.221,-0.238 0.214,-0.239C0.206,-0.24 0.2,-0.24 0.197,-0.241L0.197,-0L0.06,-0L0.06,-0.693ZM0.264,-0.592C0.251,-0.592 0.238,-0.592 0.226,-0.591C0.214,-0.59 0.204,-0.588 0.197,-0.587L0.197,-0.36C0.2,-0.359 0.204,-0.359 0.209,-0.358C0.214,-0.357 0.22,-0.357 0.226,-0.357C0.232,-0.356 0.238,-0.356 0.244,-0.356L0.256,-0.356C0.274,-0.356 0.292,-0.358 0.31,-0.361C0.327,-0.364 0.343,-0.371 0.357,-0.38C0.371,-0.389 0.382,-0.401 0.391,-0.417C0.399,-0.433 0.403,-0.454 0.403,-0.48C0.403,-0.502 0.399,-0.52 0.391,-0.535C0.383,-0.549 0.373,-0.56 0.36,-0.569C0.347,-0.578 0.332,-0.584 0.315,-0.587C0.298,-0.59 0.281,-0.592 0.264,-0.592Z" style="fill-rule:nonzero;"/>
                </g>
                <g transform="matrix(21.7258,0,0,21.7258,730.37,314.999)">
                    <path d="M0.038,-0.35C0.038,-0.467 0.064,-0.557 0.115,-0.62C0.166,-0.683 0.24,-0.714 0.335,-0.714C0.385,-0.714 0.429,-0.705 0.466,-0.688C0.503,-0.671 0.534,-0.646 0.559,-0.614C0.584,-0.582 0.602,-0.544 0.614,-0.499C0.626,-0.454 0.632,-0.405 0.632,-0.35C0.632,-0.233 0.606,-0.144 0.555,-0.081C0.503,-0.018 0.43,0.014 0.335,0.014C0.284,0.014 0.24,0.005 0.203,-0.012C0.166,-0.029 0.135,-0.054 0.111,-0.086C0.086,-0.118 0.068,-0.156 0.056,-0.201C0.044,-0.246 0.038,-0.295 0.038,-0.35ZM0.182,-0.35C0.182,-0.315 0.185,-0.282 0.191,-0.253C0.197,-0.223 0.206,-0.197 0.219,-0.176C0.231,-0.155 0.247,-0.138 0.266,-0.126C0.285,-0.114 0.308,-0.108 0.335,-0.108C0.384,-0.108 0.421,-0.127 0.448,-0.165C0.475,-0.203 0.488,-0.265 0.488,-0.35C0.488,-0.384 0.485,-0.416 0.48,-0.445C0.474,-0.474 0.465,-0.5 0.453,-0.522C0.441,-0.544 0.425,-0.561 0.406,-0.574C0.387,-0.586 0.363,-0.592 0.335,-0.592C0.286,-0.592 0.249,-0.572 0.222,-0.534C0.195,-0.495 0.182,-0.433 0.182,-0.35Z" style="fill-rule:nonzero;"/>
                </g>
                <g transform="matrix(21.7258,0,0,21.7258,744.926,314.999)">
                    <path d="M0.503,-0L0.06,-0L0.06,-0.7L0.197,-0.7L0.197,-0.122L0.503,-0.122L0.503,-0Z" style="fill-rule:nonzero;"/>
                </g>
                <g transform="matrix(21.7258,0,0,21.7258,753.312,314.999)">
                    <path d="M0.228,-0.26L-0.002,-0.7L0.161,-0.7L0.289,-0.437L0.303,-0.363L0.308,-0.363L0.323,-0.439L0.447,-0.7L0.594,-0.7L0.365,-0.261L0.365,-0L0.228,-0L0.228,-0.26Z" style="fill-rule:nonzero;"/>
                </g>
                <g transform="matrix(21.7258,0,0,21.7258,765.131,314.999)">
                    <path d="M0.307,-0.365L0.568,-0.365L0.568,-0.053C0.54,-0.03 0.507,-0.013 0.468,-0.002C0.429,0.009 0.39,0.014 0.352,0.014C0.307,0.014 0.266,0.007 0.228,-0.007C0.189,-0.021 0.156,-0.043 0.128,-0.073C0.1,-0.102 0.078,-0.14 0.062,-0.186C0.046,-0.232 0.038,-0.287 0.038,-0.35C0.038,-0.416 0.048,-0.472 0.067,-0.519C0.086,-0.565 0.111,-0.603 0.142,-0.632C0.173,-0.661 0.207,-0.682 0.246,-0.695C0.285,-0.708 0.324,-0.714 0.364,-0.714C0.404,-0.714 0.439,-0.711 0.47,-0.705C0.5,-0.699 0.524,-0.693 0.542,-0.686L0.514,-0.571C0.497,-0.578 0.479,-0.583 0.458,-0.587C0.437,-0.59 0.411,-0.592 0.379,-0.592C0.35,-0.592 0.324,-0.588 0.3,-0.579C0.276,-0.57 0.255,-0.556 0.238,-0.537C0.22,-0.517 0.206,-0.492 0.197,-0.461C0.187,-0.43 0.182,-0.393 0.182,-0.349C0.182,-0.307 0.187,-0.271 0.196,-0.241C0.205,-0.21 0.218,-0.185 0.235,-0.166C0.252,-0.146 0.271,-0.131 0.294,-0.122C0.316,-0.113 0.34,-0.108 0.365,-0.108C0.382,-0.108 0.399,-0.11 0.416,-0.115C0.433,-0.119 0.447,-0.125 0.458,-0.134L0.458,-0.266L0.307,-0.282L0.307,-0.365Z" style="fill-rule:nonzero;"/>
                </g>
                <g transform="matrix(21.7258,0,0,21.7258,778.362,314.999)">
                    <path d="M0.038,-0.35C0.038,-0.467 0.064,-0.557 0.115,-0.62C0.166,-0.683 0.24,-0.714 0.335,-0.714C0.385,-0.714 0.429,-0.705 0.466,-0.688C0.503,-0.671 0.534,-0.646 0.559,-0.614C0.584,-0.582 0.602,-0.544 0.614,-0.499C0.626,-0.454 0.632,-0.405 0.632,-0.35C0.632,-0.233 0.606,-0.144 0.555,-0.081C0.503,-0.018 0.43,0.014 0.335,0.014C0.284,0.014 0.24,0.005 0.203,-0.012C0.166,-0.029 0.135,-0.054 0.111,-0.086C0.086,-0.118 0.068,-0.156 0.056,-0.201C0.044,-0.246 0.038,-0.295 0.038,-0.35ZM0.182,-0.35C0.182,-0.315 0.185,-0.282 0.191,-0.253C0.197,-0.223 0.206,-0.197 0.219,-0.176C0.231,-0.155 0.247,-0.138 0.266,-0.126C0.285,-0.114 0.308,-0.108 0.335,-0.108C0.384,-0.108 0.421,-0.127 0.448,-0.165C0.475,-0.203 0.488,-0.265 0.488,-0.35C0.488,-0.384 0.485,-0.416 0.48,-0.445C0.474,-0.474 0.465,-0.5 0.453,-0.522C0.441,-0.544 0.425,-0.561 0.406,-0.574C0.387,-0.586 0.363,-0.592 0.335,-0.592C0.286,-0.592 0.249,-0.572 0.222,-0.534C0.195,-0.495 0.182,-0.433 0.182,-0.35Z" style="fill-rule:nonzero;"/>
                </g>
                <g transform="matrix(21.7258,0,0,21.7258,792.919,314.999)">
                    <path d="M0.234,-0.365L0.179,-0.475L0.174,-0.475L0.19,-0.365L0.19,-0L0.06,-0L0.06,-0.705L0.16,-0.705L0.425,-0.332L0.478,-0.225L0.483,-0.225L0.467,-0.332L0.467,-0.7L0.597,-0.7L0.597,0.005L0.497,0.005L0.234,-0.365Z" style="fill-rule:nonzero;"/>
                </g>
            </g>
            <g transform="matrix(1.90554,0,0,1.90554,-1166.01,4559.64)">
                <g transform="matrix(21.7258,0,0,21.7258,700.822,314.999)">
                    <path d="M0.603,-0.363L0.618,-0.502L0.612,-0.502L0.569,-0.39L0.42,-0.129L0.376,-0.129L0.219,-0.391L0.175,-0.502L0.17,-0.502L0.19,-0.364L0.19,-0L0.06,-0L0.06,-0.7L0.185,-0.7L0.372,-0.38L0.405,-0.3L0.409,-0.3L0.439,-0.382L0.616,-0.7L0.74,-0.7L0.74,-0L0.603,-0L0.603,-0.363Z" style="fill-rule:nonzero;"/>
                </g>
                <g transform="matrix(21.7258,0,0,21.7258,718.203,314.999)">
                    <path d="M0.44,-0.7L0.57,-0.7L0.57,-0.248C0.57,-0.203 0.564,-0.164 0.552,-0.131C0.54,-0.098 0.523,-0.071 0.502,-0.05C0.481,-0.029 0.455,-0.013 0.424,-0.003C0.393,0.007 0.36,0.012 0.323,0.012C0.146,0.012 0.057,-0.069 0.057,-0.231L0.057,-0.7L0.194,-0.7L0.194,-0.258C0.194,-0.231 0.197,-0.208 0.202,-0.189C0.206,-0.169 0.214,-0.154 0.225,-0.143C0.236,-0.131 0.249,-0.123 0.265,-0.118C0.281,-0.113 0.3,-0.11 0.321,-0.11C0.363,-0.11 0.393,-0.122 0.412,-0.145C0.431,-0.168 0.44,-0.206 0.44,-0.258L0.44,-0.7Z" style="fill-rule:nonzero;"/>
                </g>
                <g transform="matrix(21.7258,0,0,21.7258,731.825,314.999)">
                    <path d="M0.503,-0L0.06,-0L0.06,-0.7L0.197,-0.7L0.197,-0.122L0.503,-0.122L0.503,-0Z" style="fill-rule:nonzero;"/>
                </g>
                <g transform="matrix(21.7258,0,0,21.7258,740.146,314.999)">
                    <path d="M0.557,-0.578L0.353,-0.578L0.353,-0L0.216,-0L0.216,-0.578L0.011,-0.578L0.011,-0.7L0.557,-0.7L0.557,-0.578Z" style="fill-rule:nonzero;"/>
                </g>
                <g transform="matrix(21.7258,0,0,21.7258,752.486,314.999)">
                    <rect x="0.074" y="-0.7" width="0.137" height="0.7" style="fill-rule:nonzero;"/>
                </g>
                <g transform="matrix(21.7258,0,0,21.7258,758.678,314.999)">
                    <path d="M0.06,-0.693C0.088,-0.698 0.119,-0.703 0.153,-0.706C0.186,-0.708 0.22,-0.71 0.253,-0.71C0.288,-0.71 0.323,-0.707 0.358,-0.702C0.393,-0.696 0.424,-0.685 0.452,-0.668C0.48,-0.651 0.503,-0.627 0.521,-0.597C0.538,-0.566 0.547,-0.527 0.547,-0.478C0.547,-0.434 0.539,-0.397 0.524,-0.367C0.509,-0.336 0.488,-0.311 0.463,-0.292C0.438,-0.273 0.409,-0.259 0.377,-0.25C0.344,-0.241 0.311,-0.237 0.276,-0.237L0.26,-0.237C0.253,-0.237 0.245,-0.237 0.237,-0.238C0.229,-0.238 0.221,-0.238 0.214,-0.239C0.206,-0.24 0.2,-0.24 0.197,-0.241L0.197,-0L0.06,-0L0.06,-0.693ZM0.264,-0.592C0.251,-0.592 0.238,-0.592 0.226,-0.591C0.214,-0.59 0.204,-0.588 0.197,-0.587L0.197,-0.36C0.2,-0.359 0.204,-0.359 0.209,-0.358C0.214,-0.357 0.22,-0.357 0.226,-0.357C0.232,-0.356 0.238,-0.356 0.244,-0.356L0.256,-0.356C0.274,-0.356 0.292,-0.358 0.31,-0.361C0.327,-0.364 0.343,-0.371 0.357,-0.38C0.371,-0.389 0.382,-0.401 0.391,-0.417C0.399,-0.433 0.403,-0.454 0.403,-0.48C0.403,-0.502 0.399,-0.52 0.391,-0.535C0.383,-0.549 0.373,-0.56 0.36,-0.569C0.347,-0.578 0.332,-0.584 0.315,-0.587C0.298,-0.59 0.281,-0.592 0.264,-0.592Z" style="fill-rule:nonzero;"/>
                </g>
                <g transform="matrix(21.7258,0,0,21.7258,771.105,314.999)">
                    <path d="M0.038,-0.35C0.038,-0.467 0.064,-0.557 0.115,-0.62C0.166,-0.683 0.24,-0.714 0.335,-0.714C0.385,-0.714 0.429,-0.705 0.466,-0.688C0.503,-0.671 0.534,-0.646 0.559,-0.614C0.584,-0.582 0.602,-0.544 0.614,-0.499C0.626,-0.454 0.632,-0.405 0.632,-0.35C0.632,-0.233 0.606,-0.144 0.555,-0.081C0.503,-0.018 0.43,0.014 0.335,0.014C0.284,0.014 0.24,0.005 0.203,-0.012C0.166,-0.029 0.135,-0.054 0.111,-0.086C0.086,-0.118 0.068,-0.156 0.056,-0.201C0.044,-0.246 0.038,-0.295 0.038,-0.35ZM0.182,-0.35C0.182,-0.315 0.185,-0.282 0.191,-0.253C0.197,-0.223 0.206,-0.197 0.219,-0.176C0.231,-0.155 0.247,-0.138 0.266,-0.126C0.285,-0.114 0.308,-0.108 0.335,-0.108C0.384,-0.108 0.421,-0.127 0.448,-0.165C0.475,-0.203 0.488,-0.265 0.488,-0.35C0.488,-0.384 0.485,-0.416 0.48,-0.445C0.474,-0.474 0.465,-0.5 0.453,-0.522C0.441,-0.544 0.425,-0.561 0.406,-0.574C0.387,-0.586 0.363,-0.592 0.335,-0.592C0.286,-0.592 0.249,-0.572 0.222,-0.534C0.195,-0.495 0.182,-0.433 0.182,-0.35Z" style="fill-rule:nonzero;"/>
                </g>
                <g transform="matrix(21.7258,0,0,21.7258,785.662,314.999)">
                    <path d="M0.503,-0L0.06,-0L0.06,-0.7L0.197,-0.7L0.197,-0.122L0.503,-0.122L0.503,-0Z" style="fill-rule:nonzero;"/>
                </g>
                <g transform="matrix(21.7258,0,0,21.7258,794.048,314.999)">
                    <path d="M0.228,-0.26L-0.002,-0.7L0.161,-0.7L0.289,-0.437L0.303,-0.363L0.308,-0.363L0.323,-0.439L0.447,-0.7L0.594,-0.7L0.365,-0.261L0.365,-0L0.228,-0L0.228,-0.26Z" style="fill-rule:nonzero;"/>
                </g>
                <g transform="matrix(21.7258,0,0,21.7258,805.867,314.999)">
                    <path d="M0.307,-0.365L0.568,-0.365L0.568,-0.053C0.54,-0.03 0.507,-0.013 0.468,-0.002C0.429,0.009 0.39,0.014 0.352,0.014C0.307,0.014 0.266,0.007 0.228,-0.007C0.189,-0.021 0.156,-0.043 0.128,-0.073C0.1,-0.102 0.078,-0.14 0.062,-0.186C0.046,-0.232 0.038,-0.287 0.038,-0.35C0.038,-0.416 0.048,-0.472 0.067,-0.519C0.086,-0.565 0.111,-0.603 0.142,-0.632C0.173,-0.661 0.207,-0.682 0.246,-0.695C0.285,-0.708 0.324,-0.714 0.364,-0.714C0.404,-0.714 0.439,-0.711 0.47,-0.705C0.5,-0.699 0.524,-0.693 0.542,-0.686L0.514,-0.571C0.497,-0.578 0.479,-0.583 0.458,-0.587C0.437,-0.59 0.411,-0.592 0.379,-0.592C0.35,-0.592 0.324,-0.588 0.3,-0.579C0.276,-0.57 0.255,-0.556 0.238,-0.537C0.22,-0.517 0.206,-0.492 0.197,-0.461C0.187,-0.43 0.182,-0.393 0.182,-0.349C0.182,-0.307 0.187,-0.271 0.196,-0.241C0.205,-0.21 0.218,-0.185 0.235,-0.166C0.252,-0.146 0.271,-0.131 0.294,-0.122C0.316,-0.113 0.34,-0.108 0.365,-0.108C0.382,-0.108 0.399,-0.11 0.416,-0.115C0.433,-0.119 0.447,-0.125 0.458,-0.134L0.458,-0.266L0.307,-0.282L0.307,-0.365Z" style="fill-rule:nonzero;"/>
                </g>
                <g transform="matrix(21.7258,0,0,21.7258,819.098,314.999)">
                    <path d="M0.038,-0.35C0.038,-0.467 0.064,-0.557 0.115,-0.62C0.166,-0.683 0.24,-0.714 0.335,-0.714C0.385,-0.714 0.429,-0.705 0.466,-0.688C0.503,-0.671 0.534,-0.646 0.559,-0.614C0.584,-0.582 0.602,-0.544 0.614,-0.499C0.626,-0.454 0.632,-0.405 0.632,-0.35C0.632,-0.233 0.606,-0.144 0.555,-0.081C0.503,-0.018 0.43,0.014 0.335,0.014C0.284,0.014 0.24,0.005 0.203,-0.012C0.166,-0.029 0.135,-0.054 0.111,-0.086C0.086,-0.118 0.068,-0.156 0.056,-0.201C0.044,-0.246 0.038,-0.295 0.038,-0.35ZM0.182,-0.35C0.182,-0.315 0.185,-0.282 0.191,-0.253C0.197,-0.223 0.206,-0.197 0.219,-0.176C0.231,-0.155 0.247,-0.138 0.266,-0.126C0.285,-0.114 0.308,-0.108 0.335,-0.108C0.384,-0.108 0.421,-0.127 0.448,-0.165C0.475,-0.203 0.488,-0.265 0.488,-0.35C0.488,-0.384 0.485,-0.416 0.48,-0.445C0.474,-0.474 0.465,-0.5 0.453,-0.522C0.441,-0.544 0.425,-0.561 0.406,-0.574C0.387,-0.586 0.363,-0.592 0.335,-0.592C0.286,-0.592 0.249,-0.572 0.222,-0.534C0.195,-0.495 0.182,-0.433 0.182,-0.35Z" style="fill-rule:nonzero;"/>
                </g>
                <g transform="matrix(21.7258,0,0,21.7258,833.654,314.999)">
                    <path d="M0.234,-0.365L0.179,-0.475L0.174,-0.475L0.19,-0.365L0.19,-0L0.06,-0L0.06,-0.705L0.16,-0.705L0.425,-0.332L0.478,-0.225L0.483,-0.225L0.467,-0.332L0.467,-0.7L0.597,-0.7L0.597,0.005L0.497,0.005L0.234,-0.365Z" style="fill-rule:nonzero;"/>
                </g>
            </g>
            <g id="dashed">
            </g>
            <g id="dots-2" serif:id="dots 2">
            </g>
            <g id="dots">
            </g>
            <g transform="matrix(2,0,0,1,-276.751,3887.65)">
                <g transform="matrix(0.5,-0,-0,1,211.375,1238.35)">
                    <path d="M346.249,175.576L325.249,186.076L346.249,196.576L346.249,175.576Z"/>
                    <path d="M380.249,175.576L401.249,186.076L380.249,196.576L380.249,175.576Z"/>
                    <path d="M342.049,186.076L384.449,186.076" style="fill:none;stroke:black;stroke-width:7px;"/>
                </g>
            </g>
            <g transform="matrix(-0.841837,-0.358228,0.358228,-0.841837,-1204.67,9815.35)">
                <path d="M236,5128L272,5087L356,5114L357.899,5160.47L313,5175L287.444,5214L245,5211L236,5128Z" style="fill:rgb(194,194,194);stroke:black;stroke-width:4.37px;stroke-linecap:butt;stroke-linejoin:bevel;"/>
            </g>
            <g transform="matrix(-0.841837,-0.358228,0.358228,-0.841837,-797.941,9810.24)">
                <path d="M236,5128L272,5087L356,5114L360.268,5158.37L313,5175L287.444,5214L245,5211L236,5128Z" style="fill:rgb(255,235,51);stroke:black;stroke-width:4.37px;stroke-linecap:butt;stroke-linejoin:bevel;"/>
            </g>
            <g transform="matrix(7.22193e-17,-1.17943,1.17943,7.22193e-17,-5704,5815.17)">
                <path d="M454,5150.5L482.07,5142.65L500,5114L529,5156L519,5195L471,5197L450.707,5183.56L454,5150.5Z" style="fill:rgb(194,194,194);stroke:black;stroke-width:3.39px;stroke-linecap:butt;stroke-linejoin:bevel;"/>
            </g>
            <g transform="matrix(7.22193e-17,-1.17943,1.17943,7.22193e-17,-5297.27,5816.24)">
                <path d="M454,5150.5L482.07,5142.65L500,5114L529,5156L519,5195L471,5197L450.707,5183.56L454,5150.5Z" style="fill:rgb(45,231,231);stroke:black;stroke-width:3.39px;stroke-linecap:butt;stroke-linejoin:bevel;"/>
            </g>
            <g transform="matrix(-0.457443,-0.792314,0.792314,-0.457443,-3805.97,8058.01)">
                <path d="M280.588,5319.09L295.035,5261.54L369.749,5228.64L421.418,5240.16L446,5283L471,5306L482,5371L460.804,5422.13L427.453,5423.36L415.471,5404.51L389.822,5396.74L368.957,5394.11L341.478,5377L316.06,5365.29L280.588,5319.09Z" style="fill:rgb(194,194,194);stroke:black;stroke-width:4.37px;stroke-linecap:butt;stroke-linejoin:bevel;"/>
            </g>
            <g transform="matrix(-0.457443,-0.792314,0.792314,-0.457443,-3399.24,8052.9)">
                <path d="M280.588,5319.09L295.035,5261.54L369.749,5228.64L421.418,5240.16L446,5283L471,5306L482,5371L460.804,5422.13L427.453,5423.36L415.471,5404.51L389.822,5396.74L368.957,5394.11L341.478,5377L316.06,5365.29L280.588,5319.09Z" style="fill:rgb(250,112,255);stroke:black;stroke-width:4.37px;stroke-linecap:butt;stroke-linejoin:bevel;"/>
            </g>
        </g>
    </g>
</svg>
