<?xml version="1.0" encoding="UTF-8" standalone="no"?>
<!DOCTYPE svg PUBLIC "-//W3C//DTD SVG 1.1//EN" "http://www.w3.org/Graphics/SVG/1.1/DTD/svg11.dtd">
<svg width="100%" height="100%" viewBox="0 0 470 234" version="1.1" xmlns="http://www.w3.org/2000/svg" xmlns:xlink="http://www.w3.org/1999/xlink" xml:space="preserve" xmlns:serif="http://www.serif.com/" style="fill-rule:evenodd;clip-rule:evenodd;stroke-linecap:round;stroke-linejoin:round;stroke-miterlimit:1.5;">
    <g transform="matrix(1,0,0,1,-118,-4158)">
        <rect id="Vector-analysis" serif:id="Vector analysis" x="0" y="3502" width="2985" height="2387" style="fill:none;"/>
        <g id="Vector-analysis1" serif:id="Vector analysis">
            <g id="dashed">
            </g>
            <g id="dots-2" serif:id="dots 2">
            </g>
            <g id="dots">
            </g>
            <g transform="matrix(1.26784,0,0,2.06066,-6201.55,3493.98)">
                <g transform="matrix(0.680283,0,0,0.418551,4081.18,163.301)">
                    <path d="M1337.14,520.762L1406.01,384.901L1538.06,424.224L1538.06,533.335L1460.19,589.736L1337.14,520.762Z" style="fill:rgb(194,194,194);stroke:black;stroke-width:3.48px;"/>
                </g>
                <g transform="matrix(0.788744,0,0,0.485282,4891.43,-1695.57)">
                    <path d="M156,4274L284,4220" style="fill:none;stroke:rgb(0,148,37);stroke-width:6px;stroke-linecap:square;stroke-linejoin:bevel;stroke-miterlimit:10;"/>
                </g>
                <g transform="matrix(0.788744,0,0,0.485282,1558.17,-790.105)">
                    <circle cx="4382.6" cy="2408.5" r="7.5" style="fill:white;stroke:black;stroke-width:3px;stroke-miterlimit:10;"/>
                </g>
                <g transform="matrix(0.788744,0,0,0.485282,1658.61,-816.291)">
                    <circle cx="4382.6" cy="2408.5" r="7.5" style="fill:white;stroke:black;stroke-width:3px;stroke-miterlimit:10;"/>
                </g>
            </g>
            <g transform="matrix(1.26784,0,0,2.06066,-5944.55,3493.98)">
                <g transform="matrix(0.680283,0,0,0.418551,4081.18,163.301)">
                    <path d="M1337.14,520.762L1406.01,384.901L1538.06,424.224L1538.06,533.335L1432.37,443.365L1409.78,561.48L1337.14,520.762Z" style="fill:rgb(194,194,194);stroke:black;stroke-width:3.48px;"/>
                </g>
                <g transform="matrix(0.788744,0,0,0.485282,4891.43,-1695.57)">
                    <path d="M156,4274L199.998,4255.44" style="fill:none;stroke:rgb(255,0,0);stroke-width:6px;stroke-linecap:square;stroke-linejoin:bevel;stroke-miterlimit:10;"/>
                </g>
                <g transform="matrix(0.788744,0,0,0.485282,4891.43,-1695.57)">
                    <path d="M199.998,4255.44L239.882,4238.61" style="fill:none;stroke:rgb(255,0,0);stroke-width:6px;stroke-linecap:square;stroke-linejoin:bevel;stroke-miterlimit:10;stroke-dasharray:3,12,0,0;"/>
                </g>
                <g transform="matrix(0.788744,0,0,0.485282,4891.43,-1695.57)">
                    <path d="M239.882,4238.61L284,4220" style="fill:none;stroke:rgb(255,0,0);stroke-width:6px;stroke-linecap:square;stroke-linejoin:bevel;stroke-miterlimit:10;"/>
                </g>
                <g transform="matrix(0.788744,0,0,0.485282,1558.17,-790.105)">
                    <circle cx="4382.6" cy="2408.5" r="7.5" style="fill:white;stroke:black;stroke-width:3px;stroke-miterlimit:10;"/>
                </g>
                <g transform="matrix(0.788744,0,0,0.485282,1658.61,-816.291)">
                    <circle cx="4382.6" cy="2408.5" r="7.5" style="fill:white;stroke:black;stroke-width:3px;stroke-miterlimit:10;"/>
                </g>
            </g>
            <g transform="matrix(1,0,0,1,-738.143,2229.6)">
                <g transform="matrix(40,0,0,40,868.559,2150.67)">
                    <path d="M0.507,-0.54C0.507,-0.523 0.504,-0.506 0.499,-0.489C0.494,-0.472 0.486,-0.456 0.475,-0.441C0.464,-0.426 0.451,-0.412 0.434,-0.401C0.417,-0.39 0.398,-0.381 0.375,-0.375L0.375,-0.371C0.395,-0.368 0.414,-0.362 0.433,-0.354C0.451,-0.346 0.467,-0.335 0.481,-0.321C0.495,-0.307 0.506,-0.29 0.515,-0.27C0.524,-0.25 0.528,-0.226 0.528,-0.199C0.528,-0.163 0.521,-0.132 0.506,-0.106C0.491,-0.079 0.471,-0.058 0.447,-0.041C0.422,-0.024 0.394,-0.012 0.363,-0.004C0.332,0.004 0.3,0.008 0.267,0.008L0.227,0.008C0.212,0.008 0.196,0.008 0.179,0.007C0.162,0.006 0.146,0.004 0.129,0.003C0.112,0.001 0.098,-0.002 0.085,-0.005L0.085,-0.694C0.11,-0.698 0.138,-0.701 0.171,-0.704C0.204,-0.707 0.239,-0.708 0.278,-0.708C0.304,-0.708 0.331,-0.706 0.358,-0.702C0.385,-0.697 0.409,-0.689 0.431,-0.677C0.453,-0.664 0.471,-0.647 0.486,-0.625C0.5,-0.603 0.507,-0.575 0.507,-0.54ZM0.275,-0.064C0.296,-0.064 0.317,-0.067 0.337,-0.072C0.357,-0.077 0.375,-0.085 0.39,-0.096C0.405,-0.107 0.418,-0.12 0.427,-0.136C0.436,-0.152 0.44,-0.171 0.44,-0.193C0.44,-0.22 0.435,-0.242 0.424,-0.259C0.413,-0.276 0.398,-0.289 0.381,-0.298C0.363,-0.307 0.343,-0.314 0.321,-0.317C0.299,-0.32 0.277,-0.322 0.255,-0.322L0.168,-0.322L0.168,-0.071C0.173,-0.07 0.179,-0.069 0.188,-0.068C0.197,-0.067 0.206,-0.067 0.216,-0.066C0.226,-0.065 0.236,-0.065 0.247,-0.065C0.258,-0.064 0.267,-0.064 0.275,-0.064ZM0.22,-0.392C0.231,-0.392 0.245,-0.392 0.261,-0.393C0.277,-0.394 0.29,-0.395 0.301,-0.396C0.317,-0.401 0.332,-0.408 0.346,-0.416C0.36,-0.423 0.373,-0.432 0.384,-0.443C0.395,-0.453 0.403,-0.465 0.41,-0.479C0.416,-0.492 0.419,-0.507 0.419,-0.523C0.419,-0.545 0.415,-0.563 0.407,-0.578C0.398,-0.592 0.387,-0.603 0.373,-0.612C0.359,-0.621 0.343,-0.627 0.325,-0.631C0.307,-0.634 0.289,-0.636 0.27,-0.636C0.248,-0.636 0.228,-0.636 0.21,-0.635C0.191,-0.634 0.177,-0.632 0.168,-0.63L0.168,-0.392L0.22,-0.392Z" style="fill-rule:nonzero;"/>
                </g>
                <g transform="matrix(40,0,0,40,891.919,2150.67)">
                    <path d="M0.157,-0.07C0.182,-0.066 0.205,-0.064 0.228,-0.064C0.27,-0.064 0.299,-0.072 0.316,-0.089C0.333,-0.105 0.341,-0.128 0.341,-0.158C0.341,-0.185 0.333,-0.207 0.317,-0.224C0.3,-0.241 0.272,-0.25 0.231,-0.25C0.22,-0.25 0.207,-0.25 0.194,-0.249C0.181,-0.248 0.168,-0.246 0.157,-0.243L0.157,-0.07ZM0.157,-0.309C0.173,-0.312 0.188,-0.314 0.203,-0.315C0.218,-0.316 0.232,-0.316 0.245,-0.316C0.279,-0.316 0.308,-0.312 0.331,-0.305C0.354,-0.297 0.372,-0.286 0.386,-0.273C0.4,-0.26 0.41,-0.244 0.416,-0.226C0.421,-0.207 0.424,-0.188 0.424,-0.167C0.424,-0.106 0.407,-0.062 0.374,-0.035C0.34,-0.008 0.285,0.006 0.21,0.006C0.167,0.006 0.123,0.004 0.077,-0L0.077,-0.5L0.157,-0.5L0.157,-0.309ZM0.503,-0.5L0.583,-0.5L0.583,-0L0.503,-0L0.503,-0.5Z" style="fill-rule:nonzero;"/>
                </g>
                <g transform="matrix(40,0,0,40,918.319,2150.67)">
                    <path d="M0.378,-0.43L0.157,-0.43L0.157,-0L0.077,-0L0.077,-0.5L0.458,-0.5L0.458,-0L0.378,-0L0.378,-0.43Z" style="fill-rule:nonzero;"/>
                </g>
                <g transform="matrix(40,0,0,40,939.719,2150.67)">
                    <path d="M0.224,-0.176L0.252,-0.08L0.257,-0.08L0.279,-0.177L0.376,-0.5L0.457,-0.5L0.309,-0.051C0.298,-0.018 0.286,0.013 0.276,0.044C0.265,0.075 0.252,0.102 0.239,0.126C0.226,0.15 0.211,0.169 0.194,0.184C0.177,0.198 0.158,0.205 0.136,0.205C0.112,0.205 0.092,0.202 0.077,0.195L0.091,0.126C0.1,0.129 0.108,0.131 0.116,0.131C0.135,0.131 0.153,0.121 0.17,0.102C0.187,0.082 0.202,0.048 0.213,-0L0.012,-0.5L0.104,-0.5L0.224,-0.176Z" style="fill-rule:nonzero;"/>
                </g>
                <g transform="matrix(40,0,0,40,958.359,2150.67)">
                    <path d="M0.203,-0.225L0.157,-0.225L0.157,-0L0.077,-0L0.077,-0.5L0.157,-0.5L0.157,-0.274L0.2,-0.288L0.36,-0.5L0.447,-0.5L0.292,-0.299L0.25,-0.266L0.302,-0.226L0.469,-0L0.37,-0L0.203,-0.225Z" style="fill-rule:nonzero;"/>
                </g>
                <g transform="matrix(40,0,0,40,977.479,2150.67)">
                    <path d="M0.346,-0.43L0.201,-0.43C0.199,-0.402 0.197,-0.372 0.195,-0.34C0.193,-0.307 0.19,-0.275 0.186,-0.243C0.182,-0.21 0.177,-0.179 0.17,-0.15C0.163,-0.12 0.155,-0.094 0.145,-0.071C0.134,-0.048 0.122,-0.03 0.107,-0.017C0.092,-0.003 0.074,0.004 0.053,0.004C0.04,0.004 0.029,0.003 0.02,0.002C0.011,0.001 0.002,-0.002 -0.005,-0.005L0.007,-0.072C0.015,-0.069 0.024,-0.068 0.033,-0.068C0.046,-0.068 0.058,-0.074 0.069,-0.085C0.08,-0.096 0.089,-0.118 0.097,-0.15C0.105,-0.181 0.112,-0.225 0.117,-0.281C0.122,-0.337 0.126,-0.41 0.128,-0.5L0.426,-0.5L0.426,-0L0.346,-0L0.346,-0.43Z" style="fill-rule:nonzero;"/>
                </g>
                <g transform="matrix(40,0,0,40,997.599,2150.67)">
                    <path d="M0.049,-0.25C0.049,-0.335 0.068,-0.4 0.106,-0.445C0.143,-0.49 0.197,-0.512 0.268,-0.512C0.305,-0.512 0.338,-0.506 0.366,-0.494C0.393,-0.481 0.416,-0.464 0.434,-0.441C0.452,-0.418 0.465,-0.39 0.474,-0.358C0.483,-0.325 0.487,-0.289 0.487,-0.25C0.487,-0.165 0.468,-0.1 0.431,-0.056C0.393,-0.011 0.339,0.012 0.268,0.012C0.231,0.012 0.198,0.006 0.171,-0.007C0.143,-0.019 0.12,-0.037 0.102,-0.06C0.084,-0.083 0.071,-0.11 0.062,-0.143C0.053,-0.175 0.049,-0.211 0.049,-0.25ZM0.132,-0.25C0.132,-0.225 0.135,-0.2 0.14,-0.177C0.145,-0.154 0.152,-0.133 0.163,-0.116C0.174,-0.099 0.188,-0.085 0.205,-0.074C0.222,-0.063 0.243,-0.058 0.268,-0.058C0.359,-0.057 0.404,-0.121 0.404,-0.25C0.404,-0.276 0.402,-0.301 0.397,-0.324C0.392,-0.347 0.384,-0.368 0.373,-0.385C0.362,-0.402 0.348,-0.416 0.331,-0.427C0.314,-0.437 0.293,-0.442 0.268,-0.442C0.177,-0.443 0.132,-0.379 0.132,-0.25Z" style="fill-rule:nonzero;"/>
                </g>
                <g transform="matrix(40,0,0,40,1019.04,2150.67)">
                    <path d="M0.442,-0.04C0.422,-0.024 0.397,-0.011 0.367,-0.002C0.336,0.007 0.304,0.012 0.27,0.012C0.232,0.012 0.199,0.006 0.171,-0.007C0.143,-0.019 0.12,-0.037 0.102,-0.06C0.084,-0.083 0.071,-0.11 0.062,-0.142C0.053,-0.174 0.049,-0.21 0.049,-0.25C0.049,-0.335 0.068,-0.4 0.106,-0.445C0.144,-0.49 0.198,-0.512 0.269,-0.512C0.292,-0.512 0.314,-0.51 0.337,-0.505C0.36,-0.5 0.38,-0.49 0.398,-0.476C0.416,-0.462 0.431,-0.442 0.442,-0.417C0.453,-0.391 0.459,-0.357 0.459,-0.315C0.459,-0.293 0.457,-0.269 0.453,-0.242L0.132,-0.242C0.132,-0.213 0.135,-0.187 0.141,-0.164C0.147,-0.141 0.156,-0.122 0.169,-0.107C0.182,-0.091 0.198,-0.079 0.219,-0.071C0.239,-0.062 0.264,-0.058 0.293,-0.058C0.316,-0.058 0.338,-0.062 0.361,-0.07C0.384,-0.078 0.401,-0.087 0.412,-0.098L0.442,-0.04ZM0.27,-0.442C0.231,-0.442 0.199,-0.432 0.176,-0.411C0.152,-0.39 0.138,-0.355 0.133,-0.305L0.381,-0.305C0.381,-0.356 0.371,-0.391 0.352,-0.412C0.333,-0.432 0.305,-0.442 0.27,-0.442Z" style="fill-rule:nonzero;"/>
                </g>
            </g>
            <g transform="matrix(1,0,0,1,-501.746,2229.21)">
                <g transform="matrix(40,0,0,40,868.559,2150.67)">
                    <path d="M0.504,-0.321L0.168,-0.321L0.168,-0L0.085,-0L0.085,-0.7L0.168,-0.7L0.168,-0.395L0.504,-0.395L0.504,-0.7L0.587,-0.7L0.587,-0L0.504,-0L0.504,-0.321Z" style="fill-rule:nonzero;"/>
                </g>
                <g transform="matrix(40,0,0,40,895.439,2150.67)">
                    <path d="M0.442,-0.04C0.422,-0.024 0.397,-0.011 0.367,-0.002C0.336,0.007 0.304,0.012 0.27,0.012C0.232,0.012 0.199,0.006 0.171,-0.007C0.143,-0.019 0.12,-0.037 0.102,-0.06C0.084,-0.083 0.071,-0.11 0.062,-0.142C0.053,-0.174 0.049,-0.21 0.049,-0.25C0.049,-0.335 0.068,-0.4 0.106,-0.445C0.144,-0.49 0.198,-0.512 0.269,-0.512C0.292,-0.512 0.314,-0.51 0.337,-0.505C0.36,-0.5 0.38,-0.49 0.398,-0.476C0.416,-0.462 0.431,-0.442 0.442,-0.417C0.453,-0.391 0.459,-0.357 0.459,-0.315C0.459,-0.293 0.457,-0.269 0.453,-0.242L0.132,-0.242C0.132,-0.213 0.135,-0.187 0.141,-0.164C0.147,-0.141 0.156,-0.122 0.169,-0.107C0.182,-0.091 0.198,-0.079 0.219,-0.071C0.239,-0.062 0.264,-0.058 0.293,-0.058C0.316,-0.058 0.338,-0.062 0.361,-0.07C0.384,-0.078 0.401,-0.087 0.412,-0.098L0.442,-0.04ZM0.27,-0.442C0.231,-0.442 0.199,-0.432 0.176,-0.411C0.152,-0.39 0.138,-0.355 0.133,-0.305L0.381,-0.305C0.381,-0.356 0.371,-0.391 0.352,-0.412C0.333,-0.432 0.305,-0.442 0.27,-0.442Z" style="fill-rule:nonzero;"/>
                </g>
                <g transform="matrix(40,0,0,40,915.759,2150.67)">
                    <path d="M0.077,-0.499C0.1,-0.5 0.125,-0.502 0.151,-0.504C0.176,-0.506 0.208,-0.507 0.246,-0.507C0.312,-0.507 0.359,-0.497 0.388,-0.477C0.417,-0.456 0.431,-0.425 0.431,-0.384C0.431,-0.361 0.424,-0.338 0.411,-0.316C0.397,-0.293 0.374,-0.277 0.343,-0.266L0.343,-0.262C0.382,-0.255 0.41,-0.241 0.426,-0.221C0.442,-0.201 0.45,-0.174 0.45,-0.141C0.45,-0.089 0.431,-0.051 0.394,-0.028C0.357,-0.005 0.301,0.007 0.226,0.007C0.198,0.007 0.172,0.006 0.148,0.005C0.124,0.003 0.1,0.001 0.077,-0.001L0.077,-0.499ZM0.157,-0.067C0.17,-0.066 0.182,-0.065 0.195,-0.064C0.207,-0.063 0.221,-0.063 0.238,-0.063C0.283,-0.063 0.316,-0.069 0.338,-0.082C0.359,-0.095 0.37,-0.116 0.37,-0.147C0.37,-0.171 0.361,-0.191 0.343,-0.206C0.324,-0.221 0.292,-0.228 0.245,-0.228L0.157,-0.228L0.157,-0.067ZM0.255,-0.289C0.267,-0.289 0.279,-0.291 0.29,-0.295C0.301,-0.299 0.312,-0.305 0.321,-0.312C0.33,-0.319 0.337,-0.327 0.343,-0.336C0.348,-0.345 0.351,-0.355 0.351,-0.366C0.351,-0.393 0.343,-0.411 0.327,-0.422C0.311,-0.432 0.283,-0.437 0.243,-0.437C0.222,-0.437 0.205,-0.437 0.193,-0.436C0.18,-0.435 0.168,-0.435 0.157,-0.434L0.157,-0.289L0.255,-0.289Z" style="fill-rule:nonzero;"/>
                </g>
                <g transform="matrix(40,0,0,40,935.719,2150.67)">
                    <path d="M0.157,-0.07C0.182,-0.066 0.205,-0.064 0.228,-0.064C0.27,-0.064 0.299,-0.072 0.316,-0.089C0.333,-0.105 0.341,-0.128 0.341,-0.158C0.341,-0.185 0.333,-0.207 0.317,-0.224C0.3,-0.241 0.272,-0.25 0.231,-0.25C0.22,-0.25 0.207,-0.25 0.194,-0.249C0.181,-0.248 0.168,-0.246 0.157,-0.243L0.157,-0.07ZM0.157,-0.309C0.173,-0.312 0.188,-0.314 0.203,-0.315C0.218,-0.316 0.232,-0.316 0.245,-0.316C0.279,-0.316 0.308,-0.312 0.331,-0.305C0.354,-0.297 0.372,-0.286 0.386,-0.273C0.4,-0.26 0.41,-0.244 0.416,-0.226C0.421,-0.207 0.424,-0.188 0.424,-0.167C0.424,-0.106 0.407,-0.062 0.374,-0.035C0.34,-0.008 0.285,0.006 0.21,0.006C0.167,0.006 0.123,0.004 0.077,-0L0.077,-0.5L0.157,-0.5L0.157,-0.309ZM0.503,-0.5L0.583,-0.5L0.583,-0L0.503,-0L0.503,-0.5Z" style="fill-rule:nonzero;"/>
                </g>
                <g transform="matrix(40,0,0,40,962.119,2150.67)">
                    <path d="M0.378,-0.43L0.157,-0.43L0.157,-0L0.077,-0L0.077,-0.5L0.458,-0.5L0.458,-0L0.378,-0L0.378,-0.43Z" style="fill-rule:nonzero;"/>
                </g>
                <g transform="matrix(40,0,0,40,983.519,2150.67)">
                    <path d="M0.224,-0.176L0.252,-0.08L0.257,-0.08L0.279,-0.177L0.376,-0.5L0.457,-0.5L0.309,-0.051C0.298,-0.018 0.286,0.013 0.276,0.044C0.265,0.075 0.252,0.102 0.239,0.126C0.226,0.15 0.211,0.169 0.194,0.184C0.177,0.198 0.158,0.205 0.136,0.205C0.112,0.205 0.092,0.202 0.077,0.195L0.091,0.126C0.1,0.129 0.108,0.131 0.116,0.131C0.135,0.131 0.153,0.121 0.17,0.102C0.187,0.082 0.202,0.048 0.213,-0L0.012,-0.5L0.104,-0.5L0.224,-0.176Z" style="fill-rule:nonzero;"/>
                </g>
                <g transform="matrix(40,0,0,40,1002.16,2150.67)">
                    <path d="M0.203,-0.225L0.157,-0.225L0.157,-0L0.077,-0L0.077,-0.5L0.157,-0.5L0.157,-0.274L0.2,-0.288L0.36,-0.5L0.447,-0.5L0.292,-0.299L0.25,-0.266L0.302,-0.226L0.469,-0L0.37,-0L0.203,-0.225Z" style="fill-rule:nonzero;"/>
                </g>
                <g transform="matrix(40,0,0,40,1021.28,2150.67)">
                    <path d="M0.346,-0.43L0.201,-0.43C0.199,-0.402 0.197,-0.372 0.195,-0.34C0.193,-0.307 0.19,-0.275 0.186,-0.243C0.182,-0.21 0.177,-0.179 0.17,-0.15C0.163,-0.12 0.155,-0.094 0.145,-0.071C0.134,-0.048 0.122,-0.03 0.107,-0.017C0.092,-0.003 0.074,0.004 0.053,0.004C0.04,0.004 0.029,0.003 0.02,0.002C0.011,0.001 0.002,-0.002 -0.005,-0.005L0.007,-0.072C0.015,-0.069 0.024,-0.068 0.033,-0.068C0.046,-0.068 0.058,-0.074 0.069,-0.085C0.08,-0.096 0.089,-0.118 0.097,-0.15C0.105,-0.181 0.112,-0.225 0.117,-0.281C0.122,-0.337 0.126,-0.41 0.128,-0.5L0.426,-0.5L0.426,-0L0.346,-0L0.346,-0.43Z" style="fill-rule:nonzero;"/>
                </g>
                <g transform="matrix(40,0,0,40,1041.4,2150.67)">
                    <path d="M0.049,-0.25C0.049,-0.335 0.068,-0.4 0.106,-0.445C0.143,-0.49 0.197,-0.512 0.268,-0.512C0.305,-0.512 0.338,-0.506 0.366,-0.494C0.393,-0.481 0.416,-0.464 0.434,-0.441C0.452,-0.418 0.465,-0.39 0.474,-0.358C0.483,-0.325 0.487,-0.289 0.487,-0.25C0.487,-0.165 0.468,-0.1 0.431,-0.056C0.393,-0.011 0.339,0.012 0.268,0.012C0.231,0.012 0.198,0.006 0.171,-0.007C0.143,-0.019 0.12,-0.037 0.102,-0.06C0.084,-0.083 0.071,-0.11 0.062,-0.143C0.053,-0.175 0.049,-0.211 0.049,-0.25ZM0.132,-0.25C0.132,-0.225 0.135,-0.2 0.14,-0.177C0.145,-0.154 0.152,-0.133 0.163,-0.116C0.174,-0.099 0.188,-0.085 0.205,-0.074C0.222,-0.063 0.243,-0.058 0.268,-0.058C0.359,-0.057 0.404,-0.121 0.404,-0.25C0.404,-0.276 0.402,-0.301 0.397,-0.324C0.392,-0.347 0.384,-0.368 0.373,-0.385C0.362,-0.402 0.348,-0.416 0.331,-0.427C0.314,-0.437 0.293,-0.442 0.268,-0.442C0.177,-0.443 0.132,-0.379 0.132,-0.25Z" style="fill-rule:nonzero;"/>
                </g>
                <g transform="matrix(40,0,0,40,1062.84,2150.67)">
                    <path d="M0.442,-0.04C0.422,-0.024 0.397,-0.011 0.367,-0.002C0.336,0.007 0.304,0.012 0.27,0.012C0.232,0.012 0.199,0.006 0.171,-0.007C0.143,-0.019 0.12,-0.037 0.102,-0.06C0.084,-0.083 0.071,-0.11 0.062,-0.142C0.053,-0.174 0.049,-0.21 0.049,-0.25C0.049,-0.335 0.068,-0.4 0.106,-0.445C0.144,-0.49 0.198,-0.512 0.269,-0.512C0.292,-0.512 0.314,-0.51 0.337,-0.505C0.36,-0.5 0.38,-0.49 0.398,-0.476C0.416,-0.462 0.431,-0.442 0.442,-0.417C0.453,-0.391 0.459,-0.357 0.459,-0.315C0.459,-0.293 0.457,-0.269 0.453,-0.242L0.132,-0.242C0.132,-0.213 0.135,-0.187 0.141,-0.164C0.147,-0.141 0.156,-0.122 0.169,-0.107C0.182,-0.091 0.198,-0.079 0.219,-0.071C0.239,-0.062 0.264,-0.058 0.293,-0.058C0.316,-0.058 0.338,-0.062 0.361,-0.07C0.384,-0.078 0.401,-0.087 0.412,-0.098L0.442,-0.04ZM0.27,-0.442C0.231,-0.442 0.199,-0.432 0.176,-0.411C0.152,-0.39 0.138,-0.355 0.133,-0.305L0.381,-0.305C0.381,-0.356 0.371,-0.391 0.352,-0.412C0.333,-0.432 0.305,-0.442 0.27,-0.442Z" style="fill-rule:nonzero;"/>
                </g>
            </g>
        </g>
    </g>
</svg>
