<?xml version="1.0" encoding="UTF-8" standalone="no"?>
<!DOCTYPE svg PUBLIC "-//W3C//DTD SVG 1.1//EN" "http://www.w3.org/Graphics/SVG/1.1/DTD/svg11.dtd">
<svg width="100%" height="100%" viewBox="0 0 919 339" version="1.1" xmlns="http://www.w3.org/2000/svg" xmlns:xlink="http://www.w3.org/1999/xlink" xml:space="preserve" xmlns:serif="http://www.serif.com/" style="fill-rule:evenodd;clip-rule:evenodd;stroke-linecap:round;stroke-linejoin:round;stroke-miterlimit:10;">
    <g transform="matrix(1,0,0,1,-75,-1006)">
        <g id="Georeferencing" transform="matrix(1,0,0,1.20354,0,-276.469)">
            <rect x="0" y="754" width="1501" height="1017" style="fill:none;"/>
            <g transform="matrix(1.01842,0,0,0.740329,50.8979,500.372)">
                <rect x="69" y="834" width="198" height="209" style="fill:rgb(133,239,255);stroke:black;stroke-width:4.18px;"/>
            </g>
            <g transform="matrix(1.01842,0,0,0.740329,362.297,500.372)">
                <rect x="69" y="834" width="198" height="209" style="fill:rgb(133,239,255);stroke:black;stroke-width:4.18px;"/>
            </g>
            <g transform="matrix(1.01842,0,0,0.740329,675.8,500.372)">
                <rect x="69" y="834" width="198" height="209" style="fill:rgb(133,239,255);stroke:black;stroke-width:4.18px;"/>
            </g>
            <g transform="matrix(0.45933,0,0,0.381649,144.825,836.993)">
                <path d="M245.229,834L90.771,834L25.458,1043L310.542,1043L245.229,834Z" style="fill:rgb(248,194,255);stroke:black;stroke-width:8.71px;"/>
            </g>
            <g transform="matrix(1.90554,0,0,1.58328,-1221.41,599.427)">
                <g transform="matrix(18.8923,0,0,18.8923,705.182,313.015)">
                    <path d="M0.442,-0.578L0.197,-0.578L0.197,-0L0.06,-0L0.06,-0.7L0.579,-0.7L0.579,-0L0.442,-0L0.442,-0.578Z" style="fill-rule:nonzero;"/>
                </g>
                <g transform="matrix(18.8923,0,0,18.8923,717.254,313.015)">
                    <path d="M0.057,-0.5L0.152,-0.5L0.167,-0.44L0.171,-0.44C0.188,-0.465 0.209,-0.484 0.233,-0.496C0.256,-0.508 0.285,-0.514 0.319,-0.514C0.382,-0.514 0.429,-0.494 0.46,-0.455C0.491,-0.415 0.507,-0.351 0.507,-0.263C0.507,-0.22 0.502,-0.182 0.492,-0.148C0.482,-0.113 0.467,-0.084 0.448,-0.06C0.428,-0.036 0.404,-0.018 0.376,-0.005C0.347,0.008 0.315,0.014 0.278,0.014C0.257,0.014 0.24,0.012 0.227,0.01C0.214,0.007 0.2,0.002 0.187,-0.005L0.187,0.2L0.057,0.2L0.057,-0.5ZM0.28,-0.404C0.255,-0.404 0.235,-0.398 0.221,-0.385C0.206,-0.372 0.195,-0.353 0.187,-0.328L0.187,-0.12C0.196,-0.113 0.207,-0.107 0.218,-0.103C0.229,-0.098 0.243,-0.096 0.261,-0.096C0.298,-0.096 0.326,-0.109 0.345,-0.136C0.364,-0.162 0.373,-0.205 0.373,-0.266C0.373,-0.31 0.366,-0.344 0.351,-0.368C0.336,-0.392 0.313,-0.404 0.28,-0.404Z" style="fill-rule:nonzero;"/>
                </g>
                <g transform="matrix(18.8923,0,0,18.8923,727.456,313.015)">
                    <path d="M0.033,-0.25C0.033,-0.335 0.054,-0.4 0.095,-0.446C0.136,-0.491 0.194,-0.514 0.269,-0.514C0.309,-0.514 0.344,-0.508 0.373,-0.495C0.402,-0.482 0.427,-0.464 0.446,-0.442C0.465,-0.419 0.48,-0.391 0.49,-0.358C0.499,-0.325 0.504,-0.289 0.504,-0.25C0.504,-0.165 0.484,-0.1 0.443,-0.055C0.401,-0.009 0.344,0.014 0.269,0.014C0.229,0.014 0.194,0.008 0.165,-0.005C0.136,-0.018 0.111,-0.036 0.092,-0.059C0.072,-0.082 0.057,-0.109 0.048,-0.142C0.038,-0.175 0.033,-0.211 0.033,-0.25ZM0.167,-0.25C0.167,-0.228 0.169,-0.208 0.173,-0.189C0.177,-0.17 0.183,-0.154 0.191,-0.14C0.199,-0.126 0.21,-0.115 0.223,-0.108C0.236,-0.1 0.251,-0.096 0.269,-0.096C0.303,-0.096 0.328,-0.108 0.345,-0.133C0.362,-0.158 0.37,-0.197 0.37,-0.25C0.37,-0.296 0.362,-0.333 0.347,-0.362C0.332,-0.39 0.306,-0.404 0.269,-0.404C0.237,-0.404 0.212,-0.392 0.194,-0.368C0.176,-0.344 0.167,-0.305 0.167,-0.25Z" style="fill-rule:nonzero;"/>
                </g>
                <g transform="matrix(18.8923,0,0,18.8923,737.601,313.015)">
                    <path d="M0.457,-0.043C0.437,-0.027 0.41,-0.014 0.376,-0.003C0.341,0.009 0.305,0.014 0.266,0.014C0.185,0.014 0.126,-0.01 0.089,-0.057C0.052,-0.103 0.033,-0.168 0.033,-0.25C0.033,-0.338 0.054,-0.404 0.096,-0.448C0.138,-0.492 0.197,-0.514 0.273,-0.514C0.298,-0.514 0.323,-0.511 0.347,-0.504C0.371,-0.497 0.392,-0.486 0.411,-0.471C0.43,-0.456 0.445,-0.435 0.456,-0.409C0.467,-0.383 0.473,-0.351 0.473,-0.312C0.473,-0.298 0.472,-0.283 0.471,-0.267C0.469,-0.251 0.466,-0.234 0.463,-0.217L0.163,-0.217C0.165,-0.175 0.176,-0.143 0.196,-0.122C0.215,-0.101 0.247,-0.09 0.291,-0.09C0.318,-0.09 0.343,-0.094 0.365,-0.103C0.386,-0.111 0.403,-0.119 0.414,-0.128L0.457,-0.043ZM0.271,-0.41C0.237,-0.41 0.212,-0.4 0.196,-0.38C0.179,-0.359 0.169,-0.332 0.166,-0.298L0.352,-0.298C0.355,-0.334 0.349,-0.362 0.336,-0.381C0.322,-0.4 0.3,-0.41 0.271,-0.41Z" style="fill-rule:nonzero;"/>
                </g>
                <g transform="matrix(18.8923,0,0,18.8923,747.199,313.015)">
                    <path d="M0.222,-0.207L0.187,-0.207L0.187,-0L0.057,-0L0.057,-0.5L0.187,-0.5L0.187,-0.287L0.218,-0.301L0.335,-0.5L0.474,-0.5L0.353,-0.31L0.302,-0.272L0.358,-0.233L0.493,-0L0.344,-0L0.222,-0.207Z" style="fill-rule:nonzero;"/>
                </g>
                <g transform="matrix(18.8923,0,0,18.8923,756.437,313.015)">
                    <path d="M0.417,-0.385L0.278,-0.385L0.278,-0L0.144,-0L0.144,-0.385L0.001,-0.385L0.001,-0.5L0.417,-0.5L0.417,-0.385Z" style="fill-rule:nonzero;"/>
                </g>
                <g transform="matrix(18.8923,0,0,18.8923,764.334,313.015)">
                    <path d="M0.358,-0.228L0.363,-0.299L0.36,-0.299L0.317,-0.226L0.139,-0L0.057,-0L0.057,-0.5L0.187,-0.5L0.187,-0.262L0.181,-0.194L0.185,-0.194L0.226,-0.265L0.406,-0.5L0.488,-0.5L0.488,-0L0.358,-0L0.358,-0.228Z" style="fill-rule:nonzero;"/>
                </g>
                <g transform="matrix(18.8923,0,0,18.8923,774.63,313.015)">
                    <path d="M0.057,-0.499C0.08,-0.501 0.109,-0.503 0.142,-0.505C0.175,-0.507 0.21,-0.508 0.248,-0.508C0.321,-0.508 0.374,-0.498 0.405,-0.477C0.436,-0.456 0.451,-0.424 0.451,-0.382C0.451,-0.359 0.444,-0.336 0.431,-0.314C0.418,-0.292 0.397,-0.276 0.368,-0.266L0.368,-0.262C0.404,-0.254 0.43,-0.24 0.446,-0.22C0.462,-0.199 0.47,-0.173 0.47,-0.141C0.47,-0.091 0.451,-0.054 0.413,-0.029C0.374,-0.004 0.313,0.008 0.228,0.008C0.2,0.008 0.17,0.007 0.139,0.006C0.108,0.004 0.08,0.002 0.057,-0.001L0.057,-0.499ZM0.184,-0.1C0.193,-0.099 0.202,-0.098 0.21,-0.097C0.218,-0.096 0.228,-0.096 0.24,-0.096C0.276,-0.096 0.302,-0.101 0.317,-0.111C0.332,-0.121 0.34,-0.136 0.34,-0.157C0.34,-0.174 0.334,-0.189 0.321,-0.2C0.308,-0.211 0.284,-0.216 0.251,-0.216L0.184,-0.216L0.184,-0.1ZM0.253,-0.296C0.274,-0.296 0.292,-0.301 0.306,-0.312C0.319,-0.322 0.326,-0.335 0.326,-0.351C0.326,-0.368 0.32,-0.382 0.309,-0.391C0.297,-0.4 0.276,-0.404 0.245,-0.404C0.23,-0.404 0.218,-0.404 0.209,-0.403C0.2,-0.402 0.191,-0.402 0.184,-0.401L0.184,-0.296L0.253,-0.296Z" style="fill-rule:nonzero;"/>
                </g>
                <g transform="matrix(18.8923,0,0,18.8923,784.171,313.015)">
                    <path d="M0.35,-0.196L0.187,-0.196L0.187,-0L0.057,-0L0.057,-0.5L0.187,-0.5L0.187,-0.312L0.35,-0.312L0.35,-0.5L0.48,-0.5L0.48,-0L0.35,-0L0.35,-0.196Z" style="fill-rule:nonzero;"/>
                </g>
                <g transform="matrix(18.8923,0,0,18.8923,794.316,313.015)">
                    <path d="M0.033,-0.25C0.033,-0.335 0.054,-0.4 0.095,-0.446C0.136,-0.491 0.194,-0.514 0.269,-0.514C0.309,-0.514 0.344,-0.508 0.373,-0.495C0.402,-0.482 0.427,-0.464 0.446,-0.442C0.465,-0.419 0.48,-0.391 0.49,-0.358C0.499,-0.325 0.504,-0.289 0.504,-0.25C0.504,-0.165 0.484,-0.1 0.443,-0.055C0.401,-0.009 0.344,0.014 0.269,0.014C0.229,0.014 0.194,0.008 0.165,-0.005C0.136,-0.018 0.111,-0.036 0.092,-0.059C0.072,-0.082 0.057,-0.109 0.048,-0.142C0.038,-0.175 0.033,-0.211 0.033,-0.25ZM0.167,-0.25C0.167,-0.228 0.169,-0.208 0.173,-0.189C0.177,-0.17 0.183,-0.154 0.191,-0.14C0.199,-0.126 0.21,-0.115 0.223,-0.108C0.236,-0.1 0.251,-0.096 0.269,-0.096C0.303,-0.096 0.328,-0.108 0.345,-0.133C0.362,-0.158 0.37,-0.197 0.37,-0.25C0.37,-0.296 0.362,-0.333 0.347,-0.362C0.332,-0.39 0.306,-0.404 0.269,-0.404C0.237,-0.404 0.212,-0.392 0.194,-0.368C0.176,-0.344 0.167,-0.305 0.167,-0.25Z" style="fill-rule:nonzero;"/>
                </g>
                <g transform="matrix(18.8923,0,0,18.8923,804.461,313.015)">
                    <path d="M0.457,-0.043C0.437,-0.027 0.41,-0.014 0.376,-0.003C0.341,0.009 0.305,0.014 0.266,0.014C0.185,0.014 0.126,-0.01 0.089,-0.057C0.052,-0.103 0.033,-0.168 0.033,-0.25C0.033,-0.338 0.054,-0.404 0.096,-0.448C0.138,-0.492 0.197,-0.514 0.273,-0.514C0.298,-0.514 0.323,-0.511 0.347,-0.504C0.371,-0.497 0.392,-0.486 0.411,-0.471C0.43,-0.456 0.445,-0.435 0.456,-0.409C0.467,-0.383 0.473,-0.351 0.473,-0.312C0.473,-0.298 0.472,-0.283 0.471,-0.267C0.469,-0.251 0.466,-0.234 0.463,-0.217L0.163,-0.217C0.165,-0.175 0.176,-0.143 0.196,-0.122C0.215,-0.101 0.247,-0.09 0.291,-0.09C0.318,-0.09 0.343,-0.094 0.365,-0.103C0.386,-0.111 0.403,-0.119 0.414,-0.128L0.457,-0.043ZM0.271,-0.41C0.237,-0.41 0.212,-0.4 0.196,-0.38C0.179,-0.359 0.169,-0.332 0.166,-0.298L0.352,-0.298C0.355,-0.334 0.349,-0.362 0.336,-0.381C0.322,-0.4 0.3,-0.41 0.271,-0.41Z" style="fill-rule:nonzero;"/>
                </g>
            </g>
            <g transform="matrix(1.90554,0,0,1.58328,-930.407,599.427)">
                <g transform="matrix(18.8923,0,0,18.8923,696.189,313.015)">
                    <path d="M0.442,-0.578L0.197,-0.578L0.197,-0L0.06,-0L0.06,-0.7L0.579,-0.7L0.579,-0L0.442,-0L0.442,-0.578Z" style="fill-rule:nonzero;"/>
                </g>
                <g transform="matrix(18.8923,0,0,18.8923,708.261,313.015)">
                    <path d="M0.033,-0.25C0.033,-0.335 0.054,-0.4 0.095,-0.446C0.136,-0.491 0.194,-0.514 0.269,-0.514C0.309,-0.514 0.344,-0.508 0.373,-0.495C0.402,-0.482 0.427,-0.464 0.446,-0.442C0.465,-0.419 0.48,-0.391 0.49,-0.358C0.499,-0.325 0.504,-0.289 0.504,-0.25C0.504,-0.165 0.484,-0.1 0.443,-0.055C0.401,-0.009 0.344,0.014 0.269,0.014C0.229,0.014 0.194,0.008 0.165,-0.005C0.136,-0.018 0.111,-0.036 0.092,-0.059C0.072,-0.082 0.057,-0.109 0.048,-0.142C0.038,-0.175 0.033,-0.211 0.033,-0.25ZM0.167,-0.25C0.167,-0.228 0.169,-0.208 0.173,-0.189C0.177,-0.17 0.183,-0.154 0.191,-0.14C0.199,-0.126 0.21,-0.115 0.223,-0.108C0.236,-0.1 0.251,-0.096 0.269,-0.096C0.303,-0.096 0.328,-0.108 0.345,-0.133C0.362,-0.158 0.37,-0.197 0.37,-0.25C0.37,-0.296 0.362,-0.333 0.347,-0.362C0.332,-0.39 0.306,-0.404 0.269,-0.404C0.237,-0.404 0.212,-0.392 0.194,-0.368C0.176,-0.344 0.167,-0.305 0.167,-0.25Z" style="fill-rule:nonzero;"/>
                </g>
                <g transform="matrix(18.8923,0,0,18.8923,718.406,313.015)">
                    <path d="M0.329,-0.385L0.23,-0.385C0.226,-0.338 0.221,-0.291 0.216,-0.244C0.211,-0.197 0.202,-0.156 0.191,-0.119C0.179,-0.082 0.163,-0.051 0.143,-0.029C0.123,-0.006 0.097,0.006 0.065,0.006C0.026,0.006 -0.001,0.001 -0.017,-0.009L-0.001,-0.117C0.01,-0.113 0.02,-0.111 0.029,-0.111C0.042,-0.111 0.054,-0.117 0.064,-0.128C0.074,-0.139 0.083,-0.16 0.09,-0.189C0.096,-0.218 0.102,-0.258 0.107,-0.309C0.111,-0.359 0.114,-0.423 0.116,-0.5L0.459,-0.5L0.459,-0L0.329,-0L0.329,-0.385Z" style="fill-rule:nonzero;"/>
                </g>
                <g transform="matrix(18.8923,0,0,18.8923,728.135,313.015)">
                    <path d="M0.358,-0.228L0.363,-0.299L0.36,-0.299L0.317,-0.226L0.139,-0L0.057,-0L0.057,-0.5L0.187,-0.5L0.187,-0.262L0.181,-0.194L0.185,-0.194L0.226,-0.265L0.406,-0.5L0.488,-0.5L0.488,-0L0.358,-0L0.358,-0.228Z" style="fill-rule:nonzero;"/>
                </g>
                <g transform="matrix(18.8923,0,0,18.8923,738.432,313.015)">
                    <path d="M0.35,-0.196L0.187,-0.196L0.187,-0L0.057,-0L0.057,-0.5L0.187,-0.5L0.187,-0.312L0.35,-0.312L0.35,-0.5L0.48,-0.5L0.48,-0L0.35,-0L0.35,-0.196Z" style="fill-rule:nonzero;"/>
                </g>
                <g transform="matrix(18.8923,0,0,18.8923,748.577,313.015)">
                    <path d="M0.033,-0.25C0.033,-0.335 0.054,-0.4 0.095,-0.446C0.136,-0.491 0.194,-0.514 0.269,-0.514C0.309,-0.514 0.344,-0.508 0.373,-0.495C0.402,-0.482 0.427,-0.464 0.446,-0.442C0.465,-0.419 0.48,-0.391 0.49,-0.358C0.499,-0.325 0.504,-0.289 0.504,-0.25C0.504,-0.165 0.484,-0.1 0.443,-0.055C0.401,-0.009 0.344,0.014 0.269,0.014C0.229,0.014 0.194,0.008 0.165,-0.005C0.136,-0.018 0.111,-0.036 0.092,-0.059C0.072,-0.082 0.057,-0.109 0.048,-0.142C0.038,-0.175 0.033,-0.211 0.033,-0.25ZM0.167,-0.25C0.167,-0.228 0.169,-0.208 0.173,-0.189C0.177,-0.17 0.183,-0.154 0.191,-0.14C0.199,-0.126 0.21,-0.115 0.223,-0.108C0.236,-0.1 0.251,-0.096 0.269,-0.096C0.303,-0.096 0.328,-0.108 0.345,-0.133C0.362,-0.158 0.37,-0.197 0.37,-0.25C0.37,-0.296 0.362,-0.333 0.347,-0.362C0.332,-0.39 0.306,-0.404 0.269,-0.404C0.237,-0.404 0.212,-0.392 0.194,-0.368C0.176,-0.344 0.167,-0.305 0.167,-0.25Z" style="fill-rule:nonzero;"/>
                </g>
                <g transform="matrix(18.8923,0,0,18.8923,758.722,313.015)">
                    <path d="M0.485,-0.229L0.493,-0.333L0.488,-0.333L0.448,-0.247L0.354,-0.092L0.307,-0.092L0.204,-0.247L0.166,-0.333L0.16,-0.333L0.173,-0.23L0.173,-0L0.057,-0L0.057,-0.5L0.192,-0.5L0.307,-0.312L0.335,-0.249L0.339,-0.249L0.368,-0.314L0.474,-0.5L0.61,-0.5L0.61,-0L0.485,-0L0.485,-0.229Z" style="fill-rule:nonzero;"/>
                </g>
                <g transform="matrix(18.8923,0,0,18.8923,771.304,313.015)">
                    <path d="M0.358,-0.228L0.363,-0.299L0.36,-0.299L0.317,-0.226L0.139,-0L0.057,-0L0.057,-0.5L0.187,-0.5L0.187,-0.262L0.181,-0.194L0.185,-0.194L0.226,-0.265L0.406,-0.5L0.488,-0.5L0.488,-0L0.358,-0L0.358,-0.228Z" style="fill-rule:nonzero;"/>
                </g>
                <g transform="matrix(18.8923,0,0,18.8923,781.6,313.015)">
                    <path d="M0.054,-0.471C0.081,-0.483 0.112,-0.493 0.149,-0.5C0.186,-0.507 0.224,-0.51 0.264,-0.51C0.299,-0.51 0.328,-0.506 0.351,-0.498C0.374,-0.489 0.393,-0.477 0.407,-0.462C0.42,-0.447 0.43,-0.428 0.436,-0.407C0.441,-0.386 0.444,-0.362 0.444,-0.335C0.444,-0.306 0.443,-0.276 0.441,-0.247C0.439,-0.217 0.438,-0.188 0.438,-0.159C0.437,-0.13 0.438,-0.102 0.44,-0.076C0.442,-0.049 0.447,-0.023 0.455,0.001L0.349,0.001L0.328,-0.068L0.323,-0.068C0.31,-0.047 0.291,-0.029 0.268,-0.015C0.244,0 0.213,0.008 0.176,0.008C0.153,0.008 0.132,0.005 0.113,-0.003C0.094,-0.01 0.078,-0.02 0.065,-0.033C0.052,-0.046 0.041,-0.061 0.034,-0.079C0.027,-0.096 0.023,-0.116 0.023,-0.138C0.023,-0.169 0.03,-0.195 0.044,-0.216C0.057,-0.237 0.077,-0.254 0.103,-0.267C0.128,-0.28 0.159,-0.289 0.195,-0.294C0.23,-0.299 0.27,-0.3 0.314,-0.298C0.319,-0.335 0.316,-0.362 0.306,-0.379C0.296,-0.395 0.274,-0.403 0.239,-0.403C0.213,-0.403 0.186,-0.4 0.157,-0.395C0.128,-0.39 0.104,-0.383 0.085,-0.374L0.054,-0.471ZM0.219,-0.099C0.245,-0.099 0.266,-0.105 0.281,-0.117C0.296,-0.128 0.308,-0.141 0.315,-0.154L0.315,-0.219C0.294,-0.221 0.275,-0.221 0.256,-0.22C0.237,-0.219 0.22,-0.216 0.205,-0.211C0.19,-0.206 0.179,-0.2 0.17,-0.191C0.161,-0.182 0.157,-0.171 0.157,-0.158C0.157,-0.139 0.163,-0.125 0.174,-0.115C0.185,-0.104 0.2,-0.099 0.219,-0.099Z" style="fill-rule:nonzero;"/>
                </g>
                <g transform="matrix(18.8923,0,0,18.8923,790.971,313.015)">
                    <path d="M0.329,-0.385L0.23,-0.385C0.226,-0.338 0.221,-0.291 0.216,-0.244C0.211,-0.197 0.202,-0.156 0.191,-0.119C0.179,-0.082 0.163,-0.051 0.143,-0.029C0.123,-0.006 0.097,0.006 0.065,0.006C0.026,0.006 -0.001,0.001 -0.017,-0.009L-0.001,-0.117C0.01,-0.113 0.02,-0.111 0.029,-0.111C0.042,-0.111 0.054,-0.117 0.064,-0.128C0.074,-0.139 0.083,-0.16 0.09,-0.189C0.096,-0.218 0.102,-0.258 0.107,-0.309C0.111,-0.359 0.114,-0.423 0.116,-0.5L0.459,-0.5L0.459,-0L0.329,-0L0.329,-0.385Z" style="fill-rule:nonzero;"/>
                </g>
                <g transform="matrix(18.8923,0,0,18.8923,800.701,313.015)">
                    <path d="M0.187,-0.109C0.207,-0.105 0.226,-0.103 0.244,-0.103C0.276,-0.103 0.299,-0.109 0.314,-0.12C0.328,-0.131 0.335,-0.148 0.335,-0.171C0.335,-0.214 0.306,-0.236 0.247,-0.236C0.225,-0.236 0.205,-0.234 0.187,-0.229L0.187,-0.109ZM0.187,-0.322C0.203,-0.325 0.219,-0.327 0.236,-0.328C0.252,-0.329 0.267,-0.329 0.28,-0.329C0.315,-0.329 0.344,-0.325 0.368,-0.318C0.392,-0.31 0.412,-0.299 0.427,-0.285C0.442,-0.271 0.452,-0.255 0.459,-0.236C0.466,-0.217 0.469,-0.196 0.469,-0.174C0.469,-0.113 0.451,-0.068 0.415,-0.038C0.379,-0.008 0.318,0.007 0.232,0.007C0.194,0.007 0.161,0.006 0.134,0.005C0.106,0.004 0.08,0.002 0.057,-0L0.057,-0.5L0.187,-0.5L0.187,-0.322Z" style="fill-rule:nonzero;"/>
                </g>
                <g transform="matrix(18.8923,0,0,18.8923,809.958,313.015)">
                    <path d="M0.35,-0.196L0.187,-0.196L0.187,-0L0.057,-0L0.057,-0.5L0.187,-0.5L0.187,-0.312L0.35,-0.312L0.35,-0.5L0.48,-0.5L0.48,-0L0.35,-0L0.35,-0.196Z" style="fill-rule:nonzero;"/>
                </g>
                <g transform="matrix(18.8923,0,0,18.8923,820.103,313.015)">
                    <path d="M0.033,-0.25C0.033,-0.335 0.054,-0.4 0.095,-0.446C0.136,-0.491 0.194,-0.514 0.269,-0.514C0.309,-0.514 0.344,-0.508 0.373,-0.495C0.402,-0.482 0.427,-0.464 0.446,-0.442C0.465,-0.419 0.48,-0.391 0.49,-0.358C0.499,-0.325 0.504,-0.289 0.504,-0.25C0.504,-0.165 0.484,-0.1 0.443,-0.055C0.401,-0.009 0.344,0.014 0.269,0.014C0.229,0.014 0.194,0.008 0.165,-0.005C0.136,-0.018 0.111,-0.036 0.092,-0.059C0.072,-0.082 0.057,-0.109 0.048,-0.142C0.038,-0.175 0.033,-0.211 0.033,-0.25ZM0.167,-0.25C0.167,-0.228 0.169,-0.208 0.173,-0.189C0.177,-0.17 0.183,-0.154 0.191,-0.14C0.199,-0.126 0.21,-0.115 0.223,-0.108C0.236,-0.1 0.251,-0.096 0.269,-0.096C0.303,-0.096 0.328,-0.108 0.345,-0.133C0.362,-0.158 0.37,-0.197 0.37,-0.25C0.37,-0.296 0.362,-0.333 0.347,-0.362C0.332,-0.39 0.306,-0.404 0.269,-0.404C0.237,-0.404 0.212,-0.392 0.194,-0.368C0.176,-0.344 0.167,-0.305 0.167,-0.25Z" style="fill-rule:nonzero;"/>
                </g>
                <g transform="matrix(18.8923,0,0,18.8923,830.248,313.015)">
                    <path d="M0.457,-0.043C0.437,-0.027 0.41,-0.014 0.376,-0.003C0.341,0.009 0.305,0.014 0.266,0.014C0.185,0.014 0.126,-0.01 0.089,-0.057C0.052,-0.103 0.033,-0.168 0.033,-0.25C0.033,-0.338 0.054,-0.404 0.096,-0.448C0.138,-0.492 0.197,-0.514 0.273,-0.514C0.298,-0.514 0.323,-0.511 0.347,-0.504C0.371,-0.497 0.392,-0.486 0.411,-0.471C0.43,-0.456 0.445,-0.435 0.456,-0.409C0.467,-0.383 0.473,-0.351 0.473,-0.312C0.473,-0.298 0.472,-0.283 0.471,-0.267C0.469,-0.251 0.466,-0.234 0.463,-0.217L0.163,-0.217C0.165,-0.175 0.176,-0.143 0.196,-0.122C0.215,-0.101 0.247,-0.09 0.291,-0.09C0.318,-0.09 0.343,-0.094 0.365,-0.103C0.386,-0.111 0.403,-0.119 0.414,-0.128L0.457,-0.043ZM0.271,-0.41C0.237,-0.41 0.212,-0.4 0.196,-0.38C0.179,-0.359 0.169,-0.332 0.166,-0.298L0.352,-0.298C0.355,-0.334 0.349,-0.362 0.336,-0.381C0.322,-0.4 0.3,-0.41 0.271,-0.41Z" style="fill-rule:nonzero;"/>
                </g>
            </g>
            <g transform="matrix(1.90554,0,0,1.58328,-614.358,599.427)">
                <g transform="matrix(18.8923,0,0,18.8923,701.441,313.015)">
                    <path d="M0.06,-0.693C0.088,-0.698 0.119,-0.703 0.153,-0.706C0.186,-0.708 0.22,-0.71 0.253,-0.71C0.288,-0.71 0.323,-0.707 0.358,-0.702C0.393,-0.696 0.424,-0.685 0.452,-0.668C0.48,-0.651 0.503,-0.627 0.521,-0.597C0.538,-0.566 0.547,-0.527 0.547,-0.478C0.547,-0.434 0.539,-0.397 0.524,-0.367C0.509,-0.336 0.488,-0.311 0.463,-0.292C0.438,-0.273 0.409,-0.259 0.377,-0.25C0.344,-0.241 0.311,-0.237 0.276,-0.237L0.26,-0.237C0.253,-0.237 0.245,-0.237 0.237,-0.238C0.229,-0.238 0.221,-0.238 0.214,-0.239C0.206,-0.24 0.2,-0.24 0.197,-0.241L0.197,-0L0.06,-0L0.06,-0.693ZM0.264,-0.592C0.251,-0.592 0.238,-0.592 0.226,-0.591C0.214,-0.59 0.204,-0.588 0.197,-0.587L0.197,-0.36C0.2,-0.359 0.204,-0.359 0.209,-0.358C0.214,-0.357 0.22,-0.357 0.226,-0.357C0.232,-0.356 0.238,-0.356 0.244,-0.356L0.256,-0.356C0.274,-0.356 0.292,-0.358 0.31,-0.361C0.327,-0.364 0.343,-0.371 0.357,-0.38C0.371,-0.389 0.382,-0.401 0.391,-0.417C0.399,-0.433 0.403,-0.454 0.403,-0.48C0.403,-0.502 0.399,-0.52 0.391,-0.535C0.383,-0.549 0.373,-0.56 0.36,-0.569C0.347,-0.578 0.332,-0.584 0.315,-0.587C0.298,-0.59 0.281,-0.592 0.264,-0.592Z" style="fill-rule:nonzero;"/>
                </g>
                <g transform="matrix(18.8923,0,0,18.8923,712.247,313.015)">
                    <path d="M0.457,-0.043C0.437,-0.027 0.41,-0.014 0.376,-0.003C0.341,0.009 0.305,0.014 0.266,0.014C0.185,0.014 0.126,-0.01 0.089,-0.057C0.052,-0.103 0.033,-0.168 0.033,-0.25C0.033,-0.338 0.054,-0.404 0.096,-0.448C0.138,-0.492 0.197,-0.514 0.273,-0.514C0.298,-0.514 0.323,-0.511 0.347,-0.504C0.371,-0.497 0.392,-0.486 0.411,-0.471C0.43,-0.456 0.445,-0.435 0.456,-0.409C0.467,-0.383 0.473,-0.351 0.473,-0.312C0.473,-0.298 0.472,-0.283 0.471,-0.267C0.469,-0.251 0.466,-0.234 0.463,-0.217L0.163,-0.217C0.165,-0.175 0.176,-0.143 0.196,-0.122C0.215,-0.101 0.247,-0.09 0.291,-0.09C0.318,-0.09 0.343,-0.094 0.365,-0.103C0.386,-0.111 0.403,-0.119 0.414,-0.128L0.457,-0.043ZM0.271,-0.41C0.237,-0.41 0.212,-0.4 0.196,-0.38C0.179,-0.359 0.169,-0.332 0.166,-0.298L0.352,-0.298C0.355,-0.334 0.349,-0.362 0.336,-0.381C0.322,-0.4 0.3,-0.41 0.271,-0.41Z" style="fill-rule:nonzero;"/>
                </g>
                <g transform="matrix(18.8923,0,0,18.8923,721.844,313.015)">
                    <path d="M0.109,-0.207L0.109,-0.298L0.17,-0.298C0.193,-0.298 0.213,-0.303 0.228,-0.312C0.243,-0.321 0.25,-0.334 0.25,-0.349C0.25,-0.367 0.243,-0.38 0.23,-0.388C0.217,-0.395 0.196,-0.399 0.169,-0.399C0.143,-0.399 0.12,-0.396 0.1,-0.389C0.08,-0.382 0.064,-0.375 0.052,-0.368L0.024,-0.467C0.044,-0.478 0.071,-0.488 0.104,-0.497C0.136,-0.505 0.172,-0.509 0.209,-0.509C0.266,-0.509 0.309,-0.498 0.338,-0.477C0.366,-0.456 0.38,-0.425 0.38,-0.384C0.38,-0.373 0.379,-0.361 0.376,-0.35C0.373,-0.338 0.368,-0.327 0.361,-0.316C0.354,-0.305 0.346,-0.296 0.337,-0.288C0.327,-0.279 0.315,-0.273 0.302,-0.268L0.302,-0.264C0.337,-0.256 0.362,-0.242 0.377,-0.222C0.392,-0.201 0.399,-0.174 0.399,-0.14C0.399,-0.119 0.395,-0.099 0.386,-0.081C0.377,-0.062 0.364,-0.046 0.347,-0.033C0.329,-0.02 0.307,-0.009 0.28,-0.001C0.253,0.007 0.222,0.011 0.185,0.011C0.148,0.011 0.117,0.007 0.09,-0.001C0.063,-0.008 0.04,-0.017 0.022,-0.027L0.05,-0.128C0.065,-0.119 0.084,-0.112 0.106,-0.107C0.127,-0.102 0.151,-0.099 0.178,-0.099C0.239,-0.099 0.269,-0.118 0.269,-0.157C0.269,-0.174 0.261,-0.187 0.246,-0.195C0.23,-0.203 0.201,-0.207 0.158,-0.207L0.109,-0.207Z" style="fill-rule:nonzero;"/>
                </g>
                <g transform="matrix(18.8923,0,0,18.8923,730.006,313.015)">
                    <path d="M0.358,-0.228L0.363,-0.299L0.36,-0.299L0.317,-0.226L0.139,-0L0.057,-0L0.057,-0.5L0.187,-0.5L0.187,-0.262L0.181,-0.194L0.185,-0.194L0.226,-0.265L0.406,-0.5L0.488,-0.5L0.488,-0L0.358,-0L0.358,-0.228Z" style="fill-rule:nonzero;"/>
                </g>
                <g transform="matrix(18.8923,0,0,18.8923,740.302,313.015)">
                    <path d="M0.35,-0.196L0.187,-0.196L0.187,-0L0.057,-0L0.057,-0.5L0.187,-0.5L0.187,-0.312L0.35,-0.312L0.35,-0.5L0.48,-0.5L0.48,-0L0.35,-0L0.35,-0.196Z" style="fill-rule:nonzero;"/>
                </g>
                <g transform="matrix(18.8923,0,0,18.8923,750.447,313.015)">
                    <path d="M0.033,-0.25C0.033,-0.335 0.054,-0.4 0.095,-0.446C0.136,-0.491 0.194,-0.514 0.269,-0.514C0.309,-0.514 0.344,-0.508 0.373,-0.495C0.402,-0.482 0.427,-0.464 0.446,-0.442C0.465,-0.419 0.48,-0.391 0.49,-0.358C0.499,-0.325 0.504,-0.289 0.504,-0.25C0.504,-0.165 0.484,-0.1 0.443,-0.055C0.401,-0.009 0.344,0.014 0.269,0.014C0.229,0.014 0.194,0.008 0.165,-0.005C0.136,-0.018 0.111,-0.036 0.092,-0.059C0.072,-0.082 0.057,-0.109 0.048,-0.142C0.038,-0.175 0.033,-0.211 0.033,-0.25ZM0.167,-0.25C0.167,-0.228 0.169,-0.208 0.173,-0.189C0.177,-0.17 0.183,-0.154 0.191,-0.14C0.199,-0.126 0.21,-0.115 0.223,-0.108C0.236,-0.1 0.251,-0.096 0.269,-0.096C0.303,-0.096 0.328,-0.108 0.345,-0.133C0.362,-0.158 0.37,-0.197 0.37,-0.25C0.37,-0.296 0.362,-0.333 0.347,-0.362C0.332,-0.39 0.306,-0.404 0.269,-0.404C0.237,-0.404 0.212,-0.392 0.194,-0.368C0.176,-0.344 0.167,-0.305 0.167,-0.25Z" style="fill-rule:nonzero;"/>
                </g>
                <g transform="matrix(18.8923,0,0,18.8923,760.592,313.015)">
                    <path d="M0.057,-0.499C0.08,-0.501 0.109,-0.503 0.142,-0.505C0.175,-0.507 0.21,-0.508 0.248,-0.508C0.321,-0.508 0.374,-0.498 0.405,-0.477C0.436,-0.456 0.451,-0.424 0.451,-0.382C0.451,-0.359 0.444,-0.336 0.431,-0.314C0.418,-0.292 0.397,-0.276 0.368,-0.266L0.368,-0.262C0.404,-0.254 0.43,-0.24 0.446,-0.22C0.462,-0.199 0.47,-0.173 0.47,-0.141C0.47,-0.091 0.451,-0.054 0.413,-0.029C0.374,-0.004 0.313,0.008 0.228,0.008C0.2,0.008 0.17,0.007 0.139,0.006C0.108,0.004 0.08,0.002 0.057,-0.001L0.057,-0.499ZM0.184,-0.1C0.193,-0.099 0.202,-0.098 0.21,-0.097C0.218,-0.096 0.228,-0.096 0.24,-0.096C0.276,-0.096 0.302,-0.101 0.317,-0.111C0.332,-0.121 0.34,-0.136 0.34,-0.157C0.34,-0.174 0.334,-0.189 0.321,-0.2C0.308,-0.211 0.284,-0.216 0.251,-0.216L0.184,-0.216L0.184,-0.1ZM0.253,-0.296C0.274,-0.296 0.292,-0.301 0.306,-0.312C0.319,-0.322 0.326,-0.335 0.326,-0.351C0.326,-0.368 0.32,-0.382 0.309,-0.391C0.297,-0.4 0.276,-0.404 0.245,-0.404C0.23,-0.404 0.218,-0.404 0.209,-0.403C0.2,-0.402 0.191,-0.402 0.184,-0.401L0.184,-0.296L0.253,-0.296Z" style="fill-rule:nonzero;"/>
                </g>
                <g transform="matrix(18.8923,0,0,18.8923,770.133,313.015)">
                    <path d="M0.187,-0.109C0.207,-0.105 0.226,-0.103 0.244,-0.103C0.274,-0.103 0.295,-0.109 0.307,-0.12C0.319,-0.131 0.325,-0.148 0.325,-0.171C0.325,-0.192 0.319,-0.209 0.307,-0.22C0.295,-0.231 0.275,-0.236 0.247,-0.236C0.225,-0.236 0.205,-0.234 0.187,-0.229L0.187,-0.109ZM0.187,-0.322C0.203,-0.325 0.219,-0.327 0.236,-0.328C0.252,-0.329 0.267,-0.329 0.28,-0.329C0.314,-0.329 0.342,-0.325 0.365,-0.318C0.388,-0.31 0.406,-0.299 0.42,-0.285C0.434,-0.271 0.444,-0.255 0.45,-0.236C0.456,-0.217 0.459,-0.196 0.459,-0.174C0.459,-0.144 0.455,-0.118 0.447,-0.095C0.439,-0.072 0.426,-0.054 0.408,-0.039C0.39,-0.024 0.367,-0.012 0.338,-0.005C0.309,0.003 0.274,0.007 0.232,0.007C0.194,0.007 0.161,0.006 0.134,0.005C0.106,0.004 0.08,0.002 0.057,-0L0.057,-0.5L0.187,-0.5L0.187,-0.322ZM0.516,-0.5L0.646,-0.5L0.646,-0L0.516,-0L0.516,-0.5Z" style="fill-rule:nonzero;"/>
                </g>
                <g transform="matrix(18.8923,0,0,18.8923,783.414,313.015)">
                    <path d="M0.358,-0.228L0.363,-0.299L0.36,-0.299L0.317,-0.226L0.139,-0L0.057,-0L0.057,-0.5L0.187,-0.5L0.187,-0.262L0.181,-0.194L0.185,-0.194L0.226,-0.265L0.406,-0.5L0.488,-0.5L0.488,-0L0.358,-0L0.358,-0.228ZM0.219,-0.704C0.224,-0.678 0.232,-0.66 0.243,-0.649C0.254,-0.638 0.268,-0.633 0.285,-0.633C0.304,-0.633 0.319,-0.638 0.33,-0.649C0.341,-0.66 0.348,-0.678 0.352,-0.703L0.451,-0.678C0.443,-0.635 0.423,-0.603 0.392,-0.582C0.361,-0.561 0.324,-0.55 0.282,-0.55C0.261,-0.55 0.241,-0.552 0.222,-0.557C0.203,-0.562 0.185,-0.569 0.17,-0.58C0.155,-0.59 0.142,-0.603 0.131,-0.619C0.12,-0.635 0.113,-0.655 0.109,-0.678L0.219,-0.704Z" style="fill-rule:nonzero;"/>
                </g>
                <g transform="matrix(18.8923,0,0,18.8923,798.49,313.015)">
                    <path d="M0.329,-0.385L0.23,-0.385C0.226,-0.338 0.221,-0.291 0.216,-0.244C0.211,-0.197 0.202,-0.156 0.191,-0.119C0.179,-0.082 0.163,-0.051 0.143,-0.029C0.123,-0.006 0.097,0.006 0.065,0.006C0.026,0.006 -0.001,0.001 -0.017,-0.009L-0.001,-0.117C0.01,-0.113 0.02,-0.111 0.029,-0.111C0.042,-0.111 0.054,-0.117 0.064,-0.128C0.074,-0.139 0.083,-0.16 0.09,-0.189C0.096,-0.218 0.102,-0.258 0.107,-0.309C0.111,-0.359 0.114,-0.423 0.116,-0.5L0.459,-0.5L0.459,-0L0.329,-0L0.329,-0.385Z" style="fill-rule:nonzero;"/>
                </g>
                <g transform="matrix(18.8923,0,0,18.8923,808.22,313.015)">
                    <path d="M0.358,-0.228L0.363,-0.299L0.36,-0.299L0.317,-0.226L0.139,-0L0.057,-0L0.057,-0.5L0.187,-0.5L0.187,-0.262L0.181,-0.194L0.185,-0.194L0.226,-0.265L0.406,-0.5L0.488,-0.5L0.488,-0L0.358,-0L0.358,-0.228Z" style="fill-rule:nonzero;"/>
                </g>
                <g transform="matrix(18.8923,0,0,18.8923,818.516,313.015)">
                    <path d="M0.411,-0.031C0.391,-0.016 0.367,-0.005 0.339,0.003C0.31,0.01 0.281,0.014 0.251,0.014C0.211,0.014 0.177,0.008 0.15,-0.005C0.122,-0.018 0.099,-0.036 0.082,-0.059C0.065,-0.082 0.052,-0.109 0.045,-0.142C0.037,-0.175 0.033,-0.211 0.033,-0.25C0.033,-0.335 0.052,-0.4 0.09,-0.446C0.128,-0.491 0.183,-0.514 0.256,-0.514C0.293,-0.514 0.322,-0.511 0.345,-0.505C0.367,-0.499 0.387,-0.491 0.405,-0.482L0.374,-0.376C0.359,-0.383 0.343,-0.389 0.329,-0.393C0.314,-0.397 0.296,-0.399 0.277,-0.399C0.241,-0.399 0.214,-0.387 0.195,-0.364C0.176,-0.34 0.167,-0.302 0.167,-0.25C0.167,-0.229 0.169,-0.209 0.174,-0.191C0.179,-0.173 0.186,-0.157 0.195,-0.144C0.204,-0.131 0.217,-0.12 0.232,-0.113C0.247,-0.105 0.264,-0.101 0.284,-0.101C0.306,-0.101 0.325,-0.104 0.34,-0.11C0.355,-0.115 0.369,-0.122 0.381,-0.13L0.411,-0.031Z" style="fill-rule:nonzero;"/>
                </g>
                <g transform="matrix(18.8923,0,0,18.8923,826.696,313.015)">
                    <path d="M0.417,-0.385L0.278,-0.385L0.278,-0L0.144,-0L0.144,-0.385L0.001,-0.385L0.001,-0.5L0.417,-0.5L0.417,-0.385Z" style="fill-rule:nonzero;"/>
                </g>
            </g>
            <g transform="matrix(0.45933,0,0,0.381649,445.914,831.177)">
                <path d="M267,834C219.614,850.466 154.205,850.989 69,834C117.314,902.959 118.219,972.613 69,1043C140.796,1068.39 206.859,1068.67 267,1043C311.171,973.333 311.998,903.667 267,834Z" style="fill:rgb(248,194,255);stroke:black;stroke-width:8.71px;"/>
            </g>
            <g transform="matrix(0.45933,0,0,0.381649,769.417,836.993)">
                <path d="M267,834C239.199,847.428 196.445,877.171 168.676,851.656C146.119,830.929 112.313,826.384 69,834C115.816,873.839 142.735,919.644 105.576,938.5C63.934,959.63 85.873,1007 69,1043C105.413,1028.71 162.488,993.517 188.783,1013.75C213.98,1033.14 231.347,1043.38 267,1043C306.614,1042.58 259.378,1010.97 264.064,986.148C268.887,960.602 293.848,944.657 276.491,923.26C254.546,896.209 289.499,868.833 267,834Z" style="fill:rgb(248,194,255);stroke:black;stroke-width:8.71px;"/>
            </g>
            <g transform="matrix(0.866025,0.415441,-0.5,0.719565,-15.2527,177.095)">
                <g transform="matrix(0.866025,-0.5,0.5,0.866025,612.825,880.939)">
                    <path d="M69.123,68.472L49.169,65.856L59.048,83.388L69.123,68.472Z"/>
                    <path d="M61.102,73.915C79.204,86.141 111.519,107.967 111.519,107.967" style="fill:none;stroke:black;stroke-width:6px;stroke-linecap:butt;stroke-dasharray:6,6;"/>
                </g>
            </g>
            <g transform="matrix(0.866025,0.415441,-0.5,0.719565,58.7157,178.203)">
                <g transform="matrix(0.866025,-0.5,0.5,0.866025,548.1,916.768)">
                    <path d="M234.937,83.388L244.816,65.856L224.862,68.472L234.937,83.388Z"/>
                    <path d="M232.883,73.915C214.782,86.141 182.466,107.967 182.466,107.967" style="fill:none;stroke:black;stroke-width:6px;stroke-linecap:butt;stroke-dasharray:6,6;"/>
                </g>
            </g>
            <g transform="matrix(1,0,0,0.830882,-10,46.0882)">
                <g transform="matrix(1,-0,-0,1,85,1227)">
                    <path d="M53.234,226.368L49.169,246.078L67.376,237.504L53.234,226.368Z"/>
                    <path d="M58.078,234.764C68.136,221.991 83.116,202.967 83.116,202.967" style="fill:none;stroke:black;stroke-width:6px;stroke-linecap:butt;stroke-dasharray:6,6;"/>
                </g>
            </g>
            <g transform="matrix(1,0,0,0.830882,-10,46.0882)">
                <g transform="matrix(1,-0,-0,1,85,1227)">
                    <path d="M226.714,237.286L244.816,246.078L240.988,226.321L226.714,237.286Z"/>
                    <path d="M236.044,234.658C226.464,222.188 212.466,203.967 212.466,203.967" style="fill:none;stroke:black;stroke-width:6px;stroke-linecap:butt;stroke-dasharray:6,6;"/>
                </g>
            </g>
            <g transform="matrix(1,0,0,0.830882,10,46.0882)">
                <g transform="matrix(1,-0,-0,1,65,1227)">
                    <path d="M442.412,75.483L458.081,62.856L458.782,82.968L442.412,75.483Z"/>
                    <path d="M449.036,106.656C445.684,97.119 448.007,86.319 452.094,75.952" style="fill:none;stroke:black;stroke-width:6px;stroke-linecap:butt;stroke-dasharray:6,6;"/>
                </g>
            </g>
            <g transform="matrix(1,0,0,0.830882,10,46.0882)">
                <g transform="matrix(1,-0,-0,1,65,1227)">
                    <path d="M455.993,239.251L438.431,249.078L441.107,229.132L455.993,239.251Z"/>
                    <path d="M452.756,205.735C453.002,217.927 450.693,228.564 446.526,237.169" style="fill:none;stroke:black;stroke-width:6px;stroke-linecap:butt;stroke-dasharray:6,6;"/>
                </g>
            </g>
            <g transform="matrix(1,0,0,0.830882,10,46.0882)">
                <g transform="matrix(1,-0,-0,1,65,1227)">
                    <path d="M373.017,168.864L357.568,155.967L377.155,151.346L373.017,168.864Z"/>
                    <path d="M419.408,155.967C419.408,155.967 406.807,166.059 371.582,159.277" style="fill:none;stroke:black;stroke-width:6px;stroke-linecap:butt;stroke-dasharray:6,6;"/>
                </g>
            </g>
            <g transform="matrix(1,0,0,0.830882,10,46.0882)">
                <g transform="matrix(1,-0,-0,1,65,1227)">
                    <path d="M548.327,144.697L559.216,161.621L539.143,160.177L548.327,144.697Z"/>
                    <path d="M508.915,148.744C508.915,148.744 526.181,144.644 546.831,154.274" style="fill:none;stroke:black;stroke-width:6px;stroke-linecap:butt;stroke-dasharray:6,6;"/>
                </g>
            </g>
            <g transform="matrix(1,0,0,0.830882,30,46.0882)">
                <g transform="matrix(1,-0,-0,1,45,1227)">
                    <path d="M686.602,86.193L678,68L697.716,72.034L686.602,86.193Z"/>
                    <path d="M720,100.967C720,100.967 701.767,86.655 689.327,76.891" style="fill:none;stroke:black;stroke-width:6px;stroke-linecap:butt;stroke-dasharray:6,6;"/>
                </g>
            </g>
            <g transform="matrix(1,0,0,0.830882,30,46.0882)">
                <g transform="matrix(1,-0,-0,1,45,1227)">
                    <path d="M844.435,77.715L864,73L856.033,91.48L844.435,77.715Z"/>
                    <path d="M824.384,106.376C824.384,106.376 841.265,92.155 852.987,82.278" style="fill:none;stroke:black;stroke-width:6px;stroke-linecap:butt;stroke-dasharray:6,6;"/>
                </g>
            </g>
            <g transform="matrix(1,0,0,0.830882,54.222,66.0294)">
                <g transform="matrix(1,-0,-0,1,20.778,1203)">
                    <path d="M773.372,103.521L783.272,86L791.349,104.433L773.372,103.521Z"/>
                    <path d="M797.217,136.376C797.217,136.376 785.082,117.827 782.543,100.382" style="fill:none;stroke:black;stroke-width:6px;stroke-linecap:butt;stroke-dasharray:6,6;"/>
                </g>
            </g>
            <g transform="matrix(1,0,0,0.830882,30,46.0882)">
                <g transform="matrix(1,-0,-0,1,45,1227)">
                    <path d="M697.702,237.897L678,242L686.539,223.777L697.702,237.897Z"/>
                    <path d="M726.111,203.967C726.111,203.967 703.517,221.827 689.296,233.07" style="fill:none;stroke:black;stroke-width:6px;stroke-linecap:butt;stroke-dasharray:6,6;"/>
                </g>
            </g>
            <g transform="matrix(1,0,0,0.830882,30,46.0882)">
                <g transform="matrix(1,-0,-0,1,45,1227)">
                    <path d="M857.248,223.042L864,242L844.782,236.026L857.248,223.042Z"/>
                    <path d="M824.384,203.967C824.384,203.967 841.875,220.758 853.612,232.027" style="fill:none;stroke:black;stroke-width:6px;stroke-linecap:butt;stroke-dasharray:6,6;"/>
                </g>
            </g>
            <g transform="matrix(1,0,0,0.830882,49.9814,45.999)">
                <g transform="matrix(1,-0,-0,1,25.0186,1227.11)">
                    <path d="M715.584,156.646L697.981,146.893L716.346,138.662L715.584,156.646Z"/>
                    <path d="M757.24,161.001C757.24,161.001 741.946,150.211 712.369,147.502" style="fill:none;stroke:black;stroke-width:6px;stroke-linecap:butt;stroke-dasharray:6,6;"/>
                </g>
            </g>
            <g transform="matrix(1,0,0,0.830882,5.83288,43.9584)">
                <g transform="matrix(1,-0,-0,1,69.1671,1229.56)">
                    <path d="M830.877,162.813L848.551,172.437L830.248,180.802L830.877,162.813Z"/>
                    <path d="M797.217,161.001C797.217,161.001 806.427,169.72 834.16,171.934" style="fill:none;stroke:black;stroke-width:6px;stroke-linecap:butt;stroke-dasharray:6,6;"/>
                </g>
            </g>
            <g transform="matrix(1,0,0,0.830882,33.3525,33.3913)">
                <g transform="matrix(1,-0,-0,1,41.6475,1242.28)">
                    <path d="M791.842,222.411L775.247,233.796L776.096,213.69L791.842,222.411Z"/>
                    <path d="M782.08,172.44C782.08,172.44 789.739,199.602 782.225,221.2" style="fill:none;stroke:black;stroke-width:6px;stroke-linecap:butt;stroke-dasharray:6,6;"/>
                </g>
            </g>
            <g transform="matrix(1,0,0,0.830882,196,45.2574)">
                <g transform="matrix(28,0,0,28,-49.446,1528.53)">
                    <path d="M0.383,-0.221L0.157,-0.221L0.157,-0L0.077,-0L0.077,-0.5L0.157,-0.5L0.157,-0.291L0.383,-0.291L0.383,-0.5L0.463,-0.5L0.463,-0L0.383,-0L0.383,-0.221Z" style="fill-rule:nonzero;"/>
                </g>
                <g transform="matrix(28,0,0,28,-34.326,1528.53)">
                    <path d="M0.442,-0.04C0.422,-0.024 0.397,-0.011 0.367,-0.002C0.336,0.007 0.304,0.012 0.27,0.012C0.232,0.012 0.199,0.006 0.171,-0.007C0.143,-0.019 0.12,-0.037 0.102,-0.06C0.084,-0.083 0.071,-0.11 0.062,-0.142C0.053,-0.174 0.049,-0.21 0.049,-0.25C0.049,-0.335 0.068,-0.4 0.106,-0.445C0.144,-0.49 0.198,-0.512 0.269,-0.512C0.292,-0.512 0.314,-0.51 0.337,-0.505C0.36,-0.5 0.38,-0.49 0.398,-0.476C0.416,-0.462 0.431,-0.442 0.442,-0.417C0.453,-0.391 0.459,-0.357 0.459,-0.315C0.459,-0.293 0.457,-0.269 0.453,-0.242L0.132,-0.242C0.132,-0.213 0.135,-0.187 0.141,-0.164C0.147,-0.141 0.156,-0.122 0.169,-0.107C0.182,-0.091 0.198,-0.079 0.219,-0.071C0.239,-0.062 0.264,-0.058 0.293,-0.058C0.316,-0.058 0.338,-0.062 0.361,-0.07C0.384,-0.078 0.401,-0.087 0.412,-0.098L0.442,-0.04ZM0.27,-0.442C0.231,-0.442 0.199,-0.432 0.176,-0.411C0.152,-0.39 0.138,-0.355 0.133,-0.305L0.381,-0.305C0.381,-0.356 0.371,-0.391 0.352,-0.412C0.333,-0.432 0.305,-0.442 0.27,-0.442Z" style="fill-rule:nonzero;"/>
                </g>
                <g transform="matrix(28,0,0,28,-20.102,1528.53)">
                    <path d="M0.049,-0.25C0.049,-0.335 0.068,-0.4 0.106,-0.445C0.143,-0.49 0.197,-0.512 0.268,-0.512C0.305,-0.512 0.338,-0.506 0.366,-0.494C0.393,-0.481 0.416,-0.464 0.434,-0.441C0.452,-0.418 0.465,-0.39 0.474,-0.358C0.483,-0.325 0.487,-0.289 0.487,-0.25C0.487,-0.165 0.468,-0.1 0.431,-0.056C0.393,-0.011 0.339,0.012 0.268,0.012C0.231,0.012 0.198,0.006 0.171,-0.007C0.143,-0.019 0.12,-0.037 0.102,-0.06C0.084,-0.083 0.071,-0.11 0.062,-0.143C0.053,-0.175 0.049,-0.211 0.049,-0.25ZM0.132,-0.25C0.132,-0.225 0.135,-0.2 0.14,-0.177C0.145,-0.154 0.152,-0.133 0.163,-0.116C0.174,-0.099 0.188,-0.085 0.205,-0.074C0.222,-0.063 0.243,-0.058 0.268,-0.058C0.359,-0.057 0.404,-0.121 0.404,-0.25C0.404,-0.276 0.402,-0.301 0.397,-0.324C0.392,-0.347 0.384,-0.368 0.373,-0.385C0.362,-0.402 0.348,-0.416 0.331,-0.427C0.314,-0.437 0.293,-0.442 0.268,-0.442C0.177,-0.443 0.132,-0.379 0.132,-0.25Z" style="fill-rule:nonzero;"/>
                </g>
                <g transform="matrix(28,0,0,28,-5.09396,1528.53)">
                    <path d="M0.123,-0.411C0.145,-0.443 0.169,-0.466 0.196,-0.479C0.223,-0.492 0.256,-0.498 0.296,-0.498C0.357,-0.498 0.405,-0.478 0.438,-0.438C0.47,-0.398 0.487,-0.339 0.487,-0.261C0.487,-0.171 0.468,-0.103 0.43,-0.057C0.391,-0.011 0.338,0.012 0.269,0.012C0.196,0.012 0.141,-0.013 0.104,-0.064C0.067,-0.115 0.049,-0.194 0.049,-0.303C0.049,-0.36 0.052,-0.409 0.058,-0.45C0.063,-0.491 0.072,-0.525 0.083,-0.553C0.094,-0.581 0.107,-0.603 0.123,-0.62C0.138,-0.637 0.156,-0.65 0.176,-0.66C0.195,-0.669 0.217,-0.676 0.24,-0.68C0.263,-0.684 0.288,-0.687 0.315,-0.69C0.35,-0.693 0.377,-0.697 0.397,-0.702C0.416,-0.706 0.432,-0.714 0.444,-0.725L0.453,-0.653C0.446,-0.647 0.439,-0.642 0.431,-0.638C0.423,-0.634 0.413,-0.631 0.402,-0.628C0.391,-0.625 0.377,-0.623 0.362,-0.621C0.346,-0.619 0.328,-0.617 0.307,-0.616C0.278,-0.614 0.253,-0.611 0.232,-0.606C0.21,-0.6 0.191,-0.591 0.176,-0.577C0.16,-0.562 0.148,-0.542 0.139,-0.516C0.13,-0.489 0.123,-0.454 0.12,-0.411L0.123,-0.411ZM0.132,-0.249C0.132,-0.224 0.135,-0.199 0.14,-0.176C0.145,-0.153 0.154,-0.132 0.165,-0.115C0.175,-0.097 0.19,-0.083 0.207,-0.073C0.224,-0.063 0.245,-0.058 0.268,-0.058C0.314,-0.058 0.348,-0.075 0.371,-0.108C0.393,-0.14 0.404,-0.189 0.404,-0.254C0.404,-0.279 0.402,-0.303 0.397,-0.324C0.392,-0.345 0.385,-0.364 0.375,-0.38C0.365,-0.395 0.352,-0.407 0.337,-0.416C0.322,-0.424 0.303,-0.428 0.282,-0.428C0.23,-0.429 0.192,-0.413 0.168,-0.383C0.144,-0.352 0.132,-0.307 0.132,-0.249Z" style="fill-rule:nonzero;"/>
                </g>
                <g transform="matrix(28,0,0,28,9.91404,1528.53)">
                    <path d="M0.208,-0.256L0.04,-0.5L0.138,-0.5L0.233,-0.362L0.261,-0.305L0.29,-0.362L0.387,-0.5L0.477,-0.5L0.308,-0.26L0.487,-0L0.392,-0L0.286,-0.152L0.256,-0.212L0.225,-0.152L0.117,-0L0.028,-0L0.208,-0.256Z" style="fill-rule:nonzero;"/>
                </g>
                <g transform="matrix(28,0,0,28,24.334,1528.53)">
                    <path d="M0.049,-0.25C0.049,-0.335 0.068,-0.4 0.106,-0.445C0.143,-0.49 0.197,-0.512 0.268,-0.512C0.305,-0.512 0.338,-0.506 0.366,-0.494C0.393,-0.481 0.416,-0.464 0.434,-0.441C0.452,-0.418 0.465,-0.39 0.474,-0.358C0.483,-0.325 0.487,-0.289 0.487,-0.25C0.487,-0.165 0.468,-0.1 0.431,-0.056C0.393,-0.011 0.339,0.012 0.268,0.012C0.231,0.012 0.198,0.006 0.171,-0.007C0.143,-0.019 0.12,-0.037 0.102,-0.06C0.084,-0.083 0.071,-0.11 0.062,-0.143C0.053,-0.175 0.049,-0.211 0.049,-0.25ZM0.132,-0.25C0.132,-0.225 0.135,-0.2 0.14,-0.177C0.145,-0.154 0.152,-0.133 0.163,-0.116C0.174,-0.099 0.188,-0.085 0.205,-0.074C0.222,-0.063 0.243,-0.058 0.268,-0.058C0.359,-0.057 0.404,-0.121 0.404,-0.25C0.404,-0.276 0.402,-0.301 0.397,-0.324C0.392,-0.347 0.384,-0.368 0.373,-0.385C0.362,-0.402 0.348,-0.416 0.331,-0.427C0.314,-0.437 0.293,-0.442 0.268,-0.442C0.177,-0.443 0.132,-0.379 0.132,-0.25Z" style="fill-rule:nonzero;"/>
                </g>
                <g transform="matrix(28,0,0,28,39.342,1528.53)">
                    <path d="M0.519,0.127L0.465,0.127L0.45,-0L0.074,-0L0.059,0.127L0.005,0.127L0.005,-0.07L0.064,-0.07C0.069,-0.077 0.076,-0.091 0.085,-0.11C0.094,-0.129 0.102,-0.155 0.111,-0.19C0.119,-0.224 0.126,-0.267 0.133,-0.318C0.139,-0.369 0.143,-0.429 0.144,-0.5L0.446,-0.5L0.446,-0.07L0.519,-0.07L0.519,0.127ZM0.366,-0.07L0.366,-0.43L0.216,-0.43C0.215,-0.402 0.212,-0.372 0.209,-0.339C0.206,-0.306 0.201,-0.273 0.196,-0.24C0.19,-0.207 0.183,-0.175 0.174,-0.146C0.165,-0.117 0.155,-0.091 0.144,-0.07L0.366,-0.07Z" style="fill-rule:nonzero;"/>
                </g>
                <g transform="matrix(28,0,0,28,54.49,1528.53)">
                    <path d="M0.389,-0.296L0.392,-0.358L0.389,-0.358L0.348,-0.294L0.123,-0L0.077,-0L0.077,-0.5L0.157,-0.5L0.157,-0.195L0.154,-0.136L0.158,-0.136L0.197,-0.198L0.422,-0.5L0.469,-0.5L0.469,-0L0.389,-0L0.389,-0.296Z" style="fill-rule:nonzero;"/>
                </g>
                <g transform="matrix(28,0,0,28,69.778,1528.53)">
                    <path d="M0.49,-0.297L0.496,-0.392L0.491,-0.392L0.455,-0.315L0.334,-0.119L0.306,-0.119L0.18,-0.315L0.147,-0.392L0.143,-0.392L0.151,-0.298L0.151,-0L0.077,-0L0.077,-0.5L0.156,-0.5L0.296,-0.276L0.325,-0.218L0.327,-0.218L0.357,-0.278L0.488,-0.5L0.568,-0.5L0.568,-0L0.49,-0L0.49,-0.297Z" style="fill-rule:nonzero;"/>
                </g>
                <g transform="matrix(28,0,0,28,87.838,1528.53)">
                    <path d="M0.049,-0.25C0.049,-0.335 0.068,-0.4 0.106,-0.445C0.143,-0.49 0.197,-0.512 0.268,-0.512C0.305,-0.512 0.338,-0.506 0.366,-0.494C0.393,-0.481 0.416,-0.464 0.434,-0.441C0.452,-0.418 0.465,-0.39 0.474,-0.358C0.483,-0.325 0.487,-0.289 0.487,-0.25C0.487,-0.165 0.468,-0.1 0.431,-0.056C0.393,-0.011 0.339,0.012 0.268,0.012C0.231,0.012 0.198,0.006 0.171,-0.007C0.143,-0.019 0.12,-0.037 0.102,-0.06C0.084,-0.083 0.071,-0.11 0.062,-0.143C0.053,-0.175 0.049,-0.211 0.049,-0.25ZM0.132,-0.25C0.132,-0.225 0.135,-0.2 0.14,-0.177C0.145,-0.154 0.152,-0.133 0.163,-0.116C0.174,-0.099 0.188,-0.085 0.205,-0.074C0.222,-0.063 0.243,-0.058 0.268,-0.058C0.359,-0.057 0.404,-0.121 0.404,-0.25C0.404,-0.276 0.402,-0.301 0.397,-0.324C0.392,-0.347 0.384,-0.368 0.373,-0.385C0.362,-0.402 0.348,-0.416 0.331,-0.427C0.314,-0.437 0.293,-0.442 0.268,-0.442C0.177,-0.443 0.132,-0.379 0.132,-0.25Z" style="fill-rule:nonzero;"/>
                </g>
                <g transform="matrix(28,0,0,28,-109.674,1559.86)">
                    <path d="M0.524,-0.215L0.406,-0.215L0.406,-0L0.328,-0L0.328,-0.215L0.02,-0.215L0.02,-0.248L0.352,-0.711L0.406,-0.711L0.406,-0.285L0.524,-0.285L0.524,-0.215ZM0.328,-0.503L0.338,-0.585L0.335,-0.585L0.3,-0.517L0.159,-0.326L0.111,-0.277L0.181,-0.285L0.328,-0.285L0.328,-0.503Z" style="fill-rule:nonzero;"/>
                </g>
                <g transform="matrix(28,0,0,28,-94.414,1559.86)">
                    <path d="M0.04,-0.374L0.216,-0.374L0.216,-0.554L0.288,-0.554L0.288,-0.374L0.464,-0.374L0.464,-0.302L0.288,-0.302L0.288,-0.122L0.216,-0.122L0.216,-0.302L0.04,-0.302L0.04,-0.374Z" style="fill-rule:nonzero;"/>
                </g>
                <g transform="matrix(28,0,0,28,-72.798,1559.86)">
                    <path d="M0.203,-0.225L0.157,-0.225L0.157,-0L0.077,-0L0.077,-0.5L0.157,-0.5L0.157,-0.274L0.2,-0.288L0.36,-0.5L0.447,-0.5L0.292,-0.299L0.25,-0.266L0.302,-0.226L0.469,-0L0.37,-0L0.203,-0.225Z" style="fill-rule:nonzero;"/>
                </g>
                <g transform="matrix(28,0,0,28,-59.414,1559.86)">
                    <path d="M0.049,-0.25C0.049,-0.335 0.068,-0.4 0.106,-0.445C0.143,-0.49 0.197,-0.512 0.268,-0.512C0.305,-0.512 0.338,-0.506 0.366,-0.494C0.393,-0.481 0.416,-0.464 0.434,-0.441C0.452,-0.418 0.465,-0.39 0.474,-0.358C0.483,-0.325 0.487,-0.289 0.487,-0.25C0.487,-0.165 0.468,-0.1 0.431,-0.056C0.393,-0.011 0.339,0.012 0.268,0.012C0.231,0.012 0.198,0.006 0.171,-0.007C0.143,-0.019 0.12,-0.037 0.102,-0.06C0.084,-0.083 0.071,-0.11 0.062,-0.143C0.053,-0.175 0.049,-0.211 0.049,-0.25ZM0.132,-0.25C0.132,-0.225 0.135,-0.2 0.14,-0.177C0.145,-0.154 0.152,-0.133 0.163,-0.116C0.174,-0.099 0.188,-0.085 0.205,-0.074C0.222,-0.063 0.243,-0.058 0.268,-0.058C0.359,-0.057 0.404,-0.121 0.404,-0.25C0.404,-0.276 0.402,-0.301 0.397,-0.324C0.392,-0.347 0.384,-0.368 0.373,-0.385C0.362,-0.402 0.348,-0.416 0.331,-0.427C0.314,-0.437 0.293,-0.442 0.268,-0.442C0.177,-0.443 0.132,-0.379 0.132,-0.25Z" style="fill-rule:nonzero;"/>
                </g>
                <g transform="matrix(28,0,0,28,-44.406,1559.86)">
                    <path d="M0.383,-0.221L0.157,-0.221L0.157,-0L0.077,-0L0.077,-0.5L0.157,-0.5L0.157,-0.291L0.383,-0.291L0.383,-0.5L0.463,-0.5L0.463,-0L0.383,-0L0.383,-0.221Z" style="fill-rule:nonzero;"/>
                </g>
                <g transform="matrix(28,0,0,28,-29.286,1559.86)">
                    <path d="M0.395,-0.43L0.239,-0.43L0.239,-0L0.159,-0L0.159,-0.43L0.003,-0.43L0.003,-0.5L0.395,-0.5L0.395,-0.43Z" style="fill-rule:nonzero;"/>
                </g>
                <g transform="matrix(28,0,0,28,-18.17,1559.86)">
                    <path d="M0.077,-0.5L0.132,-0.5L0.147,-0.44L0.151,-0.44C0.166,-0.463 0.186,-0.481 0.211,-0.494C0.235,-0.506 0.263,-0.512 0.294,-0.512C0.361,-0.512 0.41,-0.492 0.443,-0.453C0.476,-0.414 0.492,-0.349 0.492,-0.26C0.492,-0.218 0.487,-0.18 0.476,-0.147C0.464,-0.113 0.449,-0.084 0.429,-0.061C0.409,-0.038 0.385,-0.02 0.357,-0.007C0.328,0.006 0.297,0.012 0.262,0.012C0.237,0.012 0.218,0.011 0.204,0.008C0.189,0.005 0.174,-0.001 0.157,-0.008L0.157,0.2L0.077,0.2L0.077,-0.5ZM0.279,-0.442C0.245,-0.442 0.218,-0.433 0.199,-0.416C0.179,-0.398 0.165,-0.371 0.157,-0.335L0.157,-0.087C0.169,-0.078 0.183,-0.07 0.198,-0.066C0.213,-0.061 0.234,-0.058 0.259,-0.058C0.305,-0.058 0.341,-0.075 0.369,-0.11C0.396,-0.144 0.409,-0.194 0.409,-0.261C0.409,-0.288 0.407,-0.313 0.402,-0.336C0.397,-0.358 0.39,-0.377 0.38,-0.393C0.369,-0.408 0.356,-0.42 0.34,-0.429C0.323,-0.438 0.303,-0.442 0.279,-0.442Z" style="fill-rule:nonzero;"/>
                </g>
                <g transform="matrix(28,0,0,28,-3.02196,1559.86)">
                    <path d="M0.049,-0.25C0.049,-0.335 0.068,-0.4 0.106,-0.445C0.143,-0.49 0.197,-0.512 0.268,-0.512C0.305,-0.512 0.338,-0.506 0.366,-0.494C0.393,-0.481 0.416,-0.464 0.434,-0.441C0.452,-0.418 0.465,-0.39 0.474,-0.358C0.483,-0.325 0.487,-0.289 0.487,-0.25C0.487,-0.165 0.468,-0.1 0.431,-0.056C0.393,-0.011 0.339,0.012 0.268,0.012C0.231,0.012 0.198,0.006 0.171,-0.007C0.143,-0.019 0.12,-0.037 0.102,-0.06C0.084,-0.083 0.071,-0.11 0.062,-0.143C0.053,-0.175 0.049,-0.211 0.049,-0.25ZM0.132,-0.25C0.132,-0.225 0.135,-0.2 0.14,-0.177C0.145,-0.154 0.152,-0.133 0.163,-0.116C0.174,-0.099 0.188,-0.085 0.205,-0.074C0.222,-0.063 0.243,-0.058 0.268,-0.058C0.359,-0.057 0.404,-0.121 0.404,-0.25C0.404,-0.276 0.402,-0.301 0.397,-0.324C0.392,-0.347 0.384,-0.368 0.373,-0.385C0.362,-0.402 0.348,-0.416 0.331,-0.427C0.314,-0.437 0.293,-0.442 0.268,-0.442C0.177,-0.443 0.132,-0.379 0.132,-0.25Z" style="fill-rule:nonzero;"/>
                </g>
                <g transform="matrix(28,0,0,28,11.986,1559.86)">
                    <path d="M0.346,-0.43L0.201,-0.43C0.199,-0.402 0.197,-0.372 0.195,-0.34C0.193,-0.307 0.19,-0.275 0.186,-0.243C0.182,-0.21 0.177,-0.179 0.17,-0.15C0.163,-0.12 0.155,-0.094 0.145,-0.071C0.134,-0.048 0.122,-0.03 0.107,-0.017C0.092,-0.003 0.074,0.004 0.053,0.004C0.04,0.004 0.029,0.003 0.02,0.002C0.011,0.001 0.002,-0.002 -0.005,-0.005L0.007,-0.072C0.015,-0.069 0.024,-0.068 0.033,-0.068C0.046,-0.068 0.058,-0.074 0.069,-0.085C0.08,-0.096 0.089,-0.118 0.097,-0.15C0.105,-0.181 0.112,-0.225 0.117,-0.281C0.122,-0.337 0.126,-0.41 0.128,-0.5L0.426,-0.5L0.426,-0L0.346,-0L0.346,-0.43Z" style="fill-rule:nonzero;"/>
                </g>
                <g transform="matrix(28,0,0,28,26.07,1559.86)">
                    <path d="M0.157,-0.07C0.182,-0.066 0.205,-0.064 0.228,-0.064C0.27,-0.064 0.301,-0.072 0.321,-0.089C0.341,-0.105 0.351,-0.128 0.351,-0.158C0.351,-0.185 0.341,-0.207 0.322,-0.224C0.303,-0.241 0.272,-0.25 0.231,-0.25C0.22,-0.25 0.207,-0.25 0.194,-0.249C0.181,-0.248 0.168,-0.246 0.157,-0.243L0.157,-0.07ZM0.157,-0.309C0.173,-0.312 0.188,-0.314 0.203,-0.315C0.218,-0.316 0.232,-0.316 0.245,-0.316C0.28,-0.316 0.309,-0.312 0.333,-0.305C0.357,-0.297 0.377,-0.286 0.392,-0.273C0.407,-0.26 0.417,-0.244 0.424,-0.226C0.431,-0.207 0.434,-0.188 0.434,-0.167C0.434,-0.106 0.416,-0.062 0.38,-0.035C0.343,-0.008 0.287,0.006 0.21,0.006C0.167,0.006 0.123,0.004 0.077,-0L0.077,-0.5L0.157,-0.5L0.157,-0.309Z" style="fill-rule:nonzero;"/>
                </g>
                <g transform="matrix(28,0,0,28,39.062,1559.86)">
                    <path d="M0.383,-0.221L0.157,-0.221L0.157,-0L0.077,-0L0.077,-0.5L0.157,-0.5L0.157,-0.291L0.383,-0.291L0.383,-0.5L0.463,-0.5L0.463,-0L0.383,-0L0.383,-0.221Z" style="fill-rule:nonzero;"/>
                </g>
                <g transform="matrix(28,0,0,28,54.182,1559.86)">
                    <path d="M0.157,-0.07C0.182,-0.066 0.205,-0.064 0.228,-0.064C0.27,-0.064 0.299,-0.072 0.316,-0.089C0.333,-0.105 0.341,-0.128 0.341,-0.158C0.341,-0.185 0.333,-0.207 0.317,-0.224C0.3,-0.241 0.272,-0.25 0.231,-0.25C0.22,-0.25 0.207,-0.25 0.194,-0.249C0.181,-0.248 0.168,-0.246 0.157,-0.243L0.157,-0.07ZM0.157,-0.309C0.173,-0.312 0.188,-0.314 0.203,-0.315C0.218,-0.316 0.232,-0.316 0.245,-0.316C0.279,-0.316 0.308,-0.312 0.331,-0.305C0.354,-0.297 0.372,-0.286 0.386,-0.273C0.4,-0.26 0.41,-0.244 0.416,-0.226C0.421,-0.207 0.424,-0.188 0.424,-0.167C0.424,-0.106 0.407,-0.062 0.374,-0.035C0.34,-0.008 0.285,0.006 0.21,0.006C0.167,0.006 0.123,0.004 0.077,-0L0.077,-0.5L0.157,-0.5L0.157,-0.309ZM0.503,-0.5L0.583,-0.5L0.583,-0L0.503,-0L0.503,-0.5Z" style="fill-rule:nonzero;"/>
                </g>
                <g transform="matrix(28,0,0,28,72.662,1559.86)">
                    <path d="M0.208,-0.256L0.04,-0.5L0.138,-0.5L0.233,-0.362L0.261,-0.305L0.29,-0.362L0.387,-0.5L0.477,-0.5L0.308,-0.26L0.487,-0L0.392,-0L0.286,-0.152L0.256,-0.212L0.225,-0.152L0.117,-0L0.028,-0L0.208,-0.256Z" style="fill-rule:nonzero;"/>
                </g>
                <g transform="matrix(28,0,0,28,94.558,1559.86)">
                    <path d="M0.395,-0.43L0.239,-0.43L0.239,-0L0.159,-0L0.159,-0.43L0.003,-0.43L0.003,-0.5L0.395,-0.5L0.395,-0.43Z" style="fill-rule:nonzero;"/>
                </g>
                <g transform="matrix(28,0,0,28,105.674,1559.86)">
                    <path d="M0.049,-0.25C0.049,-0.335 0.068,-0.4 0.106,-0.445C0.143,-0.49 0.197,-0.512 0.268,-0.512C0.305,-0.512 0.338,-0.506 0.366,-0.494C0.393,-0.481 0.416,-0.464 0.434,-0.441C0.452,-0.418 0.465,-0.39 0.474,-0.358C0.483,-0.325 0.487,-0.289 0.487,-0.25C0.487,-0.165 0.468,-0.1 0.431,-0.056C0.393,-0.011 0.339,0.012 0.268,0.012C0.231,0.012 0.198,0.006 0.171,-0.007C0.143,-0.019 0.12,-0.037 0.102,-0.06C0.084,-0.083 0.071,-0.11 0.062,-0.143C0.053,-0.175 0.049,-0.211 0.049,-0.25ZM0.132,-0.25C0.132,-0.225 0.135,-0.2 0.14,-0.177C0.145,-0.154 0.152,-0.133 0.163,-0.116C0.174,-0.099 0.188,-0.085 0.205,-0.074C0.222,-0.063 0.243,-0.058 0.268,-0.058C0.359,-0.057 0.404,-0.121 0.404,-0.25C0.404,-0.276 0.402,-0.301 0.397,-0.324C0.392,-0.347 0.384,-0.368 0.373,-0.385C0.362,-0.402 0.348,-0.416 0.331,-0.427C0.314,-0.437 0.293,-0.442 0.268,-0.442C0.177,-0.443 0.132,-0.379 0.132,-0.25Z" style="fill-rule:nonzero;"/>
                </g>
                <g transform="matrix(28,0,0,28,120.682,1559.86)">
                    <path d="M0.129,-0.5L0.129,-0.364C0.129,-0.346 0.13,-0.33 0.132,-0.316C0.134,-0.301 0.138,-0.289 0.144,-0.279C0.15,-0.268 0.159,-0.26 0.17,-0.255C0.181,-0.249 0.196,-0.246 0.215,-0.246C0.245,-0.246 0.27,-0.249 0.289,-0.256C0.308,-0.263 0.323,-0.27 0.333,-0.278L0.333,-0.5L0.413,-0.5L0.413,-0L0.333,-0L0.333,-0.21C0.322,-0.203 0.307,-0.196 0.286,-0.188C0.265,-0.18 0.236,-0.176 0.199,-0.176C0.174,-0.176 0.153,-0.179 0.134,-0.184C0.115,-0.189 0.1,-0.199 0.087,-0.212C0.074,-0.225 0.065,-0.243 0.059,-0.265C0.052,-0.287 0.049,-0.315 0.049,-0.348L0.049,-0.5L0.129,-0.5Z" style="fill-rule:nonzero;"/>
                </g>
                <g transform="matrix(28,0,0,28,134.402,1559.86)">
                    <path d="M0.203,-0.225L0.157,-0.225L0.157,-0L0.077,-0L0.077,-0.5L0.157,-0.5L0.157,-0.274L0.2,-0.288L0.36,-0.5L0.447,-0.5L0.292,-0.299L0.25,-0.266L0.302,-0.226L0.469,-0L0.37,-0L0.203,-0.225Z" style="fill-rule:nonzero;"/>
                </g>
                <g transform="matrix(28,0,0,28,147.786,1559.86)">
                    <path d="M0.389,-0.296L0.392,-0.358L0.389,-0.358L0.348,-0.294L0.123,-0L0.077,-0L0.077,-0.5L0.157,-0.5L0.157,-0.195L0.154,-0.136L0.158,-0.136L0.197,-0.198L0.422,-0.5L0.469,-0.5L0.469,-0L0.389,-0L0.389,-0.296Z" style="fill-rule:nonzero;"/>
                </g>
            </g>
            <g transform="matrix(1,0,0,0.830882,504.12,45.2574)">
                <g transform="matrix(28,0,0,28,-49.446,1528.53)">
                    <path d="M0.383,-0.221L0.157,-0.221L0.157,-0L0.077,-0L0.077,-0.5L0.157,-0.5L0.157,-0.291L0.383,-0.291L0.383,-0.5L0.463,-0.5L0.463,-0L0.383,-0L0.383,-0.221Z" style="fill-rule:nonzero;"/>
                </g>
                <g transform="matrix(28,0,0,28,-34.326,1528.53)">
                    <path d="M0.442,-0.04C0.422,-0.024 0.397,-0.011 0.367,-0.002C0.336,0.007 0.304,0.012 0.27,0.012C0.232,0.012 0.199,0.006 0.171,-0.007C0.143,-0.019 0.12,-0.037 0.102,-0.06C0.084,-0.083 0.071,-0.11 0.062,-0.142C0.053,-0.174 0.049,-0.21 0.049,-0.25C0.049,-0.335 0.068,-0.4 0.106,-0.445C0.144,-0.49 0.198,-0.512 0.269,-0.512C0.292,-0.512 0.314,-0.51 0.337,-0.505C0.36,-0.5 0.38,-0.49 0.398,-0.476C0.416,-0.462 0.431,-0.442 0.442,-0.417C0.453,-0.391 0.459,-0.357 0.459,-0.315C0.459,-0.293 0.457,-0.269 0.453,-0.242L0.132,-0.242C0.132,-0.213 0.135,-0.187 0.141,-0.164C0.147,-0.141 0.156,-0.122 0.169,-0.107C0.182,-0.091 0.198,-0.079 0.219,-0.071C0.239,-0.062 0.264,-0.058 0.293,-0.058C0.316,-0.058 0.338,-0.062 0.361,-0.07C0.384,-0.078 0.401,-0.087 0.412,-0.098L0.442,-0.04ZM0.27,-0.442C0.231,-0.442 0.199,-0.432 0.176,-0.411C0.152,-0.39 0.138,-0.355 0.133,-0.305L0.381,-0.305C0.381,-0.356 0.371,-0.391 0.352,-0.412C0.333,-0.432 0.305,-0.442 0.27,-0.442Z" style="fill-rule:nonzero;"/>
                </g>
                <g transform="matrix(28,0,0,28,-20.102,1528.53)">
                    <path d="M0.049,-0.25C0.049,-0.335 0.068,-0.4 0.106,-0.445C0.143,-0.49 0.197,-0.512 0.268,-0.512C0.305,-0.512 0.338,-0.506 0.366,-0.494C0.393,-0.481 0.416,-0.464 0.434,-0.441C0.452,-0.418 0.465,-0.39 0.474,-0.358C0.483,-0.325 0.487,-0.289 0.487,-0.25C0.487,-0.165 0.468,-0.1 0.431,-0.056C0.393,-0.011 0.339,0.012 0.268,0.012C0.231,0.012 0.198,0.006 0.171,-0.007C0.143,-0.019 0.12,-0.037 0.102,-0.06C0.084,-0.083 0.071,-0.11 0.062,-0.143C0.053,-0.175 0.049,-0.211 0.049,-0.25ZM0.132,-0.25C0.132,-0.225 0.135,-0.2 0.14,-0.177C0.145,-0.154 0.152,-0.133 0.163,-0.116C0.174,-0.099 0.188,-0.085 0.205,-0.074C0.222,-0.063 0.243,-0.058 0.268,-0.058C0.359,-0.057 0.404,-0.121 0.404,-0.25C0.404,-0.276 0.402,-0.301 0.397,-0.324C0.392,-0.347 0.384,-0.368 0.373,-0.385C0.362,-0.402 0.348,-0.416 0.331,-0.427C0.314,-0.437 0.293,-0.442 0.268,-0.442C0.177,-0.443 0.132,-0.379 0.132,-0.25Z" style="fill-rule:nonzero;"/>
                </g>
                <g transform="matrix(28,0,0,28,-5.09396,1528.53)">
                    <path d="M0.123,-0.411C0.145,-0.443 0.169,-0.466 0.196,-0.479C0.223,-0.492 0.256,-0.498 0.296,-0.498C0.357,-0.498 0.405,-0.478 0.438,-0.438C0.47,-0.398 0.487,-0.339 0.487,-0.261C0.487,-0.171 0.468,-0.103 0.43,-0.057C0.391,-0.011 0.338,0.012 0.269,0.012C0.196,0.012 0.141,-0.013 0.104,-0.064C0.067,-0.115 0.049,-0.194 0.049,-0.303C0.049,-0.36 0.052,-0.409 0.058,-0.45C0.063,-0.491 0.072,-0.525 0.083,-0.553C0.094,-0.581 0.107,-0.603 0.123,-0.62C0.138,-0.637 0.156,-0.65 0.176,-0.66C0.195,-0.669 0.217,-0.676 0.24,-0.68C0.263,-0.684 0.288,-0.687 0.315,-0.69C0.35,-0.693 0.377,-0.697 0.397,-0.702C0.416,-0.706 0.432,-0.714 0.444,-0.725L0.453,-0.653C0.446,-0.647 0.439,-0.642 0.431,-0.638C0.423,-0.634 0.413,-0.631 0.402,-0.628C0.391,-0.625 0.377,-0.623 0.362,-0.621C0.346,-0.619 0.328,-0.617 0.307,-0.616C0.278,-0.614 0.253,-0.611 0.232,-0.606C0.21,-0.6 0.191,-0.591 0.176,-0.577C0.16,-0.562 0.148,-0.542 0.139,-0.516C0.13,-0.489 0.123,-0.454 0.12,-0.411L0.123,-0.411ZM0.132,-0.249C0.132,-0.224 0.135,-0.199 0.14,-0.176C0.145,-0.153 0.154,-0.132 0.165,-0.115C0.175,-0.097 0.19,-0.083 0.207,-0.073C0.224,-0.063 0.245,-0.058 0.268,-0.058C0.314,-0.058 0.348,-0.075 0.371,-0.108C0.393,-0.14 0.404,-0.189 0.404,-0.254C0.404,-0.279 0.402,-0.303 0.397,-0.324C0.392,-0.345 0.385,-0.364 0.375,-0.38C0.365,-0.395 0.352,-0.407 0.337,-0.416C0.322,-0.424 0.303,-0.428 0.282,-0.428C0.23,-0.429 0.192,-0.413 0.168,-0.383C0.144,-0.352 0.132,-0.307 0.132,-0.249Z" style="fill-rule:nonzero;"/>
                </g>
                <g transform="matrix(28,0,0,28,9.91404,1528.53)">
                    <path d="M0.208,-0.256L0.04,-0.5L0.138,-0.5L0.233,-0.362L0.261,-0.305L0.29,-0.362L0.387,-0.5L0.477,-0.5L0.308,-0.26L0.487,-0L0.392,-0L0.286,-0.152L0.256,-0.212L0.225,-0.152L0.117,-0L0.028,-0L0.208,-0.256Z" style="fill-rule:nonzero;"/>
                </g>
                <g transform="matrix(28,0,0,28,24.334,1528.53)">
                    <path d="M0.049,-0.25C0.049,-0.335 0.068,-0.4 0.106,-0.445C0.143,-0.49 0.197,-0.512 0.268,-0.512C0.305,-0.512 0.338,-0.506 0.366,-0.494C0.393,-0.481 0.416,-0.464 0.434,-0.441C0.452,-0.418 0.465,-0.39 0.474,-0.358C0.483,-0.325 0.487,-0.289 0.487,-0.25C0.487,-0.165 0.468,-0.1 0.431,-0.056C0.393,-0.011 0.339,0.012 0.268,0.012C0.231,0.012 0.198,0.006 0.171,-0.007C0.143,-0.019 0.12,-0.037 0.102,-0.06C0.084,-0.083 0.071,-0.11 0.062,-0.143C0.053,-0.175 0.049,-0.211 0.049,-0.25ZM0.132,-0.25C0.132,-0.225 0.135,-0.2 0.14,-0.177C0.145,-0.154 0.152,-0.133 0.163,-0.116C0.174,-0.099 0.188,-0.085 0.205,-0.074C0.222,-0.063 0.243,-0.058 0.268,-0.058C0.359,-0.057 0.404,-0.121 0.404,-0.25C0.404,-0.276 0.402,-0.301 0.397,-0.324C0.392,-0.347 0.384,-0.368 0.373,-0.385C0.362,-0.402 0.348,-0.416 0.331,-0.427C0.314,-0.437 0.293,-0.442 0.268,-0.442C0.177,-0.443 0.132,-0.379 0.132,-0.25Z" style="fill-rule:nonzero;"/>
                </g>
                <g transform="matrix(28,0,0,28,39.342,1528.53)">
                    <path d="M0.519,0.127L0.465,0.127L0.45,-0L0.074,-0L0.059,0.127L0.005,0.127L0.005,-0.07L0.064,-0.07C0.069,-0.077 0.076,-0.091 0.085,-0.11C0.094,-0.129 0.102,-0.155 0.111,-0.19C0.119,-0.224 0.126,-0.267 0.133,-0.318C0.139,-0.369 0.143,-0.429 0.144,-0.5L0.446,-0.5L0.446,-0.07L0.519,-0.07L0.519,0.127ZM0.366,-0.07L0.366,-0.43L0.216,-0.43C0.215,-0.402 0.212,-0.372 0.209,-0.339C0.206,-0.306 0.201,-0.273 0.196,-0.24C0.19,-0.207 0.183,-0.175 0.174,-0.146C0.165,-0.117 0.155,-0.091 0.144,-0.07L0.366,-0.07Z" style="fill-rule:nonzero;"/>
                </g>
                <g transform="matrix(28,0,0,28,54.49,1528.53)">
                    <path d="M0.389,-0.296L0.392,-0.358L0.389,-0.358L0.348,-0.294L0.123,-0L0.077,-0L0.077,-0.5L0.157,-0.5L0.157,-0.195L0.154,-0.136L0.158,-0.136L0.197,-0.198L0.422,-0.5L0.469,-0.5L0.469,-0L0.389,-0L0.389,-0.296Z" style="fill-rule:nonzero;"/>
                </g>
                <g transform="matrix(28,0,0,28,69.778,1528.53)">
                    <path d="M0.49,-0.297L0.496,-0.392L0.491,-0.392L0.455,-0.315L0.334,-0.119L0.306,-0.119L0.18,-0.315L0.147,-0.392L0.143,-0.392L0.151,-0.298L0.151,-0L0.077,-0L0.077,-0.5L0.156,-0.5L0.296,-0.276L0.325,-0.218L0.327,-0.218L0.357,-0.278L0.488,-0.5L0.568,-0.5L0.568,-0L0.49,-0L0.49,-0.297Z" style="fill-rule:nonzero;"/>
                </g>
                <g transform="matrix(28,0,0,28,87.838,1528.53)">
                    <path d="M0.049,-0.25C0.049,-0.335 0.068,-0.4 0.106,-0.445C0.143,-0.49 0.197,-0.512 0.268,-0.512C0.305,-0.512 0.338,-0.506 0.366,-0.494C0.393,-0.481 0.416,-0.464 0.434,-0.441C0.452,-0.418 0.465,-0.39 0.474,-0.358C0.483,-0.325 0.487,-0.289 0.487,-0.25C0.487,-0.165 0.468,-0.1 0.431,-0.056C0.393,-0.011 0.339,0.012 0.268,0.012C0.231,0.012 0.198,0.006 0.171,-0.007C0.143,-0.019 0.12,-0.037 0.102,-0.06C0.084,-0.083 0.071,-0.11 0.062,-0.143C0.053,-0.175 0.049,-0.211 0.049,-0.25ZM0.132,-0.25C0.132,-0.225 0.135,-0.2 0.14,-0.177C0.145,-0.154 0.152,-0.133 0.163,-0.116C0.174,-0.099 0.188,-0.085 0.205,-0.074C0.222,-0.063 0.243,-0.058 0.268,-0.058C0.359,-0.057 0.404,-0.121 0.404,-0.25C0.404,-0.276 0.402,-0.301 0.397,-0.324C0.392,-0.347 0.384,-0.368 0.373,-0.385C0.362,-0.402 0.348,-0.416 0.331,-0.427C0.314,-0.437 0.293,-0.442 0.268,-0.442C0.177,-0.443 0.132,-0.379 0.132,-0.25Z" style="fill-rule:nonzero;"/>
                </g>
                <g transform="matrix(28,0,0,28,-109.142,1559.86)">
                    <path d="M0.492,-0.211C0.492,-0.18 0.487,-0.152 0.478,-0.125C0.469,-0.097 0.455,-0.074 0.437,-0.054C0.419,-0.033 0.397,-0.017 0.37,-0.006C0.343,0.006 0.313,0.012 0.279,0.012C0.246,0.012 0.216,0.007 0.189,-0.004C0.162,-0.015 0.139,-0.031 0.12,-0.052C0.101,-0.073 0.086,-0.098 0.076,-0.129C0.065,-0.16 0.06,-0.195 0.06,-0.235C0.06,-0.301 0.069,-0.362 0.086,-0.418C0.102,-0.473 0.126,-0.522 0.156,-0.563C0.186,-0.604 0.222,-0.638 0.263,-0.664C0.304,-0.689 0.348,-0.705 0.396,-0.712L0.413,-0.648C0.376,-0.641 0.342,-0.629 0.311,-0.61C0.28,-0.591 0.254,-0.568 0.231,-0.541C0.208,-0.514 0.189,-0.483 0.174,-0.449C0.159,-0.415 0.149,-0.38 0.144,-0.344C0.155,-0.362 0.173,-0.379 0.198,-0.394C0.223,-0.409 0.254,-0.416 0.291,-0.416C0.354,-0.416 0.403,-0.398 0.439,-0.362C0.474,-0.326 0.492,-0.276 0.492,-0.211ZM0.409,-0.203C0.409,-0.25 0.398,-0.286 0.376,-0.31C0.354,-0.334 0.32,-0.346 0.274,-0.346C0.241,-0.346 0.213,-0.338 0.19,-0.322C0.166,-0.306 0.149,-0.288 0.14,-0.268C0.139,-0.259 0.138,-0.251 0.138,-0.245L0.138,-0.225C0.138,-0.204 0.141,-0.184 0.147,-0.164C0.152,-0.144 0.161,-0.126 0.173,-0.111C0.185,-0.095 0.2,-0.082 0.218,-0.073C0.235,-0.063 0.256,-0.058 0.28,-0.058C0.299,-0.058 0.317,-0.062 0.333,-0.069C0.348,-0.076 0.362,-0.086 0.373,-0.099C0.384,-0.112 0.393,-0.127 0.4,-0.145C0.406,-0.163 0.409,-0.182 0.409,-0.203Z" style="fill-rule:nonzero;"/>
                </g>
                <g transform="matrix(28,0,0,28,-93.882,1559.86)">
                    <path d="M0.04,-0.374L0.216,-0.374L0.216,-0.554L0.288,-0.554L0.288,-0.374L0.464,-0.374L0.464,-0.302L0.288,-0.302L0.288,-0.122L0.216,-0.122L0.216,-0.302L0.04,-0.302L0.04,-0.374Z" style="fill-rule:nonzero;"/>
                </g>
                <g transform="matrix(28,0,0,28,-72.266,1559.86)">
                    <path d="M0.203,-0.225L0.157,-0.225L0.157,-0L0.077,-0L0.077,-0.5L0.157,-0.5L0.157,-0.274L0.2,-0.288L0.36,-0.5L0.447,-0.5L0.292,-0.299L0.25,-0.266L0.302,-0.226L0.469,-0L0.37,-0L0.203,-0.225Z" style="fill-rule:nonzero;"/>
                </g>
                <g transform="matrix(28,0,0,28,-58.882,1559.86)">
                    <path d="M0.049,-0.25C0.049,-0.335 0.068,-0.4 0.106,-0.445C0.143,-0.49 0.197,-0.512 0.268,-0.512C0.305,-0.512 0.338,-0.506 0.366,-0.494C0.393,-0.481 0.416,-0.464 0.434,-0.441C0.452,-0.418 0.465,-0.39 0.474,-0.358C0.483,-0.325 0.487,-0.289 0.487,-0.25C0.487,-0.165 0.468,-0.1 0.431,-0.056C0.393,-0.011 0.339,0.012 0.268,0.012C0.231,0.012 0.198,0.006 0.171,-0.007C0.143,-0.019 0.12,-0.037 0.102,-0.06C0.084,-0.083 0.071,-0.11 0.062,-0.143C0.053,-0.175 0.049,-0.211 0.049,-0.25ZM0.132,-0.25C0.132,-0.225 0.135,-0.2 0.14,-0.177C0.145,-0.154 0.152,-0.133 0.163,-0.116C0.174,-0.099 0.188,-0.085 0.205,-0.074C0.222,-0.063 0.243,-0.058 0.268,-0.058C0.359,-0.057 0.404,-0.121 0.404,-0.25C0.404,-0.276 0.402,-0.301 0.397,-0.324C0.392,-0.347 0.384,-0.368 0.373,-0.385C0.362,-0.402 0.348,-0.416 0.331,-0.427C0.314,-0.437 0.293,-0.442 0.268,-0.442C0.177,-0.443 0.132,-0.379 0.132,-0.25Z" style="fill-rule:nonzero;"/>
                </g>
                <g transform="matrix(28,0,0,28,-43.874,1559.86)">
                    <path d="M0.383,-0.221L0.157,-0.221L0.157,-0L0.077,-0L0.077,-0.5L0.157,-0.5L0.157,-0.291L0.383,-0.291L0.383,-0.5L0.463,-0.5L0.463,-0L0.383,-0L0.383,-0.221Z" style="fill-rule:nonzero;"/>
                </g>
                <g transform="matrix(28,0,0,28,-28.754,1559.86)">
                    <path d="M0.395,-0.43L0.239,-0.43L0.239,-0L0.159,-0L0.159,-0.43L0.003,-0.43L0.003,-0.5L0.395,-0.5L0.395,-0.43Z" style="fill-rule:nonzero;"/>
                </g>
                <g transform="matrix(28,0,0,28,-17.638,1559.86)">
                    <path d="M0.077,-0.5L0.132,-0.5L0.147,-0.44L0.151,-0.44C0.166,-0.463 0.186,-0.481 0.211,-0.494C0.235,-0.506 0.263,-0.512 0.294,-0.512C0.361,-0.512 0.41,-0.492 0.443,-0.453C0.476,-0.414 0.492,-0.349 0.492,-0.26C0.492,-0.218 0.487,-0.18 0.476,-0.147C0.464,-0.113 0.449,-0.084 0.429,-0.061C0.409,-0.038 0.385,-0.02 0.357,-0.007C0.328,0.006 0.297,0.012 0.262,0.012C0.237,0.012 0.218,0.011 0.204,0.008C0.189,0.005 0.174,-0.001 0.157,-0.008L0.157,0.2L0.077,0.2L0.077,-0.5ZM0.279,-0.442C0.245,-0.442 0.218,-0.433 0.199,-0.416C0.179,-0.398 0.165,-0.371 0.157,-0.335L0.157,-0.087C0.169,-0.078 0.183,-0.07 0.198,-0.066C0.213,-0.061 0.234,-0.058 0.259,-0.058C0.305,-0.058 0.341,-0.075 0.369,-0.11C0.396,-0.144 0.409,-0.194 0.409,-0.261C0.409,-0.288 0.407,-0.313 0.402,-0.336C0.397,-0.358 0.39,-0.377 0.38,-0.393C0.369,-0.408 0.356,-0.42 0.34,-0.429C0.323,-0.438 0.303,-0.442 0.279,-0.442Z" style="fill-rule:nonzero;"/>
                </g>
                <g transform="matrix(28,0,0,28,-2.48996,1559.86)">
                    <path d="M0.049,-0.25C0.049,-0.335 0.068,-0.4 0.106,-0.445C0.143,-0.49 0.197,-0.512 0.268,-0.512C0.305,-0.512 0.338,-0.506 0.366,-0.494C0.393,-0.481 0.416,-0.464 0.434,-0.441C0.452,-0.418 0.465,-0.39 0.474,-0.358C0.483,-0.325 0.487,-0.289 0.487,-0.25C0.487,-0.165 0.468,-0.1 0.431,-0.056C0.393,-0.011 0.339,0.012 0.268,0.012C0.231,0.012 0.198,0.006 0.171,-0.007C0.143,-0.019 0.12,-0.037 0.102,-0.06C0.084,-0.083 0.071,-0.11 0.062,-0.143C0.053,-0.175 0.049,-0.211 0.049,-0.25ZM0.132,-0.25C0.132,-0.225 0.135,-0.2 0.14,-0.177C0.145,-0.154 0.152,-0.133 0.163,-0.116C0.174,-0.099 0.188,-0.085 0.205,-0.074C0.222,-0.063 0.243,-0.058 0.268,-0.058C0.359,-0.057 0.404,-0.121 0.404,-0.25C0.404,-0.276 0.402,-0.301 0.397,-0.324C0.392,-0.347 0.384,-0.368 0.373,-0.385C0.362,-0.402 0.348,-0.416 0.331,-0.427C0.314,-0.437 0.293,-0.442 0.268,-0.442C0.177,-0.443 0.132,-0.379 0.132,-0.25Z" style="fill-rule:nonzero;"/>
                </g>
                <g transform="matrix(28,0,0,28,12.518,1559.86)">
                    <path d="M0.346,-0.43L0.201,-0.43C0.199,-0.402 0.197,-0.372 0.195,-0.34C0.193,-0.307 0.19,-0.275 0.186,-0.243C0.182,-0.21 0.177,-0.179 0.17,-0.15C0.163,-0.12 0.155,-0.094 0.145,-0.071C0.134,-0.048 0.122,-0.03 0.107,-0.017C0.092,-0.003 0.074,0.004 0.053,0.004C0.04,0.004 0.029,0.003 0.02,0.002C0.011,0.001 0.002,-0.002 -0.005,-0.005L0.007,-0.072C0.015,-0.069 0.024,-0.068 0.033,-0.068C0.046,-0.068 0.058,-0.074 0.069,-0.085C0.08,-0.096 0.089,-0.118 0.097,-0.15C0.105,-0.181 0.112,-0.225 0.117,-0.281C0.122,-0.337 0.126,-0.41 0.128,-0.5L0.426,-0.5L0.426,-0L0.346,-0L0.346,-0.43Z" style="fill-rule:nonzero;"/>
                </g>
                <g transform="matrix(28,0,0,28,26.602,1559.86)">
                    <path d="M0.157,-0.07C0.182,-0.066 0.205,-0.064 0.228,-0.064C0.27,-0.064 0.301,-0.072 0.321,-0.089C0.341,-0.105 0.351,-0.128 0.351,-0.158C0.351,-0.185 0.341,-0.207 0.322,-0.224C0.303,-0.241 0.272,-0.25 0.231,-0.25C0.22,-0.25 0.207,-0.25 0.194,-0.249C0.181,-0.248 0.168,-0.246 0.157,-0.243L0.157,-0.07ZM0.157,-0.309C0.173,-0.312 0.188,-0.314 0.203,-0.315C0.218,-0.316 0.232,-0.316 0.245,-0.316C0.28,-0.316 0.309,-0.312 0.333,-0.305C0.357,-0.297 0.377,-0.286 0.392,-0.273C0.407,-0.26 0.417,-0.244 0.424,-0.226C0.431,-0.207 0.434,-0.188 0.434,-0.167C0.434,-0.106 0.416,-0.062 0.38,-0.035C0.343,-0.008 0.287,0.006 0.21,0.006C0.167,0.006 0.123,0.004 0.077,-0L0.077,-0.5L0.157,-0.5L0.157,-0.309Z" style="fill-rule:nonzero;"/>
                </g>
                <g transform="matrix(28,0,0,28,39.594,1559.86)">
                    <path d="M0.383,-0.221L0.157,-0.221L0.157,-0L0.077,-0L0.077,-0.5L0.157,-0.5L0.157,-0.291L0.383,-0.291L0.383,-0.5L0.463,-0.5L0.463,-0L0.383,-0L0.383,-0.221Z" style="fill-rule:nonzero;"/>
                </g>
                <g transform="matrix(28,0,0,28,54.714,1559.86)">
                    <path d="M0.157,-0.07C0.182,-0.066 0.205,-0.064 0.228,-0.064C0.27,-0.064 0.299,-0.072 0.316,-0.089C0.333,-0.105 0.341,-0.128 0.341,-0.158C0.341,-0.185 0.333,-0.207 0.317,-0.224C0.3,-0.241 0.272,-0.25 0.231,-0.25C0.22,-0.25 0.207,-0.25 0.194,-0.249C0.181,-0.248 0.168,-0.246 0.157,-0.243L0.157,-0.07ZM0.157,-0.309C0.173,-0.312 0.188,-0.314 0.203,-0.315C0.218,-0.316 0.232,-0.316 0.245,-0.316C0.279,-0.316 0.308,-0.312 0.331,-0.305C0.354,-0.297 0.372,-0.286 0.386,-0.273C0.4,-0.26 0.41,-0.244 0.416,-0.226C0.421,-0.207 0.424,-0.188 0.424,-0.167C0.424,-0.106 0.407,-0.062 0.374,-0.035C0.34,-0.008 0.285,0.006 0.21,0.006C0.167,0.006 0.123,0.004 0.077,-0L0.077,-0.5L0.157,-0.5L0.157,-0.309ZM0.503,-0.5L0.583,-0.5L0.583,-0L0.503,-0L0.503,-0.5Z" style="fill-rule:nonzero;"/>
                </g>
                <g transform="matrix(28,0,0,28,73.194,1559.86)">
                    <path d="M0.208,-0.256L0.04,-0.5L0.138,-0.5L0.233,-0.362L0.261,-0.305L0.29,-0.362L0.387,-0.5L0.477,-0.5L0.308,-0.26L0.487,-0L0.392,-0L0.286,-0.152L0.256,-0.212L0.225,-0.152L0.117,-0L0.028,-0L0.208,-0.256Z" style="fill-rule:nonzero;"/>
                </g>
                <g transform="matrix(28,0,0,28,95.09,1559.86)">
                    <path d="M0.395,-0.43L0.239,-0.43L0.239,-0L0.159,-0L0.159,-0.43L0.003,-0.43L0.003,-0.5L0.395,-0.5L0.395,-0.43Z" style="fill-rule:nonzero;"/>
                </g>
                <g transform="matrix(28,0,0,28,106.206,1559.86)">
                    <path d="M0.049,-0.25C0.049,-0.335 0.068,-0.4 0.106,-0.445C0.143,-0.49 0.197,-0.512 0.268,-0.512C0.305,-0.512 0.338,-0.506 0.366,-0.494C0.393,-0.481 0.416,-0.464 0.434,-0.441C0.452,-0.418 0.465,-0.39 0.474,-0.358C0.483,-0.325 0.487,-0.289 0.487,-0.25C0.487,-0.165 0.468,-0.1 0.431,-0.056C0.393,-0.011 0.339,0.012 0.268,0.012C0.231,0.012 0.198,0.006 0.171,-0.007C0.143,-0.019 0.12,-0.037 0.102,-0.06C0.084,-0.083 0.071,-0.11 0.062,-0.143C0.053,-0.175 0.049,-0.211 0.049,-0.25ZM0.132,-0.25C0.132,-0.225 0.135,-0.2 0.14,-0.177C0.145,-0.154 0.152,-0.133 0.163,-0.116C0.174,-0.099 0.188,-0.085 0.205,-0.074C0.222,-0.063 0.243,-0.058 0.268,-0.058C0.359,-0.057 0.404,-0.121 0.404,-0.25C0.404,-0.276 0.402,-0.301 0.397,-0.324C0.392,-0.347 0.384,-0.368 0.373,-0.385C0.362,-0.402 0.348,-0.416 0.331,-0.427C0.314,-0.437 0.293,-0.442 0.268,-0.442C0.177,-0.443 0.132,-0.379 0.132,-0.25Z" style="fill-rule:nonzero;"/>
                </g>
                <g transform="matrix(28,0,0,28,121.214,1559.86)">
                    <path d="M0.129,-0.5L0.129,-0.364C0.129,-0.346 0.13,-0.33 0.132,-0.316C0.134,-0.301 0.138,-0.289 0.144,-0.279C0.15,-0.268 0.159,-0.26 0.17,-0.255C0.181,-0.249 0.196,-0.246 0.215,-0.246C0.245,-0.246 0.27,-0.249 0.289,-0.256C0.308,-0.263 0.323,-0.27 0.333,-0.278L0.333,-0.5L0.413,-0.5L0.413,-0L0.333,-0L0.333,-0.21C0.322,-0.203 0.307,-0.196 0.286,-0.188C0.265,-0.18 0.236,-0.176 0.199,-0.176C0.174,-0.176 0.153,-0.179 0.134,-0.184C0.115,-0.189 0.1,-0.199 0.087,-0.212C0.074,-0.225 0.065,-0.243 0.059,-0.265C0.052,-0.287 0.049,-0.315 0.049,-0.348L0.049,-0.5L0.129,-0.5Z" style="fill-rule:nonzero;"/>
                </g>
                <g transform="matrix(28,0,0,28,134.934,1559.86)">
                    <path d="M0.442,-0.04C0.422,-0.024 0.397,-0.011 0.367,-0.002C0.336,0.007 0.304,0.012 0.27,0.012C0.232,0.012 0.199,0.006 0.171,-0.007C0.143,-0.019 0.12,-0.037 0.102,-0.06C0.084,-0.083 0.071,-0.11 0.062,-0.142C0.053,-0.174 0.049,-0.21 0.049,-0.25C0.049,-0.335 0.068,-0.4 0.106,-0.445C0.144,-0.49 0.198,-0.512 0.269,-0.512C0.292,-0.512 0.314,-0.51 0.337,-0.505C0.36,-0.5 0.38,-0.49 0.398,-0.476C0.416,-0.462 0.431,-0.442 0.442,-0.417C0.453,-0.391 0.459,-0.357 0.459,-0.315C0.459,-0.293 0.457,-0.269 0.453,-0.242L0.132,-0.242C0.132,-0.213 0.135,-0.187 0.141,-0.164C0.147,-0.141 0.156,-0.122 0.169,-0.107C0.182,-0.091 0.198,-0.079 0.219,-0.071C0.239,-0.062 0.264,-0.058 0.293,-0.058C0.316,-0.058 0.338,-0.062 0.361,-0.07C0.384,-0.078 0.401,-0.087 0.412,-0.098L0.442,-0.04ZM0.27,-0.442C0.231,-0.442 0.199,-0.432 0.176,-0.411C0.152,-0.39 0.138,-0.355 0.133,-0.305L0.381,-0.305C0.381,-0.356 0.371,-0.391 0.352,-0.412C0.333,-0.432 0.305,-0.442 0.27,-0.442Z" style="fill-rule:nonzero;"/>
                </g>
                <g transform="matrix(28,0,0,28,149.158,1559.86)">
                    <path d="M0.203,-0.225L0.157,-0.225L0.157,-0L0.077,-0L0.077,-0.5L0.157,-0.5L0.157,-0.274L0.2,-0.288L0.36,-0.5L0.447,-0.5L0.292,-0.299L0.25,-0.266L0.302,-0.226L0.469,-0L0.37,-0L0.203,-0.225Z" style="fill-rule:nonzero;"/>
                </g>
            </g>
            <g transform="matrix(1,0,0,0.830882,819.594,45.2574)">
                <g transform="matrix(28,0,0,28,-49.446,1528.53)">
                    <path d="M0.383,-0.221L0.157,-0.221L0.157,-0L0.077,-0L0.077,-0.5L0.157,-0.5L0.157,-0.291L0.383,-0.291L0.383,-0.5L0.463,-0.5L0.463,-0L0.383,-0L0.383,-0.221Z" style="fill-rule:nonzero;"/>
                </g>
                <g transform="matrix(28,0,0,28,-34.326,1528.53)">
                    <path d="M0.442,-0.04C0.422,-0.024 0.397,-0.011 0.367,-0.002C0.336,0.007 0.304,0.012 0.27,0.012C0.232,0.012 0.199,0.006 0.171,-0.007C0.143,-0.019 0.12,-0.037 0.102,-0.06C0.084,-0.083 0.071,-0.11 0.062,-0.142C0.053,-0.174 0.049,-0.21 0.049,-0.25C0.049,-0.335 0.068,-0.4 0.106,-0.445C0.144,-0.49 0.198,-0.512 0.269,-0.512C0.292,-0.512 0.314,-0.51 0.337,-0.505C0.36,-0.5 0.38,-0.49 0.398,-0.476C0.416,-0.462 0.431,-0.442 0.442,-0.417C0.453,-0.391 0.459,-0.357 0.459,-0.315C0.459,-0.293 0.457,-0.269 0.453,-0.242L0.132,-0.242C0.132,-0.213 0.135,-0.187 0.141,-0.164C0.147,-0.141 0.156,-0.122 0.169,-0.107C0.182,-0.091 0.198,-0.079 0.219,-0.071C0.239,-0.062 0.264,-0.058 0.293,-0.058C0.316,-0.058 0.338,-0.062 0.361,-0.07C0.384,-0.078 0.401,-0.087 0.412,-0.098L0.442,-0.04ZM0.27,-0.442C0.231,-0.442 0.199,-0.432 0.176,-0.411C0.152,-0.39 0.138,-0.355 0.133,-0.305L0.381,-0.305C0.381,-0.356 0.371,-0.391 0.352,-0.412C0.333,-0.432 0.305,-0.442 0.27,-0.442Z" style="fill-rule:nonzero;"/>
                </g>
                <g transform="matrix(28,0,0,28,-20.102,1528.53)">
                    <path d="M0.049,-0.25C0.049,-0.335 0.068,-0.4 0.106,-0.445C0.143,-0.49 0.197,-0.512 0.268,-0.512C0.305,-0.512 0.338,-0.506 0.366,-0.494C0.393,-0.481 0.416,-0.464 0.434,-0.441C0.452,-0.418 0.465,-0.39 0.474,-0.358C0.483,-0.325 0.487,-0.289 0.487,-0.25C0.487,-0.165 0.468,-0.1 0.431,-0.056C0.393,-0.011 0.339,0.012 0.268,0.012C0.231,0.012 0.198,0.006 0.171,-0.007C0.143,-0.019 0.12,-0.037 0.102,-0.06C0.084,-0.083 0.071,-0.11 0.062,-0.143C0.053,-0.175 0.049,-0.211 0.049,-0.25ZM0.132,-0.25C0.132,-0.225 0.135,-0.2 0.14,-0.177C0.145,-0.154 0.152,-0.133 0.163,-0.116C0.174,-0.099 0.188,-0.085 0.205,-0.074C0.222,-0.063 0.243,-0.058 0.268,-0.058C0.359,-0.057 0.404,-0.121 0.404,-0.25C0.404,-0.276 0.402,-0.301 0.397,-0.324C0.392,-0.347 0.384,-0.368 0.373,-0.385C0.362,-0.402 0.348,-0.416 0.331,-0.427C0.314,-0.437 0.293,-0.442 0.268,-0.442C0.177,-0.443 0.132,-0.379 0.132,-0.25Z" style="fill-rule:nonzero;"/>
                </g>
                <g transform="matrix(28,0,0,28,-5.09396,1528.53)">
                    <path d="M0.123,-0.411C0.145,-0.443 0.169,-0.466 0.196,-0.479C0.223,-0.492 0.256,-0.498 0.296,-0.498C0.357,-0.498 0.405,-0.478 0.438,-0.438C0.47,-0.398 0.487,-0.339 0.487,-0.261C0.487,-0.171 0.468,-0.103 0.43,-0.057C0.391,-0.011 0.338,0.012 0.269,0.012C0.196,0.012 0.141,-0.013 0.104,-0.064C0.067,-0.115 0.049,-0.194 0.049,-0.303C0.049,-0.36 0.052,-0.409 0.058,-0.45C0.063,-0.491 0.072,-0.525 0.083,-0.553C0.094,-0.581 0.107,-0.603 0.123,-0.62C0.138,-0.637 0.156,-0.65 0.176,-0.66C0.195,-0.669 0.217,-0.676 0.24,-0.68C0.263,-0.684 0.288,-0.687 0.315,-0.69C0.35,-0.693 0.377,-0.697 0.397,-0.702C0.416,-0.706 0.432,-0.714 0.444,-0.725L0.453,-0.653C0.446,-0.647 0.439,-0.642 0.431,-0.638C0.423,-0.634 0.413,-0.631 0.402,-0.628C0.391,-0.625 0.377,-0.623 0.362,-0.621C0.346,-0.619 0.328,-0.617 0.307,-0.616C0.278,-0.614 0.253,-0.611 0.232,-0.606C0.21,-0.6 0.191,-0.591 0.176,-0.577C0.16,-0.562 0.148,-0.542 0.139,-0.516C0.13,-0.489 0.123,-0.454 0.12,-0.411L0.123,-0.411ZM0.132,-0.249C0.132,-0.224 0.135,-0.199 0.14,-0.176C0.145,-0.153 0.154,-0.132 0.165,-0.115C0.175,-0.097 0.19,-0.083 0.207,-0.073C0.224,-0.063 0.245,-0.058 0.268,-0.058C0.314,-0.058 0.348,-0.075 0.371,-0.108C0.393,-0.14 0.404,-0.189 0.404,-0.254C0.404,-0.279 0.402,-0.303 0.397,-0.324C0.392,-0.345 0.385,-0.364 0.375,-0.38C0.365,-0.395 0.352,-0.407 0.337,-0.416C0.322,-0.424 0.303,-0.428 0.282,-0.428C0.23,-0.429 0.192,-0.413 0.168,-0.383C0.144,-0.352 0.132,-0.307 0.132,-0.249Z" style="fill-rule:nonzero;"/>
                </g>
                <g transform="matrix(28,0,0,28,9.91404,1528.53)">
                    <path d="M0.208,-0.256L0.04,-0.5L0.138,-0.5L0.233,-0.362L0.261,-0.305L0.29,-0.362L0.387,-0.5L0.477,-0.5L0.308,-0.26L0.487,-0L0.392,-0L0.286,-0.152L0.256,-0.212L0.225,-0.152L0.117,-0L0.028,-0L0.208,-0.256Z" style="fill-rule:nonzero;"/>
                </g>
                <g transform="matrix(28,0,0,28,24.334,1528.53)">
                    <path d="M0.049,-0.25C0.049,-0.335 0.068,-0.4 0.106,-0.445C0.143,-0.49 0.197,-0.512 0.268,-0.512C0.305,-0.512 0.338,-0.506 0.366,-0.494C0.393,-0.481 0.416,-0.464 0.434,-0.441C0.452,-0.418 0.465,-0.39 0.474,-0.358C0.483,-0.325 0.487,-0.289 0.487,-0.25C0.487,-0.165 0.468,-0.1 0.431,-0.056C0.393,-0.011 0.339,0.012 0.268,0.012C0.231,0.012 0.198,0.006 0.171,-0.007C0.143,-0.019 0.12,-0.037 0.102,-0.06C0.084,-0.083 0.071,-0.11 0.062,-0.143C0.053,-0.175 0.049,-0.211 0.049,-0.25ZM0.132,-0.25C0.132,-0.225 0.135,-0.2 0.14,-0.177C0.145,-0.154 0.152,-0.133 0.163,-0.116C0.174,-0.099 0.188,-0.085 0.205,-0.074C0.222,-0.063 0.243,-0.058 0.268,-0.058C0.359,-0.057 0.404,-0.121 0.404,-0.25C0.404,-0.276 0.402,-0.301 0.397,-0.324C0.392,-0.347 0.384,-0.368 0.373,-0.385C0.362,-0.402 0.348,-0.416 0.331,-0.427C0.314,-0.437 0.293,-0.442 0.268,-0.442C0.177,-0.443 0.132,-0.379 0.132,-0.25Z" style="fill-rule:nonzero;"/>
                </g>
                <g transform="matrix(28,0,0,28,39.342,1528.53)">
                    <path d="M0.519,0.127L0.465,0.127L0.45,-0L0.074,-0L0.059,0.127L0.005,0.127L0.005,-0.07L0.064,-0.07C0.069,-0.077 0.076,-0.091 0.085,-0.11C0.094,-0.129 0.102,-0.155 0.111,-0.19C0.119,-0.224 0.126,-0.267 0.133,-0.318C0.139,-0.369 0.143,-0.429 0.144,-0.5L0.446,-0.5L0.446,-0.07L0.519,-0.07L0.519,0.127ZM0.366,-0.07L0.366,-0.43L0.216,-0.43C0.215,-0.402 0.212,-0.372 0.209,-0.339C0.206,-0.306 0.201,-0.273 0.196,-0.24C0.19,-0.207 0.183,-0.175 0.174,-0.146C0.165,-0.117 0.155,-0.091 0.144,-0.07L0.366,-0.07Z" style="fill-rule:nonzero;"/>
                </g>
                <g transform="matrix(28,0,0,28,54.49,1528.53)">
                    <path d="M0.389,-0.296L0.392,-0.358L0.389,-0.358L0.348,-0.294L0.123,-0L0.077,-0L0.077,-0.5L0.157,-0.5L0.157,-0.195L0.154,-0.136L0.158,-0.136L0.197,-0.198L0.422,-0.5L0.469,-0.5L0.469,-0L0.389,-0L0.389,-0.296Z" style="fill-rule:nonzero;"/>
                </g>
                <g transform="matrix(28,0,0,28,69.778,1528.53)">
                    <path d="M0.49,-0.297L0.496,-0.392L0.491,-0.392L0.455,-0.315L0.334,-0.119L0.306,-0.119L0.18,-0.315L0.147,-0.392L0.143,-0.392L0.151,-0.298L0.151,-0L0.077,-0L0.077,-0.5L0.156,-0.5L0.296,-0.276L0.325,-0.218L0.327,-0.218L0.357,-0.278L0.488,-0.5L0.568,-0.5L0.568,-0L0.49,-0L0.49,-0.297Z" style="fill-rule:nonzero;"/>
                </g>
                <g transform="matrix(28,0,0,28,87.838,1528.53)">
                    <path d="M0.049,-0.25C0.049,-0.335 0.068,-0.4 0.106,-0.445C0.143,-0.49 0.197,-0.512 0.268,-0.512C0.305,-0.512 0.338,-0.506 0.366,-0.494C0.393,-0.481 0.416,-0.464 0.434,-0.441C0.452,-0.418 0.465,-0.39 0.474,-0.358C0.483,-0.325 0.487,-0.289 0.487,-0.25C0.487,-0.165 0.468,-0.1 0.431,-0.056C0.393,-0.011 0.339,0.012 0.268,0.012C0.231,0.012 0.198,0.006 0.171,-0.007C0.143,-0.019 0.12,-0.037 0.102,-0.06C0.084,-0.083 0.071,-0.11 0.062,-0.143C0.053,-0.175 0.049,-0.211 0.049,-0.25ZM0.132,-0.25C0.132,-0.225 0.135,-0.2 0.14,-0.177C0.145,-0.154 0.152,-0.133 0.163,-0.116C0.174,-0.099 0.188,-0.085 0.205,-0.074C0.222,-0.063 0.243,-0.058 0.268,-0.058C0.359,-0.057 0.404,-0.121 0.404,-0.25C0.404,-0.276 0.402,-0.301 0.397,-0.324C0.392,-0.347 0.384,-0.368 0.373,-0.385C0.362,-0.402 0.348,-0.416 0.331,-0.427C0.314,-0.437 0.293,-0.442 0.268,-0.442C0.177,-0.443 0.132,-0.379 0.132,-0.25Z" style="fill-rule:nonzero;"/>
                </g>
                <g transform="matrix(28,0,0,28,-116.772,1559.86)">
                    <path d="M0.108,-0.074L0.248,-0.074L0.248,-0.558L0.258,-0.617L0.218,-0.57L0.108,-0.491L0.07,-0.542L0.29,-0.712L0.326,-0.712L0.326,-0.074L0.463,-0.074L0.463,-0L0.108,-0L0.108,-0.074Z" style="fill-rule:nonzero;"/>
                </g>
                <g transform="matrix(28,0,0,28,-101.512,1559.86)">
                    <path d="M0.043,-0.35C0.043,-0.47 0.063,-0.56 0.102,-0.621C0.14,-0.682 0.197,-0.712 0.272,-0.712C0.353,-0.712 0.411,-0.682 0.448,-0.623C0.484,-0.563 0.502,-0.472 0.502,-0.35C0.502,-0.23 0.483,-0.14 0.444,-0.079C0.405,-0.018 0.347,0.012 0.272,0.012C0.193,0.012 0.135,-0.02 0.098,-0.083C0.061,-0.146 0.043,-0.235 0.043,-0.35ZM0.126,-0.35C0.126,-0.307 0.129,-0.267 0.135,-0.232C0.14,-0.196 0.149,-0.165 0.161,-0.14C0.173,-0.114 0.188,-0.094 0.207,-0.08C0.225,-0.065 0.247,-0.058 0.272,-0.058C0.323,-0.058 0.36,-0.082 0.384,-0.129C0.407,-0.175 0.419,-0.249 0.419,-0.35C0.419,-0.393 0.417,-0.432 0.412,-0.468C0.407,-0.504 0.398,-0.535 0.387,-0.561C0.375,-0.587 0.36,-0.607 0.341,-0.621C0.322,-0.635 0.299,-0.642 0.272,-0.642C0.222,-0.642 0.185,-0.618 0.162,-0.571C0.138,-0.524 0.126,-0.45 0.126,-0.35Z" style="fill-rule:nonzero;"/>
                </g>
                <g transform="matrix(28,0,0,28,-86.252,1559.86)">
                    <path d="M0.04,-0.374L0.216,-0.374L0.216,-0.554L0.288,-0.554L0.288,-0.374L0.464,-0.374L0.464,-0.302L0.288,-0.302L0.288,-0.122L0.216,-0.122L0.216,-0.302L0.04,-0.302L0.04,-0.374Z" style="fill-rule:nonzero;"/>
                </g>
                <g transform="matrix(28,0,0,28,-64.636,1559.86)">
                    <path d="M0.203,-0.225L0.157,-0.225L0.157,-0L0.077,-0L0.077,-0.5L0.157,-0.5L0.157,-0.274L0.2,-0.288L0.36,-0.5L0.447,-0.5L0.292,-0.299L0.25,-0.266L0.302,-0.226L0.469,-0L0.37,-0L0.203,-0.225Z" style="fill-rule:nonzero;"/>
                </g>
                <g transform="matrix(28,0,0,28,-51.252,1559.86)">
                    <path d="M0.049,-0.25C0.049,-0.335 0.068,-0.4 0.106,-0.445C0.143,-0.49 0.197,-0.512 0.268,-0.512C0.305,-0.512 0.338,-0.506 0.366,-0.494C0.393,-0.481 0.416,-0.464 0.434,-0.441C0.452,-0.418 0.465,-0.39 0.474,-0.358C0.483,-0.325 0.487,-0.289 0.487,-0.25C0.487,-0.165 0.468,-0.1 0.431,-0.056C0.393,-0.011 0.339,0.012 0.268,0.012C0.231,0.012 0.198,0.006 0.171,-0.007C0.143,-0.019 0.12,-0.037 0.102,-0.06C0.084,-0.083 0.071,-0.11 0.062,-0.143C0.053,-0.175 0.049,-0.211 0.049,-0.25ZM0.132,-0.25C0.132,-0.225 0.135,-0.2 0.14,-0.177C0.145,-0.154 0.152,-0.133 0.163,-0.116C0.174,-0.099 0.188,-0.085 0.205,-0.074C0.222,-0.063 0.243,-0.058 0.268,-0.058C0.359,-0.057 0.404,-0.121 0.404,-0.25C0.404,-0.276 0.402,-0.301 0.397,-0.324C0.392,-0.347 0.384,-0.368 0.373,-0.385C0.362,-0.402 0.348,-0.416 0.331,-0.427C0.314,-0.437 0.293,-0.442 0.268,-0.442C0.177,-0.443 0.132,-0.379 0.132,-0.25Z" style="fill-rule:nonzero;"/>
                </g>
                <g transform="matrix(28,0,0,28,-36.244,1559.86)">
                    <path d="M0.383,-0.221L0.157,-0.221L0.157,-0L0.077,-0L0.077,-0.5L0.157,-0.5L0.157,-0.291L0.383,-0.291L0.383,-0.5L0.463,-0.5L0.463,-0L0.383,-0L0.383,-0.221Z" style="fill-rule:nonzero;"/>
                </g>
                <g transform="matrix(28,0,0,28,-21.124,1559.86)">
                    <path d="M0.395,-0.43L0.239,-0.43L0.239,-0L0.159,-0L0.159,-0.43L0.003,-0.43L0.003,-0.5L0.395,-0.5L0.395,-0.43Z" style="fill-rule:nonzero;"/>
                </g>
                <g transform="matrix(28,0,0,28,-10.008,1559.86)">
                    <path d="M0.077,-0.5L0.132,-0.5L0.147,-0.44L0.151,-0.44C0.166,-0.463 0.186,-0.481 0.211,-0.494C0.235,-0.506 0.263,-0.512 0.294,-0.512C0.361,-0.512 0.41,-0.492 0.443,-0.453C0.476,-0.414 0.492,-0.349 0.492,-0.26C0.492,-0.218 0.487,-0.18 0.476,-0.147C0.464,-0.113 0.449,-0.084 0.429,-0.061C0.409,-0.038 0.385,-0.02 0.357,-0.007C0.328,0.006 0.297,0.012 0.262,0.012C0.237,0.012 0.218,0.011 0.204,0.008C0.189,0.005 0.174,-0.001 0.157,-0.008L0.157,0.2L0.077,0.2L0.077,-0.5ZM0.279,-0.442C0.245,-0.442 0.218,-0.433 0.199,-0.416C0.179,-0.398 0.165,-0.371 0.157,-0.335L0.157,-0.087C0.169,-0.078 0.183,-0.07 0.198,-0.066C0.213,-0.061 0.234,-0.058 0.259,-0.058C0.305,-0.058 0.341,-0.075 0.369,-0.11C0.396,-0.144 0.409,-0.194 0.409,-0.261C0.409,-0.288 0.407,-0.313 0.402,-0.336C0.397,-0.358 0.39,-0.377 0.38,-0.393C0.369,-0.408 0.356,-0.42 0.34,-0.429C0.323,-0.438 0.303,-0.442 0.279,-0.442Z" style="fill-rule:nonzero;"/>
                </g>
                <g transform="matrix(28,0,0,28,5.14004,1559.86)">
                    <path d="M0.049,-0.25C0.049,-0.335 0.068,-0.4 0.106,-0.445C0.143,-0.49 0.197,-0.512 0.268,-0.512C0.305,-0.512 0.338,-0.506 0.366,-0.494C0.393,-0.481 0.416,-0.464 0.434,-0.441C0.452,-0.418 0.465,-0.39 0.474,-0.358C0.483,-0.325 0.487,-0.289 0.487,-0.25C0.487,-0.165 0.468,-0.1 0.431,-0.056C0.393,-0.011 0.339,0.012 0.268,0.012C0.231,0.012 0.198,0.006 0.171,-0.007C0.143,-0.019 0.12,-0.037 0.102,-0.06C0.084,-0.083 0.071,-0.11 0.062,-0.143C0.053,-0.175 0.049,-0.211 0.049,-0.25ZM0.132,-0.25C0.132,-0.225 0.135,-0.2 0.14,-0.177C0.145,-0.154 0.152,-0.133 0.163,-0.116C0.174,-0.099 0.188,-0.085 0.205,-0.074C0.222,-0.063 0.243,-0.058 0.268,-0.058C0.359,-0.057 0.404,-0.121 0.404,-0.25C0.404,-0.276 0.402,-0.301 0.397,-0.324C0.392,-0.347 0.384,-0.368 0.373,-0.385C0.362,-0.402 0.348,-0.416 0.331,-0.427C0.314,-0.437 0.293,-0.442 0.268,-0.442C0.177,-0.443 0.132,-0.379 0.132,-0.25Z" style="fill-rule:nonzero;"/>
                </g>
                <g transform="matrix(28,0,0,28,20.148,1559.86)">
                    <path d="M0.346,-0.43L0.201,-0.43C0.199,-0.402 0.197,-0.372 0.195,-0.34C0.193,-0.307 0.19,-0.275 0.186,-0.243C0.182,-0.21 0.177,-0.179 0.17,-0.15C0.163,-0.12 0.155,-0.094 0.145,-0.071C0.134,-0.048 0.122,-0.03 0.107,-0.017C0.092,-0.003 0.074,0.004 0.053,0.004C0.04,0.004 0.029,0.003 0.02,0.002C0.011,0.001 0.002,-0.002 -0.005,-0.005L0.007,-0.072C0.015,-0.069 0.024,-0.068 0.033,-0.068C0.046,-0.068 0.058,-0.074 0.069,-0.085C0.08,-0.096 0.089,-0.118 0.097,-0.15C0.105,-0.181 0.112,-0.225 0.117,-0.281C0.122,-0.337 0.126,-0.41 0.128,-0.5L0.426,-0.5L0.426,-0L0.346,-0L0.346,-0.43Z" style="fill-rule:nonzero;"/>
                </g>
                <g transform="matrix(28,0,0,28,34.232,1559.86)">
                    <path d="M0.157,-0.07C0.182,-0.066 0.205,-0.064 0.228,-0.064C0.27,-0.064 0.301,-0.072 0.321,-0.089C0.341,-0.105 0.351,-0.128 0.351,-0.158C0.351,-0.185 0.341,-0.207 0.322,-0.224C0.303,-0.241 0.272,-0.25 0.231,-0.25C0.22,-0.25 0.207,-0.25 0.194,-0.249C0.181,-0.248 0.168,-0.246 0.157,-0.243L0.157,-0.07ZM0.157,-0.309C0.173,-0.312 0.188,-0.314 0.203,-0.315C0.218,-0.316 0.232,-0.316 0.245,-0.316C0.28,-0.316 0.309,-0.312 0.333,-0.305C0.357,-0.297 0.377,-0.286 0.392,-0.273C0.407,-0.26 0.417,-0.244 0.424,-0.226C0.431,-0.207 0.434,-0.188 0.434,-0.167C0.434,-0.106 0.416,-0.062 0.38,-0.035C0.343,-0.008 0.287,0.006 0.21,0.006C0.167,0.006 0.123,0.004 0.077,-0L0.077,-0.5L0.157,-0.5L0.157,-0.309Z" style="fill-rule:nonzero;"/>
                </g>
                <g transform="matrix(28,0,0,28,47.224,1559.86)">
                    <path d="M0.383,-0.221L0.157,-0.221L0.157,-0L0.077,-0L0.077,-0.5L0.157,-0.5L0.157,-0.291L0.383,-0.291L0.383,-0.5L0.463,-0.5L0.463,-0L0.383,-0L0.383,-0.221Z" style="fill-rule:nonzero;"/>
                </g>
                <g transform="matrix(28,0,0,28,62.344,1559.86)">
                    <path d="M0.157,-0.07C0.182,-0.066 0.205,-0.064 0.228,-0.064C0.27,-0.064 0.299,-0.072 0.316,-0.089C0.333,-0.105 0.341,-0.128 0.341,-0.158C0.341,-0.185 0.333,-0.207 0.317,-0.224C0.3,-0.241 0.272,-0.25 0.231,-0.25C0.22,-0.25 0.207,-0.25 0.194,-0.249C0.181,-0.248 0.168,-0.246 0.157,-0.243L0.157,-0.07ZM0.157,-0.309C0.173,-0.312 0.188,-0.314 0.203,-0.315C0.218,-0.316 0.232,-0.316 0.245,-0.316C0.279,-0.316 0.308,-0.312 0.331,-0.305C0.354,-0.297 0.372,-0.286 0.386,-0.273C0.4,-0.26 0.41,-0.244 0.416,-0.226C0.421,-0.207 0.424,-0.188 0.424,-0.167C0.424,-0.106 0.407,-0.062 0.374,-0.035C0.34,-0.008 0.285,0.006 0.21,0.006C0.167,0.006 0.123,0.004 0.077,-0L0.077,-0.5L0.157,-0.5L0.157,-0.309ZM0.503,-0.5L0.583,-0.5L0.583,-0L0.503,-0L0.503,-0.5Z" style="fill-rule:nonzero;"/>
                </g>
                <g transform="matrix(28,0,0,28,80.824,1559.86)">
                    <path d="M0.208,-0.256L0.04,-0.5L0.138,-0.5L0.233,-0.362L0.261,-0.305L0.29,-0.362L0.387,-0.5L0.477,-0.5L0.308,-0.26L0.487,-0L0.392,-0L0.286,-0.152L0.256,-0.212L0.225,-0.152L0.117,-0L0.028,-0L0.208,-0.256Z" style="fill-rule:nonzero;"/>
                </g>
                <g transform="matrix(28,0,0,28,102.72,1559.86)">
                    <path d="M0.395,-0.43L0.239,-0.43L0.239,-0L0.159,-0L0.159,-0.43L0.003,-0.43L0.003,-0.5L0.395,-0.5L0.395,-0.43Z" style="fill-rule:nonzero;"/>
                </g>
                <g transform="matrix(28,0,0,28,113.836,1559.86)">
                    <path d="M0.049,-0.25C0.049,-0.335 0.068,-0.4 0.106,-0.445C0.143,-0.49 0.197,-0.512 0.268,-0.512C0.305,-0.512 0.338,-0.506 0.366,-0.494C0.393,-0.481 0.416,-0.464 0.434,-0.441C0.452,-0.418 0.465,-0.39 0.474,-0.358C0.483,-0.325 0.487,-0.289 0.487,-0.25C0.487,-0.165 0.468,-0.1 0.431,-0.056C0.393,-0.011 0.339,0.012 0.268,0.012C0.231,0.012 0.198,0.006 0.171,-0.007C0.143,-0.019 0.12,-0.037 0.102,-0.06C0.084,-0.083 0.071,-0.11 0.062,-0.143C0.053,-0.175 0.049,-0.211 0.049,-0.25ZM0.132,-0.25C0.132,-0.225 0.135,-0.2 0.14,-0.177C0.145,-0.154 0.152,-0.133 0.163,-0.116C0.174,-0.099 0.188,-0.085 0.205,-0.074C0.222,-0.063 0.243,-0.058 0.268,-0.058C0.359,-0.057 0.404,-0.121 0.404,-0.25C0.404,-0.276 0.402,-0.301 0.397,-0.324C0.392,-0.347 0.384,-0.368 0.373,-0.385C0.362,-0.402 0.348,-0.416 0.331,-0.427C0.314,-0.437 0.293,-0.442 0.268,-0.442C0.177,-0.443 0.132,-0.379 0.132,-0.25Z" style="fill-rule:nonzero;"/>
                </g>
                <g transform="matrix(28,0,0,28,128.844,1559.86)">
                    <path d="M0.129,-0.5L0.129,-0.364C0.129,-0.346 0.13,-0.33 0.132,-0.316C0.134,-0.301 0.138,-0.289 0.144,-0.279C0.15,-0.268 0.159,-0.26 0.17,-0.255C0.181,-0.249 0.196,-0.246 0.215,-0.246C0.245,-0.246 0.27,-0.249 0.289,-0.256C0.308,-0.263 0.323,-0.27 0.333,-0.278L0.333,-0.5L0.413,-0.5L0.413,-0L0.333,-0L0.333,-0.21C0.322,-0.203 0.307,-0.196 0.286,-0.188C0.265,-0.18 0.236,-0.176 0.199,-0.176C0.174,-0.176 0.153,-0.179 0.134,-0.184C0.115,-0.189 0.1,-0.199 0.087,-0.212C0.074,-0.225 0.065,-0.243 0.059,-0.265C0.052,-0.287 0.049,-0.315 0.049,-0.348L0.049,-0.5L0.129,-0.5Z" style="fill-rule:nonzero;"/>
                </g>
                <g transform="matrix(28,0,0,28,142.564,1559.86)">
                    <path d="M0.442,-0.04C0.422,-0.024 0.397,-0.011 0.367,-0.002C0.336,0.007 0.304,0.012 0.27,0.012C0.232,0.012 0.199,0.006 0.171,-0.007C0.143,-0.019 0.12,-0.037 0.102,-0.06C0.084,-0.083 0.071,-0.11 0.062,-0.142C0.053,-0.174 0.049,-0.21 0.049,-0.25C0.049,-0.335 0.068,-0.4 0.106,-0.445C0.144,-0.49 0.198,-0.512 0.269,-0.512C0.292,-0.512 0.314,-0.51 0.337,-0.505C0.36,-0.5 0.38,-0.49 0.398,-0.476C0.416,-0.462 0.431,-0.442 0.442,-0.417C0.453,-0.391 0.459,-0.357 0.459,-0.315C0.459,-0.293 0.457,-0.269 0.453,-0.242L0.132,-0.242C0.132,-0.213 0.135,-0.187 0.141,-0.164C0.147,-0.141 0.156,-0.122 0.169,-0.107C0.182,-0.091 0.198,-0.079 0.219,-0.071C0.239,-0.062 0.264,-0.058 0.293,-0.058C0.316,-0.058 0.338,-0.062 0.361,-0.07C0.384,-0.078 0.401,-0.087 0.412,-0.098L0.442,-0.04ZM0.27,-0.442C0.231,-0.442 0.199,-0.432 0.176,-0.411C0.152,-0.39 0.138,-0.355 0.133,-0.305L0.381,-0.305C0.381,-0.356 0.371,-0.391 0.352,-0.412C0.333,-0.432 0.305,-0.442 0.27,-0.442Z" style="fill-rule:nonzero;"/>
                </g>
                <g transform="matrix(28,0,0,28,156.788,1559.86)">
                    <path d="M0.203,-0.225L0.157,-0.225L0.157,-0L0.077,-0L0.077,-0.5L0.157,-0.5L0.157,-0.274L0.2,-0.288L0.36,-0.5L0.447,-0.5L0.292,-0.299L0.25,-0.266L0.302,-0.226L0.469,-0L0.37,-0L0.203,-0.225Z" style="fill-rule:nonzero;"/>
                </g>
            </g>
        </g>
    </g>
</svg>
