<?xml version="1.0" encoding="UTF-8" standalone="no"?>
<!DOCTYPE svg PUBLIC "-//W3C//DTD SVG 1.1//EN" "http://www.w3.org/Graphics/SVG/1.1/DTD/svg11.dtd">
<svg width="100%" height="100%" viewBox="0 0 2366 896" version="1.1" xmlns="http://www.w3.org/2000/svg" xmlns:xlink="http://www.w3.org/1999/xlink" xml:space="preserve" xmlns:serif="http://www.serif.com/" style="fill-rule:evenodd;clip-rule:evenodd;stroke-linecap:round;stroke-linejoin:round;stroke-miterlimit:1.5;">
    <rect id="Artboard7" x="-78" y="-1007" width="4375" height="2153" style="fill:none;"/>
    <g id="Artboard71" serif:id="Artboard7">
        <g id="Linear-matrix" serif:id="Linear matrix">
            <rect x="571.676" y="137.86" width="136.584" height="136.584" style="fill:white;fill-opacity:0.83;stroke:black;stroke-width:4px;"/>
            <rect x="571.838" y="409.86" width="136.584" height="136.584" style="fill:white;fill-opacity:0.83;stroke:black;stroke-width:4px;"/>
            <rect x="844.844" y="137.86" width="136.584" height="136.584" style="fill:white;fill-opacity:0.83;stroke:black;stroke-width:4px;"/>
            <rect x="845.007" y="409.86" width="136.584" height="136.584" style="fill:white;fill-opacity:0.83;stroke:black;stroke-width:4px;"/>
            <rect x="708.26" y="137.86" width="136.584" height="136.584" style="fill:white;fill-opacity:0.83;stroke:black;stroke-width:4px;"/>
            <rect x="708.423" y="409.86" width="136.584" height="136.584" style="fill:white;fill-opacity:0.83;stroke:black;stroke-width:4px;"/>
            <rect x="161.841" y="138.986" width="136.584" height="136.584" style="fill:rgb(251,182,255);fill-opacity:0.83;stroke:black;stroke-width:4px;"/>
            <rect x="161.841" y="408.986" width="136.584" height="136.584" style="fill:rgb(251,182,255);fill-opacity:0.83;stroke:black;stroke-width:4px;"/>
            <rect x="708.597" y="274.532" width="136.584" height="136.584" style="fill:white;fill-opacity:0.83;stroke:black;stroke-width:4px;"/>
            <rect x="708.76" y="546.532" width="136.584" height="136.584" style="fill:white;fill-opacity:0.83;stroke:black;stroke-width:4px;"/>
            <rect x="162.26" y="274.532" width="136.584" height="136.584" style="fill:rgb(250,112,255);fill-opacity:0.83;stroke:black;stroke-width:4px;"/>
            <rect x="162.423" y="546.532" width="136.584" height="136.584" style="fill:white;fill-opacity:0.83;stroke:black;stroke-width:4px;"/>
            <rect x="981.429" y="137.86" width="136.584" height="136.584" style="fill:white;fill-opacity:0.83;stroke:black;stroke-width:4px;"/>
            <rect x="981.591" y="409.86" width="136.584" height="136.584" style="fill:white;fill-opacity:0.83;stroke:black;stroke-width:4px;"/>
            <rect x="25.257" y="138.986" width="136.584" height="136.584" style="fill:white;fill-opacity:0.83;stroke:black;stroke-width:4px;"/>
            <rect x="25.257" y="408.986" width="136.584" height="136.584" style="fill:white;fill-opacity:0.83;stroke:black;stroke-width:4px;"/>
            <rect x="572.013" y="274.532" width="136.584" height="136.584" style="fill:white;fill-opacity:0.83;stroke:black;stroke-width:4px;"/>
            <rect x="572.176" y="546.532" width="136.584" height="136.584" style="fill:white;fill-opacity:0.83;stroke:black;stroke-width:4px;"/>
            <rect x="25.676" y="274.532" width="136.584" height="136.584" style="fill:white;fill-opacity:0.83;stroke:black;stroke-width:4px;"/>
            <rect x="25.838" y="546.532" width="136.584" height="136.584" style="fill:white;fill-opacity:0.83;stroke:black;stroke-width:4px;"/>
            <rect x="298.426" y="138.986" width="136.584" height="136.584" style="fill:rgb(250,112,255);fill-opacity:0.83;stroke:black;stroke-width:4px;"/>
            <rect x="298.426" y="408.986" width="136.584" height="136.584" style="fill:rgb(250,112,255);fill-opacity:0.83;stroke:black;stroke-width:4px;"/>
            <rect x="845.181" y="274.532" width="136.584" height="136.584" style="fill:white;fill-opacity:0.83;stroke:black;stroke-width:4px;"/>
            <rect x="845.344" y="546.532" width="136.584" height="136.584" style="fill:white;fill-opacity:0.83;stroke:black;stroke-width:4px;"/>
            <rect x="298.844" y="274.532" width="136.584" height="136.584" style="fill:rgb(45,231,231);fill-opacity:0.83;stroke:black;stroke-width:4px;"/>
            <rect x="299.007" y="546.532" width="136.584" height="136.584" style="fill:white;fill-opacity:0.83;stroke:black;stroke-width:4px;"/>
            <rect x="435.01" y="138.986" width="136.584" height="136.584" style="fill:rgb(251,182,255);fill-opacity:0.83;stroke:black;stroke-width:4px;"/>
            <rect x="435.01" y="408.986" width="136.584" height="136.584" style="fill:rgb(251,182,255);fill-opacity:0.83;stroke:black;stroke-width:4px;"/>
            <rect x="981.766" y="274.532" width="136.584" height="136.584" style="fill:white;fill-opacity:0.83;stroke:black;stroke-width:4px;"/>
            <rect x="981.929" y="546.532" width="136.584" height="136.584" style="fill:white;fill-opacity:0.83;stroke:black;stroke-width:4px;"/>
            <rect x="435.429" y="274.532" width="136.584" height="136.584" style="fill:rgb(250,112,255);fill-opacity:0.83;stroke:black;stroke-width:4px;"/>
            <rect x="435.591" y="546.532" width="136.584" height="136.584" style="fill:white;fill-opacity:0.83;stroke:black;stroke-width:4px;"/>
            <path d="M82.72,218.718L90.504,218.718L90.504,196.598L91.344,192.79L88.656,196.094L83.672,199.51L80.592,195.31L93.36,185.006L97.448,185.006L97.448,218.718L105.064,218.718L105.064,224.878L82.72,224.878L82.72,218.718Z" style="fill-rule:nonzero;"/>
            <path d="M66.838,491.054L74.622,491.054L74.622,468.934L75.462,465.126L72.774,468.43L67.79,471.846L64.71,467.646L77.478,457.342L81.566,457.342L81.566,491.054L89.182,491.054L89.182,497.214L66.838,497.214L66.838,491.054Z" style="fill-rule:nonzero;"/>
            <path d="M98.758,497.214L111.582,467.03L114.046,464.286L110.686,464.846L96.294,464.846L96.294,458.014L121.55,458.014L121.55,460.142L105.87,497.214L98.758,497.214Z" style="fill-rule:nonzero;"/>
            <path d="M635.244,218.211C637.708,218.211 639.593,217.614 640.9,216.419C642.206,215.224 642.86,213.582 642.86,211.491C642.86,209.251 642.094,207.608 640.564,206.563C639.033,205.518 636.849,204.995 634.012,204.995L629.588,205.163L629.588,184.667L648.852,184.667L648.852,191.499L635.86,191.499L635.86,199.059L638.156,198.835C639.985,198.91 641.637,199.246 643.112,199.843C644.586,200.44 645.846,201.271 646.892,202.335C647.937,203.399 648.74,204.687 649.3,206.199C649.86,207.711 650.14,209.4 650.14,211.267C650.14,213.47 649.766,215.411 649.02,217.091C648.273,218.771 647.237,220.171 645.912,221.291C644.586,222.411 643.028,223.251 641.236,223.811C639.444,224.371 637.484,224.651 635.356,224.651C633.676,224.651 632.08,224.511 630.568,224.231C629.056,223.951 627.777,223.568 626.732,223.083L628.692,217.035C629.55,217.408 630.493,217.698 631.52,217.903C632.546,218.108 633.788,218.211 635.244,218.211Z" style="fill-rule:nonzero;"/>
            <path d="M634.922,466.806C634.922,468.71 634.577,470.633 633.886,472.574C633.196,474.516 632.318,476.42 631.254,478.286C630.19,480.153 629.014,481.954 627.726,483.69C626.438,485.426 625.178,487.022 623.946,488.478L620.978,490.774L620.978,491.054L625.01,490.27L635.762,490.27L635.762,496.43L612.186,496.43L612.186,492.678C613.082,491.745 614.09,490.653 615.21,489.402C616.33,488.152 617.46,486.826 618.598,485.426C619.737,484.026 620.848,482.58 621.93,481.086C623.013,479.593 623.984,478.09 624.842,476.578C625.701,475.066 626.382,473.601 626.886,472.182C627.39,470.764 627.642,469.42 627.642,468.15C627.642,466.62 627.204,465.36 626.326,464.37C625.449,463.381 624.058,462.886 622.154,462.886C620.96,462.886 619.737,463.138 618.486,463.642C617.236,464.146 616.181,464.79 615.322,465.574L612.41,460.422C613.866,459.228 615.518,458.266 617.366,457.538C619.214,456.81 621.389,456.446 623.89,456.446C625.496,456.446 626.97,456.67 628.314,457.118C629.658,457.566 630.816,458.22 631.786,459.078C632.757,459.937 633.522,461.01 634.082,462.298C634.642,463.586 634.922,465.089 634.922,466.806Z" style="fill-rule:nonzero;"/>
            <path d="M645.73,490.27L653.514,490.27L653.514,468.15L654.354,464.342L651.666,467.646L646.682,471.062L643.602,466.862L656.37,456.558L660.458,456.558L660.458,490.27L668.074,490.27L668.074,496.43L645.73,496.43L645.73,490.27Z" style="fill-rule:nonzero;"/>
            <path d="M79.444,336.625C79.444,334.721 79.733,332.966 80.312,331.361C80.89,329.756 81.73,328.384 82.832,327.245C83.933,326.106 85.277,325.21 86.864,324.557C88.45,323.904 90.27,323.577 92.324,323.577C96.542,323.577 99.856,324.837 102.264,327.357C104.672,329.877 105.876,333.545 105.876,338.361C105.876,342.692 105.325,346.434 104.224,349.589C103.122,352.744 101.648,355.376 99.8,357.485C97.952,359.594 95.814,361.209 93.388,362.329C90.961,363.449 88.404,364.121 85.716,364.345L84.148,358.633C86.201,358.372 88.03,357.868 89.636,357.121C91.241,356.374 92.622,355.45 93.78,354.349C94.937,353.248 95.88,351.997 96.608,350.597C97.336,349.197 97.849,347.694 98.148,346.089C97.252,347.06 96.29,347.732 95.264,348.105C94.237,348.478 92.865,348.665 91.148,348.665C89.729,348.665 88.32,348.422 86.92,347.937C85.52,347.452 84.269,346.714 83.168,345.725C82.066,344.736 81.17,343.485 80.48,341.973C79.789,340.461 79.444,338.678 79.444,336.625ZM86.5,336.233C86.5,338.361 87.097,339.966 88.292,341.049C89.486,342.132 90.98,342.673 92.772,342.673C94.302,342.673 95.553,342.43 96.524,341.945C97.494,341.46 98.241,340.862 98.764,340.153C98.876,339.369 98.932,338.622 98.932,337.913C98.932,336.868 98.801,335.841 98.54,334.833C98.278,333.825 97.877,332.929 97.336,332.145C96.794,331.361 96.104,330.736 95.264,330.269C94.424,329.802 93.425,329.569 92.268,329.569C90.438,329.569 89.02,330.157 88.012,331.333C87.004,332.509 86.5,334.142 86.5,336.233Z" style="fill-rule:nonzero;"/>
            <path d="M89.314,604.8C89.314,606.704 88.969,608.627 88.278,610.568C87.588,612.509 86.71,614.413 85.646,616.28C84.582,618.147 83.406,619.948 82.118,621.684C80.83,623.42 79.57,625.016 78.338,626.472L75.37,628.768L75.37,629.048L79.402,628.264L90.154,628.264L90.154,634.424L66.578,634.424L66.578,630.672C67.474,629.739 68.482,628.647 69.602,627.396C70.722,626.145 71.852,624.82 72.99,623.42C74.129,622.02 75.24,620.573 76.322,619.08C77.405,617.587 78.376,616.084 79.234,614.572C80.093,613.06 80.774,611.595 81.278,610.176C81.782,608.757 82.034,607.413 82.034,606.144C82.034,604.613 81.596,603.353 80.718,602.364C79.841,601.375 78.45,600.88 76.546,600.88C75.352,600.88 74.129,601.132 72.878,601.636C71.628,602.14 70.573,602.784 69.714,603.568L66.802,598.416C68.258,597.221 69.91,596.26 71.758,595.532C73.606,594.804 75.781,594.44 78.282,594.44C79.888,594.44 81.362,594.664 82.706,595.112C84.05,595.56 85.208,596.213 86.178,597.072C87.149,597.931 87.914,599.004 88.474,600.292C89.034,601.58 89.314,603.083 89.314,604.8Z" style="fill-rule:nonzero;"/>
            <path d="M106.786,628.768C109.25,628.768 111.136,628.171 112.442,626.976C113.749,625.781 114.402,624.139 114.402,622.048C114.402,619.808 113.637,618.165 112.106,617.12C110.576,616.075 108.392,615.552 105.554,615.552L101.13,615.72L101.13,595.224L120.394,595.224L120.394,602.056L107.402,602.056L107.402,609.616L109.698,609.392C111.528,609.467 113.18,609.803 114.654,610.4C116.129,610.997 117.389,611.828 118.434,612.892C119.48,613.956 120.282,615.244 120.842,616.756C121.402,618.268 121.682,619.957 121.682,621.824C121.682,624.027 121.309,625.968 120.562,627.648C119.816,629.328 118.78,630.728 117.454,631.848C116.129,632.968 114.57,633.808 112.778,634.368C110.986,634.928 109.026,635.208 106.898,635.208C105.218,635.208 103.622,635.068 102.11,634.788C100.598,634.508 99.32,634.125 98.274,633.64L100.234,627.592C101.093,627.965 102.036,628.255 103.062,628.46C104.089,628.665 105.33,628.768 106.786,628.768Z" style="fill-rule:nonzero;"/>
            <path d="M614.377,355.816L622.161,355.816L622.161,333.696L623.001,329.888L620.313,333.192L615.329,336.608L612.249,332.408L625.017,322.104L629.105,322.104L629.105,355.816L636.721,355.816L636.721,361.976L614.377,361.976L614.377,355.816Z" style="fill-rule:nonzero;"/>
            <path d="M653.969,356.6C656.284,356.6 658.048,355.984 659.261,354.752C660.474,353.52 661.081,352.027 661.081,350.272C661.081,348.144 660.446,346.576 659.177,345.568C657.908,344.56 655.91,344.056 653.185,344.056L649.153,344.056L649.153,340.192L655.929,330.952L659.121,328.432L654.697,328.936L645.289,328.936L645.289,322.776L666.681,322.776L666.681,326.752L658.785,337.336L656.321,338.848L656.321,339.128L658.673,338.792C659.98,338.904 661.221,339.203 662.397,339.688C663.573,340.173 664.6,340.873 665.477,341.788C666.354,342.703 667.054,343.832 667.577,345.176C668.1,346.52 668.361,348.069 668.361,349.824C668.361,352.027 667.997,353.931 667.269,355.536C666.541,357.141 665.533,358.485 664.245,359.568C662.957,360.651 661.454,361.453 659.737,361.976C658.02,362.499 656.172,362.76 654.193,362.76C652.55,362.76 650.852,362.611 649.097,362.312C647.342,362.013 645.924,361.584 644.841,361.024L646.801,354.976C647.772,355.461 648.845,355.853 650.021,356.152C651.197,356.451 652.513,356.6 653.969,356.6Z" style="fill-rule:nonzero;"/>
            <path d="M635.484,604.352C635.484,606.256 635.138,608.179 634.448,610.12C633.757,612.061 632.88,613.965 631.816,615.832C630.752,617.699 629.576,619.5 628.288,621.236C627,622.972 625.74,624.568 624.508,626.024L621.54,628.32L621.54,628.6L625.572,627.816L636.324,627.816L636.324,633.976L612.748,633.976L612.748,630.224C613.644,629.291 614.652,628.199 615.772,626.948C616.892,625.697 618.021,624.372 619.16,622.972C620.298,621.572 621.409,620.125 622.492,618.632C623.574,617.139 624.545,615.636 625.404,614.124C626.262,612.612 626.944,611.147 627.448,609.728C627.952,608.309 628.204,606.965 628.204,605.696C628.204,604.165 627.765,602.905 626.888,601.916C626.01,600.927 624.62,600.432 622.716,600.432C621.521,600.432 620.298,600.684 619.048,601.188C617.797,601.692 616.742,602.336 615.884,603.12L612.972,597.968C614.428,596.773 616.08,595.812 617.928,595.084C619.776,594.356 621.95,593.992 624.452,593.992C626.057,593.992 627.532,594.216 628.876,594.664C630.22,595.112 631.377,595.765 632.348,596.624C633.318,597.483 634.084,598.556 634.644,599.844C635.204,601.132 635.484,602.635 635.484,604.352Z" style="fill-rule:nonzero;"/>
            <path d="M643.156,607.04C643.156,605.136 643.445,603.381 644.024,601.776C644.602,600.171 645.442,598.799 646.544,597.66C647.645,596.521 648.989,595.625 650.576,594.972C652.162,594.319 653.982,593.992 656.036,593.992C660.254,593.992 663.568,595.252 665.976,597.772C668.384,600.292 669.588,603.96 669.588,608.776C669.588,613.107 669.037,616.849 667.936,620.004C666.834,623.159 665.36,625.791 663.512,627.9C661.664,630.009 659.526,631.624 657.1,632.744C654.673,633.864 652.116,634.536 649.428,634.76L647.86,629.048C649.913,628.787 651.742,628.283 653.348,627.536C654.953,626.789 656.334,625.865 657.492,624.764C658.649,623.663 659.592,622.412 660.32,621.012C661.048,619.612 661.561,618.109 661.86,616.504C660.964,617.475 660.002,618.147 658.976,618.52C657.949,618.893 656.577,619.08 654.86,619.08C653.441,619.08 652.032,618.837 650.632,618.352C649.232,617.867 647.981,617.129 646.88,616.14C645.778,615.151 644.882,613.9 644.192,612.388C643.501,610.876 643.156,609.093 643.156,607.04ZM650.212,606.648C650.212,608.776 650.809,610.381 652.004,611.464C653.198,612.547 654.692,613.088 656.484,613.088C658.014,613.088 659.265,612.845 660.236,612.36C661.206,611.875 661.953,611.277 662.476,610.568C662.588,609.784 662.644,609.037 662.644,608.328C662.644,607.283 662.513,606.256 662.252,605.248C661.99,604.24 661.589,603.344 661.048,602.56C660.506,601.776 659.816,601.151 658.976,600.684C658.136,600.217 657.137,599.984 655.98,599.984C654.15,599.984 652.732,600.572 651.724,601.748C650.716,602.924 650.212,604.557 650.212,606.648Z" style="fill-rule:nonzero;"/>
            <path d="M788.228,212.715C788.228,214.544 787.92,216.243 787.304,217.811C786.688,219.379 785.82,220.742 784.7,221.899C783.58,223.056 782.227,223.971 780.64,224.643C779.053,225.315 777.308,225.651 775.404,225.651C773.463,225.651 771.68,225.343 770.056,224.727C768.432,224.111 767.023,223.187 765.828,221.955C764.633,220.723 763.7,219.174 763.028,217.307C762.356,215.44 762.02,213.275 762.02,210.811C762.02,207.115 762.552,203.774 763.616,200.787C764.68,197.8 766.117,195.196 767.928,192.975C769.739,190.754 771.848,188.962 774.256,187.599C776.664,186.236 779.212,185.331 781.9,184.883L783.524,190.651C781.657,190.95 779.94,191.528 778.372,192.387C776.804,193.246 775.413,194.272 774.2,195.467C772.987,196.662 771.96,197.996 771.12,199.471C770.28,200.946 769.692,202.467 769.356,204.035C770.103,203.102 771.073,202.308 772.268,201.655C773.463,201.002 774.956,200.675 776.748,200.675C778.428,200.675 779.977,200.936 781.396,201.459C782.815,201.982 784.028,202.756 785.036,203.783C786.044,204.81 786.828,206.07 787.388,207.563C787.948,209.056 788.228,210.774 788.228,212.715ZM781.172,213.107C781.172,208.926 779.119,206.835 775.012,206.835C773.519,206.835 772.259,207.171 771.232,207.843C770.205,208.515 769.487,209.299 769.076,210.195C769.001,210.606 768.964,210.96 768.964,211.259L768.964,212.155C768.964,213.051 769.095,213.938 769.356,214.815C769.617,215.692 770,216.476 770.504,217.167C771.008,217.858 771.652,218.418 772.436,218.847C773.22,219.276 774.153,219.491 775.236,219.491C776.991,219.491 778.419,218.894 779.52,217.699C780.621,216.504 781.172,214.974 781.172,213.107Z" style="fill-rule:nonzero;"/>
            <path d="M771.787,467.646C771.787,469.55 771.441,471.473 770.751,473.414C770.06,475.356 769.183,477.26 768.119,479.126C767.055,480.993 765.879,482.794 764.591,484.53C763.303,486.266 762.043,487.862 760.811,489.318L757.843,491.614L757.843,491.894L761.875,491.11L772.627,491.11L772.627,497.27L749.051,497.27L749.051,493.518C749.947,492.585 750.955,491.493 752.075,490.242C753.195,488.992 754.324,487.666 755.463,486.266C756.601,484.866 757.712,483.42 758.795,481.926C759.877,480.433 760.848,478.93 761.707,477.418C762.565,475.906 763.247,474.441 763.751,473.022C764.255,471.604 764.507,470.26 764.507,468.99C764.507,467.46 764.068,466.2 763.191,465.21C762.313,464.221 760.923,463.726 759.019,463.726C757.824,463.726 756.601,463.978 755.351,464.482C754.1,464.986 753.045,465.63 752.187,466.414L749.275,461.262C750.731,460.068 752.383,459.106 754.231,458.378C756.079,457.65 758.253,457.286 760.755,457.286C762.36,457.286 763.835,457.51 765.179,457.958C766.523,458.406 767.68,459.06 768.651,459.918C769.621,460.777 770.387,461.85 770.947,463.138C771.507,464.426 771.787,465.929 771.787,467.646Z" style="fill-rule:nonzero;"/>
            <path d="M803.539,467.646C803.539,469.55 803.193,471.473 802.503,473.414C801.812,475.356 800.935,477.26 799.871,479.126C798.807,480.993 797.631,482.794 796.343,484.53C795.055,486.266 793.795,487.862 792.563,489.318L789.595,491.614L789.595,491.894L793.627,491.11L804.379,491.11L804.379,497.27L780.803,497.27L780.803,493.518C781.699,492.585 782.707,491.493 783.827,490.242C784.947,488.992 786.076,487.666 787.215,486.266C788.353,484.866 789.464,483.42 790.547,481.926C791.629,480.433 792.6,478.93 793.459,477.418C794.317,475.906 794.999,474.441 795.503,473.022C796.007,471.604 796.259,470.26 796.259,468.99C796.259,467.46 795.82,466.2 794.943,465.21C794.065,464.221 792.675,463.726 790.771,463.726C789.576,463.726 788.353,463.978 787.103,464.482C785.852,464.986 784.797,465.63 783.939,466.414L781.027,461.262C782.483,460.068 784.135,459.106 785.983,458.378C787.831,457.65 790.005,457.286 792.507,457.286C794.112,457.286 795.587,457.51 796.931,457.958C798.275,458.406 799.432,459.06 800.403,459.918C801.373,460.777 802.139,461.85 802.699,463.138C803.259,464.426 803.539,465.929 803.539,467.646Z" style="fill-rule:nonzero;"/>
            <path d="M203.784,356.832L211.568,356.832L211.568,334.712L212.408,330.904L209.72,334.208L204.736,337.624L201.656,333.424L214.424,323.12L218.512,323.12L218.512,356.832L226.128,356.832L226.128,362.992L203.784,362.992L203.784,356.832Z" style="fill-rule:nonzero;"/>
            <path d="M232.12,343.336C232.12,336.467 233.296,331.362 235.648,328.02C238,324.679 241.379,323.008 245.784,323.008C250.488,323.008 253.941,324.66 256.144,327.964C258.347,331.268 259.448,336.392 259.448,343.336C259.448,350.243 258.263,355.376 255.892,358.736C253.521,362.096 250.133,363.776 245.728,363.776C241.061,363.776 237.627,362.012 235.424,358.484C233.221,354.956 232.12,349.907 232.12,343.336ZM239.4,343.336C239.4,347.891 239.895,351.41 240.884,353.892C241.873,356.375 243.507,357.616 245.784,357.616C247.987,357.616 249.601,356.478 250.628,354.2C251.655,351.923 252.168,348.302 252.168,343.336C252.168,338.819 251.683,335.328 250.712,332.864C249.741,330.4 248.08,329.168 245.728,329.168C243.488,329.168 241.873,330.326 240.884,332.64C239.895,334.955 239.4,338.52 239.4,343.336Z" style="fill-rule:nonzero;"/>
            <path d="M224.891,605.368C224.891,607.272 224.545,609.195 223.855,611.136C223.164,613.078 222.287,614.982 221.223,616.848C220.159,618.715 218.983,620.516 217.695,622.252C216.407,623.988 215.147,625.584 213.915,627.04L210.947,629.336L210.947,629.616L214.979,628.832L225.731,628.832L225.731,634.992L202.155,634.992L202.155,631.24C203.051,630.307 204.059,629.215 205.179,627.964C206.299,626.714 207.428,625.388 208.567,623.988C209.705,622.588 210.816,621.142 211.899,619.648C212.981,618.155 213.952,616.652 214.811,615.14C215.669,613.628 216.351,612.163 216.855,610.744C217.359,609.326 217.611,607.982 217.611,606.712C217.611,605.182 217.172,603.922 216.295,602.932C215.417,601.943 214.027,601.448 212.123,601.448C210.928,601.448 209.705,601.7 208.455,602.204C207.204,602.708 206.149,603.352 205.291,604.136L202.379,598.984C203.835,597.79 205.487,596.828 207.335,596.1C209.183,595.372 211.357,595.008 213.859,595.008C215.464,595.008 216.939,595.232 218.283,595.68C219.627,596.128 220.784,596.782 221.755,597.64C222.725,598.499 223.491,599.572 224.051,600.86C224.611,602.148 224.891,603.651 224.891,605.368Z" style="fill-rule:nonzero;"/>
            <path d="M259.163,622.84C259.163,624.67 258.855,626.368 258.239,627.936C257.623,629.504 256.755,630.867 255.635,632.024C254.515,633.182 253.161,634.096 251.575,634.768C249.988,635.44 248.243,635.776 246.339,635.776C244.397,635.776 242.615,635.468 240.991,634.852C239.367,634.236 237.957,633.312 236.763,632.08C235.568,630.848 234.635,629.299 233.963,627.432C233.291,625.566 232.955,623.4 232.955,620.936C232.955,617.24 233.487,613.899 234.551,610.912C235.615,607.926 237.052,605.322 238.863,603.1C240.673,600.879 242.783,599.087 245.191,597.724C247.599,596.362 250.147,595.456 252.835,595.008L254.459,600.776C252.592,601.075 250.875,601.654 249.307,602.512C247.739,603.371 246.348,604.398 245.135,605.592C243.921,606.787 242.895,608.122 242.055,609.596C241.215,611.071 240.627,612.592 240.291,614.16C241.037,613.227 242.008,612.434 243.203,611.78C244.397,611.127 245.891,610.8 247.683,610.8C249.363,610.8 250.912,611.062 252.331,611.584C253.749,612.107 254.963,612.882 255.971,613.908C256.979,614.935 257.763,616.195 258.323,617.688C258.883,619.182 259.163,620.899 259.163,622.84ZM252.107,623.232C252.107,619.051 250.053,616.96 245.947,616.96C244.453,616.96 243.193,617.296 242.167,617.968C241.14,618.64 240.421,619.424 240.011,620.32C239.936,620.731 239.899,621.086 239.899,621.384L239.899,622.28C239.899,623.176 240.029,624.063 240.291,624.94C240.552,625.818 240.935,626.602 241.439,627.292C241.943,627.983 242.587,628.543 243.371,628.972C244.155,629.402 245.088,629.616 246.171,629.616C247.925,629.616 249.353,629.019 250.455,627.824C251.556,626.63 252.107,625.099 252.107,623.232Z" style="fill-rule:nonzero;"/>
            <path d="M748.721,356.6L756.505,356.6L756.505,334.48L757.345,330.672L754.657,333.976L749.673,337.392L746.593,333.192L759.361,322.888L763.449,322.888L763.449,356.6L771.065,356.6L771.065,362.76L748.721,362.76L748.721,356.6Z" style="fill-rule:nonzero;"/>
            <path d="M805.785,351.84L799.625,351.84L799.625,362.76L792.849,362.76L792.849,351.84L775.881,351.84L775.881,347.696L793.633,323.28L799.625,323.28L799.625,346.016L805.785,346.016L805.785,351.84ZM792.849,337.448L793.353,332.744L793.129,332.744L791.225,336.776L785.401,344.336L782.601,346.464L786.185,346.016L792.849,346.016L792.849,337.448Z" style="fill-rule:nonzero;"/>
            <path d="M756.724,629.384C759.039,629.384 760.803,628.768 762.016,627.536C763.229,626.304 763.836,624.811 763.836,623.056C763.836,620.928 763.201,619.36 761.932,618.352C760.663,617.344 758.665,616.84 755.94,616.84L751.908,616.84L751.908,612.976L758.684,603.736L761.876,601.216L757.452,601.72L748.044,601.72L748.044,595.56L769.436,595.56L769.436,599.536L761.54,610.12L759.076,611.632L759.076,611.912L761.428,611.576C762.735,611.688 763.976,611.987 765.152,612.472C766.328,612.957 767.355,613.657 768.232,614.572C769.109,615.487 769.809,616.616 770.332,617.96C770.855,619.304 771.116,620.853 771.116,622.608C771.116,624.811 770.752,626.715 770.024,628.32C769.296,629.925 768.288,631.269 767,632.352C765.712,633.435 764.209,634.237 762.492,634.76C760.775,635.283 758.927,635.544 756.948,635.544C755.305,635.544 753.607,635.395 751.852,635.096C750.097,634.797 748.679,634.368 747.596,633.808L749.556,627.76C750.527,628.245 751.6,628.637 752.776,628.936C753.952,629.235 755.268,629.384 756.724,629.384Z" style="fill-rule:nonzero;"/>
            <path d="M777.22,615.104C777.22,608.235 778.396,603.129 780.748,599.788C783.1,596.447 786.479,594.776 790.884,594.776C795.588,594.776 799.041,596.428 801.244,599.732C803.447,603.036 804.548,608.16 804.548,615.104C804.548,622.011 803.363,627.144 800.992,630.504C798.621,633.864 795.233,635.544 790.828,635.544C786.161,635.544 782.727,633.78 780.524,630.252C778.321,626.724 777.22,621.675 777.22,615.104ZM784.5,615.104C784.5,619.659 784.995,623.177 785.984,625.66C786.973,628.143 788.607,629.384 790.884,629.384C793.087,629.384 794.701,628.245 795.728,625.968C796.755,623.691 797.268,620.069 797.268,615.104C797.268,610.587 796.783,607.096 795.812,604.632C794.841,602.168 793.18,600.936 790.828,600.936C788.588,600.936 786.973,602.093 785.984,604.408C784.995,606.723 784.5,610.288 784.5,615.104Z" style="fill-rule:nonzero;"/>
            <path d="M363.609,219.502C365.924,219.502 367.688,218.886 368.901,217.654C370.114,216.422 370.721,214.929 370.721,213.174C370.721,211.046 370.086,209.478 368.817,208.47C367.548,207.462 365.55,206.958 362.825,206.958L358.793,206.958L358.793,203.094L365.569,193.854L368.761,191.334L364.337,191.838L354.929,191.838L354.929,185.678L376.321,185.678L376.321,189.654L368.425,200.238L365.961,201.75L365.961,202.03L368.313,201.694C369.62,201.806 370.861,202.105 372.037,202.59C373.213,203.076 374.24,203.776 375.117,204.69C375.994,205.605 376.694,206.734 377.217,208.078C377.74,209.422 378.001,210.972 378.001,212.726C378.001,214.929 377.637,216.833 376.909,218.438C376.181,220.044 375.173,221.388 373.885,222.47C372.597,223.553 371.094,224.356 369.377,224.878C367.66,225.401 365.812,225.662 363.833,225.662C362.19,225.662 360.492,225.513 358.737,225.214C356.982,224.916 355.564,224.486 354.481,223.926L356.441,217.878C357.412,218.364 358.485,218.756 359.661,219.054C360.837,219.353 362.153,219.502 363.609,219.502Z" style="fill-rule:nonzero;"/>
            <path d="M339.839,490.27L347.623,490.27L347.623,468.15L348.463,464.342L345.775,467.646L340.791,471.062L337.711,466.862L350.479,456.558L354.567,456.558L354.567,490.27L362.183,490.27L362.183,496.43L339.839,496.43L339.839,490.27Z" style="fill-rule:nonzero;"/>
            <path d="M368.455,469.494C368.455,467.59 368.744,465.836 369.323,464.23C369.902,462.625 370.742,461.253 371.843,460.114C372.944,458.976 374.288,458.08 375.875,457.426C377.462,456.773 379.282,456.446 381.335,456.446C385.554,456.446 388.867,457.706 391.275,460.226C393.683,462.746 394.887,466.414 394.887,471.23C394.887,475.561 394.336,479.304 393.235,482.458C392.134,485.613 390.659,488.245 388.811,490.354C386.963,492.464 384.826,494.078 382.399,495.198C379.972,496.318 377.415,496.99 374.727,497.214L373.159,491.502C375.212,491.241 377.042,490.737 378.647,489.99C380.252,489.244 381.634,488.32 382.791,487.218C383.948,486.117 384.891,484.866 385.619,483.466C386.347,482.066 386.86,480.564 387.159,478.958C386.263,479.929 385.302,480.601 384.275,480.974C383.248,481.348 381.876,481.534 380.159,481.534C378.74,481.534 377.331,481.292 375.931,480.806C374.531,480.321 373.28,479.584 372.179,478.594C371.078,477.605 370.182,476.354 369.491,474.842C368.8,473.33 368.455,471.548 368.455,469.494ZM375.511,469.102C375.511,471.23 376.108,472.836 377.303,473.918C378.498,475.001 379.991,475.542 381.783,475.542C383.314,475.542 384.564,475.3 385.535,474.814C386.506,474.329 387.252,473.732 387.775,473.022C387.887,472.238 387.943,471.492 387.943,470.782C387.943,469.737 387.812,468.71 387.551,467.702C387.29,466.694 386.888,465.798 386.347,465.014C385.806,464.23 385.115,463.605 384.275,463.138C383.435,462.672 382.436,462.438 381.279,462.438C379.45,462.438 378.031,463.026 377.023,464.202C376.015,465.378 375.511,467.012 375.511,469.102Z" style="fill-rule:nonzero;"/>
            <path d="M902.937,224.835L915.761,194.651L918.225,191.907L914.865,192.467L900.473,192.467L900.473,185.635L925.729,185.635L925.729,187.763L910.049,224.835L902.937,224.835Z" style="fill-rule:nonzero;"/>
            <path d="M908.147,468.128C908.147,470.032 907.802,471.955 907.111,473.896C906.42,475.838 905.543,477.742 904.479,479.608C903.415,481.475 902.239,483.276 900.951,485.012C899.663,486.748 898.403,488.344 897.171,489.8L894.203,492.096L894.203,492.376L898.235,491.592L908.987,491.592L908.987,497.752L885.411,497.752L885.411,494C886.307,493.067 887.315,491.975 888.435,490.724C889.555,489.474 890.684,488.148 891.823,486.748C892.962,485.348 894.072,483.902 895.155,482.408C896.238,480.915 897.208,479.412 898.067,477.9C898.926,476.388 899.607,474.923 900.111,473.504C900.615,472.086 900.867,470.742 900.867,469.472C900.867,467.942 900.428,466.682 899.551,465.692C898.674,464.703 897.283,464.208 895.379,464.208C894.184,464.208 892.962,464.46 891.711,464.964C890.46,465.468 889.406,466.112 888.547,466.896L885.635,461.744C887.091,460.55 888.743,459.588 890.591,458.86C892.439,458.132 894.614,457.768 897.115,457.768C898.72,457.768 900.195,457.992 901.539,458.44C902.883,458.888 904.04,459.542 905.011,460.4C905.982,461.259 906.747,462.332 907.307,463.62C907.867,464.908 908.147,466.411 908.147,468.128Z" style="fill-rule:nonzero;"/>
            <path d="M926.795,492.376C929.11,492.376 930.874,491.76 932.087,490.528C933.3,489.296 933.907,487.803 933.907,486.048C933.907,483.92 933.272,482.352 932.003,481.344C930.734,480.336 928.736,479.832 926.011,479.832L921.979,479.832L921.979,475.968L928.755,466.728L931.947,464.208L927.523,464.712L918.115,464.712L918.115,458.552L939.507,458.552L939.507,462.528L931.611,473.112L929.147,474.624L929.147,474.904L931.499,474.568C932.806,474.68 934.047,474.979 935.223,475.464C936.399,475.95 937.426,476.65 938.303,477.564C939.18,478.479 939.88,479.608 940.403,480.952C940.926,482.296 941.187,483.846 941.187,485.6C941.187,487.803 940.823,489.707 940.095,491.312C939.367,492.918 938.359,494.262 937.071,495.344C935.783,496.427 934.28,497.23 932.563,497.752C930.846,498.275 928.998,498.536 927.019,498.536C925.376,498.536 923.678,498.387 921.923,498.088C920.168,497.79 918.75,497.36 917.667,496.8L919.627,490.752C920.598,491.238 921.671,491.63 922.847,491.928C924.023,492.227 925.339,492.376 926.795,492.376Z" style="fill-rule:nonzero;"/>
            <path d="M517.046,213.958L510.886,213.958L510.886,224.878L504.11,224.878L504.11,213.958L487.142,213.958L487.142,209.814L504.894,185.398L510.886,185.398L510.886,208.134L517.046,208.134L517.046,213.958ZM504.11,199.566L504.614,194.862L504.39,194.862L502.486,198.894L496.662,206.454L493.862,208.582L497.446,208.134L504.11,208.134L504.11,199.566Z" style="fill-rule:nonzero;"/>
            <path d="M496.891,466.806C496.891,468.71 496.546,470.633 495.855,472.574C495.165,474.516 494.287,476.42 493.223,478.286C492.159,480.153 490.983,481.954 489.695,483.69C488.407,485.426 487.147,487.022 485.915,488.478L482.947,490.774L482.947,491.054L486.979,490.27L497.731,490.27L497.731,496.43L474.155,496.43L474.155,492.678C475.051,491.745 476.059,490.653 477.179,489.402C478.299,488.152 479.429,486.826 480.567,485.426C481.706,484.026 482.817,482.58 483.899,481.086C484.982,479.593 485.953,478.09 486.811,476.578C487.67,475.066 488.351,473.601 488.855,472.182C489.359,470.764 489.611,469.42 489.611,468.15C489.611,466.62 489.173,465.36 488.295,464.37C487.418,463.381 486.027,462.886 484.123,462.886C482.929,462.886 481.706,463.138 480.455,463.642C479.205,464.146 478.15,464.79 477.291,465.574L474.379,460.422C475.835,459.228 477.487,458.266 479.335,457.538C481.183,456.81 483.358,456.446 485.859,456.446C487.465,456.446 488.939,456.67 490.283,457.118C491.627,457.566 492.785,458.22 493.755,459.078C494.726,459.937 495.491,461.01 496.051,462.298C496.611,463.586 496.891,465.089 496.891,466.806Z" style="fill-rule:nonzero;"/>
            <path d="M504.283,476.774C504.283,469.905 505.459,464.8 507.811,461.458C510.163,458.117 513.542,456.446 517.947,456.446C522.651,456.446 526.105,458.098 528.307,461.402C530.51,464.706 531.611,469.83 531.611,476.774C531.611,483.681 530.426,488.814 528.055,492.174C525.685,495.534 522.297,497.214 517.891,497.214C513.225,497.214 509.79,495.45 507.587,491.922C505.385,488.394 504.283,483.345 504.283,476.774ZM511.563,476.774C511.563,481.329 512.058,484.848 513.047,487.33C514.037,489.813 515.67,491.054 517.947,491.054C520.15,491.054 521.765,489.916 522.791,487.638C523.818,485.361 524.331,481.74 524.331,476.774C524.331,472.257 523.846,468.766 522.875,466.302C521.905,463.838 520.243,462.606 517.891,462.606C515.651,462.606 514.037,463.764 513.047,466.078C512.058,468.393 511.563,471.958 511.563,476.774Z" style="fill-rule:nonzero;"/>
            <path d="M240.136,195.254C240.136,197.158 239.791,199.081 239.1,201.022C238.409,202.964 237.532,204.868 236.468,206.734C235.404,208.601 234.228,210.402 232.94,212.138C231.652,213.874 230.392,215.47 229.16,216.926L226.192,219.222L226.192,219.502L230.224,218.718L240.976,218.718L240.976,224.878L217.4,224.878L217.4,221.126C218.296,220.193 219.304,219.101 220.424,217.85C221.544,216.6 222.673,215.274 223.812,213.874C224.951,212.474 226.061,211.028 227.144,209.534C228.227,208.041 229.197,206.538 230.056,205.026C230.915,203.514 231.596,202.049 232.1,200.63C232.604,199.212 232.856,197.868 232.856,196.598C232.856,195.068 232.417,193.808 231.54,192.818C230.663,191.829 229.272,191.334 227.368,191.334C226.173,191.334 224.951,191.586 223.7,192.09C222.449,192.594 221.395,193.238 220.536,194.022L217.624,188.87C219.08,187.676 220.732,186.714 222.58,185.986C224.428,185.258 226.603,184.894 229.104,184.894C230.709,184.894 232.184,185.118 233.528,185.566C234.872,186.014 236.029,186.668 237,187.526C237.971,188.385 238.736,189.458 239.296,190.746C239.856,192.034 240.136,193.537 240.136,195.254Z" style="fill-rule:nonzero;"/>
            <path d="M203.535,490.718L211.319,490.718L211.319,468.598L212.159,464.79L209.471,468.094L204.487,471.51L201.407,467.31L214.175,457.006L218.263,457.006L218.263,490.718L225.879,490.718L225.879,496.878L203.535,496.878L203.535,490.718Z" style="fill-rule:nonzero;"/>
            <path d="M233.047,487.302C233.047,485.996 233.215,484.829 233.551,483.802C233.887,482.776 234.363,481.842 234.979,481.002C235.595,480.162 236.323,479.406 237.163,478.734C238.003,478.062 238.908,477.446 239.879,476.886C238.049,475.729 236.612,474.394 235.567,472.882C234.521,471.37 233.999,469.494 233.999,467.254C233.999,465.798 234.269,464.436 234.811,463.166C235.352,461.897 236.136,460.796 237.163,459.862C238.189,458.929 239.431,458.201 240.887,457.678C242.343,457.156 243.985,456.894 245.815,456.894C247.495,456.894 249.025,457.118 250.407,457.566C251.788,458.014 252.973,458.649 253.963,459.47C254.952,460.292 255.717,461.29 256.259,462.466C256.8,463.642 257.071,464.94 257.071,466.358C257.071,468.561 256.576,470.428 255.587,471.958C254.597,473.489 253.151,474.889 251.247,476.158C253.487,477.465 255.176,478.902 256.315,480.47C257.453,482.038 258.023,484.054 258.023,486.518C258.023,488.198 257.715,489.72 257.099,491.082C256.483,492.445 255.615,493.612 254.495,494.582C253.375,495.553 252.031,496.309 250.463,496.85C248.895,497.392 247.177,497.662 245.311,497.662C243.444,497.662 241.755,497.41 240.243,496.906C238.731,496.402 237.443,495.702 236.379,494.806C235.315,493.91 234.493,492.828 233.915,491.558C233.336,490.289 233.047,488.87 233.047,487.302ZM251.079,486.574C251.079,485.716 250.873,484.932 250.463,484.222C250.052,483.513 249.52,482.869 248.867,482.29C248.213,481.712 247.485,481.18 246.683,480.694C245.88,480.209 245.068,479.742 244.247,479.294C242.492,480.302 241.288,481.394 240.635,482.57C239.981,483.746 239.655,484.913 239.655,486.07C239.655,487.564 240.168,488.842 241.195,489.906C242.221,490.97 243.649,491.502 245.479,491.502C247.159,491.502 248.512,491.092 249.539,490.27C250.565,489.449 251.079,488.217 251.079,486.574ZM240.943,467.366C240.943,468.262 241.111,469.046 241.447,469.718C241.783,470.39 242.24,470.978 242.819,471.482C243.397,471.986 244.051,472.453 244.779,472.882C245.507,473.312 246.263,473.713 247.047,474.086C249.287,472.182 250.407,470.092 250.407,467.814C250.407,466.246 249.949,465.061 249.035,464.258C248.12,463.456 247.009,463.054 245.703,463.054C244.06,463.054 242.856,463.484 242.091,464.342C241.325,465.201 240.943,466.209 240.943,467.366Z" style="fill-rule:nonzero;"/>
            <path d="M1037.23,215.291C1037.23,213.984 1037.4,212.818 1037.74,211.791C1038.07,210.764 1038.55,209.831 1039.16,208.991C1039.78,208.151 1040.51,207.395 1041.35,206.723C1042.19,206.051 1043.09,205.435 1044.07,204.875C1042.24,203.718 1040.8,202.383 1039.75,200.871C1038.71,199.359 1038.18,197.483 1038.18,195.243C1038.18,193.787 1038.45,192.424 1039,191.155C1039.54,189.886 1040.32,188.784 1041.35,187.851C1042.38,186.918 1043.62,186.19 1045.07,185.667C1046.53,185.144 1048.17,184.883 1050,184.883C1051.68,184.883 1053.21,185.107 1054.59,185.555C1055.97,186.003 1057.16,186.638 1058.15,187.459C1059.14,188.28 1059.9,189.279 1060.44,190.455C1060.99,191.631 1061.26,192.928 1061.26,194.347C1061.26,196.55 1060.76,198.416 1059.77,199.947C1058.78,201.478 1057.34,202.878 1055.43,204.147C1057.67,205.454 1059.36,206.891 1060.5,208.459C1061.64,210.027 1062.21,212.043 1062.21,214.507C1062.21,216.187 1061.9,217.708 1061.29,219.071C1060.67,220.434 1059.8,221.6 1058.68,222.571C1057.56,223.542 1056.22,224.298 1054.65,224.839C1053.08,225.38 1051.36,225.651 1049.5,225.651C1047.63,225.651 1045.94,225.399 1044.43,224.895C1042.92,224.391 1041.63,223.691 1040.57,222.795C1039.5,221.899 1038.68,220.816 1038.1,219.547C1037.52,218.278 1037.23,216.859 1037.23,215.291ZM1055.27,214.563C1055.27,213.704 1055.06,212.92 1054.65,212.211C1054.24,211.502 1053.71,210.858 1053.05,210.279C1052.4,209.7 1051.67,209.168 1050.87,208.683C1050.07,208.198 1049.25,207.731 1048.43,207.283C1046.68,208.291 1045.47,209.383 1044.82,210.559C1044.17,211.735 1043.84,212.902 1043.84,214.059C1043.84,215.552 1044.35,216.831 1045.38,217.895C1046.41,218.959 1047.84,219.491 1049.66,219.491C1051.35,219.491 1052.7,219.08 1053.72,218.259C1054.75,217.438 1055.27,216.206 1055.27,214.563ZM1045.13,195.355C1045.13,196.251 1045.3,197.035 1045.63,197.707C1045.97,198.379 1046.43,198.967 1047.01,199.471C1047.58,199.975 1048.24,200.442 1048.96,200.871C1049.69,201.3 1050.45,201.702 1051.23,202.075C1053.47,200.171 1054.59,198.08 1054.59,195.803C1054.59,194.235 1054.13,193.05 1053.22,192.247C1052.31,191.444 1051.19,191.043 1049.89,191.043C1048.25,191.043 1047.04,191.472 1046.28,192.331C1045.51,193.19 1045.13,194.198 1045.13,195.355Z" style="fill-rule:nonzero;"/>
            <path d="M1043.19,468.912C1043.19,470.816 1042.85,472.739 1042.15,474.68C1041.46,476.622 1040.59,478.526 1039.52,480.392C1038.46,482.259 1037.28,484.06 1036,485.796C1034.71,487.532 1033.45,489.128 1032.21,490.584L1029.25,492.88L1029.25,493.16L1033.28,492.376L1044.03,492.376L1044.03,498.536L1020.46,498.536L1020.46,494.784C1021.35,493.851 1022.36,492.759 1023.48,491.508C1024.6,490.258 1025.73,488.932 1026.87,487.532C1028.01,486.132 1029.12,484.686 1030.2,483.192C1031.28,481.699 1032.25,480.196 1033.11,478.684C1033.97,477.172 1034.65,475.707 1035.15,474.288C1035.66,472.87 1035.91,471.526 1035.91,470.256C1035.91,468.726 1035.47,467.466 1034.6,466.476C1033.72,465.487 1032.33,464.992 1030.42,464.992C1029.23,464.992 1028.01,465.244 1026.76,465.748C1025.51,466.252 1024.45,466.896 1023.59,467.68L1020.68,462.528C1022.13,461.334 1023.79,460.372 1025.63,459.644C1027.48,458.916 1029.66,458.552 1032.16,458.552C1033.77,458.552 1035.24,458.776 1036.58,459.224C1037.93,459.672 1039.09,460.326 1040.06,461.184C1041.03,462.043 1041.79,463.116 1042.35,464.404C1042.91,465.692 1043.19,467.195 1043.19,468.912Z" style="fill-rule:nonzero;"/>
            <path d="M1079.31,487.616L1073.15,487.616L1073.15,498.536L1066.38,498.536L1066.38,487.616L1049.41,487.616L1049.41,483.472L1067.16,459.056L1073.15,459.056L1073.15,481.792L1079.31,481.792L1079.31,487.616ZM1066.38,473.224L1066.88,468.52L1066.65,468.52L1064.75,472.552L1058.93,480.112L1056.13,482.24L1059.71,481.792L1066.38,481.792L1066.38,473.224Z" style="fill-rule:nonzero;"/>
            <path d="M341.152,357.616L348.936,357.616L348.936,335.496L349.776,331.688L347.088,334.992L342.104,338.408L339.024,334.208L351.792,323.904L355.88,323.904L355.88,357.616L363.496,357.616L363.496,363.776L341.152,363.776L341.152,357.616Z" style="fill-rule:nonzero;"/>
            <path d="M372.904,357.616L380.688,357.616L380.688,335.496L381.528,331.688L378.84,334.992L373.856,338.408L370.776,334.208L383.544,323.904L387.632,323.904L387.632,357.616L395.248,357.616L395.248,363.776L372.904,363.776L372.904,357.616Z" style="fill-rule:nonzero;"/>
            <path d="M362.259,606.152C362.259,608.056 361.914,609.979 361.223,611.92C360.532,613.862 359.655,615.766 358.591,617.632C357.527,619.499 356.351,621.3 355.063,623.036C353.775,624.772 352.515,626.368 351.283,627.824L348.315,630.12L348.315,630.4L352.347,629.616L363.099,629.616L363.099,635.776L339.523,635.776L339.523,632.024C340.419,631.091 341.427,629.999 342.547,628.748C343.667,627.498 344.796,626.172 345.935,624.772C347.074,623.372 348.184,621.926 349.267,620.432C350.35,618.939 351.32,617.436 352.179,615.924C353.038,614.412 353.719,612.947 354.223,611.528C354.727,610.11 354.979,608.766 354.979,607.496C354.979,605.966 354.54,604.706 353.663,603.716C352.786,602.727 351.395,602.232 349.491,602.232C348.296,602.232 347.074,602.484 345.823,602.988C344.572,603.492 343.518,604.136 342.659,604.92L339.747,599.768C341.203,598.574 342.855,597.612 344.703,596.884C346.551,596.156 348.726,595.792 351.227,595.792C352.832,595.792 354.307,596.016 355.651,596.464C356.995,596.912 358.152,597.566 359.123,598.424C360.094,599.283 360.859,600.356 361.419,601.644C361.979,602.932 362.259,604.435 362.259,606.152Z" style="fill-rule:nonzero;"/>
            <path d="M373.235,635.776L386.059,605.592L388.523,602.848L385.163,603.408L370.771,603.408L370.771,596.576L396.027,596.576L396.027,598.704L380.347,635.776L373.235,635.776Z" style="fill-rule:nonzero;"/>
            <path d="M478.017,357.616L485.801,357.616L485.801,335.496L486.641,331.688L483.953,334.992L478.969,338.408L475.889,334.208L488.657,323.904L492.745,323.904L492.745,357.616L500.361,357.616L500.361,363.776L478.017,363.776L478.017,357.616Z" style="fill-rule:nonzero;"/>
            <path d="M530.713,334.152C530.713,336.056 530.367,337.979 529.677,339.92C528.986,341.862 528.109,343.766 527.045,345.632C525.981,347.499 524.805,349.3 523.517,351.036C522.229,352.772 520.969,354.368 519.737,355.824L516.769,358.12L516.769,358.4L520.801,357.616L531.553,357.616L531.553,363.776L507.977,363.776L507.977,360.024C508.873,359.091 509.881,357.999 511.001,356.748C512.121,355.498 513.25,354.172 514.389,352.772C515.527,351.372 516.638,349.926 517.721,348.432C518.803,346.939 519.774,345.436 520.633,343.924C521.491,342.412 522.173,340.947 522.677,339.528C523.181,338.11 523.433,336.766 523.433,335.496C523.433,333.966 522.994,332.706 522.117,331.716C521.239,330.727 519.849,330.232 517.945,330.232C516.75,330.232 515.527,330.484 514.277,330.988C513.026,331.492 511.971,332.136 511.113,332.92L508.201,327.768C509.657,326.574 511.309,325.612 513.157,324.884C515.005,324.156 517.179,323.792 519.681,323.792C521.286,323.792 522.761,324.016 524.105,324.464C525.449,324.912 526.606,325.566 527.577,326.424C528.547,327.283 529.313,328.356 529.873,329.644C530.433,330.932 530.713,332.435 530.713,334.152Z" style="fill-rule:nonzero;"/>
            <path d="M499.123,606.152C499.123,608.056 498.778,609.979 498.087,611.92C497.397,613.862 496.519,615.766 495.455,617.632C494.391,619.499 493.215,621.3 491.927,623.036C490.639,624.772 489.379,626.368 488.147,627.824L485.179,630.12L485.179,630.4L489.211,629.616L499.963,629.616L499.963,635.776L476.387,635.776L476.387,632.024C477.283,631.091 478.291,629.999 479.411,628.748C480.531,627.498 481.661,626.172 482.799,624.772C483.938,623.372 485.049,621.926 486.131,620.432C487.214,618.939 488.185,617.436 489.043,615.924C489.902,614.412 490.583,612.947 491.087,611.528C491.591,610.11 491.843,608.766 491.843,607.496C491.843,605.966 491.405,604.706 490.527,603.716C489.65,602.727 488.259,602.232 486.355,602.232C485.161,602.232 483.938,602.484 482.687,602.988C481.437,603.492 480.382,604.136 479.523,604.92L476.611,599.768C478.067,598.574 479.719,597.612 481.567,596.884C483.415,596.156 485.59,595.792 488.091,595.792C489.697,595.792 491.171,596.016 492.515,596.464C493.859,596.912 495.017,597.566 495.987,598.424C496.958,599.283 497.723,600.356 498.283,601.644C498.843,602.932 499.123,604.435 499.123,606.152Z" style="fill-rule:nonzero;"/>
            <path d="M507.691,626.2C507.691,624.894 507.859,623.727 508.195,622.7C508.531,621.674 509.007,620.74 509.623,619.9C510.239,619.06 510.967,618.304 511.807,617.632C512.647,616.96 513.553,616.344 514.523,615.784C512.694,614.627 511.257,613.292 510.211,611.78C509.166,610.268 508.643,608.392 508.643,606.152C508.643,604.696 508.914,603.334 509.455,602.064C509.997,600.795 510.781,599.694 511.807,598.76C512.834,597.827 514.075,597.099 515.531,596.576C516.987,596.054 518.63,595.792 520.459,595.792C522.139,595.792 523.67,596.016 525.051,596.464C526.433,596.912 527.618,597.547 528.607,598.368C529.597,599.19 530.362,600.188 530.903,601.364C531.445,602.54 531.715,603.838 531.715,605.256C531.715,607.459 531.221,609.326 530.231,610.856C529.242,612.387 527.795,613.787 525.891,615.056C528.131,616.363 529.821,617.8 530.959,619.368C532.098,620.936 532.667,622.952 532.667,625.416C532.667,627.096 532.359,628.618 531.743,629.98C531.127,631.343 530.259,632.51 529.139,633.48C528.019,634.451 526.675,635.207 525.107,635.748C523.539,636.29 521.822,636.56 519.955,636.56C518.089,636.56 516.399,636.308 514.887,635.804C513.375,635.3 512.087,634.6 511.023,633.704C509.959,632.808 509.138,631.726 508.559,630.456C507.981,629.187 507.691,627.768 507.691,626.2ZM525.723,625.472C525.723,624.614 525.518,623.83 525.107,623.12C524.697,622.411 524.165,621.767 523.511,621.188C522.858,620.61 522.13,620.078 521.327,619.592C520.525,619.107 519.713,618.64 518.891,618.192C517.137,619.2 515.933,620.292 515.279,621.468C514.626,622.644 514.299,623.811 514.299,624.968C514.299,626.462 514.813,627.74 515.839,628.804C516.866,629.868 518.294,630.4 520.123,630.4C521.803,630.4 523.157,629.99 524.183,629.168C525.21,628.347 525.723,627.115 525.723,625.472ZM515.587,606.264C515.587,607.16 515.755,607.944 516.091,608.616C516.427,609.288 516.885,609.876 517.463,610.38C518.042,610.884 518.695,611.351 519.423,611.78C520.151,612.21 520.907,612.611 521.691,612.984C523.931,611.08 525.051,608.99 525.051,606.712C525.051,605.144 524.594,603.959 523.679,603.156C522.765,602.354 521.654,601.952 520.347,601.952C518.705,601.952 517.501,602.382 516.735,603.24C515.97,604.099 515.587,605.107 515.587,606.264Z" style="fill-rule:nonzero;"/>
            <path d="M1023.51,356.712L1031.3,356.712L1031.3,334.592L1032.14,330.784L1029.45,334.088L1024.47,337.504L1021.39,333.304L1034.15,323L1038.24,323L1038.24,356.712L1045.86,356.712L1045.86,362.872L1023.51,362.872L1023.51,356.712Z" style="fill-rule:nonzero;"/>
            <path d="M1078.73,350.72C1078.73,352.549 1078.42,354.248 1077.81,355.816C1077.19,357.384 1076.32,358.747 1075.2,359.904C1074.08,361.061 1072.73,361.976 1071.14,362.648C1069.56,363.32 1067.81,363.656 1065.91,363.656C1063.96,363.656 1062.18,363.348 1060.56,362.732C1058.93,362.116 1057.53,361.192 1056.33,359.96C1055.13,358.728 1054.2,357.179 1053.53,355.312C1052.86,353.445 1052.52,351.28 1052.52,348.816C1052.52,345.12 1053.05,341.779 1054.12,338.792C1055.18,335.805 1056.62,333.201 1058.43,330.98C1060.24,328.759 1062.35,326.967 1064.76,325.604C1067.17,324.241 1069.71,323.336 1072.4,322.888L1074.03,328.656C1072.16,328.955 1070.44,329.533 1068.87,330.392C1067.31,331.251 1065.91,332.277 1064.7,333.472C1063.49,334.667 1062.46,336.001 1061.62,337.476C1060.78,338.951 1060.19,340.472 1059.86,342.04C1060.61,341.107 1061.58,340.313 1062.77,339.66C1063.96,339.007 1065.46,338.68 1067.25,338.68C1068.93,338.68 1070.48,338.941 1071.9,339.464C1073.32,339.987 1074.53,340.761 1075.54,341.788C1076.55,342.815 1077.33,344.075 1077.89,345.568C1078.45,347.061 1078.73,348.779 1078.73,350.72ZM1071.67,351.112C1071.67,346.931 1069.62,344.84 1065.51,344.84C1064.02,344.84 1062.76,345.176 1061.73,345.848C1060.71,346.52 1059.99,347.304 1059.58,348.2C1059.5,348.611 1059.47,348.965 1059.47,349.264L1059.47,350.16C1059.47,351.056 1059.6,351.943 1059.86,352.82C1060.12,353.697 1060.5,354.481 1061.01,355.172C1061.51,355.863 1062.15,356.423 1062.94,356.852C1063.72,357.281 1064.65,357.496 1065.74,357.496C1067.49,357.496 1068.92,356.899 1070.02,355.704C1071.12,354.509 1071.67,352.979 1071.67,351.112Z" style="fill-rule:nonzero;"/>
            <path d="M1031.52,629.496C1033.83,629.496 1035.6,628.88 1036.81,627.648C1038.02,626.416 1038.63,624.923 1038.63,623.168C1038.63,621.04 1037.99,619.472 1036.72,618.464C1035.45,617.456 1033.46,616.952 1030.73,616.952L1026.7,616.952L1026.7,613.088L1033.48,603.848L1036.67,601.328L1032.25,601.832L1022.84,601.832L1022.84,595.672L1044.23,595.672L1044.23,599.648L1036.33,610.232L1033.87,611.744L1033.87,612.024L1036.22,611.688C1037.53,611.8 1038.77,612.099 1039.94,612.584C1041.12,613.069 1042.15,613.769 1043.03,614.684C1043.9,615.599 1044.6,616.728 1045.12,618.072C1045.65,619.416 1045.91,620.965 1045.91,622.72C1045.91,624.923 1045.55,626.827 1044.82,628.432C1044.09,630.037 1043.08,631.381 1041.79,632.464C1040.51,633.547 1039,634.349 1037.29,634.872C1035.57,635.395 1033.72,635.656 1031.74,635.656C1030.1,635.656 1028.4,635.507 1026.64,635.208C1024.89,634.909 1023.47,634.48 1022.39,633.92L1024.35,627.872C1025.32,628.357 1026.39,628.749 1027.57,629.048C1028.75,629.347 1030.06,629.496 1031.52,629.496Z" style="fill-rule:nonzero;"/>
            <path d="M1076.37,605.248C1076.37,607.152 1076.03,609.075 1075.34,611.016C1074.65,612.957 1073.77,614.861 1072.7,616.728C1071.64,618.595 1070.46,620.396 1069.18,622.132C1067.89,623.868 1066.63,625.464 1065.4,626.92L1062.43,629.216L1062.43,629.496L1066.46,628.712L1077.21,628.712L1077.21,634.872L1053.64,634.872L1053.64,631.12C1054.53,630.187 1055.54,629.095 1056.66,627.844C1057.78,626.593 1058.91,625.268 1060.05,623.868C1061.19,622.468 1062.3,621.021 1063.38,619.528C1064.46,618.035 1065.43,616.532 1066.29,615.02C1067.15,613.508 1067.83,612.043 1068.34,610.624C1068.84,609.205 1069.09,607.861 1069.09,606.592C1069.09,605.061 1068.65,603.801 1067.78,602.812C1066.9,601.823 1065.51,601.328 1063.61,601.328C1062.41,601.328 1061.19,601.58 1059.94,602.084C1058.69,602.588 1057.63,603.232 1056.77,604.016L1053.86,598.864C1055.32,597.669 1056.97,596.708 1058.82,595.98C1060.66,595.252 1062.84,594.888 1065.34,594.888C1066.95,594.888 1068.42,595.112 1069.77,595.56C1071.11,596.008 1072.27,596.661 1073.24,597.52C1074.21,598.379 1074.97,599.452 1075.53,600.74C1076.09,602.028 1076.37,603.531 1076.37,605.248Z" style="fill-rule:nonzero;"/>
            <path d="M887.882,355.816L895.666,355.816L895.666,333.696L896.506,329.888L893.818,333.192L888.834,336.608L885.754,332.408L898.522,322.104L902.61,322.104L902.61,355.816L910.226,355.816L910.226,361.976L887.882,361.976L887.882,355.816Z" style="fill-rule:nonzero;"/>
            <path d="M926.298,356.32C928.762,356.32 930.647,355.723 931.954,354.528C933.26,353.333 933.914,351.691 933.914,349.6C933.914,347.36 933.148,345.717 931.618,344.672C930.087,343.627 927.903,343.104 925.066,343.104L920.642,343.272L920.642,322.776L939.906,322.776L939.906,329.608L926.914,329.608L926.914,337.168L929.21,336.944C931.039,337.019 932.691,337.355 934.166,337.952C935.64,338.549 936.9,339.38 937.946,340.444C938.991,341.508 939.794,342.796 940.354,344.308C940.914,345.82 941.194,347.509 941.194,349.376C941.194,351.579 940.82,353.52 940.074,355.2C939.327,356.88 938.291,358.28 936.966,359.4C935.64,360.52 934.082,361.36 932.29,361.92C930.498,362.48 928.538,362.76 926.41,362.76C924.73,362.76 923.134,362.62 921.622,362.34C920.11,362.06 918.831,361.677 917.786,361.192L919.746,355.144C920.604,355.517 921.547,355.807 922.574,356.012C923.6,356.217 924.842,356.32 926.298,356.32Z" style="fill-rule:nonzero;"/>
            <path d="M895.884,628.6C898.199,628.6 899.963,627.984 901.176,626.752C902.39,625.52 902.996,624.027 902.996,622.272C902.996,620.144 902.362,618.576 901.092,617.568C899.823,616.56 897.826,616.056 895.1,616.056L891.068,616.056L891.068,612.192L897.844,602.952L901.036,600.432L896.612,600.936L887.204,600.936L887.204,594.776L908.596,594.776L908.596,598.752L900.7,609.336L898.236,610.848L898.236,611.128L900.588,610.792C901.895,610.904 903.136,611.203 904.312,611.688C905.488,612.173 906.515,612.873 907.392,613.788C908.27,614.703 908.97,615.832 909.492,617.176C910.015,618.52 910.276,620.069 910.276,621.824C910.276,624.027 909.912,625.931 909.184,627.536C908.456,629.141 907.448,630.485 906.16,631.568C904.872,632.651 903.37,633.453 901.652,633.976C899.935,634.499 898.087,634.76 896.108,634.76C894.466,634.76 892.767,634.611 891.012,634.312C889.258,634.013 887.839,633.584 886.756,633.024L888.716,626.976C889.687,627.461 890.76,627.853 891.936,628.152C893.112,628.451 894.428,628.6 895.884,628.6Z" style="fill-rule:nonzero;"/>
            <path d="M919.796,627.816L927.58,627.816L927.58,605.696L928.42,601.888L925.732,605.192L920.748,608.608L917.668,604.408L930.436,594.104L934.524,594.104L934.524,627.816L942.14,627.816L942.14,633.976L919.796,633.976L919.796,627.816Z" style="fill-rule:nonzero;"/>
        </g>
        <g id="Linear-row" serif:id="Linear row">
            <rect x="490.33" y="770.691" width="116.72" height="116.72" style="fill:white;fill-opacity:0.83;stroke:black;stroke-width:4px;"/>
            <rect x="723.77" y="770.691" width="116.72" height="116.72" style="fill:white;fill-opacity:0.83;stroke:black;stroke-width:4px;"/>
            <rect x="607.05" y="770.691" width="116.72" height="116.72" style="fill:white;fill-opacity:0.83;stroke:black;stroke-width:4px;"/>
            <rect x="141.314" y="770.691" width="116.72" height="116.72" style="fill:rgb(252,195,255);fill-opacity:0.83;stroke:black;stroke-width:4px;"/>
            <rect x="1539.66" y="769.934" width="116.72" height="116.72" style="fill:white;fill-opacity:0.83;stroke:black;stroke-width:4px;"/>
            <rect x="2007.11" y="769.934" width="116.72" height="116.72" style="fill:rgb(252,195,255);fill-opacity:0.83;stroke:black;stroke-width:4px;"/>
            <rect x="1072.79" y="769.934" width="116.72" height="116.72" style="fill:rgb(251,137,255);fill-opacity:0.83;stroke:black;stroke-width:4px;"/>
            <rect x="840.489" y="770.691" width="116.72" height="116.72" style="fill:white;fill-opacity:0.83;stroke:black;stroke-width:4px;"/>
            <rect x="24.594" y="770.691" width="116.72" height="116.72" style="fill:white;fill-opacity:0.83;stroke:black;stroke-width:4px;"/>
            <rect x="1422.94" y="769.934" width="116.72" height="116.72" style="fill:white;fill-opacity:0.83;stroke:black;stroke-width:4px;"/>
            <rect x="1890.39" y="769.934" width="116.72" height="116.72" style="fill:white;fill-opacity:0.83;stroke:black;stroke-width:4px;"/>
            <rect x="956.066" y="769.934" width="116.72" height="116.72" style="fill:white;fill-opacity:0.83;stroke:black;stroke-width:4px;"/>
            <rect x="258.034" y="770.691" width="116.72" height="116.72" style="fill:rgb(251,137,255);fill-opacity:0.83;stroke:black;stroke-width:4px;"/>
            <rect x="1656.38" y="769.934" width="116.72" height="116.72" style="fill:white;fill-opacity:0.83;stroke:black;stroke-width:4px;"/>
            <rect x="2123.83" y="769.934" width="116.72" height="116.72" style="fill:rgb(251,137,255);fill-opacity:0.83;stroke:black;stroke-width:4px;"/>
            <rect x="1189.51" y="769.934" width="116.72" height="116.72" style="fill:rgb(81,235,235);fill-opacity:0.83;stroke:black;stroke-width:4px;"/>
            <rect x="374.753" y="770.691" width="116.72" height="116.72" style="fill:rgb(252,195,255);fill-opacity:0.83;stroke:black;stroke-width:4px;"/>
            <rect x="1773.1" y="769.934" width="116.72" height="116.72" style="fill:white;fill-opacity:0.83;stroke:black;stroke-width:4px;"/>
            <rect x="2240.55" y="769.934" width="116.72" height="116.72" style="fill:rgb(252,195,255);fill-opacity:0.83;stroke:black;stroke-width:4px;"/>
            <rect x="1306.23" y="769.934" width="116.72" height="116.72" style="fill:rgb(251,137,255);fill-opacity:0.83;stroke:black;stroke-width:4px;"/>
            <path d="M74.196,840.536L80.848,840.536L80.848,821.633L81.566,818.379L79.269,821.202L75.01,824.122L72.378,820.532L83.289,811.727L86.782,811.727L86.782,840.536L93.291,840.536L93.291,845.8L74.196,845.8L74.196,840.536Z" style="fill-rule:nonzero;"/>
            <path d="M544.653,839.356C546.759,839.356 548.37,838.845 549.486,837.824C550.603,836.803 551.161,835.4 551.161,833.613C551.161,831.699 550.507,830.295 549.199,829.402C547.891,828.508 546.025,828.062 543.6,828.062L539.82,828.205L539.82,810.69L556.282,810.69L556.282,816.529L545.18,816.529L545.18,822.989L547.142,822.798C548.705,822.861 550.117,823.149 551.377,823.659C552.637,824.169 553.714,824.879 554.607,825.789C555.5,826.698 556.186,827.799 556.665,829.091C557.143,830.383 557.383,831.826 557.383,833.422C557.383,835.304 557.064,836.963 556.426,838.399C555.787,839.834 554.902,841.031 553.77,841.988C552.637,842.945 551.305,843.663 549.774,844.141C548.242,844.62 546.567,844.859 544.749,844.859C543.313,844.859 541.949,844.739 540.657,844.5C539.365,844.261 538.272,843.934 537.379,843.519L539.054,838.351C539.788,838.67 540.593,838.917 541.471,839.092C542.348,839.268 543.409,839.356 544.653,839.356Z" style="fill-rule:nonzero;"/>
            <path d="M1002.01,822.997C1002.01,821.37 1002.26,819.87 1002.76,818.498C1003.25,817.126 1003.97,815.954 1004.91,814.981C1005.85,814.008 1007,813.242 1008.36,812.684C1009.71,812.125 1011.27,811.846 1013.02,811.846C1016.63,811.846 1019.46,812.923 1021.51,815.077C1023.57,817.23 1024.6,820.365 1024.6,824.48C1024.6,828.181 1024.13,831.379 1023.19,834.075C1022.25,836.771 1020.99,839.02 1019.41,840.823C1017.83,842.625 1016,844.005 1013.93,844.962C1011.86,845.919 1009.67,846.494 1007.37,846.685L1006.03,841.804C1007.79,841.58 1009.35,841.15 1010.72,840.512C1012.1,839.874 1013.28,839.084 1014.26,838.143C1015.25,837.202 1016.06,836.133 1016.68,834.937C1017.3,833.74 1017.74,832.456 1018,831.084C1017.23,831.914 1016.41,832.488 1015.53,832.807C1014.66,833.126 1013.48,833.286 1012.02,833.286C1010.8,833.286 1009.6,833.078 1008.4,832.663C1007.21,832.249 1006.14,831.619 1005.2,830.773C1004.26,829.928 1003.49,828.859 1002.9,827.567C1002.31,826.275 1002.01,824.751 1002.01,822.997ZM1008.04,822.662C1008.04,824.48 1008.56,825.852 1009.58,826.777C1010.6,827.702 1011.87,828.165 1013.4,828.165C1014.71,828.165 1015.78,827.958 1016.61,827.543C1017.44,827.128 1018.08,826.618 1018.52,826.012C1018.62,825.342 1018.67,824.703 1018.67,824.097C1018.67,823.204 1018.56,822.327 1018.33,821.465C1018.11,820.604 1017.77,819.838 1017.3,819.168C1016.84,818.498 1016.25,817.964 1015.53,817.565C1014.82,817.166 1013.96,816.967 1012.97,816.967C1011.41,816.967 1010.2,817.469 1009.34,818.474C1008.48,819.479 1008.04,820.875 1008.04,822.662Z" style="fill-rule:nonzero;"/>
            <path d="M1459.15,839.397L1465.8,839.397L1465.8,820.494L1466.52,817.24L1464.22,820.063L1459.96,822.982L1457.33,819.393L1468.24,810.588L1471.73,810.588L1471.73,839.397L1478.24,839.397L1478.24,844.661L1459.15,844.661L1459.15,839.397Z" style="fill-rule:nonzero;"/>
            <path d="M1492.98,840.067C1494.96,840.067 1496.47,839.54 1497.5,838.487C1498.54,837.435 1499.06,836.158 1499.06,834.659C1499.06,832.84 1498.52,831.5 1497.43,830.639C1496.35,829.778 1494.64,829.347 1492.31,829.347L1488.87,829.347L1488.87,826.045L1494.66,818.149L1497.38,815.995L1493.6,816.426L1485.56,816.426L1485.56,811.162L1503.85,811.162L1503.85,814.56L1497.1,823.604L1494.99,824.896L1494.99,825.136L1497,824.849C1498.12,824.944 1499.18,825.2 1500.18,825.614C1501.19,826.029 1502.07,826.627 1502.82,827.409C1503.57,828.19 1504.16,829.156 1504.61,830.304C1505.06,831.453 1505.28,832.777 1505.28,834.276C1505.28,836.158 1504.97,837.786 1504.35,839.157C1503.73,840.529 1502.86,841.678 1501.76,842.603C1500.66,843.528 1499.38,844.214 1497.91,844.661C1496.44,845.107 1494.86,845.331 1493.17,845.331C1491.77,845.331 1490.32,845.203 1488.82,844.948C1487.32,844.693 1486.11,844.326 1485.18,843.847L1486.86,838.679C1487.68,839.094 1488.6,839.429 1489.61,839.684C1490.61,839.939 1491.74,840.067 1492.98,840.067Z" style="fill-rule:nonzero;"/>
            <path d="M1926.59,839.397L1933.25,839.397L1933.25,820.494L1933.96,817.24L1931.66,820.063L1927.41,822.982L1924.77,819.393L1935.68,810.588L1939.18,810.588L1939.18,839.397L1945.69,839.397L1945.69,844.661L1926.59,844.661L1926.59,839.397Z" style="fill-rule:nonzero;"/>
            <path d="M1953.87,844.661L1964.83,818.867L1966.93,816.522L1964.06,817L1951.77,817L1951.77,811.162L1973.35,811.162L1973.35,812.98L1959.95,844.661L1953.87,844.661Z" style="fill-rule:nonzero;"/>
            <path d="M675.388,834.659C675.388,836.222 675.124,837.674 674.598,839.014C674.072,840.354 673.33,841.518 672.373,842.507C671.416,843.496 670.259,844.278 668.903,844.852C667.547,845.426 666.056,845.714 664.429,845.714C662.77,845.714 661.246,845.45 659.858,844.924C658.471,844.398 657.266,843.608 656.245,842.555C655.224,841.502 654.427,840.178 653.853,838.583C653.278,836.988 652.991,835.138 652.991,833.032C652.991,829.873 653.446,827.018 654.355,824.466C655.264,821.913 656.493,819.688 658.04,817.79C659.587,815.892 661.39,814.36 663.448,813.196C665.505,812.031 667.683,811.258 669.98,810.875L671.368,815.804C669.773,816.059 668.305,816.554 666.965,817.287C665.625,818.021 664.437,818.899 663.4,819.919C662.363,820.94 661.486,822.081 660.768,823.341C660.05,824.601 659.547,825.901 659.26,827.241C659.898,826.444 660.728,825.766 661.749,825.208C662.77,824.649 664.046,824.37 665.577,824.37C667.013,824.37 668.337,824.593 669.549,825.04C670.762,825.487 671.798,826.149 672.66,827.026C673.521,827.903 674.191,828.98 674.67,830.256C675.148,831.532 675.388,833 675.388,834.659ZM669.358,834.994C669.358,831.421 667.603,829.634 664.094,829.634C662.818,829.634 661.741,829.921 660.863,830.496C659.986,831.07 659.372,831.74 659.021,832.505C658.957,832.856 658.925,833.159 658.925,833.415L658.925,834.18C658.925,834.946 659.037,835.704 659.26,836.454C659.484,837.203 659.811,837.873 660.241,838.463C660.672,839.054 661.222,839.532 661.892,839.899C662.562,840.266 663.36,840.449 664.285,840.449C665.785,840.449 667.005,839.939 667.946,838.918C668.887,837.897 669.358,836.589 669.358,834.994Z" style="fill-rule:nonzero;"/>
            <path d="M1108.27,840.265L1114.92,840.265L1114.92,821.362L1115.64,818.108L1113.34,820.931L1109.08,823.851L1106.45,820.261L1117.36,811.456L1120.86,811.456L1120.86,840.265L1127.37,840.265L1127.37,845.529L1108.27,845.529L1108.27,840.265Z" style="fill-rule:nonzero;"/>
            <path d="M1132.49,828.732C1132.49,822.862 1133.49,818.499 1135.5,815.643C1137.51,812.788 1140.4,811.36 1144.16,811.36C1148.18,811.36 1151.13,812.772 1153.02,815.596C1154.9,818.419 1155.84,822.798 1155.84,828.732C1155.84,834.634 1154.83,839.021 1152.8,841.892C1150.77,844.763 1147.88,846.199 1144.11,846.199C1140.13,846.199 1137.19,844.692 1135.31,841.677C1133.43,838.662 1132.49,834.347 1132.49,828.732ZM1138.71,828.732C1138.71,832.624 1139.13,835.631 1139.98,837.753C1140.82,839.874 1142.22,840.935 1144.16,840.935C1146.05,840.935 1147.42,839.962 1148.3,838.016C1149.18,836.07 1149.62,832.975 1149.62,828.732C1149.62,824.872 1149.2,821.889 1148.37,819.783C1147.54,817.677 1146.12,816.624 1144.11,816.624C1142.2,816.624 1140.82,817.613 1139.98,819.591C1139.13,821.569 1138.71,824.616 1138.71,828.732Z" style="fill-rule:nonzero;"/>
            <path d="M1573.95,840.067L1580.61,840.067L1580.61,821.164L1581.32,817.91L1579.03,820.733L1574.77,823.652L1572.13,820.063L1583.05,811.258L1586.54,811.258L1586.54,840.067L1593.05,840.067L1593.05,845.331L1573.95,845.331L1573.95,840.067Z" style="fill-rule:nonzero;"/>
            <path d="M1622.72,835.999L1617.45,835.999L1617.45,845.331L1611.66,845.331L1611.66,835.999L1597.16,835.999L1597.16,832.458L1612.33,811.593L1617.45,811.593L1617.45,831.022L1622.72,831.022L1622.72,835.999ZM1611.66,823.7L1612.09,819.68L1611.9,819.68L1610.28,823.126L1605.3,829.586L1602.91,831.405L1605.97,831.022L1611.66,831.022L1611.66,823.7Z" style="fill-rule:nonzero;"/>
            <path d="M2041.4,840.067L2048.05,840.067L2048.05,821.164L2048.77,817.91L2046.47,820.733L2042.21,823.652L2039.58,820.063L2050.49,811.258L2053.98,811.258L2053.98,840.067L2060.49,840.067L2060.49,845.331L2041.4,845.331L2041.4,840.067Z" style="fill-rule:nonzero;"/>
            <path d="M2066.62,837.147C2066.62,836.031 2066.76,835.034 2067.05,834.156C2067.34,833.279 2067.74,832.482 2068.27,831.764C2068.8,831.046 2069.42,830.4 2070.14,829.826C2070.85,829.251 2071.63,828.725 2072.46,828.246C2070.89,827.257 2069.66,826.117 2068.77,824.825C2067.88,823.533 2067.43,821.929 2067.43,820.015C2067.43,818.771 2067.66,817.606 2068.12,816.522C2068.59,815.437 2069.26,814.496 2070.14,813.698C2071.01,812.901 2072.07,812.279 2073.32,811.832C2074.56,811.385 2075.97,811.162 2077.53,811.162C2078.97,811.162 2080.27,811.353 2081.45,811.736C2082.63,812.119 2083.65,812.661 2084.49,813.363C2085.34,814.065 2085.99,814.919 2086.45,815.924C2086.92,816.929 2087.15,818.037 2087.15,819.249C2087.15,821.132 2086.72,822.727 2085.88,824.035C2085.03,825.343 2083.8,826.539 2082.17,827.624C2084.09,828.741 2085.53,829.969 2086.5,831.309C2087.47,832.649 2087.96,834.372 2087.96,836.477C2087.96,837.913 2087.7,839.213 2087.17,840.378C2086.65,841.542 2085.9,842.539 2084.95,843.369C2083.99,844.198 2082.84,844.844 2081.5,845.307C2080.16,845.769 2078.69,846.001 2077.1,846.001C2075.5,846.001 2074.06,845.785 2072.77,845.355C2071.47,844.924 2070.38,844.326 2069.47,843.56C2068.56,842.794 2067.85,841.869 2067.36,840.784C2066.87,839.7 2066.62,838.487 2066.62,837.147ZM2082.03,836.525C2082.03,835.792 2081.85,835.122 2081.5,834.515C2081.15,833.909 2080.7,833.359 2080.14,832.864C2079.58,832.37 2078.96,831.915 2078.27,831.5C2077.59,831.086 2076.89,830.687 2076.19,830.304C2074.69,831.166 2073.66,832.099 2073.1,833.104C2072.54,834.109 2072.26,835.106 2072.26,836.095C2072.26,837.371 2072.7,838.463 2073.58,839.373C2074.46,840.282 2075.68,840.737 2077.24,840.737C2078.68,840.737 2079.83,840.386 2080.71,839.684C2081.59,838.982 2082.03,837.929 2082.03,836.525ZM2073.37,820.111C2073.37,820.877 2073.51,821.547 2073.8,822.121C2074.08,822.695 2074.47,823.198 2074.97,823.628C2075.46,824.059 2076.02,824.458 2076.64,824.825C2077.27,825.192 2077.91,825.535 2078.58,825.854C2080.5,824.226 2081.45,822.44 2081.45,820.494C2081.45,819.154 2081.06,818.141 2080.28,817.455C2079.5,816.769 2078.55,816.426 2077.43,816.426C2076.03,816.426 2075,816.793 2074.35,817.527C2073.69,818.26 2073.37,819.122 2073.37,820.111Z" style="fill-rule:nonzero;"/>
            <path d="M314.234,841.206C316.212,841.206 317.719,840.679 318.756,839.627C319.793,838.574 320.311,837.298 320.311,835.798C320.311,833.98 319.769,832.64 318.684,831.778C317.599,830.917 315.893,830.486 313.564,830.486L310.118,830.486L310.118,827.184L315.909,819.288L318.636,817.135L314.856,817.565L306.816,817.565L306.816,812.301L325.097,812.301L325.097,815.699L318.349,824.744L316.244,826.036L316.244,826.275L318.253,825.988C319.37,826.084 320.431,826.339 321.436,826.754C322.441,827.168 323.318,827.766 324.068,828.548C324.818,829.33 325.416,830.295 325.862,831.443C326.309,832.592 326.532,833.916 326.532,835.415C326.532,837.298 326.221,838.925 325.599,840.297C324.977,841.668 324.116,842.817 323.015,843.742C321.914,844.667 320.63,845.353 319.163,845.8C317.695,846.247 316.116,846.47 314.425,846.47C313.021,846.47 311.57,846.342 310.07,846.087C308.571,845.832 307.358,845.465 306.433,844.986L308.108,839.818C308.938,840.233 309.855,840.568 310.86,840.823C311.865,841.078 312.989,841.206 314.234,841.206Z" style="fill-rule:nonzero;"/>
            <path d="M773.413,845.016L784.372,819.222L786.478,816.877L783.607,817.356L771.308,817.356L771.308,811.517L792.891,811.517L792.891,813.336L779.491,845.016L773.413,845.016Z" style="fill-rule:nonzero;"/>
            <path d="M445.355,836.468L440.091,836.468L440.091,845.8L434.3,845.8L434.3,836.468L419.8,836.468L419.8,832.927L434.97,812.062L440.091,812.062L440.091,831.491L445.355,831.491L445.355,836.468ZM434.3,824.169L434.731,820.15L434.539,820.15L432.912,823.595L427.935,830.056L425.543,831.874L428.605,831.491L434.3,831.491L434.3,824.169Z" style="fill-rule:nonzero;"/>
            <path d="M208.718,820.484C208.718,822.112 208.423,823.755 207.833,825.414C207.243,827.073 206.493,828.7 205.584,830.295C204.675,831.89 203.67,833.429 202.569,834.913C201.468,836.396 200.392,837.76 199.339,839.005L196.802,840.967L196.802,841.206L200.248,840.536L209.436,840.536L209.436,845.8L189.289,845.8L189.289,842.594C190.055,841.796 190.916,840.863 191.873,839.794C192.83,838.725 193.795,837.593 194.769,836.396C195.742,835.2 196.691,833.964 197.616,832.688C198.541,831.411 199.371,830.127 200.104,828.835C200.838,827.543 201.42,826.291 201.851,825.079C202.282,823.866 202.497,822.718 202.497,821.633C202.497,820.325 202.122,819.248 201.373,818.403C200.623,817.557 199.434,817.135 197.807,817.135C196.786,817.135 195.742,817.35 194.673,817.781C193.604,818.211 192.703,818.762 191.969,819.432L189.481,815.029C190.725,814.008 192.136,813.187 193.716,812.564C195.295,811.942 197.153,811.631 199.291,811.631C200.663,811.631 201.923,811.823 203.071,812.206C204.22,812.588 205.209,813.147 206.039,813.88C206.868,814.614 207.522,815.531 208.001,816.632C208.479,817.733 208.718,819.017 208.718,820.484Z" style="fill-rule:nonzero;"/>
            <path d="M888.177,836.86C888.177,835.744 888.321,834.747 888.608,833.869C888.895,832.992 889.302,832.194 889.828,831.477C890.355,830.759 890.977,830.113 891.695,829.538C892.413,828.964 893.186,828.438 894.016,827.959C892.452,826.97 891.224,825.83 890.331,824.538C889.438,823.245 888.991,821.642 888.991,819.728C888.991,818.484 889.222,817.319 889.685,816.235C890.147,815.15 890.817,814.209 891.695,813.411C892.572,812.614 893.633,811.991 894.877,811.545C896.121,811.098 897.525,810.875 899.088,810.875C900.524,810.875 901.832,811.066 903.012,811.449C904.193,811.832 905.206,812.374 906.051,813.076C906.897,813.778 907.551,814.631 908.013,815.636C908.476,816.641 908.707,817.75 908.707,818.962C908.707,820.845 908.285,822.44 907.439,823.748C906.594,825.056 905.357,826.252 903.73,827.337C905.645,828.454 907.088,829.682 908.061,831.022C909.034,832.362 909.521,834.085 909.521,836.19C909.521,837.626 909.258,838.926 908.731,840.091C908.205,841.255 907.463,842.252 906.506,843.082C905.549,843.911 904.4,844.557 903.06,845.02C901.72,845.482 900.253,845.714 898.658,845.714C897.062,845.714 895.619,845.498 894.327,845.068C893.035,844.637 891.934,844.039 891.025,843.273C890.115,842.507 889.414,841.582 888.919,840.497C888.425,839.413 888.177,838.2 888.177,836.86ZM903.587,836.238C903.587,835.504 903.411,834.834 903.06,834.228C902.709,833.622 902.255,833.072 901.696,832.577C901.138,832.083 900.516,831.628 899.83,831.213C899.144,830.799 898.45,830.4 897.748,830.017C896.249,830.878 895.22,831.812 894.662,832.817C894.103,833.821 893.824,834.818 893.824,835.807C893.824,837.084 894.263,838.176 895.14,839.086C896.018,839.995 897.238,840.449 898.801,840.449C900.237,840.449 901.393,840.099 902.271,839.397C903.148,838.695 903.587,837.642 903.587,836.238ZM894.925,819.824C894.925,820.589 895.068,821.259 895.356,821.834C895.643,822.408 896.034,822.91 896.528,823.341C897.023,823.772 897.581,824.171 898.203,824.538C898.825,824.904 899.471,825.247 900.141,825.566C902.055,823.939 903.012,822.153 903.012,820.207C903.012,818.867 902.622,817.854 901.84,817.168C901.058,816.482 900.109,816.139 898.993,816.139C897.589,816.139 896.56,816.506 895.906,817.24C895.252,817.973 894.925,818.835 894.925,819.824Z" style="fill-rule:nonzero;"/>
            <path d="M1225.66,840.935L1232.31,840.935L1232.31,822.032L1233.03,818.778L1230.73,821.601L1226.47,824.521L1223.84,820.931L1234.75,812.126L1238.25,812.126L1238.25,840.935L1244.76,840.935L1244.76,846.199L1225.66,846.199L1225.66,840.935Z" style="fill-rule:nonzero;"/>
            <path d="M1252.79,840.935L1259.45,840.935L1259.45,822.032L1260.16,818.778L1257.87,821.601L1253.61,824.521L1250.98,820.931L1261.89,812.126L1265.38,812.126L1265.38,840.935L1271.89,840.935L1271.89,846.199L1252.79,846.199L1252.79,840.935Z" style="fill-rule:nonzero;"/>
            <path d="M1342.62,840.935L1349.27,840.935L1349.27,822.032L1349.99,818.778L1347.69,821.601L1343.43,824.521L1340.8,820.931L1351.71,812.126L1355.2,812.126L1355.2,840.935L1361.71,840.935L1361.71,846.199L1342.62,846.199L1342.62,840.935Z" style="fill-rule:nonzero;"/>
            <path d="M1387.65,820.884C1387.65,822.511 1387.36,824.154 1386.77,825.813C1386.18,827.472 1385.43,829.099 1384.52,830.694C1383.61,832.289 1382.6,833.828 1381.5,835.312C1380.4,836.795 1379.33,838.159 1378.27,839.404L1375.74,841.366L1375.74,841.605L1379.18,840.935L1388.37,840.935L1388.37,846.199L1368.22,846.199L1368.22,842.993C1368.99,842.195 1369.85,841.262 1370.81,840.193C1371.76,839.124 1372.73,837.992 1373.7,836.795C1374.67,835.599 1375.62,834.363 1376.55,833.087C1377.47,831.811 1378.3,830.526 1379.04,829.234C1379.77,827.942 1380.35,826.69 1380.78,825.478C1381.21,824.265 1381.43,823.117 1381.43,822.032C1381.43,820.724 1381.06,819.647 1380.31,818.802C1379.56,817.956 1378.37,817.534 1376.74,817.534C1375.72,817.534 1374.67,817.749 1373.61,818.18C1372.54,818.61 1371.64,819.161 1370.9,819.831L1368.41,815.428C1369.66,814.407 1371.07,813.586 1372.65,812.963C1374.23,812.341 1376.09,812.03 1378.22,812.03C1379.6,812.03 1380.86,812.222 1382,812.605C1383.15,812.987 1384.14,813.546 1384.97,814.28C1385.8,815.013 1386.45,815.931 1386.93,817.031C1387.41,818.132 1387.65,819.416 1387.65,820.884Z" style="fill-rule:nonzero;"/>
            <path d="M1808.78,840.162L1815.43,840.162L1815.43,821.259L1816.15,818.005L1813.85,820.829L1809.59,823.748L1806.96,820.159L1817.87,811.353L1821.37,811.353L1821.37,840.162L1827.88,840.162L1827.88,845.426L1808.78,845.426L1808.78,840.162Z" style="fill-rule:nonzero;"/>
            <path d="M1855.97,835.042C1855.97,836.605 1855.7,838.057 1855.18,839.397C1854.65,840.737 1853.91,841.901 1852.95,842.89C1851.99,843.879 1850.84,844.661 1849.48,845.235C1848.12,845.809 1846.63,846.096 1845.01,846.096C1843.35,846.096 1841.83,845.833 1840.44,845.307C1839.05,844.78 1837.85,843.991 1836.82,842.938C1835.8,841.885 1835.01,840.561 1834.43,838.966C1833.86,837.371 1833.57,835.52 1833.57,833.415C1833.57,830.256 1834.02,827.401 1834.93,824.849C1835.84,822.296 1837.07,820.071 1838.62,818.173C1840.17,816.274 1841.97,814.743 1844.03,813.579C1846.08,812.414 1848.26,811.64 1850.56,811.258L1851.95,816.187C1850.35,816.442 1848.88,816.936 1847.54,817.67C1846.2,818.404 1845.02,819.281 1843.98,820.302C1842.94,821.323 1842.06,822.464 1841.35,823.724C1840.63,824.984 1840.13,826.284 1839.84,827.624C1840.48,826.827 1841.31,826.149 1842.33,825.59C1843.35,825.032 1844.62,824.753 1846.15,824.753C1847.59,824.753 1848.91,824.976 1850.13,825.423C1851.34,825.87 1852.38,826.532 1853.24,827.409C1854.1,828.286 1854.77,829.363 1855.25,830.639C1855.73,831.915 1855.97,833.383 1855.97,835.042ZM1849.94,835.377C1849.94,831.804 1848.18,830.017 1844.67,830.017C1843.4,830.017 1842.32,830.304 1841.44,830.878C1840.56,831.453 1839.95,832.123 1839.6,832.888C1839.54,833.239 1839.5,833.542 1839.5,833.798L1839.5,834.563C1839.5,835.329 1839.62,836.087 1839.84,836.836C1840.06,837.586 1840.39,838.256 1840.82,838.846C1841.25,839.437 1841.8,839.915 1842.47,840.282C1843.14,840.649 1843.94,840.832 1844.86,840.832C1846.36,840.832 1847.58,840.322 1848.52,839.301C1849.47,838.28 1849.94,836.972 1849.94,835.377Z" style="fill-rule:nonzero;"/>
            <path d="M2294.12,820.111C2294.12,821.738 2293.83,823.381 2293.24,825.04C2292.65,826.699 2291.9,828.326 2290.99,829.921C2290.08,831.516 2289.08,833.056 2287.97,834.539C2286.87,836.023 2285.8,837.387 2284.74,838.631L2282.21,840.593L2282.21,840.832L2285.65,840.162L2294.84,840.162L2294.84,845.426L2274.69,845.426L2274.69,842.22C2275.46,841.423 2276.32,840.489 2277.28,839.421C2278.24,838.352 2279.2,837.219 2280.17,836.023C2281.15,834.826 2282.1,833.59 2283.02,832.314C2283.95,831.038 2284.78,829.754 2285.51,828.462C2286.24,827.17 2286.83,825.917 2287.26,824.705C2287.69,823.493 2287.9,822.344 2287.9,821.259C2287.9,819.951 2287.53,818.875 2286.78,818.029C2286.03,817.184 2284.84,816.761 2283.21,816.761C2282.19,816.761 2281.15,816.976 2280.08,817.407C2279.01,817.838 2278.11,818.388 2277.37,819.058L2274.89,814.655C2276.13,813.634 2277.54,812.813 2279.12,812.191C2280.7,811.569 2282.56,811.258 2284.7,811.258C2286.07,811.258 2287.33,811.449 2288.48,811.832C2289.62,812.215 2290.61,812.773 2291.44,813.507C2292.27,814.241 2292.93,815.158 2293.41,816.259C2293.88,817.359 2294.12,818.643 2294.12,820.111Z" style="fill-rule:nonzero;"/>
            <path d="M2300.44,828.629C2300.44,822.759 2301.45,818.396 2303.45,815.541C2305.47,812.685 2308.35,811.258 2312.12,811.258C2316.14,811.258 2319.09,812.669 2320.97,815.493C2322.85,818.316 2323.79,822.695 2323.79,828.629C2323.79,834.531 2322.78,838.918 2320.76,841.789C2318.73,844.661 2315.83,846.096 2312.07,846.096C2308.08,846.096 2305.15,844.589 2303.26,841.574C2301.38,838.559 2300.44,834.244 2300.44,828.629ZM2306.66,828.629C2306.66,832.521 2307.08,835.528 2307.93,837.65C2308.78,839.772 2310.17,840.832 2312.12,840.832C2314,840.832 2315.38,839.859 2316.26,837.913C2317.13,835.967 2317.57,832.872 2317.57,828.629C2317.57,824.769 2317.16,821.786 2316.33,819.68C2315.5,817.575 2314.08,816.522 2312.07,816.522C2310.16,816.522 2308.78,817.511 2307.93,819.489C2307.08,821.467 2306.66,824.514 2306.66,828.629Z" style="fill-rule:nonzero;"/>
            <path d="M1692.87,839.397L1699.53,839.397L1699.53,820.494L1700.24,817.24L1697.95,820.063L1693.69,822.982L1691.06,819.393L1701.97,810.588L1705.46,810.588L1705.46,839.397L1711.97,839.397L1711.97,844.661L1692.87,844.661L1692.87,839.397Z" style="fill-rule:nonzero;"/>
            <path d="M1725.7,839.827C1727.81,839.827 1729.42,839.317 1730.54,838.296C1731.65,837.275 1732.21,835.871 1732.21,834.085C1732.21,832.17 1731.56,830.767 1730.25,829.873C1728.94,828.98 1727.08,828.533 1724.65,828.533L1720.87,828.677L1720.87,811.162L1737.33,811.162L1737.33,817L1726.23,817L1726.23,823.461L1728.19,823.269C1729.76,823.333 1731.17,823.62 1732.43,824.131C1733.69,824.641 1734.76,825.351 1735.66,826.26C1736.55,827.17 1737.24,828.27 1737.72,829.562C1738.19,830.854 1738.43,832.298 1738.43,833.893C1738.43,835.776 1738.11,837.435 1737.48,838.87C1736.84,840.306 1735.95,841.502 1734.82,842.459C1733.69,843.416 1732.36,844.134 1730.82,844.613C1729.29,845.091 1727.62,845.331 1725.8,845.331C1724.36,845.331 1723,845.211 1721.71,844.972C1720.41,844.733 1719.32,844.406 1718.43,843.991L1720.1,838.822C1720.84,839.141 1721.64,839.389 1722.52,839.564C1723.4,839.74 1724.46,839.827 1725.7,839.827Z" style="fill-rule:nonzero;"/>
            <path d="M2160.32,839.397L2166.97,839.397L2166.97,820.494L2167.69,817.24L2165.39,820.063L2161.13,822.982L2158.5,819.393L2169.41,810.588L2172.91,810.588L2172.91,839.397L2179.41,839.397L2179.41,844.661L2160.32,844.661L2160.32,839.397Z" style="fill-rule:nonzero;"/>
            <path d="M2184.77,821.642C2184.77,820.015 2185.02,818.516 2185.51,817.144C2186.01,815.772 2186.73,814.6 2187.67,813.626C2188.61,812.653 2189.76,811.888 2191.11,811.329C2192.47,810.771 2194.03,810.492 2195.78,810.492C2199.39,810.492 2202.22,811.569 2204.27,813.722C2206.33,815.876 2207.36,819.01 2207.36,823.126C2207.36,826.827 2206.89,830.025 2205.95,832.721C2205.01,835.417 2203.75,837.666 2202.17,839.468C2200.59,841.271 2198.76,842.651 2196.69,843.608C2194.62,844.565 2192.43,845.139 2190.13,845.331L2188.79,840.449C2190.55,840.226 2192.11,839.795 2193.48,839.157C2194.86,838.519 2196.03,837.73 2197.02,836.789C2198.01,835.847 2198.82,834.779 2199.44,833.582C2200.06,832.386 2200.5,831.102 2200.76,829.73C2199.99,830.559 2199.17,831.134 2198.29,831.453C2197.41,831.772 2196.24,831.931 2194.78,831.931C2193.56,831.931 2192.36,831.724 2191.16,831.309C2189.97,830.894 2188.9,830.264 2187.96,829.419C2187.01,828.573 2186.25,827.505 2185.66,826.212C2185.07,824.92 2184.77,823.397 2184.77,821.642ZM2190.8,821.307C2190.8,823.126 2191.31,824.498 2192.34,825.423C2193.36,826.348 2194.63,826.811 2196.16,826.811C2197.47,826.811 2198.54,826.603 2199.37,826.189C2200.2,825.774 2200.84,825.263 2201.28,824.657C2201.38,823.987 2201.43,823.349 2201.43,822.743C2201.43,821.85 2201.32,820.972 2201.09,820.111C2200.87,819.249 2200.53,818.484 2200.06,817.814C2199.6,817.144 2199.01,816.609 2198.29,816.211C2197.58,815.812 2196.72,815.612 2195.73,815.612C2194.17,815.612 2192.96,816.115 2192.1,817.12C2191.23,818.125 2190.8,819.521 2190.8,821.307Z" style="fill-rule:nonzero;"/>
        </g>
        <path d="M216.13,24.428L201.082,24.428C200.602,34.028 199.966,42.008 199.174,48.368C198.382,54.728 197.194,59.684 195.61,63.236C194.554,65.54 193.306,67.22 191.866,68.276C190.426,69.332 188.866,69.86 187.186,69.86C186.322,69.86 185.578,69.8 184.954,69.68C184.33,69.56 183.73,69.38 183.154,69.14L183.946,63.956C184.426,64.1 184.93,64.172 185.458,64.172C186.274,64.172 187.078,63.908 187.87,63.38C188.662,62.852 189.442,61.868 190.21,60.428C190.882,59.132 191.518,57.404 192.118,55.244C192.718,53.084 193.246,50.348 193.702,47.036C194.158,43.724 194.53,39.776 194.818,35.192C195.106,30.608 195.322,25.244 195.466,19.1L222.106,19.1L222.106,69.5L216.13,69.5L216.13,24.428Z" style="fill-rule:nonzero;"/>
        <path d="M256.234,48.188L256.45,43.724L256.234,43.724L253.282,48.332L237.082,69.5L233.77,69.5L233.77,33.5L239.53,33.5L239.53,55.46L239.314,59.708L239.602,59.708L242.41,55.244L258.61,33.5L261.994,33.5L261.994,69.5L256.234,69.5L256.234,48.188Z" style="fill-rule:nonzero;"/>
        <path d="M295.114,53.588L278.842,53.588L278.842,69.5L273.082,69.5L273.082,33.5L278.842,33.5L278.842,48.548L295.114,48.548L295.114,33.5L300.874,33.5L300.874,69.5L295.114,69.5L295.114,53.588Z" style="fill-rule:nonzero;"/>
        <path d="M338.242,66.62C336.802,67.772 334.99,68.684 332.806,69.356C330.622,70.028 328.306,70.364 325.858,70.364C323.122,70.364 320.746,69.92 318.73,69.032C316.714,68.144 315.058,66.872 313.762,65.216C312.466,63.56 311.506,61.58 310.882,59.276C310.258,56.972 309.946,54.38 309.946,51.5C309.946,45.356 311.314,40.676 314.05,37.46C316.786,34.244 320.698,32.636 325.786,32.636C327.418,32.636 329.05,32.816 330.682,33.176C332.314,33.536 333.778,34.22 335.074,35.228C336.37,36.236 337.426,37.664 338.242,39.512C339.058,41.36 339.466,43.796 339.466,46.82C339.466,48.404 339.322,50.156 339.034,52.076L315.922,52.076C315.922,54.188 316.138,56.06 316.57,57.692C317.002,59.324 317.674,60.704 318.586,61.832C319.498,62.96 320.686,63.824 322.15,64.424C323.614,65.024 325.402,65.324 327.514,65.324C329.146,65.324 330.778,65.036 332.41,64.46C334.042,63.884 335.266,63.212 336.082,62.444L338.242,66.62ZM325.858,37.676C323.026,37.676 320.758,38.42 319.054,39.908C317.35,41.396 316.33,43.94 315.994,47.54L333.85,47.54C333.85,43.892 333.154,41.336 331.762,39.872C330.37,38.408 328.402,37.676 325.858,37.676Z" style="fill-rule:nonzero;"/>
        <path d="M371.002,48.188L371.218,43.724L371.002,43.724L368.05,48.332L351.85,69.5L348.538,69.5L348.538,33.5L354.298,33.5L354.298,55.46L354.082,59.708L354.37,59.708L357.178,55.244L373.378,33.5L376.762,33.5L376.762,69.5L371.002,69.5L371.002,48.188ZM356.818,18.956C357.298,21.164 358.126,22.7 359.302,23.564C360.478,24.428 361.834,24.86 363.37,24.86C364.906,24.86 366.274,24.404 367.474,23.492C368.674,22.58 369.49,21.092 369.922,19.028L374.242,20.396C373.81,23.18 372.574,25.316 370.534,26.804C368.494,28.292 366.058,29.036 363.226,29.036C361.93,29.036 360.646,28.868 359.374,28.532C358.102,28.196 356.962,27.692 355.954,27.02C354.946,26.348 354.082,25.484 353.362,24.428C352.642,23.372 352.162,22.124 351.922,20.684L356.818,18.956Z" style="fill-rule:nonzero;"/>
        <path d="M409.882,53.588L393.61,53.588L393.61,69.5L387.85,69.5L387.85,33.5L393.61,33.5L393.61,48.548L409.882,48.548L409.882,33.5L415.642,33.5L415.642,69.5L409.882,69.5L409.882,53.588Z" style="fill-rule:nonzero;"/>
        <path d="M424.714,51.5C424.714,45.404 426.07,40.736 428.782,37.496C431.494,34.256 435.394,32.636 440.482,32.636C443.17,32.636 445.51,33.08 447.502,33.968C449.494,34.856 451.138,36.128 452.434,37.784C453.73,39.44 454.69,41.432 455.314,43.76C455.938,46.088 456.25,48.668 456.25,51.5C456.25,57.596 454.894,62.264 452.182,65.504C449.47,68.744 445.57,70.364 440.482,70.364C437.794,70.364 435.454,69.92 433.462,69.032C431.47,68.144 429.826,66.872 428.53,65.216C427.234,63.56 426.274,61.568 425.65,59.24C425.026,56.912 424.714,54.332 424.714,51.5ZM430.69,51.5C430.69,53.324 430.87,55.076 431.23,56.756C431.59,58.436 432.154,59.9 432.922,61.148C433.69,62.396 434.698,63.404 435.946,64.172C437.194,64.94 438.706,65.324 440.482,65.324C447.01,65.372 450.274,60.764 450.274,51.5C450.274,49.628 450.094,47.852 449.734,46.172C449.374,44.492 448.81,43.028 448.042,41.78C447.274,40.532 446.266,39.536 445.018,38.792C443.77,38.048 442.258,37.676 440.482,37.676C433.954,37.628 430.69,42.236 430.69,51.5Z" style="fill-rule:nonzero;"/>
        <path d="M491.602,66.62C490.162,67.772 488.35,68.684 486.166,69.356C483.982,70.028 481.666,70.364 479.218,70.364C476.482,70.364 474.106,69.92 472.09,69.032C470.074,68.144 468.418,66.872 467.122,65.216C465.826,63.56 464.866,61.58 464.242,59.276C463.618,56.972 463.306,54.38 463.306,51.5C463.306,45.356 464.674,40.676 467.41,37.46C470.146,34.244 474.058,32.636 479.146,32.636C480.778,32.636 482.41,32.816 484.042,33.176C485.674,33.536 487.138,34.22 488.434,35.228C489.73,36.236 490.786,37.664 491.602,39.512C492.418,41.36 492.826,43.796 492.826,46.82C492.826,48.404 492.682,50.156 492.394,52.076L469.282,52.076C469.282,54.188 469.498,56.06 469.93,57.692C470.362,59.324 471.034,60.704 471.946,61.832C472.858,62.96 474.046,63.824 475.51,64.424C476.974,65.024 478.762,65.324 480.874,65.324C482.506,65.324 484.138,65.036 485.77,64.46C487.402,63.884 488.626,63.212 489.442,62.444L491.602,66.62ZM479.218,37.676C476.386,37.676 474.118,38.42 472.414,39.908C470.71,41.396 469.69,43.94 469.354,47.54L487.21,47.54C487.21,43.892 486.514,41.336 485.122,39.872C483.73,38.408 481.762,37.676 479.218,37.676Z" style="fill-rule:nonzero;"/>
        <path d="M531.706,56.828L533.722,63.74L534.082,63.74L535.666,56.756L542.65,33.5L548.482,33.5L537.826,65.828C537.01,68.18 536.206,70.46 535.414,72.668C534.622,74.876 533.746,76.844 532.786,78.572C531.826,80.3 530.746,81.68 529.546,82.712C528.346,83.744 526.954,84.26 525.37,84.26C523.642,84.26 522.226,84.02 521.122,83.54L522.13,78.572C522.754,78.812 523.354,78.932 523.93,78.932C525.274,78.932 526.57,78.224 527.818,76.808C529.066,75.392 530.098,72.956 530.914,69.5L516.442,33.5L523.066,33.5L531.706,56.828Z" style="fill-rule:nonzero;"/>
        <path d="M576.346,38.54L560.434,38.54L560.434,69.5L554.674,69.5L554.674,33.5L582.106,33.5L582.106,69.5L576.346,69.5L576.346,38.54Z" style="fill-rule:nonzero;"/>
        <path d="M591.178,51.5C591.178,45.404 592.534,40.736 595.246,37.496C597.958,34.256 601.858,32.636 606.946,32.636C609.634,32.636 611.974,33.08 613.966,33.968C615.958,34.856 617.602,36.128 618.898,37.784C620.194,39.44 621.154,41.432 621.778,43.76C622.402,46.088 622.714,48.668 622.714,51.5C622.714,57.596 621.358,62.264 618.646,65.504C615.934,68.744 612.034,70.364 606.946,70.364C604.258,70.364 601.918,69.92 599.926,69.032C597.934,68.144 596.29,66.872 594.994,65.216C593.698,63.56 592.738,61.568 592.114,59.24C591.49,56.912 591.178,54.332 591.178,51.5ZM597.154,51.5C597.154,53.324 597.334,55.076 597.694,56.756C598.054,58.436 598.618,59.9 599.386,61.148C600.154,62.396 601.162,63.404 602.41,64.172C603.658,64.94 605.17,65.324 606.946,65.324C613.474,65.372 616.738,60.764 616.738,51.5C616.738,49.628 616.558,47.852 616.198,46.172C615.838,44.492 615.274,43.028 614.506,41.78C613.738,40.532 612.73,39.536 611.482,38.792C610.234,38.048 608.722,37.676 606.946,37.676C600.418,37.628 597.154,42.236 597.154,51.5Z" style="fill-rule:nonzero;"/>
        <path d="M631.786,33.5L635.746,33.5L636.826,37.82L637.114,37.82C638.218,36.14 639.646,34.856 641.398,33.968C643.15,33.08 645.154,32.636 647.41,32.636C652.21,32.636 655.786,34.052 658.138,36.884C660.49,39.716 661.666,44.348 661.666,50.78C661.666,53.804 661.27,56.528 660.478,58.952C659.686,61.376 658.57,63.428 657.13,65.108C655.69,66.788 653.95,68.084 651.91,68.996C649.87,69.908 647.602,70.364 645.106,70.364C643.33,70.364 641.926,70.256 640.894,70.04C639.862,69.824 638.746,69.452 637.546,68.924L637.546,83.9L631.786,83.9L631.786,33.5ZM646.33,37.676C643.882,37.676 641.95,38.312 640.534,39.584C639.118,40.856 638.122,42.788 637.546,45.38L637.546,63.236C638.41,63.908 639.394,64.424 640.498,64.784C641.602,65.144 643.066,65.324 644.89,65.324C648.202,65.324 650.83,64.088 652.774,61.616C654.718,59.144 655.69,55.508 655.69,50.708C655.69,48.74 655.522,46.952 655.186,45.344C654.85,43.736 654.31,42.368 653.566,41.24C652.822,40.112 651.862,39.236 650.686,38.612C649.51,37.988 648.058,37.676 646.33,37.676Z" style="fill-rule:nonzero;"/>
        <path d="M688.666,54.596L683.122,55.46L673.618,69.5L666.634,69.5L675.274,57.188L678.154,54.524C675.658,54.14 673.534,53.132 671.782,51.5C670.03,49.868 669.154,47.66 669.154,44.876C669.154,42.716 669.526,40.868 670.27,39.332C671.014,37.796 672.082,36.524 673.474,35.516C674.866,34.508 676.522,33.776 678.442,33.32C680.362,32.864 682.522,32.636 684.922,32.636C686.698,32.636 688.354,32.756 689.89,32.996C691.426,33.236 692.938,33.5 694.426,33.788L694.426,69.5L688.666,69.5L688.666,54.596ZM688.666,38.396C688.042,38.156 687.346,37.976 686.578,37.856C685.81,37.736 685.138,37.676 684.562,37.676C681.49,37.676 679.15,38.228 677.542,39.332C675.934,40.436 675.13,42.188 675.13,44.588C675.13,46.748 675.982,48.416 677.686,49.592C679.39,50.768 681.634,51.356 684.418,51.356L685.21,51.356C685.498,51.356 685.906,51.344 686.434,51.32C686.962,51.296 687.706,51.26 688.666,51.212L688.666,38.396Z" style="fill-rule:nonzero;"/>
        <path d="M736.762,78.644L732.874,78.644L731.794,69.5L704.722,69.5L703.642,78.644L699.754,78.644L699.754,64.46L704.002,64.46C704.386,63.932 704.89,62.984 705.514,61.616C706.138,60.248 706.75,58.328 707.35,55.856C707.95,53.384 708.478,50.312 708.934,46.64C709.39,42.968 709.666,38.588 709.762,33.5L731.506,33.5L731.506,64.46L736.762,64.46L736.762,78.644ZM725.746,64.46L725.746,38.54L714.946,38.54C714.85,40.556 714.682,42.752 714.442,45.128C714.202,47.504 713.878,49.88 713.47,52.256C713.062,54.632 712.546,56.876 711.922,58.988C711.298,61.1 710.578,62.924 709.762,64.46L725.746,64.46Z" style="fill-rule:nonzero;"/>
        <path d="M741.874,51.5C741.874,45.404 743.23,40.736 745.942,37.496C748.654,34.256 752.554,32.636 757.642,32.636C760.33,32.636 762.67,33.08 764.662,33.968C766.654,34.856 768.298,36.128 769.594,37.784C770.89,39.44 771.85,41.432 772.474,43.76C773.098,46.088 773.41,48.668 773.41,51.5C773.41,57.596 772.054,62.264 769.342,65.504C766.63,68.744 762.73,70.364 757.642,70.364C754.954,70.364 752.614,69.92 750.622,69.032C748.63,68.144 746.986,66.872 745.69,65.216C744.394,63.56 743.434,61.568 742.81,59.24C742.186,56.912 741.874,54.332 741.874,51.5ZM747.85,51.5C747.85,53.324 748.03,55.076 748.39,56.756C748.75,58.436 749.314,59.9 750.082,61.148C750.85,62.396 751.858,63.404 753.106,64.172C754.354,64.94 755.866,65.324 757.642,65.324C764.17,65.372 767.434,60.764 767.434,51.5C767.434,49.628 767.254,47.852 766.894,46.172C766.534,44.492 765.97,43.028 765.202,41.78C764.434,40.532 763.426,39.536 762.178,38.792C760.93,38.048 759.418,37.676 757.642,37.676C751.114,37.628 747.85,42.236 747.85,51.5Z" style="fill-rule:nonzero;"/>
        <path d="M786.226,33.5L786.226,43.292C786.226,44.588 786.298,45.752 786.442,46.784C786.586,47.816 786.874,48.704 787.306,49.448C787.738,50.192 788.362,50.768 789.178,51.176C789.994,51.584 791.074,51.788 792.418,51.788C794.578,51.788 796.354,51.548 797.746,51.068C799.138,50.588 800.194,50.06 800.914,49.484L800.914,33.5L806.674,33.5L806.674,69.5L800.914,69.5L800.914,54.38C800.146,54.86 799.006,55.388 797.494,55.964C795.982,56.54 793.906,56.828 791.266,56.828C789.49,56.828 787.93,56.636 786.586,56.252C785.242,55.868 784.114,55.196 783.202,54.236C782.29,53.276 781.606,52.004 781.15,50.42C780.694,48.836 780.466,46.844 780.466,44.444L780.466,33.5L786.226,33.5Z" style="fill-rule:nonzero;"/>
        <path d="M844.042,66.62C842.602,67.772 840.79,68.684 838.606,69.356C836.422,70.028 834.106,70.364 831.658,70.364C828.922,70.364 826.546,69.92 824.53,69.032C822.514,68.144 820.858,66.872 819.562,65.216C818.266,63.56 817.306,61.58 816.682,59.276C816.058,56.972 815.746,54.38 815.746,51.5C815.746,45.356 817.114,40.676 819.85,37.46C822.586,34.244 826.498,32.636 831.586,32.636C833.218,32.636 834.85,32.816 836.482,33.176C838.114,33.536 839.578,34.22 840.874,35.228C842.17,36.236 843.226,37.664 844.042,39.512C844.858,41.36 845.266,43.796 845.266,46.82C845.266,48.404 845.122,50.156 844.834,52.076L821.722,52.076C821.722,54.188 821.938,56.06 822.37,57.692C822.802,59.324 823.474,60.704 824.386,61.832C825.298,62.96 826.486,63.824 827.95,64.424C829.414,65.024 831.202,65.324 833.314,65.324C834.946,65.324 836.578,65.036 838.21,64.46C839.842,63.884 841.066,63.212 841.882,62.444L844.042,66.62ZM831.658,37.676C828.826,37.676 826.558,38.42 824.854,39.908C823.15,41.396 822.13,43.94 821.794,47.54L839.65,47.54C839.65,43.892 838.954,41.336 837.562,39.872C836.17,38.408 834.202,37.676 831.658,37.676Z" style="fill-rule:nonzero;"/>
        <path d="M876.37,53.588L860.098,53.588L860.098,69.5L854.338,69.5L854.338,33.5L860.098,33.5L860.098,48.548L876.37,48.548L876.37,33.5L882.13,33.5L882.13,69.5L876.37,69.5L876.37,53.588Z" style="fill-rule:nonzero;"/>
        <path d="M915.682,48.188L915.898,43.724L915.682,43.724L912.73,48.332L896.53,69.5L893.218,69.5L893.218,33.5L898.978,33.5L898.978,55.46L898.762,59.708L899.05,59.708L901.858,55.244L918.058,33.5L921.442,33.5L921.442,69.5L915.682,69.5L915.682,48.188Z" style="fill-rule:nonzero;"/>
        <path d="M958.81,66.62C957.37,67.772 955.558,68.684 953.374,69.356C951.19,70.028 948.874,70.364 946.426,70.364C943.69,70.364 941.314,69.92 939.298,69.032C937.282,68.144 935.626,66.872 934.33,65.216C933.034,63.56 932.074,61.58 931.45,59.276C930.826,56.972 930.514,54.38 930.514,51.5C930.514,45.356 931.882,40.676 934.618,37.46C937.354,34.244 941.266,32.636 946.354,32.636C947.986,32.636 949.618,32.816 951.25,33.176C952.882,33.536 954.346,34.22 955.642,35.228C956.938,36.236 957.994,37.664 958.81,39.512C959.626,41.36 960.034,43.796 960.034,46.82C960.034,48.404 959.89,50.156 959.602,52.076L936.49,52.076C936.49,54.188 936.706,56.06 937.138,57.692C937.57,59.324 938.242,60.704 939.154,61.832C940.066,62.96 941.254,63.824 942.718,64.424C944.182,65.024 945.97,65.324 948.082,65.324C949.714,65.324 951.346,65.036 952.978,64.46C954.61,63.884 955.834,63.212 956.65,62.444L958.81,66.62ZM946.426,37.676C943.594,37.676 941.326,38.42 939.622,39.908C937.918,41.396 936.898,43.94 936.562,47.54L954.418,47.54C954.418,43.892 953.722,41.336 952.33,39.872C950.938,38.408 948.97,37.676 946.426,37.676Z" style="fill-rule:nonzero;"/>
    </g>
</svg>
