<?xml version="1.0" encoding="UTF-8" standalone="no"?>
<!DOCTYPE svg PUBLIC "-//W3C//DTD SVG 1.1//EN" "http://www.w3.org/Graphics/SVG/1.1/DTD/svg11.dtd">
<svg width="100%" height="100%" viewBox="0 0 1383 830" version="1.1" xmlns="http://www.w3.org/2000/svg" xmlns:xlink="http://www.w3.org/1999/xlink" xml:space="preserve" xmlns:serif="http://www.serif.com/" style="fill-rule:evenodd;clip-rule:evenodd;stroke-linejoin:round;stroke-miterlimit:10;">
    <rect id="Artboard8" x="-2202" y="-1975" width="5544" height="2861" style="fill:none;"/>
    <g id="Artboard81" serif:id="Artboard8">
        <path d="M445,14L445,823" style="fill:none;stroke:black;stroke-opacity:0.3;stroke-width:10px;"/>
        <path d="M1214.54,14L1214.54,823" style="fill:none;stroke:black;stroke-opacity:0.3;stroke-width:10px;"/>
        <path d="M682.506,201.277L745.506,232.777L682.506,264.277L682.506,201.277Z" style="fill:rgb(179,179,179);"/>
        <path d="M611.383,232.777L695.106,232.777" style="fill:none;stroke:rgb(179,179,179);stroke-width:14px;"/>
        <path d="M49.086,317.222L181.572,99.222L476.086,221.222L370.566,587.222L49.086,317.222Z" style="fill:none;stroke:rgb(45,231,231);stroke-width:8px;"/>
        <path d="M818.782,317.222L951.268,99.222L1245.78,221.222L1140.26,587.222L818.782,317.222Z" style="fill:none;stroke:rgb(45,231,231);stroke-width:8px;"/>
        <path d="M29,559L322,269L591,407L476.086,770L29,559Z" style="fill:none;stroke:rgb(250,112,255);stroke-width:8px;"/>
        <path d="M798.696,559L1091.7,269L1360.7,407L1245.78,770L798.696,559Z" style="fill:none;stroke:rgb(250,112,255);stroke-width:8px;"/>
        <path d="M97.887,301.055L75.245,315.454L77.311,288.701L97.887,301.055Z"/>
        <path d="M189.245,125.576C189.245,125.576 112.835,252.845 85.128,298.993" style="fill:none;stroke:black;stroke-width:4px;stroke-linecap:square;"/>
        <path d="M867.584,301.055L844.942,315.454L847.007,288.701L867.584,301.055Z"/>
        <path d="M958.942,125.576C958.942,125.576 882.531,252.845 854.825,298.993" style="fill:none;stroke:black;stroke-width:4px;stroke-linecap:square;"/>
        <path d="M148.218,359.137L159,383.708L132.874,377.591L148.218,359.137Z"/>
        <path d="M92,328C92,328 124.508,355.029 144.237,371.433" style="fill:none;stroke:black;stroke-width:4px;"/>
        <path d="M917.914,359.137L928.696,383.708L902.57,377.591L917.914,359.137Z"/>
        <path d="M861.696,328C861.696,328 894.204,355.029 913.933,371.433" style="fill:none;stroke:black;stroke-width:4px;"/>
        <path d="M355.887,534.031L365.995,557.066L341.502,551.332L355.887,534.031Z"/>
        <path d="M201.995,420.707C201.995,420.707 312.616,512.684 352.154,545.558" style="fill:none;stroke:black;stroke-width:5px;"/>
        <path d="M1125.58,534.031L1135.69,557.066L1111.2,551.332L1125.58,534.031Z"/>
        <path d="M971.691,420.707C971.691,420.707 1082.31,512.684 1121.85,545.558" style="fill:none;stroke:black;stroke-width:5px;"/>
        <path d="M429.721,256.644L448,237L452.748,263.409L429.721,256.644Z"/>
        <path d="M365,519.5C365,519.5 424.161,318.14 442.588,255.421" style="fill:none;stroke:black;stroke-width:4px;"/>
        <path d="M1166.62,368.292L1184.89,348.648L1189.64,375.058L1166.62,368.292Z"/>
        <path d="M1134.7,519.5C1134.7,519.5 1166.51,411.232 1179.48,367.07" style="fill:none;stroke:black;stroke-width:4px;"/>
        <path d="M1196.19,266.643L1219.04,242.088L1224.97,275.1L1196.19,266.643Z" style="fill:rgb(255,0,0);"/>
        <path d="M1202.04,299.94C1202.04,299.94 1207.53,281.249 1212.27,265.115" style="fill:none;stroke:rgb(255,0,0);stroke-width:5px;"/>
        <path d="M219.188,146.181L202,125.576L228.797,124.188L219.188,146.181Z"/>
        <path d="M441,230C441,230 274.808,157.387 219.594,133.263" style="fill:none;stroke:black;stroke-width:4px;"/>
        <path d="M988.884,146.181L971.696,125.576L998.493,124.188L988.884,146.181Z"/>
        <path d="M1210.7,230C1210.7,230 1044.5,157.387 989.29,133.263" style="fill:none;stroke:black;stroke-width:4px;"/>
        <path d="M235.436,397.34L210.039,406L218.349,380.487L235.436,397.34Z"/>
        <path d="M321.5,293C321.5,293 253.188,362.255 223.522,392.331" style="fill:none;stroke:black;stroke-width:4px;"/>
        <path d="M1005.13,397.34L979.735,406L988.046,380.487L1005.13,397.34Z"/>
        <path d="M1091.2,293C1091.2,293 1022.88,362.255 993.218,392.331" style="fill:none;stroke:black;stroke-width:4px;"/>
        <path d="M87.421,552.384L63.611,560.502L71.403,536.583L87.421,552.384Z"/>
        <path d="M175.073,447.502C175.073,447.502 105.444,518.092 76.252,547.687" style="fill:none;stroke:black;stroke-width:5px;"/>
        <path d="M857.118,552.384L833.308,560.502L841.099,536.583L857.118,552.384Z"/>
        <path d="M944.769,447.502C944.769,447.502 875.14,518.092 845.948,547.687" style="fill:none;stroke:black;stroke-width:5px;"/>
        <path d="M443.462,718.87L460,740L433.173,740.552L443.462,718.87Z"/>
        <path d="M87,563C87,563 369.134,696.881 442.654,731.769" style="fill:none;stroke:black;stroke-width:4px;"/>
        <path d="M1213.16,718.87L1229.7,740L1202.87,740.552L1213.16,718.87Z"/>
        <path d="M856.696,563C856.696,563 1138.83,696.881 1212.35,731.769" style="fill:none;stroke:black;stroke-width:4px;"/>
        <path d="M546.357,440.799L565,421.5L569.253,447.994L546.357,440.799Z"/>
        <path d="M469,727C469,727 538.53,505.736 559.244,439.817" style="fill:none;stroke:black;stroke-width:4px;"/>
        <path d="M1316.05,440.799L1334.7,421.5L1338.95,447.994L1316.05,440.799Z"/>
        <path d="M1238.7,727C1238.7,727 1308.23,505.736 1328.94,439.817" style="fill:none;stroke:black;stroke-width:4px;"/>
        <path d="M348.062,320.495L332,299L358.833,299.047L348.062,320.495Z"/>
        <path d="M559,413C559,413 402.044,334.176 349.158,307.617" style="fill:none;stroke:black;stroke-width:4px;"/>
        <path d="M1250.08,386.947L1234.02,365.453L1260.85,365.5L1250.08,386.947Z"/>
        <path d="M1328.7,413C1328.7,413 1278.46,387.773 1251.18,374.069" style="fill:none;stroke:black;stroke-width:4px;"/>
        <path d="M1119.74,324.741L1099.67,297.872L1133.21,297.931L1119.74,324.741Z" style="fill:rgb(255,0,0);"/>
        <path d="M1184.89,340.673C1184.89,340.673 1146.36,321.322 1121.11,308.643" style="fill:none;stroke:rgb(255,0,0);stroke-width:5px;"/>
        <path d="M189.014,478.301L178.245,453.724L204.368,459.855L189.014,478.301Z"/>
        <path d="M341,589.197C341,589.197 233.087,499.373 193.002,466.008" style="fill:none;stroke:black;stroke-width:4px;"/>
        <path d="M958.711,478.301L947.942,453.724L974.065,459.855L958.711,478.301Z"/>
        <path d="M1110.7,589.197C1110.7,589.197 1002.78,499.373 962.699,466.008" style="fill:none;stroke:black;stroke-width:4px;"/>
        <path d="M53.389,362.481L43.293,339.441L67.784,345.188L53.389,362.481Z"/>
        <path d="M140.048,419.976C140.048,419.976 83.87,373.216 57.128,350.956" style="fill:none;stroke:black;stroke-width:5px;"/>
        <path d="M823.086,362.481L812.99,339.441L837.48,345.188L823.086,362.481Z"/>
        <path d="M909.744,419.976C909.744,419.976 853.566,373.216 826.824,350.956" style="fill:none;stroke:black;stroke-width:5px;"/>
        <path d="M146.353,85.392L169,71L166.925,97.753L146.353,85.392Z"/>
        <path d="M26,309C26,309 126.74,141.336 159.112,87.458" style="fill:none;stroke:black;stroke-width:4px;"/>
        <path d="M916.05,85.392L938.696,71L936.622,97.753L916.05,85.392Z"/>
        <path d="M795.696,309C795.696,309 896.436,141.336 928.808,87.458" style="fill:none;stroke:black;stroke-width:4px;"/>
        <path d="M480.308,184.826L498,205L471.246,207.05L480.308,184.826Z"/>
        <path d="M189,79C189,79 414.491,170.948 480.221,197.75" style="fill:none;stroke:black;stroke-width:4px;"/>
        <path d="M1250,184.826L1267.7,205L1240.94,207.05L1250,184.826Z"/>
        <path d="M958.696,79C958.696,79 1184.19,170.948 1249.92,197.75" style="fill:none;stroke:black;stroke-width:4px;"/>
        <path d="M409.097,583.188L391,603L386.009,576.635L409.097,583.188Z"/>
        <path d="M498,226C498,226 417.738,508.792 396.242,584.53" style="fill:none;stroke:black;stroke-width:4px;"/>
        <path d="M1261.78,290.811L1243.68,310.623L1238.69,284.258L1261.78,290.811Z"/>
        <path d="M1267.7,226C1267.7,226 1255.99,267.253 1248.92,292.152" style="fill:none;stroke:black;stroke-width:4px;"/>
        <path d="M1190.03,547.991L1167.4,572.756L1161.17,539.8L1190.03,547.991Z" style="fill:rgb(255,0,0);"/>
        <path d="M1226.05,366.133C1226.05,366.133 1189.26,495.758 1173.96,549.667" style="fill:none;stroke:rgb(255,0,0);stroke-width:5px;"/>
        <path d="M106.749,429.352L132.245,420.989L123.638,446.404L106.749,429.352Z"/>
        <path d="M3,549C3,549 85.385,467.402 118.604,434.501" style="fill:none;stroke:black;stroke-width:4px;"/>
        <path d="M876.445,429.352L901.942,420.989L893.334,446.404L876.445,429.352Z"/>
        <path d="M772.696,549C772.696,549 855.081,467.402 888.3,434.501" style="fill:none;stroke:black;stroke-width:4px;"/>
        <path d="M280.415,262.458L304.318,254.618L296.249,278.444L280.415,262.458Z"/>
        <path d="M175.073,382.628C175.073,382.628 258.892,299.61 291.529,267.284" style="fill:none;stroke:black;stroke-width:5px;"/>
        <path d="M1050.11,262.458L1074.01,254.618L1065.94,278.444L1050.11,262.458Z"/>
        <path d="M944.769,382.628C944.769,382.628 1028.59,299.61 1061.22,267.284" style="fill:none;stroke:black;stroke-width:5px;"/>
        <path d="M599.203,369.81L615,391.5L588.17,391.123L599.203,369.81Z"/>
        <path d="M332,245C332,245 536.782,351.009 597.949,382.673" style="fill:none;stroke:black;stroke-width:4px;"/>
        <path d="M1180.2,272.124L1195.99,293.814L1169.16,293.438L1180.2,272.124Z"/>
        <path d="M1101.7,245C1101.7,245 1151.77,270.924 1178.94,284.988" style="fill:none;stroke:black;stroke-width:4px;"/>
        <path d="M1341.85,356.517L1361.6,383.629L1328.06,383.159L1341.85,356.517Z" style="fill:rgb(255,0,0);"/>
        <path d="M1246.3,323.944C1246.3,323.944 1306.96,355.347 1340.28,372.596" style="fill:none;stroke:rgb(255,0,0);stroke-width:5px;"/>
        <path d="M519.759,750.58L501,769.766L496.907,743.247L519.759,750.58Z"/>
        <path d="M615,414.5C615,414.5 530.178,678.836 506.866,751.484" style="fill:none;stroke:black;stroke-width:4px;"/>
        <path d="M1289.45,750.58L1270.7,769.766L1266.6,743.247L1289.45,750.58Z"/>
        <path d="M1384.7,414.5C1384.7,414.5 1299.87,678.836 1276.56,751.484" style="fill:none;stroke:black;stroke-width:4px;"/>
        <path d="M41.629,608.059L25,587L51.825,586.332L41.629,608.059Z"/>
        <path d="M472.5,797C472.5,797 124.827,633.846 42.381,595.157" style="fill:none;stroke:black;stroke-width:4px;"/>
        <path d="M811.325,608.059L794.696,587L821.521,586.332L811.325,608.059Z"/>
        <path d="M1242.2,797C1242.2,797 894.523,633.846 812.078,595.157" style="fill:none;stroke:black;stroke-width:4px;"/>
        <circle cx="50.08" cy="317.641" r="13.5"/>
        <circle cx="169.877" cy="418.175" r="13.5"/>
        <circle cx="939.986" cy="418.175" r="13.5"/>
        <circle cx="819.776" cy="317.641" r="13.5"/>
        <circle cx="1215.01" cy="329.636" r="19.013" style="fill:rgb(255,0,0);"/>
        <circle cx="182.706" cy="100.646" r="13.5"/>
        <circle cx="952.403" cy="100.646" r="13.5"/>
        <circle cx="475.163" cy="223.017" r="13.5"/>
        <circle cx="1244.86" cy="223.017" r="13.5"/>
        <circle cx="368.523" cy="588.049" r="13.5"/>
        <circle cx="1138.22" cy="588.049" r="13.5"/>
        <circle cx="322.507" cy="272.018" r="13.5"/>
        <circle cx="1092.2" cy="272.018" r="13.5"/>
        <circle cx="590.365" cy="409.719" r="13.5"/>
        <circle cx="1360.06" cy="409.719" r="13.5"/>
        <circle cx="475.662" cy="769.766" r="13.5"/>
        <circle cx="1245.36" cy="769.766" r="13.5"/>
        <circle cx="29.525" cy="559.283" r="13.5"/>
        <circle cx="799.221" cy="559.283" r="13.5"/>
        <path d="M104.466,812.096L61.938,812.096L61.938,744.896L75.09,744.896L75.09,800.384L104.466,800.384L104.466,812.096Z" style="fill:rgb(140,140,140);fill-rule:nonzero;"/>
        <path d="M874.162,812.096L831.634,812.096L831.634,744.896L844.786,744.896L844.786,800.384L874.162,800.384L874.162,812.096Z" style="fill:rgb(140,140,140);fill-rule:nonzero;"/>
    </g>
</svg>
