<?xml version="1.0" encoding="UTF-8" standalone="no"?>
<!DOCTYPE svg PUBLIC "-//W3C//DTD SVG 1.1//EN" "http://www.w3.org/Graphics/SVG/1.1/DTD/svg11.dtd">
<svg width="100%" height="100%" viewBox="0 0 892 936" version="1.1" xmlns="http://www.w3.org/2000/svg" xmlns:xlink="http://www.w3.org/1999/xlink" xml:space="preserve" xmlns:serif="http://www.serif.com/" style="fill-rule:evenodd;clip-rule:evenodd;stroke-linecap:square;stroke-linejoin:round;stroke-miterlimit:10;">
    <rect id="Geometric-Operations-2" serif:id="Geometric Operations 2" x="-1165" y="-1606" width="4299" height="2861" style="fill:none;"/>
    <g id="Geometric-Operations-21" serif:id="Geometric Operations 2">
        <g transform="matrix(1,0,0,1,-7743.23,-10666.4)">
            <g transform="matrix(96,0,0,96,7788.35,11561.2)">
                <path d="M0.038,-0.35C0.038,-0.467 0.064,-0.557 0.115,-0.62C0.166,-0.683 0.24,-0.714 0.335,-0.714C0.385,-0.714 0.429,-0.705 0.466,-0.688C0.503,-0.671 0.534,-0.646 0.559,-0.614C0.584,-0.582 0.602,-0.544 0.614,-0.499C0.626,-0.454 0.632,-0.405 0.632,-0.35C0.632,-0.233 0.606,-0.144 0.555,-0.081C0.503,-0.018 0.43,0.014 0.335,0.014C0.284,0.014 0.24,0.005 0.203,-0.012C0.166,-0.029 0.135,-0.054 0.111,-0.086C0.086,-0.118 0.068,-0.156 0.056,-0.201C0.044,-0.246 0.038,-0.295 0.038,-0.35ZM0.182,-0.35C0.182,-0.315 0.185,-0.282 0.191,-0.253C0.197,-0.223 0.206,-0.197 0.219,-0.176C0.231,-0.155 0.247,-0.138 0.266,-0.126C0.285,-0.114 0.308,-0.108 0.335,-0.108C0.384,-0.108 0.421,-0.127 0.448,-0.165C0.475,-0.203 0.488,-0.265 0.488,-0.35C0.488,-0.384 0.485,-0.416 0.48,-0.445C0.474,-0.474 0.465,-0.5 0.453,-0.522C0.441,-0.544 0.425,-0.561 0.406,-0.574C0.387,-0.586 0.363,-0.592 0.335,-0.592C0.286,-0.592 0.249,-0.572 0.222,-0.534C0.195,-0.495 0.182,-0.433 0.182,-0.35Z" style="fill:rgb(118,122,2);fill-rule:nonzero;"/>
            </g>
            <g transform="matrix(96,0,0,96,7852.67,11561.2)">
                <path d="M0.227,0.22C0.196,0.188 0.17,0.153 0.149,0.115C0.128,0.076 0.111,0.037 0.098,-0.004C0.085,-0.044 0.075,-0.085 0.069,-0.126C0.063,-0.167 0.06,-0.206 0.06,-0.243C0.06,-0.28 0.063,-0.318 0.069,-0.359C0.075,-0.4 0.085,-0.44 0.098,-0.482C0.111,-0.523 0.129,-0.563 0.151,-0.602C0.172,-0.641 0.199,-0.678 0.23,-0.712L0.278,-0.677C0.251,-0.643 0.229,-0.608 0.212,-0.572C0.194,-0.535 0.18,-0.498 0.169,-0.461C0.158,-0.424 0.151,-0.387 0.147,-0.35C0.142,-0.313 0.14,-0.277 0.14,-0.243C0.14,-0.211 0.142,-0.176 0.148,-0.139C0.153,-0.101 0.161,-0.063 0.172,-0.026C0.183,0.012 0.197,0.049 0.215,0.085C0.232,0.121 0.253,0.154 0.278,0.183L0.227,0.22Z" style="fill:rgb(118,122,2);fill-rule:nonzero;"/>
            </g>
            <g transform="matrix(96,0,0,96,7879.55,11561.2)">
                <path d="M0.401,-0.178C0.401,-0.206 0.393,-0.229 0.376,-0.247C0.359,-0.264 0.339,-0.28 0.314,-0.294C0.289,-0.307 0.261,-0.32 0.232,-0.332C0.203,-0.344 0.175,-0.359 0.151,-0.376C0.126,-0.393 0.105,-0.413 0.088,-0.439C0.071,-0.464 0.063,-0.495 0.063,-0.534C0.063,-0.589 0.082,-0.632 0.12,-0.664C0.158,-0.696 0.212,-0.712 0.282,-0.712C0.323,-0.712 0.36,-0.709 0.393,-0.703C0.426,-0.697 0.452,-0.689 0.471,-0.68L0.446,-0.607C0.431,-0.614 0.408,-0.621 0.379,-0.628C0.349,-0.635 0.315,-0.638 0.278,-0.638C0.234,-0.638 0.201,-0.628 0.179,-0.609C0.157,-0.589 0.146,-0.566 0.146,-0.539C0.146,-0.513 0.154,-0.491 0.171,-0.474C0.188,-0.457 0.209,-0.441 0.234,-0.428C0.259,-0.414 0.286,-0.4 0.315,-0.387C0.344,-0.374 0.372,-0.358 0.397,-0.341C0.422,-0.323 0.442,-0.302 0.459,-0.277C0.476,-0.252 0.484,-0.222 0.484,-0.185C0.484,-0.155 0.479,-0.128 0.468,-0.104C0.457,-0.08 0.442,-0.059 0.421,-0.042C0.4,-0.025 0.375,-0.011 0.346,-0.002C0.317,0.007 0.283,0.012 0.246,0.012C0.196,0.012 0.155,0.008 0.122,0.001C0.089,-0.007 0.064,-0.016 0.046,-0.025L0.074,-0.1C0.089,-0.091 0.112,-0.083 0.142,-0.075C0.172,-0.066 0.206,-0.062 0.243,-0.062C0.265,-0.062 0.286,-0.064 0.305,-0.069C0.324,-0.073 0.341,-0.08 0.355,-0.09C0.369,-0.099 0.38,-0.111 0.389,-0.126C0.397,-0.141 0.401,-0.158 0.401,-0.178Z" style="fill:rgb(118,122,2);fill-rule:nonzero;"/>
            </g>
            <g transform="matrix(55.968,0,0,55.968,7930.52,11593.2)">
                <path d="M0.108,-0.074L0.248,-0.074L0.248,-0.558L0.258,-0.617L0.218,-0.57L0.108,-0.491L0.07,-0.542L0.29,-0.712L0.326,-0.712L0.326,-0.074L0.463,-0.074L0.463,-0L0.108,-0L0.108,-0.074Z" style="fill:rgb(118,122,2);fill-rule:nonzero;"/>
            </g>
            <g transform="matrix(96,0,0,96,7961.03,11561.2)">
                <path d="M0.049,-0.043C0.049,-0.059 0.054,-0.072 0.065,-0.082C0.076,-0.092 0.089,-0.097 0.106,-0.097C0.127,-0.097 0.143,-0.09 0.157,-0.075C0.169,-0.06 0.176,-0.039 0.176,-0.011C0.176,0.013 0.173,0.034 0.166,0.052C0.159,0.07 0.151,0.086 0.14,0.099C0.129,0.112 0.118,0.122 0.105,0.131C0.092,0.139 0.08,0.145 0.067,0.149L0.042,0.11C0.066,0.101 0.084,0.086 0.096,0.067C0.107,0.047 0.113,0.027 0.113,0.007C0.107,0.009 0.101,0.01 0.096,0.01C0.083,0.01 0.071,0.006 0.063,-0.004C0.054,-0.013 0.049,-0.026 0.049,-0.043Z" style="fill:rgb(118,122,2);fill-rule:nonzero;"/>
            </g>
            <g transform="matrix(96,0,0,96,7997.89,11561.2)">
                <path d="M0.401,-0.178C0.401,-0.206 0.393,-0.229 0.376,-0.247C0.359,-0.264 0.339,-0.28 0.314,-0.294C0.289,-0.307 0.261,-0.32 0.232,-0.332C0.203,-0.344 0.175,-0.359 0.151,-0.376C0.126,-0.393 0.105,-0.413 0.088,-0.439C0.071,-0.464 0.063,-0.495 0.063,-0.534C0.063,-0.589 0.082,-0.632 0.12,-0.664C0.158,-0.696 0.212,-0.712 0.282,-0.712C0.323,-0.712 0.36,-0.709 0.393,-0.703C0.426,-0.697 0.452,-0.689 0.471,-0.68L0.446,-0.607C0.431,-0.614 0.408,-0.621 0.379,-0.628C0.349,-0.635 0.315,-0.638 0.278,-0.638C0.234,-0.638 0.201,-0.628 0.179,-0.609C0.157,-0.589 0.146,-0.566 0.146,-0.539C0.146,-0.513 0.154,-0.491 0.171,-0.474C0.188,-0.457 0.209,-0.441 0.234,-0.428C0.259,-0.414 0.286,-0.4 0.315,-0.387C0.344,-0.374 0.372,-0.358 0.397,-0.341C0.422,-0.323 0.442,-0.302 0.459,-0.277C0.476,-0.252 0.484,-0.222 0.484,-0.185C0.484,-0.155 0.479,-0.128 0.468,-0.104C0.457,-0.08 0.442,-0.059 0.421,-0.042C0.4,-0.025 0.375,-0.011 0.346,-0.002C0.317,0.007 0.283,0.012 0.246,0.012C0.196,0.012 0.155,0.008 0.122,0.001C0.089,-0.007 0.064,-0.016 0.046,-0.025L0.074,-0.1C0.089,-0.091 0.112,-0.083 0.142,-0.075C0.172,-0.066 0.206,-0.062 0.243,-0.062C0.265,-0.062 0.286,-0.064 0.305,-0.069C0.324,-0.073 0.341,-0.08 0.355,-0.09C0.369,-0.099 0.38,-0.111 0.389,-0.126C0.397,-0.141 0.401,-0.158 0.401,-0.178Z" style="fill:rgb(118,122,2);fill-rule:nonzero;"/>
            </g>
            <g transform="matrix(55.968,0,0,55.968,8048.87,11593.2)">
                <path d="M0.446,-0.541C0.446,-0.506 0.44,-0.47 0.427,-0.433C0.413,-0.396 0.397,-0.358 0.376,-0.321C0.355,-0.284 0.331,-0.247 0.305,-0.212C0.279,-0.176 0.253,-0.142 0.227,-0.11L0.178,-0.067L0.178,-0.063L0.242,-0.074L0.46,-0.074L0.46,-0L0.062,-0L0.062,-0.029C0.077,-0.044 0.094,-0.063 0.115,-0.086C0.136,-0.109 0.157,-0.134 0.18,-0.162C0.202,-0.189 0.224,-0.219 0.246,-0.25C0.267,-0.28 0.287,-0.312 0.305,-0.344C0.322,-0.376 0.336,-0.408 0.347,-0.439C0.358,-0.47 0.363,-0.5 0.363,-0.528C0.363,-0.561 0.354,-0.588 0.335,-0.61C0.316,-0.631 0.288,-0.642 0.25,-0.642C0.225,-0.642 0.2,-0.637 0.176,-0.627C0.152,-0.616 0.131,-0.604 0.114,-0.591L0.081,-0.648C0.104,-0.668 0.132,-0.684 0.164,-0.695C0.196,-0.706 0.23,-0.712 0.267,-0.712C0.296,-0.712 0.321,-0.708 0.343,-0.7C0.365,-0.691 0.384,-0.679 0.399,-0.664C0.414,-0.649 0.426,-0.631 0.434,-0.61C0.442,-0.588 0.446,-0.566 0.446,-0.541Z" style="fill:rgb(118,122,2);fill-rule:nonzero;"/>
            </g>
            <g transform="matrix(96,0,0,96,8079.37,11561.2)">
                <path d="M0.053,-0.712C0.084,-0.68 0.11,-0.645 0.131,-0.607C0.152,-0.568 0.169,-0.529 0.183,-0.489C0.196,-0.448 0.205,-0.407 0.211,-0.367C0.217,-0.325 0.22,-0.286 0.22,-0.249C0.22,-0.212 0.217,-0.174 0.211,-0.133C0.205,-0.092 0.195,-0.052 0.182,-0.011C0.169,0.031 0.151,0.071 0.13,0.11C0.108,0.149 0.081,0.186 0.05,0.22L0.002,0.185C0.029,0.151 0.051,0.116 0.069,0.079C0.087,0.042 0.101,0.005 0.112,-0.032C0.122,-0.069 0.129,-0.106 0.134,-0.143C0.138,-0.18 0.14,-0.215 0.14,-0.249C0.14,-0.281 0.137,-0.316 0.132,-0.353C0.127,-0.39 0.118,-0.428 0.108,-0.466C0.096,-0.504 0.082,-0.541 0.065,-0.577C0.048,-0.613 0.027,-0.646 0.002,-0.675L0.053,-0.712Z" style="fill:rgb(118,122,2);fill-rule:nonzero;"/>
            </g>
        </g>
        <path d="M213.771,317.315L184.244,436L193.08,495.23L32.095,459.729L76.508,266.655L213.771,317.315Z" style="fill:rgb(248,253,112);stroke:rgb(118,122,2);stroke-width:8px;"/>
        <path d="M193.08,495.23L32.095,459.729L73.875,678.094L228.219,771.426L347.72,735.96L211.244,617L193.08,495.23Z" style="fill:rgb(248,253,112);stroke:rgb(118,122,2);stroke-width:8px;"/>
        <path d="M404.295,142.026L235.244,231L213.771,317.315L76.508,266.655L289.031,82.756L404.295,142.026Z" style="fill:rgb(248,253,112);stroke:rgb(118,122,2);stroke-width:8px;"/>
        <path d="M702.935,547.149L701.656,548.42L608.237,455.5L702.935,547.149Z" style="fill:rgb(248,253,112);stroke:rgb(118,122,2);stroke-width:8px;"/>
        <path d="M404.295,142.026L289.031,82.756L500.884,29.155L698.114,113.308L719.128,196.637L663.244,186.641L463.244,111L404.295,142.026Z" style="fill:rgb(248,253,112);stroke:rgb(118,122,2);stroke-width:8px;"/>
        <path d="M430.23,306.116C430.23,306.116 478.718,346.808 478.718,346.808L430.23,306.116L351.347,275.728C351.347,275.728 430.23,306.116 430.23,306.116Z" style="fill:rgb(248,253,112);stroke:rgb(118,122,2);stroke-width:8px;"/>
        <path d="M524.369,385.118L454.524,451.398C454.524,451.398 524.194,384.971 524.194,384.971L524.369,385.118Z" style="fill:rgb(248,253,112);stroke:rgb(118,122,2);stroke-width:8px;"/>
        <path d="M293.68,346.808L271.746,466.582L184.244,436L213.771,317.315L293.68,346.808Z" style="fill:rgb(248,253,112);stroke:rgb(118,122,2);stroke-width:8px;"/>
        <path d="M351.347,275.728L293.68,346.808L213.771,317.315L235.244,231L351.347,275.728Z" style="fill:rgb(248,253,112);stroke:rgb(118,122,2);stroke-width:8px;"/>
        <path d="M454.524,451.398L293.68,346.808L271.746,466.582L398.244,510.793L485.3,487.871L454.524,451.398Z" style="fill:rgb(248,253,112);stroke:rgb(118,122,2);stroke-width:8px;"/>
        <path d="M608.237,455.5L485.3,487.871L454.524,451.398L524.369,385.118L608.237,455.5Z" style="fill:rgb(248,253,112);stroke:rgb(118,122,2);stroke-width:8px;"/>
        <path d="M430.23,306.116L351.347,275.728L293.68,346.808L454.524,451.398L524.194,384.971L430.23,306.116Z" style="fill:rgb(248,253,112);stroke:rgb(118,122,2);stroke-width:8px;"/>
        <path d="M523.873,203.513L380.031,240.372L351.347,275.728L235.244,231L404.295,142.026L523.873,203.513Z" style="fill:rgb(248,253,112);stroke:rgb(118,122,2);stroke-width:8px;"/>
        <path d="M523.873,203.513L404.295,142.026L463.244,111L663.244,186.641L572.715,233.059C572.715,233.059 572.847,232.992 572.847,232.992L523.873,203.513Z" style="fill:rgb(248,253,112);stroke:rgb(118,122,2);stroke-width:8px;"/>
        <path d="M572.715,233.059L430.23,306.116L351.347,275.728L380.031,240.372L523.873,203.513L572.715,233.059Z" style="fill:rgb(248,253,112);stroke:rgb(118,122,2);stroke-width:8px;"/>
        <path d="M572.847,232.992L572.715,233.059L523.873,203.513L572.847,232.992Z" style="fill:rgb(248,253,112);stroke:rgb(118,122,2);stroke-width:8px;"/>
        <path d="M719.128,196.637L788.244,209L844.244,398L753.454,420.12L756.322,344.128L641.048,274.395L524.369,385.118L524.194,384.971L640.51,274.07L756.322,344.128L719.128,196.637Z" style="fill:rgb(248,253,112);stroke:rgb(118,122,2);stroke-width:8px;"/>
        <path d="M756.322,344.128L753.454,420.12L608.237,455.5L524.369,385.118L641.048,274.395L756.322,344.128Z" style="fill:rgb(248,253,112);stroke:rgb(118,122,2);stroke-width:8px;"/>
        <path d="M756.322,344.128L640.51,274.07L640.735,273.855L572.847,232.992L663.244,186.641L719.128,196.637L756.322,344.128Z" style="fill:rgb(248,253,112);stroke:rgb(118,122,2);stroke-width:8px;"/>
        <path d="M756.322,344.128L641.048,274.395C641.048,274.395 756.322,344.128 756.322,344.128Z" style="fill:rgb(248,253,112);stroke:rgb(118,122,2);stroke-width:8px;"/>
        <path d="M572.847,232.992L572.715,233.059L640.51,274.07L524.194,384.971L430.23,306.116L572.847,232.992Z" style="fill:rgb(248,253,112);stroke:rgb(118,122,2);stroke-width:8px;"/>
        <path d="M640.735,273.855L640.51,274.07L572.715,233.059L572.847,232.992L640.735,273.855Z" style="fill:rgb(248,253,112);stroke:rgb(118,122,2);stroke-width:8px;"/>
        <path d="M572.715,233.059L663.244,186.641L572.715,233.059Z" style="fill:rgb(248,253,112);stroke:rgb(118,122,2);stroke-width:8px;"/>
        <path d="M572.847,232.992L430.23,306.116L572.847,232.992Z" style="fill:rgb(248,253,112);stroke:rgb(118,122,2);stroke-width:8px;"/>
        <path d="M475.763,690.44L392.845,722.567L347.72,735.96L398.244,780L399.831,779.034L398.244,778L490.244,724L475.763,690.44Z" style="fill:rgb(248,253,112);stroke:rgb(118,122,2);stroke-width:8px;"/>
        <path d="M271.746,466.582L263.649,510.793L193.08,495.23L184.244,436L271.746,466.582Z" style="fill:rgb(248,253,112);stroke:rgb(118,122,2);stroke-width:8px;"/>
        <path d="M193.08,495.23L211.244,617L347.72,735.96L392.845,722.567L263.649,510.793L193.08,495.23Z" style="fill:rgb(248,253,112);stroke:rgb(118,122,2);stroke-width:8px;"/>
        <path d="M398.244,510.793L271.746,466.582L263.649,510.793L392.845,722.567L475.763,690.44L398.244,510.793Z" style="fill:rgb(248,253,112);stroke:rgb(118,122,2);stroke-width:8px;"/>
        <path d="M701.656,548.42L703.244,550L660.244,700L490.244,724L475.763,690.44L611.763,637.744L701.656,548.42Z" style="fill:rgb(248,253,112);stroke:rgb(118,122,2);stroke-width:8px;"/>
        <path d="M611.763,637.744L475.763,690.44L398.244,510.793L485.3,487.871L611.763,637.744Z" style="fill:rgb(248,253,112);stroke:rgb(118,122,2);stroke-width:8px;"/>
        <path d="M701.656,548.42L611.763,637.744L485.3,487.871L608.237,455.5L701.656,548.42Z" style="fill:rgb(248,253,112);stroke:rgb(118,122,2);stroke-width:8px;"/>
        <path d="M844.244,595L703.244,547.448L702.935,547.149L750.442,499.943L753.454,420.12L844.244,398L844.244,595Z" style="fill:rgb(248,253,112);stroke:rgb(118,122,2);stroke-width:8px;"/>
        <path d="M750.442,499.943L702.935,547.149L608.237,455.5L753.454,420.12L750.442,499.943Z" style="fill:rgb(248,253,112);stroke:rgb(118,122,2);stroke-width:8px;"/>
        <path d="M660.244,860L660.244,700L490.244,724C490.244,724 399.831,779.034 399.831,779.034L490.244,838L660.244,860Z" style="fill:rgb(248,253,112);stroke:rgb(118,122,2);stroke-width:8px;"/>
        <path d="M399.831,779.034L490.244,724L398.244,778L399.831,779.034Z" style="fill:rgb(248,253,112);stroke:rgb(118,122,2);stroke-width:8px;"/>
        <path d="M660.244,860L827.244,780L844.244,595L703.244,550L660.244,700L660.244,860Z" style="fill:rgb(248,253,112);stroke:rgb(118,122,2);stroke-width:8px;"/>
        <circle cx="76.818" cy="266.029" r="20" style="fill:rgb(118,122,2);"/>
        <circle cx="291.403" cy="84.178" r="20" style="fill:rgb(118,122,2);"/>
        <circle cx="403.948" cy="142.009" r="20" style="fill:rgb(118,122,2);"/>
        <circle cx="352.163" cy="277.916" r="20" style="fill:rgb(118,122,2);"/>
        <circle cx="573.877" cy="232.281" r="20" style="fill:rgb(118,122,2);"/>
        <circle cx="524.852" cy="385.222" r="20" style="fill:rgb(118,122,2);"/>
        <circle cx="269.996" cy="465.025" r="20" style="fill:rgb(118,122,2);"/>
        <circle cx="484.864" cy="489.943" r="20" style="fill:rgb(118,122,2);"/>
        <circle cx="702.515" cy="548.832" r="20" style="fill:rgb(118,122,2);"/>
        <circle cx="473.861" cy="686.36" r="20" style="fill:rgb(118,122,2);"/>
        <circle cx="718.998" cy="197.501" r="20" style="fill:rgb(118,122,2);"/>
        <circle cx="751.884" cy="418.103" r="20" style="fill:rgb(118,122,2);"/>
        <circle cx="346.302" cy="735.069" r="20" style="fill:rgb(118,122,2);"/>
        <circle cx="498.962" cy="30.428" r="20" style="fill:rgb(118,122,2);"/>
        <circle cx="696.161" cy="110.462" r="20" style="fill:rgb(118,122,2);"/>
        <circle cx="754.169" cy="343.51" r="20" style="fill:rgb(118,122,2);"/>
        <circle cx="641.953" cy="271.886" r="20" style="fill:rgb(118,122,2);"/>
        <circle cx="523.721" cy="205.394" r="20" style="fill:rgb(118,122,2);"/>
        <circle cx="379.248" cy="239.941" r="20" style="fill:rgb(118,122,2);"/>
        <circle cx="296.152" cy="351.859" r="20" style="fill:rgb(118,122,2);"/>
        <circle cx="261.202" cy="513.82" r="20" style="fill:rgb(118,122,2);"/>
        <circle cx="390.731" cy="720.746" r="20" style="fill:rgb(118,122,2);"/>
        <circle cx="611.643" cy="638.91" r="20" style="fill:rgb(118,122,2);"/>
        <circle cx="454.824" cy="454.814" r="20" style="fill:rgb(118,122,2);"/>
        <circle cx="749.579" cy="503.587" r="20" style="fill:rgb(118,122,2);"/>
        <circle cx="29.752" cy="460.832" r="20" style="fill:rgb(118,122,2);"/>
        <circle cx="70.932" cy="676.865" r="20" style="fill:rgb(118,122,2);"/>
        <circle cx="225.355" cy="774.301" r="20" style="fill:rgb(118,122,2);"/>
        <circle cx="462.824" cy="111" r="20" style="fill:rgb(118,122,2);"/>
        <circle cx="658.332" cy="185.475" r="20" style="fill:rgb(118,122,2);"/>
        <circle cx="785.32" cy="210.338" r="20" style="fill:rgb(118,122,2);"/>
        <circle cx="842.788" cy="399.631" r="20" style="fill:rgb(118,122,2);"/>
        <circle cx="843.224" cy="594.45" r="20" style="fill:rgb(118,122,2);"/>
        <circle cx="825.915" cy="780.22" r="20" style="fill:rgb(118,122,2);"/>
        <circle cx="659.326" cy="863.596" r="20" style="fill:rgb(118,122,2);"/>
        <circle cx="659.218" cy="701.114" r="20" style="fill:rgb(118,122,2);"/>
        <circle cx="491.544" cy="722.154" r="20" style="fill:rgb(118,122,2);"/>
        <circle cx="398.7" cy="783.669" r="20" style="fill:rgb(118,122,2);"/>
        <circle cx="491.097" cy="837.499" r="20" style="fill:rgb(118,122,2);"/>
        <circle cx="210.256" cy="620.876" r="20" style="fill:rgb(118,122,2);"/>
        <circle cx="187.116" cy="436.506" r="20" style="fill:rgb(118,122,2);"/>
        <circle cx="235.264" cy="233.564" r="20" style="fill:rgb(118,122,2);"/>
        <circle cx="211.802" cy="318.35" r="20" style="fill:rgb(118,122,2);"/>
        <circle cx="194.296" cy="500.436" r="20" style="fill:rgb(118,122,2);"/>
        <circle cx="433.258" cy="306.851" r="20" style="fill:rgb(118,122,2);"/>
        <circle cx="613.064" cy="458.802" r="20" style="fill:rgb(118,122,2);"/>
        <circle cx="397.086" cy="513.811" r="20" style="fill:rgb(118,122,2);"/>
    </g>
</svg>
