<?xml version="1.0" encoding="UTF-8" standalone="no"?>
<!DOCTYPE svg PUBLIC "-//W3C//DTD SVG 1.1//EN" "http://www.w3.org/Graphics/SVG/1.1/DTD/svg11.dtd">
<svg width="100%" height="100%" viewBox="0 0 1400 850" version="1.1" xmlns="http://www.w3.org/2000/svg" xmlns:xlink="http://www.w3.org/1999/xlink" xml:space="preserve" xmlns:serif="http://www.serif.com/" style="fill-rule:evenodd;clip-rule:evenodd;stroke-linejoin:round;stroke-miterlimit:10;">
    <rect id="Artboard8" x="-2202" y="-1037" width="5544" height="2861" style="fill:none;"/>
    <g id="Artboard81" serif:id="Artboard8">
        <path d="M169,24L169,833" style="fill:none;stroke:black;stroke-opacity:0.3;stroke-width:10px;"/>
        <path d="M942.435,24L942.435,833" style="fill:none;stroke:black;stroke-opacity:0.3;stroke-width:10px;"/>
        <path d="M682.506,210.929L745.506,242.429L682.506,273.929L682.506,210.929Z" style="fill:rgb(179,179,179);"/>
        <path d="M611.383,242.429L695.106,242.429" style="fill:none;stroke:rgb(179,179,179);stroke-width:14px;"/>
        <path d="M48.086,327.222L180.572,109.222L475.086,231.222L369.566,597.222L48.086,327.222Z" style="fill:none;stroke:rgb(45,231,231);stroke-width:8px;"/>
        <path d="M821.521,327.222L954.007,109.222L1248.52,231.222L1143,597.222L821.521,327.222Z" style="fill:none;stroke:rgb(45,231,231);stroke-width:8px;"/>
        <path d="M28,569L321,279L590,417L475.086,780L28,569Z" style="fill:none;stroke:rgb(250,112,255);stroke-width:8px;"/>
        <path d="M801.435,569L1094.43,279L1363.43,417L1248.52,780L801.435,569Z" style="fill:none;stroke:rgb(250,112,255);stroke-width:8px;"/>
        <path d="M96.887,311.055L74.245,325.454L76.311,298.701L96.887,311.055Z"/>
        <path d="M188.245,135.576C188.245,135.576 111.835,262.845 84.128,308.993" style="fill:none;stroke:black;stroke-width:4px;stroke-linecap:square;"/>
        <path d="M870.323,311.055L847.681,325.454L849.746,298.701L870.323,311.055Z"/>
        <path d="M961.681,135.576C961.681,135.576 885.27,262.845 857.564,308.993" style="fill:none;stroke:black;stroke-width:4px;stroke-linecap:square;"/>
        <path d="M347.218,535.429L358,560L331.874,553.883L347.218,535.429Z"/>
        <path d="M91,338C91,338 287.225,501.154 343.237,547.725" style="fill:none;stroke:black;stroke-width:4px;"/>
        <path d="M920.653,369.137L931.435,393.708L905.309,387.591L920.653,369.137Z"/>
        <path d="M864.435,338C864.435,338 896.943,365.029 916.672,381.433" style="fill:none;stroke:black;stroke-width:4px;"/>
        <path d="M1124.95,536.352L1138.43,567.066L1105.77,559.42L1124.95,536.352Z" style="fill:rgb(255,0,0);"/>
        <path d="M974.43,430.707C974.43,430.707 1077.11,516.081 1119.98,551.722" style="fill:none;stroke:rgb(255,0,0);stroke-width:5px;"/>
        <path d="M428.721,266.644L447,247L451.748,273.409L428.721,266.644Z"/>
        <path d="M364,529.5C364,529.5 423.161,328.14 441.588,265.421" style="fill:none;stroke:black;stroke-width:4px;"/>
        <path d="M1202.16,266.644L1220.43,247L1225.18,273.409L1202.16,266.644Z"/>
        <path d="M1137.43,529.5C1137.43,529.5 1196.6,328.14 1215.02,265.421" style="fill:none;stroke:black;stroke-width:4px;"/>
        <path d="M218.188,156.181L201,135.576L227.797,134.188L218.188,156.181Z"/>
        <path d="M440,240C440,240 273.808,167.387 218.594,143.263" style="fill:none;stroke:black;stroke-width:4px;"/>
        <path d="M991.623,156.181L974.435,135.576L1001.23,134.188L991.623,156.181Z"/>
        <path d="M1213.43,240C1213.43,240 1047.24,167.387 992.029,143.263" style="fill:none;stroke:black;stroke-width:4px;"/>
        <path d="M92.397,551.34L67,560L75.311,534.487L92.397,551.34Z"/>
        <path d="M320.5,303C320.5,303 132.936,493.153 80.483,546.331" style="fill:none;stroke:black;stroke-width:4px;"/>
        <path d="M1007.87,407.34L982.474,416L990.785,390.487L1007.87,407.34Z"/>
        <path d="M1093.93,303C1093.93,303 1025.62,372.255 995.957,402.331" style="fill:none;stroke:black;stroke-width:4px;"/>
        <path d="M867.793,559.677L836.047,570.502L846.435,538.61L867.793,559.677Z" style="fill:rgb(255,0,0);"/>
        <path d="M947.508,457.502C947.508,457.502 884.055,521.831 852.901,553.415" style="fill:none;stroke:rgb(255,0,0);stroke-width:5px;"/>
        <path d="M442.462,728.87L459,750L432.173,750.552L442.462,728.87Z"/>
        <path d="M86,573C86,573 368.134,706.881 441.654,741.769" style="fill:none;stroke:black;stroke-width:4px;"/>
        <path d="M1215.9,728.87L1232.43,750L1205.61,750.552L1215.9,728.87Z"/>
        <path d="M859.435,573C859.435,573 1141.57,706.881 1215.09,741.769" style="fill:none;stroke:black;stroke-width:4px;"/>
        <path d="M545.357,450.799L564,431.5L568.253,457.994L545.357,450.799Z"/>
        <path d="M468,737C468,737 537.53,515.736 558.244,449.817" style="fill:none;stroke:black;stroke-width:4px;"/>
        <path d="M1318.79,450.799L1337.43,431.5L1341.69,457.994L1318.79,450.799Z"/>
        <path d="M1241.43,737C1241.43,737 1310.96,515.736 1331.68,449.817" style="fill:none;stroke:black;stroke-width:4px;"/>
        <path d="M347.062,330.495L331,309L357.833,309.047L347.062,330.495Z"/>
        <path d="M558,423C558,423 401.044,344.176 348.158,317.617" style="fill:none;stroke:black;stroke-width:4px;"/>
        <path d="M1120.5,330.495L1104.43,309L1131.27,309.047L1120.5,330.495Z"/>
        <path d="M1331.43,423C1331.43,423 1174.48,344.176 1121.59,317.617" style="fill:none;stroke:black;stroke-width:4px;"/>
        <path d="M35.769,361.577L25,337L51.123,343.131L35.769,361.577Z"/>
        <path d="M340,599.197C340,599.197 102.012,401.103 39.757,349.283" style="fill:none;stroke:black;stroke-width:4px;"/>
        <path d="M961.45,488.301L950.681,463.724L976.804,469.855L961.45,488.301Z"/>
        <path d="M1113.43,599.197C1113.43,599.197 1005.52,509.373 965.438,476.008" style="fill:none;stroke:black;stroke-width:4px;"/>
        <path d="M829.19,380.162L815.729,349.441L848.382,357.104L829.19,380.162Z" style="fill:rgb(255,0,0);"/>
        <path d="M912.483,429.976C912.483,429.976 862.251,388.164 834.175,364.795" style="fill:none;stroke:rgb(255,0,0);stroke-width:5px;"/>
        <path d="M145.353,95.392L168,81L165.925,107.753L145.353,95.392Z"/>
        <path d="M25,319C25,319 125.74,151.336 158.112,97.458" style="fill:none;stroke:black;stroke-width:4px;"/>
        <path d="M918.789,95.392L941.435,81L939.361,107.753L918.789,95.392Z"/>
        <path d="M798.435,319C798.435,319 899.175,151.336 931.547,97.458" style="fill:none;stroke:black;stroke-width:4px;"/>
        <path d="M479.308,194.826L497,215L470.246,217.05L479.308,194.826Z"/>
        <path d="M188,89C188,89 413.491,180.948 479.221,207.75" style="fill:none;stroke:black;stroke-width:4px;"/>
        <path d="M1252.74,194.826L1270.43,215L1243.68,217.05L1252.74,194.826Z"/>
        <path d="M961.435,89C961.435,89 1186.93,180.948 1252.66,207.75" style="fill:none;stroke:black;stroke-width:4px;"/>
        <path d="M408.097,593.188L390,613L385.009,586.635L408.097,593.188Z"/>
        <path d="M497,236C497,236 416.738,518.792 395.242,594.53" style="fill:none;stroke:black;stroke-width:4px;"/>
        <path d="M1181.53,593.188L1163.43,613L1158.44,586.635L1181.53,593.188Z"/>
        <path d="M1270.43,236C1270.43,236 1190.17,518.792 1168.68,594.53" style="fill:none;stroke:black;stroke-width:4px;"/>
        <path d="M290.504,256.363L316,248L307.393,273.415L290.504,256.363Z"/>
        <path d="M2,559C2,559 242.009,321.284 302.359,261.511" style="fill:none;stroke:black;stroke-width:4px;"/>
        <path d="M879.184,439.352L904.681,430.989L896.073,456.404L879.184,439.352Z"/>
        <path d="M775.435,559C775.435,559 857.82,477.402 891.039,444.501" style="fill:none;stroke:black;stroke-width:4px;"/>
        <path d="M1044.88,275.071L1076.75,264.618L1065.99,296.386L1044.88,275.071Z" style="fill:rgb(255,0,0);"/>
        <path d="M947.508,392.628C947.508,392.628 1024.6,316.277 1059.7,281.507" style="fill:none;stroke:rgb(255,0,0);stroke-width:5px;"/>
        <path d="M598.203,379.81L614,401.5L587.17,401.123L598.203,379.81Z"/>
        <path d="M331,255C331,255 535.782,361.009 596.949,392.673" style="fill:none;stroke:black;stroke-width:4px;"/>
        <path d="M1371.64,379.81L1387.43,401.5L1360.61,401.123L1371.64,379.81Z"/>
        <path d="M1104.43,255C1104.43,255 1309.22,361.009 1370.38,392.673" style="fill:none;stroke:black;stroke-width:4px;"/>
        <path d="M518.759,760.58L500,779.766L495.907,753.247L518.759,760.58Z"/>
        <path d="M614,424.5C614,424.5 529.178,688.836 505.866,761.484" style="fill:none;stroke:black;stroke-width:4px;"/>
        <path d="M1292.19,760.58L1273.43,779.766L1269.34,753.247L1292.19,760.58Z"/>
        <path d="M1387.43,424.5C1387.43,424.5 1302.61,688.836 1279.3,761.484" style="fill:none;stroke:black;stroke-width:4px;"/>
        <path d="M40.629,618.059L24,597L50.825,596.332L40.629,618.059Z"/>
        <path d="M471.5,807C471.5,807 123.827,643.846 41.381,605.157" style="fill:none;stroke:black;stroke-width:4px;"/>
        <path d="M814.064,618.059L797.435,597L824.26,596.332L814.064,618.059Z"/>
        <path d="M1244.93,807C1244.93,807 897.262,643.846 814.817,605.157" style="fill:none;stroke:black;stroke-width:4px;"/>
        <circle cx="49.08" cy="327.641" r="13.5"/>
        <circle cx="822.515" cy="327.641" r="13.5"/>
        <circle cx="943.745" cy="429.987" r="19.013" style="fill:rgb(255,0,0);"/>
        <circle cx="181.706" cy="110.646" r="13.5"/>
        <circle cx="955.142" cy="110.646" r="13.5"/>
        <circle cx="474.163" cy="233.017" r="13.5"/>
        <circle cx="1247.6" cy="233.017" r="13.5"/>
        <circle cx="367.523" cy="598.049" r="13.5"/>
        <circle cx="1140.96" cy="598.049" r="13.5"/>
        <circle cx="321.507" cy="282.018" r="13.5"/>
        <circle cx="1094.94" cy="282.018" r="13.5"/>
        <circle cx="589.365" cy="419.719" r="13.5"/>
        <circle cx="1362.8" cy="419.719" r="13.5"/>
        <circle cx="474.662" cy="779.766" r="13.5"/>
        <circle cx="1248.1" cy="779.766" r="13.5"/>
        <circle cx="28.525" cy="569.283" r="13.5"/>
        <circle cx="801.96" cy="569.283" r="13.5"/>
        <path d="M103.466,822.096L60.938,822.096L60.938,754.896L74.09,754.896L74.09,810.384L103.466,810.384L103.466,822.096Z" style="fill:rgb(140,140,140);fill-rule:nonzero;"/>
        <path d="M876.901,822.096L834.373,822.096L834.373,754.896L847.525,754.896L847.525,810.384L876.901,810.384L876.901,822.096Z" style="fill:rgb(140,140,140);fill-rule:nonzero;"/>
    </g>
</svg>
