<?xml version="1.0" encoding="UTF-8" standalone="no"?>
<!DOCTYPE svg PUBLIC "-//W3C//DTD SVG 1.1//EN" "http://www.w3.org/Graphics/SVG/1.1/DTD/svg11.dtd">
<svg width="100%" height="100%" viewBox="0 0 1400 823" version="1.1" xmlns="http://www.w3.org/2000/svg" xmlns:xlink="http://www.w3.org/1999/xlink" xml:space="preserve" xmlns:serif="http://www.serif.com/" style="fill-rule:evenodd;clip-rule:evenodd;stroke-linejoin:round;stroke-miterlimit:10;">
    <rect id="Artboard8" x="-2631" y="-133" width="5544" height="2861" style="fill:none;"/>
    <g id="Artboard81" serif:id="Artboard8">
        <path d="M173,8L173,817" style="fill:none;stroke:black;stroke-opacity:0.3;stroke-width:10px;"/>
        <path d="M946.435,8L946.435,817" style="fill:none;stroke:black;stroke-opacity:0.3;stroke-width:10px;"/>
        <path d="M52.086,311.222L184.572,93.222L479.086,215.222L373.566,581.222L52.086,311.222Z" style="fill:none;stroke:rgb(45,231,231);stroke-width:8px;"/>
        <path d="M825.521,311.222L958.007,93.222L1252.52,215.222L1147,581.222L825.521,311.222Z" style="fill:none;stroke:rgb(45,231,231);stroke-width:8px;"/>
        <path d="M32,553L325,263L594,401L479.086,764L32,553Z" style="fill:none;stroke:rgb(250,112,255);stroke-width:8px;"/>
        <path d="M805.435,553L1098.43,263L1367.43,401L1252.52,764L805.435,553Z" style="fill:none;stroke:rgb(250,112,255);stroke-width:8px;"/>
        <path d="M100.887,295.055L78.245,309.454L80.311,282.701L100.887,295.055Z"/>
        <path d="M192.245,119.576C192.245,119.576 115.835,246.845 88.128,292.993" style="fill:none;stroke:black;stroke-width:4px;stroke-linecap:square;"/>
        <path d="M874.323,295.055L851.681,309.454L853.746,282.701L874.323,295.055Z"/>
        <path d="M965.681,119.576C965.681,119.576 889.27,246.845 861.564,292.993" style="fill:none;stroke:black;stroke-width:4px;stroke-linecap:square;"/>
        <path d="M351.218,519.429L362,544L335.874,537.883L351.218,519.429Z"/>
        <path d="M95,322C95,322 291.225,485.154 347.237,531.725" style="fill:none;stroke:black;stroke-width:4px;"/>
        <path d="M924.653,353.137L935.435,377.708L909.309,371.591L924.653,353.137Z"/>
        <path d="M868.435,322C868.435,322 900.943,349.029 920.672,365.433" style="fill:none;stroke:black;stroke-width:4px;"/>
        <path d="M1128.95,520.352L1142.43,551.066L1109.77,543.42L1128.95,520.352Z" style="fill:rgb(255,0,0);"/>
        <path d="M978.43,414.707C978.43,414.707 1081.11,500.081 1123.98,535.722" style="fill:none;stroke:rgb(255,0,0);stroke-width:5px;"/>
        <path d="M432.721,250.644L451,231L455.748,257.409L432.721,250.644Z"/>
        <path d="M368,513.5C368,513.5 427.161,312.14 445.588,249.421" style="fill:none;stroke:black;stroke-width:4px;"/>
        <path d="M1206.16,250.644L1224.43,231L1229.18,257.409L1206.16,250.644Z"/>
        <path d="M1141.43,513.5C1141.43,513.5 1200.6,312.14 1219.02,249.421" style="fill:none;stroke:black;stroke-width:4px;"/>
        <path d="M222.188,140.181L205,119.576L231.797,118.188L222.188,140.181Z"/>
        <path d="M444,224C444,224 277.808,151.387 222.594,127.263" style="fill:none;stroke:black;stroke-width:4px;"/>
        <path d="M995.623,140.181L978.435,119.576L1005.23,118.188L995.623,140.181Z"/>
        <path d="M1217.43,224C1217.43,224 1051.24,151.387 996.029,127.263" style="fill:none;stroke:black;stroke-width:4px;"/>
        <path d="M96.397,535.34L71,544L79.311,518.487L96.397,535.34Z"/>
        <path d="M324.5,287C324.5,287 136.936,477.153 84.483,530.331" style="fill:none;stroke:black;stroke-width:4px;"/>
        <path d="M1011.87,391.34L986.474,400L994.785,374.487L1011.87,391.34Z"/>
        <path d="M1097.93,287C1097.93,287 1029.62,356.255 999.957,386.331" style="fill:none;stroke:black;stroke-width:4px;"/>
        <path d="M871.793,543.677L840.047,554.502L850.435,522.61L871.793,543.677Z" style="fill:rgb(255,0,0);"/>
        <path d="M951.508,441.502C951.508,441.502 888.055,505.831 856.901,537.415" style="fill:none;stroke:rgb(255,0,0);stroke-width:5px;"/>
        <path d="M446.462,712.87L463,734L436.173,734.552L446.462,712.87Z"/>
        <path d="M90,557C90,557 372.134,690.881 445.654,725.769" style="fill:none;stroke:black;stroke-width:4px;"/>
        <path d="M1219.9,712.87L1236.43,734L1209.61,734.552L1219.9,712.87Z"/>
        <path d="M863.435,557C863.435,557 1145.57,690.881 1219.09,725.769" style="fill:none;stroke:black;stroke-width:4px;"/>
        <path d="M549.357,434.799L568,415.5L572.253,441.994L549.357,434.799Z"/>
        <path d="M472,721C472,721 541.53,499.736 562.244,433.817" style="fill:none;stroke:black;stroke-width:4px;"/>
        <path d="M1322.79,434.799L1341.43,415.5L1345.69,441.994L1322.79,434.799Z"/>
        <path d="M1245.43,721C1245.43,721 1314.96,499.736 1335.68,433.817" style="fill:none;stroke:black;stroke-width:4px;"/>
        <path d="M351.062,314.495L335,293L361.833,293.047L351.062,314.495Z"/>
        <path d="M562,407C562,407 405.044,328.176 352.158,301.617" style="fill:none;stroke:black;stroke-width:4px;"/>
        <path d="M1124.5,314.495L1108.43,293L1135.27,293.047L1124.5,314.495Z"/>
        <path d="M1335.43,407C1335.43,407 1178.48,328.176 1125.59,301.617" style="fill:none;stroke:black;stroke-width:4px;"/>
        <path d="M39.769,345.577L29,321L55.123,327.131L39.769,345.577Z"/>
        <path d="M344,583.197C344,583.197 106.012,385.103 43.757,333.283" style="fill:none;stroke:black;stroke-width:4px;"/>
        <path d="M965.45,472.301L954.681,447.724L980.804,453.855L965.45,472.301Z"/>
        <path d="M1117.43,583.197C1117.43,583.197 1009.52,493.373 969.438,460.008" style="fill:none;stroke:black;stroke-width:4px;"/>
        <path d="M833.19,364.162L819.729,333.441L852.382,341.104L833.19,364.162Z" style="fill:rgb(255,0,0);"/>
        <path d="M916.483,413.976C916.483,413.976 866.251,372.164 838.175,348.795" style="fill:none;stroke:rgb(255,0,0);stroke-width:5px;"/>
        <path d="M149.353,79.392L172,65L169.925,91.753L149.353,79.392Z"/>
        <path d="M29,303C29,303 129.74,135.336 162.112,81.458" style="fill:none;stroke:black;stroke-width:4px;"/>
        <path d="M922.789,79.392L945.435,65L943.361,91.753L922.789,79.392Z"/>
        <path d="M802.435,303C802.435,303 903.175,135.336 935.547,81.458" style="fill:none;stroke:black;stroke-width:4px;"/>
        <path d="M483.308,178.826L501,199L474.246,201.05L483.308,178.826Z"/>
        <path d="M192,73C192,73 417.491,164.948 483.221,191.75" style="fill:none;stroke:black;stroke-width:4px;"/>
        <path d="M1256.74,178.826L1274.43,199L1247.68,201.05L1256.74,178.826Z"/>
        <path d="M965.435,73C965.435,73 1190.93,164.948 1256.66,191.75" style="fill:none;stroke:black;stroke-width:4px;"/>
        <path d="M412.097,577.188L394,597L389.009,570.635L412.097,577.188Z"/>
        <path d="M501,220C501,220 420.738,502.792 399.242,578.53" style="fill:none;stroke:black;stroke-width:4px;"/>
        <path d="M1185.53,577.188L1167.43,597L1162.44,570.635L1185.53,577.188Z"/>
        <path d="M1274.43,220C1274.43,220 1194.17,502.792 1172.68,578.53" style="fill:none;stroke:black;stroke-width:4px;"/>
        <path d="M294.504,240.363L320,232L311.393,257.415L294.504,240.363Z"/>
        <path d="M6,543C6,543 246.009,305.284 306.359,245.511" style="fill:none;stroke:black;stroke-width:4px;"/>
        <path d="M883.184,423.352L908.681,414.989L900.073,440.404L883.184,423.352Z"/>
        <path d="M779.435,543C779.435,543 861.82,461.402 895.039,428.501" style="fill:none;stroke:black;stroke-width:4px;"/>
        <path d="M1048.88,259.071L1080.75,248.618L1069.99,280.386L1048.88,259.071Z" style="fill:rgb(255,0,0);"/>
        <path d="M951.508,376.628C951.508,376.628 1028.6,300.277 1063.7,265.507" style="fill:none;stroke:rgb(255,0,0);stroke-width:5px;"/>
        <path d="M602.203,363.81L618,385.5L591.17,385.123L602.203,363.81Z"/>
        <path d="M335,239C335,239 539.782,345.009 600.949,376.673" style="fill:none;stroke:black;stroke-width:4px;"/>
        <path d="M1375.64,363.81L1391.43,385.5L1364.61,385.123L1375.64,363.81Z"/>
        <path d="M1108.43,239C1108.43,239 1313.22,345.009 1374.38,376.673" style="fill:none;stroke:black;stroke-width:4px;"/>
        <path d="M522.759,744.58L504,763.766L499.907,737.247L522.759,744.58Z"/>
        <path d="M618,408.5C618,408.5 533.178,672.836 509.866,745.484" style="fill:none;stroke:black;stroke-width:4px;"/>
        <path d="M1296.19,744.58L1277.43,763.766L1273.34,737.247L1296.19,744.58Z"/>
        <path d="M1391.43,408.5C1391.43,408.5 1306.61,672.836 1283.3,745.484" style="fill:none;stroke:black;stroke-width:4px;"/>
        <path d="M44.629,602.059L28,581L54.825,580.332L44.629,602.059Z"/>
        <path d="M475.5,791C475.5,791 127.827,627.846 45.381,589.157" style="fill:none;stroke:black;stroke-width:4px;"/>
        <path d="M818.064,602.059L801.435,581L828.26,580.332L818.064,602.059Z"/>
        <path d="M1248.93,791C1248.93,791 901.262,627.846 818.817,589.157" style="fill:none;stroke:black;stroke-width:4px;"/>
        <circle cx="53.08" cy="311.641" r="13.5"/>
        <circle cx="826.515" cy="311.641" r="13.5"/>
        <circle cx="947.745" cy="413.987" r="19.013" style="fill:rgb(255,0,0);"/>
        <circle cx="185.706" cy="94.646" r="13.5"/>
        <circle cx="959.142" cy="94.646" r="13.5"/>
        <circle cx="478.163" cy="217.017" r="13.5"/>
        <circle cx="1251.6" cy="217.017" r="13.5"/>
        <circle cx="371.523" cy="582.049" r="13.5"/>
        <circle cx="1144.96" cy="582.049" r="13.5"/>
        <circle cx="325.507" cy="266.018" r="13.5"/>
        <circle cx="1098.94" cy="266.018" r="13.5"/>
        <circle cx="593.365" cy="403.719" r="13.5"/>
        <circle cx="1366.8" cy="403.719" r="13.5"/>
        <circle cx="478.662" cy="763.766" r="13.5"/>
        <circle cx="1252.1" cy="763.766" r="13.5"/>
        <circle cx="32.525" cy="553.283" r="13.5"/>
        <circle cx="805.96" cy="553.283" r="13.5"/>
        <path d="M107.466,806.096L64.938,806.096L64.938,738.896L78.09,738.896L78.09,794.384L107.466,794.384L107.466,806.096Z" style="fill:rgb(140,140,140);fill-rule:nonzero;"/>
        <path d="M880.901,806.096L838.373,806.096L838.373,738.896L851.525,738.896L851.525,794.384L880.901,794.384L880.901,806.096Z" style="fill:rgb(140,140,140);fill-rule:nonzero;"/>
    </g>
</svg>
