<?xml version="1.0" encoding="UTF-8" standalone="no"?>
<!DOCTYPE svg PUBLIC "-//W3C//DTD SVG 1.1//EN" "http://www.w3.org/Graphics/SVG/1.1/DTD/svg11.dtd">
<svg width="100%" height="100%" viewBox="0 0 1379 850" version="1.1" xmlns="http://www.w3.org/2000/svg" xmlns:xlink="http://www.w3.org/1999/xlink" xml:space="preserve" xmlns:serif="http://www.serif.com/" style="fill-rule:evenodd;clip-rule:evenodd;stroke-linejoin:round;stroke-miterlimit:10;">
    <rect id="Artboard8" x="-3880" y="-1037" width="5544" height="2861" style="fill:none;"/>
    <g id="Artboard81" serif:id="Artboard8">
        <path d="M688.532,201.59L751.532,233.09L688.532,264.59L688.532,201.59Z" style="fill:rgb(179,179,179);"/>
        <path d="M617.409,233.09L701.132,233.09" style="fill:none;stroke:rgb(179,179,179);stroke-width:14px;"/>
        <path d="M49.741,317.387L182.227,99.387L476.741,221.387L371.221,587.387L49.741,317.387Z" style="fill:none;stroke:rgb(127,127,127);stroke-width:8px;"/>
        <path d="M900.819,426.795L779.538,324.936L912.025,106.936L1206.54,228.936L1174.68,339.42L1052.45,276.713L900.819,426.795Z" style="fill:rgb(45,231,231);stroke:black;stroke-width:8px;"/>
        <path d="M29.655,559.164L322.655,269.164L591.655,407.164L476.741,770.164L29.655,559.164Z" style="fill:none;stroke:rgb(127,127,127);stroke-width:8px;"/>
        <path d="M1174.68,339.42L1321.45,414.713L1206.54,777.713L759.453,566.713L900.819,426.795L1101.02,594.936L1174.68,339.42Z" style="fill:rgb(249,85,185);stroke:black;stroke-width:8px;"/>
        <path d="M1174.68,339.42L1101.02,594.936L900.819,426.795L1052.45,276.713L1174.68,339.42Z" style="fill:rgb(248,253,112);stroke:black;stroke-width:8px;"/>
        <path d="M98.542,301.219L75.9,315.619L77.966,288.865L98.542,301.219Z" style="fill:rgb(21,183,183);"/>
        <path d="M189.9,125.74C189.9,125.74 113.49,253.009 85.783,299.158" style="fill:none;stroke:rgb(21,183,183);stroke-width:4px;stroke-linecap:square;"/>
        <path d="M148.873,359.301L159.655,383.872L133.529,377.755L148.873,359.301Z" style="fill:rgb(21,183,183);"/>
        <path d="M92.655,328.164C92.655,328.164 125.163,355.194 144.892,371.597" style="fill:none;stroke:rgb(21,183,183);stroke-width:4px;"/>
        <path d="M356.542,534.195L366.65,557.231L342.157,551.496L356.542,534.195Z" style="fill:rgb(118,122,2);"/>
        <path d="M202.65,420.871C202.65,420.871 313.272,512.849 352.809,545.723" style="fill:none;stroke:rgb(118,122,2);stroke-width:5px;"/>
        <path d="M397.573,368.457L415.852,348.813L420.6,375.222L397.573,368.457Z" style="fill:rgb(118,122,2);"/>
        <path d="M365.655,519.664C365.655,519.664 397.465,411.397 410.44,367.234" style="fill:none;stroke:rgb(118,122,2);stroke-width:4px;"/>
        <path d="M431.715,261.897L449.994,242.253L454.742,268.662L431.715,261.897Z" style="fill:rgb(21,183,183);"/>
        <path d="M432.997,300.104C432.997,300.104 439.606,277.61 444.581,260.674" style="fill:none;stroke:rgb(21,183,183);stroke-width:4px;"/>
        <path d="M219.843,146.345L202.655,125.74L229.452,124.353L219.843,146.345Z" style="fill:rgb(21,183,183);"/>
        <path d="M441.655,230.164C441.655,230.164 275.463,157.551 220.249,133.427" style="fill:none;stroke:rgb(21,183,183);stroke-width:4px;"/>
        <path d="M236.091,397.505L210.694,406.164L219.005,380.651L236.091,397.505Z" style="fill:rgb(118,122,2);"/>
        <path d="M322.155,293.164C322.155,293.164 253.843,362.42 224.177,392.495" style="fill:none;stroke:rgb(118,122,2);stroke-width:4px;"/>
        <path d="M88.076,552.548L64.267,560.666L72.058,536.748L88.076,552.548Z" style="fill:rgb(250,112,255);"/>
        <path d="M175.728,447.666C175.728,447.666 106.099,518.256 76.907,547.851" style="fill:none;stroke:rgb(250,112,255);stroke-width:5px;"/>
        <path d="M444.117,719.034L460.655,740.164L433.828,740.717L444.117,719.034Z" style="fill:rgb(250,112,255);"/>
        <path d="M87.655,563.164C87.655,563.164 369.789,697.046 443.309,731.933" style="fill:none;stroke:rgb(250,112,255);stroke-width:4px;"/>
        <path d="M547.012,440.963L565.655,421.664L569.908,448.158L547.012,440.963Z" style="fill:rgb(250,112,255);"/>
        <path d="M469.655,727.164C469.655,727.164 539.185,505.901 559.899,439.981" style="fill:none;stroke:rgb(250,112,255);stroke-width:4px;"/>
        <path d="M481.039,387.112L464.977,365.617L491.81,365.664L481.039,387.112Z" style="fill:rgb(250,112,255);"/>
        <path d="M559.655,413.164C559.655,413.164 509.422,387.937 482.135,374.234" style="fill:none;stroke:rgb(250,112,255);stroke-width:4px;"/>
        <path d="M346.688,319.531L330.626,298.037L357.459,298.084L346.688,319.531Z" style="fill:rgb(118,122,2);"/>
        <path d="M415.852,340.838C415.852,340.838 372.673,319.153 347.784,306.654" style="fill:none;stroke:rgb(118,122,2);stroke-width:4px;"/>
        <path d="M189.67,478.466L178.9,453.889L205.024,460.02L189.67,478.466Z" style="fill:rgb(250,112,255);"/>
        <path d="M341.655,589.361C341.655,589.361 233.742,499.537 193.657,466.172" style="fill:none;stroke:rgb(250,112,255);stroke-width:4px;"/>
        <path d="M416.461,553.108L398.364,572.92L393.373,546.556L416.461,553.108Z" style="fill:rgb(250,112,255);"/>
        <path d="M457.008,366.297C457.008,366.297 417.99,503.772 403.607,554.45" style="fill:none;stroke:rgb(250,112,255);stroke-width:4px;"/>
        <path d="M281.07,262.622L304.973,254.782L296.904,278.608L281.07,262.622Z" style="fill:rgb(21,183,183);"/>
        <path d="M175.728,382.793C175.728,382.793 259.547,299.774 292.184,267.449" style="fill:none;stroke:rgb(21,183,183);stroke-width:5px;"/>
        <path d="M411.155,272.289L426.952,293.979L400.122,293.602L411.155,272.289Z" style="fill:rgb(21,183,183);"/>
        <path d="M332.655,245.164C332.655,245.164 382.733,271.088 409.901,285.152" style="fill:none;stroke:rgb(21,183,183);stroke-width:4px;"/>
        <circle cx="170.945" cy="418.339" r="13.5"/>
        <circle cx="50.735" cy="317.806" r="13.5"/>
        <circle cx="183.361" cy="100.811" r="13.5"/>
        <circle cx="475.818" cy="223.181" r="13.5"/>
        <circle cx="445.463" cy="333.087" r="13.5"/>
        <circle cx="369.178" cy="588.213" r="13.5"/>
        <circle cx="323.162" cy="272.183" r="13.5"/>
        <circle cx="591.02" cy="409.883" r="13.5"/>
        <circle cx="476.318" cy="769.93" r="13.5"/>
        <circle cx="30.18" cy="559.447" r="13.5"/>
    </g>
</svg>
