<?xml version="1.0" encoding="UTF-8" standalone="no"?>
<!DOCTYPE svg PUBLIC "-//W3C//DTD SVG 1.1//EN" "http://www.w3.org/Graphics/SVG/1.1/DTD/svg11.dtd">
<svg width="100%" height="100%" viewBox="0 0 686 996" version="1.1" xmlns="http://www.w3.org/2000/svg" xmlns:xlink="http://www.w3.org/1999/xlink" xml:space="preserve" xmlns:serif="http://www.serif.com/" style="fill-rule:evenodd;clip-rule:evenodd;stroke-linecap:square;stroke-linejoin:round;stroke-miterlimit:10;">
    <g transform="matrix(1,0,0,1,-7718,-7037)">
        <rect id="DEM" x="4792" y="6066" width="3956" height="1997" style="fill:none;"/>
        <g id="DEM1" serif:id="DEM">
            <g>
                <path d="M7893.65,7165.5L8012.22,7165.5L7931.93,7280L7809.71,7355.33L7725.78,7369L7725.78,7287L7809.71,7268.21L7893.65,7165.5Z" style="fill:rgb(249,185,45);stroke:black;stroke-width:4px;"/>
                <path d="M7725.78,7492.86L7838.1,7443.37L7931.93,7369L8061.53,7165.5L8012.22,7165.5L7931.93,7280L7807,7357L7725.78,7369L7725.78,7492.86Z" style="fill:rgb(244,251,46);stroke:black;stroke-width:4px;"/>
                <path d="M7725.78,7568L7725.78,7492.86L7838.1,7443.37L7931.93,7369L8061.53,7165.5L8104,7165.5L8012.22,7369L7893.65,7476.36L7725.78,7568Z" style="fill:rgb(144,250,46);stroke:black;stroke-width:4px;"/>
                <path d="M7725.78,7287L7814,7267.25L7893.65,7165.5L7725.78,7165.5L7725.78,7287Z" style="fill:rgb(255,11,11);stroke:black;stroke-width:4px;"/>
                <path d="M7725.78,7728L7971.39,7564L8045.22,7554L8082,7630L8028.72,7709L7986,7837L7725.78,7837L7725.78,7728Z" style="fill:rgb(249,185,45);stroke:black;stroke-width:4px;"/>
                <path d="M8061.53,7837L8124,7651L8122,7520L8139,7369L8274,7165.5L8397.27,7165.5L8397.27,7406L8316,7582L8233,7755L8217,7837L8061.53,7837Z" style="fill:rgb(144,250,46);stroke:black;stroke-width:4px;"/>
                <path d="M8217,7837L8397.27,7837L8397.27,7406L8233,7755L8217,7837Z" style="fill:rgb(59,251,225);stroke:black;stroke-width:4px;"/>
                <path d="M8104,7165.5L8274,7165.5L8139,7369L8122,7520L8124,7651L8061.53,7837L7986,7837L8028.72,7709L8082,7630L8045.22,7554L7971.39,7564L7725.78,7728L7725.78,7568L7893.65,7476.36L8013.23,7366.75L8104,7165.5Z" style="fill:rgb(244,251,46);stroke:black;stroke-width:4px;"/>
            </g>
            <g id="white-squares" serif:id="white squares">
            </g>
            <g id="Tracing">
            </g>
            <g id="Stream">
            </g>
            <g id="DOTS">
            </g>
            <g transform="matrix(1,0,0,1,1137.77,34)">
                <rect x="6588" y="7131.5" width="671.5" height="671.5" style="fill:none;stroke:black;stroke-width:8px;stroke-linecap:round;"/>
            </g>
            <g transform="matrix(1,0,0,1,2384.8,56.1514)">
                <g transform="matrix(84,0,0,84,5434.5,7059.47)">
                    <path d="M0.06,-0.693C0.088,-0.698 0.119,-0.703 0.153,-0.706C0.186,-0.708 0.22,-0.71 0.253,-0.71C0.288,-0.71 0.323,-0.707 0.358,-0.702C0.393,-0.696 0.424,-0.685 0.452,-0.668C0.48,-0.651 0.503,-0.627 0.521,-0.597C0.538,-0.566 0.547,-0.527 0.547,-0.478C0.547,-0.434 0.539,-0.397 0.524,-0.367C0.509,-0.336 0.488,-0.311 0.463,-0.292C0.438,-0.273 0.409,-0.259 0.377,-0.25C0.344,-0.241 0.311,-0.237 0.276,-0.237L0.26,-0.237C0.253,-0.237 0.245,-0.237 0.237,-0.238C0.229,-0.238 0.221,-0.238 0.214,-0.239C0.206,-0.24 0.2,-0.24 0.197,-0.241L0.197,-0L0.06,-0L0.06,-0.693ZM0.264,-0.592C0.251,-0.592 0.238,-0.592 0.226,-0.591C0.214,-0.59 0.204,-0.588 0.197,-0.587L0.197,-0.36C0.2,-0.359 0.204,-0.359 0.209,-0.358C0.214,-0.357 0.22,-0.357 0.226,-0.357C0.232,-0.356 0.238,-0.356 0.244,-0.356L0.256,-0.356C0.274,-0.356 0.292,-0.358 0.31,-0.361C0.327,-0.364 0.343,-0.371 0.357,-0.38C0.371,-0.389 0.382,-0.401 0.391,-0.417C0.399,-0.433 0.403,-0.454 0.403,-0.48C0.403,-0.502 0.399,-0.52 0.391,-0.535C0.383,-0.549 0.373,-0.56 0.36,-0.569C0.347,-0.578 0.332,-0.584 0.315,-0.587C0.298,-0.59 0.281,-0.592 0.264,-0.592Z" style="fill-rule:nonzero;"/>
                </g>
                <g transform="matrix(84,0,0,84,5482.55,7059.47)">
                    <path d="M0.054,-0.471C0.081,-0.483 0.112,-0.493 0.149,-0.5C0.186,-0.507 0.224,-0.51 0.264,-0.51C0.299,-0.51 0.328,-0.506 0.351,-0.498C0.374,-0.489 0.393,-0.477 0.407,-0.462C0.42,-0.447 0.43,-0.428 0.436,-0.407C0.441,-0.386 0.444,-0.362 0.444,-0.335C0.444,-0.306 0.443,-0.276 0.441,-0.247C0.439,-0.217 0.438,-0.188 0.438,-0.159C0.437,-0.13 0.438,-0.102 0.44,-0.076C0.442,-0.049 0.447,-0.023 0.455,0.001L0.349,0.001L0.328,-0.068L0.323,-0.068C0.31,-0.047 0.291,-0.029 0.268,-0.015C0.244,0 0.213,0.008 0.176,0.008C0.153,0.008 0.132,0.005 0.113,-0.003C0.094,-0.01 0.078,-0.02 0.065,-0.033C0.052,-0.046 0.041,-0.061 0.034,-0.079C0.027,-0.096 0.023,-0.116 0.023,-0.138C0.023,-0.169 0.03,-0.195 0.044,-0.216C0.057,-0.237 0.077,-0.254 0.103,-0.267C0.128,-0.28 0.159,-0.289 0.195,-0.294C0.23,-0.299 0.27,-0.3 0.314,-0.298C0.319,-0.335 0.316,-0.362 0.306,-0.379C0.296,-0.395 0.274,-0.403 0.239,-0.403C0.213,-0.403 0.186,-0.4 0.157,-0.395C0.128,-0.39 0.104,-0.383 0.085,-0.374L0.054,-0.471ZM0.219,-0.099C0.245,-0.099 0.266,-0.105 0.281,-0.117C0.296,-0.128 0.308,-0.141 0.315,-0.154L0.315,-0.219C0.294,-0.221 0.275,-0.221 0.256,-0.22C0.237,-0.219 0.22,-0.216 0.205,-0.211C0.19,-0.206 0.179,-0.2 0.17,-0.191C0.161,-0.182 0.157,-0.171 0.157,-0.158C0.157,-0.139 0.163,-0.125 0.174,-0.115C0.185,-0.104 0.2,-0.099 0.219,-0.099Z" style="fill-rule:nonzero;"/>
                </g>
                <g transform="matrix(84,0,0,84,5524.22,7059.47)">
                    <path d="M0.109,-0.207L0.109,-0.298L0.17,-0.298C0.193,-0.298 0.213,-0.303 0.228,-0.312C0.243,-0.321 0.25,-0.334 0.25,-0.349C0.25,-0.367 0.243,-0.38 0.23,-0.388C0.217,-0.395 0.196,-0.399 0.169,-0.399C0.143,-0.399 0.12,-0.396 0.1,-0.389C0.08,-0.382 0.064,-0.375 0.052,-0.368L0.024,-0.467C0.044,-0.478 0.071,-0.488 0.104,-0.497C0.136,-0.505 0.172,-0.509 0.209,-0.509C0.266,-0.509 0.309,-0.498 0.338,-0.477C0.366,-0.456 0.38,-0.425 0.38,-0.384C0.38,-0.373 0.379,-0.361 0.376,-0.35C0.373,-0.338 0.368,-0.327 0.361,-0.316C0.354,-0.305 0.346,-0.296 0.337,-0.288C0.327,-0.279 0.315,-0.273 0.302,-0.268L0.302,-0.264C0.337,-0.256 0.362,-0.242 0.377,-0.222C0.392,-0.201 0.399,-0.174 0.399,-0.14C0.399,-0.119 0.395,-0.099 0.386,-0.081C0.377,-0.062 0.364,-0.046 0.347,-0.033C0.329,-0.02 0.307,-0.009 0.28,-0.001C0.253,0.007 0.222,0.011 0.185,0.011C0.148,0.011 0.117,0.007 0.09,-0.001C0.063,-0.008 0.04,-0.017 0.022,-0.027L0.05,-0.128C0.065,-0.119 0.084,-0.112 0.106,-0.107C0.127,-0.102 0.151,-0.099 0.178,-0.099C0.239,-0.099 0.269,-0.118 0.269,-0.157C0.269,-0.174 0.261,-0.187 0.246,-0.195C0.23,-0.203 0.201,-0.207 0.158,-0.207L0.109,-0.207Z" style="fill-rule:nonzero;"/>
                </g>
                <g transform="matrix(84,0,0,84,5560.5,7059.47)">
                    <path d="M0.485,-0.229L0.493,-0.333L0.488,-0.333L0.448,-0.247L0.354,-0.092L0.307,-0.092L0.204,-0.247L0.166,-0.333L0.16,-0.333L0.173,-0.23L0.173,-0L0.057,-0L0.057,-0.5L0.192,-0.5L0.307,-0.312L0.335,-0.249L0.339,-0.249L0.368,-0.314L0.474,-0.5L0.61,-0.5L0.61,-0L0.485,-0L0.485,-0.229Z" style="fill-rule:nonzero;"/>
                </g>
                <g transform="matrix(84,0,0,84,5616.45,7059.47)">
                    <path d="M0.457,-0.043C0.437,-0.027 0.41,-0.014 0.376,-0.003C0.341,0.009 0.305,0.014 0.266,0.014C0.185,0.014 0.126,-0.01 0.089,-0.057C0.052,-0.103 0.033,-0.168 0.033,-0.25C0.033,-0.338 0.054,-0.404 0.096,-0.448C0.138,-0.492 0.197,-0.514 0.273,-0.514C0.298,-0.514 0.323,-0.511 0.347,-0.504C0.371,-0.497 0.392,-0.486 0.411,-0.471C0.43,-0.456 0.445,-0.435 0.456,-0.409C0.467,-0.383 0.473,-0.351 0.473,-0.312C0.473,-0.298 0.472,-0.283 0.471,-0.267C0.469,-0.251 0.466,-0.234 0.463,-0.217L0.163,-0.217C0.165,-0.175 0.176,-0.143 0.196,-0.122C0.215,-0.101 0.247,-0.09 0.291,-0.09C0.318,-0.09 0.343,-0.094 0.365,-0.103C0.386,-0.111 0.403,-0.119 0.414,-0.128L0.457,-0.043ZM0.271,-0.41C0.237,-0.41 0.212,-0.4 0.196,-0.38C0.179,-0.359 0.169,-0.332 0.166,-0.298L0.352,-0.298C0.355,-0.334 0.349,-0.362 0.336,-0.381C0.322,-0.4 0.3,-0.41 0.271,-0.41Z" style="fill-rule:nonzero;"/>
                </g>
                <g transform="matrix(84,0,0,84,5659.12,7059.47)">
                    <path d="M0.769,0.13L0.675,0.13L0.66,-0L0.057,-0L0.057,-0.5L0.187,-0.5L0.187,-0.115L0.312,-0.115L0.312,-0.5L0.442,-0.5L0.442,-0.115L0.567,-0.115L0.567,-0.5L0.697,-0.5L0.697,-0.115L0.769,-0.115L0.769,0.13Z" style="fill-rule:nonzero;"/>
                </g>
                <g transform="matrix(84,0,0,84,5724.89,7059.47)">
                    <path d="M0.457,-0.043C0.437,-0.027 0.41,-0.014 0.376,-0.003C0.341,0.009 0.305,0.014 0.266,0.014C0.185,0.014 0.126,-0.01 0.089,-0.057C0.052,-0.103 0.033,-0.168 0.033,-0.25C0.033,-0.338 0.054,-0.404 0.096,-0.448C0.138,-0.492 0.197,-0.514 0.273,-0.514C0.298,-0.514 0.323,-0.511 0.347,-0.504C0.371,-0.497 0.392,-0.486 0.411,-0.471C0.43,-0.456 0.445,-0.435 0.456,-0.409C0.467,-0.383 0.473,-0.351 0.473,-0.312C0.473,-0.298 0.472,-0.283 0.471,-0.267C0.469,-0.251 0.466,-0.234 0.463,-0.217L0.163,-0.217C0.165,-0.175 0.176,-0.143 0.196,-0.122C0.215,-0.101 0.247,-0.09 0.291,-0.09C0.318,-0.09 0.343,-0.094 0.365,-0.103C0.386,-0.111 0.403,-0.119 0.414,-0.128L0.457,-0.043ZM0.271,-0.41C0.237,-0.41 0.212,-0.4 0.196,-0.38C0.179,-0.359 0.169,-0.332 0.166,-0.298L0.352,-0.298C0.355,-0.334 0.349,-0.362 0.336,-0.381C0.322,-0.4 0.3,-0.41 0.271,-0.41Z" style="fill-rule:nonzero;"/>
                </g>
                <g transform="matrix(84,0,0,84,5767.56,7059.47)">
                    <path d="M0.35,-0.196L0.187,-0.196L0.187,-0L0.057,-0L0.057,-0.5L0.187,-0.5L0.187,-0.312L0.35,-0.312L0.35,-0.5L0.48,-0.5L0.48,-0L0.35,-0L0.35,-0.196Z" style="fill-rule:nonzero;"/>
                </g>
                <g transform="matrix(84,0,0,84,5812.67,7059.47)">
                    <path d="M0.358,-0.228L0.363,-0.299L0.36,-0.299L0.317,-0.226L0.139,-0L0.057,-0L0.057,-0.5L0.187,-0.5L0.187,-0.262L0.181,-0.194L0.185,-0.194L0.226,-0.265L0.406,-0.5L0.488,-0.5L0.488,-0L0.358,-0L0.358,-0.228Z" style="fill-rule:nonzero;"/>
                </g>
                <g transform="matrix(84,0,0,84,5858.45,7059.47)">
                    <path d="M0.457,-0.043C0.437,-0.027 0.41,-0.014 0.376,-0.003C0.341,0.009 0.305,0.014 0.266,0.014C0.185,0.014 0.126,-0.01 0.089,-0.057C0.052,-0.103 0.033,-0.168 0.033,-0.25C0.033,-0.338 0.054,-0.404 0.096,-0.448C0.138,-0.492 0.197,-0.514 0.273,-0.514C0.298,-0.514 0.323,-0.511 0.347,-0.504C0.371,-0.497 0.392,-0.486 0.411,-0.471C0.43,-0.456 0.445,-0.435 0.456,-0.409C0.467,-0.383 0.473,-0.351 0.473,-0.312C0.473,-0.298 0.472,-0.283 0.471,-0.267C0.469,-0.251 0.466,-0.234 0.463,-0.217L0.163,-0.217C0.165,-0.175 0.176,-0.143 0.196,-0.122C0.215,-0.101 0.247,-0.09 0.291,-0.09C0.318,-0.09 0.343,-0.094 0.365,-0.103C0.386,-0.111 0.403,-0.119 0.414,-0.128L0.457,-0.043ZM0.271,-0.41C0.237,-0.41 0.212,-0.4 0.196,-0.38C0.179,-0.359 0.169,-0.332 0.166,-0.298L0.352,-0.298C0.355,-0.334 0.349,-0.362 0.336,-0.381C0.322,-0.4 0.3,-0.41 0.271,-0.41Z" style="fill-rule:nonzero;"/>
                </g>
            </g>
            <g transform="matrix(1,0,0,1,2495.37,872.519)">
                <g transform="matrix(72,0,0,72,5308.67,7059.47)">
                    <path d="M0.056,-0.35C0.056,-0.467 0.081,-0.556 0.13,-0.619C0.179,-0.681 0.25,-0.712 0.341,-0.712C0.39,-0.712 0.433,-0.703 0.469,-0.686C0.505,-0.669 0.535,-0.644 0.559,-0.613C0.582,-0.581 0.6,-0.543 0.611,-0.499C0.622,-0.454 0.628,-0.405 0.628,-0.35C0.628,-0.233 0.603,-0.144 0.554,-0.082C0.504,-0.019 0.433,0.012 0.341,0.012C0.292,0.012 0.25,0.003 0.215,-0.014C0.179,-0.031 0.149,-0.056 0.126,-0.088C0.102,-0.119 0.084,-0.157 0.073,-0.202C0.062,-0.246 0.056,-0.295 0.056,-0.35ZM0.144,-0.35C0.144,-0.311 0.148,-0.275 0.156,-0.24C0.163,-0.205 0.175,-0.175 0.191,-0.149C0.207,-0.122 0.228,-0.101 0.253,-0.086C0.278,-0.07 0.307,-0.062 0.341,-0.062C0.403,-0.062 0.452,-0.086 0.487,-0.133C0.522,-0.18 0.54,-0.252 0.54,-0.35C0.54,-0.388 0.536,-0.425 0.529,-0.46C0.521,-0.495 0.509,-0.525 0.493,-0.552C0.476,-0.578 0.456,-0.599 0.431,-0.615C0.405,-0.63 0.376,-0.638 0.341,-0.638C0.28,-0.638 0.232,-0.615 0.197,-0.568C0.162,-0.521 0.144,-0.448 0.144,-0.35Z" style="fill-rule:nonzero;"/>
                </g>
                <g transform="matrix(72,0,0,72,5357.92,7059.47)">
                    <path d="M0.395,-0.43L0.239,-0.43L0.239,-0L0.159,-0L0.159,-0.43L0.003,-0.43L0.003,-0.5L0.395,-0.5L0.395,-0.43Z" style="fill-rule:nonzero;"/>
                </g>
                <g transform="matrix(72,0,0,72,5405.73,7059.47)">
                    <path d="M0.129,-0.5L0.129,-0.364C0.129,-0.346 0.13,-0.33 0.132,-0.316C0.134,-0.301 0.138,-0.289 0.144,-0.279C0.15,-0.268 0.159,-0.26 0.17,-0.255C0.181,-0.249 0.196,-0.246 0.215,-0.246C0.245,-0.246 0.27,-0.249 0.289,-0.256C0.308,-0.263 0.323,-0.27 0.333,-0.278L0.333,-0.5L0.413,-0.5L0.413,-0L0.333,-0L0.333,-0.21C0.322,-0.203 0.307,-0.196 0.286,-0.188C0.265,-0.18 0.236,-0.176 0.199,-0.176C0.174,-0.176 0.153,-0.179 0.134,-0.184C0.115,-0.189 0.1,-0.199 0.087,-0.212C0.074,-0.225 0.065,-0.243 0.059,-0.265C0.052,-0.287 0.049,-0.315 0.049,-0.348L0.049,-0.5L0.129,-0.5Z" style="fill-rule:nonzero;"/>
                </g>
                <g transform="matrix(72,0,0,72,5441.01,7059.47)">
                    <path d="M0.442,-0.04C0.422,-0.024 0.397,-0.011 0.367,-0.002C0.336,0.007 0.304,0.012 0.27,0.012C0.232,0.012 0.199,0.006 0.171,-0.007C0.143,-0.019 0.12,-0.037 0.102,-0.06C0.084,-0.083 0.071,-0.11 0.062,-0.142C0.053,-0.174 0.049,-0.21 0.049,-0.25C0.049,-0.335 0.068,-0.4 0.106,-0.445C0.144,-0.49 0.198,-0.512 0.269,-0.512C0.292,-0.512 0.314,-0.51 0.337,-0.505C0.36,-0.5 0.38,-0.49 0.398,-0.476C0.416,-0.462 0.431,-0.442 0.442,-0.417C0.453,-0.391 0.459,-0.357 0.459,-0.315C0.459,-0.293 0.457,-0.269 0.453,-0.242L0.132,-0.242C0.132,-0.213 0.135,-0.187 0.141,-0.164C0.147,-0.141 0.156,-0.122 0.169,-0.107C0.182,-0.091 0.198,-0.079 0.219,-0.071C0.239,-0.062 0.264,-0.058 0.293,-0.058C0.316,-0.058 0.338,-0.062 0.361,-0.07C0.384,-0.078 0.401,-0.087 0.412,-0.098L0.442,-0.04ZM0.27,-0.442C0.231,-0.442 0.199,-0.432 0.176,-0.411C0.152,-0.39 0.138,-0.355 0.133,-0.305L0.381,-0.305C0.381,-0.356 0.371,-0.391 0.352,-0.412C0.333,-0.432 0.305,-0.442 0.27,-0.442Z" style="fill-rule:nonzero;"/>
                </g>
                <g transform="matrix(72,0,0,72,5477.58,7059.47)">
                    <path d="M0.369,-0.43L0.157,-0.43L0.157,-0L0.077,-0L0.077,-0.5L0.369,-0.5L0.369,-0.43Z" style="fill-rule:nonzero;"/>
                </g>
                <g transform="matrix(72,0,0,72,5504.15,7059.47)">
                    <path d="M0.049,-0.25C0.049,-0.335 0.068,-0.4 0.106,-0.445C0.143,-0.49 0.197,-0.512 0.268,-0.512C0.305,-0.512 0.338,-0.506 0.366,-0.494C0.393,-0.481 0.416,-0.464 0.434,-0.441C0.452,-0.418 0.465,-0.39 0.474,-0.358C0.483,-0.325 0.487,-0.289 0.487,-0.25C0.487,-0.165 0.468,-0.1 0.431,-0.056C0.393,-0.011 0.339,0.012 0.268,0.012C0.231,0.012 0.198,0.006 0.171,-0.007C0.143,-0.019 0.12,-0.037 0.102,-0.06C0.084,-0.083 0.071,-0.11 0.062,-0.143C0.053,-0.175 0.049,-0.211 0.049,-0.25ZM0.132,-0.25C0.132,-0.225 0.135,-0.2 0.14,-0.177C0.145,-0.154 0.152,-0.133 0.163,-0.116C0.174,-0.099 0.188,-0.085 0.205,-0.074C0.222,-0.063 0.243,-0.058 0.268,-0.058C0.359,-0.057 0.404,-0.121 0.404,-0.25C0.404,-0.276 0.402,-0.301 0.397,-0.324C0.392,-0.347 0.384,-0.368 0.373,-0.385C0.362,-0.402 0.348,-0.416 0.331,-0.427C0.314,-0.437 0.293,-0.442 0.268,-0.442C0.177,-0.443 0.132,-0.379 0.132,-0.25Z" style="fill-rule:nonzero;"/>
                </g>
                <g transform="matrix(72,0,0,72,5561.97,7059.47)">
                    <path d="M0.125,-0.223L0.125,-0.288L0.195,-0.288C0.207,-0.288 0.219,-0.29 0.231,-0.294C0.242,-0.298 0.253,-0.304 0.262,-0.311C0.271,-0.318 0.279,-0.326 0.285,-0.336C0.29,-0.345 0.293,-0.355 0.293,-0.366C0.293,-0.392 0.284,-0.41 0.266,-0.421C0.248,-0.432 0.221,-0.437 0.185,-0.437C0.159,-0.437 0.135,-0.433 0.114,-0.425C0.092,-0.417 0.075,-0.409 0.063,-0.402L0.04,-0.464C0.06,-0.475 0.084,-0.485 0.111,-0.494C0.137,-0.503 0.17,-0.507 0.207,-0.507C0.318,-0.507 0.373,-0.466 0.373,-0.384C0.373,-0.361 0.366,-0.338 0.351,-0.316C0.335,-0.293 0.314,-0.277 0.286,-0.268L0.286,-0.264C0.325,-0.257 0.353,-0.243 0.369,-0.222C0.384,-0.201 0.392,-0.174 0.392,-0.14C0.392,-0.119 0.388,-0.099 0.379,-0.081C0.37,-0.063 0.357,-0.047 0.34,-0.034C0.323,-0.021 0.301,-0.01 0.275,-0.003C0.248,0.005 0.218,0.009 0.183,0.009C0.149,0.009 0.121,0.006 0.099,-0C0.076,-0.006 0.056,-0.013 0.038,-0.022L0.061,-0.088C0.076,-0.079 0.095,-0.073 0.117,-0.068C0.138,-0.063 0.162,-0.061 0.187,-0.061C0.228,-0.061 0.259,-0.068 0.28,-0.082C0.301,-0.096 0.312,-0.117 0.312,-0.146C0.312,-0.17 0.302,-0.189 0.282,-0.203C0.262,-0.216 0.229,-0.223 0.183,-0.223L0.125,-0.223Z" style="fill-rule:nonzero;"/>
                </g>
                <g transform="matrix(72,0,0,72,5593.72,7059.47)">
                    <path d="M0.069,-0.463C0.094,-0.478 0.124,-0.49 0.158,-0.497C0.191,-0.504 0.226,-0.508 0.263,-0.508C0.298,-0.508 0.326,-0.503 0.347,-0.494C0.368,-0.485 0.384,-0.472 0.395,-0.458C0.406,-0.443 0.413,-0.426 0.417,-0.408C0.42,-0.39 0.422,-0.372 0.422,-0.354C0.422,-0.314 0.421,-0.275 0.419,-0.237C0.417,-0.199 0.416,-0.163 0.416,-0.129C0.416,-0.104 0.417,-0.081 0.419,-0.059C0.421,-0.037 0.425,-0.017 0.43,0.002L0.371,0.002L0.35,-0.068L0.345,-0.068C0.339,-0.059 0.332,-0.049 0.323,-0.041C0.314,-0.032 0.303,-0.024 0.29,-0.017C0.277,-0.01 0.263,-0.004 0.246,0.001C0.229,0.006 0.21,0.008 0.189,0.008C0.168,0.008 0.148,0.005 0.13,-0.002C0.111,-0.009 0.095,-0.018 0.082,-0.031C0.069,-0.043 0.058,-0.058 0.051,-0.075C0.043,-0.092 0.039,-0.112 0.039,-0.134C0.039,-0.163 0.045,-0.188 0.057,-0.208C0.069,-0.227 0.086,-0.243 0.108,-0.255C0.129,-0.266 0.155,-0.275 0.186,-0.28C0.216,-0.285 0.249,-0.287 0.286,-0.287L0.314,-0.287C0.323,-0.287 0.332,-0.286 0.341,-0.285C0.343,-0.305 0.344,-0.323 0.344,-0.339C0.344,-0.376 0.337,-0.401 0.322,-0.416C0.307,-0.431 0.281,-0.438 0.242,-0.438C0.231,-0.438 0.219,-0.437 0.206,-0.436C0.193,-0.434 0.179,-0.432 0.166,-0.429C0.152,-0.426 0.139,-0.422 0.127,-0.418C0.114,-0.413 0.103,-0.408 0.094,-0.403L0.069,-0.463ZM0.211,-0.062C0.23,-0.062 0.246,-0.065 0.261,-0.07C0.276,-0.075 0.288,-0.081 0.299,-0.089C0.31,-0.096 0.319,-0.105 0.326,-0.114C0.333,-0.123 0.338,-0.132 0.341,-0.141L0.341,-0.224C0.332,-0.225 0.322,-0.225 0.313,-0.226C0.303,-0.226 0.293,-0.226 0.284,-0.226C0.263,-0.226 0.243,-0.225 0.224,-0.223C0.204,-0.22 0.187,-0.216 0.172,-0.21C0.157,-0.203 0.145,-0.195 0.136,-0.184C0.127,-0.173 0.122,-0.159 0.122,-0.142C0.122,-0.119 0.13,-0.099 0.147,-0.085C0.164,-0.07 0.185,-0.062 0.211,-0.062Z" style="fill-rule:nonzero;"/>
                </g>
                <g transform="matrix(72,0,0,72,5629.43,7059.47)">
                    <path d="M0.077,-0.499C0.1,-0.5 0.125,-0.502 0.151,-0.504C0.176,-0.506 0.208,-0.507 0.246,-0.507C0.312,-0.507 0.359,-0.497 0.388,-0.477C0.417,-0.456 0.431,-0.425 0.431,-0.384C0.431,-0.361 0.424,-0.338 0.411,-0.316C0.397,-0.293 0.374,-0.277 0.343,-0.266L0.343,-0.262C0.382,-0.255 0.41,-0.241 0.426,-0.221C0.442,-0.201 0.45,-0.174 0.45,-0.141C0.45,-0.089 0.431,-0.051 0.394,-0.028C0.357,-0.005 0.301,0.007 0.226,0.007C0.198,0.007 0.172,0.006 0.148,0.005C0.124,0.003 0.1,0.001 0.077,-0.001L0.077,-0.499ZM0.157,-0.067C0.17,-0.066 0.182,-0.065 0.195,-0.064C0.207,-0.063 0.221,-0.063 0.238,-0.063C0.283,-0.063 0.316,-0.069 0.338,-0.082C0.359,-0.095 0.37,-0.116 0.37,-0.147C0.37,-0.171 0.361,-0.191 0.343,-0.206C0.324,-0.221 0.292,-0.228 0.245,-0.228L0.157,-0.228L0.157,-0.067ZM0.255,-0.289C0.267,-0.289 0.279,-0.291 0.29,-0.295C0.301,-0.299 0.312,-0.305 0.321,-0.312C0.33,-0.319 0.337,-0.327 0.343,-0.336C0.348,-0.345 0.351,-0.355 0.351,-0.366C0.351,-0.393 0.343,-0.411 0.327,-0.422C0.311,-0.432 0.283,-0.437 0.243,-0.437C0.222,-0.437 0.205,-0.437 0.193,-0.436C0.18,-0.435 0.168,-0.435 0.157,-0.434L0.157,-0.289L0.255,-0.289Z" style="fill-rule:nonzero;"/>
                </g>
                <g transform="matrix(72,0,0,72,5665.36,7059.47)">
                    <path d="M0.389,-0.296L0.392,-0.358L0.389,-0.358L0.348,-0.294L0.123,-0L0.077,-0L0.077,-0.5L0.157,-0.5L0.157,-0.195L0.154,-0.136L0.158,-0.136L0.197,-0.198L0.422,-0.5L0.469,-0.5L0.469,-0L0.389,-0L0.389,-0.296Z" style="fill-rule:nonzero;"/>
                </g>
                <g transform="matrix(72,0,0,72,5704.67,7059.47)">
                    <path d="M0.418,-0.033C0.398,-0.018 0.374,-0.007 0.347,0.001C0.32,0.008 0.291,0.012 0.261,0.012C0.222,0.012 0.19,0.006 0.163,-0.007C0.136,-0.019 0.115,-0.037 0.098,-0.06C0.081,-0.083 0.068,-0.11 0.061,-0.143C0.053,-0.175 0.049,-0.211 0.049,-0.25C0.049,-0.335 0.068,-0.4 0.105,-0.445C0.142,-0.49 0.196,-0.512 0.266,-0.512C0.298,-0.512 0.325,-0.51 0.348,-0.505C0.37,-0.5 0.39,-0.492 0.408,-0.483L0.385,-0.414C0.37,-0.423 0.353,-0.43 0.334,-0.435C0.315,-0.44 0.295,-0.442 0.274,-0.442C0.179,-0.442 0.132,-0.378 0.132,-0.25C0.132,-0.225 0.135,-0.2 0.14,-0.178C0.145,-0.155 0.153,-0.134 0.165,-0.117C0.176,-0.099 0.192,-0.085 0.211,-0.074C0.23,-0.063 0.253,-0.058 0.281,-0.058C0.305,-0.058 0.327,-0.062 0.346,-0.069C0.365,-0.076 0.38,-0.085 0.392,-0.094L0.418,-0.033Z" style="fill-rule:nonzero;"/>
                </g>
                <g transform="matrix(72,0,0,72,5737.14,7059.47)">
                    <path d="M0.389,-0.296L0.392,-0.358L0.389,-0.358L0.348,-0.294L0.123,-0L0.077,-0L0.077,-0.5L0.157,-0.5L0.157,-0.195L0.154,-0.136L0.158,-0.136L0.197,-0.198L0.422,-0.5L0.469,-0.5L0.469,-0L0.389,-0L0.389,-0.296Z" style="fill-rule:nonzero;"/>
                </g>
                <g transform="matrix(72,0,0,72,5776.46,7059.47)">
                    <path d="M0.395,-0.43L0.239,-0.43L0.239,-0L0.159,-0L0.159,-0.43L0.003,-0.43L0.003,-0.5L0.395,-0.5L0.395,-0.43Z" style="fill-rule:nonzero;"/>
                </g>
                <g transform="matrix(72,0,0,72,5343.66,7140.04)">
                    <path d="M0.077,-0.5L0.132,-0.5L0.147,-0.44L0.151,-0.44C0.166,-0.463 0.186,-0.481 0.211,-0.494C0.235,-0.506 0.263,-0.512 0.294,-0.512C0.361,-0.512 0.41,-0.492 0.443,-0.453C0.476,-0.414 0.492,-0.349 0.492,-0.26C0.492,-0.218 0.487,-0.18 0.476,-0.147C0.464,-0.113 0.449,-0.084 0.429,-0.061C0.409,-0.038 0.385,-0.02 0.357,-0.007C0.328,0.006 0.297,0.012 0.262,0.012C0.237,0.012 0.218,0.011 0.204,0.008C0.189,0.005 0.174,-0.001 0.157,-0.008L0.157,0.2L0.077,0.2L0.077,-0.5ZM0.279,-0.442C0.245,-0.442 0.218,-0.433 0.199,-0.416C0.179,-0.398 0.165,-0.371 0.157,-0.335L0.157,-0.087C0.169,-0.078 0.183,-0.07 0.198,-0.066C0.213,-0.061 0.234,-0.058 0.259,-0.058C0.305,-0.058 0.341,-0.075 0.369,-0.11C0.396,-0.144 0.409,-0.194 0.409,-0.261C0.409,-0.288 0.407,-0.313 0.402,-0.336C0.397,-0.358 0.39,-0.377 0.38,-0.393C0.369,-0.408 0.356,-0.42 0.34,-0.429C0.323,-0.438 0.303,-0.442 0.279,-0.442Z" style="fill-rule:nonzero;"/>
                </g>
                <g transform="matrix(72,0,0,72,5382.62,7140.04)">
                    <path d="M0.069,-0.463C0.094,-0.478 0.124,-0.49 0.158,-0.497C0.191,-0.504 0.226,-0.508 0.263,-0.508C0.298,-0.508 0.326,-0.503 0.347,-0.494C0.368,-0.485 0.384,-0.472 0.395,-0.458C0.406,-0.443 0.413,-0.426 0.417,-0.408C0.42,-0.39 0.422,-0.372 0.422,-0.354C0.422,-0.314 0.421,-0.275 0.419,-0.237C0.417,-0.199 0.416,-0.163 0.416,-0.129C0.416,-0.104 0.417,-0.081 0.419,-0.059C0.421,-0.037 0.425,-0.017 0.43,0.002L0.371,0.002L0.35,-0.068L0.345,-0.068C0.339,-0.059 0.332,-0.049 0.323,-0.041C0.314,-0.032 0.303,-0.024 0.29,-0.017C0.277,-0.01 0.263,-0.004 0.246,0.001C0.229,0.006 0.21,0.008 0.189,0.008C0.168,0.008 0.148,0.005 0.13,-0.002C0.111,-0.009 0.095,-0.018 0.082,-0.031C0.069,-0.043 0.058,-0.058 0.051,-0.075C0.043,-0.092 0.039,-0.112 0.039,-0.134C0.039,-0.163 0.045,-0.188 0.057,-0.208C0.069,-0.227 0.086,-0.243 0.108,-0.255C0.129,-0.266 0.155,-0.275 0.186,-0.28C0.216,-0.285 0.249,-0.287 0.286,-0.287L0.314,-0.287C0.323,-0.287 0.332,-0.286 0.341,-0.285C0.343,-0.305 0.344,-0.323 0.344,-0.339C0.344,-0.376 0.337,-0.401 0.322,-0.416C0.307,-0.431 0.281,-0.438 0.242,-0.438C0.231,-0.438 0.219,-0.437 0.206,-0.436C0.193,-0.434 0.179,-0.432 0.166,-0.429C0.152,-0.426 0.139,-0.422 0.127,-0.418C0.114,-0.413 0.103,-0.408 0.094,-0.403L0.069,-0.463ZM0.211,-0.062C0.23,-0.062 0.246,-0.065 0.261,-0.07C0.276,-0.075 0.288,-0.081 0.299,-0.089C0.31,-0.096 0.319,-0.105 0.326,-0.114C0.333,-0.123 0.338,-0.132 0.341,-0.141L0.341,-0.224C0.332,-0.225 0.322,-0.225 0.313,-0.226C0.303,-0.226 0.293,-0.226 0.284,-0.226C0.263,-0.226 0.243,-0.225 0.224,-0.223C0.204,-0.22 0.187,-0.216 0.172,-0.21C0.157,-0.203 0.145,-0.195 0.136,-0.184C0.127,-0.173 0.122,-0.159 0.122,-0.142C0.122,-0.119 0.13,-0.099 0.147,-0.085C0.164,-0.07 0.185,-0.062 0.211,-0.062Z" style="fill-rule:nonzero;"/>
                </g>
                <g transform="matrix(72,0,0,72,5418.33,7140.04)">
                    <path d="M0.125,-0.223L0.125,-0.288L0.195,-0.288C0.207,-0.288 0.219,-0.29 0.231,-0.294C0.242,-0.298 0.253,-0.304 0.262,-0.311C0.271,-0.318 0.279,-0.326 0.285,-0.336C0.29,-0.345 0.293,-0.355 0.293,-0.366C0.293,-0.392 0.284,-0.41 0.266,-0.421C0.248,-0.432 0.221,-0.437 0.185,-0.437C0.159,-0.437 0.135,-0.433 0.114,-0.425C0.092,-0.417 0.075,-0.409 0.063,-0.402L0.04,-0.464C0.06,-0.475 0.084,-0.485 0.111,-0.494C0.137,-0.503 0.17,-0.507 0.207,-0.507C0.318,-0.507 0.373,-0.466 0.373,-0.384C0.373,-0.361 0.366,-0.338 0.351,-0.316C0.335,-0.293 0.314,-0.277 0.286,-0.268L0.286,-0.264C0.325,-0.257 0.353,-0.243 0.369,-0.222C0.384,-0.201 0.392,-0.174 0.392,-0.14C0.392,-0.119 0.388,-0.099 0.379,-0.081C0.37,-0.063 0.357,-0.047 0.34,-0.034C0.323,-0.021 0.301,-0.01 0.275,-0.003C0.248,0.005 0.218,0.009 0.183,0.009C0.149,0.009 0.121,0.006 0.099,-0C0.076,-0.006 0.056,-0.013 0.038,-0.022L0.061,-0.088C0.076,-0.079 0.095,-0.073 0.117,-0.068C0.138,-0.063 0.162,-0.061 0.187,-0.061C0.228,-0.061 0.259,-0.068 0.28,-0.082C0.301,-0.096 0.312,-0.117 0.312,-0.146C0.312,-0.17 0.302,-0.189 0.282,-0.203C0.262,-0.216 0.229,-0.223 0.183,-0.223L0.125,-0.223Z" style="fill-rule:nonzero;"/>
                </g>
                <g transform="matrix(72,0,0,72,5450.08,7140.04)">
                    <path d="M0.49,-0.297L0.496,-0.392L0.491,-0.392L0.455,-0.315L0.334,-0.119L0.306,-0.119L0.18,-0.315L0.147,-0.392L0.143,-0.392L0.151,-0.298L0.151,-0L0.077,-0L0.077,-0.5L0.156,-0.5L0.296,-0.276L0.325,-0.218L0.327,-0.218L0.357,-0.278L0.488,-0.5L0.568,-0.5L0.568,-0L0.49,-0L0.49,-0.297Z" style="fill-rule:nonzero;"/>
                </g>
                <g transform="matrix(72,0,0,72,5496.52,7140.04)">
                    <path d="M0.442,-0.04C0.422,-0.024 0.397,-0.011 0.367,-0.002C0.336,0.007 0.304,0.012 0.27,0.012C0.232,0.012 0.199,0.006 0.171,-0.007C0.143,-0.019 0.12,-0.037 0.102,-0.06C0.084,-0.083 0.071,-0.11 0.062,-0.142C0.053,-0.174 0.049,-0.21 0.049,-0.25C0.049,-0.335 0.068,-0.4 0.106,-0.445C0.144,-0.49 0.198,-0.512 0.269,-0.512C0.292,-0.512 0.314,-0.51 0.337,-0.505C0.36,-0.5 0.38,-0.49 0.398,-0.476C0.416,-0.462 0.431,-0.442 0.442,-0.417C0.453,-0.391 0.459,-0.357 0.459,-0.315C0.459,-0.293 0.457,-0.269 0.453,-0.242L0.132,-0.242C0.132,-0.213 0.135,-0.187 0.141,-0.164C0.147,-0.141 0.156,-0.122 0.169,-0.107C0.182,-0.091 0.198,-0.079 0.219,-0.071C0.239,-0.062 0.264,-0.058 0.293,-0.058C0.316,-0.058 0.338,-0.062 0.361,-0.07C0.384,-0.078 0.401,-0.087 0.412,-0.098L0.442,-0.04ZM0.27,-0.442C0.231,-0.442 0.199,-0.432 0.176,-0.411C0.152,-0.39 0.138,-0.355 0.133,-0.305L0.381,-0.305C0.381,-0.356 0.371,-0.391 0.352,-0.412C0.333,-0.432 0.305,-0.442 0.27,-0.442Z" style="fill-rule:nonzero;"/>
                </g>
                <g transform="matrix(72,0,0,72,5533.1,7140.04)">
                    <path d="M0.731,0.13L0.677,0.13L0.662,-0L0.077,-0L0.077,-0.5L0.157,-0.5L0.157,-0.07L0.328,-0.07L0.328,-0.5L0.408,-0.5L0.408,-0.07L0.579,-0.07L0.579,-0.5L0.659,-0.5L0.659,-0.07L0.731,-0.07L0.731,0.13Z" style="fill-rule:nonzero;"/>
                </g>
                <g transform="matrix(72,0,0,72,5587.31,7140.04)">
                    <path d="M0.442,-0.04C0.422,-0.024 0.397,-0.011 0.367,-0.002C0.336,0.007 0.304,0.012 0.27,0.012C0.232,0.012 0.199,0.006 0.171,-0.007C0.143,-0.019 0.12,-0.037 0.102,-0.06C0.084,-0.083 0.071,-0.11 0.062,-0.142C0.053,-0.174 0.049,-0.21 0.049,-0.25C0.049,-0.335 0.068,-0.4 0.106,-0.445C0.144,-0.49 0.198,-0.512 0.269,-0.512C0.292,-0.512 0.314,-0.51 0.337,-0.505C0.36,-0.5 0.38,-0.49 0.398,-0.476C0.416,-0.462 0.431,-0.442 0.442,-0.417C0.453,-0.391 0.459,-0.357 0.459,-0.315C0.459,-0.293 0.457,-0.269 0.453,-0.242L0.132,-0.242C0.132,-0.213 0.135,-0.187 0.141,-0.164C0.147,-0.141 0.156,-0.122 0.169,-0.107C0.182,-0.091 0.198,-0.079 0.219,-0.071C0.239,-0.062 0.264,-0.058 0.293,-0.058C0.316,-0.058 0.338,-0.062 0.361,-0.07C0.384,-0.078 0.401,-0.087 0.412,-0.098L0.442,-0.04ZM0.27,-0.442C0.231,-0.442 0.199,-0.432 0.176,-0.411C0.152,-0.39 0.138,-0.355 0.133,-0.305L0.381,-0.305C0.381,-0.356 0.371,-0.391 0.352,-0.412C0.333,-0.432 0.305,-0.442 0.27,-0.442Z" style="fill-rule:nonzero;"/>
                </g>
                <g transform="matrix(72,0,0,72,5623.89,7140.04)">
                    <path d="M0.383,-0.221L0.157,-0.221L0.157,-0L0.077,-0L0.077,-0.5L0.157,-0.5L0.157,-0.291L0.383,-0.291L0.383,-0.5L0.463,-0.5L0.463,-0L0.383,-0L0.383,-0.221Z" style="fill-rule:nonzero;"/>
                </g>
                <g transform="matrix(72,0,0,72,5662.77,7140.04)">
                    <path d="M0.389,-0.296L0.392,-0.358L0.389,-0.358L0.348,-0.294L0.123,-0L0.077,-0L0.077,-0.5L0.157,-0.5L0.157,-0.195L0.154,-0.136L0.158,-0.136L0.197,-0.198L0.422,-0.5L0.469,-0.5L0.469,-0L0.389,-0L0.389,-0.296Z" style="fill-rule:nonzero;"/>
                </g>
                <g transform="matrix(72,0,0,72,5702.08,7140.04)">
                    <path d="M0.442,-0.04C0.422,-0.024 0.397,-0.011 0.367,-0.002C0.336,0.007 0.304,0.012 0.27,0.012C0.232,0.012 0.199,0.006 0.171,-0.007C0.143,-0.019 0.12,-0.037 0.102,-0.06C0.084,-0.083 0.071,-0.11 0.062,-0.142C0.053,-0.174 0.049,-0.21 0.049,-0.25C0.049,-0.335 0.068,-0.4 0.106,-0.445C0.144,-0.49 0.198,-0.512 0.269,-0.512C0.292,-0.512 0.314,-0.51 0.337,-0.505C0.36,-0.5 0.38,-0.49 0.398,-0.476C0.416,-0.462 0.431,-0.442 0.442,-0.417C0.453,-0.391 0.459,-0.357 0.459,-0.315C0.459,-0.293 0.457,-0.269 0.453,-0.242L0.132,-0.242C0.132,-0.213 0.135,-0.187 0.141,-0.164C0.147,-0.141 0.156,-0.122 0.169,-0.107C0.182,-0.091 0.198,-0.079 0.219,-0.071C0.239,-0.062 0.264,-0.058 0.293,-0.058C0.316,-0.058 0.338,-0.062 0.361,-0.07C0.384,-0.078 0.401,-0.087 0.412,-0.098L0.442,-0.04ZM0.27,-0.442C0.231,-0.442 0.199,-0.432 0.176,-0.411C0.152,-0.39 0.138,-0.355 0.133,-0.305L0.381,-0.305C0.381,-0.356 0.371,-0.391 0.352,-0.412C0.333,-0.432 0.305,-0.442 0.27,-0.442Z" style="fill-rule:nonzero;"/>
                </g>
                <g transform="matrix(72,0,0,72,5738.66,7140.04)">
                    <path d="M0.15,-0.177C0.149,-0.18 0.149,-0.184 0.149,-0.188L0.149,-0.199C0.149,-0.227 0.153,-0.252 0.162,-0.273C0.17,-0.294 0.18,-0.314 0.193,-0.332C0.205,-0.349 0.218,-0.366 0.233,-0.381C0.247,-0.396 0.26,-0.412 0.273,-0.428C0.285,-0.443 0.295,-0.46 0.304,-0.478C0.312,-0.495 0.316,-0.515 0.316,-0.538C0.316,-0.569 0.307,-0.594 0.29,-0.613C0.272,-0.632 0.242,-0.642 0.201,-0.642C0.177,-0.642 0.153,-0.638 0.128,-0.63C0.103,-0.621 0.082,-0.611 0.064,-0.6L0.037,-0.662C0.062,-0.677 0.089,-0.69 0.117,-0.699C0.145,-0.708 0.18,-0.712 0.221,-0.712C0.25,-0.712 0.276,-0.708 0.299,-0.7C0.321,-0.691 0.339,-0.68 0.355,-0.665C0.37,-0.65 0.381,-0.633 0.388,-0.613C0.395,-0.593 0.399,-0.572 0.399,-0.549C0.399,-0.519 0.395,-0.493 0.386,-0.471C0.377,-0.448 0.365,-0.428 0.352,-0.41C0.338,-0.391 0.323,-0.374 0.308,-0.358C0.292,-0.342 0.277,-0.325 0.264,-0.308C0.25,-0.29 0.239,-0.271 0.23,-0.25C0.221,-0.229 0.216,-0.205 0.216,-0.177L0.15,-0.177ZM0.13,-0.046C0.13,-0.064 0.135,-0.078 0.146,-0.089C0.156,-0.099 0.17,-0.104 0.187,-0.104C0.205,-0.104 0.219,-0.099 0.23,-0.089C0.241,-0.078 0.246,-0.064 0.246,-0.046C0.246,-0.029 0.241,-0.015 0.23,-0.004C0.219,0.007 0.205,0.012 0.187,0.012C0.17,0.012 0.156,0.007 0.146,-0.004C0.135,-0.015 0.13,-0.029 0.13,-0.046Z" style="fill-rule:nonzero;"/>
                </g>
            </g>
            <g transform="matrix(0.825,0,0,0.825,1363.21,1279.3)">
                <circle cx="7870" cy="7296" r="20"/>
            </g>
            <g transform="matrix(0.825,0,0,0.825,1335.46,1172.37)">
                <circle cx="7870" cy="7296" r="20"/>
            </g>
            <g transform="matrix(0.825,0,0,0.825,1404.89,1220.74)">
                <circle cx="7870" cy="7296" r="20"/>
            </g>
            <g transform="matrix(0.825,0,0,0.825,1302.21,1364.82)">
                <circle cx="7870" cy="7296" r="20"/>
            </g>
            <g transform="matrix(0.825,0,0,0.825,1318.71,1312.3)">
                <circle cx="7870" cy="7296" r="20"/>
            </g>
            <g transform="matrix(0.825,0,0,0.825,1379.71,1364.82)">
                <circle cx="7870" cy="7296" r="20"/>
            </g>
            <g transform="matrix(0.825,0,0,0.825,1312.21,1195.09)">
                <circle cx="7870" cy="7296" r="20"/>
            </g>
            <g transform="matrix(0.825,0,0,0.825,1522.54,1200.18)">
                <circle cx="7870" cy="7296" r="20"/>
            </g>
            <g transform="matrix(0.825,0,0,0.825,1459.37,1248.57)">
                <circle cx="7870" cy="7296" r="20"/>
            </g>
            <g transform="matrix(0.825,0,0,0.825,1369.8,1654.35)">
                <circle cx="7870" cy="7296" r="20"/>
            </g>
            <g transform="matrix(0.825,0,0,0.825,1495.14,1596.29)">
                <circle cx="7870" cy="7296" r="20"/>
            </g>
            <g transform="matrix(0.825,0,0,0.825,1434.19,1640.29)">
                <circle cx="7870" cy="7296" r="20"/>
            </g>
            <g transform="matrix(0.825,0,0,0.825,1434.19,1730.71)">
                <circle cx="7870" cy="7296" r="20"/>
            </g>
            <g transform="matrix(0.825,0,0,0.825,1314.86,1686.34)">
                <circle cx="7870" cy="7296" r="20"/>
            </g>
            <g transform="matrix(0.825,0,0,0.825,1275.97,1751.19)">
                <circle cx="7870" cy="7296" r="20"/>
            </g>
            <g transform="matrix(0.825,0,0,0.825,1395.6,1722.42)">
                <circle cx="7870" cy="7296" r="20"/>
            </g>
            <g transform="matrix(0.825,0,0,0.825,1522.27,1437.36)">
                <circle cx="7870" cy="7296" r="20"/>
            </g>
            <g transform="matrix(0.825,0,0,0.825,1267.53,1320.14)">
                <circle cx="7870" cy="7296" r="20"/>
            </g>
            <g transform="matrix(0.825,0,0,0.825,1396.21,1542.34)">
                <circle cx="7870" cy="7296" r="20"/>
            </g>
            <g transform="matrix(0.825,0,0,0.825,1702.86,1262.89)">
                <circle cx="7870" cy="7296" r="20"/>
            </g>
            <g transform="matrix(0.825,0,0,0.825,1803.46,1254.93)">
                <circle cx="7870" cy="7296" r="20"/>
            </g>
            <g transform="matrix(0.825,0,0,0.825,1585.27,1465.55)">
                <circle cx="7870" cy="7296" r="20"/>
            </g>
            <g transform="matrix(0.825,0,0,0.825,1269.21,1602.55)">
                <circle cx="7870" cy="7296" r="20"/>
            </g>
            <g transform="matrix(0.825,0,0,0.825,1670.01,1734.43)">
                <circle cx="7870" cy="7296" r="20"/>
            </g>
            <g transform="matrix(0.825,0,0,0.825,1578.27,1392.81)">
                <circle cx="7870" cy="7296" r="20"/>
            </g>
            <g transform="matrix(0.825,0,0,0.825,1803.46,1376.31)">
                <circle cx="7870" cy="7296" r="20"/>
            </g>
            <g transform="matrix(0.825,0,0,0.825,1442.49,1194.26)">
                <circle cx="7870" cy="7296" r="20"/>
            </g>
            <g transform="matrix(0.825,0,0,0.825,1367.91,1182.33)">
                <circle cx="7870" cy="7296" r="20"/>
            </g>
            <g transform="matrix(0.825,0,0,0.825,1310.26,1236.62)">
                <circle cx="7870" cy="7296" r="20"/>
            </g>
            <g transform="matrix(0.825,0,0,0.825,1408.32,1291.01)">
                <circle cx="7870" cy="7296" r="20"/>
            </g>
            <g transform="matrix(0.825,0,0,0.825,1402.38,1783.93)">
                <circle cx="7870" cy="7296" r="20"/>
            </g>
            <g transform="matrix(0.825,0,0,0.825,1489.27,1509.34)">
                <circle cx="7870" cy="7296" r="20"/>
            </g>
            <g transform="matrix(0.825,0,0,0.825,1319.31,1776.91)">
                <circle cx="7870" cy="7296" r="20"/>
            </g>
            <g transform="matrix(0.825,0,0,0.825,1285.71,1219.36)">
                <circle cx="7870" cy="7296" r="20"/>
            </g>
            <g transform="matrix(0.825,0,0,0.825,1264.67,1195.64)">
                <circle cx="7870" cy="7296" r="20"/>
            </g>
            <g transform="matrix(0.825,0,0,0.825,1266.85,1265.05)">
                <circle cx="7870" cy="7296" r="20"/>
            </g>
            <g transform="matrix(0.825,0,0,0.825,1349.83,1215.17)">
                <circle cx="7870" cy="7296" r="20"/>
            </g>
            <g transform="matrix(0.825,0,0,0.825,1626.46,1201.94)">
                <circle cx="7870" cy="7296" r="20"/>
            </g>
            <g transform="matrix(0.825,0,0,0.825,1599.22,1295.8)">
                <circle cx="7870" cy="7296" r="20"/>
            </g>
            <g transform="matrix(0.825,0,0,0.825,1719.46,1185.44)">
                <circle cx="7870" cy="7296" r="20"/>
            </g>
            <g transform="matrix(0.825,0,0,0.825,1659.46,1312.3)">
                <circle cx="7870" cy="7296" r="20"/>
            </g>
            <g transform="matrix(0.825,0,0,0.825,1478.64,1653.34)">
                <circle cx="7870" cy="7296" r="20"/>
            </g>
            <g transform="matrix(0.825,0,0,0.825,1472.26,1767.69)">
                <circle cx="7870" cy="7296" r="20"/>
            </g>
            <g transform="matrix(0.825,0,0,0.825,1417.71,1686.03)">
                <circle cx="7870" cy="7296" r="20"/>
            </g>
            <g transform="matrix(0.825,0,0,0.825,1308.97,1268.63)">
                <circle cx="7870" cy="7296" r="20"/>
            </g>
            <g transform="matrix(0.825,0,0,0.825,1279.21,1162.8)">
                <circle cx="7870" cy="7296" r="20"/>
            </g>
            <g transform="matrix(0.825,0,0,0.825,1346.33,1734.39)">
                <circle cx="7870" cy="7296" r="20"/>
            </g>
            <g transform="matrix(0.825,0,0,0.825,1819.96,1767.43)">
                <circle cx="7870" cy="7296" r="20"/>
            </g>
            <g transform="matrix(0.825,0,0,0.825,1719.46,1509.34)">
                <circle cx="7870" cy="7296" r="20"/>
            </g>
            <g transform="matrix(0.825,0,0,0.825,1770.46,1608.56)">
                <circle cx="7870" cy="7296" r="20"/>
            </g>
            <g transform="matrix(0.825,0,0,0.825,1618.27,1526.39)">
                <circle cx="7870" cy="7296" r="20"/>
            </g>
            <g transform="matrix(0.825,0,0,0.825,1363.21,1470.36)">
                <circle cx="7870" cy="7296" r="20"/>
            </g>
            <g transform="matrix(0.825,0,0,0.825,1535.96,1742.6)">
                <circle cx="7870" cy="7296" r="20"/>
            </g>
        </g>
    </g>
</svg>
