<?xml version="1.0" encoding="UTF-8" standalone="no"?>
<!DOCTYPE svg PUBLIC "-//W3C//DTD SVG 1.1//EN" "http://www.w3.org/Graphics/SVG/1.1/DTD/svg11.dtd">
<svg width="100%" height="100%" viewBox="0 0 574 744" version="1.1" xmlns="http://www.w3.org/2000/svg" xmlns:xlink="http://www.w3.org/1999/xlink" xml:space="preserve" xmlns:serif="http://www.serif.com/" style="fill-rule:evenodd;clip-rule:evenodd;stroke-linejoin:round;stroke-miterlimit:10;">
    <rect id="polygon_triangulation" x="-3636" y="-1255" width="8206" height="4260" style="fill:none;"/>
    <g id="polygon_triangulation1" serif:id="polygon_triangulation">
        <path d="M75.68,724.458L73.4,724.458L72.8,719.298L52.72,719.298L52.72,691.298L56.04,691.298L56.04,716.338L68.64,716.338L68.64,691.298L71.96,691.298L71.96,716.338L75.68,716.338L75.68,724.458Z" style="fill:rgb(249,85,185);fill-rule:nonzero;"/>
        <path d="M94.48,717.698C93.68,718.338 92.673,718.844 91.46,719.218C90.247,719.591 88.96,719.778 87.6,719.778C86.08,719.778 84.76,719.531 83.64,719.038C82.52,718.544 81.6,717.838 80.88,716.918C80.16,715.998 79.627,714.898 79.28,713.618C78.933,712.338 78.76,710.898 78.76,709.298C78.76,705.884 79.52,703.284 81.04,701.498C82.56,699.711 84.733,698.818 87.56,698.818C88.467,698.818 89.373,698.918 90.28,699.118C91.187,699.318 92,699.698 92.72,700.258C93.44,700.818 94.027,701.611 94.48,702.638C94.933,703.664 95.16,705.018 95.16,706.698C95.16,707.578 95.08,708.551 94.92,709.618L82.08,709.618C82.08,710.791 82.2,711.831 82.44,712.738C82.68,713.644 83.053,714.411 83.56,715.038C84.067,715.664 84.727,716.144 85.54,716.478C86.353,716.811 87.347,716.978 88.52,716.978C89.427,716.978 90.333,716.818 91.24,716.498C92.147,716.178 92.827,715.804 93.28,715.378L94.48,717.698ZM87.6,701.618C86.027,701.618 84.767,702.031 83.82,702.858C82.873,703.684 82.307,705.098 82.12,707.098L92.04,707.098C92.04,705.071 91.653,703.651 90.88,702.838C90.107,702.024 89.013,701.618 87.6,701.618Z" style="fill:rgb(249,85,185);fill-rule:nonzero;"/>
        <path d="M112.44,710.458L103.4,710.458L103.4,719.298L100.2,719.298L100.2,699.298L103.4,699.298L103.4,707.658L112.44,707.658L112.44,699.298L115.64,699.298L115.64,719.298L112.44,719.298L112.44,710.458Z" style="fill:rgb(249,85,185);fill-rule:nonzero;"/>
        <path d="M134.52,702.098L128.28,702.098L128.28,719.298L125.08,719.298L125.08,702.098L118.84,702.098L118.84,699.298L134.52,699.298L134.52,702.098Z" style="fill:rgb(249,85,185);fill-rule:nonzero;"/>
        <path d="M137.68,699.298L139.88,699.298L140.48,701.698L140.64,701.698C141.253,700.764 142.047,700.051 143.02,699.558C143.993,699.064 145.107,698.818 146.36,698.818C149.027,698.818 151.013,699.604 152.32,701.178C153.627,702.751 154.28,705.324 154.28,708.898C154.28,710.578 154.06,712.091 153.62,713.438C153.18,714.784 152.56,715.924 151.76,716.858C150.96,717.791 149.993,718.511 148.86,719.018C147.727,719.524 146.467,719.778 145.08,719.778C144.093,719.778 143.313,719.718 142.74,719.598C142.167,719.478 141.547,719.271 140.88,718.978L140.88,727.298L137.68,727.298L137.68,699.298ZM145.76,701.618C144.4,701.618 143.327,701.971 142.54,702.678C141.753,703.384 141.2,704.458 140.88,705.898L140.88,715.818C141.36,716.191 141.907,716.478 142.52,716.678C143.133,716.878 143.947,716.978 144.96,716.978C146.8,716.978 148.26,716.291 149.34,714.918C150.42,713.544 150.96,711.524 150.96,708.858C150.96,707.764 150.867,706.771 150.68,705.878C150.493,704.984 150.193,704.224 149.78,703.598C149.367,702.971 148.833,702.484 148.18,702.138C147.527,701.791 146.72,701.618 145.76,701.618Z" style="fill:rgb(249,85,185);fill-rule:nonzero;"/>
        <path d="M158.2,709.298C158.2,705.911 158.953,703.318 160.46,701.518C161.967,699.718 164.133,698.818 166.96,698.818C168.453,698.818 169.753,699.064 170.86,699.558C171.967,700.051 172.88,700.758 173.6,701.678C174.32,702.598 174.853,703.704 175.2,704.998C175.547,706.291 175.72,707.724 175.72,709.298C175.72,712.684 174.967,715.278 173.46,717.078C171.953,718.878 169.787,719.778 166.96,719.778C165.467,719.778 164.167,719.531 163.06,719.038C161.953,718.544 161.04,717.838 160.32,716.918C159.6,715.998 159.067,714.891 158.72,713.598C158.373,712.304 158.2,710.871 158.2,709.298ZM161.52,709.298C161.52,710.311 161.62,711.284 161.82,712.218C162.02,713.151 162.333,713.964 162.76,714.658C163.187,715.351 163.747,715.911 164.44,716.338C165.133,716.764 165.973,716.978 166.96,716.978C170.587,717.004 172.4,714.444 172.4,709.298C172.4,708.258 172.3,707.271 172.1,706.338C171.9,705.404 171.587,704.591 171.16,703.898C170.733,703.204 170.173,702.651 169.48,702.238C168.787,701.824 167.947,701.618 166.96,701.618C163.333,701.591 161.52,704.151 161.52,709.298Z" style="fill:rgb(249,85,185);fill-rule:nonzero;"/>
        <path d="M193.24,707.458L193.36,704.978L193.24,704.978L191.6,707.538L182.6,719.298L180.76,719.298L180.76,699.298L183.96,699.298L183.96,711.498L183.84,713.858L184,713.858L185.56,711.378L194.56,699.298L196.44,699.298L196.44,719.298L193.24,719.298L193.24,707.458Z" style="fill:rgb(249,85,185);fill-rule:nonzero;"/>
        <path d="M220.28,724.378L218.12,724.378L217.52,719.298L202.48,719.298L201.88,724.378L199.72,724.378L199.72,716.498L202.08,716.498C202.293,716.204 202.573,715.678 202.92,714.918C203.267,714.158 203.607,713.091 203.94,711.718C204.273,710.344 204.567,708.638 204.82,706.598C205.073,704.558 205.227,702.124 205.28,699.298L217.36,699.298L217.36,716.498L220.28,716.498L220.28,724.378ZM214.16,716.498L214.16,702.098L208.16,702.098C208.107,703.218 208.013,704.438 207.88,705.758C207.747,707.078 207.567,708.398 207.34,709.718C207.113,711.038 206.827,712.284 206.48,713.458C206.133,714.631 205.733,715.644 205.28,716.498L214.16,716.498Z" style="fill:rgb(249,85,185);fill-rule:nonzero;"/>
        <g transform="matrix(1,-1.11022e-16,1.11022e-16,1,-315.919,-1341.34)">
            <g transform="matrix(40,0,0,40,368.503,1953.88)">
                <path d="M0.537,-0.626L0.319,-0.626L0.319,-0L0.236,-0L0.236,-0.626L0.018,-0.626L0.018,-0.7L0.537,-0.7L0.537,-0.626Z" style="fill:rgb(192,7,121);fill-rule:nonzero;"/>
            </g>
            <g transform="matrix(40,0,0,40,385.583,1953.88)">
                <path d="M0.049,-0.25C0.049,-0.335 0.068,-0.4 0.106,-0.445C0.143,-0.49 0.197,-0.512 0.268,-0.512C0.305,-0.512 0.338,-0.506 0.366,-0.494C0.393,-0.481 0.416,-0.464 0.434,-0.441C0.452,-0.418 0.465,-0.39 0.474,-0.358C0.483,-0.325 0.487,-0.289 0.487,-0.25C0.487,-0.165 0.468,-0.1 0.431,-0.056C0.393,-0.011 0.339,0.012 0.268,0.012C0.231,0.012 0.198,0.006 0.171,-0.007C0.143,-0.019 0.12,-0.037 0.102,-0.06C0.084,-0.083 0.071,-0.11 0.062,-0.143C0.053,-0.175 0.049,-0.211 0.049,-0.25ZM0.132,-0.25C0.132,-0.225 0.135,-0.2 0.14,-0.177C0.145,-0.154 0.152,-0.133 0.163,-0.116C0.174,-0.099 0.188,-0.085 0.205,-0.074C0.222,-0.063 0.243,-0.058 0.268,-0.058C0.359,-0.057 0.404,-0.121 0.404,-0.25C0.404,-0.276 0.402,-0.301 0.397,-0.324C0.392,-0.347 0.384,-0.368 0.373,-0.385C0.362,-0.402 0.348,-0.416 0.331,-0.427C0.314,-0.437 0.293,-0.442 0.268,-0.442C0.177,-0.443 0.132,-0.379 0.132,-0.25Z" style="fill:rgb(192,7,121);fill-rule:nonzero;"/>
            </g>
            <g transform="matrix(40,0,0,40,407.023,1953.88)">
                <path d="M0.129,-0.5L0.129,-0.364C0.129,-0.346 0.13,-0.33 0.132,-0.316C0.134,-0.301 0.138,-0.289 0.144,-0.279C0.15,-0.268 0.159,-0.26 0.17,-0.255C0.181,-0.249 0.196,-0.246 0.215,-0.246C0.245,-0.246 0.27,-0.249 0.289,-0.256C0.308,-0.263 0.323,-0.27 0.333,-0.278L0.333,-0.5L0.413,-0.5L0.413,-0L0.333,-0L0.333,-0.21C0.322,-0.203 0.307,-0.196 0.286,-0.188C0.265,-0.18 0.236,-0.176 0.199,-0.176C0.174,-0.176 0.153,-0.179 0.134,-0.184C0.115,-0.189 0.1,-0.199 0.087,-0.212C0.074,-0.225 0.065,-0.243 0.059,-0.265C0.052,-0.287 0.049,-0.315 0.049,-0.348L0.049,-0.5L0.129,-0.5Z" style="fill:rgb(192,7,121);fill-rule:nonzero;"/>
            </g>
            <g transform="matrix(40,0,0,40,426.623,1953.88)">
                <path d="M0.203,-0.225L0.157,-0.225L0.157,-0L0.077,-0L0.077,-0.5L0.157,-0.5L0.157,-0.274L0.2,-0.288L0.36,-0.5L0.447,-0.5L0.292,-0.299L0.25,-0.266L0.302,-0.226L0.469,-0L0.37,-0L0.203,-0.225Z" style="fill:rgb(192,7,121);fill-rule:nonzero;"/>
            </g>
            <g transform="matrix(40,0,0,40,445.743,1953.88)">
                <path d="M0.069,-0.463C0.094,-0.478 0.124,-0.49 0.158,-0.497C0.191,-0.504 0.226,-0.508 0.263,-0.508C0.298,-0.508 0.326,-0.503 0.347,-0.494C0.368,-0.485 0.384,-0.472 0.395,-0.458C0.406,-0.443 0.413,-0.426 0.417,-0.408C0.42,-0.39 0.422,-0.372 0.422,-0.354C0.422,-0.314 0.421,-0.275 0.419,-0.237C0.417,-0.199 0.416,-0.163 0.416,-0.129C0.416,-0.104 0.417,-0.081 0.419,-0.059C0.421,-0.037 0.425,-0.017 0.43,0.002L0.371,0.002L0.35,-0.068L0.345,-0.068C0.339,-0.059 0.332,-0.049 0.323,-0.041C0.314,-0.032 0.303,-0.024 0.29,-0.017C0.277,-0.01 0.263,-0.004 0.246,0.001C0.229,0.006 0.21,0.008 0.189,0.008C0.168,0.008 0.148,0.005 0.13,-0.002C0.111,-0.009 0.095,-0.018 0.082,-0.031C0.069,-0.043 0.058,-0.058 0.051,-0.075C0.043,-0.092 0.039,-0.112 0.039,-0.134C0.039,-0.163 0.045,-0.188 0.057,-0.208C0.069,-0.227 0.086,-0.243 0.108,-0.255C0.129,-0.266 0.155,-0.275 0.186,-0.28C0.216,-0.285 0.249,-0.287 0.286,-0.287L0.314,-0.287C0.323,-0.287 0.332,-0.286 0.341,-0.285C0.343,-0.305 0.344,-0.323 0.344,-0.339C0.344,-0.376 0.337,-0.401 0.322,-0.416C0.307,-0.431 0.281,-0.438 0.242,-0.438C0.231,-0.438 0.219,-0.437 0.206,-0.436C0.193,-0.434 0.179,-0.432 0.166,-0.429C0.152,-0.426 0.139,-0.422 0.127,-0.418C0.114,-0.413 0.103,-0.408 0.094,-0.403L0.069,-0.463ZM0.211,-0.062C0.23,-0.062 0.246,-0.065 0.261,-0.07C0.276,-0.075 0.288,-0.081 0.299,-0.089C0.31,-0.096 0.319,-0.105 0.326,-0.114C0.333,-0.123 0.338,-0.132 0.341,-0.141L0.341,-0.224C0.332,-0.225 0.322,-0.225 0.313,-0.226C0.303,-0.226 0.293,-0.226 0.284,-0.226C0.263,-0.226 0.243,-0.225 0.224,-0.223C0.204,-0.22 0.187,-0.216 0.172,-0.21C0.157,-0.203 0.145,-0.195 0.136,-0.184C0.127,-0.173 0.122,-0.159 0.122,-0.142C0.122,-0.119 0.13,-0.099 0.147,-0.085C0.164,-0.07 0.185,-0.062 0.211,-0.062Z" style="fill:rgb(192,7,121);fill-rule:nonzero;"/>
            </g>
            <g transform="matrix(40,0,0,40,476.263,1953.88)">
                <path d="M0.383,-0.221L0.157,-0.221L0.157,-0L0.077,-0L0.077,-0.5L0.157,-0.5L0.157,-0.291L0.383,-0.291L0.383,-0.5L0.463,-0.5L0.463,-0L0.383,-0L0.383,-0.221Z" style="fill:rgb(192,7,121);fill-rule:nonzero;"/>
            </g>
            <g transform="matrix(40,0,0,40,497.863,1953.88)">
                <path d="M0.069,-0.463C0.094,-0.478 0.124,-0.49 0.158,-0.497C0.191,-0.504 0.226,-0.508 0.263,-0.508C0.298,-0.508 0.326,-0.503 0.347,-0.494C0.368,-0.485 0.384,-0.472 0.395,-0.458C0.406,-0.443 0.413,-0.426 0.417,-0.408C0.42,-0.39 0.422,-0.372 0.422,-0.354C0.422,-0.314 0.421,-0.275 0.419,-0.237C0.417,-0.199 0.416,-0.163 0.416,-0.129C0.416,-0.104 0.417,-0.081 0.419,-0.059C0.421,-0.037 0.425,-0.017 0.43,0.002L0.371,0.002L0.35,-0.068L0.345,-0.068C0.339,-0.059 0.332,-0.049 0.323,-0.041C0.314,-0.032 0.303,-0.024 0.29,-0.017C0.277,-0.01 0.263,-0.004 0.246,0.001C0.229,0.006 0.21,0.008 0.189,0.008C0.168,0.008 0.148,0.005 0.13,-0.002C0.111,-0.009 0.095,-0.018 0.082,-0.031C0.069,-0.043 0.058,-0.058 0.051,-0.075C0.043,-0.092 0.039,-0.112 0.039,-0.134C0.039,-0.163 0.045,-0.188 0.057,-0.208C0.069,-0.227 0.086,-0.243 0.108,-0.255C0.129,-0.266 0.155,-0.275 0.186,-0.28C0.216,-0.285 0.249,-0.287 0.286,-0.287L0.314,-0.287C0.323,-0.287 0.332,-0.286 0.341,-0.285C0.343,-0.305 0.344,-0.323 0.344,-0.339C0.344,-0.376 0.337,-0.401 0.322,-0.416C0.307,-0.431 0.281,-0.438 0.242,-0.438C0.231,-0.438 0.219,-0.437 0.206,-0.436C0.193,-0.434 0.179,-0.432 0.166,-0.429C0.152,-0.426 0.139,-0.422 0.127,-0.418C0.114,-0.413 0.103,-0.408 0.094,-0.403L0.069,-0.463ZM0.211,-0.062C0.23,-0.062 0.246,-0.065 0.261,-0.07C0.276,-0.075 0.288,-0.081 0.299,-0.089C0.31,-0.096 0.319,-0.105 0.326,-0.114C0.333,-0.123 0.338,-0.132 0.341,-0.141L0.341,-0.224C0.332,-0.225 0.322,-0.225 0.313,-0.226C0.303,-0.226 0.293,-0.226 0.284,-0.226C0.263,-0.226 0.243,-0.225 0.224,-0.223C0.204,-0.22 0.187,-0.216 0.172,-0.21C0.157,-0.203 0.145,-0.195 0.136,-0.184C0.127,-0.173 0.122,-0.159 0.122,-0.142C0.122,-0.119 0.13,-0.099 0.147,-0.085C0.164,-0.07 0.185,-0.062 0.211,-0.062Z" style="fill:rgb(192,7,121);fill-rule:nonzero;"/>
            </g>
            <g transform="matrix(40,0,0,40,368.503,1998.64)">
                <path d="M0.378,-0.43L0.157,-0.43L0.157,-0L0.077,-0L0.077,-0.5L0.458,-0.5L0.458,-0L0.378,-0L0.378,-0.43Z" style="fill:rgb(192,7,121);fill-rule:nonzero;"/>
            </g>
            <g transform="matrix(40,0,0,40,389.903,1998.64)">
                <path d="M0.049,-0.25C0.049,-0.335 0.068,-0.4 0.106,-0.445C0.143,-0.49 0.197,-0.512 0.268,-0.512C0.305,-0.512 0.338,-0.506 0.366,-0.494C0.393,-0.481 0.416,-0.464 0.434,-0.441C0.452,-0.418 0.465,-0.39 0.474,-0.358C0.483,-0.325 0.487,-0.289 0.487,-0.25C0.487,-0.165 0.468,-0.1 0.431,-0.056C0.393,-0.011 0.339,0.012 0.268,0.012C0.231,0.012 0.198,0.006 0.171,-0.007C0.143,-0.019 0.12,-0.037 0.102,-0.06C0.084,-0.083 0.071,-0.11 0.062,-0.143C0.053,-0.175 0.049,-0.211 0.049,-0.25ZM0.132,-0.25C0.132,-0.225 0.135,-0.2 0.14,-0.177C0.145,-0.154 0.152,-0.133 0.163,-0.116C0.174,-0.099 0.188,-0.085 0.205,-0.074C0.222,-0.063 0.243,-0.058 0.268,-0.058C0.359,-0.057 0.404,-0.121 0.404,-0.25C0.404,-0.276 0.402,-0.301 0.397,-0.324C0.392,-0.347 0.384,-0.368 0.373,-0.385C0.362,-0.402 0.348,-0.416 0.331,-0.427C0.314,-0.437 0.293,-0.442 0.268,-0.442C0.177,-0.443 0.132,-0.379 0.132,-0.25Z" style="fill:rgb(192,7,121);fill-rule:nonzero;"/>
            </g>
            <g transform="matrix(40,0,0,40,411.343,1998.64)">
                <path d="M0.077,-0.499C0.1,-0.5 0.125,-0.502 0.151,-0.504C0.176,-0.506 0.208,-0.507 0.246,-0.507C0.312,-0.507 0.359,-0.497 0.388,-0.477C0.417,-0.456 0.431,-0.425 0.431,-0.384C0.431,-0.361 0.424,-0.338 0.411,-0.316C0.397,-0.293 0.374,-0.277 0.343,-0.266L0.343,-0.262C0.382,-0.255 0.41,-0.241 0.426,-0.221C0.442,-0.201 0.45,-0.174 0.45,-0.141C0.45,-0.089 0.431,-0.051 0.394,-0.028C0.357,-0.005 0.301,0.007 0.226,0.007C0.198,0.007 0.172,0.006 0.148,0.005C0.124,0.003 0.1,0.001 0.077,-0.001L0.077,-0.499ZM0.157,-0.067C0.17,-0.066 0.182,-0.065 0.195,-0.064C0.207,-0.063 0.221,-0.063 0.238,-0.063C0.283,-0.063 0.316,-0.069 0.338,-0.082C0.359,-0.095 0.37,-0.116 0.37,-0.147C0.37,-0.171 0.361,-0.191 0.343,-0.206C0.324,-0.221 0.292,-0.228 0.245,-0.228L0.157,-0.228L0.157,-0.067ZM0.255,-0.289C0.267,-0.289 0.279,-0.291 0.29,-0.295C0.301,-0.299 0.312,-0.305 0.321,-0.312C0.33,-0.319 0.337,-0.327 0.343,-0.336C0.348,-0.345 0.351,-0.355 0.351,-0.366C0.351,-0.393 0.343,-0.411 0.327,-0.422C0.311,-0.432 0.283,-0.437 0.243,-0.437C0.222,-0.437 0.205,-0.437 0.193,-0.436C0.18,-0.435 0.168,-0.435 0.157,-0.434L0.157,-0.289L0.255,-0.289Z" style="fill:rgb(192,7,121);fill-rule:nonzero;"/>
            </g>
            <g transform="matrix(40,0,0,40,431.303,1998.64)">
                <path d="M0.442,-0.04C0.422,-0.024 0.397,-0.011 0.367,-0.002C0.336,0.007 0.304,0.012 0.27,0.012C0.232,0.012 0.199,0.006 0.171,-0.007C0.143,-0.019 0.12,-0.037 0.102,-0.06C0.084,-0.083 0.071,-0.11 0.062,-0.142C0.053,-0.174 0.049,-0.21 0.049,-0.25C0.049,-0.335 0.068,-0.4 0.106,-0.445C0.144,-0.49 0.198,-0.512 0.269,-0.512C0.292,-0.512 0.314,-0.51 0.337,-0.505C0.36,-0.5 0.38,-0.49 0.398,-0.476C0.416,-0.462 0.431,-0.442 0.442,-0.417C0.453,-0.391 0.459,-0.357 0.459,-0.315C0.459,-0.293 0.457,-0.269 0.453,-0.242L0.132,-0.242C0.132,-0.213 0.135,-0.187 0.141,-0.164C0.147,-0.141 0.156,-0.122 0.169,-0.107C0.182,-0.091 0.198,-0.079 0.219,-0.071C0.239,-0.062 0.264,-0.058 0.293,-0.058C0.316,-0.058 0.338,-0.062 0.361,-0.07C0.384,-0.078 0.401,-0.087 0.412,-0.098L0.442,-0.04ZM0.27,-0.442C0.231,-0.442 0.199,-0.432 0.176,-0.411C0.152,-0.39 0.138,-0.355 0.133,-0.305L0.381,-0.305C0.381,-0.356 0.371,-0.391 0.352,-0.412C0.333,-0.432 0.305,-0.442 0.27,-0.442Z" style="fill:rgb(192,7,121);fill-rule:nonzero;"/>
            </g>
            <g transform="matrix(40,0,0,40,451.623,1998.64)">
                <path d="M0.077,-0.5L0.132,-0.5L0.147,-0.44L0.151,-0.44C0.166,-0.463 0.186,-0.481 0.211,-0.494C0.235,-0.506 0.263,-0.512 0.294,-0.512C0.361,-0.512 0.41,-0.492 0.443,-0.453C0.476,-0.414 0.492,-0.349 0.492,-0.26C0.492,-0.218 0.487,-0.18 0.476,-0.147C0.464,-0.113 0.449,-0.084 0.429,-0.061C0.409,-0.038 0.385,-0.02 0.357,-0.007C0.328,0.006 0.297,0.012 0.262,0.012C0.237,0.012 0.218,0.011 0.204,0.008C0.189,0.005 0.174,-0.001 0.157,-0.008L0.157,0.2L0.077,0.2L0.077,-0.5ZM0.279,-0.442C0.245,-0.442 0.218,-0.433 0.199,-0.416C0.179,-0.398 0.165,-0.371 0.157,-0.335L0.157,-0.087C0.169,-0.078 0.183,-0.07 0.198,-0.066C0.213,-0.061 0.234,-0.058 0.259,-0.058C0.305,-0.058 0.341,-0.075 0.369,-0.11C0.396,-0.144 0.409,-0.194 0.409,-0.261C0.409,-0.288 0.407,-0.313 0.402,-0.336C0.397,-0.358 0.39,-0.377 0.38,-0.393C0.369,-0.408 0.356,-0.42 0.34,-0.429C0.323,-0.438 0.303,-0.442 0.279,-0.442Z" style="fill:rgb(192,7,121);fill-rule:nonzero;"/>
            </g>
            <g transform="matrix(40,0,0,40,473.263,1998.64)">
                <path d="M0.208,-0.256L0.04,-0.5L0.138,-0.5L0.233,-0.362L0.261,-0.305L0.29,-0.362L0.387,-0.5L0.477,-0.5L0.308,-0.26L0.487,-0L0.392,-0L0.286,-0.152L0.256,-0.212L0.225,-0.152L0.117,-0L0.028,-0L0.208,-0.256Z" style="fill:rgb(192,7,121);fill-rule:nonzero;"/>
            </g>
            <g transform="matrix(40,0,0,40,493.863,1998.64)">
                <path d="M0.383,-0.221L0.157,-0.221L0.157,-0L0.077,-0L0.077,-0.5L0.157,-0.5L0.157,-0.291L0.383,-0.291L0.383,-0.5L0.463,-0.5L0.463,-0L0.383,-0L0.383,-0.221Z" style="fill:rgb(192,7,121);fill-rule:nonzero;"/>
            </g>
            <g transform="matrix(40,0,0,40,515.463,1998.64)">
                <path d="M0.049,-0.25C0.049,-0.335 0.068,-0.4 0.106,-0.445C0.143,-0.49 0.197,-0.512 0.268,-0.512C0.305,-0.512 0.338,-0.506 0.366,-0.494C0.393,-0.481 0.416,-0.464 0.434,-0.441C0.452,-0.418 0.465,-0.39 0.474,-0.358C0.483,-0.325 0.487,-0.289 0.487,-0.25C0.487,-0.165 0.468,-0.1 0.431,-0.056C0.393,-0.011 0.339,0.012 0.268,0.012C0.231,0.012 0.198,0.006 0.171,-0.007C0.143,-0.019 0.12,-0.037 0.102,-0.06C0.084,-0.083 0.071,-0.11 0.062,-0.143C0.053,-0.175 0.049,-0.211 0.049,-0.25ZM0.132,-0.25C0.132,-0.225 0.135,-0.2 0.14,-0.177C0.145,-0.154 0.152,-0.133 0.163,-0.116C0.174,-0.099 0.188,-0.085 0.205,-0.074C0.222,-0.063 0.243,-0.058 0.268,-0.058C0.359,-0.057 0.404,-0.121 0.404,-0.25C0.404,-0.276 0.402,-0.301 0.397,-0.324C0.392,-0.347 0.384,-0.368 0.373,-0.385C0.362,-0.402 0.348,-0.416 0.331,-0.427C0.314,-0.437 0.293,-0.442 0.268,-0.442C0.177,-0.443 0.132,-0.379 0.132,-0.25Z" style="fill:rgb(192,7,121);fill-rule:nonzero;"/>
            </g>
            <g transform="matrix(40,0,0,40,536.903,1998.64)">
                <path d="M0.418,-0.033C0.398,-0.018 0.374,-0.007 0.347,0.001C0.32,0.008 0.291,0.012 0.261,0.012C0.222,0.012 0.19,0.006 0.163,-0.007C0.136,-0.019 0.115,-0.037 0.098,-0.06C0.081,-0.083 0.068,-0.11 0.061,-0.143C0.053,-0.175 0.049,-0.211 0.049,-0.25C0.049,-0.335 0.068,-0.4 0.105,-0.445C0.142,-0.49 0.196,-0.512 0.266,-0.512C0.298,-0.512 0.325,-0.51 0.348,-0.505C0.37,-0.5 0.39,-0.492 0.408,-0.483L0.385,-0.414C0.37,-0.423 0.353,-0.43 0.334,-0.435C0.315,-0.44 0.295,-0.442 0.274,-0.442C0.179,-0.442 0.132,-0.378 0.132,-0.25C0.132,-0.225 0.135,-0.2 0.14,-0.178C0.145,-0.155 0.153,-0.134 0.165,-0.117C0.176,-0.099 0.192,-0.085 0.211,-0.074C0.23,-0.063 0.253,-0.058 0.281,-0.058C0.305,-0.058 0.327,-0.062 0.346,-0.069C0.365,-0.076 0.38,-0.085 0.392,-0.094L0.418,-0.033Z" style="fill:rgb(192,7,121);fill-rule:nonzero;"/>
            </g>
            <g transform="matrix(40,0,0,40,554.943,1998.64)">
                <path d="M0.395,-0.43L0.239,-0.43L0.239,-0L0.159,-0L0.159,-0.43L0.003,-0.43L0.003,-0.5L0.395,-0.5L0.395,-0.43Z" style="fill:rgb(192,7,121);fill-rule:nonzero;"/>
            </g>
            <g transform="matrix(40,0,0,40,570.823,1998.64)">
                <path d="M0.389,-0.296L0.392,-0.358L0.389,-0.358L0.348,-0.294L0.123,-0L0.077,-0L0.077,-0.5L0.157,-0.5L0.157,-0.195L0.154,-0.136L0.158,-0.136L0.197,-0.198L0.422,-0.5L0.469,-0.5L0.469,-0L0.389,-0L0.389,-0.296Z" style="fill:rgb(192,7,121);fill-rule:nonzero;"/>
            </g>
        </g>
        <g id="TIN-vertices" serif:id="TIN vertices">
        </g>
        <g id="TIN-edges" serif:id="TIN edges">
        </g>
        <path d="M5.213,297.902L63.893,412.14L175.635,535.742L238.684,448.347L196.547,330.363L247.424,264.192L364.159,365.321L375.395,600.664L449.681,738L556.429,718.648L560.174,531.372L570.787,312.26L416.596,201.143L407.291,102.594L257.412,7L77.003,105.632L24.565,215.5L5.213,297.902Z" style="fill:rgb(217,217,217);stroke:black;stroke-width:5px;"/>
        <path d="M5.213,7L570.787,7" style="fill:none;stroke:rgb(179,179,179);stroke-width:3px;"/>
        <path d="M5.213,119.206L570.787,119.206" style="fill:none;stroke:rgb(179,179,179);stroke-width:3px;"/>
        <path d="M5.213,63.103L570.787,63.103" style="fill:none;stroke:rgb(179,179,179);stroke-width:3px;"/>
        <path d="M5.213,175.309L570.787,175.309" style="fill:none;stroke:rgb(179,179,179);stroke-width:3px;"/>
        <path d="M5.213,231.412L570.787,231.412" style="fill:none;stroke:rgb(179,179,179);stroke-width:3px;"/>
        <path d="M5.213,287.515L570.787,287.515" style="fill:none;stroke:rgb(179,179,179);stroke-width:3px;"/>
        <path d="M5.213,343.618L570.787,343.618" style="fill:none;stroke:rgb(179,179,179);stroke-width:3px;"/>
        <path d="M5.213,399.721L570.787,399.721" style="fill:none;stroke:rgb(179,179,179);stroke-width:3px;"/>
        <path d="M5.213,455.824L570.787,455.824" style="fill:none;stroke:rgb(179,179,179);stroke-width:3px;"/>
        <path d="M5.213,511.927L570.787,511.927" style="fill:none;stroke:rgb(179,179,179);stroke-width:3px;"/>
        <path d="M5.213,568.03L570.787,568.03" style="fill:none;stroke:rgb(179,179,179);stroke-width:3px;"/>
        <path d="M5.213,624.133L570.787,624.133" style="fill:none;stroke:rgb(179,179,179);stroke-width:3px;"/>
        <path d="M5.213,680.236L570.787,680.236" style="fill:none;stroke:rgb(179,179,179);stroke-width:3px;"/>
        <path d="M5.213,736.339L570.787,736.339" style="fill:none;stroke:rgb(179,179,179);stroke-width:3px;"/>
        <path d="M154.793,63.103L346.007,63.103" style="fill:none;stroke:rgb(21,183,183);stroke-width:5px;"/>
        <path d="M70.524,119.206L408.897,119.206" style="fill:none;stroke:rgb(21,183,183);stroke-width:5px;"/>
        <path d="M43.918,174.951L414.165,174.951" style="fill:none;stroke:rgb(21,183,183);stroke-width:5px;"/>
        <path d="M20.964,230.836L460,230.836" style="fill:none;stroke:rgb(192,7,121);stroke-width:5px;"/>
        <path d="M5.213,287.515L229.042,287.515" style="fill:none;stroke:rgb(21,183,183);stroke-width:5px;"/>
        <path d="M275,287.515L538,287.515" style="fill:none;stroke:rgb(21,183,183);stroke-width:5px;"/>
        <path d="M28.73,343.685L201.286,343.685" style="fill:none;stroke:rgb(21,183,183);stroke-width:5px;"/>
        <path d="M339.183,343.685L570.787,343.685" style="fill:none;stroke:rgb(21,183,183);stroke-width:5px;"/>
        <path d="M57.514,399.721L221.255,399.721" style="fill:none;stroke:rgb(21,183,183);stroke-width:5px;"/>
        <path d="M365.801,399.721L566.547,399.721" style="fill:none;stroke:rgb(21,183,183);stroke-width:5px;"/>
        <path d="M103,455L234,455" style="fill:none;stroke:rgb(21,183,183);stroke-width:5px;"/>
        <path d="M370,455.824L566.547,455.824" style="fill:none;stroke:rgb(21,183,183);stroke-width:5px;"/>
        <path d="M154,511.927L193,511.927" style="fill:none;stroke:rgb(21,183,183);stroke-width:5px;"/>
        <path d="M370,511.927L561,511.927" style="fill:none;stroke:rgb(21,183,183);stroke-width:5px;"/>
        <path d="M375,568L561,568" style="fill:none;stroke:rgb(21,183,183);stroke-width:5px;"/>
        <path d="M388,623L561,623" style="fill:none;stroke:rgb(21,183,183);stroke-width:5px;"/>
        <path d="M419,680L556,680" style="fill:none;stroke:rgb(21,183,183);stroke-width:5px;"/>
        <path d="M254,7L259,7" style="fill:none;stroke:rgb(21,183,183);stroke-width:5px;"/>
        <path d="M448,737L454,737" style="fill:none;stroke:rgb(21,183,183);stroke-width:5px;"/>
        <circle cx="240.482" cy="230.836" r="12.018" style="fill:rgb(192,7,121);"/>
        <circle cx="32.522" cy="600.229" r="12.018" style="fill:rgb(192,7,121);"/>
        <circle cx="287.928" cy="373.706" r="9.018" style="fill:rgb(249,85,185);"/>
        <circle cx="29.522" cy="706.407" r="9.018" style="fill:rgb(249,85,185);"/>
    </g>
</svg>
