<?xml version="1.0" encoding="UTF-8" standalone="no"?>
<!DOCTYPE svg PUBLIC "-//W3C//DTD SVG 1.1//EN" "http://www.w3.org/Graphics/SVG/1.1/DTD/svg11.dtd">
<svg width="100%" height="100%" viewBox="0 0 522 288" version="1.1" xmlns="http://www.w3.org/2000/svg" xmlns:xlink="http://www.w3.org/1999/xlink" xml:space="preserve" xmlns:serif="http://www.serif.com/" style="fill-rule:evenodd;clip-rule:evenodd;stroke-linecap:round;stroke-linejoin:round;stroke-miterlimit:10;">
    <rect id="Geometric-Operations" serif:id="Geometric Operations" x="-1319" y="-1643" width="6739" height="2861" style="fill:none;"/>
    <g id="Geometric-Operations1" serif:id="Geometric Operations">
        <path d="M3.478,207.014L8.247,133.879L59.579,77.308L141.483,163.229L197.37,9.903L286.333,39.721L276.593,171.953L347.541,124.083L355.737,50.61L393.724,4.313L441.621,29.034L419.809,128.337L365.524,234.578L284.084,220.804L257.018,281.663L140.064,200.859L81.706,219.335L3.478,207.014Z" style="fill:rgb(194,194,194);stroke:black;stroke-width:3px;"/>
        <path d="M510.564,127.039L517.743,130.628L510.564,134.217L510.564,127.039Z"/>
        <path d="M54.489,130.628L512,130.628" style="fill:none;stroke:black;stroke-width:1px;stroke-linecap:square;stroke-linejoin:miter;"/>
        <path d="M512,71.21L517.384,74.8L512,78.389L512,71.21Z" style="fill:none;stroke:black;stroke-width:1px;stroke-linecap:butt;stroke-linejoin:miter;"/>
        <path d="M129.123,74.8L512,74.8" style="fill:none;stroke:black;stroke-width:1px;stroke-linecap:square;stroke-linejoin:miter;"/>
        <path d="M512,231.188L517.384,234.777L512,238.366L512,231.188Z" style="fill:none;stroke:black;stroke-width:1px;stroke-linecap:butt;stroke-linejoin:miter;"/>
        <path d="M127.704,234.777L512,234.777" style="fill:none;stroke:black;stroke-width:1px;stroke-linecap:square;stroke-linejoin:miter;"/>
        <circle cx="54.489" cy="130.628" r="12.36" style="fill:rgb(251,133,255);stroke:black;stroke-width:5px;stroke-linecap:square;stroke-linejoin:miter;"/>
        <ellipse cx="109.976" cy="130.628" rx="7.919" ry="7.856" style="stroke:rgb(251,133,255);stroke-width:3px;stroke-linecap:square;stroke-linejoin:miter;"/>
        <ellipse cx="153.604" cy="130.628" rx="7.919" ry="7.856" style="stroke:rgb(251,133,255);stroke-width:3px;stroke-linecap:square;stroke-linejoin:miter;"/>
        <ellipse cx="278.078" cy="130.628" rx="7.919" ry="7.856" style="stroke:rgb(251,133,255);stroke-width:3px;stroke-linecap:square;stroke-linejoin:miter;"/>
        <ellipse cx="336.576" cy="130.628" rx="7.919" ry="7.856" style="stroke:rgb(251,133,255);stroke-width:3px;stroke-linecap:square;stroke-linejoin:miter;"/>
        <ellipse cx="419.004" cy="130.628" rx="7.919" ry="7.856" style="stroke:rgb(251,133,255);stroke-width:3px;stroke-linecap:square;stroke-linejoin:miter;"/>
        <circle cx="129.123" cy="74.8" r="12.36" style="fill:rgb(45,231,231);stroke:black;stroke-width:5px;stroke-linecap:square;stroke-linejoin:miter;"/>
        <circle cx="173.671" cy="74.8" r="7.769" style="stroke:rgb(45,231,231);stroke-width:3px;stroke-linecap:square;stroke-linejoin:miter;"/>
        <circle cx="283.251" cy="74.8" r="7.769" style="stroke:rgb(45,231,231);stroke-width:3px;stroke-linecap:square;stroke-linejoin:miter;"/>
        <circle cx="353.527" cy="74.8" r="7.769" style="stroke:rgb(45,231,231);stroke-width:3px;stroke-linecap:square;stroke-linejoin:miter;"/>
        <circle cx="431.424" cy="74.8" r="7.769" style="stroke:rgb(45,231,231);stroke-width:3px;stroke-linecap:square;stroke-linejoin:miter;"/>
        <path d="M510.564,168.471L517.743,172.06L510.564,175.649L510.564,168.471Z"/>
        <path d="M217.807,172.06L512,172.06" style="fill:none;stroke:black;stroke-width:1px;stroke-linecap:square;stroke-linejoin:miter;"/>
        <circle cx="127.704" cy="234.777" r="12.36" style="fill:rgb(255,235,51);stroke:black;stroke-width:5px;stroke-linecap:square;stroke-linejoin:miter;"/>
        <circle cx="188.004" cy="234.777" r="7.769" style="stroke:rgb(255,235,51);stroke-width:3px;stroke-linecap:square;stroke-linejoin:miter;"/>
        <circle cx="277.433" cy="234.777" r="7.769" style="stroke:rgb(255,235,51);stroke-width:3px;stroke-linecap:square;stroke-linejoin:miter;"/>
        <circle cx="365.63" cy="234.777" r="7.769"/>
        <circle cx="217.807" cy="172.06" r="12.36" style="fill:rgb(150,255,21);stroke:black;stroke-width:5px;stroke-linecap:square;stroke-linejoin:miter;"/>
        <circle cx="276.963" cy="172.06" r="7.769"/>
        <circle cx="398.358" cy="172.06" r="7.769" style="stroke:rgb(150,255,21);stroke-width:3px;stroke-linecap:square;stroke-linejoin:miter;"/>
        <path d="M160.416,53.905L164.74,53.905L164.74,39.415L160.333,42.5L159.259,40.93L165.319,36.605L166.862,36.605L166.862,53.905L171.104,53.905L171.104,55.888L160.416,55.888L160.416,53.905Z" style="fill-rule:nonzero;"/>
        <path d="M111.685,111.742L116.01,111.742L116.01,97.253L111.602,100.338L110.528,98.768L116.588,94.443L118.131,94.443L118.131,111.742L122.373,111.742L122.373,113.726L111.685,113.726L111.685,111.742Z" style="fill-rule:nonzero;"/>
        <path d="M178.257,269.345L182.582,269.345L182.582,254.855L178.174,257.941L177.1,256.37L183.16,252.046L184.703,252.046L184.703,269.345L188.945,269.345L188.945,271.328L178.257,271.328L178.257,269.345Z" style="fill-rule:nonzero;"/>
        <path d="M269.194,196.302C269.194,194.741 269.332,193.34 269.607,192.101C269.883,190.861 270.296,189.814 270.847,188.96C271.398,188.106 272.096,187.454 272.94,187.005C273.785,186.555 274.786,186.33 275.943,186.33C277.173,186.33 278.216,186.55 279.07,186.991C279.924,187.432 280.617,188.074 281.149,188.919C281.682,189.764 282.068,190.806 282.306,192.046C282.545,193.285 282.664,194.704 282.664,196.302C282.664,197.863 282.527,199.263 282.251,200.503C281.976,201.742 281.563,202.789 281.012,203.643C280.461,204.497 279.763,205.149 278.918,205.599C278.073,206.049 277.072,206.274 275.915,206.274C274.703,206.274 273.67,206.03 272.816,205.544C271.962,205.057 271.265,204.373 270.723,203.491C270.181,202.61 269.791,201.559 269.552,200.337C269.313,199.116 269.194,197.771 269.194,196.302ZM280.406,196.302C280.406,195.328 280.35,194.401 280.24,193.519L272.059,200.985C272.371,202.031 272.839,202.867 273.464,203.491C274.088,204.116 274.905,204.428 275.915,204.428C277.532,204.428 278.684,203.758 279.373,202.417C280.061,201.076 280.406,199.038 280.406,196.302ZM271.48,196.302C271.48,196.761 271.494,197.202 271.522,197.624C271.549,198.046 271.581,198.46 271.618,198.864L279.827,191.426C279.515,190.434 279.051,189.644 278.436,189.057C277.821,188.469 276.99,188.175 275.943,188.175C274.309,188.175 273.156,188.85 272.486,190.2C271.815,191.55 271.48,193.584 271.48,196.302Z" style="fill-rule:nonzero;"/>
        <path d="M351.745,261.722C351.745,260.161 351.883,258.761 352.158,257.521C352.434,256.282 352.847,255.235 353.398,254.381C353.949,253.527 354.647,252.875 355.492,252.425C356.336,251.975 357.337,251.75 358.494,251.75C359.725,251.75 360.767,251.971 361.621,252.411C362.475,252.852 363.168,253.495 363.701,254.34C364.233,255.184 364.619,256.227 364.858,257.466C365.096,258.706 365.216,260.124 365.216,261.722C365.216,263.283 365.078,264.683 364.802,265.923C364.527,267.163 364.114,268.209 363.563,269.063C363.012,269.917 362.314,270.569 361.469,271.019C360.624,271.469 359.624,271.694 358.467,271.694C357.255,271.694 356.222,271.451 355.368,270.964C354.514,270.478 353.816,269.793 353.274,268.912C352.732,268.03 352.342,266.979 352.103,265.758C351.865,264.537 351.745,263.191 351.745,261.722ZM362.957,261.722C362.957,260.749 362.902,259.821 362.792,258.94L354.61,266.405C354.922,267.452 355.391,268.288 356.015,268.912C356.639,269.536 357.457,269.849 358.467,269.849C360.083,269.849 361.235,269.178 361.924,267.838C362.612,266.497 362.957,264.458 362.957,261.722ZM354.032,261.722C354.032,262.181 354.045,262.622 354.073,263.044C354.1,263.467 354.133,263.88 354.169,264.284L362.378,256.846C362.066,255.855 361.602,255.065 360.987,254.477C360.372,253.89 359.541,253.596 358.494,253.596C356.86,253.596 355.707,254.271 355.037,255.62C354.367,256.97 354.032,259.004 354.032,261.722Z" style="fill-rule:nonzero;"/>
        <path d="M404.891,202.738L409.808,202.738L409.808,188.694L405.566,191.94L403.638,189.369L410.965,183.777L413.794,183.777L413.794,202.738L418.614,202.738L418.614,206.274L404.891,206.274L404.891,202.738Z" style="fill-rule:nonzero;"/>
        <path d="M305.977,41.481C305.977,43.171 305.178,45.053 303.58,47.128C301.983,49.204 299.751,51.462 296.887,53.905L306.583,53.905L306.583,55.888L294.352,55.888L294.352,53.905C294.701,53.574 295.179,53.143 295.785,52.61C296.391,52.078 297.043,51.485 297.74,50.833C298.438,50.182 299.15,49.479 299.875,48.726C300.601,47.973 301.257,47.202 301.845,46.412C302.433,45.622 302.91,44.833 303.277,44.043C303.645,43.253 303.828,42.491 303.828,41.757C303.828,40.655 303.539,39.787 302.961,39.154C302.382,38.52 301.514,38.203 300.357,38.203C299.366,38.203 298.53,38.313 297.851,38.534C297.171,38.754 296.556,39.075 296.005,39.498L295.068,37.983C295.895,37.395 296.772,36.964 297.699,36.688C298.627,36.413 299.641,36.275 300.743,36.275C302.469,36.275 303.773,36.743 304.655,37.68C305.536,38.616 305.977,39.884 305.977,41.481Z" style="fill-rule:nonzero;"/>
        <path d="M149.354,99.704C149.354,101.394 148.555,103.276 146.957,105.351C145.359,107.427 143.128,109.686 140.263,112.128L149.96,112.128L149.96,114.111L137.729,114.111L137.729,112.128C138.078,111.797 138.555,111.366 139.161,110.833C139.767,110.301 140.419,109.708 141.117,109.057C141.815,108.405 142.527,107.702 143.252,106.949C143.977,106.196 144.634,105.425 145.222,104.635C145.809,103.846 146.287,103.056 146.654,102.266C147.021,101.476 147.205,100.714 147.205,99.98C147.205,98.878 146.916,98.01 146.337,97.377C145.759,96.743 144.891,96.426 143.734,96.426C142.742,96.426 141.907,96.536 141.227,96.757C140.548,96.977 139.933,97.299 139.382,97.721L138.445,96.206C139.271,95.618 140.148,95.187 141.076,94.911C142.003,94.636 143.018,94.498 144.12,94.498C145.846,94.498 147.15,94.966 148.031,95.903C148.913,96.839 149.354,98.107 149.354,99.704Z" style="fill-rule:nonzero;"/>
        <path d="M291.428,257.114C291.428,258.804 290.629,260.686 289.031,262.761C287.434,264.837 285.202,267.095 282.337,269.538L292.034,269.538L292.034,271.521L279.803,271.521L279.803,269.538C280.152,269.207 280.63,268.776 281.236,268.243C281.842,267.711 282.494,267.118 283.191,266.466C283.889,265.814 284.601,265.112 285.326,264.359C286.052,263.606 286.708,262.835 287.296,262.045C287.884,261.255 288.361,260.466 288.728,259.676C289.096,258.886 289.279,258.124 289.279,257.39C289.279,256.288 288.99,255.42 288.412,254.786C287.833,254.153 286.965,253.836 285.808,253.836C284.817,253.836 283.981,253.946 283.302,254.167C282.622,254.387 282.007,254.708 281.456,255.131L280.519,253.616C281.346,253.028 282.223,252.596 283.15,252.321C284.078,252.046 285.092,251.908 286.194,251.908C287.92,251.908 289.224,252.376 290.106,253.313C290.987,254.249 291.428,255.516 291.428,257.114Z" style="fill-rule:nonzero;"/>
        <path d="M338.726,54.318C339.461,54.318 340.136,54.222 340.751,54.029C341.366,53.836 341.904,53.565 342.363,53.216C342.822,52.867 343.18,52.445 343.437,51.949C343.694,51.453 343.823,50.902 343.823,50.296C343.823,49.029 343.377,48.125 342.487,47.583C341.596,47.041 340.398,46.77 338.892,46.77L337.129,46.77L337.129,45.448L342.555,38.589L334.319,38.589L334.319,36.605L345.2,36.605L345.2,38.589L339.773,44.952L340.214,44.952C341.059,44.952 341.83,45.072 342.528,45.31C343.226,45.549 343.832,45.889 344.346,46.33C344.86,46.77 345.26,47.303 345.544,47.927C345.829,48.552 345.971,49.259 345.971,50.048C345.971,51.04 345.778,51.922 345.393,52.693C345.007,53.464 344.484,54.112 343.823,54.635C343.161,55.158 342.386,55.553 341.495,55.819C340.604,56.086 339.654,56.219 338.644,56.219C337.707,56.219 336.895,56.15 336.206,56.012C335.517,55.875 334.888,55.705 334.319,55.503L334.87,53.574C335.347,53.795 335.907,53.974 336.55,54.112C337.193,54.249 337.918,54.318 338.726,54.318Z" style="fill-rule:nonzero;"/>
        <path d="M294.587,112.541C295.321,112.541 295.996,112.445 296.611,112.252C297.227,112.059 297.764,111.788 298.223,111.439C298.682,111.09 299.04,110.668 299.297,110.172C299.554,109.676 299.683,109.125 299.683,108.519C299.683,107.252 299.238,106.348 298.347,105.806C297.456,105.264 296.258,104.993 294.752,104.993L292.989,104.993L292.989,103.671L298.416,96.812L290.179,96.812L290.179,94.828L301.06,94.828L301.06,96.812L295.633,103.175L296.074,103.175C296.919,103.175 297.69,103.295 298.388,103.533C299.086,103.772 299.692,104.112 300.206,104.553C300.72,104.993 301.12,105.526 301.405,106.15C301.689,106.775 301.832,107.482 301.832,108.271C301.832,109.263 301.639,110.145 301.253,110.916C300.867,111.687 300.344,112.335 299.683,112.858C299.022,113.381 298.246,113.776 297.355,114.043C296.464,114.309 295.514,114.442 294.504,114.442C293.567,114.442 292.755,114.373 292.066,114.235C291.377,114.098 290.748,113.928 290.179,113.726L290.73,111.797C291.208,112.018 291.768,112.197 292.41,112.335C293.053,112.472 293.779,112.541 294.587,112.541Z" style="fill-rule:nonzero;"/>
        <path d="M463.7,51.917L459.843,51.917L459.843,58.184L455.954,58.184L455.954,51.917L446.216,51.917L446.216,49.057L456.404,35.526L459.843,35.526L459.843,48.575L463.7,48.575L463.7,51.917ZM455.954,41.44L450.362,48.575L455.954,48.575L455.954,41.44Z" style="fill-rule:nonzero;"/>
        <path d="M334.811,108.492L331.093,108.492L331.093,114.497L328.944,114.497L328.944,108.492L320.046,108.492L320.046,106.894L329.275,95.214L331.093,95.214L331.093,106.674L334.811,106.674L334.811,108.492ZM328.944,98.658L322.581,106.674L328.944,106.674L328.944,98.658Z" style="fill-rule:nonzero;"/>
        <path d="M392.573,271.521L378.239,271.521L378.239,268.404C378.496,268.19 378.818,267.906 379.203,267.552C379.589,267.199 380.023,266.797 380.505,266.347C380.987,265.897 381.496,265.404 382.032,264.869C382.567,264.333 383.092,263.776 383.606,263.197C384.335,262.383 384.972,261.644 385.519,260.98C386.065,260.316 386.515,259.689 386.868,259.1C387.222,258.511 387.484,257.932 387.656,257.364C387.827,256.797 387.913,256.213 387.913,255.613C387.913,255.184 387.817,254.767 387.624,254.359C387.431,253.952 387.163,253.594 386.82,253.283C386.477,252.972 386.065,252.726 385.583,252.544C385.101,252.362 384.571,252.271 383.992,252.271C383.221,252.271 382.519,252.388 381.887,252.624C381.255,252.86 380.596,253.256 379.911,253.813L378.239,250.856C379.139,250.214 380.141,249.673 381.244,249.233C382.348,248.794 383.617,248.575 385.053,248.575C385.974,248.575 386.858,248.703 387.704,248.96C388.55,249.217 389.3,249.598 389.954,250.101C390.607,250.605 391.127,251.231 391.512,251.981C391.898,252.731 392.091,253.599 392.091,254.584C392.091,255.27 392.032,255.907 391.914,256.497C391.796,257.086 391.614,257.675 391.368,258.264C391.121,258.853 390.8,259.459 390.404,260.08C390.007,260.701 389.531,261.376 388.973,262.105C388.545,262.662 388.079,263.224 387.575,263.792C387.072,264.36 386.574,264.901 386.081,265.415C385.588,265.929 385.101,266.411 384.619,266.861C384.137,267.311 383.703,267.686 383.317,267.986L392.573,267.986L392.573,271.521Z" style="fill-rule:nonzero;"/>
        <path d="M439.85,115.842C440.557,115.842 441.211,115.757 441.811,115.585C442.411,115.414 442.93,115.167 443.37,114.846C443.809,114.525 444.152,114.128 444.398,113.657C444.644,113.186 444.768,112.65 444.768,112.05C444.768,110.872 444.302,109.945 443.37,109.27C442.438,108.595 441.04,108.258 439.176,108.258C438.94,108.258 438.667,108.263 438.356,108.274C438.045,108.284 437.751,108.3 437.472,108.322C437.151,108.343 436.819,108.354 436.476,108.354L436.476,96.591L448.11,96.591L448.11,100.448L440.075,100.448L440.075,104.851C440.247,104.851 440.418,104.84 440.59,104.819L441.393,104.787C442.464,104.787 443.461,104.942 444.382,105.253C445.303,105.563 446.107,106.029 446.792,106.651C447.478,107.272 448.008,108.027 448.383,108.916C448.758,109.806 448.946,110.786 448.946,111.857C448.946,113.121 448.71,114.23 448.238,115.183C447.767,116.137 447.124,116.935 446.31,117.578C445.496,118.22 444.553,118.708 443.482,119.04C442.411,119.372 441.264,119.538 440.043,119.538C439.572,119.538 439.068,119.49 438.533,119.394C437.997,119.297 437.472,119.179 436.958,119.04C436.444,118.901 435.967,118.745 435.528,118.574C435.089,118.403 434.719,118.242 434.419,118.092L435.769,114.75C436.133,114.964 436.696,115.199 437.456,115.457C438.217,115.714 439.015,115.842 439.85,115.842Z" style="fill-rule:nonzero;"/>
    </g>
</svg>
