<?xml version="1.0" encoding="UTF-8" standalone="no"?>
<!DOCTYPE svg PUBLIC "-//W3C//DTD SVG 1.1//EN" "http://www.w3.org/Graphics/SVG/1.1/DTD/svg11.dtd">
<svg width="100%" height="100%" viewBox="0 0 445 490" version="1.1" xmlns="http://www.w3.org/2000/svg" xmlns:xlink="http://www.w3.org/1999/xlink" xml:space="preserve" xmlns:serif="http://www.serif.com/" style="fill-rule:evenodd;clip-rule:evenodd;stroke-linejoin:round;stroke-miterlimit:1.5;">
    <rect id="Geometric-Operations" serif:id="Geometric Operations" x="-255" y="-701" width="6739" height="2861" style="fill:none;"/>
    <g id="Geometric-Operations1" serif:id="Geometric Operations">
        <path d="M6.066,415.292L308.552,19.825" style="fill:none;stroke:black;stroke-width:2px;stroke-dasharray:2,4,0,0;"/>
        <path d="M82,145L165.541,204.945" style="fill:none;stroke:rgb(21,183,183);stroke-width:3px;stroke-linecap:square;stroke-miterlimit:10;stroke-dasharray:3,9,0,0;"/>
        <circle cx="243.469" cy="105.277" r="11.72"/>
        <circle cx="72.774" cy="138.43" r="11.72" style="fill:rgb(21,183,183);"/>
        <circle cx="196.098" cy="450.652" r="11.72" style="fill:rgb(99,174,0);"/>
        <path d="M168.023,436.454L186.927,443.357L181.107,424.093L168.023,436.454Z" style="fill:rgb(99,174,0);"/>
        <path d="M177.037,432.89C151.01,405.343 82.599,332.936 82.599,332.936" style="fill:none;stroke:rgb(99,174,0);stroke-width:3px;stroke-linecap:square;stroke-miterlimit:10;stroke-dasharray:3,9,0,0;"/>
        <circle cx="384.99" cy="101.105" r="11.72" style="fill:rgb(247,0,255);"/>
        <path d="M273.496,113.636L255.189,105.277L272.86,95.647L273.496,113.636Z" style="fill:rgb(247,0,255);"/>
        <path d="M373.27,101.105C373.27,101.105 301.065,103.656 269.58,104.769" style="fill:none;stroke:rgb(247,0,255);stroke-width:3px;stroke-linecap:square;stroke-miterlimit:10;stroke-dasharray:3,9,0,0;"/>
        <circle cx="77.69" cy="322.292" r="11.72"/>
        <path d="M215.462,123.067L238.052,111.997L233.354,136.71L215.462,123.067Z"/>
        <path d="M77.69,322.292C77.69,322.292 191.024,173.669 227.137,126.31" style="fill:none;stroke:black;stroke-width:5px;"/>
        <path d="M34.656,325.515C35.235,325.515 35.762,325.495 36.238,325.456C36.715,325.417 37.16,325.351 37.574,325.257C37.988,325.163 38.383,325.038 38.758,324.882C39.133,324.726 39.508,324.523 39.883,324.273L39.883,309.53C39.555,309.421 39.184,309.316 38.77,309.214C38.356,309.113 37.926,309.027 37.481,308.956C37.035,308.886 36.582,308.831 36.121,308.792C35.66,308.753 35.219,308.734 34.797,308.734C33.86,308.734 33.043,308.984 32.348,309.484C31.653,309.984 31.074,310.636 30.613,311.441C30.153,312.245 29.809,313.152 29.582,314.159C29.356,315.167 29.242,316.171 29.242,317.171C29.242,318.171 29.348,319.167 29.559,320.159C29.77,321.152 30.094,322.046 30.531,322.843C30.969,323.64 31.528,324.284 32.207,324.777C32.887,325.269 33.703,325.515 34.656,325.515ZM46.492,304.515C46.227,305.437 46.074,306.198 46.035,306.8C45.996,307.402 45.977,307.812 45.977,308.03L45.977,340.468L39.883,340.468L39.883,328.21C39.024,328.851 38.094,329.359 37.094,329.734C36.094,330.109 35,330.296 33.813,330.296C32.141,330.296 30.633,329.972 29.289,329.323C27.946,328.675 26.805,327.777 25.867,326.628C24.93,325.48 24.207,324.12 23.699,322.55C23.192,320.98 22.938,319.28 22.938,317.452C22.938,315.452 23.235,313.632 23.828,311.991C24.422,310.351 25.235,308.948 26.266,307.784C27.297,306.62 28.516,305.718 29.922,305.077C31.328,304.437 32.844,304.116 34.469,304.116C35.719,304.116 36.797,304.277 37.703,304.597C38.61,304.917 39.422,305.374 40.141,305.968L40.563,304.515L46.492,304.515Z" style="fill-rule:nonzero;"/>
        <path d="M231.635,54.25C231.963,55.906 232.197,57.594 232.338,59.313C232.635,58.625 233.064,57.953 233.627,57.297C234.189,56.641 234.814,56.059 235.502,55.551C236.189,55.043 236.912,54.633 237.67,54.321C238.428,54.008 239.15,53.852 239.838,53.852C240.697,53.852 241.338,53.906 241.76,54.016C242.182,54.125 242.517,54.235 242.767,54.344L241.455,59.852C240.955,59.617 240.49,59.457 240.06,59.371C239.631,59.285 239.205,59.242 238.783,59.242C237.33,59.242 236.084,59.586 235.045,60.274C234.006,60.961 233.158,61.867 232.502,62.992L232.549,79.563L226.408,79.563L226.408,58.516C226.408,58.25 226.404,57.914 226.396,57.508C226.389,57.102 226.381,56.688 226.373,56.266C226.365,55.844 226.35,55.449 226.326,55.082C226.303,54.715 226.275,54.438 226.244,54.25L231.635,54.25Z" style="fill-rule:nonzero;"/>
        <path d="M320.43,7.395L323.516,7.395L318.946,33.684C318.894,33.945 318.868,34.199 318.868,34.446C318.868,34.98 319.021,35.328 319.327,35.491C319.633,35.654 320.092,35.735 320.704,35.735C320.808,35.735 320.961,35.729 321.163,35.716C321.364,35.703 321.569,35.683 321.778,35.657L321.915,37.454C321.667,37.558 321.39,37.662 321.084,37.766C320.778,37.871 320.463,37.965 320.137,38.05C319.812,38.134 319.489,38.203 319.17,38.255C318.851,38.307 318.555,38.333 318.282,38.333C317.943,38.333 317.611,38.291 317.286,38.206C316.96,38.121 316.674,37.975 316.426,37.766C316.179,37.558 315.98,37.278 315.831,36.927C315.681,36.575 315.606,36.132 315.606,35.598C315.606,35.247 315.645,34.856 315.723,34.427L320.43,7.395Z" style="fill-rule:nonzero;"/>
        <path d="M50.84,96.997C50.121,96.997 49.477,97.028 48.906,97.091C48.336,97.153 47.785,97.251 47.254,97.384C46.723,97.517 46.188,97.696 45.649,97.923C45.11,98.15 44.512,98.427 43.856,98.755L41.113,114.575C41.613,115.028 42.125,115.396 42.649,115.677C43.172,115.958 43.692,116.177 44.207,116.333C44.723,116.489 45.219,116.595 45.696,116.65C46.172,116.704 46.621,116.732 47.043,116.732C48.106,116.732 49.071,116.544 49.938,116.169C50.805,115.794 51.586,115.282 52.281,114.634C52.977,113.985 53.578,113.232 54.086,112.372C54.594,111.513 55.02,110.595 55.363,109.618C55.707,108.642 55.961,107.638 56.125,106.607C56.289,105.575 56.371,104.567 56.371,103.583C56.371,102.614 56.289,101.732 56.125,100.935C55.961,100.138 55.668,99.446 55.246,98.86C54.824,98.275 54.258,97.817 53.547,97.489C52.836,97.161 51.934,96.997 50.84,96.997ZM44.02,94.232L44.02,95.146C44.02,95.458 44.012,95.755 43.996,96.036C45.168,95.38 46.446,94.849 47.828,94.442C49.211,94.036 50.676,93.833 52.223,93.833C53.645,93.833 54.867,94.067 55.891,94.536C56.914,95.005 57.754,95.65 58.41,96.47C59.067,97.29 59.547,98.259 59.852,99.376C60.156,100.493 60.309,101.7 60.309,102.997C60.309,105.278 60.004,107.446 59.395,109.501C58.785,111.556 57.922,113.357 56.805,114.903C55.688,116.45 54.332,117.677 52.738,118.583C51.145,119.489 49.363,119.942 47.395,119.942C46.707,119.942 46.082,119.896 45.52,119.802C44.957,119.708 44.414,119.564 43.891,119.368C43.367,119.173 42.844,118.931 42.321,118.642C41.797,118.353 41.238,118.005 40.645,117.599L38.418,130.161L34.715,130.161L40.293,97.958C40.324,97.849 40.363,97.634 40.41,97.314C40.457,96.993 40.504,96.638 40.551,96.247C40.598,95.857 40.637,95.474 40.668,95.099C40.699,94.724 40.715,94.435 40.715,94.232L44.02,94.232Z" style="fill:rgb(21,183,183);fill-rule:nonzero;"/>
        <path d="M425.461,88.189C424.742,88.189 424.098,88.221 423.528,88.283C422.957,88.346 422.406,88.443 421.875,88.576C421.344,88.709 420.809,88.888 420.27,89.115C419.731,89.342 419.133,89.619 418.477,89.947L415.735,105.767C416.235,106.221 416.746,106.588 417.27,106.869C417.793,107.15 418.313,107.369 418.828,107.525C419.344,107.681 419.84,107.787 420.317,107.842C420.793,107.896 421.242,107.924 421.664,107.924C422.727,107.924 423.692,107.736 424.559,107.361C425.426,106.986 426.207,106.474 426.903,105.826C427.598,105.178 428.199,104.424 428.707,103.564C429.215,102.705 429.641,101.787 429.985,100.81C430.328,99.834 430.582,98.83 430.746,97.799C430.91,96.767 430.992,95.76 430.992,94.775C430.992,93.806 430.91,92.924 430.746,92.127C430.582,91.33 430.289,90.638 429.867,90.053C429.446,89.467 428.879,89.01 428.168,88.681C427.457,88.353 426.555,88.189 425.461,88.189ZM418.641,85.424L418.641,86.338C418.641,86.65 418.633,86.947 418.617,87.228C419.789,86.572 421.067,86.041 422.449,85.635C423.832,85.228 425.297,85.025 426.844,85.025C428.266,85.025 429.488,85.26 430.512,85.728C431.535,86.197 432.375,86.842 433.031,87.662C433.688,88.482 434.168,89.451 434.473,90.568C434.778,91.685 434.93,92.892 434.93,94.189C434.93,96.471 434.625,98.638 434.016,100.693C433.406,102.748 432.543,104.549 431.426,106.096C430.309,107.642 428.953,108.869 427.36,109.775C425.766,110.681 423.985,111.135 422.016,111.135C421.328,111.135 420.703,111.088 420.141,110.994C419.578,110.9 419.035,110.756 418.512,110.56C417.988,110.365 417.465,110.123 416.942,109.834C416.418,109.545 415.86,109.197 415.266,108.791L413.039,121.353L409.336,121.353L414.914,89.15C414.946,89.041 414.985,88.826 415.031,88.506C415.078,88.185 415.125,87.83 415.172,87.439C415.219,87.049 415.258,86.666 415.289,86.291C415.321,85.916 415.336,85.627 415.336,85.424L418.641,85.424Z" style="fill:rgb(247,0,255);fill-rule:nonzero;"/>
        <path d="M229.572,453.108C228.853,453.108 228.209,453.139 227.639,453.202C227.068,453.264 226.517,453.362 225.986,453.495C225.455,453.628 224.92,453.807 224.381,454.034C223.842,454.26 223.244,454.538 222.588,454.866L219.846,470.686C220.346,471.139 220.857,471.507 221.381,471.788C221.904,472.069 222.424,472.288 222.939,472.444C223.455,472.6 223.951,472.706 224.428,472.76C224.904,472.815 225.353,472.843 225.775,472.843C226.838,472.843 227.803,472.655 228.67,472.28C229.537,471.905 230.318,471.393 231.014,470.745C231.709,470.096 232.31,469.343 232.818,468.483C233.326,467.624 233.752,466.706 234.096,465.729C234.439,464.753 234.693,463.749 234.857,462.718C235.021,461.686 235.103,460.678 235.103,459.694C235.103,458.725 235.021,457.843 234.857,457.046C234.693,456.249 234.4,455.557 233.978,454.971C233.557,454.385 232.99,453.928 232.279,453.6C231.568,453.272 230.666,453.108 229.572,453.108ZM222.752,450.343L222.752,451.257C222.752,451.569 222.744,451.866 222.728,452.147C223.9,451.491 225.178,450.96 226.56,450.553C227.943,450.147 229.408,449.944 230.955,449.944C232.377,449.944 233.6,450.178 234.623,450.647C235.646,451.116 236.486,451.76 237.142,452.581C237.799,453.401 238.279,454.37 238.584,455.487C238.889,456.604 239.041,457.811 239.041,459.108C239.041,461.389 238.736,463.557 238.127,465.612C237.517,467.667 236.654,469.468 235.537,471.014C234.42,472.561 233.064,473.788 231.471,474.694C229.877,475.6 228.096,476.053 226.127,476.053C225.439,476.053 224.814,476.007 224.252,475.913C223.689,475.819 223.146,475.675 222.623,475.479C222.1,475.284 221.576,475.042 221.053,474.753C220.529,474.464 219.971,474.116 219.377,473.71L217.15,486.272L213.447,486.272L219.025,454.069C219.057,453.96 219.096,453.745 219.142,453.425C219.189,453.104 219.236,452.749 219.283,452.358C219.33,451.968 219.369,451.585 219.4,451.21C219.432,450.835 219.447,450.546 219.447,450.343L222.752,450.343Z" style="fill:rgb(99,174,0);fill-rule:nonzero;"/>
        <path d="M82.321,167.865L72.774,150.15L64.33,168.417L82.321,167.865Z" style="fill:rgb(21,183,183);"/>
        <path d="M73.215,164.543C74.422,203.931 77.69,310.572 77.69,310.572" style="fill:none;stroke:rgb(21,183,183);stroke-width:3px;stroke-linecap:square;stroke-miterlimit:10;stroke-dasharray:3,3;"/>
        <path d="M212.453,102.563L231.749,108.277L215.6,120.286L212.453,102.563Z" style="fill:rgb(21,183,183);"/>
        <path d="M84.494,134.43C84.494,134.43 180.671,117.349 217.571,110.795" style="fill:none;stroke:rgb(21,183,183);stroke-width:3px;stroke-linecap:square;stroke-miterlimit:10;stroke-dasharray:3,3;"/>
        <path d="M232.082,133.591L243.469,116.997L249.912,136.063L232.082,133.591Z" style="fill:rgb(99,174,0);"/>
        <path d="M198.835,438.932C198.835,438.932 232.85,193.589 241.492,131.261" style="fill:none;stroke:rgb(99,174,0);stroke-width:3px;stroke-linecap:square;stroke-miterlimit:10;"/>
        <path d="M367.707,127.541L377.036,109.709L357.173,112.946L367.707,127.541Z" style="fill:rgb(247,0,255);"/>
        <path d="M365.36,118.137C311.47,157.029 89.41,317.292 89.41,317.292" style="fill:none;stroke:rgb(247,0,255);stroke-width:3px;stroke-linecap:square;stroke-miterlimit:10;"/>
        <path d="M129.202,209.745L132.202,218.505L132.402,218.505L132.762,215.065L134.402,204.945L139.082,204.945L135.042,224.945L129.802,224.945L127.562,217.025L127.362,217.025L124.842,224.945L119.442,224.945L115.242,204.945L120.442,204.945L122.402,216.025L122.722,218.505L122.922,218.505L125.882,209.745L129.202,209.745Z" style="fill-rule:nonzero;"/>
        <path d="M49.701,214.945L57.141,214.945L57.141,230.545L60.181,230.545L60.181,234.945L53.861,234.945L52.941,231.985L52.781,231.985C52.168,232.999 51.248,233.839 50.021,234.505C48.795,235.172 47.435,235.505 45.941,235.505C44.928,235.505 44.001,235.372 43.161,235.105C42.321,234.839 41.608,234.399 41.021,233.785C40.435,233.172 39.981,232.345 39.661,231.305C39.341,230.265 39.181,228.959 39.181,227.385L39.181,219.345L36.901,219.345L36.901,214.945L44.381,214.945L44.381,226.305C44.381,227.932 44.641,229.105 45.161,229.825C45.681,230.545 46.501,230.905 47.621,230.905C48.608,230.905 49.495,230.612 50.281,230.025C51.068,229.439 51.621,228.719 51.941,227.865L51.941,219.345L49.701,219.345L49.701,214.945Z" style="fill:rgb(21,183,183);fill-rule:nonzero;"/>
        <path d="M124.93,400.302L132.37,400.302L132.37,415.902L135.41,415.902L135.41,420.302L129.09,420.302L128.17,417.342L128.01,417.342C127.397,418.355 126.477,419.195 125.25,419.862C124.024,420.528 122.664,420.862 121.17,420.862C120.157,420.862 119.23,420.728 118.39,420.462C117.55,420.195 116.837,419.755 116.25,419.142C115.664,418.528 115.21,417.702 114.89,416.662C114.57,415.622 114.41,414.315 114.41,412.742L114.41,404.702L112.13,404.702L112.13,400.302L119.61,400.302L119.61,411.662C119.61,413.288 119.87,414.462 120.39,415.182C120.91,415.902 121.73,416.262 122.85,416.262C123.837,416.262 124.724,415.968 125.51,415.382C126.297,414.795 126.85,414.075 127.17,413.222L127.17,404.702L124.93,404.702L124.93,400.302Z" style="fill:rgb(99,174,0);fill-rule:nonzero;"/>
        <path d="M156.946,362.902L162.13,362.902L162.13,379.83C162.13,380.022 162.141,380.262 162.162,380.55C162.183,380.838 162.21,381.142 162.242,381.462C162.274,381.782 162.311,382.096 162.354,382.406C162.397,382.715 162.439,382.987 162.482,383.222L164.626,383.222L164.626,385.302L160.37,385.302L160.05,382.838L159.922,382.838C159.453,383.648 158.754,384.326 157.826,384.87C156.898,385.414 155.826,385.686 154.61,385.686C152.199,385.686 150.423,385.008 149.282,383.654C148.141,382.299 147.57,380.192 147.57,377.334C147.57,375.99 147.762,374.8 148.146,373.766C148.53,372.731 149.079,371.867 149.794,371.174C150.509,370.48 151.367,369.952 152.37,369.59C153.373,369.227 154.493,369.046 155.73,369.046C156.178,369.046 156.578,369.056 156.93,369.078C157.282,369.099 157.607,369.131 157.906,369.174C158.205,369.216 158.487,369.275 158.754,369.35C159.021,369.424 159.314,369.504 159.634,369.59L159.634,365.046L156.946,365.046L156.946,362.902ZM155.026,383.542C156.327,383.542 157.351,383.206 158.098,382.534C158.845,381.862 159.357,380.854 159.634,379.51L159.634,372.086C159.165,371.766 158.637,371.531 158.05,371.382C157.463,371.232 156.69,371.158 155.73,371.158C154.023,371.158 152.679,371.654 151.698,372.646C150.717,373.638 150.226,375.2 150.226,377.334C150.226,378.208 150.306,379.024 150.466,379.782C150.626,380.539 150.893,381.195 151.266,381.75C151.639,382.304 152.135,382.742 152.754,383.062C153.373,383.382 154.13,383.542 155.026,383.542Z" style="fill:rgb(99,174,0);fill-rule:nonzero;"/>
        <path d="M317.928,111.997L323.112,111.997L323.112,128.925C323.112,129.117 323.123,129.357 323.144,129.645C323.166,129.933 323.192,130.237 323.224,130.557C323.256,130.877 323.294,131.192 323.336,131.501C323.379,131.81 323.422,132.082 323.464,132.317L325.608,132.317L325.608,134.397L321.352,134.397L321.032,131.933L320.904,131.933C320.435,132.744 319.736,133.421 318.808,133.965C317.88,134.509 316.808,134.781 315.592,134.781C313.182,134.781 311.406,134.104 310.264,132.749C309.123,131.394 308.552,129.288 308.552,126.429C308.552,125.085 308.744,123.896 309.128,122.861C309.512,121.826 310.062,120.962 310.776,120.269C311.491,119.576 312.35,119.048 313.352,118.685C314.355,118.322 315.475,118.141 316.712,118.141C317.16,118.141 317.56,118.152 317.912,118.173C318.264,118.194 318.59,118.226 318.888,118.269C319.187,118.312 319.47,118.37 319.736,118.445C320.003,118.52 320.296,118.6 320.616,118.685L320.616,114.141L317.928,114.141L317.928,111.997ZM316.008,132.637C317.31,132.637 318.334,132.301 319.08,131.629C319.827,130.957 320.339,129.949 320.616,128.605L320.616,121.181C320.147,120.861 319.619,120.626 319.032,120.477C318.446,120.328 317.672,120.253 316.712,120.253C315.006,120.253 313.662,120.749 312.68,121.741C311.699,122.733 311.208,124.296 311.208,126.429C311.208,127.304 311.288,128.12 311.448,128.877C311.608,129.634 311.875,130.29 312.248,130.845C312.622,131.4 313.118,131.837 313.736,132.157C314.355,132.477 315.112,132.637 316.008,132.637Z" style="fill:rgb(247,0,255);fill-rule:nonzero;"/>
        <path d="M141.786,148L146.97,148L146.97,164.928C146.97,165.12 146.981,165.36 147.002,165.648C147.024,165.936 147.05,166.24 147.082,166.56C147.114,166.88 147.152,167.195 147.194,167.504C147.237,167.813 147.28,168.085 147.322,168.32L149.466,168.32L149.466,170.4L145.21,170.4L144.89,167.936L144.762,167.936C144.293,168.747 143.594,169.424 142.666,169.968C141.738,170.512 140.666,170.784 139.45,170.784C137.04,170.784 135.264,170.107 134.122,168.752C132.981,167.397 132.41,165.291 132.41,162.432C132.41,161.088 132.602,159.899 132.986,158.864C133.37,157.829 133.92,156.965 134.634,156.272C135.349,155.579 136.208,155.051 137.21,154.688C138.213,154.325 139.333,154.144 140.57,154.144C141.018,154.144 141.418,154.155 141.77,154.176C142.122,154.197 142.448,154.229 142.746,154.272C143.045,154.315 143.328,154.373 143.594,154.448C143.861,154.523 144.154,154.603 144.474,154.688L144.474,150.144L141.786,150.144L141.786,148ZM139.866,168.64C141.168,168.64 142.192,168.304 142.938,167.632C143.685,166.96 144.197,165.952 144.474,164.608L144.474,157.184C144.005,156.864 143.477,156.629 142.89,156.48C142.304,156.331 141.53,156.256 140.57,156.256C138.864,156.256 137.52,156.752 136.538,157.744C135.557,158.736 135.066,160.299 135.066,162.432C135.066,163.307 135.146,164.123 135.306,164.88C135.466,165.637 135.733,166.293 136.106,166.848C136.48,167.403 136.976,167.84 137.594,168.16C138.213,168.48 138.97,168.64 139.866,168.64Z" style="fill:rgb(21,183,183);fill-rule:nonzero;"/>
        <path d="M285.472,204.945L292.912,204.945L292.912,220.545L295.952,220.545L295.952,224.945L289.632,224.945L288.712,221.985L288.552,221.985C287.939,222.999 287.019,223.839 285.792,224.505C284.566,225.172 283.206,225.505 281.712,225.505C280.699,225.505 279.772,225.372 278.932,225.105C278.092,224.839 277.379,224.399 276.792,223.785C276.206,223.172 275.752,222.345 275.432,221.305C275.112,220.265 274.952,218.959 274.952,217.385L274.952,209.345L272.672,209.345L272.672,204.945L280.152,204.945L280.152,216.305C280.152,217.932 280.412,219.105 280.932,219.825C281.452,220.545 282.272,220.905 283.392,220.905C284.379,220.905 285.266,220.612 286.052,220.025C286.839,219.439 287.392,218.719 287.712,217.865L287.712,209.345L285.472,209.345L285.472,204.945Z" style="fill:rgb(247,0,255);fill-rule:nonzero;"/>
        <path d="M318.992,87.072L319.272,87.072L323.752,73.112L329.352,73.112L321.712,93.112L316.152,93.112L307.552,73.112L313.592,73.112L318.992,87.072Z" style="fill:rgb(247,0,255);fill-rule:nonzero;"/>
        <path d="M143.698,104.334L143.978,104.334L148.458,90.374L154.058,90.374L146.418,110.374L140.858,110.374L132.258,90.374L138.298,90.374L143.698,104.334Z" style="fill:rgb(21,183,183);fill-rule:nonzero;"/>
        <path d="M239.655,334.317L239.935,334.317L244.415,320.357L250.015,320.357L242.375,340.357L236.815,340.357L228.215,320.357L234.255,320.357L239.655,334.317Z" style="fill:rgb(99,174,0);fill-rule:nonzero;"/>
    </g>
</svg>
