<?xml version="1.0" encoding="UTF-8" standalone="no"?>
<!DOCTYPE svg PUBLIC "-//W3C//DTD SVG 1.1//EN" "http://www.w3.org/Graphics/SVG/1.1/DTD/svg11.dtd">
<svg width="100%" height="100%" viewBox="0 0 1297 703" version="1.1" xmlns="http://www.w3.org/2000/svg" xmlns:xlink="http://www.w3.org/1999/xlink" xml:space="preserve" xmlns:serif="http://www.serif.com/" style="fill-rule:evenodd;clip-rule:evenodd;stroke-linejoin:round;stroke-miterlimit:10;">
    <rect id="Spatial-Databases-2" serif:id="Spatial Databases 2" x="-2139.91" y="-4550" width="3858" height="5937" style="fill:none;"/>
    <g transform="matrix(1,0,0,1,-10382.2,-4391.53)">
        <g transform="matrix(96,0,0,96,10415.2,4742.11)">
            <path d="M0.1,-0.693C0.125,-0.699 0.153,-0.703 0.182,-0.705C0.211,-0.707 0.24,-0.708 0.269,-0.708C0.3,-0.708 0.331,-0.705 0.363,-0.699C0.394,-0.693 0.423,-0.682 0.449,-0.666C0.475,-0.65 0.496,-0.628 0.513,-0.6C0.529,-0.572 0.537,-0.536 0.537,-0.493C0.537,-0.45 0.529,-0.414 0.514,-0.385C0.499,-0.356 0.478,-0.332 0.453,-0.314C0.428,-0.295 0.399,-0.282 0.366,-0.274C0.333,-0.266 0.3,-0.262 0.265,-0.262L0.249,-0.262C0.241,-0.262 0.233,-0.262 0.225,-0.263C0.216,-0.263 0.208,-0.263 0.2,-0.264C0.192,-0.265 0.186,-0.265 0.183,-0.266L0.183,-0L0.1,-0L0.1,-0.693ZM0.271,-0.636C0.254,-0.636 0.237,-0.636 0.221,-0.635C0.205,-0.634 0.192,-0.633 0.183,-0.63L0.183,-0.34C0.186,-0.339 0.192,-0.338 0.199,-0.338C0.206,-0.337 0.214,-0.337 0.222,-0.337C0.23,-0.336 0.238,-0.336 0.245,-0.336L0.261,-0.336C0.284,-0.336 0.306,-0.338 0.329,-0.343C0.351,-0.347 0.371,-0.355 0.389,-0.366C0.407,-0.377 0.422,-0.393 0.433,-0.414C0.444,-0.435 0.449,-0.461 0.449,-0.493C0.449,-0.52 0.444,-0.543 0.434,-0.562C0.423,-0.58 0.409,-0.595 0.393,-0.606C0.376,-0.616 0.356,-0.624 0.335,-0.629C0.314,-0.634 0.292,-0.636 0.271,-0.636Z" style="fill-rule:nonzero;"/>
        </g>
        <g transform="matrix(96,0,0,96,10472.8,4742.11)">
            <path d="M0.048,-0.35C0.048,-0.466 0.069,-0.555 0.11,-0.618C0.151,-0.681 0.214,-0.712 0.299,-0.712C0.346,-0.712 0.385,-0.703 0.418,-0.686C0.45,-0.669 0.476,-0.644 0.496,-0.613C0.516,-0.581 0.53,-0.543 0.539,-0.499C0.548,-0.454 0.552,-0.405 0.552,-0.35C0.552,-0.234 0.532,-0.145 0.491,-0.082C0.45,-0.019 0.386,0.012 0.299,0.012C0.253,0.012 0.214,0.003 0.182,-0.014C0.15,-0.031 0.124,-0.056 0.104,-0.088C0.084,-0.119 0.07,-0.157 0.061,-0.202C0.052,-0.246 0.048,-0.295 0.048,-0.35ZM0.136,-0.35C0.136,-0.311 0.139,-0.275 0.144,-0.24C0.149,-0.205 0.157,-0.175 0.17,-0.149C0.183,-0.122 0.199,-0.101 0.22,-0.086C0.241,-0.07 0.267,-0.062 0.299,-0.062C0.356,-0.062 0.398,-0.085 0.425,-0.132C0.451,-0.179 0.464,-0.251 0.464,-0.35C0.464,-0.388 0.462,-0.425 0.457,-0.46C0.452,-0.495 0.443,-0.525 0.43,-0.552C0.417,-0.578 0.4,-0.599 0.379,-0.615C0.358,-0.63 0.331,-0.638 0.299,-0.638C0.242,-0.638 0.201,-0.615 0.175,-0.568C0.149,-0.521 0.136,-0.448 0.136,-0.35Z" style="fill-rule:nonzero;"/>
        </g>
        <g transform="matrix(96,0,0,96,10530.4,4742.11)">
            <path d="M0.06,-0.7L0.54,-0.7L0.54,-0.626L0.341,-0.626L0.341,-0.074L0.54,-0.074L0.54,-0L0.06,-0L0.06,-0.074L0.258,-0.074L0.258,-0.626L0.06,-0.626L0.06,-0.7Z" style="fill-rule:nonzero;"/>
        </g>
        <g transform="matrix(96,0,0,96,10588,4742.11)">
            <path d="M0.196,-0.438L0.142,-0.539L0.138,-0.539L0.148,-0.438L0.148,-0L0.07,-0L0.07,-0.7L0.124,-0.7L0.406,-0.264L0.458,-0.168L0.463,-0.168L0.452,-0.264L0.452,-0.7L0.53,-0.7L0.53,-0L0.476,-0L0.196,-0.438Z" style="fill-rule:nonzero;"/>
        </g>
        <g transform="matrix(96,0,0,96,10645.6,4742.11)">
            <path d="M0.04,-0.7L0.56,-0.7L0.56,-0.517L0.486,-0.517L0.486,-0.626L0.341,-0.626L0.341,-0.074L0.451,-0.074L0.451,-0L0.148,-0L0.148,-0.074L0.258,-0.074L0.258,-0.626L0.114,-0.626L0.114,-0.517L0.04,-0.517L0.04,-0.7Z" style="fill-rule:nonzero;"/>
        </g>
        <g transform="matrix(96,0,0,96,10760.8,4742.11)">
            <path d="M0.432,0.212C0.387,0.201 0.345,0.184 0.307,0.162C0.268,0.139 0.234,0.11 0.205,0.074C0.175,0.038 0.153,-0.006 0.136,-0.058C0.119,-0.11 0.11,-0.172 0.11,-0.243C0.11,-0.314 0.119,-0.376 0.136,-0.429C0.153,-0.482 0.177,-0.527 0.206,-0.564C0.235,-0.6 0.27,-0.63 0.309,-0.653C0.347,-0.675 0.389,-0.691 0.432,-0.7L0.457,-0.637C0.418,-0.626 0.382,-0.611 0.349,-0.593C0.316,-0.574 0.288,-0.55 0.265,-0.52C0.241,-0.489 0.223,-0.452 0.21,-0.407C0.197,-0.362 0.19,-0.307 0.19,-0.243C0.19,-0.178 0.198,-0.123 0.214,-0.078C0.229,-0.032 0.25,0.006 0.276,0.037C0.301,0.067 0.33,0.091 0.362,0.108C0.393,0.125 0.425,0.136 0.457,0.143L0.432,0.212Z" style="fill:rgb(255,0,0);fill-rule:nonzero;"/>
        </g>
        <g transform="matrix(96,0,0,96,10831.9,4742.11)">
            <rect x="0.088" y="-0.325" width="0.424" height="0.074" style="fill-rule:nonzero;"/>
        </g>
        <g transform="matrix(96,0,0,96,10889.5,4742.11)">
            <path d="M0.5,-0.523C0.5,-0.462 0.471,-0.393 0.413,-0.318C0.355,-0.243 0.274,-0.161 0.17,-0.072L0.522,-0.072L0.522,-0L0.078,-0L0.078,-0.072C0.091,-0.084 0.108,-0.1 0.13,-0.119C0.152,-0.138 0.176,-0.16 0.201,-0.184C0.226,-0.207 0.252,-0.233 0.279,-0.26C0.305,-0.287 0.329,-0.315 0.35,-0.344C0.371,-0.373 0.389,-0.401 0.402,-0.43C0.415,-0.459 0.422,-0.486 0.422,-0.513C0.422,-0.553 0.411,-0.585 0.391,-0.608C0.37,-0.631 0.338,-0.642 0.296,-0.642C0.26,-0.642 0.23,-0.638 0.205,-0.63C0.18,-0.622 0.158,-0.61 0.138,-0.595L0.104,-0.65C0.134,-0.671 0.166,-0.687 0.2,-0.697C0.233,-0.707 0.27,-0.712 0.31,-0.712C0.373,-0.712 0.42,-0.695 0.452,-0.661C0.484,-0.627 0.5,-0.581 0.5,-0.523Z" style="fill-rule:nonzero;"/>
        </g>
        <g transform="matrix(96,0,0,96,10947.1,4742.11)">
            <path d="M0.256,-0.058C0.281,-0.058 0.305,-0.061 0.326,-0.068C0.347,-0.074 0.366,-0.084 0.381,-0.097C0.396,-0.11 0.407,-0.126 0.416,-0.145C0.424,-0.164 0.428,-0.187 0.428,-0.213C0.428,-0.261 0.411,-0.298 0.377,-0.323C0.342,-0.347 0.295,-0.36 0.236,-0.36L0.142,-0.355L0.142,-0.7L0.485,-0.7L0.485,-0.628L0.217,-0.628L0.217,-0.425L0.267,-0.427C0.341,-0.427 0.399,-0.409 0.442,-0.373C0.485,-0.337 0.506,-0.286 0.506,-0.219C0.506,-0.182 0.5,-0.149 0.487,-0.12C0.474,-0.091 0.456,-0.067 0.433,-0.048C0.41,-0.028 0.384,-0.013 0.353,-0.003C0.321,0.007 0.288,0.012 0.251,0.012C0.231,0.012 0.212,0.011 0.194,0.008C0.176,0.005 0.16,0.001 0.145,-0.004C0.13,-0.008 0.117,-0.013 0.107,-0.018C0.095,-0.023 0.088,-0.027 0.083,-0.031L0.115,-0.096C0.126,-0.089 0.144,-0.081 0.167,-0.072C0.19,-0.063 0.22,-0.058 0.256,-0.058Z" style="fill-rule:nonzero;"/>
        </g>
        <g transform="matrix(96,0,0,96,11004.7,4742.11)">
            <path d="M0.233,-0.055C0.233,-0.076 0.239,-0.093 0.251,-0.105C0.263,-0.116 0.279,-0.122 0.299,-0.122C0.32,-0.122 0.337,-0.116 0.349,-0.105C0.361,-0.093 0.367,-0.076 0.367,-0.055C0.367,-0.036 0.361,-0.02 0.349,-0.007C0.337,0.006 0.32,0.012 0.299,0.012C0.279,0.012 0.263,0.006 0.251,-0.007C0.239,-0.02 0.233,-0.036 0.233,-0.055Z" style="fill-rule:nonzero;"/>
        </g>
        <g transform="matrix(96,0,0,96,11062.3,4742.11)">
            <path d="M0.256,-0.058C0.281,-0.058 0.305,-0.061 0.326,-0.068C0.347,-0.074 0.366,-0.084 0.381,-0.097C0.396,-0.11 0.407,-0.126 0.416,-0.145C0.424,-0.164 0.428,-0.187 0.428,-0.213C0.428,-0.261 0.411,-0.298 0.377,-0.323C0.342,-0.347 0.295,-0.36 0.236,-0.36L0.142,-0.355L0.142,-0.7L0.485,-0.7L0.485,-0.628L0.217,-0.628L0.217,-0.425L0.267,-0.427C0.341,-0.427 0.399,-0.409 0.442,-0.373C0.485,-0.337 0.506,-0.286 0.506,-0.219C0.506,-0.182 0.5,-0.149 0.487,-0.12C0.474,-0.091 0.456,-0.067 0.433,-0.048C0.41,-0.028 0.384,-0.013 0.353,-0.003C0.321,0.007 0.288,0.012 0.251,0.012C0.231,0.012 0.212,0.011 0.194,0.008C0.176,0.005 0.16,0.001 0.145,-0.004C0.13,-0.008 0.117,-0.013 0.107,-0.018C0.095,-0.023 0.088,-0.027 0.083,-0.031L0.115,-0.096C0.126,-0.089 0.144,-0.081 0.167,-0.072C0.19,-0.063 0.22,-0.058 0.256,-0.058Z" style="fill-rule:nonzero;"/>
        </g>
        <g transform="matrix(96,0,0,96,11177.5,4742.11)">
            <path d="M0.58,-0.218L0.445,-0.218L0.445,-0L0.367,-0L0.367,-0.218L0.044,-0.218L0.044,-0.276L0.379,-0.7L0.445,-0.7L0.445,-0.284L0.58,-0.284L0.58,-0.218ZM0.367,-0.575L0.136,-0.284L0.367,-0.284L0.367,-0.575Z" style="fill-rule:nonzero;"/>
        </g>
        <g transform="matrix(96,0,0,96,11235.1,4742.11)">
            <path d="M0.055,-0.35C0.055,-0.407 0.06,-0.458 0.07,-0.503C0.08,-0.548 0.095,-0.586 0.115,-0.617C0.135,-0.648 0.16,-0.671 0.191,-0.688C0.222,-0.704 0.258,-0.712 0.3,-0.712C0.345,-0.712 0.383,-0.704 0.414,-0.688C0.445,-0.672 0.47,-0.649 0.489,-0.618C0.508,-0.587 0.522,-0.55 0.531,-0.505C0.54,-0.46 0.544,-0.408 0.544,-0.35C0.544,-0.293 0.539,-0.243 0.529,-0.198C0.519,-0.153 0.504,-0.115 0.484,-0.084C0.464,-0.053 0.439,-0.029 0.408,-0.013C0.377,0.004 0.341,0.012 0.299,0.012C0.255,0.012 0.218,0.003 0.187,-0.015C0.156,-0.032 0.13,-0.057 0.111,-0.089C0.091,-0.121 0.077,-0.159 0.068,-0.204C0.059,-0.248 0.055,-0.297 0.055,-0.35ZM0.462,-0.35C0.462,-0.385 0.46,-0.419 0.456,-0.451L0.159,-0.18C0.17,-0.142 0.187,-0.112 0.21,-0.089C0.233,-0.066 0.262,-0.055 0.299,-0.055C0.358,-0.055 0.4,-0.079 0.425,-0.128C0.45,-0.177 0.462,-0.251 0.462,-0.35ZM0.138,-0.35C0.138,-0.333 0.139,-0.317 0.14,-0.302C0.141,-0.287 0.142,-0.272 0.143,-0.257L0.441,-0.527C0.43,-0.563 0.413,-0.592 0.391,-0.613C0.368,-0.634 0.338,-0.645 0.3,-0.645C0.241,-0.645 0.199,-0.62 0.175,-0.572C0.15,-0.523 0.138,-0.449 0.138,-0.35Z" style="fill-rule:nonzero;"/>
        </g>
        <g transform="matrix(96,0,0,96,11292.7,4742.11)">
            <path d="M0.233,-0.055C0.233,-0.076 0.239,-0.093 0.251,-0.105C0.263,-0.116 0.279,-0.122 0.299,-0.122C0.32,-0.122 0.337,-0.116 0.349,-0.105C0.361,-0.093 0.367,-0.076 0.367,-0.055C0.367,-0.036 0.361,-0.02 0.349,-0.007C0.337,0.006 0.32,0.012 0.299,0.012C0.279,0.012 0.263,0.006 0.251,-0.007C0.239,-0.02 0.233,-0.036 0.233,-0.055Z" style="fill-rule:nonzero;"/>
        </g>
        <g transform="matrix(96,0,0,96,11350.3,4742.11)">
            <path d="M0.075,-0.17C0.075,-0.251 0.124,-0.316 0.222,-0.365C0.203,-0.375 0.186,-0.385 0.17,-0.396C0.154,-0.407 0.14,-0.419 0.129,-0.432C0.117,-0.445 0.108,-0.461 0.101,-0.478C0.094,-0.495 0.091,-0.515 0.091,-0.538C0.091,-0.563 0.096,-0.586 0.106,-0.607C0.116,-0.628 0.13,-0.647 0.149,-0.662C0.168,-0.677 0.19,-0.69 0.217,-0.699C0.244,-0.708 0.273,-0.712 0.306,-0.712C0.337,-0.712 0.365,-0.708 0.39,-0.7C0.415,-0.692 0.436,-0.681 0.454,-0.667C0.471,-0.652 0.485,-0.635 0.494,-0.616C0.503,-0.597 0.508,-0.576 0.508,-0.554C0.508,-0.516 0.499,-0.481 0.48,-0.45C0.46,-0.418 0.43,-0.389 0.388,-0.363C0.407,-0.353 0.425,-0.342 0.442,-0.331C0.459,-0.32 0.473,-0.307 0.486,-0.293C0.498,-0.279 0.507,-0.263 0.515,-0.246C0.522,-0.228 0.525,-0.208 0.525,-0.185C0.525,-0.157 0.52,-0.131 0.51,-0.107C0.5,-0.082 0.485,-0.061 0.466,-0.044C0.446,-0.027 0.422,-0.013 0.393,-0.003C0.364,0.007 0.331,0.012 0.293,0.012C0.258,0.012 0.226,0.007 0.199,-0.003C0.172,-0.013 0.149,-0.026 0.131,-0.043C0.112,-0.06 0.098,-0.079 0.089,-0.101C0.08,-0.123 0.075,-0.146 0.075,-0.17ZM0.446,-0.18C0.446,-0.199 0.442,-0.217 0.433,-0.232C0.424,-0.247 0.411,-0.26 0.397,-0.272C0.382,-0.284 0.364,-0.295 0.345,-0.305C0.326,-0.315 0.306,-0.325 0.285,-0.335C0.237,-0.312 0.203,-0.286 0.183,-0.258C0.162,-0.23 0.152,-0.204 0.152,-0.179C0.152,-0.162 0.155,-0.147 0.162,-0.132C0.168,-0.117 0.177,-0.103 0.19,-0.092C0.202,-0.081 0.217,-0.072 0.236,-0.065C0.254,-0.058 0.275,-0.055 0.299,-0.055C0.318,-0.055 0.337,-0.058 0.355,-0.063C0.372,-0.068 0.388,-0.076 0.402,-0.087C0.415,-0.097 0.426,-0.11 0.434,-0.126C0.442,-0.141 0.446,-0.159 0.446,-0.18ZM0.169,-0.541C0.169,-0.522 0.173,-0.506 0.182,-0.491C0.191,-0.476 0.202,-0.463 0.217,-0.452C0.231,-0.44 0.247,-0.429 0.266,-0.42C0.285,-0.41 0.304,-0.4 0.325,-0.391C0.36,-0.414 0.387,-0.438 0.405,-0.461C0.422,-0.484 0.431,-0.51 0.431,-0.538C0.431,-0.555 0.428,-0.57 0.421,-0.583C0.413,-0.596 0.404,-0.607 0.393,-0.616C0.381,-0.625 0.367,-0.632 0.352,-0.638C0.337,-0.643 0.321,-0.645 0.304,-0.645C0.283,-0.645 0.264,-0.642 0.247,-0.636C0.23,-0.63 0.216,-0.622 0.205,-0.612C0.194,-0.602 0.185,-0.591 0.179,-0.579C0.172,-0.566 0.169,-0.554 0.169,-0.541Z" style="fill-rule:nonzero;"/>
        </g>
        <g transform="matrix(96,0,0,96,11421.3,4742.11)">
            <path d="M0.143,0.143C0.175,0.136 0.207,0.125 0.239,0.108C0.27,0.091 0.299,0.067 0.325,0.037C0.35,0.006 0.371,-0.032 0.387,-0.078C0.402,-0.123 0.41,-0.178 0.41,-0.243C0.41,-0.307 0.404,-0.362 0.391,-0.407C0.378,-0.452 0.359,-0.489 0.336,-0.52C0.312,-0.55 0.284,-0.574 0.251,-0.593C0.218,-0.611 0.182,-0.626 0.143,-0.637L0.168,-0.7C0.211,-0.691 0.253,-0.675 0.292,-0.653C0.331,-0.63 0.365,-0.6 0.394,-0.564C0.423,-0.527 0.447,-0.482 0.464,-0.429C0.481,-0.376 0.49,-0.314 0.49,-0.243C0.49,-0.172 0.482,-0.11 0.465,-0.058C0.448,-0.006 0.425,0.038 0.396,0.074C0.367,0.11 0.332,0.139 0.294,0.162C0.255,0.184 0.213,0.201 0.168,0.212L0.143,0.143Z" style="fill:rgb(0,106,255);fill-rule:nonzero;"/>
        </g>
    </g>
    <path d="M175.487,128.06L175.487,126.32L203.747,109.1L206.027,112.82L182.207,126.92L206.087,140.78L203.807,144.38L175.487,128.06Z" style="fill:rgb(255,0,0);fill-rule:nonzero;"/>
    <path d="M215.927,104.36L225.887,104.36L225.887,136.28C225.887,138.72 226.297,140.44 227.117,141.44C227.937,142.44 229.147,142.94 230.747,142.94C231.867,142.94 232.937,142.74 233.957,142.34C234.977,141.94 236.107,141.26 237.347,140.3L239.507,143.6C238.867,144.16 238.167,144.66 237.407,145.1C236.647,145.54 235.867,145.91 235.067,146.21C234.267,146.51 233.467,146.74 232.667,146.9C231.867,147.06 231.127,147.14 230.447,147.14C228.967,147.14 227.647,146.95 226.487,146.57C225.327,146.19 224.357,145.58 223.577,144.74C222.797,143.9 222.207,142.79 221.807,141.41C221.407,140.03 221.207,138.32 221.207,136.28L221.207,108.38L215.927,108.38L215.927,104.36Z" style="fill:rgb(255,0,0);fill-rule:nonzero;"/>
    <path d="M276.527,142.58C275.807,143.22 274.957,143.82 273.977,144.38C272.997,144.94 271.927,145.42 270.767,145.82C269.607,146.22 268.397,146.53 267.137,146.75C265.877,146.97 264.607,147.08 263.327,147.08C260.927,147.08 258.807,146.71 256.967,145.97C255.127,145.23 253.587,144.17 252.347,142.79C251.107,141.41 250.167,139.76 249.527,137.84C248.887,135.92 248.567,133.76 248.567,131.36C248.567,128.84 248.917,126.6 249.617,124.64C250.317,122.68 251.327,121.04 252.647,119.72C253.967,118.4 255.567,117.39 257.447,116.69C259.327,115.99 261.427,115.64 263.747,115.64C265.427,115.64 267.087,115.86 268.727,116.3C270.367,116.74 271.817,117.57 273.077,118.79C274.337,120.01 275.307,121.69 275.987,123.83C276.667,125.97 276.907,128.74 276.707,132.14L253.487,132.14C253.487,135.74 254.457,138.43 256.397,140.21C258.337,141.99 260.927,142.88 264.167,142.88C265.247,142.88 266.317,142.75 267.377,142.49C268.437,142.23 269.447,141.92 270.407,141.56C271.367,141.2 272.217,140.8 272.957,140.36C273.697,139.92 274.267,139.52 274.667,139.16L276.527,142.58ZM263.867,119.6C262.547,119.6 261.297,119.74 260.117,120.02C258.937,120.3 257.897,120.77 256.997,121.43C256.097,122.09 255.357,122.95 254.777,124.01C254.197,125.07 253.827,126.38 253.667,127.94L272.327,127.94C272.127,125.3 271.277,123.25 269.777,121.79C268.277,120.33 266.307,119.6 263.867,119.6Z" style="fill:rgb(255,0,0);fill-rule:nonzero;"/>
    <path d="M286.067,146.36L286.067,142.34L293.207,142.34L293.207,120.38L286.067,120.38L286.067,116.36L293.207,116.36L293.207,114.68C293.207,110.92 294.187,108.2 296.147,106.52C298.107,104.84 300.907,104 304.547,104C305.867,104 307.047,104.08 308.087,104.24C309.127,104.4 310.247,104.72 311.447,105.2L310.367,109.1C309.327,108.66 308.327,108.37 307.367,108.23C306.407,108.09 305.527,108.02 304.727,108.02C302.087,108.02 300.287,108.67 299.327,109.97C298.367,111.27 297.887,113.4 297.887,116.36L310.307,116.36L310.307,120.38L297.887,120.38L297.887,142.34L310.307,142.34L310.307,146.36L286.067,146.36Z" style="fill:rgb(255,0,0);fill-rule:nonzero;"/>
    <path d="M318.647,116.36L325.787,116.36L325.787,110.42L330.467,109.1L330.467,116.36L346.487,116.36L346.487,120.38L330.467,120.38L330.467,134.54C330.467,137.46 331.177,139.62 332.597,141.02C334.017,142.42 336.047,143.12 338.687,143.12C340.487,143.12 342.057,142.78 343.397,142.1C344.737,141.42 345.947,140.68 347.027,139.88L348.587,143.42C347.187,144.54 345.517,145.44 343.577,146.12C341.637,146.8 339.647,147.14 337.607,147.14C336.007,147.14 334.497,146.91 333.077,146.45C331.657,145.99 330.407,145.28 329.327,144.32C328.247,143.36 327.387,142.13 326.747,140.63C326.107,139.13 325.787,137.34 325.787,135.26L325.787,120.38L318.647,120.38L318.647,116.36Z" style="fill:rgb(255,0,0);fill-rule:nonzero;"/>
    <path d="M394.547,126.86C394.547,126.5 394.537,126.03 394.517,125.45C394.497,124.87 394.467,124.27 394.427,123.65C394.387,123.03 394.337,122.42 394.277,121.82C394.217,121.22 394.147,120.7 394.067,120.26L390.047,120.26L390.047,116.36L398.027,116.36L398.627,120.56L398.927,120.56C400.007,119.16 401.377,117.99 403.037,117.05C404.697,116.11 406.727,115.64 409.127,115.64C413.407,115.64 416.627,116.82 418.787,119.18C420.947,121.54 422.027,125.4 422.027,130.76C422.027,133.28 421.657,135.55 420.917,137.57C420.177,139.59 419.127,141.3 417.767,142.7C416.407,144.1 414.767,145.18 412.847,145.94C410.927,146.7 408.807,147.08 406.487,147.08C405.647,147.08 404.897,147.05 404.237,146.99C403.577,146.93 402.977,146.85 402.437,146.75C401.897,146.65 401.367,146.52 400.847,146.36C400.327,146.2 399.767,146 399.167,145.76L399.167,158.36L394.547,158.36L394.547,126.86ZM408.347,120.02C407.147,120.02 406.017,120.24 404.957,120.68C403.897,121.12 402.957,121.7 402.137,122.42C401.317,123.14 400.647,123.94 400.127,124.82C399.607,125.7 399.287,126.58 399.167,127.46L399.167,141.14C400.047,141.74 401.037,142.21 402.137,142.55C403.237,142.89 404.687,143.06 406.487,143.06C409.687,143.06 412.247,142.01 414.167,139.91C416.087,137.81 417.047,134.74 417.047,130.7C417.047,127.3 416.377,124.67 415.037,122.81C413.697,120.95 411.467,120.02 408.347,120.02Z" style="fill:rgb(255,0,0);fill-rule:nonzero;"/>
    <path d="M431.267,118.7C432.987,117.7 434.927,116.98 437.087,116.54C439.247,116.1 441.367,115.88 443.447,115.88C445.487,115.88 447.157,116.2 448.457,116.84C449.757,117.48 450.777,118.31 451.517,119.33C452.257,120.35 452.757,121.51 453.017,122.81C453.277,124.11 453.407,125.42 453.407,126.74C453.407,128.26 453.367,129.88 453.287,131.6C453.207,133.32 453.147,135.04 453.107,136.76C453.107,138.76 453.227,140.66 453.467,142.46L457.487,142.46L457.487,146.36L449.507,146.36L448.967,141.86L448.667,141.86C448.427,142.22 448.067,142.68 447.587,143.24C447.107,143.8 446.477,144.35 445.697,144.89C444.917,145.43 443.967,145.9 442.847,146.3C441.727,146.7 440.407,146.9 438.887,146.9C435.927,146.9 433.587,146.14 431.867,144.62C430.147,143.1 429.287,141.02 429.287,138.38C429.287,136.34 429.737,134.64 430.637,133.28C431.537,131.92 432.827,130.88 434.507,130.16C436.187,129.44 438.217,129.02 440.597,128.9C442.977,128.78 445.647,128.94 448.607,129.38C448.807,127.54 448.837,126.01 448.697,124.79C448.557,123.57 448.237,122.6 447.737,121.88C447.237,121.16 446.537,120.65 445.637,120.35C444.737,120.05 443.627,119.9 442.307,119.9C440.507,119.9 438.787,120.15 437.147,120.65C435.507,121.15 434.047,121.66 432.767,122.18L431.267,118.7ZM440.087,142.88C441.207,142.88 442.247,142.7 443.207,142.34C444.167,141.98 445.007,141.52 445.727,140.96C446.447,140.4 447.047,139.79 447.527,139.13C448.007,138.47 448.367,137.84 448.607,137.24L448.607,133.04C446.527,132.68 444.607,132.5 442.847,132.5C441.087,132.5 439.567,132.69 438.287,133.07C437.007,133.45 436.007,134.04 435.287,134.84C434.567,135.64 434.207,136.68 434.207,137.96C434.207,139.28 434.657,140.43 435.557,141.41C436.457,142.39 437.967,142.88 440.087,142.88Z" style="fill:rgb(255,0,0);fill-rule:nonzero;"/>
    <path d="M464.747,146.36L464.747,142.34L472.847,142.34L472.847,120.38L464.747,120.38L464.747,116.36L475.967,116.36L476.927,120.26L477.227,120.26C478.587,119.02 480.107,117.96 481.787,117.08C483.467,116.2 485.467,115.76 487.787,115.76C489.147,115.76 490.237,116.02 491.057,116.54C491.877,117.06 492.517,117.82 492.977,118.82C493.437,119.82 493.747,121.03 493.907,122.45C494.067,123.87 494.147,125.48 494.147,127.28L489.947,127.34C489.947,124.78 489.697,122.9 489.197,121.7C488.697,120.5 487.787,119.9 486.467,119.9C485.227,119.9 484.107,120.08 483.107,120.44C482.107,120.8 481.237,121.24 480.497,121.76C479.757,122.28 479.127,122.8 478.607,123.32C478.087,123.84 477.707,124.28 477.467,124.64L477.467,142.34L488.987,142.34L488.987,146.36L464.747,146.36Z" style="fill:rgb(255,0,0);fill-rule:nonzero;"/>
    <path d="M528.527,142.58C527.807,143.22 526.957,143.82 525.977,144.38C524.997,144.94 523.927,145.42 522.767,145.82C521.607,146.22 520.397,146.53 519.137,146.75C517.877,146.97 516.607,147.08 515.327,147.08C512.927,147.08 510.807,146.71 508.967,145.97C507.127,145.23 505.587,144.17 504.347,142.79C503.107,141.41 502.167,139.76 501.527,137.84C500.887,135.92 500.567,133.76 500.567,131.36C500.567,128.84 500.917,126.6 501.617,124.64C502.317,122.68 503.327,121.04 504.647,119.72C505.967,118.4 507.567,117.39 509.447,116.69C511.327,115.99 513.427,115.64 515.747,115.64C517.427,115.64 519.087,115.86 520.727,116.3C522.367,116.74 523.817,117.57 525.077,118.79C526.337,120.01 527.307,121.69 527.987,123.83C528.667,125.97 528.907,128.74 528.707,132.14L505.487,132.14C505.487,135.74 506.457,138.43 508.397,140.21C510.337,141.99 512.927,142.88 516.167,142.88C517.247,142.88 518.317,142.75 519.377,142.49C520.437,142.23 521.447,141.92 522.407,141.56C523.367,141.2 524.217,140.8 524.957,140.36C525.697,139.92 526.267,139.52 526.667,139.16L528.527,142.58ZM515.867,119.6C514.547,119.6 513.297,119.74 512.117,120.02C510.937,120.3 509.897,120.77 508.997,121.43C508.097,122.09 507.357,122.95 506.777,124.01C506.197,125.07 505.827,126.38 505.667,127.94L524.327,127.94C524.127,125.3 523.277,123.25 521.777,121.79C520.277,120.33 518.307,119.6 515.867,119.6Z" style="fill:rgb(255,0,0);fill-rule:nonzero;"/>
    <path d="M538.367,126.86C538.367,126.5 538.357,126.03 538.337,125.45C538.317,124.87 538.287,124.27 538.247,123.65C538.207,123.03 538.157,122.42 538.097,121.82C538.037,121.22 537.967,120.7 537.887,120.26L533.867,120.26L533.867,116.36L541.907,116.36L542.447,121.22L542.747,121.22C543.147,120.54 543.677,119.87 544.337,119.21C544.997,118.55 545.767,117.95 546.647,117.41C547.527,116.87 548.507,116.44 549.587,116.12C550.667,115.8 551.807,115.64 553.007,115.64C554.847,115.64 556.477,115.84 557.897,116.24C559.317,116.64 560.497,117.35 561.437,118.37C562.377,119.39 563.087,120.77 563.567,122.51C564.047,124.25 564.287,126.46 564.287,129.14L564.287,146.36L559.607,146.36L559.607,130.04C559.607,126.72 559.067,124.22 557.987,122.54C556.907,120.86 554.947,120.02 552.107,120.02C551.067,120.02 550.057,120.23 549.077,120.65C548.097,121.07 547.207,121.62 546.407,122.3C545.607,122.98 544.907,123.77 544.307,124.67C543.707,125.57 543.267,126.52 542.987,127.52L542.987,146.36L538.367,146.36L538.367,126.86Z" style="fill:rgb(255,0,0);fill-rule:nonzero;"/>
    <path d="M573.767,144.38L571.487,140.78L595.367,126.92L571.547,112.82L573.827,109.1L602.087,126.32L602.087,128.06L573.767,144.38Z" style="fill:rgb(255,0,0);fill-rule:nonzero;"/>
    <path d="M305.452,665.006L305.452,663.266L333.712,646.046L335.992,649.766L312.172,663.866L336.052,677.726L333.772,681.326L305.452,665.006Z" style="fill:rgb(0,204,0);fill-rule:nonzero;"/>
    <path d="M365.032,675.206C365.032,673.926 364.532,672.936 363.532,672.236C362.532,671.536 361.292,670.976 359.812,670.556C358.332,670.136 356.722,669.746 354.982,669.386C353.242,669.026 351.632,668.546 350.152,667.946C348.672,667.346 347.432,666.536 346.432,665.516C345.432,664.496 344.932,663.066 344.932,661.226C344.932,659.706 345.262,658.406 345.922,657.326C346.582,656.246 347.452,655.356 348.532,654.656C349.612,653.956 350.872,653.436 352.312,653.096C353.752,652.756 355.252,652.586 356.812,652.586C359.612,652.586 362.022,652.936 364.042,653.636C366.062,654.336 367.672,655.066 368.872,655.826L366.952,659.606C365.632,658.886 364.202,658.196 362.662,657.536C361.122,656.876 359.192,656.546 356.872,656.546C355.992,656.546 355.122,656.636 354.262,656.816C353.402,656.996 352.622,657.266 351.922,657.626C351.222,657.986 350.662,658.456 350.242,659.036C349.822,659.616 349.612,660.326 349.612,661.166C349.612,662.206 350.112,663.006 351.112,663.566C352.112,664.126 353.352,664.596 354.832,664.976C356.312,665.356 357.922,665.716 359.662,666.056C361.402,666.396 363.012,666.886 364.492,667.526C365.972,668.166 367.212,669.026 368.212,670.106C369.212,671.186 369.712,672.646 369.712,674.486C369.712,677.246 368.622,679.526 366.442,681.326C364.262,683.126 360.992,684.026 356.632,684.026C355.312,684.026 354.012,683.906 352.732,683.666C351.452,683.426 350.252,683.106 349.132,682.706C348.012,682.306 346.992,681.856 346.072,681.356C345.152,680.856 344.392,680.346 343.792,679.826L346.192,675.926C346.672,676.406 347.312,676.896 348.112,677.396C348.912,677.896 349.792,678.346 350.752,678.746C351.712,679.146 352.742,679.466 353.842,679.706C354.942,679.946 356.052,680.066 357.172,680.066C358.252,680.066 359.262,679.976 360.202,679.796C361.142,679.616 361.972,679.336 362.692,678.956C363.412,678.576 363.982,678.076 364.402,677.456C364.822,676.836 365.032,676.086 365.032,675.206Z" style="fill:rgb(0,204,0);fill-rule:nonzero;"/>
    <path d="M381.052,683.306L381.052,679.286L391.492,679.286L391.492,657.326L381.052,657.326L381.052,653.306L396.292,653.306L396.292,679.286L406.492,679.286L406.492,683.306L381.052,683.306ZM389.872,644.786C389.872,643.706 390.232,642.776 390.952,641.996C391.672,641.216 392.592,640.826 393.712,640.826C394.872,640.826 395.842,641.216 396.622,641.996C397.402,642.776 397.792,643.706 397.792,644.786C397.792,645.826 397.402,646.706 396.622,647.426C395.842,648.146 394.872,648.506 393.712,648.506C392.592,648.506 391.672,648.146 390.952,647.426C390.232,646.706 389.872,645.826 389.872,644.786Z" style="fill:rgb(0,204,0);fill-rule:nonzero;"/>
    <path d="M442.192,684.806C442.192,686.686 441.832,688.336 441.112,689.756C440.392,691.176 439.402,692.346 438.142,693.266C436.882,694.186 435.412,694.876 433.732,695.336C432.052,695.796 430.232,696.026 428.272,696.026C425.912,696.026 423.852,695.786 422.092,695.306C420.332,694.826 418.812,694.206 417.532,693.446L419.812,689.186C420.172,689.506 420.642,689.816 421.222,690.116C421.802,690.416 422.472,690.696 423.232,690.956C423.992,691.216 424.802,691.426 425.662,691.586C426.522,691.746 427.372,691.826 428.212,691.826C429.972,691.826 431.442,691.666 432.622,691.346C433.802,691.026 434.752,690.526 435.472,689.846C436.192,689.166 436.712,688.286 437.032,687.206C437.352,686.126 437.512,684.806 437.512,683.246L437.512,679.886L437.272,679.886C436.352,681.206 435.172,682.226 433.732,682.946C432.292,683.666 430.432,684.026 428.152,684.026C423.592,684.026 420.242,682.756 418.102,680.216C415.962,677.676 414.892,673.726 414.892,668.366C414.892,663.246 416.252,659.376 418.972,656.756C421.692,654.136 425.732,652.826 431.092,652.826C433.572,652.826 435.682,652.996 437.422,653.336C439.162,653.676 440.752,654.106 442.192,654.626L442.192,684.806ZM428.812,680.006C431.252,680.006 433.172,679.376 434.572,678.116C435.972,676.856 436.952,674.926 437.512,672.326L437.512,658.106C435.752,657.266 433.292,656.846 430.132,656.846C426.932,656.846 424.412,657.786 422.572,659.666C420.732,661.546 419.812,664.426 419.812,668.306C419.812,670.026 419.972,671.596 420.292,673.016C420.612,674.436 421.122,675.666 421.822,676.706C422.522,677.746 423.442,678.556 424.582,679.136C425.722,679.716 427.132,680.006 428.812,680.006Z" style="fill:rgb(0,204,0);fill-rule:nonzero;"/>
    <path d="M452.332,663.806C452.332,663.446 452.322,662.976 452.302,662.396C452.282,661.816 452.252,661.216 452.212,660.596C452.172,659.976 452.122,659.366 452.062,658.766C452.002,658.166 451.932,657.646 451.852,657.206L447.832,657.206L447.832,653.306L455.872,653.306L456.412,658.166L456.712,658.166C457.112,657.486 457.642,656.816 458.302,656.156C458.962,655.496 459.732,654.896 460.612,654.356C461.492,653.816 462.472,653.386 463.552,653.066C464.632,652.746 465.772,652.586 466.972,652.586C468.812,652.586 470.442,652.786 471.862,653.186C473.282,653.586 474.462,654.296 475.402,655.316C476.342,656.336 477.052,657.716 477.532,659.456C478.012,661.196 478.252,663.406 478.252,666.086L478.252,683.306L473.572,683.306L473.572,666.986C473.572,663.666 473.032,661.166 471.952,659.486C470.872,657.806 468.912,656.966 466.072,656.966C465.032,656.966 464.022,657.176 463.042,657.596C462.062,658.016 461.172,658.566 460.372,659.246C459.572,659.926 458.872,660.716 458.272,661.616C457.672,662.516 457.232,663.466 456.952,664.466L456.952,683.306L452.332,683.306L452.332,663.806Z" style="fill:rgb(0,204,0);fill-rule:nonzero;"/>
    <path d="M514.492,679.526C513.772,680.166 512.922,680.766 511.942,681.326C510.962,681.886 509.892,682.366 508.732,682.766C507.572,683.166 506.362,683.476 505.102,683.696C503.842,683.916 502.572,684.026 501.292,684.026C498.892,684.026 496.772,683.656 494.932,682.916C493.092,682.176 491.552,681.116 490.312,679.736C489.072,678.356 488.132,676.706 487.492,674.786C486.852,672.866 486.532,670.706 486.532,668.306C486.532,665.786 486.882,663.546 487.582,661.586C488.282,659.626 489.292,657.986 490.612,656.666C491.932,655.346 493.532,654.336 495.412,653.636C497.292,652.936 499.392,652.586 501.712,652.586C503.392,652.586 505.052,652.806 506.692,653.246C508.332,653.686 509.782,654.516 511.042,655.736C512.302,656.956 513.272,658.636 513.952,660.776C514.632,662.916 514.872,665.686 514.672,669.086L491.452,669.086C491.452,672.686 492.422,675.376 494.362,677.156C496.302,678.936 498.892,679.826 502.132,679.826C503.212,679.826 504.282,679.696 505.342,679.436C506.402,679.176 507.412,678.866 508.372,678.506C509.332,678.146 510.182,677.746 510.922,677.306C511.662,676.866 512.232,676.466 512.632,676.106L514.492,679.526ZM501.832,656.546C500.512,656.546 499.262,656.686 498.082,656.966C496.902,657.246 495.862,657.716 494.962,658.376C494.062,659.036 493.322,659.896 492.742,660.956C492.162,662.016 491.792,663.326 491.632,664.886L510.292,664.886C510.092,662.246 509.242,660.196 507.742,658.736C506.242,657.276 504.272,656.546 501.832,656.546Z" style="fill:rgb(0,204,0);fill-rule:nonzero;"/>
    <path d="M539.692,641.306L549.412,641.306L549.412,673.046C549.412,673.406 549.432,673.856 549.472,674.396C549.512,674.936 549.562,675.506 549.622,676.106C549.682,676.706 549.752,677.296 549.832,677.876C549.912,678.456 549.992,678.966 550.072,679.406L554.092,679.406L554.092,683.306L546.112,683.306L545.512,678.686L545.272,678.686C544.392,680.206 543.082,681.476 541.342,682.496C539.602,683.516 537.592,684.026 535.312,684.026C530.792,684.026 527.462,682.756 525.322,680.216C523.182,677.676 522.112,673.726 522.112,668.366C522.112,665.846 522.472,663.616 523.192,661.676C523.912,659.736 524.942,658.116 526.282,656.816C527.622,655.516 529.232,654.526 531.112,653.846C532.992,653.166 535.092,652.826 537.412,652.826C538.252,652.826 539.002,652.846 539.662,652.886C540.322,652.926 540.932,652.986 541.492,653.066C542.052,653.146 542.582,653.256 543.082,653.396C543.582,653.536 544.132,653.686 544.732,653.846L544.732,645.326L539.692,645.326L539.692,641.306ZM536.092,680.006C538.532,680.006 540.452,679.376 541.852,678.116C543.252,676.856 544.212,674.966 544.732,672.446L544.732,658.526C543.852,657.926 542.862,657.486 541.762,657.206C540.662,656.926 539.212,656.786 537.412,656.786C534.212,656.786 531.692,657.716 529.852,659.576C528.012,661.436 527.092,664.366 527.092,668.366C527.092,670.006 527.242,671.536 527.542,672.956C527.842,674.376 528.342,675.606 529.042,676.646C529.742,677.686 530.672,678.506 531.832,679.106C532.992,679.706 534.412,680.006 536.092,680.006Z" style="fill:rgb(0,204,0);fill-rule:nonzero;"/>
    <path d="M596.332,663.806C596.332,663.446 596.322,662.976 596.302,662.396C596.282,661.816 596.252,661.216 596.212,660.596C596.172,659.976 596.122,659.366 596.062,658.766C596.002,658.166 595.932,657.646 595.852,657.206L591.832,657.206L591.832,653.306L599.872,653.306L600.412,658.166L600.712,658.166C601.112,657.486 601.642,656.816 602.302,656.156C602.962,655.496 603.732,654.896 604.612,654.356C605.492,653.816 606.472,653.386 607.552,653.066C608.632,652.746 609.772,652.586 610.972,652.586C612.812,652.586 614.442,652.786 615.862,653.186C617.282,653.586 618.462,654.296 619.402,655.316C620.342,656.336 621.052,657.716 621.532,659.456C622.012,661.196 622.252,663.406 622.252,666.086L622.252,683.306L617.572,683.306L617.572,666.986C617.572,663.666 617.032,661.166 615.952,659.486C614.872,657.806 612.912,656.966 610.072,656.966C609.032,656.966 608.022,657.176 607.042,657.596C606.062,658.016 605.172,658.566 604.372,659.246C603.572,659.926 602.872,660.716 602.272,661.616C601.672,662.516 601.232,663.466 600.952,664.466L600.952,683.306L596.332,683.306L596.332,663.806Z" style="fill:rgb(0,204,0);fill-rule:nonzero;"/>
    <path d="M648.532,653.306L657.052,653.306L657.052,673.766C657.052,675.726 657.172,677.606 657.412,679.406L661.432,679.406L661.432,683.306L653.452,683.306L653.272,678.206L653.032,678.206C651.992,679.926 650.612,681.326 648.892,682.406C647.172,683.486 645.092,684.026 642.652,684.026C640.812,684.026 639.242,683.816 637.942,683.396C636.642,682.976 635.572,682.246 634.732,681.206C633.892,680.166 633.272,678.776 632.872,677.036C632.472,675.296 632.272,673.126 632.272,670.526L632.272,657.326L628.252,657.326L628.252,653.306L636.952,653.306L636.952,669.566C636.952,671.206 637.022,672.676 637.162,673.976C637.302,675.276 637.592,676.376 638.032,677.276C638.472,678.176 639.122,678.856 639.982,679.316C640.842,679.776 641.992,680.006 643.432,680.006C645.512,680.006 647.322,679.326 648.862,677.966C650.402,676.606 651.572,674.906 652.372,672.866L652.372,657.326L648.532,657.326L648.532,653.306Z" style="fill:rgb(0,204,0);fill-rule:nonzero;"/>
    <path d="M678.472,683.306L678.472,663.326C678.472,662.486 678.442,661.676 678.382,660.896C678.322,660.116 678.182,659.416 677.962,658.796C677.742,658.176 677.422,657.686 677.002,657.326C676.582,656.966 676.032,656.786 675.352,656.786C673.992,656.786 672.842,657.346 671.902,658.466C670.962,659.586 670.252,660.986 669.772,662.666L669.772,683.306L665.212,683.306L665.212,653.306L668.332,653.306L669.232,656.966L669.472,656.966C669.872,656.366 670.262,655.796 670.642,655.256C671.022,654.716 671.462,654.246 671.962,653.846C672.462,653.446 673.052,653.136 673.732,652.916C674.412,652.696 675.272,652.586 676.312,652.586C676.912,652.586 677.532,652.676 678.172,652.856C678.812,653.036 679.402,653.316 679.942,653.696C680.482,654.076 680.952,654.586 681.352,655.226C681.752,655.866 682.012,656.646 682.132,657.566C683.052,656.006 684.082,654.786 685.222,653.906C686.362,653.026 687.932,652.586 689.932,652.586C691.252,652.586 692.322,652.806 693.142,653.246C693.962,653.686 694.602,654.316 695.062,655.136C695.522,655.956 695.842,656.936 696.022,658.076C696.202,659.216 696.292,660.486 696.292,661.886L696.292,683.306L691.732,683.306L691.732,662.906C691.732,662.066 691.692,661.276 691.612,660.536C691.532,659.796 691.382,659.146 691.162,658.586C690.942,658.026 690.642,657.586 690.262,657.266C689.882,656.946 689.372,656.786 688.732,656.786C687.332,656.786 686.152,657.346 685.192,658.466C684.232,659.586 683.512,661.186 683.032,663.266L683.032,683.306L678.472,683.306Z" style="fill:rgb(0,204,0);fill-rule:nonzero;"/>
    <path d="M730.492,679.526C729.772,680.166 728.922,680.766 727.942,681.326C726.962,681.886 725.892,682.366 724.732,682.766C723.572,683.166 722.362,683.476 721.102,683.696C719.842,683.916 718.572,684.026 717.292,684.026C714.892,684.026 712.772,683.656 710.932,682.916C709.092,682.176 707.552,681.116 706.312,679.736C705.072,678.356 704.132,676.706 703.492,674.786C702.852,672.866 702.532,670.706 702.532,668.306C702.532,665.786 702.882,663.546 703.582,661.586C704.282,659.626 705.292,657.986 706.612,656.666C707.932,655.346 709.532,654.336 711.412,653.636C713.292,652.936 715.392,652.586 717.712,652.586C719.392,652.586 721.052,652.806 722.692,653.246C724.332,653.686 725.782,654.516 727.042,655.736C728.302,656.956 729.272,658.636 729.952,660.776C730.632,662.916 730.872,665.686 730.672,669.086L707.452,669.086C707.452,672.686 708.422,675.376 710.362,677.156C712.302,678.936 714.892,679.826 718.132,679.826C719.212,679.826 720.282,679.696 721.342,679.436C722.402,679.176 723.412,678.866 724.372,678.506C725.332,678.146 726.182,677.746 726.922,677.306C727.662,676.866 728.232,676.466 728.632,676.106L730.492,679.526ZM717.832,656.546C716.512,656.546 715.262,656.686 714.082,656.966C712.902,657.246 711.862,657.716 710.962,658.376C710.062,659.036 709.322,659.896 708.742,660.956C708.162,662.016 707.792,663.326 707.632,664.886L726.292,664.886C726.092,662.246 725.242,660.196 723.742,658.736C722.242,657.276 720.272,656.546 717.832,656.546Z" style="fill:rgb(0,204,0);fill-rule:nonzero;"/>
    <path d="M738.712,683.306L738.712,679.286L746.812,679.286L746.812,657.326L738.712,657.326L738.712,653.306L749.932,653.306L750.892,657.206L751.192,657.206C752.552,655.966 754.072,654.906 755.752,654.026C757.432,653.146 759.432,652.706 761.752,652.706C763.112,652.706 764.202,652.966 765.022,653.486C765.842,654.006 766.482,654.766 766.942,655.766C767.402,656.766 767.712,657.976 767.872,659.396C768.032,660.816 768.112,662.426 768.112,664.226L763.912,664.286C763.912,661.726 763.662,659.846 763.162,658.646C762.662,657.446 761.752,656.846 760.432,656.846C759.192,656.846 758.072,657.026 757.072,657.386C756.072,657.746 755.202,658.186 754.462,658.706C753.722,659.226 753.092,659.746 752.572,660.266C752.052,660.786 751.672,661.226 751.432,661.586L751.432,679.286L762.952,679.286L762.952,683.306L738.712,683.306Z" style="fill:rgb(0,204,0);fill-rule:nonzero;"/>
    <path d="M777.052,683.306L777.052,679.286L787.492,679.286L787.492,657.326L777.052,657.326L777.052,653.306L792.292,653.306L792.292,679.286L802.492,679.286L802.492,683.306L777.052,683.306ZM785.872,644.786C785.872,643.706 786.232,642.776 786.952,641.996C787.672,641.216 788.592,640.826 789.712,640.826C790.872,640.826 791.842,641.216 792.622,641.996C793.402,642.776 793.792,643.706 793.792,644.786C793.792,645.826 793.402,646.706 792.622,647.426C791.842,648.146 790.872,648.506 789.712,648.506C788.592,648.506 787.672,648.146 786.952,647.426C786.232,646.706 785.872,645.826 785.872,644.786Z" style="fill:rgb(0,204,0);fill-rule:nonzero;"/>
    <path d="M833.092,657.926C832.172,657.606 831.182,657.336 830.122,657.116C829.062,656.896 828.012,656.786 826.972,656.786C823.052,656.786 820.132,657.706 818.212,659.546C816.292,661.386 815.332,664.306 815.332,668.306C815.332,670.066 815.612,671.636 816.172,673.016C816.732,674.396 817.532,675.566 818.572,676.526C819.612,677.486 820.862,678.226 822.322,678.746C823.782,679.266 825.392,679.526 827.152,679.526C829.032,679.526 830.862,679.206 832.642,678.566C834.422,677.926 835.912,677.086 837.112,676.046L839.212,679.526C838.652,680.006 837.952,680.506 837.112,681.026C836.272,681.546 835.302,682.036 834.202,682.496C833.102,682.956 831.882,683.326 830.542,683.606C829.202,683.886 827.752,684.026 826.192,684.026C823.592,684.026 821.302,683.656 819.322,682.916C817.342,682.176 815.692,681.116 814.372,679.736C813.052,678.356 812.052,676.696 811.372,674.756C810.692,672.816 810.352,670.666 810.352,668.306C810.352,665.786 810.702,663.546 811.402,661.586C812.102,659.626 813.112,657.986 814.432,656.666C815.752,655.346 817.352,654.336 819.232,653.636C821.112,652.936 823.212,652.586 825.532,652.586C828.492,652.586 830.902,652.846 832.762,653.366C834.622,653.886 836.192,654.466 837.472,655.106L837.412,655.286L837.412,663.626L833.092,663.626L833.092,657.926Z" style="fill:rgb(0,204,0);fill-rule:nonzero;"/>
    <path d="M885.892,641.306L895.852,641.306L895.852,673.226C895.852,675.666 896.262,677.386 897.082,678.386C897.902,679.386 899.112,679.886 900.712,679.886C901.832,679.886 902.902,679.686 903.922,679.286C904.942,678.886 906.072,678.206 907.312,677.246L909.472,680.546C908.832,681.106 908.132,681.606 907.372,682.046C906.612,682.486 905.832,682.856 905.032,683.156C904.232,683.456 903.432,683.686 902.632,683.846C901.832,684.006 901.092,684.086 900.412,684.086C898.932,684.086 897.612,683.896 896.452,683.516C895.292,683.136 894.322,682.526 893.542,681.686C892.762,680.846 892.172,679.736 891.772,678.356C891.372,676.976 891.172,675.266 891.172,673.226L891.172,645.326L885.892,645.326L885.892,641.306Z" style="fill:rgb(0,204,0);fill-rule:nonzero;"/>
    <path d="M921.052,683.306L921.052,679.286L931.492,679.286L931.492,657.326L921.052,657.326L921.052,653.306L936.292,653.306L936.292,679.286L946.492,679.286L946.492,683.306L921.052,683.306ZM929.872,644.786C929.872,643.706 930.232,642.776 930.952,641.996C931.672,641.216 932.592,640.826 933.712,640.826C934.872,640.826 935.842,641.216 936.622,641.996C937.402,642.776 937.792,643.706 937.792,644.786C937.792,645.826 937.402,646.706 936.622,647.426C935.842,648.146 934.872,648.506 933.712,648.506C932.592,648.506 931.672,648.146 930.952,647.426C930.232,646.706 929.872,645.826 929.872,644.786Z" style="fill:rgb(0,204,0);fill-rule:nonzero;"/>
    <path d="M952.612,653.306L959.752,653.306L959.752,647.366L964.432,646.046L964.432,653.306L980.452,653.306L980.452,657.326L964.432,657.326L964.432,671.486C964.432,674.406 965.142,676.566 966.562,677.966C967.982,679.366 970.012,680.066 972.652,680.066C974.452,680.066 976.022,679.726 977.362,679.046C978.702,678.366 979.912,677.626 980.992,676.826L982.552,680.366C981.152,681.486 979.482,682.386 977.542,683.066C975.602,683.746 973.612,684.086 971.572,684.086C969.972,684.086 968.462,683.856 967.042,683.396C965.622,682.936 964.372,682.226 963.292,681.266C962.212,680.306 961.352,679.076 960.712,677.576C960.072,676.076 959.752,674.286 959.752,672.206L959.752,657.326L952.612,657.326L952.612,653.306Z" style="fill:rgb(0,204,0);fill-rule:nonzero;"/>
    <path d="M1018.49,679.526C1017.77,680.166 1016.92,680.766 1015.94,681.326C1014.96,681.886 1013.89,682.366 1012.73,682.766C1011.57,683.166 1010.36,683.476 1009.1,683.696C1007.84,683.916 1006.57,684.026 1005.29,684.026C1002.89,684.026 1000.77,683.656 998.932,682.916C997.092,682.176 995.552,681.116 994.312,679.736C993.072,678.356 992.132,676.706 991.492,674.786C990.852,672.866 990.532,670.706 990.532,668.306C990.532,665.786 990.882,663.546 991.582,661.586C992.282,659.626 993.292,657.986 994.612,656.666C995.932,655.346 997.532,654.336 999.412,653.636C1001.29,652.936 1003.39,652.586 1005.71,652.586C1007.39,652.586 1009.05,652.806 1010.69,653.246C1012.33,653.686 1013.78,654.516 1015.04,655.736C1016.3,656.956 1017.27,658.636 1017.95,660.776C1018.63,662.916 1018.87,665.686 1018.67,669.086L995.452,669.086C995.452,672.686 996.422,675.376 998.362,677.156C1000.3,678.936 1002.89,679.826 1006.13,679.826C1007.21,679.826 1008.28,679.696 1009.34,679.436C1010.4,679.176 1011.41,678.866 1012.37,678.506C1013.33,678.146 1014.18,677.746 1014.92,677.306C1015.66,676.866 1016.23,676.466 1016.63,676.106L1018.49,679.526ZM1005.83,656.546C1004.51,656.546 1003.26,656.686 1002.08,656.966C1000.9,657.246 999.862,657.716 998.962,658.376C998.062,659.036 997.322,659.896 996.742,660.956C996.162,662.016 995.792,663.326 995.632,664.886L1014.29,664.886C1014.09,662.246 1013.24,660.196 1011.74,658.736C1010.24,657.276 1008.27,656.546 1005.83,656.546Z" style="fill:rgb(0,204,0);fill-rule:nonzero;"/>
    <path d="M1026.71,683.306L1026.71,679.286L1034.81,679.286L1034.81,657.326L1026.71,657.326L1026.71,653.306L1037.93,653.306L1038.89,657.206L1039.19,657.206C1040.55,655.966 1042.07,654.906 1043.75,654.026C1045.43,653.146 1047.43,652.706 1049.75,652.706C1051.11,652.706 1052.2,652.966 1053.02,653.486C1053.84,654.006 1054.48,654.766 1054.94,655.766C1055.4,656.766 1055.71,657.976 1055.87,659.396C1056.03,660.816 1056.11,662.426 1056.11,664.226L1051.91,664.286C1051.91,661.726 1051.66,659.846 1051.16,658.646C1050.66,657.446 1049.75,656.846 1048.43,656.846C1047.19,656.846 1046.07,657.026 1045.07,657.386C1044.07,657.746 1043.2,658.186 1042.46,658.706C1041.72,659.226 1041.09,659.746 1040.57,660.266C1040.05,660.786 1039.67,661.226 1039.43,661.586L1039.43,679.286L1050.95,679.286L1050.95,683.306L1026.71,683.306Z" style="fill:rgb(0,204,0);fill-rule:nonzero;"/>
    <path d="M1065.23,655.646C1066.95,654.646 1068.89,653.926 1071.05,653.486C1073.21,653.046 1075.33,652.826 1077.41,652.826C1079.45,652.826 1081.12,653.146 1082.42,653.786C1083.72,654.426 1084.74,655.256 1085.48,656.276C1086.22,657.296 1086.72,658.456 1086.98,659.756C1087.24,661.056 1087.37,662.366 1087.37,663.686C1087.37,665.206 1087.33,666.826 1087.25,668.546C1087.17,670.266 1087.11,671.986 1087.07,673.706C1087.07,675.706 1087.19,677.606 1087.43,679.406L1091.45,679.406L1091.45,683.306L1083.47,683.306L1082.93,678.806L1082.63,678.806C1082.39,679.166 1082.03,679.626 1081.55,680.186C1081.07,680.746 1080.44,681.296 1079.66,681.836C1078.88,682.376 1077.93,682.846 1076.81,683.246C1075.69,683.646 1074.37,683.846 1072.85,683.846C1069.89,683.846 1067.55,683.086 1065.83,681.566C1064.11,680.046 1063.25,677.966 1063.25,675.326C1063.25,673.286 1063.7,671.586 1064.6,670.226C1065.5,668.866 1066.79,667.826 1068.47,667.106C1070.15,666.386 1072.18,665.966 1074.56,665.846C1076.94,665.726 1079.61,665.886 1082.57,666.326C1082.77,664.486 1082.8,662.956 1082.66,661.736C1082.52,660.516 1082.2,659.546 1081.7,658.826C1081.2,658.106 1080.5,657.596 1079.6,657.296C1078.7,656.996 1077.59,656.846 1076.27,656.846C1074.47,656.846 1072.75,657.096 1071.11,657.596C1069.47,658.096 1068.01,658.606 1066.73,659.126L1065.23,655.646ZM1074.05,679.826C1075.17,679.826 1076.21,679.646 1077.17,679.286C1078.13,678.926 1078.97,678.466 1079.69,677.906C1080.41,677.346 1081.01,676.736 1081.49,676.076C1081.97,675.416 1082.33,674.786 1082.57,674.186L1082.57,669.986C1080.49,669.626 1078.57,669.446 1076.81,669.446C1075.05,669.446 1073.53,669.636 1072.25,670.016C1070.97,670.396 1069.97,670.986 1069.25,671.786C1068.53,672.586 1068.17,673.626 1068.17,674.906C1068.17,676.226 1068.62,677.376 1069.52,678.356C1070.42,679.336 1071.93,679.826 1074.05,679.826Z" style="fill:rgb(0,204,0);fill-rule:nonzero;"/>
    <path d="M1101.89,641.306L1111.85,641.306L1111.85,673.226C1111.85,675.666 1112.26,677.386 1113.08,678.386C1113.9,679.386 1115.11,679.886 1116.71,679.886C1117.83,679.886 1118.9,679.686 1119.92,679.286C1120.94,678.886 1122.07,678.206 1123.31,677.246L1125.47,680.546C1124.83,681.106 1124.13,681.606 1123.37,682.046C1122.61,682.486 1121.83,682.856 1121.03,683.156C1120.23,683.456 1119.43,683.686 1118.63,683.846C1117.83,684.006 1117.09,684.086 1116.41,684.086C1114.93,684.086 1113.61,683.896 1112.45,683.516C1111.29,683.136 1110.32,682.526 1109.54,681.686C1108.76,680.846 1108.17,679.736 1107.77,678.356C1107.37,676.976 1107.17,675.266 1107.17,673.226L1107.17,645.326L1101.89,645.326L1101.89,641.306Z" style="fill:rgb(0,204,0);fill-rule:nonzero;"/>
    <path d="M1135.73,681.326L1133.45,677.726L1157.33,663.866L1133.51,649.766L1135.79,646.046L1164.05,663.266L1164.05,665.006L1135.73,681.326Z" style="fill:rgb(0,204,0);fill-rule:nonzero;"/>
    <path d="M531.099,514.29L531.099,512.55L559.359,495.33L561.639,499.05L537.819,513.15L561.699,527.01L559.419,530.61L531.099,514.29Z" style="fill:rgb(0,204,0);fill-rule:nonzero;"/>
    <path d="M579.579,517.23L567.999,502.59L573.999,502.59L582.639,513.87L591.519,502.59L596.919,502.59L585.339,516.99L597.639,532.59L591.879,532.59L582.339,520.29L572.619,532.59L567.159,532.59L579.579,517.23Z" style="fill:rgb(0,204,0);fill-rule:nonzero;"/>
    <path d="M605.379,530.61L603.099,527.01L626.979,513.15L603.159,499.05L605.439,495.33L633.699,512.55L633.699,514.29L605.379,530.61Z" style="fill:rgb(0,204,0);fill-rule:nonzero;"/>
    <path d="M629.635,564.776L629.635,563.036L657.895,545.816L660.175,549.536L636.355,563.636L660.235,577.496L657.955,581.096L629.635,564.776Z" style="fill:rgb(255,0,255);fill-rule:nonzero;"/>
    <path d="M668.695,563.576C668.695,563.216 668.685,562.746 668.665,562.166C668.645,561.586 668.615,560.986 668.575,560.366C668.535,559.746 668.485,559.136 668.425,558.536C668.365,557.936 668.295,557.416 668.215,556.976L664.195,556.976L664.195,553.076L672.175,553.076L672.775,557.276L673.075,557.276C674.155,555.876 675.525,554.706 677.185,553.766C678.845,552.826 680.875,552.356 683.275,552.356C687.555,552.356 690.775,553.536 692.935,555.896C695.095,558.256 696.175,562.116 696.175,567.476C696.175,569.996 695.805,572.266 695.065,574.286C694.325,576.306 693.275,578.016 691.915,579.416C690.555,580.816 688.915,581.896 686.995,582.656C685.075,583.416 682.955,583.796 680.635,583.796C679.795,583.796 679.045,583.766 678.385,583.706C677.725,583.646 677.125,583.566 676.585,583.466C676.045,583.366 675.515,583.236 674.995,583.076C674.475,582.916 673.915,582.716 673.315,582.476L673.315,595.076L668.695,595.076L668.695,563.576ZM682.495,556.736C681.295,556.736 680.165,556.956 679.105,557.396C678.045,557.836 677.105,558.416 676.285,559.136C675.465,559.856 674.795,560.656 674.275,561.536C673.755,562.416 673.435,563.296 673.315,564.176L673.315,577.856C674.195,578.456 675.185,578.926 676.285,579.266C677.385,579.606 678.835,579.776 680.635,579.776C683.835,579.776 686.395,578.726 688.315,576.626C690.235,574.526 691.195,571.456 691.195,567.416C691.195,564.016 690.525,561.386 689.185,559.526C687.845,557.666 685.615,556.736 682.495,556.736Z" style="fill:rgb(255,0,255);fill-rule:nonzero;"/>
    <path d="M702.355,568.076C702.355,563.236 703.615,559.406 706.135,556.586C708.655,553.766 712.255,552.356 716.935,552.356C719.455,552.356 721.625,552.766 723.445,553.586C725.265,554.406 726.775,555.516 727.975,556.916C729.175,558.316 730.065,559.976 730.645,561.896C731.225,563.816 731.515,565.876 731.515,568.076C731.515,570.476 731.195,572.646 730.555,574.586C729.915,576.526 728.975,578.176 727.735,579.536C726.495,580.896 724.965,581.946 723.145,582.686C721.325,583.426 719.255,583.796 716.935,583.796C714.455,583.796 712.295,583.386 710.455,582.566C708.615,581.746 707.095,580.636 705.895,579.236C704.695,577.836 703.805,576.176 703.225,574.256C702.645,572.336 702.355,570.276 702.355,568.076ZM707.335,568.076C707.335,569.476 707.505,570.876 707.845,572.276C708.185,573.676 708.735,574.936 709.495,576.056C710.255,577.176 711.245,578.076 712.465,578.756C713.685,579.436 715.175,579.776 716.935,579.776C720.135,579.776 722.545,578.786 724.165,576.806C725.785,574.826 726.595,571.916 726.595,568.076C726.595,566.636 726.425,565.226 726.085,563.846C725.745,562.466 725.185,561.216 724.405,560.096C723.625,558.976 722.625,558.076 721.405,557.396C720.185,556.716 718.695,556.376 716.935,556.376C713.735,556.376 711.335,557.356 709.735,559.316C708.135,561.276 707.335,564.196 707.335,568.076Z" style="fill:rgb(255,0,255);fill-rule:nonzero;"/>
    <path d="M741.235,583.076L741.235,579.056L751.675,579.056L751.675,557.096L741.235,557.096L741.235,553.076L756.475,553.076L756.475,579.056L766.675,579.056L766.675,583.076L741.235,583.076ZM750.055,544.556C750.055,543.476 750.415,542.546 751.135,541.766C751.855,540.986 752.775,540.596 753.895,540.596C755.055,540.596 756.025,540.986 756.805,541.766C757.585,542.546 757.975,543.476 757.975,544.556C757.975,545.596 757.585,546.476 756.805,547.196C756.025,547.916 755.055,548.276 753.895,548.276C752.775,548.276 751.855,547.916 751.135,547.196C750.415,546.476 750.055,545.596 750.055,544.556Z" style="fill:rgb(255,0,255);fill-rule:nonzero;"/>
    <path d="M776.515,563.576C776.515,563.216 776.505,562.746 776.485,562.166C776.465,561.586 776.435,560.986 776.395,560.366C776.355,559.746 776.305,559.136 776.245,558.536C776.185,557.936 776.115,557.416 776.035,556.976L772.015,556.976L772.015,553.076L780.055,553.076L780.595,557.936L780.895,557.936C781.295,557.256 781.825,556.586 782.485,555.926C783.145,555.266 783.915,554.666 784.795,554.126C785.675,553.586 786.655,553.156 787.735,552.836C788.815,552.516 789.955,552.356 791.155,552.356C792.995,552.356 794.625,552.556 796.045,552.956C797.465,553.356 798.645,554.066 799.585,555.086C800.525,556.106 801.235,557.486 801.715,559.226C802.195,560.966 802.435,563.176 802.435,565.856L802.435,583.076L797.755,583.076L797.755,566.756C797.755,563.436 797.215,560.936 796.135,559.256C795.055,557.576 793.095,556.736 790.255,556.736C789.215,556.736 788.205,556.946 787.225,557.366C786.245,557.786 785.355,558.336 784.555,559.016C783.755,559.696 783.055,560.486 782.455,561.386C781.855,562.286 781.415,563.236 781.135,564.236L781.135,583.076L776.515,583.076L776.515,563.576Z" style="fill:rgb(255,0,255);fill-rule:nonzero;"/>
    <path d="M808.795,553.076L815.935,553.076L815.935,547.136L820.615,545.816L820.615,553.076L836.635,553.076L836.635,557.096L820.615,557.096L820.615,571.256C820.615,574.176 821.325,576.336 822.745,577.736C824.165,579.136 826.195,579.836 828.835,579.836C830.635,579.836 832.205,579.496 833.545,578.816C834.885,578.136 836.095,577.396 837.175,576.596L838.735,580.136C837.335,581.256 835.665,582.156 833.725,582.836C831.785,583.516 829.795,583.856 827.755,583.856C826.155,583.856 824.645,583.626 823.225,583.166C821.805,582.706 820.555,581.996 819.475,581.036C818.395,580.076 817.535,578.846 816.895,577.346C816.255,575.846 815.935,574.056 815.935,571.976L815.935,557.096L808.795,557.096L808.795,553.076Z" style="fill:rgb(255,0,255);fill-rule:nonzero;"/>
    <path d="M847.915,581.096L845.635,577.496L869.515,563.636L845.695,549.536L847.975,545.816L876.235,563.036L876.235,564.776L847.915,581.096Z" style="fill:rgb(255,0,255);fill-rule:nonzero;"/>
    <path d="M862.633,514.29L862.633,512.55L890.893,495.33L893.173,499.05L869.353,513.15L893.233,527.01L890.953,530.61L862.633,514.29Z" style="fill:rgb(0,204,0);fill-rule:nonzero;"/>
    <path d="M914.593,527.97L916.873,527.97L924.313,502.59L929.173,502.59L920.833,529.53C920.393,530.93 919.943,532.52 919.483,534.3C919.023,536.08 918.373,537.75 917.533,539.31C916.693,540.87 915.553,542.19 914.113,543.27C912.673,544.35 910.793,544.89 908.473,544.89C907.953,544.89 907.403,544.83 906.823,544.71C906.243,544.59 905.673,544.44 905.113,544.26C904.553,544.08 904.033,543.87 903.553,543.63C903.073,543.39 902.713,543.15 902.473,542.91L904.153,538.59C904.393,538.79 904.723,538.99 905.143,539.19C905.563,539.39 906.023,539.56 906.523,539.7C907.023,539.84 907.513,539.96 907.993,540.06C908.473,540.16 908.873,540.21 909.193,540.21C912.193,540.21 914.233,537.67 915.313,532.59L911.293,532.59L898.693,502.59L904.093,502.59L914.593,527.97Z" style="fill:rgb(0,204,0);fill-rule:nonzero;"/>
    <path d="M936.913,530.61L934.633,527.01L958.513,513.15L934.693,499.05L936.973,495.33L965.233,512.55L965.233,514.29L936.913,530.61Z" style="fill:rgb(0,204,0);fill-rule:nonzero;"/>
    <path d="M826.395,127.34L826.395,125.6L854.655,108.38L856.935,112.1L833.115,126.2L856.995,140.06L854.715,143.66L826.395,127.34Z" style="fill:rgb(0,106,255);fill-rule:nonzero;"/>
    <path d="M863.655,145.64L863.655,141.62L871.755,141.62L871.755,119.66L863.655,119.66L863.655,115.64L874.875,115.64L875.835,119.54L876.135,119.54C877.495,118.3 879.015,117.24 880.695,116.36C882.375,115.48 884.375,115.04 886.695,115.04C888.055,115.04 889.145,115.3 889.965,115.82C890.785,116.34 891.425,117.1 891.885,118.1C892.345,119.1 892.655,120.31 892.815,121.73C892.975,123.15 893.055,124.76 893.055,126.56L888.855,126.62C888.855,124.06 888.605,122.18 888.105,120.98C887.605,119.78 886.695,119.18 885.375,119.18C884.135,119.18 883.015,119.36 882.015,119.72C881.015,120.08 880.145,120.52 879.405,121.04C878.665,121.56 878.035,122.08 877.515,122.6C876.995,123.12 876.615,123.56 876.375,123.92L876.375,141.62L887.895,141.62L887.895,145.64L863.655,145.64Z" style="fill:rgb(0,106,255);fill-rule:nonzero;"/>
    <path d="M901.995,145.64L901.995,141.62L912.435,141.62L912.435,119.66L901.995,119.66L901.995,115.64L917.235,115.64L917.235,141.62L927.435,141.62L927.435,145.64L901.995,145.64ZM910.815,107.12C910.815,106.04 911.175,105.11 911.895,104.33C912.615,103.55 913.535,103.16 914.655,103.16C915.815,103.16 916.785,103.55 917.565,104.33C918.345,105.11 918.735,106.04 918.735,107.12C918.735,108.16 918.345,109.04 917.565,109.76C916.785,110.48 915.815,110.84 914.655,110.84C913.535,110.84 912.615,110.48 911.895,109.76C911.175,109.04 910.815,108.16 910.815,107.12Z" style="fill:rgb(0,106,255);fill-rule:nonzero;"/>
    <path d="M963.135,147.14C963.135,149.02 962.775,150.67 962.055,152.09C961.335,153.51 960.345,154.68 959.085,155.6C957.825,156.52 956.355,157.21 954.675,157.67C952.995,158.13 951.175,158.36 949.215,158.36C946.855,158.36 944.795,158.12 943.035,157.64C941.275,157.16 939.755,156.54 938.475,155.78L940.755,151.52C941.115,151.84 941.585,152.15 942.165,152.45C942.745,152.75 943.415,153.03 944.175,153.29C944.935,153.55 945.745,153.76 946.605,153.92C947.465,154.08 948.315,154.16 949.155,154.16C950.915,154.16 952.385,154 953.565,153.68C954.745,153.36 955.695,152.86 956.415,152.18C957.135,151.5 957.655,150.62 957.975,149.54C958.295,148.46 958.455,147.14 958.455,145.58L958.455,142.22L958.215,142.22C957.295,143.54 956.115,144.56 954.675,145.28C953.235,146 951.375,146.36 949.095,146.36C944.535,146.36 941.185,145.09 939.045,142.55C936.905,140.01 935.835,136.06 935.835,130.7C935.835,125.58 937.195,121.71 939.915,119.09C942.635,116.47 946.675,115.16 952.035,115.16C954.515,115.16 956.625,115.33 958.365,115.67C960.105,116.01 961.695,116.44 963.135,116.96L963.135,147.14ZM949.755,142.34C952.195,142.34 954.115,141.71 955.515,140.45C956.915,139.19 957.895,137.26 958.455,134.66L958.455,120.44C956.695,119.6 954.235,119.18 951.075,119.18C947.875,119.18 945.355,120.12 943.515,122C941.675,123.88 940.755,126.76 940.755,130.64C940.755,132.36 940.915,133.93 941.235,135.35C941.555,136.77 942.065,138 942.765,139.04C943.465,140.08 944.385,140.89 945.525,141.47C946.665,142.05 948.075,142.34 949.755,142.34Z" style="fill:rgb(0,106,255);fill-rule:nonzero;"/>
    <path d="M967.935,103.64L977.295,103.64L977.295,119.36L977.595,119.36C978.835,117.96 980.275,116.87 981.915,116.09C983.555,115.31 985.595,114.92 988.035,114.92C989.955,114.92 991.625,115.12 993.045,115.52C994.465,115.92 995.625,116.62 996.525,117.62C997.425,118.62 998.095,119.99 998.535,121.73C998.975,123.47 999.195,125.68 999.195,128.36L999.195,145.64L994.515,145.64L994.515,129.26C994.515,127.54 994.415,126.04 994.215,124.76C994.015,123.48 993.625,122.41 993.045,121.55C992.465,120.69 991.675,120.04 990.675,119.6C989.675,119.16 988.395,118.94 986.835,118.94C985.755,118.94 984.695,119.13 983.655,119.51C982.615,119.89 981.665,120.41 980.805,121.07C979.945,121.73 979.205,122.53 978.585,123.47C977.965,124.41 977.535,125.44 977.295,126.56L977.295,145.64L972.675,145.64L972.675,107.66L967.935,107.66L967.935,103.64Z" style="fill:rgb(0,106,255);fill-rule:nonzero;"/>
    <path d="M1005.56,115.64L1012.7,115.64L1012.7,109.7L1017.38,108.38L1017.38,115.64L1033.39,115.64L1033.39,119.66L1017.38,119.66L1017.38,133.82C1017.38,136.74 1018.09,138.9 1019.5,140.3C1020.93,141.7 1022.96,142.4 1025.6,142.4C1027.39,142.4 1028.96,142.06 1030.31,141.38C1031.64,140.7 1032.86,139.96 1033.93,139.16L1035.5,142.7C1034.1,143.82 1032.42,144.72 1030.49,145.4C1028.55,146.08 1026.56,146.42 1024.52,146.42C1022.92,146.42 1021.4,146.19 1019.99,145.73C1018.57,145.27 1017.32,144.56 1016.24,143.6C1015.15,142.64 1014.3,141.41 1013.65,139.91C1013.01,138.41 1012.7,136.62 1012.7,134.54L1012.7,119.66L1005.56,119.66L1005.56,115.64Z" style="fill:rgb(0,106,255);fill-rule:nonzero;"/>
    <path d="M1081.45,126.14C1081.45,125.78 1081.44,125.31 1081.42,124.73C1081.4,124.15 1081.38,123.55 1081.34,122.93C1081.3,122.31 1081.25,121.7 1081.18,121.1C1081.12,120.5 1081.06,119.98 1080.97,119.54L1076.95,119.54L1076.95,115.64L1084.93,115.64L1085.54,119.84L1085.84,119.84C1086.91,118.44 1088.29,117.27 1089.94,116.33C1091.61,115.39 1093.63,114.92 1096.04,114.92C1100.32,114.92 1103.54,116.1 1105.69,118.46C1107.86,120.82 1108.93,124.68 1108.93,130.04C1108.93,132.56 1108.57,134.83 1107.83,136.85C1107.09,138.87 1106.04,140.58 1104.67,141.98C1103.32,143.38 1101.67,144.46 1099.76,145.22C1097.84,145.98 1095.71,146.36 1093.39,146.36C1092.56,146.36 1091.81,146.33 1091.14,146.27C1090.49,146.21 1089.88,146.13 1089.35,146.03C1088.81,145.93 1088.28,145.8 1087.76,145.64C1087.24,145.48 1086.67,145.28 1086.08,145.04L1086.08,157.64L1081.45,157.64L1081.45,126.14ZM1095.26,119.3C1094.06,119.3 1092.92,119.52 1091.87,119.96C1090.81,120.4 1089.87,120.98 1089.05,121.7C1088.22,122.42 1087.56,123.22 1087.04,124.1C1086.52,124.98 1086.19,125.86 1086.08,126.74L1086.08,140.42C1086.95,141.02 1087.94,141.49 1089.05,141.83C1090.14,142.17 1091.6,142.34 1093.39,142.34C1096.6,142.34 1099.15,141.29 1101.08,139.19C1103,137.09 1103.95,134.02 1103.95,129.98C1103.95,126.58 1103.29,123.95 1101.94,122.09C1100.61,120.23 1098.38,119.3 1095.26,119.3Z" style="fill:rgb(0,106,255);fill-rule:nonzero;"/>
    <path d="M1118.17,117.98C1119.89,116.98 1121.84,116.26 1124,115.82C1126.15,115.38 1128.28,115.16 1130.36,115.16C1132.39,115.16 1134.07,115.48 1135.37,116.12C1136.66,116.76 1137.68,117.59 1138.42,118.61C1139.16,119.63 1139.66,120.79 1139.92,122.09C1140.18,123.39 1140.32,124.7 1140.32,126.02C1140.32,127.54 1140.28,129.16 1140.19,130.88C1140.12,132.6 1140.06,134.32 1140.02,136.04C1140.02,138.04 1140.13,139.94 1140.38,141.74L1144.39,141.74L1144.39,145.64L1136.41,145.64L1135.88,141.14L1135.58,141.14C1135.34,141.5 1134.98,141.96 1134.5,142.52C1134.02,143.08 1133.38,143.63 1132.61,144.17C1131.83,144.71 1130.88,145.18 1129.76,145.58C1128.63,145.98 1127.32,146.18 1125.8,146.18C1122.84,146.18 1120.5,145.42 1118.78,143.9C1117.06,142.38 1116.19,140.3 1116.19,137.66C1116.19,135.62 1116.64,133.92 1117.55,132.56C1118.44,131.2 1119.74,130.16 1121.41,129.44C1123.1,128.72 1125.12,128.3 1127.51,128.18C1129.88,128.06 1132.56,128.22 1135.52,128.66C1135.71,126.82 1135.75,125.29 1135.61,124.07C1135.46,122.85 1135.14,121.88 1134.64,121.16C1134.14,120.44 1133.44,119.93 1132.55,119.63C1131.64,119.33 1130.54,119.18 1129.21,119.18C1127.41,119.18 1125.69,119.43 1124.06,119.93C1122.41,120.43 1120.95,120.94 1119.67,121.46L1118.17,117.98ZM1127,142.16C1128.12,142.16 1129.15,141.98 1130.12,141.62C1131.08,141.26 1131.91,140.8 1132.63,140.24C1133.36,139.68 1133.95,139.07 1134.43,138.41C1134.91,137.75 1135.28,137.12 1135.52,136.52L1135.52,132.32C1133.43,131.96 1131.52,131.78 1129.76,131.78C1128,131.78 1126.48,131.97 1125.19,132.35C1123.91,132.73 1122.91,133.32 1122.19,134.12C1121.48,134.92 1121.12,135.96 1121.12,137.24C1121.12,138.56 1121.57,139.71 1122.46,140.69C1123.37,141.67 1124.88,142.16 1127,142.16Z" style="fill:rgb(0,106,255);fill-rule:nonzero;"/>
    <path d="M1151.65,145.64L1151.65,141.62L1159.76,141.62L1159.76,119.66L1151.65,119.66L1151.65,115.64L1162.88,115.64L1163.84,119.54L1164.13,119.54C1165.5,118.3 1167.02,117.24 1168.69,116.36C1170.38,115.48 1172.38,115.04 1174.69,115.04C1176.06,115.04 1177.14,115.3 1177.96,115.82C1178.79,116.34 1179.42,117.1 1179.88,118.1C1180.35,119.1 1180.65,120.31 1180.82,121.73C1180.98,123.15 1181.06,124.76 1181.06,126.56L1176.86,126.62C1176.86,124.06 1176.61,122.18 1176.11,120.98C1175.61,119.78 1174.69,119.18 1173.38,119.18C1172.13,119.18 1171.02,119.36 1170.02,119.72C1169.02,120.08 1168.14,120.52 1167.4,121.04C1166.66,121.56 1166.04,122.08 1165.52,122.6C1165,123.12 1164.62,123.56 1164.38,123.92L1164.38,141.62L1175.89,141.62L1175.89,145.64L1151.65,145.64Z" style="fill:rgb(0,106,255);fill-rule:nonzero;"/>
    <path d="M1215.43,141.86C1214.71,142.5 1213.87,143.1 1212.88,143.66C1211.9,144.22 1210.84,144.7 1209.67,145.1C1208.52,145.5 1207.31,145.81 1206.05,146.03C1204.79,146.25 1203.52,146.36 1202.24,146.36C1199.84,146.36 1197.71,145.99 1195.88,145.25C1194.04,144.51 1192.5,143.45 1191.26,142.07C1190.02,140.69 1189.08,139.04 1188.43,137.12C1187.8,135.2 1187.48,133.04 1187.48,130.64C1187.48,128.12 1187.83,125.88 1188.53,123.92C1189.23,121.96 1190.24,120.32 1191.56,119C1192.88,117.68 1194.48,116.67 1196.36,115.97C1198.24,115.27 1200.34,114.92 1202.65,114.92C1204.34,114.92 1206,115.14 1207.63,115.58C1209.28,116.02 1210.73,116.85 1211.99,118.07C1213.25,119.29 1214.21,120.97 1214.89,123.11C1215.58,125.25 1215.82,128.02 1215.62,131.42L1192.39,131.42C1192.39,135.02 1193.37,137.71 1195.31,139.49C1197.25,141.27 1199.84,142.16 1203.08,142.16C1204.15,142.16 1205.23,142.03 1206.29,141.77C1207.35,141.51 1208.36,141.2 1209.32,140.84C1210.28,140.48 1211.12,140.08 1211.87,139.64C1212.61,139.2 1213.17,138.8 1213.58,138.44L1215.43,141.86ZM1202.78,118.88C1201.45,118.88 1200.2,119.02 1199.03,119.3C1197.85,119.58 1196.81,120.05 1195.9,120.71C1195.01,121.37 1194.27,122.23 1193.68,123.29C1193.11,124.35 1192.74,125.66 1192.58,127.22L1211.24,127.22C1211.04,124.58 1210.18,122.53 1208.68,121.07C1207.18,119.61 1205.21,118.88 1202.78,118.88Z" style="fill:rgb(0,106,255);fill-rule:nonzero;"/>
    <path d="M1225.28,126.14C1225.28,125.78 1225.27,125.31 1225.25,124.73C1225.23,124.15 1225.19,123.55 1225.15,122.93C1225.12,122.31 1225.07,121.7 1225.01,121.1C1224.94,120.5 1224.88,119.98 1224.8,119.54L1220.78,119.54L1220.78,115.64L1228.82,115.64L1229.36,120.5L1229.65,120.5C1230.06,119.82 1230.59,119.15 1231.25,118.49C1231.9,117.83 1232.67,117.23 1233.56,116.69C1234.43,116.15 1235.41,115.72 1236.5,115.4C1237.58,115.08 1238.71,114.92 1239.91,114.92C1241.76,114.92 1243.38,115.12 1244.81,115.52C1246.23,115.92 1247.4,116.63 1248.35,117.65C1249.29,118.67 1250,120.05 1250.48,121.79C1250.95,123.53 1251.19,125.74 1251.19,128.42L1251.19,145.64L1246.52,145.64L1246.52,129.32C1246.52,126 1245.98,123.5 1244.89,121.82C1243.82,120.14 1241.86,119.3 1239.02,119.3C1237.98,119.3 1236.96,119.51 1235.99,119.93C1235.01,120.35 1234.12,120.9 1233.32,121.58C1232.52,122.26 1231.82,123.05 1231.21,123.95C1230.62,124.85 1230.17,125.8 1229.89,126.8L1229.89,145.64L1225.28,145.64L1225.28,126.14Z" style="fill:rgb(0,106,255);fill-rule:nonzero;"/>
    <path d="M1260.67,143.66L1258.39,140.06L1282.28,126.2L1258.45,112.1L1260.74,108.38L1289,125.6L1289,127.34L1260.67,143.66Z" style="fill:rgb(0,106,255);fill-rule:nonzero;"/>
    <path d="M84.7,564.776L84.7,563.036L112.96,545.816L115.24,549.536L91.42,563.636L115.3,577.496L113.02,581.096L84.7,564.776Z" style="fill-rule:nonzero;"/>
    <path d="M123.76,563.576C123.76,563.216 123.75,562.746 123.73,562.166C123.71,561.586 123.68,560.986 123.64,560.366C123.6,559.746 123.55,559.136 123.49,558.536C123.43,557.936 123.36,557.416 123.28,556.976L119.26,556.976L119.26,553.076L127.24,553.076L127.84,557.276L128.14,557.276C129.22,555.876 130.59,554.706 132.25,553.766C133.91,552.826 135.94,552.356 138.34,552.356C142.62,552.356 145.84,553.536 148,555.896C150.16,558.256 151.24,562.116 151.24,567.476C151.24,569.996 150.87,572.266 150.13,574.286C149.39,576.306 148.34,578.016 146.98,579.416C145.62,580.816 143.98,581.896 142.06,582.656C140.14,583.416 138.02,583.796 135.7,583.796C134.86,583.796 134.11,583.766 133.45,583.706C132.79,583.646 132.19,583.566 131.65,583.466C131.11,583.366 130.58,583.236 130.06,583.076C129.54,582.916 128.98,582.716 128.38,582.476L128.38,595.076L123.76,595.076L123.76,563.576ZM137.56,556.736C136.36,556.736 135.23,556.956 134.17,557.396C133.11,557.836 132.17,558.416 131.35,559.136C130.53,559.856 129.86,560.656 129.34,561.536C128.82,562.416 128.5,563.296 128.38,564.176L128.38,577.856C129.26,578.456 130.25,578.926 131.35,579.266C132.45,579.606 133.9,579.776 135.7,579.776C138.9,579.776 141.46,578.726 143.38,576.626C145.3,574.526 146.26,571.456 146.26,567.416C146.26,564.016 145.59,561.386 144.25,559.526C142.91,557.666 140.68,556.736 137.56,556.736Z" style="fill-rule:nonzero;"/>
    <path d="M157.42,568.076C157.42,563.236 158.68,559.406 161.2,556.586C163.72,553.766 167.32,552.356 172,552.356C174.52,552.356 176.69,552.766 178.51,553.586C180.33,554.406 181.84,555.516 183.04,556.916C184.24,558.316 185.13,559.976 185.71,561.896C186.29,563.816 186.58,565.876 186.58,568.076C186.58,570.476 186.26,572.646 185.62,574.586C184.98,576.526 184.04,578.176 182.8,579.536C181.56,580.896 180.03,581.946 178.21,582.686C176.39,583.426 174.32,583.796 172,583.796C169.52,583.796 167.36,583.386 165.52,582.566C163.68,581.746 162.16,580.636 160.96,579.236C159.76,577.836 158.87,576.176 158.29,574.256C157.71,572.336 157.42,570.276 157.42,568.076ZM162.4,568.076C162.4,569.476 162.57,570.876 162.91,572.276C163.25,573.676 163.8,574.936 164.56,576.056C165.32,577.176 166.31,578.076 167.53,578.756C168.75,579.436 170.24,579.776 172,579.776C175.2,579.776 177.61,578.786 179.23,576.806C180.85,574.826 181.66,571.916 181.66,568.076C181.66,566.636 181.49,565.226 181.15,563.846C180.81,562.466 180.25,561.216 179.47,560.096C178.69,558.976 177.69,558.076 176.47,557.396C175.25,556.716 173.76,556.376 172,556.376C168.8,556.376 166.4,557.356 164.8,559.316C163.2,561.276 162.4,564.196 162.4,568.076Z" style="fill-rule:nonzero;"/>
    <path d="M196.3,583.076L196.3,579.056L206.74,579.056L206.74,557.096L196.3,557.096L196.3,553.076L211.54,553.076L211.54,579.056L221.74,579.056L221.74,583.076L196.3,583.076ZM205.12,544.556C205.12,543.476 205.48,542.546 206.2,541.766C206.92,540.986 207.84,540.596 208.96,540.596C210.12,540.596 211.09,540.986 211.87,541.766C212.65,542.546 213.04,543.476 213.04,544.556C213.04,545.596 212.65,546.476 211.87,547.196C211.09,547.916 210.12,548.276 208.96,548.276C207.84,548.276 206.92,547.916 206.2,547.196C205.48,546.476 205.12,545.596 205.12,544.556Z" style="fill-rule:nonzero;"/>
    <path d="M231.58,563.576C231.58,563.216 231.57,562.746 231.55,562.166C231.53,561.586 231.5,560.986 231.46,560.366C231.42,559.746 231.37,559.136 231.31,558.536C231.25,557.936 231.18,557.416 231.1,556.976L227.08,556.976L227.08,553.076L235.12,553.076L235.66,557.936L235.96,557.936C236.36,557.256 236.89,556.586 237.55,555.926C238.21,555.266 238.98,554.666 239.86,554.126C240.74,553.586 241.72,553.156 242.8,552.836C243.88,552.516 245.02,552.356 246.22,552.356C248.06,552.356 249.69,552.556 251.11,552.956C252.53,553.356 253.71,554.066 254.65,555.086C255.59,556.106 256.3,557.486 256.78,559.226C257.26,560.966 257.5,563.176 257.5,565.856L257.5,583.076L252.82,583.076L252.82,566.756C252.82,563.436 252.28,560.936 251.2,559.256C250.12,557.576 248.16,556.736 245.32,556.736C244.28,556.736 243.27,556.946 242.29,557.366C241.31,557.786 240.42,558.336 239.62,559.016C238.82,559.696 238.12,560.486 237.52,561.386C236.92,562.286 236.48,563.236 236.2,564.236L236.2,583.076L231.58,583.076L231.58,563.576Z" style="fill-rule:nonzero;"/>
    <path d="M263.86,553.076L271,553.076L271,547.136L275.68,545.816L275.68,553.076L291.7,553.076L291.7,557.096L275.68,557.096L275.68,571.256C275.68,574.176 276.39,576.336 277.81,577.736C279.23,579.136 281.26,579.836 283.9,579.836C285.7,579.836 287.27,579.496 288.61,578.816C289.95,578.136 291.16,577.396 292.24,576.596L293.8,580.136C292.4,581.256 290.73,582.156 288.79,582.836C286.85,583.516 284.86,583.856 282.82,583.856C281.22,583.856 279.71,583.626 278.29,583.166C276.87,582.706 275.62,581.996 274.54,581.036C273.46,580.076 272.6,578.846 271.96,577.346C271.32,575.846 271,574.056 271,571.976L271,557.096L263.86,557.096L263.86,553.076Z" style="fill-rule:nonzero;"/>
    <path d="M335.86,553.076L343,553.076L343,547.136L347.68,545.816L347.68,553.076L363.7,553.076L363.7,557.096L347.68,557.096L347.68,571.256C347.68,574.176 348.39,576.336 349.81,577.736C351.23,579.136 353.26,579.836 355.9,579.836C357.7,579.836 359.27,579.496 360.61,578.816C361.95,578.136 363.16,577.396 364.24,576.596L365.8,580.136C364.4,581.256 362.73,582.156 360.79,582.836C358.85,583.516 356.86,583.856 354.82,583.856C353.22,583.856 351.71,583.626 350.29,583.166C348.87,582.706 347.62,581.996 346.54,581.036C345.46,580.076 344.6,578.846 343.96,577.346C343.32,575.846 343,574.056 343,571.976L343,557.096L335.86,557.096L335.86,553.076Z" style="fill-rule:nonzero;"/>
    <path d="M401.74,579.296C401.02,579.936 400.17,580.536 399.19,581.096C398.21,581.656 397.14,582.136 395.98,582.536C394.82,582.936 393.61,583.246 392.35,583.466C391.09,583.686 389.82,583.796 388.54,583.796C386.14,583.796 384.02,583.426 382.18,582.686C380.34,581.946 378.8,580.886 377.56,579.506C376.32,578.126 375.38,576.476 374.74,574.556C374.1,572.636 373.78,570.476 373.78,568.076C373.78,565.556 374.13,563.316 374.83,561.356C375.53,559.396 376.54,557.756 377.86,556.436C379.18,555.116 380.78,554.106 382.66,553.406C384.54,552.706 386.64,552.356 388.96,552.356C390.64,552.356 392.3,552.576 393.94,553.016C395.58,553.456 397.03,554.286 398.29,555.506C399.55,556.726 400.52,558.406 401.2,560.546C401.88,562.686 402.12,565.456 401.92,568.856L378.7,568.856C378.7,572.456 379.67,575.146 381.61,576.926C383.55,578.706 386.14,579.596 389.38,579.596C390.46,579.596 391.53,579.466 392.59,579.206C393.65,578.946 394.66,578.636 395.62,578.276C396.58,577.916 397.43,577.516 398.17,577.076C398.91,576.636 399.48,576.236 399.88,575.876L401.74,579.296ZM389.08,556.316C387.76,556.316 386.51,556.456 385.33,556.736C384.15,557.016 383.11,557.486 382.21,558.146C381.31,558.806 380.57,559.666 379.99,560.726C379.41,561.786 379.04,563.096 378.88,564.656L397.54,564.656C397.34,562.016 396.49,559.966 394.99,558.506C393.49,557.046 391.52,556.316 389.08,556.316Z" style="fill-rule:nonzero;"/>
    <path d="M421.18,567.716L409.6,553.076L415.6,553.076L424.24,564.356L433.12,553.076L438.52,553.076L426.94,567.476L439.24,583.076L433.48,583.076L423.94,570.776L414.22,583.076L408.76,583.076L421.18,567.716Z" style="fill-rule:nonzero;"/>
    <path d="M443.86,553.076L451,553.076L451,547.136L455.68,545.816L455.68,553.076L471.7,553.076L471.7,557.096L455.68,557.096L455.68,571.256C455.68,574.176 456.39,576.336 457.81,577.736C459.23,579.136 461.26,579.836 463.9,579.836C465.7,579.836 467.27,579.496 468.61,578.816C469.95,578.136 471.16,577.396 472.24,576.596L473.8,580.136C472.4,581.256 470.73,582.156 468.79,582.836C466.85,583.516 464.86,583.856 462.82,583.856C461.22,583.856 459.71,583.626 458.29,583.166C456.87,582.706 455.62,581.996 454.54,581.036C453.46,580.076 452.6,578.846 451.96,577.346C451.32,575.846 451,574.056 451,571.976L451,557.096L443.86,557.096L443.86,553.076Z" style="fill-rule:nonzero;"/>
    <path d="M482.98,581.096L480.7,577.496L504.58,563.636L480.76,549.536L483.04,545.816L511.3,563.036L511.3,564.776L482.98,581.096Z" style="fill-rule:nonzero;"/>
    <path d="M356,34.012L356,31.012L384.02,13.612L387.44,19.012L365.6,32.212L387.44,45.112L384.02,50.512L356,34.012Z" style="fill-rule:nonzero;"/>
    <path d="M389.84,21.712L400.04,21.712L400.94,25.312L401.18,25.312C403.26,22.352 406.62,20.872 411.26,20.872C413.1,20.872 414.79,21.162 416.33,21.742C417.87,22.322 419.19,23.232 420.29,24.472C421.39,25.712 422.24,27.272 422.84,29.152C423.44,31.032 423.74,33.292 423.74,35.932C423.74,38.492 423.4,40.802 422.72,42.862C422.04,44.922 421.06,46.672 419.78,48.112C418.5,49.552 416.94,50.652 415.1,51.412C413.26,52.172 411.16,52.552 408.8,52.552C407.56,52.552 406.34,52.462 405.14,52.282C403.94,52.102 402.94,51.812 402.14,51.412L402.14,63.712L394.34,63.712L394.34,28.312L389.84,28.312L389.84,21.712ZM408.92,27.472C407.4,27.472 406.01,27.852 404.75,28.612C403.49,29.372 402.62,30.512 402.14,32.032L402.14,44.512C402.7,44.952 403.51,45.302 404.57,45.562C405.63,45.822 406.7,45.952 407.78,45.952C408.9,45.952 409.94,45.762 410.9,45.382C411.86,45.002 412.7,44.392 413.42,43.552C414.14,42.712 414.7,41.652 415.1,40.372C415.5,39.092 415.7,37.552 415.7,35.752C415.7,33.112 415.06,31.072 413.78,29.632C412.5,28.192 410.88,27.472 408.92,27.472Z" style="fill-rule:nonzero;"/>
    <path d="M427.94,36.712C427.94,34.192 428.32,31.952 429.08,29.992C429.84,28.032 430.92,26.372 432.32,25.012C433.72,23.652 435.39,22.622 437.33,21.922C439.27,21.222 441.44,20.872 443.84,20.872C446.36,20.872 448.61,21.252 450.59,22.012C452.57,22.772 454.24,23.842 455.6,25.222C456.96,26.602 457.99,28.272 458.69,30.232C459.39,32.192 459.74,34.352 459.74,36.712C459.74,39.232 459.36,41.472 458.6,43.432C457.84,45.392 456.76,47.052 455.36,48.412C453.96,49.772 452.29,50.802 450.35,51.502C448.41,52.202 446.24,52.552 443.84,52.552C441.32,52.552 439.07,52.172 437.09,51.412C435.11,50.652 433.44,49.582 432.08,48.202C430.72,46.822 429.69,45.152 428.99,43.192C428.29,41.232 427.94,39.072 427.94,36.712ZM435.98,36.712C435.98,38.032 436.16,39.252 436.52,40.372C436.88,41.492 437.4,42.472 438.08,43.312C438.76,44.152 439.58,44.802 440.54,45.262C441.5,45.722 442.6,45.952 443.84,45.952C446.16,45.952 448.05,45.212 449.51,43.732C450.97,42.252 451.7,39.912 451.7,36.712C451.7,33.952 451.02,31.722 449.66,30.022C448.3,28.322 446.36,27.472 443.84,27.472C442.72,27.472 441.68,27.642 440.72,27.982C439.76,28.322 438.93,28.872 438.23,29.632C437.53,30.392 436.98,31.352 436.58,32.512C436.18,33.672 435.98,35.072 435.98,36.712Z" style="fill-rule:nonzero;"/>
    <path d="M465.38,45.112L475.94,45.112L475.94,28.312L465.38,28.312L465.38,21.712L483.74,21.712L483.74,45.112L494.84,45.112L494.84,51.712L465.38,51.712L465.38,45.112ZM474.5,13.552C474.5,12.312 474.96,11.252 475.88,10.372C476.8,9.492 478.08,9.052 479.72,9.052C481.4,9.052 482.74,9.492 483.74,10.372C484.74,11.252 485.24,12.312 485.24,13.552C485.24,14.832 484.74,15.882 483.74,16.702C482.74,17.522 481.4,17.932 479.72,17.932C478.08,17.932 476.8,17.522 475.88,16.702C474.96,15.882 474.5,14.832 474.5,13.552Z" style="fill-rule:nonzero;"/>
    <path d="M498.56,21.712L509.06,21.712L509.96,25.672L510.2,25.672C511.12,24.392 512.44,23.272 514.16,22.312C515.88,21.352 517.94,20.872 520.34,20.872C521.82,20.872 523.21,21.072 524.51,21.472C525.81,21.872 526.92,22.532 527.84,23.452C528.76,24.372 529.49,25.622 530.03,27.202C530.57,28.782 530.84,30.732 530.84,33.052L530.84,51.712L523.04,51.712L523.04,34.672C523.04,32.232 522.49,30.472 521.39,29.392C520.29,28.312 518.9,27.772 517.22,27.772C515.74,27.772 514.39,28.202 513.17,29.062C511.95,29.922 511.12,30.992 510.68,32.272L510.68,51.712L502.88,51.712L502.88,28.312L498.56,28.312L498.56,21.712Z" style="fill-rule:nonzero;"/>
    <path d="M540.8,28.312L534.86,28.312L534.86,21.712L540.8,21.712L540.8,14.872L548.6,12.652L548.6,21.712L564.32,21.712L564.32,28.312L548.6,28.312L548.6,36.892C548.6,39.972 549.18,42.202 550.34,43.582C551.5,44.962 553.12,45.652 555.2,45.652C556.28,45.652 557.26,45.522 558.14,45.262C559.02,45.002 559.81,44.672 560.51,44.272C561.21,43.872 561.85,43.432 562.43,42.952C563.01,42.472 563.54,42.032 564.02,41.632L567.62,47.032C566.94,47.832 566.09,48.562 565.07,49.222C564.05,49.882 562.95,50.462 561.77,50.962C560.59,51.462 559.36,51.852 558.08,52.132C556.8,52.412 555.54,52.552 554.3,52.552C549.82,52.552 546.45,51.302 544.19,48.802C541.93,46.302 540.8,42.332 540.8,36.892L540.8,28.312Z" style="fill-rule:nonzero;"/>
    <path d="M612.8,28.312L606.86,28.312L606.86,21.712L612.8,21.712L612.8,14.872L620.6,12.652L620.6,21.712L636.32,21.712L636.32,28.312L620.6,28.312L620.6,36.892C620.6,39.972 621.18,42.202 622.34,43.582C623.5,44.962 625.12,45.652 627.2,45.652C628.28,45.652 629.26,45.522 630.14,45.262C631.02,45.002 631.81,44.672 632.51,44.272C633.21,43.872 633.85,43.432 634.43,42.952C635.01,42.472 635.54,42.032 636.02,41.632L639.62,47.032C638.94,47.832 638.09,48.562 637.07,49.222C636.05,49.882 634.95,50.462 633.77,50.962C632.59,51.462 631.36,51.852 630.08,52.132C628.8,52.412 627.54,52.552 626.3,52.552C621.82,52.552 618.45,51.302 616.19,48.802C613.93,46.302 612.8,42.332 612.8,36.892L612.8,28.312Z" style="fill-rule:nonzero;"/>
    <path d="M647.24,23.752C648.84,23.032 650.69,22.412 652.79,21.892C654.89,21.372 657.38,21.112 660.26,21.112C662.34,21.112 664.11,21.362 665.57,21.862C667.03,22.362 668.21,23.072 669.11,23.992C670.01,24.912 670.66,26.012 671.06,27.292C671.46,28.572 671.66,30.012 671.66,31.612C671.66,33.652 671.59,35.392 671.45,36.832C671.31,38.272 671.24,39.552 671.24,40.672C671.24,41.512 671.28,42.452 671.36,43.492C671.44,44.052 671.5,44.592 671.54,45.112L675.44,45.112L675.44,51.712L665.48,51.712L664.7,47.632L664.4,47.632C663.6,48.872 662.46,49.942 660.98,50.842C659.5,51.742 657.5,52.192 654.98,52.192C651.98,52.192 649.6,51.392 647.84,49.792C646.08,48.192 645.2,46.072 645.2,43.432C645.2,41.752 645.51,40.302 646.13,39.082C646.75,37.862 647.65,36.862 648.83,36.082C650.01,35.302 651.43,34.722 653.09,34.342C654.75,33.962 656.6,33.772 658.64,33.772C659.36,33.772 660.12,33.812 660.92,33.892C661.72,33.972 662.7,34.052 663.86,34.132C663.94,33.732 663.98,33.332 663.98,32.932L663.98,31.792C663.98,30.272 663.54,29.182 662.66,28.522C661.78,27.862 660.48,27.532 658.76,27.532C656.72,27.532 654.88,27.792 653.24,28.312C651.6,28.832 650.22,29.352 649.1,29.872L647.24,23.752ZM657.5,45.772C659.42,45.772 660.86,45.422 661.82,44.722C662.78,44.022 663.48,43.272 663.92,42.472L663.92,38.872C663.52,38.792 662.92,38.702 662.12,38.602C661.32,38.502 660.46,38.452 659.54,38.452C658.78,38.452 658.02,38.522 657.26,38.662C656.5,38.802 655.82,39.022 655.22,39.322C654.62,39.622 654.14,40.012 653.78,40.492C653.42,40.972 653.24,41.552 653.24,42.232C653.24,43.352 653.57,44.222 654.23,44.842C654.89,45.462 655.98,45.772 657.5,45.772Z" style="fill-rule:nonzero;"/>
    <path d="M709.64,51.712C709.64,53.872 709.27,55.752 708.53,57.352C707.79,58.952 706.77,60.282 705.47,61.342C704.17,62.402 702.63,63.182 700.85,63.682C699.07,64.182 697.12,64.432 695,64.432C693.56,64.432 692.21,64.322 690.95,64.102C689.69,63.882 688.53,63.592 687.47,63.232C686.41,62.872 685.48,62.482 684.68,62.062C683.88,61.642 683.24,61.232 682.76,60.832L685.76,55.312C686.72,55.952 687.87,56.562 689.21,57.142C690.55,57.722 692.24,58.012 694.28,58.012C696.8,58.012 698.72,57.432 700.04,56.272C701.36,55.112 702.02,53.452 702.02,51.292L702.02,49.372L701.78,49.372C701.06,50.332 700,51.042 698.6,51.502C697.2,51.962 695.58,52.192 693.74,52.192C691.82,52.192 690.05,51.892 688.43,51.292C686.81,50.692 685.4,49.782 684.2,48.562C683,47.342 682.07,45.792 681.41,43.912C680.75,42.032 680.42,39.832 680.42,37.312C680.42,34.672 680.81,32.332 681.59,30.292C682.37,28.252 683.47,26.542 684.89,25.162C686.31,23.782 688.01,22.742 689.99,22.042C691.97,21.342 694.18,20.992 696.62,20.992C697.9,20.992 699.18,21.042 700.46,21.142C701.74,21.242 702.95,21.372 704.09,21.532C705.23,21.692 706.28,21.882 707.24,22.102C708.2,22.322 709,22.552 709.64,22.792L709.64,51.712ZM695.24,45.952C696.76,45.952 698.13,45.612 699.35,44.932C700.57,44.252 701.4,43.232 701.84,41.872L701.84,28.372C701.28,28.132 700.49,27.942 699.47,27.802C698.45,27.662 697.48,27.592 696.56,27.592C695.44,27.592 694.39,27.772 693.41,28.132C692.43,28.492 691.57,29.062 690.83,29.842C690.09,30.622 689.51,31.602 689.09,32.782C688.67,33.962 688.46,35.372 688.46,37.012C688.46,38.452 688.64,39.732 689,40.852C689.36,41.972 689.86,42.912 690.5,43.672C691.14,44.432 691.86,45.002 692.66,45.382C693.46,45.762 694.32,45.952 695.24,45.952Z" style="fill-rule:nonzero;"/>
    <path d="M745.64,51.712C745.64,53.872 745.27,55.752 744.53,57.352C743.79,58.952 742.77,60.282 741.47,61.342C740.17,62.402 738.63,63.182 736.85,63.682C735.07,64.182 733.12,64.432 731,64.432C729.56,64.432 728.21,64.322 726.95,64.102C725.69,63.882 724.53,63.592 723.47,63.232C722.41,62.872 721.48,62.482 720.68,62.062C719.88,61.642 719.24,61.232 718.76,60.832L721.76,55.312C722.72,55.952 723.87,56.562 725.21,57.142C726.55,57.722 728.24,58.012 730.28,58.012C732.8,58.012 734.72,57.432 736.04,56.272C737.36,55.112 738.02,53.452 738.02,51.292L738.02,49.372L737.78,49.372C737.06,50.332 736,51.042 734.6,51.502C733.2,51.962 731.58,52.192 729.74,52.192C727.82,52.192 726.05,51.892 724.43,51.292C722.81,50.692 721.4,49.782 720.2,48.562C719,47.342 718.07,45.792 717.41,43.912C716.75,42.032 716.42,39.832 716.42,37.312C716.42,34.672 716.81,32.332 717.59,30.292C718.37,28.252 719.47,26.542 720.89,25.162C722.31,23.782 724.01,22.742 725.99,22.042C727.97,21.342 730.18,20.992 732.62,20.992C733.9,20.992 735.18,21.042 736.46,21.142C737.74,21.242 738.95,21.372 740.09,21.532C741.23,21.692 742.28,21.882 743.24,22.102C744.2,22.322 745,22.552 745.64,22.792L745.64,51.712ZM731.24,45.952C732.76,45.952 734.13,45.612 735.35,44.932C736.57,44.252 737.4,43.232 737.84,41.872L737.84,28.372C737.28,28.132 736.49,27.942 735.47,27.802C734.45,27.662 733.48,27.592 732.56,27.592C731.44,27.592 730.39,27.772 729.41,28.132C728.43,28.492 727.57,29.062 726.83,29.842C726.09,30.622 725.51,31.602 725.09,32.782C724.67,33.962 724.46,35.372 724.46,37.012C724.46,38.452 724.64,39.732 725,40.852C725.36,41.972 725.86,42.912 726.5,43.672C727.14,44.432 727.86,45.002 728.66,45.382C729.46,45.762 730.32,45.952 731.24,45.952Z" style="fill-rule:nonzero;"/>
    <path d="M781.88,48.532C781.36,49.012 780.69,49.482 779.87,49.942C779.05,50.402 778.09,50.832 776.99,51.232C775.89,51.632 774.68,51.952 773.36,52.192C772.04,52.432 770.64,52.552 769.16,52.552C766.6,52.552 764.31,52.192 762.29,51.472C760.27,50.752 758.56,49.702 757.16,48.322C755.76,46.942 754.69,45.282 753.95,43.342C753.21,41.402 752.84,39.192 752.84,36.712C752.84,34.072 753.26,31.762 754.1,29.782C754.94,27.802 756.09,26.152 757.55,24.832C759.01,23.512 760.72,22.522 762.68,21.862C764.64,21.202 766.76,20.872 769.04,20.872C770.56,20.872 772.13,21.072 773.75,21.472C775.37,21.872 776.86,22.562 778.22,23.542C779.58,24.522 780.69,25.832 781.55,27.472C782.41,29.112 782.84,31.192 782.84,33.712C782.84,35.432 782.64,37.292 782.24,39.292L760.64,39.292C760.68,40.572 760.95,41.652 761.45,42.532C761.95,43.412 762.61,44.132 763.43,44.692C764.25,45.252 765.19,45.662 766.25,45.922C767.31,46.182 768.44,46.312 769.64,46.312C772.04,46.312 774.01,46.032 775.55,45.472C777.09,44.912 778.34,44.232 779.3,43.432L781.88,48.532ZM768.92,27.112C767.88,27.112 766.9,27.252 765.98,27.532C765.06,27.812 764.23,28.222 763.49,28.762C762.75,29.302 762.14,29.972 761.66,30.772C761.18,31.572 760.9,32.472 760.82,33.472L775.58,33.472C775.58,31.512 775.03,29.962 773.93,28.822C772.83,27.682 771.16,27.112 768.92,27.112Z" style="fill-rule:nonzero;"/>
    <path d="M804.2,9.712L816.74,9.712L816.74,35.632C816.74,38.632 816.9,41.592 817.22,44.512C817.22,44.712 817.24,44.912 817.28,45.112L821.12,45.112L821.12,51.712L811.46,51.712L810.68,47.872L810.44,47.872C810.04,48.592 809.5,49.232 808.82,49.792C808.14,50.352 807.38,50.842 806.54,51.262C805.7,51.682 804.78,52.002 803.78,52.222C802.78,52.442 801.78,52.552 800.78,52.552C798.9,52.552 797.13,52.252 795.47,51.652C793.81,51.052 792.36,50.122 791.12,48.862C789.88,47.602 788.9,46.002 788.18,44.062C787.46,42.122 787.1,39.832 787.1,37.192C787.1,34.632 787.49,32.352 788.27,30.352C789.05,28.352 790.13,26.662 791.51,25.282C792.89,23.902 794.52,22.842 796.4,22.102C798.28,21.362 800.34,20.992 802.58,20.992C803.82,20.992 804.99,21.062 806.09,21.202C807.19,21.342 808.14,21.572 808.94,21.892L808.94,16.312L804.2,16.312L804.2,9.712ZM802.58,45.952C804.1,45.952 805.45,45.582 806.63,44.842C807.81,44.102 808.58,43.032 808.94,41.632L808.94,28.912C808.38,28.472 807.61,28.142 806.63,27.922C805.65,27.702 804.62,27.592 803.54,27.592C802.46,27.592 801.41,27.772 800.39,28.132C799.37,28.492 798.47,29.062 797.69,29.842C796.91,30.622 796.29,31.632 795.83,32.872C795.37,34.112 795.14,35.632 795.14,37.432C795.14,39.992 795.78,42.052 797.06,43.612C798.34,45.172 800.18,45.952 802.58,45.952Z" style="fill-rule:nonzero;"/>
    <path d="M864.8,28.312L858.86,28.312L858.86,21.712L864.8,21.712L864.8,14.872L872.6,12.652L872.6,21.712L888.32,21.712L888.32,28.312L872.6,28.312L872.6,36.892C872.6,39.972 873.18,42.202 874.34,43.582C875.5,44.962 877.12,45.652 879.2,45.652C880.28,45.652 881.26,45.522 882.14,45.262C883.02,45.002 883.81,44.672 884.51,44.272C885.21,43.872 885.85,43.432 886.43,42.952C887.01,42.472 887.54,42.032 888.02,41.632L891.62,47.032C890.94,47.832 890.09,48.562 889.07,49.222C888.05,49.882 886.95,50.462 885.77,50.962C884.59,51.462 883.36,51.852 882.08,52.132C880.8,52.412 879.54,52.552 878.3,52.552C873.82,52.552 870.45,51.302 868.19,48.802C865.93,46.302 864.8,42.332 864.8,36.892L864.8,28.312Z" style="fill-rule:nonzero;"/>
    <path d="M925.88,48.532C925.36,49.012 924.69,49.482 923.87,49.942C923.05,50.402 922.09,50.832 920.99,51.232C919.89,51.632 918.68,51.952 917.36,52.192C916.04,52.432 914.64,52.552 913.16,52.552C910.6,52.552 908.31,52.192 906.29,51.472C904.27,50.752 902.56,49.702 901.16,48.322C899.76,46.942 898.69,45.282 897.95,43.342C897.21,41.402 896.84,39.192 896.84,36.712C896.84,34.072 897.26,31.762 898.1,29.782C898.94,27.802 900.09,26.152 901.55,24.832C903.01,23.512 904.72,22.522 906.68,21.862C908.64,21.202 910.76,20.872 913.04,20.872C914.56,20.872 916.13,21.072 917.75,21.472C919.37,21.872 920.86,22.562 922.22,23.542C923.58,24.522 924.69,25.832 925.55,27.472C926.41,29.112 926.84,31.192 926.84,33.712C926.84,35.432 926.64,37.292 926.24,39.292L904.64,39.292C904.68,40.572 904.95,41.652 905.45,42.532C905.95,43.412 906.61,44.132 907.43,44.692C908.25,45.252 909.19,45.662 910.25,45.922C911.31,46.182 912.44,46.312 913.64,46.312C916.04,46.312 918.01,46.032 919.55,45.472C921.09,44.912 922.34,44.232 923.3,43.432L925.88,48.532ZM912.92,27.112C911.88,27.112 910.9,27.252 909.98,27.532C909.06,27.812 908.23,28.222 907.49,28.762C906.75,29.302 906.14,29.972 905.66,30.772C905.18,31.572 904.9,32.472 904.82,33.472L919.58,33.472C919.58,31.512 919.03,29.962 917.93,28.822C916.83,27.682 915.16,27.112 912.92,27.112Z" style="fill-rule:nonzero;"/>
    <path d="M942.5,36.232L932.06,21.712L941.36,21.712L948.14,31.732L955.22,21.712L963.68,21.712L953.42,36.112L964.28,51.712L955.22,51.712L947.6,40.672L939.86,51.712L931.34,51.712L942.5,36.232Z" style="fill-rule:nonzero;"/>
    <path d="M972.8,28.312L966.86,28.312L966.86,21.712L972.8,21.712L972.8,14.872L980.6,12.652L980.6,21.712L996.32,21.712L996.32,28.312L980.6,28.312L980.6,36.892C980.6,39.972 981.18,42.202 982.34,43.582C983.5,44.962 985.12,45.652 987.2,45.652C988.28,45.652 989.26,45.522 990.14,45.262C991.02,45.002 991.81,44.672 992.51,44.272C993.21,43.872 993.85,43.432 994.43,42.952C995.01,42.472 995.54,42.032 996.02,41.632L999.62,47.032C998.94,47.832 998.09,48.562 997.07,49.222C996.05,49.882 994.95,50.462 993.77,50.962C992.59,51.462 991.36,51.852 990.08,52.132C988.8,52.412 987.54,52.552 986.3,52.552C981.82,52.552 978.45,51.302 976.19,48.802C973.93,46.302 972.8,42.332 972.8,36.892L972.8,28.312Z" style="fill-rule:nonzero;"/>
    <path d="M1007.42,50.512L1004,45.112L1025.84,32.212L1004,19.012L1007.42,13.612L1035.44,31.012L1035.44,34.012L1007.42,50.512Z" style="fill-rule:nonzero;"/>
    <rect x="445" y="261.433" width="289.752" height="122.5" style="fill:none;stroke:rgb(0,204,0);stroke-width:2px;"/>
    <rect x="787.534" y="261.433" width="242.752" height="122.5" style="fill:none;stroke:rgb(0,204,0);stroke-width:2px;"/>
    <rect x="356" y="214" width="744" height="216.11" style="fill:none;stroke:black;stroke-width:2px;"/>
    <rect x="432" y="243" width="614" height="160.11" style="fill:none;stroke:rgb(255,0,255);stroke-width:2px;"/>
    <rect x="4" y="187.011" width="1113.69" height="262.099" style="fill:none;stroke:black;stroke-width:4px;"/>
    <path d="M707,92L707,187.011" style="fill:none;stroke:black;stroke-width:4px;"/>
    <path d="M413.404,271.011L413.404,189.011" style="fill:none;stroke:rgb(255,0,0);stroke-width:2px;"/>
    <path d="M583.134,485.33L583.134,384.254" style="fill:none;stroke:rgb(0,204,0);stroke-width:2px;"/>
    <path d="M583.134,629.847L583.134,547.847" style="fill:none;stroke:rgb(0,204,0);stroke-width:2px;"/>
    <path d="M912.94,629.847L912.94,556.847" style="fill:none;stroke:rgb(0,204,0);stroke-width:2px;"/>
    <path d="M761.856,524.467L761.856,402.467" style="fill:none;stroke:rgb(255,0,255);stroke-width:2px;"/>
    <path d="M404.028,524.467L404.028,430.11" style="fill:none;stroke:black;stroke-width:2px;"/>
    <path d="M914.668,485.33L914.668,384.254" style="fill:none;stroke:rgb(0,204,0);stroke-width:2px;"/>
    <path d="M1071.67,261.433L1071.67,179.433" style="fill:none;stroke:rgb(0,106,255);stroke-width:2px;"/>
</svg>
