<?xml version="1.0" encoding="UTF-8" standalone="no"?>
<!DOCTYPE svg PUBLIC "-//W3C//DTD SVG 1.1//EN" "http://www.w3.org/Graphics/SVG/1.1/DTD/svg11.dtd">
<svg width="100%" height="100%" viewBox="0 0 1291 821" version="1.1" xmlns="http://www.w3.org/2000/svg" xmlns:xlink="http://www.w3.org/1999/xlink" xml:space="preserve" xmlns:serif="http://www.serif.com/" style="fill-rule:evenodd;clip-rule:evenodd;stroke-linejoin:round;stroke-miterlimit:10;">
    <rect id="Artboard10" x="-310" y="-271" width="8206" height="4260" style="fill:none;"/>
    <g id="Artboard101" serif:id="Artboard10">
        <path d="M26.221,409.561L88.873,304.541L91.944,177.072L201.629,325.185L279.148,277.734L266.855,193.064L357.604,137.735L425.615,243.626L450.891,360.957L562.684,248.935L589.395,418.014L502.012,540.868L471.306,661.302L395.92,631.406L325.71,540.868L241.379,624.655L222.203,737.489L155.265,767.385L130.909,691.198L161.666,607.003L141.347,486.022L66.541,543.646L26.221,409.561Z" style="fill:rgb(217,217,217);stroke:black;stroke-width:6px;"/>
        <path d="M653.279,409.561L715.93,304.541L719.002,177.072L828.686,325.185L906.205,277.734L893.912,193.064L984.662,137.735L1052.67,243.626L1077.95,360.957L1189.74,248.935L1216.45,418.014L1129.07,540.868L1098.36,661.302L1022.98,631.406L952.768,540.868L868.436,624.655L849.26,737.489L782.322,767.385L757.967,691.198L788.723,607.003L768.405,486.022L693.599,543.646L653.279,409.561Z" style="fill:rgb(217,217,217);stroke:black;stroke-width:6px;"/>
        <path d="M715.93,304.541L828.686,325.185" style="fill:none;stroke:black;stroke-width:6px;"/>
        <path d="M653.279,409.561L828.686,325.185" style="fill:none;stroke:black;stroke-width:6px;"/>
        <path d="M906.205,277.734L984.662,137.735" style="fill:none;stroke:black;stroke-width:6px;"/>
        <path d="M906.205,277.734L1052.67,243.626" style="fill:none;stroke:black;stroke-width:6px;"/>
        <path d="M906.205,277.734L1077.95,360.957" style="fill:none;stroke:black;stroke-width:6px;"/>
        <path d="M828.686,325.185L1077.95,360.957" style="fill:none;stroke:black;stroke-width:6px;"/>
        <path d="M653.279,409.561L1077.95,360.957" style="fill:none;stroke:black;stroke-width:6px;"/>
        <path d="M1077.95,360.957L1216.45,418.014" style="fill:none;stroke:black;stroke-width:6px;"/>
        <path d="M653.279,409.561L768.405,486.022" style="fill:none;stroke:black;stroke-width:6px;"/>
        <path d="M768.405,486.022L1077.95,360.957" style="fill:none;stroke:black;stroke-width:6px;"/>
        <path d="M768.405,486.022L1216.45,418.014" style="fill:none;stroke:black;stroke-width:6px;"/>
        <path d="M768.405,486.022L952.768,540.868" style="fill:none;stroke:black;stroke-width:6px;"/>
        <path d="M952.768,540.868L1216.45,418.014" style="fill:none;stroke:black;stroke-width:6px;"/>
        <path d="M952.768,540.868L1129.07,540.868" style="fill:none;stroke:black;stroke-width:6px;"/>
        <path d="M1022.98,631.406L1129.07,540.868" style="fill:none;stroke:black;stroke-width:6px;"/>
        <path d="M868.436,624.655L768.405,486.022" style="fill:none;stroke:black;stroke-width:6px;"/>
        <path d="M788.723,607.003L868.436,624.655" style="fill:none;stroke:black;stroke-width:6px;"/>
        <path d="M757.967,691.198L868.436,624.655" style="fill:none;stroke:black;stroke-width:6px;"/>
        <path d="M757.967,691.198L849.26,737.489" style="fill:none;stroke:black;stroke-width:6px;"/>
        <path d="M210.896,25.977L191.516,25.977L191.516,63.537L186.536,63.537L186.536,21.537L215.876,21.537L215.876,63.537L210.896,63.537L210.896,25.977Z" style="fill-rule:nonzero;"/>
        <path d="M223.916,48.537C223.916,43.457 225.046,39.567 227.306,36.867C229.566,34.167 232.816,32.817 237.056,32.817C239.296,32.817 241.246,33.187 242.906,33.927C244.566,34.667 245.936,35.727 247.016,37.107C248.096,38.487 248.896,40.147 249.416,42.087C249.936,44.027 250.196,46.177 250.196,48.537C250.196,53.617 249.066,57.507 246.806,60.207C244.546,62.907 241.296,64.257 237.056,64.257C234.816,64.257 232.866,63.887 231.206,63.147C229.546,62.407 228.176,61.347 227.096,59.967C226.016,58.587 225.216,56.927 224.696,54.987C224.176,53.047 223.916,50.897 223.916,48.537ZM228.896,48.537C228.896,50.057 229.046,51.517 229.346,52.917C229.646,54.317 230.116,55.537 230.756,56.577C231.396,57.617 232.236,58.457 233.276,59.097C234.316,59.737 235.576,60.057 237.056,60.057C242.496,60.097 245.216,56.257 245.216,48.537C245.216,46.977 245.066,45.497 244.766,44.097C244.466,42.697 243.996,41.477 243.356,40.437C242.716,39.397 241.876,38.567 240.836,37.947C239.796,37.327 238.536,37.017 237.056,37.017C231.616,36.977 228.896,40.817 228.896,48.537Z" style="fill-rule:nonzero;"/>
        <path d="M273.896,37.737L265.196,37.737C265.076,39.417 264.956,41.227 264.836,43.167C264.716,45.107 264.536,47.047 264.296,48.987C264.056,50.927 263.736,52.787 263.336,54.567C262.936,56.347 262.426,57.917 261.806,59.277C261.186,60.637 260.426,61.727 259.526,62.547C258.626,63.367 257.556,63.777 256.316,63.777C255.556,63.777 254.896,63.737 254.336,63.657C253.776,63.577 253.276,63.437 252.836,63.237L253.556,59.217C254.036,59.377 254.556,59.457 255.116,59.457C255.916,59.457 256.636,59.117 257.276,58.437C257.916,57.757 258.476,56.467 258.956,54.567C259.436,52.667 259.836,50.037 260.156,46.677C260.476,43.317 260.696,38.937 260.816,33.537L278.696,33.537L278.696,63.537L273.896,63.537L273.896,37.737Z" style="fill-rule:nonzero;"/>
        <path d="M306.656,45.777L306.836,42.057L306.656,42.057L304.196,45.897L290.696,63.537L287.936,63.537L287.936,33.537L292.736,33.537L292.736,51.837L292.556,55.377L292.796,55.377L295.136,51.657L308.636,33.537L311.456,33.537L311.456,63.537L306.656,63.537L306.656,45.777Z" style="fill-rule:nonzero;"/>
        <path d="M338.216,37.737L325.496,37.737L325.496,63.537L320.696,63.537L320.696,33.537L338.216,33.537L338.216,37.737Z" style="fill-rule:nonzero;"/>
        <path d="M341.156,48.537C341.156,43.457 342.286,39.567 344.546,36.867C346.806,34.167 350.056,32.817 354.296,32.817C356.536,32.817 358.486,33.187 360.146,33.927C361.806,34.667 363.176,35.727 364.256,37.107C365.336,38.487 366.136,40.147 366.656,42.087C367.176,44.027 367.436,46.177 367.436,48.537C367.436,53.617 366.306,57.507 364.046,60.207C361.786,62.907 358.536,64.257 354.296,64.257C352.056,64.257 350.106,63.887 348.446,63.147C346.786,62.407 345.416,61.347 344.336,59.967C343.256,58.587 342.456,56.927 341.936,54.987C341.416,53.047 341.156,50.897 341.156,48.537ZM346.136,48.537C346.136,50.057 346.286,51.517 346.586,52.917C346.886,54.317 347.356,55.537 347.996,56.577C348.636,57.617 349.476,58.457 350.516,59.097C351.556,59.737 352.816,60.057 354.296,60.057C359.736,60.097 362.456,56.257 362.456,48.537C362.456,46.977 362.306,45.497 362.006,44.097C361.706,42.697 361.236,41.477 360.596,40.437C359.956,39.397 359.116,38.567 358.076,37.947C357.036,37.327 355.776,37.017 354.296,37.017C348.856,36.977 346.136,40.817 346.136,48.537Z" style="fill-rule:nonzero;"/>
        <path d="M393.356,50.277L379.796,50.277L379.796,63.537L374.996,63.537L374.996,33.537L379.796,33.537L379.796,46.077L393.356,46.077L393.356,33.537L398.156,33.537L398.156,63.537L393.356,63.537L393.356,50.277Z" style="fill-rule:nonzero;"/>
        <path d="M662.188,25.977L649.108,25.977L649.108,63.537L644.128,63.537L644.128,25.977L631.048,25.977L631.048,21.537L662.188,21.537L662.188,25.977Z" style="fill-rule:nonzero;"/>
        <path d="M661.888,33.537L665.188,33.537L666.088,37.137L666.328,37.137C667.248,35.737 668.438,34.667 669.898,33.927C671.358,33.187 673.028,32.817 674.908,32.817C678.908,32.817 681.888,33.997 683.848,36.357C685.808,38.717 686.788,42.577 686.788,47.937C686.788,50.457 686.458,52.727 685.798,54.747C685.138,56.767 684.208,58.477 683.008,59.877C681.808,61.277 680.358,62.357 678.658,63.117C676.958,63.877 675.068,64.257 672.988,64.257C671.508,64.257 670.338,64.167 669.478,63.987C668.618,63.807 667.688,63.497 666.688,63.057L666.688,75.537L661.888,75.537L661.888,33.537ZM674.008,37.017C671.968,37.017 670.358,37.547 669.178,38.607C667.998,39.667 667.168,41.277 666.688,43.437L666.688,58.317C667.408,58.877 668.228,59.307 669.148,59.607C670.068,59.907 671.288,60.057 672.808,60.057C675.568,60.057 677.758,59.027 679.378,56.967C680.998,54.907 681.808,51.877 681.808,47.877C681.808,46.237 681.668,44.747 681.388,43.407C681.108,42.067 680.658,40.927 680.038,39.987C679.418,39.047 678.618,38.317 677.638,37.797C676.658,37.277 675.448,37.017 674.008,37.017Z" style="fill-rule:nonzero;"/>
        <path d="M713.668,45.777L713.848,42.057L713.668,42.057L711.208,45.897L697.708,63.537L694.948,63.537L694.948,33.537L699.748,33.537L699.748,51.837L699.568,55.377L699.808,55.377L702.148,51.657L715.648,33.537L718.468,33.537L718.468,63.537L713.668,63.537L713.668,45.777Z" style="fill-rule:nonzero;"/>
        <path d="M727.828,35.757C729.348,34.837 731.118,34.157 733.138,33.717C735.158,33.277 737.268,33.057 739.468,33.057C741.548,33.057 743.218,33.337 744.478,33.897C745.738,34.457 746.698,35.187 747.358,36.087C748.018,36.987 748.458,37.977 748.678,39.057C748.898,40.137 749.008,41.217 749.008,42.297C749.008,44.697 748.948,47.037 748.828,49.317C748.708,51.597 748.648,53.757 748.648,55.797C748.648,57.277 748.708,58.677 748.828,59.997C748.948,61.317 749.168,62.537 749.488,63.657L745.948,63.657L744.688,59.457L744.388,59.457C744.028,60.017 743.578,60.567 743.038,61.107C742.498,61.647 741.848,62.127 741.088,62.547C740.328,62.967 739.448,63.317 738.448,63.597C737.448,63.877 736.308,64.017 735.028,64.017C733.748,64.017 732.558,63.817 731.458,63.417C730.358,63.017 729.408,62.447 728.608,61.707C727.808,60.967 727.178,60.077 726.718,59.037C726.258,57.997 726.028,56.817 726.028,55.497C726.028,53.737 726.388,52.267 727.108,51.087C727.828,49.907 728.838,48.967 730.138,48.267C731.438,47.567 732.998,47.067 734.818,46.767C736.638,46.467 738.648,46.317 740.848,46.317L742.498,46.317C743.038,46.317 743.588,46.357 744.148,46.437C744.268,45.237 744.328,44.157 744.328,43.197C744.328,40.997 743.888,39.457 743.008,38.577C742.128,37.697 740.528,37.257 738.208,37.257C737.528,37.257 736.798,37.307 736.018,37.407C735.238,37.507 734.438,37.647 733.618,37.827C732.798,38.007 732.018,38.227 731.278,38.487C730.538,38.747 729.888,39.037 729.328,39.357L727.828,35.757ZM736.348,59.817C737.468,59.817 738.468,59.667 739.348,59.367C740.228,59.067 740.988,58.687 741.628,58.227C742.268,57.767 742.798,57.257 743.218,56.697C743.638,56.137 743.948,55.597 744.148,55.077L744.148,50.097C743.588,50.057 743.018,50.027 742.438,50.007C741.858,49.987 741.288,49.977 740.728,49.977C739.488,49.977 738.278,50.047 737.098,50.187C735.918,50.327 734.878,50.587 733.978,50.967C733.078,51.347 732.358,51.867 731.818,52.527C731.278,53.187 731.008,54.017 731.008,55.017C731.008,56.417 731.508,57.567 732.508,58.467C733.508,59.367 734.788,59.817 736.348,59.817Z" style="fill-rule:nonzero;"/>
        <path d="M777.028,50.277L763.468,50.277L763.468,63.537L758.668,63.537L758.668,33.537L763.468,33.537L763.468,46.077L777.028,46.077L777.028,33.537L781.828,33.537L781.828,63.537L777.028,63.537L777.028,50.277Z" style="fill-rule:nonzero;"/>
        <path d="M809.188,37.737L796.468,37.737L796.468,63.537L791.668,63.537L791.668,33.537L809.188,33.537L809.188,37.737Z" style="fill-rule:nonzero;"/>
        <path d="M823.228,52.977L824.908,58.737L825.208,58.737L826.528,52.917L832.348,33.537L837.208,33.537L828.328,60.477C827.648,62.437 826.978,64.337 826.318,66.177C825.658,68.017 824.928,69.657 824.128,71.097C823.328,72.537 822.428,73.687 821.428,74.547C820.428,75.407 819.268,75.837 817.948,75.837C816.508,75.837 815.328,75.637 814.408,75.237L815.248,71.097C815.768,71.297 816.268,71.397 816.748,71.397C817.868,71.397 818.948,70.807 819.988,69.627C821.028,68.447 821.888,66.417 822.568,63.537L810.508,33.537L816.028,33.537L823.228,52.977Z" style="fill-rule:nonzero;"/>
        <path d="M859.108,37.737L850.408,37.737C850.288,39.417 850.168,41.227 850.048,43.167C849.928,45.107 849.748,47.047 849.508,48.987C849.268,50.927 848.948,52.787 848.548,54.567C848.148,56.347 847.638,57.917 847.018,59.277C846.398,60.637 845.638,61.727 844.738,62.547C843.838,63.367 842.768,63.777 841.528,63.777C840.768,63.777 840.108,63.737 839.548,63.657C838.988,63.577 838.488,63.437 838.048,63.237L838.768,59.217C839.248,59.377 839.768,59.457 840.328,59.457C841.128,59.457 841.848,59.117 842.488,58.437C843.128,57.757 843.688,56.467 844.168,54.567C844.648,52.667 845.048,50.037 845.368,46.677C845.688,43.317 845.908,38.937 846.028,33.537L863.908,33.537L863.908,63.537L859.108,63.537L859.108,37.737Z" style="fill-rule:nonzero;"/>
        <path d="M888.688,51.117L884.068,51.837L876.148,63.537L870.328,63.537L877.528,53.277L879.928,51.057C877.848,50.737 876.078,49.897 874.618,48.537C873.158,47.177 872.428,45.337 872.428,43.017C872.428,41.217 872.738,39.677 873.358,38.397C873.978,37.117 874.868,36.057 876.028,35.217C877.188,34.377 878.568,33.767 880.168,33.387C881.768,33.007 883.568,32.817 885.568,32.817C887.048,32.817 888.428,32.917 889.708,33.117C890.988,33.317 892.248,33.537 893.488,33.777L893.488,63.537L888.688,63.537L888.688,51.117ZM888.688,37.617C888.168,37.417 887.588,37.267 886.948,37.167C886.308,37.067 885.748,37.017 885.268,37.017C882.708,37.017 880.758,37.477 879.418,38.397C878.078,39.317 877.408,40.777 877.408,42.777C877.408,44.577 878.118,45.967 879.538,46.947C880.958,47.927 882.828,48.417 885.148,48.417L885.808,48.417C886.048,48.417 886.388,48.407 886.828,48.387C887.268,48.367 887.888,48.337 888.688,48.297L888.688,37.617Z" style="fill-rule:nonzero;"/>
        <path d="M929.788,71.157L926.548,71.157L925.648,63.537L902.848,63.537L902.848,33.537L907.648,33.537L907.648,59.337L920.668,59.337L920.668,33.537L925.468,33.537L925.468,59.337L929.788,59.337L929.788,71.157Z" style="fill-rule:nonzero;"/>
        <path d="M955.048,45.777L955.228,42.057L955.048,42.057L952.588,45.897L939.088,63.537L936.328,63.537L936.328,33.537L941.128,33.537L941.128,51.837L940.948,55.377L941.188,55.377L943.528,51.657L957.028,33.537L959.848,33.537L959.848,63.537L955.048,63.537L955.048,45.777Z" style="fill-rule:nonzero;"/>
        <path d="M984.628,51.117L980.008,51.837L972.088,63.537L966.268,63.537L973.468,53.277L975.868,51.057C973.788,50.737 972.018,49.897 970.558,48.537C969.098,47.177 968.368,45.337 968.368,43.017C968.368,41.217 968.678,39.677 969.298,38.397C969.918,37.117 970.808,36.057 971.968,35.217C973.128,34.377 974.508,33.767 976.108,33.387C977.708,33.007 979.508,32.817 981.508,32.817C982.988,32.817 984.368,32.917 985.648,33.117C986.928,33.317 988.188,33.537 989.428,33.777L989.428,63.537L984.628,63.537L984.628,51.117ZM984.628,37.617C984.108,37.417 983.528,37.267 982.888,37.167C982.248,37.067 981.688,37.017 981.208,37.017C978.648,37.017 976.698,37.477 975.358,38.397C974.018,39.317 973.348,40.777 973.348,42.777C973.348,44.577 974.058,45.967 975.478,46.947C976.898,47.927 978.768,48.417 981.088,48.417L981.748,48.417C981.988,48.417 982.328,48.407 982.768,48.387C983.208,48.367 983.828,48.337 984.628,48.297L984.628,37.617Z" style="fill-rule:nonzero;"/>
        <path d="M1033.47,37.737L1020.21,37.737L1020.21,63.537L1015.41,63.537L1015.41,33.537L1038.27,33.537L1038.27,63.537L1033.47,63.537L1033.47,37.737Z" style="fill-rule:nonzero;"/>
        <path d="M1046.43,48.537C1046.43,43.457 1047.56,39.567 1049.82,36.867C1052.08,34.167 1055.33,32.817 1059.57,32.817C1061.81,32.817 1063.76,33.187 1065.42,33.927C1067.08,34.667 1068.45,35.727 1069.53,37.107C1070.61,38.487 1071.41,40.147 1071.93,42.087C1072.45,44.027 1072.71,46.177 1072.71,48.537C1072.71,53.617 1071.58,57.507 1069.32,60.207C1067.06,62.907 1063.81,64.257 1059.57,64.257C1057.33,64.257 1055.38,63.887 1053.72,63.147C1052.06,62.407 1050.69,61.347 1049.61,59.967C1048.53,58.587 1047.73,56.927 1047.21,54.987C1046.69,53.047 1046.43,50.897 1046.43,48.537ZM1051.41,48.537C1051.41,50.057 1051.56,51.517 1051.86,52.917C1052.16,54.317 1052.63,55.537 1053.27,56.577C1053.91,57.617 1054.75,58.457 1055.79,59.097C1056.83,59.737 1058.09,60.057 1059.57,60.057C1065.01,60.097 1067.73,56.257 1067.73,48.537C1067.73,46.977 1067.58,45.497 1067.28,44.097C1066.98,42.697 1066.51,41.477 1065.87,40.437C1065.23,39.397 1064.39,38.567 1063.35,37.947C1062.31,37.327 1061.05,37.017 1059.57,37.017C1054.13,36.977 1051.41,40.817 1051.41,48.537Z" style="fill-rule:nonzero;"/>
        <path d="M1097.01,37.737L1088.31,37.737C1088.19,39.417 1088.07,41.227 1087.95,43.167C1087.83,45.107 1087.65,47.047 1087.41,48.987C1087.17,50.927 1086.85,52.787 1086.45,54.567C1086.05,56.347 1085.54,57.917 1084.92,59.277C1084.3,60.637 1083.54,61.727 1082.64,62.547C1081.74,63.367 1080.67,63.777 1079.43,63.777C1078.67,63.777 1078.01,63.737 1077.45,63.657C1076.89,63.577 1076.39,63.437 1075.95,63.237L1076.67,59.217C1077.15,59.377 1077.67,59.457 1078.23,59.457C1079.03,59.457 1079.75,59.117 1080.39,58.437C1081.03,57.757 1081.59,56.467 1082.07,54.567C1082.55,52.667 1082.95,50.037 1083.27,46.677C1083.59,43.317 1083.81,38.937 1083.93,33.537L1101.81,33.537L1101.81,63.537L1097.01,63.537L1097.01,37.737Z" style="fill-rule:nonzero;"/>
        <path d="M1130.37,45.777L1130.55,42.057L1130.37,42.057L1127.91,45.897L1114.41,63.537L1111.65,63.537L1111.65,33.537L1116.45,33.537L1116.45,51.837L1116.27,55.377L1116.51,55.377L1118.85,51.657L1132.35,33.537L1135.17,33.537L1135.17,63.537L1130.37,63.537L1130.37,45.777Z" style="fill-rule:nonzero;"/>
        <path d="M1162.53,37.737L1149.81,37.737L1149.81,63.537L1145.01,63.537L1145.01,33.537L1162.53,33.537L1162.53,37.737Z" style="fill-rule:nonzero;"/>
        <path d="M1166.07,48.537C1166.07,43.457 1167.2,39.567 1169.46,36.867C1171.72,34.167 1174.97,32.817 1179.21,32.817C1181.45,32.817 1183.4,33.187 1185.06,33.927C1186.72,34.667 1188.09,35.727 1189.17,37.107C1190.25,38.487 1191.05,40.147 1191.57,42.087C1192.09,44.027 1192.35,46.177 1192.35,48.537C1192.35,53.617 1191.22,57.507 1188.96,60.207C1186.7,62.907 1183.45,64.257 1179.21,64.257C1176.97,64.257 1175.02,63.887 1173.36,63.147C1171.7,62.407 1170.33,61.347 1169.25,59.967C1168.17,58.587 1167.37,56.927 1166.85,54.987C1166.33,53.047 1166.07,50.897 1166.07,48.537ZM1171.05,48.537C1171.05,50.057 1171.2,51.517 1171.5,52.917C1171.8,54.317 1172.27,55.537 1172.91,56.577C1173.55,57.617 1174.39,58.457 1175.43,59.097C1176.47,59.737 1177.73,60.057 1179.21,60.057C1184.65,60.097 1187.37,56.257 1187.37,48.537C1187.37,46.977 1187.22,45.497 1186.92,44.097C1186.62,42.697 1186.15,41.477 1185.51,40.437C1184.87,39.397 1184.03,38.567 1182.99,37.947C1181.95,37.327 1180.69,37.017 1179.21,37.017C1173.77,36.977 1171.05,40.817 1171.05,48.537Z" style="fill-rule:nonzero;"/>
        <path d="M1218.87,50.277L1205.31,50.277L1205.31,63.537L1200.51,63.537L1200.51,33.537L1205.31,33.537L1205.31,46.077L1218.87,46.077L1218.87,33.537L1223.67,33.537L1223.67,63.537L1218.87,63.537L1218.87,50.277Z" style="fill-rule:nonzero;"/>
        <path d="M1233.03,35.757C1234.55,34.837 1236.32,34.157 1238.34,33.717C1240.36,33.277 1242.47,33.057 1244.67,33.057C1246.75,33.057 1248.42,33.337 1249.68,33.897C1250.94,34.457 1251.9,35.187 1252.56,36.087C1253.22,36.987 1253.66,37.977 1253.88,39.057C1254.1,40.137 1254.21,41.217 1254.21,42.297C1254.21,44.697 1254.15,47.037 1254.03,49.317C1253.91,51.597 1253.85,53.757 1253.85,55.797C1253.85,57.277 1253.91,58.677 1254.03,59.997C1254.15,61.317 1254.37,62.537 1254.69,63.657L1251.15,63.657L1249.89,59.457L1249.59,59.457C1249.23,60.017 1248.78,60.567 1248.24,61.107C1247.7,61.647 1247.05,62.127 1246.29,62.547C1245.53,62.967 1244.65,63.317 1243.65,63.597C1242.65,63.877 1241.51,64.017 1240.23,64.017C1238.95,64.017 1237.76,63.817 1236.66,63.417C1235.56,63.017 1234.61,62.447 1233.81,61.707C1233.01,60.967 1232.38,60.077 1231.92,59.037C1231.46,57.997 1231.23,56.817 1231.23,55.497C1231.23,53.737 1231.59,52.267 1232.31,51.087C1233.03,49.907 1234.04,48.967 1235.34,48.267C1236.64,47.567 1238.2,47.067 1240.02,46.767C1241.84,46.467 1243.85,46.317 1246.05,46.317L1247.7,46.317C1248.24,46.317 1248.79,46.357 1249.35,46.437C1249.47,45.237 1249.53,44.157 1249.53,43.197C1249.53,40.997 1249.09,39.457 1248.21,38.577C1247.33,37.697 1245.73,37.257 1243.41,37.257C1242.73,37.257 1242,37.307 1241.22,37.407C1240.44,37.507 1239.64,37.647 1238.82,37.827C1238,38.007 1237.22,38.227 1236.48,38.487C1235.74,38.747 1235.09,39.037 1234.53,39.357L1233.03,35.757ZM1241.55,59.817C1242.67,59.817 1243.67,59.667 1244.55,59.367C1245.43,59.067 1246.19,58.687 1246.83,58.227C1247.47,57.767 1248,57.257 1248.42,56.697C1248.84,56.137 1249.15,55.597 1249.35,55.077L1249.35,50.097C1248.79,50.057 1248.22,50.027 1247.64,50.007C1247.06,49.987 1246.49,49.977 1245.93,49.977C1244.69,49.977 1243.48,50.047 1242.3,50.187C1241.12,50.327 1240.08,50.587 1239.18,50.967C1238.28,51.347 1237.56,51.867 1237.02,52.527C1236.48,53.187 1236.21,54.017 1236.21,55.017C1236.21,56.417 1236.71,57.567 1237.71,58.467C1238.71,59.367 1239.99,59.817 1241.55,59.817Z" style="fill-rule:nonzero;"/>
    </g>
</svg>
