<?xml version="1.0" encoding="UTF-8" standalone="no"?>
<!DOCTYPE svg PUBLIC "-//W3C//DTD SVG 1.1//EN" "http://www.w3.org/Graphics/SVG/1.1/DTD/svg11.dtd">
<svg width="100%" height="100%" viewBox="0 0 1291 799" version="1.1" xmlns="http://www.w3.org/2000/svg" xmlns:xlink="http://www.w3.org/1999/xlink" xml:space="preserve" xmlns:serif="http://www.serif.com/" style="fill-rule:evenodd;clip-rule:evenodd;stroke-linejoin:round;stroke-miterlimit:10;">
    <rect id="Artboard10" x="-310" y="-1127" width="8206" height="4260" style="fill:none;"/>
    <g id="Artboard101" serif:id="Artboard10">
        <path d="M821.234,334.185L898.753,286.734L886.46,202.064L977.209,146.735L1045.22,252.626L1070.5,369.957L821.234,334.185Z" style="fill:rgb(45,231,231);stroke:black;stroke-width:6px;"/>
        <path d="M708.478,287.193L711.549,186.072L821.234,334.185L1070.5,369.957L645.827,418.561L708.478,287.193Z" style="fill:rgb(248,253,112);stroke:black;stroke-width:6px;"/>
        <path d="M645.827,418.561L1070.5,369.957L1182.36,258.346L1209,427.014L760.953,495.022L686.147,552.646L645.827,418.561Z" style="fill:rgb(249,85,185);stroke:black;stroke-width:6px;"/>
        <path d="M760.953,495.022L1209,427.014L1121.62,549.868L1090.91,670.302L1015.52,640.406L945.315,549.868L760.953,495.022Z" style="fill:rgb(144,250,46);stroke:black;stroke-width:6px;"/>
        <path d="M760.953,495.022L781.271,616.003L750.515,700.198L774.87,776.385L841.808,746.489L860.984,633.655L945.315,548.658L760.953,495.022Z" style="fill:rgb(249,185,45);stroke:black;stroke-width:6px;"/>
        <path d="M26.221,417.927L88.873,312.907L91.944,185.438L201.629,333.55L279.148,286.099L266.855,201.429L357.604,146.101L425.615,251.992L450.891,369.323L562.684,257.301L589.395,426.38L502.012,549.233L471.306,669.668L395.92,639.771L325.71,549.233L241.379,633.02L222.203,745.855L155.265,775.751L130.909,699.564L161.666,615.368L141.347,494.387L66.541,552.011L26.221,417.927Z" style="fill:rgb(217,217,217);stroke:black;stroke-width:6px;"/>
        <path d="M760.953,495.022L1209,427.014" style="fill:none;stroke:black;stroke-width:6px;"/>
        <path d="M945.315,549.868L760.953,495.022" style="fill:none;stroke:black;stroke-width:6px;"/>
        <path d="M645.827,418.561L1070.5,369.957" style="fill:none;stroke:black;stroke-width:6px;"/>
        <path d="M821.234,334.185L1070.5,369.957" style="fill:none;stroke:black;stroke-width:6px;"/>
        <path d="M210.896,8.977L191.516,8.977L191.516,46.537L186.536,46.537L186.536,4.537L215.876,4.537L215.876,46.537L210.896,46.537L210.896,8.977Z" style="fill-rule:nonzero;"/>
        <path d="M223.916,31.537C223.916,26.457 225.046,22.567 227.306,19.867C229.566,17.167 232.816,15.817 237.056,15.817C239.296,15.817 241.246,16.187 242.906,16.927C244.566,17.667 245.936,18.727 247.016,20.107C248.096,21.487 248.896,23.147 249.416,25.087C249.936,27.027 250.196,29.177 250.196,31.537C250.196,36.617 249.066,40.507 246.806,43.207C244.546,45.907 241.296,47.257 237.056,47.257C234.816,47.257 232.866,46.887 231.206,46.147C229.546,45.407 228.176,44.347 227.096,42.967C226.016,41.587 225.216,39.927 224.696,37.987C224.176,36.047 223.916,33.897 223.916,31.537ZM228.896,31.537C228.896,33.057 229.046,34.517 229.346,35.917C229.646,37.317 230.116,38.537 230.756,39.577C231.396,40.617 232.236,41.457 233.276,42.097C234.316,42.737 235.576,43.057 237.056,43.057C242.496,43.097 245.216,39.257 245.216,31.537C245.216,29.977 245.066,28.497 244.766,27.097C244.466,25.697 243.996,24.477 243.356,23.437C242.716,22.397 241.876,21.567 240.836,20.947C239.796,20.327 238.536,20.017 237.056,20.017C231.616,19.977 228.896,23.817 228.896,31.537Z" style="fill-rule:nonzero;"/>
        <path d="M273.896,20.737L265.196,20.737C265.076,22.417 264.956,24.227 264.836,26.167C264.716,28.107 264.536,30.047 264.296,31.987C264.056,33.927 263.736,35.787 263.336,37.567C262.936,39.347 262.426,40.917 261.806,42.277C261.186,43.637 260.426,44.727 259.526,45.547C258.626,46.367 257.556,46.777 256.316,46.777C255.556,46.777 254.896,46.737 254.336,46.657C253.776,46.577 253.276,46.437 252.836,46.237L253.556,42.217C254.036,42.377 254.556,42.457 255.116,42.457C255.916,42.457 256.636,42.117 257.276,41.437C257.916,40.757 258.476,39.467 258.956,37.567C259.436,35.667 259.836,33.037 260.156,29.677C260.476,26.317 260.696,21.937 260.816,16.537L278.696,16.537L278.696,46.537L273.896,46.537L273.896,20.737Z" style="fill-rule:nonzero;"/>
        <path d="M306.656,28.777L306.836,25.057L306.656,25.057L304.196,28.897L290.696,46.537L287.936,46.537L287.936,16.537L292.736,16.537L292.736,34.837L292.556,38.377L292.796,38.377L295.136,34.657L308.636,16.537L311.456,16.537L311.456,46.537L306.656,46.537L306.656,28.777Z" style="fill-rule:nonzero;"/>
        <path d="M338.216,20.737L325.496,20.737L325.496,46.537L320.696,46.537L320.696,16.537L338.216,16.537L338.216,20.737Z" style="fill-rule:nonzero;"/>
        <path d="M341.156,31.537C341.156,26.457 342.286,22.567 344.546,19.867C346.806,17.167 350.056,15.817 354.296,15.817C356.536,15.817 358.486,16.187 360.146,16.927C361.806,17.667 363.176,18.727 364.256,20.107C365.336,21.487 366.136,23.147 366.656,25.087C367.176,27.027 367.436,29.177 367.436,31.537C367.436,36.617 366.306,40.507 364.046,43.207C361.786,45.907 358.536,47.257 354.296,47.257C352.056,47.257 350.106,46.887 348.446,46.147C346.786,45.407 345.416,44.347 344.336,42.967C343.256,41.587 342.456,39.927 341.936,37.987C341.416,36.047 341.156,33.897 341.156,31.537ZM346.136,31.537C346.136,33.057 346.286,34.517 346.586,35.917C346.886,37.317 347.356,38.537 347.996,39.577C348.636,40.617 349.476,41.457 350.516,42.097C351.556,42.737 352.816,43.057 354.296,43.057C359.736,43.097 362.456,39.257 362.456,31.537C362.456,29.977 362.306,28.497 362.006,27.097C361.706,25.697 361.236,24.477 360.596,23.437C359.956,22.397 359.116,21.567 358.076,20.947C357.036,20.327 355.776,20.017 354.296,20.017C348.856,19.977 346.136,23.817 346.136,31.537Z" style="fill-rule:nonzero;"/>
        <path d="M393.356,33.277L379.796,33.277L379.796,46.537L374.996,46.537L374.996,16.537L379.796,16.537L379.796,29.077L393.356,29.077L393.356,16.537L398.156,16.537L398.156,46.537L393.356,46.537L393.356,33.277Z" style="fill-rule:nonzero;"/>
        <g transform="matrix(1,0,0,1,-7642.6,-11924.4)">
            <g transform="matrix(60,0,0,60,8403.07,11970.9)">
                <path d="M0.239,-0.278L0.008,-0.7L0.105,-0.7L0.269,-0.394L0.286,-0.333L0.287,-0.333L0.305,-0.396L0.462,-0.7L0.551,-0.7L0.322,-0.279L0.322,-0L0.239,-0L0.239,-0.278Z" style="fill-rule:nonzero;"/>
            </g>
            <g transform="matrix(60,0,0,60,8433.43,11970.9)">
                <rect x="0.059" y="-0.325" width="0.242" height="0.074" style="fill-rule:nonzero;"/>
            </g>
            <g transform="matrix(60,0,0,60,8455.63,11970.9)">
                <path d="M0.49,-0.297L0.496,-0.392L0.491,-0.392L0.455,-0.315L0.334,-0.119L0.306,-0.119L0.18,-0.315L0.147,-0.392L0.143,-0.392L0.151,-0.298L0.151,-0L0.077,-0L0.077,-0.5L0.156,-0.5L0.296,-0.276L0.325,-0.218L0.327,-0.218L0.357,-0.278L0.488,-0.5L0.568,-0.5L0.568,-0L0.49,-0L0.49,-0.297Z" style="fill-rule:nonzero;"/>
            </g>
            <g transform="matrix(60,0,0,60,8494.93,11970.9)">
                <path d="M0.049,-0.25C0.049,-0.335 0.068,-0.4 0.106,-0.445C0.143,-0.49 0.197,-0.512 0.268,-0.512C0.305,-0.512 0.338,-0.506 0.366,-0.494C0.393,-0.481 0.416,-0.464 0.434,-0.441C0.452,-0.418 0.465,-0.39 0.474,-0.358C0.483,-0.325 0.487,-0.289 0.487,-0.25C0.487,-0.165 0.468,-0.1 0.431,-0.056C0.393,-0.011 0.339,0.012 0.268,0.012C0.231,0.012 0.198,0.006 0.171,-0.007C0.143,-0.019 0.12,-0.037 0.102,-0.06C0.084,-0.083 0.071,-0.11 0.062,-0.143C0.053,-0.175 0.049,-0.211 0.049,-0.25ZM0.132,-0.25C0.132,-0.225 0.135,-0.2 0.14,-0.177C0.145,-0.154 0.152,-0.133 0.163,-0.116C0.174,-0.099 0.188,-0.085 0.205,-0.074C0.222,-0.063 0.243,-0.058 0.268,-0.058C0.359,-0.057 0.404,-0.121 0.404,-0.25C0.404,-0.276 0.402,-0.301 0.397,-0.324C0.392,-0.347 0.384,-0.368 0.373,-0.385C0.362,-0.402 0.348,-0.416 0.331,-0.427C0.314,-0.437 0.293,-0.442 0.268,-0.442C0.177,-0.443 0.132,-0.379 0.132,-0.25Z" style="fill-rule:nonzero;"/>
            </g>
            <g transform="matrix(60,0,0,60,8527.69,11970.9)">
                <path d="M0.383,-0.221L0.157,-0.221L0.157,-0L0.077,-0L0.077,-0.5L0.157,-0.5L0.157,-0.291L0.383,-0.291L0.383,-0.5L0.463,-0.5L0.463,-0L0.383,-0L0.383,-0.221Z" style="fill-rule:nonzero;"/>
            </g>
            <g transform="matrix(60,0,0,60,8560.69,11970.9)">
                <path d="M0.049,-0.25C0.049,-0.335 0.068,-0.4 0.106,-0.445C0.143,-0.49 0.197,-0.512 0.268,-0.512C0.305,-0.512 0.338,-0.506 0.366,-0.494C0.393,-0.481 0.416,-0.464 0.434,-0.441C0.452,-0.418 0.465,-0.39 0.474,-0.358C0.483,-0.325 0.487,-0.289 0.487,-0.25C0.487,-0.165 0.468,-0.1 0.431,-0.056C0.393,-0.011 0.339,0.012 0.268,0.012C0.231,0.012 0.198,0.006 0.171,-0.007C0.143,-0.019 0.12,-0.037 0.102,-0.06C0.084,-0.083 0.071,-0.11 0.062,-0.143C0.053,-0.175 0.049,-0.211 0.049,-0.25ZM0.132,-0.25C0.132,-0.225 0.135,-0.2 0.14,-0.177C0.145,-0.154 0.152,-0.133 0.163,-0.116C0.174,-0.099 0.188,-0.085 0.205,-0.074C0.222,-0.063 0.243,-0.058 0.268,-0.058C0.359,-0.057 0.404,-0.121 0.404,-0.25C0.404,-0.276 0.402,-0.301 0.397,-0.324C0.392,-0.347 0.384,-0.368 0.373,-0.385C0.362,-0.402 0.348,-0.416 0.331,-0.427C0.314,-0.437 0.293,-0.442 0.268,-0.442C0.177,-0.443 0.132,-0.379 0.132,-0.25Z" style="fill-rule:nonzero;"/>
            </g>
            <g transform="matrix(60,0,0,60,8593.45,11970.9)">
                <path d="M0.395,-0.43L0.239,-0.43L0.239,-0L0.159,-0L0.159,-0.43L0.003,-0.43L0.003,-0.5L0.395,-0.5L0.395,-0.43Z" style="fill-rule:nonzero;"/>
            </g>
            <g transform="matrix(60,0,0,60,8617.87,11970.9)">
                <path d="M0.049,-0.25C0.049,-0.335 0.068,-0.4 0.106,-0.445C0.143,-0.49 0.197,-0.512 0.268,-0.512C0.305,-0.512 0.338,-0.506 0.366,-0.494C0.393,-0.481 0.416,-0.464 0.434,-0.441C0.452,-0.418 0.465,-0.39 0.474,-0.358C0.483,-0.325 0.487,-0.289 0.487,-0.25C0.487,-0.165 0.468,-0.1 0.431,-0.056C0.393,-0.011 0.339,0.012 0.268,0.012C0.231,0.012 0.198,0.006 0.171,-0.007C0.143,-0.019 0.12,-0.037 0.102,-0.06C0.084,-0.083 0.071,-0.11 0.062,-0.143C0.053,-0.175 0.049,-0.211 0.049,-0.25ZM0.132,-0.25C0.132,-0.225 0.135,-0.2 0.14,-0.177C0.145,-0.154 0.152,-0.133 0.163,-0.116C0.174,-0.099 0.188,-0.085 0.205,-0.074C0.222,-0.063 0.243,-0.058 0.268,-0.058C0.359,-0.057 0.404,-0.121 0.404,-0.25C0.404,-0.276 0.402,-0.301 0.397,-0.324C0.392,-0.347 0.384,-0.368 0.373,-0.385C0.362,-0.402 0.348,-0.416 0.331,-0.427C0.314,-0.437 0.293,-0.442 0.268,-0.442C0.177,-0.443 0.132,-0.379 0.132,-0.25Z" style="fill-rule:nonzero;"/>
            </g>
            <g transform="matrix(60,0,0,60,8650.63,11970.9)">
                <path d="M0.383,-0.221L0.157,-0.221L0.157,-0L0.077,-0L0.077,-0.5L0.157,-0.5L0.157,-0.291L0.383,-0.291L0.383,-0.5L0.463,-0.5L0.463,-0L0.383,-0L0.383,-0.221Z" style="fill-rule:nonzero;"/>
            </g>
            <g transform="matrix(60,0,0,60,8683.63,11970.9)">
                <path d="M0.383,-0.221L0.157,-0.221L0.157,-0L0.077,-0L0.077,-0.5L0.157,-0.5L0.157,-0.291L0.383,-0.291L0.383,-0.5L0.463,-0.5L0.463,-0L0.383,-0L0.383,-0.221Z" style="fill-rule:nonzero;"/>
            </g>
            <g transform="matrix(60,0,0,60,8716.63,11970.9)">
                <path d="M0.157,-0.07C0.182,-0.066 0.205,-0.064 0.228,-0.064C0.27,-0.064 0.299,-0.072 0.316,-0.089C0.333,-0.105 0.341,-0.128 0.341,-0.158C0.341,-0.185 0.333,-0.207 0.317,-0.224C0.3,-0.241 0.272,-0.25 0.231,-0.25C0.22,-0.25 0.207,-0.25 0.194,-0.249C0.181,-0.248 0.168,-0.246 0.157,-0.243L0.157,-0.07ZM0.157,-0.309C0.173,-0.312 0.188,-0.314 0.203,-0.315C0.218,-0.316 0.232,-0.316 0.245,-0.316C0.279,-0.316 0.308,-0.312 0.331,-0.305C0.354,-0.297 0.372,-0.286 0.386,-0.273C0.4,-0.26 0.41,-0.244 0.416,-0.226C0.421,-0.207 0.424,-0.188 0.424,-0.167C0.424,-0.106 0.407,-0.062 0.374,-0.035C0.34,-0.008 0.285,0.006 0.21,0.006C0.167,0.006 0.123,0.004 0.077,-0L0.077,-0.5L0.157,-0.5L0.157,-0.309ZM0.503,-0.5L0.583,-0.5L0.583,-0L0.503,-0L0.503,-0.5Z" style="fill-rule:nonzero;"/>
            </g>
            <g transform="matrix(60,0,0,60,8756.83,11970.9)">
                <path d="M0.442,-0.04C0.422,-0.024 0.397,-0.011 0.367,-0.002C0.336,0.007 0.304,0.012 0.27,0.012C0.232,0.012 0.199,0.006 0.171,-0.007C0.143,-0.019 0.12,-0.037 0.102,-0.06C0.084,-0.083 0.071,-0.11 0.062,-0.142C0.053,-0.174 0.049,-0.21 0.049,-0.25C0.049,-0.335 0.068,-0.4 0.106,-0.445C0.144,-0.49 0.198,-0.512 0.269,-0.512C0.292,-0.512 0.314,-0.51 0.337,-0.505C0.36,-0.5 0.38,-0.49 0.398,-0.476C0.416,-0.462 0.431,-0.442 0.442,-0.417C0.453,-0.391 0.459,-0.357 0.459,-0.315C0.459,-0.293 0.457,-0.269 0.453,-0.242L0.132,-0.242C0.132,-0.213 0.135,-0.187 0.141,-0.164C0.147,-0.141 0.156,-0.122 0.169,-0.107C0.182,-0.091 0.198,-0.079 0.219,-0.071C0.239,-0.062 0.264,-0.058 0.293,-0.058C0.316,-0.058 0.338,-0.062 0.361,-0.07C0.384,-0.078 0.401,-0.087 0.412,-0.098L0.442,-0.04ZM0.27,-0.442C0.231,-0.442 0.199,-0.432 0.176,-0.411C0.152,-0.39 0.138,-0.355 0.133,-0.305L0.381,-0.305C0.381,-0.356 0.371,-0.391 0.352,-0.412C0.333,-0.432 0.305,-0.442 0.27,-0.442Z" style="fill-rule:nonzero;"/>
            </g>
            <g transform="matrix(60,0,0,60,8466.34,12030.9)">
                <path d="M0.378,-0.43L0.157,-0.43L0.157,-0L0.077,-0L0.077,-0.5L0.458,-0.5L0.458,-0L0.378,-0L0.378,-0.43Z" style="fill-rule:nonzero;"/>
            </g>
            <g transform="matrix(60,0,0,60,8499.04,12030.9)">
                <path d="M0.049,-0.25C0.049,-0.335 0.068,-0.4 0.106,-0.445C0.143,-0.49 0.197,-0.512 0.268,-0.512C0.305,-0.512 0.338,-0.506 0.366,-0.494C0.393,-0.481 0.416,-0.464 0.434,-0.441C0.452,-0.418 0.465,-0.39 0.474,-0.358C0.483,-0.325 0.487,-0.289 0.487,-0.25C0.487,-0.165 0.468,-0.1 0.431,-0.056C0.393,-0.011 0.339,0.012 0.268,0.012C0.231,0.012 0.198,0.006 0.171,-0.007C0.143,-0.019 0.12,-0.037 0.102,-0.06C0.084,-0.083 0.071,-0.11 0.062,-0.143C0.053,-0.175 0.049,-0.211 0.049,-0.25ZM0.132,-0.25C0.132,-0.225 0.135,-0.2 0.14,-0.177C0.145,-0.154 0.152,-0.133 0.163,-0.116C0.174,-0.099 0.188,-0.085 0.205,-0.074C0.222,-0.063 0.243,-0.058 0.268,-0.058C0.359,-0.057 0.404,-0.121 0.404,-0.25C0.404,-0.276 0.402,-0.301 0.397,-0.324C0.392,-0.347 0.384,-0.368 0.373,-0.385C0.362,-0.402 0.348,-0.416 0.331,-0.427C0.314,-0.437 0.293,-0.442 0.268,-0.442C0.177,-0.443 0.132,-0.379 0.132,-0.25Z" style="fill-rule:nonzero;"/>
            </g>
            <g transform="matrix(60,0,0,60,8531.8,12030.9)">
                <path d="M0.346,-0.43L0.201,-0.43C0.199,-0.402 0.197,-0.372 0.195,-0.34C0.193,-0.307 0.19,-0.275 0.186,-0.243C0.182,-0.21 0.177,-0.179 0.17,-0.15C0.163,-0.12 0.155,-0.094 0.145,-0.071C0.134,-0.048 0.122,-0.03 0.107,-0.017C0.092,-0.003 0.074,0.004 0.053,0.004C0.04,0.004 0.029,0.003 0.02,0.002C0.011,0.001 0.002,-0.002 -0.005,-0.005L0.007,-0.072C0.015,-0.069 0.024,-0.068 0.033,-0.068C0.046,-0.068 0.058,-0.074 0.069,-0.085C0.08,-0.096 0.089,-0.118 0.097,-0.15C0.105,-0.181 0.112,-0.225 0.117,-0.281C0.122,-0.337 0.126,-0.41 0.128,-0.5L0.426,-0.5L0.426,-0L0.346,-0L0.346,-0.43Z" style="fill-rule:nonzero;"/>
            </g>
            <g transform="matrix(60,0,0,60,8562.58,12030.9)">
                <path d="M0.389,-0.296L0.392,-0.358L0.389,-0.358L0.348,-0.294L0.123,-0L0.077,-0L0.077,-0.5L0.157,-0.5L0.157,-0.195L0.154,-0.136L0.158,-0.136L0.197,-0.198L0.422,-0.5L0.469,-0.5L0.469,-0L0.389,-0L0.389,-0.296Z" style="fill-rule:nonzero;"/>
            </g>
            <g transform="matrix(60,0,0,60,8595.94,12030.9)">
                <path d="M0.369,-0.43L0.157,-0.43L0.157,-0L0.077,-0L0.077,-0.5L0.369,-0.5L0.369,-0.43Z" style="fill-rule:nonzero;"/>
            </g>
            <g transform="matrix(60,0,0,60,8618.68,12030.9)">
                <path d="M0.049,-0.25C0.049,-0.335 0.068,-0.4 0.106,-0.445C0.143,-0.49 0.197,-0.512 0.268,-0.512C0.305,-0.512 0.338,-0.506 0.366,-0.494C0.393,-0.481 0.416,-0.464 0.434,-0.441C0.452,-0.418 0.465,-0.39 0.474,-0.358C0.483,-0.325 0.487,-0.289 0.487,-0.25C0.487,-0.165 0.468,-0.1 0.431,-0.056C0.393,-0.011 0.339,0.012 0.268,0.012C0.231,0.012 0.198,0.006 0.171,-0.007C0.143,-0.019 0.12,-0.037 0.102,-0.06C0.084,-0.083 0.071,-0.11 0.062,-0.143C0.053,-0.175 0.049,-0.211 0.049,-0.25ZM0.132,-0.25C0.132,-0.225 0.135,-0.2 0.14,-0.177C0.145,-0.154 0.152,-0.133 0.163,-0.116C0.174,-0.099 0.188,-0.085 0.205,-0.074C0.222,-0.063 0.243,-0.058 0.268,-0.058C0.359,-0.057 0.404,-0.121 0.404,-0.25C0.404,-0.276 0.402,-0.301 0.397,-0.324C0.392,-0.347 0.384,-0.368 0.373,-0.385C0.362,-0.402 0.348,-0.416 0.331,-0.427C0.314,-0.437 0.293,-0.442 0.268,-0.442C0.177,-0.443 0.132,-0.379 0.132,-0.25Z" style="fill-rule:nonzero;"/>
            </g>
            <g transform="matrix(60,0,0,60,8651.44,12030.9)">
                <path d="M0.383,-0.221L0.157,-0.221L0.157,-0L0.077,-0L0.077,-0.5L0.157,-0.5L0.157,-0.291L0.383,-0.291L0.383,-0.5L0.463,-0.5L0.463,-0L0.383,-0L0.383,-0.221Z" style="fill-rule:nonzero;"/>
            </g>
            <g transform="matrix(60,0,0,60,8684.44,12030.9)">
                <path d="M0.157,-0.07C0.182,-0.066 0.205,-0.064 0.228,-0.064C0.27,-0.064 0.299,-0.072 0.316,-0.089C0.333,-0.105 0.341,-0.128 0.341,-0.158C0.341,-0.185 0.333,-0.207 0.317,-0.224C0.3,-0.241 0.272,-0.25 0.231,-0.25C0.22,-0.25 0.207,-0.25 0.194,-0.249C0.181,-0.248 0.168,-0.246 0.157,-0.243L0.157,-0.07ZM0.157,-0.309C0.173,-0.312 0.188,-0.314 0.203,-0.315C0.218,-0.316 0.232,-0.316 0.245,-0.316C0.279,-0.316 0.308,-0.312 0.331,-0.305C0.354,-0.297 0.372,-0.286 0.386,-0.273C0.4,-0.26 0.41,-0.244 0.416,-0.226C0.421,-0.207 0.424,-0.188 0.424,-0.167C0.424,-0.106 0.407,-0.062 0.374,-0.035C0.34,-0.008 0.285,0.006 0.21,0.006C0.167,0.006 0.123,0.004 0.077,-0L0.077,-0.5L0.157,-0.5L0.157,-0.309ZM0.503,-0.5L0.583,-0.5L0.583,-0L0.503,-0L0.503,-0.5Z" style="fill-rule:nonzero;"/>
            </g>
        </g>
    </g>
</svg>
