<?xml version="1.0" encoding="UTF-8" standalone="no"?>
<!DOCTYPE svg PUBLIC "-//W3C//DTD SVG 1.1//EN" "http://www.w3.org/Graphics/SVG/1.1/DTD/svg11.dtd">
<svg width="100%" height="100%" viewBox="0 0 1410 869" version="1.1" xmlns="http://www.w3.org/2000/svg" xmlns:xlink="http://www.w3.org/1999/xlink" xml:space="preserve" xmlns:serif="http://www.serif.com/" style="fill-rule:evenodd;clip-rule:evenodd;stroke-linejoin:round;stroke-miterlimit:10;">
    <rect id="Artboard10" x="-256" y="-2859" width="8206" height="4260" style="fill:none;"/>
    <g id="Artboard101" serif:id="Artboard10">
        <path d="M239.752,334.025L317.271,286.574L304.978,201.905L395.727,146.576L463.739,252.467L489.015,369.798L239.752,334.025Z" style="fill:rgb(45,231,231);stroke:black;stroke-width:6px;"/>
        <path d="M106.996,304.599L110.067,203.478L219.752,351.591L469.015,387.363L44.345,435.968L106.996,304.599Z" style="fill:rgb(248,253,112);stroke:black;stroke-width:6px;"/>
        <path d="M64.345,453.533L489.015,404.929L600.873,293.318L627.518,461.986L179.471,529.994L104.665,587.618L64.345,453.533Z" style="fill:rgb(249,85,185);stroke:black;stroke-width:6px;"/>
        <path d="M199.471,547.559L647.518,479.552L560.136,602.405L529.429,722.839L454.043,692.943L383.833,602.405L199.471,547.559Z" style="fill:rgb(144,250,46);stroke:black;stroke-width:6px;"/>
        <path d="M179.471,565.125L199.789,686.106L169.033,770.301L193.388,846.489L260.326,816.592L279.502,703.758L363.833,618.761L179.471,565.125Z" style="fill:rgb(249,185,45);stroke:black;stroke-width:6px;"/>
        <path d="M780.324,436.008L842.976,330.988L846.047,203.519L955.732,351.631L1033.25,304.18L1020.96,219.511L1111.71,164.182L1179.72,270.073L1204.99,387.404L1316.79,275.382L1343.5,444.461L1256.12,567.315L1225.41,687.749L1150.02,657.853L1079.81,567.315L995.482,651.102L976.306,763.936L909.368,793.832L885.013,717.645L915.769,633.45L895.451,512.469L820.645,570.093L780.324,436.008Z" style="fill:rgb(217,217,217);stroke:black;stroke-width:6px;"/>
        <path d="M179.243,529.994L627.291,461.986" style="fill:none;stroke:black;stroke-width:6px;"/>
        <path d="M106.783,304.14L219.525,351.591" style="fill:none;stroke:black;stroke-width:6px;"/>
        <path d="M317.044,286.574L395.5,146.576" style="fill:none;stroke:black;stroke-width:6px;"/>
        <path d="M317.044,286.574L463.511,252.467" style="fill:none;stroke:black;stroke-width:6px;"/>
        <path d="M488.787,369.798L317.044,286.574" style="fill:none;stroke:black;stroke-width:6px;"/>
        <path d="M219.525,351.591L44.117,435.968" style="fill:none;stroke:black;stroke-width:6px;"/>
        <path d="M64.117,453.533L179.243,529.994" style="fill:none;stroke:black;stroke-width:6px;"/>
        <path d="M488.787,404.929L627.291,461.986" style="fill:none;stroke:black;stroke-width:6px;"/>
        <path d="M183.154,529.994L488.787,404.929" style="fill:none;stroke:black;stroke-width:6px;"/>
        <path d="M383.606,602.405L647.518,479.552" style="fill:none;stroke:black;stroke-width:6px;"/>
        <path d="M383.606,602.405L559.908,602.405" style="fill:none;stroke:black;stroke-width:6px;"/>
        <path d="M453.816,692.943L559.908,602.405" style="fill:none;stroke:black;stroke-width:6px;"/>
        <path d="M279.275,703.758L183.154,566.288" style="fill:none;stroke:black;stroke-width:6px;"/>
        <path d="M199.562,686.106L279.275,703.758" style="fill:none;stroke:black;stroke-width:6px;"/>
        <path d="M168.805,770.301L279.275,703.758" style="fill:none;stroke:black;stroke-width:6px;"/>
        <path d="M168.805,770.301L260.099,816.592" style="fill:none;stroke:black;stroke-width:6px;"/>
        <path d="M842.976,330.988L955.732,351.631" style="fill:none;stroke:black;stroke-width:6px;"/>
        <path d="M780.324,436.008L955.732,351.631" style="fill:none;stroke:black;stroke-width:6px;"/>
        <path d="M1033.25,304.18L1111.71,164.182" style="fill:none;stroke:black;stroke-width:6px;"/>
        <path d="M1033.25,304.18L1179.72,270.073" style="fill:none;stroke:black;stroke-width:6px;"/>
        <path d="M1033.25,304.18L1204.99,387.404" style="fill:none;stroke:black;stroke-width:6px;"/>
        <path d="M955.732,351.631L1204.99,387.404" style="fill:none;stroke:black;stroke-width:6px;"/>
        <path d="M780.324,436.008L1204.99,387.404" style="fill:none;stroke:black;stroke-width:6px;"/>
        <path d="M1204.99,387.404L1343.5,444.461" style="fill:none;stroke:black;stroke-width:6px;"/>
        <path d="M780.324,436.008L895.451,512.469" style="fill:none;stroke:black;stroke-width:6px;"/>
        <path d="M895.451,512.469L1204.99,387.404" style="fill:none;stroke:black;stroke-width:6px;"/>
        <path d="M895.451,512.469L1343.5,444.461" style="fill:none;stroke:black;stroke-width:6px;"/>
        <path d="M895.451,512.469L1079.81,567.315" style="fill:none;stroke:black;stroke-width:6px;"/>
        <path d="M1079.81,567.315L1343.5,444.461" style="fill:none;stroke:black;stroke-width:6px;"/>
        <path d="M1079.81,567.315L1256.12,567.315" style="fill:none;stroke:black;stroke-width:6px;"/>
        <path d="M1150.02,657.853L1256.12,567.315" style="fill:none;stroke:black;stroke-width:6px;"/>
        <path d="M995.482,651.102L895.451,512.469" style="fill:none;stroke:black;stroke-width:6px;"/>
        <path d="M915.769,633.45L995.482,651.102" style="fill:none;stroke:black;stroke-width:6px;"/>
        <path d="M885.013,717.645L995.482,651.102" style="fill:none;stroke:black;stroke-width:6px;"/>
        <path d="M885.013,717.645L976.306,763.936" style="fill:none;stroke:black;stroke-width:6px;"/>
        <g transform="matrix(1,0,0,1,-8242.53,-11908.4)">
            <g transform="matrix(60,0,0,60,8413.39,11970.9)">
                <path d="M0.537,-0.626L0.319,-0.626L0.319,-0L0.236,-0L0.236,-0.626L0.018,-0.626L0.018,-0.7L0.537,-0.7L0.537,-0.626Z" style="fill-rule:nonzero;"/>
            </g>
            <g transform="matrix(60,0,0,60,8440.69,11970.9)">
                <path d="M0.077,-0.5L0.132,-0.5L0.147,-0.44L0.151,-0.44C0.166,-0.463 0.186,-0.481 0.211,-0.494C0.235,-0.506 0.263,-0.512 0.294,-0.512C0.361,-0.512 0.41,-0.492 0.443,-0.453C0.476,-0.414 0.492,-0.349 0.492,-0.26C0.492,-0.218 0.487,-0.18 0.476,-0.147C0.464,-0.113 0.449,-0.084 0.429,-0.061C0.409,-0.038 0.385,-0.02 0.357,-0.007C0.328,0.006 0.297,0.012 0.262,0.012C0.237,0.012 0.218,0.011 0.204,0.008C0.189,0.005 0.174,-0.001 0.157,-0.008L0.157,0.2L0.077,0.2L0.077,-0.5ZM0.279,-0.442C0.245,-0.442 0.218,-0.433 0.199,-0.416C0.179,-0.398 0.165,-0.371 0.157,-0.335L0.157,-0.087C0.169,-0.078 0.183,-0.07 0.198,-0.066C0.213,-0.061 0.234,-0.058 0.259,-0.058C0.305,-0.058 0.341,-0.075 0.369,-0.11C0.396,-0.144 0.409,-0.194 0.409,-0.261C0.409,-0.288 0.407,-0.313 0.402,-0.336C0.397,-0.358 0.39,-0.377 0.38,-0.393C0.369,-0.408 0.356,-0.42 0.34,-0.429C0.323,-0.438 0.303,-0.442 0.279,-0.442Z" style="fill-rule:nonzero;"/>
            </g>
            <g transform="matrix(60,0,0,60,8473.75,11970.9)">
                <path d="M0.389,-0.296L0.392,-0.358L0.389,-0.358L0.348,-0.294L0.123,-0L0.077,-0L0.077,-0.5L0.157,-0.5L0.157,-0.195L0.154,-0.136L0.158,-0.136L0.197,-0.198L0.422,-0.5L0.469,-0.5L0.469,-0L0.389,-0L0.389,-0.296Z" style="fill-rule:nonzero;"/>
            </g>
            <g transform="matrix(60,0,0,60,8507.11,11970.9)">
                <path d="M0.069,-0.463C0.094,-0.478 0.124,-0.49 0.158,-0.497C0.191,-0.504 0.226,-0.508 0.263,-0.508C0.298,-0.508 0.326,-0.503 0.347,-0.494C0.368,-0.485 0.384,-0.472 0.395,-0.458C0.406,-0.443 0.413,-0.426 0.417,-0.408C0.42,-0.39 0.422,-0.372 0.422,-0.354C0.422,-0.314 0.421,-0.275 0.419,-0.237C0.417,-0.199 0.416,-0.163 0.416,-0.129C0.416,-0.104 0.417,-0.081 0.419,-0.059C0.421,-0.037 0.425,-0.017 0.43,0.002L0.371,0.002L0.35,-0.068L0.345,-0.068C0.339,-0.059 0.332,-0.049 0.323,-0.041C0.314,-0.032 0.303,-0.024 0.29,-0.017C0.277,-0.01 0.263,-0.004 0.246,0.001C0.229,0.006 0.21,0.008 0.189,0.008C0.168,0.008 0.148,0.005 0.13,-0.002C0.111,-0.009 0.095,-0.018 0.082,-0.031C0.069,-0.043 0.058,-0.058 0.051,-0.075C0.043,-0.092 0.039,-0.112 0.039,-0.134C0.039,-0.163 0.045,-0.188 0.057,-0.208C0.069,-0.227 0.086,-0.243 0.108,-0.255C0.129,-0.266 0.155,-0.275 0.186,-0.28C0.216,-0.285 0.249,-0.287 0.286,-0.287L0.314,-0.287C0.323,-0.287 0.332,-0.286 0.341,-0.285C0.343,-0.305 0.344,-0.323 0.344,-0.339C0.344,-0.376 0.337,-0.401 0.322,-0.416C0.307,-0.431 0.281,-0.438 0.242,-0.438C0.231,-0.438 0.219,-0.437 0.206,-0.436C0.193,-0.434 0.179,-0.432 0.166,-0.429C0.152,-0.426 0.139,-0.422 0.127,-0.418C0.114,-0.413 0.103,-0.408 0.094,-0.403L0.069,-0.463ZM0.211,-0.062C0.23,-0.062 0.246,-0.065 0.261,-0.07C0.276,-0.075 0.288,-0.081 0.299,-0.089C0.31,-0.096 0.319,-0.105 0.326,-0.114C0.333,-0.123 0.338,-0.132 0.341,-0.141L0.341,-0.224C0.332,-0.225 0.322,-0.225 0.313,-0.226C0.303,-0.226 0.293,-0.226 0.284,-0.226C0.263,-0.226 0.243,-0.225 0.224,-0.223C0.204,-0.22 0.187,-0.216 0.172,-0.21C0.157,-0.203 0.145,-0.195 0.136,-0.184C0.127,-0.173 0.122,-0.159 0.122,-0.142C0.122,-0.119 0.13,-0.099 0.147,-0.085C0.164,-0.07 0.185,-0.062 0.211,-0.062Z" style="fill-rule:nonzero;"/>
            </g>
            <g transform="matrix(60,0,0,60,8537.47,11970.9)">
                <path d="M0.383,-0.221L0.157,-0.221L0.157,-0L0.077,-0L0.077,-0.5L0.157,-0.5L0.157,-0.291L0.383,-0.291L0.383,-0.5L0.463,-0.5L0.463,-0L0.383,-0L0.383,-0.221Z" style="fill-rule:nonzero;"/>
            </g>
            <g transform="matrix(60,0,0,60,8570.47,11970.9)">
                <path d="M0.369,-0.43L0.157,-0.43L0.157,-0L0.077,-0L0.077,-0.5L0.369,-0.5L0.369,-0.43Z" style="fill-rule:nonzero;"/>
            </g>
            <g transform="matrix(60,0,0,60,8593.21,11970.9)">
                <path d="M0.224,-0.176L0.252,-0.08L0.257,-0.08L0.279,-0.177L0.376,-0.5L0.457,-0.5L0.309,-0.051C0.298,-0.018 0.286,0.013 0.276,0.044C0.265,0.075 0.252,0.102 0.239,0.126C0.226,0.15 0.211,0.169 0.194,0.184C0.177,0.198 0.158,0.205 0.136,0.205C0.112,0.205 0.092,0.202 0.077,0.195L0.091,0.126C0.1,0.129 0.108,0.131 0.116,0.131C0.135,0.131 0.153,0.121 0.17,0.102C0.187,0.082 0.202,0.048 0.213,-0L0.012,-0.5L0.104,-0.5L0.224,-0.176Z" style="fill-rule:nonzero;"/>
            </g>
            <g transform="matrix(60,0,0,60,8621.77,11970.9)">
                <path d="M0.346,-0.43L0.201,-0.43C0.199,-0.402 0.197,-0.372 0.195,-0.34C0.193,-0.307 0.19,-0.275 0.186,-0.243C0.182,-0.21 0.177,-0.179 0.17,-0.15C0.163,-0.12 0.155,-0.094 0.145,-0.071C0.134,-0.048 0.122,-0.03 0.107,-0.017C0.092,-0.003 0.074,0.004 0.053,0.004C0.04,0.004 0.029,0.003 0.02,0.002C0.011,0.001 0.002,-0.002 -0.005,-0.005L0.007,-0.072C0.015,-0.069 0.024,-0.068 0.033,-0.068C0.046,-0.068 0.058,-0.074 0.069,-0.085C0.08,-0.096 0.089,-0.118 0.097,-0.15C0.105,-0.181 0.112,-0.225 0.117,-0.281C0.122,-0.337 0.126,-0.41 0.128,-0.5L0.426,-0.5L0.426,-0L0.346,-0L0.346,-0.43Z" style="fill-rule:nonzero;"/>
            </g>
            <g transform="matrix(60,0,0,60,8652.55,11970.9)">
                <path d="M0.326,-0.207L0.249,-0.195L0.117,-0L0.02,-0L0.14,-0.171L0.18,-0.208C0.145,-0.213 0.116,-0.227 0.092,-0.25C0.067,-0.273 0.055,-0.303 0.055,-0.342C0.055,-0.372 0.06,-0.398 0.071,-0.419C0.081,-0.44 0.096,-0.458 0.115,-0.472C0.134,-0.486 0.157,-0.496 0.184,-0.503C0.211,-0.509 0.241,-0.512 0.274,-0.512C0.299,-0.512 0.322,-0.51 0.343,-0.507C0.364,-0.504 0.385,-0.5 0.406,-0.496L0.406,-0L0.326,-0L0.326,-0.207ZM0.326,-0.432C0.317,-0.435 0.308,-0.438 0.297,-0.44C0.286,-0.441 0.277,-0.442 0.269,-0.442C0.226,-0.442 0.194,-0.434 0.172,-0.419C0.149,-0.404 0.138,-0.379 0.138,-0.346C0.138,-0.316 0.15,-0.293 0.174,-0.277C0.197,-0.26 0.228,-0.252 0.267,-0.252L0.278,-0.252C0.282,-0.252 0.288,-0.252 0.295,-0.253C0.302,-0.253 0.313,-0.253 0.326,-0.254L0.326,-0.432Z" style="fill-rule:nonzero;"/>
            </g>
            <g transform="matrix(60,0,0,60,8681.65,11970.9)">
                <path d="M0.526,0.127L0.472,0.127L0.457,-0L0.077,-0L0.077,-0.5L0.157,-0.5L0.157,-0.07L0.374,-0.07L0.374,-0.5L0.454,-0.5L0.454,-0.07L0.526,-0.07L0.526,0.127Z" style="fill-rule:nonzero;"/>
            </g>
            <g transform="matrix(60,0,0,60,8715.13,11970.9)">
                <path d="M0.389,-0.296L0.392,-0.358L0.389,-0.358L0.348,-0.294L0.123,-0L0.077,-0L0.077,-0.5L0.157,-0.5L0.157,-0.195L0.154,-0.136L0.158,-0.136L0.197,-0.198L0.422,-0.5L0.469,-0.5L0.469,-0L0.389,-0L0.389,-0.296Z" style="fill-rule:nonzero;"/>
            </g>
            <g transform="matrix(60,0,0,60,8748.49,11970.9)">
                <path d="M0.326,-0.207L0.249,-0.195L0.117,-0L0.02,-0L0.14,-0.171L0.18,-0.208C0.145,-0.213 0.116,-0.227 0.092,-0.25C0.067,-0.273 0.055,-0.303 0.055,-0.342C0.055,-0.372 0.06,-0.398 0.071,-0.419C0.081,-0.44 0.096,-0.458 0.115,-0.472C0.134,-0.486 0.157,-0.496 0.184,-0.503C0.211,-0.509 0.241,-0.512 0.274,-0.512C0.299,-0.512 0.322,-0.51 0.343,-0.507C0.364,-0.504 0.385,-0.5 0.406,-0.496L0.406,-0L0.326,-0L0.326,-0.207ZM0.326,-0.432C0.317,-0.435 0.308,-0.438 0.297,-0.44C0.286,-0.441 0.277,-0.442 0.269,-0.442C0.226,-0.442 0.194,-0.434 0.172,-0.419C0.149,-0.404 0.138,-0.379 0.138,-0.346C0.138,-0.316 0.15,-0.293 0.174,-0.277C0.197,-0.26 0.228,-0.252 0.267,-0.252L0.278,-0.252C0.282,-0.252 0.288,-0.252 0.295,-0.253C0.302,-0.253 0.313,-0.253 0.326,-0.254L0.326,-0.432Z" style="fill-rule:nonzero;"/>
            </g>
            <g transform="matrix(60,0,0,60,8253.85,12030.9)">
                <path d="M0.239,-0.278L0.008,-0.7L0.105,-0.7L0.269,-0.394L0.286,-0.333L0.287,-0.333L0.305,-0.396L0.462,-0.7L0.551,-0.7L0.322,-0.279L0.322,-0L0.239,-0L0.239,-0.278Z" style="fill-rule:nonzero;"/>
            </g>
            <g transform="matrix(60,0,0,60,8284.21,12030.9)">
                <rect x="0.059" y="-0.325" width="0.242" height="0.074" style="fill-rule:nonzero;"/>
            </g>
            <g transform="matrix(60,0,0,60,8306.41,12030.9)">
                <path d="M0.49,-0.297L0.496,-0.392L0.491,-0.392L0.455,-0.315L0.334,-0.119L0.306,-0.119L0.18,-0.315L0.147,-0.392L0.143,-0.392L0.151,-0.298L0.151,-0L0.077,-0L0.077,-0.5L0.156,-0.5L0.296,-0.276L0.325,-0.218L0.327,-0.218L0.357,-0.278L0.488,-0.5L0.568,-0.5L0.568,-0L0.49,-0L0.49,-0.297Z" style="fill-rule:nonzero;"/>
            </g>
            <g transform="matrix(60,0,0,60,8345.71,12030.9)">
                <path d="M0.049,-0.25C0.049,-0.335 0.068,-0.4 0.106,-0.445C0.143,-0.49 0.197,-0.512 0.268,-0.512C0.305,-0.512 0.338,-0.506 0.366,-0.494C0.393,-0.481 0.416,-0.464 0.434,-0.441C0.452,-0.418 0.465,-0.39 0.474,-0.358C0.483,-0.325 0.487,-0.289 0.487,-0.25C0.487,-0.165 0.468,-0.1 0.431,-0.056C0.393,-0.011 0.339,0.012 0.268,0.012C0.231,0.012 0.198,0.006 0.171,-0.007C0.143,-0.019 0.12,-0.037 0.102,-0.06C0.084,-0.083 0.071,-0.11 0.062,-0.143C0.053,-0.175 0.049,-0.211 0.049,-0.25ZM0.132,-0.25C0.132,-0.225 0.135,-0.2 0.14,-0.177C0.145,-0.154 0.152,-0.133 0.163,-0.116C0.174,-0.099 0.188,-0.085 0.205,-0.074C0.222,-0.063 0.243,-0.058 0.268,-0.058C0.359,-0.057 0.404,-0.121 0.404,-0.25C0.404,-0.276 0.402,-0.301 0.397,-0.324C0.392,-0.347 0.384,-0.368 0.373,-0.385C0.362,-0.402 0.348,-0.416 0.331,-0.427C0.314,-0.437 0.293,-0.442 0.268,-0.442C0.177,-0.443 0.132,-0.379 0.132,-0.25Z" style="fill-rule:nonzero;"/>
            </g>
            <g transform="matrix(60,0,0,60,8378.47,12030.9)">
                <path d="M0.383,-0.221L0.157,-0.221L0.157,-0L0.077,-0L0.077,-0.5L0.157,-0.5L0.157,-0.291L0.383,-0.291L0.383,-0.5L0.463,-0.5L0.463,-0L0.383,-0L0.383,-0.221Z" style="fill-rule:nonzero;"/>
            </g>
            <g transform="matrix(60,0,0,60,8411.47,12030.9)">
                <path d="M0.049,-0.25C0.049,-0.335 0.068,-0.4 0.106,-0.445C0.143,-0.49 0.197,-0.512 0.268,-0.512C0.305,-0.512 0.338,-0.506 0.366,-0.494C0.393,-0.481 0.416,-0.464 0.434,-0.441C0.452,-0.418 0.465,-0.39 0.474,-0.358C0.483,-0.325 0.487,-0.289 0.487,-0.25C0.487,-0.165 0.468,-0.1 0.431,-0.056C0.393,-0.011 0.339,0.012 0.268,0.012C0.231,0.012 0.198,0.006 0.171,-0.007C0.143,-0.019 0.12,-0.037 0.102,-0.06C0.084,-0.083 0.071,-0.11 0.062,-0.143C0.053,-0.175 0.049,-0.211 0.049,-0.25ZM0.132,-0.25C0.132,-0.225 0.135,-0.2 0.14,-0.177C0.145,-0.154 0.152,-0.133 0.163,-0.116C0.174,-0.099 0.188,-0.085 0.205,-0.074C0.222,-0.063 0.243,-0.058 0.268,-0.058C0.359,-0.057 0.404,-0.121 0.404,-0.25C0.404,-0.276 0.402,-0.301 0.397,-0.324C0.392,-0.347 0.384,-0.368 0.373,-0.385C0.362,-0.402 0.348,-0.416 0.331,-0.427C0.314,-0.437 0.293,-0.442 0.268,-0.442C0.177,-0.443 0.132,-0.379 0.132,-0.25Z" style="fill-rule:nonzero;"/>
            </g>
            <g transform="matrix(60,0,0,60,8444.23,12030.9)">
                <path d="M0.395,-0.43L0.239,-0.43L0.239,-0L0.159,-0L0.159,-0.43L0.003,-0.43L0.003,-0.5L0.395,-0.5L0.395,-0.43Z" style="fill-rule:nonzero;"/>
            </g>
            <g transform="matrix(60,0,0,60,8468.65,12030.9)">
                <path d="M0.049,-0.25C0.049,-0.335 0.068,-0.4 0.106,-0.445C0.143,-0.49 0.197,-0.512 0.268,-0.512C0.305,-0.512 0.338,-0.506 0.366,-0.494C0.393,-0.481 0.416,-0.464 0.434,-0.441C0.452,-0.418 0.465,-0.39 0.474,-0.358C0.483,-0.325 0.487,-0.289 0.487,-0.25C0.487,-0.165 0.468,-0.1 0.431,-0.056C0.393,-0.011 0.339,0.012 0.268,0.012C0.231,0.012 0.198,0.006 0.171,-0.007C0.143,-0.019 0.12,-0.037 0.102,-0.06C0.084,-0.083 0.071,-0.11 0.062,-0.143C0.053,-0.175 0.049,-0.211 0.049,-0.25ZM0.132,-0.25C0.132,-0.225 0.135,-0.2 0.14,-0.177C0.145,-0.154 0.152,-0.133 0.163,-0.116C0.174,-0.099 0.188,-0.085 0.205,-0.074C0.222,-0.063 0.243,-0.058 0.268,-0.058C0.359,-0.057 0.404,-0.121 0.404,-0.25C0.404,-0.276 0.402,-0.301 0.397,-0.324C0.392,-0.347 0.384,-0.368 0.373,-0.385C0.362,-0.402 0.348,-0.416 0.331,-0.427C0.314,-0.437 0.293,-0.442 0.268,-0.442C0.177,-0.443 0.132,-0.379 0.132,-0.25Z" style="fill-rule:nonzero;"/>
            </g>
            <g transform="matrix(60,0,0,60,8501.41,12030.9)">
                <path d="M0.383,-0.221L0.157,-0.221L0.157,-0L0.077,-0L0.077,-0.5L0.157,-0.5L0.157,-0.291L0.383,-0.291L0.383,-0.5L0.463,-0.5L0.463,-0L0.383,-0L0.383,-0.221Z" style="fill-rule:nonzero;"/>
            </g>
            <g transform="matrix(60,0,0,60,8534.41,12030.9)">
                <path d="M0.383,-0.221L0.157,-0.221L0.157,-0L0.077,-0L0.077,-0.5L0.157,-0.5L0.157,-0.291L0.383,-0.291L0.383,-0.5L0.463,-0.5L0.463,-0L0.383,-0L0.383,-0.221Z" style="fill-rule:nonzero;"/>
            </g>
            <g transform="matrix(60,0,0,60,8567.41,12030.9)">
                <path d="M0.157,-0.07C0.182,-0.066 0.205,-0.064 0.228,-0.064C0.27,-0.064 0.299,-0.072 0.316,-0.089C0.333,-0.105 0.341,-0.128 0.341,-0.158C0.341,-0.185 0.333,-0.207 0.317,-0.224C0.3,-0.241 0.272,-0.25 0.231,-0.25C0.22,-0.25 0.207,-0.25 0.194,-0.249C0.181,-0.248 0.168,-0.246 0.157,-0.243L0.157,-0.07ZM0.157,-0.309C0.173,-0.312 0.188,-0.314 0.203,-0.315C0.218,-0.316 0.232,-0.316 0.245,-0.316C0.279,-0.316 0.308,-0.312 0.331,-0.305C0.354,-0.297 0.372,-0.286 0.386,-0.273C0.4,-0.26 0.41,-0.244 0.416,-0.226C0.421,-0.207 0.424,-0.188 0.424,-0.167C0.424,-0.106 0.407,-0.062 0.374,-0.035C0.34,-0.008 0.285,0.006 0.21,0.006C0.167,0.006 0.123,0.004 0.077,-0L0.077,-0.5L0.157,-0.5L0.157,-0.309ZM0.503,-0.5L0.583,-0.5L0.583,-0L0.503,-0L0.503,-0.5Z" style="fill-rule:nonzero;"/>
            </g>
            <g transform="matrix(60,0,0,60,8607.61,12030.9)">
                <path d="M0.208,-0.256L0.04,-0.5L0.138,-0.5L0.233,-0.362L0.261,-0.305L0.29,-0.362L0.387,-0.5L0.477,-0.5L0.308,-0.26L0.487,-0L0.392,-0L0.286,-0.152L0.256,-0.212L0.225,-0.152L0.117,-0L0.028,-0L0.208,-0.256Z" style="fill-rule:nonzero;"/>
            </g>
            <g transform="matrix(60,0,0,60,8655.73,12030.9)">
                <path d="M0.378,-0.43L0.157,-0.43L0.157,-0L0.077,-0L0.077,-0.5L0.458,-0.5L0.458,-0L0.378,-0L0.378,-0.43Z" style="fill-rule:nonzero;"/>
            </g>
            <g transform="matrix(60,0,0,60,8688.43,12030.9)">
                <path d="M0.049,-0.25C0.049,-0.335 0.068,-0.4 0.106,-0.445C0.143,-0.49 0.197,-0.512 0.268,-0.512C0.305,-0.512 0.338,-0.506 0.366,-0.494C0.393,-0.481 0.416,-0.464 0.434,-0.441C0.452,-0.418 0.465,-0.39 0.474,-0.358C0.483,-0.325 0.487,-0.289 0.487,-0.25C0.487,-0.165 0.468,-0.1 0.431,-0.056C0.393,-0.011 0.339,0.012 0.268,0.012C0.231,0.012 0.198,0.006 0.171,-0.007C0.143,-0.019 0.12,-0.037 0.102,-0.06C0.084,-0.083 0.071,-0.11 0.062,-0.143C0.053,-0.175 0.049,-0.211 0.049,-0.25ZM0.132,-0.25C0.132,-0.225 0.135,-0.2 0.14,-0.177C0.145,-0.154 0.152,-0.133 0.163,-0.116C0.174,-0.099 0.188,-0.085 0.205,-0.074C0.222,-0.063 0.243,-0.058 0.268,-0.058C0.359,-0.057 0.404,-0.121 0.404,-0.25C0.404,-0.276 0.402,-0.301 0.397,-0.324C0.392,-0.347 0.384,-0.368 0.373,-0.385C0.362,-0.402 0.348,-0.416 0.331,-0.427C0.314,-0.437 0.293,-0.442 0.268,-0.442C0.177,-0.443 0.132,-0.379 0.132,-0.25Z" style="fill-rule:nonzero;"/>
            </g>
            <g transform="matrix(60,0,0,60,8721.19,12030.9)">
                <path d="M0.346,-0.43L0.201,-0.43C0.199,-0.402 0.197,-0.372 0.195,-0.34C0.193,-0.307 0.19,-0.275 0.186,-0.243C0.182,-0.21 0.177,-0.179 0.17,-0.15C0.163,-0.12 0.155,-0.094 0.145,-0.071C0.134,-0.048 0.122,-0.03 0.107,-0.017C0.092,-0.003 0.074,0.004 0.053,0.004C0.04,0.004 0.029,0.003 0.02,0.002C0.011,0.001 0.002,-0.002 -0.005,-0.005L0.007,-0.072C0.015,-0.069 0.024,-0.068 0.033,-0.068C0.046,-0.068 0.058,-0.074 0.069,-0.085C0.08,-0.096 0.089,-0.118 0.097,-0.15C0.105,-0.181 0.112,-0.225 0.117,-0.281C0.122,-0.337 0.126,-0.41 0.128,-0.5L0.426,-0.5L0.426,-0L0.346,-0L0.346,-0.43Z" style="fill-rule:nonzero;"/>
            </g>
            <g transform="matrix(60,0,0,60,8751.97,12030.9)">
                <path d="M0.389,-0.296L0.392,-0.358L0.389,-0.358L0.348,-0.294L0.123,-0L0.077,-0L0.077,-0.5L0.157,-0.5L0.157,-0.195L0.154,-0.136L0.158,-0.136L0.197,-0.198L0.422,-0.5L0.469,-0.5L0.469,-0L0.389,-0L0.389,-0.296Z" style="fill-rule:nonzero;"/>
            </g>
            <g transform="matrix(60,0,0,60,8785.33,12030.9)">
                <path d="M0.369,-0.43L0.157,-0.43L0.157,-0L0.077,-0L0.077,-0.5L0.369,-0.5L0.369,-0.43Z" style="fill-rule:nonzero;"/>
            </g>
            <g transform="matrix(60,0,0,60,8808.07,12030.9)">
                <path d="M0.049,-0.25C0.049,-0.335 0.068,-0.4 0.106,-0.445C0.143,-0.49 0.197,-0.512 0.268,-0.512C0.305,-0.512 0.338,-0.506 0.366,-0.494C0.393,-0.481 0.416,-0.464 0.434,-0.441C0.452,-0.418 0.465,-0.39 0.474,-0.358C0.483,-0.325 0.487,-0.289 0.487,-0.25C0.487,-0.165 0.468,-0.1 0.431,-0.056C0.393,-0.011 0.339,0.012 0.268,0.012C0.231,0.012 0.198,0.006 0.171,-0.007C0.143,-0.019 0.12,-0.037 0.102,-0.06C0.084,-0.083 0.071,-0.11 0.062,-0.143C0.053,-0.175 0.049,-0.211 0.049,-0.25ZM0.132,-0.25C0.132,-0.225 0.135,-0.2 0.14,-0.177C0.145,-0.154 0.152,-0.133 0.163,-0.116C0.174,-0.099 0.188,-0.085 0.205,-0.074C0.222,-0.063 0.243,-0.058 0.268,-0.058C0.359,-0.057 0.404,-0.121 0.404,-0.25C0.404,-0.276 0.402,-0.301 0.397,-0.324C0.392,-0.347 0.384,-0.368 0.373,-0.385C0.362,-0.402 0.348,-0.416 0.331,-0.427C0.314,-0.437 0.293,-0.442 0.268,-0.442C0.177,-0.443 0.132,-0.379 0.132,-0.25Z" style="fill-rule:nonzero;"/>
            </g>
            <g transform="matrix(60,0,0,60,8840.83,12030.9)">
                <path d="M0.383,-0.221L0.157,-0.221L0.157,-0L0.077,-0L0.077,-0.5L0.157,-0.5L0.157,-0.291L0.383,-0.291L0.383,-0.5L0.463,-0.5L0.463,-0L0.383,-0L0.383,-0.221Z" style="fill-rule:nonzero;"/>
            </g>
            <g transform="matrix(60,0,0,60,8873.83,12030.9)">
                <path d="M0.049,-0.25C0.049,-0.335 0.068,-0.4 0.106,-0.445C0.143,-0.49 0.197,-0.512 0.268,-0.512C0.305,-0.512 0.338,-0.506 0.366,-0.494C0.393,-0.481 0.416,-0.464 0.434,-0.441C0.452,-0.418 0.465,-0.39 0.474,-0.358C0.483,-0.325 0.487,-0.289 0.487,-0.25C0.487,-0.165 0.468,-0.1 0.431,-0.056C0.393,-0.011 0.339,0.012 0.268,0.012C0.231,0.012 0.198,0.006 0.171,-0.007C0.143,-0.019 0.12,-0.037 0.102,-0.06C0.084,-0.083 0.071,-0.11 0.062,-0.143C0.053,-0.175 0.049,-0.211 0.049,-0.25ZM0.132,-0.25C0.132,-0.225 0.135,-0.2 0.14,-0.177C0.145,-0.154 0.152,-0.133 0.163,-0.116C0.174,-0.099 0.188,-0.085 0.205,-0.074C0.222,-0.063 0.243,-0.058 0.268,-0.058C0.359,-0.057 0.404,-0.121 0.404,-0.25C0.404,-0.276 0.402,-0.301 0.397,-0.324C0.392,-0.347 0.384,-0.368 0.373,-0.385C0.362,-0.402 0.348,-0.416 0.331,-0.427C0.314,-0.437 0.293,-0.442 0.268,-0.442C0.177,-0.443 0.132,-0.379 0.132,-0.25Z" style="fill-rule:nonzero;"/>
            </g>
            <g transform="matrix(60,0,0,60,8906.59,12030.9)">
                <path d="M0.077,-0.499C0.1,-0.5 0.125,-0.502 0.151,-0.504C0.176,-0.506 0.208,-0.507 0.246,-0.507C0.312,-0.507 0.359,-0.497 0.388,-0.477C0.417,-0.456 0.431,-0.425 0.431,-0.384C0.431,-0.361 0.424,-0.338 0.411,-0.316C0.397,-0.293 0.374,-0.277 0.343,-0.266L0.343,-0.262C0.382,-0.255 0.41,-0.241 0.426,-0.221C0.442,-0.201 0.45,-0.174 0.45,-0.141C0.45,-0.089 0.431,-0.051 0.394,-0.028C0.357,-0.005 0.301,0.007 0.226,0.007C0.198,0.007 0.172,0.006 0.148,0.005C0.124,0.003 0.1,0.001 0.077,-0.001L0.077,-0.499ZM0.157,-0.067C0.17,-0.066 0.182,-0.065 0.195,-0.064C0.207,-0.063 0.221,-0.063 0.238,-0.063C0.283,-0.063 0.316,-0.069 0.338,-0.082C0.359,-0.095 0.37,-0.116 0.37,-0.147C0.37,-0.171 0.361,-0.191 0.343,-0.206C0.324,-0.221 0.292,-0.228 0.245,-0.228L0.157,-0.228L0.157,-0.067ZM0.255,-0.289C0.267,-0.289 0.279,-0.291 0.29,-0.295C0.301,-0.299 0.312,-0.305 0.321,-0.312C0.33,-0.319 0.337,-0.327 0.343,-0.336C0.348,-0.345 0.351,-0.355 0.351,-0.366C0.351,-0.393 0.343,-0.411 0.327,-0.422C0.311,-0.432 0.283,-0.437 0.243,-0.437C0.222,-0.437 0.205,-0.437 0.193,-0.436C0.18,-0.435 0.168,-0.435 0.157,-0.434L0.157,-0.289L0.255,-0.289Z" style="fill-rule:nonzero;"/>
            </g>
        </g>
        <path d="M791.799,24.961L778.719,24.961L778.719,62.521L773.739,62.521L773.739,24.961L760.659,24.961L760.659,20.521L791.799,20.521L791.799,24.961Z" style="fill-rule:nonzero;"/>
        <path d="M791.499,32.521L794.799,32.521L795.699,36.121L795.939,36.121C796.859,34.721 798.049,33.651 799.509,32.911C800.969,32.171 802.639,31.801 804.519,31.801C808.519,31.801 811.499,32.981 813.459,35.341C815.419,37.701 816.399,41.561 816.399,46.921C816.399,49.441 816.069,51.711 815.409,53.731C814.749,55.751 813.819,57.461 812.619,58.861C811.419,60.261 809.969,61.341 808.269,62.101C806.569,62.861 804.679,63.241 802.599,63.241C801.119,63.241 799.949,63.151 799.089,62.971C798.229,62.791 797.299,62.481 796.299,62.041L796.299,74.521L791.499,74.521L791.499,32.521ZM803.619,36.001C801.579,36.001 799.969,36.531 798.789,37.591C797.609,38.651 796.779,40.261 796.299,42.421L796.299,57.301C797.019,57.861 797.839,58.291 798.759,58.591C799.679,58.891 800.899,59.041 802.419,59.041C805.179,59.041 807.369,58.011 808.989,55.951C810.609,53.891 811.419,50.861 811.419,46.861C811.419,45.221 811.279,43.731 810.999,42.391C810.719,41.051 810.269,39.911 809.649,38.971C809.029,38.031 808.229,37.301 807.249,36.781C806.269,36.261 805.059,36.001 803.619,36.001Z" style="fill-rule:nonzero;"/>
        <path d="M843.279,44.761L843.459,41.041L843.279,41.041L840.819,44.881L827.319,62.521L824.559,62.521L824.559,32.521L829.359,32.521L829.359,50.821L829.179,54.361L829.419,54.361L831.759,50.641L845.259,32.521L848.079,32.521L848.079,62.521L843.279,62.521L843.279,44.761Z" style="fill-rule:nonzero;"/>
        <path d="M857.439,34.741C858.959,33.821 860.729,33.141 862.749,32.701C864.769,32.261 866.879,32.041 869.079,32.041C871.159,32.041 872.829,32.321 874.089,32.881C875.349,33.441 876.309,34.171 876.969,35.071C877.629,35.971 878.069,36.961 878.289,38.041C878.509,39.121 878.619,40.201 878.619,41.281C878.619,43.681 878.559,46.021 878.439,48.301C878.319,50.581 878.259,52.741 878.259,54.781C878.259,56.261 878.319,57.661 878.439,58.981C878.559,60.301 878.779,61.521 879.099,62.641L875.559,62.641L874.299,58.441L873.999,58.441C873.639,59.001 873.189,59.551 872.649,60.091C872.109,60.631 871.459,61.111 870.699,61.531C869.939,61.951 869.059,62.301 868.059,62.581C867.059,62.861 865.919,63.001 864.639,63.001C863.359,63.001 862.169,62.801 861.069,62.401C859.969,62.001 859.019,61.431 858.219,60.691C857.419,59.951 856.789,59.061 856.329,58.021C855.869,56.981 855.639,55.801 855.639,54.481C855.639,52.721 855.999,51.251 856.719,50.071C857.439,48.891 858.449,47.951 859.749,47.251C861.049,46.551 862.609,46.051 864.429,45.751C866.249,45.451 868.259,45.301 870.459,45.301L872.109,45.301C872.649,45.301 873.199,45.341 873.759,45.421C873.879,44.221 873.939,43.141 873.939,42.181C873.939,39.981 873.499,38.441 872.619,37.561C871.739,36.681 870.139,36.241 867.819,36.241C867.139,36.241 866.409,36.291 865.629,36.391C864.849,36.491 864.049,36.631 863.229,36.811C862.409,36.991 861.629,37.211 860.889,37.471C860.149,37.731 859.499,38.021 858.939,38.341L857.439,34.741ZM865.959,58.801C867.079,58.801 868.079,58.651 868.959,58.351C869.839,58.051 870.599,57.671 871.239,57.211C871.879,56.751 872.409,56.241 872.829,55.681C873.249,55.121 873.559,54.581 873.759,54.061L873.759,49.081C873.199,49.041 872.629,49.011 872.049,48.991C871.469,48.971 870.899,48.961 870.339,48.961C869.099,48.961 867.889,49.031 866.709,49.171C865.529,49.311 864.489,49.571 863.589,49.951C862.689,50.331 861.969,50.851 861.429,51.511C860.889,52.171 860.619,53.001 860.619,54.001C860.619,55.401 861.119,56.551 862.119,57.451C863.119,58.351 864.399,58.801 865.959,58.801Z" style="fill-rule:nonzero;"/>
        <path d="M906.639,49.261L893.079,49.261L893.079,62.521L888.279,62.521L888.279,32.521L893.079,32.521L893.079,45.061L906.639,45.061L906.639,32.521L911.439,32.521L911.439,62.521L906.639,62.521L906.639,49.261Z" style="fill-rule:nonzero;"/>
        <path d="M938.799,36.721L926.079,36.721L926.079,62.521L921.279,62.521L921.279,32.521L938.799,32.521L938.799,36.721Z" style="fill-rule:nonzero;"/>
        <path d="M952.839,51.961L954.519,57.721L954.819,57.721L956.139,51.901L961.959,32.521L966.819,32.521L957.939,59.461C957.259,61.421 956.589,63.321 955.929,65.161C955.269,67.001 954.539,68.641 953.739,70.081C952.939,71.521 952.039,72.671 951.039,73.531C950.039,74.391 948.879,74.821 947.559,74.821C946.119,74.821 944.939,74.621 944.019,74.221L944.859,70.081C945.379,70.281 945.879,70.381 946.359,70.381C947.479,70.381 948.559,69.791 949.599,68.611C950.639,67.431 951.499,65.401 952.179,62.521L940.119,32.521L945.639,32.521L952.839,51.961Z" style="fill-rule:nonzero;"/>
        <path d="M988.719,36.721L980.019,36.721C979.899,38.401 979.779,40.211 979.659,42.151C979.539,44.091 979.359,46.031 979.119,47.971C978.879,49.911 978.559,51.771 978.159,53.551C977.759,55.331 977.249,56.901 976.629,58.261C976.009,59.621 975.249,60.711 974.349,61.531C973.449,62.351 972.379,62.761 971.139,62.761C970.379,62.761 969.719,62.721 969.159,62.641C968.599,62.561 968.099,62.421 967.659,62.221L968.379,58.201C968.859,58.361 969.379,58.441 969.939,58.441C970.739,58.441 971.459,58.101 972.099,57.421C972.739,56.741 973.299,55.451 973.779,53.551C974.259,51.651 974.659,49.021 974.979,45.661C975.299,42.301 975.519,37.921 975.639,32.521L993.519,32.521L993.519,62.521L988.719,62.521L988.719,36.721Z" style="fill-rule:nonzero;"/>
        <path d="M1018.3,50.101L1013.68,50.821L1005.76,62.521L999.939,62.521L1007.14,52.261L1009.54,50.041C1007.46,49.721 1005.69,48.881 1004.23,47.521C1002.77,46.161 1002.04,44.321 1002.04,42.001C1002.04,40.201 1002.35,38.661 1002.97,37.381C1003.59,36.101 1004.48,35.041 1005.64,34.201C1006.8,33.361 1008.18,32.751 1009.78,32.371C1011.38,31.991 1013.18,31.801 1015.18,31.801C1016.66,31.801 1018.04,31.901 1019.32,32.101C1020.6,32.301 1021.86,32.521 1023.1,32.761L1023.1,62.521L1018.3,62.521L1018.3,50.101ZM1018.3,36.601C1017.78,36.401 1017.2,36.251 1016.56,36.151C1015.92,36.051 1015.36,36.001 1014.88,36.001C1012.32,36.001 1010.37,36.461 1009.03,37.381C1007.69,38.301 1007.02,39.761 1007.02,41.761C1007.02,43.561 1007.73,44.951 1009.15,45.931C1010.57,46.911 1012.44,47.401 1014.76,47.401L1015.42,47.401C1015.66,47.401 1016,47.391 1016.44,47.371C1016.88,47.351 1017.5,47.321 1018.3,47.281L1018.3,36.601Z" style="fill-rule:nonzero;"/>
        <path d="M1059.4,70.141L1056.16,70.141L1055.26,62.521L1032.46,62.521L1032.46,32.521L1037.26,32.521L1037.26,58.321L1050.28,58.321L1050.28,32.521L1055.08,32.521L1055.08,58.321L1059.4,58.321L1059.4,70.141Z" style="fill-rule:nonzero;"/>
        <path d="M1084.66,44.761L1084.84,41.041L1084.66,41.041L1082.2,44.881L1068.7,62.521L1065.94,62.521L1065.94,32.521L1070.74,32.521L1070.74,50.821L1070.56,54.361L1070.8,54.361L1073.14,50.641L1086.64,32.521L1089.46,32.521L1089.46,62.521L1084.66,62.521L1084.66,44.761Z" style="fill-rule:nonzero;"/>
        <path d="M1114.24,50.101L1109.62,50.821L1101.7,62.521L1095.88,62.521L1103.08,52.261L1105.48,50.041C1103.4,49.721 1101.63,48.881 1100.17,47.521C1098.71,46.161 1097.98,44.321 1097.98,42.001C1097.98,40.201 1098.29,38.661 1098.91,37.381C1099.53,36.101 1100.42,35.041 1101.58,34.201C1102.74,33.361 1104.12,32.751 1105.72,32.371C1107.32,31.991 1109.12,31.801 1111.12,31.801C1112.6,31.801 1113.98,31.901 1115.26,32.101C1116.54,32.301 1117.8,32.521 1119.04,32.761L1119.04,62.521L1114.24,62.521L1114.24,50.101ZM1114.24,36.601C1113.72,36.401 1113.14,36.251 1112.5,36.151C1111.86,36.051 1111.3,36.001 1110.82,36.001C1108.26,36.001 1106.31,36.461 1104.97,37.381C1103.63,38.301 1102.96,39.761 1102.96,41.761C1102.96,43.561 1103.67,44.951 1105.09,45.931C1106.51,46.911 1108.38,47.401 1110.7,47.401L1111.36,47.401C1111.6,47.401 1111.94,47.391 1112.38,47.371C1112.82,47.351 1113.44,47.321 1114.24,47.281L1114.24,36.601Z" style="fill-rule:nonzero;"/>
        <path d="M1163.08,36.721L1149.82,36.721L1149.82,62.521L1145.02,62.521L1145.02,32.521L1167.88,32.521L1167.88,62.521L1163.08,62.521L1163.08,36.721Z" style="fill-rule:nonzero;"/>
        <path d="M1176.04,47.521C1176.04,42.441 1177.17,38.551 1179.43,35.851C1181.69,33.151 1184.94,31.801 1189.18,31.801C1191.42,31.801 1193.37,32.171 1195.03,32.911C1196.69,33.651 1198.06,34.711 1199.14,36.091C1200.22,37.471 1201.02,39.131 1201.54,41.071C1202.06,43.011 1202.32,45.161 1202.32,47.521C1202.32,52.601 1201.19,56.491 1198.93,59.191C1196.67,61.891 1193.42,63.241 1189.18,63.241C1186.94,63.241 1184.99,62.871 1183.33,62.131C1181.67,61.391 1180.3,60.331 1179.22,58.951C1178.14,57.571 1177.34,55.911 1176.82,53.971C1176.3,52.031 1176.04,49.881 1176.04,47.521ZM1181.02,47.521C1181.02,49.041 1181.17,50.501 1181.47,51.901C1181.77,53.301 1182.24,54.521 1182.88,55.561C1183.52,56.601 1184.36,57.441 1185.4,58.081C1186.44,58.721 1187.7,59.041 1189.18,59.041C1194.62,59.081 1197.34,55.241 1197.34,47.521C1197.34,45.961 1197.19,44.481 1196.89,43.081C1196.59,41.681 1196.12,40.461 1195.48,39.421C1194.84,38.381 1194,37.551 1192.96,36.931C1191.92,36.311 1190.66,36.001 1189.18,36.001C1183.74,35.961 1181.02,39.801 1181.02,47.521Z" style="fill-rule:nonzero;"/>
        <path d="M1226.62,36.721L1217.92,36.721C1217.8,38.401 1217.68,40.211 1217.56,42.151C1217.44,44.091 1217.26,46.031 1217.02,47.971C1216.78,49.911 1216.46,51.771 1216.06,53.551C1215.66,55.331 1215.15,56.901 1214.53,58.261C1213.91,59.621 1213.15,60.711 1212.25,61.531C1211.35,62.351 1210.28,62.761 1209.04,62.761C1208.28,62.761 1207.62,62.721 1207.06,62.641C1206.5,62.561 1206,62.421 1205.56,62.221L1206.28,58.201C1206.76,58.361 1207.28,58.441 1207.84,58.441C1208.64,58.441 1209.36,58.101 1210,57.421C1210.64,56.741 1211.2,55.451 1211.68,53.551C1212.16,51.651 1212.56,49.021 1212.88,45.661C1213.2,42.301 1213.42,37.921 1213.54,32.521L1231.42,32.521L1231.42,62.521L1226.62,62.521L1226.62,36.721Z" style="fill-rule:nonzero;"/>
        <path d="M1259.98,44.761L1260.16,41.041L1259.98,41.041L1257.52,44.881L1244.02,62.521L1241.26,62.521L1241.26,32.521L1246.06,32.521L1246.06,50.821L1245.88,54.361L1246.12,54.361L1248.46,50.641L1261.96,32.521L1264.78,32.521L1264.78,62.521L1259.98,62.521L1259.98,44.761Z" style="fill-rule:nonzero;"/>
        <path d="M1292.14,36.721L1279.42,36.721L1279.42,62.521L1274.62,62.521L1274.62,32.521L1292.14,32.521L1292.14,36.721Z" style="fill-rule:nonzero;"/>
        <path d="M1295.68,47.521C1295.68,42.441 1296.81,38.551 1299.07,35.851C1301.33,33.151 1304.58,31.801 1308.82,31.801C1311.06,31.801 1313.01,32.171 1314.67,32.911C1316.33,33.651 1317.7,34.711 1318.78,36.091C1319.86,37.471 1320.66,39.131 1321.18,41.071C1321.7,43.011 1321.96,45.161 1321.96,47.521C1321.96,52.601 1320.83,56.491 1318.57,59.191C1316.31,61.891 1313.06,63.241 1308.82,63.241C1306.58,63.241 1304.63,62.871 1302.97,62.131C1301.31,61.391 1299.94,60.331 1298.86,58.951C1297.78,57.571 1296.98,55.911 1296.46,53.971C1295.94,52.031 1295.68,49.881 1295.68,47.521ZM1300.66,47.521C1300.66,49.041 1300.81,50.501 1301.11,51.901C1301.41,53.301 1301.88,54.521 1302.52,55.561C1303.16,56.601 1304,57.441 1305.04,58.081C1306.08,58.721 1307.34,59.041 1308.82,59.041C1314.26,59.081 1316.98,55.241 1316.98,47.521C1316.98,45.961 1316.83,44.481 1316.53,43.081C1316.23,41.681 1315.76,40.461 1315.12,39.421C1314.48,38.381 1313.64,37.551 1312.6,36.931C1311.56,36.311 1310.3,36.001 1308.82,36.001C1303.38,35.961 1300.66,39.801 1300.66,47.521Z" style="fill-rule:nonzero;"/>
        <path d="M1348.48,49.261L1334.92,49.261L1334.92,62.521L1330.12,62.521L1330.12,32.521L1334.92,32.521L1334.92,45.061L1348.48,45.061L1348.48,32.521L1353.28,32.521L1353.28,62.521L1348.48,62.521L1348.48,49.261Z" style="fill-rule:nonzero;"/>
        <path d="M1362.64,34.741C1364.16,33.821 1365.93,33.141 1367.95,32.701C1369.97,32.261 1372.08,32.041 1374.28,32.041C1376.36,32.041 1378.03,32.321 1379.29,32.881C1380.55,33.441 1381.51,34.171 1382.17,35.071C1382.83,35.971 1383.27,36.961 1383.49,38.041C1383.71,39.121 1383.82,40.201 1383.82,41.281C1383.82,43.681 1383.76,46.021 1383.64,48.301C1383.52,50.581 1383.46,52.741 1383.46,54.781C1383.46,56.261 1383.52,57.661 1383.64,58.981C1383.76,60.301 1383.98,61.521 1384.3,62.641L1380.76,62.641L1379.5,58.441L1379.2,58.441C1378.84,59.001 1378.39,59.551 1377.85,60.091C1377.31,60.631 1376.66,61.111 1375.9,61.531C1375.14,61.951 1374.26,62.301 1373.26,62.581C1372.26,62.861 1371.12,63.001 1369.84,63.001C1368.56,63.001 1367.37,62.801 1366.27,62.401C1365.17,62.001 1364.22,61.431 1363.42,60.691C1362.62,59.951 1361.99,59.061 1361.53,58.021C1361.07,56.981 1360.84,55.801 1360.84,54.481C1360.84,52.721 1361.2,51.251 1361.92,50.071C1362.64,48.891 1363.65,47.951 1364.95,47.251C1366.25,46.551 1367.81,46.051 1369.63,45.751C1371.45,45.451 1373.46,45.301 1375.66,45.301L1377.31,45.301C1377.85,45.301 1378.4,45.341 1378.96,45.421C1379.08,44.221 1379.14,43.141 1379.14,42.181C1379.14,39.981 1378.7,38.441 1377.82,37.561C1376.94,36.681 1375.34,36.241 1373.02,36.241C1372.34,36.241 1371.61,36.291 1370.83,36.391C1370.05,36.491 1369.25,36.631 1368.43,36.811C1367.61,36.991 1366.83,37.211 1366.09,37.471C1365.35,37.731 1364.7,38.021 1364.14,38.341L1362.64,34.741ZM1371.16,58.801C1372.28,58.801 1373.28,58.651 1374.16,58.351C1375.04,58.051 1375.8,57.671 1376.44,57.211C1377.08,56.751 1377.61,56.241 1378.03,55.681C1378.45,55.121 1378.76,54.581 1378.96,54.061L1378.96,49.081C1378.4,49.041 1377.83,49.011 1377.25,48.991C1376.67,48.971 1376.1,48.961 1375.54,48.961C1374.3,48.961 1373.09,49.031 1371.91,49.171C1370.73,49.311 1369.69,49.571 1368.79,49.951C1367.89,50.331 1367.17,50.851 1366.63,51.511C1366.09,52.171 1365.82,53.001 1365.82,54.001C1365.82,55.401 1366.32,56.551 1367.32,57.451C1368.32,58.351 1369.6,58.801 1371.16,58.801Z" style="fill-rule:nonzero;"/>
    </g>
</svg>
