<?xml version="1.0" encoding="UTF-8" standalone="no"?>
<!DOCTYPE svg PUBLIC "-//W3C//DTD SVG 1.1//EN" "http://www.w3.org/Graphics/SVG/1.1/DTD/svg11.dtd">
<svg width="100%" height="100%" viewBox="0 0 718 430" version="1.1" xmlns="http://www.w3.org/2000/svg" xmlns:xlink="http://www.w3.org/1999/xlink" xml:space="preserve" xmlns:serif="http://www.serif.com/" style="fill-rule:evenodd;clip-rule:evenodd;stroke-linejoin:round;stroke-miterlimit:10;">
    <rect id="polygon_triangulation" x="-1792" y="-2082" width="8206" height="4260" style="fill:none;"/>
    <g id="polygon_triangulation1" serif:id="polygon_triangulation">
        <g transform="matrix(1,0,0,1,228.891,-1685.89)">
            <g transform="matrix(48,0,0,48,368.503,1953.88)">
                <path d="M0.23,-0.238L0.247,-0.161L0.252,-0.161L0.266,-0.24L0.351,-0.5L0.491,-0.5L0.282,0.005L0.203,0.005L-0.014,-0.5L0.137,-0.5L0.23,-0.238Z" style="fill-rule:nonzero;"/>
            </g>
            <g transform="matrix(27.984,0,0,27.984,391.399,1969.87)">
                <path d="M0.069,-0.5L0.199,-0.5L0.199,-0L0.069,-0L0.069,-0.5ZM0.05,-0.641C0.05,-0.66 0.057,-0.677 0.072,-0.691C0.086,-0.704 0.106,-0.711 0.131,-0.711C0.156,-0.711 0.177,-0.704 0.193,-0.691C0.208,-0.677 0.216,-0.66 0.216,-0.641C0.216,-0.622 0.208,-0.606 0.193,-0.593C0.177,-0.58 0.156,-0.573 0.131,-0.573C0.106,-0.573 0.086,-0.58 0.072,-0.593C0.057,-0.606 0.05,-0.622 0.05,-0.641Z" style="fill-rule:nonzero;"/>
            </g>
        </g>
        <path d="M92,163L112.599,161.606L120.016,173.981L152.404,184.194L191,193L278,200L292,177L232,148L281,111L279,21L346,73L387,127L518,163L583,257L522,288L697,405L560,376L491,333L367,315L277,268L211,257L206,240L186,229L148,237L162,254L142,258L100.926,252.116L59,252L40,241L25,209L52,203L62,185L78,198L114,208L91,182L92,163Z" style="fill:rgb(217,217,217);stroke:black;stroke-width:4px;"/>
        <g id="TIN-vertices" serif:id="TIN vertices">
            <circle cx="278.5" cy="21" r="6"/>
            <circle cx="346.05" cy="71.924" r="6"/>
            <circle cx="385.853" cy="126.861" r="6"/>
            <circle cx="517.962" cy="162.818" r="6"/>
            <circle cx="582.099" cy="255.635" r="6"/>
            <circle cx="522.499" cy="286.896" r="6"/>
            <circle cx="696.102" cy="403.856" r="6"/>
            <circle cx="559.851" cy="374.786" r="6"/>
            <circle cx="491.409" cy="334.518" r="6"/>
            <circle cx="369.165" cy="315.409" r="6"/>
            <circle cx="277.766" cy="268.879" r="6"/>
            <circle cx="210.353" cy="258.488" r="6"/>
            <circle cx="206.586" cy="240.858" r="6"/>
            <circle cx="185.295" cy="229.612" r="6"/>
            <circle cx="148.113" cy="236.678" r="6"/>
            <circle cx="161.253" cy="252.116" r="6"/>
            <circle cx="143.606" cy="258.921" r="6"/>
            <circle cx="102.203" cy="251.941" r="6"/>
            <circle cx="59.388" cy="252.023" r="6"/>
            <circle cx="40.879" cy="240.595" r="6"/>
            <circle cx="26.063" cy="208.004" r="6"/>
            <circle cx="50.952" cy="203.339" r="6"/>
            <circle cx="62.719" cy="185.078" r="6"/>
            <circle cx="76.979" cy="198.219" r="6"/>
            <circle cx="113.448" cy="208.29" r="6"/>
            <circle cx="91.335" cy="182.005" r="6"/>
            <circle cx="92.835" cy="162.671" r="6"/>
            <circle cx="111.943" cy="160.338" r="6"/>
            <circle cx="120.457" cy="173.865" r="6"/>
            <circle cx="152.118" cy="184.871" r="6"/>
            <circle cx="192" cy="193" r="6"/>
            <circle cx="277.861" cy="199.957" r="6"/>
            <circle cx="292.061" cy="176.479" r="6"/>
            <circle cx="249.63" cy="227.195" r="8" style="fill:rgb(246,9,9);"/>
            <circle cx="236" cy="148" r="6"/>
            <circle cx="280.601" cy="110.623" r="6"/>
        </g>
        <path d="M292.403,248.335C291.203,249.215 289.753,249.885 288.053,250.345C286.353,250.805 284.603,251.035 282.803,251.035C280.403,251.035 278.373,250.655 276.713,249.895C275.053,249.135 273.703,248.065 272.663,246.685C271.623,245.305 270.873,243.635 270.413,241.675C269.953,239.715 269.723,237.555 269.723,235.195C269.723,230.115 270.863,226.205 273.143,223.465C275.423,220.725 278.743,219.355 283.103,219.355C285.303,219.355 287.073,219.535 288.413,219.895C289.753,220.255 290.963,220.715 292.043,221.275L290.183,227.635C289.263,227.195 288.353,226.855 287.453,226.615C286.553,226.375 285.523,226.255 284.363,226.255C282.203,226.255 280.563,226.965 279.443,228.385C278.323,229.805 277.763,232.075 277.763,235.195C277.763,236.475 277.903,237.655 278.183,238.735C278.463,239.815 278.883,240.755 279.443,241.555C280.003,242.355 280.733,242.985 281.633,243.445C282.533,243.905 283.583,244.135 284.783,244.135C286.103,244.135 287.223,243.965 288.143,243.625C289.063,243.285 289.883,242.875 290.603,242.395L292.403,248.335Z" style="fill:rgb(246,9,9);fill-rule:nonzero;"/>
    </g>
</svg>
