<?xml version="1.0" encoding="UTF-8" standalone="no"?>
<!DOCTYPE svg PUBLIC "-//W3C//DTD SVG 1.1//EN" "http://www.w3.org/Graphics/SVG/1.1/DTD/svg11.dtd">
<svg width="100%" height="100%" viewBox="0 0 1388 567" version="1.1" xmlns="http://www.w3.org/2000/svg" xmlns:xlink="http://www.w3.org/1999/xlink" xml:space="preserve" xmlns:serif="http://www.serif.com/" style="fill-rule:evenodd;clip-rule:evenodd;stroke-linejoin:round;stroke-miterlimit:10;">
    <rect id="polygon_triangulation" x="-5998" y="-1044" width="8206" height="4260" style="fill:none;"/>
    <g id="polygon_triangulation1" serif:id="polygon_triangulation">
        <g id="TIN-vertices" serif:id="TIN vertices">
        </g>
        <g id="TIN-edges" serif:id="TIN edges">
        </g>
        <g id="halos">
        </g>
        <g id="halos1" serif:id="halos">
        </g>
        <g id="digits">
        </g>
        <g id="digits1" serif:id="digits">
        </g>
        <path d="M760.415,59L775.415,33.576L795.415,63L799.415,91.586L772.415,76L760.415,59Z" style="fill:rgb(218,218,218);stroke:black;stroke-width:2px;"/>
        <path d="M812.415,72L833.415,62.581L866.415,80L840.415,110L812.415,72Z" style="fill:rgb(218,218,218);stroke:black;stroke-width:2px;"/>
        <path d="M824.415,157L866.415,131L884.415,208C884.415,208 852.296,228.133 852.415,219C852.534,209.867 851.415,187 851.415,187L839.415,184L824.415,157Z" style="fill:rgb(218,218,218);stroke:black;stroke-width:2px;"/>
        <path d="M987.415,156.188L1051.41,111L1069.41,165L1036.41,201.377L987.415,156.188Z" style="fill:rgb(218,218,218);stroke:black;stroke-width:2px;"/>
        <path d="M1036.41,13.576L1028.41,90L1037.41,146L1077.41,167L1069.41,13.576L1036.41,13.576Z" style="fill:rgb(218,218,218);stroke:black;stroke-width:2px;"/>
        <path d="M1052.91,42.581L1052.91,66.29L1269.41,71.586L1240.41,42.581L1203.41,26L1141.41,42.581L1052.91,42.581Z" style="fill:rgb(218,218,218);stroke:black;stroke-width:2px;"/>
        <path d="M1171.41,90.288L1173.41,126.288L1218.41,135.476L1240.41,107.288L1171.41,90.288Z" style="fill:rgb(218,218,218);stroke:black;stroke-width:2px;"/>
        <path d="M1161.16,244L1207.91,211L1242.41,247L1207.91,295L1193.41,269L1161.16,244Z" style="fill:rgb(218,218,218);stroke:black;stroke-width:2px;"/>
        <path d="M1289.41,224L1277.41,271L1318.41,295L1322.41,253L1305.41,253L1332.41,226L1322.41,211L1289.41,224Z" style="fill:rgb(218,218,218);stroke:black;stroke-width:2px;"/>
        <path d="M945.415,393L1007.42,340L1048.41,376L1025.41,436L998.415,398L945.415,393Z" style="fill:rgb(218,218,218);stroke:black;stroke-width:2px;"/>
        <path d="M1010.42,471L1072.91,419L1083.41,451L1093.41,491L1048.41,500L1010.42,471Z" style="fill:rgb(218,218,218);stroke:black;stroke-width:2px;"/>
        <path d="M1216.79,415.75L1204.54,434.75L1245.16,446.75L1251.29,424.75L1216.79,415.75Z" style="fill:rgb(218,218,218);stroke:black;stroke-width:2px;"/>
        <path d="M1262.41,403.5L1271.41,373L1318.41,419L1297.41,436L1262.41,403.5Z" style="fill:rgb(218,218,218);stroke:black;stroke-width:2px;"/>
        <path d="M1332.41,412.5L1351.41,395.5L1362.41,436L1332.41,412.5Z" style="fill:rgb(218,218,218);stroke:black;stroke-width:2px;"/>
        <path d="M1181.16,524.174L1195.41,500L1227.91,519.996L1219.41,533.725L1204.54,538.5L1181.16,524.174Z" style="fill:rgb(218,218,218);stroke:black;stroke-width:2px;"/>
        <path d="M1251.29,519.25L1262.41,500L1290.41,519.25L1290.41,538.5L1262.41,547L1251.29,519.25Z" style="fill:rgb(218,218,218);stroke:black;stroke-width:2px;"/>
        <rect x="760.415" y="33.576" width="39" height="58.01" style="fill:none;stroke:rgb(255,0,0);stroke-width:2px;"/>
        <rect x="812.415" y="62.581" width="54" height="47.419" style="fill:none;stroke:rgb(255,0,0);stroke-width:2px;"/>
        <rect x="824.415" y="131" width="60" height="90.377" style="fill:none;stroke:rgb(255,0,0);stroke-width:2px;"/>
        <rect x="987.415" y="111" width="82" height="90.377" style="fill:none;stroke:rgb(255,0,0);stroke-width:2px;"/>
        <rect x="1028.41" y="13.576" width="49" height="153.424" style="fill:none;stroke:rgb(255,0,0);stroke-width:2px;"/>
        <rect x="1052.91" y="26" width="216.5" height="45.586" style="fill:none;stroke:rgb(255,0,0);stroke-width:2px;"/>
        <rect x="1171.41" y="90.288" width="69" height="45.188" style="fill:none;stroke:rgb(255,0,0);stroke-width:2px;"/>
        <rect x="1161.16" y="211" width="81.25" height="84" style="fill:none;stroke:rgb(255,0,0);stroke-width:2px;"/>
        <rect x="1277.41" y="211" width="55" height="84" style="fill:none;stroke:rgb(255,0,0);stroke-width:2px;"/>
        <rect x="943.415" y="340" width="106" height="96" style="fill:none;stroke:rgb(255,0,0);stroke-width:2px;"/>
        <rect x="1010.42" y="420" width="83" height="81" style="fill:none;stroke:rgb(255,0,0);stroke-width:2px;"/>
        <rect x="1333.41" y="395" width="28" height="41" style="fill:none;stroke:rgb(255,0,0);stroke-width:2px;"/>
        <rect x="1262.41" y="374" width="56" height="62" style="fill:none;stroke:rgb(255,0,0);stroke-width:2px;"/>
        <rect x="1203.41" y="415.5" width="48" height="31.5" style="fill:none;stroke:rgb(255,0,0);stroke-width:2px;"/>
        <rect x="1180.41" y="501" width="47" height="38" style="fill:none;stroke:rgb(255,0,0);stroke-width:2px;"/>
        <rect x="1251.41" y="501" width="39" height="45" style="fill:none;stroke:rgb(255,0,0);stroke-width:2px;"/>
        <rect x="755.415" y="29" width="137" height="199" style="fill:none;stroke:rgb(0,230,229);stroke-width:3px;"/>
        <rect x="982.415" y="9" width="101" height="199" style="fill:none;stroke:rgb(0,230,229);stroke-width:3px;"/>
        <rect x="1153.41" y="207" width="185" height="94" style="fill:none;stroke:rgb(0,230,229);stroke-width:3px;"/>
        <rect x="938.415" y="336" width="159" height="168" style="fill:none;stroke:rgb(0,230,229);stroke-width:3px;"/>
        <rect x="1199.41" y="371" width="169" height="81" style="fill:none;stroke:rgb(0,230,229);stroke-width:3px;"/>
        <rect x="1177.16" y="496" width="118.25" height="56" style="fill:none;stroke:rgb(0,230,229);stroke-width:3px;"/>
        <rect x="1047.41" y="21" width="228" height="122" style="fill:none;stroke:rgb(0,230,229);stroke-width:3px;"/>
        <rect x="745.415" y="3" width="604" height="306" style="fill:none;stroke:rgb(250,112,255);stroke-width:5px;"/>
        <rect x="933.415" y="330" width="441" height="229" style="fill:none;stroke:rgb(250,112,255);stroke-width:5px;"/>
        <path d="M774.346,62.581C774.346,59.701 774.819,57.533 775.765,56.077C776.712,54.621 778.091,53.893 779.903,53.893C781.86,53.893 783.28,54.609 784.161,56.041C785.043,57.473 785.484,59.653 785.484,62.581C785.484,65.461 785.011,67.629 784.064,69.085C783.118,70.541 781.731,71.269 779.903,71.269C777.978,71.269 776.57,70.509 775.68,68.989C774.791,67.469 774.346,65.333 774.346,62.581ZM776.36,62.581C776.36,63.621 776.429,64.569 776.566,65.425C776.704,66.281 776.918,67.017 777.209,67.633C777.5,68.249 777.868,68.729 778.313,69.073C778.758,69.417 779.288,69.589 779.903,69.589C781.132,69.589 782.034,69.025 782.608,67.897C783.183,66.769 783.47,64.997 783.47,62.581C783.47,61.557 783.409,60.613 783.288,59.749C783.166,58.885 782.964,58.141 782.681,57.517C782.398,56.893 782.03,56.413 781.577,56.077C781.124,55.741 780.566,55.573 779.903,55.573C778.689,55.573 777.796,56.141 777.221,57.277C776.647,58.413 776.36,60.181 776.36,62.581Z" style="fill-rule:nonzero;"/>
        <path d="M834.536,91.189L837.933,91.189L837.933,79.573L838.176,78.157L837.205,79.285L834.536,81.181L833.614,79.957L838.952,75.877L839.826,75.877L839.826,91.189L843.15,91.189L843.15,92.965L834.536,92.965L834.536,91.189Z" style="fill-rule:nonzero;"/>
        <path d="M861.643,163.291C861.643,164.139 861.485,165.007 861.17,165.895C860.854,166.783 860.442,167.675 859.932,168.571C859.423,169.467 858.852,170.343 858.221,171.199C857.59,172.055 856.959,172.867 856.329,173.635L855.14,174.667L855.14,174.763L856.693,174.499L861.983,174.499L861.983,176.275L852.325,176.275L852.325,175.579C852.681,175.211 853.109,174.755 853.611,174.211C854.112,173.667 854.634,173.063 855.176,172.399C855.718,171.735 856.252,171.031 856.777,170.287C857.303,169.543 857.78,168.787 858.209,168.019C858.638,167.251 858.982,166.491 859.241,165.739C859.499,164.987 859.629,164.275 859.629,163.603C859.629,162.819 859.402,162.167 858.949,161.647C858.496,161.127 857.809,160.867 856.887,160.867C856.272,160.867 855.673,160.991 855.091,161.239C854.509,161.487 854.007,161.771 853.586,162.091L852.786,160.723C853.352,160.243 854.023,159.867 854.8,159.595C855.576,159.323 856.409,159.187 857.299,159.187C857.995,159.187 858.61,159.287 859.143,159.487C859.677,159.687 860.13,159.971 860.502,160.339C860.874,160.707 861.158,161.143 861.352,161.647C861.546,162.151 861.643,162.699 861.643,163.291Z" style="fill-rule:nonzero;"/>
        <path d="M1016.73,168.776C1017.28,168.776 1017.79,168.696 1018.26,168.536C1018.73,168.376 1019.13,168.14 1019.47,167.828C1019.81,167.516 1020.08,167.144 1020.27,166.712C1020.47,166.28 1020.57,165.808 1020.57,165.296C1020.57,164.176 1020.23,163.344 1019.56,162.8C1018.89,162.256 1017.96,161.984 1016.78,161.984L1014.98,161.984L1014.98,161.288L1018.48,155.96L1019.6,154.904L1018.02,155.144L1013.21,155.144L1013.21,153.368L1021.88,153.368L1021.88,154.064L1018.02,159.8L1017.17,160.496L1017.17,160.544L1017.99,160.376C1018.64,160.392 1019.24,160.508 1019.79,160.724C1020.34,160.94 1020.82,161.252 1021.22,161.66C1021.62,162.068 1021.94,162.556 1022.17,163.124C1022.39,163.692 1022.51,164.336 1022.51,165.056C1022.51,165.92 1022.35,166.688 1022.05,167.36C1021.74,168.032 1021.32,168.596 1020.8,169.052C1020.27,169.508 1019.65,169.856 1018.94,170.096C1018.23,170.336 1017.48,170.456 1016.68,170.456C1015.96,170.456 1015.3,170.4 1014.72,170.288C1014.13,170.176 1013.63,170.032 1013.19,169.856L1013.7,168.152C1014.07,168.328 1014.51,168.476 1015.02,168.596C1015.53,168.716 1016.1,168.776 1016.73,168.776Z" style="fill-rule:nonzero;"/>
        <path d="M1065.3,97.889L1062.44,97.889L1062.44,103.049L1060.55,103.049L1060.55,97.889L1053.07,97.889L1053.07,97.097L1061.13,85.985L1062.44,85.985L1062.44,96.209L1065.3,96.209L1065.3,97.889ZM1060.55,90.977L1060.79,89.009L1060.72,89.009L1059.87,90.641L1056.44,95.225L1055.28,96.401L1056.98,96.209L1060.55,96.209L1060.55,90.977Z" style="fill-rule:nonzero;"/>
        <path d="M1192.78,58.151C1193.9,58.151 1194.82,57.831 1195.55,57.191C1196.28,56.551 1196.64,55.623 1196.64,54.407C1196.64,53.239 1196.28,52.367 1195.56,51.791C1194.84,51.215 1193.85,50.927 1192.59,50.927L1190.55,51.047L1190.55,42.743L1198.12,42.743L1198.12,44.519L1192.37,44.519L1192.37,49.295L1193.41,49.247C1195.02,49.263 1196.28,49.703 1197.2,50.567C1198.12,51.431 1198.58,52.671 1198.58,54.287C1198.58,55.183 1198.43,55.979 1198.12,56.675C1197.81,57.371 1197.4,57.951 1196.87,58.415C1196.35,58.879 1195.73,59.231 1195.02,59.471C1194.3,59.711 1193.54,59.831 1192.73,59.831C1192.01,59.831 1191.39,59.791 1190.89,59.711C1190.39,59.631 1189.92,59.511 1189.48,59.351L1189.99,57.719C1190.36,57.863 1190.77,57.971 1191.19,58.043C1191.62,58.115 1192.15,58.151 1192.78,58.151Z" style="fill-rule:nonzero;"/>
        <path d="M1205.01,117.975C1205.01,118.711 1204.9,119.403 1204.67,120.051C1204.44,120.699 1204.11,121.267 1203.67,121.755C1203.24,122.243 1202.7,122.627 1202.05,122.907C1201.4,123.187 1200.67,123.327 1199.84,123.327C1199.03,123.327 1198.3,123.199 1197.66,122.943C1197.01,122.687 1196.45,122.307 1195.98,121.803C1195.51,121.299 1195.15,120.679 1194.9,119.943C1194.65,119.207 1194.53,118.359 1194.53,117.399C1194.53,115.815 1194.73,114.355 1195.14,113.019C1195.56,111.683 1196.13,110.519 1196.86,109.527C1197.58,108.535 1198.44,107.731 1199.44,107.115C1200.43,106.499 1201.52,106.111 1202.68,105.951L1203.09,107.487C1202.19,107.647 1201.36,107.951 1200.62,108.399C1199.87,108.847 1199.22,109.399 1198.66,110.055C1198.11,110.711 1197.65,111.447 1197.29,112.263C1196.94,113.079 1196.69,113.919 1196.57,114.783C1196.82,114.351 1197.26,113.955 1197.88,113.595C1198.49,113.235 1199.24,113.055 1200.13,113.055C1201.65,113.055 1202.85,113.487 1203.71,114.351C1204.58,115.215 1205.01,116.423 1205.01,117.975ZM1203,118.167C1203,117.031 1202.73,116.175 1202.19,115.599C1201.66,115.023 1200.84,114.735 1199.72,114.735C1198.93,114.735 1198.24,114.927 1197.67,115.311C1197.1,115.695 1196.69,116.127 1196.47,116.607C1196.43,116.831 1196.42,117.015 1196.42,117.159L1196.42,117.639C1196.42,118.135 1196.49,118.623 1196.62,119.103C1196.76,119.583 1196.98,120.011 1197.27,120.387C1197.56,120.763 1197.92,121.067 1198.35,121.299C1198.78,121.531 1199.28,121.647 1199.87,121.647C1200.33,121.647 1200.76,121.559 1201.14,121.383C1201.52,121.207 1201.85,120.967 1202.12,120.663C1202.4,120.359 1202.61,119.991 1202.77,119.559C1202.92,119.127 1203,118.663 1203,118.167Z" style="fill-rule:nonzero;"/>
        <path d="M1200.65,257.539L1206.74,243.475L1207.81,242.299L1206.38,242.515L1199.46,242.515L1199.46,240.739L1209.6,240.739L1209.6,241.387L1202.62,257.539L1200.65,257.539Z" style="fill-rule:nonzero;"/>
        <path d="M1290.41,257.113C1290.41,256.105 1290.67,255.229 1291.21,254.485C1291.74,253.741 1292.57,253.065 1293.71,252.457C1293.3,252.217 1292.93,251.965 1292.58,251.701C1292.23,251.437 1291.92,251.137 1291.66,250.801C1291.39,250.465 1291.18,250.089 1291.03,249.673C1290.87,249.257 1290.79,248.777 1290.79,248.233C1290.79,247.609 1290.9,247.041 1291.12,246.529C1291.34,246.017 1291.66,245.577 1292.07,245.209C1292.48,244.841 1292.97,244.553 1293.55,244.345C1294.12,244.137 1294.77,244.033 1295.5,244.033C1296.18,244.033 1296.8,244.129 1297.35,244.321C1297.9,244.513 1298.36,244.777 1298.74,245.113C1299.12,245.449 1299.42,245.849 1299.63,246.313C1299.84,246.777 1299.94,247.289 1299.94,247.849C1299.94,248.761 1299.73,249.565 1299.31,250.261C1298.89,250.957 1298.2,251.641 1297.23,252.313C1297.65,252.553 1298.05,252.817 1298.43,253.105C1298.81,253.393 1299.14,253.713 1299.42,254.065C1299.7,254.417 1299.93,254.813 1300.09,255.253C1300.25,255.693 1300.33,256.193 1300.33,256.753C1300.33,257.441 1300.22,258.069 1299.99,258.637C1299.77,259.205 1299.43,259.693 1299,260.101C1298.56,260.509 1298.03,260.829 1297.39,261.061C1296.76,261.293 1296.04,261.409 1295.24,261.409C1294.46,261.409 1293.77,261.297 1293.17,261.073C1292.57,260.849 1292.07,260.545 1291.66,260.161C1291.24,259.777 1290.93,259.325 1290.72,258.805C1290.51,258.285 1290.41,257.721 1290.41,257.113ZM1298.44,256.873C1298.44,256.393 1298.34,255.973 1298.15,255.613C1297.95,255.253 1297.7,254.925 1297.38,254.629C1297.07,254.333 1296.71,254.065 1296.3,253.825C1295.9,253.585 1295.48,253.353 1295.04,253.129C1294.05,253.673 1293.35,254.281 1292.93,254.953C1292.51,255.625 1292.3,256.265 1292.3,256.873C1292.3,257.257 1292.36,257.625 1292.49,257.977C1292.62,258.329 1292.82,258.633 1293.08,258.889C1293.33,259.145 1293.65,259.349 1294.03,259.501C1294.41,259.653 1294.86,259.729 1295.36,259.729C1295.76,259.729 1296.15,259.669 1296.52,259.549C1296.89,259.429 1297.22,259.253 1297.5,259.021C1297.79,258.789 1298.01,258.493 1298.18,258.133C1298.35,257.773 1298.44,257.353 1298.44,256.873ZM1292.69,248.185C1292.69,248.633 1292.78,249.029 1292.95,249.373C1293.13,249.717 1293.37,250.025 1293.67,250.297C1293.97,250.569 1294.31,250.821 1294.7,251.053C1295.09,251.285 1295.49,251.505 1295.91,251.713C1296.64,251.153 1297.18,250.601 1297.53,250.057C1297.88,249.513 1298.05,248.913 1298.05,248.257C1298.05,247.441 1297.8,246.813 1297.29,246.373C1296.78,245.933 1296.16,245.713 1295.45,245.713C1295.02,245.713 1294.63,245.785 1294.29,245.929C1293.95,246.073 1293.66,246.257 1293.41,246.481C1293.17,246.705 1292.99,246.965 1292.87,247.261C1292.75,247.557 1292.69,247.865 1292.69,248.185Z" style="fill-rule:nonzero;"/>
        <path d="M1001.65,377.344C1001.65,376.576 1001.77,375.864 1001.99,375.208C1002.22,374.552 1002.55,373.984 1002.99,373.504C1003.43,373.024 1003.97,372.648 1004.63,372.376C1005.28,372.104 1006.05,371.968 1006.92,371.968C1008.57,371.968 1009.86,372.496 1010.78,373.552C1011.7,374.608 1012.16,376.096 1012.16,378.016C1012.16,379.824 1011.96,381.404 1011.54,382.756C1011.13,384.108 1010.56,385.248 1009.83,386.176C1009.1,387.104 1008.24,387.828 1007.25,388.348C1006.25,388.868 1005.17,389.2 1004.01,389.344L1003.57,387.808C1004.51,387.664 1005.36,387.392 1006.11,386.992C1006.86,386.592 1007.51,386.088 1008.05,385.48C1008.59,384.872 1009.03,384.18 1009.37,383.404C1009.71,382.628 1009.95,381.784 1010.08,380.872C1009.64,381.384 1009.16,381.74 1008.63,381.94C1008.11,382.14 1007.41,382.24 1006.56,382.24C1005.89,382.24 1005.27,382.132 1004.68,381.916C1004.09,381.7 1003.56,381.384 1003.11,380.968C1002.66,380.552 1002.3,380.04 1002.04,379.432C1001.78,378.824 1001.65,378.128 1001.65,377.344ZM1003.67,377.152C1003.67,378.288 1003.97,379.14 1004.58,379.708C1005.19,380.276 1005.98,380.56 1006.97,380.56C1007.76,380.56 1008.44,380.432 1009.01,380.176C1009.57,379.92 1009.98,379.584 1010.22,379.168C1010.25,378.96 1010.27,378.776 1010.27,378.616L1010.27,378.112C1010.27,377.536 1010.2,376.98 1010.06,376.444C1009.93,375.908 1009.72,375.428 1009.44,375.004C1009.17,374.58 1008.81,374.248 1008.36,374.008C1007.92,373.768 1007.4,373.648 1006.8,373.648C1005.81,373.648 1005.04,373.956 1004.49,374.572C1003.94,375.188 1003.67,376.048 1003.67,377.152Z" style="fill-rule:nonzero;"/>
        <path d="M1047.84,474.164L1051.24,474.164L1051.24,462.548L1051.48,461.132L1050.51,462.26L1047.84,464.156L1046.91,462.932L1052.25,458.852L1053.13,458.852L1053.13,474.164L1056.45,474.164L1056.45,475.94L1047.84,475.94L1047.84,474.164Z" style="fill-rule:nonzero;"/>
        <path d="M1059.49,467.54C1059.49,464.66 1059.96,462.492 1060.9,461.036C1061.85,459.58 1063.23,458.852 1065.04,458.852C1067,458.852 1068.42,459.568 1069.3,461C1070.18,462.432 1070.62,464.612 1070.62,467.54C1070.62,470.42 1070.15,472.588 1069.2,474.044C1068.26,475.5 1066.87,476.228 1065.04,476.228C1063.12,476.228 1061.71,475.468 1060.82,473.948C1059.93,472.428 1059.49,470.292 1059.49,467.54ZM1061.5,467.54C1061.5,468.58 1061.57,469.528 1061.7,470.384C1061.84,471.24 1062.06,471.976 1062.35,472.592C1062.64,473.208 1063.01,473.688 1063.45,474.032C1063.9,474.376 1064.43,474.548 1065.04,474.548C1066.27,474.548 1067.17,473.984 1067.75,472.856C1068.32,471.728 1068.61,469.956 1068.61,467.54C1068.61,466.516 1068.55,465.572 1068.43,464.708C1068.31,463.844 1068.1,463.1 1067.82,462.476C1067.54,461.852 1067.17,461.372 1066.72,461.036C1066.26,460.7 1065.7,460.532 1065.04,460.532C1063.83,460.532 1062.93,461.1 1062.36,462.236C1061.79,463.372 1061.5,465.14 1061.5,467.54Z" style="fill-rule:nonzero;"/>
        <path d="M1217.27,436.145L1220.66,436.145L1220.66,424.529L1220.91,423.113L1219.94,424.241L1217.27,426.137L1216.35,424.913L1221.68,420.833L1222.56,420.833L1222.56,436.145L1225.88,436.145L1225.88,437.921L1217.27,437.921L1217.27,436.145Z" style="fill-rule:nonzero;"/>
        <path d="M1230.49,436.145L1233.89,436.145L1233.89,424.529L1234.13,423.113L1233.16,424.241L1230.49,426.137L1229.57,424.913L1234.91,420.833L1235.78,420.833L1235.78,436.145L1239.11,436.145L1239.11,437.921L1230.49,437.921L1230.49,436.145Z" style="fill-rule:nonzero;"/>
        <path d="M1193.29,527.529L1196.68,527.529L1196.68,515.913L1196.93,514.497L1195.96,515.625L1193.29,517.521L1192.37,516.297L1197.7,512.217L1198.58,512.217L1198.58,527.529L1201.9,527.529L1201.9,529.305L1193.29,529.305L1193.29,527.529Z" style="fill-rule:nonzero;"/>
        <path d="M1216.61,524.145L1213.74,524.145L1213.74,529.305L1211.85,529.305L1211.85,524.145L1204.38,524.145L1204.38,523.353L1212.43,512.241L1213.74,512.241L1213.74,522.465L1216.61,522.465L1216.61,524.145ZM1211.85,517.233L1212.09,515.265L1212.02,515.265L1211.17,516.897L1207.75,521.481L1206.59,522.657L1208.28,522.465L1211.85,522.465L1211.85,517.233Z" style="fill-rule:nonzero;"/>
        <path d="M1260.06,532.72L1263.46,532.72L1263.46,521.104L1263.7,519.688L1262.73,520.816L1260.06,522.712L1259.14,521.488L1264.48,517.408L1265.35,517.408L1265.35,532.72L1268.68,532.72L1268.68,534.496L1260.06,534.496L1260.06,532.72Z" style="fill-rule:nonzero;"/>
        <path d="M1275.84,533.104C1276.95,533.104 1277.87,532.784 1278.6,532.144C1279.33,531.504 1279.69,530.576 1279.69,529.36C1279.69,528.192 1279.33,527.32 1278.61,526.744C1277.89,526.168 1276.9,525.88 1275.64,525.88L1273.6,526L1273.6,517.696L1281.17,517.696L1281.17,519.472L1275.42,519.472L1275.42,524.248L1276.47,524.2C1278.07,524.216 1279.33,524.656 1280.25,525.52C1281.17,526.384 1281.63,527.624 1281.63,529.24C1281.63,530.136 1281.48,530.932 1281.17,531.628C1280.87,532.324 1280.45,532.904 1279.92,533.368C1279.4,533.832 1278.78,534.184 1278.07,534.424C1277.36,534.664 1276.6,534.784 1275.79,534.784C1275.06,534.784 1274.44,534.744 1273.94,534.664C1273.44,534.584 1272.97,534.464 1272.54,534.304L1273.04,532.672C1273.42,532.816 1273.82,532.924 1274.25,532.996C1274.67,533.068 1275.2,533.104 1275.84,533.104Z" style="fill-rule:nonzero;"/>
        <path d="M1275.58,413.396L1278.97,413.396L1278.97,401.78L1279.21,400.364L1278.24,401.492L1275.58,403.388L1274.65,402.164L1279.99,398.084L1280.87,398.084L1280.87,413.396L1284.19,413.396L1284.19,415.172L1275.58,415.172L1275.58,413.396Z" style="fill-rule:nonzero;"/>
        <path d="M1297,402.188C1297,403.036 1296.84,403.904 1296.53,404.792C1296.21,405.68 1295.8,406.572 1295.29,407.468C1294.78,408.364 1294.21,409.24 1293.58,410.096C1292.95,410.952 1292.32,411.764 1291.69,412.532L1290.5,413.564L1290.5,413.66L1292.05,413.396L1297.34,413.396L1297.34,415.172L1287.68,415.172L1287.68,414.476C1288.04,414.108 1288.47,413.652 1288.97,413.108C1289.47,412.564 1289.99,411.96 1290.54,411.296C1291.08,410.632 1291.61,409.928 1292.14,409.184C1292.66,408.44 1293.14,407.684 1293.57,406.916C1294,406.148 1294.34,405.388 1294.6,404.636C1294.86,403.884 1294.99,403.172 1294.99,402.5C1294.99,401.716 1294.76,401.064 1294.31,400.544C1293.86,400.024 1293.17,399.764 1292.25,399.764C1291.63,399.764 1291.03,399.888 1290.45,400.136C1289.87,400.384 1289.37,400.668 1288.94,400.988L1288.14,399.62C1288.71,399.14 1289.38,398.764 1290.16,398.492C1290.93,398.22 1291.77,398.084 1292.66,398.084C1293.35,398.084 1293.97,398.184 1294.5,398.384C1295.04,398.584 1295.49,398.868 1295.86,399.236C1296.23,399.604 1296.52,400.04 1296.71,400.544C1296.9,401.048 1297,401.596 1297,402.188Z" style="fill-rule:nonzero;"/>
        <path d="M1336.72,422.164L1340.12,422.164L1340.12,410.548L1340.36,409.132L1339.39,410.26L1336.72,412.156L1335.8,410.932L1341.14,406.852L1342.01,406.852L1342.01,422.164L1345.34,422.164L1345.34,423.94L1336.72,423.94L1336.72,422.164Z" style="fill-rule:nonzero;"/>
        <path d="M1353.01,422.548C1353.56,422.548 1354.06,422.468 1354.53,422.308C1355,422.148 1355.41,421.912 1355.75,421.6C1356.09,421.288 1356.35,420.916 1356.55,420.484C1356.74,420.052 1356.84,419.58 1356.84,419.068C1356.84,417.948 1356.5,417.116 1355.83,416.572C1355.16,416.028 1354.23,415.756 1353.05,415.756L1351.26,415.756L1351.26,415.06L1354.75,409.732L1355.87,408.676L1354.29,408.916L1349.49,408.916L1349.49,407.14L1358.15,407.14L1358.15,407.836L1354.29,413.572L1353.44,414.268L1353.44,414.316L1354.27,414.148C1354.91,414.164 1355.51,414.28 1356.06,414.496C1356.61,414.712 1357.09,415.024 1357.49,415.432C1357.9,415.84 1358.21,416.328 1358.44,416.896C1358.67,417.464 1358.78,418.108 1358.78,418.828C1358.78,419.692 1358.63,420.46 1358.32,421.132C1358.01,421.804 1357.6,422.368 1357.07,422.824C1356.54,423.28 1355.92,423.628 1355.21,423.868C1354.5,424.108 1353.75,424.228 1352.96,424.228C1352.23,424.228 1351.57,424.172 1350.99,424.06C1350.41,423.948 1349.9,423.804 1349.46,423.628L1349.97,421.924C1350.34,422.1 1350.78,422.248 1351.29,422.368C1351.8,422.488 1352.37,422.548 1353.01,422.548Z" style="fill-rule:nonzero;"/>
        <path d="M767.234,282.613L761.774,273.829L767.416,273.829L769.782,277.681L770.801,280.201L771.893,277.681L774.368,273.829L779.501,273.829L774.004,282.469L779.865,291.829L774.368,291.829L771.565,287.509L770.474,284.845L769.309,287.509L766.506,291.829L761.337,291.829L767.234,282.613Z" style="fill:rgb(250,112,255);fill-rule:nonzero;"/>
        <path d="M771.292,199.641C772.047,199.305 772.944,199.039 773.982,198.843C775.02,198.647 776.105,198.549 777.238,198.549C778.219,198.549 779.04,198.666 779.701,198.899C780.361,199.132 780.885,199.464 781.272,199.893C781.659,200.322 781.933,200.836 782.093,201.433C782.253,202.03 782.334,202.702 782.334,203.449C782.334,204.27 782.305,205.096 782.249,205.927C782.192,206.758 782.159,207.574 782.15,208.377C782.14,209.18 782.164,209.959 782.22,210.715C782.277,211.471 782.419,212.185 782.645,212.857L779.644,212.857L779.05,210.925L778.908,210.925C778.531,211.504 778.007,212.003 777.337,212.423C776.667,212.843 775.803,213.053 774.746,213.053C774.086,213.053 773.491,212.955 772.963,212.759C772.434,212.563 771.981,212.283 771.604,211.919C771.226,211.555 770.934,211.126 770.726,210.631C770.519,210.136 770.415,209.581 770.415,208.965C770.415,208.106 770.608,207.383 770.995,206.795C771.382,206.207 771.939,205.731 772.666,205.367C773.392,205.003 774.26,204.751 775.27,204.611C776.28,204.471 777.408,204.429 778.653,204.485C778.785,203.44 778.71,202.688 778.427,202.231C778.144,201.774 777.511,201.545 776.53,201.545C775.794,201.545 775.015,201.62 774.194,201.769C773.373,201.918 772.699,202.114 772.17,202.357L771.292,199.641ZM775.964,210.057C776.7,210.057 777.285,209.894 777.719,209.567C778.153,209.24 778.474,208.89 778.682,208.517L778.682,206.697C778.096,206.641 777.535,206.632 776.997,206.669C776.459,206.706 775.983,206.79 775.567,206.921C775.152,207.052 774.822,207.238 774.577,207.481C774.331,207.724 774.208,208.032 774.208,208.405C774.208,208.928 774.364,209.334 774.676,209.623C774.987,209.912 775.416,210.057 775.964,210.057Z" style="fill:rgb(0,230,229);fill-rule:nonzero;"/>
        <path d="M993.067,24.76L996.748,24.76L996.748,31.48L996.861,31.48C997.257,31.032 997.767,30.677 998.39,30.416C999.012,30.155 999.701,30.024 1000.46,30.024C1002.15,30.024 1003.45,30.598 1004.35,31.746C1005.25,32.894 1005.69,34.644 1005.69,36.996C1005.69,39.516 1005.07,41.429 1003.81,42.736C1002.56,44.043 1000.83,44.696 998.644,44.696C997.436,44.696 996.332,44.598 995.332,44.402C994.332,44.206 993.577,43.987 993.067,43.744L993.067,24.76ZM999.38,33.104C998.701,33.104 998.149,33.277 997.724,33.622C997.3,33.967 996.974,34.467 996.748,35.12L996.748,41.224C997.05,41.373 997.375,41.476 997.724,41.532C998.073,41.588 998.446,41.616 998.843,41.616C999.843,41.616 1000.6,41.257 1001.12,40.538C1001.64,39.819 1001.9,38.676 1001.9,37.108C1001.9,34.439 1001.06,33.104 999.38,33.104Z" style="fill:rgb(0,230,229);fill-rule:nonzero;"/>
        <path d="M1124.48,130.166C1123.91,130.577 1123.23,130.89 1122.43,131.104C1121.62,131.319 1120.8,131.426 1119.95,131.426C1118.82,131.426 1117.86,131.249 1117.08,130.894C1116.29,130.54 1115.66,130.04 1115.16,129.396C1114.67,128.752 1114.32,127.973 1114.1,127.058C1113.89,126.144 1113.78,125.136 1113.78,124.034C1113.78,121.664 1114.32,119.839 1115.39,118.56C1116.47,117.282 1118.03,116.642 1120.09,116.642C1121.13,116.642 1121.96,116.726 1122.6,116.894C1123.23,117.062 1123.8,117.277 1124.31,117.538L1123.43,120.506C1123,120.301 1122.57,120.142 1122.14,120.03C1121.72,119.918 1121.23,119.862 1120.68,119.862C1119.67,119.862 1118.89,120.194 1118.36,120.856C1117.84,121.519 1117.57,122.578 1117.57,124.034C1117.57,124.632 1117.64,125.182 1117.77,125.686C1117.9,126.19 1118.1,126.629 1118.36,127.002C1118.63,127.376 1118.97,127.67 1119.4,127.884C1119.82,128.099 1120.32,128.206 1120.88,128.206C1121.51,128.206 1122.04,128.127 1122.47,127.968C1122.9,127.81 1123.29,127.618 1123.63,127.394L1124.48,130.166Z" style="fill:rgb(0,230,229);fill-rule:nonzero;"/>
        <path d="M1266.57,256.816C1266.57,257.6 1266.58,258.384 1266.6,259.168C1266.62,259.952 1266.7,260.82 1266.85,261.772L1264.22,261.772L1263.71,259.952L1263.6,259.952C1263.22,260.606 1262.68,261.133 1261.97,261.534C1261.26,261.936 1260.43,262.136 1259.46,262.136C1257.69,262.136 1256.31,261.558 1255.33,260.4C1254.35,259.243 1253.86,257.432 1253.86,254.968C1253.86,252.579 1254.41,250.722 1255.5,249.396C1256.6,248.071 1258.2,247.408 1260.31,247.408C1260.9,247.408 1261.38,247.441 1261.76,247.506C1262.14,247.572 1262.51,247.679 1262.89,247.828L1262.89,242.144L1266.57,242.144L1266.57,256.816ZM1260.31,259.056C1261.03,259.056 1261.6,258.884 1262.01,258.538C1262.43,258.193 1262.72,257.694 1262.89,257.04L1262.89,251.104C1262.63,250.899 1262.33,250.745 1262.01,250.642C1261.69,250.54 1261.28,250.488 1260.77,250.488C1259.73,250.488 1258.95,250.834 1258.43,251.524C1257.91,252.215 1257.65,253.4 1257.65,255.08C1257.65,256.275 1257.87,257.236 1258.29,257.964C1258.71,258.692 1259.39,259.056 1260.31,259.056Z" style="fill:rgb(0,230,229);fill-rule:nonzero;"/>
        <path d="M965.83,487.069C965.264,487.517 964.495,487.895 963.523,488.203C962.551,488.511 961.518,488.665 960.423,488.665C958.139,488.665 956.469,488.007 955.412,486.691C954.355,485.375 953.827,483.569 953.827,481.273C953.827,478.809 954.421,476.961 955.61,475.729C956.799,474.497 958.47,473.881 960.621,473.881C961.338,473.881 962.037,473.974 962.716,474.161C963.396,474.348 964,474.656 964.528,475.085C965.057,475.514 965.481,476.093 965.802,476.821C966.123,477.549 966.283,478.454 966.283,479.537C966.283,479.929 966.26,480.349 966.213,480.797C966.165,481.245 966.095,481.712 966,482.197L957.507,482.197C957.564,483.373 957.87,484.26 958.427,484.857C958.984,485.454 959.885,485.753 961.131,485.753C961.905,485.753 962.598,485.636 963.212,485.403C963.825,485.17 964.292,484.932 964.613,484.689L965.83,487.069ZM960.565,476.793C959.602,476.793 958.89,477.078 958.427,477.647C957.965,478.216 957.686,478.977 957.592,479.929L962.858,479.929C962.933,478.921 962.778,478.146 962.391,477.605C962.004,477.064 961.395,476.793 960.565,476.793Z" style="fill:rgb(0,230,229);fill-rule:nonzero;"/>
        <path d="M1214.08,387.922L1216.03,387.922L1216.03,387.138C1216.03,385.364 1216.41,384.081 1217.16,383.288C1217.92,382.494 1219.01,382.098 1220.45,382.098C1221.96,382.098 1223.21,382.275 1224.21,382.63L1223.51,385.542C1223.07,385.392 1222.69,385.294 1222.36,385.248C1222.03,385.201 1221.68,385.178 1221.33,385.178C1220.95,385.178 1220.65,385.234 1220.43,385.346C1220.22,385.458 1220.06,385.63 1219.95,385.864C1219.85,386.097 1219.78,386.386 1219.75,386.732C1219.73,387.077 1219.71,387.474 1219.71,387.922L1222.83,387.922L1222.83,391.002L1219.71,391.002L1219.71,401.922L1216.03,401.922L1216.03,391.002L1214.08,391.002L1214.08,387.922Z" style="fill:rgb(0,230,229);fill-rule:nonzero;"/>
        <path d="M1246.34,538.028C1246.34,540.063 1245.78,541.561 1244.67,542.522C1243.55,543.483 1242,543.964 1240,543.964C1238.64,543.964 1237.57,543.871 1236.78,543.684C1236,543.497 1235.41,543.301 1235.01,543.096L1235.78,540.212C1236.21,540.38 1236.72,540.548 1237.29,540.716C1237.87,540.884 1238.58,540.968 1239.43,540.968C1240.71,540.968 1241.59,540.693 1242.05,540.142C1242.51,539.591 1242.74,538.821 1242.74,537.832L1242.74,536.936L1242.63,536.936C1241.97,537.813 1240.8,538.252 1239.12,538.252C1237.29,538.252 1235.92,537.692 1235.03,536.572C1234.13,535.452 1233.68,533.697 1233.68,531.308C1233.68,528.807 1234.29,526.912 1235.5,525.624C1236.7,524.336 1238.46,523.692 1240.76,523.692C1241.97,523.692 1243.05,523.776 1244,523.944C1244.95,524.112 1245.73,524.308 1246.34,524.532L1246.34,538.028ZM1240.11,535.34C1240.83,535.34 1241.38,535.181 1241.77,534.864C1242.15,534.547 1242.45,534.071 1242.66,533.436L1242.66,527.136C1242.07,526.893 1241.35,526.772 1240.48,526.772C1239.53,526.772 1238.8,527.122 1238.27,527.822C1237.74,528.522 1237.48,529.637 1237.48,531.168C1237.48,532.531 1237.7,533.567 1238.16,534.276C1238.61,534.985 1239.26,535.34 1240.11,535.34Z" style="fill:rgb(0,230,229);fill-rule:nonzero;"/>
        <path d="M954.112,534.923L954.767,537.731L954.985,537.731L955.459,534.887L958.225,524.807L963.102,524.807L957.57,541.043C957.109,542.387 956.666,543.617 956.241,544.733C955.817,545.849 955.349,546.815 954.84,547.631C954.33,548.447 953.766,549.077 953.147,549.521C952.528,549.965 951.794,550.187 950.945,550.187C949.683,550.187 948.676,549.983 947.924,549.575L948.798,545.831C949.162,545.975 949.526,546.047 949.89,546.047C950.448,546.047 950.988,545.813 951.509,545.345C952.031,544.877 952.425,544.031 952.692,542.807L945.085,524.807L950.763,524.807L954.112,534.923Z" style="fill:rgb(250,112,255);fill-rule:nonzero;"/>
        <circle cx="389.752" cy="136.913" r="31.768" style="fill:white;stroke:black;stroke-width:2px;"/>
        <circle cx="207.711" cy="283.959" r="31.768" style="fill:rgb(250,112,255);stroke:black;stroke-width:2px;"/>
        <circle cx="57.087" cy="413.693" r="31.768" style="fill:rgb(45,231,231);stroke:black;stroke-width:2px;"/>
        <circle cx="482.128" cy="413.693" r="31.768" style="fill:rgb(45,231,231);stroke:black;stroke-width:2px;"/>
        <circle cx="161.909" cy="413.693" r="31.768" style="fill:rgb(45,231,231);stroke:black;stroke-width:2px;"/>
        <circle cx="623.36" cy="413.693" r="31.768" style="fill:rgb(45,231,231);stroke:black;stroke-width:2px;"/>
        <circle cx="265.998" cy="413.693" r="31.768" style="fill:rgb(45,231,231);stroke:black;stroke-width:2px;"/>
        <circle cx="778.588" cy="413.693" r="31.768" style="fill:rgb(45,231,231);stroke:black;stroke-width:2px;"/>
        <circle cx="363.327" cy="413.693" r="31.768" style="fill:rgb(45,231,231);stroke:black;stroke-width:2px;"/>
        <circle cx="623.812" cy="283.959" r="31.768" style="fill:rgb(250,112,255);stroke:black;stroke-width:2px;"/>
        <path d="M379.666,120.247C380.379,120.124 381.147,120.009 381.969,119.901C382.792,119.794 383.614,119.71 384.436,119.648C385.258,119.587 386.057,119.541 386.832,119.51C387.608,119.48 388.321,119.464 388.973,119.464C390.493,119.464 391.99,119.602 393.464,119.878C394.937,120.155 396.256,120.63 397.419,121.305C398.583,121.98 399.513,122.908 400.211,124.09C400.909,125.271 401.258,126.752 401.258,128.531C401.258,131.17 400.638,133.318 399.397,134.975C398.156,136.632 396.496,137.782 394.418,138.427L396.698,139.853L404.144,152.142L396.791,152.142L389.392,139.531L386.041,138.933L386.041,152.142L379.666,152.142L379.666,120.247ZM389.438,125.079C388.787,125.079 388.143,125.095 387.507,125.125C386.871,125.156 386.382,125.217 386.041,125.309L386.041,134.653L388.74,134.653C390.509,134.653 391.92,134.254 392.975,133.456C394.03,132.658 394.557,131.339 394.557,129.498C394.557,128.117 394.123,127.035 393.254,126.253C392.386,125.471 391.114,125.079 389.438,125.079Z" style="fill-rule:nonzero;"/>
        <path d="M204.022,283.57L197.041,272.34L204.254,272.34L207.279,277.265L208.582,280.486L209.978,277.265L213.143,272.34L219.704,272.34L212.677,283.386L220.169,295.353L213.143,295.353L209.559,289.83L208.163,286.424L206.674,289.83L203.091,295.353L196.483,295.353L204.022,283.57Z" style="fill-rule:nonzero;"/>
        <path d="M47.999,403.409C49.24,402.856 50.714,402.419 52.42,402.097C54.127,401.775 55.91,401.614 57.772,401.614C59.385,401.614 60.735,401.806 61.82,402.189C62.906,402.573 63.767,403.117 64.403,403.823C65.039,404.529 65.489,405.373 65.753,406.354C66.016,407.336 66.148,408.441 66.148,409.668C66.148,411.018 66.102,412.376 66.009,413.741C65.916,415.107 65.861,416.449 65.846,417.769C65.83,419.088 65.869,420.369 65.962,421.612C66.055,422.854 66.288,424.028 66.66,425.133L61.727,425.133L60.75,421.957L60.517,421.957C59.897,422.908 59.036,423.729 57.935,424.419C56.833,425.11 55.414,425.455 53.677,425.455C52.591,425.455 51.614,425.294 50.745,424.972C49.876,424.649 49.132,424.189 48.511,423.591C47.891,422.992 47.41,422.287 47.069,421.474C46.727,420.661 46.557,419.748 46.557,418.735C46.557,417.324 46.875,416.135 47.511,415.168C48.147,414.202 49.062,413.419 50.256,412.821C51.451,412.223 52.878,411.808 54.538,411.578C56.197,411.348 58.051,411.279 60.099,411.371C60.316,409.653 60.192,408.418 59.726,407.666C59.261,406.914 58.222,406.539 56.608,406.539C55.398,406.539 54.119,406.661 52.769,406.907C51.42,407.152 50.311,407.474 49.442,407.873L47.999,403.409ZM55.678,420.53C56.888,420.53 57.849,420.262 58.563,419.725C59.276,419.188 59.804,418.612 60.145,417.999L60.145,415.007C59.183,414.915 58.26,414.9 57.376,414.961C56.492,415.022 55.709,415.161 55.026,415.375C54.344,415.59 53.801,415.897 53.397,416.296C52.994,416.695 52.793,417.201 52.793,417.815C52.793,418.674 53.048,419.341 53.56,419.817C54.072,420.292 54.778,420.53 55.678,420.53Z" style="fill-rule:nonzero;"/>
        <path d="M9.816,477.771L16.367,477.771L16.367,480.277L12.639,480.277L12.639,508.557L16.367,508.557L16.367,511.063L9.816,511.063L9.816,477.771Z" style="fill:rgb(255,0,0);fill-rule:nonzero;"/>
        <path d="M19.299,490.3C19.299,486.005 20.005,482.771 21.416,480.599C22.828,478.427 24.885,477.342 27.587,477.342C30.507,477.342 32.624,478.41 33.939,480.545C35.254,482.681 35.912,485.933 35.912,490.3C35.912,494.596 35.206,497.83 33.795,500.001C32.383,502.173 30.314,503.259 27.587,503.259C24.716,503.259 22.617,502.125 21.289,499.858C19.962,497.591 19.299,494.405 19.299,490.3ZM22.303,490.3C22.303,491.851 22.405,493.265 22.611,494.542C22.816,495.819 23.135,496.917 23.57,497.836C24.004,498.754 24.553,499.47 25.217,499.983C25.88,500.496 26.67,500.753 27.587,500.753C29.421,500.753 30.766,499.912 31.623,498.229C32.48,496.547 32.908,493.904 32.908,490.3C32.908,488.773 32.817,487.365 32.636,486.076C32.455,484.787 32.154,483.678 31.732,482.747C31.309,481.816 30.76,481.1 30.085,480.599C29.409,480.098 28.577,479.847 27.587,479.847C25.778,479.847 24.444,480.695 23.588,482.389C22.731,484.083 22.303,486.72 22.303,490.3Z" style="fill:rgb(255,0,0);fill-rule:nonzero;"/>
        <path d="M39.242,501.29C39.242,500.717 39.435,500.252 39.821,499.894C40.207,499.536 40.702,499.357 41.305,499.357C42.053,499.357 42.662,499.619 43.133,500.144C43.603,500.669 43.838,501.433 43.838,502.435C43.838,503.295 43.718,504.046 43.477,504.691C43.235,505.335 42.922,505.89 42.536,506.355C42.149,506.821 41.727,507.202 41.269,507.501C40.81,507.799 40.352,508.02 39.893,508.163L38.988,506.767C39.857,506.433 40.503,505.914 40.925,505.21C41.347,504.506 41.558,503.796 41.558,503.08C41.341,503.151 41.136,503.187 40.943,503.187C40.46,503.187 40.056,503.026 39.73,502.704C39.405,502.382 39.242,501.91 39.242,501.29Z" style="fill:rgb(255,0,0);fill-rule:nonzero;"/>
        <path d="M55.276,500.18L60.343,500.18L60.343,482.854L60.705,480.742L59.257,482.425L55.276,485.253L53.901,483.427L61.863,477.342L63.166,477.342L63.166,500.18L68.125,500.18L68.125,502.829L55.276,502.829L55.276,500.18Z" style="fill:rgb(255,0,0);fill-rule:nonzero;"/>
        <path d="M72.866,501.29C72.866,500.717 73.059,500.252 73.445,499.894C73.831,499.536 74.326,499.357 74.929,499.357C75.677,499.357 76.287,499.619 76.757,500.144C77.228,500.669 77.463,501.433 77.463,502.435C77.463,503.295 77.342,504.046 77.101,504.691C76.86,505.335 76.546,505.89 76.16,506.355C75.774,506.821 75.352,507.202 74.893,507.501C74.435,507.799 73.976,508.02 73.518,508.163L72.613,506.767C73.482,506.433 74.127,505.914 74.549,505.21C74.972,504.506 75.183,503.796 75.183,503.08C74.966,503.151 74.76,503.187 74.567,503.187C74.085,503.187 73.681,503.026 73.355,502.704C73.029,502.382 72.866,501.91 72.866,501.29Z" style="fill:rgb(255,0,0);fill-rule:nonzero;"/>
        <path d="M101.134,483.463C101.134,484.728 100.899,486.022 100.428,487.347C99.958,488.671 99.342,490.002 98.582,491.338C97.822,492.675 96.972,493.981 96.031,495.258C95.09,496.535 94.149,497.746 93.207,498.892L91.434,500.431L91.434,500.574L93.75,500.18L101.641,500.18L101.641,502.829L87.235,502.829L87.235,501.791C87.766,501.242 88.406,500.562 89.154,499.751C89.902,498.939 90.68,498.038 91.488,497.048C92.297,496.058 93.093,495.008 93.877,493.898C94.661,492.788 95.373,491.66 96.013,490.515C96.652,489.369 97.165,488.236 97.551,487.114C97.937,485.993 98.13,484.931 98.13,483.928C98.13,482.759 97.792,481.786 97.116,481.011C96.441,480.235 95.415,479.847 94.04,479.847C93.123,479.847 92.23,480.032 91.362,480.402C90.493,480.772 89.745,481.196 89.118,481.673L87.923,479.633C88.768,478.917 89.769,478.356 90.927,477.95C92.085,477.544 93.328,477.342 94.655,477.342C95.693,477.342 96.61,477.491 97.406,477.789C98.202,478.087 98.878,478.511 99.433,479.06C99.988,479.609 100.41,480.259 100.7,481.011C100.989,481.763 101.134,482.58 101.134,483.463Z" style="fill:rgb(255,0,0);fill-rule:nonzero;"/>
        <path d="M112.68,511.063L106.093,511.063L106.093,508.557L109.857,508.557L109.857,480.277L106.093,480.277L106.093,477.771L112.68,477.771L112.68,511.063Z" style="fill:rgb(255,0,0);fill-rule:nonzero;"/>
        <path d="M127.595,477.771L134.146,477.771L134.146,480.277L130.418,480.277L130.418,508.557L134.146,508.557L134.146,511.063L127.595,511.063L127.595,477.771Z" style="fill:rgb(255,0,0);fill-rule:nonzero;"/>
        <path d="M143.991,500.753C144.812,500.753 145.572,500.634 146.271,500.395C146.971,500.156 147.574,499.804 148.081,499.339C148.588,498.874 148.986,498.319 149.275,497.674C149.565,497.03 149.71,496.326 149.71,495.562C149.71,493.892 149.209,492.651 148.208,491.839C147.206,491.028 145.825,490.622 144.064,490.622L141.385,490.622L141.385,489.584L146.597,481.637L148.262,480.062L145.909,480.42L138.743,480.42L138.743,477.771L151.664,477.771L151.664,478.809L145.909,487.365L144.643,488.403L144.643,488.475L145.873,488.224C146.838,488.248 147.731,488.421 148.552,488.743C149.372,489.065 150.084,489.531 150.687,490.139C151.29,490.748 151.761,491.476 152.099,492.323C152.436,493.17 152.605,494.131 152.605,495.204C152.605,496.493 152.376,497.639 151.918,498.641C151.459,499.643 150.838,500.485 150.054,501.165C149.269,501.845 148.347,502.364 147.285,502.722C146.223,503.08 145.101,503.259 143.919,503.259C142.833,503.259 141.856,503.175 140.987,503.008C140.118,502.841 139.358,502.626 138.707,502.364L139.467,499.822C140.022,500.085 140.679,500.306 141.439,500.485C142.2,500.664 143.05,500.753 143.991,500.753Z" style="fill:rgb(255,0,0);fill-rule:nonzero;"/>
        <path d="M157.021,501.29C157.021,500.717 157.214,500.252 157.6,499.894C157.986,499.536 158.481,499.357 159.084,499.357C159.832,499.357 160.441,499.619 160.912,500.144C161.382,500.669 161.618,501.433 161.618,502.435C161.618,503.295 161.497,504.046 161.256,504.691C161.015,505.335 160.701,505.89 160.315,506.355C159.929,506.821 159.506,507.202 159.048,507.501C158.589,507.799 158.131,508.02 157.673,508.163L156.768,506.767C157.636,506.433 158.282,505.914 158.704,505.21C159.126,504.506 159.337,503.796 159.337,503.08C159.12,503.151 158.915,503.187 158.722,503.187C158.24,503.187 157.835,503.026 157.51,502.704C157.184,502.382 157.021,501.91 157.021,501.29Z" style="fill:rgb(255,0,0);fill-rule:nonzero;"/>
        <path d="M188.112,495.133L183.841,495.133L183.841,502.829L181.018,502.829L181.018,495.133L169.87,495.133L169.87,493.952L181.887,477.377L183.841,477.377L183.841,492.627L188.112,492.627L188.112,495.133ZM181.018,484.823L181.38,481.888L181.271,481.888L180.004,484.322L174.901,491.159L173.164,492.913L175.697,492.627L181.018,492.627L181.018,484.823Z" style="fill:rgb(255,0,0);fill-rule:nonzero;"/>
        <path d="M196.835,511.063L190.247,511.063L190.247,508.557L194.012,508.557L194.012,480.277L190.247,480.277L190.247,477.771L196.835,477.771L196.835,511.063Z" style="fill:rgb(255,0,0);fill-rule:nonzero;"/>
        <path d="M230.6,477.771L237.151,477.771L237.151,480.277L233.423,480.277L233.423,508.557L237.151,508.557L237.151,511.063L230.6,511.063L230.6,477.771Z" style="fill:rgb(255,0,0);fill-rule:nonzero;"/>
        <path d="M246.236,500.753C247.901,500.753 249.276,500.276 250.362,499.321C251.448,498.367 251.991,496.982 251.991,495.169C251.991,493.426 251.454,492.126 250.38,491.267C249.306,490.408 247.828,489.978 245.946,489.978L242.906,490.157L242.906,477.771L254.198,477.771L254.198,480.42L245.62,480.42L245.62,487.544L247.177,487.472C249.566,487.496 251.448,488.152 252.823,489.441C254.198,490.73 254.886,492.579 254.886,494.99C254.886,496.326 254.657,497.513 254.198,498.551C253.74,499.59 253.119,500.455 252.334,501.147C251.55,501.839 250.627,502.364 249.566,502.722C248.504,503.08 247.37,503.259 246.163,503.259C245.078,503.259 244.161,503.199 243.413,503.08C242.665,502.961 241.965,502.782 241.313,502.543L242.073,500.109C242.628,500.323 243.226,500.485 243.865,500.592C244.504,500.699 245.295,500.753 246.236,500.753Z" style="fill:rgb(255,0,0);fill-rule:nonzero;"/>
        <path d="M260.026,501.29C260.026,500.717 260.219,500.252 260.605,499.894C260.991,499.536 261.486,499.357 262.089,499.357C262.837,499.357 263.446,499.619 263.917,500.144C264.387,500.669 264.622,501.433 264.622,502.435C264.622,503.295 264.502,504.046 264.261,504.691C264.019,505.335 263.706,505.89 263.319,506.355C262.933,506.821 262.511,507.202 262.053,507.501C261.594,507.799 261.136,508.02 260.677,508.163L259.772,506.767C260.641,506.433 261.287,505.914 261.709,505.21C262.131,504.506 262.342,503.796 262.342,503.08C262.125,503.151 261.92,503.187 261.727,503.187C261.244,503.187 260.84,503.026 260.514,502.704C260.189,502.382 260.026,501.91 260.026,501.29Z" style="fill:rgb(255,0,0);fill-rule:nonzero;"/>
        <path d="M289.958,495.276C289.958,496.374 289.79,497.406 289.452,498.372C289.114,499.339 288.619,500.186 287.968,500.914C287.316,501.642 286.508,502.215 285.543,502.632C284.578,503.05 283.48,503.259 282.249,503.259C281.043,503.259 279.957,503.068 278.992,502.686C278.026,502.304 277.194,501.737 276.494,500.986C275.794,500.234 275.258,499.309 274.884,498.211C274.51,497.114 274.323,495.849 274.323,494.417C274.323,492.054 274.63,489.877 275.245,487.884C275.861,485.891 276.711,484.155 277.797,482.675C278.883,481.196 280.168,479.997 281.652,479.078C283.136,478.159 284.746,477.58 286.484,477.342L287.099,479.633C285.748,479.871 284.517,480.325 283.407,480.993C282.297,481.661 281.326,482.484 280.494,483.463C279.661,484.441 278.98,485.539 278.449,486.756C277.918,487.973 277.556,489.226 277.363,490.515C277.749,489.871 278.4,489.28 279.317,488.743C280.234,488.206 281.356,487.938 282.683,487.938C284.952,487.938 286.731,488.582 288.022,489.871C289.313,491.159 289.958,492.961 289.958,495.276ZM286.954,495.562C286.954,493.868 286.556,492.591 285.76,491.732C284.964,490.873 283.733,490.443 282.068,490.443C280.886,490.443 279.866,490.73 279.01,491.303C278.153,491.875 277.556,492.52 277.218,493.236C277.17,493.57 277.146,493.844 277.146,494.059L277.146,494.775C277.146,495.515 277.248,496.243 277.453,496.958C277.658,497.674 277.978,498.313 278.412,498.874C278.847,499.434 279.384,499.888 280.023,500.234C280.663,500.58 281.417,500.753 282.285,500.753C282.985,500.753 283.618,500.622 284.185,500.359C284.752,500.097 285.241,499.739 285.651,499.285C286.062,498.832 286.381,498.283 286.61,497.639C286.84,496.994 286.954,496.302 286.954,495.562Z" style="fill:rgb(255,0,0);fill-rule:nonzero;"/>
        <path d="M299.839,511.063L293.252,511.063L293.252,508.557L297.016,508.557L297.016,480.277L293.252,480.277L293.252,477.771L299.839,477.771L299.839,511.063Z" style="fill:rgb(255,0,0);fill-rule:nonzero;"/>
        <path d="M328.411,477.771L334.963,477.771L334.963,480.277L331.235,480.277L331.235,508.557L334.963,508.557L334.963,511.063L328.411,511.063L328.411,477.771Z" style="fill:rgb(255,0,0);fill-rule:nonzero;"/>
        <path d="M340.319,502.829L349.404,481.852L350.997,480.098L348.861,480.42L338.546,480.42L338.546,477.771L353.675,477.771L353.675,478.738L343.251,502.829L340.319,502.829Z" style="fill:rgb(255,0,0);fill-rule:nonzero;"/>
        <path d="M353.856,501.29C353.856,500.717 354.049,500.252 354.435,499.894C354.821,499.536 355.316,499.357 355.919,499.357C356.667,499.357 357.276,499.619 357.747,500.144C358.217,500.669 358.453,501.433 358.453,502.435C358.453,503.295 358.332,504.046 358.091,504.691C357.849,505.335 357.536,505.89 357.15,506.355C356.764,506.821 356.341,507.202 355.883,507.501C355.424,507.799 354.966,508.02 354.508,508.163L353.603,506.767C354.471,506.433 355.117,505.914 355.539,505.21C355.961,504.506 356.172,503.796 356.172,503.08C355.955,503.151 355.75,503.187 355.557,503.187C355.075,503.187 354.67,503.026 354.345,502.704C354.019,502.382 353.856,501.91 353.856,501.29Z" style="fill:rgb(255,0,0);fill-rule:nonzero;"/>
        <path d="M368.442,496.851C368.442,495.348 368.84,494.041 369.637,492.931C370.433,491.822 371.676,490.813 373.365,489.906C372.762,489.548 372.201,489.173 371.682,488.779C371.163,488.385 370.704,487.938 370.306,487.436C369.908,486.935 369.595,486.374 369.365,485.754C369.136,485.133 369.021,484.417 369.021,483.606C369.021,482.675 369.184,481.828 369.51,481.064C369.836,480.301 370.306,479.645 370.922,479.096C371.537,478.547 372.273,478.117 373.129,477.807C373.986,477.497 374.957,477.342 376.043,477.342C377.057,477.342 377.973,477.485 378.794,477.771C379.614,478.058 380.308,478.451 380.875,478.952C381.442,479.454 381.882,480.05 382.196,480.742C382.51,481.434 382.667,482.198 382.667,483.033C382.667,484.394 382.353,485.593 381.726,486.631C381.098,487.669 380.061,488.689 378.613,489.692C379.24,490.05 379.837,490.443 380.405,490.873C380.972,491.303 381.466,491.78 381.889,492.305C382.311,492.83 382.643,493.421 382.884,494.077C383.125,494.733 383.246,495.479 383.246,496.314C383.246,497.34 383.077,498.277 382.739,499.124C382.401,499.971 381.907,500.699 381.255,501.308C380.604,501.916 379.807,502.394 378.866,502.74C377.925,503.086 376.851,503.259 375.645,503.259C374.487,503.259 373.461,503.092 372.568,502.758C371.676,502.424 370.922,501.97 370.306,501.397C369.691,500.825 369.227,500.15 368.913,499.375C368.599,498.599 368.442,497.758 368.442,496.851ZM380.423,496.493C380.423,495.777 380.278,495.151 379.988,494.614C379.699,494.077 379.319,493.588 378.848,493.146C378.378,492.705 377.841,492.305 377.238,491.947C376.634,491.589 376.007,491.243 375.355,490.909C373.884,491.72 372.834,492.627 372.207,493.629C371.579,494.632 371.265,495.586 371.265,496.493C371.265,497.066 371.362,497.615 371.555,498.14C371.748,498.665 372.038,499.118 372.424,499.5C372.81,499.882 373.286,500.186 373.853,500.413C374.42,500.64 375.078,500.753 375.826,500.753C376.429,500.753 377.008,500.664 377.563,500.485C378.118,500.306 378.607,500.043 379.029,499.697C379.451,499.351 379.789,498.909 380.043,498.372C380.296,497.836 380.423,497.209 380.423,496.493ZM371.845,483.534C371.845,484.203 371.977,484.793 372.243,485.306C372.508,485.82 372.864,486.279 373.31,486.685C373.757,487.09 374.27,487.466 374.849,487.812C375.428,488.158 376.031,488.486 376.658,488.797C377.744,487.961 378.547,487.138 379.065,486.327C379.584,485.515 379.844,484.62 379.844,483.642C379.844,482.425 379.463,481.488 378.703,480.832C377.943,480.176 377.032,479.847 375.971,479.847C375.319,479.847 374.74,479.955 374.233,480.17C373.727,480.384 373.292,480.659 372.93,480.993C372.568,481.327 372.297,481.715 372.116,482.156C371.935,482.598 371.845,483.057 371.845,483.534Z" style="fill:rgb(255,0,0);fill-rule:nonzero;"/>
        <path d="M393.67,511.063L387.082,511.063L387.082,508.557L390.847,508.557L390.847,480.277L387.082,480.277L387.082,477.771L393.67,477.771L393.67,511.063Z" style="fill:rgb(255,0,0);fill-rule:nonzero;"/>
        <path d="M437.03,477.771L443.581,477.771L443.581,480.277L439.853,480.277L439.853,508.557L443.581,508.557L443.581,511.063L437.03,511.063L437.03,477.771Z" style="fill:rgb(255,0,0);fill-rule:nonzero;"/>
        <path d="M446.839,485.36C446.839,484.215 447.008,483.153 447.345,482.174C447.683,481.196 448.178,480.349 448.829,479.633C449.481,478.917 450.295,478.356 451.272,477.95C452.25,477.544 453.39,477.342 454.693,477.342C457.154,477.342 459.072,478.129 460.448,479.704C461.823,481.279 462.511,483.499 462.511,486.362C462.511,489.059 462.203,491.416 461.588,493.432C460.973,495.449 460.122,497.149 459.036,498.534C457.95,499.918 456.665,500.998 455.181,501.773C453.698,502.549 452.087,503.044 450.35,503.259L449.698,500.968C451.098,500.753 452.358,500.347 453.48,499.751C454.602,499.154 455.568,498.402 456.376,497.495C457.184,496.589 457.842,495.556 458.348,494.399C458.855,493.242 459.205,491.983 459.398,490.622C458.747,491.386 458.029,491.917 457.245,492.215C456.46,492.514 455.429,492.663 454.15,492.663C453.161,492.663 452.226,492.502 451.345,492.18C450.464,491.857 449.686,491.386 449.01,490.766C448.335,490.145 447.804,489.381 447.418,488.475C447.032,487.568 446.839,486.53 446.839,485.36ZM449.843,485.074C449.843,486.768 450.295,488.039 451.2,488.886C452.105,489.733 453.293,490.157 454.765,490.157C455.948,490.157 456.961,489.966 457.806,489.584C458.65,489.202 459.253,488.701 459.615,488.081C459.664,487.771 459.688,487.496 459.688,487.257L459.688,486.506C459.688,485.647 459.585,484.817 459.38,484.018C459.175,483.218 458.867,482.502 458.457,481.87C458.047,481.238 457.51,480.742 456.846,480.384C456.183,480.026 455.405,479.847 454.512,479.847C453.04,479.847 451.894,480.307 451.073,481.226C450.253,482.144 449.843,483.427 449.843,485.074Z" style="fill:rgb(255,0,0);fill-rule:nonzero;"/>
        <path d="M466.456,501.29C466.456,500.717 466.649,500.252 467.035,499.894C467.421,499.536 467.916,499.357 468.519,499.357C469.267,499.357 469.876,499.619 470.347,500.144C470.817,500.669 471.053,501.433 471.053,502.435C471.053,503.295 470.932,504.046 470.691,504.691C470.449,505.335 470.136,505.89 469.75,506.355C469.364,506.821 468.941,507.202 468.483,507.501C468.024,507.799 467.566,508.02 467.107,508.163L466.203,506.767C467.071,506.433 467.717,505.914 468.139,505.21C468.561,504.506 468.772,503.796 468.772,503.08C468.555,503.151 468.35,503.187 468.157,503.187C467.675,503.187 467.27,503.026 466.945,502.704C466.619,502.382 466.456,501.91 466.456,501.29Z" style="fill:rgb(255,0,0);fill-rule:nonzero;"/>
        <path d="M482.49,500.18L487.557,500.18L487.557,482.854L487.919,480.742L486.471,482.425L482.49,485.253L481.115,483.427L489.077,477.342L490.38,477.342L490.38,500.18L495.339,500.18L495.339,502.829L482.49,502.829L482.49,500.18Z" style="fill:rgb(255,0,0);fill-rule:nonzero;"/>
        <path d="M499.863,490.3C499.863,486.005 500.569,482.771 501.981,480.599C503.392,478.427 505.449,477.342 508.152,477.342C511.071,477.342 513.189,478.41 514.504,480.545C515.819,482.681 516.476,485.933 516.476,490.3C516.476,494.596 515.771,497.83 514.359,500.001C512.948,502.173 510.878,503.259 508.152,503.259C505.28,503.259 503.181,502.125 501.854,499.858C500.527,497.591 499.863,494.405 499.863,490.3ZM502.867,490.3C502.867,491.851 502.97,493.265 503.175,494.542C503.38,495.819 503.7,496.917 504.134,497.836C504.569,498.754 505.117,499.47 505.781,499.983C506.445,500.496 507.235,500.753 508.152,500.753C509.986,500.753 511.331,499.912 512.187,498.229C513.044,496.547 513.472,493.904 513.472,490.3C513.472,488.773 513.382,487.365 513.201,486.076C513.02,484.787 512.718,483.678 512.296,482.747C511.874,481.816 511.325,481.1 510.649,480.599C509.974,480.098 509.141,479.847 508.152,479.847C506.342,479.847 505.009,480.695 504.152,482.389C503.296,484.083 502.867,486.72 502.867,490.3Z" style="fill:rgb(255,0,0);fill-rule:nonzero;"/>
        <path d="M525.996,511.063L519.408,511.063L519.408,508.557L523.172,508.557L523.172,480.277L519.408,480.277L519.408,477.771L525.996,477.771L525.996,511.063Z" style="fill:rgb(255,0,0);fill-rule:nonzero;"/>
        <path d="M726.083,477.771L732.635,477.771L732.635,480.277L728.907,480.277L728.907,508.557L732.635,508.557L732.635,511.063L726.083,511.063L726.083,477.771Z" style="fill:rgb(255,0,0);fill-rule:nonzero;"/>
        <path d="M737.919,500.18L742.986,500.18L742.986,482.854L743.348,480.742L741.9,482.425L737.919,485.253L736.543,483.427L744.506,477.342L745.809,477.342L745.809,500.18L750.768,500.18L750.768,502.829L737.919,502.829L737.919,500.18Z" style="fill:rgb(255,0,0);fill-rule:nonzero;"/>
        <path d="M772.702,495.133L768.431,495.133L768.431,502.829L765.607,502.829L765.607,495.133L754.46,495.133L754.46,493.952L766.476,477.377L768.431,477.377L768.431,492.627L772.702,492.627L772.702,495.133ZM765.607,484.823L765.969,481.888L765.861,481.888L764.594,484.322L759.491,491.159L757.753,492.913L760.287,492.627L765.607,492.627L765.607,484.823Z" style="fill:rgb(255,0,0);fill-rule:nonzero;"/>
        <path d="M775.235,501.29C775.235,500.717 775.428,500.252 775.814,499.894C776.2,499.536 776.695,499.357 777.298,499.357C778.046,499.357 778.656,499.619 779.126,500.144C779.597,500.669 779.832,501.433 779.832,502.435C779.832,503.295 779.711,504.046 779.47,504.691C779.229,505.335 778.915,505.89 778.529,506.355C778.143,506.821 777.721,507.202 777.262,507.501C776.804,507.799 776.345,508.02 775.887,508.163L774.982,506.767C775.85,506.433 776.496,505.914 776.918,505.21C777.34,504.506 777.552,503.796 777.552,503.08C777.334,503.151 777.129,503.187 776.936,503.187C776.454,503.187 776.05,503.026 775.724,502.704C775.398,502.382 775.235,501.91 775.235,501.29Z" style="fill:rgb(255,0,0);fill-rule:nonzero;"/>
        <path d="M791.269,500.18L796.336,500.18L796.336,482.854L796.698,480.742L795.251,482.425L791.269,485.253L789.894,483.427L797.857,477.342L799.16,477.342L799.16,500.18L804.118,500.18L804.118,502.829L791.269,502.829L791.269,500.18Z" style="fill:rgb(255,0,0);fill-rule:nonzero;"/>
        <path d="M814.795,500.753C816.46,500.753 817.836,500.276 818.922,499.321C820.007,498.367 820.55,496.982 820.55,495.169C820.55,493.426 820.014,492.126 818.94,491.267C817.866,490.408 816.388,489.978 814.506,489.978L811.466,490.157L811.466,477.771L822.758,477.771L822.758,480.42L814.18,480.42L814.18,487.544L815.737,487.472C818.125,487.496 820.007,488.152 821.383,489.441C822.758,490.73 823.446,492.579 823.446,494.99C823.446,496.326 823.217,497.513 822.758,498.551C822.3,499.59 821.678,500.455 820.894,501.147C820.11,501.839 819.187,502.364 818.125,502.722C817.064,503.08 815.93,503.259 814.723,503.259C813.637,503.259 812.72,503.199 811.972,503.08C811.224,502.961 810.525,502.782 809.873,502.543L810.633,500.109C811.188,500.323 811.785,500.485 812.425,500.592C813.064,500.699 813.854,500.753 814.795,500.753Z" style="fill:rgb(255,0,0);fill-rule:nonzero;"/>
        <path d="M834.775,511.063L828.187,511.063L828.187,508.557L831.952,508.557L831.952,480.277L828.187,480.277L828.187,477.771L834.775,477.771L834.775,511.063Z" style="fill:rgb(255,0,0);fill-rule:nonzero;"/>
        <path d="M543.353,477.771L549.904,477.771L549.904,480.277L546.176,480.277L546.176,508.557L549.904,508.557L549.904,511.063L543.353,511.063L543.353,477.771Z" style="fill:rgb(255,0,0);fill-rule:nonzero;"/>
        <path d="M555.189,500.18L560.256,500.18L560.256,482.854L560.618,480.742L559.17,482.425L555.189,485.253L553.813,483.427L561.776,477.342L563.079,477.342L563.079,500.18L568.038,500.18L568.038,502.829L555.189,502.829L555.189,500.18Z" style="fill:rgb(255,0,0);fill-rule:nonzero;"/>
        <path d="M574.914,500.18L579.982,500.18L579.982,482.854L580.344,480.742L578.896,482.425L574.914,485.253L573.539,483.427L581.502,477.342L582.805,477.342L582.805,500.18L587.763,500.18L587.763,502.829L574.914,502.829L574.914,500.18Z" style="fill:rgb(255,0,0);fill-rule:nonzero;"/>
        <path d="M592.505,501.29C592.505,500.717 592.698,500.252 593.084,499.894C593.47,499.536 593.965,499.357 594.568,499.357C595.316,499.357 595.925,499.619 596.396,500.144C596.866,500.669 597.102,501.433 597.102,502.435C597.102,503.295 596.981,504.046 596.74,504.691C596.498,505.335 596.185,505.89 595.799,506.355C595.412,506.821 594.99,507.202 594.532,507.501C594.073,507.799 593.615,508.02 593.156,508.163L592.251,506.767C593.12,506.433 593.766,505.914 594.188,505.21C594.61,504.506 594.821,503.796 594.821,503.08C594.604,503.151 594.399,503.187 594.206,503.187C593.723,503.187 593.319,503.026 592.993,502.704C592.668,502.382 592.505,501.91 592.505,501.29Z" style="fill:rgb(255,0,0);fill-rule:nonzero;"/>
        <path d="M608.539,500.18L613.606,500.18L613.606,482.854L613.968,480.742L612.52,482.425L608.539,485.253L607.164,483.427L615.126,477.342L616.429,477.342L616.429,500.18L621.388,500.18L621.388,502.829L608.539,502.829L608.539,500.18Z" style="fill:rgb(255,0,0);fill-rule:nonzero;"/>
        <path d="M640.498,483.463C640.498,484.728 640.263,486.022 639.793,487.347C639.322,488.671 638.707,490.002 637.947,491.338C637.187,492.675 636.336,493.981 635.395,495.258C634.454,496.535 633.513,497.746 632.572,498.892L630.798,500.431L630.798,500.574L633.115,500.18L641.005,500.18L641.005,502.829L626.6,502.829L626.6,501.791C627.131,501.242 627.77,500.562 628.518,499.751C629.266,498.939 630.044,498.038 630.853,497.048C631.661,496.058 632.457,495.008 633.242,493.898C634.026,492.788 634.738,491.66 635.377,490.515C636.016,489.369 636.529,488.236 636.915,487.114C637.301,485.993 637.494,484.931 637.494,483.928C637.494,482.759 637.157,481.786 636.481,481.011C635.805,480.235 634.78,479.847 633.404,479.847C632.487,479.847 631.595,480.032 630.726,480.402C629.857,480.772 629.109,481.196 628.482,481.673L627.288,479.633C628.132,478.917 629.133,478.356 630.292,477.95C631.45,477.544 632.693,477.342 634.02,477.342C635.057,477.342 635.974,477.491 636.77,477.789C637.567,478.087 638.242,478.511 638.797,479.06C639.352,479.609 639.775,480.259 640.064,481.011C640.354,481.763 640.498,482.58 640.498,483.463Z" style="fill:rgb(255,0,0);fill-rule:nonzero;"/>
        <path d="M645.855,501.29C645.855,500.717 646.048,500.252 646.434,499.894C646.82,499.536 647.315,499.357 647.918,499.357C648.666,499.357 649.276,499.619 649.746,500.144C650.217,500.669 650.452,501.433 650.452,502.435C650.452,503.295 650.331,504.046 650.09,504.691C649.849,505.335 649.535,505.89 649.149,506.355C648.763,506.821 648.341,507.202 647.882,507.501C647.424,507.799 646.965,508.02 646.507,508.163L645.602,506.767C646.471,506.433 647.116,505.914 647.538,505.21C647.961,504.506 648.172,503.796 648.172,503.08C647.954,503.151 647.749,503.187 647.556,503.187C647.074,503.187 646.67,503.026 646.344,502.704C646.018,502.382 645.855,501.91 645.855,501.29Z" style="fill:rgb(255,0,0);fill-rule:nonzero;"/>
        <path d="M661.889,500.18L666.956,500.18L666.956,482.854L667.318,480.742L665.871,482.425L661.889,485.253L660.514,483.427L668.477,477.342L669.78,477.342L669.78,500.18L674.738,500.18L674.738,502.829L661.889,502.829L661.889,500.18Z" style="fill:rgb(255,0,0);fill-rule:nonzero;"/>
        <path d="M686.176,500.753C686.996,500.753 687.756,500.634 688.456,500.395C689.156,500.156 689.759,499.804 690.266,499.339C690.772,498.874 691.17,498.319 691.46,497.674C691.75,497.03 691.894,496.326 691.894,495.562C691.894,493.892 691.394,492.651 690.392,491.839C689.391,491.028 688.009,490.622 686.248,490.622L683.57,490.622L683.57,489.584L688.782,481.637L690.447,480.062L688.094,480.42L680.927,480.42L680.927,477.771L693.849,477.771L693.849,478.809L688.094,487.365L686.827,488.403L686.827,488.475L688.058,488.224C689.023,488.248 689.916,488.421 690.736,488.743C691.556,489.065 692.268,489.531 692.872,490.139C693.475,490.748 693.945,491.476 694.283,492.323C694.621,493.17 694.79,494.131 694.79,495.204C694.79,496.493 694.561,497.639 694.102,498.641C693.644,499.643 693.022,500.485 692.238,501.165C691.454,501.845 690.531,502.364 689.469,502.722C688.408,503.08 687.286,503.259 686.103,503.259C685.017,503.259 684.04,503.175 683.171,503.008C682.303,502.841 681.543,502.626 680.891,502.364L681.651,499.822C682.206,500.085 682.864,500.306 683.624,500.485C684.384,500.664 685.235,500.753 686.176,500.753Z" style="fill:rgb(255,0,0);fill-rule:nonzero;"/>
        <path d="M705.395,511.063L698.807,511.063L698.807,508.557L702.572,508.557L702.572,480.277L698.807,480.277L698.807,477.771L705.395,477.771L705.395,511.063Z" style="fill:rgb(255,0,0);fill-rule:nonzero;"/>
        <path d="M491.795,423.108C490.864,423.844 489.6,424.465 488.002,424.972C486.404,425.478 484.706,425.731 482.907,425.731C479.153,425.731 476.407,424.649 474.67,422.486C472.932,420.323 472.064,417.354 472.064,413.58C472.064,409.53 473.041,406.492 474.995,404.467C476.95,402.442 479.696,401.43 483.232,401.43C484.411,401.43 485.559,401.583 486.676,401.89C487.793,402.197 488.785,402.703 489.654,403.409C490.523,404.115 491.221,405.066 491.748,406.262C492.276,407.459 492.539,408.947 492.539,410.727C492.539,411.371 492.501,412.062 492.423,412.798C492.345,413.534 492.229,414.301 492.074,415.099L478.113,415.099C478.206,417.032 478.711,418.49 479.626,419.472C480.541,420.453 482.022,420.944 484.07,420.944C485.342,420.944 486.482,420.753 487.49,420.369C488.499,419.986 489.266,419.594 489.794,419.195L491.795,423.108ZM483.139,406.216C481.557,406.216 480.386,406.684 479.626,407.62C478.866,408.556 478.408,409.806 478.253,411.371L486.909,411.371C487.033,409.714 486.777,408.441 486.141,407.551C485.505,406.661 484.504,406.216 483.139,406.216Z" style="fill-rule:nonzero;"/>
        <path d="M151.683,394.148L157.733,394.148L157.733,405.194L157.919,405.194C158.57,404.457 159.408,403.874 160.432,403.445C161.455,403.015 162.588,402.8 163.829,402.8C166.621,402.8 168.754,403.744 170.227,405.631C171.701,407.518 172.438,410.394 172.438,414.261C172.438,418.403 171.406,421.548 169.343,423.696C167.28,425.843 164.449,426.917 160.851,426.917C158.865,426.917 157.05,426.756 155.406,426.434C153.762,426.112 152.521,425.751 151.683,425.353L151.683,394.148ZM162.06,407.863C160.944,407.863 160.036,408.147 159.338,408.714C158.64,409.282 158.105,410.103 157.733,411.177L157.733,421.21C158.229,421.456 158.764,421.625 159.338,421.717C159.912,421.809 160.525,421.855 161.176,421.855C162.821,421.855 164.069,421.264 164.922,420.083C165.776,418.901 166.202,417.022 166.202,414.445C166.202,410.057 164.822,407.863 162.06,407.863Z" style="fill-rule:nonzero;"/>
        <path d="M616.107,404.631L619.318,404.631L619.318,403.342C619.318,400.427 619.939,398.318 621.18,397.014C622.421,395.71 624.22,395.058 626.578,395.058C629.06,395.058 631.123,395.349 632.767,395.932L631.604,400.719C630.89,400.473 630.262,400.312 629.719,400.236C629.176,400.159 628.61,400.121 628.02,400.121C627.4,400.121 626.911,400.213 626.555,400.397C626.198,400.581 625.934,400.865 625.763,401.248C625.593,401.632 625.484,402.107 625.438,402.675C625.391,403.243 625.368,403.895 625.368,404.631L630.487,404.631L630.487,409.694L625.368,409.694L625.368,427.644L619.318,427.644L619.318,409.694L616.107,409.694L616.107,404.631Z" style="fill-rule:nonzero;"/>
        <path d="M273.524,423.66C272.594,424.335 271.469,424.849 270.15,425.202C268.832,425.555 267.475,425.731 266.079,425.731C264.217,425.731 262.643,425.439 261.355,424.857C260.068,424.274 259.021,423.453 258.214,422.394C257.407,421.336 256.826,420.055 256.469,418.551C256.112,417.048 255.934,415.391 255.934,413.58C255.934,409.684 256.818,406.684 258.586,404.582C260.355,402.481 262.93,401.43 266.311,401.43C268.018,401.43 269.39,401.568 270.43,401.844C271.469,402.12 272.407,402.473 273.245,402.903L271.802,407.781C271.089,407.444 270.383,407.183 269.685,406.999C268.987,406.815 268.188,406.723 267.288,406.723C265.613,406.723 264.341,407.267 263.473,408.356C262.604,409.446 262.17,411.187 262.17,413.58C262.17,414.562 262.278,415.467 262.495,416.296C262.712,417.124 263.038,417.845 263.473,418.459C263.907,419.073 264.473,419.556 265.171,419.909C265.869,420.262 266.684,420.438 267.614,420.438C268.638,420.438 269.507,420.308 270.22,420.047C270.934,419.786 271.57,419.472 272.128,419.103L273.524,423.66Z" style="fill-rule:nonzero;"/>
        <path d="M788.047,422.53C788.047,425.874 787.132,428.337 785.301,429.917C783.471,431.497 780.911,432.287 777.623,432.287C775.389,432.287 773.628,432.134 772.341,431.827C771.054,431.52 770.084,431.198 769.433,430.86L770.689,426.12C771.403,426.396 772.232,426.672 773.179,426.948C774.125,427.224 775.296,427.362 776.692,427.362C778.802,427.362 780.237,426.91 780.997,426.005C781.757,425.099 782.137,423.834 782.137,422.208L782.137,420.735L781.951,420.735C780.865,422.177 778.941,422.898 776.18,422.898C773.171,422.898 770.929,421.977 769.456,420.136C767.982,418.295 767.245,415.411 767.245,411.484C767.245,407.372 768.238,404.258 770.224,402.141C772.209,400.023 775.094,398.965 778.879,398.965C780.865,398.965 782.641,399.103 784.208,399.379C785.774,399.655 787.054,399.977 788.047,400.346L788.047,422.53ZM777.809,418.111C778.988,418.111 779.895,417.85 780.531,417.329C781.167,416.807 781.656,416.025 781.997,414.982L781.997,404.626C781.035,404.227 779.841,404.028 778.414,404.028C776.863,404.028 775.653,404.603 774.784,405.754C773.915,406.904 773.481,408.737 773.481,411.254C773.481,413.493 773.853,415.196 774.598,416.362C775.343,417.528 776.413,418.111 777.809,418.111Z" style="fill-rule:nonzero;"/>
        <path d="M372.879,418.265C372.879,419.553 372.894,420.842 372.925,422.131C372.956,423.419 373.096,424.846 373.344,426.411L369.016,426.411L368.179,423.419L367.993,423.419C367.372,424.493 366.48,425.36 365.317,426.02C364.153,426.68 362.781,427.009 361.198,427.009C358.282,427.009 356.017,426.058 354.404,424.156C352.791,422.254 351.984,419.277 351.984,415.227C351.984,411.3 352.884,408.247 354.683,406.068C356.483,403.89 359.12,402.8 362.594,402.8C363.556,402.8 364.347,402.854 364.968,402.961C365.588,403.069 366.209,403.245 366.829,403.491L366.829,394.148L372.879,394.148L372.879,418.265ZM362.594,421.947C363.773,421.947 364.704,421.663 365.387,421.095C366.069,420.528 366.55,419.707 366.829,418.633L366.829,408.876C366.395,408.538 365.914,408.285 365.387,408.116C364.859,407.947 364.177,407.863 363.339,407.863C361.633,407.863 360.353,408.431 359.5,409.566C358.647,410.701 358.22,412.65 358.22,415.411C358.22,417.375 358.569,418.955 359.267,420.152C359.965,421.348 361.074,421.947 362.594,421.947Z" style="fill-rule:nonzero;"/>
        <path d="M623.334,285.273L624.171,288.863L624.451,288.863L625.056,285.227L628.592,272.34L634.828,272.34L627.755,293.097C627.165,294.816 626.599,296.388 626.056,297.815C625.513,299.242 624.916,300.477 624.265,301.52C623.613,302.563 622.892,303.369 622.101,303.936C621.309,304.504 620.371,304.788 619.285,304.788C617.672,304.788 616.384,304.527 615.423,304.005L616.54,299.219C617.005,299.403 617.47,299.495 617.936,299.495C618.649,299.495 619.339,299.196 620.007,298.597C620.674,297.999 621.178,296.917 621.519,295.353L611.793,272.34L619.053,272.34L623.334,285.273Z" style="fill-rule:nonzero;"/>
        <path d="M363.405,153.779L228.358,258.576" style="fill:none;stroke:black;stroke-width:2px;"/>
        <path d="M419.278,153.779L604.717,258.576" style="fill:none;stroke:black;stroke-width:2px;"/>
        <path d="M179.055,297.678L77.829,387.399" style="fill:none;stroke:black;stroke-width:2px;"/>
        <path d="M194.283,312.753L161.909,381.925" style="fill:none;stroke:black;stroke-width:2px;"/>
        <path d="M221.139,312.753L259.633,383.853" style="fill:none;stroke:black;stroke-width:2px;"/>
        <path d="M237.839,294.051L345.505,387.399" style="fill:none;stroke:black;stroke-width:2px;"/>
        <path d="M598.822,303.565L507.166,394.148" style="fill:none;stroke:black;stroke-width:2px;"/>
        <path d="M623.812,315.726L623.812,381.925" style="fill:none;stroke:black;stroke-width:2px;"/>
        <path d="M648.802,303.565L760.766,387.399" style="fill:none;stroke:black;stroke-width:2px;"/>
    </g>
</svg>
