<?xml version="1.0" encoding="UTF-8" standalone="no"?>
<!DOCTYPE svg PUBLIC "-//W3C//DTD SVG 1.1//EN" "http://www.w3.org/Graphics/SVG/1.1/DTD/svg11.dtd">
<svg width="100%" height="100%" viewBox="0 0 796 337" version="1.1" xmlns="http://www.w3.org/2000/svg" xmlns:xlink="http://www.w3.org/1999/xlink" xml:space="preserve" xmlns:serif="http://www.serif.com/" style="fill-rule:evenodd;clip-rule:evenodd;stroke-linecap:round;stroke-linejoin:round;stroke-miterlimit:1.5;">
    <g transform="matrix(1,0,0,1,-3122,-5517)">
        <g id="Raster-geometry" serif:id="Raster geometry" transform="matrix(1,0,0,1,1,0)">
            <rect x="3056" y="3502" width="1633" height="2460" style="fill:none;"/>
            <g transform="matrix(1,0,0,1,1670.42,5127.51)">
                <g>
                    <g transform="matrix(0.608724,0,0,0.608724,605.316,173.761)">
                        <rect x="1408.73" y="376.404" width="125.464" height="125.464" style="fill:rgb(255,235,51);stroke:black;stroke-width:6.57px;"/>
                    </g>
                    <g transform="matrix(0.608724,0,0,0.608724,605.316,326.506)">
                        <rect x="1408.73" y="376.404" width="125.464" height="125.464" style="fill:rgb(255,235,51);stroke:black;stroke-width:6.57px;"/>
                    </g>
                    <g transform="matrix(0.608724,0,0,0.608724,605.316,402.879)">
                        <rect x="1408.73" y="376.404" width="125.464" height="125.464" style="fill:rgb(255,235,51);stroke:black;stroke-width:6.57px;"/>
                    </g>
                    <g transform="matrix(0.608724,0,0,0.608724,758.061,173.761)">
                        <rect x="1408.73" y="376.404" width="125.464" height="125.464" style="fill:rgb(255,235,51);stroke:black;stroke-width:6.57px;"/>
                    </g>
                    <g transform="matrix(0.608724,0,0,0.608724,758.061,250.134)">
                        <rect x="1408.73" y="376.404" width="125.464" height="125.464" style="fill:rgb(255,235,51);stroke:black;stroke-width:6.57px;"/>
                    </g>
                    <g transform="matrix(0.608724,0,0,0.608724,758.061,326.506)">
                        <rect x="1408.73" y="376.404" width="125.464" height="125.464" style="fill:rgb(255,235,51);stroke:black;stroke-width:6.57px;"/>
                    </g>
                    <g transform="matrix(0.608724,0,0,0.608724,758.061,402.879)">
                        <rect x="1408.73" y="376.404" width="125.464" height="125.464" style="fill:rgb(255,235,51);stroke:black;stroke-width:6.57px;"/>
                    </g>
                    <g transform="matrix(0.608724,0,0,0.608724,681.689,173.761)">
                        <rect x="1408.73" y="376.404" width="125.464" height="125.464" style="fill:rgb(255,235,51);stroke:black;stroke-width:6.57px;"/>
                    </g>
                    <g transform="matrix(0.608724,0,0,0.608724,681.689,250.134)">
                        <rect x="1408.73" y="376.404" width="125.464" height="125.464" style="fill:rgb(255,235,51);stroke:black;stroke-width:6.57px;"/>
                    </g>
                    <g transform="matrix(0.608724,0,0,0.608724,681.689,326.506)">
                        <rect x="1408.73" y="376.404" width="125.464" height="125.464" style="fill:rgb(255,235,51);stroke:black;stroke-width:6.57px;"/>
                    </g>
                    <g transform="matrix(0.608724,0,0,0.608724,681.689,402.879)">
                        <rect x="1408.73" y="376.404" width="125.464" height="125.464" style="fill:rgb(255,235,51);stroke:black;stroke-width:6.57px;"/>
                    </g>
                    <g transform="matrix(0.608724,0,0,0.608724,834.434,173.761)">
                        <rect x="1408.73" y="376.404" width="125.464" height="125.464" style="fill:rgb(255,235,51);stroke:black;stroke-width:6.57px;"/>
                    </g>
                    <g transform="matrix(0.608724,0,0,0.608724,834.434,250.134)">
                        <rect x="1408.73" y="376.404" width="125.464" height="125.464" style="fill:rgb(255,235,51);stroke:black;stroke-width:6.57px;"/>
                    </g>
                    <g transform="matrix(0.608724,0,0,0.608724,834.434,326.506)">
                        <rect x="1408.73" y="376.404" width="125.464" height="125.464" style="fill:rgb(255,235,51);stroke:black;stroke-width:6.57px;"/>
                    </g>
                    <g transform="matrix(0.608724,0,0,0.608724,834.434,402.879)">
                        <rect x="1408.73" y="376.404" width="125.464" height="125.464" style="fill:rgb(255,235,51);stroke:black;stroke-width:6.57px;"/>
                    </g>
                    <g transform="matrix(0.608724,0,0,0.608724,605.316,250.134)">
                        <rect x="1408.73" y="376.404" width="125.464" height="125.464" style="fill:rgb(255,235,51);stroke:black;stroke-width:6.57px;"/>
                    </g>
                </g>
            </g>
            <g transform="matrix(0.770163,0,0,1,1662.72,4159.85)">
                <g transform="matrix(1.29843,-0,-0,1,1893.47,1357.15)">
                    <path d="M377.987,149.016L413.987,167.016L377.987,185.016L377.987,149.016Z"/>
                    <path d="M340.268,167.016L385.187,167.016" style="fill:none;stroke:black;stroke-width:8px;stroke-linecap:butt;stroke-linejoin:miter;stroke-miterlimit:1;"/>
                </g>
            </g>
            <g transform="matrix(0.66857,0,0,0.66857,2575.58,5260.3)">
                <g>
                    <g transform="matrix(0.608724,0,0,0.608724,605.316,173.761)">
                        <rect x="1408.73" y="376.404" width="125.464" height="125.464" style="fill:rgb(250,112,255);stroke:black;stroke-width:9.83px;"/>
                    </g>
                    <g transform="matrix(0.608724,0,0,0.608724,605.316,326.506)">
                        <rect x="1408.73" y="376.404" width="125.464" height="125.464" style="fill:rgb(250,112,255);stroke:black;stroke-width:9.83px;"/>
                    </g>
                    <g transform="matrix(0.608724,0,0,0.608724,605.316,478.224)">
                        <rect x="1408.73" y="376.404" width="125.464" height="125.464" style="fill:rgb(250,112,255);stroke:black;stroke-width:9.83px;"/>
                    </g>
                    <g transform="matrix(0.608724,0,0,0.608724,605.316,402.879)">
                        <rect x="1408.73" y="376.404" width="125.464" height="125.464" style="fill:rgb(250,112,255);stroke:black;stroke-width:9.83px;"/>
                    </g>
                    <g transform="matrix(0.608724,0,0,0.608724,605.316,554.597)">
                        <rect x="1408.73" y="376.404" width="125.464" height="125.464" style="fill:rgb(250,112,255);stroke:black;stroke-width:9.83px;"/>
                    </g>
                    <g transform="matrix(0.608724,0,0,0.608724,758.061,173.761)">
                        <rect x="1408.73" y="376.404" width="125.464" height="125.464" style="fill:rgb(250,112,255);stroke:black;stroke-width:9.83px;"/>
                    </g>
                    <g transform="matrix(0.608724,0,0,0.608724,910.78,173.761)">
                        <rect x="1408.73" y="376.404" width="125.464" height="125.464" style="fill:rgb(250,112,255);stroke:black;stroke-width:9.83px;"/>
                    </g>
                    <g transform="matrix(0.608724,0,0,0.608724,758.061,250.134)">
                        <rect x="1408.73" y="376.404" width="125.464" height="125.464" style="fill:rgb(250,112,255);stroke:black;stroke-width:9.83px;"/>
                    </g>
                    <g transform="matrix(0.608724,0,0,0.608724,910.78,250.134)">
                        <rect x="1408.73" y="376.404" width="125.464" height="125.464" style="fill:rgb(250,112,255);stroke:black;stroke-width:9.83px;"/>
                    </g>
                    <g transform="matrix(0.608724,0,0,0.608724,758.061,326.506)">
                        <rect x="1408.73" y="376.404" width="125.464" height="125.464" style="fill:rgb(250,112,255);stroke:black;stroke-width:9.83px;"/>
                    </g>
                    <g transform="matrix(0.608724,0,0,0.608724,758.061,478.224)">
                        <rect x="1408.73" y="376.404" width="125.464" height="125.464" style="fill:rgb(250,112,255);stroke:black;stroke-width:9.83px;"/>
                    </g>
                    <g transform="matrix(0.608724,0,0,0.608724,910.78,326.506)">
                        <rect x="1408.73" y="376.404" width="125.464" height="125.464" style="fill:rgb(250,112,255);stroke:black;stroke-width:9.83px;"/>
                    </g>
                    <g transform="matrix(0.608724,0,0,0.608724,910.78,478.224)">
                        <rect x="1408.73" y="376.404" width="125.464" height="125.464" style="fill:rgb(250,112,255);stroke:black;stroke-width:9.83px;"/>
                    </g>
                    <g transform="matrix(0.608724,0,0,0.608724,758.061,402.879)">
                        <rect x="1408.73" y="376.404" width="125.464" height="125.464" style="fill:rgb(250,112,255);stroke:black;stroke-width:9.83px;"/>
                    </g>
                    <g transform="matrix(0.608724,0,0,0.608724,758.061,554.597)">
                        <rect x="1408.73" y="376.404" width="125.464" height="125.464" style="fill:rgb(250,112,255);stroke:black;stroke-width:9.83px;"/>
                    </g>
                    <g transform="matrix(0.608724,0,0,0.608724,910.78,402.879)">
                        <rect x="1408.73" y="376.404" width="125.464" height="125.464" style="fill:rgb(250,112,255);stroke:black;stroke-width:9.83px;"/>
                    </g>
                    <g transform="matrix(0.608724,0,0,0.608724,910.78,554.597)">
                        <rect x="1408.73" y="376.404" width="125.464" height="125.464" style="fill:rgb(250,112,255);stroke:black;stroke-width:9.83px;"/>
                    </g>
                    <g transform="matrix(0.608724,0,0,0.608724,681.689,173.761)">
                        <rect x="1408.73" y="376.404" width="125.464" height="125.464" style="fill:rgb(250,112,255);stroke:black;stroke-width:9.83px;"/>
                    </g>
                    <g transform="matrix(0.608724,0,0,0.608724,681.689,250.134)">
                        <rect x="1408.73" y="376.404" width="125.464" height="125.464" style="fill:rgb(250,112,255);stroke:black;stroke-width:9.83px;"/>
                    </g>
                    <g transform="matrix(0.608724,0,0,0.608724,681.689,326.506)">
                        <rect x="1408.73" y="376.404" width="125.464" height="125.464" style="fill:rgb(250,112,255);stroke:black;stroke-width:9.83px;"/>
                    </g>
                    <g transform="matrix(0.608724,0,0,0.608724,681.689,478.224)">
                        <rect x="1408.73" y="376.404" width="125.464" height="125.464" style="fill:rgb(250,112,255);stroke:black;stroke-width:9.83px;"/>
                    </g>
                    <g transform="matrix(0.608724,0,0,0.608724,681.689,402.879)">
                        <rect x="1408.73" y="376.404" width="125.464" height="125.464" style="fill:rgb(250,112,255);stroke:black;stroke-width:9.83px;"/>
                    </g>
                    <g transform="matrix(0.608724,0,0,0.608724,681.689,554.597)">
                        <rect x="1408.73" y="376.404" width="125.464" height="125.464" style="fill:rgb(250,112,255);stroke:black;stroke-width:9.83px;"/>
                    </g>
                    <g transform="matrix(0.608724,0,0,0.608724,834.434,173.761)">
                        <rect x="1408.73" y="376.404" width="125.464" height="125.464" style="fill:rgb(250,112,255);stroke:black;stroke-width:9.83px;"/>
                    </g>
                    <g transform="matrix(0.608724,0,0,0.608724,987.152,173.761)">
                        <rect x="1408.73" y="376.404" width="125.464" height="125.464" style="fill:rgb(250,112,255);stroke:black;stroke-width:9.83px;"/>
                    </g>
                    <g transform="matrix(0.608724,0,0,0.608724,1063.39,173.761)">
                        <rect x="1408.73" y="376.404" width="125.464" height="125.464" style="fill:rgb(250,112,255);stroke:black;stroke-width:9.83px;"/>
                    </g>
                    <g transform="matrix(0.608724,0,0,0.608724,834.434,250.134)">
                        <rect x="1408.73" y="376.404" width="125.464" height="125.464" style="fill:rgb(250,112,255);stroke:black;stroke-width:9.83px;"/>
                    </g>
                    <g transform="matrix(0.608724,0,0,0.608724,987.152,250.134)">
                        <rect x="1408.73" y="376.404" width="125.464" height="125.464" style="fill:rgb(250,112,255);stroke:black;stroke-width:9.83px;"/>
                    </g>
                    <g transform="matrix(0.608724,0,0,0.608724,1063.39,250.134)">
                        <rect x="1408.73" y="376.404" width="125.464" height="125.464" style="fill:rgb(250,112,255);stroke:black;stroke-width:9.83px;"/>
                    </g>
                    <g transform="matrix(0.608724,0,0,0.608724,834.434,326.506)">
                        <rect x="1408.73" y="376.404" width="125.464" height="125.464" style="fill:rgb(250,112,255);stroke:black;stroke-width:9.83px;"/>
                    </g>
                    <g transform="matrix(0.608724,0,0,0.608724,834.434,478.224)">
                        <rect x="1408.73" y="376.404" width="125.464" height="125.464" style="fill:rgb(250,112,255);stroke:black;stroke-width:9.83px;"/>
                    </g>
                    <g transform="matrix(0.608724,0,0,0.608724,987.152,326.506)">
                        <rect x="1408.73" y="376.404" width="125.464" height="125.464" style="fill:rgb(250,112,255);stroke:black;stroke-width:9.83px;"/>
                    </g>
                    <g transform="matrix(0.608724,0,0,0.608724,1063.39,326.506)">
                        <rect x="1408.73" y="376.404" width="125.464" height="125.464" style="fill:rgb(250,112,255);stroke:black;stroke-width:9.83px;"/>
                    </g>
                    <g transform="matrix(0.608724,0,0,0.608724,987.152,478.224)">
                        <rect x="1408.73" y="376.404" width="125.464" height="125.464" style="fill:rgb(250,112,255);stroke:black;stroke-width:9.83px;"/>
                    </g>
                    <g transform="matrix(0.608724,0,0,0.608724,1063.39,478.224)">
                        <rect x="1408.73" y="376.404" width="125.464" height="125.464" style="fill:rgb(250,112,255);stroke:black;stroke-width:9.83px;"/>
                    </g>
                    <g transform="matrix(0.608724,0,0,0.608724,834.434,402.879)">
                        <rect x="1408.73" y="376.404" width="125.464" height="125.464" style="fill:rgb(250,112,255);stroke:black;stroke-width:9.83px;"/>
                    </g>
                    <g transform="matrix(0.608724,0,0,0.608724,834.434,554.597)">
                        <rect x="1408.73" y="376.404" width="125.464" height="125.464" style="fill:rgb(250,112,255);stroke:black;stroke-width:9.83px;"/>
                    </g>
                    <g transform="matrix(0.608724,0,0,0.608724,987.152,402.879)">
                        <rect x="1408.73" y="376.404" width="125.464" height="125.464" style="fill:rgb(250,112,255);stroke:black;stroke-width:9.83px;"/>
                    </g>
                    <g transform="matrix(0.608724,0,0,0.608724,1063.39,402.879)">
                        <rect x="1408.73" y="376.404" width="125.464" height="125.464" style="fill:rgb(250,112,255);stroke:black;stroke-width:9.83px;"/>
                    </g>
                    <g transform="matrix(0.608724,0,0,0.608724,987.152,554.597)">
                        <rect x="1408.73" y="376.404" width="125.464" height="125.464" style="fill:rgb(250,112,255);stroke:black;stroke-width:9.83px;"/>
                    </g>
                    <g transform="matrix(0.608724,0,0,0.608724,1063.39,554.597)">
                        <rect x="1408.73" y="376.404" width="125.464" height="125.464" style="fill:rgb(250,112,255);stroke:black;stroke-width:9.83px;"/>
                    </g>
                    <g transform="matrix(0.608724,0,0,0.608724,605.316,250.134)">
                        <rect x="1408.73" y="376.404" width="125.464" height="125.464" style="fill:rgb(250,112,255);stroke:black;stroke-width:9.83px;"/>
                    </g>
                </g>
            </g>
            <g>
                <g transform="matrix(1,0,0,1,-166.289,938.261)">
                    <path d="M3723,4889.49C3723,4889.49 3898.8,4940.96 4067.77,4864.3C4098.27,4714.73 4045,4584 4045,4584C3908.29,4627.26 3792,4584 3792,4584C3792,4584 3709.35,4717.13 3723,4889.49" style="fill:none;stroke:black;stroke-width:1.5px;stroke-miterlimit:10;"/>
                </g>
                <g transform="matrix(1,0,0,1,-166.289,938.554)">
                    <path d="M3792,4584C3792,4584 3709.35,4717.13 3723,4889.49" style="fill:none;stroke:black;stroke-width:1.5px;stroke-miterlimit:10;"/>
                </g>
                <g transform="matrix(1,0,0,1,-166.289,938.554)">
                    <path d="M4045,4584C4045,4584 4098.27,4714.73 4067.77,4864.3" style="fill:none;stroke:black;stroke-width:1.5px;stroke-miterlimit:10;"/>
                </g>
                <g transform="matrix(1,0,0,1,-166.289,938.554)">
                    <path d="M3792,4584C3792,4584 3908.29,4627.26 4045,4584" style="fill:none;stroke:black;stroke-width:1.5px;stroke-miterlimit:10;"/>
                </g>
                <g transform="matrix(1,0,0,1,-166.289,938.554)">
                    <path d="M3723,4889.49C3723,4889.49 3898.8,4940.96 4067.77,4864.3" style="fill:none;stroke:black;stroke-width:1.5px;stroke-miterlimit:10;"/>
                </g>
                <g transform="matrix(0.783664,0,0,1,681.425,938.554)">
                    <path d="M3918.5,4603.23C3918.5,4603.23 3871.78,4763.7 3895.41,4905.1" style="fill:none;stroke:black;stroke-width:1.67px;stroke-miterlimit:10;"/>
                </g>
                <g transform="matrix(1,0,0,1,-166.289,938.554)">
                    <path d="M3851.26,4598.05C3851.26,4598.05 3788.06,4737.81 3803.78,4903.55" style="fill:none;stroke:black;stroke-width:1.5px;stroke-miterlimit:10;"/>
                </g>
                <g transform="matrix(1,0,0,1,-166.289,938.554)">
                    <path d="M3974.01,4599.67C3974.01,4599.67 4002.76,4718.84 3984.67,4892.52" style="fill:none;stroke:black;stroke-width:1.5px;stroke-miterlimit:10;"/>
                </g>
                <g transform="matrix(1,0,0,1,-166.289,938.554)">
                    <path d="M3735.21,4732C3735.21,4732 3918.6,4783.9 4074.83,4718.34" style="fill:none;stroke:black;stroke-width:1.5px;stroke-miterlimit:10;"/>
                </g>
                <g transform="matrix(1,0,0,1,-166.289,938.554)">
                    <path d="M3756.74,4659.94C3756.74,4659.94 3907.01,4714.47 4064.45,4651.23" style="fill:none;stroke:black;stroke-width:1.5px;stroke-miterlimit:10;"/>
                </g>
                <g transform="matrix(1,0,0,1,-166.289,938.554)">
                    <path d="M3722.96,4812.07C3722.96,4812.07 3900.47,4866.77 4076.72,4790.53" style="fill:none;stroke:black;stroke-width:1.5px;stroke-miterlimit:10;"/>
                </g>
            </g>
        </g>
    </g>
</svg>
