<?xml version="1.0" encoding="UTF-8" standalone="no"?>
<!DOCTYPE svg PUBLIC "-//W3C//DTD SVG 1.1//EN" "http://www.w3.org/Graphics/SVG/1.1/DTD/svg11.dtd">
<svg width="100%" height="100%" viewBox="0 0 633 469" version="1.1" xmlns="http://www.w3.org/2000/svg" xmlns:xlink="http://www.w3.org/1999/xlink" xml:space="preserve" xmlns:serif="http://www.serif.com/" style="fill-rule:evenodd;clip-rule:evenodd;stroke-linecap:round;stroke-linejoin:round;stroke-miterlimit:1.5;">
    <g transform="matrix(1,0,0,1,-132,-2694)">
        <g id="Raster-details" serif:id="Raster details" transform="matrix(1,0,0,1,0,-0.693644)">
            <rect x="4" y="2668.69" width="927" height="553.306" style="fill:none;"/>
            <g transform="matrix(0.608724,0,0,0.608724,-479.723,2771.83)">
                <rect x="1408.73" y="376.404" width="125.464" height="125.464" style="fill:rgb(252,206,254);stroke:rgb(243,5,255);stroke-width:9.86px;"/>
            </g>
            <g transform="matrix(0.608724,0,0,0.608724,-441.723,2656.53)">
                <rect x="1408.73" y="376.404" width="125.464" height="125.464" style="fill:rgb(205,255,254);stroke:rgb(0,235,231);stroke-width:16.43px;"/>
            </g>
            <g id="Pixels" transform="matrix(1,0,0,1,-1085.04,2368.95)">
                <g transform="matrix(0.608724,0,0,0.608724,605.316,402.879)">
                    <rect x="1408.73" y="376.404" width="125.464" height="125.464" style="fill:none;stroke:black;stroke-width:3.29px;"/>
                </g>
                <g transform="matrix(0.608724,0,0,0.608724,605.316,173.761)">
                    <rect x="1408.73" y="376.404" width="125.464" height="125.464" style="fill:none;stroke:black;stroke-width:2.46px;"/>
                </g>
                <g transform="matrix(0.608724,0,0,0.608724,605.316,250.134)">
                    <rect x="1408.73" y="376.404" width="125.464" height="125.464" style="fill:none;stroke:black;stroke-width:2.46px;"/>
                </g>
                <g transform="matrix(0.608724,0,0,0.608724,605.316,326.506)">
                    <rect x="1408.73" y="376.404" width="125.464" height="125.464" style="fill:none;stroke:black;stroke-width:2.46px;"/>
                </g>
                <g transform="matrix(0.608724,0,0,0.608724,605.316,479.424)">
                    <rect x="1408.73" y="376.404" width="125.464" height="125.464" style="fill:none;stroke:black;stroke-width:2.46px;"/>
                </g>
                <g transform="matrix(0.608724,0,0,0.608724,758.061,173.761)">
                    <rect x="1408.73" y="376.404" width="125.464" height="125.464" style="fill:none;stroke:black;stroke-width:2.46px;"/>
                </g>
                <g transform="matrix(0.608724,0,0,0.608724,758.061,250.134)">
                    <rect x="1408.73" y="376.404" width="125.464" height="125.464" style="fill:none;stroke:black;stroke-width:2.46px;"/>
                </g>
                <g transform="matrix(0.608724,0,0,0.608724,758.061,326.506)">
                    <rect x="1408.73" y="376.404" width="125.464" height="125.464" style="fill:none;stroke:black;stroke-width:2.46px;"/>
                </g>
                <g transform="matrix(0.608724,0,0,0.608724,758.061,402.879)">
                    <rect x="1408.73" y="376.404" width="125.464" height="125.464" style="fill:none;stroke:black;stroke-width:2.46px;"/>
                </g>
                <g transform="matrix(0.608724,0,0,0.608724,758.061,479.424)">
                    <rect x="1408.73" y="376.404" width="125.464" height="125.464" style="fill:none;stroke:black;stroke-width:2.46px;"/>
                </g>
                <g transform="matrix(0.608724,0,0,0.608724,681.689,173.761)">
                    <rect x="1408.73" y="376.404" width="125.464" height="125.464" style="fill:none;stroke:black;stroke-width:2.46px;"/>
                </g>
                <g transform="matrix(0.608724,0,0,0.608724,681.689,250.134)">
                    <rect x="1408.73" y="376.404" width="125.464" height="125.464" style="fill:none;stroke:black;stroke-width:2.46px;"/>
                </g>
                <g transform="matrix(0.608724,0,0,0.608724,681.689,326.506)">
                    <rect x="1408.73" y="376.404" width="125.464" height="125.464" style="fill:none;stroke:black;stroke-width:2.46px;"/>
                </g>
                <g transform="matrix(0.608724,0,0,0.608724,681.689,402.879)">
                    <rect x="1408.73" y="376.404" width="125.464" height="125.464" style="fill:none;stroke:black;stroke-width:2.46px;"/>
                </g>
                <g transform="matrix(0.608724,0,0,0.608724,681.689,479.424)">
                    <rect x="1408.73" y="376.404" width="125.464" height="125.464" style="fill:none;stroke:black;stroke-width:2.46px;"/>
                </g>
                <g transform="matrix(0.608724,0,0,0.608724,834.434,173.761)">
                    <rect x="1408.73" y="376.404" width="125.464" height="125.464" style="fill:none;stroke:black;stroke-width:2.46px;"/>
                </g>
                <g transform="matrix(0.608724,0,0,0.608724,910.722,173.761)">
                    <rect x="1408.73" y="376.404" width="125.464" height="125.464" style="fill:none;stroke:black;stroke-width:2.46px;"/>
                </g>
                <g transform="matrix(0.608724,0,0,0.608724,834.434,250.134)">
                    <rect x="1408.73" y="376.404" width="125.464" height="125.464" style="fill:none;stroke:black;stroke-width:2.46px;"/>
                </g>
                <g transform="matrix(0.608724,0,0,0.608724,910.722,250.134)">
                    <rect x="1408.73" y="376.404" width="125.464" height="125.464" style="fill:none;stroke:black;stroke-width:2.46px;"/>
                </g>
                <g transform="matrix(0.608724,0,0,0.608724,834.434,326.506)">
                    <rect x="1408.73" y="376.404" width="125.464" height="125.464" style="fill:none;stroke:black;stroke-width:2.46px;"/>
                </g>
                <g transform="matrix(0.608724,0,0,0.608724,910.722,326.506)">
                    <rect x="1408.73" y="376.404" width="125.464" height="125.464" style="fill:none;stroke:black;stroke-width:2.46px;"/>
                </g>
                <g transform="matrix(0.608724,0,0,0.608724,834.434,402.879)">
                    <rect x="1408.73" y="376.404" width="125.464" height="125.464" style="fill:none;stroke:black;stroke-width:2.46px;"/>
                </g>
                <g transform="matrix(0.608724,0,0,0.608724,834.434,479.424)">
                    <rect x="1408.73" y="376.404" width="125.464" height="125.464" style="fill:none;stroke:black;stroke-width:2.46px;"/>
                </g>
                <g transform="matrix(0.608724,0,0,0.608724,910.722,402.879)">
                    <rect x="1408.73" y="376.404" width="125.464" height="125.464" style="fill:none;stroke:black;stroke-width:2.46px;"/>
                </g>
                <g transform="matrix(0.608724,0,0,0.608724,910.722,479.424)">
                    <rect x="1408.73" y="376.404" width="125.464" height="125.464" style="fill:none;stroke:black;stroke-width:2.46px;"/>
                </g>
            </g>
            <g transform="matrix(1,0,0,1,-1047.04,2406.4)">
                <g transform="matrix(0.608724,0,0,0.608724,605.316,173.761)">
                    <rect x="1408.73" y="376.404" width="125.464" height="125.464" style="fill:none;stroke:black;stroke-width:8.21px;"/>
                </g>
                <g transform="matrix(0.608724,0,0,0.608724,605.316,326.506)">
                    <rect x="1408.73" y="376.404" width="125.464" height="125.464" style="fill:none;stroke:black;stroke-width:8.21px;"/>
                </g>
                <g transform="matrix(0.608724,0,0,0.608724,605.316,402.879)">
                    <rect x="1408.73" y="376.404" width="125.464" height="125.464" style="fill:none;stroke:black;stroke-width:8.21px;"/>
                </g>
                <g transform="matrix(0.608724,0,0,0.608724,758.061,173.761)">
                    <rect x="1408.73" y="376.404" width="125.464" height="125.464" style="fill:none;stroke:black;stroke-width:8.21px;"/>
                </g>
                <g transform="matrix(0.608724,0,0,0.608724,758.061,250.134)">
                    <rect x="1408.73" y="376.404" width="125.464" height="125.464" style="fill:none;stroke:black;stroke-width:8.21px;"/>
                </g>
                <g transform="matrix(0.608724,0,0,0.608724,758.061,326.506)">
                    <rect x="1408.73" y="376.404" width="125.464" height="125.464" style="fill:none;stroke:black;stroke-width:8.21px;"/>
                </g>
                <g transform="matrix(0.608724,0,0,0.608724,758.061,402.879)">
                    <rect x="1408.73" y="376.404" width="125.464" height="125.464" style="fill:none;stroke:black;stroke-width:8.21px;"/>
                </g>
                <g transform="matrix(0.608724,0,0,0.608724,681.689,173.761)">
                    <rect x="1408.73" y="376.404" width="125.464" height="125.464" style="fill:none;stroke:black;stroke-width:8.21px;"/>
                </g>
                <g transform="matrix(0.608724,0,0,0.608724,681.689,250.134)">
                    <rect x="1408.73" y="376.404" width="125.464" height="125.464" style="fill:none;stroke:black;stroke-width:8.21px;"/>
                </g>
                <g transform="matrix(0.608724,0,0,0.608724,681.689,326.506)">
                    <rect x="1408.73" y="376.404" width="125.464" height="125.464" style="fill:none;stroke:black;stroke-width:8.21px;"/>
                </g>
                <g transform="matrix(0.608724,0,0,0.608724,681.689,402.879)">
                    <rect x="1408.73" y="376.404" width="125.464" height="125.464" style="fill:none;stroke:black;stroke-width:8.21px;"/>
                </g>
                <g transform="matrix(0.608724,0,0,0.608724,834.434,173.761)">
                    <rect x="1408.73" y="376.404" width="125.464" height="125.464" style="fill:none;stroke:black;stroke-width:8.21px;"/>
                </g>
                <g transform="matrix(0.608724,0,0,0.608724,834.434,250.134)">
                    <rect x="1408.73" y="376.404" width="125.464" height="125.464" style="fill:none;stroke:black;stroke-width:8.21px;"/>
                </g>
                <g transform="matrix(0.608724,0,0,0.608724,834.434,326.506)">
                    <rect x="1408.73" y="376.404" width="125.464" height="125.464" style="fill:none;stroke:black;stroke-width:8.21px;"/>
                </g>
                <g transform="matrix(0.608724,0,0,0.608724,834.434,402.879)">
                    <rect x="1408.73" y="376.404" width="125.464" height="125.464" style="fill:none;stroke:black;stroke-width:8.21px;"/>
                </g>
                <g transform="matrix(0.608724,0,0,0.608724,605.316,250.134)">
                    <rect x="1408.73" y="376.404" width="125.464" height="125.464" style="fill:none;stroke:black;stroke-width:6.57px;"/>
                </g>
            </g>
            <g transform="matrix(1,0,0,1,-1047.04,2406.4)">
                <g transform="matrix(0.583236,0,0,0.583236,986.312,142.498)">
                    <circle cx="817.043" cy="446.457" r="20.095"/>
                </g>
                <g transform="matrix(0.583236,0,0,0.583236,986.312,219.008)">
                    <circle cx="817.043" cy="446.457" r="20.095"/>
                </g>
                <g transform="matrix(0.583236,0,0,0.583236,986.312,295.289)">
                    <circle cx="817.043" cy="446.457" r="20.095"/>
                </g>
                <g transform="matrix(0.583236,0,0,0.583236,986.312,371.735)">
                    <circle cx="817.043" cy="446.457" r="20.095"/>
                </g>
                <g transform="matrix(0.583236,0,0,0.583236,986.312,448.168)">
                    <circle cx="817.043" cy="446.457" r="20.095"/>
                </g>
                <g transform="matrix(0.583236,0,0,0.583236,1062.33,142.498)">
                    <circle cx="817.043" cy="446.457" r="20.095"/>
                </g>
                <g transform="matrix(0.583236,0,0,0.583236,1062.33,219.008)">
                    <circle cx="817.043" cy="446.457" r="20.095"/>
                </g>
                <g transform="matrix(0.583236,0,0,0.583236,1062.33,295.289)">
                    <circle cx="817.043" cy="446.457" r="20.095"/>
                </g>
                <g transform="matrix(0.583236,0,0,0.583236,1062.33,371.735)">
                    <circle cx="817.043" cy="446.457" r="20.095"/>
                </g>
                <g transform="matrix(0.583236,0,0,0.583236,1062.33,448.168)">
                    <circle cx="817.043" cy="446.457" r="20.095"/>
                </g>
                <g transform="matrix(0.583236,0,0,0.583236,1138.38,142.498)">
                    <circle cx="817.043" cy="446.457" r="20.095"/>
                </g>
                <g transform="matrix(0.583236,0,0,0.583236,1138.38,219.008)">
                    <circle cx="817.043" cy="446.457" r="20.095"/>
                </g>
                <g transform="matrix(0.583236,0,0,0.583236,1138.38,295.289)">
                    <circle cx="817.043" cy="446.457" r="20.095"/>
                </g>
                <g transform="matrix(0.583236,0,0,0.583236,1138.38,371.735)">
                    <circle cx="817.043" cy="446.457" r="20.095"/>
                </g>
                <g transform="matrix(0.583236,0,0,0.583236,1138.38,448.168)">
                    <circle cx="817.043" cy="446.457" r="20.095"/>
                </g>
                <g transform="matrix(0.583236,0,0,0.583236,1215.55,142.498)">
                    <circle cx="817.043" cy="446.457" r="20.095"/>
                </g>
                <g transform="matrix(0.583236,0,0,0.583236,1215.55,219.008)">
                    <circle cx="817.043" cy="446.457" r="20.095"/>
                </g>
                <g transform="matrix(0.583236,0,0,0.583236,1215.55,295.289)">
                    <circle cx="817.043" cy="446.457" r="20.095"/>
                </g>
                <g transform="matrix(0.583236,0,0,0.583236,1215.55,371.735)">
                    <circle cx="817.043" cy="446.457" r="20.095"/>
                </g>
                <g transform="matrix(0.583236,0,0,0.583236,1215.55,448.168)">
                    <circle cx="817.043" cy="446.457" r="20.095"/>
                </g>
                <g transform="matrix(0.583236,0,0,0.583236,1292.04,142.498)">
                    <circle cx="817.043" cy="446.457" r="20.095"/>
                </g>
                <g transform="matrix(0.583236,0,0,0.583236,1292.04,219.008)">
                    <circle cx="817.043" cy="446.457" r="20.095"/>
                </g>
                <g transform="matrix(0.583236,0,0,0.583236,1292.04,295.289)">
                    <circle cx="817.043" cy="446.457" r="20.095"/>
                </g>
                <g transform="matrix(0.583236,0,0,0.583236,1292.04,371.735)">
                    <circle cx="817.043" cy="446.457" r="20.095"/>
                </g>
                <g transform="matrix(0.583236,0,0,0.583236,1292.04,448.168)">
                    <circle cx="817.043" cy="446.457" r="20.095"/>
                </g>
            </g>
            <g id="Labels">
                <g transform="matrix(1.14349,0,0,1,-38.943,121.379)">
                    <rect x="155.047" y="2908" width="162.431" height="63" style="fill:rgb(252,206,254);"/>
                </g>
                <g transform="matrix(0.966518,0,0,1,17.2428,-1.62002)">
                    <rect x="155.047" y="2908" width="162.431" height="63" style="fill:rgb(205,255,254);stroke:rgb(205,255,254);stroke-width:1.22px;stroke-miterlimit:10;"/>
                </g>
                <g transform="matrix(1,0,0,1,-1306.5,2284.53)">
                    <g transform="matrix(44,0,0,44,1532.43,537.012)">
                        <path d="M0.282,-0.331L0.308,-0.242L0.313,-0.242L0.333,-0.334L0.467,-0.7L0.552,-0.7L0.375,-0.245C0.357,-0.198 0.341,-0.158 0.328,-0.127C0.314,-0.095 0.3,-0.069 0.286,-0.05C0.272,-0.03 0.257,-0.016 0.241,-0.008C0.225,0.001 0.205,0.005 0.182,0.005C0.16,0.005 0.142,0.003 0.13,-0.001C0.117,-0.004 0.104,-0.01 0.093,-0.017L0.118,-0.086C0.131,-0.079 0.144,-0.074 0.155,-0.072C0.166,-0.07 0.177,-0.069 0.186,-0.069C0.205,-0.069 0.22,-0.079 0.233,-0.098C0.246,-0.117 0.257,-0.145 0.266,-0.182L0.007,-0.7L0.103,-0.7L0.282,-0.331Z" style="fill-rule:nonzero;"/>
                    </g>
                    <g transform="matrix(44,0,0,44,1554.48,537.012)">
                        <path d="M0.125,-0.223L0.125,-0.288L0.195,-0.288C0.207,-0.288 0.219,-0.29 0.231,-0.294C0.242,-0.298 0.253,-0.304 0.262,-0.311C0.271,-0.318 0.279,-0.326 0.285,-0.336C0.29,-0.345 0.293,-0.355 0.293,-0.366C0.293,-0.392 0.284,-0.41 0.266,-0.421C0.248,-0.432 0.221,-0.437 0.185,-0.437C0.159,-0.437 0.135,-0.433 0.114,-0.425C0.092,-0.417 0.075,-0.409 0.063,-0.402L0.04,-0.464C0.06,-0.475 0.084,-0.485 0.111,-0.494C0.137,-0.503 0.17,-0.507 0.207,-0.507C0.318,-0.507 0.373,-0.466 0.373,-0.384C0.373,-0.361 0.366,-0.338 0.351,-0.316C0.335,-0.293 0.314,-0.277 0.286,-0.268L0.286,-0.264C0.325,-0.257 0.353,-0.243 0.369,-0.222C0.384,-0.201 0.392,-0.174 0.392,-0.14C0.392,-0.119 0.388,-0.099 0.379,-0.081C0.37,-0.063 0.357,-0.047 0.34,-0.034C0.323,-0.021 0.301,-0.01 0.275,-0.003C0.248,0.005 0.218,0.009 0.183,0.009C0.149,0.009 0.121,0.006 0.099,-0C0.076,-0.006 0.056,-0.013 0.038,-0.022L0.061,-0.088C0.076,-0.079 0.095,-0.073 0.117,-0.068C0.138,-0.063 0.162,-0.061 0.187,-0.061C0.228,-0.061 0.259,-0.068 0.28,-0.082C0.301,-0.096 0.312,-0.117 0.312,-0.146C0.312,-0.17 0.302,-0.189 0.282,-0.203C0.262,-0.216 0.229,-0.223 0.183,-0.223L0.125,-0.223Z" style="fill-rule:nonzero;"/>
                    </g>
                    <g transform="matrix(44,0,0,44,1573.88,537.012)">
                        <path d="M0.442,-0.04C0.422,-0.024 0.397,-0.011 0.367,-0.002C0.336,0.007 0.304,0.012 0.27,0.012C0.232,0.012 0.199,0.006 0.171,-0.007C0.143,-0.019 0.12,-0.037 0.102,-0.06C0.084,-0.083 0.071,-0.11 0.062,-0.142C0.053,-0.174 0.049,-0.21 0.049,-0.25C0.049,-0.335 0.068,-0.4 0.106,-0.445C0.144,-0.49 0.198,-0.512 0.269,-0.512C0.292,-0.512 0.314,-0.51 0.337,-0.505C0.36,-0.5 0.38,-0.49 0.398,-0.476C0.416,-0.462 0.431,-0.442 0.442,-0.417C0.453,-0.391 0.459,-0.357 0.459,-0.315C0.459,-0.293 0.457,-0.269 0.453,-0.242L0.132,-0.242C0.132,-0.213 0.135,-0.187 0.141,-0.164C0.147,-0.141 0.156,-0.122 0.169,-0.107C0.182,-0.091 0.198,-0.079 0.219,-0.071C0.239,-0.062 0.264,-0.058 0.293,-0.058C0.316,-0.058 0.338,-0.062 0.361,-0.07C0.384,-0.078 0.401,-0.087 0.412,-0.098L0.442,-0.04ZM0.27,-0.442C0.231,-0.442 0.199,-0.432 0.176,-0.411C0.152,-0.39 0.138,-0.355 0.133,-0.305L0.381,-0.305C0.381,-0.356 0.371,-0.391 0.352,-0.412C0.333,-0.432 0.305,-0.442 0.27,-0.442Z" style="fill-rule:nonzero;"/>
                    </g>
                    <g transform="matrix(44,0,0,44,1596.23,537.012)">
                        <path d="M0.346,-0.43L0.201,-0.43C0.199,-0.402 0.197,-0.372 0.195,-0.34C0.193,-0.307 0.19,-0.275 0.186,-0.243C0.182,-0.21 0.177,-0.179 0.17,-0.15C0.163,-0.12 0.155,-0.094 0.145,-0.071C0.134,-0.048 0.122,-0.03 0.107,-0.017C0.092,-0.003 0.074,0.004 0.053,0.004C0.04,0.004 0.029,0.003 0.02,0.002C0.011,0.001 0.002,-0.002 -0.005,-0.005L0.007,-0.072C0.015,-0.069 0.024,-0.068 0.033,-0.068C0.046,-0.068 0.058,-0.074 0.069,-0.085C0.08,-0.096 0.089,-0.118 0.097,-0.15C0.105,-0.181 0.112,-0.225 0.117,-0.281C0.122,-0.337 0.126,-0.41 0.128,-0.5L0.426,-0.5L0.426,-0L0.346,-0L0.346,-0.43Z" style="fill-rule:nonzero;"/>
                    </g>
                </g>
                <g transform="matrix(0.669887,0,0,1,-785.656,2382.4)">
                    <g transform="matrix(1.49279,-0,-0,1,1369.87,312.294)">
                        <path d="M254.082,123.594L272.082,114.594L254.082,105.594L254.082,123.594Z"/>
                        <path d="M257.682,114.594L206.091,114.594" style="fill:none;stroke:black;stroke-width:4px;stroke-linecap:butt;stroke-dasharray:4,4;"/>
                    </g>
                </g>
                <g transform="matrix(0.879135,0,0,1,-772.077,2324.01)">
                    <g transform="matrix(1.13748,-0,-0,1,1028.37,370.681)">
                        <path d="M555.414,96.533L564.291,114.594L573.413,96.655L555.414,96.533Z"/>
                        <path d="M564.389,100.194C564.507,82.905 564.688,56.206 564.688,56.206" style="fill:none;stroke:black;stroke-width:4px;stroke-linecap:butt;stroke-dasharray:4,4;"/>
                    </g>
                </g>
                <g transform="matrix(1,0,0,1,-1282.21,2413.47)">
                    <g transform="matrix(44,0,0,44,1456.49,537.012)">
                        <path d="M0.484,-0L0.401,-0L0.401,-0.305L0.298,-0.283L0.124,-0L0.026,-0L0.182,-0.249L0.243,-0.292C0.219,-0.297 0.197,-0.306 0.177,-0.317C0.156,-0.328 0.138,-0.341 0.124,-0.359C0.109,-0.376 0.097,-0.395 0.089,-0.418C0.08,-0.441 0.076,-0.467 0.076,-0.496C0.076,-0.537 0.083,-0.571 0.097,-0.598C0.11,-0.624 0.129,-0.646 0.153,-0.663C0.176,-0.679 0.204,-0.691 0.236,-0.698C0.267,-0.705 0.301,-0.708 0.336,-0.708C0.359,-0.708 0.383,-0.707 0.409,-0.705C0.434,-0.703 0.459,-0.699 0.484,-0.693L0.484,-0ZM0.332,-0.636C0.31,-0.636 0.289,-0.634 0.269,-0.63C0.249,-0.625 0.231,-0.618 0.216,-0.607C0.2,-0.596 0.187,-0.582 0.178,-0.564C0.169,-0.546 0.164,-0.523 0.164,-0.496C0.164,-0.471 0.169,-0.449 0.178,-0.431C0.187,-0.413 0.199,-0.398 0.214,-0.387C0.229,-0.375 0.247,-0.366 0.268,-0.361C0.288,-0.356 0.31,-0.353 0.333,-0.353L0.401,-0.353L0.401,-0.63C0.392,-0.632 0.382,-0.634 0.372,-0.635C0.362,-0.636 0.349,-0.636 0.332,-0.636Z" style="fill-rule:nonzero;"/>
                    </g>
                    <g transform="matrix(44,0,0,44,1481.53,537.012)">
                        <path d="M0.129,-0.5L0.129,-0.364C0.129,-0.346 0.13,-0.33 0.132,-0.316C0.134,-0.301 0.138,-0.289 0.144,-0.279C0.15,-0.268 0.159,-0.26 0.17,-0.255C0.181,-0.249 0.196,-0.246 0.215,-0.246C0.245,-0.246 0.27,-0.249 0.289,-0.256C0.308,-0.263 0.323,-0.27 0.333,-0.278L0.333,-0.5L0.413,-0.5L0.413,-0L0.333,-0L0.333,-0.21C0.322,-0.203 0.307,-0.196 0.286,-0.188C0.265,-0.18 0.236,-0.176 0.199,-0.176C0.174,-0.176 0.153,-0.179 0.134,-0.184C0.115,-0.189 0.1,-0.199 0.087,-0.212C0.074,-0.225 0.065,-0.243 0.059,-0.265C0.052,-0.287 0.049,-0.315 0.049,-0.348L0.049,-0.5L0.129,-0.5Z" style="fill-rule:nonzero;"/>
                    </g>
                    <g transform="matrix(44,0,0,44,1503.09,537.012)">
                        <path d="M0.442,-0.04C0.422,-0.024 0.397,-0.011 0.367,-0.002C0.336,0.007 0.304,0.012 0.27,0.012C0.232,0.012 0.199,0.006 0.171,-0.007C0.143,-0.019 0.12,-0.037 0.102,-0.06C0.084,-0.083 0.071,-0.11 0.062,-0.142C0.053,-0.174 0.049,-0.21 0.049,-0.25C0.049,-0.335 0.068,-0.4 0.106,-0.445C0.144,-0.49 0.198,-0.512 0.269,-0.512C0.292,-0.512 0.314,-0.51 0.337,-0.505C0.36,-0.5 0.38,-0.49 0.398,-0.476C0.416,-0.462 0.431,-0.442 0.442,-0.417C0.453,-0.391 0.459,-0.357 0.459,-0.315C0.459,-0.293 0.457,-0.269 0.453,-0.242L0.132,-0.242C0.132,-0.213 0.135,-0.187 0.141,-0.164C0.147,-0.141 0.156,-0.122 0.169,-0.107C0.182,-0.091 0.198,-0.079 0.219,-0.071C0.239,-0.062 0.264,-0.058 0.293,-0.058C0.316,-0.058 0.338,-0.062 0.361,-0.07C0.384,-0.078 0.401,-0.087 0.412,-0.098L0.442,-0.04ZM0.27,-0.442C0.231,-0.442 0.199,-0.432 0.176,-0.411C0.152,-0.39 0.138,-0.355 0.133,-0.305L0.381,-0.305C0.381,-0.356 0.371,-0.391 0.352,-0.412C0.333,-0.432 0.305,-0.442 0.27,-0.442Z" style="fill-rule:nonzero;"/>
                    </g>
                    <g transform="matrix(44,0,0,44,1525.44,537.012)">
                        <path d="M0.389,-0.296L0.392,-0.358L0.389,-0.358L0.348,-0.294L0.123,-0L0.077,-0L0.077,-0.5L0.157,-0.5L0.157,-0.195L0.154,-0.136L0.158,-0.136L0.197,-0.198L0.422,-0.5L0.469,-0.5L0.469,-0L0.389,-0L0.389,-0.296ZM0.192,-0.702C0.199,-0.671 0.21,-0.65 0.227,-0.638C0.243,-0.626 0.262,-0.62 0.283,-0.62C0.304,-0.62 0.323,-0.626 0.34,-0.639C0.357,-0.652 0.368,-0.672 0.374,-0.701L0.434,-0.682C0.428,-0.643 0.411,-0.614 0.383,-0.593C0.354,-0.572 0.32,-0.562 0.281,-0.562C0.263,-0.562 0.245,-0.564 0.228,-0.569C0.21,-0.574 0.194,-0.581 0.18,-0.59C0.166,-0.599 0.154,-0.611 0.144,-0.626C0.134,-0.641 0.127,-0.658 0.124,-0.678L0.192,-0.702Z" style="fill-rule:nonzero;"/>
                    </g>
                    <g transform="matrix(44,0,0,44,1549.46,537.012)">
                        <path d="M0.203,-0.225L0.157,-0.225L0.157,-0L0.077,-0L0.077,-0.5L0.157,-0.5L0.157,-0.274L0.2,-0.288L0.36,-0.5L0.447,-0.5L0.292,-0.299L0.25,-0.266L0.302,-0.226L0.469,-0L0.37,-0L0.203,-0.225Z" style="fill-rule:nonzero;"/>
                    </g>
                    <g transform="matrix(44,0,0,44,1570.49,537.012)">
                        <path d="M0.069,-0.463C0.094,-0.478 0.124,-0.49 0.158,-0.497C0.191,-0.504 0.226,-0.508 0.263,-0.508C0.298,-0.508 0.326,-0.503 0.347,-0.494C0.368,-0.485 0.384,-0.472 0.395,-0.458C0.406,-0.443 0.413,-0.426 0.417,-0.408C0.42,-0.39 0.422,-0.372 0.422,-0.354C0.422,-0.314 0.421,-0.275 0.419,-0.237C0.417,-0.199 0.416,-0.163 0.416,-0.129C0.416,-0.104 0.417,-0.081 0.419,-0.059C0.421,-0.037 0.425,-0.017 0.43,0.002L0.371,0.002L0.35,-0.068L0.345,-0.068C0.339,-0.059 0.332,-0.049 0.323,-0.041C0.314,-0.032 0.303,-0.024 0.29,-0.017C0.277,-0.01 0.263,-0.004 0.246,0.001C0.229,0.006 0.21,0.008 0.189,0.008C0.168,0.008 0.148,0.005 0.13,-0.002C0.111,-0.009 0.095,-0.018 0.082,-0.031C0.069,-0.043 0.058,-0.058 0.051,-0.075C0.043,-0.092 0.039,-0.112 0.039,-0.134C0.039,-0.163 0.045,-0.188 0.057,-0.208C0.069,-0.227 0.086,-0.243 0.108,-0.255C0.129,-0.266 0.155,-0.275 0.186,-0.28C0.216,-0.285 0.249,-0.287 0.286,-0.287L0.314,-0.287C0.323,-0.287 0.332,-0.286 0.341,-0.285C0.343,-0.305 0.344,-0.323 0.344,-0.339C0.344,-0.376 0.337,-0.401 0.322,-0.416C0.307,-0.431 0.281,-0.438 0.242,-0.438C0.231,-0.438 0.219,-0.437 0.206,-0.436C0.193,-0.434 0.179,-0.432 0.166,-0.429C0.152,-0.426 0.139,-0.422 0.127,-0.418C0.114,-0.413 0.103,-0.408 0.094,-0.403L0.069,-0.463ZM0.211,-0.062C0.23,-0.062 0.246,-0.065 0.261,-0.07C0.276,-0.075 0.288,-0.081 0.299,-0.089C0.31,-0.096 0.319,-0.105 0.326,-0.114C0.333,-0.123 0.338,-0.132 0.341,-0.141L0.341,-0.224C0.332,-0.225 0.322,-0.225 0.313,-0.226C0.303,-0.226 0.293,-0.226 0.284,-0.226C0.263,-0.226 0.243,-0.225 0.224,-0.223C0.204,-0.22 0.187,-0.216 0.172,-0.21C0.157,-0.203 0.145,-0.195 0.136,-0.184C0.127,-0.173 0.122,-0.159 0.122,-0.142C0.122,-0.119 0.13,-0.099 0.147,-0.085C0.164,-0.07 0.185,-0.062 0.211,-0.062Z" style="fill-rule:nonzero;"/>
                    </g>
                </g>
                <g transform="matrix(1,0,0,1,-1303.29,2537.87)">
                    <g transform="matrix(44,0,0,44,1454.6,537.012)">
                        <path d="M0.491,-0.626L0.168,-0.626L0.168,-0L0.085,-0L0.085,-0.7L0.574,-0.7L0.574,-0L0.491,-0L0.491,-0.626Z" style="fill-rule:nonzero;"/>
                    </g>
                    <g transform="matrix(44,0,0,44,1483.59,537.012)">
                        <path d="M0.389,-0.296L0.392,-0.358L0.389,-0.358L0.348,-0.294L0.123,-0L0.077,-0L0.077,-0.5L0.157,-0.5L0.157,-0.195L0.154,-0.136L0.158,-0.136L0.197,-0.198L0.422,-0.5L0.469,-0.5L0.469,-0L0.389,-0L0.389,-0.296Z" style="fill-rule:nonzero;"/>
                    </g>
                    <g transform="matrix(44,0,0,44,1507.62,537.012)">
                        <path d="M0.203,-0.225L0.157,-0.225L0.157,-0L0.077,-0L0.077,-0.5L0.157,-0.5L0.157,-0.274L0.2,-0.288L0.36,-0.5L0.447,-0.5L0.292,-0.299L0.25,-0.266L0.302,-0.226L0.469,-0L0.37,-0L0.203,-0.225Z" style="fill-rule:nonzero;"/>
                    </g>
                    <g transform="matrix(44,0,0,44,1528.65,537.012)">
                        <path d="M0.418,-0.033C0.398,-0.018 0.374,-0.007 0.347,0.001C0.32,0.008 0.291,0.012 0.261,0.012C0.222,0.012 0.19,0.006 0.163,-0.007C0.136,-0.019 0.115,-0.037 0.098,-0.06C0.081,-0.083 0.068,-0.11 0.061,-0.143C0.053,-0.175 0.049,-0.211 0.049,-0.25C0.049,-0.335 0.068,-0.4 0.105,-0.445C0.142,-0.49 0.196,-0.512 0.266,-0.512C0.298,-0.512 0.325,-0.51 0.348,-0.505C0.37,-0.5 0.39,-0.492 0.408,-0.483L0.385,-0.414C0.37,-0.423 0.353,-0.43 0.334,-0.435C0.315,-0.44 0.295,-0.442 0.274,-0.442C0.179,-0.442 0.132,-0.378 0.132,-0.25C0.132,-0.225 0.135,-0.2 0.14,-0.178C0.145,-0.155 0.153,-0.134 0.165,-0.117C0.176,-0.099 0.192,-0.085 0.211,-0.074C0.23,-0.063 0.253,-0.058 0.281,-0.058C0.305,-0.058 0.327,-0.062 0.346,-0.069C0.365,-0.076 0.38,-0.085 0.392,-0.094L0.418,-0.033Z" style="fill-rule:nonzero;"/>
                    </g>
                    <g transform="matrix(44,0,0,44,1548.49,537.012)">
                        <path d="M0.442,-0.04C0.422,-0.024 0.397,-0.011 0.367,-0.002C0.336,0.007 0.304,0.012 0.27,0.012C0.232,0.012 0.199,0.006 0.171,-0.007C0.143,-0.019 0.12,-0.037 0.102,-0.06C0.084,-0.083 0.071,-0.11 0.062,-0.142C0.053,-0.174 0.049,-0.21 0.049,-0.25C0.049,-0.335 0.068,-0.4 0.106,-0.445C0.144,-0.49 0.198,-0.512 0.269,-0.512C0.292,-0.512 0.314,-0.51 0.337,-0.505C0.36,-0.5 0.38,-0.49 0.398,-0.476C0.416,-0.462 0.431,-0.442 0.442,-0.417C0.453,-0.391 0.459,-0.357 0.459,-0.315C0.459,-0.293 0.457,-0.269 0.453,-0.242L0.132,-0.242C0.132,-0.213 0.135,-0.187 0.141,-0.164C0.147,-0.141 0.156,-0.122 0.169,-0.107C0.182,-0.091 0.198,-0.079 0.219,-0.071C0.239,-0.062 0.264,-0.058 0.293,-0.058C0.316,-0.058 0.338,-0.062 0.361,-0.07C0.384,-0.078 0.401,-0.087 0.412,-0.098L0.442,-0.04ZM0.27,-0.442C0.231,-0.442 0.199,-0.432 0.176,-0.411C0.152,-0.39 0.138,-0.355 0.133,-0.305L0.381,-0.305C0.381,-0.356 0.371,-0.391 0.352,-0.412C0.333,-0.432 0.305,-0.442 0.27,-0.442Z" style="fill-rule:nonzero;"/>
                    </g>
                    <g transform="matrix(44,0,0,44,1570.85,537.012)">
                        <path d="M0.346,-0.43L0.201,-0.43C0.199,-0.402 0.197,-0.372 0.195,-0.34C0.193,-0.307 0.19,-0.275 0.186,-0.243C0.182,-0.21 0.177,-0.179 0.17,-0.15C0.163,-0.12 0.155,-0.094 0.145,-0.071C0.134,-0.048 0.122,-0.03 0.107,-0.017C0.092,-0.003 0.074,0.004 0.053,0.004C0.04,0.004 0.029,0.003 0.02,0.002C0.011,0.001 0.002,-0.002 -0.005,-0.005L0.007,-0.072C0.015,-0.069 0.024,-0.068 0.033,-0.068C0.046,-0.068 0.058,-0.074 0.069,-0.085C0.08,-0.096 0.089,-0.118 0.097,-0.15C0.105,-0.181 0.112,-0.225 0.117,-0.281C0.122,-0.337 0.126,-0.41 0.128,-0.5L0.426,-0.5L0.426,-0L0.346,-0L0.346,-0.43Z" style="fill-rule:nonzero;"/>
                    </g>
                    <g transform="matrix(44,0,0,44,1592.98,537.012)">
                        <path d="M0.157,-0.07C0.182,-0.066 0.205,-0.064 0.228,-0.064C0.27,-0.064 0.301,-0.072 0.321,-0.089C0.341,-0.105 0.351,-0.128 0.351,-0.158C0.351,-0.185 0.341,-0.207 0.322,-0.224C0.303,-0.241 0.272,-0.25 0.231,-0.25C0.22,-0.25 0.207,-0.25 0.194,-0.249C0.181,-0.248 0.168,-0.246 0.157,-0.243L0.157,-0.07ZM0.157,-0.309C0.173,-0.312 0.188,-0.314 0.203,-0.315C0.218,-0.316 0.232,-0.316 0.245,-0.316C0.28,-0.316 0.309,-0.312 0.333,-0.305C0.357,-0.297 0.377,-0.286 0.392,-0.273C0.407,-0.26 0.417,-0.244 0.424,-0.226C0.431,-0.207 0.434,-0.188 0.434,-0.167C0.434,-0.106 0.416,-0.062 0.38,-0.035C0.343,-0.008 0.287,0.006 0.21,0.006C0.167,0.006 0.123,0.004 0.077,-0L0.077,-0.5L0.157,-0.5L0.157,-0.309Z" style="fill-rule:nonzero;"/>
                    </g>
                </g>
                <g transform="matrix(1,0,0,1,-859.571,2193.85)">
                    <g transform="matrix(44,0,0,44,1494.46,537.012)">
                        <path d="M0.085,-0.693C0.11,-0.699 0.138,-0.703 0.167,-0.705C0.196,-0.707 0.225,-0.708 0.254,-0.708C0.285,-0.708 0.316,-0.705 0.348,-0.699C0.379,-0.693 0.408,-0.682 0.434,-0.666C0.46,-0.65 0.481,-0.628 0.498,-0.6C0.514,-0.572 0.522,-0.536 0.522,-0.493C0.522,-0.45 0.514,-0.414 0.499,-0.385C0.484,-0.356 0.463,-0.332 0.438,-0.314C0.413,-0.295 0.384,-0.282 0.351,-0.274C0.318,-0.266 0.285,-0.262 0.25,-0.262L0.234,-0.262C0.226,-0.262 0.218,-0.262 0.21,-0.263C0.201,-0.263 0.193,-0.263 0.185,-0.264C0.177,-0.265 0.171,-0.265 0.168,-0.266L0.168,-0L0.085,-0L0.085,-0.693ZM0.256,-0.636C0.239,-0.636 0.222,-0.636 0.206,-0.635C0.19,-0.634 0.177,-0.633 0.168,-0.63L0.168,-0.34C0.171,-0.339 0.177,-0.338 0.184,-0.338C0.191,-0.337 0.199,-0.337 0.207,-0.337C0.215,-0.336 0.223,-0.336 0.23,-0.336L0.246,-0.336C0.269,-0.336 0.291,-0.338 0.314,-0.343C0.336,-0.347 0.356,-0.355 0.374,-0.366C0.392,-0.377 0.407,-0.393 0.418,-0.414C0.428,-0.435 0.434,-0.461 0.434,-0.493C0.434,-0.52 0.429,-0.543 0.419,-0.562C0.408,-0.58 0.395,-0.595 0.378,-0.606C0.361,-0.616 0.341,-0.624 0.32,-0.629C0.299,-0.634 0.277,-0.636 0.256,-0.636Z" style="fill-rule:nonzero;"/>
                    </g>
                    <g transform="matrix(44,0,0,44,1519.06,537.012)">
                        <path d="M0.442,-0.04C0.422,-0.024 0.397,-0.011 0.367,-0.002C0.336,0.007 0.304,0.012 0.27,0.012C0.232,0.012 0.199,0.006 0.171,-0.007C0.143,-0.019 0.12,-0.037 0.102,-0.06C0.084,-0.083 0.071,-0.11 0.062,-0.142C0.053,-0.174 0.049,-0.21 0.049,-0.25C0.049,-0.335 0.068,-0.4 0.106,-0.445C0.144,-0.49 0.198,-0.512 0.269,-0.512C0.292,-0.512 0.314,-0.51 0.337,-0.505C0.36,-0.5 0.38,-0.49 0.398,-0.476C0.416,-0.462 0.431,-0.442 0.442,-0.417C0.453,-0.391 0.459,-0.357 0.459,-0.315C0.459,-0.293 0.457,-0.269 0.453,-0.242L0.132,-0.242C0.132,-0.213 0.135,-0.187 0.141,-0.164C0.147,-0.141 0.156,-0.122 0.169,-0.107C0.182,-0.091 0.198,-0.079 0.219,-0.071C0.239,-0.062 0.264,-0.058 0.293,-0.058C0.316,-0.058 0.338,-0.062 0.361,-0.07C0.384,-0.078 0.401,-0.087 0.412,-0.098L0.442,-0.04ZM0.27,-0.442C0.231,-0.442 0.199,-0.432 0.176,-0.411C0.152,-0.39 0.138,-0.355 0.133,-0.305L0.381,-0.305C0.381,-0.356 0.371,-0.391 0.352,-0.412C0.333,-0.432 0.305,-0.442 0.27,-0.442Z" style="fill-rule:nonzero;"/>
                    </g>
                    <g transform="matrix(44,0,0,44,1541.41,537.012)">
                        <path d="M0.123,-0.411C0.145,-0.443 0.169,-0.466 0.196,-0.479C0.223,-0.492 0.256,-0.498 0.296,-0.498C0.357,-0.498 0.405,-0.478 0.438,-0.438C0.47,-0.398 0.487,-0.339 0.487,-0.261C0.487,-0.171 0.468,-0.103 0.43,-0.057C0.391,-0.011 0.338,0.012 0.269,0.012C0.196,0.012 0.141,-0.013 0.104,-0.064C0.067,-0.115 0.049,-0.194 0.049,-0.303C0.049,-0.36 0.052,-0.409 0.058,-0.45C0.063,-0.491 0.072,-0.525 0.083,-0.553C0.094,-0.581 0.107,-0.603 0.123,-0.62C0.138,-0.637 0.156,-0.65 0.176,-0.66C0.195,-0.669 0.217,-0.676 0.24,-0.68C0.263,-0.684 0.288,-0.687 0.315,-0.69C0.35,-0.693 0.377,-0.697 0.397,-0.702C0.416,-0.706 0.432,-0.714 0.444,-0.725L0.453,-0.653C0.446,-0.647 0.439,-0.642 0.431,-0.638C0.423,-0.634 0.413,-0.631 0.402,-0.628C0.391,-0.625 0.377,-0.623 0.362,-0.621C0.346,-0.619 0.328,-0.617 0.307,-0.616C0.278,-0.614 0.253,-0.611 0.232,-0.606C0.21,-0.6 0.191,-0.591 0.176,-0.577C0.16,-0.562 0.148,-0.542 0.139,-0.516C0.13,-0.489 0.123,-0.454 0.12,-0.411L0.123,-0.411ZM0.132,-0.249C0.132,-0.224 0.135,-0.199 0.14,-0.176C0.145,-0.153 0.154,-0.132 0.165,-0.115C0.175,-0.097 0.19,-0.083 0.207,-0.073C0.224,-0.063 0.245,-0.058 0.268,-0.058C0.314,-0.058 0.348,-0.075 0.371,-0.108C0.393,-0.14 0.404,-0.189 0.404,-0.254C0.404,-0.279 0.402,-0.303 0.397,-0.324C0.392,-0.345 0.385,-0.364 0.375,-0.38C0.365,-0.395 0.352,-0.407 0.337,-0.416C0.322,-0.424 0.303,-0.428 0.282,-0.428C0.23,-0.429 0.192,-0.413 0.168,-0.383C0.144,-0.352 0.132,-0.307 0.132,-0.249Z" style="fill-rule:nonzero;"/>
                    </g>
                    <g transform="matrix(44,0,0,44,1564.99,537.012)">
                        <path d="M0.077,-0.5L0.132,-0.5L0.147,-0.44L0.151,-0.44C0.166,-0.463 0.186,-0.481 0.211,-0.494C0.235,-0.506 0.263,-0.512 0.294,-0.512C0.361,-0.512 0.41,-0.492 0.443,-0.453C0.476,-0.414 0.492,-0.349 0.492,-0.26C0.492,-0.218 0.487,-0.18 0.476,-0.147C0.464,-0.113 0.449,-0.084 0.429,-0.061C0.409,-0.038 0.385,-0.02 0.357,-0.007C0.328,0.006 0.297,0.012 0.262,0.012C0.237,0.012 0.218,0.011 0.204,0.008C0.189,0.005 0.174,-0.001 0.157,-0.008L0.157,0.2L0.077,0.2L0.077,-0.5ZM0.279,-0.442C0.245,-0.442 0.218,-0.433 0.199,-0.416C0.179,-0.398 0.165,-0.371 0.157,-0.335L0.157,-0.087C0.169,-0.078 0.183,-0.07 0.198,-0.066C0.213,-0.061 0.234,-0.058 0.259,-0.058C0.305,-0.058 0.341,-0.075 0.369,-0.11C0.396,-0.144 0.409,-0.194 0.409,-0.261C0.409,-0.288 0.407,-0.313 0.402,-0.336C0.397,-0.358 0.39,-0.377 0.38,-0.393C0.369,-0.408 0.356,-0.42 0.34,-0.429C0.323,-0.438 0.303,-0.442 0.279,-0.442Z" style="fill-rule:nonzero;"/>
                    </g>
                    <g transform="matrix(44,0,0,44,1588.8,537.012)">
                        <path d="M0.049,-0.25C0.049,-0.335 0.068,-0.4 0.106,-0.445C0.143,-0.49 0.197,-0.512 0.268,-0.512C0.305,-0.512 0.338,-0.506 0.366,-0.494C0.393,-0.481 0.416,-0.464 0.434,-0.441C0.452,-0.418 0.465,-0.39 0.474,-0.358C0.483,-0.325 0.487,-0.289 0.487,-0.25C0.487,-0.165 0.468,-0.1 0.431,-0.056C0.393,-0.011 0.339,0.012 0.268,0.012C0.231,0.012 0.198,0.006 0.171,-0.007C0.143,-0.019 0.12,-0.037 0.102,-0.06C0.084,-0.083 0.071,-0.11 0.062,-0.143C0.053,-0.175 0.049,-0.211 0.049,-0.25ZM0.132,-0.25C0.132,-0.225 0.135,-0.2 0.14,-0.177C0.145,-0.154 0.152,-0.133 0.163,-0.116C0.174,-0.099 0.188,-0.085 0.205,-0.074C0.222,-0.063 0.243,-0.058 0.268,-0.058C0.359,-0.057 0.404,-0.121 0.404,-0.25C0.404,-0.276 0.402,-0.301 0.397,-0.324C0.392,-0.347 0.384,-0.368 0.373,-0.385C0.362,-0.402 0.348,-0.416 0.331,-0.427C0.314,-0.437 0.293,-0.442 0.268,-0.442C0.177,-0.443 0.132,-0.379 0.132,-0.25Z" style="fill-rule:nonzero;"/>
                    </g>
                </g>
                <g transform="matrix(1.00625,0,0,1,-1349.91,2390.4)">
                    <g transform="matrix(0.993791,-0,-0,1,1472.71,304.294)">
                        <path d="M250.417,357.185L268.417,366.185L250.417,375.185L250.417,357.185Z"/>
                        <path d="M206.091,366.185L254.017,366.185" style="fill:none;stroke:black;stroke-width:4px;stroke-linecap:butt;stroke-dasharray:4,4;"/>
                    </g>
                </g>
                <g transform="matrix(1.08514,0,0,1,-1482.25,2379.4)">
                    <g transform="matrix(0.921542,-0,-0,1,1487.6,315.294)">
                        <path d="M294.988,234.342L312.988,243.342L294.988,252.342L294.988,234.342Z"/>
                        <path d="M206.091,243.342L298.588,243.342" style="fill:none;stroke:black;stroke-width:4px;stroke-linecap:butt;stroke-dasharray:4,4;"/>
                    </g>
                </g>
            </g>
        </g>
    </g>
</svg>
