<?xml version="1.0" encoding="UTF-8" standalone="no"?>
<!DOCTYPE svg PUBLIC "-//W3C//DTD SVG 1.1//EN" "http://www.w3.org/Graphics/SVG/1.1/DTD/svg11.dtd">
<svg width="100%" height="100%" viewBox="0 0 1398 605" version="1.1" xmlns="http://www.w3.org/2000/svg" xmlns:xlink="http://www.w3.org/1999/xlink" xml:space="preserve" xmlns:serif="http://www.serif.com/" style="fill-rule:evenodd;clip-rule:evenodd;stroke-linejoin:round;stroke-miterlimit:10;">
    <rect id="Spatial-Databases-2" serif:id="Spatial Databases 2" x="-246.911" y="-4959" width="3858" height="5937" style="fill:none;"/>
    <path d="M3.799,279.055L3.799,277.315L32.059,260.095L34.339,263.815L10.519,277.915L34.399,291.775L32.119,295.375L3.799,279.055Z" style="fill:rgb(0,204,0);fill-rule:nonzero;"/>
    <path d="M63.379,289.255C63.379,287.975 62.879,286.985 61.879,286.285C60.879,285.585 59.639,285.025 58.159,284.605C56.679,284.185 55.069,283.795 53.329,283.435C51.589,283.075 49.979,282.595 48.499,281.995C47.019,281.395 45.779,280.585 44.779,279.565C43.779,278.545 43.279,277.115 43.279,275.275C43.279,273.755 43.609,272.455 44.269,271.375C44.929,270.295 45.799,269.405 46.879,268.705C47.959,268.005 49.219,267.485 50.659,267.145C52.099,266.805 53.599,266.635 55.159,266.635C57.959,266.635 60.369,266.985 62.389,267.685C64.409,268.385 66.019,269.115 67.219,269.875L65.299,273.655C63.979,272.935 62.549,272.245 61.009,271.585C59.469,270.925 57.539,270.595 55.219,270.595C54.339,270.595 53.469,270.685 52.609,270.865C51.749,271.045 50.969,271.315 50.269,271.675C49.569,272.035 49.009,272.505 48.589,273.085C48.169,273.665 47.959,274.375 47.959,275.215C47.959,276.255 48.459,277.055 49.459,277.615C50.459,278.175 51.699,278.645 53.179,279.025C54.659,279.405 56.269,279.765 58.009,280.105C59.749,280.445 61.359,280.935 62.839,281.575C64.319,282.215 65.559,283.075 66.559,284.155C67.559,285.235 68.059,286.695 68.059,288.535C68.059,291.295 66.969,293.575 64.789,295.375C62.609,297.175 59.339,298.075 54.979,298.075C53.659,298.075 52.359,297.955 51.079,297.715C49.799,297.475 48.599,297.155 47.479,296.755C46.359,296.355 45.339,295.905 44.419,295.405C43.499,294.905 42.739,294.395 42.139,293.875L44.539,289.975C45.019,290.455 45.659,290.945 46.459,291.445C47.259,291.945 48.139,292.395 49.099,292.795C50.059,293.195 51.089,293.515 52.189,293.755C53.289,293.995 54.399,294.115 55.519,294.115C56.599,294.115 57.609,294.025 58.549,293.845C59.489,293.665 60.319,293.385 61.039,293.005C61.759,292.625 62.329,292.125 62.749,291.505C63.169,290.885 63.379,290.135 63.379,289.255Z" style="fill:rgb(0,204,0);fill-rule:nonzero;"/>
    <path d="M79.399,297.355L79.399,293.335L89.839,293.335L89.839,271.375L79.399,271.375L79.399,267.355L94.639,267.355L94.639,293.335L104.839,293.335L104.839,297.355L79.399,297.355ZM88.219,258.835C88.219,257.755 88.579,256.825 89.299,256.045C90.019,255.265 90.939,254.875 92.059,254.875C93.219,254.875 94.189,255.265 94.969,256.045C95.749,256.825 96.139,257.755 96.139,258.835C96.139,259.875 95.749,260.755 94.969,261.475C94.189,262.195 93.219,262.555 92.059,262.555C90.939,262.555 90.019,262.195 89.299,261.475C88.579,260.755 88.219,259.875 88.219,258.835Z" style="fill:rgb(0,204,0);fill-rule:nonzero;"/>
    <path d="M140.539,298.855C140.539,300.735 140.179,302.385 139.459,303.805C138.739,305.225 137.749,306.395 136.489,307.315C135.229,308.235 133.759,308.925 132.079,309.385C130.399,309.845 128.579,310.075 126.619,310.075C124.259,310.075 122.199,309.835 120.439,309.355C118.679,308.875 117.159,308.255 115.879,307.495L118.159,303.235C118.519,303.555 118.989,303.865 119.569,304.165C120.149,304.465 120.819,304.745 121.579,305.005C122.339,305.265 123.149,305.475 124.009,305.635C124.869,305.795 125.719,305.875 126.559,305.875C128.319,305.875 129.789,305.715 130.969,305.395C132.149,305.075 133.099,304.575 133.819,303.895C134.539,303.215 135.059,302.335 135.379,301.255C135.699,300.175 135.859,298.855 135.859,297.295L135.859,293.935L135.619,293.935C134.699,295.255 133.519,296.275 132.079,296.995C130.639,297.715 128.779,298.075 126.499,298.075C121.939,298.075 118.589,296.805 116.449,294.265C114.309,291.725 113.239,287.775 113.239,282.415C113.239,277.295 114.599,273.425 117.319,270.805C120.039,268.185 124.079,266.875 129.439,266.875C131.919,266.875 134.029,267.045 135.769,267.385C137.509,267.725 139.099,268.155 140.539,268.675L140.539,298.855ZM127.159,294.055C129.599,294.055 131.519,293.425 132.919,292.165C134.319,290.905 135.299,288.975 135.859,286.375L135.859,272.155C134.099,271.315 131.639,270.895 128.479,270.895C125.279,270.895 122.759,271.835 120.919,273.715C119.079,275.595 118.159,278.475 118.159,282.355C118.159,284.075 118.319,285.645 118.639,287.065C118.959,288.485 119.469,289.715 120.169,290.755C120.869,291.795 121.789,292.605 122.929,293.185C124.069,293.765 125.479,294.055 127.159,294.055Z" style="fill:rgb(0,204,0);fill-rule:nonzero;"/>
    <path d="M150.679,277.855C150.679,277.495 150.669,277.025 150.649,276.445C150.629,275.865 150.599,275.265 150.559,274.645C150.519,274.025 150.469,273.415 150.409,272.815C150.349,272.215 150.279,271.695 150.199,271.255L146.179,271.255L146.179,267.355L154.219,267.355L154.759,272.215L155.059,272.215C155.459,271.535 155.989,270.865 156.649,270.205C157.309,269.545 158.079,268.945 158.959,268.405C159.839,267.865 160.819,267.435 161.899,267.115C162.979,266.795 164.119,266.635 165.319,266.635C167.159,266.635 168.789,266.835 170.209,267.235C171.629,267.635 172.809,268.345 173.749,269.365C174.689,270.385 175.399,271.765 175.879,273.505C176.359,275.245 176.599,277.455 176.599,280.135L176.599,297.355L171.919,297.355L171.919,281.035C171.919,277.715 171.379,275.215 170.299,273.535C169.219,271.855 167.259,271.015 164.419,271.015C163.379,271.015 162.369,271.225 161.389,271.645C160.409,272.065 159.519,272.615 158.719,273.295C157.919,273.975 157.219,274.765 156.619,275.665C156.019,276.565 155.579,277.515 155.299,278.515L155.299,297.355L150.679,297.355L150.679,277.855Z" style="fill:rgb(0,204,0);fill-rule:nonzero;"/>
    <path d="M186.079,295.375L183.799,291.775L207.679,277.915L183.859,263.815L186.139,260.095L214.399,277.315L214.399,279.055L186.079,295.375Z" style="fill:rgb(0,204,0);fill-rule:nonzero;"/>
    <g transform="matrix(1,0,0,1,-10844.5,-4966.29)">
        <g transform="matrix(60,0,0,60,10902,5022.66)">
            <path d="M0.045,-0.305L0.045,-0.334L0.516,-0.621L0.554,-0.559L0.157,-0.324L0.555,-0.093L0.517,-0.033L0.045,-0.305Z" style="fill-rule:nonzero;"/>
        </g>
        <g transform="matrix(60,0,0,60,10938,5022.66)">
            <path d="M0.402,-0.138C0.402,-0.151 0.394,-0.162 0.378,-0.17C0.361,-0.178 0.341,-0.185 0.317,-0.192C0.293,-0.199 0.267,-0.206 0.238,-0.213C0.209,-0.22 0.183,-0.229 0.159,-0.242C0.135,-0.254 0.115,-0.27 0.099,-0.289C0.082,-0.308 0.074,-0.332 0.074,-0.362C0.074,-0.387 0.08,-0.408 0.091,-0.427C0.101,-0.446 0.117,-0.462 0.136,-0.475C0.155,-0.488 0.177,-0.497 0.204,-0.504C0.23,-0.511 0.258,-0.514 0.289,-0.514C0.322,-0.514 0.35,-0.512 0.375,-0.507C0.4,-0.502 0.421,-0.497 0.44,-0.49C0.458,-0.483 0.474,-0.476 0.487,-0.468C0.5,-0.459 0.511,-0.452 0.52,-0.445L0.465,-0.356C0.455,-0.362 0.444,-0.368 0.431,-0.375C0.418,-0.381 0.404,-0.387 0.39,-0.392C0.375,-0.397 0.36,-0.402 0.345,-0.405C0.329,-0.408 0.313,-0.41 0.298,-0.41C0.27,-0.41 0.247,-0.406 0.23,-0.399C0.213,-0.392 0.204,-0.38 0.204,-0.365C0.204,-0.353 0.212,-0.343 0.229,-0.336C0.245,-0.329 0.265,-0.322 0.289,-0.316C0.313,-0.309 0.339,-0.302 0.368,-0.295C0.397,-0.288 0.423,-0.278 0.447,-0.267C0.471,-0.255 0.491,-0.24 0.508,-0.221C0.524,-0.202 0.532,-0.178 0.532,-0.149C0.532,-0.098 0.514,-0.058 0.477,-0.03C0.44,-0.001 0.385,0.014 0.312,0.014C0.255,0.014 0.205,0.006 0.164,-0.012C0.122,-0.028 0.088,-0.048 0.063,-0.071L0.123,-0.165C0.132,-0.158 0.143,-0.15 0.158,-0.141C0.172,-0.132 0.188,-0.123 0.206,-0.116C0.224,-0.109 0.243,-0.102 0.264,-0.098C0.284,-0.092 0.304,-0.09 0.324,-0.09C0.345,-0.09 0.364,-0.094 0.379,-0.101C0.394,-0.108 0.402,-0.121 0.402,-0.138Z" style="fill-rule:nonzero;"/>
        </g>
        <g transform="matrix(60,0,0,60,10974,5022.66)">
            <path d="M0.059,-0.11L0.235,-0.11L0.235,-0.39L0.059,-0.39L0.059,-0.5L0.365,-0.5L0.365,-0.11L0.55,-0.11L0.55,-0L0.059,-0L0.059,-0.11ZM0.211,-0.636C0.211,-0.657 0.219,-0.674 0.234,-0.689C0.249,-0.704 0.271,-0.711 0.298,-0.711C0.326,-0.711 0.348,-0.704 0.365,-0.689C0.382,-0.674 0.39,-0.657 0.39,-0.636C0.39,-0.615 0.382,-0.597 0.365,-0.584C0.348,-0.57 0.326,-0.563 0.298,-0.563C0.271,-0.563 0.249,-0.57 0.234,-0.584C0.219,-0.597 0.211,-0.615 0.211,-0.636Z" style="fill-rule:nonzero;"/>
        </g>
        <g transform="matrix(60,0,0,60,11010,5022.66)">
            <path d="M0.53,-0C0.53,0.036 0.524,0.067 0.512,0.094C0.499,0.121 0.482,0.143 0.461,0.161C0.439,0.178 0.413,0.191 0.384,0.2C0.354,0.208 0.321,0.212 0.286,0.212C0.262,0.212 0.24,0.21 0.219,0.207C0.198,0.203 0.178,0.198 0.161,0.192C0.143,0.186 0.127,0.18 0.114,0.173C0.101,0.166 0.09,0.159 0.082,0.152L0.132,0.06C0.148,0.071 0.167,0.081 0.19,0.091C0.212,0.1 0.24,0.105 0.274,0.105C0.316,0.105 0.348,0.095 0.37,0.076C0.392,0.057 0.403,0.029 0.403,-0.007L0.403,-0.039L0.399,-0.039C0.387,-0.023 0.369,-0.011 0.346,-0.004C0.323,0.004 0.296,0.008 0.265,0.008C0.233,0.008 0.204,0.003 0.177,-0.007C0.15,-0.017 0.126,-0.032 0.106,-0.053C0.086,-0.073 0.07,-0.099 0.06,-0.13C0.049,-0.161 0.043,-0.198 0.043,-0.24C0.043,-0.284 0.05,-0.323 0.063,-0.357C0.076,-0.391 0.094,-0.42 0.118,-0.443C0.141,-0.466 0.169,-0.483 0.203,-0.495C0.236,-0.506 0.272,-0.512 0.313,-0.512C0.334,-0.512 0.356,-0.511 0.377,-0.51C0.398,-0.508 0.419,-0.506 0.438,-0.503C0.456,-0.5 0.474,-0.497 0.49,-0.494C0.506,-0.49 0.519,-0.486 0.53,-0.482L0.53,-0ZM0.29,-0.096C0.315,-0.096 0.338,-0.102 0.359,-0.113C0.379,-0.124 0.393,-0.141 0.4,-0.164L0.4,-0.389C0.391,-0.393 0.378,-0.396 0.361,-0.399C0.343,-0.401 0.327,-0.402 0.312,-0.402C0.293,-0.402 0.276,-0.399 0.26,-0.393C0.243,-0.387 0.229,-0.378 0.217,-0.365C0.204,-0.352 0.195,-0.335 0.188,-0.316C0.181,-0.296 0.177,-0.272 0.177,-0.245C0.177,-0.221 0.18,-0.2 0.186,-0.181C0.192,-0.162 0.2,-0.147 0.211,-0.134C0.222,-0.121 0.234,-0.112 0.247,-0.106C0.26,-0.099 0.275,-0.096 0.29,-0.096Z" style="fill-rule:nonzero;"/>
        </g>
        <g transform="matrix(60,0,0,60,11046,5022.66)">
            <path d="M0.012,-0.5L0.187,-0.5L0.202,-0.434L0.206,-0.434C0.221,-0.455 0.243,-0.474 0.272,-0.49C0.301,-0.506 0.335,-0.514 0.375,-0.514C0.4,-0.514 0.423,-0.511 0.445,-0.504C0.466,-0.497 0.485,-0.486 0.5,-0.471C0.515,-0.456 0.528,-0.435 0.537,-0.409C0.546,-0.382 0.55,-0.35 0.55,-0.311L0.55,-0L0.42,-0L0.42,-0.284C0.42,-0.325 0.411,-0.354 0.393,-0.372C0.374,-0.39 0.351,-0.399 0.323,-0.399C0.298,-0.399 0.276,-0.392 0.256,-0.378C0.235,-0.363 0.221,-0.345 0.214,-0.324L0.214,-0L0.084,-0L0.084,-0.39L0.012,-0.39L0.012,-0.5Z" style="fill-rule:nonzero;"/>
        </g>
        <g transform="matrix(60,0,0,60,11082,5022.66)">
            <path d="M0.534,-0.053C0.525,-0.045 0.514,-0.037 0.501,-0.03C0.487,-0.022 0.471,-0.015 0.453,-0.008C0.434,-0.001 0.414,0.004 0.392,0.008C0.37,0.012 0.347,0.014 0.322,0.014C0.279,0.014 0.241,0.008 0.208,-0.004C0.174,-0.016 0.145,-0.034 0.122,-0.057C0.099,-0.08 0.081,-0.107 0.069,-0.14C0.056,-0.172 0.05,-0.209 0.05,-0.25C0.05,-0.294 0.057,-0.333 0.071,-0.366C0.085,-0.399 0.104,-0.426 0.129,-0.448C0.153,-0.47 0.181,-0.487 0.214,-0.498C0.247,-0.509 0.282,-0.514 0.32,-0.514C0.345,-0.514 0.372,-0.511 0.399,-0.504C0.426,-0.497 0.45,-0.486 0.473,-0.47C0.496,-0.453 0.514,-0.431 0.529,-0.404C0.543,-0.377 0.55,-0.342 0.55,-0.3C0.55,-0.271 0.547,-0.24 0.54,-0.207L0.18,-0.207C0.181,-0.186 0.185,-0.168 0.194,-0.153C0.202,-0.138 0.213,-0.126 0.227,-0.117C0.24,-0.108 0.256,-0.101 0.274,-0.097C0.291,-0.092 0.31,-0.09 0.33,-0.09C0.37,-0.09 0.403,-0.095 0.429,-0.104C0.454,-0.113 0.475,-0.125 0.491,-0.138L0.534,-0.053ZM0.318,-0.41C0.301,-0.41 0.284,-0.408 0.269,-0.403C0.254,-0.398 0.24,-0.392 0.228,-0.383C0.215,-0.374 0.205,-0.362 0.197,-0.349C0.189,-0.336 0.184,-0.321 0.183,-0.304L0.429,-0.304C0.429,-0.337 0.42,-0.363 0.402,-0.382C0.383,-0.401 0.355,-0.41 0.318,-0.41Z" style="fill-rule:nonzero;"/>
        </g>
        <g transform="matrix(60,0,0,60,11118,5022.66)">
            <path d="M0.306,-0.7L0.515,-0.7L0.515,-0.268C0.515,-0.218 0.518,-0.169 0.523,-0.12C0.523,-0.117 0.523,-0.113 0.524,-0.11L0.588,-0.11L0.588,-0L0.427,-0L0.414,-0.064L0.41,-0.064C0.403,-0.052 0.394,-0.041 0.383,-0.032C0.372,-0.023 0.359,-0.015 0.345,-0.008C0.331,-0 0.316,0.005 0.299,0.009C0.282,0.012 0.266,0.014 0.249,0.014C0.218,0.014 0.188,0.009 0.161,-0.001C0.133,-0.011 0.109,-0.027 0.088,-0.048C0.067,-0.069 0.051,-0.095 0.039,-0.128C0.027,-0.16 0.021,-0.198 0.021,-0.242C0.021,-0.285 0.028,-0.323 0.041,-0.356C0.054,-0.389 0.071,-0.418 0.095,-0.441C0.118,-0.464 0.145,-0.481 0.176,-0.494C0.207,-0.506 0.242,-0.512 0.279,-0.512C0.3,-0.512 0.319,-0.511 0.338,-0.509C0.356,-0.506 0.372,-0.502 0.385,-0.497L0.385,-0.59L0.306,-0.59L0.306,-0.7ZM0.279,-0.096C0.304,-0.096 0.327,-0.102 0.347,-0.115C0.366,-0.127 0.379,-0.145 0.385,-0.168L0.385,-0.38C0.376,-0.387 0.363,-0.393 0.347,-0.397C0.33,-0.4 0.313,-0.402 0.295,-0.402C0.277,-0.402 0.26,-0.399 0.243,-0.393C0.226,-0.387 0.211,-0.378 0.198,-0.365C0.185,-0.352 0.174,-0.335 0.167,-0.314C0.159,-0.293 0.155,-0.268 0.155,-0.238C0.155,-0.195 0.166,-0.161 0.187,-0.135C0.208,-0.109 0.239,-0.096 0.279,-0.096Z" style="fill-rule:nonzero;"/>
        </g>
        <g transform="matrix(60,0,0,60,11190,5022.66)">
            <path d="M0.012,-0.5L0.187,-0.5L0.202,-0.434L0.206,-0.434C0.221,-0.455 0.243,-0.474 0.272,-0.49C0.301,-0.506 0.335,-0.514 0.375,-0.514C0.4,-0.514 0.423,-0.511 0.445,-0.504C0.466,-0.497 0.485,-0.486 0.5,-0.471C0.515,-0.456 0.528,-0.435 0.537,-0.409C0.546,-0.382 0.55,-0.35 0.55,-0.311L0.55,-0L0.42,-0L0.42,-0.284C0.42,-0.325 0.411,-0.354 0.393,-0.372C0.374,-0.39 0.351,-0.399 0.323,-0.399C0.298,-0.399 0.276,-0.392 0.256,-0.378C0.235,-0.363 0.221,-0.345 0.214,-0.324L0.214,-0L0.084,-0L0.084,-0.39L0.012,-0.39L0.012,-0.5Z" style="fill-rule:nonzero;"/>
        </g>
        <g transform="matrix(60,0,0,60,11226,5022.66)">
            <path d="M0.33,-0.5L0.516,-0.5L0.516,-0.11L0.592,-0.11L0.592,-0L0.434,-0L0.411,-0.074L0.407,-0.074C0.392,-0.049 0.369,-0.028 0.338,-0.011C0.307,0.006 0.273,0.014 0.236,0.014C0.211,0.014 0.188,0.011 0.167,0.004C0.146,-0.003 0.128,-0.014 0.113,-0.029C0.098,-0.044 0.087,-0.065 0.079,-0.091C0.071,-0.117 0.067,-0.15 0.067,-0.189L0.067,-0.39L0.01,-0.39L0.01,-0.5L0.197,-0.5L0.197,-0.216C0.197,-0.175 0.204,-0.146 0.217,-0.128C0.23,-0.11 0.25,-0.101 0.278,-0.101C0.303,-0.101 0.325,-0.108 0.345,-0.123C0.364,-0.138 0.378,-0.156 0.386,-0.177L0.386,-0.39L0.33,-0.39L0.33,-0.5Z" style="fill-rule:nonzero;"/>
        </g>
        <g transform="matrix(60,0,0,60,11262,5022.66)">
            <path d="M0.241,-0L0.241,-0.306C0.241,-0.326 0.24,-0.342 0.237,-0.355C0.234,-0.367 0.231,-0.377 0.227,-0.384C0.222,-0.391 0.217,-0.395 0.211,-0.398C0.204,-0.4 0.198,-0.401 0.191,-0.401C0.18,-0.401 0.169,-0.397 0.16,-0.39C0.15,-0.383 0.143,-0.373 0.14,-0.362L0.14,-0L0.02,-0L0.02,-0.5L0.115,-0.5L0.129,-0.445L0.132,-0.445C0.142,-0.464 0.157,-0.48 0.176,-0.493C0.195,-0.505 0.218,-0.511 0.244,-0.511C0.266,-0.511 0.287,-0.506 0.307,-0.495C0.327,-0.484 0.341,-0.466 0.348,-0.439C0.358,-0.462 0.373,-0.48 0.394,-0.493C0.415,-0.505 0.437,-0.511 0.461,-0.511C0.479,-0.511 0.495,-0.509 0.51,-0.504C0.524,-0.499 0.536,-0.49 0.547,-0.477C0.558,-0.464 0.566,-0.447 0.572,-0.426C0.577,-0.404 0.58,-0.376 0.58,-0.342L0.58,-0L0.46,-0L0.46,-0.32C0.46,-0.35 0.455,-0.371 0.446,-0.383C0.436,-0.395 0.424,-0.401 0.41,-0.401C0.398,-0.401 0.388,-0.398 0.379,-0.393C0.37,-0.387 0.364,-0.378 0.361,-0.365L0.361,-0L0.241,-0Z" style="fill-rule:nonzero;"/>
        </g>
        <g transform="matrix(60,0,0,60,11298,5022.66)">
            <path d="M0.534,-0.053C0.525,-0.045 0.514,-0.037 0.501,-0.03C0.487,-0.022 0.471,-0.015 0.453,-0.008C0.434,-0.001 0.414,0.004 0.392,0.008C0.37,0.012 0.347,0.014 0.322,0.014C0.279,0.014 0.241,0.008 0.208,-0.004C0.174,-0.016 0.145,-0.034 0.122,-0.057C0.099,-0.08 0.081,-0.107 0.069,-0.14C0.056,-0.172 0.05,-0.209 0.05,-0.25C0.05,-0.294 0.057,-0.333 0.071,-0.366C0.085,-0.399 0.104,-0.426 0.129,-0.448C0.153,-0.47 0.181,-0.487 0.214,-0.498C0.247,-0.509 0.282,-0.514 0.32,-0.514C0.345,-0.514 0.372,-0.511 0.399,-0.504C0.426,-0.497 0.45,-0.486 0.473,-0.47C0.496,-0.453 0.514,-0.431 0.529,-0.404C0.543,-0.377 0.55,-0.342 0.55,-0.3C0.55,-0.271 0.547,-0.24 0.54,-0.207L0.18,-0.207C0.181,-0.186 0.185,-0.168 0.194,-0.153C0.202,-0.138 0.213,-0.126 0.227,-0.117C0.24,-0.108 0.256,-0.101 0.274,-0.097C0.291,-0.092 0.31,-0.09 0.33,-0.09C0.37,-0.09 0.403,-0.095 0.429,-0.104C0.454,-0.113 0.475,-0.125 0.491,-0.138L0.534,-0.053ZM0.318,-0.41C0.301,-0.41 0.284,-0.408 0.269,-0.403C0.254,-0.398 0.24,-0.392 0.228,-0.383C0.215,-0.374 0.205,-0.362 0.197,-0.349C0.189,-0.336 0.184,-0.321 0.183,-0.304L0.429,-0.304C0.429,-0.337 0.42,-0.363 0.402,-0.382C0.383,-0.401 0.355,-0.41 0.318,-0.41Z" style="fill-rule:nonzero;"/>
        </g>
        <g transform="matrix(60,0,0,60,11334,5022.66)">
            <path d="M0.039,-0.11L0.163,-0.11L0.163,-0.39L0.039,-0.39L0.039,-0.5L0.264,-0.5L0.279,-0.434L0.283,-0.434C0.302,-0.456 0.323,-0.474 0.347,-0.489C0.371,-0.504 0.399,-0.511 0.431,-0.511C0.471,-0.511 0.502,-0.496 0.526,-0.467C0.549,-0.438 0.56,-0.389 0.56,-0.32L0.443,-0.32C0.443,-0.344 0.44,-0.362 0.433,-0.373C0.426,-0.384 0.414,-0.389 0.399,-0.389C0.372,-0.389 0.351,-0.382 0.335,-0.369C0.318,-0.356 0.304,-0.34 0.293,-0.323L0.293,-0.11L0.51,-0.11L0.51,-0L0.039,-0L0.039,-0.11Z" style="fill-rule:nonzero;"/>
        </g>
        <g transform="matrix(60,0,0,60,11370,5022.66)">
            <path d="M0.059,-0.11L0.235,-0.11L0.235,-0.39L0.059,-0.39L0.059,-0.5L0.365,-0.5L0.365,-0.11L0.55,-0.11L0.55,-0L0.059,-0L0.059,-0.11ZM0.211,-0.636C0.211,-0.657 0.219,-0.674 0.234,-0.689C0.249,-0.704 0.271,-0.711 0.298,-0.711C0.326,-0.711 0.348,-0.704 0.365,-0.689C0.382,-0.674 0.39,-0.657 0.39,-0.636C0.39,-0.615 0.382,-0.597 0.365,-0.584C0.348,-0.57 0.326,-0.563 0.298,-0.563C0.271,-0.563 0.249,-0.57 0.234,-0.584C0.219,-0.597 0.211,-0.615 0.211,-0.636Z" style="fill-rule:nonzero;"/>
        </g>
        <g transform="matrix(60,0,0,60,11406,5022.66)">
            <path d="M0.546,-0.048C0.519,-0.027 0.487,-0.012 0.45,-0.002C0.413,0.009 0.375,0.014 0.335,0.014C0.292,0.014 0.253,0.008 0.22,-0.005C0.186,-0.018 0.158,-0.036 0.135,-0.059C0.112,-0.082 0.094,-0.109 0.082,-0.142C0.07,-0.175 0.064,-0.211 0.064,-0.25C0.064,-0.292 0.071,-0.329 0.085,-0.362C0.099,-0.395 0.119,-0.422 0.144,-0.445C0.169,-0.468 0.198,-0.485 0.232,-0.497C0.266,-0.508 0.303,-0.514 0.343,-0.514C0.38,-0.514 0.415,-0.51 0.448,-0.501C0.481,-0.492 0.506,-0.484 0.523,-0.476L0.523,-0.3L0.413,-0.3L0.413,-0.392C0.392,-0.397 0.372,-0.399 0.351,-0.399C0.332,-0.399 0.314,-0.396 0.296,-0.391C0.277,-0.385 0.261,-0.376 0.247,-0.364C0.232,-0.351 0.221,-0.336 0.212,-0.317C0.203,-0.298 0.198,-0.276 0.198,-0.25C0.198,-0.229 0.202,-0.209 0.209,-0.191C0.216,-0.173 0.227,-0.157 0.24,-0.144C0.253,-0.131 0.27,-0.12 0.29,-0.113C0.309,-0.105 0.331,-0.101 0.355,-0.101C0.393,-0.101 0.424,-0.106 0.449,-0.117C0.473,-0.128 0.491,-0.137 0.503,-0.145L0.546,-0.048Z" style="fill-rule:nonzero;"/>
        </g>
        <g transform="matrix(60,0,0,60,11478,5022.66)">
            <path d="M0.087,-0.7L0.3,-0.7L0.3,-0.238C0.3,-0.187 0.306,-0.151 0.319,-0.131C0.332,-0.111 0.352,-0.101 0.38,-0.101C0.401,-0.101 0.418,-0.103 0.431,-0.108C0.444,-0.112 0.458,-0.118 0.471,-0.126L0.52,-0.036C0.509,-0.029 0.497,-0.022 0.486,-0.016C0.475,-0.009 0.463,-0.004 0.45,0.001C0.437,0.005 0.424,0.008 0.409,0.011C0.394,0.013 0.377,0.014 0.358,0.014C0.295,0.014 0.248,-0.002 0.217,-0.034C0.186,-0.066 0.17,-0.111 0.17,-0.17L0.17,-0.59L0.087,-0.59L0.087,-0.7Z" style="fill-rule:nonzero;"/>
        </g>
        <g transform="matrix(60,0,0,60,11514,5022.66)">
            <path d="M0.059,-0.11L0.235,-0.11L0.235,-0.39L0.059,-0.39L0.059,-0.5L0.365,-0.5L0.365,-0.11L0.55,-0.11L0.55,-0L0.059,-0L0.059,-0.11ZM0.211,-0.636C0.211,-0.657 0.219,-0.674 0.234,-0.689C0.249,-0.704 0.271,-0.711 0.298,-0.711C0.326,-0.711 0.348,-0.704 0.365,-0.689C0.382,-0.674 0.39,-0.657 0.39,-0.636C0.39,-0.615 0.382,-0.597 0.365,-0.584C0.348,-0.57 0.326,-0.563 0.298,-0.563C0.271,-0.563 0.249,-0.57 0.234,-0.584C0.219,-0.597 0.211,-0.615 0.211,-0.636Z" style="fill-rule:nonzero;"/>
        </g>
        <g transform="matrix(60,0,0,60,11550,5022.66)">
            <path d="M0.116,-0.39L0.017,-0.39L0.017,-0.5L0.116,-0.5L0.116,-0.614L0.246,-0.651L0.246,-0.5L0.508,-0.5L0.508,-0.39L0.246,-0.39L0.246,-0.247C0.246,-0.196 0.256,-0.159 0.275,-0.136C0.294,-0.113 0.321,-0.101 0.356,-0.101C0.374,-0.101 0.39,-0.103 0.405,-0.108C0.42,-0.112 0.433,-0.117 0.445,-0.124C0.456,-0.131 0.467,-0.138 0.477,-0.146C0.486,-0.154 0.495,-0.161 0.503,-0.168L0.563,-0.078C0.552,-0.065 0.538,-0.053 0.521,-0.042C0.503,-0.031 0.485,-0.021 0.466,-0.013C0.446,-0.004 0.425,0.002 0.404,0.007C0.383,0.012 0.362,0.014 0.341,0.014C0.266,0.014 0.21,-0.007 0.173,-0.049C0.135,-0.09 0.116,-0.156 0.116,-0.247L0.116,-0.39Z" style="fill-rule:nonzero;"/>
        </g>
        <g transform="matrix(60,0,0,60,11586,5022.66)">
            <path d="M0.534,-0.053C0.525,-0.045 0.514,-0.037 0.501,-0.03C0.487,-0.022 0.471,-0.015 0.453,-0.008C0.434,-0.001 0.414,0.004 0.392,0.008C0.37,0.012 0.347,0.014 0.322,0.014C0.279,0.014 0.241,0.008 0.208,-0.004C0.174,-0.016 0.145,-0.034 0.122,-0.057C0.099,-0.08 0.081,-0.107 0.069,-0.14C0.056,-0.172 0.05,-0.209 0.05,-0.25C0.05,-0.294 0.057,-0.333 0.071,-0.366C0.085,-0.399 0.104,-0.426 0.129,-0.448C0.153,-0.47 0.181,-0.487 0.214,-0.498C0.247,-0.509 0.282,-0.514 0.32,-0.514C0.345,-0.514 0.372,-0.511 0.399,-0.504C0.426,-0.497 0.45,-0.486 0.473,-0.47C0.496,-0.453 0.514,-0.431 0.529,-0.404C0.543,-0.377 0.55,-0.342 0.55,-0.3C0.55,-0.271 0.547,-0.24 0.54,-0.207L0.18,-0.207C0.181,-0.186 0.185,-0.168 0.194,-0.153C0.202,-0.138 0.213,-0.126 0.227,-0.117C0.24,-0.108 0.256,-0.101 0.274,-0.097C0.291,-0.092 0.31,-0.09 0.33,-0.09C0.37,-0.09 0.403,-0.095 0.429,-0.104C0.454,-0.113 0.475,-0.125 0.491,-0.138L0.534,-0.053ZM0.318,-0.41C0.301,-0.41 0.284,-0.408 0.269,-0.403C0.254,-0.398 0.24,-0.392 0.228,-0.383C0.215,-0.374 0.205,-0.362 0.197,-0.349C0.189,-0.336 0.184,-0.321 0.183,-0.304L0.429,-0.304C0.429,-0.337 0.42,-0.363 0.402,-0.382C0.383,-0.401 0.355,-0.41 0.318,-0.41Z" style="fill-rule:nonzero;"/>
        </g>
        <g transform="matrix(60,0,0,60,11622,5022.66)">
            <path d="M0.039,-0.11L0.163,-0.11L0.163,-0.39L0.039,-0.39L0.039,-0.5L0.264,-0.5L0.279,-0.434L0.283,-0.434C0.302,-0.456 0.323,-0.474 0.347,-0.489C0.371,-0.504 0.399,-0.511 0.431,-0.511C0.471,-0.511 0.502,-0.496 0.526,-0.467C0.549,-0.438 0.56,-0.389 0.56,-0.32L0.443,-0.32C0.443,-0.344 0.44,-0.362 0.433,-0.373C0.426,-0.384 0.414,-0.389 0.399,-0.389C0.372,-0.389 0.351,-0.382 0.335,-0.369C0.318,-0.356 0.304,-0.34 0.293,-0.323L0.293,-0.11L0.51,-0.11L0.51,-0L0.039,-0L0.039,-0.11Z" style="fill-rule:nonzero;"/>
        </g>
        <g transform="matrix(60,0,0,60,11658,5022.66)">
            <path d="M0.09,-0.466C0.117,-0.478 0.148,-0.488 0.183,-0.497C0.218,-0.506 0.259,-0.51 0.307,-0.51C0.342,-0.51 0.371,-0.506 0.396,-0.498C0.42,-0.489 0.44,-0.477 0.455,-0.462C0.47,-0.447 0.48,-0.428 0.487,-0.407C0.494,-0.386 0.497,-0.362 0.497,-0.335C0.497,-0.301 0.496,-0.272 0.494,-0.248C0.491,-0.224 0.49,-0.203 0.49,-0.184C0.49,-0.17 0.491,-0.154 0.492,-0.137C0.493,-0.128 0.494,-0.119 0.495,-0.11L0.56,-0.11L0.56,-0L0.394,-0L0.381,-0.068L0.376,-0.068C0.363,-0.047 0.344,-0.029 0.319,-0.015C0.294,0 0.261,0.008 0.219,0.008C0.169,0.008 0.129,-0.005 0.1,-0.032C0.071,-0.059 0.056,-0.094 0.056,-0.138C0.056,-0.166 0.061,-0.19 0.072,-0.211C0.082,-0.231 0.097,-0.247 0.117,-0.261C0.136,-0.274 0.16,-0.283 0.188,-0.29C0.215,-0.296 0.246,-0.299 0.28,-0.299C0.292,-0.299 0.305,-0.298 0.318,-0.297C0.331,-0.296 0.348,-0.294 0.367,-0.293C0.368,-0.3 0.369,-0.306 0.369,-0.313L0.369,-0.332C0.369,-0.357 0.362,-0.376 0.347,-0.387C0.332,-0.398 0.311,-0.403 0.282,-0.403C0.248,-0.403 0.217,-0.399 0.19,-0.39C0.163,-0.381 0.14,-0.373 0.121,-0.364L0.09,-0.466ZM0.261,-0.099C0.293,-0.099 0.317,-0.105 0.333,-0.117C0.349,-0.128 0.361,-0.141 0.368,-0.154L0.368,-0.214C0.361,-0.215 0.351,-0.217 0.338,-0.219C0.325,-0.22 0.31,-0.221 0.295,-0.221C0.282,-0.221 0.27,-0.22 0.257,-0.218C0.244,-0.215 0.233,-0.212 0.223,-0.207C0.213,-0.202 0.205,-0.195 0.199,-0.187C0.193,-0.179 0.19,-0.169 0.19,-0.158C0.19,-0.139 0.196,-0.125 0.207,-0.115C0.218,-0.104 0.236,-0.099 0.261,-0.099Z" style="fill-rule:nonzero;"/>
        </g>
        <g transform="matrix(60,0,0,60,11694,5022.66)">
            <path d="M0.087,-0.7L0.3,-0.7L0.3,-0.238C0.3,-0.187 0.306,-0.151 0.319,-0.131C0.332,-0.111 0.352,-0.101 0.38,-0.101C0.401,-0.101 0.418,-0.103 0.431,-0.108C0.444,-0.112 0.458,-0.118 0.471,-0.126L0.52,-0.036C0.509,-0.029 0.497,-0.022 0.486,-0.016C0.475,-0.009 0.463,-0.004 0.45,0.001C0.437,0.005 0.424,0.008 0.409,0.011C0.394,0.013 0.377,0.014 0.358,0.014C0.295,0.014 0.248,-0.002 0.217,-0.034C0.186,-0.066 0.17,-0.111 0.17,-0.17L0.17,-0.59L0.087,-0.59L0.087,-0.7Z" style="fill-rule:nonzero;"/>
        </g>
        <g transform="matrix(60,0,0,60,11730,5022.66)">
            <path d="M0.083,-0.033L0.045,-0.093L0.443,-0.324L0.046,-0.559L0.084,-0.621L0.555,-0.334L0.555,-0.305L0.083,-0.033Z" style="fill-rule:nonzero;"/>
        </g>
    </g>
    <rect x="227.241" y="140.733" width="457.075" height="272.683" style="fill:none;stroke:black;stroke-width:4px;"/>
    <rect x="533.669" y="190.977" width="100.108" height="176.038" style="fill:none;stroke:rgb(0,106,255);stroke-width:2px;"/>
    <rect x="317.168" y="184.899" width="153.108" height="176.038" style="fill:none;stroke:rgb(0,106,255);stroke-width:2px;"/>
    <path d="M748.134,275.576L748.134,273.836L776.394,256.616L778.674,260.336L754.854,274.436L778.734,288.296L776.454,291.896L748.134,275.576Z" style="fill:rgb(0,106,255);fill-rule:nonzero;"/>
    <path d="M803.214,263.876L811.734,263.876L811.734,284.336C811.734,286.296 811.854,288.176 812.094,289.976L816.114,289.976L816.114,293.876L808.134,293.876L807.954,288.776L807.714,288.776C806.674,290.496 805.294,291.896 803.574,292.976C801.854,294.056 799.774,294.596 797.334,294.596C795.494,294.596 793.924,294.386 792.624,293.966C791.324,293.546 790.254,292.816 789.414,291.776C788.574,290.736 787.954,289.346 787.554,287.606C787.154,285.866 786.954,283.696 786.954,281.096L786.954,267.896L782.934,267.896L782.934,263.876L791.634,263.876L791.634,280.136C791.634,281.776 791.704,283.246 791.844,284.546C791.984,285.846 792.274,286.946 792.714,287.846C793.154,288.746 793.804,289.426 794.664,289.886C795.524,290.346 796.674,290.576 798.114,290.576C800.194,290.576 802.004,289.896 803.544,288.536C805.084,287.176 806.254,285.476 807.054,283.436L807.054,267.896L803.214,267.896L803.214,263.876Z" style="fill:rgb(0,106,255);fill-rule:nonzero;"/>
    <path d="M823.014,274.376C823.014,274.016 823.004,273.546 822.984,272.966C822.964,272.386 822.934,271.786 822.894,271.166C822.854,270.546 822.804,269.936 822.744,269.336C822.684,268.736 822.614,268.216 822.534,267.776L818.514,267.776L818.514,263.876L826.554,263.876L827.094,268.736L827.394,268.736C827.794,268.056 828.324,267.386 828.984,266.726C829.644,266.066 830.414,265.466 831.294,264.926C832.174,264.386 833.154,263.956 834.234,263.636C835.314,263.316 836.454,263.156 837.654,263.156C839.494,263.156 841.124,263.356 842.544,263.756C843.964,264.156 845.144,264.866 846.084,265.886C847.024,266.906 847.734,268.286 848.214,270.026C848.694,271.766 848.934,273.976 848.934,276.656L848.934,293.876L844.254,293.876L844.254,277.556C844.254,274.236 843.714,271.736 842.634,270.056C841.554,268.376 839.594,267.536 836.754,267.536C835.714,267.536 834.704,267.746 833.724,268.166C832.744,268.586 831.854,269.136 831.054,269.816C830.254,270.496 829.554,271.286 828.954,272.186C828.354,273.086 827.914,274.036 827.634,275.036L827.634,293.876L823.014,293.876L823.014,274.376Z" style="fill:rgb(0,106,255);fill-rule:nonzero;"/>
    <path d="M879.714,285.776C879.714,284.496 879.214,283.506 878.214,282.806C877.214,282.106 875.974,281.546 874.494,281.126C873.014,280.706 871.404,280.316 869.664,279.956C867.924,279.596 866.314,279.116 864.834,278.516C863.354,277.916 862.114,277.106 861.114,276.086C860.114,275.066 859.614,273.636 859.614,271.796C859.614,270.276 859.944,268.976 860.604,267.896C861.264,266.816 862.134,265.926 863.214,265.226C864.294,264.526 865.554,264.006 866.994,263.666C868.434,263.326 869.934,263.156 871.494,263.156C874.294,263.156 876.704,263.506 878.724,264.206C880.744,264.906 882.354,265.636 883.554,266.396L881.634,270.176C880.314,269.456 878.884,268.766 877.344,268.106C875.804,267.446 873.874,267.116 871.554,267.116C870.674,267.116 869.804,267.206 868.944,267.386C868.084,267.566 867.304,267.836 866.604,268.196C865.904,268.556 865.344,269.026 864.924,269.606C864.504,270.186 864.294,270.896 864.294,271.736C864.294,272.776 864.794,273.576 865.794,274.136C866.794,274.696 868.034,275.166 869.514,275.546C870.994,275.926 872.604,276.286 874.344,276.626C876.084,276.966 877.694,277.456 879.174,278.096C880.654,278.736 881.894,279.596 882.894,280.676C883.894,281.756 884.394,283.216 884.394,285.056C884.394,287.816 883.304,290.096 881.124,291.896C878.944,293.696 875.674,294.596 871.314,294.596C869.994,294.596 868.694,294.476 867.414,294.236C866.134,293.996 864.934,293.676 863.814,293.276C862.694,292.876 861.674,292.426 860.754,291.926C859.834,291.426 859.074,290.916 858.474,290.396L860.874,286.496C861.354,286.976 861.994,287.466 862.794,287.966C863.594,288.466 864.474,288.916 865.434,289.316C866.394,289.716 867.424,290.036 868.524,290.276C869.624,290.516 870.734,290.636 871.854,290.636C872.934,290.636 873.944,290.546 874.884,290.366C875.824,290.186 876.654,289.906 877.374,289.526C878.094,289.146 878.664,288.646 879.084,288.026C879.504,287.406 879.714,286.656 879.714,285.776Z" style="fill:rgb(0,106,255);fill-rule:nonzero;"/>
    <path d="M895.734,293.876L895.734,289.856L906.174,289.856L906.174,267.896L895.734,267.896L895.734,263.876L910.974,263.876L910.974,289.856L921.174,289.856L921.174,293.876L895.734,293.876ZM904.554,255.356C904.554,254.276 904.914,253.346 905.634,252.566C906.354,251.786 907.274,251.396 908.394,251.396C909.554,251.396 910.524,251.786 911.304,252.566C912.084,253.346 912.474,254.276 912.474,255.356C912.474,256.396 912.084,257.276 911.304,257.996C910.524,258.716 909.554,259.076 908.394,259.076C907.274,259.076 906.354,258.716 905.634,257.996C904.914,257.276 904.554,256.396 904.554,255.356Z" style="fill:rgb(0,106,255);fill-rule:nonzero;"/>
    <path d="M956.874,295.376C956.874,297.256 956.514,298.906 955.794,300.326C955.074,301.746 954.084,302.916 952.824,303.836C951.564,304.756 950.094,305.446 948.414,305.906C946.734,306.366 944.914,306.596 942.954,306.596C940.594,306.596 938.534,306.356 936.774,305.876C935.014,305.396 933.494,304.776 932.214,304.016L934.494,299.756C934.854,300.076 935.324,300.386 935.904,300.686C936.484,300.986 937.154,301.266 937.914,301.526C938.674,301.786 939.484,301.996 940.344,302.156C941.204,302.316 942.054,302.396 942.894,302.396C944.654,302.396 946.124,302.236 947.304,301.916C948.484,301.596 949.434,301.096 950.154,300.416C950.874,299.736 951.394,298.856 951.714,297.776C952.034,296.696 952.194,295.376 952.194,293.816L952.194,290.456L951.954,290.456C951.034,291.776 949.854,292.796 948.414,293.516C946.974,294.236 945.114,294.596 942.834,294.596C938.274,294.596 934.924,293.326 932.784,290.786C930.644,288.246 929.574,284.296 929.574,278.936C929.574,273.816 930.934,269.946 933.654,267.326C936.374,264.706 940.414,263.396 945.774,263.396C948.254,263.396 950.364,263.566 952.104,263.906C953.844,264.246 955.434,264.676 956.874,265.196L956.874,295.376ZM943.494,290.576C945.934,290.576 947.854,289.946 949.254,288.686C950.654,287.426 951.634,285.496 952.194,282.896L952.194,268.676C950.434,267.836 947.974,267.416 944.814,267.416C941.614,267.416 939.094,268.356 937.254,270.236C935.414,272.116 934.494,274.996 934.494,278.876C934.494,280.596 934.654,282.166 934.974,283.586C935.294,285.006 935.804,286.236 936.504,287.276C937.204,288.316 938.124,289.126 939.264,289.706C940.404,290.286 941.814,290.576 943.494,290.576Z" style="fill:rgb(0,106,255);fill-rule:nonzero;"/>
    <path d="M967.014,274.376C967.014,274.016 967.004,273.546 966.984,272.966C966.964,272.386 966.934,271.786 966.894,271.166C966.854,270.546 966.804,269.936 966.744,269.336C966.684,268.736 966.614,268.216 966.534,267.776L962.514,267.776L962.514,263.876L970.554,263.876L971.094,268.736L971.394,268.736C971.794,268.056 972.324,267.386 972.984,266.726C973.644,266.066 974.414,265.466 975.294,264.926C976.174,264.386 977.154,263.956 978.234,263.636C979.314,263.316 980.454,263.156 981.654,263.156C983.494,263.156 985.124,263.356 986.544,263.756C987.964,264.156 989.144,264.866 990.084,265.886C991.024,266.906 991.734,268.286 992.214,270.026C992.694,271.766 992.934,273.976 992.934,276.656L992.934,293.876L988.254,293.876L988.254,277.556C988.254,274.236 987.714,271.736 986.634,270.056C985.554,268.376 983.594,267.536 980.754,267.536C979.714,267.536 978.704,267.746 977.724,268.166C976.744,268.586 975.854,269.136 975.054,269.816C974.254,270.496 973.554,271.286 972.954,272.186C972.354,273.086 971.914,274.036 971.634,275.036L971.634,293.876L967.014,293.876L967.014,274.376Z" style="fill:rgb(0,106,255);fill-rule:nonzero;"/>
    <path d="M1029.17,290.096C1028.45,290.736 1027.6,291.336 1026.62,291.896C1025.64,292.456 1024.57,292.936 1023.41,293.336C1022.25,293.736 1021.04,294.046 1019.78,294.266C1018.52,294.486 1017.25,294.596 1015.97,294.596C1013.57,294.596 1011.45,294.226 1009.61,293.486C1007.77,292.746 1006.23,291.686 1004.99,290.306C1003.75,288.926 1002.81,287.276 1002.17,285.356C1001.53,283.436 1001.21,281.276 1001.21,278.876C1001.21,276.356 1001.56,274.116 1002.26,272.156C1002.96,270.196 1003.97,268.556 1005.29,267.236C1006.61,265.916 1008.21,264.906 1010.09,264.206C1011.97,263.506 1014.07,263.156 1016.39,263.156C1018.07,263.156 1019.73,263.376 1021.37,263.816C1023.01,264.256 1024.46,265.086 1025.72,266.306C1026.98,267.526 1027.95,269.206 1028.63,271.346C1029.31,273.486 1029.55,276.256 1029.35,279.656L1006.13,279.656C1006.13,283.256 1007.1,285.946 1009.04,287.726C1010.98,289.506 1013.57,290.396 1016.81,290.396C1017.89,290.396 1018.96,290.266 1020.02,290.006C1021.08,289.746 1022.09,289.436 1023.05,289.076C1024.01,288.716 1024.86,288.316 1025.6,287.876C1026.34,287.436 1026.91,287.036 1027.31,286.676L1029.17,290.096ZM1016.51,267.116C1015.19,267.116 1013.94,267.256 1012.76,267.536C1011.58,267.816 1010.54,268.286 1009.64,268.946C1008.74,269.606 1008,270.466 1007.42,271.526C1006.84,272.586 1006.47,273.896 1006.31,275.456L1024.97,275.456C1024.77,272.816 1023.92,270.766 1022.42,269.306C1020.92,267.846 1018.95,267.116 1016.51,267.116Z" style="fill:rgb(0,106,255);fill-rule:nonzero;"/>
    <path d="M1054.37,251.876L1064.09,251.876L1064.09,283.616C1064.09,283.976 1064.11,284.426 1064.15,284.966C1064.19,285.506 1064.24,286.076 1064.3,286.676C1064.36,287.276 1064.43,287.866 1064.51,288.446C1064.59,289.026 1064.67,289.536 1064.75,289.976L1068.77,289.976L1068.77,293.876L1060.79,293.876L1060.19,289.256L1059.95,289.256C1059.07,290.776 1057.76,292.046 1056.02,293.066C1054.28,294.086 1052.27,294.596 1049.99,294.596C1045.47,294.596 1042.14,293.326 1040,290.786C1037.86,288.246 1036.79,284.296 1036.79,278.936C1036.79,276.416 1037.15,274.186 1037.87,272.246C1038.59,270.306 1039.62,268.686 1040.96,267.386C1042.3,266.086 1043.91,265.096 1045.79,264.416C1047.67,263.736 1049.77,263.396 1052.09,263.396C1052.93,263.396 1053.68,263.416 1054.34,263.456C1055,263.496 1055.61,263.556 1056.17,263.636C1056.73,263.716 1057.26,263.826 1057.76,263.966C1058.26,264.106 1058.81,264.256 1059.41,264.416L1059.41,255.896L1054.37,255.896L1054.37,251.876ZM1050.77,290.576C1053.21,290.576 1055.13,289.946 1056.53,288.686C1057.93,287.426 1058.89,285.536 1059.41,283.016L1059.41,269.096C1058.53,268.496 1057.54,268.056 1056.44,267.776C1055.34,267.496 1053.89,267.356 1052.09,267.356C1048.89,267.356 1046.37,268.286 1044.53,270.146C1042.69,272.006 1041.77,274.936 1041.77,278.936C1041.77,280.576 1041.92,282.106 1042.22,283.526C1042.52,284.946 1043.02,286.176 1043.72,287.216C1044.42,288.256 1045.35,289.076 1046.51,289.676C1047.67,290.276 1049.09,290.576 1050.77,290.576Z" style="fill:rgb(0,106,255);fill-rule:nonzero;"/>
    <path d="M1111.73,293.876L1111.73,289.856L1122.17,289.856L1122.17,267.896L1111.73,267.896L1111.73,263.876L1126.97,263.876L1126.97,289.856L1137.17,289.856L1137.17,293.876L1111.73,293.876ZM1120.55,255.356C1120.55,254.276 1120.91,253.346 1121.63,252.566C1122.35,251.786 1123.27,251.396 1124.39,251.396C1125.55,251.396 1126.52,251.786 1127.3,252.566C1128.08,253.346 1128.47,254.276 1128.47,255.356C1128.47,256.396 1128.08,257.276 1127.3,257.996C1126.52,258.716 1125.55,259.076 1124.39,259.076C1123.27,259.076 1122.35,258.716 1121.63,257.996C1120.91,257.276 1120.55,256.396 1120.55,255.356Z" style="fill:rgb(0,106,255);fill-rule:nonzero;"/>
    <path d="M1147.01,274.376C1147.01,274.016 1147,273.546 1146.98,272.966C1146.96,272.386 1146.93,271.786 1146.89,271.166C1146.85,270.546 1146.8,269.936 1146.74,269.336C1146.68,268.736 1146.61,268.216 1146.53,267.776L1142.51,267.776L1142.51,263.876L1150.55,263.876L1151.09,268.736L1151.39,268.736C1151.79,268.056 1152.32,267.386 1152.98,266.726C1153.64,266.066 1154.41,265.466 1155.29,264.926C1156.17,264.386 1157.15,263.956 1158.23,263.636C1159.31,263.316 1160.45,263.156 1161.65,263.156C1163.49,263.156 1165.12,263.356 1166.54,263.756C1167.96,264.156 1169.14,264.866 1170.08,265.886C1171.02,266.906 1171.73,268.286 1172.21,270.026C1172.69,271.766 1172.93,273.976 1172.93,276.656L1172.93,293.876L1168.25,293.876L1168.25,277.556C1168.25,274.236 1167.71,271.736 1166.63,270.056C1165.55,268.376 1163.59,267.536 1160.75,267.536C1159.71,267.536 1158.7,267.746 1157.72,268.166C1156.74,268.586 1155.85,269.136 1155.05,269.816C1154.25,270.496 1153.55,271.286 1152.95,272.186C1152.35,273.086 1151.91,274.036 1151.63,275.036L1151.63,293.876L1147.01,293.876L1147.01,274.376Z" style="fill:rgb(0,106,255);fill-rule:nonzero;"/>
    <path d="M1179.29,263.876L1186.43,263.876L1186.43,257.936L1191.11,256.616L1191.11,263.876L1207.13,263.876L1207.13,267.896L1191.11,267.896L1191.11,282.056C1191.11,284.976 1191.82,287.136 1193.24,288.536C1194.66,289.936 1196.69,290.636 1199.33,290.636C1201.13,290.636 1202.7,290.296 1204.04,289.616C1205.38,288.936 1206.59,288.196 1207.67,287.396L1209.23,290.936C1207.83,292.056 1206.16,292.956 1204.22,293.636C1202.28,294.316 1200.29,294.656 1198.25,294.656C1196.65,294.656 1195.14,294.426 1193.72,293.966C1192.3,293.506 1191.05,292.796 1189.97,291.836C1188.89,290.876 1188.03,289.646 1187.39,288.146C1186.75,286.646 1186.43,284.856 1186.43,282.776L1186.43,267.896L1179.29,267.896L1179.29,263.876Z" style="fill:rgb(0,106,255);fill-rule:nonzero;"/>
    <path d="M1245.17,290.096C1244.45,290.736 1243.6,291.336 1242.62,291.896C1241.64,292.456 1240.57,292.936 1239.41,293.336C1238.25,293.736 1237.04,294.046 1235.78,294.266C1234.52,294.486 1233.25,294.596 1231.97,294.596C1229.57,294.596 1227.45,294.226 1225.61,293.486C1223.77,292.746 1222.23,291.686 1220.99,290.306C1219.75,288.926 1218.81,287.276 1218.17,285.356C1217.53,283.436 1217.21,281.276 1217.21,278.876C1217.21,276.356 1217.56,274.116 1218.26,272.156C1218.96,270.196 1219.97,268.556 1221.29,267.236C1222.61,265.916 1224.21,264.906 1226.09,264.206C1227.97,263.506 1230.07,263.156 1232.39,263.156C1234.07,263.156 1235.73,263.376 1237.37,263.816C1239.01,264.256 1240.46,265.086 1241.72,266.306C1242.98,267.526 1243.95,269.206 1244.63,271.346C1245.31,273.486 1245.55,276.256 1245.35,279.656L1222.13,279.656C1222.13,283.256 1223.1,285.946 1225.04,287.726C1226.98,289.506 1229.57,290.396 1232.81,290.396C1233.89,290.396 1234.96,290.266 1236.02,290.006C1237.08,289.746 1238.09,289.436 1239.05,289.076C1240.01,288.716 1240.86,288.316 1241.6,287.876C1242.34,287.436 1242.91,287.036 1243.31,286.676L1245.17,290.096ZM1232.51,267.116C1231.19,267.116 1229.94,267.256 1228.76,267.536C1227.58,267.816 1226.54,268.286 1225.64,268.946C1224.74,269.606 1224,270.466 1223.42,271.526C1222.84,272.586 1222.47,273.896 1222.31,275.456L1240.97,275.456C1240.77,272.816 1239.92,270.766 1238.42,269.306C1236.92,267.846 1234.95,267.116 1232.51,267.116Z" style="fill:rgb(0,106,255);fill-rule:nonzero;"/>
    <path d="M1280.87,295.376C1280.87,297.256 1280.51,298.906 1279.79,300.326C1279.07,301.746 1278.08,302.916 1276.82,303.836C1275.56,304.756 1274.09,305.446 1272.41,305.906C1270.73,306.366 1268.91,306.596 1266.95,306.596C1264.59,306.596 1262.53,306.356 1260.77,305.876C1259.01,305.396 1257.49,304.776 1256.21,304.016L1258.49,299.756C1258.85,300.076 1259.32,300.386 1259.9,300.686C1260.48,300.986 1261.15,301.266 1261.91,301.526C1262.67,301.786 1263.48,301.996 1264.34,302.156C1265.2,302.316 1266.05,302.396 1266.89,302.396C1268.65,302.396 1270.12,302.236 1271.3,301.916C1272.48,301.596 1273.43,301.096 1274.15,300.416C1274.87,299.736 1275.39,298.856 1275.71,297.776C1276.03,296.696 1276.19,295.376 1276.19,293.816L1276.19,290.456L1275.95,290.456C1275.03,291.776 1273.85,292.796 1272.41,293.516C1270.97,294.236 1269.11,294.596 1266.83,294.596C1262.27,294.596 1258.92,293.326 1256.78,290.786C1254.64,288.246 1253.57,284.296 1253.57,278.936C1253.57,273.816 1254.93,269.946 1257.65,267.326C1260.37,264.706 1264.41,263.396 1269.77,263.396C1272.25,263.396 1274.36,263.566 1276.1,263.906C1277.84,264.246 1279.43,264.676 1280.87,265.196L1280.87,295.376ZM1267.49,290.576C1269.93,290.576 1271.85,289.946 1273.25,288.686C1274.65,287.426 1275.63,285.496 1276.19,282.896L1276.19,268.676C1274.43,267.836 1271.97,267.416 1268.81,267.416C1265.61,267.416 1263.09,268.356 1261.25,270.236C1259.41,272.116 1258.49,274.996 1258.49,278.876C1258.49,280.596 1258.65,282.166 1258.97,283.586C1259.29,285.006 1259.8,286.236 1260.5,287.276C1261.2,288.316 1262.12,289.126 1263.26,289.706C1264.4,290.286 1265.81,290.576 1267.49,290.576Z" style="fill:rgb(0,106,255);fill-rule:nonzero;"/>
    <path d="M1317.17,290.096C1316.45,290.736 1315.6,291.336 1314.62,291.896C1313.64,292.456 1312.57,292.936 1311.41,293.336C1310.25,293.736 1309.04,294.046 1307.78,294.266C1306.52,294.486 1305.25,294.596 1303.97,294.596C1301.57,294.596 1299.45,294.226 1297.61,293.486C1295.77,292.746 1294.23,291.686 1292.99,290.306C1291.75,288.926 1290.81,287.276 1290.17,285.356C1289.53,283.436 1289.21,281.276 1289.21,278.876C1289.21,276.356 1289.56,274.116 1290.26,272.156C1290.96,270.196 1291.97,268.556 1293.29,267.236C1294.61,265.916 1296.21,264.906 1298.09,264.206C1299.97,263.506 1302.07,263.156 1304.39,263.156C1306.07,263.156 1307.73,263.376 1309.37,263.816C1311.01,264.256 1312.46,265.086 1313.72,266.306C1314.98,267.526 1315.95,269.206 1316.63,271.346C1317.31,273.486 1317.55,276.256 1317.35,279.656L1294.13,279.656C1294.13,283.256 1295.1,285.946 1297.04,287.726C1298.98,289.506 1301.57,290.396 1304.81,290.396C1305.89,290.396 1306.96,290.266 1308.02,290.006C1309.08,289.746 1310.09,289.436 1311.05,289.076C1312.01,288.716 1312.86,288.316 1313.6,287.876C1314.34,287.436 1314.91,287.036 1315.31,286.676L1317.17,290.096ZM1304.51,267.116C1303.19,267.116 1301.94,267.256 1300.76,267.536C1299.58,267.816 1298.54,268.286 1297.64,268.946C1296.74,269.606 1296,270.466 1295.42,271.526C1294.84,272.586 1294.47,273.896 1294.31,275.456L1312.97,275.456C1312.77,272.816 1311.92,270.766 1310.42,269.306C1308.92,267.846 1306.95,267.116 1304.51,267.116Z" style="fill:rgb(0,106,255);fill-rule:nonzero;"/>
    <path d="M1325.39,293.876L1325.39,289.856L1333.49,289.856L1333.49,267.896L1325.39,267.896L1325.39,263.876L1336.61,263.876L1337.57,267.776L1337.87,267.776C1339.23,266.536 1340.75,265.476 1342.43,264.596C1344.11,263.716 1346.11,263.276 1348.43,263.276C1349.79,263.276 1350.88,263.536 1351.7,264.056C1352.52,264.576 1353.16,265.336 1353.62,266.336C1354.08,267.336 1354.39,268.546 1354.55,269.966C1354.71,271.386 1354.79,272.996 1354.79,274.796L1350.59,274.856C1350.59,272.296 1350.34,270.416 1349.84,269.216C1349.34,268.016 1348.43,267.416 1347.11,267.416C1345.87,267.416 1344.75,267.596 1343.75,267.956C1342.75,268.316 1341.88,268.756 1341.14,269.276C1340.4,269.796 1339.77,270.316 1339.25,270.836C1338.73,271.356 1338.35,271.796 1338.11,272.156L1338.11,289.856L1349.63,289.856L1349.63,293.876L1325.39,293.876Z" style="fill:rgb(0,106,255);fill-rule:nonzero;"/>
    <path d="M1362.41,291.896L1360.13,288.296L1384.01,274.436L1360.19,260.336L1362.47,256.616L1390.73,273.836L1390.73,275.576L1362.41,291.896Z" style="fill:rgb(0,106,255);fill-rule:nonzero;"/>
    <path d="M78.134,569.436L78.134,567.696L106.394,550.476L108.674,554.196L84.854,568.296L108.734,582.156L106.454,585.756L78.134,569.436Z" style="fill:rgb(255,0,0);fill-rule:nonzero;"/>
    <path d="M143.174,583.956C142.454,584.596 141.604,585.196 140.624,585.756C139.644,586.316 138.574,586.796 137.414,587.196C136.254,587.596 135.044,587.906 133.784,588.126C132.524,588.346 131.254,588.456 129.974,588.456C127.574,588.456 125.454,588.086 123.614,587.346C121.774,586.606 120.234,585.546 118.994,584.166C117.754,582.786 116.814,581.136 116.174,579.216C115.534,577.296 115.214,575.136 115.214,572.736C115.214,570.216 115.564,567.976 116.264,566.016C116.964,564.056 117.974,562.416 119.294,561.096C120.614,559.776 122.214,558.766 124.094,558.066C125.974,557.366 128.074,557.016 130.394,557.016C132.074,557.016 133.734,557.236 135.374,557.676C137.014,558.116 138.464,558.946 139.724,560.166C140.984,561.386 141.954,563.066 142.634,565.206C143.314,567.346 143.554,570.116 143.354,573.516L120.134,573.516C120.134,577.116 121.104,579.806 123.044,581.586C124.984,583.366 127.574,584.256 130.814,584.256C131.894,584.256 132.964,584.126 134.024,583.866C135.084,583.606 136.094,583.296 137.054,582.936C138.014,582.576 138.864,582.176 139.604,581.736C140.344,581.296 140.914,580.896 141.314,580.536L143.174,583.956ZM130.514,560.976C129.194,560.976 127.944,561.116 126.764,561.396C125.584,561.676 124.544,562.146 123.644,562.806C122.744,563.466 122.004,564.326 121.424,565.386C120.844,566.446 120.474,567.756 120.314,569.316L138.974,569.316C138.774,566.676 137.924,564.626 136.424,563.166C134.924,561.706 132.954,560.976 130.514,560.976Z" style="fill:rgb(255,0,0);fill-rule:nonzero;"/>
    <path d="M162.614,572.376L151.034,557.736L157.034,557.736L165.674,569.016L174.554,557.736L179.954,557.736L168.374,572.136L180.674,587.736L174.914,587.736L165.374,575.436L155.654,587.736L150.194,587.736L162.614,572.376Z" style="fill:rgb(255,0,0);fill-rule:nonzero;"/>
    <path d="M189.914,560.076C191.634,559.076 193.574,558.356 195.734,557.916C197.894,557.476 200.014,557.256 202.094,557.256C204.134,557.256 205.804,557.576 207.104,558.216C208.404,558.856 209.424,559.686 210.164,560.706C210.904,561.726 211.404,562.886 211.664,564.186C211.924,565.486 212.054,566.796 212.054,568.116C212.054,569.636 212.014,571.256 211.934,572.976C211.854,574.696 211.794,576.416 211.754,578.136C211.754,580.136 211.874,582.036 212.114,583.836L216.134,583.836L216.134,587.736L208.154,587.736L207.614,583.236L207.314,583.236C207.074,583.596 206.714,584.056 206.234,584.616C205.754,585.176 205.124,585.726 204.344,586.266C203.564,586.806 202.614,587.276 201.494,587.676C200.374,588.076 199.054,588.276 197.534,588.276C194.574,588.276 192.234,587.516 190.514,585.996C188.794,584.476 187.934,582.396 187.934,579.756C187.934,577.716 188.384,576.016 189.284,574.656C190.184,573.296 191.474,572.256 193.154,571.536C194.834,570.816 196.864,570.396 199.244,570.276C201.624,570.156 204.294,570.316 207.254,570.756C207.454,568.916 207.484,567.386 207.344,566.166C207.204,564.946 206.884,563.976 206.384,563.256C205.884,562.536 205.184,562.026 204.284,561.726C203.384,561.426 202.274,561.276 200.954,561.276C199.154,561.276 197.434,561.526 195.794,562.026C194.154,562.526 192.694,563.036 191.414,563.556L189.914,560.076ZM198.734,584.256C199.854,584.256 200.894,584.076 201.854,583.716C202.814,583.356 203.654,582.896 204.374,582.336C205.094,581.776 205.694,581.166 206.174,580.506C206.654,579.846 207.014,579.216 207.254,578.616L207.254,574.416C205.174,574.056 203.254,573.876 201.494,573.876C199.734,573.876 198.214,574.066 196.934,574.446C195.654,574.826 194.654,575.416 193.934,576.216C193.214,577.016 192.854,578.056 192.854,579.336C192.854,580.656 193.304,581.806 194.204,582.786C195.104,583.766 196.614,584.256 198.734,584.256Z" style="fill:rgb(255,0,0);fill-rule:nonzero;"/>
    <path d="M245.774,562.356C244.854,562.036 243.864,561.766 242.804,561.546C241.744,561.326 240.694,561.216 239.654,561.216C235.734,561.216 232.814,562.136 230.894,563.976C228.974,565.816 228.014,568.736 228.014,572.736C228.014,574.496 228.294,576.066 228.854,577.446C229.414,578.826 230.214,579.996 231.254,580.956C232.294,581.916 233.544,582.656 235.004,583.176C236.464,583.696 238.074,583.956 239.834,583.956C241.714,583.956 243.544,583.636 245.324,582.996C247.104,582.356 248.594,581.516 249.794,580.476L251.894,583.956C251.334,584.436 250.634,584.936 249.794,585.456C248.954,585.976 247.984,586.466 246.884,586.926C245.784,587.386 244.564,587.756 243.224,588.036C241.884,588.316 240.434,588.456 238.874,588.456C236.274,588.456 233.984,588.086 232.004,587.346C230.024,586.606 228.374,585.546 227.054,584.166C225.734,582.786 224.734,581.126 224.054,579.186C223.374,577.246 223.034,575.096 223.034,572.736C223.034,570.216 223.384,567.976 224.084,566.016C224.784,564.056 225.794,562.416 227.114,561.096C228.434,559.776 230.034,558.766 231.914,558.066C233.794,557.366 235.894,557.016 238.214,557.016C241.174,557.016 243.584,557.276 245.444,557.796C247.304,558.316 248.874,558.896 250.154,559.536L250.094,559.716L250.094,568.056L245.774,568.056L245.774,562.356Z" style="fill:rgb(255,0,0);fill-rule:nonzero;"/>
    <path d="M257.294,557.736L264.434,557.736L264.434,551.796L269.114,550.476L269.114,557.736L285.134,557.736L285.134,561.756L269.114,561.756L269.114,575.916C269.114,578.836 269.824,580.996 271.244,582.396C272.664,583.796 274.694,584.496 277.334,584.496C279.134,584.496 280.704,584.156 282.044,583.476C283.384,582.796 284.594,582.056 285.674,581.256L287.234,584.796C285.834,585.916 284.164,586.816 282.224,587.496C280.284,588.176 278.294,588.516 276.254,588.516C274.654,588.516 273.144,588.286 271.724,587.826C270.304,587.366 269.054,586.656 267.974,585.696C266.894,584.736 266.034,583.506 265.394,582.006C264.754,580.506 264.434,578.716 264.434,576.636L264.434,561.756L257.294,561.756L257.294,557.736Z" style="fill:rgb(255,0,0);fill-rule:nonzero;"/>
    <path d="M333.014,568.236C333.014,567.876 333.004,567.406 332.984,566.826C332.964,566.246 332.934,565.646 332.894,565.026C332.854,564.406 332.804,563.796 332.744,563.196C332.684,562.596 332.614,562.076 332.534,561.636L328.514,561.636L328.514,557.736L336.554,557.736L337.094,562.596L337.394,562.596C337.794,561.916 338.324,561.246 338.984,560.586C339.644,559.926 340.414,559.326 341.294,558.786C342.174,558.246 343.154,557.816 344.234,557.496C345.314,557.176 346.454,557.016 347.654,557.016C349.494,557.016 351.124,557.216 352.544,557.616C353.964,558.016 355.144,558.726 356.084,559.746C357.024,560.766 357.734,562.146 358.214,563.886C358.694,565.626 358.934,567.836 358.934,570.516L358.934,587.736L354.254,587.736L354.254,571.416C354.254,568.096 353.714,565.596 352.634,563.916C351.554,562.236 349.594,561.396 346.754,561.396C345.714,561.396 344.704,561.606 343.724,562.026C342.744,562.446 341.854,562.996 341.054,563.676C340.254,564.356 339.554,565.146 338.954,566.046C338.354,566.946 337.914,567.896 337.634,568.896L337.634,587.736L333.014,587.736L333.014,568.236Z" style="fill:rgb(255,0,0);fill-rule:nonzero;"/>
    <path d="M385.214,557.736L393.734,557.736L393.734,578.196C393.734,580.156 393.854,582.036 394.094,583.836L398.114,583.836L398.114,587.736L390.134,587.736L389.954,582.636L389.714,582.636C388.674,584.356 387.294,585.756 385.574,586.836C383.854,587.916 381.774,588.456 379.334,588.456C377.494,588.456 375.924,588.246 374.624,587.826C373.324,587.406 372.254,586.676 371.414,585.636C370.574,584.596 369.954,583.206 369.554,581.466C369.154,579.726 368.954,577.556 368.954,574.956L368.954,561.756L364.934,561.756L364.934,557.736L373.634,557.736L373.634,573.996C373.634,575.636 373.704,577.106 373.844,578.406C373.984,579.706 374.274,580.806 374.714,581.706C375.154,582.606 375.804,583.286 376.664,583.746C377.524,584.206 378.674,584.436 380.114,584.436C382.194,584.436 384.004,583.756 385.544,582.396C387.084,581.036 388.254,579.336 389.054,577.296L389.054,561.756L385.214,561.756L385.214,557.736Z" style="fill:rgb(255,0,0);fill-rule:nonzero;"/>
    <path d="M415.154,587.736L415.154,567.756C415.154,566.916 415.124,566.106 415.064,565.326C415.004,564.546 414.864,563.846 414.644,563.226C414.424,562.606 414.104,562.116 413.684,561.756C413.264,561.396 412.714,561.216 412.034,561.216C410.674,561.216 409.524,561.776 408.584,562.896C407.644,564.016 406.934,565.416 406.454,567.096L406.454,587.736L401.894,587.736L401.894,557.736L405.014,557.736L405.914,561.396L406.154,561.396C406.554,560.796 406.944,560.226 407.324,559.686C407.704,559.146 408.144,558.676 408.644,558.276C409.144,557.876 409.734,557.566 410.414,557.346C411.094,557.126 411.954,557.016 412.994,557.016C413.594,557.016 414.214,557.106 414.854,557.286C415.494,557.466 416.084,557.746 416.624,558.126C417.164,558.506 417.634,559.016 418.034,559.656C418.434,560.296 418.694,561.076 418.814,561.996C419.734,560.436 420.764,559.216 421.904,558.336C423.044,557.456 424.614,557.016 426.614,557.016C427.934,557.016 429.004,557.236 429.824,557.676C430.644,558.116 431.284,558.746 431.744,559.566C432.204,560.386 432.524,561.366 432.704,562.506C432.884,563.646 432.974,564.916 432.974,566.316L432.974,587.736L428.414,587.736L428.414,567.336C428.414,566.496 428.374,565.706 428.294,564.966C428.214,564.226 428.064,563.576 427.844,563.016C427.624,562.456 427.324,562.016 426.944,561.696C426.564,561.376 426.054,561.216 425.414,561.216C424.014,561.216 422.834,561.776 421.874,562.896C420.914,564.016 420.194,565.616 419.714,567.696L419.714,587.736L415.154,587.736Z" style="fill:rgb(255,0,0);fill-rule:nonzero;"/>
    <path d="M467.174,583.956C466.454,584.596 465.604,585.196 464.624,585.756C463.644,586.316 462.574,586.796 461.414,587.196C460.254,587.596 459.044,587.906 457.784,588.126C456.524,588.346 455.254,588.456 453.974,588.456C451.574,588.456 449.454,588.086 447.614,587.346C445.774,586.606 444.234,585.546 442.994,584.166C441.754,582.786 440.814,581.136 440.174,579.216C439.534,577.296 439.214,575.136 439.214,572.736C439.214,570.216 439.564,567.976 440.264,566.016C440.964,564.056 441.974,562.416 443.294,561.096C444.614,559.776 446.214,558.766 448.094,558.066C449.974,557.366 452.074,557.016 454.394,557.016C456.074,557.016 457.734,557.236 459.374,557.676C461.014,558.116 462.464,558.946 463.724,560.166C464.984,561.386 465.954,563.066 466.634,565.206C467.314,567.346 467.554,570.116 467.354,573.516L444.134,573.516C444.134,577.116 445.104,579.806 447.044,581.586C448.984,583.366 451.574,584.256 454.814,584.256C455.894,584.256 456.964,584.126 458.024,583.866C459.084,583.606 460.094,583.296 461.054,582.936C462.014,582.576 462.864,582.176 463.604,581.736C464.344,581.296 464.914,580.896 465.314,580.536L467.174,583.956ZM454.514,560.976C453.194,560.976 451.944,561.116 450.764,561.396C449.584,561.676 448.544,562.146 447.644,562.806C446.744,563.466 446.004,564.326 445.424,565.386C444.844,566.446 444.474,567.756 444.314,569.316L462.974,569.316C462.774,566.676 461.924,564.626 460.424,563.166C458.924,561.706 456.954,560.976 454.514,560.976Z" style="fill:rgb(255,0,0);fill-rule:nonzero;"/>
    <path d="M475.394,587.736L475.394,583.716L483.494,583.716L483.494,561.756L475.394,561.756L475.394,557.736L486.614,557.736L487.574,561.636L487.874,561.636C489.234,560.396 490.754,559.336 492.434,558.456C494.114,557.576 496.114,557.136 498.434,557.136C499.794,557.136 500.884,557.396 501.704,557.916C502.524,558.436 503.164,559.196 503.624,560.196C504.084,561.196 504.394,562.406 504.554,563.826C504.714,565.246 504.794,566.856 504.794,568.656L500.594,568.716C500.594,566.156 500.344,564.276 499.844,563.076C499.344,561.876 498.434,561.276 497.114,561.276C495.874,561.276 494.754,561.456 493.754,561.816C492.754,562.176 491.884,562.616 491.144,563.136C490.404,563.656 489.774,564.176 489.254,564.696C488.734,565.216 488.354,565.656 488.114,566.016L488.114,583.716L499.634,583.716L499.634,587.736L475.394,587.736Z" style="fill:rgb(255,0,0);fill-rule:nonzero;"/>
    <path d="M513.734,587.736L513.734,583.716L524.174,583.716L524.174,561.756L513.734,561.756L513.734,557.736L528.974,557.736L528.974,583.716L539.174,583.716L539.174,587.736L513.734,587.736ZM522.554,549.216C522.554,548.136 522.914,547.206 523.634,546.426C524.354,545.646 525.274,545.256 526.394,545.256C527.554,545.256 528.524,545.646 529.304,546.426C530.084,547.206 530.474,548.136 530.474,549.216C530.474,550.256 530.084,551.136 529.304,551.856C528.524,552.576 527.554,552.936 526.394,552.936C525.274,552.936 524.354,552.576 523.634,551.856C522.914,551.136 522.554,550.256 522.554,549.216Z" style="fill:rgb(255,0,0);fill-rule:nonzero;"/>
    <path d="M569.774,562.356C568.854,562.036 567.864,561.766 566.804,561.546C565.744,561.326 564.694,561.216 563.654,561.216C559.734,561.216 556.814,562.136 554.894,563.976C552.974,565.816 552.014,568.736 552.014,572.736C552.014,574.496 552.294,576.066 552.854,577.446C553.414,578.826 554.214,579.996 555.254,580.956C556.294,581.916 557.544,582.656 559.004,583.176C560.464,583.696 562.074,583.956 563.834,583.956C565.714,583.956 567.544,583.636 569.324,582.996C571.104,582.356 572.594,581.516 573.794,580.476L575.894,583.956C575.334,584.436 574.634,584.936 573.794,585.456C572.954,585.976 571.984,586.466 570.884,586.926C569.784,587.386 568.564,587.756 567.224,588.036C565.884,588.316 564.434,588.456 562.874,588.456C560.274,588.456 557.984,588.086 556.004,587.346C554.024,586.606 552.374,585.546 551.054,584.166C549.734,582.786 548.734,581.126 548.054,579.186C547.374,577.246 547.034,575.096 547.034,572.736C547.034,570.216 547.384,567.976 548.084,566.016C548.784,564.056 549.794,562.416 551.114,561.096C552.434,559.776 554.034,558.766 555.914,558.066C557.794,557.366 559.894,557.016 562.214,557.016C565.174,557.016 567.584,557.276 569.444,557.796C571.304,558.316 572.874,558.896 574.154,559.536L574.094,559.716L574.094,568.056L569.774,568.056L569.774,562.356Z" style="fill:rgb(255,0,0);fill-rule:nonzero;"/>
    <path d="M622.574,545.736L632.534,545.736L632.534,577.656C632.534,580.096 632.944,581.816 633.764,582.816C634.584,583.816 635.794,584.316 637.394,584.316C638.514,584.316 639.584,584.116 640.604,583.716C641.624,583.316 642.754,582.636 643.994,581.676L646.154,584.976C645.514,585.536 644.814,586.036 644.054,586.476C643.294,586.916 642.514,587.286 641.714,587.586C640.914,587.886 640.114,588.116 639.314,588.276C638.514,588.436 637.774,588.516 637.094,588.516C635.614,588.516 634.294,588.326 633.134,587.946C631.974,587.566 631.004,586.956 630.224,586.116C629.444,585.276 628.854,584.166 628.454,582.786C628.054,581.406 627.854,579.696 627.854,577.656L627.854,549.756L622.574,549.756L622.574,545.736Z" style="fill:rgb(255,0,0);fill-rule:nonzero;"/>
    <path d="M657.734,587.736L657.734,583.716L668.174,583.716L668.174,561.756L657.734,561.756L657.734,557.736L672.974,557.736L672.974,583.716L683.174,583.716L683.174,587.736L657.734,587.736ZM666.554,549.216C666.554,548.136 666.914,547.206 667.634,546.426C668.354,545.646 669.274,545.256 670.394,545.256C671.554,545.256 672.524,545.646 673.304,546.426C674.084,547.206 674.474,548.136 674.474,549.216C674.474,550.256 674.084,551.136 673.304,551.856C672.524,552.576 671.554,552.936 670.394,552.936C669.274,552.936 668.354,552.576 667.634,551.856C666.914,551.136 666.554,550.256 666.554,549.216Z" style="fill:rgb(255,0,0);fill-rule:nonzero;"/>
    <path d="M689.294,557.736L696.434,557.736L696.434,551.796L701.114,550.476L701.114,557.736L717.134,557.736L717.134,561.756L701.114,561.756L701.114,575.916C701.114,578.836 701.824,580.996 703.244,582.396C704.664,583.796 706.694,584.496 709.334,584.496C711.134,584.496 712.704,584.156 714.044,583.476C715.384,582.796 716.594,582.056 717.674,581.256L719.234,584.796C717.834,585.916 716.164,586.816 714.224,587.496C712.284,588.176 710.294,588.516 708.254,588.516C706.654,588.516 705.144,588.286 703.724,587.826C702.304,587.366 701.054,586.656 699.974,585.696C698.894,584.736 698.034,583.506 697.394,582.006C696.754,580.506 696.434,578.716 696.434,576.636L696.434,561.756L689.294,561.756L689.294,557.736Z" style="fill:rgb(255,0,0);fill-rule:nonzero;"/>
    <path d="M755.174,583.956C754.454,584.596 753.604,585.196 752.624,585.756C751.644,586.316 750.574,586.796 749.414,587.196C748.254,587.596 747.044,587.906 745.784,588.126C744.524,588.346 743.254,588.456 741.974,588.456C739.574,588.456 737.454,588.086 735.614,587.346C733.774,586.606 732.234,585.546 730.994,584.166C729.754,582.786 728.814,581.136 728.174,579.216C727.534,577.296 727.214,575.136 727.214,572.736C727.214,570.216 727.564,567.976 728.264,566.016C728.964,564.056 729.974,562.416 731.294,561.096C732.614,559.776 734.214,558.766 736.094,558.066C737.974,557.366 740.074,557.016 742.394,557.016C744.074,557.016 745.734,557.236 747.374,557.676C749.014,558.116 750.464,558.946 751.724,560.166C752.984,561.386 753.954,563.066 754.634,565.206C755.314,567.346 755.554,570.116 755.354,573.516L732.134,573.516C732.134,577.116 733.104,579.806 735.044,581.586C736.984,583.366 739.574,584.256 742.814,584.256C743.894,584.256 744.964,584.126 746.024,583.866C747.084,583.606 748.094,583.296 749.054,582.936C750.014,582.576 750.864,582.176 751.604,581.736C752.344,581.296 752.914,580.896 753.314,580.536L755.174,583.956ZM742.514,560.976C741.194,560.976 739.944,561.116 738.764,561.396C737.584,561.676 736.544,562.146 735.644,562.806C734.744,563.466 734.004,564.326 733.424,565.386C732.844,566.446 732.474,567.756 732.314,569.316L750.974,569.316C750.774,566.676 749.924,564.626 748.424,563.166C746.924,561.706 744.954,560.976 742.514,560.976Z" style="fill:rgb(255,0,0);fill-rule:nonzero;"/>
    <path d="M763.394,587.736L763.394,583.716L771.494,583.716L771.494,561.756L763.394,561.756L763.394,557.736L774.614,557.736L775.574,561.636L775.874,561.636C777.234,560.396 778.754,559.336 780.434,558.456C782.114,557.576 784.114,557.136 786.434,557.136C787.794,557.136 788.884,557.396 789.704,557.916C790.524,558.436 791.164,559.196 791.624,560.196C792.084,561.196 792.394,562.406 792.554,563.826C792.714,565.246 792.794,566.856 792.794,568.656L788.594,568.716C788.594,566.156 788.344,564.276 787.844,563.076C787.344,561.876 786.434,561.276 785.114,561.276C783.874,561.276 782.754,561.456 781.754,561.816C780.754,562.176 779.884,562.616 779.144,563.136C778.404,563.656 777.774,564.176 777.254,564.696C776.734,565.216 776.354,565.656 776.114,566.016L776.114,583.716L787.634,583.716L787.634,587.736L763.394,587.736Z" style="fill:rgb(255,0,0);fill-rule:nonzero;"/>
    <path d="M801.914,560.076C803.634,559.076 805.574,558.356 807.734,557.916C809.894,557.476 812.014,557.256 814.094,557.256C816.134,557.256 817.804,557.576 819.104,558.216C820.404,558.856 821.424,559.686 822.164,560.706C822.904,561.726 823.404,562.886 823.664,564.186C823.924,565.486 824.054,566.796 824.054,568.116C824.054,569.636 824.014,571.256 823.934,572.976C823.854,574.696 823.794,576.416 823.754,578.136C823.754,580.136 823.874,582.036 824.114,583.836L828.134,583.836L828.134,587.736L820.154,587.736L819.614,583.236L819.314,583.236C819.074,583.596 818.714,584.056 818.234,584.616C817.754,585.176 817.124,585.726 816.344,586.266C815.564,586.806 814.614,587.276 813.494,587.676C812.374,588.076 811.054,588.276 809.534,588.276C806.574,588.276 804.234,587.516 802.514,585.996C800.794,584.476 799.934,582.396 799.934,579.756C799.934,577.716 800.384,576.016 801.284,574.656C802.184,573.296 803.474,572.256 805.154,571.536C806.834,570.816 808.864,570.396 811.244,570.276C813.624,570.156 816.294,570.316 819.254,570.756C819.454,568.916 819.484,567.386 819.344,566.166C819.204,564.946 818.884,563.976 818.384,563.256C817.884,562.536 817.184,562.026 816.284,561.726C815.384,561.426 814.274,561.276 812.954,561.276C811.154,561.276 809.434,561.526 807.794,562.026C806.154,562.526 804.694,563.036 803.414,563.556L801.914,560.076ZM810.734,584.256C811.854,584.256 812.894,584.076 813.854,583.716C814.814,583.356 815.654,582.896 816.374,582.336C817.094,581.776 817.694,581.166 818.174,580.506C818.654,579.846 819.014,579.216 819.254,578.616L819.254,574.416C817.174,574.056 815.254,573.876 813.494,573.876C811.734,573.876 810.214,574.066 808.934,574.446C807.654,574.826 806.654,575.416 805.934,576.216C805.214,577.016 804.854,578.056 804.854,579.336C804.854,580.656 805.304,581.806 806.204,582.786C807.104,583.766 808.614,584.256 810.734,584.256Z" style="fill:rgb(255,0,0);fill-rule:nonzero;"/>
    <path d="M838.574,545.736L848.534,545.736L848.534,577.656C848.534,580.096 848.944,581.816 849.764,582.816C850.584,583.816 851.794,584.316 853.394,584.316C854.514,584.316 855.584,584.116 856.604,583.716C857.624,583.316 858.754,582.636 859.994,581.676L862.154,584.976C861.514,585.536 860.814,586.036 860.054,586.476C859.294,586.916 858.514,587.286 857.714,587.586C856.914,587.886 856.114,588.116 855.314,588.276C854.514,588.436 853.774,588.516 853.094,588.516C851.614,588.516 850.294,588.326 849.134,587.946C847.974,587.566 847.004,586.956 846.224,586.116C845.444,585.276 844.854,584.166 844.454,582.786C844.054,581.406 843.854,579.696 843.854,577.656L843.854,549.756L838.574,549.756L838.574,545.736Z" style="fill:rgb(255,0,0);fill-rule:nonzero;"/>
    <path d="M872.414,585.756L870.134,582.156L894.014,568.296L870.194,554.196L872.474,550.476L900.734,567.696L900.734,569.436L872.414,585.756Z" style="fill:rgb(255,0,0);fill-rule:nonzero;"/>
    <g transform="matrix(1,0,0,1,-10976.7,-4957.02)">
        <g transform="matrix(128,0,0,128,11213.2,5274.57)">
            <rect x="0.088" y="-0.325" width="0.424" height="0.074" style="fill:rgb(0,204,0);fill-rule:nonzero;"/>
        </g>
        <g transform="matrix(128,0,0,128,11290,5274.57)">
            <path d="M0.5,-0.523C0.5,-0.462 0.471,-0.393 0.413,-0.318C0.355,-0.243 0.274,-0.161 0.17,-0.072L0.522,-0.072L0.522,-0L0.078,-0L0.078,-0.072C0.091,-0.084 0.108,-0.1 0.13,-0.119C0.152,-0.138 0.176,-0.16 0.201,-0.184C0.226,-0.207 0.252,-0.233 0.279,-0.26C0.305,-0.287 0.329,-0.315 0.35,-0.344C0.371,-0.373 0.389,-0.401 0.402,-0.43C0.415,-0.459 0.422,-0.486 0.422,-0.513C0.422,-0.553 0.411,-0.585 0.391,-0.608C0.37,-0.631 0.338,-0.642 0.296,-0.642C0.26,-0.642 0.23,-0.638 0.205,-0.63C0.18,-0.622 0.158,-0.61 0.138,-0.595L0.104,-0.65C0.134,-0.671 0.166,-0.687 0.2,-0.697C0.233,-0.707 0.27,-0.712 0.31,-0.712C0.373,-0.712 0.42,-0.695 0.452,-0.661C0.484,-0.627 0.5,-0.581 0.5,-0.523Z" style="fill-rule:nonzero;"/>
        </g>
        <g transform="matrix(128,0,0,128,11366.8,5274.57)">
            <path d="M0.256,-0.058C0.281,-0.058 0.305,-0.061 0.326,-0.068C0.347,-0.074 0.366,-0.084 0.381,-0.097C0.396,-0.11 0.407,-0.126 0.416,-0.145C0.424,-0.164 0.428,-0.187 0.428,-0.213C0.428,-0.261 0.411,-0.298 0.377,-0.323C0.342,-0.347 0.295,-0.36 0.236,-0.36L0.142,-0.355L0.142,-0.7L0.485,-0.7L0.485,-0.628L0.217,-0.628L0.217,-0.425L0.267,-0.427C0.341,-0.427 0.399,-0.409 0.442,-0.373C0.485,-0.337 0.506,-0.286 0.506,-0.219C0.506,-0.182 0.5,-0.149 0.487,-0.12C0.474,-0.091 0.456,-0.067 0.433,-0.048C0.41,-0.028 0.384,-0.013 0.353,-0.003C0.321,0.007 0.288,0.012 0.251,0.012C0.231,0.012 0.212,0.011 0.194,0.008C0.176,0.005 0.16,0.001 0.145,-0.004C0.13,-0.008 0.117,-0.013 0.107,-0.018C0.095,-0.023 0.088,-0.027 0.083,-0.031L0.115,-0.096C0.126,-0.089 0.144,-0.081 0.167,-0.072C0.19,-0.063 0.22,-0.058 0.256,-0.058Z" style="fill-rule:nonzero;"/>
        </g>
        <g transform="matrix(128,0,0,128,11443.6,5274.57)">
            <path d="M0.233,-0.055C0.233,-0.076 0.239,-0.093 0.251,-0.105C0.263,-0.116 0.279,-0.122 0.299,-0.122C0.32,-0.122 0.337,-0.116 0.349,-0.105C0.361,-0.093 0.367,-0.076 0.367,-0.055C0.367,-0.036 0.361,-0.02 0.349,-0.007C0.337,0.006 0.32,0.012 0.299,0.012C0.279,0.012 0.263,0.006 0.251,-0.007C0.239,-0.02 0.233,-0.036 0.233,-0.055Z" style="fill:rgb(204,170,0);fill-rule:nonzero;"/>
        </g>
        <g transform="matrix(128,0,0,128,11520.4,5274.57)">
            <path d="M0.256,-0.058C0.281,-0.058 0.305,-0.061 0.326,-0.068C0.347,-0.074 0.366,-0.084 0.381,-0.097C0.396,-0.11 0.407,-0.126 0.416,-0.145C0.424,-0.164 0.428,-0.187 0.428,-0.213C0.428,-0.261 0.411,-0.298 0.377,-0.323C0.342,-0.347 0.295,-0.36 0.236,-0.36L0.142,-0.355L0.142,-0.7L0.485,-0.7L0.485,-0.628L0.217,-0.628L0.217,-0.425L0.267,-0.427C0.341,-0.427 0.399,-0.409 0.442,-0.373C0.485,-0.337 0.506,-0.286 0.506,-0.219C0.506,-0.182 0.5,-0.149 0.487,-0.12C0.474,-0.091 0.456,-0.067 0.433,-0.048C0.41,-0.028 0.384,-0.013 0.353,-0.003C0.321,0.007 0.288,0.012 0.251,0.012C0.231,0.012 0.212,0.011 0.194,0.008C0.176,0.005 0.16,0.001 0.145,-0.004C0.13,-0.008 0.117,-0.013 0.107,-0.018C0.095,-0.023 0.088,-0.027 0.083,-0.031L0.115,-0.096C0.126,-0.089 0.144,-0.081 0.167,-0.072C0.19,-0.063 0.22,-0.058 0.256,-0.058Z" style="fill-rule:nonzero;"/>
        </g>
    </g>
    <path d="M504.569,443.977L504.569,317.977" style="fill:none;stroke:rgb(204,170,0);stroke-width:2px;"/>
    <path d="M525.787,536.256L525.787,390.977" style="fill:none;stroke:rgb(255,0,0);stroke-width:2px;"/>
    <path d="M455.778,141.098L455.778,85.098" style="fill:none;stroke:black;stroke-width:4px;"/>
    <path d="M634.638,278.996L715.638,278.996" style="fill:none;stroke:rgb(0,106,255);stroke-width:2px;"/>
    <rect x="309.059" y="162.977" width="348.579" height="228" style="fill:none;stroke:rgb(255,0,0);stroke-width:2px;"/>
    <path d="M222.134,468.157L222.134,466.417L250.394,449.197L252.674,452.917L228.854,467.017L252.734,480.877L250.454,484.477L222.134,468.157Z" style="fill:rgb(204,170,0);fill-rule:nonzero;"/>
    <path d="M276.374,444.457L286.094,444.457L286.094,476.197C286.094,476.557 286.114,477.007 286.154,477.547C286.194,478.087 286.244,478.657 286.304,479.257C286.364,479.857 286.434,480.447 286.514,481.027C286.594,481.607 286.674,482.117 286.754,482.557L290.774,482.557L290.774,486.457L282.794,486.457L282.194,481.837L281.954,481.837C281.074,483.357 279.764,484.627 278.024,485.647C276.284,486.667 274.274,487.177 271.994,487.177C267.474,487.177 264.144,485.907 262.004,483.367C259.864,480.827 258.794,476.877 258.794,471.517C258.794,468.997 259.154,466.767 259.874,464.827C260.594,462.887 261.624,461.267 262.964,459.967C264.304,458.667 265.914,457.677 267.794,456.997C269.674,456.317 271.774,455.977 274.094,455.977C274.934,455.977 275.684,455.997 276.344,456.037C277.004,456.077 277.614,456.137 278.174,456.217C278.734,456.297 279.264,456.407 279.764,456.547C280.264,456.687 280.814,456.837 281.414,456.997L281.414,448.477L276.374,448.477L276.374,444.457ZM272.774,483.157C275.214,483.157 277.134,482.527 278.534,481.267C279.934,480.007 280.894,478.117 281.414,475.597L281.414,461.677C280.534,461.077 279.544,460.637 278.444,460.357C277.344,460.077 275.894,459.937 274.094,459.937C270.894,459.937 268.374,460.867 266.534,462.727C264.694,464.587 263.774,467.517 263.774,471.517C263.774,473.157 263.924,474.687 264.224,476.107C264.524,477.527 265.024,478.757 265.724,479.797C266.424,480.837 267.354,481.657 268.514,482.257C269.674,482.857 271.094,483.157 272.774,483.157Z" style="fill:rgb(204,170,0);fill-rule:nonzero;"/>
    <path d="M323.174,482.677C322.454,483.317 321.604,483.917 320.624,484.477C319.644,485.037 318.574,485.517 317.414,485.917C316.254,486.317 315.044,486.627 313.784,486.847C312.524,487.067 311.254,487.177 309.974,487.177C307.574,487.177 305.454,486.807 303.614,486.067C301.774,485.327 300.234,484.267 298.994,482.887C297.754,481.507 296.814,479.857 296.174,477.937C295.534,476.017 295.214,473.857 295.214,471.457C295.214,468.937 295.564,466.697 296.264,464.737C296.964,462.777 297.974,461.137 299.294,459.817C300.614,458.497 302.214,457.487 304.094,456.787C305.974,456.087 308.074,455.737 310.394,455.737C312.074,455.737 313.734,455.957 315.374,456.397C317.014,456.837 318.464,457.667 319.724,458.887C320.984,460.107 321.954,461.787 322.634,463.927C323.314,466.067 323.554,468.837 323.354,472.237L300.134,472.237C300.134,475.837 301.104,478.527 303.044,480.307C304.984,482.087 307.574,482.977 310.814,482.977C311.894,482.977 312.964,482.847 314.024,482.587C315.084,482.327 316.094,482.017 317.054,481.657C318.014,481.297 318.864,480.897 319.604,480.457C320.344,480.017 320.914,479.617 321.314,479.257L323.174,482.677ZM310.514,459.697C309.194,459.697 307.944,459.837 306.764,460.117C305.584,460.397 304.544,460.867 303.644,461.527C302.744,462.187 302.004,463.047 301.424,464.107C300.844,465.167 300.474,466.477 300.314,468.037L318.974,468.037C318.774,465.397 317.924,463.347 316.424,461.887C314.924,460.427 312.954,459.697 310.514,459.697Z" style="fill:rgb(204,170,0);fill-rule:nonzero;"/>
    <path d="M353.774,461.077C352.854,460.757 351.864,460.487 350.804,460.267C349.744,460.047 348.694,459.937 347.654,459.937C343.734,459.937 340.814,460.857 338.894,462.697C336.974,464.537 336.014,467.457 336.014,471.457C336.014,473.217 336.294,474.787 336.854,476.167C337.414,477.547 338.214,478.717 339.254,479.677C340.294,480.637 341.544,481.377 343.004,481.897C344.464,482.417 346.074,482.677 347.834,482.677C349.714,482.677 351.544,482.357 353.324,481.717C355.104,481.077 356.594,480.237 357.794,479.197L359.894,482.677C359.334,483.157 358.634,483.657 357.794,484.177C356.954,484.697 355.984,485.187 354.884,485.647C353.784,486.107 352.564,486.477 351.224,486.757C349.884,487.037 348.434,487.177 346.874,487.177C344.274,487.177 341.984,486.807 340.004,486.067C338.024,485.327 336.374,484.267 335.054,482.887C333.734,481.507 332.734,479.847 332.054,477.907C331.374,475.967 331.034,473.817 331.034,471.457C331.034,468.937 331.384,466.697 332.084,464.737C332.784,462.777 333.794,461.137 335.114,459.817C336.434,458.497 338.034,457.487 339.914,456.787C341.794,456.087 343.894,455.737 346.214,455.737C349.174,455.737 351.584,455.997 353.444,456.517C355.304,457.037 356.874,457.617 358.154,458.257L358.094,458.437L358.094,466.777L353.774,466.777L353.774,461.077Z" style="fill:rgb(204,170,0);fill-rule:nonzero;"/>
    <path d="M369.734,486.457L369.734,482.437L380.174,482.437L380.174,460.477L369.734,460.477L369.734,456.457L384.974,456.457L384.974,482.437L395.174,482.437L395.174,486.457L369.734,486.457ZM378.554,447.937C378.554,446.857 378.914,445.927 379.634,445.147C380.354,444.367 381.274,443.977 382.394,443.977C383.554,443.977 384.524,444.367 385.304,445.147C386.084,445.927 386.474,446.857 386.474,447.937C386.474,448.977 386.084,449.857 385.304,450.577C384.524,451.297 383.554,451.657 382.394,451.657C381.274,451.657 380.354,451.297 379.634,450.577C378.914,449.857 378.554,448.977 378.554,447.937Z" style="fill:rgb(204,170,0);fill-rule:nonzero;"/>
    <path d="M415.154,486.457L415.154,466.477C415.154,465.637 415.124,464.827 415.064,464.047C415.004,463.267 414.864,462.567 414.644,461.947C414.424,461.327 414.104,460.837 413.684,460.477C413.264,460.117 412.714,459.937 412.034,459.937C410.674,459.937 409.524,460.497 408.584,461.617C407.644,462.737 406.934,464.137 406.454,465.817L406.454,486.457L401.894,486.457L401.894,456.457L405.014,456.457L405.914,460.117L406.154,460.117C406.554,459.517 406.944,458.947 407.324,458.407C407.704,457.867 408.144,457.397 408.644,456.997C409.144,456.597 409.734,456.287 410.414,456.067C411.094,455.847 411.954,455.737 412.994,455.737C413.594,455.737 414.214,455.827 414.854,456.007C415.494,456.187 416.084,456.467 416.624,456.847C417.164,457.227 417.634,457.737 418.034,458.377C418.434,459.017 418.694,459.797 418.814,460.717C419.734,459.157 420.764,457.937 421.904,457.057C423.044,456.177 424.614,455.737 426.614,455.737C427.934,455.737 429.004,455.957 429.824,456.397C430.644,456.837 431.284,457.467 431.744,458.287C432.204,459.107 432.524,460.087 432.704,461.227C432.884,462.367 432.974,463.637 432.974,465.037L432.974,486.457L428.414,486.457L428.414,466.057C428.414,465.217 428.374,464.427 428.294,463.687C428.214,462.947 428.064,462.297 427.844,461.737C427.624,461.177 427.324,460.737 426.944,460.417C426.564,460.097 426.054,459.937 425.414,459.937C424.014,459.937 422.834,460.497 421.874,461.617C420.914,462.737 420.194,464.337 419.714,466.417L419.714,486.457L415.154,486.457Z" style="fill:rgb(204,170,0);fill-rule:nonzero;"/>
    <path d="M441.914,458.797C443.634,457.797 445.574,457.077 447.734,456.637C449.894,456.197 452.014,455.977 454.094,455.977C456.134,455.977 457.804,456.297 459.104,456.937C460.404,457.577 461.424,458.407 462.164,459.427C462.904,460.447 463.404,461.607 463.664,462.907C463.924,464.207 464.054,465.517 464.054,466.837C464.054,468.357 464.014,469.977 463.934,471.697C463.854,473.417 463.794,475.137 463.754,476.857C463.754,478.857 463.874,480.757 464.114,482.557L468.134,482.557L468.134,486.457L460.154,486.457L459.614,481.957L459.314,481.957C459.074,482.317 458.714,482.777 458.234,483.337C457.754,483.897 457.124,484.447 456.344,484.987C455.564,485.527 454.614,485.997 453.494,486.397C452.374,486.797 451.054,486.997 449.534,486.997C446.574,486.997 444.234,486.237 442.514,484.717C440.794,483.197 439.934,481.117 439.934,478.477C439.934,476.437 440.384,474.737 441.284,473.377C442.184,472.017 443.474,470.977 445.154,470.257C446.834,469.537 448.864,469.117 451.244,468.997C453.624,468.877 456.294,469.037 459.254,469.477C459.454,467.637 459.484,466.107 459.344,464.887C459.204,463.667 458.884,462.697 458.384,461.977C457.884,461.257 457.184,460.747 456.284,460.447C455.384,460.147 454.274,459.997 452.954,459.997C451.154,459.997 449.434,460.247 447.794,460.747C446.154,461.247 444.694,461.757 443.414,462.277L441.914,458.797ZM450.734,482.977C451.854,482.977 452.894,482.797 453.854,482.437C454.814,482.077 455.654,481.617 456.374,481.057C457.094,480.497 457.694,479.887 458.174,479.227C458.654,478.567 459.014,477.937 459.254,477.337L459.254,473.137C457.174,472.777 455.254,472.597 453.494,472.597C451.734,472.597 450.214,472.787 448.934,473.167C447.654,473.547 446.654,474.137 445.934,474.937C445.214,475.737 444.854,476.777 444.854,478.057C444.854,479.377 445.304,480.527 446.204,481.507C447.104,482.487 448.614,482.977 450.734,482.977Z" style="fill:rgb(204,170,0);fill-rule:nonzero;"/>
    <path d="M478.574,444.457L488.534,444.457L488.534,476.377C488.534,478.817 488.944,480.537 489.764,481.537C490.584,482.537 491.794,483.037 493.394,483.037C494.514,483.037 495.584,482.837 496.604,482.437C497.624,482.037 498.754,481.357 499.994,480.397L502.154,483.697C501.514,484.257 500.814,484.757 500.054,485.197C499.294,485.637 498.514,486.007 497.714,486.307C496.914,486.607 496.114,486.837 495.314,486.997C494.514,487.157 493.774,487.237 493.094,487.237C491.614,487.237 490.294,487.047 489.134,486.667C487.974,486.287 487.004,485.677 486.224,484.837C485.444,483.997 484.854,482.887 484.454,481.507C484.054,480.127 483.854,478.417 483.854,476.377L483.854,448.477L478.574,448.477L478.574,444.457Z" style="fill:rgb(204,170,0);fill-rule:nonzero;"/>
    <path d="M549.194,466.957C549.194,466.597 549.184,466.127 549.164,465.547C549.144,464.967 549.114,464.367 549.074,463.747C549.034,463.127 548.984,462.517 548.924,461.917C548.864,461.317 548.794,460.797 548.714,460.357L544.694,460.357L544.694,456.457L552.674,456.457L553.274,460.657L553.574,460.657C554.654,459.257 556.024,458.087 557.684,457.147C559.344,456.207 561.374,455.737 563.774,455.737C568.054,455.737 571.274,456.917 573.434,459.277C575.594,461.637 576.674,465.497 576.674,470.857C576.674,473.377 576.304,475.647 575.564,477.667C574.824,479.687 573.774,481.397 572.414,482.797C571.054,484.197 569.414,485.277 567.494,486.037C565.574,486.797 563.454,487.177 561.134,487.177C560.294,487.177 559.544,487.147 558.884,487.087C558.224,487.027 557.624,486.947 557.084,486.847C556.544,486.747 556.014,486.617 555.494,486.457C554.974,486.297 554.414,486.097 553.814,485.857L553.814,498.457L549.194,498.457L549.194,466.957ZM562.994,460.117C561.794,460.117 560.664,460.337 559.604,460.777C558.544,461.217 557.604,461.797 556.784,462.517C555.964,463.237 555.294,464.037 554.774,464.917C554.254,465.797 553.934,466.677 553.814,467.557L553.814,481.237C554.694,481.837 555.684,482.307 556.784,482.647C557.884,482.987 559.334,483.157 561.134,483.157C564.334,483.157 566.894,482.107 568.814,480.007C570.734,477.907 571.694,474.837 571.694,470.797C571.694,467.397 571.024,464.767 569.684,462.907C568.344,461.047 566.114,460.117 562.994,460.117Z" style="fill:rgb(204,170,0);fill-rule:nonzero;"/>
    <path d="M582.854,471.457C582.854,466.617 584.114,462.787 586.634,459.967C589.154,457.147 592.754,455.737 597.434,455.737C599.954,455.737 602.124,456.147 603.944,456.967C605.764,457.787 607.274,458.897 608.474,460.297C609.674,461.697 610.564,463.357 611.144,465.277C611.724,467.197 612.014,469.257 612.014,471.457C612.014,473.857 611.694,476.027 611.054,477.967C610.414,479.907 609.474,481.557 608.234,482.917C606.994,484.277 605.464,485.327 603.644,486.067C601.824,486.807 599.754,487.177 597.434,487.177C594.954,487.177 592.794,486.767 590.954,485.947C589.114,485.127 587.594,484.017 586.394,482.617C585.194,481.217 584.304,479.557 583.724,477.637C583.144,475.717 582.854,473.657 582.854,471.457ZM587.834,471.457C587.834,472.857 588.004,474.257 588.344,475.657C588.684,477.057 589.234,478.317 589.994,479.437C590.754,480.557 591.744,481.457 592.964,482.137C594.184,482.817 595.674,483.157 597.434,483.157C600.634,483.157 603.044,482.167 604.664,480.187C606.284,478.207 607.094,475.297 607.094,471.457C607.094,470.017 606.924,468.607 606.584,467.227C606.244,465.847 605.684,464.597 604.904,463.477C604.124,462.357 603.124,461.457 601.904,460.777C600.684,460.097 599.194,459.757 597.434,459.757C594.234,459.757 591.834,460.737 590.234,462.697C588.634,464.657 587.834,467.577 587.834,471.457Z" style="fill:rgb(204,170,0);fill-rule:nonzero;"/>
    <path d="M621.734,486.457L621.734,482.437L632.174,482.437L632.174,460.477L621.734,460.477L621.734,456.457L636.974,456.457L636.974,482.437L647.174,482.437L647.174,486.457L621.734,486.457ZM630.554,447.937C630.554,446.857 630.914,445.927 631.634,445.147C632.354,444.367 633.274,443.977 634.394,443.977C635.554,443.977 636.524,444.367 637.304,445.147C638.084,445.927 638.474,446.857 638.474,447.937C638.474,448.977 638.084,449.857 637.304,450.577C636.524,451.297 635.554,451.657 634.394,451.657C633.274,451.657 632.354,451.297 631.634,450.577C630.914,449.857 630.554,448.977 630.554,447.937Z" style="fill:rgb(204,170,0);fill-rule:nonzero;"/>
    <path d="M657.014,466.957C657.014,466.597 657.004,466.127 656.984,465.547C656.964,464.967 656.934,464.367 656.894,463.747C656.854,463.127 656.804,462.517 656.744,461.917C656.684,461.317 656.614,460.797 656.534,460.357L652.514,460.357L652.514,456.457L660.554,456.457L661.094,461.317L661.394,461.317C661.794,460.637 662.324,459.967 662.984,459.307C663.644,458.647 664.414,458.047 665.294,457.507C666.174,456.967 667.154,456.537 668.234,456.217C669.314,455.897 670.454,455.737 671.654,455.737C673.494,455.737 675.124,455.937 676.544,456.337C677.964,456.737 679.144,457.447 680.084,458.467C681.024,459.487 681.734,460.867 682.214,462.607C682.694,464.347 682.934,466.557 682.934,469.237L682.934,486.457L678.254,486.457L678.254,470.137C678.254,466.817 677.714,464.317 676.634,462.637C675.554,460.957 673.594,460.117 670.754,460.117C669.714,460.117 668.704,460.327 667.724,460.747C666.744,461.167 665.854,461.717 665.054,462.397C664.254,463.077 663.554,463.867 662.954,464.767C662.354,465.667 661.914,466.617 661.634,467.617L661.634,486.457L657.014,486.457L657.014,466.957Z" style="fill:rgb(204,170,0);fill-rule:nonzero;"/>
    <path d="M689.294,456.457L696.434,456.457L696.434,450.517L701.114,449.197L701.114,456.457L717.134,456.457L717.134,460.477L701.114,460.477L701.114,474.637C701.114,477.557 701.824,479.717 703.244,481.117C704.664,482.517 706.694,483.217 709.334,483.217C711.134,483.217 712.704,482.877 714.044,482.197C715.384,481.517 716.594,480.777 717.674,479.977L719.234,483.517C717.834,484.637 716.164,485.537 714.224,486.217C712.284,486.897 710.294,487.237 708.254,487.237C706.654,487.237 705.144,487.007 703.724,486.547C702.304,486.087 701.054,485.377 699.974,484.417C698.894,483.457 698.034,482.227 697.394,480.727C696.754,479.227 696.434,477.437 696.434,475.357L696.434,460.477L689.294,460.477L689.294,456.457Z" style="fill:rgb(204,170,0);fill-rule:nonzero;"/>
    <path d="M728.414,484.477L726.134,480.877L750.014,467.017L726.194,452.917L728.474,449.197L756.734,466.417L756.734,468.157L728.414,484.477Z" style="fill:rgb(204,170,0);fill-rule:nonzero;"/>
</svg>
