<?xml version="1.0" encoding="UTF-8" standalone="no"?>
<!DOCTYPE svg PUBLIC "-//W3C//DTD SVG 1.1//EN" "http://www.w3.org/Graphics/SVG/1.1/DTD/svg11.dtd">
<svg width="100%" height="100%" viewBox="0 0 602 172" version="1.1" xmlns="http://www.w3.org/2000/svg" xmlns:xlink="http://www.w3.org/1999/xlink" xml:space="preserve" xmlns:serif="http://www.serif.com/" style="fill-rule:evenodd;clip-rule:evenodd;stroke-miterlimit:1;">
    <g transform="matrix(1,0,0,1,-4213,-2165)">
        <g id="Features" transform="matrix(1.26784,0,0,1.46596,-2103.93,2039.2)">
            <rect x="4887" y="6" width="967" height="470" style="fill:none;"/>
            <g transform="matrix(0.788744,0,0,0.682148,3281.13,-903.906)">
                <path d="M2163,1522L2249,1454L2345.5,1512L2304,1595L2213,1615L2163,1522Z" style="fill:rgb(218,218,218);stroke:black;stroke-width:3px;"/>
            </g>
            <g transform="matrix(0.607461,0,0,0.682148,3703.66,-896.856)">
                <g transform="matrix(1.29843,-0,-0,1,2105.11,1440.55)">
                    <path d="M228.487,72.367L250.987,83.617L228.487,94.867L228.487,72.367Z"/>
                    <path d="M177.268,83.617L232.987,83.617" style="fill:none;stroke:black;stroke-width:5px;"/>
                </g>
            </g>
            <g transform="matrix(0.788744,0,0,0.682148,1734.39,-1371.34)">
                <g transform="matrix(36,0,0,36,4378.3,2231.87)">
                    <path d="M0.036,-0.295L0.036,-0.345L0.503,-0.635L0.56,-0.545L0.196,-0.325L0.56,-0.11L0.503,-0.02L0.036,-0.295Z" style="fill-rule:nonzero;"/>
                </g>
                <g transform="matrix(36,0,0,36,4399.9,2231.87)">
                    <path d="M0.313,-0.151L0.32,-0.151L0.432,-0.5L0.572,-0.5L0.381,-0L0.242,-0L0.027,-0.5L0.178,-0.5L0.313,-0.151Z" style="fill-rule:nonzero;"/>
                </g>
                <g transform="matrix(20.988,0,0,20.988,4421.5,2243.86)">
                    <path d="M0.106,-0.11L0.259,-0.11L0.259,-0.547L0.127,-0.446L0.067,-0.526L0.295,-0.7L0.383,-0.7L0.383,-0.11L0.533,-0.11L0.533,-0L0.106,-0L0.106,-0.11Z" style="fill-rule:nonzero;"/>
                </g>
                <g transform="matrix(36,0,0,36,4434.09,2231.87)">
                    <path d="M0.218,-0.064C0.218,-0.087 0.226,-0.105 0.241,-0.118C0.256,-0.131 0.274,-0.138 0.297,-0.138C0.334,-0.138 0.361,-0.126 0.38,-0.102C0.399,-0.078 0.408,-0.048 0.408,-0.013C0.408,0.017 0.402,0.044 0.391,0.069C0.379,0.094 0.364,0.115 0.345,0.133C0.326,0.151 0.306,0.166 0.283,0.177C0.26,0.188 0.237,0.196 0.214,0.2L0.187,0.145C0.203,0.141 0.219,0.135 0.236,0.128C0.252,0.121 0.267,0.112 0.28,0.101C0.293,0.09 0.305,0.077 0.314,0.062C0.323,0.047 0.328,0.031 0.329,0.014C0.309,0.018 0.292,0.019 0.278,0.016C0.264,0.012 0.253,0.007 0.244,-0.001C0.235,-0.008 0.228,-0.018 0.224,-0.029C0.22,-0.04 0.218,-0.051 0.218,-0.064Z" style="fill-rule:nonzero;"/>
                </g>
                <g transform="matrix(36,0,0,36,4477.29,2231.87)">
                    <path d="M0.313,-0.151L0.32,-0.151L0.432,-0.5L0.572,-0.5L0.381,-0L0.242,-0L0.027,-0.5L0.178,-0.5L0.313,-0.151Z" style="fill-rule:nonzero;"/>
                </g>
                <g transform="matrix(20.988,0,0,20.988,4498.89,2243.86)">
                    <path d="M0.523,-0L0.077,-0L0.077,-0.097C0.085,-0.104 0.095,-0.113 0.107,-0.124C0.119,-0.135 0.132,-0.147 0.148,-0.161C0.163,-0.175 0.178,-0.19 0.195,-0.207C0.212,-0.224 0.228,-0.241 0.244,-0.259C0.267,-0.284 0.287,-0.307 0.304,-0.328C0.321,-0.349 0.335,-0.368 0.346,-0.387C0.357,-0.405 0.365,-0.423 0.37,-0.441C0.375,-0.458 0.378,-0.476 0.378,-0.495C0.378,-0.508 0.375,-0.521 0.369,-0.534C0.363,-0.547 0.355,-0.558 0.344,-0.568C0.333,-0.577 0.321,-0.585 0.306,-0.591C0.291,-0.596 0.274,-0.599 0.256,-0.599C0.232,-0.599 0.21,-0.595 0.191,-0.588C0.171,-0.581 0.15,-0.568 0.129,-0.551L0.077,-0.643C0.105,-0.663 0.136,-0.68 0.171,-0.694C0.205,-0.707 0.244,-0.714 0.289,-0.714C0.318,-0.714 0.345,-0.71 0.372,-0.702C0.398,-0.694 0.421,-0.682 0.442,-0.667C0.462,-0.651 0.478,-0.631 0.49,-0.608C0.502,-0.585 0.508,-0.558 0.508,-0.527C0.508,-0.506 0.506,-0.486 0.503,-0.468C0.499,-0.449 0.493,-0.431 0.486,-0.413C0.478,-0.394 0.468,-0.375 0.456,-0.356C0.443,-0.337 0.428,-0.316 0.411,-0.293C0.398,-0.276 0.383,-0.258 0.368,-0.241C0.352,-0.223 0.336,-0.206 0.321,-0.19C0.306,-0.174 0.291,-0.159 0.276,-0.145C0.261,-0.131 0.247,-0.119 0.235,-0.11L0.523,-0.11L0.523,-0Z" style="fill-rule:nonzero;"/>
                </g>
                <g transform="matrix(36,0,0,36,4511.48,2231.87)">
                    <path d="M0.218,-0.064C0.218,-0.087 0.226,-0.105 0.241,-0.118C0.256,-0.131 0.274,-0.138 0.297,-0.138C0.334,-0.138 0.361,-0.126 0.38,-0.102C0.399,-0.078 0.408,-0.048 0.408,-0.013C0.408,0.017 0.402,0.044 0.391,0.069C0.379,0.094 0.364,0.115 0.345,0.133C0.326,0.151 0.306,0.166 0.283,0.177C0.26,0.188 0.237,0.196 0.214,0.2L0.187,0.145C0.203,0.141 0.219,0.135 0.236,0.128C0.252,0.121 0.267,0.112 0.28,0.101C0.293,0.09 0.305,0.077 0.314,0.062C0.323,0.047 0.328,0.031 0.329,0.014C0.309,0.018 0.292,0.019 0.278,0.016C0.264,0.012 0.253,0.007 0.244,-0.001C0.235,-0.008 0.228,-0.018 0.224,-0.029C0.22,-0.04 0.218,-0.051 0.218,-0.064Z" style="fill-rule:nonzero;"/>
                </g>
                <g transform="matrix(36,0,0,36,4554.68,2231.87)">
                    <path d="M0.219,-0.066C0.219,-0.089 0.226,-0.108 0.241,-0.122C0.256,-0.135 0.275,-0.142 0.299,-0.142C0.324,-0.142 0.344,-0.135 0.359,-0.122C0.374,-0.108 0.381,-0.089 0.381,-0.066C0.381,-0.043 0.374,-0.024 0.359,-0.01C0.344,0.004 0.324,0.011 0.299,0.011C0.275,0.011 0.256,0.004 0.241,-0.01C0.226,-0.024 0.219,-0.043 0.219,-0.066Z" style="fill-rule:nonzero;"/>
                </g>
                <g transform="matrix(36,0,0,36,4576.28,2231.87)">
                    <path d="M0.219,-0.066C0.219,-0.089 0.226,-0.108 0.241,-0.122C0.256,-0.135 0.275,-0.142 0.299,-0.142C0.324,-0.142 0.344,-0.135 0.359,-0.122C0.374,-0.108 0.381,-0.089 0.381,-0.066C0.381,-0.043 0.374,-0.024 0.359,-0.01C0.344,0.004 0.324,0.011 0.299,0.011C0.275,0.011 0.256,0.004 0.241,-0.01C0.226,-0.024 0.219,-0.043 0.219,-0.066Z" style="fill-rule:nonzero;"/>
                </g>
                <g transform="matrix(36,0,0,36,4597.88,2231.87)">
                    <path d="M0.219,-0.066C0.219,-0.089 0.226,-0.108 0.241,-0.122C0.256,-0.135 0.275,-0.142 0.299,-0.142C0.324,-0.142 0.344,-0.135 0.359,-0.122C0.374,-0.108 0.381,-0.089 0.381,-0.066C0.381,-0.043 0.374,-0.024 0.359,-0.01C0.344,0.004 0.324,0.011 0.299,0.011C0.275,0.011 0.256,0.004 0.241,-0.01C0.226,-0.024 0.219,-0.043 0.219,-0.066Z" style="fill-rule:nonzero;"/>
                </g>
                <g transform="matrix(36,0,0,36,4619.48,2231.87)">
                    <path d="M0.218,-0.064C0.218,-0.087 0.226,-0.105 0.241,-0.118C0.256,-0.131 0.274,-0.138 0.297,-0.138C0.334,-0.138 0.361,-0.126 0.38,-0.102C0.399,-0.078 0.408,-0.048 0.408,-0.013C0.408,0.017 0.402,0.044 0.391,0.069C0.379,0.094 0.364,0.115 0.345,0.133C0.326,0.151 0.306,0.166 0.283,0.177C0.26,0.188 0.237,0.196 0.214,0.2L0.187,0.145C0.203,0.141 0.219,0.135 0.236,0.128C0.252,0.121 0.267,0.112 0.28,0.101C0.293,0.09 0.305,0.077 0.314,0.062C0.323,0.047 0.328,0.031 0.329,0.014C0.309,0.018 0.292,0.019 0.278,0.016C0.264,0.012 0.253,0.007 0.244,-0.001C0.235,-0.008 0.228,-0.018 0.224,-0.029C0.22,-0.04 0.218,-0.051 0.218,-0.064Z" style="fill-rule:nonzero;"/>
                </g>
                <g transform="matrix(36,0,0,36,4662.68,2231.87)">
                    <path d="M0.313,-0.151L0.32,-0.151L0.432,-0.5L0.572,-0.5L0.381,-0L0.242,-0L0.027,-0.5L0.178,-0.5L0.313,-0.151Z" style="fill-rule:nonzero;"/>
                </g>
                <g transform="matrix(20.988,0,0,20.988,4684.28,2243.86)">
                    <path d="M0.012,-0.5L0.187,-0.5L0.202,-0.434L0.206,-0.434C0.221,-0.455 0.243,-0.474 0.272,-0.49C0.301,-0.506 0.335,-0.514 0.375,-0.514C0.4,-0.514 0.423,-0.511 0.445,-0.504C0.466,-0.497 0.485,-0.486 0.5,-0.471C0.515,-0.456 0.528,-0.435 0.537,-0.409C0.546,-0.382 0.55,-0.35 0.55,-0.311L0.55,-0L0.42,-0L0.42,-0.284C0.42,-0.325 0.411,-0.354 0.393,-0.372C0.374,-0.39 0.351,-0.399 0.323,-0.399C0.298,-0.399 0.276,-0.392 0.256,-0.378C0.235,-0.363 0.221,-0.345 0.214,-0.324L0.214,-0L0.084,-0L0.084,-0.39L0.012,-0.39L0.012,-0.5Z" style="fill-rule:nonzero;"/>
                </g>
                <g transform="matrix(36,0,0,36,4696.88,2231.87)">
                    <path d="M0.093,-0.02L0.036,-0.11L0.4,-0.325L0.036,-0.545L0.093,-0.635L0.56,-0.345L0.56,-0.295L0.093,-0.02Z" style="fill-rule:nonzero;"/>
                </g>
            </g>
        </g>
    </g>
</svg>
