<?xml version="1.0" encoding="UTF-8" standalone="no"?>
<!DOCTYPE svg PUBLIC "-//W3C//DTD SVG 1.1//EN" "http://www.w3.org/Graphics/SVG/1.1/DTD/svg11.dtd">
<svg width="100%" height="100%" viewBox="0 0 1592 533" version="1.1" xmlns="http://www.w3.org/2000/svg" xmlns:xlink="http://www.w3.org/1999/xlink" xml:space="preserve" xmlns:serif="http://www.serif.com/" style="fill-rule:evenodd;clip-rule:evenodd;stroke-linecap:square;stroke-linejoin:round;stroke-miterlimit:10;">
    <rect id="Clementini-Points-Polygons" serif:id="Clementini Points-Polygons" x="-293" y="-3603" width="2683.8" height="4517.66" style="fill:none;"/>
    <path d="M621.539,205.994L661.848,136.177L742.465,136.177L782.773,205.994L742.465,275.81L661.848,275.81L621.539,205.994Z" style="fill:rgb(198,237,237);stroke:rgb(21,183,183);stroke-width:6px;"/>
    <path d="M1270.77,206.041L1311.07,136.224L1391.69,136.224L1432,206.041L1391.69,275.857L1311.07,275.857L1270.77,206.041Z" style="fill:rgb(198,237,237);stroke:rgb(21,183,183);stroke-width:6px;"/>
    <circle cx="1351.38" cy="385.222" r="26" style="fill:rgb(21,183,183);"/>
    <circle cx="579.712" cy="383.424" r="26" style="fill:rgb(247,0,255);"/>
    <path d="M59.137,34.892L65.511,34.892L65.511,40.628C65.626,40.667 65.742,40.706 65.858,40.744C66.747,41.13 67.722,41.449 68.784,41.7C69.846,41.951 70.976,42.077 72.174,42.077C74.337,42.077 76.017,41.642 77.214,40.773C78.412,39.904 79.01,38.736 79.01,37.268C79.01,35.955 78.518,34.892 77.533,34.081C76.548,33.27 75.331,32.555 73.883,31.937C72.434,31.319 70.851,30.701 69.132,30.083C67.413,29.465 65.829,28.683 64.381,27.737C62.932,26.79 61.715,25.603 60.731,24.174C59.746,22.744 59.253,20.89 59.253,18.611C59.253,16.873 59.591,15.28 60.267,13.831C60.943,12.383 61.889,11.137 63.106,10.094C64.323,9.051 65.781,8.24 67.48,7.661C69.18,7.081 71.073,6.792 73.159,6.792C75.515,6.792 77.832,7.004 80.111,7.429C82.39,7.854 84.206,8.433 85.558,9.167L85.558,20.929L79.184,20.929L79.184,14.498C79.068,14.498 78.952,14.478 78.837,14.44C77.987,14.208 77.069,14.024 76.084,13.889C75.099,13.754 74.124,13.686 73.159,13.686C71.304,13.686 69.846,14.053 68.784,14.787C67.722,15.521 67.191,16.506 67.191,17.742C67.191,19.017 67.683,20.06 68.668,20.871C69.653,21.682 70.87,22.416 72.318,23.073C73.767,23.729 75.351,24.386 77.069,25.043C78.788,25.699 80.372,26.501 81.82,27.447C83.269,28.393 84.486,29.581 85.471,31.01C86.456,32.44 86.948,34.236 86.948,36.399C86.948,38.485 86.562,40.31 85.789,41.874C85.017,43.438 83.935,44.752 82.545,45.814C81.154,46.876 79.513,47.668 77.62,48.189C75.727,48.711 73.68,48.972 71.478,48.972C70.01,48.972 68.649,48.856 67.394,48.624C66.138,48.392 64.979,48.103 63.917,47.755C62.855,47.407 61.918,47.04 61.107,46.654C60.296,46.268 59.639,45.939 59.137,45.669L59.137,34.892Z" style="fill-rule:nonzero;"/>
    <path d="M96.972,41.787L103.577,41.787L103.577,13.976L98.015,13.976L98.015,20.987L91.641,20.987L91.641,7.603L123.392,7.603L123.392,20.987L117.019,20.987L117.019,13.976L111.514,13.976L111.514,41.787L118.062,41.787L118.062,48.16L96.972,48.16L96.972,41.787Z" style="fill-rule:nonzero;"/>
    <rect x="129.418" y="54.939" width="25.725" height="6.2" style="fill-rule:nonzero;"/>
    <path d="M185.387,34.545L191.761,34.545L191.761,46.133C190.524,47.021 188.95,47.716 187.038,48.218C185.126,48.721 183.166,48.972 181.158,48.972C178.608,48.972 176.184,48.595 173.886,47.842C171.588,47.089 169.57,45.872 167.832,44.192C166.093,42.511 164.703,40.329 163.66,37.644C162.617,34.96 162.096,31.706 162.096,27.882C162.096,23.903 162.685,20.572 163.863,17.887C165.041,15.203 166.557,13.04 168.411,11.398C170.265,9.756 172.331,8.578 174.61,7.864C176.889,7.149 179.13,6.792 181.331,6.792C183.649,6.792 185.609,6.985 187.212,7.371C188.815,7.757 190.138,8.202 191.181,8.704L191.181,20.755L184.808,20.755L184.808,14.15C183.61,13.957 182.374,13.86 181.1,13.86C179.593,13.86 178.193,14.14 176.899,14.7C175.605,15.261 174.475,16.12 173.51,17.279C172.544,18.438 171.791,19.896 171.25,21.653C170.709,23.411 170.439,25.487 170.439,27.882C170.439,29.967 170.69,31.87 171.192,33.589C171.694,35.308 172.428,36.785 173.394,38.021C174.359,39.257 175.537,40.213 176.928,40.889C178.319,41.565 179.902,41.903 181.679,41.903C182.954,41.903 184.19,41.787 185.387,41.555L185.387,34.545Z" style="fill-rule:nonzero;"/>
    <path d="M196.454,33.676C196.454,31.242 196.821,29.079 197.554,27.186C198.288,25.294 199.331,23.691 200.683,22.377C202.035,21.064 203.648,20.069 205.521,19.394C207.395,18.718 209.49,18.38 211.808,18.38C214.241,18.38 216.414,18.747 218.326,19.48C220.238,20.214 221.85,21.248 223.164,22.58C224.477,23.913 225.472,25.525 226.148,27.418C226.824,29.311 227.162,31.397 227.162,33.676C227.162,36.109 226.795,38.272 226.061,40.165C225.327,42.057 224.284,43.66 222.932,44.974C221.58,46.287 219.967,47.282 218.094,47.958C216.221,48.634 214.125,48.972 211.808,48.972C209.374,48.972 207.201,48.605 205.289,47.871C203.377,47.137 201.765,46.104 200.451,44.771C199.138,43.438 198.144,41.826 197.468,39.933C196.792,38.04 196.454,35.955 196.454,33.676ZM204.217,33.676C204.217,34.95 204.391,36.128 204.739,37.21C205.087,38.291 205.589,39.238 206.245,40.049C206.902,40.86 207.694,41.488 208.621,41.932C209.548,42.376 210.61,42.598 211.808,42.598C214.048,42.598 215.873,41.884 217.283,40.455C218.693,39.025 219.398,36.766 219.398,33.676C219.398,31.01 218.741,28.857 217.428,27.215C216.114,25.574 214.241,24.753 211.808,24.753C210.726,24.753 209.722,24.917 208.795,25.245C207.868,25.574 207.066,26.105 206.39,26.839C205.714,27.573 205.183,28.5 204.797,29.62C204.411,30.74 204.217,32.092 204.217,33.676Z" style="fill-rule:nonzero;"/>
    <path d="M247.324,39.412L247.73,39.412L254.219,19.191L262.331,19.191L251.264,48.16L243.211,48.16L230.754,19.191L239.503,19.191L247.324,39.412Z" style="fill-rule:nonzero;"/>
    <path d="M294.893,45.09C294.391,45.553 293.744,46.007 292.952,46.451C292.16,46.895 291.233,47.311 290.171,47.697C289.108,48.083 287.94,48.392 286.665,48.624C285.391,48.856 284.039,48.972 282.61,48.972C280.137,48.972 277.926,48.624 275.975,47.929C274.025,47.233 272.374,46.219 271.022,44.887C269.67,43.554 268.636,41.951 267.922,40.078C267.207,38.205 266.85,36.07 266.85,33.676C266.85,31.126 267.256,28.896 268.067,26.984C268.878,25.072 269.988,23.478 271.398,22.204C272.808,20.929 274.459,19.973 276.352,19.336C278.245,18.698 280.292,18.38 282.494,18.38C283.961,18.38 285.478,18.573 287.042,18.959C288.606,19.345 290.045,20.012 291.358,20.958C292.672,21.904 293.744,23.169 294.574,24.753C295.404,26.337 295.82,28.345 295.82,30.779C295.82,32.44 295.627,34.236 295.24,36.167L274.382,36.167C274.421,37.403 274.681,38.446 275.164,39.296C275.647,40.145 276.284,40.841 277.076,41.382C277.868,41.922 278.776,42.318 279.799,42.569C280.823,42.82 281.914,42.946 283.073,42.946C285.391,42.946 287.293,42.676 288.78,42.135C290.267,41.594 291.474,40.937 292.401,40.165L294.893,45.09ZM282.378,24.405C281.373,24.405 280.427,24.54 279.539,24.811C278.65,25.081 277.849,25.477 277.134,25.999C276.42,26.52 275.831,27.167 275.367,27.94C274.904,28.712 274.633,29.581 274.556,30.547L288.809,30.547C288.809,28.654 288.278,27.157 287.216,26.057C286.153,24.956 284.541,24.405 282.378,24.405Z" style="fill-rule:nonzero;"/>
    <path d="M300.976,41.787L308.161,41.787L308.161,25.564L300.976,25.564L300.976,19.191L314.013,19.191L314.882,23.015L315.114,23.015C316.195,21.74 317.431,20.678 318.822,19.828C320.212,18.978 321.835,18.553 323.689,18.553C326.006,18.553 327.831,19.403 329.164,21.103C330.496,22.802 331.163,25.641 331.163,29.62L324.384,29.62C324.384,28.229 324.181,27.215 323.775,26.578C323.37,25.941 322.723,25.622 321.835,25.622C320.289,25.622 319.044,26.008 318.097,26.781C317.151,27.553 316.35,28.442 315.693,29.446L315.693,41.787L328.266,41.787L328.266,48.16L300.976,48.16L300.976,41.787Z" style="fill-rule:nonzero;"/>
    <path d="M364.42,45.09C363.918,45.553 363.271,46.007 362.479,46.451C361.687,46.895 360.76,47.311 359.698,47.697C358.636,48.083 357.467,48.392 356.193,48.624C354.918,48.856 353.566,48.972 352.137,48.972C349.665,48.972 347.453,48.624 345.503,47.929C343.552,47.233 341.901,46.219 340.549,44.887C339.197,43.554 338.164,41.951 337.449,40.078C336.735,38.205 336.377,36.07 336.377,33.676C336.377,31.126 336.783,28.896 337.594,26.984C338.405,25.072 339.516,23.478 340.926,22.204C342.335,20.929 343.987,19.973 345.879,19.336C347.772,18.698 349.819,18.38 352.021,18.38C353.489,18.38 355.005,18.573 356.569,18.959C358.134,19.345 359.572,20.012 360.886,20.958C362.199,21.904 363.271,23.169 364.101,24.753C364.932,26.337 365.347,28.345 365.347,30.779C365.347,32.44 365.154,34.236 364.768,36.167L343.909,36.167C343.948,37.403 344.209,38.446 344.692,39.296C345.174,40.145 345.812,40.841 346.604,41.382C347.395,41.922 348.303,42.318 349.327,42.569C350.35,42.82 351.442,42.946 352.6,42.946C354.918,42.946 356.82,42.676 358.307,42.135C359.795,41.594 361.002,40.937 361.929,40.165L364.42,45.09ZM351.905,24.405C350.901,24.405 349.954,24.54 349.066,24.811C348.178,25.081 347.376,25.477 346.662,25.999C345.947,26.52 345.358,27.167 344.894,27.94C344.431,28.712 344.161,29.581 344.083,30.547L358.336,30.547C358.336,28.654 357.805,27.157 356.743,26.057C355.681,24.956 354.068,24.405 351.905,24.405Z" style="fill-rule:nonzero;"/>
    <path d="M385.973,7.603L398.083,7.603L398.083,32.633C398.083,35.53 398.237,38.388 398.546,41.208C398.546,41.401 398.566,41.594 398.604,41.787L402.312,41.787L402.312,48.16L392.984,48.16L392.231,44.452L391.999,44.452C391.613,45.148 391.091,45.766 390.435,46.306C389.778,46.847 389.044,47.32 388.233,47.726C387.422,48.131 386.534,48.44 385.568,48.653C384.602,48.865 383.637,48.972 382.671,48.972C380.855,48.972 379.146,48.682 377.543,48.103C375.94,47.523 374.54,46.625 373.343,45.408C372.145,44.192 371.199,42.647 370.504,40.773C369.808,38.9 369.461,36.688 369.461,34.139C369.461,31.667 369.837,29.465 370.591,27.534C371.344,25.603 372.387,23.971 373.719,22.638C375.052,21.306 376.626,20.282 378.441,19.567C380.257,18.853 382.246,18.495 384.409,18.495C385.607,18.495 386.736,18.563 387.799,18.698C388.861,18.833 389.778,19.056 390.551,19.365L390.551,13.976L385.973,13.976L385.973,7.603ZM384.409,42.598C385.877,42.598 387.181,42.241 388.32,41.526C389.459,40.812 390.203,39.779 390.551,38.427L390.551,26.143C390.01,25.719 389.266,25.4 388.32,25.187C387.374,24.975 386.379,24.869 385.336,24.869C384.293,24.869 383.279,25.043 382.294,25.39C381.309,25.738 380.44,26.288 379.687,27.042C378.934,27.795 378.335,28.77 377.891,29.967C377.447,31.165 377.225,32.633 377.225,34.371C377.225,36.843 377.843,38.832 379.079,40.339C380.315,41.845 382.092,42.598 384.409,42.598Z" style="fill-rule:nonzero;"/>
    <path d="M433.889,17.047C433.889,18.051 433.764,19.056 433.513,20.06C433.262,21.064 432.846,21.981 432.267,22.812C431.688,23.642 430.934,24.376 430.007,25.014C429.08,25.651 427.96,26.124 426.647,26.433L426.647,26.781C427.806,26.974 428.907,27.302 429.949,27.766C430.992,28.229 431.9,28.867 432.673,29.678C433.445,30.489 434.054,31.474 434.498,32.633C434.942,33.791 435.164,35.163 435.164,36.746C435.164,38.832 434.72,40.638 433.831,42.164C432.943,43.689 431.755,44.935 430.268,45.901C428.781,46.866 427.091,47.581 425.198,48.045C423.306,48.508 421.355,48.74 419.347,48.74L416.826,48.74C415.803,48.74 414.702,48.711 413.524,48.653C412.346,48.595 411.148,48.508 409.931,48.392C408.715,48.276 407.604,48.103 406.6,47.871L406.6,7.893C407.334,7.777 408.174,7.661 409.12,7.545C410.067,7.429 411.081,7.332 412.162,7.255C413.244,7.178 414.354,7.12 415.494,7.081C416.633,7.043 417.763,7.023 418.883,7.023C420.776,7.023 422.62,7.168 424.416,7.458C426.212,7.748 427.815,8.26 429.225,8.993C430.635,9.727 431.765,10.751 432.615,12.064C433.464,13.377 433.889,15.038 433.889,17.047ZM419.405,42.193C420.37,42.193 421.307,42.077 422.215,41.845C423.122,41.613 423.924,41.256 424.619,40.773C425.314,40.29 425.874,39.682 426.299,38.948C426.724,38.214 426.937,37.345 426.937,36.341C426.937,35.066 426.686,34.062 426.183,33.328C425.681,32.594 425.025,32.024 424.213,31.619C423.402,31.213 422.495,30.952 421.49,30.837C420.486,30.721 419.482,30.663 418.477,30.663L414.248,30.663L414.248,41.845C414.441,41.922 414.75,41.98 415.175,42.019C415.6,42.057 416.054,42.086 416.537,42.106C417.019,42.125 417.521,42.144 418.043,42.164C418.564,42.183 419.018,42.193 419.405,42.193ZM416.797,24.637C417.338,24.637 417.966,24.618 418.68,24.579C419.395,24.54 419.984,24.483 420.447,24.405C421.915,23.942 423.18,23.246 424.242,22.319C425.305,21.392 425.836,20.176 425.836,18.669C425.836,17.665 425.643,16.835 425.256,16.178C424.87,15.521 424.358,15 423.721,14.614C423.084,14.227 422.359,13.957 421.548,13.802C420.737,13.648 419.887,13.571 418.999,13.571C417.995,13.571 417.068,13.59 416.218,13.629C415.368,13.667 414.711,13.725 414.248,13.802L414.248,24.637L416.797,24.637Z" style="fill-rule:nonzero;"/>
    <path d="M455.211,39.991L457.413,39.991L463.033,19.191L470.797,19.191L462.569,45.321C461.835,47.484 461.121,49.464 460.426,51.26C459.73,53.056 458.919,54.611 457.992,55.924C457.065,57.238 455.974,58.252 454.719,58.966C453.463,59.681 451.928,60.038 450.112,60.038C449.224,60.038 448.384,59.922 447.592,59.69C446.8,59.459 446.076,59.179 445.419,58.85C444.763,58.522 444.183,58.174 443.681,57.807C443.179,57.44 442.773,57.102 442.464,56.793L446.346,51.637C446.848,52.062 447.447,52.458 448.142,52.825C448.838,53.192 449.494,53.375 450.112,53.375C451.271,53.375 452.189,52.969 452.865,52.158C453.54,51.347 454.187,50.015 454.806,48.16L450.692,48.16L438.64,19.191L446.81,19.191L455.211,39.991Z" style="fill-rule:nonzero;"/>
    <path d="M497.391,6.908L503.069,9.457L482.385,56.272L476.707,53.607L497.391,6.908Z" style="fill-rule:nonzero;"/>
    <path d="M511.065,34.892L517.438,34.892L517.438,40.628C517.554,40.667 517.67,40.706 517.786,40.744C518.674,41.13 519.649,41.449 520.712,41.7C521.774,41.951 522.904,42.077 524.101,42.077C526.264,42.077 527.944,41.642 529.142,40.773C530.339,39.904 530.938,38.736 530.938,37.268C530.938,35.955 530.445,34.892 529.46,34.081C528.475,33.27 527.259,32.555 525.81,31.937C524.362,31.319 522.778,30.701 521.059,30.083C519.34,29.465 517.757,28.683 516.308,27.737C514.86,26.79 513.643,25.603 512.658,24.174C511.673,22.744 511.181,20.89 511.181,18.611C511.181,16.873 511.519,15.28 512.195,13.831C512.87,12.383 513.817,11.137 515.034,10.094C516.25,9.051 517.708,8.24 519.408,7.661C521.108,7.081 523,6.792 525.086,6.792C527.442,6.792 529.76,7.004 532.039,7.429C534.318,7.854 536.133,8.433 537.485,9.167L537.485,20.929L531.112,20.929L531.112,14.498C530.996,14.498 530.88,14.478 530.764,14.44C529.914,14.208 528.997,14.024 528.012,13.889C527.027,13.754 526.052,13.686 525.086,13.686C523.232,13.686 521.774,14.053 520.712,14.787C519.649,15.521 519.118,16.506 519.118,17.742C519.118,19.017 519.611,20.06 520.596,20.871C521.581,21.682 522.797,22.416 524.246,23.073C525.694,23.729 527.278,24.386 528.997,25.043C530.716,25.699 532.299,26.501 533.748,27.447C535.196,28.393 536.413,29.581 537.398,31.01C538.383,32.44 538.876,34.236 538.876,36.399C538.876,38.485 538.489,40.31 537.717,41.874C536.944,43.438 535.863,44.752 534.472,45.814C533.082,46.876 531.44,47.668 529.547,48.189C527.655,48.711 525.607,48.972 523.406,48.972C521.938,48.972 520.576,48.856 519.321,48.624C518.066,48.392 516.907,48.103 515.845,47.755C514.782,47.407 513.846,47.04 513.035,46.654C512.223,46.268 511.567,45.939 511.065,45.669L511.065,34.892Z" style="fill-rule:nonzero;"/>
    <path d="M548.899,41.787L555.504,41.787L555.504,13.976L549.942,13.976L549.942,20.987L543.569,20.987L543.569,7.603L575.32,7.603L575.32,20.987L568.946,20.987L568.946,13.976L563.442,13.976L563.442,41.787L569.989,41.787L569.989,48.16L548.899,48.16L548.899,41.787Z" style="fill-rule:nonzero;"/>
    <rect x="581.345" y="54.939" width="25.725" height="6.2" style="fill-rule:nonzero;"/>
    <path d="M637.315,34.545L643.688,34.545L643.688,46.133C642.452,47.021 640.878,47.716 638.966,48.218C637.054,48.721 635.094,48.972 633.085,48.972C630.536,48.972 628.112,48.595 625.814,47.842C623.515,47.089 621.497,45.872 619.759,44.192C618.021,42.511 616.63,40.329 615.587,37.644C614.545,34.96 614.023,31.706 614.023,27.882C614.023,23.903 614.612,20.572 615.79,17.887C616.968,15.203 618.484,13.04 620.338,11.398C622.193,9.756 624.259,8.578 626.538,7.864C628.817,7.149 631.057,6.792 633.259,6.792C635.577,6.792 637.537,6.985 639.14,7.371C640.743,7.757 642.066,8.202 643.109,8.704L643.109,20.755L636.735,20.755L636.735,14.15C635.538,13.957 634.302,13.86 633.027,13.86C631.521,13.86 630.121,14.14 628.827,14.7C627.533,15.261 626.403,16.12 625.437,17.279C624.471,18.438 623.718,19.896 623.177,21.653C622.637,23.411 622.366,25.487 622.366,27.882C622.366,29.967 622.617,31.87 623.12,33.589C623.622,35.308 624.356,36.785 625.321,38.021C626.287,39.257 627.465,40.213 628.856,40.889C630.246,41.565 631.83,41.903 633.607,41.903C634.881,41.903 636.117,41.787 637.315,41.555L637.315,34.545Z" style="fill-rule:nonzero;"/>
    <path d="M648.381,33.676C648.381,31.242 648.748,29.079 649.482,27.186C650.216,25.294 651.259,23.691 652.611,22.377C653.963,21.064 655.575,20.069 657.449,19.394C659.322,18.718 661.418,18.38 663.735,18.38C666.169,18.38 668.341,18.747 670.253,19.48C672.165,20.214 673.778,21.248 675.091,22.58C676.404,23.913 677.399,25.525 678.075,27.418C678.751,29.311 679.089,31.397 679.089,33.676C679.089,36.109 678.722,38.272 677.988,40.165C677.254,42.057 676.211,43.66 674.859,44.974C673.508,46.287 671.895,47.282 670.022,47.958C668.148,48.634 666.053,48.972 663.735,48.972C661.302,48.972 659.129,48.605 657.217,47.871C655.305,47.137 653.692,46.104 652.379,44.771C651.066,43.438 650.071,41.826 649.395,39.933C648.719,38.04 648.381,35.955 648.381,33.676ZM656.145,33.676C656.145,34.95 656.319,36.128 656.666,37.21C657.014,38.291 657.516,39.238 658.173,40.049C658.83,40.86 659.621,41.488 660.548,41.932C661.475,42.376 662.538,42.598 663.735,42.598C665.975,42.598 667.8,41.884 669.21,40.455C670.62,39.025 671.325,36.766 671.325,33.676C671.325,31.01 670.668,28.857 669.355,27.215C668.042,25.574 666.169,24.753 663.735,24.753C662.654,24.753 661.649,24.917 660.722,25.245C659.795,25.574 658.994,26.105 658.318,26.839C657.642,27.573 657.111,28.5 656.724,29.62C656.338,30.74 656.145,32.092 656.145,33.676Z" style="fill-rule:nonzero;"/>
    <path d="M699.252,39.412L699.658,39.412L706.147,19.191L714.258,19.191L703.192,48.16L695.138,48.16L682.681,19.191L691.43,19.191L699.252,39.412Z" style="fill-rule:nonzero;"/>
    <path d="M746.82,45.09C746.318,45.553 745.671,46.007 744.879,46.451C744.087,46.895 743.16,47.311 742.098,47.697C741.036,48.083 739.867,48.392 738.593,48.624C737.318,48.856 735.966,48.972 734.537,48.972C732.065,48.972 729.854,48.624 727.903,47.929C725.952,47.233 724.301,46.219 722.949,44.887C721.597,43.554 720.564,41.951 719.849,40.078C719.135,38.205 718.778,36.07 718.778,33.676C718.778,31.126 719.183,28.896 719.994,26.984C720.805,25.072 721.916,23.478 723.326,22.204C724.736,20.929 726.387,19.973 728.28,19.336C730.172,18.698 732.219,18.38 734.421,18.38C735.889,18.38 737.405,18.573 738.969,18.959C740.534,19.345 741.973,20.012 743.286,20.958C744.599,21.904 745.671,23.169 746.502,24.753C747.332,26.337 747.747,28.345 747.747,30.779C747.747,32.44 747.554,34.236 747.168,36.167L726.31,36.167C726.348,37.403 726.609,38.446 727.092,39.296C727.575,40.145 728.212,40.841 729.004,41.382C729.796,41.922 730.703,42.318 731.727,42.569C732.751,42.82 733.842,42.946 735.001,42.946C737.318,42.946 739.22,42.676 740.708,42.135C742.195,41.594 743.402,40.937 744.329,40.165L746.82,45.09ZM734.305,24.405C733.301,24.405 732.355,24.54 731.466,24.811C730.578,25.081 729.776,25.477 729.062,25.999C728.347,26.52 727.758,27.167 727.295,27.94C726.831,28.712 726.561,29.581 726.483,30.547L740.737,30.547C740.737,28.654 740.205,27.157 739.143,26.057C738.081,24.956 736.468,24.405 734.305,24.405Z" style="fill-rule:nonzero;"/>
    <path d="M752.904,41.787L760.088,41.787L760.088,25.564L752.904,25.564L752.904,19.191L765.94,19.191L766.809,23.015L767.041,23.015C768.123,21.74 769.359,20.678 770.749,19.828C772.14,18.978 773.762,18.553 775.616,18.553C777.934,18.553 779.759,19.403 781.091,21.103C782.424,22.802 783.09,25.641 783.09,29.62L776.311,29.62C776.311,28.229 776.109,27.215 775.703,26.578C775.297,25.941 774.65,25.622 773.762,25.622C772.217,25.622 770.971,26.008 770.025,26.781C769.079,27.553 768.277,28.442 767.62,29.446L767.62,41.787L780.193,41.787L780.193,48.16L752.904,48.16L752.904,41.787Z" style="fill-rule:nonzero;"/>
    <path d="M808.7,40.165C808.7,39.392 808.226,38.774 807.28,38.311C806.334,37.847 805.165,37.422 803.775,37.036C802.384,36.65 800.858,36.254 799.197,35.848C797.537,35.443 796.011,34.883 794.62,34.168C793.23,33.453 792.061,32.546 791.115,31.445C790.169,30.344 789.695,28.925 789.695,27.186C789.695,25.757 790.014,24.502 790.651,23.42C791.289,22.339 792.158,21.421 793.259,20.668C794.36,19.915 795.673,19.345 797.199,18.959C798.724,18.573 800.376,18.38 802.152,18.38C804.045,18.38 805.706,18.515 807.135,18.785C808.564,19.056 809.81,19.384 810.872,19.77C811.934,20.156 812.842,20.591 813.595,21.074C814.349,21.557 814.996,21.991 815.536,22.377L812.35,27.534C811.77,27.186 811.104,26.829 810.351,26.462C809.598,26.095 808.806,25.757 807.975,25.448C807.145,25.139 806.276,24.888 805.368,24.695C804.46,24.502 803.562,24.405 802.674,24.405C801.052,24.405 799.738,24.618 798.734,25.043C797.73,25.468 797.228,26.124 797.228,27.013C797.228,27.708 797.701,28.268 798.647,28.693C799.593,29.118 800.762,29.514 802.152,29.881C803.543,30.248 805.069,30.643 806.73,31.068C808.391,31.493 809.916,32.044 811.307,32.72C812.697,33.396 813.866,34.274 814.812,35.356C815.758,36.437 816.232,37.828 816.232,39.527C816.232,42.463 815.16,44.771 813.016,46.451C810.872,48.131 807.695,48.972 803.485,48.972C800.163,48.972 797.295,48.479 794.881,47.494C792.467,46.509 790.526,45.36 789.058,44.047L792.534,38.6C793.037,39.025 793.703,39.499 794.533,40.02C795.364,40.541 796.3,41.015 797.343,41.439C798.386,41.864 799.497,42.222 800.675,42.511C801.853,42.801 803.021,42.946 804.18,42.946C805.416,42.946 806.479,42.733 807.367,42.309C808.255,41.884 808.7,41.169 808.7,40.165Z" style="fill-rule:nonzero;"/>
    <path d="M928.221,34.892L934.594,34.892L934.594,40.628C934.71,40.667 934.826,40.706 934.942,40.744C935.83,41.13 936.805,41.449 937.867,41.7C938.93,41.951 940.06,42.077 941.257,42.077C943.42,42.077 945.1,41.642 946.298,40.773C947.495,39.904 948.094,38.736 948.094,37.268C948.094,35.955 947.601,34.892 946.616,34.081C945.631,33.27 944.415,32.555 942.966,31.937C941.518,31.319 939.934,30.701 938.215,30.083C936.496,29.465 934.913,28.683 933.464,27.737C932.016,26.79 930.799,25.603 929.814,24.174C928.829,22.744 928.336,20.89 928.336,18.611C928.336,16.873 928.674,15.28 929.35,13.831C930.026,12.383 930.973,11.137 932.189,10.094C933.406,9.051 934.864,8.24 936.564,7.661C938.263,7.081 940.156,6.792 942.242,6.792C944.598,6.792 946.916,7.004 949.195,7.429C951.474,7.854 953.289,8.433 954.641,9.167L954.641,20.929L948.268,20.929L948.268,14.498C948.152,14.498 948.036,14.478 947.92,14.44C947.07,14.208 946.153,14.024 945.168,13.889C944.183,13.754 943.208,13.686 942.242,13.686C940.388,13.686 938.93,14.053 937.867,14.787C936.805,15.521 936.274,16.506 936.274,17.742C936.274,19.017 936.767,20.06 937.752,20.871C938.737,21.682 939.953,22.416 941.402,23.073C942.85,23.729 944.434,24.386 946.153,25.043C947.872,25.699 949.455,26.501 950.904,27.447C952.352,28.393 953.569,29.581 954.554,31.01C955.539,32.44 956.031,34.236 956.031,36.399C956.031,38.485 955.645,40.31 954.873,41.874C954.1,43.438 953.019,44.752 951.628,45.814C950.238,46.876 948.596,47.668 946.703,48.189C944.811,48.711 942.763,48.972 940.562,48.972C939.094,48.972 937.732,48.856 936.477,48.624C935.222,48.392 934.063,48.103 933.001,47.755C931.938,47.407 931.002,47.04 930.191,46.654C929.379,46.268 928.723,45.939 928.221,45.669L928.221,34.892Z" style="fill-rule:nonzero;"/>
    <path d="M966.055,41.787L972.66,41.787L972.66,13.976L967.098,13.976L967.098,20.987L960.725,20.987L960.725,7.603L992.475,7.603L992.475,20.987L986.102,20.987L986.102,13.976L980.598,13.976L980.598,41.787L987.145,41.787L987.145,48.16L966.055,48.16L966.055,41.787Z" style="fill-rule:nonzero;"/>
    <rect x="998.501" y="54.939" width="25.725" height="6.2" style="fill-rule:nonzero;"/>
    <path d="M1054.47,34.545L1060.84,34.545L1060.84,46.133C1059.61,47.021 1058.03,47.716 1056.12,48.218C1054.21,48.721 1052.25,48.972 1050.24,48.972C1047.69,48.972 1045.27,48.595 1042.97,47.842C1040.67,47.089 1038.65,45.872 1036.91,44.192C1035.18,42.511 1033.79,40.329 1032.74,37.644C1031.7,34.96 1031.18,31.706 1031.18,27.882C1031.18,23.903 1031.77,20.572 1032.95,17.887C1034.12,15.203 1035.64,13.04 1037.49,11.398C1039.35,9.756 1041.41,8.578 1043.69,7.864C1045.97,7.149 1048.21,6.792 1050.41,6.792C1052.73,6.792 1054.69,6.985 1056.3,7.371C1057.9,7.757 1059.22,8.202 1060.27,8.704L1060.27,20.755L1053.89,20.755L1053.89,14.15C1052.69,13.957 1051.46,13.86 1050.18,13.86C1048.68,13.86 1047.28,14.14 1045.98,14.7C1044.69,15.261 1043.56,16.12 1042.59,17.279C1041.63,18.438 1040.87,19.896 1040.33,21.653C1039.79,23.411 1039.52,25.487 1039.52,27.882C1039.52,29.967 1039.77,31.87 1040.28,33.589C1040.78,35.308 1041.51,36.785 1042.48,38.021C1043.44,39.257 1044.62,40.213 1046.01,40.889C1047.4,41.565 1048.99,41.903 1050.76,41.903C1052.04,41.903 1053.27,41.787 1054.47,41.555L1054.47,34.545Z" style="fill-rule:nonzero;"/>
    <path d="M1065.54,33.676C1065.54,31.242 1065.9,29.079 1066.64,27.186C1067.37,25.294 1068.41,23.691 1069.77,22.377C1071.12,21.064 1072.73,20.069 1074.61,19.394C1076.48,18.718 1078.57,18.38 1080.89,18.38C1083.32,18.38 1085.5,18.747 1087.41,19.48C1089.32,20.214 1090.93,21.248 1092.25,22.58C1093.56,23.913 1094.56,25.525 1095.23,27.418C1095.91,29.311 1096.25,31.397 1096.25,33.676C1096.25,36.109 1095.88,38.272 1095.14,40.165C1094.41,42.057 1093.37,43.66 1092.02,44.974C1090.66,46.287 1089.05,47.282 1087.18,47.958C1085.3,48.634 1083.21,48.972 1080.89,48.972C1078.46,48.972 1076.29,48.605 1074.37,47.871C1072.46,47.137 1070.85,46.104 1069.54,44.771C1068.22,43.438 1067.23,41.826 1066.55,39.933C1065.88,38.04 1065.54,35.955 1065.54,33.676ZM1073.3,33.676C1073.3,34.95 1073.47,36.128 1073.82,37.21C1074.17,38.291 1074.67,39.238 1075.33,40.049C1075.99,40.86 1076.78,41.488 1077.7,41.932C1078.63,42.376 1079.69,42.598 1080.89,42.598C1083.13,42.598 1084.96,41.884 1086.37,40.455C1087.78,39.025 1088.48,36.766 1088.48,33.676C1088.48,31.01 1087.82,28.857 1086.51,27.215C1085.2,25.574 1083.32,24.753 1080.89,24.753C1079.81,24.753 1078.81,24.917 1077.88,25.245C1076.95,25.574 1076.15,26.105 1075.47,26.839C1074.8,27.573 1074.27,28.5 1073.88,29.62C1073.49,30.74 1073.3,32.092 1073.3,33.676Z" style="fill-rule:nonzero;"/>
    <path d="M1098.97,19.191L1109.11,19.191L1109.98,23.015L1110.21,23.015C1111.1,21.779 1112.37,20.697 1114.03,19.77C1115.69,18.843 1117.68,18.38 1120,18.38C1121.43,18.38 1122.77,18.573 1124.03,18.959C1125.28,19.345 1126.35,19.983 1127.24,20.871C1128.13,21.759 1128.84,22.966 1129.36,24.492C1129.88,26.018 1130.14,27.901 1130.14,30.141L1130.14,48.16L1122.61,48.16L1122.61,31.706C1122.61,29.349 1122.08,27.65 1121.01,26.607C1119.95,25.564 1118.61,25.043 1116.99,25.043C1115.56,25.043 1114.25,25.458 1113.08,26.288C1111.9,27.119 1111.1,28.152 1110.67,29.388L1110.67,48.16L1103.14,48.16L1103.14,25.564L1098.97,25.564L1098.97,19.191Z" style="fill-rule:nonzero;"/>
    <path d="M1139.76,25.564L1134.02,25.564L1134.02,19.191L1139.76,19.191L1139.76,12.586L1147.29,10.442L1147.29,19.191L1162.47,19.191L1162.47,25.564L1147.29,25.564L1147.29,33.849C1147.29,36.824 1147.85,38.977 1148.97,40.31C1150.09,41.642 1151.65,42.309 1153.66,42.309C1154.71,42.309 1155.65,42.183 1156.5,41.932C1157.35,41.681 1158.12,41.362 1158.79,40.976C1159.47,40.59 1160.08,40.165 1160.64,39.701C1161.2,39.238 1161.72,38.813 1162.18,38.427L1165.66,43.641C1165,44.414 1164.18,45.119 1163.19,45.756C1162.21,46.393 1161.15,46.953 1160.01,47.436C1158.87,47.919 1157.68,48.296 1156.44,48.566C1155.21,48.836 1153.99,48.972 1152.79,48.972C1148.47,48.972 1145.21,47.765 1143.03,45.35C1140.85,42.936 1139.76,39.103 1139.76,33.849L1139.76,25.564Z" style="fill-rule:nonzero;"/>
    <path d="M1173.02,21.161C1174.56,20.465 1176.35,19.867 1178.37,19.365C1180.4,18.862 1182.81,18.611 1185.59,18.611C1187.6,18.611 1189.31,18.853 1190.71,19.336C1192.12,19.818 1193.26,20.504 1194.13,21.392C1195,22.281 1195.63,23.343 1196.02,24.579C1196.4,25.815 1196.6,27.206 1196.6,28.751C1196.6,30.721 1196.53,32.401 1196.39,33.791C1196.26,35.182 1196.19,36.418 1196.19,37.5C1196.19,38.311 1196.23,39.218 1196.31,40.223C1196.38,40.764 1196.44,41.285 1196.48,41.787L1200.25,41.787L1200.25,48.16L1190.63,48.16L1189.88,44.221L1189.59,44.221C1188.81,45.418 1187.71,46.451 1186.28,47.32C1184.85,48.189 1182.92,48.624 1180.49,48.624C1177.59,48.624 1175.29,47.851 1173.59,46.306C1171.89,44.761 1171.05,42.714 1171.05,40.165C1171.05,38.543 1171.34,37.142 1171.94,35.964C1172.54,34.786 1173.41,33.82 1174.55,33.067C1175.69,32.314 1177.06,31.754 1178.66,31.387C1180.27,31.02 1182.05,30.837 1184.02,30.837C1184.72,30.837 1185.45,30.875 1186.23,30.952C1187,31.03 1187.94,31.107 1189.06,31.184C1189.14,30.798 1189.18,30.412 1189.18,30.025L1189.18,28.925C1189.18,27.457 1188.76,26.404 1187.9,25.767C1187.06,25.13 1185.8,24.811 1184.14,24.811C1182.17,24.811 1180.39,25.062 1178.81,25.564C1177.23,26.066 1175.89,26.568 1174.81,27.071L1173.02,21.161ZM1182.92,42.424C1184.78,42.424 1186.17,42.086 1187.09,41.411C1188.02,40.735 1188.7,40.01 1189.12,39.238L1189.12,35.761C1188.74,35.684 1188.16,35.597 1187.38,35.501C1186.61,35.404 1185.78,35.356 1184.89,35.356C1184.16,35.356 1183.42,35.423 1182.69,35.559C1181.96,35.694 1181.3,35.906 1180.72,36.196C1180.14,36.486 1179.68,36.862 1179.33,37.326C1178.98,37.789 1178.81,38.349 1178.81,39.006C1178.81,40.088 1179.13,40.928 1179.77,41.526C1180.4,42.125 1181.45,42.424 1182.92,42.424Z" style="fill-rule:nonzero;"/>
    <path d="M1205.98,41.787L1216.18,41.787L1216.18,25.564L1205.98,25.564L1205.98,19.191L1223.71,19.191L1223.71,41.787L1234.43,41.787L1234.43,48.16L1205.98,48.16L1205.98,41.787ZM1214.79,11.311C1214.79,10.114 1215.23,9.09 1216.12,8.24C1217.01,7.39 1218.25,6.966 1219.83,6.966C1221.45,6.966 1222.75,7.39 1223.71,8.24C1224.68,9.09 1225.16,10.114 1225.16,11.311C1225.16,12.547 1224.68,13.561 1223.71,14.353C1222.75,15.145 1221.45,15.541 1219.83,15.541C1218.25,15.541 1217.01,15.145 1216.12,14.353C1215.23,13.561 1214.79,12.547 1214.79,11.311Z" style="fill-rule:nonzero;"/>
    <path d="M1238.02,19.191L1248.16,19.191L1249.03,23.015L1249.26,23.015C1250.15,21.779 1251.43,20.697 1253.09,19.77C1254.75,18.843 1256.74,18.38 1259.06,18.38C1260.48,18.38 1261.83,18.573 1263.08,18.959C1264.34,19.345 1265.41,19.983 1266.3,20.871C1267.19,21.759 1267.89,22.966 1268.41,24.492C1268.93,26.018 1269.19,27.901 1269.19,30.141L1269.19,48.16L1261.66,48.16L1261.66,31.706C1261.66,29.349 1261.13,27.65 1260.07,26.607C1259.01,25.564 1257.66,25.043 1256.04,25.043C1254.61,25.043 1253.31,25.458 1252.13,26.288C1250.95,27.119 1250.15,28.152 1249.73,29.388L1249.73,48.16L1242.19,48.16L1242.19,25.564L1238.02,25.564L1238.02,19.191Z" style="fill-rule:nonzero;"/>
    <path d="M1295.38,40.165C1295.38,39.392 1294.91,38.774 1293.96,38.311C1293.02,37.847 1291.85,37.422 1290.46,37.036C1289.07,36.65 1287.54,36.254 1285.88,35.848C1284.22,35.443 1282.69,34.883 1281.3,34.168C1279.91,33.453 1278.74,32.546 1277.8,31.445C1276.85,30.344 1276.38,28.925 1276.38,27.186C1276.38,25.757 1276.7,24.502 1277.34,23.42C1277.97,22.339 1278.84,21.421 1279.94,20.668C1281.04,19.915 1282.36,19.345 1283.88,18.959C1285.41,18.573 1287.06,18.38 1288.84,18.38C1290.73,18.38 1292.39,18.515 1293.82,18.785C1295.25,19.056 1296.49,19.384 1297.56,19.77C1298.62,20.156 1299.53,20.591 1300.28,21.074C1301.03,21.557 1301.68,21.991 1302.22,22.377L1299.03,27.534C1298.45,27.186 1297.79,26.829 1297.03,26.462C1296.28,26.095 1295.49,25.757 1294.66,25.448C1293.83,25.139 1292.96,24.888 1292.05,24.695C1291.14,24.502 1290.25,24.405 1289.36,24.405C1287.74,24.405 1286.42,24.618 1285.42,25.043C1284.41,25.468 1283.91,26.124 1283.91,27.013C1283.91,27.708 1284.38,28.268 1285.33,28.693C1286.28,29.118 1287.44,29.514 1288.84,29.881C1290.23,30.248 1291.75,30.643 1293.41,31.068C1295.07,31.493 1296.6,32.044 1297.99,32.72C1299.38,33.396 1300.55,34.274 1301.5,35.356C1302.44,36.437 1302.91,37.828 1302.91,39.527C1302.91,42.463 1301.84,44.771 1299.7,46.451C1297.56,48.131 1294.38,48.972 1290.17,48.972C1286.85,48.972 1283.98,48.479 1281.56,47.494C1279.15,46.509 1277.21,45.36 1275.74,44.047L1279.22,38.6C1279.72,39.025 1280.39,39.499 1281.22,40.02C1282.05,40.541 1282.98,41.015 1284.03,41.439C1285.07,41.864 1286.18,42.222 1287.36,42.511C1288.54,42.801 1289.7,42.946 1290.86,42.946C1292.1,42.946 1293.16,42.733 1294.05,42.309C1294.94,41.884 1295.38,41.169 1295.38,40.165Z" style="fill-rule:nonzero;"/>
    <path d="M1311.08,8.008C1312.71,7.699 1314.49,7.458 1316.44,7.284C1318.39,7.11 1320.34,7.023 1322.27,7.023C1324.28,7.023 1326.29,7.188 1328.32,7.516C1330.35,7.844 1332.17,8.501 1333.8,9.486C1335.42,10.471 1336.74,11.842 1337.77,13.6C1338.79,15.357 1339.3,17.646 1339.3,20.465C1339.3,22.937 1338.86,25.052 1337.97,26.81C1337.08,28.567 1335.9,30.016 1334.43,31.155C1332.97,32.295 1331.3,33.125 1329.42,33.647C1327.55,34.168 1325.61,34.429 1323.6,34.429L1322.67,34.429C1322.25,34.429 1321.8,34.419 1321.34,34.4C1320.88,34.381 1320.42,34.352 1319.98,34.313C1319.53,34.274 1319.21,34.236 1319.02,34.197L1319.02,48.16L1311.08,48.16L1311.08,8.008ZM1322.9,13.86C1322.13,13.86 1321.4,13.889 1320.7,13.947C1320.01,14.005 1319.45,14.073 1319.02,14.15L1319.02,27.302C1319.18,27.341 1319.41,27.38 1319.72,27.418C1320.03,27.457 1320.36,27.486 1320.7,27.505C1321.05,27.524 1321.39,27.534 1321.72,27.534L1322.44,27.534C1323.48,27.534 1324.52,27.437 1325.54,27.244C1326.56,27.051 1327.48,26.694 1328.29,26.172C1329.1,25.651 1329.75,24.927 1330.23,24C1330.72,23.073 1330.96,21.856 1330.96,20.35C1330.96,19.075 1330.73,18.022 1330.26,17.192C1329.8,16.361 1329.19,15.695 1328.44,15.193C1327.68,14.691 1326.83,14.343 1325.86,14.15C1324.89,13.957 1323.91,13.86 1322.9,13.86Z" style="fill-rule:nonzero;"/>
    <path d="M1343.88,41.787L1351.06,41.787L1351.06,25.564L1343.88,25.564L1343.88,19.191L1356.91,19.191L1357.78,23.015L1358.02,23.015C1359.1,21.74 1360.33,20.678 1361.72,19.828C1363.11,18.978 1364.74,18.553 1366.59,18.553C1368.91,18.553 1370.73,19.403 1372.07,21.103C1373.4,22.802 1374.06,25.641 1374.06,29.62L1367.29,29.62C1367.29,28.229 1367.08,27.215 1366.68,26.578C1366.27,25.941 1365.62,25.622 1364.74,25.622C1363.19,25.622 1361.94,26.008 1361,26.781C1360.05,27.553 1359.25,28.442 1358.6,29.446L1358.6,41.787L1371.17,41.787L1371.17,48.16L1343.88,48.16L1343.88,41.787Z" style="fill-rule:nonzero;"/>
    <path d="M1378.41,33.676C1378.41,31.242 1378.78,29.079 1379.51,27.186C1380.25,25.294 1381.29,23.691 1382.64,22.377C1383.99,21.064 1385.6,20.069 1387.48,19.394C1389.35,18.718 1391.45,18.38 1393.76,18.38C1396.2,18.38 1398.37,18.747 1400.28,19.48C1402.19,20.214 1403.81,21.248 1405.12,22.58C1406.43,23.913 1407.43,25.525 1408.1,27.418C1408.78,29.311 1409.12,31.397 1409.12,33.676C1409.12,36.109 1408.75,38.272 1408.02,40.165C1407.28,42.057 1406.24,43.66 1404.89,44.974C1403.54,46.287 1401.92,47.282 1400.05,47.958C1398.18,48.634 1396.08,48.972 1393.76,48.972C1391.33,48.972 1389.16,48.605 1387.25,47.871C1385.33,47.137 1383.72,46.104 1382.41,44.771C1381.09,43.438 1380.1,41.826 1379.42,39.933C1378.75,38.04 1378.41,35.955 1378.41,33.676ZM1386.17,33.676C1386.17,34.95 1386.35,36.128 1386.69,37.21C1387.04,38.291 1387.55,39.238 1388.2,40.049C1388.86,40.86 1389.65,41.488 1390.58,41.932C1391.5,42.376 1392.57,42.598 1393.76,42.598C1396,42.598 1397.83,41.884 1399.24,40.455C1400.65,39.025 1401.35,36.766 1401.35,33.676C1401.35,31.01 1400.7,28.857 1399.38,27.215C1398.07,25.574 1396.2,24.753 1393.76,24.753C1392.68,24.753 1391.68,24.917 1390.75,25.245C1389.82,25.574 1389.02,26.105 1388.35,26.839C1387.67,27.573 1387.14,28.5 1386.75,29.62C1386.37,30.74 1386.17,32.092 1386.17,33.676Z" style="fill-rule:nonzero;"/>
    <path d="M1411.15,19.191L1421,19.191L1421.86,22.667L1422.1,22.667C1424.11,19.809 1427.35,18.38 1431.83,18.38C1433.61,18.38 1435.24,18.66 1436.73,19.22C1438.21,19.78 1439.49,20.659 1440.55,21.856C1441.61,23.053 1442.43,24.56 1443.01,26.375C1443.59,28.191 1443.88,30.373 1443.88,32.922C1443.88,35.394 1443.55,37.625 1442.9,39.614C1442.24,41.604 1441.29,43.294 1440.06,44.684C1438.82,46.075 1437.32,47.137 1435.54,47.871C1433.76,48.605 1431.73,48.972 1429.45,48.972C1428.26,48.972 1427.08,48.885 1425.92,48.711C1424.76,48.537 1423.8,48.257 1423.02,47.871L1423.02,59.748L1415.49,59.748L1415.49,25.564L1411.15,25.564L1411.15,19.191ZM1429.57,24.753C1428.1,24.753 1426.76,25.12 1425.54,25.854C1424.33,26.588 1423.49,27.689 1423.02,29.156L1423.02,41.208C1423.56,41.633 1424.35,41.971 1425.37,42.222C1426.39,42.473 1427.43,42.598 1428.47,42.598C1429.55,42.598 1430.56,42.415 1431.48,42.048C1432.41,41.681 1433.22,41.092 1433.92,40.281C1434.61,39.47 1435.15,38.446 1435.54,37.21C1435.92,35.974 1436.12,34.487 1436.12,32.749C1436.12,30.199 1435.5,28.229 1434.26,26.839C1433.03,25.448 1431.46,24.753 1429.57,24.753Z" style="fill-rule:nonzero;"/>
    <path d="M1476.85,45.09C1476.35,45.553 1475.7,46.007 1474.91,46.451C1474.12,46.895 1473.19,47.311 1472.13,47.697C1471.07,48.083 1469.9,48.392 1468.62,48.624C1467.35,48.856 1466,48.972 1464.57,48.972C1462.09,48.972 1459.88,48.624 1457.93,47.929C1455.98,47.233 1454.33,46.219 1452.98,44.887C1451.63,43.554 1450.59,41.951 1449.88,40.078C1449.16,38.205 1448.81,36.07 1448.81,33.676C1448.81,31.126 1449.21,28.896 1450.02,26.984C1450.83,25.072 1451.94,23.478 1453.36,22.204C1454.76,20.929 1456.42,19.973 1458.31,19.336C1460.2,18.698 1462.25,18.38 1464.45,18.38C1465.92,18.38 1467.43,18.573 1469,18.959C1470.56,19.345 1472,20.012 1473.32,20.958C1474.63,21.904 1475.7,23.169 1476.53,24.753C1477.36,26.337 1477.78,28.345 1477.78,30.779C1477.78,32.44 1477.58,34.236 1477.2,36.167L1456.34,36.167C1456.38,37.403 1456.64,38.446 1457.12,39.296C1457.6,40.145 1458.24,40.841 1459.03,41.382C1459.82,41.922 1460.73,42.318 1461.76,42.569C1462.78,42.82 1463.87,42.946 1465.03,42.946C1467.35,42.946 1469.25,42.676 1470.74,42.135C1472.22,41.594 1473.43,40.937 1474.36,40.165L1476.85,45.09ZM1464.33,24.405C1463.33,24.405 1462.38,24.54 1461.5,24.811C1460.61,25.081 1459.81,25.477 1459.09,25.999C1458.38,26.52 1457.79,27.167 1457.32,27.94C1456.86,28.712 1456.59,29.581 1456.51,30.547L1470.77,30.547C1470.77,28.654 1470.23,27.157 1469.17,26.057C1468.11,24.956 1466.5,24.405 1464.33,24.405Z" style="fill-rule:nonzero;"/>
    <path d="M1482.93,41.787L1490.12,41.787L1490.12,25.564L1482.93,25.564L1482.93,19.191L1495.97,19.191L1496.84,23.015L1497.07,23.015C1498.15,21.74 1499.39,20.678 1500.78,19.828C1502.17,18.978 1503.79,18.553 1505.64,18.553C1507.96,18.553 1509.79,19.403 1511.12,21.103C1512.45,22.802 1513.12,25.641 1513.12,29.62L1506.34,29.62C1506.34,28.229 1506.14,27.215 1505.73,26.578C1505.33,25.941 1504.68,25.622 1503.79,25.622C1502.25,25.622 1501,26.008 1500.05,26.781C1499.11,27.553 1498.31,28.442 1497.65,29.446L1497.65,41.787L1510.22,41.787L1510.22,48.16L1482.93,48.16L1482.93,41.787Z" style="fill-rule:nonzero;"/>
    <path d="M1520.48,7.603L1532.82,7.603L1532.82,34.371C1532.82,37.345 1533.18,39.412 1533.92,40.57C1534.65,41.729 1535.83,42.309 1537.45,42.309C1538.65,42.309 1539.64,42.183 1540.41,41.932C1541.18,41.681 1541.95,41.324 1542.73,40.86L1545.57,46.075C1544.91,46.5 1544.25,46.895 1543.6,47.262C1542.94,47.629 1542.24,47.938 1541.51,48.189C1540.78,48.44 1539.97,48.634 1539.11,48.769C1538.24,48.904 1537.26,48.972 1536.18,48.972C1532.55,48.972 1529.83,48.045 1528.01,46.191C1526.19,44.336 1525.29,41.71 1525.29,38.311L1525.29,13.976L1520.48,13.976L1520.48,7.603Z" style="fill-rule:nonzero;"/>
    <path d="M1567.64,39.991L1569.84,39.991L1575.46,19.191L1583.23,19.191L1575,45.321C1574.26,47.484 1573.55,49.464 1572.86,51.26C1572.16,53.056 1571.35,54.611 1570.42,55.924C1569.49,57.238 1568.4,58.252 1567.15,58.966C1565.89,59.681 1564.36,60.038 1562.54,60.038C1561.65,60.038 1560.81,59.922 1560.02,59.69C1559.23,59.459 1558.51,59.179 1557.85,58.85C1557.19,58.522 1556.61,58.174 1556.11,57.807C1555.61,57.44 1555.2,57.102 1554.89,56.793L1558.78,51.637C1559.28,52.062 1559.88,52.458 1560.57,52.825C1561.27,53.192 1561.92,53.375 1562.54,53.375C1563.7,53.375 1564.62,52.969 1565.29,52.158C1565.97,51.347 1566.62,50.015 1567.23,48.16L1563.12,48.16L1551.07,19.191L1559.24,19.191L1567.64,39.991Z" style="fill-rule:nonzero;"/>
    <circle cx="1351.38" cy="385.222" r="18" style="fill:rgb(247,0,255);"/>
    <circle cx="579.712" cy="383.424" r="18" style="fill:rgb(21,183,183);"/>
    <path d="M473.692,364.522L340.13,498.083" style="fill:none;stroke:rgb(21,183,183);stroke-width:10px;"/>
    <path d="M328.06,486.013C335.085,478.988 346.491,478.988 353.516,486.013C360.541,493.038 360.541,504.444 353.516,511.469C346.491,518.494 335.085,518.494 328.06,511.469C321.035,504.444 321.035,493.038 328.06,486.013Z" style="fill:rgb(247,0,255);"/>
    <path d="M1012.09,207.452L1051.58,139.047L1130.57,139.047L1170.06,207.452L1130.57,275.857L1051.58,275.857L1012.09,207.452Z" style="fill:rgb(198,237,237);stroke:rgb(21,183,183);stroke-width:6px;"/>
    <path d="M215.589,205.827L255.083,137.422L334.07,137.422L373.564,205.827L334.07,274.232L255.083,274.232L215.589,205.827Z" style="fill:rgb(198,237,237);stroke:rgb(21,183,183);stroke-width:6px;"/>
    <path d="M10.03,209.327L49.524,140.922L128.511,140.922L168.005,209.327L128.511,277.733L49.524,277.733L10.03,209.327Z" style="fill:rgb(198,237,237);stroke:rgb(21,183,183);stroke-width:6px;"/>
    <path d="M62.875,195.371L87.007,153.573L135.271,153.573L159.403,195.371L135.271,237.169L87.007,237.169L62.875,195.371Z" style="fill:rgb(253,194,255);fill-opacity:0.5;stroke:rgb(247,0,255);stroke-width:6px;"/>
    <path d="M1042.97,206.166L1067.1,164.369L1115.36,164.369L1139.49,206.166L1115.36,247.964L1067.1,247.964L1042.97,206.166Z" style="fill:rgb(253,194,255);fill-opacity:0.5;stroke:rgb(247,0,255);stroke-width:6px;"/>
    <path d="M246.467,204.541L270.599,162.744L318.863,162.744L342.995,204.541L318.863,246.339L270.599,246.339L246.467,204.541Z" style="fill:rgb(253,194,255);fill-opacity:0.5;stroke:rgb(247,0,255);stroke-width:6px;"/>
    <path d="M1077.19,115.128L1077.19,91.73C1076.09,92.602 1075.03,93.345 1074,93.956C1072.97,94.568 1071.56,95.193 1069.77,95.831L1069.77,92.55C1072.62,91.339 1075.09,89.77 1077.19,87.843L1080.82,87.843L1080.82,115.128L1088.11,115.128L1088.11,118.156L1069.77,118.156L1069.77,115.128L1077.19,115.128Z" style="fill:rgb(128,128,128);fill-rule:nonzero;"/>
    <path d="M1095.8,103.937C1096.74,102.544 1097.9,101.408 1099.29,100.529C1100.67,99.65 1102.2,99.21 1103.87,99.21C1105.44,99.21 1106.94,99.595 1108.35,100.363C1109.76,101.131 1110.84,102.202 1111.58,103.576C1112.32,104.949 1112.69,106.548 1112.69,108.371C1112.69,111.248 1111.77,113.751 1109.93,115.88C1108.09,118.009 1105.66,119.074 1102.66,119.074C1099.12,119.074 1096.47,117.593 1094.72,114.63C1092.96,111.668 1092.09,107.902 1092.09,103.331C1092.09,98.279 1093.2,94.285 1095.43,91.349C1097.66,88.413 1100.67,86.945 1104.47,86.945C1106.52,86.945 1108.5,87.244 1110.43,87.843L1110.43,91.515C1108.27,90.486 1106.23,89.972 1104.32,89.972C1101.61,89.972 1099.51,91.216 1098.03,93.703C1096.54,96.19 1095.8,99.341 1095.8,103.156L1095.8,103.937ZM1102.93,116.046C1103.91,116.046 1104.89,115.757 1105.88,115.177C1106.87,114.598 1107.65,113.706 1108.21,112.501C1108.78,111.297 1109.06,109.985 1109.06,108.566C1109.06,106.717 1108.58,105.2 1107.63,104.015C1106.67,102.83 1105.31,102.238 1103.54,102.238C1101.7,102.238 1100.19,102.925 1099.01,104.298C1097.84,105.672 1097.25,107.342 1097.25,109.308C1097.25,111.287 1097.82,112.905 1098.98,114.162C1100.13,115.418 1101.44,116.046 1102.93,116.046Z" style="fill:rgb(128,128,128);fill-rule:nonzero;"/>
    <path d="M280.688,113.503L280.688,90.105C279.594,90.977 278.533,91.719 277.504,92.331C276.476,92.943 275.063,93.568 273.266,94.206L273.266,90.925C276.118,89.714 278.592,88.145 280.688,86.218L284.321,86.218L284.321,113.503L291.606,113.503L291.606,116.531L273.266,116.531L273.266,113.503L280.688,113.503Z" style="fill:rgb(128,128,128);fill-rule:nonzero;"/>
    <path d="M299.301,102.312C300.239,100.919 301.401,99.783 302.788,98.904C304.174,98.025 305.701,97.585 307.368,97.585C308.943,97.585 310.437,97.969 311.85,98.738C313.263,99.506 314.34,100.577 315.082,101.951C315.825,103.324 316.196,104.923 316.196,106.746C316.196,109.623 315.275,112.126 313.432,114.255C311.59,116.384 309.164,117.449 306.157,117.449C302.615,117.449 299.969,115.968 298.217,113.005C296.466,110.043 295.59,106.277 295.59,101.706C295.59,96.654 296.704,92.66 298.93,89.724C301.157,86.788 304.171,85.32 307.973,85.32C310.017,85.32 312.003,85.619 313.93,86.218L313.93,89.89C311.769,88.861 309.731,88.347 307.817,88.347C305.109,88.347 303.012,89.591 301.528,92.078C300.043,94.565 299.301,97.716 299.301,101.531L299.301,102.312ZM306.43,114.421C307.407,114.421 308.39,114.132 309.379,113.552C310.369,112.973 311.147,112.081 311.713,110.876C312.28,109.672 312.563,108.36 312.563,106.941C312.563,105.092 312.084,103.575 311.127,102.39C310.17,101.205 308.806,100.613 307.036,100.613C305.2,100.613 303.692,101.3 302.514,102.673C301.336,104.047 300.747,105.717 300.747,107.683C300.747,109.662 301.323,111.28 302.475,112.537C303.627,113.793 304.946,114.421 306.43,114.421Z" style="fill:rgb(128,128,128);fill-rule:nonzero;"/>
    <path d="M698.982,87.673L698.318,87.185C697.394,86.534 696.489,85.574 695.604,84.304C694.718,83.035 694.275,81.638 694.275,80.115C694.275,78.097 695.07,76.375 696.658,74.949C698.247,73.523 700.265,72.81 702.713,72.81C704.21,72.81 705.558,73.08 706.756,73.621C707.954,74.161 708.878,74.959 709.529,76.013C710.18,77.068 710.506,78.22 710.506,79.47C710.506,80.33 710.356,81.16 710.057,81.96C709.757,82.761 709.311,83.556 708.719,84.343C708.126,85.131 706.951,86.241 705.193,87.673L706.834,88.982C708.748,90.544 710.037,91.892 710.701,93.025C711.365,94.158 711.697,95.427 711.697,96.834C711.697,99.021 710.903,100.919 709.314,102.527C707.726,104.135 705.343,104.939 702.166,104.939C698.976,104.939 696.587,104.187 694.998,102.683C693.41,101.179 692.615,99.314 692.615,97.087C692.615,93.767 694.738,90.629 698.982,87.673ZM702.713,85.818C704.549,84.425 705.698,83.259 706.16,82.322C706.622,81.384 706.854,80.512 706.854,79.705C706.854,78.728 706.424,77.839 705.564,77.039C704.705,76.238 703.598,75.837 702.244,75.837C700.786,75.837 699.676,76.274 698.914,77.146C698.152,78.018 697.772,78.923 697.772,79.861C697.772,80.772 698.091,81.632 698.729,82.439C699.367,83.246 700.389,84.151 701.795,85.154L702.713,85.818ZM701.717,89.607C698.279,92.25 696.561,94.724 696.561,97.029C696.561,98.396 697.127,99.548 698.26,100.486C699.393,101.423 700.734,101.892 702.283,101.892C703.703,101.892 704.972,101.443 706.092,100.544C707.212,99.646 707.772,98.526 707.772,97.185C707.772,95.87 707.091,94.535 705.731,93.181C704.37,91.827 703.423,90.942 702.889,90.525L701.717,89.607Z" style="fill:rgb(128,128,128);fill-rule:nonzero;"/>
    <path d="M1348.21,98.721L1347.54,98.232C1346.62,97.581 1345.71,96.621 1344.83,95.351C1343.94,94.082 1343.5,92.685 1343.5,91.162C1343.5,89.144 1344.3,87.422 1345.88,85.996C1347.47,84.57 1349.49,83.857 1351.94,83.857C1353.44,83.857 1354.78,84.127 1355.98,84.668C1357.18,85.208 1358.1,86.006 1358.76,87.06C1359.41,88.115 1359.73,89.267 1359.73,90.517C1359.73,91.377 1359.58,92.207 1359.28,93.008C1358.98,93.808 1358.54,94.603 1357.94,95.39C1357.35,96.178 1356.18,97.288 1354.42,98.721L1356.06,100.029C1357.97,101.592 1359.26,102.939 1359.93,104.072C1360.59,105.205 1360.92,106.474 1360.92,107.881C1360.92,110.068 1360.13,111.966 1358.54,113.574C1356.95,115.182 1354.57,115.986 1351.39,115.986C1348.2,115.986 1345.81,115.234 1344.22,113.73C1342.63,112.226 1341.84,110.361 1341.84,108.135C1341.84,104.814 1343.96,101.676 1348.21,98.721ZM1351.94,96.865C1353.78,95.472 1354.92,94.306 1355.39,93.369C1355.85,92.431 1356.08,91.559 1356.08,90.752C1356.08,89.775 1355.65,88.887 1354.79,88.086C1353.93,87.285 1352.82,86.885 1351.47,86.885C1350.01,86.885 1348.9,87.321 1348.14,88.193C1347.38,89.066 1347,89.971 1347,90.908C1347,91.819 1347.32,92.679 1347.95,93.486C1348.59,94.293 1349.61,95.198 1351.02,96.201L1351.94,96.865ZM1350.94,100.654C1347.51,103.297 1345.79,105.771 1345.79,108.076C1345.79,109.443 1346.35,110.596 1347.49,111.533C1348.62,112.471 1349.96,112.939 1351.51,112.939C1352.93,112.939 1354.2,112.49 1355.32,111.592C1356.44,110.693 1357,109.573 1357,108.232C1357,106.917 1356.32,105.583 1354.96,104.228C1353.6,102.874 1352.65,101.989 1352.11,101.572L1350.94,100.654Z" style="fill:rgb(128,128,128);fill-rule:nonzero;"/>
    <path d="M75.163,118.082L75.163,94.684C74.069,95.556 73.008,96.298 71.979,96.91C70.95,97.522 69.538,98.147 67.741,98.785L67.741,95.504C70.592,94.293 73.066,92.724 75.163,90.797L78.795,90.797L78.795,118.082L86.081,118.082L86.081,121.11L67.741,121.11L67.741,118.082L75.163,118.082Z" style="fill:rgb(128,128,128);fill-rule:nonzero;"/>
    <path d="M101.881,121.11L101.881,112.633L89.01,112.633L89.01,109.586L101.881,90.797L105.534,90.797L105.534,109.586L111.139,109.586L111.139,112.633L105.534,112.633L105.534,121.11L101.881,121.11ZM101.881,109.586L101.881,96.305L92.877,109.586L101.881,109.586Z" style="fill:rgb(128,128,128);fill-rule:nonzero;"/>
    <path d="M371.656,394.834L371.656,386.358L358.785,386.358L358.785,383.311L371.656,364.522L375.308,364.522L375.308,383.311L380.914,383.311L380.914,386.358L375.308,386.358L375.308,394.834L371.656,394.834ZM371.656,383.311L371.656,370.03L362.652,383.311L371.656,383.311Z" style="fill:rgb(128,128,128);fill-rule:nonzero;"/>
    <path d="M1418.58,401.514L1400.24,401.514L1400.24,398.175C1400.24,397.315 1400.42,396.394 1400.77,395.411C1401.12,394.428 1401.79,393.324 1402.78,392.1C1403.77,390.876 1404.82,389.698 1405.93,388.565L1408,386.456C1408.41,386.026 1409.32,385.03 1410.73,383.468C1412.14,381.905 1413.06,380.707 1413.51,379.874C1413.96,379.04 1414.19,378.22 1414.19,377.413C1414.19,376.111 1413.67,375.105 1412.62,374.395C1411.58,373.686 1410.41,373.331 1409.11,373.331C1408.37,373.331 1407.54,373.415 1406.62,373.585C1405.7,373.754 1404.9,373.953 1404.21,374.18C1403.52,374.408 1402.4,374.874 1400.85,375.577L1400.85,372.354C1402.49,371.573 1404.13,371.036 1405.78,370.743C1407.43,370.45 1408.78,370.304 1409.85,370.304C1411.43,370.304 1412.88,370.561 1414.2,371.075C1415.52,371.589 1416.5,372.387 1417.15,373.468C1417.79,374.548 1418.11,375.701 1418.11,376.925C1418.11,378.292 1417.7,379.692 1416.87,381.124C1416.05,382.556 1414.49,384.399 1412.19,386.651L1409.97,388.858L1408.09,390.694C1406.91,391.892 1405.95,393.051 1405.22,394.171C1404.49,395.29 1404.09,396.625 1404.01,398.175L1418.58,398.175L1418.58,401.514Z" style="fill:rgb(128,128,128);fill-rule:nonzero;"/>
    <path d="M646.912,399.717L628.572,399.717L628.572,396.377C628.572,395.518 628.748,394.596 629.099,393.613C629.451,392.63 630.121,391.527 631.111,390.303C632.1,389.079 633.149,387.9 634.255,386.768L636.326,384.658C636.742,384.229 637.654,383.233 639.06,381.67C640.466,380.108 641.394,378.91 641.843,378.076C642.292,377.243 642.517,376.423 642.517,375.615C642.517,374.313 641.996,373.307 640.955,372.598C639.913,371.888 638.741,371.533 637.439,371.533C636.697,371.533 635.867,371.618 634.949,371.787C634.031,371.956 633.227,372.155 632.537,372.383C631.846,372.611 630.727,373.076 629.177,373.779L629.177,370.557C630.818,369.775 632.462,369.238 634.109,368.945C635.756,368.652 637.113,368.506 638.181,368.506C639.757,368.506 641.205,368.763 642.527,369.277C643.848,369.792 644.832,370.589 645.476,371.67C646.121,372.751 646.443,373.903 646.443,375.127C646.443,376.494 646.029,377.894 645.203,379.326C644.376,380.759 642.817,382.601 640.525,384.854L638.298,387.061L636.423,388.897C635.238,390.095 634.281,391.253 633.552,392.373C632.823,393.493 632.419,394.828 632.341,396.377L646.912,396.377L646.912,399.717Z" style="fill:rgb(128,128,128);fill-rule:nonzero;"/>
    <path d="M409.643,208.664L448.593,141.199L526.495,141.199L565.446,208.664L526.495,276.129L448.593,276.129L409.643,208.664Z" style="fill:rgb(198,237,237);stroke:rgb(21,183,183);stroke-width:6px;"/>
    <path d="M481.377,126.385L481.377,123.512C481.377,121.266 481.632,119.378 482.142,117.849C482.652,116.319 483.547,114.618 484.829,112.744C486.11,110.87 487.136,109.423 487.908,108.403L491.256,103.981L492.455,102.43C493.364,101.204 494.15,99.785 494.811,98.173L478.173,98.173L478.173,94.308L498.531,94.308L498.531,96.871C498.531,97.89 498.328,98.834 497.922,99.702C497.515,100.57 496.286,102.424 494.233,105.262C493.736,105.937 493.247,106.612 492.765,107.287L490.616,110.305C489.238,112.248 488.218,113.798 487.557,114.955C486.895,116.113 486.396,117.318 486.058,118.572C485.721,119.826 485.552,121.472 485.552,123.512L485.552,126.385L481.377,126.385Z" style="fill:rgb(128,128,128);fill-rule:nonzero;"/>
    <path d="M532.527,157.717C539.961,150.283 552.031,150.283 559.465,157.717C566.898,165.15 566.898,177.22 559.465,184.654C552.031,192.088 539.961,192.088 532.527,184.654C525.094,177.22 525.094,165.15 532.527,157.717Z" style="fill:rgb(247,0,255);"/>
    <path d="M688.794,193.401C696.227,185.968 708.298,185.968 715.731,193.401C723.165,200.835 723.165,212.905 715.731,220.339C708.298,227.772 696.227,227.772 688.794,220.339C681.36,212.905 681.36,200.835 688.794,193.401Z" style="fill:rgb(247,0,255);"/>
    <path d="M1259.54,504.885L1448.42,505.34" style="fill:none;stroke:rgb(21,183,183);stroke-width:10px;"/>
    <path d="M485.869,503.087L674.754,503.542" style="fill:none;stroke:rgb(247,0,255);stroke-width:10px;"/>
    <path d="M1319.47,515.368L1400.47,514.857" style="fill:none;stroke:rgb(247,0,255);stroke-width:10px;"/>
    <path d="M545.796,511.571L626.796,511.059" style="fill:none;stroke:rgb(21,183,183);stroke-width:10px;"/>
    <path d="M1477.67,504.27L1477.67,489.719L1494.64,489.719L1494.64,493.215L1481.3,493.215L1481.3,500.637L1481.93,500.637C1486.29,500.637 1489.65,501.548 1492,503.371C1494.36,505.194 1495.54,507.648 1495.54,510.734C1495.54,512.688 1495.06,514.439 1494.11,515.988C1493.16,517.538 1491.82,518.752 1490.09,519.631C1488.36,520.51 1486.52,520.949 1484.56,520.949C1482.61,520.949 1480.11,520.474 1477.06,519.523L1477.06,515.559C1478.17,516.158 1479.41,516.649 1480.77,517.033C1482.14,517.417 1483.4,517.609 1484.56,517.609C1485.72,517.609 1486.85,517.329 1487.96,516.77C1489.07,516.21 1489.93,515.393 1490.54,514.318C1491.15,513.244 1491.46,512.147 1491.46,511.027C1491.46,509.139 1490.62,507.541 1488.95,506.232C1487.27,504.924 1484.3,504.27 1480.03,504.27L1477.67,504.27Z" style="fill:rgb(128,128,128);fill-rule:nonzero;"/>
    <path d="M1506.96,503.684L1506.3,503.195C1505.38,502.544 1504.47,501.584 1503.59,500.314C1502.7,499.045 1502.26,497.648 1502.26,496.125C1502.26,494.107 1503.05,492.385 1504.64,490.959C1506.23,489.533 1508.25,488.82 1510.69,488.82C1512.19,488.82 1513.54,489.091 1514.74,489.631C1515.94,490.171 1516.86,490.969 1517.51,492.023C1518.16,493.078 1518.49,494.23 1518.49,495.48C1518.49,496.34 1518.34,497.17 1518.04,497.971C1517.74,498.772 1517.29,499.566 1516.7,500.354C1516.11,501.141 1514.93,502.251 1513.18,503.684L1514.82,504.992C1516.73,506.555 1518.02,507.902 1518.68,509.035C1519.35,510.168 1519.68,511.438 1519.68,512.844C1519.68,515.031 1518.88,516.929 1517.3,518.537C1515.71,520.145 1513.33,520.949 1510.15,520.949C1506.96,520.949 1504.57,520.197 1502.98,518.693C1501.39,517.189 1500.6,515.324 1500.6,513.098C1500.6,509.777 1502.72,506.639 1506.96,503.684ZM1510.69,501.828C1512.53,500.435 1513.68,499.27 1514.14,498.332C1514.61,497.395 1514.84,496.522 1514.84,495.715C1514.84,494.738 1514.41,493.85 1513.55,493.049C1512.69,492.248 1511.58,491.848 1510.23,491.848C1508.77,491.848 1507.66,492.284 1506.9,493.156C1506.13,494.029 1505.75,494.934 1505.75,495.871C1505.75,496.783 1506.07,497.642 1506.71,498.449C1507.35,499.257 1508.37,500.161 1509.78,501.164L1510.69,501.828ZM1509.7,505.617C1506.26,508.26 1504.54,510.734 1504.54,513.039C1504.54,514.406 1505.11,515.559 1506.24,516.496C1507.38,517.434 1508.72,517.902 1510.27,517.902C1511.68,517.902 1512.95,517.453 1514.07,516.555C1515.19,515.656 1515.75,514.536 1515.75,513.195C1515.75,511.88 1515.07,510.546 1513.71,509.191C1512.35,507.837 1511.4,506.952 1510.87,506.535L1509.7,505.617Z" style="fill:rgb(128,128,128);fill-rule:nonzero;"/>
    <path d="M703.997,502.472L703.997,487.921L720.97,487.921L720.97,491.417L707.63,491.417L707.63,498.839L708.255,498.839C712.617,498.839 715.977,499.751 718.333,501.574C720.69,503.396 721.868,505.851 721.868,508.937C721.868,510.89 721.393,512.641 720.443,514.191C719.492,515.74 718.151,516.954 716.419,517.833C714.687,518.712 712.845,519.152 710.892,519.152C708.939,519.152 706.439,518.676 703.392,517.726L703.392,513.761C704.499,514.36 705.736,514.852 707.103,515.236C708.47,515.62 709.733,515.812 710.892,515.812C712.051,515.812 713.184,515.532 714.29,514.972C715.397,514.412 716.256,513.595 716.868,512.521C717.48,511.447 717.786,510.35 717.786,509.23C717.786,507.342 716.95,505.743 715.277,504.435C713.603,503.126 710.631,502.472 706.361,502.472L703.997,502.472Z" style="fill:rgb(128,128,128);fill-rule:nonzero;"/>
    <path d="M733.294,501.886L732.63,501.398C731.706,500.747 730.801,499.786 729.915,498.517C729.03,497.247 728.587,495.851 728.587,494.327C728.587,492.309 729.381,490.587 730.97,489.161C732.559,487.736 734.577,487.023 737.025,487.023C738.522,487.023 739.87,487.293 741.068,487.833C742.266,488.374 743.19,489.171 743.841,490.226C744.492,491.281 744.818,492.433 744.818,493.683C744.818,494.542 744.668,495.372 744.368,496.173C744.069,496.974 743.623,497.768 743.031,498.556C742.438,499.344 741.263,500.454 739.505,501.886L741.146,503.195C743.06,504.757 744.349,506.105 745.013,507.238C745.677,508.37 746.009,509.64 746.009,511.046C746.009,513.234 745.215,515.132 743.626,516.74C742.038,518.348 739.655,519.152 736.478,519.152C733.288,519.152 730.898,518.4 729.31,516.896C727.721,515.392 726.927,513.527 726.927,511.3C726.927,507.98 729.049,504.842 733.294,501.886ZM737.025,500.031C738.861,498.637 740.01,497.472 740.472,496.535C740.934,495.597 741.165,494.725 741.165,493.917C741.165,492.941 740.736,492.052 739.876,491.251C739.017,490.451 737.91,490.05 736.556,490.05C735.098,490.05 733.988,490.486 733.226,491.359C732.464,492.231 732.083,493.136 732.083,494.074C732.083,494.985 732.402,495.844 733.04,496.652C733.678,497.459 734.7,498.364 736.107,499.367L737.025,500.031ZM736.029,503.82C732.591,506.463 730.872,508.937 730.872,511.242C730.872,512.609 731.439,513.761 732.572,514.699C733.704,515.636 735.046,516.105 736.595,516.105C738.014,516.105 739.284,515.656 740.404,514.757C741.523,513.859 742.083,512.739 742.083,511.398C742.083,510.083 741.403,508.748 740.042,507.394C738.682,506.04 737.734,505.154 737.2,504.738L736.029,503.82Z" style="fill:rgb(128,128,128);fill-rule:nonzero;"/>
    <path d="M1448.42,454.192L1259.54,454.192" style="fill:none;stroke:rgb(21,183,183);stroke-width:10px;"/>
    <path d="M674.754,452.394L485.869,452.394" style="fill:none;stroke:rgb(21,183,183);stroke-width:10px;"/>
    <circle cx="1353.98" cy="455.122" r="18" style="fill:rgb(247,0,255);"/>
    <circle cx="1353.98" cy="209.304" r="18" style="fill:rgb(247,0,255);"/>
    <circle cx="580.312" cy="453.324" r="18" style="fill:rgb(247,0,255);"/>
    <path d="M1480.5,446.155L1480.5,431.604L1497.47,431.604L1497.47,435.1L1484.13,435.1L1484.13,442.522L1484.76,442.522C1489.12,442.522 1492.48,443.434 1494.84,445.256C1497.19,447.079 1498.37,449.534 1498.37,452.62C1498.37,454.573 1497.9,456.324 1496.94,457.874C1496,459.423 1494.65,460.637 1492.92,461.516C1491.19,462.395 1489.35,462.835 1487.39,462.835C1485.44,462.835 1482.94,462.359 1479.89,461.409L1479.89,457.444C1481,458.043 1482.24,458.534 1483.61,458.919C1484.97,459.303 1486.24,459.495 1487.39,459.495C1488.55,459.495 1489.69,459.215 1490.79,458.655C1491.9,458.095 1492.76,457.278 1493.37,456.204C1493.98,455.129 1494.29,454.032 1494.29,452.913C1494.29,451.025 1493.45,449.426 1491.78,448.118C1490.11,446.809 1487.13,446.155 1482.86,446.155L1480.5,446.155Z" style="fill:rgb(128,128,128);fill-rule:nonzero;"/>
    <path d="M706.829,444.357L706.829,429.807L723.802,429.807L723.802,433.303L710.462,433.303L710.462,440.725L711.087,440.725C715.449,440.725 718.809,441.636 721.165,443.459C723.522,445.282 724.7,447.736 724.7,450.822C724.7,452.775 724.225,454.527 723.275,456.076C722.324,457.626 720.983,458.84 719.251,459.719C717.519,460.598 715.677,461.037 713.724,461.037C711.771,461.037 709.271,460.562 706.224,459.611L706.224,455.646C707.331,456.245 708.568,456.737 709.935,457.121C711.302,457.505 712.565,457.697 713.724,457.697C714.883,457.697 716.016,457.417 717.122,456.857C718.229,456.297 719.088,455.48 719.7,454.406C720.312,453.332 720.618,452.235 720.618,451.115C720.618,449.227 719.782,447.629 718.109,446.32C716.435,445.012 713.463,444.357 709.193,444.357L706.829,444.357Z" style="fill:rgb(128,128,128);fill-rule:nonzero;"/>
    <rect x="1004.69" y="370.561" width="190.111" height="139.048" style="fill:rgb(198,237,237);fill-opacity:0.5;stroke:rgb(21,183,183);stroke-width:6px;"/>
    <path d="M1046.98,412.023L1141.26,468.148" style="fill:none;stroke:rgb(247,0,255);stroke-width:10px;"/>
    <path d="M940.521,456.769L940.521,433.371C939.427,434.243 938.366,434.985 937.337,435.597C936.309,436.209 934.896,436.834 933.099,437.472L933.099,434.191C935.951,432.98 938.425,431.411 940.521,429.484L944.154,429.484L944.154,456.769L951.439,456.769L951.439,459.797L933.099,459.797L933.099,456.769L940.521,456.769Z" style="fill:rgb(128,128,128);fill-rule:nonzero;"/>
    <path d="M971.712,443.703C970.775,445.096 969.613,446.232 968.226,447.111C966.839,447.99 965.313,448.429 963.646,448.429C962.07,448.429 960.576,448.049 959.164,447.287C957.751,446.525 956.673,445.454 955.931,444.074C955.189,442.694 954.818,441.092 954.818,439.269C954.818,436.405 955.739,433.908 957.582,431.779C959.424,429.65 961.849,428.586 964.857,428.586C968.399,428.586 971.045,430.067 972.796,433.029C974.548,435.991 975.423,439.758 975.423,444.328C975.423,449.38 974.31,453.374 972.083,456.31C969.857,459.246 966.843,460.715 963.041,460.715C960.996,460.715 959.011,460.409 957.083,459.797L957.083,456.144C959.245,457.16 961.283,457.668 963.197,457.668C965.905,457.668 968.001,456.424 969.486,453.937C970.97,451.45 971.712,448.299 971.712,444.484L971.712,443.703ZM964.583,431.613C963.607,431.613 962.624,431.903 961.634,432.482C960.645,433.062 959.867,433.95 959.3,435.148C958.734,436.346 958.451,437.661 958.451,439.093C958.451,440.929 958.929,442.44 959.886,443.625C960.843,444.81 962.207,445.402 963.978,445.402C965.814,445.402 967.321,444.715 968.5,443.341C969.678,441.968 970.267,440.304 970.267,438.351C970.267,436.372 969.691,434.754 968.539,433.498C967.386,432.241 966.068,431.613 964.583,431.613Z" style="fill:rgb(128,128,128);fill-rule:nonzero;"/>
    <rect x="98.734" y="375.538" width="190.689" height="139.471" style="fill:rgb(251,133,255);fill-opacity:0.5;stroke:rgb(251,133,255);stroke-width:6px;"/>
    <path d="M97.458,441.657L97.458,375.623L222.747,375.623" style="fill:none;stroke:rgb(21,183,183);stroke-width:10px;"/>
    <path d="M182.932,348.103L182.932,339.627L170.061,339.627L170.061,336.58L182.932,317.791L186.584,317.791L186.584,336.58L192.19,336.58L192.19,339.627L186.584,339.627L186.584,348.103L182.932,348.103ZM182.932,336.58L182.932,323.299L173.928,336.58L182.932,336.58Z" style="fill:rgb(128,128,128);fill-rule:nonzero;"/>
    <path d="M204.221,345.076L204.221,321.678C203.127,322.55 202.066,323.292 201.038,323.904C200.009,324.516 198.596,325.141 196.799,325.779L196.799,322.498C199.651,321.287 202.125,319.718 204.221,317.791L207.854,317.791L207.854,345.076L215.139,345.076L215.139,348.103L196.799,348.103L196.799,345.076L204.221,345.076Z" style="fill:rgb(128,128,128);fill-rule:nonzero;"/>
</svg>
