<?xml version="1.0" encoding="UTF-8" standalone="no"?>
<!DOCTYPE svg PUBLIC "-//W3C//DTD SVG 1.1//EN" "http://www.w3.org/Graphics/SVG/1.1/DTD/svg11.dtd">
<svg width="100%" height="100%" viewBox="0 0 2169 498" version="1.1" xmlns="http://www.w3.org/2000/svg" xmlns:xlink="http://www.w3.org/1999/xlink" xml:space="preserve" xmlns:serif="http://www.serif.com/" style="fill-rule:evenodd;clip-rule:evenodd;stroke-linecap:square;stroke-linejoin:round;stroke-miterlimit:10;">
    <rect id="Clementini-Points-Polygons" serif:id="Clementini Points-Polygons" x="-178" y="-2964" width="2683.8" height="4517.66" style="fill:none;"/>
    <circle cx="1438.41" cy="441.615" r="26" style="fill:rgb(247,0,255);"/>
    <path d="M174.137,39.54L180.511,39.54L180.511,45.276C180.626,45.314 180.742,45.353 180.858,45.391C181.747,45.778 182.722,46.096 183.784,46.347C184.846,46.598 185.976,46.724 187.174,46.724C189.337,46.724 191.017,46.289 192.214,45.42C193.412,44.551 194.01,43.383 194.01,41.915C194.01,40.602 193.518,39.54 192.533,38.728C191.548,37.917 190.331,37.203 188.883,36.585C187.434,35.967 185.851,35.349 184.132,34.731C182.413,34.113 180.829,33.33 179.381,32.384C177.932,31.438 176.715,30.25 175.731,28.821C174.746,27.392 174.253,25.537 174.253,23.259C174.253,21.52 174.591,19.927 175.267,18.479C175.943,17.03 176.889,15.784 178.106,14.741C179.323,13.699 180.781,12.887 182.48,12.308C184.18,11.729 186.073,11.439 188.159,11.439C190.515,11.439 192.832,11.651 195.111,12.076C197.39,12.501 199.206,13.081 200.558,13.814L200.558,25.576L194.184,25.576L194.184,19.145C194.068,19.145 193.952,19.126 193.837,19.087C192.987,18.855 192.069,18.672 191.084,18.536C190.099,18.401 189.124,18.334 188.159,18.334C186.304,18.334 184.846,18.701 183.784,19.435C182.722,20.168 182.191,21.153 182.191,22.389C182.191,23.664 182.683,24.707 183.668,25.518C184.653,26.329 185.87,27.063 187.318,27.72C188.767,28.377 190.351,29.033 192.069,29.69C193.788,30.346 195.372,31.148 196.82,32.094C198.269,33.041 199.486,34.228 200.471,35.658C201.456,37.087 201.948,38.883 201.948,41.046C201.948,43.132 201.562,44.957 200.789,46.521C200.017,48.086 198.935,49.399 197.545,50.461C196.154,51.523 194.513,52.315 192.62,52.837C190.727,53.358 188.68,53.619 186.478,53.619C185.01,53.619 183.649,53.503 182.394,53.271C181.138,53.039 179.979,52.75 178.917,52.402C177.855,52.054 176.918,51.687 176.107,51.301C175.296,50.915 174.639,50.587 174.137,50.316L174.137,39.54Z" style="fill-rule:nonzero;"/>
    <path d="M211.972,46.434L218.577,46.434L218.577,18.623L213.015,18.623L213.015,25.634L206.641,25.634L206.641,12.25L238.392,12.25L238.392,25.634L232.019,25.634L232.019,18.623L226.514,18.623L226.514,46.434L233.062,46.434L233.062,52.808L211.972,52.808L211.972,46.434Z" style="fill-rule:nonzero;"/>
    <rect x="244.418" y="59.587" width="25.725" height="6.2" style="fill-rule:nonzero;"/>
    <path d="M300.387,39.192L306.761,39.192L306.761,50.78C305.524,51.668 303.95,52.363 302.038,52.866C300.126,53.368 298.166,53.619 296.158,53.619C293.608,53.619 291.184,53.242 288.886,52.489C286.588,51.736 284.57,50.519 282.832,48.839C281.093,47.159 279.703,44.976 278.66,42.292C277.617,39.607 277.096,36.353 277.096,32.529C277.096,28.55 277.685,25.219 278.863,22.534C280.041,19.85 281.557,17.687 283.411,16.045C285.265,14.403 287.331,13.225 289.61,12.511C291.889,11.796 294.13,11.439 296.331,11.439C298.649,11.439 300.609,11.632 302.212,12.018C303.815,12.405 305.138,12.849 306.181,13.351L306.181,25.402L299.808,25.402L299.808,18.797C298.61,18.604 297.374,18.508 296.1,18.508C294.593,18.508 293.193,18.788 291.899,19.348C290.605,19.908 289.475,20.767 288.51,21.926C287.544,23.085 286.791,24.543 286.25,26.3C285.709,28.058 285.439,30.134 285.439,32.529C285.439,34.615 285.69,36.517 286.192,38.236C286.694,39.955 287.428,41.432 288.394,42.668C289.359,43.904 290.537,44.86 291.928,45.536C293.319,46.212 294.902,46.55 296.679,46.55C297.954,46.55 299.19,46.434 300.387,46.203L300.387,39.192Z" style="fill-rule:nonzero;"/>
    <path d="M311.685,46.434L318.87,46.434L318.87,30.211L311.685,30.211L311.685,23.838L324.722,23.838L325.591,27.662L325.823,27.662C326.904,26.387 328.14,25.325 329.531,24.475C330.921,23.625 332.544,23.201 334.398,23.201C336.715,23.201 338.54,24.05 339.873,25.75C341.206,27.449 341.872,30.289 341.872,34.267L335.093,34.267C335.093,32.876 334.89,31.863 334.485,31.225C334.079,30.588 333.432,30.269 332.544,30.269C330.999,30.269 329.753,30.655 328.806,31.428C327.86,32.201 327.059,33.089 326.402,34.093L326.402,46.434L338.975,46.434L338.975,52.808L311.685,52.808L311.685,46.434Z" style="fill-rule:nonzero;"/>
    <path d="M346.217,38.323C346.217,35.889 346.584,33.726 347.318,31.834C348.052,29.941 349.095,28.338 350.447,27.025C351.799,25.711 353.411,24.717 355.285,24.041C357.158,23.365 359.254,23.027 361.571,23.027C364.005,23.027 366.177,23.394 368.089,24.128C370.001,24.862 371.614,25.895 372.927,27.227C374.241,28.56 375.235,30.173 375.911,32.065C376.587,33.958 376.925,36.044 376.925,38.323C376.925,40.756 376.558,42.919 375.824,44.812C375.09,46.705 374.048,48.308 372.696,49.621C371.344,50.934 369.731,51.929 367.858,52.605C365.984,53.281 363.889,53.619 361.571,53.619C359.138,53.619 356.965,53.252 355.053,52.518C353.141,51.784 351.528,50.751 350.215,49.418C348.902,48.086 347.907,46.473 347.231,44.58C346.555,42.688 346.217,40.602 346.217,38.323ZM353.981,38.323C353.981,39.597 354.155,40.776 354.503,41.857C354.85,42.939 355.352,43.885 356.009,44.696C356.666,45.507 357.458,46.135 358.385,46.579C359.312,47.023 360.374,47.245 361.571,47.245C363.812,47.245 365.637,46.531 367.046,45.102C368.456,43.673 369.161,41.413 369.161,38.323C369.161,35.658 368.505,33.504 367.191,31.863C365.878,30.221 364.005,29.4 361.571,29.4C360.49,29.4 359.485,29.564 358.558,29.893C357.631,30.221 356.83,30.752 356.154,31.486C355.478,32.22 354.947,33.147 354.561,34.267C354.174,35.387 353.981,36.739 353.981,38.323Z" style="fill-rule:nonzero;"/>
    <path d="M402.245,44.812C402.245,44.039 401.772,43.421 400.825,42.958C399.879,42.494 398.71,42.07 397.32,41.683C395.929,41.297 394.404,40.901 392.743,40.496C391.082,40.09 389.556,39.53 388.165,38.815C386.775,38.101 385.606,37.193 384.66,36.092C383.714,34.991 383.241,33.572 383.241,31.834C383.241,30.404 383.559,29.149 384.197,28.068C384.834,26.986 385.703,26.069 386.804,25.315C387.905,24.562 389.218,23.992 390.744,23.606C392.269,23.22 393.921,23.027 395.698,23.027C397.59,23.027 399.251,23.162 400.68,23.432C402.109,23.703 403.355,24.031 404.417,24.417C405.48,24.804 406.387,25.238 407.141,25.721C407.894,26.204 408.541,26.638 409.082,27.025L405.895,32.181C405.315,31.834 404.649,31.476 403.896,31.109C403.143,30.742 402.351,30.404 401.52,30.095C400.69,29.786 399.821,29.535 398.913,29.342C398.005,29.149 397.107,29.052 396.219,29.052C394.597,29.052 393.283,29.265 392.279,29.69C391.275,30.115 390.773,30.771 390.773,31.66C390.773,32.355 391.246,32.915 392.192,33.34C393.139,33.765 394.307,34.161 395.698,34.528C397.088,34.895 398.614,35.291 400.275,35.716C401.936,36.14 403.461,36.691 404.852,37.367C406.243,38.043 407.411,38.921 408.357,40.003C409.304,41.085 409.777,42.475 409.777,44.175C409.777,47.11 408.705,49.418 406.561,51.098C404.417,52.779 401.24,53.619 397.03,53.619C393.708,53.619 390.84,53.126 388.426,52.141C386.012,51.156 384.071,50.007 382.603,48.694L386.08,43.248C386.582,43.673 387.248,44.146 388.079,44.667C388.909,45.189 389.846,45.662 390.889,46.087C391.931,46.512 393.042,46.869 394.22,47.159C395.398,47.448 396.567,47.593 397.725,47.593C398.961,47.593 400.024,47.381 400.912,46.956C401.8,46.531 402.245,45.816 402.245,44.812Z" style="fill-rule:nonzero;"/>
    <path d="M437.008,44.812C437.008,44.039 436.535,43.421 435.589,42.958C434.642,42.494 433.474,42.07 432.083,41.683C430.693,41.297 429.167,40.901 427.506,40.496C425.845,40.09 424.32,39.53 422.929,38.815C421.539,38.101 420.37,37.193 419.424,36.092C418.477,34.991 418.004,33.572 418.004,31.834C418.004,30.404 418.323,29.149 418.96,28.068C419.598,26.986 420.467,26.069 421.567,25.315C422.668,24.562 423.982,23.992 425.507,23.606C427.033,23.22 428.684,23.027 430.461,23.027C432.354,23.027 434.015,23.162 435.444,23.432C436.873,23.703 438.119,24.031 439.181,24.417C440.243,24.804 441.151,25.238 441.904,25.721C442.657,26.204 443.304,26.638 443.845,27.025L440.659,32.181C440.079,31.834 439.413,31.476 438.66,31.109C437.906,30.742 437.115,30.404 436.284,30.095C435.454,29.786 434.585,29.535 433.677,29.342C432.769,29.149 431.871,29.052 430.983,29.052C429.36,29.052 428.047,29.265 427.043,29.69C426.038,30.115 425.536,30.771 425.536,31.66C425.536,32.355 426.01,32.915 426.956,33.34C427.902,33.765 429.071,34.161 430.461,34.528C431.852,34.895 433.377,35.291 435.038,35.716C436.699,36.14 438.225,36.691 439.616,37.367C441.006,38.043 442.175,38.921 443.121,40.003C444.067,41.085 444.54,42.475 444.54,44.175C444.54,47.11 443.469,49.418 441.325,51.098C439.181,52.779 436.004,53.619 431.794,53.619C428.472,53.619 425.604,53.126 423.19,52.141C420.776,51.156 418.835,50.007 417.367,48.694L420.843,43.248C421.345,43.673 422.012,44.146 422.842,44.667C423.673,45.189 424.609,45.662 425.652,46.087C426.695,46.512 427.806,46.869 428.984,47.159C430.162,47.448 431.33,47.593 432.489,47.593C433.725,47.593 434.787,47.381 435.676,46.956C436.564,46.531 437.008,45.816 437.008,44.812Z" style="fill-rule:nonzero;"/>
    <path d="M479.42,49.737C478.918,50.2 478.271,50.654 477.479,51.098C476.687,51.543 475.76,51.958 474.698,52.344C473.636,52.73 472.467,53.039 471.193,53.271C469.918,53.503 468.566,53.619 467.137,53.619C464.665,53.619 462.453,53.271 460.503,52.576C458.552,51.881 456.901,50.867 455.549,49.534C454.197,48.201 453.164,46.598 452.449,44.725C451.735,42.852 451.377,40.718 451.377,38.323C451.377,35.773 451.783,33.543 452.594,31.631C453.405,29.719 454.516,28.125 455.926,26.851C457.335,25.576 458.987,24.62 460.879,23.983C462.772,23.345 464.819,23.027 467.021,23.027C468.489,23.027 470.005,23.22 471.569,23.606C473.134,23.992 474.572,24.659 475.886,25.605C477.199,26.551 478.271,27.816 479.101,29.4C479.932,30.984 480.347,32.992 480.347,35.426C480.347,37.087 480.154,38.883 479.768,40.814L458.909,40.814C458.948,42.05 459.209,43.093 459.692,43.943C460.174,44.793 460.812,45.488 461.604,46.029C462.395,46.569 463.303,46.965 464.327,47.216C465.35,47.468 466.442,47.593 467.6,47.593C469.918,47.593 471.82,47.323 473.307,46.782C474.795,46.241 476.002,45.585 476.929,44.812L479.42,49.737ZM466.905,29.052C465.901,29.052 464.954,29.188 464.066,29.458C463.178,29.728 462.376,30.124 461.662,30.646C460.947,31.167 460.358,31.814 459.894,32.587C459.431,33.359 459.161,34.228 459.083,35.194L473.336,35.194C473.336,33.301 472.805,31.805 471.743,30.704C470.681,29.603 469.068,29.052 466.905,29.052Z" style="fill-rule:nonzero;"/>
    <path d="M506.536,44.812C506.536,44.039 506.062,43.421 505.116,42.958C504.17,42.494 503.001,42.07 501.611,41.683C500.22,41.297 498.695,40.901 497.034,40.496C495.373,40.09 493.847,39.53 492.456,38.815C491.066,38.101 489.897,37.193 488.951,36.092C488.005,34.991 487.532,33.572 487.532,31.834C487.532,30.404 487.85,29.149 488.488,28.068C489.125,26.986 489.994,26.069 491.095,25.315C492.196,24.562 493.509,23.992 495.035,23.606C496.56,23.22 498.212,23.027 499.989,23.027C501.881,23.027 503.542,23.162 504.971,23.432C506.4,23.703 507.646,24.031 508.708,24.417C509.771,24.804 510.678,25.238 511.432,25.721C512.185,26.204 512.832,26.638 513.373,27.025L510.186,32.181C509.606,31.834 508.94,31.476 508.187,31.109C507.434,30.742 506.642,30.404 505.811,30.095C504.981,29.786 504.112,29.535 503.204,29.342C502.296,29.149 501.398,29.052 500.51,29.052C498.888,29.052 497.574,29.265 496.57,29.69C495.566,30.115 495.064,30.771 495.064,31.66C495.064,32.355 495.537,32.915 496.483,33.34C497.43,33.765 498.598,34.161 499.989,34.528C501.379,34.895 502.905,35.291 504.566,35.716C506.227,36.14 507.752,36.691 509.143,37.367C510.533,38.043 511.702,38.921 512.648,40.003C513.595,41.085 514.068,42.475 514.068,44.175C514.068,47.11 512.996,49.418 510.852,51.098C508.708,52.779 505.531,53.619 501.321,53.619C497.999,53.619 495.131,53.126 492.717,52.141C490.303,51.156 488.362,50.007 486.894,48.694L490.371,43.248C490.873,43.673 491.539,44.146 492.369,44.667C493.2,45.189 494.137,45.662 495.18,46.087C496.222,46.512 497.333,46.869 498.511,47.159C499.689,47.448 500.858,47.593 502.016,47.593C503.252,47.593 504.315,47.381 505.203,46.956C506.091,46.531 506.536,45.816 506.536,44.812Z" style="fill-rule:nonzero;"/>
    <path d="M832.115,39.54L838.488,39.54L838.488,45.276C838.604,45.314 838.72,45.353 838.836,45.391C839.724,45.778 840.699,46.096 841.762,46.347C842.824,46.598 843.954,46.724 845.151,46.724C847.314,46.724 848.994,46.289 850.192,45.42C851.389,44.551 851.988,43.383 851.988,41.915C851.988,40.602 851.495,39.54 850.511,38.728C849.526,37.917 848.309,37.203 846.86,36.585C845.412,35.967 843.828,35.349 842.109,34.731C840.39,34.113 838.807,33.33 837.358,32.384C835.91,31.438 834.693,30.25 833.708,28.821C832.723,27.392 832.231,25.537 832.231,23.259C832.231,21.52 832.569,19.927 833.245,18.479C833.921,17.03 834.867,15.784 836.084,14.741C837.3,13.699 838.758,12.887 840.458,12.308C842.158,11.729 844.05,11.439 846.136,11.439C848.492,11.439 850.81,11.651 853.089,12.076C855.368,12.501 857.183,13.081 858.535,13.814L858.535,25.576L852.162,25.576L852.162,19.145C852.046,19.145 851.93,19.126 851.814,19.087C850.964,18.855 850.047,18.672 849.062,18.536C848.077,18.401 847.102,18.334 846.136,18.334C844.282,18.334 842.824,18.701 841.762,19.435C840.699,20.168 840.168,21.153 840.168,22.389C840.168,23.664 840.661,24.707 841.646,25.518C842.631,26.329 843.847,27.063 845.296,27.72C846.744,28.377 848.328,29.033 850.047,29.69C851.766,30.346 853.35,31.148 854.798,32.094C856.247,33.041 857.463,34.228 858.448,35.658C859.433,37.087 859.926,38.883 859.926,41.046C859.926,43.132 859.539,44.957 858.767,46.521C857.994,48.086 856.913,49.399 855.522,50.461C854.132,51.523 852.49,52.315 850.597,52.837C848.705,53.358 846.658,53.619 844.456,53.619C842.988,53.619 841.626,53.503 840.371,53.271C839.116,53.039 837.957,52.75 836.895,52.402C835.833,52.054 834.896,51.687 834.085,51.301C833.274,50.915 832.617,50.587 832.115,50.316L832.115,39.54Z" style="fill-rule:nonzero;"/>
    <path d="M869.949,46.434L876.554,46.434L876.554,18.623L870.992,18.623L870.992,25.634L864.619,25.634L864.619,12.25L896.37,12.25L896.37,25.634L889.996,25.634L889.996,18.623L884.492,18.623L884.492,46.434L891.039,46.434L891.039,52.808L869.949,52.808L869.949,46.434Z" style="fill-rule:nonzero;"/>
    <rect x="902.395" y="59.587" width="25.725" height="6.2" style="fill-rule:nonzero;"/>
    <path d="M942.779,34.904L942.895,39.771L943.127,39.771L944.112,35.194L947.588,24.417L953.498,24.417L956.742,35.194L957.785,39.771L958.017,39.771L958.133,34.788L959.755,12.25L967.056,12.25L962.884,52.808L956.163,52.808L951.818,40.003L950.485,34.441L950.195,34.441L948.805,40.003L944.112,52.808L937.159,52.808L932.987,12.25L940.925,12.25L942.779,34.904Z" style="fill-rule:nonzero;"/>
    <path d="M970.822,46.434L981.019,46.434L981.019,30.211L970.822,30.211L970.822,23.838L988.551,23.838L988.551,46.434L999.27,46.434L999.27,52.808L970.822,52.808L970.822,46.434ZM979.629,15.958C979.629,14.761 980.073,13.737 980.961,12.887C981.85,12.038 983.086,11.613 984.669,11.613C986.292,11.613 987.586,12.038 988.551,12.887C989.517,13.737 990,14.761 990,15.958C990,17.194 989.517,18.208 988.551,19C987.586,19.792 986.292,20.188 984.669,20.188C983.086,20.188 981.85,19.792 980.961,19C980.073,18.208 979.629,17.194 979.629,15.958Z" style="fill-rule:nonzero;"/>
    <path d="M1008.89,30.211L1003.15,30.211L1003.15,23.838L1008.89,23.838L1008.89,17.233L1016.42,15.089L1016.42,23.838L1031.6,23.838L1031.6,30.211L1016.42,30.211L1016.42,38.497C1016.42,41.471 1016.98,43.624 1018.1,44.957C1019.22,46.289 1020.78,46.956 1022.79,46.956C1023.84,46.956 1024.78,46.83 1025.63,46.579C1026.48,46.328 1027.25,46.009 1027.92,45.623C1028.6,45.237 1029.21,44.812 1029.78,44.348C1030.34,43.885 1030.85,43.46 1031.31,43.074L1034.79,48.288C1034.13,49.061 1033.31,49.766 1032.32,50.403C1031.34,51.04 1030.28,51.601 1029.14,52.083C1028,52.566 1026.81,52.943 1025.57,53.213C1024.34,53.484 1023.12,53.619 1021.92,53.619C1017.6,53.619 1014.34,52.412 1012.16,49.998C1009.98,47.583 1008.89,43.75 1008.89,38.497L1008.89,30.211Z" style="fill-rule:nonzero;"/>
    <path d="M1036.93,12.25L1048.63,12.25L1048.63,27.083L1048.87,27.083C1049.79,25.846 1051.03,24.862 1052.57,24.128C1054.12,23.394 1055.93,23.027 1058.02,23.027C1059.49,23.027 1060.84,23.22 1062.08,23.606C1063.31,23.992 1064.38,24.63 1065.26,25.518C1066.15,26.407 1066.85,27.614 1067.35,29.139C1067.85,30.665 1068.1,32.548 1068.1,34.788L1068.1,52.808L1060.57,52.808L1060.57,36.353C1060.57,33.997 1060.07,32.297 1059.06,31.254C1058.06,30.211 1056.75,29.69 1055.12,29.69C1053.69,29.69 1052.38,30.124 1051.18,30.993C1049.99,31.863 1049.14,32.973 1048.63,34.325L1048.63,52.808L1041.1,52.808L1041.1,18.623L1036.93,18.623L1036.93,12.25Z" style="fill-rule:nonzero;"/>
    <path d="M1075.11,46.434L1085.31,46.434L1085.31,30.211L1075.11,30.211L1075.11,23.838L1092.84,23.838L1092.84,46.434L1103.56,46.434L1103.56,52.808L1075.11,52.808L1075.11,46.434ZM1083.92,15.958C1083.92,14.761 1084.36,13.737 1085.25,12.887C1086.14,12.038 1087.38,11.613 1088.96,11.613C1090.58,11.613 1091.88,12.038 1092.84,12.887C1093.81,13.737 1094.29,14.761 1094.29,15.958C1094.29,17.194 1093.81,18.208 1092.84,19C1091.88,19.792 1090.58,20.188 1088.96,20.188C1087.38,20.188 1086.14,19.792 1085.25,19C1084.36,18.208 1083.92,17.194 1083.92,15.958Z" style="fill-rule:nonzero;"/>
    <path d="M1107.15,23.838L1117.29,23.838L1118.16,27.662L1118.39,27.662C1119.28,26.426 1120.56,25.344 1122.22,24.417C1123.88,23.49 1125.87,23.027 1128.18,23.027C1129.61,23.027 1130.96,23.22 1132.21,23.606C1133.47,23.992 1134.54,24.63 1135.43,25.518C1136.32,26.407 1137.02,27.614 1137.54,29.139C1138.06,30.665 1138.33,32.548 1138.33,34.788L1138.33,52.808L1130.79,52.808L1130.79,36.353C1130.79,33.997 1130.26,32.297 1129.2,31.254C1128.14,30.211 1126.8,29.69 1125.17,29.69C1123.74,29.69 1122.44,30.105 1121.26,30.936C1120.08,31.766 1119.28,32.799 1118.86,34.035L1118.86,52.808L1111.33,52.808L1111.33,30.211L1107.15,30.211L1107.15,23.838Z" style="fill-rule:nonzero;"/>
    <path d="M1166.08,11.555L1171.76,14.104L1151.07,60.919L1145.39,58.254L1166.08,11.555Z" style="fill-rule:nonzero;"/>
    <path d="M1179.75,39.54L1186.12,39.54L1186.12,45.276C1186.24,45.314 1186.36,45.353 1186.47,45.391C1187.36,45.778 1188.34,46.096 1189.4,46.347C1190.46,46.598 1191.59,46.724 1192.79,46.724C1194.95,46.724 1196.63,46.289 1197.83,45.42C1199.03,44.551 1199.62,43.383 1199.62,41.915C1199.62,40.602 1199.13,39.54 1198.15,38.728C1197.16,37.917 1195.94,37.203 1194.5,36.585C1193.05,35.967 1191.46,35.349 1189.75,34.731C1188.03,34.113 1186.44,33.33 1185,32.384C1183.55,31.438 1182.33,30.25 1181.35,28.821C1180.36,27.392 1179.87,25.537 1179.87,23.259C1179.87,21.52 1180.2,19.927 1180.88,18.479C1181.56,17.03 1182.5,15.784 1183.72,14.741C1184.94,13.699 1186.39,12.887 1188.1,12.308C1189.79,11.729 1191.69,11.439 1193.77,11.439C1196.13,11.439 1198.45,11.651 1200.73,12.076C1203,12.501 1204.82,13.081 1206.17,13.814L1206.17,25.576L1199.8,25.576L1199.8,19.145C1199.68,19.145 1199.57,19.126 1199.45,19.087C1198.6,18.855 1197.68,18.672 1196.7,18.536C1195.71,18.401 1194.74,18.334 1193.77,18.334C1191.92,18.334 1190.46,18.701 1189.4,19.435C1188.34,20.168 1187.81,21.153 1187.81,22.389C1187.81,23.664 1188.3,24.707 1189.28,25.518C1190.27,26.329 1191.48,27.063 1192.93,27.72C1194.38,28.377 1195.96,29.033 1197.68,29.69C1199.4,30.346 1200.99,31.148 1202.43,32.094C1203.88,33.041 1205.1,34.228 1206.09,35.658C1207.07,37.087 1207.56,38.883 1207.56,41.046C1207.56,43.132 1207.18,44.957 1206.4,46.521C1205.63,48.086 1204.55,49.399 1203.16,50.461C1201.77,51.523 1200.13,52.315 1198.23,52.837C1196.34,53.358 1194.29,53.619 1192.09,53.619C1190.62,53.619 1189.26,53.503 1188.01,53.271C1186.75,53.039 1185.59,52.75 1184.53,52.402C1183.47,52.054 1182.53,51.687 1181.72,51.301C1180.91,50.915 1180.25,50.587 1179.75,50.316L1179.75,39.54Z" style="fill-rule:nonzero;"/>
    <path d="M1217.59,46.434L1224.19,46.434L1224.19,18.623L1218.63,18.623L1218.63,25.634L1212.26,25.634L1212.26,12.25L1244.01,12.25L1244.01,25.634L1237.63,25.634L1237.63,18.623L1232.13,18.623L1232.13,46.434L1238.68,46.434L1238.68,52.808L1217.59,52.808L1217.59,46.434Z" style="fill-rule:nonzero;"/>
    <rect x="1250.03" y="59.587" width="25.725" height="6.2" style="fill-rule:nonzero;"/>
    <path d="M1306,39.192L1312.38,39.192L1312.38,50.78C1311.14,51.668 1309.57,52.363 1307.65,52.866C1305.74,53.368 1303.78,53.619 1301.77,53.619C1299.22,53.619 1296.8,53.242 1294.5,52.489C1292.2,51.736 1290.18,50.519 1288.45,48.839C1286.71,47.159 1285.32,44.976 1284.27,42.292C1283.23,39.607 1282.71,36.353 1282.71,32.529C1282.71,28.55 1283.3,25.219 1284.48,22.534C1285.65,19.85 1287.17,17.687 1289.03,16.045C1290.88,14.403 1292.95,13.225 1295.23,12.511C1297.5,11.796 1299.74,11.439 1301.95,11.439C1304.26,11.439 1306.22,11.632 1307.83,12.018C1309.43,12.405 1310.75,12.849 1311.8,13.351L1311.8,25.402L1305.42,25.402L1305.42,18.797C1304.22,18.604 1302.99,18.508 1301.71,18.508C1300.21,18.508 1298.81,18.788 1297.51,19.348C1296.22,19.908 1295.09,20.767 1294.12,21.926C1293.16,23.085 1292.4,24.543 1291.86,26.3C1291.32,28.058 1291.05,30.134 1291.05,32.529C1291.05,34.615 1291.3,36.517 1291.81,38.236C1292.31,39.955 1293.04,41.432 1294.01,42.668C1294.97,43.904 1296.15,44.86 1297.54,45.536C1298.93,46.212 1300.52,46.55 1302.29,46.55C1303.57,46.55 1304.8,46.434 1306,46.203L1306,39.192Z" style="fill-rule:nonzero;"/>
    <path d="M1317.07,38.323C1317.07,35.889 1317.43,33.726 1318.17,31.834C1318.9,29.941 1319.94,28.338 1321.3,27.025C1322.65,25.711 1324.26,24.717 1326.13,24.041C1328.01,23.365 1330.1,23.027 1332.42,23.027C1334.86,23.027 1337.03,23.394 1338.94,24.128C1340.85,24.862 1342.46,25.895 1343.78,27.227C1345.09,28.56 1346.09,30.173 1346.76,32.065C1347.44,33.958 1347.78,36.044 1347.78,38.323C1347.78,40.756 1347.41,42.919 1346.67,44.812C1345.94,46.705 1344.9,48.308 1343.55,49.621C1342.19,50.934 1340.58,51.929 1338.71,52.605C1336.84,53.281 1334.74,53.619 1332.42,53.619C1329.99,53.619 1327.82,53.252 1325.9,52.518C1323.99,51.784 1322.38,50.751 1321.07,49.418C1319.75,48.086 1318.76,46.473 1318.08,44.58C1317.41,42.688 1317.07,40.602 1317.07,38.323ZM1324.83,38.323C1324.83,39.597 1325.01,40.776 1325.35,41.857C1325.7,42.939 1326.2,43.885 1326.86,44.696C1327.52,45.507 1328.31,46.135 1329.24,46.579C1330.16,47.023 1331.22,47.245 1332.42,47.245C1334.66,47.245 1336.49,46.531 1337.9,45.102C1339.31,43.673 1340.01,41.413 1340.01,38.323C1340.01,35.658 1339.36,33.504 1338.04,31.863C1336.73,30.221 1334.86,29.4 1332.42,29.4C1331.34,29.4 1330.34,29.564 1329.41,29.893C1328.48,30.221 1327.68,30.752 1327,31.486C1326.33,32.22 1325.8,33.147 1325.41,34.267C1325.03,35.387 1324.83,36.739 1324.83,38.323Z" style="fill-rule:nonzero;"/>
    <path d="M1350.5,23.838L1360.64,23.838L1361.51,27.662L1361.74,27.662C1362.63,26.426 1363.9,25.344 1365.56,24.417C1367.22,23.49 1369.21,23.027 1371.53,23.027C1372.96,23.027 1374.3,23.22 1375.56,23.606C1376.81,23.992 1377.88,24.63 1378.77,25.518C1379.66,26.407 1380.37,27.614 1380.89,29.139C1381.41,30.665 1381.67,32.548 1381.67,34.788L1381.67,52.808L1374.14,52.808L1374.14,36.353C1374.14,33.997 1373.61,32.297 1372.55,31.254C1371.48,30.211 1370.14,29.69 1368.52,29.69C1367.09,29.69 1365.79,30.105 1364.61,30.936C1363.43,31.766 1362.63,32.799 1362.2,34.035L1362.2,52.808L1354.67,52.808L1354.67,30.211L1350.5,30.211L1350.5,23.838Z" style="fill-rule:nonzero;"/>
    <path d="M1391.29,30.211L1385.55,30.211L1385.55,23.838L1391.29,23.838L1391.29,17.233L1398.82,15.089L1398.82,23.838L1414,23.838L1414,30.211L1398.82,30.211L1398.82,38.497C1398.82,41.471 1399.38,43.624 1400.5,44.957C1401.62,46.289 1403.18,46.956 1405.19,46.956C1406.24,46.956 1407.18,46.83 1408.03,46.579C1408.88,46.328 1409.64,46.009 1410.32,45.623C1411,45.237 1411.62,44.812 1412.17,44.348C1412.74,43.885 1413.25,43.46 1413.71,43.074L1417.19,48.288C1416.53,49.061 1415.71,49.766 1414.73,50.403C1413.74,51.04 1412.68,51.601 1411.54,52.083C1410.4,52.566 1409.21,52.943 1407.98,53.213C1406.74,53.484 1405.52,53.619 1404.33,53.619C1400,53.619 1396.74,52.412 1394.56,49.998C1392.38,47.583 1391.29,43.75 1391.29,38.497L1391.29,30.211Z" style="fill-rule:nonzero;"/>
    <path d="M1424.55,25.808C1426.09,25.113 1427.88,24.514 1429.9,24.012C1431.93,23.51 1434.34,23.259 1437.12,23.259C1439.13,23.259 1440.84,23.5 1442.25,23.983C1443.66,24.466 1444.8,25.151 1445.66,26.04C1446.53,26.928 1447.16,27.99 1447.55,29.226C1447.93,30.462 1448.13,31.853 1448.13,33.398C1448.13,35.368 1448.06,37.048 1447.92,38.439C1447.79,39.829 1447.72,41.065 1447.72,42.147C1447.72,42.958 1447.76,43.866 1447.84,44.87C1447.91,45.411 1447.97,45.932 1448.01,46.434L1451.78,46.434L1451.78,52.808L1442.16,52.808L1441.41,48.868L1441.12,48.868C1440.34,50.065 1439.24,51.098 1437.81,51.968C1436.38,52.837 1434.45,53.271 1432.02,53.271C1429.12,53.271 1426.82,52.499 1425.12,50.954C1423.42,49.409 1422.58,47.361 1422.58,44.812C1422.58,43.19 1422.88,41.789 1423.47,40.611C1424.07,39.433 1424.94,38.468 1426.08,37.714C1427.22,36.961 1428.59,36.401 1430.19,36.034C1431.8,35.667 1433.58,35.484 1435.55,35.484C1436.25,35.484 1436.98,35.522 1437.76,35.6C1438.53,35.677 1439.47,35.754 1440.6,35.831C1440.67,35.445 1440.71,35.059 1440.71,34.673L1440.71,33.572C1440.71,32.104 1440.29,31.051 1439.44,30.414C1438.59,29.777 1437.33,29.458 1435.67,29.458C1433.7,29.458 1431.92,29.709 1430.34,30.211C1428.76,30.713 1427.42,31.216 1426.34,31.718L1424.55,25.808ZM1434.45,47.072C1436.31,47.072 1437.7,46.734 1438.62,46.058C1439.55,45.382 1440.23,44.657 1440.65,43.885L1440.65,40.409C1440.27,40.331 1439.69,40.244 1438.91,40.148C1438.14,40.051 1437.31,40.003 1436.42,40.003C1435.69,40.003 1434.95,40.071 1434.22,40.206C1433.49,40.341 1432.83,40.553 1432.25,40.843C1431.67,41.133 1431.21,41.509 1430.86,41.973C1430.51,42.436 1430.34,42.997 1430.34,43.653C1430.34,44.735 1430.66,45.575 1431.3,46.174C1431.93,46.772 1432.99,47.072 1434.45,47.072Z" style="fill-rule:nonzero;"/>
    <path d="M1457.51,46.434L1467.71,46.434L1467.71,30.211L1457.51,30.211L1457.51,23.838L1475.24,23.838L1475.24,46.434L1485.96,46.434L1485.96,52.808L1457.51,52.808L1457.51,46.434ZM1466.32,15.958C1466.32,14.761 1466.76,13.737 1467.65,12.887C1468.54,12.038 1469.78,11.613 1471.36,11.613C1472.98,11.613 1474.28,12.038 1475.24,12.887C1476.21,13.737 1476.69,14.761 1476.69,15.958C1476.69,17.194 1476.21,18.208 1475.24,19C1474.28,19.792 1472.98,20.188 1471.36,20.188C1469.78,20.188 1468.54,19.792 1467.65,19C1466.76,18.208 1466.32,17.194 1466.32,15.958Z" style="fill-rule:nonzero;"/>
    <path d="M1489.55,23.838L1499.69,23.838L1500.56,27.662L1500.79,27.662C1501.68,26.426 1502.96,25.344 1504.62,24.417C1506.28,23.49 1508.27,23.027 1510.59,23.027C1512.02,23.027 1513.36,23.22 1514.61,23.606C1515.87,23.992 1516.94,24.63 1517.83,25.518C1518.72,26.407 1519.42,27.614 1519.94,29.139C1520.46,30.665 1520.73,32.548 1520.73,34.788L1520.73,52.808L1513.19,52.808L1513.19,36.353C1513.19,33.997 1512.66,32.297 1511.6,31.254C1510.54,30.211 1509.19,29.69 1507.57,29.69C1506.14,29.69 1504.84,30.105 1503.66,30.936C1502.48,31.766 1501.68,32.799 1501.26,34.035L1501.26,52.808L1493.73,52.808L1493.73,30.211L1489.55,30.211L1489.55,23.838Z" style="fill-rule:nonzero;"/>
    <path d="M1546.91,44.812C1546.91,44.039 1546.44,43.421 1545.49,42.958C1544.55,42.494 1543.38,42.07 1541.99,41.683C1540.6,41.297 1539.07,40.901 1537.41,40.496C1535.75,40.09 1534.23,39.53 1532.83,38.815C1531.44,38.101 1530.28,37.193 1529.33,36.092C1528.38,34.991 1527.91,33.572 1527.91,31.834C1527.91,30.404 1528.23,29.149 1528.87,28.068C1529.5,26.986 1530.37,26.069 1531.47,25.315C1532.57,24.562 1533.89,23.992 1535.41,23.606C1536.94,23.22 1538.59,23.027 1540.37,23.027C1542.26,23.027 1543.92,23.162 1545.35,23.432C1546.78,23.703 1548.02,24.031 1549.09,24.417C1550.15,24.804 1551.06,25.238 1551.81,25.721C1552.56,26.204 1553.21,26.638 1553.75,27.025L1550.56,32.181C1549.98,31.834 1549.32,31.476 1548.57,31.109C1547.81,30.742 1547.02,30.404 1546.19,30.095C1545.36,29.786 1544.49,29.535 1543.58,29.342C1542.67,29.149 1541.78,29.052 1540.89,29.052C1539.27,29.052 1537.95,29.265 1536.95,29.69C1535.94,30.115 1535.44,30.771 1535.44,31.66C1535.44,32.355 1535.91,32.915 1536.86,33.34C1537.81,33.765 1538.98,34.161 1540.37,34.528C1541.76,34.895 1543.28,35.291 1544.94,35.716C1546.6,36.14 1548.13,36.691 1549.52,37.367C1550.91,38.043 1552.08,38.921 1553.03,40.003C1553.97,41.085 1554.45,42.475 1554.45,44.175C1554.45,47.11 1553.37,49.418 1551.23,51.098C1549.09,52.779 1545.91,53.619 1541.7,53.619C1538.38,53.619 1535.51,53.126 1533.1,52.141C1530.68,51.156 1528.74,50.007 1527.27,48.694L1530.75,43.248C1531.25,43.673 1531.92,44.146 1532.75,44.667C1533.58,45.189 1534.51,45.662 1535.56,46.087C1536.6,46.512 1537.71,46.869 1538.89,47.159C1540.07,47.448 1541.24,47.593 1542.39,47.593C1543.63,47.593 1544.69,47.381 1545.58,46.956C1546.47,46.531 1546.91,45.816 1546.91,44.812Z" style="fill-rule:nonzero;"/>
    <path d="M1728.53,39.54L1734.91,39.54L1734.91,45.276C1735.02,45.314 1735.14,45.353 1735.26,45.391C1736.14,45.778 1737.12,46.096 1738.18,46.347C1739.24,46.598 1740.37,46.724 1741.57,46.724C1743.73,46.724 1745.41,46.289 1746.61,45.42C1747.81,44.551 1748.41,43.383 1748.41,41.915C1748.41,40.602 1747.91,39.54 1746.93,38.728C1745.94,37.917 1744.73,37.203 1743.28,36.585C1741.83,35.967 1740.25,35.349 1738.53,34.731C1736.81,34.113 1735.23,33.33 1733.78,32.384C1732.33,31.438 1731.11,30.25 1730.13,28.821C1729.14,27.392 1728.65,25.537 1728.65,23.259C1728.65,21.52 1728.99,19.927 1729.66,18.479C1730.34,17.03 1731.29,15.784 1732.5,14.741C1733.72,13.699 1735.18,12.887 1736.88,12.308C1738.58,11.729 1740.47,11.439 1742.56,11.439C1744.91,11.439 1747.23,11.651 1749.51,12.076C1751.79,12.501 1753.6,13.081 1754.95,13.814L1754.95,25.576L1748.58,25.576L1748.58,19.145C1748.47,19.145 1748.35,19.126 1748.23,19.087C1747.38,18.855 1746.47,18.672 1745.48,18.536C1744.5,18.401 1743.52,18.334 1742.56,18.334C1740.7,18.334 1739.24,18.701 1738.18,19.435C1737.12,20.168 1736.59,21.153 1736.59,22.389C1736.59,23.664 1737.08,24.707 1738.07,25.518C1739.05,26.329 1740.27,27.063 1741.72,27.72C1743.16,28.377 1744.75,29.033 1746.47,29.69C1748.18,30.346 1749.77,31.148 1751.22,32.094C1752.66,33.041 1753.88,34.228 1754.87,35.658C1755.85,37.087 1756.34,38.883 1756.34,41.046C1756.34,43.132 1755.96,44.957 1755.19,46.521C1754.41,48.086 1753.33,49.399 1751.94,50.461C1750.55,51.523 1748.91,52.315 1747.02,52.837C1745.12,53.358 1743.08,53.619 1740.88,53.619C1739.41,53.619 1738.05,53.503 1736.79,53.271C1735.54,53.039 1734.38,52.75 1733.31,52.402C1732.25,52.054 1731.32,51.687 1730.5,51.301C1729.69,50.915 1729.04,50.587 1728.53,50.316L1728.53,39.54Z" style="fill-rule:nonzero;"/>
    <path d="M1766.37,46.434L1772.97,46.434L1772.97,18.623L1767.41,18.623L1767.41,25.634L1761.04,25.634L1761.04,12.25L1792.79,12.25L1792.79,25.634L1786.41,25.634L1786.41,18.623L1780.91,18.623L1780.91,46.434L1787.46,46.434L1787.46,52.808L1766.37,52.808L1766.37,46.434Z" style="fill-rule:nonzero;"/>
    <rect x="1798.81" y="59.587" width="25.725" height="6.2" style="fill-rule:nonzero;"/>
    <path d="M1831.14,32.529C1831.14,29.246 1831.45,26.291 1832.07,23.664C1832.69,21.038 1833.64,18.826 1834.91,17.03C1836.18,15.234 1837.78,13.853 1839.69,12.887C1841.6,11.922 1843.85,11.439 1846.44,11.439C1849.22,11.439 1851.58,11.96 1853.51,13.003C1855.44,14.046 1857.01,15.495 1858.23,17.349C1859.45,19.203 1860.34,21.424 1860.9,24.012C1861.46,26.6 1861.74,29.439 1861.74,32.529C1861.74,39.134 1860.47,44.3 1857.94,48.028C1855.41,51.755 1851.58,53.619 1846.44,53.619C1843.66,53.619 1841.29,53.097 1839.34,52.054C1837.39,51.012 1835.81,49.563 1834.59,47.709C1833.38,45.855 1832.5,43.634 1831.95,41.046C1831.41,38.458 1831.14,35.619 1831.14,32.529ZM1839.49,32.529C1839.49,34.499 1839.57,36.334 1839.75,38.033C1839.92,39.733 1840.25,41.21 1840.73,42.465C1841.22,43.721 1841.91,44.715 1842.82,45.449C1843.73,46.183 1844.93,46.55 1846.44,46.55C1847.79,46.55 1848.91,46.27 1849.8,45.71C1850.69,45.15 1851.4,44.291 1851.94,43.132C1852.49,41.973 1852.86,40.515 1853.07,38.757C1853.29,37 1853.39,34.924 1853.39,32.529C1853.39,30.636 1853.33,28.84 1853.19,27.14C1853.06,25.441 1852.75,23.954 1852.26,22.679C1851.78,21.404 1851.08,20.391 1850.15,19.637C1849.22,18.884 1847.99,18.508 1846.44,18.508C1843.74,18.508 1841.9,19.686 1840.94,22.042C1839.97,24.398 1839.49,27.894 1839.49,32.529Z" style="fill-rule:nonzero;"/>
    <path d="M1881.96,44.059L1882.36,44.059L1888.85,23.838L1896.96,23.838L1885.9,52.808L1877.84,52.808L1865.39,23.838L1874.13,23.838L1881.96,44.059Z" style="fill-rule:nonzero;"/>
    <path d="M1929.53,49.737C1929.02,50.2 1928.38,50.654 1927.58,51.098C1926.79,51.543 1925.87,51.958 1924.8,52.344C1923.74,52.73 1922.57,53.039 1921.3,53.271C1920.02,53.503 1918.67,53.619 1917.24,53.619C1914.77,53.619 1912.56,53.271 1910.61,52.576C1908.66,51.881 1907.01,50.867 1905.65,49.534C1904.3,48.201 1903.27,46.598 1902.56,44.725C1901.84,42.852 1901.48,40.718 1901.48,38.323C1901.48,35.773 1901.89,33.543 1902.7,31.631C1903.51,29.719 1904.62,28.125 1906.03,26.851C1907.44,25.576 1909.09,24.62 1910.99,23.983C1912.88,23.345 1914.92,23.027 1917.13,23.027C1918.59,23.027 1920.11,23.22 1921.67,23.606C1923.24,23.992 1924.68,24.659 1925.99,25.605C1927.3,26.551 1928.38,27.816 1929.21,29.4C1930.04,30.984 1930.45,32.992 1930.45,35.426C1930.45,37.087 1930.26,38.883 1929.87,40.814L1909.02,40.814C1909.05,42.05 1909.31,43.093 1909.8,43.943C1910.28,44.793 1910.92,45.488 1911.71,46.029C1912.5,46.569 1913.41,46.965 1914.43,47.216C1915.46,47.468 1916.55,47.593 1917.71,47.593C1920.02,47.593 1921.93,47.323 1923.41,46.782C1924.9,46.241 1926.11,45.585 1927.03,44.812L1929.53,49.737ZM1917.01,29.052C1916.01,29.052 1915.06,29.188 1914.17,29.458C1913.28,29.728 1912.48,30.124 1911.77,30.646C1911.05,31.167 1910.46,31.814 1910,32.587C1909.54,33.359 1909.27,34.228 1909.19,35.194L1923.44,35.194C1923.44,33.301 1922.91,31.805 1921.85,30.704C1920.79,29.603 1919.17,29.052 1917.01,29.052Z" style="fill-rule:nonzero;"/>
    <path d="M1935.61,46.434L1942.79,46.434L1942.79,30.211L1935.61,30.211L1935.61,23.838L1948.64,23.838L1949.52,27.662L1949.75,27.662C1950.83,26.387 1952.06,25.325 1953.45,24.475C1954.85,23.625 1956.47,23.201 1958.32,23.201C1960.64,23.201 1962.46,24.05 1963.8,25.75C1965.13,27.449 1965.8,30.289 1965.8,34.267L1959.02,34.267C1959.02,32.876 1958.81,31.863 1958.41,31.225C1958,30.588 1957.36,30.269 1956.47,30.269C1954.92,30.269 1953.68,30.655 1952.73,31.428C1951.78,32.201 1950.98,33.089 1950.33,34.093L1950.33,46.434L1962.9,46.434L1962.9,52.808L1935.61,52.808L1935.61,46.434Z" style="fill-rule:nonzero;"/>
    <path d="M1973.15,12.25L1985.5,12.25L1985.5,39.018C1985.5,41.992 1985.86,44.059 1986.6,45.218C1987.33,46.376 1988.51,46.956 1990.13,46.956C1991.33,46.956 1992.31,46.83 1993.09,46.579C1993.86,46.328 1994.63,45.971 1995.4,45.507L1998.24,50.722C1997.59,51.147 1996.93,51.543 1996.27,51.91C1995.62,52.277 1994.92,52.586 1994.19,52.837C1993.45,53.088 1992.65,53.281 1991.78,53.416C1990.91,53.551 1989.94,53.619 1988.86,53.619C1985.23,53.619 1982.5,52.692 1980.69,50.838C1978.87,48.984 1977.96,46.357 1977.96,42.958L1977.96,18.623L1973.15,18.623L1973.15,12.25Z" style="fill-rule:nonzero;"/>
    <path d="M2008.09,25.808C2009.64,25.113 2011.42,24.514 2013.45,24.012C2015.48,23.51 2017.88,23.259 2020.66,23.259C2022.67,23.259 2024.38,23.5 2025.79,23.983C2027.2,24.466 2028.34,25.151 2029.21,26.04C2030.08,26.928 2030.71,27.99 2031.09,29.226C2031.48,30.462 2031.67,31.853 2031.67,33.398C2031.67,35.368 2031.61,37.048 2031.47,38.439C2031.34,39.829 2031.27,41.065 2031.27,42.147C2031.27,42.958 2031.31,43.866 2031.38,44.87C2031.46,45.411 2031.52,45.932 2031.56,46.434L2035.32,46.434L2035.32,52.808L2025.71,52.808L2024.95,48.868L2024.66,48.868C2023.89,50.065 2022.79,51.098 2021.36,51.968C2019.93,52.837 2018,53.271 2015.57,53.271C2012.67,53.271 2010.37,52.499 2008.67,50.954C2006.97,49.409 2006.12,47.361 2006.12,44.812C2006.12,43.19 2006.42,41.789 2007.02,40.611C2007.62,39.433 2008.49,38.468 2009.63,37.714C2010.77,36.961 2012.14,36.401 2013.74,36.034C2015.34,35.667 2017.13,35.484 2019.1,35.484C2019.8,35.484 2020.53,35.522 2021.3,35.6C2022.07,35.677 2023.02,35.754 2024.14,35.831C2024.22,35.445 2024.26,35.059 2024.26,34.673L2024.26,33.572C2024.26,32.104 2023.83,31.051 2022.98,30.414C2022.13,29.777 2020.88,29.458 2019.22,29.458C2017.25,29.458 2015.47,29.709 2013.88,30.211C2012.3,30.713 2010.97,31.216 2009.89,31.718L2008.09,25.808ZM2018,47.072C2019.85,47.072 2021.24,46.734 2022.17,46.058C2023.1,45.382 2023.77,44.657 2024.2,43.885L2024.2,40.409C2023.81,40.331 2023.23,40.244 2022.46,40.148C2021.69,40.051 2020.86,40.003 2019.97,40.003C2019.24,40.003 2018.5,40.071 2017.77,40.206C2017.03,40.341 2016.38,40.553 2015.8,40.843C2015.22,41.133 2014.75,41.509 2014.41,41.973C2014.06,42.436 2013.88,42.997 2013.88,43.653C2013.88,44.735 2014.2,45.575 2014.84,46.174C2015.48,46.772 2016.53,47.072 2018,47.072Z" style="fill-rule:nonzero;"/>
    <path d="M2037.64,23.838L2047.49,23.838L2048.36,27.314L2048.59,27.314C2050.6,24.456 2053.84,23.027 2058.32,23.027C2060.1,23.027 2061.73,23.307 2063.22,23.867C2064.71,24.427 2065.98,25.306 2067.05,26.503C2068.11,27.701 2068.93,29.207 2069.51,31.022C2070.09,32.838 2070.38,35.02 2070.38,37.57C2070.38,40.042 2070.05,42.272 2069.39,44.262C2068.74,46.251 2067.79,47.941 2066.55,49.331C2065.32,50.722 2063.81,51.784 2062.03,52.518C2060.26,53.252 2058.23,53.619 2055.95,53.619C2054.75,53.619 2053.57,53.532 2052.41,53.358C2051.26,53.184 2050.29,52.904 2049.52,52.518L2049.52,64.396L2041.99,64.396L2041.99,30.211L2037.64,30.211L2037.64,23.838ZM2056.07,29.4C2054.6,29.4 2053.26,29.767 2052.04,30.501C2050.82,31.235 2049.98,32.336 2049.52,33.804L2049.52,45.855C2050.06,46.28 2050.84,46.618 2051.87,46.869C2052.89,47.12 2053.92,47.245 2054.96,47.245C2056.05,47.245 2057.05,47.062 2057.98,46.695C2058.9,46.328 2059.72,45.739 2060.41,44.928C2061.11,44.117 2061.65,43.093 2062.03,41.857C2062.42,40.621 2062.61,39.134 2062.61,37.396C2062.61,34.846 2061.99,32.876 2060.76,31.486C2059.52,30.095 2057.96,29.4 2056.07,29.4Z" style="fill-rule:nonzero;"/>
    <path d="M2095.7,44.812C2095.7,44.039 2095.22,43.421 2094.28,42.958C2093.33,42.494 2092.16,42.07 2090.77,41.683C2089.38,41.297 2087.86,40.901 2086.19,40.496C2084.53,40.09 2083.01,39.53 2081.62,38.815C2080.23,38.101 2079.06,37.193 2078.11,36.092C2077.16,34.991 2076.69,33.572 2076.69,31.834C2076.69,30.404 2077.01,29.149 2077.65,28.068C2078.28,26.986 2079.15,26.069 2080.26,25.315C2081.36,24.562 2082.67,23.992 2084.2,23.606C2085.72,23.22 2087.37,23.027 2089.15,23.027C2091.04,23.027 2092.7,23.162 2094.13,23.432C2095.56,23.703 2096.81,24.031 2097.87,24.417C2098.93,24.804 2099.84,25.238 2100.59,25.721C2101.35,26.204 2101.99,26.638 2102.53,27.025L2099.35,32.181C2098.77,31.834 2098.1,31.476 2097.35,31.109C2096.59,30.742 2095.8,30.404 2094.97,30.095C2094.14,29.786 2093.27,29.535 2092.36,29.342C2091.46,29.149 2090.56,29.052 2089.67,29.052C2088.05,29.052 2086.73,29.265 2085.73,29.69C2084.73,30.115 2084.22,30.771 2084.22,31.66C2084.22,32.355 2084.7,32.915 2085.64,33.34C2086.59,33.765 2087.76,34.161 2089.15,34.528C2090.54,34.895 2092.07,35.291 2093.73,35.716C2095.39,36.14 2096.91,36.691 2098.3,37.367C2099.69,38.043 2100.86,38.921 2101.81,40.003C2102.76,41.085 2103.23,42.475 2103.23,44.175C2103.23,47.11 2102.16,49.418 2100.01,51.098C2097.87,52.779 2094.69,53.619 2090.48,53.619C2087.16,53.619 2084.29,53.126 2081.88,52.141C2079.46,51.156 2077.52,50.007 2076.05,48.694L2079.53,43.248C2080.03,43.673 2080.7,44.146 2081.53,44.667C2082.36,45.189 2083.3,45.662 2084.34,46.087C2085.38,46.512 2086.49,46.869 2087.67,47.159C2088.85,47.448 2090.02,47.593 2091.18,47.593C2092.41,47.593 2093.47,47.381 2094.36,46.956C2095.25,46.531 2095.7,45.816 2095.7,44.812Z" style="fill-rule:nonzero;"/>
    <circle cx="1438.41" cy="441.615" r="18" style="fill:rgb(21,183,183);"/>
    <path d="M1122.58,231.105L1162.07,162.7L1241.06,162.7L1280.55,231.105L1241.06,299.51L1162.07,299.51L1122.58,231.105Z" style="fill:rgb(198,237,237);stroke:rgb(21,183,183);stroke-width:6px;"/>
    <path d="M1354.53,232.368L1394.02,163.963L1473.01,163.963L1512.5,232.368L1473.01,300.773L1394.02,300.773L1354.53,232.368Z" style="fill:rgb(198,237,237);stroke:rgb(21,183,183);stroke-width:6px;"/>
    <path d="M1688.53,230.855L1729.04,160.693L1810.05,160.693L1850.56,230.855L1810.05,301.017L1729.04,301.017L1688.53,230.855Z" style="fill:rgb(198,237,237);stroke:rgb(21,183,183);stroke-width:6px;"/>
    <path d="M1914.62,230.855L1955.13,160.693L2036.15,160.693L2076.66,230.855L2036.15,301.017L1955.13,301.017L1914.62,230.855Z" style="fill:rgb(198,237,237);stroke:rgb(21,183,183);stroke-width:6px;"/>
    <path d="M894.295,231.29L933.789,162.885L1012.78,162.885L1052.27,231.29L1012.78,299.695L933.789,299.695L894.295,231.29Z" style="fill:rgb(198,237,237);stroke:rgb(21,183,183);stroke-width:6px;"/>
    <path d="M1794.27,187.499L1819.03,144.628L1868.53,144.628L1893.28,187.499L1868.53,230.371L1819.03,230.371L1794.27,187.499Z" style="fill:rgb(253,194,255);fill-opacity:0.5;stroke:rgb(247,0,255);stroke-width:6px;"/>
    <path d="M1993.79,203.565L2018.54,160.693L2068.04,160.693L2092.79,203.565L2068.04,246.436L2018.54,246.436L1993.79,203.565Z" style="fill:rgb(253,194,255);fill-opacity:0.5;stroke:rgb(247,0,255);stroke-width:6px;"/>
    <path d="M947.141,217.333L971.273,175.535L1019.54,175.535L1043.67,217.333L1019.54,259.131L971.273,259.131L947.141,217.333Z" style="fill:rgb(253,194,255);fill-opacity:0.5;stroke:rgb(247,0,255);stroke-width:6px;"/>
    <path d="M1385.4,231.082L1409.54,189.285L1457.8,189.285L1481.93,231.082L1457.8,272.88L1409.54,272.88L1385.4,231.082Z" style="fill:rgb(253,194,255);fill-opacity:0.5;stroke:rgb(247,0,255);stroke-width:6px;"/>
    <path d="M1177.24,197.936L1219.03,173.804L1260.83,197.936L1260.83,246.2L1219.03,270.332L1177.24,246.2L1177.24,197.936Z" style="fill:rgb(253,194,255);fill-opacity:0.5;stroke:rgb(247,0,255);stroke-width:6px;"/>
    <path d="M1756.17,141.601L1756.17,118.202C1755.08,119.075 1754.02,119.817 1752.99,120.429C1751.96,121.041 1750.55,121.666 1748.75,122.304L1748.75,119.022C1751.6,117.812 1754.08,116.243 1756.17,114.315L1759.81,114.315L1759.81,141.601L1767.09,141.601L1767.09,144.628L1748.75,144.628L1748.75,141.601L1756.17,141.601Z" style="fill:rgb(128,128,128);fill-rule:nonzero;"/>
    <path d="M1790.33,144.628L1771.99,144.628L1771.99,141.288C1771.99,140.429 1772.17,139.507 1772.52,138.524C1772.87,137.541 1773.54,136.438 1774.53,135.214C1775.52,133.99 1776.57,132.812 1777.68,131.679L1779.75,129.569C1780.16,129.14 1781.08,128.144 1782.48,126.581C1783.89,125.019 1784.82,123.821 1785.27,122.987C1785.72,122.154 1785.94,121.334 1785.94,120.526C1785.94,119.224 1785.42,118.218 1784.38,117.509C1783.34,116.799 1782.16,116.444 1780.86,116.444C1780.12,116.444 1779.29,116.529 1778.37,116.698C1777.45,116.868 1776.65,117.066 1775.96,117.294C1775.27,117.522 1774.15,117.987 1772.6,118.69L1772.6,115.468C1774.24,114.687 1775.88,114.149 1777.53,113.856C1779.18,113.563 1780.54,113.417 1781.6,113.417C1783.18,113.417 1784.63,113.674 1785.95,114.188C1787.27,114.703 1788.25,115.5 1788.9,116.581C1789.54,117.662 1789.87,118.814 1789.87,120.038C1789.87,121.405 1789.45,122.805 1788.62,124.237C1787.8,125.67 1786.24,127.512 1783.95,129.765L1781.72,131.972L1779.85,133.808C1778.66,135.006 1777.7,136.164 1776.97,137.284C1776.25,138.404 1775.84,139.739 1775.76,141.288L1790.33,141.288L1790.33,144.628Z" style="fill:rgb(128,128,128);fill-rule:nonzero;"/>
    <path d="M1184.66,139.126L1184.66,115.728C1183.57,116.6 1182.5,117.343 1181.48,117.955C1180.45,118.567 1179.03,119.192 1177.24,119.83L1177.24,116.548C1180.09,115.337 1182.56,113.768 1184.66,111.841L1188.29,111.841L1188.29,139.126L1195.58,139.126L1195.58,142.154L1177.24,142.154L1177.24,139.126L1184.66,139.126Z" style="fill:rgb(128,128,128);fill-rule:nonzero;"/>
    <path d="M1201.24,126.392L1201.24,111.841L1218.21,111.841L1218.21,115.337L1204.87,115.337L1204.87,122.759L1205.5,122.759C1209.86,122.759 1213.22,123.671 1215.58,125.494C1217.93,127.317 1219.11,129.771 1219.11,132.857C1219.11,134.81 1218.64,136.561 1217.69,138.111C1216.74,139.66 1215.39,140.874 1213.66,141.753C1211.93,142.632 1210.09,143.072 1208.13,143.072C1206.18,143.072 1203.68,142.596 1200.63,141.646L1200.63,137.681C1201.74,138.28 1202.98,138.772 1204.35,139.156C1205.71,139.54 1206.98,139.732 1208.13,139.732C1209.29,139.732 1210.43,139.452 1211.53,138.892C1212.64,138.332 1213.5,137.515 1214.11,136.441C1214.72,135.367 1215.03,134.27 1215.03,133.15C1215.03,131.262 1214.19,129.664 1212.52,128.355C1210.85,127.046 1207.88,126.392 1203.6,126.392L1201.24,126.392Z" style="fill:rgb(128,128,128);fill-rule:nonzero;"/>
    <path d="M1982.16,140.683L1982.16,117.284C1981.07,118.157 1980.01,118.899 1978.98,119.511C1977.95,120.123 1976.54,120.748 1974.74,121.386L1974.74,118.104C1977.59,116.894 1980.07,115.325 1982.16,113.397L1985.8,113.397L1985.8,140.683L1993.08,140.683L1993.08,143.71L1974.74,143.71L1974.74,140.683L1982.16,140.683Z" style="fill:rgb(128,128,128);fill-rule:nonzero;"/>
    <path d="M1997.9,143.163L1997.9,139.335C2000.89,140.845 2003.47,141.601 2005.66,141.601C2007.66,141.601 2009.32,140.992 2010.63,139.774C2011.94,138.557 2012.59,136.991 2012.59,135.077C2012.59,133.15 2011.87,131.581 2010.43,130.37C2009,129.159 2006.55,128.554 2003.1,128.554L2001.09,128.554L2001.09,125.526L2003.88,125.526C2006.42,125.526 2008.26,124.957 2009.39,123.817C2010.52,122.678 2011.09,121.412 2011.09,120.019C2011.09,118.756 2010.63,117.691 2009.7,116.825C2008.78,115.959 2007.36,115.526 2005.44,115.526C2003.3,115.526 2000.98,116.132 1998.51,117.343L1998.51,113.886C2000.98,112.961 2003.25,112.499 2005.31,112.499C2008.99,112.499 2011.54,113.225 2012.93,114.677C2014.33,116.129 2015.03,117.785 2015.03,119.647C2015.03,121.028 2014.66,122.323 2013.92,123.534C2013.18,124.745 2011.81,125.826 2009.82,126.776C2011.58,127.297 2012.9,127.935 2013.8,128.69C2014.7,129.446 2015.38,130.338 2015.84,131.366C2016.31,132.395 2016.54,133.547 2016.54,134.823C2016.54,137.662 2015.49,140.006 2013.38,141.854C2011.28,143.703 2008.56,144.628 2005.23,144.628C2004.27,144.628 2003.21,144.556 2002.08,144.413C2000.94,144.27 1999.55,143.853 1997.9,143.163Z" style="fill:rgb(128,128,128);fill-rule:nonzero;"/>
    <path d="M1419.62,140.044L1419.62,116.646C1418.53,117.518 1417.47,118.261 1416.44,118.872C1415.41,119.484 1414,120.109 1412.2,120.747L1412.2,117.466C1415.06,116.255 1417.53,114.686 1419.62,112.759L1423.26,112.759L1423.26,140.044L1430.54,140.044L1430.54,143.072L1412.2,143.072L1412.2,140.044L1419.62,140.044Z" style="fill:rgb(128,128,128);fill-rule:nonzero;"/>
    <path d="M1438.24,128.853C1439.18,127.46 1440.34,126.324 1441.73,125.445C1443.11,124.566 1444.64,124.126 1446.31,124.126C1447.88,124.126 1449.38,124.511 1450.79,125.279C1452.2,126.047 1453.28,127.118 1454.02,128.492C1454.76,129.865 1455.13,131.464 1455.13,133.287C1455.13,136.164 1454.21,138.667 1452.37,140.796C1450.53,142.925 1448.1,143.99 1445.09,143.99C1441.55,143.99 1438.91,142.509 1437.15,139.546C1435.4,136.584 1434.53,132.818 1434.53,128.247C1434.53,123.195 1435.64,119.201 1437.87,116.265C1440.09,113.329 1443.11,111.861 1446.91,111.861C1448.95,111.861 1450.94,112.16 1452.87,112.759L1452.87,116.431C1450.71,115.402 1448.67,114.888 1446.75,114.888C1444.05,114.888 1441.95,116.132 1440.46,118.619C1438.98,121.106 1438.24,124.257 1438.24,128.072L1438.24,128.853ZM1445.37,140.962C1446.34,140.962 1447.33,140.673 1448.32,140.093C1449.31,139.514 1450.08,138.622 1450.65,137.417C1451.22,136.213 1451.5,134.901 1451.5,133.482C1451.5,131.633 1451.02,130.116 1450.07,128.931C1449.11,127.746 1447.74,127.154 1445.97,127.154C1444.14,127.154 1442.63,127.841 1441.45,129.214C1440.27,130.588 1439.68,132.258 1439.68,134.224C1439.68,136.203 1440.26,137.821 1441.41,139.078C1442.57,140.334 1443.88,140.962 1445.37,140.962Z" style="fill:rgb(128,128,128);fill-rule:nonzero;"/>
    <path d="M959.428,140.044L959.428,116.646C958.334,117.518 957.273,118.261 956.245,118.872C955.216,119.484 953.803,120.109 952.006,120.747L952.006,117.466C954.858,116.255 957.332,114.686 959.428,112.759L963.061,112.759L963.061,140.044L970.346,140.044L970.346,143.072L952.006,143.072L952.006,140.044L959.428,140.044Z" style="fill:rgb(128,128,128);fill-rule:nonzero;"/>
    <path d="M986.147,143.072L986.147,134.595L973.276,134.595L973.276,131.548L986.147,112.759L989.799,112.759L989.799,131.548L995.405,131.548L995.405,134.595L989.799,134.595L989.799,143.072L986.147,143.072ZM986.147,131.548L986.147,118.267L977.143,131.548L986.147,131.548Z" style="fill:rgb(128,128,128);fill-rule:nonzero;"/>
    <path d="M1505.61,457.908L1487.27,457.908L1487.27,454.568C1487.27,453.709 1487.44,452.788 1487.8,451.805C1488.15,450.822 1488.82,449.718 1489.81,448.494C1490.8,447.27 1491.85,446.092 1492.95,444.959L1495.02,442.85C1495.44,442.42 1496.35,441.424 1497.76,439.861C1499.16,438.299 1500.09,437.101 1500.54,436.268C1500.99,435.434 1501.21,434.614 1501.21,433.807C1501.21,432.505 1500.69,431.499 1499.65,430.789C1498.61,430.08 1497.44,429.725 1496.14,429.725C1495.39,429.725 1494.56,429.809 1493.65,429.979C1492.73,430.148 1491.92,430.346 1491.23,430.574C1490.54,430.802 1489.42,431.268 1487.87,431.971L1487.87,428.748C1489.52,427.967 1491.16,427.43 1492.81,427.137C1494.45,426.844 1495.81,426.697 1496.88,426.697C1498.45,426.697 1499.9,426.955 1501.22,427.469C1502.55,427.983 1503.53,428.781 1504.17,429.861C1504.82,430.942 1505.14,432.094 1505.14,433.318C1505.14,434.686 1504.73,436.085 1503.9,437.518C1503.07,438.95 1501.51,440.792 1499.22,443.045L1497,445.252L1495.12,447.088C1493.93,448.286 1492.98,449.445 1492.25,450.565C1491.52,451.684 1491.12,453.019 1491.04,454.568L1505.61,454.568L1505.61,457.908Z" style="fill:rgb(128,128,128);fill-rule:nonzero;"/>
    <rect x="23.068" y="168.564" width="186.668" height="136.53" style="fill:rgb(251,133,255);fill-opacity:0.5;stroke:rgb(251,133,255);stroke-width:6px;"/>
    <path d="M239.048,283.369L113.573,236.829L49.354,136.506" style="fill:none;stroke:rgb(21,183,183);stroke-width:10px;"/>
    <path d="M136.614,147.9L116.402,147.9L116.402,144.22C116.402,143.272 116.596,142.257 116.983,141.174C117.371,140.09 118.11,138.874 119.2,137.525C120.291,136.177 121.446,134.878 122.666,133.63L124.947,131.305C125.406,130.831 126.411,129.734 127.961,128.012C129.51,126.29 130.533,124.97 131.028,124.051C131.523,123.133 131.771,122.229 131.771,121.339C131.771,119.904 131.197,118.796 130.049,118.014C128.901,117.232 127.609,116.84 126.174,116.84C125.356,116.84 124.441,116.934 123.43,117.12C122.418,117.307 121.532,117.526 120.772,117.777C120.011,118.028 118.777,118.541 117.069,119.316L117.069,115.764C118.877,114.903 120.689,114.311 122.504,113.988C124.32,113.666 125.815,113.504 126.992,113.504C128.728,113.504 130.325,113.788 131.781,114.354C133.238,114.921 134.321,115.8 135.032,116.991C135.742,118.182 136.097,119.452 136.097,120.801C136.097,122.308 135.641,123.85 134.73,125.429C133.819,127.007 132.101,129.038 129.575,131.52L127.121,133.952L125.055,135.976C123.749,137.296 122.694,138.573 121.891,139.807C121.087,141.041 120.642,142.512 120.556,144.22L136.614,144.22L136.614,147.9Z" style="fill:rgb(128,128,128);fill-rule:nonzero;"/>
    <path d="M151.874,144.564L151.874,118.778C150.669,119.739 149.5,120.557 148.366,121.231C147.232,121.906 145.675,122.595 143.695,123.298L143.695,119.682C146.838,118.347 149.564,116.618 151.874,114.494L155.878,114.494L155.878,144.564L163.907,144.564L163.907,147.9L143.695,147.9L143.695,144.564L151.874,144.564Z" style="fill:rgb(128,128,128);fill-rule:nonzero;"/>
    <rect x="274.243" y="172.254" width="182.57" height="133.533" style="fill:rgb(251,133,255);fill-opacity:0.5;stroke:rgb(251,133,255);stroke-width:6px;"/>
    <path d="M470.911,131.23L405.529,172.254L365.528,305.787" style="fill:none;stroke:rgb(21,183,183);stroke-width:10px;"/>
    <path d="M344.102,149.302L344.102,145.474C347.084,146.984 349.669,147.739 351.856,147.739C353.862,147.739 355.518,147.131 356.827,145.913C358.136,144.696 358.79,143.13 358.79,141.216C358.79,139.289 358.071,137.72 356.632,136.509C355.193,135.298 352.748,134.692 349.298,134.692L347.286,134.692L347.286,131.665L350.079,131.665C352.618,131.665 354.454,131.095 355.587,129.956C356.72,128.817 357.286,127.551 357.286,126.157C357.286,124.894 356.824,123.83 355.899,122.964C354.975,122.098 353.556,121.665 351.642,121.665C349.493,121.665 347.182,122.271 344.708,123.482L344.708,120.024C347.182,119.1 349.448,118.638 351.505,118.638C355.19,118.638 357.732,119.364 359.132,120.815C360.532,122.267 361.231,123.924 361.231,125.786C361.231,127.166 360.86,128.462 360.118,129.673C359.376,130.884 358.009,131.965 356.017,132.915C357.774,133.436 359.102,134.074 360.001,134.829C360.899,135.584 361.58,136.476 362.042,137.505C362.504,138.534 362.735,139.686 362.735,140.962C362.735,143.801 361.684,146.144 359.581,147.993C357.478,149.842 354.76,150.767 351.427,150.767C350.463,150.767 349.412,150.695 348.272,150.552C347.133,150.409 345.743,149.992 344.102,149.302Z" style="fill:rgb(128,128,128);fill-rule:nonzero;"/>
    <path d="M374.239,133.501L373.575,133.013C372.651,132.362 371.746,131.401 370.86,130.132C369.975,128.862 369.532,127.466 369.532,125.942C369.532,123.924 370.326,122.202 371.915,120.776C373.504,119.351 375.522,118.638 377.97,118.638C379.467,118.638 380.815,118.908 382.013,119.448C383.211,119.989 384.135,120.786 384.786,121.841C385.437,122.896 385.763,124.048 385.763,125.298C385.763,126.157 385.613,126.987 385.313,127.788C385.014,128.589 384.568,129.383 383.976,130.171C383.383,130.959 382.208,132.069 380.45,133.501L382.091,134.81C384.005,136.372 385.294,137.72 385.958,138.853C386.622,139.985 386.954,141.255 386.954,142.661C386.954,144.849 386.16,146.746 384.571,148.355C382.983,149.963 380.6,150.767 377.423,150.767C374.233,150.767 371.843,150.015 370.255,148.511C368.666,147.007 367.872,145.142 367.872,142.915C367.872,139.595 369.994,136.457 374.239,133.501ZM377.97,131.646C379.806,130.252 380.955,129.087 381.417,128.149C381.879,127.212 382.11,126.34 382.11,125.532C382.11,124.556 381.681,123.667 380.821,122.866C379.962,122.065 378.855,121.665 377.501,121.665C376.043,121.665 374.933,122.101 374.171,122.974C373.409,123.846 373.028,124.751 373.028,125.689C373.028,126.6 373.347,127.459 373.985,128.267C374.623,129.074 375.645,129.979 377.052,130.982L377.97,131.646ZM376.974,135.435C373.536,138.078 371.817,140.552 371.817,142.857C371.817,144.224 372.384,145.376 373.517,146.314C374.649,147.251 375.99,147.72 377.54,147.72C378.959,147.72 380.229,147.271 381.349,146.372C382.468,145.474 383.028,144.354 383.028,143.013C383.028,141.698 382.348,140.363 380.987,139.009C379.627,137.655 378.679,136.769 378.145,136.353L376.974,135.435Z" style="fill:rgb(128,128,128);fill-rule:nonzero;"/>
    <rect x="510.13" y="169.876" width="184.874" height="135.218" style="fill:rgb(251,133,255);fill-opacity:0.5;stroke:rgb(251,133,255);stroke-width:6px;"/>
    <path d="M645.209,170.043L645.209,128.501L732.522,128.501L732.522,170.043L669.284,264.123" style="fill:none;stroke:rgb(21,183,183);stroke-width:10px;"/>
    <path d="M569.774,149.849L569.774,141.372L556.903,141.372L556.903,138.325L569.774,119.536L573.427,119.536L573.427,138.325L579.032,138.325L579.032,141.372L573.427,141.372L573.427,149.849L569.774,149.849ZM569.774,138.325L569.774,125.044L560.77,138.325L569.774,138.325Z" style="fill:rgb(128,128,128);fill-rule:nonzero;"/>
    <path d="M591.962,118.638C595.412,118.638 598.042,120.086 599.852,122.983C601.662,125.881 602.567,129.784 602.567,134.692C602.567,139.614 601.662,143.524 599.852,146.421C598.042,149.318 595.412,150.767 591.962,150.767C588.524,150.767 585.897,149.318 584.081,146.421C582.264,143.524 581.356,139.614 581.356,134.692C581.356,129.784 582.264,125.881 584.081,122.983C585.897,120.086 588.524,118.638 591.962,118.638ZM586.044,141.177L596.532,124.751C595.868,123.54 595.149,122.723 594.374,122.3C593.599,121.877 592.795,121.665 591.962,121.665C589.787,121.665 588.134,122.873 587.001,125.288C585.868,127.704 585.302,130.767 585.302,134.478C585.302,135.324 585.328,136.235 585.38,137.212C585.432,138.189 585.653,139.51 586.044,141.177ZM597.841,128.364L587.431,144.888C587.99,145.838 588.635,146.551 589.364,147.026C590.093,147.502 590.907,147.739 591.806,147.739C594.279,147.739 596.037,146.356 597.079,143.589C598.121,140.822 598.641,137.752 598.641,134.38C598.641,132.297 598.375,130.291 597.841,128.364Z" style="fill:rgb(128,128,128);fill-rule:nonzero;"/>
    <path d="M1637.78,411.913L1819.29,412.35" style="fill:none;stroke:rgb(247,0,255);stroke-width:10px;"/>
    <path d="M188.556,480.802L61.388,351.293" style="fill:none;stroke:rgb(21,183,183);stroke-width:10px;"/>
    <path d="M38.813,442.836L214.134,395.859" style="fill:none;stroke:rgb(247,0,255);stroke-width:10px;"/>
    <path d="M1666.53,332.124L1699,405.505L1768.31,405.068L1819.29,466.081" style="fill:none;stroke:rgb(21,183,183);stroke-width:10px;"/>
    <path d="M115.81,357.449L115.81,342.899L132.783,342.899L132.783,346.395L119.443,346.395L119.443,353.817L120.068,353.817C124.43,353.817 127.789,354.728 130.146,356.551C132.503,358.374 133.681,360.828 133.681,363.914C133.681,365.867 133.206,367.619 132.255,369.168C131.305,370.718 129.964,371.932 128.232,372.811C126.5,373.69 124.658,374.129 122.705,374.129C120.751,374.129 118.251,373.654 115.205,372.703L115.205,368.739C116.311,369.337 117.548,369.829 118.915,370.213C120.283,370.597 121.546,370.789 122.705,370.789C123.863,370.789 124.996,370.509 126.103,369.949C127.21,369.39 128.069,368.572 128.681,367.498C129.293,366.424 129.599,365.327 129.599,364.207C129.599,362.319 128.762,360.721 127.089,359.412C125.416,358.104 122.444,357.449 118.173,357.449L115.81,357.449Z" style="fill:rgb(128,128,128);fill-rule:nonzero;"/>
    <path d="M148.134,342C151.585,342 154.215,343.449 156.025,346.346C157.835,349.243 158.74,353.146 158.74,358.055C158.74,362.977 157.835,366.886 156.025,369.783C154.215,372.681 151.585,374.129 148.134,374.129C144.697,374.129 142.07,372.681 140.253,369.783C138.437,366.886 137.529,362.977 137.529,358.055C137.529,353.146 138.437,349.243 140.253,346.346C142.07,343.449 144.697,342 148.134,342ZM142.216,364.539L152.705,348.114C152.04,346.903 151.321,346.086 150.546,345.662C149.772,345.239 148.968,345.028 148.134,345.028C145.96,345.028 144.306,346.235 143.173,348.651C142.04,351.066 141.474,354.129 141.474,357.84C141.474,358.686 141.5,359.598 141.552,360.574C141.604,361.551 141.826,362.873 142.216,364.539ZM154.013,351.727L143.603,368.25C144.163,369.201 144.807,369.914 145.537,370.389C146.266,370.864 147.08,371.102 147.978,371.102C150.452,371.102 152.21,369.718 153.251,366.951C154.293,364.184 154.814,361.115 154.814,357.742C154.814,355.659 154.547,353.654 154.013,351.727Z" style="fill:rgb(128,128,128);fill-rule:nonzero;"/>
    <path d="M1720.04,367.152L1720.04,352.602L1737.01,352.602L1737.01,356.098L1723.67,356.098L1723.67,363.52L1724.3,363.52C1728.66,363.52 1732.02,364.431 1734.38,366.254C1736.73,368.077 1737.91,370.531 1737.91,373.617C1737.91,375.57 1737.44,377.322 1736.49,378.871C1735.54,380.421 1734.19,381.635 1732.46,382.514C1730.73,383.393 1728.89,383.832 1726.93,383.832C1724.98,383.832 1722.48,383.357 1719.43,382.406L1719.43,378.441C1720.54,379.04 1721.78,379.532 1723.14,379.916C1724.51,380.3 1725.78,380.492 1726.93,380.492C1728.09,380.492 1729.23,380.212 1730.33,379.652C1731.44,379.092 1732.3,378.275 1732.91,377.201C1733.52,376.127 1733.83,375.03 1733.83,373.91C1733.83,372.022 1732.99,370.424 1731.32,369.115C1729.65,367.807 1726.67,367.152 1722.4,367.152L1720.04,367.152Z" style="fill:rgb(128,128,128);fill-rule:nonzero;"/>
    <path d="M1751.47,379.887L1751.47,356.488C1750.37,357.361 1749.31,358.103 1748.28,358.715C1747.25,359.327 1745.84,359.952 1744.04,360.59L1744.04,357.309C1746.89,356.098 1749.37,354.529 1751.47,352.602L1755.1,352.602L1755.1,379.887L1762.38,379.887L1762.38,382.914L1744.04,382.914L1744.04,379.887L1751.47,379.887Z" style="fill:rgb(128,128,128);fill-rule:nonzero;"/>
    <path d="M304.475,433.365L441.797,396.57" style="fill:none;stroke:rgb(247,0,255);stroke-width:10px;"/>
    <path d="M373.136,414.967L380.412,463.514L335.442,484.662L338.123,358.676L376.408,345.273L410.83,406.143" style="fill:none;stroke:rgb(21,183,183);stroke-width:10px;"/>
    <path d="M267.84,356.551L267.84,342L284.813,342L284.813,345.496L271.473,345.496L271.473,352.918L272.098,352.918C276.46,352.918 279.819,353.83 282.176,355.653C284.533,357.475 285.711,359.93 285.711,363.016C285.711,364.969 285.236,366.72 284.286,368.27C283.335,369.819 281.994,371.033 280.262,371.912C278.53,372.791 276.688,373.231 274.735,373.231C272.782,373.231 270.282,372.755 267.235,371.805L267.235,367.84C268.342,368.439 269.579,368.931 270.946,369.315C272.313,369.699 273.576,369.891 274.735,369.891C275.894,369.891 277.027,369.611 278.133,369.051C279.24,368.491 280.099,367.674 280.711,366.6C281.323,365.526 281.629,364.429 281.629,363.309C281.629,361.421 280.793,359.822 279.12,358.514C277.446,357.205 274.474,356.551 270.204,356.551L267.84,356.551Z" style="fill:rgb(128,128,128);fill-rule:nonzero;"/>
    <path d="M291.844,356.551L291.844,342L308.817,342L308.817,345.496L295.477,345.496L295.477,352.918L296.102,352.918C300.464,352.918 303.823,353.83 306.18,355.653C308.537,357.475 309.715,359.93 309.715,363.016C309.715,364.969 309.24,366.72 308.29,368.27C307.339,369.819 305.998,371.033 304.266,371.912C302.534,372.791 300.692,373.231 298.739,373.231C296.786,373.231 294.286,372.755 291.239,371.805L291.239,367.84C292.346,368.439 293.582,368.931 294.95,369.315C296.317,369.699 297.58,369.891 298.739,369.891C299.898,369.891 301.03,369.611 302.137,369.051C303.244,368.491 304.103,367.674 304.715,366.6C305.327,365.526 305.633,364.429 305.633,363.309C305.633,361.421 304.797,359.822 303.124,358.514C301.45,357.205 298.478,356.551 294.207,356.551L291.844,356.551Z" style="fill:rgb(128,128,128);fill-rule:nonzero;"/>
    <path d="M524.763,410.914L546.134,484.662L574.487,484.662L609.536,337.166L702.592,337.166L736.418,415.048L708.617,484.662L662.542,484.662L630.946,412.917" style="fill:none;stroke:rgb(21,183,183);stroke-width:10px;"/>
    <path d="M737.128,409.365L524.763,409.365" style="fill:none;stroke:rgb(247,0,255);stroke-width:10px;"/>
    <path d="M531.13,355.965L530.466,355.477C529.541,354.826 528.637,353.865 527.751,352.596C526.866,351.326 526.423,349.93 526.423,348.406C526.423,346.388 527.217,344.666 528.806,343.24C530.394,341.815 532.413,341.102 534.86,341.102C536.358,341.102 537.706,341.372 538.903,341.912C540.101,342.453 541.026,343.25 541.677,344.305C542.328,345.36 542.653,346.512 542.653,347.762C542.653,348.621 542.504,349.451 542.204,350.252C541.905,351.053 541.459,351.847 540.866,352.635C540.274,353.423 539.099,354.533 537.341,355.965L538.982,357.274C540.896,358.836 542.185,360.184 542.849,361.317C543.513,362.449 543.845,363.719 543.845,365.125C543.845,367.313 543.051,369.211 541.462,370.819C539.874,372.427 537.491,373.231 534.314,373.231C531.124,373.231 528.734,372.479 527.146,370.975C525.557,369.471 524.763,367.606 524.763,365.379C524.763,362.059 526.885,358.921 531.13,355.965ZM534.86,354.11C536.696,352.716 537.846,351.551 538.308,350.614C538.77,349.676 539.001,348.804 539.001,347.996C539.001,347.02 538.571,346.131 537.712,345.33C536.853,344.53 535.746,344.129 534.392,344.129C532.933,344.129 531.823,344.565 531.062,345.438C530.3,346.31 529.919,347.215 529.919,348.153C529.919,349.064 530.238,349.923 530.876,350.731C531.514,351.538 532.536,352.443 533.943,353.446L534.86,354.11ZM533.864,357.899C530.427,360.542 528.708,363.016 528.708,365.321C528.708,366.688 529.275,367.84 530.407,368.778C531.54,369.715 532.881,370.184 534.431,370.184C535.85,370.184 537.12,369.735 538.239,368.836C539.359,367.938 539.919,366.818 539.919,365.477C539.919,364.162 539.239,362.827 537.878,361.473C536.517,360.119 535.57,359.233 535.036,358.817L533.864,357.899Z" style="fill:rgb(128,128,128);fill-rule:nonzero;"/>
    <path d="M558.161,341.102C561.612,341.102 564.242,342.55 566.052,345.447C567.862,348.345 568.767,352.248 568.767,357.156C568.767,362.078 567.862,365.988 566.052,368.885C564.242,371.782 561.612,373.231 558.161,373.231C554.724,373.231 552.097,371.782 550.28,368.885C548.464,365.988 547.556,362.078 547.556,357.156C547.556,352.248 548.464,348.345 550.28,345.447C552.097,342.55 554.724,341.102 558.161,341.102ZM552.243,363.641L562.732,347.215C562.068,346.004 561.348,345.187 560.573,344.764C559.799,344.341 558.995,344.129 558.161,344.129C555.987,344.129 554.333,345.337 553.2,347.752C552.068,350.168 551.501,353.231 551.501,356.942C551.501,357.788 551.527,358.699 551.579,359.676C551.631,360.653 551.853,361.974 552.243,363.641ZM564.04,350.828L553.63,367.352C554.19,368.302 554.834,369.015 555.564,369.49C556.293,369.966 557.107,370.203 558.005,370.203C560.479,370.203 562.237,368.82 563.278,366.053C564.32,363.286 564.841,360.216 564.841,356.844C564.841,354.761 564.574,352.755 564.04,350.828Z" style="fill:rgb(128,128,128);fill-rule:nonzero;"/>
    <path d="M888.404,449.397L1100.55,449.908" style="fill:none;stroke:rgb(247,0,255);stroke-width:10px;"/>
    <path d="M959.959,457.908L1040.96,457.397" style="fill:none;stroke:rgb(21,183,183);stroke-width:10px;"/>
    <path d="M979.756,397.589L979.756,383.038L996.729,383.038L996.729,386.534L983.389,386.534L983.389,393.956L984.014,393.956C988.376,393.956 991.736,394.868 994.092,396.69C996.449,398.513 997.627,400.968 997.627,404.054C997.627,406.007 997.152,407.758 996.202,409.308C995.251,410.857 993.91,412.071 992.178,412.95C990.446,413.829 988.604,414.269 986.651,414.269C984.698,414.269 982.198,413.793 979.151,412.843L979.151,408.878C980.258,409.477 981.495,409.968 982.862,410.353C984.229,410.737 985.492,410.929 986.651,410.929C987.81,410.929 988.943,410.649 990.049,410.089C991.156,409.529 992.015,408.712 992.627,407.638C993.239,406.563 993.545,405.466 993.545,404.347C993.545,402.459 992.709,400.86 991.036,399.552C989.362,398.243 986.39,397.589 982.12,397.589L979.756,397.589Z" style="fill:rgb(128,128,128);fill-rule:nonzero;"/>
    <path d="M1009.05,397.003L1008.39,396.515C1007.47,395.864 1006.56,394.903 1005.67,393.634C1004.79,392.364 1004.35,390.968 1004.35,389.444C1004.35,387.426 1005.14,385.704 1006.73,384.278C1008.32,382.853 1010.34,382.14 1012.78,382.14C1014.28,382.14 1015.63,382.41 1016.83,382.95C1018.02,383.491 1018.95,384.288 1019.6,385.343C1020.25,386.397 1020.58,387.55 1020.58,388.8C1020.58,389.659 1020.43,390.489 1020.13,391.29C1019.83,392.091 1019.38,392.885 1018.79,393.673C1018.2,394.461 1017.02,395.571 1015.26,397.003L1016.9,398.312C1018.82,399.874 1020.11,401.222 1020.77,402.355C1021.44,403.487 1021.77,404.757 1021.77,406.163C1021.77,408.351 1020.97,410.248 1019.38,411.856C1017.8,413.465 1015.41,414.269 1012.24,414.269C1009.05,414.269 1006.66,413.517 1005.07,412.013C1003.48,410.509 1002.69,408.644 1002.69,406.417C1002.69,403.097 1004.81,399.959 1009.05,397.003ZM1012.78,395.147C1014.62,393.754 1015.77,392.589 1016.23,391.651C1016.69,390.714 1016.92,389.841 1016.92,389.034C1016.92,388.058 1016.5,387.169 1015.63,386.368C1014.78,385.567 1013.67,385.167 1012.32,385.167C1010.86,385.167 1009.75,385.603 1008.99,386.476C1008.22,387.348 1007.84,388.253 1007.84,389.19C1007.84,390.102 1008.16,390.961 1008.8,391.769C1009.44,392.576 1010.46,393.481 1011.87,394.483L1012.78,395.147ZM1011.79,398.937C1008.35,401.58 1006.63,404.054 1006.63,406.358C1006.63,407.726 1007.2,408.878 1008.33,409.815C1009.46,410.753 1010.81,411.222 1012.35,411.222C1013.77,411.222 1015.04,410.772 1016.16,409.874C1017.28,408.976 1017.84,407.856 1017.84,406.515C1017.84,405.2 1017.16,403.865 1015.8,402.511C1014.44,401.157 1013.49,400.271 1012.96,399.855L1011.79,398.937Z" style="fill:rgb(128,128,128);fill-rule:nonzero;"/>
    <path d="M1352.78,448.844L1163.9,448.844" style="fill:none;stroke:rgb(21,183,183);stroke-width:10px;"/>
    <circle cx="1258.34" cy="449.774" r="18" style="fill:rgb(247,0,255);"/>
    <path d="M1249.71,396.807L1249.71,382.257L1266.68,382.257L1266.68,385.753L1253.34,385.753L1253.34,393.175L1253.96,393.175C1258.33,393.175 1261.69,394.086 1264.04,395.909C1266.4,397.732 1267.58,400.186 1267.58,403.272C1267.58,405.225 1267.1,406.977 1266.15,408.526C1265.2,410.076 1263.86,411.29 1262.13,412.169C1260.4,413.048 1258.55,413.487 1256.6,413.487C1254.65,413.487 1252.15,413.012 1249.1,412.061L1249.1,408.096C1250.21,408.695 1251.44,409.187 1252.81,409.571C1254.18,409.955 1255.44,410.147 1256.6,410.147C1257.76,410.147 1258.89,409.867 1260,409.307C1261.11,408.747 1261.97,407.93 1262.58,406.856C1263.19,405.782 1263.5,404.685 1263.5,403.565C1263.5,401.677 1262.66,400.079 1260.99,398.77C1259.31,397.462 1256.34,396.807 1252.07,396.807L1249.71,396.807Z" style="fill:rgb(128,128,128);fill-rule:nonzero;"/>
    <path d="M2122.51,405.764L1883.53,405.764" style="fill:none;stroke:rgb(247,0,255);stroke-width:10px;"/>
    <path d="M1958.67,412.558L2011.43,412.558L2056.19,338.217L2105.75,338.217L2138.53,466.116L2088.17,487.7L2047.4,412.958" style="fill:none;stroke:rgb(21,183,183);stroke-width:10px;"/>
    <path d="M1962.38,369.594C1963.32,368.201 1964.48,367.064 1965.87,366.186C1967.25,365.307 1968.78,364.867 1970.45,364.867C1972.02,364.867 1973.52,365.251 1974.93,366.02C1976.34,366.788 1977.42,367.859 1978.16,369.232C1978.9,370.606 1979.27,372.204 1979.27,374.027C1979.27,376.905 1978.35,379.408 1976.51,381.537C1974.67,383.666 1972.24,384.73 1969.24,384.73C1965.69,384.73 1963.05,383.249 1961.3,380.287C1959.54,377.325 1958.67,373.559 1958.67,368.988C1958.67,363.936 1959.78,359.942 1962.01,357.006C1964.24,354.07 1967.25,352.602 1971.05,352.602C1973.1,352.602 1975.08,352.901 1977.01,353.5L1977.01,357.172C1974.85,356.143 1972.81,355.629 1970.89,355.629C1968.19,355.629 1966.09,356.872 1964.61,359.359C1963.12,361.846 1962.38,364.997 1962.38,368.812L1962.38,369.594ZM1969.51,381.703C1970.49,381.703 1971.47,381.413 1972.46,380.834C1973.45,380.255 1974.23,379.363 1974.79,378.158C1975.36,376.954 1975.64,375.642 1975.64,374.223C1975.64,372.374 1975.16,370.857 1974.21,369.672C1973.25,368.487 1971.88,367.895 1970.11,367.895C1968.28,367.895 1966.77,368.581 1965.59,369.955C1964.41,371.329 1963.82,372.999 1963.82,374.965C1963.82,376.944 1964.4,378.562 1965.55,379.818C1966.71,381.075 1968.02,381.703 1969.51,381.703Z" style="fill:rgb(128,128,128);fill-rule:nonzero;"/>
    <path d="M1986.38,369.594C1987.32,368.201 1988.48,367.064 1989.87,366.186C1991.26,365.307 1992.78,364.867 1994.45,364.867C1996.03,364.867 1997.52,365.251 1998.93,366.02C2000.35,366.788 2001.42,367.859 2002.16,369.232C2002.91,370.606 2003.28,372.204 2003.28,374.027C2003.28,376.905 2002.36,379.408 2000.51,381.537C1998.67,383.666 1996.25,384.73 1993.24,384.73C1989.7,384.73 1987.05,383.249 1985.3,380.287C1983.55,377.325 1982.67,373.559 1982.67,368.988C1982.67,363.936 1983.79,359.942 1986.01,357.006C1988.24,354.07 1991.25,352.602 1995.06,352.602C1997.1,352.602 1999.09,352.901 2001.01,353.5L2001.01,357.172C1998.85,356.143 1996.81,355.629 1994.9,355.629C1992.19,355.629 1990.09,356.872 1988.61,359.359C1987.12,361.846 1986.38,364.997 1986.38,368.812L1986.38,369.594ZM1993.51,381.703C1994.49,381.703 1995.47,381.413 1996.46,380.834C1997.45,380.255 1998.23,379.363 1998.8,378.158C1999.36,376.954 1999.64,375.642 1999.64,374.223C1999.64,372.374 1999.17,370.857 1998.21,369.672C1997.25,368.487 1995.89,367.895 1994.12,367.895C1992.28,367.895 1990.77,368.581 1989.6,369.955C1988.42,371.329 1987.83,372.999 1987.83,374.965C1987.83,376.944 1988.4,378.562 1989.56,379.818C1990.71,381.075 1992.03,381.703 1993.51,381.703Z" style="fill:rgb(128,128,128);fill-rule:nonzero;"/>
</svg>
