<?xml version="1.0" encoding="UTF-8" standalone="no"?>
<!DOCTYPE svg PUBLIC "-//W3C//DTD SVG 1.1//EN" "http://www.w3.org/Graphics/SVG/1.1/DTD/svg11.dtd">
<svg width="100%" height="100%" viewBox="0 0 210 211" version="1.1" xmlns="http://www.w3.org/2000/svg" xmlns:xlink="http://www.w3.org/1999/xlink" xml:space="preserve" xmlns:serif="http://www.serif.com/" style="fill-rule:evenodd;clip-rule:evenodd;stroke-linecap:square;stroke-linejoin:round;stroke-miterlimit:10;">
    <rect id="Clementini-Points-Polygons" serif:id="Clementini Points-Polygons" x="-1936" y="-3925" width="2683.8" height="4517.66" style="fill:none;"/>
    <rect x="10.602" y="63.538" width="190.689" height="139.471" style="fill:rgb(198,237,237);stroke:rgb(21,183,183);stroke-width:6px;"/>
    <path d="M9.326,129.657L9.326,63.623L134.616,63.623" style="fill:none;stroke:rgb(247,0,255);stroke-width:10px;"/>
    <path d="M94.801,36.103L94.801,27.627L81.93,27.627L81.93,24.58L94.801,5.791L98.453,5.791L98.453,24.58L104.058,24.58L104.058,27.627L98.453,27.627L98.453,36.103L94.801,36.103ZM94.801,24.58L94.801,11.299L85.797,24.58L94.801,24.58Z" style="fill:rgb(128,128,128);fill-rule:nonzero;"/>
    <path d="M116.09,33.076L116.09,9.678C114.996,10.55 113.935,11.292 112.906,11.904C111.877,12.516 110.465,13.141 108.668,13.779L108.668,10.498C111.519,9.287 113.993,7.718 116.09,5.791L119.723,5.791L119.723,33.076L127.008,33.076L127.008,36.103L108.668,36.103L108.668,33.076L116.09,33.076Z" style="fill:rgb(128,128,128);fill-rule:nonzero;"/>
</svg>
