<?xml version="1.0" encoding="UTF-8" standalone="no"?>
<!DOCTYPE svg PUBLIC "-//W3C//DTD SVG 1.1//EN" "http://www.w3.org/Graphics/SVG/1.1/DTD/svg11.dtd">
<svg width="100%" height="100%" viewBox="0 0 2260 458" version="1.1" xmlns="http://www.w3.org/2000/svg" xmlns:xlink="http://www.w3.org/1999/xlink" xml:space="preserve" xmlns:serif="http://www.serif.com/" style="fill-rule:evenodd;clip-rule:evenodd;stroke-linecap:square;stroke-linejoin:round;stroke-miterlimit:10;">
    <rect id="Clementini-Points-Polygons" serif:id="Clementini Points-Polygons" x="-209" y="-2390" width="2683.8" height="4517.66" style="fill:none;"/>
    <circle cx="388.522" cy="176.083" r="26" style="fill:rgb(247,0,255);"/>
    <path d="M87.466,36.534L93.84,36.534L93.84,42.27C93.955,42.308 94.071,42.347 94.187,42.386C95.076,42.772 96.051,43.091 97.113,43.342C98.175,43.593 99.305,43.718 100.503,43.718C102.666,43.718 104.346,43.284 105.543,42.415C106.741,41.546 107.339,40.377 107.339,38.909C107.339,37.596 106.847,36.534 105.862,35.723C104.877,34.911 103.66,34.197 102.212,33.579C100.763,32.961 99.18,32.343 97.461,31.725C95.742,31.107 94.158,30.325 92.71,29.378C91.261,28.432 90.045,27.244 89.06,25.815C88.075,24.386 87.582,22.532 87.582,20.253C87.582,18.515 87.92,16.921 88.596,15.473C89.272,14.024 90.218,12.779 91.435,11.736C92.652,10.693 94.11,9.882 95.81,9.302C97.509,8.723 99.402,8.433 101.488,8.433C103.844,8.433 106.161,8.646 108.44,9.07C110.719,9.495 112.535,10.075 113.887,10.809L113.887,22.57L107.513,22.57L107.513,16.139C107.397,16.139 107.282,16.12 107.166,16.081C106.316,15.849 105.399,15.666 104.414,15.531C103.429,15.396 102.453,15.328 101.488,15.328C99.634,15.328 98.175,15.695 97.113,16.429C96.051,17.163 95.52,18.148 95.52,19.384C95.52,20.658 96.012,21.701 96.997,22.512C97.982,23.324 99.199,24.057 100.647,24.714C102.096,25.371 103.68,26.027 105.399,26.684C107.117,27.341 108.701,28.142 110.15,29.089C111.598,30.035 112.815,31.223 113.8,32.652C114.785,34.081 115.277,35.877 115.277,38.04C115.277,40.126 114.891,41.951 114.118,43.515C113.346,45.08 112.264,46.393 110.874,47.455C109.483,48.518 107.842,49.309 105.949,49.831C104.056,50.352 102.009,50.613 99.807,50.613C98.34,50.613 96.978,50.497 95.723,50.265C94.467,50.034 93.308,49.744 92.246,49.396C91.184,49.049 90.247,48.682 89.436,48.295C88.625,47.909 87.968,47.581 87.466,47.311L87.466,36.534Z" style="fill-rule:nonzero;"/>
    <path d="M125.301,43.429L131.906,43.429L131.906,15.618L126.344,15.618L126.344,22.628L119.97,22.628L119.97,9.244L151.721,9.244L151.721,22.628L145.348,22.628L145.348,15.618L139.844,15.618L139.844,43.429L146.391,43.429L146.391,49.802L125.301,49.802L125.301,43.429Z" style="fill-rule:nonzero;"/>
    <rect x="157.747" y="56.581" width="25.725" height="6.2" style="fill-rule:nonzero;"/>
    <path d="M192.047,9.244L218.641,9.244L218.641,16.313L199.985,16.313L199.985,25.757L217.193,25.757L217.193,32.826L199.985,32.826L199.985,42.733L218.931,42.733L218.931,49.802L192.047,49.802L192.047,9.244Z" style="fill-rule:nonzero;"/>
    <path d="M253.463,61.39L245.931,61.39L245.931,47.311L245.699,47.311C245.042,48.315 243.961,49.116 242.454,49.715C240.948,50.314 239.306,50.613 237.529,50.613C235.753,50.613 234.111,50.304 232.605,49.686C231.098,49.068 229.804,48.151 228.723,46.934C227.641,45.717 226.791,44.182 226.173,42.328C225.555,40.474 225.246,38.33 225.246,35.896C225.246,33.347 225.642,31.087 226.434,29.118C227.226,27.148 228.336,25.496 229.765,24.164C231.195,22.831 232.904,21.827 234.893,21.151C236.882,20.475 239.094,20.137 241.527,20.137C242.725,20.137 243.912,20.185 245.09,20.282C246.269,20.378 247.389,20.514 248.451,20.687C249.513,20.861 250.479,21.054 251.348,21.267C252.217,21.479 252.922,21.682 253.463,21.875L253.463,61.39ZM239.557,44.24C241.025,44.24 242.348,43.911 243.526,43.255C244.704,42.598 245.506,41.613 245.931,40.3L245.931,27.437C245.351,27.128 244.627,26.897 243.758,26.742C242.889,26.588 241.991,26.51 241.064,26.51C238.63,26.51 236.68,27.283 235.212,28.828C233.744,30.373 233.01,32.633 233.01,35.607C233.01,38.426 233.589,40.57 234.748,42.038C235.907,43.506 237.51,44.24 239.557,44.24Z" style="fill-rule:nonzero;"/>
    <path d="M276.638,20.832L287.415,20.832L287.415,43.429L291.819,43.429L291.819,49.802L282.664,49.802L281.332,45.514L281.1,45.514C280.211,46.982 278.879,48.199 277.102,49.165C275.325,50.13 273.355,50.613 271.192,50.613C269.724,50.613 268.382,50.42 267.165,50.034C265.949,49.647 264.915,49.01 264.066,48.122C263.216,47.233 262.559,46.036 262.096,44.529C261.632,43.023 261.4,41.13 261.4,38.851L261.4,27.206L258.098,27.206L258.098,20.832L268.933,20.832L268.933,37.287C268.933,39.643 269.309,41.343 270.062,42.386C270.816,43.429 272.003,43.95 273.626,43.95C275.055,43.95 276.339,43.525 277.479,42.675C278.618,41.826 279.42,40.783 279.883,39.547L279.883,27.206L276.638,27.206L276.638,20.832Z" style="fill-rule:nonzero;"/>
    <path d="M297.497,22.802C299.042,22.107 300.828,21.508 302.856,21.006C304.884,20.504 307.288,20.253 310.07,20.253C312.078,20.253 313.787,20.494 315.197,20.977C316.607,21.46 317.747,22.145 318.616,23.034C319.485,23.922 320.112,24.985 320.499,26.221C320.885,27.457 321.078,28.847 321.078,30.392C321.078,32.362 321.01,34.042 320.875,35.433C320.74,36.823 320.672,38.06 320.672,39.141C320.672,39.952 320.711,40.86 320.788,41.864C320.866,42.405 320.924,42.926 320.962,43.429L324.728,43.429L324.728,49.802L315.11,49.802L314.357,45.862L314.067,45.862C313.295,47.059 312.194,48.093 310.765,48.962C309.336,49.831 307.404,50.265 304.971,50.265C302.074,50.265 299.776,49.493 298.076,47.948C296.377,46.403 295.527,44.356 295.527,41.806C295.527,40.184 295.826,38.784 296.425,37.606C297.024,36.428 297.893,35.462 299.032,34.709C300.172,33.955 301.543,33.395 303.146,33.028C304.749,32.661 306.535,32.478 308.505,32.478C309.2,32.478 309.934,32.517 310.707,32.594C311.479,32.671 312.426,32.748 313.546,32.826C313.623,32.439 313.662,32.053 313.662,31.667L313.662,30.566C313.662,29.098 313.237,28.046 312.387,27.408C311.537,26.771 310.282,26.452 308.621,26.452C306.651,26.452 304.874,26.703 303.291,27.206C301.707,27.708 300.374,28.21 299.293,28.712L297.497,22.802ZM307.404,44.066C309.258,44.066 310.649,43.728 311.576,43.052C312.503,42.376 313.179,41.652 313.604,40.879L313.604,37.403C313.218,37.326 312.638,37.239 311.866,37.142C311.093,37.046 310.263,36.997 309.374,36.997C308.64,36.997 307.906,37.065 307.173,37.2C306.439,37.335 305.782,37.548 305.203,37.837C304.623,38.127 304.16,38.504 303.812,38.967C303.464,39.431 303.291,39.991 303.291,40.647C303.291,41.729 303.609,42.569 304.247,43.168C304.884,43.767 305.937,44.066 307.404,44.066Z" style="fill-rule:nonzero;"/>
    <path d="M332.087,9.244L344.428,9.244L344.428,36.012C344.428,38.987 344.795,41.053 345.528,42.212C346.262,43.371 347.44,43.95 349.063,43.95C350.26,43.95 351.245,43.824 352.018,43.573C352.79,43.322 353.563,42.965 354.335,42.502L357.174,47.716C356.518,48.141 355.861,48.537 355.204,48.904C354.548,49.271 353.852,49.58 353.119,49.831C352.385,50.082 351.583,50.275 350.714,50.41C349.845,50.545 348.87,50.613 347.788,50.613C344.157,50.613 341.434,49.686 339.619,47.832C337.803,45.978 336.895,43.351 336.895,39.952L336.895,15.618L332.087,15.618L332.087,9.244Z" style="fill-rule:nonzero;"/>
    <path d="M385.101,41.806C385.101,41.034 384.628,40.416 383.682,39.952C382.735,39.489 381.567,39.064 380.176,38.678C378.786,38.291 377.26,37.895 375.599,37.49C373.938,37.084 372.412,36.524 371.022,35.81C369.631,35.095 368.463,34.187 367.516,33.086C366.57,31.986 366.097,30.566 366.097,28.828C366.097,27.399 366.416,26.143 367.053,25.062C367.69,23.98 368.559,23.063 369.66,22.31C370.761,21.556 372.074,20.987 373.6,20.6C375.126,20.214 376.777,20.021 378.554,20.021C380.447,20.021 382.108,20.156 383.537,20.427C384.966,20.697 386.212,21.025 387.274,21.412C388.336,21.798 389.244,22.232 389.997,22.715C390.75,23.198 391.397,23.633 391.938,24.019L388.751,29.175C388.172,28.828 387.506,28.471 386.752,28.104C385.999,27.737 385.207,27.399 384.377,27.09C383.546,26.781 382.677,26.53 381.77,26.336C380.862,26.143 379.964,26.047 379.075,26.047C377.453,26.047 376.14,26.259 375.136,26.684C374.131,27.109 373.629,27.766 373.629,28.654C373.629,29.349 374.102,29.909 375.049,30.334C375.995,30.759 377.163,31.155 378.554,31.522C379.944,31.889 381.47,32.285 383.131,32.71C384.792,33.135 386.318,33.685 387.708,34.361C389.099,35.037 390.267,35.916 391.214,36.997C392.16,38.079 392.633,39.469 392.633,41.169C392.633,44.105 391.561,46.412 389.418,48.093C387.274,49.773 384.097,50.613 379.887,50.613C376.565,50.613 373.697,50.121 371.283,49.136C368.868,48.151 366.927,47.001 365.46,45.688L368.936,40.242C369.438,40.667 370.104,41.14 370.935,41.661C371.765,42.183 372.702,42.656 373.745,43.081C374.788,43.506 375.898,43.863 377.076,44.153C378.255,44.443 379.423,44.587 380.582,44.587C381.818,44.587 382.88,44.375 383.768,43.95C384.657,43.525 385.101,42.811 385.101,41.806Z" style="fill-rule:nonzero;"/>
    <path d="M693.918,36.534L700.292,36.534L700.292,42.27C700.408,42.308 700.523,42.347 700.639,42.386C701.528,42.772 702.503,43.091 703.565,43.342C704.628,43.593 705.757,43.718 706.955,43.718C709.118,43.718 710.798,43.284 711.995,42.415C713.193,41.546 713.792,40.377 713.792,38.909C713.792,37.596 713.299,36.534 712.314,35.723C711.329,34.911 710.112,34.197 708.664,33.579C707.215,32.961 705.632,32.343 703.913,31.725C702.194,31.107 700.61,30.325 699.162,29.378C697.713,28.432 696.497,27.244 695.512,25.815C694.527,24.386 694.034,22.532 694.034,20.253C694.034,18.515 694.372,16.921 695.048,15.473C695.724,14.024 696.671,12.779 697.887,11.736C699.104,10.693 700.562,9.882 702.262,9.302C703.961,8.723 705.854,8.433 707.94,8.433C710.296,8.433 712.614,8.646 714.892,9.07C717.171,9.495 718.987,10.075 720.339,10.809L720.339,22.57L713.965,22.57L713.965,16.139C713.85,16.139 713.734,16.12 713.618,16.081C712.768,15.849 711.851,15.666 710.866,15.531C709.881,15.396 708.905,15.328 707.94,15.328C706.086,15.328 704.628,15.695 703.565,16.429C702.503,17.163 701.972,18.148 701.972,19.384C701.972,20.658 702.464,21.701 703.449,22.512C704.434,23.324 705.651,24.057 707.1,24.714C708.548,25.371 710.132,26.027 711.851,26.684C713.57,27.341 715.153,28.142 716.602,29.089C718.05,30.035 719.267,31.223 720.252,32.652C721.237,34.081 721.729,35.877 721.729,38.04C721.729,40.126 721.343,41.951 720.571,43.515C719.798,45.08 718.716,46.393 717.326,47.455C715.935,48.518 714.294,49.309 712.401,49.831C710.508,50.352 708.461,50.613 706.259,50.613C704.792,50.613 703.43,50.497 702.175,50.265C700.919,50.034 699.761,49.744 698.698,49.396C697.636,49.049 696.699,48.682 695.888,48.295C695.077,47.909 694.421,47.581 693.918,47.311L693.918,36.534Z" style="fill-rule:nonzero;"/>
    <path d="M731.753,43.429L738.358,43.429L738.358,15.618L732.796,15.618L732.796,22.628L726.422,22.628L726.422,9.244L758.173,9.244L758.173,22.628L751.8,22.628L751.8,15.618L746.296,15.618L746.296,43.429L752.843,43.429L752.843,49.802L731.753,49.802L731.753,43.429Z" style="fill-rule:nonzero;"/>
    <rect x="764.199" y="56.581" width="25.725" height="6.2" style="fill-rule:nonzero;"/>
    <path d="M797.34,9.244C797.688,9.206 798.296,9.148 799.165,9.07C800.034,8.993 801.019,8.926 802.12,8.868C803.221,8.81 804.361,8.761 805.539,8.723C806.717,8.684 807.769,8.665 808.696,8.665C812.289,8.665 815.263,9.186 817.619,10.229C819.975,11.272 821.839,12.711 823.21,14.546C824.581,16.381 825.537,18.544 826.078,21.035C826.619,23.526 826.889,26.24 826.889,29.175C826.889,31.841 826.619,34.448 826.078,36.997C825.537,39.547 824.562,41.816 823.152,43.805C821.742,45.794 819.792,47.397 817.3,48.614C814.809,49.831 811.613,50.439 807.711,50.439C807.093,50.439 806.302,50.42 805.336,50.381C804.37,50.343 803.385,50.294 802.381,50.236C801.377,50.179 800.411,50.121 799.484,50.063C798.557,50.005 797.842,49.937 797.34,49.86L797.34,9.244ZM808.986,15.734C808.252,15.734 807.538,15.762 806.842,15.82C806.147,15.878 805.626,15.927 805.278,15.965L805.278,43.139C805.432,43.177 805.664,43.206 805.973,43.226L807.885,43.342C808.194,43.361 808.445,43.371 808.638,43.371C810.879,43.371 812.665,42.955 813.998,42.125C815.33,41.294 816.325,40.203 816.982,38.851C817.638,37.499 818.063,35.974 818.256,34.274C818.45,32.575 818.546,30.875 818.546,29.175C818.546,27.708 818.459,26.182 818.285,24.598C818.112,23.015 817.706,21.566 817.069,20.253C816.431,18.94 815.475,17.858 814.201,17.008C812.926,16.158 811.188,15.734 808.986,15.734Z" style="fill-rule:nonzero;"/>
    <path d="M832.625,43.429L842.823,43.429L842.823,27.206L832.625,27.206L832.625,20.832L850.355,20.832L850.355,43.429L861.074,43.429L861.074,49.802L832.625,49.802L832.625,43.429ZM841.432,12.952C841.432,11.755 841.876,10.731 842.765,9.882C843.653,9.032 844.889,8.607 846.473,8.607C848.095,8.607 849.389,9.032 850.355,9.882C851.32,10.731 851.803,11.755 851.803,12.952C851.803,14.188 851.32,15.202 850.355,15.994C849.389,16.786 848.095,17.182 846.473,17.182C844.889,17.182 843.653,16.786 842.765,15.994C841.876,15.202 841.432,14.188 841.432,12.952Z" style="fill-rule:nonzero;"/>
    <path d="M887.262,41.806C887.262,41.034 886.789,40.416 885.843,39.952C884.896,39.489 883.728,39.064 882.337,38.678C880.947,38.291 879.421,37.895 877.76,37.49C876.099,37.084 874.574,36.524 873.183,35.81C871.792,35.095 870.624,34.187 869.678,33.086C868.731,31.986 868.258,30.566 868.258,28.828C868.258,27.399 868.577,26.143 869.214,25.062C869.851,23.98 870.721,23.063 871.821,22.31C872.922,21.556 874.236,20.987 875.761,20.6C877.287,20.214 878.938,20.021 880.715,20.021C882.608,20.021 884.269,20.156 885.698,20.427C887.127,20.697 888.373,21.025 889.435,21.412C890.497,21.798 891.405,22.232 892.158,22.715C892.911,23.198 893.558,23.633 894.099,24.019L890.912,29.175C890.333,28.828 889.667,28.471 888.914,28.104C888.16,27.737 887.368,27.399 886.538,27.09C885.708,26.781 884.838,26.53 883.931,26.336C883.023,26.143 882.125,26.047 881.237,26.047C879.614,26.047 878.301,26.259 877.297,26.684C876.292,27.109 875.79,27.766 875.79,28.654C875.79,29.349 876.263,29.909 877.21,30.334C878.156,30.759 879.325,31.155 880.715,31.522C882.106,31.889 883.631,32.285 885.292,32.71C886.953,33.135 888.479,33.685 889.87,34.361C891.26,35.037 892.429,35.916 893.375,36.997C894.321,38.079 894.794,39.469 894.794,41.169C894.794,44.105 893.723,46.412 891.579,48.093C889.435,49.773 886.258,50.613 882.048,50.613C878.726,50.613 875.858,50.121 873.444,49.136C871.03,48.151 869.089,47.001 867.621,45.688L871.097,40.242C871.599,40.667 872.266,41.14 873.096,41.661C873.927,42.183 874.863,42.656 875.906,43.081C876.949,43.506 878.06,43.863 879.238,44.153C880.416,44.443 881.584,44.587 882.743,44.587C883.979,44.587 885.041,44.375 885.93,43.95C886.818,43.525 887.262,42.811 887.262,41.806Z" style="fill-rule:nonzero;"/>
    <path d="M904.181,20.832L925.502,20.832L925.502,47.542C925.502,51.984 924.343,55.48 922.026,58.029C919.708,60.579 916.232,61.853 911.597,61.853C909.704,61.853 907.908,61.564 906.208,60.984C904.509,60.405 903.041,59.555 901.805,58.435L905.166,52.873C905.59,53.22 906.353,53.655 907.454,54.176C908.555,54.698 909.801,54.959 911.191,54.959C912.118,54.959 912.997,54.814 913.827,54.524C914.658,54.234 915.382,53.751 916,53.075C916.618,52.4 917.101,51.521 917.449,50.439C917.796,49.358 917.97,48.006 917.97,46.383L917.97,27.206L904.181,27.206L904.181,20.832ZM913.625,12.952C913.625,11.755 914.069,10.731 914.957,9.882C915.846,9.032 917.082,8.607 918.665,8.607C920.288,8.607 921.582,9.032 922.547,9.882C923.513,10.731 923.996,11.755 923.996,12.952C923.996,14.188 923.513,15.202 922.547,15.994C921.582,16.786 920.288,17.182 918.665,17.182C917.082,17.182 915.846,16.786 914.957,15.994C914.069,15.202 913.625,14.188 913.625,12.952Z" style="fill-rule:nonzero;"/>
    <path d="M935.526,35.317C935.526,32.884 935.893,30.721 936.627,28.828C937.361,26.935 938.403,25.332 939.755,24.019C941.107,22.706 942.72,21.711 944.593,21.035C946.467,20.359 948.562,20.021 950.88,20.021C953.313,20.021 955.486,20.388 957.398,21.122C959.31,21.856 960.923,22.889 962.236,24.222C963.549,25.554 964.544,27.167 965.22,29.06C965.896,30.952 966.234,33.038 966.234,35.317C966.234,37.751 965.867,39.914 965.133,41.806C964.399,43.699 963.356,45.302 962.004,46.615C960.652,47.929 959.04,48.923 957.166,49.599C955.293,50.275 953.197,50.613 950.88,50.613C948.446,50.613 946.274,50.246 944.362,49.512C942.45,48.778 940.837,47.745 939.524,46.412C938.21,45.08 937.216,43.467 936.54,41.575C935.864,39.682 935.526,37.596 935.526,35.317ZM943.29,35.317C943.29,36.592 943.463,37.77 943.811,38.851C944.159,39.933 944.661,40.879 945.318,41.69C945.974,42.502 946.766,43.129 947.693,43.573C948.62,44.018 949.682,44.24 950.88,44.24C953.12,44.24 954.945,43.525 956.355,42.096C957.765,40.667 958.47,38.407 958.47,35.317C958.47,32.652 957.813,30.498 956.5,28.857C955.187,27.215 953.313,26.394 950.88,26.394C949.798,26.394 948.794,26.559 947.867,26.887C946.94,27.215 946.138,27.746 945.462,28.48C944.786,29.214 944.255,30.141 943.869,31.261C943.483,32.381 943.29,33.733 943.29,35.317Z" style="fill-rule:nonzero;"/>
    <path d="M971.68,43.429L981.877,43.429L981.877,27.206L971.68,27.206L971.68,20.832L989.409,20.832L989.409,43.429L1000.13,43.429L1000.13,49.802L971.68,49.802L971.68,43.429ZM980.487,12.952C980.487,11.755 980.931,10.731 981.819,9.882C982.708,9.032 983.944,8.607 985.528,8.607C987.15,8.607 988.444,9.032 989.409,9.882C990.375,10.731 990.858,11.755 990.858,12.952C990.858,14.188 990.375,15.202 989.409,15.994C988.444,16.786 987.15,17.182 985.528,17.182C983.944,17.182 982.708,16.786 981.819,15.994C980.931,15.202 980.487,14.188 980.487,12.952Z" style="fill-rule:nonzero;"/>
    <path d="M1003.72,20.832L1013.86,20.832L1014.73,24.656L1014.96,24.656C1015.85,23.42 1017.12,22.339 1018.78,21.412C1020.45,20.485 1022.44,20.021 1024.75,20.021C1026.18,20.021 1027.52,20.214 1028.78,20.6C1030.04,20.987 1031.11,21.624 1032,22.512C1032.88,23.401 1033.59,24.608 1034.11,26.134C1034.63,27.659 1034.89,29.542 1034.89,31.783L1034.89,49.802L1027.36,49.802L1027.36,33.347C1027.36,30.991 1026.83,29.291 1025.77,28.248C1024.7,27.206 1023.36,26.684 1021.74,26.684C1020.31,26.684 1019.01,27.099 1017.83,27.93C1016.65,28.76 1015.85,29.793 1015.42,31.03L1015.42,49.802L1007.89,49.802L1007.89,27.206L1003.72,27.206L1003.72,20.832Z" style="fill-rule:nonzero;"/>
    <path d="M1044.51,27.206L1038.77,27.206L1038.77,20.832L1044.51,20.832L1044.51,14.227L1052.04,12.083L1052.04,20.832L1067.22,20.832L1067.22,27.206L1052.04,27.206L1052.04,35.491C1052.04,38.465 1052.6,40.619 1053.72,41.951C1054.84,43.284 1056.41,43.95 1058.41,43.95C1059.46,43.95 1060.4,43.824 1061.25,43.573C1062.1,43.322 1062.87,43.004 1063.54,42.617C1064.22,42.231 1064.84,41.806 1065.4,41.343C1065.96,40.879 1066.47,40.454 1066.93,40.068L1070.41,45.283C1069.75,46.055 1068.93,46.76 1067.95,47.397C1066.96,48.035 1065.9,48.595 1064.76,49.078C1063.62,49.56 1062.43,49.937 1061.2,50.207C1059.96,50.478 1058.74,50.613 1057.55,50.613C1053.22,50.613 1049.97,49.406 1047.78,46.992C1045.6,44.578 1044.51,40.744 1044.51,35.491L1044.51,27.206Z" style="fill-rule:nonzero;"/>
    <path d="M1594.53,36.534L1600.91,36.534L1600.91,42.27C1601.02,42.308 1601.14,42.347 1601.26,42.386C1602.14,42.772 1603.12,43.091 1604.18,43.342C1605.24,43.593 1606.37,43.718 1607.57,43.718C1609.73,43.718 1611.41,43.284 1612.61,42.415C1613.81,41.546 1614.41,40.377 1614.41,38.909C1614.41,37.596 1613.91,36.534 1612.93,35.723C1611.94,34.911 1610.73,34.197 1609.28,33.579C1607.83,32.961 1606.25,32.343 1604.53,31.725C1602.81,31.107 1601.23,30.325 1599.78,29.378C1598.33,28.432 1597.11,27.244 1596.13,25.815C1595.14,24.386 1594.65,22.532 1594.65,20.253C1594.65,18.515 1594.99,16.921 1595.66,15.473C1596.34,14.024 1597.29,12.779 1598.5,11.736C1599.72,10.693 1601.18,9.882 1602.88,9.302C1604.58,8.723 1606.47,8.433 1608.56,8.433C1610.91,8.433 1613.23,8.646 1615.51,9.07C1617.79,9.495 1619.6,10.075 1620.95,10.809L1620.95,22.57L1614.58,22.57L1614.58,16.139C1614.47,16.139 1614.35,16.12 1614.23,16.081C1613.38,15.849 1612.47,15.666 1611.48,15.531C1610.5,15.396 1609.52,15.328 1608.56,15.328C1606.7,15.328 1605.24,15.695 1604.18,16.429C1603.12,17.163 1602.59,18.148 1602.59,19.384C1602.59,20.658 1603.08,21.701 1604.07,22.512C1605.05,23.324 1606.27,24.057 1607.72,24.714C1609.16,25.371 1610.75,26.027 1612.47,26.684C1614.18,27.341 1615.77,28.142 1617.22,29.089C1618.66,30.035 1619.88,31.223 1620.87,32.652C1621.85,34.081 1622.34,35.877 1622.34,38.04C1622.34,40.126 1621.96,41.951 1621.19,43.515C1620.41,45.08 1619.33,46.393 1617.94,47.455C1616.55,48.518 1614.91,49.309 1613.02,49.831C1611.12,50.352 1609.08,50.613 1606.88,50.613C1605.41,50.613 1604.05,50.497 1602.79,50.265C1601.54,50.034 1600.38,49.744 1599.31,49.396C1598.25,49.049 1597.32,48.682 1596.5,48.295C1595.69,47.909 1595.04,47.581 1594.53,47.311L1594.53,36.534Z" style="fill-rule:nonzero;"/>
    <path d="M1632.37,43.429L1638.97,43.429L1638.97,15.618L1633.41,15.618L1633.41,22.628L1627.04,22.628L1627.04,9.244L1658.79,9.244L1658.79,22.628L1652.41,22.628L1652.41,15.618L1646.91,15.618L1646.91,43.429L1653.46,43.429L1653.46,49.802L1632.37,49.802L1632.37,43.429Z" style="fill-rule:nonzero;"/>
    <rect x="1664.81" y="56.581" width="25.725" height="6.2" style="fill-rule:nonzero;"/>
    <path d="M1701.89,43.429L1708.5,43.429L1708.5,15.618L1702.94,15.618L1702.94,22.628L1696.57,22.628L1696.57,9.244L1728.32,9.244L1728.32,22.628L1721.94,22.628L1721.94,15.618L1716.44,15.618L1716.44,43.429L1722.99,43.429L1722.99,49.802L1701.89,49.802L1701.89,43.429Z" style="fill-rule:nonzero;"/>
    <path d="M1731.85,35.317C1731.85,32.884 1732.22,30.721 1732.95,28.828C1733.68,26.935 1734.73,25.332 1736.08,24.019C1737.43,22.706 1739.04,21.711 1740.92,21.035C1742.79,20.359 1744.89,20.021 1747.2,20.021C1749.64,20.021 1751.81,20.388 1753.72,21.122C1755.63,21.856 1757.25,22.889 1758.56,24.222C1759.87,25.554 1760.87,27.167 1761.54,29.06C1762.22,30.952 1762.56,33.038 1762.56,35.317C1762.56,37.751 1762.19,39.914 1761.46,41.806C1760.72,43.699 1759.68,45.302 1758.33,46.615C1756.98,47.929 1755.36,48.923 1753.49,49.599C1751.62,50.275 1749.52,50.613 1747.2,50.613C1744.77,50.613 1742.6,50.246 1740.69,49.512C1738.77,48.778 1737.16,47.745 1735.85,46.412C1734.54,45.08 1733.54,43.467 1732.86,41.575C1732.19,39.682 1731.85,37.596 1731.85,35.317ZM1739.61,35.317C1739.61,36.592 1739.79,37.77 1740.13,38.851C1740.48,39.933 1740.99,40.879 1741.64,41.69C1742.3,42.502 1743.09,43.129 1744.02,43.573C1744.94,44.018 1746.01,44.24 1747.2,44.24C1749.44,44.24 1751.27,43.525 1752.68,42.096C1754.09,40.667 1754.79,38.407 1754.79,35.317C1754.79,32.652 1754.14,30.498 1752.82,28.857C1751.51,27.215 1749.64,26.394 1747.2,26.394C1746.12,26.394 1745.12,26.559 1744.19,26.887C1743.26,27.215 1742.46,27.746 1741.79,28.48C1741.11,29.214 1740.58,30.141 1740.19,31.261C1739.81,32.381 1739.61,33.733 1739.61,35.317Z" style="fill-rule:nonzero;"/>
    <path d="M1783.71,20.832L1794.48,20.832L1794.48,43.429L1798.89,43.429L1798.89,49.802L1789.73,49.802L1788.4,45.514L1788.17,45.514C1787.28,46.982 1785.95,48.199 1784.17,49.165C1782.39,50.13 1780.42,50.613 1778.26,50.613C1776.79,50.613 1775.45,50.42 1774.23,50.034C1773.02,49.647 1771.98,49.01 1771.13,48.122C1770.28,47.233 1769.63,46.036 1769.16,44.529C1768.7,43.023 1768.47,41.13 1768.47,38.851L1768.47,27.206L1765.16,27.206L1765.16,20.832L1776,20.832L1776,37.287C1776,39.643 1776.38,41.343 1777.13,42.386C1777.88,43.429 1779.07,43.95 1780.69,43.95C1782.12,43.95 1783.41,43.525 1784.55,42.675C1785.68,41.826 1786.49,40.783 1786.95,39.547L1786.95,27.206L1783.71,27.206L1783.71,20.832Z" style="fill-rule:nonzero;"/>
    <path d="M1830.98,47.021C1829.4,48.218 1827.55,49.116 1825.42,49.715C1823.3,50.314 1821.08,50.613 1818.76,50.613C1816.25,50.613 1814.02,50.246 1812.07,49.512C1810.12,48.778 1808.48,47.745 1807.14,46.412C1805.81,45.08 1804.8,43.467 1804.1,41.575C1803.4,39.682 1803.06,37.596 1803.06,35.317C1803.06,32.884 1803.46,30.721 1804.27,28.828C1805.09,26.935 1806.22,25.332 1807.66,24.019C1809.11,22.706 1810.82,21.711 1812.79,21.035C1814.76,20.359 1816.9,20.021 1819.22,20.021C1821.39,20.021 1823.41,20.272 1825.31,20.774C1827.2,21.276 1828.65,21.759 1829.65,22.223L1829.65,32.42L1823.28,32.42L1823.28,27.09C1822.08,26.819 1820.88,26.684 1819.69,26.684C1818.61,26.684 1817.53,26.848 1816.47,27.177C1815.41,27.505 1814.46,28.026 1813.63,28.741C1812.8,29.456 1812.12,30.354 1811.6,31.435C1811.08,32.517 1810.82,33.811 1810.82,35.317C1810.82,36.553 1811.03,37.693 1811.46,38.735C1811.88,39.778 1812.48,40.686 1813.26,41.459C1814.03,42.231 1814.98,42.84 1816.12,43.284C1817.26,43.728 1818.53,43.95 1819.92,43.95C1822.12,43.95 1823.92,43.641 1825.34,43.023C1826.75,42.405 1827.8,41.864 1828.49,41.401L1830.98,47.021Z" style="fill-rule:nonzero;"/>
    <path d="M1834.11,9.244L1845.82,9.244L1845.82,24.077L1846.05,24.077C1846.98,22.841 1848.21,21.856 1849.76,21.122C1851.3,20.388 1853.12,20.021 1855.2,20.021C1856.67,20.021 1858.02,20.214 1859.26,20.6C1860.5,20.987 1861.56,21.624 1862.44,22.512C1863.33,23.401 1864.03,24.608 1864.53,26.134C1865.03,27.659 1865.28,29.542 1865.28,31.783L1865.28,49.802L1857.75,49.802L1857.75,33.347C1857.75,30.991 1857.25,29.291 1856.25,28.248C1855.24,27.206 1853.93,26.684 1852.31,26.684C1850.88,26.684 1849.56,27.119 1848.37,27.988C1847.17,28.857 1846.32,29.967 1845.82,31.319L1845.82,49.802L1838.29,49.802L1838.29,15.618L1834.11,15.618L1834.11,9.244Z" style="fill-rule:nonzero;"/>
    <path d="M1899.82,46.731C1899.31,47.195 1898.67,47.648 1897.88,48.093C1897.08,48.537 1896.16,48.952 1895.09,49.338C1894.03,49.725 1892.86,50.034 1891.59,50.265C1890.31,50.497 1888.96,50.613 1887.53,50.613C1885.06,50.613 1882.85,50.265 1880.9,49.57C1878.95,48.875 1877.3,47.861 1875.94,46.528C1874.59,45.196 1873.56,43.593 1872.85,41.719C1872.13,39.846 1871.77,37.712 1871.77,35.317C1871.77,32.768 1872.18,30.537 1872.99,28.625C1873.8,26.713 1874.91,25.12 1876.32,23.845C1877.73,22.57 1879.38,21.614 1881.28,20.977C1883.17,20.34 1885.22,20.021 1887.42,20.021C1888.88,20.021 1890.4,20.214 1891.97,20.6C1893.53,20.987 1894.97,21.653 1896.28,22.599C1897.6,23.546 1898.67,24.811 1899.5,26.394C1900.33,27.978 1900.74,29.987 1900.74,32.42C1900.74,34.081 1900.55,35.877 1900.16,37.808L1879.31,37.808C1879.34,39.044 1879.61,40.087 1880.09,40.937C1880.57,41.787 1881.21,42.482 1882,43.023C1882.79,43.564 1883.7,43.96 1884.72,44.211C1885.75,44.462 1886.84,44.587 1888,44.587C1890.31,44.587 1892.22,44.317 1893.7,43.776C1895.19,43.235 1896.4,42.579 1897.33,41.806L1899.82,46.731ZM1887.3,26.047C1886.3,26.047 1885.35,26.182 1884.46,26.452C1883.57,26.723 1882.77,27.119 1882.06,27.64C1881.34,28.162 1880.75,28.809 1880.29,29.581C1879.83,30.354 1879.56,31.223 1879.48,32.188L1893.73,32.188C1893.73,30.296 1893.2,28.799 1892.14,27.698C1891.08,26.597 1889.47,26.047 1887.3,26.047Z" style="fill-rule:nonzero;"/>
    <path d="M1926.93,41.806C1926.93,41.034 1926.46,40.416 1925.51,39.952C1924.57,39.489 1923.4,39.064 1922.01,38.678C1920.62,38.291 1919.09,37.895 1917.43,37.49C1915.77,37.084 1914.24,36.524 1912.85,35.81C1911.46,35.095 1910.29,34.187 1909.35,33.086C1908.4,31.986 1907.93,30.566 1907.93,28.828C1907.93,27.399 1908.25,26.143 1908.88,25.062C1909.52,23.98 1910.39,23.063 1911.49,22.31C1912.59,21.556 1913.9,20.987 1915.43,20.6C1916.96,20.214 1918.61,20.021 1920.38,20.021C1922.28,20.021 1923.94,20.156 1925.37,20.427C1926.8,20.697 1928.04,21.025 1929.11,21.412C1930.17,21.798 1931.08,22.232 1931.83,22.715C1932.58,23.198 1933.23,23.633 1933.77,24.019L1930.58,29.175C1930,28.828 1929.34,28.471 1928.58,28.104C1927.83,27.737 1927.04,27.399 1926.21,27.09C1925.38,26.781 1924.51,26.53 1923.6,26.336C1922.69,26.143 1921.8,26.047 1920.91,26.047C1919.28,26.047 1917.97,26.259 1916.97,26.684C1915.96,27.109 1915.46,27.766 1915.46,28.654C1915.46,29.349 1915.93,29.909 1916.88,30.334C1917.83,30.759 1918.99,31.155 1920.38,31.522C1921.78,31.889 1923.3,32.285 1924.96,32.71C1926.62,33.135 1928.15,33.685 1929.54,34.361C1930.93,35.037 1932.1,35.916 1933.05,36.997C1933.99,38.079 1934.46,39.469 1934.46,41.169C1934.46,44.105 1933.39,46.412 1931.25,48.093C1929.11,49.773 1925.93,50.613 1921.72,50.613C1918.4,50.613 1915.53,50.121 1913.11,49.136C1910.7,48.151 1908.76,47.001 1907.29,45.688L1910.77,40.242C1911.27,40.667 1911.93,41.14 1912.77,41.661C1913.6,42.183 1914.53,42.656 1915.58,43.081C1916.62,43.506 1917.73,43.863 1918.91,44.153C1920.09,44.443 1921.25,44.587 1922.41,44.587C1923.65,44.587 1924.71,44.375 1925.6,43.95C1926.49,43.525 1926.93,42.811 1926.93,41.806Z" style="fill-rule:nonzero;"/>
    <circle cx="388.522" cy="176.083" r="18" style="fill:rgb(21,183,183);"/>
    <path d="M2247.95,278.198L2114.39,411.759" style="fill:none;stroke:rgb(21,183,183);stroke-width:10px;"/>
    <path d="M2102.32,399.689C2109.35,392.664 2120.75,392.664 2127.78,399.689C2134.8,406.714 2134.8,418.12 2127.78,425.145C2120.75,432.17 2109.35,432.17 2102.32,425.145C2095.3,418.12 2095.3,406.714 2102.32,399.689Z" style="fill:rgb(247,0,255);"/>
    <path d="M1070.41,298.449L1114.65,221.819L1203.14,221.819L1247.38,298.449L1203.14,375.079L1114.65,375.079L1070.41,298.449Z" style="fill:rgb(198,237,237);stroke:rgb(21,183,183);stroke-width:6px;"/>
    <path d="M558.376,317.827L612.033,224.891L719.345,224.891L773.002,317.827L719.345,410.763L612.033,410.763L558.376,317.827Z" style="fill:rgb(198,237,237);stroke:rgb(21,183,183);stroke-width:6px;"/>
    <path d="M1373.05,367.966L1407.75,307.864L1477.15,307.864L1511.85,367.966L1477.15,428.068L1407.75,428.068L1373.05,367.966Z" style="fill:rgb(198,237,237);stroke:rgb(21,183,183);stroke-width:6px;"/>
    <path d="M8.219,261.126L85.045,128.06L238.696,128.06L315.522,261.126L238.696,394.191L85.045,394.191L8.219,261.126Z" style="fill:rgb(198,237,237);stroke:rgb(21,183,183);stroke-width:6px;"/>
    <path d="M1563.07,367.966L1597.77,307.864L1667.17,307.864L1701.87,367.966L1667.17,428.068L1597.77,428.068L1563.07,367.966Z" style="fill:rgb(198,237,237);stroke:rgb(21,183,183);stroke-width:6px;"/>
    <path d="M15.875,261.126L88.736,134.927L234.458,134.927L307.319,261.126L234.458,387.324L88.736,387.324L15.875,261.126Z" style="fill:rgb(253,194,255);fill-opacity:0.5;stroke:rgb(247,0,255);stroke-width:6px;"/>
    <path d="M702.565,150.884L735.351,94.097L800.923,94.097L833.709,150.884L800.923,207.671L735.351,207.671L702.565,150.884Z" style="fill:rgb(253,194,255);fill-opacity:0.5;stroke:rgb(247,0,255);stroke-width:6px;"/>
    <path d="M1457.09,269.722L1478.29,232.998L1520.69,232.998L1541.9,269.722L1520.69,306.447L1478.29,306.447L1457.09,269.722Z" style="fill:rgb(253,194,255);fill-opacity:0.5;stroke:rgb(247,0,255);stroke-width:6px;"/>
    <path d="M1671.78,315.771L1692.99,279.047L1735.39,279.047L1756.59,315.771L1735.39,352.496L1692.99,352.496L1671.78,315.771Z" style="fill:rgb(253,194,255);fill-opacity:0.5;stroke:rgb(247,0,255);stroke-width:6px;"/>
    <path d="M670.281,173.979C669.343,175.372 668.181,176.508 666.795,177.387C665.408,178.266 663.881,178.705 662.214,178.705C660.639,178.705 659.145,178.324 657.732,177.563C656.319,176.801 655.242,175.73 654.5,174.35C653.757,172.969 653.386,171.368 653.386,169.545C653.386,166.68 654.308,164.184 656.15,162.055C657.992,159.926 660.418,158.861 663.425,158.861C666.967,158.861 669.614,160.343 671.365,163.305C673.116,166.267 673.992,170.033 673.992,174.604C673.992,179.656 672.879,183.65 670.652,186.586C668.425,189.522 665.411,190.99 661.609,190.99C659.565,190.99 657.579,190.684 655.652,190.072L655.652,186.42C657.813,187.436 659.851,187.943 661.765,187.943C664.474,187.943 666.57,186.7 668.054,184.213C669.539,181.726 670.281,178.575 670.281,174.76L670.281,173.979ZM663.152,161.889C662.175,161.889 661.192,162.178 660.203,162.758C659.213,163.337 658.435,164.226 657.869,165.424C657.302,166.622 657.019,167.937 657.019,169.369C657.019,171.205 657.498,172.716 658.455,173.9C659.412,175.085 660.776,175.678 662.546,175.678C664.382,175.678 665.89,174.991 667.068,173.617C668.246,172.244 668.836,170.58 668.836,168.627C668.836,166.648 668.259,165.03 667.107,163.774C665.955,162.517 664.636,161.889 663.152,161.889Z" style="fill:rgb(128,128,128);fill-rule:nonzero;"/>
    <path d="M280.17,147.056L280.17,123.657C279.076,124.53 278.015,125.272 276.986,125.884C275.958,126.496 274.545,127.121 272.748,127.759L272.748,124.477C275.6,123.267 278.074,121.697 280.17,119.77L283.803,119.77L283.803,147.056L291.088,147.056L291.088,150.083L272.748,150.083L272.748,147.056L280.17,147.056Z" style="fill:rgb(128,128,128);fill-rule:nonzero;"/>
    <path d="M299.311,150.083L299.311,147.368C299.311,145.246 299.552,143.462 300.033,142.017C300.515,140.571 301.361,138.963 302.572,137.192C303.783,135.421 304.753,134.054 305.483,133.091L308.647,128.911L309.779,127.446C310.639,126.287 311.381,124.946 312.006,123.423L296.283,123.423L296.283,119.77L315.522,119.77L315.522,122.192C315.522,123.156 315.33,124.048 314.945,124.868C314.561,125.688 313.399,127.44 311.459,130.122C310.99,130.76 310.528,131.398 310.072,132.036L308.041,134.888C306.739,136.724 305.776,138.188 305.151,139.282C304.526,140.376 304.054,141.515 303.735,142.7C303.416,143.885 303.256,145.441 303.256,147.368L303.256,150.083L299.311,150.083Z" style="fill:rgb(128,128,128);fill-rule:nonzero;"/>
    <path d="M2218.59,416.492L2218.59,408.016L2205.72,408.016L2205.72,404.969L2218.59,386.18L2222.24,386.18L2222.24,404.969L2227.85,404.969L2227.85,408.016L2222.24,408.016L2222.24,416.492L2218.59,416.492ZM2218.59,404.969L2218.59,391.687L2209.58,404.969L2218.59,404.969Z" style="fill:rgb(128,128,128);fill-rule:nonzero;"/>
    <path d="M464.151,260.517L321.115,403.553" style="fill:none;stroke:rgb(21,183,183);stroke-width:10px;"/>
    <path d="M457.558,252.967L314.523,396.003" style="fill:none;stroke:rgb(247,0,255);stroke-width:10px;"/>
    <path d="M954.56,307.449C959.527,298.846 970.545,295.893 979.148,300.861C987.752,305.828 990.704,316.846 985.737,325.449C980.77,334.053 969.752,337.005 961.148,332.038C952.545,327.07 949.593,316.053 954.56,307.449Z" style="fill:rgb(21,183,183);"/>
    <path d="M1019.31,195.301C1024.28,186.698 1035.29,183.745 1043.9,188.713C1052.5,193.68 1055.45,204.698 1050.49,213.301C1045.52,221.905 1034.5,224.857 1025.9,219.89C1017.29,214.922 1014.34,203.905 1019.31,195.301Z" style="fill:rgb(247,0,255);"/>
    <path d="M1143.31,130.53C1148.27,121.927 1159.29,118.975 1167.89,123.942C1176.5,128.909 1179.45,139.927 1174.48,148.53C1169.52,157.134 1158.5,160.086 1149.89,155.119C1141.29,150.152 1138.34,139.134 1143.31,130.53Z" style="fill:rgb(247,0,255);"/>
    <path d="M826.709,341.252L932.781,157.531" style="fill:none;stroke:rgb(247,0,255);stroke-width:10px;"/>
    <path d="M873.457,341.252L979.529,157.531" style="fill:none;stroke:rgb(21,183,183);stroke-width:10px;"/>
    <path d="M1674.5,241.397L1731.87,212.474L1731.87,114.202" style="fill:none;stroke:rgb(21,183,183);stroke-width:10px;"/>
    <path d="M1592.95,241.397L1731.87,114.202" style="fill:none;stroke:rgb(247,0,255);stroke-width:10px;"/>
    <rect x="1845.9" y="331.826" width="140.949" height="103.091" style="fill:rgb(251,133,255);fill-opacity:0.5;stroke:rgb(251,133,255);stroke-width:6px;"/>
    <rect x="1845.9" y="137.826" width="140.949" height="103.091" style="fill:rgb(251,133,255);fill-opacity:0.5;stroke:rgb(251,133,255);stroke-width:6px;"/>
    <path d="M1845.9,383.372L1820.58,383.372L1811.54,303.088L1880.81,303.088L1878.07,331.826" style="fill:none;stroke:rgb(21,183,183);stroke-width:10px;"/>
    <path d="M1845.64,189.372L1820.32,189.372L1811.28,109.088L1866.07,109.088" style="fill:none;stroke:rgb(21,183,183);stroke-width:10px;"/>
    <path d="M464.151,194.083L445.811,194.083L445.811,190.743C445.811,189.884 445.987,188.962 446.338,187.979C446.69,186.996 447.361,185.893 448.35,184.669C449.34,183.445 450.388,182.267 451.495,181.134L453.565,179.024C453.982,178.595 454.893,177.599 456.299,176.036C457.706,174.474 458.633,173.276 459.083,172.442C459.532,171.609 459.756,170.789 459.756,169.981C459.756,168.679 459.236,167.673 458.194,166.964C457.152,166.254 455.98,165.899 454.678,165.899C453.936,165.899 453.106,165.984 452.188,166.153C451.27,166.322 450.466,166.521 449.776,166.749C449.086,166.977 447.966,167.442 446.417,168.145L446.417,164.923C448.057,164.142 449.701,163.604 451.348,163.311C452.995,163.018 454.353,162.872 455.421,162.872C456.996,162.872 458.445,163.129 459.766,163.643C461.088,164.158 462.071,164.955 462.715,166.036C463.36,167.117 463.682,168.269 463.682,169.493C463.682,170.86 463.269,172.26 462.442,173.692C461.615,175.125 460.056,176.967 457.764,179.22L455.538,181.427L453.663,183.263C452.478,184.461 451.521,185.619 450.792,186.739C450.062,187.859 449.659,189.194 449.581,190.743L464.151,190.743L464.151,194.083Z" style="fill:rgb(128,128,128);fill-rule:nonzero;"/>
    <path d="M439.453,395.085L439.453,392.37C439.453,390.248 439.694,388.464 440.176,387.019C440.657,385.573 441.504,383.965 442.715,382.194C443.926,380.424 444.896,379.056 445.625,378.093L448.789,373.913L449.922,372.448C450.781,371.289 451.523,369.948 452.148,368.425L436.426,368.425L436.426,364.773L455.664,364.773L455.664,367.194C455.664,368.158 455.472,369.05 455.088,369.87C454.704,370.691 453.541,372.442 451.601,375.124C451.133,375.762 450.67,376.4 450.215,377.038L448.183,379.89C446.881,381.726 445.918,383.191 445.293,384.284C444.668,385.378 444.196,386.517 443.877,387.702C443.558,388.887 443.398,390.443 443.398,392.37L443.398,395.085L439.453,395.085Z" style="fill:rgb(128,128,128);fill-rule:nonzero;"/>
    <path d="M460.058,394.538L460.058,390.71C463.04,392.22 465.625,392.976 467.812,392.976C469.817,392.976 471.474,392.367 472.783,391.149C474.092,389.932 474.746,388.366 474.746,386.452C474.746,384.525 474.026,382.956 472.588,381.745C471.149,380.534 468.704,379.929 465.254,379.929L463.242,379.929L463.242,376.901L466.035,376.901C468.574,376.901 470.41,376.332 471.543,375.192C472.676,374.053 473.242,372.787 473.242,371.394C473.242,370.131 472.78,369.066 471.855,368.2C470.931,367.334 469.511,366.901 467.597,366.901C465.449,366.901 463.138,367.507 460.664,368.718L460.664,365.261C463.138,364.336 465.403,363.874 467.461,363.874C471.146,363.874 473.688,364.6 475.088,366.052C476.487,367.504 477.187,369.161 477.187,371.023C477.187,372.403 476.816,373.698 476.074,374.909C475.332,376.12 473.965,377.201 471.972,378.151C473.73,378.672 475.058,379.31 475.957,380.066C476.855,380.821 477.536,381.713 477.998,382.741C478.46,383.77 478.691,384.922 478.691,386.198C478.691,389.037 477.64,391.381 475.537,393.23C473.434,395.079 470.716,396.003 467.383,396.003C466.419,396.003 465.368,395.931 464.228,395.788C463.089,395.645 461.699,395.228 460.058,394.538Z" style="fill:rgb(128,128,128);fill-rule:nonzero;"/>
    <path d="M964.344,136.677L964.344,128.2L951.473,128.2L951.473,125.153L964.344,106.364L967.996,106.364L967.996,125.153L973.602,125.153L973.602,128.2L967.996,128.2L967.996,136.677L964.344,136.677ZM964.344,125.153L964.344,111.872L955.34,125.153L964.344,125.153Z" style="fill:rgb(128,128,128);fill-rule:nonzero;"/>
    <path d="M992.82,120.583C991.883,121.976 990.721,123.112 989.334,123.991C987.947,124.87 986.421,125.309 984.754,125.309C983.178,125.309 981.684,124.929 980.272,124.167C978.859,123.405 977.781,122.334 977.039,120.954C976.297,119.574 975.926,117.972 975.926,116.149C975.926,113.285 976.847,110.788 978.69,108.659C980.532,106.53 982.957,105.466 985.965,105.466C989.507,105.466 992.153,106.947 993.904,109.909C995.656,112.871 996.531,116.638 996.531,121.208C996.531,126.26 995.418,130.254 993.191,133.19C990.965,136.127 987.951,137.595 984.149,137.595C982.104,137.595 980.119,137.289 978.191,136.677L978.191,133.024C980.353,134.04 982.391,134.548 984.305,134.548C987.013,134.548 989.109,133.304 990.594,130.817C992.078,128.33 992.82,125.179 992.82,121.364L992.82,120.583ZM985.691,108.493C984.715,108.493 983.732,108.783 982.742,109.362C981.753,109.942 980.975,110.83 980.408,112.028C979.842,113.226 979.559,114.541 979.559,115.974C979.559,117.809 980.037,119.32 980.994,120.505C981.951,121.69 983.315,122.282 985.086,122.282C986.922,122.282 988.429,121.595 989.608,120.222C990.786,118.848 991.375,117.184 991.375,115.231C991.375,113.252 990.799,111.634 989.647,110.378C988.494,109.121 987.176,108.493 985.691,108.493Z" style="fill:rgb(128,128,128);fill-rule:nonzero;"/>
    <path d="M1006.95,275.171L1006.95,251.772C1005.86,252.645 1004.8,253.387 1003.77,253.999C1002.74,254.611 1001.33,255.236 999.531,255.874L999.531,252.592C1002.38,251.382 1004.86,249.813 1006.95,247.885L1010.59,247.885L1010.59,275.171L1017.87,275.171L1017.87,278.198L999.531,278.198L999.531,275.171L1006.95,275.171Z" style="fill:rgb(128,128,128);fill-rule:nonzero;"/>
    <path d="M1013.87,423.732L1013.87,419.904C1016.85,421.414 1019.44,422.17 1021.62,422.17C1023.63,422.17 1025.29,421.561 1026.6,420.344C1027.9,419.126 1028.56,417.56 1028.56,415.646C1028.56,413.719 1027.84,412.15 1026.4,410.939C1024.96,409.728 1022.52,409.123 1019.07,409.123L1017.06,409.123L1017.06,406.095L1019.85,406.095C1022.39,406.095 1024.22,405.526 1025.36,404.386C1026.49,403.247 1027.06,401.981 1027.06,400.588C1027.06,399.325 1026.59,398.26 1025.67,397.394C1024.74,396.528 1023.32,396.095 1021.41,396.095C1019.26,396.095 1016.95,396.701 1014.48,397.912L1014.48,394.455C1016.95,393.53 1019.22,393.068 1021.27,393.068C1024.96,393.068 1027.5,393.794 1028.9,395.246C1030.3,396.698 1031,398.355 1031,400.217C1031,401.597 1030.63,402.892 1029.89,404.103C1029.14,405.314 1027.78,406.395 1025.79,407.345C1027.54,407.866 1028.87,408.504 1029.77,409.26C1030.67,410.015 1031.35,410.907 1031.81,411.935C1032.27,412.964 1032.5,414.116 1032.5,415.392C1032.5,418.231 1031.45,420.575 1029.35,422.424C1027.25,424.273 1024.53,425.197 1021.2,425.197C1020.23,425.197 1019.18,425.125 1018.04,424.982C1016.9,424.839 1015.51,424.422 1013.87,423.732Z" style="fill:rgb(128,128,128);fill-rule:nonzero;"/>
    <path d="M1616.93,133.024C1617.87,131.631 1619.03,130.495 1620.42,129.616C1621.8,128.737 1623.33,128.298 1625,128.298C1626.57,128.298 1628.07,128.682 1629.48,129.45C1630.89,130.218 1631.97,131.289 1632.71,132.663C1633.45,134.037 1633.83,135.635 1633.83,137.458C1633.83,140.336 1632.9,142.839 1631.06,144.968C1629.22,147.097 1626.79,148.161 1623.79,148.161C1620.24,148.161 1617.6,146.68 1615.85,143.718C1614.1,140.755 1613.22,136.989 1613.22,132.419C1613.22,127.367 1614.33,123.373 1616.56,120.436C1618.79,117.5 1621.8,116.032 1625.6,116.032C1627.65,116.032 1629.63,116.332 1631.56,116.931L1631.56,120.602C1629.4,119.574 1627.36,119.06 1625.45,119.06C1622.74,119.06 1620.64,120.303 1619.16,122.79C1617.67,125.277 1616.93,128.428 1616.93,132.243L1616.93,133.024ZM1624.06,145.134C1625.04,145.134 1626.02,144.844 1627.01,144.265C1628,143.685 1628.78,142.793 1629.34,141.589C1629.91,140.384 1630.19,139.073 1630.19,137.653C1630.19,135.804 1629.71,134.287 1628.76,133.102C1627.8,131.918 1626.43,131.325 1624.66,131.325C1622.83,131.325 1621.32,132.012 1620.14,133.386C1618.97,134.759 1618.38,136.429 1618.38,138.395C1618.38,140.375 1618.95,141.992 1620.1,143.249C1621.26,144.505 1622.58,145.134 1624.06,145.134Z" style="fill:rgb(128,128,128);fill-rule:nonzero;"/>
    <path d="M1653.51,131.149C1652.58,132.543 1651.41,133.679 1650.03,134.558C1648.64,135.436 1647.11,135.876 1645.45,135.876C1643.87,135.876 1642.38,135.495 1640.96,134.733C1639.55,133.972 1638.47,132.901 1637.73,131.52C1636.99,130.14 1636.62,128.539 1636.62,126.716C1636.62,123.851 1637.54,121.354 1639.38,119.226C1641.22,117.097 1643.65,116.032 1646.66,116.032C1650.2,116.032 1652.85,117.513 1654.6,120.476C1656.35,123.438 1657.22,127.204 1657.22,131.774C1657.22,136.826 1656.11,140.821 1653.88,143.757C1651.66,146.693 1648.64,148.161 1644.84,148.161C1642.8,148.161 1640.81,147.855 1638.88,147.243L1638.88,143.591C1641.05,144.606 1643.08,145.114 1645,145.114C1647.7,145.114 1649.8,143.871 1651.29,141.384C1652.77,138.897 1653.51,135.746 1653.51,131.931L1653.51,131.149ZM1646.38,119.06C1645.41,119.06 1644.42,119.349 1643.43,119.929C1642.44,120.508 1641.67,121.397 1641.1,122.595C1640.53,123.793 1640.25,125.108 1640.25,126.54C1640.25,128.376 1640.73,129.886 1641.69,131.071C1642.64,132.256 1644.01,132.849 1645.78,132.849C1647.61,132.849 1649.12,132.162 1650.3,130.788C1651.48,129.414 1652.07,127.751 1652.07,125.798C1652.07,123.819 1651.49,122.201 1650.34,120.944C1649.19,119.688 1647.87,119.06 1646.38,119.06Z" style="fill:rgb(128,128,128);fill-rule:nonzero;"/>
    <path d="M2062.33,198.851L2099.14,135.097L2172.76,135.097L2209.56,198.851L2172.76,262.605L2099.14,262.605L2062.33,198.851Z" style="fill:rgb(198,237,237);stroke:rgb(21,183,183);stroke-width:6px;"/>
    <path d="M2130.12,121.097L2130.12,118.382C2130.12,116.259 2130.36,114.476 2130.84,113.03C2131.32,111.585 2132.17,109.977 2133.38,108.206C2134.59,106.435 2135.56,105.068 2136.29,104.104L2139.45,99.925L2140.59,98.46C2141.45,97.301 2142.19,95.96 2142.81,94.436L2127.09,94.436L2127.09,90.784L2146.33,90.784L2146.33,93.206C2146.33,94.17 2146.14,95.061 2145.75,95.882C2145.37,96.702 2144.21,98.453 2142.27,101.136C2141.8,101.774 2141.34,102.412 2140.88,103.05L2138.85,105.901C2137.55,107.737 2136.58,109.202 2135.96,110.296C2135.33,111.39 2134.86,112.529 2134.54,113.714C2134.22,114.899 2134.06,116.455 2134.06,118.382L2134.06,121.097L2130.12,121.097Z" style="fill:rgb(128,128,128);fill-rule:nonzero;"/>
    <path d="M1324.47,427.889L1324.47,404.49C1323.38,405.363 1322.31,406.105 1321.29,406.717C1320.26,407.329 1318.84,407.954 1317.05,408.592L1317.05,405.311C1319.9,404.1 1322.37,402.531 1324.47,400.603L1328.1,400.603L1328.1,427.889L1335.39,427.889L1335.39,430.916L1317.05,430.916L1317.05,427.889L1324.47,427.889Z" style="fill:rgb(128,128,128);fill-rule:nonzero;"/>
    <path d="M1349.37,399.705C1352.82,399.705 1355.45,401.154 1357.26,404.051C1359.07,406.948 1359.98,410.851 1359.98,415.76C1359.98,420.682 1359.07,424.591 1357.26,427.488C1355.45,430.385 1352.82,431.834 1349.37,431.834C1345.93,431.834 1343.31,430.385 1341.49,427.488C1339.67,424.591 1338.77,420.682 1338.77,415.76C1338.77,410.851 1339.67,406.948 1341.49,404.051C1343.31,401.154 1345.93,399.705 1349.37,399.705ZM1343.45,422.244L1353.94,405.818C1353.28,404.607 1352.56,403.79 1351.78,403.367C1351.01,402.944 1350.2,402.732 1349.37,402.732C1347.2,402.732 1345.54,403.94 1344.41,406.355C1343.28,408.771 1342.71,411.834 1342.71,415.545C1342.71,416.391 1342.74,417.303 1342.79,418.279C1342.84,419.256 1343.06,420.577 1343.45,422.244ZM1355.25,409.432L1344.84,425.955C1345.4,426.906 1346.04,427.618 1346.77,428.094C1347.5,428.569 1348.32,428.807 1349.21,428.807C1351.69,428.807 1353.45,427.423 1354.49,424.656C1355.53,421.889 1356.05,418.82 1356.05,415.447C1356.05,413.364 1355.78,411.359 1355.25,409.432Z" style="fill:rgb(128,128,128);fill-rule:nonzero;"/>
    <path d="M1709.76,427.889L1709.76,404.49C1708.67,405.363 1707.61,406.105 1706.58,406.717C1705.55,407.329 1704.13,407.954 1702.34,408.592L1702.34,405.311C1705.19,404.1 1707.66,402.531 1709.76,400.603L1713.39,400.603L1713.39,427.889L1720.68,427.889L1720.68,430.916L1702.34,430.916L1702.34,427.889L1709.76,427.889Z" style="fill:rgb(128,128,128);fill-rule:nonzero;"/>
    <path d="M1733.76,427.889L1733.76,404.49C1732.67,405.363 1731.61,406.105 1730.58,406.717C1729.55,407.329 1728.14,407.954 1726.34,408.592L1726.34,405.311C1729.19,404.1 1731.67,402.531 1733.76,400.603L1737.4,400.603L1737.4,427.889L1744.68,427.889L1744.68,430.916L1726.34,430.916L1726.34,427.889L1733.76,427.889Z" style="fill:rgb(128,128,128);fill-rule:nonzero;"/>
    <path d="M2011.86,414.295L2011.86,410.467C2014.85,411.977 2017.43,412.732 2019.62,412.732C2021.62,412.732 2023.28,412.124 2024.59,410.906C2025.9,409.689 2026.55,408.123 2026.55,406.209C2026.55,404.282 2025.83,402.713 2024.39,401.502C2022.96,400.291 2020.51,399.686 2017.06,399.686L2015.05,399.686L2015.05,396.658L2017.84,396.658C2020.38,396.658 2022.22,396.088 2023.35,394.949C2024.48,393.81 2025.05,392.544 2025.05,391.15C2025.05,389.887 2024.59,388.823 2023.66,387.957C2022.74,387.091 2021.32,386.658 2019.4,386.658C2017.26,386.658 2014.94,387.264 2012.47,388.475L2012.47,385.018C2014.94,384.093 2017.21,383.631 2019.27,383.631C2022.95,383.631 2025.49,384.357 2026.89,385.809C2028.29,387.26 2028.99,388.917 2028.99,390.779C2028.99,392.159 2028.62,393.455 2027.88,394.666C2027.14,395.877 2025.77,396.958 2023.78,397.908C2025.54,398.429 2026.86,399.067 2027.76,399.822C2028.66,400.577 2029.34,401.469 2029.8,402.498C2030.27,403.527 2030.5,404.679 2030.5,405.955C2030.5,408.794 2029.45,411.137 2027.34,412.986C2025.24,414.835 2022.52,415.76 2019.19,415.76C2018.23,415.76 2017.17,415.688 2016.03,415.545C2014.89,415.402 2013.51,414.985 2011.86,414.295Z" style="fill:rgb(128,128,128);fill-rule:nonzero;"/>
    <path d="M2045.03,383.631C2048.48,383.631 2051.11,385.079 2052.92,387.977C2054.73,390.874 2055.63,394.777 2055.63,399.686C2055.63,404.607 2054.73,408.517 2052.92,411.414C2051.11,414.311 2048.48,415.76 2045.03,415.76C2041.59,415.76 2038.96,414.311 2037.15,411.414C2035.33,408.517 2034.42,404.607 2034.42,399.686C2034.42,394.777 2035.33,390.874 2037.15,387.977C2038.96,385.079 2041.59,383.631 2045.03,383.631ZM2039.11,406.17L2049.6,389.744C2048.93,388.533 2048.22,387.716 2047.44,387.293C2046.67,386.87 2045.86,386.658 2045.03,386.658C2042.85,386.658 2041.2,387.866 2040.07,390.281C2038.93,392.697 2038.37,395.76 2038.37,399.471C2038.37,400.317 2038.39,401.228 2038.45,402.205C2038.5,403.182 2038.72,404.503 2039.11,406.17ZM2050.91,393.357L2040.5,409.881C2041.06,410.831 2041.7,411.544 2042.43,412.019C2043.16,412.495 2043.97,412.732 2044.87,412.732C2047.35,412.732 2049.1,411.349 2050.15,408.582C2051.19,405.815 2051.71,402.745 2051.71,399.373C2051.71,397.29 2051.44,395.284 2050.91,393.357Z" style="fill:rgb(128,128,128);fill-rule:nonzero;"/>
    <path d="M1968.68,118.448L1968.68,114.62C1971.66,116.13 1974.25,116.886 1976.43,116.886C1978.44,116.886 1980.1,116.277 1981.4,115.06C1982.71,113.842 1983.37,112.276 1983.37,110.362C1983.37,108.435 1982.65,106.866 1981.21,105.655C1979.77,104.444 1977.33,103.839 1973.88,103.839L1971.86,103.839L1971.86,100.811L1974.66,100.811C1977.2,100.811 1979.03,100.242 1980.16,99.102C1981.3,97.963 1981.86,96.697 1981.86,95.304C1981.86,94.041 1981.4,92.976 1980.48,92.11C1979.55,91.244 1978.13,90.811 1976.22,90.811C1974.07,90.811 1971.76,91.417 1969.29,92.628L1969.29,89.171C1971.76,88.246 1974.03,87.784 1976.08,87.784C1979.77,87.784 1982.31,88.51 1983.71,89.962C1985.11,91.414 1985.81,93.071 1985.81,94.933C1985.81,96.313 1985.44,97.608 1984.7,98.819C1983.95,100.03 1982.59,101.111 1980.6,102.061C1982.35,102.582 1983.68,103.22 1984.58,103.976C1985.48,104.731 1986.16,105.623 1986.62,106.651C1987.08,107.68 1987.31,108.832 1987.31,110.108C1987.31,112.947 1986.26,115.291 1984.16,117.14C1982.06,118.989 1979.34,119.913 1976.01,119.913C1975.04,119.913 1973.99,119.841 1972.85,119.698C1971.71,119.555 1970.32,119.138 1968.68,118.448Z" style="fill:rgb(128,128,128);fill-rule:nonzero;"/>
    <path d="M2000.95,115.968L2000.95,92.569C1999.85,93.442 1998.79,94.184 1997.76,94.796C1996.73,95.408 1995.32,96.033 1993.52,96.671L1993.52,93.39C1996.38,92.179 1998.85,90.61 2000.95,88.683L2004.58,88.683L2004.58,115.968L2011.86,115.968L2011.86,118.995L1993.52,118.995L1993.52,115.968L2000.95,115.968Z" style="fill:rgb(128,128,128);fill-rule:nonzero;"/>
    <path d="M974.861,410.068L785.976,410.068" style="fill:none;stroke:rgb(21,183,183);stroke-width:10px;"/>
    <circle cx="1076.21" cy="409.068" r="18" style="fill:rgb(247,0,255);"/>
    <path d="M2178.46,150.705C2185.48,143.681 2196.89,143.681 2203.91,150.705C2210.94,157.73 2210.94,169.136 2203.91,176.161C2196.89,183.186 2185.48,183.186 2178.46,176.161C2171.43,169.136 2171.43,157.73 2178.46,150.705Z" style="fill:rgb(247,0,255);"/>
    <path d="M1152.3,191.918C1153.24,190.525 1154.4,189.389 1155.79,188.51C1157.17,187.631 1158.7,187.191 1160.37,187.191C1161.94,187.191 1163.44,187.576 1164.85,188.344C1166.26,189.112 1167.34,190.183 1168.08,191.557C1168.83,192.93 1169.2,194.529 1169.2,196.352C1169.2,199.229 1168.28,201.733 1166.43,203.861C1164.59,205.99 1162.16,207.055 1159.16,207.055C1155.62,207.055 1152.97,205.574 1151.22,202.611C1149.47,199.649 1148.59,195.883 1148.59,191.313C1148.59,186.26 1149.7,182.266 1151.93,179.33C1154.16,176.394 1157.17,174.926 1160.97,174.926C1163.02,174.926 1165,175.225 1166.93,175.824L1166.93,179.496C1164.77,178.468 1162.73,177.953 1160.82,177.953C1158.11,177.953 1156.01,179.197 1154.53,181.684C1153.04,184.171 1152.3,187.322 1152.3,191.137L1152.3,191.918ZM1159.43,204.027C1160.41,204.027 1161.39,203.738 1162.38,203.158C1163.37,202.579 1164.15,201.687 1164.71,200.483C1165.28,199.278 1165.56,197.966 1165.56,196.547C1165.56,194.698 1165.09,193.181 1164.13,191.996C1163.17,190.811 1161.81,190.219 1160.04,190.219C1158.2,190.219 1156.69,190.906 1155.52,192.279C1154.34,193.653 1153.75,195.323 1153.75,197.289C1153.75,199.268 1154.32,200.886 1155.48,202.143C1156.63,203.399 1157.95,204.027 1159.43,204.027Z" style="fill:rgb(128,128,128);fill-rule:nonzero;"/>
    <path d="M1464,180.557L1400.37,115.557" style="fill:none;stroke:rgb(21,183,183);stroke-width:10px;"/>
    <path d="M1400.37,244.633L1527.63,114.633" style="fill:none;stroke:rgb(247,0,255);stroke-width:10px;"/>
    <path d="M1347.19,179.018L1347.19,164.467L1364.16,164.467L1364.16,167.963L1350.82,167.963L1350.82,175.385L1351.45,175.385C1355.81,175.385 1359.17,176.296 1361.52,178.119C1363.88,179.942 1365.06,182.396 1365.06,185.482C1365.06,187.436 1364.58,189.187 1363.63,190.736C1362.68,192.286 1361.34,193.5 1359.61,194.379C1357.88,195.258 1356.04,195.697 1354.08,195.697C1352.13,195.697 1349.63,195.222 1346.58,194.271L1346.58,190.307C1347.69,190.906 1348.93,191.397 1350.29,191.781C1351.66,192.165 1352.92,192.357 1354.08,192.357C1355.24,192.357 1356.38,192.077 1357.48,191.518C1358.59,190.958 1359.45,190.141 1360.06,189.066C1360.67,187.992 1360.98,186.895 1360.98,185.775C1360.98,183.887 1360.14,182.289 1358.47,180.98C1356.8,179.672 1353.82,179.018 1349.55,179.018L1347.19,179.018Z" style="fill:rgb(128,128,128);fill-rule:nonzero;"/>
    <path d="M1388.77,194.779L1370.43,194.779L1370.43,191.439C1370.43,190.58 1370.61,189.659 1370.96,188.676C1371.31,187.693 1371.98,186.589 1372.97,185.365C1373.96,184.141 1375.01,182.963 1376.11,181.83L1378.18,179.721C1378.6,179.291 1379.51,178.295 1380.92,176.732C1382.33,175.17 1383.25,173.972 1383.7,173.139C1384.15,172.305 1384.38,171.485 1384.38,170.678C1384.38,169.376 1383.86,168.37 1382.81,167.66C1381.77,166.951 1380.6,166.596 1379.3,166.596C1378.56,166.596 1377.73,166.68 1376.81,166.85C1375.89,167.019 1375.09,167.217 1374.39,167.445C1373.7,167.673 1372.59,168.139 1371.04,168.842L1371.04,165.619C1372.68,164.838 1374.32,164.301 1375.97,164.008C1377.62,163.715 1378.97,163.568 1380.04,163.568C1381.62,163.568 1383.06,163.826 1384.39,164.34C1385.71,164.854 1386.69,165.652 1387.34,166.732C1387.98,167.813 1388.3,168.966 1388.3,170.189C1388.3,171.557 1387.89,172.956 1387.06,174.389C1386.24,175.821 1384.67,177.663 1382.38,179.916L1380.16,182.123L1378.28,183.959C1377.1,185.157 1376.14,186.316 1375.41,187.436C1374.68,188.555 1374.28,189.89 1374.2,191.439L1388.77,191.439L1388.77,194.779Z" style="fill:rgb(128,128,128);fill-rule:nonzero;"/>
</svg>
