<?xml version="1.0" encoding="UTF-8" standalone="no"?>
<!DOCTYPE svg PUBLIC "-//W3C//DTD SVG 1.1//EN" "http://www.w3.org/Graphics/SVG/1.1/DTD/svg11.dtd">
<svg width="100%" height="100%" viewBox="0 0 623 1258" version="1.1" xmlns="http://www.w3.org/2000/svg" xmlns:xlink="http://www.w3.org/1999/xlink" xml:space="preserve" xmlns:serif="http://www.serif.com/" style="fill-rule:evenodd;clip-rule:evenodd;stroke-linejoin:round;stroke-miterlimit:10;">
    <rect id="Spatial-Databases-2" serif:id="Spatial Databases 2" x="-154.911" y="-1710" width="3858" height="5937" style="fill:none;"/>
    <path d="M214.562,18.968L196.922,18.968L196.922,60.584L187.058,60.584L187.058,10.184L224.426,10.184L224.426,60.584L214.562,60.584L214.562,18.968Z" style="fill-rule:nonzero;"/>
    <path d="M232.85,24.584L239.69,24.584L240.77,28.904L241.058,28.904C242.306,27.08 243.782,25.736 245.486,24.872C247.19,24.008 249.266,23.576 251.714,23.576C256.226,23.576 259.61,25.004 261.866,27.86C264.122,30.716 265.25,35.312 265.25,41.648C265.25,44.72 264.89,47.492 264.17,49.964C263.45,52.436 262.382,54.536 260.966,56.264C259.55,57.992 257.822,59.312 255.782,60.224C253.742,61.136 251.402,61.592 248.762,61.592C247.274,61.592 246.05,61.484 245.09,61.268C244.13,61.052 243.17,60.704 242.21,60.224L242.21,74.984L232.85,74.984L232.85,24.584ZM248.906,31.496C247.082,31.496 245.654,31.952 244.622,32.864C243.59,33.776 242.786,35.144 242.21,36.968L242.21,51.944C242.882,52.472 243.614,52.892 244.406,53.204C245.198,53.516 246.242,53.672 247.538,53.672C250.226,53.672 252.242,52.724 253.586,50.828C254.93,48.932 255.602,45.8 255.602,41.432C255.602,38.264 255.074,35.816 254.018,34.088C252.962,32.36 251.258,31.496 248.906,31.496Z" style="fill-rule:nonzero;"/>
    <path d="M270.002,42.584C270.002,36.488 271.49,31.796 274.466,28.508C277.442,25.22 281.618,23.576 286.994,23.576C289.874,23.576 292.37,24.032 294.482,24.944C296.594,25.856 298.346,27.14 299.738,28.796C301.13,30.452 302.174,32.456 302.87,34.808C303.566,37.16 303.914,39.752 303.914,42.584C303.914,48.68 302.438,53.372 299.486,56.66C296.534,59.948 292.37,61.592 286.994,61.592C284.114,61.592 281.618,61.136 279.506,60.224C277.394,59.312 275.63,58.028 274.214,56.372C272.798,54.716 271.742,52.712 271.046,50.36C270.35,48.008 270.002,45.416 270.002,42.584ZM279.65,42.584C279.65,44.168 279.794,45.632 280.082,46.976C280.37,48.32 280.802,49.496 281.378,50.504C281.954,51.512 282.71,52.292 283.646,52.844C284.582,53.396 285.698,53.672 286.994,53.672C289.442,53.672 291.266,52.784 292.466,51.008C293.666,49.232 294.266,46.424 294.266,42.584C294.266,39.272 293.714,36.596 292.61,34.556C291.506,32.516 289.634,31.496 286.994,31.496C284.69,31.496 282.89,32.36 281.594,34.088C280.298,35.816 279.65,38.648 279.65,42.584Z" style="fill-rule:nonzero;"/>
    <path d="M335.882,58.352C334.442,59.408 332.702,60.212 330.662,60.764C328.622,61.316 326.522,61.592 324.362,61.592C321.482,61.592 319.046,61.136 317.054,60.224C315.062,59.312 313.442,58.028 312.194,56.372C310.946,54.716 310.046,52.712 309.494,50.36C308.942,48.008 308.666,45.416 308.666,42.584C308.666,36.488 310.034,31.796 312.77,28.508C315.506,25.22 319.49,23.576 324.722,23.576C327.362,23.576 329.486,23.792 331.094,24.224C332.702,24.656 334.154,25.208 335.45,25.88L333.218,33.512C332.114,32.984 331.022,32.576 329.942,32.288C328.862,32 327.626,31.856 326.234,31.856C323.642,31.856 321.674,32.708 320.33,34.412C318.986,36.116 318.314,38.84 318.314,42.584C318.314,44.12 318.482,45.536 318.818,46.832C319.154,48.128 319.658,49.256 320.33,50.216C321.002,51.176 321.878,51.932 322.958,52.484C324.038,53.036 325.298,53.312 326.738,53.312C328.322,53.312 329.666,53.108 330.77,52.7C331.874,52.292 332.858,51.8 333.722,51.224L335.882,58.352Z" style="fill-rule:nonzero;"/>
    <path d="M367.49,32.864L357.482,32.864L357.482,60.584L347.834,60.584L347.834,32.864L337.538,32.864L337.538,24.584L367.49,24.584L367.49,32.864Z" style="fill-rule:nonzero;"/>
    <path d="M371.45,26.672C373.37,25.808 375.65,25.124 378.29,24.62C380.93,24.116 383.69,23.864 386.57,23.864C389.066,23.864 391.154,24.164 392.834,24.764C394.514,25.364 395.846,26.216 396.83,27.32C397.814,28.424 398.51,29.744 398.918,31.28C399.326,32.816 399.53,34.544 399.53,36.464C399.53,38.576 399.458,40.7 399.314,42.836C399.17,44.972 399.086,47.072 399.062,49.136C399.038,51.2 399.098,53.204 399.242,55.148C399.386,57.092 399.746,58.928 400.322,60.656L392.69,60.656L391.178,55.688L390.818,55.688C389.858,57.176 388.526,58.46 386.822,59.54C385.118,60.62 382.922,61.16 380.234,61.16C378.554,61.16 377.042,60.908 375.698,60.404C374.354,59.9 373.202,59.18 372.242,58.244C371.282,57.308 370.538,56.204 370.01,54.932C369.482,53.66 369.218,52.232 369.218,50.648C369.218,48.44 369.71,46.58 370.694,45.068C371.678,43.556 373.094,42.332 374.942,41.396C376.79,40.46 378.998,39.812 381.566,39.452C384.134,39.092 387.002,38.984 390.17,39.128C390.506,36.44 390.314,34.508 389.594,33.332C388.874,32.156 387.266,31.568 384.77,31.568C382.898,31.568 380.918,31.76 378.83,32.144C376.742,32.528 375.026,33.032 373.682,33.656L371.45,26.672ZM383.33,53.456C385.202,53.456 386.69,53.036 387.794,52.196C388.898,51.356 389.714,50.456 390.242,49.496L390.242,44.816C388.754,44.672 387.326,44.648 385.958,44.744C384.59,44.84 383.378,45.056 382.322,45.392C381.266,45.728 380.426,46.208 379.802,46.832C379.178,47.456 378.866,48.248 378.866,49.208C378.866,50.552 379.262,51.596 380.054,52.34C380.846,53.084 381.938,53.456 383.33,53.456Z" style="fill-rule:nonzero;"/>
    <path d="M426.386,46.976L422.066,47.84L415.154,60.584L403.994,60.584L410.978,49.28L414.506,46.616C412.154,46.232 410.21,45.116 408.674,43.268C407.138,41.42 406.37,39.104 406.37,36.32C406.37,31.952 407.822,28.736 410.726,26.672C413.63,24.608 418.082,23.576 424.082,23.576C426.386,23.576 428.534,23.696 430.526,23.936C432.518,24.176 434.258,24.44 435.746,24.728L435.746,60.584L426.386,60.584L426.386,46.976ZM426.386,42.08L426.386,32.144C425.858,31.904 425.282,31.736 424.658,31.64C424.034,31.544 423.434,31.496 422.858,31.496C420.698,31.496 419.018,31.952 417.818,32.864C416.618,33.776 416.018,35.144 416.018,36.968C416.018,38.792 416.678,40.136 417.998,41C419.318,41.864 421.25,42.272 423.794,42.224L426.386,42.08Z" style="fill-rule:nonzero;"/>
    <path d="M96.698,678.214L79.058,678.214L79.058,719.83L69.194,719.83L69.194,669.43L106.562,669.43L106.562,719.83L96.698,719.83L96.698,678.214Z" style="fill-rule:nonzero;"/>
    <path d="M113.258,701.83C113.258,695.734 114.746,691.042 117.722,687.754C120.698,684.466 124.874,682.822 130.25,682.822C133.13,682.822 135.626,683.278 137.738,684.19C139.85,685.102 141.602,686.386 142.994,688.042C144.386,689.698 145.43,691.702 146.126,694.054C146.822,696.406 147.17,698.998 147.17,701.83C147.17,707.926 145.694,712.618 142.742,715.906C139.79,719.194 135.626,720.838 130.25,720.838C127.37,720.838 124.874,720.382 122.762,719.47C120.65,718.558 118.886,717.274 117.47,715.618C116.054,713.962 114.998,711.958 114.302,709.606C113.606,707.254 113.258,704.662 113.258,701.83ZM122.906,701.83C122.906,703.414 123.05,704.878 123.338,706.222C123.626,707.566 124.058,708.742 124.634,709.75C125.21,710.758 125.966,711.538 126.902,712.09C127.838,712.642 128.954,712.918 130.25,712.918C132.698,712.918 134.522,712.03 135.722,710.254C136.922,708.478 137.522,705.67 137.522,701.83C137.522,698.518 136.97,695.842 135.866,693.802C134.762,691.762 132.89,690.742 130.25,690.742C127.946,690.742 126.146,691.606 124.85,693.334C123.554,695.062 122.906,697.894 122.906,701.83Z" style="fill-rule:nonzero;"/>
    <path d="M173.234,692.11L166.106,692.11C165.818,695.518 165.482,698.902 165.098,702.262C164.714,705.622 164.102,708.634 163.262,711.298C162.422,713.962 161.282,716.122 159.842,717.778C158.402,719.434 156.53,720.262 154.226,720.262C151.442,720.262 149.474,719.902 148.322,719.182L149.474,711.406C150.242,711.694 150.962,711.838 151.634,711.838C152.594,711.838 153.434,711.43 154.154,710.614C154.874,709.798 155.486,708.334 155.99,706.222C156.494,704.11 156.902,701.242 157.214,697.618C157.526,693.994 157.754,689.398 157.898,683.83L182.594,683.83L182.594,719.83L173.234,719.83L173.234,692.11Z" style="fill-rule:nonzero;"/>
    <path d="M212.402,703.414L212.762,698.302L212.546,698.302L209.45,703.558L196.634,719.83L190.73,719.83L190.73,683.83L200.09,683.83L200.09,700.966L199.658,705.862L199.946,705.862L202.898,700.75L215.858,683.83L221.762,683.83L221.762,719.83L212.402,719.83L212.402,703.414Z" style="fill-rule:nonzero;"/>
    <path d="M233.714,698.23L247.106,698.23C246.866,695.83 246.074,693.982 244.73,692.686C243.386,691.39 241.394,690.742 238.754,690.742C236.93,690.742 235.322,690.958 233.93,691.39C232.538,691.822 231.314,692.326 230.258,692.902L227.738,686.134C230.906,683.926 235.178,682.822 240.554,682.822C245.93,682.822 249.938,684.418 252.578,687.61C255.218,690.802 256.538,695.542 256.538,701.83C256.538,708.166 255.05,712.918 252.074,716.086C249.098,719.254 245.018,720.838 239.834,720.838C237.578,720.838 235.298,720.61 232.994,720.154C230.69,719.698 228.866,719.062 227.522,718.246L229.826,710.902C230.93,711.526 232.238,712.018 233.75,712.378C235.262,712.738 236.786,712.918 238.322,712.918C241.394,712.918 243.578,712.27 244.874,710.974C246.17,709.678 246.938,707.662 247.178,704.926L233.714,704.926L233.714,698.23Z" style="fill-rule:nonzero;"/>
    <path d="M298.802,728.038L291.962,728.038L290.882,719.83L266.69,719.83L265.61,728.038L258.77,728.038L258.77,711.55L263.018,711.55C263.402,711.022 263.894,710.122 264.494,708.85C265.094,707.578 265.694,705.838 266.294,703.63C266.894,701.422 267.41,698.686 267.842,695.422C268.274,692.158 268.49,688.294 268.49,683.83L293.546,683.83L293.546,711.55L298.802,711.55L298.802,728.038ZM284.186,711.982L284.186,691.75L276.626,691.75C276.53,693.478 276.362,695.314 276.122,697.258C275.882,699.202 275.582,701.086 275.222,702.91C274.862,704.734 274.442,706.438 273.962,708.022C273.482,709.606 272.954,710.926 272.378,711.982L284.186,711.982Z" style="fill-rule:nonzero;"/>
    <path d="M303.914,683.83L310.754,683.83L311.834,688.15L312.122,688.15C313.37,686.326 314.846,684.982 316.55,684.118C318.254,683.254 320.33,682.822 322.778,682.822C327.29,682.822 330.674,684.25 332.93,687.106C335.186,689.962 336.314,694.558 336.314,700.894C336.314,703.966 335.954,706.738 335.234,709.21C334.514,711.682 333.446,713.782 332.03,715.51C330.614,717.238 328.886,718.558 326.846,719.47C324.806,720.382 322.466,720.838 319.826,720.838C318.338,720.838 317.114,720.73 316.154,720.514C315.194,720.298 314.234,719.95 313.274,719.47L313.274,734.23L303.914,734.23L303.914,683.83ZM319.97,690.742C318.146,690.742 316.718,691.198 315.686,692.11C314.654,693.022 313.85,694.39 313.274,696.214L313.274,711.19C313.946,711.718 314.678,712.138 315.47,712.45C316.262,712.762 317.306,712.918 318.602,712.918C321.29,712.918 323.306,711.97 324.65,710.074C325.994,708.178 326.666,705.046 326.666,700.678C326.666,697.51 326.138,695.062 325.082,693.334C324.026,691.606 322.322,690.742 319.97,690.742Z" style="fill-rule:nonzero;"/>
    <path d="M342.578,685.918C344.498,685.054 346.778,684.37 349.418,683.866C352.058,683.362 354.818,683.11 357.698,683.11C360.194,683.11 362.282,683.41 363.962,684.01C365.642,684.61 366.974,685.462 367.958,686.566C368.942,687.67 369.638,688.99 370.046,690.526C370.454,692.062 370.658,693.79 370.658,695.71C370.658,697.822 370.586,699.946 370.442,702.082C370.298,704.218 370.214,706.318 370.19,708.382C370.166,710.446 370.226,712.45 370.37,714.394C370.514,716.338 370.874,718.174 371.45,719.902L363.818,719.902L362.306,714.934L361.946,714.934C360.986,716.422 359.654,717.706 357.95,718.786C356.246,719.866 354.05,720.406 351.362,720.406C349.682,720.406 348.17,720.154 346.826,719.65C345.482,719.146 344.33,718.426 343.37,717.49C342.41,716.554 341.666,715.45 341.138,714.178C340.61,712.906 340.346,711.478 340.346,709.894C340.346,707.686 340.838,705.826 341.822,704.314C342.806,702.802 344.222,701.578 346.07,700.642C347.918,699.706 350.126,699.058 352.694,698.698C355.262,698.338 358.13,698.23 361.298,698.374C361.634,695.686 361.442,693.754 360.722,692.578C360.002,691.402 358.394,690.814 355.898,690.814C354.026,690.814 352.046,691.006 349.958,691.39C347.87,691.774 346.154,692.278 344.81,692.902L342.578,685.918ZM354.458,712.702C356.33,712.702 357.818,712.282 358.922,711.442C360.026,710.602 360.842,709.702 361.37,708.742L361.37,704.062C359.882,703.918 358.454,703.894 357.086,703.99C355.718,704.086 354.506,704.302 353.45,704.638C352.394,704.974 351.554,705.454 350.93,706.078C350.306,706.702 349.994,707.494 349.994,708.454C349.994,709.798 350.39,710.842 351.182,711.586C351.974,712.33 353.066,712.702 354.458,712.702Z" style="fill-rule:nonzero;"/>
    <path d="M398.09,692.11L390.962,692.11C390.674,695.518 390.338,698.902 389.954,702.262C389.57,705.622 388.958,708.634 388.118,711.298C387.278,713.962 386.138,716.122 384.698,717.778C383.258,719.434 381.386,720.262 379.082,720.262C376.298,720.262 374.33,719.902 373.178,719.182L374.33,711.406C375.098,711.694 375.818,711.838 376.49,711.838C377.45,711.838 378.29,711.43 379.01,710.614C379.73,709.798 380.342,708.334 380.846,706.222C381.35,704.11 381.758,701.242 382.07,697.618C382.382,693.994 382.61,689.398 382.754,683.83L407.45,683.83L407.45,719.83L398.09,719.83L398.09,692.11Z" style="fill-rule:nonzero;"/>
    <path d="M424.946,711.982C426.386,712.27 427.754,712.414 429.05,712.414C431.354,712.414 433.022,712.018 434.054,711.226C435.086,710.434 435.602,709.198 435.602,707.518C435.602,704.398 433.49,702.838 429.266,702.838C427.682,702.838 426.242,703.006 424.946,703.342L424.946,711.982ZM424.946,696.646C426.098,696.454 427.262,696.322 428.438,696.25C429.614,696.178 430.682,696.142 431.642,696.142C434.138,696.142 436.25,696.418 437.978,696.97C439.706,697.522 441.11,698.302 442.19,699.31C443.27,700.318 444.05,701.506 444.53,702.874C445.01,704.242 445.25,705.718 445.25,707.302C445.25,711.67 443.954,714.934 441.362,717.094C438.77,719.254 434.378,720.334 428.186,720.334C425.45,720.334 423.086,720.286 421.094,720.19C419.102,720.094 417.266,719.974 415.586,719.83L415.586,683.83L424.946,683.83L424.946,696.646Z" style="fill-rule:nonzero;"/>
    <path d="M471.962,705.718L460.226,705.718L460.226,719.83L450.866,719.83L450.866,683.83L460.226,683.83L460.226,697.366L471.962,697.366L471.962,683.83L481.322,683.83L481.322,719.83L471.962,719.83L471.962,705.718Z" style="fill-rule:nonzero;"/>
    <path d="M489.314,685.918C491.234,685.054 493.514,684.37 496.154,683.866C498.794,683.362 501.554,683.11 504.434,683.11C506.93,683.11 509.018,683.41 510.698,684.01C512.378,684.61 513.71,685.462 514.694,686.566C515.678,687.67 516.374,688.99 516.782,690.526C517.19,692.062 517.394,693.79 517.394,695.71C517.394,697.822 517.322,699.946 517.178,702.082C517.034,704.218 516.95,706.318 516.926,708.382C516.902,710.446 516.962,712.45 517.106,714.394C517.25,716.338 517.61,718.174 518.186,719.902L510.554,719.902L509.042,714.934L508.682,714.934C507.722,716.422 506.39,717.706 504.686,718.786C502.982,719.866 500.786,720.406 498.098,720.406C496.418,720.406 494.906,720.154 493.562,719.65C492.218,719.146 491.066,718.426 490.106,717.49C489.146,716.554 488.402,715.45 487.874,714.178C487.346,712.906 487.082,711.478 487.082,709.894C487.082,707.686 487.574,705.826 488.558,704.314C489.542,702.802 490.958,701.578 492.806,700.642C494.654,699.706 496.862,699.058 499.43,698.698C501.998,698.338 504.866,698.23 508.034,698.374C508.37,695.686 508.178,693.754 507.458,692.578C506.738,691.402 505.13,690.814 502.634,690.814C500.762,690.814 498.782,691.006 496.694,691.39C494.606,691.774 492.89,692.278 491.546,692.902L489.314,685.918ZM501.194,712.702C503.066,712.702 504.554,712.282 505.658,711.442C506.762,710.602 507.578,709.702 508.106,708.742L508.106,704.062C506.618,703.918 505.19,703.894 503.822,703.99C502.454,704.086 501.242,704.302 500.186,704.638C499.13,704.974 498.29,705.454 497.666,706.078C497.042,706.702 496.73,707.494 496.73,708.454C496.73,709.798 497.126,710.842 497.918,711.586C498.71,712.33 499.802,712.702 501.194,712.702Z" style="fill-rule:nonzero;"/>
    <path d="M544.25,706.222L539.93,707.086L533.018,719.83L521.858,719.83L528.842,708.526L532.37,705.862C530.018,705.478 528.074,704.362 526.538,702.514C525.002,700.666 524.234,698.35 524.234,695.566C524.234,691.198 525.686,687.982 528.59,685.918C531.494,683.854 535.946,682.822 541.946,682.822C544.25,682.822 546.398,682.942 548.39,683.182C550.382,683.422 552.122,683.686 553.61,683.974L553.61,719.83L544.25,719.83L544.25,706.222ZM544.25,701.326L544.25,691.39C543.722,691.15 543.146,690.982 542.522,690.886C541.898,690.79 541.298,690.742 540.722,690.742C538.562,690.742 536.882,691.198 535.682,692.11C534.482,693.022 533.882,694.39 533.882,696.214C533.882,698.038 534.542,699.382 535.862,700.246C537.182,701.11 539.114,701.518 541.658,701.47L544.25,701.326Z" style="fill-rule:nonzero;"/>
    <path d="M36.674,128.158L20.081,94.973L3.489,128.158L36.674,128.158Z"/>
    <path d="M569.896,575.42L603.081,592.013L569.896,608.605L569.896,575.42Z"/>
    <path d="M20.081,121.521L20.081,592.013L576.533,592.013" style="fill:none;stroke:black;stroke-width:4px;"/>
    <path d="M36.674,751.672L20.081,718.486L3.489,751.672L36.674,751.672Z"/>
    <path d="M569.896,1213.93L603.081,1230.53L569.896,1247.12L569.896,1213.93Z"/>
    <path d="M20.081,745.035L20.081,1230.53L576.533,1230.53" style="fill:none;stroke:black;stroke-width:4px;"/>
    <path d="M97.8,465.035L131.327,449.003L124.036,485.445L97.8,465.035Z"/>
    <path d="M20.081,592.013L115,469.993" style="fill:none;stroke:black;stroke-width:4px;"/>
    <path d="M97.8,1103.55L131.327,1087.52L124.036,1123.96L97.8,1103.55Z"/>
    <path d="M20.081,1230.53L115,1108.51" style="fill:none;stroke:black;stroke-width:4px;"/>
    <path d="M191.611,185.878L287.954,138.461L446.533,161.676L500.525,238.732L331.974,267.923L191.611,185.878Z" style="fill:rgb(172,172,172);stroke:black;stroke-width:4px;"/>
    <path d="M184.346,957.357L255.398,908.649L372.349,932.496L412.168,1011.65L287.863,1041.64L184.346,957.357Z" style="fill:rgb(172,172,172);stroke:black;stroke-width:4px;"/>
    <path d="M184.346,957.357L85,908.649L254.895,908.649L184.346,957.357Z" style="fill:rgb(243,243,243);stroke:black;stroke-width:4px;"/>
    <path d="M161.824,529.389L227.332,439.727L381.031,392.4L464.691,444.751L325.729,548.384L161.824,529.389Z" style="fill:rgb(241,241,241);stroke:black;stroke-width:2px;"/>
    <path d="M197.584,383.245L200.943,405.691L180.972,394.91L197.584,383.245Z"/>
    <path d="M191.611,227.452C191.611,227.452 124.59,296.955 191.611,392.4" style="fill:none;stroke:black;stroke-width:4px;stroke-dasharray:4,12,0,0;"/>
    <path d="M372.604,933.003L474.273,908.649L549,975.142L412.168,1011.65L372.604,933.003Z" style="fill:rgb(187,187,187);stroke:black;stroke-width:4px;"/>
    <path d="M85,908.649L187.776,960.15L287.863,1041.64L162.378,1065.22L85,908.649Z" style="fill:rgb(218,218,218);stroke:black;stroke-width:4px;"/>
    <path d="M287.863,1041.64L347.412,1110L444.73,1093.06L412.168,1011.65L287.863,1041.64Z" style="fill:rgb(143,143,143);stroke:black;stroke-width:4px;"/>
    <path d="M85,908.649L228.371,851L254.895,907.576L85,908.649Z" style="fill:rgb(242,242,242);stroke:black;stroke-width:4px;"/>
    <path d="M255.398,908.649L228.371,851" style="fill:none;stroke:black;stroke-width:4px;"/>
    <path d="M412.168,1011.65L444.73,1093.06L549,975.142L412.168,1011.65Z" style="fill:rgb(109,109,109);stroke:black;stroke-width:4px;"/>
    <path d="M162.378,1065.22L347.412,1110L287.863,1041.64L162.378,1065.22Z" style="fill:rgb(187,187,187);stroke:black;stroke-width:4px;"/>
    <path d="M254.895,907.576L372.604,933.003L474.273,908.649L228.371,851L254.895,907.576Z" style="fill:rgb(223,223,223);stroke:black;stroke-width:4px;"/>
</svg>
