<?xml version="1.0" encoding="UTF-8" standalone="no"?>
<!DOCTYPE svg PUBLIC "-//W3C//DTD SVG 1.1//EN" "http://www.w3.org/Graphics/SVG/1.1/DTD/svg11.dtd">
<svg width="100%" height="100%" viewBox="0 0 646 419" version="1.1" xmlns="http://www.w3.org/2000/svg" xmlns:xlink="http://www.w3.org/1999/xlink" xml:space="preserve" xmlns:serif="http://www.serif.com/" style="fill-rule:evenodd;clip-rule:evenodd;stroke-miterlimit:10;">
    <rect id="TIN-details" serif:id="TIN details" x="-184" y="-102" width="927" height="553.306" style="fill:none;"/>
    <path d="M314,124L379.026,130.81" style="fill:none;stroke:rgb(45,231,231);stroke-width:10px;"/>
    <path d="M277.952,195.497L372.557,203.583L315.147,259.376L277.952,195.497Z" style="fill:rgb(205,255,254);"/>
    <g id="TIN">
        <path d="M383.069,360.45L412.178,287.676L438.862,339.426L383.069,360.45Z" style="fill:none;stroke:rgb(35,35,35);stroke-width:3px;stroke-linecap:square;stroke-linejoin:bevel;"/>
        <path d="M438.862,339.426L487.377,280.399L511.635,349.129L438.862,339.426Z" style="fill:none;stroke:rgb(35,35,35);stroke-width:3px;stroke-linecap:square;stroke-linejoin:bevel;"/>
        <path d="M319.999,319.212L412.178,287.676L383.069,360.45L319.999,319.212Z" style="fill:none;stroke:rgb(35,35,35);stroke-width:3px;stroke-linecap:square;stroke-linejoin:bevel;"/>
        <path d="M487.377,280.399L571.471,311.934L511.635,349.129L487.377,280.399Z" style="fill:none;stroke:rgb(35,35,35);stroke-width:3px;stroke-linecap:square;stroke-linejoin:bevel;"/>
        <path d="M412.178,287.676L487.377,280.399L438.862,339.426L412.178,287.676Z" style="fill:none;stroke:rgb(35,35,35);stroke-width:3px;stroke-linecap:square;stroke-linejoin:bevel;"/>
        <path d="M487.377,280.399L548.022,256.141L571.471,311.934L487.377,280.399Z" style="fill:none;stroke:rgb(35,35,35);stroke-width:3px;stroke-linecap:square;stroke-linejoin:bevel;"/>
        <path d="M501.123,240.778L548.022,256.141L487.377,280.399L501.123,240.778Z" style="fill:none;stroke:rgb(35,35,35);stroke-width:3px;stroke-linecap:square;stroke-linejoin:bevel;"/>
        <path d="M315.147,259.376L412.178,287.676L319.999,319.212L315.147,259.376Z" style="fill:none;stroke:rgb(35,35,35);stroke-width:3px;stroke-linecap:square;stroke-linejoin:bevel;"/>
        <path d="M438.862,232.692L487.377,280.399L412.178,287.676L438.862,232.692Z" style="fill:none;stroke:rgb(35,35,35);stroke-width:3px;stroke-linecap:square;stroke-linejoin:bevel;"/>
        <path d="M438.862,232.692L501.123,240.778L487.377,280.399L438.862,232.692Z" style="fill:none;stroke:rgb(35,35,35);stroke-width:3px;stroke-linecap:square;stroke-linejoin:bevel;"/>
        <path d="M438.862,232.692L480.1,206.009L501.123,240.778L438.862,232.692Z" style="fill:none;stroke:rgb(35,35,35);stroke-width:3px;stroke-linecap:square;stroke-linejoin:bevel;"/>
        <path d="M315.147,259.376L372.557,203.583L412.178,287.676L315.147,259.376Z" style="fill:none;stroke:rgb(35,35,35);stroke-width:3px;stroke-linecap:square;stroke-linejoin:bevel;"/>
        <path d="M372.557,203.583L438.862,232.692L412.178,287.676L372.557,203.583Z" style="fill:none;stroke:rgb(35,35,35);stroke-width:3px;stroke-linecap:square;stroke-linejoin:bevel;"/>
        <path d="M595.728,195.497L571.471,311.934L548.022,256.141L595.728,195.497Z" style="fill:none;stroke:rgb(35,35,35);stroke-width:3px;stroke-linecap:square;stroke-linejoin:bevel;"/>
        <path d="M501.123,240.778L535.893,192.263L548.022,256.141L501.123,240.778Z" style="fill:none;stroke:rgb(35,35,35);stroke-width:3px;stroke-linecap:square;stroke-linejoin:bevel;"/>
        <path d="M535.893,192.263L595.728,195.497L548.022,256.141L535.893,192.263Z" style="fill:none;stroke:rgb(35,35,35);stroke-width:3px;stroke-linecap:square;stroke-linejoin:bevel;"/>
        <path d="M480.1,206.009L535.893,192.263L501.123,240.778L480.1,206.009Z" style="fill:none;stroke:rgb(35,35,35);stroke-width:3px;stroke-linecap:square;stroke-linejoin:bevel;"/>
        <path d="M438.862,232.692L451.799,169.622L480.1,206.009L438.862,232.692Z" style="fill:none;stroke:rgb(35,35,35);stroke-width:3px;stroke-linecap:square;stroke-linejoin:bevel;"/>
        <path d="M502.74,165.579L535.893,192.263L480.1,206.009L502.74,165.579Z" style="fill:none;stroke:rgb(35,35,35);stroke-width:3px;stroke-linecap:square;stroke-linejoin:bevel;"/>
        <path d="M277.952,195.497L372.557,203.583L315.147,259.376L277.952,195.497Z" style="fill:none;stroke:rgb(35,35,35);stroke-width:3px;stroke-linecap:square;stroke-linejoin:bevel;"/>
        <path d="M372.557,203.583L451.799,169.622L438.862,232.692L372.557,203.583Z" style="fill:none;stroke:rgb(35,35,35);stroke-width:3px;stroke-linecap:square;stroke-linejoin:bevel;"/>
        <path d="M451.799,169.622L502.74,165.579L480.1,206.009L451.799,169.622Z" style="fill:none;stroke:rgb(35,35,35);stroke-width:3px;stroke-linecap:square;stroke-linejoin:bevel;"/>
        <path d="M319.999,319.212L277.952,195.497L315.147,259.376L319.999,319.212Z" style="fill:none;stroke:rgb(35,35,35);stroke-width:3px;stroke-linecap:square;stroke-linejoin:bevel;"/>
        <path d="M379.026,130.81L451.799,169.622L372.557,203.583L379.026,130.81Z" style="fill:none;stroke:rgb(35,35,35);stroke-width:3px;stroke-linecap:square;stroke-linejoin:bevel;"/>
        <path d="M312.721,123.532L372.557,203.583L277.952,195.497L312.721,123.532Z" style="fill:none;stroke:rgb(35,35,35);stroke-width:3px;stroke-linecap:square;stroke-linejoin:bevel;"/>
        <path d="M312.721,123.532L379.026,130.81L372.557,203.583L312.721,123.532Z" style="fill:none;stroke:rgb(35,35,35);stroke-width:3px;stroke-linecap:square;stroke-linejoin:bevel;"/>
        <path d="M510.018,121.915L535.893,192.263L502.74,165.579L510.018,121.915Z" style="fill:none;stroke:rgb(35,35,35);stroke-width:3px;stroke-linecap:square;stroke-linejoin:bevel;"/>
        <path d="M535.893,192.263L579.557,103.318L595.728,195.497L535.893,192.263Z" style="fill:none;stroke:rgb(35,35,35);stroke-width:3px;stroke-linecap:square;stroke-linejoin:bevel;"/>
        <path d="M451.799,169.622L510.018,121.915L502.74,165.579L451.799,169.622Z" style="fill:none;stroke:rgb(35,35,35);stroke-width:3px;stroke-linecap:square;stroke-linejoin:bevel;"/>
        <path d="M379.026,130.81L438.862,104.126L451.799,169.622L379.026,130.81Z" style="fill:none;stroke:rgb(35,35,35);stroke-width:3px;stroke-linecap:square;stroke-linejoin:bevel;"/>
        <path d="M510.018,121.915L579.557,103.318L535.893,192.263L510.018,121.915Z" style="fill:none;stroke:rgb(35,35,35);stroke-width:3px;stroke-linecap:square;stroke-linejoin:bevel;"/>
        <path d="M438.862,104.126L510.018,121.915L451.799,169.622L438.862,104.126Z" style="fill:none;stroke:rgb(35,35,35);stroke-width:3px;stroke-linecap:square;stroke-linejoin:bevel;"/>
        <path d="M312.721,123.532L365.28,62.888L379.026,130.81L312.721,123.532Z" style="fill:none;stroke:rgb(35,35,35);stroke-width:3px;stroke-linecap:square;stroke-linejoin:bevel;"/>
        <path d="M365.28,62.888L438.862,104.126L379.026,130.81L365.28,62.888Z" style="fill:none;stroke:rgb(35,35,35);stroke-width:3px;stroke-linecap:square;stroke-linejoin:bevel;"/>
        <path d="M302.21,49.951L365.28,62.888L312.721,123.532L302.21,49.951Z" style="fill:none;stroke:rgb(35,35,35);stroke-width:3px;stroke-linecap:square;stroke-linejoin:bevel;"/>
        <path d="M516.486,26.501L579.557,103.318L510.018,121.915L516.486,26.501Z" style="fill:none;stroke:rgb(35,35,35);stroke-width:3px;stroke-linecap:square;stroke-linejoin:bevel;"/>
        <path d="M438.862,104.126L516.486,26.501L510.018,121.915L438.862,104.126Z" style="fill:none;stroke:rgb(35,35,35);stroke-width:3px;stroke-linecap:square;stroke-linejoin:bevel;"/>
        <path d="M399.241,18.415L438.862,104.126L365.28,62.888L399.241,18.415Z" style="fill:none;stroke:rgb(35,35,35);stroke-width:3px;stroke-linecap:square;stroke-linejoin:bevel;"/>
        <path d="M399.241,18.415L516.486,26.501L438.862,104.126L399.241,18.415Z" style="fill:none;stroke:rgb(35,35,35);stroke-width:3px;stroke-linecap:square;stroke-linejoin:bevel;"/>
        <path d="M277.952,195.497L302.21,49.951L312.721,123.532L277.952,195.497Z" style="fill:none;stroke:rgb(35,35,35);stroke-width:3px;stroke-linecap:square;stroke-linejoin:bevel;"/>
        <path d="M302.21,49.951L399.241,18.415L365.28,62.888L302.21,49.951Z" style="fill:none;stroke:rgb(35,35,35);stroke-width:3px;stroke-linecap:square;stroke-linejoin:bevel;"/>
        <path d="M438.862,339.426L511.635,349.129L383.069,360.45L438.862,339.426Z" style="fill:none;stroke:rgb(35,35,35);stroke-width:3px;stroke-linecap:square;stroke-linejoin:bevel;"/>
    </g>
    <g id="Inner-TIN-dots" serif:id="Inner TIN dots">
        <path d="M323.982,123.532C323.982,129.747 318.936,134.793 312.721,134.793C306.506,134.793 301.461,129.747 301.461,123.532C301.461,117.317 306.506,112.272 312.721,112.272C318.936,112.272 323.982,117.317 323.982,123.532Z"/>
        <path d="M376.54,62.888C376.54,69.103 371.495,74.149 365.28,74.149C359.065,74.149 354.019,69.103 354.019,62.888C354.019,56.673 359.065,51.627 365.28,51.627C371.495,51.627 376.54,56.673 376.54,62.888Z"/>
        <path d="M450.122,104.126C450.122,110.341 445.077,115.387 438.862,115.387C432.647,115.387 427.601,110.341 427.601,104.126C427.601,97.911 432.647,92.865 438.862,92.865C445.077,92.865 450.122,97.911 450.122,104.126Z"/>
        <path d="M521.278,121.915C521.278,128.13 516.233,133.176 510.018,133.176C503.803,133.176 498.757,128.13 498.757,121.915C498.757,115.7 503.803,110.655 510.018,110.655C516.233,110.655 521.278,115.7 521.278,121.915Z"/>
        <path d="M547.153,192.263C547.153,198.478 542.108,203.523 535.893,203.523C529.678,203.523 524.632,198.478 524.632,192.263C524.632,186.048 529.678,181.002 535.893,181.002C542.108,181.002 547.153,186.048 547.153,192.263Z"/>
        <path d="M463.06,169.622C463.06,175.837 458.014,180.883 451.799,180.883C445.584,180.883 440.538,175.837 440.538,169.622C440.538,163.407 445.584,158.361 451.799,158.361C458.014,158.361 463.06,163.407 463.06,169.622Z"/>
        <path d="M390.287,130.81C390.287,137.025 385.241,142.07 379.026,142.07C372.811,142.07 367.765,137.025 367.765,130.81C367.765,124.595 372.811,119.549 379.026,119.549C385.241,119.549 390.287,124.595 390.287,130.81Z"/>
        <path d="M383.818,203.583C383.818,209.798 378.772,214.844 372.557,214.844C366.342,214.844 361.296,209.798 361.296,203.583C361.296,197.368 366.342,192.322 372.557,192.322C378.772,192.322 383.818,197.368 383.818,203.583Z"/>
        <path d="M423.439,287.676C423.439,293.891 418.393,298.937 412.178,298.937C405.963,298.937 400.917,293.891 400.917,287.676C400.917,281.462 405.963,276.416 412.178,276.416C418.393,276.416 423.439,281.462 423.439,287.676Z"/>
        <path d="M498.638,280.399C498.638,286.614 493.592,291.66 487.377,291.66C481.162,291.66 476.116,286.614 476.116,280.399C476.116,274.184 481.162,269.138 487.377,269.138C493.592,269.138 498.638,274.184 498.638,280.399Z"/>
        <path d="M512.384,240.778C512.384,246.993 507.338,252.039 501.123,252.039C494.908,252.039 489.863,246.993 489.863,240.778C489.863,234.563 494.908,229.517 501.123,229.517C507.338,229.517 512.384,234.563 512.384,240.778Z"/>
        <path d="M559.282,256.141C559.282,262.356 554.236,267.402 548.022,267.402C541.807,267.402 536.761,262.356 536.761,256.141C536.761,249.926 541.807,244.881 548.022,244.881C554.236,244.881 559.282,249.926 559.282,256.141Z"/>
        <path d="M326.408,259.376C326.408,265.591 321.362,270.636 315.147,270.636C308.932,270.636 303.886,265.591 303.886,259.376C303.886,253.161 308.932,248.115 315.147,248.115C321.362,248.115 326.408,253.161 326.408,259.376Z"/>
        <path d="M450.122,232.692C450.122,238.907 445.077,243.953 438.862,243.953C432.647,243.953 427.601,238.907 427.601,232.692C427.601,226.477 432.647,221.432 438.862,221.432C445.077,221.432 450.122,226.477 450.122,232.692Z"/>
        <path d="M491.361,206.009C491.361,212.224 486.315,217.269 480.1,217.269C473.885,217.269 468.839,212.224 468.839,206.009C468.839,199.794 473.885,194.748 480.1,194.748C486.315,194.748 491.361,199.794 491.361,206.009Z"/>
        <path d="M514.001,165.579C514.001,171.794 508.955,176.84 502.74,176.84C496.525,176.84 491.48,171.794 491.48,165.579C491.48,159.364 496.525,154.318 502.74,154.318C508.955,154.318 514.001,159.364 514.001,165.579Z"/>
        <path d="M450.122,339.426C450.122,345.641 445.077,350.687 438.862,350.687C432.647,350.687 427.601,345.641 427.601,339.426C427.601,333.211 432.647,328.166 438.862,328.166C445.077,328.166 450.122,333.211 450.122,339.426Z"/>
    </g>
    <g id="Outer-TIN-dots" serif:id="Outer TIN dots">
        <path d="M313.47,49.951C313.47,56.165 308.425,61.211 302.21,61.211C295.995,61.211 290.949,56.165 290.949,49.951C290.949,43.736 295.995,38.69 302.21,38.69C308.425,38.69 313.47,43.736 313.47,49.951Z" style="stroke:rgb(45,231,231);stroke-width:5px;stroke-linejoin:round;stroke-miterlimit:2;"/>
        <path d="M410.501,18.415C410.501,24.63 405.456,29.676 399.241,29.676C393.026,29.676 387.98,24.63 387.98,18.415C387.98,12.201 393.026,7.155 399.241,7.155C405.456,7.155 410.501,12.201 410.501,18.415Z"/>
        <path d="M527.747,26.501C527.747,32.716 522.701,37.762 516.486,37.762C510.272,37.762 505.226,32.716 505.226,26.501C505.226,20.286 510.272,15.241 516.486,15.241C522.701,15.241 527.747,20.286 527.747,26.501Z"/>
        <path d="M590.817,103.318C590.817,109.533 585.772,114.578 579.557,114.578C573.342,114.578 568.296,109.533 568.296,103.318C568.296,97.103 573.342,92.057 579.557,92.057C585.772,92.057 590.817,97.103 590.817,103.318Z"/>
        <path d="M606.989,195.497C606.989,201.712 601.943,206.758 595.728,206.758C589.514,206.758 584.468,201.712 584.468,195.497C584.468,189.282 589.514,184.236 595.728,184.236C601.943,184.236 606.989,189.282 606.989,195.497Z"/>
        <path d="M289.213,195.497C289.213,201.712 284.167,206.758 277.952,206.758C271.737,206.758 266.691,201.712 266.691,195.497C266.691,189.282 271.737,184.236 277.952,184.236C284.167,184.236 289.213,189.282 289.213,195.497Z"/>
        <path d="M582.731,311.934C582.731,318.149 577.686,323.195 571.471,323.195C565.256,323.195 560.21,318.149 560.21,311.934C560.21,305.719 565.256,300.674 571.471,300.674C577.686,300.674 582.731,305.719 582.731,311.934Z"/>
        <path d="M522.896,349.129C522.896,355.344 517.85,360.39 511.635,360.39C505.42,360.39 500.374,355.344 500.374,349.129C500.374,342.915 505.42,337.869 511.635,337.869C517.85,337.869 522.896,342.915 522.896,349.129Z"/>
        <path d="M394.33,360.45C394.33,366.665 389.284,371.71 383.069,371.71C376.854,371.71 371.808,366.665 371.808,360.45C371.808,354.235 376.854,349.189 383.069,349.189C389.284,349.189 394.33,354.235 394.33,360.45Z"/>
        <path d="M331.259,319.212C331.259,325.427 326.214,330.472 319.999,330.472C313.784,330.472 308.738,325.427 308.738,319.212C308.738,312.997 313.784,307.951 319.999,307.951C326.214,307.951 331.259,312.997 331.259,319.212Z"/>
    </g>
    <path d="M319.999,319.212L383.069,360.39L511.635,349.129L571.471,311.934L595.728,195.497L579.557,103.318L516.486,26.501L399.241,18.415L302.21,49.951L277.952,195.497L319.999,319.212Z" style="fill:none;stroke:black;stroke-width:6px;stroke-miterlimit:1;"/>
    <g id="TIN-Labels" serif:id="TIN Labels">
        <rect x="73" y="217.37" width="126.182" height="56.236" style="fill:rgb(205,255,254);"/>
        <g>
            <path d="M200.233,48.925L279.5,48.925" style="fill:none;"/>
            <path d="M261.5,39.925L279.5,48.925L261.5,57.925L261.5,39.925Z" style="fill:rgb(38,38,38);"/>
            <path d="M200.233,48.925L265.1,48.925" style="fill:none;stroke:rgb(38,38,38);stroke-width:4px;stroke-linejoin:round;stroke-miterlimit:1.5;stroke-dasharray:4,4;"/>
        </g>
        <path d="M321.974,340.697L342,338.706L331.577,355.922L321.974,340.697Z" style="fill:rgb(38,38,38);"/>
        <path d="M206,376.248C256.237,376.966 288.667,371.077 329.82,346.389" style="fill:none;stroke:rgb(38,38,38);stroke-width:4px;stroke-linejoin:round;stroke-miterlimit:1.5;stroke-dasharray:4,4;"/>
        <path d="M305.135,222.115L325.255,222.573L312.817,238.394L305.135,222.115Z"/>
        <path d="M206.182,247.806C250.655,246.339 271.564,246.943 312.232,228.718" style="fill:none;stroke:black;stroke-width:4px;stroke-linejoin:round;stroke-miterlimit:1.5;stroke-dasharray:4,4;"/>
        <path d="M331.248,141.495L350.839,136.892L342.767,155.327L331.248,141.495Z"/>
        <path d="M206.182,169.13C269.865,170.088 310.912,166.484 339.774,146.107" style="fill:none;stroke:black;stroke-width:4px;stroke-linejoin:round;stroke-miterlimit:1.5;stroke-dasharray:4,4;"/>
        <g transform="matrix(1,0,0,1,-1567.75,-174.758)">
            <g transform="matrix(44,0,0,44,1574.24,537.012)">
                <path d="M0.507,-0.54C0.507,-0.523 0.504,-0.506 0.499,-0.489C0.494,-0.472 0.486,-0.456 0.475,-0.441C0.464,-0.426 0.451,-0.412 0.434,-0.401C0.417,-0.39 0.398,-0.381 0.375,-0.375L0.375,-0.371C0.395,-0.368 0.414,-0.362 0.433,-0.354C0.451,-0.346 0.467,-0.335 0.481,-0.321C0.495,-0.307 0.506,-0.29 0.515,-0.27C0.524,-0.25 0.528,-0.226 0.528,-0.199C0.528,-0.163 0.521,-0.132 0.506,-0.106C0.491,-0.079 0.471,-0.058 0.447,-0.041C0.422,-0.024 0.394,-0.012 0.363,-0.004C0.332,0.004 0.3,0.008 0.267,0.008L0.227,0.008C0.212,0.008 0.196,0.008 0.179,0.007C0.162,0.006 0.146,0.004 0.129,0.003C0.112,0.001 0.098,-0.002 0.085,-0.005L0.085,-0.694C0.11,-0.698 0.138,-0.701 0.171,-0.704C0.204,-0.707 0.239,-0.708 0.278,-0.708C0.304,-0.708 0.331,-0.706 0.358,-0.702C0.385,-0.697 0.409,-0.689 0.431,-0.677C0.453,-0.664 0.471,-0.647 0.486,-0.625C0.5,-0.603 0.507,-0.575 0.507,-0.54ZM0.275,-0.064C0.296,-0.064 0.317,-0.067 0.337,-0.072C0.357,-0.077 0.375,-0.085 0.39,-0.096C0.405,-0.107 0.418,-0.12 0.427,-0.136C0.436,-0.152 0.44,-0.171 0.44,-0.193C0.44,-0.22 0.435,-0.242 0.424,-0.259C0.413,-0.276 0.398,-0.289 0.381,-0.298C0.363,-0.307 0.343,-0.314 0.321,-0.317C0.299,-0.32 0.277,-0.322 0.255,-0.322L0.168,-0.322L0.168,-0.071C0.173,-0.07 0.179,-0.069 0.188,-0.068C0.197,-0.067 0.206,-0.067 0.216,-0.066C0.226,-0.065 0.236,-0.065 0.247,-0.065C0.258,-0.064 0.267,-0.064 0.275,-0.064ZM0.22,-0.392C0.231,-0.392 0.245,-0.392 0.261,-0.393C0.277,-0.394 0.29,-0.395 0.301,-0.396C0.317,-0.401 0.332,-0.408 0.346,-0.416C0.36,-0.423 0.373,-0.432 0.384,-0.443C0.395,-0.453 0.403,-0.465 0.41,-0.479C0.416,-0.492 0.419,-0.507 0.419,-0.523C0.419,-0.545 0.415,-0.563 0.407,-0.578C0.398,-0.592 0.387,-0.603 0.373,-0.612C0.359,-0.621 0.343,-0.627 0.325,-0.631C0.307,-0.634 0.289,-0.636 0.27,-0.636C0.248,-0.636 0.228,-0.636 0.21,-0.635C0.191,-0.634 0.177,-0.632 0.168,-0.63L0.168,-0.392L0.22,-0.392Z" style="fill-rule:nonzero;"/>
            </g>
            <g transform="matrix(44,0,0,44,1599.94,537.012)">
                <path d="M0.157,-0.07C0.182,-0.066 0.205,-0.064 0.228,-0.064C0.27,-0.064 0.299,-0.072 0.316,-0.089C0.333,-0.105 0.341,-0.128 0.341,-0.158C0.341,-0.185 0.333,-0.207 0.317,-0.224C0.3,-0.241 0.272,-0.25 0.231,-0.25C0.22,-0.25 0.207,-0.25 0.194,-0.249C0.181,-0.248 0.168,-0.246 0.157,-0.243L0.157,-0.07ZM0.157,-0.309C0.173,-0.312 0.188,-0.314 0.203,-0.315C0.218,-0.316 0.232,-0.316 0.245,-0.316C0.279,-0.316 0.308,-0.312 0.331,-0.305C0.354,-0.297 0.372,-0.286 0.386,-0.273C0.4,-0.26 0.41,-0.244 0.416,-0.226C0.421,-0.207 0.424,-0.188 0.424,-0.167C0.424,-0.106 0.407,-0.062 0.374,-0.035C0.34,-0.008 0.285,0.006 0.21,0.006C0.167,0.006 0.123,0.004 0.077,-0L0.077,-0.5L0.157,-0.5L0.157,-0.309ZM0.503,-0.5L0.583,-0.5L0.583,-0L0.503,-0L0.503,-0.5Z" style="fill-rule:nonzero;"/>
            </g>
            <g transform="matrix(44,0,0,44,1628.98,537.012)">
                <path d="M0.378,-0.43L0.157,-0.43L0.157,-0L0.077,-0L0.077,-0.5L0.458,-0.5L0.458,-0L0.378,-0L0.378,-0.43Z" style="fill-rule:nonzero;"/>
            </g>
            <g transform="matrix(44,0,0,44,1652.52,537.012)">
                <path d="M0.224,-0.176L0.252,-0.08L0.257,-0.08L0.279,-0.177L0.376,-0.5L0.457,-0.5L0.309,-0.051C0.298,-0.018 0.286,0.013 0.276,0.044C0.265,0.075 0.252,0.102 0.239,0.126C0.226,0.15 0.211,0.169 0.194,0.184C0.177,0.198 0.158,0.205 0.136,0.205C0.112,0.205 0.092,0.202 0.077,0.195L0.091,0.126C0.1,0.129 0.108,0.131 0.116,0.131C0.135,0.131 0.153,0.121 0.17,0.102C0.187,0.082 0.202,0.048 0.213,-0L0.012,-0.5L0.104,-0.5L0.224,-0.176Z" style="fill-rule:nonzero;"/>
            </g>
            <g transform="matrix(44,0,0,44,1673.02,537.012)">
                <path d="M0.203,-0.225L0.157,-0.225L0.157,-0L0.077,-0L0.077,-0.5L0.157,-0.5L0.157,-0.274L0.2,-0.288L0.36,-0.5L0.447,-0.5L0.292,-0.299L0.25,-0.266L0.302,-0.226L0.469,-0L0.37,-0L0.203,-0.225Z" style="fill-rule:nonzero;"/>
            </g>
            <g transform="matrix(44,0,0,44,1694.06,537.012)">
                <path d="M0.346,-0.43L0.201,-0.43C0.199,-0.402 0.197,-0.372 0.195,-0.34C0.193,-0.307 0.19,-0.275 0.186,-0.243C0.182,-0.21 0.177,-0.179 0.17,-0.15C0.163,-0.12 0.155,-0.094 0.145,-0.071C0.134,-0.048 0.122,-0.03 0.107,-0.017C0.092,-0.003 0.074,0.004 0.053,0.004C0.04,0.004 0.029,0.003 0.02,0.002C0.011,0.001 0.002,-0.002 -0.005,-0.005L0.007,-0.072C0.015,-0.069 0.024,-0.068 0.033,-0.068C0.046,-0.068 0.058,-0.074 0.069,-0.085C0.08,-0.096 0.089,-0.118 0.097,-0.15C0.105,-0.181 0.112,-0.225 0.117,-0.281C0.122,-0.337 0.126,-0.41 0.128,-0.5L0.426,-0.5L0.426,-0L0.346,-0L0.346,-0.43Z" style="fill-rule:nonzero;"/>
            </g>
            <g transform="matrix(44,0,0,44,1716.19,537.012)">
                <path d="M0.069,-0.463C0.094,-0.478 0.124,-0.49 0.158,-0.497C0.191,-0.504 0.226,-0.508 0.263,-0.508C0.298,-0.508 0.326,-0.503 0.347,-0.494C0.368,-0.485 0.384,-0.472 0.395,-0.458C0.406,-0.443 0.413,-0.426 0.417,-0.408C0.42,-0.39 0.422,-0.372 0.422,-0.354C0.422,-0.314 0.421,-0.275 0.419,-0.237C0.417,-0.199 0.416,-0.163 0.416,-0.129C0.416,-0.104 0.417,-0.081 0.419,-0.059C0.421,-0.037 0.425,-0.017 0.43,0.002L0.371,0.002L0.35,-0.068L0.345,-0.068C0.339,-0.059 0.332,-0.049 0.323,-0.041C0.314,-0.032 0.303,-0.024 0.29,-0.017C0.277,-0.01 0.263,-0.004 0.246,0.001C0.229,0.006 0.21,0.008 0.189,0.008C0.168,0.008 0.148,0.005 0.13,-0.002C0.111,-0.009 0.095,-0.018 0.082,-0.031C0.069,-0.043 0.058,-0.058 0.051,-0.075C0.043,-0.092 0.039,-0.112 0.039,-0.134C0.039,-0.163 0.045,-0.188 0.057,-0.208C0.069,-0.227 0.086,-0.243 0.108,-0.255C0.129,-0.266 0.155,-0.275 0.186,-0.28C0.216,-0.285 0.249,-0.287 0.286,-0.287L0.314,-0.287C0.323,-0.287 0.332,-0.286 0.341,-0.285C0.343,-0.305 0.344,-0.323 0.344,-0.339C0.344,-0.376 0.337,-0.401 0.322,-0.416C0.307,-0.431 0.281,-0.438 0.242,-0.438C0.231,-0.438 0.219,-0.437 0.206,-0.436C0.193,-0.434 0.179,-0.432 0.166,-0.429C0.152,-0.426 0.139,-0.422 0.127,-0.418C0.114,-0.413 0.103,-0.408 0.094,-0.403L0.069,-0.463ZM0.211,-0.062C0.23,-0.062 0.246,-0.065 0.261,-0.07C0.276,-0.075 0.288,-0.081 0.299,-0.089C0.31,-0.096 0.319,-0.105 0.326,-0.114C0.333,-0.123 0.338,-0.132 0.341,-0.141L0.341,-0.224C0.332,-0.225 0.322,-0.225 0.313,-0.226C0.303,-0.226 0.293,-0.226 0.284,-0.226C0.263,-0.226 0.243,-0.225 0.224,-0.223C0.204,-0.22 0.187,-0.216 0.172,-0.21C0.157,-0.203 0.145,-0.195 0.136,-0.184C0.127,-0.173 0.122,-0.159 0.122,-0.142C0.122,-0.119 0.13,-0.099 0.147,-0.085C0.164,-0.07 0.185,-0.062 0.211,-0.062Z" style="fill-rule:nonzero;"/>
            </g>
            <g transform="matrix(44,0,0,44,1738.01,537.012)">
                <path d="M0.326,-0.207L0.249,-0.195L0.117,-0L0.02,-0L0.14,-0.171L0.18,-0.208C0.145,-0.213 0.116,-0.227 0.092,-0.25C0.067,-0.273 0.055,-0.303 0.055,-0.342C0.055,-0.372 0.06,-0.398 0.071,-0.419C0.081,-0.44 0.096,-0.458 0.115,-0.472C0.134,-0.486 0.157,-0.496 0.184,-0.503C0.211,-0.509 0.241,-0.512 0.274,-0.512C0.299,-0.512 0.322,-0.51 0.343,-0.507C0.364,-0.504 0.385,-0.5 0.406,-0.496L0.406,-0L0.326,-0L0.326,-0.207ZM0.326,-0.432C0.317,-0.435 0.308,-0.438 0.297,-0.44C0.286,-0.441 0.277,-0.442 0.269,-0.442C0.226,-0.442 0.194,-0.434 0.172,-0.419C0.149,-0.404 0.138,-0.379 0.138,-0.346C0.138,-0.316 0.15,-0.293 0.174,-0.277C0.197,-0.26 0.228,-0.252 0.267,-0.252L0.278,-0.252C0.282,-0.252 0.288,-0.252 0.295,-0.253C0.302,-0.253 0.313,-0.253 0.326,-0.254L0.326,-0.432Z" style="fill-rule:nonzero;"/>
            </g>
            <g transform="matrix(44,0,0,44,1578.03,586.248)">
                <path d="M0.049,-0.25C0.049,-0.335 0.068,-0.4 0.106,-0.445C0.143,-0.49 0.197,-0.512 0.268,-0.512C0.305,-0.512 0.338,-0.506 0.366,-0.494C0.393,-0.481 0.416,-0.464 0.434,-0.441C0.452,-0.418 0.465,-0.39 0.474,-0.358C0.483,-0.325 0.487,-0.289 0.487,-0.25C0.487,-0.165 0.468,-0.1 0.431,-0.056C0.393,-0.011 0.339,0.012 0.268,0.012C0.231,0.012 0.198,0.006 0.171,-0.007C0.143,-0.019 0.12,-0.037 0.102,-0.06C0.084,-0.083 0.071,-0.11 0.062,-0.143C0.053,-0.175 0.049,-0.211 0.049,-0.25ZM0.132,-0.25C0.132,-0.225 0.135,-0.2 0.14,-0.177C0.145,-0.154 0.152,-0.133 0.163,-0.116C0.174,-0.099 0.188,-0.085 0.205,-0.074C0.222,-0.063 0.243,-0.058 0.268,-0.058C0.359,-0.057 0.404,-0.121 0.404,-0.25C0.404,-0.276 0.402,-0.301 0.397,-0.324C0.392,-0.347 0.384,-0.368 0.373,-0.385C0.362,-0.402 0.348,-0.416 0.331,-0.427C0.314,-0.437 0.293,-0.442 0.268,-0.442C0.177,-0.443 0.132,-0.379 0.132,-0.25Z" style="fill-rule:nonzero;"/>
            </g>
            <g transform="matrix(44,0,0,44,1601.61,586.248)">
                <path d="M0.123,-0.411C0.145,-0.443 0.169,-0.466 0.196,-0.479C0.223,-0.492 0.256,-0.498 0.296,-0.498C0.357,-0.498 0.405,-0.478 0.438,-0.438C0.47,-0.398 0.487,-0.339 0.487,-0.261C0.487,-0.171 0.468,-0.103 0.43,-0.057C0.391,-0.011 0.338,0.012 0.269,0.012C0.196,0.012 0.141,-0.013 0.104,-0.064C0.067,-0.115 0.049,-0.194 0.049,-0.303C0.049,-0.36 0.052,-0.409 0.058,-0.45C0.063,-0.491 0.072,-0.525 0.083,-0.553C0.094,-0.581 0.107,-0.603 0.123,-0.62C0.138,-0.637 0.156,-0.65 0.176,-0.66C0.195,-0.669 0.217,-0.676 0.24,-0.68C0.263,-0.684 0.288,-0.687 0.315,-0.69C0.35,-0.693 0.377,-0.697 0.397,-0.702C0.416,-0.706 0.432,-0.714 0.444,-0.725L0.453,-0.653C0.446,-0.647 0.439,-0.642 0.431,-0.638C0.423,-0.634 0.413,-0.631 0.402,-0.628C0.391,-0.625 0.377,-0.623 0.362,-0.621C0.346,-0.619 0.328,-0.617 0.307,-0.616C0.278,-0.614 0.253,-0.611 0.232,-0.606C0.21,-0.6 0.191,-0.591 0.176,-0.577C0.16,-0.562 0.148,-0.542 0.139,-0.516C0.13,-0.489 0.123,-0.454 0.12,-0.411L0.123,-0.411ZM0.132,-0.249C0.132,-0.224 0.135,-0.199 0.14,-0.176C0.145,-0.153 0.154,-0.132 0.165,-0.115C0.175,-0.097 0.19,-0.083 0.207,-0.073C0.224,-0.063 0.245,-0.058 0.268,-0.058C0.314,-0.058 0.348,-0.075 0.371,-0.108C0.393,-0.14 0.404,-0.189 0.404,-0.254C0.404,-0.279 0.402,-0.303 0.397,-0.324C0.392,-0.345 0.385,-0.364 0.375,-0.38C0.365,-0.395 0.352,-0.407 0.337,-0.416C0.322,-0.424 0.303,-0.428 0.282,-0.428C0.23,-0.429 0.192,-0.413 0.168,-0.383C0.144,-0.352 0.132,-0.307 0.132,-0.249Z" style="fill-rule:nonzero;"/>
            </g>
            <g transform="matrix(44,0,0,44,1625.2,586.248)">
                <path d="M0.049,-0.25C0.049,-0.335 0.068,-0.4 0.106,-0.445C0.143,-0.49 0.197,-0.512 0.268,-0.512C0.305,-0.512 0.338,-0.506 0.366,-0.494C0.393,-0.481 0.416,-0.464 0.434,-0.441C0.452,-0.418 0.465,-0.39 0.474,-0.358C0.483,-0.325 0.487,-0.289 0.487,-0.25C0.487,-0.165 0.468,-0.1 0.431,-0.056C0.393,-0.011 0.339,0.012 0.268,0.012C0.231,0.012 0.198,0.006 0.171,-0.007C0.143,-0.019 0.12,-0.037 0.102,-0.06C0.084,-0.083 0.071,-0.11 0.062,-0.143C0.053,-0.175 0.049,-0.211 0.049,-0.25ZM0.132,-0.25C0.132,-0.225 0.135,-0.2 0.14,-0.177C0.145,-0.154 0.152,-0.133 0.163,-0.116C0.174,-0.099 0.188,-0.085 0.205,-0.074C0.222,-0.063 0.243,-0.058 0.268,-0.058C0.359,-0.057 0.404,-0.121 0.404,-0.25C0.404,-0.276 0.402,-0.301 0.397,-0.324C0.392,-0.347 0.384,-0.368 0.373,-0.385C0.362,-0.402 0.348,-0.416 0.331,-0.427C0.314,-0.437 0.293,-0.442 0.268,-0.442C0.177,-0.443 0.132,-0.379 0.132,-0.25Z" style="fill-rule:nonzero;"/>
            </g>
            <g transform="matrix(44,0,0,44,1648.78,586.248)">
                <path d="M0.346,-0.43L0.201,-0.43C0.199,-0.402 0.197,-0.372 0.195,-0.34C0.193,-0.307 0.19,-0.275 0.186,-0.243C0.182,-0.21 0.177,-0.179 0.17,-0.15C0.163,-0.12 0.155,-0.094 0.145,-0.071C0.134,-0.048 0.122,-0.03 0.107,-0.017C0.092,-0.003 0.074,0.004 0.053,0.004C0.04,0.004 0.029,0.003 0.02,0.002C0.011,0.001 0.002,-0.002 -0.005,-0.005L0.007,-0.072C0.015,-0.069 0.024,-0.068 0.033,-0.068C0.046,-0.068 0.058,-0.074 0.069,-0.085C0.08,-0.096 0.089,-0.118 0.097,-0.15C0.105,-0.181 0.112,-0.225 0.117,-0.281C0.122,-0.337 0.126,-0.41 0.128,-0.5L0.426,-0.5L0.426,-0L0.346,-0L0.346,-0.43Z" style="fill-rule:nonzero;"/>
            </g>
            <g transform="matrix(44,0,0,44,1670.91,586.248)">
                <path d="M0.049,-0.25C0.049,-0.335 0.068,-0.4 0.106,-0.445C0.143,-0.49 0.197,-0.512 0.268,-0.512C0.305,-0.512 0.338,-0.506 0.366,-0.494C0.393,-0.481 0.416,-0.464 0.434,-0.441C0.452,-0.418 0.465,-0.39 0.474,-0.358C0.483,-0.325 0.487,-0.289 0.487,-0.25C0.487,-0.165 0.468,-0.1 0.431,-0.056C0.393,-0.011 0.339,0.012 0.268,0.012C0.231,0.012 0.198,0.006 0.171,-0.007C0.143,-0.019 0.12,-0.037 0.102,-0.06C0.084,-0.083 0.071,-0.11 0.062,-0.143C0.053,-0.175 0.049,-0.211 0.049,-0.25ZM0.132,-0.25C0.132,-0.225 0.135,-0.2 0.14,-0.177C0.145,-0.154 0.152,-0.133 0.163,-0.116C0.174,-0.099 0.188,-0.085 0.205,-0.074C0.222,-0.063 0.243,-0.058 0.268,-0.058C0.359,-0.057 0.404,-0.121 0.404,-0.25C0.404,-0.276 0.402,-0.301 0.397,-0.324C0.392,-0.347 0.384,-0.368 0.373,-0.385C0.362,-0.402 0.348,-0.416 0.331,-0.427C0.314,-0.437 0.293,-0.442 0.268,-0.442C0.177,-0.443 0.132,-0.379 0.132,-0.25Z" style="fill-rule:nonzero;"/>
            </g>
            <g transform="matrix(44,0,0,44,1694.5,586.248)">
                <path d="M0.129,-0.5L0.129,-0.364C0.129,-0.346 0.13,-0.33 0.132,-0.316C0.134,-0.301 0.138,-0.289 0.144,-0.279C0.15,-0.268 0.159,-0.26 0.17,-0.255C0.181,-0.249 0.196,-0.246 0.215,-0.246C0.245,-0.246 0.27,-0.249 0.289,-0.256C0.308,-0.263 0.323,-0.27 0.333,-0.278L0.333,-0.5L0.413,-0.5L0.413,-0L0.333,-0L0.333,-0.21C0.322,-0.203 0.307,-0.196 0.286,-0.188C0.265,-0.18 0.236,-0.176 0.199,-0.176C0.174,-0.176 0.153,-0.179 0.134,-0.184C0.115,-0.189 0.1,-0.199 0.087,-0.212C0.074,-0.225 0.065,-0.243 0.059,-0.265C0.052,-0.287 0.049,-0.315 0.049,-0.348L0.049,-0.5L0.129,-0.5Z" style="fill-rule:nonzero;"/>
            </g>
            <g transform="matrix(44,0,0,44,1716.06,586.248)">
                <path d="M0.203,-0.225L0.157,-0.225L0.157,-0L0.077,-0L0.077,-0.5L0.157,-0.5L0.157,-0.274L0.2,-0.288L0.36,-0.5L0.447,-0.5L0.292,-0.299L0.25,-0.266L0.302,-0.226L0.469,-0L0.37,-0L0.203,-0.225Z" style="fill-rule:nonzero;"/>
            </g>
            <g transform="matrix(44,0,0,44,1737.09,586.248)">
                <path d="M0.069,-0.463C0.094,-0.478 0.124,-0.49 0.158,-0.497C0.191,-0.504 0.226,-0.508 0.263,-0.508C0.298,-0.508 0.326,-0.503 0.347,-0.494C0.368,-0.485 0.384,-0.472 0.395,-0.458C0.406,-0.443 0.413,-0.426 0.417,-0.408C0.42,-0.39 0.422,-0.372 0.422,-0.354C0.422,-0.314 0.421,-0.275 0.419,-0.237C0.417,-0.199 0.416,-0.163 0.416,-0.129C0.416,-0.104 0.417,-0.081 0.419,-0.059C0.421,-0.037 0.425,-0.017 0.43,0.002L0.371,0.002L0.35,-0.068L0.345,-0.068C0.339,-0.059 0.332,-0.049 0.323,-0.041C0.314,-0.032 0.303,-0.024 0.29,-0.017C0.277,-0.01 0.263,-0.004 0.246,0.001C0.229,0.006 0.21,0.008 0.189,0.008C0.168,0.008 0.148,0.005 0.13,-0.002C0.111,-0.009 0.095,-0.018 0.082,-0.031C0.069,-0.043 0.058,-0.058 0.051,-0.075C0.043,-0.092 0.039,-0.112 0.039,-0.134C0.039,-0.163 0.045,-0.188 0.057,-0.208C0.069,-0.227 0.086,-0.243 0.108,-0.255C0.129,-0.266 0.155,-0.275 0.186,-0.28C0.216,-0.285 0.249,-0.287 0.286,-0.287L0.314,-0.287C0.323,-0.287 0.332,-0.286 0.341,-0.285C0.343,-0.305 0.344,-0.323 0.344,-0.339C0.344,-0.376 0.337,-0.401 0.322,-0.416C0.307,-0.431 0.281,-0.438 0.242,-0.438C0.231,-0.438 0.219,-0.437 0.206,-0.436C0.193,-0.434 0.179,-0.432 0.166,-0.429C0.152,-0.426 0.139,-0.422 0.127,-0.418C0.114,-0.413 0.103,-0.408 0.094,-0.403L0.069,-0.463ZM0.211,-0.062C0.23,-0.062 0.246,-0.065 0.261,-0.07C0.276,-0.075 0.288,-0.081 0.299,-0.089C0.31,-0.096 0.319,-0.105 0.326,-0.114C0.333,-0.123 0.338,-0.132 0.341,-0.141L0.341,-0.224C0.332,-0.225 0.322,-0.225 0.313,-0.226C0.303,-0.226 0.293,-0.226 0.284,-0.226C0.263,-0.226 0.243,-0.225 0.224,-0.223C0.204,-0.22 0.187,-0.216 0.172,-0.21C0.157,-0.203 0.145,-0.195 0.136,-0.184C0.127,-0.173 0.122,-0.159 0.122,-0.142C0.122,-0.119 0.13,-0.099 0.147,-0.085C0.164,-0.07 0.185,-0.062 0.211,-0.062Z" style="fill-rule:nonzero;"/>
            </g>
        </g>
        <path d="M85.111,148.872C86.226,148.608 87.429,148.432 88.719,148.344C90.01,148.256 91.286,148.212 92.547,148.212C93.897,148.212 95.268,148.344 96.661,148.608C98.055,148.872 99.323,149.356 100.467,150.06C101.611,150.764 102.543,151.732 103.261,152.964C103.98,154.196 104.339,155.766 104.339,157.672C104.339,159.55 104.002,161.134 103.327,162.424C102.653,163.715 101.758,164.764 100.643,165.57C99.529,166.377 98.253,166.956 96.815,167.308C95.378,167.66 93.897,167.836 92.371,167.836L91.645,167.836C91.308,167.836 90.956,167.829 90.589,167.814C90.223,167.8 89.863,167.778 89.511,167.748C89.159,167.719 88.91,167.69 88.763,167.66L88.763,179.364L85.111,179.364L85.111,148.872ZM92.635,151.38C91.873,151.38 91.139,151.395 90.435,151.424C89.731,151.454 89.174,151.527 88.763,151.644L88.763,164.404C88.91,164.463 89.145,164.5 89.467,164.514C89.79,164.529 90.127,164.544 90.479,164.558C90.831,164.573 91.169,164.58 91.491,164.58L92.195,164.58C93.193,164.58 94.183,164.485 95.165,164.294C96.148,164.104 97.035,163.759 97.827,163.26C98.619,162.762 99.257,162.058 99.741,161.148C100.225,160.239 100.467,159.08 100.467,157.672C100.467,156.47 100.24,155.465 99.785,154.658C99.331,153.852 98.729,153.206 97.981,152.722C97.233,152.238 96.39,151.894 95.451,151.688C94.513,151.483 93.574,151.38 92.635,151.38Z" style="fill-rule:nonzero;"/>
        <path d="M125.415,177.604C124.535,178.308 123.428,178.866 122.093,179.276C120.759,179.687 119.343,179.892 117.847,179.892C116.175,179.892 114.723,179.621 113.491,179.078C112.259,178.536 111.247,177.758 110.455,176.746C109.663,175.734 109.077,174.524 108.695,173.116C108.314,171.708 108.123,170.124 108.123,168.364C108.123,164.61 108.959,161.75 110.631,159.784C112.303,157.819 114.694,156.836 117.803,156.836C118.801,156.836 119.798,156.946 120.795,157.166C121.793,157.386 122.687,157.804 123.479,158.42C124.271,159.036 124.917,159.909 125.415,161.038C125.914,162.168 126.163,163.656 126.163,165.504C126.163,166.472 126.075,167.543 125.899,168.716L111.775,168.716C111.775,170.007 111.907,171.151 112.171,172.148C112.435,173.146 112.846,173.989 113.403,174.678C113.961,175.368 114.687,175.896 115.581,176.262C116.476,176.629 117.569,176.812 118.859,176.812C119.857,176.812 120.854,176.636 121.851,176.284C122.849,175.932 123.597,175.522 124.095,175.052L125.415,177.604ZM117.847,159.916C116.117,159.916 114.731,160.371 113.689,161.28C112.648,162.19 112.025,163.744 111.819,165.944L122.731,165.944C122.731,163.715 122.306,162.153 121.455,161.258C120.605,160.364 119.402,159.916 117.847,159.916Z" style="fill-rule:nonzero;"/>
        <path d="M133.731,161.28C134.699,159.872 135.77,158.882 136.943,158.31C138.117,157.738 139.583,157.452 141.343,157.452C144.042,157.452 146.117,158.332 147.569,160.092C149.021,161.852 149.747,164.448 149.747,167.88C149.747,171.84 148.904,174.832 147.217,176.856C145.531,178.88 143.177,179.892 140.155,179.892C136.929,179.892 134.509,178.778 132.895,176.548C131.282,174.319 130.475,170.814 130.475,166.032C130.475,163.51 130.6,161.354 130.849,159.564C131.099,157.775 131.465,156.264 131.949,155.032C132.433,153.8 133.02,152.818 133.709,152.084C134.399,151.351 135.176,150.772 136.041,150.346C136.907,149.921 137.853,149.62 138.879,149.444C139.906,149.268 141.006,149.122 142.179,149.004C143.705,148.858 144.9,148.689 145.765,148.498C146.631,148.308 147.327,147.963 147.855,147.464L148.251,150.632C147.958,150.896 147.635,151.116 147.283,151.292C146.931,151.468 146.506,151.615 146.007,151.732C145.509,151.85 144.915,151.952 144.225,152.04C143.536,152.128 142.737,152.202 141.827,152.26C140.566,152.348 139.459,152.502 138.505,152.722C137.552,152.942 136.731,153.368 136.041,153.998C135.352,154.629 134.809,155.524 134.413,156.682C134.017,157.841 133.746,159.374 133.599,161.28L133.731,161.28ZM134.127,168.408C134.127,169.523 134.245,170.594 134.479,171.62C134.714,172.647 135.073,173.549 135.557,174.326C136.041,175.104 136.665,175.712 137.427,176.152C138.19,176.592 139.085,176.812 140.111,176.812C142.135,176.812 143.639,176.086 144.621,174.634C145.604,173.182 146.095,171.034 146.095,168.188C146.095,167.074 145.993,166.047 145.787,165.108C145.582,164.17 145.259,163.356 144.819,162.666C144.379,161.977 143.822,161.449 143.147,161.082C142.473,160.716 141.666,160.532 140.727,160.532C138.439,160.503 136.767,161.17 135.711,162.534C134.655,163.898 134.127,165.856 134.127,168.408Z" style="fill-rule:nonzero;"/>
        <path d="M155.291,157.364L157.711,157.364L158.371,160.004L158.547,160.004C159.222,158.978 160.095,158.193 161.165,157.65C162.236,157.108 163.461,156.836 164.839,156.836C167.773,156.836 169.958,157.702 171.395,159.432C172.833,161.163 173.551,163.994 173.551,167.924C173.551,169.772 173.309,171.437 172.825,172.918C172.341,174.4 171.659,175.654 170.779,176.68C169.899,177.707 168.836,178.499 167.589,179.056C166.343,179.614 164.957,179.892 163.431,179.892C162.346,179.892 161.488,179.826 160.857,179.694C160.227,179.562 159.545,179.335 158.811,179.012L158.811,188.164L155.291,188.164L155.291,157.364ZM164.179,159.916C162.683,159.916 161.503,160.305 160.637,161.082C159.772,161.86 159.163,163.04 158.811,164.624L158.811,175.536C159.339,175.947 159.941,176.262 160.615,176.482C161.29,176.702 162.185,176.812 163.299,176.812C165.323,176.812 166.929,176.057 168.117,174.546C169.305,173.036 169.899,170.814 169.899,167.88C169.899,166.678 169.797,165.585 169.591,164.602C169.386,163.62 169.056,162.784 168.601,162.094C168.147,161.405 167.56,160.87 166.841,160.488C166.123,160.107 165.235,159.916 164.179,159.916Z" style="fill-rule:nonzero;"/>
        <path d="M177.863,168.364C177.863,164.639 178.692,161.786 180.349,159.806C182.007,157.826 184.39,156.836 187.499,156.836C189.142,156.836 190.572,157.108 191.789,157.65C193.007,158.193 194.011,158.97 194.803,159.982C195.595,160.994 196.182,162.212 196.563,163.634C196.945,165.057 197.135,166.634 197.135,168.364C197.135,172.09 196.307,174.942 194.649,176.922C192.992,178.902 190.609,179.892 187.499,179.892C185.857,179.892 184.427,179.621 183.209,179.078C181.992,178.536 180.987,177.758 180.195,176.746C179.403,175.734 178.817,174.517 178.435,173.094C178.054,171.672 177.863,170.095 177.863,168.364ZM181.515,168.364C181.515,169.479 181.625,170.55 181.845,171.576C182.065,172.603 182.41,173.498 182.879,174.26C183.349,175.023 183.965,175.639 184.727,176.108C185.49,176.578 186.414,176.812 187.499,176.812C191.489,176.842 193.483,174.026 193.483,168.364C193.483,167.22 193.373,166.135 193.153,165.108C192.933,164.082 192.589,163.187 192.119,162.424C191.65,161.662 191.034,161.053 190.271,160.598C189.509,160.144 188.585,159.916 187.499,159.916C183.51,159.887 181.515,162.703 181.515,168.364Z" style="fill-rule:nonzero;"/>
        <path d="M42.015,37.202C42.015,37.935 41.898,38.683 41.663,39.446C41.429,40.209 41.077,40.92 40.607,41.58C40.138,42.24 39.537,42.819 38.803,43.318C38.07,43.817 37.205,44.198 36.207,44.462L36.207,44.638C37.087,44.785 37.931,45.034 38.737,45.386C39.544,45.738 40.255,46.222 40.871,46.838C41.487,47.454 41.986,48.202 42.367,49.082C42.749,49.962 42.939,51.003 42.939,52.206C42.939,53.79 42.609,55.161 41.949,56.32C41.289,57.479 40.424,58.425 39.353,59.158C38.283,59.891 37.058,60.434 35.679,60.786C34.301,61.138 32.893,61.314 31.455,61.314L29.695,61.314C29.021,61.314 28.317,61.292 27.583,61.248C26.85,61.204 26.117,61.145 25.383,61.072C24.65,60.999 24.005,60.889 23.447,60.742L23.447,30.426C24.533,30.25 25.794,30.103 27.231,29.986C28.669,29.869 30.238,29.81 31.939,29.81C33.083,29.81 34.249,29.905 35.437,30.096C36.625,30.287 37.703,30.653 38.671,31.196C39.639,31.739 40.439,32.494 41.069,33.462C41.7,34.43 42.015,35.677 42.015,37.202ZM31.807,58.146C32.746,58.146 33.655,58.036 34.535,57.816C35.415,57.596 36.193,57.244 36.867,56.76C37.542,56.276 38.077,55.682 38.473,54.978C38.869,54.274 39.067,53.438 39.067,52.47C39.067,51.267 38.825,50.299 38.341,49.566C37.857,48.833 37.227,48.261 36.449,47.85C35.672,47.439 34.799,47.161 33.831,47.014C32.863,46.867 31.895,46.794 30.927,46.794L27.099,46.794L27.099,57.838C27.305,57.897 27.598,57.941 27.979,57.97C28.361,57.999 28.771,58.029 29.211,58.058C29.651,58.087 30.106,58.109 30.575,58.124C31.045,58.139 31.455,58.146 31.807,58.146ZM29.387,43.714C29.886,43.714 30.487,43.699 31.191,43.67C31.895,43.641 32.482,43.597 32.951,43.538C33.655,43.303 34.315,43.017 34.931,42.68C35.547,42.343 36.097,41.947 36.581,41.492C37.065,41.037 37.447,40.509 37.725,39.908C38.004,39.307 38.143,38.654 38.143,37.95C38.143,36.982 37.96,36.183 37.593,35.552C37.227,34.921 36.735,34.415 36.119,34.034C35.503,33.653 34.799,33.381 34.007,33.22C33.215,33.059 32.409,32.978 31.587,32.978C30.619,32.978 29.732,33 28.925,33.044C28.119,33.088 27.51,33.154 27.099,33.242L27.099,43.714L29.387,43.714Z" style="fill-rule:nonzero;"/>
        <path d="M64.851,59.202C63.971,59.906 62.864,60.463 61.529,60.874C60.195,61.285 58.779,61.49 57.283,61.49C55.611,61.49 54.159,61.219 52.927,60.676C51.695,60.133 50.683,59.356 49.891,58.344C49.099,57.332 48.513,56.122 48.131,54.714C47.75,53.306 47.559,51.722 47.559,49.962C47.559,46.207 48.395,43.347 50.067,41.382C51.739,39.417 54.13,38.434 57.239,38.434C58.237,38.434 59.234,38.544 60.231,38.764C61.229,38.984 62.123,39.402 62.915,40.018C63.707,40.634 64.353,41.507 64.851,42.636C65.35,43.765 65.599,45.254 65.599,47.102C65.599,48.07 65.511,49.141 65.335,50.314L51.211,50.314C51.211,51.605 51.343,52.749 51.607,53.746C51.871,54.743 52.282,55.587 52.839,56.276C53.397,56.965 54.123,57.493 55.017,57.86C55.912,58.227 57.005,58.41 58.295,58.41C59.293,58.41 60.29,58.234 61.287,57.882C62.285,57.53 63.033,57.119 63.531,56.65L64.851,59.202ZM57.283,41.514C55.553,41.514 54.167,41.969 53.125,42.878C52.084,43.787 51.461,45.342 51.255,47.542L62.167,47.542C62.167,45.313 61.742,43.751 60.891,42.856C60.041,41.961 58.838,41.514 57.283,41.514Z" style="fill-rule:nonzero;"/>
        <path d="M71.143,38.962L73.563,38.962L74.223,41.602L74.399,41.602C75.074,40.575 75.947,39.791 77.017,39.248C78.088,38.705 79.313,38.434 80.691,38.434C83.625,38.434 85.81,39.299 87.247,41.03C88.685,42.761 89.403,45.591 89.403,49.522C89.403,51.37 89.161,53.035 88.677,54.516C88.193,55.997 87.511,57.251 86.631,58.278C85.751,59.305 84.688,60.097 83.441,60.654C82.195,61.211 80.809,61.49 79.283,61.49C78.198,61.49 77.34,61.424 76.709,61.292C76.079,61.16 75.397,60.933 74.663,60.61L74.663,69.762L71.143,69.762L71.143,38.962ZM80.031,41.514C78.535,41.514 77.355,41.903 76.489,42.68C75.624,43.457 75.015,44.638 74.663,46.222L74.663,57.134C75.191,57.545 75.793,57.86 76.467,58.08C77.142,58.3 78.037,58.41 79.151,58.41C81.175,58.41 82.781,57.655 83.969,56.144C85.157,54.633 85.751,52.411 85.751,49.478C85.751,48.275 85.649,47.183 85.443,46.2C85.238,45.217 84.908,44.381 84.453,43.692C83.999,43.003 83.412,42.467 82.693,42.086C81.975,41.705 81.087,41.514 80.031,41.514Z" style="fill-rule:nonzero;"/>
        <path d="M94.947,60.962L94.947,38.962L98.467,38.962L98.467,57.882L105.991,57.882L105.991,38.962L109.511,38.962L109.511,57.882L117.035,57.882L117.035,38.962L120.555,38.962L120.555,60.962L94.947,60.962Z" style="fill-rule:nonzero;"/>
        <path d="M141.059,47.938L141.191,45.21L141.059,45.21L139.255,48.026L129.355,60.962L127.331,60.962L127.331,38.962L130.851,38.962L130.851,52.382L130.719,54.978L130.895,54.978L132.611,52.25L142.511,38.962L144.579,38.962L144.579,60.962L141.059,60.962L141.059,47.938Z" style="fill-rule:nonzero;"/>
        <path d="M164.819,51.238L154.875,51.238L154.875,60.962L151.355,60.962L151.355,38.962L154.875,38.962L154.875,48.158L164.819,48.158L164.819,38.962L168.339,38.962L168.339,60.962L164.819,60.962L164.819,51.238Z" style="fill-rule:nonzero;"/>
        <path d="M174.763,40.59C175.878,39.915 177.176,39.417 178.657,39.094C180.139,38.771 181.686,38.61 183.299,38.61C184.825,38.61 186.049,38.815 186.973,39.226C187.897,39.637 188.601,40.172 189.085,40.832C189.569,41.492 189.892,42.218 190.053,43.01C190.215,43.802 190.295,44.594 190.295,45.386C190.295,47.146 190.251,48.862 190.163,50.534C190.075,52.206 190.031,53.79 190.031,55.286C190.031,56.371 190.075,57.398 190.163,58.366C190.251,59.334 190.413,60.229 190.647,61.05L188.051,61.05L187.127,57.97L186.907,57.97C186.643,58.381 186.313,58.784 185.917,59.18C185.521,59.576 185.045,59.928 184.487,60.236C183.93,60.544 183.285,60.801 182.551,61.006C181.818,61.211 180.982,61.314 180.043,61.314C179.105,61.314 178.232,61.167 177.425,60.874C176.619,60.581 175.922,60.163 175.335,59.62C174.749,59.077 174.287,58.425 173.949,57.662C173.612,56.899 173.443,56.034 173.443,55.066C173.443,53.775 173.707,52.697 174.235,51.832C174.763,50.967 175.504,50.277 176.457,49.764C177.411,49.251 178.555,48.884 179.889,48.664C181.224,48.444 182.698,48.334 184.311,48.334L185.521,48.334C185.917,48.334 186.321,48.363 186.731,48.422C186.819,47.542 186.863,46.75 186.863,46.046C186.863,44.433 186.541,43.303 185.895,42.658C185.25,42.013 184.077,41.69 182.375,41.69C181.877,41.69 181.341,41.727 180.769,41.8C180.197,41.873 179.611,41.976 179.009,42.108C178.408,42.24 177.836,42.401 177.293,42.592C176.751,42.783 176.274,42.995 175.863,43.23L174.763,40.59ZM181.011,58.234C181.833,58.234 182.566,58.124 183.211,57.904C183.857,57.684 184.414,57.405 184.883,57.068C185.353,56.731 185.741,56.357 186.049,55.946C186.357,55.535 186.585,55.139 186.731,54.758L186.731,51.106C186.321,51.077 185.903,51.055 185.477,51.04C185.052,51.025 184.634,51.018 184.223,51.018C183.314,51.018 182.427,51.069 181.561,51.172C180.696,51.275 179.933,51.465 179.273,51.744C178.613,52.023 178.085,52.404 177.689,52.888C177.293,53.372 177.095,53.981 177.095,54.714C177.095,55.741 177.462,56.584 178.195,57.244C178.929,57.904 179.867,58.234 181.011,58.234Z" style="fill-rule:nonzero;"/>
        <path d="M104.172,231.262L91.324,231.262L91.324,258.806L87.672,258.806L87.672,228.006L104.172,228.006L104.172,231.262Z" style="fill-rule:nonzero;"/>
        <path d="M101.928,236.806L104.348,236.806L105.008,239.446L105.184,239.446C105.859,238.419 106.731,237.635 107.802,237.092C108.873,236.549 110.097,236.278 111.476,236.278C114.409,236.278 116.595,237.143 118.032,238.874C119.469,240.605 120.188,243.435 120.188,247.366C120.188,249.214 119.946,250.879 119.462,252.36C118.978,253.841 118.296,255.095 117.416,256.122C116.536,257.149 115.473,257.941 114.226,258.498C112.979,259.055 111.593,259.334 110.068,259.334C108.983,259.334 108.125,259.268 107.494,259.136C106.863,259.004 106.181,258.777 105.448,258.454L105.448,267.606L101.928,267.606L101.928,236.806ZM110.816,239.358C109.32,239.358 108.139,239.747 107.274,240.524C106.409,241.301 105.8,242.482 105.448,244.066L105.448,254.978C105.976,255.389 106.577,255.704 107.252,255.924C107.927,256.144 108.821,256.254 109.936,256.254C111.96,256.254 113.566,255.499 114.754,253.988C115.942,252.477 116.536,250.255 116.536,247.322C116.536,246.119 116.433,245.027 116.228,244.044C116.023,243.061 115.693,242.225 115.238,241.536C114.783,240.847 114.197,240.311 113.478,239.93C112.759,239.549 111.872,239.358 110.816,239.358Z" style="fill-rule:nonzero;"/>
        <path d="M125.38,238.434C126.495,237.759 127.793,237.261 129.274,236.938C130.755,236.615 132.303,236.454 133.916,236.454C135.441,236.454 136.666,236.659 137.59,237.07C138.514,237.481 139.218,238.016 139.702,238.676C140.186,239.336 140.509,240.062 140.67,240.854C140.831,241.646 140.912,242.438 140.912,243.23C140.912,244.99 140.868,246.706 140.78,248.378C140.692,250.05 140.648,251.634 140.648,253.13C140.648,254.215 140.692,255.242 140.78,256.21C140.868,257.178 141.029,258.073 141.264,258.894L138.668,258.894L137.744,255.814L137.524,255.814C137.26,256.225 136.93,256.628 136.534,257.024C136.138,257.42 135.661,257.772 135.104,258.08C134.547,258.388 133.901,258.645 133.168,258.85C132.435,259.055 131.599,259.158 130.66,259.158C129.721,259.158 128.849,259.011 128.042,258.718C127.235,258.425 126.539,258.007 125.952,257.464C125.365,256.921 124.903,256.269 124.566,255.506C124.229,254.743 124.06,253.878 124.06,252.91C124.06,251.619 124.324,250.541 124.852,249.676C125.38,248.811 126.121,248.121 127.074,247.608C128.027,247.095 129.171,246.728 130.506,246.508C131.841,246.288 133.315,246.178 134.928,246.178L136.138,246.178C136.534,246.178 136.937,246.207 137.348,246.266C137.436,245.386 137.48,244.594 137.48,243.89C137.48,242.277 137.157,241.147 136.512,240.502C135.867,239.857 134.693,239.534 132.992,239.534C132.493,239.534 131.958,239.571 131.386,239.644C130.814,239.717 130.227,239.82 129.626,239.952C129.025,240.084 128.453,240.245 127.91,240.436C127.367,240.627 126.891,240.839 126.48,241.074L125.38,238.434ZM131.628,256.078C132.449,256.078 133.183,255.968 133.828,255.748C134.473,255.528 135.031,255.249 135.5,254.912C135.969,254.575 136.358,254.201 136.666,253.79C136.974,253.379 137.201,252.983 137.348,252.602L137.348,248.95C136.937,248.921 136.519,248.899 136.094,248.884C135.669,248.869 135.251,248.862 134.84,248.862C133.931,248.862 133.043,248.913 132.178,249.016C131.313,249.119 130.55,249.309 129.89,249.588C129.23,249.867 128.702,250.248 128.306,250.732C127.91,251.216 127.712,251.825 127.712,252.558C127.712,253.585 128.079,254.428 128.812,255.088C129.545,255.748 130.484,256.078 131.628,256.078Z" style="fill-rule:nonzero;"/>
        <path d="M161.02,249.082L151.076,249.082L151.076,258.806L147.556,258.806L147.556,236.806L151.076,236.806L151.076,246.002L161.02,246.002L161.02,236.806L164.54,236.806L164.54,258.806L161.02,258.806L161.02,249.082Z" style="fill-rule:nonzero;"/>
        <path d="M174.836,255.726C175.921,255.902 176.963,255.99 177.96,255.99C179.808,255.99 181.172,255.631 182.052,254.912C182.932,254.193 183.372,253.174 183.372,251.854C183.372,250.681 182.947,249.713 182.096,248.95C181.245,248.187 179.911,247.806 178.092,247.806C177.593,247.806 177.051,247.821 176.464,247.85C175.877,247.879 175.335,247.967 174.836,248.114L174.836,255.726ZM174.836,245.21C175.54,245.093 176.215,245.012 176.86,244.968C177.505,244.924 178.121,244.902 178.708,244.902C180.233,244.902 181.524,245.071 182.58,245.408C183.636,245.745 184.494,246.207 185.154,246.794C185.814,247.381 186.291,248.077 186.584,248.884C186.877,249.691 187.024,250.549 187.024,251.458C187.024,254.127 186.225,256.063 184.626,257.266C183.027,258.469 180.541,259.07 177.168,259.07C175.291,259.07 173.34,258.982 171.316,258.806L171.316,236.806L174.836,236.806L174.836,245.21Z" style="fill-rule:nonzero;"/>
        <path d="M612.896,54.248C614.576,53.928 616.426,53.678 618.446,53.498C620.466,53.318 622.476,53.228 624.476,53.228C626.556,53.228 628.646,53.398 630.746,53.738C632.846,54.078 634.736,54.758 636.416,55.778C638.096,56.798 639.466,58.218 640.526,60.038C641.586,61.858 642.116,64.228 642.116,67.148C642.116,69.788 641.656,72.018 640.736,73.838C639.816,75.658 638.596,77.148 637.076,78.308C635.556,79.468 633.826,80.308 631.886,80.828C629.946,81.348 627.936,81.608 625.856,81.608L624.896,81.608C624.456,81.608 623.996,81.598 623.516,81.578C623.036,81.558 622.566,81.528 622.106,81.488C621.646,81.448 621.316,81.408 621.116,81.368L621.116,95.828L612.896,95.828L612.896,54.248ZM625.136,60.308C624.336,60.308 623.576,60.338 622.856,60.398C622.136,60.458 621.556,60.528 621.116,60.608L621.116,74.228C621.276,74.268 621.516,74.308 621.836,74.348C622.156,74.388 622.496,74.418 622.856,74.438C623.216,74.458 623.566,74.468 623.906,74.468L624.656,74.468C625.736,74.468 626.806,74.368 627.866,74.168C628.926,73.968 629.876,73.598 630.716,73.058C631.556,72.518 632.226,71.768 632.726,70.808C633.226,69.848 633.476,68.588 633.476,67.028C633.476,65.708 633.236,64.618 632.756,63.758C632.276,62.898 631.646,62.208 630.866,61.688C630.086,61.168 629.196,60.808 628.196,60.608C627.196,60.408 626.176,60.308 625.136,60.308Z" style="fill-rule:nonzero;"/>
    </g>
</svg>
