<?xml version="1.0" encoding="UTF-8" standalone="no"?>
<!DOCTYPE svg PUBLIC "-//W3C//DTD SVG 1.1//EN" "http://www.w3.org/Graphics/SVG/1.1/DTD/svg11.dtd">
<svg width="100%" height="100%" viewBox="0 0 662 520" version="1.1" xmlns="http://www.w3.org/2000/svg" xmlns:xlink="http://www.w3.org/1999/xlink" xml:space="preserve" xmlns:serif="http://www.serif.com/" style="fill-rule:evenodd;clip-rule:evenodd;stroke-linecap:round;stroke-linejoin:round;stroke-miterlimit:10;">
    <g transform="matrix(1,0,0,1,-161,-2048)">
        <rect id="TIN-details" serif:id="TIN details" x="4" y="1978" width="1456" height="1086" style="fill:none;"/>
        <g id="TIN-details1" serif:id="TIN details">
            <path id="Outline" d="M704.486,2152.85L767.557,2229.66L783.728,2321.84L759.471,2438.28L699.635,2475.48L571.069,2486.8L507.999,2445.56L465.952,2321.84L490.21,2176.3L587.241,2144.76L704.486,2152.85Z" style="fill:url(#_Radial1);stroke:black;stroke-width:8px;"/>
            <path id="Outline1" serif:id="Outline" d="M704.486,2152.85L767.557,2229.66L783.728,2321.84L759.471,2438.28L699.635,2475.48L571.069,2486.8L507.999,2445.56L465.952,2321.84L490.21,2176.3L587.241,2144.76L704.486,2152.85Z" style="fill:none;stroke:black;stroke-width:8px;"/>
            <g id="TIN" transform="matrix(0.869743,0,0,0.550305,-722.283,700.778)">
                <g transform="matrix(0.916955,0,0,-1.44923,1164.98,4260.23)">
                    <path d="M351.236,700.181L387.736,791.431L421.194,726.542L351.236,700.181Z" style="fill:none;stroke:rgb(35,35,35);stroke-width:6.27px;stroke-linecap:square;stroke-linejoin:bevel;"/>
                </g>
                <g transform="matrix(0.916955,0,0,-1.44923,1164.98,4226.43)">
                    <path d="M421.194,703.222L482.028,777.236L512.444,691.056L421.194,703.222Z" style="fill:none;stroke:rgb(35,35,35);stroke-width:6.27px;stroke-linecap:square;stroke-linejoin:bevel;"/>
                </g>
                <g transform="matrix(0.916955,0,0,-1.44923,1164.98,4260.23)">
                    <path d="M272.153,751.889L387.736,791.431L351.236,700.181L272.153,751.889Z" style="fill:none;stroke:rgb(35,35,35);stroke-width:6.27px;stroke-linecap:square;stroke-linejoin:bevel;"/>
                </g>
                <g transform="matrix(0.916955,0,0,-1.44923,1164.98,4226.43)">
                    <path d="M482.028,777.236L587.472,737.694L512.444,691.056L482.028,777.236Z" style="fill:none;stroke:rgb(35,35,35);stroke-width:6.27px;stroke-linecap:square;stroke-linejoin:bevel;"/>
                </g>
                <g transform="matrix(0.916955,0,0,-1.44923,1164.98,4208.8)">
                    <path d="M387.736,755.944L482.028,765.069L421.194,691.056L387.736,755.944Z" style="fill:none;stroke:rgb(35,35,35);stroke-width:6.27px;stroke-linecap:square;stroke-linejoin:bevel;"/>
                </g>
                <g transform="matrix(0.916955,0,0,-1.44923,1164.98,4114.76)">
                    <path d="M482.028,700.181L558.069,730.597L587.472,660.639L482.028,700.181Z" style="fill:none;stroke:rgb(35,35,35);stroke-width:6.27px;stroke-linecap:square;stroke-linejoin:bevel;"/>
                </g>
                <g transform="matrix(0.916955,0,0,-1.44923,1164.98,4029.54)">
                    <path d="M499.264,691.056L558.069,671.792L482.028,641.375L499.264,691.056Z" style="fill:none;stroke:rgb(35,35,35);stroke-width:6.27px;stroke-linecap:square;stroke-linejoin:bevel;"/>
                </g>
                <g transform="matrix(0.916955,0,0,-1.44923,1164.98,4133.86)">
                    <path d="M266.069,739.722L387.736,704.236L272.153,664.694L266.069,739.722Z" style="fill:none;stroke:rgb(35,35,35);stroke-width:6.27px;stroke-linecap:square;stroke-linejoin:bevel;"/>
                </g>
                <g transform="matrix(0.916955,0,0,-1.44923,1164.98,4028.07)">
                    <path d="M421.194,700.181L482.028,640.361L387.736,631.236L421.194,700.181Z" style="fill:none;stroke:rgb(35,35,35);stroke-width:6.27px;stroke-linecap:square;stroke-linejoin:bevel;"/>
                </g>
                <g transform="matrix(0.916955,0,0,-1.44923,1164.98,4014.85)">
                    <path d="M421.194,691.056L499.264,680.917L482.028,631.236L421.194,691.056Z" style="fill:none;stroke:rgb(35,35,35);stroke-width:6.27px;stroke-linecap:square;stroke-linejoin:bevel;"/>
                </g>
                <g transform="matrix(0.916955,0,0,-1.44923,1164.98,3894.36)">
                    <path d="M421.194,607.917L472.903,641.375L499.264,597.778L421.194,607.917Z" style="fill:none;stroke:rgb(35,35,35);stroke-width:6.27px;stroke-linecap:square;stroke-linejoin:bevel;"/>
                </g>
                <g transform="matrix(0.916955,0,0,-1.44923,1164.98,3975.17)">
                    <path d="M266.069,630.222L338.056,700.181L387.736,594.736L266.069,630.222Z" style="fill:none;stroke:rgb(35,35,35);stroke-width:6.27px;stroke-linecap:square;stroke-linejoin:bevel;"/>
                </g>
                <g transform="matrix(0.916955,0,0,-1.44923,1164.98,3975.17)">
                    <path d="M338.056,700.181L421.194,663.681L387.736,594.736L338.056,700.181Z" style="fill:none;stroke:rgb(35,35,35);stroke-width:6.27px;stroke-linecap:square;stroke-linejoin:bevel;"/>
                </g>
                <g transform="matrix(0.916955,0,0,-1.44923,1164.98,4004.56)">
                    <path d="M617.889,730.597L587.472,584.597L558.069,654.556L617.889,730.597Z" style="fill:none;stroke:rgb(35,35,35);stroke-width:6.27px;stroke-linecap:square;stroke-linejoin:bevel;"/>
                </g>
                <g transform="matrix(0.916955,0,0,-1.44923,1164.98,3897.3)">
                    <path d="M499.264,599.806L542.861,660.639L558.069,580.542L499.264,599.806Z" style="fill:none;stroke:rgb(35,35,35);stroke-width:6.27px;stroke-linecap:square;stroke-linejoin:bevel;"/>
                </g>
                <g transform="matrix(0.916955,0,0,-1.44923,1164.98,3897.3)">
                    <path d="M542.861,660.639L617.889,656.583L558.069,580.542L542.861,660.639Z" style="fill:none;stroke:rgb(35,35,35);stroke-width:6.27px;stroke-linecap:square;stroke-linejoin:bevel;"/>
                </g>
                <g transform="matrix(0.916955,0,0,-1.44923,1164.98,3869.38)">
                    <path d="M472.903,624.139L542.861,641.375L499.264,580.542L472.903,624.139Z" style="fill:none;stroke:rgb(35,35,35);stroke-width:6.27px;stroke-linecap:square;stroke-linejoin:bevel;"/>
                </g>
                <g transform="matrix(0.916955,0,0,-1.44923,1164.98,3813.55)">
                    <path d="M421.194,552.153L437.417,631.236L472.903,585.611L421.194,552.153Z" style="fill:none;stroke:rgb(35,35,35);stroke-width:6.27px;stroke-linecap:square;stroke-linejoin:bevel;"/>
                </g>
                <g transform="matrix(0.916955,0,0,-1.44923,1164.98,3757.71)">
                    <path d="M501.292,597.778L542.861,564.319L472.903,547.083L501.292,597.778Z" style="fill:none;stroke:rgb(35,35,35);stroke-width:6.27px;stroke-linecap:square;stroke-linejoin:bevel;"/>
                </g>
                <g transform="matrix(0.916955,0,0,-1.44923,1164.98,3909.05)">
                    <path d="M219.431,664.694L338.056,654.556L266.069,584.597L219.431,664.694Z" style="fill:none;stroke:rgb(35,35,35);stroke-width:6.27px;stroke-linecap:square;stroke-linejoin:bevel;"/>
                </g>
                <g transform="matrix(0.916955,0,0,-1.44923,1164.98,3813.55)">
                    <path d="M338.056,588.653L437.417,631.236L421.194,552.153L338.056,588.653Z" style="fill:none;stroke:rgb(35,35,35);stroke-width:6.27px;stroke-linecap:square;stroke-linejoin:bevel;"/>
                </g>
                <g transform="matrix(0.916955,0,0,-1.44923,1164.98,3757.71)">
                    <path d="M437.417,592.708L501.292,597.778L472.903,547.083L437.417,592.708Z" style="fill:none;stroke:rgb(35,35,35);stroke-width:6.27px;stroke-linecap:square;stroke-linejoin:bevel;"/>
                </g>
                <g transform="matrix(0.916955,0,0,-1.44923,1164.98,4017.79)">
                    <path d="M272.153,584.597L219.431,739.722L266.069,659.625L272.153,584.597Z" style="fill:none;stroke:rgb(35,35,35);stroke-width:6.27px;stroke-linecap:square;stroke-linejoin:bevel;"/>
                </g>
                <g transform="matrix(0.916955,0,0,-1.44923,1164.98,3690.12)">
                    <path d="M346.167,594.736L437.417,546.069L338.056,503.486L346.167,594.736Z" style="fill:none;stroke:rgb(35,35,35);stroke-width:6.27px;stroke-linecap:square;stroke-linejoin:bevel;"/>
                </g>
                <g transform="matrix(0.916955,0,0,-1.44923,1164.98,3676.9)">
                    <path d="M263.028,594.736L338.056,494.361L219.431,504.5L263.028,594.736Z" style="fill:none;stroke:rgb(35,35,35);stroke-width:6.27px;stroke-linecap:square;stroke-linejoin:bevel;"/>
                </g>
                <g transform="matrix(0.916955,0,0,-1.44923,1164.98,3676.9)">
                    <path d="M263.028,594.736L346.167,585.611L338.056,494.361L263.028,594.736Z" style="fill:none;stroke:rgb(35,35,35);stroke-width:6.27px;stroke-linecap:square;stroke-linejoin:bevel;"/>
                </g>
                <g transform="matrix(0.916955,0,0,-1.44923,1164.98,3653.39)">
                    <path d="M510.417,580.542L542.861,492.333L501.292,525.792L510.417,580.542Z" style="fill:none;stroke:rgb(35,35,35);stroke-width:6.27px;stroke-linecap:square;stroke-linejoin:bevel;"/>
                </g>
                <g transform="matrix(0.916955,0,0,-1.44923,1164.98,3625.47)">
                    <path d="M542.861,473.069L597.611,584.597L617.889,469.014L542.861,473.069Z" style="fill:none;stroke:rgb(35,35,35);stroke-width:6.27px;stroke-linecap:square;stroke-linejoin:bevel;"/>
                </g>
                <g transform="matrix(0.916955,0,0,-1.44923,1164.98,3612.24)">
                    <path d="M437.417,492.333L510.417,552.153L501.292,497.403L437.417,492.333Z" style="fill:none;stroke:rgb(35,35,35);stroke-width:6.27px;stroke-linecap:square;stroke-linejoin:bevel;"/>
                </g>
                <g transform="matrix(0.916955,0,0,-1.44923,1164.98,3579.92)">
                    <path d="M346.167,518.694L421.194,552.153L437.417,470.028L346.167,518.694Z" style="fill:none;stroke:rgb(35,35,35);stroke-width:6.27px;stroke-linecap:square;stroke-linejoin:bevel;"/>
                </g>
                <g transform="matrix(0.916955,0,0,-1.44923,1164.98,3619.59)">
                    <path d="M510.417,557.222L597.611,580.542L542.861,469.014L510.417,557.222Z" style="fill:none;stroke:rgb(35,35,35);stroke-width:6.27px;stroke-linecap:square;stroke-linejoin:bevel;"/>
                </g>
                <g transform="matrix(0.916955,0,0,-1.44923,1164.98,3579.92)">
                    <path d="M421.194,552.153L510.417,529.847L437.417,470.028L421.194,552.153Z" style="fill:none;stroke:rgb(35,35,35);stroke-width:6.27px;stroke-linecap:square;stroke-linejoin:bevel;"/>
                </g>
                <g transform="matrix(0.916955,0,0,-1.44923,1164.98,3434.45)">
                    <path d="M263.028,427.444L328.931,503.486L346.167,418.319L263.028,427.444Z" style="fill:none;stroke:rgb(35,35,35);stroke-width:6.27px;stroke-linecap:square;stroke-linejoin:bevel;"/>
                </g>
                <g transform="matrix(0.916955,0,0,-1.44923,1164.98,3434.45)">
                    <path d="M328.931,503.486L421.194,451.778L346.167,418.319L328.931,503.486Z" style="fill:none;stroke:rgb(35,35,35);stroke-width:6.27px;stroke-linecap:square;stroke-linejoin:bevel;"/>
                </g>
                <g transform="matrix(0.916955,0,0,-1.44923,1164.98,3397.72)">
                    <path d="M249.847,494.361L328.931,478.139L263.028,402.097L249.847,494.361Z" style="fill:none;stroke:rgb(35,35,35);stroke-width:6.27px;stroke-linecap:square;stroke-linejoin:bevel;"/>
                </g>
                <g transform="matrix(0.916955,0,0,-1.44923,1164.98,3352.17)">
                    <path d="M518.528,492.333L597.611,396.014L510.417,372.694L518.528,492.333Z" style="fill:none;stroke:rgb(35,35,35);stroke-width:6.27px;stroke-linecap:square;stroke-linejoin:bevel;"/>
                </g>
                <g transform="matrix(0.916955,0,0,-1.44923,1164.98,3352.17)">
                    <path d="M421.194,395L518.528,492.333L510.417,372.694L421.194,395Z" style="fill:none;stroke:rgb(35,35,35);stroke-width:6.27px;stroke-linecap:square;stroke-linejoin:bevel;"/>
                </g>
                <g transform="matrix(0.916955,0,0,-1.44923,1164.98,3305.15)">
                    <path d="M371.514,470.028L421.194,362.556L328.931,414.264L371.514,470.028Z" style="fill:none;stroke:rgb(35,35,35);stroke-width:6.27px;stroke-linecap:square;stroke-linejoin:bevel;"/>
                </g>
                <g transform="matrix(0.916955,0,0,-1.44923,1164.98,3305.15)">
                    <path d="M371.514,470.028L518.528,459.889L421.194,362.556L371.514,470.028Z" style="fill:none;stroke:rgb(35,35,35);stroke-width:6.27px;stroke-linecap:square;stroke-linejoin:bevel;"/>
                </g>
                <g transform="matrix(0.916955,0,0,-1.44923,1164.98,3528.49)">
                    <path d="M219.431,402.097L249.847,584.597L263.028,492.333L219.431,402.097Z" style="fill:none;stroke:rgb(35,35,35);stroke-width:6.27px;stroke-linecap:square;stroke-linejoin:bevel;"/>
                </g>
                <g transform="matrix(0.916955,0,0,-1.44923,1164.98,3230.21)">
                    <path d="M249.847,378.778L371.514,418.319L328.931,362.556L249.847,378.778Z" style="fill:none;stroke:rgb(35,35,35);stroke-width:6.27px;stroke-linecap:square;stroke-linejoin:bevel;"/>
                </g>
                <g transform="matrix(0.916955,0,0,-1.44923,1164.98,4354.27)">
                    <path d="M421.194,791.431L512.444,779.264L351.236,765.069L421.194,791.431Z" style="fill:none;stroke:rgb(35,35,35);stroke-width:7.11px;stroke-linecap:square;stroke-linejoin:bevel;"/>
                </g>
            </g>
            <g id="Dots" transform="matrix(0.869743,0,0,0.550305,-722.283,700.778)">
                <g transform="matrix(4.12996e-32,7.21876,-4.56746,6.52731e-32,3664.14,916.256)">
                    <circle cx="263.028" cy="494.361" r="2.835"/>
                </g>
                <g transform="matrix(4.12996e-32,7.21876,-4.56746,6.52731e-32,3377.26,330.318)">
                    <circle cx="328.931" cy="418.319" r="2.835"/>
                </g>
                <g transform="matrix(4.12996e-32,7.21876,-4.56746,6.52731e-32,3698.03,-260.776)">
                    <circle cx="421.194" cy="470.028" r="2.835"/>
                </g>
                <g transform="matrix(4.12996e-32,7.21876,-4.56746,6.52731e-32,3881.73,-872.524)">
                    <ellipse cx="510.417" cy="492.333" rx="2.835" ry="2.835"/>
                </g>
                <g transform="matrix(4.12996e-32,7.21876,-4.56746,6.52731e-32,4314.36,-978.899)">
                    <circle cx="542.861" cy="580.542" r="2.835"/>
                </g>
                <g transform="matrix(4.12996e-32,7.21876,-4.56746,6.52731e-32,4088.01,-258.863)">
                    <circle cx="437.417" cy="552.153" r="2.835"/>
                </g>
                <g transform="matrix(4.12996e-32,7.21876,-4.56746,6.52731e-32,3782.06,329.32)">
                    <circle cx="346.167" cy="503.486" r="2.835"/>
                </g>
                <g transform="matrix(4.12996e-32,7.21876,-4.56746,6.52731e-32,4191.4,520.114)">
                    <circle cx="338.056" cy="594.736" r="2.835"/>
                </g>
                <g transform="matrix(4.12996e-32,7.21876,-4.56746,6.52731e-32,4718.57,314.295)">
                    <circle cx="387.736" cy="700.181" r="2.835"/>
                </g>
                <g transform="matrix(4.12996e-32,7.21876,-4.56746,6.52731e-32,4763.35,-379.598)">
                    <circle cx="482.028" cy="691.056" r="2.835"/>
                </g>
                <g transform="matrix(4.12996e-32,7.21876,-4.56746,6.52731e-32,4552.24,-576.02)">
                    <circle cx="499.264" cy="641.375" r="2.835"/>
                </g>
                <g transform="matrix(4.12996e-32,7.21876,-4.56746,6.52731e-32,4694.15,-972.605)">
                    <circle cx="558.069" cy="660.639" r="2.835"/>
                </g>
                <g transform="matrix(4.12996e-32,7.21876,-4.56746,6.52731e-32,4444.92,1141.15)">
                    <circle cx="266.069" cy="664.694" r="2.835"/>
                </g>
                <g transform="matrix(4.12996e-32,7.21876,-4.56746,6.52731e-32,4434.35,-27.1487)">
                    <circle cx="421.194" cy="631.236" r="2.835"/>
                </g>
                <g transform="matrix(4.12996e-32,7.21876,-4.56746,6.52731e-32,4328.94,-448.907)">
                    <circle cx="472.903" cy="597.778" r="2.835"/>
                </g>
                <g transform="matrix(4.12996e-32,7.21876,-4.56746,6.52731e-32,4123.43,-727.307)">
                    <circle cx="501.292" cy="547.083" r="2.835"/>
                </g>
                <g transform="matrix(4.12996e-32,7.21876,-4.56746,6.52731e-32,5045.62,166.806)">
                    <ellipse cx="421.194" cy="765.069" rx="2.835" ry="2.835"/>
                </g>
            </g>
            <g id="Outer-dots" serif:id="Outer dots">
                <g transform="matrix(3.59201e-32,3.97252,-3.97252,3.59201e-32,2087.55,1183.78)">
                    <circle cx="249.847" cy="402.097" r="2.835"/>
                </g>
                <g transform="matrix(3.59201e-32,3.97252,-3.97252,3.59201e-32,2027.5,668.918)">
                    <circle cx="371.514" cy="362.556" r="2.835"/>
                </g>
                <g transform="matrix(3.59201e-32,3.97252,-3.97252,3.59201e-32,2185.02,92.9887)">
                    <circle cx="518.528" cy="372.694" r="2.835"/>
                </g>
                <g transform="matrix(3.59201e-32,3.97252,-3.97252,3.59201e-32,2630.72,-144.355)">
                    <circle cx="597.611" cy="469.014" r="2.835"/>
                </g>
                <g transform="matrix(3.59201e-32,3.97252,-3.97252,3.59201e-32,3106.05,-132.729)">
                    <circle cx="617.889" cy="584.597" r="2.835"/>
                </g>
                <g transform="matrix(3.59201e-32,3.97252,-3.97252,3.59201e-32,2788.27,1450.15)">
                    <circle cx="219.431" cy="584.597" r="2.835"/>
                </g>
                <g transform="matrix(3.59201e-32,3.97252,-3.97252,3.59201e-32,3661.78,104.539)">
                    <circle cx="587.472" cy="730.597" r="2.835"/>
                </g>
                <g transform="matrix(3.59201e-32,3.97252,-3.97252,3.59201e-32,3787.22,439.783)">
                    <circle cx="512.444" cy="777.236" r="2.835"/>
                </g>
                <g transform="matrix(3.59201e-32,3.97252,-3.97252,3.59201e-32,3715.04,1091.51)">
                    <circle cx="351.236" cy="791.431" r="2.835"/>
                </g>
                <g transform="matrix(3.59201e-32,3.97252,-3.97252,3.59201e-32,3446.56,1364.43)">
                    <circle cx="272.153" cy="739.722" r="2.835"/>
                </g>
            </g>
        </g>
    </g>
    <defs>
        <radialGradient id="_Radial1" cx="0" cy="0" r="1" gradientUnits="userSpaceOnUse" gradientTransform="matrix(-63.7788,-186.415,177.89,-60.8621,668.1,2332.36)"><stop offset="0" style="stop-color:white;stop-opacity:1"/><stop offset="0.47" style="stop-color:rgb(204,204,204);stop-opacity:1"/><stop offset="1" style="stop-color:rgb(67,67,67);stop-opacity:1"/></radialGradient>
    </defs>
</svg>
