<?xml version="1.0" encoding="UTF-8" standalone="no"?>
<!DOCTYPE svg PUBLIC "-//W3C//DTD SVG 1.1//EN" "http://www.w3.org/Graphics/SVG/1.1/DTD/svg11.dtd">
<svg width="100%" height="100%" viewBox="0 0 351 457" version="1.1" xmlns="http://www.w3.org/2000/svg" xmlns:xlink="http://www.w3.org/1999/xlink" xml:space="preserve" xmlns:serif="http://www.serif.com/" style="fill-rule:evenodd;clip-rule:evenodd;stroke-linecap:round;stroke-linejoin:round;stroke-miterlimit:10;">
    <g transform="matrix(1,0,0,1,-3947,-7153)">
        <rect id="Raster-algebra" serif:id="Raster algebra" x="3056" y="6066" width="1673" height="1997" style="fill:none;"/>
        <g id="Raster-algebra1" serif:id="Raster algebra">
            <g transform="matrix(1,-0,-0,1,3947,7153)">
            </g>
            <g transform="matrix(1,-0,-0,1,3947,7153)">
            </g>
            <g transform="matrix(1,-0,-0,1,3947,7153)">
            </g>
            <g id="Outline" transform="matrix(1,0,0,1,3498.36,5101.47)">
                <path d="M704.486,2152.85L767.557,2229.66L783.728,2321.84L759.471,2438.28L699.635,2475.48L571.069,2486.8L507.999,2445.56L465.952,2321.84L490.21,2176.3L587.241,2144.76L704.486,2152.85Z" style="fill:url(#_Radial1);stroke:black;stroke-width:8px;"/>
            </g>
            <g id="Outline1" serif:id="Outline" transform="matrix(1,0,0,1,3498.36,5101.47)">
                <path d="M704.486,2152.85L767.557,2229.66L783.728,2321.84L759.471,2438.28L699.635,2475.48L571.069,2486.8L507.999,2445.56L465.952,2321.84L490.21,2176.3L587.241,2144.76L704.486,2152.85Z" style="fill:none;stroke:black;stroke-width:8px;"/>
            </g>
            <path d="M4006.36,7547.03L4058.17,7467L4080,7344.14L4202.85,7254.32" style="fill:none;stroke:black;stroke-width:6px;stroke-linecap:butt;"/>
            <path d="M3988.57,7277.77L4080,7344.14L4202.85,7430L4282.09,7423.32" style="fill:none;stroke:black;stroke-width:6px;stroke-linecap:butt;"/>
            <path d="M4080,7344.14L4265.92,7331.14" style="fill:none;stroke:black;stroke-width:6px;stroke-linecap:butt;"/>
            <path d="M4265.92,7331.14L4202.85,7430" style="fill:none;stroke:black;stroke-width:6px;stroke-linecap:butt;"/>
            <path d="M4058.17,7467L3964.31,7423.32" style="fill:none;stroke:black;stroke-width:6px;stroke-linecap:butt;"/>
            <path d="M3964.31,7423.32L4080,7344.14" style="fill:none;stroke:black;stroke-width:6px;stroke-linecap:butt;"/>
            <path d="M4058.17,7467L4202.85,7430" style="fill:none;stroke:black;stroke-width:6px;stroke-linecap:butt;"/>
            <path d="M4080,7344.14L4085.6,7246.24" style="fill:none;stroke:black;stroke-width:6px;stroke-linecap:butt;"/>
            <path d="M4258,7539L4202.85,7430" style="fill:none;stroke:black;stroke-width:6px;stroke-linecap:butt;"/>
            <path d="M4069.43,7588.27L4058.17,7467" style="fill:none;stroke:black;stroke-width:6px;stroke-linecap:butt;"/>
            <path d="M4058.15,7466.25L4197.99,7576.95" style="fill:none;stroke:black;stroke-width:6px;stroke-linecap:butt;"/>
            <path d="M4197.99,7576.95L4202.85,7430" style="fill:none;stroke:black;stroke-width:6px;stroke-linecap:butt;"/>
            <g id="Outer-dots" serif:id="Outer dots" transform="matrix(1,0,0,1,3498.36,5101.47)">
                <g transform="matrix(3.59201e-32,3.97252,-3.97252,3.59201e-32,2087.55,1183.78)">
                    <circle cx="249.847" cy="402.097" r="2.835"/>
                </g>
                <g transform="matrix(3.59201e-32,3.97252,-3.97252,3.59201e-32,2027.5,668.918)">
                    <circle cx="371.514" cy="362.556" r="2.835"/>
                </g>
                <g transform="matrix(3.59201e-32,3.97252,-3.97252,3.59201e-32,2144.11,853.354)">
                    <circle cx="371.514" cy="362.556" r="2.835" style="fill:rgb(45,231,231);stroke:black;stroke-width:1.26px;stroke-linecap:butt;stroke-miterlimit:2;"/>
                </g>
                <g transform="matrix(3.59201e-32,3.97252,-3.97252,3.59201e-32,2032.3,851.195)">
                    <circle cx="371.514" cy="362.556" r="2.835" style="fill:rgb(255,7,7);"/>
                </g>
                <g transform="matrix(3.59201e-32,3.97252,-3.97252,3.59201e-32,2000.05,888.929)">
                    <circle cx="371.514" cy="362.556" r="2.835" style="fill:rgb(45,231,231);stroke:black;stroke-width:1.26px;stroke-linecap:butt;stroke-miterlimit:2;"/>
                </g>
                <g transform="matrix(3.59201e-32,3.97252,-3.97252,3.59201e-32,2185.02,92.9887)">
                    <circle cx="518.528" cy="372.694" r="2.835"/>
                </g>
                <g transform="matrix(3.59201e-32,3.97252,-3.97252,3.59201e-32,2630.72,-144.355)">
                    <circle cx="597.611" cy="469.014" r="2.835"/>
                </g>
                <g transform="matrix(3.59201e-32,3.97252,-3.97252,3.59201e-32,3106.05,-132.729)">
                    <circle cx="617.889" cy="584.597" r="2.835"/>
                </g>
                <g transform="matrix(3.59201e-32,3.97252,-3.97252,3.59201e-32,2788.27,1450.15)">
                    <circle cx="219.431" cy="584.597" r="2.835"/>
                </g>
                <g transform="matrix(3.59201e-32,3.97252,-3.97252,3.59201e-32,3661.78,104.539)">
                    <circle cx="587.472" cy="730.597" r="2.835"/>
                </g>
                <g transform="matrix(3.59201e-32,3.97252,-3.97252,3.59201e-32,3787.22,439.783)">
                    <circle cx="512.444" cy="777.236" r="2.835"/>
                </g>
                <g transform="matrix(3.59201e-32,3.97252,-3.97252,3.59201e-32,3715.04,1091.51)">
                    <circle cx="351.236" cy="791.431" r="2.835"/>
                </g>
                <g transform="matrix(3.59201e-32,3.97252,-3.97252,3.59201e-32,3446.56,1364.43)">
                    <circle cx="272.153" cy="739.722" r="2.835"/>
                </g>
                <g transform="matrix(3.59201e-32,3.97252,-3.97252,3.59201e-32,2021.25,767.3)">
                    <circle cx="371.514" cy="362.556" r="2.835" style="fill:rgb(45,231,231);stroke:black;stroke-width:1.26px;stroke-linecap:butt;stroke-miterlimit:2;"/>
                </g>
            </g>
            <g transform="matrix(1,0,0,1,-3112.59,-87.6639)">
                <g transform="matrix(48,0,0,48,7178.82,7285.66)">
                    <path d="M0.071,-0L0.071,-0.11L0.189,-0.11L0.189,-0.39L0.07,-0.39L0.07,-0.5L0.189,-0.5L0.189,-0.528C0.189,-0.559 0.195,-0.586 0.206,-0.609C0.217,-0.632 0.231,-0.65 0.249,-0.665C0.267,-0.68 0.288,-0.691 0.312,-0.698C0.335,-0.705 0.36,-0.708 0.385,-0.708C0.431,-0.708 0.469,-0.704 0.499,-0.697C0.528,-0.689 0.553,-0.679 0.572,-0.668L0.534,-0.569C0.519,-0.576 0.502,-0.583 0.485,-0.589C0.467,-0.595 0.444,-0.598 0.416,-0.598C0.38,-0.598 0.355,-0.59 0.341,-0.574C0.326,-0.557 0.319,-0.533 0.319,-0.5L0.529,-0.5L0.529,-0.39L0.319,-0.39L0.319,-0.11L0.53,-0.11L0.53,-0L0.071,-0Z" style="fill:rgb(255,7,7);fill-rule:nonzero;"/>
                </g>
                <g transform="matrix(48,0,0,48,7207.62,7285.66)">
                    <path d="M0.455,0.212C0.408,0.205 0.363,0.19 0.319,0.168C0.275,0.146 0.236,0.116 0.202,0.079C0.168,0.042 0.141,-0.004 0.121,-0.057C0.1,-0.11 0.09,-0.172 0.09,-0.243C0.09,-0.313 0.1,-0.375 0.121,-0.429C0.141,-0.482 0.168,-0.528 0.202,-0.566C0.236,-0.604 0.275,-0.634 0.319,-0.657C0.363,-0.68 0.408,-0.695 0.455,-0.704L0.479,-0.597C0.456,-0.592 0.429,-0.582 0.4,-0.569C0.37,-0.555 0.342,-0.535 0.315,-0.508C0.288,-0.481 0.266,-0.446 0.248,-0.403C0.229,-0.36 0.22,-0.307 0.22,-0.243C0.22,-0.182 0.23,-0.13 0.249,-0.088C0.268,-0.046 0.292,-0.012 0.32,0.016C0.347,0.043 0.376,0.063 0.405,0.077C0.434,0.09 0.459,0.099 0.479,0.103L0.455,0.212Z" style="fill:rgb(255,7,7);fill-rule:nonzero;"/>
                </g>
                <g transform="matrix(48,0,0,48,7236.42,7285.66)">
                    <path d="M0.211,-0.258L0.037,-0.5L0.192,-0.5L0.305,-0.333L0.423,-0.5L0.564,-0.5L0.393,-0.26L0.574,-0L0.423,-0L0.296,-0.184L0.167,-0L0.025,-0L0.211,-0.258Z" style="fill:rgb(255,7,7);fill-rule:nonzero;"/>
                </g>
                <g transform="matrix(48,0,0,48,7265.22,7285.66)">
                    <path d="M0.218,-0.064C0.218,-0.087 0.226,-0.105 0.241,-0.118C0.256,-0.131 0.274,-0.138 0.297,-0.138C0.334,-0.138 0.361,-0.126 0.38,-0.102C0.399,-0.078 0.408,-0.048 0.408,-0.013C0.408,0.017 0.402,0.044 0.391,0.069C0.379,0.094 0.364,0.115 0.345,0.133C0.326,0.151 0.306,0.166 0.283,0.177C0.26,0.188 0.237,0.196 0.214,0.2L0.187,0.145C0.203,0.141 0.219,0.135 0.236,0.128C0.252,0.121 0.267,0.112 0.28,0.101C0.293,0.09 0.305,0.077 0.314,0.062C0.323,0.047 0.328,0.031 0.329,0.014C0.309,0.018 0.292,0.019 0.278,0.016C0.264,0.012 0.253,0.007 0.244,-0.001C0.235,-0.008 0.228,-0.018 0.224,-0.029C0.22,-0.04 0.218,-0.051 0.218,-0.064Z" style="fill:rgb(255,7,7);fill-rule:nonzero;"/>
                </g>
                <g transform="matrix(48,0,0,48,7294.02,7285.66)">
                    <path d="M0.301,-0.141L0.339,-0.141L0.436,-0.5L0.57,-0.5L0.428,-0.049C0.415,-0.012 0.403,0.023 0.391,0.054C0.379,0.085 0.365,0.111 0.349,0.134C0.333,0.157 0.314,0.174 0.293,0.187C0.271,0.199 0.244,0.205 0.213,0.205C0.198,0.205 0.183,0.203 0.17,0.199C0.156,0.195 0.143,0.19 0.132,0.185C0.121,0.179 0.111,0.173 0.102,0.167C0.093,0.16 0.086,0.154 0.081,0.149L0.148,0.06C0.157,0.067 0.167,0.074 0.179,0.081C0.191,0.087 0.202,0.09 0.213,0.09C0.233,0.09 0.249,0.083 0.261,0.069C0.272,0.055 0.283,0.032 0.294,-0L0.223,-0L0.015,-0.5L0.156,-0.5L0.301,-0.141Z" style="fill:rgb(255,7,7);fill-rule:nonzero;"/>
                </g>
                <g transform="matrix(48,0,0,48,7322.82,7285.66)">
                    <path d="M0.12,0.103C0.14,0.099 0.165,0.09 0.194,0.077C0.223,0.063 0.252,0.043 0.28,0.016C0.307,-0.012 0.331,-0.046 0.35,-0.088C0.369,-0.13 0.379,-0.182 0.379,-0.243C0.379,-0.307 0.37,-0.36 0.352,-0.403C0.333,-0.446 0.311,-0.481 0.284,-0.508C0.257,-0.535 0.229,-0.555 0.2,-0.569C0.17,-0.582 0.143,-0.592 0.12,-0.597L0.144,-0.704C0.191,-0.695 0.236,-0.68 0.28,-0.657C0.324,-0.634 0.363,-0.604 0.397,-0.566C0.431,-0.528 0.458,-0.482 0.479,-0.429C0.499,-0.375 0.509,-0.313 0.509,-0.243C0.509,-0.172 0.499,-0.11 0.479,-0.057C0.458,-0.004 0.431,0.042 0.397,0.079C0.363,0.116 0.324,0.146 0.28,0.168C0.236,0.19 0.191,0.205 0.144,0.212L0.12,0.103Z" style="fill:rgb(255,7,7);fill-rule:nonzero;"/>
                </g>
            </g>
            <g transform="matrix(1,0,0,1,-163.358,-38)">
                <path d="M4221.79,7246.18C4169.51,7338.78 4183.78,7411.13 4253.76,7466.51" style="fill:none;stroke:rgb(255,7,7);stroke-width:5px;stroke-linecap:butt;"/>
            </g>
            <g transform="matrix(0.836032,0,0,0.717639,476.083,2063.55)">
                <rect x="4293.35" y="7266" width="183.295" height="61" style="fill:white;fill-opacity:0.74;"/>
            </g>
            <g transform="matrix(0.819664,0,0,0.717639,626.418,2240.25)">
                <rect x="4293.35" y="7266" width="183.295" height="61" style="fill:white;fill-opacity:0.74;"/>
            </g>
            <g transform="matrix(0.82512,0,0,0.717639,435.911,2274.64)">
                <rect x="4293.35" y="7266" width="183.295" height="61" style="fill:white;fill-opacity:0.74;"/>
            </g>
            <g transform="matrix(1,0,0,1,230.578,-334.15)">
                <g transform="matrix(40,0,0,40,3838.4,7643.67)">
                    <path d="M0.432,0.212C0.387,0.201 0.345,0.184 0.307,0.162C0.268,0.139 0.234,0.11 0.205,0.074C0.175,0.038 0.153,-0.006 0.136,-0.058C0.119,-0.11 0.11,-0.172 0.11,-0.243C0.11,-0.314 0.119,-0.376 0.136,-0.429C0.153,-0.482 0.177,-0.527 0.206,-0.564C0.235,-0.6 0.27,-0.63 0.309,-0.653C0.347,-0.675 0.389,-0.691 0.432,-0.7L0.457,-0.637C0.418,-0.626 0.382,-0.611 0.349,-0.593C0.316,-0.574 0.288,-0.55 0.265,-0.52C0.241,-0.489 0.223,-0.452 0.21,-0.407C0.197,-0.362 0.19,-0.307 0.19,-0.243C0.19,-0.178 0.198,-0.123 0.214,-0.078C0.229,-0.032 0.25,0.006 0.276,0.037C0.301,0.067 0.33,0.091 0.362,0.108C0.393,0.125 0.425,0.136 0.457,0.143L0.432,0.212Z" style="fill-rule:nonzero;"/>
                </g>
                <g transform="matrix(40,0,0,40,3862.4,7643.67)">
                    <path d="M0.253,-0.256L0.06,-0.5L0.16,-0.5L0.304,-0.312L0.452,-0.5L0.542,-0.5L0.349,-0.26L0.554,-0L0.458,-0L0.299,-0.205L0.137,-0L0.046,-0L0.253,-0.256Z" style="fill-rule:nonzero;"/>
                </g>
                <g transform="matrix(40,0,0,40,3886.4,7643.67)">
                    <path d="M0.134,0.039L0.28,0.039L0.28,-0.236L0.155,-0.166L0.128,-0.221L0.294,-0.32L0.35,-0.32L0.35,0.039L0.485,0.039L0.485,0.1L0.134,0.1L0.134,0.039Z" style="fill-rule:nonzero;"/>
                </g>
                <g transform="matrix(40,0,0,40,3910.4,7643.67)">
                    <path d="M0.311,-0.077L0.349,-0.077L0.473,-0.5L0.554,-0.5L0.415,-0.051C0.408,-0.028 0.4,-0.001 0.393,0.029C0.385,0.058 0.374,0.086 0.36,0.112C0.346,0.138 0.327,0.16 0.303,0.178C0.279,0.196 0.248,0.205 0.209,0.205C0.2,0.205 0.191,0.204 0.182,0.202C0.172,0.2 0.162,0.198 0.153,0.195C0.144,0.192 0.135,0.188 0.127,0.184C0.119,0.18 0.113,0.176 0.109,0.172L0.137,0.1C0.141,0.103 0.147,0.107 0.154,0.11C0.161,0.113 0.168,0.116 0.177,0.119C0.185,0.121 0.193,0.123 0.201,0.125C0.209,0.126 0.216,0.127 0.221,0.127C0.271,0.127 0.305,0.085 0.323,-0L0.256,-0L0.046,-0.5L0.136,-0.5L0.311,-0.077Z" style="fill-rule:nonzero;"/>
                </g>
                <g transform="matrix(40,0,0,40,3934.4,7643.67)">
                    <path d="M0.134,0.039L0.28,0.039L0.28,-0.236L0.155,-0.166L0.128,-0.221L0.294,-0.32L0.35,-0.32L0.35,0.039L0.485,0.039L0.485,0.1L0.134,0.1L0.134,0.039Z" style="fill-rule:nonzero;"/>
                </g>
                <g transform="matrix(40,0,0,40,3958.4,7643.67)">
                    <path d="M0.143,0.143C0.175,0.136 0.207,0.125 0.239,0.108C0.27,0.091 0.299,0.067 0.325,0.037C0.35,0.006 0.371,-0.032 0.387,-0.078C0.402,-0.123 0.41,-0.178 0.41,-0.243C0.41,-0.307 0.404,-0.362 0.391,-0.407C0.378,-0.452 0.359,-0.489 0.336,-0.52C0.312,-0.55 0.284,-0.574 0.251,-0.593C0.218,-0.611 0.182,-0.626 0.143,-0.637L0.168,-0.7C0.211,-0.691 0.253,-0.675 0.292,-0.653C0.331,-0.63 0.365,-0.6 0.394,-0.564C0.423,-0.527 0.447,-0.482 0.464,-0.429C0.481,-0.376 0.49,-0.314 0.49,-0.243C0.49,-0.172 0.482,-0.11 0.465,-0.058C0.448,-0.006 0.425,0.038 0.396,0.074C0.367,0.11 0.332,0.139 0.294,0.162C0.255,0.184 0.213,0.201 0.168,0.212L0.143,0.143Z" style="fill-rule:nonzero;"/>
                </g>
            </g>
            <g transform="matrix(1,0,0,1,142.429,-123.277)">
                <g transform="matrix(40,0,0,40,3838.4,7643.67)">
                    <path d="M0.432,0.212C0.387,0.201 0.345,0.184 0.307,0.162C0.268,0.139 0.234,0.11 0.205,0.074C0.175,0.038 0.153,-0.006 0.136,-0.058C0.119,-0.11 0.11,-0.172 0.11,-0.243C0.11,-0.314 0.119,-0.376 0.136,-0.429C0.153,-0.482 0.177,-0.527 0.206,-0.564C0.235,-0.6 0.27,-0.63 0.309,-0.653C0.347,-0.675 0.389,-0.691 0.432,-0.7L0.457,-0.637C0.418,-0.626 0.382,-0.611 0.349,-0.593C0.316,-0.574 0.288,-0.55 0.265,-0.52C0.241,-0.489 0.223,-0.452 0.21,-0.407C0.197,-0.362 0.19,-0.307 0.19,-0.243C0.19,-0.178 0.198,-0.123 0.214,-0.078C0.229,-0.032 0.25,0.006 0.276,0.037C0.301,0.067 0.33,0.091 0.362,0.108C0.393,0.125 0.425,0.136 0.457,0.143L0.432,0.212Z" style="fill-rule:nonzero;"/>
                </g>
                <g transform="matrix(40,0,0,40,3862.4,7643.67)">
                    <path d="M0.253,-0.256L0.06,-0.5L0.16,-0.5L0.304,-0.312L0.452,-0.5L0.542,-0.5L0.349,-0.26L0.554,-0L0.458,-0L0.299,-0.205L0.137,-0L0.046,-0L0.253,-0.256Z" style="fill-rule:nonzero;"/>
                </g>
                <g transform="matrix(40,0,0,40,3886.4,7643.67)">
                    <path d="M0.445,-0.195C0.445,-0.17 0.438,-0.147 0.425,-0.125C0.411,-0.102 0.393,-0.081 0.371,-0.062C0.349,-0.042 0.325,-0.024 0.298,-0.007C0.271,0.01 0.245,0.024 0.219,0.037L0.465,0.037L0.465,0.1L0.114,0.1L0.114,0.047C0.125,0.038 0.138,0.029 0.155,0.018C0.172,0.007 0.19,-0.004 0.209,-0.016C0.228,-0.028 0.248,-0.041 0.268,-0.055C0.287,-0.068 0.305,-0.082 0.321,-0.097C0.337,-0.111 0.35,-0.126 0.36,-0.141C0.37,-0.156 0.375,-0.171 0.375,-0.186C0.375,-0.2 0.372,-0.212 0.367,-0.222C0.361,-0.231 0.354,-0.239 0.345,-0.246C0.336,-0.252 0.327,-0.256 0.317,-0.259C0.306,-0.262 0.296,-0.263 0.286,-0.263C0.271,-0.263 0.257,-0.261 0.244,-0.258C0.231,-0.254 0.219,-0.249 0.208,-0.244C0.197,-0.239 0.187,-0.233 0.178,-0.227C0.169,-0.22 0.162,-0.215 0.157,-0.21L0.125,-0.259C0.131,-0.265 0.139,-0.272 0.15,-0.28C0.161,-0.287 0.173,-0.295 0.188,-0.302C0.203,-0.309 0.219,-0.315 0.238,-0.32C0.257,-0.325 0.277,-0.327 0.298,-0.327C0.319,-0.327 0.338,-0.324 0.356,-0.319C0.374,-0.313 0.39,-0.305 0.403,-0.294C0.416,-0.283 0.426,-0.269 0.434,-0.253C0.441,-0.236 0.445,-0.217 0.445,-0.195Z" style="fill-rule:nonzero;"/>
                </g>
                <g transform="matrix(40,0,0,40,3910.4,7643.67)">
                    <path d="M0.311,-0.077L0.349,-0.077L0.473,-0.5L0.554,-0.5L0.415,-0.051C0.408,-0.028 0.4,-0.001 0.393,0.029C0.385,0.058 0.374,0.086 0.36,0.112C0.346,0.138 0.327,0.16 0.303,0.178C0.279,0.196 0.248,0.205 0.209,0.205C0.2,0.205 0.191,0.204 0.182,0.202C0.172,0.2 0.162,0.198 0.153,0.195C0.144,0.192 0.135,0.188 0.127,0.184C0.119,0.18 0.113,0.176 0.109,0.172L0.137,0.1C0.141,0.103 0.147,0.107 0.154,0.11C0.161,0.113 0.168,0.116 0.177,0.119C0.185,0.121 0.193,0.123 0.201,0.125C0.209,0.126 0.216,0.127 0.221,0.127C0.271,0.127 0.305,0.085 0.323,-0L0.256,-0L0.046,-0.5L0.136,-0.5L0.311,-0.077Z" style="fill-rule:nonzero;"/>
                </g>
                <g transform="matrix(40,0,0,40,3934.4,7643.67)">
                    <path d="M0.445,-0.195C0.445,-0.17 0.438,-0.147 0.425,-0.125C0.411,-0.102 0.393,-0.081 0.371,-0.062C0.349,-0.042 0.325,-0.024 0.298,-0.007C0.271,0.01 0.245,0.024 0.219,0.037L0.465,0.037L0.465,0.1L0.114,0.1L0.114,0.047C0.125,0.038 0.138,0.029 0.155,0.018C0.172,0.007 0.19,-0.004 0.209,-0.016C0.228,-0.028 0.248,-0.041 0.268,-0.055C0.287,-0.068 0.305,-0.082 0.321,-0.097C0.337,-0.111 0.35,-0.126 0.36,-0.141C0.37,-0.156 0.375,-0.171 0.375,-0.186C0.375,-0.2 0.372,-0.212 0.367,-0.222C0.361,-0.231 0.354,-0.239 0.345,-0.246C0.336,-0.252 0.327,-0.256 0.317,-0.259C0.306,-0.262 0.296,-0.263 0.286,-0.263C0.271,-0.263 0.257,-0.261 0.244,-0.258C0.231,-0.254 0.219,-0.249 0.208,-0.244C0.197,-0.239 0.187,-0.233 0.178,-0.227C0.169,-0.22 0.162,-0.215 0.157,-0.21L0.125,-0.259C0.131,-0.265 0.139,-0.272 0.15,-0.28C0.161,-0.287 0.173,-0.295 0.188,-0.302C0.203,-0.309 0.219,-0.315 0.238,-0.32C0.257,-0.325 0.277,-0.327 0.298,-0.327C0.319,-0.327 0.338,-0.324 0.356,-0.319C0.374,-0.313 0.39,-0.305 0.403,-0.294C0.416,-0.283 0.426,-0.269 0.434,-0.253C0.441,-0.236 0.445,-0.217 0.445,-0.195Z" style="fill-rule:nonzero;"/>
                </g>
                <g transform="matrix(40,0,0,40,3958.4,7643.67)">
                    <path d="M0.143,0.143C0.175,0.136 0.207,0.125 0.239,0.108C0.27,0.091 0.299,0.067 0.325,0.037C0.35,0.006 0.371,-0.032 0.387,-0.078C0.402,-0.123 0.41,-0.178 0.41,-0.243C0.41,-0.307 0.404,-0.362 0.391,-0.407C0.378,-0.452 0.359,-0.489 0.336,-0.52C0.312,-0.55 0.284,-0.574 0.251,-0.593C0.218,-0.611 0.182,-0.626 0.143,-0.637L0.168,-0.7C0.211,-0.691 0.253,-0.675 0.292,-0.653C0.331,-0.63 0.365,-0.6 0.394,-0.564C0.423,-0.527 0.447,-0.482 0.464,-0.429C0.481,-0.376 0.49,-0.314 0.49,-0.243C0.49,-0.172 0.482,-0.11 0.465,-0.058C0.448,-0.006 0.425,0.038 0.396,0.074C0.367,0.11 0.332,0.139 0.294,0.162C0.255,0.184 0.213,0.201 0.168,0.212L0.143,0.143Z" style="fill-rule:nonzero;"/>
                </g>
            </g>
            <g transform="matrix(1,0,0,1,310.643,-157.204)">
                <g transform="matrix(40,0,0,40,3838.4,7643.67)">
                    <path d="M0.432,0.212C0.387,0.201 0.345,0.184 0.307,0.162C0.268,0.139 0.234,0.11 0.205,0.074C0.175,0.038 0.153,-0.006 0.136,-0.058C0.119,-0.11 0.11,-0.172 0.11,-0.243C0.11,-0.314 0.119,-0.376 0.136,-0.429C0.153,-0.482 0.177,-0.527 0.206,-0.564C0.235,-0.6 0.27,-0.63 0.309,-0.653C0.347,-0.675 0.389,-0.691 0.432,-0.7L0.457,-0.637C0.418,-0.626 0.382,-0.611 0.349,-0.593C0.316,-0.574 0.288,-0.55 0.265,-0.52C0.241,-0.489 0.223,-0.452 0.21,-0.407C0.197,-0.362 0.19,-0.307 0.19,-0.243C0.19,-0.178 0.198,-0.123 0.214,-0.078C0.229,-0.032 0.25,0.006 0.276,0.037C0.301,0.067 0.33,0.091 0.362,0.108C0.393,0.125 0.425,0.136 0.457,0.143L0.432,0.212Z" style="fill-rule:nonzero;"/>
                </g>
                <g transform="matrix(40,0,0,40,3862.4,7643.67)">
                    <path d="M0.253,-0.256L0.06,-0.5L0.16,-0.5L0.304,-0.312L0.452,-0.5L0.542,-0.5L0.349,-0.26L0.554,-0L0.458,-0L0.299,-0.205L0.137,-0L0.046,-0L0.253,-0.256Z" style="fill-rule:nonzero;"/>
                </g>
                <g transform="matrix(40,0,0,40,3886.4,7643.67)">
                    <path d="M0.262,0.047C0.294,0.047 0.319,0.041 0.338,0.028C0.357,0.015 0.366,-0.003 0.366,-0.028C0.366,-0.049 0.358,-0.067 0.343,-0.08C0.327,-0.093 0.302,-0.1 0.268,-0.1L0.203,-0.1L0.203,-0.138L0.333,-0.26L0.105,-0.26L0.105,-0.32L0.421,-0.32L0.421,-0.267L0.292,-0.152L0.292,-0.15C0.337,-0.149 0.372,-0.138 0.398,-0.116C0.423,-0.093 0.436,-0.064 0.436,-0.028C0.436,0.013 0.42,0.045 0.389,0.07C0.358,0.095 0.312,0.107 0.253,0.107C0.237,0.107 0.22,0.105 0.202,0.102C0.184,0.098 0.167,0.093 0.15,0.086C0.133,0.079 0.118,0.071 0.104,0.062C0.09,0.053 0.079,0.042 0.071,0.031L0.107,-0.021C0.112,-0.016 0.119,-0.009 0.128,-0.002C0.137,0.006 0.149,0.014 0.162,0.021C0.174,0.028 0.189,0.035 0.206,0.04C0.223,0.045 0.241,0.047 0.262,0.047Z" style="fill-rule:nonzero;"/>
                </g>
                <g transform="matrix(40,0,0,40,3910.4,7643.67)">
                    <path d="M0.311,-0.077L0.349,-0.077L0.473,-0.5L0.554,-0.5L0.415,-0.051C0.408,-0.028 0.4,-0.001 0.393,0.029C0.385,0.058 0.374,0.086 0.36,0.112C0.346,0.138 0.327,0.16 0.303,0.178C0.279,0.196 0.248,0.205 0.209,0.205C0.2,0.205 0.191,0.204 0.182,0.202C0.172,0.2 0.162,0.198 0.153,0.195C0.144,0.192 0.135,0.188 0.127,0.184C0.119,0.18 0.113,0.176 0.109,0.172L0.137,0.1C0.141,0.103 0.147,0.107 0.154,0.11C0.161,0.113 0.168,0.116 0.177,0.119C0.185,0.121 0.193,0.123 0.201,0.125C0.209,0.126 0.216,0.127 0.221,0.127C0.271,0.127 0.305,0.085 0.323,-0L0.256,-0L0.046,-0.5L0.136,-0.5L0.311,-0.077Z" style="fill-rule:nonzero;"/>
                </g>
                <g transform="matrix(40,0,0,40,3934.4,7643.67)">
                    <path d="M0.262,0.047C0.294,0.047 0.319,0.041 0.338,0.028C0.357,0.015 0.366,-0.003 0.366,-0.028C0.366,-0.049 0.358,-0.067 0.343,-0.08C0.327,-0.093 0.302,-0.1 0.268,-0.1L0.203,-0.1L0.203,-0.138L0.333,-0.26L0.105,-0.26L0.105,-0.32L0.421,-0.32L0.421,-0.267L0.292,-0.152L0.292,-0.15C0.337,-0.149 0.372,-0.138 0.398,-0.116C0.423,-0.093 0.436,-0.064 0.436,-0.028C0.436,0.013 0.42,0.045 0.389,0.07C0.358,0.095 0.312,0.107 0.253,0.107C0.237,0.107 0.22,0.105 0.202,0.102C0.184,0.098 0.167,0.093 0.15,0.086C0.133,0.079 0.118,0.071 0.104,0.062C0.09,0.053 0.079,0.042 0.071,0.031L0.107,-0.021C0.112,-0.016 0.119,-0.009 0.128,-0.002C0.137,0.006 0.149,0.014 0.162,0.021C0.174,0.028 0.189,0.035 0.206,0.04C0.223,0.045 0.241,0.047 0.262,0.047Z" style="fill-rule:nonzero;"/>
                </g>
                <g transform="matrix(40,0,0,40,3958.4,7643.67)">
                    <path d="M0.143,0.143C0.175,0.136 0.207,0.125 0.239,0.108C0.27,0.091 0.299,0.067 0.325,0.037C0.35,0.006 0.371,-0.032 0.387,-0.078C0.402,-0.123 0.41,-0.178 0.41,-0.243C0.41,-0.307 0.404,-0.362 0.391,-0.407C0.378,-0.452 0.359,-0.489 0.336,-0.52C0.312,-0.55 0.284,-0.574 0.251,-0.593C0.218,-0.611 0.182,-0.626 0.143,-0.637L0.168,-0.7C0.211,-0.691 0.253,-0.675 0.292,-0.653C0.331,-0.63 0.365,-0.6 0.394,-0.564C0.423,-0.527 0.447,-0.482 0.464,-0.429C0.481,-0.376 0.49,-0.314 0.49,-0.243C0.49,-0.172 0.482,-0.11 0.465,-0.058C0.448,-0.006 0.425,0.038 0.396,0.074C0.367,0.11 0.332,0.139 0.294,0.162C0.255,0.184 0.213,0.201 0.168,0.212L0.143,0.143Z" style="fill-rule:nonzero;"/>
                </g>
            </g>
        </g>
    </g>
    <defs>
        <radialGradient id="_Radial1" cx="0" cy="0" r="1" gradientUnits="userSpaceOnUse" gradientTransform="matrix(-63.7788,-186.415,177.89,-60.8621,668.1,2332.36)"><stop offset="0" style="stop-color:white;stop-opacity:1"/><stop offset="0.47" style="stop-color:rgb(204,204,204);stop-opacity:1"/><stop offset="1" style="stop-color:rgb(67,67,67);stop-opacity:1"/></radialGradient>
    </defs>
</svg>
