<?xml version="1.0" encoding="UTF-8" standalone="no"?>
<!DOCTYPE svg PUBLIC "-//W3C//DTD SVG 1.1//EN" "http://www.w3.org/Graphics/SVG/1.1/DTD/svg11.dtd">
<svg width="100%" height="100%" viewBox="0 0 193 242" version="1.1" xmlns="http://www.w3.org/2000/svg" xmlns:xlink="http://www.w3.org/1999/xlink" xml:space="preserve" xmlns:serif="http://www.serif.com/" style="fill-rule:evenodd;clip-rule:evenodd;stroke-linejoin:round;stroke-miterlimit:1.5;">
    <g transform="matrix(1,0,0,1,-6588,-3607)">
        <g id="Artboard2" transform="matrix(1,0,0,1,0,-0.319317)">
            <rect x="5322" y="3318.32" width="1962" height="1184" style="fill:none;"/>
            <g transform="matrix(1.52209,0,0,1.52209,5521.31,3159.88)">
                <g transform="matrix(24.7733,0,0,24.7733,712.304,317.132)">
                    <path d="M0.537,-0.626L0.319,-0.626L0.319,-0L0.236,-0L0.236,-0.626L0.018,-0.626L0.018,-0.7L0.537,-0.7L0.537,-0.626Z" style="fill-rule:nonzero;"/>
                </g>
                <g transform="matrix(24.7733,0,0,24.7733,726.053,317.132)">
                    <path d="M0.056,-0.35C0.056,-0.467 0.081,-0.556 0.13,-0.619C0.179,-0.681 0.25,-0.712 0.341,-0.712C0.39,-0.712 0.433,-0.703 0.469,-0.686C0.505,-0.669 0.535,-0.644 0.559,-0.613C0.582,-0.581 0.6,-0.543 0.611,-0.499C0.622,-0.454 0.628,-0.405 0.628,-0.35C0.628,-0.233 0.603,-0.144 0.554,-0.082C0.504,-0.019 0.433,0.012 0.341,0.012C0.292,0.012 0.25,0.003 0.215,-0.014C0.179,-0.031 0.149,-0.056 0.126,-0.088C0.102,-0.119 0.084,-0.157 0.073,-0.202C0.062,-0.246 0.056,-0.295 0.056,-0.35ZM0.144,-0.35C0.144,-0.311 0.148,-0.275 0.156,-0.24C0.163,-0.205 0.175,-0.175 0.191,-0.149C0.207,-0.122 0.228,-0.101 0.253,-0.086C0.278,-0.07 0.307,-0.062 0.341,-0.062C0.403,-0.062 0.452,-0.086 0.487,-0.133C0.522,-0.18 0.54,-0.252 0.54,-0.35C0.54,-0.388 0.536,-0.425 0.529,-0.46C0.521,-0.495 0.509,-0.525 0.493,-0.552C0.476,-0.578 0.456,-0.599 0.431,-0.615C0.405,-0.63 0.376,-0.638 0.341,-0.638C0.28,-0.638 0.232,-0.615 0.197,-0.568C0.162,-0.521 0.144,-0.448 0.144,-0.35Z" style="fill-rule:nonzero;"/>
                </g>
                <g transform="matrix(24.7733,0,0,24.7733,742.998,317.132)">
                    <path d="M0.487,-0.7L0.567,-0.7L0.567,-0.233C0.567,-0.191 0.562,-0.155 0.551,-0.124C0.54,-0.093 0.524,-0.068 0.504,-0.049C0.483,-0.029 0.459,-0.014 0.43,-0.005C0.401,0.004 0.37,0.009 0.335,0.009C0.252,0.009 0.19,-0.01 0.148,-0.047C0.106,-0.084 0.085,-0.141 0.085,-0.217L0.085,-0.7L0.168,-0.7L0.168,-0.256C0.168,-0.221 0.171,-0.191 0.179,-0.167C0.186,-0.142 0.196,-0.123 0.21,-0.108C0.224,-0.093 0.242,-0.082 0.263,-0.075C0.284,-0.068 0.308,-0.065 0.336,-0.065C0.39,-0.065 0.429,-0.08 0.452,-0.11C0.475,-0.139 0.487,-0.188 0.487,-0.256L0.487,-0.7Z" style="fill-rule:nonzero;"/>
                </g>
                <g transform="matrix(24.7733,0,0,24.7733,759.15,317.132)">
                    <path d="M0.533,-0.029C0.513,-0.014 0.488,-0.003 0.457,0.003C0.426,0.009 0.394,0.012 0.359,0.012C0.317,0.012 0.278,0.005 0.241,-0.01C0.204,-0.024 0.172,-0.046 0.145,-0.075C0.118,-0.104 0.096,-0.142 0.08,-0.188C0.064,-0.233 0.056,-0.287 0.056,-0.35C0.056,-0.415 0.065,-0.471 0.083,-0.517C0.1,-0.562 0.124,-0.6 0.153,-0.629C0.182,-0.658 0.214,-0.679 0.25,-0.692C0.286,-0.705 0.323,-0.712 0.36,-0.712C0.4,-0.712 0.433,-0.71 0.458,-0.706C0.483,-0.701 0.505,-0.695 0.523,-0.688L0.503,-0.615C0.471,-0.63 0.425,-0.638 0.366,-0.638C0.339,-0.638 0.312,-0.633 0.285,-0.623C0.258,-0.613 0.235,-0.597 0.214,-0.574C0.193,-0.551 0.176,-0.522 0.163,-0.485C0.15,-0.448 0.144,-0.403 0.144,-0.35C0.144,-0.302 0.15,-0.26 0.162,-0.224C0.174,-0.188 0.191,-0.158 0.212,-0.134C0.233,-0.11 0.257,-0.092 0.286,-0.08C0.314,-0.068 0.345,-0.062 0.378,-0.062C0.408,-0.062 0.434,-0.065 0.457,-0.071C0.479,-0.077 0.498,-0.085 0.513,-0.094L0.533,-0.029Z" style="fill-rule:nonzero;"/>
                </g>
                <g transform="matrix(24.7733,0,0,24.7733,773.296,317.132)">
                    <path d="M0.504,-0.321L0.168,-0.321L0.168,-0L0.085,-0L0.085,-0.7L0.168,-0.7L0.168,-0.395L0.504,-0.395L0.504,-0.7L0.587,-0.7L0.587,-0L0.504,-0L0.504,-0.321Z" style="fill-rule:nonzero;"/>
                </g>
                <g transform="matrix(24.7733,0,0,24.7733,789.943,317.132)">
                    <path d="M0.085,-0.7L0.466,-0.7L0.466,-0.626L0.168,-0.626L0.168,-0.397L0.441,-0.397L0.441,-0.323L0.168,-0.323L0.168,-0.074L0.471,-0.074L0.471,-0L0.085,-0L0.085,-0.7Z" style="fill-rule:nonzero;"/>
                </g>
                <g transform="matrix(24.7733,0,0,24.7733,803.222,317.132)">
                    <path d="M0.401,-0.178C0.401,-0.206 0.393,-0.229 0.376,-0.247C0.359,-0.264 0.339,-0.28 0.314,-0.294C0.289,-0.307 0.261,-0.32 0.232,-0.332C0.203,-0.344 0.175,-0.359 0.151,-0.376C0.126,-0.393 0.105,-0.413 0.088,-0.439C0.071,-0.464 0.063,-0.495 0.063,-0.534C0.063,-0.589 0.082,-0.632 0.12,-0.664C0.158,-0.696 0.212,-0.712 0.282,-0.712C0.323,-0.712 0.36,-0.709 0.393,-0.703C0.426,-0.697 0.452,-0.689 0.471,-0.68L0.446,-0.607C0.431,-0.614 0.408,-0.621 0.379,-0.628C0.349,-0.635 0.315,-0.638 0.278,-0.638C0.234,-0.638 0.201,-0.628 0.179,-0.609C0.157,-0.589 0.146,-0.566 0.146,-0.539C0.146,-0.513 0.154,-0.491 0.171,-0.474C0.188,-0.457 0.209,-0.441 0.234,-0.428C0.259,-0.414 0.286,-0.4 0.315,-0.387C0.344,-0.374 0.372,-0.358 0.397,-0.341C0.422,-0.323 0.442,-0.302 0.459,-0.277C0.476,-0.252 0.484,-0.222 0.484,-0.185C0.484,-0.155 0.479,-0.128 0.468,-0.104C0.457,-0.08 0.442,-0.059 0.421,-0.042C0.4,-0.025 0.375,-0.011 0.346,-0.002C0.317,0.007 0.283,0.012 0.246,0.012C0.196,0.012 0.155,0.008 0.122,0.001C0.089,-0.007 0.064,-0.016 0.046,-0.025L0.074,-0.1C0.089,-0.091 0.112,-0.083 0.142,-0.075C0.172,-0.066 0.206,-0.062 0.243,-0.062C0.265,-0.062 0.286,-0.064 0.305,-0.069C0.324,-0.073 0.341,-0.08 0.355,-0.09C0.369,-0.099 0.38,-0.111 0.389,-0.126C0.397,-0.141 0.401,-0.158 0.401,-0.178Z" style="fill-rule:nonzero;"/>
                </g>
            </g>
            <g transform="matrix(1,0,0,1,-11.5792,0)">
                <g transform="matrix(0.399763,0,0,0.399763,6391.73,3620.01)">
                    <circle cx="817.043" cy="446.457" r="20.095"/>
                </g>
                <g transform="matrix(1.64352,0,0,1.64352,5594.18,136.412)">
                    <rect x="684" y="2145" width="39.714" height="39.714" style="fill:none;stroke:black;stroke-width:2.43px;"/>
                </g>
                <g transform="matrix(1.03819,0,0,1.03819,6008.23,1572.2)">
                    <rect x="684" y="2145" width="39.714" height="39.714" style="fill:none;stroke:black;stroke-width:3.85px;"/>
                </g>
                <g transform="matrix(2.75519,0,0,2.75519,4724.38,-2220.82)">
                    <rect x="684" y="2145" width="39.714" height="39.714" style="fill:none;stroke:black;stroke-width:1.45px;"/>
                </g>
                <g transform="matrix(0.798768,0,0,0.798768,6359.24,2194.08)">
                    <g transform="matrix(36,0,0,36,368.503,1953.88)">
                        <path d="M0.292,-0.766L0.412,-0.766L0.683,-0L0.525,-0L0.446,-0.239L0.219,-0.239L0.143,-0L0.016,-0L0.292,-0.766ZM0.247,-0.337L0.421,-0.337L0.336,-0.614L0.247,-0.337Z" style="fill-rule:nonzero;"/>
                    </g>
                </g>
                <g transform="matrix(0.798768,0,0,0.798768,6447.89,2144.71)">
                    <g transform="matrix(36,0,0,36,368.503,1953.88)">
                        <path d="M0.318,-0.765C0.356,-0.765 0.391,-0.761 0.422,-0.752C0.453,-0.744 0.48,-0.731 0.501,-0.715C0.523,-0.699 0.54,-0.679 0.551,-0.655C0.563,-0.631 0.569,-0.604 0.569,-0.573C0.569,-0.554 0.565,-0.535 0.557,-0.517C0.55,-0.499 0.539,-0.482 0.526,-0.467C0.513,-0.452 0.498,-0.439 0.48,-0.427C0.463,-0.416 0.444,-0.408 0.424,-0.403C0.444,-0.399 0.465,-0.393 0.486,-0.383C0.507,-0.374 0.526,-0.361 0.543,-0.345C0.561,-0.328 0.575,-0.309 0.586,-0.285C0.597,-0.262 0.603,-0.235 0.603,-0.204C0.603,-0.178 0.597,-0.153 0.586,-0.128C0.575,-0.104 0.558,-0.082 0.535,-0.063C0.513,-0.044 0.485,-0.028 0.452,-0.017C0.418,-0.006 0.38,-0 0.337,-0L0.073,-0L0.074,-0.765L0.318,-0.765ZM0.208,-0.341L0.208,-0.099L0.311,-0.099C0.337,-0.099 0.36,-0.102 0.38,-0.109C0.4,-0.116 0.416,-0.125 0.429,-0.136C0.442,-0.147 0.451,-0.16 0.458,-0.174C0.464,-0.187 0.467,-0.201 0.467,-0.216C0.467,-0.233 0.464,-0.249 0.458,-0.264C0.451,-0.279 0.442,-0.293 0.429,-0.304C0.416,-0.315 0.399,-0.324 0.379,-0.331C0.358,-0.337 0.334,-0.341 0.305,-0.341L0.208,-0.341ZM0.208,-0.667L0.208,-0.439L0.279,-0.439C0.303,-0.439 0.325,-0.442 0.344,-0.446C0.364,-0.451 0.381,-0.458 0.395,-0.468C0.409,-0.477 0.419,-0.489 0.427,-0.504C0.434,-0.518 0.438,-0.535 0.438,-0.555C0.438,-0.574 0.435,-0.59 0.43,-0.604C0.424,-0.618 0.415,-0.63 0.402,-0.639C0.388,-0.648 0.371,-0.655 0.35,-0.66C0.328,-0.664 0.301,-0.667 0.27,-0.667L0.208,-0.667Z" style="fill-rule:nonzero;"/>
                    </g>
                </g>
                <g transform="matrix(0.798768,0,0,0.798768,6433.91,2270.93)">
                    <g transform="matrix(36,0,0,36,368.503,1953.88)">
                        <path d="M0.655,-0.11C0.633,-0.084 0.612,-0.063 0.592,-0.047C0.572,-0.031 0.552,-0.018 0.531,-0.009C0.511,0 0.489,0.006 0.466,0.01C0.443,0.013 0.417,0.014 0.389,0.014C0.335,0.014 0.287,0.003 0.246,-0.018C0.205,-0.039 0.171,-0.068 0.144,-0.104C0.116,-0.141 0.096,-0.183 0.082,-0.232C0.068,-0.28 0.061,-0.332 0.061,-0.386C0.061,-0.42 0.064,-0.454 0.07,-0.487C0.075,-0.521 0.084,-0.552 0.096,-0.581C0.107,-0.611 0.122,-0.638 0.14,-0.663C0.158,-0.688 0.18,-0.709 0.205,-0.728C0.23,-0.746 0.258,-0.76 0.29,-0.77C0.322,-0.78 0.357,-0.785 0.396,-0.785C0.419,-0.785 0.442,-0.784 0.463,-0.781C0.484,-0.778 0.503,-0.773 0.522,-0.767C0.541,-0.76 0.559,-0.751 0.576,-0.74C0.593,-0.729 0.61,-0.716 0.626,-0.7L0.553,-0.608C0.541,-0.621 0.529,-0.632 0.517,-0.641C0.505,-0.65 0.493,-0.658 0.48,-0.664C0.467,-0.669 0.454,-0.674 0.44,-0.676C0.426,-0.679 0.411,-0.68 0.394,-0.68C0.361,-0.68 0.332,-0.673 0.308,-0.657C0.284,-0.642 0.264,-0.622 0.249,-0.597C0.233,-0.572 0.221,-0.543 0.214,-0.511C0.206,-0.479 0.203,-0.446 0.203,-0.411C0.203,-0.366 0.207,-0.324 0.216,-0.285C0.225,-0.246 0.238,-0.212 0.254,-0.183C0.27,-0.155 0.29,-0.132 0.313,-0.115C0.335,-0.099 0.361,-0.091 0.389,-0.091C0.413,-0.091 0.435,-0.093 0.452,-0.097C0.47,-0.102 0.486,-0.108 0.499,-0.116C0.513,-0.124 0.525,-0.134 0.536,-0.146C0.546,-0.158 0.557,-0.172 0.568,-0.187L0.655,-0.11Z" style="fill-rule:nonzero;"/>
                    </g>
                </g>
                <g transform="matrix(0.897788,0,0,0.897788,5092.18,2008.62)">
                    <path d="M1811.31,1869.77L1811.31,1916.06" style="fill:none;stroke:black;stroke-width:13.37px;"/>
                </g>
            </g>
            <g transform="matrix(0.88568,0,0,0.897788,4596.53,2247.34)">
                <path d="M1632.73,1504L2509.34,1504L2509.34,2097.05L1353.14,2097.05L1353.14,1775.28L1632.73,1775.28L1632.73,1504Z" style="fill:none;stroke:black;stroke-width:5.61px;stroke-dasharray:5.61,11.21,0,0;"/>
            </g>
        </g>
    </g>
</svg>
