<?xml version="1.0" encoding="UTF-8" standalone="no"?>
<!DOCTYPE svg PUBLIC "-//W3C//DTD SVG 1.1//EN" "http://www.w3.org/Graphics/SVG/1.1/DTD/svg11.dtd">
<svg width="100%" height="100%" viewBox="0 0 284 589" version="1.1" xmlns="http://www.w3.org/2000/svg" xmlns:xlink="http://www.w3.org/1999/xlink" xml:space="preserve" xmlns:serif="http://www.serif.com/" style="fill-rule:evenodd;clip-rule:evenodd;stroke-miterlimit:1;">
    <g transform="matrix(1,0,0,1,-6499,-2105)">
        <g id="Features" transform="matrix(1.26784,0,0,2.06066,-571.928,2035.64)">
            <rect x="4887" y="6" width="967" height="470" style="fill:none;"/>
            <g transform="matrix(0.788744,0,0,0.485282,3901.63,-624.81)">
                <path d="M2163,1522L2249,1454L2345.5,1512L2304,1595L2213,1615L2163,1522Z" style="fill:rgb(218,218,218);stroke:black;stroke-width:3px;"/>
            </g>
            <g transform="matrix(0.788744,0,0,0.485282,3901.63,-503.665)">
                <path d="M2163,1522L2249,1454L2345.5,1512L2304,1595L2213,1615L2163,1522Z" style="fill:url(#_Linear1);stroke:black;stroke-width:3px;"/>
            </g>
            <g transform="matrix(2.31027e-15,0.288734,-0.788744,-1.05342e-15,6877.58,-510.229)">
                <g transform="matrix(-3.64842e-15,-1,1.68073,4.92294e-15,1883.71,1648.73)">
                    <path d="M131.314,312.126L124.564,325.626L117.814,312.126L131.314,312.126Z"/>
                    <path d="M124.564,268.675L124.564,314.826" style="fill:none;stroke:black;stroke-width:3px;stroke-dasharray:3,3;"/>
                </g>
            </g>
            <g transform="matrix(-0.845718,-0.520336,0.557726,-0.343146,6711.94,1950.03)">
                <g transform="matrix(-0.466316,0.707107,-0.466316,-0.707107,2512.37,1775.01)">
                    <path d="M36.469,384.877L26.871,361.624L51.232,367.898L36.469,384.877Z"/>
                    <path d="M80.505,408.258C80.505,408.258 56.344,387.25 40.454,373.435" style="fill:none;stroke:black;stroke-width:5px;"/>
                </g>
            </g>
            <g transform="matrix(0.902563,-0.482835,0.51753,0.366211,2837.88,753.925)">
                <g transform="matrix(0.49766,0.656145,-0.432708,0.754635,2370.58,1158.72)">
                    <path d="M180.142,333.581L204.007,325.626L196.052,349.491L180.142,333.581Z"/>
                    <path d="M153.751,375.882C153.751,375.882 176.39,353.243 191.279,338.354" style="fill:none;stroke:black;stroke-width:5px;"/>
                </g>
            </g>
            <g transform="matrix(-1.07492,0.322658,-0.345843,-0.436145,8637.01,195.88)">
                <g transform="matrix(-0.592695,-0.438473,0.28916,-0.898744,2202.65,2001.45)">
                    <path d="M52.982,500.215L27.871,501.723L41.732,480.73L52.982,500.215Z"/>
                    <path d="M89.422,466.186C89.422,466.186 61.694,482.195 43.459,492.723" style="fill:none;stroke:black;stroke-width:5px;"/>
                </g>
            </g>
            <g transform="matrix(1.0086,0.395495,-0.423915,0.409235,4081.76,-1292.59)">
                <g transform="matrix(0.556126,-0.537456,0.354436,0.843292,2023.03,1285.7)">
                    <path d="M243.921,443.559L258.32,464.186L233.179,463.329L243.921,443.559Z"/>
                    <path d="M195.87,430.254C195.87,430.254 224.003,445.54 242.504,455.593" style="fill:none;stroke:black;stroke-width:5px;"/>
                </g>
            </g>
            <g transform="matrix(0.816261,0.537849,-0.576498,0.331194,4729.2,-1476.96)">
                <g transform="matrix(0.450074,-0.730906,0.482011,0.682478,1984.3,1338.7)">
                    <path d="M204.322,497.145L213.117,520.713L188.986,513.609L204.322,497.145Z"/>
                    <path d="M161.112,472.27C161.112,472.27 184.539,494.093 199.946,508.444" style="fill:none;stroke:black;stroke-width:5px;"/>
                </g>
            </g>
            <g transform="matrix(0.788744,0,0,0.485282,1998.96,-873.072)">
                <text x="4537.59px" y="2231.88px" style="font-family:'PTMono-Bold', 'PT Mono', monospace;font-weight:700;font-size:36px;fill:rgb(255,1,1);">?</text>
            </g>
            <g transform="matrix(0.788744,0,0,0.485282,2160.55,-889.933)">
                <text x="4537.59px" y="2231.88px" style="font-family:'PTMono-Bold', 'PT Mono', monospace;font-weight:700;font-size:36px;fill:rgb(255,1,1);">?</text>
            </g>
            <g transform="matrix(0.788744,0,0,0.485282,2206.01,-817.143)">
                <text x="4537.59px" y="2231.88px" style="font-family:'PTMono-Bold', 'PT Mono', monospace;font-weight:700;font-size:36px;fill:rgb(255,1,1);">?</text>
            </g>
            <g transform="matrix(0.788744,0,0,0.485282,2169.75,-786.819)">
                <text x="4537.59px" y="2231.88px" style="font-family:'PTMono-Bold', 'PT Mono', monospace;font-weight:700;font-size:36px;fill:rgb(255,1,1);">?</text>
            </g>
            <g transform="matrix(0.788744,0,0,0.485282,1999.56,-798.979)">
                <text x="4537.59px" y="2231.88px" style="font-family:'PTMono-Bold', 'PT Mono', monospace;font-weight:700;font-size:36px;fill:rgb(255,1,1);">?</text>
            </g>
            <g transform="matrix(0.788744,0,0,0.485282,2189.15,-934.069)">
                <circle cx="4382.6" cy="2408.5" r="7.5" style="fill:none;stroke:black;stroke-width:3px;stroke-linecap:round;stroke-linejoin:round;stroke-miterlimit:10;"/>
            </g>
            <g transform="matrix(0.788744,0,0,0.485282,2243.25,-908.482)">
                <circle cx="4382.6" cy="2408.5" r="7.5" style="fill:none;stroke:black;stroke-width:3px;stroke-linecap:round;stroke-linejoin:round;stroke-miterlimit:10;"/>
            </g>
            <g transform="matrix(0.788744,0,0,0.485282,2196.84,-911.04)">
                <circle cx="4382.6" cy="2408.5" r="7.5" style="fill:none;stroke:black;stroke-width:3px;stroke-linecap:round;stroke-linejoin:round;stroke-miterlimit:10;"/>
            </g>
            <g transform="matrix(0.788744,0,0,0.485282,2237.33,-950.358)">
                <circle cx="4382.6" cy="2408.5" r="7.5" style="fill:none;stroke:black;stroke-width:3px;stroke-linecap:round;stroke-linejoin:round;stroke-miterlimit:10;"/>
            </g>
            <g transform="matrix(0.788744,0,0,0.485282,2269.69,-927.802)">
                <circle cx="4382.6" cy="2408.5" r="7.5" style="fill:none;stroke:black;stroke-width:3px;stroke-linecap:round;stroke-linejoin:round;stroke-miterlimit:10;"/>
            </g>
            <g transform="matrix(0.788744,0,0,0.485282,4916.2,-994.895)">
                <text x="868.559px" y="2150.67px" style="font-family:'PTSans-Regular', 'PT Sans', sans-serif;font-size:40px;">Векторный</text>
                <text x="905.319px" y="2195.43px" style="font-family:'PTSans-Regular', 'PT Sans', sans-serif;font-size:40px;">объект</text>
            </g>
            <g transform="matrix(0.788744,0,0,0.485282,4917.86,-730.039)">
                <text x="876.779px" y="2150.67px" style="font-family:'PTSans-Bold', 'PT Sans', sans-serif;font-weight:700;font-size:40px;">Покрытие</text>
            </g>
        </g>
    </g>
    <defs>
        <linearGradient id="_Linear1" x1="0" y1="0" x2="1" y2="0" gradientUnits="userSpaceOnUse" gradientTransform="matrix(-132.5,103,-103,-132.5,2345.5,1512)"><stop offset="0" style="stop-color:rgb(218,218,218);stop-opacity:1"/><stop offset="0.42" style="stop-color:rgb(166,166,166);stop-opacity:1"/><stop offset="1" style="stop-color:rgb(55,55,55);stop-opacity:1"/></linearGradient>
    </defs>
</svg>
