<?xml version="1.0" encoding="UTF-8" standalone="no"?>
<!DOCTYPE svg PUBLIC "-//W3C//DTD SVG 1.1//EN" "http://www.w3.org/Graphics/SVG/1.1/DTD/svg11.dtd">
<svg width="100%" height="100%" viewBox="0 0 514 209" version="1.1" xmlns="http://www.w3.org/2000/svg" xmlns:xlink="http://www.w3.org/1999/xlink" xml:space="preserve" xmlns:serif="http://www.serif.com/" style="fill-rule:evenodd;clip-rule:evenodd;stroke-linecap:square;stroke-linejoin:round;stroke-miterlimit:10;">
    <rect id="Geometric-Operations" serif:id="Geometric Operations" x="-173" y="-1722" width="6739" height="2861" style="fill:none;"/>
    <g id="Geometric-Operations1" serif:id="Geometric Operations">
        <path d="M125.129,138.377L305.402,177.576L397.228,101.994" style="fill:none;stroke:rgb(247,0,255);stroke-width:3px;"/>
        <path d="M125.129,138.377L404.061,21.437L397.228,101.994" style="fill:none;stroke:rgb(21,183,183);stroke-width:3px;"/>
        <path d="M10.78,153.611L504.307,87.863" style="fill:none;stroke:black;stroke-width:2px;stroke-linecap:butt;stroke-miterlimit:1.5;stroke-dasharray:2,4,0,0;"/>
        <path d="M405.395,93.224C409.969,97.798 409.969,105.225 405.395,109.799C400.821,114.373 393.395,114.373 388.821,109.799C384.247,105.225 384.247,97.798 388.821,93.224C393.395,88.65 400.821,88.65 405.395,93.224Z"/>
        <path d="M412.348,13.15C416.922,17.724 416.922,25.151 412.348,29.725C407.774,34.299 400.347,34.299 395.773,29.725C391.199,25.151 391.199,17.724 395.773,13.15C400.347,8.576 407.774,8.576 412.348,13.15Z" style="fill:rgb(21,183,183);"/>
        <path d="M62.231,138.113C66.805,142.687 66.805,150.113 62.231,154.687C57.657,159.261 50.23,159.261 45.656,154.687C41.083,150.113 41.083,142.687 45.656,138.113C50.23,133.539 57.657,133.539 62.231,138.113Z" style="fill:rgb(99,174,0);"/>
        <path d="M313.689,169.289C318.263,173.863 318.263,181.289 313.689,185.863C309.115,190.437 301.688,190.437 297.114,185.863C292.541,181.289 292.541,173.863 297.114,169.289C301.688,164.715 309.115,164.715 313.689,169.289Z" style="fill:rgb(247,0,255);"/>
        <path d="M134.719,129.454C139.293,134.027 139.293,141.454 134.719,146.028C130.145,150.602 122.718,150.602 118.144,146.028C113.57,141.454 113.57,134.027 118.144,129.454C122.718,124.88 130.145,124.88 134.719,129.454Z"/>
        <path d="M127.186,138.495L389.28,103.187" style="fill:none;stroke:black;stroke-width:5px;stroke-linecap:butt;stroke-miterlimit:1.5;"/>
        <path d="M135.857,192.294L129.617,192.294L129.617,180.63L129.425,180.63C128.881,181.462 128.145,182.126 127.217,182.622C126.289,183.118 125.089,183.366 123.617,183.366C120.641,183.366 118.361,182.358 116.777,180.342C115.193,178.326 114.401,175.27 114.401,171.174C114.401,166.886 115.481,163.638 117.641,161.43C119.801,159.222 122.897,158.118 126.929,158.118C127.793,158.118 128.657,158.158 129.521,158.238C130.385,158.318 131.209,158.43 131.993,158.574C132.777,158.718 133.505,158.878 134.177,159.054C134.849,159.23 135.409,159.398 135.857,159.558L135.857,192.294ZM125.297,178.086C126.513,178.086 127.449,177.814 128.105,177.27C128.761,176.726 129.265,175.91 129.617,174.822L129.617,164.022C129.137,163.766 128.593,163.598 127.985,163.518C127.377,163.438 126.689,163.398 125.921,163.398C124.225,163.398 122.953,164.038 122.105,165.318C121.257,166.598 120.833,168.47 120.833,170.934C120.833,173.27 121.217,175.046 121.985,176.262C122.753,177.478 123.857,178.086 125.297,178.086Z" style="fill-rule:nonzero;"/>
        <path d="M429.026,127.121C428.034,126.769 427.138,126.593 426.338,126.593C425.218,126.593 424.282,126.889 423.53,127.481C422.778,128.073 422.274,128.833 422.018,129.761L422.018,145.265L415.778,145.265L415.778,121.265L420.626,121.265L421.346,124.433L421.538,124.433C422.082,123.249 422.818,122.337 423.746,121.697C424.674,121.057 425.762,120.737 427.01,120.737C427.842,120.737 428.786,120.913 429.842,121.265L429.026,127.121Z" style="fill-rule:nonzero;"/>
        <path d="M481.323,74.787C481.243,75.241 481.203,75.614 481.203,75.907C481.203,76.414 481.29,76.781 481.463,77.007C481.637,77.234 481.87,77.347 482.163,77.347C482.697,77.347 483.143,77.314 483.503,77.247C483.863,77.181 484.297,77.054 484.803,76.867L484.803,79.147C484.563,79.281 484.283,79.394 483.963,79.487C483.643,79.581 483.317,79.654 482.983,79.707C482.65,79.761 482.317,79.807 481.983,79.847C481.65,79.887 481.35,79.907 481.083,79.907C480.15,79.907 479.403,79.694 478.843,79.267C478.283,78.841 478.003,78.054 478.003,76.907C478.003,76.374 478.083,75.721 478.243,74.947L483.203,51.547L486.203,51.547L481.323,74.787Z" style="fill-rule:nonzero;"/>
        <path d="M424.842,4.973L429.402,4.973L430.122,7.853L430.314,7.853C431.146,6.637 432.13,5.741 433.266,5.165C434.402,4.589 435.786,4.301 437.418,4.301C440.426,4.301 442.682,5.253 444.186,7.157C445.69,9.061 446.442,12.125 446.442,16.349C446.442,18.397 446.202,20.245 445.722,21.893C445.242,23.541 444.53,24.941 443.586,26.093C442.642,27.245 441.49,28.125 440.13,28.733C438.77,29.341 437.21,29.645 435.45,29.645C434.458,29.645 433.642,29.573 433.002,29.429C432.362,29.285 431.722,29.053 431.082,28.733L431.082,38.573L424.842,38.573L424.842,4.973ZM435.546,9.581C434.33,9.581 433.378,9.885 432.69,10.493C432.002,11.101 431.466,12.013 431.082,13.229L431.082,23.213C431.53,23.565 432.018,23.845 432.546,24.053C433.074,24.261 433.77,24.365 434.634,24.365C436.426,24.365 437.77,23.733 438.666,22.469C439.562,21.205 440.01,19.117 440.01,16.205C440.01,14.093 439.658,12.461 438.954,11.309C438.25,10.157 437.114,9.581 435.546,9.581Z" style="fill:rgb(21,183,183);fill-rule:nonzero;"/>
        <path d="M332.126,168.53L336.686,168.53L337.406,171.41L337.598,171.41C338.43,170.194 339.414,169.298 340.55,168.722C341.686,168.146 343.07,167.858 344.702,167.858C347.71,167.858 349.966,168.81 351.47,170.714C352.974,172.618 353.726,175.682 353.726,179.906C353.726,181.954 353.486,183.802 353.006,185.45C352.526,187.098 351.814,188.498 350.87,189.65C349.926,190.802 348.774,191.682 347.414,192.29C346.054,192.898 344.494,193.202 342.734,193.202C341.742,193.202 340.926,193.13 340.286,192.986C339.646,192.842 339.006,192.61 338.366,192.29L338.366,202.13L332.126,202.13L332.126,168.53ZM342.83,173.138C341.614,173.138 340.662,173.442 339.974,174.05C339.286,174.658 338.75,175.57 338.366,176.786L338.366,186.77C338.814,187.122 339.302,187.402 339.83,187.61C340.358,187.818 341.054,187.922 341.918,187.922C343.71,187.922 345.054,187.29 345.95,186.026C346.846,184.762 347.294,182.674 347.294,179.762C347.294,177.65 346.942,176.018 346.238,174.866C345.534,173.714 344.398,173.138 342.83,173.138Z" style="fill:rgb(247,0,255);fill-rule:nonzero;"/>
        <path d="M44.062,168.53L48.622,168.53L49.342,171.41L49.534,171.41C50.366,170.194 51.35,169.298 52.486,168.722C53.622,168.146 55.006,167.858 56.638,167.858C59.646,167.858 61.902,168.81 63.406,170.714C64.91,172.618 65.662,175.682 65.662,179.906C65.662,181.954 65.422,183.802 64.942,185.45C64.462,187.098 63.75,188.498 62.806,189.65C61.862,190.802 60.71,191.682 59.35,192.29C57.99,192.898 56.43,193.202 54.67,193.202C53.678,193.202 52.862,193.13 52.222,192.986C51.582,192.842 50.942,192.61 50.302,192.29L50.302,202.13L44.062,202.13L44.062,168.53ZM54.766,173.138C53.55,173.138 52.598,173.442 51.91,174.05C51.222,174.658 50.686,175.57 50.302,176.786L50.302,186.77C50.75,187.122 51.238,187.402 51.766,187.61C52.294,187.818 52.99,187.922 53.854,187.922C55.646,187.922 56.99,187.29 57.886,186.026C58.782,184.762 59.23,182.674 59.23,179.762C59.23,177.65 58.878,176.018 58.174,174.866C57.47,173.714 56.334,173.138 54.766,173.138Z" style="fill:rgb(99,174,0);fill-rule:nonzero;"/>
    </g>
</svg>
