<?xml version="1.0" encoding="UTF-8" standalone="no"?>
<!DOCTYPE svg PUBLIC "-//W3C//DTD SVG 1.1//EN" "http://www.w3.org/Graphics/SVG/1.1/DTD/svg11.dtd">
<svg width="100%" height="100%" viewBox="0 0 526 224" version="1.1" xmlns="http://www.w3.org/2000/svg" xmlns:xlink="http://www.w3.org/1999/xlink" xml:space="preserve" xmlns:serif="http://www.serif.com/" style="fill-rule:evenodd;clip-rule:evenodd;stroke-linecap:round;stroke-linejoin:round;stroke-miterlimit:1.5;">
    <g transform="matrix(1,0,0,1,-6011,-1500)">
        <g id="Model-transforms" serif:id="Model transforms" transform="matrix(1.36754,0,0,2.10352,2408.87,-371.621)">
            <rect x="2389.05" y="518" width="1471.95" height="512" style="fill:none;"/>
            <g transform="matrix(2.509e-17,-0.266388,0.40975,1.63115e-17,2473.17,1382.9)">
                <g transform="matrix(0.608724,0,0,0.608724,605.316,402.879)">
                    <rect x="1408.73" y="376.404" width="125.464" height="125.464" style="fill:rgb(255,235,51);stroke:black;stroke-width:5.86px;"/>
                </g>
                <g transform="matrix(0.608724,0,0,0.608724,605.316,173.761)">
                    <rect x="1408.73" y="376.404" width="125.464" height="125.464" style="fill:rgb(251,133,255);stroke:black;stroke-width:4.4px;"/>
                </g>
                <g transform="matrix(0.608724,0,0,0.608724,605.316,250.134)">
                    <rect x="1408.73" y="376.404" width="125.464" height="125.464" style="fill:rgb(251,133,255);stroke:black;stroke-width:4.4px;"/>
                </g>
                <g transform="matrix(0.608724,0,0,0.608724,605.316,326.506)">
                    <rect x="1408.73" y="376.404" width="125.464" height="125.464" style="fill:rgb(251,133,255);stroke:black;stroke-width:4.4px;"/>
                </g>
                <g transform="matrix(0.608724,0,0,0.608724,605.316,479.424)">
                    <rect x="1408.73" y="376.404" width="125.464" height="125.464" style="fill:rgb(255,235,51);stroke:black;stroke-width:4.4px;"/>
                </g>
                <g transform="matrix(0.608724,0,0,0.608724,758.061,173.761)">
                    <rect x="1408.73" y="376.404" width="125.464" height="125.464" style="fill:rgb(251,133,255);stroke:black;stroke-width:4.4px;"/>
                </g>
                <g transform="matrix(0.608724,0,0,0.608724,758.061,250.134)">
                    <rect x="1408.73" y="376.404" width="125.464" height="125.464" style="fill:rgb(251,133,255);stroke:black;stroke-width:4.4px;"/>
                </g>
                <g transform="matrix(0.608724,0,0,0.608724,758.061,326.506)">
                    <rect x="1408.73" y="376.404" width="125.464" height="125.464" style="fill:rgb(45,231,231);stroke:black;stroke-width:4.4px;"/>
                </g>
                <g transform="matrix(0.608724,0,0,0.608724,758.061,402.879)">
                    <rect x="1408.73" y="376.404" width="125.464" height="125.464" style="fill:rgb(45,231,231);stroke:black;stroke-width:4.4px;"/>
                </g>
                <g transform="matrix(0.608724,0,0,0.608724,758.061,479.424)">
                    <rect x="1408.73" y="376.404" width="125.464" height="125.464" style="fill:rgb(255,235,51);stroke:black;stroke-width:4.4px;"/>
                </g>
                <g transform="matrix(0.608724,0,0,0.608724,681.689,173.761)">
                    <rect x="1408.73" y="376.404" width="125.464" height="125.464" style="fill:rgb(251,133,255);stroke:black;stroke-width:4.4px;"/>
                </g>
                <g transform="matrix(0.608724,0,0,0.608724,681.689,250.134)">
                    <rect x="1408.73" y="376.404" width="125.464" height="125.464" style="fill:rgb(251,133,255);stroke:black;stroke-width:4.4px;"/>
                </g>
                <g transform="matrix(0.608724,0,0,0.608724,681.689,326.506)">
                    <rect x="1408.73" y="376.404" width="125.464" height="125.464" style="fill:rgb(251,133,255);stroke:black;stroke-width:4.4px;"/>
                </g>
                <g transform="matrix(0.608724,0,0,0.608724,681.689,402.879)">
                    <rect x="1408.73" y="376.404" width="125.464" height="125.464" style="fill:rgb(255,235,51);stroke:black;stroke-width:4.4px;"/>
                </g>
                <g transform="matrix(0.608724,0,0,0.608724,681.689,479.424)">
                    <rect x="1408.73" y="376.404" width="125.464" height="125.464" style="fill:rgb(255,235,51);stroke:black;stroke-width:4.4px;"/>
                </g>
                <g transform="matrix(0.608724,0,0,0.608724,834.434,173.761)">
                    <rect x="1408.73" y="376.404" width="125.464" height="125.464" style="fill:rgb(45,231,231);stroke:black;stroke-width:4.4px;"/>
                </g>
                <g transform="matrix(0.608724,0,0,0.608724,910.722,173.761)">
                    <rect x="1408.73" y="376.404" width="125.464" height="125.464" style="fill:rgb(45,231,231);stroke:black;stroke-width:4.4px;"/>
                </g>
                <g transform="matrix(0.608724,0,0,0.608724,834.434,250.134)">
                    <rect x="1408.73" y="376.404" width="125.464" height="125.464" style="fill:rgb(45,231,231);stroke:black;stroke-width:4.4px;"/>
                </g>
                <g transform="matrix(0.608724,0,0,0.608724,910.722,250.134)">
                    <rect x="1408.73" y="376.404" width="125.464" height="125.464" style="fill:rgb(45,231,231);stroke:black;stroke-width:4.4px;"/>
                </g>
                <g transform="matrix(0.608724,0,0,0.608724,834.434,326.506)">
                    <rect x="1408.73" y="376.404" width="125.464" height="125.464" style="fill:rgb(45,231,231);stroke:black;stroke-width:4.4px;"/>
                </g>
                <g transform="matrix(0.608724,0,0,0.608724,910.722,326.506)">
                    <rect x="1408.73" y="376.404" width="125.464" height="125.464" style="fill:rgb(45,231,231);stroke:black;stroke-width:4.4px;"/>
                </g>
                <g transform="matrix(0.608724,0,0,0.608724,834.434,402.879)">
                    <rect x="1408.73" y="376.404" width="125.464" height="125.464" style="fill:rgb(45,231,231);stroke:black;stroke-width:4.4px;"/>
                </g>
                <g transform="matrix(0.608724,0,0,0.608724,834.434,479.424)">
                    <rect x="1408.73" y="376.404" width="125.464" height="125.464" style="fill:rgb(255,235,51);stroke:black;stroke-width:4.4px;"/>
                </g>
                <g transform="matrix(0.608724,0,0,0.608724,910.722,402.879)">
                    <rect x="1408.73" y="376.404" width="125.464" height="125.464" style="fill:rgb(45,231,231);stroke:black;stroke-width:4.4px;"/>
                </g>
                <g transform="matrix(0.608724,0,0,0.608724,910.722,479.424)">
                    <rect x="1408.73" y="376.404" width="125.464" height="125.464" style="fill:rgb(255,235,51);stroke:black;stroke-width:4.4px;"/>
                </g>
            </g>
            <g transform="matrix(0.213747,1.54074e-33,-1.2326e-32,0.475395,2316.19,218.042)">
                <g transform="matrix(3.42105,-1.10876e-32,5.76661e-32,1,1486.96,1412.97)">
                    <path d="M253.449,99.95L275.949,111.2L253.449,122.45L253.449,99.95Z"/>
                    <path d="M256.949,111.2L257.949,111.2" style="fill:none;stroke:black;stroke-width:5px;stroke-linecap:butt;stroke-linejoin:miter;stroke-miterlimit:1;stroke-dasharray:5,5;"/>
                </g>
            </g>
            <g id="TIN">
            </g>
            <g id="Dots">
            </g>
            <g transform="matrix(2.509e-17,-0.266388,0.40975,1.63115e-17,2692.99,1382.28)">
                <g transform="matrix(2.35773,0,0,2.35773,-5863.03,-1873.46)">
                    <path d="M3203.36,1030.27L3203.36,965.482L3107.18,965.482L3107.18,1062.66L3170.96,1062.66L3170.96,1030.27L3203.36,1030.27Z" style="fill:rgb(251,133,255);stroke:black;stroke-width:1.51px;"/>
                </g>
                <g transform="matrix(2.35773,0,0,2.35773,-5863.03,-1874.55)">
                    <path d="M3170.96,1095.05L3170.96,1030.27L3203.36,1030.27L3203.36,965.482L3268.11,965.482L3268.11,1095.05L3170.96,1095.05Z" style="fill:rgb(45,231,231);stroke:black;stroke-width:1.51px;"/>
                </g>
                <g transform="matrix(2.35773,0,0,2.35773,-5863.03,-1875.81)">
                    <path d="M3170.96,1095.12L3170.96,1063.66L3107.18,1063.66L3107.18,1127.52L3268.11,1127.52L3268.11,1095.12L3170.96,1095.12Z" style="fill:rgb(255,235,51);stroke:black;stroke-width:1.51px;"/>
                </g>
            </g>
        </g>
    </g>
</svg>
