<?xml version="1.0" encoding="UTF-8" standalone="no"?>
<!DOCTYPE svg PUBLIC "-//W3C//DTD SVG 1.1//EN" "http://www.w3.org/Graphics/SVG/1.1/DTD/svg11.dtd">
<svg width="100%" height="100%" viewBox="0 0 617 484" version="1.1" xmlns="http://www.w3.org/2000/svg" xmlns:xlink="http://www.w3.org/1999/xlink" xml:space="preserve" xmlns:serif="http://www.serif.com/" style="fill-rule:evenodd;clip-rule:evenodd;stroke-linecap:square;stroke-linejoin:bevel;stroke-miterlimit:10;">
    <rect id="TIN-details" serif:id="TIN details" x="-201" y="-21" width="927" height="553.306" style="fill:none;"/>
    <path d="M331.68,182.599L311.13,164.789L326.112,91.756L395.953,145.09L380.464,172.726L331.68,182.599Z" style="fill:rgb(252,206,254);fill-rule:nonzero;stroke:rgb(255,7,189);stroke-width:6px;"/>
    <g id="Voronoy">
        <path d="M229.174,176.497L229.174,65.212L317.485,65.212L326.112,91.756L311.13,164.789L229.174,176.497Z" style="fill:none;fill-rule:nonzero;stroke:rgb(35,35,35);stroke-width:1.5px;"/>
        <path d="M395.953,145.09L326.112,91.756L317.485,65.212L443.501,65.212L439.377,125.017L395.953,145.09Z" style="fill:none;fill-rule:nonzero;stroke:rgb(35,35,35);stroke-width:1.5px;"/>
        <path d="M517.908,156.676L467.628,153.268L439.377,125.017L443.501,65.212L610.506,65.212L610.506,80.648L517.908,156.676Z" style="fill:none;fill-rule:nonzero;stroke:rgb(35,35,35);stroke-width:1.5px;"/>
        <path d="M551.028,233.848L536.661,226.795L517.908,156.676L610.506,80.648L610.506,223.414L551.028,233.848Z" style="fill:none;fill-rule:nonzero;stroke:rgb(35,35,35);stroke-width:1.5px;"/>
        <path d="M610.506,343.863L598.887,341.442L547.402,300.94L551.028,233.848L610.506,223.414L610.506,343.863Z" style="fill:none;fill-rule:nonzero;stroke:rgb(35,35,35);stroke-width:1.5px;"/>
        <path d="M564.412,475.653L508.95,386.431L512.15,377.897L598.887,341.442L610.506,343.863L610.506,475.653L564.412,475.653Z" style="fill:none;fill-rule:nonzero;stroke:rgb(35,35,35);stroke-width:1.5px;"/>
        <path d="M229.174,475.653L229.174,376.083L343.069,366.848L352.261,393.718L298.688,475.653L229.174,475.653Z" style="fill:none;fill-rule:nonzero;stroke:rgb(35,35,35);stroke-width:1.5px;"/>
        <path d="M229.174,337.769L229.174,216.762L310.353,255.983L307.249,292.308L229.174,337.769Z" style="fill:none;fill-rule:nonzero;stroke:rgb(35,35,35);stroke-width:1.5px;"/>
        <path d="M310.353,255.983L229.174,216.762L229.174,176.497L311.13,164.789L331.68,182.599L324.812,245.176L310.353,255.983Z" style="fill:none;fill-rule:nonzero;stroke:rgb(35,35,35);stroke-width:1.5px;"/>
        <path d="M402.843,222.909L380.464,172.726L395.953,145.09L439.377,125.017L467.628,153.268L452.679,213.065L402.843,222.909Z" style="fill:none;fill-rule:nonzero;stroke:rgb(35,35,35);stroke-width:1.5px;"/>
        <path d="M525.748,230.809L457.961,219.511L452.679,213.065L467.628,153.268L517.908,156.676L536.661,226.795L525.748,230.809Z" style="fill:none;fill-rule:nonzero;stroke:rgb(35,35,35);stroke-width:1.5px;"/>
        <path d="M514.893,307.113L493.944,292.099L489.836,275.427L525.748,230.809L536.661,226.795L551.028,233.848L547.402,300.94L514.893,307.113Z" style="fill:none;fill-rule:nonzero;stroke:rgb(35,35,35);stroke-width:1.5px;"/>
        <path d="M431.073,282.72L398.822,276.104L387.973,250.79L402.843,222.909L452.679,213.065L457.961,219.511L461.123,259.347L431.073,282.72Z" style="fill:none;fill-rule:nonzero;stroke:rgb(35,35,35);stroke-width:1.5px;"/>
        <path d="M387.973,250.79L324.812,245.176L331.68,182.599L380.464,172.726L402.843,222.909L387.973,250.79Z" style="fill:none;fill-rule:nonzero;stroke:rgb(35,35,35);stroke-width:1.5px;"/>
        <path d="M351.522,337.865L307.249,292.308L310.353,255.983L324.812,245.176L387.973,250.79L398.822,276.104L376.971,325.874L351.522,337.865Z" style="fill:none;fill-rule:nonzero;stroke:rgb(35,35,35);stroke-width:1.5px;"/>
        <path d="M384.853,406.755L352.261,393.718L343.069,366.848L351.522,337.865L376.971,325.874L431.551,352.361L434.345,381.235L384.853,406.755Z" style="fill:none;fill-rule:nonzero;stroke:rgb(35,35,35);stroke-width:1.5px;"/>
        <path d="M461.18,403.291L434.345,381.235L431.551,352.361L451.074,332.507L500.91,349.797L512.15,377.897L508.95,386.431L461.18,403.291Z" style="fill:none;fill-rule:nonzero;stroke:rgb(35,35,35);stroke-width:1.5px;"/>
        <path d="M500.91,349.797L451.074,332.507L453.116,316.786L493.944,292.099L514.893,307.113L500.91,349.797Z" style="fill:none;fill-rule:nonzero;stroke:rgb(35,35,35);stroke-width:1.5px;"/>
        <path d="M512.15,377.897L500.91,349.797L514.893,307.113L547.402,300.94L598.887,341.442L512.15,377.897Z" style="fill:none;fill-rule:nonzero;stroke:rgb(35,35,35);stroke-width:1.5px;"/>
        <path d="M229.174,376.083L229.174,337.769L307.249,292.308L351.522,337.865L343.069,366.848L229.174,376.083Z" style="fill:none;fill-rule:nonzero;stroke:rgb(35,35,35);stroke-width:1.5px;"/>
        <path d="M431.551,352.361L376.971,325.874L398.822,276.104L431.073,282.72L453.116,316.786L451.074,332.507L431.551,352.361Z" style="fill:none;fill-rule:nonzero;stroke:rgb(35,35,35);stroke-width:1.5px;"/>
        <path d="M453.116,316.786L431.073,282.72L461.123,259.347L489.836,275.427L493.944,292.099L453.116,316.786Z" style="fill:none;fill-rule:nonzero;stroke:rgb(35,35,35);stroke-width:1.5px;"/>
        <path d="M489.836,275.427L461.123,259.347L457.961,219.511L525.748,230.809L489.836,275.427Z" style="fill:none;fill-rule:nonzero;stroke:rgb(35,35,35);stroke-width:1.5px;"/>
        <path d="M451.532,475.653L461.18,403.291L508.95,386.431L564.412,475.653L451.532,475.653Z" style="fill:none;fill-rule:nonzero;stroke:rgb(35,35,35);stroke-width:1.5px;"/>
        <path d="M298.688,475.653L352.261,393.718L384.853,406.755L410.814,475.653L298.688,475.653Z" style="fill:none;fill-rule:nonzero;stroke:rgb(35,35,35);stroke-width:1.5px;"/>
        <path d="M410.814,475.653L384.853,406.755L434.345,381.235L461.18,403.291L451.532,475.653L410.814,475.653Z" style="fill:none;fill-rule:nonzero;stroke:rgb(35,35,35);stroke-width:1.5px;"/>
    </g>
    <rect x="229.174" y="65.212" width="381.332" height="410.788" style="fill:none;stroke:white;stroke-width:4px;stroke-linecap:butt;stroke-linejoin:miter;"/>
    <g id="Dots">
        <path d="M306.982,204.532C306.982,210.747 301.936,215.793 295.721,215.793C289.506,215.793 284.461,210.747 284.461,204.532C284.461,198.317 289.506,193.272 295.721,193.272C301.936,193.272 306.982,198.317 306.982,204.532Z"/>
        <path d="M359.54,143.888C359.54,150.103 354.495,155.149 348.28,155.149C342.065,155.149 337.019,150.103 337.019,143.888C337.019,137.673 342.065,132.627 348.28,132.627C354.495,132.627 359.54,137.673 359.54,143.888Z"/>
        <path d="M433.122,185.126C433.122,191.341 428.077,196.387 421.862,196.387C415.647,196.387 410.601,191.341 410.601,185.126C410.601,178.911 415.647,173.865 421.862,173.865C428.077,173.865 433.122,178.911 433.122,185.126Z"/>
        <path d="M504.278,202.915C504.278,209.13 499.233,214.176 493.018,214.176C486.803,214.176 481.757,209.13 481.757,202.915C481.757,196.7 486.803,191.655 493.018,191.655C499.233,191.655 504.278,196.7 504.278,202.915Z"/>
        <path d="M530.153,273.263C530.153,279.478 525.108,284.523 518.893,284.523C512.678,284.523 507.632,279.478 507.632,273.263C507.632,267.048 512.678,262.002 518.893,262.002C525.108,262.002 530.153,267.048 530.153,273.263Z"/>
        <path d="M446.06,250.622C446.06,256.837 441.014,261.883 434.799,261.883C428.584,261.883 423.538,256.837 423.538,250.622C423.538,244.407 428.584,239.361 434.799,239.361C441.014,239.361 446.06,244.407 446.06,250.622Z"/>
        <path d="M373.287,211.81C373.287,218.025 368.241,223.07 362.026,223.07C355.811,223.07 350.765,218.025 350.765,211.81C350.765,205.595 355.811,200.549 362.026,200.549C368.241,200.549 373.287,205.595 373.287,211.81Z"/>
        <path d="M366.818,284.583C366.818,290.798 361.772,295.844 355.557,295.844C349.342,295.844 344.296,290.798 344.296,284.583C344.296,278.368 349.342,273.322 355.557,273.322C361.772,273.322 366.818,278.368 366.818,284.583Z"/>
        <path d="M406.439,368.676C406.439,374.891 401.393,379.937 395.178,379.937C388.963,379.937 383.917,374.891 383.917,368.676C383.917,362.462 388.963,357.416 395.178,357.416C401.393,357.416 406.439,362.462 406.439,368.676Z"/>
        <path d="M481.638,361.399C481.638,367.614 476.592,372.66 470.377,372.66C464.162,372.66 459.116,367.614 459.116,361.399C459.116,355.184 464.162,350.138 470.377,350.138C476.592,350.138 481.638,355.184 481.638,361.399Z"/>
        <path d="M495.384,321.778C495.384,327.993 490.338,333.039 484.123,333.039C477.908,333.039 472.863,327.993 472.863,321.778C472.863,315.563 477.908,310.517 484.123,310.517C490.338,310.517 495.384,315.563 495.384,321.778Z"/>
        <path d="M542.282,337.141C542.282,343.356 537.236,348.402 531.022,348.402C524.807,348.402 519.761,343.356 519.761,337.141C519.761,330.926 524.807,325.881 531.022,325.881C537.236,325.881 542.282,330.926 542.282,337.141Z"/>
        <path d="M309.408,340.376C309.408,346.591 304.362,351.636 298.147,351.636C291.932,351.636 286.886,346.591 286.886,340.376C286.886,334.161 291.932,329.115 298.147,329.115C304.362,329.115 309.408,334.161 309.408,340.376Z"/>
        <path d="M433.122,313.692C433.122,319.907 428.077,324.953 421.862,324.953C415.647,324.953 410.601,319.907 410.601,313.692C410.601,307.477 415.647,302.432 421.862,302.432C428.077,302.432 433.122,307.477 433.122,313.692Z"/>
        <path d="M474.361,287.009C474.361,293.224 469.315,298.269 463.1,298.269C456.885,298.269 451.839,293.224 451.839,287.009C451.839,280.794 456.885,275.748 463.1,275.748C469.315,275.748 474.361,280.794 474.361,287.009Z"/>
        <path d="M497.001,246.579C497.001,252.794 491.955,257.84 485.74,257.84C479.525,257.84 474.48,252.794 474.48,246.579C474.48,240.364 479.525,235.318 485.74,235.318C491.955,235.318 497.001,240.364 497.001,246.579Z"/>
        <path d="M433.122,420.426C433.122,426.641 428.077,431.687 421.862,431.687C415.647,431.687 410.601,426.641 410.601,420.426C410.601,414.211 415.647,409.166 421.862,409.166C428.077,409.166 433.122,414.211 433.122,420.426Z"/>
    </g>
    <g id="Outer-dots" serif:id="Outer dots">
        <path d="M296.47,130.951C296.47,137.165 291.425,142.211 285.21,142.211C278.995,142.211 273.949,137.165 273.949,130.951C273.949,124.736 278.995,119.69 285.21,119.69C291.425,119.69 296.47,124.736 296.47,130.951Z"/>
        <path d="M393.501,99.415C393.501,105.63 388.456,110.676 382.241,110.676C376.026,110.676 370.98,105.63 370.98,99.415C370.98,93.201 376.026,88.155 382.241,88.155C388.456,88.155 393.501,93.201 393.501,99.415Z"/>
        <path d="M510.747,107.501C510.747,113.716 505.701,118.762 499.486,118.762C493.272,118.762 488.226,113.716 488.226,107.501C488.226,101.286 493.272,96.241 499.486,96.241C505.701,96.241 510.747,101.286 510.747,107.501Z"/>
        <path d="M573.817,184.318C573.817,190.533 568.772,195.578 562.557,195.578C556.342,195.578 551.296,190.533 551.296,184.318C551.296,178.103 556.342,173.057 562.557,173.057C568.772,173.057 573.817,178.103 573.817,184.318Z"/>
        <path d="M589.989,276.497C589.989,282.712 584.943,287.758 578.728,287.758C572.514,287.758 567.468,282.712 567.468,276.497C567.468,270.282 572.514,265.236 578.728,265.236C584.943,265.236 589.989,270.282 589.989,276.497Z"/>
        <path d="M272.213,276.497C272.213,282.712 267.167,287.758 260.952,287.758C254.737,287.758 249.691,282.712 249.691,276.497C249.691,270.282 254.737,265.236 260.952,265.236C267.167,265.236 272.213,270.282 272.213,276.497Z"/>
        <path d="M565.731,392.934C565.731,399.149 560.686,404.195 554.471,404.195C548.256,404.195 543.21,399.149 543.21,392.934C543.21,386.719 548.256,381.674 554.471,381.674C560.686,381.674 565.731,386.719 565.731,392.934Z"/>
        <path d="M505.896,430.129C505.896,436.344 500.85,441.39 494.635,441.39C488.42,441.39 483.374,436.344 483.374,430.129C483.374,423.915 488.42,418.869 494.635,418.869C500.85,418.869 505.896,423.915 505.896,430.129Z"/>
        <path d="M377.33,441.45C377.33,447.665 372.284,452.71 366.069,452.71C359.854,452.71 354.808,447.665 354.808,441.45C354.808,435.235 359.854,430.189 366.069,430.189C372.284,430.189 377.33,435.235 377.33,441.45Z"/>
        <path d="M314.259,400.212C314.259,406.427 309.214,411.472 302.999,411.472C296.784,411.472 291.738,406.427 291.738,400.212C291.738,393.997 296.784,388.951 302.999,388.951C309.214,388.951 314.259,393.997 314.259,400.212Z"/>
    </g>
    <g id="Labels">
        <rect x="337.157" y="1.566" width="181" height="48.774" style="fill:rgb(252,206,254);"/>
        <g>
            <path d="M183.233,276.925L249.024,276.925" style="fill:none;"/>
            <path d="M231.024,267.925L249.024,276.925L231.024,285.925L231.024,267.925Z" style="fill:rgb(38,38,38);"/>
            <path d="M183.233,276.925L234.624,276.925" style="fill:none;stroke:rgb(38,38,38);stroke-width:4px;stroke-linecap:butt;stroke-linejoin:round;stroke-miterlimit:1.5;stroke-dasharray:4,4;"/>
        </g>
        <g>
            <path d="M183.233,120.701C231.393,118.338 252.586,139.169 262.5,169.701" style="fill:rgb(252,252,252);"/>
            <path d="M264.054,149.637L262.5,169.701L247.381,156.419L264.054,149.637Z" style="fill:rgb(38,38,38);"/>
            <path d="M183.233,120.701C223.993,118.701 245.436,133.315 257.074,156.363" style="fill:none;stroke:rgb(38,38,38);stroke-width:4px;stroke-linecap:butt;stroke-linejoin:round;stroke-miterlimit:1.5;stroke-dasharray:4,4;"/>
        </g>
        <path d="M384.793,147.407L364.68,148.09L376.202,131.59L384.793,147.407Z"/>
        <path d="M438.506,50.414C438.982,88.935 413.095,120.064 377.334,141.217" style="fill:none;stroke:black;stroke-width:4px;stroke-linecap:butt;stroke-linejoin:miter;stroke-miterlimit:1;stroke-dasharray:4,4;"/>
        <path d="M62.111,101.759C63.226,101.495 64.429,101.319 65.719,101.231C67.01,101.143 68.286,101.099 69.547,101.099C70.897,101.099 72.268,101.231 73.661,101.495C75.055,101.759 76.323,102.243 77.467,102.947C78.611,103.651 79.543,104.619 80.261,105.851C80.98,107.083 81.339,108.653 81.339,110.559C81.339,112.437 81.002,114.021 80.327,115.311C79.653,116.602 78.758,117.651 77.643,118.457C76.529,119.264 75.253,119.843 73.815,120.195C72.378,120.547 70.897,120.723 69.371,120.723L68.645,120.723C68.308,120.723 67.956,120.716 67.589,120.701C67.223,120.687 66.863,120.665 66.511,120.635C66.159,120.606 65.91,120.577 65.763,120.547L65.763,132.251L62.111,132.251L62.111,101.759ZM69.635,104.267C68.873,104.267 68.139,104.282 67.435,104.311C66.731,104.341 66.174,104.414 65.763,104.531L65.763,117.291C65.91,117.35 66.145,117.387 66.467,117.401C66.79,117.416 67.127,117.431 67.479,117.445C67.831,117.46 68.169,117.467 68.491,117.467L69.195,117.467C70.193,117.467 71.183,117.372 72.165,117.181C73.148,116.991 74.035,116.646 74.827,116.147C75.619,115.649 76.257,114.945 76.741,114.035C77.225,113.126 77.467,111.967 77.467,110.559C77.467,109.357 77.24,108.352 76.785,107.545C76.331,106.739 75.729,106.093 74.981,105.609C74.233,105.125 73.39,104.781 72.451,104.575C71.513,104.37 70.574,104.267 69.635,104.267Z" style="fill-rule:nonzero;"/>
        <path d="M102.415,130.491C101.535,131.195 100.428,131.753 99.093,132.163C97.759,132.574 96.343,132.779 94.847,132.779C93.175,132.779 91.723,132.508 90.491,131.965C89.259,131.423 88.247,130.645 87.455,129.633C86.663,128.621 86.077,127.411 85.695,126.003C85.314,124.595 85.123,123.011 85.123,121.251C85.123,117.497 85.959,114.637 87.631,112.671C89.303,110.706 91.694,109.723 94.803,109.723C95.801,109.723 96.798,109.833 97.795,110.053C98.793,110.273 99.687,110.691 100.479,111.307C101.271,111.923 101.917,112.796 102.415,113.925C102.914,115.055 103.163,116.543 103.163,118.391C103.163,119.359 103.075,120.43 102.899,121.603L88.775,121.603C88.775,122.894 88.907,124.038 89.171,125.035C89.435,126.033 89.846,126.876 90.403,127.565C90.961,128.255 91.687,128.783 92.581,129.149C93.476,129.516 94.569,129.699 95.859,129.699C96.857,129.699 97.854,129.523 98.851,129.171C99.849,128.819 100.597,128.409 101.095,127.939L102.415,130.491ZM94.847,112.803C93.117,112.803 91.731,113.258 90.689,114.167C89.648,115.077 89.025,116.631 88.819,118.831L99.731,118.831C99.731,116.602 99.306,115.04 98.455,114.145C97.605,113.251 96.402,112.803 94.847,112.803Z" style="fill-rule:nonzero;"/>
        <path d="M110.731,114.167C111.699,112.759 112.77,111.769 113.943,111.197C115.117,110.625 116.583,110.339 118.343,110.339C121.042,110.339 123.117,111.219 124.569,112.979C126.021,114.739 126.747,117.335 126.747,120.767C126.747,124.727 125.904,127.719 124.217,129.743C122.531,131.767 120.177,132.779 117.155,132.779C113.929,132.779 111.509,131.665 109.895,129.435C108.282,127.206 107.475,123.701 107.475,118.919C107.475,116.397 107.6,114.241 107.849,112.451C108.099,110.662 108.465,109.151 108.949,107.919C109.433,106.687 110.02,105.705 110.709,104.971C111.399,104.238 112.176,103.659 113.041,103.233C113.907,102.808 114.853,102.507 115.879,102.331C116.906,102.155 118.006,102.009 119.179,101.891C120.705,101.745 121.9,101.576 122.765,101.385C123.631,101.195 124.327,100.85 124.855,100.351L125.251,103.519C124.958,103.783 124.635,104.003 124.283,104.179C123.931,104.355 123.506,104.502 123.007,104.619C122.509,104.737 121.915,104.839 121.225,104.927C120.536,105.015 119.737,105.089 118.827,105.147C117.566,105.235 116.459,105.389 115.505,105.609C114.552,105.829 113.731,106.255 113.041,106.885C112.352,107.516 111.809,108.411 111.413,109.569C111.017,110.728 110.746,112.261 110.599,114.167L110.731,114.167ZM111.127,121.295C111.127,122.41 111.245,123.481 111.479,124.507C111.714,125.534 112.073,126.436 112.557,127.213C113.041,127.991 113.665,128.599 114.427,129.039C115.19,129.479 116.085,129.699 117.111,129.699C119.135,129.699 120.639,128.973 121.621,127.521C122.604,126.069 123.095,123.921 123.095,121.075C123.095,119.961 122.993,118.934 122.787,117.995C122.582,117.057 122.259,116.243 121.819,115.553C121.379,114.864 120.822,114.336 120.147,113.969C119.473,113.603 118.666,113.419 117.727,113.419C115.439,113.39 113.767,114.057 112.711,115.421C111.655,116.785 111.127,118.743 111.127,121.295Z" style="fill-rule:nonzero;"/>
        <path d="M132.291,110.251L134.711,110.251L135.371,112.891L135.547,112.891C136.222,111.865 137.095,111.08 138.165,110.537C139.236,109.995 140.461,109.723 141.839,109.723C144.773,109.723 146.958,110.589 148.395,112.319C149.833,114.05 150.551,116.881 150.551,120.811C150.551,122.659 150.309,124.324 149.825,125.805C149.341,127.287 148.659,128.541 147.779,129.567C146.899,130.594 145.836,131.386 144.589,131.943C143.343,132.501 141.957,132.779 140.431,132.779C139.346,132.779 138.488,132.713 137.857,132.581C137.227,132.449 136.545,132.222 135.811,131.899L135.811,141.051L132.291,141.051L132.291,110.251ZM141.179,112.803C139.683,112.803 138.503,113.192 137.637,113.969C136.772,114.747 136.163,115.927 135.811,117.511L135.811,128.423C136.339,128.834 136.941,129.149 137.615,129.369C138.29,129.589 139.185,129.699 140.299,129.699C142.323,129.699 143.929,128.944 145.117,127.433C146.305,125.923 146.899,123.701 146.899,120.767C146.899,119.565 146.797,118.472 146.591,117.489C146.386,116.507 146.056,115.671 145.601,114.981C145.147,114.292 144.56,113.757 143.841,113.375C143.123,112.994 142.235,112.803 141.179,112.803Z" style="fill-rule:nonzero;"/>
        <path d="M154.863,121.251C154.863,117.526 155.692,114.673 157.349,112.693C159.007,110.713 161.39,109.723 164.499,109.723C166.142,109.723 167.572,109.995 168.789,110.537C170.007,111.08 171.011,111.857 171.803,112.869C172.595,113.881 173.182,115.099 173.563,116.521C173.945,117.944 174.135,119.521 174.135,121.251C174.135,124.977 173.307,127.829 171.649,129.809C169.992,131.789 167.609,132.779 164.499,132.779C162.857,132.779 161.427,132.508 160.209,131.965C158.992,131.423 157.987,130.645 157.195,129.633C156.403,128.621 155.817,127.404 155.435,125.981C155.054,124.559 154.863,122.982 154.863,121.251ZM158.515,121.251C158.515,122.366 158.625,123.437 158.845,124.463C159.065,125.49 159.41,126.385 159.879,127.147C160.349,127.91 160.965,128.526 161.727,128.995C162.49,129.465 163.414,129.699 164.499,129.699C168.489,129.729 170.483,126.913 170.483,121.251C170.483,120.107 170.373,119.022 170.153,117.995C169.933,116.969 169.589,116.074 169.119,115.311C168.65,114.549 168.034,113.94 167.271,113.485C166.509,113.031 165.585,112.803 164.499,112.803C160.51,112.774 158.515,115.59 158.515,121.251Z" style="fill-rule:nonzero;"/>
        <path d="M351.785,24.066C351.785,18.933 352.87,14.995 355.041,12.252C357.211,9.51 360.306,8.138 364.325,8.138C366.495,8.138 368.373,8.52 369.957,9.282C371.541,10.045 372.853,11.123 373.895,12.516C374.936,13.91 375.706,15.582 376.205,17.532C376.703,19.483 376.953,21.661 376.953,24.066C376.953,29.2 375.86,33.138 373.675,35.88C371.489,38.623 368.373,39.994 364.325,39.994C362.183,39.994 360.328,39.613 358.759,38.85C357.189,38.088 355.884,37.01 354.843,35.616C353.801,34.223 353.031,32.551 352.533,30.6C352.034,28.65 351.785,26.472 351.785,24.066ZM355.657,24.066C355.657,25.768 355.825,27.381 356.163,28.906C356.5,30.432 357.021,31.774 357.725,32.932C358.429,34.091 359.331,35.015 360.431,35.704C361.531,36.394 362.829,36.738 364.325,36.738C367.053,36.738 369.194,35.704 370.749,33.636C372.303,31.568 373.081,28.378 373.081,24.066C373.081,22.394 372.912,20.788 372.575,19.248C372.237,17.708 371.709,16.359 370.991,15.2C370.272,14.042 369.363,13.118 368.263,12.428C367.163,11.739 365.85,11.394 364.325,11.394C361.626,11.394 359.507,12.428 357.967,14.496C356.427,16.564 355.657,19.754 355.657,24.066Z" style="fill-rule:nonzero;"/>
        <path d="M384.829,21.382C385.797,19.974 386.867,18.984 388.041,18.412C389.214,17.84 390.681,17.554 392.441,17.554C395.139,17.554 397.215,18.434 398.667,20.194C400.119,21.954 400.845,24.55 400.845,27.982C400.845,31.942 400.001,34.934 398.315,36.958C396.628,38.982 394.274,39.994 391.253,39.994C388.026,39.994 385.606,38.88 383.993,36.65C382.379,34.421 381.573,30.916 381.573,26.134C381.573,23.612 381.697,21.456 381.947,19.666C382.196,17.877 382.563,16.366 383.047,15.134C383.531,13.902 384.117,12.92 384.807,12.186C385.496,11.453 386.273,10.874 387.139,10.448C388.004,10.023 388.95,9.722 389.977,9.546C391.003,9.37 392.103,9.224 393.277,9.106C394.802,8.96 395.997,8.791 396.863,8.6C397.728,8.41 398.425,8.065 398.953,7.566L399.349,10.734C399.055,10.998 398.733,11.218 398.381,11.394C398.029,11.57 397.603,11.717 397.105,11.834C396.606,11.952 396.012,12.054 395.323,12.142C394.633,12.23 393.834,12.304 392.925,12.362C391.663,12.45 390.556,12.604 389.603,12.824C388.649,13.044 387.828,13.47 387.139,14.1C386.449,14.731 385.907,15.626 385.511,16.784C385.115,17.943 384.843,19.476 384.697,21.382L384.829,21.382ZM385.225,28.51C385.225,29.625 385.342,30.696 385.577,31.722C385.811,32.749 386.171,33.651 386.655,34.428C387.139,35.206 387.762,35.814 388.525,36.254C389.287,36.694 390.182,36.914 391.209,36.914C393.233,36.914 394.736,36.188 395.719,34.736C396.701,33.284 397.193,31.136 397.193,28.29C397.193,27.176 397.09,26.149 396.885,25.21C396.679,24.272 396.357,23.458 395.917,22.768C395.477,22.079 394.919,21.551 394.245,21.184C393.57,20.818 392.763,20.634 391.825,20.634C389.537,20.605 387.865,21.272 386.809,22.636C385.753,24 385.225,25.958 385.225,28.51Z" style="fill-rule:nonzero;"/>
        <path d="M418.225,20.546L411.845,20.546C411.757,21.778 411.669,23.106 411.581,24.528C411.493,25.951 411.361,27.374 411.185,28.796C411.009,30.219 410.774,31.583 410.481,32.888C410.187,34.194 409.813,35.345 409.359,36.342C408.904,37.34 408.347,38.139 407.687,38.74C407.027,39.342 406.242,39.642 405.333,39.642C404.775,39.642 404.291,39.613 403.881,39.554C403.47,39.496 403.103,39.393 402.781,39.246L403.309,36.298C403.661,36.416 404.042,36.474 404.453,36.474C405.039,36.474 405.567,36.225 406.037,35.726C406.506,35.228 406.917,34.282 407.269,32.888C407.621,31.495 407.914,29.566 408.149,27.102C408.383,24.638 408.545,21.426 408.633,17.466L421.745,17.466L421.745,39.466L418.225,39.466L418.225,20.546Z" style="fill-rule:nonzero;"/>
        <path d="M428.169,19.094C429.283,18.42 430.581,17.921 432.063,17.598C433.544,17.276 435.091,17.114 436.705,17.114C438.23,17.114 439.455,17.32 440.379,17.73C441.303,18.141 442.007,18.676 442.491,19.336C442.975,19.996 443.297,20.722 443.459,21.514C443.62,22.306 443.701,23.098 443.701,23.89C443.701,25.65 443.657,27.366 443.569,29.038C443.481,30.71 443.437,32.294 443.437,33.79C443.437,34.876 443.481,35.902 443.569,36.87C443.657,37.838 443.818,38.733 444.053,39.554L441.457,39.554L440.533,36.474L440.313,36.474C440.049,36.885 439.719,37.288 439.323,37.684C438.927,38.08 438.45,38.432 437.893,38.74C437.335,39.048 436.69,39.305 435.957,39.51C435.223,39.716 434.387,39.818 433.449,39.818C432.51,39.818 431.637,39.672 430.831,39.378C430.024,39.085 429.327,38.667 428.741,38.124C428.154,37.582 427.692,36.929 427.355,36.166C427.017,35.404 426.849,34.538 426.849,33.57C426.849,32.28 427.113,31.202 427.641,30.336C428.169,29.471 428.909,28.782 429.863,28.268C430.816,27.755 431.96,27.388 433.295,27.168C434.629,26.948 436.103,26.838 437.717,26.838L438.927,26.838C439.323,26.838 439.726,26.868 440.137,26.926C440.225,26.046 440.269,25.254 440.269,24.55C440.269,22.937 439.946,21.808 439.301,21.162C438.655,20.517 437.482,20.194 435.781,20.194C435.282,20.194 434.747,20.231 434.175,20.304C433.603,20.378 433.016,20.48 432.415,20.612C431.813,20.744 431.241,20.906 430.699,21.096C430.156,21.287 429.679,21.5 429.269,21.734L428.169,19.094ZM434.417,36.738C435.238,36.738 435.971,36.628 436.617,36.408C437.262,36.188 437.819,35.91 438.289,35.572C438.758,35.235 439.147,34.861 439.455,34.45C439.763,34.04 439.99,33.644 440.137,33.262L440.137,29.61C439.726,29.581 439.308,29.559 438.883,29.544C438.457,29.53 438.039,29.522 437.629,29.522C436.719,29.522 435.832,29.574 434.967,29.676C434.101,29.779 433.339,29.97 432.679,30.248C432.019,30.527 431.491,30.908 431.095,31.392C430.699,31.876 430.501,32.485 430.501,33.218C430.501,34.245 430.867,35.088 431.601,35.748C432.334,36.408 433.273,36.738 434.417,36.738Z" style="fill-rule:nonzero;"/>
        <path d="M465.349,38.014C464.469,38.66 463.427,39.151 462.225,39.488C461.022,39.826 459.761,39.994 458.441,39.994C456.739,39.994 455.302,39.723 454.129,39.18C452.955,38.638 451.995,37.86 451.247,36.848C450.499,35.836 449.956,34.619 449.619,33.196C449.281,31.774 449.113,30.197 449.113,28.466C449.113,24.741 449.934,21.888 451.577,19.908C453.219,17.928 455.581,16.938 458.661,16.938C460.069,16.938 461.264,17.048 462.247,17.268C463.229,17.488 464.117,17.804 464.909,18.214L463.897,21.25C463.222,20.869 462.474,20.568 461.653,20.348C460.831,20.128 459.951,20.018 459.013,20.018C454.847,20.018 452.765,22.834 452.765,28.466C452.765,29.581 452.875,30.644 453.095,31.656C453.315,32.668 453.681,33.563 454.195,34.34C454.708,35.118 455.383,35.741 456.219,36.21C457.055,36.68 458.089,36.914 459.321,36.914C460.377,36.914 461.323,36.753 462.159,36.43C462.995,36.108 463.677,35.741 464.205,35.33L465.349,38.014Z" style="fill-rule:nonzero;"/>
        <path d="M484.181,20.546L477.317,20.546L477.317,39.466L473.797,39.466L473.797,20.546L466.933,20.546L466.933,17.466L484.181,17.466L484.181,20.546Z" style="fill-rule:nonzero;"/>
        <path d="M491.177,36.386C492.262,36.562 493.303,36.65 494.301,36.65C496.149,36.65 497.513,36.291 498.393,35.572C499.273,34.854 499.713,33.834 499.713,32.514C499.713,31.341 499.287,30.373 498.437,29.61C497.586,28.848 496.251,28.466 494.433,28.466C493.934,28.466 493.391,28.481 492.805,28.51C492.218,28.54 491.675,28.628 491.177,28.774L491.177,36.386ZM491.177,25.87C491.881,25.753 492.555,25.672 493.201,25.628C493.846,25.584 494.462,25.562 495.049,25.562C496.574,25.562 497.865,25.731 498.921,26.068C499.977,26.406 500.835,26.868 501.495,27.454C502.155,28.041 502.631,28.738 502.925,29.544C503.218,30.351 503.365,31.209 503.365,32.118C503.365,34.788 502.565,36.724 500.967,37.926C499.368,39.129 496.882,39.73 493.509,39.73C491.631,39.73 489.681,39.642 487.657,39.466L487.657,17.466L491.177,17.466L491.177,25.87Z" style="fill-rule:nonzero;"/>
        <path d="M25.015,265.202C25.015,265.935 24.898,266.683 24.663,267.446C24.429,268.209 24.077,268.92 23.607,269.58C23.138,270.24 22.537,270.819 21.803,271.318C21.07,271.817 20.205,272.198 19.207,272.462L19.207,272.638C20.087,272.785 20.931,273.034 21.737,273.386C22.544,273.738 23.255,274.222 23.871,274.838C24.487,275.454 24.986,276.202 25.367,277.082C25.749,277.962 25.939,279.003 25.939,280.206C25.939,281.79 25.609,283.161 24.949,284.32C24.289,285.479 23.424,286.425 22.353,287.158C21.283,287.891 20.058,288.434 18.679,288.786C17.301,289.138 15.893,289.314 14.455,289.314L12.695,289.314C12.021,289.314 11.317,289.292 10.583,289.248C9.85,289.204 9.117,289.145 8.383,289.072C7.65,288.999 7.005,288.889 6.447,288.742L6.447,258.426C7.533,258.25 8.794,258.103 10.231,257.986C11.669,257.869 13.238,257.81 14.939,257.81C16.083,257.81 17.249,257.905 18.437,258.096C19.625,258.287 20.703,258.653 21.671,259.196C22.639,259.739 23.439,260.494 24.069,261.462C24.7,262.43 25.015,263.677 25.015,265.202ZM14.807,286.146C15.746,286.146 16.655,286.036 17.535,285.816C18.415,285.596 19.193,285.244 19.867,284.76C20.542,284.276 21.077,283.682 21.473,282.978C21.869,282.274 22.067,281.438 22.067,280.47C22.067,279.267 21.825,278.299 21.341,277.566C20.857,276.833 20.227,276.261 19.449,275.85C18.672,275.439 17.799,275.161 16.831,275.014C15.863,274.867 14.895,274.794 13.927,274.794L10.099,274.794L10.099,285.838C10.305,285.897 10.598,285.941 10.979,285.97C11.361,285.999 11.771,286.029 12.211,286.058C12.651,286.087 13.106,286.109 13.575,286.124C14.045,286.139 14.455,286.146 14.807,286.146ZM12.387,271.714C12.886,271.714 13.487,271.699 14.191,271.67C14.895,271.641 15.482,271.597 15.951,271.538C16.655,271.303 17.315,271.017 17.931,270.68C18.547,270.343 19.097,269.947 19.581,269.492C20.065,269.037 20.447,268.509 20.725,267.908C21.004,267.307 21.143,266.654 21.143,265.95C21.143,264.982 20.96,264.183 20.593,263.552C20.227,262.921 19.735,262.415 19.119,262.034C18.503,261.653 17.799,261.381 17.007,261.22C16.215,261.059 15.409,260.978 14.587,260.978C13.619,260.978 12.732,261 11.925,261.044C11.119,261.088 10.51,261.154 10.099,261.242L10.099,271.714L12.387,271.714Z" style="fill-rule:nonzero;"/>
        <path d="M47.851,287.202C46.971,287.906 45.864,288.463 44.529,288.874C43.195,289.285 41.779,289.49 40.283,289.49C38.611,289.49 37.159,289.219 35.927,288.676C34.695,288.133 33.683,287.356 32.891,286.344C32.099,285.332 31.513,284.122 31.131,282.714C30.75,281.306 30.559,279.722 30.559,277.962C30.559,274.207 31.395,271.347 33.067,269.382C34.739,267.417 37.13,266.434 40.239,266.434C41.237,266.434 42.234,266.544 43.231,266.764C44.229,266.984 45.123,267.402 45.915,268.018C46.707,268.634 47.353,269.507 47.851,270.636C48.35,271.765 48.599,273.254 48.599,275.102C48.599,276.07 48.511,277.141 48.335,278.314L34.211,278.314C34.211,279.605 34.343,280.749 34.607,281.746C34.871,282.743 35.282,283.587 35.839,284.276C36.397,284.965 37.123,285.493 38.017,285.86C38.912,286.227 40.005,286.41 41.295,286.41C42.293,286.41 43.29,286.234 44.287,285.882C45.285,285.53 46.033,285.119 46.531,284.65L47.851,287.202ZM40.283,269.514C38.553,269.514 37.167,269.969 36.125,270.878C35.084,271.787 34.461,273.342 34.255,275.542L45.167,275.542C45.167,273.313 44.742,271.751 43.891,270.856C43.041,269.961 41.838,269.514 40.283,269.514Z" style="fill-rule:nonzero;"/>
        <path d="M54.143,266.962L56.563,266.962L57.223,269.602L57.399,269.602C58.074,268.575 58.947,267.791 60.017,267.248C61.088,266.705 62.313,266.434 63.691,266.434C66.625,266.434 68.81,267.299 70.247,269.03C71.685,270.761 72.403,273.591 72.403,277.522C72.403,279.37 72.161,281.035 71.677,282.516C71.193,283.997 70.511,285.251 69.631,286.278C68.751,287.305 67.688,288.097 66.441,288.654C65.195,289.211 63.809,289.49 62.283,289.49C61.198,289.49 60.34,289.424 59.709,289.292C59.079,289.16 58.397,288.933 57.663,288.61L57.663,297.762L54.143,297.762L54.143,266.962ZM63.031,269.514C61.535,269.514 60.355,269.903 59.489,270.68C58.624,271.457 58.015,272.638 57.663,274.222L57.663,285.134C58.191,285.545 58.793,285.86 59.467,286.08C60.142,286.3 61.037,286.41 62.151,286.41C64.175,286.41 65.781,285.655 66.969,284.144C68.157,282.633 68.751,280.411 68.751,277.478C68.751,276.275 68.649,275.183 68.443,274.2C68.238,273.217 67.908,272.381 67.453,271.692C66.999,271.003 66.412,270.467 65.693,270.086C64.975,269.705 64.087,269.514 63.031,269.514Z" style="fill-rule:nonzero;"/>
        <path d="M77.947,288.962L77.947,266.962L81.467,266.962L81.467,285.882L88.991,285.882L88.991,266.962L92.511,266.962L92.511,285.882L100.035,285.882L100.035,266.962L103.555,266.962L103.555,288.962L77.947,288.962Z" style="fill-rule:nonzero;"/>
        <path d="M124.059,275.938L124.191,273.21L124.059,273.21L122.255,276.026L112.355,288.962L110.331,288.962L110.331,266.962L113.851,266.962L113.851,280.382L113.719,282.978L113.895,282.978L115.611,280.25L125.511,266.962L127.579,266.962L127.579,288.962L124.059,288.962L124.059,275.938Z" style="fill-rule:nonzero;"/>
        <path d="M147.819,279.238L137.875,279.238L137.875,288.962L134.355,288.962L134.355,266.962L137.875,266.962L137.875,276.158L147.819,276.158L147.819,266.962L151.339,266.962L151.339,288.962L147.819,288.962L147.819,279.238Z" style="fill-rule:nonzero;"/>
        <path d="M157.763,268.59C158.878,267.915 160.176,267.417 161.657,267.094C163.139,266.771 164.686,266.61 166.299,266.61C167.825,266.61 169.049,266.815 169.973,267.226C170.897,267.637 171.601,268.172 172.085,268.832C172.569,269.492 172.892,270.218 173.053,271.01C173.215,271.802 173.295,272.594 173.295,273.386C173.295,275.146 173.251,276.862 173.163,278.534C173.075,280.206 173.031,281.79 173.031,283.286C173.031,284.371 173.075,285.398 173.163,286.366C173.251,287.334 173.413,288.229 173.647,289.05L171.051,289.05L170.127,285.97L169.907,285.97C169.643,286.381 169.313,286.784 168.917,287.18C168.521,287.576 168.045,287.928 167.487,288.236C166.93,288.544 166.285,288.801 165.551,289.006C164.818,289.211 163.982,289.314 163.043,289.314C162.105,289.314 161.232,289.167 160.425,288.874C159.619,288.581 158.922,288.163 158.335,287.62C157.749,287.077 157.287,286.425 156.949,285.662C156.612,284.899 156.443,284.034 156.443,283.066C156.443,281.775 156.707,280.697 157.235,279.832C157.763,278.967 158.504,278.277 159.457,277.764C160.411,277.251 161.555,276.884 162.889,276.664C164.224,276.444 165.698,276.334 167.311,276.334L168.521,276.334C168.917,276.334 169.321,276.363 169.731,276.422C169.819,275.542 169.863,274.75 169.863,274.046C169.863,272.433 169.541,271.303 168.895,270.658C168.25,270.013 167.077,269.69 165.375,269.69C164.877,269.69 164.341,269.727 163.769,269.8C163.197,269.873 162.611,269.976 162.009,270.108C161.408,270.24 160.836,270.401 160.293,270.592C159.751,270.783 159.274,270.995 158.863,271.23L157.763,268.59ZM164.011,286.234C164.833,286.234 165.566,286.124 166.211,285.904C166.857,285.684 167.414,285.405 167.883,285.068C168.353,284.731 168.741,284.357 169.049,283.946C169.357,283.535 169.585,283.139 169.731,282.758L169.731,279.106C169.321,279.077 168.903,279.055 168.477,279.04C168.052,279.025 167.634,279.018 167.223,279.018C166.314,279.018 165.427,279.069 164.561,279.172C163.696,279.275 162.933,279.465 162.273,279.744C161.613,280.023 161.085,280.404 160.689,280.888C160.293,281.372 160.095,281.981 160.095,282.714C160.095,283.741 160.462,284.584 161.195,285.244C161.929,285.904 162.867,286.234 164.011,286.234Z" style="fill-rule:nonzero;"/>
    </g>
</svg>
