<?xml version="1.0" encoding="UTF-8" standalone="no"?>
<!DOCTYPE svg PUBLIC "-//W3C//DTD SVG 1.1//EN" "http://www.w3.org/Graphics/SVG/1.1/DTD/svg11.dtd">
<svg width="100%" height="100%" viewBox="0 0 611 484" version="1.1" xmlns="http://www.w3.org/2000/svg" xmlns:xlink="http://www.w3.org/1999/xlink" xml:space="preserve" xmlns:serif="http://www.serif.com/" style="fill-rule:evenodd;clip-rule:evenodd;stroke-miterlimit:10;">
    <rect id="TIN-details" serif:id="TIN details" x="-219" y="-21" width="927" height="553.306" style="fill:none;"/>
    <path d="M313.68,182.599L293.13,164.789L308.112,91.756L377.953,145.09L362.464,172.726L313.68,182.599Z" style="fill:rgb(252,206,254);fill-rule:nonzero;"/>
    <path d="M299.624,292.308C299.624,297.62 295.311,301.933 289.999,301.933C284.686,301.933 280.373,297.62 280.373,292.308C280.373,286.995 284.686,282.682 289.999,282.682C295.311,282.682 299.624,286.995 299.624,292.308Z" style="fill:rgb(249,85,185);"/>
    <path d="M213.871,176.112L293.13,164.789" style="fill:none;stroke:rgb(249,85,185);stroke-width:6px;"/>
    <g id="Voronoy">
        <path d="M211.174,176.497L211.174,65.212L299.485,65.212L308.112,91.756L293.13,164.789L211.174,176.497Z" style="fill:none;fill-rule:nonzero;stroke:rgb(35,35,35);stroke-width:1.5px;stroke-linecap:square;stroke-linejoin:bevel;"/>
        <path d="M377.953,145.09L308.112,91.756L299.485,65.212L425.501,65.212L421.377,125.017L377.953,145.09Z" style="fill:none;fill-rule:nonzero;stroke:rgb(35,35,35);stroke-width:1.5px;stroke-linecap:square;stroke-linejoin:bevel;"/>
        <path d="M499.908,156.676L449.628,153.268L421.377,125.017L425.501,65.212L592.506,65.212L592.506,80.648L499.908,156.676Z" style="fill:none;fill-rule:nonzero;stroke:rgb(35,35,35);stroke-width:1.5px;stroke-linecap:square;stroke-linejoin:bevel;"/>
        <path d="M533.028,233.848L518.661,226.795L499.908,156.676L592.506,80.648L592.506,223.414L533.028,233.848Z" style="fill:none;fill-rule:nonzero;stroke:rgb(35,35,35);stroke-width:1.5px;stroke-linecap:square;stroke-linejoin:bevel;"/>
        <path d="M592.506,343.863L580.887,341.442L529.402,300.94L533.028,233.848L592.506,223.414L592.506,343.863Z" style="fill:none;fill-rule:nonzero;stroke:rgb(35,35,35);stroke-width:1.5px;stroke-linecap:square;stroke-linejoin:bevel;"/>
        <path d="M546.412,475.653L490.95,386.431L494.15,377.897L580.887,341.442L592.506,343.863L592.506,475.653L546.412,475.653Z" style="fill:none;fill-rule:nonzero;stroke:rgb(35,35,35);stroke-width:1.5px;stroke-linecap:square;stroke-linejoin:bevel;"/>
        <path d="M211.174,475.653L211.174,376.083L325.069,366.848L334.261,393.718L280.688,475.653L211.174,475.653Z" style="fill:none;fill-rule:nonzero;stroke:rgb(35,35,35);stroke-width:1.5px;stroke-linecap:square;stroke-linejoin:bevel;"/>
        <path d="M211.174,337.769L211.174,216.762L292.353,255.983L289.249,292.308L211.174,337.769Z" style="fill:none;fill-rule:nonzero;stroke:rgb(35,35,35);stroke-width:1.5px;stroke-linecap:square;stroke-linejoin:bevel;"/>
        <path d="M292.353,255.983L211.174,216.762L211.174,176.497L293.13,164.789L313.68,182.599L306.812,245.176L292.353,255.983Z" style="fill:none;fill-rule:nonzero;stroke:rgb(35,35,35);stroke-width:1.5px;stroke-linecap:square;stroke-linejoin:bevel;"/>
        <path d="M384.843,222.909L362.464,172.726L377.953,145.09L421.377,125.017L449.628,153.268L434.679,213.065L384.843,222.909Z" style="fill:none;fill-rule:nonzero;stroke:rgb(35,35,35);stroke-width:1.5px;stroke-linecap:square;stroke-linejoin:bevel;"/>
        <path d="M507.748,230.809L439.961,219.511L434.679,213.065L449.628,153.268L499.908,156.676L518.661,226.795L507.748,230.809Z" style="fill:none;fill-rule:nonzero;stroke:rgb(35,35,35);stroke-width:1.5px;stroke-linecap:square;stroke-linejoin:bevel;"/>
        <path d="M496.893,307.113L475.944,292.099L471.836,275.427L507.748,230.809L518.661,226.795L533.028,233.848L529.402,300.94L496.893,307.113Z" style="fill:none;fill-rule:nonzero;stroke:rgb(35,35,35);stroke-width:1.5px;stroke-linecap:square;stroke-linejoin:bevel;"/>
        <path d="M413.073,282.72L380.822,276.104L369.973,250.79L384.843,222.909L434.679,213.065L439.961,219.511L443.123,259.347L413.073,282.72Z" style="fill:none;fill-rule:nonzero;stroke:rgb(35,35,35);stroke-width:1.5px;stroke-linecap:square;stroke-linejoin:bevel;"/>
        <path d="M369.973,250.79L306.812,245.176L313.68,182.599L362.464,172.726L384.843,222.909L369.973,250.79Z" style="fill:none;fill-rule:nonzero;stroke:rgb(35,35,35);stroke-width:1.5px;stroke-linecap:square;stroke-linejoin:bevel;"/>
        <path d="M333.522,337.865L289.249,292.308L292.353,255.983L306.812,245.176L369.973,250.79L380.822,276.104L358.971,325.874L333.522,337.865Z" style="fill:none;fill-rule:nonzero;stroke:rgb(35,35,35);stroke-width:1.5px;stroke-linecap:square;stroke-linejoin:bevel;"/>
        <path d="M366.853,406.755L334.261,393.718L325.069,366.848L333.522,337.865L358.971,325.874L413.551,352.361L416.345,381.235L366.853,406.755Z" style="fill:none;fill-rule:nonzero;stroke:rgb(35,35,35);stroke-width:1.5px;stroke-linecap:square;stroke-linejoin:bevel;"/>
        <path d="M443.18,403.291L416.345,381.235L413.551,352.361L433.074,332.507L482.91,349.797L494.15,377.897L490.95,386.431L443.18,403.291Z" style="fill:none;fill-rule:nonzero;stroke:rgb(35,35,35);stroke-width:1.5px;stroke-linecap:square;stroke-linejoin:bevel;"/>
        <path d="M482.91,349.797L433.074,332.507L435.116,316.786L475.944,292.099L496.893,307.113L482.91,349.797Z" style="fill:none;fill-rule:nonzero;stroke:rgb(35,35,35);stroke-width:1.5px;stroke-linecap:square;stroke-linejoin:bevel;"/>
        <path d="M494.15,377.897L482.91,349.797L496.893,307.113L529.402,300.94L580.887,341.442L494.15,377.897Z" style="fill:none;fill-rule:nonzero;stroke:rgb(35,35,35);stroke-width:1.5px;stroke-linecap:square;stroke-linejoin:bevel;"/>
        <path d="M211.174,376.083L211.174,337.769L289.249,292.308L333.522,337.865L325.069,366.848L211.174,376.083Z" style="fill:none;fill-rule:nonzero;stroke:rgb(35,35,35);stroke-width:1.5px;stroke-linecap:square;stroke-linejoin:bevel;"/>
        <path d="M413.551,352.361L358.971,325.874L380.822,276.104L413.073,282.72L435.116,316.786L433.074,332.507L413.551,352.361Z" style="fill:none;fill-rule:nonzero;stroke:rgb(35,35,35);stroke-width:1.5px;stroke-linecap:square;stroke-linejoin:bevel;"/>
        <path d="M435.116,316.786L413.073,282.72L443.123,259.347L471.836,275.427L475.944,292.099L435.116,316.786Z" style="fill:none;fill-rule:nonzero;stroke:rgb(35,35,35);stroke-width:1.5px;stroke-linecap:square;stroke-linejoin:bevel;"/>
        <path d="M471.836,275.427L443.123,259.347L439.961,219.511L507.748,230.809L471.836,275.427Z" style="fill:none;fill-rule:nonzero;stroke:rgb(35,35,35);stroke-width:1.5px;stroke-linecap:square;stroke-linejoin:bevel;"/>
        <path d="M433.532,475.653L443.18,403.291L490.95,386.431L546.412,475.653L433.532,475.653Z" style="fill:none;fill-rule:nonzero;stroke:rgb(35,35,35);stroke-width:1.5px;stroke-linecap:square;stroke-linejoin:bevel;"/>
        <path d="M280.688,475.653L334.261,393.718L366.853,406.755L392.814,475.653L280.688,475.653Z" style="fill:none;fill-rule:nonzero;stroke:rgb(35,35,35);stroke-width:1.5px;stroke-linecap:square;stroke-linejoin:bevel;"/>
        <path d="M392.814,475.653L366.853,406.755L416.345,381.235L443.18,403.291L433.532,475.653L392.814,475.653Z" style="fill:none;fill-rule:nonzero;stroke:rgb(35,35,35);stroke-width:1.5px;stroke-linecap:square;stroke-linejoin:bevel;"/>
    </g>
    <rect x="211.174" y="65.212" width="381.332" height="410.788" style="fill:none;stroke:white;stroke-width:4px;"/>
    <g id="Inner-TIN-dots" serif:id="Inner TIN dots" opacity="0.25">
        <path d="M288.982,204.532C288.982,210.747 283.936,215.793 277.721,215.793C271.506,215.793 266.461,210.747 266.461,204.532C266.461,198.317 271.506,193.272 277.721,193.272C283.936,193.272 288.982,198.317 288.982,204.532Z"/>
        <path d="M341.54,143.888C341.54,150.103 336.495,155.149 330.28,155.149C324.065,155.149 319.019,150.103 319.019,143.888C319.019,137.673 324.065,132.627 330.28,132.627C336.495,132.627 341.54,137.673 341.54,143.888Z"/>
        <path d="M415.122,185.126C415.122,191.341 410.077,196.387 403.862,196.387C397.647,196.387 392.601,191.341 392.601,185.126C392.601,178.911 397.647,173.865 403.862,173.865C410.077,173.865 415.122,178.911 415.122,185.126Z"/>
        <path d="M486.278,202.915C486.278,209.13 481.233,214.176 475.018,214.176C468.803,214.176 463.757,209.13 463.757,202.915C463.757,196.7 468.803,191.655 475.018,191.655C481.233,191.655 486.278,196.7 486.278,202.915Z"/>
        <path d="M512.153,273.263C512.153,279.478 507.108,284.523 500.893,284.523C494.678,284.523 489.632,279.478 489.632,273.263C489.632,267.048 494.678,262.002 500.893,262.002C507.108,262.002 512.153,267.048 512.153,273.263Z"/>
        <path d="M428.06,250.622C428.06,256.837 423.014,261.883 416.799,261.883C410.584,261.883 405.538,256.837 405.538,250.622C405.538,244.407 410.584,239.361 416.799,239.361C423.014,239.361 428.06,244.407 428.06,250.622Z"/>
        <path d="M355.287,211.81C355.287,218.025 350.241,223.07 344.026,223.07C337.811,223.07 332.765,218.025 332.765,211.81C332.765,205.595 337.811,200.549 344.026,200.549C350.241,200.549 355.287,205.595 355.287,211.81Z"/>
        <path d="M348.818,284.583C348.818,290.798 343.772,295.844 337.557,295.844C331.342,295.844 326.296,290.798 326.296,284.583C326.296,278.368 331.342,273.322 337.557,273.322C343.772,273.322 348.818,278.368 348.818,284.583Z"/>
        <path d="M388.439,368.676C388.439,374.891 383.393,379.937 377.178,379.937C370.963,379.937 365.917,374.891 365.917,368.676C365.917,362.462 370.963,357.416 377.178,357.416C383.393,357.416 388.439,362.462 388.439,368.676Z"/>
        <path d="M463.638,361.399C463.638,367.614 458.592,372.66 452.377,372.66C446.162,372.66 441.116,367.614 441.116,361.399C441.116,355.184 446.162,350.138 452.377,350.138C458.592,350.138 463.638,355.184 463.638,361.399Z"/>
        <path d="M477.384,321.778C477.384,327.993 472.338,333.039 466.123,333.039C459.908,333.039 454.863,327.993 454.863,321.778C454.863,315.563 459.908,310.517 466.123,310.517C472.338,310.517 477.384,315.563 477.384,321.778Z"/>
        <path d="M524.282,337.141C524.282,343.356 519.236,348.402 513.022,348.402C506.807,348.402 501.761,343.356 501.761,337.141C501.761,330.926 506.807,325.881 513.022,325.881C519.236,325.881 524.282,330.926 524.282,337.141Z"/>
        <path d="M291.408,340.376C291.408,346.591 286.362,351.636 280.147,351.636C273.932,351.636 268.886,346.591 268.886,340.376C268.886,334.161 273.932,329.115 280.147,329.115C286.362,329.115 291.408,334.161 291.408,340.376Z"/>
        <path d="M415.122,313.692C415.122,319.907 410.077,324.953 403.862,324.953C397.647,324.953 392.601,319.907 392.601,313.692C392.601,307.477 397.647,302.432 403.862,302.432C410.077,302.432 415.122,307.477 415.122,313.692Z"/>
        <path d="M456.361,287.009C456.361,293.224 451.315,298.269 445.1,298.269C438.885,298.269 433.839,293.224 433.839,287.009C433.839,280.794 438.885,275.748 445.1,275.748C451.315,275.748 456.361,280.794 456.361,287.009Z"/>
        <path d="M479.001,246.579C479.001,252.794 473.955,257.84 467.74,257.84C461.525,257.84 456.48,252.794 456.48,246.579C456.48,240.364 461.525,235.318 467.74,235.318C473.955,235.318 479.001,240.364 479.001,246.579Z"/>
        <path d="M415.122,420.426C415.122,426.641 410.077,431.687 403.862,431.687C397.647,431.687 392.601,426.641 392.601,420.426C392.601,414.211 397.647,409.166 403.862,409.166C410.077,409.166 415.122,414.211 415.122,420.426Z"/>
    </g>
    <g id="Outer-TIN-dots" serif:id="Outer TIN dots" opacity="0.25">
        <path d="M278.47,130.951C278.47,137.165 273.425,142.211 267.21,142.211C260.995,142.211 255.949,137.165 255.949,130.951C255.949,124.736 260.995,119.69 267.21,119.69C273.425,119.69 278.47,124.736 278.47,130.951Z"/>
        <path d="M375.501,99.415C375.501,105.63 370.456,110.676 364.241,110.676C358.026,110.676 352.98,105.63 352.98,99.415C352.98,93.201 358.026,88.155 364.241,88.155C370.456,88.155 375.501,93.201 375.501,99.415Z"/>
        <path d="M492.747,107.501C492.747,113.716 487.701,118.762 481.486,118.762C475.272,118.762 470.226,113.716 470.226,107.501C470.226,101.286 475.272,96.241 481.486,96.241C487.701,96.241 492.747,101.286 492.747,107.501Z"/>
        <path d="M555.817,184.318C555.817,190.533 550.772,195.578 544.557,195.578C538.342,195.578 533.296,190.533 533.296,184.318C533.296,178.103 538.342,173.057 544.557,173.057C550.772,173.057 555.817,178.103 555.817,184.318Z"/>
        <path d="M571.989,276.497C571.989,282.712 566.943,287.758 560.728,287.758C554.514,287.758 549.468,282.712 549.468,276.497C549.468,270.282 554.514,265.236 560.728,265.236C566.943,265.236 571.989,270.282 571.989,276.497Z"/>
        <path d="M254.213,276.497C254.213,282.712 249.167,287.758 242.952,287.758C236.737,287.758 231.691,282.712 231.691,276.497C231.691,270.282 236.737,265.236 242.952,265.236C249.167,265.236 254.213,270.282 254.213,276.497Z"/>
        <path d="M547.731,392.934C547.731,399.149 542.686,404.195 536.471,404.195C530.256,404.195 525.21,399.149 525.21,392.934C525.21,386.719 530.256,381.674 536.471,381.674C542.686,381.674 547.731,386.719 547.731,392.934Z"/>
        <path d="M487.896,430.129C487.896,436.344 482.85,441.39 476.635,441.39C470.42,441.39 465.374,436.344 465.374,430.129C465.374,423.915 470.42,418.869 476.635,418.869C482.85,418.869 487.896,423.915 487.896,430.129Z"/>
        <path d="M359.33,441.45C359.33,447.665 354.284,452.71 348.069,452.71C341.854,452.71 336.808,447.665 336.808,441.45C336.808,435.235 341.854,430.189 348.069,430.189C354.284,430.189 359.33,435.235 359.33,441.45Z"/>
        <path d="M296.259,400.212C296.259,406.427 291.214,411.472 284.999,411.472C278.784,411.472 273.738,406.427 273.738,400.212C273.738,393.997 278.784,388.951 284.999,388.951C291.214,388.951 296.259,393.997 296.259,400.212Z"/>
    </g>
    <g id="Voronoy-Points" serif:id="Voronoy Points">
        <path d="M298.041,256.566C298.041,259.675 295.517,262.199 292.408,262.199C289.299,262.199 286.775,259.675 286.775,256.566C286.775,253.457 289.299,250.933 292.408,250.933C295.517,250.933 298.041,253.457 298.041,256.566Z"/>
        <path d="M295.518,292.096C295.518,295.204 292.994,297.728 289.885,297.728C286.777,297.728 284.253,295.204 284.253,292.096C284.253,288.987 286.777,286.463 289.885,286.463C292.994,286.463 295.518,288.987 295.518,292.096Z"/>
        <path d="M313.354,245.148C313.354,248.256 310.83,250.78 307.721,250.78C304.612,250.78 302.088,248.256 302.088,245.148C302.088,242.039 304.612,239.515 307.721,239.515C310.83,239.515 313.354,242.039 313.354,245.148Z"/>
        <path d="M375.927,251.073C375.927,254.182 373.403,256.706 370.294,256.706C367.185,256.706 364.662,254.182 364.662,251.073C364.662,247.964 367.185,245.44 370.294,245.44C373.403,245.44 375.927,247.964 375.927,251.073Z"/>
        <path d="M386.063,276.372C386.063,279.48 383.539,282.004 380.43,282.004C377.321,282.004 374.797,279.48 374.797,276.372C374.797,273.263 377.321,270.739 380.43,270.739C383.539,270.739 386.063,273.263 386.063,276.372Z"/>
        <path d="M419.653,283.117C419.653,286.226 417.129,288.749 414.02,288.749C410.911,288.749 408.387,286.226 408.387,283.117C408.387,280.008 410.911,277.484 414.02,277.484C417.129,277.484 419.653,280.008 419.653,283.117Z"/>
        <path d="M449.061,261.291C449.061,264.4 446.537,266.923 443.428,266.923C440.319,266.923 437.795,264.4 437.795,261.291C437.795,258.182 440.319,255.658 443.428,255.658C446.537,255.658 449.061,258.182 449.061,261.291Z"/>
        <path d="M338.972,337.57C338.972,340.679 336.448,343.203 333.34,343.203C330.231,343.203 327.707,340.679 327.707,337.57C327.707,334.462 330.231,331.938 333.34,331.938C336.448,331.938 338.972,334.462 338.972,337.57Z"/>
        <path d="M364.817,326.396C364.817,329.505 362.293,332.028 359.184,332.028C356.075,332.028 353.551,329.505 353.551,326.396C353.551,323.287 356.075,320.763 359.184,320.763C362.293,320.763 364.817,323.287 364.817,326.396Z"/>
        <path d="M418.687,352.361C418.687,355.47 416.163,357.994 413.055,357.994C409.946,357.994 407.422,355.47 407.422,352.361C407.422,349.252 409.946,346.729 413.055,346.729C416.163,346.729 418.687,349.252 418.687,352.361Z"/>
        <path d="M438.484,333.207C438.484,336.315 435.96,338.839 432.852,338.839C429.743,338.839 427.219,336.315 427.219,333.207C427.219,330.098 429.743,327.574 432.852,327.574C435.96,327.574 438.484,330.098 438.484,333.207Z"/>
        <path d="M440.588,316.099C440.588,319.208 438.064,321.732 434.956,321.732C431.847,321.732 429.323,319.208 429.323,316.099C429.323,312.991 431.847,310.467 434.956,310.467C438.064,310.467 440.588,312.991 440.588,316.099Z"/>
        <path d="M481.812,292.583C481.812,295.691 479.288,298.215 476.179,298.215C473.071,298.215 470.547,295.691 470.547,292.583C470.547,289.474 473.071,286.95 476.179,286.95C479.288,286.95 481.812,289.474 481.812,292.583Z"/>
        <path d="M477.43,275.345C477.43,278.453 474.906,280.977 471.797,280.977C468.688,280.977 466.165,278.453 466.165,275.345C466.165,272.236 468.688,269.712 471.797,269.712C474.906,269.712 477.43,272.236 477.43,275.345Z"/>
        <path d="M512.036,230.721C512.036,233.83 509.512,236.354 506.404,236.354C503.295,236.354 500.771,233.83 500.771,230.721C500.771,227.613 503.295,225.089 506.404,225.089C509.512,225.089 512.036,227.613 512.036,230.721Z"/>
        <path d="M524.968,226.702C524.968,229.81 522.444,232.334 519.335,232.334C516.226,232.334 513.702,229.81 513.702,226.702C513.702,223.593 516.226,221.069 519.335,221.069C522.444,221.069 524.968,223.593 524.968,226.702Z"/>
        <path d="M539.154,234.431C539.154,237.54 536.63,240.064 533.522,240.064C530.413,240.064 527.889,237.54 527.889,234.431C527.889,231.323 530.413,228.799 533.522,228.799C536.63,228.799 539.154,231.323 539.154,234.431Z"/>
        <path d="M535.623,301.079C535.623,304.188 533.099,306.712 529.99,306.712C526.882,306.712 524.358,304.188 524.358,301.079C524.358,297.97 526.882,295.446 529.99,295.446C533.099,295.446 535.623,297.97 535.623,301.079Z"/>
        <path d="M446.849,221.249C446.849,224.358 444.325,226.882 441.216,226.882C438.107,226.882 435.583,224.358 435.583,221.249C435.583,218.141 438.107,215.617 441.216,215.617C444.325,215.617 446.849,218.141 446.849,221.249Z"/>
        <path d="M439.85,213.073C439.85,216.182 437.326,218.706 434.218,218.706C431.109,218.706 428.585,216.182 428.585,213.073C428.585,209.964 431.109,207.441 434.218,207.441C437.326,207.441 439.85,209.964 439.85,213.073Z"/>
        <path d="M390.275,222.591C390.275,225.7 387.751,228.224 384.642,228.224C381.534,228.224 379.01,225.7 379.01,222.591C379.01,219.482 381.534,216.958 384.642,216.958C387.751,216.958 390.275,219.482 390.275,222.591Z"/>
        <path d="M426.842,126.255C426.842,129.364 424.318,131.888 421.209,131.888C418.101,131.888 415.577,129.364 415.577,126.255C415.577,123.146 418.101,120.622 421.209,120.622C424.318,120.622 426.842,123.146 426.842,126.255Z"/>
        <path d="M455.227,153.438C455.227,156.547 452.703,159.071 449.595,159.071C446.486,159.071 443.962,156.547 443.962,153.438C443.962,150.329 446.486,147.805 449.595,147.805C452.703,147.805 455.227,150.329 455.227,153.438Z"/>
        <path d="M505.509,157.233C505.509,160.341 502.985,162.865 499.876,162.865C496.767,162.865 494.244,160.341 494.244,157.233C494.244,154.124 496.767,151.6 499.876,151.6C502.985,151.6 505.509,154.124 505.509,157.233Z"/>
        <path d="M487.997,349.78C487.997,352.889 485.474,355.413 482.365,355.413C479.256,355.413 476.732,352.889 476.732,349.78C476.732,346.672 479.256,344.148 482.365,344.148C485.474,344.148 487.997,346.672 487.997,349.78Z"/>
        <path d="M499.332,377.833C499.332,380.942 496.808,383.466 493.699,383.466C490.591,383.466 488.067,380.942 488.067,377.833C488.067,374.725 490.591,372.201 493.699,372.201C496.808,372.201 499.332,374.725 499.332,377.833Z"/>
        <path d="M585.384,341.018C585.384,344.126 582.86,346.65 579.751,346.65C576.643,346.65 574.119,344.126 574.119,341.018C574.119,337.909 576.643,335.385 579.751,335.385C582.86,335.385 585.384,337.909 585.384,341.018Z"/>
        <path d="M299.624,165.064C299.624,168.173 297.1,170.697 293.992,170.697C290.883,170.697 288.359,168.173 288.359,165.064C288.359,161.955 290.883,159.432 293.992,159.432C297.1,159.432 299.624,161.955 299.624,165.064Z"/>
        <path d="M319.257,182.097C319.257,185.206 316.733,187.73 313.624,187.73C310.515,187.73 307.991,185.206 307.991,182.097C307.991,178.988 310.515,176.464 313.624,176.464C316.733,176.464 319.257,178.988 319.257,182.097Z"/>
        <path d="M368.313,172.049C368.313,175.157 365.789,177.681 362.681,177.681C359.572,177.681 357.048,175.157 357.048,172.049C357.048,168.94 359.572,166.416 362.681,166.416C365.789,166.416 368.313,168.94 368.313,172.049Z"/>
        <path d="M383.992,145.593C383.992,148.702 381.468,151.226 378.359,151.226C375.25,151.226 372.726,148.702 372.726,145.593C372.726,142.484 375.25,139.96 378.359,139.96C381.468,139.96 383.992,142.484 383.992,145.593Z"/>
        <path d="M313.643,94.235C313.643,97.343 311.119,99.867 308.011,99.867C304.902,99.867 302.378,97.343 302.378,94.235C302.378,91.126 304.902,88.602 308.011,88.602C311.119,88.602 313.643,91.126 313.643,94.235Z"/>
        <path d="M330.551,366.74C330.551,369.849 328.027,372.373 324.918,372.373C321.809,372.373 319.286,369.849 319.286,366.74C319.286,363.631 321.809,361.107 324.918,361.107C328.027,361.107 330.551,363.631 330.551,366.74Z"/>
        <path d="M340.357,394.626C340.357,397.735 337.833,400.259 334.725,400.259C331.616,400.259 329.092,397.735 329.092,394.626C329.092,391.518 331.616,388.994 334.725,388.994C337.833,388.994 340.357,391.518 340.357,394.626Z"/>
        <path d="M372.706,407.102C372.706,410.211 370.182,412.735 367.073,412.735C363.965,412.735 361.441,410.211 361.441,407.102C361.441,403.993 363.965,401.469 367.073,401.469C370.182,401.469 372.706,403.993 372.706,407.102Z"/>
        <path d="M422.321,381.991C422.321,385.1 419.797,387.624 416.688,387.624C413.58,387.624 411.056,385.1 411.056,381.991C411.056,378.882 413.58,376.358 416.688,376.358C419.797,376.358 422.321,378.882 422.321,381.991Z"/>
        <path d="M448.996,403.034C448.996,406.143 446.472,408.667 443.363,408.667C440.255,408.667 437.731,406.143 437.731,403.034C437.731,399.925 440.255,397.402 443.363,397.402C446.472,397.402 448.996,399.925 448.996,403.034Z"/>
        <path d="M496.316,387.992C496.316,391.101 493.792,393.625 490.683,393.625C487.574,393.625 485.051,391.101 485.051,387.992C485.051,384.883 487.574,382.359 490.683,382.359C493.792,382.359 496.316,384.883 496.316,387.992Z"/>
    </g>
    <g id="Voronoy-Labels" serif:id="Voronoy Labels">
        <rect x="319.157" y="1.566" width="181" height="48.774" style="fill:rgb(252,206,254);"/>
        <path d="M251.007,150.658L244.5,169.701L233.17,153.069L251.007,150.658Z" style="fill:rgb(38,38,38);"/>
        <path d="M183.242,120.701C224.232,120.306 237.977,135.475 242.571,155.431" style="fill:none;stroke:rgb(38,38,38);stroke-width:4px;stroke-linejoin:round;stroke-miterlimit:1.5;stroke-dasharray:4,4;"/>
        <path d="M281.093,262.301L284.366,282.157L266.517,272.862L281.093,262.301Z" style="fill:rgb(38,38,38);"/>
        <path d="M183.242,240.019C213.586,239.696 251.667,242.792 275.917,270.496" style="fill:none;stroke:rgb(38,38,38);stroke-width:4px;stroke-linejoin:round;stroke-miterlimit:1.5;stroke-dasharray:4,4;"/>
        <path d="M366.48,144.486L346.68,148.09L355.677,130.088L366.48,144.486Z"/>
        <path d="M409.657,50.414C410.129,88.652 388.472,115.64 358.199,139.447" style="fill:none;stroke:black;stroke-width:4px;stroke-miterlimit:1;stroke-dasharray:4,4;"/>
        <path d="M44.111,101.759C45.226,101.495 46.429,101.319 47.719,101.231C49.01,101.143 50.286,101.099 51.547,101.099C52.897,101.099 54.268,101.231 55.661,101.495C57.055,101.759 58.323,102.243 59.467,102.947C60.611,103.651 61.543,104.619 62.261,105.851C62.98,107.083 63.339,108.653 63.339,110.559C63.339,112.437 63.002,114.021 62.327,115.311C61.653,116.602 60.758,117.651 59.643,118.457C58.529,119.264 57.253,119.843 55.815,120.195C54.378,120.547 52.897,120.723 51.371,120.723L50.645,120.723C50.308,120.723 49.956,120.716 49.589,120.701C49.223,120.687 48.863,120.665 48.511,120.635C48.159,120.606 47.91,120.577 47.763,120.547L47.763,132.251L44.111,132.251L44.111,101.759ZM51.635,104.267C50.873,104.267 50.139,104.282 49.435,104.311C48.731,104.341 48.174,104.414 47.763,104.531L47.763,117.291C47.91,117.35 48.145,117.387 48.467,117.401C48.79,117.416 49.127,117.431 49.479,117.445C49.831,117.46 50.169,117.467 50.491,117.467L51.195,117.467C52.193,117.467 53.183,117.372 54.165,117.181C55.148,116.991 56.035,116.646 56.827,116.147C57.619,115.649 58.257,114.945 58.741,114.035C59.225,113.126 59.467,111.967 59.467,110.559C59.467,109.357 59.24,108.352 58.785,107.545C58.331,106.739 57.729,106.093 56.981,105.609C56.233,105.125 55.39,104.781 54.451,104.575C53.513,104.37 52.574,104.267 51.635,104.267Z" style="fill-rule:nonzero;"/>
        <path d="M84.415,130.491C83.535,131.195 82.428,131.753 81.093,132.163C79.759,132.574 78.343,132.779 76.847,132.779C75.175,132.779 73.723,132.508 72.491,131.965C71.259,131.423 70.247,130.645 69.455,129.633C68.663,128.621 68.077,127.411 67.695,126.003C67.314,124.595 67.123,123.011 67.123,121.251C67.123,117.497 67.959,114.637 69.631,112.671C71.303,110.706 73.694,109.723 76.803,109.723C77.801,109.723 78.798,109.833 79.795,110.053C80.793,110.273 81.687,110.691 82.479,111.307C83.271,111.923 83.917,112.796 84.415,113.925C84.914,115.055 85.163,116.543 85.163,118.391C85.163,119.359 85.075,120.43 84.899,121.603L70.775,121.603C70.775,122.894 70.907,124.038 71.171,125.035C71.435,126.033 71.846,126.876 72.403,127.565C72.961,128.255 73.687,128.783 74.581,129.149C75.476,129.516 76.569,129.699 77.859,129.699C78.857,129.699 79.854,129.523 80.851,129.171C81.849,128.819 82.597,128.409 83.095,127.939L84.415,130.491ZM76.847,112.803C75.117,112.803 73.731,113.258 72.689,114.167C71.648,115.077 71.025,116.631 70.819,118.831L81.731,118.831C81.731,116.602 81.306,115.04 80.455,114.145C79.605,113.251 78.402,112.803 76.847,112.803Z" style="fill-rule:nonzero;"/>
        <path d="M92.731,114.167C93.699,112.759 94.77,111.769 95.943,111.197C97.117,110.625 98.583,110.339 100.343,110.339C103.042,110.339 105.117,111.219 106.569,112.979C108.021,114.739 108.747,117.335 108.747,120.767C108.747,124.727 107.904,127.719 106.217,129.743C104.531,131.767 102.177,132.779 99.155,132.779C95.929,132.779 93.509,131.665 91.895,129.435C90.282,127.206 89.475,123.701 89.475,118.919C89.475,116.397 89.6,114.241 89.849,112.451C90.099,110.662 90.465,109.151 90.949,107.919C91.433,106.687 92.02,105.705 92.709,104.971C93.399,104.238 94.176,103.659 95.041,103.233C95.907,102.808 96.853,102.507 97.879,102.331C98.906,102.155 100.006,102.009 101.179,101.891C102.705,101.745 103.9,101.576 104.765,101.385C105.631,101.195 106.327,100.85 106.855,100.351L107.251,103.519C106.958,103.783 106.635,104.003 106.283,104.179C105.931,104.355 105.506,104.502 105.007,104.619C104.509,104.737 103.915,104.839 103.225,104.927C102.536,105.015 101.737,105.089 100.827,105.147C99.566,105.235 98.459,105.389 97.505,105.609C96.552,105.829 95.731,106.255 95.041,106.885C94.352,107.516 93.809,108.411 93.413,109.569C93.017,110.728 92.746,112.261 92.599,114.167L92.731,114.167ZM93.127,121.295C93.127,122.41 93.245,123.481 93.479,124.507C93.714,125.534 94.073,126.436 94.557,127.213C95.041,127.991 95.665,128.599 96.427,129.039C97.19,129.479 98.085,129.699 99.111,129.699C101.135,129.699 102.639,128.973 103.621,127.521C104.604,126.069 105.095,123.921 105.095,121.075C105.095,119.961 104.993,118.934 104.787,117.995C104.582,117.057 104.259,116.243 103.819,115.553C103.379,114.864 102.822,114.336 102.147,113.969C101.473,113.603 100.666,113.419 99.727,113.419C97.439,113.39 95.767,114.057 94.711,115.421C93.655,116.785 93.127,118.743 93.127,121.295Z" style="fill-rule:nonzero;"/>
        <path d="M114.291,110.251L116.711,110.251L117.371,112.891L117.547,112.891C118.222,111.865 119.095,111.08 120.165,110.537C121.236,109.995 122.461,109.723 123.839,109.723C126.773,109.723 128.958,110.589 130.395,112.319C131.833,114.05 132.551,116.881 132.551,120.811C132.551,122.659 132.309,124.324 131.825,125.805C131.341,127.287 130.659,128.541 129.779,129.567C128.899,130.594 127.836,131.386 126.589,131.943C125.343,132.501 123.957,132.779 122.431,132.779C121.346,132.779 120.488,132.713 119.857,132.581C119.227,132.449 118.545,132.222 117.811,131.899L117.811,141.051L114.291,141.051L114.291,110.251ZM123.179,112.803C121.683,112.803 120.503,113.192 119.637,113.969C118.772,114.747 118.163,115.927 117.811,117.511L117.811,128.423C118.339,128.834 118.941,129.149 119.615,129.369C120.29,129.589 121.185,129.699 122.299,129.699C124.323,129.699 125.929,128.944 127.117,127.433C128.305,125.923 128.899,123.701 128.899,120.767C128.899,119.565 128.797,118.472 128.591,117.489C128.386,116.507 128.056,115.671 127.601,114.981C127.147,114.292 126.56,113.757 125.841,113.375C125.123,112.994 124.235,112.803 123.179,112.803Z" style="fill-rule:nonzero;"/>
        <path d="M136.863,121.251C136.863,117.526 137.692,114.673 139.349,112.693C141.007,110.713 143.39,109.723 146.499,109.723C148.142,109.723 149.572,109.995 150.789,110.537C152.007,111.08 153.011,111.857 153.803,112.869C154.595,113.881 155.182,115.099 155.563,116.521C155.945,117.944 156.135,119.521 156.135,121.251C156.135,124.977 155.307,127.829 153.649,129.809C151.992,131.789 149.609,132.779 146.499,132.779C144.857,132.779 143.427,132.508 142.209,131.965C140.992,131.423 139.987,130.645 139.195,129.633C138.403,128.621 137.817,127.404 137.435,125.981C137.054,124.559 136.863,122.982 136.863,121.251ZM140.515,121.251C140.515,122.366 140.625,123.437 140.845,124.463C141.065,125.49 141.41,126.385 141.879,127.147C142.349,127.91 142.965,128.526 143.727,128.995C144.49,129.465 145.414,129.699 146.499,129.699C150.489,129.729 152.483,126.913 152.483,121.251C152.483,120.107 152.373,119.022 152.153,117.995C151.933,116.969 151.589,116.074 151.119,115.311C150.65,114.549 150.034,113.94 149.271,113.485C148.509,113.031 147.585,112.803 146.499,112.803C142.51,112.774 140.515,115.59 140.515,121.251Z" style="fill-rule:nonzero;"/>
        <path d="M333.785,24.066C333.785,18.933 334.87,14.995 337.041,12.252C339.211,9.51 342.306,8.138 346.325,8.138C348.495,8.138 350.373,8.52 351.957,9.282C353.541,10.045 354.853,11.123 355.895,12.516C356.936,13.91 357.706,15.582 358.205,17.532C358.703,19.483 358.953,21.661 358.953,24.066C358.953,29.2 357.86,33.138 355.675,35.88C353.489,38.623 350.373,39.994 346.325,39.994C344.183,39.994 342.328,39.613 340.759,38.85C339.189,38.088 337.884,37.01 336.843,35.616C335.801,34.223 335.031,32.551 334.533,30.6C334.034,28.65 333.785,26.472 333.785,24.066ZM337.657,24.066C337.657,25.768 337.825,27.381 338.163,28.906C338.5,30.432 339.021,31.774 339.725,32.932C340.429,34.091 341.331,35.015 342.431,35.704C343.531,36.394 344.829,36.738 346.325,36.738C349.053,36.738 351.194,35.704 352.749,33.636C354.303,31.568 355.081,28.378 355.081,24.066C355.081,22.394 354.912,20.788 354.575,19.248C354.237,17.708 353.709,16.359 352.991,15.2C352.272,14.042 351.363,13.118 350.263,12.428C349.163,11.739 347.85,11.394 346.325,11.394C343.626,11.394 341.507,12.428 339.967,14.496C338.427,16.564 337.657,19.754 337.657,24.066Z" style="fill-rule:nonzero;"/>
        <path d="M366.829,21.382C367.797,19.974 368.867,18.984 370.041,18.412C371.214,17.84 372.681,17.554 374.441,17.554C377.139,17.554 379.215,18.434 380.667,20.194C382.119,21.954 382.845,24.55 382.845,27.982C382.845,31.942 382.001,34.934 380.315,36.958C378.628,38.982 376.274,39.994 373.253,39.994C370.026,39.994 367.606,38.88 365.993,36.65C364.379,34.421 363.573,30.916 363.573,26.134C363.573,23.612 363.697,21.456 363.947,19.666C364.196,17.877 364.563,16.366 365.047,15.134C365.531,13.902 366.117,12.92 366.807,12.186C367.496,11.453 368.273,10.874 369.139,10.448C370.004,10.023 370.95,9.722 371.977,9.546C373.003,9.37 374.103,9.224 375.277,9.106C376.802,8.96 377.997,8.791 378.863,8.6C379.728,8.41 380.425,8.065 380.953,7.566L381.349,10.734C381.055,10.998 380.733,11.218 380.381,11.394C380.029,11.57 379.603,11.717 379.105,11.834C378.606,11.952 378.012,12.054 377.323,12.142C376.633,12.23 375.834,12.304 374.925,12.362C373.663,12.45 372.556,12.604 371.603,12.824C370.649,13.044 369.828,13.47 369.139,14.1C368.449,14.731 367.907,15.626 367.511,16.784C367.115,17.943 366.843,19.476 366.697,21.382L366.829,21.382ZM367.225,28.51C367.225,29.625 367.342,30.696 367.577,31.722C367.811,32.749 368.171,33.651 368.655,34.428C369.139,35.206 369.762,35.814 370.525,36.254C371.287,36.694 372.182,36.914 373.209,36.914C375.233,36.914 376.736,36.188 377.719,34.736C378.701,33.284 379.193,31.136 379.193,28.29C379.193,27.176 379.09,26.149 378.885,25.21C378.679,24.272 378.357,23.458 377.917,22.768C377.477,22.079 376.919,21.551 376.245,21.184C375.57,20.818 374.763,20.634 373.825,20.634C371.537,20.605 369.865,21.272 368.809,22.636C367.753,24 367.225,25.958 367.225,28.51Z" style="fill-rule:nonzero;"/>
        <path d="M400.225,20.546L393.845,20.546C393.757,21.778 393.669,23.106 393.581,24.528C393.493,25.951 393.361,27.374 393.185,28.796C393.009,30.219 392.774,31.583 392.481,32.888C392.187,34.194 391.813,35.345 391.359,36.342C390.904,37.34 390.347,38.139 389.687,38.74C389.027,39.342 388.242,39.642 387.333,39.642C386.775,39.642 386.291,39.613 385.881,39.554C385.47,39.496 385.103,39.393 384.781,39.246L385.309,36.298C385.661,36.416 386.042,36.474 386.453,36.474C387.039,36.474 387.567,36.225 388.037,35.726C388.506,35.228 388.917,34.282 389.269,32.888C389.621,31.495 389.914,29.566 390.149,27.102C390.383,24.638 390.545,21.426 390.633,17.466L403.745,17.466L403.745,39.466L400.225,39.466L400.225,20.546Z" style="fill-rule:nonzero;"/>
        <path d="M410.169,19.094C411.283,18.42 412.581,17.921 414.063,17.598C415.544,17.276 417.091,17.114 418.705,17.114C420.23,17.114 421.455,17.32 422.379,17.73C423.303,18.141 424.007,18.676 424.491,19.336C424.975,19.996 425.297,20.722 425.459,21.514C425.62,22.306 425.701,23.098 425.701,23.89C425.701,25.65 425.657,27.366 425.569,29.038C425.481,30.71 425.437,32.294 425.437,33.79C425.437,34.876 425.481,35.902 425.569,36.87C425.657,37.838 425.818,38.733 426.053,39.554L423.457,39.554L422.533,36.474L422.313,36.474C422.049,36.885 421.719,37.288 421.323,37.684C420.927,38.08 420.45,38.432 419.893,38.74C419.335,39.048 418.69,39.305 417.957,39.51C417.223,39.716 416.387,39.818 415.449,39.818C414.51,39.818 413.637,39.672 412.831,39.378C412.024,39.085 411.327,38.667 410.741,38.124C410.154,37.582 409.692,36.929 409.355,36.166C409.017,35.404 408.849,34.538 408.849,33.57C408.849,32.28 409.113,31.202 409.641,30.336C410.169,29.471 410.909,28.782 411.863,28.268C412.816,27.755 413.96,27.388 415.295,27.168C416.629,26.948 418.103,26.838 419.717,26.838L420.927,26.838C421.323,26.838 421.726,26.868 422.137,26.926C422.225,26.046 422.269,25.254 422.269,24.55C422.269,22.937 421.946,21.808 421.301,21.162C420.655,20.517 419.482,20.194 417.781,20.194C417.282,20.194 416.747,20.231 416.175,20.304C415.603,20.378 415.016,20.48 414.415,20.612C413.813,20.744 413.241,20.906 412.699,21.096C412.156,21.287 411.679,21.5 411.269,21.734L410.169,19.094ZM416.417,36.738C417.238,36.738 417.971,36.628 418.617,36.408C419.262,36.188 419.819,35.91 420.289,35.572C420.758,35.235 421.147,34.861 421.455,34.45C421.763,34.04 421.99,33.644 422.137,33.262L422.137,29.61C421.726,29.581 421.308,29.559 420.883,29.544C420.457,29.53 420.039,29.522 419.629,29.522C418.719,29.522 417.832,29.574 416.967,29.676C416.101,29.779 415.339,29.97 414.679,30.248C414.019,30.527 413.491,30.908 413.095,31.392C412.699,31.876 412.501,32.485 412.501,33.218C412.501,34.245 412.867,35.088 413.601,35.748C414.334,36.408 415.273,36.738 416.417,36.738Z" style="fill-rule:nonzero;"/>
        <path d="M447.349,38.014C446.469,38.66 445.427,39.151 444.225,39.488C443.022,39.826 441.761,39.994 440.441,39.994C438.739,39.994 437.302,39.723 436.129,39.18C434.955,38.638 433.995,37.86 433.247,36.848C432.499,35.836 431.956,34.619 431.619,33.196C431.281,31.774 431.113,30.197 431.113,28.466C431.113,24.741 431.934,21.888 433.577,19.908C435.219,17.928 437.581,16.938 440.661,16.938C442.069,16.938 443.264,17.048 444.247,17.268C445.229,17.488 446.117,17.804 446.909,18.214L445.897,21.25C445.222,20.869 444.474,20.568 443.653,20.348C442.831,20.128 441.951,20.018 441.013,20.018C436.847,20.018 434.765,22.834 434.765,28.466C434.765,29.581 434.875,30.644 435.095,31.656C435.315,32.668 435.681,33.563 436.195,34.34C436.708,35.118 437.383,35.741 438.219,36.21C439.055,36.68 440.089,36.914 441.321,36.914C442.377,36.914 443.323,36.753 444.159,36.43C444.995,36.108 445.677,35.741 446.205,35.33L447.349,38.014Z" style="fill-rule:nonzero;"/>
        <path d="M466.181,20.546L459.317,20.546L459.317,39.466L455.797,39.466L455.797,20.546L448.933,20.546L448.933,17.466L466.181,17.466L466.181,20.546Z" style="fill-rule:nonzero;"/>
        <path d="M473.177,36.386C474.262,36.562 475.303,36.65 476.301,36.65C478.149,36.65 479.513,36.291 480.393,35.572C481.273,34.854 481.713,33.834 481.713,32.514C481.713,31.341 481.287,30.373 480.437,29.61C479.586,28.848 478.251,28.466 476.433,28.466C475.934,28.466 475.391,28.481 474.805,28.51C474.218,28.54 473.675,28.628 473.177,28.774L473.177,36.386ZM473.177,25.87C473.881,25.753 474.555,25.672 475.201,25.628C475.846,25.584 476.462,25.562 477.049,25.562C478.574,25.562 479.865,25.731 480.921,26.068C481.977,26.406 482.835,26.868 483.495,27.454C484.155,28.041 484.631,28.738 484.925,29.544C485.218,30.351 485.365,31.209 485.365,32.118C485.365,34.788 484.565,36.724 482.967,37.926C481.368,39.129 478.882,39.73 475.509,39.73C473.631,39.73 471.681,39.642 469.657,39.466L469.657,17.466L473.177,17.466L473.177,25.87Z" style="fill-rule:nonzero;"/>
        <path d="M22.015,227.414C22.015,228.148 21.898,228.896 21.663,229.658C21.429,230.421 21.077,231.132 20.607,231.792C20.138,232.452 19.537,233.032 18.803,233.53C18.07,234.029 17.205,234.41 16.207,234.674L16.207,234.85C17.087,234.997 17.931,235.246 18.737,235.598C19.544,235.95 20.255,236.434 20.871,237.05C21.487,237.666 21.986,238.414 22.367,239.294C22.749,240.174 22.939,241.216 22.939,242.418C22.939,244.002 22.609,245.374 21.949,246.532C21.289,247.691 20.424,248.637 19.353,249.37C18.283,250.104 17.058,250.646 15.679,250.998C14.301,251.35 12.893,251.526 11.455,251.526L9.695,251.526C9.021,251.526 8.317,251.504 7.583,251.46C6.85,251.416 6.117,251.358 5.383,251.284C4.65,251.211 4.005,251.101 3.447,250.954L3.447,220.638C4.533,220.462 5.794,220.316 7.231,220.198C8.669,220.081 10.238,220.022 11.939,220.022C13.083,220.022 14.249,220.118 15.437,220.308C16.625,220.499 17.703,220.866 18.671,221.408C19.639,221.951 20.439,222.706 21.069,223.674C21.7,224.642 22.015,225.889 22.015,227.414ZM11.807,248.358C12.746,248.358 13.655,248.248 14.535,248.028C15.415,247.808 16.193,247.456 16.867,246.972C17.542,246.488 18.077,245.894 18.473,245.19C18.869,244.486 19.067,243.65 19.067,242.682C19.067,241.48 18.825,240.512 18.341,239.778C17.857,239.045 17.227,238.473 16.449,238.062C15.672,237.652 14.799,237.373 13.831,237.226C12.863,237.08 11.895,237.006 10.927,237.006L7.099,237.006L7.099,248.05C7.305,248.109 7.598,248.153 7.979,248.182C8.361,248.212 8.771,248.241 9.211,248.27C9.651,248.3 10.106,248.322 10.575,248.336C11.045,248.351 11.455,248.358 11.807,248.358ZM9.387,233.926C9.886,233.926 10.487,233.912 11.191,233.882C11.895,233.853 12.482,233.809 12.951,233.75C13.655,233.516 14.315,233.23 14.931,232.892C15.547,232.555 16.097,232.159 16.581,231.704C17.065,231.25 17.447,230.722 17.725,230.12C18.004,229.519 18.143,228.866 18.143,228.162C18.143,227.194 17.96,226.395 17.593,225.764C17.227,225.134 16.735,224.628 16.119,224.246C15.503,223.865 14.799,223.594 14.007,223.432C13.215,223.271 12.409,223.19 11.587,223.19C10.619,223.19 9.732,223.212 8.925,223.256C8.119,223.3 7.51,223.366 7.099,223.454L7.099,233.926L9.387,233.926Z" style="fill-rule:nonzero;"/>
        <path d="M44.851,249.414C43.971,250.118 42.864,250.676 41.529,251.086C40.195,251.497 38.779,251.702 37.283,251.702C35.611,251.702 34.159,251.431 32.927,250.888C31.695,250.346 30.683,249.568 29.891,248.556C29.099,247.544 28.513,246.334 28.131,244.926C27.75,243.518 27.559,241.934 27.559,240.174C27.559,236.42 28.395,233.56 30.067,231.594C31.739,229.629 34.13,228.646 37.239,228.646C38.237,228.646 39.234,228.756 40.231,228.976C41.229,229.196 42.123,229.614 42.915,230.23C43.707,230.846 44.353,231.719 44.851,232.848C45.35,233.978 45.599,235.466 45.599,237.314C45.599,238.282 45.511,239.353 45.335,240.526L31.211,240.526C31.211,241.817 31.343,242.961 31.607,243.958C31.871,244.956 32.282,245.799 32.839,246.488C33.397,247.178 34.123,247.706 35.017,248.072C35.912,248.439 37.005,248.622 38.295,248.622C39.293,248.622 40.29,248.446 41.287,248.094C42.285,247.742 43.033,247.332 43.531,246.862L44.851,249.414ZM37.283,231.726C35.553,231.726 34.167,232.181 33.125,233.09C32.084,234 31.461,235.554 31.255,237.754L42.167,237.754C42.167,235.525 41.742,233.963 40.891,233.068C40.041,232.174 38.838,231.726 37.283,231.726Z" style="fill-rule:nonzero;"/>
        <path d="M51.143,229.174L53.563,229.174L54.223,231.814L54.399,231.814C55.074,230.788 55.947,230.003 57.017,229.46C58.088,228.918 59.313,228.646 60.691,228.646C63.625,228.646 65.81,229.512 67.247,231.242C68.685,232.973 69.403,235.804 69.403,239.734C69.403,241.582 69.161,243.247 68.677,244.728C68.193,246.21 67.511,247.464 66.631,248.49C65.751,249.517 64.688,250.309 63.441,250.866C62.195,251.424 60.809,251.702 59.283,251.702C58.198,251.702 57.34,251.636 56.709,251.504C56.079,251.372 55.397,251.145 54.663,250.822L54.663,259.974L51.143,259.974L51.143,229.174ZM60.031,231.726C58.535,231.726 57.355,232.115 56.489,232.892C55.624,233.67 55.015,234.85 54.663,236.434L54.663,247.346C55.191,247.757 55.793,248.072 56.467,248.292C57.142,248.512 58.037,248.622 59.151,248.622C61.175,248.622 62.781,247.867 63.969,246.356C65.157,244.846 65.751,242.624 65.751,239.69C65.751,238.488 65.649,237.395 65.443,236.412C65.238,235.43 64.908,234.594 64.453,233.904C63.999,233.215 63.412,232.68 62.693,232.298C61.975,231.917 61.087,231.726 60.031,231.726Z" style="fill-rule:nonzero;"/>
        <path d="M74.947,251.174L74.947,229.174L78.467,229.174L78.467,248.094L85.991,248.094L85.991,229.174L89.511,229.174L89.511,248.094L97.035,248.094L97.035,229.174L100.555,229.174L100.555,251.174L74.947,251.174Z" style="fill-rule:nonzero;"/>
        <path d="M121.059,238.15L121.191,235.422L121.059,235.422L119.255,238.238L109.355,251.174L107.331,251.174L107.331,229.174L110.851,229.174L110.851,242.594L110.719,245.19L110.895,245.19L112.611,242.462L122.511,229.174L124.579,229.174L124.579,251.174L121.059,251.174L121.059,238.15Z" style="fill-rule:nonzero;"/>
        <path d="M144.819,241.45L134.875,241.45L134.875,251.174L131.355,251.174L131.355,229.174L134.875,229.174L134.875,238.37L144.819,238.37L144.819,229.174L148.339,229.174L148.339,251.174L144.819,251.174L144.819,241.45Z" style="fill-rule:nonzero;"/>
        <path d="M154.763,230.802C155.878,230.128 157.176,229.629 158.657,229.306C160.139,228.984 161.686,228.822 163.299,228.822C164.825,228.822 166.049,229.028 166.973,229.438C167.897,229.849 168.601,230.384 169.085,231.044C169.569,231.704 169.892,232.43 170.053,233.222C170.215,234.014 170.295,234.806 170.295,235.598C170.295,237.358 170.251,239.074 170.163,240.746C170.075,242.418 170.031,244.002 170.031,245.498C170.031,246.584 170.075,247.61 170.163,248.578C170.251,249.546 170.413,250.441 170.647,251.262L168.051,251.262L167.127,248.182L166.907,248.182C166.643,248.593 166.313,248.996 165.917,249.392C165.521,249.788 165.045,250.14 164.487,250.448C163.93,250.756 163.285,251.013 162.551,251.218C161.818,251.424 160.982,251.526 160.043,251.526C159.105,251.526 158.232,251.38 157.425,251.086C156.619,250.793 155.922,250.375 155.335,249.832C154.749,249.29 154.287,248.637 153.949,247.874C153.612,247.112 153.443,246.246 153.443,245.278C153.443,243.988 153.707,242.91 154.235,242.044C154.763,241.179 155.504,240.49 156.457,239.976C157.411,239.463 158.555,239.096 159.889,238.876C161.224,238.656 162.698,238.546 164.311,238.546L165.521,238.546C165.917,238.546 166.321,238.576 166.731,238.634C166.819,237.754 166.863,236.962 166.863,236.258C166.863,234.645 166.541,233.516 165.895,232.87C165.25,232.225 164.077,231.902 162.375,231.902C161.877,231.902 161.341,231.939 160.769,232.012C160.197,232.086 159.611,232.188 159.009,232.32C158.408,232.452 157.836,232.614 157.293,232.804C156.751,232.995 156.274,233.208 155.863,233.442L154.763,230.802ZM161.011,248.446C161.833,248.446 162.566,248.336 163.211,248.116C163.857,247.896 164.414,247.618 164.883,247.28C165.353,246.943 165.741,246.569 166.049,246.158C166.357,245.748 166.585,245.352 166.731,244.97L166.731,241.318C166.321,241.289 165.903,241.267 165.477,241.252C165.052,241.238 164.634,241.23 164.223,241.23C163.314,241.23 162.427,241.282 161.561,241.384C160.696,241.487 159.933,241.678 159.273,241.956C158.613,242.235 158.085,242.616 157.689,243.1C157.293,243.584 157.095,244.193 157.095,244.926C157.095,245.953 157.462,246.796 158.195,247.456C158.929,248.116 159.867,248.446 161.011,248.446Z" style="fill-rule:nonzero;"/>
        <path d="M577.896,135.248C579.576,134.928 581.426,134.678 583.446,134.498C585.466,134.318 587.476,134.228 589.476,134.228C591.556,134.228 593.646,134.398 595.746,134.738C597.846,135.078 599.736,135.758 601.416,136.778C603.096,137.798 604.466,139.218 605.526,141.038C606.586,142.858 607.116,145.228 607.116,148.148C607.116,150.788 606.656,153.018 605.736,154.838C604.816,156.658 603.596,158.148 602.076,159.308C600.556,160.468 598.826,161.308 596.886,161.828C594.946,162.348 592.936,162.608 590.856,162.608L589.896,162.608C589.456,162.608 588.996,162.598 588.516,162.578C588.036,162.558 587.566,162.528 587.106,162.488C586.646,162.448 586.316,162.408 586.116,162.368L586.116,176.828L577.896,176.828L577.896,135.248ZM590.136,141.308C589.336,141.308 588.576,141.338 587.856,141.398C587.136,141.458 586.556,141.528 586.116,141.608L586.116,155.228C586.276,155.268 586.516,155.308 586.836,155.348C587.156,155.388 587.496,155.418 587.856,155.438C588.216,155.458 588.566,155.468 588.906,155.468L589.656,155.468C590.736,155.468 591.806,155.368 592.866,155.168C593.926,154.968 594.876,154.598 595.716,154.058C596.556,153.518 597.226,152.768 597.726,151.808C598.226,150.848 598.476,149.588 598.476,148.028C598.476,146.708 598.236,145.618 597.756,144.758C597.276,143.898 596.646,143.208 595.866,142.688C595.086,142.168 594.196,141.808 593.196,141.608C592.196,141.408 591.176,141.308 590.136,141.308Z" style="fill:rgb(191,191,191);fill-rule:nonzero;"/>
    </g>
</svg>
