<?xml version="1.0" encoding="UTF-8" standalone="no"?>
<!DOCTYPE svg PUBLIC "-//W3C//DTD SVG 1.1//EN" "http://www.w3.org/Graphics/SVG/1.1/DTD/svg11.dtd">
<svg width="100%" height="100%" viewBox="0 0 679 693" version="1.1" xmlns="http://www.w3.org/2000/svg" xmlns:xlink="http://www.w3.org/1999/xlink" xml:space="preserve" xmlns:serif="http://www.serif.com/" style="fill-rule:evenodd;clip-rule:evenodd;stroke-linecap:round;stroke-miterlimit:10;">
    <g transform="matrix(1,0,0,1,-9071,-5714)">
        <rect id="Artboard5" x="8854" y="4804" width="1160" height="3259" style="fill:none;"/>
        <g id="Artboard51" serif:id="Artboard5">
            <g transform="matrix(3.26479,0,0,3.39594,8539.93,1225.72)">
                <rect x="165" y="1325" width="203" height="197" style="fill:white;stroke:black;stroke-width:2.1px;"/>
            </g>
            <g transform="matrix(3.36422,0,0,3.36422,6387.24,-10244.6)">
                <path d="M800,4891.86L856.58,4920.56L867,4945.86L800,4945.86L800,4891.86Z" style="fill:white;stroke:black;stroke-width:2.08px;stroke-linecap:butt;stroke-linejoin:bevel;"/>
            </g>
            <g transform="matrix(3.36422,0,0,3.36422,8523.53,1267.75)">
                <path d="M165,1325L283,1325L271,1359.71L213.69,1386.09L165,1381L165,1325Z" style="fill:white;stroke:black;stroke-width:2.08px;"/>
            </g>
            <g transform="matrix(3.36422,0,0,3.36422,8523.53,1267.75)">
                <path d="M165,1381L213.69,1386.09L275.167,1454.89L278.436,1473.26L221.58,1498.56L165,1469.86L165,1381Z" style="fill:white;stroke:black;stroke-width:2.08px;"/>
            </g>
            <g transform="matrix(3.36422,0,0,3.36422,8523.53,1267.75)">
                <path d="M304,1394.43L271,1359.71L283,1325L362,1325L362,1388.43L304,1394.43Z" style="fill:white;stroke:black;stroke-width:2.08px;"/>
            </g>
            <g transform="matrix(3.36422,0,0,3.36422,6387.24,-10244.6)">
                <path d="M910.167,4876.89L939,4816.43L906,4781.71L848.69,4808.09L910.167,4876.89Z" style="fill:rgb(255,205,205);stroke:black;stroke-width:2.08px;stroke-linecap:butt;stroke-linejoin:bevel;"/>
            </g>
            <g transform="matrix(3.36422,0,0,3.36422,6387.24,-10244.6)">
                <path d="M867,4945.86L856.58,4920.56L913.436,4895.26L997,4918.86L997,4945.86L867,4945.86Z" style="fill:rgb(213,255,202);stroke:black;stroke-width:2.08px;stroke-linecap:butt;stroke-linejoin:bevel;"/>
            </g>
            <g transform="matrix(3.36422,0,0,3.36422,6387.24,-10244.6)">
                <path d="M939,4816.43L997,4810.43L997,4918.86L913.436,4895.26L910.167,4876.89L939,4816.43Z" style="fill:white;stroke:black;stroke-width:2.08px;stroke-linecap:butt;stroke-linejoin:bevel;"/>
            </g>
            <g transform="matrix(0.986973,0,0,1,2576.45,-1406.16)">
                <rect x="6588" y="7131.5" width="671.5" height="671.5" style="fill:none;stroke:black;stroke-width:7.05px;stroke-linejoin:round;"/>
            </g>
            <g transform="matrix(1,0,0,1,1840.63,-1461.92)">
                <g transform="matrix(72,0,0,72,7308.42,7285.66)">
                    <path d="M0.127,-0.072L0.284,-0.072L0.284,-0.598L0.124,-0.486L0.085,-0.543L0.305,-0.7L0.361,-0.7L0.361,-0.072L0.515,-0.072L0.515,-0L0.127,-0L0.127,-0.072Z" style="fill-rule:nonzero;"/>
                </g>
            </g>
            <g transform="matrix(1,0,0,1,1823.86,-1186.42)">
                <g transform="matrix(72,0,0,72,7308.42,7285.66)">
                    <path d="M0.248,-0.057C0.275,-0.057 0.299,-0.061 0.322,-0.068C0.344,-0.075 0.363,-0.084 0.38,-0.097C0.397,-0.11 0.41,-0.125 0.419,-0.143C0.428,-0.161 0.433,-0.181 0.433,-0.203C0.433,-0.249 0.417,-0.282 0.385,-0.302C0.352,-0.321 0.309,-0.331 0.254,-0.331L0.19,-0.331L0.19,-0.379L0.387,-0.628L0.088,-0.628L0.088,-0.7L0.483,-0.7L0.483,-0.628L0.286,-0.397L0.302,-0.397C0.333,-0.397 0.361,-0.393 0.386,-0.384C0.411,-0.375 0.433,-0.363 0.452,-0.347C0.471,-0.331 0.485,-0.312 0.496,-0.289C0.506,-0.266 0.511,-0.241 0.511,-0.212C0.511,-0.176 0.504,-0.144 0.49,-0.116C0.476,-0.088 0.457,-0.065 0.433,-0.046C0.409,-0.027 0.381,-0.012 0.349,-0.003C0.316,0.007 0.282,0.012 0.245,0.012C0.211,0.012 0.182,0.01 0.157,0.005C0.132,-0 0.109,-0.007 0.088,-0.014L0.108,-0.084C0.125,-0.076 0.146,-0.07 0.169,-0.065C0.192,-0.059 0.219,-0.057 0.248,-0.057Z" style="fill-rule:nonzero;"/>
                </g>
            </g>
            <g transform="matrix(1,0,0,1,2099.29,-1358.44)">
                <g transform="matrix(72,0,0,72,7308.42,7285.66)">
                    <path d="M0.58,-0.218L0.445,-0.218L0.445,-0L0.367,-0L0.367,-0.218L0.044,-0.218L0.044,-0.276L0.379,-0.7L0.445,-0.7L0.445,-0.284L0.58,-0.284L0.58,-0.218ZM0.367,-0.575L0.136,-0.284L0.367,-0.284L0.367,-0.575Z" style="fill-rule:nonzero;"/>
                </g>
            </g>
            <g transform="matrix(1,0,0,1,2267.7,-921.921)">
                <g transform="matrix(72,0,0,72,7308.42,7285.66)">
                    <path d="M0.124,-0L0.43,-0.628L0.069,-0.628L0.069,-0.7L0.511,-0.7L0.511,-0.635L0.206,-0L0.124,-0Z" style="fill-rule:nonzero;"/>
                </g>
            </g>
            <g transform="matrix(1,0,0,1,1789.6,-973.185)">
                <g transform="matrix(72,0,0,72,7308.42,7285.66)">
                    <path d="M0.539,-0.211C0.539,-0.182 0.534,-0.155 0.524,-0.128C0.513,-0.101 0.498,-0.078 0.478,-0.057C0.458,-0.036 0.433,-0.02 0.404,-0.007C0.375,0.006 0.341,0.012 0.302,0.012C0.266,0.012 0.233,0.006 0.204,-0.005C0.175,-0.016 0.149,-0.033 0.128,-0.054C0.107,-0.075 0.09,-0.1 0.079,-0.131C0.067,-0.162 0.061,-0.196 0.061,-0.234C0.061,-0.297 0.07,-0.356 0.089,-0.412C0.107,-0.468 0.133,-0.517 0.166,-0.56C0.199,-0.603 0.238,-0.637 0.284,-0.664C0.329,-0.691 0.379,-0.707 0.434,-0.712L0.448,-0.648C0.406,-0.643 0.368,-0.63 0.333,-0.611C0.298,-0.592 0.267,-0.568 0.241,-0.539C0.215,-0.51 0.194,-0.479 0.178,-0.444C0.161,-0.409 0.151,-0.374 0.146,-0.338C0.151,-0.347 0.159,-0.356 0.17,-0.365C0.18,-0.374 0.192,-0.383 0.207,-0.39C0.221,-0.397 0.237,-0.402 0.255,-0.407C0.272,-0.412 0.291,-0.414 0.312,-0.414C0.347,-0.414 0.379,-0.409 0.407,-0.4C0.435,-0.39 0.459,-0.376 0.479,-0.359C0.498,-0.341 0.513,-0.32 0.524,-0.295C0.534,-0.27 0.539,-0.242 0.539,-0.211ZM0.457,-0.203C0.457,-0.25 0.444,-0.285 0.418,-0.31C0.392,-0.335 0.352,-0.347 0.298,-0.347C0.279,-0.347 0.261,-0.345 0.244,-0.34C0.227,-0.335 0.212,-0.329 0.199,-0.322C0.186,-0.314 0.174,-0.305 0.164,-0.295C0.154,-0.285 0.146,-0.275 0.141,-0.265C0.14,-0.256 0.139,-0.248 0.139,-0.243L0.139,-0.224C0.139,-0.204 0.142,-0.184 0.149,-0.164C0.156,-0.143 0.166,-0.125 0.18,-0.109C0.193,-0.093 0.21,-0.08 0.231,-0.07C0.252,-0.06 0.276,-0.055 0.304,-0.055C0.327,-0.055 0.347,-0.059 0.366,-0.067C0.385,-0.075 0.401,-0.086 0.415,-0.099C0.428,-0.112 0.439,-0.128 0.446,-0.146C0.453,-0.164 0.457,-0.183 0.457,-0.203Z" style="fill-rule:nonzero;"/>
                </g>
            </g>
            <g transform="matrix(1,0,0,1,2361.1,-1486.62)">
                <g transform="matrix(72,0,0,72,7308.42,7285.66)">
                    <path d="M0.5,-0.523C0.5,-0.462 0.471,-0.393 0.413,-0.318C0.355,-0.243 0.274,-0.161 0.17,-0.072L0.522,-0.072L0.522,-0L0.078,-0L0.078,-0.072C0.091,-0.084 0.108,-0.1 0.13,-0.119C0.152,-0.138 0.176,-0.16 0.201,-0.184C0.226,-0.207 0.252,-0.233 0.279,-0.26C0.305,-0.287 0.329,-0.315 0.35,-0.344C0.371,-0.373 0.389,-0.401 0.402,-0.43C0.415,-0.459 0.422,-0.486 0.422,-0.513C0.422,-0.553 0.411,-0.585 0.391,-0.608C0.37,-0.631 0.338,-0.642 0.296,-0.642C0.26,-0.642 0.23,-0.638 0.205,-0.63C0.18,-0.622 0.158,-0.61 0.138,-0.595L0.104,-0.65C0.134,-0.671 0.166,-0.687 0.2,-0.697C0.233,-0.707 0.27,-0.712 0.31,-0.712C0.373,-0.712 0.42,-0.695 0.452,-0.661C0.484,-0.627 0.5,-0.581 0.5,-0.523Z" style="fill-rule:nonzero;"/>
                </g>
            </g>
            <g transform="matrix(1,0,0,1,2345.48,-1114.14)">
                <g transform="matrix(72,0,0,72,7308.42,7285.66)">
                    <path d="M0.256,-0.058C0.281,-0.058 0.305,-0.061 0.326,-0.068C0.347,-0.074 0.366,-0.084 0.381,-0.097C0.396,-0.11 0.407,-0.126 0.416,-0.145C0.424,-0.164 0.428,-0.187 0.428,-0.213C0.428,-0.261 0.411,-0.298 0.377,-0.323C0.342,-0.347 0.295,-0.36 0.236,-0.36L0.142,-0.355L0.142,-0.7L0.485,-0.7L0.485,-0.628L0.217,-0.628L0.217,-0.425L0.267,-0.427C0.341,-0.427 0.399,-0.409 0.442,-0.373C0.485,-0.337 0.506,-0.286 0.506,-0.219C0.506,-0.182 0.5,-0.149 0.487,-0.12C0.474,-0.091 0.456,-0.067 0.433,-0.048C0.41,-0.028 0.384,-0.013 0.353,-0.003C0.321,0.007 0.288,0.012 0.251,0.012C0.231,0.012 0.212,0.011 0.194,0.008C0.176,0.005 0.16,0.001 0.145,-0.004C0.13,-0.008 0.117,-0.013 0.107,-0.018C0.095,-0.023 0.088,-0.027 0.083,-0.031L0.115,-0.096C0.126,-0.089 0.144,-0.081 0.167,-0.072C0.19,-0.063 0.22,-0.058 0.256,-0.058Z" style="fill-rule:nonzero;"/>
                </g>
            </g>
            <g transform="matrix(1,0,0,1,0,766.344)">
                <path d="M9430.74,5208L9619.93,5057.4" style="fill:none;"/>
                <g transform="matrix(1,-0,-0,1,9071,4947.66)">
                    <path d="M378.106,220.799L359.737,260.344L402.394,251.312L378.106,220.799Z" style="fill:rgb(255,13,13);"/>
                    <path d="M384.147,240.913C435.277,200.213 548.932,109.742 548.932,109.742" style="fill:none;stroke:rgb(255,13,13);stroke-width:13px;stroke-linecap:butt;stroke-linejoin:round;"/>
                </g>
            </g>
            <g transform="matrix(1,0,0,1,0,766.344)">
                <g transform="matrix(1,-0,-0,1,9071,4947.66)">
                    <path d="M294.707,243.415L336.025,257.344L322.377,215.932L294.707,243.415Z" style="fill:rgb(255,13,13);"/>
                    <path d="M314.039,235.207C270.846,191.72 179.082,99.331 179.082,99.331" style="fill:none;stroke:rgb(255,13,13);stroke-width:13px;stroke-linecap:butt;stroke-linejoin:round;"/>
                </g>
            </g>
            <g transform="matrix(1,0,0,1,0,766.344)">
                <g transform="matrix(1,-0,-0,1,9071,4947.66)">
                    <path d="M314.915,314.496L336.025,276.344L292.837,282.347L314.915,314.496Z" style="fill:rgb(255,13,13);"/>
                    <path d="M310.306,294.006C260.12,328.47 154,401.344 154,401.344" style="fill:none;stroke:rgb(255,13,13);stroke-width:13px;stroke-linecap:butt;stroke-linejoin:round;"/>
                </g>
            </g>
            <g transform="matrix(1,0,0,1,0,766.344)">
                <g transform="matrix(1,-0,-0,1,9071,4947.66)">
                    <path d="M403.131,280.614L359.737,276.344L382.357,313.621L403.131,280.614Z" style="fill:rgb(255,13,13);"/>
                    <path d="M386.142,292.963C438.536,325.938 550.628,396.486 550.628,396.486" style="fill:none;stroke:rgb(255,13,13);stroke-width:13px;stroke-linecap:butt;stroke-linejoin:round;"/>
                </g>
            </g>
            <g transform="matrix(0.739383,0,0,0.739383,2289.45,1566.24)">
                <circle cx="9414.1" cy="5744.1" r="21.104"/>
            </g>
            <g transform="matrix(0.739383,0,0,0.739383,2659.3,1576.65)">
                <circle cx="9414.1" cy="5744.1" r="21.104"/>
            </g>
            <g transform="matrix(0.739383,0,0,0.739383,2458.37,1735.25)">
                <circle cx="9414.1" cy="5744.1" r="21.104"/>
            </g>
            <g transform="matrix(1,0,0,1,-310.077,670.904)">
                <g transform="matrix(72,0,0,72,9621.37,5170.22)">
                    <path d="M0.038,-0.351C0.038,-0.412 0.044,-0.465 0.057,-0.511C0.07,-0.556 0.088,-0.594 0.111,-0.624C0.133,-0.654 0.161,-0.677 0.193,-0.692C0.225,-0.707 0.261,-0.714 0.3,-0.714C0.384,-0.714 0.449,-0.685 0.494,-0.626C0.539,-0.567 0.562,-0.475 0.562,-0.351C0.562,-0.29 0.556,-0.236 0.543,-0.191C0.53,-0.145 0.513,-0.107 0.49,-0.077C0.466,-0.046 0.439,-0.024 0.407,-0.009C0.374,0.007 0.338,0.014 0.299,0.014C0.214,0.014 0.15,-0.017 0.105,-0.08C0.06,-0.142 0.038,-0.232 0.038,-0.351ZM0.434,-0.351C0.434,-0.362 0.434,-0.372 0.434,-0.382C0.433,-0.391 0.433,-0.401 0.432,-0.41L0.187,-0.187C0.208,-0.126 0.245,-0.096 0.3,-0.096C0.343,-0.096 0.376,-0.116 0.399,-0.157C0.422,-0.198 0.434,-0.262 0.434,-0.351ZM0.166,-0.351C0.166,-0.341 0.166,-0.332 0.167,-0.323C0.167,-0.314 0.167,-0.304 0.168,-0.295L0.412,-0.518C0.392,-0.575 0.354,-0.604 0.299,-0.604C0.256,-0.604 0.224,-0.584 0.201,-0.543C0.178,-0.501 0.166,-0.438 0.166,-0.351Z" style="fill:rgb(255,13,13);fill-rule:nonzero;"/>
                </g>
                <g transform="matrix(72,0,0,72,9664.57,5170.22)">
                    <path d="M0.219,-0.066C0.219,-0.089 0.226,-0.108 0.241,-0.122C0.256,-0.135 0.275,-0.142 0.299,-0.142C0.324,-0.142 0.344,-0.135 0.359,-0.122C0.374,-0.108 0.381,-0.089 0.381,-0.066C0.381,-0.043 0.374,-0.024 0.359,-0.01C0.344,0.004 0.324,0.011 0.299,0.011C0.275,0.011 0.256,0.004 0.241,-0.01C0.226,-0.024 0.219,-0.043 0.219,-0.066Z" style="fill:rgb(255,13,13);fill-rule:nonzero;"/>
                </g>
                <g transform="matrix(72,0,0,72,9707.77,5170.22)">
                    <path d="M0.523,-0L0.077,-0L0.077,-0.097C0.085,-0.104 0.095,-0.113 0.107,-0.124C0.119,-0.135 0.132,-0.147 0.148,-0.161C0.163,-0.175 0.178,-0.19 0.195,-0.207C0.212,-0.224 0.228,-0.241 0.244,-0.259C0.267,-0.284 0.287,-0.307 0.304,-0.328C0.321,-0.349 0.335,-0.368 0.346,-0.387C0.357,-0.405 0.365,-0.423 0.37,-0.441C0.375,-0.458 0.378,-0.476 0.378,-0.495C0.378,-0.508 0.375,-0.521 0.369,-0.534C0.363,-0.547 0.355,-0.558 0.344,-0.568C0.333,-0.577 0.321,-0.585 0.306,-0.591C0.291,-0.596 0.274,-0.599 0.256,-0.599C0.232,-0.599 0.21,-0.595 0.191,-0.588C0.171,-0.581 0.15,-0.568 0.129,-0.551L0.077,-0.643C0.105,-0.663 0.136,-0.68 0.171,-0.694C0.205,-0.707 0.244,-0.714 0.289,-0.714C0.318,-0.714 0.345,-0.71 0.372,-0.702C0.398,-0.694 0.421,-0.682 0.442,-0.667C0.462,-0.651 0.478,-0.631 0.49,-0.608C0.502,-0.585 0.508,-0.558 0.508,-0.527C0.508,-0.506 0.506,-0.486 0.503,-0.468C0.499,-0.449 0.493,-0.431 0.486,-0.413C0.478,-0.394 0.468,-0.375 0.456,-0.356C0.443,-0.337 0.428,-0.316 0.411,-0.293C0.398,-0.276 0.383,-0.258 0.368,-0.241C0.352,-0.223 0.336,-0.206 0.321,-0.19C0.306,-0.174 0.291,-0.159 0.276,-0.145C0.261,-0.131 0.247,-0.119 0.235,-0.11L0.523,-0.11L0.523,-0Z" style="fill:rgb(255,13,13);fill-rule:nonzero;"/>
                </g>
                <g transform="matrix(72,0,0,72,9750.97,5170.22)">
                    <path d="M0.237,-0.101C0.259,-0.101 0.279,-0.104 0.298,-0.109C0.317,-0.114 0.333,-0.122 0.347,-0.132C0.36,-0.142 0.371,-0.154 0.379,-0.169C0.386,-0.184 0.39,-0.2 0.39,-0.219C0.39,-0.256 0.376,-0.285 0.347,-0.306C0.318,-0.327 0.274,-0.337 0.216,-0.337C0.209,-0.337 0.2,-0.337 0.191,-0.337C0.181,-0.336 0.172,-0.336 0.163,-0.335C0.153,-0.334 0.143,-0.334 0.132,-0.334L0.132,-0.7L0.494,-0.7L0.494,-0.58L0.244,-0.58L0.244,-0.443C0.249,-0.443 0.255,-0.443 0.26,-0.444L0.285,-0.445C0.318,-0.445 0.349,-0.44 0.378,-0.431C0.407,-0.421 0.432,-0.406 0.453,-0.387C0.474,-0.368 0.491,-0.344 0.503,-0.317C0.514,-0.289 0.52,-0.258 0.52,-0.225C0.52,-0.186 0.513,-0.151 0.498,-0.122C0.483,-0.092 0.463,-0.067 0.438,-0.047C0.413,-0.027 0.383,-0.012 0.35,-0.002C0.317,0.009 0.281,0.014 0.243,0.014C0.228,0.014 0.213,0.012 0.196,0.01C0.179,0.007 0.163,0.003 0.147,-0.002C0.131,-0.006 0.116,-0.011 0.103,-0.016C0.089,-0.021 0.077,-0.026 0.068,-0.031L0.11,-0.135C0.121,-0.128 0.139,-0.121 0.163,-0.113C0.186,-0.105 0.211,-0.101 0.237,-0.101Z" style="fill:rgb(255,13,13);fill-rule:nonzero;"/>
                </g>
            </g>
            <g transform="matrix(1,0,0,1,-57.2822,758.722)">
                <g transform="matrix(72,0,0,72,9621.37,5170.22)">
                    <path d="M0.038,-0.351C0.038,-0.412 0.044,-0.465 0.057,-0.511C0.07,-0.556 0.088,-0.594 0.111,-0.624C0.133,-0.654 0.161,-0.677 0.193,-0.692C0.225,-0.707 0.261,-0.714 0.3,-0.714C0.384,-0.714 0.449,-0.685 0.494,-0.626C0.539,-0.567 0.562,-0.475 0.562,-0.351C0.562,-0.29 0.556,-0.236 0.543,-0.191C0.53,-0.145 0.513,-0.107 0.49,-0.077C0.466,-0.046 0.439,-0.024 0.407,-0.009C0.374,0.007 0.338,0.014 0.299,0.014C0.214,0.014 0.15,-0.017 0.105,-0.08C0.06,-0.142 0.038,-0.232 0.038,-0.351ZM0.434,-0.351C0.434,-0.362 0.434,-0.372 0.434,-0.382C0.433,-0.391 0.433,-0.401 0.432,-0.41L0.187,-0.187C0.208,-0.126 0.245,-0.096 0.3,-0.096C0.343,-0.096 0.376,-0.116 0.399,-0.157C0.422,-0.198 0.434,-0.262 0.434,-0.351ZM0.166,-0.351C0.166,-0.341 0.166,-0.332 0.167,-0.323C0.167,-0.314 0.167,-0.304 0.168,-0.295L0.412,-0.518C0.392,-0.575 0.354,-0.604 0.299,-0.604C0.256,-0.604 0.224,-0.584 0.201,-0.543C0.178,-0.501 0.166,-0.438 0.166,-0.351Z" style="fill:rgb(255,13,13);fill-rule:nonzero;"/>
                </g>
                <g transform="matrix(72,0,0,72,9664.57,5170.22)">
                    <path d="M0.219,-0.066C0.219,-0.089 0.226,-0.108 0.241,-0.122C0.256,-0.135 0.275,-0.142 0.299,-0.142C0.324,-0.142 0.344,-0.135 0.359,-0.122C0.374,-0.108 0.381,-0.089 0.381,-0.066C0.381,-0.043 0.374,-0.024 0.359,-0.01C0.344,0.004 0.324,0.011 0.299,0.011C0.275,0.011 0.256,0.004 0.241,-0.01C0.226,-0.024 0.219,-0.043 0.219,-0.066Z" style="fill:rgb(255,13,13);fill-rule:nonzero;"/>
                </g>
                <g transform="matrix(72,0,0,72,9707.77,5170.22)">
                    <path d="M0.523,-0L0.077,-0L0.077,-0.097C0.085,-0.104 0.095,-0.113 0.107,-0.124C0.119,-0.135 0.132,-0.147 0.148,-0.161C0.163,-0.175 0.178,-0.19 0.195,-0.207C0.212,-0.224 0.228,-0.241 0.244,-0.259C0.267,-0.284 0.287,-0.307 0.304,-0.328C0.321,-0.349 0.335,-0.368 0.346,-0.387C0.357,-0.405 0.365,-0.423 0.37,-0.441C0.375,-0.458 0.378,-0.476 0.378,-0.495C0.378,-0.508 0.375,-0.521 0.369,-0.534C0.363,-0.547 0.355,-0.558 0.344,-0.568C0.333,-0.577 0.321,-0.585 0.306,-0.591C0.291,-0.596 0.274,-0.599 0.256,-0.599C0.232,-0.599 0.21,-0.595 0.191,-0.588C0.171,-0.581 0.15,-0.568 0.129,-0.551L0.077,-0.643C0.105,-0.663 0.136,-0.68 0.171,-0.694C0.205,-0.707 0.244,-0.714 0.289,-0.714C0.318,-0.714 0.345,-0.71 0.372,-0.702C0.398,-0.694 0.421,-0.682 0.442,-0.667C0.462,-0.651 0.478,-0.631 0.49,-0.608C0.502,-0.585 0.508,-0.558 0.508,-0.527C0.508,-0.506 0.506,-0.486 0.503,-0.468C0.499,-0.449 0.493,-0.431 0.486,-0.413C0.478,-0.394 0.468,-0.375 0.456,-0.356C0.443,-0.337 0.428,-0.316 0.411,-0.293C0.398,-0.276 0.383,-0.258 0.368,-0.241C0.352,-0.223 0.336,-0.206 0.321,-0.19C0.306,-0.174 0.291,-0.159 0.276,-0.145C0.261,-0.131 0.247,-0.119 0.235,-0.11L0.523,-0.11L0.523,-0Z" style="fill:rgb(255,13,13);fill-rule:nonzero;"/>
                </g>
                <g transform="matrix(72,0,0,72,9750.97,5170.22)">
                    <path d="M0.237,-0.101C0.259,-0.101 0.279,-0.104 0.298,-0.109C0.317,-0.114 0.333,-0.122 0.347,-0.132C0.36,-0.142 0.371,-0.154 0.379,-0.169C0.386,-0.184 0.39,-0.2 0.39,-0.219C0.39,-0.256 0.376,-0.285 0.347,-0.306C0.318,-0.327 0.274,-0.337 0.216,-0.337C0.209,-0.337 0.2,-0.337 0.191,-0.337C0.181,-0.336 0.172,-0.336 0.163,-0.335C0.153,-0.334 0.143,-0.334 0.132,-0.334L0.132,-0.7L0.494,-0.7L0.494,-0.58L0.244,-0.58L0.244,-0.443C0.249,-0.443 0.255,-0.443 0.26,-0.444L0.285,-0.445C0.318,-0.445 0.349,-0.44 0.378,-0.431C0.407,-0.421 0.432,-0.406 0.453,-0.387C0.474,-0.368 0.491,-0.344 0.503,-0.317C0.514,-0.289 0.52,-0.258 0.52,-0.225C0.52,-0.186 0.513,-0.151 0.498,-0.122C0.483,-0.092 0.463,-0.067 0.438,-0.047C0.413,-0.027 0.383,-0.012 0.35,-0.002C0.317,0.009 0.281,0.014 0.243,0.014C0.228,0.014 0.213,0.012 0.196,0.01C0.179,0.007 0.163,0.003 0.147,-0.002C0.131,-0.006 0.116,-0.011 0.103,-0.016C0.089,-0.021 0.077,-0.026 0.068,-0.031L0.11,-0.135C0.121,-0.128 0.139,-0.121 0.163,-0.113C0.186,-0.105 0.211,-0.101 0.237,-0.101Z" style="fill:rgb(255,13,13);fill-rule:nonzero;"/>
                </g>
            </g>
            <g transform="matrix(1,0,0,1,-70.6849,877.765)">
                <g transform="matrix(72,0,0,72,9621.37,5170.22)">
                    <path d="M0.038,-0.351C0.038,-0.412 0.044,-0.465 0.057,-0.511C0.07,-0.556 0.088,-0.594 0.111,-0.624C0.133,-0.654 0.161,-0.677 0.193,-0.692C0.225,-0.707 0.261,-0.714 0.3,-0.714C0.384,-0.714 0.449,-0.685 0.494,-0.626C0.539,-0.567 0.562,-0.475 0.562,-0.351C0.562,-0.29 0.556,-0.236 0.543,-0.191C0.53,-0.145 0.513,-0.107 0.49,-0.077C0.466,-0.046 0.439,-0.024 0.407,-0.009C0.374,0.007 0.338,0.014 0.299,0.014C0.214,0.014 0.15,-0.017 0.105,-0.08C0.06,-0.142 0.038,-0.232 0.038,-0.351ZM0.434,-0.351C0.434,-0.362 0.434,-0.372 0.434,-0.382C0.433,-0.391 0.433,-0.401 0.432,-0.41L0.187,-0.187C0.208,-0.126 0.245,-0.096 0.3,-0.096C0.343,-0.096 0.376,-0.116 0.399,-0.157C0.422,-0.198 0.434,-0.262 0.434,-0.351ZM0.166,-0.351C0.166,-0.341 0.166,-0.332 0.167,-0.323C0.167,-0.314 0.167,-0.304 0.168,-0.295L0.412,-0.518C0.392,-0.575 0.354,-0.604 0.299,-0.604C0.256,-0.604 0.224,-0.584 0.201,-0.543C0.178,-0.501 0.166,-0.438 0.166,-0.351Z" style="fill:rgb(255,13,13);fill-rule:nonzero;"/>
                </g>
                <g transform="matrix(72,0,0,72,9664.57,5170.22)">
                    <path d="M0.219,-0.066C0.219,-0.089 0.226,-0.108 0.241,-0.122C0.256,-0.135 0.275,-0.142 0.299,-0.142C0.324,-0.142 0.344,-0.135 0.359,-0.122C0.374,-0.108 0.381,-0.089 0.381,-0.066C0.381,-0.043 0.374,-0.024 0.359,-0.01C0.344,0.004 0.324,0.011 0.299,0.011C0.275,0.011 0.256,0.004 0.241,-0.01C0.226,-0.024 0.219,-0.043 0.219,-0.066Z" style="fill:rgb(255,13,13);fill-rule:nonzero;"/>
                </g>
                <g transform="matrix(72,0,0,72,9707.77,5170.22)">
                    <path d="M0.523,-0L0.077,-0L0.077,-0.097C0.085,-0.104 0.095,-0.113 0.107,-0.124C0.119,-0.135 0.132,-0.147 0.148,-0.161C0.163,-0.175 0.178,-0.19 0.195,-0.207C0.212,-0.224 0.228,-0.241 0.244,-0.259C0.267,-0.284 0.287,-0.307 0.304,-0.328C0.321,-0.349 0.335,-0.368 0.346,-0.387C0.357,-0.405 0.365,-0.423 0.37,-0.441C0.375,-0.458 0.378,-0.476 0.378,-0.495C0.378,-0.508 0.375,-0.521 0.369,-0.534C0.363,-0.547 0.355,-0.558 0.344,-0.568C0.333,-0.577 0.321,-0.585 0.306,-0.591C0.291,-0.596 0.274,-0.599 0.256,-0.599C0.232,-0.599 0.21,-0.595 0.191,-0.588C0.171,-0.581 0.15,-0.568 0.129,-0.551L0.077,-0.643C0.105,-0.663 0.136,-0.68 0.171,-0.694C0.205,-0.707 0.244,-0.714 0.289,-0.714C0.318,-0.714 0.345,-0.71 0.372,-0.702C0.398,-0.694 0.421,-0.682 0.442,-0.667C0.462,-0.651 0.478,-0.631 0.49,-0.608C0.502,-0.585 0.508,-0.558 0.508,-0.527C0.508,-0.506 0.506,-0.486 0.503,-0.468C0.499,-0.449 0.493,-0.431 0.486,-0.413C0.478,-0.394 0.468,-0.375 0.456,-0.356C0.443,-0.337 0.428,-0.316 0.411,-0.293C0.398,-0.276 0.383,-0.258 0.368,-0.241C0.352,-0.223 0.336,-0.206 0.321,-0.19C0.306,-0.174 0.291,-0.159 0.276,-0.145C0.261,-0.131 0.247,-0.119 0.235,-0.11L0.523,-0.11L0.523,-0Z" style="fill:rgb(255,13,13);fill-rule:nonzero;"/>
                </g>
                <g transform="matrix(72,0,0,72,9750.97,5170.22)">
                    <path d="M0.237,-0.101C0.259,-0.101 0.279,-0.104 0.298,-0.109C0.317,-0.114 0.333,-0.122 0.347,-0.132C0.36,-0.142 0.371,-0.154 0.379,-0.169C0.386,-0.184 0.39,-0.2 0.39,-0.219C0.39,-0.256 0.376,-0.285 0.347,-0.306C0.318,-0.327 0.274,-0.337 0.216,-0.337C0.209,-0.337 0.2,-0.337 0.191,-0.337C0.181,-0.336 0.172,-0.336 0.163,-0.335C0.153,-0.334 0.143,-0.334 0.132,-0.334L0.132,-0.7L0.494,-0.7L0.494,-0.58L0.244,-0.58L0.244,-0.443C0.249,-0.443 0.255,-0.443 0.26,-0.444L0.285,-0.445C0.318,-0.445 0.349,-0.44 0.378,-0.431C0.407,-0.421 0.432,-0.406 0.453,-0.387C0.474,-0.368 0.491,-0.344 0.503,-0.317C0.514,-0.289 0.52,-0.258 0.52,-0.225C0.52,-0.186 0.513,-0.151 0.498,-0.122C0.483,-0.092 0.463,-0.067 0.438,-0.047C0.413,-0.027 0.383,-0.012 0.35,-0.002C0.317,0.009 0.281,0.014 0.243,0.014C0.228,0.014 0.213,0.012 0.196,0.01C0.179,0.007 0.163,0.003 0.147,-0.002C0.131,-0.006 0.116,-0.011 0.103,-0.016C0.089,-0.021 0.077,-0.026 0.068,-0.031L0.11,-0.135C0.121,-0.128 0.139,-0.121 0.163,-0.113C0.186,-0.105 0.211,-0.101 0.237,-0.101Z" style="fill:rgb(255,13,13);fill-rule:nonzero;"/>
                </g>
            </g>
            <g transform="matrix(1,0,0,1,-461.182,850.58)">
                <g transform="matrix(72,0,0,72,9621.37,5170.22)">
                    <path d="M0.038,-0.351C0.038,-0.412 0.044,-0.465 0.057,-0.511C0.07,-0.556 0.088,-0.594 0.111,-0.624C0.133,-0.654 0.161,-0.677 0.193,-0.692C0.225,-0.707 0.261,-0.714 0.3,-0.714C0.384,-0.714 0.449,-0.685 0.494,-0.626C0.539,-0.567 0.562,-0.475 0.562,-0.351C0.562,-0.29 0.556,-0.236 0.543,-0.191C0.53,-0.145 0.513,-0.107 0.49,-0.077C0.466,-0.046 0.439,-0.024 0.407,-0.009C0.374,0.007 0.338,0.014 0.299,0.014C0.214,0.014 0.15,-0.017 0.105,-0.08C0.06,-0.142 0.038,-0.232 0.038,-0.351ZM0.434,-0.351C0.434,-0.362 0.434,-0.372 0.434,-0.382C0.433,-0.391 0.433,-0.401 0.432,-0.41L0.187,-0.187C0.208,-0.126 0.245,-0.096 0.3,-0.096C0.343,-0.096 0.376,-0.116 0.399,-0.157C0.422,-0.198 0.434,-0.262 0.434,-0.351ZM0.166,-0.351C0.166,-0.341 0.166,-0.332 0.167,-0.323C0.167,-0.314 0.167,-0.304 0.168,-0.295L0.412,-0.518C0.392,-0.575 0.354,-0.604 0.299,-0.604C0.256,-0.604 0.224,-0.584 0.201,-0.543C0.178,-0.501 0.166,-0.438 0.166,-0.351Z" style="fill:rgb(255,13,13);fill-rule:nonzero;"/>
                </g>
                <g transform="matrix(72,0,0,72,9664.57,5170.22)">
                    <path d="M0.219,-0.066C0.219,-0.089 0.226,-0.108 0.241,-0.122C0.256,-0.135 0.275,-0.142 0.299,-0.142C0.324,-0.142 0.344,-0.135 0.359,-0.122C0.374,-0.108 0.381,-0.089 0.381,-0.066C0.381,-0.043 0.374,-0.024 0.359,-0.01C0.344,0.004 0.324,0.011 0.299,0.011C0.275,0.011 0.256,0.004 0.241,-0.01C0.226,-0.024 0.219,-0.043 0.219,-0.066Z" style="fill:rgb(255,13,13);fill-rule:nonzero;"/>
                </g>
                <g transform="matrix(72,0,0,72,9707.77,5170.22)">
                    <path d="M0.523,-0L0.077,-0L0.077,-0.097C0.085,-0.104 0.095,-0.113 0.107,-0.124C0.119,-0.135 0.132,-0.147 0.148,-0.161C0.163,-0.175 0.178,-0.19 0.195,-0.207C0.212,-0.224 0.228,-0.241 0.244,-0.259C0.267,-0.284 0.287,-0.307 0.304,-0.328C0.321,-0.349 0.335,-0.368 0.346,-0.387C0.357,-0.405 0.365,-0.423 0.37,-0.441C0.375,-0.458 0.378,-0.476 0.378,-0.495C0.378,-0.508 0.375,-0.521 0.369,-0.534C0.363,-0.547 0.355,-0.558 0.344,-0.568C0.333,-0.577 0.321,-0.585 0.306,-0.591C0.291,-0.596 0.274,-0.599 0.256,-0.599C0.232,-0.599 0.21,-0.595 0.191,-0.588C0.171,-0.581 0.15,-0.568 0.129,-0.551L0.077,-0.643C0.105,-0.663 0.136,-0.68 0.171,-0.694C0.205,-0.707 0.244,-0.714 0.289,-0.714C0.318,-0.714 0.345,-0.71 0.372,-0.702C0.398,-0.694 0.421,-0.682 0.442,-0.667C0.462,-0.651 0.478,-0.631 0.49,-0.608C0.502,-0.585 0.508,-0.558 0.508,-0.527C0.508,-0.506 0.506,-0.486 0.503,-0.468C0.499,-0.449 0.493,-0.431 0.486,-0.413C0.478,-0.394 0.468,-0.375 0.456,-0.356C0.443,-0.337 0.428,-0.316 0.411,-0.293C0.398,-0.276 0.383,-0.258 0.368,-0.241C0.352,-0.223 0.336,-0.206 0.321,-0.19C0.306,-0.174 0.291,-0.159 0.276,-0.145C0.261,-0.131 0.247,-0.119 0.235,-0.11L0.523,-0.11L0.523,-0Z" style="fill:rgb(255,13,13);fill-rule:nonzero;"/>
                </g>
                <g transform="matrix(72,0,0,72,9750.97,5170.22)">
                    <path d="M0.237,-0.101C0.259,-0.101 0.279,-0.104 0.298,-0.109C0.317,-0.114 0.333,-0.122 0.347,-0.132C0.36,-0.142 0.371,-0.154 0.379,-0.169C0.386,-0.184 0.39,-0.2 0.39,-0.219C0.39,-0.256 0.376,-0.285 0.347,-0.306C0.318,-0.327 0.274,-0.337 0.216,-0.337C0.209,-0.337 0.2,-0.337 0.191,-0.337C0.181,-0.336 0.172,-0.336 0.163,-0.335C0.153,-0.334 0.143,-0.334 0.132,-0.334L0.132,-0.7L0.494,-0.7L0.494,-0.58L0.244,-0.58L0.244,-0.443C0.249,-0.443 0.255,-0.443 0.26,-0.444L0.285,-0.445C0.318,-0.445 0.349,-0.44 0.378,-0.431C0.407,-0.421 0.432,-0.406 0.453,-0.387C0.474,-0.368 0.491,-0.344 0.503,-0.317C0.514,-0.289 0.52,-0.258 0.52,-0.225C0.52,-0.186 0.513,-0.151 0.498,-0.122C0.483,-0.092 0.463,-0.067 0.438,-0.047C0.413,-0.027 0.383,-0.012 0.35,-0.002C0.317,0.009 0.281,0.014 0.243,0.014C0.228,0.014 0.213,0.012 0.196,0.01C0.179,0.007 0.163,0.003 0.147,-0.002C0.131,-0.006 0.116,-0.011 0.103,-0.016C0.089,-0.021 0.077,-0.026 0.068,-0.031L0.11,-0.135C0.121,-0.128 0.139,-0.121 0.163,-0.113C0.186,-0.105 0.211,-0.101 0.237,-0.101Z" style="fill:rgb(255,13,13);fill-rule:nonzero;"/>
                </g>
            </g>
            <g transform="matrix(1,0,0,1,-299.483,996.533)">
                <g transform="matrix(72,0,0,72,9621.37,5170.22)">
                    <path d="M0.038,-0.351C0.038,-0.412 0.044,-0.465 0.057,-0.511C0.07,-0.556 0.088,-0.594 0.111,-0.624C0.133,-0.654 0.161,-0.677 0.193,-0.692C0.225,-0.707 0.261,-0.714 0.3,-0.714C0.384,-0.714 0.449,-0.685 0.494,-0.626C0.539,-0.567 0.562,-0.475 0.562,-0.351C0.562,-0.29 0.556,-0.236 0.543,-0.191C0.53,-0.145 0.513,-0.107 0.49,-0.077C0.466,-0.046 0.439,-0.024 0.407,-0.009C0.374,0.007 0.338,0.014 0.299,0.014C0.214,0.014 0.15,-0.017 0.105,-0.08C0.06,-0.142 0.038,-0.232 0.038,-0.351ZM0.434,-0.351C0.434,-0.362 0.434,-0.372 0.434,-0.382C0.433,-0.391 0.433,-0.401 0.432,-0.41L0.187,-0.187C0.208,-0.126 0.245,-0.096 0.3,-0.096C0.343,-0.096 0.376,-0.116 0.399,-0.157C0.422,-0.198 0.434,-0.262 0.434,-0.351ZM0.166,-0.351C0.166,-0.341 0.166,-0.332 0.167,-0.323C0.167,-0.314 0.167,-0.304 0.168,-0.295L0.412,-0.518C0.392,-0.575 0.354,-0.604 0.299,-0.604C0.256,-0.604 0.224,-0.584 0.201,-0.543C0.178,-0.501 0.166,-0.438 0.166,-0.351Z" style="fill:rgb(39,179,0);fill-rule:nonzero;"/>
                </g>
                <g transform="matrix(72,0,0,72,9664.57,5170.22)">
                    <path d="M0.219,-0.066C0.219,-0.089 0.226,-0.108 0.241,-0.122C0.256,-0.135 0.275,-0.142 0.299,-0.142C0.324,-0.142 0.344,-0.135 0.359,-0.122C0.374,-0.108 0.381,-0.089 0.381,-0.066C0.381,-0.043 0.374,-0.024 0.359,-0.01C0.344,0.004 0.324,0.011 0.299,0.011C0.275,0.011 0.256,0.004 0.241,-0.01C0.226,-0.024 0.219,-0.043 0.219,-0.066Z" style="fill:rgb(39,179,0);fill-rule:nonzero;"/>
                </g>
                <g transform="matrix(72,0,0,72,9707.77,5170.22)">
                    <path d="M0.248,-0.096C0.27,-0.096 0.29,-0.099 0.309,-0.105C0.327,-0.11 0.343,-0.118 0.356,-0.129C0.369,-0.139 0.379,-0.151 0.386,-0.165C0.393,-0.178 0.397,-0.193 0.397,-0.209C0.397,-0.229 0.393,-0.246 0.385,-0.26C0.376,-0.273 0.365,-0.284 0.35,-0.292C0.335,-0.3 0.318,-0.306 0.297,-0.309C0.276,-0.312 0.254,-0.314 0.23,-0.314L0.174,-0.314L0.174,-0.385L0.342,-0.59L0.089,-0.59L0.089,-0.7L0.497,-0.7L0.497,-0.609L0.321,-0.408L0.344,-0.408C0.367,-0.408 0.39,-0.404 0.412,-0.396C0.434,-0.388 0.454,-0.376 0.471,-0.36C0.488,-0.344 0.501,-0.324 0.512,-0.3C0.522,-0.276 0.527,-0.248 0.527,-0.217C0.527,-0.179 0.519,-0.146 0.504,-0.117C0.488,-0.088 0.467,-0.064 0.442,-0.045C0.416,-0.025 0.386,-0.01 0.353,-0.001C0.32,0.009 0.285,0.014 0.25,0.014C0.22,0.014 0.19,0.011 0.16,0.006C0.13,0.001 0.101,-0.008 0.073,-0.019L0.108,-0.127C0.114,-0.124 0.122,-0.12 0.133,-0.117C0.143,-0.114 0.155,-0.11 0.168,-0.107C0.181,-0.104 0.194,-0.101 0.208,-0.099C0.221,-0.097 0.235,-0.096 0.248,-0.096Z" style="fill:rgb(39,179,0);fill-rule:nonzero;"/>
                </g>
                <g transform="matrix(72,0,0,72,9750.97,5170.22)">
                    <path d="M0.248,-0.096C0.27,-0.096 0.29,-0.099 0.309,-0.105C0.327,-0.11 0.343,-0.118 0.356,-0.129C0.369,-0.139 0.379,-0.151 0.386,-0.165C0.393,-0.178 0.397,-0.193 0.397,-0.209C0.397,-0.229 0.393,-0.246 0.385,-0.26C0.376,-0.273 0.365,-0.284 0.35,-0.292C0.335,-0.3 0.318,-0.306 0.297,-0.309C0.276,-0.312 0.254,-0.314 0.23,-0.314L0.174,-0.314L0.174,-0.385L0.342,-0.59L0.089,-0.59L0.089,-0.7L0.497,-0.7L0.497,-0.609L0.321,-0.408L0.344,-0.408C0.367,-0.408 0.39,-0.404 0.412,-0.396C0.434,-0.388 0.454,-0.376 0.471,-0.36C0.488,-0.344 0.501,-0.324 0.512,-0.3C0.522,-0.276 0.527,-0.248 0.527,-0.217C0.527,-0.179 0.519,-0.146 0.504,-0.117C0.488,-0.088 0.467,-0.064 0.442,-0.045C0.416,-0.025 0.386,-0.01 0.353,-0.001C0.32,0.009 0.285,0.014 0.25,0.014C0.22,0.014 0.19,0.011 0.16,0.006C0.13,0.001 0.101,-0.008 0.073,-0.019L0.108,-0.127C0.114,-0.124 0.122,-0.12 0.133,-0.117C0.143,-0.114 0.155,-0.11 0.168,-0.107C0.181,-0.104 0.194,-0.101 0.208,-0.099C0.221,-0.097 0.235,-0.096 0.248,-0.096Z" style="fill:rgb(39,179,0);fill-rule:nonzero;"/>
                </g>
            </g>
            <g transform="matrix(1,0,0,1,-57.7862,1098.72)">
                <g transform="matrix(72,0,0,72,9621.37,5170.22)">
                    <path d="M0.038,-0.351C0.038,-0.412 0.044,-0.465 0.057,-0.511C0.07,-0.556 0.088,-0.594 0.111,-0.624C0.133,-0.654 0.161,-0.677 0.193,-0.692C0.225,-0.707 0.261,-0.714 0.3,-0.714C0.384,-0.714 0.449,-0.685 0.494,-0.626C0.539,-0.567 0.562,-0.475 0.562,-0.351C0.562,-0.29 0.556,-0.236 0.543,-0.191C0.53,-0.145 0.513,-0.107 0.49,-0.077C0.466,-0.046 0.439,-0.024 0.407,-0.009C0.374,0.007 0.338,0.014 0.299,0.014C0.214,0.014 0.15,-0.017 0.105,-0.08C0.06,-0.142 0.038,-0.232 0.038,-0.351ZM0.434,-0.351C0.434,-0.362 0.434,-0.372 0.434,-0.382C0.433,-0.391 0.433,-0.401 0.432,-0.41L0.187,-0.187C0.208,-0.126 0.245,-0.096 0.3,-0.096C0.343,-0.096 0.376,-0.116 0.399,-0.157C0.422,-0.198 0.434,-0.262 0.434,-0.351ZM0.166,-0.351C0.166,-0.341 0.166,-0.332 0.167,-0.323C0.167,-0.314 0.167,-0.304 0.168,-0.295L0.412,-0.518C0.392,-0.575 0.354,-0.604 0.299,-0.604C0.256,-0.604 0.224,-0.584 0.201,-0.543C0.178,-0.501 0.166,-0.438 0.166,-0.351Z" style="fill:rgb(39,179,0);fill-rule:nonzero;"/>
                </g>
                <g transform="matrix(72,0,0,72,9664.57,5170.22)">
                    <path d="M0.219,-0.066C0.219,-0.089 0.226,-0.108 0.241,-0.122C0.256,-0.135 0.275,-0.142 0.299,-0.142C0.324,-0.142 0.344,-0.135 0.359,-0.122C0.374,-0.108 0.381,-0.089 0.381,-0.066C0.381,-0.043 0.374,-0.024 0.359,-0.01C0.344,0.004 0.324,0.011 0.299,0.011C0.275,0.011 0.256,0.004 0.241,-0.01C0.226,-0.024 0.219,-0.043 0.219,-0.066Z" style="fill:rgb(39,179,0);fill-rule:nonzero;"/>
                </g>
                <g transform="matrix(72,0,0,72,9707.77,5170.22)">
                    <path d="M0.248,-0.096C0.27,-0.096 0.29,-0.099 0.309,-0.105C0.327,-0.11 0.343,-0.118 0.356,-0.129C0.369,-0.139 0.379,-0.151 0.386,-0.165C0.393,-0.178 0.397,-0.193 0.397,-0.209C0.397,-0.229 0.393,-0.246 0.385,-0.26C0.376,-0.273 0.365,-0.284 0.35,-0.292C0.335,-0.3 0.318,-0.306 0.297,-0.309C0.276,-0.312 0.254,-0.314 0.23,-0.314L0.174,-0.314L0.174,-0.385L0.342,-0.59L0.089,-0.59L0.089,-0.7L0.497,-0.7L0.497,-0.609L0.321,-0.408L0.344,-0.408C0.367,-0.408 0.39,-0.404 0.412,-0.396C0.434,-0.388 0.454,-0.376 0.471,-0.36C0.488,-0.344 0.501,-0.324 0.512,-0.3C0.522,-0.276 0.527,-0.248 0.527,-0.217C0.527,-0.179 0.519,-0.146 0.504,-0.117C0.488,-0.088 0.467,-0.064 0.442,-0.045C0.416,-0.025 0.386,-0.01 0.353,-0.001C0.32,0.009 0.285,0.014 0.25,0.014C0.22,0.014 0.19,0.011 0.16,0.006C0.13,0.001 0.101,-0.008 0.073,-0.019L0.108,-0.127C0.114,-0.124 0.122,-0.12 0.133,-0.117C0.143,-0.114 0.155,-0.11 0.168,-0.107C0.181,-0.104 0.194,-0.101 0.208,-0.099C0.221,-0.097 0.235,-0.096 0.248,-0.096Z" style="fill:rgb(39,179,0);fill-rule:nonzero;"/>
                </g>
                <g transform="matrix(72,0,0,72,9750.97,5170.22)">
                    <path d="M0.248,-0.096C0.27,-0.096 0.29,-0.099 0.309,-0.105C0.327,-0.11 0.343,-0.118 0.356,-0.129C0.369,-0.139 0.379,-0.151 0.386,-0.165C0.393,-0.178 0.397,-0.193 0.397,-0.209C0.397,-0.229 0.393,-0.246 0.385,-0.26C0.376,-0.273 0.365,-0.284 0.35,-0.292C0.335,-0.3 0.318,-0.306 0.297,-0.309C0.276,-0.312 0.254,-0.314 0.23,-0.314L0.174,-0.314L0.174,-0.385L0.342,-0.59L0.089,-0.59L0.089,-0.7L0.497,-0.7L0.497,-0.609L0.321,-0.408L0.344,-0.408C0.367,-0.408 0.39,-0.404 0.412,-0.396C0.434,-0.388 0.454,-0.376 0.471,-0.36C0.488,-0.344 0.501,-0.324 0.512,-0.3C0.522,-0.276 0.527,-0.248 0.527,-0.217C0.527,-0.179 0.519,-0.146 0.504,-0.117C0.488,-0.088 0.467,-0.064 0.442,-0.045C0.416,-0.025 0.386,-0.01 0.353,-0.001C0.32,0.009 0.285,0.014 0.25,0.014C0.22,0.014 0.19,0.011 0.16,0.006C0.13,0.001 0.101,-0.008 0.073,-0.019L0.108,-0.127C0.114,-0.124 0.122,-0.12 0.133,-0.117C0.143,-0.114 0.155,-0.11 0.168,-0.107C0.181,-0.104 0.194,-0.101 0.208,-0.099C0.221,-0.097 0.235,-0.096 0.248,-0.096Z" style="fill:rgb(39,179,0);fill-rule:nonzero;"/>
                </g>
            </g>
            <g transform="matrix(1,0,0,1,-437.535,1121.28)">
                <g transform="matrix(72,0,0,72,9621.37,5170.22)">
                    <path d="M0.038,-0.351C0.038,-0.412 0.044,-0.465 0.057,-0.511C0.07,-0.556 0.088,-0.594 0.111,-0.624C0.133,-0.654 0.161,-0.677 0.193,-0.692C0.225,-0.707 0.261,-0.714 0.3,-0.714C0.384,-0.714 0.449,-0.685 0.494,-0.626C0.539,-0.567 0.562,-0.475 0.562,-0.351C0.562,-0.29 0.556,-0.236 0.543,-0.191C0.53,-0.145 0.513,-0.107 0.49,-0.077C0.466,-0.046 0.439,-0.024 0.407,-0.009C0.374,0.007 0.338,0.014 0.299,0.014C0.214,0.014 0.15,-0.017 0.105,-0.08C0.06,-0.142 0.038,-0.232 0.038,-0.351ZM0.434,-0.351C0.434,-0.362 0.434,-0.372 0.434,-0.382C0.433,-0.391 0.433,-0.401 0.432,-0.41L0.187,-0.187C0.208,-0.126 0.245,-0.096 0.3,-0.096C0.343,-0.096 0.376,-0.116 0.399,-0.157C0.422,-0.198 0.434,-0.262 0.434,-0.351ZM0.166,-0.351C0.166,-0.341 0.166,-0.332 0.167,-0.323C0.167,-0.314 0.167,-0.304 0.168,-0.295L0.412,-0.518C0.392,-0.575 0.354,-0.604 0.299,-0.604C0.256,-0.604 0.224,-0.584 0.201,-0.543C0.178,-0.501 0.166,-0.438 0.166,-0.351Z" style="fill:rgb(39,179,0);fill-rule:nonzero;"/>
                </g>
                <g transform="matrix(72,0,0,72,9664.57,5170.22)">
                    <path d="M0.219,-0.066C0.219,-0.089 0.226,-0.108 0.241,-0.122C0.256,-0.135 0.275,-0.142 0.299,-0.142C0.324,-0.142 0.344,-0.135 0.359,-0.122C0.374,-0.108 0.381,-0.089 0.381,-0.066C0.381,-0.043 0.374,-0.024 0.359,-0.01C0.344,0.004 0.324,0.011 0.299,0.011C0.275,0.011 0.256,0.004 0.241,-0.01C0.226,-0.024 0.219,-0.043 0.219,-0.066Z" style="fill:rgb(39,179,0);fill-rule:nonzero;"/>
                </g>
                <g transform="matrix(72,0,0,72,9707.77,5170.22)">
                    <path d="M0.248,-0.096C0.27,-0.096 0.29,-0.099 0.309,-0.105C0.327,-0.11 0.343,-0.118 0.356,-0.129C0.369,-0.139 0.379,-0.151 0.386,-0.165C0.393,-0.178 0.397,-0.193 0.397,-0.209C0.397,-0.229 0.393,-0.246 0.385,-0.26C0.376,-0.273 0.365,-0.284 0.35,-0.292C0.335,-0.3 0.318,-0.306 0.297,-0.309C0.276,-0.312 0.254,-0.314 0.23,-0.314L0.174,-0.314L0.174,-0.385L0.342,-0.59L0.089,-0.59L0.089,-0.7L0.497,-0.7L0.497,-0.609L0.321,-0.408L0.344,-0.408C0.367,-0.408 0.39,-0.404 0.412,-0.396C0.434,-0.388 0.454,-0.376 0.471,-0.36C0.488,-0.344 0.501,-0.324 0.512,-0.3C0.522,-0.276 0.527,-0.248 0.527,-0.217C0.527,-0.179 0.519,-0.146 0.504,-0.117C0.488,-0.088 0.467,-0.064 0.442,-0.045C0.416,-0.025 0.386,-0.01 0.353,-0.001C0.32,0.009 0.285,0.014 0.25,0.014C0.22,0.014 0.19,0.011 0.16,0.006C0.13,0.001 0.101,-0.008 0.073,-0.019L0.108,-0.127C0.114,-0.124 0.122,-0.12 0.133,-0.117C0.143,-0.114 0.155,-0.11 0.168,-0.107C0.181,-0.104 0.194,-0.101 0.208,-0.099C0.221,-0.097 0.235,-0.096 0.248,-0.096Z" style="fill:rgb(39,179,0);fill-rule:nonzero;"/>
                </g>
                <g transform="matrix(72,0,0,72,9750.97,5170.22)">
                    <path d="M0.248,-0.096C0.27,-0.096 0.29,-0.099 0.309,-0.105C0.327,-0.11 0.343,-0.118 0.356,-0.129C0.369,-0.139 0.379,-0.151 0.386,-0.165C0.393,-0.178 0.397,-0.193 0.397,-0.209C0.397,-0.229 0.393,-0.246 0.385,-0.26C0.376,-0.273 0.365,-0.284 0.35,-0.292C0.335,-0.3 0.318,-0.306 0.297,-0.309C0.276,-0.312 0.254,-0.314 0.23,-0.314L0.174,-0.314L0.174,-0.385L0.342,-0.59L0.089,-0.59L0.089,-0.7L0.497,-0.7L0.497,-0.609L0.321,-0.408L0.344,-0.408C0.367,-0.408 0.39,-0.404 0.412,-0.396C0.434,-0.388 0.454,-0.376 0.471,-0.36C0.488,-0.344 0.501,-0.324 0.512,-0.3C0.522,-0.276 0.527,-0.248 0.527,-0.217C0.527,-0.179 0.519,-0.146 0.504,-0.117C0.488,-0.088 0.467,-0.064 0.442,-0.045C0.416,-0.025 0.386,-0.01 0.353,-0.001C0.32,0.009 0.285,0.014 0.25,0.014C0.22,0.014 0.19,0.011 0.16,0.006C0.13,0.001 0.101,-0.008 0.073,-0.019L0.108,-0.127C0.114,-0.124 0.122,-0.12 0.133,-0.117C0.143,-0.114 0.155,-0.11 0.168,-0.107C0.181,-0.104 0.194,-0.101 0.208,-0.099C0.221,-0.097 0.235,-0.096 0.248,-0.096Z" style="fill:rgb(39,179,0);fill-rule:nonzero;"/>
                </g>
            </g>
            <g transform="matrix(1,0,0,1,0,766.344)">
                <g transform="matrix(1,-0,-0,1,9071,4947.66)">
                    <path d="M345.531,593.634L385.443,611.191L347.45,632.587L345.531,593.634Z" style="fill:rgb(39,179,0);"/>
                    <path d="M90,625.752C90,625.752 278.36,616.468 354.281,612.726" style="fill:none;stroke:rgb(39,179,0);stroke-width:13px;stroke-linecap:butt;stroke-linejoin:round;"/>
                </g>
            </g>
            <g transform="matrix(1,0,0,1,0,766.344)">
                <g transform="matrix(1,-0,-0,1,9071,4947.66)">
                    <path d="M372.968,559.205L390,599.344L347.669,588.886L372.968,559.205Z" style="fill:rgb(39,179,0);"/>
                    <path d="M152,396.486C152,396.486 306.017,527.762 366.255,579.105" style="fill:none;stroke:rgb(39,179,0);stroke-width:13px;stroke-linecap:butt;stroke-linejoin:round;"/>
                </g>
            </g>
            <g transform="matrix(1,0,0,1,0,766.344)">
                <g transform="matrix(1,-0,-0,1,9071,4947.66)">
                    <path d="M448.245,578.402L410,599.344L416.194,556.183L448.245,578.402Z" style="fill:rgb(39,179,0);"/>
                    <path d="M550.628,396.486C550.628,396.486 465.599,519.142 427.775,573.703" style="fill:none;stroke:rgb(39,179,0);stroke-width:13px;stroke-linecap:butt;stroke-linejoin:round;"/>
                </g>
            </g>
            <g transform="matrix(0.739383,0,0,0.739383,2511.42,2078.1)">
                <circle cx="9414.1" cy="5744.1" r="21.104"/>
            </g>
            <g transform="matrix(0.739383,0,0,0.739383,2199.91,2086.07)">
                <circle cx="9414.1" cy="5744.1" r="21.104"/>
            </g>
            <g transform="matrix(0.739383,0,0,0.739383,2263.87,1866.08)">
                <circle cx="9414.1" cy="5744.1" r="21.104"/>
            </g>
            <g transform="matrix(0.739383,0,0,0.739383,2661,1863.39)">
                <circle cx="9414.1" cy="5744.1" r="21.104"/>
            </g>
        </g>
    </g>
</svg>
