<?xml version="1.0" encoding="UTF-8" standalone="no"?>
<!DOCTYPE svg PUBLIC "-//W3C//DTD SVG 1.1//EN" "http://www.w3.org/Graphics/SVG/1.1/DTD/svg11.dtd">
<svg width="100%" height="100%" viewBox="0 0 982 324" version="1.1" xmlns="http://www.w3.org/2000/svg" xmlns:xlink="http://www.w3.org/1999/xlink" xml:space="preserve" xmlns:serif="http://www.serif.com/" style="fill-rule:evenodd;clip-rule:evenodd;stroke-linecap:square;stroke-linejoin:round;stroke-miterlimit:10;">
    <rect id="Geometric-Operations" serif:id="Geometric Operations" x="-3823" y="-1502" width="6739" height="2861" style="fill:none;"/>
    <g id="Geometric-Operations1" serif:id="Geometric Operations">
        <path d="M478.332,184.367L484.032,184.367L484.932,187.967L485.172,187.967C486.212,186.447 487.442,185.327 488.862,184.607C490.282,183.887 492.012,183.527 494.052,183.527C497.812,183.527 500.632,184.717 502.512,187.097C504.392,189.477 505.332,193.307 505.332,198.587C505.332,201.147 505.032,203.457 504.432,205.517C503.832,207.577 502.942,209.327 501.762,210.767C500.582,212.207 499.142,213.307 497.442,214.067C495.742,214.827 493.792,215.207 491.592,215.207C490.352,215.207 489.332,215.117 488.532,214.937C487.732,214.757 486.932,214.467 486.132,214.067L486.132,226.367L478.332,226.367L478.332,184.367ZM491.712,190.127C490.192,190.127 489.002,190.507 488.142,191.267C487.282,192.027 486.612,193.167 486.132,194.687L486.132,207.167C486.692,207.607 487.302,207.957 487.962,208.217C488.622,208.477 489.492,208.607 490.572,208.607C492.812,208.607 494.492,207.817 495.612,206.237C496.732,204.657 497.292,202.047 497.292,198.407C497.292,195.767 496.852,193.727 495.972,192.287C495.092,190.847 493.672,190.127 491.712,190.127Z" style="fill-rule:nonzero;"/>
        <path d="M299.579,184.367L305.279,184.367L306.179,187.967L306.419,187.967C307.459,186.447 308.689,185.327 310.109,184.607C311.529,183.887 313.259,183.527 315.299,183.527C319.059,183.527 321.879,184.717 323.759,187.097C325.639,189.477 326.579,193.307 326.579,198.587C326.579,201.147 326.279,203.457 325.679,205.517C325.079,207.577 324.189,209.327 323.009,210.767C321.829,212.207 320.389,213.307 318.689,214.067C316.989,214.827 315.039,215.207 312.839,215.207C311.599,215.207 310.579,215.117 309.779,214.937C308.979,214.757 308.179,214.467 307.379,214.067L307.379,226.367L299.579,226.367L299.579,184.367ZM312.959,190.127C311.439,190.127 310.249,190.507 309.389,191.267C308.529,192.027 307.859,193.167 307.379,194.687L307.379,207.167C307.939,207.607 308.549,207.957 309.209,208.217C309.869,208.477 310.739,208.607 311.819,208.607C314.059,208.607 315.739,207.817 316.859,206.237C317.979,204.657 318.539,202.047 318.539,198.407C318.539,195.767 318.099,193.727 317.219,192.287C316.339,190.847 314.919,190.127 312.959,190.127Z" style="fill-rule:nonzero;"/>
        <path d="M211.743,54.207C211.743,46.847 213.003,41.377 215.523,37.797C218.043,34.217 221.663,32.427 226.383,32.427C231.423,32.427 235.123,34.197 237.483,37.737C239.843,41.277 241.023,46.767 241.023,54.207C241.023,61.607 239.753,67.107 237.213,70.707C234.673,74.307 231.043,76.107 226.323,76.107C221.323,76.107 217.643,74.217 215.283,70.437C212.923,66.657 211.743,61.247 211.743,54.207ZM219.543,54.207C219.543,59.087 220.073,62.857 221.133,65.517C222.193,68.177 223.943,69.507 226.383,69.507C228.743,69.507 230.473,68.287 231.573,65.847C232.673,63.407 233.223,59.527 233.223,54.207C233.223,49.367 232.703,45.627 231.663,42.987C230.623,40.347 228.843,39.027 226.323,39.027C223.923,39.027 222.193,40.267 221.133,42.747C220.073,45.227 219.543,49.047 219.543,54.207Z" style="fill:rgb(21,183,183);fill-rule:nonzero;"/>
        <path d="M591.558,68.667L599.898,68.667L599.898,44.967L600.798,40.887L597.918,44.427L592.578,48.087L589.278,43.587L602.958,32.547L607.338,32.547L607.338,68.667L615.498,68.667L615.498,75.267L591.558,75.267L591.558,68.667Z" style="fill:rgb(247,0,255);fill-rule:nonzero;"/>
        <path d="M956.681,43.527C956.681,45.567 956.311,47.627 955.571,49.707C954.831,51.787 953.891,53.827 952.751,55.827C951.611,57.827 950.351,59.757 948.971,61.617C947.591,63.477 946.241,65.187 944.921,66.747L941.741,69.207L941.741,69.507L946.061,68.667L957.581,68.667L957.581,75.267L932.321,75.267L932.321,71.247C933.281,70.247 934.361,69.077 935.561,67.737C936.761,66.397 937.971,64.977 939.191,63.477C940.411,61.977 941.601,60.427 942.761,58.827C943.921,57.227 944.961,55.617 945.881,53.997C946.801,52.377 947.531,50.807 948.071,49.287C948.611,47.767 948.881,46.327 948.881,44.967C948.881,43.327 948.411,41.977 947.471,40.917C946.531,39.857 945.041,39.327 943.001,39.327C941.721,39.327 940.411,39.597 939.071,40.137C937.731,40.677 936.601,41.367 935.681,42.207L932.561,36.687C934.121,35.407 935.891,34.377 937.871,33.597C939.851,32.817 942.181,32.427 944.861,32.427C946.581,32.427 948.161,32.667 949.601,33.147C951.041,33.627 952.281,34.327 953.321,35.247C954.361,36.167 955.181,37.317 955.781,38.697C956.381,40.077 956.681,41.687 956.681,43.527Z" style="fill:rgb(255,0,0);fill-rule:nonzero;"/>
        <path d="M810.283,184.367L815.983,184.367L816.883,187.967L817.123,187.967C818.163,186.447 819.393,185.327 820.813,184.607C822.233,183.887 823.963,183.527 826.003,183.527C829.763,183.527 832.583,184.717 834.463,187.097C836.343,189.477 837.283,193.307 837.283,198.587C837.283,201.147 836.983,203.457 836.383,205.517C835.783,207.577 834.893,209.327 833.713,210.767C832.533,212.207 831.093,213.307 829.393,214.067C827.693,214.827 825.743,215.207 823.543,215.207C822.303,215.207 821.283,215.117 820.483,214.937C819.683,214.757 818.883,214.467 818.083,214.067L818.083,226.367L810.283,226.367L810.283,184.367ZM823.663,190.127C822.143,190.127 820.953,190.507 820.093,191.267C819.233,192.027 818.563,193.167 818.083,194.687L818.083,207.167C818.643,207.607 819.253,207.957 819.913,208.217C820.573,208.477 821.443,208.607 822.523,208.607C824.763,208.607 826.443,207.817 827.563,206.237C828.683,204.657 829.243,202.047 829.243,198.407C829.243,195.767 828.803,193.727 827.923,192.287C827.043,190.847 825.623,190.127 823.663,190.127Z" style="fill-rule:nonzero;"/>
        <circle cx="457.011" cy="155.833" r="16.72"/>
        <circle cx="278.258" cy="155.833" r="16.72"/>
        <circle cx="788.962" cy="155.833" r="16.72"/>
        <path d="M155.426,65.158L127.295,76.107L152.933,92.043L155.426,65.158Z" style="fill:rgb(21,183,183);"/>
        <path d="M148.803,78.102C202.534,88.198 243.241,135.409 243.241,192.054C243.241,256.046 191.287,308 127.295,308C63.302,308 11.349,256.046 11.349,192.054C11.349,128.061 63.302,76.107 127.295,76.107" style="fill:none;stroke:rgb(21,183,183);stroke-width:3px;"/>
        <path d="M533.464,65.158L505.332,76.107L530.97,92.043L533.464,65.158Z" style="fill:rgb(247,0,255);"/>
        <path d="M526.84,78.102C580.571,88.198 621.279,135.409 621.279,192.054C621.279,256.046 569.325,308 505.332,308C441.34,308 389.386,256.046 389.386,192.054C389.386,128.061 441.34,76.107 505.332,76.107" style="fill:none;stroke:rgb(247,0,255);stroke-width:3px;"/>
        <path d="M772.647,79.311L759.224,106.349L788.908,100.865L772.647,79.311Z" style="fill:rgb(255,0,0);"/>
        <path d="M776.467,93.34C794.152,82.414 814.987,76.107 837.283,76.107C901.276,76.107 953.229,128.061 953.229,192.054C953.229,256.046 901.276,308 837.283,308" style="fill:none;stroke:rgb(255,0,0);stroke-width:3px;"/>
        <path d="M895.911,189.487L886.413,160.833L869.189,185.624L895.911,189.487Z" style="fill:rgb(255,0,0);"/>
        <path d="M883.323,182.211C874.105,213.276 845.323,235.963 811.283,235.963C769.818,235.963 736.153,202.299 736.153,160.833C736.153,139.57 745.006,120.357 759.224,106.684" style="fill:none;stroke:rgb(255,0,0);stroke-width:3px;"/>
        <path d="M835.511,42.292C838.438,44.904 841.263,47.628 843.98,50.457C870.254,77.809 886.413,114.949 886.413,155.833C886.413,158.124 886.362,160.403 886.262,162.669" style="fill:none;stroke:rgb(255,0,0);stroke-width:3px;"/>
        <path d="M738.022,23.204L725.777,50.796L755.198,44.037L738.022,23.204Z" style="fill:rgb(255,0,0);"/>
        <path d="M742.444,37.056C754.795,29.383 769.365,24.95 784.962,24.95C804.089,24.95 821.671,31.159 835.511,42.292" style="fill:none;stroke:rgb(255,0,0);stroke-width:3px;"/>
        <path d="M807.63,319.571L835.511,308L809.526,292.638L807.63,319.571Z" style="fill:rgb(255,0,0);"/>
        <path d="M813.964,306.483C740.17,296.005 683.344,232.503 683.344,155.833C683.344,114.949 699.503,77.809 725.777,50.457" style="fill:none;stroke:rgb(255,0,0);stroke-width:3px;"/>
    </g>
</svg>
