<?xml version="1.0" encoding="UTF-8" standalone="no"?>
<!DOCTYPE svg PUBLIC "-//W3C//DTD SVG 1.1//EN" "http://www.w3.org/Graphics/SVG/1.1/DTD/svg11.dtd">
<svg width="100%" height="100%" viewBox="0 0 416 286" version="1.1" xmlns="http://www.w3.org/2000/svg" xmlns:xlink="http://www.w3.org/1999/xlink" xml:space="preserve" xmlns:serif="http://www.serif.com/" style="fill-rule:evenodd;clip-rule:evenodd;stroke-linecap:square;stroke-miterlimit:10;">
    <g transform="matrix(1,0,0,1,-478,-1774)">
        <rect id="Artboard4" x="0" y="1152" width="1416" height="1244" style="fill:none;"/>
        <g id="Artboard41" serif:id="Artboard4">
            <g transform="matrix(1,0,0,0.809138,9,340.519)">
                <path d="M594,1886C663.073,1848.03 652.242,1795.61 708,1823.31C763.758,1851.01 821.727,1847.78 825,1876C828.273,1904.22 817.898,1938 768,1932C718.102,1926 691.515,1920.82 708,1953C724.485,1985.18 735.07,2000.76 773,2015C810.93,2029.24 843.711,2031.4 827,2052C810.289,2072.6 730.506,2094.89 708,2075C685.494,2055.11 678.211,2002.35 659,1982C639.789,1961.65 604.718,1975.22 610,2015C615.282,2054.78 592.432,2085.63 579,2074C565.568,2062.37 531.928,2054.39 545,2025C558.072,1995.61 575.464,1993.43 560,1963C544.536,1932.57 504.714,1873.44 514,1855.38C523.286,1837.31 545.147,1811.42 566,1826.81C586.853,1842.21 573.263,1897.4 594,1886Z" style="fill:rgb(208,249,201);stroke:rgb(73,231,45);stroke-width:4.4px;"/>
            </g>
            <g transform="matrix(1,0,0,1,9,0)">
                <circle cx="499" cy="1917.65" r="7.35"/>
            </g>
            <g transform="matrix(1,0,0,1,35.6612,49.687)">
                <circle cx="499" cy="1917.65" r="7.35"/>
            </g>
            <g transform="matrix(1,0,0,1,60.9533,127.292)">
                <circle cx="499" cy="1917.65" r="7.35"/>
            </g>
            <g transform="matrix(1,0,0,1,129.649,127.13)">
                <circle cx="499" cy="1917.65" r="7.35"/>
            </g>
            <g transform="matrix(1,0,0,1,150.054,47.7056)">
                <circle cx="499" cy="1917.65" r="7.35"/>
            </g>
            <g transform="matrix(1,0,0,1,-5.06384,77.3706)">
                <circle cx="499" cy="1917.65" r="7.35"/>
            </g>
            <g transform="matrix(1,0,0,1,115.641,-98.929)">
                <circle cx="499" cy="1917.65" r="7.35"/>
            </g>
            <g transform="matrix(1,0,0,1,36.0846,-115.075)">
                <circle cx="499" cy="1917.65" r="7.35"/>
            </g>
            <g transform="matrix(1,0,0,1,256.169,-134.13)">
                <circle cx="499" cy="1917.65" r="7.35"/>
            </g>
            <g transform="matrix(1,0,0,1,379.861,-86.6991)">
                <circle cx="499" cy="1917.65" r="7.35"/>
            </g>
            <g transform="matrix(1,0,0,1,361.628,-3.01908)">
                <circle cx="499" cy="1917.65" r="7.35"/>
            </g>
            <g transform="matrix(1,0,0,1,272.568,22.6329)">
                <circle cx="499" cy="1917.65" r="7.35"/>
            </g>
            <g transform="matrix(1,0,0,1,344.914,40.3977)">
                <circle cx="499" cy="1917.65" r="7.35"/>
            </g>
            <g transform="matrix(1,0,0,1,369.321,93.6622)">
                <circle cx="499" cy="1917.65" r="7.35"/>
            </g>
            <g transform="matrix(1,0,0,1,255.957,129.96)">
                <circle cx="499" cy="1917.65" r="7.35"/>
            </g>
            <g transform="matrix(1,0,0,1,241.622,74.2149)">
                <circle cx="499" cy="1917.65" r="7.35" style="fill:rgb(221,0,229);"/>
            </g>
            <g transform="matrix(1,0,0,1,162.941,-21.395)">
                <circle cx="499" cy="1917.65" r="7.35" style="fill:rgb(221,0,229);"/>
            </g>
            <g transform="matrix(1,0,0,1,249.403,-55.6782)">
                <circle cx="499" cy="1917.65" r="7.35" style="fill:rgb(221,0,229);"/>
            </g>
            <g transform="matrix(1,0,0,1,294.987,-45.0897)">
                <circle cx="499" cy="1917.65" r="7.35" style="fill:rgb(221,0,229);"/>
            </g>
            <g transform="matrix(1,0,0,1,197.834,-74.7444)">
                <circle cx="499" cy="1917.65" r="7.35" style="fill:rgb(221,0,229);"/>
            </g>
            <g transform="matrix(1,0,0,1,109.889,-27.0798)">
                <circle cx="499" cy="1917.65" r="7.35" style="fill:rgb(221,0,229);"/>
            </g>
            <g transform="matrix(1,0,0,1,134.722,5.10775)">
                <circle cx="499" cy="1917.65" r="7.35" style="fill:rgb(221,0,229);"/>
            </g>
            <g transform="matrix(1,0,0,1,80.2334,53.2193)">
                <circle cx="499" cy="1917.65" r="7.35" style="fill:rgb(221,0,229);"/>
            </g>
            <g transform="matrix(1,0,0,1,180.836,10.6399)">
                <circle cx="499" cy="1917.65" r="7.35" style="fill:rgb(221,0,229);"/>
            </g>
            <g transform="matrix(1,0,0,1,53.603,-65.4353)">
                <circle cx="499" cy="1917.65" r="7.35" style="fill:rgb(221,0,229);"/>
            </g>
            <g transform="matrix(1,0,0,1,74.1571,-34.9436)">
                <circle cx="499" cy="1917.65" r="7.35" style="fill:rgb(221,0,229);"/>
            </g>
            <g transform="matrix(1,0,0,1,152.658,-49.5529)">
                <circle cx="499" cy="1917.65" r="7.35" style="fill:rgb(221,0,229);"/>
            </g>
            <g transform="matrix(1,0,0,1,222.018,-34.9436)">
                <circle cx="499" cy="1917.65" r="7.35" style="fill:rgb(221,0,229);"/>
            </g>
        </g>
    </g>
</svg>
