<?xml version="1.0" encoding="UTF-8" standalone="no"?>
<!DOCTYPE svg PUBLIC "-//W3C//DTD SVG 1.1//EN" "http://www.w3.org/Graphics/SVG/1.1/DTD/svg11.dtd">
<svg width="100%" height="100%" viewBox="0 0 577 589" version="1.1" xmlns="http://www.w3.org/2000/svg" xmlns:xlink="http://www.w3.org/1999/xlink" xml:space="preserve" xmlns:serif="http://www.serif.com/" style="fill-rule:evenodd;clip-rule:evenodd;stroke-linejoin:round;stroke-miterlimit:10;">
    <rect id="polygon_triangulation" x="-3127" y="-2142" width="8206" height="4260" style="fill:none;"/>
    <g id="polygon_triangulation1" serif:id="polygon_triangulation">
        <g id="TIN-vertices" serif:id="TIN vertices">
        </g>
        <g id="TIN-edges" serif:id="TIN edges">
        </g>
        <rect x="83.226" y="75.754" width="98.3" height="98.3" style="fill:white;stroke:black;stroke-width:2px;"/>
        <rect x="83.226" y="272.7" width="98.3" height="98.3" style="fill:white;stroke:black;stroke-width:2px;"/>
        <rect x="279.826" y="75.754" width="98.3" height="98.3" style="fill:white;stroke:black;stroke-width:2px;"/>
        <rect x="279.826" y="272.7" width="98.3" height="98.3" style="fill:white;stroke:black;stroke-width:2px;"/>
        <rect x="83.226" y="174.054" width="98.3" height="98.3" style="fill:white;stroke:black;stroke-width:2px;"/>
        <rect x="83.226" y="371" width="98.3" height="98.3" style="fill:white;stroke:black;stroke-width:2px;"/>
        <rect x="279.826" y="174.054" width="98.3" height="98.3" style="fill:rgb(249,85,185);fill-opacity:0.5;stroke:black;stroke-width:2px;"/>
        <rect x="279.826" y="371" width="98.3" height="98.3" style="fill:white;stroke:black;stroke-width:2px;"/>
        <rect x="181.526" y="75.754" width="98.3" height="98.3" style="fill:white;stroke:black;stroke-width:2px;"/>
        <rect x="181.526" y="272.7" width="98.3" height="98.3" style="fill:white;stroke:black;stroke-width:2px;"/>
        <rect x="378.126" y="75.754" width="98.3" height="98.3" style="fill:white;stroke:black;stroke-width:2px;"/>
        <rect x="378.126" y="272.7" width="98.3" height="98.3" style="fill:white;stroke:black;stroke-width:2px;"/>
        <rect x="181.526" y="174.054" width="98.3" height="98.3" style="fill:white;stroke:black;stroke-width:2px;"/>
        <rect x="181.526" y="371" width="98.3" height="98.3" style="fill:white;stroke:black;stroke-width:2px;"/>
        <rect x="378.126" y="174.054" width="98.3" height="98.3" style="fill:white;stroke:black;stroke-width:2px;"/>
        <rect x="378.126" y="371" width="98.3" height="98.3" style="fill:white;stroke:black;stroke-width:2px;"/>
        <path d="M506.973,420.15C506.973,412.95 508.143,407.53 510.483,403.89C512.823,400.25 516.233,398.43 520.713,398.43C525.553,398.43 529.063,400.22 531.243,403.8C533.423,407.38 534.513,412.83 534.513,420.15C534.513,427.35 533.343,432.77 531.003,436.41C528.663,440.05 525.233,441.87 520.713,441.87C515.953,441.87 512.473,439.97 510.273,436.17C508.073,432.37 506.973,427.03 506.973,420.15ZM511.953,420.15C511.953,422.75 512.123,425.12 512.463,427.26C512.803,429.4 513.333,431.24 514.053,432.78C514.773,434.32 515.683,435.52 516.783,436.38C517.883,437.24 519.193,437.67 520.713,437.67C523.753,437.67 525.983,436.26 527.403,433.44C528.823,430.62 529.533,426.19 529.533,420.15C529.533,417.59 529.383,415.23 529.083,413.07C528.783,410.91 528.283,409.05 527.583,407.49C526.883,405.93 525.973,404.73 524.853,403.89C523.733,403.05 522.353,402.63 520.713,402.63C517.713,402.63 515.503,404.05 514.083,406.89C512.663,409.73 511.953,414.15 511.953,420.15Z" style="fill-rule:nonzero;"/>
        <path d="M539.673,420.15C539.673,412.95 540.843,407.53 543.183,403.89C545.523,400.25 548.933,398.43 553.413,398.43C558.253,398.43 561.763,400.22 563.943,403.8C566.123,407.38 567.213,412.83 567.213,420.15C567.213,427.35 566.043,432.77 563.703,436.41C561.363,440.05 557.933,441.87 553.413,441.87C548.653,441.87 545.173,439.97 542.973,436.17C540.773,432.37 539.673,427.03 539.673,420.15ZM544.653,420.15C544.653,422.75 544.823,425.12 545.163,427.26C545.503,429.4 546.033,431.24 546.753,432.78C547.473,434.32 548.383,435.52 549.483,436.38C550.583,437.24 551.893,437.67 553.413,437.67C556.453,437.67 558.683,436.26 560.103,433.44C561.523,430.62 562.233,426.19 562.233,420.15C562.233,417.59 562.083,415.23 561.783,413.07C561.483,410.91 560.983,409.05 560.283,407.49C559.583,405.93 558.673,404.73 557.553,403.89C556.433,403.05 555.053,402.63 553.413,402.63C550.413,402.63 548.203,404.05 546.783,406.89C545.363,409.73 544.653,414.15 544.653,420.15Z" style="fill-rule:nonzero;"/>
        <path d="M15.087,281.005L15.627,286.705L15.747,286.705L18.327,280.885L28.467,263.425L33.627,263.425L14.907,294.085L12.987,294.085L7.167,263.425L11.967,263.425L15.087,281.005Z" style="fill-rule:nonzero;"/>
        <path d="M287.296,538.48L283.096,558.46C282.856,559.54 282.736,560.54 282.736,561.46C282.736,562.58 282.956,563.51 283.396,564.25C283.836,564.99 284.636,565.36 285.796,565.36C286.756,565.36 287.726,565.12 288.706,564.64C289.686,564.16 290.626,563.54 291.526,562.78C292.426,562.02 293.246,561.18 293.986,560.26C294.726,559.34 295.336,558.44 295.816,557.56L299.836,538.48L304.336,538.48L300.556,556.3C300.396,556.98 300.236,557.81 300.076,558.79C299.916,559.77 299.766,560.8 299.626,561.88C299.486,562.96 299.376,564.01 299.296,565.03C299.216,566.05 299.176,566.94 299.176,567.7L299.176,568.48L295.636,568.48L295.636,562.78L295.396,562.78C294.796,563.58 294.106,564.36 293.326,565.12C292.546,565.88 291.686,566.56 290.746,567.16C289.806,567.76 288.796,568.25 287.716,568.63C286.636,569.01 285.496,569.2 284.296,569.2C283.416,569.2 282.606,569.1 281.866,568.9C281.126,568.7 280.476,568.35 279.916,567.85C279.356,567.35 278.916,566.69 278.596,565.87C278.276,565.05 278.116,564 278.116,562.72C278.116,561.32 278.316,559.74 278.716,557.98L282.796,538.48L287.296,538.48Z" style="fill-rule:nonzero;"/>
        <path d="M102.256,27.446C102.256,20.246 103.426,14.826 105.766,11.186C108.106,7.546 111.516,5.726 115.996,5.726C120.836,5.726 124.346,7.516 126.526,11.096C128.706,14.676 129.796,20.126 129.796,27.446C129.796,34.646 128.626,40.066 126.286,43.706C123.946,47.346 120.516,49.166 115.996,49.166C111.236,49.166 107.756,47.266 105.556,43.466C103.356,39.666 102.256,34.326 102.256,27.446ZM107.236,27.446C107.236,30.046 107.406,32.416 107.746,34.556C108.086,36.696 108.616,38.536 109.336,40.076C110.056,41.616 110.966,42.816 112.066,43.676C113.166,44.536 114.476,44.966 115.996,44.966C119.036,44.966 121.266,43.556 122.686,40.736C124.106,37.916 124.816,33.486 124.816,27.446C124.816,24.886 124.666,22.526 124.366,20.366C124.066,18.206 123.566,16.346 122.866,14.786C122.166,13.226 121.256,12.026 120.136,11.186C119.016,10.346 117.636,9.926 115.996,9.926C112.996,9.926 110.786,11.346 109.366,14.186C107.946,17.026 107.236,21.446 107.236,27.446Z" style="fill-rule:nonzero;"/>
        <path d="M134.956,27.446C134.956,20.246 136.126,14.826 138.466,11.186C140.806,7.546 144.216,5.726 148.696,5.726C153.536,5.726 157.046,7.516 159.226,11.096C161.406,14.676 162.496,20.126 162.496,27.446C162.496,34.646 161.326,40.066 158.986,43.706C156.646,47.346 153.216,49.166 148.696,49.166C143.936,49.166 140.456,47.266 138.256,43.466C136.056,39.666 134.956,34.326 134.956,27.446ZM139.936,27.446C139.936,30.046 140.106,32.416 140.446,34.556C140.786,36.696 141.316,38.536 142.036,40.076C142.756,41.616 143.666,42.816 144.766,43.676C145.866,44.536 147.176,44.966 148.696,44.966C151.736,44.966 153.966,43.556 155.386,40.736C156.806,37.916 157.516,33.486 157.516,27.446C157.516,24.886 157.366,22.526 157.066,20.366C156.766,18.206 156.266,16.346 155.566,14.786C154.866,13.226 153.956,12.026 152.836,11.186C151.716,10.346 150.336,9.926 148.696,9.926C145.696,9.926 143.486,11.346 142.066,14.186C140.646,17.026 139.936,21.446 139.936,27.446Z" style="fill-rule:nonzero;"/>
        <path d="M303.696,41.846L312.036,41.846L312.036,18.146L312.936,14.066L310.056,17.606L304.716,21.266L301.416,16.766L315.096,5.726L319.476,5.726L319.476,41.846L327.636,41.846L327.636,48.446L303.696,48.446L303.696,41.846Z" style="fill:rgb(0,140,255);fill-rule:nonzero;"/>
        <path d="M334.056,27.386C334.056,20.026 335.316,14.556 337.836,10.976C340.356,7.396 343.976,5.606 348.696,5.606C353.736,5.606 357.436,7.376 359.796,10.916C362.156,14.456 363.336,19.946 363.336,27.386C363.336,34.786 362.066,40.286 359.526,43.886C356.986,47.486 353.356,49.286 348.636,49.286C343.636,49.286 339.956,47.396 337.596,43.616C335.236,39.836 334.056,34.426 334.056,27.386ZM341.856,27.386C341.856,32.266 342.386,36.036 343.446,38.696C344.506,41.356 346.256,42.686 348.696,42.686C351.056,42.686 352.786,41.466 353.886,39.026C354.986,36.586 355.536,32.706 355.536,27.386C355.536,22.546 355.016,18.806 353.976,16.166C352.936,13.526 351.156,12.206 348.636,12.206C346.236,12.206 344.506,13.446 343.446,15.926C342.386,18.406 341.856,22.226 341.856,27.386Z" style="fill:rgb(0,140,255);fill-rule:nonzero;"/>
        <path d="M200.161,27.446C200.161,20.246 201.331,14.826 203.671,11.186C206.011,7.546 209.421,5.726 213.901,5.726C218.741,5.726 222.251,7.516 224.431,11.096C226.611,14.676 227.701,20.126 227.701,27.446C227.701,34.646 226.531,40.066 224.191,43.706C221.851,47.346 218.421,49.166 213.901,49.166C209.141,49.166 205.661,47.266 203.461,43.466C201.261,39.666 200.161,34.326 200.161,27.446ZM205.141,27.446C205.141,30.046 205.311,32.416 205.651,34.556C205.991,36.696 206.521,38.536 207.241,40.076C207.961,41.616 208.871,42.816 209.971,43.676C211.071,44.536 212.381,44.966 213.901,44.966C216.941,44.966 219.171,43.556 220.591,40.736C222.011,37.916 222.721,33.486 222.721,27.446C222.721,24.886 222.571,22.526 222.271,20.366C221.971,18.206 221.471,16.346 220.771,14.786C220.071,13.226 219.161,12.026 218.041,11.186C216.921,10.346 215.541,9.926 213.901,9.926C210.901,9.926 208.691,11.346 207.271,14.186C205.851,17.026 205.141,21.446 205.141,27.446Z" style="fill-rule:nonzero;"/>
        <path d="M236.761,44.006L245.161,44.006L245.161,14.966L245.761,11.426L243.361,14.246L236.761,18.986L234.481,15.926L247.681,5.726L249.841,5.726L249.841,44.006L258.061,44.006L258.061,48.446L236.761,48.446L236.761,44.006Z" style="fill-rule:nonzero;"/>
        <path d="M402.021,44.006L410.421,44.006L410.421,14.966L411.021,11.426L408.621,14.246L402.021,18.986L399.741,15.926L412.941,5.726L415.101,5.726L415.101,44.006L423.321,44.006L423.321,48.446L402.021,48.446L402.021,44.006Z" style="fill-rule:nonzero;"/>
        <path d="M434.721,44.006L443.121,44.006L443.121,14.966L443.721,11.426L441.321,14.246L434.721,18.986L432.441,15.926L445.641,5.726L447.801,5.726L447.801,44.006L456.021,44.006L456.021,48.446L434.721,48.446L434.721,44.006Z" style="fill-rule:nonzero;"/>
        <path d="M510.453,239.205L518.793,239.205L518.793,215.505L519.693,211.425L516.813,214.965L511.473,218.625L508.173,214.125L521.853,203.085L526.233,203.085L526.233,239.205L534.393,239.205L534.393,245.805L510.453,245.805L510.453,239.205Z" style="fill:rgb(253,0,0);fill-rule:nonzero;"/>
        <path d="M540.813,224.745C540.813,217.385 542.073,211.915 544.593,208.335C547.113,204.755 550.733,202.965 555.453,202.965C560.493,202.965 564.193,204.735 566.553,208.275C568.913,211.815 570.093,217.305 570.093,224.745C570.093,232.145 568.823,237.645 566.283,241.245C563.743,244.845 560.113,246.645 555.393,246.645C550.393,246.645 546.713,244.755 544.353,240.975C541.993,237.195 540.813,231.785 540.813,224.745ZM548.613,224.745C548.613,229.625 549.143,233.395 550.203,236.055C551.263,238.715 553.013,240.045 555.453,240.045C557.813,240.045 559.543,238.825 560.643,236.385C561.743,233.945 562.293,230.065 562.293,224.745C562.293,219.905 561.773,216.165 560.733,213.525C559.693,210.885 557.913,209.565 555.393,209.565C552.993,209.565 551.263,210.805 550.203,213.285C549.143,215.765 548.613,219.585 548.613,224.745Z" style="fill:rgb(253,0,0);fill-rule:nonzero;"/>
        <path d="M506.973,320.44C506.973,313.24 508.143,307.82 510.483,304.18C512.823,300.54 516.233,298.72 520.713,298.72C525.553,298.72 529.063,300.51 531.243,304.09C533.423,307.67 534.513,313.12 534.513,320.44C534.513,327.64 533.343,333.06 531.003,336.7C528.663,340.34 525.233,342.16 520.713,342.16C515.953,342.16 512.473,340.26 510.273,336.46C508.073,332.66 506.973,327.32 506.973,320.44ZM511.953,320.44C511.953,323.04 512.123,325.41 512.463,327.55C512.803,329.69 513.333,331.53 514.053,333.07C514.773,334.61 515.683,335.81 516.783,336.67C517.883,337.53 519.193,337.96 520.713,337.96C523.753,337.96 525.983,336.55 527.403,333.73C528.823,330.91 529.533,326.48 529.533,320.44C529.533,317.88 529.383,315.52 529.083,313.36C528.783,311.2 528.283,309.34 527.583,307.78C526.883,306.22 525.973,305.02 524.853,304.18C523.733,303.34 522.353,302.92 520.713,302.92C517.713,302.92 515.503,304.34 514.083,307.18C512.663,310.02 511.953,314.44 511.953,320.44Z" style="fill-rule:nonzero;"/>
        <path d="M543.573,337L551.973,337L551.973,307.96L552.573,304.42L550.173,307.24L543.573,311.98L541.293,308.92L554.493,298.72L556.653,298.72L556.653,337L564.873,337L564.873,341.44L543.573,341.44L543.573,337Z" style="fill-rule:nonzero;"/>
        <path d="M510.873,141.655L519.273,141.655L519.273,112.615L519.873,109.075L517.473,111.895L510.873,116.635L508.593,113.575L521.793,103.375L523.953,103.375L523.953,141.655L532.173,141.655L532.173,146.095L510.873,146.095L510.873,141.655Z" style="fill-rule:nonzero;"/>
        <path d="M543.573,141.655L551.973,141.655L551.973,112.615L552.573,109.075L550.173,111.895L543.573,116.635L541.293,113.575L554.493,103.375L556.653,103.375L556.653,141.655L564.873,141.655L564.873,146.095L543.573,146.095L543.573,141.655Z" style="fill-rule:nonzero;"/>
        <path d="M132.376,420.15L132.376,321.85L230.676,420.15L230.676,321.85L132.376,223.204L132.376,124.904L230.676,223.204L230.676,124.904L328.976,420.15L328.976,321.85L427.276,420.15L427.276,321.85L328.976,223.204L328.976,124.904L427.276,223.204L427.276,124.904" style="fill:none;stroke:rgb(76,153,4);stroke-width:6px;"/>
        <path d="M412.276,494.98L427.276,502.48L412.276,509.98L412.276,494.98Z"/>
        <path d="M132.376,502.48L415.276,502.48" style="fill:none;stroke:black;stroke-width:1px;"/>
        <path d="M44.326,139.735L51.826,124.735L59.326,139.735L44.326,139.735Z"/>
        <path d="M51.826,419.635C51.826,419.635 51.826,192.036 51.826,136.735" style="fill:none;stroke:black;stroke-width:1px;"/>
        <g id="halos">
        </g>
        <g id="halos1" serif:id="halos">
            <path d="M445.852,125.485C445.852,114.446 436.891,105.485 425.852,105.485C414.814,105.485 405.852,114.446 405.852,125.485C405.852,136.523 414.814,145.485 425.852,145.485C436.891,145.485 445.852,136.523 445.852,125.485Z" style="fill:white;"/>
            <path d="M445.852,322.16C445.852,311.122 436.891,302.16 425.852,302.16C414.814,302.16 405.852,311.122 405.852,322.16C405.852,333.198 414.814,342.16 425.852,342.16C436.891,342.16 445.852,333.198 445.852,322.16Z" style="fill:white;"/>
            <path d="M445.852,222.894C445.852,211.856 436.891,202.894 425.852,202.894C414.814,202.894 405.852,211.856 405.852,222.894C405.852,233.932 414.814,242.894 425.852,242.894C436.891,242.894 445.852,233.932 445.852,222.894Z" style="fill:white;"/>
            <path d="M445.852,419.569C445.852,408.531 436.891,399.569 425.852,399.569C414.814,399.569 405.852,408.531 405.852,419.569C405.852,430.607 414.814,439.569 425.852,439.569C436.891,439.569 445.852,430.607 445.852,419.569Z" style="fill:white;"/>
            <path d="M348.515,125.485C348.515,114.446 339.553,105.485 328.515,105.485C317.477,105.485 308.515,114.446 308.515,125.485C308.515,136.523 317.477,145.485 328.515,145.485C339.553,145.485 348.515,136.523 348.515,125.485Z" style="fill:white;"/>
            <path d="M348.515,322.16C348.515,311.122 339.553,302.16 328.515,302.16C317.477,302.16 308.515,311.122 308.515,322.16C308.515,333.198 317.477,342.16 328.515,342.16C339.553,342.16 348.515,333.198 348.515,322.16Z" style="fill:white;"/>
            <path d="M348.515,222.894C348.515,211.856 339.553,202.894 328.515,202.894C317.477,202.894 308.515,211.856 308.515,222.894C308.515,233.932 317.477,242.894 328.515,242.894C339.553,242.894 348.515,233.932 348.515,222.894Z" style="fill:rgb(249,85,185);"/>
            <path d="M348.515,419.569C348.515,408.531 339.553,399.569 328.515,399.569C317.477,399.569 308.515,408.531 308.515,419.569C308.515,430.607 317.477,439.569 328.515,439.569C339.553,439.569 348.515,430.607 348.515,419.569Z" style="fill:white;"/>
            <path d="M250.563,125.485C250.563,114.446 241.601,105.485 230.563,105.485C219.524,105.485 210.563,114.446 210.563,125.485C210.563,136.523 219.524,145.485 230.563,145.485C241.601,145.485 250.563,136.523 250.563,125.485Z" style="fill:white;"/>
            <path d="M250.563,322.16C250.563,311.122 241.601,302.16 230.563,302.16C219.524,302.16 210.563,311.122 210.563,322.16C210.563,333.198 219.524,342.16 230.563,342.16C241.601,342.16 250.563,333.198 250.563,322.16Z" style="fill:white;"/>
            <path d="M250.563,222.894C250.563,211.856 241.601,202.894 230.563,202.894C219.524,202.894 210.563,211.856 210.563,222.894C210.563,233.932 219.524,242.894 230.563,242.894C241.601,242.894 250.563,233.932 250.563,222.894Z" style="fill:white;"/>
            <path d="M250.563,419.569C250.563,408.531 241.601,399.569 230.563,399.569C219.524,399.569 210.563,408.531 210.563,419.569C210.563,430.607 219.524,439.569 230.563,439.569C241.601,439.569 250.563,430.607 250.563,419.569Z" style="fill:white;"/>
            <path d="M151.799,125.485C151.799,114.446 142.837,105.485 131.799,105.485C120.761,105.485 111.799,114.446 111.799,125.485C111.799,136.523 120.761,145.485 131.799,145.485C142.837,145.485 151.799,136.523 151.799,125.485Z" style="fill:white;"/>
            <path d="M151.799,322.16C151.799,311.122 142.837,302.16 131.799,302.16C120.761,302.16 111.799,311.122 111.799,322.16C111.799,333.198 120.761,342.16 131.799,342.16C142.837,342.16 151.799,333.198 151.799,322.16Z" style="fill:white;"/>
            <path d="M151.799,222.894C151.799,211.856 142.837,202.894 131.799,202.894C120.761,202.894 111.799,211.856 111.799,222.894C111.799,233.932 120.761,242.894 131.799,242.894C142.837,242.894 151.799,233.932 151.799,222.894Z" style="fill:white;"/>
            <path d="M151.799,419.569C151.799,408.531 142.837,399.569 131.799,399.569C120.761,399.569 111.799,408.531 111.799,419.569C111.799,430.607 120.761,439.569 131.799,439.569C142.837,439.569 151.799,430.607 151.799,419.569Z" style="fill:white;"/>
        </g>
        <g id="digits">
        </g>
        <g id="digits1" serif:id="digits">
            <path d="M124.114,419.778C124.114,415.458 124.816,412.206 126.22,410.022C127.624,407.838 129.67,406.746 132.358,406.746C135.262,406.746 137.368,407.82 138.676,409.968C139.984,412.116 140.638,415.386 140.638,419.778C140.638,424.098 139.936,427.35 138.532,429.534C137.128,431.718 135.07,432.81 132.358,432.81C129.502,432.81 127.414,431.67 126.094,429.39C124.774,427.11 124.114,423.906 124.114,419.778ZM127.102,419.778C127.102,421.338 127.204,422.76 127.408,424.044C127.612,425.328 127.93,426.432 128.362,427.356C128.794,428.28 129.34,429 130,429.516C130.66,430.032 131.446,430.29 132.358,430.29C134.182,430.29 135.52,429.444 136.372,427.752C137.224,426.06 137.65,423.402 137.65,419.778C137.65,418.242 137.56,416.826 137.38,415.53C137.2,414.234 136.9,413.118 136.48,412.182C136.06,411.246 135.514,410.526 134.842,410.022C134.17,409.518 133.342,409.266 132.358,409.266C130.558,409.266 129.232,410.118 128.38,411.822C127.528,413.526 127.102,416.178 127.102,419.778Z" style="fill-rule:nonzero;"/>
            <path d="M126.454,330.586L131.494,330.586L131.494,313.162L131.854,311.038L130.414,312.73L126.454,315.574L125.086,313.738L133.006,307.618L134.302,307.618L134.302,330.586L139.234,330.586L139.234,333.25L126.454,333.25L126.454,330.586Z" style="fill-rule:nonzero;"/>
            <path d="M141.43,226.277L137.182,226.277L137.182,234.017L134.374,234.017L134.374,226.277L123.286,226.277L123.286,225.089L135.238,208.421L137.182,208.421L137.182,223.757L141.43,223.757L141.43,226.277ZM134.374,215.909L134.734,212.957L134.626,212.957L133.366,215.405L128.29,222.281L126.562,224.045L129.082,223.757L134.374,223.757L134.374,215.909Z" style="fill-rule:nonzero;"/>
            <path d="M130.234,134.745C131.89,134.745 133.258,134.265 134.338,133.305C135.418,132.345 135.958,130.953 135.958,129.129C135.958,127.377 135.424,126.069 134.356,125.205C133.288,124.341 131.818,123.909 129.946,123.909L126.922,124.089L126.922,111.633L138.154,111.633L138.154,114.297L129.622,114.297L129.622,121.461L131.17,121.389C133.546,121.413 135.418,122.073 136.786,123.369C138.154,124.665 138.838,126.525 138.838,128.949C138.838,130.293 138.61,131.487 138.154,132.531C137.698,133.575 137.08,134.445 136.3,135.141C135.52,135.837 134.602,136.365 133.546,136.725C132.49,137.085 131.362,137.265 130.162,137.265C129.082,137.265 128.17,137.205 127.426,137.085C126.682,136.965 125.986,136.785 125.338,136.545L126.094,134.097C126.646,134.313 127.24,134.475 127.876,134.583C128.512,134.691 129.298,134.745 130.234,134.745Z" style="fill-rule:nonzero;"/>
            <path d="M235.936,412.902C235.936,414.174 235.702,415.476 235.234,416.808C234.766,418.14 234.154,419.478 233.398,420.822C232.642,422.166 231.796,423.48 230.86,424.764C229.924,426.048 228.988,427.266 228.052,428.418L226.288,429.966L226.288,430.11L228.592,429.714L236.44,429.714L236.44,432.378L222.112,432.378L222.112,431.334C222.64,430.782 223.276,430.098 224.02,429.282C224.764,428.466 225.538,427.56 226.342,426.564C227.146,425.568 227.938,424.512 228.718,423.396C229.498,422.28 230.206,421.146 230.842,419.994C231.478,418.842 231.988,417.702 232.372,416.574C232.756,415.446 232.948,414.378 232.948,413.37C232.948,412.194 232.612,411.216 231.94,410.436C231.268,409.656 230.248,409.266 228.88,409.266C227.968,409.266 227.08,409.452 226.216,409.824C225.352,410.196 224.608,410.622 223.984,411.102L222.796,409.05C223.636,408.33 224.632,407.766 225.784,407.358C226.936,406.95 228.172,406.746 229.492,406.746C230.524,406.746 231.436,406.896 232.228,407.196C233.02,407.496 233.692,407.922 234.244,408.474C234.796,409.026 235.216,409.68 235.504,410.436C235.792,411.192 235.936,412.014 235.936,412.902Z" style="fill-rule:nonzero;"/>
            <path d="M228.304,331.162C229.12,331.162 229.876,331.042 230.572,330.802C231.268,330.562 231.868,330.208 232.372,329.74C232.876,329.272 233.272,328.714 233.56,328.066C233.848,327.418 233.992,326.71 233.992,325.942C233.992,324.262 233.494,323.014 232.498,322.198C231.502,321.382 230.128,320.974 228.376,320.974L225.712,320.974L225.712,319.93L230.896,311.938L232.552,310.354L230.212,310.714L223.084,310.714L223.084,308.05L235.936,308.05L235.936,309.094L230.212,317.698L228.952,318.742L228.952,318.814L230.176,318.562C231.136,318.586 232.024,318.76 232.84,319.084C233.656,319.408 234.364,319.876 234.964,320.488C235.564,321.1 236.032,321.832 236.368,322.684C236.704,323.536 236.872,324.502 236.872,325.582C236.872,326.878 236.644,328.03 236.188,329.038C235.732,330.046 235.114,330.892 234.334,331.576C233.554,332.26 232.636,332.782 231.58,333.142C230.524,333.502 229.408,333.682 228.232,333.682C227.152,333.682 226.18,333.598 225.316,333.43C224.452,333.262 223.696,333.046 223.048,332.782L223.804,330.226C224.356,330.49 225.01,330.712 225.766,330.892C226.522,331.072 227.368,331.162 228.304,331.162Z" style="fill-rule:nonzero;"/>
            <path d="M237.592,226.421C237.592,227.525 237.424,228.563 237.088,229.535C236.752,230.507 236.26,231.359 235.612,232.091C234.964,232.823 234.16,233.399 233.2,233.819C232.24,234.239 231.148,234.449 229.924,234.449C228.724,234.449 227.644,234.257 226.684,233.873C225.724,233.489 224.896,232.919 224.2,232.163C223.504,231.407 222.97,230.477 222.598,229.373C222.226,228.269 222.04,226.997 222.04,225.557C222.04,223.181 222.346,220.991 222.958,218.987C223.57,216.983 224.416,215.237 225.496,213.749C226.576,212.261 227.854,211.055 229.33,210.131C230.806,209.207 232.408,208.625 234.136,208.385L234.748,210.689C233.404,210.929 232.18,211.385 231.076,212.057C229.972,212.729 229.006,213.557 228.178,214.541C227.35,215.525 226.672,216.629 226.144,217.853C225.616,219.077 225.256,220.337 225.064,221.633C225.448,220.985 226.096,220.391 227.008,219.851C227.92,219.311 229.036,219.041 230.356,219.041C232.612,219.041 234.382,219.689 235.666,220.985C236.95,222.281 237.592,224.093 237.592,226.421ZM234.604,226.709C234.604,225.005 234.208,223.721 233.416,222.857C232.624,221.993 231.4,221.561 229.744,221.561C228.568,221.561 227.554,221.849 226.702,222.425C225.85,223.001 225.256,223.649 224.92,224.369C224.872,224.705 224.848,224.981 224.848,225.197L224.848,225.917C224.848,226.661 224.95,227.393 225.154,228.113C225.358,228.833 225.676,229.475 226.108,230.039C226.54,230.603 227.074,231.059 227.71,231.407C228.346,231.755 229.096,231.929 229.96,231.929C230.656,231.929 231.286,231.797 231.85,231.533C232.414,231.269 232.9,230.909 233.308,230.453C233.716,229.997 234.034,229.445 234.262,228.797C234.49,228.149 234.604,227.453 234.604,226.709Z" style="fill-rule:nonzero;"/>
            <path d="M223.84,136.833L232.876,115.737L234.46,113.973L232.336,114.297L222.076,114.297L222.076,111.633L237.124,111.633L237.124,112.605L226.756,136.833L223.84,136.833Z" style="fill-rule:nonzero;"/>
            <path d="M320.448,426.366C320.448,424.854 320.844,423.54 321.636,422.424C322.428,421.308 323.664,420.294 325.344,419.382C324.744,419.022 324.186,418.644 323.67,418.248C323.154,417.852 322.698,417.402 322.302,416.898C321.906,416.394 321.594,415.83 321.366,415.206C321.138,414.582 321.024,413.862 321.024,413.046C321.024,412.11 321.186,411.258 321.51,410.49C321.834,409.722 322.302,409.062 322.914,408.51C323.526,407.958 324.258,407.526 325.11,407.214C325.962,406.902 326.928,406.746 328.008,406.746C329.016,406.746 329.928,406.89 330.744,407.178C331.56,407.466 332.25,407.862 332.814,408.366C333.378,408.87 333.816,409.47 334.128,410.166C334.44,410.862 334.596,411.63 334.596,412.47C334.596,413.838 334.284,415.044 333.66,416.088C333.036,417.132 332.004,418.158 330.564,419.166C331.188,419.526 331.782,419.922 332.346,420.354C332.91,420.786 333.402,421.266 333.822,421.794C334.242,422.322 334.572,422.916 334.812,423.576C335.052,424.236 335.172,424.986 335.172,425.826C335.172,426.858 335.004,427.8 334.668,428.652C334.332,429.504 333.84,430.236 333.192,430.848C332.544,431.46 331.752,431.94 330.816,432.288C329.88,432.636 328.812,432.81 327.612,432.81C326.46,432.81 325.44,432.642 324.552,432.306C323.664,431.97 322.914,431.514 322.302,430.938C321.69,430.362 321.228,429.684 320.916,428.904C320.604,428.124 320.448,427.278 320.448,426.366ZM332.364,426.006C332.364,425.286 332.22,424.656 331.932,424.116C331.644,423.576 331.266,423.084 330.798,422.64C330.33,422.196 329.796,421.794 329.196,421.434C328.596,421.074 327.972,420.726 327.324,420.39C325.86,421.206 324.816,422.118 324.192,423.126C323.568,424.134 323.256,425.094 323.256,426.006C323.256,426.582 323.352,427.134 323.544,427.662C323.736,428.19 324.024,428.646 324.408,429.03C324.792,429.414 325.266,429.72 325.83,429.948C326.394,430.176 327.048,430.29 327.792,430.29C328.392,430.29 328.968,430.2 329.52,430.02C330.072,429.84 330.558,429.576 330.978,429.228C331.398,428.88 331.734,428.436 331.986,427.896C332.238,427.356 332.364,426.726 332.364,426.006ZM323.832,412.974C323.832,413.646 323.964,414.24 324.228,414.756C324.492,415.272 324.846,415.734 325.29,416.142C325.734,416.55 326.244,416.928 326.82,417.276C327.396,417.624 327.996,417.954 328.62,418.266C329.7,417.426 330.498,416.598 331.014,415.782C331.53,414.966 331.788,414.066 331.788,413.082C331.788,411.858 331.41,410.916 330.654,410.256C329.898,409.596 328.992,409.266 327.936,409.266C327.288,409.266 326.712,409.374 326.208,409.59C325.704,409.806 325.272,410.082 324.912,410.418C324.552,410.754 324.282,411.144 324.102,411.588C323.922,412.032 323.832,412.494 323.832,412.974Z" style="fill-rule:nonzero;"/>
            <path d="M319.872,315.682C319.872,314.53 320.04,313.462 320.376,312.478C320.712,311.494 321.204,310.642 321.852,309.922C322.5,309.202 323.31,308.638 324.282,308.23C325.254,307.822 326.388,307.618 327.684,307.618C330.132,307.618 332.04,308.41 333.408,309.994C334.776,311.578 335.46,313.81 335.46,316.69C335.46,319.402 335.154,321.772 334.542,323.8C333.93,325.828 333.084,327.538 332.004,328.93C330.924,330.322 329.646,331.408 328.17,332.188C326.694,332.968 325.092,333.466 323.364,333.682L322.716,331.378C324.108,331.162 325.362,330.754 326.478,330.154C327.594,329.554 328.554,328.798 329.358,327.886C330.162,326.974 330.816,325.936 331.32,324.772C331.824,323.608 332.172,322.342 332.364,320.974C331.716,321.742 331.002,322.276 330.222,322.576C329.442,322.876 328.416,323.026 327.144,323.026C326.16,323.026 325.23,322.864 324.354,322.54C323.478,322.216 322.704,321.742 322.032,321.118C321.36,320.494 320.832,319.726 320.448,318.814C320.064,317.902 319.872,316.858 319.872,315.682ZM322.86,315.394C322.86,317.098 323.31,318.376 324.21,319.228C325.11,320.08 326.292,320.506 327.756,320.506C328.932,320.506 329.94,320.314 330.78,319.93C331.62,319.546 332.22,319.042 332.58,318.418C332.628,318.106 332.652,317.83 332.652,317.59L332.652,316.834C332.652,315.97 332.55,315.136 332.346,314.332C332.142,313.528 331.836,312.808 331.428,312.172C331.02,311.536 330.486,311.038 329.826,310.678C329.166,310.318 328.392,310.138 327.504,310.138C326.04,310.138 324.9,310.6 324.084,311.524C323.268,312.448 322.86,313.738 322.86,315.394Z" style="fill-rule:nonzero;"/>
            <path d="M312.078,231.353L317.118,231.353L317.118,213.929L317.478,211.805L316.038,213.497L312.078,216.341L310.71,214.505L318.63,208.385L319.926,208.385L319.926,231.353L324.858,231.353L324.858,234.017L312.078,234.017L312.078,231.353Z" style="fill-rule:nonzero;"/>
            <path d="M343.866,214.541C343.866,215.813 343.632,217.115 343.164,218.447C342.696,219.779 342.084,221.117 341.328,222.461C340.572,223.805 339.726,225.119 338.79,226.403C337.854,227.687 336.918,228.905 335.982,230.057L334.218,231.605L334.218,231.749L336.522,231.353L344.37,231.353L344.37,234.017L330.042,234.017L330.042,232.973C330.57,232.421 331.206,231.737 331.95,230.921C332.694,230.105 333.468,229.199 334.272,228.203C335.076,227.207 335.868,226.151 336.648,225.035C337.428,223.919 338.136,222.785 338.772,221.633C339.408,220.481 339.918,219.341 340.302,218.213C340.686,217.085 340.878,216.017 340.878,215.009C340.878,213.833 340.542,212.855 339.87,212.075C339.198,211.295 338.178,210.905 336.81,210.905C335.898,210.905 335.01,211.091 334.146,211.463C333.282,211.835 332.538,212.261 331.914,212.741L330.726,210.689C331.566,209.969 332.562,209.405 333.714,208.997C334.866,208.589 336.102,208.385 337.422,208.385C338.454,208.385 339.366,208.535 340.158,208.835C340.95,209.135 341.622,209.561 342.174,210.113C342.726,210.665 343.146,211.319 343.434,212.075C343.722,212.831 343.866,213.653 343.866,214.541Z" style="fill-rule:nonzero;"/>
            <path d="M312.078,134.169L317.118,134.169L317.118,116.745L317.478,114.621L316.038,116.313L312.078,119.157L310.71,117.321L318.63,111.201L319.926,111.201L319.926,134.169L324.858,134.169L324.858,136.833L312.078,136.833L312.078,134.169Z" style="fill-rule:nonzero;"/>
            <path d="M336.234,134.745C337.05,134.745 337.806,134.625 338.502,134.385C339.198,134.145 339.798,133.791 340.302,133.323C340.806,132.855 341.202,132.297 341.49,131.649C341.778,131.001 341.922,130.293 341.922,129.525C341.922,127.845 341.424,126.597 340.428,125.781C339.432,124.965 338.058,124.557 336.306,124.557L333.642,124.557L333.642,123.513L338.826,115.521L340.482,113.937L338.142,114.297L331.014,114.297L331.014,111.633L343.866,111.633L343.866,112.677L338.142,121.281L336.882,122.325L336.882,122.397L338.106,122.145C339.066,122.169 339.954,122.343 340.77,122.667C341.586,122.991 342.294,123.459 342.894,124.071C343.494,124.683 343.962,125.415 344.298,126.267C344.634,127.119 344.802,128.085 344.802,129.165C344.802,130.461 344.574,131.613 344.118,132.621C343.662,133.629 343.044,134.475 342.264,135.159C341.484,135.843 340.566,136.365 339.51,136.725C338.454,137.085 337.338,137.265 336.162,137.265C335.082,137.265 334.11,137.181 333.246,137.013C332.382,136.845 331.626,136.629 330.978,136.365L331.734,133.809C332.286,134.073 332.94,134.295 333.696,134.475C334.452,134.655 335.298,134.745 336.234,134.745Z" style="fill-rule:nonzero;"/>
            <path d="M410.464,429.714L415.504,429.714L415.504,412.29L415.864,410.166L414.424,411.858L410.464,414.702L409.096,412.866L417.016,406.746L418.312,406.746L418.312,429.714L423.244,429.714L423.244,432.378L410.464,432.378L410.464,429.714Z" style="fill-rule:nonzero;"/>
            <path d="M427.744,419.778C427.744,415.458 428.446,412.206 429.85,410.022C431.254,407.838 433.3,406.746 435.988,406.746C438.892,406.746 440.998,407.82 442.306,409.968C443.614,412.116 444.268,415.386 444.268,419.778C444.268,424.098 443.566,427.35 442.162,429.534C440.758,431.718 438.7,432.81 435.988,432.81C433.132,432.81 431.044,431.67 429.724,429.39C428.404,427.11 427.744,423.906 427.744,419.778ZM430.732,419.778C430.732,421.338 430.834,422.76 431.038,424.044C431.242,425.328 431.56,426.432 431.992,427.356C432.424,428.28 432.97,429 433.63,429.516C434.29,430.032 435.076,430.29 435.988,430.29C437.812,430.29 439.15,429.444 440.002,427.752C440.854,426.06 441.28,423.402 441.28,419.778C441.28,418.242 441.19,416.826 441.01,415.53C440.83,414.234 440.53,413.118 440.11,412.182C439.69,411.246 439.144,410.526 438.472,410.022C437.8,409.518 436.972,409.266 435.988,409.266C434.188,409.266 432.862,410.118 432.01,411.822C431.158,413.526 430.732,416.178 430.732,419.778Z" style="fill-rule:nonzero;"/>
            <path d="M410.464,330.586L415.504,330.586L415.504,313.162L415.864,311.038L414.424,312.73L410.464,315.574L409.096,313.738L417.016,307.618L418.312,307.618L418.312,330.586L423.244,330.586L423.244,333.25L410.464,333.25L410.464,330.586Z" style="fill-rule:nonzero;"/>
            <path d="M430.084,330.586L435.124,330.586L435.124,313.162L435.484,311.038L434.044,312.73L430.084,315.574L428.716,313.738L436.636,307.618L437.932,307.618L437.932,330.586L442.864,330.586L442.864,333.25L430.084,333.25L430.084,330.586Z" style="fill-rule:nonzero;"/>
            <path d="M410.464,231.353L415.504,231.353L415.504,213.929L415.864,211.805L414.424,213.497L410.464,216.341L409.096,214.505L417.016,208.385L418.312,208.385L418.312,231.353L423.244,231.353L423.244,234.017L410.464,234.017L410.464,231.353Z" style="fill-rule:nonzero;"/>
            <path d="M445.06,226.277L440.812,226.277L440.812,234.017L438.004,234.017L438.004,226.277L426.916,226.277L426.916,225.089L438.868,208.421L440.812,208.421L440.812,223.757L445.06,223.757L445.06,226.277ZM438.004,215.909L438.364,212.957L438.256,212.957L436.996,215.405L431.92,222.281L430.192,224.045L432.712,223.757L438.004,223.757L438.004,215.909Z" style="fill-rule:nonzero;"/>
            <path d="M410.464,134.169L415.504,134.169L415.504,116.745L415.864,114.621L414.424,116.313L410.464,119.157L409.096,117.321L417.016,111.201L418.312,111.201L418.312,134.169L423.244,134.169L423.244,136.833L410.464,136.833L410.464,134.169Z" style="fill-rule:nonzero;"/>
            <path d="M433.864,134.745C435.52,134.745 436.888,134.265 437.968,133.305C439.048,132.345 439.588,130.953 439.588,129.129C439.588,127.377 439.054,126.069 437.986,125.205C436.918,124.341 435.448,123.909 433.576,123.909L430.552,124.089L430.552,111.633L441.784,111.633L441.784,114.297L433.252,114.297L433.252,121.461L434.8,121.389C437.176,121.413 439.048,122.073 440.416,123.369C441.784,124.665 442.468,126.525 442.468,128.949C442.468,130.293 442.24,131.487 441.784,132.531C441.328,133.575 440.71,134.445 439.93,135.141C439.15,135.837 438.232,136.365 437.176,136.725C436.12,137.085 434.992,137.265 433.792,137.265C432.712,137.265 431.8,137.205 431.056,137.085C430.312,136.965 429.616,136.785 428.968,136.545L429.724,134.097C430.276,134.313 430.87,134.475 431.506,134.583C432.142,134.691 432.928,134.745 433.864,134.745Z" style="fill-rule:nonzero;"/>
        </g>
    </g>
</svg>
