<?xml version="1.0" encoding="UTF-8" standalone="no"?>
<!DOCTYPE svg PUBLIC "-//W3C//DTD SVG 1.1//EN" "http://www.w3.org/Graphics/SVG/1.1/DTD/svg11.dtd">
<svg width="100%" height="100%" viewBox="0 0 1217 543" version="1.1" xmlns="http://www.w3.org/2000/svg" xmlns:xlink="http://www.w3.org/1999/xlink" xml:space="preserve" xmlns:serif="http://www.serif.com/" style="fill-rule:evenodd;clip-rule:evenodd;stroke-linejoin:round;stroke-miterlimit:10;">
    <g transform="matrix(1,0,0,1,-1543,-196)">
        <g id="spdata" transform="matrix(1,0,0,1,1,0)">
            <rect x="-1" y="3" width="3118" height="956" style="fill:none;"/>
            <g transform="matrix(1,0,0,1,-279,-371.394)">
                <rect x="1837" y="721" width="93" height="93" style="fill:rgb(194,194,194);stroke:black;stroke-width:2px;"/>
            </g>
            <g transform="matrix(1,0,0,1,-279,-371.394)">
                <rect x="1930" y="721" width="186" height="93" style="fill:white;stroke:black;stroke-width:2px;"/>
            </g>
            <g transform="matrix(1,0,0,1,-93,-371.394)">
                <rect x="1930" y="721" width="186" height="93" style="fill:white;stroke:black;stroke-width:2px;"/>
            </g>
            <g transform="matrix(1,0,0,1,268.316,-371.394)">
                <rect x="1930" y="721" width="186" height="93" style="fill:white;stroke:black;stroke-width:2px;"/>
            </g>
            <g transform="matrix(1,0,0,1,-438,-249.894)">
                <g transform="matrix(40,0,0,40,2030.5,659)">
                    <path d="M0.256,-0.058C0.281,-0.058 0.305,-0.061 0.326,-0.068C0.347,-0.074 0.366,-0.084 0.381,-0.097C0.396,-0.11 0.407,-0.126 0.416,-0.145C0.424,-0.164 0.428,-0.187 0.428,-0.213C0.428,-0.261 0.411,-0.298 0.377,-0.323C0.342,-0.347 0.295,-0.36 0.236,-0.36L0.142,-0.355L0.142,-0.7L0.485,-0.7L0.485,-0.628L0.217,-0.628L0.217,-0.425L0.267,-0.427C0.341,-0.427 0.399,-0.409 0.442,-0.373C0.485,-0.337 0.506,-0.286 0.506,-0.219C0.506,-0.182 0.5,-0.149 0.487,-0.12C0.474,-0.091 0.456,-0.067 0.433,-0.048C0.41,-0.028 0.384,-0.013 0.353,-0.003C0.321,0.007 0.288,0.012 0.251,0.012C0.231,0.012 0.212,0.011 0.194,0.008C0.176,0.005 0.16,0.001 0.145,-0.004C0.13,-0.008 0.117,-0.013 0.107,-0.018C0.095,-0.023 0.088,-0.027 0.083,-0.031L0.115,-0.096C0.126,-0.089 0.144,-0.081 0.167,-0.072C0.19,-0.063 0.22,-0.058 0.256,-0.058Z" style="fill-rule:nonzero;"/>
                </g>
            </g>
            <g transform="matrix(1,0,0,1,-6.40363,-251.894)">
                <g transform="matrix(40,0,0,40,2080,659)">
                    <path d="M0.233,-0.055C0.233,-0.076 0.239,-0.093 0.251,-0.105C0.263,-0.116 0.279,-0.122 0.299,-0.122C0.32,-0.122 0.337,-0.116 0.349,-0.105C0.361,-0.093 0.367,-0.076 0.367,-0.055C0.367,-0.036 0.361,-0.02 0.349,-0.007C0.337,0.006 0.32,0.012 0.299,0.012C0.279,0.012 0.263,0.006 0.251,-0.007C0.239,-0.02 0.233,-0.036 0.233,-0.055Z" style="fill-rule:nonzero;"/>
                </g>
                <g transform="matrix(40,0,0,40,2104,659)">
                    <path d="M0.233,-0.055C0.233,-0.076 0.239,-0.093 0.251,-0.105C0.263,-0.116 0.279,-0.122 0.299,-0.122C0.32,-0.122 0.337,-0.116 0.349,-0.105C0.361,-0.093 0.367,-0.076 0.367,-0.055C0.367,-0.036 0.361,-0.02 0.349,-0.007C0.337,0.006 0.32,0.012 0.299,0.012C0.279,0.012 0.263,0.006 0.251,-0.007C0.239,-0.02 0.233,-0.036 0.233,-0.055Z" style="fill-rule:nonzero;"/>
                </g>
                <g transform="matrix(40,0,0,40,2128,659)">
                    <path d="M0.233,-0.055C0.233,-0.076 0.239,-0.093 0.251,-0.105C0.263,-0.116 0.279,-0.122 0.299,-0.122C0.32,-0.122 0.337,-0.116 0.349,-0.105C0.361,-0.093 0.367,-0.076 0.367,-0.055C0.367,-0.036 0.361,-0.02 0.349,-0.007C0.337,0.006 0.32,0.012 0.299,0.012C0.279,0.012 0.263,0.006 0.251,-0.007C0.239,-0.02 0.233,-0.036 0.233,-0.055Z" style="fill-rule:nonzero;"/>
                </g>
            </g>
            <g transform="matrix(1,0,0,1,-438,-326.495)">
                <g transform="matrix(40,0,0,40,2026.34,659)">
                    <path d="M0.069,-0.5L0.199,-0.5L0.199,-0L0.069,-0L0.069,-0.5ZM0.05,-0.641C0.05,-0.66 0.057,-0.677 0.072,-0.691C0.086,-0.704 0.106,-0.711 0.131,-0.711C0.156,-0.711 0.177,-0.704 0.193,-0.691C0.208,-0.677 0.216,-0.66 0.216,-0.641C0.216,-0.622 0.208,-0.606 0.193,-0.593C0.177,-0.58 0.156,-0.573 0.131,-0.573C0.106,-0.573 0.086,-0.58 0.072,-0.593C0.057,-0.606 0.05,-0.622 0.05,-0.641Z" style="fill-rule:nonzero;"/>
                </g>
                <g transform="matrix(40,0,0,40,2037.1,659)">
                    <path d="M0.482,-0.176C0.482,-0.148 0.482,-0.12 0.483,-0.092C0.484,-0.064 0.487,-0.033 0.492,0.001L0.399,0.001L0.381,-0.064L0.377,-0.064C0.364,-0.041 0.345,-0.022 0.32,-0.008C0.295,0.007 0.265,0.014 0.231,0.014C0.168,0.014 0.12,-0.007 0.085,-0.048C0.05,-0.089 0.033,-0.154 0.033,-0.242C0.033,-0.327 0.052,-0.394 0.091,-0.441C0.13,-0.488 0.186,-0.512 0.261,-0.512C0.282,-0.512 0.299,-0.511 0.312,-0.509C0.325,-0.506 0.339,-0.502 0.352,-0.497L0.352,-0.7L0.482,-0.7L0.482,-0.176ZM0.261,-0.096C0.286,-0.096 0.306,-0.102 0.321,-0.115C0.336,-0.127 0.346,-0.145 0.352,-0.168L0.352,-0.38C0.343,-0.387 0.332,-0.393 0.321,-0.397C0.31,-0.4 0.295,-0.402 0.277,-0.402C0.24,-0.402 0.213,-0.39 0.195,-0.365C0.176,-0.34 0.167,-0.298 0.167,-0.238C0.167,-0.195 0.175,-0.161 0.19,-0.135C0.204,-0.109 0.228,-0.096 0.261,-0.096Z" style="fill-rule:nonzero;"/>
                </g>
            </g>
            <g transform="matrix(1,0,0,1,-362,-326.495)">
                <g transform="matrix(40,0,0,40,2056.04,659)">
                    <path d="M0.011,-0.5L0.08,-0.5L0.08,-0.528C0.08,-0.591 0.093,-0.637 0.12,-0.666C0.147,-0.694 0.185,-0.708 0.236,-0.708C0.289,-0.708 0.334,-0.702 0.369,-0.689L0.344,-0.585C0.329,-0.59 0.315,-0.594 0.304,-0.596C0.292,-0.597 0.28,-0.598 0.267,-0.598C0.254,-0.598 0.243,-0.596 0.236,-0.592C0.228,-0.588 0.222,-0.582 0.219,-0.574C0.215,-0.565 0.213,-0.555 0.212,-0.543C0.211,-0.53 0.21,-0.516 0.21,-0.5L0.32,-0.5L0.32,-0.39L0.21,-0.39L0.21,-0L0.08,-0L0.08,-0.39L0.011,-0.39L0.011,-0.5Z" style="fill-rule:nonzero;"/>
                </g>
                <g transform="matrix(40,0,0,40,2068.88,659)">
                    <path d="M0.069,-0.5L0.199,-0.5L0.199,-0L0.069,-0L0.069,-0.5ZM0.05,-0.641C0.05,-0.66 0.057,-0.677 0.072,-0.691C0.086,-0.704 0.106,-0.711 0.131,-0.711C0.156,-0.711 0.177,-0.704 0.193,-0.691C0.208,-0.677 0.216,-0.66 0.216,-0.641C0.216,-0.622 0.208,-0.606 0.193,-0.593C0.177,-0.58 0.156,-0.573 0.131,-0.573C0.106,-0.573 0.086,-0.58 0.072,-0.593C0.057,-0.606 0.05,-0.622 0.05,-0.641Z" style="fill-rule:nonzero;"/>
                </g>
                <g transform="matrix(40,0,0,40,2079.64,659)">
                    <path d="M0.457,-0.043C0.437,-0.027 0.41,-0.014 0.376,-0.003C0.341,0.009 0.305,0.014 0.266,0.014C0.185,0.014 0.126,-0.01 0.089,-0.057C0.052,-0.103 0.033,-0.168 0.033,-0.25C0.033,-0.338 0.054,-0.404 0.096,-0.448C0.138,-0.492 0.197,-0.514 0.273,-0.514C0.298,-0.514 0.323,-0.511 0.347,-0.504C0.371,-0.497 0.392,-0.486 0.411,-0.471C0.43,-0.456 0.445,-0.435 0.456,-0.409C0.467,-0.383 0.473,-0.351 0.473,-0.312C0.473,-0.298 0.472,-0.283 0.471,-0.267C0.469,-0.251 0.466,-0.234 0.463,-0.217L0.163,-0.217C0.165,-0.175 0.176,-0.143 0.196,-0.122C0.215,-0.101 0.247,-0.09 0.291,-0.09C0.318,-0.09 0.343,-0.094 0.365,-0.103C0.386,-0.111 0.403,-0.119 0.414,-0.128L0.457,-0.043ZM0.271,-0.41C0.237,-0.41 0.212,-0.4 0.196,-0.38C0.179,-0.359 0.169,-0.332 0.166,-0.298L0.352,-0.298C0.355,-0.334 0.349,-0.362 0.336,-0.381C0.322,-0.4 0.3,-0.41 0.271,-0.41Z" style="fill-rule:nonzero;"/>
                </g>
                <g transform="matrix(40,0,0,40,2099.96,659)">
                    <path d="M0.191,-0.168C0.191,-0.145 0.194,-0.128 0.2,-0.117C0.206,-0.106 0.216,-0.101 0.229,-0.101C0.237,-0.101 0.245,-0.102 0.253,-0.103C0.26,-0.104 0.27,-0.107 0.281,-0.112L0.295,-0.01C0.284,-0.005 0.268,0.001 0.246,0.006C0.224,0.011 0.201,0.014 0.178,0.014C0.14,0.014 0.111,0.005 0.091,-0.013C0.071,-0.03 0.061,-0.059 0.061,-0.1L0.061,-0.7L0.191,-0.7L0.191,-0.168Z" style="fill-rule:nonzero;"/>
                </g>
                <g transform="matrix(40,0,0,40,2111.72,659)">
                    <path d="M0.482,-0.176C0.482,-0.148 0.482,-0.12 0.483,-0.092C0.484,-0.064 0.487,-0.033 0.492,0.001L0.399,0.001L0.381,-0.064L0.377,-0.064C0.364,-0.041 0.345,-0.022 0.32,-0.008C0.295,0.007 0.265,0.014 0.231,0.014C0.168,0.014 0.12,-0.007 0.085,-0.048C0.05,-0.089 0.033,-0.154 0.033,-0.242C0.033,-0.327 0.052,-0.394 0.091,-0.441C0.13,-0.488 0.186,-0.512 0.261,-0.512C0.282,-0.512 0.299,-0.511 0.312,-0.509C0.325,-0.506 0.339,-0.502 0.352,-0.497L0.352,-0.7L0.482,-0.7L0.482,-0.176ZM0.261,-0.096C0.286,-0.096 0.306,-0.102 0.321,-0.115C0.336,-0.127 0.346,-0.145 0.352,-0.168L0.352,-0.38C0.343,-0.387 0.332,-0.393 0.321,-0.397C0.31,-0.4 0.295,-0.402 0.277,-0.402C0.24,-0.402 0.213,-0.39 0.195,-0.365C0.176,-0.34 0.167,-0.298 0.167,-0.238C0.167,-0.195 0.175,-0.161 0.19,-0.135C0.204,-0.109 0.228,-0.096 0.261,-0.096Z" style="fill-rule:nonzero;"/>
                </g>
                <g transform="matrix(40,0,0,40,2133.28,659)">
                    <path d="M0.101,-0.11L0.24,-0.11L0.24,-0.505L0.255,-0.573L0.207,-0.514L0.118,-0.453L0.063,-0.528L0.291,-0.712L0.364,-0.712L0.364,-0.11L0.5,-0.11L0.5,-0L0.101,-0L0.101,-0.11Z" style="fill-rule:nonzero;"/>
                </g>
            </g>
            <g transform="matrix(1,0,0,1,-176,-326.495)">
                <g transform="matrix(40,0,0,40,2056.04,659)">
                    <path d="M0.011,-0.5L0.08,-0.5L0.08,-0.528C0.08,-0.591 0.093,-0.637 0.12,-0.666C0.147,-0.694 0.185,-0.708 0.236,-0.708C0.289,-0.708 0.334,-0.702 0.369,-0.689L0.344,-0.585C0.329,-0.59 0.315,-0.594 0.304,-0.596C0.292,-0.597 0.28,-0.598 0.267,-0.598C0.254,-0.598 0.243,-0.596 0.236,-0.592C0.228,-0.588 0.222,-0.582 0.219,-0.574C0.215,-0.565 0.213,-0.555 0.212,-0.543C0.211,-0.53 0.21,-0.516 0.21,-0.5L0.32,-0.5L0.32,-0.39L0.21,-0.39L0.21,-0L0.08,-0L0.08,-0.39L0.011,-0.39L0.011,-0.5Z" style="fill-rule:nonzero;"/>
                </g>
                <g transform="matrix(40,0,0,40,2068.88,659)">
                    <path d="M0.069,-0.5L0.199,-0.5L0.199,-0L0.069,-0L0.069,-0.5ZM0.05,-0.641C0.05,-0.66 0.057,-0.677 0.072,-0.691C0.086,-0.704 0.106,-0.711 0.131,-0.711C0.156,-0.711 0.177,-0.704 0.193,-0.691C0.208,-0.677 0.216,-0.66 0.216,-0.641C0.216,-0.622 0.208,-0.606 0.193,-0.593C0.177,-0.58 0.156,-0.573 0.131,-0.573C0.106,-0.573 0.086,-0.58 0.072,-0.593C0.057,-0.606 0.05,-0.622 0.05,-0.641Z" style="fill-rule:nonzero;"/>
                </g>
                <g transform="matrix(40,0,0,40,2079.64,659)">
                    <path d="M0.457,-0.043C0.437,-0.027 0.41,-0.014 0.376,-0.003C0.341,0.009 0.305,0.014 0.266,0.014C0.185,0.014 0.126,-0.01 0.089,-0.057C0.052,-0.103 0.033,-0.168 0.033,-0.25C0.033,-0.338 0.054,-0.404 0.096,-0.448C0.138,-0.492 0.197,-0.514 0.273,-0.514C0.298,-0.514 0.323,-0.511 0.347,-0.504C0.371,-0.497 0.392,-0.486 0.411,-0.471C0.43,-0.456 0.445,-0.435 0.456,-0.409C0.467,-0.383 0.473,-0.351 0.473,-0.312C0.473,-0.298 0.472,-0.283 0.471,-0.267C0.469,-0.251 0.466,-0.234 0.463,-0.217L0.163,-0.217C0.165,-0.175 0.176,-0.143 0.196,-0.122C0.215,-0.101 0.247,-0.09 0.291,-0.09C0.318,-0.09 0.343,-0.094 0.365,-0.103C0.386,-0.111 0.403,-0.119 0.414,-0.128L0.457,-0.043ZM0.271,-0.41C0.237,-0.41 0.212,-0.4 0.196,-0.38C0.179,-0.359 0.169,-0.332 0.166,-0.298L0.352,-0.298C0.355,-0.334 0.349,-0.362 0.336,-0.381C0.322,-0.4 0.3,-0.41 0.271,-0.41Z" style="fill-rule:nonzero;"/>
                </g>
                <g transform="matrix(40,0,0,40,2099.96,659)">
                    <path d="M0.191,-0.168C0.191,-0.145 0.194,-0.128 0.2,-0.117C0.206,-0.106 0.216,-0.101 0.229,-0.101C0.237,-0.101 0.245,-0.102 0.253,-0.103C0.26,-0.104 0.27,-0.107 0.281,-0.112L0.295,-0.01C0.284,-0.005 0.268,0.001 0.246,0.006C0.224,0.011 0.201,0.014 0.178,0.014C0.14,0.014 0.111,0.005 0.091,-0.013C0.071,-0.03 0.061,-0.059 0.061,-0.1L0.061,-0.7L0.191,-0.7L0.191,-0.168Z" style="fill-rule:nonzero;"/>
                </g>
                <g transform="matrix(40,0,0,40,2111.72,659)">
                    <path d="M0.482,-0.176C0.482,-0.148 0.482,-0.12 0.483,-0.092C0.484,-0.064 0.487,-0.033 0.492,0.001L0.399,0.001L0.381,-0.064L0.377,-0.064C0.364,-0.041 0.345,-0.022 0.32,-0.008C0.295,0.007 0.265,0.014 0.231,0.014C0.168,0.014 0.12,-0.007 0.085,-0.048C0.05,-0.089 0.033,-0.154 0.033,-0.242C0.033,-0.327 0.052,-0.394 0.091,-0.441C0.13,-0.488 0.186,-0.512 0.261,-0.512C0.282,-0.512 0.299,-0.511 0.312,-0.509C0.325,-0.506 0.339,-0.502 0.352,-0.497L0.352,-0.7L0.482,-0.7L0.482,-0.176ZM0.261,-0.096C0.286,-0.096 0.306,-0.102 0.321,-0.115C0.336,-0.127 0.346,-0.145 0.352,-0.168L0.352,-0.38C0.343,-0.387 0.332,-0.393 0.321,-0.397C0.31,-0.4 0.295,-0.402 0.277,-0.402C0.24,-0.402 0.213,-0.39 0.195,-0.365C0.176,-0.34 0.167,-0.298 0.167,-0.238C0.167,-0.195 0.175,-0.161 0.19,-0.135C0.204,-0.109 0.228,-0.096 0.261,-0.096Z" style="fill-rule:nonzero;"/>
                </g>
                <g transform="matrix(40,0,0,40,2133.28,659)">
                    <path d="M0.475,-0.529C0.475,-0.495 0.469,-0.461 0.457,-0.426C0.444,-0.391 0.429,-0.357 0.41,-0.324C0.391,-0.291 0.37,-0.259 0.347,-0.228C0.324,-0.197 0.301,-0.168 0.279,-0.142L0.226,-0.101L0.226,-0.096L0.298,-0.11L0.49,-0.11L0.49,-0L0.069,-0L0.069,-0.067C0.085,-0.084 0.103,-0.103 0.123,-0.126C0.143,-0.148 0.163,-0.171 0.184,-0.197C0.204,-0.222 0.224,-0.247 0.243,-0.274C0.262,-0.301 0.28,-0.327 0.295,-0.355C0.31,-0.382 0.323,-0.408 0.332,-0.433C0.341,-0.458 0.345,-0.482 0.345,-0.505C0.345,-0.532 0.337,-0.555 0.322,-0.573C0.306,-0.59 0.281,-0.599 0.247,-0.599C0.226,-0.599 0.204,-0.595 0.182,-0.586C0.159,-0.577 0.14,-0.565 0.125,-0.551L0.073,-0.643C0.099,-0.664 0.129,-0.682 0.162,-0.695C0.195,-0.708 0.233,-0.714 0.278,-0.714C0.307,-0.714 0.333,-0.71 0.357,-0.702C0.381,-0.694 0.402,-0.682 0.419,-0.667C0.436,-0.652 0.45,-0.632 0.46,-0.61C0.47,-0.587 0.475,-0.56 0.475,-0.529Z" style="fill-rule:nonzero;"/>
                </g>
            </g>
            <g transform="matrix(1,0,0,1,184.094,-326.495)">
                <g transform="matrix(40,0,0,40,2054.24,659)">
                    <path d="M0.011,-0.5L0.08,-0.5L0.08,-0.528C0.08,-0.591 0.093,-0.637 0.12,-0.666C0.147,-0.694 0.185,-0.708 0.236,-0.708C0.289,-0.708 0.334,-0.702 0.369,-0.689L0.344,-0.585C0.329,-0.59 0.315,-0.594 0.304,-0.596C0.292,-0.597 0.28,-0.598 0.267,-0.598C0.254,-0.598 0.243,-0.596 0.236,-0.592C0.228,-0.588 0.222,-0.582 0.219,-0.574C0.215,-0.565 0.213,-0.555 0.212,-0.543C0.211,-0.53 0.21,-0.516 0.21,-0.5L0.32,-0.5L0.32,-0.39L0.21,-0.39L0.21,-0L0.08,-0L0.08,-0.39L0.011,-0.39L0.011,-0.5Z" style="fill-rule:nonzero;"/>
                </g>
                <g transform="matrix(40,0,0,40,2067.08,659)">
                    <path d="M0.069,-0.5L0.199,-0.5L0.199,-0L0.069,-0L0.069,-0.5ZM0.05,-0.641C0.05,-0.66 0.057,-0.677 0.072,-0.691C0.086,-0.704 0.106,-0.711 0.131,-0.711C0.156,-0.711 0.177,-0.704 0.193,-0.691C0.208,-0.677 0.216,-0.66 0.216,-0.641C0.216,-0.622 0.208,-0.606 0.193,-0.593C0.177,-0.58 0.156,-0.573 0.131,-0.573C0.106,-0.573 0.086,-0.58 0.072,-0.593C0.057,-0.606 0.05,-0.622 0.05,-0.641Z" style="fill-rule:nonzero;"/>
                </g>
                <g transform="matrix(40,0,0,40,2077.84,659)">
                    <path d="M0.457,-0.043C0.437,-0.027 0.41,-0.014 0.376,-0.003C0.341,0.009 0.305,0.014 0.266,0.014C0.185,0.014 0.126,-0.01 0.089,-0.057C0.052,-0.103 0.033,-0.168 0.033,-0.25C0.033,-0.338 0.054,-0.404 0.096,-0.448C0.138,-0.492 0.197,-0.514 0.273,-0.514C0.298,-0.514 0.323,-0.511 0.347,-0.504C0.371,-0.497 0.392,-0.486 0.411,-0.471C0.43,-0.456 0.445,-0.435 0.456,-0.409C0.467,-0.383 0.473,-0.351 0.473,-0.312C0.473,-0.298 0.472,-0.283 0.471,-0.267C0.469,-0.251 0.466,-0.234 0.463,-0.217L0.163,-0.217C0.165,-0.175 0.176,-0.143 0.196,-0.122C0.215,-0.101 0.247,-0.09 0.291,-0.09C0.318,-0.09 0.343,-0.094 0.365,-0.103C0.386,-0.111 0.403,-0.119 0.414,-0.128L0.457,-0.043ZM0.271,-0.41C0.237,-0.41 0.212,-0.4 0.196,-0.38C0.179,-0.359 0.169,-0.332 0.166,-0.298L0.352,-0.298C0.355,-0.334 0.349,-0.362 0.336,-0.381C0.322,-0.4 0.3,-0.41 0.271,-0.41Z" style="fill-rule:nonzero;"/>
                </g>
                <g transform="matrix(40,0,0,40,2098.16,659)">
                    <path d="M0.191,-0.168C0.191,-0.145 0.194,-0.128 0.2,-0.117C0.206,-0.106 0.216,-0.101 0.229,-0.101C0.237,-0.101 0.245,-0.102 0.253,-0.103C0.26,-0.104 0.27,-0.107 0.281,-0.112L0.295,-0.01C0.284,-0.005 0.268,0.001 0.246,0.006C0.224,0.011 0.201,0.014 0.178,0.014C0.14,0.014 0.111,0.005 0.091,-0.013C0.071,-0.03 0.061,-0.059 0.061,-0.1L0.061,-0.7L0.191,-0.7L0.191,-0.168Z" style="fill-rule:nonzero;"/>
                </g>
                <g transform="matrix(40,0,0,40,2109.92,659)">
                    <path d="M0.482,-0.176C0.482,-0.148 0.482,-0.12 0.483,-0.092C0.484,-0.064 0.487,-0.033 0.492,0.001L0.399,0.001L0.381,-0.064L0.377,-0.064C0.364,-0.041 0.345,-0.022 0.32,-0.008C0.295,0.007 0.265,0.014 0.231,0.014C0.168,0.014 0.12,-0.007 0.085,-0.048C0.05,-0.089 0.033,-0.154 0.033,-0.242C0.033,-0.327 0.052,-0.394 0.091,-0.441C0.13,-0.488 0.186,-0.512 0.261,-0.512C0.282,-0.512 0.299,-0.511 0.312,-0.509C0.325,-0.506 0.339,-0.502 0.352,-0.497L0.352,-0.7L0.482,-0.7L0.482,-0.176ZM0.261,-0.096C0.286,-0.096 0.306,-0.102 0.321,-0.115C0.336,-0.127 0.346,-0.145 0.352,-0.168L0.352,-0.38C0.343,-0.387 0.332,-0.393 0.321,-0.397C0.31,-0.4 0.295,-0.402 0.277,-0.402C0.24,-0.402 0.213,-0.39 0.195,-0.365C0.176,-0.34 0.167,-0.298 0.167,-0.238C0.167,-0.195 0.175,-0.161 0.19,-0.135C0.204,-0.109 0.228,-0.096 0.261,-0.096Z" style="fill-rule:nonzero;"/>
                </g>
                <g transform="matrix(40,0,0,40,2131.48,659)">
                    <path d="M0.234,-0.365L0.179,-0.475L0.174,-0.475L0.19,-0.365L0.19,-0L0.06,-0L0.06,-0.705L0.16,-0.705L0.425,-0.332L0.478,-0.225L0.483,-0.225L0.467,-0.332L0.467,-0.7L0.597,-0.7L0.597,0.005L0.497,0.005L0.234,-0.365Z" style="fill-rule:nonzero;"/>
                </g>
            </g>
            <g transform="matrix(1,0,0,1,1492.23,57.552)">
                <g transform="matrix(72,0,0,72,128.121,650.831)">
                    <path d="M0.522,-0.54C0.522,-0.523 0.519,-0.506 0.514,-0.489C0.509,-0.472 0.501,-0.456 0.49,-0.441C0.479,-0.426 0.466,-0.412 0.449,-0.401C0.432,-0.39 0.413,-0.381 0.39,-0.375L0.39,-0.371C0.41,-0.368 0.429,-0.362 0.448,-0.354C0.466,-0.346 0.482,-0.335 0.496,-0.321C0.51,-0.307 0.521,-0.29 0.53,-0.27C0.539,-0.25 0.543,-0.226 0.543,-0.199C0.543,-0.163 0.536,-0.132 0.521,-0.106C0.505,-0.079 0.486,-0.058 0.462,-0.041C0.437,-0.024 0.409,-0.012 0.378,-0.004C0.347,0.004 0.315,0.008 0.282,0.008L0.242,0.008C0.227,0.008 0.211,0.008 0.194,0.007C0.177,0.006 0.161,0.004 0.144,0.003C0.127,0.001 0.113,-0.002 0.1,-0.005L0.1,-0.694C0.125,-0.698 0.153,-0.701 0.186,-0.704C0.219,-0.707 0.254,-0.708 0.293,-0.708C0.319,-0.708 0.345,-0.706 0.373,-0.702C0.4,-0.697 0.424,-0.689 0.446,-0.677C0.468,-0.664 0.486,-0.647 0.501,-0.625C0.515,-0.603 0.522,-0.575 0.522,-0.54ZM0.29,-0.064C0.311,-0.064 0.332,-0.067 0.352,-0.072C0.372,-0.077 0.39,-0.085 0.405,-0.096C0.42,-0.107 0.432,-0.12 0.442,-0.136C0.451,-0.152 0.455,-0.171 0.455,-0.193C0.455,-0.22 0.45,-0.242 0.439,-0.259C0.428,-0.276 0.413,-0.289 0.396,-0.298C0.378,-0.307 0.358,-0.314 0.336,-0.317C0.314,-0.32 0.292,-0.322 0.27,-0.322L0.183,-0.322L0.183,-0.071C0.188,-0.07 0.194,-0.069 0.203,-0.068C0.212,-0.067 0.221,-0.067 0.231,-0.066C0.241,-0.065 0.251,-0.065 0.262,-0.065C0.273,-0.064 0.282,-0.064 0.29,-0.064ZM0.235,-0.392C0.246,-0.392 0.26,-0.392 0.276,-0.393C0.292,-0.394 0.305,-0.395 0.316,-0.396C0.332,-0.401 0.347,-0.408 0.361,-0.416C0.375,-0.423 0.388,-0.432 0.399,-0.443C0.41,-0.454 0.418,-0.466 0.425,-0.479C0.431,-0.492 0.434,-0.507 0.434,-0.523C0.434,-0.545 0.43,-0.563 0.422,-0.578C0.413,-0.593 0.402,-0.604 0.388,-0.613C0.374,-0.622 0.358,-0.628 0.34,-0.631C0.322,-0.634 0.304,-0.636 0.285,-0.636C0.263,-0.636 0.243,-0.636 0.225,-0.635C0.206,-0.634 0.192,-0.632 0.183,-0.63L0.183,-0.392L0.235,-0.392Z" style="fill:rgb(235,0,92);fill-rule:nonzero;"/>
                </g>
                <g transform="matrix(72,0,0,72,171.321,650.831)">
                    <path d="M0.09,-0.7L0.173,-0.7L0.173,-0.074L0.456,-0.074L0.456,-0.248L0.53,-0.248L0.53,-0L0.09,-0L0.09,-0.7Z" style="fill:rgb(235,0,92);fill-rule:nonzero;"/>
                </g>
                <g transform="matrix(72,0,0,72,214.521,650.831)">
                    <path d="M0.048,-0.35C0.048,-0.466 0.069,-0.555 0.11,-0.618C0.151,-0.681 0.214,-0.712 0.299,-0.712C0.346,-0.712 0.385,-0.703 0.418,-0.686C0.45,-0.669 0.476,-0.644 0.496,-0.613C0.516,-0.581 0.53,-0.543 0.539,-0.499C0.548,-0.454 0.552,-0.405 0.552,-0.35C0.552,-0.234 0.532,-0.145 0.491,-0.082C0.45,-0.019 0.386,0.012 0.299,0.012C0.253,0.012 0.214,0.003 0.182,-0.014C0.15,-0.031 0.124,-0.056 0.104,-0.088C0.084,-0.119 0.07,-0.157 0.061,-0.202C0.052,-0.246 0.048,-0.295 0.048,-0.35ZM0.136,-0.35C0.136,-0.311 0.139,-0.275 0.144,-0.24C0.149,-0.205 0.157,-0.175 0.17,-0.149C0.183,-0.122 0.199,-0.101 0.22,-0.086C0.241,-0.07 0.267,-0.062 0.299,-0.062C0.356,-0.062 0.398,-0.085 0.425,-0.132C0.451,-0.179 0.464,-0.251 0.464,-0.35C0.464,-0.388 0.462,-0.425 0.457,-0.46C0.452,-0.495 0.443,-0.525 0.43,-0.552C0.417,-0.578 0.4,-0.599 0.379,-0.615C0.358,-0.63 0.331,-0.638 0.299,-0.638C0.242,-0.638 0.201,-0.615 0.175,-0.568C0.149,-0.521 0.136,-0.448 0.136,-0.35Z" style="fill:rgb(235,0,92);fill-rule:nonzero;"/>
                </g>
                <g transform="matrix(72,0,0,72,257.721,650.831)">
                    <path d="M0.522,-0.54C0.522,-0.523 0.519,-0.506 0.514,-0.489C0.509,-0.472 0.501,-0.456 0.49,-0.441C0.479,-0.426 0.466,-0.412 0.449,-0.401C0.432,-0.39 0.413,-0.381 0.39,-0.375L0.39,-0.371C0.41,-0.368 0.429,-0.362 0.448,-0.354C0.466,-0.346 0.482,-0.335 0.496,-0.321C0.51,-0.307 0.521,-0.29 0.53,-0.27C0.539,-0.25 0.543,-0.226 0.543,-0.199C0.543,-0.163 0.536,-0.132 0.521,-0.106C0.505,-0.079 0.486,-0.058 0.462,-0.041C0.437,-0.024 0.409,-0.012 0.378,-0.004C0.347,0.004 0.315,0.008 0.282,0.008L0.242,0.008C0.227,0.008 0.211,0.008 0.194,0.007C0.177,0.006 0.161,0.004 0.144,0.003C0.127,0.001 0.113,-0.002 0.1,-0.005L0.1,-0.694C0.125,-0.698 0.153,-0.701 0.186,-0.704C0.219,-0.707 0.254,-0.708 0.293,-0.708C0.319,-0.708 0.345,-0.706 0.373,-0.702C0.4,-0.697 0.424,-0.689 0.446,-0.677C0.468,-0.664 0.486,-0.647 0.501,-0.625C0.515,-0.603 0.522,-0.575 0.522,-0.54ZM0.29,-0.064C0.311,-0.064 0.332,-0.067 0.352,-0.072C0.372,-0.077 0.39,-0.085 0.405,-0.096C0.42,-0.107 0.432,-0.12 0.442,-0.136C0.451,-0.152 0.455,-0.171 0.455,-0.193C0.455,-0.22 0.45,-0.242 0.439,-0.259C0.428,-0.276 0.413,-0.289 0.396,-0.298C0.378,-0.307 0.358,-0.314 0.336,-0.317C0.314,-0.32 0.292,-0.322 0.27,-0.322L0.183,-0.322L0.183,-0.071C0.188,-0.07 0.194,-0.069 0.203,-0.068C0.212,-0.067 0.221,-0.067 0.231,-0.066C0.241,-0.065 0.251,-0.065 0.262,-0.065C0.273,-0.064 0.282,-0.064 0.29,-0.064ZM0.235,-0.392C0.246,-0.392 0.26,-0.392 0.276,-0.393C0.292,-0.394 0.305,-0.395 0.316,-0.396C0.332,-0.401 0.347,-0.408 0.361,-0.416C0.375,-0.423 0.388,-0.432 0.399,-0.443C0.41,-0.454 0.418,-0.466 0.425,-0.479C0.431,-0.492 0.434,-0.507 0.434,-0.523C0.434,-0.545 0.43,-0.563 0.422,-0.578C0.413,-0.593 0.402,-0.604 0.388,-0.613C0.374,-0.622 0.358,-0.628 0.34,-0.631C0.322,-0.634 0.304,-0.636 0.285,-0.636C0.263,-0.636 0.243,-0.636 0.225,-0.635C0.206,-0.634 0.192,-0.632 0.183,-0.63L0.183,-0.392L0.235,-0.392Z" style="fill:rgb(235,0,92);fill-rule:nonzero;"/>
                </g>
                <g transform="matrix(72,0,0,72,344.121,650.831)">
                    <path d="M0.432,0.212C0.387,0.201 0.345,0.184 0.307,0.162C0.268,0.139 0.234,0.11 0.205,0.074C0.175,0.038 0.153,-0.006 0.136,-0.058C0.119,-0.11 0.11,-0.172 0.11,-0.243C0.11,-0.314 0.119,-0.376 0.136,-0.429C0.153,-0.482 0.177,-0.527 0.206,-0.564C0.235,-0.6 0.27,-0.63 0.309,-0.653C0.347,-0.675 0.389,-0.691 0.432,-0.7L0.457,-0.637C0.418,-0.626 0.382,-0.611 0.349,-0.593C0.316,-0.574 0.288,-0.55 0.265,-0.52C0.241,-0.489 0.223,-0.452 0.21,-0.407C0.197,-0.362 0.19,-0.307 0.19,-0.243C0.19,-0.178 0.198,-0.123 0.214,-0.078C0.229,-0.032 0.25,0.006 0.276,0.037C0.301,0.067 0.33,0.091 0.362,0.108C0.393,0.125 0.425,0.136 0.457,0.143L0.432,0.212Z" style="fill:rgb(235,0,92);fill-rule:nonzero;"/>
                </g>
                <g transform="matrix(72,0,0,72,387.321,650.831)">
                    <path d="M0.522,-0.54C0.522,-0.523 0.519,-0.506 0.514,-0.489C0.509,-0.472 0.501,-0.456 0.49,-0.441C0.479,-0.426 0.466,-0.412 0.449,-0.401C0.432,-0.39 0.413,-0.381 0.39,-0.375L0.39,-0.371C0.41,-0.368 0.429,-0.362 0.448,-0.354C0.466,-0.346 0.482,-0.335 0.496,-0.321C0.51,-0.307 0.521,-0.29 0.53,-0.27C0.539,-0.25 0.543,-0.226 0.543,-0.199C0.543,-0.163 0.536,-0.132 0.521,-0.106C0.505,-0.079 0.486,-0.058 0.462,-0.041C0.437,-0.024 0.409,-0.012 0.378,-0.004C0.347,0.004 0.315,0.008 0.282,0.008L0.242,0.008C0.227,0.008 0.211,0.008 0.194,0.007C0.177,0.006 0.161,0.004 0.144,0.003C0.127,0.001 0.113,-0.002 0.1,-0.005L0.1,-0.694C0.125,-0.698 0.153,-0.701 0.186,-0.704C0.219,-0.707 0.254,-0.708 0.293,-0.708C0.319,-0.708 0.345,-0.706 0.373,-0.702C0.4,-0.697 0.424,-0.689 0.446,-0.677C0.468,-0.664 0.486,-0.647 0.501,-0.625C0.515,-0.603 0.522,-0.575 0.522,-0.54ZM0.29,-0.064C0.311,-0.064 0.332,-0.067 0.352,-0.072C0.372,-0.077 0.39,-0.085 0.405,-0.096C0.42,-0.107 0.432,-0.12 0.442,-0.136C0.451,-0.152 0.455,-0.171 0.455,-0.193C0.455,-0.22 0.45,-0.242 0.439,-0.259C0.428,-0.276 0.413,-0.289 0.396,-0.298C0.378,-0.307 0.358,-0.314 0.336,-0.317C0.314,-0.32 0.292,-0.322 0.27,-0.322L0.183,-0.322L0.183,-0.071C0.188,-0.07 0.194,-0.069 0.203,-0.068C0.212,-0.067 0.221,-0.067 0.231,-0.066C0.241,-0.065 0.251,-0.065 0.262,-0.065C0.273,-0.064 0.282,-0.064 0.29,-0.064ZM0.235,-0.392C0.246,-0.392 0.26,-0.392 0.276,-0.393C0.292,-0.394 0.305,-0.395 0.316,-0.396C0.332,-0.401 0.347,-0.408 0.361,-0.416C0.375,-0.423 0.388,-0.432 0.399,-0.443C0.41,-0.454 0.418,-0.466 0.425,-0.479C0.431,-0.492 0.434,-0.507 0.434,-0.523C0.434,-0.545 0.43,-0.563 0.422,-0.578C0.413,-0.593 0.402,-0.604 0.388,-0.613C0.374,-0.622 0.358,-0.628 0.34,-0.631C0.322,-0.634 0.304,-0.636 0.285,-0.636C0.263,-0.636 0.243,-0.636 0.225,-0.635C0.206,-0.634 0.192,-0.632 0.183,-0.63L0.183,-0.392L0.235,-0.392Z" style="fill:rgb(235,0,92);fill-rule:nonzero;"/>
                </g>
                <g transform="matrix(72,0,0,72,430.521,650.831)">
                    <path d="M0.105,-0L0.105,-0.067L0.279,-0.067L0.279,-0.433L0.105,-0.433L0.105,-0.5L0.359,-0.5L0.359,-0.067L0.529,-0.067L0.529,-0L0.105,-0ZM0.252,-0.642C0.252,-0.66 0.258,-0.676 0.27,-0.689C0.282,-0.701 0.297,-0.708 0.316,-0.708C0.335,-0.708 0.352,-0.701 0.365,-0.689C0.378,-0.676 0.384,-0.66 0.384,-0.642C0.384,-0.625 0.378,-0.61 0.365,-0.598C0.352,-0.586 0.335,-0.58 0.316,-0.58C0.297,-0.58 0.282,-0.586 0.27,-0.598C0.258,-0.61 0.252,-0.625 0.252,-0.642Z" style="fill:rgb(235,0,92);fill-rule:nonzero;"/>
                </g>
                <g transform="matrix(72,0,0,72,473.721,650.831)">
                    <path d="M0.093,-0.325C0.093,-0.331 0.093,-0.339 0.093,-0.349C0.092,-0.358 0.092,-0.368 0.091,-0.379C0.09,-0.389 0.089,-0.399 0.089,-0.409C0.088,-0.419 0.086,-0.428 0.085,-0.435L0.018,-0.435L0.018,-0.5L0.152,-0.5L0.161,-0.419L0.166,-0.419C0.173,-0.43 0.182,-0.442 0.193,-0.453C0.204,-0.464 0.216,-0.474 0.231,-0.483C0.246,-0.492 0.262,-0.499 0.28,-0.504C0.298,-0.509 0.317,-0.512 0.337,-0.512C0.368,-0.512 0.395,-0.509 0.419,-0.502C0.442,-0.495 0.462,-0.484 0.478,-0.467C0.493,-0.45 0.505,-0.427 0.513,-0.398C0.521,-0.369 0.525,-0.332 0.525,-0.287L0.525,-0L0.447,-0L0.447,-0.272C0.447,-0.327 0.438,-0.369 0.42,-0.397C0.402,-0.425 0.369,-0.439 0.322,-0.439C0.305,-0.439 0.288,-0.436 0.272,-0.429C0.255,-0.422 0.24,-0.412 0.227,-0.401C0.214,-0.39 0.202,-0.377 0.192,-0.362C0.182,-0.347 0.175,-0.331 0.17,-0.314L0.17,-0L0.093,-0L0.093,-0.325Z" style="fill:rgb(235,0,92);fill-rule:nonzero;"/>
                </g>
                <g transform="matrix(72,0,0,72,516.921,650.831)">
                    <path d="M0.108,-0.461C0.137,-0.478 0.169,-0.49 0.205,-0.497C0.241,-0.504 0.276,-0.508 0.311,-0.508C0.345,-0.508 0.373,-0.503 0.395,-0.492C0.416,-0.481 0.433,-0.468 0.446,-0.451C0.458,-0.434 0.466,-0.414 0.471,-0.393C0.475,-0.371 0.477,-0.349 0.477,-0.327C0.477,-0.302 0.476,-0.275 0.475,-0.246C0.474,-0.217 0.473,-0.189 0.472,-0.16C0.472,-0.127 0.474,-0.095 0.478,-0.065L0.545,-0.065L0.545,-0L0.412,-0L0.403,-0.075L0.398,-0.075C0.394,-0.069 0.388,-0.061 0.38,-0.052C0.372,-0.043 0.362,-0.034 0.349,-0.025C0.335,-0.016 0.32,-0.008 0.301,-0.001C0.282,0.006 0.26,0.009 0.235,0.009C0.186,0.009 0.147,-0.004 0.118,-0.029C0.089,-0.054 0.075,-0.089 0.075,-0.133C0.075,-0.167 0.083,-0.195 0.098,-0.218C0.113,-0.241 0.134,-0.258 0.162,-0.27C0.19,-0.282 0.224,-0.289 0.264,-0.291C0.303,-0.293 0.348,-0.29 0.397,-0.283C0.4,-0.314 0.401,-0.339 0.399,-0.36C0.396,-0.38 0.391,-0.396 0.383,-0.408C0.374,-0.42 0.363,-0.428 0.348,-0.434C0.333,-0.439 0.314,-0.441 0.292,-0.441C0.262,-0.441 0.233,-0.437 0.206,-0.429C0.179,-0.42 0.154,-0.412 0.133,-0.403L0.108,-0.461ZM0.255,-0.058C0.274,-0.058 0.291,-0.061 0.307,-0.067C0.323,-0.073 0.337,-0.081 0.349,-0.09C0.361,-0.099 0.371,-0.11 0.379,-0.121C0.387,-0.132 0.393,-0.142 0.397,-0.152L0.397,-0.222C0.362,-0.228 0.33,-0.231 0.301,-0.231C0.272,-0.231 0.246,-0.228 0.225,-0.222C0.204,-0.215 0.187,-0.205 0.175,-0.192C0.163,-0.179 0.157,-0.161 0.157,-0.14C0.157,-0.118 0.165,-0.099 0.18,-0.083C0.195,-0.066 0.22,-0.058 0.255,-0.058Z" style="fill:rgb(235,0,92);fill-rule:nonzero;"/>
                </g>
                <g transform="matrix(72,0,0,72,560.121,650.831)">
                    <path d="M0.066,-0L0.066,-0.067L0.201,-0.067L0.201,-0.433L0.066,-0.433L0.066,-0.5L0.253,-0.5L0.269,-0.435L0.274,-0.435C0.297,-0.456 0.322,-0.473 0.35,-0.488C0.378,-0.503 0.411,-0.51 0.45,-0.51C0.473,-0.51 0.491,-0.506 0.505,-0.497C0.518,-0.488 0.529,-0.476 0.537,-0.459C0.544,-0.442 0.549,-0.422 0.552,-0.399C0.555,-0.375 0.556,-0.348 0.556,-0.318L0.486,-0.317C0.486,-0.36 0.482,-0.391 0.474,-0.411C0.465,-0.431 0.45,-0.441 0.428,-0.441C0.407,-0.441 0.389,-0.438 0.372,-0.432C0.355,-0.426 0.341,-0.419 0.329,-0.41C0.316,-0.401 0.306,-0.393 0.297,-0.384C0.288,-0.375 0.282,-0.368 0.278,-0.362L0.278,-0.067L0.47,-0.067L0.47,-0L0.066,-0Z" style="fill:rgb(235,0,92);fill-rule:nonzero;"/>
                </g>
                <g transform="matrix(72,0,0,72,603.321,650.831)">
                    <path d="M0.311,-0.077L0.349,-0.077L0.473,-0.5L0.554,-0.5L0.415,-0.051C0.408,-0.028 0.4,-0.001 0.393,0.029C0.385,0.058 0.374,0.086 0.36,0.112C0.346,0.138 0.327,0.16 0.303,0.178C0.279,0.196 0.248,0.205 0.209,0.205C0.2,0.205 0.191,0.204 0.182,0.202C0.172,0.2 0.162,0.198 0.153,0.195C0.144,0.192 0.135,0.188 0.127,0.184C0.119,0.18 0.113,0.176 0.109,0.172L0.137,0.1C0.141,0.103 0.147,0.107 0.154,0.11C0.161,0.113 0.168,0.116 0.177,0.119C0.185,0.121 0.193,0.123 0.201,0.125C0.209,0.126 0.216,0.127 0.221,0.127C0.271,0.127 0.305,0.085 0.323,-0L0.256,-0L0.046,-0.5L0.136,-0.5L0.311,-0.077Z" style="fill:rgb(235,0,92);fill-rule:nonzero;"/>
                </g>
                <g transform="matrix(72,0,0,72,689.721,650.831)">
                    <path d="M0.09,-0.7L0.173,-0.7L0.173,-0.074L0.456,-0.074L0.456,-0.248L0.53,-0.248L0.53,-0L0.09,-0L0.09,-0.7Z" style="fill:rgb(235,0,92);fill-rule:nonzero;"/>
                </g>
                <g transform="matrix(72,0,0,72,732.921,650.831)">
                    <path d="M0.108,-0.461C0.137,-0.478 0.169,-0.49 0.205,-0.497C0.241,-0.504 0.276,-0.508 0.311,-0.508C0.345,-0.508 0.373,-0.503 0.395,-0.492C0.416,-0.481 0.433,-0.468 0.446,-0.451C0.458,-0.434 0.466,-0.414 0.471,-0.393C0.475,-0.371 0.477,-0.349 0.477,-0.327C0.477,-0.302 0.476,-0.275 0.475,-0.246C0.474,-0.217 0.473,-0.189 0.472,-0.16C0.472,-0.127 0.474,-0.095 0.478,-0.065L0.545,-0.065L0.545,-0L0.412,-0L0.403,-0.075L0.398,-0.075C0.394,-0.069 0.388,-0.061 0.38,-0.052C0.372,-0.043 0.362,-0.034 0.349,-0.025C0.335,-0.016 0.32,-0.008 0.301,-0.001C0.282,0.006 0.26,0.009 0.235,0.009C0.186,0.009 0.147,-0.004 0.118,-0.029C0.089,-0.054 0.075,-0.089 0.075,-0.133C0.075,-0.167 0.083,-0.195 0.098,-0.218C0.113,-0.241 0.134,-0.258 0.162,-0.27C0.19,-0.282 0.224,-0.289 0.264,-0.291C0.303,-0.293 0.348,-0.29 0.397,-0.283C0.4,-0.314 0.401,-0.339 0.399,-0.36C0.396,-0.38 0.391,-0.396 0.383,-0.408C0.374,-0.42 0.363,-0.428 0.348,-0.434C0.333,-0.439 0.314,-0.441 0.292,-0.441C0.262,-0.441 0.233,-0.437 0.206,-0.429C0.179,-0.42 0.154,-0.412 0.133,-0.403L0.108,-0.461ZM0.255,-0.058C0.274,-0.058 0.291,-0.061 0.307,-0.067C0.323,-0.073 0.337,-0.081 0.349,-0.09C0.361,-0.099 0.371,-0.11 0.379,-0.121C0.387,-0.132 0.393,-0.142 0.397,-0.152L0.397,-0.222C0.362,-0.228 0.33,-0.231 0.301,-0.231C0.272,-0.231 0.246,-0.228 0.225,-0.222C0.204,-0.215 0.187,-0.205 0.175,-0.192C0.163,-0.179 0.157,-0.161 0.157,-0.14C0.157,-0.118 0.165,-0.099 0.18,-0.083C0.195,-0.066 0.22,-0.058 0.255,-0.058Z" style="fill:rgb(235,0,92);fill-rule:nonzero;"/>
                </g>
                <g transform="matrix(72,0,0,72,776.121,650.831)">
                    <path d="M0.066,-0L0.066,-0.067L0.201,-0.067L0.201,-0.433L0.066,-0.433L0.066,-0.5L0.253,-0.5L0.269,-0.435L0.274,-0.435C0.297,-0.456 0.322,-0.473 0.35,-0.488C0.378,-0.503 0.411,-0.51 0.45,-0.51C0.473,-0.51 0.491,-0.506 0.505,-0.497C0.518,-0.488 0.529,-0.476 0.537,-0.459C0.544,-0.442 0.549,-0.422 0.552,-0.399C0.555,-0.375 0.556,-0.348 0.556,-0.318L0.486,-0.317C0.486,-0.36 0.482,-0.391 0.474,-0.411C0.465,-0.431 0.45,-0.441 0.428,-0.441C0.407,-0.441 0.389,-0.438 0.372,-0.432C0.355,-0.426 0.341,-0.419 0.329,-0.41C0.316,-0.401 0.306,-0.393 0.297,-0.384C0.288,-0.375 0.282,-0.368 0.278,-0.362L0.278,-0.067L0.47,-0.067L0.47,-0L0.066,-0Z" style="fill:rgb(235,0,92);fill-rule:nonzero;"/>
                </g>
                <g transform="matrix(72,0,0,72,819.321,650.831)">
                    <path d="M0.524,0.025C0.524,0.056 0.518,0.084 0.506,0.108C0.494,0.131 0.478,0.151 0.457,0.166C0.436,0.181 0.411,0.193 0.383,0.201C0.355,0.208 0.325,0.212 0.292,0.212C0.253,0.212 0.218,0.208 0.189,0.2C0.16,0.192 0.134,0.182 0.113,0.169L0.151,0.098C0.157,0.103 0.165,0.109 0.175,0.114C0.184,0.118 0.195,0.123 0.208,0.128C0.221,0.132 0.234,0.135 0.249,0.138C0.263,0.141 0.277,0.142 0.291,0.142C0.32,0.142 0.345,0.139 0.365,0.134C0.384,0.129 0.4,0.12 0.412,0.109C0.424,0.098 0.433,0.083 0.438,0.065C0.443,0.047 0.446,0.025 0.446,-0.001L0.446,-0.057L0.442,-0.057C0.427,-0.035 0.407,-0.018 0.383,-0.006C0.359,0.006 0.328,0.012 0.29,0.012C0.214,0.012 0.158,-0.009 0.123,-0.052C0.087,-0.094 0.069,-0.16 0.069,-0.249C0.069,-0.334 0.092,-0.399 0.137,-0.443C0.182,-0.486 0.25,-0.508 0.339,-0.508C0.38,-0.508 0.416,-0.505 0.445,-0.5C0.474,-0.494 0.5,-0.487 0.524,-0.478L0.524,0.025ZM0.301,-0.055C0.342,-0.055 0.374,-0.066 0.397,-0.087C0.42,-0.108 0.437,-0.14 0.446,-0.183L0.446,-0.42C0.417,-0.434 0.376,-0.441 0.323,-0.441C0.27,-0.441 0.228,-0.425 0.197,-0.394C0.166,-0.363 0.151,-0.315 0.151,-0.25C0.151,-0.221 0.154,-0.195 0.159,-0.172C0.164,-0.148 0.173,-0.127 0.185,-0.11C0.196,-0.093 0.212,-0.079 0.231,-0.07C0.25,-0.06 0.273,-0.055 0.301,-0.055Z" style="fill:rgb(235,0,92);fill-rule:nonzero;"/>
                </g>
                <g transform="matrix(72,0,0,72,862.521,650.831)">
                    <path d="M0.529,-0.063C0.517,-0.052 0.503,-0.042 0.487,-0.033C0.47,-0.024 0.452,-0.016 0.433,-0.009C0.414,-0.002 0.394,0.003 0.373,0.007C0.352,0.01 0.33,0.012 0.309,0.012C0.269,0.012 0.234,0.006 0.203,-0.007C0.172,-0.019 0.147,-0.037 0.126,-0.06C0.105,-0.083 0.09,-0.11 0.079,-0.142C0.068,-0.174 0.063,-0.21 0.063,-0.25C0.063,-0.292 0.069,-0.329 0.081,-0.362C0.092,-0.395 0.109,-0.422 0.131,-0.444C0.153,-0.466 0.18,-0.483 0.211,-0.495C0.242,-0.506 0.277,-0.512 0.316,-0.512C0.344,-0.512 0.372,-0.508 0.399,-0.501C0.426,-0.494 0.451,-0.48 0.472,-0.46C0.493,-0.439 0.509,-0.411 0.52,-0.376C0.531,-0.34 0.535,-0.294 0.532,-0.237L0.145,-0.237C0.145,-0.177 0.161,-0.132 0.194,-0.103C0.226,-0.073 0.269,-0.058 0.323,-0.058C0.341,-0.058 0.359,-0.06 0.377,-0.065C0.394,-0.069 0.411,-0.074 0.427,-0.08C0.443,-0.086 0.457,-0.093 0.47,-0.1C0.482,-0.107 0.491,-0.114 0.498,-0.12L0.529,-0.063ZM0.318,-0.446C0.296,-0.446 0.275,-0.444 0.256,-0.439C0.236,-0.434 0.219,-0.427 0.204,-0.416C0.189,-0.405 0.176,-0.39 0.167,-0.373C0.157,-0.355 0.151,-0.333 0.148,-0.307L0.459,-0.307C0.456,-0.351 0.442,-0.385 0.417,-0.41C0.392,-0.434 0.359,-0.446 0.318,-0.446Z" style="fill:rgb(235,0,92);fill-rule:nonzero;"/>
                </g>
                <g transform="matrix(72,0,0,72,948.921,650.831)">
                    <path d="M0.048,-0.35C0.048,-0.466 0.069,-0.555 0.11,-0.618C0.151,-0.681 0.214,-0.712 0.299,-0.712C0.346,-0.712 0.385,-0.703 0.418,-0.686C0.45,-0.669 0.476,-0.644 0.496,-0.613C0.516,-0.581 0.53,-0.543 0.539,-0.499C0.548,-0.454 0.552,-0.405 0.552,-0.35C0.552,-0.234 0.532,-0.145 0.491,-0.082C0.45,-0.019 0.386,0.012 0.299,0.012C0.253,0.012 0.214,0.003 0.182,-0.014C0.15,-0.031 0.124,-0.056 0.104,-0.088C0.084,-0.119 0.07,-0.157 0.061,-0.202C0.052,-0.246 0.048,-0.295 0.048,-0.35ZM0.136,-0.35C0.136,-0.311 0.139,-0.275 0.144,-0.24C0.149,-0.205 0.157,-0.175 0.17,-0.149C0.183,-0.122 0.199,-0.101 0.22,-0.086C0.241,-0.07 0.267,-0.062 0.299,-0.062C0.356,-0.062 0.398,-0.085 0.425,-0.132C0.451,-0.179 0.464,-0.251 0.464,-0.35C0.464,-0.388 0.462,-0.425 0.457,-0.46C0.452,-0.495 0.443,-0.525 0.43,-0.552C0.417,-0.578 0.4,-0.599 0.379,-0.615C0.358,-0.63 0.331,-0.638 0.299,-0.638C0.242,-0.638 0.201,-0.615 0.175,-0.568C0.149,-0.521 0.136,-0.448 0.136,-0.35Z" style="fill:rgb(235,0,92);fill-rule:nonzero;"/>
                </g>
                <g transform="matrix(72,0,0,72,992.121,650.831)">
                    <path d="M0.002,-0.7L0.162,-0.7L0.162,-0.443L0.167,-0.443C0.184,-0.465 0.207,-0.482 0.234,-0.494C0.261,-0.506 0.291,-0.512 0.323,-0.512C0.47,-0.512 0.543,-0.427 0.543,-0.258C0.543,-0.172 0.519,-0.106 0.472,-0.061C0.425,-0.015 0.357,0.008 0.27,0.008C0.229,0.008 0.191,0.004 0.158,-0.004C0.125,-0.012 0.1,-0.021 0.085,-0.032L0.085,-0.633L0.002,-0.633L0.002,-0.7ZM0.313,-0.445C0.273,-0.445 0.241,-0.434 0.216,-0.411C0.191,-0.388 0.173,-0.356 0.162,-0.315L0.162,-0.085C0.177,-0.077 0.196,-0.071 0.217,-0.066C0.238,-0.061 0.261,-0.059 0.284,-0.059C0.311,-0.059 0.335,-0.063 0.357,-0.071C0.378,-0.078 0.397,-0.09 0.412,-0.107C0.427,-0.123 0.439,-0.144 0.448,-0.169C0.456,-0.194 0.46,-0.224 0.46,-0.259C0.46,-0.284 0.457,-0.308 0.452,-0.331C0.447,-0.354 0.438,-0.374 0.427,-0.391C0.415,-0.408 0.4,-0.421 0.381,-0.431C0.362,-0.44 0.34,-0.445 0.313,-0.445Z" style="fill:rgb(235,0,92);fill-rule:nonzero;"/>
                </g>
                <g transform="matrix(72,0,0,72,1035.32,650.831)">
                    <path d="M0.336,-0.433L0.094,-0.433L0.094,-0.5L0.416,-0.5L0.416,0.012C0.416,0.079 0.399,0.13 0.365,0.163C0.33,0.196 0.283,0.212 0.222,0.212C0.204,0.212 0.187,0.21 0.17,0.205C0.153,0.2 0.137,0.195 0.122,0.189C0.107,0.182 0.095,0.176 0.084,0.169C0.073,0.162 0.064,0.157 0.059,0.153L0.092,0.088C0.11,0.101 0.131,0.113 0.154,0.123C0.177,0.133 0.2,0.138 0.225,0.138C0.265,0.138 0.294,0.126 0.311,0.101C0.328,0.076 0.336,0.041 0.336,-0.003L0.336,-0.433ZM0.294,-0.642C0.294,-0.66 0.3,-0.676 0.312,-0.689C0.324,-0.701 0.339,-0.708 0.358,-0.708C0.377,-0.708 0.394,-0.701 0.407,-0.689C0.42,-0.676 0.426,-0.66 0.426,-0.642C0.426,-0.625 0.42,-0.61 0.407,-0.598C0.394,-0.586 0.377,-0.58 0.358,-0.58C0.339,-0.58 0.324,-0.586 0.312,-0.598C0.3,-0.61 0.294,-0.625 0.294,-0.642Z" style="fill:rgb(235,0,92);fill-rule:nonzero;"/>
                </g>
                <g transform="matrix(72,0,0,72,1078.52,650.831)">
                    <path d="M0.529,-0.063C0.517,-0.052 0.503,-0.042 0.487,-0.033C0.47,-0.024 0.452,-0.016 0.433,-0.009C0.414,-0.002 0.394,0.003 0.373,0.007C0.352,0.01 0.33,0.012 0.309,0.012C0.269,0.012 0.234,0.006 0.203,-0.007C0.172,-0.019 0.147,-0.037 0.126,-0.06C0.105,-0.083 0.09,-0.11 0.079,-0.142C0.068,-0.174 0.063,-0.21 0.063,-0.25C0.063,-0.292 0.069,-0.329 0.081,-0.362C0.092,-0.395 0.109,-0.422 0.131,-0.444C0.153,-0.466 0.18,-0.483 0.211,-0.495C0.242,-0.506 0.277,-0.512 0.316,-0.512C0.344,-0.512 0.372,-0.508 0.399,-0.501C0.426,-0.494 0.451,-0.48 0.472,-0.46C0.493,-0.439 0.509,-0.411 0.52,-0.376C0.531,-0.34 0.535,-0.294 0.532,-0.237L0.145,-0.237C0.145,-0.177 0.161,-0.132 0.194,-0.103C0.226,-0.073 0.269,-0.058 0.323,-0.058C0.341,-0.058 0.359,-0.06 0.377,-0.065C0.394,-0.069 0.411,-0.074 0.427,-0.08C0.443,-0.086 0.457,-0.093 0.47,-0.1C0.482,-0.107 0.491,-0.114 0.498,-0.12L0.529,-0.063ZM0.318,-0.446C0.296,-0.446 0.275,-0.444 0.256,-0.439C0.236,-0.434 0.219,-0.427 0.204,-0.416C0.189,-0.405 0.176,-0.39 0.167,-0.373C0.157,-0.355 0.151,-0.333 0.148,-0.307L0.459,-0.307C0.456,-0.351 0.442,-0.385 0.417,-0.41C0.392,-0.434 0.359,-0.446 0.318,-0.446Z" style="fill:rgb(235,0,92);fill-rule:nonzero;"/>
                </g>
                <g transform="matrix(72,0,0,72,1121.72,650.831)">
                    <path d="M0.439,-0.423C0.424,-0.428 0.407,-0.433 0.39,-0.437C0.372,-0.44 0.354,-0.442 0.337,-0.442C0.272,-0.442 0.223,-0.427 0.191,-0.396C0.159,-0.365 0.143,-0.317 0.143,-0.25C0.143,-0.221 0.148,-0.195 0.157,-0.172C0.166,-0.149 0.18,-0.129 0.197,-0.113C0.214,-0.097 0.235,-0.085 0.26,-0.076C0.284,-0.067 0.311,-0.063 0.34,-0.063C0.371,-0.063 0.402,-0.068 0.432,-0.079C0.461,-0.09 0.486,-0.104 0.506,-0.121L0.541,-0.063C0.532,-0.055 0.52,-0.047 0.506,-0.038C0.492,-0.029 0.476,-0.021 0.458,-0.014C0.439,-0.006 0.419,0 0.397,0.005C0.374,0.01 0.35,0.012 0.324,0.012C0.281,0.012 0.243,0.006 0.21,-0.007C0.177,-0.019 0.149,-0.037 0.127,-0.06C0.105,-0.083 0.088,-0.11 0.077,-0.143C0.066,-0.175 0.06,-0.211 0.06,-0.25C0.06,-0.292 0.066,-0.329 0.078,-0.362C0.089,-0.395 0.106,-0.422 0.128,-0.444C0.15,-0.466 0.177,-0.483 0.208,-0.495C0.239,-0.506 0.274,-0.512 0.313,-0.512C0.362,-0.512 0.403,-0.508 0.434,-0.499C0.464,-0.49 0.491,-0.481 0.512,-0.47L0.511,-0.467L0.511,-0.328L0.439,-0.328L0.439,-0.423Z" style="fill:rgb(235,0,92);fill-rule:nonzero;"/>
                </g>
                <g transform="matrix(72,0,0,72,1164.92,650.831)">
                    <path d="M0.031,-0.5L0.15,-0.5L0.15,-0.599L0.228,-0.621L0.228,-0.5L0.495,-0.5L0.495,-0.433L0.228,-0.433L0.228,-0.197C0.228,-0.148 0.24,-0.112 0.264,-0.089C0.287,-0.066 0.321,-0.054 0.365,-0.054C0.395,-0.054 0.421,-0.06 0.444,-0.071C0.466,-0.082 0.486,-0.095 0.504,-0.108L0.53,-0.049C0.507,-0.03 0.479,-0.015 0.447,-0.004C0.414,0.007 0.381,0.013 0.347,0.013C0.32,0.013 0.295,0.009 0.272,0.002C0.248,-0.006 0.227,-0.018 0.209,-0.034C0.191,-0.05 0.177,-0.071 0.166,-0.096C0.155,-0.121 0.15,-0.15 0.15,-0.185L0.15,-0.433L0.031,-0.433L0.031,-0.5Z" style="fill:rgb(235,0,92);fill-rule:nonzero;"/>
                </g>
                <g transform="matrix(72,0,0,72,1208.12,650.831)">
                    <path d="M0.143,0.143C0.175,0.136 0.207,0.125 0.239,0.108C0.27,0.091 0.299,0.067 0.325,0.037C0.35,0.006 0.371,-0.032 0.387,-0.078C0.402,-0.123 0.41,-0.178 0.41,-0.243C0.41,-0.307 0.404,-0.362 0.391,-0.407C0.378,-0.452 0.359,-0.489 0.336,-0.52C0.312,-0.55 0.284,-0.574 0.251,-0.593C0.218,-0.611 0.182,-0.626 0.143,-0.637L0.168,-0.7C0.211,-0.691 0.253,-0.675 0.292,-0.653C0.331,-0.63 0.365,-0.6 0.394,-0.564C0.423,-0.527 0.447,-0.482 0.464,-0.429C0.481,-0.376 0.49,-0.314 0.49,-0.243C0.49,-0.172 0.482,-0.11 0.465,-0.058C0.448,-0.006 0.425,0.038 0.396,0.074C0.367,0.11 0.332,0.139 0.294,0.162C0.255,0.184 0.213,0.201 0.168,0.212L0.143,0.143Z" style="fill:rgb(235,0,92);fill-rule:nonzero;"/>
                </g>
            </g>
            <g transform="matrix(1,0,0,1,1380.53,-393.278)">
                <g transform="matrix(76,0,0,76,279.321,650.831)">
                    <path d="M0.108,-0.461C0.137,-0.478 0.169,-0.49 0.205,-0.497C0.241,-0.504 0.276,-0.508 0.311,-0.508C0.345,-0.508 0.373,-0.503 0.395,-0.492C0.416,-0.481 0.433,-0.468 0.446,-0.451C0.458,-0.434 0.466,-0.414 0.471,-0.393C0.475,-0.371 0.477,-0.349 0.477,-0.327C0.477,-0.302 0.476,-0.275 0.475,-0.246C0.474,-0.217 0.473,-0.189 0.472,-0.16C0.472,-0.127 0.474,-0.095 0.478,-0.065L0.545,-0.065L0.545,-0L0.412,-0L0.403,-0.075L0.398,-0.075C0.394,-0.069 0.388,-0.061 0.38,-0.052C0.372,-0.043 0.362,-0.034 0.349,-0.025C0.335,-0.016 0.32,-0.008 0.301,-0.001C0.282,0.006 0.26,0.009 0.235,0.009C0.186,0.009 0.147,-0.004 0.118,-0.029C0.089,-0.054 0.075,-0.089 0.075,-0.133C0.075,-0.167 0.083,-0.195 0.098,-0.218C0.113,-0.241 0.134,-0.258 0.162,-0.27C0.19,-0.282 0.224,-0.289 0.264,-0.291C0.303,-0.293 0.348,-0.29 0.397,-0.283C0.4,-0.314 0.401,-0.339 0.399,-0.36C0.396,-0.38 0.391,-0.396 0.383,-0.408C0.374,-0.42 0.363,-0.428 0.348,-0.434C0.333,-0.439 0.314,-0.441 0.292,-0.441C0.262,-0.441 0.233,-0.437 0.206,-0.429C0.179,-0.42 0.154,-0.412 0.133,-0.403L0.108,-0.461ZM0.255,-0.058C0.274,-0.058 0.291,-0.061 0.307,-0.067C0.323,-0.073 0.337,-0.081 0.349,-0.09C0.361,-0.099 0.371,-0.11 0.379,-0.121C0.387,-0.132 0.393,-0.142 0.397,-0.152L0.397,-0.222C0.362,-0.228 0.33,-0.231 0.301,-0.231C0.272,-0.231 0.246,-0.228 0.225,-0.222C0.204,-0.215 0.187,-0.205 0.175,-0.192C0.163,-0.179 0.157,-0.161 0.157,-0.14C0.157,-0.118 0.165,-0.099 0.18,-0.083C0.195,-0.066 0.22,-0.058 0.255,-0.058Z" style="fill:rgb(235,0,92);fill-rule:nonzero;"/>
                </g>
                <g transform="matrix(76,0,0,76,324.921,650.831)">
                    <path d="M0.066,-0L0.066,-0.067L0.201,-0.067L0.201,-0.433L0.066,-0.433L0.066,-0.5L0.253,-0.5L0.269,-0.435L0.274,-0.435C0.297,-0.456 0.322,-0.473 0.35,-0.488C0.378,-0.503 0.411,-0.51 0.45,-0.51C0.473,-0.51 0.491,-0.506 0.505,-0.497C0.518,-0.488 0.529,-0.476 0.537,-0.459C0.544,-0.442 0.549,-0.422 0.552,-0.399C0.555,-0.375 0.556,-0.348 0.556,-0.318L0.486,-0.317C0.486,-0.36 0.482,-0.391 0.474,-0.411C0.465,-0.431 0.45,-0.441 0.428,-0.441C0.407,-0.441 0.389,-0.438 0.372,-0.432C0.355,-0.426 0.341,-0.419 0.329,-0.41C0.316,-0.401 0.306,-0.393 0.297,-0.384C0.288,-0.375 0.282,-0.368 0.278,-0.362L0.278,-0.067L0.47,-0.067L0.47,-0L0.066,-0Z" style="fill:rgb(235,0,92);fill-rule:nonzero;"/>
                </g>
                <g transform="matrix(76,0,0,76,370.521,650.831)">
                    <path d="M0.066,-0L0.066,-0.067L0.201,-0.067L0.201,-0.433L0.066,-0.433L0.066,-0.5L0.253,-0.5L0.269,-0.435L0.274,-0.435C0.297,-0.456 0.322,-0.473 0.35,-0.488C0.378,-0.503 0.411,-0.51 0.45,-0.51C0.473,-0.51 0.491,-0.506 0.505,-0.497C0.518,-0.488 0.529,-0.476 0.537,-0.459C0.544,-0.442 0.549,-0.422 0.552,-0.399C0.555,-0.375 0.556,-0.348 0.556,-0.318L0.486,-0.317C0.486,-0.36 0.482,-0.391 0.474,-0.411C0.465,-0.431 0.45,-0.441 0.428,-0.441C0.407,-0.441 0.389,-0.438 0.372,-0.432C0.355,-0.426 0.341,-0.419 0.329,-0.41C0.316,-0.401 0.306,-0.393 0.297,-0.384C0.288,-0.375 0.282,-0.368 0.278,-0.362L0.278,-0.067L0.47,-0.067L0.47,-0L0.066,-0Z" style="fill:rgb(235,0,92);fill-rule:nonzero;"/>
                </g>
                <g transform="matrix(76,0,0,76,416.121,650.831)">
                    <path d="M0.108,-0.461C0.137,-0.478 0.169,-0.49 0.205,-0.497C0.241,-0.504 0.276,-0.508 0.311,-0.508C0.345,-0.508 0.373,-0.503 0.395,-0.492C0.416,-0.481 0.433,-0.468 0.446,-0.451C0.458,-0.434 0.466,-0.414 0.471,-0.393C0.475,-0.371 0.477,-0.349 0.477,-0.327C0.477,-0.302 0.476,-0.275 0.475,-0.246C0.474,-0.217 0.473,-0.189 0.472,-0.16C0.472,-0.127 0.474,-0.095 0.478,-0.065L0.545,-0.065L0.545,-0L0.412,-0L0.403,-0.075L0.398,-0.075C0.394,-0.069 0.388,-0.061 0.38,-0.052C0.372,-0.043 0.362,-0.034 0.349,-0.025C0.335,-0.016 0.32,-0.008 0.301,-0.001C0.282,0.006 0.26,0.009 0.235,0.009C0.186,0.009 0.147,-0.004 0.118,-0.029C0.089,-0.054 0.075,-0.089 0.075,-0.133C0.075,-0.167 0.083,-0.195 0.098,-0.218C0.113,-0.241 0.134,-0.258 0.162,-0.27C0.19,-0.282 0.224,-0.289 0.264,-0.291C0.303,-0.293 0.348,-0.29 0.397,-0.283C0.4,-0.314 0.401,-0.339 0.399,-0.36C0.396,-0.38 0.391,-0.396 0.383,-0.408C0.374,-0.42 0.363,-0.428 0.348,-0.434C0.333,-0.439 0.314,-0.441 0.292,-0.441C0.262,-0.441 0.233,-0.437 0.206,-0.429C0.179,-0.42 0.154,-0.412 0.133,-0.403L0.108,-0.461ZM0.255,-0.058C0.274,-0.058 0.291,-0.061 0.307,-0.067C0.323,-0.073 0.337,-0.081 0.349,-0.09C0.361,-0.099 0.371,-0.11 0.379,-0.121C0.387,-0.132 0.393,-0.142 0.397,-0.152L0.397,-0.222C0.362,-0.228 0.33,-0.231 0.301,-0.231C0.272,-0.231 0.246,-0.228 0.225,-0.222C0.204,-0.215 0.187,-0.205 0.175,-0.192C0.163,-0.179 0.157,-0.161 0.157,-0.14C0.157,-0.118 0.165,-0.099 0.18,-0.083C0.195,-0.066 0.22,-0.058 0.255,-0.058Z" style="fill:rgb(235,0,92);fill-rule:nonzero;"/>
                </g>
                <g transform="matrix(76,0,0,76,461.721,650.831)">
                    <path d="M0.311,-0.077L0.349,-0.077L0.473,-0.5L0.554,-0.5L0.415,-0.051C0.408,-0.028 0.4,-0.001 0.393,0.029C0.385,0.058 0.374,0.086 0.36,0.112C0.346,0.138 0.327,0.16 0.303,0.178C0.279,0.196 0.248,0.205 0.209,0.205C0.2,0.205 0.191,0.204 0.182,0.202C0.172,0.2 0.162,0.198 0.153,0.195C0.144,0.192 0.135,0.188 0.127,0.184C0.119,0.18 0.113,0.176 0.109,0.172L0.137,0.1C0.141,0.103 0.147,0.107 0.154,0.11C0.161,0.113 0.168,0.116 0.177,0.119C0.185,0.121 0.193,0.123 0.201,0.125C0.209,0.126 0.216,0.127 0.221,0.127C0.271,0.127 0.305,0.085 0.323,-0L0.256,-0L0.046,-0.5L0.136,-0.5L0.311,-0.077Z" style="fill:rgb(235,0,92);fill-rule:nonzero;"/>
                </g>
                <g transform="matrix(76,0,0,76,507.321,650.831)">
                    <path d="M0.432,0.212C0.387,0.201 0.345,0.184 0.307,0.162C0.268,0.139 0.234,0.11 0.205,0.074C0.175,0.038 0.153,-0.006 0.136,-0.058C0.119,-0.11 0.11,-0.172 0.11,-0.243C0.11,-0.314 0.119,-0.376 0.136,-0.429C0.153,-0.482 0.177,-0.527 0.206,-0.564C0.235,-0.6 0.27,-0.63 0.309,-0.653C0.347,-0.675 0.389,-0.691 0.432,-0.7L0.457,-0.637C0.418,-0.626 0.382,-0.611 0.349,-0.593C0.316,-0.574 0.288,-0.55 0.265,-0.52C0.241,-0.489 0.223,-0.452 0.21,-0.407C0.197,-0.362 0.19,-0.307 0.19,-0.243C0.19,-0.178 0.198,-0.123 0.214,-0.078C0.229,-0.032 0.25,0.006 0.276,0.037C0.301,0.067 0.33,0.091 0.362,0.108C0.393,0.125 0.425,0.136 0.457,0.143L0.432,0.212Z" style="fill:rgb(235,0,92);fill-rule:nonzero;"/>
                </g>
                <g transform="matrix(76,0,0,76,552.921,650.831)">
                    <path d="M0.149,-0.7L0.49,-0.7L0.49,-0.63L0.227,-0.63L0.227,0.16L0.49,0.16L0.49,0.23L0.149,0.23L0.149,-0.7Z" style="fill:rgb(235,0,92);fill-rule:nonzero;"/>
                </g>
                <g transform="matrix(76,0,0,76,598.521,650.831)">
                    <path d="M0.066,-0L0.066,-0.067L0.201,-0.067L0.201,-0.433L0.066,-0.433L0.066,-0.5L0.253,-0.5L0.269,-0.435L0.274,-0.435C0.297,-0.456 0.322,-0.473 0.35,-0.488C0.378,-0.503 0.411,-0.51 0.45,-0.51C0.473,-0.51 0.491,-0.506 0.505,-0.497C0.518,-0.488 0.529,-0.476 0.537,-0.459C0.544,-0.442 0.549,-0.422 0.552,-0.399C0.555,-0.375 0.556,-0.348 0.556,-0.318L0.486,-0.317C0.486,-0.36 0.482,-0.391 0.474,-0.411C0.465,-0.431 0.45,-0.441 0.428,-0.441C0.407,-0.441 0.389,-0.438 0.372,-0.432C0.355,-0.426 0.341,-0.419 0.329,-0.41C0.316,-0.401 0.306,-0.393 0.297,-0.384C0.288,-0.375 0.282,-0.368 0.278,-0.362L0.278,-0.067L0.47,-0.067L0.47,-0L0.066,-0Z" style="fill:rgb(235,0,92);fill-rule:nonzero;"/>
                </g>
                <g transform="matrix(76,0,0,76,644.121,650.831)">
                    <path d="M0.529,-0.063C0.517,-0.052 0.503,-0.042 0.487,-0.033C0.47,-0.024 0.452,-0.016 0.433,-0.009C0.414,-0.002 0.394,0.003 0.373,0.007C0.352,0.01 0.33,0.012 0.309,0.012C0.269,0.012 0.234,0.006 0.203,-0.007C0.172,-0.019 0.147,-0.037 0.126,-0.06C0.105,-0.083 0.09,-0.11 0.079,-0.142C0.068,-0.174 0.063,-0.21 0.063,-0.25C0.063,-0.292 0.069,-0.329 0.081,-0.362C0.092,-0.395 0.109,-0.422 0.131,-0.444C0.153,-0.466 0.18,-0.483 0.211,-0.495C0.242,-0.506 0.277,-0.512 0.316,-0.512C0.344,-0.512 0.372,-0.508 0.399,-0.501C0.426,-0.494 0.451,-0.48 0.472,-0.46C0.493,-0.439 0.509,-0.411 0.52,-0.376C0.531,-0.34 0.535,-0.294 0.532,-0.237L0.145,-0.237C0.145,-0.177 0.161,-0.132 0.194,-0.103C0.226,-0.073 0.269,-0.058 0.323,-0.058C0.341,-0.058 0.359,-0.06 0.377,-0.065C0.394,-0.069 0.411,-0.074 0.427,-0.08C0.443,-0.086 0.457,-0.093 0.47,-0.1C0.482,-0.107 0.491,-0.114 0.498,-0.12L0.529,-0.063ZM0.318,-0.446C0.296,-0.446 0.275,-0.444 0.256,-0.439C0.236,-0.434 0.219,-0.427 0.204,-0.416C0.189,-0.405 0.176,-0.39 0.167,-0.373C0.157,-0.355 0.151,-0.333 0.148,-0.307L0.459,-0.307C0.456,-0.351 0.442,-0.385 0.417,-0.41C0.392,-0.434 0.359,-0.446 0.318,-0.446Z" style="fill:rgb(235,0,92);fill-rule:nonzero;"/>
                </g>
                <g transform="matrix(76,0,0,76,689.721,650.831)">
                    <path d="M0.108,-0.461C0.137,-0.478 0.169,-0.49 0.205,-0.497C0.241,-0.504 0.276,-0.508 0.311,-0.508C0.345,-0.508 0.373,-0.503 0.395,-0.492C0.416,-0.481 0.433,-0.468 0.446,-0.451C0.458,-0.434 0.466,-0.414 0.471,-0.393C0.475,-0.371 0.477,-0.349 0.477,-0.327C0.477,-0.302 0.476,-0.275 0.475,-0.246C0.474,-0.217 0.473,-0.189 0.472,-0.16C0.472,-0.127 0.474,-0.095 0.478,-0.065L0.545,-0.065L0.545,-0L0.412,-0L0.403,-0.075L0.398,-0.075C0.394,-0.069 0.388,-0.061 0.38,-0.052C0.372,-0.043 0.362,-0.034 0.349,-0.025C0.335,-0.016 0.32,-0.008 0.301,-0.001C0.282,0.006 0.26,0.009 0.235,0.009C0.186,0.009 0.147,-0.004 0.118,-0.029C0.089,-0.054 0.075,-0.089 0.075,-0.133C0.075,-0.167 0.083,-0.195 0.098,-0.218C0.113,-0.241 0.134,-0.258 0.162,-0.27C0.19,-0.282 0.224,-0.289 0.264,-0.291C0.303,-0.293 0.348,-0.29 0.397,-0.283C0.4,-0.314 0.401,-0.339 0.399,-0.36C0.396,-0.38 0.391,-0.396 0.383,-0.408C0.374,-0.42 0.363,-0.428 0.348,-0.434C0.333,-0.439 0.314,-0.441 0.292,-0.441C0.262,-0.441 0.233,-0.437 0.206,-0.429C0.179,-0.42 0.154,-0.412 0.133,-0.403L0.108,-0.461ZM0.255,-0.058C0.274,-0.058 0.291,-0.061 0.307,-0.067C0.323,-0.073 0.337,-0.081 0.349,-0.09C0.361,-0.099 0.371,-0.11 0.379,-0.121C0.387,-0.132 0.393,-0.142 0.397,-0.152L0.397,-0.222C0.362,-0.228 0.33,-0.231 0.301,-0.231C0.272,-0.231 0.246,-0.228 0.225,-0.222C0.204,-0.215 0.187,-0.205 0.175,-0.192C0.163,-0.179 0.157,-0.161 0.157,-0.14C0.157,-0.118 0.165,-0.099 0.18,-0.083C0.195,-0.066 0.22,-0.058 0.255,-0.058Z" style="fill:rgb(235,0,92);fill-rule:nonzero;"/>
                </g>
                <g transform="matrix(76,0,0,76,735.321,650.831)">
                    <path d="M0.119,-0.7L0.285,-0.7L0.285,-0.168C0.285,-0.127 0.292,-0.099 0.306,-0.082C0.319,-0.065 0.339,-0.057 0.366,-0.057C0.385,-0.057 0.403,-0.06 0.42,-0.067C0.436,-0.074 0.455,-0.085 0.476,-0.101L0.512,-0.046C0.501,-0.037 0.49,-0.028 0.477,-0.021C0.464,-0.014 0.451,-0.008 0.438,-0.003C0.425,0.003 0.411,0.006 0.398,0.009C0.385,0.012 0.372,0.013 0.361,0.013C0.336,0.013 0.314,0.01 0.295,0.004C0.276,-0.003 0.26,-0.013 0.247,-0.027C0.234,-0.041 0.224,-0.059 0.217,-0.083C0.21,-0.106 0.207,-0.134 0.207,-0.168L0.207,-0.633L0.119,-0.633L0.119,-0.7Z" style="fill:rgb(235,0,92);fill-rule:nonzero;"/>
                </g>
                <g transform="matrix(76,0,0,76,780.921,650.831)">
                    <path d="M0.229,-0.055C0.229,-0.075 0.236,-0.091 0.249,-0.104C0.262,-0.116 0.278,-0.122 0.299,-0.122C0.324,-0.122 0.344,-0.113 0.358,-0.096C0.372,-0.078 0.379,-0.053 0.379,-0.021C0.379,0.005 0.375,0.028 0.366,0.048C0.357,0.067 0.346,0.084 0.334,0.098C0.321,0.111 0.307,0.122 0.292,0.131C0.277,0.139 0.263,0.145 0.25,0.149L0.225,0.11C0.249,0.101 0.27,0.087 0.287,0.07C0.304,0.053 0.313,0.032 0.313,0.007C0.304,0.009 0.296,0.01 0.291,0.01C0.272,0.01 0.257,0.005 0.246,-0.007C0.235,-0.017 0.229,-0.034 0.229,-0.055Z" style="fill:rgb(235,0,92);fill-rule:nonzero;"/>
                </g>
                <g transform="matrix(76,0,0,76,872.121,650.831)">
                    <path d="M0.233,-0.055C0.233,-0.076 0.239,-0.093 0.251,-0.105C0.263,-0.116 0.279,-0.122 0.299,-0.122C0.32,-0.122 0.337,-0.116 0.349,-0.105C0.361,-0.093 0.367,-0.076 0.367,-0.055C0.367,-0.036 0.361,-0.02 0.349,-0.007C0.337,0.006 0.32,0.012 0.299,0.012C0.279,0.012 0.263,0.006 0.251,-0.007C0.239,-0.02 0.233,-0.036 0.233,-0.055Z" style="fill:rgb(235,0,92);fill-rule:nonzero;"/>
                </g>
                <g transform="matrix(76,0,0,76,917.721,650.831)">
                    <path d="M0.233,-0.055C0.233,-0.076 0.239,-0.093 0.251,-0.105C0.263,-0.116 0.279,-0.122 0.299,-0.122C0.32,-0.122 0.337,-0.116 0.349,-0.105C0.361,-0.093 0.367,-0.076 0.367,-0.055C0.367,-0.036 0.361,-0.02 0.349,-0.007C0.337,0.006 0.32,0.012 0.299,0.012C0.279,0.012 0.263,0.006 0.251,-0.007C0.239,-0.02 0.233,-0.036 0.233,-0.055Z" style="fill:rgb(235,0,92);fill-rule:nonzero;"/>
                </g>
                <g transform="matrix(76,0,0,76,963.321,650.831)">
                    <path d="M0.233,-0.055C0.233,-0.076 0.239,-0.093 0.251,-0.105C0.263,-0.116 0.279,-0.122 0.299,-0.122C0.32,-0.122 0.337,-0.116 0.349,-0.105C0.361,-0.093 0.367,-0.076 0.367,-0.055C0.367,-0.036 0.361,-0.02 0.349,-0.007C0.337,0.006 0.32,0.012 0.299,0.012C0.279,0.012 0.263,0.006 0.251,-0.007C0.239,-0.02 0.233,-0.036 0.233,-0.055Z" style="fill:rgb(235,0,92);fill-rule:nonzero;"/>
                </g>
                <g transform="matrix(76,0,0,76,1008.92,650.831)">
                    <path d="M0.451,0.23L0.109,0.23L0.109,0.16L0.373,0.16L0.373,-0.63L0.109,-0.63L0.109,-0.7L0.451,-0.7L0.451,0.23Z" style="fill:rgb(235,0,92);fill-rule:nonzero;"/>
                </g>
                <g transform="matrix(76,0,0,76,1054.52,650.831)">
                    <path d="M0.143,0.143C0.175,0.136 0.207,0.125 0.239,0.108C0.27,0.091 0.299,0.067 0.325,0.037C0.35,0.006 0.371,-0.032 0.387,-0.078C0.402,-0.123 0.41,-0.178 0.41,-0.243C0.41,-0.307 0.404,-0.362 0.391,-0.407C0.378,-0.452 0.359,-0.489 0.336,-0.52C0.312,-0.55 0.284,-0.574 0.251,-0.593C0.218,-0.611 0.182,-0.626 0.143,-0.637L0.168,-0.7C0.211,-0.691 0.253,-0.675 0.292,-0.653C0.331,-0.63 0.365,-0.6 0.394,-0.564C0.423,-0.527 0.447,-0.482 0.464,-0.429C0.481,-0.376 0.49,-0.314 0.49,-0.243C0.49,-0.172 0.482,-0.11 0.465,-0.058C0.448,-0.006 0.425,0.038 0.396,0.074C0.367,0.11 0.332,0.139 0.294,0.162C0.255,0.184 0.213,0.201 0.168,0.212L0.143,0.143Z" style="fill:rgb(235,0,92);fill-rule:nonzero;"/>
                </g>
            </g>
            <g transform="matrix(1,0,0,1,1454.51,-92.1194)">
                <g transform="matrix(60,0,0,60,113.721,650.831)">
                    <path d="M0.08,-0.7C0.105,-0.703 0.132,-0.705 0.16,-0.707C0.187,-0.708 0.211,-0.708 0.23,-0.708C0.291,-0.708 0.341,-0.699 0.383,-0.682C0.424,-0.665 0.456,-0.641 0.482,-0.61C0.507,-0.579 0.525,-0.541 0.536,-0.498C0.547,-0.455 0.552,-0.407 0.552,-0.355C0.552,-0.308 0.547,-0.262 0.537,-0.219C0.527,-0.175 0.51,-0.136 0.485,-0.103C0.46,-0.069 0.427,-0.042 0.386,-0.022C0.344,-0.001 0.292,0.009 0.229,0.009C0.22,0.009 0.209,0.009 0.195,0.009C0.181,0.008 0.167,0.008 0.152,0.007C0.137,0.006 0.123,0.005 0.11,0.004C0.097,0.003 0.087,0.002 0.08,0.001L0.08,-0.7ZM0.234,-0.634C0.225,-0.634 0.213,-0.634 0.199,-0.633C0.184,-0.632 0.172,-0.631 0.163,-0.629L0.163,-0.069C0.166,-0.068 0.171,-0.068 0.178,-0.068L0.217,-0.066C0.223,-0.065 0.228,-0.065 0.232,-0.065C0.281,-0.065 0.32,-0.073 0.351,-0.089C0.381,-0.105 0.404,-0.127 0.421,-0.154C0.438,-0.181 0.449,-0.212 0.455,-0.247C0.461,-0.282 0.464,-0.318 0.464,-0.355C0.464,-0.388 0.461,-0.421 0.456,-0.454C0.451,-0.487 0.44,-0.516 0.424,-0.543C0.407,-0.57 0.384,-0.592 0.354,-0.609C0.323,-0.626 0.283,-0.634 0.234,-0.634Z" style="fill:rgb(235,0,92);fill-rule:nonzero;"/>
                </g>
                <g transform="matrix(60,0,0,60,149.721,650.831)">
                    <path d="M0.108,-0.461C0.137,-0.478 0.169,-0.49 0.205,-0.497C0.241,-0.504 0.276,-0.508 0.311,-0.508C0.345,-0.508 0.373,-0.503 0.395,-0.492C0.416,-0.481 0.433,-0.468 0.446,-0.451C0.458,-0.434 0.466,-0.414 0.471,-0.393C0.475,-0.371 0.477,-0.349 0.477,-0.327C0.477,-0.302 0.476,-0.275 0.475,-0.246C0.474,-0.217 0.473,-0.189 0.472,-0.16C0.472,-0.127 0.474,-0.095 0.478,-0.065L0.545,-0.065L0.545,-0L0.412,-0L0.403,-0.075L0.398,-0.075C0.394,-0.069 0.388,-0.061 0.38,-0.052C0.372,-0.043 0.362,-0.034 0.349,-0.025C0.335,-0.016 0.32,-0.008 0.301,-0.001C0.282,0.006 0.26,0.009 0.235,0.009C0.186,0.009 0.147,-0.004 0.118,-0.029C0.089,-0.054 0.075,-0.089 0.075,-0.133C0.075,-0.167 0.083,-0.195 0.098,-0.218C0.113,-0.241 0.134,-0.258 0.162,-0.27C0.19,-0.282 0.224,-0.289 0.264,-0.291C0.303,-0.293 0.348,-0.29 0.397,-0.283C0.4,-0.314 0.401,-0.339 0.399,-0.36C0.396,-0.38 0.391,-0.396 0.383,-0.408C0.374,-0.42 0.363,-0.428 0.348,-0.434C0.333,-0.439 0.314,-0.441 0.292,-0.441C0.262,-0.441 0.233,-0.437 0.206,-0.429C0.179,-0.42 0.154,-0.412 0.133,-0.403L0.108,-0.461ZM0.255,-0.058C0.274,-0.058 0.291,-0.061 0.307,-0.067C0.323,-0.073 0.337,-0.081 0.349,-0.09C0.361,-0.099 0.371,-0.11 0.379,-0.121C0.387,-0.132 0.393,-0.142 0.397,-0.152L0.397,-0.222C0.362,-0.228 0.33,-0.231 0.301,-0.231C0.272,-0.231 0.246,-0.228 0.225,-0.222C0.204,-0.215 0.187,-0.205 0.175,-0.192C0.163,-0.179 0.157,-0.161 0.157,-0.14C0.157,-0.118 0.165,-0.099 0.18,-0.083C0.195,-0.066 0.22,-0.058 0.255,-0.058Z" style="fill:rgb(235,0,92);fill-rule:nonzero;"/>
                </g>
                <g transform="matrix(60,0,0,60,185.721,650.831)">
                    <path d="M0.031,-0.5L0.15,-0.5L0.15,-0.599L0.228,-0.621L0.228,-0.5L0.495,-0.5L0.495,-0.433L0.228,-0.433L0.228,-0.197C0.228,-0.148 0.24,-0.112 0.264,-0.089C0.287,-0.066 0.321,-0.054 0.365,-0.054C0.395,-0.054 0.421,-0.06 0.444,-0.071C0.466,-0.082 0.486,-0.095 0.504,-0.108L0.53,-0.049C0.507,-0.03 0.479,-0.015 0.447,-0.004C0.414,0.007 0.381,0.013 0.347,0.013C0.32,0.013 0.295,0.009 0.272,0.002C0.248,-0.006 0.227,-0.018 0.209,-0.034C0.191,-0.05 0.177,-0.071 0.166,-0.096C0.155,-0.121 0.15,-0.15 0.15,-0.185L0.15,-0.433L0.031,-0.433L0.031,-0.5Z" style="fill:rgb(235,0,92);fill-rule:nonzero;"/>
                </g>
                <g transform="matrix(60,0,0,60,221.721,650.831)">
                    <path d="M0.529,-0.063C0.517,-0.052 0.503,-0.042 0.487,-0.033C0.47,-0.024 0.452,-0.016 0.433,-0.009C0.414,-0.002 0.394,0.003 0.373,0.007C0.352,0.01 0.33,0.012 0.309,0.012C0.269,0.012 0.234,0.006 0.203,-0.007C0.172,-0.019 0.147,-0.037 0.126,-0.06C0.105,-0.083 0.09,-0.11 0.079,-0.142C0.068,-0.174 0.063,-0.21 0.063,-0.25C0.063,-0.292 0.069,-0.329 0.081,-0.362C0.092,-0.395 0.109,-0.422 0.131,-0.444C0.153,-0.466 0.18,-0.483 0.211,-0.495C0.242,-0.506 0.277,-0.512 0.316,-0.512C0.344,-0.512 0.372,-0.508 0.399,-0.501C0.426,-0.494 0.451,-0.48 0.472,-0.46C0.493,-0.439 0.509,-0.411 0.52,-0.376C0.531,-0.34 0.535,-0.294 0.532,-0.237L0.145,-0.237C0.145,-0.177 0.161,-0.132 0.194,-0.103C0.226,-0.073 0.269,-0.058 0.323,-0.058C0.341,-0.058 0.359,-0.06 0.377,-0.065C0.394,-0.069 0.411,-0.074 0.427,-0.08C0.443,-0.086 0.457,-0.093 0.47,-0.1C0.482,-0.107 0.491,-0.114 0.498,-0.12L0.529,-0.063ZM0.318,-0.446C0.296,-0.446 0.275,-0.444 0.256,-0.439C0.236,-0.434 0.219,-0.427 0.204,-0.416C0.189,-0.405 0.176,-0.39 0.167,-0.373C0.157,-0.355 0.151,-0.333 0.148,-0.307L0.459,-0.307C0.456,-0.351 0.442,-0.385 0.417,-0.41C0.392,-0.434 0.359,-0.446 0.318,-0.446Z" style="fill:rgb(235,0,92);fill-rule:nonzero;"/>
                </g>
                <g transform="matrix(60,0,0,60,257.721,650.831)">
                    <path d="M0.031,-0.5L0.15,-0.5L0.15,-0.599L0.228,-0.621L0.228,-0.5L0.495,-0.5L0.495,-0.433L0.228,-0.433L0.228,-0.197C0.228,-0.148 0.24,-0.112 0.264,-0.089C0.287,-0.066 0.321,-0.054 0.365,-0.054C0.395,-0.054 0.421,-0.06 0.444,-0.071C0.466,-0.082 0.486,-0.095 0.504,-0.108L0.53,-0.049C0.507,-0.03 0.479,-0.015 0.447,-0.004C0.414,0.007 0.381,0.013 0.347,0.013C0.32,0.013 0.295,0.009 0.272,0.002C0.248,-0.006 0.227,-0.018 0.209,-0.034C0.191,-0.05 0.177,-0.071 0.166,-0.096C0.155,-0.121 0.15,-0.15 0.15,-0.185L0.15,-0.433L0.031,-0.433L0.031,-0.5Z" style="fill:rgb(235,0,92);fill-rule:nonzero;"/>
                </g>
                <g transform="matrix(60,0,0,60,293.721,650.831)">
                    <path d="M0.105,-0L0.105,-0.067L0.279,-0.067L0.279,-0.433L0.105,-0.433L0.105,-0.5L0.359,-0.5L0.359,-0.067L0.529,-0.067L0.529,-0L0.105,-0ZM0.252,-0.642C0.252,-0.66 0.258,-0.676 0.27,-0.689C0.282,-0.701 0.297,-0.708 0.316,-0.708C0.335,-0.708 0.352,-0.701 0.365,-0.689C0.378,-0.676 0.384,-0.66 0.384,-0.642C0.384,-0.625 0.378,-0.61 0.365,-0.598C0.352,-0.586 0.335,-0.58 0.316,-0.58C0.297,-0.58 0.282,-0.586 0.27,-0.598C0.258,-0.61 0.252,-0.625 0.252,-0.642Z" style="fill:rgb(235,0,92);fill-rule:nonzero;"/>
                </g>
                <g transform="matrix(60,0,0,60,329.721,650.831)">
                    <path d="M0.262,-0L0.262,-0.333C0.262,-0.347 0.262,-0.361 0.261,-0.374C0.26,-0.387 0.257,-0.398 0.254,-0.409C0.25,-0.419 0.245,-0.427 0.238,-0.433C0.231,-0.439 0.221,-0.442 0.21,-0.442C0.187,-0.442 0.168,-0.433 0.153,-0.414C0.137,-0.395 0.125,-0.372 0.117,-0.344L0.117,-0L0.041,-0L0.041,-0.5L0.093,-0.5L0.108,-0.439L0.112,-0.439C0.119,-0.449 0.125,-0.459 0.132,-0.468C0.138,-0.476 0.145,-0.484 0.154,-0.491C0.162,-0.498 0.172,-0.503 0.183,-0.507C0.194,-0.51 0.209,-0.512 0.226,-0.512C0.236,-0.512 0.246,-0.511 0.257,-0.508C0.268,-0.505 0.278,-0.5 0.287,-0.494C0.296,-0.487 0.303,-0.479 0.31,-0.468C0.317,-0.457 0.321,-0.444 0.323,-0.429C0.338,-0.455 0.356,-0.475 0.375,-0.49C0.394,-0.505 0.42,-0.512 0.453,-0.512C0.475,-0.512 0.493,-0.508 0.507,-0.501C0.52,-0.494 0.531,-0.483 0.539,-0.47C0.546,-0.456 0.552,-0.44 0.555,-0.421C0.558,-0.401 0.559,-0.38 0.559,-0.357L0.559,-0L0.483,-0L0.483,-0.34C0.483,-0.354 0.482,-0.367 0.481,-0.38C0.48,-0.392 0.477,-0.403 0.474,-0.412C0.47,-0.421 0.465,-0.429 0.459,-0.434C0.452,-0.439 0.444,-0.442 0.433,-0.442C0.41,-0.442 0.39,-0.433 0.374,-0.414C0.358,-0.395 0.346,-0.369 0.338,-0.334L0.338,-0L0.262,-0Z" style="fill:rgb(235,0,92);fill-rule:nonzero;"/>
                </g>
                <g transform="matrix(60,0,0,60,365.721,650.831)">
                    <path d="M0.529,-0.063C0.517,-0.052 0.503,-0.042 0.487,-0.033C0.47,-0.024 0.452,-0.016 0.433,-0.009C0.414,-0.002 0.394,0.003 0.373,0.007C0.352,0.01 0.33,0.012 0.309,0.012C0.269,0.012 0.234,0.006 0.203,-0.007C0.172,-0.019 0.147,-0.037 0.126,-0.06C0.105,-0.083 0.09,-0.11 0.079,-0.142C0.068,-0.174 0.063,-0.21 0.063,-0.25C0.063,-0.292 0.069,-0.329 0.081,-0.362C0.092,-0.395 0.109,-0.422 0.131,-0.444C0.153,-0.466 0.18,-0.483 0.211,-0.495C0.242,-0.506 0.277,-0.512 0.316,-0.512C0.344,-0.512 0.372,-0.508 0.399,-0.501C0.426,-0.494 0.451,-0.48 0.472,-0.46C0.493,-0.439 0.509,-0.411 0.52,-0.376C0.531,-0.34 0.535,-0.294 0.532,-0.237L0.145,-0.237C0.145,-0.177 0.161,-0.132 0.194,-0.103C0.226,-0.073 0.269,-0.058 0.323,-0.058C0.341,-0.058 0.359,-0.06 0.377,-0.065C0.394,-0.069 0.411,-0.074 0.427,-0.08C0.443,-0.086 0.457,-0.093 0.47,-0.1C0.482,-0.107 0.491,-0.114 0.498,-0.12L0.529,-0.063ZM0.318,-0.446C0.296,-0.446 0.275,-0.444 0.256,-0.439C0.236,-0.434 0.219,-0.427 0.204,-0.416C0.189,-0.405 0.176,-0.39 0.167,-0.373C0.157,-0.355 0.151,-0.333 0.148,-0.307L0.459,-0.307C0.456,-0.351 0.442,-0.385 0.417,-0.41C0.392,-0.434 0.359,-0.446 0.318,-0.446Z" style="fill:rgb(235,0,92);fill-rule:nonzero;"/>
                </g>
                <g transform="matrix(60,0,0,60,401.721,650.831)">
                    <path d="M0.432,0.212C0.387,0.201 0.345,0.184 0.307,0.162C0.268,0.139 0.234,0.11 0.205,0.074C0.175,0.038 0.153,-0.006 0.136,-0.058C0.119,-0.11 0.11,-0.172 0.11,-0.243C0.11,-0.314 0.119,-0.376 0.136,-0.429C0.153,-0.482 0.177,-0.527 0.206,-0.564C0.235,-0.6 0.27,-0.63 0.309,-0.653C0.347,-0.675 0.389,-0.691 0.432,-0.7L0.457,-0.637C0.418,-0.626 0.382,-0.611 0.349,-0.593C0.316,-0.574 0.288,-0.55 0.265,-0.52C0.241,-0.489 0.223,-0.452 0.21,-0.407C0.197,-0.362 0.19,-0.307 0.19,-0.243C0.19,-0.178 0.198,-0.123 0.214,-0.078C0.229,-0.032 0.25,0.006 0.276,0.037C0.301,0.067 0.33,0.091 0.362,0.108C0.393,0.125 0.425,0.136 0.457,0.143L0.432,0.212Z" style="fill:rgb(235,0,92);fill-rule:nonzero;"/>
                </g>
                <g transform="matrix(60,0,0,60,437.721,650.831)">
                    <path d="M0.261,-0.7L0.349,-0.7L0.318,-0.397L0.261,-0.397L0.261,-0.7Z" style="fill:rgb(235,0,92);fill-rule:nonzero;"/>
                </g>
                <g transform="matrix(60,0,0,60,473.721,650.831)">
                    <path d="M0.5,-0.523C0.5,-0.462 0.471,-0.393 0.413,-0.318C0.355,-0.243 0.274,-0.161 0.17,-0.072L0.522,-0.072L0.522,-0L0.078,-0L0.078,-0.072C0.091,-0.084 0.108,-0.1 0.13,-0.119C0.152,-0.138 0.176,-0.16 0.201,-0.184C0.226,-0.207 0.252,-0.233 0.279,-0.26C0.305,-0.287 0.329,-0.315 0.35,-0.344C0.371,-0.373 0.389,-0.401 0.402,-0.43C0.415,-0.459 0.422,-0.486 0.422,-0.513C0.422,-0.553 0.411,-0.585 0.391,-0.608C0.37,-0.631 0.338,-0.642 0.296,-0.642C0.26,-0.642 0.23,-0.638 0.205,-0.63C0.18,-0.622 0.158,-0.61 0.138,-0.595L0.104,-0.65C0.134,-0.671 0.166,-0.687 0.2,-0.697C0.233,-0.707 0.27,-0.712 0.31,-0.712C0.373,-0.712 0.42,-0.695 0.452,-0.661C0.484,-0.627 0.5,-0.581 0.5,-0.523Z" style="fill:rgb(235,0,92);fill-rule:nonzero;"/>
                </g>
                <g transform="matrix(60,0,0,60,509.721,650.831)">
                    <path d="M0.055,-0.35C0.055,-0.407 0.06,-0.458 0.07,-0.503C0.08,-0.548 0.095,-0.586 0.115,-0.617C0.135,-0.648 0.16,-0.671 0.191,-0.688C0.222,-0.704 0.258,-0.712 0.3,-0.712C0.345,-0.712 0.383,-0.704 0.414,-0.688C0.445,-0.672 0.47,-0.649 0.489,-0.618C0.508,-0.587 0.522,-0.55 0.531,-0.505C0.54,-0.46 0.544,-0.408 0.544,-0.35C0.544,-0.293 0.539,-0.243 0.529,-0.198C0.519,-0.153 0.504,-0.115 0.484,-0.084C0.464,-0.053 0.439,-0.029 0.408,-0.013C0.377,0.004 0.341,0.012 0.299,0.012C0.255,0.012 0.218,0.003 0.187,-0.015C0.156,-0.032 0.13,-0.057 0.111,-0.089C0.091,-0.121 0.077,-0.159 0.068,-0.204C0.059,-0.248 0.055,-0.297 0.055,-0.35ZM0.462,-0.35C0.462,-0.385 0.46,-0.419 0.456,-0.451L0.159,-0.18C0.17,-0.142 0.187,-0.112 0.21,-0.089C0.233,-0.066 0.262,-0.055 0.299,-0.055C0.358,-0.055 0.4,-0.079 0.425,-0.128C0.45,-0.177 0.462,-0.251 0.462,-0.35ZM0.138,-0.35C0.138,-0.333 0.139,-0.317 0.14,-0.302C0.141,-0.287 0.142,-0.272 0.143,-0.257L0.441,-0.527C0.43,-0.563 0.413,-0.592 0.391,-0.613C0.368,-0.634 0.338,-0.645 0.3,-0.645C0.241,-0.645 0.199,-0.62 0.175,-0.572C0.15,-0.523 0.138,-0.449 0.138,-0.35Z" style="fill:rgb(235,0,92);fill-rule:nonzero;"/>
                </g>
                <g transform="matrix(60,0,0,60,545.721,650.831)">
                    <path d="M0.5,-0.523C0.5,-0.462 0.471,-0.393 0.413,-0.318C0.355,-0.243 0.274,-0.161 0.17,-0.072L0.522,-0.072L0.522,-0L0.078,-0L0.078,-0.072C0.091,-0.084 0.108,-0.1 0.13,-0.119C0.152,-0.138 0.176,-0.16 0.201,-0.184C0.226,-0.207 0.252,-0.233 0.279,-0.26C0.305,-0.287 0.329,-0.315 0.35,-0.344C0.371,-0.373 0.389,-0.401 0.402,-0.43C0.415,-0.459 0.422,-0.486 0.422,-0.513C0.422,-0.553 0.411,-0.585 0.391,-0.608C0.37,-0.631 0.338,-0.642 0.296,-0.642C0.26,-0.642 0.23,-0.638 0.205,-0.63C0.18,-0.622 0.158,-0.61 0.138,-0.595L0.104,-0.65C0.134,-0.671 0.166,-0.687 0.2,-0.697C0.233,-0.707 0.27,-0.712 0.31,-0.712C0.373,-0.712 0.42,-0.695 0.452,-0.661C0.484,-0.627 0.5,-0.581 0.5,-0.523Z" style="fill:rgb(235,0,92);fill-rule:nonzero;"/>
                </g>
                <g transform="matrix(60,0,0,60,581.721,650.831)">
                    <path d="M0.248,-0.057C0.275,-0.057 0.299,-0.061 0.322,-0.068C0.344,-0.075 0.363,-0.084 0.38,-0.097C0.397,-0.11 0.41,-0.125 0.419,-0.143C0.428,-0.161 0.433,-0.181 0.433,-0.203C0.433,-0.249 0.417,-0.282 0.385,-0.302C0.352,-0.321 0.309,-0.331 0.254,-0.331L0.19,-0.331L0.19,-0.379L0.387,-0.628L0.088,-0.628L0.088,-0.7L0.483,-0.7L0.483,-0.628L0.286,-0.397L0.302,-0.397C0.333,-0.397 0.361,-0.393 0.386,-0.384C0.411,-0.375 0.433,-0.363 0.452,-0.347C0.471,-0.331 0.485,-0.312 0.496,-0.289C0.506,-0.266 0.511,-0.241 0.511,-0.212C0.511,-0.176 0.504,-0.144 0.49,-0.116C0.476,-0.088 0.457,-0.065 0.433,-0.046C0.409,-0.027 0.381,-0.012 0.349,-0.003C0.316,0.007 0.282,0.012 0.245,0.012C0.211,0.012 0.182,0.01 0.157,0.005C0.132,-0 0.109,-0.007 0.088,-0.014L0.108,-0.084C0.125,-0.076 0.146,-0.07 0.169,-0.065C0.192,-0.059 0.219,-0.057 0.248,-0.057Z" style="fill:rgb(235,0,92);fill-rule:nonzero;"/>
                </g>
                <g transform="matrix(60,0,0,60,617.721,650.831)">
                    <rect x="0.129" y="-0.325" width="0.342" height="0.074" style="fill:rgb(235,0,92);fill-rule:nonzero;"/>
                </g>
                <g transform="matrix(60,0,0,60,653.721,650.831)">
                    <path d="M0.055,-0.35C0.055,-0.407 0.06,-0.458 0.07,-0.503C0.08,-0.548 0.095,-0.586 0.115,-0.617C0.135,-0.648 0.16,-0.671 0.191,-0.688C0.222,-0.704 0.258,-0.712 0.3,-0.712C0.345,-0.712 0.383,-0.704 0.414,-0.688C0.445,-0.672 0.47,-0.649 0.489,-0.618C0.508,-0.587 0.522,-0.55 0.531,-0.505C0.54,-0.46 0.544,-0.408 0.544,-0.35C0.544,-0.293 0.539,-0.243 0.529,-0.198C0.519,-0.153 0.504,-0.115 0.484,-0.084C0.464,-0.053 0.439,-0.029 0.408,-0.013C0.377,0.004 0.341,0.012 0.299,0.012C0.255,0.012 0.218,0.003 0.187,-0.015C0.156,-0.032 0.13,-0.057 0.111,-0.089C0.091,-0.121 0.077,-0.159 0.068,-0.204C0.059,-0.248 0.055,-0.297 0.055,-0.35ZM0.462,-0.35C0.462,-0.385 0.46,-0.419 0.456,-0.451L0.159,-0.18C0.17,-0.142 0.187,-0.112 0.21,-0.089C0.233,-0.066 0.262,-0.055 0.299,-0.055C0.358,-0.055 0.4,-0.079 0.425,-0.128C0.45,-0.177 0.462,-0.251 0.462,-0.35ZM0.138,-0.35C0.138,-0.333 0.139,-0.317 0.14,-0.302C0.141,-0.287 0.142,-0.272 0.143,-0.257L0.441,-0.527C0.43,-0.563 0.413,-0.592 0.391,-0.613C0.368,-0.634 0.338,-0.645 0.3,-0.645C0.241,-0.645 0.199,-0.62 0.175,-0.572C0.15,-0.523 0.138,-0.449 0.138,-0.35Z" style="fill:rgb(235,0,92);fill-rule:nonzero;"/>
                </g>
                <g transform="matrix(60,0,0,60,689.721,650.831)">
                    <path d="M0.124,-0L0.43,-0.628L0.069,-0.628L0.069,-0.7L0.511,-0.7L0.511,-0.635L0.206,-0L0.124,-0Z" style="fill:rgb(235,0,92);fill-rule:nonzero;"/>
                </g>
                <g transform="matrix(60,0,0,60,725.721,650.831)">
                    <rect x="0.129" y="-0.325" width="0.342" height="0.074" style="fill:rgb(235,0,92);fill-rule:nonzero;"/>
                </g>
                <g transform="matrix(60,0,0,60,761.721,650.831)">
                    <path d="M0.248,-0.057C0.275,-0.057 0.299,-0.061 0.322,-0.068C0.344,-0.075 0.363,-0.084 0.38,-0.097C0.397,-0.11 0.41,-0.125 0.419,-0.143C0.428,-0.161 0.433,-0.181 0.433,-0.203C0.433,-0.249 0.417,-0.282 0.385,-0.302C0.352,-0.321 0.309,-0.331 0.254,-0.331L0.19,-0.331L0.19,-0.379L0.387,-0.628L0.088,-0.628L0.088,-0.7L0.483,-0.7L0.483,-0.628L0.286,-0.397L0.302,-0.397C0.333,-0.397 0.361,-0.393 0.386,-0.384C0.411,-0.375 0.433,-0.363 0.452,-0.347C0.471,-0.331 0.485,-0.312 0.496,-0.289C0.506,-0.266 0.511,-0.241 0.511,-0.212C0.511,-0.176 0.504,-0.144 0.49,-0.116C0.476,-0.088 0.457,-0.065 0.433,-0.046C0.409,-0.027 0.381,-0.012 0.349,-0.003C0.316,0.007 0.282,0.012 0.245,0.012C0.211,0.012 0.182,0.01 0.157,0.005C0.132,-0 0.109,-0.007 0.088,-0.014L0.108,-0.084C0.125,-0.076 0.146,-0.07 0.169,-0.065C0.192,-0.059 0.219,-0.057 0.248,-0.057Z" style="fill:rgb(235,0,92);fill-rule:nonzero;"/>
                </g>
                <g transform="matrix(60,0,0,60,797.721,650.831)">
                    <path d="M0.055,-0.35C0.055,-0.407 0.06,-0.458 0.07,-0.503C0.08,-0.548 0.095,-0.586 0.115,-0.617C0.135,-0.648 0.16,-0.671 0.191,-0.688C0.222,-0.704 0.258,-0.712 0.3,-0.712C0.345,-0.712 0.383,-0.704 0.414,-0.688C0.445,-0.672 0.47,-0.649 0.489,-0.618C0.508,-0.587 0.522,-0.55 0.531,-0.505C0.54,-0.46 0.544,-0.408 0.544,-0.35C0.544,-0.293 0.539,-0.243 0.529,-0.198C0.519,-0.153 0.504,-0.115 0.484,-0.084C0.464,-0.053 0.439,-0.029 0.408,-0.013C0.377,0.004 0.341,0.012 0.299,0.012C0.255,0.012 0.218,0.003 0.187,-0.015C0.156,-0.032 0.13,-0.057 0.111,-0.089C0.091,-0.121 0.077,-0.159 0.068,-0.204C0.059,-0.248 0.055,-0.297 0.055,-0.35ZM0.462,-0.35C0.462,-0.385 0.46,-0.419 0.456,-0.451L0.159,-0.18C0.17,-0.142 0.187,-0.112 0.21,-0.089C0.233,-0.066 0.262,-0.055 0.299,-0.055C0.358,-0.055 0.4,-0.079 0.425,-0.128C0.45,-0.177 0.462,-0.251 0.462,-0.35ZM0.138,-0.35C0.138,-0.333 0.139,-0.317 0.14,-0.302C0.141,-0.287 0.142,-0.272 0.143,-0.257L0.441,-0.527C0.43,-0.563 0.413,-0.592 0.391,-0.613C0.368,-0.634 0.338,-0.645 0.3,-0.645C0.241,-0.645 0.199,-0.62 0.175,-0.572C0.15,-0.523 0.138,-0.449 0.138,-0.35Z" style="fill:rgb(235,0,92);fill-rule:nonzero;"/>
                </g>
                <g transform="matrix(60,0,0,60,833.721,650.831)">
                    <path d="M0.04,-0.7L0.56,-0.7L0.56,-0.517L0.486,-0.517L0.486,-0.626L0.341,-0.626L0.341,-0.074L0.451,-0.074L0.451,-0L0.148,-0L0.148,-0.074L0.258,-0.074L0.258,-0.626L0.114,-0.626L0.114,-0.517L0.04,-0.517L0.04,-0.7Z" style="fill:rgb(235,0,92);fill-rule:nonzero;"/>
                </g>
                <g transform="matrix(60,0,0,60,869.721,650.831)">
                    <path d="M0.055,-0.35C0.055,-0.407 0.06,-0.458 0.07,-0.503C0.08,-0.548 0.095,-0.586 0.115,-0.617C0.135,-0.648 0.16,-0.671 0.191,-0.688C0.222,-0.704 0.258,-0.712 0.3,-0.712C0.345,-0.712 0.383,-0.704 0.414,-0.688C0.445,-0.672 0.47,-0.649 0.489,-0.618C0.508,-0.587 0.522,-0.55 0.531,-0.505C0.54,-0.46 0.544,-0.408 0.544,-0.35C0.544,-0.293 0.539,-0.243 0.529,-0.198C0.519,-0.153 0.504,-0.115 0.484,-0.084C0.464,-0.053 0.439,-0.029 0.408,-0.013C0.377,0.004 0.341,0.012 0.299,0.012C0.255,0.012 0.218,0.003 0.187,-0.015C0.156,-0.032 0.13,-0.057 0.111,-0.089C0.091,-0.121 0.077,-0.159 0.068,-0.204C0.059,-0.248 0.055,-0.297 0.055,-0.35ZM0.462,-0.35C0.462,-0.385 0.46,-0.419 0.456,-0.451L0.159,-0.18C0.17,-0.142 0.187,-0.112 0.21,-0.089C0.233,-0.066 0.262,-0.055 0.299,-0.055C0.358,-0.055 0.4,-0.079 0.425,-0.128C0.45,-0.177 0.462,-0.251 0.462,-0.35ZM0.138,-0.35C0.138,-0.333 0.139,-0.317 0.14,-0.302C0.141,-0.287 0.142,-0.272 0.143,-0.257L0.441,-0.527C0.43,-0.563 0.413,-0.592 0.391,-0.613C0.368,-0.634 0.338,-0.645 0.3,-0.645C0.241,-0.645 0.199,-0.62 0.175,-0.572C0.15,-0.523 0.138,-0.449 0.138,-0.35Z" style="fill:rgb(235,0,92);fill-rule:nonzero;"/>
                </g>
                <g transform="matrix(60,0,0,60,905.721,650.831)">
                    <path d="M0.061,-0.489C0.061,-0.52 0.066,-0.549 0.076,-0.576C0.086,-0.603 0.101,-0.626 0.122,-0.647C0.142,-0.667 0.167,-0.683 0.197,-0.695C0.227,-0.706 0.262,-0.712 0.302,-0.712C0.339,-0.712 0.373,-0.706 0.402,-0.694C0.431,-0.682 0.456,-0.665 0.477,-0.644C0.497,-0.622 0.512,-0.596 0.523,-0.565C0.534,-0.534 0.539,-0.499 0.539,-0.461C0.539,-0.386 0.53,-0.321 0.511,-0.264C0.492,-0.207 0.466,-0.159 0.433,-0.12C0.4,-0.081 0.36,-0.05 0.315,-0.028C0.269,-0.006 0.219,0.007 0.166,0.012L0.151,-0.051C0.195,-0.056 0.234,-0.066 0.269,-0.083C0.304,-0.1 0.334,-0.121 0.359,-0.147C0.384,-0.173 0.405,-0.203 0.421,-0.237C0.437,-0.271 0.448,-0.307 0.454,-0.346C0.443,-0.335 0.432,-0.325 0.422,-0.318C0.411,-0.31 0.398,-0.304 0.385,-0.299C0.372,-0.294 0.357,-0.291 0.341,-0.289C0.325,-0.287 0.307,-0.286 0.286,-0.286C0.255,-0.286 0.226,-0.291 0.199,-0.3C0.172,-0.309 0.148,-0.323 0.128,-0.341C0.107,-0.358 0.091,-0.38 0.079,-0.405C0.067,-0.43 0.061,-0.458 0.061,-0.489ZM0.143,-0.497C0.143,-0.449 0.158,-0.413 0.187,-0.389C0.216,-0.365 0.254,-0.353 0.302,-0.353C0.34,-0.353 0.373,-0.359 0.401,-0.371C0.428,-0.382 0.448,-0.397 0.459,-0.414C0.46,-0.423 0.461,-0.431 0.461,-0.437L0.461,-0.456C0.461,-0.479 0.458,-0.502 0.452,-0.525C0.445,-0.548 0.435,-0.568 0.422,-0.586C0.409,-0.604 0.392,-0.619 0.371,-0.63C0.349,-0.641 0.324,-0.646 0.295,-0.646C0.247,-0.646 0.21,-0.633 0.183,-0.607C0.156,-0.581 0.143,-0.544 0.143,-0.497Z" style="fill:rgb(235,0,92);fill-rule:nonzero;"/>
                </g>
                <g transform="matrix(60,0,0,60,941.721,650.831)">
                    <path d="M0.233,-0.448C0.233,-0.469 0.239,-0.486 0.251,-0.498C0.263,-0.509 0.279,-0.515 0.299,-0.515C0.32,-0.515 0.337,-0.509 0.349,-0.498C0.361,-0.486 0.367,-0.469 0.367,-0.448C0.367,-0.429 0.361,-0.413 0.349,-0.4C0.337,-0.387 0.32,-0.381 0.299,-0.381C0.279,-0.381 0.263,-0.387 0.251,-0.4C0.239,-0.413 0.233,-0.429 0.233,-0.448ZM0.233,-0.055C0.233,-0.076 0.239,-0.093 0.251,-0.105C0.263,-0.116 0.279,-0.122 0.299,-0.122C0.32,-0.122 0.337,-0.116 0.349,-0.105C0.361,-0.093 0.367,-0.076 0.367,-0.055C0.367,-0.036 0.361,-0.02 0.349,-0.007C0.337,0.006 0.32,0.012 0.299,0.012C0.279,0.012 0.263,0.006 0.251,-0.007C0.239,-0.02 0.233,-0.036 0.233,-0.055Z" style="fill:rgb(235,0,92);fill-rule:nonzero;"/>
                </g>
                <g transform="matrix(60,0,0,60,977.721,650.831)">
                    <path d="M0.055,-0.35C0.055,-0.407 0.06,-0.458 0.07,-0.503C0.08,-0.548 0.095,-0.586 0.115,-0.617C0.135,-0.648 0.16,-0.671 0.191,-0.688C0.222,-0.704 0.258,-0.712 0.3,-0.712C0.345,-0.712 0.383,-0.704 0.414,-0.688C0.445,-0.672 0.47,-0.649 0.489,-0.618C0.508,-0.587 0.522,-0.55 0.531,-0.505C0.54,-0.46 0.544,-0.408 0.544,-0.35C0.544,-0.293 0.539,-0.243 0.529,-0.198C0.519,-0.153 0.504,-0.115 0.484,-0.084C0.464,-0.053 0.439,-0.029 0.408,-0.013C0.377,0.004 0.341,0.012 0.299,0.012C0.255,0.012 0.218,0.003 0.187,-0.015C0.156,-0.032 0.13,-0.057 0.111,-0.089C0.091,-0.121 0.077,-0.159 0.068,-0.204C0.059,-0.248 0.055,-0.297 0.055,-0.35ZM0.462,-0.35C0.462,-0.385 0.46,-0.419 0.456,-0.451L0.159,-0.18C0.17,-0.142 0.187,-0.112 0.21,-0.089C0.233,-0.066 0.262,-0.055 0.299,-0.055C0.358,-0.055 0.4,-0.079 0.425,-0.128C0.45,-0.177 0.462,-0.251 0.462,-0.35ZM0.138,-0.35C0.138,-0.333 0.139,-0.317 0.14,-0.302C0.141,-0.287 0.142,-0.272 0.143,-0.257L0.441,-0.527C0.43,-0.563 0.413,-0.592 0.391,-0.613C0.368,-0.634 0.338,-0.645 0.3,-0.645C0.241,-0.645 0.199,-0.62 0.175,-0.572C0.15,-0.523 0.138,-0.449 0.138,-0.35Z" style="fill:rgb(235,0,92);fill-rule:nonzero;"/>
                </g>
                <g transform="matrix(60,0,0,60,1013.72,650.831)">
                    <path d="M0.055,-0.35C0.055,-0.407 0.06,-0.458 0.07,-0.503C0.08,-0.548 0.095,-0.586 0.115,-0.617C0.135,-0.648 0.16,-0.671 0.191,-0.688C0.222,-0.704 0.258,-0.712 0.3,-0.712C0.345,-0.712 0.383,-0.704 0.414,-0.688C0.445,-0.672 0.47,-0.649 0.489,-0.618C0.508,-0.587 0.522,-0.55 0.531,-0.505C0.54,-0.46 0.544,-0.408 0.544,-0.35C0.544,-0.293 0.539,-0.243 0.529,-0.198C0.519,-0.153 0.504,-0.115 0.484,-0.084C0.464,-0.053 0.439,-0.029 0.408,-0.013C0.377,0.004 0.341,0.012 0.299,0.012C0.255,0.012 0.218,0.003 0.187,-0.015C0.156,-0.032 0.13,-0.057 0.111,-0.089C0.091,-0.121 0.077,-0.159 0.068,-0.204C0.059,-0.248 0.055,-0.297 0.055,-0.35ZM0.462,-0.35C0.462,-0.385 0.46,-0.419 0.456,-0.451L0.159,-0.18C0.17,-0.142 0.187,-0.112 0.21,-0.089C0.233,-0.066 0.262,-0.055 0.299,-0.055C0.358,-0.055 0.4,-0.079 0.425,-0.128C0.45,-0.177 0.462,-0.251 0.462,-0.35ZM0.138,-0.35C0.138,-0.333 0.139,-0.317 0.14,-0.302C0.141,-0.287 0.142,-0.272 0.143,-0.257L0.441,-0.527C0.43,-0.563 0.413,-0.592 0.391,-0.613C0.368,-0.634 0.338,-0.645 0.3,-0.645C0.241,-0.645 0.199,-0.62 0.175,-0.572C0.15,-0.523 0.138,-0.449 0.138,-0.35Z" style="fill:rgb(235,0,92);fill-rule:nonzero;"/>
                </g>
                <g transform="matrix(60,0,0,60,1049.72,650.831)">
                    <path d="M0.233,-0.448C0.233,-0.469 0.239,-0.486 0.251,-0.498C0.263,-0.509 0.279,-0.515 0.299,-0.515C0.32,-0.515 0.337,-0.509 0.349,-0.498C0.361,-0.486 0.367,-0.469 0.367,-0.448C0.367,-0.429 0.361,-0.413 0.349,-0.4C0.337,-0.387 0.32,-0.381 0.299,-0.381C0.279,-0.381 0.263,-0.387 0.251,-0.4C0.239,-0.413 0.233,-0.429 0.233,-0.448ZM0.233,-0.055C0.233,-0.076 0.239,-0.093 0.251,-0.105C0.263,-0.116 0.279,-0.122 0.299,-0.122C0.32,-0.122 0.337,-0.116 0.349,-0.105C0.361,-0.093 0.367,-0.076 0.367,-0.055C0.367,-0.036 0.361,-0.02 0.349,-0.007C0.337,0.006 0.32,0.012 0.299,0.012C0.279,0.012 0.263,0.006 0.251,-0.007C0.239,-0.02 0.233,-0.036 0.233,-0.055Z" style="fill:rgb(235,0,92);fill-rule:nonzero;"/>
                </g>
                <g transform="matrix(60,0,0,60,1085.72,650.831)">
                    <path d="M0.055,-0.35C0.055,-0.407 0.06,-0.458 0.07,-0.503C0.08,-0.548 0.095,-0.586 0.115,-0.617C0.135,-0.648 0.16,-0.671 0.191,-0.688C0.222,-0.704 0.258,-0.712 0.3,-0.712C0.345,-0.712 0.383,-0.704 0.414,-0.688C0.445,-0.672 0.47,-0.649 0.489,-0.618C0.508,-0.587 0.522,-0.55 0.531,-0.505C0.54,-0.46 0.544,-0.408 0.544,-0.35C0.544,-0.293 0.539,-0.243 0.529,-0.198C0.519,-0.153 0.504,-0.115 0.484,-0.084C0.464,-0.053 0.439,-0.029 0.408,-0.013C0.377,0.004 0.341,0.012 0.299,0.012C0.255,0.012 0.218,0.003 0.187,-0.015C0.156,-0.032 0.13,-0.057 0.111,-0.089C0.091,-0.121 0.077,-0.159 0.068,-0.204C0.059,-0.248 0.055,-0.297 0.055,-0.35ZM0.462,-0.35C0.462,-0.385 0.46,-0.419 0.456,-0.451L0.159,-0.18C0.17,-0.142 0.187,-0.112 0.21,-0.089C0.233,-0.066 0.262,-0.055 0.299,-0.055C0.358,-0.055 0.4,-0.079 0.425,-0.128C0.45,-0.177 0.462,-0.251 0.462,-0.35ZM0.138,-0.35C0.138,-0.333 0.139,-0.317 0.14,-0.302C0.141,-0.287 0.142,-0.272 0.143,-0.257L0.441,-0.527C0.43,-0.563 0.413,-0.592 0.391,-0.613C0.368,-0.634 0.338,-0.645 0.3,-0.645C0.241,-0.645 0.199,-0.62 0.175,-0.572C0.15,-0.523 0.138,-0.449 0.138,-0.35Z" style="fill:rgb(235,0,92);fill-rule:nonzero;"/>
                </g>
                <g transform="matrix(60,0,0,60,1121.72,650.831)">
                    <path d="M0.055,-0.35C0.055,-0.407 0.06,-0.458 0.07,-0.503C0.08,-0.548 0.095,-0.586 0.115,-0.617C0.135,-0.648 0.16,-0.671 0.191,-0.688C0.222,-0.704 0.258,-0.712 0.3,-0.712C0.345,-0.712 0.383,-0.704 0.414,-0.688C0.445,-0.672 0.47,-0.649 0.489,-0.618C0.508,-0.587 0.522,-0.55 0.531,-0.505C0.54,-0.46 0.544,-0.408 0.544,-0.35C0.544,-0.293 0.539,-0.243 0.529,-0.198C0.519,-0.153 0.504,-0.115 0.484,-0.084C0.464,-0.053 0.439,-0.029 0.408,-0.013C0.377,0.004 0.341,0.012 0.299,0.012C0.255,0.012 0.218,0.003 0.187,-0.015C0.156,-0.032 0.13,-0.057 0.111,-0.089C0.091,-0.121 0.077,-0.159 0.068,-0.204C0.059,-0.248 0.055,-0.297 0.055,-0.35ZM0.462,-0.35C0.462,-0.385 0.46,-0.419 0.456,-0.451L0.159,-0.18C0.17,-0.142 0.187,-0.112 0.21,-0.089C0.233,-0.066 0.262,-0.055 0.299,-0.055C0.358,-0.055 0.4,-0.079 0.425,-0.128C0.45,-0.177 0.462,-0.251 0.462,-0.35ZM0.138,-0.35C0.138,-0.333 0.139,-0.317 0.14,-0.302C0.141,-0.287 0.142,-0.272 0.143,-0.257L0.441,-0.527C0.43,-0.563 0.413,-0.592 0.391,-0.613C0.368,-0.634 0.338,-0.645 0.3,-0.645C0.241,-0.645 0.199,-0.62 0.175,-0.572C0.15,-0.523 0.138,-0.449 0.138,-0.35Z" style="fill:rgb(235,0,92);fill-rule:nonzero;"/>
                </g>
                <g transform="matrix(60,0,0,60,1157.72,650.831)">
                    <path d="M0.055,-0.075L0.45,-0.626L0.055,-0.626L0.055,-0.7L0.545,-0.7L0.545,-0.625L0.148,-0.074L0.545,-0.074L0.545,-0L0.055,-0L0.055,-0.075Z" style="fill:rgb(235,0,92);fill-rule:nonzero;"/>
                </g>
                <g transform="matrix(60,0,0,60,1193.72,650.831)">
                    <path d="M0.261,-0.7L0.349,-0.7L0.318,-0.397L0.261,-0.397L0.261,-0.7Z" style="fill:rgb(235,0,92);fill-rule:nonzero;"/>
                </g>
                <g transform="matrix(60,0,0,60,1229.72,650.831)">
                    <path d="M0.143,0.143C0.175,0.136 0.207,0.125 0.239,0.108C0.27,0.091 0.299,0.067 0.325,0.037C0.35,0.006 0.371,-0.032 0.387,-0.078C0.402,-0.123 0.41,-0.178 0.41,-0.243C0.41,-0.307 0.404,-0.362 0.391,-0.407C0.378,-0.452 0.359,-0.489 0.336,-0.52C0.312,-0.55 0.284,-0.574 0.251,-0.593C0.218,-0.611 0.182,-0.626 0.143,-0.637L0.168,-0.7C0.211,-0.691 0.253,-0.675 0.292,-0.653C0.331,-0.63 0.365,-0.6 0.394,-0.564C0.423,-0.527 0.447,-0.482 0.464,-0.429C0.481,-0.376 0.49,-0.314 0.49,-0.243C0.49,-0.172 0.482,-0.11 0.465,-0.058C0.448,-0.006 0.425,0.038 0.396,0.074C0.367,0.11 0.332,0.139 0.294,0.162C0.255,0.184 0.213,0.201 0.168,0.212L0.143,0.143Z" style="fill:rgb(235,0,92);fill-rule:nonzero;"/>
                </g>
            </g>
        </g>
    </g>
</svg>
