<?xml version="1.0" encoding="UTF-8" standalone="no"?>
<!DOCTYPE svg PUBLIC "-//W3C//DTD SVG 1.1//EN" "http://www.w3.org/Graphics/SVG/1.1/DTD/svg11.dtd">
<svg width="100%" height="100%" viewBox="0 0 501 640" version="1.1" xmlns="http://www.w3.org/2000/svg" xmlns:xlink="http://www.w3.org/1999/xlink" xml:space="preserve" xmlns:serif="http://www.serif.com/" style="fill-rule:evenodd;clip-rule:evenodd;stroke-linecap:square;stroke-linejoin:round;stroke-miterlimit:10;">
    <rect id="Geometric-Operations-2" serif:id="Geometric Operations 2" x="-776" y="-100" width="4299" height="2861" style="fill:none;"/>
    <g id="Geometric-Operations-21" serif:id="Geometric Operations 2">
        <path d="M479,318L497,327L479,336L479,318Z"/>
        <path d="M9,327L482.6,327" style="fill:none;stroke:black;stroke-width:2px;stroke-dasharray:2,6,0,0;"/>
        <path d="M244,21L253,3L262,21L244,21Z"/>
        <path d="M253,634L253,17.4" style="fill:none;stroke:black;stroke-width:2px;stroke-dasharray:2,6,0,0;"/>
        <path d="M362.429,96.1L390,77L388.737,110.517L362.429,96.1Z" style="fill:rgb(21,183,183);"/>
        <path d="M253,327C253,327 345.462,158.273 378.466,98.047" style="fill:none;stroke:rgb(21,183,183);stroke-width:5px;"/>
        <path d="M85.522,434.885L52,436L71.221,408.513L85.522,434.885Z" style="fill:rgb(247,0,255);"/>
        <path d="M253,327C253,327 124.682,396.586 73.098,424.559" style="fill:none;stroke:rgb(247,0,255);stroke-width:5px;"/>
        <path d="M28.2,447.833L39.36,447.833L39.36,471.233L43.92,471.233L43.92,477.833L34.44,477.833L33.06,473.393L32.82,473.393C31.9,474.913 30.52,476.173 28.68,477.173C26.84,478.173 24.8,478.673 22.56,478.673C21.04,478.673 19.65,478.473 18.39,478.073C17.13,477.673 16.06,477.013 15.18,476.093C14.3,475.173 13.62,473.933 13.14,472.373C12.66,470.813 12.42,468.853 12.42,466.493L12.42,454.433L9,454.433L9,447.833L20.22,447.833L20.22,464.873C20.22,467.313 20.61,469.073 21.39,470.153C22.17,471.233 23.4,471.773 25.08,471.773C26.56,471.773 27.89,471.333 29.07,470.453C30.25,469.573 31.08,468.493 31.56,467.213L31.56,454.433L28.2,454.433L28.2,447.833Z" style="fill:rgb(247,0,255);fill-rule:nonzero;"/>
        <path d="M414.806,41.461L425.966,41.461L425.966,64.861L430.526,64.861L430.526,71.461L421.046,71.461L419.666,67.021L419.426,67.021C418.506,68.541 417.126,69.801 415.286,70.801C413.446,71.801 411.406,72.301 409.166,72.301C407.646,72.301 406.256,72.101 404.996,71.701C403.736,71.301 402.666,70.641 401.786,69.721C400.906,68.801 400.226,67.561 399.746,66.001C399.266,64.441 399.026,62.481 399.026,60.121L399.026,48.061L395.606,48.061L395.606,41.461L406.826,41.461L406.826,58.501C406.826,60.941 407.216,62.701 407.996,63.781C408.776,64.861 410.006,65.401 411.686,65.401C413.166,65.401 414.496,64.961 415.676,64.081C416.856,63.201 417.686,62.121 418.166,60.841L418.166,48.061L414.806,48.061L414.806,41.461Z" style="fill:rgb(21,183,183);fill-rule:nonzero;"/>
        <path d="M329.827,241.732L303.244,238.075L316.268,261.535L329.827,241.732Z" style="fill:rgb(21,183,183);"/>
        <path d="M319.087,248.922C341.46,267.562 355.71,295.63 355.71,327" style="fill:none;stroke:rgb(21,183,183);stroke-width:4px;stroke-dasharray:4,12,0,0;"/>
        <path d="M186.556,393.954L184.142,367.23L206.969,381.334L186.556,393.954Z" style="fill:rgb(247,0,255);"/>
        <path d="M333.066,328C333.066,370.676 298.418,405.324 255.742,405.324C230.671,405.324 208.371,399.378 194.238,383.561" style="fill:none;stroke:rgb(247,0,255);stroke-width:4px;stroke-dasharray:4,12,0,0;"/>
        <path d="M390,79L253,79" style="fill:none;stroke:rgb(21,183,183);stroke-width:2px;stroke-linecap:butt;stroke-dasharray:2,4,0,0;"/>
        <path d="M52,327L52,434.174" style="fill:none;stroke:rgb(247,0,255);stroke-width:2px;stroke-linecap:butt;stroke-dasharray:2,4,0,0;"/>
        <path d="M253,433L52,433.887" style="fill:none;stroke:rgb(247,0,255);stroke-width:2px;stroke-linecap:butt;stroke-dasharray:2,4,0,0;"/>
        <path d="M390,79L390,327" style="fill:none;stroke:rgb(21,183,183);stroke-width:2px;stroke-linecap:butt;stroke-dasharray:2,4,0,0;"/>
        <path d="M19.176,380.132L20.52,384.74L20.76,384.74L21.816,380.084L26.472,364.58L30.36,364.58L23.256,386.132C22.712,387.7 22.176,389.22 21.648,390.692C21.12,392.164 20.536,393.476 19.896,394.628C19.256,395.78 18.536,396.7 17.736,397.388C16.936,398.076 16.008,398.42 14.952,398.42C13.8,398.42 12.856,398.26 12.12,397.94L12.792,394.628C13.208,394.788 13.608,394.868 13.992,394.868C14.888,394.868 15.752,394.396 16.584,393.452C17.416,392.508 18.104,390.884 18.648,388.58L9,364.58L13.416,364.58L19.176,380.132Z" style="fill:rgb(247,0,255);fill-rule:nonzero;"/>
        <path d="M417.343,200.239L418.687,204.847L418.927,204.847L419.983,200.191L424.639,184.687L428.527,184.687L421.423,206.239C420.879,207.807 420.343,209.327 419.815,210.799C419.287,212.271 418.703,213.583 418.063,214.735C417.423,215.887 416.703,216.807 415.903,217.495C415.103,218.183 414.175,218.527 413.119,218.527C411.967,218.527 411.023,218.367 410.287,218.047L410.959,214.735C411.375,214.895 411.775,214.975 412.159,214.975C413.055,214.975 413.919,214.503 414.751,213.559C415.583,212.615 416.271,210.991 416.815,208.687L407.167,184.687L411.583,184.687L417.343,200.239Z" style="fill:rgb(21,183,183);fill-rule:nonzero;"/>
        <path d="M150.124,462.965L142.06,451.253L146.764,451.253L151.324,457.877L152.668,460.613L154.06,457.877L158.716,451.253L163.036,451.253L154.924,462.773L163.516,475.253L158.956,475.253L153.868,467.957L152.428,465.077L150.94,467.957L145.756,475.253L141.484,475.253L150.124,462.965Z" style="fill:rgb(247,0,255);fill-rule:nonzero;"/>
        <path d="M300.726,412.72C302.006,412.144 303.526,411.688 305.286,411.352C307.046,411.016 308.886,410.848 310.806,410.848C312.47,410.848 313.862,411.048 314.982,411.448C316.102,411.848 316.99,412.416 317.646,413.152C318.302,413.888 318.766,414.768 319.038,415.792C319.31,416.816 319.446,417.968 319.446,419.248C319.446,420.656 319.398,422.072 319.302,423.496C319.206,424.92 319.15,426.32 319.134,427.696C319.118,429.072 319.158,430.408 319.254,431.704C319.35,433 319.59,434.224 319.974,435.376L314.886,435.376L313.878,432.064L313.638,432.064C312.998,433.056 312.11,433.912 310.974,434.632C309.838,435.352 308.374,435.712 306.582,435.712C305.462,435.712 304.454,435.544 303.558,435.208C302.662,434.872 301.894,434.392 301.254,433.768C300.614,433.144 300.118,432.408 299.766,431.56C299.414,430.712 299.238,429.76 299.238,428.704C299.238,427.232 299.566,425.992 300.222,424.984C300.878,423.976 301.822,423.16 303.054,422.536C304.286,421.912 305.758,421.48 307.47,421.24C309.182,421 311.094,420.928 313.206,421.024C313.43,419.232 313.302,417.944 312.822,417.16C312.342,416.376 311.27,415.984 309.606,415.984C308.358,415.984 307.038,416.112 305.646,416.368C304.254,416.624 303.11,416.96 302.214,417.376L300.726,412.72ZM308.646,430.576C309.894,430.576 310.886,430.296 311.622,429.736C312.358,429.176 312.902,428.576 313.254,427.936L313.254,424.816C312.262,424.72 311.31,424.704 310.398,424.768C309.486,424.832 308.678,424.976 307.974,425.2C307.27,425.424 306.71,425.744 306.294,426.16C305.878,426.576 305.67,427.104 305.67,427.744C305.67,428.64 305.934,429.336 306.462,429.832C306.99,430.328 307.718,430.576 308.646,430.576Z" style="fill:rgb(247,0,255);fill-rule:nonzero;"/>
        <path d="M322.182,411.328L325.494,411.328L325.494,406.816L331.734,405.04L331.734,411.328L337.59,411.328L337.59,416.608L331.734,416.608L331.734,425.824C331.734,427.488 331.902,428.68 332.238,429.4C332.574,430.12 333.206,430.48 334.134,430.48C334.774,430.48 335.326,430.416 335.79,430.288C336.254,430.16 336.774,429.968 337.35,429.712L338.454,434.512C337.59,434.928 336.582,435.28 335.43,435.568C334.278,435.856 333.11,436 331.926,436C329.718,436 328.094,435.432 327.054,434.296C326.014,433.16 325.494,431.296 325.494,428.704L325.494,416.608L322.182,416.608L322.182,411.328Z" style="fill:rgb(247,0,255);fill-rule:nonzero;"/>
        <path d="M341.286,412.72C342.566,412.144 344.086,411.688 345.846,411.352C347.606,411.016 349.446,410.848 351.366,410.848C353.03,410.848 354.422,411.048 355.542,411.448C356.662,411.848 357.55,412.416 358.206,413.152C358.862,413.888 359.326,414.768 359.598,415.792C359.87,416.816 360.006,417.968 360.006,419.248C360.006,420.656 359.958,422.072 359.862,423.496C359.766,424.92 359.71,426.32 359.694,427.696C359.678,429.072 359.718,430.408 359.814,431.704C359.91,433 360.15,434.224 360.534,435.376L355.446,435.376L354.438,432.064L354.198,432.064C353.558,433.056 352.67,433.912 351.534,434.632C350.398,435.352 348.934,435.712 347.142,435.712C346.022,435.712 345.014,435.544 344.118,435.208C343.222,434.872 342.454,434.392 341.814,433.768C341.174,433.144 340.678,432.408 340.326,431.56C339.974,430.712 339.798,429.76 339.798,428.704C339.798,427.232 340.126,425.992 340.782,424.984C341.438,423.976 342.382,423.16 343.614,422.536C344.846,421.912 346.318,421.48 348.03,421.24C349.742,421 351.654,420.928 353.766,421.024C353.99,419.232 353.862,417.944 353.382,417.16C352.902,416.376 351.83,415.984 350.166,415.984C348.918,415.984 347.598,416.112 346.206,416.368C344.814,416.624 343.67,416.96 342.774,417.376L341.286,412.72ZM349.206,430.576C350.454,430.576 351.446,430.296 352.182,429.736C352.918,429.176 353.462,428.576 353.814,427.936L353.814,424.816C352.822,424.72 351.87,424.704 350.958,424.768C350.046,424.832 349.238,424.976 348.534,425.2C347.83,425.424 347.27,425.744 346.854,426.16C346.438,426.576 346.23,427.104 346.23,427.744C346.23,428.64 346.494,429.336 347.022,429.832C347.55,430.328 348.278,430.576 349.206,430.576Z" style="fill:rgb(247,0,255);fill-rule:nonzero;"/>
        <path d="M379.926,435.328L379.926,421.696C379.926,419.744 379.646,418.336 379.086,417.472C378.526,416.608 377.574,416.176 376.23,416.176C375.046,416.176 374.046,416.52 373.23,417.208C372.414,417.896 371.83,418.752 371.478,419.776L371.478,435.328L365.238,435.328L365.238,411.328L370.182,411.328L370.902,414.496L371.094,414.496C371.83,413.472 372.806,412.576 374.022,411.808C375.238,411.04 376.806,410.656 378.726,410.656C379.91,410.656 380.966,410.816 381.894,411.136C382.822,411.456 383.606,411.984 384.246,412.72C384.886,413.456 385.366,414.456 385.686,415.72C386.006,416.984 386.166,418.544 386.166,420.4L386.166,435.328L379.926,435.328Z" style="fill:rgb(247,0,255);fill-rule:nonzero;"/>
        <path d="M411.462,409.936C411.462,411.568 411.166,413.216 410.574,414.88C409.982,416.544 409.23,418.176 408.318,419.776C407.406,421.376 406.398,422.92 405.294,424.408C404.19,425.896 403.11,427.264 402.054,428.512L399.51,430.48L399.51,430.72L402.966,430.048L412.182,430.048L412.182,435.328L391.974,435.328L391.974,432.112C392.742,431.312 393.606,430.376 394.566,429.304C395.526,428.232 396.494,427.096 397.47,425.896C398.446,424.696 399.398,423.456 400.326,422.176C401.254,420.896 402.086,419.608 402.822,418.312C403.558,417.016 404.142,415.76 404.574,414.544C405.006,413.328 405.222,412.176 405.222,411.088C405.222,409.776 404.846,408.696 404.094,407.848C403.342,407 402.15,406.576 400.518,406.576C399.494,406.576 398.446,406.792 397.374,407.224C396.302,407.656 395.398,408.208 394.662,408.88L392.166,404.464C393.414,403.44 394.83,402.616 396.414,401.992C397.998,401.368 399.862,401.056 402.006,401.056C403.382,401.056 404.646,401.248 405.798,401.632C406.95,402.016 407.942,402.576 408.774,403.312C409.606,404.048 410.262,404.968 410.742,406.072C411.222,407.176 411.462,408.464 411.462,409.936Z" style="fill:rgb(247,0,255);fill-rule:nonzero;"/>
        <path d="M362.057,259.257C363.337,258.681 364.857,258.225 366.617,257.889C368.377,257.553 370.217,257.385 372.137,257.385C373.801,257.385 375.193,257.585 376.313,257.985C377.433,258.385 378.321,258.953 378.977,259.689C379.633,260.425 380.097,261.305 380.369,262.329C380.641,263.353 380.777,264.505 380.777,265.785C380.777,267.193 380.729,268.609 380.633,270.033C380.537,271.457 380.481,272.857 380.465,274.233C380.449,275.609 380.489,276.945 380.585,278.241C380.681,279.537 380.921,280.761 381.305,281.913L376.217,281.913L375.209,278.601L374.969,278.601C374.329,279.593 373.441,280.449 372.305,281.169C371.169,281.889 369.705,282.249 367.913,282.249C366.793,282.249 365.785,282.081 364.889,281.745C363.993,281.409 363.225,280.929 362.585,280.305C361.945,279.681 361.449,278.945 361.097,278.097C360.745,277.249 360.569,276.297 360.569,275.241C360.569,273.769 360.897,272.529 361.553,271.521C362.209,270.513 363.153,269.697 364.385,269.073C365.617,268.449 367.089,268.017 368.801,267.777C370.513,267.537 372.425,267.465 374.537,267.561C374.761,265.769 374.633,264.481 374.153,263.697C373.673,262.913 372.601,262.521 370.937,262.521C369.689,262.521 368.369,262.649 366.977,262.905C365.585,263.161 364.441,263.497 363.545,263.913L362.057,259.257ZM369.977,277.113C371.225,277.113 372.217,276.833 372.953,276.273C373.689,275.713 374.233,275.113 374.585,274.473L374.585,271.353C373.593,271.257 372.641,271.241 371.729,271.305C370.817,271.369 370.009,271.513 369.305,271.737C368.601,271.961 368.041,272.281 367.625,272.697C367.209,273.113 367.001,273.641 367.001,274.281C367.001,275.177 367.265,275.873 367.793,276.369C368.321,276.865 369.049,277.113 369.977,277.113Z" style="fill:rgb(21,183,183);fill-rule:nonzero;"/>
        <path d="M383.513,257.865L386.825,257.865L386.825,253.353L393.065,251.577L393.065,257.865L398.921,257.865L398.921,263.145L393.065,263.145L393.065,272.361C393.065,274.025 393.233,275.217 393.569,275.937C393.905,276.657 394.537,277.017 395.465,277.017C396.105,277.017 396.657,276.953 397.121,276.825C397.585,276.697 398.105,276.505 398.681,276.249L399.785,281.049C398.921,281.465 397.913,281.817 396.761,282.105C395.609,282.393 394.441,282.537 393.257,282.537C391.049,282.537 389.425,281.969 388.385,280.833C387.345,279.697 386.825,277.833 386.825,275.241L386.825,263.145L383.513,263.145L383.513,257.865Z" style="fill:rgb(21,183,183);fill-rule:nonzero;"/>
        <path d="M402.617,259.257C403.897,258.681 405.417,258.225 407.177,257.889C408.937,257.553 410.777,257.385 412.697,257.385C414.361,257.385 415.753,257.585 416.873,257.985C417.993,258.385 418.881,258.953 419.537,259.689C420.193,260.425 420.657,261.305 420.929,262.329C421.201,263.353 421.337,264.505 421.337,265.785C421.337,267.193 421.289,268.609 421.193,270.033C421.097,271.457 421.041,272.857 421.025,274.233C421.009,275.609 421.049,276.945 421.145,278.241C421.241,279.537 421.481,280.761 421.865,281.913L416.777,281.913L415.769,278.601L415.529,278.601C414.889,279.593 414.001,280.449 412.865,281.169C411.729,281.889 410.265,282.249 408.473,282.249C407.353,282.249 406.345,282.081 405.449,281.745C404.553,281.409 403.785,280.929 403.145,280.305C402.505,279.681 402.009,278.945 401.657,278.097C401.305,277.249 401.129,276.297 401.129,275.241C401.129,273.769 401.457,272.529 402.113,271.521C402.769,270.513 403.713,269.697 404.945,269.073C406.177,268.449 407.649,268.017 409.361,267.777C411.073,267.537 412.985,267.465 415.097,267.561C415.321,265.769 415.193,264.481 414.713,263.697C414.233,262.913 413.161,262.521 411.497,262.521C410.249,262.521 408.929,262.649 407.537,262.905C406.145,263.161 405.001,263.497 404.105,263.913L402.617,259.257ZM410.537,277.113C411.785,277.113 412.777,276.833 413.513,276.273C414.249,275.713 414.793,275.113 415.145,274.473L415.145,271.353C414.153,271.257 413.201,271.241 412.289,271.305C411.377,271.369 410.569,271.513 409.865,271.737C409.161,271.961 408.601,272.281 408.185,272.697C407.769,273.113 407.561,273.641 407.561,274.281C407.561,275.177 407.825,275.873 408.353,276.369C408.881,276.865 409.609,277.113 410.537,277.113Z" style="fill:rgb(21,183,183);fill-rule:nonzero;"/>
        <path d="M441.257,281.865L441.257,268.233C441.257,266.281 440.977,264.873 440.417,264.009C439.857,263.145 438.905,262.713 437.561,262.713C436.377,262.713 435.377,263.057 434.561,263.745C433.745,264.433 433.161,265.289 432.809,266.313L432.809,281.865L426.569,281.865L426.569,257.865L431.513,257.865L432.233,261.033L432.425,261.033C433.161,260.009 434.137,259.113 435.353,258.345C436.569,257.577 438.137,257.193 440.057,257.193C441.241,257.193 442.297,257.353 443.225,257.673C444.153,257.993 444.937,258.521 445.577,259.257C446.217,259.993 446.697,260.993 447.017,262.257C447.337,263.521 447.497,265.081 447.497,266.937L447.497,281.865L441.257,281.865Z" style="fill:rgb(21,183,183);fill-rule:nonzero;"/>
        <path d="M472.793,256.473C472.793,258.105 472.497,259.753 471.905,261.417C471.313,263.081 470.561,264.713 469.649,266.313C468.737,267.913 467.729,269.457 466.625,270.945C465.521,272.433 464.441,273.801 463.385,275.049L460.841,277.017L460.841,277.257L464.297,276.585L473.513,276.585L473.513,281.865L453.305,281.865L453.305,278.649C454.073,277.849 454.937,276.913 455.897,275.841C456.857,274.769 457.825,273.633 458.801,272.433C459.777,271.233 460.729,269.993 461.657,268.713C462.585,267.433 463.417,266.145 464.153,264.849C464.889,263.553 465.473,262.297 465.905,261.081C466.337,259.865 466.553,258.713 466.553,257.625C466.553,256.313 466.177,255.233 465.425,254.385C464.673,253.537 463.481,253.113 461.849,253.113C460.825,253.113 459.777,253.329 458.705,253.761C457.633,254.193 456.729,254.745 455.993,255.417L453.497,251.001C454.745,249.977 456.161,249.153 457.745,248.529C459.329,247.905 461.193,247.593 463.337,247.593C464.713,247.593 465.977,247.785 467.129,248.169C468.281,248.553 469.273,249.113 470.105,249.849C470.937,250.585 471.593,251.505 472.073,252.609C472.553,253.713 472.793,255.001 472.793,256.473Z" style="fill:rgb(21,183,183);fill-rule:nonzero;"/>
        <path d="M318.152,54.957L310.088,43.245L314.792,43.245L319.352,49.869L320.696,52.605L322.088,49.869L326.744,43.245L331.064,43.245L322.952,54.765L331.544,67.245L326.984,67.245L321.896,59.949L320.456,57.069L318.968,59.949L313.784,67.245L309.512,67.245L318.152,54.957Z" style="fill:rgb(21,183,183);fill-rule:nonzero;"/>
        <path d="M222.476,23.256L211.388,3L216.044,3L223.916,17.688L224.732,20.616L224.78,20.616L225.644,17.592L233.18,3L237.452,3L226.46,23.208L226.46,36.6L222.476,36.6L222.476,23.256Z" style="fill-rule:nonzero;"/>
        <path d="M480.673,363.402L470.449,346.89L475.249,346.89L482.065,358.266L483.265,361.002L484.417,358.266L491.617,346.89L496.033,346.89L485.473,363.066L496.513,380.49L491.857,380.49L484.273,368.442L482.977,365.562L481.729,368.442L473.953,380.49L469.489,380.49L480.673,363.402Z" style="fill-rule:nonzero;"/>
    </g>
</svg>
