<?xml version="1.0" encoding="UTF-8" standalone="no"?>
<!DOCTYPE svg PUBLIC "-//W3C//DTD SVG 1.1//EN" "http://www.w3.org/Graphics/SVG/1.1/DTD/svg11.dtd">
<svg width="100%" height="100%" viewBox="0 0 281 224" version="1.1" xmlns="http://www.w3.org/2000/svg" xmlns:xlink="http://www.w3.org/1999/xlink" xml:space="preserve" xmlns:serif="http://www.serif.com/" style="fill-rule:evenodd;clip-rule:evenodd;stroke-linecap:square;stroke-linejoin:bevel;stroke-miterlimit:10;">
    <g transform="matrix(1,0,0,1,-69,-3845)">
        <rect id="Vector-analysis" serif:id="Vector analysis" x="0" y="3502" width="2985" height="2387" style="fill:none;"/>
        <g id="Vector-analysis1" serif:id="Vector analysis">
            <rect x="118" y="3875" width="183.185" height="159" style="fill:rgb(217,217,217);stroke:black;stroke-width:3px;"/>
            <g transform="matrix(1,0,0,1,153.05,158.95)">
                <g transform="matrix(24,0,0,24,54.5945,3700.15)">
                    <path d="M0.311,-0.077L0.349,-0.077L0.473,-0.5L0.554,-0.5L0.415,-0.051C0.408,-0.028 0.4,-0.001 0.393,0.029C0.385,0.058 0.374,0.086 0.36,0.112C0.346,0.138 0.327,0.16 0.303,0.178C0.279,0.196 0.248,0.205 0.209,0.205C0.2,0.205 0.191,0.204 0.182,0.202C0.172,0.2 0.162,0.198 0.153,0.195C0.144,0.192 0.135,0.188 0.127,0.184C0.119,0.18 0.113,0.176 0.109,0.172L0.137,0.1C0.141,0.103 0.147,0.107 0.154,0.11C0.161,0.113 0.168,0.116 0.177,0.119C0.185,0.121 0.193,0.123 0.201,0.125C0.209,0.126 0.216,0.127 0.221,0.127C0.271,0.127 0.305,0.085 0.323,-0L0.256,-0L0.046,-0.5L0.136,-0.5L0.311,-0.077Z" style="fill-rule:nonzero;"/>
                </g>
                <g transform="matrix(13.992,0,0,13.992,68.9945,3708.14)">
                    <path d="M0.262,-0L0.262,-0.333C0.262,-0.347 0.262,-0.361 0.261,-0.374C0.26,-0.387 0.257,-0.398 0.254,-0.409C0.25,-0.419 0.245,-0.427 0.238,-0.433C0.231,-0.439 0.221,-0.442 0.21,-0.442C0.187,-0.442 0.168,-0.433 0.153,-0.414C0.137,-0.395 0.125,-0.372 0.117,-0.344L0.117,-0L0.041,-0L0.041,-0.5L0.093,-0.5L0.108,-0.439L0.112,-0.439C0.119,-0.449 0.125,-0.459 0.132,-0.468C0.138,-0.476 0.145,-0.484 0.154,-0.491C0.162,-0.498 0.172,-0.503 0.183,-0.507C0.194,-0.51 0.209,-0.512 0.226,-0.512C0.236,-0.512 0.246,-0.511 0.257,-0.508C0.268,-0.505 0.278,-0.5 0.287,-0.494C0.296,-0.487 0.303,-0.479 0.31,-0.468C0.317,-0.457 0.321,-0.444 0.323,-0.429C0.338,-0.455 0.356,-0.475 0.375,-0.49C0.394,-0.505 0.42,-0.512 0.453,-0.512C0.475,-0.512 0.493,-0.508 0.507,-0.501C0.52,-0.494 0.531,-0.483 0.539,-0.47C0.546,-0.456 0.552,-0.44 0.555,-0.421C0.558,-0.401 0.559,-0.38 0.559,-0.357L0.559,-0L0.483,-0L0.483,-0.34C0.483,-0.354 0.482,-0.367 0.481,-0.38C0.48,-0.392 0.477,-0.403 0.474,-0.412C0.47,-0.421 0.465,-0.429 0.459,-0.434C0.452,-0.439 0.444,-0.442 0.433,-0.442C0.41,-0.442 0.39,-0.433 0.374,-0.414C0.358,-0.395 0.346,-0.369 0.338,-0.334L0.338,-0L0.262,-0Z" style="fill-rule:nonzero;"/>
                </g>
                <g transform="matrix(13.992,0,0,13.992,77.3897,3708.14)">
                    <path d="M0.108,-0.461C0.137,-0.478 0.169,-0.49 0.205,-0.497C0.241,-0.504 0.276,-0.508 0.311,-0.508C0.345,-0.508 0.373,-0.503 0.395,-0.492C0.416,-0.481 0.433,-0.468 0.446,-0.451C0.458,-0.434 0.466,-0.414 0.471,-0.393C0.475,-0.371 0.477,-0.349 0.477,-0.327C0.477,-0.302 0.476,-0.275 0.475,-0.246C0.474,-0.217 0.473,-0.189 0.472,-0.16C0.472,-0.127 0.474,-0.095 0.478,-0.065L0.545,-0.065L0.545,-0L0.412,-0L0.403,-0.075L0.398,-0.075C0.394,-0.069 0.388,-0.061 0.38,-0.052C0.372,-0.043 0.362,-0.034 0.349,-0.025C0.335,-0.016 0.32,-0.008 0.301,-0.001C0.282,0.006 0.26,0.009 0.235,0.009C0.186,0.009 0.147,-0.004 0.118,-0.029C0.089,-0.054 0.075,-0.089 0.075,-0.133C0.075,-0.167 0.083,-0.195 0.098,-0.218C0.113,-0.241 0.134,-0.258 0.162,-0.27C0.19,-0.282 0.224,-0.289 0.264,-0.291C0.303,-0.293 0.348,-0.29 0.397,-0.283C0.4,-0.314 0.401,-0.339 0.399,-0.36C0.396,-0.38 0.391,-0.396 0.383,-0.408C0.374,-0.42 0.363,-0.428 0.348,-0.434C0.333,-0.439 0.314,-0.441 0.292,-0.441C0.262,-0.441 0.233,-0.437 0.206,-0.429C0.179,-0.42 0.154,-0.412 0.133,-0.403L0.108,-0.461ZM0.255,-0.058C0.274,-0.058 0.291,-0.061 0.307,-0.067C0.323,-0.073 0.337,-0.081 0.349,-0.09C0.361,-0.099 0.371,-0.11 0.379,-0.121C0.387,-0.132 0.393,-0.142 0.397,-0.152L0.397,-0.222C0.362,-0.228 0.33,-0.231 0.301,-0.231C0.272,-0.231 0.246,-0.228 0.225,-0.222C0.204,-0.215 0.187,-0.205 0.175,-0.192C0.163,-0.179 0.157,-0.161 0.157,-0.14C0.157,-0.118 0.165,-0.099 0.18,-0.083C0.195,-0.066 0.22,-0.058 0.255,-0.058Z" style="fill-rule:nonzero;"/>
                </g>
                <g transform="matrix(13.992,0,0,13.992,85.7849,3708.14)">
                    <path d="M0.253,-0.256L0.06,-0.5L0.16,-0.5L0.304,-0.312L0.452,-0.5L0.542,-0.5L0.349,-0.26L0.554,-0L0.458,-0L0.299,-0.205L0.137,-0L0.046,-0L0.253,-0.256Z" style="fill-rule:nonzero;"/>
                </g>
            </g>
            <g transform="matrix(1,0,0,1,108.548,355.598)">
                <g transform="matrix(24,0,0,24,54.5945,3700.15)">
                    <path d="M0.311,-0.077L0.349,-0.077L0.473,-0.5L0.554,-0.5L0.415,-0.051C0.408,-0.028 0.4,-0.001 0.393,0.029C0.385,0.058 0.374,0.086 0.36,0.112C0.346,0.138 0.327,0.16 0.303,0.178C0.279,0.196 0.248,0.205 0.209,0.205C0.2,0.205 0.191,0.204 0.182,0.202C0.172,0.2 0.162,0.198 0.153,0.195C0.144,0.192 0.135,0.188 0.127,0.184C0.119,0.18 0.113,0.176 0.109,0.172L0.137,0.1C0.141,0.103 0.147,0.107 0.154,0.11C0.161,0.113 0.168,0.116 0.177,0.119C0.185,0.121 0.193,0.123 0.201,0.125C0.209,0.126 0.216,0.127 0.221,0.127C0.271,0.127 0.305,0.085 0.323,-0L0.256,-0L0.046,-0.5L0.136,-0.5L0.311,-0.077Z" style="fill-rule:nonzero;"/>
                </g>
                <g transform="matrix(13.992,0,0,13.992,68.9945,3708.14)">
                    <path d="M0.262,-0L0.262,-0.333C0.262,-0.347 0.262,-0.361 0.261,-0.374C0.26,-0.387 0.257,-0.398 0.254,-0.409C0.25,-0.419 0.245,-0.427 0.238,-0.433C0.231,-0.439 0.221,-0.442 0.21,-0.442C0.187,-0.442 0.168,-0.433 0.153,-0.414C0.137,-0.395 0.125,-0.372 0.117,-0.344L0.117,-0L0.041,-0L0.041,-0.5L0.093,-0.5L0.108,-0.439L0.112,-0.439C0.119,-0.449 0.125,-0.459 0.132,-0.468C0.138,-0.476 0.145,-0.484 0.154,-0.491C0.162,-0.498 0.172,-0.503 0.183,-0.507C0.194,-0.51 0.209,-0.512 0.226,-0.512C0.236,-0.512 0.246,-0.511 0.257,-0.508C0.268,-0.505 0.278,-0.5 0.287,-0.494C0.296,-0.487 0.303,-0.479 0.31,-0.468C0.317,-0.457 0.321,-0.444 0.323,-0.429C0.338,-0.455 0.356,-0.475 0.375,-0.49C0.394,-0.505 0.42,-0.512 0.453,-0.512C0.475,-0.512 0.493,-0.508 0.507,-0.501C0.52,-0.494 0.531,-0.483 0.539,-0.47C0.546,-0.456 0.552,-0.44 0.555,-0.421C0.558,-0.401 0.559,-0.38 0.559,-0.357L0.559,-0L0.483,-0L0.483,-0.34C0.483,-0.354 0.482,-0.367 0.481,-0.38C0.48,-0.392 0.477,-0.403 0.474,-0.412C0.47,-0.421 0.465,-0.429 0.459,-0.434C0.452,-0.439 0.444,-0.442 0.433,-0.442C0.41,-0.442 0.39,-0.433 0.374,-0.414C0.358,-0.395 0.346,-0.369 0.338,-0.334L0.338,-0L0.262,-0Z" style="fill-rule:nonzero;"/>
                </g>
                <g transform="matrix(13.992,0,0,13.992,77.3897,3708.14)">
                    <path d="M0.105,-0L0.105,-0.067L0.279,-0.067L0.279,-0.433L0.105,-0.433L0.105,-0.5L0.359,-0.5L0.359,-0.067L0.529,-0.067L0.529,-0L0.105,-0ZM0.252,-0.642C0.252,-0.66 0.258,-0.676 0.27,-0.689C0.282,-0.701 0.297,-0.708 0.316,-0.708C0.335,-0.708 0.352,-0.701 0.365,-0.689C0.378,-0.676 0.384,-0.66 0.384,-0.642C0.384,-0.625 0.378,-0.61 0.365,-0.598C0.352,-0.586 0.335,-0.58 0.316,-0.58C0.297,-0.58 0.282,-0.586 0.27,-0.598C0.258,-0.61 0.252,-0.625 0.252,-0.642Z" style="fill-rule:nonzero;"/>
                </g>
                <g transform="matrix(13.992,0,0,13.992,85.7849,3708.14)">
                    <path d="M0.093,-0.325C0.093,-0.331 0.093,-0.339 0.093,-0.349C0.092,-0.358 0.092,-0.368 0.091,-0.379C0.09,-0.389 0.089,-0.399 0.089,-0.409C0.088,-0.419 0.086,-0.428 0.085,-0.435L0.018,-0.435L0.018,-0.5L0.152,-0.5L0.161,-0.419L0.166,-0.419C0.173,-0.43 0.182,-0.442 0.193,-0.453C0.204,-0.464 0.216,-0.474 0.231,-0.483C0.246,-0.492 0.262,-0.499 0.28,-0.504C0.298,-0.509 0.317,-0.512 0.337,-0.512C0.368,-0.512 0.395,-0.509 0.419,-0.502C0.442,-0.495 0.462,-0.484 0.478,-0.467C0.493,-0.45 0.505,-0.427 0.513,-0.398C0.521,-0.369 0.525,-0.332 0.525,-0.287L0.525,-0L0.447,-0L0.447,-0.272C0.447,-0.327 0.438,-0.369 0.42,-0.397C0.402,-0.425 0.369,-0.439 0.322,-0.439C0.305,-0.439 0.288,-0.436 0.272,-0.429C0.255,-0.422 0.24,-0.412 0.227,-0.401C0.214,-0.39 0.202,-0.377 0.192,-0.362C0.182,-0.347 0.175,-0.331 0.17,-0.314L0.17,-0L0.093,-0L0.093,-0.325Z" style="fill-rule:nonzero;"/>
                </g>
            </g>
            <g transform="matrix(1,0,0,1,15.3289,286.598)">
                <g transform="matrix(24,0,0,24,54.5945,3700.15)">
                    <path d="M0.253,-0.256L0.06,-0.5L0.16,-0.5L0.304,-0.312L0.452,-0.5L0.542,-0.5L0.349,-0.26L0.554,-0L0.458,-0L0.299,-0.205L0.137,-0L0.046,-0L0.253,-0.256Z" style="fill-rule:nonzero;"/>
                </g>
                <g transform="matrix(13.992,0,0,13.992,68.9945,3708.14)">
                    <path d="M0.262,-0L0.262,-0.333C0.262,-0.347 0.262,-0.361 0.261,-0.374C0.26,-0.387 0.257,-0.398 0.254,-0.409C0.25,-0.419 0.245,-0.427 0.238,-0.433C0.231,-0.439 0.221,-0.442 0.21,-0.442C0.187,-0.442 0.168,-0.433 0.153,-0.414C0.137,-0.395 0.125,-0.372 0.117,-0.344L0.117,-0L0.041,-0L0.041,-0.5L0.093,-0.5L0.108,-0.439L0.112,-0.439C0.119,-0.449 0.125,-0.459 0.132,-0.468C0.138,-0.476 0.145,-0.484 0.154,-0.491C0.162,-0.498 0.172,-0.503 0.183,-0.507C0.194,-0.51 0.209,-0.512 0.226,-0.512C0.236,-0.512 0.246,-0.511 0.257,-0.508C0.268,-0.505 0.278,-0.5 0.287,-0.494C0.296,-0.487 0.303,-0.479 0.31,-0.468C0.317,-0.457 0.321,-0.444 0.323,-0.429C0.338,-0.455 0.356,-0.475 0.375,-0.49C0.394,-0.505 0.42,-0.512 0.453,-0.512C0.475,-0.512 0.493,-0.508 0.507,-0.501C0.52,-0.494 0.531,-0.483 0.539,-0.47C0.546,-0.456 0.552,-0.44 0.555,-0.421C0.558,-0.401 0.559,-0.38 0.559,-0.357L0.559,-0L0.483,-0L0.483,-0.34C0.483,-0.354 0.482,-0.367 0.481,-0.38C0.48,-0.392 0.477,-0.403 0.474,-0.412C0.47,-0.421 0.465,-0.429 0.459,-0.434C0.452,-0.439 0.444,-0.442 0.433,-0.442C0.41,-0.442 0.39,-0.433 0.374,-0.414C0.358,-0.395 0.346,-0.369 0.338,-0.334L0.338,-0L0.262,-0Z" style="fill-rule:nonzero;"/>
                </g>
                <g transform="matrix(13.992,0,0,13.992,77.3897,3708.14)">
                    <path d="M0.105,-0L0.105,-0.067L0.279,-0.067L0.279,-0.433L0.105,-0.433L0.105,-0.5L0.359,-0.5L0.359,-0.067L0.529,-0.067L0.529,-0L0.105,-0ZM0.252,-0.642C0.252,-0.66 0.258,-0.676 0.27,-0.689C0.282,-0.701 0.297,-0.708 0.316,-0.708C0.335,-0.708 0.352,-0.701 0.365,-0.689C0.378,-0.676 0.384,-0.66 0.384,-0.642C0.384,-0.625 0.378,-0.61 0.365,-0.598C0.352,-0.586 0.335,-0.58 0.316,-0.58C0.297,-0.58 0.282,-0.586 0.27,-0.598C0.258,-0.61 0.252,-0.625 0.252,-0.642Z" style="fill-rule:nonzero;"/>
                </g>
                <g transform="matrix(13.992,0,0,13.992,85.7849,3708.14)">
                    <path d="M0.093,-0.325C0.093,-0.331 0.093,-0.339 0.093,-0.349C0.092,-0.358 0.092,-0.368 0.091,-0.379C0.09,-0.389 0.089,-0.399 0.089,-0.409C0.088,-0.419 0.086,-0.428 0.085,-0.435L0.018,-0.435L0.018,-0.5L0.152,-0.5L0.161,-0.419L0.166,-0.419C0.173,-0.43 0.182,-0.442 0.193,-0.453C0.204,-0.464 0.216,-0.474 0.231,-0.483C0.246,-0.492 0.262,-0.499 0.28,-0.504C0.298,-0.509 0.317,-0.512 0.337,-0.512C0.368,-0.512 0.395,-0.509 0.419,-0.502C0.442,-0.495 0.462,-0.484 0.478,-0.467C0.493,-0.45 0.505,-0.427 0.513,-0.398C0.521,-0.369 0.525,-0.332 0.525,-0.287L0.525,-0L0.447,-0L0.447,-0.272C0.447,-0.327 0.438,-0.369 0.42,-0.397C0.402,-0.425 0.369,-0.439 0.322,-0.439C0.305,-0.439 0.288,-0.436 0.272,-0.429C0.255,-0.422 0.24,-0.412 0.227,-0.401C0.214,-0.39 0.202,-0.377 0.192,-0.362C0.182,-0.347 0.175,-0.331 0.17,-0.314L0.17,-0L0.093,-0L0.093,-0.325Z" style="fill-rule:nonzero;"/>
                </g>
            </g>
            <g transform="matrix(1,0,0,1,254.664,238.775)">
                <g transform="matrix(24,0,0,24,54.5945,3700.15)">
                    <path d="M0.253,-0.256L0.06,-0.5L0.16,-0.5L0.304,-0.312L0.452,-0.5L0.542,-0.5L0.349,-0.26L0.554,-0L0.458,-0L0.299,-0.205L0.137,-0L0.046,-0L0.253,-0.256Z" style="fill-rule:nonzero;"/>
                </g>
                <g transform="matrix(13.992,0,0,13.992,68.9945,3708.14)">
                    <path d="M0.262,-0L0.262,-0.333C0.262,-0.347 0.262,-0.361 0.261,-0.374C0.26,-0.387 0.257,-0.398 0.254,-0.409C0.25,-0.419 0.245,-0.427 0.238,-0.433C0.231,-0.439 0.221,-0.442 0.21,-0.442C0.187,-0.442 0.168,-0.433 0.153,-0.414C0.137,-0.395 0.125,-0.372 0.117,-0.344L0.117,-0L0.041,-0L0.041,-0.5L0.093,-0.5L0.108,-0.439L0.112,-0.439C0.119,-0.449 0.125,-0.459 0.132,-0.468C0.138,-0.476 0.145,-0.484 0.154,-0.491C0.162,-0.498 0.172,-0.503 0.183,-0.507C0.194,-0.51 0.209,-0.512 0.226,-0.512C0.236,-0.512 0.246,-0.511 0.257,-0.508C0.268,-0.505 0.278,-0.5 0.287,-0.494C0.296,-0.487 0.303,-0.479 0.31,-0.468C0.317,-0.457 0.321,-0.444 0.323,-0.429C0.338,-0.455 0.356,-0.475 0.375,-0.49C0.394,-0.505 0.42,-0.512 0.453,-0.512C0.475,-0.512 0.493,-0.508 0.507,-0.501C0.52,-0.494 0.531,-0.483 0.539,-0.47C0.546,-0.456 0.552,-0.44 0.555,-0.421C0.558,-0.401 0.559,-0.38 0.559,-0.357L0.559,-0L0.483,-0L0.483,-0.34C0.483,-0.354 0.482,-0.367 0.481,-0.38C0.48,-0.392 0.477,-0.403 0.474,-0.412C0.47,-0.421 0.465,-0.429 0.459,-0.434C0.452,-0.439 0.444,-0.442 0.433,-0.442C0.41,-0.442 0.39,-0.433 0.374,-0.414C0.358,-0.395 0.346,-0.369 0.338,-0.334L0.338,-0L0.262,-0Z" style="fill-rule:nonzero;"/>
                </g>
                <g transform="matrix(13.992,0,0,13.992,77.3897,3708.14)">
                    <path d="M0.108,-0.461C0.137,-0.478 0.169,-0.49 0.205,-0.497C0.241,-0.504 0.276,-0.508 0.311,-0.508C0.345,-0.508 0.373,-0.503 0.395,-0.492C0.416,-0.481 0.433,-0.468 0.446,-0.451C0.458,-0.434 0.466,-0.414 0.471,-0.393C0.475,-0.371 0.477,-0.349 0.477,-0.327C0.477,-0.302 0.476,-0.275 0.475,-0.246C0.474,-0.217 0.473,-0.189 0.472,-0.16C0.472,-0.127 0.474,-0.095 0.478,-0.065L0.545,-0.065L0.545,-0L0.412,-0L0.403,-0.075L0.398,-0.075C0.394,-0.069 0.388,-0.061 0.38,-0.052C0.372,-0.043 0.362,-0.034 0.349,-0.025C0.335,-0.016 0.32,-0.008 0.301,-0.001C0.282,0.006 0.26,0.009 0.235,0.009C0.186,0.009 0.147,-0.004 0.118,-0.029C0.089,-0.054 0.075,-0.089 0.075,-0.133C0.075,-0.167 0.083,-0.195 0.098,-0.218C0.113,-0.241 0.134,-0.258 0.162,-0.27C0.19,-0.282 0.224,-0.289 0.264,-0.291C0.303,-0.293 0.348,-0.29 0.397,-0.283C0.4,-0.314 0.401,-0.339 0.399,-0.36C0.396,-0.38 0.391,-0.396 0.383,-0.408C0.374,-0.42 0.363,-0.428 0.348,-0.434C0.333,-0.439 0.314,-0.441 0.292,-0.441C0.262,-0.441 0.233,-0.437 0.206,-0.429C0.179,-0.42 0.154,-0.412 0.133,-0.403L0.108,-0.461ZM0.255,-0.058C0.274,-0.058 0.291,-0.061 0.307,-0.067C0.323,-0.073 0.337,-0.081 0.349,-0.09C0.361,-0.099 0.371,-0.11 0.379,-0.121C0.387,-0.132 0.393,-0.142 0.397,-0.152L0.397,-0.222C0.362,-0.228 0.33,-0.231 0.301,-0.231C0.272,-0.231 0.246,-0.228 0.225,-0.222C0.204,-0.215 0.187,-0.205 0.175,-0.192C0.163,-0.179 0.157,-0.161 0.157,-0.14C0.157,-0.118 0.165,-0.099 0.18,-0.083C0.195,-0.066 0.22,-0.058 0.255,-0.058Z" style="fill-rule:nonzero;"/>
                </g>
                <g transform="matrix(13.992,0,0,13.992,85.7849,3708.14)">
                    <path d="M0.253,-0.256L0.06,-0.5L0.16,-0.5L0.304,-0.312L0.452,-0.5L0.542,-0.5L0.349,-0.26L0.554,-0L0.458,-0L0.299,-0.205L0.137,-0L0.046,-0L0.253,-0.256Z" style="fill-rule:nonzero;"/>
                </g>
            </g>
            <g transform="matrix(1,-0,-0,1,69,3845)">
                <path d="M239.975,43.226L238.217,36.752L244.451,39.23L239.975,43.226Z"/>
                <path d="M248,78C248,78 252.01,54.615 241.414,40.333" style="fill:none;stroke:black;stroke-width:1px;stroke-dasharray:2,4,0,0;"/>
            </g>
            <g id="dashed">
            </g>
            <g transform="matrix(0.642194,0,0,0.642194,119.799,1491.42)">
                <circle cx="148.208" cy="3711.62" r="8.384"/>
            </g>
            <g transform="matrix(0.642194,0,0,0.642194,59.7363,1528.27)">
                <circle cx="148.208" cy="3711.62" r="8.384"/>
            </g>
            <g transform="matrix(0.642194,0,0,0.642194,72.7515,1549.06)">
                <circle cx="148.208" cy="3711.62" r="8.384"/>
            </g>
            <g transform="matrix(0.642194,0,0,0.642194,22.8218,1597.71)">
                <circle cx="148.208" cy="3711.62" r="8.384"/>
            </g>
            <g transform="matrix(0.642194,0,0,0.642194,178.815,1631.93)">
                <circle cx="148.208" cy="3711.62" r="8.384"/>
            </g>
            <g transform="matrix(0.642194,0,0,0.642194,140.425,1628.76)">
                <circle cx="148.208" cy="3711.62" r="8.384"/>
            </g>
            <g transform="matrix(0.642194,0,0,0.642194,142.66,1595.43)">
                <circle cx="148.208" cy="3711.62" r="8.384"/>
            </g>
            <g transform="matrix(0.642194,0,0,0.642194,149.583,1618.31)">
                <circle cx="148.208" cy="3711.62" r="8.384"/>
            </g>
            <g transform="matrix(0.642194,0,0,0.642194,75.1207,1650.42)">
                <circle cx="148.208" cy="3711.62" r="8.384"/>
            </g>
            <g transform="matrix(0.642194,0,0,0.642194,148.752,1556.54)">
                <circle cx="148.208" cy="3711.62" r="8.384"/>
            </g>
            <g transform="matrix(0.642194,0,0,0.642194,125.041,1515.65)">
                <circle cx="148.208" cy="3711.62" r="8.384"/>
            </g>
            <g transform="matrix(0.642194,0,0,0.642194,164.776,1592.32)">
                <circle cx="148.208" cy="3711.62" r="8.384"/>
            </g>
            <g transform="matrix(0.642194,0,0,0.642194,177.663,1582.67)">
                <circle cx="148.208" cy="3711.62" r="8.384"/>
            </g>
            <g transform="matrix(0.642194,0,0,0.642194,181.663,1565.54)">
                <circle cx="148.208" cy="3711.62" r="8.384"/>
            </g>
            <g transform="matrix(0.642194,0,0,0.642194,154.967,1577.29)">
                <circle cx="148.208" cy="3711.62" r="8.384"/>
            </g>
            <g transform="matrix(0.642194,0,0,0.642194,85.8896,1586.94)">
                <circle cx="148.208" cy="3711.62" r="8.384"/>
            </g>
            <g transform="matrix(0.642194,0,0,0.642194,168.046,1504.88)">
                <circle cx="148.208" cy="3711.62" r="8.384"/>
            </g>
            <g transform="matrix(0.642194,0,0,0.642194,172.278,1549.06)">
                <circle cx="148.208" cy="3711.62" r="8.384"/>
            </g>
            <g transform="matrix(0.642194,0,0,0.642194,104.853,1585)">
                <circle cx="148.208" cy="3711.62" r="8.384"/>
            </g>
            <g transform="matrix(0.642194,0,0,0.642194,70.5052,1629)">
                <circle cx="148.208" cy="3711.62" r="8.384"/>
            </g>
            <g transform="matrix(0.642194,0,0,0.642194,54.3518,1618.23)">
                <circle cx="148.208" cy="3711.62" r="8.384"/>
            </g>
            <g transform="matrix(0.642194,0,0,0.642194,82.469,1618.23)">
                <circle cx="148.208" cy="3711.62" r="8.384"/>
            </g>
            <g transform="matrix(0.642194,0,0,0.642194,104.007,1629)">
                <circle cx="148.208" cy="3711.62" r="8.384"/>
            </g>
            <g transform="matrix(0.642194,0,0,0.642194,206.007,1549.34)">
                <circle cx="148.208" cy="3711.62" r="8.384"/>
            </g>
            <g transform="matrix(0.642194,0,0,0.642194,181.007,1533.65)">
                <circle cx="148.208" cy="3711.62" r="8.384"/>
            </g>
            <g transform="matrix(0.642194,0,0,0.642194,125.041,1565.49)">
                <circle cx="148.208" cy="3711.62" r="8.384"/>
            </g>
            <g transform="matrix(0.642194,0,0,0.642194,157.041,1533.65)">
                <circle cx="148.208" cy="3711.62" r="8.384"/>
            </g>
            <g transform="matrix(0.642194,0,0,0.642194,129.289,1583)">
                <circle cx="148.208" cy="3711.62" r="8.384"/>
            </g>
            <g transform="matrix(0.642194,0,0,0.642194,119.657,1611.77)">
                <circle cx="148.208" cy="3711.62" r="8.384"/>
            </g>
            <g transform="matrix(0.642194,0,0,0.642194,93.2379,1522.88)">
                <circle cx="148.208" cy="3711.62" r="8.384"/>
            </g>
            <g transform="matrix(0.642194,0,0,0.642194,51.3518,1565.54)">
                <circle cx="148.208" cy="3711.62" r="8.384"/>
            </g>
            <g transform="matrix(0.642194,0,0,0.642194,136.064,1538.29)">
                <circle cx="148.208" cy="3711.62" r="8.384"/>
            </g>
            <g transform="matrix(0.642194,0,0,0.642194,93.2379,1554.72)">
                <circle cx="148.208" cy="3711.62" r="8.384"/>
            </g>
            <g transform="matrix(0.642194,0,0,0.642194,59.7084,1593.44)">
                <circle cx="148.208" cy="3711.62" r="8.384"/>
            </g>
            <g transform="matrix(0.642194,0,0,0.642194,22.8477,1651.01)">
                <circle cx="148.208" cy="3711.62" r="8.384" style="fill:white;stroke:black;stroke-width:4.67px;stroke-linejoin:miter;"/>
            </g>
            <g transform="matrix(0.642194,0,0,0.642194,206.046,1491.56)">
                <circle cx="148.208" cy="3711.62" r="8.384" style="fill:white;stroke:black;stroke-width:4.67px;stroke-linejoin:miter;"/>
            </g>
            <g transform="matrix(1,-0,-0,1,69,3845)">
                <path d="M222.967,17.3L225.125,23.651L218.749,21.567L222.967,17.3Z"/>
                <path d="M158.667,8C158.667,8 200.684,2.169 221.711,20.277" style="fill:none;stroke:black;stroke-width:1px;stroke-dasharray:2,4,0,0;"/>
            </g>
            <g transform="matrix(1,-0,-0,1,69,3845)">
                <path d="M58.852,200.73L55.41,194.972L62.082,195.674L58.852,200.73Z"/>
                <path d="M93,206C93,206 78.253,208.724 59.456,197.556" style="fill:none;stroke:black;stroke-width:1px;stroke-dasharray:2,4,0,0;"/>
            </g>
            <g transform="matrix(1,-0,-0,1,69,3845)">
                <path d="M39.765,177.763L41.641,184.203L35.363,181.84L39.765,177.763Z"/>
                <path d="M30,156.805C30,156.805 30.147,170.285 38.38,180.682" style="fill:none;stroke:black;stroke-width:1px;stroke-dasharray:2,4,0,0;"/>
            </g>
        </g>
    </g>
</svg>
