<?xml version="1.0" encoding="UTF-8" standalone="no"?>
<!DOCTYPE svg PUBLIC "-//W3C//DTD SVG 1.1//EN" "http://www.w3.org/Graphics/SVG/1.1/DTD/svg11.dtd">
<svg width="100%" height="100%" viewBox="0 0 1715 636" version="1.1" xmlns="http://www.w3.org/2000/svg" xmlns:xlink="http://www.w3.org/1999/xlink" xml:space="preserve" xmlns:serif="http://www.serif.com/" style="fill-rule:evenodd;clip-rule:evenodd;stroke-linejoin:round;stroke-miterlimit:10;">
    <rect id="Artboard8" x="-177" y="-946" width="5544" height="2861" style="fill:none;"/>
    <g id="Artboard81" serif:id="Artboard8">
        <path d="M582.961,293L715.448,75L1009.96,197L904.442,563L582.961,293Z" style="fill:rgb(172,172,172);stroke:black;stroke-width:8px;"/>
        <path d="M738.391,19.733L691.975,134.718L986.753,253.712L1033.17,138.727L738.391,19.733Z" style="fill:rgb(250,112,255);fill-opacity:0.5;stroke:black;stroke-width:4px;"/>
        <path d="M770.14,108.14L664.145,43.788L531.498,262.273L637.493,326.624L770.14,108.14Z" style="fill:rgb(250,112,255);fill-opacity:0.5;stroke:black;stroke-width:4px;"/>
        <path d="M866.149,608.422L945.57,513.194L623.93,244.943L544.509,340.17L866.149,608.422Z" style="fill:rgb(250,112,255);fill-opacity:0.5;stroke:black;stroke-width:4px;"/>
        <path d="M1069.01,213.555L949.748,179.62L846.019,544.187L965.285,578.121L1069.01,213.555Z" style="fill:rgb(250,112,255);fill-opacity:0.5;stroke:black;stroke-width:4px;"/>
        <path d="M671.798,33.872C695.994,9.676 735.283,9.676 759.479,33.872C783.676,58.069 783.676,97.357 759.479,121.554C735.283,145.75 695.994,145.75 671.798,121.554C647.602,97.357 647.602,58.069 671.798,33.872Z" style="fill:rgb(45,231,231);fill-opacity:0.5;stroke:black;stroke-width:4px;"/>
        <path d="M965.65,151.916C989.847,127.72 1029.13,127.72 1053.33,151.916C1077.53,176.112 1077.53,215.401 1053.33,239.597C1029.13,263.793 989.847,263.793 965.65,239.597C941.454,215.401 941.454,176.112 965.65,151.916Z" style="fill:rgb(45,231,231);fill-opacity:0.5;stroke:black;stroke-width:4px;"/>
        <path d="M862.479,516.167C886.675,491.97 925.964,491.97 950.16,516.167C974.357,540.363 974.357,579.652 950.16,603.848C925.964,628.044 886.675,628.044 862.479,603.848C838.283,579.652 838.283,540.363 862.479,516.167Z" style="fill:rgb(45,231,231);fill-opacity:0.5;stroke:black;stroke-width:4px;"/>
        <path d="M541.429,249.226C565.625,225.03 604.914,225.03 629.11,249.226C653.307,273.422 653.307,312.711 629.11,336.907C604.914,361.104 565.625,361.104 541.429,336.907C517.233,312.711 517.233,273.422 541.429,249.226Z" style="fill:rgb(45,231,231);fill-opacity:0.5;stroke:black;stroke-width:4px;"/>
        <path d="M1286.14,51.662C1289.12,45.216 1293.27,39.181 1298.58,33.872C1316.54,15.909 1342.82,11.282 1365.07,19.989L1365.17,19.733L1654.16,136.39C1663.66,139.239 1672.61,144.415 1680.11,151.916C1696.77,168.58 1701.96,192.402 1695.67,213.521L1695.79,213.555L1592.06,578.121L1591.72,578.023C1588.92,587.852 1583.67,597.12 1575.94,604.848C1551.74,629.044 1512.45,629.044 1488.26,604.848C1487.72,604.308 1487.19,603.761 1486.68,603.21L1171.29,340.17L1171.47,339.948C1170.36,338.98 1169.27,337.967 1168.21,336.907C1146.9,315.602 1144.36,282.597 1160.57,258.496L1286.14,51.662Z" style="fill:rgb(248,253,112);stroke:black;stroke-width:8px;"/>
        <path d="M497.499,48.726L560.499,80.226L497.499,111.726L497.499,48.726Z" style="fill:rgb(179,179,179);"/>
        <path d="M426.375,80.226L510.099,80.226" style="fill:none;stroke:rgb(179,179,179);stroke-width:14px;"/>
        <path d="M1143.94,48.726L1206.94,80.226L1143.94,111.726L1143.94,48.726Z" style="fill:rgb(179,179,179);"/>
        <path d="M1072.82,80.226L1156.54,80.226" style="fill:none;stroke:rgb(179,179,179);stroke-width:14px;"/>
        <path d="M32.44,293L164.926,75L459.44,197L353.92,563L32.44,293Z" style="fill:rgb(172,172,172);stroke:black;stroke-width:8px;"/>
    </g>
</svg>
