<?xml version="1.0" encoding="UTF-8" standalone="no"?>
<!DOCTYPE svg PUBLIC "-//W3C//DTD SVG 1.1//EN" "http://www.w3.org/Graphics/SVG/1.1/DTD/svg11.dtd">
<svg width="100%" height="100%" viewBox="0 0 536 1037" version="1.1" xmlns="http://www.w3.org/2000/svg" xmlns:xlink="http://www.w3.org/1999/xlink" xml:space="preserve" xmlns:serif="http://www.serif.com/" style="fill-rule:evenodd;clip-rule:evenodd;stroke-linejoin:round;stroke-miterlimit:10;">
    <rect id="Spatial-Databases-2" serif:id="Spatial Databases 2" x="-3101.91" y="-203" width="3858" height="5937" style="fill:none;"/>
    <path d="M41.372,1003.08C35,1008.99 34.628,1018.96 40.541,1025.34C46.454,1031.71 56.428,1032.08 62.799,1026.17C69.171,1020.25 69.543,1010.28 63.63,1003.91C57.717,997.537 47.744,997.164 41.372,1003.08Z" style="fill:rgb(255,189,21);"/>
    <path d="M444.1,960.178C452.374,957.511 461.256,962.062 463.923,970.336C466.59,978.609 462.039,987.491 453.765,990.158C445.492,992.826 436.609,988.274 433.942,980.001C431.275,971.727 435.827,962.845 444.1,960.178Z" style="fill:rgb(255,189,21);"/>
    <path d="M59.013,1008.19C141.113,942.523 208.952,1023.95 216.923,969.336C225.485,910.67 212.034,865.212 288.923,859.336C432.025,848.399 264.335,1029.44 439.939,978.068" style="fill:none;stroke:rgb(255,189,21);stroke-width:6px;"/>
    <path d="M38.449,1009.56C35.727,1016.31 39.004,1024.01 45.762,1026.73C52.52,1029.45 60.216,1026.17 62.938,1019.42C65.659,1012.66 62.382,1004.96 55.624,1002.24C48.866,999.52 41.17,1002.8 38.449,1009.56Z" style="fill:none;stroke:rgb(110,195,0);stroke-width:6px;stroke-linejoin:miter;"/>
    <path d="M55.624,1002.24C55.624,1002.24 78.018,946.633 48.624,883.516C19.23,820.399 4.267,765.937 40.541,750.336C76.815,734.735 110.364,805.106 126.843,732.718" style="fill:none;stroke:rgb(110,195,0);stroke-width:6px;"/>
    <path d="M98.687,40.22L98.687,32.516L101.999,32.516C102.623,32.516 103.259,32.504 103.907,32.48C104.555,32.456 105.191,32.408 105.815,32.336C106.439,32.264 106.943,32.18 107.327,32.084C109.007,31.7 110.447,31.016 111.647,30.032C112.847,29.048 113.447,27.716 113.447,26.036C113.447,23.732 112.715,22.16 111.251,21.32C109.787,20.48 107.855,20.06 105.455,20.06C103.295,20.06 101.279,20.348 99.407,20.924C97.535,21.5 96.119,22.052 95.159,22.58L92.639,14.228C93.167,13.94 93.923,13.628 94.907,13.292C95.891,12.956 97.019,12.632 98.291,12.32C99.563,12.008 100.943,11.756 102.431,11.564C103.919,11.372 105.431,11.276 106.967,11.276C109.079,11.276 111.143,11.468 113.159,11.852C115.175,12.236 116.975,12.908 118.559,13.868C120.143,14.828 121.415,16.112 122.375,17.72C123.335,19.328 123.815,21.38 123.815,23.876C123.815,26.372 123.155,28.676 121.835,30.788C120.515,32.9 118.391,34.436 115.463,35.396L115.463,35.756C118.583,36.38 121.019,37.724 122.771,39.788C124.523,41.852 125.399,44.612 125.399,48.068C125.399,50.804 124.847,53.144 123.743,55.088C122.639,57.032 121.187,58.628 119.387,59.876C117.587,61.124 115.511,62.048 113.159,62.648C110.807,63.248 108.407,63.548 105.959,63.548C102.791,63.548 99.911,63.284 97.319,62.756C94.727,62.228 92.735,61.604 91.343,60.884L93.863,52.316C94.967,52.844 96.551,53.384 98.615,53.936C100.679,54.488 103.127,54.764 105.959,54.764C107.015,54.764 108.083,54.632 109.163,54.368C110.243,54.104 111.215,53.672 112.079,53.072C112.943,52.472 113.639,51.692 114.167,50.732C114.695,49.772 114.959,48.62 114.959,47.276C114.959,45.02 114.119,43.316 112.439,42.164C110.759,41.012 107.759,40.388 103.439,40.292C102.863,40.244 102.431,40.22 102.143,40.22L98.687,40.22Z" style="fill-rule:nonzero;"/>
    <path d="M131.807,28.628C133.727,27.764 136.007,27.08 138.647,26.576C141.287,26.072 144.047,25.82 146.927,25.82C149.423,25.82 151.511,26.12 153.191,26.72C154.871,27.32 156.203,28.172 157.187,29.276C158.171,30.38 158.867,31.7 159.275,33.236C159.683,34.772 159.887,36.5 159.887,38.42C159.887,40.532 159.815,42.656 159.671,44.792C159.527,46.928 159.443,49.028 159.419,51.092C159.395,53.156 159.455,55.16 159.599,57.104C159.743,59.048 160.103,60.884 160.679,62.612L153.047,62.612L151.535,57.644L151.175,57.644C150.215,59.132 148.883,60.416 147.179,61.496C145.475,62.576 143.279,63.116 140.591,63.116C138.911,63.116 137.399,62.864 136.055,62.36C134.711,61.856 133.559,61.136 132.599,60.2C131.639,59.264 130.895,58.16 130.367,56.888C129.839,55.616 129.575,54.188 129.575,52.604C129.575,50.396 130.067,48.536 131.051,47.024C132.035,45.512 133.451,44.288 135.299,43.352C137.147,42.416 139.355,41.768 141.923,41.408C144.491,41.048 147.359,40.94 150.527,41.084C150.863,38.396 150.671,36.464 149.951,35.288C149.231,34.112 147.623,33.524 145.127,33.524C143.255,33.524 141.275,33.716 139.187,34.1C137.099,34.484 135.383,34.988 134.039,35.612L131.807,28.628ZM143.687,55.412C145.559,55.412 147.047,54.992 148.151,54.152C149.255,53.312 150.071,52.412 150.599,51.452L150.599,46.772C149.111,46.628 147.683,46.604 146.315,46.7C144.947,46.796 143.735,47.012 142.679,47.348C141.623,47.684 140.783,48.164 140.159,48.788C139.535,49.412 139.223,50.204 139.223,51.164C139.223,52.508 139.619,53.552 140.411,54.296C141.203,55.04 142.295,55.412 143.687,55.412Z" style="fill-rule:nonzero;"/>
    <path d="M198.551,46.052L199.127,38.564L198.767,38.564L195.887,44.756L189.119,55.916L185.735,55.916L178.319,44.756L175.583,38.564L175.151,38.564L176.087,45.98L176.087,62.54L167.735,62.54L167.735,26.54L177.455,26.54L185.735,40.076L187.751,44.612L188.039,44.612L190.127,39.932L197.759,26.54L207.551,26.54L207.551,62.54L198.551,62.54L198.551,46.052Z" style="fill-rule:nonzero;"/>
    <path d="M227.567,47.636L225.047,47.636L225.047,62.54L215.687,62.54L215.687,26.54L225.047,26.54L225.047,41.876L227.279,40.868L235.703,26.54L245.711,26.54L236.999,40.22L233.327,42.956L237.359,45.764L247.079,62.54L236.351,62.54L227.567,47.636Z" style="fill-rule:nonzero;"/>
    <path d="M271.991,48.428L260.255,48.428L260.255,62.54L250.895,62.54L250.895,26.54L260.255,26.54L260.255,40.076L271.991,40.076L271.991,26.54L281.351,26.54L281.351,62.54L271.991,62.54L271.991,48.428Z" style="fill-rule:nonzero;"/>
    <path d="M302.663,46.772L303.959,52.388L304.391,52.388L305.327,46.7L310.799,26.54L320.447,26.54L309.503,59.012C308.591,61.7 307.715,64.16 306.875,66.392C306.035,68.624 305.111,70.556 304.103,72.188C303.095,73.82 301.979,75.08 300.755,75.968C299.531,76.856 298.079,77.3 296.399,77.3C293.903,77.3 291.911,76.892 290.423,76.076L292.151,68.588C292.871,68.876 293.591,69.02 294.311,69.02C295.415,69.02 296.483,68.552 297.515,67.616C298.547,66.68 299.327,64.988 299.855,62.54L284.807,26.54L296.039,26.54L302.663,46.772Z" style="fill-rule:nonzero;"/>
    <path d="M349.895,34.82L339.887,34.82L339.887,62.54L330.239,62.54L330.239,34.82L319.943,34.82L319.943,26.54L349.895,26.54L349.895,34.82Z" style="fill-rule:nonzero;"/>
    <path d="M363.431,54.692C364.871,54.98 366.239,55.124 367.535,55.124C369.695,55.124 371.207,54.728 372.071,53.936C372.935,53.144 373.367,51.908 373.367,50.228C373.367,48.692 372.935,47.528 372.071,46.736C371.207,45.944 369.767,45.548 367.751,45.548C366.167,45.548 364.727,45.716 363.431,46.052L363.431,54.692ZM363.431,39.356C364.583,39.164 365.747,39.032 366.923,38.96C368.099,38.888 369.167,38.852 370.127,38.852C372.575,38.852 374.615,39.128 376.247,39.68C377.879,40.232 379.199,41.012 380.207,42.02C381.215,43.028 381.935,44.216 382.367,45.584C382.799,46.952 383.015,48.428 383.015,50.012C383.015,52.172 382.727,54.068 382.151,55.7C381.575,57.332 380.639,58.688 379.343,59.768C378.047,60.848 376.367,61.664 374.303,62.216C372.239,62.768 369.695,63.044 366.671,63.044C363.935,63.044 361.571,62.996 359.579,62.9C357.587,62.804 355.751,62.684 354.071,62.54L354.071,26.54L363.431,26.54L363.431,39.356ZM387.119,26.54L396.479,26.54L396.479,62.54L387.119,62.54L387.119,26.54Z" style="fill-rule:nonzero;"/>
    <path d="M426.359,46.124L426.719,41.012L426.503,41.012L423.407,46.268L410.591,62.54L404.687,62.54L404.687,26.54L414.047,26.54L414.047,43.676L413.615,48.572L413.903,48.572L416.855,43.46L429.815,26.54L435.719,26.54L435.719,62.54L426.359,62.54L426.359,46.124ZM416.351,11.852C416.687,13.724 417.251,15.044 418.043,15.812C418.835,16.58 419.855,16.964 421.103,16.964C422.447,16.964 423.515,16.58 424.307,15.812C425.099,15.044 425.639,13.748 425.927,11.924L433.055,13.724C432.479,16.844 431.063,19.16 428.807,20.672C426.551,22.184 423.911,22.94 420.887,22.94C419.399,22.94 417.959,22.772 416.567,22.436C415.175,22.1 413.927,21.56 412.823,20.816C411.719,20.072 410.783,19.124 410.015,17.972C409.247,16.82 408.719,15.404 408.431,13.724L416.351,11.852Z" style="fill-rule:nonzero;"/>
    <path d="M75.215,582.604L56.783,582.604L56.783,603.7L46.919,603.7L46.919,553.3L56.783,553.3L56.783,573.82L75.215,573.82L75.215,553.3L85.079,553.3L85.079,603.7L75.215,603.7L75.215,582.604Z" style="fill-rule:nonzero;"/>
    <path d="M122.375,600.604C120.935,601.756 118.979,602.728 116.507,603.52C114.035,604.312 111.407,604.708 108.623,604.708C102.815,604.708 98.567,603.016 95.879,599.632C93.191,596.248 91.847,591.604 91.847,585.7C91.847,579.364 93.359,574.612 96.383,571.444C99.407,568.276 103.655,566.692 109.127,566.692C110.951,566.692 112.727,566.932 114.455,567.412C116.183,567.892 117.719,568.684 119.063,569.788C120.407,570.892 121.487,572.38 122.303,574.252C123.119,576.124 123.527,578.452 123.527,581.236C123.527,582.244 123.467,583.324 123.347,584.476C123.227,585.628 123.047,586.828 122.807,588.076L101.207,588.076C101.351,591.1 102.131,593.38 103.547,594.916C104.963,596.452 107.255,597.22 110.423,597.22C112.391,597.22 114.155,596.92 115.715,596.32C117.275,595.72 118.463,595.108 119.279,594.484L122.375,600.604ZM108.983,574.18C106.535,574.18 104.723,574.912 103.547,576.376C102.371,577.84 101.663,579.796 101.423,582.244L114.815,582.244C115.007,579.652 114.611,577.66 113.627,576.268C112.643,574.876 111.095,574.18 108.983,574.18Z" style="fill-rule:nonzero;"/>
    <path d="M152.111,588.796L152.111,582.244L156.503,582.244C158.183,582.244 159.563,581.908 160.643,581.236C161.723,580.564 162.263,579.676 162.263,578.572C162.263,577.276 161.783,576.352 160.823,575.8C159.863,575.248 158.399,574.972 156.431,574.972C154.559,574.972 152.903,575.212 151.463,575.692C150.023,576.172 148.871,576.676 148.007,577.204L145.991,570.076C147.431,569.26 149.339,568.552 151.715,567.952C154.091,567.352 156.623,567.052 159.311,567.052C163.439,567.052 166.523,567.82 168.563,569.356C170.603,570.892 171.623,573.124 171.623,576.052C171.623,576.868 171.515,577.696 171.299,578.536C171.083,579.376 170.735,580.18 170.255,580.948C169.775,581.716 169.187,582.4 168.491,583C167.795,583.6 166.967,584.068 166.007,584.404L166.007,584.692C168.551,585.268 170.351,586.288 171.407,587.752C172.463,589.216 172.991,591.172 172.991,593.62C172.991,595.156 172.679,596.584 172.055,597.904C171.431,599.224 170.483,600.364 169.211,601.324C167.939,602.284 166.343,603.052 164.423,603.628C162.503,604.204 160.223,604.492 157.583,604.492C154.943,604.492 152.651,604.216 150.707,603.664C148.763,603.112 147.143,602.476 145.847,601.756L147.863,594.484C148.967,595.108 150.299,595.612 151.859,595.996C153.419,596.38 155.159,596.572 157.079,596.572C161.447,596.572 163.631,595.18 163.631,592.396C163.631,591.148 163.067,590.236 161.939,589.66C160.811,589.084 158.711,588.796 155.639,588.796L152.111,588.796Z" style="fill-rule:nonzero;"/>
    <path d="M179.255,569.788C181.175,568.924 183.455,568.24 186.095,567.736C188.735,567.232 191.495,566.98 194.375,566.98C196.871,566.98 198.959,567.28 200.639,567.88C202.319,568.48 203.651,569.332 204.635,570.436C205.619,571.54 206.315,572.86 206.723,574.396C207.131,575.932 207.335,577.66 207.335,579.58C207.335,581.692 207.263,583.816 207.119,585.952C206.975,588.088 206.891,590.188 206.867,592.252C206.843,594.316 206.903,596.32 207.047,598.264C207.191,600.208 207.551,602.044 208.127,603.772L200.495,603.772L198.983,598.804L198.623,598.804C197.663,600.292 196.331,601.576 194.627,602.656C192.923,603.736 190.727,604.276 188.039,604.276C186.359,604.276 184.847,604.024 183.503,603.52C182.159,603.016 181.007,602.296 180.047,601.36C179.087,600.424 178.343,599.32 177.815,598.048C177.287,596.776 177.023,595.348 177.023,593.764C177.023,591.556 177.515,589.696 178.499,588.184C179.483,586.672 180.899,585.448 182.747,584.512C184.595,583.576 186.803,582.928 189.371,582.568C191.939,582.208 194.807,582.1 197.975,582.244C198.311,579.556 198.119,577.624 197.399,576.448C196.679,575.272 195.071,574.684 192.575,574.684C190.703,574.684 188.723,574.876 186.635,575.26C184.547,575.644 182.831,576.148 181.487,576.772L179.255,569.788ZM191.135,596.572C193.007,596.572 194.495,596.152 195.599,595.312C196.703,594.472 197.519,593.572 198.047,592.612L198.047,587.932C196.559,587.788 195.131,587.764 193.763,587.86C192.395,587.956 191.183,588.172 190.127,588.508C189.071,588.844 188.231,589.324 187.607,589.948C186.983,590.572 186.671,591.364 186.671,592.324C186.671,593.668 187.067,594.712 187.859,595.456C188.651,596.2 189.743,596.572 191.135,596.572Z" style="fill-rule:nonzero;"/>
    <path d="M245.999,587.212L246.575,579.724L246.215,579.724L243.335,585.916L236.567,597.076L233.183,597.076L225.767,585.916L223.031,579.724L222.599,579.724L223.535,587.14L223.535,603.7L215.183,603.7L215.183,567.7L224.903,567.7L233.183,581.236L235.199,585.772L235.487,585.772L237.575,581.092L245.207,567.7L254.999,567.7L254.999,603.7L245.999,603.7L245.999,587.212Z" style="fill-rule:nonzero;"/>
    <path d="M275.015,588.796L272.495,588.796L272.495,603.7L263.135,603.7L263.135,567.7L272.495,567.7L272.495,583.036L274.727,582.028L283.151,567.7L293.159,567.7L284.447,581.38L280.775,584.116L284.807,586.924L294.527,603.7L283.799,603.7L275.015,588.796Z" style="fill-rule:nonzero;"/>
    <path d="M319.439,589.588L307.703,589.588L307.703,603.7L298.343,603.7L298.343,567.7L307.703,567.7L307.703,581.236L319.439,581.236L319.439,567.7L328.799,567.7L328.799,603.7L319.439,603.7L319.439,589.588Z" style="fill-rule:nonzero;"/>
    <path d="M350.111,587.932L351.407,593.548L351.839,593.548L352.775,587.86L358.247,567.7L367.895,567.7L356.951,600.172C356.039,602.86 355.163,605.32 354.323,607.552C353.483,609.784 352.559,611.716 351.551,613.348C350.543,614.98 349.427,616.24 348.203,617.128C346.979,618.016 345.527,618.46 343.847,618.46C341.351,618.46 339.359,618.052 337.871,617.236L339.599,609.748C340.319,610.036 341.039,610.18 341.759,610.18C342.863,610.18 343.931,609.712 344.963,608.776C345.995,607.84 346.775,606.148 347.303,603.7L332.255,567.7L343.487,567.7L350.111,587.932Z" style="fill-rule:nonzero;"/>
    <path d="M397.343,575.98L387.335,575.98L387.335,603.7L377.687,603.7L377.687,575.98L367.391,575.98L367.391,567.7L397.343,567.7L397.343,575.98Z" style="fill-rule:nonzero;"/>
    <path d="M410.879,595.852C412.319,596.14 413.687,596.284 414.983,596.284C417.143,596.284 418.655,595.888 419.519,595.096C420.383,594.304 420.815,593.068 420.815,591.388C420.815,589.852 420.383,588.688 419.519,587.896C418.655,587.104 417.215,586.708 415.199,586.708C413.615,586.708 412.175,586.876 410.879,587.212L410.879,595.852ZM410.879,580.516C412.031,580.324 413.195,580.192 414.371,580.12C415.547,580.048 416.615,580.012 417.575,580.012C420.023,580.012 422.063,580.288 423.695,580.84C425.327,581.392 426.647,582.172 427.655,583.18C428.663,584.188 429.383,585.376 429.815,586.744C430.247,588.112 430.463,589.588 430.463,591.172C430.463,593.332 430.175,595.228 429.599,596.86C429.023,598.492 428.087,599.848 426.791,600.928C425.495,602.008 423.815,602.824 421.751,603.376C419.687,603.928 417.143,604.204 414.119,604.204C411.383,604.204 409.019,604.156 407.027,604.06C405.035,603.964 403.199,603.844 401.519,603.7L401.519,567.7L410.879,567.7L410.879,580.516ZM434.567,567.7L443.927,567.7L443.927,603.7L434.567,603.7L434.567,567.7Z" style="fill-rule:nonzero;"/>
    <path d="M473.807,587.284L474.167,582.172L473.951,582.172L470.855,587.428L458.039,603.7L452.135,603.7L452.135,567.7L461.495,567.7L461.495,584.836L461.063,589.732L461.351,589.732L464.303,584.62L477.263,567.7L483.167,567.7L483.167,603.7L473.807,603.7L473.807,587.284ZM463.799,553.012C464.135,554.884 464.699,556.204 465.491,556.972C466.283,557.74 467.303,558.124 468.551,558.124C469.895,558.124 470.963,557.74 471.755,556.972C472.547,556.204 473.087,554.908 473.375,553.084L480.503,554.884C479.927,558.004 478.511,560.32 476.255,561.832C473.999,563.344 471.359,564.1 468.335,564.1C466.847,564.1 465.407,563.932 464.015,563.596C462.623,563.26 461.375,562.72 460.271,561.976C459.167,561.232 458.231,560.284 457.463,559.132C456.695,557.98 456.167,556.564 455.879,554.884L463.799,553.012Z" style="fill-rule:nonzero;"/>
    <path d="M80.702,189.999C89.376,189.428 95.954,181.922 95.382,173.248C94.811,164.574 87.305,157.996 78.631,158.568C69.957,159.139 63.379,166.645 63.95,175.319C64.522,183.993 72.028,190.571 80.702,189.999Z" style="fill:rgb(45,231,231);"/>
    <path d="M79.666,174.283C79.666,174.283 6.788,179.085 10.782,242.314C12.19,264.601 35.685,291.3 64.98,309.498C116.604,341.566 186.242,347.233 184.782,255.827C183.51,176.128 271.141,245.079 275.694,185.235C282.321,98.131 79.666,174.283 79.666,174.283Z" style="fill:none;stroke:rgb(45,231,231);stroke-width:6px;"/>
    <path d="M121.443,817.692C130.117,817.12 136.695,809.614 136.124,800.94C135.552,792.266 128.046,785.688 119.372,786.26C110.698,786.831 104.12,794.337 104.692,803.011C105.263,811.685 112.769,818.263 121.443,817.692Z" style="fill:rgb(45,231,231);"/>
    <path d="M120.408,801.976C120.408,801.976 69.512,805.329 72.301,849.487C73.284,865.051 89.692,883.697 110.151,896.406C146.204,918.801 194.837,922.759 193.818,858.923C192.929,803.264 120.408,801.976 120.408,801.976Z" style="fill:none;stroke:rgb(45,231,231);stroke-width:6px;"/>
    <path d="M302.663,226.122C297.912,233.401 299.963,243.168 307.242,247.92C314.521,252.672 324.289,250.62 329.041,243.341C333.792,236.062 331.74,226.294 324.461,221.543C317.182,216.791 307.415,218.843 302.663,226.122Z" style="fill:rgb(251,133,255);"/>
    <path d="M321.018,226.818C348.696,165.365 300.43,82.482 390.699,134.92C491.897,193.708 544.068,211.608 508.093,256.92C472.117,302.232 389.277,233.897 401.661,341.92C407.517,393.007 252.069,308.42 307.242,247.92" style="fill:none;stroke:rgb(251,133,255);stroke-width:6px;"/>
    <path d="M121.646,717.851C113.44,720.719 109.107,729.71 111.976,737.916C114.845,746.122 123.836,750.455 132.041,747.586C140.247,744.717 144.58,735.726 141.711,727.52C138.842,719.315 129.851,714.982 121.646,717.851Z" style="fill:rgb(255,133,133);"/>
    <path d="M450.249,742.52C454.562,734.973 464.191,732.348 471.738,736.661C479.285,740.975 481.911,750.604 477.597,758.151C473.284,765.698 463.655,768.323 456.108,764.01C448.561,759.697 445.936,750.067 450.249,742.52Z" style="fill:rgb(255,133,133);"/>
    <path d="M126.843,732.718C181.203,713.714 206.48,609.004 289.923,675.704C373.366,742.404 437.54,796.497 463.923,750.336" style="fill:none;stroke:rgb(255,133,133);stroke-width:6px;"/>
    <path d="M479.524,752.501C480.719,743.891 474.698,735.93 466.088,734.735C457.478,733.54 449.518,739.56 448.323,748.17C447.128,756.781 453.148,764.741 461.758,765.936C470.368,767.131 478.329,761.111 479.524,752.501Z" style="fill:rgb(16,137,137);"/>
    <path d="M459.3,987.11C452.819,992.903 442.854,992.345 437.061,985.864C431.268,979.383 431.827,969.418 438.308,963.625C444.789,957.832 454.754,958.391 460.547,964.872C466.34,971.353 465.781,981.317 459.3,987.11Z" style="fill:rgb(16,137,137);"/>
    <path d="M463.923,750.336C463.923,750.336 452.552,832.267 478.923,858.858C505.294,885.45 480.282,947.231 448.804,975.368" style="fill:none;stroke:rgb(16,137,137);stroke-width:6px;"/>
    <path d="M144.756,364.02C137.592,359.096 127.779,360.915 122.855,368.079C117.932,375.243 119.751,385.057 126.915,389.98C134.078,394.904 143.892,393.085 148.815,385.921C153.739,378.757 151.92,368.943 144.756,364.02Z" style="fill:rgb(110,195,0);"/>
    <path d="M135.835,377C135.835,377 188.077,412.903 239.916,372C291.756,331.097 348.136,387.072 381.916,422C415.697,456.928 332.836,486.631 271.916,475C210.997,463.369 26.007,449.796 50.916,397.037C75.826,344.277 135.835,377 135.835,377Z" style="fill:none;stroke:rgb(110,195,0);stroke-width:6px;"/>
</svg>
