<?xml version="1.0" encoding="UTF-8" standalone="no"?>
<!DOCTYPE svg PUBLIC "-//W3C//DTD SVG 1.1//EN" "http://www.w3.org/Graphics/SVG/1.1/DTD/svg11.dtd">
<svg width="100%" height="100%" viewBox="0 0 1276 476" version="1.1" xmlns="http://www.w3.org/2000/svg" xmlns:xlink="http://www.w3.org/1999/xlink" xml:space="preserve" xmlns:serif="http://www.serif.com/" style="fill-rule:evenodd;clip-rule:evenodd;stroke-miterlimit:10;">
    <rect id="Spatial-Databases-1" serif:id="Spatial Databases 1" x="-2715" y="-1076" width="4375" height="2153" style="fill:none;"/>
    <g id="Spatial-Databases-11" serif:id="Spatial Databases 1">
        <g id="Linear-matrix" serif:id="Linear matrix">
        </g>
        <g id="Guilbert-matrix" serif:id="Guilbert matrix">
        </g>
        <g id="Guilbert-row" serif:id="Guilbert row">
        </g>
        <path d="M375.67,422.581L372.286,422.581L372.286,445.909L366.31,445.909L366.31,395.509L372.286,395.509L372.286,418.981L375.526,417.973L392.446,395.509L399.358,395.509L382.51,417.181L379.486,419.557L383.158,422.437L401.59,445.909L394.03,445.909L375.67,422.581Z" style="fill-rule:nonzero;"/>
        <path d="M402.958,427.909C402.958,421.813 404.314,417.145 407.026,413.905C409.738,410.665 413.638,409.045 418.726,409.045C421.414,409.045 423.754,409.489 425.746,410.377C427.738,411.265 429.382,412.537 430.678,414.193C431.974,415.849 432.934,417.841 433.558,420.169C434.182,422.497 434.494,425.077 434.494,427.909C434.494,434.005 433.138,438.673 430.426,441.913C427.714,445.153 423.814,446.773 418.726,446.773C416.038,446.773 413.698,446.329 411.706,445.441C409.714,444.553 408.07,443.281 406.774,441.625C405.478,439.969 404.518,437.977 403.894,435.649C403.27,433.321 402.958,430.741 402.958,427.909ZM408.934,427.909C408.934,429.733 409.114,431.485 409.474,433.165C409.834,434.845 410.398,436.309 411.166,437.557C411.934,438.805 412.942,439.813 414.19,440.581C415.438,441.349 416.95,441.733 418.726,441.733C425.254,441.781 428.518,437.173 428.518,427.909C428.518,426.037 428.338,424.261 427.978,422.581C427.618,420.901 427.054,419.437 426.286,418.189C425.518,416.941 424.51,415.945 423.262,415.201C422.014,414.457 420.502,414.085 418.726,414.085C412.198,414.037 408.934,418.645 408.934,427.909Z" style="fill-rule:nonzero;"/>
        <path d="M473.302,424.525L473.734,417.685L473.374,417.685L470.782,423.229L462.07,437.341L460.054,437.341L450.982,423.229L448.606,417.685L448.318,417.685L448.894,424.453L448.894,445.909L443.566,445.909L443.566,409.909L449.254,409.909L459.334,426.037L461.422,430.213L461.566,430.213L463.726,425.893L473.158,409.909L478.918,409.909L478.918,445.909L473.302,445.909L473.302,424.525Z" style="fill-rule:nonzero;"/>
        <path d="M493.318,416.317C494.902,414.013 496.654,412.393 498.574,411.457C500.494,410.521 502.894,410.053 505.774,410.053C510.19,410.053 513.586,411.493 515.962,414.373C518.338,417.253 519.526,421.501 519.526,427.117C519.526,433.597 518.146,438.493 515.386,441.805C512.626,445.117 508.774,446.773 503.83,446.773C498.55,446.773 494.59,444.949 491.95,441.301C489.31,437.653 487.99,431.917 487.99,424.093C487.99,419.965 488.194,416.437 488.602,413.509C489.01,410.581 489.61,408.109 490.402,406.093C491.194,404.077 492.154,402.469 493.282,401.269C494.41,400.069 495.682,399.121 497.098,398.425C498.514,397.729 500.062,397.237 501.742,396.949C503.422,396.661 505.222,396.421 507.142,396.229C509.638,395.989 511.594,395.713 513.01,395.401C514.426,395.089 515.566,394.525 516.43,393.709L517.078,398.893C516.598,399.325 516.07,399.685 515.494,399.973C514.918,400.261 514.222,400.501 513.406,400.693C512.59,400.885 511.618,401.053 510.49,401.197C509.362,401.341 508.054,401.461 506.566,401.557C504.502,401.701 502.69,401.953 501.13,402.313C499.57,402.673 498.226,403.369 497.098,404.401C495.97,405.433 495.082,406.897 494.434,408.793C493.786,410.689 493.342,413.197 493.102,416.317L493.318,416.317ZM493.966,427.981C493.966,429.805 494.158,431.557 494.542,433.237C494.926,434.917 495.514,436.393 496.306,437.665C497.098,438.937 498.118,439.933 499.366,440.653C500.614,441.373 502.078,441.733 503.758,441.733C507.07,441.733 509.53,440.545 511.138,438.169C512.746,435.793 513.55,432.277 513.55,427.621C513.55,425.797 513.382,424.117 513.046,422.581C512.71,421.045 512.182,419.713 511.462,418.585C510.742,417.457 509.83,416.593 508.726,415.993C507.622,415.393 506.302,415.093 504.766,415.093C501.022,415.045 498.286,416.137 496.558,418.369C494.83,420.601 493.966,423.805 493.966,427.981Z" style="fill-rule:nonzero;"/>
        <path d="M551.062,424.597L551.278,420.133L551.062,420.133L548.11,424.741L531.91,445.909L528.598,445.909L528.598,409.909L534.358,409.909L534.358,431.869L534.142,436.117L534.43,436.117L537.238,431.653L553.438,409.909L556.822,409.909L556.822,445.909L551.062,445.909L551.062,424.597Z" style="fill-rule:nonzero;"/>
        <path d="M589.942,429.997L573.67,429.997L573.67,445.909L567.91,445.909L567.91,409.909L573.67,409.909L573.67,424.957L589.942,424.957L589.942,409.909L595.702,409.909L595.702,445.909L589.942,445.909L589.942,429.997Z" style="fill-rule:nonzero;"/>
        <path d="M606.214,412.573C608.038,411.469 610.162,410.653 612.586,410.125C615.01,409.597 617.542,409.333 620.182,409.333C622.678,409.333 624.682,409.669 626.194,410.341C627.706,411.013 628.858,411.889 629.65,412.969C630.442,414.049 630.97,415.237 631.234,416.533C631.498,417.829 631.63,419.125 631.63,420.421C631.63,423.301 631.558,426.109 631.414,428.845C631.27,431.581 631.198,434.173 631.198,436.621C631.198,438.397 631.27,440.077 631.414,441.661C631.558,443.245 631.822,444.709 632.206,446.053L627.958,446.053L626.446,441.013L626.086,441.013C625.654,441.685 625.114,442.345 624.466,442.993C623.818,443.641 623.038,444.217 622.126,444.721C621.214,445.225 620.158,445.645 618.958,445.981C617.758,446.317 616.39,446.485 614.854,446.485C613.318,446.485 611.89,446.245 610.57,445.765C609.25,445.285 608.11,444.601 607.15,443.713C606.19,442.825 605.434,441.757 604.882,440.509C604.33,439.261 604.054,437.845 604.054,436.261C604.054,434.149 604.486,432.385 605.35,430.969C606.214,429.553 607.426,428.425 608.986,427.585C610.546,426.745 612.418,426.145 614.602,425.785C616.786,425.425 619.198,425.245 621.838,425.245L623.818,425.245C624.466,425.245 625.126,425.293 625.798,425.389C625.942,423.949 626.014,422.653 626.014,421.501C626.014,418.861 625.486,417.013 624.43,415.957C623.374,414.901 621.454,414.373 618.67,414.373C617.854,414.373 616.978,414.433 616.042,414.553C615.106,414.673 614.146,414.841 613.162,415.057C612.178,415.273 611.242,415.537 610.354,415.849C609.466,416.161 608.686,416.509 608.014,416.893L606.214,412.573ZM616.438,441.445C617.782,441.445 618.982,441.265 620.038,440.905C621.094,440.545 622.006,440.089 622.774,439.537C623.542,438.985 624.178,438.373 624.682,437.701C625.186,437.029 625.558,436.381 625.798,435.757L625.798,429.781C625.126,429.733 624.442,429.697 623.746,429.673C623.05,429.649 622.366,429.637 621.694,429.637C620.206,429.637 618.754,429.721 617.338,429.889C615.922,430.057 614.674,430.369 613.594,430.825C612.514,431.281 611.65,431.905 611.002,432.697C610.354,433.489 610.03,434.485 610.03,435.685C610.03,437.365 610.63,438.745 611.83,439.825C613.03,440.905 614.566,441.445 616.438,441.445Z" style="fill-rule:nonzero;"/>
        <path d="M665.398,414.949L654.166,414.949L654.166,445.909L648.406,445.909L648.406,414.949L637.174,414.949L637.174,409.909L665.398,409.909L665.398,414.949Z" style="fill-rule:nonzero;"/>
        <path d="M669.07,427.909C669.07,421.813 670.426,417.145 673.138,413.905C675.85,410.665 679.75,409.045 684.838,409.045C687.526,409.045 689.866,409.489 691.858,410.377C693.85,411.265 695.494,412.537 696.79,414.193C698.086,415.849 699.046,417.841 699.67,420.169C700.294,422.497 700.606,425.077 700.606,427.909C700.606,434.005 699.25,438.673 696.538,441.913C693.826,445.153 689.926,446.773 684.838,446.773C682.15,446.773 679.81,446.329 677.818,445.441C675.826,444.553 674.182,443.281 672.886,441.625C671.59,439.969 670.63,437.977 670.006,435.649C669.382,433.321 669.07,430.741 669.07,427.909ZM675.046,427.909C675.046,429.733 675.226,431.485 675.586,433.165C675.946,434.845 676.51,436.309 677.278,437.557C678.046,438.805 679.054,439.813 680.302,440.581C681.55,441.349 683.062,441.733 684.838,441.733C691.366,441.781 694.63,437.173 694.63,427.909C694.63,426.037 694.45,424.261 694.09,422.581C693.73,420.901 693.166,419.437 692.398,418.189C691.63,416.941 690.622,415.945 689.374,415.201C688.126,414.457 686.614,414.085 684.838,414.085C678.31,414.037 675.046,418.645 675.046,427.909Z" style="fill-rule:nonzero;"/>
        <path d="M709.678,409.909L713.638,409.909L714.718,414.229L715.006,414.229C716.11,412.549 717.538,411.265 719.29,410.377C721.042,409.489 723.046,409.045 725.302,409.045C730.102,409.045 733.678,410.461 736.03,413.293C738.382,416.125 739.558,420.757 739.558,427.189C739.558,430.213 739.162,432.937 738.37,435.361C737.578,437.785 736.462,439.837 735.022,441.517C733.582,443.197 731.842,444.493 729.802,445.405C727.762,446.317 725.494,446.773 722.998,446.773C721.222,446.773 719.818,446.665 718.786,446.449C717.754,446.233 716.638,445.861 715.438,445.333L715.438,460.309L709.678,460.309L709.678,409.909ZM724.222,414.085C721.774,414.085 719.842,414.721 718.426,415.993C717.01,417.265 716.014,419.197 715.438,421.789L715.438,439.645C716.302,440.317 717.286,440.833 718.39,441.193C719.494,441.553 720.958,441.733 722.782,441.733C726.094,441.733 728.722,440.497 730.666,438.025C732.61,435.553 733.582,431.917 733.582,427.117C733.582,425.149 733.414,423.361 733.078,421.753C732.742,420.145 732.202,418.777 731.458,417.649C730.714,416.521 729.754,415.645 728.578,415.021C727.402,414.397 725.95,414.085 724.222,414.085Z" style="fill-rule:nonzero;"/>
        <path d="M770.662,429.997L754.39,429.997L754.39,445.909L748.63,445.909L748.63,409.909L754.39,409.909L754.39,424.957L770.662,424.957L770.662,409.909L776.422,409.909L776.422,445.909L770.662,445.909L770.662,429.997Z" style="fill-rule:nonzero;"/>
        <path d="M786.934,412.573C788.758,411.469 790.882,410.653 793.306,410.125C795.73,409.597 798.262,409.333 800.902,409.333C803.398,409.333 805.402,409.669 806.914,410.341C808.426,411.013 809.578,411.889 810.37,412.969C811.162,414.049 811.69,415.237 811.954,416.533C812.218,417.829 812.35,419.125 812.35,420.421C812.35,423.301 812.278,426.109 812.134,428.845C811.99,431.581 811.918,434.173 811.918,436.621C811.918,438.397 811.99,440.077 812.134,441.661C812.278,443.245 812.542,444.709 812.926,446.053L808.678,446.053L807.166,441.013L806.806,441.013C806.374,441.685 805.834,442.345 805.186,442.993C804.538,443.641 803.758,444.217 802.846,444.721C801.934,445.225 800.878,445.645 799.678,445.981C798.478,446.317 797.11,446.485 795.574,446.485C794.038,446.485 792.61,446.245 791.29,445.765C789.97,445.285 788.83,444.601 787.87,443.713C786.91,442.825 786.154,441.757 785.602,440.509C785.05,439.261 784.774,437.845 784.774,436.261C784.774,434.149 785.206,432.385 786.07,430.969C786.934,429.553 788.146,428.425 789.706,427.585C791.266,426.745 793.138,426.145 795.322,425.785C797.506,425.425 799.918,425.245 802.558,425.245L804.538,425.245C805.186,425.245 805.846,425.293 806.518,425.389C806.662,423.949 806.734,422.653 806.734,421.501C806.734,418.861 806.206,417.013 805.15,415.957C804.094,414.901 802.174,414.373 799.39,414.373C798.574,414.373 797.698,414.433 796.762,414.553C795.826,414.673 794.866,414.841 793.882,415.057C792.898,415.273 791.962,415.537 791.074,415.849C790.186,416.161 789.406,416.509 788.734,416.893L786.934,412.573ZM797.158,441.445C798.502,441.445 799.702,441.265 800.758,440.905C801.814,440.545 802.726,440.089 803.494,439.537C804.262,438.985 804.898,438.373 805.402,437.701C805.906,437.029 806.278,436.381 806.518,435.757L806.518,429.781C805.846,429.733 805.162,429.697 804.466,429.673C803.77,429.649 803.086,429.637 802.414,429.637C800.926,429.637 799.474,429.721 798.058,429.889C796.642,430.057 795.394,430.369 794.314,430.825C793.234,431.281 792.37,431.905 791.722,432.697C791.074,433.489 790.75,434.485 790.75,435.685C790.75,437.365 791.35,438.745 792.55,439.825C793.75,440.905 795.286,441.445 797.158,441.445Z" style="fill-rule:nonzero;"/>
        <path d="M841.15,431.005L835.606,431.869L826.102,445.909L819.118,445.909L827.758,433.597L830.638,430.933C828.142,430.549 826.018,429.541 824.266,427.909C822.514,426.277 821.638,424.069 821.638,421.285C821.638,419.125 822.01,417.277 822.754,415.741C823.498,414.205 824.566,412.933 825.958,411.925C827.35,410.917 829.006,410.185 830.926,409.729C832.846,409.273 835.006,409.045 837.406,409.045C839.182,409.045 840.838,409.165 842.374,409.405C843.91,409.645 845.422,409.909 846.91,410.197L846.91,445.909L841.15,445.909L841.15,431.005ZM841.15,414.805C840.526,414.565 839.83,414.385 839.062,414.265C838.294,414.145 837.622,414.085 837.046,414.085C833.974,414.085 831.634,414.637 830.026,415.741C828.418,416.845 827.614,418.597 827.614,420.997C827.614,423.157 828.466,424.825 830.17,426.001C831.874,427.177 834.118,427.765 836.902,427.765L837.694,427.765C837.982,427.765 838.39,427.753 838.918,427.729C839.446,427.705 840.19,427.669 841.15,427.621L841.15,414.805Z" style="fill-rule:nonzero;"/>
        <path d="M897.67,414.949L882.406,414.949L882.406,445.909L876.646,445.909L876.646,409.909L897.67,409.909L897.67,414.949Z" style="fill-rule:nonzero;"/>
        <path d="M903.214,409.909L907.174,409.909L908.254,414.229L908.542,414.229C909.646,412.549 911.074,411.265 912.826,410.377C914.578,409.489 916.582,409.045 918.838,409.045C923.638,409.045 927.214,410.461 929.566,413.293C931.918,416.125 933.094,420.757 933.094,427.189C933.094,430.213 932.698,432.937 931.906,435.361C931.114,437.785 929.998,439.837 928.558,441.517C927.118,443.197 925.378,444.493 923.338,445.405C921.298,446.317 919.03,446.773 916.534,446.773C914.758,446.773 913.354,446.665 912.322,446.449C911.29,446.233 910.174,445.861 908.974,445.333L908.974,460.309L903.214,460.309L903.214,409.909ZM917.758,414.085C915.31,414.085 913.378,414.721 911.962,415.993C910.546,417.265 909.55,419.197 908.974,421.789L908.974,439.645C909.838,440.317 910.822,440.833 911.926,441.193C913.03,441.553 914.494,441.733 916.318,441.733C919.63,441.733 922.258,440.497 924.202,438.025C926.146,435.553 927.118,431.917 927.118,427.117C927.118,425.149 926.95,423.361 926.614,421.753C926.278,420.145 925.738,418.777 924.994,417.649C924.25,416.521 923.29,415.645 922.114,415.021C920.938,414.397 919.486,414.085 917.758,414.085Z" style="fill-rule:nonzero;"/>
        <path d="M941.59,412.573C943.414,411.469 945.538,410.653 947.962,410.125C950.386,409.597 952.918,409.333 955.558,409.333C958.054,409.333 960.058,409.669 961.57,410.341C963.082,411.013 964.234,411.889 965.026,412.969C965.818,414.049 966.346,415.237 966.61,416.533C966.874,417.829 967.006,419.125 967.006,420.421C967.006,423.301 966.934,426.109 966.79,428.845C966.646,431.581 966.574,434.173 966.574,436.621C966.574,438.397 966.646,440.077 966.79,441.661C966.934,443.245 967.198,444.709 967.582,446.053L963.334,446.053L961.822,441.013L961.462,441.013C961.03,441.685 960.49,442.345 959.842,442.993C959.194,443.641 958.414,444.217 957.502,444.721C956.59,445.225 955.534,445.645 954.334,445.981C953.134,446.317 951.766,446.485 950.23,446.485C948.694,446.485 947.266,446.245 945.946,445.765C944.626,445.285 943.486,444.601 942.526,443.713C941.566,442.825 940.81,441.757 940.258,440.509C939.706,439.261 939.43,437.845 939.43,436.261C939.43,434.149 939.862,432.385 940.726,430.969C941.59,429.553 942.802,428.425 944.362,427.585C945.922,426.745 947.794,426.145 949.978,425.785C952.162,425.425 954.574,425.245 957.214,425.245L959.194,425.245C959.842,425.245 960.502,425.293 961.174,425.389C961.318,423.949 961.39,422.653 961.39,421.501C961.39,418.861 960.862,417.013 959.806,415.957C958.75,414.901 956.83,414.373 954.046,414.373C953.23,414.373 952.354,414.433 951.418,414.553C950.482,414.673 949.522,414.841 948.538,415.057C947.554,415.273 946.618,415.537 945.73,415.849C944.842,416.161 944.062,416.509 943.39,416.893L941.59,412.573ZM951.814,441.445C953.158,441.445 954.358,441.265 955.414,440.905C956.47,440.545 957.382,440.089 958.15,439.537C958.918,438.985 959.554,438.373 960.058,437.701C960.562,437.029 960.934,436.381 961.174,435.757L961.174,429.781C960.502,429.733 959.818,429.697 959.122,429.673C958.426,429.649 957.742,429.637 957.07,429.637C955.582,429.637 954.13,429.721 952.714,429.889C951.298,430.057 950.05,430.369 948.97,430.825C947.89,431.281 947.026,431.905 946.378,432.697C945.73,433.489 945.406,434.485 945.406,435.685C945.406,437.365 946.006,438.745 947.206,439.825C948.406,440.905 949.942,441.445 951.814,441.445Z" style="fill-rule:nonzero;"/>
        <path d="M999.91,429.997L983.638,429.997L983.638,445.909L977.878,445.909L977.878,409.909L983.638,409.909L983.638,424.957L999.91,424.957L999.91,409.909L1005.67,409.909L1005.67,445.909L999.91,445.909L999.91,429.997Z" style="fill-rule:nonzero;"/>
        <path d="M1039.22,424.597L1039.44,420.133L1039.22,420.133L1036.27,424.741L1020.07,445.909L1016.76,445.909L1016.76,409.909L1022.52,409.909L1022.52,431.869L1022.3,436.117L1022.59,436.117L1025.4,431.653L1041.6,409.909L1044.98,409.909L1044.98,445.909L1039.22,445.909L1039.22,424.597Z" style="fill-rule:nonzero;"/>
        <path d="M1088.4,455.053L1084.51,455.053L1083.43,445.909L1056.07,445.909L1056.07,409.909L1061.83,409.909L1061.83,440.869L1077.45,440.869L1077.45,409.909L1083.21,409.909L1083.21,440.869L1088.4,440.869L1088.4,455.053Z" style="fill-rule:nonzero;"/>
        <path d="M1094.95,412.573C1096.77,411.469 1098.9,410.653 1101.32,410.125C1103.75,409.597 1106.28,409.333 1108.92,409.333C1111.41,409.333 1113.42,409.669 1114.93,410.341C1116.44,411.013 1117.59,411.889 1118.39,412.969C1119.18,414.049 1119.71,415.237 1119.97,416.533C1120.23,417.829 1120.37,419.125 1120.37,420.421C1120.37,423.301 1120.29,426.109 1120.15,428.845C1120.01,431.581 1119.93,434.173 1119.93,436.621C1119.93,438.397 1120.01,440.077 1120.15,441.661C1120.29,443.245 1120.56,444.709 1120.94,446.053L1116.69,446.053L1115.18,441.013L1114.82,441.013C1114.39,441.685 1113.85,442.345 1113.2,442.993C1112.55,443.641 1111.77,444.217 1110.86,444.721C1109.95,445.225 1108.89,445.645 1107.69,445.981C1106.49,446.317 1105.13,446.485 1103.59,446.485C1102.05,446.485 1100.63,446.245 1099.31,445.765C1097.99,445.285 1096.85,444.601 1095.89,443.713C1094.93,442.825 1094.17,441.757 1093.62,440.509C1093.07,439.261 1092.79,437.845 1092.79,436.261C1092.79,434.149 1093.22,432.385 1094.09,430.969C1094.95,429.553 1096.16,428.425 1097.72,427.585C1099.28,426.745 1101.15,426.145 1103.34,425.785C1105.52,425.425 1107.93,425.245 1110.57,425.245L1112.55,425.245C1113.2,425.245 1113.86,425.293 1114.53,425.389C1114.68,423.949 1114.75,422.653 1114.75,421.501C1114.75,418.861 1114.22,417.013 1113.17,415.957C1112.11,414.901 1110.19,414.373 1107.41,414.373C1106.59,414.373 1105.71,414.433 1104.78,414.553C1103.84,414.673 1102.88,414.841 1101.9,415.057C1100.91,415.273 1099.98,415.537 1099.09,415.849C1098.2,416.161 1097.42,416.509 1096.75,416.893L1094.95,412.573ZM1105.17,441.445C1106.52,441.445 1107.72,441.265 1108.77,440.905C1109.83,440.545 1110.74,440.089 1111.51,439.537C1112.28,438.985 1112.91,438.373 1113.42,437.701C1113.92,437.029 1114.29,436.381 1114.53,435.757L1114.53,429.781C1113.86,429.733 1113.18,429.697 1112.48,429.673C1111.79,429.649 1111.1,429.637 1110.43,429.637C1108.94,429.637 1107.49,429.721 1106.07,429.889C1104.66,430.057 1103.41,430.369 1102.33,430.825C1101.25,431.281 1100.39,431.905 1099.74,432.697C1099.09,433.489 1098.77,434.485 1098.77,435.685C1098.77,437.365 1099.37,438.745 1100.57,439.825C1101.77,440.905 1103.3,441.445 1105.17,441.445Z" style="fill-rule:nonzero;"/>
        <circle cx="22.5" cy="149.3" r="14.5"/>
        <circle cx="458.297" cy="113.389" r="14.5"/>
        <path d="M164,-349.35L457.853,-475.233L710.178,-430.409" style="fill:none;stroke:rgb(250,112,255);stroke-width:24px;"/>
        <path d="M812,213.119L1016,23.334L1262,138.409L1110,359.813L812,213.119ZM943,179.11L1059,108.795L1140,213.119L1042,257.525L943,179.11Z" style="fill:rgb(194,194,194);"/>
        <path d="M196,716.432L489.853,590.55L742.178,635.373" style="fill:none;stroke:black;stroke-width:7px;"/>
        <path d="M164,235.741L457.853,109.858L710.178,154.682" style="fill:none;stroke:black;stroke-width:7px;"/>
        <path d="M844,692.536L1048,502.751L1294,617.827L1142,839.231L844,692.536ZM975,658.528L1091,588.213L1172,692.536L1074,736.943L975,658.528Z" style="fill:none;stroke:black;stroke-width:7px;"/>
        <path d="M88,427.909L116,427.909" style="fill:none;stroke:rgb(45,231,231);stroke-width:20px;"/>
        <path d="M116.5,427.909L144.5,427.909" style="fill:none;stroke:rgb(250,112,255);stroke-width:20px;"/>
        <path d="M145.001,427.909L173.001,427.909" style="fill:none;stroke:rgb(144,250,46);stroke-width:20px;"/>
        <path d="M173.501,427.909L201.501,427.909" style="fill:none;stroke:rgb(244,251,46);stroke-width:20px;"/>
        <path d="M202.001,427.909L230.001,427.909" style="fill:none;stroke:rgb(250,46,46);stroke-width:20px;"/>
        <path d="M230.501,427.909L258.501,427.909" style="fill:none;stroke:rgb(250,189,46);stroke-width:20px;"/>
        <path d="M259.002,427.909L287.002,427.909" style="fill:none;stroke:rgb(172,46,250);stroke-width:20px;"/>
        <path d="M287.502,427.909L315.502,427.909" style="fill:none;stroke:rgb(46,124,250);stroke-width:20px;"/>
        <circle cx="164" cy="235.741" r="19.833" style="fill:rgb(45,231,231);"/>
        <circle cx="707.943" cy="157.331" r="19.833" style="fill:rgb(250,112,255);"/>
        <path d="M1016,23.334L1260.05,137.498" style="fill:none;stroke:rgb(250,112,255);stroke-width:20px;stroke-linecap:round;"/>
        <path d="M943,179.11L1042,257.525" style="fill:none;stroke:rgb(46,124,250);stroke-width:19px;stroke-linecap:round;"/>
        <path d="M1016,23.334L812,213.119" style="fill:none;stroke:rgb(45,231,231);stroke-width:20px;stroke-linecap:round;"/>
        <path d="M812,213.119L1110,359.813" style="fill:none;stroke:rgb(244,251,46);stroke-width:20px;stroke-linecap:round;"/>
        <path d="M1110,359.813L1260.05,137.498" style="fill:none;stroke:rgb(144,250,46);stroke-width:20px;stroke-linecap:round;"/>
        <path d="M812,213.119L943,179.11" style="fill:none;stroke:black;stroke-width:2px;stroke-linecap:round;"/>
        <path d="M1059,108.795L1016,23.334" style="fill:none;stroke:black;stroke-width:2px;stroke-linecap:round;"/>
        <path d="M1140,213.119L1260.05,137.498" style="fill:none;stroke:black;stroke-width:2px;stroke-linecap:round;"/>
        <path d="M1042,257.525L1110,359.813" style="fill:none;stroke:black;stroke-width:2px;stroke-linecap:round;"/>
        <path d="M1140,213.119L1110,359.813" style="fill:none;stroke:black;stroke-width:2px;stroke-linecap:round;"/>
        <path d="M1059,108.795L1260.05,137.498" style="fill:none;stroke:black;stroke-width:2px;stroke-linecap:round;"/>
        <path d="M1042,257.525L812,213.119" style="fill:none;stroke:black;stroke-width:2px;stroke-linecap:round;"/>
        <path d="M943,179.11L1016,23.334" style="fill:none;stroke:black;stroke-width:2px;stroke-linecap:round;"/>
        <path d="M943,179.11L1059,108.795" style="fill:none;stroke:rgb(250,46,46);stroke-width:19px;stroke-linecap:round;"/>
        <path d="M1059,108.795L1140,213.119" style="fill:none;stroke:rgb(250,189,46);stroke-width:19px;stroke-linecap:round;"/>
        <path d="M1140,213.119L1042,257.525" style="fill:none;stroke:rgb(172,46,250);stroke-width:19px;stroke-linecap:round;"/>
        <path d="M812,213.119L1016,23.334L1262,138.409L1110,359.813L812,213.119ZM943,179.11L1059,108.795L1140,213.119L1042,257.525L943,179.11Z" style="fill:none;stroke:black;stroke-width:7px;"/>
        <circle cx="1016.5" cy="23.334" r="14.5"/>
        <circle cx="814.102" cy="210.94" r="14.5"/>
        <circle cx="947.869" cy="181.274" r="14.5"/>
        <circle cx="1057.78" cy="113.046" r="14.5"/>
        <circle cx="1261.69" cy="139.498" r="14.5"/>
        <circle cx="1139.7" cy="210.178" r="14.5"/>
        <circle cx="1042.13" cy="256.265" r="14.5"/>
        <circle cx="1108.24" cy="356.841" r="14.5"/>
    </g>
</svg>
