<?xml version="1.0" encoding="UTF-8" standalone="no"?>
<!DOCTYPE svg PUBLIC "-//W3C//DTD SVG 1.1//EN" "http://www.w3.org/Graphics/SVG/1.1/DTD/svg11.dtd">
<svg width="100%" height="100%" viewBox="0 0 610 170" version="1.1" xmlns="http://www.w3.org/2000/svg" xmlns:xlink="http://www.w3.org/1999/xlink" xml:space="preserve" xmlns:serif="http://www.serif.com/" style="fill-rule:evenodd;clip-rule:evenodd;stroke-miterlimit:1;">
    <g transform="matrix(1,0,0,1,-4213,-2435)">
        <g id="Features" transform="matrix(1.26784,0,0,1.46596,-2103.93,2039.2)">
            <rect x="4887" y="6" width="967" height="470" style="fill:none;"/>
            <g transform="matrix(0.788744,0,0,0.682148,3281.13,-720.539)">
                <path d="M2163,1522L2249,1454L2345.5,1512L2304,1595L2213,1615L2163,1522Z" style="fill:url(#_Linear1);stroke:black;stroke-width:3px;"/>
            </g>
            <g transform="matrix(1.19603,0,0,0.682148,2272.86,-743.75)">
                <g transform="matrix(0.659471,-0,-0,1,2265.48,1486.1)">
                    <path d="M228.487,26.813L250.987,38.063L228.487,49.313L228.487,26.813Z"/>
                    <path d="M105.841,38.063L232.987,38.063" style="fill:none;stroke:black;stroke-width:5px;"/>
                </g>
            </g>
            <g transform="matrix(1.37025,0,0,0.682148,1849.32,-703.385)">
                <g transform="matrix(0.575619,-0,-0,1,2286.53,1426.93)">
                    <path d="M228.487,85.986L250.987,97.236L228.487,108.486L228.487,85.986Z"/>
                    <path d="M84.697,97.236L232.987,97.236" style="fill:none;stroke:black;stroke-width:5px;"/>
                </g>
            </g>
            <g transform="matrix(0.788744,0,0,0.682148,1490.67,-1205.11)">
                <g transform="matrix(24,0,0,24,4496.79,2231.87)">
                    <path d="M0.071,-0L0.071,-0.11L0.189,-0.11L0.189,-0.39L0.07,-0.39L0.07,-0.5L0.189,-0.5L0.189,-0.528C0.189,-0.559 0.195,-0.586 0.206,-0.609C0.217,-0.632 0.231,-0.65 0.249,-0.665C0.267,-0.68 0.288,-0.691 0.312,-0.698C0.335,-0.705 0.36,-0.708 0.385,-0.708C0.431,-0.708 0.469,-0.704 0.499,-0.697C0.528,-0.689 0.553,-0.679 0.572,-0.668L0.534,-0.569C0.519,-0.576 0.502,-0.583 0.485,-0.589C0.467,-0.595 0.444,-0.598 0.416,-0.598C0.38,-0.598 0.355,-0.59 0.341,-0.574C0.326,-0.557 0.319,-0.533 0.319,-0.5L0.529,-0.5L0.529,-0.39L0.319,-0.39L0.319,-0.11L0.53,-0.11L0.53,-0L0.071,-0Z" style="fill-rule:nonzero;"/>
                </g>
                <g transform="matrix(24,0,0,24,4511.19,2231.87)">
                    <path d="M0.455,0.212C0.408,0.205 0.363,0.19 0.319,0.168C0.275,0.146 0.236,0.116 0.202,0.079C0.168,0.042 0.141,-0.004 0.121,-0.057C0.1,-0.11 0.09,-0.172 0.09,-0.243C0.09,-0.313 0.1,-0.375 0.121,-0.429C0.141,-0.482 0.168,-0.528 0.202,-0.566C0.236,-0.604 0.275,-0.634 0.319,-0.657C0.363,-0.68 0.408,-0.695 0.455,-0.704L0.479,-0.597C0.456,-0.592 0.429,-0.582 0.4,-0.569C0.37,-0.555 0.342,-0.535 0.315,-0.508C0.288,-0.481 0.266,-0.446 0.248,-0.403C0.229,-0.36 0.22,-0.307 0.22,-0.243C0.22,-0.182 0.23,-0.13 0.249,-0.088C0.268,-0.046 0.292,-0.012 0.32,0.016C0.347,0.043 0.376,0.063 0.405,0.077C0.434,0.09 0.459,0.099 0.479,0.103L0.455,0.212Z" style="fill-rule:nonzero;"/>
                </g>
                <g transform="matrix(24,0,0,24,4525.59,2231.87)">
                    <path d="M0.211,-0.258L0.037,-0.5L0.192,-0.5L0.305,-0.333L0.423,-0.5L0.564,-0.5L0.393,-0.26L0.574,-0L0.423,-0L0.296,-0.184L0.167,-0L0.025,-0L0.211,-0.258Z" style="fill-rule:nonzero;"/>
                </g>
                <g transform="matrix(13.992,0,0,13.992,4539.99,2239.87)">
                    <path d="M0.106,-0.11L0.259,-0.11L0.259,-0.547L0.127,-0.446L0.067,-0.526L0.295,-0.7L0.383,-0.7L0.383,-0.11L0.533,-0.11L0.533,-0L0.106,-0L0.106,-0.11Z" style="fill-rule:nonzero;"/>
                </g>
                <g transform="matrix(24,0,0,24,4548.39,2231.87)">
                    <path d="M0.218,-0.064C0.218,-0.087 0.226,-0.105 0.241,-0.118C0.256,-0.131 0.274,-0.138 0.297,-0.138C0.334,-0.138 0.361,-0.126 0.38,-0.102C0.399,-0.078 0.408,-0.048 0.408,-0.013C0.408,0.017 0.402,0.044 0.391,0.069C0.379,0.094 0.364,0.115 0.345,0.133C0.326,0.151 0.306,0.166 0.283,0.177C0.26,0.188 0.237,0.196 0.214,0.2L0.187,0.145C0.203,0.141 0.219,0.135 0.236,0.128C0.252,0.121 0.267,0.112 0.28,0.101C0.293,0.09 0.305,0.077 0.314,0.062C0.323,0.047 0.328,0.031 0.329,0.014C0.309,0.018 0.292,0.019 0.278,0.016C0.264,0.012 0.253,0.007 0.244,-0.001C0.235,-0.008 0.228,-0.018 0.224,-0.029C0.22,-0.04 0.218,-0.051 0.218,-0.064Z" style="fill-rule:nonzero;"/>
                </g>
                <g transform="matrix(24,0,0,24,4562.79,2231.87)">
                    <path d="M0.301,-0.141L0.339,-0.141L0.436,-0.5L0.57,-0.5L0.428,-0.049C0.415,-0.012 0.403,0.023 0.391,0.054C0.379,0.085 0.365,0.111 0.349,0.134C0.333,0.157 0.314,0.174 0.293,0.187C0.271,0.199 0.244,0.205 0.213,0.205C0.198,0.205 0.183,0.203 0.17,0.199C0.156,0.195 0.143,0.19 0.132,0.185C0.121,0.179 0.111,0.173 0.102,0.167C0.093,0.16 0.086,0.154 0.081,0.149L0.148,0.06C0.157,0.067 0.167,0.074 0.179,0.081C0.191,0.087 0.202,0.09 0.213,0.09C0.233,0.09 0.249,0.083 0.261,0.069C0.272,0.055 0.283,0.032 0.294,-0L0.223,-0L0.015,-0.5L0.156,-0.5L0.301,-0.141Z" style="fill-rule:nonzero;"/>
                </g>
                <g transform="matrix(13.992,0,0,13.992,4577.19,2239.87)">
                    <path d="M0.106,-0.11L0.259,-0.11L0.259,-0.547L0.127,-0.446L0.067,-0.526L0.295,-0.7L0.383,-0.7L0.383,-0.11L0.533,-0.11L0.533,-0L0.106,-0L0.106,-0.11Z" style="fill-rule:nonzero;"/>
                </g>
                <g transform="matrix(24,0,0,24,4585.58,2231.87)">
                    <path d="M0.12,0.103C0.14,0.099 0.165,0.09 0.194,0.077C0.223,0.063 0.252,0.043 0.28,0.016C0.307,-0.012 0.331,-0.046 0.35,-0.088C0.369,-0.13 0.379,-0.182 0.379,-0.243C0.379,-0.307 0.37,-0.36 0.352,-0.403C0.333,-0.446 0.311,-0.481 0.284,-0.508C0.257,-0.535 0.229,-0.555 0.2,-0.569C0.17,-0.582 0.143,-0.592 0.12,-0.597L0.144,-0.704C0.191,-0.695 0.236,-0.68 0.28,-0.657C0.324,-0.634 0.363,-0.604 0.397,-0.566C0.431,-0.528 0.458,-0.482 0.479,-0.429C0.499,-0.375 0.509,-0.313 0.509,-0.243C0.509,-0.172 0.499,-0.11 0.479,-0.057C0.458,-0.004 0.431,0.042 0.397,0.079C0.363,0.116 0.324,0.146 0.28,0.168C0.236,0.19 0.191,0.205 0.144,0.212L0.12,0.103Z" style="fill-rule:nonzero;"/>
                </g>
            </g>
            <g transform="matrix(0.788744,0,0,0.682148,1472.88,-1164.31)">
                <g transform="matrix(24,0,0,24,4496.79,2231.87)">
                    <path d="M0.071,-0L0.071,-0.11L0.189,-0.11L0.189,-0.39L0.07,-0.39L0.07,-0.5L0.189,-0.5L0.189,-0.528C0.189,-0.559 0.195,-0.586 0.206,-0.609C0.217,-0.632 0.231,-0.65 0.249,-0.665C0.267,-0.68 0.288,-0.691 0.312,-0.698C0.335,-0.705 0.36,-0.708 0.385,-0.708C0.431,-0.708 0.469,-0.704 0.499,-0.697C0.528,-0.689 0.553,-0.679 0.572,-0.668L0.534,-0.569C0.519,-0.576 0.502,-0.583 0.485,-0.589C0.467,-0.595 0.444,-0.598 0.416,-0.598C0.38,-0.598 0.355,-0.59 0.341,-0.574C0.326,-0.557 0.319,-0.533 0.319,-0.5L0.529,-0.5L0.529,-0.39L0.319,-0.39L0.319,-0.11L0.53,-0.11L0.53,-0L0.071,-0Z" style="fill-rule:nonzero;"/>
                </g>
                <g transform="matrix(24,0,0,24,4511.19,2231.87)">
                    <path d="M0.455,0.212C0.408,0.205 0.363,0.19 0.319,0.168C0.275,0.146 0.236,0.116 0.202,0.079C0.168,0.042 0.141,-0.004 0.121,-0.057C0.1,-0.11 0.09,-0.172 0.09,-0.243C0.09,-0.313 0.1,-0.375 0.121,-0.429C0.141,-0.482 0.168,-0.528 0.202,-0.566C0.236,-0.604 0.275,-0.634 0.319,-0.657C0.363,-0.68 0.408,-0.695 0.455,-0.704L0.479,-0.597C0.456,-0.592 0.429,-0.582 0.4,-0.569C0.37,-0.555 0.342,-0.535 0.315,-0.508C0.288,-0.481 0.266,-0.446 0.248,-0.403C0.229,-0.36 0.22,-0.307 0.22,-0.243C0.22,-0.182 0.23,-0.13 0.249,-0.088C0.268,-0.046 0.292,-0.012 0.32,0.016C0.347,0.043 0.376,0.063 0.405,0.077C0.434,0.09 0.459,0.099 0.479,0.103L0.455,0.212Z" style="fill-rule:nonzero;"/>
                </g>
                <g transform="matrix(24,0,0,24,4525.59,2231.87)">
                    <path d="M0.211,-0.258L0.037,-0.5L0.192,-0.5L0.305,-0.333L0.423,-0.5L0.564,-0.5L0.393,-0.26L0.574,-0L0.423,-0L0.296,-0.184L0.167,-0L0.025,-0L0.211,-0.258Z" style="fill-rule:nonzero;"/>
                </g>
                <g transform="matrix(13.992,0,0,13.992,4539.99,2239.87)">
                    <path d="M0.523,-0L0.077,-0L0.077,-0.097C0.085,-0.104 0.095,-0.113 0.107,-0.124C0.119,-0.135 0.132,-0.147 0.148,-0.161C0.163,-0.175 0.178,-0.19 0.195,-0.207C0.212,-0.224 0.228,-0.241 0.244,-0.259C0.267,-0.284 0.287,-0.307 0.304,-0.328C0.321,-0.349 0.335,-0.368 0.346,-0.387C0.357,-0.405 0.365,-0.423 0.37,-0.441C0.375,-0.458 0.378,-0.476 0.378,-0.495C0.378,-0.508 0.375,-0.521 0.369,-0.534C0.363,-0.547 0.355,-0.558 0.344,-0.568C0.333,-0.577 0.321,-0.585 0.306,-0.591C0.291,-0.596 0.274,-0.599 0.256,-0.599C0.232,-0.599 0.21,-0.595 0.191,-0.588C0.171,-0.581 0.15,-0.568 0.129,-0.551L0.077,-0.643C0.105,-0.663 0.136,-0.68 0.171,-0.694C0.205,-0.707 0.244,-0.714 0.289,-0.714C0.318,-0.714 0.345,-0.71 0.372,-0.702C0.398,-0.694 0.421,-0.682 0.442,-0.667C0.462,-0.651 0.478,-0.631 0.49,-0.608C0.502,-0.585 0.508,-0.558 0.508,-0.527C0.508,-0.506 0.506,-0.486 0.503,-0.468C0.499,-0.449 0.493,-0.431 0.486,-0.413C0.478,-0.394 0.468,-0.375 0.456,-0.356C0.443,-0.337 0.428,-0.316 0.411,-0.293C0.398,-0.276 0.383,-0.258 0.368,-0.241C0.352,-0.223 0.336,-0.206 0.321,-0.19C0.306,-0.174 0.291,-0.159 0.276,-0.145C0.261,-0.131 0.247,-0.119 0.235,-0.11L0.523,-0.11L0.523,-0Z" style="fill-rule:nonzero;"/>
                </g>
                <g transform="matrix(24,0,0,24,4548.39,2231.87)">
                    <path d="M0.218,-0.064C0.218,-0.087 0.226,-0.105 0.241,-0.118C0.256,-0.131 0.274,-0.138 0.297,-0.138C0.334,-0.138 0.361,-0.126 0.38,-0.102C0.399,-0.078 0.408,-0.048 0.408,-0.013C0.408,0.017 0.402,0.044 0.391,0.069C0.379,0.094 0.364,0.115 0.345,0.133C0.326,0.151 0.306,0.166 0.283,0.177C0.26,0.188 0.237,0.196 0.214,0.2L0.187,0.145C0.203,0.141 0.219,0.135 0.236,0.128C0.252,0.121 0.267,0.112 0.28,0.101C0.293,0.09 0.305,0.077 0.314,0.062C0.323,0.047 0.328,0.031 0.329,0.014C0.309,0.018 0.292,0.019 0.278,0.016C0.264,0.012 0.253,0.007 0.244,-0.001C0.235,-0.008 0.228,-0.018 0.224,-0.029C0.22,-0.04 0.218,-0.051 0.218,-0.064Z" style="fill-rule:nonzero;"/>
                </g>
                <g transform="matrix(24,0,0,24,4562.79,2231.87)">
                    <path d="M0.301,-0.141L0.339,-0.141L0.436,-0.5L0.57,-0.5L0.428,-0.049C0.415,-0.012 0.403,0.023 0.391,0.054C0.379,0.085 0.365,0.111 0.349,0.134C0.333,0.157 0.314,0.174 0.293,0.187C0.271,0.199 0.244,0.205 0.213,0.205C0.198,0.205 0.183,0.203 0.17,0.199C0.156,0.195 0.143,0.19 0.132,0.185C0.121,0.179 0.111,0.173 0.102,0.167C0.093,0.16 0.086,0.154 0.081,0.149L0.148,0.06C0.157,0.067 0.167,0.074 0.179,0.081C0.191,0.087 0.202,0.09 0.213,0.09C0.233,0.09 0.249,0.083 0.261,0.069C0.272,0.055 0.283,0.032 0.294,-0L0.223,-0L0.015,-0.5L0.156,-0.5L0.301,-0.141Z" style="fill-rule:nonzero;"/>
                </g>
                <g transform="matrix(13.992,0,0,13.992,4577.19,2239.87)">
                    <path d="M0.523,-0L0.077,-0L0.077,-0.097C0.085,-0.104 0.095,-0.113 0.107,-0.124C0.119,-0.135 0.132,-0.147 0.148,-0.161C0.163,-0.175 0.178,-0.19 0.195,-0.207C0.212,-0.224 0.228,-0.241 0.244,-0.259C0.267,-0.284 0.287,-0.307 0.304,-0.328C0.321,-0.349 0.335,-0.368 0.346,-0.387C0.357,-0.405 0.365,-0.423 0.37,-0.441C0.375,-0.458 0.378,-0.476 0.378,-0.495C0.378,-0.508 0.375,-0.521 0.369,-0.534C0.363,-0.547 0.355,-0.558 0.344,-0.568C0.333,-0.577 0.321,-0.585 0.306,-0.591C0.291,-0.596 0.274,-0.599 0.256,-0.599C0.232,-0.599 0.21,-0.595 0.191,-0.588C0.171,-0.581 0.15,-0.568 0.129,-0.551L0.077,-0.643C0.105,-0.663 0.136,-0.68 0.171,-0.694C0.205,-0.707 0.244,-0.714 0.289,-0.714C0.318,-0.714 0.345,-0.71 0.372,-0.702C0.398,-0.694 0.421,-0.682 0.442,-0.667C0.462,-0.651 0.478,-0.631 0.49,-0.608C0.502,-0.585 0.508,-0.558 0.508,-0.527C0.508,-0.506 0.506,-0.486 0.503,-0.468C0.499,-0.449 0.493,-0.431 0.486,-0.413C0.478,-0.394 0.468,-0.375 0.456,-0.356C0.443,-0.337 0.428,-0.316 0.411,-0.293C0.398,-0.276 0.383,-0.258 0.368,-0.241C0.352,-0.223 0.336,-0.206 0.321,-0.19C0.306,-0.174 0.291,-0.159 0.276,-0.145C0.261,-0.131 0.247,-0.119 0.235,-0.11L0.523,-0.11L0.523,-0Z" style="fill-rule:nonzero;"/>
                </g>
                <g transform="matrix(24,0,0,24,4585.58,2231.87)">
                    <path d="M0.12,0.103C0.14,0.099 0.165,0.09 0.194,0.077C0.223,0.063 0.252,0.043 0.28,0.016C0.307,-0.012 0.331,-0.046 0.35,-0.088C0.369,-0.13 0.379,-0.182 0.379,-0.243C0.379,-0.307 0.37,-0.36 0.352,-0.403C0.333,-0.446 0.311,-0.481 0.284,-0.508C0.257,-0.535 0.229,-0.555 0.2,-0.569C0.17,-0.582 0.143,-0.592 0.12,-0.597L0.144,-0.704C0.191,-0.695 0.236,-0.68 0.28,-0.657C0.324,-0.634 0.363,-0.604 0.397,-0.566C0.431,-0.528 0.458,-0.482 0.479,-0.429C0.499,-0.375 0.509,-0.313 0.509,-0.243C0.509,-0.172 0.499,-0.11 0.479,-0.057C0.458,-0.004 0.431,0.042 0.397,0.079C0.363,0.116 0.324,0.146 0.28,0.168C0.236,0.19 0.191,0.205 0.144,0.212L0.12,0.103Z" style="fill-rule:nonzero;"/>
                </g>
            </g>
            <g transform="matrix(0.788744,0,0,0.682148,1734.39,-1218.12)">
                <g transform="matrix(36,0,0,36,4372,2231.87)">
                    <path d="M0.036,-0.295L0.036,-0.345L0.503,-0.635L0.56,-0.545L0.196,-0.325L0.56,-0.11L0.503,-0.02L0.036,-0.295Z" style="fill-rule:nonzero;"/>
                </g>
                <g transform="matrix(36,0,0,36,4393.6,2231.87)">
                    <path d="M0.313,-0.151L0.32,-0.151L0.432,-0.5L0.572,-0.5L0.381,-0L0.242,-0L0.027,-0.5L0.178,-0.5L0.313,-0.151Z" style="fill-rule:nonzero;"/>
                </g>
                <g transform="matrix(20.988,0,0,20.988,4415.2,2243.86)">
                    <path d="M0.106,-0.11L0.259,-0.11L0.259,-0.547L0.127,-0.446L0.067,-0.526L0.295,-0.7L0.383,-0.7L0.383,-0.11L0.533,-0.11L0.533,-0L0.106,-0L0.106,-0.11Z" style="fill-rule:nonzero;"/>
                </g>
                <g transform="matrix(36,0,0,36,4427.8,2231.87)">
                    <path d="M0.218,-0.064C0.218,-0.087 0.226,-0.105 0.241,-0.118C0.256,-0.131 0.274,-0.138 0.297,-0.138C0.334,-0.138 0.361,-0.126 0.38,-0.102C0.399,-0.078 0.408,-0.048 0.408,-0.013C0.408,0.017 0.402,0.044 0.391,0.069C0.379,0.094 0.364,0.115 0.345,0.133C0.326,0.151 0.306,0.166 0.283,0.177C0.26,0.188 0.237,0.196 0.214,0.2L0.187,0.145C0.203,0.141 0.219,0.135 0.236,0.128C0.252,0.121 0.267,0.112 0.28,0.101C0.293,0.09 0.305,0.077 0.314,0.062C0.323,0.047 0.328,0.031 0.329,0.014C0.309,0.018 0.292,0.019 0.278,0.016C0.264,0.012 0.253,0.007 0.244,-0.001C0.235,-0.008 0.228,-0.018 0.224,-0.029C0.22,-0.04 0.218,-0.051 0.218,-0.064Z" style="fill-rule:nonzero;"/>
                </g>
                <g transform="matrix(36,0,0,36,4471,2231.87)">
                    <path d="M0.313,-0.151L0.32,-0.151L0.432,-0.5L0.572,-0.5L0.381,-0L0.242,-0L0.027,-0.5L0.178,-0.5L0.313,-0.151Z" style="fill-rule:nonzero;"/>
                </g>
                <g transform="matrix(20.988,0,0,20.988,4492.6,2243.86)">
                    <path d="M0.523,-0L0.077,-0L0.077,-0.097C0.085,-0.104 0.095,-0.113 0.107,-0.124C0.119,-0.135 0.132,-0.147 0.148,-0.161C0.163,-0.175 0.178,-0.19 0.195,-0.207C0.212,-0.224 0.228,-0.241 0.244,-0.259C0.267,-0.284 0.287,-0.307 0.304,-0.328C0.321,-0.349 0.335,-0.368 0.346,-0.387C0.357,-0.405 0.365,-0.423 0.37,-0.441C0.375,-0.458 0.378,-0.476 0.378,-0.495C0.378,-0.508 0.375,-0.521 0.369,-0.534C0.363,-0.547 0.355,-0.558 0.344,-0.568C0.333,-0.577 0.321,-0.585 0.306,-0.591C0.291,-0.596 0.274,-0.599 0.256,-0.599C0.232,-0.599 0.21,-0.595 0.191,-0.588C0.171,-0.581 0.15,-0.568 0.129,-0.551L0.077,-0.643C0.105,-0.663 0.136,-0.68 0.171,-0.694C0.205,-0.707 0.244,-0.714 0.289,-0.714C0.318,-0.714 0.345,-0.71 0.372,-0.702C0.398,-0.694 0.421,-0.682 0.442,-0.667C0.462,-0.651 0.478,-0.631 0.49,-0.608C0.502,-0.585 0.508,-0.558 0.508,-0.527C0.508,-0.506 0.506,-0.486 0.503,-0.468C0.499,-0.449 0.493,-0.431 0.486,-0.413C0.478,-0.394 0.468,-0.375 0.456,-0.356C0.443,-0.337 0.428,-0.316 0.411,-0.293C0.398,-0.276 0.383,-0.258 0.368,-0.241C0.352,-0.223 0.336,-0.206 0.321,-0.19C0.306,-0.174 0.291,-0.159 0.276,-0.145C0.261,-0.131 0.247,-0.119 0.235,-0.11L0.523,-0.11L0.523,-0Z" style="fill-rule:nonzero;"/>
                </g>
                <g transform="matrix(36,0,0,36,4505.19,2231.87)">
                    <path d="M0.218,-0.064C0.218,-0.087 0.226,-0.105 0.241,-0.118C0.256,-0.131 0.274,-0.138 0.297,-0.138C0.334,-0.138 0.361,-0.126 0.38,-0.102C0.399,-0.078 0.408,-0.048 0.408,-0.013C0.408,0.017 0.402,0.044 0.391,0.069C0.379,0.094 0.364,0.115 0.345,0.133C0.326,0.151 0.306,0.166 0.283,0.177C0.26,0.188 0.237,0.196 0.214,0.2L0.187,0.145C0.203,0.141 0.219,0.135 0.236,0.128C0.252,0.121 0.267,0.112 0.28,0.101C0.293,0.09 0.305,0.077 0.314,0.062C0.323,0.047 0.328,0.031 0.329,0.014C0.309,0.018 0.292,0.019 0.278,0.016C0.264,0.012 0.253,0.007 0.244,-0.001C0.235,-0.008 0.228,-0.018 0.224,-0.029C0.22,-0.04 0.218,-0.051 0.218,-0.064Z" style="fill-rule:nonzero;"/>
                </g>
                <g transform="matrix(36,0,0,36,4548.39,2231.87)">
                    <path d="M0.219,-0.066C0.219,-0.089 0.226,-0.108 0.241,-0.122C0.256,-0.135 0.275,-0.142 0.299,-0.142C0.324,-0.142 0.344,-0.135 0.359,-0.122C0.374,-0.108 0.381,-0.089 0.381,-0.066C0.381,-0.043 0.374,-0.024 0.359,-0.01C0.344,0.004 0.324,0.011 0.299,0.011C0.275,0.011 0.256,0.004 0.241,-0.01C0.226,-0.024 0.219,-0.043 0.219,-0.066Z" style="fill-rule:nonzero;"/>
                </g>
                <g transform="matrix(36,0,0,36,4569.99,2231.87)">
                    <path d="M0.219,-0.066C0.219,-0.089 0.226,-0.108 0.241,-0.122C0.256,-0.135 0.275,-0.142 0.299,-0.142C0.324,-0.142 0.344,-0.135 0.359,-0.122C0.374,-0.108 0.381,-0.089 0.381,-0.066C0.381,-0.043 0.374,-0.024 0.359,-0.01C0.344,0.004 0.324,0.011 0.299,0.011C0.275,0.011 0.256,0.004 0.241,-0.01C0.226,-0.024 0.219,-0.043 0.219,-0.066Z" style="fill-rule:nonzero;"/>
                </g>
                <g transform="matrix(36,0,0,36,4591.59,2231.87)">
                    <path d="M0.219,-0.066C0.219,-0.089 0.226,-0.108 0.241,-0.122C0.256,-0.135 0.275,-0.142 0.299,-0.142C0.324,-0.142 0.344,-0.135 0.359,-0.122C0.374,-0.108 0.381,-0.089 0.381,-0.066C0.381,-0.043 0.374,-0.024 0.359,-0.01C0.344,0.004 0.324,0.011 0.299,0.011C0.275,0.011 0.256,0.004 0.241,-0.01C0.226,-0.024 0.219,-0.043 0.219,-0.066Z" style="fill-rule:nonzero;"/>
                </g>
                <g transform="matrix(36,0,0,36,4613.19,2231.87)">
                    <path d="M0.218,-0.064C0.218,-0.087 0.226,-0.105 0.241,-0.118C0.256,-0.131 0.274,-0.138 0.297,-0.138C0.334,-0.138 0.361,-0.126 0.38,-0.102C0.399,-0.078 0.408,-0.048 0.408,-0.013C0.408,0.017 0.402,0.044 0.391,0.069C0.379,0.094 0.364,0.115 0.345,0.133C0.326,0.151 0.306,0.166 0.283,0.177C0.26,0.188 0.237,0.196 0.214,0.2L0.187,0.145C0.203,0.141 0.219,0.135 0.236,0.128C0.252,0.121 0.267,0.112 0.28,0.101C0.293,0.09 0.305,0.077 0.314,0.062C0.323,0.047 0.328,0.031 0.329,0.014C0.309,0.018 0.292,0.019 0.278,0.016C0.264,0.012 0.253,0.007 0.244,-0.001C0.235,-0.008 0.228,-0.018 0.224,-0.029C0.22,-0.04 0.218,-0.051 0.218,-0.064Z" style="fill-rule:nonzero;"/>
                </g>
                <g transform="matrix(36,0,0,36,4656.39,2231.87)">
                    <path d="M0.313,-0.151L0.32,-0.151L0.432,-0.5L0.572,-0.5L0.381,-0L0.242,-0L0.027,-0.5L0.178,-0.5L0.313,-0.151Z" style="fill-rule:nonzero;"/>
                </g>
                <g transform="matrix(20.988,0,0,20.988,4677.99,2243.86)">
                    <path d="M0.012,-0.5L0.187,-0.5L0.202,-0.434L0.206,-0.434C0.221,-0.455 0.243,-0.474 0.272,-0.49C0.301,-0.506 0.335,-0.514 0.375,-0.514C0.4,-0.514 0.423,-0.511 0.445,-0.504C0.466,-0.497 0.485,-0.486 0.5,-0.471C0.515,-0.456 0.528,-0.435 0.537,-0.409C0.546,-0.382 0.55,-0.35 0.55,-0.311L0.55,-0L0.42,-0L0.42,-0.284C0.42,-0.325 0.411,-0.354 0.393,-0.372C0.374,-0.39 0.351,-0.399 0.323,-0.399C0.298,-0.399 0.276,-0.392 0.256,-0.378C0.235,-0.363 0.221,-0.345 0.214,-0.324L0.214,-0L0.084,-0L0.084,-0.39L0.012,-0.39L0.012,-0.5Z" style="fill-rule:nonzero;"/>
                </g>
                <g transform="matrix(36,0,0,36,4690.58,2231.87)">
                    <path d="M0.093,-0.02L0.036,-0.11L0.4,-0.325L0.036,-0.545L0.093,-0.635L0.56,-0.345L0.56,-0.295L0.093,-0.02Z" style="fill-rule:nonzero;"/>
                </g>
                <g transform="matrix(20.988,0,0,20.988,4712.18,2243.86)">
                    <path d="M0.106,-0.11L0.259,-0.11L0.259,-0.547L0.127,-0.446L0.067,-0.526L0.295,-0.7L0.383,-0.7L0.383,-0.11L0.533,-0.11L0.533,-0L0.106,-0L0.106,-0.11Z" style="fill-rule:nonzero;"/>
                </g>
            </g>
            <g transform="matrix(0.788744,0,0,0.682148,1734.39,-1177.93)">
                <g transform="matrix(36,0,0,36,4372,2231.87)">
                    <path d="M0.036,-0.295L0.036,-0.345L0.503,-0.635L0.56,-0.545L0.196,-0.325L0.56,-0.11L0.503,-0.02L0.036,-0.295Z" style="fill-rule:nonzero;"/>
                </g>
                <g transform="matrix(36,0,0,36,4393.6,2231.87)">
                    <path d="M0.313,-0.151L0.32,-0.151L0.432,-0.5L0.572,-0.5L0.381,-0L0.242,-0L0.027,-0.5L0.178,-0.5L0.313,-0.151Z" style="fill-rule:nonzero;"/>
                </g>
                <g transform="matrix(20.988,0,0,20.988,4415.2,2243.86)">
                    <path d="M0.106,-0.11L0.259,-0.11L0.259,-0.547L0.127,-0.446L0.067,-0.526L0.295,-0.7L0.383,-0.7L0.383,-0.11L0.533,-0.11L0.533,-0L0.106,-0L0.106,-0.11Z" style="fill-rule:nonzero;"/>
                </g>
                <g transform="matrix(36,0,0,36,4427.8,2231.87)">
                    <path d="M0.218,-0.064C0.218,-0.087 0.226,-0.105 0.241,-0.118C0.256,-0.131 0.274,-0.138 0.297,-0.138C0.334,-0.138 0.361,-0.126 0.38,-0.102C0.399,-0.078 0.408,-0.048 0.408,-0.013C0.408,0.017 0.402,0.044 0.391,0.069C0.379,0.094 0.364,0.115 0.345,0.133C0.326,0.151 0.306,0.166 0.283,0.177C0.26,0.188 0.237,0.196 0.214,0.2L0.187,0.145C0.203,0.141 0.219,0.135 0.236,0.128C0.252,0.121 0.267,0.112 0.28,0.101C0.293,0.09 0.305,0.077 0.314,0.062C0.323,0.047 0.328,0.031 0.329,0.014C0.309,0.018 0.292,0.019 0.278,0.016C0.264,0.012 0.253,0.007 0.244,-0.001C0.235,-0.008 0.228,-0.018 0.224,-0.029C0.22,-0.04 0.218,-0.051 0.218,-0.064Z" style="fill-rule:nonzero;"/>
                </g>
                <g transform="matrix(36,0,0,36,4471,2231.87)">
                    <path d="M0.313,-0.151L0.32,-0.151L0.432,-0.5L0.572,-0.5L0.381,-0L0.242,-0L0.027,-0.5L0.178,-0.5L0.313,-0.151Z" style="fill-rule:nonzero;"/>
                </g>
                <g transform="matrix(20.988,0,0,20.988,4492.6,2243.86)">
                    <path d="M0.523,-0L0.077,-0L0.077,-0.097C0.085,-0.104 0.095,-0.113 0.107,-0.124C0.119,-0.135 0.132,-0.147 0.148,-0.161C0.163,-0.175 0.178,-0.19 0.195,-0.207C0.212,-0.224 0.228,-0.241 0.244,-0.259C0.267,-0.284 0.287,-0.307 0.304,-0.328C0.321,-0.349 0.335,-0.368 0.346,-0.387C0.357,-0.405 0.365,-0.423 0.37,-0.441C0.375,-0.458 0.378,-0.476 0.378,-0.495C0.378,-0.508 0.375,-0.521 0.369,-0.534C0.363,-0.547 0.355,-0.558 0.344,-0.568C0.333,-0.577 0.321,-0.585 0.306,-0.591C0.291,-0.596 0.274,-0.599 0.256,-0.599C0.232,-0.599 0.21,-0.595 0.191,-0.588C0.171,-0.581 0.15,-0.568 0.129,-0.551L0.077,-0.643C0.105,-0.663 0.136,-0.68 0.171,-0.694C0.205,-0.707 0.244,-0.714 0.289,-0.714C0.318,-0.714 0.345,-0.71 0.372,-0.702C0.398,-0.694 0.421,-0.682 0.442,-0.667C0.462,-0.651 0.478,-0.631 0.49,-0.608C0.502,-0.585 0.508,-0.558 0.508,-0.527C0.508,-0.506 0.506,-0.486 0.503,-0.468C0.499,-0.449 0.493,-0.431 0.486,-0.413C0.478,-0.394 0.468,-0.375 0.456,-0.356C0.443,-0.337 0.428,-0.316 0.411,-0.293C0.398,-0.276 0.383,-0.258 0.368,-0.241C0.352,-0.223 0.336,-0.206 0.321,-0.19C0.306,-0.174 0.291,-0.159 0.276,-0.145C0.261,-0.131 0.247,-0.119 0.235,-0.11L0.523,-0.11L0.523,-0Z" style="fill-rule:nonzero;"/>
                </g>
                <g transform="matrix(36,0,0,36,4505.19,2231.87)">
                    <path d="M0.218,-0.064C0.218,-0.087 0.226,-0.105 0.241,-0.118C0.256,-0.131 0.274,-0.138 0.297,-0.138C0.334,-0.138 0.361,-0.126 0.38,-0.102C0.399,-0.078 0.408,-0.048 0.408,-0.013C0.408,0.017 0.402,0.044 0.391,0.069C0.379,0.094 0.364,0.115 0.345,0.133C0.326,0.151 0.306,0.166 0.283,0.177C0.26,0.188 0.237,0.196 0.214,0.2L0.187,0.145C0.203,0.141 0.219,0.135 0.236,0.128C0.252,0.121 0.267,0.112 0.28,0.101C0.293,0.09 0.305,0.077 0.314,0.062C0.323,0.047 0.328,0.031 0.329,0.014C0.309,0.018 0.292,0.019 0.278,0.016C0.264,0.012 0.253,0.007 0.244,-0.001C0.235,-0.008 0.228,-0.018 0.224,-0.029C0.22,-0.04 0.218,-0.051 0.218,-0.064Z" style="fill-rule:nonzero;"/>
                </g>
                <g transform="matrix(36,0,0,36,4548.39,2231.87)">
                    <path d="M0.219,-0.066C0.219,-0.089 0.226,-0.108 0.241,-0.122C0.256,-0.135 0.275,-0.142 0.299,-0.142C0.324,-0.142 0.344,-0.135 0.359,-0.122C0.374,-0.108 0.381,-0.089 0.381,-0.066C0.381,-0.043 0.374,-0.024 0.359,-0.01C0.344,0.004 0.324,0.011 0.299,0.011C0.275,0.011 0.256,0.004 0.241,-0.01C0.226,-0.024 0.219,-0.043 0.219,-0.066Z" style="fill-rule:nonzero;"/>
                </g>
                <g transform="matrix(36,0,0,36,4569.99,2231.87)">
                    <path d="M0.219,-0.066C0.219,-0.089 0.226,-0.108 0.241,-0.122C0.256,-0.135 0.275,-0.142 0.299,-0.142C0.324,-0.142 0.344,-0.135 0.359,-0.122C0.374,-0.108 0.381,-0.089 0.381,-0.066C0.381,-0.043 0.374,-0.024 0.359,-0.01C0.344,0.004 0.324,0.011 0.299,0.011C0.275,0.011 0.256,0.004 0.241,-0.01C0.226,-0.024 0.219,-0.043 0.219,-0.066Z" style="fill-rule:nonzero;"/>
                </g>
                <g transform="matrix(36,0,0,36,4591.59,2231.87)">
                    <path d="M0.219,-0.066C0.219,-0.089 0.226,-0.108 0.241,-0.122C0.256,-0.135 0.275,-0.142 0.299,-0.142C0.324,-0.142 0.344,-0.135 0.359,-0.122C0.374,-0.108 0.381,-0.089 0.381,-0.066C0.381,-0.043 0.374,-0.024 0.359,-0.01C0.344,0.004 0.324,0.011 0.299,0.011C0.275,0.011 0.256,0.004 0.241,-0.01C0.226,-0.024 0.219,-0.043 0.219,-0.066Z" style="fill-rule:nonzero;"/>
                </g>
                <g transform="matrix(36,0,0,36,4613.19,2231.87)">
                    <path d="M0.218,-0.064C0.218,-0.087 0.226,-0.105 0.241,-0.118C0.256,-0.131 0.274,-0.138 0.297,-0.138C0.334,-0.138 0.361,-0.126 0.38,-0.102C0.399,-0.078 0.408,-0.048 0.408,-0.013C0.408,0.017 0.402,0.044 0.391,0.069C0.379,0.094 0.364,0.115 0.345,0.133C0.326,0.151 0.306,0.166 0.283,0.177C0.26,0.188 0.237,0.196 0.214,0.2L0.187,0.145C0.203,0.141 0.219,0.135 0.236,0.128C0.252,0.121 0.267,0.112 0.28,0.101C0.293,0.09 0.305,0.077 0.314,0.062C0.323,0.047 0.328,0.031 0.329,0.014C0.309,0.018 0.292,0.019 0.278,0.016C0.264,0.012 0.253,0.007 0.244,-0.001C0.235,-0.008 0.228,-0.018 0.224,-0.029C0.22,-0.04 0.218,-0.051 0.218,-0.064Z" style="fill-rule:nonzero;"/>
                </g>
                <g transform="matrix(36,0,0,36,4656.39,2231.87)">
                    <path d="M0.313,-0.151L0.32,-0.151L0.432,-0.5L0.572,-0.5L0.381,-0L0.242,-0L0.027,-0.5L0.178,-0.5L0.313,-0.151Z" style="fill-rule:nonzero;"/>
                </g>
                <g transform="matrix(20.988,0,0,20.988,4677.99,2243.86)">
                    <path d="M0.012,-0.5L0.187,-0.5L0.202,-0.434L0.206,-0.434C0.221,-0.455 0.243,-0.474 0.272,-0.49C0.301,-0.506 0.335,-0.514 0.375,-0.514C0.4,-0.514 0.423,-0.511 0.445,-0.504C0.466,-0.497 0.485,-0.486 0.5,-0.471C0.515,-0.456 0.528,-0.435 0.537,-0.409C0.546,-0.382 0.55,-0.35 0.55,-0.311L0.55,-0L0.42,-0L0.42,-0.284C0.42,-0.325 0.411,-0.354 0.393,-0.372C0.374,-0.39 0.351,-0.399 0.323,-0.399C0.298,-0.399 0.276,-0.392 0.256,-0.378C0.235,-0.363 0.221,-0.345 0.214,-0.324L0.214,-0L0.084,-0L0.084,-0.39L0.012,-0.39L0.012,-0.5Z" style="fill-rule:nonzero;"/>
                </g>
                <g transform="matrix(36,0,0,36,4690.58,2231.87)">
                    <path d="M0.093,-0.02L0.036,-0.11L0.4,-0.325L0.036,-0.545L0.093,-0.635L0.56,-0.345L0.56,-0.295L0.093,-0.02Z" style="fill-rule:nonzero;"/>
                </g>
                <g transform="matrix(20.988,0,0,20.988,4712.18,2243.86)">
                    <path d="M0.523,-0L0.077,-0L0.077,-0.097C0.085,-0.104 0.095,-0.113 0.107,-0.124C0.119,-0.135 0.132,-0.147 0.148,-0.161C0.163,-0.175 0.178,-0.19 0.195,-0.207C0.212,-0.224 0.228,-0.241 0.244,-0.259C0.267,-0.284 0.287,-0.307 0.304,-0.328C0.321,-0.349 0.335,-0.368 0.346,-0.387C0.357,-0.405 0.365,-0.423 0.37,-0.441C0.375,-0.458 0.378,-0.476 0.378,-0.495C0.378,-0.508 0.375,-0.521 0.369,-0.534C0.363,-0.547 0.355,-0.558 0.344,-0.568C0.333,-0.577 0.321,-0.585 0.306,-0.591C0.291,-0.596 0.274,-0.599 0.256,-0.599C0.232,-0.599 0.21,-0.595 0.191,-0.588C0.171,-0.581 0.15,-0.568 0.129,-0.551L0.077,-0.643C0.105,-0.663 0.136,-0.68 0.171,-0.694C0.205,-0.707 0.244,-0.714 0.289,-0.714C0.318,-0.714 0.345,-0.71 0.372,-0.702C0.398,-0.694 0.421,-0.682 0.442,-0.667C0.462,-0.651 0.478,-0.631 0.49,-0.608C0.502,-0.585 0.508,-0.558 0.508,-0.527C0.508,-0.506 0.506,-0.486 0.503,-0.468C0.499,-0.449 0.493,-0.431 0.486,-0.413C0.478,-0.394 0.468,-0.375 0.456,-0.356C0.443,-0.337 0.428,-0.316 0.411,-0.293C0.398,-0.276 0.383,-0.258 0.368,-0.241C0.352,-0.223 0.336,-0.206 0.321,-0.19C0.306,-0.174 0.291,-0.159 0.276,-0.145C0.261,-0.131 0.247,-0.119 0.235,-0.11L0.523,-0.11L0.523,-0Z" style="fill-rule:nonzero;"/>
                </g>
            </g>
            <g transform="matrix(0.788744,0,0,0.682148,1603.25,-1346.45)">
                <circle cx="4382.6" cy="2408.5" r="7.5" style="fill:none;stroke:black;stroke-width:3px;stroke-linecap:round;stroke-linejoin:round;stroke-miterlimit:10;"/>
            </g>
            <g transform="matrix(0.788744,0,0,0.682148,1586.13,-1306.44)">
                <circle cx="4382.6" cy="2408.5" r="7.5" style="fill:none;stroke:black;stroke-width:3px;stroke-linecap:round;stroke-linejoin:round;stroke-miterlimit:10;"/>
            </g>
        </g>
    </g>
    <defs>
        <linearGradient id="_Linear1" x1="0" y1="0" x2="1" y2="0" gradientUnits="userSpaceOnUse" gradientTransform="matrix(-132.5,103,-103,-132.5,2345.5,1512)"><stop offset="0" style="stop-color:rgb(218,218,218);stop-opacity:1"/><stop offset="0.42" style="stop-color:rgb(166,166,166);stop-opacity:1"/><stop offset="1" style="stop-color:rgb(55,55,55);stop-opacity:1"/></linearGradient>
    </defs>
</svg>
