<?xml version="1.0" encoding="UTF-8" standalone="no"?>
<!DOCTYPE svg PUBLIC "-//W3C//DTD SVG 1.1//EN" "http://www.w3.org/Graphics/SVG/1.1/DTD/svg11.dtd">
<svg width="100%" height="100%" viewBox="0 0 978 956" version="1.1" xmlns="http://www.w3.org/2000/svg" xmlns:xlink="http://www.w3.org/1999/xlink" xml:space="preserve" xmlns:serif="http://www.serif.com/" style="fill-rule:evenodd;clip-rule:evenodd;stroke-linejoin:round;stroke-miterlimit:10;">
    <rect id="Spatial-Databases-2" serif:id="Spatial Databases 2" x="-968.911" y="-1801" width="3858" height="5937" style="fill:none;"/>
    <path d="M223.272,871.148L273.192,871.148L273.192,888.716L266.088,888.716L266.088,878.252L252.168,878.252L252.168,931.244L262.728,931.244L262.728,938.348L233.64,938.348L233.64,931.244L244.2,931.244L244.2,878.252L230.376,878.252L230.376,888.716L223.272,888.716L223.272,871.148Z" style="fill:rgb(91,160,0);fill-rule:nonzero;"/>
    <path d="M286.632,871.82C289.064,871.372 291.864,871.02 295.032,870.764C298.2,870.508 301.096,870.38 303.72,870.38C306.664,870.38 309.464,870.7 312.12,871.34C314.776,871.98 317.112,873.036 319.128,874.508C321.144,875.98 322.76,877.9 323.976,880.268C325.192,882.636 325.8,885.516 325.8,888.908C325.8,891.532 325.368,893.852 324.504,895.868C323.64,897.884 322.584,899.612 321.336,901.052C320.088,902.492 318.792,903.66 317.448,904.556C316.104,905.452 314.952,906.092 313.992,906.476L331.752,938.348L322.44,938.348L306.6,908.78L294.6,908.78L294.6,938.348L286.632,938.348L286.632,871.82ZM303.912,877.292L301.32,877.292C300.424,877.292 299.56,877.324 298.728,877.388C297.896,877.452 297.112,877.516 296.376,877.58C295.64,877.644 295.048,877.74 294.6,877.868L294.6,902.636L302.088,902.636C306.504,902.636 310.152,901.548 313.032,899.372C315.912,897.196 317.352,893.804 317.352,889.196C317.352,885.74 316.168,882.892 313.8,880.652C311.432,878.412 308.136,877.292 303.912,877.292Z" style="fill:rgb(91,160,0);fill-rule:nonzero;"/>
    <path d="M340.392,871.148L386.472,871.148L386.472,878.252L367.368,878.252L367.368,931.244L386.472,931.244L386.472,938.348L340.392,938.348L340.392,931.244L359.4,931.244L359.4,878.252L340.392,878.252L340.392,871.148Z" style="fill:rgb(91,160,0);fill-rule:nonzero;"/>
    <path d="M433.608,919.724L407.784,919.724L401.64,938.348L393.768,938.348L416.232,871.148L425.64,871.148L448.296,938.348L439.944,938.348L433.608,919.724ZM410.28,912.812L431.4,912.812L421.512,881.228L420.36,881.228L410.28,912.812Z" style="fill:rgb(91,160,0);fill-rule:nonzero;"/>
    <path d="M468.648,896.3L463.464,886.604L463.08,886.604L464.04,896.3L464.04,938.348L456.552,938.348L456.552,871.148L461.736,871.148L488.808,913.004L493.8,922.22L494.28,922.22L493.224,913.004L493.224,871.148L500.712,871.148L500.712,938.348L495.528,938.348L468.648,896.3Z" style="fill:rgb(91,160,0);fill-rule:nonzero;"/>
    <path d="M549.384,877.772C547.208,877.324 544.552,877.1 541.416,877.1C538.728,877.1 536.152,877.564 533.688,878.492C531.224,879.42 529.048,880.972 527.16,883.148C525.272,885.324 523.768,888.172 522.648,891.692C521.528,895.212 520.968,899.564 520.968,904.748C520.968,914.22 522.712,921.196 526.2,925.676C529.688,930.156 534.728,932.396 541.32,932.396C545.416,932.396 548.904,931.596 551.784,929.996L551.784,911.276L537.96,911.276L537.96,904.844L558.6,904.844L558.6,934.412C557.576,935.18 556.344,935.884 554.904,936.524C553.464,937.164 551.928,937.708 550.296,938.156C548.664,938.604 546.968,938.94 545.208,939.164C543.448,939.388 541.736,939.5 540.072,939.5C535.784,939.5 531.944,938.812 528.552,937.436C525.16,936.06 522.28,933.948 519.912,931.1C517.544,928.252 515.72,924.636 514.44,920.252C513.16,915.868 512.52,910.7 512.52,904.748C512.52,898.54 513.32,893.228 514.92,888.812C516.52,884.396 518.632,880.796 521.256,878.012C523.88,875.228 526.888,873.196 530.28,871.916C533.672,870.636 537.16,869.996 540.744,869.996C544.584,869.996 547.752,870.204 550.248,870.62C552.744,871.036 554.856,871.596 556.584,872.3L556.488,872.684L556.488,888.716L549.384,888.716L549.384,877.772Z" style="fill:rgb(91,160,0);fill-rule:nonzero;"/>
    <path d="M573.672,871.148L581.64,871.148L581.64,931.244L608.808,931.244L608.808,914.54L615.912,914.54L615.912,938.348L573.672,938.348L573.672,871.148Z" style="fill:rgb(91,160,0);fill-rule:nonzero;"/>
    <path d="M632.904,871.148L672.36,871.148L672.36,878.252L640.872,878.252L640.872,900.236L669.96,900.236L669.96,907.34L640.872,907.34L640.872,931.244L672.84,931.244L672.84,938.348L632.904,938.348L632.904,871.148Z" style="fill:rgb(91,160,0);fill-rule:nonzero;"/>
    <path d="M86,176.923L254,23L580,176.923L960.089,236L887,564L692,682L443,518L352,374L223,341L59,409L13,240L86,176.923ZM555,392L564,282L747,275L831,373L781,549L652,551L555,392ZM167,218.926L283,112.192L466,215L364,302L167,218.926Z" style="fill:rgb(172,172,172);"/>
    <path d="M86,176.923L254,23L580,176.923L960.089,236L887,564L692,682L443,518L352,374L223,341L59,409L13,240L86,176.923Z" style="fill:none;stroke:rgb(255,235,51);stroke-width:20px;"/>
    <path d="M167,218.926L283,112.192L466,215L364,302L167,218.926Z" style="fill:none;stroke:rgb(251,133,255);stroke-width:14px;"/>
    <path d="M555,392L564,282L747,275L831,373L781,549L652,551L555,392Z" style="fill:none;stroke:rgb(45,231,231);stroke-width:14px;"/>
    <path d="M242,311.387L215.26,281.304L255.37,277.961L242,311.387Z"/>
    <path d="M455,275L372,344L242,292" style="fill:none;stroke:black;stroke-width:8px;"/>
    <path d="M871.215,455.428L844.946,485.923L836.312,446.61L871.215,455.428Z"/>
    <path d="M797,265.5L876,363L852,458" style="fill:none;stroke:black;stroke-width:8px;"/>
    <path d="M473.465,56.133L433.219,56.585L457.728,88.511L473.465,56.133Z"/>
    <path d="M459.121,69.175L600.383,137.836L750.879,161.794" style="fill:none;stroke:black;stroke-width:8px;"/>
    <path d="M212.815,797.125L245.93,820.003L207.758,832.768L212.815,797.125Z"/>
    <path d="M144.415,621.958L13,786.958L217.415,815.958" style="fill:none;stroke:black;stroke-width:8px;"/>
    <path d="M99,755L285,522L734,835L99,755Z" style="fill:rgb(172,172,172);stroke:rgb(150,255,21);stroke-width:20px;"/>
</svg>
