<?xml version="1.0" encoding="UTF-8" standalone="no"?>
<!DOCTYPE svg PUBLIC "-//W3C//DTD SVG 1.1//EN" "http://www.w3.org/Graphics/SVG/1.1/DTD/svg11.dtd">
<svg width="100%" height="100%" viewBox="0 0 719 771" version="1.1" xmlns="http://www.w3.org/2000/svg" xmlns:xlink="http://www.w3.org/1999/xlink" xml:space="preserve" xmlns:serif="http://www.serif.com/" style="fill-rule:evenodd;clip-rule:evenodd;stroke-linecap:square;stroke-linejoin:round;stroke-miterlimit:10;">
    <rect id="Geometric-Operations" serif:id="Geometric Operations" x="-5926" y="-2034" width="6739" height="2861" style="fill:none;"/>
    <g id="Geometric-Operations1" serif:id="Geometric Operations">
        <path d="M102.656,470.748L155.913,275.709L308.147,149.426L557.757,115.335L618.013,373.229L429.45,651.627L102.656,470.748Z" style="fill:rgb(45,231,231);fill-opacity:0.3;"/>
        <path d="M102.656,470.748L155.913,275.709" style="fill:none;stroke:rgb(21,183,183);stroke-width:5px;"/>
        <path d="M155.913,275.709L308.147,149.426" style="fill:none;stroke:rgb(21,183,183);stroke-width:5px;"/>
        <path d="M308.147,149.426L557.757,115.335" style="fill:none;stroke:rgb(21,183,183);stroke-width:5px;"/>
        <path d="M557.757,115.335L618.013,371.317" style="fill:none;stroke:rgb(21,183,183);stroke-width:5px;"/>
        <path d="M618.013,373.229L429.45,651.627" style="fill:none;stroke:rgb(21,183,183);stroke-width:5px;"/>
        <path d="M429.45,651.627L102.656,470.748" style="fill:none;stroke:rgb(21,183,183);stroke-width:5px;"/>
        <circle cx="308.147" cy="149.426" r="15" style="fill:rgb(21,183,183);"/>
        <circle cx="429.45" cy="651.627" r="15" style="fill:rgb(21,183,183);"/>
        <circle cx="155.913" cy="275.709" r="15" style="fill:rgb(21,183,183);"/>
        <circle cx="476.064" cy="344.509" r="9.784"/>
        <circle cx="299.422" cy="510.023" r="9.784"/>
        <circle cx="102.656" cy="470.748" r="15" style="fill:rgb(21,183,183);"/>
        <circle cx="233.095" cy="385.147" r="9.784"/>
        <circle cx="557.757" cy="115.335" r="15" style="fill:rgb(21,183,183);"/>
        <circle cx="618.013" cy="371.317" r="15" style="fill:rgb(21,183,183);"/>
        <g transform="matrix(1,0,0,1,-339.258,-1518.46)">
            <g transform="matrix(60,0,0,60,368.503,1953.88)">
                <path d="M0.057,-0.5L0.152,-0.5L0.167,-0.44L0.171,-0.44C0.188,-0.465 0.209,-0.484 0.233,-0.496C0.256,-0.508 0.285,-0.514 0.319,-0.514C0.382,-0.514 0.429,-0.494 0.46,-0.455C0.491,-0.415 0.507,-0.351 0.507,-0.263C0.507,-0.22 0.502,-0.182 0.492,-0.148C0.482,-0.113 0.467,-0.084 0.448,-0.06C0.428,-0.036 0.404,-0.018 0.376,-0.005C0.347,0.008 0.315,0.014 0.278,0.014C0.257,0.014 0.24,0.012 0.227,0.01C0.214,0.007 0.2,0.002 0.187,-0.005L0.187,0.2L0.057,0.2L0.057,-0.5ZM0.28,-0.404C0.255,-0.404 0.235,-0.398 0.221,-0.385C0.206,-0.372 0.195,-0.353 0.187,-0.328L0.187,-0.12C0.196,-0.113 0.207,-0.107 0.218,-0.103C0.229,-0.098 0.243,-0.096 0.261,-0.096C0.298,-0.096 0.326,-0.109 0.345,-0.136C0.364,-0.162 0.373,-0.205 0.373,-0.266C0.373,-0.31 0.366,-0.344 0.351,-0.368C0.336,-0.392 0.313,-0.404 0.28,-0.404Z" style="fill:rgb(21,183,183);fill-rule:nonzero;"/>
            </g>
            <g transform="matrix(34.98,0,0,34.98,400.903,1973.86)">
                <path d="M0.04,-0.351C0.04,-0.474 0.061,-0.565 0.103,-0.625C0.145,-0.684 0.205,-0.714 0.284,-0.714C0.368,-0.714 0.43,-0.685 0.469,-0.626C0.508,-0.567 0.528,-0.475 0.528,-0.351C0.528,-0.228 0.507,-0.136 0.465,-0.076C0.422,-0.016 0.362,0.014 0.283,0.014C0.2,0.014 0.138,-0.018 0.099,-0.081C0.06,-0.144 0.04,-0.234 0.04,-0.351ZM0.17,-0.351C0.17,-0.27 0.179,-0.207 0.197,-0.163C0.214,-0.118 0.243,-0.096 0.284,-0.096C0.323,-0.096 0.352,-0.116 0.371,-0.157C0.389,-0.198 0.398,-0.262 0.398,-0.351C0.398,-0.432 0.389,-0.494 0.372,-0.538C0.355,-0.582 0.325,-0.604 0.283,-0.604C0.243,-0.604 0.214,-0.583 0.197,-0.542C0.179,-0.501 0.17,-0.437 0.17,-0.351Z" style="fill:rgb(21,183,183);fill-rule:nonzero;"/>
            </g>
        </g>
        <g transform="matrix(1,0,0,1,-339.258,-1440.46)">
            <g transform="matrix(60,0,0,60,368.503,1953.88)">
                <path d="M0.057,-0.5L0.152,-0.5L0.167,-0.44L0.171,-0.44C0.188,-0.465 0.209,-0.484 0.233,-0.496C0.256,-0.508 0.285,-0.514 0.319,-0.514C0.382,-0.514 0.429,-0.494 0.46,-0.455C0.491,-0.415 0.507,-0.351 0.507,-0.263C0.507,-0.22 0.502,-0.182 0.492,-0.148C0.482,-0.113 0.467,-0.084 0.448,-0.06C0.428,-0.036 0.404,-0.018 0.376,-0.005C0.347,0.008 0.315,0.014 0.278,0.014C0.257,0.014 0.24,0.012 0.227,0.01C0.214,0.007 0.2,0.002 0.187,-0.005L0.187,0.2L0.057,0.2L0.057,-0.5ZM0.28,-0.404C0.255,-0.404 0.235,-0.398 0.221,-0.385C0.206,-0.372 0.195,-0.353 0.187,-0.328L0.187,-0.12C0.196,-0.113 0.207,-0.107 0.218,-0.103C0.229,-0.098 0.243,-0.096 0.261,-0.096C0.298,-0.096 0.326,-0.109 0.345,-0.136C0.364,-0.162 0.373,-0.205 0.373,-0.266C0.373,-0.31 0.366,-0.344 0.351,-0.368C0.336,-0.392 0.313,-0.404 0.28,-0.404Z" style="fill:rgb(21,183,183);fill-rule:nonzero;"/>
            </g>
            <g transform="matrix(34.98,0,0,34.98,400.903,1973.86)">
                <path d="M0.52,-0.217C0.52,-0.184 0.515,-0.154 0.504,-0.126C0.493,-0.098 0.477,-0.074 0.457,-0.053C0.437,-0.032 0.413,-0.016 0.385,-0.004C0.356,0.008 0.325,0.014 0.291,0.014C0.256,0.014 0.225,0.009 0.196,-0.003C0.167,-0.014 0.141,-0.03 0.12,-0.052C0.099,-0.074 0.082,-0.102 0.07,-0.135C0.058,-0.168 0.052,-0.207 0.052,-0.251C0.052,-0.317 0.062,-0.377 0.081,-0.43C0.099,-0.483 0.125,-0.53 0.158,-0.57C0.19,-0.609 0.228,-0.641 0.271,-0.666C0.314,-0.69 0.359,-0.706 0.407,-0.714L0.436,-0.611C0.403,-0.606 0.372,-0.595 0.344,-0.58C0.316,-0.565 0.291,-0.546 0.27,-0.525C0.248,-0.504 0.23,-0.48 0.215,-0.454C0.2,-0.427 0.189,-0.4 0.183,-0.372C0.196,-0.389 0.214,-0.403 0.235,-0.415C0.256,-0.426 0.283,-0.432 0.315,-0.432C0.345,-0.432 0.373,-0.427 0.398,-0.418C0.423,-0.409 0.445,-0.395 0.463,-0.377C0.481,-0.358 0.495,-0.336 0.505,-0.309C0.515,-0.282 0.52,-0.252 0.52,-0.217ZM0.394,-0.21C0.394,-0.285 0.357,-0.322 0.284,-0.322C0.257,-0.322 0.235,-0.316 0.217,-0.304C0.198,-0.292 0.185,-0.278 0.178,-0.262C0.177,-0.255 0.176,-0.248 0.176,-0.243L0.176,-0.227C0.176,-0.211 0.178,-0.195 0.183,-0.18C0.188,-0.164 0.195,-0.15 0.204,-0.138C0.213,-0.125 0.224,-0.115 0.238,-0.108C0.252,-0.1 0.269,-0.096 0.288,-0.096C0.319,-0.096 0.345,-0.107 0.365,-0.128C0.384,-0.149 0.394,-0.177 0.394,-0.21Z" style="fill:rgb(21,183,183);fill-rule:nonzero;"/>
            </g>
        </g>
        <g transform="matrix(1,0,0,1,-260.852,-1734.27)">
            <g transform="matrix(60,0,0,60,368.503,1953.88)">
                <path d="M0.057,-0.5L0.152,-0.5L0.167,-0.44L0.171,-0.44C0.188,-0.465 0.209,-0.484 0.233,-0.496C0.256,-0.508 0.285,-0.514 0.319,-0.514C0.382,-0.514 0.429,-0.494 0.46,-0.455C0.491,-0.415 0.507,-0.351 0.507,-0.263C0.507,-0.22 0.502,-0.182 0.492,-0.148C0.482,-0.113 0.467,-0.084 0.448,-0.06C0.428,-0.036 0.404,-0.018 0.376,-0.005C0.347,0.008 0.315,0.014 0.278,0.014C0.257,0.014 0.24,0.012 0.227,0.01C0.214,0.007 0.2,0.002 0.187,-0.005L0.187,0.2L0.057,0.2L0.057,-0.5ZM0.28,-0.404C0.255,-0.404 0.235,-0.398 0.221,-0.385C0.206,-0.372 0.195,-0.353 0.187,-0.328L0.187,-0.12C0.196,-0.113 0.207,-0.107 0.218,-0.103C0.229,-0.098 0.243,-0.096 0.261,-0.096C0.298,-0.096 0.326,-0.109 0.345,-0.136C0.364,-0.162 0.373,-0.205 0.373,-0.266C0.373,-0.31 0.366,-0.344 0.351,-0.368C0.336,-0.392 0.313,-0.404 0.28,-0.404Z" style="fill:rgb(21,183,183);fill-rule:nonzero;"/>
            </g>
            <g transform="matrix(34.98,0,0,34.98,400.903,1973.86)">
                <path d="M0.101,-0.11L0.24,-0.11L0.24,-0.505L0.255,-0.573L0.207,-0.514L0.118,-0.453L0.063,-0.528L0.291,-0.712L0.364,-0.712L0.364,-0.11L0.5,-0.11L0.5,-0L0.101,-0L0.101,-0.11Z" style="fill:rgb(21,183,183);fill-rule:nonzero;"/>
            </g>
        </g>
        <g transform="matrix(1,0,0,1,-108.462,-1849.85)">
            <g transform="matrix(60,0,0,60,368.503,1953.88)">
                <path d="M0.057,-0.5L0.152,-0.5L0.167,-0.44L0.171,-0.44C0.188,-0.465 0.209,-0.484 0.233,-0.496C0.256,-0.508 0.285,-0.514 0.319,-0.514C0.382,-0.514 0.429,-0.494 0.46,-0.455C0.491,-0.415 0.507,-0.351 0.507,-0.263C0.507,-0.22 0.502,-0.182 0.492,-0.148C0.482,-0.113 0.467,-0.084 0.448,-0.06C0.428,-0.036 0.404,-0.018 0.376,-0.005C0.347,0.008 0.315,0.014 0.278,0.014C0.257,0.014 0.24,0.012 0.227,0.01C0.214,0.007 0.2,0.002 0.187,-0.005L0.187,0.2L0.057,0.2L0.057,-0.5ZM0.28,-0.404C0.255,-0.404 0.235,-0.398 0.221,-0.385C0.206,-0.372 0.195,-0.353 0.187,-0.328L0.187,-0.12C0.196,-0.113 0.207,-0.107 0.218,-0.103C0.229,-0.098 0.243,-0.096 0.261,-0.096C0.298,-0.096 0.326,-0.109 0.345,-0.136C0.364,-0.162 0.373,-0.205 0.373,-0.266C0.373,-0.31 0.366,-0.344 0.351,-0.368C0.336,-0.392 0.313,-0.404 0.28,-0.404Z" style="fill:rgb(21,183,183);fill-rule:nonzero;"/>
            </g>
            <g transform="matrix(34.98,0,0,34.98,400.903,1973.86)">
                <path d="M0.475,-0.529C0.475,-0.495 0.469,-0.461 0.457,-0.426C0.444,-0.391 0.429,-0.357 0.41,-0.324C0.391,-0.291 0.37,-0.259 0.347,-0.228C0.324,-0.197 0.301,-0.168 0.279,-0.142L0.226,-0.101L0.226,-0.096L0.298,-0.11L0.49,-0.11L0.49,-0L0.069,-0L0.069,-0.067C0.085,-0.084 0.103,-0.103 0.123,-0.126C0.143,-0.148 0.163,-0.171 0.184,-0.197C0.204,-0.222 0.224,-0.247 0.243,-0.274C0.262,-0.301 0.28,-0.327 0.295,-0.355C0.31,-0.382 0.323,-0.408 0.332,-0.433C0.341,-0.458 0.345,-0.482 0.345,-0.505C0.345,-0.532 0.337,-0.555 0.322,-0.573C0.306,-0.59 0.281,-0.599 0.247,-0.599C0.226,-0.599 0.204,-0.595 0.182,-0.586C0.159,-0.577 0.14,-0.565 0.125,-0.551L0.073,-0.643C0.099,-0.664 0.129,-0.682 0.162,-0.695C0.195,-0.708 0.233,-0.714 0.278,-0.714C0.307,-0.714 0.333,-0.71 0.357,-0.702C0.381,-0.694 0.402,-0.682 0.419,-0.667C0.436,-0.652 0.45,-0.632 0.46,-0.61C0.47,-0.587 0.475,-0.56 0.475,-0.529Z" style="fill:rgb(21,183,183);fill-rule:nonzero;"/>
            </g>
        </g>
        <g transform="matrix(1,0,0,1,176.538,-1883.07)">
            <g transform="matrix(60,0,0,60,368.503,1953.88)">
                <path d="M0.057,-0.5L0.152,-0.5L0.167,-0.44L0.171,-0.44C0.188,-0.465 0.209,-0.484 0.233,-0.496C0.256,-0.508 0.285,-0.514 0.319,-0.514C0.382,-0.514 0.429,-0.494 0.46,-0.455C0.491,-0.415 0.507,-0.351 0.507,-0.263C0.507,-0.22 0.502,-0.182 0.492,-0.148C0.482,-0.113 0.467,-0.084 0.448,-0.06C0.428,-0.036 0.404,-0.018 0.376,-0.005C0.347,0.008 0.315,0.014 0.278,0.014C0.257,0.014 0.24,0.012 0.227,0.01C0.214,0.007 0.2,0.002 0.187,-0.005L0.187,0.2L0.057,0.2L0.057,-0.5ZM0.28,-0.404C0.255,-0.404 0.235,-0.398 0.221,-0.385C0.206,-0.372 0.195,-0.353 0.187,-0.328L0.187,-0.12C0.196,-0.113 0.207,-0.107 0.218,-0.103C0.229,-0.098 0.243,-0.096 0.261,-0.096C0.298,-0.096 0.326,-0.109 0.345,-0.136C0.364,-0.162 0.373,-0.205 0.373,-0.266C0.373,-0.31 0.366,-0.344 0.351,-0.368C0.336,-0.392 0.313,-0.404 0.28,-0.404Z" style="fill:rgb(21,183,183);fill-rule:nonzero;"/>
            </g>
            <g transform="matrix(34.98,0,0,34.98,400.903,1973.86)">
                <path d="M0.241,-0.096C0.282,-0.096 0.314,-0.107 0.336,-0.129C0.357,-0.151 0.368,-0.178 0.368,-0.209C0.368,-0.247 0.357,-0.275 0.334,-0.293C0.311,-0.311 0.276,-0.32 0.227,-0.32L0.155,-0.32L0.155,-0.389L0.276,-0.554L0.333,-0.599L0.254,-0.59L0.086,-0.59L0.086,-0.7L0.468,-0.7L0.468,-0.629L0.327,-0.44L0.283,-0.413L0.283,-0.408L0.325,-0.414C0.348,-0.412 0.371,-0.407 0.392,-0.398C0.413,-0.389 0.431,-0.377 0.447,-0.361C0.462,-0.344 0.475,-0.324 0.484,-0.3C0.493,-0.276 0.498,-0.248 0.498,-0.217C0.498,-0.178 0.492,-0.144 0.479,-0.115C0.466,-0.086 0.448,-0.062 0.425,-0.043C0.401,-0.024 0.375,-0.009 0.344,-0C0.313,0.009 0.28,0.014 0.245,0.014C0.216,0.014 0.185,0.011 0.154,0.006C0.123,0.001 0.097,-0.007 0.078,-0.017L0.113,-0.125C0.13,-0.116 0.15,-0.109 0.171,-0.104C0.192,-0.099 0.215,-0.096 0.241,-0.096Z" style="fill:rgb(21,183,183);fill-rule:nonzero;"/>
            </g>
        </g>
        <g transform="matrix(1,0,0,1,279.191,-1565.38)">
            <g transform="matrix(60,0,0,60,368.503,1953.88)">
                <path d="M0.057,-0.5L0.152,-0.5L0.167,-0.44L0.171,-0.44C0.188,-0.465 0.209,-0.484 0.233,-0.496C0.256,-0.508 0.285,-0.514 0.319,-0.514C0.382,-0.514 0.429,-0.494 0.46,-0.455C0.491,-0.415 0.507,-0.351 0.507,-0.263C0.507,-0.22 0.502,-0.182 0.492,-0.148C0.482,-0.113 0.467,-0.084 0.448,-0.06C0.428,-0.036 0.404,-0.018 0.376,-0.005C0.347,0.008 0.315,0.014 0.278,0.014C0.257,0.014 0.24,0.012 0.227,0.01C0.214,0.007 0.2,0.002 0.187,-0.005L0.187,0.2L0.057,0.2L0.057,-0.5ZM0.28,-0.404C0.255,-0.404 0.235,-0.398 0.221,-0.385C0.206,-0.372 0.195,-0.353 0.187,-0.328L0.187,-0.12C0.196,-0.113 0.207,-0.107 0.218,-0.103C0.229,-0.098 0.243,-0.096 0.261,-0.096C0.298,-0.096 0.326,-0.109 0.345,-0.136C0.364,-0.162 0.373,-0.205 0.373,-0.266C0.373,-0.31 0.366,-0.344 0.351,-0.368C0.336,-0.392 0.313,-0.404 0.28,-0.404Z" style="fill:rgb(21,183,183);fill-rule:nonzero;"/>
            </g>
            <g transform="matrix(34.98,0,0,34.98,400.903,1973.86)">
                <path d="M0.553,-0.195L0.443,-0.195L0.443,-0L0.322,-0L0.322,-0.195L0.019,-0.195L0.019,-0.269L0.336,-0.705L0.443,-0.705L0.443,-0.299L0.553,-0.299L0.553,-0.195ZM0.322,-0.452L0.331,-0.536L0.327,-0.536L0.293,-0.464L0.189,-0.329L0.139,-0.291L0.203,-0.299L0.322,-0.299L0.322,-0.452Z" style="fill:rgb(21,183,183);fill-rule:nonzero;"/>
            </g>
        </g>
        <g transform="matrix(1,0,0,1,59.8135,-1241.54)">
            <g transform="matrix(60,0,0,60,368.503,1953.88)">
                <path d="M0.057,-0.5L0.152,-0.5L0.167,-0.44L0.171,-0.44C0.188,-0.465 0.209,-0.484 0.233,-0.496C0.256,-0.508 0.285,-0.514 0.319,-0.514C0.382,-0.514 0.429,-0.494 0.46,-0.455C0.491,-0.415 0.507,-0.351 0.507,-0.263C0.507,-0.22 0.502,-0.182 0.492,-0.148C0.482,-0.113 0.467,-0.084 0.448,-0.06C0.428,-0.036 0.404,-0.018 0.376,-0.005C0.347,0.008 0.315,0.014 0.278,0.014C0.257,0.014 0.24,0.012 0.227,0.01C0.214,0.007 0.2,0.002 0.187,-0.005L0.187,0.2L0.057,0.2L0.057,-0.5ZM0.28,-0.404C0.255,-0.404 0.235,-0.398 0.221,-0.385C0.206,-0.372 0.195,-0.353 0.187,-0.328L0.187,-0.12C0.196,-0.113 0.207,-0.107 0.218,-0.103C0.229,-0.098 0.243,-0.096 0.261,-0.096C0.298,-0.096 0.326,-0.109 0.345,-0.136C0.364,-0.162 0.373,-0.205 0.373,-0.266C0.373,-0.31 0.366,-0.344 0.351,-0.368C0.336,-0.392 0.313,-0.404 0.28,-0.404Z" style="fill:rgb(21,183,183);fill-rule:nonzero;"/>
            </g>
            <g transform="matrix(34.98,0,0,34.98,400.903,1973.86)">
                <path d="M0.22,-0.101C0.264,-0.101 0.298,-0.112 0.321,-0.133C0.344,-0.154 0.356,-0.184 0.356,-0.221C0.356,-0.261 0.342,-0.29 0.315,-0.309C0.288,-0.328 0.249,-0.337 0.198,-0.337L0.119,-0.334L0.119,-0.7L0.463,-0.7L0.463,-0.578L0.231,-0.578L0.231,-0.443L0.272,-0.447C0.305,-0.446 0.334,-0.44 0.361,-0.429C0.387,-0.418 0.409,-0.404 0.428,-0.385C0.447,-0.366 0.461,-0.342 0.471,-0.316C0.481,-0.289 0.486,-0.258 0.486,-0.225C0.486,-0.186 0.479,-0.151 0.466,-0.121C0.453,-0.091 0.434,-0.066 0.411,-0.046C0.387,-0.026 0.359,-0.011 0.327,-0.001C0.295,0.009 0.26,0.014 0.222,0.014C0.192,0.014 0.164,0.012 0.137,0.007C0.11,0.002 0.087,-0.005 0.068,-0.014L0.103,-0.122C0.118,-0.115 0.135,-0.11 0.154,-0.107C0.172,-0.103 0.194,-0.101 0.22,-0.101Z" style="fill:rgb(21,183,183);fill-rule:nonzero;"/>
            </g>
        </g>
    </g>
</svg>
