<?xml version="1.0" encoding="UTF-8" standalone="no"?>
<!DOCTYPE svg PUBLIC "-//W3C//DTD SVG 1.1//EN" "http://www.w3.org/Graphics/SVG/1.1/DTD/svg11.dtd">
<svg width="100%" height="100%" viewBox="0 0 683 700" version="1.1" xmlns="http://www.w3.org/2000/svg" xmlns:xlink="http://www.w3.org/1999/xlink" xml:space="preserve" xmlns:serif="http://www.serif.com/" style="fill-rule:evenodd;clip-rule:evenodd;stroke-linecap:round;stroke-linejoin:round;stroke-miterlimit:1.5;">
    <rect id="Resampling" x="-2199" y="-141" width="2985" height="2039" style="fill:none;"/>
    <g>
        <g>
            <rect x="279.623" y="297.939" width="97.927" height="97.927" style="fill:rgb(45,231,231);stroke:black;stroke-width:1px;"/>
            <rect x="279.623" y="394.567" width="97.927" height="97.927" style="fill:rgb(45,231,231);stroke:black;stroke-width:1px;"/>
            <rect x="279.623" y="200.439" width="97.927" height="97.927" style="fill:rgb(235,235,235);stroke:black;stroke-width:1px;"/>
            <rect x="377.55" y="297.939" width="97.927" height="97.927" style="fill:rgb(45,231,231);stroke:black;stroke-width:1px;"/>
            <rect x="377.55" y="394.567" width="97.927" height="97.927" style="fill:rgb(45,231,231);stroke:black;stroke-width:1px;"/>
            <rect x="377.55" y="200.439" width="97.927" height="97.927" style="fill:rgb(235,235,235);stroke:black;stroke-width:1px;"/>
            <rect x="182.629" y="297.939" width="97.927" height="97.927" style="fill:rgb(45,231,231);stroke:black;stroke-width:1px;"/>
            <rect x="182.629" y="394.567" width="97.927" height="97.927" style="fill:rgb(45,231,231);stroke:black;stroke-width:1px;"/>
            <rect x="182.629" y="200.439" width="97.927" height="97.927" style="fill:rgb(235,235,235);stroke:black;stroke-width:1px;"/>
        </g>
        <rect x="279.623" y="490.124" width="97.927" height="97.927" style="fill:rgb(45,231,231);stroke:black;stroke-width:1px;"/>
        <rect x="279.623" y="102.672" width="97.927" height="97.927" style="fill:rgb(235,235,235);stroke:black;stroke-width:1px;"/>
        <rect x="279.623" y="587.574" width="97.927" height="97.927" style="fill:rgb(235,235,235);stroke:black;stroke-width:1px;"/>
        <rect x="377.55" y="490.124" width="97.927" height="97.927" style="fill:rgb(45,231,231);stroke:black;stroke-width:1px;"/>
        <rect x="377.55" y="102.672" width="97.927" height="97.927" style="fill:rgb(235,235,235);stroke:black;stroke-width:1px;"/>
        <rect x="377.55" y="587.574" width="97.927" height="97.927" style="fill:rgb(235,235,235);stroke:black;stroke-width:1px;"/>
        <rect x="475.477" y="297.939" width="97.927" height="97.927" style="fill:rgb(235,235,235);stroke:black;stroke-width:1px;"/>
        <rect x="475.477" y="394.567" width="97.927" height="97.927" style="fill:rgb(235,235,235);stroke:black;stroke-width:1px;"/>
        <rect x="475.477" y="490.124" width="97.927" height="97.927" style="fill:rgb(235,235,235);stroke:black;stroke-width:1px;"/>
        <rect x="475.477" y="102.672" width="97.927" height="97.927" style="fill:rgb(235,235,235);stroke:black;stroke-width:1px;"/>
        <rect x="475.477" y="587.574" width="97.927" height="97.927" style="fill:rgb(235,235,235);stroke:black;stroke-width:1px;"/>
        <rect x="475.477" y="200.439" width="97.927" height="97.927" style="fill:rgb(235,235,235);stroke:black;stroke-width:1px;"/>
        <rect x="84.642" y="297.939" width="97.927" height="97.927" style="fill:rgb(235,235,235);stroke:black;stroke-width:1px;"/>
        <rect x="84.642" y="394.567" width="97.927" height="97.927" style="fill:rgb(235,235,235);stroke:black;stroke-width:1px;"/>
        <rect x="84.642" y="490.124" width="97.927" height="97.927" style="fill:rgb(235,235,235);stroke:black;stroke-width:1px;"/>
        <rect x="84.642" y="102.672" width="97.927" height="97.927" style="fill:rgb(235,235,235);stroke:black;stroke-width:1px;"/>
        <rect x="84.642" y="587.574" width="97.927" height="97.927" style="fill:rgb(235,235,235);stroke:black;stroke-width:1px;"/>
        <rect x="84.642" y="200.439" width="97.927" height="97.927" style="fill:rgb(235,235,235);stroke:black;stroke-width:1px;"/>
        <rect x="572.537" y="297.939" width="97.927" height="97.927" style="fill:rgb(235,235,235);stroke:black;stroke-width:1px;"/>
        <rect x="572.537" y="394.567" width="97.927" height="97.927" style="fill:rgb(235,235,235);stroke:black;stroke-width:1px;"/>
        <rect x="572.537" y="490.124" width="97.927" height="97.927" style="fill:rgb(235,235,235);stroke:black;stroke-width:1px;"/>
        <rect x="572.537" y="102.672" width="97.927" height="97.927" style="fill:rgb(235,235,235);stroke:black;stroke-width:1px;"/>
        <rect x="572.537" y="587.574" width="97.927" height="97.927" style="fill:rgb(235,235,235);stroke:black;stroke-width:1px;"/>
        <rect x="572.537" y="200.439" width="97.927" height="97.927" style="fill:rgb(235,235,235);stroke:black;stroke-width:1px;"/>
        <rect x="182.629" y="490.124" width="97.927" height="97.927" style="fill:rgb(45,231,231);stroke:black;stroke-width:1px;"/>
        <rect x="182.629" y="102.672" width="97.927" height="97.927" style="fill:rgb(235,235,235);stroke:black;stroke-width:1px;"/>
        <rect x="182.629" y="587.574" width="97.927" height="97.927" style="fill:rgb(235,235,235);stroke:black;stroke-width:1px;"/>
    </g>
    <g id="RED">
    </g>
    <g id="RED1" serif:id="RED">
    </g>
    <g id="RED2" serif:id="RED">
    </g>
    <rect x="182.629" y="298.773" width="292.848" height="289.525" style="fill:none;stroke:black;stroke-width:3px;stroke-miterlimit:10;"/>
    <g transform="matrix(0.825986,0,0,0.825986,-3684.69,-4787.39)">
        <g transform="matrix(48.427,0,0,48.427,4833.97,6315.78)">
            <path d="M0.333,-0.378C0.312,-0.385 0.294,-0.389 0.277,-0.389C0.254,-0.389 0.234,-0.383 0.219,-0.371C0.203,-0.358 0.192,-0.342 0.187,-0.323L0.187,-0L0.057,-0L0.057,-0.5L0.158,-0.5L0.173,-0.434L0.177,-0.434C0.188,-0.459 0.204,-0.478 0.223,-0.491C0.242,-0.504 0.265,-0.511 0.291,-0.511C0.308,-0.511 0.328,-0.507 0.35,-0.5L0.333,-0.378Z" style="fill-rule:nonzero;"/>
        </g>
        <g transform="matrix(28.2329,0,0,28.2329,4850.97,6331.9)">
            <path d="M0.241,-0.096C0.282,-0.096 0.314,-0.107 0.336,-0.129C0.357,-0.151 0.368,-0.178 0.368,-0.209C0.368,-0.247 0.357,-0.275 0.334,-0.293C0.311,-0.311 0.276,-0.32 0.227,-0.32L0.155,-0.32L0.155,-0.389L0.276,-0.554L0.333,-0.599L0.254,-0.59L0.086,-0.59L0.086,-0.7L0.468,-0.7L0.468,-0.629L0.327,-0.44L0.283,-0.413L0.283,-0.408L0.325,-0.414C0.348,-0.412 0.371,-0.407 0.392,-0.398C0.413,-0.389 0.431,-0.377 0.447,-0.361C0.462,-0.344 0.475,-0.324 0.484,-0.3C0.493,-0.276 0.498,-0.248 0.498,-0.217C0.498,-0.178 0.492,-0.144 0.479,-0.115C0.466,-0.086 0.448,-0.062 0.425,-0.043C0.401,-0.024 0.375,-0.009 0.344,-0C0.313,0.009 0.28,0.014 0.245,0.014C0.216,0.014 0.185,0.011 0.154,0.006C0.123,0.001 0.097,-0.007 0.078,-0.017L0.113,-0.125C0.13,-0.116 0.15,-0.109 0.171,-0.104C0.192,-0.099 0.215,-0.096 0.241,-0.096Z" style="fill-rule:nonzero;"/>
        </g>
        <g transform="matrix(28.2329,0,0,28.2329,4866.98,6331.9)">
            <path d="M0.475,-0.529C0.475,-0.495 0.469,-0.461 0.457,-0.426C0.444,-0.391 0.429,-0.357 0.41,-0.324C0.391,-0.291 0.37,-0.259 0.347,-0.228C0.324,-0.197 0.301,-0.168 0.279,-0.142L0.226,-0.101L0.226,-0.096L0.298,-0.11L0.49,-0.11L0.49,-0L0.069,-0L0.069,-0.067C0.085,-0.084 0.103,-0.103 0.123,-0.126C0.143,-0.148 0.163,-0.171 0.184,-0.197C0.204,-0.222 0.224,-0.247 0.243,-0.274C0.262,-0.301 0.28,-0.327 0.295,-0.355C0.31,-0.382 0.323,-0.408 0.332,-0.433C0.341,-0.458 0.345,-0.482 0.345,-0.505C0.345,-0.532 0.337,-0.555 0.322,-0.573C0.306,-0.59 0.281,-0.599 0.247,-0.599C0.226,-0.599 0.204,-0.595 0.182,-0.586C0.159,-0.577 0.14,-0.565 0.125,-0.551L0.073,-0.643C0.099,-0.664 0.129,-0.682 0.162,-0.695C0.195,-0.708 0.233,-0.714 0.278,-0.714C0.307,-0.714 0.333,-0.71 0.357,-0.702C0.381,-0.694 0.402,-0.682 0.419,-0.667C0.436,-0.652 0.45,-0.632 0.46,-0.61C0.47,-0.587 0.475,-0.56 0.475,-0.529Z" style="fill-rule:nonzero;"/>
        </g>
    </g>
    <g transform="matrix(0.825986,0,0,0.825986,-3672.69,-4745.23)">
        <g transform="matrix(48.427,0,0,48.427,4816.62,6315.78)">
            <path d="M0.401,-0.5L0.516,-0.208L0.541,-0.112L0.543,-0.112L0.562,-0.21L0.651,-0.5L0.727,-0.5L0.559,0.011L0.52,0.011L0.389,-0.319L0.37,-0.401L0.367,-0.401L0.347,-0.318L0.221,0.011L0.182,0.011L0.008,-0.5L0.095,-0.5L0.194,-0.209L0.211,-0.112L0.212,-0.112L0.236,-0.211L0.343,-0.5L0.401,-0.5Z" style="fill:rgb(255,0,0);fill-rule:nonzero;"/>
        </g>
        <g transform="matrix(28.2329,0,0,28.2329,4852.21,6331.9)">
            <path d="M0.108,-0.074L0.248,-0.074L0.248,-0.558L0.258,-0.617L0.218,-0.57L0.108,-0.491L0.07,-0.542L0.29,-0.712L0.326,-0.712L0.326,-0.074L0.463,-0.074L0.463,-0L0.108,-0L0.108,-0.074Z" style="fill:rgb(255,0,0);fill-rule:nonzero;"/>
        </g>
        <g transform="matrix(28.2329,0,0,28.2329,4867.6,6331.9)">
            <path d="M0.108,-0.074L0.248,-0.074L0.248,-0.558L0.258,-0.617L0.218,-0.57L0.108,-0.491L0.07,-0.542L0.29,-0.712L0.326,-0.712L0.326,-0.074L0.463,-0.074L0.463,-0L0.108,-0L0.108,-0.074Z" style="fill:rgb(255,0,0);fill-rule:nonzero;"/>
        </g>
    </g>
    <g transform="matrix(0.825986,0,0,0.825986,-3585.72,-4787.39)">
        <g transform="matrix(48.427,0,0,48.427,4833.97,6315.78)">
            <path d="M0.333,-0.378C0.312,-0.385 0.294,-0.389 0.277,-0.389C0.254,-0.389 0.234,-0.383 0.219,-0.371C0.203,-0.358 0.192,-0.342 0.187,-0.323L0.187,-0L0.057,-0L0.057,-0.5L0.158,-0.5L0.173,-0.434L0.177,-0.434C0.188,-0.459 0.204,-0.478 0.223,-0.491C0.242,-0.504 0.265,-0.511 0.291,-0.511C0.308,-0.511 0.328,-0.507 0.35,-0.5L0.333,-0.378Z" style="fill-rule:nonzero;"/>
        </g>
        <g transform="matrix(28.2329,0,0,28.2329,4850.97,6331.9)">
            <path d="M0.241,-0.096C0.282,-0.096 0.314,-0.107 0.336,-0.129C0.357,-0.151 0.368,-0.178 0.368,-0.209C0.368,-0.247 0.357,-0.275 0.334,-0.293C0.311,-0.311 0.276,-0.32 0.227,-0.32L0.155,-0.32L0.155,-0.389L0.276,-0.554L0.333,-0.599L0.254,-0.59L0.086,-0.59L0.086,-0.7L0.468,-0.7L0.468,-0.629L0.327,-0.44L0.283,-0.413L0.283,-0.408L0.325,-0.414C0.348,-0.412 0.371,-0.407 0.392,-0.398C0.413,-0.389 0.431,-0.377 0.447,-0.361C0.462,-0.344 0.475,-0.324 0.484,-0.3C0.493,-0.276 0.498,-0.248 0.498,-0.217C0.498,-0.178 0.492,-0.144 0.479,-0.115C0.466,-0.086 0.448,-0.062 0.425,-0.043C0.401,-0.024 0.375,-0.009 0.344,-0C0.313,0.009 0.28,0.014 0.245,0.014C0.216,0.014 0.185,0.011 0.154,0.006C0.123,0.001 0.097,-0.007 0.078,-0.017L0.113,-0.125C0.13,-0.116 0.15,-0.109 0.171,-0.104C0.192,-0.099 0.215,-0.096 0.241,-0.096Z" style="fill-rule:nonzero;"/>
        </g>
        <g transform="matrix(28.2329,0,0,28.2329,4866.98,6331.9)">
            <path d="M0.241,-0.096C0.282,-0.096 0.314,-0.107 0.336,-0.129C0.357,-0.151 0.368,-0.178 0.368,-0.209C0.368,-0.247 0.357,-0.275 0.334,-0.293C0.311,-0.311 0.276,-0.32 0.227,-0.32L0.155,-0.32L0.155,-0.389L0.276,-0.554L0.333,-0.599L0.254,-0.59L0.086,-0.59L0.086,-0.7L0.468,-0.7L0.468,-0.629L0.327,-0.44L0.283,-0.413L0.283,-0.408L0.325,-0.414C0.348,-0.412 0.371,-0.407 0.392,-0.398C0.413,-0.389 0.431,-0.377 0.447,-0.361C0.462,-0.344 0.475,-0.324 0.484,-0.3C0.493,-0.276 0.498,-0.248 0.498,-0.217C0.498,-0.178 0.492,-0.144 0.479,-0.115C0.466,-0.086 0.448,-0.062 0.425,-0.043C0.401,-0.024 0.375,-0.009 0.344,-0C0.313,0.009 0.28,0.014 0.245,0.014C0.216,0.014 0.185,0.011 0.154,0.006C0.123,0.001 0.097,-0.007 0.078,-0.017L0.113,-0.125C0.13,-0.116 0.15,-0.109 0.171,-0.104C0.192,-0.099 0.215,-0.096 0.241,-0.096Z" style="fill-rule:nonzero;"/>
        </g>
    </g>
    <g transform="matrix(0.825986,0,0,0.825986,-3573.72,-4745.23)">
        <g transform="matrix(48.427,0,0,48.427,4816.62,6315.78)">
            <path d="M0.401,-0.5L0.516,-0.208L0.541,-0.112L0.543,-0.112L0.562,-0.21L0.651,-0.5L0.727,-0.5L0.559,0.011L0.52,0.011L0.389,-0.319L0.37,-0.401L0.367,-0.401L0.347,-0.318L0.221,0.011L0.182,0.011L0.008,-0.5L0.095,-0.5L0.194,-0.209L0.211,-0.112L0.212,-0.112L0.236,-0.211L0.343,-0.5L0.401,-0.5Z" style="fill:rgb(255,0,0);fill-rule:nonzero;"/>
        </g>
        <g transform="matrix(28.2329,0,0,28.2329,4852.21,6331.9)">
            <path d="M0.108,-0.074L0.248,-0.074L0.248,-0.558L0.258,-0.617L0.218,-0.57L0.108,-0.491L0.07,-0.542L0.29,-0.712L0.326,-0.712L0.326,-0.074L0.463,-0.074L0.463,-0L0.108,-0L0.108,-0.074Z" style="fill:rgb(255,0,0);fill-rule:nonzero;"/>
        </g>
        <g transform="matrix(28.2329,0,0,28.2329,4867.6,6331.9)">
            <path d="M0.446,-0.541C0.446,-0.506 0.44,-0.47 0.427,-0.433C0.413,-0.396 0.397,-0.358 0.376,-0.321C0.355,-0.284 0.331,-0.247 0.305,-0.212C0.279,-0.176 0.253,-0.142 0.227,-0.11L0.178,-0.067L0.178,-0.063L0.242,-0.074L0.46,-0.074L0.46,-0L0.062,-0L0.062,-0.029C0.077,-0.044 0.094,-0.063 0.115,-0.086C0.136,-0.109 0.157,-0.134 0.18,-0.162C0.202,-0.189 0.224,-0.219 0.246,-0.25C0.267,-0.28 0.287,-0.312 0.305,-0.344C0.322,-0.376 0.336,-0.408 0.347,-0.439C0.358,-0.47 0.363,-0.5 0.363,-0.528C0.363,-0.561 0.354,-0.588 0.335,-0.61C0.316,-0.631 0.288,-0.642 0.25,-0.642C0.225,-0.642 0.2,-0.637 0.176,-0.627C0.152,-0.616 0.131,-0.604 0.114,-0.591L0.081,-0.648C0.104,-0.668 0.132,-0.684 0.164,-0.695C0.196,-0.706 0.23,-0.712 0.267,-0.712C0.296,-0.712 0.321,-0.708 0.343,-0.7C0.365,-0.691 0.384,-0.679 0.399,-0.664C0.414,-0.649 0.426,-0.631 0.434,-0.61C0.442,-0.588 0.446,-0.566 0.446,-0.541Z" style="fill:rgb(255,0,0);fill-rule:nonzero;"/>
        </g>
    </g>
    <g transform="matrix(0.825986,0,0,0.825986,-3684.69,-4886.88)">
        <g transform="matrix(48.427,0,0,48.427,4833.97,6315.78)">
            <path d="M0.333,-0.378C0.312,-0.385 0.294,-0.389 0.277,-0.389C0.254,-0.389 0.234,-0.383 0.219,-0.371C0.203,-0.358 0.192,-0.342 0.187,-0.323L0.187,-0L0.057,-0L0.057,-0.5L0.158,-0.5L0.173,-0.434L0.177,-0.434C0.188,-0.459 0.204,-0.478 0.223,-0.491C0.242,-0.504 0.265,-0.511 0.291,-0.511C0.308,-0.511 0.328,-0.507 0.35,-0.5L0.333,-0.378Z" style="fill-rule:nonzero;"/>
        </g>
        <g transform="matrix(28.2329,0,0,28.2329,4850.97,6331.9)">
            <path d="M0.475,-0.529C0.475,-0.495 0.469,-0.461 0.457,-0.426C0.444,-0.391 0.429,-0.357 0.41,-0.324C0.391,-0.291 0.37,-0.259 0.347,-0.228C0.324,-0.197 0.301,-0.168 0.279,-0.142L0.226,-0.101L0.226,-0.096L0.298,-0.11L0.49,-0.11L0.49,-0L0.069,-0L0.069,-0.067C0.085,-0.084 0.103,-0.103 0.123,-0.126C0.143,-0.148 0.163,-0.171 0.184,-0.197C0.204,-0.222 0.224,-0.247 0.243,-0.274C0.262,-0.301 0.28,-0.327 0.295,-0.355C0.31,-0.382 0.323,-0.408 0.332,-0.433C0.341,-0.458 0.345,-0.482 0.345,-0.505C0.345,-0.532 0.337,-0.555 0.322,-0.573C0.306,-0.59 0.281,-0.599 0.247,-0.599C0.226,-0.599 0.204,-0.595 0.182,-0.586C0.159,-0.577 0.14,-0.565 0.125,-0.551L0.073,-0.643C0.099,-0.664 0.129,-0.682 0.162,-0.695C0.195,-0.708 0.233,-0.714 0.278,-0.714C0.307,-0.714 0.333,-0.71 0.357,-0.702C0.381,-0.694 0.402,-0.682 0.419,-0.667C0.436,-0.652 0.45,-0.632 0.46,-0.61C0.47,-0.587 0.475,-0.56 0.475,-0.529Z" style="fill-rule:nonzero;"/>
        </g>
        <g transform="matrix(28.2329,0,0,28.2329,4866.98,6331.9)">
            <path d="M0.475,-0.529C0.475,-0.495 0.469,-0.461 0.457,-0.426C0.444,-0.391 0.429,-0.357 0.41,-0.324C0.391,-0.291 0.37,-0.259 0.347,-0.228C0.324,-0.197 0.301,-0.168 0.279,-0.142L0.226,-0.101L0.226,-0.096L0.298,-0.11L0.49,-0.11L0.49,-0L0.069,-0L0.069,-0.067C0.085,-0.084 0.103,-0.103 0.123,-0.126C0.143,-0.148 0.163,-0.171 0.184,-0.197C0.204,-0.222 0.224,-0.247 0.243,-0.274C0.262,-0.301 0.28,-0.327 0.295,-0.355C0.31,-0.382 0.323,-0.408 0.332,-0.433C0.341,-0.458 0.345,-0.482 0.345,-0.505C0.345,-0.532 0.337,-0.555 0.322,-0.573C0.306,-0.59 0.281,-0.599 0.247,-0.599C0.226,-0.599 0.204,-0.595 0.182,-0.586C0.159,-0.577 0.14,-0.565 0.125,-0.551L0.073,-0.643C0.099,-0.664 0.129,-0.682 0.162,-0.695C0.195,-0.708 0.233,-0.714 0.278,-0.714C0.307,-0.714 0.333,-0.71 0.357,-0.702C0.381,-0.694 0.402,-0.682 0.419,-0.667C0.436,-0.652 0.45,-0.632 0.46,-0.61C0.47,-0.587 0.475,-0.56 0.475,-0.529Z" style="fill-rule:nonzero;"/>
        </g>
    </g>
    <path d="M362.075,15.691L367.275,15.691L367.275,36.531C367.275,38.958 366.795,40.811 365.835,42.091C364.875,43.371 363.341,44.011 361.235,44.011C360.435,44.011 359.581,43.918 358.675,43.731L358.675,39.371L359.195,39.411C360.395,39.411 361.175,39.025 361.535,38.251C361.895,37.478 362.075,36.411 362.075,35.051L362.075,15.691ZM361.395,10.051C361.395,9.278 361.681,8.618 362.255,8.071C362.828,7.525 363.621,7.251 364.635,7.251C365.648,7.251 366.468,7.525 367.095,8.071C367.721,8.618 368.035,9.278 368.035,10.051C368.035,10.825 367.721,11.471 367.095,11.991C366.468,12.511 365.648,12.771 364.635,12.771C363.621,12.771 362.828,12.511 362.255,11.991C361.681,11.471 361.395,10.825 361.395,10.051Z" style="fill-rule:nonzero;"/>
    <path d="M128.43,21.691C128.43,16.891 129.21,13.278 130.77,10.851C132.33,8.425 134.603,7.211 137.59,7.211C140.817,7.211 143.157,8.405 144.61,10.791C146.063,13.178 146.79,16.811 146.79,21.691C146.79,26.491 146.01,30.105 144.45,32.531C142.89,34.958 140.603,36.171 137.59,36.171C134.417,36.171 132.097,34.905 130.63,32.371C129.163,29.838 128.43,26.278 128.43,21.691ZM131.75,21.691C131.75,23.425 131.863,25.005 132.09,26.431C132.317,27.858 132.67,29.085 133.15,30.111C133.63,31.138 134.237,31.938 134.97,32.511C135.703,33.085 136.577,33.371 137.59,33.371C139.617,33.371 141.103,32.431 142.05,30.551C142.997,28.671 143.47,25.718 143.47,21.691C143.47,19.985 143.37,18.411 143.17,16.971C142.97,15.531 142.637,14.291 142.17,13.251C141.703,12.211 141.097,11.411 140.35,10.851C139.603,10.291 138.683,10.011 137.59,10.011C135.59,10.011 134.117,10.958 133.17,12.851C132.223,14.745 131.75,17.691 131.75,21.691Z" style="fill-rule:nonzero;"/>
    <path d="M4.576,153C4.576,148.2 5.356,144.587 6.916,142.16C8.476,139.733 10.75,138.52 13.736,138.52C16.963,138.52 19.303,139.713 20.756,142.1C22.21,144.487 22.936,148.12 22.936,153C22.936,157.8 22.156,161.413 20.596,163.84C19.036,166.267 16.75,167.48 13.736,167.48C10.563,167.48 8.243,166.213 6.776,163.68C5.31,161.147 4.576,157.587 4.576,153ZM7.896,153C7.896,154.733 8.01,156.313 8.236,157.74C8.463,159.167 8.816,160.393 9.296,161.42C9.776,162.447 10.383,163.247 11.116,163.82C11.85,164.393 12.723,164.68 13.736,164.68C15.763,164.68 17.25,163.74 18.196,161.86C19.143,159.98 19.616,157.027 19.616,153C19.616,151.293 19.516,149.72 19.316,148.28C19.116,146.84 18.783,145.6 18.316,144.56C17.85,143.52 17.243,142.72 16.496,142.16C15.75,141.6 14.83,141.32 13.736,141.32C11.736,141.32 10.263,142.267 9.316,144.16C8.37,146.053 7.896,149 7.896,153Z" style="fill-rule:nonzero;"/>
    <path d="M11.376,644.802C13.216,644.802 14.736,644.269 15.936,643.202C17.136,642.136 17.736,640.589 17.736,638.562C17.736,636.616 17.143,635.162 15.956,634.202C14.77,633.242 13.136,632.762 11.056,632.762L7.696,632.962L7.696,619.122L20.176,619.122L20.176,622.082L10.696,622.082L10.696,630.042L12.416,629.962C15.056,629.989 17.136,630.722 18.656,632.162C20.176,633.602 20.936,635.669 20.936,638.362C20.936,639.856 20.683,641.182 20.176,642.342C19.67,643.502 18.983,644.469 18.116,645.242C17.25,646.016 16.23,646.602 15.056,647.002C13.883,647.402 12.63,647.602 11.296,647.602C10.096,647.602 9.083,647.536 8.256,647.402C7.43,647.269 6.656,647.069 5.936,646.802L6.776,644.082C7.39,644.322 8.05,644.502 8.756,644.622C9.463,644.742 10.336,644.802 11.376,644.802Z" style="fill-rule:nonzero;"/>
    <path d="M611.037,33.371C612.877,33.371 614.397,32.838 615.597,31.771C616.797,30.705 617.397,29.158 617.397,27.131C617.397,25.185 616.804,23.731 615.617,22.771C614.431,21.811 612.797,21.331 610.717,21.331L607.357,21.531L607.357,7.691L619.837,7.691L619.837,10.651L610.357,10.651L610.357,18.611L612.077,18.531C614.717,18.558 616.797,19.291 618.317,20.731C619.837,22.171 620.597,24.238 620.597,26.931C620.597,28.425 620.344,29.751 619.837,30.911C619.331,32.071 618.644,33.038 617.777,33.811C616.911,34.585 615.891,35.171 614.717,35.571C613.544,35.971 612.291,36.171 610.957,36.171C609.757,36.171 608.744,36.105 607.917,35.971C607.091,35.838 606.317,35.638 605.597,35.371L606.437,32.651C607.051,32.891 607.711,33.071 608.417,33.191C609.124,33.311 609.997,33.371 611.037,33.371Z" style="fill-rule:nonzero;"/>
    <path d="M4.456,376.129L9.656,376.129L9.656,396.129L4.456,396.129L4.456,376.129ZM3.696,370.489C3.696,369.716 3.983,369.056 4.556,368.509C5.13,367.962 5.923,367.689 6.936,367.689C7.95,367.689 8.77,367.962 9.396,368.509C10.023,369.056 10.336,369.716 10.336,370.489C10.336,371.262 10.023,371.909 9.396,372.429C8.77,372.949 7.95,373.209 6.936,373.209C5.923,373.209 5.13,372.949 4.556,372.429C3.983,371.909 3.696,371.262 3.696,370.489Z" style="fill-rule:nonzero;"/>
    <g transform="matrix(0.825986,0,0,0.825986,-3672.69,-4844.71)">
        <g transform="matrix(48.427,0,0,48.427,4816.62,6315.78)">
            <path d="M0.401,-0.5L0.516,-0.208L0.541,-0.112L0.543,-0.112L0.562,-0.21L0.651,-0.5L0.727,-0.5L0.559,0.011L0.52,0.011L0.389,-0.319L0.37,-0.401L0.367,-0.401L0.347,-0.318L0.221,0.011L0.182,0.011L0.008,-0.5L0.095,-0.5L0.194,-0.209L0.211,-0.112L0.212,-0.112L0.236,-0.211L0.343,-0.5L0.401,-0.5Z" style="fill:rgb(255,0,0);fill-rule:nonzero;"/>
        </g>
        <g transform="matrix(28.2329,0,0,28.2329,4852.21,6331.9)">
            <path d="M0.043,-0.35C0.043,-0.47 0.063,-0.56 0.102,-0.621C0.14,-0.682 0.197,-0.712 0.272,-0.712C0.353,-0.712 0.411,-0.682 0.448,-0.623C0.484,-0.563 0.502,-0.472 0.502,-0.35C0.502,-0.23 0.483,-0.14 0.444,-0.079C0.405,-0.018 0.347,0.012 0.272,0.012C0.193,0.012 0.135,-0.02 0.098,-0.083C0.061,-0.146 0.043,-0.235 0.043,-0.35ZM0.126,-0.35C0.126,-0.307 0.129,-0.267 0.135,-0.232C0.14,-0.196 0.149,-0.165 0.161,-0.14C0.173,-0.114 0.188,-0.094 0.207,-0.08C0.225,-0.065 0.247,-0.058 0.272,-0.058C0.323,-0.058 0.36,-0.082 0.384,-0.129C0.407,-0.175 0.419,-0.249 0.419,-0.35C0.419,-0.393 0.417,-0.432 0.412,-0.468C0.407,-0.504 0.398,-0.535 0.387,-0.561C0.375,-0.587 0.36,-0.607 0.341,-0.621C0.322,-0.635 0.299,-0.642 0.272,-0.642C0.222,-0.642 0.185,-0.618 0.162,-0.571C0.138,-0.524 0.126,-0.45 0.126,-0.35Z" style="fill:rgb(255,0,0);fill-rule:nonzero;"/>
        </g>
        <g transform="matrix(28.2329,0,0,28.2329,4867.6,6331.9)">
            <path d="M0.108,-0.074L0.248,-0.074L0.248,-0.558L0.258,-0.617L0.218,-0.57L0.108,-0.491L0.07,-0.542L0.29,-0.712L0.326,-0.712L0.326,-0.074L0.463,-0.074L0.463,-0L0.108,-0L0.108,-0.074Z" style="fill:rgb(255,0,0);fill-rule:nonzero;"/>
        </g>
    </g>
    <g transform="matrix(0.825986,0,0,0.825986,-3585.72,-4887.04)">
        <g transform="matrix(48.427,0,0,48.427,4833.97,6315.78)">
            <path d="M0.333,-0.378C0.312,-0.385 0.294,-0.389 0.277,-0.389C0.254,-0.389 0.234,-0.383 0.219,-0.371C0.203,-0.358 0.192,-0.342 0.187,-0.323L0.187,-0L0.057,-0L0.057,-0.5L0.158,-0.5L0.173,-0.434L0.177,-0.434C0.188,-0.459 0.204,-0.478 0.223,-0.491C0.242,-0.504 0.265,-0.511 0.291,-0.511C0.308,-0.511 0.328,-0.507 0.35,-0.5L0.333,-0.378Z" style="fill-rule:nonzero;"/>
        </g>
        <g transform="matrix(28.2329,0,0,28.2329,4850.97,6331.9)">
            <path d="M0.475,-0.529C0.475,-0.495 0.469,-0.461 0.457,-0.426C0.444,-0.391 0.429,-0.357 0.41,-0.324C0.391,-0.291 0.37,-0.259 0.347,-0.228C0.324,-0.197 0.301,-0.168 0.279,-0.142L0.226,-0.101L0.226,-0.096L0.298,-0.11L0.49,-0.11L0.49,-0L0.069,-0L0.069,-0.067C0.085,-0.084 0.103,-0.103 0.123,-0.126C0.143,-0.148 0.163,-0.171 0.184,-0.197C0.204,-0.222 0.224,-0.247 0.243,-0.274C0.262,-0.301 0.28,-0.327 0.295,-0.355C0.31,-0.382 0.323,-0.408 0.332,-0.433C0.341,-0.458 0.345,-0.482 0.345,-0.505C0.345,-0.532 0.337,-0.555 0.322,-0.573C0.306,-0.59 0.281,-0.599 0.247,-0.599C0.226,-0.599 0.204,-0.595 0.182,-0.586C0.159,-0.577 0.14,-0.565 0.125,-0.551L0.073,-0.643C0.099,-0.664 0.129,-0.682 0.162,-0.695C0.195,-0.708 0.233,-0.714 0.278,-0.714C0.307,-0.714 0.333,-0.71 0.357,-0.702C0.381,-0.694 0.402,-0.682 0.419,-0.667C0.436,-0.652 0.45,-0.632 0.46,-0.61C0.47,-0.587 0.475,-0.56 0.475,-0.529Z" style="fill-rule:nonzero;"/>
        </g>
        <g transform="matrix(28.2329,0,0,28.2329,4866.98,6331.9)">
            <path d="M0.241,-0.096C0.282,-0.096 0.314,-0.107 0.336,-0.129C0.357,-0.151 0.368,-0.178 0.368,-0.209C0.368,-0.247 0.357,-0.275 0.334,-0.293C0.311,-0.311 0.276,-0.32 0.227,-0.32L0.155,-0.32L0.155,-0.389L0.276,-0.554L0.333,-0.599L0.254,-0.59L0.086,-0.59L0.086,-0.7L0.468,-0.7L0.468,-0.629L0.327,-0.44L0.283,-0.413L0.283,-0.408L0.325,-0.414C0.348,-0.412 0.371,-0.407 0.392,-0.398C0.413,-0.389 0.431,-0.377 0.447,-0.361C0.462,-0.344 0.475,-0.324 0.484,-0.3C0.493,-0.276 0.498,-0.248 0.498,-0.217C0.498,-0.178 0.492,-0.144 0.479,-0.115C0.466,-0.086 0.448,-0.062 0.425,-0.043C0.401,-0.024 0.375,-0.009 0.344,-0C0.313,0.009 0.28,0.014 0.245,0.014C0.216,0.014 0.185,0.011 0.154,0.006C0.123,0.001 0.097,-0.007 0.078,-0.017L0.113,-0.125C0.13,-0.116 0.15,-0.109 0.171,-0.104C0.192,-0.099 0.215,-0.096 0.241,-0.096Z" style="fill-rule:nonzero;"/>
        </g>
    </g>
    <g transform="matrix(0.825986,0,0,0.825986,-3573.72,-4844.87)">
        <g transform="matrix(48.427,0,0,48.427,4816.62,6315.78)">
            <path d="M0.401,-0.5L0.516,-0.208L0.541,-0.112L0.543,-0.112L0.562,-0.21L0.651,-0.5L0.727,-0.5L0.559,0.011L0.52,0.011L0.389,-0.319L0.37,-0.401L0.367,-0.401L0.347,-0.318L0.221,0.011L0.182,0.011L0.008,-0.5L0.095,-0.5L0.194,-0.209L0.211,-0.112L0.212,-0.112L0.236,-0.211L0.343,-0.5L0.401,-0.5Z" style="fill:rgb(255,0,0);fill-rule:nonzero;"/>
        </g>
        <g transform="matrix(28.2329,0,0,28.2329,4852.21,6331.9)">
            <path d="M0.043,-0.35C0.043,-0.47 0.063,-0.56 0.102,-0.621C0.14,-0.682 0.197,-0.712 0.272,-0.712C0.353,-0.712 0.411,-0.682 0.448,-0.623C0.484,-0.563 0.502,-0.472 0.502,-0.35C0.502,-0.23 0.483,-0.14 0.444,-0.079C0.405,-0.018 0.347,0.012 0.272,0.012C0.193,0.012 0.135,-0.02 0.098,-0.083C0.061,-0.146 0.043,-0.235 0.043,-0.35ZM0.126,-0.35C0.126,-0.307 0.129,-0.267 0.135,-0.232C0.14,-0.196 0.149,-0.165 0.161,-0.14C0.173,-0.114 0.188,-0.094 0.207,-0.08C0.225,-0.065 0.247,-0.058 0.272,-0.058C0.323,-0.058 0.36,-0.082 0.384,-0.129C0.407,-0.175 0.419,-0.249 0.419,-0.35C0.419,-0.393 0.417,-0.432 0.412,-0.468C0.407,-0.504 0.398,-0.535 0.387,-0.561C0.375,-0.587 0.36,-0.607 0.341,-0.621C0.322,-0.635 0.299,-0.642 0.272,-0.642C0.222,-0.642 0.185,-0.618 0.162,-0.571C0.138,-0.524 0.126,-0.45 0.126,-0.35Z" style="fill:rgb(255,0,0);fill-rule:nonzero;"/>
        </g>
        <g transform="matrix(28.2329,0,0,28.2329,4867.6,6331.9)">
            <path d="M0.446,-0.541C0.446,-0.506 0.44,-0.47 0.427,-0.433C0.413,-0.396 0.397,-0.358 0.376,-0.321C0.355,-0.284 0.331,-0.247 0.305,-0.212C0.279,-0.176 0.253,-0.142 0.227,-0.11L0.178,-0.067L0.178,-0.063L0.242,-0.074L0.46,-0.074L0.46,-0L0.062,-0L0.062,-0.029C0.077,-0.044 0.094,-0.063 0.115,-0.086C0.136,-0.109 0.157,-0.134 0.18,-0.162C0.202,-0.189 0.224,-0.219 0.246,-0.25C0.267,-0.28 0.287,-0.312 0.305,-0.344C0.322,-0.376 0.336,-0.408 0.347,-0.439C0.358,-0.47 0.363,-0.5 0.363,-0.528C0.363,-0.561 0.354,-0.588 0.335,-0.61C0.316,-0.631 0.288,-0.642 0.25,-0.642C0.225,-0.642 0.2,-0.637 0.176,-0.627C0.152,-0.616 0.131,-0.604 0.114,-0.591L0.081,-0.648C0.104,-0.668 0.132,-0.684 0.164,-0.695C0.196,-0.706 0.23,-0.712 0.267,-0.712C0.296,-0.712 0.321,-0.708 0.343,-0.7C0.365,-0.691 0.384,-0.679 0.399,-0.664C0.414,-0.649 0.426,-0.631 0.434,-0.61C0.442,-0.588 0.446,-0.566 0.446,-0.541Z" style="fill:rgb(255,0,0);fill-rule:nonzero;"/>
        </g>
    </g>
    <g transform="matrix(0.825986,0,0,0.825986,-3779.92,-4886.88)">
        <g transform="matrix(48.427,0,0,48.427,4833.97,6315.78)">
            <path d="M0.333,-0.378C0.312,-0.385 0.294,-0.389 0.277,-0.389C0.254,-0.389 0.234,-0.383 0.219,-0.371C0.203,-0.358 0.192,-0.342 0.187,-0.323L0.187,-0L0.057,-0L0.057,-0.5L0.158,-0.5L0.173,-0.434L0.177,-0.434C0.188,-0.459 0.204,-0.478 0.223,-0.491C0.242,-0.504 0.265,-0.511 0.291,-0.511C0.308,-0.511 0.328,-0.507 0.35,-0.5L0.333,-0.378Z" style="fill-rule:nonzero;"/>
        </g>
        <g transform="matrix(28.2329,0,0,28.2329,4850.97,6331.9)">
            <path d="M0.475,-0.529C0.475,-0.495 0.469,-0.461 0.457,-0.426C0.444,-0.391 0.429,-0.357 0.41,-0.324C0.391,-0.291 0.37,-0.259 0.347,-0.228C0.324,-0.197 0.301,-0.168 0.279,-0.142L0.226,-0.101L0.226,-0.096L0.298,-0.11L0.49,-0.11L0.49,-0L0.069,-0L0.069,-0.067C0.085,-0.084 0.103,-0.103 0.123,-0.126C0.143,-0.148 0.163,-0.171 0.184,-0.197C0.204,-0.222 0.224,-0.247 0.243,-0.274C0.262,-0.301 0.28,-0.327 0.295,-0.355C0.31,-0.382 0.323,-0.408 0.332,-0.433C0.341,-0.458 0.345,-0.482 0.345,-0.505C0.345,-0.532 0.337,-0.555 0.322,-0.573C0.306,-0.59 0.281,-0.599 0.247,-0.599C0.226,-0.599 0.204,-0.595 0.182,-0.586C0.159,-0.577 0.14,-0.565 0.125,-0.551L0.073,-0.643C0.099,-0.664 0.129,-0.682 0.162,-0.695C0.195,-0.708 0.233,-0.714 0.278,-0.714C0.307,-0.714 0.333,-0.71 0.357,-0.702C0.381,-0.694 0.402,-0.682 0.419,-0.667C0.436,-0.652 0.45,-0.632 0.46,-0.61C0.47,-0.587 0.475,-0.56 0.475,-0.529Z" style="fill-rule:nonzero;"/>
        </g>
        <g transform="matrix(28.2329,0,0,28.2329,4866.98,6331.9)">
            <path d="M0.101,-0.11L0.24,-0.11L0.24,-0.505L0.255,-0.573L0.207,-0.514L0.118,-0.453L0.063,-0.528L0.291,-0.712L0.364,-0.712L0.364,-0.11L0.5,-0.11L0.5,-0L0.101,-0L0.101,-0.11Z" style="fill-rule:nonzero;"/>
        </g>
    </g>
    <g transform="matrix(0.825986,0,0,0.825986,-3767.92,-4844.71)">
        <g transform="matrix(48.427,0,0,48.427,4816.62,6315.78)">
            <path d="M0.401,-0.5L0.516,-0.208L0.541,-0.112L0.543,-0.112L0.562,-0.21L0.651,-0.5L0.727,-0.5L0.559,0.011L0.52,0.011L0.389,-0.319L0.37,-0.401L0.367,-0.401L0.347,-0.318L0.221,0.011L0.182,0.011L0.008,-0.5L0.095,-0.5L0.194,-0.209L0.211,-0.112L0.212,-0.112L0.236,-0.211L0.343,-0.5L0.401,-0.5Z" style="fill:rgb(255,0,0);fill-rule:nonzero;"/>
        </g>
        <g transform="matrix(28.2329,0,0,28.2329,4852.21,6331.9)">
            <path d="M0.043,-0.35C0.043,-0.47 0.063,-0.56 0.102,-0.621C0.14,-0.682 0.197,-0.712 0.272,-0.712C0.353,-0.712 0.411,-0.682 0.448,-0.623C0.484,-0.563 0.502,-0.472 0.502,-0.35C0.502,-0.23 0.483,-0.14 0.444,-0.079C0.405,-0.018 0.347,0.012 0.272,0.012C0.193,0.012 0.135,-0.02 0.098,-0.083C0.061,-0.146 0.043,-0.235 0.043,-0.35ZM0.126,-0.35C0.126,-0.307 0.129,-0.267 0.135,-0.232C0.14,-0.196 0.149,-0.165 0.161,-0.14C0.173,-0.114 0.188,-0.094 0.207,-0.08C0.225,-0.065 0.247,-0.058 0.272,-0.058C0.323,-0.058 0.36,-0.082 0.384,-0.129C0.407,-0.175 0.419,-0.249 0.419,-0.35C0.419,-0.393 0.417,-0.432 0.412,-0.468C0.407,-0.504 0.398,-0.535 0.387,-0.561C0.375,-0.587 0.36,-0.607 0.341,-0.621C0.322,-0.635 0.299,-0.642 0.272,-0.642C0.222,-0.642 0.185,-0.618 0.162,-0.571C0.138,-0.524 0.126,-0.45 0.126,-0.35Z" style="fill:rgb(255,0,0);fill-rule:nonzero;"/>
        </g>
        <g transform="matrix(28.2329,0,0,28.2329,4867.6,6331.9)">
            <path d="M0.043,-0.35C0.043,-0.47 0.063,-0.56 0.102,-0.621C0.14,-0.682 0.197,-0.712 0.272,-0.712C0.353,-0.712 0.411,-0.682 0.448,-0.623C0.484,-0.563 0.502,-0.472 0.502,-0.35C0.502,-0.23 0.483,-0.14 0.444,-0.079C0.405,-0.018 0.347,0.012 0.272,0.012C0.193,0.012 0.135,-0.02 0.098,-0.083C0.061,-0.146 0.043,-0.235 0.043,-0.35ZM0.126,-0.35C0.126,-0.307 0.129,-0.267 0.135,-0.232C0.14,-0.196 0.149,-0.165 0.161,-0.14C0.173,-0.114 0.188,-0.094 0.207,-0.08C0.225,-0.065 0.247,-0.058 0.272,-0.058C0.323,-0.058 0.36,-0.082 0.384,-0.129C0.407,-0.175 0.419,-0.249 0.419,-0.35C0.419,-0.393 0.417,-0.432 0.412,-0.468C0.407,-0.504 0.398,-0.535 0.387,-0.561C0.375,-0.587 0.36,-0.607 0.341,-0.621C0.322,-0.635 0.299,-0.642 0.272,-0.642C0.222,-0.642 0.185,-0.618 0.162,-0.571C0.138,-0.524 0.126,-0.45 0.126,-0.35Z" style="fill:rgb(255,0,0);fill-rule:nonzero;"/>
        </g>
    </g>
    <g transform="matrix(0.825986,0,0,0.825986,-3779.92,-4787.39)">
        <g transform="matrix(48.427,0,0,48.427,4833.97,6315.78)">
            <path d="M0.333,-0.378C0.312,-0.385 0.294,-0.389 0.277,-0.389C0.254,-0.389 0.234,-0.383 0.219,-0.371C0.203,-0.358 0.192,-0.342 0.187,-0.323L0.187,-0L0.057,-0L0.057,-0.5L0.158,-0.5L0.173,-0.434L0.177,-0.434C0.188,-0.459 0.204,-0.478 0.223,-0.491C0.242,-0.504 0.265,-0.511 0.291,-0.511C0.308,-0.511 0.328,-0.507 0.35,-0.5L0.333,-0.378Z" style="fill-rule:nonzero;"/>
        </g>
        <g transform="matrix(28.2329,0,0,28.2329,4850.97,6331.9)">
            <path d="M0.241,-0.096C0.282,-0.096 0.314,-0.107 0.336,-0.129C0.357,-0.151 0.368,-0.178 0.368,-0.209C0.368,-0.247 0.357,-0.275 0.334,-0.293C0.311,-0.311 0.276,-0.32 0.227,-0.32L0.155,-0.32L0.155,-0.389L0.276,-0.554L0.333,-0.599L0.254,-0.59L0.086,-0.59L0.086,-0.7L0.468,-0.7L0.468,-0.629L0.327,-0.44L0.283,-0.413L0.283,-0.408L0.325,-0.414C0.348,-0.412 0.371,-0.407 0.392,-0.398C0.413,-0.389 0.431,-0.377 0.447,-0.361C0.462,-0.344 0.475,-0.324 0.484,-0.3C0.493,-0.276 0.498,-0.248 0.498,-0.217C0.498,-0.178 0.492,-0.144 0.479,-0.115C0.466,-0.086 0.448,-0.062 0.425,-0.043C0.401,-0.024 0.375,-0.009 0.344,-0C0.313,0.009 0.28,0.014 0.245,0.014C0.216,0.014 0.185,0.011 0.154,0.006C0.123,0.001 0.097,-0.007 0.078,-0.017L0.113,-0.125C0.13,-0.116 0.15,-0.109 0.171,-0.104C0.192,-0.099 0.215,-0.096 0.241,-0.096Z" style="fill-rule:nonzero;"/>
        </g>
        <g transform="matrix(28.2329,0,0,28.2329,4866.98,6331.9)">
            <path d="M0.101,-0.11L0.24,-0.11L0.24,-0.505L0.255,-0.573L0.207,-0.514L0.118,-0.453L0.063,-0.528L0.291,-0.712L0.364,-0.712L0.364,-0.11L0.5,-0.11L0.5,-0L0.101,-0L0.101,-0.11Z" style="fill-rule:nonzero;"/>
        </g>
    </g>
    <g transform="matrix(0.825986,0,0,0.825986,-3767.92,-4745.23)">
        <g transform="matrix(48.427,0,0,48.427,4816.62,6315.78)">
            <path d="M0.401,-0.5L0.516,-0.208L0.541,-0.112L0.543,-0.112L0.562,-0.21L0.651,-0.5L0.727,-0.5L0.559,0.011L0.52,0.011L0.389,-0.319L0.37,-0.401L0.367,-0.401L0.347,-0.318L0.221,0.011L0.182,0.011L0.008,-0.5L0.095,-0.5L0.194,-0.209L0.211,-0.112L0.212,-0.112L0.236,-0.211L0.343,-0.5L0.401,-0.5Z" style="fill:rgb(255,0,0);fill-rule:nonzero;"/>
        </g>
        <g transform="matrix(28.2329,0,0,28.2329,4852.21,6331.9)">
            <path d="M0.108,-0.074L0.248,-0.074L0.248,-0.558L0.258,-0.617L0.218,-0.57L0.108,-0.491L0.07,-0.542L0.29,-0.712L0.326,-0.712L0.326,-0.074L0.463,-0.074L0.463,-0L0.108,-0L0.108,-0.074Z" style="fill:rgb(255,0,0);fill-rule:nonzero;"/>
        </g>
        <g transform="matrix(28.2329,0,0,28.2329,4867.6,6331.9)">
            <path d="M0.043,-0.35C0.043,-0.47 0.063,-0.56 0.102,-0.621C0.14,-0.682 0.197,-0.712 0.272,-0.712C0.353,-0.712 0.411,-0.682 0.448,-0.623C0.484,-0.563 0.502,-0.472 0.502,-0.35C0.502,-0.23 0.483,-0.14 0.444,-0.079C0.405,-0.018 0.347,0.012 0.272,0.012C0.193,0.012 0.135,-0.02 0.098,-0.083C0.061,-0.146 0.043,-0.235 0.043,-0.35ZM0.126,-0.35C0.126,-0.307 0.129,-0.267 0.135,-0.232C0.14,-0.196 0.149,-0.165 0.161,-0.14C0.173,-0.114 0.188,-0.094 0.207,-0.08C0.225,-0.065 0.247,-0.058 0.272,-0.058C0.323,-0.058 0.36,-0.082 0.384,-0.129C0.407,-0.175 0.419,-0.249 0.419,-0.35C0.419,-0.393 0.417,-0.432 0.412,-0.468C0.407,-0.504 0.398,-0.535 0.387,-0.561C0.375,-0.587 0.36,-0.607 0.341,-0.621C0.322,-0.635 0.299,-0.642 0.272,-0.642C0.222,-0.642 0.185,-0.618 0.162,-0.571C0.138,-0.524 0.126,-0.45 0.126,-0.35Z" style="fill:rgb(255,0,0);fill-rule:nonzero;"/>
        </g>
    </g>
    <g transform="matrix(0.825986,0,0,0.825986,-3779.92,-4693.36)">
        <g transform="matrix(48.427,0,0,48.427,4833.97,6315.78)">
            <path d="M0.333,-0.378C0.312,-0.385 0.294,-0.389 0.277,-0.389C0.254,-0.389 0.234,-0.383 0.219,-0.371C0.203,-0.358 0.192,-0.342 0.187,-0.323L0.187,-0L0.057,-0L0.057,-0.5L0.158,-0.5L0.173,-0.434L0.177,-0.434C0.188,-0.459 0.204,-0.478 0.223,-0.491C0.242,-0.504 0.265,-0.511 0.291,-0.511C0.308,-0.511 0.328,-0.507 0.35,-0.5L0.333,-0.378Z" style="fill-rule:nonzero;"/>
        </g>
        <g transform="matrix(28.2329,0,0,28.2329,4850.97,6331.9)">
            <path d="M0.553,-0.195L0.443,-0.195L0.443,-0L0.322,-0L0.322,-0.195L0.019,-0.195L0.019,-0.269L0.336,-0.705L0.443,-0.705L0.443,-0.299L0.553,-0.299L0.553,-0.195ZM0.322,-0.452L0.331,-0.536L0.327,-0.536L0.293,-0.464L0.189,-0.329L0.139,-0.291L0.203,-0.299L0.322,-0.299L0.322,-0.452Z" style="fill-rule:nonzero;"/>
        </g>
        <g transform="matrix(28.2329,0,0,28.2329,4866.98,6331.9)">
            <path d="M0.101,-0.11L0.24,-0.11L0.24,-0.505L0.255,-0.573L0.207,-0.514L0.118,-0.453L0.063,-0.528L0.291,-0.712L0.364,-0.712L0.364,-0.11L0.5,-0.11L0.5,-0L0.101,-0L0.101,-0.11Z" style="fill-rule:nonzero;"/>
        </g>
    </g>
    <g transform="matrix(0.825986,0,0,0.825986,-3767.92,-4651.19)">
        <g transform="matrix(48.427,0,0,48.427,4816.62,6315.78)">
            <path d="M0.401,-0.5L0.516,-0.208L0.541,-0.112L0.543,-0.112L0.562,-0.21L0.651,-0.5L0.727,-0.5L0.559,0.011L0.52,0.011L0.389,-0.319L0.37,-0.401L0.367,-0.401L0.347,-0.318L0.221,0.011L0.182,0.011L0.008,-0.5L0.095,-0.5L0.194,-0.209L0.211,-0.112L0.212,-0.112L0.236,-0.211L0.343,-0.5L0.401,-0.5Z" style="fill:rgb(255,0,0);fill-rule:nonzero;"/>
        </g>
        <g transform="matrix(28.2329,0,0,28.2329,4852.21,6331.9)">
            <path d="M0.446,-0.541C0.446,-0.506 0.44,-0.47 0.427,-0.433C0.413,-0.396 0.397,-0.358 0.376,-0.321C0.355,-0.284 0.331,-0.247 0.305,-0.212C0.279,-0.176 0.253,-0.142 0.227,-0.11L0.178,-0.067L0.178,-0.063L0.242,-0.074L0.46,-0.074L0.46,-0L0.062,-0L0.062,-0.029C0.077,-0.044 0.094,-0.063 0.115,-0.086C0.136,-0.109 0.157,-0.134 0.18,-0.162C0.202,-0.189 0.224,-0.219 0.246,-0.25C0.267,-0.28 0.287,-0.312 0.305,-0.344C0.322,-0.376 0.336,-0.408 0.347,-0.439C0.358,-0.47 0.363,-0.5 0.363,-0.528C0.363,-0.561 0.354,-0.588 0.335,-0.61C0.316,-0.631 0.288,-0.642 0.25,-0.642C0.225,-0.642 0.2,-0.637 0.176,-0.627C0.152,-0.616 0.131,-0.604 0.114,-0.591L0.081,-0.648C0.104,-0.668 0.132,-0.684 0.164,-0.695C0.196,-0.706 0.23,-0.712 0.267,-0.712C0.296,-0.712 0.321,-0.708 0.343,-0.7C0.365,-0.691 0.384,-0.679 0.399,-0.664C0.414,-0.649 0.426,-0.631 0.434,-0.61C0.442,-0.588 0.446,-0.566 0.446,-0.541Z" style="fill:rgb(255,0,0);fill-rule:nonzero;"/>
        </g>
        <g transform="matrix(28.2329,0,0,28.2329,4867.6,6331.9)">
            <path d="M0.043,-0.35C0.043,-0.47 0.063,-0.56 0.102,-0.621C0.14,-0.682 0.197,-0.712 0.272,-0.712C0.353,-0.712 0.411,-0.682 0.448,-0.623C0.484,-0.563 0.502,-0.472 0.502,-0.35C0.502,-0.23 0.483,-0.14 0.444,-0.079C0.405,-0.018 0.347,0.012 0.272,0.012C0.193,0.012 0.135,-0.02 0.098,-0.083C0.061,-0.146 0.043,-0.235 0.043,-0.35ZM0.126,-0.35C0.126,-0.307 0.129,-0.267 0.135,-0.232C0.14,-0.196 0.149,-0.165 0.161,-0.14C0.173,-0.114 0.188,-0.094 0.207,-0.08C0.225,-0.065 0.247,-0.058 0.272,-0.058C0.323,-0.058 0.36,-0.082 0.384,-0.129C0.407,-0.175 0.419,-0.249 0.419,-0.35C0.419,-0.393 0.417,-0.432 0.412,-0.468C0.407,-0.504 0.398,-0.535 0.387,-0.561C0.375,-0.587 0.36,-0.607 0.341,-0.621C0.322,-0.635 0.299,-0.642 0.272,-0.642C0.222,-0.642 0.185,-0.618 0.162,-0.571C0.138,-0.524 0.126,-0.45 0.126,-0.35Z" style="fill:rgb(255,0,0);fill-rule:nonzero;"/>
        </g>
    </g>
    <g transform="matrix(0.825986,0,0,0.825986,-3684.69,-4693.36)">
        <g transform="matrix(48.427,0,0,48.427,4833.97,6315.78)">
            <path d="M0.333,-0.378C0.312,-0.385 0.294,-0.389 0.277,-0.389C0.254,-0.389 0.234,-0.383 0.219,-0.371C0.203,-0.358 0.192,-0.342 0.187,-0.323L0.187,-0L0.057,-0L0.057,-0.5L0.158,-0.5L0.173,-0.434L0.177,-0.434C0.188,-0.459 0.204,-0.478 0.223,-0.491C0.242,-0.504 0.265,-0.511 0.291,-0.511C0.308,-0.511 0.328,-0.507 0.35,-0.5L0.333,-0.378Z" style="fill-rule:nonzero;"/>
        </g>
        <g transform="matrix(28.2329,0,0,28.2329,4850.97,6331.9)">
            <path d="M0.553,-0.195L0.443,-0.195L0.443,-0L0.322,-0L0.322,-0.195L0.019,-0.195L0.019,-0.269L0.336,-0.705L0.443,-0.705L0.443,-0.299L0.553,-0.299L0.553,-0.195ZM0.322,-0.452L0.331,-0.536L0.327,-0.536L0.293,-0.464L0.189,-0.329L0.139,-0.291L0.203,-0.299L0.322,-0.299L0.322,-0.452Z" style="fill-rule:nonzero;"/>
        </g>
        <g transform="matrix(28.2329,0,0,28.2329,4866.98,6331.9)">
            <path d="M0.475,-0.529C0.475,-0.495 0.469,-0.461 0.457,-0.426C0.444,-0.391 0.429,-0.357 0.41,-0.324C0.391,-0.291 0.37,-0.259 0.347,-0.228C0.324,-0.197 0.301,-0.168 0.279,-0.142L0.226,-0.101L0.226,-0.096L0.298,-0.11L0.49,-0.11L0.49,-0L0.069,-0L0.069,-0.067C0.085,-0.084 0.103,-0.103 0.123,-0.126C0.143,-0.148 0.163,-0.171 0.184,-0.197C0.204,-0.222 0.224,-0.247 0.243,-0.274C0.262,-0.301 0.28,-0.327 0.295,-0.355C0.31,-0.382 0.323,-0.408 0.332,-0.433C0.341,-0.458 0.345,-0.482 0.345,-0.505C0.345,-0.532 0.337,-0.555 0.322,-0.573C0.306,-0.59 0.281,-0.599 0.247,-0.599C0.226,-0.599 0.204,-0.595 0.182,-0.586C0.159,-0.577 0.14,-0.565 0.125,-0.551L0.073,-0.643C0.099,-0.664 0.129,-0.682 0.162,-0.695C0.195,-0.708 0.233,-0.714 0.278,-0.714C0.307,-0.714 0.333,-0.71 0.357,-0.702C0.381,-0.694 0.402,-0.682 0.419,-0.667C0.436,-0.652 0.45,-0.632 0.46,-0.61C0.47,-0.587 0.475,-0.56 0.475,-0.529Z" style="fill-rule:nonzero;"/>
        </g>
    </g>
    <g transform="matrix(0.825986,0,0,0.825986,-3672.69,-4651.19)">
        <g transform="matrix(48.427,0,0,48.427,4816.62,6315.78)">
            <path d="M0.401,-0.5L0.516,-0.208L0.541,-0.112L0.543,-0.112L0.562,-0.21L0.651,-0.5L0.727,-0.5L0.559,0.011L0.52,0.011L0.389,-0.319L0.37,-0.401L0.367,-0.401L0.347,-0.318L0.221,0.011L0.182,0.011L0.008,-0.5L0.095,-0.5L0.194,-0.209L0.211,-0.112L0.212,-0.112L0.236,-0.211L0.343,-0.5L0.401,-0.5Z" style="fill:rgb(255,0,0);fill-rule:nonzero;"/>
        </g>
        <g transform="matrix(28.2329,0,0,28.2329,4852.21,6331.9)">
            <path d="M0.446,-0.541C0.446,-0.506 0.44,-0.47 0.427,-0.433C0.413,-0.396 0.397,-0.358 0.376,-0.321C0.355,-0.284 0.331,-0.247 0.305,-0.212C0.279,-0.176 0.253,-0.142 0.227,-0.11L0.178,-0.067L0.178,-0.063L0.242,-0.074L0.46,-0.074L0.46,-0L0.062,-0L0.062,-0.029C0.077,-0.044 0.094,-0.063 0.115,-0.086C0.136,-0.109 0.157,-0.134 0.18,-0.162C0.202,-0.189 0.224,-0.219 0.246,-0.25C0.267,-0.28 0.287,-0.312 0.305,-0.344C0.322,-0.376 0.336,-0.408 0.347,-0.439C0.358,-0.47 0.363,-0.5 0.363,-0.528C0.363,-0.561 0.354,-0.588 0.335,-0.61C0.316,-0.631 0.288,-0.642 0.25,-0.642C0.225,-0.642 0.2,-0.637 0.176,-0.627C0.152,-0.616 0.131,-0.604 0.114,-0.591L0.081,-0.648C0.104,-0.668 0.132,-0.684 0.164,-0.695C0.196,-0.706 0.23,-0.712 0.267,-0.712C0.296,-0.712 0.321,-0.708 0.343,-0.7C0.365,-0.691 0.384,-0.679 0.399,-0.664C0.414,-0.649 0.426,-0.631 0.434,-0.61C0.442,-0.588 0.446,-0.566 0.446,-0.541Z" style="fill:rgb(255,0,0);fill-rule:nonzero;"/>
        </g>
        <g transform="matrix(28.2329,0,0,28.2329,4867.6,6331.9)">
            <path d="M0.108,-0.074L0.248,-0.074L0.248,-0.558L0.258,-0.617L0.218,-0.57L0.108,-0.491L0.07,-0.542L0.29,-0.712L0.326,-0.712L0.326,-0.074L0.463,-0.074L0.463,-0L0.108,-0L0.108,-0.074Z" style="fill:rgb(255,0,0);fill-rule:nonzero;"/>
        </g>
    </g>
    <g transform="matrix(0.825986,0,0,0.825986,-3585.72,-4693.52)">
        <g transform="matrix(48.427,0,0,48.427,4833.97,6315.78)">
            <path d="M0.333,-0.378C0.312,-0.385 0.294,-0.389 0.277,-0.389C0.254,-0.389 0.234,-0.383 0.219,-0.371C0.203,-0.358 0.192,-0.342 0.187,-0.323L0.187,-0L0.057,-0L0.057,-0.5L0.158,-0.5L0.173,-0.434L0.177,-0.434C0.188,-0.459 0.204,-0.478 0.223,-0.491C0.242,-0.504 0.265,-0.511 0.291,-0.511C0.308,-0.511 0.328,-0.507 0.35,-0.5L0.333,-0.378Z" style="fill-rule:nonzero;"/>
        </g>
        <g transform="matrix(28.2329,0,0,28.2329,4850.97,6331.9)">
            <path d="M0.553,-0.195L0.443,-0.195L0.443,-0L0.322,-0L0.322,-0.195L0.019,-0.195L0.019,-0.269L0.336,-0.705L0.443,-0.705L0.443,-0.299L0.553,-0.299L0.553,-0.195ZM0.322,-0.452L0.331,-0.536L0.327,-0.536L0.293,-0.464L0.189,-0.329L0.139,-0.291L0.203,-0.299L0.322,-0.299L0.322,-0.452Z" style="fill-rule:nonzero;"/>
        </g>
        <g transform="matrix(28.2329,0,0,28.2329,4866.98,6331.9)">
            <path d="M0.241,-0.096C0.282,-0.096 0.314,-0.107 0.336,-0.129C0.357,-0.151 0.368,-0.178 0.368,-0.209C0.368,-0.247 0.357,-0.275 0.334,-0.293C0.311,-0.311 0.276,-0.32 0.227,-0.32L0.155,-0.32L0.155,-0.389L0.276,-0.554L0.333,-0.599L0.254,-0.59L0.086,-0.59L0.086,-0.7L0.468,-0.7L0.468,-0.629L0.327,-0.44L0.283,-0.413L0.283,-0.408L0.325,-0.414C0.348,-0.412 0.371,-0.407 0.392,-0.398C0.413,-0.389 0.431,-0.377 0.447,-0.361C0.462,-0.344 0.475,-0.324 0.484,-0.3C0.493,-0.276 0.498,-0.248 0.498,-0.217C0.498,-0.178 0.492,-0.144 0.479,-0.115C0.466,-0.086 0.448,-0.062 0.425,-0.043C0.401,-0.024 0.375,-0.009 0.344,-0C0.313,0.009 0.28,0.014 0.245,0.014C0.216,0.014 0.185,0.011 0.154,0.006C0.123,0.001 0.097,-0.007 0.078,-0.017L0.113,-0.125C0.13,-0.116 0.15,-0.109 0.171,-0.104C0.192,-0.099 0.215,-0.096 0.241,-0.096Z" style="fill-rule:nonzero;"/>
        </g>
    </g>
    <g transform="matrix(0.825986,0,0,0.825986,-3573.72,-4651.35)">
        <g transform="matrix(48.427,0,0,48.427,4816.62,6315.78)">
            <path d="M0.401,-0.5L0.516,-0.208L0.541,-0.112L0.543,-0.112L0.562,-0.21L0.651,-0.5L0.727,-0.5L0.559,0.011L0.52,0.011L0.389,-0.319L0.37,-0.401L0.367,-0.401L0.347,-0.318L0.221,0.011L0.182,0.011L0.008,-0.5L0.095,-0.5L0.194,-0.209L0.211,-0.112L0.212,-0.112L0.236,-0.211L0.343,-0.5L0.401,-0.5Z" style="fill:rgb(255,0,0);fill-rule:nonzero;"/>
        </g>
        <g transform="matrix(28.2329,0,0,28.2329,4852.21,6331.9)">
            <path d="M0.446,-0.541C0.446,-0.506 0.44,-0.47 0.427,-0.433C0.413,-0.396 0.397,-0.358 0.376,-0.321C0.355,-0.284 0.331,-0.247 0.305,-0.212C0.279,-0.176 0.253,-0.142 0.227,-0.11L0.178,-0.067L0.178,-0.063L0.242,-0.074L0.46,-0.074L0.46,-0L0.062,-0L0.062,-0.029C0.077,-0.044 0.094,-0.063 0.115,-0.086C0.136,-0.109 0.157,-0.134 0.18,-0.162C0.202,-0.189 0.224,-0.219 0.246,-0.25C0.267,-0.28 0.287,-0.312 0.305,-0.344C0.322,-0.376 0.336,-0.408 0.347,-0.439C0.358,-0.47 0.363,-0.5 0.363,-0.528C0.363,-0.561 0.354,-0.588 0.335,-0.61C0.316,-0.631 0.288,-0.642 0.25,-0.642C0.225,-0.642 0.2,-0.637 0.176,-0.627C0.152,-0.616 0.131,-0.604 0.114,-0.591L0.081,-0.648C0.104,-0.668 0.132,-0.684 0.164,-0.695C0.196,-0.706 0.23,-0.712 0.267,-0.712C0.296,-0.712 0.321,-0.708 0.343,-0.7C0.365,-0.691 0.384,-0.679 0.399,-0.664C0.414,-0.649 0.426,-0.631 0.434,-0.61C0.442,-0.588 0.446,-0.566 0.446,-0.541Z" style="fill:rgb(255,0,0);fill-rule:nonzero;"/>
        </g>
        <g transform="matrix(28.2329,0,0,28.2329,4867.6,6331.9)">
            <path d="M0.446,-0.541C0.446,-0.506 0.44,-0.47 0.427,-0.433C0.413,-0.396 0.397,-0.358 0.376,-0.321C0.355,-0.284 0.331,-0.247 0.305,-0.212C0.279,-0.176 0.253,-0.142 0.227,-0.11L0.178,-0.067L0.178,-0.063L0.242,-0.074L0.46,-0.074L0.46,-0L0.062,-0L0.062,-0.029C0.077,-0.044 0.094,-0.063 0.115,-0.086C0.136,-0.109 0.157,-0.134 0.18,-0.162C0.202,-0.189 0.224,-0.219 0.246,-0.25C0.267,-0.28 0.287,-0.312 0.305,-0.344C0.322,-0.376 0.336,-0.408 0.347,-0.439C0.358,-0.47 0.363,-0.5 0.363,-0.528C0.363,-0.561 0.354,-0.588 0.335,-0.61C0.316,-0.631 0.288,-0.642 0.25,-0.642C0.225,-0.642 0.2,-0.637 0.176,-0.627C0.152,-0.616 0.131,-0.604 0.114,-0.591L0.081,-0.648C0.104,-0.668 0.132,-0.684 0.164,-0.695C0.196,-0.706 0.23,-0.712 0.267,-0.712C0.296,-0.712 0.321,-0.708 0.343,-0.7C0.365,-0.691 0.384,-0.679 0.399,-0.664C0.414,-0.649 0.426,-0.631 0.434,-0.61C0.442,-0.588 0.446,-0.566 0.446,-0.541Z" style="fill:rgb(255,0,0);fill-rule:nonzero;"/>
        </g>
    </g>
    <path d="M59,623.501L50,641.501L41,623.501L59,623.501Z"/>
    <path d="M50,153L50,627.101" style="fill:none;stroke:black;stroke-width:2px;stroke-linecap:butt;stroke-miterlimit:10;"/>
    <path d="M603.269,56L621.269,65L603.269,74L603.269,56Z"/>
    <path d="M134,65L606.869,65" style="fill:none;stroke:black;stroke-width:2px;stroke-linecap:butt;stroke-miterlimit:10;"/>
</svg>
