<?xml version="1.0" encoding="UTF-8" standalone="no"?>
<!DOCTYPE svg PUBLIC "-//W3C//DTD SVG 1.1//EN" "http://www.w3.org/Graphics/SVG/1.1/DTD/svg11.dtd">
<svg width="100%" height="100%" viewBox="0 0 724 771" version="1.1" xmlns="http://www.w3.org/2000/svg" xmlns:xlink="http://www.w3.org/1999/xlink" xml:space="preserve" xmlns:serif="http://www.serif.com/" style="fill-rule:evenodd;clip-rule:evenodd;stroke-miterlimit:10;">
    <rect id="Geometric-Operations-1" serif:id="Geometric Operations 1" x="-2223" y="-2034" width="6739" height="2861" style="fill:none;"/>
    <g id="Geometric-Operations-11" serif:id="Geometric Operations 1">
        <path d="M218.966,14.989L231.204,4.337L236.33,19.731L218.966,14.989Z" style="fill:none;stroke:rgb(247,0,255);stroke-width:2px;"/>
        <path d="M103.847,470.748C103.847,470.748 205.932,96.89 227.648,17.36" style="fill:none;stroke:rgb(247,0,255);stroke-width:2px;stroke-linecap:square;stroke-linejoin:round;stroke-dasharray:2,6,0,0;"/>
        <path d="M242.898,174.3L250.411,198.308L226.697,189.914L242.898,174.3Z" style="fill:rgb(247,0,255);"/>
        <path d="M189.05,158.717C207.447,163.736 224.107,172.983 237.92,185.347" style="fill:none;stroke:rgb(247,0,255);stroke-width:5px;stroke-linecap:square;stroke-linejoin:round;"/>
        <path d="M103.847,470.748L157.104,275.709" style="fill:none;stroke:rgb(21,183,183);stroke-width:5px;stroke-linecap:square;stroke-linejoin:round;"/>
        <path d="M157.104,275.709L309.338,149.426" style="fill:none;stroke:rgb(21,183,183);stroke-width:5px;stroke-linecap:square;stroke-linejoin:round;"/>
        <circle cx="309.338" cy="149.426" r="15" style="fill:rgb(21,183,183);"/>
        <circle cx="430.641" cy="651.627" r="9.784"/>
        <circle cx="157.104" cy="275.709" r="15" style="fill:rgb(21,183,183);"/>
        <circle cx="477.255" cy="344.509" r="9.784"/>
        <circle cx="300.612" cy="510.023" r="9.784"/>
        <circle cx="103.847" cy="470.748" r="15" style="fill:rgb(21,183,183);"/>
        <circle cx="234.285" cy="385.147" r="9.784"/>
        <circle cx="558.948" cy="115.335" r="9.784"/>
        <circle cx="619.204" cy="371.317" r="9.784"/>
        <g transform="matrix(1,0,0,1,-340.441,-1518.46)">
            <g transform="matrix(60,0,0,60,368.503,1953.88)">
                <path d="M0.48,0.2L0.35,0.2L0.35,-0.043L0.346,-0.043C0.335,-0.026 0.319,-0.012 0.3,-0.002C0.281,0.009 0.256,0.014 0.225,0.014C0.163,0.014 0.116,-0.007 0.083,-0.049C0.05,-0.091 0.033,-0.155 0.033,-0.24C0.033,-0.329 0.056,-0.397 0.101,-0.443C0.146,-0.489 0.21,-0.512 0.294,-0.512C0.312,-0.512 0.33,-0.511 0.348,-0.51C0.366,-0.508 0.383,-0.506 0.4,-0.503C0.416,-0.5 0.431,-0.496 0.445,-0.493C0.459,-0.489 0.471,-0.485 0.48,-0.482L0.48,0.2ZM0.26,-0.096C0.285,-0.096 0.305,-0.102 0.319,-0.113C0.332,-0.124 0.343,-0.141 0.35,-0.164L0.35,-0.389C0.34,-0.394 0.329,-0.398 0.316,-0.4C0.303,-0.401 0.289,-0.402 0.273,-0.402C0.238,-0.402 0.211,-0.389 0.194,-0.362C0.176,-0.335 0.167,-0.296 0.167,-0.245C0.167,-0.196 0.175,-0.159 0.191,-0.134C0.207,-0.109 0.23,-0.096 0.26,-0.096Z" style="fill:rgb(21,183,183);fill-rule:nonzero;"/>
            </g>
            <g transform="matrix(34.98,0,0,34.98,400.663,1973.86)">
                <path d="M0.04,-0.351C0.04,-0.474 0.061,-0.565 0.103,-0.625C0.145,-0.684 0.205,-0.714 0.284,-0.714C0.368,-0.714 0.43,-0.685 0.469,-0.626C0.508,-0.567 0.528,-0.475 0.528,-0.351C0.528,-0.228 0.507,-0.136 0.465,-0.076C0.422,-0.016 0.362,0.014 0.283,0.014C0.2,0.014 0.138,-0.018 0.099,-0.081C0.06,-0.144 0.04,-0.234 0.04,-0.351ZM0.17,-0.351C0.17,-0.27 0.179,-0.207 0.197,-0.163C0.214,-0.118 0.243,-0.096 0.284,-0.096C0.323,-0.096 0.352,-0.116 0.371,-0.157C0.389,-0.198 0.398,-0.262 0.398,-0.351C0.398,-0.432 0.389,-0.494 0.372,-0.538C0.355,-0.582 0.325,-0.604 0.283,-0.604C0.243,-0.604 0.214,-0.583 0.197,-0.542C0.179,-0.501 0.17,-0.437 0.17,-0.351Z" style="fill:rgb(21,183,183);fill-rule:nonzero;"/>
            </g>
        </g>
        <g transform="matrix(1,0,0,1,-262.035,-1734.27)">
            <g transform="matrix(60,0,0,60,368.503,1953.88)">
                <path d="M0.48,0.2L0.35,0.2L0.35,-0.043L0.346,-0.043C0.335,-0.026 0.319,-0.012 0.3,-0.002C0.281,0.009 0.256,0.014 0.225,0.014C0.163,0.014 0.116,-0.007 0.083,-0.049C0.05,-0.091 0.033,-0.155 0.033,-0.24C0.033,-0.329 0.056,-0.397 0.101,-0.443C0.146,-0.489 0.21,-0.512 0.294,-0.512C0.312,-0.512 0.33,-0.511 0.348,-0.51C0.366,-0.508 0.383,-0.506 0.4,-0.503C0.416,-0.5 0.431,-0.496 0.445,-0.493C0.459,-0.489 0.471,-0.485 0.48,-0.482L0.48,0.2ZM0.26,-0.096C0.285,-0.096 0.305,-0.102 0.319,-0.113C0.332,-0.124 0.343,-0.141 0.35,-0.164L0.35,-0.389C0.34,-0.394 0.329,-0.398 0.316,-0.4C0.303,-0.401 0.289,-0.402 0.273,-0.402C0.238,-0.402 0.211,-0.389 0.194,-0.362C0.176,-0.335 0.167,-0.296 0.167,-0.245C0.167,-0.196 0.175,-0.159 0.191,-0.134C0.207,-0.109 0.23,-0.096 0.26,-0.096Z" style="fill:rgb(21,183,183);fill-rule:nonzero;"/>
            </g>
            <g transform="matrix(34.98,0,0,34.98,400.663,1973.86)">
                <path d="M0.101,-0.11L0.24,-0.11L0.24,-0.505L0.255,-0.573L0.207,-0.514L0.118,-0.453L0.063,-0.528L0.291,-0.712L0.364,-0.712L0.364,-0.11L0.5,-0.11L0.5,-0L0.101,-0L0.101,-0.11Z" style="fill:rgb(21,183,183);fill-rule:nonzero;"/>
            </g>
        </g>
        <g transform="matrix(1,0,0,1,-109.645,-1849.85)">
            <g transform="matrix(60,0,0,60,368.503,1953.88)">
                <path d="M0.48,0.2L0.35,0.2L0.35,-0.043L0.346,-0.043C0.335,-0.026 0.319,-0.012 0.3,-0.002C0.281,0.009 0.256,0.014 0.225,0.014C0.163,0.014 0.116,-0.007 0.083,-0.049C0.05,-0.091 0.033,-0.155 0.033,-0.24C0.033,-0.329 0.056,-0.397 0.101,-0.443C0.146,-0.489 0.21,-0.512 0.294,-0.512C0.312,-0.512 0.33,-0.511 0.348,-0.51C0.366,-0.508 0.383,-0.506 0.4,-0.503C0.416,-0.5 0.431,-0.496 0.445,-0.493C0.459,-0.489 0.471,-0.485 0.48,-0.482L0.48,0.2ZM0.26,-0.096C0.285,-0.096 0.305,-0.102 0.319,-0.113C0.332,-0.124 0.343,-0.141 0.35,-0.164L0.35,-0.389C0.34,-0.394 0.329,-0.398 0.316,-0.4C0.303,-0.401 0.289,-0.402 0.273,-0.402C0.238,-0.402 0.211,-0.389 0.194,-0.362C0.176,-0.335 0.167,-0.296 0.167,-0.245C0.167,-0.196 0.175,-0.159 0.191,-0.134C0.207,-0.109 0.23,-0.096 0.26,-0.096Z" style="fill:rgb(21,183,183);fill-rule:nonzero;"/>
            </g>
            <g transform="matrix(34.98,0,0,34.98,400.663,1973.86)">
                <path d="M0.475,-0.529C0.475,-0.495 0.469,-0.461 0.457,-0.426C0.444,-0.391 0.429,-0.357 0.41,-0.324C0.391,-0.291 0.37,-0.259 0.347,-0.228C0.324,-0.197 0.301,-0.168 0.279,-0.142L0.226,-0.101L0.226,-0.096L0.298,-0.11L0.49,-0.11L0.49,-0L0.069,-0L0.069,-0.067C0.085,-0.084 0.103,-0.103 0.123,-0.126C0.143,-0.148 0.163,-0.171 0.184,-0.197C0.204,-0.222 0.224,-0.247 0.243,-0.274C0.262,-0.301 0.28,-0.327 0.295,-0.355C0.31,-0.382 0.323,-0.408 0.332,-0.433C0.341,-0.458 0.345,-0.482 0.345,-0.505C0.345,-0.532 0.337,-0.555 0.322,-0.573C0.306,-0.59 0.281,-0.599 0.247,-0.599C0.226,-0.599 0.204,-0.595 0.182,-0.586C0.159,-0.577 0.14,-0.565 0.125,-0.551L0.073,-0.643C0.099,-0.664 0.129,-0.682 0.162,-0.695C0.195,-0.708 0.233,-0.714 0.278,-0.714C0.307,-0.714 0.333,-0.71 0.357,-0.702C0.381,-0.694 0.402,-0.682 0.419,-0.667C0.436,-0.652 0.45,-0.632 0.46,-0.61C0.47,-0.587 0.475,-0.56 0.475,-0.529Z" style="fill:rgb(21,183,183);fill-rule:nonzero;"/>
            </g>
        </g>
    </g>
</svg>
