<?xml version="1.0" encoding="UTF-8" standalone="no"?>
<!DOCTYPE svg PUBLIC "-//W3C//DTD SVG 1.1//EN" "http://www.w3.org/Graphics/SVG/1.1/DTD/svg11.dtd">
<svg width="100%" height="100%" viewBox="0 0 563 356" version="1.1" xmlns="http://www.w3.org/2000/svg" xmlns:xlink="http://www.w3.org/1999/xlink" xml:space="preserve" xmlns:serif="http://www.serif.com/" style="fill-rule:evenodd;clip-rule:evenodd;stroke-linecap:round;stroke-linejoin:round;stroke-miterlimit:10;">
    <g transform="matrix(1,0,0,1,-84,-2079)">
        <g id="Topological-details" serif:id="Topological details" transform="matrix(1,0,0,1,1029,0)">
            <rect x="-1029" y="1982" width="960" height="544" style="fill:none;"/>
            <g id="Polygons_colored">
                <g transform="matrix(1,0,0,1,-1029,0)">
                    <path d="M352.53,2355.68L400.802,2353.15L393.707,2320.91L368.37,2279.16L390.343,2167.28L345.369,2117.69L321.112,2263.24L352.53,2355.68Z" style="fill:rgb(84,84,84);stroke:black;stroke-width:5px;"/>
                </g>
                <g transform="matrix(1,0,0,1,-1029,0)">
                    <path d="M480,2122.24L552.724,2141.32L591.705,2133.29L559.646,2094.24L442.632,2086.16L345.369,2117.69L390.343,2167.28L480,2122.24Z" style="fill:rgb(94,94,94);stroke:black;stroke-width:5px;"/>
                </g>
                <g transform="matrix(1,0,0,1,-1029,0)">
                    <path d="M352.499,2355.59L400.802,2353.15L429.339,2388.49L484.462,2370.82L521.588,2390.94L554.795,2416.87L426.229,2428.19L363.158,2386.95L352.499,2355.59Z" style="fill:rgb(111,111,111);stroke:black;stroke-width:5px;"/>
                </g>
                <g transform="matrix(1,0,0,1,-1029,0)">
                    <path d="M530.016,2135.09L552.676,2141.31L591.705,2133.29L622.716,2171.06L631.155,2219.15L587.027,2216.14L513.415,2198.15L530.016,2135.09Z" style="fill:rgb(189,189,189);stroke:black;stroke-width:5px;"/>
                </g>
                <g transform="matrix(1,0,0,1,-1029,0)">
                    <path d="M484.462,2370.82L494.115,2339.73L447.527,2307.67L462.465,2208.13L513.415,2198.15L530.016,2135.09L480,2122.24L390.343,2167.28L368.37,2279.16L393.707,2320.91L400.802,2353.15L429.339,2388.49L484.462,2370.82Z" style="fill:rgb(132,132,132);stroke:black;stroke-width:5px;"/>
                </g>
                <g transform="matrix(1,0,0,1,-1029,0)">
                    <path d="M611.334,2217.8L631.155,2219.15L638.888,2263.24L614.631,2379.67L554.795,2416.87L521.588,2390.94L484.462,2371.39L494.115,2339.73L561.854,2336.73L595.23,2288.29L611.334,2217.8Z" style="fill:rgb(217,217,217);stroke:black;stroke-width:5px;"/>
                </g>
                <g transform="matrix(1,0,0,1,-1029,0)">
                    <path d="M462.465,2208.13L513.415,2198.15L587.027,2216.14L611.334,2217.8L595.23,2288.29L561.675,2336.74L494.115,2339.73L447.551,2307.51L462.465,2208.13Z" style="fill:rgb(231,231,231);stroke:black;stroke-width:5px;"/>
                </g>
            </g>
            <g id="Outline" transform="matrix(1,0,0,1,-1173.84,-58.6075)">
                <path d="M704.486,2152.85L767.557,2229.66L783.728,2321.84L759.471,2438.28L699.635,2475.48L571.069,2486.8L507.999,2445.56L465.952,2321.84L490.21,2176.3L587.241,2144.76L704.486,2152.85Z" style="fill:none;stroke:black;stroke-width:8px;"/>
            </g>
            <g id="Dots">
                <g transform="matrix(3.59201e-32,3.97252,-3.97252,3.59201e-32,1484.29,823.397)">
                    <circle cx="346.167" cy="503.486" r="2.835"/>
                </g>
                <g transform="matrix(3.59201e-32,3.97252,-3.97252,3.59201e-32,1580.84,842.044)">
                    <circle cx="346.167" cy="503.486" r="2.835"/>
                </g>
                <g transform="matrix(3.59201e-32,3.97252,-3.97252,3.59201e-32,1464.75,960.734)">
                    <circle cx="346.167" cy="503.486" r="2.835"/>
                </g>
                <g transform="matrix(3.59201e-32,3.97252,-3.97252,3.59201e-32,1455.22,995.085)">
                    <circle cx="346.167" cy="503.486" r="2.835"/>
                </g>
                <g transform="matrix(3.59201e-32,3.97252,-3.97252,3.59201e-32,1370.24,976.535)">
                    <circle cx="346.167" cy="503.486" r="2.835"/>
                </g>
                <g transform="matrix(3.59201e-32,3.97252,-3.97252,3.59201e-32,1361.69,793.336)">
                    <circle cx="346.167" cy="503.486" r="2.835"/>
                </g>
                <g transform="matrix(3.59201e-32,3.97252,-3.97252,3.59201e-32,1500.39,761.37)">
                    <circle cx="346.167" cy="503.486" r="2.835"/>
                </g>
                <g transform="matrix(3.59201e-32,3.97252,-3.97252,3.59201e-32,1562.68,755.712)">
                    <circle cx="346.167" cy="503.486" r="2.835"/>
                </g>
                <g transform="matrix(3.59201e-32,3.97252,-3.97252,3.59201e-32,1318.36,741.599)">
                    <circle cx="346.167" cy="503.486" r="2.835"/>
                </g>
                <g transform="matrix(3.59201e-32,3.97252,-3.97252,3.59201e-32,1323.55,980.571)">
                    <circle cx="346.167" cy="503.486" r="2.835"/>
                </g>
                <g transform="matrix(3.59201e-32,3.97252,-3.97252,3.59201e-32,1525.06,1040.78)">
                    <circle cx="346.167" cy="503.486" r="2.835"/>
                </g>
                <g transform="matrix(3.59201e-32,3.97252,-3.97252,3.59201e-32,1601.9,843.068)">
                    <circle cx="346.167" cy="503.486" r="2.835"/>
                </g>
            </g>
        </g>
        <g transform="matrix(1,0,0,1,-173.436,1989.52)">
            <g transform="matrix(48,0,0,48,435.779,290.48)">
                <path d="M0.409,-0.755C0.444,-0.755 0.475,-0.752 0.503,-0.746C0.53,-0.741 0.555,-0.733 0.577,-0.723L0.54,-0.635C0.522,-0.642 0.503,-0.647 0.484,-0.65C0.465,-0.654 0.445,-0.655 0.426,-0.655C0.393,-0.655 0.369,-0.649 0.353,-0.637C0.338,-0.624 0.33,-0.604 0.33,-0.577L0.33,-0.493L0.505,-0.493L0.491,-0.399L0.33,-0.399L0.33,-0L0.199,-0L0.199,-0.399L0.083,-0.399L0.083,-0.493L0.199,-0.493L0.199,-0.58C0.199,-0.614 0.207,-0.644 0.224,-0.671C0.241,-0.697 0.265,-0.718 0.296,-0.733C0.328,-0.748 0.365,-0.755 0.409,-0.755Z" style="fill:rgb(255,0,0);fill-rule:nonzero;"/>
            </g>
            <g transform="matrix(48,0,0,48,464.579,290.48)">
                <path d="M0.244,-0.35C0.244,-0.305 0.247,-0.264 0.255,-0.227C0.262,-0.19 0.273,-0.155 0.289,-0.121C0.305,-0.088 0.325,-0.055 0.35,-0.022C0.376,0.01 0.406,0.045 0.442,0.081L0.367,0.151C0.314,0.106 0.268,0.059 0.229,0.011C0.191,-0.038 0.161,-0.092 0.14,-0.151C0.119,-0.21 0.109,-0.276 0.109,-0.35C0.109,-0.424 0.119,-0.49 0.14,-0.549C0.161,-0.608 0.191,-0.662 0.229,-0.711C0.268,-0.76 0.314,-0.807 0.367,-0.851L0.442,-0.781C0.408,-0.746 0.378,-0.713 0.353,-0.68C0.328,-0.647 0.307,-0.614 0.291,-0.581C0.275,-0.547 0.263,-0.512 0.255,-0.474C0.248,-0.437 0.244,-0.395 0.244,-0.35Z" style="fill:rgb(255,0,0);fill-rule:nonzero;"/>
            </g>
            <g transform="matrix(48,0,0,48,493.379,290.48)">
                <path d="M0.178,-0L0.034,-0L0.22,-0.279L0.053,-0.529L0.203,-0.529L0.301,-0.35L0.398,-0.529L0.54,-0.529L0.379,-0.284L0.566,-0L0.414,-0L0.295,-0.208L0.178,-0Z" style="fill:rgb(255,0,0);fill-rule:nonzero;"/>
            </g>
            <g transform="matrix(48,0,0,48,522.179,290.48)">
                <path d="M0.3,-0.191C0.328,-0.191 0.352,-0.182 0.371,-0.163C0.39,-0.144 0.399,-0.121 0.399,-0.093C0.399,-0.076 0.396,-0.059 0.391,-0.042C0.385,-0.025 0.376,-0.003 0.364,0.024L0.289,0.195L0.194,0.195L0.244,-0.012C0.231,-0.021 0.22,-0.033 0.213,-0.047C0.206,-0.061 0.202,-0.077 0.202,-0.094C0.202,-0.121 0.211,-0.144 0.23,-0.163C0.249,-0.182 0.272,-0.191 0.3,-0.191Z" style="fill:rgb(255,0,0);fill-rule:nonzero;"/>
            </g>
            <g transform="matrix(48,0,0,48,550.979,290.48)">
                <path d="M0.56,-0.529L0.38,0.001C0.366,0.044 0.347,0.081 0.324,0.112C0.3,0.143 0.271,0.168 0.235,0.186C0.2,0.204 0.156,0.215 0.105,0.219L0.089,0.123C0.124,0.118 0.153,0.11 0.174,0.1C0.195,0.091 0.212,0.077 0.225,0.061C0.238,0.045 0.249,0.024 0.259,-0L0.214,-0L0.04,-0.529L0.18,-0.529L0.3,-0.088L0.425,-0.529L0.56,-0.529Z" style="fill:rgb(255,0,0);fill-rule:nonzero;"/>
            </g>
            <g transform="matrix(48,0,0,48,579.779,290.48)">
                <path d="M0.356,-0.35C0.356,-0.395 0.352,-0.437 0.345,-0.474C0.337,-0.512 0.325,-0.547 0.309,-0.581C0.293,-0.614 0.272,-0.647 0.247,-0.68C0.222,-0.713 0.192,-0.746 0.158,-0.781L0.233,-0.851C0.286,-0.807 0.332,-0.76 0.371,-0.711C0.409,-0.662 0.439,-0.608 0.46,-0.549C0.481,-0.49 0.491,-0.424 0.491,-0.35C0.491,-0.276 0.481,-0.21 0.46,-0.151C0.439,-0.092 0.409,-0.038 0.371,0.011C0.332,0.059 0.286,0.106 0.233,0.151L0.158,0.081C0.194,0.045 0.224,0.01 0.25,-0.022C0.275,-0.055 0.295,-0.088 0.311,-0.121C0.327,-0.155 0.338,-0.19 0.345,-0.227C0.353,-0.264 0.356,-0.305 0.356,-0.35Z" style="fill:rgb(255,0,0);fill-rule:nonzero;"/>
            </g>
        </g>
        <g transform="matrix(0.41897,0,0,0.41897,335.229,2142.58)">
            <circle cx="207.5" cy="164.5" r="18.5" style="fill:rgb(255,0,0);stroke:rgb(255,0,0);stroke-width:19.89px;stroke-miterlimit:1.5;"/>
        </g>
    </g>
</svg>
