<?xml version="1.0" encoding="UTF-8" standalone="no"?>
<!DOCTYPE svg PUBLIC "-//W3C//DTD SVG 1.1//EN" "http://www.w3.org/Graphics/SVG/1.1/DTD/svg11.dtd">
<svg width="100%" height="100%" viewBox="0 0 563 356" version="1.1" xmlns="http://www.w3.org/2000/svg" xmlns:xlink="http://www.w3.org/1999/xlink" xml:space="preserve" xmlns:serif="http://www.serif.com/" style="fill-rule:evenodd;clip-rule:evenodd;stroke-linecap:round;stroke-linejoin:round;stroke-miterlimit:10;">
    <g transform="matrix(1,0,0,1,-84,-2079)">
        <g id="Topological-details" serif:id="Topological details" transform="matrix(1,0,0,1,1029,0)">
            <rect x="-1029" y="1982" width="960" height="544" style="fill:none;"/>
            <g transform="matrix(1,0,0,1,-1029,0)">
                <path d="M484.462,2370.82L494.115,2339.73L447.527,2307.67L462.465,2208.13L513.415,2198.15L530.016,2135.09L480,2122.24L390.343,2167.28L368.37,2279.16L393.707,2320.91L400.802,2353.15L429.339,2388.49L484.462,2370.82Z" style="fill:rgb(205,255,254);stroke:rgb(0,255,251);stroke-width:11px;"/>
            </g>
            <g transform="matrix(1,0,0,1,-1029,0)">
                <path d="M390.584,2168.49L368.37,2279.16L392.741,2319.32L399.134,2351.69" style="fill:none;stroke:rgb(255,7,189);stroke-width:11px;"/>
            </g>
            <g id="Polygons">
                <g transform="matrix(1,0,0,1,-1029,0)">
                    <path d="M352.53,2355.68L400.802,2353.15L393.707,2320.91L368.37,2279.16L390.343,2167.28L345.369,2117.69L321.112,2263.24L352.53,2355.68Z" style="fill:none;stroke:black;stroke-width:5px;"/>
                </g>
                <g transform="matrix(1,0,0,1,-1029,0)">
                    <path d="M480,2122.24L552.724,2141.32L591.705,2133.29L559.646,2094.24L442.632,2086.16L345.369,2117.69L390.343,2167.28L480,2122.24Z" style="fill:none;stroke:black;stroke-width:5px;"/>
                </g>
                <g transform="matrix(1,0,0,1,-1029,0)">
                    <path d="M352.499,2355.59L400.802,2353.15L429.339,2388.49L484.462,2370.82L521.588,2390.94L554.795,2416.87L426.229,2428.19L363.158,2386.95L352.499,2355.59Z" style="fill:none;stroke:black;stroke-width:5px;"/>
                </g>
                <g transform="matrix(1,0,0,1,-1029,0)">
                    <path d="M530.016,2135.09L552.676,2141.31L591.705,2133.29L622.716,2171.06L631.155,2219.15L587.027,2216.14L513.415,2198.15L530.016,2135.09Z" style="fill:none;stroke:black;stroke-width:5px;"/>
                </g>
                <g transform="matrix(1,0,0,1,-1029,0)">
                    <path d="M484.462,2370.82L494.115,2339.73L447.527,2307.67L462.465,2208.13L513.415,2198.15L530.016,2135.09L480,2122.24L390.343,2167.28L368.37,2279.16L393.707,2320.91L400.802,2353.15L429.339,2388.49L484.462,2370.82Z" style="fill:none;stroke:black;stroke-width:5px;"/>
                </g>
                <g transform="matrix(1,0,0,1,-1029,0)">
                    <path d="M611.334,2217.8L631.155,2219.15L638.888,2263.24L614.631,2379.67L554.795,2416.87L521.588,2390.94L484.462,2371.39L494.115,2339.73L561.854,2336.73L595.23,2288.29L611.334,2217.8Z" style="fill:none;stroke:black;stroke-width:5px;"/>
                </g>
                <g transform="matrix(1,0,0,1,-1029,0)">
                    <path d="M462.465,2208.13L513.415,2198.15L587.027,2216.14L611.334,2217.8L595.23,2288.29L561.675,2336.74L494.115,2339.73L447.551,2307.51L462.465,2208.13Z" style="fill:none;stroke:black;stroke-width:5px;"/>
                </g>
            </g>
            <g id="Outline" transform="matrix(1,0,0,1,-1173.84,-58.6075)">
                <path d="M704.486,2152.85L767.557,2229.66L783.728,2321.84L759.471,2438.28L699.635,2475.48L571.069,2486.8L507.999,2445.56L465.952,2321.84L490.21,2176.3L587.241,2144.76L704.486,2152.85Z" style="fill:none;stroke:black;stroke-width:8px;"/>
            </g>
            <g id="Dots">
                <g transform="matrix(3.59201e-32,3.97252,-3.97252,3.59201e-32,1484.29,823.397)">
                    <circle cx="346.167" cy="503.486" r="2.835"/>
                </g>
                <g transform="matrix(3.59201e-32,3.97252,-3.97252,3.59201e-32,1580.84,842.044)">
                    <circle cx="346.167" cy="503.486" r="2.835"/>
                </g>
                <g transform="matrix(3.59201e-32,3.97252,-3.97252,3.59201e-32,1464.75,960.734)">
                    <circle cx="346.167" cy="503.486" r="2.835"/>
                </g>
                <g transform="matrix(3.59201e-32,3.97252,-3.97252,3.59201e-32,1455.22,995.085)">
                    <circle cx="346.167" cy="503.486" r="2.835"/>
                </g>
                <g transform="matrix(3.59201e-32,3.97252,-3.97252,3.59201e-32,1370.24,976.535)">
                    <circle cx="346.167" cy="503.486" r="2.835"/>
                </g>
                <g transform="matrix(3.59201e-32,3.97252,-3.97252,3.59201e-32,1361.69,793.336)">
                    <circle cx="346.167" cy="503.486" r="2.835"/>
                </g>
                <g transform="matrix(3.59201e-32,3.97252,-3.97252,3.59201e-32,1500.39,761.37)">
                    <circle cx="346.167" cy="503.486" r="2.835"/>
                </g>
                <g transform="matrix(3.59201e-32,3.97252,-3.97252,3.59201e-32,1562.68,755.712)">
                    <circle cx="346.167" cy="503.486" r="2.835"/>
                </g>
                <g transform="matrix(3.59201e-32,3.97252,-3.97252,3.59201e-32,1318.36,741.599)">
                    <circle cx="346.167" cy="503.486" r="2.835"/>
                </g>
                <g transform="matrix(3.59201e-32,3.97252,-3.97252,3.59201e-32,1323.55,980.571)">
                    <circle cx="346.167" cy="503.486" r="2.835"/>
                </g>
                <g transform="matrix(3.59201e-32,3.97252,-3.97252,3.59201e-32,1525.06,1040.78)">
                    <circle cx="346.167" cy="503.486" r="2.835"/>
                </g>
                <g transform="matrix(3.59201e-32,3.97252,-3.97252,3.59201e-32,1601.9,843.068)">
                    <circle cx="346.167" cy="503.486" r="2.835"/>
                </g>
            </g>
            <g id="Labels">
                <g transform="matrix(1.52208,0,0,1.14232,-1335.86,-435.233)">
                    <rect x="261" y="2385.72" width="122" height="49.23" style="fill:rgb(205,255,254);"/>
                </g>
                <g transform="matrix(0.901639,0,0,0.99073,-1102.18,-149.605)">
                    <rect x="261" y="2385.72" width="122" height="49.23" style="fill:rgb(252,206,254);"/>
                </g>
                <g transform="matrix(1,0,0,1,-2355.5,1641.84)">
                    <g transform="matrix(44,0,0,44,1532.43,537.012)">
                        <path d="M0.282,-0.331L0.308,-0.242L0.313,-0.242L0.333,-0.334L0.467,-0.7L0.552,-0.7L0.375,-0.245C0.357,-0.198 0.341,-0.158 0.328,-0.127C0.314,-0.095 0.3,-0.069 0.286,-0.05C0.272,-0.03 0.257,-0.016 0.241,-0.008C0.225,0.001 0.205,0.005 0.182,0.005C0.16,0.005 0.142,0.003 0.13,-0.001C0.117,-0.004 0.104,-0.01 0.093,-0.017L0.118,-0.086C0.131,-0.079 0.144,-0.074 0.155,-0.072C0.166,-0.07 0.177,-0.069 0.186,-0.069C0.205,-0.069 0.22,-0.079 0.233,-0.098C0.246,-0.117 0.257,-0.145 0.266,-0.182L0.007,-0.7L0.103,-0.7L0.282,-0.331Z" style="fill-rule:nonzero;"/>
                    </g>
                    <g transform="matrix(44,0,0,44,1554.48,537.012)">
                        <path d="M0.125,-0.223L0.125,-0.288L0.195,-0.288C0.207,-0.288 0.219,-0.29 0.231,-0.294C0.242,-0.298 0.253,-0.304 0.262,-0.311C0.271,-0.318 0.279,-0.326 0.285,-0.336C0.29,-0.345 0.293,-0.355 0.293,-0.366C0.293,-0.392 0.284,-0.41 0.266,-0.421C0.248,-0.432 0.221,-0.437 0.185,-0.437C0.159,-0.437 0.135,-0.433 0.114,-0.425C0.092,-0.417 0.075,-0.409 0.063,-0.402L0.04,-0.464C0.06,-0.475 0.084,-0.485 0.111,-0.494C0.137,-0.503 0.17,-0.507 0.207,-0.507C0.318,-0.507 0.373,-0.466 0.373,-0.384C0.373,-0.361 0.366,-0.338 0.351,-0.316C0.335,-0.293 0.314,-0.277 0.286,-0.268L0.286,-0.264C0.325,-0.257 0.353,-0.243 0.369,-0.222C0.384,-0.201 0.392,-0.174 0.392,-0.14C0.392,-0.119 0.388,-0.099 0.379,-0.081C0.37,-0.063 0.357,-0.047 0.34,-0.034C0.323,-0.021 0.301,-0.01 0.275,-0.003C0.248,0.005 0.218,0.009 0.183,0.009C0.149,0.009 0.121,0.006 0.099,-0C0.076,-0.006 0.056,-0.013 0.038,-0.022L0.061,-0.088C0.076,-0.079 0.095,-0.073 0.117,-0.068C0.138,-0.063 0.162,-0.061 0.187,-0.061C0.228,-0.061 0.259,-0.068 0.28,-0.082C0.301,-0.096 0.312,-0.117 0.312,-0.146C0.312,-0.17 0.302,-0.189 0.282,-0.203C0.262,-0.216 0.229,-0.223 0.183,-0.223L0.125,-0.223Z" style="fill-rule:nonzero;"/>
                    </g>
                    <g transform="matrix(44,0,0,44,1573.88,537.012)">
                        <path d="M0.442,-0.04C0.422,-0.024 0.397,-0.011 0.367,-0.002C0.336,0.007 0.304,0.012 0.27,0.012C0.232,0.012 0.199,0.006 0.171,-0.007C0.143,-0.019 0.12,-0.037 0.102,-0.06C0.084,-0.083 0.071,-0.11 0.062,-0.142C0.053,-0.174 0.049,-0.21 0.049,-0.25C0.049,-0.335 0.068,-0.4 0.106,-0.445C0.144,-0.49 0.198,-0.512 0.269,-0.512C0.292,-0.512 0.314,-0.51 0.337,-0.505C0.36,-0.5 0.38,-0.49 0.398,-0.476C0.416,-0.462 0.431,-0.442 0.442,-0.417C0.453,-0.391 0.459,-0.357 0.459,-0.315C0.459,-0.293 0.457,-0.269 0.453,-0.242L0.132,-0.242C0.132,-0.213 0.135,-0.187 0.141,-0.164C0.147,-0.141 0.156,-0.122 0.169,-0.107C0.182,-0.091 0.198,-0.079 0.219,-0.071C0.239,-0.062 0.264,-0.058 0.293,-0.058C0.316,-0.058 0.338,-0.062 0.361,-0.07C0.384,-0.078 0.401,-0.087 0.412,-0.098L0.442,-0.04ZM0.27,-0.442C0.231,-0.442 0.199,-0.432 0.176,-0.411C0.152,-0.39 0.138,-0.355 0.133,-0.305L0.381,-0.305C0.381,-0.356 0.371,-0.391 0.352,-0.412C0.333,-0.432 0.305,-0.442 0.27,-0.442Z" style="fill-rule:nonzero;"/>
                    </g>
                    <g transform="matrix(44,0,0,44,1596.23,537.012)">
                        <path d="M0.346,-0.43L0.201,-0.43C0.199,-0.402 0.197,-0.372 0.195,-0.34C0.193,-0.307 0.19,-0.275 0.186,-0.243C0.182,-0.21 0.177,-0.179 0.17,-0.15C0.163,-0.12 0.155,-0.094 0.145,-0.071C0.134,-0.048 0.122,-0.03 0.107,-0.017C0.092,-0.003 0.074,0.004 0.053,0.004C0.04,0.004 0.029,0.003 0.02,0.002C0.011,0.001 0.002,-0.002 -0.005,-0.005L0.007,-0.072C0.015,-0.069 0.024,-0.068 0.033,-0.068C0.046,-0.068 0.058,-0.074 0.069,-0.085C0.08,-0.096 0.089,-0.118 0.097,-0.15C0.105,-0.181 0.112,-0.225 0.117,-0.281C0.122,-0.337 0.126,-0.41 0.128,-0.5L0.426,-0.5L0.426,-0L0.346,-0L0.346,-0.43Z" style="fill-rule:nonzero;"/>
                    </g>
                </g>
                <g transform="matrix(1,0,0,1,-2382.83,1714.03)">
                    <g transform="matrix(44,0,0,44,1530.37,537.012)">
                        <path d="M0.641,0.129L0.584,0.129L0.569,-0L0.078,-0L0.063,0.129L0.005,0.129L0.005,-0.074L0.076,-0.074C0.081,-0.081 0.09,-0.098 0.101,-0.126C0.112,-0.153 0.123,-0.191 0.134,-0.242C0.145,-0.292 0.154,-0.355 0.163,-0.431C0.172,-0.506 0.176,-0.596 0.176,-0.7L0.55,-0.7L0.55,-0.074L0.641,-0.074L0.641,0.129ZM0.467,-0.074L0.467,-0.626L0.254,-0.626C0.252,-0.553 0.248,-0.487 0.243,-0.428C0.237,-0.369 0.23,-0.318 0.222,-0.273C0.214,-0.228 0.205,-0.189 0.195,-0.156C0.185,-0.123 0.175,-0.096 0.164,-0.074L0.467,-0.074Z" style="fill-rule:nonzero;"/>
                    </g>
                    <g transform="matrix(44,0,0,44,1559.8,537.012)">
                        <path d="M0.224,-0.176L0.252,-0.08L0.257,-0.08L0.279,-0.177L0.376,-0.5L0.457,-0.5L0.309,-0.051C0.298,-0.018 0.286,0.013 0.276,0.044C0.265,0.075 0.252,0.102 0.239,0.126C0.226,0.15 0.211,0.169 0.194,0.184C0.177,0.198 0.158,0.205 0.136,0.205C0.112,0.205 0.092,0.202 0.077,0.195L0.091,0.126C0.1,0.129 0.108,0.131 0.116,0.131C0.135,0.131 0.153,0.121 0.17,0.102C0.187,0.082 0.202,0.048 0.213,-0L0.012,-0.5L0.104,-0.5L0.224,-0.176Z" style="fill-rule:nonzero;"/>
                    </g>
                    <g transform="matrix(44,0,0,44,1580.31,537.012)">
                        <path d="M0.369,-0.43L0.157,-0.43L0.157,-0L0.077,-0L0.077,-0.5L0.369,-0.5L0.369,-0.43Z" style="fill-rule:nonzero;"/>
                    </g>
                    <g transform="matrix(44,0,0,44,1596.54,537.012)">
                        <path d="M0.069,-0.463C0.094,-0.478 0.124,-0.49 0.158,-0.497C0.191,-0.504 0.226,-0.508 0.263,-0.508C0.298,-0.508 0.326,-0.503 0.347,-0.494C0.368,-0.485 0.384,-0.472 0.395,-0.458C0.406,-0.443 0.413,-0.426 0.417,-0.408C0.42,-0.39 0.422,-0.372 0.422,-0.354C0.422,-0.314 0.421,-0.275 0.419,-0.237C0.417,-0.199 0.416,-0.163 0.416,-0.129C0.416,-0.104 0.417,-0.081 0.419,-0.059C0.421,-0.037 0.425,-0.017 0.43,0.002L0.371,0.002L0.35,-0.068L0.345,-0.068C0.339,-0.059 0.332,-0.049 0.323,-0.041C0.314,-0.032 0.303,-0.024 0.29,-0.017C0.277,-0.01 0.263,-0.004 0.246,0.001C0.229,0.006 0.21,0.008 0.189,0.008C0.168,0.008 0.148,0.005 0.13,-0.002C0.111,-0.009 0.095,-0.018 0.082,-0.031C0.069,-0.043 0.058,-0.058 0.051,-0.075C0.043,-0.092 0.039,-0.112 0.039,-0.134C0.039,-0.163 0.045,-0.188 0.057,-0.208C0.069,-0.227 0.086,-0.243 0.108,-0.255C0.129,-0.266 0.155,-0.275 0.186,-0.28C0.216,-0.285 0.249,-0.287 0.286,-0.287L0.314,-0.287C0.323,-0.287 0.332,-0.286 0.341,-0.285C0.343,-0.305 0.344,-0.323 0.344,-0.339C0.344,-0.376 0.337,-0.401 0.322,-0.416C0.307,-0.431 0.281,-0.438 0.242,-0.438C0.231,-0.438 0.219,-0.437 0.206,-0.436C0.193,-0.434 0.179,-0.432 0.166,-0.429C0.152,-0.426 0.139,-0.422 0.127,-0.418C0.114,-0.413 0.103,-0.408 0.094,-0.403L0.069,-0.463ZM0.211,-0.062C0.23,-0.062 0.246,-0.065 0.261,-0.07C0.276,-0.075 0.288,-0.081 0.299,-0.089C0.31,-0.096 0.319,-0.105 0.326,-0.114C0.333,-0.123 0.338,-0.132 0.341,-0.141L0.341,-0.224C0.332,-0.225 0.322,-0.225 0.313,-0.226C0.303,-0.226 0.293,-0.226 0.284,-0.226C0.263,-0.226 0.243,-0.225 0.224,-0.223C0.204,-0.22 0.187,-0.216 0.172,-0.21C0.157,-0.203 0.145,-0.195 0.136,-0.184C0.127,-0.173 0.122,-0.159 0.122,-0.142C0.122,-0.119 0.13,-0.099 0.147,-0.085C0.164,-0.07 0.185,-0.062 0.211,-0.062Z" style="fill-rule:nonzero;"/>
                    </g>
                </g>
                <g transform="matrix(1,0,0,1,-2382.35,1793.2)">
                    <g transform="matrix(44,0,0,44,1456.05,537.012)">
                        <path d="M0.491,-0.626L0.168,-0.626L0.168,-0L0.085,-0L0.085,-0.7L0.574,-0.7L0.574,-0L0.491,-0L0.491,-0.626Z" style="fill-rule:nonzero;"/>
                    </g>
                    <g transform="matrix(44,0,0,44,1485.05,537.012)">
                        <path d="M0.049,-0.25C0.049,-0.335 0.068,-0.4 0.106,-0.445C0.143,-0.49 0.197,-0.512 0.268,-0.512C0.305,-0.512 0.338,-0.506 0.366,-0.494C0.393,-0.481 0.416,-0.464 0.434,-0.441C0.452,-0.418 0.465,-0.39 0.474,-0.358C0.483,-0.325 0.487,-0.289 0.487,-0.25C0.487,-0.165 0.468,-0.1 0.431,-0.056C0.393,-0.011 0.339,0.012 0.268,0.012C0.231,0.012 0.198,0.006 0.171,-0.007C0.143,-0.019 0.12,-0.037 0.102,-0.06C0.084,-0.083 0.071,-0.11 0.062,-0.143C0.053,-0.175 0.049,-0.211 0.049,-0.25ZM0.132,-0.25C0.132,-0.225 0.135,-0.2 0.14,-0.177C0.145,-0.154 0.152,-0.133 0.163,-0.116C0.174,-0.099 0.188,-0.085 0.205,-0.074C0.222,-0.063 0.243,-0.058 0.268,-0.058C0.359,-0.057 0.404,-0.121 0.404,-0.25C0.404,-0.276 0.402,-0.301 0.397,-0.324C0.392,-0.347 0.384,-0.368 0.373,-0.385C0.362,-0.402 0.348,-0.416 0.331,-0.427C0.314,-0.437 0.293,-0.442 0.268,-0.442C0.177,-0.443 0.132,-0.379 0.132,-0.25Z" style="fill-rule:nonzero;"/>
                    </g>
                    <g transform="matrix(44,0,0,44,1508.63,537.012)">
                        <path d="M0.346,-0.43L0.201,-0.43C0.199,-0.402 0.197,-0.372 0.195,-0.34C0.193,-0.307 0.19,-0.275 0.186,-0.243C0.182,-0.21 0.177,-0.179 0.17,-0.15C0.163,-0.12 0.155,-0.094 0.145,-0.071C0.134,-0.048 0.122,-0.03 0.107,-0.017C0.092,-0.003 0.074,0.004 0.053,0.004C0.04,0.004 0.029,0.003 0.02,0.002C0.011,0.001 0.002,-0.002 -0.005,-0.005L0.007,-0.072C0.015,-0.069 0.024,-0.068 0.033,-0.068C0.046,-0.068 0.058,-0.074 0.069,-0.085C0.08,-0.096 0.089,-0.118 0.097,-0.15C0.105,-0.181 0.112,-0.225 0.117,-0.281C0.122,-0.337 0.126,-0.41 0.128,-0.5L0.426,-0.5L0.426,-0L0.346,-0L0.346,-0.43Z" style="fill-rule:nonzero;"/>
                    </g>
                    <g transform="matrix(44,0,0,44,1530.76,537.012)">
                        <path d="M0.389,-0.296L0.392,-0.358L0.389,-0.358L0.348,-0.294L0.123,-0L0.077,-0L0.077,-0.5L0.157,-0.5L0.157,-0.195L0.154,-0.136L0.158,-0.136L0.197,-0.198L0.422,-0.5L0.469,-0.5L0.469,-0L0.389,-0L0.389,-0.296Z" style="fill-rule:nonzero;"/>
                    </g>
                    <g transform="matrix(44,0,0,44,1554.79,537.012)">
                        <path d="M0.369,-0.43L0.157,-0.43L0.157,-0L0.077,-0L0.077,-0.5L0.369,-0.5L0.369,-0.43Z" style="fill-rule:nonzero;"/>
                    </g>
                    <g transform="matrix(44,0,0,44,1571.02,537.012)">
                        <path d="M0.049,-0.25C0.049,-0.335 0.068,-0.4 0.106,-0.445C0.143,-0.49 0.197,-0.512 0.268,-0.512C0.305,-0.512 0.338,-0.506 0.366,-0.494C0.393,-0.481 0.416,-0.464 0.434,-0.441C0.452,-0.418 0.465,-0.39 0.474,-0.358C0.483,-0.325 0.487,-0.289 0.487,-0.25C0.487,-0.165 0.468,-0.1 0.431,-0.056C0.393,-0.011 0.339,0.012 0.268,0.012C0.231,0.012 0.198,0.006 0.171,-0.007C0.143,-0.019 0.12,-0.037 0.102,-0.06C0.084,-0.083 0.071,-0.11 0.062,-0.143C0.053,-0.175 0.049,-0.211 0.049,-0.25ZM0.132,-0.25C0.132,-0.225 0.135,-0.2 0.14,-0.177C0.145,-0.154 0.152,-0.133 0.163,-0.116C0.174,-0.099 0.188,-0.085 0.205,-0.074C0.222,-0.063 0.243,-0.058 0.268,-0.058C0.359,-0.057 0.404,-0.121 0.404,-0.25C0.404,-0.276 0.402,-0.301 0.397,-0.324C0.392,-0.347 0.384,-0.368 0.373,-0.385C0.362,-0.402 0.348,-0.416 0.331,-0.427C0.314,-0.437 0.293,-0.442 0.268,-0.442C0.177,-0.443 0.132,-0.379 0.132,-0.25Z" style="fill-rule:nonzero;"/>
                    </g>
                    <g transform="matrix(44,0,0,44,1594.61,537.012)">
                        <path d="M0.383,-0.221L0.157,-0.221L0.157,-0L0.077,-0L0.077,-0.5L0.157,-0.5L0.157,-0.291L0.383,-0.291L0.383,-0.5L0.463,-0.5L0.463,-0L0.383,-0L0.383,-0.221Z" style="fill-rule:nonzero;"/>
                    </g>
                </g>
                <g transform="matrix(0.789516,0,0,1,-2051.05,1741.71)">
                    <g transform="matrix(1.2666,-0,-0,1,1400.92,337.294)">
                        <path d="M278.155,98.594L296.155,89.594L278.155,80.594L278.155,98.594Z"/>
                        <path d="M281.755,89.594L218.38,89.594" style="fill:none;stroke:black;stroke-width:4px;stroke-linecap:butt;stroke-miterlimit:1.5;stroke-dasharray:4,4;"/>
                    </g>
                </g>
                <g transform="matrix(1.08683,0,0,1,-2579.09,1813.27)">
                    <g transform="matrix(0.920104,-0,-0,1,1503.53,265.733)">
                        <path d="M278.155,170.154L296.155,161.154L278.155,152.154L278.155,170.154Z"/>
                        <path d="M281.755,161.154L189.091,161.154" style="fill:none;stroke:black;stroke-width:4px;stroke-linecap:butt;stroke-miterlimit:1.5;stroke-dasharray:4,4;"/>
                    </g>
                </g>
                <g transform="matrix(1.58643,0,0,1,-3417.18,1892.43)">
                    <g transform="matrix(0.630345,-0,-0,1,1558.32,186.565)">
                        <path d="M327.37,249.322L345.37,240.322L327.37,231.322L327.37,249.322Z"/>
                        <path d="M330.97,240.322L189.091,240.322" style="fill:none;stroke:black;stroke-width:4px;stroke-linecap:butt;stroke-miterlimit:1.5;stroke-dasharray:4,4;"/>
                    </g>
                </g>
            </g>
        </g>
    </g>
</svg>
