<?xml version="1.0" encoding="UTF-8" standalone="no"?>
<!DOCTYPE svg PUBLIC "-//W3C//DTD SVG 1.1//EN" "http://www.w3.org/Graphics/SVG/1.1/DTD/svg11.dtd">
<svg width="100%" height="100%" viewBox="0 0 977 795" version="1.1" xmlns="http://www.w3.org/2000/svg" xmlns:xlink="http://www.w3.org/1999/xlink" xml:space="preserve" xmlns:serif="http://www.serif.com/" style="fill-rule:evenodd;clip-rule:evenodd;stroke-linecap:round;stroke-linejoin:round;stroke-miterlimit:1.5;">
    <g transform="matrix(1,0,0,1,-1190,-6183)">
        <rect id="Resampling" x="0" y="6042" width="2985" height="2039" style="fill:none;"/>
        <g transform="matrix(0.525356,0,0,0.525356,1230.25,6847.2)">
            <circle cx="207.5" cy="164.5" r="18.5" style="stroke:white;stroke-width:1.15px;"/>
        </g>
        <g transform="matrix(0.430196,0,0,0.430196,1547.11,6863.31)">
            <g id="RED">
                <g>
                    <circle cx="207.5" cy="164.5" r="18.5" style="fill:rgb(255,0,0);stroke:rgb(255,0,0);stroke-width:19.37px;"/>
                </g>
            </g>
        </g>
        <g transform="matrix(1,0,0,1,1250.88,6333.6)">
            <g transform="matrix(36,0,0,36,111.901,612.312)">
                <path d="M0.618,-0.714L0.385,-0.196C0.365,-0.151 0.345,-0.113 0.324,-0.082C0.303,-0.051 0.278,-0.028 0.25,-0.013C0.221,0.002 0.185,0.01 0.141,0.01C0.122,0.01 0.104,0.008 0.088,0.006C0.072,0.003 0.058,-0.001 0.045,-0.005L0.045,-0.087C0.058,-0.081 0.072,-0.076 0.087,-0.073C0.102,-0.07 0.118,-0.068 0.135,-0.068C0.16,-0.068 0.182,-0.072 0.2,-0.079C0.218,-0.087 0.233,-0.099 0.247,-0.116C0.261,-0.133 0.274,-0.155 0.286,-0.183L0.011,-0.714L0.102,-0.714L0.305,-0.315C0.307,-0.31 0.31,-0.304 0.313,-0.298C0.316,-0.292 0.319,-0.285 0.322,-0.279C0.325,-0.272 0.327,-0.265 0.33,-0.259L0.333,-0.259L0.347,-0.295C0.35,-0.302 0.352,-0.307 0.354,-0.312L0.529,-0.714L0.618,-0.714Z" style="fill-rule:nonzero;"/>
            </g>
            <g transform="matrix(36,0,0,36,134.137,612.312)">
                <path d="M0.223,-0.545C0.263,-0.545 0.298,-0.539 0.327,-0.529C0.356,-0.518 0.379,-0.502 0.395,-0.481C0.411,-0.46 0.419,-0.435 0.419,-0.405C0.419,-0.373 0.41,-0.347 0.393,-0.328C0.375,-0.308 0.351,-0.295 0.32,-0.286L0.32,-0.282C0.342,-0.276 0.361,-0.268 0.379,-0.257C0.397,-0.246 0.411,-0.232 0.422,-0.214C0.432,-0.196 0.438,-0.174 0.438,-0.148C0.438,-0.118 0.429,-0.091 0.413,-0.067C0.397,-0.043 0.372,-0.024 0.339,-0.011C0.306,0.003 0.264,0.01 0.213,0.01C0.188,0.01 0.164,0.008 0.142,0.006C0.119,0.003 0.099,-0.001 0.081,-0.006C0.062,-0.012 0.046,-0.018 0.033,-0.025L0.033,-0.099C0.056,-0.088 0.082,-0.078 0.113,-0.069C0.143,-0.061 0.176,-0.057 0.212,-0.057C0.239,-0.057 0.264,-0.06 0.286,-0.066C0.307,-0.073 0.325,-0.083 0.338,-0.097C0.351,-0.111 0.357,-0.13 0.357,-0.153C0.357,-0.174 0.351,-0.191 0.34,-0.205C0.328,-0.219 0.311,-0.229 0.289,-0.236C0.266,-0.243 0.238,-0.246 0.203,-0.246L0.131,-0.246L0.131,-0.313L0.19,-0.313C0.236,-0.313 0.273,-0.319 0.3,-0.332C0.328,-0.345 0.341,-0.367 0.341,-0.398C0.341,-0.425 0.331,-0.445 0.31,-0.458C0.288,-0.471 0.258,-0.478 0.219,-0.478C0.189,-0.478 0.164,-0.475 0.141,-0.469C0.119,-0.462 0.094,-0.454 0.068,-0.443L0.04,-0.508C0.068,-0.52 0.097,-0.529 0.127,-0.536C0.158,-0.542 0.19,-0.545 0.223,-0.545Z" style="fill-rule:nonzero;"/>
            </g>
            <g transform="matrix(36,0,0,36,151.539,612.312)">
                <path d="M0.487,-0L0.404,-0L0.404,-0.467L0.242,-0.467C0.235,-0.383 0.227,-0.311 0.217,-0.251C0.207,-0.191 0.195,-0.142 0.18,-0.104C0.165,-0.066 0.147,-0.038 0.126,-0.02C0.105,-0.003 0.08,0.006 0.051,0.006C0.042,0.006 0.034,0.006 0.026,0.005C0.019,0.004 0.012,0.002 0.006,-0L0.006,-0.062C0.011,-0.06 0.015,-0.059 0.02,-0.059C0.024,-0.058 0.029,-0.058 0.035,-0.058C0.049,-0.058 0.063,-0.064 0.075,-0.076C0.087,-0.088 0.098,-0.107 0.108,-0.131C0.118,-0.156 0.127,-0.187 0.135,-0.225C0.143,-0.263 0.149,-0.308 0.156,-0.36C0.162,-0.411 0.167,-0.47 0.171,-0.535L0.487,-0.535L0.487,-0Z" style="fill-rule:nonzero;"/>
            </g>
            <g transform="matrix(36,0,0,36,172.141,612.312)">
                <path d="M0.085,-0L0.085,-0.535L0.167,-0.535L0.167,-0.314L0.313,-0.314C0.359,-0.314 0.397,-0.309 0.426,-0.297C0.455,-0.286 0.477,-0.269 0.492,-0.247C0.506,-0.224 0.513,-0.196 0.513,-0.163C0.513,-0.13 0.506,-0.101 0.492,-0.077C0.478,-0.052 0.456,-0.033 0.426,-0.02C0.395,-0.007 0.356,-0 0.308,-0L0.085,-0ZM0.167,-0.066L0.3,-0.066C0.341,-0.066 0.373,-0.073 0.397,-0.087C0.421,-0.102 0.433,-0.126 0.433,-0.159C0.433,-0.192 0.422,-0.215 0.399,-0.228C0.377,-0.241 0.345,-0.247 0.303,-0.247L0.167,-0.247L0.167,-0.066ZM0.602,-0L0.602,-0.535L0.683,-0.535L0.683,-0L0.602,-0Z" style="fill-rule:nonzero;"/>
            </g>
            <g transform="matrix(36,0,0,36,209.143,612.312)">
                <path d="M0.337,-0.545C0.404,-0.545 0.457,-0.522 0.497,-0.476C0.536,-0.43 0.556,-0.361 0.556,-0.269C0.556,-0.208 0.547,-0.157 0.529,-0.116C0.511,-0.074 0.485,-0.043 0.452,-0.022C0.419,-0.001 0.38,0.01 0.335,0.01C0.307,0.01 0.282,0.006 0.26,-0.001C0.239,-0.009 0.22,-0.019 0.205,-0.032C0.19,-0.044 0.177,-0.058 0.167,-0.073L0.161,-0.073C0.162,-0.061 0.163,-0.045 0.165,-0.027C0.166,-0.009 0.167,0.006 0.167,0.02L0.167,0.239L0.085,0.239L0.085,-0.535L0.152,-0.535L0.163,-0.456L0.167,-0.456C0.177,-0.472 0.19,-0.487 0.205,-0.501C0.22,-0.514 0.238,-0.525 0.26,-0.533C0.282,-0.541 0.307,-0.545 0.337,-0.545ZM0.323,-0.477C0.286,-0.477 0.256,-0.469 0.233,-0.455C0.211,-0.441 0.194,-0.419 0.184,-0.391C0.173,-0.362 0.168,-0.327 0.167,-0.284L0.167,-0.268C0.167,-0.223 0.172,-0.185 0.182,-0.153C0.192,-0.122 0.208,-0.098 0.231,-0.082C0.254,-0.066 0.285,-0.058 0.324,-0.058C0.357,-0.058 0.385,-0.067 0.407,-0.084C0.429,-0.102 0.445,-0.127 0.456,-0.159C0.467,-0.191 0.473,-0.228 0.473,-0.27C0.473,-0.333 0.46,-0.383 0.436,-0.421C0.411,-0.458 0.374,-0.477 0.323,-0.477Z" style="fill-rule:nonzero;"/>
            </g>
            <g transform="matrix(36,0,0,36,231.168,612.312)">
                <path d="M0.286,-0.544C0.349,-0.544 0.397,-0.53 0.428,-0.501C0.459,-0.472 0.474,-0.427 0.474,-0.364L0.474,-0L0.415,-0L0.399,-0.079L0.396,-0.079C0.381,-0.06 0.365,-0.043 0.349,-0.03C0.332,-0.017 0.314,-0.007 0.292,-0C0.271,0.006 0.245,0.01 0.214,0.01C0.181,0.01 0.152,0.004 0.127,-0.007C0.102,-0.019 0.082,-0.036 0.068,-0.059C0.053,-0.082 0.046,-0.111 0.046,-0.147C0.046,-0.2 0.067,-0.241 0.109,-0.27C0.152,-0.299 0.216,-0.314 0.303,-0.317L0.395,-0.321L0.395,-0.354C0.395,-0.4 0.385,-0.432 0.365,-0.451C0.345,-0.469 0.317,-0.479 0.281,-0.479C0.253,-0.479 0.227,-0.474 0.201,-0.466C0.176,-0.458 0.152,-0.449 0.129,-0.438L0.104,-0.499C0.128,-0.511 0.156,-0.522 0.187,-0.531C0.218,-0.54 0.251,-0.544 0.286,-0.544ZM0.394,-0.264L0.313,-0.26C0.246,-0.258 0.199,-0.247 0.171,-0.228C0.144,-0.208 0.13,-0.181 0.13,-0.146C0.13,-0.115 0.14,-0.093 0.158,-0.078C0.177,-0.063 0.201,-0.056 0.232,-0.056C0.279,-0.056 0.318,-0.069 0.349,-0.096C0.379,-0.122 0.394,-0.162 0.394,-0.214L0.394,-0.264Z" style="fill-rule:nonzero;"/>
            </g>
            <g transform="matrix(36,0,0,36,251.172,612.312)">
                <path d="M0.3,0.01C0.252,0.01 0.209,-0 0.172,-0.02C0.136,-0.04 0.107,-0.07 0.086,-0.111C0.066,-0.152 0.056,-0.203 0.056,-0.265C0.056,-0.329 0.066,-0.382 0.088,-0.424C0.11,-0.465 0.14,-0.495 0.178,-0.515C0.216,-0.535 0.259,-0.545 0.308,-0.545C0.334,-0.545 0.36,-0.542 0.385,-0.537C0.41,-0.531 0.43,-0.525 0.446,-0.517L0.422,-0.449C0.406,-0.455 0.387,-0.461 0.365,-0.466C0.344,-0.472 0.324,-0.474 0.306,-0.474C0.269,-0.474 0.238,-0.466 0.213,-0.45C0.189,-0.434 0.17,-0.411 0.158,-0.38C0.146,-0.349 0.14,-0.311 0.14,-0.266C0.14,-0.222 0.146,-0.185 0.157,-0.155C0.169,-0.124 0.187,-0.101 0.211,-0.085C0.234,-0.069 0.264,-0.061 0.299,-0.061C0.328,-0.061 0.353,-0.064 0.376,-0.07C0.399,-0.076 0.419,-0.083 0.438,-0.091L0.438,-0.019C0.42,-0.009 0.4,-0.002 0.378,0.002C0.356,0.007 0.33,0.01 0.3,0.01Z" style="fill-rule:nonzero;"/>
            </g>
            <g transform="matrix(36,0,0,36,268.416,612.312)">
                <path d="M0.45,-0.466L0.274,-0.466L0.274,-0L0.194,-0L0.194,-0.466L0.02,-0.466L0.02,-0.535L0.45,-0.535L0.45,-0.466Z" style="fill-rule:nonzero;"/>
            </g>
            <g transform="matrix(36,0,0,36,285.362,612.312)">
                <path d="M0.337,-0.545C0.404,-0.545 0.457,-0.522 0.497,-0.476C0.536,-0.43 0.556,-0.361 0.556,-0.269C0.556,-0.208 0.547,-0.157 0.529,-0.116C0.511,-0.074 0.485,-0.043 0.452,-0.022C0.419,-0.001 0.38,0.01 0.335,0.01C0.307,0.01 0.282,0.006 0.26,-0.001C0.239,-0.009 0.22,-0.019 0.205,-0.032C0.19,-0.044 0.177,-0.058 0.167,-0.073L0.161,-0.073C0.162,-0.061 0.163,-0.045 0.165,-0.027C0.166,-0.009 0.167,0.006 0.167,0.02L0.167,0.239L0.085,0.239L0.085,-0.535L0.152,-0.535L0.163,-0.456L0.167,-0.456C0.177,-0.472 0.19,-0.487 0.205,-0.501C0.22,-0.514 0.238,-0.525 0.26,-0.533C0.282,-0.541 0.307,-0.545 0.337,-0.545ZM0.323,-0.477C0.286,-0.477 0.256,-0.469 0.233,-0.455C0.211,-0.441 0.194,-0.419 0.184,-0.391C0.173,-0.362 0.168,-0.327 0.167,-0.284L0.167,-0.268C0.167,-0.223 0.172,-0.185 0.182,-0.153C0.192,-0.122 0.208,-0.098 0.231,-0.082C0.254,-0.066 0.285,-0.058 0.324,-0.058C0.357,-0.058 0.385,-0.067 0.407,-0.084C0.429,-0.102 0.445,-0.127 0.456,-0.159C0.467,-0.191 0.473,-0.228 0.473,-0.27C0.473,-0.333 0.46,-0.383 0.436,-0.421C0.411,-0.458 0.374,-0.477 0.323,-0.477Z" style="fill-rule:nonzero;"/>
            </g>
            <g transform="matrix(36,0,0,36,307.387,612.312)">
                <path d="M0.286,-0.544C0.349,-0.544 0.397,-0.53 0.428,-0.501C0.459,-0.472 0.474,-0.427 0.474,-0.364L0.474,-0L0.415,-0L0.399,-0.079L0.396,-0.079C0.381,-0.06 0.365,-0.043 0.349,-0.03C0.332,-0.017 0.314,-0.007 0.292,-0C0.271,0.006 0.245,0.01 0.214,0.01C0.181,0.01 0.152,0.004 0.127,-0.007C0.102,-0.019 0.082,-0.036 0.068,-0.059C0.053,-0.082 0.046,-0.111 0.046,-0.147C0.046,-0.2 0.067,-0.241 0.109,-0.27C0.152,-0.299 0.216,-0.314 0.303,-0.317L0.395,-0.321L0.395,-0.354C0.395,-0.4 0.385,-0.432 0.365,-0.451C0.345,-0.469 0.317,-0.479 0.281,-0.479C0.253,-0.479 0.227,-0.474 0.201,-0.466C0.176,-0.458 0.152,-0.449 0.129,-0.438L0.104,-0.499C0.128,-0.511 0.156,-0.522 0.187,-0.531C0.218,-0.54 0.251,-0.544 0.286,-0.544ZM0.394,-0.264L0.313,-0.26C0.246,-0.258 0.199,-0.247 0.171,-0.228C0.144,-0.208 0.13,-0.181 0.13,-0.146C0.13,-0.115 0.14,-0.093 0.158,-0.078C0.177,-0.063 0.201,-0.056 0.232,-0.056C0.279,-0.056 0.318,-0.069 0.349,-0.096C0.379,-0.122 0.394,-0.162 0.394,-0.214L0.394,-0.264Z" style="fill-rule:nonzero;"/>
            </g>
        </g>
        <g transform="matrix(1,0,0,1,1549.53,6333.6)">
            <g transform="matrix(36,0,0,36,111.901,612.312)">
                <path d="M0.717,-0.358C0.717,-0.303 0.71,-0.253 0.696,-0.208C0.682,-0.163 0.661,-0.124 0.634,-0.092C0.606,-0.059 0.572,-0.034 0.531,-0.017C0.491,0.001 0.443,0.01 0.39,0.01C0.334,0.01 0.286,0.001 0.245,-0.017C0.204,-0.034 0.17,-0.059 0.142,-0.092C0.115,-0.124 0.095,-0.163 0.081,-0.208C0.068,-0.254 0.061,-0.304 0.061,-0.359C0.061,-0.432 0.073,-0.496 0.097,-0.551C0.121,-0.606 0.158,-0.649 0.207,-0.679C0.256,-0.71 0.317,-0.725 0.391,-0.725C0.462,-0.725 0.521,-0.71 0.57,-0.68C0.618,-0.649 0.655,-0.607 0.679,-0.552C0.704,-0.497 0.717,-0.432 0.717,-0.358ZM0.148,-0.358C0.148,-0.297 0.157,-0.245 0.174,-0.201C0.192,-0.156 0.218,-0.122 0.254,-0.098C0.289,-0.074 0.335,-0.062 0.39,-0.062C0.445,-0.062 0.49,-0.074 0.526,-0.098C0.561,-0.122 0.587,-0.156 0.604,-0.201C0.621,-0.245 0.629,-0.297 0.629,-0.358C0.629,-0.45 0.61,-0.522 0.572,-0.574C0.533,-0.626 0.473,-0.652 0.391,-0.652C0.336,-0.652 0.29,-0.64 0.254,-0.616C0.219,-0.592 0.192,-0.559 0.175,-0.515C0.157,-0.471 0.148,-0.419 0.148,-0.358Z" style="fill-rule:nonzero;"/>
            </g>
            <g transform="matrix(36,0,0,36,139.903,612.312)">
                <path d="M0.534,-0.535L0.534,-0L0.452,-0L0.452,-0.465L0.167,-0.465L0.167,-0L0.085,-0L0.085,-0.535L0.534,-0.535Z" style="fill-rule:nonzero;"/>
            </g>
            <g transform="matrix(36,0,0,36,162.227,612.312)">
                <path d="M0.337,-0.545C0.404,-0.545 0.457,-0.522 0.497,-0.476C0.536,-0.43 0.556,-0.361 0.556,-0.269C0.556,-0.208 0.547,-0.157 0.529,-0.116C0.511,-0.074 0.485,-0.043 0.452,-0.022C0.419,-0.001 0.38,0.01 0.335,0.01C0.307,0.01 0.282,0.006 0.26,-0.001C0.239,-0.009 0.22,-0.019 0.205,-0.032C0.19,-0.044 0.177,-0.058 0.167,-0.073L0.161,-0.073C0.162,-0.061 0.163,-0.045 0.165,-0.027C0.166,-0.009 0.167,0.006 0.167,0.02L0.167,0.239L0.085,0.239L0.085,-0.535L0.152,-0.535L0.163,-0.456L0.167,-0.456C0.177,-0.472 0.19,-0.487 0.205,-0.501C0.22,-0.514 0.238,-0.525 0.26,-0.533C0.282,-0.541 0.307,-0.545 0.337,-0.545ZM0.323,-0.477C0.286,-0.477 0.256,-0.469 0.233,-0.455C0.211,-0.441 0.194,-0.419 0.184,-0.391C0.173,-0.362 0.168,-0.327 0.167,-0.284L0.167,-0.268C0.167,-0.223 0.172,-0.185 0.182,-0.153C0.192,-0.122 0.208,-0.098 0.231,-0.082C0.254,-0.066 0.285,-0.058 0.324,-0.058C0.357,-0.058 0.385,-0.067 0.407,-0.084C0.429,-0.102 0.445,-0.127 0.456,-0.159C0.467,-0.191 0.473,-0.228 0.473,-0.27C0.473,-0.333 0.46,-0.383 0.436,-0.421C0.411,-0.458 0.374,-0.477 0.323,-0.477Z" style="fill-rule:nonzero;"/>
            </g>
            <g transform="matrix(36,0,0,36,184.252,612.312)">
                <path d="M0.292,-0.545C0.337,-0.545 0.376,-0.535 0.409,-0.515C0.441,-0.494 0.466,-0.466 0.483,-0.43C0.501,-0.394 0.509,-0.351 0.509,-0.303L0.509,-0.252L0.14,-0.252C0.141,-0.19 0.156,-0.142 0.187,-0.109C0.217,-0.076 0.259,-0.06 0.314,-0.06C0.348,-0.06 0.378,-0.063 0.404,-0.069C0.43,-0.075 0.457,-0.084 0.485,-0.096L0.485,-0.025C0.458,-0.013 0.432,-0.004 0.405,0.001C0.378,0.007 0.347,0.01 0.311,0.01C0.26,0.01 0.215,-0.001 0.177,-0.022C0.138,-0.043 0.109,-0.074 0.087,-0.114C0.066,-0.155 0.056,-0.205 0.056,-0.264C0.056,-0.321 0.065,-0.371 0.085,-0.413C0.104,-0.455 0.131,-0.488 0.167,-0.511C0.202,-0.534 0.244,-0.545 0.292,-0.545ZM0.291,-0.479C0.247,-0.479 0.213,-0.464 0.187,-0.436C0.161,-0.408 0.146,-0.368 0.141,-0.317L0.424,-0.317C0.424,-0.349 0.419,-0.377 0.409,-0.402C0.4,-0.426 0.385,-0.445 0.366,-0.458C0.346,-0.472 0.321,-0.479 0.291,-0.479Z" style="fill-rule:nonzero;"/>
            </g>
            <g transform="matrix(36,0,0,36,204.467,612.312)">
                <path d="M0.478,-0.535L0.478,-0.069L0.554,-0.069L0.554,0.185L0.476,0.185L0.476,-0L0.097,-0L0.097,0.185L0.019,0.185L0.019,-0.069L0.061,-0.069C0.092,-0.111 0.117,-0.158 0.137,-0.208C0.157,-0.258 0.173,-0.311 0.183,-0.367C0.194,-0.422 0.199,-0.479 0.2,-0.535L0.478,-0.535ZM0.399,-0.471L0.272,-0.471C0.269,-0.423 0.262,-0.375 0.251,-0.326C0.24,-0.277 0.226,-0.23 0.208,-0.185C0.19,-0.141 0.169,-0.102 0.146,-0.069L0.399,-0.069L0.399,-0.471Z" style="fill-rule:nonzero;"/>
            </g>
            <g transform="matrix(36,0,0,36,225.157,612.312)">
                <path d="M0.292,-0.545C0.337,-0.545 0.376,-0.535 0.409,-0.515C0.441,-0.494 0.466,-0.466 0.483,-0.43C0.501,-0.394 0.509,-0.351 0.509,-0.303L0.509,-0.252L0.14,-0.252C0.141,-0.19 0.156,-0.142 0.187,-0.109C0.217,-0.076 0.259,-0.06 0.314,-0.06C0.348,-0.06 0.378,-0.063 0.404,-0.069C0.43,-0.075 0.457,-0.084 0.485,-0.096L0.485,-0.025C0.458,-0.013 0.432,-0.004 0.405,0.001C0.378,0.007 0.347,0.01 0.311,0.01C0.26,0.01 0.215,-0.001 0.177,-0.022C0.138,-0.043 0.109,-0.074 0.087,-0.114C0.066,-0.155 0.056,-0.205 0.056,-0.264C0.056,-0.321 0.065,-0.371 0.085,-0.413C0.104,-0.455 0.131,-0.488 0.167,-0.511C0.202,-0.534 0.244,-0.545 0.292,-0.545ZM0.291,-0.479C0.247,-0.479 0.213,-0.464 0.187,-0.436C0.161,-0.408 0.146,-0.368 0.141,-0.317L0.424,-0.317C0.424,-0.349 0.419,-0.377 0.409,-0.402C0.4,-0.426 0.385,-0.445 0.366,-0.458C0.346,-0.472 0.321,-0.479 0.291,-0.479Z" style="fill-rule:nonzero;"/>
            </g>
            <g transform="matrix(36,0,0,36,245.371,612.312)">
                <path d="M0.487,-0L0.404,-0L0.404,-0.467L0.242,-0.467C0.235,-0.383 0.227,-0.311 0.217,-0.251C0.207,-0.191 0.195,-0.142 0.18,-0.104C0.165,-0.066 0.147,-0.038 0.126,-0.02C0.105,-0.003 0.08,0.006 0.051,0.006C0.042,0.006 0.034,0.006 0.026,0.005C0.019,0.004 0.012,0.002 0.006,-0L0.006,-0.062C0.011,-0.06 0.015,-0.059 0.02,-0.059C0.024,-0.058 0.029,-0.058 0.035,-0.058C0.049,-0.058 0.063,-0.064 0.075,-0.076C0.087,-0.088 0.098,-0.107 0.108,-0.131C0.118,-0.156 0.127,-0.187 0.135,-0.225C0.143,-0.263 0.149,-0.308 0.156,-0.36C0.162,-0.411 0.167,-0.47 0.171,-0.535L0.487,-0.535L0.487,-0Z" style="fill-rule:nonzero;"/>
            </g>
            <g transform="matrix(36,0,0,36,265.973,612.312)">
                <path d="M0.111,-0L0.017,-0L0.171,-0.226C0.148,-0.23 0.128,-0.239 0.108,-0.251C0.089,-0.263 0.074,-0.279 0.062,-0.3C0.05,-0.321 0.044,-0.347 0.044,-0.377C0.044,-0.429 0.061,-0.468 0.095,-0.495C0.13,-0.522 0.175,-0.535 0.231,-0.535L0.468,-0.535L0.468,-0L0.387,-0L0.387,-0.215L0.251,-0.215L0.111,-0ZM0.123,-0.377C0.123,-0.345 0.134,-0.321 0.157,-0.306C0.18,-0.29 0.212,-0.283 0.254,-0.283L0.387,-0.283L0.387,-0.467L0.24,-0.467C0.199,-0.467 0.169,-0.459 0.15,-0.442C0.132,-0.425 0.123,-0.404 0.123,-0.377Z" style="fill-rule:nonzero;"/>
            </g>
            <g transform="matrix(36,0,0,36,285.907,612.312)">
                <path d="M0.292,-0.545C0.337,-0.545 0.376,-0.535 0.409,-0.515C0.441,-0.494 0.466,-0.466 0.483,-0.43C0.501,-0.394 0.509,-0.351 0.509,-0.303L0.509,-0.252L0.14,-0.252C0.141,-0.19 0.156,-0.142 0.187,-0.109C0.217,-0.076 0.259,-0.06 0.314,-0.06C0.348,-0.06 0.378,-0.063 0.404,-0.069C0.43,-0.075 0.457,-0.084 0.485,-0.096L0.485,-0.025C0.458,-0.013 0.432,-0.004 0.405,0.001C0.378,0.007 0.347,0.01 0.311,0.01C0.26,0.01 0.215,-0.001 0.177,-0.022C0.138,-0.043 0.109,-0.074 0.087,-0.114C0.066,-0.155 0.056,-0.205 0.056,-0.264C0.056,-0.321 0.065,-0.371 0.085,-0.413C0.104,-0.455 0.131,-0.488 0.167,-0.511C0.202,-0.534 0.244,-0.545 0.292,-0.545ZM0.291,-0.479C0.247,-0.479 0.213,-0.464 0.187,-0.436C0.161,-0.408 0.146,-0.368 0.141,-0.317L0.424,-0.317C0.424,-0.349 0.419,-0.377 0.409,-0.402C0.4,-0.426 0.385,-0.445 0.366,-0.458C0.346,-0.472 0.321,-0.479 0.291,-0.479Z" style="fill-rule:nonzero;"/>
            </g>
            <g transform="matrix(36,0,0,36,306.121,612.312)">
                <path d="M0.65,-0.535L0.65,-0L0.577,-0L0.577,-0.349C0.577,-0.363 0.578,-0.378 0.578,-0.392C0.579,-0.407 0.58,-0.422 0.582,-0.437L0.579,-0.437L0.401,-0L0.332,-0L0.159,-0.437L0.156,-0.437C0.157,-0.422 0.157,-0.407 0.158,-0.392C0.158,-0.378 0.159,-0.362 0.159,-0.346L0.159,-0L0.085,-0L0.085,-0.535L0.194,-0.535L0.367,-0.098L0.542,-0.535L0.65,-0.535Z" style="fill-rule:nonzero;"/>
            </g>
            <g transform="matrix(36,0,0,36,332.524,612.312)">
                <path d="M0.286,-0.544C0.349,-0.544 0.397,-0.53 0.428,-0.501C0.459,-0.472 0.474,-0.427 0.474,-0.364L0.474,-0L0.415,-0L0.399,-0.079L0.396,-0.079C0.381,-0.06 0.365,-0.043 0.349,-0.03C0.332,-0.017 0.314,-0.007 0.292,-0C0.271,0.006 0.245,0.01 0.214,0.01C0.181,0.01 0.152,0.004 0.127,-0.007C0.102,-0.019 0.082,-0.036 0.068,-0.059C0.053,-0.082 0.046,-0.111 0.046,-0.147C0.046,-0.2 0.067,-0.241 0.109,-0.27C0.152,-0.299 0.216,-0.314 0.303,-0.317L0.395,-0.321L0.395,-0.354C0.395,-0.4 0.385,-0.432 0.365,-0.451C0.345,-0.469 0.317,-0.479 0.281,-0.479C0.253,-0.479 0.227,-0.474 0.201,-0.466C0.176,-0.458 0.152,-0.449 0.129,-0.438L0.104,-0.499C0.128,-0.511 0.156,-0.522 0.187,-0.531C0.218,-0.54 0.251,-0.544 0.286,-0.544ZM0.394,-0.264L0.313,-0.26C0.246,-0.258 0.199,-0.247 0.171,-0.228C0.144,-0.208 0.13,-0.181 0.13,-0.146C0.13,-0.115 0.14,-0.093 0.158,-0.078C0.177,-0.063 0.201,-0.056 0.232,-0.056C0.279,-0.056 0.318,-0.069 0.349,-0.096C0.379,-0.122 0.394,-0.162 0.394,-0.214L0.394,-0.264Z" style="fill-rule:nonzero;"/>
            </g>
            <g transform="matrix(36,0,0,36,352.528,612.312)">
                <path d="M0.111,-0L0.017,-0L0.171,-0.226C0.148,-0.23 0.128,-0.239 0.108,-0.251C0.089,-0.263 0.074,-0.279 0.062,-0.3C0.05,-0.321 0.044,-0.347 0.044,-0.377C0.044,-0.429 0.061,-0.468 0.095,-0.495C0.13,-0.522 0.175,-0.535 0.231,-0.535L0.468,-0.535L0.468,-0L0.387,-0L0.387,-0.215L0.251,-0.215L0.111,-0ZM0.123,-0.377C0.123,-0.345 0.134,-0.321 0.157,-0.306C0.18,-0.29 0.212,-0.283 0.254,-0.283L0.387,-0.283L0.387,-0.467L0.24,-0.467C0.199,-0.467 0.169,-0.459 0.15,-0.442C0.132,-0.425 0.123,-0.404 0.123,-0.377Z" style="fill-rule:nonzero;"/>
            </g>
            <g transform="matrix(36,0,0,36,381.813,612.312)">
                <path d="M0.45,-0.466L0.274,-0.466L0.274,-0L0.194,-0L0.194,-0.466L0.02,-0.466L0.02,-0.535L0.45,-0.535L0.45,-0.466Z" style="fill-rule:nonzero;"/>
            </g>
            <g transform="matrix(36,0,0,36,398.758,612.312)">
                <path d="M0.547,-0.269C0.547,-0.225 0.541,-0.185 0.53,-0.151C0.518,-0.116 0.502,-0.087 0.48,-0.063C0.459,-0.04 0.433,-0.022 0.403,-0.009C0.372,0.003 0.338,0.01 0.299,0.01C0.264,0.01 0.231,0.003 0.201,-0.009C0.171,-0.022 0.145,-0.04 0.124,-0.063C0.102,-0.087 0.085,-0.116 0.073,-0.151C0.062,-0.185 0.056,-0.225 0.056,-0.269C0.056,-0.327 0.066,-0.377 0.085,-0.418C0.105,-0.459 0.134,-0.491 0.171,-0.512C0.208,-0.534 0.252,-0.545 0.303,-0.545C0.352,-0.545 0.394,-0.534 0.431,-0.512C0.468,-0.49 0.496,-0.459 0.516,-0.418C0.537,-0.377 0.547,-0.327 0.547,-0.269ZM0.14,-0.269C0.14,-0.226 0.145,-0.188 0.157,-0.157C0.168,-0.125 0.186,-0.101 0.209,-0.083C0.233,-0.066 0.264,-0.058 0.301,-0.058C0.338,-0.058 0.369,-0.066 0.393,-0.083C0.417,-0.101 0.434,-0.125 0.446,-0.157C0.457,-0.188 0.463,-0.226 0.463,-0.269C0.463,-0.311 0.457,-0.348 0.446,-0.379C0.434,-0.41 0.417,-0.434 0.393,-0.451C0.369,-0.468 0.339,-0.477 0.301,-0.477C0.245,-0.477 0.204,-0.458 0.178,-0.421C0.153,-0.385 0.14,-0.334 0.14,-0.269Z" style="fill-rule:nonzero;"/>
            </g>
            <g transform="matrix(36,0,0,36,420.414,612.312)">
                <path d="M0.156,-0.535L0.156,-0.343C0.156,-0.309 0.165,-0.285 0.184,-0.269C0.202,-0.253 0.229,-0.245 0.264,-0.245C0.298,-0.245 0.329,-0.25 0.356,-0.26C0.384,-0.271 0.412,-0.285 0.44,-0.303L0.44,-0.535L0.521,-0.535L0.521,-0L0.44,-0L0.44,-0.24C0.41,-0.221 0.381,-0.205 0.352,-0.194C0.323,-0.183 0.288,-0.178 0.248,-0.178C0.193,-0.178 0.15,-0.192 0.12,-0.221C0.09,-0.249 0.075,-0.288 0.075,-0.337L0.075,-0.535L0.156,-0.535Z" style="fill-rule:nonzero;"/>
            </g>
            <g transform="matrix(36,0,0,36,442.264,612.312)">
                <path d="M0.397,-0.535L0.487,-0.535L0.256,-0.277L0.505,-0L0.41,-0L0.167,-0.271L0.167,-0L0.085,-0L0.085,-0.535L0.167,-0.535L0.167,-0.275L0.397,-0.535Z" style="fill-rule:nonzero;"/>
            </g>
            <g transform="matrix(36,0,0,36,460.862,612.312)">
                <path d="M0.286,-0.544C0.349,-0.544 0.397,-0.53 0.428,-0.501C0.459,-0.472 0.474,-0.427 0.474,-0.364L0.474,-0L0.415,-0L0.399,-0.079L0.396,-0.079C0.381,-0.06 0.365,-0.043 0.349,-0.03C0.332,-0.017 0.314,-0.007 0.292,-0C0.271,0.006 0.245,0.01 0.214,0.01C0.181,0.01 0.152,0.004 0.127,-0.007C0.102,-0.019 0.082,-0.036 0.068,-0.059C0.053,-0.082 0.046,-0.111 0.046,-0.147C0.046,-0.2 0.067,-0.241 0.109,-0.27C0.152,-0.299 0.216,-0.314 0.303,-0.317L0.395,-0.321L0.395,-0.354C0.395,-0.4 0.385,-0.432 0.365,-0.451C0.345,-0.469 0.317,-0.479 0.281,-0.479C0.253,-0.479 0.227,-0.474 0.201,-0.466C0.176,-0.458 0.152,-0.449 0.129,-0.438L0.104,-0.499C0.128,-0.511 0.156,-0.522 0.187,-0.531C0.218,-0.54 0.251,-0.544 0.286,-0.544ZM0.394,-0.264L0.313,-0.26C0.246,-0.258 0.199,-0.247 0.171,-0.228C0.144,-0.208 0.13,-0.181 0.13,-0.146C0.13,-0.115 0.14,-0.093 0.158,-0.078C0.177,-0.063 0.201,-0.056 0.232,-0.056C0.279,-0.056 0.318,-0.069 0.349,-0.096C0.379,-0.122 0.394,-0.162 0.394,-0.214L0.394,-0.264Z" style="fill-rule:nonzero;"/>
            </g>
        </g>
        <g transform="matrix(0.41897,0,0,0.41897,1087.89,6275.69)">
            <g transform="matrix(1,0,0,1,1546.16,178.209)">
                <rect x="346" y="294" width="326" height="326" style="fill:white;stroke:black;stroke-width:2.39px;"/>
            </g>
            <g transform="matrix(1,0,0,1,568.157,178.209)">
                <rect x="346" y="294" width="326" height="326" style="fill:white;stroke:black;stroke-width:2.39px;"/>
            </g>
            <g transform="matrix(1,0,0,1,242.157,503.96)">
                <rect x="346" y="294" width="326" height="326" style="fill:white;stroke:black;stroke-width:2.39px;"/>
            </g>
            <g transform="matrix(1,0,0,1,-83.8425,-148)">
                <rect x="346" y="294" width="326" height="326" style="fill:white;stroke:black;stroke-width:2.39px;"/>
            </g>
            <g transform="matrix(1,0,0,1,-83.8425,-474.692)">
                <rect x="346" y="294" width="326" height="326" style="fill:white;stroke:black;stroke-width:2.39px;"/>
            </g>
            <g transform="matrix(1,0,0,1,-83.8425,503.96)">
                <rect x="346" y="294" width="326" height="326" style="fill:white;stroke:black;stroke-width:2.39px;"/>
            </g>
            <g transform="matrix(1,0,0,1,-83.8425,178.209)">
                <rect x="346" y="294" width="326" height="326" style="fill:white;stroke:black;stroke-width:2.39px;"/>
            </g>
            <g transform="matrix(1,0,0,1,-83.8425,830.168)">
                <rect x="346" y="294" width="326" height="326" style="fill:white;stroke:black;stroke-width:2.39px;"/>
            </g>
            <g transform="matrix(1,0,0,1,568.157,-148)">
                <rect x="346" y="294" width="326" height="326" style="fill:white;stroke:black;stroke-width:2.39px;"/>
            </g>
            <g transform="matrix(1,0,0,1,568.157,830.168)">
                <rect x="346" y="294" width="326" height="326" style="fill:white;stroke:black;stroke-width:2.39px;"/>
            </g>
            <g transform="matrix(1,0,0,1,1220.16,-148)">
                <rect x="346" y="294" width="326" height="326" style="fill:white;stroke:black;stroke-width:2.39px;"/>
            </g>
            <g transform="matrix(1,0,0,1,1220.16,830.168)">
                <rect x="346" y="294" width="326" height="326" style="fill:white;stroke:black;stroke-width:2.39px;"/>
            </g>
            <g transform="matrix(1,0,0,1,242.157,-148)">
                <rect x="346" y="294" width="326" height="326" style="fill:white;stroke:black;stroke-width:2.39px;"/>
            </g>
            <g transform="matrix(1,0,0,1,242.157,830.168)">
                <rect x="346" y="294" width="326" height="326" style="fill:white;stroke:black;stroke-width:2.39px;"/>
            </g>
            <g transform="matrix(1,0,0,1,894.157,-148)">
                <rect x="346" y="294" width="326" height="326" style="fill:white;stroke:black;stroke-width:2.39px;"/>
            </g>
            <g transform="matrix(1,0,0,1,894.157,-474.692)">
                <rect x="346" y="294" width="326" height="326" style="fill:white;stroke:black;stroke-width:2.39px;"/>
            </g>
            <g transform="matrix(1,0,0,1,894.157,503.96)">
                <rect x="346" y="294" width="326" height="326" style="fill:white;stroke:black;stroke-width:2.39px;"/>
            </g>
            <g transform="matrix(1,0,0,1,894.157,178.209)">
                <rect x="346" y="294" width="326" height="326" style="fill:white;stroke:black;stroke-width:2.39px;"/>
            </g>
            <g transform="matrix(1,0,0,1,894.157,830.168)">
                <rect x="346" y="294" width="326" height="326" style="fill:white;stroke:black;stroke-width:2.39px;"/>
            </g>
            <g transform="matrix(1,0,0,1,1546.16,-148)">
                <rect x="346" y="294" width="326" height="326" style="fill:white;stroke:black;stroke-width:2.39px;"/>
            </g>
            <g transform="matrix(1,0,0,1,1871.01,-148)">
                <rect x="346" y="294" width="326" height="326" style="fill:white;stroke:black;stroke-width:2.39px;"/>
            </g>
            <g transform="matrix(1,0,0,1,1871.01,-474.692)">
                <rect x="346" y="294" width="326" height="326" style="fill:white;stroke:black;stroke-width:2.39px;"/>
            </g>
            <g transform="matrix(1,0,0,1,1871.01,503.96)">
                <rect x="346" y="294" width="326" height="326" style="fill:white;stroke:black;stroke-width:2.39px;"/>
            </g>
            <g transform="matrix(1,0,0,1,1871.01,178.209)">
                <rect x="346" y="294" width="326" height="326" style="fill:white;stroke:black;stroke-width:2.39px;"/>
            </g>
            <g transform="matrix(1,0,0,1,1546.16,830.168)">
                <rect x="346" y="294" width="326" height="326" style="fill:white;stroke:black;stroke-width:2.39px;"/>
            </g>
            <g transform="matrix(1,0,0,1,1871.01,830.168)">
                <rect x="346" y="294" width="326" height="326" style="fill:white;stroke:black;stroke-width:2.39px;"/>
            </g>
            <g transform="matrix(1,0,0,1,568.157,-474.692)">
                <rect x="346" y="294" width="326" height="326" style="fill:white;stroke:black;stroke-width:2.39px;"/>
            </g>
            <g transform="matrix(1,0,0,1,568.157,503.96)">
                <rect x="346" y="294" width="326" height="326" style="fill:rgb(217,217,217);stroke:black;stroke-width:11.93px;"/>
            </g>
            <g transform="matrix(1,0,0,1,1220.16,-474.692)">
                <rect x="346" y="294" width="326" height="326" style="fill:white;stroke:black;stroke-width:2.39px;"/>
            </g>
            <g transform="matrix(1,0,0,1,1220.16,503.96)">
                <rect x="346" y="294" width="326" height="326" style="fill:white;stroke:black;stroke-width:2.39px;"/>
            </g>
            <g transform="matrix(1,0,0,1,1220.16,178.209)">
                <rect x="346" y="294" width="326" height="326" style="fill:rgb(217,217,217);stroke:black;stroke-width:11.93px;"/>
            </g>
            <g transform="matrix(1,0,0,1,242.157,-474.692)">
                <rect x="346" y="294" width="326" height="326" style="fill:rgb(217,217,217);stroke:black;stroke-width:11.93px;"/>
            </g>
            <g transform="matrix(1,0,0,1,242.157,178.209)">
                <rect x="346" y="294" width="326" height="326" style="fill:white;stroke:black;stroke-width:2.39px;"/>
            </g>
            <g transform="matrix(1,0,0,1,1546.16,-474.692)">
                <rect x="346" y="294" width="326" height="326" style="fill:white;stroke:black;stroke-width:2.39px;"/>
            </g>
            <g transform="matrix(1,0,0,1,1546.16,503.96)">
                <rect x="346" y="294" width="326" height="326" style="fill:white;stroke:black;stroke-width:2.39px;"/>
            </g>
        </g>
        <g transform="matrix(0.41897,0,0,0.41897,1179.09,6199.65)">
            <circle cx="207.5" cy="164.5" r="18.5" style="stroke:white;stroke-width:2.39px;"/>
        </g>
        <g transform="matrix(0.41897,0,0,0.41897,1452.1,6199.65)">
            <circle cx="207.5" cy="164.5" r="18.5" style="stroke:white;stroke-width:2.39px;"/>
        </g>
        <g transform="matrix(0.41897,0,0,0.41897,1725.47,6199.65)">
            <circle cx="207.5" cy="164.5" r="18.5" style="stroke:white;stroke-width:2.39px;"/>
        </g>
        <g transform="matrix(0.41897,0,0,0.41897,1998.47,6199.65)">
            <circle cx="207.5" cy="164.5" r="18.5" style="stroke:white;stroke-width:2.39px;"/>
        </g>
        <g transform="matrix(0.41897,0,0,0.41897,1179.09,6335.7)">
            <circle cx="207.5" cy="164.5" r="18.5" style="stroke:white;stroke-width:2.39px;"/>
        </g>
        <g transform="matrix(0.41897,0,0,0.41897,1452.1,6335.7)">
            <circle cx="207.5" cy="164.5" r="18.5" style="stroke:white;stroke-width:2.39px;"/>
        </g>
        <g transform="matrix(0.41897,0,0,0.41897,1725.47,6335.7)">
            <circle cx="207.5" cy="164.5" r="18.5" style="stroke:white;stroke-width:2.39px;"/>
        </g>
        <g transform="matrix(0.41897,0,0,0.41897,1998.47,6335.7)">
            <circle cx="207.5" cy="164.5" r="18.5" style="stroke:white;stroke-width:2.39px;"/>
        </g>
        <g transform="matrix(0.41897,0,0,0.41897,1179.09,6472.9)">
            <circle cx="207.5" cy="164.5" r="18.5" style="stroke:white;stroke-width:2.39px;"/>
        </g>
        <g transform="matrix(0.41897,0,0,0.41897,1452.1,6472.9)">
            <circle cx="207.5" cy="164.5" r="18.5" style="stroke:white;stroke-width:2.39px;"/>
        </g>
        <g transform="matrix(0.41897,0,0,0.41897,1725.47,6472.9)">
            <circle cx="207.5" cy="164.5" r="18.5" style="stroke:white;stroke-width:2.39px;"/>
        </g>
        <g transform="matrix(0.41897,0,0,0.41897,1998.47,6472.9)">
            <circle cx="207.5" cy="164.5" r="18.5" style="stroke:white;stroke-width:2.39px;"/>
        </g>
        <g transform="matrix(0.41897,0,0,0.41897,1179.09,6609.65)">
            <circle cx="207.5" cy="164.5" r="18.5" style="stroke:white;stroke-width:2.39px;"/>
        </g>
        <g transform="matrix(0.41897,0,0,0.41897,1452.1,6609.65)">
            <circle cx="207.5" cy="164.5" r="18.5" style="stroke:white;stroke-width:2.39px;"/>
        </g>
        <g transform="matrix(0.41897,0,0,0.41897,1725.47,6609.65)">
            <circle cx="207.5" cy="164.5" r="18.5" style="stroke:white;stroke-width:2.39px;"/>
        </g>
        <g transform="matrix(0.41897,0,0,0.41897,1998.47,6609.65)">
            <circle cx="207.5" cy="164.5" r="18.5" style="stroke:white;stroke-width:2.39px;"/>
        </g>
        <g transform="matrix(0.41897,0,0,0.41897,1179.09,6745.5)">
            <circle cx="207.5" cy="164.5" r="18.5" style="stroke:white;stroke-width:2.39px;"/>
        </g>
        <g transform="matrix(0.41897,0,0,0.41897,1452.1,6745.5)">
            <circle cx="207.5" cy="164.5" r="18.5" style="stroke:white;stroke-width:2.39px;"/>
        </g>
        <g transform="matrix(0.41897,0,0,0.41897,1725.47,6745.5)">
            <circle cx="207.5" cy="164.5" r="18.5" style="stroke:white;stroke-width:2.39px;"/>
        </g>
        <g transform="matrix(0.41897,0,0,0.41897,1998.47,6745.5)">
            <circle cx="207.5" cy="164.5" r="18.5" style="stroke:white;stroke-width:2.39px;"/>
        </g>
        <g transform="matrix(0.41897,0,0,0.41897,1315.9,6199.65)">
            <circle cx="207.5" cy="164.5" r="18.5" style="stroke:white;stroke-width:2.39px;"/>
        </g>
        <g transform="matrix(0.41897,0,0,0.41897,1588.91,6199.65)">
            <circle cx="207.5" cy="164.5" r="18.5" style="stroke:white;stroke-width:2.39px;"/>
        </g>
        <g transform="matrix(0.41897,0,0,0.41897,1862.28,6199.65)">
            <circle cx="207.5" cy="164.5" r="18.5" style="stroke:white;stroke-width:2.39px;"/>
        </g>
        <g transform="matrix(0.41897,0,0,0.41897,1315.9,6335.7)">
            <circle cx="207.5" cy="164.5" r="18.5" style="stroke:white;stroke-width:2.39px;"/>
        </g>
        <g transform="matrix(0.41897,0,0,0.41897,1588.91,6335.7)">
            <circle cx="207.5" cy="164.5" r="18.5" style="stroke:white;stroke-width:2.39px;"/>
        </g>
        <g transform="matrix(0.41897,0,0,0.41897,1862.28,6335.7)">
            <circle cx="207.5" cy="164.5" r="18.5" style="stroke:white;stroke-width:2.39px;"/>
        </g>
        <g transform="matrix(0.41897,0,0,0.41897,1315.9,6472.9)">
            <circle cx="207.5" cy="164.5" r="18.5" style="stroke:white;stroke-width:2.39px;"/>
        </g>
        <g transform="matrix(0.41897,0,0,0.41897,1588.91,6472.9)">
            <circle cx="207.5" cy="164.5" r="18.5" style="stroke:white;stroke-width:2.39px;"/>
        </g>
        <g transform="matrix(0.41897,0,0,0.41897,1862.28,6472.9)">
            <circle cx="207.5" cy="164.5" r="18.5" style="stroke:white;stroke-width:2.39px;"/>
        </g>
        <g transform="matrix(0.41897,0,0,0.41897,1315.9,6609.65)">
            <circle cx="207.5" cy="164.5" r="18.5" style="stroke:white;stroke-width:2.39px;"/>
        </g>
        <g transform="matrix(0.41897,0,0,0.41897,1588.91,6609.65)">
            <circle cx="207.5" cy="164.5" r="18.5" style="stroke:white;stroke-width:2.39px;"/>
        </g>
        <g transform="matrix(0.41897,0,0,0.41897,1862.28,6609.65)">
            <circle cx="207.5" cy="164.5" r="18.5" style="stroke:white;stroke-width:2.39px;"/>
        </g>
        <g transform="matrix(0.41897,0,0,0.41897,1315.9,6745.5)">
            <circle cx="207.5" cy="164.5" r="18.5" style="stroke:white;stroke-width:2.39px;"/>
        </g>
        <g transform="matrix(0.41897,0,0,0.41897,1588.91,6745.5)">
            <circle cx="207.5" cy="164.5" r="18.5" style="stroke:white;stroke-width:2.39px;"/>
        </g>
        <g transform="matrix(0.41897,0,0,0.41897,1862.28,6745.5)">
            <circle cx="207.5" cy="164.5" r="18.5" style="stroke:white;stroke-width:2.39px;"/>
        </g>
        <g id="RED1" serif:id="RED" transform="matrix(0.48,0,0,0.48,1080.26,6152.47)">
            <g transform="matrix(0.872855,0,0,0.872855,423.662,168.982)">
                <circle cx="207.5" cy="164.5" r="18.5" style="fill:rgb(255,0,0);stroke:rgb(255,0,0);stroke-width:19.89px;"/>
            </g>
            <g transform="matrix(0.872855,0,0,0.872855,847.973,1025.82)">
                <circle cx="207.5" cy="164.5" r="18.5" style="fill:rgb(255,0,0);stroke:rgb(255,0,0);stroke-width:19.89px;"/>
            </g>
            <g transform="matrix(0.872855,0,0,0.872855,1280.22,595.975)">
                <circle cx="207.5" cy="164.5" r="18.5" style="fill:rgb(255,0,0);stroke:rgb(255,0,0);stroke-width:19.89px;"/>
            </g>
        </g>
        <g transform="matrix(1,0,0,1,917.062,6090.52)">
            <g transform="matrix(48,0,0,48,435.779,290.48)">
                <path d="M0.409,-0.755C0.444,-0.755 0.475,-0.752 0.503,-0.746C0.53,-0.741 0.555,-0.733 0.577,-0.723L0.54,-0.635C0.522,-0.642 0.503,-0.647 0.484,-0.65C0.465,-0.654 0.445,-0.655 0.426,-0.655C0.393,-0.655 0.369,-0.649 0.353,-0.637C0.338,-0.624 0.33,-0.604 0.33,-0.577L0.33,-0.493L0.505,-0.493L0.491,-0.399L0.33,-0.399L0.33,-0L0.199,-0L0.199,-0.399L0.083,-0.399L0.083,-0.493L0.199,-0.493L0.199,-0.58C0.199,-0.614 0.207,-0.644 0.224,-0.671C0.241,-0.697 0.265,-0.718 0.296,-0.733C0.328,-0.748 0.365,-0.755 0.409,-0.755Z" style="fill:rgb(255,0,0);fill-rule:nonzero;"/>
            </g>
            <g transform="matrix(48,0,0,48,464.579,290.48)">
                <path d="M0.244,-0.35C0.244,-0.305 0.247,-0.264 0.255,-0.227C0.262,-0.19 0.273,-0.155 0.289,-0.121C0.305,-0.088 0.325,-0.055 0.35,-0.022C0.376,0.01 0.406,0.045 0.442,0.081L0.367,0.151C0.314,0.106 0.268,0.059 0.229,0.011C0.191,-0.038 0.161,-0.092 0.14,-0.151C0.119,-0.21 0.109,-0.276 0.109,-0.35C0.109,-0.424 0.119,-0.49 0.14,-0.549C0.161,-0.608 0.191,-0.662 0.229,-0.711C0.268,-0.76 0.314,-0.807 0.367,-0.851L0.442,-0.781C0.408,-0.746 0.378,-0.713 0.353,-0.68C0.328,-0.647 0.307,-0.614 0.291,-0.581C0.275,-0.547 0.263,-0.512 0.255,-0.474C0.248,-0.437 0.244,-0.395 0.244,-0.35Z" style="fill:rgb(255,0,0);fill-rule:nonzero;"/>
            </g>
            <g transform="matrix(48,0,0,48,493.379,290.48)">
                <path d="M0.178,-0L0.034,-0L0.22,-0.279L0.053,-0.529L0.203,-0.529L0.301,-0.35L0.398,-0.529L0.54,-0.529L0.379,-0.284L0.566,-0L0.414,-0L0.295,-0.208L0.178,-0Z" style="fill:rgb(255,0,0);fill-rule:nonzero;"/>
            </g>
            <g transform="matrix(48,0,0,48,522.179,290.48)">
                <path d="M0.3,-0.191C0.328,-0.191 0.352,-0.182 0.371,-0.163C0.39,-0.144 0.399,-0.121 0.399,-0.093C0.399,-0.076 0.396,-0.059 0.391,-0.042C0.385,-0.025 0.376,-0.003 0.364,0.024L0.289,0.195L0.194,0.195L0.244,-0.012C0.231,-0.021 0.22,-0.033 0.213,-0.047C0.206,-0.061 0.202,-0.077 0.202,-0.094C0.202,-0.121 0.211,-0.144 0.23,-0.163C0.249,-0.182 0.272,-0.191 0.3,-0.191Z" style="fill:rgb(255,0,0);fill-rule:nonzero;"/>
            </g>
            <g transform="matrix(48,0,0,48,550.979,290.48)">
                <path d="M0.56,-0.529L0.38,0.001C0.366,0.044 0.347,0.081 0.324,0.112C0.3,0.143 0.271,0.168 0.235,0.186C0.2,0.204 0.156,0.215 0.105,0.219L0.089,0.123C0.124,0.118 0.153,0.11 0.174,0.1C0.195,0.091 0.212,0.077 0.225,0.061C0.238,0.045 0.249,0.024 0.259,-0L0.214,-0L0.04,-0.529L0.18,-0.529L0.3,-0.088L0.425,-0.529L0.56,-0.529Z" style="fill:rgb(255,0,0);fill-rule:nonzero;"/>
            </g>
            <g transform="matrix(48,0,0,48,579.779,290.48)">
                <path d="M0.356,-0.35C0.356,-0.395 0.352,-0.437 0.345,-0.474C0.337,-0.512 0.325,-0.547 0.309,-0.581C0.293,-0.614 0.272,-0.647 0.247,-0.68C0.222,-0.713 0.192,-0.746 0.158,-0.781L0.233,-0.851C0.286,-0.807 0.332,-0.76 0.371,-0.711C0.409,-0.662 0.439,-0.608 0.46,-0.549C0.481,-0.49 0.491,-0.424 0.491,-0.35C0.491,-0.276 0.481,-0.21 0.46,-0.151C0.439,-0.092 0.409,-0.038 0.371,0.011C0.332,0.059 0.286,0.106 0.233,0.151L0.158,0.081C0.194,0.045 0.224,0.01 0.25,-0.022C0.275,-0.055 0.295,-0.088 0.311,-0.121C0.327,-0.155 0.338,-0.19 0.345,-0.227C0.353,-0.264 0.356,-0.305 0.356,-0.35Z" style="fill:rgb(255,0,0);fill-rule:nonzero;"/>
            </g>
        </g>
        <g transform="matrix(1,0,0,1,1330.3,6167.41)">
            <g transform="matrix(48,0,0,48,435.779,290.48)">
                <path d="M0.409,-0.755C0.444,-0.755 0.475,-0.752 0.503,-0.746C0.53,-0.741 0.555,-0.733 0.577,-0.723L0.54,-0.635C0.522,-0.642 0.503,-0.647 0.484,-0.65C0.465,-0.654 0.445,-0.655 0.426,-0.655C0.393,-0.655 0.369,-0.649 0.353,-0.637C0.338,-0.624 0.33,-0.604 0.33,-0.577L0.33,-0.493L0.505,-0.493L0.491,-0.399L0.33,-0.399L0.33,-0L0.199,-0L0.199,-0.399L0.083,-0.399L0.083,-0.493L0.199,-0.493L0.199,-0.58C0.199,-0.614 0.207,-0.644 0.224,-0.671C0.241,-0.697 0.265,-0.718 0.296,-0.733C0.328,-0.748 0.365,-0.755 0.409,-0.755Z" style="fill:rgb(255,0,0);fill-rule:nonzero;"/>
            </g>
            <g transform="matrix(48,0,0,48,464.579,290.48)">
                <path d="M0.244,-0.35C0.244,-0.305 0.247,-0.264 0.255,-0.227C0.262,-0.19 0.273,-0.155 0.289,-0.121C0.305,-0.088 0.325,-0.055 0.35,-0.022C0.376,0.01 0.406,0.045 0.442,0.081L0.367,0.151C0.314,0.106 0.268,0.059 0.229,0.011C0.191,-0.038 0.161,-0.092 0.14,-0.151C0.119,-0.21 0.109,-0.276 0.109,-0.35C0.109,-0.424 0.119,-0.49 0.14,-0.549C0.161,-0.608 0.191,-0.662 0.229,-0.711C0.268,-0.76 0.314,-0.807 0.367,-0.851L0.442,-0.781C0.408,-0.746 0.378,-0.713 0.353,-0.68C0.328,-0.647 0.307,-0.614 0.291,-0.581C0.275,-0.547 0.263,-0.512 0.255,-0.474C0.248,-0.437 0.244,-0.395 0.244,-0.35Z" style="fill:rgb(255,0,0);fill-rule:nonzero;"/>
            </g>
            <g transform="matrix(48,0,0,48,493.379,290.48)">
                <path d="M0.178,-0L0.034,-0L0.22,-0.279L0.053,-0.529L0.203,-0.529L0.301,-0.35L0.398,-0.529L0.54,-0.529L0.379,-0.284L0.566,-0L0.414,-0L0.295,-0.208L0.178,-0Z" style="fill:rgb(255,0,0);fill-rule:nonzero;"/>
            </g>
            <g transform="matrix(48,0,0,48,522.179,290.48)">
                <path d="M0.3,-0.191C0.328,-0.191 0.352,-0.182 0.371,-0.163C0.39,-0.144 0.399,-0.121 0.399,-0.093C0.399,-0.076 0.396,-0.059 0.391,-0.042C0.385,-0.025 0.376,-0.003 0.364,0.024L0.289,0.195L0.194,0.195L0.244,-0.012C0.231,-0.021 0.22,-0.033 0.213,-0.047C0.206,-0.061 0.202,-0.077 0.202,-0.094C0.202,-0.121 0.211,-0.144 0.23,-0.163C0.249,-0.182 0.272,-0.191 0.3,-0.191Z" style="fill:rgb(255,0,0);fill-rule:nonzero;"/>
            </g>
            <g transform="matrix(48,0,0,48,550.979,290.48)">
                <path d="M0.56,-0.529L0.38,0.001C0.366,0.044 0.347,0.081 0.324,0.112C0.3,0.143 0.271,0.168 0.235,0.186C0.2,0.204 0.156,0.215 0.105,0.219L0.089,0.123C0.124,0.118 0.153,0.11 0.174,0.1C0.195,0.091 0.212,0.077 0.225,0.061C0.238,0.045 0.249,0.024 0.259,-0L0.214,-0L0.04,-0.529L0.18,-0.529L0.3,-0.088L0.425,-0.529L0.56,-0.529Z" style="fill:rgb(255,0,0);fill-rule:nonzero;"/>
            </g>
            <g transform="matrix(48,0,0,48,579.779,290.48)">
                <path d="M0.356,-0.35C0.356,-0.395 0.352,-0.437 0.345,-0.474C0.337,-0.512 0.325,-0.547 0.309,-0.581C0.293,-0.614 0.272,-0.647 0.247,-0.68C0.222,-0.713 0.192,-0.746 0.158,-0.781L0.233,-0.851C0.286,-0.807 0.332,-0.76 0.371,-0.711C0.409,-0.662 0.439,-0.608 0.46,-0.549C0.481,-0.49 0.491,-0.424 0.491,-0.35C0.491,-0.276 0.481,-0.21 0.46,-0.151C0.439,-0.092 0.409,-0.038 0.371,0.011C0.332,0.059 0.286,0.106 0.233,0.151L0.158,0.081C0.194,0.045 0.224,0.01 0.25,-0.022C0.275,-0.055 0.295,-0.088 0.311,-0.121C0.327,-0.155 0.338,-0.19 0.345,-0.227C0.353,-0.264 0.356,-0.305 0.356,-0.35Z" style="fill:rgb(255,0,0);fill-rule:nonzero;"/>
            </g>
        </g>
        <g transform="matrix(1,0,0,1,1178.25,6440.25)">
            <g transform="matrix(48,0,0,48,435.779,290.48)">
                <path d="M0.409,-0.755C0.444,-0.755 0.475,-0.752 0.503,-0.746C0.53,-0.741 0.555,-0.733 0.577,-0.723L0.54,-0.635C0.522,-0.642 0.503,-0.647 0.484,-0.65C0.465,-0.654 0.445,-0.655 0.426,-0.655C0.393,-0.655 0.369,-0.649 0.353,-0.637C0.338,-0.624 0.33,-0.604 0.33,-0.577L0.33,-0.493L0.505,-0.493L0.491,-0.399L0.33,-0.399L0.33,-0L0.199,-0L0.199,-0.399L0.083,-0.399L0.083,-0.493L0.199,-0.493L0.199,-0.58C0.199,-0.614 0.207,-0.644 0.224,-0.671C0.241,-0.697 0.265,-0.718 0.296,-0.733C0.328,-0.748 0.365,-0.755 0.409,-0.755Z" style="fill:rgb(255,0,0);fill-rule:nonzero;"/>
            </g>
            <g transform="matrix(48,0,0,48,464.579,290.48)">
                <path d="M0.244,-0.35C0.244,-0.305 0.247,-0.264 0.255,-0.227C0.262,-0.19 0.273,-0.155 0.289,-0.121C0.305,-0.088 0.325,-0.055 0.35,-0.022C0.376,0.01 0.406,0.045 0.442,0.081L0.367,0.151C0.314,0.106 0.268,0.059 0.229,0.011C0.191,-0.038 0.161,-0.092 0.14,-0.151C0.119,-0.21 0.109,-0.276 0.109,-0.35C0.109,-0.424 0.119,-0.49 0.14,-0.549C0.161,-0.608 0.191,-0.662 0.229,-0.711C0.268,-0.76 0.314,-0.807 0.367,-0.851L0.442,-0.781C0.408,-0.746 0.378,-0.713 0.353,-0.68C0.328,-0.647 0.307,-0.614 0.291,-0.581C0.275,-0.547 0.263,-0.512 0.255,-0.474C0.248,-0.437 0.244,-0.395 0.244,-0.35Z" style="fill:rgb(255,0,0);fill-rule:nonzero;"/>
            </g>
            <g transform="matrix(48,0,0,48,493.379,290.48)">
                <path d="M0.178,-0L0.034,-0L0.22,-0.279L0.053,-0.529L0.203,-0.529L0.301,-0.35L0.398,-0.529L0.54,-0.529L0.379,-0.284L0.566,-0L0.414,-0L0.295,-0.208L0.178,-0Z" style="fill:rgb(255,0,0);fill-rule:nonzero;"/>
            </g>
            <g transform="matrix(48,0,0,48,522.179,290.48)">
                <path d="M0.3,-0.191C0.328,-0.191 0.352,-0.182 0.371,-0.163C0.39,-0.144 0.399,-0.121 0.399,-0.093C0.399,-0.076 0.396,-0.059 0.391,-0.042C0.385,-0.025 0.376,-0.003 0.364,0.024L0.289,0.195L0.194,0.195L0.244,-0.012C0.231,-0.021 0.22,-0.033 0.213,-0.047C0.206,-0.061 0.202,-0.077 0.202,-0.094C0.202,-0.121 0.211,-0.144 0.23,-0.163C0.249,-0.182 0.272,-0.191 0.3,-0.191Z" style="fill:rgb(255,0,0);fill-rule:nonzero;"/>
            </g>
            <g transform="matrix(48,0,0,48,550.979,290.48)">
                <path d="M0.56,-0.529L0.38,0.001C0.366,0.044 0.347,0.081 0.324,0.112C0.3,0.143 0.271,0.168 0.235,0.186C0.2,0.204 0.156,0.215 0.105,0.219L0.089,0.123C0.124,0.118 0.153,0.11 0.174,0.1C0.195,0.091 0.212,0.077 0.225,0.061C0.238,0.045 0.249,0.024 0.259,-0L0.214,-0L0.04,-0.529L0.18,-0.529L0.3,-0.088L0.425,-0.529L0.56,-0.529Z" style="fill:rgb(255,0,0);fill-rule:nonzero;"/>
            </g>
            <g transform="matrix(48,0,0,48,579.779,290.48)">
                <path d="M0.356,-0.35C0.356,-0.395 0.352,-0.437 0.345,-0.474C0.337,-0.512 0.325,-0.547 0.309,-0.581C0.293,-0.614 0.272,-0.647 0.247,-0.68C0.222,-0.713 0.192,-0.746 0.158,-0.781L0.233,-0.851C0.286,-0.807 0.332,-0.76 0.371,-0.711C0.409,-0.662 0.439,-0.608 0.46,-0.549C0.481,-0.49 0.491,-0.424 0.491,-0.35C0.491,-0.276 0.481,-0.21 0.46,-0.151C0.439,-0.092 0.409,-0.038 0.371,0.011C0.332,0.059 0.286,0.106 0.233,0.151L0.158,0.081C0.194,0.045 0.224,0.01 0.25,-0.022C0.275,-0.055 0.295,-0.088 0.311,-0.121C0.327,-0.155 0.338,-0.19 0.345,-0.227C0.353,-0.264 0.356,-0.305 0.356,-0.35Z" style="fill:rgb(255,0,0);fill-rule:nonzero;"/>
            </g>
        </g>
    </g>
</svg>
