<?xml version="1.0" encoding="UTF-8" standalone="no"?>
<!DOCTYPE svg PUBLIC "-//W3C//DTD SVG 1.1//EN" "http://www.w3.org/Graphics/SVG/1.1/DTD/svg11.dtd">
<svg width="100%" height="100%" viewBox="0 0 605 947" version="1.1" xmlns="http://www.w3.org/2000/svg" xmlns:xlink="http://www.w3.org/1999/xlink" xml:space="preserve" xmlns:serif="http://www.serif.com/" style="fill-rule:evenodd;clip-rule:evenodd;stroke-linejoin:round;stroke-miterlimit:10;">
    <rect id="Spatial-Databases-2" serif:id="Spatial Databases 2" x="-690.911" y="-599" width="3858" height="5937" style="fill:none;"/>
    <path d="M32.593,42.145L16,8.96L-0.593,42.145L32.593,42.145Z"/>
    <path d="M565.815,852.407L599,869L565.815,885.593L565.815,852.407Z"/>
    <path d="M16,35.508L16,869L572.452,869" style="fill:none;stroke:black;stroke-width:4px;"/>
    <path d="M78.341,642.826C69.244,644.82 63.477,653.825 65.471,662.923C67.465,672.02 76.47,677.787 85.567,675.793C94.665,673.799 100.432,664.794 98.438,655.696C96.444,646.599 87.439,640.832 78.341,642.826Z" style="fill:rgb(251,133,255);"/>
    <path d="M453.255,97.166C462.507,96.101 470.884,102.748 471.949,112C473.015,121.252 466.368,129.629 457.115,130.694C447.863,131.76 439.486,125.113 438.421,115.86C437.356,106.608 444.003,98.231 453.255,97.166Z" style="fill:rgb(251,133,255);"/>
    <path d="M91.845,657.142C151.288,641.878 291.936,592.427 309.602,463.359C330.829,308.27 303.972,141.037 445.127,115.088" style="fill:none;stroke:rgb(251,133,255);stroke-width:15px;"/>
    <path d="M101.326,913.218C102.926,912.498 104.826,911.928 107.026,911.508C109.226,911.088 111.526,910.878 113.926,910.878C116.006,910.878 117.746,911.128 119.146,911.628C120.546,912.128 121.656,912.838 122.476,913.758C123.296,914.678 123.876,915.778 124.216,917.058C124.556,918.338 124.726,919.778 124.726,921.378C124.726,923.138 124.666,924.908 124.546,926.688C124.426,928.468 124.356,930.218 124.336,931.938C124.316,933.658 124.366,935.328 124.486,936.948C124.606,938.568 124.906,940.098 125.386,941.538L119.026,941.538L117.766,937.398L117.466,937.398C116.666,938.638 115.556,939.708 114.136,940.608C112.716,941.508 110.886,941.958 108.646,941.958C107.246,941.958 105.986,941.748 104.866,941.328C103.746,940.908 102.786,940.308 101.986,939.528C101.186,938.748 100.566,937.828 100.126,936.768C99.686,935.708 99.466,934.518 99.466,933.198C99.466,931.358 99.876,929.808 100.696,928.548C101.516,927.288 102.696,926.268 104.236,925.488C105.776,924.708 107.616,924.168 109.756,923.868C111.896,923.568 114.286,923.478 116.926,923.598C117.206,921.358 117.046,919.748 116.446,918.768C115.846,917.788 114.506,917.298 112.426,917.298C110.866,917.298 109.216,917.458 107.476,917.778C105.736,918.098 104.306,918.518 103.186,919.038L101.326,913.218ZM111.226,935.538C112.786,935.538 114.026,935.188 114.946,934.488C115.866,933.788 116.546,933.038 116.986,932.238L116.986,928.338C115.746,928.218 114.556,928.198 113.416,928.278C112.276,928.358 111.266,928.538 110.386,928.818C109.506,929.098 108.806,929.498 108.286,930.018C107.766,930.538 107.506,931.198 107.506,931.998C107.506,933.118 107.836,933.988 108.496,934.608C109.156,935.228 110.066,935.538 111.226,935.538Z" style="fill-rule:nonzero;"/>
    <g transform="matrix(1,0,0,1,-10837.7,-1062.14)">
        <g transform="matrix(60,0,0,60,10877.1,1675.48)">
            <path d="M0.022,-0.5L0.1,-0.5L0.1,-0.528C0.1,-0.559 0.102,-0.585 0.108,-0.608C0.113,-0.631 0.121,-0.649 0.132,-0.664C0.143,-0.678 0.158,-0.689 0.176,-0.696C0.194,-0.703 0.216,-0.706 0.243,-0.706C0.264,-0.706 0.283,-0.705 0.3,-0.702C0.316,-0.699 0.333,-0.694 0.351,-0.687L0.333,-0.62C0.318,-0.627 0.303,-0.631 0.29,-0.633C0.276,-0.635 0.263,-0.636 0.251,-0.636C0.234,-0.636 0.22,-0.633 0.211,-0.628C0.201,-0.623 0.194,-0.615 0.19,-0.605C0.185,-0.594 0.183,-0.582 0.182,-0.567C0.181,-0.552 0.18,-0.534 0.18,-0.514L0.18,-0.5L0.313,-0.5L0.313,-0.43L0.18,-0.43L0.18,-0L0.1,-0L0.1,-0.43L0.022,-0.43L0.022,-0.5Z" style="fill-rule:nonzero;"/>
        </g>
        <g transform="matrix(60,0,0,60,10896.2,1675.48)">
            <path d="M0.227,0.22C0.196,0.188 0.17,0.153 0.149,0.115C0.128,0.076 0.111,0.037 0.098,-0.004C0.085,-0.044 0.075,-0.085 0.069,-0.126C0.063,-0.167 0.06,-0.206 0.06,-0.243C0.06,-0.28 0.063,-0.318 0.069,-0.359C0.075,-0.4 0.085,-0.44 0.098,-0.482C0.111,-0.523 0.129,-0.563 0.151,-0.602C0.172,-0.641 0.199,-0.678 0.23,-0.712L0.278,-0.677C0.251,-0.643 0.229,-0.608 0.212,-0.572C0.194,-0.535 0.18,-0.498 0.169,-0.461C0.158,-0.424 0.151,-0.387 0.147,-0.35C0.142,-0.313 0.14,-0.277 0.14,-0.243C0.14,-0.211 0.142,-0.176 0.148,-0.139C0.153,-0.101 0.161,-0.063 0.172,-0.026C0.183,0.012 0.197,0.049 0.215,0.085C0.232,0.121 0.253,0.154 0.278,0.183L0.227,0.22Z" style="fill-rule:nonzero;"/>
        </g>
        <g transform="matrix(60,0,0,60,10913,1675.48)">
            <path d="M0.054,-0.471C0.081,-0.483 0.112,-0.493 0.149,-0.5C0.186,-0.507 0.224,-0.51 0.264,-0.51C0.299,-0.51 0.328,-0.506 0.351,-0.498C0.374,-0.489 0.393,-0.477 0.407,-0.462C0.42,-0.447 0.43,-0.428 0.436,-0.407C0.441,-0.386 0.444,-0.362 0.444,-0.335C0.444,-0.306 0.443,-0.276 0.441,-0.247C0.439,-0.217 0.438,-0.188 0.438,-0.159C0.437,-0.13 0.438,-0.102 0.44,-0.076C0.442,-0.049 0.447,-0.023 0.455,0.001L0.349,0.001L0.328,-0.068L0.323,-0.068C0.31,-0.047 0.291,-0.029 0.268,-0.015C0.244,0 0.213,0.008 0.176,0.008C0.153,0.008 0.132,0.005 0.113,-0.003C0.094,-0.01 0.078,-0.02 0.065,-0.033C0.052,-0.046 0.041,-0.061 0.034,-0.079C0.027,-0.096 0.023,-0.116 0.023,-0.138C0.023,-0.169 0.03,-0.195 0.044,-0.216C0.057,-0.237 0.077,-0.254 0.103,-0.267C0.128,-0.28 0.159,-0.289 0.195,-0.294C0.23,-0.299 0.27,-0.3 0.314,-0.298C0.319,-0.335 0.316,-0.362 0.306,-0.379C0.296,-0.395 0.274,-0.403 0.239,-0.403C0.213,-0.403 0.186,-0.4 0.157,-0.395C0.128,-0.39 0.104,-0.383 0.085,-0.374L0.054,-0.471ZM0.219,-0.099C0.245,-0.099 0.266,-0.105 0.281,-0.117C0.296,-0.128 0.308,-0.141 0.315,-0.154L0.315,-0.219C0.294,-0.221 0.275,-0.221 0.256,-0.22C0.237,-0.219 0.22,-0.216 0.205,-0.211C0.19,-0.206 0.179,-0.2 0.17,-0.191C0.161,-0.182 0.157,-0.171 0.157,-0.158C0.157,-0.139 0.163,-0.125 0.174,-0.115C0.185,-0.104 0.2,-0.099 0.219,-0.099Z" style="fill-rule:nonzero;"/>
        </g>
        <g transform="matrix(60,0,0,60,10942.8,1675.48)">
            <path d="M0.053,-0.712C0.084,-0.68 0.11,-0.645 0.131,-0.607C0.152,-0.568 0.169,-0.529 0.183,-0.489C0.196,-0.448 0.205,-0.407 0.211,-0.367C0.217,-0.325 0.22,-0.286 0.22,-0.249C0.22,-0.212 0.217,-0.174 0.211,-0.133C0.205,-0.092 0.195,-0.052 0.182,-0.011C0.169,0.031 0.151,0.071 0.13,0.11C0.108,0.149 0.081,0.186 0.05,0.22L0.002,0.185C0.029,0.151 0.051,0.116 0.069,0.079C0.087,0.042 0.101,0.005 0.112,-0.032C0.122,-0.069 0.129,-0.106 0.134,-0.143C0.138,-0.18 0.14,-0.215 0.14,-0.249C0.14,-0.281 0.137,-0.316 0.132,-0.353C0.127,-0.39 0.118,-0.428 0.108,-0.466C0.096,-0.504 0.082,-0.541 0.065,-0.577C0.048,-0.613 0.027,-0.646 0.002,-0.675L0.053,-0.712Z" style="fill-rule:nonzero;"/>
        </g>
    </g>
    <g transform="matrix(1,0,0,1,-10459.5,-1609.72)">
        <g transform="matrix(60,0,0,60,10875.9,1675.48)">
            <path d="M0.022,-0.5L0.1,-0.5L0.1,-0.528C0.1,-0.559 0.102,-0.585 0.108,-0.608C0.113,-0.631 0.121,-0.649 0.132,-0.664C0.143,-0.678 0.158,-0.689 0.176,-0.696C0.194,-0.703 0.216,-0.706 0.243,-0.706C0.264,-0.706 0.283,-0.705 0.3,-0.702C0.316,-0.699 0.333,-0.694 0.351,-0.687L0.333,-0.62C0.318,-0.627 0.303,-0.631 0.29,-0.633C0.276,-0.635 0.263,-0.636 0.251,-0.636C0.234,-0.636 0.22,-0.633 0.211,-0.628C0.201,-0.623 0.194,-0.615 0.19,-0.605C0.185,-0.594 0.183,-0.582 0.182,-0.567C0.181,-0.552 0.18,-0.534 0.18,-0.514L0.18,-0.5L0.313,-0.5L0.313,-0.43L0.18,-0.43L0.18,-0L0.1,-0L0.1,-0.43L0.022,-0.43L0.022,-0.5Z" style="fill-rule:nonzero;"/>
        </g>
        <g transform="matrix(60,0,0,60,10895,1675.48)">
            <path d="M0.227,0.22C0.196,0.188 0.17,0.153 0.149,0.115C0.128,0.076 0.111,0.037 0.098,-0.004C0.085,-0.044 0.075,-0.085 0.069,-0.126C0.063,-0.167 0.06,-0.206 0.06,-0.243C0.06,-0.28 0.063,-0.318 0.069,-0.359C0.075,-0.4 0.085,-0.44 0.098,-0.482C0.111,-0.523 0.129,-0.563 0.151,-0.602C0.172,-0.641 0.199,-0.678 0.23,-0.712L0.278,-0.677C0.251,-0.643 0.229,-0.608 0.212,-0.572C0.194,-0.535 0.18,-0.498 0.169,-0.461C0.158,-0.424 0.151,-0.387 0.147,-0.35C0.142,-0.313 0.14,-0.277 0.14,-0.243C0.14,-0.211 0.142,-0.176 0.148,-0.139C0.153,-0.101 0.161,-0.063 0.172,-0.026C0.183,0.012 0.197,0.049 0.215,0.085C0.232,0.121 0.253,0.154 0.278,0.183L0.227,0.22Z" style="fill-rule:nonzero;"/>
        </g>
        <g transform="matrix(60,0,0,60,10911.8,1675.48)">
            <path d="M0.057,-0.7L0.187,-0.7L0.187,-0.46L0.191,-0.46C0.205,-0.476 0.223,-0.489 0.245,-0.498C0.267,-0.507 0.291,-0.512 0.318,-0.512C0.378,-0.512 0.424,-0.492 0.456,-0.451C0.487,-0.409 0.503,-0.347 0.503,-0.263C0.503,-0.173 0.481,-0.105 0.437,-0.058C0.392,-0.011 0.331,0.012 0.254,0.012C0.211,0.012 0.172,0.009 0.137,0.002C0.102,-0.006 0.075,-0.013 0.057,-0.022L0.057,-0.7ZM0.28,-0.402C0.256,-0.402 0.237,-0.396 0.222,-0.384C0.207,-0.371 0.195,-0.353 0.187,-0.33L0.187,-0.112C0.198,-0.107 0.209,-0.103 0.222,-0.101C0.234,-0.099 0.247,-0.098 0.261,-0.098C0.296,-0.098 0.323,-0.111 0.342,-0.137C0.36,-0.162 0.369,-0.203 0.369,-0.259C0.369,-0.354 0.339,-0.402 0.28,-0.402Z" style="fill-rule:nonzero;"/>
        </g>
        <g transform="matrix(60,0,0,60,10944,1675.48)">
            <path d="M0.053,-0.712C0.084,-0.68 0.11,-0.645 0.131,-0.607C0.152,-0.568 0.169,-0.529 0.183,-0.489C0.196,-0.448 0.205,-0.407 0.211,-0.367C0.217,-0.325 0.22,-0.286 0.22,-0.249C0.22,-0.212 0.217,-0.174 0.211,-0.133C0.205,-0.092 0.195,-0.052 0.182,-0.011C0.169,0.031 0.151,0.071 0.13,0.11C0.108,0.149 0.081,0.186 0.05,0.22L0.002,0.185C0.029,0.151 0.051,0.116 0.069,0.079C0.087,0.042 0.101,0.005 0.112,-0.032C0.122,-0.069 0.129,-0.106 0.134,-0.143C0.138,-0.18 0.14,-0.215 0.14,-0.249C0.14,-0.281 0.137,-0.316 0.132,-0.353C0.127,-0.39 0.118,-0.428 0.108,-0.466C0.096,-0.504 0.082,-0.541 0.065,-0.577C0.048,-0.613 0.027,-0.646 0.002,-0.675L0.053,-0.712Z" style="fill-rule:nonzero;"/>
        </g>
    </g>
    <path d="M242.28,383.836L248.904,383.836L248.904,381.148C248.904,375.068 250.184,370.668 252.744,367.948C255.304,365.228 259.016,363.868 263.88,363.868C269,363.868 273.256,364.476 276.648,365.692L274.248,375.676C272.776,375.164 271.48,374.828 270.36,374.668C269.24,374.508 268.072,374.428 266.856,374.428C265.576,374.428 264.568,374.62 263.832,375.004C263.096,375.388 262.552,375.98 262.2,376.78C261.848,377.58 261.624,378.572 261.528,379.756C261.432,380.94 261.384,382.3 261.384,383.836L271.944,383.836L271.944,394.396L261.384,394.396L261.384,431.836L248.904,431.836L248.904,394.396L242.28,394.396L242.28,383.836Z" style="fill:rgb(251,133,255);fill-rule:nonzero;"/>
    <path d="M293.789,899.478L301.589,899.478L301.589,913.878L301.829,913.878C302.669,912.918 303.749,912.158 305.069,911.598C306.389,911.038 307.849,910.758 309.449,910.758C313.049,910.758 315.799,911.988 317.699,914.448C319.599,916.908 320.549,920.658 320.549,925.698C320.549,931.098 319.219,935.198 316.559,937.998C313.899,940.798 310.249,942.198 305.609,942.198C303.049,942.198 300.709,941.988 298.589,941.568C296.469,941.148 294.869,940.678 293.789,940.158L293.789,899.478ZM307.169,917.358C305.729,917.358 304.559,917.728 303.659,918.468C302.759,919.208 302.069,920.278 301.589,921.678L301.589,934.758C302.229,935.078 302.919,935.298 303.659,935.418C304.399,935.538 305.189,935.598 306.029,935.598C308.149,935.598 309.759,934.828 310.859,933.288C311.959,931.748 312.509,929.298 312.509,925.938C312.509,920.218 310.729,917.358 307.169,917.358Z" style="fill-rule:nonzero;"/>
    <path d="M69.735,700.328L79.543,678L91.52,699.243L69.735,700.328Z"/>
    <path d="M112.156,869C86.237,791.094 84.973,786.357 80.411,695.428" style="fill:none;stroke:black;stroke-width:4px;stroke-dasharray:12,8,0,0;"/>
    <path d="M447.689,153.68L457.743,131.461L469.485,152.836L447.689,153.68Z"/>
    <path d="M307.5,869C428.128,608.323 468.023,421.956 458.418,148.898" style="fill:none;stroke:black;stroke-width:4px;stroke-dasharray:12,8,0,0;"/>
    <circle cx="115.875" cy="869" r="16.875" style="fill:rgb(45,231,231);"/>
    <circle cx="307.125" cy="869" r="16.875" style="fill:rgb(45,231,231);"/>
    <path d="M126,869L297,869" style="fill:none;stroke:rgb(45,231,231);stroke-width:15px;"/>
</svg>
