<?xml version="1.0" encoding="UTF-8" standalone="no"?>
<!DOCTYPE svg PUBLIC "-//W3C//DTD SVG 1.1//EN" "http://www.w3.org/Graphics/SVG/1.1/DTD/svg11.dtd">
<svg width="100%" height="100%" viewBox="0 0 414 415" version="1.1" xmlns="http://www.w3.org/2000/svg" xmlns:xlink="http://www.w3.org/1999/xlink" xml:space="preserve" xmlns:serif="http://www.serif.com/" style="fill-rule:evenodd;clip-rule:evenodd;stroke-linecap:round;stroke-linejoin:round;stroke-miterlimit:1.5;">
    <rect id="Spatial-Databases-2" serif:id="Spatial Databases 2" x="-242.911" y="-4485" width="3858" height="5937" style="fill:none;"/>
    <g id="Rectangles">
        <rect x="2.353" y="139.206" width="136.584" height="136.584" style="fill:rgb(191,191,191);stroke:black;stroke-width:1px;"/>
        <rect x="138.937" y="139.206" width="136.584" height="136.584" style="fill:rgb(166,166,166);stroke:black;stroke-width:1px;"/>
        <rect x="275.042" y="139.206" width="136.584" height="136.584" style="fill:rgb(153,153,153);stroke:black;stroke-width:1px;"/>
        <rect x="275.042" y="2.332" width="136.584" height="136.584" style="fill:rgb(217,217,217);stroke:black;stroke-width:1px;"/>
        <rect x="275.042" y="275.878" width="136.584" height="136.584" style="fill:rgb(140,140,140);stroke:black;stroke-width:1px;"/>
        <rect x="2.353" y="2.332" width="136.584" height="136.584" style="fill:rgb(230,230,230);stroke:black;stroke-width:1px;"/>
        <rect x="2.353" y="275.878" width="136.584" height="136.584" style="fill:rgb(102,102,102);stroke:black;stroke-width:1px;"/>
        <rect x="138.937" y="2.332" width="136.584" height="136.584" style="fill:rgb(191,191,191);stroke:black;stroke-width:1px;"/>
        <rect x="138.937" y="275.878" width="136.584" height="136.584" style="fill:rgb(128,128,128);stroke:black;stroke-width:1px;"/>
    </g>
    <g id="Height-Normal" serif:id="Height Normal">
        <path d="M189.886,218.234C191.998,218.234 193.614,217.722 194.734,216.698C195.854,215.674 196.414,214.266 196.414,212.474C196.414,210.554 195.758,209.146 194.446,208.25C193.134,207.354 191.262,206.906 188.83,206.906L185.038,207.05L185.038,189.482L201.55,189.482L201.55,195.338L190.414,195.338L190.414,201.818L192.382,201.626C193.95,201.69 195.366,201.978 196.63,202.49C197.894,203.002 198.974,203.714 199.87,204.626C200.766,205.538 201.454,206.642 201.934,207.938C202.414,209.234 202.654,210.682 202.654,212.282C202.654,214.17 202.334,215.834 201.694,217.274C201.054,218.714 200.166,219.914 199.03,220.874C197.894,221.834 196.558,222.554 195.022,223.034C193.486,223.514 191.806,223.754 189.982,223.754C188.542,223.754 187.174,223.634 185.878,223.394C184.582,223.154 183.486,222.826 182.59,222.41L184.27,217.226C185.006,217.546 185.814,217.794 186.694,217.97C187.574,218.146 188.638,218.234 189.886,218.234Z" style="fill-rule:nonzero;"/>
        <path d="M233.086,213.722L227.806,213.722L227.806,223.082L221.998,223.082L221.998,213.722L207.454,213.722L207.454,210.17L222.67,189.242L227.806,189.242L227.806,208.73L233.086,208.73L233.086,213.722ZM221.998,201.386L222.43,197.354L222.238,197.354L220.606,200.81L215.614,207.29L213.214,209.114L216.286,208.73L221.998,208.73L221.998,201.386Z" style="fill-rule:nonzero;"/>
        <path d="M324.061,83.022L336.109,54.894L338.221,52.542L335.389,52.974L321.709,52.974L321.709,49.422L341.773,49.422L341.773,50.718L327.949,83.022L324.061,83.022Z" style="fill-rule:nonzero;"/>
        <path d="M347.005,66.222C347.005,60.462 347.941,56.126 349.813,53.214C351.685,50.302 354.413,48.846 357.997,48.846C361.869,48.846 364.677,50.278 366.421,53.142C368.165,56.006 369.037,60.366 369.037,66.222C369.037,71.982 368.101,76.318 366.229,79.23C364.357,82.142 361.613,83.598 357.997,83.598C354.189,83.598 351.405,82.078 349.645,79.038C347.885,75.998 347.005,71.726 347.005,66.222ZM350.989,66.222C350.989,68.302 351.125,70.198 351.397,71.91C351.669,73.622 352.093,75.094 352.669,76.326C353.245,77.558 353.973,78.518 354.853,79.206C355.733,79.894 356.781,80.238 357.997,80.238C360.429,80.238 362.213,79.11 363.349,76.854C364.485,74.598 365.053,71.054 365.053,66.222C365.053,64.174 364.933,62.286 364.693,60.558C364.453,58.83 364.053,57.342 363.493,56.094C362.933,54.846 362.205,53.886 361.309,53.214C360.413,52.542 359.309,52.206 357.997,52.206C355.597,52.206 353.829,53.342 352.693,55.614C351.557,57.886 350.989,61.422 350.989,66.222Z" style="fill-rule:nonzero;"/>
        <path d="M327.591,220.514C329.799,220.514 331.623,219.874 333.063,218.594C334.503,217.314 335.223,215.458 335.223,213.026C335.223,210.69 334.511,208.946 333.087,207.794C331.663,206.642 329.703,206.066 327.207,206.066L323.175,206.306L323.175,189.698L338.151,189.698L338.151,193.25L326.775,193.25L326.775,202.802L328.839,202.706C332.007,202.738 334.503,203.618 336.327,205.346C338.151,207.074 339.063,209.554 339.063,212.786C339.063,214.578 338.759,216.17 338.151,217.562C337.543,218.954 336.719,220.114 335.679,221.042C334.639,221.97 333.415,222.674 332.007,223.154C330.599,223.634 329.095,223.874 327.495,223.874C326.055,223.874 324.839,223.794 323.847,223.634C322.855,223.474 321.927,223.234 321.063,222.914L322.071,219.65C322.807,219.938 323.599,220.154 324.447,220.298C325.295,220.442 326.343,220.514 327.591,220.514Z" style="fill-rule:nonzero;"/>
        <path d="M364.935,197.33C364.935,199.026 364.623,200.762 363.999,202.538C363.375,204.314 362.559,206.098 361.551,207.89C360.543,209.682 359.415,211.434 358.167,213.146C356.919,214.858 355.671,216.482 354.423,218.018L352.071,220.082L352.071,220.274L355.143,219.746L365.607,219.746L365.607,223.298L346.503,223.298L346.503,221.906C347.207,221.17 348.055,220.258 349.047,219.17C350.039,218.082 351.071,216.874 352.143,215.546C353.215,214.218 354.271,212.81 355.311,211.322C356.351,209.834 357.295,208.322 358.143,206.786C358.991,205.25 359.671,203.73 360.183,202.226C360.695,200.722 360.951,199.298 360.951,197.954C360.951,196.386 360.503,195.082 359.607,194.042C358.711,193.002 357.351,192.482 355.527,192.482C354.311,192.482 353.127,192.73 351.975,193.226C350.823,193.722 349.831,194.29 348.999,194.93L347.415,192.194C348.535,191.234 349.863,190.482 351.399,189.938C352.935,189.394 354.583,189.122 356.343,189.122C357.719,189.122 358.935,189.322 359.991,189.722C361.047,190.122 361.943,190.69 362.679,191.426C363.415,192.162 363.975,193.034 364.359,194.042C364.743,195.05 364.935,196.146 364.935,197.33Z" style="fill-rule:nonzero;"/>
        <path d="M344.749,349.65L339.085,349.65L339.085,359.97L335.341,359.97L335.341,349.65L320.557,349.65L320.557,348.066L336.493,325.842L339.085,325.842L339.085,346.29L344.749,346.29L344.749,349.65ZM335.341,335.826L335.821,331.89L335.677,331.89L333.997,335.154L327.229,344.322L324.925,346.674L328.285,346.29L335.341,346.29L335.341,335.826Z" style="fill-rule:nonzero;"/>
        <path d="M348.253,336.546C348.253,335.01 348.477,333.586 348.925,332.274C349.373,330.962 350.029,329.826 350.893,328.866C351.757,327.906 352.837,327.154 354.133,326.61C355.429,326.066 356.941,325.794 358.669,325.794C361.933,325.794 364.477,326.85 366.301,328.962C368.125,331.074 369.037,334.05 369.037,337.89C369.037,341.506 368.629,344.666 367.813,347.37C366.997,350.074 365.869,352.354 364.429,354.21C362.989,356.066 361.285,357.514 359.317,358.554C357.349,359.594 355.213,360.258 352.909,360.546L352.045,357.474C353.901,357.186 355.573,356.642 357.061,355.842C358.549,355.042 359.829,354.034 360.901,352.818C361.973,351.602 362.845,350.218 363.517,348.666C364.189,347.114 364.653,345.426 364.909,343.602C364.045,344.626 363.093,345.338 362.053,345.738C361.013,346.138 359.645,346.338 357.949,346.338C356.637,346.338 355.397,346.122 354.229,345.69C353.061,345.258 352.029,344.626 351.133,343.794C350.237,342.962 349.533,341.938 349.021,340.722C348.509,339.506 348.253,338.114 348.253,336.546ZM352.237,336.162C352.237,338.434 352.837,340.138 354.037,341.274C355.237,342.41 356.813,342.978 358.765,342.978C360.333,342.978 361.677,342.722 362.797,342.21C363.917,341.698 364.717,341.026 365.197,340.194C365.261,339.778 365.293,339.41 365.293,339.09L365.293,338.082C365.293,336.93 365.157,335.818 364.885,334.746C364.613,333.674 364.205,332.714 363.661,331.866C363.117,331.018 362.405,330.354 361.525,329.874C360.645,329.394 359.613,329.154 358.429,329.154C356.477,329.154 354.957,329.77 353.869,331.002C352.781,332.234 352.237,333.954 352.237,336.162Z" style="fill-rule:nonzero;"/>
        <path d="M207.709,351.226L202.045,351.226L202.045,361.546L198.301,361.546L198.301,351.226L183.517,351.226L183.517,349.642L199.453,327.418L202.045,327.418L202.045,347.866L207.709,347.866L207.709,351.226ZM198.301,337.402L198.781,333.466L198.637,333.466L196.957,336.73L190.189,345.898L187.885,348.25L191.245,347.866L198.301,347.866L198.301,337.402Z" style="fill-rule:nonzero;"/>
        <path d="M213.901,357.994L220.621,357.994L220.621,334.762L221.101,331.93L219.181,334.186L213.901,337.978L212.077,335.53L222.637,327.37L224.365,327.37L224.365,357.994L230.941,357.994L230.941,361.546L213.901,361.546L213.901,357.994Z" style="fill-rule:nonzero;"/>
        <path d="M50.965,358.762C52.053,358.762 53.061,358.602 53.989,358.282C54.917,357.962 55.717,357.49 56.389,356.866C57.061,356.242 57.589,355.498 57.973,354.634C58.357,353.77 58.549,352.826 58.549,351.802C58.549,349.562 57.885,347.898 56.557,346.81C55.229,345.722 53.397,345.178 51.061,345.178L47.509,345.178L47.509,343.786L54.421,333.13L56.629,331.018L53.509,331.498L44.005,331.498L44.005,327.946L61.141,327.946L61.141,329.338L53.509,340.81L51.829,342.202L51.829,342.298L53.461,341.962C54.741,341.994 55.925,342.226 57.013,342.658C58.101,343.09 59.045,343.714 59.845,344.53C60.645,345.346 61.269,346.322 61.717,347.458C62.165,348.594 62.389,349.882 62.389,351.322C62.389,353.05 62.085,354.586 61.477,355.93C60.869,357.274 60.045,358.402 59.005,359.314C57.965,360.226 56.741,360.922 55.333,361.402C53.925,361.882 52.437,362.122 50.869,362.122C49.429,362.122 48.133,362.01 46.981,361.786C45.829,361.562 44.821,361.274 43.957,360.922L44.965,357.514C45.701,357.866 46.573,358.162 47.581,358.402C48.589,358.642 49.717,358.762 50.965,358.762Z" style="fill-rule:nonzero;"/>
        <path d="M87.301,335.578C87.301,337.274 86.989,339.01 86.365,340.786C85.741,342.562 84.925,344.346 83.917,346.138C82.909,347.93 81.781,349.682 80.533,351.394C79.285,353.106 78.037,354.73 76.789,356.266L74.437,358.33L74.437,358.522L77.509,357.994L87.973,357.994L87.973,361.546L68.869,361.546L68.869,360.154C69.573,359.418 70.421,358.506 71.413,357.418C72.405,356.33 73.437,355.122 74.509,353.794C75.581,352.466 76.637,351.058 77.677,349.57C78.717,348.082 79.661,346.57 80.509,345.034C81.357,343.498 82.037,341.978 82.549,340.474C83.061,338.97 83.317,337.546 83.317,336.202C83.317,334.634 82.869,333.33 81.973,332.29C81.077,331.25 79.717,330.73 77.893,330.73C76.677,330.73 75.493,330.978 74.341,331.474C73.189,331.97 72.197,332.538 71.365,333.178L69.781,330.442C70.901,329.482 72.229,328.73 73.765,328.186C75.301,327.642 76.949,327.37 78.709,327.37C80.085,327.37 81.301,327.57 82.357,327.97C83.413,328.37 84.309,328.938 85.045,329.674C85.781,330.41 86.341,331.282 86.725,332.29C87.109,333.298 87.301,334.394 87.301,335.578Z" style="fill-rule:nonzero;"/>
        <path d="M63.597,211.943C63.597,213.415 63.373,214.799 62.925,216.095C62.477,217.391 61.821,218.527 60.957,219.503C60.093,220.479 59.021,221.247 57.741,221.807C56.461,222.367 55.005,222.647 53.373,222.647C51.773,222.647 50.333,222.391 49.053,221.879C47.773,221.367 46.669,220.607 45.741,219.599C44.813,218.591 44.101,217.351 43.605,215.879C43.109,214.407 42.861,212.711 42.861,210.791C42.861,207.623 43.269,204.703 44.085,202.031C44.901,199.359 46.029,197.031 47.469,195.047C48.909,193.063 50.613,191.455 52.581,190.223C54.549,188.991 56.685,188.215 58.989,187.895L59.805,190.967C58.013,191.287 56.381,191.895 54.909,192.791C53.437,193.687 52.149,194.791 51.045,196.103C49.941,197.415 49.037,198.887 48.333,200.519C47.629,202.151 47.149,203.831 46.893,205.559C47.405,204.695 48.269,203.903 49.485,203.183C50.701,202.463 52.189,202.103 53.949,202.103C56.957,202.103 59.317,202.967 61.029,204.695C62.741,206.423 63.597,208.839 63.597,211.943ZM59.613,212.327C59.613,210.055 59.085,208.343 58.029,207.191C56.973,206.039 55.341,205.463 53.133,205.463C51.565,205.463 50.213,205.847 49.077,206.615C47.941,207.383 47.149,208.247 46.701,209.207C46.637,209.655 46.605,210.023 46.605,210.311L46.605,211.271C46.605,212.263 46.741,213.239 47.013,214.199C47.285,215.159 47.709,216.015 48.285,216.767C48.861,217.519 49.573,218.127 50.421,218.591C51.269,219.055 52.269,219.287 53.421,219.287C54.349,219.287 55.189,219.111 55.941,218.759C56.693,218.407 57.341,217.927 57.885,217.319C58.429,216.711 58.853,215.975 59.157,215.111C59.461,214.247 59.613,213.319 59.613,212.327Z" style="fill-rule:nonzero;"/>
        <path d="M89.757,211.943C89.757,213.415 89.533,214.799 89.085,216.095C88.637,217.391 87.981,218.527 87.117,219.503C86.253,220.479 85.181,221.247 83.901,221.807C82.621,222.367 81.165,222.647 79.533,222.647C77.933,222.647 76.493,222.391 75.213,221.879C73.933,221.367 72.829,220.607 71.901,219.599C70.973,218.591 70.261,217.351 69.765,215.879C69.269,214.407 69.021,212.711 69.021,210.791C69.021,207.623 69.429,204.703 70.245,202.031C71.061,199.359 72.189,197.031 73.629,195.047C75.069,193.063 76.773,191.455 78.741,190.223C80.709,188.991 82.845,188.215 85.149,187.895L85.965,190.967C84.173,191.287 82.541,191.895 81.069,192.791C79.597,193.687 78.309,194.791 77.205,196.103C76.101,197.415 75.197,198.887 74.493,200.519C73.789,202.151 73.309,203.831 73.053,205.559C73.565,204.695 74.429,203.903 75.645,203.183C76.861,202.463 78.349,202.103 80.109,202.103C83.117,202.103 85.477,202.967 87.189,204.695C88.901,206.423 89.757,208.839 89.757,211.943ZM85.773,212.327C85.773,210.055 85.245,208.343 84.189,207.191C83.133,206.039 81.501,205.463 79.293,205.463C77.725,205.463 76.373,205.847 75.237,206.615C74.101,207.383 73.309,208.247 72.861,209.207C72.797,209.655 72.765,210.023 72.765,210.311L72.765,211.271C72.765,212.263 72.901,213.239 73.173,214.199C73.445,215.159 73.869,216.015 74.445,216.767C75.021,217.519 75.733,218.127 76.581,218.591C77.429,219.055 78.429,219.287 79.581,219.287C80.509,219.287 81.349,219.111 82.101,218.759C82.853,218.407 83.501,217.927 84.045,217.319C84.589,216.711 85.013,215.975 85.317,215.111C85.621,214.247 85.773,213.319 85.773,212.327Z" style="fill-rule:nonzero;"/>
        <path d="M44.701,84.022L56.749,55.894L58.861,53.542L56.029,53.974L42.349,53.974L42.349,50.422L62.413,50.422L62.413,51.718L48.589,84.022L44.701,84.022Z" style="fill-rule:nonzero;"/>
        <path d="M86.989,58.054C86.989,59.75 86.677,61.486 86.053,63.262C85.429,65.038 84.613,66.822 83.605,68.614C82.597,70.406 81.469,72.158 80.221,73.87C78.973,75.582 77.725,77.206 76.477,78.742L74.125,80.806L74.125,80.998L77.197,80.47L87.661,80.47L87.661,84.022L68.557,84.022L68.557,82.63C69.261,81.894 70.109,80.982 71.101,79.894C72.093,78.806 73.125,77.598 74.197,76.27C75.269,74.942 76.325,73.534 77.365,72.046C78.405,70.558 79.349,69.046 80.197,67.51C81.045,65.974 81.725,64.454 82.237,62.95C82.749,61.446 83.005,60.022 83.005,58.678C83.005,57.11 82.557,55.806 81.661,54.766C80.765,53.726 79.405,53.206 77.581,53.206C76.365,53.206 75.181,53.454 74.029,53.95C72.877,54.446 71.885,55.014 71.053,55.654L69.469,52.918C70.589,51.958 71.917,51.206 73.453,50.662C74.989,50.118 76.637,49.846 78.397,49.846C79.773,49.846 80.989,50.046 82.045,50.446C83.101,50.846 83.997,51.414 84.733,52.15C85.469,52.886 86.029,53.758 86.413,54.766C86.797,55.774 86.989,56.87 86.989,58.054Z" style="fill-rule:nonzero;"/>
        <path d="M203.877,73.318C203.877,74.79 203.653,76.174 203.205,77.47C202.757,78.766 202.101,79.902 201.237,80.878C200.373,81.854 199.301,82.622 198.021,83.182C196.741,83.742 195.285,84.022 193.653,84.022C192.053,84.022 190.613,83.766 189.333,83.254C188.053,82.742 186.949,81.982 186.021,80.974C185.093,79.966 184.381,78.726 183.885,77.254C183.389,75.782 183.141,74.086 183.141,72.166C183.141,68.998 183.549,66.078 184.365,63.406C185.181,60.734 186.309,58.406 187.749,56.422C189.189,54.438 190.893,52.83 192.861,51.598C194.829,50.366 196.965,49.59 199.269,49.27L200.085,52.342C198.293,52.662 196.661,53.27 195.189,54.166C193.717,55.062 192.429,56.166 191.325,57.478C190.221,58.79 189.317,60.262 188.613,61.894C187.909,63.526 187.429,65.206 187.173,66.934C187.685,66.07 188.549,65.278 189.765,64.558C190.981,63.838 192.469,63.478 194.229,63.478C197.237,63.478 199.597,64.342 201.309,66.07C203.021,67.798 203.877,70.214 203.877,73.318ZM199.893,73.702C199.893,71.43 199.365,69.718 198.309,68.566C197.253,67.414 195.621,66.838 193.413,66.838C191.845,66.838 190.493,67.222 189.357,67.99C188.221,68.758 187.429,69.622 186.981,70.582C186.917,71.03 186.885,71.398 186.885,71.686L186.885,72.646C186.885,73.638 187.021,74.614 187.293,75.574C187.565,76.534 187.989,77.39 188.565,78.142C189.141,78.894 189.853,79.502 190.701,79.966C191.549,80.43 192.549,80.662 193.701,80.662C194.629,80.662 195.469,80.486 196.221,80.134C196.973,79.782 197.621,79.302 198.165,78.694C198.709,78.086 199.133,77.35 199.437,76.486C199.741,75.622 199.893,74.694 199.893,73.702Z" style="fill-rule:nonzero;"/>
        <path d="M209.685,75.43C209.685,73.414 210.213,71.662 211.269,70.174C212.325,68.686 213.973,67.334 216.213,66.118C215.413,65.638 214.669,65.134 213.981,64.606C213.293,64.078 212.685,63.478 212.157,62.806C211.629,62.134 211.213,61.382 210.909,60.55C210.605,59.718 210.453,58.758 210.453,57.67C210.453,56.422 210.669,55.286 211.101,54.262C211.533,53.238 212.157,52.358 212.973,51.622C213.789,50.886 214.765,50.31 215.901,49.894C217.037,49.478 218.325,49.27 219.765,49.27C221.109,49.27 222.325,49.462 223.413,49.846C224.501,50.23 225.421,50.758 226.173,51.43C226.925,52.102 227.509,52.902 227.925,53.83C228.341,54.758 228.549,55.782 228.549,56.902C228.549,58.726 228.133,60.334 227.301,61.726C226.469,63.118 225.093,64.486 223.173,65.83C224.005,66.31 224.797,66.838 225.549,67.414C226.301,67.99 226.957,68.63 227.517,69.334C228.077,70.038 228.517,70.83 228.837,71.71C229.157,72.59 229.317,73.59 229.317,74.71C229.317,76.086 229.093,77.342 228.645,78.478C228.197,79.614 227.541,80.59 226.677,81.406C225.813,82.222 224.757,82.862 223.509,83.326C222.261,83.79 220.837,84.022 219.237,84.022C217.701,84.022 216.341,83.798 215.157,83.35C213.973,82.902 212.973,82.294 212.157,81.526C211.341,80.758 210.725,79.854 210.309,78.814C209.893,77.774 209.685,76.646 209.685,75.43ZM225.573,74.95C225.573,73.99 225.381,73.15 224.997,72.43C224.613,71.71 224.109,71.054 223.485,70.462C222.861,69.87 222.149,69.334 221.349,68.854C220.549,68.374 219.717,67.91 218.853,67.462C216.901,68.55 215.509,69.766 214.677,71.11C213.845,72.454 213.429,73.734 213.429,74.95C213.429,75.718 213.557,76.454 213.813,77.158C214.069,77.862 214.453,78.47 214.965,78.982C215.477,79.494 216.109,79.902 216.861,80.206C217.613,80.51 218.485,80.662 219.477,80.662C220.277,80.662 221.045,80.542 221.781,80.302C222.517,80.062 223.165,79.71 223.725,79.246C224.285,78.782 224.733,78.19 225.069,77.47C225.405,76.75 225.573,75.91 225.573,74.95ZM214.197,57.574C214.197,58.47 214.373,59.262 214.725,59.95C215.077,60.638 215.549,61.254 216.141,61.798C216.733,62.342 217.413,62.846 218.181,63.31C218.949,63.774 219.749,64.214 220.581,64.63C222.021,63.51 223.085,62.406 223.773,61.318C224.461,60.23 224.805,59.03 224.805,57.718C224.805,56.086 224.301,54.83 223.293,53.95C222.285,53.07 221.077,52.63 219.669,52.63C218.805,52.63 218.037,52.774 217.365,53.062C216.693,53.35 216.117,53.718 215.637,54.166C215.157,54.614 214.797,55.134 214.557,55.726C214.317,56.318 214.197,56.934 214.197,57.574Z" style="fill-rule:nonzero;"/>
    </g>
</svg>
