<?xml version="1.0" encoding="UTF-8" standalone="no"?>
<!DOCTYPE svg PUBLIC "-//W3C//DTD SVG 1.1//EN" "http://www.w3.org/Graphics/SVG/1.1/DTD/svg11.dtd">
<svg width="100%" height="100%" viewBox="0 0 645 302" version="1.1" xmlns="http://www.w3.org/2000/svg" xmlns:xlink="http://www.w3.org/1999/xlink" xml:space="preserve" xmlns:serif="http://www.serif.com/" style="fill-rule:evenodd;clip-rule:evenodd;stroke-linecap:square;stroke-linejoin:round;stroke-miterlimit:10;">
    <rect id="Geometric-Operations" serif:id="Geometric Operations" x="-2107" y="-805" width="6739" height="2861" style="fill:none;"/>
    <g id="Geometric-Operations1" serif:id="Geometric Operations">
        <path d="M14.227,58.622L632,72" style="fill:none;stroke:black;stroke-width:2px;stroke-dasharray:2,6,0,0;"/>
        <path d="M140.914,282.148L538.806,287.148" style="fill:none;stroke:black;stroke-width:2px;stroke-dasharray:2,6,0,0;"/>
        <path d="M219.184,240L371.799,194.711" style="fill:none;stroke:black;stroke-width:2px;stroke-dasharray:2,6,0,0;"/>
        <circle cx="14.227" cy="59.018" r="11.72" style="fill:rgb(21,183,183);"/>
        <circle cx="115.919" cy="22.692" r="11.72" style="fill:rgb(21,183,183);"/>
        <circle cx="53.325" cy="178.548" r="11.72" style="fill:rgb(21,183,183);"/>
        <circle cx="195.61" cy="174.998" r="11.72" style="fill:rgb(21,183,183);"/>
        <circle cx="120.203" cy="118.168" r="11.72" style="fill:rgb(21,183,183);"/>
        <circle cx="219.184" cy="118.477" r="11.72" style="fill:rgb(21,183,183);"/>
        <circle cx="140.091" cy="282.541" r="11.72" style="fill:rgb(21,183,183);"/>
        <circle cx="219.184" cy="240.465" r="11.72" style="fill:rgb(21,183,183);"/>
        <circle cx="232.925" cy="17.37" r="11.72" style="fill:rgb(21,183,183);"/>
        <circle cx="476.814" cy="30.5" r="11.72" style="fill:rgb(247,0,255);"/>
        <circle cx="538.806" cy="287.148" r="11.72" style="fill:rgb(247,0,255);"/>
        <circle cx="399.015" cy="95.036" r="11.72" style="fill:rgb(247,0,255);"/>
        <circle cx="562.628" cy="130.197" r="11.72" style="fill:rgb(247,0,255);"/>
        <circle cx="472.355" cy="214.782" r="11.72" style="fill:rgb(247,0,255);"/>
        <circle cx="371.799" cy="194.711" r="11.72" style="fill:rgb(247,0,255);"/>
        <circle cx="438.459" cy="150.965" r="11.72" style="fill:rgb(247,0,255);"/>
        <circle cx="604.377" cy="13.077" r="11.72" style="fill:rgb(247,0,255);"/>
        <circle cx="630.723" cy="72.571" r="11.72" style="fill:rgb(247,0,255);"/>
        <path d="M303.537,38.65C303.377,36.986 303.457,35.57 303.777,34.402C304.097,33.234 304.537,32.226 305.097,31.378C305.657,30.53 306.297,29.794 307.017,29.17C307.737,28.546 308.409,27.946 309.033,27.37C309.657,26.794 310.177,26.194 310.593,25.57C311.009,24.946 311.217,24.202 311.217,23.338C311.217,22.218 310.905,21.322 310.281,20.65C309.657,19.978 308.545,19.642 306.945,19.642C306.433,19.642 305.889,19.698 305.313,19.81C304.737,19.922 304.161,20.082 303.585,20.29C303.009,20.498 302.457,20.738 301.929,21.01C301.401,21.282 300.929,21.562 300.513,21.85L298.113,17.242C299.329,16.41 300.729,15.722 302.313,15.178C303.897,14.634 305.809,14.362 308.049,14.362C311.057,14.362 313.409,15.09 315.105,16.546C316.801,18.002 317.649,19.962 317.649,22.426C317.649,24.058 317.433,25.41 317.001,26.482C316.569,27.554 316.033,28.466 315.393,29.218C314.753,29.97 314.049,30.634 313.281,31.21C312.513,31.786 311.809,32.402 311.169,33.058C310.529,33.714 309.985,34.474 309.537,35.338C309.089,36.202 308.865,37.306 308.865,38.65L303.537,38.65ZM302.577,45.466C302.577,44.346 302.929,43.458 303.633,42.802C304.337,42.146 305.265,41.818 306.417,41.818C307.633,41.818 308.593,42.146 309.297,42.802C310.001,43.458 310.353,44.346 310.353,45.466C310.353,46.586 310.001,47.482 309.297,48.154C308.593,48.826 307.633,49.162 306.417,49.162C305.265,49.162 304.337,48.826 303.633,48.154C302.929,47.482 302.577,46.586 302.577,45.466Z" style="fill-rule:nonzero;"/>
        <path d="M299.902,192.123C299.742,190.459 299.822,189.043 300.142,187.875C300.462,186.707 300.902,185.699 301.462,184.851C302.022,184.003 302.662,183.267 303.382,182.643C304.102,182.019 304.774,181.419 305.398,180.843C306.022,180.267 306.542,179.667 306.958,179.043C307.374,178.419 307.582,177.675 307.582,176.811C307.582,175.691 307.27,174.795 306.646,174.123C306.022,173.451 304.91,173.115 303.31,173.115C302.798,173.115 302.254,173.171 301.678,173.283C301.102,173.395 300.526,173.555 299.95,173.763C299.374,173.971 298.822,174.211 298.294,174.483C297.766,174.755 297.294,175.035 296.878,175.323L294.478,170.715C295.694,169.883 297.094,169.195 298.678,168.651C300.262,168.107 302.174,167.835 304.414,167.835C307.422,167.835 309.774,168.563 311.47,170.019C313.166,171.475 314.014,173.435 314.014,175.899C314.014,177.531 313.798,178.883 313.366,179.955C312.934,181.027 312.398,181.939 311.758,182.691C311.118,183.443 310.414,184.107 309.646,184.683C308.878,185.259 308.174,185.875 307.534,186.531C306.894,187.187 306.35,187.947 305.902,188.811C305.454,189.675 305.23,190.779 305.23,192.123L299.902,192.123ZM298.942,198.939C298.942,197.819 299.294,196.931 299.998,196.275C300.702,195.619 301.63,195.291 302.782,195.291C303.998,195.291 304.958,195.619 305.662,196.275C306.366,196.931 306.718,197.819 306.718,198.939C306.718,200.059 306.366,200.955 305.662,201.627C304.958,202.299 303.998,202.635 302.782,202.635C301.63,202.635 300.702,202.299 299.998,201.627C299.294,200.955 298.942,200.059 298.942,198.939Z" style="fill-rule:nonzero;"/>
        <path d="M381.344,264.918C381.184,263.254 381.264,261.838 381.584,260.67C381.904,259.502 382.344,258.494 382.904,257.646C383.464,256.798 384.104,256.062 384.824,255.438C385.544,254.814 386.216,254.214 386.84,253.638C387.464,253.062 387.984,252.462 388.4,251.838C388.816,251.214 389.024,250.47 389.024,249.606C389.024,248.486 388.712,247.59 388.088,246.918C387.464,246.246 386.352,245.91 384.752,245.91C384.24,245.91 383.696,245.966 383.12,246.078C382.544,246.19 381.968,246.35 381.392,246.558C380.816,246.766 380.264,247.006 379.736,247.278C379.208,247.55 378.736,247.83 378.32,248.118L375.92,243.51C377.136,242.678 378.536,241.99 380.12,241.446C381.704,240.902 383.616,240.63 385.856,240.63C388.864,240.63 391.216,241.358 392.912,242.814C394.608,244.27 395.456,246.23 395.456,248.694C395.456,250.326 395.24,251.678 394.808,252.75C394.376,253.822 393.84,254.734 393.2,255.486C392.56,256.238 391.856,256.902 391.088,257.478C390.32,258.054 389.616,258.67 388.976,259.326C388.336,259.982 387.792,260.742 387.344,261.606C386.896,262.47 386.672,263.574 386.672,264.918L381.344,264.918ZM380.384,271.734C380.384,270.614 380.736,269.726 381.44,269.07C382.144,268.414 383.072,268.086 384.224,268.086C385.44,268.086 386.4,268.414 387.104,269.07C387.808,269.726 388.16,270.614 388.16,271.734C388.16,272.854 387.808,273.75 387.104,274.422C386.4,275.094 385.44,275.43 384.224,275.43C383.072,275.43 382.144,275.094 381.44,274.422C380.736,273.75 380.384,272.854 380.384,271.734Z" style="fill-rule:nonzero;"/>
        <path d="M140.091,282.541L219.184,240L195.61,174.998L219.184,120L234,17L115,22L119,118L53.325,178.548L15,61" style="fill:none;stroke:rgb(21,183,183);stroke-width:5px;"/>
        <path d="M538.806,287.148L473,214L563,128L632,72L604.377,13.077L476.814,30.5L399.015,95.036L438.459,150.965L371.799,194.711" style="fill:none;stroke:rgb(247,0,255);stroke-width:5px;"/>
    </g>
</svg>
