<?xml version="1.0" encoding="UTF-8" standalone="no"?>
<!DOCTYPE svg PUBLIC "-//W3C//DTD SVG 1.1//EN" "http://www.w3.org/Graphics/SVG/1.1/DTD/svg11.dtd">
<svg width="100%" height="100%" viewBox="0 0 579 298" version="1.1" xmlns="http://www.w3.org/2000/svg" xmlns:xlink="http://www.w3.org/1999/xlink" xml:space="preserve" xmlns:serif="http://www.serif.com/" style="fill-rule:evenodd;clip-rule:evenodd;stroke-linecap:square;stroke-linejoin:round;stroke-miterlimit:1.5;">
    <rect id="Geometric-Operations" serif:id="Geometric Operations" x="-1180" y="-1238" width="6739" height="2861" style="fill:none;"/>
    <g id="Geometric-Operations1" serif:id="Geometric Operations">
        <path d="M435.155,244.048L416.347,202.278" style="fill:none;stroke:rgb(21,183,183);stroke-width:4px;stroke-dasharray:4,12,0,0;"/>
        <path d="M335.2,99.645L346.777,31.854" style="fill:none;stroke:rgb(99,174,0);stroke-width:4px;stroke-dasharray:4,12,0,0;"/>
        <circle cx="410.112" cy="190.78" r="11.72" style="fill:rgb(21,183,183);"/>
        <circle cx="347.216" cy="30.72" r="11.72" style="fill:rgb(99,174,0);"/>
        <path d="M372.827,4.11L377.387,4.11L378.107,6.99L378.299,6.99C379.131,5.774 380.115,4.878 381.251,4.302C382.387,3.726 383.771,3.438 385.403,3.438C388.411,3.438 390.667,4.39 392.171,6.294C393.675,8.198 394.427,11.262 394.427,15.486C394.427,17.534 394.187,19.382 393.707,21.03C393.227,22.678 392.515,24.078 391.571,25.23C390.627,26.382 389.475,27.262 388.115,27.87C386.755,28.478 385.195,28.782 383.435,28.782C382.443,28.782 381.627,28.71 380.987,28.566C380.347,28.422 379.707,28.19 379.067,27.87L379.067,37.71L372.827,37.71L372.827,4.11ZM383.531,8.718C382.315,8.718 381.363,9.022 380.675,9.63C379.987,10.238 379.451,11.15 379.067,12.366L379.067,22.35C379.515,22.702 380.003,22.982 380.531,23.19C381.059,23.398 381.755,23.502 382.619,23.502C384.411,23.502 385.755,22.87 386.651,21.606C387.547,20.342 387.995,18.254 387.995,15.342C387.995,13.23 387.643,11.598 386.939,10.446C386.235,9.294 385.099,8.718 383.531,8.718Z" style="fill:rgb(99,174,0);fill-rule:nonzero;"/>
        <path d="M434.389,163.25L438.949,163.25L439.669,166.13L439.861,166.13C440.693,164.914 441.677,164.018 442.813,163.442C443.949,162.866 445.333,162.578 446.965,162.578C449.973,162.578 452.229,163.53 453.733,165.434C455.237,167.338 455.989,170.402 455.989,174.626C455.989,176.674 455.749,178.522 455.269,180.17C454.789,181.818 454.077,183.218 453.133,184.37C452.189,185.522 451.037,186.402 449.677,187.01C448.317,187.618 446.757,187.922 444.997,187.922C444.005,187.922 443.189,187.85 442.549,187.706C441.909,187.562 441.269,187.33 440.629,187.01L440.629,196.85L434.389,196.85L434.389,163.25ZM445.093,167.858C443.877,167.858 442.925,168.162 442.237,168.77C441.549,169.378 441.013,170.29 440.629,171.506L440.629,181.49C441.077,181.842 441.565,182.122 442.093,182.33C442.621,182.538 443.317,182.642 444.181,182.642C445.973,182.642 447.317,182.01 448.213,180.746C449.109,179.482 449.557,177.394 449.557,174.482C449.557,172.37 449.205,170.738 448.501,169.586C447.797,168.434 446.661,167.858 445.093,167.858Z" style="fill:rgb(21,183,183);fill-rule:nonzero;"/>
        <g transform="matrix(1,0,0,1,3.62625,-11659.5)">
            <g transform="matrix(32,0,0,32,240.85,11728.9)">
                <path d="M0.461,-0.172C0.461,-0.138 0.461,-0.107 0.462,-0.08C0.463,-0.052 0.466,-0.025 0.471,0.002L0.417,0.002L0.397,-0.069L0.393,-0.069C0.38,-0.046 0.36,-0.026 0.335,-0.011C0.31,0.004 0.28,0.012 0.246,0.012C0.179,0.012 0.13,-0.009 0.098,-0.051C0.065,-0.093 0.049,-0.159 0.049,-0.248C0.049,-0.333 0.069,-0.398 0.11,-0.443C0.15,-0.487 0.205,-0.509 0.276,-0.509C0.301,-0.509 0.32,-0.508 0.335,-0.505C0.349,-0.502 0.364,-0.498 0.381,-0.492L0.381,-0.7L0.461,-0.7L0.461,-0.172ZM0.259,-0.058C0.293,-0.058 0.32,-0.067 0.34,-0.085C0.36,-0.102 0.374,-0.129 0.381,-0.165L0.381,-0.413C0.369,-0.422 0.355,-0.429 0.34,-0.433C0.325,-0.437 0.304,-0.439 0.279,-0.439C0.233,-0.439 0.197,-0.424 0.171,-0.394C0.145,-0.363 0.132,-0.315 0.132,-0.248C0.132,-0.221 0.134,-0.195 0.139,-0.172C0.143,-0.149 0.15,-0.129 0.16,-0.112C0.17,-0.095 0.183,-0.082 0.2,-0.073C0.216,-0.063 0.236,-0.058 0.259,-0.058Z" style="fill:rgb(99,174,0);fill-rule:nonzero;"/>
            </g>
            <g transform="matrix(32,0,0,32,258.066,11728.9)">
                <path d="M0.227,0.22C0.196,0.188 0.17,0.153 0.149,0.115C0.128,0.076 0.111,0.037 0.098,-0.004C0.085,-0.044 0.075,-0.085 0.069,-0.126C0.063,-0.167 0.06,-0.206 0.06,-0.243C0.06,-0.28 0.063,-0.318 0.069,-0.359C0.075,-0.4 0.085,-0.44 0.098,-0.482C0.111,-0.523 0.129,-0.563 0.151,-0.602C0.172,-0.641 0.199,-0.678 0.23,-0.712L0.278,-0.677C0.251,-0.643 0.229,-0.608 0.212,-0.572C0.194,-0.535 0.18,-0.498 0.169,-0.461C0.158,-0.424 0.151,-0.387 0.147,-0.35C0.142,-0.313 0.14,-0.277 0.14,-0.243C0.14,-0.211 0.142,-0.176 0.148,-0.139C0.153,-0.101 0.161,-0.063 0.172,-0.026C0.183,0.012 0.197,0.049 0.215,0.085C0.232,0.121 0.253,0.154 0.278,0.183L0.227,0.22Z" style="fill:rgb(99,174,0);fill-rule:nonzero;"/>
            </g>
            <g transform="matrix(32,0,0,32,267.026,11728.9)">
                <path d="M0.144,-0.5L0.196,-0.5L0.191,-0.414L0.195,-0.414C0.204,-0.426 0.215,-0.438 0.227,-0.45C0.238,-0.461 0.251,-0.472 0.265,-0.481C0.279,-0.49 0.294,-0.498 0.311,-0.504C0.328,-0.509 0.346,-0.512 0.365,-0.512C0.381,-0.512 0.396,-0.51 0.41,-0.505C0.424,-0.5 0.436,-0.491 0.447,-0.48C0.458,-0.468 0.466,-0.452 0.473,-0.433C0.479,-0.414 0.482,-0.39 0.482,-0.362C0.482,-0.303 0.474,-0.251 0.458,-0.205C0.442,-0.158 0.421,-0.119 0.395,-0.087C0.369,-0.055 0.34,-0.031 0.308,-0.014C0.275,0.004 0.243,0.012 0.211,0.012C0.188,0.012 0.167,0.01 0.15,0.006C0.132,0.001 0.12,-0.003 0.114,-0.008L0.07,0.2L-0.005,0.2L0.144,-0.5ZM0.337,-0.448C0.319,-0.448 0.302,-0.443 0.286,-0.434C0.269,-0.425 0.254,-0.413 0.241,-0.4C0.227,-0.386 0.215,-0.371 0.204,-0.356C0.193,-0.34 0.185,-0.325 0.178,-0.312L0.129,-0.075C0.14,-0.066 0.152,-0.06 0.164,-0.057C0.176,-0.054 0.189,-0.052 0.203,-0.052C0.229,-0.052 0.254,-0.059 0.278,-0.074C0.301,-0.088 0.322,-0.108 0.341,-0.135C0.36,-0.162 0.375,-0.194 0.386,-0.231C0.397,-0.268 0.402,-0.31 0.402,-0.356C0.402,-0.383 0.397,-0.405 0.386,-0.422C0.375,-0.439 0.358,-0.448 0.337,-0.448Z" style="fill:rgb(99,174,0);fill-rule:nonzero;"/>
            </g>
            <g transform="matrix(32,0,0,32,283.282,11728.9)">
                <path d="M0.049,-0.043C0.049,-0.059 0.054,-0.072 0.065,-0.082C0.076,-0.092 0.089,-0.097 0.106,-0.097C0.127,-0.097 0.143,-0.09 0.157,-0.075C0.169,-0.06 0.176,-0.039 0.176,-0.011C0.176,0.013 0.173,0.034 0.166,0.052C0.159,0.07 0.151,0.086 0.14,0.099C0.129,0.112 0.118,0.122 0.105,0.131C0.092,0.139 0.08,0.145 0.067,0.149L0.042,0.11C0.066,0.101 0.084,0.086 0.096,0.067C0.107,0.047 0.113,0.027 0.113,0.007C0.107,0.009 0.101,0.01 0.096,0.01C0.083,0.01 0.071,0.006 0.063,-0.004C0.054,-0.013 0.049,-0.026 0.049,-0.043Z" style="fill:rgb(99,174,0);fill-rule:nonzero;"/>
            </g>
            <g transform="matrix(32,0,0,32,295.57,11728.9)">
                <path d="M0.418,-0.194L0.16,-0.194L0.09,-0L0.008,-0L0.273,-0.711L0.311,-0.711L0.577,-0L0.49,-0L0.418,-0.194ZM0.187,-0.266L0.393,-0.266L0.315,-0.479L0.29,-0.585L0.289,-0.585L0.264,-0.477L0.187,-0.266Z" style="fill:rgb(99,174,0);fill-rule:nonzero;"/>
            </g>
            <g transform="matrix(32,0,0,32,314.29,11728.9)">
                <path d="M0.053,-0.712C0.084,-0.68 0.11,-0.645 0.131,-0.607C0.152,-0.568 0.169,-0.529 0.183,-0.489C0.196,-0.448 0.205,-0.407 0.211,-0.367C0.217,-0.325 0.22,-0.286 0.22,-0.249C0.22,-0.212 0.217,-0.174 0.211,-0.133C0.205,-0.092 0.195,-0.052 0.182,-0.011C0.169,0.031 0.151,0.071 0.13,0.11C0.108,0.149 0.081,0.186 0.05,0.22L0.002,0.185C0.029,0.151 0.051,0.116 0.069,0.079C0.087,0.042 0.101,0.005 0.112,-0.032C0.122,-0.069 0.129,-0.106 0.134,-0.143C0.138,-0.18 0.14,-0.215 0.14,-0.249C0.14,-0.281 0.137,-0.316 0.132,-0.353C0.127,-0.39 0.118,-0.428 0.108,-0.466C0.096,-0.504 0.082,-0.541 0.065,-0.577C0.048,-0.613 0.027,-0.646 0.002,-0.675L0.053,-0.712Z" style="fill:rgb(99,174,0);fill-rule:nonzero;"/>
            </g>
        </g>
        <g transform="matrix(1,0,0,1,88.7819,-11491.9)">
            <g transform="matrix(32,0,0,32,240.85,11728.9)">
                <path d="M0.461,-0.172C0.461,-0.138 0.461,-0.107 0.462,-0.08C0.463,-0.052 0.466,-0.025 0.471,0.002L0.417,0.002L0.397,-0.069L0.393,-0.069C0.38,-0.046 0.36,-0.026 0.335,-0.011C0.31,0.004 0.28,0.012 0.246,0.012C0.179,0.012 0.13,-0.009 0.098,-0.051C0.065,-0.093 0.049,-0.159 0.049,-0.248C0.049,-0.333 0.069,-0.398 0.11,-0.443C0.15,-0.487 0.205,-0.509 0.276,-0.509C0.301,-0.509 0.32,-0.508 0.335,-0.505C0.349,-0.502 0.364,-0.498 0.381,-0.492L0.381,-0.7L0.461,-0.7L0.461,-0.172ZM0.259,-0.058C0.293,-0.058 0.32,-0.067 0.34,-0.085C0.36,-0.102 0.374,-0.129 0.381,-0.165L0.381,-0.413C0.369,-0.422 0.355,-0.429 0.34,-0.433C0.325,-0.437 0.304,-0.439 0.279,-0.439C0.233,-0.439 0.197,-0.424 0.171,-0.394C0.145,-0.363 0.132,-0.315 0.132,-0.248C0.132,-0.221 0.134,-0.195 0.139,-0.172C0.143,-0.149 0.15,-0.129 0.16,-0.112C0.17,-0.095 0.183,-0.082 0.2,-0.073C0.216,-0.063 0.236,-0.058 0.259,-0.058Z" style="fill:rgb(21,183,183);fill-rule:nonzero;"/>
            </g>
            <g transform="matrix(32,0,0,32,258.066,11728.9)">
                <path d="M0.227,0.22C0.196,0.188 0.17,0.153 0.149,0.115C0.128,0.076 0.111,0.037 0.098,-0.004C0.085,-0.044 0.075,-0.085 0.069,-0.126C0.063,-0.167 0.06,-0.206 0.06,-0.243C0.06,-0.28 0.063,-0.318 0.069,-0.359C0.075,-0.4 0.085,-0.44 0.098,-0.482C0.111,-0.523 0.129,-0.563 0.151,-0.602C0.172,-0.641 0.199,-0.678 0.23,-0.712L0.278,-0.677C0.251,-0.643 0.229,-0.608 0.212,-0.572C0.194,-0.535 0.18,-0.498 0.169,-0.461C0.158,-0.424 0.151,-0.387 0.147,-0.35C0.142,-0.313 0.14,-0.277 0.14,-0.243C0.14,-0.211 0.142,-0.176 0.148,-0.139C0.153,-0.101 0.161,-0.063 0.172,-0.026C0.183,0.012 0.197,0.049 0.215,0.085C0.232,0.121 0.253,0.154 0.278,0.183L0.227,0.22Z" style="fill:rgb(21,183,183);fill-rule:nonzero;"/>
            </g>
            <g transform="matrix(32,0,0,32,267.026,11728.9)">
                <path d="M0.144,-0.5L0.196,-0.5L0.191,-0.414L0.195,-0.414C0.204,-0.426 0.215,-0.438 0.227,-0.45C0.238,-0.461 0.251,-0.472 0.265,-0.481C0.279,-0.49 0.294,-0.498 0.311,-0.504C0.328,-0.509 0.346,-0.512 0.365,-0.512C0.381,-0.512 0.396,-0.51 0.41,-0.505C0.424,-0.5 0.436,-0.491 0.447,-0.48C0.458,-0.468 0.466,-0.452 0.473,-0.433C0.479,-0.414 0.482,-0.39 0.482,-0.362C0.482,-0.303 0.474,-0.251 0.458,-0.205C0.442,-0.158 0.421,-0.119 0.395,-0.087C0.369,-0.055 0.34,-0.031 0.308,-0.014C0.275,0.004 0.243,0.012 0.211,0.012C0.188,0.012 0.167,0.01 0.15,0.006C0.132,0.001 0.12,-0.003 0.114,-0.008L0.07,0.2L-0.005,0.2L0.144,-0.5ZM0.337,-0.448C0.319,-0.448 0.302,-0.443 0.286,-0.434C0.269,-0.425 0.254,-0.413 0.241,-0.4C0.227,-0.386 0.215,-0.371 0.204,-0.356C0.193,-0.34 0.185,-0.325 0.178,-0.312L0.129,-0.075C0.14,-0.066 0.152,-0.06 0.164,-0.057C0.176,-0.054 0.189,-0.052 0.203,-0.052C0.229,-0.052 0.254,-0.059 0.278,-0.074C0.301,-0.088 0.322,-0.108 0.341,-0.135C0.36,-0.162 0.375,-0.194 0.386,-0.231C0.397,-0.268 0.402,-0.31 0.402,-0.356C0.402,-0.383 0.397,-0.405 0.386,-0.422C0.375,-0.439 0.358,-0.448 0.337,-0.448Z" style="fill:rgb(21,183,183);fill-rule:nonzero;"/>
            </g>
            <g transform="matrix(32,0,0,32,283.282,11728.9)">
                <path d="M0.049,-0.043C0.049,-0.059 0.054,-0.072 0.065,-0.082C0.076,-0.092 0.089,-0.097 0.106,-0.097C0.127,-0.097 0.143,-0.09 0.157,-0.075C0.169,-0.06 0.176,-0.039 0.176,-0.011C0.176,0.013 0.173,0.034 0.166,0.052C0.159,0.07 0.151,0.086 0.14,0.099C0.129,0.112 0.118,0.122 0.105,0.131C0.092,0.139 0.08,0.145 0.067,0.149L0.042,0.11C0.066,0.101 0.084,0.086 0.096,0.067C0.107,0.047 0.113,0.027 0.113,0.007C0.107,0.009 0.101,0.01 0.096,0.01C0.083,0.01 0.071,0.006 0.063,-0.004C0.054,-0.013 0.049,-0.026 0.049,-0.043Z" style="fill:rgb(21,183,183);fill-rule:nonzero;"/>
            </g>
            <g transform="matrix(32,0,0,32,295.57,11728.9)">
                <path d="M0.418,-0.194L0.16,-0.194L0.09,-0L0.008,-0L0.273,-0.711L0.311,-0.711L0.577,-0L0.49,-0L0.418,-0.194ZM0.187,-0.266L0.393,-0.266L0.315,-0.479L0.29,-0.585L0.289,-0.585L0.264,-0.477L0.187,-0.266Z" style="fill:rgb(21,183,183);fill-rule:nonzero;"/>
            </g>
            <g transform="matrix(32,0,0,32,314.29,11728.9)">
                <path d="M0.053,-0.712C0.084,-0.68 0.11,-0.645 0.131,-0.607C0.152,-0.568 0.169,-0.529 0.183,-0.489C0.196,-0.448 0.205,-0.407 0.211,-0.367C0.217,-0.325 0.22,-0.286 0.22,-0.249C0.22,-0.212 0.217,-0.174 0.211,-0.133C0.205,-0.092 0.195,-0.052 0.182,-0.011C0.169,0.031 0.151,0.071 0.13,0.11C0.108,0.149 0.081,0.186 0.05,0.22L0.002,0.185C0.029,0.151 0.051,0.116 0.069,0.079C0.087,0.042 0.101,0.005 0.112,-0.032C0.122,-0.069 0.129,-0.106 0.134,-0.143C0.138,-0.18 0.14,-0.215 0.14,-0.249C0.14,-0.281 0.137,-0.316 0.132,-0.353C0.127,-0.39 0.118,-0.428 0.108,-0.466C0.096,-0.504 0.082,-0.541 0.065,-0.577C0.048,-0.613 0.027,-0.646 0.002,-0.675L0.053,-0.712Z" style="fill:rgb(21,183,183);fill-rule:nonzero;"/>
            </g>
        </g>
        <path d="M12,65.448L103,1L201,75L375,107.935L505,42.28L563.42,99.645L565,202.5L402,290L227,270L158,202.278L41,214.614L12,65.448ZM294.436,154.5L379,136.78L437.919,116L474.959,146L486,192L449.568,237.324L398.392,261.198L294.436,246.782L271.436,202.884L294.436,154.5ZM66,96L116,53.864L174,119.519L97,154.5L66,96Z" style="fill:rgb(217,217,217);stroke:black;stroke-width:3px;stroke-miterlimit:10;"/>
        <circle cx="504.326" cy="111.791" r="11.72" style="fill:rgb(247,0,255);"/>
        <path d="M525.816,129.314L530.376,129.314L531.096,132.194L531.288,132.194C532.12,130.978 533.104,130.082 534.24,129.506C535.376,128.93 536.76,128.642 538.392,128.642C541.4,128.642 543.656,129.594 545.16,131.498C546.664,133.402 547.416,136.466 547.416,140.69C547.416,142.738 547.176,144.586 546.696,146.234C546.216,147.882 545.504,149.282 544.56,150.434C543.616,151.586 542.464,152.466 541.104,153.074C539.744,153.682 538.184,153.986 536.424,153.986C535.432,153.986 534.616,153.914 533.976,153.77C533.336,153.626 532.696,153.394 532.056,153.074L532.056,162.914L525.816,162.914L525.816,129.314ZM536.52,133.922C535.304,133.922 534.352,134.226 533.664,134.834C532.976,135.442 532.44,136.354 532.056,137.57L532.056,147.554C532.504,147.906 532.992,148.186 533.52,148.394C534.048,148.602 534.744,148.706 535.608,148.706C537.4,148.706 538.744,148.074 539.64,146.81C540.536,145.546 540.984,143.458 540.984,140.546C540.984,138.434 540.632,136.802 539.928,135.65C539.224,134.498 538.088,133.922 536.52,133.922Z" style="fill:rgb(247,0,255);fill-rule:nonzero;"/>
        <path d="M229.059,171.9L218.739,171.9L216.195,179.34L209.619,179.34L221.715,145.5L226.563,145.5L238.659,179.34L231.747,179.34L229.059,171.9ZM220.419,166.62L227.619,166.62L225.123,159.132L224.115,153.852L223.875,153.852L222.867,159.18L220.419,166.62Z" style="fill-rule:nonzero;"/>
    </g>
</svg>
