<?xml version="1.0" encoding="UTF-8" standalone="no"?>
<!DOCTYPE svg PUBLIC "-//W3C//DTD SVG 1.1//EN" "http://www.w3.org/Graphics/SVG/1.1/DTD/svg11.dtd">
<svg width="100%" height="100%" viewBox="0 0 645 302" version="1.1" xmlns="http://www.w3.org/2000/svg" xmlns:xlink="http://www.w3.org/1999/xlink" xml:space="preserve" xmlns:serif="http://www.serif.com/" style="fill-rule:evenodd;clip-rule:evenodd;stroke-linecap:square;stroke-linejoin:round;stroke-miterlimit:10;">
    <rect id="Geometric-Operations" serif:id="Geometric Operations" x="-2107" y="-326" width="6739" height="2861" style="fill:none;"/>
    <g id="Geometric-Operations1" serif:id="Geometric Operations">
        <path d="M15,59L630.628,73.538" style="fill:none;stroke:black;stroke-width:2px;stroke-dasharray:2,6,0,0;"/>
        <path d="M219.184,239.806L371.799,194.053" style="fill:none;stroke:black;stroke-width:2px;stroke-dasharray:2,6,0,0;"/>
        <circle cx="14.227" cy="58.36" r="11.72" style="fill:rgb(21,183,183);"/>
        <circle cx="115.919" cy="22.034" r="11.72" style="fill:rgb(21,183,183);"/>
        <circle cx="53.325" cy="177.89" r="11.72" style="fill:rgb(21,183,183);"/>
        <circle cx="195.61" cy="174.34" r="11.72" style="fill:rgb(21,183,183);"/>
        <circle cx="120.203" cy="117.51" r="11.72" style="fill:rgb(21,183,183);"/>
        <circle cx="219.184" cy="117.818" r="11.72" style="fill:rgb(21,183,183);"/>
        <circle cx="140.091" cy="281.883" r="11.72" style="fill:rgb(21,183,183);"/>
        <circle cx="219.184" cy="239.806" r="11.72" style="fill:rgb(21,183,183);"/>
        <circle cx="232.925" cy="16.712" r="11.72" style="fill:rgb(21,183,183);"/>
        <circle cx="476.814" cy="29.841" r="11.72" style="fill:rgb(247,0,255);"/>
        <circle cx="538.806" cy="286.49" r="11.72" style="fill:rgb(247,0,255);"/>
        <circle cx="399.015" cy="94.378" r="11.72" style="fill:rgb(247,0,255);"/>
        <circle cx="562.628" cy="129.538" r="11.72" style="fill:rgb(247,0,255);"/>
        <circle cx="472.355" cy="214.124" r="11.72" style="fill:rgb(247,0,255);"/>
        <circle cx="371.799" cy="194.053" r="11.72" style="fill:rgb(247,0,255);"/>
        <circle cx="438.459" cy="150.306" r="11.72" style="fill:rgb(247,0,255);"/>
        <circle cx="604.377" cy="12.419" r="11.72" style="fill:rgb(247,0,255);"/>
        <circle cx="630.723" cy="71.913" r="11.72" style="fill:rgb(247,0,255);"/>
        <path d="M334.246,37.038C334.086,35.374 334.166,33.958 334.486,32.79C334.806,31.622 335.246,30.614 335.806,29.766C336.366,28.918 337.006,28.182 337.726,27.558C338.446,26.934 339.118,26.334 339.742,25.758C340.366,25.182 340.886,24.582 341.302,23.958C341.718,23.334 341.926,22.59 341.926,21.726C341.926,20.606 341.614,19.71 340.99,19.038C340.366,18.366 339.254,18.03 337.654,18.03C337.142,18.03 336.598,18.086 336.022,18.198C335.446,18.31 334.87,18.47 334.294,18.678C333.718,18.886 333.166,19.126 332.638,19.398C332.11,19.67 331.638,19.95 331.222,20.238L328.822,15.63C330.038,14.798 331.438,14.11 333.022,13.566C334.606,13.022 336.518,12.75 338.758,12.75C341.766,12.75 344.118,13.478 345.814,14.934C347.51,16.39 348.358,18.35 348.358,20.814C348.358,22.446 348.142,23.798 347.71,24.87C347.278,25.942 346.742,26.854 346.102,27.606C345.462,28.358 344.758,29.022 343.99,29.598C343.222,30.174 342.518,30.79 341.878,31.446C341.238,32.102 340.694,32.862 340.246,33.726C339.798,34.59 339.574,35.694 339.574,37.038L334.246,37.038ZM333.286,43.854C333.286,42.734 333.638,41.846 334.342,41.19C335.046,40.534 335.974,40.206 337.126,40.206C338.342,40.206 339.302,40.534 340.006,41.19C340.71,41.846 341.062,42.734 341.062,43.854C341.062,44.974 340.71,45.87 340.006,46.542C339.302,47.214 338.342,47.55 337.126,47.55C335.974,47.55 335.046,47.214 334.342,46.542C333.638,45.87 333.286,44.974 333.286,43.854Z" style="fill-rule:nonzero;"/>
        <path d="M283.736,193.207C283.576,191.543 283.656,190.127 283.976,188.959C284.296,187.791 284.736,186.783 285.296,185.935C285.856,185.087 286.496,184.351 287.216,183.727C287.936,183.103 288.608,182.503 289.232,181.927C289.856,181.351 290.376,180.751 290.792,180.127C291.208,179.503 291.416,178.759 291.416,177.895C291.416,176.775 291.104,175.879 290.48,175.207C289.856,174.535 288.744,174.199 287.144,174.199C286.632,174.199 286.088,174.255 285.512,174.367C284.936,174.479 284.36,174.639 283.784,174.847C283.208,175.055 282.656,175.295 282.128,175.567C281.6,175.839 281.128,176.119 280.712,176.407L278.312,171.799C279.528,170.967 280.928,170.279 282.512,169.735C284.096,169.191 286.008,168.919 288.248,168.919C291.256,168.919 293.608,169.647 295.304,171.103C297,172.559 297.848,174.519 297.848,176.983C297.848,178.615 297.632,179.967 297.2,181.039C296.768,182.111 296.232,183.023 295.592,183.775C294.952,184.527 294.248,185.191 293.48,185.767C292.712,186.343 292.008,186.959 291.368,187.615C290.728,188.271 290.184,189.031 289.736,189.895C289.288,190.759 289.064,191.863 289.064,193.207L283.736,193.207ZM282.776,200.023C282.776,198.903 283.128,198.015 283.832,197.359C284.536,196.703 285.464,196.375 286.616,196.375C287.832,196.375 288.792,196.703 289.496,197.359C290.2,198.015 290.552,198.903 290.552,200.023C290.552,201.143 290.2,202.039 289.496,202.711C288.792,203.383 287.832,203.719 286.616,203.719C285.464,203.719 284.536,203.383 283.832,202.711C283.128,202.039 282.776,201.143 282.776,200.023Z" style="fill-rule:nonzero;"/>
    </g>
</svg>
