<?xml version="1.0" encoding="UTF-8" standalone="no"?>
<!DOCTYPE svg PUBLIC "-//W3C//DTD SVG 1.1//EN" "http://www.w3.org/Graphics/SVG/1.1/DTD/svg11.dtd">
<svg width="100%" height="100%" viewBox="0 0 2253 1130" version="1.1" xmlns="http://www.w3.org/2000/svg" xmlns:xlink="http://www.w3.org/1999/xlink" xml:space="preserve" xmlns:serif="http://www.serif.com/" style="fill-rule:evenodd;clip-rule:evenodd;stroke-linecap:square;stroke-linejoin:round;stroke-miterlimit:10;">
    <rect id="Clementini-Line-Areas" serif:id="Clementini Line-Areas" x="-226" y="-2569" width="2683.8" height="4624" style="fill:none;"/>
    <g id="Clementini-Line-Areas1" serif:id="Clementini Line-Areas">
        <rect x="115.759" y="121.165" width="292.111" height="213.652" style="fill:rgb(251,133,255);fill-opacity:0.5;stroke:rgb(251,133,255);stroke-width:6px;"/>
        <rect x="115.759" y="716.538" width="292.111" height="213.652" style="fill:rgb(251,133,255);fill-opacity:0.5;stroke:rgb(251,133,255);stroke-width:6px;"/>
        <rect x="550.37" y="121.165" width="292.111" height="213.652" style="fill:rgb(251,133,255);fill-opacity:0.5;stroke:rgb(251,133,255);stroke-width:6px;"/>
        <rect x="550.37" y="716.538" width="292.111" height="213.652" style="fill:rgb(251,133,255);fill-opacity:0.5;stroke:rgb(251,133,255);stroke-width:6px;"/>
        <rect x="993.43" y="121.165" width="292.111" height="213.652" style="fill:rgb(251,133,255);fill-opacity:0.5;stroke:rgb(251,133,255);stroke-width:6px;"/>
        <rect x="993.43" y="716.538" width="292.111" height="213.652" style="fill:rgb(251,133,255);fill-opacity:0.5;stroke:rgb(251,133,255);stroke-width:6px;"/>
        <rect x="1435.28" y="121.165" width="292.111" height="213.652" style="fill:rgb(251,133,255);fill-opacity:0.5;stroke:rgb(251,133,255);stroke-width:6px;"/>
        <rect x="1435.28" y="716.538" width="292.111" height="213.652" style="fill:rgb(251,133,255);fill-opacity:0.5;stroke:rgb(251,133,255);stroke-width:6px;"/>
        <rect x="1872.24" y="121.165" width="292.111" height="213.652" style="fill:rgb(251,133,255);fill-opacity:0.5;stroke:rgb(251,133,255);stroke-width:6px;"/>
        <rect x="1872.24" y="716.538" width="292.111" height="213.652" style="fill:rgb(251,133,255);fill-opacity:0.5;stroke:rgb(251,133,255);stroke-width:6px;"/>
        <path d="M991.475,817.824L991.475,716.668L1183.4,716.668" style="fill:none;stroke:rgb(21,183,183);stroke-width:10px;"/>
        <path d="M115.759,227.991L44.541,61.605L261.814,121.165L463.395,61.605L407.87,227.991" style="fill:none;stroke:rgb(21,183,183);stroke-width:10px;"/>
        <path d="M551.358,61.605L697.414,121.165L898.995,61.605L843.469,227.991" style="fill:none;stroke:rgb(21,183,183);stroke-width:10px;"/>
        <path d="M1435.28,794.054L1386.81,769.951L1372.32,621.421L1460.27,620.007L1524.24,716.538L1674.09,716.538" style="fill:none;stroke:rgb(21,183,183);stroke-width:10px;"/>
        <path d="M1817.77,716.538L1808.49,621.421L1896.44,619.007L1960.41,716.538L2110.26,716.538" style="fill:none;stroke:rgb(21,183,183);stroke-width:10px;"/>
        <path d="M1064.52,121.165L1285.54,227.991L1223.85,334.817" style="fill:none;stroke:rgb(21,183,183);stroke-width:10px;"/>
        <path d="M261.814,750.036L405.353,819.412L343.662,926.238" style="fill:none;stroke:rgb(21,183,183);stroke-width:10px;"/>
        <path d="M1659.11,121.165L1659.11,55.526L1797.07,55.526L1797.07,121.165L1653.46,334.817" style="fill:none;stroke:rgb(21,183,183);stroke-width:10px;"/>
        <path d="M763.802,716.802L763.802,651.163L901.762,651.163L901.762,716.802L801.841,865.453" style="fill:none;stroke:rgb(21,183,183);stroke-width:10px;"/>
        <path d="M2186.91,55.526L2082.3,121.165L2018.3,334.817" style="fill:none;stroke:rgb(21,183,183);stroke-width:10px;"/>
        <g transform="matrix(1.20707,0,0,1.20707,-17091.5,-1759.02)">
            <g transform="matrix(48,0,0,48,14325.5,1796.71)">
                <rect x="0.088" y="-0.325" width="0.424" height="0.074" style="fill:rgb(242,0,0);fill-rule:nonzero;"/>
            </g>
            <g transform="matrix(48,0,0,48,14383.1,1796.71)">
                <path d="M0.055,-0.35C0.055,-0.407 0.06,-0.458 0.07,-0.503C0.08,-0.548 0.095,-0.586 0.115,-0.617C0.135,-0.648 0.16,-0.671 0.191,-0.688C0.222,-0.704 0.258,-0.712 0.3,-0.712C0.345,-0.712 0.383,-0.704 0.414,-0.688C0.445,-0.672 0.47,-0.649 0.489,-0.618C0.508,-0.587 0.522,-0.55 0.531,-0.505C0.54,-0.46 0.544,-0.408 0.544,-0.35C0.544,-0.293 0.539,-0.243 0.529,-0.198C0.519,-0.153 0.504,-0.115 0.484,-0.084C0.464,-0.053 0.439,-0.029 0.408,-0.013C0.377,0.004 0.341,0.012 0.299,0.012C0.255,0.012 0.218,0.003 0.187,-0.015C0.156,-0.032 0.13,-0.057 0.111,-0.089C0.091,-0.121 0.077,-0.159 0.068,-0.204C0.059,-0.248 0.055,-0.297 0.055,-0.35ZM0.462,-0.35C0.462,-0.385 0.46,-0.419 0.456,-0.451L0.159,-0.18C0.17,-0.142 0.187,-0.112 0.21,-0.089C0.233,-0.066 0.262,-0.055 0.299,-0.055C0.358,-0.055 0.4,-0.079 0.425,-0.128C0.45,-0.177 0.462,-0.251 0.462,-0.35ZM0.138,-0.35C0.138,-0.333 0.139,-0.317 0.14,-0.302C0.141,-0.287 0.142,-0.272 0.143,-0.257L0.441,-0.527C0.43,-0.563 0.413,-0.592 0.391,-0.613C0.368,-0.634 0.338,-0.645 0.3,-0.645C0.241,-0.645 0.199,-0.62 0.175,-0.572C0.15,-0.523 0.138,-0.449 0.138,-0.35Z" style="fill:rgb(242,0,0);fill-rule:nonzero;"/>
            </g>
            <g transform="matrix(48,0,0,48,14325.5,1868.71)">
                <rect x="0.088" y="-0.325" width="0.424" height="0.074" style="fill:rgb(242,0,0);fill-rule:nonzero;"/>
            </g>
            <g transform="matrix(48,0,0,48,14383.1,1868.71)">
                <path d="M0.055,-0.35C0.055,-0.407 0.06,-0.458 0.07,-0.503C0.08,-0.548 0.095,-0.586 0.115,-0.617C0.135,-0.648 0.16,-0.671 0.191,-0.688C0.222,-0.704 0.258,-0.712 0.3,-0.712C0.345,-0.712 0.383,-0.704 0.414,-0.688C0.445,-0.672 0.47,-0.649 0.489,-0.618C0.508,-0.587 0.522,-0.55 0.531,-0.505C0.54,-0.46 0.544,-0.408 0.544,-0.35C0.544,-0.293 0.539,-0.243 0.529,-0.198C0.519,-0.153 0.504,-0.115 0.484,-0.084C0.464,-0.053 0.439,-0.029 0.408,-0.013C0.377,0.004 0.341,0.012 0.299,0.012C0.255,0.012 0.218,0.003 0.187,-0.015C0.156,-0.032 0.13,-0.057 0.111,-0.089C0.091,-0.121 0.077,-0.159 0.068,-0.204C0.059,-0.248 0.055,-0.297 0.055,-0.35ZM0.462,-0.35C0.462,-0.385 0.46,-0.419 0.456,-0.451L0.159,-0.18C0.17,-0.142 0.187,-0.112 0.21,-0.089C0.233,-0.066 0.262,-0.055 0.299,-0.055C0.358,-0.055 0.4,-0.079 0.425,-0.128C0.45,-0.177 0.462,-0.251 0.462,-0.35ZM0.138,-0.35C0.138,-0.333 0.139,-0.317 0.14,-0.302C0.141,-0.287 0.142,-0.272 0.143,-0.257L0.441,-0.527C0.43,-0.563 0.413,-0.592 0.391,-0.613C0.368,-0.634 0.338,-0.645 0.3,-0.645C0.241,-0.645 0.199,-0.62 0.175,-0.572C0.15,-0.523 0.138,-0.449 0.138,-0.35Z" style="fill:rgb(242,0,0);fill-rule:nonzero;"/>
            </g>
        </g>
        <g transform="matrix(1.20707,0,0,1.20707,-16654.4,-1759.02)">
            <g transform="matrix(48,0,0,48,14325.5,1796.71)">
                <rect x="0.088" y="-0.325" width="0.424" height="0.074" style="fill:rgb(242,0,0);fill-rule:nonzero;"/>
            </g>
            <g transform="matrix(48,0,0,48,14383.1,1796.71)">
                <path d="M0.055,-0.35C0.055,-0.407 0.06,-0.458 0.07,-0.503C0.08,-0.548 0.095,-0.586 0.115,-0.617C0.135,-0.648 0.16,-0.671 0.191,-0.688C0.222,-0.704 0.258,-0.712 0.3,-0.712C0.345,-0.712 0.383,-0.704 0.414,-0.688C0.445,-0.672 0.47,-0.649 0.489,-0.618C0.508,-0.587 0.522,-0.55 0.531,-0.505C0.54,-0.46 0.544,-0.408 0.544,-0.35C0.544,-0.293 0.539,-0.243 0.529,-0.198C0.519,-0.153 0.504,-0.115 0.484,-0.084C0.464,-0.053 0.439,-0.029 0.408,-0.013C0.377,0.004 0.341,0.012 0.299,0.012C0.255,0.012 0.218,0.003 0.187,-0.015C0.156,-0.032 0.13,-0.057 0.111,-0.089C0.091,-0.121 0.077,-0.159 0.068,-0.204C0.059,-0.248 0.055,-0.297 0.055,-0.35ZM0.462,-0.35C0.462,-0.385 0.46,-0.419 0.456,-0.451L0.159,-0.18C0.17,-0.142 0.187,-0.112 0.21,-0.089C0.233,-0.066 0.262,-0.055 0.299,-0.055C0.358,-0.055 0.4,-0.079 0.425,-0.128C0.45,-0.177 0.462,-0.251 0.462,-0.35ZM0.138,-0.35C0.138,-0.333 0.139,-0.317 0.14,-0.302C0.141,-0.287 0.142,-0.272 0.143,-0.257L0.441,-0.527C0.43,-0.563 0.413,-0.592 0.391,-0.613C0.368,-0.634 0.338,-0.645 0.3,-0.645C0.241,-0.645 0.199,-0.62 0.175,-0.572C0.15,-0.523 0.138,-0.449 0.138,-0.35Z" style="fill:rgb(242,0,0);fill-rule:nonzero;"/>
            </g>
            <g transform="matrix(48,0,0,48,14325.5,1868.71)">
                <rect x="0.088" y="-0.325" width="0.424" height="0.074" style="fill:rgb(242,0,0);fill-rule:nonzero;"/>
            </g>
            <g transform="matrix(48,0,0,48,14383.1,1868.71)">
                <path d="M0.055,-0.35C0.055,-0.407 0.06,-0.458 0.07,-0.503C0.08,-0.548 0.095,-0.586 0.115,-0.617C0.135,-0.648 0.16,-0.671 0.191,-0.688C0.222,-0.704 0.258,-0.712 0.3,-0.712C0.345,-0.712 0.383,-0.704 0.414,-0.688C0.445,-0.672 0.47,-0.649 0.489,-0.618C0.508,-0.587 0.522,-0.55 0.531,-0.505C0.54,-0.46 0.544,-0.408 0.544,-0.35C0.544,-0.293 0.539,-0.243 0.529,-0.198C0.519,-0.153 0.504,-0.115 0.484,-0.084C0.464,-0.053 0.439,-0.029 0.408,-0.013C0.377,0.004 0.341,0.012 0.299,0.012C0.255,0.012 0.218,0.003 0.187,-0.015C0.156,-0.032 0.13,-0.057 0.111,-0.089C0.091,-0.121 0.077,-0.159 0.068,-0.204C0.059,-0.248 0.055,-0.297 0.055,-0.35ZM0.462,-0.35C0.462,-0.385 0.46,-0.419 0.456,-0.451L0.159,-0.18C0.17,-0.142 0.187,-0.112 0.21,-0.089C0.233,-0.066 0.262,-0.055 0.299,-0.055C0.358,-0.055 0.4,-0.079 0.425,-0.128C0.45,-0.177 0.462,-0.251 0.462,-0.35ZM0.138,-0.35C0.138,-0.333 0.139,-0.317 0.14,-0.302C0.141,-0.287 0.142,-0.272 0.143,-0.257L0.441,-0.527C0.43,-0.563 0.413,-0.592 0.391,-0.613C0.368,-0.634 0.338,-0.645 0.3,-0.645C0.241,-0.645 0.199,-0.62 0.175,-0.572C0.15,-0.523 0.138,-0.449 0.138,-0.35Z" style="fill:rgb(242,0,0);fill-rule:nonzero;"/>
            </g>
        </g>
        <g transform="matrix(1.20707,0,0,1.20707,-16209,-1759.02)">
            <g transform="matrix(48,0,0,48,14325.5,1796.71)">
                <path d="M0.127,-0.072L0.284,-0.072L0.284,-0.598L0.124,-0.486L0.085,-0.543L0.305,-0.7L0.361,-0.7L0.361,-0.072L0.515,-0.072L0.515,-0L0.127,-0L0.127,-0.072Z" style="fill:rgb(0,122,229);fill-rule:nonzero;"/>
            </g>
            <g transform="matrix(48,0,0,48,14383.1,1796.71)">
                <path d="M0.055,-0.35C0.055,-0.407 0.06,-0.458 0.07,-0.503C0.08,-0.548 0.095,-0.586 0.115,-0.617C0.135,-0.648 0.16,-0.671 0.191,-0.688C0.222,-0.704 0.258,-0.712 0.3,-0.712C0.345,-0.712 0.383,-0.704 0.414,-0.688C0.445,-0.672 0.47,-0.649 0.489,-0.618C0.508,-0.587 0.522,-0.55 0.531,-0.505C0.54,-0.46 0.544,-0.408 0.544,-0.35C0.544,-0.293 0.539,-0.243 0.529,-0.198C0.519,-0.153 0.504,-0.115 0.484,-0.084C0.464,-0.053 0.439,-0.029 0.408,-0.013C0.377,0.004 0.341,0.012 0.299,0.012C0.255,0.012 0.218,0.003 0.187,-0.015C0.156,-0.032 0.13,-0.057 0.111,-0.089C0.091,-0.121 0.077,-0.159 0.068,-0.204C0.059,-0.248 0.055,-0.297 0.055,-0.35ZM0.462,-0.35C0.462,-0.385 0.46,-0.419 0.456,-0.451L0.159,-0.18C0.17,-0.142 0.187,-0.112 0.21,-0.089C0.233,-0.066 0.262,-0.055 0.299,-0.055C0.358,-0.055 0.4,-0.079 0.425,-0.128C0.45,-0.177 0.462,-0.251 0.462,-0.35ZM0.138,-0.35C0.138,-0.333 0.139,-0.317 0.14,-0.302C0.141,-0.287 0.142,-0.272 0.143,-0.257L0.441,-0.527C0.43,-0.563 0.413,-0.592 0.391,-0.613C0.368,-0.634 0.338,-0.645 0.3,-0.645C0.241,-0.645 0.199,-0.62 0.175,-0.572C0.15,-0.523 0.138,-0.449 0.138,-0.35Z" style="fill:rgb(0,122,229);fill-rule:nonzero;"/>
            </g>
            <g transform="matrix(48,0,0,48,14325.5,1868.71)">
                <rect x="0.088" y="-0.325" width="0.424" height="0.074" style="fill:rgb(0,122,229);fill-rule:nonzero;"/>
            </g>
            <g transform="matrix(48,0,0,48,14383.1,1868.71)">
                <path d="M0.055,-0.35C0.055,-0.407 0.06,-0.458 0.07,-0.503C0.08,-0.548 0.095,-0.586 0.115,-0.617C0.135,-0.648 0.16,-0.671 0.191,-0.688C0.222,-0.704 0.258,-0.712 0.3,-0.712C0.345,-0.712 0.383,-0.704 0.414,-0.688C0.445,-0.672 0.47,-0.649 0.489,-0.618C0.508,-0.587 0.522,-0.55 0.531,-0.505C0.54,-0.46 0.544,-0.408 0.544,-0.35C0.544,-0.293 0.539,-0.243 0.529,-0.198C0.519,-0.153 0.504,-0.115 0.484,-0.084C0.464,-0.053 0.439,-0.029 0.408,-0.013C0.377,0.004 0.341,0.012 0.299,0.012C0.255,0.012 0.218,0.003 0.187,-0.015C0.156,-0.032 0.13,-0.057 0.111,-0.089C0.091,-0.121 0.077,-0.159 0.068,-0.204C0.059,-0.248 0.055,-0.297 0.055,-0.35ZM0.462,-0.35C0.462,-0.385 0.46,-0.419 0.456,-0.451L0.159,-0.18C0.17,-0.142 0.187,-0.112 0.21,-0.089C0.233,-0.066 0.262,-0.055 0.299,-0.055C0.358,-0.055 0.4,-0.079 0.425,-0.128C0.45,-0.177 0.462,-0.251 0.462,-0.35ZM0.138,-0.35C0.138,-0.333 0.139,-0.317 0.14,-0.302C0.141,-0.287 0.142,-0.272 0.143,-0.257L0.441,-0.527C0.43,-0.563 0.413,-0.592 0.391,-0.613C0.368,-0.634 0.338,-0.645 0.3,-0.645C0.241,-0.645 0.199,-0.62 0.175,-0.572C0.15,-0.523 0.138,-0.449 0.138,-0.35Z" style="fill:rgb(0,122,229);fill-rule:nonzero;"/>
            </g>
        </g>
        <g transform="matrix(1.20707,0,0,1.20707,-15773.3,-1759.02)">
            <g transform="matrix(48,0,0,48,14325.5,1796.71)">
                <path d="M0.127,-0.072L0.284,-0.072L0.284,-0.598L0.124,-0.486L0.085,-0.543L0.305,-0.7L0.361,-0.7L0.361,-0.072L0.515,-0.072L0.515,-0L0.127,-0L0.127,-0.072Z" style="fill:rgb(0,122,229);fill-rule:nonzero;"/>
            </g>
            <g transform="matrix(48,0,0,48,14383.1,1796.71)">
                <path d="M0.055,-0.35C0.055,-0.407 0.06,-0.458 0.07,-0.503C0.08,-0.548 0.095,-0.586 0.115,-0.617C0.135,-0.648 0.16,-0.671 0.191,-0.688C0.222,-0.704 0.258,-0.712 0.3,-0.712C0.345,-0.712 0.383,-0.704 0.414,-0.688C0.445,-0.672 0.47,-0.649 0.489,-0.618C0.508,-0.587 0.522,-0.55 0.531,-0.505C0.54,-0.46 0.544,-0.408 0.544,-0.35C0.544,-0.293 0.539,-0.243 0.529,-0.198C0.519,-0.153 0.504,-0.115 0.484,-0.084C0.464,-0.053 0.439,-0.029 0.408,-0.013C0.377,0.004 0.341,0.012 0.299,0.012C0.255,0.012 0.218,0.003 0.187,-0.015C0.156,-0.032 0.13,-0.057 0.111,-0.089C0.091,-0.121 0.077,-0.159 0.068,-0.204C0.059,-0.248 0.055,-0.297 0.055,-0.35ZM0.462,-0.35C0.462,-0.385 0.46,-0.419 0.456,-0.451L0.159,-0.18C0.17,-0.142 0.187,-0.112 0.21,-0.089C0.233,-0.066 0.262,-0.055 0.299,-0.055C0.358,-0.055 0.4,-0.079 0.425,-0.128C0.45,-0.177 0.462,-0.251 0.462,-0.35ZM0.138,-0.35C0.138,-0.333 0.139,-0.317 0.14,-0.302C0.141,-0.287 0.142,-0.272 0.143,-0.257L0.441,-0.527C0.43,-0.563 0.413,-0.592 0.391,-0.613C0.368,-0.634 0.338,-0.645 0.3,-0.645C0.241,-0.645 0.199,-0.62 0.175,-0.572C0.15,-0.523 0.138,-0.449 0.138,-0.35Z" style="fill:rgb(0,122,229);fill-rule:nonzero;"/>
            </g>
            <g transform="matrix(48,0,0,48,14325.5,1868.71)">
                <rect x="0.088" y="-0.325" width="0.424" height="0.074" style="fill:rgb(0,122,229);fill-rule:nonzero;"/>
            </g>
            <g transform="matrix(48,0,0,48,14383.1,1868.71)">
                <path d="M0.055,-0.35C0.055,-0.407 0.06,-0.458 0.07,-0.503C0.08,-0.548 0.095,-0.586 0.115,-0.617C0.135,-0.648 0.16,-0.671 0.191,-0.688C0.222,-0.704 0.258,-0.712 0.3,-0.712C0.345,-0.712 0.383,-0.704 0.414,-0.688C0.445,-0.672 0.47,-0.649 0.489,-0.618C0.508,-0.587 0.522,-0.55 0.531,-0.505C0.54,-0.46 0.544,-0.408 0.544,-0.35C0.544,-0.293 0.539,-0.243 0.529,-0.198C0.519,-0.153 0.504,-0.115 0.484,-0.084C0.464,-0.053 0.439,-0.029 0.408,-0.013C0.377,0.004 0.341,0.012 0.299,0.012C0.255,0.012 0.218,0.003 0.187,-0.015C0.156,-0.032 0.13,-0.057 0.111,-0.089C0.091,-0.121 0.077,-0.159 0.068,-0.204C0.059,-0.248 0.055,-0.297 0.055,-0.35ZM0.462,-0.35C0.462,-0.385 0.46,-0.419 0.456,-0.451L0.159,-0.18C0.17,-0.142 0.187,-0.112 0.21,-0.089C0.233,-0.066 0.262,-0.055 0.299,-0.055C0.358,-0.055 0.4,-0.079 0.425,-0.128C0.45,-0.177 0.462,-0.251 0.462,-0.35ZM0.138,-0.35C0.138,-0.333 0.139,-0.317 0.14,-0.302C0.141,-0.287 0.142,-0.272 0.143,-0.257L0.441,-0.527C0.43,-0.563 0.413,-0.592 0.391,-0.613C0.368,-0.634 0.338,-0.645 0.3,-0.645C0.241,-0.645 0.199,-0.62 0.175,-0.572C0.15,-0.523 0.138,-0.449 0.138,-0.35Z" style="fill:rgb(0,122,229);fill-rule:nonzero;"/>
            </g>
        </g>
        <g transform="matrix(1.20707,0,0,1.20707,-15329,-1759.02)">
            <g transform="matrix(48,0,0,48,14325.5,1796.71)">
                <path d="M0.127,-0.072L0.284,-0.072L0.284,-0.598L0.124,-0.486L0.085,-0.543L0.305,-0.7L0.361,-0.7L0.361,-0.072L0.515,-0.072L0.515,-0L0.127,-0L0.127,-0.072Z" style="fill:rgb(0,122,229);fill-rule:nonzero;"/>
            </g>
            <g transform="matrix(48,0,0,48,14383.1,1796.71)">
                <path d="M0.055,-0.35C0.055,-0.407 0.06,-0.458 0.07,-0.503C0.08,-0.548 0.095,-0.586 0.115,-0.617C0.135,-0.648 0.16,-0.671 0.191,-0.688C0.222,-0.704 0.258,-0.712 0.3,-0.712C0.345,-0.712 0.383,-0.704 0.414,-0.688C0.445,-0.672 0.47,-0.649 0.489,-0.618C0.508,-0.587 0.522,-0.55 0.531,-0.505C0.54,-0.46 0.544,-0.408 0.544,-0.35C0.544,-0.293 0.539,-0.243 0.529,-0.198C0.519,-0.153 0.504,-0.115 0.484,-0.084C0.464,-0.053 0.439,-0.029 0.408,-0.013C0.377,0.004 0.341,0.012 0.299,0.012C0.255,0.012 0.218,0.003 0.187,-0.015C0.156,-0.032 0.13,-0.057 0.111,-0.089C0.091,-0.121 0.077,-0.159 0.068,-0.204C0.059,-0.248 0.055,-0.297 0.055,-0.35ZM0.462,-0.35C0.462,-0.385 0.46,-0.419 0.456,-0.451L0.159,-0.18C0.17,-0.142 0.187,-0.112 0.21,-0.089C0.233,-0.066 0.262,-0.055 0.299,-0.055C0.358,-0.055 0.4,-0.079 0.425,-0.128C0.45,-0.177 0.462,-0.251 0.462,-0.35ZM0.138,-0.35C0.138,-0.333 0.139,-0.317 0.14,-0.302C0.141,-0.287 0.142,-0.272 0.143,-0.257L0.441,-0.527C0.43,-0.563 0.413,-0.592 0.391,-0.613C0.368,-0.634 0.338,-0.645 0.3,-0.645C0.241,-0.645 0.199,-0.62 0.175,-0.572C0.15,-0.523 0.138,-0.449 0.138,-0.35Z" style="fill:rgb(0,122,229);fill-rule:nonzero;"/>
            </g>
            <g transform="matrix(48,0,0,48,14325.5,1868.71)">
                <rect x="0.088" y="-0.325" width="0.424" height="0.074" style="fill:rgb(0,122,229);fill-rule:nonzero;"/>
            </g>
            <g transform="matrix(48,0,0,48,14383.1,1868.71)">
                <path d="M0.055,-0.35C0.055,-0.407 0.06,-0.458 0.07,-0.503C0.08,-0.548 0.095,-0.586 0.115,-0.617C0.135,-0.648 0.16,-0.671 0.191,-0.688C0.222,-0.704 0.258,-0.712 0.3,-0.712C0.345,-0.712 0.383,-0.704 0.414,-0.688C0.445,-0.672 0.47,-0.649 0.489,-0.618C0.508,-0.587 0.522,-0.55 0.531,-0.505C0.54,-0.46 0.544,-0.408 0.544,-0.35C0.544,-0.293 0.539,-0.243 0.529,-0.198C0.519,-0.153 0.504,-0.115 0.484,-0.084C0.464,-0.053 0.439,-0.029 0.408,-0.013C0.377,0.004 0.341,0.012 0.299,0.012C0.255,0.012 0.218,0.003 0.187,-0.015C0.156,-0.032 0.13,-0.057 0.111,-0.089C0.091,-0.121 0.077,-0.159 0.068,-0.204C0.059,-0.248 0.055,-0.297 0.055,-0.35ZM0.462,-0.35C0.462,-0.385 0.46,-0.419 0.456,-0.451L0.159,-0.18C0.17,-0.142 0.187,-0.112 0.21,-0.089C0.233,-0.066 0.262,-0.055 0.299,-0.055C0.358,-0.055 0.4,-0.079 0.425,-0.128C0.45,-0.177 0.462,-0.251 0.462,-0.35ZM0.138,-0.35C0.138,-0.333 0.139,-0.317 0.14,-0.302C0.141,-0.287 0.142,-0.272 0.143,-0.257L0.441,-0.527C0.43,-0.563 0.413,-0.592 0.391,-0.613C0.368,-0.634 0.338,-0.645 0.3,-0.645C0.241,-0.645 0.199,-0.62 0.175,-0.572C0.15,-0.523 0.138,-0.449 0.138,-0.35Z" style="fill:rgb(0,122,229);fill-rule:nonzero;"/>
            </g>
        </g>
        <g transform="matrix(1.20707,0,0,1.20707,-17089.6,-1160.67)">
            <g transform="matrix(48,0,0,48,14325.5,1796.71)">
                <path d="M0.127,-0.072L0.284,-0.072L0.284,-0.598L0.124,-0.486L0.085,-0.543L0.305,-0.7L0.361,-0.7L0.361,-0.072L0.515,-0.072L0.515,-0L0.127,-0L0.127,-0.072Z" style="fill:rgb(242,0,0);fill-rule:nonzero;"/>
            </g>
            <g transform="matrix(48,0,0,48,14383.1,1796.71)">
                <path d="M0.055,-0.35C0.055,-0.407 0.06,-0.458 0.07,-0.503C0.08,-0.548 0.095,-0.586 0.115,-0.617C0.135,-0.648 0.16,-0.671 0.191,-0.688C0.222,-0.704 0.258,-0.712 0.3,-0.712C0.345,-0.712 0.383,-0.704 0.414,-0.688C0.445,-0.672 0.47,-0.649 0.489,-0.618C0.508,-0.587 0.522,-0.55 0.531,-0.505C0.54,-0.46 0.544,-0.408 0.544,-0.35C0.544,-0.293 0.539,-0.243 0.529,-0.198C0.519,-0.153 0.504,-0.115 0.484,-0.084C0.464,-0.053 0.439,-0.029 0.408,-0.013C0.377,0.004 0.341,0.012 0.299,0.012C0.255,0.012 0.218,0.003 0.187,-0.015C0.156,-0.032 0.13,-0.057 0.111,-0.089C0.091,-0.121 0.077,-0.159 0.068,-0.204C0.059,-0.248 0.055,-0.297 0.055,-0.35ZM0.462,-0.35C0.462,-0.385 0.46,-0.419 0.456,-0.451L0.159,-0.18C0.17,-0.142 0.187,-0.112 0.21,-0.089C0.233,-0.066 0.262,-0.055 0.299,-0.055C0.358,-0.055 0.4,-0.079 0.425,-0.128C0.45,-0.177 0.462,-0.251 0.462,-0.35ZM0.138,-0.35C0.138,-0.333 0.139,-0.317 0.14,-0.302C0.141,-0.287 0.142,-0.272 0.143,-0.257L0.441,-0.527C0.43,-0.563 0.413,-0.592 0.391,-0.613C0.368,-0.634 0.338,-0.645 0.3,-0.645C0.241,-0.645 0.199,-0.62 0.175,-0.572C0.15,-0.523 0.138,-0.449 0.138,-0.35Z" style="fill:rgb(242,0,0);fill-rule:nonzero;"/>
            </g>
            <g transform="matrix(48,0,0,48,14325.5,1868.71)">
                <path d="M0.055,-0.35C0.055,-0.407 0.06,-0.458 0.07,-0.503C0.08,-0.548 0.095,-0.586 0.115,-0.617C0.135,-0.648 0.16,-0.671 0.191,-0.688C0.222,-0.704 0.258,-0.712 0.3,-0.712C0.345,-0.712 0.383,-0.704 0.414,-0.688C0.445,-0.672 0.47,-0.649 0.489,-0.618C0.508,-0.587 0.522,-0.55 0.531,-0.505C0.54,-0.46 0.544,-0.408 0.544,-0.35C0.544,-0.293 0.539,-0.243 0.529,-0.198C0.519,-0.153 0.504,-0.115 0.484,-0.084C0.464,-0.053 0.439,-0.029 0.408,-0.013C0.377,0.004 0.341,0.012 0.299,0.012C0.255,0.012 0.218,0.003 0.187,-0.015C0.156,-0.032 0.13,-0.057 0.111,-0.089C0.091,-0.121 0.077,-0.159 0.068,-0.204C0.059,-0.248 0.055,-0.297 0.055,-0.35ZM0.462,-0.35C0.462,-0.385 0.46,-0.419 0.456,-0.451L0.159,-0.18C0.17,-0.142 0.187,-0.112 0.21,-0.089C0.233,-0.066 0.262,-0.055 0.299,-0.055C0.358,-0.055 0.4,-0.079 0.425,-0.128C0.45,-0.177 0.462,-0.251 0.462,-0.35ZM0.138,-0.35C0.138,-0.333 0.139,-0.317 0.14,-0.302C0.141,-0.287 0.142,-0.272 0.143,-0.257L0.441,-0.527C0.43,-0.563 0.413,-0.592 0.391,-0.613C0.368,-0.634 0.338,-0.645 0.3,-0.645C0.241,-0.645 0.199,-0.62 0.175,-0.572C0.15,-0.523 0.138,-0.449 0.138,-0.35Z" style="fill:rgb(242,0,0);fill-rule:nonzero;"/>
            </g>
            <g transform="matrix(48,0,0,48,14383.1,1868.71)">
                <path d="M0.055,-0.35C0.055,-0.407 0.06,-0.458 0.07,-0.503C0.08,-0.548 0.095,-0.586 0.115,-0.617C0.135,-0.648 0.16,-0.671 0.191,-0.688C0.222,-0.704 0.258,-0.712 0.3,-0.712C0.345,-0.712 0.383,-0.704 0.414,-0.688C0.445,-0.672 0.47,-0.649 0.489,-0.618C0.508,-0.587 0.522,-0.55 0.531,-0.505C0.54,-0.46 0.544,-0.408 0.544,-0.35C0.544,-0.293 0.539,-0.243 0.529,-0.198C0.519,-0.153 0.504,-0.115 0.484,-0.084C0.464,-0.053 0.439,-0.029 0.408,-0.013C0.377,0.004 0.341,0.012 0.299,0.012C0.255,0.012 0.218,0.003 0.187,-0.015C0.156,-0.032 0.13,-0.057 0.111,-0.089C0.091,-0.121 0.077,-0.159 0.068,-0.204C0.059,-0.248 0.055,-0.297 0.055,-0.35ZM0.462,-0.35C0.462,-0.385 0.46,-0.419 0.456,-0.451L0.159,-0.18C0.17,-0.142 0.187,-0.112 0.21,-0.089C0.233,-0.066 0.262,-0.055 0.299,-0.055C0.358,-0.055 0.4,-0.079 0.425,-0.128C0.45,-0.177 0.462,-0.251 0.462,-0.35ZM0.138,-0.35C0.138,-0.333 0.139,-0.317 0.14,-0.302C0.141,-0.287 0.142,-0.272 0.143,-0.257L0.441,-0.527C0.43,-0.563 0.413,-0.592 0.391,-0.613C0.368,-0.634 0.338,-0.645 0.3,-0.645C0.241,-0.645 0.199,-0.62 0.175,-0.572C0.15,-0.523 0.138,-0.449 0.138,-0.35Z" style="fill:rgb(242,0,0);fill-rule:nonzero;"/>
            </g>
        </g>
        <g transform="matrix(1.20707,0,0,1.20707,-16652.5,-1160.67)">
            <g transform="matrix(48,0,0,48,14325.5,1796.71)">
                <path d="M0.127,-0.072L0.284,-0.072L0.284,-0.598L0.124,-0.486L0.085,-0.543L0.305,-0.7L0.361,-0.7L0.361,-0.072L0.515,-0.072L0.515,-0L0.127,-0L0.127,-0.072Z" style="fill:rgb(242,0,0);fill-rule:nonzero;"/>
            </g>
            <g transform="matrix(48,0,0,48,14383.1,1796.71)">
                <path d="M0.055,-0.35C0.055,-0.407 0.06,-0.458 0.07,-0.503C0.08,-0.548 0.095,-0.586 0.115,-0.617C0.135,-0.648 0.16,-0.671 0.191,-0.688C0.222,-0.704 0.258,-0.712 0.3,-0.712C0.345,-0.712 0.383,-0.704 0.414,-0.688C0.445,-0.672 0.47,-0.649 0.489,-0.618C0.508,-0.587 0.522,-0.55 0.531,-0.505C0.54,-0.46 0.544,-0.408 0.544,-0.35C0.544,-0.293 0.539,-0.243 0.529,-0.198C0.519,-0.153 0.504,-0.115 0.484,-0.084C0.464,-0.053 0.439,-0.029 0.408,-0.013C0.377,0.004 0.341,0.012 0.299,0.012C0.255,0.012 0.218,0.003 0.187,-0.015C0.156,-0.032 0.13,-0.057 0.111,-0.089C0.091,-0.121 0.077,-0.159 0.068,-0.204C0.059,-0.248 0.055,-0.297 0.055,-0.35ZM0.462,-0.35C0.462,-0.385 0.46,-0.419 0.456,-0.451L0.159,-0.18C0.17,-0.142 0.187,-0.112 0.21,-0.089C0.233,-0.066 0.262,-0.055 0.299,-0.055C0.358,-0.055 0.4,-0.079 0.425,-0.128C0.45,-0.177 0.462,-0.251 0.462,-0.35ZM0.138,-0.35C0.138,-0.333 0.139,-0.317 0.14,-0.302C0.141,-0.287 0.142,-0.272 0.143,-0.257L0.441,-0.527C0.43,-0.563 0.413,-0.592 0.391,-0.613C0.368,-0.634 0.338,-0.645 0.3,-0.645C0.241,-0.645 0.199,-0.62 0.175,-0.572C0.15,-0.523 0.138,-0.449 0.138,-0.35Z" style="fill:rgb(242,0,0);fill-rule:nonzero;"/>
            </g>
            <g transform="matrix(48,0,0,48,14325.5,1868.71)">
                <path d="M0.055,-0.35C0.055,-0.407 0.06,-0.458 0.07,-0.503C0.08,-0.548 0.095,-0.586 0.115,-0.617C0.135,-0.648 0.16,-0.671 0.191,-0.688C0.222,-0.704 0.258,-0.712 0.3,-0.712C0.345,-0.712 0.383,-0.704 0.414,-0.688C0.445,-0.672 0.47,-0.649 0.489,-0.618C0.508,-0.587 0.522,-0.55 0.531,-0.505C0.54,-0.46 0.544,-0.408 0.544,-0.35C0.544,-0.293 0.539,-0.243 0.529,-0.198C0.519,-0.153 0.504,-0.115 0.484,-0.084C0.464,-0.053 0.439,-0.029 0.408,-0.013C0.377,0.004 0.341,0.012 0.299,0.012C0.255,0.012 0.218,0.003 0.187,-0.015C0.156,-0.032 0.13,-0.057 0.111,-0.089C0.091,-0.121 0.077,-0.159 0.068,-0.204C0.059,-0.248 0.055,-0.297 0.055,-0.35ZM0.462,-0.35C0.462,-0.385 0.46,-0.419 0.456,-0.451L0.159,-0.18C0.17,-0.142 0.187,-0.112 0.21,-0.089C0.233,-0.066 0.262,-0.055 0.299,-0.055C0.358,-0.055 0.4,-0.079 0.425,-0.128C0.45,-0.177 0.462,-0.251 0.462,-0.35ZM0.138,-0.35C0.138,-0.333 0.139,-0.317 0.14,-0.302C0.141,-0.287 0.142,-0.272 0.143,-0.257L0.441,-0.527C0.43,-0.563 0.413,-0.592 0.391,-0.613C0.368,-0.634 0.338,-0.645 0.3,-0.645C0.241,-0.645 0.199,-0.62 0.175,-0.572C0.15,-0.523 0.138,-0.449 0.138,-0.35Z" style="fill:rgb(242,0,0);fill-rule:nonzero;"/>
            </g>
            <g transform="matrix(48,0,0,48,14383.1,1868.71)">
                <path d="M0.055,-0.35C0.055,-0.407 0.06,-0.458 0.07,-0.503C0.08,-0.548 0.095,-0.586 0.115,-0.617C0.135,-0.648 0.16,-0.671 0.191,-0.688C0.222,-0.704 0.258,-0.712 0.3,-0.712C0.345,-0.712 0.383,-0.704 0.414,-0.688C0.445,-0.672 0.47,-0.649 0.489,-0.618C0.508,-0.587 0.522,-0.55 0.531,-0.505C0.54,-0.46 0.544,-0.408 0.544,-0.35C0.544,-0.293 0.539,-0.243 0.529,-0.198C0.519,-0.153 0.504,-0.115 0.484,-0.084C0.464,-0.053 0.439,-0.029 0.408,-0.013C0.377,0.004 0.341,0.012 0.299,0.012C0.255,0.012 0.218,0.003 0.187,-0.015C0.156,-0.032 0.13,-0.057 0.111,-0.089C0.091,-0.121 0.077,-0.159 0.068,-0.204C0.059,-0.248 0.055,-0.297 0.055,-0.35ZM0.462,-0.35C0.462,-0.385 0.46,-0.419 0.456,-0.451L0.159,-0.18C0.17,-0.142 0.187,-0.112 0.21,-0.089C0.233,-0.066 0.262,-0.055 0.299,-0.055C0.358,-0.055 0.4,-0.079 0.425,-0.128C0.45,-0.177 0.462,-0.251 0.462,-0.35ZM0.138,-0.35C0.138,-0.333 0.139,-0.317 0.14,-0.302C0.141,-0.287 0.142,-0.272 0.143,-0.257L0.441,-0.527C0.43,-0.563 0.413,-0.592 0.391,-0.613C0.368,-0.634 0.338,-0.645 0.3,-0.645C0.241,-0.645 0.199,-0.62 0.175,-0.572C0.15,-0.523 0.138,-0.449 0.138,-0.35Z" style="fill:rgb(242,0,0);fill-rule:nonzero;"/>
            </g>
        </g>
        <g transform="matrix(1.20707,0,0,1.20707,-16209.1,-1160.67)">
            <g transform="matrix(48,0,0,48,14325.5,1796.71)">
                <rect x="0.088" y="-0.325" width="0.424" height="0.074" style="fill:rgb(0,122,229);fill-rule:nonzero;"/>
            </g>
            <g transform="matrix(48,0,0,48,14383.1,1796.71)">
                <path d="M0.127,-0.072L0.284,-0.072L0.284,-0.598L0.124,-0.486L0.085,-0.543L0.305,-0.7L0.361,-0.7L0.361,-0.072L0.515,-0.072L0.515,-0L0.127,-0L0.127,-0.072Z" style="fill:rgb(0,122,229);fill-rule:nonzero;"/>
            </g>
            <g transform="matrix(48,0,0,48,14325.5,1868.71)">
                <rect x="0.088" y="-0.325" width="0.424" height="0.074" style="fill:rgb(0,122,229);fill-rule:nonzero;"/>
            </g>
            <g transform="matrix(48,0,0,48,14383.1,1868.71)">
                <path d="M0.055,-0.35C0.055,-0.407 0.06,-0.458 0.07,-0.503C0.08,-0.548 0.095,-0.586 0.115,-0.617C0.135,-0.648 0.16,-0.671 0.191,-0.688C0.222,-0.704 0.258,-0.712 0.3,-0.712C0.345,-0.712 0.383,-0.704 0.414,-0.688C0.445,-0.672 0.47,-0.649 0.489,-0.618C0.508,-0.587 0.522,-0.55 0.531,-0.505C0.54,-0.46 0.544,-0.408 0.544,-0.35C0.544,-0.293 0.539,-0.243 0.529,-0.198C0.519,-0.153 0.504,-0.115 0.484,-0.084C0.464,-0.053 0.439,-0.029 0.408,-0.013C0.377,0.004 0.341,0.012 0.299,0.012C0.255,0.012 0.218,0.003 0.187,-0.015C0.156,-0.032 0.13,-0.057 0.111,-0.089C0.091,-0.121 0.077,-0.159 0.068,-0.204C0.059,-0.248 0.055,-0.297 0.055,-0.35ZM0.462,-0.35C0.462,-0.385 0.46,-0.419 0.456,-0.451L0.159,-0.18C0.17,-0.142 0.187,-0.112 0.21,-0.089C0.233,-0.066 0.262,-0.055 0.299,-0.055C0.358,-0.055 0.4,-0.079 0.425,-0.128C0.45,-0.177 0.462,-0.251 0.462,-0.35ZM0.138,-0.35C0.138,-0.333 0.139,-0.317 0.14,-0.302C0.141,-0.287 0.142,-0.272 0.143,-0.257L0.441,-0.527C0.43,-0.563 0.413,-0.592 0.391,-0.613C0.368,-0.634 0.338,-0.645 0.3,-0.645C0.241,-0.645 0.199,-0.62 0.175,-0.572C0.15,-0.523 0.138,-0.449 0.138,-0.35Z" style="fill:rgb(0,122,229);fill-rule:nonzero;"/>
            </g>
        </g>
        <g transform="matrix(1.20707,0,0,1.20707,-15773.5,-1161.36)">
            <g transform="matrix(48,0,0,48,14325.5,1796.71)">
                <rect x="0.088" y="-0.325" width="0.424" height="0.074" style="fill:rgb(0,122,229);fill-rule:nonzero;"/>
            </g>
            <g transform="matrix(48,0,0,48,14383.1,1796.71)">
                <path d="M0.127,-0.072L0.284,-0.072L0.284,-0.598L0.124,-0.486L0.085,-0.543L0.305,-0.7L0.361,-0.7L0.361,-0.072L0.515,-0.072L0.515,-0L0.127,-0L0.127,-0.072Z" style="fill:rgb(0,122,229);fill-rule:nonzero;"/>
            </g>
            <g transform="matrix(48,0,0,48,14325.5,1868.71)">
                <rect x="0.088" y="-0.325" width="0.424" height="0.074" style="fill:rgb(0,122,229);fill-rule:nonzero;"/>
            </g>
            <g transform="matrix(48,0,0,48,14383.1,1868.71)">
                <path d="M0.055,-0.35C0.055,-0.407 0.06,-0.458 0.07,-0.503C0.08,-0.548 0.095,-0.586 0.115,-0.617C0.135,-0.648 0.16,-0.671 0.191,-0.688C0.222,-0.704 0.258,-0.712 0.3,-0.712C0.345,-0.712 0.383,-0.704 0.414,-0.688C0.445,-0.672 0.47,-0.649 0.489,-0.618C0.508,-0.587 0.522,-0.55 0.531,-0.505C0.54,-0.46 0.544,-0.408 0.544,-0.35C0.544,-0.293 0.539,-0.243 0.529,-0.198C0.519,-0.153 0.504,-0.115 0.484,-0.084C0.464,-0.053 0.439,-0.029 0.408,-0.013C0.377,0.004 0.341,0.012 0.299,0.012C0.255,0.012 0.218,0.003 0.187,-0.015C0.156,-0.032 0.13,-0.057 0.111,-0.089C0.091,-0.121 0.077,-0.159 0.068,-0.204C0.059,-0.248 0.055,-0.297 0.055,-0.35ZM0.462,-0.35C0.462,-0.385 0.46,-0.419 0.456,-0.451L0.159,-0.18C0.17,-0.142 0.187,-0.112 0.21,-0.089C0.233,-0.066 0.262,-0.055 0.299,-0.055C0.358,-0.055 0.4,-0.079 0.425,-0.128C0.45,-0.177 0.462,-0.251 0.462,-0.35ZM0.138,-0.35C0.138,-0.333 0.139,-0.317 0.14,-0.302C0.141,-0.287 0.142,-0.272 0.143,-0.257L0.441,-0.527C0.43,-0.563 0.413,-0.592 0.391,-0.613C0.368,-0.634 0.338,-0.645 0.3,-0.645C0.241,-0.645 0.199,-0.62 0.175,-0.572C0.15,-0.523 0.138,-0.449 0.138,-0.35Z" style="fill:rgb(0,122,229);fill-rule:nonzero;"/>
            </g>
        </g>
        <g transform="matrix(1.20707,0,0,1.20707,-15329.2,-1161.36)">
            <g transform="matrix(48,0,0,48,14325.5,1796.71)">
                <rect x="0.088" y="-0.325" width="0.424" height="0.074" style="fill:rgb(0,122,229);fill-rule:nonzero;"/>
            </g>
            <g transform="matrix(48,0,0,48,14383.1,1796.71)">
                <path d="M0.127,-0.072L0.284,-0.072L0.284,-0.598L0.124,-0.486L0.085,-0.543L0.305,-0.7L0.361,-0.7L0.361,-0.072L0.515,-0.072L0.515,-0L0.127,-0L0.127,-0.072Z" style="fill:rgb(0,122,229);fill-rule:nonzero;"/>
            </g>
            <g transform="matrix(48,0,0,48,14325.5,1868.71)">
                <rect x="0.088" y="-0.325" width="0.424" height="0.074" style="fill:rgb(0,122,229);fill-rule:nonzero;"/>
            </g>
            <g transform="matrix(48,0,0,48,14383.1,1868.71)">
                <path d="M0.055,-0.35C0.055,-0.407 0.06,-0.458 0.07,-0.503C0.08,-0.548 0.095,-0.586 0.115,-0.617C0.135,-0.648 0.16,-0.671 0.191,-0.688C0.222,-0.704 0.258,-0.712 0.3,-0.712C0.345,-0.712 0.383,-0.704 0.414,-0.688C0.445,-0.672 0.47,-0.649 0.489,-0.618C0.508,-0.587 0.522,-0.55 0.531,-0.505C0.54,-0.46 0.544,-0.408 0.544,-0.35C0.544,-0.293 0.539,-0.243 0.529,-0.198C0.519,-0.153 0.504,-0.115 0.484,-0.084C0.464,-0.053 0.439,-0.029 0.408,-0.013C0.377,0.004 0.341,0.012 0.299,0.012C0.255,0.012 0.218,0.003 0.187,-0.015C0.156,-0.032 0.13,-0.057 0.111,-0.089C0.091,-0.121 0.077,-0.159 0.068,-0.204C0.059,-0.248 0.055,-0.297 0.055,-0.35ZM0.462,-0.35C0.462,-0.385 0.46,-0.419 0.456,-0.451L0.159,-0.18C0.17,-0.142 0.187,-0.112 0.21,-0.089C0.233,-0.066 0.262,-0.055 0.299,-0.055C0.358,-0.055 0.4,-0.079 0.425,-0.128C0.45,-0.177 0.462,-0.251 0.462,-0.35ZM0.138,-0.35C0.138,-0.333 0.139,-0.317 0.14,-0.302C0.141,-0.287 0.142,-0.272 0.143,-0.257L0.441,-0.527C0.43,-0.563 0.413,-0.592 0.391,-0.613C0.368,-0.634 0.338,-0.645 0.3,-0.645C0.241,-0.645 0.199,-0.62 0.175,-0.572C0.15,-0.523 0.138,-0.449 0.138,-0.35Z" style="fill:rgb(0,122,229);fill-rule:nonzero;"/>
            </g>
        </g>
        <path d="M241.793,76.014L241.793,72.186C244.775,73.696 247.36,74.452 249.547,74.452C251.553,74.452 253.209,73.843 254.518,72.625C255.827,71.408 256.481,69.842 256.481,67.928C256.481,66.001 255.761,64.432 254.323,63.221C252.884,62.01 250.439,61.405 246.989,61.405L244.977,61.405L244.977,58.377L247.77,58.377C250.309,58.377 252.145,57.808 253.278,56.668C254.411,55.529 254.977,54.263 254.977,52.87C254.977,51.607 254.515,50.542 253.59,49.676C252.666,48.81 251.247,48.377 249.332,48.377C247.184,48.377 244.873,48.983 242.399,50.194L242.399,46.737C244.873,45.812 247.138,45.35 249.196,45.35C252.881,45.35 255.423,46.076 256.823,47.528C258.222,48.98 258.922,50.637 258.922,52.498C258.922,53.879 258.551,55.174 257.809,56.385C257.067,57.596 255.7,58.677 253.707,59.627C255.465,60.148 256.793,60.786 257.692,61.541C258.59,62.297 259.271,63.189 259.733,64.217C260.195,65.246 260.426,66.398 260.426,67.674C260.426,70.513 259.375,72.857 257.272,74.706C255.169,76.554 252.451,77.479 249.118,77.479C248.154,77.479 247.103,77.407 245.963,77.264C244.824,77.121 243.434,76.704 241.793,76.014Z" style="fill:rgb(128,128,128);fill-rule:nonzero;"/>
        <path d="M276.774,76.561L276.774,68.084L263.903,68.084L263.903,65.038L276.774,46.248L280.426,46.248L280.426,65.038L286.032,65.038L286.032,68.084L280.426,68.084L280.426,76.561L276.774,76.561ZM276.774,65.038L276.774,51.756L267.77,65.038L276.774,65.038Z" style="fill:rgb(128,128,128);fill-rule:nonzero;"/>
        <path d="M241.793,675.557L241.793,671.728C244.775,673.239 247.36,673.994 249.547,673.994C251.553,673.994 253.209,673.385 254.518,672.168C255.827,670.95 256.481,669.385 256.481,667.471C256.481,665.544 255.761,663.975 254.323,662.764C252.884,661.553 250.439,660.947 246.989,660.947L244.977,660.947L244.977,657.92L247.77,657.92C250.309,657.92 252.145,657.35 253.278,656.211C254.411,655.072 254.977,653.805 254.977,652.412C254.977,651.149 254.515,650.085 253.59,649.219C252.666,648.353 251.247,647.92 249.332,647.92C247.184,647.92 244.873,648.525 242.399,649.736L242.399,646.279C244.873,645.355 247.138,644.893 249.196,644.893C252.881,644.893 255.423,645.618 256.823,647.07C258.222,648.522 258.922,650.179 258.922,652.041C258.922,653.421 258.551,654.717 257.809,655.928C257.067,657.139 255.7,658.219 253.707,659.17C255.465,659.691 256.793,660.329 257.692,661.084C258.59,661.839 259.271,662.731 259.733,663.76C260.195,664.788 260.426,665.941 260.426,667.217C260.426,670.055 259.375,672.399 257.272,674.248C255.169,676.097 252.451,677.021 249.118,677.021C248.154,677.021 247.103,676.95 245.963,676.807C244.824,676.663 243.434,676.247 241.793,675.557Z" style="fill:rgb(128,128,128);fill-rule:nonzero;"/>
        <path d="M281.247,660.01C280.309,661.403 279.147,662.539 277.76,663.418C276.373,664.297 274.847,664.736 273.18,664.736C271.605,664.736 270.11,664.355 268.698,663.594C267.285,662.832 266.207,661.761 265.465,660.381C264.723,659.001 264.352,657.399 264.352,655.576C264.352,652.712 265.273,650.215 267.116,648.086C268.958,645.957 271.383,644.893 274.391,644.893C277.933,644.893 280.579,646.374 282.331,649.336C284.082,652.298 284.957,656.064 284.957,660.635C284.957,665.687 283.844,669.681 281.618,672.617C279.391,675.553 276.377,677.021 272.575,677.021C270.53,677.021 268.545,676.715 266.618,676.103L266.618,672.451C268.779,673.467 270.817,673.975 272.731,673.975C275.439,673.975 277.536,672.731 279.02,670.244C280.504,667.757 281.247,664.606 281.247,660.791L281.247,660.01ZM274.118,647.92C273.141,647.92 272.158,648.21 271.168,648.789C270.179,649.368 269.401,650.257 268.834,651.455C268.268,652.653 267.985,653.968 267.985,655.4C267.985,657.236 268.463,658.747 269.42,659.932C270.377,661.116 271.741,661.709 273.512,661.709C275.348,661.709 276.855,661.022 278.034,659.648C279.212,658.275 279.801,656.611 279.801,654.658C279.801,652.679 279.225,651.061 278.073,649.805C276.92,648.548 275.602,647.92 274.118,647.92Z" style="fill:rgb(128,128,128);fill-rule:nonzero;"/>
        <path d="M679.908,76.014L679.908,72.186C682.89,73.696 685.475,74.452 687.662,74.452C689.667,74.452 691.324,73.843 692.633,72.625C693.941,71.408 694.596,69.842 694.596,67.928C694.596,66.001 693.876,64.432 692.437,63.221C690.999,62.01 688.554,61.405 685.103,61.405L683.092,61.405L683.092,58.377L685.885,58.377C688.424,58.377 690.26,57.808 691.393,56.668C692.525,55.529 693.092,54.263 693.092,52.87C693.092,51.607 692.629,50.542 691.705,49.676C690.781,48.81 689.361,48.377 687.447,48.377C685.299,48.377 682.988,48.983 680.514,50.194L680.514,46.737C682.988,45.812 685.253,45.35 687.31,45.35C690.995,45.35 693.538,46.076 694.937,47.528C696.337,48.98 697.037,50.637 697.037,52.498C697.037,53.879 696.666,55.174 695.924,56.385C695.182,57.596 693.814,58.677 691.822,59.627C693.58,60.148 694.908,60.786 695.807,61.541C696.705,62.297 697.385,63.189 697.848,64.217C698.31,65.246 698.541,66.398 698.541,67.674C698.541,70.513 697.49,72.857 695.387,74.706C693.284,76.554 690.566,77.479 687.232,77.479C686.269,77.479 685.217,77.407 684.078,77.264C682.939,77.121 681.549,76.704 679.908,76.014Z" style="fill:rgb(128,128,128);fill-rule:nonzero;"/>
        <path d="M704.752,60.799L704.752,46.248L721.725,46.248L721.725,49.745L708.385,49.745L708.385,57.166L709.01,57.166C713.372,57.166 716.731,58.078 719.088,59.901C721.445,61.724 722.623,64.178 722.623,67.264C722.623,69.217 722.148,70.969 721.197,72.518C720.247,74.068 718.906,75.282 717.174,76.161C715.442,77.04 713.6,77.479 711.646,77.479C709.693,77.479 707.193,77.004 704.146,76.053L704.146,72.088C705.253,72.687 706.49,73.179 707.857,73.563C709.225,73.947 710.488,74.139 711.646,74.139C712.805,74.139 713.938,73.859 715.045,73.299C716.152,72.739 717.011,71.922 717.623,70.848C718.235,69.774 718.541,68.677 718.541,67.557C718.541,65.669 717.704,64.071 716.031,62.762C714.358,61.454 711.386,60.799 707.115,60.799L704.752,60.799Z" style="fill:rgb(128,128,128);fill-rule:nonzero;"/>
        <path d="M690.885,676.103L690.885,667.627L678.014,667.627L678.014,664.58L690.885,645.791L694.537,645.791L694.537,664.58L700.143,664.58L700.143,667.627L694.537,667.627L694.537,676.103L690.885,676.103ZM690.885,664.58L690.885,651.299L681.881,664.58L690.885,664.58Z" style="fill:rgb(128,128,128);fill-rule:nonzero;"/>
        <path d="M713.072,644.893C716.523,644.893 719.153,646.341 720.963,649.238C722.773,652.135 723.678,656.038 723.678,660.947C723.678,665.869 722.773,669.779 720.963,672.676C719.153,675.573 716.523,677.021 713.072,677.021C709.635,677.021 707.008,675.573 705.191,672.676C703.375,669.779 702.467,665.869 702.467,660.947C702.467,656.038 703.375,652.135 705.191,649.238C707.008,646.341 709.635,644.893 713.072,644.893ZM707.154,667.432L717.643,651.006C716.978,649.795 716.259,648.978 715.484,648.555C714.71,648.131 713.906,647.92 713.072,647.92C710.898,647.92 709.244,649.128 708.111,651.543C706.978,653.958 706.412,657.021 706.412,660.732C706.412,661.579 706.438,662.49 706.49,663.467C706.542,664.443 706.764,665.765 707.154,667.432ZM718.951,654.619L708.541,671.143C709.101,672.093 709.745,672.806 710.475,673.281C711.204,673.756 712.018,673.994 712.916,673.994C715.39,673.994 717.148,672.611 718.189,669.844C719.231,667.077 719.752,664.007 719.752,660.635C719.752,658.551 719.485,656.546 718.951,654.619Z" style="fill:rgb(128,128,128);fill-rule:nonzero;"/>
        <path d="M1559.11,76.014L1559.11,72.186C1562.1,73.696 1564.68,74.452 1566.87,74.452C1568.87,74.452 1570.53,73.843 1571.84,72.625C1573.15,71.408 1573.8,69.842 1573.8,67.928C1573.8,66.001 1573.08,64.432 1571.64,63.221C1570.2,62.01 1567.76,61.405 1564.31,61.405L1562.3,61.405L1562.3,58.377L1565.09,58.377C1567.63,58.377 1569.47,57.808 1570.6,56.668C1571.73,55.529 1572.3,54.263 1572.3,52.87C1572.3,51.607 1571.84,50.542 1570.91,49.676C1569.99,48.81 1568.57,48.377 1566.65,48.377C1564.51,48.377 1562.19,48.983 1559.72,50.194L1559.72,46.737C1562.19,45.812 1564.46,45.35 1566.52,45.35C1570.2,45.35 1572.74,46.076 1574.14,47.528C1575.54,48.98 1576.24,50.637 1576.24,52.498C1576.24,53.879 1575.87,55.174 1575.13,56.385C1574.39,57.596 1573.02,58.677 1571.03,59.627C1572.79,60.148 1574.11,60.786 1575.01,61.541C1575.91,62.297 1576.59,63.189 1577.05,64.217C1577.52,65.246 1577.75,66.398 1577.75,67.674C1577.75,70.513 1576.69,72.857 1574.59,74.706C1572.49,76.554 1569.77,77.479 1566.44,77.479C1565.48,77.479 1564.42,77.407 1563.28,77.264C1562.14,77.121 1560.76,76.704 1559.11,76.014Z" style="fill:rgb(128,128,128);fill-rule:nonzero;"/>
        <path d="M1586.52,76.561L1586.52,73.846C1586.52,71.724 1586.76,69.94 1587.24,68.495C1587.72,67.049 1588.57,65.441 1589.78,63.67C1590.99,61.9 1591.96,60.532 1592.69,59.569L1595.85,55.389L1596.99,53.924C1597.84,52.765 1598.59,51.424 1599.21,49.901L1583.49,49.901L1583.49,46.248L1602.73,46.248L1602.73,48.67C1602.73,49.634 1602.54,50.526 1602.15,51.346C1601.77,52.166 1600.61,53.918 1598.66,56.6C1598.2,57.238 1597.73,57.876 1597.28,58.514L1595.25,61.366C1593.94,63.202 1592.98,64.666 1592.36,65.76C1591.73,66.854 1591.26,67.993 1590.94,69.178C1590.62,70.363 1590.46,71.919 1590.46,73.846L1590.46,76.561L1586.52,76.561Z" style="fill:rgb(128,128,128);fill-rule:nonzero;"/>
        <path d="M1574.09,676.103L1574.09,667.627L1561.22,667.627L1561.22,664.58L1574.09,645.791L1577.74,645.791L1577.74,664.58L1583.35,664.58L1583.35,667.627L1577.74,667.627L1577.74,676.103L1574.09,676.103ZM1574.09,664.58L1574.09,651.299L1565.09,664.58L1574.09,664.58Z" style="fill:rgb(128,128,128);fill-rule:nonzero;"/>
        <path d="M1605.54,676.103L1587.2,676.103L1587.2,672.764C1587.2,671.904 1587.37,670.983 1587.72,670C1588.08,669.017 1588.75,667.913 1589.74,666.689C1590.73,665.465 1591.77,664.287 1592.88,663.154L1594.95,661.045C1595.37,660.615 1596.28,659.619 1597.68,658.057C1599.09,656.494 1600.02,655.296 1600.47,654.463C1600.92,653.63 1601.14,652.809 1601.14,652.002C1601.14,650.7 1600.62,649.694 1599.58,648.984C1598.54,648.275 1597.37,647.92 1596.06,647.92C1595.32,647.92 1594.49,648.005 1593.57,648.174C1592.65,648.343 1591.85,648.542 1591.16,648.769C1590.47,648.997 1589.35,649.463 1587.8,650.166L1587.8,646.943C1589.44,646.162 1591.09,645.625 1592.73,645.332C1594.38,645.039 1595.74,644.893 1596.81,644.893C1598.38,644.893 1599.83,645.15 1601.15,645.664C1602.47,646.178 1603.46,646.976 1604.1,648.057C1604.75,649.137 1605.07,650.29 1605.07,651.514C1605.07,652.881 1604.65,654.281 1603.83,655.713C1603,657.145 1601.44,658.988 1599.15,661.24L1596.92,663.447L1595.05,665.283C1593.86,666.481 1592.91,667.64 1592.18,668.76C1591.45,669.88 1591.04,671.214 1590.97,672.764L1605.54,672.764L1605.54,676.103Z" style="fill:rgb(128,128,128);fill-rule:nonzero;"/>
        <path d="M1124.59,76.014L1124.59,72.186C1127.57,73.696 1130.16,74.452 1132.35,74.452C1134.35,74.452 1136.01,73.843 1137.32,72.625C1138.63,71.408 1139.28,69.842 1139.28,67.928C1139.28,66.001 1138.56,64.432 1137.12,63.221C1135.68,62.01 1133.24,61.405 1129.79,61.405L1127.78,61.405L1127.78,58.377L1130.57,58.377C1133.11,58.377 1134.94,57.808 1136.08,56.668C1137.21,55.529 1137.78,54.263 1137.78,52.87C1137.78,51.607 1137.31,50.542 1136.39,49.676C1135.46,48.81 1134.05,48.377 1132.13,48.377C1129.98,48.377 1127.67,48.983 1125.2,50.194L1125.2,46.737C1127.67,45.812 1129.94,45.35 1132,45.35C1135.68,45.35 1138.22,46.076 1139.62,47.528C1141.02,48.98 1141.72,50.637 1141.72,52.498C1141.72,53.879 1141.35,55.174 1140.61,56.385C1139.87,57.596 1138.5,58.677 1136.51,59.627C1138.26,60.148 1139.59,60.786 1140.49,61.541C1141.39,62.297 1142.07,63.189 1142.53,64.217C1142.99,65.246 1143.23,66.398 1143.23,67.674C1143.23,70.513 1142.17,72.857 1140.07,74.706C1137.97,76.554 1135.25,77.479 1131.92,77.479C1130.95,77.479 1129.9,77.407 1128.76,77.264C1127.62,77.121 1126.23,76.704 1124.59,76.014Z" style="fill:rgb(128,128,128);fill-rule:nonzero;"/>
        <path d="M1151.47,62.342C1152.4,60.949 1153.57,59.813 1154.95,58.934C1156.34,58.055 1157.87,57.616 1159.53,57.616C1161.11,57.616 1162.6,58 1164.02,58.768C1165.43,59.536 1166.51,60.607 1167.25,61.981C1167.99,63.355 1168.36,64.953 1168.36,66.776C1168.36,69.653 1167.44,72.157 1165.6,74.286C1163.76,76.415 1161.33,77.479 1158.32,77.479C1154.78,77.479 1152.13,75.998 1150.38,73.036C1148.63,70.073 1147.76,66.307 1147.76,61.737C1147.76,56.685 1148.87,52.691 1151.1,49.754C1153.32,46.818 1156.34,45.35 1160.14,45.35C1162.18,45.35 1164.17,45.65 1166.1,46.248L1166.1,49.92C1163.93,48.892 1161.9,48.377 1159.98,48.377C1157.28,48.377 1155.18,49.621 1153.69,52.108C1152.21,54.595 1151.47,57.746 1151.47,61.561L1151.47,62.342ZM1158.6,74.452C1159.57,74.452 1160.56,74.162 1161.55,73.582C1162.54,73.003 1163.31,72.111 1163.88,70.907C1164.45,69.702 1164.73,68.39 1164.73,66.971C1164.73,65.122 1164.25,63.605 1163.29,62.42C1162.34,61.235 1160.97,60.643 1159.2,60.643C1157.37,60.643 1155.86,61.33 1154.68,62.704C1153.5,64.077 1152.91,65.747 1152.91,67.713C1152.91,69.693 1153.49,71.31 1154.64,72.567C1155.79,73.823 1157.11,74.452 1158.6,74.452Z" style="fill:rgb(128,128,128);fill-rule:nonzero;"/>
        <path d="M1135.57,676.103L1135.57,667.627L1122.7,667.627L1122.7,664.58L1135.57,645.791L1139.22,645.791L1139.22,664.58L1144.83,664.58L1144.83,667.627L1139.22,667.627L1139.22,676.103L1135.57,676.103ZM1135.57,664.58L1135.57,651.299L1126.57,664.58L1135.57,664.58Z" style="fill:rgb(128,128,128);fill-rule:nonzero;"/>
        <path d="M1156.86,673.076L1156.86,649.678C1155.76,650.55 1154.7,651.292 1153.67,651.904C1152.65,652.516 1151.23,653.141 1149.44,653.779L1149.44,650.498C1152.29,649.287 1154.76,647.718 1156.86,645.791L1160.49,645.791L1160.49,673.076L1167.78,673.076L1167.78,676.103L1149.44,676.103L1149.44,673.076L1156.86,673.076Z" style="fill:rgb(128,128,128);fill-rule:nonzero;"/>
        <path d="M1987.86,76.014L1987.86,72.186C1990.85,73.696 1993.43,74.452 1995.62,74.452C1997.62,74.452 1999.28,73.843 2000.59,72.625C2001.9,71.408 2002.55,69.842 2002.55,67.928C2002.55,66.001 2001.83,64.432 2000.39,63.221C1998.96,62.01 1996.51,61.405 1993.06,61.405L1991.05,61.405L1991.05,58.377L1993.84,58.377C1996.38,58.377 1998.22,57.808 1999.35,56.668C2000.48,55.529 2001.05,54.263 2001.05,52.87C2001.05,51.607 2000.59,50.542 1999.66,49.676C1998.74,48.81 1997.32,48.377 1995.4,48.377C1993.26,48.377 1990.94,48.983 1988.47,50.194L1988.47,46.737C1990.94,45.812 1993.21,45.35 1995.27,45.35C1998.95,45.35 2001.49,46.076 2002.89,47.528C2004.29,48.98 2004.99,50.637 2004.99,52.498C2004.99,53.879 2004.62,55.174 2003.88,56.385C2003.14,57.596 2001.77,58.677 1999.78,59.627C2001.54,60.148 2002.86,60.786 2003.76,61.541C2004.66,62.297 2005.34,63.189 2005.8,64.217C2006.27,65.246 2006.5,66.398 2006.5,67.674C2006.5,70.513 2005.45,72.857 2003.34,74.706C2001.24,76.554 1998.52,77.479 1995.19,77.479C1994.23,77.479 1993.17,77.407 1992.03,77.264C1990.89,77.121 1989.51,76.704 1987.86,76.014Z" style="fill:rgb(128,128,128);fill-rule:nonzero;"/>
        <path d="M2018,60.213L2017.34,59.725C2016.41,59.074 2015.51,58.114 2014.62,56.844C2013.74,55.575 2013.29,54.178 2013.29,52.655C2013.29,50.637 2014.09,48.915 2015.68,47.489C2017.27,46.063 2019.28,45.35 2021.73,45.35C2023.23,45.35 2024.58,45.62 2025.77,46.161C2026.97,46.701 2027.9,47.498 2028.55,48.553C2029.2,49.608 2029.52,50.76 2029.52,52.01C2029.52,52.87 2029.38,53.7 2029.08,54.5C2028.78,55.301 2028.33,56.096 2027.74,56.883C2027.14,57.671 2025.97,58.781 2024.21,60.213L2025.85,61.522C2027.77,63.084 2029.06,64.432 2029.72,65.565C2030.38,66.698 2030.72,67.967 2030.72,69.373C2030.72,71.561 2029.92,73.459 2028.33,75.067C2026.74,76.675 2024.36,77.479 2021.18,77.479C2017.99,77.479 2015.61,76.727 2014.02,75.223C2012.43,73.719 2011.63,71.854 2011.63,69.627C2011.63,66.307 2013.76,63.169 2018,60.213ZM2021.73,58.358C2023.57,56.965 2024.72,55.799 2025.18,54.862C2025.64,53.924 2025.87,53.052 2025.87,52.245C2025.87,51.268 2025.44,50.379 2024.58,49.579C2023.72,48.778 2022.62,48.377 2021.26,48.377C2019.8,48.377 2018.69,48.814 2017.93,49.686C2017.17,50.558 2016.79,51.463 2016.79,52.401C2016.79,53.312 2017.11,54.172 2017.75,54.979C2018.38,55.786 2019.41,56.691 2020.81,57.694L2021.73,58.358ZM2020.74,62.147C2017.3,64.79 2015.58,67.264 2015.58,69.569C2015.58,70.936 2016.15,72.088 2017.28,73.026C2018.41,73.963 2019.75,74.432 2021.3,74.432C2022.72,74.432 2023.99,73.983 2025.11,73.084C2026.23,72.186 2026.79,71.066 2026.79,69.725C2026.79,68.41 2026.11,67.075 2024.75,65.721C2023.39,64.367 2022.44,63.482 2021.91,63.065L2020.74,62.147Z" style="fill:rgb(128,128,128);fill-rule:nonzero;"/>
        <path d="M2010.84,676.103L2010.84,667.627L1997.97,667.627L1997.97,664.58L2010.84,645.791L2014.49,645.791L2014.49,664.58L2020.1,664.58L2020.1,667.627L2014.49,667.627L2014.49,676.103L2010.84,676.103ZM2010.84,664.58L2010.84,651.299L2001.84,664.58L2010.84,664.58Z" style="fill:rgb(128,128,128);fill-rule:nonzero;"/>
        <path d="M2023.87,675.557L2023.87,671.728C2026.85,673.239 2029.43,673.994 2031.62,673.994C2033.63,673.994 2035.28,673.385 2036.59,672.168C2037.9,670.95 2038.56,669.385 2038.56,667.471C2038.56,665.544 2037.84,663.975 2036.4,662.764C2034.96,661.553 2032.51,660.947 2029.06,660.947L2027.05,660.947L2027.05,657.92L2029.85,657.92C2032.38,657.92 2034.22,657.35 2035.35,656.211C2036.49,655.072 2037.05,653.805 2037.05,652.412C2037.05,651.149 2036.59,650.085 2035.66,649.219C2034.74,648.353 2033.32,647.92 2031.41,647.92C2029.26,647.92 2026.95,648.525 2024.47,649.736L2024.47,646.279C2026.95,645.355 2029.21,644.893 2031.27,644.893C2034.96,644.893 2037.5,645.618 2038.9,647.07C2040.3,648.522 2041,650.179 2041,652.041C2041,653.421 2040.63,654.717 2039.88,655.928C2039.14,657.139 2037.77,658.219 2035.78,659.17C2037.54,659.691 2038.87,660.329 2039.77,661.084C2040.66,661.839 2041.35,662.731 2041.81,663.76C2042.27,664.788 2042.5,665.941 2042.5,667.217C2042.5,670.055 2041.45,672.399 2039.35,674.248C2037.24,676.097 2034.53,677.021 2031.19,677.021C2030.23,677.021 2029.18,676.95 2028.04,676.807C2026.9,676.663 2025.51,676.247 2023.87,675.557Z" style="fill:rgb(128,128,128);fill-rule:nonzero;"/>
    </g>
</svg>
