<?xml version="1.0" encoding="UTF-8" standalone="no"?>
<!DOCTYPE svg PUBLIC "-//W3C//DTD SVG 1.1//EN" "http://www.w3.org/Graphics/SVG/1.1/DTD/svg11.dtd">
<svg width="100%" height="100%" viewBox="0 0 2253 1136" version="1.1" xmlns="http://www.w3.org/2000/svg" xmlns:xlink="http://www.w3.org/1999/xlink" xml:space="preserve" xmlns:serif="http://www.serif.com/" style="fill-rule:evenodd;clip-rule:evenodd;stroke-linecap:square;stroke-linejoin:round;stroke-miterlimit:10;">
    <rect id="Clementini-Line-Areas" serif:id="Clementini Line-Areas" x="-226" y="-1367" width="2683.8" height="4624" style="fill:none;"/>
    <g id="Clementini-Line-Areas1" serif:id="Clementini Line-Areas">
        <rect x="115.759" y="120.224" width="292.111" height="213.652" style="fill:rgb(251,133,255);fill-opacity:0.5;stroke:rgb(251,133,255);stroke-width:6px;"/>
        <rect x="115.759" y="724.414" width="292.111" height="213.652" style="fill:rgb(251,133,255);fill-opacity:0.5;stroke:rgb(251,133,255);stroke-width:6px;"/>
        <rect x="701.253" y="120.224" width="292.111" height="213.652" style="fill:rgb(251,133,255);fill-opacity:0.5;stroke:rgb(251,133,255);stroke-width:6px;"/>
        <rect x="701.253" y="724.414" width="292.111" height="213.652" style="fill:rgb(251,133,255);fill-opacity:0.5;stroke:rgb(251,133,255);stroke-width:6px;"/>
        <rect x="1286.75" y="120.224" width="292.111" height="213.652" style="fill:rgb(251,133,255);fill-opacity:0.5;stroke:rgb(251,133,255);stroke-width:6px;"/>
        <rect x="1286.75" y="724.414" width="292.111" height="213.652" style="fill:rgb(251,133,255);fill-opacity:0.5;stroke:rgb(251,133,255);stroke-width:6px;"/>
        <rect x="1872.24" y="120.224" width="292.111" height="213.652" style="fill:rgb(251,133,255);fill-opacity:0.5;stroke:rgb(251,133,255);stroke-width:6px;"/>
        <rect x="1872.24" y="724.414" width="292.111" height="213.652" style="fill:rgb(251,133,255);fill-opacity:0.5;stroke:rgb(251,133,255);stroke-width:6px;"/>
        <path d="M23.898,227.05L115.759,120.224L314.925,120.224L355.966,333.876L442.875,413.784" style="fill:none;stroke:rgb(21,183,183);stroke-width:10px;"/>
        <path d="M1780.13,227.05L1872,120.224L2071.16,120.224L2091.68,227.05" style="fill:none;stroke:rgb(21,183,183);stroke-width:10px;"/>
        <path d="M773.612,227.05L747.042,120.224L951.052,120.224L926.911,227.05" style="fill:none;stroke:rgb(21,183,183);stroke-width:10px;"/>
        <path d="M115.759,831.24L63.282,831.24L44.541,664.854L188.107,664.854L182.427,724.414" style="fill:none;stroke:rgb(21,183,183);stroke-width:10px;"/>
        <path d="M700.707,831.24L648.23,831.24L629.49,664.854L743.055,664.854" style="fill:none;stroke:rgb(21,183,183);stroke-width:10px;"/>
        <path d="M1343.35,227.05L1235.92,173.637L1221.44,25.107L1319.39,22.692L1383.36,120.224L1523.2,120.224L1495.44,227.05" style="fill:none;stroke:rgb(21,183,183);stroke-width:10px;"/>
        <path d="M1357.84,724.414L1379.56,831.24L1517.17,938.066" style="fill:none;stroke:rgb(21,183,183);stroke-width:10px;"/>
        <path d="M1960.33,831.24L2097.94,938.066" style="fill:none;stroke:rgb(21,183,183);stroke-width:10px;"/>
        <g transform="matrix(1.20707,0,0,1.20707,-17091.3,-1746)">
            <g transform="matrix(48,0,0,48,14325.5,1796.71)">
                <path d="M0.106,-0.11L0.259,-0.11L0.259,-0.547L0.127,-0.446L0.067,-0.526L0.295,-0.7L0.383,-0.7L0.383,-0.11L0.533,-0.11L0.533,-0L0.106,-0L0.106,-0.11Z" style="fill-rule:nonzero;"/>
            </g>
            <g transform="matrix(48,0,0,48,14383.1,1796.71)">
                <path d="M0.106,-0.11L0.259,-0.11L0.259,-0.547L0.127,-0.446L0.067,-0.526L0.295,-0.7L0.383,-0.7L0.383,-0.11L0.533,-0.11L0.533,-0L0.106,-0L0.106,-0.11Z" style="fill-rule:nonzero;"/>
            </g>
            <g transform="matrix(48,0,0,48,14325.5,1868.71)">
                <rect x="0.088" y="-0.325" width="0.424" height="0.074" style="fill-rule:nonzero;"/>
            </g>
            <g transform="matrix(48,0,0,48,14383.1,1868.71)">
                <rect x="0.088" y="-0.325" width="0.424" height="0.074" style="fill-rule:nonzero;"/>
            </g>
        </g>
        <g transform="matrix(1.20707,0,0,1.20707,-17091.5,-1149.1)">
            <g transform="matrix(48,0,0,48,14325.5,1796.71)">
                <rect x="0.088" y="-0.325" width="0.424" height="0.074" style="fill:rgb(242,0,0);fill-rule:nonzero;"/>
            </g>
            <g transform="matrix(48,0,0,48,14383.1,1796.71)">
                <rect x="0.088" y="-0.325" width="0.424" height="0.074" style="fill:rgb(242,0,0);fill-rule:nonzero;"/>
            </g>
            <g transform="matrix(48,0,0,48,14325.5,1868.71)">
                <rect x="0.088" y="-0.325" width="0.424" height="0.074" style="fill:rgb(242,0,0);fill-rule:nonzero;"/>
            </g>
            <g transform="matrix(48,0,0,48,14383.1,1868.71)">
                <path d="M0.055,-0.35C0.055,-0.407 0.06,-0.458 0.07,-0.503C0.08,-0.548 0.095,-0.586 0.115,-0.617C0.135,-0.648 0.16,-0.671 0.191,-0.688C0.222,-0.704 0.258,-0.712 0.3,-0.712C0.345,-0.712 0.383,-0.704 0.414,-0.688C0.445,-0.672 0.47,-0.649 0.489,-0.618C0.508,-0.587 0.522,-0.55 0.531,-0.505C0.54,-0.46 0.544,-0.408 0.544,-0.35C0.544,-0.293 0.539,-0.243 0.529,-0.198C0.519,-0.153 0.504,-0.115 0.484,-0.084C0.464,-0.053 0.439,-0.029 0.408,-0.013C0.377,0.004 0.341,0.012 0.299,0.012C0.255,0.012 0.218,0.003 0.187,-0.015C0.156,-0.032 0.13,-0.057 0.111,-0.089C0.091,-0.121 0.077,-0.159 0.068,-0.204C0.059,-0.248 0.055,-0.297 0.055,-0.35ZM0.462,-0.35C0.462,-0.385 0.46,-0.419 0.456,-0.451L0.159,-0.18C0.17,-0.142 0.187,-0.112 0.21,-0.089C0.233,-0.066 0.262,-0.055 0.299,-0.055C0.358,-0.055 0.4,-0.079 0.425,-0.128C0.45,-0.177 0.462,-0.251 0.462,-0.35ZM0.138,-0.35C0.138,-0.333 0.139,-0.317 0.14,-0.302C0.141,-0.287 0.142,-0.272 0.143,-0.257L0.441,-0.527C0.43,-0.563 0.413,-0.592 0.391,-0.613C0.368,-0.634 0.338,-0.645 0.3,-0.645C0.241,-0.645 0.199,-0.62 0.175,-0.572C0.15,-0.523 0.138,-0.449 0.138,-0.35Z" style="fill:rgb(242,0,0);fill-rule:nonzero;"/>
            </g>
        </g>
        <g transform="matrix(1.20707,0,0,1.20707,-16505,-1149.1)">
            <g transform="matrix(48,0,0,48,14325.5,1796.71)">
                <rect x="0.088" y="-0.325" width="0.424" height="0.074" style="fill:rgb(242,0,0);fill-rule:nonzero;"/>
            </g>
            <g transform="matrix(48,0,0,48,14383.1,1796.71)">
                <rect x="0.088" y="-0.325" width="0.424" height="0.074" style="fill:rgb(242,0,0);fill-rule:nonzero;"/>
            </g>
            <g transform="matrix(48,0,0,48,14325.5,1868.71)">
                <rect x="0.088" y="-0.325" width="0.424" height="0.074" style="fill:rgb(242,0,0);fill-rule:nonzero;"/>
            </g>
            <g transform="matrix(48,0,0,48,14383.1,1868.71)">
                <path d="M0.055,-0.35C0.055,-0.407 0.06,-0.458 0.07,-0.503C0.08,-0.548 0.095,-0.586 0.115,-0.617C0.135,-0.648 0.16,-0.671 0.191,-0.688C0.222,-0.704 0.258,-0.712 0.3,-0.712C0.345,-0.712 0.383,-0.704 0.414,-0.688C0.445,-0.672 0.47,-0.649 0.489,-0.618C0.508,-0.587 0.522,-0.55 0.531,-0.505C0.54,-0.46 0.544,-0.408 0.544,-0.35C0.544,-0.293 0.539,-0.243 0.529,-0.198C0.519,-0.153 0.504,-0.115 0.484,-0.084C0.464,-0.053 0.439,-0.029 0.408,-0.013C0.377,0.004 0.341,0.012 0.299,0.012C0.255,0.012 0.218,0.003 0.187,-0.015C0.156,-0.032 0.13,-0.057 0.111,-0.089C0.091,-0.121 0.077,-0.159 0.068,-0.204C0.059,-0.248 0.055,-0.297 0.055,-0.35ZM0.462,-0.35C0.462,-0.385 0.46,-0.419 0.456,-0.451L0.159,-0.18C0.17,-0.142 0.187,-0.112 0.21,-0.089C0.233,-0.066 0.262,-0.055 0.299,-0.055C0.358,-0.055 0.4,-0.079 0.425,-0.128C0.45,-0.177 0.462,-0.251 0.462,-0.35ZM0.138,-0.35C0.138,-0.333 0.139,-0.317 0.14,-0.302C0.141,-0.287 0.142,-0.272 0.143,-0.257L0.441,-0.527C0.43,-0.563 0.413,-0.592 0.391,-0.613C0.368,-0.634 0.338,-0.645 0.3,-0.645C0.241,-0.645 0.199,-0.62 0.175,-0.572C0.15,-0.523 0.138,-0.449 0.138,-0.35Z" style="fill:rgb(242,0,0);fill-rule:nonzero;"/>
            </g>
        </g>
        <g transform="matrix(1.20707,0,0,1.20707,-15926.1,-1149.1)">
            <g transform="matrix(48,0,0,48,14325.5,1796.71)">
                <path d="M0.106,-0.11L0.259,-0.11L0.259,-0.547L0.127,-0.446L0.067,-0.526L0.295,-0.7L0.383,-0.7L0.383,-0.11L0.533,-0.11L0.533,-0L0.106,-0L0.106,-0.11Z" style="fill-rule:nonzero;"/>
            </g>
            <g transform="matrix(48,0,0,48,14383.1,1796.71)">
                <rect x="0.088" y="-0.325" width="0.424" height="0.074" style="fill-rule:nonzero;"/>
            </g>
            <g transform="matrix(48,0,0,48,14325.5,1868.71)">
                <rect x="0.088" y="-0.325" width="0.424" height="0.074" style="fill-rule:nonzero;"/>
            </g>
            <g transform="matrix(48,0,0,48,14383.1,1868.71)">
                <path d="M0.038,-0.351C0.038,-0.412 0.044,-0.465 0.057,-0.511C0.07,-0.556 0.088,-0.594 0.111,-0.624C0.133,-0.654 0.161,-0.677 0.193,-0.692C0.225,-0.707 0.261,-0.714 0.3,-0.714C0.384,-0.714 0.449,-0.685 0.494,-0.626C0.539,-0.567 0.562,-0.475 0.562,-0.351C0.562,-0.29 0.556,-0.236 0.543,-0.191C0.53,-0.145 0.513,-0.107 0.49,-0.077C0.466,-0.046 0.439,-0.024 0.407,-0.009C0.374,0.007 0.338,0.014 0.299,0.014C0.214,0.014 0.15,-0.017 0.105,-0.08C0.06,-0.142 0.038,-0.232 0.038,-0.351ZM0.434,-0.351C0.434,-0.362 0.434,-0.372 0.434,-0.382C0.433,-0.391 0.433,-0.401 0.432,-0.41L0.187,-0.187C0.208,-0.126 0.245,-0.096 0.3,-0.096C0.343,-0.096 0.376,-0.116 0.399,-0.157C0.422,-0.198 0.434,-0.262 0.434,-0.351ZM0.166,-0.351C0.166,-0.341 0.166,-0.332 0.167,-0.323C0.167,-0.314 0.167,-0.304 0.168,-0.295L0.412,-0.518C0.392,-0.575 0.354,-0.604 0.299,-0.604C0.256,-0.604 0.224,-0.584 0.201,-0.543C0.178,-0.501 0.166,-0.438 0.166,-0.351Z" style="fill-rule:nonzero;"/>
            </g>
        </g>
        <g transform="matrix(1.20707,0,0,1.20707,-15335.5,-1149.1)">
            <g transform="matrix(48,0,0,48,14325.5,1796.71)">
                <path d="M0.106,-0.11L0.259,-0.11L0.259,-0.547L0.127,-0.446L0.067,-0.526L0.295,-0.7L0.383,-0.7L0.383,-0.11L0.533,-0.11L0.533,-0L0.106,-0L0.106,-0.11Z" style="fill-rule:nonzero;"/>
            </g>
            <g transform="matrix(48,0,0,48,14383.1,1796.71)">
                <rect x="0.088" y="-0.325" width="0.424" height="0.074" style="fill-rule:nonzero;"/>
            </g>
            <g transform="matrix(48,0,0,48,14325.5,1868.71)">
                <path d="M0.038,-0.351C0.038,-0.412 0.044,-0.465 0.057,-0.511C0.07,-0.556 0.088,-0.594 0.111,-0.624C0.133,-0.654 0.161,-0.677 0.193,-0.692C0.225,-0.707 0.261,-0.714 0.3,-0.714C0.384,-0.714 0.449,-0.685 0.494,-0.626C0.539,-0.567 0.562,-0.475 0.562,-0.351C0.562,-0.29 0.556,-0.236 0.543,-0.191C0.53,-0.145 0.513,-0.107 0.49,-0.077C0.466,-0.046 0.439,-0.024 0.407,-0.009C0.374,0.007 0.338,0.014 0.299,0.014C0.214,0.014 0.15,-0.017 0.105,-0.08C0.06,-0.142 0.038,-0.232 0.038,-0.351ZM0.434,-0.351C0.434,-0.362 0.434,-0.372 0.434,-0.382C0.433,-0.391 0.433,-0.401 0.432,-0.41L0.187,-0.187C0.208,-0.126 0.245,-0.096 0.3,-0.096C0.343,-0.096 0.376,-0.116 0.399,-0.157C0.422,-0.198 0.434,-0.262 0.434,-0.351ZM0.166,-0.351C0.166,-0.341 0.166,-0.332 0.167,-0.323C0.167,-0.314 0.167,-0.304 0.168,-0.295L0.412,-0.518C0.392,-0.575 0.354,-0.604 0.299,-0.604C0.256,-0.604 0.224,-0.584 0.201,-0.543C0.178,-0.501 0.166,-0.438 0.166,-0.351Z" style="fill-rule:nonzero;"/>
            </g>
            <g transform="matrix(48,0,0,48,14383.1,1868.71)">
                <path d="M0.038,-0.351C0.038,-0.412 0.044,-0.465 0.057,-0.511C0.07,-0.556 0.088,-0.594 0.111,-0.624C0.133,-0.654 0.161,-0.677 0.193,-0.692C0.225,-0.707 0.261,-0.714 0.3,-0.714C0.384,-0.714 0.449,-0.685 0.494,-0.626C0.539,-0.567 0.562,-0.475 0.562,-0.351C0.562,-0.29 0.556,-0.236 0.543,-0.191C0.53,-0.145 0.513,-0.107 0.49,-0.077C0.466,-0.046 0.439,-0.024 0.407,-0.009C0.374,0.007 0.338,0.014 0.299,0.014C0.214,0.014 0.15,-0.017 0.105,-0.08C0.06,-0.142 0.038,-0.232 0.038,-0.351ZM0.434,-0.351C0.434,-0.362 0.434,-0.372 0.434,-0.382C0.433,-0.391 0.433,-0.401 0.432,-0.41L0.187,-0.187C0.208,-0.126 0.245,-0.096 0.3,-0.096C0.343,-0.096 0.376,-0.116 0.399,-0.157C0.422,-0.198 0.434,-0.262 0.434,-0.351ZM0.166,-0.351C0.166,-0.341 0.166,-0.332 0.167,-0.323C0.167,-0.314 0.167,-0.304 0.168,-0.295L0.412,-0.518C0.392,-0.575 0.354,-0.604 0.299,-0.604C0.256,-0.604 0.224,-0.584 0.201,-0.543C0.178,-0.501 0.166,-0.438 0.166,-0.351Z" style="fill-rule:nonzero;"/>
            </g>
        </g>
        <g transform="matrix(1.20707,0,0,1.20707,-15924.4,-1753.62)">
            <g transform="matrix(48,0,0,48,14325.5,1796.71)">
                <path d="M0.127,-0.072L0.284,-0.072L0.284,-0.598L0.124,-0.486L0.085,-0.543L0.305,-0.7L0.361,-0.7L0.361,-0.072L0.515,-0.072L0.515,-0L0.127,-0L0.127,-0.072Z" style="fill:rgb(242,0,0);fill-rule:nonzero;"/>
            </g>
            <g transform="matrix(48,0,0,48,14383.1,1796.71)">
                <path d="M0.127,-0.072L0.284,-0.072L0.284,-0.598L0.124,-0.486L0.085,-0.543L0.305,-0.7L0.361,-0.7L0.361,-0.072L0.515,-0.072L0.515,-0L0.127,-0L0.127,-0.072Z" style="fill:rgb(242,0,0);fill-rule:nonzero;"/>
            </g>
            <g transform="matrix(48,0,0,48,14325.5,1868.71)">
                <path d="M0.055,-0.35C0.055,-0.407 0.06,-0.458 0.07,-0.503C0.08,-0.548 0.095,-0.586 0.115,-0.617C0.135,-0.648 0.16,-0.671 0.191,-0.688C0.222,-0.704 0.258,-0.712 0.3,-0.712C0.345,-0.712 0.383,-0.704 0.414,-0.688C0.445,-0.672 0.47,-0.649 0.489,-0.618C0.508,-0.587 0.522,-0.55 0.531,-0.505C0.54,-0.46 0.544,-0.408 0.544,-0.35C0.544,-0.293 0.539,-0.243 0.529,-0.198C0.519,-0.153 0.504,-0.115 0.484,-0.084C0.464,-0.053 0.439,-0.029 0.408,-0.013C0.377,0.004 0.341,0.012 0.299,0.012C0.255,0.012 0.218,0.003 0.187,-0.015C0.156,-0.032 0.13,-0.057 0.111,-0.089C0.091,-0.121 0.077,-0.159 0.068,-0.204C0.059,-0.248 0.055,-0.297 0.055,-0.35ZM0.462,-0.35C0.462,-0.385 0.46,-0.419 0.456,-0.451L0.159,-0.18C0.17,-0.142 0.187,-0.112 0.21,-0.089C0.233,-0.066 0.262,-0.055 0.299,-0.055C0.358,-0.055 0.4,-0.079 0.425,-0.128C0.45,-0.177 0.462,-0.251 0.462,-0.35ZM0.138,-0.35C0.138,-0.333 0.139,-0.317 0.14,-0.302C0.141,-0.287 0.142,-0.272 0.143,-0.257L0.441,-0.527C0.43,-0.563 0.413,-0.592 0.391,-0.613C0.368,-0.634 0.338,-0.645 0.3,-0.645C0.241,-0.645 0.199,-0.62 0.175,-0.572C0.15,-0.523 0.138,-0.449 0.138,-0.35Z" style="fill:rgb(242,0,0);fill-rule:nonzero;"/>
            </g>
            <g transform="matrix(48,0,0,48,14383.1,1868.71)">
                <rect x="0.088" y="-0.325" width="0.424" height="0.074" style="fill:rgb(242,0,0);fill-rule:nonzero;"/>
            </g>
        </g>
        <g transform="matrix(1.20707,0,0,1.20707,-16503.1,-1753.62)">
            <g transform="matrix(48,0,0,48,14325.5,1796.71)">
                <path d="M0.127,-0.072L0.284,-0.072L0.284,-0.598L0.124,-0.486L0.085,-0.543L0.305,-0.7L0.361,-0.7L0.361,-0.072L0.515,-0.072L0.515,-0L0.127,-0L0.127,-0.072Z" style="fill:rgb(242,0,0);fill-rule:nonzero;"/>
            </g>
            <g transform="matrix(48,0,0,48,14383.1,1796.71)">
                <path d="M0.127,-0.072L0.284,-0.072L0.284,-0.598L0.124,-0.486L0.085,-0.543L0.305,-0.7L0.361,-0.7L0.361,-0.072L0.515,-0.072L0.515,-0L0.127,-0L0.127,-0.072Z" style="fill:rgb(242,0,0);fill-rule:nonzero;"/>
            </g>
            <g transform="matrix(48,0,0,48,14325.5,1868.71)">
                <path d="M0.055,-0.35C0.055,-0.407 0.06,-0.458 0.07,-0.503C0.08,-0.548 0.095,-0.586 0.115,-0.617C0.135,-0.648 0.16,-0.671 0.191,-0.688C0.222,-0.704 0.258,-0.712 0.3,-0.712C0.345,-0.712 0.383,-0.704 0.414,-0.688C0.445,-0.672 0.47,-0.649 0.489,-0.618C0.508,-0.587 0.522,-0.55 0.531,-0.505C0.54,-0.46 0.544,-0.408 0.544,-0.35C0.544,-0.293 0.539,-0.243 0.529,-0.198C0.519,-0.153 0.504,-0.115 0.484,-0.084C0.464,-0.053 0.439,-0.029 0.408,-0.013C0.377,0.004 0.341,0.012 0.299,0.012C0.255,0.012 0.218,0.003 0.187,-0.015C0.156,-0.032 0.13,-0.057 0.111,-0.089C0.091,-0.121 0.077,-0.159 0.068,-0.204C0.059,-0.248 0.055,-0.297 0.055,-0.35ZM0.462,-0.35C0.462,-0.385 0.46,-0.419 0.456,-0.451L0.159,-0.18C0.17,-0.142 0.187,-0.112 0.21,-0.089C0.233,-0.066 0.262,-0.055 0.299,-0.055C0.358,-0.055 0.4,-0.079 0.425,-0.128C0.45,-0.177 0.462,-0.251 0.462,-0.35ZM0.138,-0.35C0.138,-0.333 0.139,-0.317 0.14,-0.302C0.141,-0.287 0.142,-0.272 0.143,-0.257L0.441,-0.527C0.43,-0.563 0.413,-0.592 0.391,-0.613C0.368,-0.634 0.338,-0.645 0.3,-0.645C0.241,-0.645 0.199,-0.62 0.175,-0.572C0.15,-0.523 0.138,-0.449 0.138,-0.35Z" style="fill:rgb(242,0,0);fill-rule:nonzero;"/>
            </g>
            <g transform="matrix(48,0,0,48,14383.1,1868.71)">
                <rect x="0.088" y="-0.325" width="0.424" height="0.074" style="fill:rgb(242,0,0);fill-rule:nonzero;"/>
            </g>
        </g>
        <g transform="matrix(1.20707,0,0,1.20707,-15335.5,-1753.62)">
            <g transform="matrix(48,0,0,48,14325.5,1796.71)">
                <path d="M0.127,-0.072L0.284,-0.072L0.284,-0.598L0.124,-0.486L0.085,-0.543L0.305,-0.7L0.361,-0.7L0.361,-0.072L0.515,-0.072L0.515,-0L0.127,-0L0.127,-0.072Z" style="fill:rgb(242,0,0);fill-rule:nonzero;"/>
            </g>
            <g transform="matrix(48,0,0,48,14383.1,1796.71)">
                <path d="M0.127,-0.072L0.284,-0.072L0.284,-0.598L0.124,-0.486L0.085,-0.543L0.305,-0.7L0.361,-0.7L0.361,-0.072L0.515,-0.072L0.515,-0L0.127,-0L0.127,-0.072Z" style="fill:rgb(242,0,0);fill-rule:nonzero;"/>
            </g>
            <g transform="matrix(48,0,0,48,14325.5,1868.71)">
                <path d="M0.055,-0.35C0.055,-0.407 0.06,-0.458 0.07,-0.503C0.08,-0.548 0.095,-0.586 0.115,-0.617C0.135,-0.648 0.16,-0.671 0.191,-0.688C0.222,-0.704 0.258,-0.712 0.3,-0.712C0.345,-0.712 0.383,-0.704 0.414,-0.688C0.445,-0.672 0.47,-0.649 0.489,-0.618C0.508,-0.587 0.522,-0.55 0.531,-0.505C0.54,-0.46 0.544,-0.408 0.544,-0.35C0.544,-0.293 0.539,-0.243 0.529,-0.198C0.519,-0.153 0.504,-0.115 0.484,-0.084C0.464,-0.053 0.439,-0.029 0.408,-0.013C0.377,0.004 0.341,0.012 0.299,0.012C0.255,0.012 0.218,0.003 0.187,-0.015C0.156,-0.032 0.13,-0.057 0.111,-0.089C0.091,-0.121 0.077,-0.159 0.068,-0.204C0.059,-0.248 0.055,-0.297 0.055,-0.35ZM0.462,-0.35C0.462,-0.385 0.46,-0.419 0.456,-0.451L0.159,-0.18C0.17,-0.142 0.187,-0.112 0.21,-0.089C0.233,-0.066 0.262,-0.055 0.299,-0.055C0.358,-0.055 0.4,-0.079 0.425,-0.128C0.45,-0.177 0.462,-0.251 0.462,-0.35ZM0.138,-0.35C0.138,-0.333 0.139,-0.317 0.14,-0.302C0.141,-0.287 0.142,-0.272 0.143,-0.257L0.441,-0.527C0.43,-0.563 0.413,-0.592 0.391,-0.613C0.368,-0.634 0.338,-0.645 0.3,-0.645C0.241,-0.645 0.199,-0.62 0.175,-0.572C0.15,-0.523 0.138,-0.449 0.138,-0.35Z" style="fill:rgb(242,0,0);fill-rule:nonzero;"/>
            </g>
            <g transform="matrix(48,0,0,48,14383.1,1868.71)">
                <rect x="0.088" y="-0.325" width="0.424" height="0.074" style="fill:rgb(242,0,0);fill-rule:nonzero;"/>
            </g>
        </g>
        <path d="M260.211,70.705L241.872,70.705L241.872,67.365C241.872,66.505 242.047,65.584 242.399,64.601C242.75,63.618 243.421,62.515 244.411,61.291C245.4,60.067 246.448,58.888 247.555,57.755L249.625,55.646C250.042,55.216 250.954,54.22 252.36,52.658C253.766,51.095 254.694,49.897 255.143,49.064C255.592,48.231 255.817,47.41 255.817,46.603C255.817,45.301 255.296,44.295 254.254,43.585C253.213,42.876 252.041,42.521 250.739,42.521C249.997,42.521 249.166,42.606 248.248,42.775C247.331,42.944 246.526,43.143 245.836,43.371C245.146,43.599 244.026,44.064 242.477,44.767L242.477,41.544C244.118,40.763 245.761,40.226 247.409,39.933C249.056,39.64 250.413,39.494 251.481,39.494C253.056,39.494 254.505,39.751 255.827,40.265C257.148,40.779 258.131,41.577 258.776,42.658C259.42,43.738 259.743,44.891 259.743,46.115C259.743,47.482 259.329,48.882 258.502,50.314C257.676,51.746 256.116,53.589 253.825,55.841L251.598,58.048L249.723,59.884C248.538,61.082 247.581,62.241 246.852,63.361C246.123,64.481 245.719,65.815 245.641,67.365L260.211,67.365L260.211,70.705Z" style="fill:rgb(128,128,128);fill-rule:nonzero;"/>
        <path d="M268.668,56.486C269.606,55.093 270.768,53.957 272.155,53.078C273.541,52.199 275.068,51.759 276.735,51.759C278.31,51.759 279.804,52.143 281.217,52.912C282.63,53.68 283.707,54.751 284.45,56.125C285.192,57.498 285.563,59.097 285.563,60.919C285.563,63.797 284.642,66.3 282.799,68.429C280.957,70.558 278.532,71.623 275.524,71.623C271.982,71.623 269.336,70.141 267.584,67.179C265.833,64.217 264.957,60.451 264.957,55.88C264.957,50.828 266.071,46.834 268.297,43.898C270.524,40.962 273.538,39.494 277.34,39.494C279.385,39.494 281.37,39.793 283.297,40.392L283.297,44.064C281.136,43.035 279.098,42.521 277.184,42.521C274.476,42.521 272.379,43.765 270.895,46.252C269.411,48.738 268.668,51.89 268.668,55.705L268.668,56.486ZM275.797,68.595C276.774,68.595 277.757,68.306 278.747,67.726C279.736,67.147 280.514,66.255 281.081,65.05C281.647,63.846 281.93,62.534 281.93,61.115C281.93,59.266 281.452,57.749 280.495,56.564C279.538,55.379 278.174,54.787 276.403,54.787C274.567,54.787 273.06,55.474 271.881,56.847C270.703,58.221 270.114,59.891 270.114,61.857C270.114,63.836 270.69,65.454 271.842,66.71C272.995,67.967 274.313,68.595 275.797,68.595Z" style="fill:rgb(128,128,128);fill-rule:nonzero;"/>
        <path d="M241.793,671.351L241.793,667.523C244.775,669.033 247.36,669.788 249.547,669.788C251.553,669.788 253.209,669.179 254.518,667.962C255.827,666.745 256.481,665.179 256.481,663.265C256.481,661.338 255.761,659.769 254.323,658.558C252.884,657.347 250.439,656.741 246.989,656.741L244.977,656.741L244.977,653.714L247.77,653.714C250.309,653.714 252.145,653.144 253.278,652.005C254.411,650.866 254.977,649.599 254.977,648.206C254.977,646.943 254.515,645.879 253.59,645.013C252.666,644.147 251.247,643.714 249.332,643.714C247.184,643.714 244.873,644.319 242.399,645.53L242.399,642.073C244.873,641.149 247.138,640.687 249.196,640.687C252.881,640.687 255.423,641.413 256.823,642.864C258.222,644.316 258.922,645.973 258.922,647.835C258.922,649.215 258.551,650.511 257.809,651.722C257.067,652.933 255.7,654.013 253.707,654.964C255.465,655.485 256.793,656.123 257.692,656.878C258.59,657.633 259.271,658.525 259.733,659.554C260.195,660.582 260.426,661.735 260.426,663.011C260.426,665.849 259.375,668.193 257.272,670.042C255.169,671.891 252.451,672.816 249.118,672.816C248.154,672.816 247.103,672.744 245.963,672.601C244.824,672.457 243.434,672.041 241.793,671.351Z" style="fill:rgb(128,128,128);fill-rule:nonzero;"/>
        <path d="M274.957,640.687C278.408,640.687 281.038,642.135 282.848,645.032C284.658,647.929 285.563,651.832 285.563,656.741C285.563,661.663 284.658,665.573 282.848,668.47C281.038,671.367 278.408,672.816 274.957,672.816C271.52,672.816 268.893,671.367 267.077,668.47C265.26,665.573 264.352,661.663 264.352,656.741C264.352,651.832 265.26,647.929 267.077,645.032C268.893,642.135 271.52,640.687 274.957,640.687ZM269.039,663.226L279.528,646.8C278.864,645.589 278.144,644.772 277.37,644.349C276.595,643.926 275.791,643.714 274.957,643.714C272.783,643.714 271.129,644.922 269.997,647.337C268.864,649.752 268.297,652.816 268.297,656.526C268.297,657.373 268.323,658.284 268.375,659.261C268.428,660.237 268.649,661.559 269.039,663.226ZM280.836,650.413L270.426,666.937C270.986,667.887 271.631,668.6 272.36,669.075C273.089,669.551 273.903,669.788 274.801,669.788C277.275,669.788 279.033,668.405 280.075,665.638C281.116,662.871 281.637,659.801 281.637,656.429C281.637,654.345 281.37,652.34 280.836,650.413Z" style="fill:rgb(128,128,128);fill-rule:nonzero;"/>
        <path d="M841.326,70.705L822.986,70.705L822.986,67.365C822.986,66.505 823.162,65.584 823.514,64.601C823.865,63.618 824.536,62.515 825.525,61.291C826.515,60.067 827.563,58.888 828.67,57.755L830.74,55.646C831.157,55.216 832.068,54.22 833.475,52.658C834.881,51.095 835.809,49.897 836.258,49.064C836.707,48.231 836.932,47.41 836.932,46.603C836.932,45.301 836.411,44.295 835.369,43.585C834.327,42.876 833.156,42.521 831.853,42.521C831.111,42.521 830.281,42.606 829.363,42.775C828.445,42.944 827.641,43.143 826.951,43.371C826.261,43.599 825.141,44.064 823.592,44.767L823.592,41.544C825.232,40.763 826.876,40.226 828.523,39.933C830.171,39.64 831.528,39.494 832.596,39.494C834.171,39.494 835.62,39.751 836.941,40.265C838.263,40.779 839.246,41.577 839.891,42.658C840.535,43.738 840.857,44.891 840.857,46.115C840.857,47.482 840.444,48.882 839.617,50.314C838.79,51.746 837.231,53.589 834.939,55.841L832.713,58.048L830.838,59.884C829.653,61.082 828.696,62.241 827.967,63.361C827.238,64.481 826.834,65.815 826.756,67.365L841.326,67.365L841.326,70.705Z" style="fill:rgb(128,128,128);fill-rule:nonzero;"/>
        <path d="M850.31,70.705L850.31,67.99C850.31,65.867 850.551,64.084 851.033,62.638C851.515,61.193 852.361,59.585 853.572,57.814C854.783,56.043 855.753,54.676 856.482,53.712L859.646,49.533L860.779,48.068C861.639,46.909 862.381,45.568 863.006,44.044L847.283,44.044L847.283,40.392L866.521,40.392L866.521,42.814C866.521,43.778 866.329,44.669 865.945,45.49C865.561,46.31 864.399,48.061 862.459,50.744C861.99,51.382 861.528,52.02 861.072,52.658L859.041,55.509C857.739,57.345 856.775,58.81 856.15,59.904C855.525,60.998 855.053,62.137 854.734,63.322C854.415,64.507 854.256,66.063 854.256,67.99L854.256,70.705L850.31,70.705Z" style="fill:rgb(128,128,128);fill-rule:nonzero;"/>
        <path d="M822.908,671.351L822.908,667.523C825.89,669.033 828.475,669.788 830.662,669.788C832.667,669.788 834.324,669.179 835.633,667.962C836.941,666.745 837.596,665.179 837.596,663.265C837.596,661.338 836.876,659.769 835.437,658.558C833.999,657.347 831.554,656.741 828.103,656.741L826.092,656.741L826.092,653.714L828.885,653.714C831.424,653.714 833.26,653.144 834.393,652.005C835.525,650.866 836.092,649.599 836.092,648.206C836.092,646.943 835.629,645.879 834.705,645.013C833.781,644.147 832.361,643.714 830.447,643.714C828.299,643.714 825.988,644.319 823.514,645.53L823.514,642.073C825.988,641.149 828.253,640.687 830.31,640.687C833.995,640.687 836.538,641.413 837.937,642.864C839.337,644.316 840.037,645.973 840.037,647.835C840.037,649.215 839.666,650.511 838.924,651.722C838.182,652.933 836.814,654.013 834.822,654.964C836.58,655.485 837.908,656.123 838.807,656.878C839.705,657.633 840.385,658.525 840.848,659.554C841.31,660.582 841.541,661.735 841.541,663.011C841.541,665.849 840.49,668.193 838.387,670.042C836.284,671.891 833.566,672.816 830.232,672.816C829.269,672.816 828.217,672.744 827.078,672.601C825.939,672.457 824.549,672.041 822.908,671.351Z" style="fill:rgb(128,128,128);fill-rule:nonzero;"/>
        <path d="M855.174,668.87L855.174,645.472C854.08,646.344 853.019,647.086 851.99,647.698C850.962,648.31 849.549,648.935 847.752,649.573L847.752,646.292C850.603,645.081 853.077,643.512 855.174,641.585L858.807,641.585L858.807,668.87L866.092,668.87L866.092,671.898L847.752,671.898L847.752,668.87L855.174,668.87Z" style="fill:rgb(128,128,128);fill-rule:nonzero;"/>
        <path d="M1422.53,70.705L1404.19,70.705L1404.19,67.365C1404.19,66.505 1404.37,65.584 1404.72,64.601C1405.07,63.618 1405.74,62.515 1406.73,61.291C1407.72,60.067 1408.77,58.888 1409.88,57.755L1411.95,55.646C1412.36,55.216 1413.27,54.22 1414.68,52.658C1416.09,51.095 1417.01,49.897 1417.46,49.064C1417.91,48.231 1418.14,47.41 1418.14,46.603C1418.14,45.301 1417.62,44.295 1416.58,43.585C1415.53,42.876 1414.36,42.521 1413.06,42.521C1412.32,42.521 1411.49,42.606 1410.57,42.775C1409.65,42.944 1408.85,43.143 1408.16,43.371C1407.47,43.599 1406.35,44.064 1404.8,44.767L1404.8,41.544C1406.44,40.763 1408.08,40.226 1409.73,39.933C1411.38,39.64 1412.73,39.494 1413.8,39.494C1415.38,39.494 1416.83,39.751 1418.15,40.265C1419.47,40.779 1420.45,41.577 1421.1,42.658C1421.74,43.738 1422.06,44.891 1422.06,46.115C1422.06,47.482 1421.65,48.882 1420.82,50.314C1420,51.746 1418.44,53.589 1416.14,55.841L1413.92,58.048L1412.04,59.884C1410.86,61.082 1409.9,62.241 1409.17,63.361C1408.44,64.481 1408.04,65.815 1407.96,67.365L1422.53,67.365L1422.53,70.705Z" style="fill:rgb(128,128,128);fill-rule:nonzero;"/>
        <path d="M1434.25,54.357L1433.59,53.869C1432.66,53.218 1431.76,52.257 1430.87,50.988C1429.99,49.718 1429.54,48.322 1429.54,46.798C1429.54,44.78 1430.34,43.058 1431.93,41.632C1433.52,40.207 1435.53,39.494 1437.98,39.494C1439.48,39.494 1440.83,39.764 1442.02,40.304C1443.22,40.845 1444.15,41.642 1444.8,42.697C1445.45,43.752 1445.77,44.904 1445.77,46.154C1445.77,47.013 1445.62,47.843 1445.33,48.644C1445.03,49.445 1444.58,50.239 1443.99,51.027C1443.39,51.815 1442.22,52.925 1440.46,54.357L1442.1,55.666C1444.02,57.228 1445.31,58.576 1445.97,59.709C1446.63,60.841 1446.96,62.111 1446.96,63.517C1446.96,65.705 1446.17,67.602 1444.58,69.21C1442.99,70.819 1440.61,71.623 1437.43,71.623C1434.24,71.623 1431.86,70.871 1430.27,69.367C1428.68,67.863 1427.88,65.998 1427.88,63.771C1427.88,60.451 1430.01,57.313 1434.25,54.357ZM1437.98,52.502C1439.82,51.108 1440.97,49.943 1441.43,49.005C1441.89,48.068 1442.12,47.196 1442.12,46.388C1442.12,45.412 1441.69,44.523 1440.83,43.722C1439.97,42.921 1438.87,42.521 1437.51,42.521C1436.05,42.521 1434.94,42.957 1434.18,43.83C1433.42,44.702 1433.04,45.607 1433.04,46.544C1433.04,47.456 1433.36,48.315 1434,49.123C1434.63,49.93 1435.66,50.835 1437.06,51.837L1437.98,52.502ZM1436.99,56.291C1433.55,58.934 1431.83,61.408 1431.83,63.712C1431.83,65.08 1432.39,66.232 1433.53,67.169C1434.66,68.107 1436,68.576 1437.55,68.576C1438.97,68.576 1440.24,68.127 1441.36,67.228C1442.48,66.33 1443.04,65.21 1443.04,63.869C1443.04,62.554 1442.36,61.219 1441,59.865C1439.64,58.511 1438.69,57.625 1438.16,57.209L1436.99,56.291Z" style="fill:rgb(128,128,128);fill-rule:nonzero;"/>
        <path d="M1404.11,671.351L1404.11,667.523C1407.1,669.033 1409.68,669.788 1411.87,669.788C1413.87,669.788 1415.53,669.179 1416.84,667.962C1418.15,666.745 1418.8,665.179 1418.8,663.265C1418.8,661.338 1418.08,659.769 1416.64,658.558C1415.2,657.347 1412.76,656.741 1409.31,656.741L1407.3,656.741L1407.3,653.714L1410.09,653.714C1412.63,653.714 1414.46,653.144 1415.6,652.005C1416.73,650.866 1417.3,649.599 1417.3,648.206C1417.3,646.943 1416.84,645.879 1415.91,645.013C1414.99,644.147 1413.57,643.714 1411.65,643.714C1409.51,643.714 1407.19,644.319 1404.72,645.53L1404.72,642.073C1407.19,641.149 1409.46,640.687 1411.52,640.687C1415.2,640.687 1417.74,641.413 1419.14,642.864C1420.54,644.316 1421.24,645.973 1421.24,647.835C1421.24,649.215 1420.87,650.511 1420.13,651.722C1419.39,652.933 1418.02,654.013 1416.03,654.964C1417.79,655.485 1419.11,656.123 1420.01,656.878C1420.91,657.633 1421.59,658.525 1422.05,659.554C1422.52,660.582 1422.75,661.735 1422.75,663.011C1422.75,665.849 1421.69,668.193 1419.59,670.042C1417.49,671.891 1414.77,672.816 1411.44,672.816C1410.48,672.816 1409.42,672.744 1408.28,672.601C1407.14,672.457 1405.76,672.041 1404.11,671.351Z" style="fill:rgb(128,128,128);fill-rule:nonzero;"/>
        <path d="M1446.54,671.898L1428.2,671.898L1428.2,668.558C1428.2,667.698 1428.37,666.777 1428.72,665.794C1429.08,664.811 1429.75,663.707 1430.74,662.484C1431.73,661.26 1432.77,660.081 1433.88,658.948L1435.95,656.839C1436.37,656.409 1437.28,655.413 1438.68,653.851C1440.09,652.288 1441.02,651.09 1441.47,650.257C1441.92,649.424 1442.14,648.603 1442.14,647.796C1442.14,646.494 1441.62,645.488 1440.58,644.778C1439.54,644.069 1438.37,643.714 1437.06,643.714C1436.32,643.714 1435.49,643.799 1434.57,643.968C1433.65,644.137 1432.85,644.336 1432.16,644.564C1431.47,644.791 1430.35,645.257 1428.8,645.96L1428.8,642.737C1430.44,641.956 1432.09,641.419 1433.73,641.126C1435.38,640.833 1436.74,640.687 1437.81,640.687C1439.38,640.687 1440.83,640.944 1442.15,641.458C1443.47,641.972 1444.46,642.77 1445.1,643.851C1445.75,644.931 1446.07,646.084 1446.07,647.308C1446.07,648.675 1445.65,650.075 1444.83,651.507C1444,652.939 1442.44,654.782 1440.15,657.034L1437.92,659.241L1436.05,661.077C1434.86,662.275 1433.91,663.434 1433.18,664.554C1432.45,665.674 1432.04,667.008 1431.96,668.558L1446.54,668.558L1446.54,671.898Z" style="fill:rgb(128,128,128);fill-rule:nonzero;"/>
        <path d="M2006.28,70.705L1987.94,70.705L1987.94,67.365C1987.94,66.505 1988.12,65.584 1988.47,64.601C1988.82,63.618 1989.49,62.515 1990.48,61.291C1991.47,60.067 1992.52,58.888 1993.63,57.755L1995.7,55.646C1996.11,55.216 1997.02,54.22 1998.43,52.658C1999.84,51.095 2000.77,49.897 2001.21,49.064C2001.66,48.231 2001.89,47.41 2001.89,46.603C2001.89,45.301 2001.37,44.295 2000.33,43.585C1999.28,42.876 1998.11,42.521 1996.81,42.521C1996.07,42.521 1995.24,42.606 1994.32,42.775C1993.4,42.944 1992.6,43.143 1991.91,43.371C1991.22,43.599 1990.1,44.064 1988.55,44.767L1988.55,41.544C1990.19,40.763 1991.83,40.226 1993.48,39.933C1995.13,39.64 1996.48,39.494 1997.55,39.494C1999.13,39.494 2000.58,39.751 2001.9,40.265C2003.22,40.779 2004.2,41.577 2004.85,42.658C2005.49,43.738 2005.81,44.891 2005.81,46.115C2005.81,47.482 2005.4,48.882 2004.57,50.314C2003.75,51.746 2002.19,53.589 1999.9,55.841L1997.67,58.048L1995.79,59.884C1994.61,61.082 1993.65,62.241 1992.92,63.361C1992.19,64.481 1991.79,65.815 1991.71,67.365L2006.28,67.365L2006.28,70.705Z" style="fill:rgb(128,128,128);fill-rule:nonzero;"/>
        <path d="M2027.32,54.611C2026.38,56.004 2025.22,57.14 2023.83,58.019C2022.44,58.898 2020.92,59.337 2019.25,59.337C2017.67,59.337 2016.18,58.957 2014.77,58.195C2013.36,57.433 2012.28,56.362 2011.54,54.982C2010.79,53.602 2010.42,52 2010.42,50.177C2010.42,47.313 2011.34,44.816 2013.19,42.687C2015.03,40.558 2017.45,39.494 2020.46,39.494C2024,39.494 2026.65,40.975 2028.4,43.937C2030.15,46.899 2031.03,50.666 2031.03,55.236C2031.03,60.288 2029.91,64.282 2027.69,67.218C2025.46,70.154 2022.45,71.623 2018.65,71.623C2016.6,71.623 2014.62,71.317 2012.69,70.705L2012.69,67.052C2014.85,68.068 2016.89,68.576 2018.8,68.576C2021.51,68.576 2023.61,67.332 2025.09,64.845C2026.58,62.358 2027.32,59.207 2027.32,55.392L2027.32,54.611ZM2020.19,42.521C2019.21,42.521 2018.23,42.811 2017.24,43.39C2016.25,43.97 2015.47,44.858 2014.9,46.056C2014.34,47.254 2014.06,48.569 2014.06,50.002C2014.06,51.837 2014.53,53.348 2015.49,54.533C2016.45,55.718 2017.81,56.31 2019.58,56.31C2021.42,56.31 2022.93,55.623 2024.11,54.25C2025.28,52.876 2025.87,51.212 2025.87,49.259C2025.87,47.28 2025.3,45.662 2024.14,44.406C2022.99,43.149 2021.67,42.521 2020.19,42.521Z" style="fill:rgb(128,128,128);fill-rule:nonzero;"/>
        <path d="M1987.86,671.351L1987.86,667.523C1990.85,669.033 1993.43,669.788 1995.62,669.788C1997.62,669.788 1999.28,669.179 2000.59,667.962C2001.9,666.745 2002.55,665.179 2002.55,663.265C2002.55,661.338 2001.83,659.769 2000.39,658.558C1998.96,657.347 1996.51,656.741 1993.06,656.741L1991.05,656.741L1991.05,653.714L1993.84,653.714C1996.38,653.714 1998.22,653.144 1999.35,652.005C2000.48,650.866 2001.05,649.599 2001.05,648.206C2001.05,646.943 2000.59,645.879 1999.66,645.013C1998.74,644.147 1997.32,643.714 1995.4,643.714C1993.26,643.714 1990.94,644.319 1988.47,645.53L1988.47,642.073C1990.94,641.149 1993.21,640.687 1995.27,640.687C1998.95,640.687 2001.49,641.413 2002.89,642.864C2004.29,644.316 2004.99,645.973 2004.99,647.835C2004.99,649.215 2004.62,650.511 2003.88,651.722C2003.14,652.933 2001.77,654.013 1999.78,654.964C2001.54,655.485 2002.86,656.123 2003.76,656.878C2004.66,657.633 2005.34,658.525 2005.8,659.554C2006.27,660.582 2006.5,661.735 2006.5,663.011C2006.5,665.849 2005.45,668.193 2003.34,670.042C2001.24,671.891 1998.52,672.816 1995.19,672.816C1994.23,672.816 1993.17,672.744 1992.03,672.601C1990.89,672.457 1989.51,672.041 1987.86,671.351Z" style="fill:rgb(128,128,128);fill-rule:nonzero;"/>
        <path d="M2011.87,671.351L2011.87,667.523C2014.85,669.033 2017.43,669.788 2019.62,669.788C2021.63,669.788 2023.28,669.179 2024.59,667.962C2025.9,666.745 2026.56,665.179 2026.56,663.265C2026.56,661.338 2025.84,659.769 2024.4,658.558C2022.96,657.347 2020.51,656.741 2017.06,656.741L2015.05,656.741L2015.05,653.714L2017.85,653.714C2020.38,653.714 2022.22,653.144 2023.35,652.005C2024.49,650.866 2025.05,649.599 2025.05,648.206C2025.05,646.943 2024.59,645.879 2023.66,645.013C2022.74,644.147 2021.32,643.714 2019.41,643.714C2017.26,643.714 2014.95,644.319 2012.47,645.53L2012.47,642.073C2014.95,641.149 2017.21,640.687 2019.27,640.687C2022.96,640.687 2025.5,641.413 2026.9,642.864C2028.3,644.316 2029,645.973 2029,647.835C2029,649.215 2028.63,650.511 2027.88,651.722C2027.14,652.933 2025.77,654.013 2023.78,654.964C2025.54,655.485 2026.87,656.123 2027.77,656.878C2028.66,657.633 2029.35,658.525 2029.81,659.554C2030.27,660.582 2030.5,661.735 2030.5,663.011C2030.5,665.849 2029.45,668.193 2027.35,670.042C2025.24,671.891 2022.53,672.816 2019.19,672.816C2018.23,672.816 2017.18,672.744 2016.04,672.601C2014.9,672.457 2013.51,672.041 2011.87,671.351Z" style="fill:rgb(128,128,128);fill-rule:nonzero;"/>
    </g>
</svg>
