<?xml version="1.0" encoding="UTF-8" standalone="no"?>
<!DOCTYPE svg PUBLIC "-//W3C//DTD SVG 1.1//EN" "http://www.w3.org/Graphics/SVG/1.1/DTD/svg11.dtd">
<svg width="100%" height="100%" viewBox="0 0 1145 520" version="1.1" xmlns="http://www.w3.org/2000/svg" xmlns:xlink="http://www.w3.org/1999/xlink" xml:space="preserve" xmlns:serif="http://www.serif.com/" style="fill-rule:evenodd;clip-rule:evenodd;stroke-linecap:square;stroke-linejoin:round;stroke-miterlimit:10;">
    <rect id="Clementini-Points-Polygons" serif:id="Clementini Points-Polygons" x="-423" y="-1800" width="2683.8" height="4517.66" style="fill:none;"/>
    <g transform="matrix(1.20707,0,0,1.20707,-17192,-1760.1)">
        <g transform="matrix(48,0,0,48,14325.5,1796.71)">
            <path d="M0.523,-0L0.077,-0L0.077,-0.097C0.085,-0.104 0.095,-0.113 0.107,-0.124C0.119,-0.135 0.132,-0.147 0.148,-0.161C0.163,-0.175 0.178,-0.19 0.195,-0.207C0.212,-0.224 0.228,-0.241 0.244,-0.259C0.267,-0.284 0.287,-0.307 0.304,-0.328C0.321,-0.349 0.335,-0.368 0.346,-0.387C0.357,-0.405 0.365,-0.423 0.37,-0.441C0.375,-0.458 0.378,-0.476 0.378,-0.495C0.378,-0.508 0.375,-0.521 0.369,-0.534C0.363,-0.547 0.355,-0.558 0.344,-0.568C0.333,-0.577 0.321,-0.585 0.306,-0.591C0.291,-0.596 0.274,-0.599 0.256,-0.599C0.232,-0.599 0.21,-0.595 0.191,-0.588C0.171,-0.581 0.15,-0.568 0.129,-0.551L0.077,-0.643C0.105,-0.663 0.136,-0.68 0.171,-0.694C0.205,-0.707 0.244,-0.714 0.289,-0.714C0.318,-0.714 0.345,-0.71 0.372,-0.702C0.398,-0.694 0.421,-0.682 0.442,-0.667C0.462,-0.651 0.478,-0.631 0.49,-0.608C0.502,-0.585 0.508,-0.558 0.508,-0.527C0.508,-0.506 0.506,-0.486 0.503,-0.468C0.499,-0.449 0.493,-0.431 0.486,-0.413C0.478,-0.394 0.468,-0.375 0.456,-0.356C0.443,-0.337 0.428,-0.316 0.411,-0.293C0.398,-0.276 0.383,-0.258 0.368,-0.241C0.352,-0.223 0.336,-0.206 0.321,-0.19C0.306,-0.174 0.291,-0.159 0.276,-0.145C0.261,-0.131 0.247,-0.119 0.235,-0.11L0.523,-0.11L0.523,-0Z" style="fill-rule:nonzero;"/>
        </g>
        <g transform="matrix(48,0,0,48,14383.1,1796.71)">
            <path d="M0.106,-0.11L0.259,-0.11L0.259,-0.547L0.127,-0.446L0.067,-0.526L0.295,-0.7L0.383,-0.7L0.383,-0.11L0.533,-0.11L0.533,-0L0.106,-0L0.106,-0.11Z" style="fill-rule:nonzero;"/>
        </g>
        <g transform="matrix(48,0,0,48,14325.5,1868.71)">
            <path d="M0.106,-0.11L0.259,-0.11L0.259,-0.547L0.127,-0.446L0.067,-0.526L0.295,-0.7L0.383,-0.7L0.383,-0.11L0.533,-0.11L0.533,-0L0.106,-0L0.106,-0.11Z" style="fill-rule:nonzero;"/>
        </g>
        <g transform="matrix(48,0,0,48,14383.1,1868.71)">
            <path d="M0.038,-0.351C0.038,-0.412 0.044,-0.465 0.057,-0.511C0.07,-0.556 0.088,-0.594 0.111,-0.624C0.133,-0.654 0.161,-0.677 0.193,-0.692C0.225,-0.707 0.261,-0.714 0.3,-0.714C0.384,-0.714 0.449,-0.685 0.494,-0.626C0.539,-0.567 0.562,-0.475 0.562,-0.351C0.562,-0.29 0.556,-0.236 0.543,-0.191C0.53,-0.145 0.513,-0.107 0.49,-0.077C0.466,-0.046 0.439,-0.024 0.407,-0.009C0.374,0.007 0.338,0.014 0.299,0.014C0.214,0.014 0.15,-0.017 0.105,-0.08C0.06,-0.142 0.038,-0.232 0.038,-0.351ZM0.434,-0.351C0.434,-0.362 0.434,-0.372 0.434,-0.382C0.433,-0.391 0.433,-0.401 0.432,-0.41L0.187,-0.187C0.208,-0.126 0.245,-0.096 0.3,-0.096C0.343,-0.096 0.376,-0.116 0.399,-0.157C0.422,-0.198 0.434,-0.262 0.434,-0.351ZM0.166,-0.351C0.166,-0.341 0.166,-0.332 0.167,-0.323C0.167,-0.314 0.167,-0.304 0.168,-0.295L0.412,-0.518C0.392,-0.575 0.354,-0.604 0.299,-0.604C0.256,-0.604 0.224,-0.584 0.201,-0.543C0.178,-0.501 0.166,-0.438 0.166,-0.351Z" style="fill-rule:nonzero;"/>
        </g>
    </g>
    <g transform="matrix(1.20707,0,0,1.20707,-16764.3,-1760.1)">
        <g transform="matrix(48,0,0,48,14325.5,1796.71)">
            <path d="M0.523,-0L0.077,-0L0.077,-0.097C0.085,-0.104 0.095,-0.113 0.107,-0.124C0.119,-0.135 0.132,-0.147 0.148,-0.161C0.163,-0.175 0.178,-0.19 0.195,-0.207C0.212,-0.224 0.228,-0.241 0.244,-0.259C0.267,-0.284 0.287,-0.307 0.304,-0.328C0.321,-0.349 0.335,-0.368 0.346,-0.387C0.357,-0.405 0.365,-0.423 0.37,-0.441C0.375,-0.458 0.378,-0.476 0.378,-0.495C0.378,-0.508 0.375,-0.521 0.369,-0.534C0.363,-0.547 0.355,-0.558 0.344,-0.568C0.333,-0.577 0.321,-0.585 0.306,-0.591C0.291,-0.596 0.274,-0.599 0.256,-0.599C0.232,-0.599 0.21,-0.595 0.191,-0.588C0.171,-0.581 0.15,-0.568 0.129,-0.551L0.077,-0.643C0.105,-0.663 0.136,-0.68 0.171,-0.694C0.205,-0.707 0.244,-0.714 0.289,-0.714C0.318,-0.714 0.345,-0.71 0.372,-0.702C0.398,-0.694 0.421,-0.682 0.442,-0.667C0.462,-0.651 0.478,-0.631 0.49,-0.608C0.502,-0.585 0.508,-0.558 0.508,-0.527C0.508,-0.506 0.506,-0.486 0.503,-0.468C0.499,-0.449 0.493,-0.431 0.486,-0.413C0.478,-0.394 0.468,-0.375 0.456,-0.356C0.443,-0.337 0.428,-0.316 0.411,-0.293C0.398,-0.276 0.383,-0.258 0.368,-0.241C0.352,-0.223 0.336,-0.206 0.321,-0.19C0.306,-0.174 0.291,-0.159 0.276,-0.145C0.261,-0.131 0.247,-0.119 0.235,-0.11L0.523,-0.11L0.523,-0Z" style="fill-rule:nonzero;"/>
        </g>
        <g transform="matrix(48,0,0,48,14383.1,1796.71)">
            <path d="M0.106,-0.11L0.259,-0.11L0.259,-0.547L0.127,-0.446L0.067,-0.526L0.295,-0.7L0.383,-0.7L0.383,-0.11L0.533,-0.11L0.533,-0L0.106,-0L0.106,-0.11Z" style="fill-rule:nonzero;"/>
        </g>
        <g transform="matrix(48,0,0,48,14325.5,1868.71)">
            <path d="M0.106,-0.11L0.259,-0.11L0.259,-0.547L0.127,-0.446L0.067,-0.526L0.295,-0.7L0.383,-0.7L0.383,-0.11L0.533,-0.11L0.533,-0L0.106,-0L0.106,-0.11Z" style="fill-rule:nonzero;"/>
        </g>
        <g transform="matrix(48,0,0,48,14383.1,1868.71)">
            <path d="M0.106,-0.11L0.259,-0.11L0.259,-0.547L0.127,-0.446L0.067,-0.526L0.295,-0.7L0.383,-0.7L0.383,-0.11L0.533,-0.11L0.533,-0L0.106,-0L0.106,-0.11Z" style="fill-rule:nonzero;"/>
        </g>
    </g>
    <g transform="matrix(1.20707,0,0,1.20707,-16352.4,-1760.1)">
        <g transform="matrix(48,0,0,48,14325.5,1796.71)">
            <path d="M0.523,-0L0.077,-0L0.077,-0.097C0.085,-0.104 0.095,-0.113 0.107,-0.124C0.119,-0.135 0.132,-0.147 0.148,-0.161C0.163,-0.175 0.178,-0.19 0.195,-0.207C0.212,-0.224 0.228,-0.241 0.244,-0.259C0.267,-0.284 0.287,-0.307 0.304,-0.328C0.321,-0.349 0.335,-0.368 0.346,-0.387C0.357,-0.405 0.365,-0.423 0.37,-0.441C0.375,-0.458 0.378,-0.476 0.378,-0.495C0.378,-0.508 0.375,-0.521 0.369,-0.534C0.363,-0.547 0.355,-0.558 0.344,-0.568C0.333,-0.577 0.321,-0.585 0.306,-0.591C0.291,-0.596 0.274,-0.599 0.256,-0.599C0.232,-0.599 0.21,-0.595 0.191,-0.588C0.171,-0.581 0.15,-0.568 0.129,-0.551L0.077,-0.643C0.105,-0.663 0.136,-0.68 0.171,-0.694C0.205,-0.707 0.244,-0.714 0.289,-0.714C0.318,-0.714 0.345,-0.71 0.372,-0.702C0.398,-0.694 0.421,-0.682 0.442,-0.667C0.462,-0.651 0.478,-0.631 0.49,-0.608C0.502,-0.585 0.508,-0.558 0.508,-0.527C0.508,-0.506 0.506,-0.486 0.503,-0.468C0.499,-0.449 0.493,-0.431 0.486,-0.413C0.478,-0.394 0.468,-0.375 0.456,-0.356C0.443,-0.337 0.428,-0.316 0.411,-0.293C0.398,-0.276 0.383,-0.258 0.368,-0.241C0.352,-0.223 0.336,-0.206 0.321,-0.19C0.306,-0.174 0.291,-0.159 0.276,-0.145C0.261,-0.131 0.247,-0.119 0.235,-0.11L0.523,-0.11L0.523,-0Z" style="fill-rule:nonzero;"/>
        </g>
        <g transform="matrix(48,0,0,48,14383.1,1796.71)">
            <path d="M0.106,-0.11L0.259,-0.11L0.259,-0.547L0.127,-0.446L0.067,-0.526L0.295,-0.7L0.383,-0.7L0.383,-0.11L0.533,-0.11L0.533,-0L0.106,-0L0.106,-0.11Z" style="fill-rule:nonzero;"/>
        </g>
        <g transform="matrix(48,0,0,48,14325.5,1868.71)">
            <rect x="0.088" y="-0.325" width="0.424" height="0.074" style="fill-rule:nonzero;"/>
        </g>
        <g transform="matrix(48,0,0,48,14383.1,1868.71)">
            <path d="M0.106,-0.11L0.259,-0.11L0.259,-0.547L0.127,-0.446L0.067,-0.526L0.295,-0.7L0.383,-0.7L0.383,-0.11L0.533,-0.11L0.533,-0L0.106,-0L0.106,-0.11Z" style="fill-rule:nonzero;"/>
        </g>
    </g>
    <path d="M20.951,216.154L86.509,102.604L217.627,102.604L283.185,216.154L217.627,329.705L86.509,329.705L20.951,216.154Z" style="fill:rgb(198,237,237);stroke:rgb(21,183,183);stroke-width:6px;"/>
    <path d="M450.867,216.154L516.425,102.604L647.542,102.604L713.101,216.154L647.542,329.705L516.425,329.705L450.867,216.154Z" style="fill:rgb(198,237,237);stroke:rgb(21,183,183);stroke-width:6px;"/>
    <path d="M864.925,216.154L930.484,102.604L1061.6,102.604L1127.16,216.154L1061.6,329.705L930.484,329.705L864.925,216.154Z" style="fill:rgb(198,237,237);stroke:rgb(21,183,183);stroke-width:6px;"/>
    <path d="M192.094,145.987L232.152,76.604L312.269,76.604L352.328,145.987L312.269,215.37L232.152,215.37L192.094,145.987Z" style="fill:rgb(253,194,255);fill-opacity:0.5;stroke:rgb(247,0,255);stroke-width:6px;"/>
    <path d="M578.984,171.987L619.042,102.604L699.159,102.604L739.218,171.987L699.159,241.37L619.042,241.37L578.984,171.987Z" style="fill:rgb(253,194,255);fill-opacity:0.5;stroke:rgb(247,0,255);stroke-width:6px;"/>
    <path d="M952.647,192.987L992.706,123.604L1072.82,123.604L1112.88,192.987L1072.82,262.37L992.706,262.37L952.647,192.987Z" style="fill:rgb(253,194,255);fill-opacity:0.5;stroke:rgb(247,0,255);stroke-width:6px;"/>
    <path d="M141.055,49.421L141.055,26.023C139.961,26.895 138.9,27.638 137.872,28.249C136.843,28.861 135.43,29.486 133.633,30.124L133.633,26.843C136.485,25.632 138.959,24.063 141.055,22.136L144.688,22.136L144.688,49.421L151.973,49.421L151.973,52.449L133.633,52.449L133.633,49.421L141.055,49.421Z" style="fill:rgb(128,128,128);fill-rule:nonzero;"/>
    <path d="M175.215,52.449L156.875,52.449L156.875,49.109C156.875,48.249 157.051,47.328 157.403,46.345C157.754,45.362 158.425,44.259 159.414,43.035C160.404,41.811 161.452,40.632 162.559,39.499L164.629,37.39C165.046,36.96 165.957,35.964 167.364,34.402C168.77,32.839 169.698,31.641 170.147,30.808C170.596,29.975 170.821,29.154 170.821,28.347C170.821,27.045 170.3,26.039 169.258,25.33C168.217,24.62 167.045,24.265 165.743,24.265C165,24.265 164.17,24.35 163.252,24.519C162.334,24.688 161.53,24.887 160.84,25.115C160.15,25.343 159.03,25.808 157.481,26.511L157.481,23.289C159.122,22.507 160.765,21.97 162.413,21.677C164.06,21.384 165.417,21.238 166.485,21.238C168.06,21.238 169.509,21.495 170.831,22.009C172.152,22.524 173.135,23.321 173.78,24.402C174.424,25.483 174.747,26.635 174.747,27.859C174.747,29.226 174.333,30.626 173.506,32.058C172.679,33.49 171.12,35.333 168.829,37.585L166.602,39.792L164.727,41.628C163.542,42.826 162.585,43.985 161.856,45.105C161.127,46.225 160.723,47.559 160.645,49.109L175.215,49.109L175.215,52.449Z" style="fill:rgb(128,128,128);fill-rule:nonzero;"/>
    <path d="M572.515,49.421L572.515,26.023C571.422,26.895 570.36,27.638 569.332,28.249C568.303,28.861 566.89,29.486 565.094,30.124L565.094,26.843C567.945,25.632 570.419,24.063 572.515,22.136L576.148,22.136L576.148,49.421L583.433,49.421L583.433,52.449L565.094,52.449L565.094,49.421L572.515,49.421Z" style="fill:rgb(128,128,128);fill-rule:nonzero;"/>
    <path d="M588.258,51.902L588.258,48.074C591.239,49.584 593.824,50.339 596.011,50.339C598.017,50.339 599.674,49.731 600.982,48.513C602.291,47.296 602.945,45.73 602.945,43.816C602.945,41.889 602.226,40.32 600.787,39.109C599.348,37.898 596.903,37.292 593.453,37.292L591.441,37.292L591.441,34.265L594.234,34.265C596.773,34.265 598.609,33.695 599.742,32.556C600.875,31.417 601.441,30.151 601.441,28.757C601.441,27.494 600.979,26.43 600.054,25.564C599.13,24.698 597.711,24.265 595.797,24.265C593.648,24.265 591.337,24.871 588.863,26.082L588.863,22.624C591.337,21.7 593.603,21.238 595.66,21.238C599.345,21.238 601.887,21.964 603.287,23.416C604.687,24.867 605.386,26.524 605.386,28.386C605.386,29.766 605.015,31.062 604.273,32.273C603.531,33.484 602.164,34.565 600.172,35.515C601.929,36.036 603.258,36.674 604.156,37.429C605.054,38.184 605.735,39.076 606.197,40.105C606.659,41.134 606.89,42.286 606.89,43.562C606.89,46.401 605.839,48.744 603.736,50.593C601.633,52.442 598.915,53.367 595.582,53.367C594.618,53.367 593.567,53.295 592.428,53.152C591.288,53.009 589.898,52.592 588.258,51.902Z" style="fill:rgb(128,128,128);fill-rule:nonzero;"/>
    <path d="M984.603,53.641L984.603,30.243C983.509,31.115 982.448,31.858 981.42,32.469C980.391,33.081 978.978,33.706 977.181,34.344L977.181,31.063C980.033,29.852 982.507,28.283 984.603,26.356L988.236,26.356L988.236,53.641L995.521,53.641L995.521,56.669L977.181,56.669L977.181,53.641L984.603,53.641Z" style="fill:rgb(128,128,128);fill-rule:nonzero;"/>
    <path d="M1011.32,56.669L1011.32,48.192L998.451,48.192L998.451,45.145L1011.32,26.356L1014.97,26.356L1014.97,45.145L1020.58,45.145L1020.58,48.192L1014.97,48.192L1014.97,56.669L1011.32,56.669ZM1011.32,45.145L1011.32,31.864L1002.32,45.145L1011.32,45.145Z" style="fill:rgb(128,128,128);fill-rule:nonzero;"/>
</svg>
