<?xml version="1.0" encoding="UTF-8" standalone="no"?>
<!DOCTYPE svg PUBLIC "-//W3C//DTD SVG 1.1//EN" "http://www.w3.org/Graphics/SVG/1.1/DTD/svg11.dtd">
<svg width="100%" height="100%" viewBox="0 0 2253 1089" version="1.1" xmlns="http://www.w3.org/2000/svg" xmlns:xlink="http://www.w3.org/1999/xlink" xml:space="preserve" xmlns:serif="http://www.serif.com/" style="fill-rule:evenodd;clip-rule:evenodd;stroke-linecap:square;stroke-linejoin:round;stroke-miterlimit:10;">
    <rect id="Clementini-Line-Areas" serif:id="Clementini Line-Areas" x="-226" y="-214" width="2683.8" height="4624" style="fill:none;"/>
    <g id="Clementini-Line-Areas1" serif:id="Clementini Line-Areas">
        <rect x="115.759" y="102.606" width="292.111" height="213.652" style="fill:rgb(251,133,255);fill-opacity:0.5;stroke:rgb(251,133,255);stroke-width:6px;"/>
        <rect x="115.759" y="688.015" width="292.111" height="213.652" style="fill:rgb(251,133,255);fill-opacity:0.5;stroke:rgb(251,133,255);stroke-width:6px;"/>
        <rect x="701.253" y="102.606" width="292.111" height="213.652" style="fill:rgb(251,133,255);fill-opacity:0.5;stroke:rgb(251,133,255);stroke-width:6px;"/>
        <rect x="701.253" y="688.015" width="292.111" height="213.652" style="fill:rgb(251,133,255);fill-opacity:0.5;stroke:rgb(251,133,255);stroke-width:6px;"/>
        <rect x="1286.75" y="102.606" width="292.111" height="213.652" style="fill:rgb(251,133,255);fill-opacity:0.5;stroke:rgb(251,133,255);stroke-width:6px;"/>
        <rect x="1286.75" y="688.015" width="292.111" height="213.652" style="fill:rgb(251,133,255);fill-opacity:0.5;stroke:rgb(251,133,255);stroke-width:6px;"/>
        <rect x="1872.24" y="102.606" width="292.111" height="213.652" style="fill:rgb(251,133,255);fill-opacity:0.5;stroke:rgb(251,133,255);stroke-width:6px;"/>
        <rect x="1872.24" y="688.015" width="292.111" height="213.652" style="fill:rgb(251,133,255);fill-opacity:0.5;stroke:rgb(251,133,255);stroke-width:6px;"/>
        <path d="M407.87,388.682L521.335,209.432" style="fill:none;stroke:rgb(21,183,183);stroke-width:10px;"/>
        <path d="M23.898,722.256L207.619,828.328" style="fill:none;stroke:rgb(21,183,183);stroke-width:10px;"/>
        <path d="M766.225,166.313L911.097,252.551" style="fill:none;stroke:rgb(21,183,183);stroke-width:10px;"/>
        <path d="M1672.69,73.636L1578.86,209.432L1641.31,316.258" style="fill:none;stroke:rgb(21,183,183);stroke-width:10px;"/>
        <path d="M942.302,789.171L838.208,688.015L747.042,744.388" style="fill:none;stroke:rgb(21,183,183);stroke-width:10px;"/>
        <path d="M1536.93,789.171L1338.66,634.729L1338.68,821.456" style="fill:none;stroke:rgb(21,183,183);stroke-width:10px;"/>
        <path d="M2210.22,282.26L2013.87,209.432L1913.38,52.439" style="fill:none;stroke:rgb(21,183,183);stroke-width:10px;"/>
        <path d="M1793.59,794.841L1872.24,789.171L1872.24,688.015L2064.17,688.015L2210.03,624.25" style="fill:none;stroke:rgb(21,183,183);stroke-width:10px;"/>
        <g transform="matrix(1.20707,0,0,1.20707,-17091.5,-1786.46)">
            <g transform="matrix(48,0,0,48,14325.5,1796.71)">
                <rect x="0.088" y="-0.325" width="0.424" height="0.074" style="fill-rule:nonzero;"/>
            </g>
            <g transform="matrix(48,0,0,48,14383.1,1796.71)">
                <rect x="0.088" y="-0.325" width="0.424" height="0.074" style="fill-rule:nonzero;"/>
            </g>
            <g transform="matrix(48,0,0,48,14325.5,1868.71)">
                <rect x="0.088" y="-0.325" width="0.424" height="0.074" style="fill-rule:nonzero;"/>
            </g>
            <g transform="matrix(48,0,0,48,14383.1,1868.71)">
                <rect x="0.088" y="-0.325" width="0.424" height="0.074" style="fill-rule:nonzero;"/>
            </g>
        </g>
        <g transform="matrix(1.20707,0,0,1.20707,-16503.1,-1786.46)">
            <g transform="matrix(48,0,0,48,14325.5,1796.71)">
                <path d="M0.106,-0.11L0.259,-0.11L0.259,-0.547L0.127,-0.446L0.067,-0.526L0.295,-0.7L0.383,-0.7L0.383,-0.11L0.533,-0.11L0.533,-0L0.106,-0L0.106,-0.11Z" style="fill-rule:nonzero;"/>
            </g>
            <g transform="matrix(48,0,0,48,14383.1,1796.71)">
                <rect x="0.088" y="-0.325" width="0.424" height="0.074" style="fill-rule:nonzero;"/>
            </g>
            <g transform="matrix(48,0,0,48,14325.5,1868.71)">
                <path d="M0.038,-0.351C0.038,-0.412 0.044,-0.465 0.057,-0.511C0.07,-0.556 0.088,-0.594 0.111,-0.624C0.133,-0.654 0.161,-0.677 0.193,-0.692C0.225,-0.707 0.261,-0.714 0.3,-0.714C0.384,-0.714 0.449,-0.685 0.494,-0.626C0.539,-0.567 0.562,-0.475 0.562,-0.351C0.562,-0.29 0.556,-0.236 0.543,-0.191C0.53,-0.145 0.513,-0.107 0.49,-0.077C0.466,-0.046 0.439,-0.024 0.407,-0.009C0.374,0.007 0.338,0.014 0.299,0.014C0.214,0.014 0.15,-0.017 0.105,-0.08C0.06,-0.142 0.038,-0.232 0.038,-0.351ZM0.434,-0.351C0.434,-0.362 0.434,-0.372 0.434,-0.382C0.433,-0.391 0.433,-0.401 0.432,-0.41L0.187,-0.187C0.208,-0.126 0.245,-0.096 0.3,-0.096C0.343,-0.096 0.376,-0.116 0.399,-0.157C0.422,-0.198 0.434,-0.262 0.434,-0.351ZM0.166,-0.351C0.166,-0.341 0.166,-0.332 0.167,-0.323C0.167,-0.314 0.167,-0.304 0.168,-0.295L0.412,-0.518C0.392,-0.575 0.354,-0.604 0.299,-0.604C0.256,-0.604 0.224,-0.584 0.201,-0.543C0.178,-0.501 0.166,-0.438 0.166,-0.351Z" style="fill-rule:nonzero;"/>
            </g>
            <g transform="matrix(48,0,0,48,14383.1,1868.71)">
                <rect x="0.088" y="-0.325" width="0.424" height="0.074" style="fill-rule:nonzero;"/>
            </g>
        </g>
        <g transform="matrix(1.20707,0,0,1.20707,-15926.3,-1786.46)">
            <g transform="matrix(48,0,0,48,14325.5,1796.71)">
                <rect x="0.088" y="-0.325" width="0.424" height="0.074" style="fill-rule:nonzero;"/>
            </g>
            <g transform="matrix(48,0,0,48,14383.1,1796.71)">
                <path d="M0.038,-0.351C0.038,-0.412 0.044,-0.465 0.057,-0.511C0.07,-0.556 0.088,-0.594 0.111,-0.624C0.133,-0.654 0.161,-0.677 0.193,-0.692C0.225,-0.707 0.261,-0.714 0.3,-0.714C0.384,-0.714 0.449,-0.685 0.494,-0.626C0.539,-0.567 0.562,-0.475 0.562,-0.351C0.562,-0.29 0.556,-0.236 0.543,-0.191C0.53,-0.145 0.513,-0.107 0.49,-0.077C0.466,-0.046 0.439,-0.024 0.407,-0.009C0.374,0.007 0.338,0.014 0.299,0.014C0.214,0.014 0.15,-0.017 0.105,-0.08C0.06,-0.142 0.038,-0.232 0.038,-0.351ZM0.434,-0.351C0.434,-0.362 0.434,-0.372 0.434,-0.382C0.433,-0.391 0.433,-0.401 0.432,-0.41L0.187,-0.187C0.208,-0.126 0.245,-0.096 0.3,-0.096C0.343,-0.096 0.376,-0.116 0.399,-0.157C0.422,-0.198 0.434,-0.262 0.434,-0.351ZM0.166,-0.351C0.166,-0.341 0.166,-0.332 0.167,-0.323C0.167,-0.314 0.167,-0.304 0.168,-0.295L0.412,-0.518C0.392,-0.575 0.354,-0.604 0.299,-0.604C0.256,-0.604 0.224,-0.584 0.201,-0.543C0.178,-0.501 0.166,-0.438 0.166,-0.351Z" style="fill-rule:nonzero;"/>
            </g>
            <g transform="matrix(48,0,0,48,14325.5,1868.71)">
                <rect x="0.088" y="-0.325" width="0.424" height="0.074" style="fill-rule:nonzero;"/>
            </g>
            <g transform="matrix(48,0,0,48,14383.1,1868.71)">
                <rect x="0.088" y="-0.325" width="0.424" height="0.074" style="fill-rule:nonzero;"/>
            </g>
        </g>
        <g transform="matrix(1.20707,0,0,1.20707,-15337.3,-1786.46)">
            <g transform="matrix(48,0,0,48,14325.5,1796.71)">
                <path d="M0.106,-0.11L0.259,-0.11L0.259,-0.547L0.127,-0.446L0.067,-0.526L0.295,-0.7L0.383,-0.7L0.383,-0.11L0.533,-0.11L0.533,-0L0.106,-0L0.106,-0.11Z" style="fill-rule:nonzero;"/>
            </g>
            <g transform="matrix(48,0,0,48,14383.1,1796.71)">
                <path d="M0.038,-0.351C0.038,-0.412 0.044,-0.465 0.057,-0.511C0.07,-0.556 0.088,-0.594 0.111,-0.624C0.133,-0.654 0.161,-0.677 0.193,-0.692C0.225,-0.707 0.261,-0.714 0.3,-0.714C0.384,-0.714 0.449,-0.685 0.494,-0.626C0.539,-0.567 0.562,-0.475 0.562,-0.351C0.562,-0.29 0.556,-0.236 0.543,-0.191C0.53,-0.145 0.513,-0.107 0.49,-0.077C0.466,-0.046 0.439,-0.024 0.407,-0.009C0.374,0.007 0.338,0.014 0.299,0.014C0.214,0.014 0.15,-0.017 0.105,-0.08C0.06,-0.142 0.038,-0.232 0.038,-0.351ZM0.434,-0.351C0.434,-0.362 0.434,-0.372 0.434,-0.382C0.433,-0.391 0.433,-0.401 0.432,-0.41L0.187,-0.187C0.208,-0.126 0.245,-0.096 0.3,-0.096C0.343,-0.096 0.376,-0.116 0.399,-0.157C0.422,-0.198 0.434,-0.262 0.434,-0.351ZM0.166,-0.351C0.166,-0.341 0.166,-0.332 0.167,-0.323C0.167,-0.314 0.167,-0.304 0.168,-0.295L0.412,-0.518C0.392,-0.575 0.354,-0.604 0.299,-0.604C0.256,-0.604 0.224,-0.584 0.201,-0.543C0.178,-0.501 0.166,-0.438 0.166,-0.351Z" style="fill-rule:nonzero;"/>
            </g>
            <g transform="matrix(48,0,0,48,14325.5,1868.71)">
                <rect x="0.088" y="-0.325" width="0.424" height="0.074" style="fill-rule:nonzero;"/>
            </g>
            <g transform="matrix(48,0,0,48,14383.1,1868.71)">
                <rect x="0.088" y="-0.325" width="0.424" height="0.074" style="fill-rule:nonzero;"/>
            </g>
        </g>
        <g transform="matrix(1.20707,0,0,1.20707,-17089.6,-1190.78)">
            <g transform="matrix(48,0,0,48,14325.5,1796.71)">
                <path d="M0.127,-0.072L0.284,-0.072L0.284,-0.598L0.124,-0.486L0.085,-0.543L0.305,-0.7L0.361,-0.7L0.361,-0.072L0.515,-0.072L0.515,-0L0.127,-0L0.127,-0.072Z" style="fill:rgb(242,0,0);fill-rule:nonzero;"/>
            </g>
            <g transform="matrix(48,0,0,48,14383.1,1796.71)">
                <path d="M0.055,-0.35C0.055,-0.407 0.06,-0.458 0.07,-0.503C0.08,-0.548 0.095,-0.586 0.115,-0.617C0.135,-0.648 0.16,-0.671 0.191,-0.688C0.222,-0.704 0.258,-0.712 0.3,-0.712C0.345,-0.712 0.383,-0.704 0.414,-0.688C0.445,-0.672 0.47,-0.649 0.489,-0.618C0.508,-0.587 0.522,-0.55 0.531,-0.505C0.54,-0.46 0.544,-0.408 0.544,-0.35C0.544,-0.293 0.539,-0.243 0.529,-0.198C0.519,-0.153 0.504,-0.115 0.484,-0.084C0.464,-0.053 0.439,-0.029 0.408,-0.013C0.377,0.004 0.341,0.012 0.299,0.012C0.255,0.012 0.218,0.003 0.187,-0.015C0.156,-0.032 0.13,-0.057 0.111,-0.089C0.091,-0.121 0.077,-0.159 0.068,-0.204C0.059,-0.248 0.055,-0.297 0.055,-0.35ZM0.462,-0.35C0.462,-0.385 0.46,-0.419 0.456,-0.451L0.159,-0.18C0.17,-0.142 0.187,-0.112 0.21,-0.089C0.233,-0.066 0.262,-0.055 0.299,-0.055C0.358,-0.055 0.4,-0.079 0.425,-0.128C0.45,-0.177 0.462,-0.251 0.462,-0.35ZM0.138,-0.35C0.138,-0.333 0.139,-0.317 0.14,-0.302C0.141,-0.287 0.142,-0.272 0.143,-0.257L0.441,-0.527C0.43,-0.563 0.413,-0.592 0.391,-0.613C0.368,-0.634 0.338,-0.645 0.3,-0.645C0.241,-0.645 0.199,-0.62 0.175,-0.572C0.15,-0.523 0.138,-0.449 0.138,-0.35Z" style="fill:rgb(242,0,0);fill-rule:nonzero;"/>
            </g>
            <g transform="matrix(48,0,0,48,14325.5,1868.71)">
                <path d="M0.055,-0.35C0.055,-0.407 0.06,-0.458 0.07,-0.503C0.08,-0.548 0.095,-0.586 0.115,-0.617C0.135,-0.648 0.16,-0.671 0.191,-0.688C0.222,-0.704 0.258,-0.712 0.3,-0.712C0.345,-0.712 0.383,-0.704 0.414,-0.688C0.445,-0.672 0.47,-0.649 0.489,-0.618C0.508,-0.587 0.522,-0.55 0.531,-0.505C0.54,-0.46 0.544,-0.408 0.544,-0.35C0.544,-0.293 0.539,-0.243 0.529,-0.198C0.519,-0.153 0.504,-0.115 0.484,-0.084C0.464,-0.053 0.439,-0.029 0.408,-0.013C0.377,0.004 0.341,0.012 0.299,0.012C0.255,0.012 0.218,0.003 0.187,-0.015C0.156,-0.032 0.13,-0.057 0.111,-0.089C0.091,-0.121 0.077,-0.159 0.068,-0.204C0.059,-0.248 0.055,-0.297 0.055,-0.35ZM0.462,-0.35C0.462,-0.385 0.46,-0.419 0.456,-0.451L0.159,-0.18C0.17,-0.142 0.187,-0.112 0.21,-0.089C0.233,-0.066 0.262,-0.055 0.299,-0.055C0.358,-0.055 0.4,-0.079 0.425,-0.128C0.45,-0.177 0.462,-0.251 0.462,-0.35ZM0.138,-0.35C0.138,-0.333 0.139,-0.317 0.14,-0.302C0.141,-0.287 0.142,-0.272 0.143,-0.257L0.441,-0.527C0.43,-0.563 0.413,-0.592 0.391,-0.613C0.368,-0.634 0.338,-0.645 0.3,-0.645C0.241,-0.645 0.199,-0.62 0.175,-0.572C0.15,-0.523 0.138,-0.449 0.138,-0.35Z" style="fill:rgb(242,0,0);fill-rule:nonzero;"/>
            </g>
            <g transform="matrix(48,0,0,48,14383.1,1868.71)">
                <rect x="0.088" y="-0.325" width="0.424" height="0.074" style="fill:rgb(242,0,0);fill-rule:nonzero;"/>
            </g>
        </g>
        <g transform="matrix(1.20707,0,0,1.20707,-16503.1,-1190.78)">
            <g transform="matrix(48,0,0,48,14325.5,1796.71)">
                <path d="M0.127,-0.072L0.284,-0.072L0.284,-0.598L0.124,-0.486L0.085,-0.543L0.305,-0.7L0.361,-0.7L0.361,-0.072L0.515,-0.072L0.515,-0L0.127,-0L0.127,-0.072Z" style="fill:rgb(242,0,0);fill-rule:nonzero;"/>
            </g>
            <g transform="matrix(48,0,0,48,14383.1,1796.71)">
                <path d="M0.055,-0.35C0.055,-0.407 0.06,-0.458 0.07,-0.503C0.08,-0.548 0.095,-0.586 0.115,-0.617C0.135,-0.648 0.16,-0.671 0.191,-0.688C0.222,-0.704 0.258,-0.712 0.3,-0.712C0.345,-0.712 0.383,-0.704 0.414,-0.688C0.445,-0.672 0.47,-0.649 0.489,-0.618C0.508,-0.587 0.522,-0.55 0.531,-0.505C0.54,-0.46 0.544,-0.408 0.544,-0.35C0.544,-0.293 0.539,-0.243 0.529,-0.198C0.519,-0.153 0.504,-0.115 0.484,-0.084C0.464,-0.053 0.439,-0.029 0.408,-0.013C0.377,0.004 0.341,0.012 0.299,0.012C0.255,0.012 0.218,0.003 0.187,-0.015C0.156,-0.032 0.13,-0.057 0.111,-0.089C0.091,-0.121 0.077,-0.159 0.068,-0.204C0.059,-0.248 0.055,-0.297 0.055,-0.35ZM0.462,-0.35C0.462,-0.385 0.46,-0.419 0.456,-0.451L0.159,-0.18C0.17,-0.142 0.187,-0.112 0.21,-0.089C0.233,-0.066 0.262,-0.055 0.299,-0.055C0.358,-0.055 0.4,-0.079 0.425,-0.128C0.45,-0.177 0.462,-0.251 0.462,-0.35ZM0.138,-0.35C0.138,-0.333 0.139,-0.317 0.14,-0.302C0.141,-0.287 0.142,-0.272 0.143,-0.257L0.441,-0.527C0.43,-0.563 0.413,-0.592 0.391,-0.613C0.368,-0.634 0.338,-0.645 0.3,-0.645C0.241,-0.645 0.199,-0.62 0.175,-0.572C0.15,-0.523 0.138,-0.449 0.138,-0.35Z" style="fill:rgb(242,0,0);fill-rule:nonzero;"/>
            </g>
            <g transform="matrix(48,0,0,48,14325.5,1868.71)">
                <path d="M0.055,-0.35C0.055,-0.407 0.06,-0.458 0.07,-0.503C0.08,-0.548 0.095,-0.586 0.115,-0.617C0.135,-0.648 0.16,-0.671 0.191,-0.688C0.222,-0.704 0.258,-0.712 0.3,-0.712C0.345,-0.712 0.383,-0.704 0.414,-0.688C0.445,-0.672 0.47,-0.649 0.489,-0.618C0.508,-0.587 0.522,-0.55 0.531,-0.505C0.54,-0.46 0.544,-0.408 0.544,-0.35C0.544,-0.293 0.539,-0.243 0.529,-0.198C0.519,-0.153 0.504,-0.115 0.484,-0.084C0.464,-0.053 0.439,-0.029 0.408,-0.013C0.377,0.004 0.341,0.012 0.299,0.012C0.255,0.012 0.218,0.003 0.187,-0.015C0.156,-0.032 0.13,-0.057 0.111,-0.089C0.091,-0.121 0.077,-0.159 0.068,-0.204C0.059,-0.248 0.055,-0.297 0.055,-0.35ZM0.462,-0.35C0.462,-0.385 0.46,-0.419 0.456,-0.451L0.159,-0.18C0.17,-0.142 0.187,-0.112 0.21,-0.089C0.233,-0.066 0.262,-0.055 0.299,-0.055C0.358,-0.055 0.4,-0.079 0.425,-0.128C0.45,-0.177 0.462,-0.251 0.462,-0.35ZM0.138,-0.35C0.138,-0.333 0.139,-0.317 0.14,-0.302C0.141,-0.287 0.142,-0.272 0.143,-0.257L0.441,-0.527C0.43,-0.563 0.413,-0.592 0.391,-0.613C0.368,-0.634 0.338,-0.645 0.3,-0.645C0.241,-0.645 0.199,-0.62 0.175,-0.572C0.15,-0.523 0.138,-0.449 0.138,-0.35Z" style="fill:rgb(242,0,0);fill-rule:nonzero;"/>
            </g>
            <g transform="matrix(48,0,0,48,14383.1,1868.71)">
                <rect x="0.088" y="-0.325" width="0.424" height="0.074" style="fill:rgb(242,0,0);fill-rule:nonzero;"/>
            </g>
        </g>
        <g transform="matrix(1.20707,0,0,1.20707,-15924.4,-1190.78)">
            <g transform="matrix(48,0,0,48,14325.5,1796.71)">
                <path d="M0.127,-0.072L0.284,-0.072L0.284,-0.598L0.124,-0.486L0.085,-0.543L0.305,-0.7L0.361,-0.7L0.361,-0.072L0.515,-0.072L0.515,-0L0.127,-0L0.127,-0.072Z" style="fill:rgb(242,0,0);fill-rule:nonzero;"/>
            </g>
            <g transform="matrix(48,0,0,48,14383.1,1796.71)">
                <path d="M0.055,-0.35C0.055,-0.407 0.06,-0.458 0.07,-0.503C0.08,-0.548 0.095,-0.586 0.115,-0.617C0.135,-0.648 0.16,-0.671 0.191,-0.688C0.222,-0.704 0.258,-0.712 0.3,-0.712C0.345,-0.712 0.383,-0.704 0.414,-0.688C0.445,-0.672 0.47,-0.649 0.489,-0.618C0.508,-0.587 0.522,-0.55 0.531,-0.505C0.54,-0.46 0.544,-0.408 0.544,-0.35C0.544,-0.293 0.539,-0.243 0.529,-0.198C0.519,-0.153 0.504,-0.115 0.484,-0.084C0.464,-0.053 0.439,-0.029 0.408,-0.013C0.377,0.004 0.341,0.012 0.299,0.012C0.255,0.012 0.218,0.003 0.187,-0.015C0.156,-0.032 0.13,-0.057 0.111,-0.089C0.091,-0.121 0.077,-0.159 0.068,-0.204C0.059,-0.248 0.055,-0.297 0.055,-0.35ZM0.462,-0.35C0.462,-0.385 0.46,-0.419 0.456,-0.451L0.159,-0.18C0.17,-0.142 0.187,-0.112 0.21,-0.089C0.233,-0.066 0.262,-0.055 0.299,-0.055C0.358,-0.055 0.4,-0.079 0.425,-0.128C0.45,-0.177 0.462,-0.251 0.462,-0.35ZM0.138,-0.35C0.138,-0.333 0.139,-0.317 0.14,-0.302C0.141,-0.287 0.142,-0.272 0.143,-0.257L0.441,-0.527C0.43,-0.563 0.413,-0.592 0.391,-0.613C0.368,-0.634 0.338,-0.645 0.3,-0.645C0.241,-0.645 0.199,-0.62 0.175,-0.572C0.15,-0.523 0.138,-0.449 0.138,-0.35Z" style="fill:rgb(242,0,0);fill-rule:nonzero;"/>
            </g>
            <g transform="matrix(48,0,0,48,14325.5,1868.71)">
                <path d="M0.055,-0.35C0.055,-0.407 0.06,-0.458 0.07,-0.503C0.08,-0.548 0.095,-0.586 0.115,-0.617C0.135,-0.648 0.16,-0.671 0.191,-0.688C0.222,-0.704 0.258,-0.712 0.3,-0.712C0.345,-0.712 0.383,-0.704 0.414,-0.688C0.445,-0.672 0.47,-0.649 0.489,-0.618C0.508,-0.587 0.522,-0.55 0.531,-0.505C0.54,-0.46 0.544,-0.408 0.544,-0.35C0.544,-0.293 0.539,-0.243 0.529,-0.198C0.519,-0.153 0.504,-0.115 0.484,-0.084C0.464,-0.053 0.439,-0.029 0.408,-0.013C0.377,0.004 0.341,0.012 0.299,0.012C0.255,0.012 0.218,0.003 0.187,-0.015C0.156,-0.032 0.13,-0.057 0.111,-0.089C0.091,-0.121 0.077,-0.159 0.068,-0.204C0.059,-0.248 0.055,-0.297 0.055,-0.35ZM0.462,-0.35C0.462,-0.385 0.46,-0.419 0.456,-0.451L0.159,-0.18C0.17,-0.142 0.187,-0.112 0.21,-0.089C0.233,-0.066 0.262,-0.055 0.299,-0.055C0.358,-0.055 0.4,-0.079 0.425,-0.128C0.45,-0.177 0.462,-0.251 0.462,-0.35ZM0.138,-0.35C0.138,-0.333 0.139,-0.317 0.14,-0.302C0.141,-0.287 0.142,-0.272 0.143,-0.257L0.441,-0.527C0.43,-0.563 0.413,-0.592 0.391,-0.613C0.368,-0.634 0.338,-0.645 0.3,-0.645C0.241,-0.645 0.199,-0.62 0.175,-0.572C0.15,-0.523 0.138,-0.449 0.138,-0.35Z" style="fill:rgb(242,0,0);fill-rule:nonzero;"/>
            </g>
            <g transform="matrix(48,0,0,48,14383.1,1868.71)">
                <rect x="0.088" y="-0.325" width="0.424" height="0.074" style="fill:rgb(242,0,0);fill-rule:nonzero;"/>
            </g>
        </g>
        <g transform="matrix(1.20707,0,0,1.20707,-15337.4,-1190.78)">
            <g transform="matrix(48,0,0,48,14325.5,1796.71)">
                <rect x="0.088" y="-0.325" width="0.424" height="0.074" style="fill-rule:nonzero;"/>
            </g>
            <g transform="matrix(48,0,0,48,14383.1,1796.71)">
                <path d="M0.106,-0.11L0.259,-0.11L0.259,-0.547L0.127,-0.446L0.067,-0.526L0.295,-0.7L0.383,-0.7L0.383,-0.11L0.533,-0.11L0.533,-0L0.106,-0L0.106,-0.11Z" style="fill-rule:nonzero;"/>
            </g>
            <g transform="matrix(48,0,0,48,14325.5,1868.71)">
                <rect x="0.088" y="-0.325" width="0.424" height="0.074" style="fill-rule:nonzero;"/>
            </g>
            <g transform="matrix(48,0,0,48,14383.1,1868.71)">
                <rect x="0.088" y="-0.325" width="0.424" height="0.074" style="fill-rule:nonzero;"/>
            </g>
        </g>
        <path d="M250.055,43.279L250.055,19.881C248.961,20.753 247.9,21.496 246.872,22.108C245.843,22.72 244.43,23.345 242.633,23.983L242.633,20.701C245.485,19.49 247.959,17.921 250.055,15.994L253.688,15.994L253.688,43.279L260.973,43.279L260.973,46.307L242.633,46.307L242.633,43.279L250.055,43.279Z" style="fill:rgb(128,128,128);fill-rule:nonzero;"/>
        <path d="M271.93,29.959L271.266,29.471C270.342,28.82 269.437,27.86 268.551,26.59C267.666,25.321 267.223,23.924 267.223,22.401C267.223,20.382 268.017,18.66 269.606,17.235C271.194,15.809 273.213,15.096 275.661,15.096C277.158,15.096 278.506,15.366 279.704,15.906C280.901,16.447 281.826,17.244 282.477,18.299C283.128,19.354 283.454,20.506 283.454,21.756C283.454,22.615 283.304,23.446 283.004,24.246C282.705,25.047 282.259,25.841 281.666,26.629C281.074,27.417 279.899,28.527 278.141,29.959L279.782,31.268C281.696,32.83 282.985,34.178 283.649,35.311C284.313,36.444 284.645,37.713 284.645,39.119C284.645,41.307 283.851,43.205 282.262,44.813C280.674,46.421 278.291,47.225 275.114,47.225C271.924,47.225 269.534,46.473 267.946,44.969C266.357,43.465 265.563,41.6 265.563,39.373C265.563,36.053 267.685,32.915 271.93,29.959ZM275.661,28.104C277.497,26.71 278.646,25.545 279.108,24.608C279.57,23.67 279.801,22.798 279.801,21.99C279.801,21.014 279.372,20.125 278.512,19.324C277.653,18.524 276.546,18.123 275.192,18.123C273.734,18.123 272.623,18.559 271.862,19.432C271.1,20.304 270.719,21.209 270.719,22.147C270.719,23.058 271.038,23.918 271.676,24.725C272.314,25.532 273.336,26.437 274.743,27.44L275.661,28.104ZM274.664,31.893C271.227,34.536 269.508,37.01 269.508,39.315C269.508,40.682 270.075,41.834 271.207,42.772C272.34,43.709 273.681,44.178 275.231,44.178C276.65,44.178 277.92,43.729 279.039,42.83C280.159,41.932 280.719,40.812 280.719,39.471C280.719,38.156 280.039,36.821 278.678,35.467C277.317,34.113 276.37,33.227 275.836,32.811L274.664,31.893Z" style="fill:rgb(128,128,128);fill-rule:nonzero;"/>
        <path d="M260.211,634.729L241.872,634.729L241.872,631.39C241.872,630.53 242.047,629.609 242.399,628.626C242.75,627.643 243.421,626.539 244.411,625.315C245.4,624.091 246.448,622.913 247.555,621.78L249.625,619.671C250.042,619.241 250.954,618.245 252.36,616.683C253.766,615.12 254.694,613.922 255.143,613.089C255.592,612.255 255.817,611.435 255.817,610.628C255.817,609.326 255.296,608.32 254.254,607.61C253.213,606.901 252.041,606.546 250.739,606.546C249.997,606.546 249.166,606.63 248.248,606.8C247.331,606.969 246.526,607.168 245.836,607.395C245.146,607.623 244.026,608.089 242.477,608.792L242.477,605.569C244.118,604.788 245.761,604.251 247.409,603.958C249.056,603.665 250.413,603.519 251.481,603.519C253.056,603.519 254.505,603.776 255.827,604.29C257.148,604.804 258.131,605.602 258.776,606.683C259.42,607.763 259.743,608.916 259.743,610.14C259.743,611.507 259.329,612.907 258.502,614.339C257.676,615.771 256.116,617.614 253.825,619.866L251.598,622.073L249.723,623.909C248.538,625.107 247.581,626.266 246.852,627.386C246.123,628.505 245.719,629.84 245.641,631.39L260.211,631.39L260.211,634.729Z" style="fill:rgb(128,128,128);fill-rule:nonzero;"/>
        <path d="M284.215,634.729L265.875,634.729L265.875,631.39C265.875,630.53 266.051,629.609 266.403,628.626C266.754,627.643 267.425,626.539 268.414,625.315C269.404,624.091 270.452,622.913 271.559,621.78L273.629,619.671C274.046,619.241 274.957,618.245 276.364,616.683C277.77,615.12 278.698,613.922 279.147,613.089C279.596,612.255 279.821,611.435 279.821,610.628C279.821,609.326 279.3,608.32 278.258,607.61C277.217,606.901 276.045,606.546 274.743,606.546C274,606.546 273.17,606.63 272.252,606.8C271.334,606.969 270.53,607.168 269.84,607.395C269.15,607.623 268.03,608.089 266.481,608.792L266.481,605.569C268.122,604.788 269.765,604.251 271.413,603.958C273.06,603.665 274.417,603.519 275.485,603.519C277.06,603.519 278.509,603.776 279.831,604.29C281.152,604.804 282.135,605.602 282.78,606.683C283.424,607.763 283.747,608.916 283.747,610.14C283.747,611.507 283.333,612.907 282.506,614.339C281.679,615.771 280.12,617.614 277.829,619.866L275.602,622.073L273.727,623.909C272.542,625.107 271.585,626.266 270.856,627.386C270.127,628.505 269.723,629.84 269.645,631.39L284.215,631.39L284.215,634.729Z" style="fill:rgb(128,128,128);fill-rule:nonzero;"/>
        <path d="M831.17,43.279L831.17,19.881C830.076,20.753 829.015,21.496 827.986,22.108C826.958,22.72 825.545,23.345 823.748,23.983L823.748,20.701C826.6,19.49 829.074,17.921 831.17,15.994L834.803,15.994L834.803,43.279L842.088,43.279L842.088,46.307L823.748,46.307L823.748,43.279L831.17,43.279Z" style="fill:rgb(128,128,128);fill-rule:nonzero;"/>
        <path d="M862.361,30.213C861.424,31.606 860.262,32.742 858.875,33.621C857.488,34.5 855.962,34.94 854.295,34.94C852.719,34.94 851.225,34.559 849.812,33.797C848.4,33.035 847.322,31.964 846.58,30.584C845.838,29.204 845.467,27.602 845.467,25.779C845.467,22.915 846.388,20.418 848.23,18.289C850.073,16.16 852.498,15.096 855.506,15.096C859.047,15.096 861.694,16.577 863.445,19.539C865.197,22.502 866.072,26.268 866.072,30.838C866.072,35.89 864.959,39.884 862.732,42.821C860.506,45.757 857.491,47.225 853.689,47.225C851.645,47.225 849.659,46.919 847.732,46.307L847.732,42.654C849.894,43.67 851.932,44.178 853.846,44.178C856.554,44.178 858.65,42.934 860.135,40.447C861.619,37.96 862.361,34.809 862.361,30.994L862.361,30.213ZM855.232,18.123C854.256,18.123 853.273,18.413 852.283,18.992C851.294,19.572 850.516,20.46 849.949,21.658C849.383,22.856 849.1,24.171 849.1,25.604C849.1,27.44 849.578,28.95 850.535,30.135C851.492,31.32 852.856,31.912 854.627,31.912C856.463,31.912 857.97,31.225 859.148,29.852C860.327,28.478 860.916,26.815 860.916,24.862C860.916,22.882 860.34,21.265 859.187,20.008C858.035,18.752 856.717,18.123 855.232,18.123Z" style="fill:rgb(128,128,128);fill-rule:nonzero;"/>
        <path d="M841.326,634.729L822.986,634.729L822.986,631.39C822.986,630.53 823.162,629.609 823.514,628.626C823.865,627.643 824.536,626.539 825.525,625.315C826.515,624.091 827.563,622.913 828.67,621.78L830.74,619.671C831.157,619.241 832.068,618.245 833.475,616.683C834.881,615.12 835.809,613.922 836.258,613.089C836.707,612.255 836.932,611.435 836.932,610.628C836.932,609.326 836.411,608.32 835.369,607.61C834.327,606.901 833.156,606.546 831.853,606.546C831.111,606.546 830.281,606.63 829.363,606.8C828.445,606.969 827.641,607.168 826.951,607.395C826.261,607.623 825.141,608.089 823.592,608.792L823.592,605.569C825.232,604.788 826.876,604.251 828.523,603.958C830.171,603.665 831.528,603.519 832.596,603.519C834.171,603.519 835.62,603.776 836.941,604.29C838.263,604.804 839.246,605.602 839.891,606.683C840.535,607.763 840.857,608.916 840.857,610.14C840.857,611.507 840.444,612.907 839.617,614.339C838.79,615.771 837.231,617.614 834.939,619.866L832.713,622.073L830.838,623.909C829.653,625.107 828.696,626.266 827.967,627.386C827.238,628.505 826.834,629.84 826.756,631.39L841.326,631.39L841.326,634.729Z" style="fill:rgb(128,128,128);fill-rule:nonzero;"/>
        <path d="M846.912,634.183L846.912,630.354C849.894,631.865 852.478,632.62 854.666,632.62C856.671,632.62 858.328,632.011 859.637,630.794C860.945,629.576 861.6,628.011 861.6,626.097C861.6,624.17 860.88,622.601 859.441,621.39C858.003,620.179 855.558,619.573 852.107,619.573L850.096,619.573L850.096,616.546L852.889,616.546C855.428,616.546 857.264,615.976 858.396,614.837C859.529,613.698 860.096,612.431 860.096,611.038C860.096,609.775 859.633,608.711 858.709,607.845C857.784,606.979 856.365,606.546 854.451,606.546C852.303,606.546 849.991,607.151 847.518,608.362L847.518,604.905C849.991,603.981 852.257,603.519 854.314,603.519C857.999,603.519 860.542,604.244 861.941,605.696C863.341,607.148 864.041,608.805 864.041,610.667C864.041,612.047 863.67,613.343 862.928,614.554C862.185,615.765 860.818,616.845 858.826,617.796C860.584,618.317 861.912,618.955 862.81,619.71C863.709,620.465 864.389,621.357 864.852,622.386C865.314,623.414 865.545,624.567 865.545,625.843C865.545,628.681 864.493,631.025 862.391,632.874C860.288,634.723 857.57,635.647 854.236,635.647C853.273,635.647 852.221,635.576 851.082,635.433C849.943,635.289 848.553,634.873 846.912,634.183Z" style="fill:rgb(128,128,128);fill-rule:nonzero;"/>
        <path d="M1422.53,46.307L1404.19,46.307L1404.19,42.967C1404.19,42.108 1404.37,41.186 1404.72,40.203C1405.07,39.22 1405.74,38.117 1406.73,36.893C1407.72,35.669 1408.77,34.49 1409.88,33.358L1411.95,31.248C1412.36,30.819 1413.27,29.822 1414.68,28.26C1416.09,26.697 1417.01,25.5 1417.46,24.666C1417.91,23.833 1418.14,23.013 1418.14,22.205C1418.14,20.903 1417.62,19.897 1416.58,19.188C1415.53,18.478 1414.36,18.123 1413.06,18.123C1412.32,18.123 1411.49,18.208 1410.57,18.377C1409.65,18.546 1408.85,18.745 1408.16,18.973C1407.47,19.201 1406.35,19.666 1404.8,20.369L1404.8,17.147C1406.44,16.365 1408.08,15.828 1409.73,15.535C1411.38,15.242 1412.73,15.096 1413.8,15.096C1415.38,15.096 1416.83,15.353 1418.15,15.867C1419.47,16.382 1420.45,17.179 1421.1,18.26C1421.74,19.341 1422.06,20.493 1422.06,21.717C1422.06,23.084 1421.65,24.484 1420.82,25.916C1420,27.349 1418.44,29.191 1416.14,31.444L1413.92,33.651L1412.04,35.487C1410.86,36.684 1409.9,37.843 1409.17,38.963C1408.44,40.083 1408.04,41.418 1407.96,42.967L1422.53,42.967L1422.53,46.307Z" style="fill:rgb(128,128,128);fill-rule:nonzero;"/>
        <path d="M1437.28,15.096C1440.73,15.096 1443.36,16.544 1445.17,19.442C1446.98,22.339 1447.88,26.242 1447.88,31.151C1447.88,36.072 1446.98,39.982 1445.17,42.879C1443.36,45.776 1440.73,47.225 1437.28,47.225C1433.84,47.225 1431.21,45.776 1429.4,42.879C1427.58,39.982 1426.67,36.072 1426.67,31.151C1426.67,26.242 1427.58,22.339 1429.4,19.442C1431.21,16.544 1433.84,15.096 1437.28,15.096ZM1431.36,37.635L1441.85,21.209C1441.18,19.998 1440.46,19.181 1439.69,18.758C1438.91,18.335 1438.11,18.123 1437.28,18.123C1435.1,18.123 1433.45,19.331 1432.32,21.746C1431.18,24.162 1430.62,27.225 1430.62,30.936C1430.62,31.782 1430.64,32.694 1430.7,33.67C1430.75,34.647 1430.97,35.968 1431.36,37.635ZM1443.16,24.822L1432.75,41.346C1433.31,42.296 1433.95,43.009 1434.68,43.485C1435.41,43.96 1436.22,44.197 1437.12,44.197C1439.6,44.197 1441.35,42.814 1442.39,40.047C1443.44,37.28 1443.96,34.21 1443.96,30.838C1443.96,28.755 1443.69,26.75 1443.16,24.822Z" style="fill:rgb(128,128,128);fill-rule:nonzero;"/>
        <path d="M1422.53,634.729L1404.19,634.729L1404.19,631.39C1404.19,630.53 1404.37,629.609 1404.72,628.626C1405.07,627.643 1405.74,626.539 1406.73,625.315C1407.72,624.091 1408.77,622.913 1409.88,621.78L1411.95,619.671C1412.36,619.241 1413.27,618.245 1414.68,616.683C1416.09,615.12 1417.01,613.922 1417.46,613.089C1417.91,612.255 1418.14,611.435 1418.14,610.628C1418.14,609.326 1417.62,608.32 1416.58,607.61C1415.53,606.901 1414.36,606.546 1413.06,606.546C1412.32,606.546 1411.49,606.63 1410.57,606.8C1409.65,606.969 1408.85,607.168 1408.16,607.395C1407.47,607.623 1406.35,608.089 1404.8,608.792L1404.8,605.569C1406.44,604.788 1408.08,604.251 1409.73,603.958C1411.38,603.665 1412.73,603.519 1413.8,603.519C1415.38,603.519 1416.83,603.776 1418.15,604.29C1419.47,604.804 1420.45,605.602 1421.1,606.683C1421.74,607.763 1422.06,608.916 1422.06,610.14C1422.06,611.507 1421.65,612.907 1420.82,614.339C1420,615.771 1418.44,617.614 1416.14,619.866L1413.92,622.073L1412.04,623.909C1410.86,625.107 1409.9,626.266 1409.17,627.386C1408.44,628.505 1408.04,629.84 1407.96,631.39L1422.53,631.39L1422.53,634.729Z" style="fill:rgb(128,128,128);fill-rule:nonzero;"/>
        <path d="M1439.09,634.729L1439.09,626.253L1426.22,626.253L1426.22,623.206L1439.09,604.417L1442.75,604.417L1442.75,623.206L1448.35,623.206L1448.35,626.253L1442.75,626.253L1442.75,634.729L1439.09,634.729ZM1439.09,623.206L1439.09,609.925L1430.09,623.206L1439.09,623.206Z" style="fill:rgb(128,128,128);fill-rule:nonzero;"/>
        <path d="M2006.28,46.307L1987.94,46.307L1987.94,42.967C1987.94,42.108 1988.12,41.186 1988.47,40.203C1988.82,39.22 1989.49,38.117 1990.48,36.893C1991.47,35.669 1992.52,34.49 1993.63,33.358L1995.7,31.248C1996.11,30.819 1997.02,29.822 1998.43,28.26C1999.84,26.697 2000.77,25.5 2001.21,24.666C2001.66,23.833 2001.89,23.013 2001.89,22.205C2001.89,20.903 2001.37,19.897 2000.33,19.188C1999.28,18.478 1998.11,18.123 1996.81,18.123C1996.07,18.123 1995.24,18.208 1994.32,18.377C1993.4,18.546 1992.6,18.745 1991.91,18.973C1991.22,19.201 1990.1,19.666 1988.55,20.369L1988.55,17.147C1990.19,16.365 1991.83,15.828 1993.48,15.535C1995.13,15.242 1996.48,15.096 1997.55,15.096C1999.13,15.096 2000.58,15.353 2001.9,15.867C2003.22,16.382 2004.2,17.179 2004.85,18.26C2005.49,19.341 2005.81,20.493 2005.81,21.717C2005.81,23.084 2005.4,24.484 2004.57,25.916C2003.75,27.349 2002.19,29.191 1999.9,31.444L1997.67,33.651L1995.79,35.487C1994.61,36.684 1993.65,37.843 1992.92,38.963C1992.19,40.083 1991.79,41.418 1991.71,42.967L2006.28,42.967L2006.28,46.307Z" style="fill:rgb(128,128,128);fill-rule:nonzero;"/>
        <path d="M2020.13,43.279L2020.13,19.881C2019.04,20.753 2017.98,21.496 2016.95,22.108C2015.92,22.72 2014.51,23.345 2012.71,23.983L2012.71,20.701C2015.56,19.49 2018.03,17.921 2020.13,15.994L2023.76,15.994L2023.76,43.279L2031.05,43.279L2031.05,46.307L2012.71,46.307L2012.71,43.279L2020.13,43.279Z" style="fill:rgb(128,128,128);fill-rule:nonzero;"/>
        <path d="M2006.28,634.729L1987.94,634.729L1987.94,631.39C1987.94,630.53 1988.12,629.609 1988.47,628.626C1988.82,627.643 1989.49,626.539 1990.48,625.315C1991.47,624.091 1992.52,622.913 1993.63,621.78L1995.7,619.671C1996.11,619.241 1997.02,618.245 1998.43,616.683C1999.84,615.12 2000.77,613.922 2001.21,613.089C2001.66,612.255 2001.89,611.435 2001.89,610.628C2001.89,609.326 2001.37,608.32 2000.33,607.61C1999.28,606.901 1998.11,606.546 1996.81,606.546C1996.07,606.546 1995.24,606.63 1994.32,606.8C1993.4,606.969 1992.6,607.168 1991.91,607.395C1991.22,607.623 1990.1,608.089 1988.55,608.792L1988.55,605.569C1990.19,604.788 1991.83,604.251 1993.48,603.958C1995.13,603.665 1996.48,603.519 1997.55,603.519C1999.13,603.519 2000.58,603.776 2001.9,604.29C2003.22,604.804 2004.2,605.602 2004.85,606.683C2005.49,607.763 2005.81,608.916 2005.81,610.14C2005.81,611.507 2005.4,612.907 2004.57,614.339C2003.75,615.771 2002.19,617.614 1999.9,619.866L1997.67,622.073L1995.79,623.909C1994.61,625.107 1993.65,626.266 1992.92,627.386C1992.19,628.505 1991.79,629.84 1991.71,631.39L2006.28,631.39L2006.28,634.729Z" style="fill:rgb(128,128,128);fill-rule:nonzero;"/>
        <path d="M2012.71,618.968L2012.71,604.417L2029.68,604.417L2029.68,607.913L2016.34,607.913L2016.34,615.335L2016.97,615.335C2021.33,615.335 2024.69,616.246 2027.04,618.069C2029.4,619.892 2030.58,622.347 2030.58,625.433C2030.58,627.386 2030.1,629.137 2029.15,630.686C2028.2,632.236 2026.86,633.45 2025.13,634.329C2023.4,635.208 2021.56,635.647 2019.6,635.647C2017.65,635.647 2015.15,635.172 2012.1,634.222L2012.1,630.257C2013.21,630.856 2014.45,631.347 2015.81,631.731C2017.18,632.116 2018.44,632.308 2019.6,632.308C2020.76,632.308 2021.89,632.028 2023,631.468C2024.11,630.908 2024.97,630.091 2025.58,629.017C2026.19,627.942 2026.5,626.845 2026.5,625.726C2026.5,623.838 2025.66,622.239 2023.99,620.931C2022.31,619.622 2019.34,618.968 2015.07,618.968L2012.71,618.968Z" style="fill:rgb(128,128,128);fill-rule:nonzero;"/>
    </g>
</svg>
