<?xml version="1.0" encoding="UTF-8" standalone="no"?>
<!DOCTYPE svg PUBLIC "-//W3C//DTD SVG 1.1//EN" "http://www.w3.org/Graphics/SVG/1.1/DTD/svg11.dtd">
<svg width="100%" height="100%" viewBox="0 0 1267 604" version="1.1" xmlns="http://www.w3.org/2000/svg" xmlns:xlink="http://www.w3.org/1999/xlink" xml:space="preserve" xmlns:serif="http://www.serif.com/" style="fill-rule:evenodd;clip-rule:evenodd;stroke-linecap:square;stroke-linejoin:round;stroke-miterlimit:10;">
    <rect id="Clementini-Points-Polygons" serif:id="Clementini Points-Polygons" x="-423" y="-1145" width="2683.8" height="4517.66" style="fill:none;"/>
    <g transform="matrix(1.20707,0,0,1.20707,-17192,-1680.73)">
        <g transform="matrix(48,0,0,48,14325.5,1796.71)">
            <rect x="0.088" y="-0.325" width="0.424" height="0.074" style="fill-rule:nonzero;"/>
        </g>
        <g transform="matrix(48,0,0,48,14383.1,1796.71)">
            <rect x="0.088" y="-0.325" width="0.424" height="0.074" style="fill-rule:nonzero;"/>
        </g>
        <g transform="matrix(48,0,0,48,14325.5,1868.71)">
            <rect x="0.088" y="-0.325" width="0.424" height="0.074" style="fill-rule:nonzero;"/>
        </g>
        <g transform="matrix(48,0,0,48,14383.1,1868.71)">
            <rect x="0.088" y="-0.325" width="0.424" height="0.074" style="fill-rule:nonzero;"/>
        </g>
    </g>
    <g transform="matrix(1.20707,0,0,1.20707,-16774.3,-1680.73)">
        <g transform="matrix(48,0,0,48,14325.5,1796.71)">
            <rect x="0.088" y="-0.325" width="0.424" height="0.074" style="fill-rule:nonzero;"/>
        </g>
        <g transform="matrix(48,0,0,48,14383.1,1796.71)">
            <rect x="0.088" y="-0.325" width="0.424" height="0.074" style="fill-rule:nonzero;"/>
        </g>
        <g transform="matrix(48,0,0,48,14325.5,1868.71)">
            <rect x="0.088" y="-0.325" width="0.424" height="0.074" style="fill-rule:nonzero;"/>
        </g>
        <g transform="matrix(48,0,0,48,14383.1,1868.71)">
            <path d="M0.038,-0.351C0.038,-0.412 0.044,-0.465 0.057,-0.511C0.07,-0.556 0.088,-0.594 0.111,-0.624C0.133,-0.654 0.161,-0.677 0.193,-0.692C0.225,-0.707 0.261,-0.714 0.3,-0.714C0.384,-0.714 0.449,-0.685 0.494,-0.626C0.539,-0.567 0.562,-0.475 0.562,-0.351C0.562,-0.29 0.556,-0.236 0.543,-0.191C0.53,-0.145 0.513,-0.107 0.49,-0.077C0.466,-0.046 0.439,-0.024 0.407,-0.009C0.374,0.007 0.338,0.014 0.299,0.014C0.214,0.014 0.15,-0.017 0.105,-0.08C0.06,-0.142 0.038,-0.232 0.038,-0.351ZM0.434,-0.351C0.434,-0.362 0.434,-0.372 0.434,-0.382C0.433,-0.391 0.433,-0.401 0.432,-0.41L0.187,-0.187C0.208,-0.126 0.245,-0.096 0.3,-0.096C0.343,-0.096 0.376,-0.116 0.399,-0.157C0.422,-0.198 0.434,-0.262 0.434,-0.351ZM0.166,-0.351C0.166,-0.341 0.166,-0.332 0.167,-0.323C0.167,-0.314 0.167,-0.304 0.168,-0.295L0.412,-0.518C0.392,-0.575 0.354,-0.604 0.299,-0.604C0.256,-0.604 0.224,-0.584 0.201,-0.543C0.178,-0.501 0.166,-0.438 0.166,-0.351Z" style="fill-rule:nonzero;"/>
        </g>
    </g>
    <g transform="matrix(1.20707,0,0,1.20707,-16336.4,-1680.73)">
        <g transform="matrix(48,0,0,48,14325.5,1796.71)">
            <rect x="0.088" y="-0.325" width="0.424" height="0.074" style="fill-rule:nonzero;"/>
        </g>
        <g transform="matrix(48,0,0,48,14383.1,1796.71)">
            <rect x="0.088" y="-0.325" width="0.424" height="0.074" style="fill-rule:nonzero;"/>
        </g>
        <g transform="matrix(48,0,0,48,14325.5,1868.71)">
            <rect x="0.088" y="-0.325" width="0.424" height="0.074" style="fill-rule:nonzero;"/>
        </g>
        <g transform="matrix(48,0,0,48,14383.1,1868.71)">
            <path d="M0.106,-0.11L0.259,-0.11L0.259,-0.547L0.127,-0.446L0.067,-0.526L0.295,-0.7L0.383,-0.7L0.383,-0.11L0.533,-0.11L0.533,-0L0.106,-0L0.106,-0.11Z" style="fill-rule:nonzero;"/>
        </g>
    </g>
    <path d="M19.34,284.154L84.899,170.604L216.016,170.604L281.575,284.154L216.016,397.705L84.899,397.705L19.34,284.154Z" style="fill:rgb(198,237,237);stroke:rgb(21,183,183);stroke-width:6px;"/>
    <path d="M436.205,284.154L501.764,170.604L632.881,170.604L698.439,284.154L632.881,397.705L501.764,397.705L436.205,284.154Z" style="fill:rgb(198,237,237);stroke:rgb(21,183,183);stroke-width:6px;"/>
    <path d="M876.448,284.154L942.006,170.604L1073.12,170.604L1138.68,284.154L1073.12,397.705L942.006,397.705L876.448,284.154Z" style="fill:rgb(198,237,237);stroke:rgb(21,183,183);stroke-width:6px;"/>
    <path d="M195.514,80.179L235.572,10.796L315.689,10.796L355.748,80.179L315.689,149.563L235.572,149.563L195.514,80.179Z" style="fill:rgb(253,194,255);fill-opacity:0.5;stroke:rgb(247,0,255);stroke-width:6px;"/>
    <path d="M594.975,98.543L635.033,29.16L715.15,29.16L755.209,98.543L715.15,167.927L635.033,167.927L594.975,98.543Z" style="fill:rgb(253,194,255);fill-opacity:0.5;stroke:rgb(247,0,255);stroke-width:6px;"/>
    <path d="M1081.84,185.543L1121.9,116.16L1202.01,116.16L1242.07,185.543L1202.01,254.927L1121.9,254.927L1081.84,185.543Z" style="fill:rgb(253,194,255);fill-opacity:0.5;stroke:rgb(247,0,255);stroke-width:6px;"/>
    <path d="M158.243,104.192C157.305,105.586 156.143,106.722 154.756,107.601C153.37,108.479 151.843,108.919 150.176,108.919C148.601,108.919 147.107,108.538 145.694,107.776C144.281,107.015 143.204,105.944 142.461,104.563C141.719,103.183 141.348,101.582 141.348,99.759C141.348,96.894 142.269,94.397 144.112,92.268C145.954,90.14 148.379,89.075 151.387,89.075C154.929,89.075 157.575,90.556 159.327,93.518C161.078,96.481 161.954,100.247 161.954,104.817C161.954,109.869 160.84,113.864 158.614,116.8C156.387,119.736 153.373,121.204 149.571,121.204C147.526,121.204 145.541,120.898 143.614,120.286L143.614,116.634C145.775,117.649 147.813,118.157 149.727,118.157C152.435,118.157 154.532,116.914 156.016,114.427C157.5,111.94 158.243,108.789 158.243,104.974L158.243,104.192ZM151.114,92.102C150.137,92.102 149.154,92.392 148.164,92.972C147.175,93.551 146.397,94.44 145.831,95.638C145.264,96.836 144.981,98.151 144.981,99.583C144.981,101.419 145.459,102.929 146.416,104.114C147.373,105.299 148.737,105.892 150.508,105.892C152.344,105.892 153.851,105.205 155.03,103.831C156.208,102.457 156.797,100.794 156.797,98.841C156.797,96.862 156.221,95.244 155.069,93.987C153.916,92.731 152.598,92.102 151.114,92.102Z" style="fill:rgb(128,128,128);fill-rule:nonzero;"/>
    <path d="M529.595,117.259L529.595,93.86C528.502,94.733 527.44,95.475 526.412,96.087C525.383,96.699 523.97,97.324 522.174,97.962L522.174,94.681C525.025,93.47 527.499,91.901 529.595,89.974L533.228,89.974L533.228,117.259L540.513,117.259L540.513,120.286L522.174,120.286L522.174,117.259L529.595,117.259Z" style="fill:rgb(128,128,128);fill-rule:nonzero;"/>
    <path d="M554.498,89.075C557.948,89.075 560.578,90.524 562.388,93.421C564.198,96.318 565.103,100.221 565.103,105.13C565.103,110.052 564.198,113.961 562.388,116.858C560.578,119.755 557.948,121.204 554.498,121.204C551.06,121.204 548.433,119.755 546.617,116.858C544.8,113.961 543.892,110.052 543.892,105.13C543.892,100.221 544.8,96.318 546.617,93.421C548.433,90.524 551.06,89.075 554.498,89.075ZM548.58,111.614L559.068,95.188C558.404,93.977 557.685,93.16 556.91,92.737C556.135,92.314 555.331,92.102 554.498,92.102C552.323,92.102 550.67,93.31 549.537,95.726C548.404,98.141 547.838,101.204 547.838,104.915C547.838,105.761 547.864,106.673 547.916,107.649C547.968,108.626 548.189,109.948 548.58,111.614ZM560.377,98.802L549.966,115.325C550.526,116.276 551.171,116.989 551.9,117.464C552.629,117.939 553.443,118.177 554.341,118.177C556.815,118.177 558.573,116.793 559.615,114.026C560.657,111.259 561.177,108.19 561.177,104.817C561.177,102.734 560.911,100.729 560.377,98.802Z" style="fill:rgb(128,128,128);fill-rule:nonzero;"/>
    <path d="M996.123,117.259L996.123,93.86C995.029,94.733 993.968,95.475 992.94,96.087C991.911,96.699 990.498,97.324 988.701,97.962L988.701,94.681C991.553,93.47 994.027,91.901 996.123,89.974L999.756,89.974L999.756,117.259L1007.04,117.259L1007.04,120.286L988.701,120.286L988.701,117.259L996.123,117.259Z" style="fill:rgb(128,128,128);fill-rule:nonzero;"/>
    <path d="M1020.13,117.259L1020.13,93.86C1019.03,94.733 1017.97,95.475 1016.94,96.087C1015.92,96.699 1014.5,97.324 1012.71,97.962L1012.71,94.681C1015.56,93.47 1018.03,91.901 1020.13,89.974L1023.76,89.974L1023.76,117.259L1031.05,117.259L1031.05,120.286L1012.71,120.286L1012.71,117.259L1020.13,117.259Z" style="fill:rgb(128,128,128);fill-rule:nonzero;"/>
</svg>
