<?xml version="1.0" encoding="UTF-8" standalone="no"?>
<!DOCTYPE svg PUBLIC "-//W3C//DTD SVG 1.1//EN" "http://www.w3.org/Graphics/SVG/1.1/DTD/svg11.dtd">
<svg width="100%" height="100%" viewBox="0 0 1065 617" version="1.1" xmlns="http://www.w3.org/2000/svg" xmlns:xlink="http://www.w3.org/1999/xlink" xml:space="preserve" xmlns:serif="http://www.serif.com/" style="fill-rule:evenodd;clip-rule:evenodd;stroke-linecap:round;stroke-linejoin:round;stroke-miterlimit:1.5;">
    <g transform="matrix(1,0,0,1,-3201,-4177)">
        <rect id="Raster-analysis" serif:id="Raster analysis" x="3056" y="3502" width="1633" height="2460" style="fill:none;"/>
        <g id="Raster-analysis1" serif:id="Raster analysis">
            <g transform="matrix(0.907781,0,0,1,313.45,128.227)">
                <rect x="3602" y="4133" width="347" height="69" style="fill:rgb(45,231,231);"/>
            </g>
            <g transform="matrix(0.907781,0,0,1,313.45,575.711)">
                <rect x="3602" y="4133" width="347" height="69" style="fill:rgb(250,112,255);"/>
            </g>
            <g transform="matrix(0.707107,-0.707107,0.707107,0.707107,2499.11,5273.14)">
                <g>
                    <g transform="matrix(0.489167,0,0,0.608724,773.739,173.761)">
                        <rect x="1408.73" y="376.404" width="125.464" height="125.464" style="fill:rgb(194,194,194);stroke:black;stroke-width:7.24px;"/>
                    </g>
                    <g transform="matrix(0.489167,0,0,0.784073,773.739,238.504)">
                        <rect x="1408.73" y="376.404" width="125.464" height="125.464" style="fill:rgb(194,194,194);stroke:black;stroke-width:6.12px;"/>
                    </g>
                    <g transform="matrix(0.489167,0,0,0.608724,773.739,402.879)">
                        <rect x="1408.73" y="376.404" width="125.464" height="125.464" style="fill:rgb(194,194,194);stroke:black;stroke-width:7.24px;"/>
                    </g>
                    <g transform="matrix(0.983334,0,0,0.608724,218.337,173.761)">
                        <rect x="1408.73" y="376.404" width="125.464" height="125.464" style="fill:rgb(194,194,194);stroke:black;stroke-width:4.89px;"/>
                    </g>
                    <g transform="matrix(0.983334,0,0,0.433374,218.337,316.136)">
                        <rect x="1408.73" y="376.404" width="125.464" height="125.464" style="fill:rgb(194,194,194);stroke:black;stroke-width:5.26px;"/>
                    </g>
                    <g transform="matrix(0.983334,0,0,0.784073,218.337,238.504)">
                        <rect x="1408.73" y="376.404" width="125.464" height="125.464" style="fill:rgb(194,194,194);stroke:black;stroke-width:4.5px;"/>
                    </g>
                    <g transform="matrix(0.983334,0,0,0.608724,218.337,402.879)">
                        <rect x="1408.73" y="376.404" width="125.464" height="125.464" style="fill:rgb(194,194,194);stroke:black;stroke-width:4.89px;"/>
                    </g>
                    <g transform="matrix(0.632635,0,0,0.608724,633.004,173.761)">
                        <rect x="1408.73" y="376.404" width="125.464" height="125.464" style="fill:rgb(194,194,194);stroke:black;stroke-width:6.44px;"/>
                    </g>
                    <g transform="matrix(0.632635,0,0,0.433374,633.004,316.136)">
                        <rect x="1408.73" y="376.404" width="125.464" height="125.464" style="fill:rgb(194,194,194);stroke:black;stroke-width:7.38px;"/>
                    </g>
                    <g transform="matrix(0.632635,0,0,0.784073,633.004,238.504)">
                        <rect x="1408.73" y="376.404" width="125.464" height="125.464" style="fill:rgb(194,194,194);stroke:black;stroke-width:5.61px;"/>
                    </g>
                    <g transform="matrix(0.632635,0,0,0.608724,633.004,402.879)">
                        <rect x="1408.73" y="376.404" width="125.464" height="125.464" style="fill:rgb(194,194,194);stroke:black;stroke-width:6.44px;"/>
                    </g>
                    <g transform="matrix(0.329758,0,0,0.608724,1262.42,173.761)">
                        <rect x="1408.73" y="376.404" width="125.464" height="125.464" style="fill:rgb(194,194,194);stroke:black;stroke-width:8.17px;"/>
                    </g>
                    <g transform="matrix(0.329758,0,0,0.433374,1262.42,316.136)">
                        <rect x="1408.73" y="376.404" width="125.464" height="125.464" style="fill:rgb(194,194,194);stroke:black;stroke-width:10.39px;"/>
                    </g>
                    <g transform="matrix(0.329758,0,0,0.784073,1262.42,238.504)">
                        <rect x="1408.73" y="376.404" width="125.464" height="125.464" style="fill:rgb(194,194,194);stroke:black;stroke-width:6.65px;"/>
                    </g>
                    <g transform="matrix(0.329758,0,0,0.608724,1262.42,402.879)">
                        <rect x="1408.73" y="376.404" width="125.464" height="125.464" style="fill:rgb(194,194,194);stroke:black;stroke-width:8.17px;"/>
                    </g>
                    <g transform="matrix(0.489167,0,0,0.433374,773.739,316.136)">
                        <rect x="1408.73" y="376.404" width="125.464" height="125.464" style="fill:rgb(194,194,194);stroke:black;stroke-width:8.66px;"/>
                    </g>
                </g>
            </g>
            <g transform="matrix(0.707107,-0.707107,0.707107,0.707107,2499.04,5273.13)">
                <g transform="matrix(0.583236,0,0,0.583236,986.312,142.498)">
                    <circle cx="817.043" cy="446.457" r="20.095"/>
                </g>
                <g transform="matrix(0.583236,0,0,0.583236,986.312,219.008)">
                    <circle cx="817.043" cy="446.457" r="20.095"/>
                </g>
                <g transform="matrix(0.583236,0,0,0.583236,986.312,274.289)">
                    <circle cx="817.043" cy="446.457" r="20.095"/>
                </g>
                <g transform="matrix(0.583236,0,0,0.583236,986.312,371.735)">
                    <circle cx="817.043" cy="446.457" r="20.095"/>
                </g>
                <g transform="matrix(0.583236,0,0,0.583236,986.312,448.168)">
                    <circle cx="817.043" cy="446.457" r="20.095"/>
                </g>
                <g transform="matrix(0.583236,0,0,0.583236,1047.33,142.498)">
                    <circle cx="817.043" cy="446.457" r="20.095"/>
                </g>
                <g transform="matrix(0.583236,0,0,0.583236,1047.33,219.008)">
                    <circle cx="817.043" cy="446.457" r="20.095"/>
                </g>
                <g transform="matrix(0.583236,0,0,0.583236,1047.33,274.289)">
                    <circle cx="817.043" cy="446.457" r="20.095"/>
                </g>
                <g transform="matrix(0.583236,0,0,0.583236,1047.33,371.735)">
                    <circle cx="817.043" cy="446.457" r="20.095"/>
                </g>
                <g transform="matrix(0.583236,0,0,0.583236,1047.33,448.168)">
                    <circle cx="817.043" cy="446.457" r="20.095"/>
                </g>
                <g transform="matrix(0.583236,0,0,0.583236,1127.38,142.498)">
                    <circle cx="817.043" cy="446.457" r="20.095"/>
                </g>
                <g transform="matrix(0.583236,0,0,0.583236,1127.38,219.008)">
                    <circle cx="817.043" cy="446.457" r="20.095"/>
                </g>
                <g transform="matrix(0.583236,0,0,0.583236,1127.38,274.289)">
                    <circle cx="817.043" cy="446.457" r="20.095"/>
                </g>
                <g transform="matrix(0.583236,0,0,0.583236,1127.38,371.735)">
                    <circle cx="817.043" cy="446.457" r="20.095"/>
                </g>
                <g transform="matrix(0.583236,0,0,0.583236,1127.38,448.168)">
                    <circle cx="817.043" cy="446.457" r="20.095"/>
                </g>
                <g transform="matrix(0.583236,0,0,0.583236,1250.55,142.498)">
                    <circle cx="817.043" cy="446.457" r="20.095"/>
                </g>
                <g transform="matrix(0.583236,0,0,0.583236,1250.55,219.008)">
                    <circle cx="817.043" cy="446.457" r="20.095"/>
                </g>
                <g transform="matrix(0.583236,0,0,0.583236,1250.55,274.289)">
                    <circle cx="817.043" cy="446.457" r="20.095"/>
                </g>
                <g transform="matrix(0.583236,0,0,0.583236,1250.55,371.735)">
                    <circle cx="817.043" cy="446.457" r="20.095"/>
                </g>
                <g transform="matrix(0.583236,0,0,0.583236,1250.55,448.168)">
                    <circle cx="817.043" cy="446.457" r="20.095"/>
                </g>
                <g transform="matrix(0.583236,0,0,0.583236,1292.04,142.498)">
                    <circle cx="817.043" cy="446.457" r="20.095"/>
                </g>
                <g transform="matrix(0.583236,0,0,0.583236,1292.04,219.008)">
                    <circle cx="817.043" cy="446.457" r="20.095"/>
                </g>
                <g transform="matrix(0.583236,0,0,0.583236,1292.04,274.289)">
                    <circle cx="817.043" cy="446.457" r="20.095"/>
                </g>
                <g transform="matrix(0.583236,0,0,0.583236,1292.04,371.735)">
                    <circle cx="817.043" cy="446.457" r="20.095"/>
                </g>
                <g transform="matrix(0.583236,0,0,0.583236,1292.04,448.168)">
                    <circle cx="817.043" cy="446.457" r="20.095"/>
                </g>
            </g>
            <g transform="matrix(1.01109,1.12253e-16,-1.11022e-16,1,179.756,64.0823)">
                <g transform="matrix(48,0,0,48,3211.31,4261.21)">
                    <path d="M0.237,-0.101C0.259,-0.101 0.279,-0.104 0.298,-0.109C0.317,-0.114 0.333,-0.122 0.347,-0.132C0.36,-0.142 0.371,-0.154 0.379,-0.169C0.386,-0.184 0.39,-0.2 0.39,-0.219C0.39,-0.256 0.376,-0.285 0.347,-0.306C0.318,-0.327 0.274,-0.337 0.216,-0.337C0.209,-0.337 0.2,-0.337 0.191,-0.337C0.181,-0.336 0.172,-0.336 0.163,-0.335C0.153,-0.334 0.143,-0.334 0.132,-0.334L0.132,-0.7L0.494,-0.7L0.494,-0.58L0.244,-0.58L0.244,-0.443C0.249,-0.443 0.255,-0.443 0.26,-0.444L0.285,-0.445C0.318,-0.445 0.349,-0.44 0.378,-0.431C0.407,-0.421 0.432,-0.406 0.453,-0.387C0.474,-0.368 0.491,-0.344 0.503,-0.317C0.514,-0.289 0.52,-0.258 0.52,-0.225C0.52,-0.186 0.513,-0.151 0.498,-0.122C0.483,-0.092 0.463,-0.067 0.438,-0.047C0.413,-0.027 0.383,-0.012 0.35,-0.002C0.317,0.009 0.281,0.014 0.243,0.014C0.228,0.014 0.213,0.012 0.196,0.01C0.179,0.007 0.163,0.003 0.147,-0.002C0.131,-0.006 0.116,-0.011 0.103,-0.016C0.089,-0.021 0.077,-0.026 0.068,-0.031L0.11,-0.135C0.121,-0.128 0.139,-0.121 0.163,-0.113C0.186,-0.105 0.211,-0.101 0.237,-0.101Z" style="fill-rule:nonzero;"/>
                </g>
            </g>
            <g transform="matrix(1.01109,1.12253e-16,-1.11022e-16,1,126.351,117.783)">
                <g transform="matrix(48,0,0,48,3211.31,4261.21)">
                    <path d="M0.102,-0L0.39,-0.582L0.064,-0.582L0.064,-0.7L0.52,-0.7L0.52,-0.602L0.229,-0L0.102,-0Z" style="fill-rule:nonzero;"/>
                </g>
            </g>
            <g transform="matrix(1.01109,1.12253e-16,-1.11022e-16,1,84.7698,170.788)">
                <g transform="matrix(48,0,0,48,3182.2,4261.21)">
                    <path d="M0.106,-0.11L0.259,-0.11L0.259,-0.547L0.127,-0.446L0.067,-0.526L0.295,-0.7L0.383,-0.7L0.383,-0.11L0.533,-0.11L0.533,-0L0.106,-0L0.106,-0.11Z" style="fill-rule:nonzero;"/>
                </g>
                <g transform="matrix(48,0,0,48,3211,4261.21)">
                    <path d="M0.106,-0.11L0.259,-0.11L0.259,-0.547L0.127,-0.446L0.067,-0.526L0.295,-0.7L0.383,-0.7L0.383,-0.11L0.533,-0.11L0.533,-0L0.106,-0L0.106,-0.11Z" style="fill-rule:nonzero;"/>
                </g>
            </g>
            <g transform="matrix(1.01109,1.12253e-16,-1.11022e-16,1,17.0879,225.793)">
                <g transform="matrix(48,0,0,48,3211.31,4261.21)">
                    <path d="M0.054,-0.481C0.054,-0.515 0.06,-0.546 0.072,-0.575C0.083,-0.604 0.099,-0.628 0.121,-0.649C0.141,-0.669 0.167,-0.685 0.197,-0.697C0.226,-0.708 0.259,-0.714 0.296,-0.714C0.333,-0.714 0.367,-0.708 0.398,-0.697C0.429,-0.686 0.455,-0.669 0.477,-0.647C0.499,-0.624 0.516,-0.596 0.528,-0.564C0.54,-0.531 0.546,-0.493 0.546,-0.45C0.546,-0.373 0.536,-0.306 0.516,-0.25C0.496,-0.194 0.469,-0.147 0.436,-0.11C0.402,-0.073 0.363,-0.044 0.318,-0.024C0.273,-0.004 0.227,0.009 0.178,0.014L0.15,-0.088C0.187,-0.093 0.22,-0.102 0.25,-0.115C0.279,-0.128 0.305,-0.145 0.327,-0.165C0.349,-0.184 0.367,-0.207 0.381,-0.232C0.395,-0.257 0.404,-0.283 0.408,-0.312C0.394,-0.298 0.376,-0.287 0.354,-0.279C0.332,-0.27 0.306,-0.266 0.275,-0.266L0.273,-0.266C0.248,-0.266 0.222,-0.27 0.196,-0.279C0.17,-0.288 0.147,-0.301 0.126,-0.319C0.105,-0.337 0.087,-0.36 0.074,-0.387C0.061,-0.413 0.054,-0.445 0.054,-0.481ZM0.18,-0.488C0.18,-0.469 0.184,-0.453 0.191,-0.439C0.198,-0.424 0.207,-0.412 0.218,-0.403C0.229,-0.393 0.243,-0.386 0.258,-0.381C0.273,-0.376 0.288,-0.373 0.304,-0.373C0.331,-0.373 0.355,-0.377 0.375,-0.386C0.395,-0.395 0.41,-0.405 0.419,-0.418C0.421,-0.432 0.422,-0.445 0.422,-0.458C0.422,-0.477 0.419,-0.495 0.414,-0.513C0.409,-0.531 0.401,-0.547 0.39,-0.561C0.379,-0.575 0.366,-0.586 0.35,-0.595C0.334,-0.603 0.316,-0.607 0.295,-0.607C0.262,-0.607 0.235,-0.596 0.213,-0.576C0.191,-0.555 0.18,-0.525 0.18,-0.488Z" style="fill-rule:nonzero;"/>
                </g>
            </g>
            <g transform="matrix(1.01109,1.12253e-16,-1.11022e-16,1,-37.5519,280.097)">
                <g transform="matrix(48,0,0,48,3211.31,4261.21)">
                    <path d="M0.248,-0.096C0.27,-0.096 0.29,-0.099 0.309,-0.105C0.327,-0.11 0.343,-0.118 0.356,-0.129C0.369,-0.139 0.379,-0.151 0.386,-0.165C0.393,-0.178 0.397,-0.193 0.397,-0.209C0.397,-0.229 0.393,-0.246 0.385,-0.26C0.376,-0.273 0.365,-0.284 0.35,-0.292C0.335,-0.3 0.318,-0.306 0.297,-0.309C0.276,-0.312 0.254,-0.314 0.23,-0.314L0.174,-0.314L0.174,-0.385L0.342,-0.59L0.089,-0.59L0.089,-0.7L0.497,-0.7L0.497,-0.609L0.321,-0.408L0.344,-0.408C0.367,-0.408 0.39,-0.404 0.412,-0.396C0.434,-0.388 0.454,-0.376 0.471,-0.36C0.488,-0.344 0.501,-0.324 0.512,-0.3C0.522,-0.276 0.527,-0.248 0.527,-0.217C0.527,-0.179 0.519,-0.146 0.504,-0.117C0.488,-0.088 0.467,-0.064 0.442,-0.045C0.416,-0.025 0.386,-0.01 0.353,-0.001C0.32,0.009 0.285,0.014 0.25,0.014C0.22,0.014 0.19,0.011 0.16,0.006C0.13,0.001 0.101,-0.008 0.073,-0.019L0.108,-0.127C0.114,-0.124 0.122,-0.12 0.133,-0.117C0.143,-0.114 0.155,-0.11 0.168,-0.107C0.181,-0.104 0.194,-0.101 0.208,-0.099C0.221,-0.097 0.235,-0.096 0.248,-0.096Z" style="fill-rule:nonzero;"/>
                </g>
            </g>
            <g transform="matrix(1.01109,1.12253e-16,-1.11022e-16,1,234.151,116.719)">
                <g transform="matrix(48,0,0,48,3211.31,4261.21)">
                    <path d="M0.038,-0.351C0.038,-0.412 0.044,-0.465 0.057,-0.511C0.07,-0.556 0.088,-0.594 0.111,-0.624C0.133,-0.654 0.161,-0.677 0.193,-0.692C0.225,-0.707 0.261,-0.714 0.3,-0.714C0.384,-0.714 0.449,-0.685 0.494,-0.626C0.539,-0.567 0.562,-0.475 0.562,-0.351C0.562,-0.29 0.556,-0.236 0.543,-0.191C0.53,-0.145 0.513,-0.107 0.49,-0.077C0.466,-0.046 0.439,-0.024 0.407,-0.009C0.374,0.007 0.338,0.014 0.299,0.014C0.214,0.014 0.15,-0.017 0.105,-0.08C0.06,-0.142 0.038,-0.232 0.038,-0.351ZM0.434,-0.351C0.434,-0.362 0.434,-0.372 0.434,-0.382C0.433,-0.391 0.433,-0.401 0.432,-0.41L0.187,-0.187C0.208,-0.126 0.245,-0.096 0.3,-0.096C0.343,-0.096 0.376,-0.116 0.399,-0.157C0.422,-0.198 0.434,-0.262 0.434,-0.351ZM0.166,-0.351C0.166,-0.341 0.166,-0.332 0.167,-0.323C0.167,-0.314 0.167,-0.304 0.168,-0.295L0.412,-0.518C0.392,-0.575 0.354,-0.604 0.299,-0.604C0.256,-0.604 0.224,-0.584 0.201,-0.543C0.178,-0.501 0.166,-0.438 0.166,-0.351Z" style="fill-rule:nonzero;"/>
                </g>
            </g>
            <g transform="matrix(1.01109,1.12253e-16,-1.11022e-16,1,180.718,170.488)">
                <g transform="matrix(48,0,0,48,3211.31,4261.21)">
                    <path d="M0.523,-0L0.077,-0L0.077,-0.097C0.085,-0.104 0.095,-0.113 0.107,-0.124C0.119,-0.135 0.132,-0.147 0.148,-0.161C0.163,-0.175 0.178,-0.19 0.195,-0.207C0.212,-0.224 0.228,-0.241 0.244,-0.259C0.267,-0.284 0.287,-0.307 0.304,-0.328C0.321,-0.349 0.335,-0.368 0.346,-0.387C0.357,-0.405 0.365,-0.423 0.37,-0.441C0.375,-0.458 0.378,-0.476 0.378,-0.495C0.378,-0.508 0.375,-0.521 0.369,-0.534C0.363,-0.547 0.355,-0.558 0.344,-0.568C0.333,-0.577 0.321,-0.585 0.306,-0.591C0.291,-0.596 0.274,-0.599 0.256,-0.599C0.232,-0.599 0.21,-0.595 0.191,-0.588C0.171,-0.581 0.15,-0.568 0.129,-0.551L0.077,-0.643C0.105,-0.663 0.136,-0.68 0.171,-0.694C0.205,-0.707 0.244,-0.714 0.289,-0.714C0.318,-0.714 0.345,-0.71 0.372,-0.702C0.398,-0.694 0.421,-0.682 0.442,-0.667C0.462,-0.651 0.478,-0.631 0.49,-0.608C0.502,-0.585 0.508,-0.558 0.508,-0.527C0.508,-0.506 0.506,-0.486 0.503,-0.468C0.499,-0.449 0.493,-0.431 0.486,-0.413C0.478,-0.394 0.468,-0.375 0.456,-0.356C0.443,-0.337 0.428,-0.316 0.411,-0.293C0.398,-0.276 0.383,-0.258 0.368,-0.241C0.352,-0.223 0.336,-0.206 0.321,-0.19C0.306,-0.174 0.291,-0.159 0.276,-0.145C0.261,-0.131 0.247,-0.119 0.235,-0.11L0.523,-0.11L0.523,-0Z" style="fill-rule:nonzero;"/>
                </g>
            </g>
            <g transform="matrix(1.01109,1.12253e-16,-1.11022e-16,1,125.788,224.626)">
                <g transform="matrix(48,0,0,48,3211.31,4261.21)">
                    <path d="M0.237,-0.101C0.259,-0.101 0.279,-0.104 0.298,-0.109C0.317,-0.114 0.333,-0.122 0.347,-0.132C0.36,-0.142 0.371,-0.154 0.379,-0.169C0.386,-0.184 0.39,-0.2 0.39,-0.219C0.39,-0.256 0.376,-0.285 0.347,-0.306C0.318,-0.327 0.274,-0.337 0.216,-0.337C0.209,-0.337 0.2,-0.337 0.191,-0.337C0.181,-0.336 0.172,-0.336 0.163,-0.335C0.153,-0.334 0.143,-0.334 0.132,-0.334L0.132,-0.7L0.494,-0.7L0.494,-0.58L0.244,-0.58L0.244,-0.443C0.249,-0.443 0.255,-0.443 0.26,-0.444L0.285,-0.445C0.318,-0.445 0.349,-0.44 0.378,-0.431C0.407,-0.421 0.432,-0.406 0.453,-0.387C0.474,-0.368 0.491,-0.344 0.503,-0.317C0.514,-0.289 0.52,-0.258 0.52,-0.225C0.52,-0.186 0.513,-0.151 0.498,-0.122C0.483,-0.092 0.463,-0.067 0.438,-0.047C0.413,-0.027 0.383,-0.012 0.35,-0.002C0.317,0.009 0.281,0.014 0.243,0.014C0.228,0.014 0.213,0.012 0.196,0.01C0.179,0.007 0.163,0.003 0.147,-0.002C0.131,-0.006 0.116,-0.011 0.103,-0.016C0.089,-0.021 0.077,-0.026 0.068,-0.031L0.11,-0.135C0.121,-0.128 0.139,-0.121 0.163,-0.113C0.186,-0.105 0.211,-0.101 0.237,-0.101Z" style="fill-rule:nonzero;"/>
                </g>
            </g>
            <g transform="matrix(1.01109,1.12253e-16,-1.11022e-16,1,72.1515,278.558)">
                <g transform="matrix(48,0,0,48,3211.31,4261.21)">
                    <path d="M0.102,-0L0.39,-0.582L0.064,-0.582L0.064,-0.7L0.52,-0.7L0.52,-0.602L0.229,-0L0.102,-0Z" style="fill-rule:nonzero;"/>
                </g>
            </g>
            <g transform="matrix(1.01109,1.12253e-16,-1.11022e-16,1,17.6494,333.441)">
                <g transform="matrix(48,0,0,48,3211.31,4261.21)">
                    <path d="M0.577,-0.195L0.457,-0.195L0.457,-0L0.336,-0L0.336,-0.195L0.033,-0.195L0.033,-0.284L0.35,-0.705L0.457,-0.705L0.457,-0.299L0.577,-0.299L0.577,-0.195ZM0.336,-0.521L0.162,-0.299L0.336,-0.299L0.336,-0.521Z" style="fill-rule:nonzero;"/>
                </g>
            </g>
            <g transform="matrix(1.01109,1.12253e-16,-1.11022e-16,1,292.681,162.095)">
                <g transform="matrix(48,0,0,48,3182.2,4261.21)">
                    <rect x="0.154" y="-0.345" width="0.291" height="0.115" style="fill-rule:nonzero;"/>
                </g>
                <g transform="matrix(48,0,0,48,3211,4261.21)">
                    <path d="M0.523,-0L0.077,-0L0.077,-0.097C0.085,-0.104 0.095,-0.113 0.107,-0.124C0.119,-0.135 0.132,-0.147 0.148,-0.161C0.163,-0.175 0.178,-0.19 0.195,-0.207C0.212,-0.224 0.228,-0.241 0.244,-0.259C0.267,-0.284 0.287,-0.307 0.304,-0.328C0.321,-0.349 0.335,-0.368 0.346,-0.387C0.357,-0.405 0.365,-0.423 0.37,-0.441C0.375,-0.458 0.378,-0.476 0.378,-0.495C0.378,-0.508 0.375,-0.521 0.369,-0.534C0.363,-0.547 0.355,-0.558 0.344,-0.568C0.333,-0.577 0.321,-0.585 0.306,-0.591C0.291,-0.596 0.274,-0.599 0.256,-0.599C0.232,-0.599 0.21,-0.595 0.191,-0.588C0.171,-0.581 0.15,-0.568 0.129,-0.551L0.077,-0.643C0.105,-0.663 0.136,-0.68 0.171,-0.694C0.205,-0.707 0.244,-0.714 0.289,-0.714C0.318,-0.714 0.345,-0.71 0.372,-0.702C0.398,-0.694 0.421,-0.682 0.442,-0.667C0.462,-0.651 0.478,-0.631 0.49,-0.608C0.502,-0.585 0.508,-0.558 0.508,-0.527C0.508,-0.506 0.506,-0.486 0.503,-0.468C0.499,-0.449 0.493,-0.431 0.486,-0.413C0.478,-0.394 0.468,-0.375 0.456,-0.356C0.443,-0.337 0.428,-0.316 0.411,-0.293C0.398,-0.276 0.383,-0.258 0.368,-0.241C0.352,-0.223 0.336,-0.206 0.321,-0.19C0.306,-0.174 0.291,-0.159 0.276,-0.145C0.261,-0.131 0.247,-0.119 0.235,-0.11L0.523,-0.11L0.523,-0Z" style="fill-rule:nonzero;"/>
                </g>
            </g>
            <g transform="matrix(1.01109,1.12253e-16,-1.11022e-16,1,234.732,224.642)">
                <g transform="matrix(48,0,0,48,3211.31,4261.21)">
                    <path d="M0.038,-0.351C0.038,-0.412 0.044,-0.465 0.057,-0.511C0.07,-0.556 0.088,-0.594 0.111,-0.624C0.133,-0.654 0.161,-0.677 0.193,-0.692C0.225,-0.707 0.261,-0.714 0.3,-0.714C0.384,-0.714 0.449,-0.685 0.494,-0.626C0.539,-0.567 0.562,-0.475 0.562,-0.351C0.562,-0.29 0.556,-0.236 0.543,-0.191C0.53,-0.145 0.513,-0.107 0.49,-0.077C0.466,-0.046 0.439,-0.024 0.407,-0.009C0.374,0.007 0.338,0.014 0.299,0.014C0.214,0.014 0.15,-0.017 0.105,-0.08C0.06,-0.142 0.038,-0.232 0.038,-0.351ZM0.434,-0.351C0.434,-0.362 0.434,-0.372 0.434,-0.382C0.433,-0.391 0.433,-0.401 0.432,-0.41L0.187,-0.187C0.208,-0.126 0.245,-0.096 0.3,-0.096C0.343,-0.096 0.376,-0.116 0.399,-0.157C0.422,-0.198 0.434,-0.262 0.434,-0.351ZM0.166,-0.351C0.166,-0.341 0.166,-0.332 0.167,-0.323C0.167,-0.314 0.167,-0.304 0.168,-0.295L0.412,-0.518C0.392,-0.575 0.354,-0.604 0.299,-0.604C0.256,-0.604 0.224,-0.584 0.201,-0.543C0.178,-0.501 0.166,-0.438 0.166,-0.351Z" style="fill-rule:nonzero;"/>
                </g>
            </g>
            <g transform="matrix(1.01109,1.12253e-16,-1.11022e-16,1,179.954,279.084)">
                <g transform="matrix(48,0,0,48,3211.31,4261.21)">
                    <path d="M0.248,-0.096C0.27,-0.096 0.29,-0.099 0.309,-0.105C0.327,-0.11 0.343,-0.118 0.356,-0.129C0.369,-0.139 0.379,-0.151 0.386,-0.165C0.393,-0.178 0.397,-0.193 0.397,-0.209C0.397,-0.229 0.393,-0.246 0.385,-0.26C0.376,-0.273 0.365,-0.284 0.35,-0.292C0.335,-0.3 0.318,-0.306 0.297,-0.309C0.276,-0.312 0.254,-0.314 0.23,-0.314L0.174,-0.314L0.174,-0.385L0.342,-0.59L0.089,-0.59L0.089,-0.7L0.497,-0.7L0.497,-0.609L0.321,-0.408L0.344,-0.408C0.367,-0.408 0.39,-0.404 0.412,-0.396C0.434,-0.388 0.454,-0.376 0.471,-0.36C0.488,-0.344 0.501,-0.324 0.512,-0.3C0.522,-0.276 0.527,-0.248 0.527,-0.217C0.527,-0.179 0.519,-0.146 0.504,-0.117C0.488,-0.088 0.467,-0.064 0.442,-0.045C0.416,-0.025 0.386,-0.01 0.353,-0.001C0.32,0.009 0.285,0.014 0.25,0.014C0.22,0.014 0.19,0.011 0.16,0.006C0.13,0.001 0.101,-0.008 0.073,-0.019L0.108,-0.127C0.114,-0.124 0.122,-0.12 0.133,-0.117C0.143,-0.114 0.155,-0.11 0.168,-0.107C0.181,-0.104 0.194,-0.101 0.208,-0.099C0.221,-0.097 0.235,-0.096 0.248,-0.096Z" style="fill-rule:nonzero;"/>
                </g>
            </g>
            <g transform="matrix(1.01109,1.12253e-16,-1.11022e-16,1,126.303,333.291)">
                <g transform="matrix(48,0,0,48,3211.31,4261.21)">
                    <path d="M0.577,-0.195L0.457,-0.195L0.457,-0L0.336,-0L0.336,-0.195L0.033,-0.195L0.033,-0.284L0.35,-0.705L0.457,-0.705L0.457,-0.299L0.577,-0.299L0.577,-0.195ZM0.336,-0.521L0.162,-0.299L0.336,-0.299L0.336,-0.521Z" style="fill-rule:nonzero;"/>
                </g>
            </g>
            <g transform="matrix(1.01109,1.12253e-16,-1.11022e-16,1,71.8873,387.486)">
                <g transform="matrix(48,0,0,48,3211.31,4261.21)">
                    <path d="M0.106,-0.11L0.259,-0.11L0.259,-0.547L0.127,-0.446L0.067,-0.526L0.295,-0.7L0.383,-0.7L0.383,-0.11L0.533,-0.11L0.533,-0L0.106,-0L0.106,-0.11Z" style="fill-rule:nonzero;"/>
                </g>
            </g>
            <g transform="matrix(1.01109,1.12253e-16,-1.11022e-16,1,179.633,386.428)">
                <g transform="matrix(48,0,0,48,3211.31,4261.21)">
                    <path d="M0.546,-0.217C0.546,-0.184 0.54,-0.154 0.528,-0.126C0.515,-0.098 0.498,-0.074 0.477,-0.053C0.456,-0.032 0.43,-0.016 0.401,-0.004C0.371,0.008 0.339,0.014 0.305,0.014C0.27,0.014 0.238,0.009 0.208,-0.003C0.177,-0.014 0.151,-0.03 0.128,-0.052C0.105,-0.074 0.087,-0.102 0.074,-0.135C0.061,-0.168 0.054,-0.207 0.054,-0.251C0.054,-0.317 0.066,-0.377 0.089,-0.431C0.112,-0.485 0.141,-0.532 0.177,-0.572C0.213,-0.611 0.253,-0.643 0.298,-0.668C0.343,-0.692 0.387,-0.707 0.431,-0.714L0.46,-0.611C0.425,-0.604 0.392,-0.594 0.361,-0.579C0.33,-0.564 0.303,-0.545 0.279,-0.524C0.255,-0.503 0.235,-0.479 0.219,-0.453C0.202,-0.427 0.191,-0.4 0.185,-0.372C0.198,-0.389 0.218,-0.403 0.245,-0.415C0.272,-0.426 0.301,-0.432 0.333,-0.432C0.363,-0.432 0.391,-0.427 0.417,-0.418C0.443,-0.408 0.466,-0.394 0.485,-0.376C0.503,-0.357 0.519,-0.335 0.53,-0.308C0.541,-0.281 0.546,-0.251 0.546,-0.217ZM0.42,-0.212C0.42,-0.248 0.409,-0.275 0.388,-0.294C0.366,-0.313 0.337,-0.322 0.3,-0.322C0.273,-0.322 0.249,-0.316 0.228,-0.304C0.207,-0.292 0.191,-0.278 0.181,-0.262C0.18,-0.255 0.179,-0.247 0.179,-0.238C0.178,-0.229 0.178,-0.221 0.178,-0.216C0.178,-0.2 0.181,-0.185 0.186,-0.17C0.191,-0.155 0.199,-0.142 0.21,-0.132C0.22,-0.121 0.232,-0.112 0.247,-0.106C0.262,-0.099 0.279,-0.096 0.298,-0.096C0.313,-0.096 0.328,-0.099 0.343,-0.105C0.358,-0.11 0.371,-0.118 0.382,-0.128C0.393,-0.138 0.403,-0.15 0.41,-0.165C0.417,-0.179 0.42,-0.195 0.42,-0.212Z" style="fill-rule:nonzero;"/>
                </g>
            </g>
            <g transform="matrix(1.01109,1.12253e-16,-1.11022e-16,1,125.231,440.83)">
                <g transform="matrix(48,0,0,48,3211.31,4261.21)">
                    <path d="M0.054,-0.481C0.054,-0.515 0.06,-0.546 0.072,-0.575C0.083,-0.604 0.099,-0.628 0.121,-0.649C0.141,-0.669 0.167,-0.685 0.197,-0.697C0.226,-0.708 0.259,-0.714 0.296,-0.714C0.333,-0.714 0.367,-0.708 0.398,-0.697C0.429,-0.686 0.455,-0.669 0.477,-0.647C0.499,-0.624 0.516,-0.596 0.528,-0.564C0.54,-0.531 0.546,-0.493 0.546,-0.45C0.546,-0.373 0.536,-0.306 0.516,-0.25C0.496,-0.194 0.469,-0.147 0.436,-0.11C0.402,-0.073 0.363,-0.044 0.318,-0.024C0.273,-0.004 0.227,0.009 0.178,0.014L0.15,-0.088C0.187,-0.093 0.22,-0.102 0.25,-0.115C0.279,-0.128 0.305,-0.145 0.327,-0.165C0.349,-0.184 0.367,-0.207 0.381,-0.232C0.395,-0.257 0.404,-0.283 0.408,-0.312C0.394,-0.298 0.376,-0.287 0.354,-0.279C0.332,-0.27 0.306,-0.266 0.275,-0.266L0.273,-0.266C0.248,-0.266 0.222,-0.27 0.196,-0.279C0.17,-0.288 0.147,-0.301 0.126,-0.319C0.105,-0.337 0.087,-0.36 0.074,-0.387C0.061,-0.413 0.054,-0.445 0.054,-0.481ZM0.18,-0.488C0.18,-0.469 0.184,-0.453 0.191,-0.439C0.198,-0.424 0.207,-0.412 0.218,-0.403C0.229,-0.393 0.243,-0.386 0.258,-0.381C0.273,-0.376 0.288,-0.373 0.304,-0.373C0.331,-0.373 0.355,-0.377 0.375,-0.386C0.395,-0.395 0.41,-0.405 0.419,-0.418C0.421,-0.432 0.422,-0.445 0.422,-0.458C0.422,-0.477 0.419,-0.495 0.414,-0.513C0.409,-0.531 0.401,-0.547 0.39,-0.561C0.379,-0.575 0.366,-0.586 0.35,-0.595C0.334,-0.603 0.316,-0.607 0.295,-0.607C0.262,-0.607 0.235,-0.596 0.213,-0.576C0.191,-0.555 0.18,-0.525 0.18,-0.488Z" style="fill-rule:nonzero;"/>
                </g>
            </g>
            <g transform="matrix(1.01109,1.12253e-16,-1.11022e-16,1,342.683,224.863)">
                <g transform="matrix(48,0,0,48,3211.31,4261.21)">
                    <path d="M0.102,-0L0.39,-0.582L0.064,-0.582L0.064,-0.7L0.52,-0.7L0.52,-0.602L0.229,-0L0.102,-0Z" style="fill-rule:nonzero;"/>
                </g>
            </g>
            <g transform="matrix(1.01109,1.12253e-16,-1.11022e-16,1,288.746,278.504)">
                <g transform="matrix(48,0,0,48,3211.31,4261.21)">
                    <path d="M0.237,-0.101C0.259,-0.101 0.279,-0.104 0.298,-0.109C0.317,-0.114 0.333,-0.122 0.347,-0.132C0.36,-0.142 0.371,-0.154 0.379,-0.169C0.386,-0.184 0.39,-0.2 0.39,-0.219C0.39,-0.256 0.376,-0.285 0.347,-0.306C0.318,-0.327 0.274,-0.337 0.216,-0.337C0.209,-0.337 0.2,-0.337 0.191,-0.337C0.181,-0.336 0.172,-0.336 0.163,-0.335C0.153,-0.334 0.143,-0.334 0.132,-0.334L0.132,-0.7L0.494,-0.7L0.494,-0.58L0.244,-0.58L0.244,-0.443C0.249,-0.443 0.255,-0.443 0.26,-0.444L0.285,-0.445C0.318,-0.445 0.349,-0.44 0.378,-0.431C0.407,-0.421 0.432,-0.406 0.453,-0.387C0.474,-0.368 0.491,-0.344 0.503,-0.317C0.514,-0.289 0.52,-0.258 0.52,-0.225C0.52,-0.186 0.513,-0.151 0.498,-0.122C0.483,-0.092 0.463,-0.067 0.438,-0.047C0.413,-0.027 0.383,-0.012 0.35,-0.002C0.317,0.009 0.281,0.014 0.243,0.014C0.228,0.014 0.213,0.012 0.196,0.01C0.179,0.007 0.163,0.003 0.147,-0.002C0.131,-0.006 0.116,-0.011 0.103,-0.016C0.089,-0.021 0.077,-0.026 0.068,-0.031L0.11,-0.135C0.121,-0.128 0.139,-0.121 0.163,-0.113C0.186,-0.105 0.211,-0.101 0.237,-0.101Z" style="fill-rule:nonzero;"/>
                </g>
            </g>
            <g transform="matrix(1.01109,1.12253e-16,-1.11022e-16,1,234.372,333.555)">
                <g transform="matrix(48,0,0,48,3211.31,4261.21)">
                    <path d="M0.577,-0.195L0.457,-0.195L0.457,-0L0.336,-0L0.336,-0.195L0.033,-0.195L0.033,-0.284L0.35,-0.705L0.457,-0.705L0.457,-0.299L0.577,-0.299L0.577,-0.195ZM0.336,-0.521L0.162,-0.299L0.336,-0.299L0.336,-0.521Z" style="fill-rule:nonzero;"/>
                </g>
            </g>
            <g transform="matrix(1.01109,1.12253e-16,-1.11022e-16,1,411.326,278.765)">
                <g transform="matrix(48,0,0,48,3182.2,4261.21)">
                    <path d="M0.106,-0.11L0.259,-0.11L0.259,-0.547L0.127,-0.446L0.067,-0.526L0.295,-0.7L0.383,-0.7L0.383,-0.11L0.533,-0.11L0.533,-0L0.106,-0L0.106,-0.11Z" style="fill-rule:nonzero;"/>
                </g>
                <g transform="matrix(48,0,0,48,3211,4261.21)">
                    <path d="M0.038,-0.351C0.038,-0.412 0.044,-0.465 0.057,-0.511C0.07,-0.556 0.088,-0.594 0.111,-0.624C0.133,-0.654 0.161,-0.677 0.193,-0.692C0.225,-0.707 0.261,-0.714 0.3,-0.714C0.384,-0.714 0.449,-0.685 0.494,-0.626C0.539,-0.567 0.562,-0.475 0.562,-0.351C0.562,-0.29 0.556,-0.236 0.543,-0.191C0.53,-0.145 0.513,-0.107 0.49,-0.077C0.466,-0.046 0.439,-0.024 0.407,-0.009C0.374,0.007 0.338,0.014 0.299,0.014C0.214,0.014 0.15,-0.017 0.105,-0.08C0.06,-0.142 0.038,-0.232 0.038,-0.351ZM0.434,-0.351C0.434,-0.362 0.434,-0.372 0.434,-0.382C0.433,-0.391 0.433,-0.401 0.432,-0.41L0.187,-0.187C0.208,-0.126 0.245,-0.096 0.3,-0.096C0.343,-0.096 0.376,-0.116 0.399,-0.157C0.422,-0.198 0.434,-0.262 0.434,-0.351ZM0.166,-0.351C0.166,-0.341 0.166,-0.332 0.167,-0.323C0.167,-0.314 0.167,-0.304 0.168,-0.295L0.412,-0.518C0.392,-0.575 0.354,-0.604 0.299,-0.604C0.256,-0.604 0.224,-0.584 0.201,-0.543C0.178,-0.501 0.166,-0.438 0.166,-0.351Z" style="fill-rule:nonzero;"/>
                </g>
            </g>
            <g transform="matrix(1.01109,1.12253e-16,-1.11022e-16,1,343.476,332.436)">
                <g transform="matrix(48,0,0,48,3211.31,4261.21)">
                    <path d="M0.06,-0.171C0.06,-0.194 0.064,-0.216 0.072,-0.235C0.079,-0.254 0.089,-0.272 0.102,-0.287C0.114,-0.302 0.128,-0.316 0.144,-0.329C0.16,-0.341 0.176,-0.352 0.193,-0.361C0.16,-0.38 0.132,-0.403 0.11,-0.43C0.088,-0.456 0.077,-0.489 0.077,-0.529C0.077,-0.555 0.083,-0.579 0.094,-0.602C0.105,-0.625 0.121,-0.644 0.142,-0.661C0.162,-0.678 0.186,-0.691 0.214,-0.7C0.242,-0.709 0.272,-0.714 0.305,-0.714C0.335,-0.714 0.363,-0.71 0.39,-0.702C0.416,-0.694 0.439,-0.683 0.459,-0.668C0.479,-0.653 0.495,-0.636 0.506,-0.615C0.517,-0.594 0.523,-0.57 0.523,-0.545C0.523,-0.506 0.513,-0.471 0.493,-0.442C0.472,-0.413 0.444,-0.387 0.409,-0.366C0.449,-0.345 0.481,-0.321 0.505,-0.293C0.528,-0.265 0.54,-0.229 0.54,-0.185C0.54,-0.155 0.534,-0.128 0.521,-0.104C0.507,-0.079 0.49,-0.058 0.468,-0.041C0.446,-0.024 0.42,-0.01 0.391,-0.001C0.361,0.009 0.329,0.014 0.296,0.014C0.263,0.014 0.232,0.01 0.203,0.001C0.174,-0.009 0.149,-0.021 0.128,-0.037C0.107,-0.053 0.09,-0.072 0.078,-0.095C0.066,-0.118 0.06,-0.143 0.06,-0.171ZM0.416,-0.188C0.416,-0.205 0.412,-0.219 0.403,-0.231C0.394,-0.243 0.384,-0.254 0.371,-0.263C0.358,-0.272 0.343,-0.281 0.328,-0.289C0.312,-0.296 0.297,-0.304 0.282,-0.312C0.249,-0.297 0.223,-0.278 0.205,-0.256C0.187,-0.233 0.178,-0.211 0.178,-0.19C0.178,-0.16 0.189,-0.137 0.21,-0.121C0.231,-0.104 0.261,-0.096 0.299,-0.096C0.333,-0.096 0.361,-0.104 0.383,-0.12C0.405,-0.135 0.416,-0.158 0.416,-0.188ZM0.201,-0.523C0.201,-0.507 0.205,-0.494 0.212,-0.483C0.219,-0.472 0.228,-0.462 0.239,-0.454C0.25,-0.445 0.262,-0.438 0.276,-0.431C0.29,-0.424 0.304,-0.418 0.318,-0.411C0.329,-0.416 0.339,-0.423 0.35,-0.431C0.36,-0.439 0.369,-0.448 0.377,-0.458C0.385,-0.467 0.392,-0.477 0.397,-0.488C0.402,-0.498 0.404,-0.508 0.404,-0.519C0.404,-0.533 0.401,-0.545 0.395,-0.556C0.389,-0.566 0.381,-0.575 0.372,-0.582C0.362,-0.589 0.351,-0.595 0.339,-0.599C0.327,-0.602 0.315,-0.604 0.302,-0.604C0.287,-0.604 0.274,-0.602 0.262,-0.597C0.249,-0.592 0.239,-0.586 0.23,-0.579C0.221,-0.572 0.214,-0.563 0.209,-0.553C0.204,-0.543 0.201,-0.533 0.201,-0.523Z" style="fill-rule:nonzero;"/>
                </g>
            </g>
            <g transform="matrix(1.01109,1.12253e-16,-1.11022e-16,1,288.936,386.976)">
                <g transform="matrix(48,0,0,48,3211.31,4261.21)">
                    <path d="M0.054,-0.481C0.054,-0.515 0.06,-0.546 0.072,-0.575C0.083,-0.604 0.099,-0.628 0.121,-0.649C0.141,-0.669 0.167,-0.685 0.197,-0.697C0.226,-0.708 0.259,-0.714 0.296,-0.714C0.333,-0.714 0.367,-0.708 0.398,-0.697C0.429,-0.686 0.455,-0.669 0.477,-0.647C0.499,-0.624 0.516,-0.596 0.528,-0.564C0.54,-0.531 0.546,-0.493 0.546,-0.45C0.546,-0.373 0.536,-0.306 0.516,-0.25C0.496,-0.194 0.469,-0.147 0.436,-0.11C0.402,-0.073 0.363,-0.044 0.318,-0.024C0.273,-0.004 0.227,0.009 0.178,0.014L0.15,-0.088C0.187,-0.093 0.22,-0.102 0.25,-0.115C0.279,-0.128 0.305,-0.145 0.327,-0.165C0.349,-0.184 0.367,-0.207 0.381,-0.232C0.395,-0.257 0.404,-0.283 0.408,-0.312C0.394,-0.298 0.376,-0.287 0.354,-0.279C0.332,-0.27 0.306,-0.266 0.275,-0.266L0.273,-0.266C0.248,-0.266 0.222,-0.27 0.196,-0.279C0.17,-0.288 0.147,-0.301 0.126,-0.319C0.105,-0.337 0.087,-0.36 0.074,-0.387C0.061,-0.413 0.054,-0.445 0.054,-0.481ZM0.18,-0.488C0.18,-0.469 0.184,-0.453 0.191,-0.439C0.198,-0.424 0.207,-0.412 0.218,-0.403C0.229,-0.393 0.243,-0.386 0.258,-0.381C0.273,-0.376 0.288,-0.373 0.304,-0.373C0.331,-0.373 0.355,-0.377 0.375,-0.386C0.395,-0.395 0.41,-0.405 0.419,-0.418C0.421,-0.432 0.422,-0.445 0.422,-0.458C0.422,-0.477 0.419,-0.495 0.414,-0.513C0.409,-0.531 0.401,-0.547 0.39,-0.561C0.379,-0.575 0.366,-0.586 0.35,-0.595C0.334,-0.603 0.316,-0.607 0.295,-0.607C0.262,-0.607 0.235,-0.596 0.213,-0.576C0.191,-0.555 0.18,-0.525 0.18,-0.488Z" style="fill-rule:nonzero;"/>
                </g>
            </g>
            <g transform="matrix(1.01109,1.12253e-16,-1.11022e-16,1,247.399,438.361)">
                <g transform="matrix(48,0,0,48,3182.2,4261.21)">
                    <path d="M0.106,-0.11L0.259,-0.11L0.259,-0.547L0.127,-0.446L0.067,-0.526L0.295,-0.7L0.383,-0.7L0.383,-0.11L0.533,-0.11L0.533,-0L0.106,-0L0.106,-0.11Z" style="fill-rule:nonzero;"/>
                </g>
                <g transform="matrix(48,0,0,48,3211,4261.21)">
                    <path d="M0.106,-0.11L0.259,-0.11L0.259,-0.547L0.127,-0.446L0.067,-0.526L0.295,-0.7L0.383,-0.7L0.383,-0.11L0.533,-0.11L0.533,-0L0.106,-0L0.106,-0.11Z" style="fill-rule:nonzero;"/>
                </g>
            </g>
            <g transform="matrix(1.01109,1.12253e-16,-1.11022e-16,1,192.852,492.442)">
                <g transform="matrix(48,0,0,48,3182.2,4261.21)">
                    <path d="M0.106,-0.11L0.259,-0.11L0.259,-0.547L0.127,-0.446L0.067,-0.526L0.295,-0.7L0.383,-0.7L0.383,-0.11L0.533,-0.11L0.533,-0L0.106,-0L0.106,-0.11Z" style="fill-rule:nonzero;"/>
                </g>
                <g transform="matrix(48,0,0,48,3211,4261.21)">
                    <path d="M0.237,-0.101C0.259,-0.101 0.279,-0.104 0.298,-0.109C0.317,-0.114 0.333,-0.122 0.347,-0.132C0.36,-0.142 0.371,-0.154 0.379,-0.169C0.386,-0.184 0.39,-0.2 0.39,-0.219C0.39,-0.256 0.376,-0.285 0.347,-0.306C0.318,-0.327 0.274,-0.337 0.216,-0.337C0.209,-0.337 0.2,-0.337 0.191,-0.337C0.181,-0.336 0.172,-0.336 0.163,-0.335C0.153,-0.334 0.143,-0.334 0.132,-0.334L0.132,-0.7L0.494,-0.7L0.494,-0.58L0.244,-0.58L0.244,-0.443C0.249,-0.443 0.255,-0.443 0.26,-0.444L0.285,-0.445C0.318,-0.445 0.349,-0.44 0.378,-0.431C0.407,-0.421 0.432,-0.406 0.453,-0.387C0.474,-0.368 0.491,-0.344 0.503,-0.317C0.514,-0.289 0.52,-0.258 0.52,-0.225C0.52,-0.186 0.513,-0.151 0.498,-0.122C0.483,-0.092 0.463,-0.067 0.438,-0.047C0.413,-0.027 0.383,-0.012 0.35,-0.002C0.317,0.009 0.281,0.014 0.243,0.014C0.228,0.014 0.213,0.012 0.196,0.01C0.179,0.007 0.163,0.003 0.147,-0.002C0.131,-0.006 0.116,-0.011 0.103,-0.016C0.089,-0.021 0.077,-0.026 0.068,-0.031L0.11,-0.135C0.121,-0.128 0.139,-0.121 0.163,-0.113C0.186,-0.105 0.211,-0.101 0.237,-0.101Z" style="fill-rule:nonzero;"/>
                </g>
            </g>
            <g transform="matrix(0.548772,0.548772,-0.489535,0.489535,3738.85,382.954)">
                <path d="M3307,4254L3307,4228L3700,4228L3700,4252" style="fill:none;stroke:rgb(45,231,231);stroke-width:10.88px;stroke-linecap:butt;stroke-miterlimit:10;"/>
            </g>
            <g transform="matrix(-0.548772,0.548772,-0.489535,-0.489535,7583.55,4818.14)">
                <path d="M3307,4254L3307,4228L3700,4228L3700,4252" style="fill:none;stroke:rgb(250,112,255);stroke-width:10.88px;stroke-linecap:butt;stroke-miterlimit:10;"/>
            </g>
            <g transform="matrix(-0.548772,-0.548772,0.489535,-0.489535,3746.47,8661.76)">
                <path d="M3307,4254L3307,4228L3700,4228L3700,4252" style="fill:none;stroke:rgb(250,112,255);stroke-width:10.88px;stroke-linecap:butt;stroke-miterlimit:10;"/>
            </g>
            <g transform="matrix(0.548772,-0.548772,0.489535,0.489535,-99.6577,4229.9)">
                <path d="M3307,4254L3307,4228L3700,4228L3700,4252" style="fill:none;stroke:rgb(45,231,231);stroke-width:10.88px;stroke-linecap:butt;stroke-miterlimit:10;"/>
            </g>
            <g transform="matrix(1.01109,0,0,1,166.484,130.227)">
                <g transform="matrix(48,0,0,48,3397.74,4179.34)">
                    <path d="M0.468,-0.388L0.476,-0.479L0.471,-0.479L0.424,-0.385L0.163,-0L0.06,-0L0.06,-0.7L0.197,-0.7L0.197,-0.319L0.187,-0.225L0.193,-0.225L0.242,-0.322L0.503,-0.7L0.605,-0.7L0.605,-0L0.468,-0L0.468,-0.388Z" style="fill:rgb(11,93,93);fill-rule:nonzero;"/>
                </g>
                <g transform="matrix(48,0,0,48,3429.71,4179.34)">
                    <path d="M0.109,-0.207L0.109,-0.298L0.17,-0.298C0.193,-0.298 0.213,-0.303 0.228,-0.312C0.243,-0.321 0.25,-0.334 0.25,-0.349C0.25,-0.367 0.243,-0.38 0.23,-0.388C0.217,-0.395 0.196,-0.399 0.169,-0.399C0.143,-0.399 0.12,-0.396 0.1,-0.389C0.08,-0.382 0.064,-0.375 0.052,-0.368L0.024,-0.467C0.044,-0.478 0.071,-0.488 0.104,-0.497C0.136,-0.505 0.172,-0.509 0.209,-0.509C0.266,-0.509 0.309,-0.498 0.338,-0.477C0.366,-0.456 0.38,-0.425 0.38,-0.384C0.38,-0.373 0.379,-0.361 0.376,-0.35C0.373,-0.338 0.368,-0.327 0.361,-0.316C0.354,-0.305 0.346,-0.296 0.337,-0.288C0.327,-0.279 0.315,-0.273 0.302,-0.268L0.302,-0.264C0.337,-0.256 0.362,-0.242 0.377,-0.222C0.392,-0.201 0.399,-0.174 0.399,-0.14C0.399,-0.119 0.395,-0.099 0.386,-0.081C0.377,-0.062 0.364,-0.046 0.347,-0.033C0.329,-0.02 0.307,-0.009 0.28,-0.001C0.253,0.007 0.222,0.011 0.185,0.011C0.148,0.011 0.117,0.007 0.09,-0.001C0.063,-0.008 0.04,-0.017 0.022,-0.027L0.05,-0.128C0.065,-0.119 0.084,-0.112 0.106,-0.107C0.127,-0.102 0.151,-0.099 0.178,-0.099C0.239,-0.099 0.269,-0.118 0.269,-0.157C0.269,-0.174 0.261,-0.187 0.246,-0.195C0.23,-0.203 0.201,-0.207 0.158,-0.207L0.109,-0.207Z" style="fill:rgb(11,93,93);fill-rule:nonzero;"/>
                </g>
                <g transform="matrix(48,0,0,48,3450.45,4179.34)">
                    <path d="M0.485,-0.229L0.493,-0.333L0.488,-0.333L0.448,-0.247L0.354,-0.092L0.307,-0.092L0.204,-0.247L0.166,-0.333L0.16,-0.333L0.173,-0.23L0.173,-0L0.057,-0L0.057,-0.5L0.192,-0.5L0.307,-0.312L0.335,-0.249L0.339,-0.249L0.368,-0.314L0.474,-0.5L0.61,-0.5L0.61,-0L0.485,-0L0.485,-0.229Z" style="fill:rgb(11,93,93);fill-rule:nonzero;"/>
                </g>
                <g transform="matrix(48,0,0,48,3482.41,4179.34)">
                    <path d="M0.457,-0.043C0.437,-0.027 0.41,-0.014 0.376,-0.003C0.341,0.009 0.305,0.014 0.266,0.014C0.185,0.014 0.126,-0.01 0.089,-0.057C0.052,-0.103 0.033,-0.168 0.033,-0.25C0.033,-0.338 0.054,-0.404 0.096,-0.448C0.138,-0.492 0.197,-0.514 0.273,-0.514C0.298,-0.514 0.323,-0.511 0.347,-0.504C0.371,-0.497 0.392,-0.486 0.411,-0.471C0.43,-0.456 0.445,-0.435 0.456,-0.409C0.467,-0.383 0.473,-0.351 0.473,-0.312C0.473,-0.298 0.472,-0.283 0.471,-0.267C0.469,-0.251 0.466,-0.234 0.463,-0.217L0.163,-0.217C0.165,-0.175 0.176,-0.143 0.196,-0.122C0.215,-0.101 0.247,-0.09 0.291,-0.09C0.318,-0.09 0.343,-0.094 0.365,-0.103C0.386,-0.111 0.403,-0.119 0.414,-0.128L0.457,-0.043ZM0.271,-0.41C0.237,-0.41 0.212,-0.4 0.196,-0.38C0.179,-0.359 0.169,-0.332 0.166,-0.298L0.352,-0.298C0.355,-0.334 0.349,-0.362 0.336,-0.381C0.322,-0.4 0.3,-0.41 0.271,-0.41Z" style="fill:rgb(11,93,93);fill-rule:nonzero;"/>
                </g>
                <g transform="matrix(48,0,0,48,3506.8,4179.34)">
                    <path d="M0.057,-0.5L0.152,-0.5L0.167,-0.44L0.171,-0.44C0.188,-0.465 0.209,-0.484 0.233,-0.496C0.256,-0.508 0.285,-0.514 0.319,-0.514C0.382,-0.514 0.429,-0.494 0.46,-0.455C0.491,-0.415 0.507,-0.351 0.507,-0.263C0.507,-0.22 0.502,-0.182 0.492,-0.148C0.482,-0.113 0.467,-0.084 0.448,-0.06C0.428,-0.036 0.404,-0.018 0.376,-0.005C0.347,0.008 0.315,0.014 0.278,0.014C0.257,0.014 0.24,0.012 0.227,0.01C0.214,0.007 0.2,0.002 0.187,-0.005L0.187,0.2L0.057,0.2L0.057,-0.5ZM0.28,-0.404C0.255,-0.404 0.235,-0.398 0.221,-0.385C0.206,-0.372 0.195,-0.353 0.187,-0.328L0.187,-0.12C0.196,-0.113 0.207,-0.107 0.218,-0.103C0.229,-0.098 0.243,-0.096 0.261,-0.096C0.298,-0.096 0.326,-0.109 0.345,-0.136C0.364,-0.162 0.373,-0.205 0.373,-0.266C0.373,-0.31 0.366,-0.344 0.351,-0.368C0.336,-0.392 0.313,-0.404 0.28,-0.404Z" style="fill:rgb(11,93,93);fill-rule:nonzero;"/>
                </g>
                <g transform="matrix(48,0,0,48,3532.72,4179.34)">
                    <path d="M0.457,-0.043C0.437,-0.027 0.41,-0.014 0.376,-0.003C0.341,0.009 0.305,0.014 0.266,0.014C0.185,0.014 0.126,-0.01 0.089,-0.057C0.052,-0.103 0.033,-0.168 0.033,-0.25C0.033,-0.338 0.054,-0.404 0.096,-0.448C0.138,-0.492 0.197,-0.514 0.273,-0.514C0.298,-0.514 0.323,-0.511 0.347,-0.504C0.371,-0.497 0.392,-0.486 0.411,-0.471C0.43,-0.456 0.445,-0.435 0.456,-0.409C0.467,-0.383 0.473,-0.351 0.473,-0.312C0.473,-0.298 0.472,-0.283 0.471,-0.267C0.469,-0.251 0.466,-0.234 0.463,-0.217L0.163,-0.217C0.165,-0.175 0.176,-0.143 0.196,-0.122C0.215,-0.101 0.247,-0.09 0.291,-0.09C0.318,-0.09 0.343,-0.094 0.365,-0.103C0.386,-0.111 0.403,-0.119 0.414,-0.128L0.457,-0.043ZM0.271,-0.41C0.237,-0.41 0.212,-0.4 0.196,-0.38C0.179,-0.359 0.169,-0.332 0.166,-0.298L0.352,-0.298C0.355,-0.334 0.349,-0.362 0.336,-0.381C0.322,-0.4 0.3,-0.41 0.271,-0.41Z" style="fill:rgb(11,93,93);fill-rule:nonzero;"/>
                </g>
                <g transform="matrix(48,0,0,48,3557.1,4179.34)">
                    <path d="M0.35,-0.196L0.187,-0.196L0.187,-0L0.057,-0L0.057,-0.5L0.187,-0.5L0.187,-0.312L0.35,-0.312L0.35,-0.5L0.48,-0.5L0.48,-0L0.35,-0L0.35,-0.196Z" style="fill:rgb(11,93,93);fill-rule:nonzero;"/>
                </g>
                <g transform="matrix(48,0,0,48,3582.88,4179.34)">
                    <path d="M0.358,-0.228L0.363,-0.299L0.36,-0.299L0.317,-0.226L0.139,-0L0.057,-0L0.057,-0.5L0.187,-0.5L0.187,-0.262L0.181,-0.194L0.185,-0.194L0.226,-0.265L0.406,-0.5L0.488,-0.5L0.488,-0L0.358,-0L0.358,-0.228Z" style="fill:rgb(11,93,93);fill-rule:nonzero;"/>
                </g>
                <g transform="matrix(48,0,0,48,3609.04,4179.34)">
                    <path d="M0.457,-0.043C0.437,-0.027 0.41,-0.014 0.376,-0.003C0.341,0.009 0.305,0.014 0.266,0.014C0.185,0.014 0.126,-0.01 0.089,-0.057C0.052,-0.103 0.033,-0.168 0.033,-0.25C0.033,-0.338 0.054,-0.404 0.096,-0.448C0.138,-0.492 0.197,-0.514 0.273,-0.514C0.298,-0.514 0.323,-0.511 0.347,-0.504C0.371,-0.497 0.392,-0.486 0.411,-0.471C0.43,-0.456 0.445,-0.435 0.456,-0.409C0.467,-0.383 0.473,-0.351 0.473,-0.312C0.473,-0.298 0.472,-0.283 0.471,-0.267C0.469,-0.251 0.466,-0.234 0.463,-0.217L0.163,-0.217C0.165,-0.175 0.176,-0.143 0.196,-0.122C0.215,-0.101 0.247,-0.09 0.291,-0.09C0.318,-0.09 0.343,-0.094 0.365,-0.103C0.386,-0.111 0.403,-0.119 0.414,-0.128L0.457,-0.043ZM0.271,-0.41C0.237,-0.41 0.212,-0.4 0.196,-0.38C0.179,-0.359 0.169,-0.332 0.166,-0.298L0.352,-0.298C0.355,-0.334 0.349,-0.362 0.336,-0.381C0.322,-0.4 0.3,-0.41 0.271,-0.41Z" style="fill:rgb(11,93,93);fill-rule:nonzero;"/>
                </g>
                <g transform="matrix(48,0,0,48,3645.57,4179.34)">
                    <path d="M0.101,-0.11L0.24,-0.11L0.24,-0.505L0.255,-0.573L0.207,-0.514L0.118,-0.453L0.063,-0.528L0.291,-0.712L0.364,-0.712L0.364,-0.11L0.5,-0.11L0.5,-0L0.101,-0L0.101,-0.11Z" style="fill:rgb(11,93,93);fill-rule:nonzero;"/>
                </g>
            </g>
            <g transform="matrix(0.714948,0.714948,-0.707107,0.707107,3675.2,-823.315)">
                <g transform="matrix(48,0,0,48,3489.52,4179.34)">
                    <path d="M0.365,-0.043C0.355,-0.034 0.343,-0.027 0.331,-0.02C0.318,-0.013 0.304,-0.008 0.291,-0.003C0.277,0.002 0.263,0.005 0.25,0.008C0.237,0.011 0.224,0.012 0.212,0.012C0.179,0.012 0.153,0.007 0.132,-0.004C0.111,-0.014 0.094,-0.027 0.082,-0.043C0.07,-0.059 0.062,-0.076 0.057,-0.095C0.052,-0.114 0.05,-0.131 0.05,-0.148C0.05,-0.205 0.058,-0.256 0.073,-0.301C0.088,-0.345 0.109,-0.384 0.135,-0.415C0.16,-0.446 0.19,-0.47 0.223,-0.487C0.256,-0.504 0.291,-0.512 0.326,-0.512C0.351,-0.512 0.372,-0.51 0.389,-0.505C0.405,-0.5 0.42,-0.495 0.433,-0.489L0.405,-0.427C0.394,-0.434 0.38,-0.439 0.363,-0.443C0.346,-0.446 0.328,-0.448 0.309,-0.448C0.286,-0.448 0.264,-0.44 0.243,-0.425C0.221,-0.41 0.202,-0.39 0.185,-0.365C0.168,-0.339 0.155,-0.311 0.145,-0.279C0.135,-0.246 0.13,-0.213 0.13,-0.179C0.13,-0.136 0.139,-0.104 0.157,-0.083C0.175,-0.062 0.199,-0.052 0.23,-0.052C0.25,-0.052 0.271,-0.057 0.293,-0.066C0.315,-0.075 0.333,-0.084 0.346,-0.093L0.365,-0.043Z" style="fill-rule:nonzero;"/>
                </g>
                <g transform="matrix(48,0,0,48,3509.68,4179.34)">
                    <path d="M0.305,-0L0.365,-0.283C0.37,-0.306 0.374,-0.327 0.377,-0.345C0.38,-0.363 0.381,-0.379 0.381,-0.392C0.381,-0.41 0.378,-0.424 0.371,-0.434C0.364,-0.443 0.353,-0.448 0.337,-0.448C0.32,-0.448 0.304,-0.444 0.288,-0.435C0.272,-0.426 0.257,-0.416 0.243,-0.403C0.229,-0.39 0.216,-0.376 0.205,-0.361C0.193,-0.346 0.184,-0.333 0.177,-0.321L0.111,-0L0.036,-0L0.142,-0.5L0.195,-0.5L0.189,-0.414L0.193,-0.414C0.204,-0.425 0.215,-0.436 0.228,-0.448C0.24,-0.459 0.254,-0.47 0.269,-0.479C0.284,-0.488 0.3,-0.496 0.318,-0.503C0.335,-0.509 0.355,-0.512 0.376,-0.512C0.406,-0.512 0.426,-0.503 0.437,-0.484C0.447,-0.465 0.452,-0.439 0.452,-0.406C0.462,-0.419 0.474,-0.431 0.487,-0.444C0.5,-0.457 0.515,-0.468 0.531,-0.478C0.546,-0.488 0.563,-0.496 0.58,-0.503C0.597,-0.509 0.615,-0.512 0.632,-0.512C0.663,-0.512 0.686,-0.505 0.703,-0.491C0.719,-0.476 0.727,-0.45 0.727,-0.411C0.727,-0.383 0.722,-0.346 0.712,-0.3L0.649,-0L0.574,-0L0.637,-0.301C0.641,-0.32 0.644,-0.338 0.647,-0.353C0.649,-0.368 0.65,-0.382 0.65,-0.393C0.65,-0.411 0.646,-0.425 0.639,-0.434C0.632,-0.443 0.619,-0.448 0.602,-0.448C0.588,-0.448 0.573,-0.444 0.558,-0.435C0.542,-0.426 0.527,-0.414 0.512,-0.401C0.497,-0.388 0.484,-0.373 0.473,-0.358C0.461,-0.343 0.452,-0.328 0.445,-0.315L0.38,-0L0.305,-0Z" style="fill-rule:nonzero;"/>
                </g>
                <g transform="matrix(48,0,0,48,3546.3,4179.34)">
                    <path d="M0.05,-0.156C0.05,-0.209 0.057,-0.257 0.071,-0.301C0.084,-0.344 0.103,-0.382 0.127,-0.413C0.151,-0.444 0.179,-0.469 0.211,-0.486C0.242,-0.503 0.276,-0.512 0.312,-0.512C0.34,-0.512 0.364,-0.507 0.384,-0.499C0.403,-0.49 0.419,-0.477 0.432,-0.462C0.444,-0.446 0.453,-0.428 0.458,-0.408C0.463,-0.387 0.466,-0.366 0.466,-0.344C0.466,-0.294 0.46,-0.247 0.447,-0.204C0.434,-0.161 0.416,-0.123 0.393,-0.091C0.37,-0.059 0.343,-0.034 0.312,-0.016C0.281,0.003 0.248,0.012 0.212,0.012C0.182,0.012 0.157,0.007 0.137,-0.003C0.116,-0.012 0.099,-0.025 0.087,-0.041C0.074,-0.057 0.064,-0.075 0.059,-0.095C0.053,-0.115 0.05,-0.135 0.05,-0.156ZM0.13,-0.174C0.13,-0.135 0.137,-0.105 0.152,-0.084C0.167,-0.063 0.19,-0.052 0.222,-0.052C0.244,-0.052 0.265,-0.06 0.285,-0.076C0.304,-0.091 0.322,-0.112 0.337,-0.139C0.352,-0.166 0.364,-0.196 0.373,-0.231C0.382,-0.265 0.386,-0.301 0.386,-0.338C0.386,-0.372 0.38,-0.399 0.368,-0.419C0.355,-0.438 0.332,-0.448 0.297,-0.448C0.275,-0.448 0.254,-0.44 0.234,-0.426C0.214,-0.411 0.196,-0.39 0.181,-0.365C0.165,-0.34 0.153,-0.311 0.144,-0.278C0.135,-0.245 0.13,-0.21 0.13,-0.174Z" style="fill-rule:nonzero;"/>
                </g>
                <g transform="matrix(48,0,0,48,3570.2,4179.34)">
                    <path d="M0.388,-0.436L0.254,-0.436C0.237,-0.365 0.22,-0.302 0.205,-0.247C0.19,-0.192 0.173,-0.147 0.156,-0.11C0.138,-0.073 0.118,-0.044 0.097,-0.025C0.076,-0.006 0.05,0.004 0.02,0.004C0.009,0.004 -0.002,0.003 -0.011,0.002C-0.02,0.001 -0.027,-0.002 -0.033,-0.005L-0.01,-0.069C-0.002,-0.067 0.006,-0.066 0.013,-0.066C0.028,-0.066 0.042,-0.071 0.055,-0.082C0.067,-0.093 0.081,-0.114 0.095,-0.145C0.109,-0.176 0.124,-0.22 0.141,-0.277C0.157,-0.334 0.176,-0.408 0.198,-0.5L0.476,-0.5L0.37,-0L0.295,-0L0.388,-0.436Z" style="fill-rule:nonzero;"/>
                </g>
                <g transform="matrix(48,0,0,48,3593.72,4179.34)">
                    <path d="M0.154,-0.382C0.182,-0.423 0.212,-0.453 0.243,-0.471C0.274,-0.489 0.309,-0.498 0.349,-0.498C0.395,-0.498 0.428,-0.485 0.448,-0.459C0.468,-0.433 0.478,-0.397 0.478,-0.35C0.478,-0.295 0.471,-0.245 0.457,-0.2C0.442,-0.155 0.423,-0.117 0.399,-0.086C0.375,-0.055 0.347,-0.031 0.317,-0.014C0.286,0.004 0.253,0.012 0.219,0.012C0.19,0.012 0.165,0.007 0.145,-0.003C0.124,-0.013 0.108,-0.026 0.096,-0.043C0.083,-0.06 0.074,-0.079 0.069,-0.101C0.063,-0.123 0.06,-0.146 0.06,-0.171C0.06,-0.242 0.067,-0.307 0.081,-0.368C0.094,-0.429 0.113,-0.482 0.137,-0.528C0.16,-0.573 0.188,-0.61 0.22,-0.638C0.252,-0.665 0.287,-0.682 0.324,-0.688C0.352,-0.692 0.378,-0.695 0.401,-0.698C0.424,-0.7 0.445,-0.702 0.464,-0.704C0.483,-0.706 0.499,-0.708 0.512,-0.712C0.525,-0.715 0.535,-0.719 0.542,-0.725L0.539,-0.655C0.528,-0.647 0.511,-0.64 0.486,-0.635C0.46,-0.629 0.423,-0.624 0.373,-0.62C0.35,-0.618 0.329,-0.614 0.308,-0.608C0.287,-0.602 0.266,-0.591 0.247,-0.574C0.228,-0.557 0.21,-0.534 0.193,-0.503C0.176,-0.472 0.161,-0.432 0.147,-0.382L0.154,-0.382ZM0.14,-0.182C0.14,-0.165 0.141,-0.148 0.143,-0.133C0.145,-0.118 0.149,-0.104 0.156,-0.093C0.163,-0.082 0.172,-0.073 0.184,-0.067C0.196,-0.06 0.212,-0.057 0.232,-0.057C0.252,-0.057 0.272,-0.064 0.292,-0.077C0.311,-0.09 0.329,-0.108 0.345,-0.132C0.36,-0.156 0.373,-0.185 0.383,-0.219C0.393,-0.253 0.398,-0.291 0.398,-0.333C0.398,-0.346 0.397,-0.358 0.395,-0.369C0.392,-0.38 0.388,-0.391 0.382,-0.4C0.376,-0.409 0.368,-0.416 0.358,-0.421C0.347,-0.426 0.334,-0.429 0.317,-0.429C0.295,-0.429 0.273,-0.423 0.252,-0.41C0.231,-0.397 0.212,-0.379 0.195,-0.356C0.178,-0.333 0.165,-0.307 0.155,-0.278C0.145,-0.248 0.14,-0.216 0.14,-0.182Z" style="fill-rule:nonzero;"/>
                </g>
                <g transform="matrix(48,0,0,48,3617.68,4179.34)">
                    <path d="M0.417,-0L0.414,-0C0.391,-0 0.373,-0.006 0.362,-0.017C0.351,-0.028 0.345,-0.045 0.345,-0.066C0.345,-0.075 0.346,-0.085 0.348,-0.095L0.344,-0.095C0.335,-0.082 0.324,-0.07 0.311,-0.057C0.298,-0.044 0.284,-0.033 0.269,-0.023C0.254,-0.012 0.237,-0.004 0.22,0.003C0.202,0.009 0.183,0.012 0.163,0.012C0.148,0.012 0.135,0.01 0.123,0.007C0.11,0.004 0.099,-0.002 0.09,-0.011C0.081,-0.019 0.073,-0.03 0.068,-0.044C0.063,-0.057 0.06,-0.075 0.06,-0.096C0.06,-0.119 0.063,-0.146 0.07,-0.175L0.138,-0.5L0.213,-0.5L0.143,-0.167C0.139,-0.149 0.137,-0.132 0.137,-0.117C0.137,-0.098 0.141,-0.083 0.148,-0.071C0.155,-0.058 0.169,-0.052 0.188,-0.052C0.204,-0.052 0.22,-0.056 0.237,-0.064C0.253,-0.072 0.269,-0.082 0.284,-0.095C0.299,-0.108 0.312,-0.122 0.325,-0.137C0.337,-0.152 0.347,-0.167 0.355,-0.182L0.422,-0.5L0.497,-0.5C0.484,-0.437 0.472,-0.385 0.463,-0.342C0.454,-0.299 0.446,-0.263 0.44,-0.234C0.434,-0.205 0.429,-0.183 0.426,-0.166C0.422,-0.149 0.419,-0.137 0.418,-0.128C0.416,-0.119 0.415,-0.112 0.415,-0.108C0.414,-0.104 0.414,-0.1 0.414,-0.096C0.414,-0.075 0.423,-0.064 0.441,-0.064L0.496,-0.064L0.444,0.127L0.384,0.127L0.417,-0Z" style="fill-rule:nonzero;"/>
                </g>
                <g transform="matrix(48,0,0,48,3643.12,4179.34)">
                    <path d="M0.139,-0.117C0.138,-0.114 0.138,-0.111 0.138,-0.108C0.137,-0.105 0.137,-0.103 0.137,-0.1C0.137,-0.087 0.14,-0.077 0.148,-0.07C0.155,-0.062 0.166,-0.058 0.182,-0.058C0.202,-0.058 0.221,-0.061 0.239,-0.068C0.256,-0.074 0.272,-0.083 0.285,-0.095C0.298,-0.106 0.309,-0.12 0.317,-0.136C0.324,-0.152 0.328,-0.17 0.328,-0.189C0.328,-0.21 0.322,-0.226 0.311,-0.237C0.3,-0.248 0.277,-0.254 0.244,-0.254C0.217,-0.254 0.19,-0.249 0.165,-0.238L0.139,-0.117ZM0.179,-0.303C0.19,-0.306 0.205,-0.309 0.224,-0.312C0.243,-0.315 0.26,-0.316 0.275,-0.316C0.324,-0.316 0.358,-0.306 0.378,-0.287C0.398,-0.267 0.408,-0.241 0.408,-0.209C0.408,-0.174 0.401,-0.144 0.387,-0.117C0.372,-0.09 0.354,-0.068 0.331,-0.05C0.308,-0.031 0.282,-0.017 0.253,-0.008C0.224,0.001 0.195,0.006 0.166,0.006C0.129,0.006 0.102,-0.002 0.086,-0.017C0.069,-0.032 0.06,-0.053 0.06,-0.079C0.06,-0.092 0.061,-0.103 0.064,-0.114L0.151,-0.5L0.226,-0.5L0.179,-0.303ZM0.55,-0.5L0.625,-0.5L0.519,-0L0.444,-0L0.55,-0.5Z" style="fill-rule:nonzero;"/>
                </g>
            </g>
            <g transform="matrix(0.714948,-0.714948,0.707107,0.707107,-2240.35,3992.14)">
                <g transform="matrix(48,0,0,48,3522.28,4179.34)">
                    <path d="M0.365,-0.043C0.355,-0.034 0.343,-0.027 0.331,-0.02C0.318,-0.013 0.304,-0.008 0.291,-0.003C0.277,0.002 0.263,0.005 0.25,0.008C0.237,0.011 0.224,0.012 0.212,0.012C0.179,0.012 0.153,0.007 0.132,-0.004C0.111,-0.014 0.094,-0.027 0.082,-0.043C0.07,-0.059 0.062,-0.076 0.057,-0.095C0.052,-0.114 0.05,-0.131 0.05,-0.148C0.05,-0.205 0.058,-0.256 0.073,-0.301C0.088,-0.345 0.109,-0.384 0.135,-0.415C0.16,-0.446 0.19,-0.47 0.223,-0.487C0.256,-0.504 0.291,-0.512 0.326,-0.512C0.351,-0.512 0.372,-0.51 0.389,-0.505C0.405,-0.5 0.42,-0.495 0.433,-0.489L0.405,-0.427C0.394,-0.434 0.38,-0.439 0.363,-0.443C0.346,-0.446 0.328,-0.448 0.309,-0.448C0.286,-0.448 0.264,-0.44 0.243,-0.425C0.221,-0.41 0.202,-0.39 0.185,-0.365C0.168,-0.339 0.155,-0.311 0.145,-0.279C0.135,-0.246 0.13,-0.213 0.13,-0.179C0.13,-0.136 0.139,-0.104 0.157,-0.083C0.175,-0.062 0.199,-0.052 0.23,-0.052C0.25,-0.052 0.271,-0.057 0.293,-0.066C0.315,-0.075 0.333,-0.084 0.346,-0.093L0.365,-0.043Z" style="fill-rule:nonzero;"/>
                </g>
                <g transform="matrix(48,0,0,48,3542.44,4179.34)">
                    <path d="M0.305,-0L0.365,-0.283C0.37,-0.306 0.374,-0.327 0.377,-0.345C0.38,-0.363 0.381,-0.379 0.381,-0.392C0.381,-0.41 0.378,-0.424 0.371,-0.434C0.364,-0.443 0.353,-0.448 0.337,-0.448C0.32,-0.448 0.304,-0.444 0.288,-0.435C0.272,-0.426 0.257,-0.416 0.243,-0.403C0.229,-0.39 0.216,-0.376 0.205,-0.361C0.193,-0.346 0.184,-0.333 0.177,-0.321L0.111,-0L0.036,-0L0.142,-0.5L0.195,-0.5L0.189,-0.414L0.193,-0.414C0.204,-0.425 0.215,-0.436 0.228,-0.448C0.24,-0.459 0.254,-0.47 0.269,-0.479C0.284,-0.488 0.3,-0.496 0.318,-0.503C0.335,-0.509 0.355,-0.512 0.376,-0.512C0.406,-0.512 0.426,-0.503 0.437,-0.484C0.447,-0.465 0.452,-0.439 0.452,-0.406C0.462,-0.419 0.474,-0.431 0.487,-0.444C0.5,-0.457 0.515,-0.468 0.531,-0.478C0.546,-0.488 0.563,-0.496 0.58,-0.503C0.597,-0.509 0.615,-0.512 0.632,-0.512C0.663,-0.512 0.686,-0.505 0.703,-0.491C0.719,-0.476 0.727,-0.45 0.727,-0.411C0.727,-0.383 0.722,-0.346 0.712,-0.3L0.649,-0L0.574,-0L0.637,-0.301C0.641,-0.32 0.644,-0.338 0.647,-0.353C0.649,-0.368 0.65,-0.382 0.65,-0.393C0.65,-0.411 0.646,-0.425 0.639,-0.434C0.632,-0.443 0.619,-0.448 0.602,-0.448C0.588,-0.448 0.573,-0.444 0.558,-0.435C0.542,-0.426 0.527,-0.414 0.512,-0.401C0.497,-0.388 0.484,-0.373 0.473,-0.358C0.461,-0.343 0.452,-0.328 0.445,-0.315L0.38,-0L0.305,-0Z" style="fill-rule:nonzero;"/>
                </g>
                <g transform="matrix(48,0,0,48,3579.06,4179.34)">
                    <path d="M0.144,-0.5L0.196,-0.5L0.191,-0.414L0.195,-0.414C0.204,-0.426 0.215,-0.438 0.227,-0.45C0.238,-0.461 0.251,-0.472 0.265,-0.481C0.279,-0.49 0.294,-0.498 0.311,-0.504C0.328,-0.509 0.346,-0.512 0.365,-0.512C0.381,-0.512 0.396,-0.51 0.41,-0.505C0.424,-0.5 0.436,-0.491 0.447,-0.48C0.458,-0.468 0.466,-0.452 0.473,-0.433C0.479,-0.414 0.482,-0.39 0.482,-0.362C0.482,-0.303 0.474,-0.251 0.458,-0.205C0.442,-0.158 0.421,-0.119 0.395,-0.087C0.369,-0.055 0.34,-0.031 0.308,-0.014C0.275,0.004 0.243,0.012 0.211,0.012C0.188,0.012 0.167,0.01 0.15,0.006C0.132,0.001 0.12,-0.003 0.114,-0.008L0.07,0.2L-0.005,0.2L0.144,-0.5ZM0.337,-0.448C0.319,-0.448 0.302,-0.443 0.286,-0.434C0.269,-0.425 0.254,-0.413 0.241,-0.4C0.227,-0.386 0.215,-0.371 0.204,-0.356C0.193,-0.34 0.185,-0.325 0.178,-0.312L0.129,-0.075C0.14,-0.066 0.152,-0.06 0.164,-0.057C0.176,-0.054 0.189,-0.052 0.203,-0.052C0.229,-0.052 0.254,-0.059 0.278,-0.074C0.301,-0.088 0.322,-0.108 0.341,-0.135C0.36,-0.162 0.375,-0.194 0.386,-0.231C0.397,-0.268 0.402,-0.31 0.402,-0.356C0.402,-0.383 0.397,-0.405 0.386,-0.422C0.375,-0.439 0.358,-0.448 0.337,-0.448Z" style="fill-rule:nonzero;"/>
                </g>
                <g transform="matrix(48,0,0,48,3603.44,4179.34)">
                    <path d="M0.05,-0.156C0.05,-0.209 0.057,-0.257 0.071,-0.301C0.084,-0.344 0.103,-0.382 0.127,-0.413C0.151,-0.444 0.179,-0.469 0.211,-0.486C0.242,-0.503 0.276,-0.512 0.312,-0.512C0.34,-0.512 0.364,-0.507 0.384,-0.499C0.403,-0.49 0.419,-0.477 0.432,-0.462C0.444,-0.446 0.453,-0.428 0.458,-0.408C0.463,-0.387 0.466,-0.366 0.466,-0.344C0.466,-0.294 0.46,-0.247 0.447,-0.204C0.434,-0.161 0.416,-0.123 0.393,-0.091C0.37,-0.059 0.343,-0.034 0.312,-0.016C0.281,0.003 0.248,0.012 0.212,0.012C0.182,0.012 0.157,0.007 0.137,-0.003C0.116,-0.012 0.099,-0.025 0.087,-0.041C0.074,-0.057 0.064,-0.075 0.059,-0.095C0.053,-0.115 0.05,-0.135 0.05,-0.156ZM0.13,-0.174C0.13,-0.135 0.137,-0.105 0.152,-0.084C0.167,-0.063 0.19,-0.052 0.222,-0.052C0.244,-0.052 0.265,-0.06 0.285,-0.076C0.304,-0.091 0.322,-0.112 0.337,-0.139C0.352,-0.166 0.364,-0.196 0.373,-0.231C0.382,-0.265 0.386,-0.301 0.386,-0.338C0.386,-0.372 0.38,-0.399 0.368,-0.419C0.355,-0.438 0.332,-0.448 0.297,-0.448C0.275,-0.448 0.254,-0.44 0.234,-0.426C0.214,-0.411 0.196,-0.39 0.181,-0.365C0.165,-0.34 0.153,-0.311 0.144,-0.278C0.135,-0.245 0.13,-0.21 0.13,-0.174Z" style="fill-rule:nonzero;"/>
                </g>
                <g transform="matrix(48,0,0,48,3627.35,4179.34)">
                    <path d="M0.211,-0.225L0.157,-0.225L0.11,-0L0.035,-0L0.141,-0.5L0.216,-0.5L0.168,-0.274L0.209,-0.287L0.395,-0.5L0.485,-0.5L0.302,-0.299L0.256,-0.266L0.296,-0.226L0.408,-0L0.324,-0L0.211,-0.225Z" style="fill-rule:nonzero;"/>
                </g>
                <g transform="matrix(48,0,0,48,3649.62,4179.34)">
                    <path d="M0.213,-0.5L0.143,-0.167C0.139,-0.149 0.137,-0.132 0.137,-0.117C0.137,-0.098 0.141,-0.083 0.148,-0.071C0.155,-0.058 0.169,-0.052 0.188,-0.052C0.204,-0.052 0.22,-0.056 0.237,-0.064C0.253,-0.072 0.269,-0.082 0.284,-0.095C0.299,-0.108 0.312,-0.122 0.325,-0.137C0.337,-0.152 0.347,-0.167 0.355,-0.182L0.422,-0.5L0.497,-0.5L0.434,-0.203C0.431,-0.192 0.429,-0.178 0.426,-0.162C0.423,-0.145 0.421,-0.128 0.419,-0.11C0.416,-0.092 0.414,-0.075 0.413,-0.058C0.412,-0.041 0.411,-0.026 0.411,-0.013L0.411,-0L0.352,-0L0.352,-0.095L0.348,-0.095C0.338,-0.082 0.327,-0.069 0.314,-0.056C0.301,-0.043 0.286,-0.032 0.271,-0.022C0.255,-0.012 0.238,-0.004 0.22,0.003C0.202,0.009 0.183,0.012 0.163,0.012C0.148,0.012 0.135,0.01 0.123,0.007C0.11,0.004 0.099,-0.002 0.09,-0.011C0.081,-0.019 0.073,-0.03 0.068,-0.044C0.063,-0.057 0.06,-0.075 0.06,-0.096C0.06,-0.119 0.063,-0.146 0.07,-0.175L0.138,-0.5L0.213,-0.5Z" style="fill-rule:nonzero;"/>
                </g>
            </g>
            <g transform="matrix(1.01109,0,0,1,-176.377,48.6577)">
                <g transform="matrix(56,0,0,56,3479.24,4179.34)">
                    <path d="M0.674,0.125L0.577,0.125L0.562,-0L0.112,-0L0.097,0.125L0,0.125L0,-0.122L0.074,-0.122C0.079,-0.129 0.086,-0.146 0.097,-0.171C0.108,-0.196 0.118,-0.232 0.129,-0.279C0.14,-0.325 0.149,-0.383 0.156,-0.453C0.163,-0.522 0.167,-0.605 0.166,-0.7L0.585,-0.7L0.585,-0.122L0.674,-0.122L0.674,0.125ZM0.448,-0.122L0.448,-0.578L0.293,-0.578C0.289,-0.459 0.28,-0.362 0.265,-0.287C0.249,-0.211 0.234,-0.156 0.219,-0.122L0.448,-0.122Z" style="fill-rule:nonzero;"/>
                </g>
                <g transform="matrix(56,0,0,56,3517.94,4179.34)">
                    <path d="M0.054,-0.471C0.081,-0.483 0.112,-0.493 0.149,-0.5C0.186,-0.507 0.224,-0.51 0.264,-0.51C0.299,-0.51 0.328,-0.506 0.351,-0.498C0.374,-0.489 0.393,-0.477 0.407,-0.462C0.42,-0.447 0.43,-0.428 0.436,-0.407C0.441,-0.386 0.444,-0.362 0.444,-0.335C0.444,-0.306 0.443,-0.276 0.441,-0.247C0.439,-0.217 0.438,-0.188 0.438,-0.159C0.437,-0.13 0.438,-0.102 0.44,-0.076C0.442,-0.049 0.447,-0.023 0.455,0.001L0.349,0.001L0.328,-0.068L0.323,-0.068C0.31,-0.047 0.291,-0.029 0.268,-0.015C0.244,0 0.213,0.008 0.176,0.008C0.153,0.008 0.132,0.005 0.113,-0.003C0.094,-0.01 0.078,-0.02 0.065,-0.033C0.052,-0.046 0.041,-0.061 0.034,-0.079C0.027,-0.096 0.023,-0.116 0.023,-0.138C0.023,-0.169 0.03,-0.195 0.044,-0.216C0.057,-0.237 0.077,-0.254 0.103,-0.267C0.128,-0.28 0.159,-0.289 0.195,-0.294C0.23,-0.299 0.27,-0.3 0.314,-0.298C0.319,-0.335 0.316,-0.362 0.306,-0.379C0.296,-0.395 0.274,-0.403 0.239,-0.403C0.213,-0.403 0.186,-0.4 0.157,-0.395C0.128,-0.39 0.104,-0.383 0.085,-0.374L0.054,-0.471ZM0.219,-0.099C0.245,-0.099 0.266,-0.105 0.281,-0.117C0.296,-0.128 0.308,-0.141 0.315,-0.154L0.315,-0.219C0.294,-0.221 0.275,-0.221 0.256,-0.22C0.237,-0.219 0.22,-0.216 0.205,-0.211C0.19,-0.206 0.179,-0.2 0.17,-0.191C0.161,-0.182 0.157,-0.171 0.157,-0.158C0.157,-0.139 0.163,-0.125 0.174,-0.115C0.185,-0.104 0.2,-0.099 0.219,-0.099Z" style="fill-rule:nonzero;"/>
                </g>
                <g transform="matrix(56,0,0,56,3545.72,4179.34)">
                    <path d="M0.35,-0.196L0.187,-0.196L0.187,-0L0.057,-0L0.057,-0.5L0.187,-0.5L0.187,-0.312L0.35,-0.312L0.35,-0.5L0.48,-0.5L0.48,-0L0.35,-0L0.35,-0.196Z" style="fill-rule:nonzero;"/>
                </g>
                <g transform="matrix(56,0,0,56,3575.79,4179.34)">
                    <path d="M0.35,-0.196L0.187,-0.196L0.187,-0L0.057,-0L0.057,-0.5L0.187,-0.5L0.187,-0.312L0.35,-0.312L0.35,-0.5L0.48,-0.5L0.48,-0L0.35,-0L0.35,-0.196Z" style="fill-rule:nonzero;"/>
                </g>
                <g transform="matrix(56,0,0,56,3605.86,4179.34)">
                    <path d="M0.187,-0.109C0.207,-0.105 0.226,-0.103 0.244,-0.103C0.274,-0.103 0.295,-0.109 0.307,-0.12C0.319,-0.131 0.325,-0.148 0.325,-0.171C0.325,-0.192 0.319,-0.209 0.307,-0.22C0.295,-0.231 0.275,-0.236 0.247,-0.236C0.225,-0.236 0.205,-0.234 0.187,-0.229L0.187,-0.109ZM0.187,-0.322C0.203,-0.325 0.219,-0.327 0.236,-0.328C0.252,-0.329 0.267,-0.329 0.28,-0.329C0.314,-0.329 0.342,-0.325 0.365,-0.318C0.388,-0.31 0.406,-0.299 0.42,-0.285C0.434,-0.271 0.444,-0.255 0.45,-0.236C0.456,-0.217 0.459,-0.196 0.459,-0.174C0.459,-0.144 0.455,-0.118 0.447,-0.095C0.439,-0.072 0.426,-0.054 0.408,-0.039C0.39,-0.024 0.367,-0.012 0.338,-0.005C0.309,0.003 0.274,0.007 0.232,0.007C0.194,0.007 0.161,0.006 0.134,0.005C0.106,0.004 0.08,0.002 0.057,-0L0.057,-0.5L0.187,-0.5L0.187,-0.322ZM0.516,-0.5L0.646,-0.5L0.646,-0L0.516,-0L0.516,-0.5Z" style="fill-rule:nonzero;"/>
                </g>
                <g transform="matrix(56,0,0,56,3645.23,4179.34)">
                    <path d="M0.457,-0.043C0.437,-0.027 0.41,-0.014 0.376,-0.003C0.341,0.009 0.305,0.014 0.266,0.014C0.185,0.014 0.126,-0.01 0.089,-0.057C0.052,-0.103 0.033,-0.168 0.033,-0.25C0.033,-0.338 0.054,-0.404 0.096,-0.448C0.138,-0.492 0.197,-0.514 0.273,-0.514C0.298,-0.514 0.323,-0.511 0.347,-0.504C0.371,-0.497 0.392,-0.486 0.411,-0.471C0.43,-0.456 0.445,-0.435 0.456,-0.409C0.467,-0.383 0.473,-0.351 0.473,-0.312C0.473,-0.298 0.472,-0.283 0.471,-0.267C0.469,-0.251 0.466,-0.234 0.463,-0.217L0.163,-0.217C0.165,-0.175 0.176,-0.143 0.196,-0.122C0.215,-0.101 0.247,-0.09 0.291,-0.09C0.318,-0.09 0.343,-0.094 0.365,-0.103C0.386,-0.111 0.403,-0.119 0.414,-0.128L0.457,-0.043ZM0.271,-0.41C0.237,-0.41 0.212,-0.4 0.196,-0.38C0.179,-0.359 0.169,-0.332 0.166,-0.298L0.352,-0.298C0.355,-0.334 0.349,-0.362 0.336,-0.381C0.322,-0.4 0.3,-0.41 0.271,-0.41Z" style="fill-rule:nonzero;"/>
                </g>
            </g>
            <g transform="matrix(1.01109,0,0,1,461.952,44.4577)">
                <g transform="matrix(56,0,0,56,3417.41,4179.34)">
                    <path d="M0.467,-0.578L0.197,-0.578L0.197,-0L0.06,-0L0.06,-0.7L0.467,-0.7L0.467,-0.578Z" style="fill-rule:nonzero;"/>
                </g>
                <g transform="matrix(56,0,0,56,3436.4,4179.34)">
                    <path d="M0.457,-0.043C0.437,-0.027 0.41,-0.014 0.376,-0.003C0.341,0.009 0.305,0.014 0.266,0.014C0.185,0.014 0.126,-0.01 0.089,-0.057C0.052,-0.103 0.033,-0.168 0.033,-0.25C0.033,-0.338 0.054,-0.404 0.096,-0.448C0.138,-0.492 0.197,-0.514 0.273,-0.514C0.298,-0.514 0.323,-0.511 0.347,-0.504C0.371,-0.497 0.392,-0.486 0.411,-0.471C0.43,-0.456 0.445,-0.435 0.456,-0.409C0.467,-0.383 0.473,-0.351 0.473,-0.312C0.473,-0.298 0.472,-0.283 0.471,-0.267C0.469,-0.251 0.466,-0.234 0.463,-0.217L0.163,-0.217C0.165,-0.175 0.176,-0.143 0.196,-0.122C0.215,-0.101 0.247,-0.09 0.291,-0.09C0.318,-0.09 0.343,-0.094 0.365,-0.103C0.386,-0.111 0.403,-0.119 0.414,-0.128L0.457,-0.043ZM0.271,-0.41C0.237,-0.41 0.212,-0.4 0.196,-0.38C0.179,-0.359 0.169,-0.332 0.166,-0.298L0.352,-0.298C0.355,-0.334 0.349,-0.362 0.336,-0.381C0.322,-0.4 0.3,-0.41 0.271,-0.41Z" style="fill-rule:nonzero;"/>
                </g>
                <g transform="matrix(56,0,0,56,3464.85,4179.34)">
                    <path d="M0.033,-0.25C0.033,-0.335 0.054,-0.4 0.095,-0.446C0.136,-0.491 0.194,-0.514 0.269,-0.514C0.309,-0.514 0.344,-0.508 0.373,-0.495C0.402,-0.482 0.427,-0.464 0.446,-0.442C0.465,-0.419 0.48,-0.391 0.49,-0.358C0.499,-0.325 0.504,-0.289 0.504,-0.25C0.504,-0.165 0.484,-0.1 0.443,-0.055C0.401,-0.009 0.344,0.014 0.269,0.014C0.229,0.014 0.194,0.008 0.165,-0.005C0.136,-0.018 0.111,-0.036 0.092,-0.059C0.072,-0.082 0.057,-0.109 0.048,-0.142C0.038,-0.175 0.033,-0.211 0.033,-0.25ZM0.167,-0.25C0.167,-0.228 0.169,-0.208 0.173,-0.189C0.177,-0.17 0.183,-0.154 0.191,-0.14C0.199,-0.126 0.21,-0.115 0.223,-0.108C0.236,-0.1 0.251,-0.096 0.269,-0.096C0.303,-0.096 0.328,-0.108 0.345,-0.133C0.362,-0.158 0.37,-0.197 0.37,-0.25C0.37,-0.296 0.362,-0.333 0.347,-0.362C0.332,-0.39 0.306,-0.404 0.269,-0.404C0.237,-0.404 0.212,-0.392 0.194,-0.368C0.176,-0.344 0.167,-0.305 0.167,-0.25Z" style="fill-rule:nonzero;"/>
                </g>
                <g transform="matrix(56,0,0,56,3494.92,4179.34)">
                    <path d="M0.485,-0.229L0.493,-0.333L0.488,-0.333L0.448,-0.247L0.354,-0.092L0.307,-0.092L0.204,-0.247L0.166,-0.333L0.16,-0.333L0.173,-0.23L0.173,-0L0.057,-0L0.057,-0.5L0.192,-0.5L0.307,-0.312L0.335,-0.249L0.339,-0.249L0.368,-0.314L0.474,-0.5L0.61,-0.5L0.61,-0L0.485,-0L0.485,-0.229Z" style="fill-rule:nonzero;"/>
                </g>
                <g transform="matrix(56,0,0,56,3532.21,4179.34)">
                    <path d="M0.457,-0.043C0.437,-0.027 0.41,-0.014 0.376,-0.003C0.341,0.009 0.305,0.014 0.266,0.014C0.185,0.014 0.126,-0.01 0.089,-0.057C0.052,-0.103 0.033,-0.168 0.033,-0.25C0.033,-0.338 0.054,-0.404 0.096,-0.448C0.138,-0.492 0.197,-0.514 0.273,-0.514C0.298,-0.514 0.323,-0.511 0.347,-0.504C0.371,-0.497 0.392,-0.486 0.411,-0.471C0.43,-0.456 0.445,-0.435 0.456,-0.409C0.467,-0.383 0.473,-0.351 0.473,-0.312C0.473,-0.298 0.472,-0.283 0.471,-0.267C0.469,-0.251 0.466,-0.234 0.463,-0.217L0.163,-0.217C0.165,-0.175 0.176,-0.143 0.196,-0.122C0.215,-0.101 0.247,-0.09 0.291,-0.09C0.318,-0.09 0.343,-0.094 0.365,-0.103C0.386,-0.111 0.403,-0.119 0.414,-0.128L0.457,-0.043ZM0.271,-0.41C0.237,-0.41 0.212,-0.4 0.196,-0.38C0.179,-0.359 0.169,-0.332 0.166,-0.298L0.352,-0.298C0.355,-0.334 0.349,-0.362 0.336,-0.381C0.322,-0.4 0.3,-0.41 0.271,-0.41Z" style="fill-rule:nonzero;"/>
                </g>
                <g transform="matrix(56,0,0,56,3560.66,4179.34)">
                    <path d="M0.417,-0.385L0.278,-0.385L0.278,-0L0.144,-0L0.144,-0.385L0.001,-0.385L0.001,-0.5L0.417,-0.5L0.417,-0.385Z" style="fill-rule:nonzero;"/>
                </g>
                <g transform="matrix(56,0,0,56,3584.07,4179.34)">
                    <path d="M0.057,-0.5L0.152,-0.5L0.167,-0.44L0.171,-0.44C0.188,-0.465 0.209,-0.484 0.233,-0.496C0.256,-0.508 0.285,-0.514 0.319,-0.514C0.382,-0.514 0.429,-0.494 0.46,-0.455C0.491,-0.415 0.507,-0.351 0.507,-0.263C0.507,-0.22 0.502,-0.182 0.492,-0.148C0.482,-0.113 0.467,-0.084 0.448,-0.06C0.428,-0.036 0.404,-0.018 0.376,-0.005C0.347,0.008 0.315,0.014 0.278,0.014C0.257,0.014 0.24,0.012 0.227,0.01C0.214,0.007 0.2,0.002 0.187,-0.005L0.187,0.2L0.057,0.2L0.057,-0.5ZM0.28,-0.404C0.255,-0.404 0.235,-0.398 0.221,-0.385C0.206,-0.372 0.195,-0.353 0.187,-0.328L0.187,-0.12C0.196,-0.113 0.207,-0.107 0.218,-0.103C0.229,-0.098 0.243,-0.096 0.261,-0.096C0.298,-0.096 0.326,-0.109 0.345,-0.136C0.364,-0.162 0.373,-0.205 0.373,-0.266C0.373,-0.31 0.366,-0.344 0.351,-0.368C0.336,-0.392 0.313,-0.404 0.28,-0.404Z" style="fill-rule:nonzero;"/>
                </g>
                <g transform="matrix(56,0,0,56,3614.31,4179.34)">
                    <path d="M0.358,-0.228L0.363,-0.299L0.36,-0.299L0.317,-0.226L0.139,-0L0.057,-0L0.057,-0.5L0.187,-0.5L0.187,-0.262L0.181,-0.194L0.185,-0.194L0.226,-0.265L0.406,-0.5L0.488,-0.5L0.488,-0L0.358,-0L0.358,-0.228Z" style="fill-rule:nonzero;"/>
                </g>
                <g transform="matrix(56,0,0,56,3644.83,4179.34)">
                    <path d="M0.321,-0.189L0.261,-0.177L0.165,-0L0.01,-0L0.107,-0.157L0.156,-0.194C0.123,-0.199 0.096,-0.215 0.075,-0.241C0.054,-0.266 0.043,-0.298 0.043,-0.337C0.043,-0.398 0.063,-0.442 0.104,-0.471C0.144,-0.5 0.206,-0.514 0.289,-0.514C0.321,-0.514 0.351,-0.512 0.379,-0.509C0.406,-0.506 0.43,-0.502 0.451,-0.498L0.451,-0L0.321,-0L0.321,-0.189ZM0.321,-0.257L0.321,-0.395C0.314,-0.398 0.306,-0.401 0.297,-0.402C0.288,-0.403 0.28,-0.404 0.272,-0.404C0.242,-0.404 0.219,-0.398 0.202,-0.385C0.185,-0.372 0.177,-0.353 0.177,-0.328C0.177,-0.303 0.186,-0.284 0.205,-0.272C0.223,-0.26 0.25,-0.254 0.285,-0.255L0.321,-0.257Z" style="fill-rule:nonzero;"/>
                </g>
            </g>
            <g transform="matrix(1.01109,0,0,1,166.726,578.844)">
                <g transform="matrix(48,0,0,48,3397.74,4179.34)">
                    <path d="M0.468,-0.388L0.476,-0.479L0.471,-0.479L0.424,-0.385L0.163,-0L0.06,-0L0.06,-0.7L0.197,-0.7L0.197,-0.319L0.187,-0.225L0.193,-0.225L0.242,-0.322L0.503,-0.7L0.605,-0.7L0.605,-0L0.468,-0L0.468,-0.388Z" style="fill:rgb(120,0,126);fill-rule:nonzero;"/>
                </g>
                <g transform="matrix(48,0,0,48,3429.71,4179.34)">
                    <path d="M0.109,-0.207L0.109,-0.298L0.17,-0.298C0.193,-0.298 0.213,-0.303 0.228,-0.312C0.243,-0.321 0.25,-0.334 0.25,-0.349C0.25,-0.367 0.243,-0.38 0.23,-0.388C0.217,-0.395 0.196,-0.399 0.169,-0.399C0.143,-0.399 0.12,-0.396 0.1,-0.389C0.08,-0.382 0.064,-0.375 0.052,-0.368L0.024,-0.467C0.044,-0.478 0.071,-0.488 0.104,-0.497C0.136,-0.505 0.172,-0.509 0.209,-0.509C0.266,-0.509 0.309,-0.498 0.338,-0.477C0.366,-0.456 0.38,-0.425 0.38,-0.384C0.38,-0.373 0.379,-0.361 0.376,-0.35C0.373,-0.338 0.368,-0.327 0.361,-0.316C0.354,-0.305 0.346,-0.296 0.337,-0.288C0.327,-0.279 0.315,-0.273 0.302,-0.268L0.302,-0.264C0.337,-0.256 0.362,-0.242 0.377,-0.222C0.392,-0.201 0.399,-0.174 0.399,-0.14C0.399,-0.119 0.395,-0.099 0.386,-0.081C0.377,-0.062 0.364,-0.046 0.347,-0.033C0.329,-0.02 0.307,-0.009 0.28,-0.001C0.253,0.007 0.222,0.011 0.185,0.011C0.148,0.011 0.117,0.007 0.09,-0.001C0.063,-0.008 0.04,-0.017 0.022,-0.027L0.05,-0.128C0.065,-0.119 0.084,-0.112 0.106,-0.107C0.127,-0.102 0.151,-0.099 0.178,-0.099C0.239,-0.099 0.269,-0.118 0.269,-0.157C0.269,-0.174 0.261,-0.187 0.246,-0.195C0.23,-0.203 0.201,-0.207 0.158,-0.207L0.109,-0.207Z" style="fill:rgb(120,0,126);fill-rule:nonzero;"/>
                </g>
                <g transform="matrix(48,0,0,48,3450.45,4179.34)">
                    <path d="M0.485,-0.229L0.493,-0.333L0.488,-0.333L0.448,-0.247L0.354,-0.092L0.307,-0.092L0.204,-0.247L0.166,-0.333L0.16,-0.333L0.173,-0.23L0.173,-0L0.057,-0L0.057,-0.5L0.192,-0.5L0.307,-0.312L0.335,-0.249L0.339,-0.249L0.368,-0.314L0.474,-0.5L0.61,-0.5L0.61,-0L0.485,-0L0.485,-0.229Z" style="fill:rgb(120,0,126);fill-rule:nonzero;"/>
                </g>
                <g transform="matrix(48,0,0,48,3482.41,4179.34)">
                    <path d="M0.457,-0.043C0.437,-0.027 0.41,-0.014 0.376,-0.003C0.341,0.009 0.305,0.014 0.266,0.014C0.185,0.014 0.126,-0.01 0.089,-0.057C0.052,-0.103 0.033,-0.168 0.033,-0.25C0.033,-0.338 0.054,-0.404 0.096,-0.448C0.138,-0.492 0.197,-0.514 0.273,-0.514C0.298,-0.514 0.323,-0.511 0.347,-0.504C0.371,-0.497 0.392,-0.486 0.411,-0.471C0.43,-0.456 0.445,-0.435 0.456,-0.409C0.467,-0.383 0.473,-0.351 0.473,-0.312C0.473,-0.298 0.472,-0.283 0.471,-0.267C0.469,-0.251 0.466,-0.234 0.463,-0.217L0.163,-0.217C0.165,-0.175 0.176,-0.143 0.196,-0.122C0.215,-0.101 0.247,-0.09 0.291,-0.09C0.318,-0.09 0.343,-0.094 0.365,-0.103C0.386,-0.111 0.403,-0.119 0.414,-0.128L0.457,-0.043ZM0.271,-0.41C0.237,-0.41 0.212,-0.4 0.196,-0.38C0.179,-0.359 0.169,-0.332 0.166,-0.298L0.352,-0.298C0.355,-0.334 0.349,-0.362 0.336,-0.381C0.322,-0.4 0.3,-0.41 0.271,-0.41Z" style="fill:rgb(120,0,126);fill-rule:nonzero;"/>
                </g>
                <g transform="matrix(48,0,0,48,3506.8,4179.34)">
                    <path d="M0.057,-0.5L0.152,-0.5L0.167,-0.44L0.171,-0.44C0.188,-0.465 0.209,-0.484 0.233,-0.496C0.256,-0.508 0.285,-0.514 0.319,-0.514C0.382,-0.514 0.429,-0.494 0.46,-0.455C0.491,-0.415 0.507,-0.351 0.507,-0.263C0.507,-0.22 0.502,-0.182 0.492,-0.148C0.482,-0.113 0.467,-0.084 0.448,-0.06C0.428,-0.036 0.404,-0.018 0.376,-0.005C0.347,0.008 0.315,0.014 0.278,0.014C0.257,0.014 0.24,0.012 0.227,0.01C0.214,0.007 0.2,0.002 0.187,-0.005L0.187,0.2L0.057,0.2L0.057,-0.5ZM0.28,-0.404C0.255,-0.404 0.235,-0.398 0.221,-0.385C0.206,-0.372 0.195,-0.353 0.187,-0.328L0.187,-0.12C0.196,-0.113 0.207,-0.107 0.218,-0.103C0.229,-0.098 0.243,-0.096 0.261,-0.096C0.298,-0.096 0.326,-0.109 0.345,-0.136C0.364,-0.162 0.373,-0.205 0.373,-0.266C0.373,-0.31 0.366,-0.344 0.351,-0.368C0.336,-0.392 0.313,-0.404 0.28,-0.404Z" style="fill:rgb(120,0,126);fill-rule:nonzero;"/>
                </g>
                <g transform="matrix(48,0,0,48,3532.72,4179.34)">
                    <path d="M0.457,-0.043C0.437,-0.027 0.41,-0.014 0.376,-0.003C0.341,0.009 0.305,0.014 0.266,0.014C0.185,0.014 0.126,-0.01 0.089,-0.057C0.052,-0.103 0.033,-0.168 0.033,-0.25C0.033,-0.338 0.054,-0.404 0.096,-0.448C0.138,-0.492 0.197,-0.514 0.273,-0.514C0.298,-0.514 0.323,-0.511 0.347,-0.504C0.371,-0.497 0.392,-0.486 0.411,-0.471C0.43,-0.456 0.445,-0.435 0.456,-0.409C0.467,-0.383 0.473,-0.351 0.473,-0.312C0.473,-0.298 0.472,-0.283 0.471,-0.267C0.469,-0.251 0.466,-0.234 0.463,-0.217L0.163,-0.217C0.165,-0.175 0.176,-0.143 0.196,-0.122C0.215,-0.101 0.247,-0.09 0.291,-0.09C0.318,-0.09 0.343,-0.094 0.365,-0.103C0.386,-0.111 0.403,-0.119 0.414,-0.128L0.457,-0.043ZM0.271,-0.41C0.237,-0.41 0.212,-0.4 0.196,-0.38C0.179,-0.359 0.169,-0.332 0.166,-0.298L0.352,-0.298C0.355,-0.334 0.349,-0.362 0.336,-0.381C0.322,-0.4 0.3,-0.41 0.271,-0.41Z" style="fill:rgb(120,0,126);fill-rule:nonzero;"/>
                </g>
                <g transform="matrix(48,0,0,48,3557.1,4179.34)">
                    <path d="M0.35,-0.196L0.187,-0.196L0.187,-0L0.057,-0L0.057,-0.5L0.187,-0.5L0.187,-0.312L0.35,-0.312L0.35,-0.5L0.48,-0.5L0.48,-0L0.35,-0L0.35,-0.196Z" style="fill:rgb(120,0,126);fill-rule:nonzero;"/>
                </g>
                <g transform="matrix(48,0,0,48,3582.88,4179.34)">
                    <path d="M0.358,-0.228L0.363,-0.299L0.36,-0.299L0.317,-0.226L0.139,-0L0.057,-0L0.057,-0.5L0.187,-0.5L0.187,-0.262L0.181,-0.194L0.185,-0.194L0.226,-0.265L0.406,-0.5L0.488,-0.5L0.488,-0L0.358,-0L0.358,-0.228Z" style="fill:rgb(120,0,126);fill-rule:nonzero;"/>
                </g>
                <g transform="matrix(48,0,0,48,3609.04,4179.34)">
                    <path d="M0.457,-0.043C0.437,-0.027 0.41,-0.014 0.376,-0.003C0.341,0.009 0.305,0.014 0.266,0.014C0.185,0.014 0.126,-0.01 0.089,-0.057C0.052,-0.103 0.033,-0.168 0.033,-0.25C0.033,-0.338 0.054,-0.404 0.096,-0.448C0.138,-0.492 0.197,-0.514 0.273,-0.514C0.298,-0.514 0.323,-0.511 0.347,-0.504C0.371,-0.497 0.392,-0.486 0.411,-0.471C0.43,-0.456 0.445,-0.435 0.456,-0.409C0.467,-0.383 0.473,-0.351 0.473,-0.312C0.473,-0.298 0.472,-0.283 0.471,-0.267C0.469,-0.251 0.466,-0.234 0.463,-0.217L0.163,-0.217C0.165,-0.175 0.176,-0.143 0.196,-0.122C0.215,-0.101 0.247,-0.09 0.291,-0.09C0.318,-0.09 0.343,-0.094 0.365,-0.103C0.386,-0.111 0.403,-0.119 0.414,-0.128L0.457,-0.043ZM0.271,-0.41C0.237,-0.41 0.212,-0.4 0.196,-0.38C0.179,-0.359 0.169,-0.332 0.166,-0.298L0.352,-0.298C0.355,-0.334 0.349,-0.362 0.336,-0.381C0.322,-0.4 0.3,-0.41 0.271,-0.41Z" style="fill:rgb(120,0,126);fill-rule:nonzero;"/>
                </g>
                <g transform="matrix(48,0,0,48,3645.57,4179.34)">
                    <path d="M0.475,-0.529C0.475,-0.495 0.469,-0.461 0.457,-0.426C0.444,-0.391 0.429,-0.357 0.41,-0.324C0.391,-0.291 0.37,-0.259 0.347,-0.228C0.324,-0.197 0.301,-0.168 0.279,-0.142L0.226,-0.101L0.226,-0.096L0.298,-0.11L0.49,-0.11L0.49,-0L0.069,-0L0.069,-0.067C0.085,-0.084 0.103,-0.103 0.123,-0.126C0.143,-0.148 0.163,-0.171 0.184,-0.197C0.204,-0.222 0.224,-0.247 0.243,-0.274C0.262,-0.301 0.28,-0.327 0.295,-0.355C0.31,-0.382 0.323,-0.408 0.332,-0.433C0.341,-0.458 0.345,-0.482 0.345,-0.505C0.345,-0.532 0.337,-0.555 0.322,-0.573C0.306,-0.59 0.281,-0.599 0.247,-0.599C0.226,-0.599 0.204,-0.595 0.182,-0.586C0.159,-0.577 0.14,-0.565 0.125,-0.551L0.073,-0.643C0.099,-0.664 0.129,-0.682 0.162,-0.695C0.195,-0.708 0.233,-0.714 0.278,-0.714C0.307,-0.714 0.333,-0.71 0.357,-0.702C0.381,-0.694 0.402,-0.682 0.419,-0.667C0.436,-0.652 0.45,-0.632 0.46,-0.61C0.47,-0.587 0.475,-0.56 0.475,-0.529Z" style="fill:rgb(120,0,126);fill-rule:nonzero;"/>
                </g>
            </g>
            <g transform="matrix(1,0,0,1,0,110)">
                <g transform="matrix(1,-0,-0,1,3201,4067)">
                    <path d="M610,186.596L640,201.596L610,216.596L610,186.596Z" style="fill:rgb(45,231,231);"/>
                    <path d="M440,201.596L616,201.596" style="fill:none;stroke:rgb(45,231,231);stroke-width:10px;stroke-linecap:butt;stroke-miterlimit:10;stroke-dasharray:10,5,0,0;"/>
                </g>
            </g>
            <g transform="matrix(1,0,0,1,0,401.513)">
                <g transform="matrix(1,-0,-0,1,3201,3775.49)">
                    <path d="M610,478.109L640,493.109L610,508.109L610,478.109Z" style="fill:rgb(250,112,255);"/>
                    <path d="M440,493.109L616,493.109" style="fill:none;stroke:rgb(250,112,255);stroke-width:10px;stroke-linecap:butt;stroke-miterlimit:10;stroke-dasharray:10,5,0,0;"/>
                </g>
            </g>
        </g>
    </g>
</svg>
