<?xml version="1.0" encoding="UTF-8" standalone="no"?>
<!DOCTYPE svg PUBLIC "-//W3C//DTD SVG 1.1//EN" "http://www.w3.org/Graphics/SVG/1.1/DTD/svg11.dtd">
<svg width="100%" height="100%" viewBox="0 0 211 266" version="1.1" xmlns="http://www.w3.org/2000/svg" xmlns:xlink="http://www.w3.org/1999/xlink" xml:space="preserve" xmlns:serif="http://www.serif.com/" style="fill-rule:evenodd;clip-rule:evenodd;stroke-linejoin:round;stroke-miterlimit:1.5;">
    <g transform="matrix(1,0,0,1,-3342,-4158)">
        <g id="Relations" transform="matrix(0.812257,0,0,0.72638,3262.13,2076.21)">
            <rect x="0" y="1710" width="2317" height="1630" style="fill:none;"/>
            <g transform="matrix(1.23114,0,0,1.37669,-72.915,-16.1682)">
                <path d="M181.69,2336.34L181.69,2208.22C212.872,2211.33 237.508,2221.73 256.465,2238.45L181.69,2336.34Z" style="fill:rgb(217,217,217);"/>
            </g>
            <g transform="matrix(0.718043,0,0,0.802934,-282.004,2615.82)">
                <circle cx="817.043" cy="446.457" r="20.095"/>
            </g>
            <g transform="matrix(0.718043,0,0,0.802934,-435.624,2840.69)">
                <circle cx="817.043" cy="446.457" r="20.095"/>
            </g>
            <g transform="matrix(1.23114,0,0,1.37669,-249.482,591.245)">
                <path d="M325.334,1894.34L450.113,1731" style="fill:none;stroke:black;stroke-width:5px;"/>
            </g>
            <g transform="matrix(1.23114,0,0,0.982757,-517.737,765.204)">
                <path d="M543,2145L543,2477" style="fill:none;stroke:black;stroke-width:3.45px;stroke-dasharray:3.45,6.91,0,0;"/>
            </g>
            <g transform="matrix(1.23114,0,0,1.37669,-72.6371,-14.4895)">
                <g transform="matrix(1,-0,-0,1,138.872,2092.32)">
                    <path d="M115.361,130.733L118.093,145.482L103.169,143.975L115.361,130.733Z"/>
                    <path d="M42.593,114.684C42.593,114.684 82.122,115.298 111.031,138.979" style="fill:none;stroke:black;stroke-width:2px;"/>
                </g>
            </g>
            <g transform="matrix(1.23114,0,0,1.37669,-72.6371,-17.2429)">
                <path d="M256.465,2238.45L181.69,2336.34" style="fill:none;stroke:black;stroke-width:5px;"/>
            </g>
            <g transform="matrix(1.23114,0,0,1.37669,-873.254,55.657)">
                <g transform="matrix(32,0,0,32,868.559,2150.67)">
                    <path d="M0.069,-0.463C0.094,-0.478 0.124,-0.49 0.158,-0.497C0.191,-0.504 0.226,-0.508 0.263,-0.508C0.298,-0.508 0.326,-0.503 0.347,-0.494C0.368,-0.485 0.384,-0.472 0.395,-0.458C0.406,-0.443 0.413,-0.426 0.417,-0.408C0.42,-0.39 0.422,-0.372 0.422,-0.354C0.422,-0.314 0.421,-0.275 0.419,-0.237C0.417,-0.199 0.416,-0.163 0.416,-0.129C0.416,-0.104 0.417,-0.081 0.419,-0.059C0.421,-0.037 0.425,-0.017 0.43,0.002L0.371,0.002L0.35,-0.068L0.345,-0.068C0.339,-0.059 0.332,-0.049 0.323,-0.041C0.314,-0.032 0.303,-0.024 0.29,-0.017C0.277,-0.01 0.263,-0.004 0.246,0.001C0.229,0.006 0.21,0.008 0.189,0.008C0.168,0.008 0.148,0.005 0.13,-0.002C0.111,-0.009 0.095,-0.018 0.082,-0.031C0.069,-0.043 0.058,-0.058 0.051,-0.075C0.043,-0.092 0.039,-0.112 0.039,-0.134C0.039,-0.163 0.045,-0.188 0.057,-0.208C0.069,-0.227 0.086,-0.243 0.108,-0.255C0.129,-0.266 0.155,-0.275 0.186,-0.28C0.216,-0.285 0.249,-0.287 0.286,-0.287L0.314,-0.287C0.323,-0.287 0.332,-0.286 0.341,-0.285C0.343,-0.305 0.344,-0.323 0.344,-0.339C0.344,-0.376 0.337,-0.401 0.322,-0.416C0.307,-0.431 0.281,-0.438 0.242,-0.438C0.231,-0.438 0.219,-0.437 0.206,-0.436C0.193,-0.434 0.179,-0.432 0.166,-0.429C0.152,-0.426 0.139,-0.422 0.127,-0.418C0.114,-0.413 0.103,-0.408 0.094,-0.403L0.069,-0.463ZM0.211,-0.062C0.23,-0.062 0.246,-0.065 0.261,-0.07C0.276,-0.075 0.288,-0.081 0.299,-0.089C0.31,-0.096 0.319,-0.105 0.326,-0.114C0.333,-0.123 0.338,-0.132 0.341,-0.141L0.341,-0.224C0.332,-0.225 0.322,-0.225 0.313,-0.226C0.303,-0.226 0.293,-0.226 0.284,-0.226C0.263,-0.226 0.243,-0.225 0.224,-0.223C0.204,-0.22 0.187,-0.216 0.172,-0.21C0.157,-0.203 0.145,-0.195 0.136,-0.184C0.127,-0.173 0.122,-0.159 0.122,-0.142C0.122,-0.119 0.13,-0.099 0.147,-0.085C0.164,-0.07 0.185,-0.062 0.211,-0.062Z" style="fill-rule:nonzero;"/>
                </g>
            </g>
            <g transform="matrix(1.23114,0,0,1.37669,-355.241,535.464)">
                <g transform="matrix(36,0,0,36,368.503,1953.88)">
                    <path d="M0.405,-0.155L0.19,-0.155L0.137,-0L0,-0L0.252,-0.705L0.353,-0.705L0.605,-0L0.461,-0L0.405,-0.155ZM0.225,-0.265L0.375,-0.265L0.323,-0.421L0.302,-0.531L0.297,-0.531L0.276,-0.42L0.225,-0.265Z" style="fill-rule:nonzero;"/>
                </g>
            </g>
            <g transform="matrix(1.23114,0,0,1.37669,-124.018,299.079)">
                <g transform="matrix(36,0,0,36,368.503,1953.88)">
                    <path d="M0.531,-0.537C0.531,-0.52 0.529,-0.502 0.525,-0.485C0.52,-0.468 0.513,-0.452 0.503,-0.438C0.493,-0.423 0.48,-0.411 0.464,-0.4C0.448,-0.389 0.429,-0.38 0.406,-0.375L0.406,-0.369C0.426,-0.366 0.445,-0.36 0.463,-0.352C0.481,-0.344 0.497,-0.333 0.51,-0.319C0.523,-0.305 0.534,-0.288 0.542,-0.268C0.549,-0.248 0.553,-0.224 0.553,-0.197C0.553,-0.161 0.545,-0.13 0.53,-0.104C0.515,-0.077 0.494,-0.056 0.469,-0.039C0.443,-0.022 0.414,-0.01 0.381,-0.002C0.348,0.006 0.315,0.01 0.28,0.01L0.237,0.01C0.219,0.01 0.2,0.01 0.18,0.009C0.159,0.008 0.138,0.006 0.118,0.004C0.097,0.002 0.077,-0.001 0.06,-0.005L0.06,-0.695C0.073,-0.697 0.087,-0.699 0.104,-0.701C0.12,-0.703 0.137,-0.705 0.156,-0.706C0.175,-0.707 0.194,-0.708 0.214,-0.709C0.233,-0.71 0.253,-0.71 0.272,-0.71C0.305,-0.71 0.337,-0.708 0.368,-0.703C0.399,-0.698 0.426,-0.689 0.451,-0.676C0.475,-0.663 0.494,-0.646 0.509,-0.623C0.524,-0.6 0.531,-0.572 0.531,-0.537ZM0.281,-0.103C0.298,-0.103 0.314,-0.105 0.33,-0.109C0.345,-0.113 0.359,-0.119 0.371,-0.128C0.383,-0.136 0.393,-0.146 0.4,-0.159C0.407,-0.172 0.411,-0.187 0.411,-0.204C0.411,-0.226 0.407,-0.243 0.398,-0.256C0.389,-0.269 0.378,-0.279 0.364,-0.286C0.35,-0.293 0.334,-0.297 0.317,-0.299C0.3,-0.301 0.282,-0.302 0.265,-0.302L0.192,-0.302L0.192,-0.109C0.195,-0.108 0.201,-0.107 0.208,-0.106C0.215,-0.105 0.223,-0.105 0.232,-0.105C0.24,-0.104 0.249,-0.104 0.258,-0.104C0.267,-0.103 0.274,-0.103 0.281,-0.103ZM0.236,-0.406C0.245,-0.406 0.256,-0.406 0.269,-0.407C0.281,-0.408 0.291,-0.409 0.299,-0.41C0.324,-0.418 0.346,-0.43 0.365,-0.446C0.383,-0.462 0.392,-0.483 0.392,-0.509C0.392,-0.526 0.389,-0.541 0.382,-0.552C0.375,-0.563 0.367,-0.572 0.356,-0.579C0.345,-0.586 0.332,-0.59 0.318,-0.593C0.304,-0.596 0.289,-0.597 0.274,-0.597C0.257,-0.597 0.241,-0.597 0.226,-0.596C0.211,-0.595 0.2,-0.594 0.192,-0.593L0.192,-0.406L0.236,-0.406Z" style="fill-rule:nonzero;"/>
                </g>
            </g>
        </g>
    </g>
</svg>
