<?xml version="1.0" encoding="UTF-8" standalone="no"?>
<!DOCTYPE svg PUBLIC "-//W3C//DTD SVG 1.1//EN" "http://www.w3.org/Graphics/SVG/1.1/DTD/svg11.dtd">
<svg width="100%" height="100%" viewBox="0 0 343 232" version="1.1" xmlns="http://www.w3.org/2000/svg" xmlns:xlink="http://www.w3.org/1999/xlink" xml:space="preserve" xmlns:serif="http://www.serif.com/" style="fill-rule:evenodd;clip-rule:evenodd;stroke-linecap:square;stroke-miterlimit:10;">
    <g transform="matrix(1,0,0,1,-95,-1806)">
        <rect id="Artboard4" x="0" y="1152" width="1416" height="1244" style="fill:none;"/>
        <g id="Artboard41" serif:id="Artboard4">
            <path d="M103,1991C170.518,1934.06 312.994,1950.76 404,1824" style="fill:none;stroke:rgb(45,231,231);stroke-width:7px;"/>
            <rect x="318" y="1851" width="7" height="8" style="fill:rgb(221,0,229);stroke:rgb(221,0,229);stroke-width:7px;"/>
            <g transform="matrix(2.01604,0,0,2.01604,-285.212,-1909.44)">
                <rect x="318" y="1851" width="7" height="8" style="fill:rgb(221,0,229);stroke:rgb(221,0,229);stroke-width:3.47px;"/>
            </g>
            <g transform="matrix(1,0,0,1,4,-16.6234)">
                <rect x="255" y="1855" width="17" height="17" style="stroke:black;stroke-width:7px;"/>
            </g>
            <rect x="193" y="1886" width="7" height="7" style="stroke:black;stroke-width:7px;"/>
            <g transform="matrix(1,0,0,1,23.1369,-62.6875)">
                <rect x="193" y="1886" width="7" height="7" style="stroke:black;stroke-width:7px;"/>
            </g>
            <rect x="193" y="1839" width="7" height="7" style="stroke:black;stroke-width:7px;"/>
            <g transform="matrix(1,0,0,1,1,-9)">
                <rect x="129" y="1907" width="21" height="21" style="stroke:black;stroke-width:7px;"/>
            </g>
            <rect x="215" y="1907" width="10.5" height="10.5" style="fill:rgb(221,0,229);stroke:rgb(221,0,229);stroke-width:7px;"/>
            <rect x="287" y="1886" width="7" height="7" style="fill:rgb(221,0,229);stroke:rgb(221,0,229);stroke-width:7px;"/>
            <g transform="matrix(1,0,0,1,0,-14)">
                <rect x="200" y="1986" width="8" height="8" style="fill:rgb(221,0,229);stroke:rgb(221,0,229);stroke-width:7px;"/>
            </g>
            <rect x="254" y="1967" width="8" height="8" style="fill:rgb(221,0,229);stroke:rgb(221,0,229);stroke-width:7px;"/>
            <g transform="matrix(1,0,0,1,-2.1709,-32)">
                <rect x="323" y="1951" width="24" height="24" style="fill:rgb(221,0,229);stroke:rgb(221,0,229);stroke-width:7px;"/>
            </g>
            <rect x="365" y="1893" width="10" height="10" style="fill:rgb(221,0,229);stroke:rgb(221,0,229);stroke-width:7px;"/>
            <rect x="294" y="1815" width="9" height="9" style="stroke:black;stroke-width:7px;"/>
            <g transform="matrix(1,0,0,1,26.8291,163.26)">
                <rect x="294" y="1815" width="9" height="9" style="stroke:black;stroke-width:7px;"/>
            </g>
            <rect x="287" y="1943" width="7" height="7" style="fill:rgb(221,0,229);stroke:rgb(221,0,229);stroke-width:7px;"/>
            <g transform="matrix(1,0,0,1,65,-10.74)">
                <rect x="236" y="2007" width="7" height="7" style="stroke:black;stroke-width:7px;"/>
            </g>
            <g transform="matrix(1,0,0,1,51.6369,3)">
                <rect x="168" y="2014" width="8" height="8" style="stroke:black;stroke-width:7px;"/>
            </g>
            <g transform="matrix(1,0,0,1,29.8291,-1)">
                <rect x="287" y="2014" width="4" height="4" style="stroke:black;stroke-width:7px;"/>
            </g>
            <g transform="matrix(1,0,0,1,-90.1647,3.26005)">
                <rect x="287" y="2014" width="4" height="4" style="stroke:black;stroke-width:7px;"/>
            </g>
            <g transform="matrix(1,0,0,1,-145.542,-24.5609)">
                <rect x="287" y="2014" width="4" height="4" style="fill:rgb(221,0,229);stroke:rgb(221,0,229);stroke-width:7px;"/>
            </g>
            <g transform="matrix(1,0,0,1,-121.974,-70.3219)">
                <rect x="287" y="2014" width="4" height="4" style="fill:rgb(221,0,229);stroke:rgb(221,0,229);stroke-width:7px;"/>
            </g>
            <rect x="391" y="1937" width="6" height="6" style="stroke:black;stroke-width:7px;"/>
            <rect x="420" y="1878" width="7" height="7" style="stroke:black;stroke-width:7px;"/>
        </g>
    </g>
</svg>
