<?xml version="1.0" encoding="UTF-8" standalone="no"?>
<!DOCTYPE svg PUBLIC "-//W3C//DTD SVG 1.1//EN" "http://www.w3.org/Graphics/SVG/1.1/DTD/svg11.dtd">
<svg width="100%" height="100%" viewBox="0 0 341 321" version="1.1" xmlns="http://www.w3.org/2000/svg" xmlns:xlink="http://www.w3.org/1999/xlink" xml:space="preserve" xmlns:serif="http://www.serif.com/" style="fill-rule:evenodd;clip-rule:evenodd;stroke-linejoin:round;stroke-miterlimit:1.5;">
    <g transform="matrix(1,0,0,1,-4051,-3549)">
        <g id="Relations" transform="matrix(0.812257,0,0,0.72638,3262.13,2076.21)">
            <rect x="0" y="1710" width="2317" height="1630" style="fill:none;"/>
            <g transform="matrix(1.23114,0,0,1.30807,-886.159,-99.7729)">
                <circle cx="1678.5" cy="1794.5" r="160.5" style="fill:rgb(252,252,252);stroke:rgb(38,38,38);stroke-width:3.08px;"/>
            </g>
            <g transform="matrix(1.23114,0,0,1.79105,-886.159,-1029.05)">
                <path d="M1839,1829.43C1839,1848.72 1767.08,1864.37 1678.5,1864.37C1589.92,1864.37 1518,1848.72 1518,1829.43" style="fill:none;stroke:rgb(38,38,38);stroke-width:2.59px;stroke-dasharray:2.59,5.17,0,0;"/>
            </g>
            <g transform="matrix(1.10435,0,0,1.66457,-673.591,-715.667)">
                <path d="M1842.78,1830.54C1823.83,1852.18 1766.39,1876.16 1677.81,1876.16C1589.22,1876.16 1526.84,1849.9 1515.69,1832.19" style="fill:none;stroke:rgb(38,38,38);stroke-width:2.82px;stroke-dasharray:2.82,5.64,0,0;"/>
            </g>
            <g transform="matrix(7.4599e-17,-1.29442,1.68571,1.0967e-16,-1899.8,4421.02)">
                <path d="M1839,1829.43C1839,1848.72 1767.08,1864.37 1678.5,1864.37C1589.92,1864.37 1518,1848.72 1518,1829.43" style="fill:none;stroke:rgb(38,38,38);stroke-width:2.55px;stroke-dasharray:2.55,5.11,0,0;"/>
            </g>
            <g transform="matrix(7.4599e-17,-1.29442,4.36403,2.83918e-16,-6799.62,4421.02)">
                <path d="M1839,1829.43C1839,1848.72 1767.08,1864.37 1678.5,1864.37C1589.92,1864.37 1518,1848.72 1518,1829.43" style="fill:none;stroke:rgb(38,38,38);stroke-width:1.16px;stroke-dasharray:1.16,2.31,0,0;"/>
            </g>
            <g transform="matrix(7.4599e-17,-1.29442,-1.62695,-1.05847e-16,4160.5,4421.02)">
                <path d="M1839,1829.43C1839,1848.72 1767.08,1864.37 1678.5,1864.37C1589.92,1864.37 1518,1848.72 1518,1829.43" style="fill:none;stroke:rgb(38,38,38);stroke-width:2.62px;stroke-dasharray:2.62,5.23,0,0;"/>
            </g>
            <g transform="matrix(3.33139e-16,-1.29442,-4.44624,7.75718e-17,9318.2,4421.02)">
                <path d="M1839,1829.43C1839,1848.72 1767.08,1864.37 1678.5,1864.37C1589.92,1864.37 1518,1848.72 1518,1829.43" style="fill:none;stroke:rgb(38,38,38);stroke-width:1.14px;stroke-dasharray:1.14,2.27,0,0;"/>
            </g>
            <g transform="matrix(1.23114,0,0,1.37669,-886.159,-222.912)">
                <path d="M1636,1894C1636,1894 1723.98,1850.05 1760,1731" style="fill:none;stroke:black;stroke-width:5px;"/>
            </g>
            <g transform="matrix(0.718043,0,0,0.802934,693.97,1801.66)">
                <circle cx="817.043" cy="446.457" r="20.095"/>
            </g>
            <g transform="matrix(0.718043,0,0,0.802934,540.35,2026.54)">
                <circle cx="817.043" cy="446.457" r="20.095"/>
            </g>
            <g transform="matrix(1.23114,0,0,1.37669,623.531,-315.924)">
                <g transform="matrix(36,0,0,36,368.503,1953.88)">
                    <path d="M0.292,-0.766L0.412,-0.766L0.683,-0L0.525,-0L0.446,-0.239L0.219,-0.239L0.143,-0L0.016,-0L0.292,-0.766ZM0.247,-0.337L0.421,-0.337L0.336,-0.614L0.247,-0.337Z" style="fill-rule:nonzero;"/>
                </g>
            </g>
            <g transform="matrix(1.23114,0,0,1.37669,792.896,-555.063)">
                <g transform="matrix(36,0,0,36,368.503,1953.88)">
                    <path d="M0.318,-0.765C0.356,-0.765 0.391,-0.761 0.422,-0.752C0.453,-0.744 0.48,-0.731 0.501,-0.715C0.523,-0.699 0.54,-0.679 0.551,-0.655C0.563,-0.631 0.569,-0.604 0.569,-0.573C0.569,-0.554 0.565,-0.535 0.557,-0.517C0.55,-0.499 0.539,-0.482 0.526,-0.467C0.513,-0.452 0.498,-0.439 0.48,-0.427C0.463,-0.416 0.444,-0.408 0.424,-0.403C0.444,-0.399 0.465,-0.393 0.486,-0.383C0.507,-0.374 0.526,-0.361 0.543,-0.345C0.561,-0.328 0.575,-0.309 0.586,-0.285C0.597,-0.262 0.603,-0.235 0.603,-0.204C0.603,-0.178 0.597,-0.153 0.586,-0.128C0.575,-0.104 0.558,-0.082 0.535,-0.063C0.513,-0.044 0.485,-0.028 0.452,-0.017C0.418,-0.006 0.38,-0 0.337,-0L0.073,-0L0.074,-0.765L0.318,-0.765ZM0.208,-0.341L0.208,-0.099L0.311,-0.099C0.337,-0.099 0.36,-0.102 0.38,-0.109C0.4,-0.116 0.416,-0.125 0.429,-0.136C0.442,-0.147 0.451,-0.16 0.458,-0.174C0.464,-0.187 0.467,-0.201 0.467,-0.216C0.467,-0.233 0.464,-0.249 0.458,-0.264C0.451,-0.279 0.442,-0.293 0.429,-0.304C0.416,-0.315 0.399,-0.324 0.379,-0.331C0.358,-0.337 0.334,-0.341 0.305,-0.341L0.208,-0.341ZM0.208,-0.667L0.208,-0.439L0.279,-0.439C0.303,-0.439 0.325,-0.442 0.344,-0.446C0.364,-0.451 0.381,-0.458 0.395,-0.468C0.409,-0.477 0.419,-0.489 0.427,-0.504C0.434,-0.518 0.438,-0.535 0.438,-0.555C0.438,-0.574 0.435,-0.59 0.43,-0.604C0.424,-0.618 0.415,-0.63 0.402,-0.639C0.388,-0.648 0.371,-0.655 0.35,-0.66C0.328,-0.664 0.301,-0.667 0.27,-0.667L0.208,-0.667Z" style="fill-rule:nonzero;"/>
                </g>
            </g>
            <g transform="matrix(1.23114,0,0,1.30807,-73.8682,-128.55)">
                <path d="M1138.88,1713.01C1138.88,1725.7 1072.26,1743.5 1018.71,1743C960.938,1742.47 896.91,1725.7 896.91,1713.01" style="fill:none;stroke:black;stroke-width:3.08px;stroke-dasharray:3.08,6.15,0,0;"/>
            </g>
            <g transform="matrix(0.695603,0,0,0.701481,470.633,855.936)">
                <path d="M1138.88,1713.01C1138.88,1725.7 1072.26,1743.5 1018.71,1743C960.938,1742.47 896.91,1725.7 896.91,1713.01" style="fill:none;stroke:black;stroke-width:5.58px;stroke-dasharray:5.58,11.15,0,0;"/>
            </g>
            <g transform="matrix(1.52624,0,0,1.62162,-374.255,-589.472)">
                <path d="M1142.2,1711.04C1107.51,1732.6 1051.44,1737.1 1018.55,1736.81C979.204,1736.45 916.673,1727.72 895.701,1708.58" style="fill:none;stroke:black;stroke-width:2.48px;stroke-dasharray:2.48,4.96,0,0;"/>
            </g>
        </g>
    </g>
</svg>
