<?xml version="1.0" encoding="UTF-8" standalone="no"?>
<!DOCTYPE svg PUBLIC "-//W3C//DTD SVG 1.1//EN" "http://www.w3.org/Graphics/SVG/1.1/DTD/svg11.dtd">
<svg width="100%" height="100%" viewBox="0 0 930 596" version="1.1" xmlns="http://www.w3.org/2000/svg" xmlns:xlink="http://www.w3.org/1999/xlink" xml:space="preserve" xmlns:serif="http://www.serif.com/" style="fill-rule:evenodd;clip-rule:evenodd;stroke-linejoin:round;stroke-miterlimit:10;">
    <g transform="matrix(1,0,0,1,-209,-196)">
        <g id="spdata" transform="matrix(1,0,0,1,1,0)">
            <rect x="-1" y="3" width="3118" height="956" style="fill:none;"/>
            <g transform="matrix(1,0,0,1,-1602,-364.856)">
                <rect x="1837" y="721" width="93" height="93" style="fill:rgb(194,194,194);stroke:black;stroke-width:2px;"/>
            </g>
            <g transform="matrix(1,0,0,1,-1602,-364.856)">
                <rect x="1930" y="721" width="186" height="93" style="fill:white;stroke:black;stroke-width:2px;"/>
            </g>
            <g transform="matrix(1,0,0,1,-1416,-364.856)">
                <rect x="1930" y="721" width="186" height="93" style="fill:white;stroke:black;stroke-width:2px;"/>
            </g>
            <g transform="matrix(1,0,0,1,-1054.68,-364.856)">
                <rect x="1930" y="721" width="186" height="93" style="fill:white;stroke:black;stroke-width:2px;"/>
            </g>
            <g transform="matrix(1,0,0,1,-1761,-243.356)">
                <g transform="matrix(40,0,0,40,2030.5,659)">
                    <path d="M0.256,-0.058C0.281,-0.058 0.305,-0.061 0.326,-0.068C0.347,-0.074 0.366,-0.084 0.381,-0.097C0.396,-0.11 0.407,-0.126 0.416,-0.145C0.424,-0.164 0.428,-0.187 0.428,-0.213C0.428,-0.261 0.411,-0.298 0.377,-0.323C0.342,-0.347 0.295,-0.36 0.236,-0.36L0.142,-0.355L0.142,-0.7L0.485,-0.7L0.485,-0.628L0.217,-0.628L0.217,-0.425L0.267,-0.427C0.341,-0.427 0.399,-0.409 0.442,-0.373C0.485,-0.337 0.506,-0.286 0.506,-0.219C0.506,-0.182 0.5,-0.149 0.487,-0.12C0.474,-0.091 0.456,-0.067 0.433,-0.048C0.41,-0.028 0.384,-0.013 0.353,-0.003C0.321,0.007 0.288,0.012 0.251,0.012C0.231,0.012 0.212,0.011 0.194,0.008C0.176,0.005 0.16,0.001 0.145,-0.004C0.13,-0.008 0.117,-0.013 0.107,-0.018C0.095,-0.023 0.088,-0.027 0.083,-0.031L0.115,-0.096C0.126,-0.089 0.144,-0.081 0.167,-0.072C0.19,-0.063 0.22,-0.058 0.256,-0.058Z" style="fill-rule:nonzero;"/>
                </g>
            </g>
            <g transform="matrix(1,0,0,1,-1329.4,-245.356)">
                <g transform="matrix(40,0,0,40,2080,659)">
                    <path d="M0.233,-0.055C0.233,-0.076 0.239,-0.093 0.251,-0.105C0.263,-0.116 0.279,-0.122 0.299,-0.122C0.32,-0.122 0.337,-0.116 0.349,-0.105C0.361,-0.093 0.367,-0.076 0.367,-0.055C0.367,-0.036 0.361,-0.02 0.349,-0.007C0.337,0.006 0.32,0.012 0.299,0.012C0.279,0.012 0.263,0.006 0.251,-0.007C0.239,-0.02 0.233,-0.036 0.233,-0.055Z" style="fill-rule:nonzero;"/>
                </g>
                <g transform="matrix(40,0,0,40,2104,659)">
                    <path d="M0.233,-0.055C0.233,-0.076 0.239,-0.093 0.251,-0.105C0.263,-0.116 0.279,-0.122 0.299,-0.122C0.32,-0.122 0.337,-0.116 0.349,-0.105C0.361,-0.093 0.367,-0.076 0.367,-0.055C0.367,-0.036 0.361,-0.02 0.349,-0.007C0.337,0.006 0.32,0.012 0.299,0.012C0.279,0.012 0.263,0.006 0.251,-0.007C0.239,-0.02 0.233,-0.036 0.233,-0.055Z" style="fill-rule:nonzero;"/>
                </g>
                <g transform="matrix(40,0,0,40,2128,659)">
                    <path d="M0.233,-0.055C0.233,-0.076 0.239,-0.093 0.251,-0.105C0.263,-0.116 0.279,-0.122 0.299,-0.122C0.32,-0.122 0.337,-0.116 0.349,-0.105C0.361,-0.093 0.367,-0.076 0.367,-0.055C0.367,-0.036 0.361,-0.02 0.349,-0.007C0.337,0.006 0.32,0.012 0.299,0.012C0.279,0.012 0.263,0.006 0.251,-0.007C0.239,-0.02 0.233,-0.036 0.233,-0.055Z" style="fill-rule:nonzero;"/>
                </g>
            </g>
            <g transform="matrix(1,0,0,1,-1761,-319.957)">
                <g transform="matrix(40,0,0,40,2026.34,659)">
                    <path d="M0.069,-0.5L0.199,-0.5L0.199,-0L0.069,-0L0.069,-0.5ZM0.05,-0.641C0.05,-0.66 0.057,-0.677 0.072,-0.691C0.086,-0.704 0.106,-0.711 0.131,-0.711C0.156,-0.711 0.177,-0.704 0.193,-0.691C0.208,-0.677 0.216,-0.66 0.216,-0.641C0.216,-0.622 0.208,-0.606 0.193,-0.593C0.177,-0.58 0.156,-0.573 0.131,-0.573C0.106,-0.573 0.086,-0.58 0.072,-0.593C0.057,-0.606 0.05,-0.622 0.05,-0.641Z" style="fill-rule:nonzero;"/>
                </g>
                <g transform="matrix(40,0,0,40,2037.1,659)">
                    <path d="M0.482,-0.176C0.482,-0.148 0.482,-0.12 0.483,-0.092C0.484,-0.064 0.487,-0.033 0.492,0.001L0.399,0.001L0.381,-0.064L0.377,-0.064C0.364,-0.041 0.345,-0.022 0.32,-0.008C0.295,0.007 0.265,0.014 0.231,0.014C0.168,0.014 0.12,-0.007 0.085,-0.048C0.05,-0.089 0.033,-0.154 0.033,-0.242C0.033,-0.327 0.052,-0.394 0.091,-0.441C0.13,-0.488 0.186,-0.512 0.261,-0.512C0.282,-0.512 0.299,-0.511 0.312,-0.509C0.325,-0.506 0.339,-0.502 0.352,-0.497L0.352,-0.7L0.482,-0.7L0.482,-0.176ZM0.261,-0.096C0.286,-0.096 0.306,-0.102 0.321,-0.115C0.336,-0.127 0.346,-0.145 0.352,-0.168L0.352,-0.38C0.343,-0.387 0.332,-0.393 0.321,-0.397C0.31,-0.4 0.295,-0.402 0.277,-0.402C0.24,-0.402 0.213,-0.39 0.195,-0.365C0.176,-0.34 0.167,-0.298 0.167,-0.238C0.167,-0.195 0.175,-0.161 0.19,-0.135C0.204,-0.109 0.228,-0.096 0.261,-0.096Z" style="fill-rule:nonzero;"/>
                </g>
            </g>
            <g transform="matrix(1,0,0,1,-1685,-319.957)">
                <g transform="matrix(40,0,0,40,2056.04,659)">
                    <path d="M0.011,-0.5L0.08,-0.5L0.08,-0.528C0.08,-0.591 0.093,-0.637 0.12,-0.666C0.147,-0.694 0.185,-0.708 0.236,-0.708C0.289,-0.708 0.334,-0.702 0.369,-0.689L0.344,-0.585C0.329,-0.59 0.315,-0.594 0.304,-0.596C0.292,-0.597 0.28,-0.598 0.267,-0.598C0.254,-0.598 0.243,-0.596 0.236,-0.592C0.228,-0.588 0.222,-0.582 0.219,-0.574C0.215,-0.565 0.213,-0.555 0.212,-0.543C0.211,-0.53 0.21,-0.516 0.21,-0.5L0.32,-0.5L0.32,-0.39L0.21,-0.39L0.21,-0L0.08,-0L0.08,-0.39L0.011,-0.39L0.011,-0.5Z" style="fill-rule:nonzero;"/>
                </g>
                <g transform="matrix(40,0,0,40,2068.88,659)">
                    <path d="M0.069,-0.5L0.199,-0.5L0.199,-0L0.069,-0L0.069,-0.5ZM0.05,-0.641C0.05,-0.66 0.057,-0.677 0.072,-0.691C0.086,-0.704 0.106,-0.711 0.131,-0.711C0.156,-0.711 0.177,-0.704 0.193,-0.691C0.208,-0.677 0.216,-0.66 0.216,-0.641C0.216,-0.622 0.208,-0.606 0.193,-0.593C0.177,-0.58 0.156,-0.573 0.131,-0.573C0.106,-0.573 0.086,-0.58 0.072,-0.593C0.057,-0.606 0.05,-0.622 0.05,-0.641Z" style="fill-rule:nonzero;"/>
                </g>
                <g transform="matrix(40,0,0,40,2079.64,659)">
                    <path d="M0.457,-0.043C0.437,-0.027 0.41,-0.014 0.376,-0.003C0.341,0.009 0.305,0.014 0.266,0.014C0.185,0.014 0.126,-0.01 0.089,-0.057C0.052,-0.103 0.033,-0.168 0.033,-0.25C0.033,-0.338 0.054,-0.404 0.096,-0.448C0.138,-0.492 0.197,-0.514 0.273,-0.514C0.298,-0.514 0.323,-0.511 0.347,-0.504C0.371,-0.497 0.392,-0.486 0.411,-0.471C0.43,-0.456 0.445,-0.435 0.456,-0.409C0.467,-0.383 0.473,-0.351 0.473,-0.312C0.473,-0.298 0.472,-0.283 0.471,-0.267C0.469,-0.251 0.466,-0.234 0.463,-0.217L0.163,-0.217C0.165,-0.175 0.176,-0.143 0.196,-0.122C0.215,-0.101 0.247,-0.09 0.291,-0.09C0.318,-0.09 0.343,-0.094 0.365,-0.103C0.386,-0.111 0.403,-0.119 0.414,-0.128L0.457,-0.043ZM0.271,-0.41C0.237,-0.41 0.212,-0.4 0.196,-0.38C0.179,-0.359 0.169,-0.332 0.166,-0.298L0.352,-0.298C0.355,-0.334 0.349,-0.362 0.336,-0.381C0.322,-0.4 0.3,-0.41 0.271,-0.41Z" style="fill-rule:nonzero;"/>
                </g>
                <g transform="matrix(40,0,0,40,2099.96,659)">
                    <path d="M0.191,-0.168C0.191,-0.145 0.194,-0.128 0.2,-0.117C0.206,-0.106 0.216,-0.101 0.229,-0.101C0.237,-0.101 0.245,-0.102 0.253,-0.103C0.26,-0.104 0.27,-0.107 0.281,-0.112L0.295,-0.01C0.284,-0.005 0.268,0.001 0.246,0.006C0.224,0.011 0.201,0.014 0.178,0.014C0.14,0.014 0.111,0.005 0.091,-0.013C0.071,-0.03 0.061,-0.059 0.061,-0.1L0.061,-0.7L0.191,-0.7L0.191,-0.168Z" style="fill-rule:nonzero;"/>
                </g>
                <g transform="matrix(40,0,0,40,2111.72,659)">
                    <path d="M0.482,-0.176C0.482,-0.148 0.482,-0.12 0.483,-0.092C0.484,-0.064 0.487,-0.033 0.492,0.001L0.399,0.001L0.381,-0.064L0.377,-0.064C0.364,-0.041 0.345,-0.022 0.32,-0.008C0.295,0.007 0.265,0.014 0.231,0.014C0.168,0.014 0.12,-0.007 0.085,-0.048C0.05,-0.089 0.033,-0.154 0.033,-0.242C0.033,-0.327 0.052,-0.394 0.091,-0.441C0.13,-0.488 0.186,-0.512 0.261,-0.512C0.282,-0.512 0.299,-0.511 0.312,-0.509C0.325,-0.506 0.339,-0.502 0.352,-0.497L0.352,-0.7L0.482,-0.7L0.482,-0.176ZM0.261,-0.096C0.286,-0.096 0.306,-0.102 0.321,-0.115C0.336,-0.127 0.346,-0.145 0.352,-0.168L0.352,-0.38C0.343,-0.387 0.332,-0.393 0.321,-0.397C0.31,-0.4 0.295,-0.402 0.277,-0.402C0.24,-0.402 0.213,-0.39 0.195,-0.365C0.176,-0.34 0.167,-0.298 0.167,-0.238C0.167,-0.195 0.175,-0.161 0.19,-0.135C0.204,-0.109 0.228,-0.096 0.261,-0.096Z" style="fill-rule:nonzero;"/>
                </g>
                <g transform="matrix(40,0,0,40,2133.28,659)">
                    <path d="M0.101,-0.11L0.24,-0.11L0.24,-0.505L0.255,-0.573L0.207,-0.514L0.118,-0.453L0.063,-0.528L0.291,-0.712L0.364,-0.712L0.364,-0.11L0.5,-0.11L0.5,-0L0.101,-0L0.101,-0.11Z" style="fill-rule:nonzero;"/>
                </g>
            </g>
            <g transform="matrix(1,0,0,1,-1499,-319.957)">
                <g transform="matrix(40,0,0,40,2056.04,659)">
                    <path d="M0.011,-0.5L0.08,-0.5L0.08,-0.528C0.08,-0.591 0.093,-0.637 0.12,-0.666C0.147,-0.694 0.185,-0.708 0.236,-0.708C0.289,-0.708 0.334,-0.702 0.369,-0.689L0.344,-0.585C0.329,-0.59 0.315,-0.594 0.304,-0.596C0.292,-0.597 0.28,-0.598 0.267,-0.598C0.254,-0.598 0.243,-0.596 0.236,-0.592C0.228,-0.588 0.222,-0.582 0.219,-0.574C0.215,-0.565 0.213,-0.555 0.212,-0.543C0.211,-0.53 0.21,-0.516 0.21,-0.5L0.32,-0.5L0.32,-0.39L0.21,-0.39L0.21,-0L0.08,-0L0.08,-0.39L0.011,-0.39L0.011,-0.5Z" style="fill-rule:nonzero;"/>
                </g>
                <g transform="matrix(40,0,0,40,2068.88,659)">
                    <path d="M0.069,-0.5L0.199,-0.5L0.199,-0L0.069,-0L0.069,-0.5ZM0.05,-0.641C0.05,-0.66 0.057,-0.677 0.072,-0.691C0.086,-0.704 0.106,-0.711 0.131,-0.711C0.156,-0.711 0.177,-0.704 0.193,-0.691C0.208,-0.677 0.216,-0.66 0.216,-0.641C0.216,-0.622 0.208,-0.606 0.193,-0.593C0.177,-0.58 0.156,-0.573 0.131,-0.573C0.106,-0.573 0.086,-0.58 0.072,-0.593C0.057,-0.606 0.05,-0.622 0.05,-0.641Z" style="fill-rule:nonzero;"/>
                </g>
                <g transform="matrix(40,0,0,40,2079.64,659)">
                    <path d="M0.457,-0.043C0.437,-0.027 0.41,-0.014 0.376,-0.003C0.341,0.009 0.305,0.014 0.266,0.014C0.185,0.014 0.126,-0.01 0.089,-0.057C0.052,-0.103 0.033,-0.168 0.033,-0.25C0.033,-0.338 0.054,-0.404 0.096,-0.448C0.138,-0.492 0.197,-0.514 0.273,-0.514C0.298,-0.514 0.323,-0.511 0.347,-0.504C0.371,-0.497 0.392,-0.486 0.411,-0.471C0.43,-0.456 0.445,-0.435 0.456,-0.409C0.467,-0.383 0.473,-0.351 0.473,-0.312C0.473,-0.298 0.472,-0.283 0.471,-0.267C0.469,-0.251 0.466,-0.234 0.463,-0.217L0.163,-0.217C0.165,-0.175 0.176,-0.143 0.196,-0.122C0.215,-0.101 0.247,-0.09 0.291,-0.09C0.318,-0.09 0.343,-0.094 0.365,-0.103C0.386,-0.111 0.403,-0.119 0.414,-0.128L0.457,-0.043ZM0.271,-0.41C0.237,-0.41 0.212,-0.4 0.196,-0.38C0.179,-0.359 0.169,-0.332 0.166,-0.298L0.352,-0.298C0.355,-0.334 0.349,-0.362 0.336,-0.381C0.322,-0.4 0.3,-0.41 0.271,-0.41Z" style="fill-rule:nonzero;"/>
                </g>
                <g transform="matrix(40,0,0,40,2099.96,659)">
                    <path d="M0.191,-0.168C0.191,-0.145 0.194,-0.128 0.2,-0.117C0.206,-0.106 0.216,-0.101 0.229,-0.101C0.237,-0.101 0.245,-0.102 0.253,-0.103C0.26,-0.104 0.27,-0.107 0.281,-0.112L0.295,-0.01C0.284,-0.005 0.268,0.001 0.246,0.006C0.224,0.011 0.201,0.014 0.178,0.014C0.14,0.014 0.111,0.005 0.091,-0.013C0.071,-0.03 0.061,-0.059 0.061,-0.1L0.061,-0.7L0.191,-0.7L0.191,-0.168Z" style="fill-rule:nonzero;"/>
                </g>
                <g transform="matrix(40,0,0,40,2111.72,659)">
                    <path d="M0.482,-0.176C0.482,-0.148 0.482,-0.12 0.483,-0.092C0.484,-0.064 0.487,-0.033 0.492,0.001L0.399,0.001L0.381,-0.064L0.377,-0.064C0.364,-0.041 0.345,-0.022 0.32,-0.008C0.295,0.007 0.265,0.014 0.231,0.014C0.168,0.014 0.12,-0.007 0.085,-0.048C0.05,-0.089 0.033,-0.154 0.033,-0.242C0.033,-0.327 0.052,-0.394 0.091,-0.441C0.13,-0.488 0.186,-0.512 0.261,-0.512C0.282,-0.512 0.299,-0.511 0.312,-0.509C0.325,-0.506 0.339,-0.502 0.352,-0.497L0.352,-0.7L0.482,-0.7L0.482,-0.176ZM0.261,-0.096C0.286,-0.096 0.306,-0.102 0.321,-0.115C0.336,-0.127 0.346,-0.145 0.352,-0.168L0.352,-0.38C0.343,-0.387 0.332,-0.393 0.321,-0.397C0.31,-0.4 0.295,-0.402 0.277,-0.402C0.24,-0.402 0.213,-0.39 0.195,-0.365C0.176,-0.34 0.167,-0.298 0.167,-0.238C0.167,-0.195 0.175,-0.161 0.19,-0.135C0.204,-0.109 0.228,-0.096 0.261,-0.096Z" style="fill-rule:nonzero;"/>
                </g>
                <g transform="matrix(40,0,0,40,2133.28,659)">
                    <path d="M0.475,-0.529C0.475,-0.495 0.469,-0.461 0.457,-0.426C0.444,-0.391 0.429,-0.357 0.41,-0.324C0.391,-0.291 0.37,-0.259 0.347,-0.228C0.324,-0.197 0.301,-0.168 0.279,-0.142L0.226,-0.101L0.226,-0.096L0.298,-0.11L0.49,-0.11L0.49,-0L0.069,-0L0.069,-0.067C0.085,-0.084 0.103,-0.103 0.123,-0.126C0.143,-0.148 0.163,-0.171 0.184,-0.197C0.204,-0.222 0.224,-0.247 0.243,-0.274C0.262,-0.301 0.28,-0.327 0.295,-0.355C0.31,-0.382 0.323,-0.408 0.332,-0.433C0.341,-0.458 0.345,-0.482 0.345,-0.505C0.345,-0.532 0.337,-0.555 0.322,-0.573C0.306,-0.59 0.281,-0.599 0.247,-0.599C0.226,-0.599 0.204,-0.595 0.182,-0.586C0.159,-0.577 0.14,-0.565 0.125,-0.551L0.073,-0.643C0.099,-0.664 0.129,-0.682 0.162,-0.695C0.195,-0.708 0.233,-0.714 0.278,-0.714C0.307,-0.714 0.333,-0.71 0.357,-0.702C0.381,-0.694 0.402,-0.682 0.419,-0.667C0.436,-0.652 0.45,-0.632 0.46,-0.61C0.47,-0.587 0.475,-0.56 0.475,-0.529Z" style="fill-rule:nonzero;"/>
                </g>
            </g>
            <g transform="matrix(1,0,0,1,-1138.91,-319.957)">
                <g transform="matrix(40,0,0,40,2054.24,659)">
                    <path d="M0.011,-0.5L0.08,-0.5L0.08,-0.528C0.08,-0.591 0.093,-0.637 0.12,-0.666C0.147,-0.694 0.185,-0.708 0.236,-0.708C0.289,-0.708 0.334,-0.702 0.369,-0.689L0.344,-0.585C0.329,-0.59 0.315,-0.594 0.304,-0.596C0.292,-0.597 0.28,-0.598 0.267,-0.598C0.254,-0.598 0.243,-0.596 0.236,-0.592C0.228,-0.588 0.222,-0.582 0.219,-0.574C0.215,-0.565 0.213,-0.555 0.212,-0.543C0.211,-0.53 0.21,-0.516 0.21,-0.5L0.32,-0.5L0.32,-0.39L0.21,-0.39L0.21,-0L0.08,-0L0.08,-0.39L0.011,-0.39L0.011,-0.5Z" style="fill-rule:nonzero;"/>
                </g>
                <g transform="matrix(40,0,0,40,2067.08,659)">
                    <path d="M0.069,-0.5L0.199,-0.5L0.199,-0L0.069,-0L0.069,-0.5ZM0.05,-0.641C0.05,-0.66 0.057,-0.677 0.072,-0.691C0.086,-0.704 0.106,-0.711 0.131,-0.711C0.156,-0.711 0.177,-0.704 0.193,-0.691C0.208,-0.677 0.216,-0.66 0.216,-0.641C0.216,-0.622 0.208,-0.606 0.193,-0.593C0.177,-0.58 0.156,-0.573 0.131,-0.573C0.106,-0.573 0.086,-0.58 0.072,-0.593C0.057,-0.606 0.05,-0.622 0.05,-0.641Z" style="fill-rule:nonzero;"/>
                </g>
                <g transform="matrix(40,0,0,40,2077.84,659)">
                    <path d="M0.457,-0.043C0.437,-0.027 0.41,-0.014 0.376,-0.003C0.341,0.009 0.305,0.014 0.266,0.014C0.185,0.014 0.126,-0.01 0.089,-0.057C0.052,-0.103 0.033,-0.168 0.033,-0.25C0.033,-0.338 0.054,-0.404 0.096,-0.448C0.138,-0.492 0.197,-0.514 0.273,-0.514C0.298,-0.514 0.323,-0.511 0.347,-0.504C0.371,-0.497 0.392,-0.486 0.411,-0.471C0.43,-0.456 0.445,-0.435 0.456,-0.409C0.467,-0.383 0.473,-0.351 0.473,-0.312C0.473,-0.298 0.472,-0.283 0.471,-0.267C0.469,-0.251 0.466,-0.234 0.463,-0.217L0.163,-0.217C0.165,-0.175 0.176,-0.143 0.196,-0.122C0.215,-0.101 0.247,-0.09 0.291,-0.09C0.318,-0.09 0.343,-0.094 0.365,-0.103C0.386,-0.111 0.403,-0.119 0.414,-0.128L0.457,-0.043ZM0.271,-0.41C0.237,-0.41 0.212,-0.4 0.196,-0.38C0.179,-0.359 0.169,-0.332 0.166,-0.298L0.352,-0.298C0.355,-0.334 0.349,-0.362 0.336,-0.381C0.322,-0.4 0.3,-0.41 0.271,-0.41Z" style="fill-rule:nonzero;"/>
                </g>
                <g transform="matrix(40,0,0,40,2098.16,659)">
                    <path d="M0.191,-0.168C0.191,-0.145 0.194,-0.128 0.2,-0.117C0.206,-0.106 0.216,-0.101 0.229,-0.101C0.237,-0.101 0.245,-0.102 0.253,-0.103C0.26,-0.104 0.27,-0.107 0.281,-0.112L0.295,-0.01C0.284,-0.005 0.268,0.001 0.246,0.006C0.224,0.011 0.201,0.014 0.178,0.014C0.14,0.014 0.111,0.005 0.091,-0.013C0.071,-0.03 0.061,-0.059 0.061,-0.1L0.061,-0.7L0.191,-0.7L0.191,-0.168Z" style="fill-rule:nonzero;"/>
                </g>
                <g transform="matrix(40,0,0,40,2109.92,659)">
                    <path d="M0.482,-0.176C0.482,-0.148 0.482,-0.12 0.483,-0.092C0.484,-0.064 0.487,-0.033 0.492,0.001L0.399,0.001L0.381,-0.064L0.377,-0.064C0.364,-0.041 0.345,-0.022 0.32,-0.008C0.295,0.007 0.265,0.014 0.231,0.014C0.168,0.014 0.12,-0.007 0.085,-0.048C0.05,-0.089 0.033,-0.154 0.033,-0.242C0.033,-0.327 0.052,-0.394 0.091,-0.441C0.13,-0.488 0.186,-0.512 0.261,-0.512C0.282,-0.512 0.299,-0.511 0.312,-0.509C0.325,-0.506 0.339,-0.502 0.352,-0.497L0.352,-0.7L0.482,-0.7L0.482,-0.176ZM0.261,-0.096C0.286,-0.096 0.306,-0.102 0.321,-0.115C0.336,-0.127 0.346,-0.145 0.352,-0.168L0.352,-0.38C0.343,-0.387 0.332,-0.393 0.321,-0.397C0.31,-0.4 0.295,-0.402 0.277,-0.402C0.24,-0.402 0.213,-0.39 0.195,-0.365C0.176,-0.34 0.167,-0.298 0.167,-0.238C0.167,-0.195 0.175,-0.161 0.19,-0.135C0.204,-0.109 0.228,-0.096 0.261,-0.096Z" style="fill-rule:nonzero;"/>
                </g>
                <g transform="matrix(40,0,0,40,2131.48,659)">
                    <path d="M0.234,-0.365L0.179,-0.475L0.174,-0.475L0.19,-0.365L0.19,-0L0.06,-0L0.06,-0.705L0.16,-0.705L0.425,-0.332L0.478,-0.225L0.483,-0.225L0.467,-0.332L0.467,-0.7L0.597,-0.7L0.597,0.005L0.497,0.005L0.234,-0.365Z" style="fill-rule:nonzero;"/>
                </g>
            </g>
            <g transform="matrix(1,0,0,1,-302.537,-85.5814)">
                <g transform="matrix(76,0,0,76,598.521,650.831)">
                    <path d="M0.066,-0L0.066,-0.067L0.201,-0.067L0.201,-0.433L0.066,-0.433L0.066,-0.5L0.253,-0.5L0.269,-0.435L0.274,-0.435C0.297,-0.456 0.322,-0.473 0.35,-0.488C0.378,-0.503 0.411,-0.51 0.45,-0.51C0.473,-0.51 0.491,-0.506 0.505,-0.497C0.518,-0.488 0.529,-0.476 0.537,-0.459C0.544,-0.442 0.549,-0.422 0.552,-0.399C0.555,-0.375 0.556,-0.348 0.556,-0.318L0.486,-0.317C0.486,-0.36 0.482,-0.391 0.474,-0.411C0.465,-0.431 0.45,-0.441 0.428,-0.441C0.407,-0.441 0.389,-0.438 0.372,-0.432C0.355,-0.426 0.341,-0.419 0.329,-0.41C0.316,-0.401 0.306,-0.393 0.297,-0.384C0.288,-0.375 0.282,-0.368 0.278,-0.362L0.278,-0.067L0.47,-0.067L0.47,-0L0.066,-0Z" style="fill:rgb(0,35,235);fill-rule:nonzero;"/>
                </g>
                <g transform="matrix(76,0,0,76,644.121,650.831)">
                    <path d="M0.529,-0.063C0.517,-0.052 0.503,-0.042 0.487,-0.033C0.47,-0.024 0.452,-0.016 0.433,-0.009C0.414,-0.002 0.394,0.003 0.373,0.007C0.352,0.01 0.33,0.012 0.309,0.012C0.269,0.012 0.234,0.006 0.203,-0.007C0.172,-0.019 0.147,-0.037 0.126,-0.06C0.105,-0.083 0.09,-0.11 0.079,-0.142C0.068,-0.174 0.063,-0.21 0.063,-0.25C0.063,-0.292 0.069,-0.329 0.081,-0.362C0.092,-0.395 0.109,-0.422 0.131,-0.444C0.153,-0.466 0.18,-0.483 0.211,-0.495C0.242,-0.506 0.277,-0.512 0.316,-0.512C0.344,-0.512 0.372,-0.508 0.399,-0.501C0.426,-0.494 0.451,-0.48 0.472,-0.46C0.493,-0.439 0.509,-0.411 0.52,-0.376C0.531,-0.34 0.535,-0.294 0.532,-0.237L0.145,-0.237C0.145,-0.177 0.161,-0.132 0.194,-0.103C0.226,-0.073 0.269,-0.058 0.323,-0.058C0.341,-0.058 0.359,-0.06 0.377,-0.065C0.394,-0.069 0.411,-0.074 0.427,-0.08C0.443,-0.086 0.457,-0.093 0.47,-0.1C0.482,-0.107 0.491,-0.114 0.498,-0.12L0.529,-0.063ZM0.318,-0.446C0.296,-0.446 0.275,-0.444 0.256,-0.439C0.236,-0.434 0.219,-0.427 0.204,-0.416C0.189,-0.405 0.176,-0.39 0.167,-0.373C0.157,-0.355 0.151,-0.333 0.148,-0.307L0.459,-0.307C0.456,-0.351 0.442,-0.385 0.417,-0.41C0.392,-0.434 0.359,-0.446 0.318,-0.446Z" style="fill:rgb(0,35,235);fill-rule:nonzero;"/>
                </g>
                <g transform="matrix(76,0,0,76,689.721,650.831)">
                    <path d="M0.108,-0.461C0.137,-0.478 0.169,-0.49 0.205,-0.497C0.241,-0.504 0.276,-0.508 0.311,-0.508C0.345,-0.508 0.373,-0.503 0.395,-0.492C0.416,-0.481 0.433,-0.468 0.446,-0.451C0.458,-0.434 0.466,-0.414 0.471,-0.393C0.475,-0.371 0.477,-0.349 0.477,-0.327C0.477,-0.302 0.476,-0.275 0.475,-0.246C0.474,-0.217 0.473,-0.189 0.472,-0.16C0.472,-0.127 0.474,-0.095 0.478,-0.065L0.545,-0.065L0.545,-0L0.412,-0L0.403,-0.075L0.398,-0.075C0.394,-0.069 0.388,-0.061 0.38,-0.052C0.372,-0.043 0.362,-0.034 0.349,-0.025C0.335,-0.016 0.32,-0.008 0.301,-0.001C0.282,0.006 0.26,0.009 0.235,0.009C0.186,0.009 0.147,-0.004 0.118,-0.029C0.089,-0.054 0.075,-0.089 0.075,-0.133C0.075,-0.167 0.083,-0.195 0.098,-0.218C0.113,-0.241 0.134,-0.258 0.162,-0.27C0.19,-0.282 0.224,-0.289 0.264,-0.291C0.303,-0.293 0.348,-0.29 0.397,-0.283C0.4,-0.314 0.401,-0.339 0.399,-0.36C0.396,-0.38 0.391,-0.396 0.383,-0.408C0.374,-0.42 0.363,-0.428 0.348,-0.434C0.333,-0.439 0.314,-0.441 0.292,-0.441C0.262,-0.441 0.233,-0.437 0.206,-0.429C0.179,-0.42 0.154,-0.412 0.133,-0.403L0.108,-0.461ZM0.255,-0.058C0.274,-0.058 0.291,-0.061 0.307,-0.067C0.323,-0.073 0.337,-0.081 0.349,-0.09C0.361,-0.099 0.371,-0.11 0.379,-0.121C0.387,-0.132 0.393,-0.142 0.397,-0.152L0.397,-0.222C0.362,-0.228 0.33,-0.231 0.301,-0.231C0.272,-0.231 0.246,-0.228 0.225,-0.222C0.204,-0.215 0.187,-0.205 0.175,-0.192C0.163,-0.179 0.157,-0.161 0.157,-0.14C0.157,-0.118 0.165,-0.099 0.18,-0.083C0.195,-0.066 0.22,-0.058 0.255,-0.058Z" style="fill:rgb(0,35,235);fill-rule:nonzero;"/>
                </g>
                <g transform="matrix(76,0,0,76,735.321,650.831)">
                    <path d="M0.119,-0.7L0.285,-0.7L0.285,-0.168C0.285,-0.127 0.292,-0.099 0.306,-0.082C0.319,-0.065 0.339,-0.057 0.366,-0.057C0.385,-0.057 0.403,-0.06 0.42,-0.067C0.436,-0.074 0.455,-0.085 0.476,-0.101L0.512,-0.046C0.501,-0.037 0.49,-0.028 0.477,-0.021C0.464,-0.014 0.451,-0.008 0.438,-0.003C0.425,0.003 0.411,0.006 0.398,0.009C0.385,0.012 0.372,0.013 0.361,0.013C0.336,0.013 0.314,0.01 0.295,0.004C0.276,-0.003 0.26,-0.013 0.247,-0.027C0.234,-0.041 0.224,-0.059 0.217,-0.083C0.21,-0.106 0.207,-0.134 0.207,-0.168L0.207,-0.633L0.119,-0.633L0.119,-0.7Z" style="fill:rgb(0,35,235);fill-rule:nonzero;"/>
                </g>
            </g>
            <g transform="matrix(1,0,0,1,-36.8851,99.29)">
                <g transform="matrix(76,0,0,76,530.121,650.831)">
                    <path d="M0.002,-0.7L0.162,-0.7L0.162,-0.443L0.167,-0.443C0.184,-0.465 0.207,-0.482 0.234,-0.494C0.261,-0.506 0.291,-0.512 0.323,-0.512C0.47,-0.512 0.543,-0.427 0.543,-0.258C0.543,-0.172 0.519,-0.106 0.472,-0.061C0.425,-0.015 0.357,0.008 0.27,0.008C0.229,0.008 0.191,0.004 0.158,-0.004C0.125,-0.012 0.1,-0.021 0.085,-0.032L0.085,-0.633L0.002,-0.633L0.002,-0.7ZM0.313,-0.445C0.273,-0.445 0.241,-0.434 0.216,-0.411C0.191,-0.388 0.173,-0.356 0.162,-0.315L0.162,-0.085C0.177,-0.077 0.196,-0.071 0.217,-0.066C0.238,-0.061 0.261,-0.059 0.284,-0.059C0.311,-0.059 0.335,-0.063 0.357,-0.071C0.378,-0.078 0.397,-0.09 0.412,-0.107C0.427,-0.123 0.439,-0.144 0.448,-0.169C0.456,-0.194 0.46,-0.224 0.46,-0.259C0.46,-0.284 0.457,-0.308 0.452,-0.331C0.447,-0.354 0.438,-0.374 0.427,-0.391C0.415,-0.408 0.4,-0.421 0.381,-0.431C0.362,-0.44 0.34,-0.445 0.313,-0.445Z" style="fill:rgb(0,35,235);fill-rule:nonzero;"/>
                </g>
                <g transform="matrix(76,0,0,76,575.721,650.831)">
                    <path d="M0.057,-0.25C0.057,-0.331 0.078,-0.395 0.12,-0.442C0.162,-0.489 0.222,-0.512 0.3,-0.512C0.342,-0.512 0.378,-0.505 0.409,-0.492C0.439,-0.478 0.464,-0.459 0.484,-0.436C0.504,-0.413 0.519,-0.385 0.529,-0.353C0.538,-0.321 0.543,-0.287 0.543,-0.25C0.543,-0.21 0.538,-0.174 0.527,-0.142C0.516,-0.109 0.501,-0.082 0.48,-0.059C0.459,-0.036 0.434,-0.019 0.404,-0.007C0.373,0.006 0.339,0.012 0.3,0.012C0.259,0.012 0.223,0.005 0.192,-0.009C0.161,-0.022 0.136,-0.041 0.116,-0.064C0.096,-0.087 0.081,-0.115 0.072,-0.147C0.062,-0.179 0.057,-0.213 0.057,-0.25ZM0.14,-0.25C0.14,-0.227 0.143,-0.203 0.149,-0.18C0.154,-0.157 0.163,-0.136 0.176,-0.117C0.189,-0.098 0.205,-0.083 0.226,-0.072C0.246,-0.061 0.271,-0.055 0.3,-0.055C0.353,-0.055 0.393,-0.071 0.421,-0.105C0.448,-0.137 0.461,-0.186 0.461,-0.25C0.461,-0.274 0.458,-0.298 0.453,-0.321C0.447,-0.343 0.438,-0.364 0.425,-0.383C0.412,-0.402 0.395,-0.417 0.375,-0.428C0.354,-0.439 0.329,-0.445 0.3,-0.445C0.247,-0.445 0.207,-0.429 0.18,-0.396C0.153,-0.363 0.14,-0.315 0.14,-0.25Z" style="fill:rgb(0,35,235);fill-rule:nonzero;"/>
                </g>
                <g transform="matrix(76,0,0,76,621.321,650.831)">
                    <path d="M0.057,-0.25C0.057,-0.331 0.078,-0.395 0.12,-0.442C0.162,-0.489 0.222,-0.512 0.3,-0.512C0.342,-0.512 0.378,-0.505 0.409,-0.492C0.439,-0.478 0.464,-0.459 0.484,-0.436C0.504,-0.413 0.519,-0.385 0.529,-0.353C0.538,-0.321 0.543,-0.287 0.543,-0.25C0.543,-0.21 0.538,-0.174 0.527,-0.142C0.516,-0.109 0.501,-0.082 0.48,-0.059C0.459,-0.036 0.434,-0.019 0.404,-0.007C0.373,0.006 0.339,0.012 0.3,0.012C0.259,0.012 0.223,0.005 0.192,-0.009C0.161,-0.022 0.136,-0.041 0.116,-0.064C0.096,-0.087 0.081,-0.115 0.072,-0.147C0.062,-0.179 0.057,-0.213 0.057,-0.25ZM0.14,-0.25C0.14,-0.227 0.143,-0.203 0.149,-0.18C0.154,-0.157 0.163,-0.136 0.176,-0.117C0.189,-0.098 0.205,-0.083 0.226,-0.072C0.246,-0.061 0.271,-0.055 0.3,-0.055C0.353,-0.055 0.393,-0.071 0.421,-0.105C0.448,-0.137 0.461,-0.186 0.461,-0.25C0.461,-0.274 0.458,-0.298 0.453,-0.321C0.447,-0.343 0.438,-0.364 0.425,-0.383C0.412,-0.402 0.395,-0.417 0.375,-0.428C0.354,-0.439 0.329,-0.445 0.3,-0.445C0.247,-0.445 0.207,-0.429 0.18,-0.396C0.153,-0.363 0.14,-0.315 0.14,-0.25Z" style="fill:rgb(0,35,235);fill-rule:nonzero;"/>
                </g>
                <g transform="matrix(76,0,0,76,666.921,650.831)">
                    <path d="M0.119,-0.7L0.285,-0.7L0.285,-0.168C0.285,-0.127 0.292,-0.099 0.306,-0.082C0.319,-0.065 0.339,-0.057 0.366,-0.057C0.385,-0.057 0.403,-0.06 0.42,-0.067C0.436,-0.074 0.455,-0.085 0.476,-0.101L0.512,-0.046C0.501,-0.037 0.49,-0.028 0.477,-0.021C0.464,-0.014 0.451,-0.008 0.438,-0.003C0.425,0.003 0.411,0.006 0.398,0.009C0.385,0.012 0.372,0.013 0.361,0.013C0.336,0.013 0.314,0.01 0.295,0.004C0.276,-0.003 0.26,-0.013 0.247,-0.027C0.234,-0.041 0.224,-0.059 0.217,-0.083C0.21,-0.106 0.207,-0.134 0.207,-0.168L0.207,-0.633L0.119,-0.633L0.119,-0.7Z" style="fill:rgb(0,35,235);fill-rule:nonzero;"/>
                </g>
                <g transform="matrix(76,0,0,76,712.521,650.831)">
                    <path d="M0.529,-0.063C0.517,-0.052 0.503,-0.042 0.487,-0.033C0.47,-0.024 0.452,-0.016 0.433,-0.009C0.414,-0.002 0.394,0.003 0.373,0.007C0.352,0.01 0.33,0.012 0.309,0.012C0.269,0.012 0.234,0.006 0.203,-0.007C0.172,-0.019 0.147,-0.037 0.126,-0.06C0.105,-0.083 0.09,-0.11 0.079,-0.142C0.068,-0.174 0.063,-0.21 0.063,-0.25C0.063,-0.292 0.069,-0.329 0.081,-0.362C0.092,-0.395 0.109,-0.422 0.131,-0.444C0.153,-0.466 0.18,-0.483 0.211,-0.495C0.242,-0.506 0.277,-0.512 0.316,-0.512C0.344,-0.512 0.372,-0.508 0.399,-0.501C0.426,-0.494 0.451,-0.48 0.472,-0.46C0.493,-0.439 0.509,-0.411 0.52,-0.376C0.531,-0.34 0.535,-0.294 0.532,-0.237L0.145,-0.237C0.145,-0.177 0.161,-0.132 0.194,-0.103C0.226,-0.073 0.269,-0.058 0.323,-0.058C0.341,-0.058 0.359,-0.06 0.377,-0.065C0.394,-0.069 0.411,-0.074 0.427,-0.08C0.443,-0.086 0.457,-0.093 0.47,-0.1C0.482,-0.107 0.491,-0.114 0.498,-0.12L0.529,-0.063ZM0.318,-0.446C0.296,-0.446 0.275,-0.444 0.256,-0.439C0.236,-0.434 0.219,-0.427 0.204,-0.416C0.189,-0.405 0.176,-0.39 0.167,-0.373C0.157,-0.355 0.151,-0.333 0.148,-0.307L0.459,-0.307C0.456,-0.351 0.442,-0.385 0.417,-0.41C0.392,-0.434 0.359,-0.446 0.318,-0.446Z" style="fill:rgb(0,35,235);fill-rule:nonzero;"/>
                </g>
                <g transform="matrix(76,0,0,76,758.121,650.831)">
                    <path d="M0.108,-0.461C0.137,-0.478 0.169,-0.49 0.205,-0.497C0.241,-0.504 0.276,-0.508 0.311,-0.508C0.345,-0.508 0.373,-0.503 0.395,-0.492C0.416,-0.481 0.433,-0.468 0.446,-0.451C0.458,-0.434 0.466,-0.414 0.471,-0.393C0.475,-0.371 0.477,-0.349 0.477,-0.327C0.477,-0.302 0.476,-0.275 0.475,-0.246C0.474,-0.217 0.473,-0.189 0.472,-0.16C0.472,-0.127 0.474,-0.095 0.478,-0.065L0.545,-0.065L0.545,-0L0.412,-0L0.403,-0.075L0.398,-0.075C0.394,-0.069 0.388,-0.061 0.38,-0.052C0.372,-0.043 0.362,-0.034 0.349,-0.025C0.335,-0.016 0.32,-0.008 0.301,-0.001C0.282,0.006 0.26,0.009 0.235,0.009C0.186,0.009 0.147,-0.004 0.118,-0.029C0.089,-0.054 0.075,-0.089 0.075,-0.133C0.075,-0.167 0.083,-0.195 0.098,-0.218C0.113,-0.241 0.134,-0.258 0.162,-0.27C0.19,-0.282 0.224,-0.289 0.264,-0.291C0.303,-0.293 0.348,-0.29 0.397,-0.283C0.4,-0.314 0.401,-0.339 0.399,-0.36C0.396,-0.38 0.391,-0.396 0.383,-0.408C0.374,-0.42 0.363,-0.428 0.348,-0.434C0.333,-0.439 0.314,-0.441 0.292,-0.441C0.262,-0.441 0.233,-0.437 0.206,-0.429C0.179,-0.42 0.154,-0.412 0.133,-0.403L0.108,-0.461ZM0.255,-0.058C0.274,-0.058 0.291,-0.061 0.307,-0.067C0.323,-0.073 0.337,-0.081 0.349,-0.09C0.361,-0.099 0.371,-0.11 0.379,-0.121C0.387,-0.132 0.393,-0.142 0.397,-0.152L0.397,-0.222C0.362,-0.228 0.33,-0.231 0.301,-0.231C0.272,-0.231 0.246,-0.228 0.225,-0.222C0.204,-0.215 0.187,-0.205 0.175,-0.192C0.163,-0.179 0.157,-0.161 0.157,-0.14C0.157,-0.118 0.165,-0.099 0.18,-0.083C0.195,-0.066 0.22,-0.058 0.255,-0.058Z" style="fill:rgb(0,35,235);fill-rule:nonzero;"/>
                </g>
                <g transform="matrix(76,0,0,76,803.721,650.831)">
                    <path d="M0.093,-0.325C0.093,-0.331 0.093,-0.339 0.093,-0.349C0.092,-0.358 0.092,-0.368 0.091,-0.379C0.09,-0.389 0.089,-0.399 0.089,-0.409C0.088,-0.419 0.086,-0.428 0.085,-0.435L0.018,-0.435L0.018,-0.5L0.152,-0.5L0.161,-0.419L0.166,-0.419C0.173,-0.43 0.182,-0.442 0.193,-0.453C0.204,-0.464 0.216,-0.474 0.231,-0.483C0.246,-0.492 0.262,-0.499 0.28,-0.504C0.298,-0.509 0.317,-0.512 0.337,-0.512C0.368,-0.512 0.395,-0.509 0.419,-0.502C0.442,-0.495 0.462,-0.484 0.478,-0.467C0.493,-0.45 0.505,-0.427 0.513,-0.398C0.521,-0.369 0.525,-0.332 0.525,-0.287L0.525,-0L0.447,-0L0.447,-0.272C0.447,-0.327 0.438,-0.369 0.42,-0.397C0.402,-0.425 0.369,-0.439 0.322,-0.439C0.305,-0.439 0.288,-0.436 0.272,-0.429C0.255,-0.422 0.24,-0.412 0.227,-0.401C0.214,-0.39 0.202,-0.377 0.192,-0.362C0.182,-0.347 0.175,-0.331 0.17,-0.314L0.17,-0L0.093,-0L0.093,-0.325Z" style="fill:rgb(0,35,235);fill-rule:nonzero;"/>
                </g>
            </g>
            <g transform="matrix(1,0,0,1,116.711,-386.74)">
                <g transform="matrix(76,0,0,76,484.521,650.831)">
                    <path d="M0.439,-0.423C0.424,-0.428 0.407,-0.433 0.39,-0.437C0.372,-0.44 0.354,-0.442 0.337,-0.442C0.272,-0.442 0.223,-0.427 0.191,-0.396C0.159,-0.365 0.143,-0.317 0.143,-0.25C0.143,-0.221 0.148,-0.195 0.157,-0.172C0.166,-0.149 0.18,-0.129 0.197,-0.113C0.214,-0.097 0.235,-0.085 0.26,-0.076C0.284,-0.067 0.311,-0.063 0.34,-0.063C0.371,-0.063 0.402,-0.068 0.432,-0.079C0.461,-0.09 0.486,-0.104 0.506,-0.121L0.541,-0.063C0.532,-0.055 0.52,-0.047 0.506,-0.038C0.492,-0.029 0.476,-0.021 0.458,-0.014C0.439,-0.006 0.419,0 0.397,0.005C0.374,0.01 0.35,0.012 0.324,0.012C0.281,0.012 0.243,0.006 0.21,-0.007C0.177,-0.019 0.149,-0.037 0.127,-0.06C0.105,-0.083 0.088,-0.11 0.077,-0.143C0.066,-0.175 0.06,-0.211 0.06,-0.25C0.06,-0.292 0.066,-0.329 0.078,-0.362C0.089,-0.395 0.106,-0.422 0.128,-0.444C0.15,-0.466 0.177,-0.483 0.208,-0.495C0.239,-0.506 0.274,-0.512 0.313,-0.512C0.362,-0.512 0.403,-0.508 0.434,-0.499C0.464,-0.49 0.491,-0.481 0.512,-0.47L0.511,-0.467L0.511,-0.328L0.439,-0.328L0.439,-0.423Z" style="fill:rgb(0,35,235);fill-rule:nonzero;"/>
                </g>
                <g transform="matrix(76,0,0,76,530.121,650.831)">
                    <path d="M0.004,-0.7L0.16,-0.7L0.16,-0.438L0.165,-0.438C0.186,-0.461 0.21,-0.48 0.237,-0.493C0.264,-0.505 0.298,-0.512 0.339,-0.512C0.371,-0.512 0.399,-0.509 0.423,-0.502C0.446,-0.495 0.466,-0.484 0.481,-0.467C0.496,-0.45 0.507,-0.428 0.514,-0.399C0.521,-0.37 0.525,-0.333 0.525,-0.288L0.525,-0L0.447,-0L0.447,-0.273C0.447,-0.302 0.445,-0.327 0.442,-0.348C0.439,-0.369 0.432,-0.387 0.423,-0.402C0.413,-0.416 0.4,-0.427 0.383,-0.434C0.366,-0.441 0.345,-0.445 0.319,-0.445C0.301,-0.445 0.283,-0.442 0.266,-0.436C0.249,-0.429 0.233,-0.421 0.219,-0.41C0.204,-0.399 0.192,-0.385 0.182,-0.37C0.171,-0.354 0.164,-0.337 0.16,-0.318L0.16,-0L0.083,-0L0.083,-0.633L0.004,-0.633L0.004,-0.7Z" style="fill:rgb(0,35,235);fill-rule:nonzero;"/>
                </g>
                <g transform="matrix(76,0,0,76,575.721,650.831)">
                    <path d="M0.108,-0.461C0.137,-0.478 0.169,-0.49 0.205,-0.497C0.241,-0.504 0.276,-0.508 0.311,-0.508C0.345,-0.508 0.373,-0.503 0.395,-0.492C0.416,-0.481 0.433,-0.468 0.446,-0.451C0.458,-0.434 0.466,-0.414 0.471,-0.393C0.475,-0.371 0.477,-0.349 0.477,-0.327C0.477,-0.302 0.476,-0.275 0.475,-0.246C0.474,-0.217 0.473,-0.189 0.472,-0.16C0.472,-0.127 0.474,-0.095 0.478,-0.065L0.545,-0.065L0.545,-0L0.412,-0L0.403,-0.075L0.398,-0.075C0.394,-0.069 0.388,-0.061 0.38,-0.052C0.372,-0.043 0.362,-0.034 0.349,-0.025C0.335,-0.016 0.32,-0.008 0.301,-0.001C0.282,0.006 0.26,0.009 0.235,0.009C0.186,0.009 0.147,-0.004 0.118,-0.029C0.089,-0.054 0.075,-0.089 0.075,-0.133C0.075,-0.167 0.083,-0.195 0.098,-0.218C0.113,-0.241 0.134,-0.258 0.162,-0.27C0.19,-0.282 0.224,-0.289 0.264,-0.291C0.303,-0.293 0.348,-0.29 0.397,-0.283C0.4,-0.314 0.401,-0.339 0.399,-0.36C0.396,-0.38 0.391,-0.396 0.383,-0.408C0.374,-0.42 0.363,-0.428 0.348,-0.434C0.333,-0.439 0.314,-0.441 0.292,-0.441C0.262,-0.441 0.233,-0.437 0.206,-0.429C0.179,-0.42 0.154,-0.412 0.133,-0.403L0.108,-0.461ZM0.255,-0.058C0.274,-0.058 0.291,-0.061 0.307,-0.067C0.323,-0.073 0.337,-0.081 0.349,-0.09C0.361,-0.099 0.371,-0.11 0.379,-0.121C0.387,-0.132 0.393,-0.142 0.397,-0.152L0.397,-0.222C0.362,-0.228 0.33,-0.231 0.301,-0.231C0.272,-0.231 0.246,-0.228 0.225,-0.222C0.204,-0.215 0.187,-0.205 0.175,-0.192C0.163,-0.179 0.157,-0.161 0.157,-0.14C0.157,-0.118 0.165,-0.099 0.18,-0.083C0.195,-0.066 0.22,-0.058 0.255,-0.058Z" style="fill:rgb(0,35,235);fill-rule:nonzero;"/>
                </g>
                <g transform="matrix(76,0,0,76,621.321,650.831)">
                    <path d="M0.066,-0L0.066,-0.067L0.201,-0.067L0.201,-0.433L0.066,-0.433L0.066,-0.5L0.253,-0.5L0.269,-0.435L0.274,-0.435C0.297,-0.456 0.322,-0.473 0.35,-0.488C0.378,-0.503 0.411,-0.51 0.45,-0.51C0.473,-0.51 0.491,-0.506 0.505,-0.497C0.518,-0.488 0.529,-0.476 0.537,-0.459C0.544,-0.442 0.549,-0.422 0.552,-0.399C0.555,-0.375 0.556,-0.348 0.556,-0.318L0.486,-0.317C0.486,-0.36 0.482,-0.391 0.474,-0.411C0.465,-0.431 0.45,-0.441 0.428,-0.441C0.407,-0.441 0.389,-0.438 0.372,-0.432C0.355,-0.426 0.341,-0.419 0.329,-0.41C0.316,-0.401 0.306,-0.393 0.297,-0.384C0.288,-0.375 0.282,-0.368 0.278,-0.362L0.278,-0.067L0.47,-0.067L0.47,-0L0.066,-0Z" style="fill:rgb(0,35,235);fill-rule:nonzero;"/>
                </g>
                <g transform="matrix(76,0,0,76,666.921,650.831)">
                    <path d="M0.108,-0.461C0.137,-0.478 0.169,-0.49 0.205,-0.497C0.241,-0.504 0.276,-0.508 0.311,-0.508C0.345,-0.508 0.373,-0.503 0.395,-0.492C0.416,-0.481 0.433,-0.468 0.446,-0.451C0.458,-0.434 0.466,-0.414 0.471,-0.393C0.475,-0.371 0.477,-0.349 0.477,-0.327C0.477,-0.302 0.476,-0.275 0.475,-0.246C0.474,-0.217 0.473,-0.189 0.472,-0.16C0.472,-0.127 0.474,-0.095 0.478,-0.065L0.545,-0.065L0.545,-0L0.412,-0L0.403,-0.075L0.398,-0.075C0.394,-0.069 0.388,-0.061 0.38,-0.052C0.372,-0.043 0.362,-0.034 0.349,-0.025C0.335,-0.016 0.32,-0.008 0.301,-0.001C0.282,0.006 0.26,0.009 0.235,0.009C0.186,0.009 0.147,-0.004 0.118,-0.029C0.089,-0.054 0.075,-0.089 0.075,-0.133C0.075,-0.167 0.083,-0.195 0.098,-0.218C0.113,-0.241 0.134,-0.258 0.162,-0.27C0.19,-0.282 0.224,-0.289 0.264,-0.291C0.303,-0.293 0.348,-0.29 0.397,-0.283C0.4,-0.314 0.401,-0.339 0.399,-0.36C0.396,-0.38 0.391,-0.396 0.383,-0.408C0.374,-0.42 0.363,-0.428 0.348,-0.434C0.333,-0.439 0.314,-0.441 0.292,-0.441C0.262,-0.441 0.233,-0.437 0.206,-0.429C0.179,-0.42 0.154,-0.412 0.133,-0.403L0.108,-0.461ZM0.255,-0.058C0.274,-0.058 0.291,-0.061 0.307,-0.067C0.323,-0.073 0.337,-0.081 0.349,-0.09C0.361,-0.099 0.371,-0.11 0.379,-0.121C0.387,-0.132 0.393,-0.142 0.397,-0.152L0.397,-0.222C0.362,-0.228 0.33,-0.231 0.301,-0.231C0.272,-0.231 0.246,-0.228 0.225,-0.222C0.204,-0.215 0.187,-0.205 0.175,-0.192C0.163,-0.179 0.157,-0.161 0.157,-0.14C0.157,-0.118 0.165,-0.099 0.18,-0.083C0.195,-0.066 0.22,-0.058 0.255,-0.058Z" style="fill:rgb(0,35,235);fill-rule:nonzero;"/>
                </g>
                <g transform="matrix(76,0,0,76,712.521,650.831)">
                    <path d="M0.439,-0.423C0.424,-0.428 0.407,-0.433 0.39,-0.437C0.372,-0.44 0.354,-0.442 0.337,-0.442C0.272,-0.442 0.223,-0.427 0.191,-0.396C0.159,-0.365 0.143,-0.317 0.143,-0.25C0.143,-0.221 0.148,-0.195 0.157,-0.172C0.166,-0.149 0.18,-0.129 0.197,-0.113C0.214,-0.097 0.235,-0.085 0.26,-0.076C0.284,-0.067 0.311,-0.063 0.34,-0.063C0.371,-0.063 0.402,-0.068 0.432,-0.079C0.461,-0.09 0.486,-0.104 0.506,-0.121L0.541,-0.063C0.532,-0.055 0.52,-0.047 0.506,-0.038C0.492,-0.029 0.476,-0.021 0.458,-0.014C0.439,-0.006 0.419,0 0.397,0.005C0.374,0.01 0.35,0.012 0.324,0.012C0.281,0.012 0.243,0.006 0.21,-0.007C0.177,-0.019 0.149,-0.037 0.127,-0.06C0.105,-0.083 0.088,-0.11 0.077,-0.143C0.066,-0.175 0.06,-0.211 0.06,-0.25C0.06,-0.292 0.066,-0.329 0.078,-0.362C0.089,-0.395 0.106,-0.422 0.128,-0.444C0.15,-0.466 0.177,-0.483 0.208,-0.495C0.239,-0.506 0.274,-0.512 0.313,-0.512C0.362,-0.512 0.403,-0.508 0.434,-0.499C0.464,-0.49 0.491,-0.481 0.512,-0.47L0.511,-0.467L0.511,-0.328L0.439,-0.328L0.439,-0.423Z" style="fill:rgb(0,35,235);fill-rule:nonzero;"/>
                </g>
                <g transform="matrix(76,0,0,76,758.121,650.831)">
                    <path d="M0.031,-0.5L0.15,-0.5L0.15,-0.599L0.228,-0.621L0.228,-0.5L0.495,-0.5L0.495,-0.433L0.228,-0.433L0.228,-0.197C0.228,-0.148 0.24,-0.112 0.264,-0.089C0.287,-0.066 0.321,-0.054 0.365,-0.054C0.395,-0.054 0.421,-0.06 0.444,-0.071C0.466,-0.082 0.486,-0.095 0.504,-0.108L0.53,-0.049C0.507,-0.03 0.479,-0.015 0.447,-0.004C0.414,0.007 0.381,0.013 0.347,0.013C0.32,0.013 0.295,0.009 0.272,0.002C0.248,-0.006 0.227,-0.018 0.209,-0.034C0.191,-0.05 0.177,-0.071 0.166,-0.096C0.155,-0.121 0.15,-0.15 0.15,-0.185L0.15,-0.433L0.031,-0.433L0.031,-0.5Z" style="fill:rgb(0,35,235);fill-rule:nonzero;"/>
                </g>
                <g transform="matrix(76,0,0,76,803.721,650.831)">
                    <path d="M0.529,-0.063C0.517,-0.052 0.503,-0.042 0.487,-0.033C0.47,-0.024 0.452,-0.016 0.433,-0.009C0.414,-0.002 0.394,0.003 0.373,0.007C0.352,0.01 0.33,0.012 0.309,0.012C0.269,0.012 0.234,0.006 0.203,-0.007C0.172,-0.019 0.147,-0.037 0.126,-0.06C0.105,-0.083 0.09,-0.11 0.079,-0.142C0.068,-0.174 0.063,-0.21 0.063,-0.25C0.063,-0.292 0.069,-0.329 0.081,-0.362C0.092,-0.395 0.109,-0.422 0.131,-0.444C0.153,-0.466 0.18,-0.483 0.211,-0.495C0.242,-0.506 0.277,-0.512 0.316,-0.512C0.344,-0.512 0.372,-0.508 0.399,-0.501C0.426,-0.494 0.451,-0.48 0.472,-0.46C0.493,-0.439 0.509,-0.411 0.52,-0.376C0.531,-0.34 0.535,-0.294 0.532,-0.237L0.145,-0.237C0.145,-0.177 0.161,-0.132 0.194,-0.103C0.226,-0.073 0.269,-0.058 0.323,-0.058C0.341,-0.058 0.359,-0.06 0.377,-0.065C0.394,-0.069 0.411,-0.074 0.427,-0.08C0.443,-0.086 0.457,-0.093 0.47,-0.1C0.482,-0.107 0.491,-0.114 0.498,-0.12L0.529,-0.063ZM0.318,-0.446C0.296,-0.446 0.275,-0.444 0.256,-0.439C0.236,-0.434 0.219,-0.427 0.204,-0.416C0.189,-0.405 0.176,-0.39 0.167,-0.373C0.157,-0.355 0.151,-0.333 0.148,-0.307L0.459,-0.307C0.456,-0.351 0.442,-0.385 0.417,-0.41C0.392,-0.434 0.359,-0.446 0.318,-0.446Z" style="fill:rgb(0,35,235);fill-rule:nonzero;"/>
                </g>
                <g transform="matrix(76,0,0,76,849.321,650.831)">
                    <path d="M0.066,-0L0.066,-0.067L0.201,-0.067L0.201,-0.433L0.066,-0.433L0.066,-0.5L0.253,-0.5L0.269,-0.435L0.274,-0.435C0.297,-0.456 0.322,-0.473 0.35,-0.488C0.378,-0.503 0.411,-0.51 0.45,-0.51C0.473,-0.51 0.491,-0.506 0.505,-0.497C0.518,-0.488 0.529,-0.476 0.537,-0.459C0.544,-0.442 0.549,-0.422 0.552,-0.399C0.555,-0.375 0.556,-0.348 0.556,-0.318L0.486,-0.317C0.486,-0.36 0.482,-0.391 0.474,-0.411C0.465,-0.431 0.45,-0.441 0.428,-0.441C0.407,-0.441 0.389,-0.438 0.372,-0.432C0.355,-0.426 0.341,-0.419 0.329,-0.41C0.316,-0.401 0.306,-0.393 0.297,-0.384C0.288,-0.375 0.282,-0.368 0.278,-0.362L0.278,-0.067L0.47,-0.067L0.47,-0L0.066,-0Z" style="fill:rgb(0,35,235);fill-rule:nonzero;"/>
                </g>
            </g>
            <g transform="matrix(1,0,0,1,268.635,-74.4934)">
                <g transform="matrix(76,0,0,76,530.121,650.831)">
                    <path d="M0.105,-0L0.105,-0.067L0.279,-0.067L0.279,-0.433L0.105,-0.433L0.105,-0.5L0.359,-0.5L0.359,-0.067L0.529,-0.067L0.529,-0L0.105,-0ZM0.252,-0.642C0.252,-0.66 0.258,-0.676 0.27,-0.689C0.282,-0.701 0.297,-0.708 0.316,-0.708C0.335,-0.708 0.352,-0.701 0.365,-0.689C0.378,-0.676 0.384,-0.66 0.384,-0.642C0.384,-0.625 0.378,-0.61 0.365,-0.598C0.352,-0.586 0.335,-0.58 0.316,-0.58C0.297,-0.58 0.282,-0.586 0.27,-0.598C0.258,-0.61 0.252,-0.625 0.252,-0.642Z" style="fill:rgb(0,35,235);fill-rule:nonzero;"/>
                </g>
                <g transform="matrix(76,0,0,76,575.721,650.831)">
                    <path d="M0.093,-0.325C0.093,-0.331 0.093,-0.339 0.093,-0.349C0.092,-0.358 0.092,-0.368 0.091,-0.379C0.09,-0.389 0.089,-0.399 0.089,-0.409C0.088,-0.419 0.086,-0.428 0.085,-0.435L0.018,-0.435L0.018,-0.5L0.152,-0.5L0.161,-0.419L0.166,-0.419C0.173,-0.43 0.182,-0.442 0.193,-0.453C0.204,-0.464 0.216,-0.474 0.231,-0.483C0.246,-0.492 0.262,-0.499 0.28,-0.504C0.298,-0.509 0.317,-0.512 0.337,-0.512C0.368,-0.512 0.395,-0.509 0.419,-0.502C0.442,-0.495 0.462,-0.484 0.478,-0.467C0.493,-0.45 0.505,-0.427 0.513,-0.398C0.521,-0.369 0.525,-0.332 0.525,-0.287L0.525,-0L0.447,-0L0.447,-0.272C0.447,-0.327 0.438,-0.369 0.42,-0.397C0.402,-0.425 0.369,-0.439 0.322,-0.439C0.305,-0.439 0.288,-0.436 0.272,-0.429C0.255,-0.422 0.24,-0.412 0.227,-0.401C0.214,-0.39 0.202,-0.377 0.192,-0.362C0.182,-0.347 0.175,-0.331 0.17,-0.314L0.17,-0L0.093,-0L0.093,-0.325Z" style="fill:rgb(0,35,235);fill-rule:nonzero;"/>
                </g>
                <g transform="matrix(76,0,0,76,621.321,650.831)">
                    <path d="M0.031,-0.5L0.15,-0.5L0.15,-0.599L0.228,-0.621L0.228,-0.5L0.495,-0.5L0.495,-0.433L0.228,-0.433L0.228,-0.197C0.228,-0.148 0.24,-0.112 0.264,-0.089C0.287,-0.066 0.321,-0.054 0.365,-0.054C0.395,-0.054 0.421,-0.06 0.444,-0.071C0.466,-0.082 0.486,-0.095 0.504,-0.108L0.53,-0.049C0.507,-0.03 0.479,-0.015 0.447,-0.004C0.414,0.007 0.381,0.013 0.347,0.013C0.32,0.013 0.295,0.009 0.272,0.002C0.248,-0.006 0.227,-0.018 0.209,-0.034C0.191,-0.05 0.177,-0.071 0.166,-0.096C0.155,-0.121 0.15,-0.15 0.15,-0.185L0.15,-0.433L0.031,-0.433L0.031,-0.5Z" style="fill:rgb(0,35,235);fill-rule:nonzero;"/>
                </g>
                <g transform="matrix(76,0,0,76,666.921,650.831)">
                    <path d="M0.529,-0.063C0.517,-0.052 0.503,-0.042 0.487,-0.033C0.47,-0.024 0.452,-0.016 0.433,-0.009C0.414,-0.002 0.394,0.003 0.373,0.007C0.352,0.01 0.33,0.012 0.309,0.012C0.269,0.012 0.234,0.006 0.203,-0.007C0.172,-0.019 0.147,-0.037 0.126,-0.06C0.105,-0.083 0.09,-0.11 0.079,-0.142C0.068,-0.174 0.063,-0.21 0.063,-0.25C0.063,-0.292 0.069,-0.329 0.081,-0.362C0.092,-0.395 0.109,-0.422 0.131,-0.444C0.153,-0.466 0.18,-0.483 0.211,-0.495C0.242,-0.506 0.277,-0.512 0.316,-0.512C0.344,-0.512 0.372,-0.508 0.399,-0.501C0.426,-0.494 0.451,-0.48 0.472,-0.46C0.493,-0.439 0.509,-0.411 0.52,-0.376C0.531,-0.34 0.535,-0.294 0.532,-0.237L0.145,-0.237C0.145,-0.177 0.161,-0.132 0.194,-0.103C0.226,-0.073 0.269,-0.058 0.323,-0.058C0.341,-0.058 0.359,-0.06 0.377,-0.065C0.394,-0.069 0.411,-0.074 0.427,-0.08C0.443,-0.086 0.457,-0.093 0.47,-0.1C0.482,-0.107 0.491,-0.114 0.498,-0.12L0.529,-0.063ZM0.318,-0.446C0.296,-0.446 0.275,-0.444 0.256,-0.439C0.236,-0.434 0.219,-0.427 0.204,-0.416C0.189,-0.405 0.176,-0.39 0.167,-0.373C0.157,-0.355 0.151,-0.333 0.148,-0.307L0.459,-0.307C0.456,-0.351 0.442,-0.385 0.417,-0.41C0.392,-0.434 0.359,-0.446 0.318,-0.446Z" style="fill:rgb(0,35,235);fill-rule:nonzero;"/>
                </g>
                <g transform="matrix(76,0,0,76,712.521,650.831)">
                    <path d="M0.524,0.025C0.524,0.056 0.518,0.084 0.506,0.108C0.494,0.131 0.478,0.151 0.457,0.166C0.436,0.181 0.411,0.193 0.383,0.201C0.355,0.208 0.325,0.212 0.292,0.212C0.253,0.212 0.218,0.208 0.189,0.2C0.16,0.192 0.134,0.182 0.113,0.169L0.151,0.098C0.157,0.103 0.165,0.109 0.175,0.114C0.184,0.118 0.195,0.123 0.208,0.128C0.221,0.132 0.234,0.135 0.249,0.138C0.263,0.141 0.277,0.142 0.291,0.142C0.32,0.142 0.345,0.139 0.365,0.134C0.384,0.129 0.4,0.12 0.412,0.109C0.424,0.098 0.433,0.083 0.438,0.065C0.443,0.047 0.446,0.025 0.446,-0.001L0.446,-0.057L0.442,-0.057C0.427,-0.035 0.407,-0.018 0.383,-0.006C0.359,0.006 0.328,0.012 0.29,0.012C0.214,0.012 0.158,-0.009 0.123,-0.052C0.087,-0.094 0.069,-0.16 0.069,-0.249C0.069,-0.334 0.092,-0.399 0.137,-0.443C0.182,-0.486 0.25,-0.508 0.339,-0.508C0.38,-0.508 0.416,-0.505 0.445,-0.5C0.474,-0.494 0.5,-0.487 0.524,-0.478L0.524,0.025ZM0.301,-0.055C0.342,-0.055 0.374,-0.066 0.397,-0.087C0.42,-0.108 0.437,-0.14 0.446,-0.183L0.446,-0.42C0.417,-0.434 0.376,-0.441 0.323,-0.441C0.27,-0.441 0.228,-0.425 0.197,-0.394C0.166,-0.363 0.151,-0.315 0.151,-0.25C0.151,-0.221 0.154,-0.195 0.159,-0.172C0.164,-0.148 0.173,-0.127 0.185,-0.11C0.196,-0.093 0.212,-0.079 0.231,-0.07C0.25,-0.06 0.273,-0.055 0.301,-0.055Z" style="fill:rgb(0,35,235);fill-rule:nonzero;"/>
                </g>
                <g transform="matrix(76,0,0,76,758.121,650.831)">
                    <path d="M0.529,-0.063C0.517,-0.052 0.503,-0.042 0.487,-0.033C0.47,-0.024 0.452,-0.016 0.433,-0.009C0.414,-0.002 0.394,0.003 0.373,0.007C0.352,0.01 0.33,0.012 0.309,0.012C0.269,0.012 0.234,0.006 0.203,-0.007C0.172,-0.019 0.147,-0.037 0.126,-0.06C0.105,-0.083 0.09,-0.11 0.079,-0.142C0.068,-0.174 0.063,-0.21 0.063,-0.25C0.063,-0.292 0.069,-0.329 0.081,-0.362C0.092,-0.395 0.109,-0.422 0.131,-0.444C0.153,-0.466 0.18,-0.483 0.211,-0.495C0.242,-0.506 0.277,-0.512 0.316,-0.512C0.344,-0.512 0.372,-0.508 0.399,-0.501C0.426,-0.494 0.451,-0.48 0.472,-0.46C0.493,-0.439 0.509,-0.411 0.52,-0.376C0.531,-0.34 0.535,-0.294 0.532,-0.237L0.145,-0.237C0.145,-0.177 0.161,-0.132 0.194,-0.103C0.226,-0.073 0.269,-0.058 0.323,-0.058C0.341,-0.058 0.359,-0.06 0.377,-0.065C0.394,-0.069 0.411,-0.074 0.427,-0.08C0.443,-0.086 0.457,-0.093 0.47,-0.1C0.482,-0.107 0.491,-0.114 0.498,-0.12L0.529,-0.063ZM0.318,-0.446C0.296,-0.446 0.275,-0.444 0.256,-0.439C0.236,-0.434 0.219,-0.427 0.204,-0.416C0.189,-0.405 0.176,-0.39 0.167,-0.373C0.157,-0.355 0.151,-0.333 0.148,-0.307L0.459,-0.307C0.456,-0.351 0.442,-0.385 0.417,-0.41C0.392,-0.434 0.359,-0.446 0.318,-0.446Z" style="fill:rgb(0,35,235);fill-rule:nonzero;"/>
                </g>
                <g transform="matrix(76,0,0,76,803.721,650.831)">
                    <path d="M0.066,-0L0.066,-0.067L0.201,-0.067L0.201,-0.433L0.066,-0.433L0.066,-0.5L0.253,-0.5L0.269,-0.435L0.274,-0.435C0.297,-0.456 0.322,-0.473 0.35,-0.488C0.378,-0.503 0.411,-0.51 0.45,-0.51C0.473,-0.51 0.491,-0.506 0.505,-0.497C0.518,-0.488 0.529,-0.476 0.537,-0.459C0.544,-0.442 0.549,-0.422 0.552,-0.399C0.555,-0.375 0.556,-0.348 0.556,-0.318L0.486,-0.317C0.486,-0.36 0.482,-0.391 0.474,-0.411C0.465,-0.431 0.45,-0.441 0.428,-0.441C0.407,-0.441 0.389,-0.438 0.372,-0.432C0.355,-0.426 0.341,-0.419 0.329,-0.41C0.316,-0.401 0.306,-0.393 0.297,-0.384C0.288,-0.375 0.282,-0.368 0.278,-0.362L0.278,-0.067L0.47,-0.067L0.47,-0L0.066,-0Z" style="fill:rgb(0,35,235);fill-rule:nonzero;"/>
                </g>
            </g>
        </g>
    </g>
</svg>
