<?xml version="1.0" encoding="UTF-8" standalone="no"?>
<!DOCTYPE svg PUBLIC "-//W3C//DTD SVG 1.1//EN" "http://www.w3.org/Graphics/SVG/1.1/DTD/svg11.dtd">
<svg width="100%" height="100%" viewBox="0 0 718 209" version="1.1" xmlns="http://www.w3.org/2000/svg" xmlns:xlink="http://www.w3.org/1999/xlink" xml:space="preserve" xmlns:serif="http://www.serif.com/" style="fill-rule:evenodd;clip-rule:evenodd;stroke-linecap:round;stroke-miterlimit:10;">
    <g transform="matrix(1,0,0,1,-160,-1587)">
        <rect id="Artboard4" x="0" y="1152" width="1416" height="1244" style="fill:none;"/>
        <g id="Artboard41" serif:id="Artboard4">
            <g transform="matrix(0.970443,0,0,1.00943,4.87685,255.584)">
                <rect x="165" y="1325" width="203" height="197" style="fill:none;stroke:black;stroke-width:4.04px;"/>
            </g>
            <g transform="matrix(0.970443,0,0,1.00943,260.46,255.584)">
                <rect x="165" y="1325" width="203" height="197" style="fill:white;stroke:black;stroke-width:4.04px;"/>
            </g>
            <g transform="matrix(0.970443,0,0,1.00943,516.553,255.584)">
                <rect x="165" y="1325" width="203" height="197" style="fill:none;stroke:black;stroke-width:4.04px;"/>
            </g>
            <g transform="matrix(1,0,0,1,0,268.075)">
                <path d="M165,1325L283,1325L249,1424.43L165,1463L165,1325Z" style="fill:white;stroke:black;stroke-width:4px;"/>
            </g>
            <g transform="matrix(1,0,0,1,511.676,268.075)">
                <path d="M165,1325L283,1325L249,1424.43L165,1463L165,1325Z" style="fill:white;stroke:black;stroke-width:4px;"/>
            </g>
            <g transform="matrix(1,0,0,1,0,268.075)">
                <path d="M165,1463L249,1424.43L319,1523.86L165,1523.86L165,1463Z" style="fill:white;stroke:black;stroke-width:4px;"/>
            </g>
            <g transform="matrix(1,0,0,1,511.676,268.075)">
                <path d="M165,1463L249,1424.43L319,1523.86L165,1523.86L165,1463Z" style="fill:white;stroke:black;stroke-width:4px;"/>
            </g>
            <g transform="matrix(1,0,0,1,0,268.075)">
                <path d="M249,1424.43L283,1325L362,1325L362,1523.86L319,1523.86" style="fill:white;stroke:black;stroke-width:4px;"/>
            </g>
            <g transform="matrix(1,0,0,1,511.676,268.075)">
                <path d="M249,1424.43L283,1325L362,1325L362,1523.86L319,1523.86" style="fill:white;stroke:black;stroke-width:4px;"/>
            </g>
            <g transform="matrix(1,0,0,1,0,268.075)">
                <path d="M249,1424.43L319,1523.86" style="fill:none;stroke:black;stroke-width:4px;"/>
            </g>
            <g transform="matrix(1,0,0,1,511.676,268.075)">
                <path d="M249,1424.43L319,1523.86" style="fill:none;stroke:black;stroke-width:4px;"/>
            </g>
            <g transform="matrix(1,0,0,1,0,268.075)">
                <g transform="matrix(1,-0,-0,1,160,1318.93)">
                    <path d="M231,95.003L252,105.503L231,116.003L231,95.003Z"/>
                    <path d="M214,105.503L235.2,105.503" style="fill:none;stroke:black;stroke-width:7px;stroke-linecap:square;"/>
                </g>
            </g>
            <g transform="matrix(1,0,0,1,256.005,268.075)">
                <g transform="matrix(1,-0,-0,1,-96.0046,1318.93)">
                    <path d="M487.005,95.003L508.005,105.503L487.005,116.003L487.005,95.003Z"/>
                    <path d="M470.005,105.503L491.205,105.503" style="fill:none;stroke:black;stroke-width:7px;stroke-linecap:square;"/>
                </g>
            </g>
            <g transform="matrix(0.761905,0,0,0.761905,27.8095,381.075)">
                <circle cx="268" cy="1794" r="42" style="fill:rgb(221,0,229);stroke:black;stroke-width:9.19px;stroke-linecap:square;"/>
            </g>
            <g transform="matrix(0.525435,0,0,0.525435,606.245,805.301)">
                <circle cx="268" cy="1794" r="42" style="fill:rgb(247,102,255);stroke:black;stroke-width:13.32px;stroke-linecap:square;"/>
            </g>
            <g transform="matrix(0.430927,0,0,0.430927,193.413,907.09)">
                <circle cx="268" cy="1794" r="42" style="fill:rgb(254,230,255);stroke:black;stroke-width:16.24px;stroke-linecap:square;"/>
            </g>
            <g transform="matrix(0.76426,0,0,0.76426,619.141,309.09)">
                <circle cx="268" cy="1794" r="42" style="fill:rgb(242,0,255);stroke:black;stroke-width:9.16px;stroke-linecap:square;"/>
            </g>
            <g transform="matrix(0.589363,0,0,0.589363,50.2976,580.005)">
                <circle cx="268" cy="1794" r="42" style="fill:rgb(251,128,255);stroke:black;stroke-width:11.88px;stroke-linecap:square;"/>
            </g>
            <g transform="matrix(0.620673,0,0,0.620673,554.653,533.587)">
                <circle cx="268" cy="1794" r="42" style="fill:rgb(248,51,255);stroke:black;stroke-width:11.28px;stroke-linecap:square;"/>
            </g>
            <g transform="matrix(0.909794,0,0,0.909794,46.8245,152.674)">
                <circle cx="519.083" cy="1692.5" r="55.429" style="fill:rgb(141,0,149);stroke:black;stroke-width:7.69px;stroke-linecap:square;"/>
            </g>
        </g>
    </g>
</svg>
