<?xml version="1.0" encoding="UTF-8" standalone="no"?>
<!DOCTYPE svg PUBLIC "-//W3C//DTD SVG 1.1//EN" "http://www.w3.org/Graphics/SVG/1.1/DTD/svg11.dtd">
<svg width="100%" height="100%" viewBox="0 0 1941 528" version="1.1" xmlns="http://www.w3.org/2000/svg" xmlns:xlink="http://www.w3.org/1999/xlink" xml:space="preserve" xmlns:serif="http://www.serif.com/" style="fill-rule:evenodd;clip-rule:evenodd;stroke-linejoin:bevel;stroke-miterlimit:10;">
    <rect id="Artboard7" x="-99" y="-313" width="4375" height="2153" style="fill:none;"/>
    <g id="Artboard71" serif:id="Artboard7">
        <path d="M713.09,463.303L740.522,463.303L740.522,468.631L719.066,468.631L719.066,485.839L739.082,485.839L739.082,491.167L719.066,491.167L719.066,513.703L713.09,513.703L713.09,463.303Z" style="fill-rule:nonzero;"/>
        <rect x="751.682" y="463.303" width="5.976" height="50.4" style="fill-rule:nonzero;"/>
        <path d="M801.074,513.703L771.266,513.703L771.266,463.303L777.242,463.303L777.242,508.375L801.074,508.375L801.074,513.703Z" style="fill-rule:nonzero;"/>
        <path d="M832.25,468.631L816.554,468.631L816.554,513.703L810.578,513.703L810.578,468.631L794.882,468.631L794.882,463.303L832.25,463.303L832.25,468.631Z" style="fill-rule:nonzero;"/>
        <path d="M839.666,463.303L867.098,463.303L867.098,468.631L845.642,468.631L845.642,485.119L865.298,485.119L865.298,490.447L845.642,490.447L845.642,508.375L867.458,508.375L867.458,513.703L839.666,513.703L839.666,463.303Z" style="fill-rule:nonzero;"/>
        <path d="M878.258,463.807C880.082,463.471 882.182,463.207 884.558,463.015C886.934,462.823 889.106,462.727 891.074,462.727C893.282,462.727 895.382,462.967 897.374,463.447C899.366,463.927 901.118,464.719 902.63,465.823C904.142,466.927 905.354,468.367 906.266,470.143C907.178,471.919 907.634,474.079 907.634,476.623C907.634,480.559 906.554,483.751 904.394,486.199C902.234,488.647 899.498,490.279 896.186,491.095L899.642,493.759L912.17,513.703L905.186,513.703L891.29,491.959L884.234,490.879L884.234,513.703L878.258,513.703L878.258,463.807ZM891.218,467.911L889.274,467.911C888.602,467.911 887.954,467.935 887.33,467.983C886.706,468.031 886.118,468.079 885.566,468.127C885.014,468.175 884.57,468.247 884.234,468.343L884.234,486.919L889.85,486.919C893.162,486.919 895.898,486.103 898.058,484.471C900.218,482.839 901.298,480.295 901.298,476.839C901.298,474.247 900.41,472.111 898.634,470.431C896.858,468.751 894.386,467.911 891.218,467.911Z" style="fill-rule:nonzero;"/>
        <path d="M1319.91,463.807C1321.74,463.471 1323.84,463.207 1326.21,463.015C1328.59,462.823 1330.76,462.727 1332.73,462.727C1334.94,462.727 1337.04,462.967 1339.03,463.447C1341.02,463.927 1342.77,464.719 1344.28,465.823C1345.8,466.927 1347.01,468.367 1347.92,470.143C1348.83,471.919 1349.29,474.079 1349.29,476.623C1349.29,480.559 1348.21,483.751 1346.05,486.199C1343.89,488.647 1341.15,490.279 1337.84,491.095L1341.3,493.759L1353.82,513.703L1346.84,513.703L1332.94,491.959L1325.89,490.879L1325.89,513.703L1319.91,513.703L1319.91,463.807ZM1332.87,467.911L1330.93,467.911C1330.26,467.911 1329.61,467.935 1328.98,467.983C1328.36,468.031 1327.77,468.079 1327.22,468.127C1326.67,468.175 1326.22,468.247 1325.89,468.343L1325.89,486.919L1331.5,486.919C1334.82,486.919 1337.55,486.103 1339.71,484.471C1341.87,482.839 1342.95,480.295 1342.95,476.839C1342.95,474.247 1342.06,472.111 1340.29,470.431C1338.51,468.751 1336.04,467.911 1332.87,467.911Z" style="fill-rule:nonzero;"/>
        <path d="M1362.75,463.303L1390.18,463.303L1390.18,468.631L1368.73,468.631L1368.73,485.119L1388.38,485.119L1388.38,490.447L1368.73,490.447L1368.73,508.375L1390.54,508.375L1390.54,513.703L1362.75,513.703L1362.75,463.303Z" style="fill-rule:nonzero;"/>
        <path d="M1401.34,463.303L1428.78,463.303L1428.78,468.631L1407.32,468.631L1407.32,485.839L1427.34,485.839L1427.34,491.167L1407.32,491.167L1407.32,513.703L1401.34,513.703L1401.34,463.303Z" style="fill-rule:nonzero;"/>
        <rect x="1439.94" y="463.303" width="5.976" height="50.4" style="fill-rule:nonzero;"/>
        <path d="M1468.59,480.727L1464.7,473.455L1464.42,473.455L1465.14,480.727L1465.14,513.703L1459.52,513.703L1459.52,462.511L1462.69,462.511L1486.81,496.135L1490.55,503.047L1490.91,503.047L1490.12,496.135L1490.12,463.303L1495.74,463.303L1495.74,514.495L1492.57,514.495L1468.59,480.727Z" style="fill-rule:nonzero;"/>
        <path d="M1507.98,463.303L1535.41,463.303L1535.41,468.631L1513.95,468.631L1513.95,485.119L1533.61,485.119L1533.61,490.447L1513.95,490.447L1513.95,508.375L1535.77,508.375L1535.77,513.703L1507.98,513.703L1507.98,463.303Z" style="fill-rule:nonzero;"/>
        <path d="M823.106,389.093L865.106,410.093L823.106,431.093L823.106,389.093Z"/>
        <path d="M763.106,410.093L831.506,410.093" style="fill:none;stroke:black;stroke-width:14px;"/>
        <path d="M1439.25,389.093L1481.25,410.093L1439.25,431.093L1439.25,389.093Z"/>
        <path d="M1379.25,410.093L1447.65,410.093" style="fill:none;stroke:black;stroke-width:14px;"/>
        <path d="M352,126.375L445,33.417L564,157.042L498,194.417L451,139.792L408,147.458L352,126.375Z" style="fill:rgb(250,112,255);stroke:black;stroke-width:1.7px;"/>
        <path d="M1158.06,126.375L1251.06,33.417L1370.06,157.042L1304.06,194.417L1257.06,139.792L1214.06,147.458L1158.06,126.375Z" style="fill:rgb(250,112,255);stroke:black;stroke-width:1.7px;"/>
        <path d="M1711.93,126.375L1804.93,33.417L1923.93,157.042L1857.93,194.417L1810.93,139.792L1767.93,147.458L1711.93,126.375Z" style="fill:rgb(250,112,255);stroke:black;stroke-width:1.7px;"/>
        <path d="M599.577,142.457L734.59,230.283L635.708,350.557L543,319.685L605.226,270.333L599.577,142.457Z" style="fill:rgb(144,250,46);stroke:black;stroke-width:1.7px;"/>
        <path d="M135.717,214.958L288.74,229.958L377.74,288.958L266.74,324.958L228.74,259.958L153.74,296.958L135.717,214.958Z" style="fill:rgb(244,251,46);stroke:black;stroke-width:1.7px;"/>
        <path d="M941.78,214.958L1094.8,229.958L1183.8,288.958L1072.8,324.958L1034.8,259.958L959.803,296.958L941.78,214.958Z" style="fill:rgb(244,251,46);stroke:black;stroke-width:1.7px;"/>
        <path d="M1495.64,214.958L1648.67,229.958L1737.67,288.958L1626.67,324.958L1588.67,259.958L1513.67,296.958L1495.64,214.958Z" style="fill:rgb(244,251,46);stroke:black;stroke-width:1.7px;"/>
        <path d="M253.24,18.223L140.047,83.928L78.85,167.769L18.194,35.611L253.24,18.223Z" style="fill:rgb(45,231,231);stroke:black;stroke-width:1.7px;"/>
        <path d="M1059.3,18.223L946.11,83.928L884.913,167.769L824.257,35.611L1059.3,18.223Z" style="fill:rgb(45,231,231);stroke:black;stroke-width:1.7px;"/>
        <path d="M171,142.457L253.24,74L466,92.996L496,217.958L427.211,269.958L377.74,361.958L183,271.458L171,142.457Z" style="fill:none;stroke:black;stroke-width:10px;stroke-linejoin:miter;"/>
        <path d="M977.063,142.457L1059.3,74L1272.06,92.996L1302.06,217.958L1233.27,269.958L1183.8,361.958L989.063,271.458L977.063,142.457Z" style="fill:none;stroke:black;stroke-width:10px;stroke-linejoin:miter;"/>
        <path d="M1530.93,142.457L1613.17,74L1825.93,92.996L1855.93,217.958L1787.14,269.958L1737.67,361.958L1542.93,271.458L1530.93,142.457Z" style="fill:none;stroke:black;stroke-width:10px;stroke-linejoin:miter;"/>
        <rect x="18.194" y="18.223" width="235.046" height="149.546" style="fill:none;stroke:black;stroke-width:4px;stroke-linejoin:miter;stroke-dasharray:4,6,0,0;"/>
        <rect x="824.257" y="18.223" width="235.046" height="149.546" style="fill:none;stroke:black;stroke-width:4px;stroke-linejoin:miter;stroke-dasharray:4,6,0,0;"/>
        <rect x="169.672" y="76.022" width="326.328" height="285.936" style="fill:none;stroke:black;stroke-width:4px;stroke-linejoin:miter;stroke-dasharray:12,8,0,0;"/>
        <rect x="975.735" y="76.022" width="326.328" height="285.936" style="fill:none;stroke:black;stroke-width:4px;stroke-linejoin:miter;stroke-dasharray:12,8,0,0;"/>
        <rect x="538.831" y="143.896" width="195.759" height="206.661" style="fill:none;stroke:black;stroke-width:4px;stroke-linejoin:miter;stroke-dasharray:4,6,0,0;"/>
        <rect x="354.831" y="33.127" width="208.759" height="160.353" style="fill:none;stroke:black;stroke-width:4px;stroke-linejoin:miter;stroke-dasharray:4,6,0,0;"/>
        <rect x="1160.89" y="33.127" width="208.759" height="160.353" style="fill:none;stroke:black;stroke-width:4px;stroke-linejoin:miter;stroke-dasharray:4,6,0,0;"/>
        <rect x="134.946" y="214.958" width="242.022" height="110" style="fill:none;stroke:black;stroke-width:4px;stroke-linejoin:miter;stroke-dasharray:4,6,0,0;"/>
        <rect x="941.009" y="214.958" width="242.022" height="110" style="fill:none;stroke:black;stroke-width:4px;stroke-linejoin:miter;stroke-dasharray:4,6,0,0;"/>
    </g>
</svg>
