<?xml version="1.0" encoding="UTF-8" standalone="no"?>
<!DOCTYPE svg PUBLIC "-//W3C//DTD SVG 1.1//EN" "http://www.w3.org/Graphics/SVG/1.1/DTD/svg11.dtd">
<svg width="100%" height="100%" viewBox="0 0 494 488" version="1.1" xmlns="http://www.w3.org/2000/svg" xmlns:xlink="http://www.w3.org/1999/xlink" xml:space="preserve" xmlns:serif="http://www.serif.com/" style="fill-rule:evenodd;clip-rule:evenodd;stroke-linejoin:round;stroke-miterlimit:10;">
    <rect id="polygon_triangulation" x="-6687" y="-325" width="8206" height="4260" style="fill:none;"/>
    <g id="polygon_triangulation1" serif:id="polygon_triangulation">
        <rect x="45" y="17" width="430" height="430" style="fill:white;stroke:rgb(255,0,0);stroke-width:2px;"/>
        <g id="TIN-vertices" serif:id="TIN vertices">
        </g>
        <g id="TIN-edges" serif:id="TIN edges">
        </g>
        <g id="halos">
        </g>
        <g id="halos1" serif:id="halos">
        </g>
        <g id="digits">
        </g>
        <g id="digits1" serif:id="digits">
        </g>
        <circle cx="88.839" cy="92.453" r="7.049"/>
        <circle cx="138.38" cy="154.813" r="7.049"/>
        <circle cx="232.919" cy="152.931" r="7.049"/>
        <circle cx="177.622" cy="97.434" r="7.049"/>
        <circle cx="165.972" cy="170.768" r="7.049"/>
        <circle cx="151.357" cy="177.805" r="7.049"/>
        <circle cx="162.888" cy="128.209" r="7.049"/>
        <circle cx="158.128" cy="96.626" r="7.049"/>
        <circle cx="221.537" cy="95.403" r="7.049"/>
        <circle cx="227.749" cy="240.278" r="7.049"/>
        <circle cx="232.125" cy="187.123" r="7.049"/>
        <circle cx="145.888" cy="257.191" r="7.049"/>
        <circle cx="105.664" cy="184.958" r="7.049"/>
        <circle cx="266.762" cy="153.83" r="7.049"/>
        <circle cx="283.526" cy="118.148" r="7.049"/>
        <circle cx="169.721" cy="239.418" r="7.049"/>
        <circle cx="166.099" cy="152.735" r="7.049"/>
        <circle cx="157.944" cy="56.835" r="7.049"/>
        <circle cx="288.714" cy="240.643" r="7.049"/>
        <circle cx="228.514" cy="165.197" r="7.049"/>
        <circle cx="220.686" cy="149.915" r="7.049"/>
        <circle cx="213.84" cy="126.546" r="7.049"/>
        <circle cx="257.461" cy="108.34" r="7.049"/>
        <circle cx="252.393" cy="223.456" r="7.049"/>
        <circle cx="197.981" cy="227.976" r="7.049"/>
        <circle cx="133.026" cy="230.043" r="7.049"/>
        <circle cx="168.271" cy="191.338" r="7.049"/>
        <circle cx="136.771" cy="328.05" r="7.049"/>
        <circle cx="195.961" cy="308.677" r="7.049"/>
        <circle cx="273.42" cy="283.593" r="7.049"/>
        <circle cx="411.173" cy="223.988" r="7.049"/>
        <circle cx="406.539" cy="59.213" r="7.049"/>
        <circle cx="299.221" cy="99.023" r="7.049"/>
        <circle cx="291.686" cy="151.322" r="7.049"/>
        <circle cx="266.048" cy="177.049" r="7.049"/>
        <circle cx="205.515" cy="183.764" r="7.049"/>
        <circle cx="242.431" cy="275.221" r="7.049"/>
        <circle cx="349.89" cy="376.749" r="7.049"/>
        <circle cx="398.286" cy="321.401" r="7.049"/>
        <circle cx="351.478" cy="265.463" r="7.049"/>
        <circle cx="426.499" cy="162.618" r="7.049"/>
        <circle cx="367.128" cy="157.159" r="7.049"/>
        <circle cx="276.136" cy="358.93" r="7.049"/>
        <circle cx="226.834" cy="336.383" r="7.049"/>
        <circle cx="101.499" cy="416.361" r="7.049"/>
        <circle cx="66.025" cy="352.453" r="7.049"/>
        <circle cx="93.567" cy="214.807" r="7.049"/>
        <circle cx="198.623" cy="405.811" r="7.049"/>
        <circle cx="449.816" cy="419.835" r="7.049"/>
        <circle cx="354.793" cy="126.579" r="7.049"/>
        <circle cx="232.483" cy="49.175" r="7.049"/>
        <circle cx="207.009" cy="94.513" r="7.049"/>
        <circle cx="107.165" cy="49.259" r="7.049"/>
        <circle cx="132.672" cy="110.036" r="7.049"/>
        <path d="M123.645,17.576L123.645,447.576" style="fill:none;stroke:rgb(255,0,0);stroke-width:2px;stroke-dasharray:4,6,0,0;"/>
        <path d="M475,80.576L45,80.576" style="fill:none;stroke:rgb(255,0,0);stroke-width:2px;stroke-dasharray:4,6,0,0;"/>
        <path d="M475,138.586L45,138.586" style="fill:none;stroke:rgb(255,0,0);stroke-width:2px;stroke-dasharray:4,6,0,0;"/>
        <path d="M475,203.103L45,203.103" style="fill:none;stroke:rgb(255,0,0);stroke-width:2px;stroke-dasharray:4,6,0,0;"/>
        <path d="M475,316.848L45,316.848" style="fill:none;stroke:rgb(255,0,0);stroke-width:2px;stroke-dasharray:4,6,0,0;"/>
        <path d="M187.115,16.208L187.115,446.208" style="fill:none;stroke:rgb(255,0,0);stroke-width:2px;stroke-dasharray:4,6,0,0;"/>
        <path d="M246.876,17.576L246.876,447.576" style="fill:none;stroke:rgb(255,0,0);stroke-width:2px;stroke-dasharray:4,6,0,0;"/>
        <path d="M329.992,16.208L329.992,446.208" style="fill:none;stroke:rgb(255,0,0);stroke-width:2px;stroke-dasharray:4,6,0,0;"/>
        <path d="M107.34,477.517L111.837,477.517L111.837,464.877L112.323,462.701L110.77,464.589L107.89,466.541L106.111,464.141L113.488,458.253L115.849,458.253L115.849,477.517L120.25,477.517L120.25,481.037L107.34,481.037L107.34,477.517Z" style="fill:rgb(255,0,0);fill-rule:nonzero;"/>
        <path d="M123.712,469.805C123.712,465.879 124.391,462.962 125.75,461.053C127.109,459.143 129.061,458.189 131.606,458.189C134.324,458.189 136.319,459.133 137.592,461.021C138.865,462.909 139.501,465.837 139.501,469.805C139.501,473.751 138.816,476.685 137.446,478.605C136.077,480.525 134.119,481.485 131.574,481.485C128.878,481.485 126.893,480.477 125.621,478.461C124.348,476.445 123.712,473.559 123.712,469.805ZM127.918,469.805C127.918,472.407 128.204,474.418 128.775,475.837C129.347,477.255 130.291,477.965 131.606,477.965C132.879,477.965 133.812,477.314 134.405,476.013C134.998,474.711 135.295,472.642 135.295,469.805C135.295,467.223 135.014,465.229 134.454,463.821C133.893,462.413 132.933,461.709 131.574,461.709C130.28,461.709 129.347,462.37 128.775,463.693C128.204,465.015 127.918,467.053 127.918,469.805Z" style="fill:rgb(255,0,0);fill-rule:nonzero;"/>
        <path d="M172.522,477.583L177.019,477.583L177.019,464.943L177.505,462.767L175.952,464.655L173.072,466.607L171.293,464.207L178.67,458.319L181.031,458.319L181.031,477.583L185.432,477.583L185.432,481.103L172.522,481.103L172.522,477.583Z" style="fill:rgb(255,0,0);fill-rule:nonzero;"/>
        <path d="M189.573,475.631C189.573,474.885 189.67,474.218 189.864,473.631C190.058,473.045 190.333,472.511 190.689,472.031C191.045,471.551 191.466,471.119 191.951,470.735C192.437,470.351 192.96,469.999 193.52,469.679C192.463,469.018 191.633,468.255 191.029,467.391C190.425,466.527 190.123,465.455 190.123,464.175C190.123,463.343 190.28,462.565 190.592,461.839C190.905,461.114 191.358,460.485 191.951,459.951C192.544,459.418 193.262,459.002 194.103,458.703C194.944,458.405 195.893,458.255 196.95,458.255C197.921,458.255 198.805,458.383 199.603,458.639C200.401,458.895 201.086,459.258 201.658,459.727C202.229,460.197 202.671,460.767 202.984,461.439C203.297,462.111 203.453,462.853 203.453,463.663C203.453,464.922 203.168,465.989 202.596,466.863C202.024,467.738 201.189,468.538 200.088,469.263C201.383,470.01 202.359,470.831 203.017,471.727C203.674,472.623 204.003,473.775 204.003,475.183C204.003,476.143 203.825,477.013 203.47,477.791C203.114,478.57 202.612,479.237 201.965,479.791C201.318,480.346 200.541,480.778 199.635,481.087C198.73,481.397 197.737,481.551 196.659,481.551C195.58,481.551 194.604,481.407 193.731,481.119C192.857,480.831 192.113,480.431 191.498,479.919C190.884,479.407 190.409,478.789 190.075,478.063C189.74,477.338 189.573,476.527 189.573,475.631ZM199.991,475.215C199.991,474.725 199.873,474.277 199.635,473.871C199.398,473.466 199.091,473.098 198.713,472.767C198.336,472.437 197.915,472.133 197.452,471.855C196.988,471.578 196.519,471.311 196.044,471.055C195.03,471.631 194.335,472.255 193.957,472.927C193.58,473.599 193.391,474.266 193.391,474.927C193.391,475.781 193.688,476.511 194.281,477.119C194.874,477.727 195.699,478.031 196.756,478.031C197.727,478.031 198.508,477.797 199.102,477.327C199.695,476.858 199.991,476.154 199.991,475.215ZM194.135,464.239C194.135,464.751 194.232,465.199 194.426,465.583C194.62,465.967 194.885,466.303 195.219,466.591C195.553,466.879 195.931,467.146 196.351,467.391C196.772,467.637 197.209,467.866 197.662,468.079C198.956,466.991 199.603,465.797 199.603,464.495C199.603,463.599 199.339,462.922 198.81,462.463C198.282,462.005 197.64,461.775 196.885,461.775C195.936,461.775 195.241,462.021 194.798,462.511C194.356,463.002 194.135,463.578 194.135,464.239Z" style="fill:rgb(255,0,0);fill-rule:nonzero;"/>
        <path d="M243.745,464.175C243.745,465.263 243.545,466.362 243.146,467.471C242.747,468.581 242.24,469.669 241.625,470.735C241.011,471.802 240.331,472.831 239.587,473.823C238.843,474.815 238.115,475.727 237.403,476.559L235.688,477.871L235.688,478.031L238.018,477.583L244.23,477.583L244.23,481.103L230.609,481.103L230.609,478.959C231.126,478.426 231.709,477.802 232.356,477.087C233.003,476.373 233.655,475.615 234.313,474.815C234.971,474.015 235.613,473.189 236.238,472.335C236.864,471.482 237.425,470.623 237.921,469.759C238.417,468.895 238.811,468.058 239.102,467.247C239.393,466.437 239.539,465.669 239.539,464.943C239.539,464.069 239.285,463.349 238.778,462.783C238.271,462.218 237.468,461.935 236.368,461.935C235.678,461.935 234.971,462.079 234.249,462.367C233.526,462.655 232.917,463.023 232.42,463.471L230.738,460.527C231.579,459.845 232.534,459.295 233.601,458.879C234.669,458.463 235.926,458.255 237.371,458.255C238.298,458.255 239.15,458.383 239.927,458.639C240.703,458.895 241.372,459.269 241.933,459.759C242.494,460.25 242.936,460.863 243.259,461.599C243.583,462.335 243.745,463.194 243.745,464.175Z" style="fill:rgb(255,0,0);fill-rule:nonzero;"/>
        <path d="M253.839,477.871C255.263,477.871 256.352,477.53 257.107,476.847C257.862,476.165 258.24,475.226 258.24,474.031C258.24,472.751 257.797,471.813 256.913,471.215C256.029,470.618 254.767,470.319 253.128,470.319L250.572,470.415L250.572,458.703L261.702,458.703L261.702,462.607L254.195,462.607L254.195,466.927L255.522,466.799C256.579,466.842 257.533,467.034 258.385,467.375C259.237,467.717 259.965,468.191 260.569,468.799C261.173,469.407 261.637,470.143 261.96,471.007C262.284,471.871 262.446,472.837 262.446,473.903C262.446,475.162 262.23,476.271 261.799,477.231C261.367,478.191 260.769,478.991 260.003,479.631C259.237,480.271 258.337,480.751 257.301,481.071C256.266,481.391 255.134,481.551 253.904,481.551C252.933,481.551 252.011,481.471 251.138,481.311C250.264,481.151 249.525,480.933 248.921,480.655L250.054,477.199C250.55,477.413 251.095,477.578 251.688,477.695C252.281,477.813 252.998,477.871 253.839,477.871Z" style="fill:rgb(255,0,0);fill-rule:nonzero;"/>
        <path d="M461.668,477.871C463.092,477.871 464.181,477.53 464.936,476.847C465.691,476.165 466.068,475.226 466.068,474.031C466.068,472.751 465.626,471.813 464.742,471.215C463.857,470.618 462.595,470.319 460.956,470.319L458.4,470.415L458.4,458.703L469.53,458.703L469.53,462.607L462.024,462.607L462.024,466.927L463.35,466.799C464.407,466.842 465.362,467.034 466.214,467.375C467.066,467.717 467.794,468.191 468.398,468.799C469.002,469.407 469.465,470.143 469.789,471.007C470.113,471.871 470.274,472.837 470.274,473.903C470.274,475.162 470.059,476.271 469.627,477.231C469.196,478.191 468.597,478.991 467.832,479.631C467.066,480.271 466.165,480.751 465.13,481.071C464.095,481.391 462.962,481.551 461.733,481.551C460.762,481.551 459.84,481.471 458.966,481.311C458.093,481.151 457.354,480.933 456.75,480.655L457.882,477.199C458.379,477.413 458.923,477.578 459.516,477.695C460.11,477.813 460.827,477.871 461.668,477.871Z" style="fill:rgb(255,0,0);fill-rule:nonzero;"/>
        <path d="M488.264,464.175C488.264,465.263 488.064,466.362 487.665,467.471C487.266,468.581 486.759,469.669 486.144,470.735C485.53,471.802 484.85,472.831 484.106,473.823C483.362,474.815 482.634,475.727 481.922,476.559L480.207,477.871L480.207,478.031L482.537,477.583L488.749,477.583L488.749,481.103L475.128,481.103L475.128,478.959C475.645,478.426 476.228,477.802 476.875,477.087C477.522,476.373 478.174,475.615 478.832,474.815C479.49,474.015 480.132,473.189 480.757,472.335C481.383,471.482 481.944,470.623 482.44,469.759C482.936,468.895 483.329,468.058 483.621,467.247C483.912,466.437 484.057,465.669 484.057,464.943C484.057,464.069 483.804,463.349 483.297,462.783C482.79,462.218 481.987,461.935 480.887,461.935C480.196,461.935 479.49,462.079 478.767,462.367C478.045,462.655 477.436,463.023 476.939,463.471L475.257,460.527C476.098,459.845 477.053,459.295 478.12,458.879C479.188,458.463 480.445,458.255 481.89,458.255C482.817,458.255 483.669,458.383 484.446,458.639C485.222,458.895 485.891,459.269 486.452,459.759C487.013,460.25 487.455,460.863 487.778,461.599C488.102,462.335 488.264,463.194 488.264,464.175Z" style="fill:rgb(255,0,0);fill-rule:nonzero;"/>
        <path d="M320.163,478.031C321.501,478.031 322.52,477.679 323.221,476.975C323.922,476.271 324.272,475.418 324.272,474.415C324.272,473.199 323.906,472.303 323.172,471.727C322.439,471.151 321.285,470.863 319.71,470.863L317.381,470.863L317.381,468.655L321.296,463.375L323.14,461.935L320.584,462.223L315.148,462.223L315.148,458.703L327.508,458.703L327.508,460.975L322.946,467.023L321.522,467.887L321.522,468.047L322.881,467.855C323.636,467.919 324.353,468.09 325.033,468.367C325.712,468.645 326.305,469.045 326.812,469.567C327.319,470.09 327.723,470.735 328.025,471.503C328.327,472.271 328.478,473.157 328.478,474.159C328.478,475.418 328.268,476.506 327.847,477.423C327.427,478.341 326.844,479.109 326.1,479.727C325.356,480.346 324.488,480.805 323.496,481.103C322.504,481.402 321.436,481.551 320.293,481.551C319.344,481.551 318.362,481.466 317.348,481.295C316.335,481.125 315.515,480.879 314.889,480.559L316.022,477.103C316.583,477.381 317.203,477.605 317.882,477.775C318.562,477.946 319.322,478.031 320.163,478.031Z" style="fill:rgb(255,0,0);fill-rule:nonzero;"/>
        <path d="M346.079,464.175C346.079,465.263 345.88,466.362 345.481,467.471C345.082,468.581 344.575,469.669 343.96,470.735C343.345,471.802 342.666,472.831 341.922,473.823C341.178,474.815 340.45,475.727 339.738,476.559L338.023,477.871L338.023,478.031L340.353,477.583L346.565,477.583L346.565,481.103L332.943,481.103L332.943,478.959C333.461,478.426 334.043,477.802 334.691,477.087C335.338,476.373 335.99,475.615 336.648,474.815C337.306,474.015 337.948,473.189 338.573,472.335C339.199,471.482 339.759,470.623 340.256,469.759C340.752,468.895 341.145,468.058 341.437,467.247C341.728,466.437 341.873,465.669 341.873,464.943C341.873,464.069 341.62,463.349 341.113,462.783C340.606,462.218 339.803,461.935 338.703,461.935C338.012,461.935 337.306,462.079 336.583,462.367C335.861,462.655 335.251,463.023 334.755,463.471L333.073,460.527C333.914,459.845 334.868,459.295 335.936,458.879C337.004,458.463 338.26,458.255 339.706,458.255C340.633,458.255 341.485,458.383 342.262,458.639C343.038,458.895 343.707,459.269 344.268,459.759C344.828,460.25 345.271,460.863 345.594,461.599C345.918,462.335 346.079,463.194 346.079,464.175Z" style="fill:rgb(255,0,0);fill-rule:nonzero;"/>
        <path d="M28.161,469.871C28.161,465.946 28.841,463.029 30.2,461.119C31.559,459.21 33.511,458.255 36.056,458.255C38.774,458.255 40.769,459.199 42.042,461.087C43.314,462.975 43.95,465.903 43.95,469.871C43.95,473.818 43.266,476.751 41.896,478.671C40.526,480.591 38.569,481.551 36.024,481.551C33.327,481.551 31.343,480.543 30.07,478.527C28.798,476.511 28.161,473.626 28.161,469.871ZM32.367,469.871C32.367,472.474 32.653,474.485 33.225,475.903C33.796,477.322 34.74,478.031 36.056,478.031C37.329,478.031 38.261,477.381 38.855,476.079C39.448,474.778 39.744,472.709 39.744,469.871C39.744,467.29 39.464,465.295 38.903,463.887C38.342,462.479 37.382,461.775 36.024,461.775C34.729,461.775 33.796,462.437 33.225,463.759C32.653,465.082 32.367,467.119 32.367,469.871Z" style="fill:rgb(255,0,0);fill-rule:nonzero;"/>
        <path d="M4.445,326.753L8.943,326.753L8.943,314.113L9.428,311.937L7.875,313.825L4.995,315.777L3.216,313.377L10.593,307.489L12.955,307.489L12.955,326.753L17.355,326.753L17.355,330.273L4.445,330.273L4.445,326.753Z" style="fill:rgb(255,0,0);fill-rule:nonzero;"/>
        <path d="M22.887,330.273L30.297,313.025L31.72,311.457L29.779,311.777L21.464,311.777L21.464,307.873L36.056,307.873L36.056,309.089L26.997,330.273L22.887,330.273Z" style="fill:rgb(255,0,0);fill-rule:nonzero;"/>
        <path d="M8.975,212.79C10.312,212.79 11.331,212.438 12.032,211.734C12.733,211.03 13.084,210.177 13.084,209.174C13.084,207.958 12.717,207.062 11.984,206.486C11.251,205.91 10.097,205.622 8.522,205.622L6.192,205.622L6.192,203.414L10.107,198.134L11.952,196.694L9.396,196.982L3.96,196.982L3.96,193.462L16.319,193.462L16.319,195.734L11.757,201.782L10.334,202.646L10.334,202.806L11.693,202.614C12.448,202.678 13.165,202.849 13.844,203.126C14.524,203.404 15.117,203.804 15.624,204.326C16.131,204.849 16.535,205.494 16.837,206.262C17.139,207.03 17.29,207.916 17.29,208.918C17.29,210.177 17.08,211.265 16.659,212.182C16.239,213.1 15.656,213.868 14.912,214.486C14.168,215.105 13.3,215.564 12.307,215.862C11.315,216.161 10.248,216.31 9.104,216.31C8.155,216.31 7.174,216.225 6.16,216.054C5.146,215.884 4.327,215.638 3.701,215.318L4.833,211.862C5.394,212.14 6.014,212.364 6.694,212.534C7.373,212.705 8.134,212.79 8.975,212.79Z" style="fill:rgb(255,0,0);fill-rule:nonzero;"/>
        <path d="M20.817,204.63C20.817,200.705 21.496,197.788 22.855,195.878C24.214,193.969 26.166,193.014 28.711,193.014C31.429,193.014 33.424,193.958 34.697,195.846C35.97,197.734 36.606,200.662 36.606,204.63C36.606,208.577 35.921,211.51 34.551,213.43C33.182,215.35 31.224,216.31 28.679,216.31C25.983,216.31 23.998,215.302 22.726,213.286C21.453,211.27 20.817,208.385 20.817,204.63ZM25.023,204.63C25.023,207.233 25.309,209.244 25.88,210.662C26.452,212.081 27.396,212.79 28.711,212.79C29.984,212.79 30.917,212.14 31.51,210.838C32.103,209.537 32.4,207.468 32.4,204.63C32.4,202.049 32.119,200.054 31.559,198.646C30.998,197.238 30.038,196.534 28.679,196.534C27.385,196.534 26.452,197.196 25.88,198.518C25.309,199.841 25.023,201.878 25.023,204.63Z" style="fill:rgb(255,0,0);fill-rule:nonzero;"/>
        <path d="M8.975,148.019C10.312,148.019 11.331,147.667 12.032,146.963C12.733,146.259 13.084,145.406 13.084,144.403C13.084,143.187 12.717,142.291 11.984,141.715C11.251,141.139 10.097,140.851 8.522,140.851L6.192,140.851L6.192,138.643L10.107,133.363L11.952,131.923L9.396,132.211L3.96,132.211L3.96,128.691L16.319,128.691L16.319,130.963L11.757,137.011L10.334,137.875L10.334,138.035L11.693,137.843C12.448,137.907 13.165,138.078 13.844,138.355C14.524,138.633 15.117,139.033 15.624,139.555C16.131,140.078 16.535,140.723 16.837,141.491C17.139,142.259 17.29,143.145 17.29,144.147C17.29,145.406 17.08,146.494 16.659,147.411C16.239,148.329 15.656,149.097 14.912,149.715C14.168,150.334 13.3,150.793 12.307,151.091C11.315,151.39 10.248,151.539 9.104,151.539C8.155,151.539 7.174,151.454 6.16,151.283C5.146,151.113 4.327,150.867 3.701,150.547L4.833,147.091C5.394,147.369 6.014,147.593 6.694,147.763C7.373,147.934 8.134,148.019 8.975,148.019Z" style="fill:rgb(255,0,0);fill-rule:nonzero;"/>
        <path d="M22.887,151.091L30.297,133.843L31.72,132.275L29.779,132.595L21.464,132.595L21.464,128.691L36.056,128.691L36.056,129.907L26.997,151.091L22.887,151.091Z" style="fill:rgb(255,0,0);fill-rule:nonzero;"/>
        <path d="M8.295,25.105C9.719,25.105 10.808,24.763 11.563,24.081C12.318,23.398 12.696,22.459 12.696,21.265C12.696,19.985 12.254,19.046 11.369,18.449C10.485,17.851 9.223,17.553 7.584,17.553L5.028,17.649L5.028,5.937L16.158,5.937L16.158,9.841L8.651,9.841L8.651,14.161L9.978,14.033C11.035,14.075 11.989,14.267 12.841,14.609C13.693,14.95 14.421,15.425 15.025,16.033C15.629,16.641 16.093,17.377 16.417,18.241C16.74,19.105 16.902,20.07 16.902,21.137C16.902,22.395 16.686,23.505 16.255,24.465C15.823,25.425 15.225,26.225 14.459,26.865C13.693,27.505 12.793,27.985 11.757,28.305C10.722,28.625 9.59,28.785 8.36,28.785C7.39,28.785 6.467,28.705 5.594,28.545C4.72,28.385 3.981,28.166 3.378,27.889L4.51,24.433C5.006,24.646 5.551,24.811 6.144,24.929C6.737,25.046 7.454,25.105 8.295,25.105Z" style="fill:rgb(255,0,0);fill-rule:nonzero;"/>
        <path d="M37.415,22.097L33.856,22.097L33.856,28.337L29.941,28.337L29.941,22.097L20.137,22.097L20.137,19.729L30.394,5.777L33.856,5.777L33.856,18.769L37.415,18.769L37.415,22.097ZM29.941,13.873L30.232,11.185L30.103,11.185L29.003,13.489L25.638,17.809L24.02,19.025L26.091,18.769L29.941,18.769L29.941,13.873Z" style="fill:rgb(255,0,0);fill-rule:nonzero;"/>
    </g>
</svg>
