<?xml version="1.0" encoding="UTF-8" standalone="no"?>
<!DOCTYPE svg PUBLIC "-//W3C//DTD SVG 1.1//EN" "http://www.w3.org/Graphics/SVG/1.1/DTD/svg11.dtd">
<svg width="100%" height="100%" viewBox="0 0 474 467" version="1.1" xmlns="http://www.w3.org/2000/svg" xmlns:xlink="http://www.w3.org/1999/xlink" xml:space="preserve" xmlns:serif="http://www.serif.com/" style="fill-rule:evenodd;clip-rule:evenodd;stroke-linejoin:round;stroke-miterlimit:10;">
    <rect id="polygon_triangulation" x="-3803" y="-3278" width="8206" height="4260" style="fill:none;"/>
    <g id="polygon_triangulation1" serif:id="polygon_triangulation">
        <g id="TIN-vertices" serif:id="TIN vertices">
        </g>
        <g id="TIN-edges" serif:id="TIN edges">
        </g>
        <rect x="6.141" y="63.897" width="98.3" height="98.3" style="fill:white;stroke:black;stroke-width:2px;"/>
        <rect x="6.141" y="260.843" width="98.3" height="98.3" style="fill:white;stroke:black;stroke-width:2px;"/>
        <rect x="202.741" y="63.897" width="98.3" height="98.3" style="fill:white;stroke:black;stroke-width:2px;"/>
        <rect x="202.741" y="260.843" width="98.3" height="98.3" style="fill:white;stroke:black;stroke-width:2px;"/>
        <rect x="6.141" y="162.197" width="98.3" height="98.3" style="fill:white;stroke:black;stroke-width:2px;"/>
        <rect x="6.141" y="359.143" width="98.3" height="98.3" style="fill:white;stroke:black;stroke-width:2px;"/>
        <rect x="202.741" y="162.197" width="98.3" height="98.3" style="fill:white;stroke:black;stroke-width:2px;"/>
        <rect x="202.741" y="359.143" width="98.3" height="98.3" style="fill:white;stroke:black;stroke-width:2px;"/>
        <rect x="104.441" y="63.897" width="98.3" height="98.3" style="fill:white;stroke:black;stroke-width:2px;"/>
        <rect x="104.441" y="260.843" width="98.3" height="98.3" style="fill:white;stroke:black;stroke-width:2px;"/>
        <rect x="301.041" y="63.897" width="98.3" height="98.3" style="fill:white;stroke:black;stroke-width:2px;"/>
        <rect x="301.041" y="260.843" width="98.3" height="98.3" style="fill:white;stroke:black;stroke-width:2px;"/>
        <rect x="104.441" y="162.197" width="98.3" height="98.3" style="fill:white;stroke:black;stroke-width:2px;"/>
        <rect x="104.441" y="359.143" width="98.3" height="98.3" style="fill:white;stroke:black;stroke-width:2px;"/>
        <rect x="301.041" y="162.197" width="98.3" height="98.3" style="fill:white;stroke:black;stroke-width:2px;"/>
        <rect x="301.041" y="359.143" width="98.3" height="98.3" style="fill:white;stroke:black;stroke-width:2px;"/>
        <path d="M419.843,407.253C419.843,402.346 420.683,398.7 422.363,396.313C424.043,393.926 426.456,392.733 429.603,392.733C432.963,392.733 435.43,393.913 437.003,396.273C438.576,398.633 439.363,402.293 439.363,407.253C439.363,412.186 438.516,415.853 436.823,418.253C435.13,420.653 432.71,421.853 429.563,421.853C426.23,421.853 423.776,420.593 422.203,418.073C420.63,415.553 419.843,411.946 419.843,407.253ZM425.043,407.253C425.043,410.506 425.396,413.02 426.103,414.793C426.81,416.566 427.976,417.453 429.603,417.453C431.176,417.453 432.33,416.64 433.063,415.013C433.796,413.386 434.163,410.8 434.163,407.253C434.163,404.026 433.816,401.533 433.123,399.773C432.43,398.013 431.243,397.133 429.563,397.133C427.963,397.133 426.81,397.96 426.103,399.613C425.396,401.266 425.043,403.813 425.043,407.253Z" style="fill-rule:nonzero;"/>
        <path d="M442.523,407.253C442.523,402.346 443.363,398.7 445.043,396.313C446.723,393.926 449.136,392.733 452.283,392.733C455.643,392.733 458.11,393.913 459.683,396.273C461.256,398.633 462.043,402.293 462.043,407.253C462.043,412.186 461.196,415.853 459.503,418.253C457.81,420.653 455.39,421.853 452.243,421.853C448.91,421.853 446.456,420.593 444.883,418.073C443.31,415.553 442.523,411.946 442.523,407.253ZM447.723,407.253C447.723,410.506 448.076,413.02 448.783,414.793C449.49,416.566 450.656,417.453 452.283,417.453C453.856,417.453 455.01,416.64 455.743,415.013C456.476,413.386 456.843,410.8 456.843,407.253C456.843,404.026 456.496,401.533 455.803,399.773C455.11,398.013 453.923,397.133 452.243,397.133C450.643,397.133 449.49,397.96 448.783,399.613C448.076,401.266 447.723,403.813 447.723,407.253Z" style="fill-rule:nonzero;"/>
        <path d="M33.056,22.549C33.056,17.642 33.896,13.995 35.576,11.609C37.256,9.222 39.669,8.029 42.816,8.029C46.176,8.029 48.642,9.209 50.216,11.569C51.789,13.929 52.576,17.589 52.576,22.549C52.576,27.482 51.729,31.149 50.036,33.549C48.342,35.949 45.922,37.149 42.776,37.149C39.442,37.149 36.989,35.889 35.416,33.369C33.842,30.849 33.056,27.242 33.056,22.549ZM38.256,22.549C38.256,25.802 38.609,28.315 39.316,30.089C40.022,31.862 41.189,32.749 42.816,32.749C44.389,32.749 45.542,31.935 46.276,30.309C47.009,28.682 47.376,26.095 47.376,22.549C47.376,19.322 47.029,16.829 46.336,15.069C45.642,13.309 44.456,12.429 42.776,12.429C41.176,12.429 40.022,13.255 39.316,14.909C38.609,16.562 38.256,19.109 38.256,22.549Z" style="fill-rule:nonzero;"/>
        <path d="M55.736,22.549C55.736,17.642 56.576,13.995 58.256,11.609C59.936,9.222 62.349,8.029 65.496,8.029C68.856,8.029 71.322,9.209 72.896,11.569C74.469,13.929 75.256,17.589 75.256,22.549C75.256,27.482 74.409,31.149 72.716,33.549C71.022,35.949 68.602,37.149 65.456,37.149C62.122,37.149 59.669,35.889 58.096,33.369C56.522,30.849 55.736,27.242 55.736,22.549ZM60.936,22.549C60.936,25.802 61.289,28.315 61.996,30.089C62.702,31.862 63.869,32.749 65.496,32.749C67.069,32.749 68.222,31.935 68.956,30.309C69.689,28.682 70.056,26.095 70.056,22.549C70.056,19.322 69.709,16.829 69.016,15.069C68.322,13.309 67.136,12.429 65.456,12.429C63.856,12.429 62.702,13.255 61.996,14.909C61.289,16.562 60.936,19.109 60.936,22.549Z" style="fill-rule:nonzero;"/>
        <path d="M32.23,408.293C32.23,403.973 32.932,400.721 34.336,398.537C35.74,396.353 37.786,395.261 40.474,395.261C43.378,395.261 45.484,396.335 46.792,398.483C48.1,400.631 48.754,403.901 48.754,408.293C48.754,412.613 48.052,415.865 46.648,418.049C45.244,420.233 43.186,421.325 40.474,421.325C37.618,421.325 35.53,420.185 34.21,417.905C32.89,415.625 32.23,412.421 32.23,408.293ZM35.218,408.293C35.218,409.853 35.32,411.275 35.524,412.559C35.728,413.843 36.046,414.947 36.478,415.871C36.91,416.795 37.456,417.515 38.116,418.031C38.776,418.547 39.562,418.805 40.474,418.805C42.298,418.805 43.636,417.959 44.488,416.267C45.34,414.575 45.766,411.917 45.766,408.293C45.766,406.757 45.676,405.341 45.496,404.045C45.316,402.749 45.016,401.633 44.596,400.697C44.176,399.761 43.63,399.041 42.958,398.537C42.286,398.033 41.458,397.781 40.474,397.781C38.674,397.781 37.348,398.633 36.496,400.337C35.644,402.041 35.218,404.693 35.218,408.293Z" style="fill-rule:nonzero;"/>
        <path d="M52.066,419.345C52.066,418.769 52.258,418.301 52.642,417.941C53.026,417.581 53.518,417.401 54.118,417.401C54.862,417.401 55.468,417.665 55.936,418.193C56.404,418.721 56.638,419.489 56.638,420.497C56.638,421.361 56.518,422.117 56.278,422.765C56.038,423.413 55.726,423.971 55.342,424.439C54.958,424.907 54.538,425.291 54.082,425.591C53.626,425.891 53.17,426.113 52.714,426.257L51.814,424.853C52.678,424.517 53.32,423.995 53.74,423.287C54.16,422.579 54.37,421.865 54.37,421.145C54.154,421.217 53.95,421.253 53.758,421.253C53.278,421.253 52.876,421.091 52.552,420.767C52.228,420.443 52.066,419.969 52.066,419.345Z" style="fill-rule:nonzero;"/>
        <path d="M65.674,408.293C65.674,403.973 66.376,400.721 67.78,398.537C69.184,396.353 71.23,395.261 73.918,395.261C76.822,395.261 78.928,396.335 80.236,398.483C81.544,400.631 82.198,403.901 82.198,408.293C82.198,412.613 81.496,415.865 80.092,418.049C78.688,420.233 76.63,421.325 73.918,421.325C71.062,421.325 68.974,420.185 67.654,417.905C66.334,415.625 65.674,412.421 65.674,408.293ZM68.662,408.293C68.662,409.853 68.764,411.275 68.968,412.559C69.172,413.843 69.49,414.947 69.922,415.871C70.354,416.795 70.9,417.515 71.56,418.031C72.22,418.547 73.006,418.805 73.918,418.805C75.742,418.805 77.08,417.959 77.932,416.267C78.784,414.575 79.21,411.917 79.21,408.293C79.21,406.757 79.12,405.341 78.94,404.045C78.76,402.749 78.46,401.633 78.04,400.697C77.62,399.761 77.074,399.041 76.402,398.537C75.73,398.033 74.902,397.781 73.918,397.781C72.118,397.781 70.792,398.633 69.94,400.337C69.088,402.041 68.662,404.693 68.662,408.293Z" style="fill-rule:nonzero;"/>
        <path d="M30.826,309.129C30.826,304.713 31.582,301.431 33.094,299.283C34.606,297.135 36.778,296.061 39.61,296.061C42.634,296.061 44.854,297.123 46.27,299.247C47.686,301.371 48.394,304.665 48.394,309.129C48.394,313.569 47.632,316.869 46.108,319.029C44.584,321.189 42.406,322.269 39.574,322.269C36.574,322.269 34.366,321.135 32.95,318.867C31.534,316.599 30.826,313.353 30.826,309.129ZM35.506,309.129C35.506,312.057 35.824,314.319 36.46,315.915C37.096,317.511 38.146,318.309 39.61,318.309C41.026,318.309 42.064,317.577 42.724,316.113C43.384,314.649 43.714,312.321 43.714,309.129C43.714,306.225 43.402,303.981 42.778,302.397C42.154,300.813 41.086,300.021 39.574,300.021C38.134,300.021 37.096,300.765 36.46,302.253C35.824,303.741 35.506,306.033 35.506,309.129Z" style="fill:rgb(249,85,185);fill-rule:nonzero;"/>
        <path d="M51.31,319.461C51.31,318.645 51.58,317.997 52.12,317.517C52.66,317.037 53.326,316.797 54.118,316.797C55.126,316.797 55.918,317.133 56.494,317.805C57.07,318.477 57.358,319.365 57.358,320.469C57.358,321.549 57.19,322.479 56.854,323.259C56.518,324.039 56.104,324.687 55.612,325.203C55.12,325.719 54.592,326.127 54.028,326.427C53.464,326.727 52.954,326.949 52.498,327.093L51.13,325.149C51.778,324.885 52.342,324.453 52.822,323.853C53.302,323.253 53.566,322.617 53.614,321.945C53.062,322.017 52.54,321.849 52.048,321.441C51.556,321.033 51.31,320.373 51.31,319.461Z" style="fill:rgb(249,85,185);fill-rule:nonzero;"/>
        <path d="M73.306,318.309C74.794,318.309 75.928,317.913 76.708,317.121C77.488,316.329 77.878,315.369 77.878,314.241C77.878,312.873 77.47,311.865 76.654,311.217C75.838,310.569 74.554,310.245 72.802,310.245L70.21,310.245L70.21,307.761L74.566,301.821L76.618,300.201L73.774,300.525L67.726,300.525L67.726,296.565L81.478,296.565L81.478,299.121L76.402,305.925L74.818,306.897L74.818,307.077L76.33,306.861C77.17,306.933 77.968,307.125 78.724,307.437C79.48,307.749 80.14,308.199 80.704,308.787C81.268,309.375 81.718,310.101 82.054,310.965C82.39,311.829 82.558,312.825 82.558,313.953C82.558,315.369 82.324,316.593 81.856,317.625C81.388,318.657 80.74,319.521 79.912,320.217C79.084,320.913 78.118,321.429 77.014,321.765C75.91,322.101 74.722,322.269 73.45,322.269C72.394,322.269 71.302,322.173 70.174,321.981C69.046,321.789 68.134,321.513 67.438,321.153L68.698,317.265C69.322,317.577 70.012,317.829 70.768,318.021C71.524,318.213 72.37,318.309 73.306,318.309Z" style="fill:rgb(249,85,185);fill-rule:nonzero;"/>
        <path d="M34.57,219.868L39.61,219.868L39.61,202.444L39.97,200.32L38.53,202.012L34.57,204.856L33.202,203.02L41.122,196.9L42.418,196.9L42.418,219.868L47.35,219.868L47.35,222.532L34.57,222.532L34.57,219.868Z" style="fill-rule:nonzero;"/>
        <path d="M52.066,220.984C52.066,220.408 52.258,219.94 52.642,219.58C53.026,219.22 53.518,219.04 54.118,219.04C54.862,219.04 55.468,219.304 55.936,219.832C56.404,220.36 56.638,221.128 56.638,222.136C56.638,223 56.518,223.756 56.278,224.404C56.038,225.052 55.726,225.61 55.342,226.078C54.958,226.546 54.538,226.93 54.082,227.23C53.626,227.53 53.17,227.752 52.714,227.896L51.814,226.492C52.678,226.156 53.32,225.634 53.74,224.926C54.16,224.218 54.37,223.504 54.37,222.784C54.154,222.856 53.95,222.892 53.758,222.892C53.278,222.892 52.876,222.73 52.552,222.406C52.228,222.082 52.066,221.608 52.066,220.984Z" style="fill-rule:nonzero;"/>
        <path d="M65.674,209.932C65.674,205.612 66.376,202.36 67.78,200.176C69.184,197.992 71.23,196.9 73.918,196.9C76.822,196.9 78.928,197.974 80.236,200.122C81.544,202.27 82.198,205.54 82.198,209.932C82.198,214.252 81.496,217.504 80.092,219.688C78.688,221.872 76.63,222.964 73.918,222.964C71.062,222.964 68.974,221.824 67.654,219.544C66.334,217.264 65.674,214.06 65.674,209.932ZM68.662,209.932C68.662,211.492 68.764,212.914 68.968,214.198C69.172,215.482 69.49,216.586 69.922,217.51C70.354,218.434 70.9,219.154 71.56,219.67C72.22,220.186 73.006,220.444 73.918,220.444C75.742,220.444 77.08,219.598 77.932,217.906C78.784,216.214 79.21,213.556 79.21,209.932C79.21,208.396 79.12,206.98 78.94,205.684C78.76,204.388 78.46,203.272 78.04,202.336C77.62,201.4 77.074,200.68 76.402,200.176C75.73,199.672 74.902,199.42 73.918,199.42C72.118,199.42 70.792,200.272 69.94,201.976C69.088,203.68 68.662,206.332 68.662,209.932Z" style="fill-rule:nonzero;"/>
        <path d="M34.57,122.684L39.61,122.684L39.61,105.26L39.97,103.136L38.53,104.828L34.57,107.672L33.202,105.836L41.122,99.716L42.418,99.716L42.418,122.684L47.35,122.684L47.35,125.348L34.57,125.348L34.57,122.684Z" style="fill-rule:nonzero;"/>
        <path d="M52.066,123.8C52.066,123.224 52.258,122.756 52.642,122.396C53.026,122.036 53.518,121.856 54.118,121.856C54.862,121.856 55.468,122.12 55.936,122.648C56.404,123.176 56.638,123.944 56.638,124.952C56.638,125.816 56.518,126.572 56.278,127.22C56.038,127.868 55.726,128.426 55.342,128.894C54.958,129.362 54.538,129.746 54.082,130.046C53.626,130.346 53.17,130.568 52.714,130.712L51.814,129.308C52.678,128.972 53.32,128.45 53.74,127.742C54.16,127.034 54.37,126.32 54.37,125.6C54.154,125.672 53.95,125.708 53.758,125.708C53.278,125.708 52.876,125.546 52.552,125.222C52.228,124.898 52.066,124.424 52.066,123.8Z" style="fill-rule:nonzero;"/>
        <path d="M68.014,122.684L73.054,122.684L73.054,105.26L73.414,103.136L71.974,104.828L68.014,107.672L66.646,105.836L74.566,99.716L75.862,99.716L75.862,122.684L80.794,122.684L80.794,125.348L68.014,125.348L68.014,122.684Z" style="fill-rule:nonzero;"/>
        <path d="M128.14,408.257C128.14,403.841 128.896,400.559 130.408,398.411C131.92,396.263 134.092,395.189 136.924,395.189C139.948,395.189 142.168,396.251 143.584,398.375C145,400.499 145.708,403.793 145.708,408.257C145.708,412.697 144.946,415.997 143.422,418.157C141.898,420.317 139.72,421.397 136.888,421.397C133.888,421.397 131.68,420.263 130.264,417.995C128.848,415.727 128.14,412.481 128.14,408.257ZM132.82,408.257C132.82,411.185 133.138,413.447 133.774,415.043C134.41,416.639 135.46,417.437 136.924,417.437C138.34,417.437 139.378,416.705 140.038,415.241C140.698,413.777 141.028,411.449 141.028,408.257C141.028,405.353 140.716,403.109 140.092,401.525C139.468,399.941 138.4,399.149 136.888,399.149C135.448,399.149 134.41,399.893 133.774,401.381C133.138,402.869 132.82,405.161 132.82,408.257Z" style="fill:rgb(249,85,185);fill-rule:nonzero;"/>
        <path d="M148.624,418.589C148.624,417.773 148.894,417.125 149.434,416.645C149.974,416.165 150.64,415.925 151.432,415.925C152.44,415.925 153.232,416.261 153.808,416.933C154.384,417.605 154.672,418.493 154.672,419.597C154.672,420.677 154.504,421.607 154.168,422.387C153.832,423.167 153.418,423.815 152.926,424.331C152.434,424.847 151.906,425.255 151.342,425.555C150.778,425.855 150.268,426.077 149.812,426.221L148.444,424.277C149.092,424.013 149.656,423.581 150.136,422.981C150.616,422.381 150.88,421.745 150.928,421.073C150.376,421.145 149.854,420.977 149.362,420.569C148.87,420.161 148.624,419.501 148.624,418.589Z" style="fill:rgb(249,85,185);fill-rule:nonzero;"/>
        <path d="M165.58,416.933L170.584,416.933L170.584,402.713L171.124,400.265L169.396,402.389L166.192,404.585L164.212,401.885L172.42,395.261L175.048,395.261L175.048,416.933L179.944,416.933L179.944,420.893L165.58,420.893L165.58,416.933Z" style="fill:rgb(249,85,185);fill-rule:nonzero;"/>
        <path d="M129.544,309.165C129.544,304.845 130.246,301.593 131.65,299.409C133.054,297.225 135.1,296.133 137.788,296.133C140.692,296.133 142.798,297.207 144.106,299.355C145.414,301.503 146.068,304.773 146.068,309.165C146.068,313.485 145.366,316.737 143.962,318.921C142.558,321.105 140.5,322.197 137.788,322.197C134.932,322.197 132.844,321.057 131.524,318.777C130.204,316.497 129.544,313.293 129.544,309.165ZM132.532,309.165C132.532,310.725 132.634,312.147 132.838,313.431C133.042,314.715 133.36,315.819 133.792,316.743C134.224,317.667 134.77,318.387 135.43,318.903C136.09,319.419 136.876,319.677 137.788,319.677C139.612,319.677 140.95,318.831 141.802,317.139C142.654,315.447 143.08,312.789 143.08,309.165C143.08,307.629 142.99,306.213 142.81,304.917C142.63,303.621 142.33,302.505 141.91,301.569C141.49,300.633 140.944,299.913 140.272,299.409C139.6,298.905 138.772,298.653 137.788,298.653C135.988,298.653 134.662,299.505 133.81,301.209C132.958,302.913 132.532,305.565 132.532,309.165Z" style="fill-rule:nonzero;"/>
        <path d="M149.38,320.217C149.38,319.641 149.572,319.173 149.956,318.813C150.34,318.453 150.832,318.273 151.432,318.273C152.176,318.273 152.782,318.537 153.25,319.065C153.718,319.593 153.952,320.361 153.952,321.369C153.952,322.233 153.832,322.989 153.592,323.637C153.352,324.285 153.04,324.843 152.656,325.311C152.272,325.779 151.852,326.163 151.396,326.463C150.94,326.763 150.484,326.985 150.028,327.129L149.128,325.725C149.992,325.389 150.634,324.867 151.054,324.159C151.474,323.451 151.684,322.737 151.684,322.017C151.468,322.089 151.264,322.125 151.072,322.125C150.592,322.125 150.19,321.963 149.866,321.639C149.542,321.315 149.38,320.841 149.38,320.217Z" style="fill-rule:nonzero;"/>
        <path d="M177.496,302.289C177.496,303.561 177.262,304.863 176.794,306.195C176.326,307.527 175.714,308.865 174.958,310.209C174.202,311.553 173.356,312.867 172.42,314.151C171.484,315.435 170.548,316.653 169.612,317.805L167.848,319.353L167.848,319.497L170.152,319.101L178,319.101L178,321.765L163.672,321.765L163.672,320.721C164.2,320.169 164.836,319.485 165.58,318.669C166.324,317.853 167.098,316.947 167.902,315.951C168.706,314.955 169.498,313.899 170.278,312.783C171.058,311.667 171.766,310.533 172.402,309.381C173.038,308.229 173.548,307.089 173.932,305.961C174.316,304.833 174.508,303.765 174.508,302.757C174.508,301.581 174.172,300.603 173.5,299.823C172.828,299.043 171.808,298.653 170.44,298.653C169.528,298.653 168.64,298.839 167.776,299.211C166.912,299.583 166.168,300.009 165.544,300.489L164.356,298.437C165.196,297.717 166.192,297.153 167.344,296.745C168.496,296.337 169.732,296.133 171.052,296.133C172.084,296.133 172.996,296.283 173.788,296.583C174.58,296.883 175.252,297.309 175.804,297.861C176.356,298.413 176.776,299.067 177.064,299.823C177.352,300.579 177.496,301.401 177.496,302.289Z" style="fill-rule:nonzero;"/>
        <path d="M131.884,219.868L136.924,219.868L136.924,202.444L137.284,200.32L135.844,202.012L131.884,204.856L130.516,203.02L138.436,196.9L139.732,196.9L139.732,219.868L144.664,219.868L144.664,222.532L131.884,222.532L131.884,219.868Z" style="fill-rule:nonzero;"/>
        <path d="M149.38,220.984C149.38,220.408 149.572,219.94 149.956,219.58C150.34,219.22 150.832,219.04 151.432,219.04C152.176,219.04 152.782,219.304 153.25,219.832C153.718,220.36 153.952,221.128 153.952,222.136C153.952,223 153.832,223.756 153.592,224.404C153.352,225.052 153.04,225.61 152.656,226.078C152.272,226.546 151.852,226.93 151.396,227.23C150.94,227.53 150.484,227.752 150.028,227.896L149.128,226.492C149.992,226.156 150.634,225.634 151.054,224.926C151.474,224.218 151.684,223.504 151.684,222.784C151.468,222.856 151.264,222.892 151.072,222.892C150.592,222.892 150.19,222.73 149.866,222.406C149.542,222.082 149.38,221.608 149.38,220.984Z" style="fill-rule:nonzero;"/>
        <path d="M169.864,220.444C170.68,220.444 171.436,220.324 172.132,220.084C172.828,219.844 173.428,219.49 173.932,219.022C174.436,218.554 174.832,217.996 175.12,217.348C175.408,216.7 175.552,215.992 175.552,215.224C175.552,213.544 175.054,212.296 174.058,211.48C173.062,210.664 171.688,210.256 169.936,210.256L167.272,210.256L167.272,209.212L172.456,201.22L174.112,199.636L171.772,199.996L164.644,199.996L164.644,197.332L177.496,197.332L177.496,198.376L171.772,206.98L170.512,208.024L170.512,208.096L171.736,207.844C172.696,207.868 173.584,208.042 174.4,208.366C175.216,208.69 175.924,209.158 176.524,209.77C177.124,210.382 177.592,211.114 177.928,211.966C178.264,212.818 178.432,213.784 178.432,214.864C178.432,216.16 178.204,217.312 177.748,218.32C177.292,219.328 176.674,220.174 175.894,220.858C175.114,221.542 174.196,222.064 173.14,222.424C172.084,222.784 170.968,222.964 169.792,222.964C168.712,222.964 167.74,222.88 166.876,222.712C166.012,222.544 165.256,222.328 164.608,222.064L165.364,219.508C165.916,219.772 166.57,219.994 167.326,220.174C168.082,220.354 168.928,220.444 169.864,220.444Z" style="fill-rule:nonzero;"/>
        <path d="M131.884,122.684L136.924,122.684L136.924,105.26L137.284,103.136L135.844,104.828L131.884,107.672L130.516,105.836L138.436,99.716L139.732,99.716L139.732,122.684L144.664,122.684L144.664,125.348L131.884,125.348L131.884,122.684Z" style="fill-rule:nonzero;"/>
        <path d="M149.38,123.8C149.38,123.224 149.572,122.756 149.956,122.396C150.34,122.036 150.832,121.856 151.432,121.856C152.176,121.856 152.782,122.12 153.25,122.648C153.718,123.176 153.952,123.944 153.952,124.952C153.952,125.816 153.832,126.572 153.592,127.22C153.352,127.868 153.04,128.426 152.656,128.894C152.272,129.362 151.852,129.746 151.396,130.046C150.94,130.346 150.484,130.568 150.028,130.712L149.128,129.308C149.992,128.972 150.634,128.45 151.054,127.742C151.474,127.034 151.684,126.32 151.684,125.6C151.468,125.672 151.264,125.708 151.072,125.708C150.592,125.708 150.19,125.546 149.866,125.222C149.542,124.898 149.38,124.424 149.38,123.8Z" style="fill-rule:nonzero;"/>
        <path d="M177.496,105.872C177.496,107.144 177.262,108.446 176.794,109.778C176.326,111.11 175.714,112.448 174.958,113.792C174.202,115.136 173.356,116.45 172.42,117.734C171.484,119.018 170.548,120.236 169.612,121.388L167.848,122.936L167.848,123.08L170.152,122.684L178,122.684L178,125.348L163.672,125.348L163.672,124.304C164.2,123.752 164.836,123.068 165.58,122.252C166.324,121.436 167.098,120.53 167.902,119.534C168.706,118.538 169.498,117.482 170.278,116.366C171.058,115.25 171.766,114.116 172.402,112.964C173.038,111.812 173.548,110.672 173.932,109.544C174.316,108.416 174.508,107.348 174.508,106.34C174.508,105.164 174.172,104.186 173.5,103.406C172.828,102.626 171.808,102.236 170.44,102.236C169.528,102.236 168.64,102.422 167.776,102.794C166.912,103.166 166.168,103.592 165.544,104.072L164.356,102.02C165.196,101.3 166.192,100.736 167.344,100.328C168.496,99.92 169.732,99.716 171.052,99.716C172.084,99.716 172.996,99.866 173.788,100.166C174.58,100.466 175.252,100.892 175.804,101.444C176.356,101.996 176.776,102.65 177.064,103.406C177.352,104.162 177.496,104.984 177.496,105.872Z" style="fill-rule:nonzero;"/>
        <path d="M233.496,417.437C234.984,417.437 236.118,417.041 236.898,416.249C237.678,415.457 238.068,414.497 238.068,413.369C238.068,412.001 237.66,410.993 236.844,410.345C236.028,409.697 234.744,409.373 232.992,409.373L230.4,409.373L230.4,406.889L234.756,400.949L236.808,399.329L233.964,399.653L227.916,399.653L227.916,395.693L241.668,395.693L241.668,398.249L236.592,405.053L235.008,406.025L235.008,406.205L236.52,405.989C237.36,406.061 238.158,406.253 238.914,406.565C239.67,406.877 240.33,407.327 240.894,407.915C241.458,408.503 241.908,409.229 242.244,410.093C242.58,410.957 242.748,411.953 242.748,413.081C242.748,414.497 242.514,415.721 242.046,416.753C241.578,417.785 240.93,418.649 240.102,419.345C239.274,420.041 238.308,420.557 237.204,420.893C236.1,421.229 234.912,421.397 233.64,421.397C232.584,421.397 231.492,421.301 230.364,421.109C229.236,420.917 228.324,420.641 227.628,420.281L228.888,416.393C229.512,416.705 230.202,416.957 230.958,417.149C231.714,417.341 232.56,417.437 233.496,417.437Z" style="fill:rgb(249,85,185);fill-rule:nonzero;"/>
        <path d="M246.744,418.589C246.744,417.773 247.014,417.125 247.554,416.645C248.094,416.165 248.76,415.925 249.552,415.925C250.56,415.925 251.352,416.261 251.928,416.933C252.504,417.605 252.792,418.493 252.792,419.597C252.792,420.677 252.624,421.607 252.288,422.387C251.952,423.167 251.538,423.815 251.046,424.331C250.554,424.847 250.026,425.255 249.462,425.555C248.898,425.855 248.388,426.077 247.932,426.221L246.564,424.277C247.212,424.013 247.776,423.581 248.256,422.981C248.736,422.381 249,421.745 249.048,421.073C248.496,421.145 247.974,420.977 247.482,420.569C246.99,420.161 246.744,419.501 246.744,418.589Z" style="fill:rgb(249,85,185);fill-rule:nonzero;"/>
        <path d="M277.164,401.849C277.164,403.073 276.942,404.309 276.498,405.557C276.054,406.805 275.49,408.029 274.806,409.229C274.122,410.429 273.366,411.587 272.538,412.703C271.71,413.819 270.9,414.845 270.108,415.781L268.2,417.257L268.2,417.437L270.792,416.933L277.704,416.933L277.704,420.893L262.548,420.893L262.548,418.481C263.124,417.881 263.772,417.179 264.492,416.375C265.212,415.571 265.938,414.719 266.67,413.819C267.402,412.919 268.116,411.989 268.812,411.029C269.508,410.069 270.132,409.103 270.684,408.131C271.236,407.159 271.674,406.217 271.998,405.305C272.322,404.393 272.484,403.529 272.484,402.713C272.484,401.729 272.202,400.919 271.638,400.283C271.074,399.647 270.18,399.329 268.956,399.329C268.188,399.329 267.402,399.491 266.598,399.815C265.794,400.139 265.116,400.553 264.564,401.057L262.692,397.745C263.628,396.977 264.69,396.359 265.878,395.891C267.066,395.423 268.464,395.189 270.072,395.189C271.104,395.189 272.052,395.333 272.916,395.621C273.78,395.909 274.524,396.329 275.148,396.881C275.772,397.433 276.264,398.123 276.624,398.951C276.984,399.779 277.164,400.745 277.164,401.849Z" style="fill:rgb(249,85,185);fill-rule:nonzero;"/>
        <path d="M234.54,319.677C235.356,319.677 236.112,319.557 236.808,319.317C237.504,319.077 238.104,318.723 238.608,318.255C239.112,317.787 239.508,317.229 239.796,316.581C240.084,315.933 240.228,315.225 240.228,314.457C240.228,312.777 239.73,311.529 238.734,310.713C237.738,309.897 236.364,309.489 234.612,309.489L231.948,309.489L231.948,308.445L237.132,300.453L238.788,298.869L236.448,299.229L229.32,299.229L229.32,296.565L242.172,296.565L242.172,297.609L236.448,306.213L235.188,307.257L235.188,307.329L236.412,307.077C237.372,307.101 238.26,307.275 239.076,307.599C239.892,307.923 240.6,308.391 241.2,309.003C241.8,309.615 242.268,310.347 242.604,311.199C242.94,312.051 243.108,313.017 243.108,314.097C243.108,315.393 242.88,316.545 242.424,317.553C241.968,318.561 241.35,319.407 240.57,320.091C239.79,320.775 238.872,321.297 237.816,321.657C236.76,322.017 235.644,322.197 234.468,322.197C233.388,322.197 232.416,322.113 231.552,321.945C230.688,321.777 229.932,321.561 229.284,321.297L230.04,318.741C230.592,319.005 231.246,319.227 232.002,319.407C232.758,319.587 233.604,319.677 234.54,319.677Z" style="fill-rule:nonzero;"/>
        <path d="M247.5,320.217C247.5,319.641 247.692,319.173 248.076,318.813C248.46,318.453 248.952,318.273 249.552,318.273C250.296,318.273 250.902,318.537 251.37,319.065C251.838,319.593 252.072,320.361 252.072,321.369C252.072,322.233 251.952,322.989 251.712,323.637C251.472,324.285 251.16,324.843 250.776,325.311C250.392,325.779 249.972,326.163 249.516,326.463C249.06,326.763 248.604,326.985 248.148,327.129L247.248,325.725C248.112,325.389 248.754,324.867 249.174,324.159C249.594,323.451 249.804,322.737 249.804,322.017C249.588,322.089 249.384,322.125 249.192,322.125C248.712,322.125 248.31,321.963 247.986,321.639C247.662,321.315 247.5,320.841 247.5,320.217Z" style="fill-rule:nonzero;"/>
        <path d="M263.448,319.101L268.488,319.101L268.488,301.677L268.848,299.553L267.408,301.245L263.448,304.089L262.08,302.253L270,296.133L271.296,296.133L271.296,319.101L276.228,319.101L276.228,321.765L263.448,321.765L263.448,319.101Z" style="fill-rule:nonzero;"/>
        <path d="M242.172,203.056C242.172,204.328 241.938,205.63 241.47,206.962C241.002,208.294 240.39,209.632 239.634,210.976C238.878,212.32 238.032,213.634 237.096,214.918C236.16,216.202 235.224,217.42 234.288,218.572L232.524,220.12L232.524,220.264L234.828,219.868L242.676,219.868L242.676,222.532L228.348,222.532L228.348,221.488C228.876,220.936 229.512,220.252 230.256,219.436C231,218.62 231.774,217.714 232.578,216.718C233.382,215.722 234.174,214.666 234.954,213.55C235.734,212.434 236.442,211.3 237.078,210.148C237.714,208.996 238.224,207.856 238.608,206.728C238.992,205.6 239.184,204.532 239.184,203.524C239.184,202.348 238.848,201.37 238.176,200.59C237.504,199.81 236.484,199.42 235.116,199.42C234.204,199.42 233.316,199.606 232.452,199.978C231.588,200.35 230.844,200.776 230.22,201.256L229.032,199.204C229.872,198.484 230.868,197.92 232.02,197.512C233.172,197.104 234.408,196.9 235.728,196.9C236.76,196.9 237.672,197.05 238.464,197.35C239.256,197.65 239.928,198.076 240.48,198.628C241.032,199.18 241.452,199.834 241.74,200.59C242.028,201.346 242.172,202.168 242.172,203.056Z" style="fill-rule:nonzero;"/>
        <path d="M247.5,220.984C247.5,220.408 247.692,219.94 248.076,219.58C248.46,219.22 248.952,219.04 249.552,219.04C250.296,219.04 250.902,219.304 251.37,219.832C251.838,220.36 252.072,221.128 252.072,222.136C252.072,223 251.952,223.756 251.712,224.404C251.472,225.052 251.16,225.61 250.776,226.078C250.392,226.546 249.972,226.93 249.516,227.23C249.06,227.53 248.604,227.752 248.148,227.896L247.248,226.492C248.112,226.156 248.754,225.634 249.174,224.926C249.594,224.218 249.804,223.504 249.804,222.784C249.588,222.856 249.384,222.892 249.192,222.892C248.712,222.892 248.31,222.73 247.986,222.406C247.662,222.082 247.5,221.608 247.5,220.984Z" style="fill-rule:nonzero;"/>
        <path d="M261.108,209.932C261.108,205.612 261.81,202.36 263.214,200.176C264.618,197.992 266.664,196.9 269.352,196.9C272.256,196.9 274.362,197.974 275.67,200.122C276.978,202.27 277.632,205.54 277.632,209.932C277.632,214.252 276.93,217.504 275.526,219.688C274.122,221.872 272.064,222.964 269.352,222.964C266.496,222.964 264.408,221.824 263.088,219.544C261.768,217.264 261.108,214.06 261.108,209.932ZM264.096,209.932C264.096,211.492 264.198,212.914 264.402,214.198C264.606,215.482 264.924,216.586 265.356,217.51C265.788,218.434 266.334,219.154 266.994,219.67C267.654,220.186 268.44,220.444 269.352,220.444C271.176,220.444 272.514,219.598 273.366,217.906C274.218,216.214 274.644,213.556 274.644,209.932C274.644,208.396 274.554,206.98 274.374,205.684C274.194,204.388 273.894,203.272 273.474,202.336C273.054,201.4 272.508,200.68 271.836,200.176C271.164,199.672 270.336,199.42 269.352,199.42C267.552,199.42 266.226,200.272 265.374,201.976C264.522,203.68 264.096,206.332 264.096,209.932Z" style="fill-rule:nonzero;"/>
        <path d="M242.172,105.872C242.172,107.144 241.938,108.446 241.47,109.778C241.002,111.11 240.39,112.448 239.634,113.792C238.878,115.136 238.032,116.45 237.096,117.734C236.16,119.018 235.224,120.236 234.288,121.388L232.524,122.936L232.524,123.08L234.828,122.684L242.676,122.684L242.676,125.348L228.348,125.348L228.348,124.304C228.876,123.752 229.512,123.068 230.256,122.252C231,121.436 231.774,120.53 232.578,119.534C233.382,118.538 234.174,117.482 234.954,116.366C235.734,115.25 236.442,114.116 237.078,112.964C237.714,111.812 238.224,110.672 238.608,109.544C238.992,108.416 239.184,107.348 239.184,106.34C239.184,105.164 238.848,104.186 238.176,103.406C237.504,102.626 236.484,102.236 235.116,102.236C234.204,102.236 233.316,102.422 232.452,102.794C231.588,103.166 230.844,103.592 230.22,104.072L229.032,102.02C229.872,101.3 230.868,100.736 232.02,100.328C233.172,99.92 234.408,99.716 235.728,99.716C236.76,99.716 237.672,99.866 238.464,100.166C239.256,100.466 239.928,100.892 240.48,101.444C241.032,101.996 241.452,102.65 241.74,103.406C242.028,104.162 242.172,104.984 242.172,105.872Z" style="fill-rule:nonzero;"/>
        <path d="M247.5,123.8C247.5,123.224 247.692,122.756 248.076,122.396C248.46,122.036 248.952,121.856 249.552,121.856C250.296,121.856 250.902,122.12 251.37,122.648C251.838,123.176 252.072,123.944 252.072,124.952C252.072,125.816 251.952,126.572 251.712,127.22C251.472,127.868 251.16,128.426 250.776,128.894C250.392,129.362 249.972,129.746 249.516,130.046C249.06,130.346 248.604,130.568 248.148,130.712L247.248,129.308C248.112,128.972 248.754,128.45 249.174,127.742C249.594,127.034 249.804,126.32 249.804,125.6C249.588,125.672 249.384,125.708 249.192,125.708C248.712,125.708 248.31,125.546 247.986,125.222C247.662,124.898 247.5,124.424 247.5,123.8Z" style="fill-rule:nonzero;"/>
        <path d="M263.448,122.684L268.488,122.684L268.488,105.26L268.848,103.136L267.408,104.828L263.448,107.672L262.08,105.836L270,99.716L271.296,99.716L271.296,122.684L276.228,122.684L276.228,125.348L263.448,125.348L263.448,122.684Z" style="fill-rule:nonzero;"/>
        <path d="M332.925,418.805C333.741,418.805 334.497,418.685 335.193,418.445C335.889,418.205 336.489,417.851 336.993,417.383C337.497,416.915 337.893,416.357 338.181,415.709C338.469,415.061 338.613,414.353 338.613,413.585C338.613,411.905 338.115,410.657 337.119,409.841C336.123,409.025 334.749,408.617 332.997,408.617L330.333,408.617L330.333,407.573L335.517,399.581L337.173,397.997L334.833,398.357L327.705,398.357L327.705,395.693L340.557,395.693L340.557,396.737L334.833,405.341L333.573,406.385L333.573,406.457L334.797,406.205C335.757,406.229 336.645,406.403 337.461,406.727C338.277,407.051 338.985,407.519 339.585,408.131C340.185,408.743 340.653,409.475 340.989,410.327C341.325,411.179 341.493,412.145 341.493,413.225C341.493,414.521 341.265,415.673 340.809,416.681C340.353,417.689 339.735,418.535 338.955,419.219C338.175,419.903 337.257,420.425 336.201,420.785C335.145,421.145 334.029,421.325 332.853,421.325C331.773,421.325 330.801,421.241 329.937,421.073C329.073,420.905 328.317,420.689 327.669,420.425L328.425,417.869C328.977,418.133 329.631,418.355 330.387,418.535C331.143,418.715 331.989,418.805 332.925,418.805Z" style="fill-rule:nonzero;"/>
        <path d="M345.885,419.345C345.885,418.769 346.077,418.301 346.461,417.941C346.845,417.581 347.337,417.401 347.937,417.401C348.681,417.401 349.287,417.665 349.755,418.193C350.223,418.721 350.457,419.489 350.457,420.497C350.457,421.361 350.337,422.117 350.097,422.765C349.857,423.413 349.545,423.971 349.161,424.439C348.777,424.907 348.357,425.291 347.901,425.591C347.445,425.891 346.989,426.113 346.533,426.257L345.633,424.853C346.497,424.517 347.139,423.995 347.559,423.287C347.979,422.579 348.189,421.865 348.189,421.145C347.973,421.217 347.769,421.253 347.577,421.253C347.097,421.253 346.695,421.091 346.371,420.767C346.047,420.443 345.885,419.969 345.885,419.345Z" style="fill-rule:nonzero;"/>
        <path d="M366.369,418.805C367.185,418.805 367.941,418.685 368.637,418.445C369.333,418.205 369.933,417.851 370.437,417.383C370.941,416.915 371.337,416.357 371.625,415.709C371.913,415.061 372.057,414.353 372.057,413.585C372.057,411.905 371.559,410.657 370.563,409.841C369.567,409.025 368.193,408.617 366.441,408.617L363.777,408.617L363.777,407.573L368.961,399.581L370.617,397.997L368.277,398.357L361.149,398.357L361.149,395.693L374.001,395.693L374.001,396.737L368.277,405.341L367.017,406.385L367.017,406.457L368.241,406.205C369.201,406.229 370.089,406.403 370.905,406.727C371.721,407.051 372.429,407.519 373.029,408.131C373.629,408.743 374.097,409.475 374.433,410.327C374.769,411.179 374.937,412.145 374.937,413.225C374.937,414.521 374.709,415.673 374.253,416.681C373.797,417.689 373.179,418.535 372.399,419.219C371.619,419.903 370.701,420.425 369.645,420.785C368.589,421.145 367.473,421.325 366.297,421.325C365.217,421.325 364.245,421.241 363.381,421.073C362.517,420.905 361.761,420.689 361.113,420.425L361.869,417.869C362.421,418.133 363.075,418.355 363.831,418.535C364.587,418.715 365.433,418.805 366.369,418.805Z" style="fill-rule:nonzero;"/>
        <path d="M331.881,318.309C333.369,318.309 334.503,317.913 335.283,317.121C336.063,316.329 336.453,315.369 336.453,314.241C336.453,312.873 336.045,311.865 335.229,311.217C334.413,310.569 333.129,310.245 331.377,310.245L328.785,310.245L328.785,307.761L333.141,301.821L335.193,300.201L332.349,300.525L326.301,300.525L326.301,296.565L340.053,296.565L340.053,299.121L334.977,305.925L333.393,306.897L333.393,307.077L334.905,306.861C335.745,306.933 336.543,307.125 337.299,307.437C338.055,307.749 338.715,308.199 339.279,308.787C339.843,309.375 340.293,310.101 340.629,310.965C340.965,311.829 341.133,312.825 341.133,313.953C341.133,315.369 340.899,316.593 340.431,317.625C339.963,318.657 339.315,319.521 338.487,320.217C337.659,320.913 336.693,321.429 335.589,321.765C334.485,322.101 333.297,322.269 332.025,322.269C330.969,322.269 329.877,322.173 328.749,321.981C327.621,321.789 326.709,321.513 326.013,321.153L327.273,317.265C327.897,317.577 328.587,317.829 329.343,318.021C330.099,318.213 330.945,318.309 331.881,318.309Z" style="fill:rgb(249,85,185);fill-rule:nonzero;"/>
        <path d="M345.129,319.461C345.129,318.645 345.399,317.997 345.939,317.517C346.479,317.037 347.145,316.797 347.937,316.797C348.945,316.797 349.737,317.133 350.313,317.805C350.889,318.477 351.177,319.365 351.177,320.469C351.177,321.549 351.009,322.479 350.673,323.259C350.337,324.039 349.923,324.687 349.431,325.203C348.939,325.719 348.411,326.127 347.847,326.427C347.283,326.727 346.773,326.949 346.317,327.093L344.949,325.149C345.597,324.885 346.161,324.453 346.641,323.853C347.121,323.253 347.385,322.617 347.433,321.945C346.881,322.017 346.359,321.849 345.867,321.441C345.375,321.033 345.129,320.373 345.129,319.461Z" style="fill:rgb(249,85,185);fill-rule:nonzero;"/>
        <path d="M359.889,309.129C359.889,304.713 360.645,301.431 362.157,299.283C363.669,297.135 365.841,296.061 368.673,296.061C371.697,296.061 373.917,297.123 375.333,299.247C376.749,301.371 377.457,304.665 377.457,309.129C377.457,313.569 376.695,316.869 375.171,319.029C373.647,321.189 371.469,322.269 368.637,322.269C365.637,322.269 363.429,321.135 362.013,318.867C360.597,316.599 359.889,313.353 359.889,309.129ZM364.569,309.129C364.569,312.057 364.887,314.319 365.523,315.915C366.159,317.511 367.209,318.309 368.673,318.309C370.089,318.309 371.127,317.577 371.787,316.113C372.447,314.649 372.777,312.321 372.777,309.129C372.777,306.225 372.465,303.981 371.841,302.397C371.217,300.813 370.149,300.021 368.637,300.021C367.197,300.021 366.159,300.765 365.523,302.253C364.887,303.741 364.569,306.033 364.569,309.129Z" style="fill:rgb(249,85,185);fill-rule:nonzero;"/>
        <path d="M340.557,203.056C340.557,204.328 340.323,205.63 339.855,206.962C339.387,208.294 338.775,209.632 338.019,210.976C337.263,212.32 336.417,213.634 335.481,214.918C334.545,216.202 333.609,217.42 332.673,218.572L330.909,220.12L330.909,220.264L333.213,219.868L341.061,219.868L341.061,222.532L326.733,222.532L326.733,221.488C327.261,220.936 327.897,220.252 328.641,219.436C329.385,218.62 330.159,217.714 330.963,216.718C331.767,215.722 332.559,214.666 333.339,213.55C334.119,212.434 334.827,211.3 335.463,210.148C336.099,208.996 336.609,207.856 336.993,206.728C337.377,205.6 337.569,204.532 337.569,203.524C337.569,202.348 337.233,201.37 336.561,200.59C335.889,199.81 334.869,199.42 333.501,199.42C332.589,199.42 331.701,199.606 330.837,199.978C329.973,200.35 329.229,200.776 328.605,201.256L327.417,199.204C328.257,198.484 329.253,197.92 330.405,197.512C331.557,197.104 332.793,196.9 334.113,196.9C335.145,196.9 336.057,197.05 336.849,197.35C337.641,197.65 338.313,198.076 338.865,198.628C339.417,199.18 339.837,199.834 340.125,200.59C340.413,201.346 340.557,202.168 340.557,203.056Z" style="fill-rule:nonzero;"/>
        <path d="M345.885,220.984C345.885,220.408 346.077,219.94 346.461,219.58C346.845,219.22 347.337,219.04 347.937,219.04C348.681,219.04 349.287,219.304 349.755,219.832C350.223,220.36 350.457,221.128 350.457,222.136C350.457,223 350.337,223.756 350.097,224.404C349.857,225.052 349.545,225.61 349.161,226.078C348.777,226.546 348.357,226.93 347.901,227.23C347.445,227.53 346.989,227.752 346.533,227.896L345.633,226.492C346.497,226.156 347.139,225.634 347.559,224.926C347.979,224.218 348.189,223.504 348.189,222.784C347.973,222.856 347.769,222.892 347.577,222.892C347.097,222.892 346.695,222.73 346.371,222.406C346.047,222.082 345.885,221.608 345.885,220.984Z" style="fill-rule:nonzero;"/>
        <path d="M366.369,220.444C367.185,220.444 367.941,220.324 368.637,220.084C369.333,219.844 369.933,219.49 370.437,219.022C370.941,218.554 371.337,217.996 371.625,217.348C371.913,216.7 372.057,215.992 372.057,215.224C372.057,213.544 371.559,212.296 370.563,211.48C369.567,210.664 368.193,210.256 366.441,210.256L363.777,210.256L363.777,209.212L368.961,201.22L370.617,199.636L368.277,199.996L361.149,199.996L361.149,197.332L374.001,197.332L374.001,198.376L368.277,206.98L367.017,208.024L367.017,208.096L368.241,207.844C369.201,207.868 370.089,208.042 370.905,208.366C371.721,208.69 372.429,209.158 373.029,209.77C373.629,210.382 374.097,211.114 374.433,211.966C374.769,212.818 374.937,213.784 374.937,214.864C374.937,216.16 374.709,217.312 374.253,218.32C373.797,219.328 373.179,220.174 372.399,220.858C371.619,221.542 370.701,222.064 369.645,222.424C368.589,222.784 367.473,222.964 366.297,222.964C365.217,222.964 364.245,222.88 363.381,222.712C362.517,222.544 361.761,222.328 361.113,222.064L361.869,219.508C362.421,219.772 363.075,219.994 363.831,220.174C364.587,220.354 365.433,220.444 366.369,220.444Z" style="fill-rule:nonzero;"/>
        <path d="M340.557,105.872C340.557,107.144 340.323,108.446 339.855,109.778C339.387,111.11 338.775,112.448 338.019,113.792C337.263,115.136 336.417,116.45 335.481,117.734C334.545,119.018 333.609,120.236 332.673,121.388L330.909,122.936L330.909,123.08L333.213,122.684L341.061,122.684L341.061,125.348L326.733,125.348L326.733,124.304C327.261,123.752 327.897,123.068 328.641,122.252C329.385,121.436 330.159,120.53 330.963,119.534C331.767,118.538 332.559,117.482 333.339,116.366C334.119,115.25 334.827,114.116 335.463,112.964C336.099,111.812 336.609,110.672 336.993,109.544C337.377,108.416 337.569,107.348 337.569,106.34C337.569,105.164 337.233,104.186 336.561,103.406C335.889,102.626 334.869,102.236 333.501,102.236C332.589,102.236 331.701,102.422 330.837,102.794C329.973,103.166 329.229,103.592 328.605,104.072L327.417,102.02C328.257,101.3 329.253,100.736 330.405,100.328C331.557,99.92 332.793,99.716 334.113,99.716C335.145,99.716 336.057,99.866 336.849,100.166C337.641,100.466 338.313,100.892 338.865,101.444C339.417,101.996 339.837,102.65 340.125,103.406C340.413,104.162 340.557,104.984 340.557,105.872Z" style="fill-rule:nonzero;"/>
        <path d="M345.885,123.8C345.885,123.224 346.077,122.756 346.461,122.396C346.845,122.036 347.337,121.856 347.937,121.856C348.681,121.856 349.287,122.12 349.755,122.648C350.223,123.176 350.457,123.944 350.457,124.952C350.457,125.816 350.337,126.572 350.097,127.22C349.857,127.868 349.545,128.426 349.161,128.894C348.777,129.362 348.357,129.746 347.901,130.046C347.445,130.346 346.989,130.568 346.533,130.712L345.633,129.308C346.497,128.972 347.139,128.45 347.559,127.742C347.979,127.034 348.189,126.32 348.189,125.6C347.973,125.672 347.769,125.708 347.577,125.708C347.097,125.708 346.695,125.546 346.371,125.222C346.047,124.898 345.885,124.424 345.885,123.8Z" style="fill-rule:nonzero;"/>
        <path d="M374.001,105.872C374.001,107.144 373.767,108.446 373.299,109.778C372.831,111.11 372.219,112.448 371.463,113.792C370.707,115.136 369.861,116.45 368.925,117.734C367.989,119.018 367.053,120.236 366.117,121.388L364.353,122.936L364.353,123.08L366.657,122.684L374.505,122.684L374.505,125.348L360.177,125.348L360.177,124.304C360.705,123.752 361.341,123.068 362.085,122.252C362.829,121.436 363.603,120.53 364.407,119.534C365.211,118.538 366.003,117.482 366.783,116.366C367.563,115.25 368.271,114.116 368.907,112.964C369.543,111.812 370.053,110.672 370.437,109.544C370.821,108.416 371.013,107.348 371.013,106.34C371.013,105.164 370.677,104.186 370.005,103.406C369.333,102.626 368.313,102.236 366.945,102.236C366.033,102.236 365.145,102.422 364.281,102.794C363.417,103.166 362.673,103.592 362.049,104.072L360.861,102.02C361.701,101.3 362.697,100.736 363.849,100.328C365.001,99.92 366.237,99.716 367.557,99.716C368.589,99.716 369.501,99.866 370.293,100.166C371.085,100.466 371.757,100.892 372.309,101.444C372.861,101.996 373.281,102.65 373.569,103.406C373.857,104.162 374.001,104.984 374.001,105.872Z" style="fill-rule:nonzero;"/>
        <path d="M233.456,32.189L239.016,32.189L239.016,16.389L239.616,13.669L237.696,16.029L234.136,18.469L231.936,15.469L241.056,8.109L243.976,8.109L243.976,32.189L249.416,32.189L249.416,36.589L233.456,36.589L233.456,32.189Z" style="fill-rule:nonzero;"/>
        <path d="M253.696,22.549C253.696,17.642 254.536,13.995 256.216,11.609C257.896,9.222 260.309,8.029 263.456,8.029C266.816,8.029 269.282,9.209 270.856,11.569C272.429,13.929 273.216,17.589 273.216,22.549C273.216,27.482 272.369,31.149 270.676,33.549C268.982,35.949 266.562,37.149 263.416,37.149C260.082,37.149 257.629,35.889 256.056,33.369C254.482,30.849 253.696,27.242 253.696,22.549ZM258.896,22.549C258.896,25.802 259.249,28.315 259.956,30.089C260.662,31.862 261.829,32.749 263.456,32.749C265.029,32.749 266.182,31.935 266.916,30.309C267.649,28.682 268.016,26.095 268.016,22.549C268.016,19.322 267.669,16.829 266.976,15.069C266.282,13.309 265.096,12.429 263.416,12.429C261.816,12.429 260.662,13.255 259.956,14.909C259.249,16.562 258.896,19.109 258.896,22.549Z" style="fill-rule:nonzero;"/>
        <path d="M130.961,22.549C130.961,17.642 131.801,13.995 133.481,11.609C135.161,9.222 137.574,8.029 140.721,8.029C144.081,8.029 146.548,9.209 148.121,11.569C149.694,13.929 150.481,17.589 150.481,22.549C150.481,27.482 149.634,31.149 147.941,33.549C146.248,35.949 143.828,37.149 140.681,37.149C137.348,37.149 134.894,35.889 133.321,33.369C131.748,30.849 130.961,27.242 130.961,22.549ZM136.161,22.549C136.161,25.802 136.514,28.315 137.221,30.089C137.928,31.862 139.094,32.749 140.721,32.749C142.294,32.749 143.448,31.935 144.181,30.309C144.914,28.682 145.281,26.095 145.281,22.549C145.281,19.322 144.934,16.829 144.241,15.069C143.548,13.309 142.361,12.429 140.681,12.429C139.081,12.429 137.928,13.255 137.221,14.909C136.514,16.562 136.161,19.109 136.161,22.549Z" style="fill-rule:nonzero;"/>
        <path d="M156.081,32.189L161.641,32.189L161.641,16.389L162.241,13.669L160.321,16.029L156.761,18.469L154.561,15.469L163.681,8.109L166.601,8.109L166.601,32.189L172.041,32.189L172.041,36.589L156.081,36.589L156.081,32.189Z" style="fill-rule:nonzero;"/>
        <path d="M331.361,32.189L336.921,32.189L336.921,16.389L337.521,13.669L335.601,16.029L332.041,18.469L329.841,15.469L338.961,8.109L341.881,8.109L341.881,32.189L347.321,32.189L347.321,36.589L331.361,36.589L331.361,32.189Z" style="fill-rule:nonzero;"/>
        <path d="M354.041,32.189L359.601,32.189L359.601,16.389L360.201,13.669L358.281,16.029L354.721,18.469L352.521,15.469L361.641,8.109L364.561,8.109L364.561,32.189L370.001,32.189L370.001,36.589L354.041,36.589L354.041,32.189Z" style="fill-rule:nonzero;"/>
        <path d="M422.283,219.548L427.843,219.548L427.843,203.748L428.443,201.028L426.523,203.388L422.963,205.828L420.763,202.828L429.883,195.468L432.803,195.468L432.803,219.548L438.243,219.548L438.243,223.948L422.283,223.948L422.283,219.548Z" style="fill-rule:nonzero;"/>
        <path d="M442.523,209.908C442.523,205.001 443.363,201.355 445.043,198.968C446.723,196.581 449.136,195.388 452.283,195.388C455.643,195.388 458.11,196.568 459.683,198.928C461.256,201.288 462.043,204.948 462.043,209.908C462.043,214.841 461.196,218.508 459.503,220.908C457.81,223.308 455.39,224.508 452.243,224.508C448.91,224.508 446.456,223.248 444.883,220.728C443.31,218.208 442.523,214.601 442.523,209.908ZM447.723,209.908C447.723,213.161 448.076,215.675 448.783,217.448C449.49,219.221 450.656,220.108 452.283,220.108C453.856,220.108 455.01,219.295 455.743,217.668C456.476,216.041 456.843,213.455 456.843,209.908C456.843,206.681 456.496,204.188 455.803,202.428C455.11,200.668 453.923,199.788 452.243,199.788C450.643,199.788 449.49,200.615 448.783,202.268C448.076,203.921 447.723,206.468 447.723,209.908Z" style="fill-rule:nonzero;"/>
        <path d="M421.247,309.543C421.247,304.637 422.087,300.99 423.767,298.603C425.447,296.217 427.86,295.023 431.007,295.023C434.367,295.023 436.834,296.203 438.407,298.563C439.98,300.923 440.767,304.583 440.767,309.543C440.767,314.477 439.92,318.143 438.227,320.543C436.534,322.943 434.114,324.143 430.967,324.143C427.634,324.143 425.18,322.883 423.607,320.363C422.034,317.843 421.247,314.237 421.247,309.543ZM426.447,309.543C426.447,312.797 426.8,315.31 427.507,317.083C428.214,318.857 429.38,319.743 431.007,319.743C432.58,319.743 433.734,318.93 434.467,317.303C435.2,315.677 435.567,313.09 435.567,309.543C435.567,306.317 435.22,303.823 434.527,302.063C433.834,300.303 432.647,299.423 430.967,299.423C429.367,299.423 428.214,300.25 427.507,301.903C426.8,303.557 426.447,306.103 426.447,309.543Z" style="fill-rule:nonzero;"/>
        <path d="M446.367,319.183L451.927,319.183L451.927,303.383L452.527,300.663L450.607,303.023L447.047,305.463L444.847,302.463L453.967,295.103L456.887,295.103L456.887,319.183L462.327,319.183L462.327,323.583L446.367,323.583L446.367,319.183Z" style="fill-rule:nonzero;"/>
        <path d="M422.283,120.948L427.843,120.948L427.843,105.148L428.443,102.428L426.523,104.788L422.963,107.228L420.763,104.228L429.883,96.868L432.803,96.868L432.803,120.948L438.243,120.948L438.243,125.348L422.283,125.348L422.283,120.948Z" style="fill-rule:nonzero;"/>
        <path d="M444.963,120.948L450.523,120.948L450.523,105.148L451.123,102.428L449.203,104.788L445.643,107.228L443.443,104.228L452.563,96.868L455.483,96.868L455.483,120.948L460.923,120.948L460.923,125.348L444.963,125.348L444.963,120.948Z" style="fill-rule:nonzero;"/>
        <g id="halos">
        </g>
        <g id="halos1" serif:id="halos">
        </g>
        <g id="digits">
        </g>
        <g id="digits1" serif:id="digits">
        </g>
    </g>
</svg>
