<?xml version="1.0" encoding="UTF-8" standalone="no"?>
<!DOCTYPE svg PUBLIC "-//W3C//DTD SVG 1.1//EN" "http://www.w3.org/Graphics/SVG/1.1/DTD/svg11.dtd">
<svg width="100%" height="100%" viewBox="0 0 472 464" version="1.1" xmlns="http://www.w3.org/2000/svg" xmlns:xlink="http://www.w3.org/1999/xlink" xml:space="preserve" xmlns:serif="http://www.serif.com/" style="fill-rule:evenodd;clip-rule:evenodd;stroke-linejoin:round;stroke-miterlimit:10;">
    <rect id="polygon_triangulation" x="-3176" y="-2760" width="8206" height="4260" style="fill:none;"/>
    <g id="polygon_triangulation1" serif:id="polygon_triangulation">
        <g id="TIN-vertices" serif:id="TIN vertices">
        </g>
        <g id="TIN-edges" serif:id="TIN edges">
        </g>
        <rect x="9.028" y="60.754" width="98.3" height="98.3" style="fill:white;stroke:black;stroke-width:2px;"/>
        <rect x="9.028" y="257.7" width="98.3" height="98.3" style="fill:white;stroke:black;stroke-width:2px;"/>
        <rect x="205.628" y="60.754" width="98.3" height="98.3" style="fill:white;stroke:black;stroke-width:2px;"/>
        <rect x="205.628" y="257.7" width="98.3" height="98.3" style="fill:white;stroke:black;stroke-width:2px;"/>
        <rect x="9.028" y="159.054" width="98.3" height="98.3" style="fill:white;stroke:black;stroke-width:2px;"/>
        <rect x="9.028" y="356" width="98.3" height="98.3" style="fill:white;stroke:black;stroke-width:2px;"/>
        <rect x="205.628" y="159.054" width="98.3" height="98.3" style="fill:white;stroke:black;stroke-width:2px;"/>
        <rect x="205.628" y="356" width="98.3" height="98.3" style="fill:white;stroke:black;stroke-width:2px;"/>
        <rect x="107.328" y="60.754" width="98.3" height="98.3" style="fill:white;stroke:black;stroke-width:2px;"/>
        <rect x="107.328" y="257.7" width="98.3" height="98.3" style="fill:white;stroke:black;stroke-width:2px;"/>
        <rect x="303.928" y="60.754" width="98.3" height="98.3" style="fill:white;stroke:black;stroke-width:2px;"/>
        <rect x="303.928" y="257.7" width="98.3" height="98.3" style="fill:white;stroke:black;stroke-width:2px;"/>
        <rect x="107.328" y="159.054" width="98.3" height="98.3" style="fill:white;stroke:black;stroke-width:2px;"/>
        <rect x="107.328" y="356" width="98.3" height="98.3" style="fill:white;stroke:black;stroke-width:2px;"/>
        <rect x="303.928" y="159.054" width="98.3" height="98.3" style="fill:white;stroke:black;stroke-width:2px;"/>
        <rect x="303.928" y="356" width="98.3" height="98.3" style="fill:white;stroke:black;stroke-width:2px;"/>
        <path d="M422.729,404.11C422.729,399.204 423.569,395.557 425.249,393.17C426.929,390.784 429.343,389.59 432.489,389.59C435.849,389.59 438.316,390.77 439.889,393.13C441.463,395.49 442.249,399.15 442.249,404.11C442.249,409.044 441.403,412.71 439.709,415.11C438.016,417.51 435.596,418.71 432.449,418.71C429.116,418.71 426.663,417.45 425.089,414.93C423.516,412.41 422.729,408.804 422.729,404.11ZM427.929,404.11C427.929,407.364 428.283,409.877 428.989,411.65C429.696,413.424 430.863,414.31 432.489,414.31C434.063,414.31 435.216,413.497 435.949,411.87C436.683,410.244 437.049,407.657 437.049,404.11C437.049,400.884 436.703,398.39 436.009,396.63C435.316,394.87 434.129,393.99 432.449,393.99C430.849,393.99 429.696,394.817 428.989,396.47C428.283,398.124 427.929,400.67 427.929,404.11Z" style="fill-rule:nonzero;"/>
        <path d="M445.409,404.11C445.409,399.204 446.249,395.557 447.929,393.17C449.609,390.784 452.023,389.59 455.169,389.59C458.529,389.59 460.996,390.77 462.569,393.13C464.143,395.49 464.929,399.15 464.929,404.11C464.929,409.044 464.083,412.71 462.389,415.11C460.696,417.51 458.276,418.71 455.129,418.71C451.796,418.71 449.343,417.45 447.769,414.93C446.196,412.41 445.409,408.804 445.409,404.11ZM450.609,404.11C450.609,407.364 450.963,409.877 451.669,411.65C452.376,413.424 453.543,414.31 455.169,414.31C456.743,414.31 457.896,413.497 458.629,411.87C459.363,410.244 459.729,407.657 459.729,404.11C459.729,400.884 459.383,398.39 458.689,396.63C457.996,394.87 456.809,393.99 455.129,393.99C453.529,393.99 452.376,394.817 451.669,396.47C450.963,398.124 450.609,400.67 450.609,404.11Z" style="fill-rule:nonzero;"/>
        <path d="M35.942,19.406C35.942,14.499 36.782,10.853 38.462,8.466C40.142,6.079 42.556,4.886 45.702,4.886C49.062,4.886 51.529,6.066 53.102,8.426C54.676,10.786 55.462,14.446 55.462,19.406C55.462,24.339 54.616,28.006 52.922,30.406C51.229,32.806 48.809,34.006 45.662,34.006C42.329,34.006 39.876,32.746 38.302,30.226C36.729,27.706 35.942,24.099 35.942,19.406ZM41.142,19.406C41.142,22.659 41.496,25.173 42.202,26.946C42.909,28.719 44.076,29.606 45.702,29.606C47.276,29.606 48.429,28.793 49.162,27.166C49.896,25.539 50.262,22.953 50.262,19.406C50.262,16.179 49.916,13.686 49.222,11.926C48.529,10.166 47.342,9.286 45.662,9.286C44.062,9.286 42.909,10.113 42.202,11.766C41.496,13.419 41.142,15.966 41.142,19.406Z" style="fill-rule:nonzero;"/>
        <path d="M58.622,19.406C58.622,14.499 59.462,10.853 61.142,8.466C62.822,6.079 65.236,4.886 68.382,4.886C71.742,4.886 74.209,6.066 75.782,8.426C77.356,10.786 78.142,14.446 78.142,19.406C78.142,24.339 77.296,28.006 75.602,30.406C73.909,32.806 71.489,34.006 68.342,34.006C65.009,34.006 62.556,32.746 60.982,30.226C59.409,27.706 58.622,24.099 58.622,19.406ZM63.822,19.406C63.822,22.659 64.176,25.173 64.882,26.946C65.589,28.719 66.756,29.606 68.382,29.606C69.956,29.606 71.109,28.793 71.842,27.166C72.576,25.539 72.942,22.953 72.942,19.406C72.942,16.179 72.596,13.686 71.902,11.926C71.209,10.166 70.022,9.286 68.342,9.286C66.742,9.286 65.589,10.113 64.882,11.766C64.176,13.419 63.822,15.966 63.822,19.406Z" style="fill-rule:nonzero;"/>
        <path d="M236.342,29.046L241.902,29.046L241.902,13.246L242.502,10.526L240.582,12.886L237.022,15.326L234.822,12.326L243.942,4.966L246.862,4.966L246.862,29.046L252.302,29.046L252.302,33.446L236.342,33.446L236.342,29.046Z" style="fill-rule:nonzero;"/>
        <path d="M256.582,19.406C256.582,14.499 257.422,10.853 259.102,8.466C260.782,6.079 263.196,4.886 266.342,4.886C269.702,4.886 272.169,6.066 273.742,8.426C275.316,10.786 276.102,14.446 276.102,19.406C276.102,24.339 275.256,28.006 273.562,30.406C271.869,32.806 269.449,34.006 266.302,34.006C262.969,34.006 260.516,32.746 258.942,30.226C257.369,27.706 256.582,24.099 256.582,19.406ZM261.782,19.406C261.782,22.659 262.136,25.173 262.842,26.946C263.549,28.719 264.716,29.606 266.342,29.606C267.916,29.606 269.069,28.793 269.802,27.166C270.536,25.539 270.902,22.953 270.902,19.406C270.902,16.179 270.556,13.686 269.862,11.926C269.169,10.166 267.982,9.286 266.302,9.286C264.702,9.286 263.549,10.113 262.842,11.766C262.136,13.419 261.782,15.966 261.782,19.406Z" style="fill-rule:nonzero;"/>
        <path d="M133.848,19.406C133.848,14.499 134.688,10.853 136.368,8.466C138.048,6.079 140.461,4.886 143.608,4.886C146.968,4.886 149.434,6.066 151.008,8.426C152.581,10.786 153.368,14.446 153.368,19.406C153.368,24.339 152.521,28.006 150.828,30.406C149.134,32.806 146.714,34.006 143.568,34.006C140.234,34.006 137.781,32.746 136.208,30.226C134.634,27.706 133.848,24.099 133.848,19.406ZM139.048,19.406C139.048,22.659 139.401,25.173 140.108,26.946C140.814,28.719 141.981,29.606 143.608,29.606C145.181,29.606 146.334,28.793 147.068,27.166C147.801,25.539 148.168,22.953 148.168,19.406C148.168,16.179 147.821,13.686 147.128,11.926C146.434,10.166 145.248,9.286 143.568,9.286C141.968,9.286 140.814,10.113 140.108,11.766C139.401,13.419 139.048,15.966 139.048,19.406Z" style="fill-rule:nonzero;"/>
        <path d="M158.968,29.046L164.528,29.046L164.528,13.246L165.128,10.526L163.208,12.886L159.648,15.326L157.448,12.326L166.568,4.966L169.488,4.966L169.488,29.046L174.928,29.046L174.928,33.446L158.968,33.446L158.968,29.046Z" style="fill-rule:nonzero;"/>
        <path d="M334.248,29.046L339.808,29.046L339.808,13.246L340.408,10.526L338.488,12.886L334.928,15.326L332.728,12.326L341.848,4.966L344.768,4.966L344.768,29.046L350.208,29.046L350.208,33.446L334.248,33.446L334.248,29.046Z" style="fill-rule:nonzero;"/>
        <path d="M356.928,29.046L362.488,29.046L362.488,13.246L363.088,10.526L361.168,12.886L357.608,15.326L355.408,12.326L364.528,4.966L367.448,4.966L367.448,29.046L372.888,29.046L372.888,33.446L356.928,33.446L356.928,29.046Z" style="fill-rule:nonzero;"/>
        <path d="M425.169,216.405L430.729,216.405L430.729,200.605L431.329,197.885L429.409,200.245L425.849,202.685L423.649,199.685L432.769,192.325L435.689,192.325L435.689,216.405L441.129,216.405L441.129,220.805L425.169,220.805L425.169,216.405Z" style="fill-rule:nonzero;"/>
        <path d="M445.409,206.765C445.409,201.859 446.249,198.212 447.929,195.825C449.609,193.439 452.023,192.245 455.169,192.245C458.529,192.245 460.996,193.425 462.569,195.785C464.143,198.145 464.929,201.805 464.929,206.765C464.929,211.699 464.083,215.365 462.389,217.765C460.696,220.165 458.276,221.365 455.129,221.365C451.796,221.365 449.343,220.105 447.769,217.585C446.196,215.065 445.409,211.459 445.409,206.765ZM450.609,206.765C450.609,210.019 450.963,212.532 451.669,214.305C452.376,216.079 453.543,216.965 455.169,216.965C456.743,216.965 457.896,216.152 458.629,214.525C459.363,212.899 459.729,210.312 459.729,206.765C459.729,203.539 459.383,201.045 458.689,199.285C457.996,197.525 456.809,196.645 455.129,196.645C453.529,196.645 452.376,197.472 451.669,199.125C450.963,200.779 450.609,203.325 450.609,206.765Z" style="fill-rule:nonzero;"/>
        <path d="M424.133,306.4C424.133,301.494 424.973,297.847 426.653,295.46C428.333,293.074 430.747,291.88 433.893,291.88C437.253,291.88 439.72,293.06 441.293,295.42C442.867,297.78 443.653,301.44 443.653,306.4C443.653,311.334 442.807,315 441.113,317.4C439.42,319.8 437,321 433.853,321C430.52,321 428.067,319.74 426.493,317.22C424.92,314.7 424.133,311.094 424.133,306.4ZM429.333,306.4C429.333,309.654 429.687,312.167 430.393,313.94C431.1,315.714 432.267,316.6 433.893,316.6C435.467,316.6 436.62,315.787 437.353,314.16C438.087,312.534 438.453,309.947 438.453,306.4C438.453,303.174 438.107,300.68 437.413,298.92C436.72,297.16 435.533,296.28 433.853,296.28C432.253,296.28 431.1,297.107 430.393,298.76C429.687,300.414 429.333,302.96 429.333,306.4Z" style="fill-rule:nonzero;"/>
        <path d="M449.253,316.04L454.813,316.04L454.813,300.24L455.413,297.52L453.493,299.88L449.933,302.32L447.733,299.32L456.853,291.96L459.773,291.96L459.773,316.04L465.213,316.04L465.213,320.44L449.253,320.44L449.253,316.04Z" style="fill-rule:nonzero;"/>
        <path d="M425.169,117.805L430.729,117.805L430.729,102.005L431.329,99.285L429.409,101.645L425.849,104.085L423.649,101.085L432.769,93.725L435.689,93.725L435.689,117.805L441.129,117.805L441.129,122.205L425.169,122.205L425.169,117.805Z" style="fill-rule:nonzero;"/>
        <path d="M447.849,117.805L453.409,117.805L453.409,102.005L454.009,99.285L452.089,101.645L448.529,104.085L446.329,101.085L455.449,93.725L458.369,93.725L458.369,117.805L463.809,117.805L463.809,122.205L447.849,122.205L447.849,117.805Z" style="fill-rule:nonzero;"/>
        <g id="halos">
        </g>
        <g id="halos1" serif:id="halos">
        </g>
        <g id="digits">
        </g>
        <g id="digits1" serif:id="digits">
        </g>
    </g>
</svg>
