<?xml version="1.0" encoding="UTF-8" standalone="no"?>
<!DOCTYPE svg PUBLIC "-//W3C//DTD SVG 1.1//EN" "http://www.w3.org/Graphics/SVG/1.1/DTD/svg11.dtd">
<svg width="100%" height="100%" viewBox="0 0 472 467" version="1.1" xmlns="http://www.w3.org/2000/svg" xmlns:xlink="http://www.w3.org/1999/xlink" xml:space="preserve" xmlns:serif="http://www.serif.com/" style="fill-rule:evenodd;clip-rule:evenodd;stroke-linejoin:round;stroke-miterlimit:10;">
    <rect id="polygon_triangulation" x="-4381" y="-3278" width="8206" height="4260" style="fill:none;"/>
    <g id="polygon_triangulation1" serif:id="polygon_triangulation">
        <g id="TIN-vertices" serif:id="TIN vertices">
        </g>
        <g id="TIN-edges" serif:id="TIN edges">
        </g>
        <rect x="5.822" y="63.897" width="98.3" height="98.3" style="fill:white;stroke:black;stroke-width:2px;"/>
        <rect x="5.822" y="260.843" width="98.3" height="98.3" style="fill:white;stroke:black;stroke-width:2px;"/>
        <rect x="202.422" y="63.897" width="98.3" height="98.3" style="fill:white;stroke:black;stroke-width:2px;"/>
        <rect x="202.422" y="260.843" width="98.3" height="98.3" style="fill:white;stroke:black;stroke-width:2px;"/>
        <rect x="5.822" y="162.197" width="98.3" height="98.3" style="fill:white;stroke:black;stroke-width:2px;"/>
        <rect x="5.822" y="359.143" width="98.3" height="98.3" style="fill:white;stroke:black;stroke-width:2px;"/>
        <rect x="202.422" y="162.197" width="98.3" height="98.3" style="fill:white;stroke:black;stroke-width:2px;"/>
        <rect x="202.422" y="359.143" width="98.3" height="98.3" style="fill:white;stroke:black;stroke-width:2px;"/>
        <rect x="104.122" y="63.897" width="98.3" height="98.3" style="fill:white;stroke:black;stroke-width:2px;"/>
        <rect x="104.122" y="260.843" width="98.3" height="98.3" style="fill:white;stroke:black;stroke-width:2px;"/>
        <rect x="300.722" y="63.897" width="98.3" height="98.3" style="fill:white;stroke:black;stroke-width:2px;"/>
        <rect x="300.722" y="260.843" width="98.3" height="98.3" style="fill:white;stroke:black;stroke-width:2px;"/>
        <rect x="104.122" y="162.197" width="98.3" height="98.3" style="fill:white;stroke:black;stroke-width:2px;"/>
        <rect x="104.122" y="359.143" width="98.3" height="98.3" style="fill:white;stroke:black;stroke-width:2px;"/>
        <rect x="300.722" y="162.197" width="98.3" height="98.3" style="fill:white;stroke:black;stroke-width:2px;"/>
        <rect x="300.722" y="359.143" width="98.3" height="98.3" style="fill:white;stroke:black;stroke-width:2px;"/>
        <path d="M419.524,407.253C419.524,402.346 420.364,398.7 422.044,396.313C423.724,393.926 426.137,392.733 429.284,392.733C432.644,392.733 435.11,393.913 436.684,396.273C438.257,398.633 439.044,402.293 439.044,407.253C439.044,412.186 438.197,415.853 436.504,418.253C434.81,420.653 432.39,421.853 429.244,421.853C425.91,421.853 423.457,420.593 421.884,418.073C420.31,415.553 419.524,411.946 419.524,407.253ZM424.724,407.253C424.724,410.506 425.077,413.02 425.784,414.793C426.49,416.566 427.657,417.453 429.284,417.453C430.857,417.453 432.01,416.64 432.744,415.013C433.477,413.386 433.844,410.8 433.844,407.253C433.844,404.026 433.497,401.533 432.804,399.773C432.11,398.013 430.924,397.133 429.244,397.133C427.644,397.133 426.49,397.96 425.784,399.613C425.077,401.266 424.724,403.813 424.724,407.253Z" style="fill-rule:nonzero;"/>
        <path d="M442.204,407.253C442.204,402.346 443.044,398.7 444.724,396.313C446.404,393.926 448.817,392.733 451.964,392.733C455.324,392.733 457.79,393.913 459.364,396.273C460.937,398.633 461.724,402.293 461.724,407.253C461.724,412.186 460.877,415.853 459.184,418.253C457.49,420.653 455.07,421.853 451.924,421.853C448.59,421.853 446.137,420.593 444.564,418.073C442.99,415.553 442.204,411.946 442.204,407.253ZM447.404,407.253C447.404,410.506 447.757,413.02 448.464,414.793C449.17,416.566 450.337,417.453 451.964,417.453C453.537,417.453 454.69,416.64 455.424,415.013C456.157,413.386 456.524,410.8 456.524,407.253C456.524,404.026 456.177,401.533 455.484,399.773C454.79,398.013 453.604,397.133 451.924,397.133C450.324,397.133 449.17,397.96 448.464,399.613C447.757,401.266 447.404,403.813 447.404,407.253Z" style="fill-rule:nonzero;"/>
        <path d="M32.737,22.549C32.737,17.642 33.577,13.995 35.257,11.609C36.937,9.222 39.35,8.029 42.497,8.029C45.857,8.029 48.323,9.209 49.897,11.569C51.47,13.929 52.257,17.589 52.257,22.549C52.257,27.482 51.41,31.149 49.717,33.549C48.023,35.949 45.603,37.149 42.457,37.149C39.123,37.149 36.67,35.889 35.097,33.369C33.523,30.849 32.737,27.242 32.737,22.549ZM37.937,22.549C37.937,25.802 38.29,28.315 38.997,30.089C39.703,31.862 40.87,32.749 42.497,32.749C44.07,32.749 45.223,31.935 45.957,30.309C46.69,28.682 47.057,26.095 47.057,22.549C47.057,19.322 46.71,16.829 46.017,15.069C45.323,13.309 44.137,12.429 42.457,12.429C40.857,12.429 39.703,13.255 38.997,14.909C38.29,16.562 37.937,19.109 37.937,22.549Z" style="fill-rule:nonzero;"/>
        <path d="M55.417,22.549C55.417,17.642 56.257,13.995 57.937,11.609C59.617,9.222 62.03,8.029 65.177,8.029C68.537,8.029 71.003,9.209 72.577,11.569C74.15,13.929 74.937,17.589 74.937,22.549C74.937,27.482 74.09,31.149 72.397,33.549C70.703,35.949 68.283,37.149 65.137,37.149C61.803,37.149 59.35,35.889 57.777,33.369C56.203,30.849 55.417,27.242 55.417,22.549ZM60.617,22.549C60.617,25.802 60.97,28.315 61.677,30.089C62.383,31.862 63.55,32.749 65.177,32.749C66.75,32.749 67.903,31.935 68.637,30.309C69.37,28.682 69.737,26.095 69.737,22.549C69.737,19.322 69.39,16.829 68.697,15.069C68.003,13.309 66.817,12.429 65.137,12.429C63.537,12.429 62.383,13.255 61.677,14.909C60.97,16.562 60.617,19.109 60.617,22.549Z" style="fill-rule:nonzero;"/>
        <path d="M17.28,408.293C17.28,403.973 17.982,400.721 19.386,398.537C20.79,396.353 22.836,395.261 25.524,395.261C28.428,395.261 30.534,396.335 31.842,398.483C33.15,400.631 33.804,403.901 33.804,408.293C33.804,412.613 33.102,415.865 31.698,418.049C30.294,420.233 28.236,421.325 25.524,421.325C22.668,421.325 20.58,420.185 19.26,417.905C17.94,415.625 17.28,412.421 17.28,408.293ZM20.268,408.293C20.268,409.853 20.37,411.275 20.574,412.559C20.778,413.843 21.096,414.947 21.528,415.871C21.96,416.795 22.506,417.515 23.166,418.031C23.826,418.547 24.612,418.805 25.524,418.805C27.348,418.805 28.686,417.959 29.538,416.267C30.39,414.575 30.816,411.917 30.816,408.293C30.816,406.757 30.726,405.341 30.546,404.045C30.366,402.749 30.066,401.633 29.646,400.697C29.226,399.761 28.68,399.041 28.008,398.537C27.336,398.033 26.508,397.781 25.524,397.781C23.724,397.781 22.398,398.633 21.546,400.337C20.694,402.041 20.268,404.693 20.268,408.293Z" style="fill-rule:nonzero;"/>
        <path d="M36.9,408.293C36.9,403.973 37.602,400.721 39.006,398.537C40.41,396.353 42.456,395.261 45.144,395.261C48.048,395.261 50.154,396.335 51.462,398.483C52.77,400.631 53.424,403.901 53.424,408.293C53.424,412.613 52.722,415.865 51.318,418.049C49.914,420.233 47.856,421.325 45.144,421.325C42.288,421.325 40.2,420.185 38.88,417.905C37.56,415.625 36.9,412.421 36.9,408.293ZM39.888,408.293C39.888,409.853 39.99,411.275 40.194,412.559C40.398,413.843 40.716,414.947 41.148,415.871C41.58,416.795 42.126,417.515 42.786,418.031C43.446,418.547 44.232,418.805 45.144,418.805C46.968,418.805 48.306,417.959 49.158,416.267C50.01,414.575 50.436,411.917 50.436,408.293C50.436,406.757 50.346,405.341 50.166,404.045C49.986,402.749 49.686,401.633 49.266,400.697C48.846,399.761 48.3,399.041 47.628,398.537C46.956,398.033 46.128,397.781 45.144,397.781C43.344,397.781 42.018,398.633 41.166,400.337C40.314,402.041 39.888,404.693 39.888,408.293Z" style="fill-rule:nonzero;"/>
        <path d="M56.52,408.293C56.52,403.973 57.222,400.721 58.626,398.537C60.03,396.353 62.076,395.261 64.764,395.261C67.668,395.261 69.774,396.335 71.082,398.483C72.39,400.631 73.044,403.901 73.044,408.293C73.044,412.613 72.342,415.865 70.938,418.049C69.534,420.233 67.476,421.325 64.764,421.325C61.908,421.325 59.82,420.185 58.5,417.905C57.18,415.625 56.52,412.421 56.52,408.293ZM59.508,408.293C59.508,409.853 59.61,411.275 59.814,412.559C60.018,413.843 60.336,414.947 60.768,415.871C61.2,416.795 61.746,417.515 62.406,418.031C63.066,418.547 63.852,418.805 64.764,418.805C66.588,418.805 67.926,417.959 68.778,416.267C69.63,414.575 70.056,411.917 70.056,408.293C70.056,406.757 69.966,405.341 69.786,404.045C69.606,402.749 69.306,401.633 68.886,400.697C68.466,399.761 67.92,399.041 67.248,398.537C66.576,398.033 65.748,397.781 64.764,397.781C62.964,397.781 61.638,398.633 60.786,400.337C59.934,402.041 59.508,404.693 59.508,408.293Z" style="fill-rule:nonzero;"/>
        <path d="M76.14,408.293C76.14,403.973 76.842,400.721 78.246,398.537C79.65,396.353 81.696,395.261 84.384,395.261C87.288,395.261 89.394,396.335 90.702,398.483C92.01,400.631 92.664,403.901 92.664,408.293C92.664,412.613 91.962,415.865 90.558,418.049C89.154,420.233 87.096,421.325 84.384,421.325C81.528,421.325 79.44,420.185 78.12,417.905C76.8,415.625 76.14,412.421 76.14,408.293ZM79.128,408.293C79.128,409.853 79.23,411.275 79.434,412.559C79.638,413.843 79.956,414.947 80.388,415.871C80.82,416.795 81.366,417.515 82.026,418.031C82.686,418.547 83.472,418.805 84.384,418.805C86.208,418.805 87.546,417.959 88.398,416.267C89.25,414.575 89.676,411.917 89.676,408.293C89.676,406.757 89.586,405.341 89.406,404.045C89.226,402.749 88.926,401.633 88.506,400.697C88.086,399.761 87.54,399.041 86.868,398.537C86.196,398.033 85.368,397.781 84.384,397.781C82.584,397.781 81.258,398.633 80.406,400.337C79.554,402.041 79.128,404.693 79.128,408.293Z" style="fill-rule:nonzero;"/>
        <path d="M17.28,309.165C17.28,304.845 17.982,301.593 19.386,299.409C20.79,297.225 22.836,296.133 25.524,296.133C28.428,296.133 30.534,297.207 31.842,299.355C33.15,301.503 33.804,304.773 33.804,309.165C33.804,313.485 33.102,316.737 31.698,318.921C30.294,321.105 28.236,322.197 25.524,322.197C22.668,322.197 20.58,321.057 19.26,318.777C17.94,316.497 17.28,313.293 17.28,309.165ZM20.268,309.165C20.268,310.725 20.37,312.147 20.574,313.431C20.778,314.715 21.096,315.819 21.528,316.743C21.96,317.667 22.506,318.387 23.166,318.903C23.826,319.419 24.612,319.677 25.524,319.677C27.348,319.677 28.686,318.831 29.538,317.139C30.39,315.447 30.816,312.789 30.816,309.165C30.816,307.629 30.726,306.213 30.546,304.917C30.366,303.621 30.066,302.505 29.646,301.569C29.226,300.633 28.68,299.913 28.008,299.409C27.336,298.905 26.508,298.653 25.524,298.653C23.724,298.653 22.398,299.505 21.546,301.209C20.694,302.913 20.268,305.565 20.268,309.165Z" style="fill-rule:nonzero;"/>
        <path d="M36.9,309.165C36.9,304.845 37.602,301.593 39.006,299.409C40.41,297.225 42.456,296.133 45.144,296.133C48.048,296.133 50.154,297.207 51.462,299.355C52.77,301.503 53.424,304.773 53.424,309.165C53.424,313.485 52.722,316.737 51.318,318.921C49.914,321.105 47.856,322.197 45.144,322.197C42.288,322.197 40.2,321.057 38.88,318.777C37.56,316.497 36.9,313.293 36.9,309.165ZM39.888,309.165C39.888,310.725 39.99,312.147 40.194,313.431C40.398,314.715 40.716,315.819 41.148,316.743C41.58,317.667 42.126,318.387 42.786,318.903C43.446,319.419 44.232,319.677 45.144,319.677C46.968,319.677 48.306,318.831 49.158,317.139C50.01,315.447 50.436,312.789 50.436,309.165C50.436,307.629 50.346,306.213 50.166,304.917C49.986,303.621 49.686,302.505 49.266,301.569C48.846,300.633 48.3,299.913 47.628,299.409C46.956,298.905 46.128,298.653 45.144,298.653C43.344,298.653 42.018,299.505 41.166,301.209C40.314,302.913 39.888,305.565 39.888,309.165Z" style="fill-rule:nonzero;"/>
        <path d="M58.86,319.101L63.9,319.101L63.9,301.677L64.26,299.553L62.82,301.245L58.86,304.089L57.492,302.253L65.412,296.133L66.708,296.133L66.708,319.101L71.64,319.101L71.64,321.765L58.86,321.765L58.86,319.101Z" style="fill-rule:nonzero;"/>
        <path d="M78.48,319.101L83.52,319.101L83.52,301.677L83.88,299.553L82.44,301.245L78.48,304.089L77.112,302.253L85.032,296.133L86.328,296.133L86.328,319.101L91.26,319.101L91.26,321.765L78.48,321.765L78.48,319.101Z" style="fill-rule:nonzero;"/>
        <path d="M17.28,209.932C17.28,205.612 17.982,202.36 19.386,200.176C20.79,197.992 22.836,196.9 25.524,196.9C28.428,196.9 30.534,197.974 31.842,200.122C33.15,202.27 33.804,205.54 33.804,209.932C33.804,214.252 33.102,217.504 31.698,219.688C30.294,221.872 28.236,222.964 25.524,222.964C22.668,222.964 20.58,221.824 19.26,219.544C17.94,217.264 17.28,214.06 17.28,209.932ZM20.268,209.932C20.268,211.492 20.37,212.914 20.574,214.198C20.778,215.482 21.096,216.586 21.528,217.51C21.96,218.434 22.506,219.154 23.166,219.67C23.826,220.186 24.612,220.444 25.524,220.444C27.348,220.444 28.686,219.598 29.538,217.906C30.39,216.214 30.816,213.556 30.816,209.932C30.816,208.396 30.726,206.98 30.546,205.684C30.366,204.388 30.066,203.272 29.646,202.336C29.226,201.4 28.68,200.68 28.008,200.176C27.336,199.672 26.508,199.42 25.524,199.42C23.724,199.42 22.398,200.272 21.546,201.976C20.694,203.68 20.268,206.332 20.268,209.932Z" style="fill-rule:nonzero;"/>
        <path d="M39.24,219.868L44.28,219.868L44.28,202.444L44.64,200.32L43.2,202.012L39.24,204.856L37.872,203.02L45.792,196.9L47.088,196.9L47.088,219.868L52.02,219.868L52.02,222.532L39.24,222.532L39.24,219.868Z" style="fill-rule:nonzero;"/>
        <path d="M56.52,209.932C56.52,205.612 57.222,202.36 58.626,200.176C60.03,197.992 62.076,196.9 64.764,196.9C67.668,196.9 69.774,197.974 71.082,200.122C72.39,202.27 73.044,205.54 73.044,209.932C73.044,214.252 72.342,217.504 70.938,219.688C69.534,221.872 67.476,222.964 64.764,222.964C61.908,222.964 59.82,221.824 58.5,219.544C57.18,217.264 56.52,214.06 56.52,209.932ZM59.508,209.932C59.508,211.492 59.61,212.914 59.814,214.198C60.018,215.482 60.336,216.586 60.768,217.51C61.2,218.434 61.746,219.154 62.406,219.67C63.066,220.186 63.852,220.444 64.764,220.444C66.588,220.444 67.926,219.598 68.778,217.906C69.63,216.214 70.056,213.556 70.056,209.932C70.056,208.396 69.966,206.98 69.786,205.684C69.606,204.388 69.306,203.272 68.886,202.336C68.466,201.4 67.92,200.68 67.248,200.176C66.576,199.672 65.748,199.42 64.764,199.42C62.964,199.42 61.638,200.272 60.786,201.976C59.934,203.68 59.508,206.332 59.508,209.932Z" style="fill-rule:nonzero;"/>
        <path d="M76.14,209.932C76.14,205.612 76.842,202.36 78.246,200.176C79.65,197.992 81.696,196.9 84.384,196.9C87.288,196.9 89.394,197.974 90.702,200.122C92.01,202.27 92.664,205.54 92.664,209.932C92.664,214.252 91.962,217.504 90.558,219.688C89.154,221.872 87.096,222.964 84.384,222.964C81.528,222.964 79.44,221.824 78.12,219.544C76.8,217.264 76.14,214.06 76.14,209.932ZM79.128,209.932C79.128,211.492 79.23,212.914 79.434,214.198C79.638,215.482 79.956,216.586 80.388,217.51C80.82,218.434 81.366,219.154 82.026,219.67C82.686,220.186 83.472,220.444 84.384,220.444C86.208,220.444 87.546,219.598 88.398,217.906C89.25,216.214 89.676,213.556 89.676,209.932C89.676,208.396 89.586,206.98 89.406,205.684C89.226,204.388 88.926,203.272 88.506,202.336C88.086,201.4 87.54,200.68 86.868,200.176C86.196,199.672 85.368,199.42 84.384,199.42C82.584,199.42 81.258,200.272 80.406,201.976C79.554,203.68 79.128,206.332 79.128,209.932Z" style="fill-rule:nonzero;"/>
        <path d="M17.28,112.748C17.28,108.428 17.982,105.176 19.386,102.992C20.79,100.808 22.836,99.716 25.524,99.716C28.428,99.716 30.534,100.79 31.842,102.938C33.15,105.086 33.804,108.356 33.804,112.748C33.804,117.068 33.102,120.32 31.698,122.504C30.294,124.688 28.236,125.78 25.524,125.78C22.668,125.78 20.58,124.64 19.26,122.36C17.94,120.08 17.28,116.876 17.28,112.748ZM20.268,112.748C20.268,114.308 20.37,115.73 20.574,117.014C20.778,118.298 21.096,119.402 21.528,120.326C21.96,121.25 22.506,121.97 23.166,122.486C23.826,123.002 24.612,123.26 25.524,123.26C27.348,123.26 28.686,122.414 29.538,120.722C30.39,119.03 30.816,116.372 30.816,112.748C30.816,111.212 30.726,109.796 30.546,108.5C30.366,107.204 30.066,106.088 29.646,105.152C29.226,104.216 28.68,103.496 28.008,102.992C27.336,102.488 26.508,102.236 25.524,102.236C23.724,102.236 22.398,103.088 21.546,104.792C20.694,106.496 20.268,109.148 20.268,112.748Z" style="fill-rule:nonzero;"/>
        <path d="M39.24,122.684L44.28,122.684L44.28,105.26L44.64,103.136L43.2,104.828L39.24,107.672L37.872,105.836L45.792,99.716L47.088,99.716L47.088,122.684L52.02,122.684L52.02,125.348L39.24,125.348L39.24,122.684Z" style="fill-rule:nonzero;"/>
        <path d="M56.52,112.748C56.52,108.428 57.222,105.176 58.626,102.992C60.03,100.808 62.076,99.716 64.764,99.716C67.668,99.716 69.774,100.79 71.082,102.938C72.39,105.086 73.044,108.356 73.044,112.748C73.044,117.068 72.342,120.32 70.938,122.504C69.534,124.688 67.476,125.78 64.764,125.78C61.908,125.78 59.82,124.64 58.5,122.36C57.18,120.08 56.52,116.876 56.52,112.748ZM59.508,112.748C59.508,114.308 59.61,115.73 59.814,117.014C60.018,118.298 60.336,119.402 60.768,120.326C61.2,121.25 61.746,121.97 62.406,122.486C63.066,123.002 63.852,123.26 64.764,123.26C66.588,123.26 67.926,122.414 68.778,120.722C69.63,119.03 70.056,116.372 70.056,112.748C70.056,111.212 69.966,109.796 69.786,108.5C69.606,107.204 69.306,106.088 68.886,105.152C68.466,104.216 67.92,103.496 67.248,102.992C66.576,102.488 65.748,102.236 64.764,102.236C62.964,102.236 61.638,103.088 60.786,104.792C59.934,106.496 59.508,109.148 59.508,112.748Z" style="fill-rule:nonzero;"/>
        <path d="M78.48,122.684L83.52,122.684L83.52,105.26L83.88,103.136L82.44,104.828L78.48,107.672L77.112,105.836L85.032,99.716L86.328,99.716L86.328,122.684L91.26,122.684L91.26,125.348L78.48,125.348L78.48,122.684Z" style="fill-rule:nonzero;"/>
        <path d="M114.595,408.293C114.595,403.973 115.297,400.721 116.701,398.537C118.105,396.353 120.151,395.261 122.839,395.261C125.743,395.261 127.849,396.335 129.157,398.483C130.465,400.631 131.119,403.901 131.119,408.293C131.119,412.613 130.417,415.865 129.013,418.049C127.609,420.233 125.551,421.325 122.839,421.325C119.983,421.325 117.895,420.185 116.575,417.905C115.255,415.625 114.595,412.421 114.595,408.293ZM117.583,408.293C117.583,409.853 117.685,411.275 117.889,412.559C118.093,413.843 118.411,414.947 118.843,415.871C119.275,416.795 119.821,417.515 120.481,418.031C121.141,418.547 121.927,418.805 122.839,418.805C124.663,418.805 126.001,417.959 126.853,416.267C127.705,414.575 128.131,411.917 128.131,408.293C128.131,406.757 128.041,405.341 127.861,404.045C127.681,402.749 127.381,401.633 126.961,400.697C126.541,399.761 125.995,399.041 125.323,398.537C124.651,398.033 123.823,397.781 122.839,397.781C121.039,397.781 119.713,398.633 118.861,400.337C118.009,402.041 117.583,404.693 117.583,408.293Z" style="fill-rule:nonzero;"/>
        <path d="M134.215,408.293C134.215,403.973 134.917,400.721 136.321,398.537C137.725,396.353 139.771,395.261 142.459,395.261C145.363,395.261 147.469,396.335 148.777,398.483C150.085,400.631 150.739,403.901 150.739,408.293C150.739,412.613 150.037,415.865 148.633,418.049C147.229,420.233 145.171,421.325 142.459,421.325C139.603,421.325 137.515,420.185 136.195,417.905C134.875,415.625 134.215,412.421 134.215,408.293ZM137.203,408.293C137.203,409.853 137.305,411.275 137.509,412.559C137.713,413.843 138.031,414.947 138.463,415.871C138.895,416.795 139.441,417.515 140.101,418.031C140.761,418.547 141.547,418.805 142.459,418.805C144.283,418.805 145.621,417.959 146.473,416.267C147.325,414.575 147.751,411.917 147.751,408.293C147.751,406.757 147.661,405.341 147.481,404.045C147.301,402.749 147.001,401.633 146.581,400.697C146.161,399.761 145.615,399.041 144.943,398.537C144.271,398.033 143.443,397.781 142.459,397.781C140.659,397.781 139.333,398.633 138.481,400.337C137.629,402.041 137.203,404.693 137.203,408.293Z" style="fill-rule:nonzero;"/>
        <path d="M153.835,408.293C153.835,403.973 154.537,400.721 155.941,398.537C157.345,396.353 159.391,395.261 162.079,395.261C164.983,395.261 167.089,396.335 168.397,398.483C169.705,400.631 170.359,403.901 170.359,408.293C170.359,412.613 169.657,415.865 168.253,418.049C166.849,420.233 164.791,421.325 162.079,421.325C159.223,421.325 157.135,420.185 155.815,417.905C154.495,415.625 153.835,412.421 153.835,408.293ZM156.823,408.293C156.823,409.853 156.925,411.275 157.129,412.559C157.333,413.843 157.651,414.947 158.083,415.871C158.515,416.795 159.061,417.515 159.721,418.031C160.381,418.547 161.167,418.805 162.079,418.805C163.903,418.805 165.241,417.959 166.093,416.267C166.945,414.575 167.371,411.917 167.371,408.293C167.371,406.757 167.281,405.341 167.101,404.045C166.921,402.749 166.621,401.633 166.201,400.697C165.781,399.761 165.235,399.041 164.563,398.537C163.891,398.033 163.063,397.781 162.079,397.781C160.279,397.781 158.953,398.633 158.101,400.337C157.249,402.041 156.823,404.693 156.823,408.293Z" style="fill-rule:nonzero;"/>
        <path d="M175.795,418.229L180.835,418.229L180.835,400.805L181.195,398.681L179.755,400.373L175.795,403.217L174.427,401.381L182.347,395.261L183.643,395.261L183.643,418.229L188.575,418.229L188.575,420.893L175.795,420.893L175.795,418.229Z" style="fill-rule:nonzero;"/>
        <path d="M114.595,309.165C114.595,304.845 115.297,301.593 116.701,299.409C118.105,297.225 120.151,296.133 122.839,296.133C125.743,296.133 127.849,297.207 129.157,299.355C130.465,301.503 131.119,304.773 131.119,309.165C131.119,313.485 130.417,316.737 129.013,318.921C127.609,321.105 125.551,322.197 122.839,322.197C119.983,322.197 117.895,321.057 116.575,318.777C115.255,316.497 114.595,313.293 114.595,309.165ZM117.583,309.165C117.583,310.725 117.685,312.147 117.889,313.431C118.093,314.715 118.411,315.819 118.843,316.743C119.275,317.667 119.821,318.387 120.481,318.903C121.141,319.419 121.927,319.677 122.839,319.677C124.663,319.677 126.001,318.831 126.853,317.139C127.705,315.447 128.131,312.789 128.131,309.165C128.131,307.629 128.041,306.213 127.861,304.917C127.681,303.621 127.381,302.505 126.961,301.569C126.541,300.633 125.995,299.913 125.323,299.409C124.651,298.905 123.823,298.653 122.839,298.653C121.039,298.653 119.713,299.505 118.861,301.209C118.009,302.913 117.583,305.565 117.583,309.165Z" style="fill-rule:nonzero;"/>
        <path d="M134.215,309.165C134.215,304.845 134.917,301.593 136.321,299.409C137.725,297.225 139.771,296.133 142.459,296.133C145.363,296.133 147.469,297.207 148.777,299.355C150.085,301.503 150.739,304.773 150.739,309.165C150.739,313.485 150.037,316.737 148.633,318.921C147.229,321.105 145.171,322.197 142.459,322.197C139.603,322.197 137.515,321.057 136.195,318.777C134.875,316.497 134.215,313.293 134.215,309.165ZM137.203,309.165C137.203,310.725 137.305,312.147 137.509,313.431C137.713,314.715 138.031,315.819 138.463,316.743C138.895,317.667 139.441,318.387 140.101,318.903C140.761,319.419 141.547,319.677 142.459,319.677C144.283,319.677 145.621,318.831 146.473,317.139C147.325,315.447 147.751,312.789 147.751,309.165C147.751,307.629 147.661,306.213 147.481,304.917C147.301,303.621 147.001,302.505 146.581,301.569C146.161,300.633 145.615,299.913 144.943,299.409C144.271,298.905 143.443,298.653 142.459,298.653C140.659,298.653 139.333,299.505 138.481,301.209C137.629,302.913 137.203,305.565 137.203,309.165Z" style="fill-rule:nonzero;"/>
        <path d="M156.175,319.101L161.215,319.101L161.215,301.677L161.575,299.553L160.135,301.245L156.175,304.089L154.807,302.253L162.727,296.133L164.023,296.133L164.023,319.101L168.955,319.101L168.955,321.765L156.175,321.765L156.175,319.101Z" style="fill-rule:nonzero;"/>
        <path d="M173.455,309.165C173.455,304.845 174.157,301.593 175.561,299.409C176.965,297.225 179.011,296.133 181.699,296.133C184.603,296.133 186.709,297.207 188.017,299.355C189.325,301.503 189.979,304.773 189.979,309.165C189.979,313.485 189.277,316.737 187.873,318.921C186.469,321.105 184.411,322.197 181.699,322.197C178.843,322.197 176.755,321.057 175.435,318.777C174.115,316.497 173.455,313.293 173.455,309.165ZM176.443,309.165C176.443,310.725 176.545,312.147 176.749,313.431C176.953,314.715 177.271,315.819 177.703,316.743C178.135,317.667 178.681,318.387 179.341,318.903C180.001,319.419 180.787,319.677 181.699,319.677C183.523,319.677 184.861,318.831 185.713,317.139C186.565,315.447 186.991,312.789 186.991,309.165C186.991,307.629 186.901,306.213 186.721,304.917C186.541,303.621 186.241,302.505 185.821,301.569C185.401,300.633 184.855,299.913 184.183,299.409C183.511,298.905 182.683,298.653 181.699,298.653C179.899,298.653 178.573,299.505 177.721,301.209C176.869,302.913 176.443,305.565 176.443,309.165Z" style="fill-rule:nonzero;"/>
        <path d="M114.595,209.932C114.595,205.612 115.297,202.36 116.701,200.176C118.105,197.992 120.151,196.9 122.839,196.9C125.743,196.9 127.849,197.974 129.157,200.122C130.465,202.27 131.119,205.54 131.119,209.932C131.119,214.252 130.417,217.504 129.013,219.688C127.609,221.872 125.551,222.964 122.839,222.964C119.983,222.964 117.895,221.824 116.575,219.544C115.255,217.264 114.595,214.06 114.595,209.932ZM117.583,209.932C117.583,211.492 117.685,212.914 117.889,214.198C118.093,215.482 118.411,216.586 118.843,217.51C119.275,218.434 119.821,219.154 120.481,219.67C121.141,220.186 121.927,220.444 122.839,220.444C124.663,220.444 126.001,219.598 126.853,217.906C127.705,216.214 128.131,213.556 128.131,209.932C128.131,208.396 128.041,206.98 127.861,205.684C127.681,204.388 127.381,203.272 126.961,202.336C126.541,201.4 125.995,200.68 125.323,200.176C124.651,199.672 123.823,199.42 122.839,199.42C121.039,199.42 119.713,200.272 118.861,201.976C118.009,203.68 117.583,206.332 117.583,209.932Z" style="fill-rule:nonzero;"/>
        <path d="M136.555,219.868L141.595,219.868L141.595,202.444L141.955,200.32L140.515,202.012L136.555,204.856L135.187,203.02L143.107,196.9L144.403,196.9L144.403,219.868L149.335,219.868L149.335,222.532L136.555,222.532L136.555,219.868Z" style="fill-rule:nonzero;"/>
        <path d="M156.175,219.868L161.215,219.868L161.215,202.444L161.575,200.32L160.135,202.012L156.175,204.856L154.807,203.02L162.727,196.9L164.023,196.9L164.023,219.868L168.955,219.868L168.955,222.532L156.175,222.532L156.175,219.868Z" style="fill-rule:nonzero;"/>
        <path d="M175.795,219.868L180.835,219.868L180.835,202.444L181.195,200.32L179.755,202.012L175.795,204.856L174.427,203.02L182.347,196.9L183.643,196.9L183.643,219.868L188.575,219.868L188.575,222.532L175.795,222.532L175.795,219.868Z" style="fill-rule:nonzero;"/>
        <path d="M114.595,112.748C114.595,108.428 115.297,105.176 116.701,102.992C118.105,100.808 120.151,99.716 122.839,99.716C125.743,99.716 127.849,100.79 129.157,102.938C130.465,105.086 131.119,108.356 131.119,112.748C131.119,117.068 130.417,120.32 129.013,122.504C127.609,124.688 125.551,125.78 122.839,125.78C119.983,125.78 117.895,124.64 116.575,122.36C115.255,120.08 114.595,116.876 114.595,112.748ZM117.583,112.748C117.583,114.308 117.685,115.73 117.889,117.014C118.093,118.298 118.411,119.402 118.843,120.326C119.275,121.25 119.821,121.97 120.481,122.486C121.141,123.002 121.927,123.26 122.839,123.26C124.663,123.26 126.001,122.414 126.853,120.722C127.705,119.03 128.131,116.372 128.131,112.748C128.131,111.212 128.041,109.796 127.861,108.5C127.681,107.204 127.381,106.088 126.961,105.152C126.541,104.216 125.995,103.496 125.323,102.992C124.651,102.488 123.823,102.236 122.839,102.236C121.039,102.236 119.713,103.088 118.861,104.792C118.009,106.496 117.583,109.148 117.583,112.748Z" style="fill-rule:nonzero;"/>
        <path d="M136.555,122.684L141.595,122.684L141.595,105.26L141.955,103.136L140.515,104.828L136.555,107.672L135.187,105.836L143.107,99.716L144.403,99.716L144.403,122.684L149.335,122.684L149.335,125.348L136.555,125.348L136.555,122.684Z" style="fill-rule:nonzero;"/>
        <path d="M156.175,122.684L161.215,122.684L161.215,105.26L161.575,103.136L160.135,104.828L156.175,107.672L154.807,105.836L162.727,99.716L164.023,99.716L164.023,122.684L168.955,122.684L168.955,125.348L156.175,125.348L156.175,122.684Z" style="fill-rule:nonzero;"/>
        <path d="M173.455,112.748C173.455,108.428 174.157,105.176 175.561,102.992C176.965,100.808 179.011,99.716 181.699,99.716C184.603,99.716 186.709,100.79 188.017,102.938C189.325,105.086 189.979,108.356 189.979,112.748C189.979,117.068 189.277,120.32 187.873,122.504C186.469,124.688 184.411,125.78 181.699,125.78C178.843,125.78 176.755,124.64 175.435,122.36C174.115,120.08 173.455,116.876 173.455,112.748ZM176.443,112.748C176.443,114.308 176.545,115.73 176.749,117.014C176.953,118.298 177.271,119.402 177.703,120.326C178.135,121.25 178.681,121.97 179.341,122.486C180.001,123.002 180.787,123.26 181.699,123.26C183.523,123.26 184.861,122.414 185.713,120.722C186.565,119.03 186.991,116.372 186.991,112.748C186.991,111.212 186.901,109.796 186.721,108.5C186.541,107.204 186.241,106.088 185.821,105.152C185.401,104.216 184.855,103.496 184.183,102.992C183.511,102.488 182.683,102.236 181.699,102.236C179.899,102.236 178.573,103.088 177.721,104.792C176.869,106.496 176.443,109.148 176.443,112.748Z" style="fill-rule:nonzero;"/>
        <path d="M215.054,418.229L220.094,418.229L220.094,400.805L220.454,398.681L219.014,400.373L215.054,403.217L213.686,401.381L221.606,395.261L222.902,395.261L222.902,418.229L227.834,418.229L227.834,420.893L215.054,420.893L215.054,418.229Z" style="fill-rule:nonzero;"/>
        <path d="M234.674,418.229L239.714,418.229L239.714,400.805L240.074,398.681L238.634,400.373L234.674,403.217L233.306,401.381L241.226,395.261L242.522,395.261L242.522,418.229L247.454,418.229L247.454,420.893L234.674,420.893L234.674,418.229Z" style="fill-rule:nonzero;"/>
        <path d="M254.294,418.229L259.334,418.229L259.334,400.805L259.694,398.681L258.254,400.373L254.294,403.217L252.926,401.381L260.846,395.261L262.142,395.261L262.142,418.229L267.074,418.229L267.074,420.893L254.294,420.893L254.294,418.229Z" style="fill-rule:nonzero;"/>
        <path d="M271.574,408.293C271.574,403.973 272.276,400.721 273.68,398.537C275.084,396.353 277.13,395.261 279.818,395.261C282.722,395.261 284.828,396.335 286.136,398.483C287.444,400.631 288.098,403.901 288.098,408.293C288.098,412.613 287.396,415.865 285.992,418.049C284.588,420.233 282.53,421.325 279.818,421.325C276.962,421.325 274.874,420.185 273.554,417.905C272.234,415.625 271.574,412.421 271.574,408.293ZM274.562,408.293C274.562,409.853 274.664,411.275 274.868,412.559C275.072,413.843 275.39,414.947 275.822,415.871C276.254,416.795 276.8,417.515 277.46,418.031C278.12,418.547 278.906,418.805 279.818,418.805C281.642,418.805 282.98,417.959 283.832,416.267C284.684,414.575 285.11,411.917 285.11,408.293C285.11,406.757 285.02,405.341 284.84,404.045C284.66,402.749 284.36,401.633 283.94,400.697C283.52,399.761 282.974,399.041 282.302,398.537C281.63,398.033 280.802,397.781 279.818,397.781C278.018,397.781 276.692,398.633 275.84,400.337C274.988,402.041 274.562,404.693 274.562,408.293Z" style="fill-rule:nonzero;"/>
        <path d="M215.054,319.101L220.094,319.101L220.094,301.677L220.454,299.553L219.014,301.245L215.054,304.089L213.686,302.253L221.606,296.133L222.902,296.133L222.902,319.101L227.834,319.101L227.834,321.765L215.054,321.765L215.054,319.101Z" style="fill-rule:nonzero;"/>
        <path d="M234.674,319.101L239.714,319.101L239.714,301.677L240.074,299.553L238.634,301.245L234.674,304.089L233.306,302.253L241.226,296.133L242.522,296.133L242.522,319.101L247.454,319.101L247.454,321.765L234.674,321.765L234.674,319.101Z" style="fill-rule:nonzero;"/>
        <path d="M251.954,309.165C251.954,304.845 252.656,301.593 254.06,299.409C255.464,297.225 257.51,296.133 260.198,296.133C263.102,296.133 265.208,297.207 266.516,299.355C267.824,301.503 268.478,304.773 268.478,309.165C268.478,313.485 267.776,316.737 266.372,318.921C264.968,321.105 262.91,322.197 260.198,322.197C257.342,322.197 255.254,321.057 253.934,318.777C252.614,316.497 251.954,313.293 251.954,309.165ZM254.942,309.165C254.942,310.725 255.044,312.147 255.248,313.431C255.452,314.715 255.77,315.819 256.202,316.743C256.634,317.667 257.18,318.387 257.84,318.903C258.5,319.419 259.286,319.677 260.198,319.677C262.022,319.677 263.36,318.831 264.212,317.139C265.064,315.447 265.49,312.789 265.49,309.165C265.49,307.629 265.4,306.213 265.22,304.917C265.04,303.621 264.74,302.505 264.32,301.569C263.9,300.633 263.354,299.913 262.682,299.409C262.01,298.905 261.182,298.653 260.198,298.653C258.398,298.653 257.072,299.505 256.22,301.209C255.368,302.913 254.942,305.565 254.942,309.165Z" style="fill-rule:nonzero;"/>
        <path d="M273.914,319.101L278.954,319.101L278.954,301.677L279.314,299.553L277.874,301.245L273.914,304.089L272.546,302.253L280.466,296.133L281.762,296.133L281.762,319.101L286.694,319.101L286.694,321.765L273.914,321.765L273.914,319.101Z" style="fill-rule:nonzero;"/>
        <path d="M215.054,219.868L220.094,219.868L220.094,202.444L220.454,200.32L219.014,202.012L215.054,204.856L213.686,203.02L221.606,196.9L222.902,196.9L222.902,219.868L227.834,219.868L227.834,222.532L215.054,222.532L215.054,219.868Z" style="fill-rule:nonzero;"/>
        <path d="M232.334,209.932C232.334,205.612 233.036,202.36 234.44,200.176C235.844,197.992 237.89,196.9 240.578,196.9C243.482,196.9 245.588,197.974 246.896,200.122C248.204,202.27 248.858,205.54 248.858,209.932C248.858,214.252 248.156,217.504 246.752,219.688C245.348,221.872 243.29,222.964 240.578,222.964C237.722,222.964 235.634,221.824 234.314,219.544C232.994,217.264 232.334,214.06 232.334,209.932ZM235.322,209.932C235.322,211.492 235.424,212.914 235.628,214.198C235.832,215.482 236.15,216.586 236.582,217.51C237.014,218.434 237.56,219.154 238.22,219.67C238.88,220.186 239.666,220.444 240.578,220.444C242.402,220.444 243.74,219.598 244.592,217.906C245.444,216.214 245.87,213.556 245.87,209.932C245.87,208.396 245.78,206.98 245.6,205.684C245.42,204.388 245.12,203.272 244.7,202.336C244.28,201.4 243.734,200.68 243.062,200.176C242.39,199.672 241.562,199.42 240.578,199.42C238.778,199.42 237.452,200.272 236.6,201.976C235.748,203.68 235.322,206.332 235.322,209.932Z" style="fill-rule:nonzero;"/>
        <path d="M251.954,209.932C251.954,205.612 252.656,202.36 254.06,200.176C255.464,197.992 257.51,196.9 260.198,196.9C263.102,196.9 265.208,197.974 266.516,200.122C267.824,202.27 268.478,205.54 268.478,209.932C268.478,214.252 267.776,217.504 266.372,219.688C264.968,221.872 262.91,222.964 260.198,222.964C257.342,222.964 255.254,221.824 253.934,219.544C252.614,217.264 251.954,214.06 251.954,209.932ZM254.942,209.932C254.942,211.492 255.044,212.914 255.248,214.198C255.452,215.482 255.77,216.586 256.202,217.51C256.634,218.434 257.18,219.154 257.84,219.67C258.5,220.186 259.286,220.444 260.198,220.444C262.022,220.444 263.36,219.598 264.212,217.906C265.064,216.214 265.49,213.556 265.49,209.932C265.49,208.396 265.4,206.98 265.22,205.684C265.04,204.388 264.74,203.272 264.32,202.336C263.9,201.4 263.354,200.68 262.682,200.176C262.01,199.672 261.182,199.42 260.198,199.42C258.398,199.42 257.072,200.272 256.22,201.976C255.368,203.68 254.942,206.332 254.942,209.932Z" style="fill-rule:nonzero;"/>
        <path d="M271.574,209.932C271.574,205.612 272.276,202.36 273.68,200.176C275.084,197.992 277.13,196.9 279.818,196.9C282.722,196.9 284.828,197.974 286.136,200.122C287.444,202.27 288.098,205.54 288.098,209.932C288.098,214.252 287.396,217.504 285.992,219.688C284.588,221.872 282.53,222.964 279.818,222.964C276.962,222.964 274.874,221.824 273.554,219.544C272.234,217.264 271.574,214.06 271.574,209.932ZM274.562,209.932C274.562,211.492 274.664,212.914 274.868,214.198C275.072,215.482 275.39,216.586 275.822,217.51C276.254,218.434 276.8,219.154 277.46,219.67C278.12,220.186 278.906,220.444 279.818,220.444C281.642,220.444 282.98,219.598 283.832,217.906C284.684,216.214 285.11,213.556 285.11,209.932C285.11,208.396 285.02,206.98 284.84,205.684C284.66,204.388 284.36,203.272 283.94,202.336C283.52,201.4 282.974,200.68 282.302,200.176C281.63,199.672 280.802,199.42 279.818,199.42C278.018,199.42 276.692,200.272 275.84,201.976C274.988,203.68 274.562,206.332 274.562,209.932Z" style="fill-rule:nonzero;"/>
        <path d="M215.054,122.684L220.094,122.684L220.094,105.26L220.454,103.136L219.014,104.828L215.054,107.672L213.686,105.836L221.606,99.716L222.902,99.716L222.902,122.684L227.834,122.684L227.834,125.348L215.054,125.348L215.054,122.684Z" style="fill-rule:nonzero;"/>
        <path d="M232.334,112.748C232.334,108.428 233.036,105.176 234.44,102.992C235.844,100.808 237.89,99.716 240.578,99.716C243.482,99.716 245.588,100.79 246.896,102.938C248.204,105.086 248.858,108.356 248.858,112.748C248.858,117.068 248.156,120.32 246.752,122.504C245.348,124.688 243.29,125.78 240.578,125.78C237.722,125.78 235.634,124.64 234.314,122.36C232.994,120.08 232.334,116.876 232.334,112.748ZM235.322,112.748C235.322,114.308 235.424,115.73 235.628,117.014C235.832,118.298 236.15,119.402 236.582,120.326C237.014,121.25 237.56,121.97 238.22,122.486C238.88,123.002 239.666,123.26 240.578,123.26C242.402,123.26 243.74,122.414 244.592,120.722C245.444,119.03 245.87,116.372 245.87,112.748C245.87,111.212 245.78,109.796 245.6,108.5C245.42,107.204 245.12,106.088 244.7,105.152C244.28,104.216 243.734,103.496 243.062,102.992C242.39,102.488 241.562,102.236 240.578,102.236C238.778,102.236 237.452,103.088 236.6,104.792C235.748,106.496 235.322,109.148 235.322,112.748Z" style="fill-rule:nonzero;"/>
        <path d="M251.954,112.748C251.954,108.428 252.656,105.176 254.06,102.992C255.464,100.808 257.51,99.716 260.198,99.716C263.102,99.716 265.208,100.79 266.516,102.938C267.824,105.086 268.478,108.356 268.478,112.748C268.478,117.068 267.776,120.32 266.372,122.504C264.968,124.688 262.91,125.78 260.198,125.78C257.342,125.78 255.254,124.64 253.934,122.36C252.614,120.08 251.954,116.876 251.954,112.748ZM254.942,112.748C254.942,114.308 255.044,115.73 255.248,117.014C255.452,118.298 255.77,119.402 256.202,120.326C256.634,121.25 257.18,121.97 257.84,122.486C258.5,123.002 259.286,123.26 260.198,123.26C262.022,123.26 263.36,122.414 264.212,120.722C265.064,119.03 265.49,116.372 265.49,112.748C265.49,111.212 265.4,109.796 265.22,108.5C265.04,107.204 264.74,106.088 264.32,105.152C263.9,104.216 263.354,103.496 262.682,102.992C262.01,102.488 261.182,102.236 260.198,102.236C258.398,102.236 257.072,103.088 256.22,104.792C255.368,106.496 254.942,109.148 254.942,112.748Z" style="fill-rule:nonzero;"/>
        <path d="M273.914,122.684L278.954,122.684L278.954,105.26L279.314,103.136L277.874,104.828L273.914,107.672L272.546,105.836L280.466,99.716L281.762,99.716L281.762,122.684L286.694,122.684L286.694,125.348L273.914,125.348L273.914,122.684Z" style="fill-rule:nonzero;"/>
        <path d="M313.44,418.229L318.48,418.229L318.48,400.805L318.84,398.681L317.4,400.373L313.44,403.217L312.072,401.381L319.992,395.261L321.288,395.261L321.288,418.229L326.22,418.229L326.22,420.893L313.44,420.893L313.44,418.229Z" style="fill-rule:nonzero;"/>
        <path d="M333.06,418.229L338.1,418.229L338.1,400.805L338.46,398.681L337.02,400.373L333.06,403.217L331.692,401.381L339.612,395.261L340.908,395.261L340.908,418.229L345.84,418.229L345.84,420.893L333.06,420.893L333.06,418.229Z" style="fill-rule:nonzero;"/>
        <path d="M352.68,418.229L357.72,418.229L357.72,400.805L358.08,398.681L356.64,400.373L352.68,403.217L351.312,401.381L359.232,395.261L360.528,395.261L360.528,418.229L365.46,418.229L365.46,420.893L352.68,420.893L352.68,418.229Z" style="fill-rule:nonzero;"/>
        <path d="M372.3,418.229L377.34,418.229L377.34,400.805L377.7,398.681L376.26,400.373L372.3,403.217L370.932,401.381L378.852,395.261L380.148,395.261L380.148,418.229L385.08,418.229L385.08,420.893L372.3,420.893L372.3,418.229Z" style="fill-rule:nonzero;"/>
        <path d="M313.44,319.101L318.48,319.101L318.48,301.677L318.84,299.553L317.4,301.245L313.44,304.089L312.072,302.253L319.992,296.133L321.288,296.133L321.288,319.101L326.22,319.101L326.22,321.765L313.44,321.765L313.44,319.101Z" style="fill-rule:nonzero;"/>
        <path d="M333.06,319.101L338.1,319.101L338.1,301.677L338.46,299.553L337.02,301.245L333.06,304.089L331.692,302.253L339.612,296.133L340.908,296.133L340.908,319.101L345.84,319.101L345.84,321.765L333.06,321.765L333.06,319.101Z" style="fill-rule:nonzero;"/>
        <path d="M350.34,309.165C350.34,304.845 351.042,301.593 352.446,299.409C353.85,297.225 355.896,296.133 358.584,296.133C361.488,296.133 363.594,297.207 364.902,299.355C366.21,301.503 366.864,304.773 366.864,309.165C366.864,313.485 366.162,316.737 364.758,318.921C363.354,321.105 361.296,322.197 358.584,322.197C355.728,322.197 353.64,321.057 352.32,318.777C351,316.497 350.34,313.293 350.34,309.165ZM353.328,309.165C353.328,310.725 353.43,312.147 353.634,313.431C353.838,314.715 354.156,315.819 354.588,316.743C355.02,317.667 355.566,318.387 356.226,318.903C356.886,319.419 357.672,319.677 358.584,319.677C360.408,319.677 361.746,318.831 362.598,317.139C363.45,315.447 363.876,312.789 363.876,309.165C363.876,307.629 363.786,306.213 363.606,304.917C363.426,303.621 363.126,302.505 362.706,301.569C362.286,300.633 361.74,299.913 361.068,299.409C360.396,298.905 359.568,298.653 358.584,298.653C356.784,298.653 355.458,299.505 354.606,301.209C353.754,302.913 353.328,305.565 353.328,309.165Z" style="fill-rule:nonzero;"/>
        <path d="M369.96,309.165C369.96,304.845 370.662,301.593 372.066,299.409C373.47,297.225 375.516,296.133 378.204,296.133C381.108,296.133 383.214,297.207 384.522,299.355C385.83,301.503 386.484,304.773 386.484,309.165C386.484,313.485 385.782,316.737 384.378,318.921C382.974,321.105 380.916,322.197 378.204,322.197C375.348,322.197 373.26,321.057 371.94,318.777C370.62,316.497 369.96,313.293 369.96,309.165ZM372.948,309.165C372.948,310.725 373.05,312.147 373.254,313.431C373.458,314.715 373.776,315.819 374.208,316.743C374.64,317.667 375.186,318.387 375.846,318.903C376.506,319.419 377.292,319.677 378.204,319.677C380.028,319.677 381.366,318.831 382.218,317.139C383.07,315.447 383.496,312.789 383.496,309.165C383.496,307.629 383.406,306.213 383.226,304.917C383.046,303.621 382.746,302.505 382.326,301.569C381.906,300.633 381.36,299.913 380.688,299.409C380.016,298.905 379.188,298.653 378.204,298.653C376.404,298.653 375.078,299.505 374.226,301.209C373.374,302.913 372.948,305.565 372.948,309.165Z" style="fill-rule:nonzero;"/>
        <path d="M313.44,219.868L318.48,219.868L318.48,202.444L318.84,200.32L317.4,202.012L313.44,204.856L312.072,203.02L319.992,196.9L321.288,196.9L321.288,219.868L326.22,219.868L326.22,222.532L313.44,222.532L313.44,219.868Z" style="fill-rule:nonzero;"/>
        <path d="M330.72,209.932C330.72,205.612 331.422,202.36 332.826,200.176C334.23,197.992 336.276,196.9 338.964,196.9C341.868,196.9 343.974,197.974 345.282,200.122C346.59,202.27 347.244,205.54 347.244,209.932C347.244,214.252 346.542,217.504 345.138,219.688C343.734,221.872 341.676,222.964 338.964,222.964C336.108,222.964 334.02,221.824 332.7,219.544C331.38,217.264 330.72,214.06 330.72,209.932ZM333.708,209.932C333.708,211.492 333.81,212.914 334.014,214.198C334.218,215.482 334.536,216.586 334.968,217.51C335.4,218.434 335.946,219.154 336.606,219.67C337.266,220.186 338.052,220.444 338.964,220.444C340.788,220.444 342.126,219.598 342.978,217.906C343.83,216.214 344.256,213.556 344.256,209.932C344.256,208.396 344.166,206.98 343.986,205.684C343.806,204.388 343.506,203.272 343.086,202.336C342.666,201.4 342.12,200.68 341.448,200.176C340.776,199.672 339.948,199.42 338.964,199.42C337.164,199.42 335.838,200.272 334.986,201.976C334.134,203.68 333.708,206.332 333.708,209.932Z" style="fill-rule:nonzero;"/>
        <path d="M352.68,219.868L357.72,219.868L357.72,202.444L358.08,200.32L356.64,202.012L352.68,204.856L351.312,203.02L359.232,196.9L360.528,196.9L360.528,219.868L365.46,219.868L365.46,222.532L352.68,222.532L352.68,219.868Z" style="fill-rule:nonzero;"/>
        <path d="M372.3,219.868L377.34,219.868L377.34,202.444L377.7,200.32L376.26,202.012L372.3,204.856L370.932,203.02L378.852,196.9L380.148,196.9L380.148,219.868L385.08,219.868L385.08,222.532L372.3,222.532L372.3,219.868Z" style="fill-rule:nonzero;"/>
        <path d="M313.44,122.684L318.48,122.684L318.48,105.26L318.84,103.136L317.4,104.828L313.44,107.672L312.072,105.836L319.992,99.716L321.288,99.716L321.288,122.684L326.22,122.684L326.22,125.348L313.44,125.348L313.44,122.684Z" style="fill-rule:nonzero;"/>
        <path d="M330.72,112.748C330.72,108.428 331.422,105.176 332.826,102.992C334.23,100.808 336.276,99.716 338.964,99.716C341.868,99.716 343.974,100.79 345.282,102.938C346.59,105.086 347.244,108.356 347.244,112.748C347.244,117.068 346.542,120.32 345.138,122.504C343.734,124.688 341.676,125.78 338.964,125.78C336.108,125.78 334.02,124.64 332.7,122.36C331.38,120.08 330.72,116.876 330.72,112.748ZM333.708,112.748C333.708,114.308 333.81,115.73 334.014,117.014C334.218,118.298 334.536,119.402 334.968,120.326C335.4,121.25 335.946,121.97 336.606,122.486C337.266,123.002 338.052,123.26 338.964,123.26C340.788,123.26 342.126,122.414 342.978,120.722C343.83,119.03 344.256,116.372 344.256,112.748C344.256,111.212 344.166,109.796 343.986,108.5C343.806,107.204 343.506,106.088 343.086,105.152C342.666,104.216 342.12,103.496 341.448,102.992C340.776,102.488 339.948,102.236 338.964,102.236C337.164,102.236 335.838,103.088 334.986,104.792C334.134,106.496 333.708,109.148 333.708,112.748Z" style="fill-rule:nonzero;"/>
        <path d="M352.68,122.684L357.72,122.684L357.72,105.26L358.08,103.136L356.64,104.828L352.68,107.672L351.312,105.836L359.232,99.716L360.528,99.716L360.528,122.684L365.46,122.684L365.46,125.348L352.68,125.348L352.68,122.684Z" style="fill-rule:nonzero;"/>
        <path d="M369.96,112.748C369.96,108.428 370.662,105.176 372.066,102.992C373.47,100.808 375.516,99.716 378.204,99.716C381.108,99.716 383.214,100.79 384.522,102.938C385.83,105.086 386.484,108.356 386.484,112.748C386.484,117.068 385.782,120.32 384.378,122.504C382.974,124.688 380.916,125.78 378.204,125.78C375.348,125.78 373.26,124.64 371.94,122.36C370.62,120.08 369.96,116.876 369.96,112.748ZM372.948,112.748C372.948,114.308 373.05,115.73 373.254,117.014C373.458,118.298 373.776,119.402 374.208,120.326C374.64,121.25 375.186,121.97 375.846,122.486C376.506,123.002 377.292,123.26 378.204,123.26C380.028,123.26 381.366,122.414 382.218,120.722C383.07,119.03 383.496,116.372 383.496,112.748C383.496,111.212 383.406,109.796 383.226,108.5C383.046,107.204 382.746,106.088 382.326,105.152C381.906,104.216 381.36,103.496 380.688,102.992C380.016,102.488 379.188,102.236 378.204,102.236C376.404,102.236 375.078,103.088 374.226,104.792C373.374,106.496 372.948,109.148 372.948,112.748Z" style="fill-rule:nonzero;"/>
        <path d="M233.137,32.189L238.697,32.189L238.697,16.389L239.297,13.669L237.377,16.029L233.817,18.469L231.617,15.469L240.737,8.109L243.657,8.109L243.657,32.189L249.097,32.189L249.097,36.589L233.137,36.589L233.137,32.189Z" style="fill-rule:nonzero;"/>
        <path d="M253.377,22.549C253.377,17.642 254.217,13.995 255.897,11.609C257.577,9.222 259.99,8.029 263.137,8.029C266.497,8.029 268.963,9.209 270.537,11.569C272.11,13.929 272.897,17.589 272.897,22.549C272.897,27.482 272.05,31.149 270.357,33.549C268.663,35.949 266.243,37.149 263.097,37.149C259.763,37.149 257.31,35.889 255.737,33.369C254.163,30.849 253.377,27.242 253.377,22.549ZM258.577,22.549C258.577,25.802 258.93,28.315 259.637,30.089C260.343,31.862 261.51,32.749 263.137,32.749C264.71,32.749 265.863,31.935 266.597,30.309C267.33,28.682 267.697,26.095 267.697,22.549C267.697,19.322 267.35,16.829 266.657,15.069C265.963,13.309 264.777,12.429 263.097,12.429C261.497,12.429 260.343,13.255 259.637,14.909C258.93,16.562 258.577,19.109 258.577,22.549Z" style="fill-rule:nonzero;"/>
        <path d="M130.642,22.549C130.642,17.642 131.482,13.995 133.162,11.609C134.842,9.222 137.255,8.029 140.402,8.029C143.762,8.029 146.229,9.209 147.802,11.569C149.375,13.929 150.162,17.589 150.162,22.549C150.162,27.482 149.315,31.149 147.622,33.549C145.929,35.949 143.509,37.149 140.362,37.149C137.029,37.149 134.575,35.889 133.002,33.369C131.429,30.849 130.642,27.242 130.642,22.549ZM135.842,22.549C135.842,25.802 136.195,28.315 136.902,30.089C137.609,31.862 138.775,32.749 140.402,32.749C141.975,32.749 143.129,31.935 143.862,30.309C144.595,28.682 144.962,26.095 144.962,22.549C144.962,19.322 144.615,16.829 143.922,15.069C143.229,13.309 142.042,12.429 140.362,12.429C138.762,12.429 137.609,13.255 136.902,14.909C136.195,16.562 135.842,19.109 135.842,22.549Z" style="fill-rule:nonzero;"/>
        <path d="M155.762,32.189L161.322,32.189L161.322,16.389L161.922,13.669L160.002,16.029L156.442,18.469L154.242,15.469L163.362,8.109L166.282,8.109L166.282,32.189L171.722,32.189L171.722,36.589L155.762,36.589L155.762,32.189Z" style="fill-rule:nonzero;"/>
        <path d="M331.042,32.189L336.602,32.189L336.602,16.389L337.202,13.669L335.282,16.029L331.722,18.469L329.522,15.469L338.642,8.109L341.562,8.109L341.562,32.189L347.002,32.189L347.002,36.589L331.042,36.589L331.042,32.189Z" style="fill-rule:nonzero;"/>
        <path d="M353.722,32.189L359.282,32.189L359.282,16.389L359.882,13.669L357.962,16.029L354.402,18.469L352.202,15.469L361.322,8.109L364.242,8.109L364.242,32.189L369.682,32.189L369.682,36.589L353.722,36.589L353.722,32.189Z" style="fill-rule:nonzero;"/>
        <path d="M421.964,219.548L427.524,219.548L427.524,203.748L428.124,201.028L426.204,203.388L422.644,205.828L420.444,202.828L429.564,195.468L432.484,195.468L432.484,219.548L437.924,219.548L437.924,223.948L421.964,223.948L421.964,219.548Z" style="fill-rule:nonzero;"/>
        <path d="M442.204,209.908C442.204,205.001 443.044,201.355 444.724,198.968C446.404,196.581 448.817,195.388 451.964,195.388C455.324,195.388 457.79,196.568 459.364,198.928C460.937,201.288 461.724,204.948 461.724,209.908C461.724,214.841 460.877,218.508 459.184,220.908C457.49,223.308 455.07,224.508 451.924,224.508C448.59,224.508 446.137,223.248 444.564,220.728C442.99,218.208 442.204,214.601 442.204,209.908ZM447.404,209.908C447.404,213.161 447.757,215.675 448.464,217.448C449.17,219.221 450.337,220.108 451.964,220.108C453.537,220.108 454.69,219.295 455.424,217.668C456.157,216.041 456.524,213.455 456.524,209.908C456.524,206.681 456.177,204.188 455.484,202.428C454.79,200.668 453.604,199.788 451.924,199.788C450.324,199.788 449.17,200.615 448.464,202.268C447.757,203.921 447.404,206.468 447.404,209.908Z" style="fill-rule:nonzero;"/>
        <path d="M420.928,309.543C420.928,304.637 421.768,300.99 423.448,298.603C425.128,296.217 427.541,295.023 430.688,295.023C434.048,295.023 436.514,296.203 438.088,298.563C439.661,300.923 440.448,304.583 440.448,309.543C440.448,314.477 439.601,318.143 437.908,320.543C436.214,322.943 433.794,324.143 430.648,324.143C427.314,324.143 424.861,322.883 423.288,320.363C421.714,317.843 420.928,314.237 420.928,309.543ZM426.128,309.543C426.128,312.797 426.481,315.31 427.188,317.083C427.894,318.857 429.061,319.743 430.688,319.743C432.261,319.743 433.414,318.93 434.148,317.303C434.881,315.677 435.248,313.09 435.248,309.543C435.248,306.317 434.901,303.823 434.208,302.063C433.514,300.303 432.328,299.423 430.648,299.423C429.048,299.423 427.894,300.25 427.188,301.903C426.481,303.557 426.128,306.103 426.128,309.543Z" style="fill-rule:nonzero;"/>
        <path d="M446.048,319.183L451.608,319.183L451.608,303.383L452.208,300.663L450.288,303.023L446.728,305.463L444.528,302.463L453.648,295.103L456.568,295.103L456.568,319.183L462.008,319.183L462.008,323.583L446.048,323.583L446.048,319.183Z" style="fill-rule:nonzero;"/>
        <path d="M421.964,120.948L427.524,120.948L427.524,105.148L428.124,102.428L426.204,104.788L422.644,107.228L420.444,104.228L429.564,96.868L432.484,96.868L432.484,120.948L437.924,120.948L437.924,125.348L421.964,125.348L421.964,120.948Z" style="fill-rule:nonzero;"/>
        <path d="M444.644,120.948L450.204,120.948L450.204,105.148L450.804,102.428L448.884,104.788L445.324,107.228L443.124,104.228L452.244,96.868L455.164,96.868L455.164,120.948L460.604,120.948L460.604,125.348L444.644,125.348L444.644,120.948Z" style="fill-rule:nonzero;"/>
        <g id="halos">
        </g>
        <g id="halos1" serif:id="halos">
        </g>
        <g id="digits">
        </g>
        <g id="digits1" serif:id="digits">
        </g>
    </g>
</svg>
