<?xml version="1.0" encoding="UTF-8" standalone="no"?>
<!DOCTYPE svg PUBLIC "-//W3C//DTD SVG 1.1//EN" "http://www.w3.org/Graphics/SVG/1.1/DTD/svg11.dtd">
<svg width="100%" height="100%" viewBox="0 0 474 464" version="1.1" xmlns="http://www.w3.org/2000/svg" xmlns:xlink="http://www.w3.org/1999/xlink" xml:space="preserve" xmlns:serif="http://www.serif.com/" style="fill-rule:evenodd;clip-rule:evenodd;stroke-linejoin:round;stroke-miterlimit:10;">
    <rect id="polygon_triangulation" x="-4942" y="-2760" width="8206" height="4260" style="fill:none;"/>
    <g id="polygon_triangulation1" serif:id="polygon_triangulation">
        <g id="TIN-vertices" serif:id="TIN vertices">
        </g>
        <g id="TIN-edges" serif:id="TIN edges">
        </g>
        <rect x="7.934" y="59.836" width="98.3" height="98.3" style="fill:white;stroke:black;stroke-width:2px;"/>
        <rect x="7.934" y="256.782" width="98.3" height="98.3" style="fill:white;stroke:black;stroke-width:2px;"/>
        <rect x="204.534" y="59.836" width="98.3" height="98.3" style="fill:white;stroke:black;stroke-width:2px;"/>
        <rect x="204.534" y="256.782" width="98.3" height="98.3" style="fill:white;stroke:black;stroke-width:2px;"/>
        <rect x="7.934" y="158.136" width="98.3" height="98.3" style="fill:white;stroke:black;stroke-width:2px;"/>
        <rect x="7.934" y="355.082" width="98.3" height="98.3" style="fill:white;stroke:black;stroke-width:2px;"/>
        <rect x="204.534" y="158.136" width="98.3" height="98.3" style="fill:white;stroke:black;stroke-width:2px;"/>
        <rect x="204.534" y="355.082" width="98.3" height="98.3" style="fill:white;stroke:black;stroke-width:2px;"/>
        <rect x="106.234" y="59.836" width="98.3" height="98.3" style="fill:white;stroke:black;stroke-width:2px;"/>
        <rect x="106.234" y="256.782" width="98.3" height="98.3" style="fill:white;stroke:black;stroke-width:2px;"/>
        <rect x="302.834" y="59.836" width="98.3" height="98.3" style="fill:white;stroke:black;stroke-width:2px;"/>
        <rect x="302.834" y="256.782" width="98.3" height="98.3" style="fill:white;stroke:black;stroke-width:2px;"/>
        <rect x="106.234" y="158.136" width="98.3" height="98.3" style="fill:white;stroke:black;stroke-width:2px;"/>
        <rect x="106.234" y="355.082" width="98.3" height="98.3" style="fill:white;stroke:black;stroke-width:2px;"/>
        <rect x="302.834" y="158.136" width="98.3" height="98.3" style="fill:white;stroke:black;stroke-width:2px;"/>
        <rect x="302.834" y="355.082" width="98.3" height="98.3" style="fill:white;stroke:black;stroke-width:2px;"/>
        <path d="M421.636,403.192C421.636,398.286 422.476,394.639 424.156,392.252C425.836,389.866 428.249,388.672 431.396,388.672C434.756,388.672 437.222,389.852 438.796,392.212C440.369,394.572 441.156,398.232 441.156,403.192C441.156,408.126 440.309,411.792 438.616,414.192C436.922,416.592 434.502,417.792 431.356,417.792C428.022,417.792 425.569,416.532 423.996,414.012C422.422,411.492 421.636,407.886 421.636,403.192ZM426.836,403.192C426.836,406.446 427.189,408.959 427.896,410.732C428.602,412.506 429.769,413.392 431.396,413.392C432.969,413.392 434.122,412.579 434.856,410.952C435.589,409.326 435.956,406.739 435.956,403.192C435.956,399.966 435.609,397.472 434.916,395.712C434.222,393.952 433.036,393.072 431.356,393.072C429.756,393.072 428.602,393.899 427.896,395.552C427.189,397.206 426.836,399.752 426.836,403.192Z" style="fill-rule:nonzero;"/>
        <path d="M444.316,403.192C444.316,398.286 445.156,394.639 446.836,392.252C448.516,389.866 450.929,388.672 454.076,388.672C457.436,388.672 459.902,389.852 461.476,392.212C463.049,394.572 463.836,398.232 463.836,403.192C463.836,408.126 462.989,411.792 461.296,414.192C459.602,416.592 457.182,417.792 454.036,417.792C450.702,417.792 448.249,416.532 446.676,414.012C445.102,411.492 444.316,407.886 444.316,403.192ZM449.516,403.192C449.516,406.446 449.869,408.959 450.576,410.732C451.282,412.506 452.449,413.392 454.076,413.392C455.649,413.392 456.802,412.579 457.536,410.952C458.269,409.326 458.636,406.739 458.636,403.192C458.636,399.966 458.289,397.472 457.596,395.712C456.902,393.952 455.716,393.072 454.036,393.072C452.436,393.072 451.282,393.899 450.576,395.552C449.869,397.206 449.516,399.752 449.516,403.192Z" style="fill-rule:nonzero;"/>
        <path d="M34.848,18.488C34.848,13.581 35.688,9.935 37.368,7.548C39.048,5.161 41.462,3.968 44.608,3.968C47.968,3.968 50.435,5.148 52.008,7.508C53.582,9.868 54.368,13.528 54.368,18.488C54.368,23.421 53.522,27.088 51.828,29.488C50.135,31.888 47.715,33.088 44.568,33.088C41.235,33.088 38.782,31.828 37.208,29.308C35.635,26.788 34.848,23.181 34.848,18.488ZM40.048,18.488C40.048,21.741 40.402,24.255 41.108,26.028C41.815,27.801 42.982,28.688 44.608,28.688C46.182,28.688 47.335,27.875 48.068,26.248C48.802,24.621 49.168,22.035 49.168,18.488C49.168,15.261 48.822,12.768 48.128,11.008C47.435,9.248 46.248,8.368 44.568,8.368C42.968,8.368 41.815,9.195 41.108,10.848C40.402,12.501 40.048,15.048 40.048,18.488Z" style="fill-rule:nonzero;"/>
        <path d="M57.528,18.488C57.528,13.581 58.368,9.935 60.048,7.548C61.728,5.161 64.142,3.968 67.288,3.968C70.648,3.968 73.115,5.148 74.688,7.508C76.262,9.868 77.048,13.528 77.048,18.488C77.048,23.421 76.202,27.088 74.508,29.488C72.815,31.888 70.395,33.088 67.248,33.088C63.915,33.088 61.462,31.828 59.888,29.308C58.315,26.788 57.528,23.181 57.528,18.488ZM62.728,18.488C62.728,21.741 63.082,24.255 63.788,26.028C64.495,27.801 65.662,28.688 67.288,28.688C68.862,28.688 70.015,27.875 70.748,26.248C71.482,24.621 71.848,22.035 71.848,18.488C71.848,15.261 71.502,12.768 70.808,11.008C70.115,9.248 68.928,8.368 67.248,8.368C65.648,8.368 64.495,9.195 63.788,10.848C63.082,12.501 62.728,15.048 62.728,18.488Z" style="fill-rule:nonzero;"/>
        <g transform="matrix(1,0,0,1,-13746.4,-15994.4)">
            <g transform="matrix(36,0,0,36,13783.9,16411.3)">
                <path d="M0.043,-0.35C0.043,-0.47 0.063,-0.56 0.102,-0.621C0.14,-0.682 0.197,-0.712 0.272,-0.712C0.353,-0.712 0.411,-0.682 0.448,-0.623C0.484,-0.563 0.502,-0.472 0.502,-0.35C0.502,-0.23 0.483,-0.14 0.444,-0.079C0.405,-0.018 0.347,0.012 0.272,0.012C0.193,0.012 0.135,-0.02 0.098,-0.083C0.061,-0.146 0.043,-0.235 0.043,-0.35ZM0.126,-0.35C0.126,-0.307 0.129,-0.267 0.135,-0.232C0.14,-0.196 0.149,-0.165 0.161,-0.14C0.173,-0.114 0.188,-0.094 0.207,-0.08C0.225,-0.065 0.247,-0.058 0.272,-0.058C0.323,-0.058 0.36,-0.082 0.384,-0.129C0.407,-0.175 0.419,-0.249 0.419,-0.35C0.419,-0.393 0.417,-0.432 0.412,-0.468C0.407,-0.504 0.398,-0.535 0.387,-0.561C0.375,-0.587 0.36,-0.607 0.341,-0.621C0.322,-0.635 0.299,-0.642 0.272,-0.642C0.222,-0.642 0.185,-0.618 0.162,-0.571C0.138,-0.524 0.126,-0.45 0.126,-0.35Z" style="fill:rgb(253,0,0);fill-rule:nonzero;"/>
            </g>
            <g transform="matrix(36,0,0,36,13803.5,16411.3)">
                <path d="M0.043,-0.35C0.043,-0.47 0.063,-0.56 0.102,-0.621C0.14,-0.682 0.197,-0.712 0.272,-0.712C0.353,-0.712 0.411,-0.682 0.448,-0.623C0.484,-0.563 0.502,-0.472 0.502,-0.35C0.502,-0.23 0.483,-0.14 0.444,-0.079C0.405,-0.018 0.347,0.012 0.272,0.012C0.193,0.012 0.135,-0.02 0.098,-0.083C0.061,-0.146 0.043,-0.235 0.043,-0.35ZM0.126,-0.35C0.126,-0.307 0.129,-0.267 0.135,-0.232C0.14,-0.196 0.149,-0.165 0.161,-0.14C0.173,-0.114 0.188,-0.094 0.207,-0.08C0.225,-0.065 0.247,-0.058 0.272,-0.058C0.323,-0.058 0.36,-0.082 0.384,-0.129C0.407,-0.175 0.419,-0.249 0.419,-0.35C0.419,-0.393 0.417,-0.432 0.412,-0.468C0.407,-0.504 0.398,-0.535 0.387,-0.561C0.375,-0.587 0.36,-0.607 0.341,-0.621C0.322,-0.635 0.299,-0.642 0.272,-0.642C0.222,-0.642 0.185,-0.618 0.162,-0.571C0.138,-0.524 0.126,-0.45 0.126,-0.35Z" style="fill:rgb(0,140,255);fill-rule:nonzero;"/>
            </g>
        </g>
        <g transform="matrix(1,0,0,1,-13746.4,-16093.6)">
            <g transform="matrix(36,0,0,36,13783.9,16411.3)">
                <path d="M0.043,-0.35C0.043,-0.47 0.063,-0.56 0.102,-0.621C0.14,-0.682 0.197,-0.712 0.272,-0.712C0.353,-0.712 0.411,-0.682 0.448,-0.623C0.484,-0.563 0.502,-0.472 0.502,-0.35C0.502,-0.23 0.483,-0.14 0.444,-0.079C0.405,-0.018 0.347,0.012 0.272,0.012C0.193,0.012 0.135,-0.02 0.098,-0.083C0.061,-0.146 0.043,-0.235 0.043,-0.35ZM0.126,-0.35C0.126,-0.307 0.129,-0.267 0.135,-0.232C0.14,-0.196 0.149,-0.165 0.161,-0.14C0.173,-0.114 0.188,-0.094 0.207,-0.08C0.225,-0.065 0.247,-0.058 0.272,-0.058C0.323,-0.058 0.36,-0.082 0.384,-0.129C0.407,-0.175 0.419,-0.249 0.419,-0.35C0.419,-0.393 0.417,-0.432 0.412,-0.468C0.407,-0.504 0.398,-0.535 0.387,-0.561C0.375,-0.587 0.36,-0.607 0.341,-0.621C0.322,-0.635 0.299,-0.642 0.272,-0.642C0.222,-0.642 0.185,-0.618 0.162,-0.571C0.138,-0.524 0.126,-0.45 0.126,-0.35Z" style="fill:rgb(253,0,0);fill-rule:nonzero;"/>
            </g>
            <g transform="matrix(36,0,0,36,13803.5,16411.3)">
                <path d="M0.108,-0.074L0.248,-0.074L0.248,-0.558L0.258,-0.617L0.218,-0.57L0.108,-0.491L0.07,-0.542L0.29,-0.712L0.326,-0.712L0.326,-0.074L0.463,-0.074L0.463,-0L0.108,-0L0.108,-0.074Z" style="fill:rgb(0,140,255);fill-rule:nonzero;"/>
            </g>
        </g>
        <g transform="matrix(1,0,0,1,-13746.4,-16192.8)">
            <g transform="matrix(36,0,0,36,13783.9,16411.3)">
                <path d="M0.108,-0.074L0.248,-0.074L0.248,-0.558L0.258,-0.617L0.218,-0.57L0.108,-0.491L0.07,-0.542L0.29,-0.712L0.326,-0.712L0.326,-0.074L0.463,-0.074L0.463,-0L0.108,-0L0.108,-0.074Z" style="fill:rgb(253,0,0);fill-rule:nonzero;"/>
            </g>
            <g transform="matrix(36,0,0,36,13803.5,16411.3)">
                <path d="M0.043,-0.35C0.043,-0.47 0.063,-0.56 0.102,-0.621C0.14,-0.682 0.197,-0.712 0.272,-0.712C0.353,-0.712 0.411,-0.682 0.448,-0.623C0.484,-0.563 0.502,-0.472 0.502,-0.35C0.502,-0.23 0.483,-0.14 0.444,-0.079C0.405,-0.018 0.347,0.012 0.272,0.012C0.193,0.012 0.135,-0.02 0.098,-0.083C0.061,-0.146 0.043,-0.235 0.043,-0.35ZM0.126,-0.35C0.126,-0.307 0.129,-0.267 0.135,-0.232C0.14,-0.196 0.149,-0.165 0.161,-0.14C0.173,-0.114 0.188,-0.094 0.207,-0.08C0.225,-0.065 0.247,-0.058 0.272,-0.058C0.323,-0.058 0.36,-0.082 0.384,-0.129C0.407,-0.175 0.419,-0.249 0.419,-0.35C0.419,-0.393 0.417,-0.432 0.412,-0.468C0.407,-0.504 0.398,-0.535 0.387,-0.561C0.375,-0.587 0.36,-0.607 0.341,-0.621C0.322,-0.635 0.299,-0.642 0.272,-0.642C0.222,-0.642 0.185,-0.618 0.162,-0.571C0.138,-0.524 0.126,-0.45 0.126,-0.35Z" style="fill:rgb(0,140,255);fill-rule:nonzero;"/>
            </g>
        </g>
        <g transform="matrix(1,0,0,1,-13746.4,-16290)">
            <g transform="matrix(36,0,0,36,13783.9,16411.3)">
                <path d="M0.108,-0.074L0.248,-0.074L0.248,-0.558L0.258,-0.617L0.218,-0.57L0.108,-0.491L0.07,-0.542L0.29,-0.712L0.326,-0.712L0.326,-0.074L0.463,-0.074L0.463,-0L0.108,-0L0.108,-0.074Z" style="fill:rgb(253,0,0);fill-rule:nonzero;"/>
            </g>
            <g transform="matrix(36,0,0,36,13803.5,16411.3)">
                <path d="M0.108,-0.074L0.248,-0.074L0.248,-0.558L0.258,-0.617L0.218,-0.57L0.108,-0.491L0.07,-0.542L0.29,-0.712L0.326,-0.712L0.326,-0.074L0.463,-0.074L0.463,-0L0.108,-0L0.108,-0.074Z" style="fill:rgb(0,140,255);fill-rule:nonzero;"/>
            </g>
        </g>
        <g transform="matrix(1,0,0,1,-13649.1,-15994.4)">
            <g transform="matrix(36,0,0,36,13783.9,16411.3)">
                <path d="M0.043,-0.35C0.043,-0.47 0.063,-0.56 0.102,-0.621C0.14,-0.682 0.197,-0.712 0.272,-0.712C0.353,-0.712 0.411,-0.682 0.448,-0.623C0.484,-0.563 0.502,-0.472 0.502,-0.35C0.502,-0.23 0.483,-0.14 0.444,-0.079C0.405,-0.018 0.347,0.012 0.272,0.012C0.193,0.012 0.135,-0.02 0.098,-0.083C0.061,-0.146 0.043,-0.235 0.043,-0.35ZM0.126,-0.35C0.126,-0.307 0.129,-0.267 0.135,-0.232C0.14,-0.196 0.149,-0.165 0.161,-0.14C0.173,-0.114 0.188,-0.094 0.207,-0.08C0.225,-0.065 0.247,-0.058 0.272,-0.058C0.323,-0.058 0.36,-0.082 0.384,-0.129C0.407,-0.175 0.419,-0.249 0.419,-0.35C0.419,-0.393 0.417,-0.432 0.412,-0.468C0.407,-0.504 0.398,-0.535 0.387,-0.561C0.375,-0.587 0.36,-0.607 0.341,-0.621C0.322,-0.635 0.299,-0.642 0.272,-0.642C0.222,-0.642 0.185,-0.618 0.162,-0.571C0.138,-0.524 0.126,-0.45 0.126,-0.35Z" style="fill:rgb(253,0,0);fill-rule:nonzero;"/>
            </g>
            <g transform="matrix(36,0,0,36,13803.5,16411.3)">
                <path d="M0.234,-0.058C0.257,-0.058 0.278,-0.061 0.297,-0.068C0.316,-0.075 0.333,-0.085 0.347,-0.098C0.361,-0.111 0.372,-0.126 0.38,-0.144C0.388,-0.162 0.392,-0.182 0.392,-0.203C0.392,-0.25 0.378,-0.284 0.351,-0.307C0.323,-0.33 0.285,-0.341 0.236,-0.341L0.162,-0.341L0.162,-0.37L0.306,-0.592L0.352,-0.636L0.287,-0.626L0.089,-0.626L0.089,-0.7L0.446,-0.7L0.446,-0.671L0.287,-0.432L0.252,-0.403L0.252,-0.401L0.286,-0.408C0.313,-0.407 0.337,-0.403 0.36,-0.394C0.383,-0.385 0.402,-0.372 0.419,-0.355C0.436,-0.337 0.449,-0.317 0.458,-0.294C0.467,-0.27 0.472,-0.243 0.472,-0.213C0.472,-0.177 0.466,-0.145 0.453,-0.117C0.44,-0.089 0.423,-0.066 0.402,-0.047C0.38,-0.028 0.354,-0.013 0.325,-0.003C0.296,0.007 0.265,0.012 0.232,0.012C0.202,0.012 0.175,0.01 0.151,0.005C0.127,0 0.106,-0.006 0.088,-0.013L0.109,-0.084C0.124,-0.077 0.142,-0.07 0.164,-0.066C0.185,-0.061 0.208,-0.058 0.234,-0.058Z" style="fill:rgb(0,140,255);fill-rule:nonzero;"/>
            </g>
        </g>
        <g transform="matrix(1,0,0,1,-13649.1,-16093.6)">
            <g transform="matrix(36,0,0,36,13783.9,16411.3)">
                <path d="M0.043,-0.35C0.043,-0.47 0.063,-0.56 0.102,-0.621C0.14,-0.682 0.197,-0.712 0.272,-0.712C0.353,-0.712 0.411,-0.682 0.448,-0.623C0.484,-0.563 0.502,-0.472 0.502,-0.35C0.502,-0.23 0.483,-0.14 0.444,-0.079C0.405,-0.018 0.347,0.012 0.272,0.012C0.193,0.012 0.135,-0.02 0.098,-0.083C0.061,-0.146 0.043,-0.235 0.043,-0.35ZM0.126,-0.35C0.126,-0.307 0.129,-0.267 0.135,-0.232C0.14,-0.196 0.149,-0.165 0.161,-0.14C0.173,-0.114 0.188,-0.094 0.207,-0.08C0.225,-0.065 0.247,-0.058 0.272,-0.058C0.323,-0.058 0.36,-0.082 0.384,-0.129C0.407,-0.175 0.419,-0.249 0.419,-0.35C0.419,-0.393 0.417,-0.432 0.412,-0.468C0.407,-0.504 0.398,-0.535 0.387,-0.561C0.375,-0.587 0.36,-0.607 0.341,-0.621C0.322,-0.635 0.299,-0.642 0.272,-0.642C0.222,-0.642 0.185,-0.618 0.162,-0.571C0.138,-0.524 0.126,-0.45 0.126,-0.35Z" style="fill:rgb(253,0,0);fill-rule:nonzero;"/>
            </g>
            <g transform="matrix(36,0,0,36,13803.5,16411.3)">
                <path d="M0.446,-0.541C0.446,-0.506 0.44,-0.47 0.427,-0.433C0.413,-0.396 0.397,-0.358 0.376,-0.321C0.355,-0.284 0.331,-0.247 0.305,-0.212C0.279,-0.176 0.253,-0.142 0.227,-0.11L0.178,-0.067L0.178,-0.063L0.242,-0.074L0.46,-0.074L0.46,-0L0.062,-0L0.062,-0.029C0.077,-0.044 0.094,-0.063 0.115,-0.086C0.136,-0.109 0.157,-0.134 0.18,-0.162C0.202,-0.189 0.224,-0.219 0.246,-0.25C0.267,-0.28 0.287,-0.312 0.305,-0.344C0.322,-0.376 0.336,-0.408 0.347,-0.439C0.358,-0.47 0.363,-0.5 0.363,-0.528C0.363,-0.561 0.354,-0.588 0.335,-0.61C0.316,-0.631 0.288,-0.642 0.25,-0.642C0.225,-0.642 0.2,-0.637 0.176,-0.627C0.152,-0.616 0.131,-0.604 0.114,-0.591L0.081,-0.648C0.104,-0.668 0.132,-0.684 0.164,-0.695C0.196,-0.706 0.23,-0.712 0.267,-0.712C0.296,-0.712 0.321,-0.708 0.343,-0.7C0.365,-0.691 0.384,-0.679 0.399,-0.664C0.414,-0.649 0.426,-0.631 0.434,-0.61C0.442,-0.588 0.446,-0.566 0.446,-0.541Z" style="fill:rgb(0,140,255);fill-rule:nonzero;"/>
            </g>
        </g>
        <g transform="matrix(1,0,0,1,-13649.1,-16192.8)">
            <g transform="matrix(36,0,0,36,13783.9,16411.3)">
                <path d="M0.108,-0.074L0.248,-0.074L0.248,-0.558L0.258,-0.617L0.218,-0.57L0.108,-0.491L0.07,-0.542L0.29,-0.712L0.326,-0.712L0.326,-0.074L0.463,-0.074L0.463,-0L0.108,-0L0.108,-0.074Z" style="fill:rgb(253,0,0);fill-rule:nonzero;"/>
            </g>
            <g transform="matrix(36,0,0,36,13803.5,16411.3)">
                <path d="M0.234,-0.058C0.257,-0.058 0.278,-0.061 0.297,-0.068C0.316,-0.075 0.333,-0.085 0.347,-0.098C0.361,-0.111 0.372,-0.126 0.38,-0.144C0.388,-0.162 0.392,-0.182 0.392,-0.203C0.392,-0.25 0.378,-0.284 0.351,-0.307C0.323,-0.33 0.285,-0.341 0.236,-0.341L0.162,-0.341L0.162,-0.37L0.306,-0.592L0.352,-0.636L0.287,-0.626L0.089,-0.626L0.089,-0.7L0.446,-0.7L0.446,-0.671L0.287,-0.432L0.252,-0.403L0.252,-0.401L0.286,-0.408C0.313,-0.407 0.337,-0.403 0.36,-0.394C0.383,-0.385 0.402,-0.372 0.419,-0.355C0.436,-0.337 0.449,-0.317 0.458,-0.294C0.467,-0.27 0.472,-0.243 0.472,-0.213C0.472,-0.177 0.466,-0.145 0.453,-0.117C0.44,-0.089 0.423,-0.066 0.402,-0.047C0.38,-0.028 0.354,-0.013 0.325,-0.003C0.296,0.007 0.265,0.012 0.232,0.012C0.202,0.012 0.175,0.01 0.151,0.005C0.127,0 0.106,-0.006 0.088,-0.013L0.109,-0.084C0.124,-0.077 0.142,-0.07 0.164,-0.066C0.185,-0.061 0.208,-0.058 0.234,-0.058Z" style="fill:rgb(0,140,255);fill-rule:nonzero;"/>
            </g>
        </g>
        <g transform="matrix(1,0,0,1,-13649.1,-16290)">
            <g transform="matrix(36,0,0,36,13783.9,16411.3)">
                <path d="M0.108,-0.074L0.248,-0.074L0.248,-0.558L0.258,-0.617L0.218,-0.57L0.108,-0.491L0.07,-0.542L0.29,-0.712L0.326,-0.712L0.326,-0.074L0.463,-0.074L0.463,-0L0.108,-0L0.108,-0.074Z" style="fill:rgb(253,0,0);fill-rule:nonzero;"/>
            </g>
            <g transform="matrix(36,0,0,36,13803.5,16411.3)">
                <path d="M0.446,-0.541C0.446,-0.506 0.44,-0.47 0.427,-0.433C0.413,-0.396 0.397,-0.358 0.376,-0.321C0.355,-0.284 0.331,-0.247 0.305,-0.212C0.279,-0.176 0.253,-0.142 0.227,-0.11L0.178,-0.067L0.178,-0.063L0.242,-0.074L0.46,-0.074L0.46,-0L0.062,-0L0.062,-0.029C0.077,-0.044 0.094,-0.063 0.115,-0.086C0.136,-0.109 0.157,-0.134 0.18,-0.162C0.202,-0.189 0.224,-0.219 0.246,-0.25C0.267,-0.28 0.287,-0.312 0.305,-0.344C0.322,-0.376 0.336,-0.408 0.347,-0.439C0.358,-0.47 0.363,-0.5 0.363,-0.528C0.363,-0.561 0.354,-0.588 0.335,-0.61C0.316,-0.631 0.288,-0.642 0.25,-0.642C0.225,-0.642 0.2,-0.637 0.176,-0.627C0.152,-0.616 0.131,-0.604 0.114,-0.591L0.081,-0.648C0.104,-0.668 0.132,-0.684 0.164,-0.695C0.196,-0.706 0.23,-0.712 0.267,-0.712C0.296,-0.712 0.321,-0.708 0.343,-0.7C0.365,-0.691 0.384,-0.679 0.399,-0.664C0.414,-0.649 0.426,-0.631 0.434,-0.61C0.442,-0.588 0.446,-0.566 0.446,-0.541Z" style="fill:rgb(0,140,255);fill-rule:nonzero;"/>
            </g>
        </g>
        <g transform="matrix(1,0,0,1,-13551,-15994.4)">
            <g transform="matrix(36,0,0,36,13783.9,16411.3)">
                <path d="M0.234,-0.058C0.257,-0.058 0.278,-0.061 0.297,-0.068C0.316,-0.075 0.333,-0.085 0.347,-0.098C0.361,-0.111 0.372,-0.126 0.38,-0.144C0.388,-0.162 0.392,-0.182 0.392,-0.203C0.392,-0.25 0.378,-0.284 0.351,-0.307C0.323,-0.33 0.285,-0.341 0.236,-0.341L0.162,-0.341L0.162,-0.37L0.306,-0.592L0.352,-0.636L0.287,-0.626L0.089,-0.626L0.089,-0.7L0.446,-0.7L0.446,-0.671L0.287,-0.432L0.252,-0.403L0.252,-0.401L0.286,-0.408C0.313,-0.407 0.337,-0.403 0.36,-0.394C0.383,-0.385 0.402,-0.372 0.419,-0.355C0.436,-0.337 0.449,-0.317 0.458,-0.294C0.467,-0.27 0.472,-0.243 0.472,-0.213C0.472,-0.177 0.466,-0.145 0.453,-0.117C0.44,-0.089 0.423,-0.066 0.402,-0.047C0.38,-0.028 0.354,-0.013 0.325,-0.003C0.296,0.007 0.265,0.012 0.232,0.012C0.202,0.012 0.175,0.01 0.151,0.005C0.127,0 0.106,-0.006 0.088,-0.013L0.109,-0.084C0.124,-0.077 0.142,-0.07 0.164,-0.066C0.185,-0.061 0.208,-0.058 0.234,-0.058Z" style="fill:rgb(253,0,0);fill-rule:nonzero;"/>
            </g>
            <g transform="matrix(36,0,0,36,13803.5,16411.3)">
                <path d="M0.043,-0.35C0.043,-0.47 0.063,-0.56 0.102,-0.621C0.14,-0.682 0.197,-0.712 0.272,-0.712C0.353,-0.712 0.411,-0.682 0.448,-0.623C0.484,-0.563 0.502,-0.472 0.502,-0.35C0.502,-0.23 0.483,-0.14 0.444,-0.079C0.405,-0.018 0.347,0.012 0.272,0.012C0.193,0.012 0.135,-0.02 0.098,-0.083C0.061,-0.146 0.043,-0.235 0.043,-0.35ZM0.126,-0.35C0.126,-0.307 0.129,-0.267 0.135,-0.232C0.14,-0.196 0.149,-0.165 0.161,-0.14C0.173,-0.114 0.188,-0.094 0.207,-0.08C0.225,-0.065 0.247,-0.058 0.272,-0.058C0.323,-0.058 0.36,-0.082 0.384,-0.129C0.407,-0.175 0.419,-0.249 0.419,-0.35C0.419,-0.393 0.417,-0.432 0.412,-0.468C0.407,-0.504 0.398,-0.535 0.387,-0.561C0.375,-0.587 0.36,-0.607 0.341,-0.621C0.322,-0.635 0.299,-0.642 0.272,-0.642C0.222,-0.642 0.185,-0.618 0.162,-0.571C0.138,-0.524 0.126,-0.45 0.126,-0.35Z" style="fill:rgb(0,140,255);fill-rule:nonzero;"/>
            </g>
        </g>
        <g transform="matrix(1,0,0,1,-13551,-16093.6)">
            <g transform="matrix(36,0,0,36,13783.9,16411.3)">
                <path d="M0.234,-0.058C0.257,-0.058 0.278,-0.061 0.297,-0.068C0.316,-0.075 0.333,-0.085 0.347,-0.098C0.361,-0.111 0.372,-0.126 0.38,-0.144C0.388,-0.162 0.392,-0.182 0.392,-0.203C0.392,-0.25 0.378,-0.284 0.351,-0.307C0.323,-0.33 0.285,-0.341 0.236,-0.341L0.162,-0.341L0.162,-0.37L0.306,-0.592L0.352,-0.636L0.287,-0.626L0.089,-0.626L0.089,-0.7L0.446,-0.7L0.446,-0.671L0.287,-0.432L0.252,-0.403L0.252,-0.401L0.286,-0.408C0.313,-0.407 0.337,-0.403 0.36,-0.394C0.383,-0.385 0.402,-0.372 0.419,-0.355C0.436,-0.337 0.449,-0.317 0.458,-0.294C0.467,-0.27 0.472,-0.243 0.472,-0.213C0.472,-0.177 0.466,-0.145 0.453,-0.117C0.44,-0.089 0.423,-0.066 0.402,-0.047C0.38,-0.028 0.354,-0.013 0.325,-0.003C0.296,0.007 0.265,0.012 0.232,0.012C0.202,0.012 0.175,0.01 0.151,0.005C0.127,0 0.106,-0.006 0.088,-0.013L0.109,-0.084C0.124,-0.077 0.142,-0.07 0.164,-0.066C0.185,-0.061 0.208,-0.058 0.234,-0.058Z" style="fill:rgb(253,0,0);fill-rule:nonzero;"/>
            </g>
            <g transform="matrix(36,0,0,36,13803.5,16411.3)">
                <path d="M0.108,-0.074L0.248,-0.074L0.248,-0.558L0.258,-0.617L0.218,-0.57L0.108,-0.491L0.07,-0.542L0.29,-0.712L0.326,-0.712L0.326,-0.074L0.463,-0.074L0.463,-0L0.108,-0L0.108,-0.074Z" style="fill:rgb(0,140,255);fill-rule:nonzero;"/>
            </g>
        </g>
        <g transform="matrix(1,0,0,1,-13551,-16192.8)">
            <g transform="matrix(36,0,0,36,13783.9,16411.3)">
                <path d="M0.446,-0.541C0.446,-0.506 0.44,-0.47 0.427,-0.433C0.413,-0.396 0.397,-0.358 0.376,-0.321C0.355,-0.284 0.331,-0.247 0.305,-0.212C0.279,-0.176 0.253,-0.142 0.227,-0.11L0.178,-0.067L0.178,-0.063L0.242,-0.074L0.46,-0.074L0.46,-0L0.062,-0L0.062,-0.029C0.077,-0.044 0.094,-0.063 0.115,-0.086C0.136,-0.109 0.157,-0.134 0.18,-0.162C0.202,-0.189 0.224,-0.219 0.246,-0.25C0.267,-0.28 0.287,-0.312 0.305,-0.344C0.322,-0.376 0.336,-0.408 0.347,-0.439C0.358,-0.47 0.363,-0.5 0.363,-0.528C0.363,-0.561 0.354,-0.588 0.335,-0.61C0.316,-0.631 0.288,-0.642 0.25,-0.642C0.225,-0.642 0.2,-0.637 0.176,-0.627C0.152,-0.616 0.131,-0.604 0.114,-0.591L0.081,-0.648C0.104,-0.668 0.132,-0.684 0.164,-0.695C0.196,-0.706 0.23,-0.712 0.267,-0.712C0.296,-0.712 0.321,-0.708 0.343,-0.7C0.365,-0.691 0.384,-0.679 0.399,-0.664C0.414,-0.649 0.426,-0.631 0.434,-0.61C0.442,-0.588 0.446,-0.566 0.446,-0.541Z" style="fill:rgb(253,0,0);fill-rule:nonzero;"/>
            </g>
            <g transform="matrix(36,0,0,36,13803.5,16411.3)">
                <path d="M0.043,-0.35C0.043,-0.47 0.063,-0.56 0.102,-0.621C0.14,-0.682 0.197,-0.712 0.272,-0.712C0.353,-0.712 0.411,-0.682 0.448,-0.623C0.484,-0.563 0.502,-0.472 0.502,-0.35C0.502,-0.23 0.483,-0.14 0.444,-0.079C0.405,-0.018 0.347,0.012 0.272,0.012C0.193,0.012 0.135,-0.02 0.098,-0.083C0.061,-0.146 0.043,-0.235 0.043,-0.35ZM0.126,-0.35C0.126,-0.307 0.129,-0.267 0.135,-0.232C0.14,-0.196 0.149,-0.165 0.161,-0.14C0.173,-0.114 0.188,-0.094 0.207,-0.08C0.225,-0.065 0.247,-0.058 0.272,-0.058C0.323,-0.058 0.36,-0.082 0.384,-0.129C0.407,-0.175 0.419,-0.249 0.419,-0.35C0.419,-0.393 0.417,-0.432 0.412,-0.468C0.407,-0.504 0.398,-0.535 0.387,-0.561C0.375,-0.587 0.36,-0.607 0.341,-0.621C0.322,-0.635 0.299,-0.642 0.272,-0.642C0.222,-0.642 0.185,-0.618 0.162,-0.571C0.138,-0.524 0.126,-0.45 0.126,-0.35Z" style="fill:rgb(0,140,255);fill-rule:nonzero;"/>
            </g>
        </g>
        <g transform="matrix(1,0,0,1,-13551,-16290)">
            <g transform="matrix(36,0,0,36,13783.9,16411.3)">
                <path d="M0.446,-0.541C0.446,-0.506 0.44,-0.47 0.427,-0.433C0.413,-0.396 0.397,-0.358 0.376,-0.321C0.355,-0.284 0.331,-0.247 0.305,-0.212C0.279,-0.176 0.253,-0.142 0.227,-0.11L0.178,-0.067L0.178,-0.063L0.242,-0.074L0.46,-0.074L0.46,-0L0.062,-0L0.062,-0.029C0.077,-0.044 0.094,-0.063 0.115,-0.086C0.136,-0.109 0.157,-0.134 0.18,-0.162C0.202,-0.189 0.224,-0.219 0.246,-0.25C0.267,-0.28 0.287,-0.312 0.305,-0.344C0.322,-0.376 0.336,-0.408 0.347,-0.439C0.358,-0.47 0.363,-0.5 0.363,-0.528C0.363,-0.561 0.354,-0.588 0.335,-0.61C0.316,-0.631 0.288,-0.642 0.25,-0.642C0.225,-0.642 0.2,-0.637 0.176,-0.627C0.152,-0.616 0.131,-0.604 0.114,-0.591L0.081,-0.648C0.104,-0.668 0.132,-0.684 0.164,-0.695C0.196,-0.706 0.23,-0.712 0.267,-0.712C0.296,-0.712 0.321,-0.708 0.343,-0.7C0.365,-0.691 0.384,-0.679 0.399,-0.664C0.414,-0.649 0.426,-0.631 0.434,-0.61C0.442,-0.588 0.446,-0.566 0.446,-0.541Z" style="fill:rgb(253,0,0);fill-rule:nonzero;"/>
            </g>
            <g transform="matrix(36,0,0,36,13803.5,16411.3)">
                <path d="M0.108,-0.074L0.248,-0.074L0.248,-0.558L0.258,-0.617L0.218,-0.57L0.108,-0.491L0.07,-0.542L0.29,-0.712L0.326,-0.712L0.326,-0.074L0.463,-0.074L0.463,-0L0.108,-0L0.108,-0.074Z" style="fill:rgb(0,140,255);fill-rule:nonzero;"/>
            </g>
        </g>
        <g transform="matrix(1,0,0,1,-13452.6,-15994.4)">
            <g transform="matrix(36,0,0,36,13783.9,16411.3)">
                <path d="M0.234,-0.058C0.257,-0.058 0.278,-0.061 0.297,-0.068C0.316,-0.075 0.333,-0.085 0.347,-0.098C0.361,-0.111 0.372,-0.126 0.38,-0.144C0.388,-0.162 0.392,-0.182 0.392,-0.203C0.392,-0.25 0.378,-0.284 0.351,-0.307C0.323,-0.33 0.285,-0.341 0.236,-0.341L0.162,-0.341L0.162,-0.37L0.306,-0.592L0.352,-0.636L0.287,-0.626L0.089,-0.626L0.089,-0.7L0.446,-0.7L0.446,-0.671L0.287,-0.432L0.252,-0.403L0.252,-0.401L0.286,-0.408C0.313,-0.407 0.337,-0.403 0.36,-0.394C0.383,-0.385 0.402,-0.372 0.419,-0.355C0.436,-0.337 0.449,-0.317 0.458,-0.294C0.467,-0.27 0.472,-0.243 0.472,-0.213C0.472,-0.177 0.466,-0.145 0.453,-0.117C0.44,-0.089 0.423,-0.066 0.402,-0.047C0.38,-0.028 0.354,-0.013 0.325,-0.003C0.296,0.007 0.265,0.012 0.232,0.012C0.202,0.012 0.175,0.01 0.151,0.005C0.127,0 0.106,-0.006 0.088,-0.013L0.109,-0.084C0.124,-0.077 0.142,-0.07 0.164,-0.066C0.185,-0.061 0.208,-0.058 0.234,-0.058Z" style="fill:rgb(253,0,0);fill-rule:nonzero;"/>
            </g>
            <g transform="matrix(36,0,0,36,13803.5,16411.3)">
                <path d="M0.234,-0.058C0.257,-0.058 0.278,-0.061 0.297,-0.068C0.316,-0.075 0.333,-0.085 0.347,-0.098C0.361,-0.111 0.372,-0.126 0.38,-0.144C0.388,-0.162 0.392,-0.182 0.392,-0.203C0.392,-0.25 0.378,-0.284 0.351,-0.307C0.323,-0.33 0.285,-0.341 0.236,-0.341L0.162,-0.341L0.162,-0.37L0.306,-0.592L0.352,-0.636L0.287,-0.626L0.089,-0.626L0.089,-0.7L0.446,-0.7L0.446,-0.671L0.287,-0.432L0.252,-0.403L0.252,-0.401L0.286,-0.408C0.313,-0.407 0.337,-0.403 0.36,-0.394C0.383,-0.385 0.402,-0.372 0.419,-0.355C0.436,-0.337 0.449,-0.317 0.458,-0.294C0.467,-0.27 0.472,-0.243 0.472,-0.213C0.472,-0.177 0.466,-0.145 0.453,-0.117C0.44,-0.089 0.423,-0.066 0.402,-0.047C0.38,-0.028 0.354,-0.013 0.325,-0.003C0.296,0.007 0.265,0.012 0.232,0.012C0.202,0.012 0.175,0.01 0.151,0.005C0.127,0 0.106,-0.006 0.088,-0.013L0.109,-0.084C0.124,-0.077 0.142,-0.07 0.164,-0.066C0.185,-0.061 0.208,-0.058 0.234,-0.058Z" style="fill:rgb(0,140,255);fill-rule:nonzero;"/>
            </g>
        </g>
        <g transform="matrix(1,0,0,1,-13452.6,-16093.6)">
            <g transform="matrix(36,0,0,36,13783.9,16411.3)">
                <path d="M0.234,-0.058C0.257,-0.058 0.278,-0.061 0.297,-0.068C0.316,-0.075 0.333,-0.085 0.347,-0.098C0.361,-0.111 0.372,-0.126 0.38,-0.144C0.388,-0.162 0.392,-0.182 0.392,-0.203C0.392,-0.25 0.378,-0.284 0.351,-0.307C0.323,-0.33 0.285,-0.341 0.236,-0.341L0.162,-0.341L0.162,-0.37L0.306,-0.592L0.352,-0.636L0.287,-0.626L0.089,-0.626L0.089,-0.7L0.446,-0.7L0.446,-0.671L0.287,-0.432L0.252,-0.403L0.252,-0.401L0.286,-0.408C0.313,-0.407 0.337,-0.403 0.36,-0.394C0.383,-0.385 0.402,-0.372 0.419,-0.355C0.436,-0.337 0.449,-0.317 0.458,-0.294C0.467,-0.27 0.472,-0.243 0.472,-0.213C0.472,-0.177 0.466,-0.145 0.453,-0.117C0.44,-0.089 0.423,-0.066 0.402,-0.047C0.38,-0.028 0.354,-0.013 0.325,-0.003C0.296,0.007 0.265,0.012 0.232,0.012C0.202,0.012 0.175,0.01 0.151,0.005C0.127,0 0.106,-0.006 0.088,-0.013L0.109,-0.084C0.124,-0.077 0.142,-0.07 0.164,-0.066C0.185,-0.061 0.208,-0.058 0.234,-0.058Z" style="fill:rgb(253,0,0);fill-rule:nonzero;"/>
            </g>
            <g transform="matrix(36,0,0,36,13803.5,16411.3)">
                <path d="M0.446,-0.541C0.446,-0.506 0.44,-0.47 0.427,-0.433C0.413,-0.396 0.397,-0.358 0.376,-0.321C0.355,-0.284 0.331,-0.247 0.305,-0.212C0.279,-0.176 0.253,-0.142 0.227,-0.11L0.178,-0.067L0.178,-0.063L0.242,-0.074L0.46,-0.074L0.46,-0L0.062,-0L0.062,-0.029C0.077,-0.044 0.094,-0.063 0.115,-0.086C0.136,-0.109 0.157,-0.134 0.18,-0.162C0.202,-0.189 0.224,-0.219 0.246,-0.25C0.267,-0.28 0.287,-0.312 0.305,-0.344C0.322,-0.376 0.336,-0.408 0.347,-0.439C0.358,-0.47 0.363,-0.5 0.363,-0.528C0.363,-0.561 0.354,-0.588 0.335,-0.61C0.316,-0.631 0.288,-0.642 0.25,-0.642C0.225,-0.642 0.2,-0.637 0.176,-0.627C0.152,-0.616 0.131,-0.604 0.114,-0.591L0.081,-0.648C0.104,-0.668 0.132,-0.684 0.164,-0.695C0.196,-0.706 0.23,-0.712 0.267,-0.712C0.296,-0.712 0.321,-0.708 0.343,-0.7C0.365,-0.691 0.384,-0.679 0.399,-0.664C0.414,-0.649 0.426,-0.631 0.434,-0.61C0.442,-0.588 0.446,-0.566 0.446,-0.541Z" style="fill:rgb(0,140,255);fill-rule:nonzero;"/>
            </g>
        </g>
        <g transform="matrix(1,0,0,1,-13452.6,-16192.8)">
            <g transform="matrix(36,0,0,36,13783.9,16411.3)">
                <path d="M0.446,-0.541C0.446,-0.506 0.44,-0.47 0.427,-0.433C0.413,-0.396 0.397,-0.358 0.376,-0.321C0.355,-0.284 0.331,-0.247 0.305,-0.212C0.279,-0.176 0.253,-0.142 0.227,-0.11L0.178,-0.067L0.178,-0.063L0.242,-0.074L0.46,-0.074L0.46,-0L0.062,-0L0.062,-0.029C0.077,-0.044 0.094,-0.063 0.115,-0.086C0.136,-0.109 0.157,-0.134 0.18,-0.162C0.202,-0.189 0.224,-0.219 0.246,-0.25C0.267,-0.28 0.287,-0.312 0.305,-0.344C0.322,-0.376 0.336,-0.408 0.347,-0.439C0.358,-0.47 0.363,-0.5 0.363,-0.528C0.363,-0.561 0.354,-0.588 0.335,-0.61C0.316,-0.631 0.288,-0.642 0.25,-0.642C0.225,-0.642 0.2,-0.637 0.176,-0.627C0.152,-0.616 0.131,-0.604 0.114,-0.591L0.081,-0.648C0.104,-0.668 0.132,-0.684 0.164,-0.695C0.196,-0.706 0.23,-0.712 0.267,-0.712C0.296,-0.712 0.321,-0.708 0.343,-0.7C0.365,-0.691 0.384,-0.679 0.399,-0.664C0.414,-0.649 0.426,-0.631 0.434,-0.61C0.442,-0.588 0.446,-0.566 0.446,-0.541Z" style="fill:rgb(253,0,0);fill-rule:nonzero;"/>
            </g>
            <g transform="matrix(36,0,0,36,13803.5,16411.3)">
                <path d="M0.234,-0.058C0.257,-0.058 0.278,-0.061 0.297,-0.068C0.316,-0.075 0.333,-0.085 0.347,-0.098C0.361,-0.111 0.372,-0.126 0.38,-0.144C0.388,-0.162 0.392,-0.182 0.392,-0.203C0.392,-0.25 0.378,-0.284 0.351,-0.307C0.323,-0.33 0.285,-0.341 0.236,-0.341L0.162,-0.341L0.162,-0.37L0.306,-0.592L0.352,-0.636L0.287,-0.626L0.089,-0.626L0.089,-0.7L0.446,-0.7L0.446,-0.671L0.287,-0.432L0.252,-0.403L0.252,-0.401L0.286,-0.408C0.313,-0.407 0.337,-0.403 0.36,-0.394C0.383,-0.385 0.402,-0.372 0.419,-0.355C0.436,-0.337 0.449,-0.317 0.458,-0.294C0.467,-0.27 0.472,-0.243 0.472,-0.213C0.472,-0.177 0.466,-0.145 0.453,-0.117C0.44,-0.089 0.423,-0.066 0.402,-0.047C0.38,-0.028 0.354,-0.013 0.325,-0.003C0.296,0.007 0.265,0.012 0.232,0.012C0.202,0.012 0.175,0.01 0.151,0.005C0.127,0 0.106,-0.006 0.088,-0.013L0.109,-0.084C0.124,-0.077 0.142,-0.07 0.164,-0.066C0.185,-0.061 0.208,-0.058 0.234,-0.058Z" style="fill:rgb(0,140,255);fill-rule:nonzero;"/>
            </g>
        </g>
        <g transform="matrix(1,0,0,1,-13452.6,-16290)">
            <g transform="matrix(36,0,0,36,13783.9,16411.3)">
                <path d="M0.446,-0.541C0.446,-0.506 0.44,-0.47 0.427,-0.433C0.413,-0.396 0.397,-0.358 0.376,-0.321C0.355,-0.284 0.331,-0.247 0.305,-0.212C0.279,-0.176 0.253,-0.142 0.227,-0.11L0.178,-0.067L0.178,-0.063L0.242,-0.074L0.46,-0.074L0.46,-0L0.062,-0L0.062,-0.029C0.077,-0.044 0.094,-0.063 0.115,-0.086C0.136,-0.109 0.157,-0.134 0.18,-0.162C0.202,-0.189 0.224,-0.219 0.246,-0.25C0.267,-0.28 0.287,-0.312 0.305,-0.344C0.322,-0.376 0.336,-0.408 0.347,-0.439C0.358,-0.47 0.363,-0.5 0.363,-0.528C0.363,-0.561 0.354,-0.588 0.335,-0.61C0.316,-0.631 0.288,-0.642 0.25,-0.642C0.225,-0.642 0.2,-0.637 0.176,-0.627C0.152,-0.616 0.131,-0.604 0.114,-0.591L0.081,-0.648C0.104,-0.668 0.132,-0.684 0.164,-0.695C0.196,-0.706 0.23,-0.712 0.267,-0.712C0.296,-0.712 0.321,-0.708 0.343,-0.7C0.365,-0.691 0.384,-0.679 0.399,-0.664C0.414,-0.649 0.426,-0.631 0.434,-0.61C0.442,-0.588 0.446,-0.566 0.446,-0.541Z" style="fill:rgb(253,0,0);fill-rule:nonzero;"/>
            </g>
            <g transform="matrix(36,0,0,36,13803.5,16411.3)">
                <path d="M0.446,-0.541C0.446,-0.506 0.44,-0.47 0.427,-0.433C0.413,-0.396 0.397,-0.358 0.376,-0.321C0.355,-0.284 0.331,-0.247 0.305,-0.212C0.279,-0.176 0.253,-0.142 0.227,-0.11L0.178,-0.067L0.178,-0.063L0.242,-0.074L0.46,-0.074L0.46,-0L0.062,-0L0.062,-0.029C0.077,-0.044 0.094,-0.063 0.115,-0.086C0.136,-0.109 0.157,-0.134 0.18,-0.162C0.202,-0.189 0.224,-0.219 0.246,-0.25C0.267,-0.28 0.287,-0.312 0.305,-0.344C0.322,-0.376 0.336,-0.408 0.347,-0.439C0.358,-0.47 0.363,-0.5 0.363,-0.528C0.363,-0.561 0.354,-0.588 0.335,-0.61C0.316,-0.631 0.288,-0.642 0.25,-0.642C0.225,-0.642 0.2,-0.637 0.176,-0.627C0.152,-0.616 0.131,-0.604 0.114,-0.591L0.081,-0.648C0.104,-0.668 0.132,-0.684 0.164,-0.695C0.196,-0.706 0.23,-0.712 0.267,-0.712C0.296,-0.712 0.321,-0.708 0.343,-0.7C0.365,-0.691 0.384,-0.679 0.399,-0.664C0.414,-0.649 0.426,-0.631 0.434,-0.61C0.442,-0.588 0.446,-0.566 0.446,-0.541Z" style="fill:rgb(0,140,255);fill-rule:nonzero;"/>
            </g>
        </g>
        <path d="M235.248,28.128L240.808,28.128L240.808,12.328L241.408,9.608L239.488,11.968L235.928,14.408L233.728,11.408L242.848,4.048L245.768,4.048L245.768,28.128L251.208,28.128L251.208,32.528L235.248,32.528L235.248,28.128Z" style="fill-rule:nonzero;"/>
        <path d="M255.488,18.488C255.488,13.581 256.328,9.935 258.008,7.548C259.688,5.161 262.102,3.968 265.248,3.968C268.608,3.968 271.075,5.148 272.648,7.508C274.222,9.868 275.008,13.528 275.008,18.488C275.008,23.421 274.162,27.088 272.468,29.488C270.775,31.888 268.355,33.088 265.208,33.088C261.875,33.088 259.422,31.828 257.848,29.308C256.275,26.788 255.488,23.181 255.488,18.488ZM260.688,18.488C260.688,21.741 261.042,24.255 261.748,26.028C262.455,27.801 263.622,28.688 265.248,28.688C266.822,28.688 267.975,27.875 268.708,26.248C269.442,24.621 269.808,22.035 269.808,18.488C269.808,15.261 269.462,12.768 268.768,11.008C268.075,9.248 266.888,8.368 265.208,8.368C263.608,8.368 262.455,9.195 261.748,10.848C261.042,12.501 260.688,15.048 260.688,18.488Z" style="fill-rule:nonzero;"/>
        <path d="M132.754,18.488C132.754,13.581 133.594,9.935 135.274,7.548C136.954,5.161 139.367,3.968 142.514,3.968C145.874,3.968 148.34,5.148 149.914,7.508C151.487,9.868 152.274,13.528 152.274,18.488C152.274,23.421 151.427,27.088 149.734,29.488C148.04,31.888 145.62,33.088 142.474,33.088C139.14,33.088 136.687,31.828 135.114,29.308C133.54,26.788 132.754,23.181 132.754,18.488ZM137.954,18.488C137.954,21.741 138.307,24.255 139.014,26.028C139.72,27.801 140.887,28.688 142.514,28.688C144.087,28.688 145.24,27.875 145.974,26.248C146.707,24.621 147.074,22.035 147.074,18.488C147.074,15.261 146.727,12.768 146.034,11.008C145.34,9.248 144.154,8.368 142.474,8.368C140.874,8.368 139.72,9.195 139.014,10.848C138.307,12.501 137.954,15.048 137.954,18.488Z" style="fill-rule:nonzero;"/>
        <path d="M157.874,28.128L163.434,28.128L163.434,12.328L164.034,9.608L162.114,11.968L158.554,14.408L156.354,11.408L165.474,4.048L168.394,4.048L168.394,28.128L173.834,28.128L173.834,32.528L157.874,32.528L157.874,28.128Z" style="fill-rule:nonzero;"/>
        <path d="M333.154,28.128L338.714,28.128L338.714,12.328L339.314,9.608L337.394,11.968L333.834,14.408L331.634,11.408L340.754,4.048L343.674,4.048L343.674,28.128L349.114,28.128L349.114,32.528L333.154,32.528L333.154,28.128Z" style="fill-rule:nonzero;"/>
        <path d="M355.834,28.128L361.394,28.128L361.394,12.328L361.994,9.608L360.074,11.968L356.514,14.408L354.314,11.408L363.434,4.048L366.354,4.048L366.354,28.128L371.794,28.128L371.794,32.528L355.834,32.528L355.834,28.128Z" style="fill-rule:nonzero;"/>
        <path d="M424.076,215.487L429.636,215.487L429.636,199.687L430.236,196.967L428.316,199.327L424.756,201.767L422.556,198.767L431.676,191.407L434.596,191.407L434.596,215.487L440.036,215.487L440.036,219.887L424.076,219.887L424.076,215.487Z" style="fill-rule:nonzero;"/>
        <path d="M444.316,205.847C444.316,200.941 445.156,197.294 446.836,194.907C448.516,192.521 450.929,191.327 454.076,191.327C457.436,191.327 459.902,192.507 461.476,194.867C463.049,197.227 463.836,200.887 463.836,205.847C463.836,210.781 462.989,214.447 461.296,216.847C459.602,219.247 457.182,220.447 454.036,220.447C450.702,220.447 448.249,219.187 446.676,216.667C445.102,214.147 444.316,210.541 444.316,205.847ZM449.516,205.847C449.516,209.101 449.869,211.614 450.576,213.387C451.282,215.161 452.449,216.047 454.076,216.047C455.649,216.047 456.802,215.234 457.536,213.607C458.269,211.981 458.636,209.394 458.636,205.847C458.636,202.621 458.289,200.127 457.596,198.367C456.902,196.607 455.716,195.727 454.036,195.727C452.436,195.727 451.282,196.554 450.576,198.207C449.869,199.861 449.516,202.407 449.516,205.847Z" style="fill-rule:nonzero;"/>
        <path d="M423.04,305.483C423.04,300.576 423.88,296.929 425.56,294.543C427.24,292.156 429.653,290.963 432.8,290.963C436.16,290.963 438.626,292.143 440.2,294.503C441.773,296.863 442.56,300.523 442.56,305.483C442.56,310.416 441.713,314.083 440.02,316.483C438.326,318.883 435.906,320.083 432.76,320.083C429.426,320.083 426.973,318.823 425.4,316.303C423.826,313.783 423.04,310.176 423.04,305.483ZM428.24,305.483C428.24,308.736 428.593,311.249 429.3,313.023C430.006,314.796 431.173,315.683 432.8,315.683C434.373,315.683 435.526,314.869 436.26,313.243C436.993,311.616 437.36,309.029 437.36,305.483C437.36,302.256 437.013,299.763 436.32,298.003C435.626,296.243 434.44,295.363 432.76,295.363C431.16,295.363 430.006,296.189 429.3,297.843C428.593,299.496 428.24,302.043 428.24,305.483Z" style="fill-rule:nonzero;"/>
        <path d="M448.16,315.123L453.72,315.123L453.72,299.323L454.32,296.603L452.4,298.963L448.84,301.403L446.64,298.403L455.76,291.043L458.68,291.043L458.68,315.123L464.12,315.123L464.12,319.523L448.16,319.523L448.16,315.123Z" style="fill-rule:nonzero;"/>
        <path d="M424.076,116.888L429.636,116.888L429.636,101.088L430.236,98.368L428.316,100.728L424.756,103.168L422.556,100.168L431.676,92.808L434.596,92.808L434.596,116.888L440.036,116.888L440.036,121.288L424.076,121.288L424.076,116.888Z" style="fill-rule:nonzero;"/>
        <path d="M446.756,116.888L452.316,116.888L452.316,101.088L452.916,98.368L450.996,100.728L447.436,103.168L445.236,100.168L454.356,92.808L457.276,92.808L457.276,116.888L462.716,116.888L462.716,121.288L446.756,121.288L446.756,116.888Z" style="fill-rule:nonzero;"/>
        <g id="halos">
        </g>
        <g id="halos1" serif:id="halos">
        </g>
        <g id="digits">
        </g>
        <g id="digits1" serif:id="digits">
        </g>
    </g>
</svg>
