<?xml version="1.0" encoding="UTF-8" standalone="no"?>
<!DOCTYPE svg PUBLIC "-//W3C//DTD SVG 1.1//EN" "http://www.w3.org/Graphics/SVG/1.1/DTD/svg11.dtd">
<svg width="100%" height="100%" viewBox="0 0 472 467" version="1.1" xmlns="http://www.w3.org/2000/svg" xmlns:xlink="http://www.w3.org/1999/xlink" xml:space="preserve" xmlns:serif="http://www.serif.com/" style="fill-rule:evenodd;clip-rule:evenodd;stroke-linejoin:round;stroke-miterlimit:10;">
    <rect id="polygon_triangulation" x="-3176" y="-3278" width="8206" height="4260" style="fill:none;"/>
    <g id="polygon_triangulation1" serif:id="polygon_triangulation">
        <g id="TIN-vertices" serif:id="TIN vertices">
        </g>
        <g id="TIN-edges" serif:id="TIN edges">
        </g>
        <rect x="9.104" y="63.897" width="98.3" height="98.3" style="fill:white;stroke:black;stroke-width:2px;"/>
        <rect x="9.104" y="260.843" width="98.3" height="98.3" style="fill:white;stroke:black;stroke-width:2px;"/>
        <rect x="205.704" y="63.897" width="98.3" height="98.3" style="fill:white;stroke:black;stroke-width:2px;"/>
        <rect x="205.704" y="260.843" width="98.3" height="98.3" style="fill:white;stroke:black;stroke-width:2px;"/>
        <rect x="9.104" y="162.197" width="98.3" height="98.3" style="fill:white;stroke:black;stroke-width:2px;"/>
        <rect x="9.104" y="359.143" width="98.3" height="98.3" style="fill:white;stroke:black;stroke-width:2px;"/>
        <rect x="205.704" y="162.197" width="98.3" height="98.3" style="fill:white;stroke:black;stroke-width:2px;"/>
        <rect x="205.704" y="359.143" width="98.3" height="98.3" style="fill:white;stroke:black;stroke-width:2px;"/>
        <rect x="107.404" y="63.897" width="98.3" height="98.3" style="fill:white;stroke:black;stroke-width:2px;"/>
        <rect x="107.404" y="260.843" width="98.3" height="98.3" style="fill:white;stroke:black;stroke-width:2px;"/>
        <rect x="304.004" y="63.897" width="98.3" height="98.3" style="fill:white;stroke:black;stroke-width:2px;"/>
        <rect x="304.004" y="260.843" width="98.3" height="98.3" style="fill:white;stroke:black;stroke-width:2px;"/>
        <rect x="107.404" y="162.197" width="98.3" height="98.3" style="fill:white;stroke:black;stroke-width:2px;"/>
        <rect x="107.404" y="359.143" width="98.3" height="98.3" style="fill:white;stroke:black;stroke-width:2px;"/>
        <rect x="304.004" y="162.197" width="98.3" height="98.3" style="fill:white;stroke:black;stroke-width:2px;"/>
        <rect x="304.004" y="359.143" width="98.3" height="98.3" style="fill:white;stroke:black;stroke-width:2px;"/>
        <path d="M422.806,407.253C422.806,402.346 423.646,398.7 425.326,396.313C427.006,393.926 429.42,392.733 432.566,392.733C435.926,392.733 438.393,393.913 439.966,396.273C441.54,398.633 442.326,402.293 442.326,407.253C442.326,412.186 441.48,415.853 439.786,418.253C438.093,420.653 435.673,421.853 432.526,421.853C429.193,421.853 426.74,420.593 425.166,418.073C423.593,415.553 422.806,411.946 422.806,407.253ZM428.006,407.253C428.006,410.506 428.36,413.02 429.066,414.793C429.773,416.566 430.94,417.453 432.566,417.453C434.14,417.453 435.293,416.64 436.026,415.013C436.76,413.386 437.126,410.8 437.126,407.253C437.126,404.026 436.78,401.533 436.086,399.773C435.393,398.013 434.206,397.133 432.526,397.133C430.926,397.133 429.773,397.96 429.066,399.613C428.36,401.266 428.006,403.813 428.006,407.253Z" style="fill-rule:nonzero;"/>
        <path d="M445.486,407.253C445.486,402.346 446.326,398.7 448.006,396.313C449.686,393.926 452.1,392.733 455.246,392.733C458.606,392.733 461.073,393.913 462.646,396.273C464.22,398.633 465.006,402.293 465.006,407.253C465.006,412.186 464.16,415.853 462.466,418.253C460.773,420.653 458.353,421.853 455.206,421.853C451.873,421.853 449.42,420.593 447.846,418.073C446.273,415.553 445.486,411.946 445.486,407.253ZM450.686,407.253C450.686,410.506 451.04,413.02 451.746,414.793C452.453,416.566 453.62,417.453 455.246,417.453C456.82,417.453 457.973,416.64 458.706,415.013C459.44,413.386 459.806,410.8 459.806,407.253C459.806,404.026 459.46,401.533 458.766,399.773C458.073,398.013 456.886,397.133 455.206,397.133C453.606,397.133 452.453,397.96 451.746,399.613C451.04,401.266 450.686,403.813 450.686,407.253Z" style="fill-rule:nonzero;"/>
        <path d="M36.019,22.549C36.019,17.642 36.859,13.995 38.539,11.609C40.219,9.222 42.632,8.029 45.779,8.029C49.139,8.029 51.606,9.209 53.179,11.569C54.752,13.929 55.539,17.589 55.539,22.549C55.539,27.482 54.692,31.149 52.999,33.549C51.306,35.949 48.886,37.149 45.739,37.149C42.406,37.149 39.952,35.889 38.379,33.369C36.806,30.849 36.019,27.242 36.019,22.549ZM41.219,22.549C41.219,25.802 41.572,28.315 42.279,30.089C42.986,31.862 44.152,32.749 45.779,32.749C47.352,32.749 48.506,31.935 49.239,30.309C49.972,28.682 50.339,26.095 50.339,22.549C50.339,19.322 49.992,16.829 49.299,15.069C48.606,13.309 47.419,12.429 45.739,12.429C44.139,12.429 42.986,13.255 42.279,14.909C41.572,16.562 41.219,19.109 41.219,22.549Z" style="fill-rule:nonzero;"/>
        <path d="M58.699,22.549C58.699,17.642 59.539,13.995 61.219,11.609C62.899,9.222 65.312,8.029 68.459,8.029C71.819,8.029 74.286,9.209 75.859,11.569C77.432,13.929 78.219,17.589 78.219,22.549C78.219,27.482 77.372,31.149 75.679,33.549C73.986,35.949 71.566,37.149 68.419,37.149C65.086,37.149 62.632,35.889 61.059,33.369C59.486,30.849 58.699,27.242 58.699,22.549ZM63.899,22.549C63.899,25.802 64.252,28.315 64.959,30.089C65.666,31.862 66.832,32.749 68.459,32.749C70.032,32.749 71.186,31.935 71.919,30.309C72.652,28.682 73.019,26.095 73.019,22.549C73.019,19.322 72.672,16.829 71.979,15.069C71.286,13.309 70.099,12.429 68.419,12.429C66.819,12.429 65.666,13.255 64.959,14.909C64.252,16.562 63.899,19.109 63.899,22.549Z" style="fill-rule:nonzero;"/>
        <path d="M33.27,408.293C33.27,403.973 33.972,400.721 35.376,398.537C36.78,396.353 38.826,395.261 41.514,395.261C44.418,395.261 46.524,396.335 47.832,398.483C49.14,400.631 49.794,403.901 49.794,408.293C49.794,412.613 49.092,415.865 47.688,418.049C46.284,420.233 44.226,421.325 41.514,421.325C38.658,421.325 36.57,420.185 35.25,417.905C33.93,415.625 33.27,412.421 33.27,408.293ZM36.258,408.293C36.258,409.853 36.36,411.275 36.564,412.559C36.768,413.843 37.086,414.947 37.518,415.871C37.95,416.795 38.496,417.515 39.156,418.031C39.816,418.547 40.602,418.805 41.514,418.805C43.338,418.805 44.676,417.959 45.528,416.267C46.38,414.575 46.806,411.917 46.806,408.293C46.806,406.757 46.716,405.341 46.536,404.045C46.356,402.749 46.056,401.633 45.636,400.697C45.216,399.761 44.67,399.041 43.998,398.537C43.326,398.033 42.498,397.781 41.514,397.781C39.714,397.781 38.388,398.633 37.536,400.337C36.684,402.041 36.258,404.693 36.258,408.293Z" style="fill-rule:nonzero;"/>
        <path d="M53.106,419.345C53.106,418.769 53.298,418.301 53.682,417.941C54.066,417.581 54.558,417.401 55.158,417.401C55.902,417.401 56.508,417.665 56.976,418.193C57.444,418.721 57.678,419.489 57.678,420.497C57.678,421.361 57.558,422.117 57.318,422.765C57.078,423.413 56.766,423.971 56.382,424.439C55.998,424.907 55.578,425.291 55.122,425.591C54.666,425.891 54.21,426.113 53.754,426.257L52.854,424.853C53.718,424.517 54.36,423.995 54.78,423.287C55.2,422.579 55.41,421.865 55.41,421.145C55.194,421.217 54.99,421.253 54.798,421.253C54.318,421.253 53.916,421.091 53.592,420.767C53.268,420.443 53.106,419.969 53.106,419.345Z" style="fill-rule:nonzero;"/>
        <path d="M66.714,408.293C66.714,403.973 67.416,400.721 68.82,398.537C70.224,396.353 72.27,395.261 74.958,395.261C77.862,395.261 79.968,396.335 81.276,398.483C82.584,400.631 83.238,403.901 83.238,408.293C83.238,412.613 82.536,415.865 81.132,418.049C79.728,420.233 77.67,421.325 74.958,421.325C72.102,421.325 70.014,420.185 68.694,417.905C67.374,415.625 66.714,412.421 66.714,408.293ZM69.702,408.293C69.702,409.853 69.804,411.275 70.008,412.559C70.212,413.843 70.53,414.947 70.962,415.871C71.394,416.795 71.94,417.515 72.6,418.031C73.26,418.547 74.046,418.805 74.958,418.805C76.782,418.805 78.12,417.959 78.972,416.267C79.824,414.575 80.25,411.917 80.25,408.293C80.25,406.757 80.16,405.341 79.98,404.045C79.8,402.749 79.5,401.633 79.08,400.697C78.66,399.761 78.114,399.041 77.442,398.537C76.77,398.033 75.942,397.781 74.958,397.781C73.158,397.781 71.832,398.633 70.98,400.337C70.128,402.041 69.702,404.693 69.702,408.293Z" style="fill-rule:nonzero;"/>
        <path d="M33.27,309.165C33.27,304.845 33.972,301.593 35.376,299.409C36.78,297.225 38.826,296.133 41.514,296.133C44.418,296.133 46.524,297.207 47.832,299.355C49.14,301.503 49.794,304.773 49.794,309.165C49.794,313.485 49.092,316.737 47.688,318.921C46.284,321.105 44.226,322.197 41.514,322.197C38.658,322.197 36.57,321.057 35.25,318.777C33.93,316.497 33.27,313.293 33.27,309.165ZM36.258,309.165C36.258,310.725 36.36,312.147 36.564,313.431C36.768,314.715 37.086,315.819 37.518,316.743C37.95,317.667 38.496,318.387 39.156,318.903C39.816,319.419 40.602,319.677 41.514,319.677C43.338,319.677 44.676,318.831 45.528,317.139C46.38,315.447 46.806,312.789 46.806,309.165C46.806,307.629 46.716,306.213 46.536,304.917C46.356,303.621 46.056,302.505 45.636,301.569C45.216,300.633 44.67,299.913 43.998,299.409C43.326,298.905 42.498,298.653 41.514,298.653C39.714,298.653 38.388,299.505 37.536,301.209C36.684,302.913 36.258,305.565 36.258,309.165Z" style="fill-rule:nonzero;"/>
        <path d="M53.106,320.217C53.106,319.641 53.298,319.173 53.682,318.813C54.066,318.453 54.558,318.273 55.158,318.273C55.902,318.273 56.508,318.537 56.976,319.065C57.444,319.593 57.678,320.361 57.678,321.369C57.678,322.233 57.558,322.989 57.318,323.637C57.078,324.285 56.766,324.843 56.382,325.311C55.998,325.779 55.578,326.163 55.122,326.463C54.666,326.763 54.21,326.985 53.754,327.129L52.854,325.725C53.718,325.389 54.36,324.867 54.78,324.159C55.2,323.451 55.41,322.737 55.41,322.017C55.194,322.089 54.99,322.125 54.798,322.125C54.318,322.125 53.916,321.963 53.592,321.639C53.268,321.315 53.106,320.841 53.106,320.217Z" style="fill-rule:nonzero;"/>
        <path d="M69.054,319.101L74.094,319.101L74.094,301.677L74.454,299.553L73.014,301.245L69.054,304.089L67.686,302.253L75.606,296.133L76.902,296.133L76.902,319.101L81.834,319.101L81.834,321.765L69.054,321.765L69.054,319.101Z" style="fill-rule:nonzero;"/>
        <path d="M35.61,219.868L40.65,219.868L40.65,202.444L41.01,200.32L39.57,202.012L35.61,204.856L34.242,203.02L42.162,196.9L43.458,196.9L43.458,219.868L48.39,219.868L48.39,222.532L35.61,222.532L35.61,219.868Z" style="fill-rule:nonzero;"/>
        <path d="M53.106,220.984C53.106,220.408 53.298,219.94 53.682,219.58C54.066,219.22 54.558,219.04 55.158,219.04C55.902,219.04 56.508,219.304 56.976,219.832C57.444,220.36 57.678,221.128 57.678,222.136C57.678,223 57.558,223.756 57.318,224.404C57.078,225.052 56.766,225.61 56.382,226.078C55.998,226.546 55.578,226.93 55.122,227.23C54.666,227.53 54.21,227.752 53.754,227.896L52.854,226.492C53.718,226.156 54.36,225.634 54.78,224.926C55.2,224.218 55.41,223.504 55.41,222.784C55.194,222.856 54.99,222.892 54.798,222.892C54.318,222.892 53.916,222.73 53.592,222.406C53.268,222.082 53.106,221.608 53.106,220.984Z" style="fill-rule:nonzero;"/>
        <path d="M66.714,209.932C66.714,205.612 67.416,202.36 68.82,200.176C70.224,197.992 72.27,196.9 74.958,196.9C77.862,196.9 79.968,197.974 81.276,200.122C82.584,202.27 83.238,205.54 83.238,209.932C83.238,214.252 82.536,217.504 81.132,219.688C79.728,221.872 77.67,222.964 74.958,222.964C72.102,222.964 70.014,221.824 68.694,219.544C67.374,217.264 66.714,214.06 66.714,209.932ZM69.702,209.932C69.702,211.492 69.804,212.914 70.008,214.198C70.212,215.482 70.53,216.586 70.962,217.51C71.394,218.434 71.94,219.154 72.6,219.67C73.26,220.186 74.046,220.444 74.958,220.444C76.782,220.444 78.12,219.598 78.972,217.906C79.824,216.214 80.25,213.556 80.25,209.932C80.25,208.396 80.16,206.98 79.98,205.684C79.8,204.388 79.5,203.272 79.08,202.336C78.66,201.4 78.114,200.68 77.442,200.176C76.77,199.672 75.942,199.42 74.958,199.42C73.158,199.42 71.832,200.272 70.98,201.976C70.128,203.68 69.702,206.332 69.702,209.932Z" style="fill-rule:nonzero;"/>
        <path d="M35.61,122.684L40.65,122.684L40.65,105.26L41.01,103.136L39.57,104.828L35.61,107.672L34.242,105.836L42.162,99.716L43.458,99.716L43.458,122.684L48.39,122.684L48.39,125.348L35.61,125.348L35.61,122.684Z" style="fill-rule:nonzero;"/>
        <path d="M53.106,123.8C53.106,123.224 53.298,122.756 53.682,122.396C54.066,122.036 54.558,121.856 55.158,121.856C55.902,121.856 56.508,122.12 56.976,122.648C57.444,123.176 57.678,123.944 57.678,124.952C57.678,125.816 57.558,126.572 57.318,127.22C57.078,127.868 56.766,128.426 56.382,128.894C55.998,129.362 55.578,129.746 55.122,130.046C54.666,130.346 54.21,130.568 53.754,130.712L52.854,129.308C53.718,128.972 54.36,128.45 54.78,127.742C55.2,127.034 55.41,126.32 55.41,125.6C55.194,125.672 54.99,125.708 54.798,125.708C54.318,125.708 53.916,125.546 53.592,125.222C53.268,124.898 53.106,124.424 53.106,123.8Z" style="fill-rule:nonzero;"/>
        <path d="M69.054,122.684L74.094,122.684L74.094,105.26L74.454,103.136L73.014,104.828L69.054,107.672L67.686,105.836L75.606,99.716L76.902,99.716L76.902,122.684L81.834,122.684L81.834,125.348L69.054,125.348L69.054,122.684Z" style="fill-rule:nonzero;"/>
        <path d="M130.585,408.293C130.585,403.973 131.287,400.721 132.691,398.537C134.095,396.353 136.141,395.261 138.829,395.261C141.733,395.261 143.839,396.335 145.147,398.483C146.455,400.631 147.109,403.901 147.109,408.293C147.109,412.613 146.407,415.865 145.003,418.049C143.599,420.233 141.541,421.325 138.829,421.325C135.973,421.325 133.885,420.185 132.565,417.905C131.245,415.625 130.585,412.421 130.585,408.293ZM133.573,408.293C133.573,409.853 133.675,411.275 133.879,412.559C134.083,413.843 134.401,414.947 134.833,415.871C135.265,416.795 135.811,417.515 136.471,418.031C137.131,418.547 137.917,418.805 138.829,418.805C140.653,418.805 141.991,417.959 142.843,416.267C143.695,414.575 144.121,411.917 144.121,408.293C144.121,406.757 144.031,405.341 143.851,404.045C143.671,402.749 143.371,401.633 142.951,400.697C142.531,399.761 141.985,399.041 141.313,398.537C140.641,398.033 139.813,397.781 138.829,397.781C137.029,397.781 135.703,398.633 134.851,400.337C133.999,402.041 133.573,404.693 133.573,408.293Z" style="fill-rule:nonzero;"/>
        <path d="M150.421,419.345C150.421,418.769 150.613,418.301 150.997,417.941C151.381,417.581 151.873,417.401 152.473,417.401C153.217,417.401 153.823,417.665 154.291,418.193C154.759,418.721 154.993,419.489 154.993,420.497C154.993,421.361 154.873,422.117 154.633,422.765C154.393,423.413 154.081,423.971 153.697,424.439C153.313,424.907 152.893,425.291 152.437,425.591C151.981,425.891 151.525,426.113 151.069,426.257L150.169,424.853C151.033,424.517 151.675,423.995 152.095,423.287C152.515,422.579 152.725,421.865 152.725,421.145C152.509,421.217 152.305,421.253 152.113,421.253C151.633,421.253 151.231,421.091 150.907,420.767C150.583,420.443 150.421,419.969 150.421,419.345Z" style="fill-rule:nonzero;"/>
        <path d="M170.905,418.805C171.721,418.805 172.477,418.685 173.173,418.445C173.869,418.205 174.469,417.851 174.973,417.383C175.477,416.915 175.873,416.357 176.161,415.709C176.449,415.061 176.593,414.353 176.593,413.585C176.593,411.905 176.095,410.657 175.099,409.841C174.103,409.025 172.729,408.617 170.977,408.617L168.313,408.617L168.313,407.573L173.497,399.581L175.153,397.997L172.813,398.357L165.685,398.357L165.685,395.693L178.537,395.693L178.537,396.737L172.813,405.341L171.553,406.385L171.553,406.457L172.777,406.205C173.737,406.229 174.625,406.403 175.441,406.727C176.257,407.051 176.965,407.519 177.565,408.131C178.165,408.743 178.633,409.475 178.969,410.327C179.305,411.179 179.473,412.145 179.473,413.225C179.473,414.521 179.245,415.673 178.789,416.681C178.333,417.689 177.715,418.535 176.935,419.219C176.155,419.903 175.237,420.425 174.181,420.785C173.125,421.145 172.009,421.325 170.833,421.325C169.753,421.325 168.781,421.241 167.917,421.073C167.053,420.905 166.297,420.689 165.649,420.425L166.405,417.869C166.957,418.133 167.611,418.355 168.367,418.535C169.123,418.715 169.969,418.805 170.905,418.805Z" style="fill-rule:nonzero;"/>
        <path d="M130.585,309.165C130.585,304.845 131.287,301.593 132.691,299.409C134.095,297.225 136.141,296.133 138.829,296.133C141.733,296.133 143.839,297.207 145.147,299.355C146.455,301.503 147.109,304.773 147.109,309.165C147.109,313.485 146.407,316.737 145.003,318.921C143.599,321.105 141.541,322.197 138.829,322.197C135.973,322.197 133.885,321.057 132.565,318.777C131.245,316.497 130.585,313.293 130.585,309.165ZM133.573,309.165C133.573,310.725 133.675,312.147 133.879,313.431C134.083,314.715 134.401,315.819 134.833,316.743C135.265,317.667 135.811,318.387 136.471,318.903C137.131,319.419 137.917,319.677 138.829,319.677C140.653,319.677 141.991,318.831 142.843,317.139C143.695,315.447 144.121,312.789 144.121,309.165C144.121,307.629 144.031,306.213 143.851,304.917C143.671,303.621 143.371,302.505 142.951,301.569C142.531,300.633 141.985,299.913 141.313,299.409C140.641,298.905 139.813,298.653 138.829,298.653C137.029,298.653 135.703,299.505 134.851,301.209C133.999,302.913 133.573,305.565 133.573,309.165Z" style="fill-rule:nonzero;"/>
        <path d="M150.421,320.217C150.421,319.641 150.613,319.173 150.997,318.813C151.381,318.453 151.873,318.273 152.473,318.273C153.217,318.273 153.823,318.537 154.291,319.065C154.759,319.593 154.993,320.361 154.993,321.369C154.993,322.233 154.873,322.989 154.633,323.637C154.393,324.285 154.081,324.843 153.697,325.311C153.313,325.779 152.893,326.163 152.437,326.463C151.981,326.763 151.525,326.985 151.069,327.129L150.169,325.725C151.033,325.389 151.675,324.867 152.095,324.159C152.515,323.451 152.725,322.737 152.725,322.017C152.509,322.089 152.305,322.125 152.113,322.125C151.633,322.125 151.231,321.963 150.907,321.639C150.583,321.315 150.421,320.841 150.421,320.217Z" style="fill-rule:nonzero;"/>
        <path d="M178.537,302.289C178.537,303.561 178.303,304.863 177.835,306.195C177.367,307.527 176.755,308.865 175.999,310.209C175.243,311.553 174.397,312.867 173.461,314.151C172.525,315.435 171.589,316.653 170.653,317.805L168.889,319.353L168.889,319.497L171.193,319.101L179.041,319.101L179.041,321.765L164.713,321.765L164.713,320.721C165.241,320.169 165.877,319.485 166.621,318.669C167.365,317.853 168.139,316.947 168.943,315.951C169.747,314.955 170.539,313.899 171.319,312.783C172.099,311.667 172.807,310.533 173.443,309.381C174.079,308.229 174.589,307.089 174.973,305.961C175.357,304.833 175.549,303.765 175.549,302.757C175.549,301.581 175.213,300.603 174.541,299.823C173.869,299.043 172.849,298.653 171.481,298.653C170.569,298.653 169.681,298.839 168.817,299.211C167.953,299.583 167.209,300.009 166.585,300.489L165.397,298.437C166.237,297.717 167.233,297.153 168.385,296.745C169.537,296.337 170.773,296.133 172.093,296.133C173.125,296.133 174.037,296.283 174.829,296.583C175.621,296.883 176.293,297.309 176.845,297.861C177.397,298.413 177.817,299.067 178.105,299.823C178.393,300.579 178.537,301.401 178.537,302.289Z" style="fill-rule:nonzero;"/>
        <path d="M132.925,219.868L137.965,219.868L137.965,202.444L138.325,200.32L136.885,202.012L132.925,204.856L131.557,203.02L139.477,196.9L140.773,196.9L140.773,219.868L145.705,219.868L145.705,222.532L132.925,222.532L132.925,219.868Z" style="fill-rule:nonzero;"/>
        <path d="M150.421,220.984C150.421,220.408 150.613,219.94 150.997,219.58C151.381,219.22 151.873,219.04 152.473,219.04C153.217,219.04 153.823,219.304 154.291,219.832C154.759,220.36 154.993,221.128 154.993,222.136C154.993,223 154.873,223.756 154.633,224.404C154.393,225.052 154.081,225.61 153.697,226.078C153.313,226.546 152.893,226.93 152.437,227.23C151.981,227.53 151.525,227.752 151.069,227.896L150.169,226.492C151.033,226.156 151.675,225.634 152.095,224.926C152.515,224.218 152.725,223.504 152.725,222.784C152.509,222.856 152.305,222.892 152.113,222.892C151.633,222.892 151.231,222.73 150.907,222.406C150.583,222.082 150.421,221.608 150.421,220.984Z" style="fill-rule:nonzero;"/>
        <path d="M170.905,220.444C171.721,220.444 172.477,220.324 173.173,220.084C173.869,219.844 174.469,219.49 174.973,219.022C175.477,218.554 175.873,217.996 176.161,217.348C176.449,216.7 176.593,215.992 176.593,215.224C176.593,213.544 176.095,212.296 175.099,211.48C174.103,210.664 172.729,210.256 170.977,210.256L168.313,210.256L168.313,209.212L173.497,201.22L175.153,199.636L172.813,199.996L165.685,199.996L165.685,197.332L178.537,197.332L178.537,198.376L172.813,206.98L171.553,208.024L171.553,208.096L172.777,207.844C173.737,207.868 174.625,208.042 175.441,208.366C176.257,208.69 176.965,209.158 177.565,209.77C178.165,210.382 178.633,211.114 178.969,211.966C179.305,212.818 179.473,213.784 179.473,214.864C179.473,216.16 179.245,217.312 178.789,218.32C178.333,219.328 177.715,220.174 176.935,220.858C176.155,221.542 175.237,222.064 174.181,222.424C173.125,222.784 172.009,222.964 170.833,222.964C169.753,222.964 168.781,222.88 167.917,222.712C167.053,222.544 166.297,222.328 165.649,222.064L166.405,219.508C166.957,219.772 167.611,219.994 168.367,220.174C169.123,220.354 169.969,220.444 170.905,220.444Z" style="fill-rule:nonzero;"/>
        <path d="M132.925,122.684L137.965,122.684L137.965,105.26L138.325,103.136L136.885,104.828L132.925,107.672L131.557,105.836L139.477,99.716L140.773,99.716L140.773,122.684L145.705,122.684L145.705,125.348L132.925,125.348L132.925,122.684Z" style="fill-rule:nonzero;"/>
        <path d="M150.421,123.8C150.421,123.224 150.613,122.756 150.997,122.396C151.381,122.036 151.873,121.856 152.473,121.856C153.217,121.856 153.823,122.12 154.291,122.648C154.759,123.176 154.993,123.944 154.993,124.952C154.993,125.816 154.873,126.572 154.633,127.22C154.393,127.868 154.081,128.426 153.697,128.894C153.313,129.362 152.893,129.746 152.437,130.046C151.981,130.346 151.525,130.568 151.069,130.712L150.169,129.308C151.033,128.972 151.675,128.45 152.095,127.742C152.515,127.034 152.725,126.32 152.725,125.6C152.509,125.672 152.305,125.708 152.113,125.708C151.633,125.708 151.231,125.546 150.907,125.222C150.583,124.898 150.421,124.424 150.421,123.8Z" style="fill-rule:nonzero;"/>
        <path d="M178.537,105.872C178.537,107.144 178.303,108.446 177.835,109.778C177.367,111.11 176.755,112.448 175.999,113.792C175.243,115.136 174.397,116.45 173.461,117.734C172.525,119.018 171.589,120.236 170.653,121.388L168.889,122.936L168.889,123.08L171.193,122.684L179.041,122.684L179.041,125.348L164.713,125.348L164.713,124.304C165.241,123.752 165.877,123.068 166.621,122.252C167.365,121.436 168.139,120.53 168.943,119.534C169.747,118.538 170.539,117.482 171.319,116.366C172.099,115.25 172.807,114.116 173.443,112.964C174.079,111.812 174.589,110.672 174.973,109.544C175.357,108.416 175.549,107.348 175.549,106.34C175.549,105.164 175.213,104.186 174.541,103.406C173.869,102.626 172.849,102.236 171.481,102.236C170.569,102.236 169.681,102.422 168.817,102.794C167.953,103.166 167.209,103.592 166.585,104.072L165.397,102.02C166.237,101.3 167.233,100.736 168.385,100.328C169.537,99.92 170.773,99.716 172.093,99.716C173.125,99.716 174.037,99.866 174.829,100.166C175.621,100.466 176.293,100.892 176.845,101.444C177.397,101.996 177.817,102.65 178.105,103.406C178.393,104.162 178.537,104.984 178.537,105.872Z" style="fill-rule:nonzero;"/>
        <path d="M235.581,418.805C236.397,418.805 237.153,418.685 237.849,418.445C238.545,418.205 239.145,417.851 239.649,417.383C240.153,416.915 240.549,416.357 240.837,415.709C241.125,415.061 241.269,414.353 241.269,413.585C241.269,411.905 240.771,410.657 239.775,409.841C238.779,409.025 237.405,408.617 235.653,408.617L232.989,408.617L232.989,407.573L238.173,399.581L239.829,397.997L237.489,398.357L230.361,398.357L230.361,395.693L243.213,395.693L243.213,396.737L237.489,405.341L236.229,406.385L236.229,406.457L237.453,406.205C238.413,406.229 239.301,406.403 240.117,406.727C240.933,407.051 241.641,407.519 242.241,408.131C242.841,408.743 243.309,409.475 243.645,410.327C243.981,411.179 244.149,412.145 244.149,413.225C244.149,414.521 243.921,415.673 243.465,416.681C243.009,417.689 242.391,418.535 241.611,419.219C240.831,419.903 239.913,420.425 238.857,420.785C237.801,421.145 236.685,421.325 235.509,421.325C234.429,421.325 233.457,421.241 232.593,421.073C231.729,420.905 230.973,420.689 230.325,420.425L231.081,417.869C231.633,418.133 232.287,418.355 233.043,418.535C233.799,418.715 234.645,418.805 235.581,418.805Z" style="fill-rule:nonzero;"/>
        <path d="M248.541,419.345C248.541,418.769 248.733,418.301 249.117,417.941C249.501,417.581 249.993,417.401 250.593,417.401C251.337,417.401 251.943,417.665 252.411,418.193C252.879,418.721 253.113,419.489 253.113,420.497C253.113,421.361 252.993,422.117 252.753,422.765C252.513,423.413 252.201,423.971 251.817,424.439C251.433,424.907 251.013,425.291 250.557,425.591C250.101,425.891 249.645,426.113 249.189,426.257L248.289,424.853C249.153,424.517 249.795,423.995 250.215,423.287C250.635,422.579 250.845,421.865 250.845,421.145C250.629,421.217 250.425,421.253 250.233,421.253C249.753,421.253 249.351,421.091 249.027,420.767C248.703,420.443 248.541,419.969 248.541,419.345Z" style="fill-rule:nonzero;"/>
        <path d="M262.149,408.293C262.149,403.973 262.851,400.721 264.255,398.537C265.659,396.353 267.705,395.261 270.393,395.261C273.297,395.261 275.403,396.335 276.711,398.483C278.019,400.631 278.673,403.901 278.673,408.293C278.673,412.613 277.971,415.865 276.567,418.049C275.163,420.233 273.105,421.325 270.393,421.325C267.537,421.325 265.449,420.185 264.129,417.905C262.809,415.625 262.149,412.421 262.149,408.293ZM265.137,408.293C265.137,409.853 265.239,411.275 265.443,412.559C265.647,413.843 265.965,414.947 266.397,415.871C266.829,416.795 267.375,417.515 268.035,418.031C268.695,418.547 269.481,418.805 270.393,418.805C272.217,418.805 273.555,417.959 274.407,416.267C275.259,414.575 275.685,411.917 275.685,408.293C275.685,406.757 275.595,405.341 275.415,404.045C275.235,402.749 274.935,401.633 274.515,400.697C274.095,399.761 273.549,399.041 272.877,398.537C272.205,398.033 271.377,397.781 270.393,397.781C268.593,397.781 267.267,398.633 266.415,400.337C265.563,402.041 265.137,404.693 265.137,408.293Z" style="fill-rule:nonzero;"/>
        <path d="M235.581,319.677C236.397,319.677 237.153,319.557 237.849,319.317C238.545,319.077 239.145,318.723 239.649,318.255C240.153,317.787 240.549,317.229 240.837,316.581C241.125,315.933 241.269,315.225 241.269,314.457C241.269,312.777 240.771,311.529 239.775,310.713C238.779,309.897 237.405,309.489 235.653,309.489L232.989,309.489L232.989,308.445L238.173,300.453L239.829,298.869L237.489,299.229L230.361,299.229L230.361,296.565L243.213,296.565L243.213,297.609L237.489,306.213L236.229,307.257L236.229,307.329L237.453,307.077C238.413,307.101 239.301,307.275 240.117,307.599C240.933,307.923 241.641,308.391 242.241,309.003C242.841,309.615 243.309,310.347 243.645,311.199C243.981,312.051 244.149,313.017 244.149,314.097C244.149,315.393 243.921,316.545 243.465,317.553C243.009,318.561 242.391,319.407 241.611,320.091C240.831,320.775 239.913,321.297 238.857,321.657C237.801,322.017 236.685,322.197 235.509,322.197C234.429,322.197 233.457,322.113 232.593,321.945C231.729,321.777 230.973,321.561 230.325,321.297L231.081,318.741C231.633,319.005 232.287,319.227 233.043,319.407C233.799,319.587 234.645,319.677 235.581,319.677Z" style="fill-rule:nonzero;"/>
        <path d="M248.541,320.217C248.541,319.641 248.733,319.173 249.117,318.813C249.501,318.453 249.993,318.273 250.593,318.273C251.337,318.273 251.943,318.537 252.411,319.065C252.879,319.593 253.113,320.361 253.113,321.369C253.113,322.233 252.993,322.989 252.753,323.637C252.513,324.285 252.201,324.843 251.817,325.311C251.433,325.779 251.013,326.163 250.557,326.463C250.101,326.763 249.645,326.985 249.189,327.129L248.289,325.725C249.153,325.389 249.795,324.867 250.215,324.159C250.635,323.451 250.845,322.737 250.845,322.017C250.629,322.089 250.425,322.125 250.233,322.125C249.753,322.125 249.351,321.963 249.027,321.639C248.703,321.315 248.541,320.841 248.541,320.217Z" style="fill-rule:nonzero;"/>
        <path d="M264.489,319.101L269.529,319.101L269.529,301.677L269.889,299.553L268.449,301.245L264.489,304.089L263.121,302.253L271.041,296.133L272.337,296.133L272.337,319.101L277.269,319.101L277.269,321.765L264.489,321.765L264.489,319.101Z" style="fill-rule:nonzero;"/>
        <path d="M243.213,203.056C243.213,204.328 242.979,205.63 242.511,206.962C242.043,208.294 241.431,209.632 240.675,210.976C239.919,212.32 239.073,213.634 238.137,214.918C237.201,216.202 236.265,217.42 235.329,218.572L233.565,220.12L233.565,220.264L235.869,219.868L243.717,219.868L243.717,222.532L229.389,222.532L229.389,221.488C229.917,220.936 230.553,220.252 231.297,219.436C232.041,218.62 232.815,217.714 233.619,216.718C234.423,215.722 235.215,214.666 235.995,213.55C236.775,212.434 237.483,211.3 238.119,210.148C238.755,208.996 239.265,207.856 239.649,206.728C240.033,205.6 240.225,204.532 240.225,203.524C240.225,202.348 239.889,201.37 239.217,200.59C238.545,199.81 237.525,199.42 236.157,199.42C235.245,199.42 234.357,199.606 233.493,199.978C232.629,200.35 231.885,200.776 231.261,201.256L230.073,199.204C230.913,198.484 231.909,197.92 233.061,197.512C234.213,197.104 235.449,196.9 236.769,196.9C237.801,196.9 238.713,197.05 239.505,197.35C240.297,197.65 240.969,198.076 241.521,198.628C242.073,199.18 242.493,199.834 242.781,200.59C243.069,201.346 243.213,202.168 243.213,203.056Z" style="fill-rule:nonzero;"/>
        <path d="M248.541,220.984C248.541,220.408 248.733,219.94 249.117,219.58C249.501,219.22 249.993,219.04 250.593,219.04C251.337,219.04 251.943,219.304 252.411,219.832C252.879,220.36 253.113,221.128 253.113,222.136C253.113,223 252.993,223.756 252.753,224.404C252.513,225.052 252.201,225.61 251.817,226.078C251.433,226.546 251.013,226.93 250.557,227.23C250.101,227.53 249.645,227.752 249.189,227.896L248.289,226.492C249.153,226.156 249.795,225.634 250.215,224.926C250.635,224.218 250.845,223.504 250.845,222.784C250.629,222.856 250.425,222.892 250.233,222.892C249.753,222.892 249.351,222.73 249.027,222.406C248.703,222.082 248.541,221.608 248.541,220.984Z" style="fill-rule:nonzero;"/>
        <path d="M262.149,209.932C262.149,205.612 262.851,202.36 264.255,200.176C265.659,197.992 267.705,196.9 270.393,196.9C273.297,196.9 275.403,197.974 276.711,200.122C278.019,202.27 278.673,205.54 278.673,209.932C278.673,214.252 277.971,217.504 276.567,219.688C275.163,221.872 273.105,222.964 270.393,222.964C267.537,222.964 265.449,221.824 264.129,219.544C262.809,217.264 262.149,214.06 262.149,209.932ZM265.137,209.932C265.137,211.492 265.239,212.914 265.443,214.198C265.647,215.482 265.965,216.586 266.397,217.51C266.829,218.434 267.375,219.154 268.035,219.67C268.695,220.186 269.481,220.444 270.393,220.444C272.217,220.444 273.555,219.598 274.407,217.906C275.259,216.214 275.685,213.556 275.685,209.932C275.685,208.396 275.595,206.98 275.415,205.684C275.235,204.388 274.935,203.272 274.515,202.336C274.095,201.4 273.549,200.68 272.877,200.176C272.205,199.672 271.377,199.42 270.393,199.42C268.593,199.42 267.267,200.272 266.415,201.976C265.563,203.68 265.137,206.332 265.137,209.932Z" style="fill-rule:nonzero;"/>
        <path d="M243.213,105.872C243.213,107.144 242.979,108.446 242.511,109.778C242.043,111.11 241.431,112.448 240.675,113.792C239.919,115.136 239.073,116.45 238.137,117.734C237.201,119.018 236.265,120.236 235.329,121.388L233.565,122.936L233.565,123.08L235.869,122.684L243.717,122.684L243.717,125.348L229.389,125.348L229.389,124.304C229.917,123.752 230.553,123.068 231.297,122.252C232.041,121.436 232.815,120.53 233.619,119.534C234.423,118.538 235.215,117.482 235.995,116.366C236.775,115.25 237.483,114.116 238.119,112.964C238.755,111.812 239.265,110.672 239.649,109.544C240.033,108.416 240.225,107.348 240.225,106.34C240.225,105.164 239.889,104.186 239.217,103.406C238.545,102.626 237.525,102.236 236.157,102.236C235.245,102.236 234.357,102.422 233.493,102.794C232.629,103.166 231.885,103.592 231.261,104.072L230.073,102.02C230.913,101.3 231.909,100.736 233.061,100.328C234.213,99.92 235.449,99.716 236.769,99.716C237.801,99.716 238.713,99.866 239.505,100.166C240.297,100.466 240.969,100.892 241.521,101.444C242.073,101.996 242.493,102.65 242.781,103.406C243.069,104.162 243.213,104.984 243.213,105.872Z" style="fill-rule:nonzero;"/>
        <path d="M248.541,123.8C248.541,123.224 248.733,122.756 249.117,122.396C249.501,122.036 249.993,121.856 250.593,121.856C251.337,121.856 251.943,122.12 252.411,122.648C252.879,123.176 253.113,123.944 253.113,124.952C253.113,125.816 252.993,126.572 252.753,127.22C252.513,127.868 252.201,128.426 251.817,128.894C251.433,129.362 251.013,129.746 250.557,130.046C250.101,130.346 249.645,130.568 249.189,130.712L248.289,129.308C249.153,128.972 249.795,128.45 250.215,127.742C250.635,127.034 250.845,126.32 250.845,125.6C250.629,125.672 250.425,125.708 250.233,125.708C249.753,125.708 249.351,125.546 249.027,125.222C248.703,124.898 248.541,124.424 248.541,123.8Z" style="fill-rule:nonzero;"/>
        <path d="M264.489,122.684L269.529,122.684L269.529,105.26L269.889,103.136L268.449,104.828L264.489,107.672L263.121,105.836L271.041,99.716L272.337,99.716L272.337,122.684L277.269,122.684L277.269,125.348L264.489,125.348L264.489,122.684Z" style="fill-rule:nonzero;"/>
        <path d="M333.966,418.805C334.782,418.805 335.538,418.685 336.234,418.445C336.93,418.205 337.53,417.851 338.034,417.383C338.538,416.915 338.934,416.357 339.222,415.709C339.51,415.061 339.654,414.353 339.654,413.585C339.654,411.905 339.156,410.657 338.16,409.841C337.164,409.025 335.79,408.617 334.038,408.617L331.374,408.617L331.374,407.573L336.558,399.581L338.214,397.997L335.874,398.357L328.746,398.357L328.746,395.693L341.598,395.693L341.598,396.737L335.874,405.341L334.614,406.385L334.614,406.457L335.838,406.205C336.798,406.229 337.686,406.403 338.502,406.727C339.318,407.051 340.026,407.519 340.626,408.131C341.226,408.743 341.694,409.475 342.03,410.327C342.366,411.179 342.534,412.145 342.534,413.225C342.534,414.521 342.306,415.673 341.85,416.681C341.394,417.689 340.776,418.535 339.996,419.219C339.216,419.903 338.298,420.425 337.242,420.785C336.186,421.145 335.07,421.325 333.894,421.325C332.814,421.325 331.842,421.241 330.978,421.073C330.114,420.905 329.358,420.689 328.71,420.425L329.466,417.869C330.018,418.133 330.672,418.355 331.428,418.535C332.184,418.715 333.03,418.805 333.966,418.805Z" style="fill-rule:nonzero;"/>
        <path d="M346.926,419.345C346.926,418.769 347.118,418.301 347.502,417.941C347.886,417.581 348.378,417.401 348.978,417.401C349.722,417.401 350.328,417.665 350.796,418.193C351.264,418.721 351.498,419.489 351.498,420.497C351.498,421.361 351.378,422.117 351.138,422.765C350.898,423.413 350.586,423.971 350.202,424.439C349.818,424.907 349.398,425.291 348.942,425.591C348.486,425.891 348.03,426.113 347.574,426.257L346.674,424.853C347.538,424.517 348.18,423.995 348.6,423.287C349.02,422.579 349.23,421.865 349.23,421.145C349.014,421.217 348.81,421.253 348.618,421.253C348.138,421.253 347.736,421.091 347.412,420.767C347.088,420.443 346.926,419.969 346.926,419.345Z" style="fill-rule:nonzero;"/>
        <path d="M367.41,418.805C368.226,418.805 368.982,418.685 369.678,418.445C370.374,418.205 370.974,417.851 371.478,417.383C371.982,416.915 372.378,416.357 372.666,415.709C372.954,415.061 373.098,414.353 373.098,413.585C373.098,411.905 372.6,410.657 371.604,409.841C370.608,409.025 369.234,408.617 367.482,408.617L364.818,408.617L364.818,407.573L370.002,399.581L371.658,397.997L369.318,398.357L362.19,398.357L362.19,395.693L375.042,395.693L375.042,396.737L369.318,405.341L368.058,406.385L368.058,406.457L369.282,406.205C370.242,406.229 371.13,406.403 371.946,406.727C372.762,407.051 373.47,407.519 374.07,408.131C374.67,408.743 375.138,409.475 375.474,410.327C375.81,411.179 375.978,412.145 375.978,413.225C375.978,414.521 375.75,415.673 375.294,416.681C374.838,417.689 374.22,418.535 373.44,419.219C372.66,419.903 371.742,420.425 370.686,420.785C369.63,421.145 368.514,421.325 367.338,421.325C366.258,421.325 365.286,421.241 364.422,421.073C363.558,420.905 362.802,420.689 362.154,420.425L362.91,417.869C363.462,418.133 364.116,418.355 364.872,418.535C365.628,418.715 366.474,418.805 367.41,418.805Z" style="fill-rule:nonzero;"/>
        <path d="M333.966,319.677C334.782,319.677 335.538,319.557 336.234,319.317C336.93,319.077 337.53,318.723 338.034,318.255C338.538,317.787 338.934,317.229 339.222,316.581C339.51,315.933 339.654,315.225 339.654,314.457C339.654,312.777 339.156,311.529 338.16,310.713C337.164,309.897 335.79,309.489 334.038,309.489L331.374,309.489L331.374,308.445L336.558,300.453L338.214,298.869L335.874,299.229L328.746,299.229L328.746,296.565L341.598,296.565L341.598,297.609L335.874,306.213L334.614,307.257L334.614,307.329L335.838,307.077C336.798,307.101 337.686,307.275 338.502,307.599C339.318,307.923 340.026,308.391 340.626,309.003C341.226,309.615 341.694,310.347 342.03,311.199C342.366,312.051 342.534,313.017 342.534,314.097C342.534,315.393 342.306,316.545 341.85,317.553C341.394,318.561 340.776,319.407 339.996,320.091C339.216,320.775 338.298,321.297 337.242,321.657C336.186,322.017 335.07,322.197 333.894,322.197C332.814,322.197 331.842,322.113 330.978,321.945C330.114,321.777 329.358,321.561 328.71,321.297L329.466,318.741C330.018,319.005 330.672,319.227 331.428,319.407C332.184,319.587 333.03,319.677 333.966,319.677Z" style="fill-rule:nonzero;"/>
        <path d="M346.926,320.217C346.926,319.641 347.118,319.173 347.502,318.813C347.886,318.453 348.378,318.273 348.978,318.273C349.722,318.273 350.328,318.537 350.796,319.065C351.264,319.593 351.498,320.361 351.498,321.369C351.498,322.233 351.378,322.989 351.138,323.637C350.898,324.285 350.586,324.843 350.202,325.311C349.818,325.779 349.398,326.163 348.942,326.463C348.486,326.763 348.03,326.985 347.574,327.129L346.674,325.725C347.538,325.389 348.18,324.867 348.6,324.159C349.02,323.451 349.23,322.737 349.23,322.017C349.014,322.089 348.81,322.125 348.618,322.125C348.138,322.125 347.736,321.963 347.412,321.639C347.088,321.315 346.926,320.841 346.926,320.217Z" style="fill-rule:nonzero;"/>
        <path d="M375.042,302.289C375.042,303.561 374.808,304.863 374.34,306.195C373.872,307.527 373.26,308.865 372.504,310.209C371.748,311.553 370.902,312.867 369.966,314.151C369.03,315.435 368.094,316.653 367.158,317.805L365.394,319.353L365.394,319.497L367.698,319.101L375.546,319.101L375.546,321.765L361.218,321.765L361.218,320.721C361.746,320.169 362.382,319.485 363.126,318.669C363.87,317.853 364.644,316.947 365.448,315.951C366.252,314.955 367.044,313.899 367.824,312.783C368.604,311.667 369.312,310.533 369.948,309.381C370.584,308.229 371.094,307.089 371.478,305.961C371.862,304.833 372.054,303.765 372.054,302.757C372.054,301.581 371.718,300.603 371.046,299.823C370.374,299.043 369.354,298.653 367.986,298.653C367.074,298.653 366.186,298.839 365.322,299.211C364.458,299.583 363.714,300.009 363.09,300.489L361.902,298.437C362.742,297.717 363.738,297.153 364.89,296.745C366.042,296.337 367.278,296.133 368.598,296.133C369.63,296.133 370.542,296.283 371.334,296.583C372.126,296.883 372.798,297.309 373.35,297.861C373.902,298.413 374.322,299.067 374.61,299.823C374.898,300.579 375.042,301.401 375.042,302.289Z" style="fill-rule:nonzero;"/>
        <path d="M341.598,203.056C341.598,204.328 341.364,205.63 340.896,206.962C340.428,208.294 339.816,209.632 339.06,210.976C338.304,212.32 337.458,213.634 336.522,214.918C335.586,216.202 334.65,217.42 333.714,218.572L331.95,220.12L331.95,220.264L334.254,219.868L342.102,219.868L342.102,222.532L327.774,222.532L327.774,221.488C328.302,220.936 328.938,220.252 329.682,219.436C330.426,218.62 331.2,217.714 332.004,216.718C332.808,215.722 333.6,214.666 334.38,213.55C335.16,212.434 335.868,211.3 336.504,210.148C337.14,208.996 337.65,207.856 338.034,206.728C338.418,205.6 338.61,204.532 338.61,203.524C338.61,202.348 338.274,201.37 337.602,200.59C336.93,199.81 335.91,199.42 334.542,199.42C333.63,199.42 332.742,199.606 331.878,199.978C331.014,200.35 330.27,200.776 329.646,201.256L328.458,199.204C329.298,198.484 330.294,197.92 331.446,197.512C332.598,197.104 333.834,196.9 335.154,196.9C336.186,196.9 337.098,197.05 337.89,197.35C338.682,197.65 339.354,198.076 339.906,198.628C340.458,199.18 340.878,199.834 341.166,200.59C341.454,201.346 341.598,202.168 341.598,203.056Z" style="fill-rule:nonzero;"/>
        <path d="M346.926,220.984C346.926,220.408 347.118,219.94 347.502,219.58C347.886,219.22 348.378,219.04 348.978,219.04C349.722,219.04 350.328,219.304 350.796,219.832C351.264,220.36 351.498,221.128 351.498,222.136C351.498,223 351.378,223.756 351.138,224.404C350.898,225.052 350.586,225.61 350.202,226.078C349.818,226.546 349.398,226.93 348.942,227.23C348.486,227.53 348.03,227.752 347.574,227.896L346.674,226.492C347.538,226.156 348.18,225.634 348.6,224.926C349.02,224.218 349.23,223.504 349.23,222.784C349.014,222.856 348.81,222.892 348.618,222.892C348.138,222.892 347.736,222.73 347.412,222.406C347.088,222.082 346.926,221.608 346.926,220.984Z" style="fill-rule:nonzero;"/>
        <path d="M367.41,220.444C368.226,220.444 368.982,220.324 369.678,220.084C370.374,219.844 370.974,219.49 371.478,219.022C371.982,218.554 372.378,217.996 372.666,217.348C372.954,216.7 373.098,215.992 373.098,215.224C373.098,213.544 372.6,212.296 371.604,211.48C370.608,210.664 369.234,210.256 367.482,210.256L364.818,210.256L364.818,209.212L370.002,201.22L371.658,199.636L369.318,199.996L362.19,199.996L362.19,197.332L375.042,197.332L375.042,198.376L369.318,206.98L368.058,208.024L368.058,208.096L369.282,207.844C370.242,207.868 371.13,208.042 371.946,208.366C372.762,208.69 373.47,209.158 374.07,209.77C374.67,210.382 375.138,211.114 375.474,211.966C375.81,212.818 375.978,213.784 375.978,214.864C375.978,216.16 375.75,217.312 375.294,218.32C374.838,219.328 374.22,220.174 373.44,220.858C372.66,221.542 371.742,222.064 370.686,222.424C369.63,222.784 368.514,222.964 367.338,222.964C366.258,222.964 365.286,222.88 364.422,222.712C363.558,222.544 362.802,222.328 362.154,222.064L362.91,219.508C363.462,219.772 364.116,219.994 364.872,220.174C365.628,220.354 366.474,220.444 367.41,220.444Z" style="fill-rule:nonzero;"/>
        <path d="M341.598,105.872C341.598,107.144 341.364,108.446 340.896,109.778C340.428,111.11 339.816,112.448 339.06,113.792C338.304,115.136 337.458,116.45 336.522,117.734C335.586,119.018 334.65,120.236 333.714,121.388L331.95,122.936L331.95,123.08L334.254,122.684L342.102,122.684L342.102,125.348L327.774,125.348L327.774,124.304C328.302,123.752 328.938,123.068 329.682,122.252C330.426,121.436 331.2,120.53 332.004,119.534C332.808,118.538 333.6,117.482 334.38,116.366C335.16,115.25 335.868,114.116 336.504,112.964C337.14,111.812 337.65,110.672 338.034,109.544C338.418,108.416 338.61,107.348 338.61,106.34C338.61,105.164 338.274,104.186 337.602,103.406C336.93,102.626 335.91,102.236 334.542,102.236C333.63,102.236 332.742,102.422 331.878,102.794C331.014,103.166 330.27,103.592 329.646,104.072L328.458,102.02C329.298,101.3 330.294,100.736 331.446,100.328C332.598,99.92 333.834,99.716 335.154,99.716C336.186,99.716 337.098,99.866 337.89,100.166C338.682,100.466 339.354,100.892 339.906,101.444C340.458,101.996 340.878,102.65 341.166,103.406C341.454,104.162 341.598,104.984 341.598,105.872Z" style="fill-rule:nonzero;"/>
        <path d="M346.926,123.8C346.926,123.224 347.118,122.756 347.502,122.396C347.886,122.036 348.378,121.856 348.978,121.856C349.722,121.856 350.328,122.12 350.796,122.648C351.264,123.176 351.498,123.944 351.498,124.952C351.498,125.816 351.378,126.572 351.138,127.22C350.898,127.868 350.586,128.426 350.202,128.894C349.818,129.362 349.398,129.746 348.942,130.046C348.486,130.346 348.03,130.568 347.574,130.712L346.674,129.308C347.538,128.972 348.18,128.45 348.6,127.742C349.02,127.034 349.23,126.32 349.23,125.6C349.014,125.672 348.81,125.708 348.618,125.708C348.138,125.708 347.736,125.546 347.412,125.222C347.088,124.898 346.926,124.424 346.926,123.8Z" style="fill-rule:nonzero;"/>
        <path d="M375.042,105.872C375.042,107.144 374.808,108.446 374.34,109.778C373.872,111.11 373.26,112.448 372.504,113.792C371.748,115.136 370.902,116.45 369.966,117.734C369.03,119.018 368.094,120.236 367.158,121.388L365.394,122.936L365.394,123.08L367.698,122.684L375.546,122.684L375.546,125.348L361.218,125.348L361.218,124.304C361.746,123.752 362.382,123.068 363.126,122.252C363.87,121.436 364.644,120.53 365.448,119.534C366.252,118.538 367.044,117.482 367.824,116.366C368.604,115.25 369.312,114.116 369.948,112.964C370.584,111.812 371.094,110.672 371.478,109.544C371.862,108.416 372.054,107.348 372.054,106.34C372.054,105.164 371.718,104.186 371.046,103.406C370.374,102.626 369.354,102.236 367.986,102.236C367.074,102.236 366.186,102.422 365.322,102.794C364.458,103.166 363.714,103.592 363.09,104.072L361.902,102.02C362.742,101.3 363.738,100.736 364.89,100.328C366.042,99.92 367.278,99.716 368.598,99.716C369.63,99.716 370.542,99.866 371.334,100.166C372.126,100.466 372.798,100.892 373.35,101.444C373.902,101.996 374.322,102.65 374.61,103.406C374.898,104.162 375.042,104.984 375.042,105.872Z" style="fill-rule:nonzero;"/>
        <path d="M236.419,32.189L241.979,32.189L241.979,16.389L242.579,13.669L240.659,16.029L237.099,18.469L234.899,15.469L244.019,8.109L246.939,8.109L246.939,32.189L252.379,32.189L252.379,36.589L236.419,36.589L236.419,32.189Z" style="fill-rule:nonzero;"/>
        <path d="M256.659,22.549C256.659,17.642 257.499,13.995 259.179,11.609C260.859,9.222 263.272,8.029 266.419,8.029C269.779,8.029 272.246,9.209 273.819,11.569C275.392,13.929 276.179,17.589 276.179,22.549C276.179,27.482 275.332,31.149 273.639,33.549C271.946,35.949 269.526,37.149 266.379,37.149C263.046,37.149 260.592,35.889 259.019,33.369C257.446,30.849 256.659,27.242 256.659,22.549ZM261.859,22.549C261.859,25.802 262.212,28.315 262.919,30.089C263.626,31.862 264.792,32.749 266.419,32.749C267.992,32.749 269.146,31.935 269.879,30.309C270.612,28.682 270.979,26.095 270.979,22.549C270.979,19.322 270.632,16.829 269.939,15.069C269.246,13.309 268.059,12.429 266.379,12.429C264.779,12.429 263.626,13.255 262.919,14.909C262.212,16.562 261.859,19.109 261.859,22.549Z" style="fill-rule:nonzero;"/>
        <path d="M133.924,22.549C133.924,17.642 134.764,13.995 136.444,11.609C138.124,9.222 140.538,8.029 143.684,8.029C147.044,8.029 149.511,9.209 151.084,11.569C152.658,13.929 153.444,17.589 153.444,22.549C153.444,27.482 152.598,31.149 150.904,33.549C149.211,35.949 146.791,37.149 143.644,37.149C140.311,37.149 137.858,35.889 136.284,33.369C134.711,30.849 133.924,27.242 133.924,22.549ZM139.124,22.549C139.124,25.802 139.478,28.315 140.184,30.089C140.891,31.862 142.058,32.749 143.684,32.749C145.258,32.749 146.411,31.935 147.144,30.309C147.878,28.682 148.244,26.095 148.244,22.549C148.244,19.322 147.898,16.829 147.204,15.069C146.511,13.309 145.324,12.429 143.644,12.429C142.044,12.429 140.891,13.255 140.184,14.909C139.478,16.562 139.124,19.109 139.124,22.549Z" style="fill-rule:nonzero;"/>
        <path d="M159.044,32.189L164.604,32.189L164.604,16.389L165.204,13.669L163.284,16.029L159.724,18.469L157.524,15.469L166.644,8.109L169.564,8.109L169.564,32.189L175.004,32.189L175.004,36.589L159.044,36.589L159.044,32.189Z" style="fill-rule:nonzero;"/>
        <path d="M334.324,32.189L339.884,32.189L339.884,16.389L340.484,13.669L338.564,16.029L335.004,18.469L332.804,15.469L341.924,8.109L344.844,8.109L344.844,32.189L350.284,32.189L350.284,36.589L334.324,36.589L334.324,32.189Z" style="fill-rule:nonzero;"/>
        <path d="M357.004,32.189L362.564,32.189L362.564,16.389L363.164,13.669L361.244,16.029L357.684,18.469L355.484,15.469L364.604,8.109L367.524,8.109L367.524,32.189L372.964,32.189L372.964,36.589L357.004,36.589L357.004,32.189Z" style="fill-rule:nonzero;"/>
        <path d="M425.246,219.548L430.806,219.548L430.806,203.748L431.406,201.028L429.486,203.388L425.926,205.828L423.726,202.828L432.846,195.468L435.766,195.468L435.766,219.548L441.206,219.548L441.206,223.948L425.246,223.948L425.246,219.548Z" style="fill-rule:nonzero;"/>
        <path d="M445.486,209.908C445.486,205.001 446.326,201.355 448.006,198.968C449.686,196.581 452.1,195.388 455.246,195.388C458.606,195.388 461.073,196.568 462.646,198.928C464.22,201.288 465.006,204.948 465.006,209.908C465.006,214.841 464.16,218.508 462.466,220.908C460.773,223.308 458.353,224.508 455.206,224.508C451.873,224.508 449.42,223.248 447.846,220.728C446.273,218.208 445.486,214.601 445.486,209.908ZM450.686,209.908C450.686,213.161 451.04,215.675 451.746,217.448C452.453,219.221 453.62,220.108 455.246,220.108C456.82,220.108 457.973,219.295 458.706,217.668C459.44,216.041 459.806,213.455 459.806,209.908C459.806,206.681 459.46,204.188 458.766,202.428C458.073,200.668 456.886,199.788 455.206,199.788C453.606,199.788 452.453,200.615 451.746,202.268C451.04,203.921 450.686,206.468 450.686,209.908Z" style="fill-rule:nonzero;"/>
        <path d="M424.21,309.543C424.21,304.637 425.05,300.99 426.73,298.603C428.41,296.217 430.824,295.023 433.97,295.023C437.33,295.023 439.797,296.203 441.37,298.563C442.944,300.923 443.73,304.583 443.73,309.543C443.73,314.477 442.884,318.143 441.19,320.543C439.497,322.943 437.077,324.143 433.93,324.143C430.597,324.143 428.144,322.883 426.57,320.363C424.997,317.843 424.21,314.237 424.21,309.543ZM429.41,309.543C429.41,312.797 429.764,315.31 430.47,317.083C431.177,318.857 432.344,319.743 433.97,319.743C435.544,319.743 436.697,318.93 437.43,317.303C438.164,315.677 438.53,313.09 438.53,309.543C438.53,306.317 438.184,303.823 437.49,302.063C436.797,300.303 435.61,299.423 433.93,299.423C432.33,299.423 431.177,300.25 430.47,301.903C429.764,303.557 429.41,306.103 429.41,309.543Z" style="fill-rule:nonzero;"/>
        <path d="M449.33,319.183L454.89,319.183L454.89,303.383L455.49,300.663L453.57,303.023L450.01,305.463L447.81,302.463L456.93,295.103L459.85,295.103L459.85,319.183L465.29,319.183L465.29,323.583L449.33,323.583L449.33,319.183Z" style="fill-rule:nonzero;"/>
        <path d="M425.246,120.948L430.806,120.948L430.806,105.148L431.406,102.428L429.486,104.788L425.926,107.228L423.726,104.228L432.846,96.868L435.766,96.868L435.766,120.948L441.206,120.948L441.206,125.348L425.246,125.348L425.246,120.948Z" style="fill-rule:nonzero;"/>
        <path d="M447.926,120.948L453.486,120.948L453.486,105.148L454.086,102.428L452.166,104.788L448.606,107.228L446.406,104.228L455.526,96.868L458.446,96.868L458.446,120.948L463.886,120.948L463.886,125.348L447.926,125.348L447.926,120.948Z" style="fill-rule:nonzero;"/>
        <g id="halos">
        </g>
        <g id="halos1" serif:id="halos">
        </g>
        <g id="digits">
        </g>
        <g id="digits1" serif:id="digits">
        </g>
    </g>
</svg>
