<?xml version="1.0" encoding="UTF-8" standalone="no"?>
<!DOCTYPE svg PUBLIC "-//W3C//DTD SVG 1.1//EN" "http://www.w3.org/Graphics/SVG/1.1/DTD/svg11.dtd">
<svg width="100%" height="100%" viewBox="0 0 474 467" version="1.1" xmlns="http://www.w3.org/2000/svg" xmlns:xlink="http://www.w3.org/1999/xlink" xml:space="preserve" xmlns:serif="http://www.serif.com/" style="fill-rule:evenodd;clip-rule:evenodd;stroke-linejoin:round;stroke-miterlimit:10;">
    <rect id="polygon_triangulation" x="-4942" y="-3278" width="8206" height="4260" style="fill:none;"/>
    <g id="polygon_triangulation1" serif:id="polygon_triangulation">
        <g id="TIN-vertices" serif:id="TIN vertices">
        </g>
        <g id="TIN-edges" serif:id="TIN edges">
        </g>
        <rect x="8.061" y="63.897" width="98.3" height="98.3" style="fill:white;stroke:black;stroke-width:2px;"/>
        <rect x="204.661" y="63.897" width="98.3" height="98.3" style="fill:white;stroke:black;stroke-width:2px;"/>
        <rect x="8.061" y="359.143" width="98.3" height="98.3" style="fill:white;stroke:black;stroke-width:2px;"/>
        <rect x="204.661" y="359.143" width="98.3" height="98.3" style="fill:white;stroke:black;stroke-width:2px;"/>
        <rect x="106.361" y="63.897" width="98.3" height="98.3" style="fill:white;stroke:black;stroke-width:2px;"/>
        <rect x="302.961" y="63.897" width="98.3" height="98.3" style="fill:white;stroke:black;stroke-width:2px;"/>
        <rect x="302.961" y="260.843" width="98.3" height="98.3" style="fill:white;stroke:black;stroke-width:2px;"/>
        <rect x="106.361" y="359.143" width="98.3" height="98.3" style="fill:white;stroke:black;stroke-width:2px;"/>
        <rect x="302.961" y="162.197" width="98.3" height="98.3" style="fill:white;stroke:black;stroke-width:2px;"/>
        <rect x="302.961" y="359.143" width="98.3" height="98.3" style="fill:white;stroke:black;stroke-width:2px;"/>
        <path d="M421.763,407.253C421.763,402.346 422.603,398.7 424.283,396.313C425.963,393.926 428.376,392.733 431.523,392.733C434.883,392.733 437.35,393.913 438.923,396.273C440.496,398.633 441.283,402.293 441.283,407.253C441.283,412.186 440.436,415.853 438.743,418.253C437.05,420.653 434.63,421.853 431.483,421.853C428.15,421.853 425.696,420.593 424.123,418.073C422.55,415.553 421.763,411.946 421.763,407.253ZM426.963,407.253C426.963,410.506 427.316,413.02 428.023,414.793C428.73,416.566 429.896,417.453 431.523,417.453C433.096,417.453 434.25,416.64 434.983,415.013C435.716,413.386 436.083,410.8 436.083,407.253C436.083,404.026 435.736,401.533 435.043,399.773C434.35,398.013 433.163,397.133 431.483,397.133C429.883,397.133 428.73,397.96 428.023,399.613C427.316,401.266 426.963,403.813 426.963,407.253Z" style="fill-rule:nonzero;"/>
        <path d="M444.443,407.253C444.443,402.346 445.283,398.7 446.963,396.313C448.643,393.926 451.056,392.733 454.203,392.733C457.563,392.733 460.03,393.913 461.603,396.273C463.176,398.633 463.963,402.293 463.963,407.253C463.963,412.186 463.116,415.853 461.423,418.253C459.73,420.653 457.31,421.853 454.163,421.853C450.83,421.853 448.376,420.593 446.803,418.073C445.23,415.553 444.443,411.946 444.443,407.253ZM449.643,407.253C449.643,410.506 449.996,413.02 450.703,414.793C451.41,416.566 452.576,417.453 454.203,417.453C455.776,417.453 456.93,416.64 457.663,415.013C458.396,413.386 458.763,410.8 458.763,407.253C458.763,404.026 458.416,401.533 457.723,399.773C457.03,398.013 455.843,397.133 454.163,397.133C452.563,397.133 451.41,397.96 450.703,399.613C449.996,401.266 449.643,403.813 449.643,407.253Z" style="fill-rule:nonzero;"/>
        <path d="M34.976,22.549C34.976,17.642 35.816,13.995 37.496,11.609C39.176,9.222 41.589,8.029 44.736,8.029C48.096,8.029 50.562,9.209 52.136,11.569C53.709,13.929 54.496,17.589 54.496,22.549C54.496,27.482 53.649,31.149 51.956,33.549C50.262,35.949 47.842,37.149 44.696,37.149C41.362,37.149 38.909,35.889 37.336,33.369C35.762,30.849 34.976,27.242 34.976,22.549ZM40.176,22.549C40.176,25.802 40.529,28.315 41.236,30.089C41.942,31.862 43.109,32.749 44.736,32.749C46.309,32.749 47.462,31.935 48.196,30.309C48.929,28.682 49.296,26.095 49.296,22.549C49.296,19.322 48.949,16.829 48.256,15.069C47.562,13.309 46.376,12.429 44.696,12.429C43.096,12.429 41.942,13.255 41.236,14.909C40.529,16.562 40.176,19.109 40.176,22.549Z" style="fill-rule:nonzero;"/>
        <path d="M57.656,22.549C57.656,17.642 58.496,13.995 60.176,11.609C61.856,9.222 64.269,8.029 67.416,8.029C70.776,8.029 73.242,9.209 74.816,11.569C76.389,13.929 77.176,17.589 77.176,22.549C77.176,27.482 76.329,31.149 74.636,33.549C72.942,35.949 70.522,37.149 67.376,37.149C64.042,37.149 61.589,35.889 60.016,33.369C58.442,30.849 57.656,27.242 57.656,22.549ZM62.856,22.549C62.856,25.802 63.209,28.315 63.916,30.089C64.622,31.862 65.789,32.749 67.416,32.749C68.989,32.749 70.142,31.935 70.876,30.309C71.609,28.682 71.976,26.095 71.976,22.549C71.976,19.322 71.629,16.829 70.936,15.069C70.242,13.309 69.056,12.429 67.376,12.429C65.776,12.429 64.622,13.255 63.916,14.909C63.209,16.562 62.856,19.109 62.856,22.549Z" style="fill-rule:nonzero;"/>
        <path d="M235.376,32.189L240.936,32.189L240.936,16.389L241.536,13.669L239.616,16.029L236.056,18.469L233.856,15.469L242.976,8.109L245.896,8.109L245.896,32.189L251.336,32.189L251.336,36.589L235.376,36.589L235.376,32.189Z" style="fill-rule:nonzero;"/>
        <path d="M255.616,22.549C255.616,17.642 256.456,13.995 258.136,11.609C259.816,9.222 262.229,8.029 265.376,8.029C268.736,8.029 271.202,9.209 272.776,11.569C274.349,13.929 275.136,17.589 275.136,22.549C275.136,27.482 274.289,31.149 272.596,33.549C270.902,35.949 268.482,37.149 265.336,37.149C262.002,37.149 259.549,35.889 257.976,33.369C256.402,30.849 255.616,27.242 255.616,22.549ZM260.816,22.549C260.816,25.802 261.169,28.315 261.876,30.089C262.582,31.862 263.749,32.749 265.376,32.749C266.949,32.749 268.102,31.935 268.836,30.309C269.569,28.682 269.936,26.095 269.936,22.549C269.936,19.322 269.589,16.829 268.896,15.069C268.202,13.309 267.016,12.429 265.336,12.429C263.736,12.429 262.582,13.255 261.876,14.909C261.169,16.562 260.816,19.109 260.816,22.549Z" style="fill-rule:nonzero;"/>
        <path d="M132.881,22.549C132.881,17.642 133.721,13.995 135.401,11.609C137.081,9.222 139.494,8.029 142.641,8.029C146.001,8.029 148.468,9.209 150.041,11.569C151.614,13.929 152.401,17.589 152.401,22.549C152.401,27.482 151.554,31.149 149.861,33.549C148.168,35.949 145.748,37.149 142.601,37.149C139.268,37.149 136.814,35.889 135.241,33.369C133.668,30.849 132.881,27.242 132.881,22.549ZM138.081,22.549C138.081,25.802 138.434,28.315 139.141,30.089C139.848,31.862 141.014,32.749 142.641,32.749C144.214,32.749 145.368,31.935 146.101,30.309C146.834,28.682 147.201,26.095 147.201,22.549C147.201,19.322 146.854,16.829 146.161,15.069C145.468,13.309 144.281,12.429 142.601,12.429C141.001,12.429 139.848,13.255 139.141,14.909C138.434,16.562 138.081,19.109 138.081,22.549Z" style="fill-rule:nonzero;"/>
        <path d="M158.001,32.189L163.561,32.189L163.561,16.389L164.161,13.669L162.241,16.029L158.681,18.469L156.481,15.469L165.601,8.109L168.521,8.109L168.521,32.189L173.961,32.189L173.961,36.589L158.001,36.589L158.001,32.189Z" style="fill-rule:nonzero;"/>
        <path d="M333.281,32.189L338.841,32.189L338.841,16.389L339.441,13.669L337.521,16.029L333.961,18.469L331.761,15.469L340.881,8.109L343.801,8.109L343.801,32.189L349.241,32.189L349.241,36.589L333.281,36.589L333.281,32.189Z" style="fill-rule:nonzero;"/>
        <path d="M355.961,32.189L361.521,32.189L361.521,16.389L362.121,13.669L360.201,16.029L356.641,18.469L354.441,15.469L363.561,8.109L366.481,8.109L366.481,32.189L371.921,32.189L371.921,36.589L355.961,36.589L355.961,32.189Z" style="fill-rule:nonzero;"/>
        <path d="M424.203,219.548L429.763,219.548L429.763,203.748L430.363,201.028L428.443,203.388L424.883,205.828L422.683,202.828L431.803,195.468L434.723,195.468L434.723,219.548L440.163,219.548L440.163,223.948L424.203,223.948L424.203,219.548Z" style="fill-rule:nonzero;"/>
        <path d="M444.443,209.908C444.443,205.001 445.283,201.355 446.963,198.968C448.643,196.581 451.056,195.388 454.203,195.388C457.563,195.388 460.03,196.568 461.603,198.928C463.176,201.288 463.963,204.948 463.963,209.908C463.963,214.841 463.116,218.508 461.423,220.908C459.73,223.308 457.31,224.508 454.163,224.508C450.83,224.508 448.376,223.248 446.803,220.728C445.23,218.208 444.443,214.601 444.443,209.908ZM449.643,209.908C449.643,213.161 449.996,215.675 450.703,217.448C451.41,219.221 452.576,220.108 454.203,220.108C455.776,220.108 456.93,219.295 457.663,217.668C458.396,216.041 458.763,213.455 458.763,209.908C458.763,206.681 458.416,204.188 457.723,202.428C457.03,200.668 455.843,199.788 454.163,199.788C452.563,199.788 451.41,200.615 450.703,202.268C449.996,203.921 449.643,206.468 449.643,209.908Z" style="fill-rule:nonzero;"/>
        <path d="M423.167,309.543C423.167,304.637 424.007,300.99 425.687,298.603C427.367,296.217 429.78,295.023 432.927,295.023C436.287,295.023 438.754,296.203 440.327,298.563C441.9,300.923 442.687,304.583 442.687,309.543C442.687,314.477 441.84,318.143 440.147,320.543C438.454,322.943 436.034,324.143 432.887,324.143C429.554,324.143 427.1,322.883 425.527,320.363C423.954,317.843 423.167,314.237 423.167,309.543ZM428.367,309.543C428.367,312.797 428.72,315.31 429.427,317.083C430.134,318.857 431.3,319.743 432.927,319.743C434.5,319.743 435.654,318.93 436.387,317.303C437.12,315.677 437.487,313.09 437.487,309.543C437.487,306.317 437.14,303.823 436.447,302.063C435.754,300.303 434.567,299.423 432.887,299.423C431.287,299.423 430.134,300.25 429.427,301.903C428.72,303.557 428.367,306.103 428.367,309.543Z" style="fill-rule:nonzero;"/>
        <path d="M448.287,319.183L453.847,319.183L453.847,303.383L454.447,300.663L452.527,303.023L448.967,305.463L446.767,302.463L455.887,295.103L458.807,295.103L458.807,319.183L464.247,319.183L464.247,323.583L448.287,323.583L448.287,319.183Z" style="fill-rule:nonzero;"/>
        <path d="M424.203,120.948L429.763,120.948L429.763,105.148L430.363,102.428L428.443,104.788L424.883,107.228L422.683,104.228L431.803,96.868L434.723,96.868L434.723,120.948L440.163,120.948L440.163,125.348L424.203,125.348L424.203,120.948Z" style="fill-rule:nonzero;"/>
        <path d="M446.883,120.948L452.443,120.948L452.443,105.148L453.043,102.428L451.123,104.788L447.563,107.228L445.363,104.228L454.483,96.868L457.403,96.868L457.403,120.948L462.843,120.948L462.843,125.348L446.883,125.348L446.883,120.948Z" style="fill-rule:nonzero;"/>
        <rect x="8.061" y="260.843" width="98.3" height="98.3" style="fill:white;stroke:black;stroke-width:2px;"/>
        <rect x="8.061" y="162.197" width="98.3" height="98.3" style="fill:white;stroke:black;stroke-width:2px;"/>
        <rect x="204.661" y="162.197" width="98.3" height="98.3" style="fill:white;stroke:black;stroke-width:2px;"/>
        <rect x="106.361" y="260.843" width="98.3" height="98.3" style="fill:white;stroke:black;stroke-width:2px;"/>
        <rect x="106.361" y="162.197" width="98.3" height="98.3" style="fill:white;stroke:black;stroke-width:2px;"/>
        <path d="M57.193,408.293L155.493,408.293L154.094,308.949L57.193,308.949L57.193,110.066L155.493,110.066L155.493,215.958L252.628,215.958L252.628,112.575L352.592,112.575L352.592,308.949L252.628,308.949L252.628,408.077L350.743,408.077" style="fill:none;stroke:rgb(76,153,4);stroke-width:6px;"/>
        <g id="halos">
            <rect x="329.688" y="92" width="44" height="44" style="fill:white;"/>
            <rect x="329.688" y="288.675" width="44" height="44" style="fill:white;"/>
            <rect x="329.688" y="189.409" width="44" height="44" style="fill:white;"/>
            <rect x="329.688" y="386.084" width="44" height="44" style="fill:white;"/>
            <rect x="232.35" y="92" width="44" height="44" style="fill:white;"/>
            <rect x="232.35" y="288.675" width="44" height="44" style="fill:white;"/>
            <rect x="232.35" y="189.409" width="44" height="44" style="fill:white;"/>
            <rect x="232.35" y="386.084" width="44" height="44" style="fill:white;"/>
            <rect x="134.398" y="92" width="44" height="44" style="fill:white;"/>
            <rect x="134.398" y="288.675" width="44" height="44" style="fill:white;"/>
            <rect x="134.398" y="189.409" width="44" height="44" style="fill:white;"/>
            <rect x="134.398" y="386.084" width="44" height="44" style="fill:white;"/>
            <rect x="35.634" y="92" width="44" height="44" style="fill:white;"/>
            <rect x="35.634" y="288.675" width="44" height="44" style="fill:white;"/>
            <rect x="35.634" y="189.409" width="44" height="44" style="fill:white;"/>
            <rect x="35.634" y="386.084" width="44" height="44" style="fill:white;"/>
        </g>
        <g id="halos1" serif:id="halos">
        </g>
        <g id="digits">
            <path d="M48.949,408.293C48.949,403.973 49.651,400.721 51.055,398.537C52.459,396.353 54.505,395.261 57.193,395.261C60.097,395.261 62.203,396.335 63.511,398.483C64.819,400.631 65.473,403.901 65.473,408.293C65.473,412.613 64.771,415.865 63.367,418.049C61.963,420.233 59.905,421.325 57.193,421.325C54.337,421.325 52.249,420.185 50.929,417.905C49.609,415.625 48.949,412.421 48.949,408.293ZM51.937,408.293C51.937,409.853 52.039,411.275 52.243,412.559C52.447,413.843 52.765,414.947 53.197,415.871C53.629,416.795 54.175,417.515 54.835,418.031C55.495,418.547 56.281,418.805 57.193,418.805C59.017,418.805 60.355,417.959 61.207,416.267C62.059,414.575 62.485,411.917 62.485,408.293C62.485,406.757 62.395,405.341 62.215,404.045C62.035,402.749 61.735,401.633 61.315,400.697C60.895,399.761 60.349,399.041 59.677,398.537C59.005,398.033 58.177,397.781 57.193,397.781C55.393,397.781 54.067,398.633 53.215,400.337C52.363,402.041 51.937,404.693 51.937,408.293Z" style="fill-rule:nonzero;"/>
            <path d="M55.825,319.677C56.641,319.677 57.397,319.557 58.093,319.317C58.789,319.077 59.389,318.723 59.893,318.255C60.397,317.787 60.793,317.229 61.081,316.581C61.369,315.933 61.513,315.225 61.513,314.457C61.513,312.777 61.015,311.529 60.019,310.713C59.023,309.897 57.649,309.489 55.897,309.489L53.233,309.489L53.233,308.445L58.417,300.453L60.073,298.869L57.733,299.229L50.605,299.229L50.605,296.565L63.457,296.565L63.457,297.609L57.733,306.213L56.473,307.257L56.473,307.329L57.697,307.077C58.657,307.101 59.545,307.275 60.361,307.599C61.177,307.923 61.885,308.391 62.485,309.003C63.085,309.615 63.553,310.347 63.889,311.199C64.225,312.051 64.393,313.017 64.393,314.097C64.393,315.393 64.165,316.545 63.709,317.553C63.253,318.561 62.635,319.407 61.855,320.091C61.075,320.775 60.157,321.297 59.101,321.657C58.045,322.017 56.929,322.197 55.753,322.197C54.673,322.197 53.701,322.113 52.837,321.945C51.973,321.777 51.217,321.561 50.569,321.297L51.325,318.741C51.877,319.005 52.531,319.227 53.287,319.407C54.043,319.587 54.889,319.677 55.825,319.677Z" style="fill-rule:nonzero;"/>
            <path d="M66.265,214.792L62.017,214.792L62.017,222.532L59.209,222.532L59.209,214.792L48.121,214.792L48.121,213.604L60.073,196.936L62.017,196.936L62.017,212.272L66.265,212.272L66.265,214.792ZM59.209,204.424L59.569,201.472L59.461,201.472L58.201,203.92L53.125,210.796L51.397,212.56L53.917,212.272L59.209,212.272L59.209,204.424Z" style="fill-rule:nonzero;"/>
            <path d="M55.069,123.26C56.725,123.26 58.093,122.78 59.173,121.82C60.253,120.86 60.793,119.468 60.793,117.644C60.793,115.892 60.259,114.584 59.191,113.72C58.123,112.856 56.653,112.424 54.781,112.424L51.757,112.604L51.757,100.148L62.989,100.148L62.989,102.812L54.457,102.812L54.457,109.976L56.005,109.904C58.381,109.928 60.253,110.588 61.621,111.884C62.989,113.18 63.673,115.04 63.673,117.464C63.673,118.808 63.445,120.002 62.989,121.046C62.533,122.09 61.915,122.96 61.135,123.656C60.355,124.352 59.437,124.88 58.381,125.24C57.325,125.6 56.197,125.78 54.997,125.78C53.917,125.78 53.005,125.72 52.261,125.6C51.517,125.48 50.821,125.3 50.173,125.06L50.929,122.612C51.481,122.828 52.075,122.99 52.711,123.098C53.347,123.206 54.133,123.26 55.069,123.26Z" style="fill-rule:nonzero;"/>
            <path d="M148.604,418.229L153.644,418.229L153.644,400.805L154.004,398.681L152.564,400.373L148.604,403.217L147.236,401.381L155.156,395.261L156.452,395.261L156.452,418.229L161.384,418.229L161.384,420.893L148.604,420.893L148.604,418.229Z" style="fill-rule:nonzero;"/>
            <path d="M160.772,302.289C160.772,303.561 160.538,304.863 160.07,306.195C159.602,307.527 158.99,308.865 158.234,310.209C157.478,311.553 156.632,312.867 155.696,314.151C154.76,315.435 153.824,316.653 152.888,317.805L151.124,319.353L151.124,319.497L153.428,319.101L161.276,319.101L161.276,321.765L146.948,321.765L146.948,320.721C147.476,320.169 148.112,319.485 148.856,318.669C149.6,317.853 150.374,316.947 151.178,315.951C151.982,314.955 152.774,313.899 153.554,312.783C154.334,311.667 155.042,310.533 155.678,309.381C156.314,308.229 156.824,307.089 157.208,305.961C157.592,304.833 157.784,303.765 157.784,302.757C157.784,301.581 157.448,300.603 156.776,299.823C156.104,299.043 155.084,298.653 153.716,298.653C152.804,298.653 151.916,298.839 151.052,299.211C150.188,299.583 149.444,300.009 148.82,300.489L147.632,298.437C148.472,297.717 149.468,297.153 150.62,296.745C151.772,296.337 153.008,296.133 154.328,296.133C155.36,296.133 156.272,296.283 157.064,296.583C157.856,296.883 158.528,297.309 159.08,297.861C159.632,298.413 160.052,299.067 160.34,299.823C160.628,300.579 160.772,301.401 160.772,302.289Z" style="fill-rule:nonzero;"/>
            <path d="M148.676,222.532L157.712,201.436L159.296,199.672L157.172,199.996L146.912,199.996L146.912,197.332L161.96,197.332L161.96,198.304L151.592,222.532L148.676,222.532Z" style="fill-rule:nonzero;"/>
            <path d="M162.428,117.752C162.428,118.856 162.26,119.894 161.924,120.866C161.588,121.838 161.096,122.69 160.448,123.422C159.8,124.154 158.996,124.73 158.036,125.15C157.076,125.57 155.984,125.78 154.76,125.78C153.56,125.78 152.48,125.588 151.52,125.204C150.56,124.82 149.732,124.25 149.036,123.494C148.34,122.738 147.806,121.808 147.434,120.704C147.062,119.6 146.876,118.328 146.876,116.888C146.876,114.512 147.182,112.322 147.794,110.318C148.406,108.314 149.252,106.568 150.332,105.08C151.412,103.592 152.69,102.386 154.166,101.462C155.642,100.538 157.244,99.956 158.972,99.716L159.584,102.02C158.24,102.26 157.016,102.716 155.912,103.388C154.808,104.06 153.842,104.888 153.014,105.872C152.186,106.856 151.508,107.96 150.98,109.184C150.452,110.408 150.092,111.668 149.9,112.964C150.284,112.316 150.932,111.722 151.844,111.182C152.756,110.642 153.872,110.372 155.192,110.372C157.448,110.372 159.218,111.02 160.502,112.316C161.786,113.612 162.428,115.424 162.428,117.752ZM159.44,118.04C159.44,116.336 159.044,115.052 158.252,114.188C157.46,113.324 156.236,112.892 154.58,112.892C153.404,112.892 152.39,113.18 151.538,113.756C150.686,114.332 150.092,114.98 149.756,115.7C149.708,116.036 149.684,116.312 149.684,116.528L149.684,117.248C149.684,117.992 149.786,118.724 149.99,119.444C150.194,120.164 150.512,120.806 150.944,121.37C151.376,121.934 151.91,122.39 152.546,122.738C153.182,123.086 153.932,123.26 154.796,123.26C155.492,123.26 156.122,123.128 156.686,122.864C157.25,122.6 157.736,122.24 158.144,121.784C158.552,121.328 158.87,120.776 159.098,120.128C159.326,119.48 159.44,118.784 159.44,118.04Z" style="fill-rule:nonzero;"/>
            <path d="M236.914,418.229L241.954,418.229L241.954,400.805L242.314,398.681L240.874,400.373L236.914,403.217L235.546,401.381L243.466,395.261L244.762,395.261L244.762,418.229L249.694,418.229L249.694,420.893L236.914,420.893L236.914,418.229Z" style="fill-rule:nonzero;"/>
            <path d="M271.51,413.153L267.262,413.153L267.262,420.893L264.454,420.893L264.454,413.153L253.366,413.153L253.366,411.965L265.318,395.297L267.262,395.297L267.262,410.633L271.51,410.633L271.51,413.153ZM264.454,402.785L264.814,399.833L264.706,399.833L263.446,402.281L258.37,409.157L256.642,410.921L259.162,410.633L264.454,410.633L264.454,402.785Z" style="fill-rule:nonzero;"/>
            <path d="M236.914,319.101L241.954,319.101L241.954,301.677L242.314,299.553L240.874,301.245L236.914,304.089L235.546,302.253L243.466,296.133L244.762,296.133L244.762,319.101L249.694,319.101L249.694,321.765L236.914,321.765L236.914,319.101Z" style="fill-rule:nonzero;"/>
            <path d="M261.07,319.677C261.886,319.677 262.642,319.557 263.338,319.317C264.034,319.077 264.634,318.723 265.138,318.255C265.642,317.787 266.038,317.229 266.326,316.581C266.614,315.933 266.758,315.225 266.758,314.457C266.758,312.777 266.26,311.529 265.264,310.713C264.268,309.897 262.894,309.489 261.142,309.489L258.478,309.489L258.478,308.445L263.662,300.453L265.318,298.869L262.978,299.229L255.85,299.229L255.85,296.565L268.702,296.565L268.702,297.609L262.978,306.213L261.718,307.257L261.718,307.329L262.942,307.077C263.902,307.101 264.79,307.275 265.606,307.599C266.422,307.923 267.13,308.391 267.73,309.003C268.33,309.615 268.798,310.347 269.134,311.199C269.47,312.051 269.638,313.017 269.638,314.097C269.638,315.393 269.41,316.545 268.954,317.553C268.498,318.561 267.88,319.407 267.1,320.091C266.32,320.775 265.402,321.297 264.346,321.657C263.29,322.017 262.174,322.197 260.998,322.197C259.918,322.197 258.946,322.113 258.082,321.945C257.218,321.777 256.462,321.561 255.814,321.297L256.57,318.741C257.122,319.005 257.776,319.227 258.532,319.407C259.288,319.587 260.134,319.677 261.07,319.677Z" style="fill-rule:nonzero;"/>
            <path d="M245.284,216.52C245.284,215.008 245.68,213.694 246.472,212.578C247.264,211.462 248.5,210.448 250.18,209.536C249.58,209.176 249.022,208.798 248.506,208.402C247.99,208.006 247.534,207.556 247.138,207.052C246.742,206.548 246.43,205.984 246.202,205.36C245.974,204.736 245.86,204.016 245.86,203.2C245.86,202.264 246.022,201.412 246.346,200.644C246.67,199.876 247.138,199.216 247.75,198.664C248.362,198.112 249.094,197.68 249.946,197.368C250.798,197.056 251.764,196.9 252.844,196.9C253.852,196.9 254.764,197.044 255.58,197.332C256.396,197.62 257.086,198.016 257.65,198.52C258.214,199.024 258.652,199.624 258.964,200.32C259.276,201.016 259.432,201.784 259.432,202.624C259.432,203.992 259.12,205.198 258.496,206.242C257.872,207.286 256.84,208.312 255.4,209.32C256.024,209.68 256.618,210.076 257.182,210.508C257.746,210.94 258.238,211.42 258.658,211.948C259.078,212.476 259.408,213.07 259.648,213.73C259.888,214.39 260.008,215.14 260.008,215.98C260.008,217.012 259.84,217.954 259.504,218.806C259.168,219.658 258.676,220.39 258.028,221.002C257.38,221.614 256.588,222.094 255.652,222.442C254.716,222.79 253.648,222.964 252.448,222.964C251.296,222.964 250.276,222.796 249.388,222.46C248.5,222.124 247.75,221.668 247.138,221.092C246.526,220.516 246.064,219.838 245.752,219.058C245.44,218.278 245.284,217.432 245.284,216.52ZM257.2,216.16C257.2,215.44 257.056,214.81 256.768,214.27C256.48,213.73 256.102,213.238 255.634,212.794C255.166,212.35 254.632,211.948 254.032,211.588C253.432,211.228 252.808,210.88 252.16,210.544C250.696,211.36 249.652,212.272 249.028,213.28C248.404,214.288 248.092,215.248 248.092,216.16C248.092,216.736 248.188,217.288 248.38,217.816C248.572,218.344 248.86,218.8 249.244,219.184C249.628,219.568 250.102,219.874 250.666,220.102C251.23,220.33 251.884,220.444 252.628,220.444C253.228,220.444 253.804,220.354 254.356,220.174C254.908,219.994 255.394,219.73 255.814,219.382C256.234,219.034 256.57,218.59 256.822,218.05C257.074,217.51 257.2,216.88 257.2,216.16ZM248.668,203.128C248.668,203.8 248.8,204.394 249.064,204.91C249.328,205.426 249.682,205.888 250.126,206.296C250.57,206.704 251.08,207.082 251.656,207.43C252.232,207.778 252.832,208.108 253.456,208.42C254.536,207.58 255.334,206.752 255.85,205.936C256.366,205.12 256.624,204.22 256.624,203.236C256.624,202.012 256.246,201.07 255.49,200.41C254.734,199.75 253.828,199.42 252.772,199.42C252.124,199.42 251.548,199.528 251.044,199.744C250.54,199.96 250.108,200.236 249.748,200.572C249.388,200.908 249.118,201.298 248.938,201.742C248.758,202.186 248.668,202.648 248.668,203.128Z" style="fill-rule:nonzero;"/>
            <path d="M244.708,107.78C244.708,106.628 244.876,105.56 245.212,104.576C245.548,103.592 246.04,102.74 246.688,102.02C247.336,101.3 248.146,100.736 249.118,100.328C250.09,99.92 251.224,99.716 252.52,99.716C254.968,99.716 256.876,100.508 258.244,102.092C259.612,103.676 260.296,105.908 260.296,108.788C260.296,111.5 259.99,113.87 259.378,115.898C258.766,117.926 257.92,119.636 256.84,121.028C255.76,122.42 254.482,123.506 253.006,124.286C251.53,125.066 249.928,125.564 248.2,125.78L247.552,123.476C248.944,123.26 250.198,122.852 251.314,122.252C252.43,121.652 253.39,120.896 254.194,119.984C254.998,119.072 255.652,118.034 256.156,116.87C256.66,115.706 257.008,114.44 257.2,113.072C256.552,113.84 255.838,114.374 255.058,114.674C254.278,114.974 253.252,115.124 251.98,115.124C250.996,115.124 250.066,114.962 249.19,114.638C248.314,114.314 247.54,113.84 246.868,113.216C246.196,112.592 245.668,111.824 245.284,110.912C244.9,110 244.708,108.956 244.708,107.78ZM247.696,107.492C247.696,109.196 248.146,110.474 249.046,111.326C249.946,112.178 251.128,112.604 252.592,112.604C253.768,112.604 254.776,112.412 255.616,112.028C256.456,111.644 257.056,111.14 257.416,110.516C257.464,110.204 257.488,109.928 257.488,109.688L257.488,108.932C257.488,108.068 257.386,107.234 257.182,106.43C256.978,105.626 256.672,104.906 256.264,104.27C255.856,103.634 255.322,103.136 254.662,102.776C254.002,102.416 253.228,102.236 252.34,102.236C250.876,102.236 249.736,102.698 248.92,103.622C248.104,104.546 247.696,105.836 247.696,107.492Z" style="fill-rule:nonzero;"/>
            <path d="M335.299,418.229L340.339,418.229L340.339,400.805L340.699,398.681L339.259,400.373L335.299,403.217L333.931,401.381L341.851,395.261L343.147,395.261L343.147,418.229L348.079,418.229L348.079,420.893L335.299,420.893L335.299,418.229Z" style="fill-rule:nonzero;"/>
            <path d="M358.699,418.805C360.355,418.805 361.723,418.325 362.803,417.365C363.883,416.405 364.423,415.013 364.423,413.189C364.423,411.437 363.889,410.129 362.821,409.265C361.753,408.401 360.283,407.969 358.411,407.969L355.387,408.149L355.387,395.693L366.619,395.693L366.619,398.357L358.087,398.357L358.087,405.521L359.635,405.449C362.011,405.473 363.883,406.133 365.251,407.429C366.619,408.725 367.303,410.585 367.303,413.009C367.303,414.353 367.075,415.547 366.619,416.591C366.163,417.635 365.545,418.505 364.765,419.201C363.985,419.897 363.067,420.425 362.011,420.785C360.955,421.145 359.827,421.325 358.627,421.325C357.547,421.325 356.635,421.265 355.891,421.145C355.147,421.025 354.451,420.845 353.803,420.605L354.559,418.157C355.111,418.373 355.705,418.535 356.341,418.643C356.977,418.751 357.763,418.805 358.699,418.805Z" style="fill-rule:nonzero;"/>
            <path d="M335.299,319.101L340.339,319.101L340.339,301.677L340.699,299.553L339.259,301.245L335.299,304.089L333.931,302.253L341.851,296.133L343.147,296.133L343.147,319.101L348.079,319.101L348.079,321.765L335.299,321.765L335.299,319.101Z" style="fill-rule:nonzero;"/>
            <path d="M367.087,302.289C367.087,303.561 366.853,304.863 366.385,306.195C365.917,307.527 365.305,308.865 364.549,310.209C363.793,311.553 362.947,312.867 362.011,314.151C361.075,315.435 360.139,316.653 359.203,317.805L357.439,319.353L357.439,319.497L359.743,319.101L367.591,319.101L367.591,321.765L353.263,321.765L353.263,320.721C353.791,320.169 354.427,319.485 355.171,318.669C355.915,317.853 356.689,316.947 357.493,315.951C358.297,314.955 359.089,313.899 359.869,312.783C360.649,311.667 361.357,310.533 361.993,309.381C362.629,308.229 363.139,307.089 363.523,305.961C363.907,304.833 364.099,303.765 364.099,302.757C364.099,301.581 363.763,300.603 363.091,299.823C362.419,299.043 361.399,298.653 360.031,298.653C359.119,298.653 358.231,298.839 357.367,299.211C356.503,299.583 355.759,300.009 355.135,300.489L353.947,298.437C354.787,297.717 355.783,297.153 356.935,296.745C358.087,296.337 359.323,296.133 360.643,296.133C361.675,296.133 362.587,296.283 363.379,296.583C364.171,296.883 364.843,297.309 365.395,297.861C365.947,298.413 366.367,299.067 366.655,299.823C366.943,300.579 367.087,301.401 367.087,302.289Z" style="fill-rule:nonzero;"/>
            <path d="M335.299,219.868L340.339,219.868L340.339,202.444L340.699,200.32L339.259,202.012L335.299,204.856L333.931,203.02L341.851,196.9L343.147,196.9L343.147,219.868L348.079,219.868L348.079,222.532L335.299,222.532L335.299,219.868Z" style="fill-rule:nonzero;"/>
            <path d="M354.919,219.868L359.959,219.868L359.959,202.444L360.319,200.32L358.879,202.012L354.919,204.856L353.551,203.02L361.471,196.9L362.767,196.9L362.767,219.868L367.699,219.868L367.699,222.532L354.919,222.532L354.919,219.868Z" style="fill-rule:nonzero;"/>
            <path d="M335.299,122.684L340.339,122.684L340.339,105.26L340.699,103.136L339.259,104.828L335.299,107.672L333.931,105.836L341.851,99.716L343.147,99.716L343.147,122.684L348.079,122.684L348.079,125.348L335.299,125.348L335.299,122.684Z" style="fill-rule:nonzero;"/>
            <path d="M352.579,112.748C352.579,108.428 353.281,105.176 354.685,102.992C356.089,100.808 358.135,99.716 360.823,99.716C363.727,99.716 365.833,100.79 367.141,102.938C368.449,105.086 369.103,108.356 369.103,112.748C369.103,117.068 368.401,120.32 366.997,122.504C365.593,124.688 363.535,125.78 360.823,125.78C357.967,125.78 355.879,124.64 354.559,122.36C353.239,120.08 352.579,116.876 352.579,112.748ZM355.567,112.748C355.567,114.308 355.669,115.73 355.873,117.014C356.077,118.298 356.395,119.402 356.827,120.326C357.259,121.25 357.805,121.97 358.465,122.486C359.125,123.002 359.911,123.26 360.823,123.26C362.647,123.26 363.985,122.414 364.837,120.722C365.689,119.03 366.115,116.372 366.115,112.748C366.115,111.212 366.025,109.796 365.845,108.5C365.665,107.204 365.365,106.088 364.945,105.152C364.525,104.216 363.979,103.496 363.307,102.992C362.635,102.488 361.807,102.236 360.823,102.236C359.023,102.236 357.697,103.088 356.845,104.792C355.993,106.496 355.567,109.148 355.567,112.748Z" style="fill-rule:nonzero;"/>
        </g>
        <g id="digits1" serif:id="digits">
        </g>
    </g>
</svg>
