<?xml version="1.0" encoding="UTF-8" standalone="no"?>
<!DOCTYPE svg PUBLIC "-//W3C//DTD SVG 1.1//EN" "http://www.w3.org/Graphics/SVG/1.1/DTD/svg11.dtd">
<svg width="100%" height="100%" viewBox="0 0 339 554" version="1.1" xmlns="http://www.w3.org/2000/svg" xmlns:xlink="http://www.w3.org/1999/xlink" xml:space="preserve" xmlns:serif="http://www.serif.com/" style="fill-rule:evenodd;clip-rule:evenodd;stroke-linecap:square;stroke-linejoin:round;stroke-miterlimit:10;">
    <rect id="Geometric-Operations-2" serif:id="Geometric Operations 2" x="-1528" y="-976" width="4299" height="2861" style="fill:none;"/>
    <g id="Geometric-Operations-21" serif:id="Geometric Operations 2">
        <path d="M584.605,-121L421.813,-121L421.813,271L258.813,271L258.813,84L73.605,84L73.605,481L584.605,481L584.605,-121Z" style="fill:rgb(248,253,112);stroke:rgb(21,183,183);stroke-width:6px;"/>
        <path d="M421.813,-121L73.605,-121L73.605,84L258.813,84L258.813,271L421.813,271L421.813,-121Z" style="fill:rgb(248,253,112);stroke:rgb(21,183,183);stroke-width:6px;"/>
        <rect x="73.605" y="84" width="185.208" height="397" style="fill:rgb(248,253,112);stroke:rgb(21,183,183);stroke-width:6px;"/>
        <circle cx="260.641" cy="482.751" r="10" style="fill:rgb(249,85,85);"/>
        <circle cx="260.641" cy="272.056" r="10" style="fill:rgb(249,85,85);"/>
        <circle cx="258.813" cy="84" r="10" style="fill:rgb(249,85,85);"/>
        <circle cx="74.011" cy="84" r="10" style="fill:rgb(249,85,85);"/>
        <circle cx="76.011" cy="479.883" r="10" style="fill:rgb(249,85,85);"/>
        <g transform="matrix(1,0,0,1,-7497.67,-11373.1)">
            <g transform="matrix(36,0,0,36,7788.35,11561.2)">
                <path d="M0.442,-0.04C0.422,-0.024 0.397,-0.011 0.367,-0.002C0.336,0.007 0.304,0.012 0.27,0.012C0.232,0.012 0.199,0.006 0.171,-0.007C0.143,-0.019 0.12,-0.037 0.102,-0.06C0.084,-0.083 0.071,-0.11 0.062,-0.142C0.053,-0.174 0.049,-0.21 0.049,-0.25C0.049,-0.335 0.068,-0.4 0.106,-0.445C0.144,-0.49 0.198,-0.512 0.269,-0.512C0.292,-0.512 0.314,-0.51 0.337,-0.505C0.36,-0.5 0.38,-0.49 0.398,-0.476C0.416,-0.462 0.431,-0.442 0.442,-0.417C0.453,-0.391 0.459,-0.357 0.459,-0.315C0.459,-0.293 0.457,-0.269 0.453,-0.242L0.132,-0.242C0.132,-0.213 0.135,-0.187 0.141,-0.164C0.147,-0.141 0.156,-0.122 0.169,-0.107C0.182,-0.091 0.198,-0.079 0.219,-0.071C0.239,-0.062 0.264,-0.058 0.293,-0.058C0.316,-0.058 0.338,-0.062 0.361,-0.07C0.384,-0.078 0.401,-0.087 0.412,-0.098L0.442,-0.04ZM0.27,-0.442C0.231,-0.442 0.199,-0.432 0.176,-0.411C0.152,-0.39 0.138,-0.355 0.133,-0.305L0.381,-0.305C0.381,-0.356 0.371,-0.391 0.352,-0.412C0.333,-0.432 0.305,-0.442 0.27,-0.442Z" style="fill-rule:nonzero;"/>
            </g>
            <g transform="matrix(20.988,0,0,20.988,7806.63,11573.2)">
                <path d="M0.446,-0.541C0.446,-0.506 0.44,-0.47 0.427,-0.433C0.413,-0.396 0.397,-0.358 0.376,-0.321C0.355,-0.284 0.331,-0.247 0.305,-0.212C0.279,-0.176 0.253,-0.142 0.227,-0.11L0.178,-0.067L0.178,-0.063L0.242,-0.074L0.46,-0.074L0.46,-0L0.062,-0L0.062,-0.029C0.077,-0.044 0.094,-0.063 0.115,-0.086C0.136,-0.109 0.157,-0.134 0.18,-0.162C0.202,-0.189 0.224,-0.219 0.246,-0.25C0.267,-0.28 0.287,-0.312 0.305,-0.344C0.322,-0.376 0.336,-0.408 0.347,-0.439C0.358,-0.47 0.363,-0.5 0.363,-0.528C0.363,-0.561 0.354,-0.588 0.335,-0.61C0.316,-0.631 0.288,-0.642 0.25,-0.642C0.225,-0.642 0.2,-0.637 0.176,-0.627C0.152,-0.616 0.131,-0.604 0.114,-0.591L0.081,-0.648C0.104,-0.668 0.132,-0.684 0.164,-0.695C0.196,-0.706 0.23,-0.712 0.267,-0.712C0.296,-0.712 0.321,-0.708 0.343,-0.7C0.365,-0.691 0.384,-0.679 0.399,-0.664C0.414,-0.649 0.426,-0.631 0.434,-0.61C0.442,-0.588 0.446,-0.566 0.446,-0.541Z" style="fill-rule:nonzero;"/>
            </g>
            <g transform="matrix(20.988,0,0,20.988,7818.07,11573.2)">
                <path d="M0.049,-0.043C0.049,-0.059 0.054,-0.072 0.065,-0.082C0.076,-0.092 0.089,-0.097 0.106,-0.097C0.127,-0.097 0.143,-0.09 0.157,-0.075C0.169,-0.06 0.176,-0.039 0.176,-0.011C0.176,0.013 0.173,0.034 0.166,0.052C0.159,0.07 0.151,0.086 0.14,0.099C0.129,0.112 0.118,0.122 0.105,0.131C0.092,0.139 0.08,0.145 0.067,0.149L0.042,0.11C0.066,0.101 0.084,0.086 0.096,0.067C0.107,0.047 0.113,0.027 0.113,0.007C0.107,0.009 0.101,0.01 0.096,0.01C0.083,0.01 0.071,0.006 0.063,-0.004C0.054,-0.013 0.049,-0.026 0.049,-0.043Z" style="fill-rule:nonzero;"/>
            </g>
            <g transform="matrix(20.988,0,0,20.988,7822.17,11573.2)">
                <path d="M0.043,-0.35C0.043,-0.47 0.063,-0.56 0.102,-0.621C0.14,-0.682 0.197,-0.712 0.272,-0.712C0.353,-0.712 0.411,-0.682 0.448,-0.623C0.484,-0.563 0.502,-0.472 0.502,-0.35C0.502,-0.23 0.483,-0.14 0.444,-0.079C0.405,-0.018 0.347,0.012 0.272,0.012C0.193,0.012 0.135,-0.02 0.098,-0.083C0.061,-0.146 0.043,-0.235 0.043,-0.35ZM0.126,-0.35C0.126,-0.307 0.129,-0.267 0.135,-0.232C0.14,-0.196 0.149,-0.165 0.161,-0.14C0.173,-0.114 0.188,-0.094 0.207,-0.08C0.225,-0.065 0.247,-0.058 0.272,-0.058C0.323,-0.058 0.36,-0.082 0.384,-0.129C0.407,-0.175 0.419,-0.249 0.419,-0.35C0.419,-0.393 0.417,-0.432 0.412,-0.468C0.407,-0.504 0.398,-0.535 0.387,-0.561C0.375,-0.587 0.36,-0.607 0.341,-0.621C0.322,-0.635 0.299,-0.642 0.272,-0.642C0.222,-0.642 0.185,-0.618 0.162,-0.571C0.138,-0.524 0.126,-0.45 0.126,-0.35Z" style="fill-rule:nonzero;"/>
            </g>
        </g>
        <g transform="matrix(1,0,0,1,-7601.77,-11373.1)">
            <g transform="matrix(36,0,0,36,7788.35,11561.2)">
                <path d="M0.442,-0.04C0.422,-0.024 0.397,-0.011 0.367,-0.002C0.336,0.007 0.304,0.012 0.27,0.012C0.232,0.012 0.199,0.006 0.171,-0.007C0.143,-0.019 0.12,-0.037 0.102,-0.06C0.084,-0.083 0.071,-0.11 0.062,-0.142C0.053,-0.174 0.049,-0.21 0.049,-0.25C0.049,-0.335 0.068,-0.4 0.106,-0.445C0.144,-0.49 0.198,-0.512 0.269,-0.512C0.292,-0.512 0.314,-0.51 0.337,-0.505C0.36,-0.5 0.38,-0.49 0.398,-0.476C0.416,-0.462 0.431,-0.442 0.442,-0.417C0.453,-0.391 0.459,-0.357 0.459,-0.315C0.459,-0.293 0.457,-0.269 0.453,-0.242L0.132,-0.242C0.132,-0.213 0.135,-0.187 0.141,-0.164C0.147,-0.141 0.156,-0.122 0.169,-0.107C0.182,-0.091 0.198,-0.079 0.219,-0.071C0.239,-0.062 0.264,-0.058 0.293,-0.058C0.316,-0.058 0.338,-0.062 0.361,-0.07C0.384,-0.078 0.401,-0.087 0.412,-0.098L0.442,-0.04ZM0.27,-0.442C0.231,-0.442 0.199,-0.432 0.176,-0.411C0.152,-0.39 0.138,-0.355 0.133,-0.305L0.381,-0.305C0.381,-0.356 0.371,-0.391 0.352,-0.412C0.333,-0.432 0.305,-0.442 0.27,-0.442Z" style="fill-rule:nonzero;"/>
            </g>
            <g transform="matrix(20.988,0,0,20.988,7806.63,11573.2)">
                <path d="M0.446,-0.541C0.446,-0.506 0.44,-0.47 0.427,-0.433C0.413,-0.396 0.397,-0.358 0.376,-0.321C0.355,-0.284 0.331,-0.247 0.305,-0.212C0.279,-0.176 0.253,-0.142 0.227,-0.11L0.178,-0.067L0.178,-0.063L0.242,-0.074L0.46,-0.074L0.46,-0L0.062,-0L0.062,-0.029C0.077,-0.044 0.094,-0.063 0.115,-0.086C0.136,-0.109 0.157,-0.134 0.18,-0.162C0.202,-0.189 0.224,-0.219 0.246,-0.25C0.267,-0.28 0.287,-0.312 0.305,-0.344C0.322,-0.376 0.336,-0.408 0.347,-0.439C0.358,-0.47 0.363,-0.5 0.363,-0.528C0.363,-0.561 0.354,-0.588 0.335,-0.61C0.316,-0.631 0.288,-0.642 0.25,-0.642C0.225,-0.642 0.2,-0.637 0.176,-0.627C0.152,-0.616 0.131,-0.604 0.114,-0.591L0.081,-0.648C0.104,-0.668 0.132,-0.684 0.164,-0.695C0.196,-0.706 0.23,-0.712 0.267,-0.712C0.296,-0.712 0.321,-0.708 0.343,-0.7C0.365,-0.691 0.384,-0.679 0.399,-0.664C0.414,-0.649 0.426,-0.631 0.434,-0.61C0.442,-0.588 0.446,-0.566 0.446,-0.541Z" style="fill-rule:nonzero;"/>
            </g>
            <g transform="matrix(20.988,0,0,20.988,7818.07,11573.2)">
                <path d="M0.049,-0.043C0.049,-0.059 0.054,-0.072 0.065,-0.082C0.076,-0.092 0.089,-0.097 0.106,-0.097C0.127,-0.097 0.143,-0.09 0.157,-0.075C0.169,-0.06 0.176,-0.039 0.176,-0.011C0.176,0.013 0.173,0.034 0.166,0.052C0.159,0.07 0.151,0.086 0.14,0.099C0.129,0.112 0.118,0.122 0.105,0.131C0.092,0.139 0.08,0.145 0.067,0.149L0.042,0.11C0.066,0.101 0.084,0.086 0.096,0.067C0.107,0.047 0.113,0.027 0.113,0.007C0.107,0.009 0.101,0.01 0.096,0.01C0.083,0.01 0.071,0.006 0.063,-0.004C0.054,-0.013 0.049,-0.026 0.049,-0.043Z" style="fill-rule:nonzero;"/>
            </g>
            <g transform="matrix(20.988,0,0,20.988,7822.17,11573.2)">
                <path d="M0.108,-0.074L0.248,-0.074L0.248,-0.558L0.258,-0.617L0.218,-0.57L0.108,-0.491L0.07,-0.542L0.29,-0.712L0.326,-0.712L0.326,-0.074L0.463,-0.074L0.463,-0L0.108,-0L0.108,-0.074Z" style="fill-rule:nonzero;"/>
            </g>
        </g>
        <path d="M250,129L241,111L232,129C236.5,124.5 245.5,124.5 250,129Z"/>
        <path d="M241,125.4L241,264" style="fill:none;stroke:black;stroke-width:4px;"/>
        <path d="M102.054,430.5L90.054,454.5L78.054,430.5C84.054,436.5 96.054,436.5 102.054,430.5Z"/>
        <path d="M90.054,111L90.054,435.3" style="fill:none;stroke:black;stroke-width:4px;"/>
        <path d="M101.054,44.472L92.054,62.472L83.054,44.472C87.554,48.972 96.554,48.972 101.054,44.472Z"/>
        <path d="M92.054,-101.028L92.054,48.072" style="fill:none;stroke:black;stroke-width:4px;"/>
        <path d="M61.974,-83.028L52.974,-101.028L43.974,-83.028C48.474,-87.528 57.474,-87.528 61.974,-83.028Z"/>
        <path d="M52.974,-86.628L52.974,62.472" style="fill:none;stroke:black;stroke-width:4px;"/>
        <path d="M63.813,129L54.813,111L45.813,129C50.313,124.5 59.313,124.5 63.813,129Z"/>
        <path d="M54.813,125.4L54.813,454.5" style="fill:none;stroke:black;stroke-width:4px;"/>
        <path d="M250,300.5L241,282.5L232,300.5C236.5,296 245.5,296 250,300.5Z"/>
        <path d="M241,296.9L241,454.5" style="fill:none;stroke:black;stroke-width:4px;"/>
        <path d="M287.168,236.535L278.168,254.535L269.168,236.535C273.668,241.035 282.668,241.035 287.168,236.535Z"/>
        <path d="M278.168,111L278.168,240.135" style="fill:none;stroke:black;stroke-width:4px;"/>
        <path d="M286.168,436.5L277.168,454.5L268.168,436.5C272.668,441 281.668,441 286.168,436.5Z"/>
        <path d="M277.168,287.556L277.168,440.1" style="fill:none;stroke:black;stroke-width:4px;"/>
        <g transform="matrix(1,0,0,1,-7644.36,-11516.4)">
            <g transform="matrix(36,0,0,36,7788.35,11561.2)">
                <path d="M0.442,-0.04C0.422,-0.024 0.397,-0.011 0.367,-0.002C0.336,0.007 0.304,0.012 0.27,0.012C0.232,0.012 0.199,0.006 0.171,-0.007C0.143,-0.019 0.12,-0.037 0.102,-0.06C0.084,-0.083 0.071,-0.11 0.062,-0.142C0.053,-0.174 0.049,-0.21 0.049,-0.25C0.049,-0.335 0.068,-0.4 0.106,-0.445C0.144,-0.49 0.198,-0.512 0.269,-0.512C0.292,-0.512 0.314,-0.51 0.337,-0.505C0.36,-0.5 0.38,-0.49 0.398,-0.476C0.416,-0.462 0.431,-0.442 0.442,-0.417C0.453,-0.391 0.459,-0.357 0.459,-0.315C0.459,-0.293 0.457,-0.269 0.453,-0.242L0.132,-0.242C0.132,-0.213 0.135,-0.187 0.141,-0.164C0.147,-0.141 0.156,-0.122 0.169,-0.107C0.182,-0.091 0.198,-0.079 0.219,-0.071C0.239,-0.062 0.264,-0.058 0.293,-0.058C0.316,-0.058 0.338,-0.062 0.361,-0.07C0.384,-0.078 0.401,-0.087 0.412,-0.098L0.442,-0.04ZM0.27,-0.442C0.231,-0.442 0.199,-0.432 0.176,-0.411C0.152,-0.39 0.138,-0.355 0.133,-0.305L0.381,-0.305C0.381,-0.356 0.371,-0.391 0.352,-0.412C0.333,-0.432 0.305,-0.442 0.27,-0.442Z" style="fill-rule:nonzero;"/>
            </g>
            <g transform="matrix(20.988,0,0,20.988,7806.63,11573.2)">
                <path d="M0.108,-0.074L0.248,-0.074L0.248,-0.558L0.258,-0.617L0.218,-0.57L0.108,-0.491L0.07,-0.542L0.29,-0.712L0.326,-0.712L0.326,-0.074L0.463,-0.074L0.463,-0L0.108,-0L0.108,-0.074Z" style="fill-rule:nonzero;"/>
            </g>
            <g transform="matrix(20.988,0,0,20.988,7818.07,11573.2)">
                <path d="M0.049,-0.043C0.049,-0.059 0.054,-0.072 0.065,-0.082C0.076,-0.092 0.089,-0.097 0.106,-0.097C0.127,-0.097 0.143,-0.09 0.157,-0.075C0.169,-0.06 0.176,-0.039 0.176,-0.011C0.176,0.013 0.173,0.034 0.166,0.052C0.159,0.07 0.151,0.086 0.14,0.099C0.129,0.112 0.118,0.122 0.105,0.131C0.092,0.139 0.08,0.145 0.067,0.149L0.042,0.11C0.066,0.101 0.084,0.086 0.096,0.067C0.107,0.047 0.113,0.027 0.113,0.007C0.107,0.009 0.101,0.01 0.096,0.01C0.083,0.01 0.071,0.006 0.063,-0.004C0.054,-0.013 0.049,-0.026 0.049,-0.043Z" style="fill-rule:nonzero;"/>
            </g>
            <g transform="matrix(20.988,0,0,20.988,7822.17,11573.2)">
                <path d="M0.043,-0.35C0.043,-0.47 0.063,-0.56 0.102,-0.621C0.14,-0.682 0.197,-0.712 0.272,-0.712C0.353,-0.712 0.411,-0.682 0.448,-0.623C0.484,-0.563 0.502,-0.472 0.502,-0.35C0.502,-0.23 0.483,-0.14 0.444,-0.079C0.405,-0.018 0.347,0.012 0.272,0.012C0.193,0.012 0.135,-0.02 0.098,-0.083C0.061,-0.146 0.043,-0.235 0.043,-0.35ZM0.126,-0.35C0.126,-0.307 0.129,-0.267 0.135,-0.232C0.14,-0.196 0.149,-0.165 0.161,-0.14C0.173,-0.114 0.188,-0.094 0.207,-0.08C0.225,-0.065 0.247,-0.058 0.272,-0.058C0.323,-0.058 0.36,-0.082 0.384,-0.129C0.407,-0.175 0.419,-0.249 0.419,-0.35C0.419,-0.393 0.417,-0.432 0.412,-0.468C0.407,-0.504 0.398,-0.535 0.387,-0.561C0.375,-0.587 0.36,-0.607 0.341,-0.621C0.322,-0.635 0.299,-0.642 0.272,-0.642C0.222,-0.642 0.185,-0.618 0.162,-0.571C0.138,-0.524 0.126,-0.45 0.126,-0.35Z" style="fill-rule:nonzero;"/>
            </g>
        </g>
        <g transform="matrix(1,0,0,1,-7644.36,-11429.3)">
            <g transform="matrix(36,0,0,36,7788.35,11561.2)">
                <path d="M0.442,-0.04C0.422,-0.024 0.397,-0.011 0.367,-0.002C0.336,0.007 0.304,0.012 0.27,0.012C0.232,0.012 0.199,0.006 0.171,-0.007C0.143,-0.019 0.12,-0.037 0.102,-0.06C0.084,-0.083 0.071,-0.11 0.062,-0.142C0.053,-0.174 0.049,-0.21 0.049,-0.25C0.049,-0.335 0.068,-0.4 0.106,-0.445C0.144,-0.49 0.198,-0.512 0.269,-0.512C0.292,-0.512 0.314,-0.51 0.337,-0.505C0.36,-0.5 0.38,-0.49 0.398,-0.476C0.416,-0.462 0.431,-0.442 0.442,-0.417C0.453,-0.391 0.459,-0.357 0.459,-0.315C0.459,-0.293 0.457,-0.269 0.453,-0.242L0.132,-0.242C0.132,-0.213 0.135,-0.187 0.141,-0.164C0.147,-0.141 0.156,-0.122 0.169,-0.107C0.182,-0.091 0.198,-0.079 0.219,-0.071C0.239,-0.062 0.264,-0.058 0.293,-0.058C0.316,-0.058 0.338,-0.062 0.361,-0.07C0.384,-0.078 0.401,-0.087 0.412,-0.098L0.442,-0.04ZM0.27,-0.442C0.231,-0.442 0.199,-0.432 0.176,-0.411C0.152,-0.39 0.138,-0.355 0.133,-0.305L0.381,-0.305C0.381,-0.356 0.371,-0.391 0.352,-0.412C0.333,-0.432 0.305,-0.442 0.27,-0.442Z" style="fill-rule:nonzero;"/>
            </g>
            <g transform="matrix(20.988,0,0,20.988,7806.63,11573.2)">
                <path d="M0.108,-0.074L0.248,-0.074L0.248,-0.558L0.258,-0.617L0.218,-0.57L0.108,-0.491L0.07,-0.542L0.29,-0.712L0.326,-0.712L0.326,-0.074L0.463,-0.074L0.463,-0L0.108,-0L0.108,-0.074Z" style="fill-rule:nonzero;"/>
            </g>
            <g transform="matrix(20.988,0,0,20.988,7818.07,11573.2)">
                <path d="M0.049,-0.043C0.049,-0.059 0.054,-0.072 0.065,-0.082C0.076,-0.092 0.089,-0.097 0.106,-0.097C0.127,-0.097 0.143,-0.09 0.157,-0.075C0.169,-0.06 0.176,-0.039 0.176,-0.011C0.176,0.013 0.173,0.034 0.166,0.052C0.159,0.07 0.151,0.086 0.14,0.099C0.129,0.112 0.118,0.122 0.105,0.131C0.092,0.139 0.08,0.145 0.067,0.149L0.042,0.11C0.066,0.101 0.084,0.086 0.096,0.067C0.107,0.047 0.113,0.027 0.113,0.007C0.107,0.009 0.101,0.01 0.096,0.01C0.083,0.01 0.071,0.006 0.063,-0.004C0.054,-0.013 0.049,-0.026 0.049,-0.043Z" style="fill-rule:nonzero;"/>
            </g>
            <g transform="matrix(20.988,0,0,20.988,7822.17,11573.2)">
                <path d="M0.108,-0.074L0.248,-0.074L0.248,-0.558L0.258,-0.617L0.218,-0.57L0.108,-0.491L0.07,-0.542L0.29,-0.712L0.326,-0.712L0.326,-0.074L0.463,-0.074L0.463,-0L0.108,-0L0.108,-0.074Z" style="fill-rule:nonzero;"/>
            </g>
        </g>
        <g transform="matrix(1,0,0,1,-7497.29,-11206.5)">
            <g transform="matrix(36,0,0,36,7788.35,11561.2)">
                <path d="M0.442,-0.04C0.422,-0.024 0.397,-0.011 0.367,-0.002C0.336,0.007 0.304,0.012 0.27,0.012C0.232,0.012 0.199,0.006 0.171,-0.007C0.143,-0.019 0.12,-0.037 0.102,-0.06C0.084,-0.083 0.071,-0.11 0.062,-0.142C0.053,-0.174 0.049,-0.21 0.049,-0.25C0.049,-0.335 0.068,-0.4 0.106,-0.445C0.144,-0.49 0.198,-0.512 0.269,-0.512C0.292,-0.512 0.314,-0.51 0.337,-0.505C0.36,-0.5 0.38,-0.49 0.398,-0.476C0.416,-0.462 0.431,-0.442 0.442,-0.417C0.453,-0.391 0.459,-0.357 0.459,-0.315C0.459,-0.293 0.457,-0.269 0.453,-0.242L0.132,-0.242C0.132,-0.213 0.135,-0.187 0.141,-0.164C0.147,-0.141 0.156,-0.122 0.169,-0.107C0.182,-0.091 0.198,-0.079 0.219,-0.071C0.239,-0.062 0.264,-0.058 0.293,-0.058C0.316,-0.058 0.338,-0.062 0.361,-0.07C0.384,-0.078 0.401,-0.087 0.412,-0.098L0.442,-0.04ZM0.27,-0.442C0.231,-0.442 0.199,-0.432 0.176,-0.411C0.152,-0.39 0.138,-0.355 0.133,-0.305L0.381,-0.305C0.381,-0.356 0.371,-0.391 0.352,-0.412C0.333,-0.432 0.305,-0.442 0.27,-0.442Z" style="fill-rule:nonzero;"/>
            </g>
            <g transform="matrix(20.988,0,0,20.988,7806.63,11573.2)">
                <path d="M0.068,-0.167C0.068,-0.209 0.079,-0.246 0.101,-0.277C0.123,-0.308 0.157,-0.336 0.204,-0.361C0.187,-0.371 0.172,-0.382 0.158,-0.393C0.143,-0.404 0.131,-0.416 0.12,-0.43C0.109,-0.444 0.1,-0.46 0.094,-0.477C0.087,-0.494 0.084,-0.514 0.084,-0.537C0.084,-0.563 0.089,-0.587 0.098,-0.608C0.107,-0.629 0.12,-0.648 0.137,-0.663C0.154,-0.678 0.174,-0.69 0.198,-0.699C0.221,-0.708 0.248,-0.712 0.278,-0.712C0.306,-0.712 0.331,-0.708 0.354,-0.7C0.377,-0.692 0.396,-0.681 0.412,-0.667C0.427,-0.653 0.439,-0.636 0.448,-0.617C0.457,-0.598 0.461,-0.576 0.461,-0.553C0.461,-0.515 0.452,-0.482 0.435,-0.453C0.418,-0.424 0.389,-0.395 0.349,-0.367C0.366,-0.357 0.383,-0.346 0.399,-0.334C0.414,-0.322 0.428,-0.309 0.44,-0.294C0.451,-0.279 0.46,-0.263 0.467,-0.245C0.474,-0.226 0.477,-0.205 0.477,-0.182C0.477,-0.153 0.472,-0.127 0.463,-0.104C0.454,-0.08 0.44,-0.06 0.422,-0.043C0.404,-0.026 0.382,-0.012 0.356,-0.003C0.33,0.007 0.3,0.012 0.267,0.012C0.235,0.012 0.207,0.007 0.182,-0.002C0.157,-0.011 0.136,-0.024 0.12,-0.04C0.102,-0.056 0.09,-0.075 0.081,-0.097C0.072,-0.118 0.068,-0.142 0.068,-0.167ZM0.399,-0.177C0.399,-0.197 0.395,-0.215 0.387,-0.23C0.379,-0.245 0.369,-0.258 0.356,-0.271C0.343,-0.283 0.328,-0.294 0.311,-0.304C0.294,-0.314 0.277,-0.324 0.259,-0.333C0.218,-0.31 0.189,-0.285 0.172,-0.257C0.155,-0.229 0.146,-0.202 0.146,-0.177C0.146,-0.161 0.149,-0.146 0.154,-0.131C0.159,-0.116 0.167,-0.104 0.178,-0.093C0.189,-0.082 0.202,-0.074 0.218,-0.068C0.233,-0.061 0.251,-0.058 0.272,-0.058C0.289,-0.058 0.305,-0.061 0.32,-0.066C0.335,-0.07 0.349,-0.078 0.361,-0.088C0.372,-0.097 0.382,-0.11 0.389,-0.125C0.396,-0.139 0.399,-0.157 0.399,-0.177ZM0.162,-0.539C0.162,-0.52 0.166,-0.504 0.173,-0.49C0.18,-0.475 0.19,-0.462 0.203,-0.451C0.215,-0.44 0.229,-0.429 0.245,-0.42C0.261,-0.41 0.278,-0.401 0.295,-0.392C0.325,-0.415 0.347,-0.438 0.362,-0.461C0.376,-0.484 0.383,-0.509 0.383,-0.536C0.383,-0.57 0.373,-0.596 0.352,-0.615C0.331,-0.633 0.305,-0.642 0.276,-0.642C0.258,-0.642 0.242,-0.639 0.228,-0.633C0.214,-0.627 0.202,-0.619 0.192,-0.61C0.182,-0.601 0.174,-0.59 0.17,-0.578C0.165,-0.565 0.162,-0.552 0.162,-0.539Z" style="fill-rule:nonzero;"/>
            </g>
            <g transform="matrix(20.988,0,0,20.988,7818.07,11573.2)">
                <path d="M0.049,-0.043C0.049,-0.059 0.054,-0.072 0.065,-0.082C0.076,-0.092 0.089,-0.097 0.106,-0.097C0.127,-0.097 0.143,-0.09 0.157,-0.075C0.169,-0.06 0.176,-0.039 0.176,-0.011C0.176,0.013 0.173,0.034 0.166,0.052C0.159,0.07 0.151,0.086 0.14,0.099C0.129,0.112 0.118,0.122 0.105,0.131C0.092,0.139 0.08,0.145 0.067,0.149L0.042,0.11C0.066,0.101 0.084,0.086 0.096,0.067C0.107,0.047 0.113,0.027 0.113,0.007C0.107,0.009 0.101,0.01 0.096,0.01C0.083,0.01 0.071,0.006 0.063,-0.004C0.054,-0.013 0.049,-0.026 0.049,-0.043Z" style="fill-rule:nonzero;"/>
            </g>
            <g transform="matrix(20.988,0,0,20.988,7822.17,11573.2)">
                <path d="M0.108,-0.074L0.248,-0.074L0.248,-0.558L0.258,-0.617L0.218,-0.57L0.108,-0.491L0.07,-0.542L0.29,-0.712L0.326,-0.712L0.326,-0.074L0.463,-0.074L0.463,-0L0.108,-0L0.108,-0.074Z" style="fill-rule:nonzero;"/>
            </g>
        </g>
        <g transform="matrix(1,0,0,1,-7599.41,-11206.5)">
            <g transform="matrix(36,0,0,36,7788.35,11561.2)">
                <path d="M0.442,-0.04C0.422,-0.024 0.397,-0.011 0.367,-0.002C0.336,0.007 0.304,0.012 0.27,0.012C0.232,0.012 0.199,0.006 0.171,-0.007C0.143,-0.019 0.12,-0.037 0.102,-0.06C0.084,-0.083 0.071,-0.11 0.062,-0.142C0.053,-0.174 0.049,-0.21 0.049,-0.25C0.049,-0.335 0.068,-0.4 0.106,-0.445C0.144,-0.49 0.198,-0.512 0.269,-0.512C0.292,-0.512 0.314,-0.51 0.337,-0.505C0.36,-0.5 0.38,-0.49 0.398,-0.476C0.416,-0.462 0.431,-0.442 0.442,-0.417C0.453,-0.391 0.459,-0.357 0.459,-0.315C0.459,-0.293 0.457,-0.269 0.453,-0.242L0.132,-0.242C0.132,-0.213 0.135,-0.187 0.141,-0.164C0.147,-0.141 0.156,-0.122 0.169,-0.107C0.182,-0.091 0.198,-0.079 0.219,-0.071C0.239,-0.062 0.264,-0.058 0.293,-0.058C0.316,-0.058 0.338,-0.062 0.361,-0.07C0.384,-0.078 0.401,-0.087 0.412,-0.098L0.442,-0.04ZM0.27,-0.442C0.231,-0.442 0.199,-0.432 0.176,-0.411C0.152,-0.39 0.138,-0.355 0.133,-0.305L0.381,-0.305C0.381,-0.356 0.371,-0.391 0.352,-0.412C0.333,-0.432 0.305,-0.442 0.27,-0.442Z" style="fill-rule:nonzero;"/>
            </g>
            <g transform="matrix(20.988,0,0,20.988,7806.63,11573.2)">
                <path d="M0.068,-0.167C0.068,-0.209 0.079,-0.246 0.101,-0.277C0.123,-0.308 0.157,-0.336 0.204,-0.361C0.187,-0.371 0.172,-0.382 0.158,-0.393C0.143,-0.404 0.131,-0.416 0.12,-0.43C0.109,-0.444 0.1,-0.46 0.094,-0.477C0.087,-0.494 0.084,-0.514 0.084,-0.537C0.084,-0.563 0.089,-0.587 0.098,-0.608C0.107,-0.629 0.12,-0.648 0.137,-0.663C0.154,-0.678 0.174,-0.69 0.198,-0.699C0.221,-0.708 0.248,-0.712 0.278,-0.712C0.306,-0.712 0.331,-0.708 0.354,-0.7C0.377,-0.692 0.396,-0.681 0.412,-0.667C0.427,-0.653 0.439,-0.636 0.448,-0.617C0.457,-0.598 0.461,-0.576 0.461,-0.553C0.461,-0.515 0.452,-0.482 0.435,-0.453C0.418,-0.424 0.389,-0.395 0.349,-0.367C0.366,-0.357 0.383,-0.346 0.399,-0.334C0.414,-0.322 0.428,-0.309 0.44,-0.294C0.451,-0.279 0.46,-0.263 0.467,-0.245C0.474,-0.226 0.477,-0.205 0.477,-0.182C0.477,-0.153 0.472,-0.127 0.463,-0.104C0.454,-0.08 0.44,-0.06 0.422,-0.043C0.404,-0.026 0.382,-0.012 0.356,-0.003C0.33,0.007 0.3,0.012 0.267,0.012C0.235,0.012 0.207,0.007 0.182,-0.002C0.157,-0.011 0.136,-0.024 0.12,-0.04C0.102,-0.056 0.09,-0.075 0.081,-0.097C0.072,-0.118 0.068,-0.142 0.068,-0.167ZM0.399,-0.177C0.399,-0.197 0.395,-0.215 0.387,-0.23C0.379,-0.245 0.369,-0.258 0.356,-0.271C0.343,-0.283 0.328,-0.294 0.311,-0.304C0.294,-0.314 0.277,-0.324 0.259,-0.333C0.218,-0.31 0.189,-0.285 0.172,-0.257C0.155,-0.229 0.146,-0.202 0.146,-0.177C0.146,-0.161 0.149,-0.146 0.154,-0.131C0.159,-0.116 0.167,-0.104 0.178,-0.093C0.189,-0.082 0.202,-0.074 0.218,-0.068C0.233,-0.061 0.251,-0.058 0.272,-0.058C0.289,-0.058 0.305,-0.061 0.32,-0.066C0.335,-0.07 0.349,-0.078 0.361,-0.088C0.372,-0.097 0.382,-0.11 0.389,-0.125C0.396,-0.139 0.399,-0.157 0.399,-0.177ZM0.162,-0.539C0.162,-0.52 0.166,-0.504 0.173,-0.49C0.18,-0.475 0.19,-0.462 0.203,-0.451C0.215,-0.44 0.229,-0.429 0.245,-0.42C0.261,-0.41 0.278,-0.401 0.295,-0.392C0.325,-0.415 0.347,-0.438 0.362,-0.461C0.376,-0.484 0.383,-0.509 0.383,-0.536C0.383,-0.57 0.373,-0.596 0.352,-0.615C0.331,-0.633 0.305,-0.642 0.276,-0.642C0.258,-0.642 0.242,-0.639 0.228,-0.633C0.214,-0.627 0.202,-0.619 0.192,-0.61C0.182,-0.601 0.174,-0.59 0.17,-0.578C0.165,-0.565 0.162,-0.552 0.162,-0.539Z" style="fill-rule:nonzero;"/>
            </g>
            <g transform="matrix(20.988,0,0,20.988,7818.07,11573.2)">
                <path d="M0.049,-0.043C0.049,-0.059 0.054,-0.072 0.065,-0.082C0.076,-0.092 0.089,-0.097 0.106,-0.097C0.127,-0.097 0.143,-0.09 0.157,-0.075C0.169,-0.06 0.176,-0.039 0.176,-0.011C0.176,0.013 0.173,0.034 0.166,0.052C0.159,0.07 0.151,0.086 0.14,0.099C0.129,0.112 0.118,0.122 0.105,0.131C0.092,0.139 0.08,0.145 0.067,0.149L0.042,0.11C0.066,0.101 0.084,0.086 0.096,0.067C0.107,0.047 0.113,0.027 0.113,0.007C0.107,0.009 0.101,0.01 0.096,0.01C0.083,0.01 0.071,0.006 0.063,-0.004C0.054,-0.013 0.049,-0.026 0.049,-0.043Z" style="fill-rule:nonzero;"/>
            </g>
            <g transform="matrix(20.988,0,0,20.988,7822.17,11573.2)">
                <path d="M0.043,-0.35C0.043,-0.47 0.063,-0.56 0.102,-0.621C0.14,-0.682 0.197,-0.712 0.272,-0.712C0.353,-0.712 0.411,-0.682 0.448,-0.623C0.484,-0.563 0.502,-0.472 0.502,-0.35C0.502,-0.23 0.483,-0.14 0.444,-0.079C0.405,-0.018 0.347,0.012 0.272,0.012C0.193,0.012 0.135,-0.02 0.098,-0.083C0.061,-0.146 0.043,-0.235 0.043,-0.35ZM0.126,-0.35C0.126,-0.307 0.129,-0.267 0.135,-0.232C0.14,-0.196 0.149,-0.165 0.161,-0.14C0.173,-0.114 0.188,-0.094 0.207,-0.08C0.225,-0.065 0.247,-0.058 0.272,-0.058C0.323,-0.058 0.36,-0.082 0.384,-0.129C0.407,-0.175 0.419,-0.249 0.419,-0.35C0.419,-0.393 0.417,-0.432 0.412,-0.468C0.407,-0.504 0.398,-0.535 0.387,-0.561C0.375,-0.587 0.36,-0.607 0.341,-0.621C0.322,-0.635 0.299,-0.642 0.272,-0.642C0.222,-0.642 0.185,-0.618 0.162,-0.571C0.138,-0.524 0.126,-0.45 0.126,-0.35Z" style="fill-rule:nonzero;"/>
            </g>
        </g>
        <g transform="matrix(1,0,0,1,-7650.75,-11124)">
            <g transform="matrix(36,0,0,36,7788.35,11561.2)">
                <path d="M0.442,-0.04C0.422,-0.024 0.397,-0.011 0.367,-0.002C0.336,0.007 0.304,0.012 0.27,0.012C0.232,0.012 0.199,0.006 0.171,-0.007C0.143,-0.019 0.12,-0.037 0.102,-0.06C0.084,-0.083 0.071,-0.11 0.062,-0.142C0.053,-0.174 0.049,-0.21 0.049,-0.25C0.049,-0.335 0.068,-0.4 0.106,-0.445C0.144,-0.49 0.198,-0.512 0.269,-0.512C0.292,-0.512 0.314,-0.51 0.337,-0.505C0.36,-0.5 0.38,-0.49 0.398,-0.476C0.416,-0.462 0.431,-0.442 0.442,-0.417C0.453,-0.391 0.459,-0.357 0.459,-0.315C0.459,-0.293 0.457,-0.269 0.453,-0.242L0.132,-0.242C0.132,-0.213 0.135,-0.187 0.141,-0.164C0.147,-0.141 0.156,-0.122 0.169,-0.107C0.182,-0.091 0.198,-0.079 0.219,-0.071C0.239,-0.062 0.264,-0.058 0.293,-0.058C0.316,-0.058 0.338,-0.062 0.361,-0.07C0.384,-0.078 0.401,-0.087 0.412,-0.098L0.442,-0.04ZM0.27,-0.442C0.231,-0.442 0.199,-0.432 0.176,-0.411C0.152,-0.39 0.138,-0.355 0.133,-0.305L0.381,-0.305C0.381,-0.356 0.371,-0.391 0.352,-0.412C0.333,-0.432 0.305,-0.442 0.27,-0.442Z" style="fill-rule:nonzero;"/>
            </g>
            <g transform="matrix(20.988,0,0,20.988,7806.63,11573.2)">
                <path d="M0.11,-0L0.361,-0.586L0.405,-0.635L0.346,-0.626L0.061,-0.626L0.061,-0.7L0.479,-0.7L0.479,-0.673L0.191,-0L0.11,-0Z" style="fill-rule:nonzero;"/>
            </g>
            <g transform="matrix(20.988,0,0,20.988,7815.76,11573.2)">
                <path d="M0.049,-0.043C0.049,-0.059 0.054,-0.072 0.065,-0.082C0.076,-0.092 0.089,-0.097 0.106,-0.097C0.127,-0.097 0.143,-0.09 0.157,-0.075C0.169,-0.06 0.176,-0.039 0.176,-0.011C0.176,0.013 0.173,0.034 0.166,0.052C0.159,0.07 0.151,0.086 0.14,0.099C0.129,0.112 0.118,0.122 0.105,0.131C0.092,0.139 0.08,0.145 0.067,0.149L0.042,0.11C0.066,0.101 0.084,0.086 0.096,0.067C0.107,0.047 0.113,0.027 0.113,0.007C0.107,0.009 0.101,0.01 0.096,0.01C0.083,0.01 0.071,0.006 0.063,-0.004C0.054,-0.013 0.049,-0.026 0.049,-0.043Z" style="fill-rule:nonzero;"/>
            </g>
            <g transform="matrix(20.988,0,0,20.988,7819.86,11573.2)">
                <path d="M0.043,-0.35C0.043,-0.47 0.063,-0.56 0.102,-0.621C0.14,-0.682 0.197,-0.712 0.272,-0.712C0.353,-0.712 0.411,-0.682 0.448,-0.623C0.484,-0.563 0.502,-0.472 0.502,-0.35C0.502,-0.23 0.483,-0.14 0.444,-0.079C0.405,-0.018 0.347,0.012 0.272,0.012C0.193,0.012 0.135,-0.02 0.098,-0.083C0.061,-0.146 0.043,-0.235 0.043,-0.35ZM0.126,-0.35C0.126,-0.307 0.129,-0.267 0.135,-0.232C0.14,-0.196 0.149,-0.165 0.161,-0.14C0.173,-0.114 0.188,-0.094 0.207,-0.08C0.225,-0.065 0.247,-0.058 0.272,-0.058C0.323,-0.058 0.36,-0.082 0.384,-0.129C0.407,-0.175 0.419,-0.249 0.419,-0.35C0.419,-0.393 0.417,-0.432 0.412,-0.468C0.407,-0.504 0.398,-0.535 0.387,-0.561C0.375,-0.587 0.36,-0.607 0.341,-0.621C0.322,-0.635 0.299,-0.642 0.272,-0.642C0.222,-0.642 0.185,-0.618 0.162,-0.571C0.138,-0.524 0.126,-0.45 0.126,-0.35Z" style="fill-rule:nonzero;"/>
            </g>
        </g>
        <g transform="matrix(1,0,0,1,-7649.93,-11029.8)">
            <g transform="matrix(36,0,0,36,7788.35,11561.2)">
                <path d="M0.442,-0.04C0.422,-0.024 0.397,-0.011 0.367,-0.002C0.336,0.007 0.304,0.012 0.27,0.012C0.232,0.012 0.199,0.006 0.171,-0.007C0.143,-0.019 0.12,-0.037 0.102,-0.06C0.084,-0.083 0.071,-0.11 0.062,-0.142C0.053,-0.174 0.049,-0.21 0.049,-0.25C0.049,-0.335 0.068,-0.4 0.106,-0.445C0.144,-0.49 0.198,-0.512 0.269,-0.512C0.292,-0.512 0.314,-0.51 0.337,-0.505C0.36,-0.5 0.38,-0.49 0.398,-0.476C0.416,-0.462 0.431,-0.442 0.442,-0.417C0.453,-0.391 0.459,-0.357 0.459,-0.315C0.459,-0.293 0.457,-0.269 0.453,-0.242L0.132,-0.242C0.132,-0.213 0.135,-0.187 0.141,-0.164C0.147,-0.141 0.156,-0.122 0.169,-0.107C0.182,-0.091 0.198,-0.079 0.219,-0.071C0.239,-0.062 0.264,-0.058 0.293,-0.058C0.316,-0.058 0.338,-0.062 0.361,-0.07C0.384,-0.078 0.401,-0.087 0.412,-0.098L0.442,-0.04ZM0.27,-0.442C0.231,-0.442 0.199,-0.432 0.176,-0.411C0.152,-0.39 0.138,-0.355 0.133,-0.305L0.381,-0.305C0.381,-0.356 0.371,-0.391 0.352,-0.412C0.333,-0.432 0.305,-0.442 0.27,-0.442Z" style="fill-rule:nonzero;"/>
            </g>
            <g transform="matrix(20.988,0,0,20.988,7806.63,11573.2)">
                <path d="M0.11,-0L0.361,-0.586L0.405,-0.635L0.346,-0.626L0.061,-0.626L0.061,-0.7L0.479,-0.7L0.479,-0.673L0.191,-0L0.11,-0Z" style="fill-rule:nonzero;"/>
            </g>
            <g transform="matrix(20.988,0,0,20.988,7815.76,11573.2)">
                <path d="M0.049,-0.043C0.049,-0.059 0.054,-0.072 0.065,-0.082C0.076,-0.092 0.089,-0.097 0.106,-0.097C0.127,-0.097 0.143,-0.09 0.157,-0.075C0.169,-0.06 0.176,-0.039 0.176,-0.011C0.176,0.013 0.173,0.034 0.166,0.052C0.159,0.07 0.151,0.086 0.14,0.099C0.129,0.112 0.118,0.122 0.105,0.131C0.092,0.139 0.08,0.145 0.067,0.149L0.042,0.11C0.066,0.101 0.084,0.086 0.096,0.067C0.107,0.047 0.113,0.027 0.113,0.007C0.107,0.009 0.101,0.01 0.096,0.01C0.083,0.01 0.071,0.006 0.063,-0.004C0.054,-0.013 0.049,-0.026 0.049,-0.043Z" style="fill-rule:nonzero;"/>
            </g>
            <g transform="matrix(20.988,0,0,20.988,7819.86,11573.2)">
                <path d="M0.108,-0.074L0.248,-0.074L0.248,-0.558L0.258,-0.617L0.218,-0.57L0.108,-0.491L0.07,-0.542L0.29,-0.712L0.326,-0.712L0.326,-0.074L0.463,-0.074L0.463,-0L0.108,-0L0.108,-0.074Z" style="fill-rule:nonzero;"/>
            </g>
        </g>
        <g transform="matrix(1,0,0,1,-7687.76,-11271.8)">
            <g transform="matrix(36,0,0,36,7788.35,11561.2)">
                <path d="M0.442,-0.04C0.422,-0.024 0.397,-0.011 0.367,-0.002C0.336,0.007 0.304,0.012 0.27,0.012C0.232,0.012 0.199,0.006 0.171,-0.007C0.143,-0.019 0.12,-0.037 0.102,-0.06C0.084,-0.083 0.071,-0.11 0.062,-0.142C0.053,-0.174 0.049,-0.21 0.049,-0.25C0.049,-0.335 0.068,-0.4 0.106,-0.445C0.144,-0.49 0.198,-0.512 0.269,-0.512C0.292,-0.512 0.314,-0.51 0.337,-0.505C0.36,-0.5 0.38,-0.49 0.398,-0.476C0.416,-0.462 0.431,-0.442 0.442,-0.417C0.453,-0.391 0.459,-0.357 0.459,-0.315C0.459,-0.293 0.457,-0.269 0.453,-0.242L0.132,-0.242C0.132,-0.213 0.135,-0.187 0.141,-0.164C0.147,-0.141 0.156,-0.122 0.169,-0.107C0.182,-0.091 0.198,-0.079 0.219,-0.071C0.239,-0.062 0.264,-0.058 0.293,-0.058C0.316,-0.058 0.338,-0.062 0.361,-0.07C0.384,-0.078 0.401,-0.087 0.412,-0.098L0.442,-0.04ZM0.27,-0.442C0.231,-0.442 0.199,-0.432 0.176,-0.411C0.152,-0.39 0.138,-0.355 0.133,-0.305L0.381,-0.305C0.381,-0.356 0.371,-0.391 0.352,-0.412C0.333,-0.432 0.305,-0.442 0.27,-0.442Z" style="fill-rule:nonzero;"/>
            </g>
            <g transform="matrix(20.988,0,0,20.988,7806.63,11573.2)">
                <path d="M0.492,-0.211C0.492,-0.18 0.487,-0.152 0.478,-0.125C0.469,-0.097 0.455,-0.074 0.437,-0.054C0.419,-0.033 0.397,-0.017 0.37,-0.006C0.343,0.006 0.313,0.012 0.279,0.012C0.246,0.012 0.216,0.007 0.189,-0.004C0.162,-0.015 0.139,-0.031 0.12,-0.052C0.101,-0.073 0.086,-0.098 0.076,-0.129C0.065,-0.16 0.06,-0.195 0.06,-0.235C0.06,-0.301 0.069,-0.362 0.086,-0.418C0.102,-0.473 0.126,-0.522 0.156,-0.563C0.186,-0.604 0.222,-0.638 0.263,-0.664C0.304,-0.689 0.348,-0.705 0.396,-0.712L0.413,-0.648C0.376,-0.641 0.342,-0.629 0.311,-0.61C0.28,-0.591 0.254,-0.568 0.231,-0.541C0.208,-0.514 0.189,-0.483 0.174,-0.449C0.159,-0.415 0.149,-0.38 0.144,-0.344C0.155,-0.362 0.173,-0.379 0.198,-0.394C0.223,-0.409 0.254,-0.416 0.291,-0.416C0.354,-0.416 0.403,-0.398 0.439,-0.362C0.474,-0.326 0.492,-0.276 0.492,-0.211ZM0.409,-0.203C0.409,-0.25 0.398,-0.286 0.376,-0.31C0.354,-0.334 0.32,-0.346 0.274,-0.346C0.241,-0.346 0.213,-0.338 0.19,-0.322C0.166,-0.306 0.149,-0.288 0.14,-0.268C0.139,-0.259 0.138,-0.251 0.138,-0.245L0.138,-0.225C0.138,-0.204 0.141,-0.184 0.147,-0.164C0.152,-0.144 0.161,-0.126 0.173,-0.111C0.185,-0.095 0.2,-0.082 0.218,-0.073C0.235,-0.063 0.256,-0.058 0.28,-0.058C0.299,-0.058 0.317,-0.062 0.333,-0.069C0.348,-0.076 0.362,-0.086 0.373,-0.099C0.384,-0.112 0.393,-0.127 0.4,-0.145C0.406,-0.163 0.409,-0.182 0.409,-0.203Z" style="fill-rule:nonzero;"/>
            </g>
            <g transform="matrix(20.988,0,0,20.988,7818.07,11573.2)">
                <path d="M0.049,-0.043C0.049,-0.059 0.054,-0.072 0.065,-0.082C0.076,-0.092 0.089,-0.097 0.106,-0.097C0.127,-0.097 0.143,-0.09 0.157,-0.075C0.169,-0.06 0.176,-0.039 0.176,-0.011C0.176,0.013 0.173,0.034 0.166,0.052C0.159,0.07 0.151,0.086 0.14,0.099C0.129,0.112 0.118,0.122 0.105,0.131C0.092,0.139 0.08,0.145 0.067,0.149L0.042,0.11C0.066,0.101 0.084,0.086 0.096,0.067C0.107,0.047 0.113,0.027 0.113,0.007C0.107,0.009 0.101,0.01 0.096,0.01C0.083,0.01 0.071,0.006 0.063,-0.004C0.054,-0.013 0.049,-0.026 0.049,-0.043Z" style="fill-rule:nonzero;"/>
            </g>
            <g transform="matrix(20.988,0,0,20.988,7822.17,11573.2)">
                <path d="M0.043,-0.35C0.043,-0.47 0.063,-0.56 0.102,-0.621C0.14,-0.682 0.197,-0.712 0.272,-0.712C0.353,-0.712 0.411,-0.682 0.448,-0.623C0.484,-0.563 0.502,-0.472 0.502,-0.35C0.502,-0.23 0.483,-0.14 0.444,-0.079C0.405,-0.018 0.347,0.012 0.272,0.012C0.193,0.012 0.135,-0.02 0.098,-0.083C0.061,-0.146 0.043,-0.235 0.043,-0.35ZM0.126,-0.35C0.126,-0.307 0.129,-0.267 0.135,-0.232C0.14,-0.196 0.149,-0.165 0.161,-0.14C0.173,-0.114 0.188,-0.094 0.207,-0.08C0.225,-0.065 0.247,-0.058 0.272,-0.058C0.323,-0.058 0.36,-0.082 0.384,-0.129C0.407,-0.175 0.419,-0.249 0.419,-0.35C0.419,-0.393 0.417,-0.432 0.412,-0.468C0.407,-0.504 0.398,-0.535 0.387,-0.561C0.375,-0.587 0.36,-0.607 0.341,-0.621C0.322,-0.635 0.299,-0.642 0.272,-0.642C0.222,-0.642 0.185,-0.618 0.162,-0.571C0.138,-0.524 0.126,-0.45 0.126,-0.35Z" style="fill-rule:nonzero;"/>
            </g>
        </g>
        <g transform="matrix(1,0,0,1,-7785.31,-11271.8)">
            <g transform="matrix(36,0,0,36,7788.35,11561.2)">
                <path d="M0.442,-0.04C0.422,-0.024 0.397,-0.011 0.367,-0.002C0.336,0.007 0.304,0.012 0.27,0.012C0.232,0.012 0.199,0.006 0.171,-0.007C0.143,-0.019 0.12,-0.037 0.102,-0.06C0.084,-0.083 0.071,-0.11 0.062,-0.142C0.053,-0.174 0.049,-0.21 0.049,-0.25C0.049,-0.335 0.068,-0.4 0.106,-0.445C0.144,-0.49 0.198,-0.512 0.269,-0.512C0.292,-0.512 0.314,-0.51 0.337,-0.505C0.36,-0.5 0.38,-0.49 0.398,-0.476C0.416,-0.462 0.431,-0.442 0.442,-0.417C0.453,-0.391 0.459,-0.357 0.459,-0.315C0.459,-0.293 0.457,-0.269 0.453,-0.242L0.132,-0.242C0.132,-0.213 0.135,-0.187 0.141,-0.164C0.147,-0.141 0.156,-0.122 0.169,-0.107C0.182,-0.091 0.198,-0.079 0.219,-0.071C0.239,-0.062 0.264,-0.058 0.293,-0.058C0.316,-0.058 0.338,-0.062 0.361,-0.07C0.384,-0.078 0.401,-0.087 0.412,-0.098L0.442,-0.04ZM0.27,-0.442C0.231,-0.442 0.199,-0.432 0.176,-0.411C0.152,-0.39 0.138,-0.355 0.133,-0.305L0.381,-0.305C0.381,-0.356 0.371,-0.391 0.352,-0.412C0.333,-0.432 0.305,-0.442 0.27,-0.442Z" style="fill-rule:nonzero;"/>
            </g>
            <g transform="matrix(20.988,0,0,20.988,7806.63,11573.2)">
                <path d="M0.492,-0.211C0.492,-0.18 0.487,-0.152 0.478,-0.125C0.469,-0.097 0.455,-0.074 0.437,-0.054C0.419,-0.033 0.397,-0.017 0.37,-0.006C0.343,0.006 0.313,0.012 0.279,0.012C0.246,0.012 0.216,0.007 0.189,-0.004C0.162,-0.015 0.139,-0.031 0.12,-0.052C0.101,-0.073 0.086,-0.098 0.076,-0.129C0.065,-0.16 0.06,-0.195 0.06,-0.235C0.06,-0.301 0.069,-0.362 0.086,-0.418C0.102,-0.473 0.126,-0.522 0.156,-0.563C0.186,-0.604 0.222,-0.638 0.263,-0.664C0.304,-0.689 0.348,-0.705 0.396,-0.712L0.413,-0.648C0.376,-0.641 0.342,-0.629 0.311,-0.61C0.28,-0.591 0.254,-0.568 0.231,-0.541C0.208,-0.514 0.189,-0.483 0.174,-0.449C0.159,-0.415 0.149,-0.38 0.144,-0.344C0.155,-0.362 0.173,-0.379 0.198,-0.394C0.223,-0.409 0.254,-0.416 0.291,-0.416C0.354,-0.416 0.403,-0.398 0.439,-0.362C0.474,-0.326 0.492,-0.276 0.492,-0.211ZM0.409,-0.203C0.409,-0.25 0.398,-0.286 0.376,-0.31C0.354,-0.334 0.32,-0.346 0.274,-0.346C0.241,-0.346 0.213,-0.338 0.19,-0.322C0.166,-0.306 0.149,-0.288 0.14,-0.268C0.139,-0.259 0.138,-0.251 0.138,-0.245L0.138,-0.225C0.138,-0.204 0.141,-0.184 0.147,-0.164C0.152,-0.144 0.161,-0.126 0.173,-0.111C0.185,-0.095 0.2,-0.082 0.218,-0.073C0.235,-0.063 0.256,-0.058 0.28,-0.058C0.299,-0.058 0.317,-0.062 0.333,-0.069C0.348,-0.076 0.362,-0.086 0.373,-0.099C0.384,-0.112 0.393,-0.127 0.4,-0.145C0.406,-0.163 0.409,-0.182 0.409,-0.203Z" style="fill-rule:nonzero;"/>
            </g>
            <g transform="matrix(20.988,0,0,20.988,7818.07,11573.2)">
                <path d="M0.049,-0.043C0.049,-0.059 0.054,-0.072 0.065,-0.082C0.076,-0.092 0.089,-0.097 0.106,-0.097C0.127,-0.097 0.143,-0.09 0.157,-0.075C0.169,-0.06 0.176,-0.039 0.176,-0.011C0.176,0.013 0.173,0.034 0.166,0.052C0.159,0.07 0.151,0.086 0.14,0.099C0.129,0.112 0.118,0.122 0.105,0.131C0.092,0.139 0.08,0.145 0.067,0.149L0.042,0.11C0.066,0.101 0.084,0.086 0.096,0.067C0.107,0.047 0.113,0.027 0.113,0.007C0.107,0.009 0.101,0.01 0.096,0.01C0.083,0.01 0.071,0.006 0.063,-0.004C0.054,-0.013 0.049,-0.026 0.049,-0.043Z" style="fill-rule:nonzero;"/>
            </g>
            <g transform="matrix(20.988,0,0,20.988,7822.17,11573.2)">
                <path d="M0.108,-0.074L0.248,-0.074L0.248,-0.558L0.258,-0.617L0.218,-0.57L0.108,-0.491L0.07,-0.542L0.29,-0.712L0.326,-0.712L0.326,-0.074L0.463,-0.074L0.463,-0L0.108,-0L0.108,-0.074Z" style="fill-rule:nonzero;"/>
            </g>
        </g>
        <g transform="matrix(1,0,0,1,-7586.61,-11285.9)">
            <g transform="matrix(36,0,0,36,7788.35,11561.2)">
                <path d="M0.221,-0.207L0.249,-0.112L0.25,-0.112L0.275,-0.209L0.387,-0.5L0.473,-0.5L0.26,0.011L0.226,0.011L0.009,-0.5L0.101,-0.5L0.221,-0.207Z" style="fill:rgb(164,6,6);fill-rule:nonzero;"/>
            </g>
            <g transform="matrix(20.988,0,0,20.988,7805.7,11573.2)">
                <path d="M0.234,-0.058C0.257,-0.058 0.278,-0.061 0.297,-0.068C0.316,-0.075 0.333,-0.085 0.347,-0.098C0.361,-0.111 0.372,-0.126 0.38,-0.144C0.388,-0.162 0.392,-0.182 0.392,-0.203C0.392,-0.25 0.378,-0.284 0.351,-0.307C0.323,-0.33 0.285,-0.341 0.236,-0.341L0.162,-0.341L0.162,-0.37L0.306,-0.592L0.352,-0.636L0.287,-0.626L0.089,-0.626L0.089,-0.7L0.446,-0.7L0.446,-0.671L0.287,-0.432L0.252,-0.403L0.252,-0.401L0.286,-0.408C0.313,-0.407 0.337,-0.403 0.36,-0.394C0.383,-0.385 0.402,-0.372 0.419,-0.355C0.436,-0.337 0.449,-0.317 0.458,-0.294C0.467,-0.27 0.472,-0.243 0.472,-0.213C0.472,-0.177 0.466,-0.145 0.453,-0.117C0.44,-0.089 0.423,-0.066 0.402,-0.047C0.38,-0.028 0.354,-0.013 0.325,-0.003C0.296,0.007 0.265,0.012 0.232,0.012C0.202,0.012 0.175,0.01 0.151,0.005C0.127,0 0.106,-0.006 0.088,-0.013L0.109,-0.084C0.124,-0.077 0.142,-0.07 0.164,-0.066C0.185,-0.061 0.208,-0.058 0.234,-0.058Z" style="fill:rgb(164,6,6);fill-rule:nonzero;"/>
            </g>
        </g>
        <g transform="matrix(1,0,0,1,-7509.45,-11468.2)">
            <g transform="matrix(36,0,0,36,7788.35,11561.2)">
                <path d="M0.221,-0.207L0.249,-0.112L0.25,-0.112L0.275,-0.209L0.387,-0.5L0.473,-0.5L0.26,0.011L0.226,0.011L0.009,-0.5L0.101,-0.5L0.221,-0.207Z" style="fill:rgb(164,6,6);fill-rule:nonzero;"/>
            </g>
            <g transform="matrix(20.988,0,0,20.988,7805.7,11573.2)">
                <path d="M0.446,-0.541C0.446,-0.506 0.44,-0.47 0.427,-0.433C0.413,-0.396 0.397,-0.358 0.376,-0.321C0.355,-0.284 0.331,-0.247 0.305,-0.212C0.279,-0.176 0.253,-0.142 0.227,-0.11L0.178,-0.067L0.178,-0.063L0.242,-0.074L0.46,-0.074L0.46,-0L0.062,-0L0.062,-0.029C0.077,-0.044 0.094,-0.063 0.115,-0.086C0.136,-0.109 0.157,-0.134 0.18,-0.162C0.202,-0.189 0.224,-0.219 0.246,-0.25C0.267,-0.28 0.287,-0.312 0.305,-0.344C0.322,-0.376 0.336,-0.408 0.347,-0.439C0.358,-0.47 0.363,-0.5 0.363,-0.528C0.363,-0.561 0.354,-0.588 0.335,-0.61C0.316,-0.631 0.288,-0.642 0.25,-0.642C0.225,-0.642 0.2,-0.637 0.176,-0.627C0.152,-0.616 0.131,-0.604 0.114,-0.591L0.081,-0.648C0.104,-0.668 0.132,-0.684 0.164,-0.695C0.196,-0.706 0.23,-0.712 0.267,-0.712C0.296,-0.712 0.321,-0.708 0.343,-0.7C0.365,-0.691 0.384,-0.679 0.399,-0.664C0.414,-0.649 0.426,-0.631 0.434,-0.61C0.442,-0.588 0.446,-0.566 0.446,-0.541Z" style="fill:rgb(164,6,6);fill-rule:nonzero;"/>
            </g>
        </g>
        <g transform="matrix(1,0,0,1,-7755.16,-11468.2)">
            <g transform="matrix(36,0,0,36,7788.35,11561.2)">
                <path d="M0.221,-0.207L0.249,-0.112L0.25,-0.112L0.275,-0.209L0.387,-0.5L0.473,-0.5L0.26,0.011L0.226,0.011L0.009,-0.5L0.101,-0.5L0.221,-0.207Z" style="fill:rgb(164,6,6);fill-rule:nonzero;"/>
            </g>
            <g transform="matrix(20.988,0,0,20.988,7805.7,11573.2)">
                <path d="M0.108,-0.074L0.248,-0.074L0.248,-0.558L0.258,-0.617L0.218,-0.57L0.108,-0.491L0.07,-0.542L0.29,-0.712L0.326,-0.712L0.326,-0.074L0.463,-0.074L0.463,-0L0.108,-0L0.108,-0.074Z" style="fill:rgb(164,6,6);fill-rule:nonzero;"/>
            </g>
        </g>
        <g transform="matrix(1,0,0,1,-7742.09,-11045.9)">
            <g transform="matrix(36,0,0,36,7788.35,11561.2)">
                <path d="M0.221,-0.207L0.249,-0.112L0.25,-0.112L0.275,-0.209L0.387,-0.5L0.473,-0.5L0.26,0.011L0.226,0.011L0.009,-0.5L0.101,-0.5L0.221,-0.207Z" style="fill:rgb(164,6,6);fill-rule:nonzero;"/>
            </g>
            <g transform="matrix(20.988,0,0,20.988,7805.7,11573.2)">
                <path d="M0.492,-0.211C0.492,-0.18 0.487,-0.152 0.478,-0.125C0.469,-0.097 0.455,-0.074 0.437,-0.054C0.419,-0.033 0.397,-0.017 0.37,-0.006C0.343,0.006 0.313,0.012 0.279,0.012C0.246,0.012 0.216,0.007 0.189,-0.004C0.162,-0.015 0.139,-0.031 0.12,-0.052C0.101,-0.073 0.086,-0.098 0.076,-0.129C0.065,-0.16 0.06,-0.195 0.06,-0.235C0.06,-0.301 0.069,-0.362 0.086,-0.418C0.102,-0.473 0.126,-0.522 0.156,-0.563C0.186,-0.604 0.222,-0.638 0.263,-0.664C0.304,-0.689 0.348,-0.705 0.396,-0.712L0.413,-0.648C0.376,-0.641 0.342,-0.629 0.311,-0.61C0.28,-0.591 0.254,-0.568 0.231,-0.541C0.208,-0.514 0.189,-0.483 0.174,-0.449C0.159,-0.415 0.149,-0.38 0.144,-0.344C0.155,-0.362 0.173,-0.379 0.198,-0.394C0.223,-0.409 0.254,-0.416 0.291,-0.416C0.354,-0.416 0.403,-0.398 0.439,-0.362C0.474,-0.326 0.492,-0.276 0.492,-0.211ZM0.409,-0.203C0.409,-0.25 0.398,-0.286 0.376,-0.31C0.354,-0.334 0.32,-0.346 0.274,-0.346C0.241,-0.346 0.213,-0.338 0.19,-0.322C0.166,-0.306 0.149,-0.288 0.14,-0.268C0.139,-0.259 0.138,-0.251 0.138,-0.245L0.138,-0.225C0.138,-0.204 0.141,-0.184 0.147,-0.164C0.152,-0.144 0.161,-0.126 0.173,-0.111C0.185,-0.095 0.2,-0.082 0.218,-0.073C0.235,-0.063 0.256,-0.058 0.28,-0.058C0.299,-0.058 0.317,-0.062 0.333,-0.069C0.348,-0.076 0.362,-0.086 0.373,-0.099C0.384,-0.112 0.393,-0.127 0.4,-0.145C0.406,-0.163 0.409,-0.182 0.409,-0.203Z" style="fill:rgb(164,6,6);fill-rule:nonzero;"/>
            </g>
        </g>
        <g transform="matrix(1,0,0,1,-7536.53,-11043.4)">
            <g transform="matrix(36,0,0,36,7788.35,11561.2)">
                <path d="M0.221,-0.207L0.249,-0.112L0.25,-0.112L0.275,-0.209L0.387,-0.5L0.473,-0.5L0.26,0.011L0.226,0.011L0.009,-0.5L0.101,-0.5L0.221,-0.207Z" style="fill:rgb(164,6,6);fill-rule:nonzero;"/>
            </g>
            <g transform="matrix(20.988,0,0,20.988,7805.7,11573.2)">
                <path d="M0.11,-0L0.361,-0.586L0.405,-0.635L0.346,-0.626L0.061,-0.626L0.061,-0.7L0.479,-0.7L0.479,-0.673L0.191,-0L0.11,-0Z" style="fill:rgb(164,6,6);fill-rule:nonzero;"/>
            </g>
        </g>
        <g transform="matrix(1,0,0,1,-8278.28,-11753.2)">
            <g transform="matrix(48,0,0,48,8403.67,11970.9)">
                <path d="M0.011,-0.5L0.08,-0.5L0.08,-0.528C0.08,-0.591 0.093,-0.637 0.12,-0.666C0.147,-0.694 0.185,-0.708 0.236,-0.708C0.289,-0.708 0.334,-0.702 0.369,-0.689L0.344,-0.585C0.329,-0.59 0.315,-0.594 0.304,-0.596C0.292,-0.597 0.28,-0.598 0.267,-0.598C0.254,-0.598 0.243,-0.596 0.236,-0.592C0.228,-0.588 0.222,-0.582 0.219,-0.574C0.215,-0.565 0.213,-0.555 0.212,-0.543C0.211,-0.53 0.21,-0.516 0.21,-0.5L0.32,-0.5L0.32,-0.39L0.21,-0.39L0.21,-0L0.08,-0L0.08,-0.39L0.011,-0.39L0.011,-0.5Z" style="fill:rgb(118,122,2);fill-rule:nonzero;"/>
            </g>
            <g transform="matrix(27.984,0,0,27.984,8419.08,11986.9)">
                <path d="M0.475,-0.529C0.475,-0.495 0.469,-0.461 0.457,-0.426C0.444,-0.391 0.429,-0.357 0.41,-0.324C0.391,-0.291 0.37,-0.259 0.347,-0.228C0.324,-0.197 0.301,-0.168 0.279,-0.142L0.226,-0.101L0.226,-0.096L0.298,-0.11L0.49,-0.11L0.49,-0L0.069,-0L0.069,-0.067C0.085,-0.084 0.103,-0.103 0.123,-0.126C0.143,-0.148 0.163,-0.171 0.184,-0.197C0.204,-0.222 0.224,-0.247 0.243,-0.274C0.262,-0.301 0.28,-0.327 0.295,-0.355C0.31,-0.382 0.323,-0.408 0.332,-0.433C0.341,-0.458 0.345,-0.482 0.345,-0.505C0.345,-0.532 0.337,-0.555 0.322,-0.573C0.306,-0.59 0.281,-0.599 0.247,-0.599C0.226,-0.599 0.204,-0.595 0.182,-0.586C0.159,-0.577 0.14,-0.565 0.125,-0.551L0.073,-0.643C0.099,-0.664 0.129,-0.682 0.162,-0.695C0.195,-0.708 0.233,-0.714 0.278,-0.714C0.307,-0.714 0.333,-0.71 0.357,-0.702C0.381,-0.694 0.402,-0.682 0.419,-0.667C0.436,-0.652 0.45,-0.632 0.46,-0.61C0.47,-0.587 0.475,-0.56 0.475,-0.529Z" style="fill:rgb(118,122,2);fill-rule:nonzero;"/>
            </g>
        </g>
        <g transform="matrix(1,0,0,1,-8395.79,-11753.2)">
            <g transform="matrix(48,0,0,48,8403.67,11970.9)">
                <path d="M0.011,-0.5L0.08,-0.5L0.08,-0.528C0.08,-0.591 0.093,-0.637 0.12,-0.666C0.147,-0.694 0.185,-0.708 0.236,-0.708C0.289,-0.708 0.334,-0.702 0.369,-0.689L0.344,-0.585C0.329,-0.59 0.315,-0.594 0.304,-0.596C0.292,-0.597 0.28,-0.598 0.267,-0.598C0.254,-0.598 0.243,-0.596 0.236,-0.592C0.228,-0.588 0.222,-0.582 0.219,-0.574C0.215,-0.565 0.213,-0.555 0.212,-0.543C0.211,-0.53 0.21,-0.516 0.21,-0.5L0.32,-0.5L0.32,-0.39L0.21,-0.39L0.21,-0L0.08,-0L0.08,-0.39L0.011,-0.39L0.011,-0.5Z" style="fill:rgb(118,122,2);fill-rule:nonzero;"/>
            </g>
            <g transform="matrix(27.984,0,0,27.984,8419.08,11986.9)">
                <path d="M0.04,-0.351C0.04,-0.474 0.061,-0.565 0.103,-0.625C0.145,-0.684 0.205,-0.714 0.284,-0.714C0.368,-0.714 0.43,-0.685 0.469,-0.626C0.508,-0.567 0.528,-0.475 0.528,-0.351C0.528,-0.228 0.507,-0.136 0.465,-0.076C0.422,-0.016 0.362,0.014 0.283,0.014C0.2,0.014 0.138,-0.018 0.099,-0.081C0.06,-0.144 0.04,-0.234 0.04,-0.351ZM0.17,-0.351C0.17,-0.27 0.179,-0.207 0.197,-0.163C0.214,-0.118 0.243,-0.096 0.284,-0.096C0.323,-0.096 0.352,-0.116 0.371,-0.157C0.389,-0.198 0.398,-0.262 0.398,-0.351C0.398,-0.432 0.389,-0.494 0.372,-0.538C0.355,-0.582 0.325,-0.604 0.283,-0.604C0.243,-0.604 0.214,-0.583 0.197,-0.542C0.179,-0.501 0.17,-0.437 0.17,-0.351Z" style="fill:rgb(118,122,2);fill-rule:nonzero;"/>
            </g>
        </g>
        <g transform="matrix(1,0,0,1,-8105.97,-11924.6)">
            <g transform="matrix(48,0,0,48,8403.67,11970.9)">
                <path d="M0.011,-0.5L0.08,-0.5L0.08,-0.528C0.08,-0.591 0.093,-0.637 0.12,-0.666C0.147,-0.694 0.185,-0.708 0.236,-0.708C0.289,-0.708 0.334,-0.702 0.369,-0.689L0.344,-0.585C0.329,-0.59 0.315,-0.594 0.304,-0.596C0.292,-0.597 0.28,-0.598 0.267,-0.598C0.254,-0.598 0.243,-0.596 0.236,-0.592C0.228,-0.588 0.222,-0.582 0.219,-0.574C0.215,-0.565 0.213,-0.555 0.212,-0.543C0.211,-0.53 0.21,-0.516 0.21,-0.5L0.32,-0.5L0.32,-0.39L0.21,-0.39L0.21,-0L0.08,-0L0.08,-0.39L0.011,-0.39L0.011,-0.5Z" style="fill:rgb(118,122,2);fill-rule:nonzero;"/>
            </g>
            <g transform="matrix(27.984,0,0,27.984,8419.08,11986.9)">
                <path d="M0.101,-0.11L0.24,-0.11L0.24,-0.505L0.255,-0.573L0.207,-0.514L0.118,-0.453L0.063,-0.528L0.291,-0.712L0.364,-0.712L0.364,-0.11L0.5,-0.11L0.5,-0L0.101,-0L0.101,-0.11Z" style="fill:rgb(118,122,2);fill-rule:nonzero;"/>
            </g>
        </g>
        <g transform="matrix(1,0,0,1,-8105.92,-11550.4)">
            <g transform="matrix(48,0,0,48,8403.67,11970.9)">
                <path d="M0.011,-0.5L0.08,-0.5L0.08,-0.528C0.08,-0.591 0.093,-0.637 0.12,-0.666C0.147,-0.694 0.185,-0.708 0.236,-0.708C0.289,-0.708 0.334,-0.702 0.369,-0.689L0.344,-0.585C0.329,-0.59 0.315,-0.594 0.304,-0.596C0.292,-0.597 0.28,-0.598 0.267,-0.598C0.254,-0.598 0.243,-0.596 0.236,-0.592C0.228,-0.588 0.222,-0.582 0.219,-0.574C0.215,-0.565 0.213,-0.555 0.212,-0.543C0.211,-0.53 0.21,-0.516 0.21,-0.5L0.32,-0.5L0.32,-0.39L0.21,-0.39L0.21,-0L0.08,-0L0.08,-0.39L0.011,-0.39L0.011,-0.5Z" style="fill:rgb(118,122,2);fill-rule:nonzero;"/>
            </g>
            <g transform="matrix(27.984,0,0,27.984,8419.08,11986.9)">
                <path d="M0.241,-0.096C0.282,-0.096 0.314,-0.107 0.336,-0.129C0.357,-0.151 0.368,-0.178 0.368,-0.209C0.368,-0.247 0.357,-0.275 0.334,-0.293C0.311,-0.311 0.276,-0.32 0.227,-0.32L0.155,-0.32L0.155,-0.389L0.276,-0.554L0.333,-0.599L0.254,-0.59L0.086,-0.59L0.086,-0.7L0.468,-0.7L0.468,-0.629L0.327,-0.44L0.283,-0.413L0.283,-0.408L0.325,-0.414C0.348,-0.412 0.371,-0.407 0.392,-0.398C0.413,-0.389 0.431,-0.377 0.447,-0.361C0.462,-0.344 0.475,-0.324 0.484,-0.3C0.493,-0.276 0.498,-0.248 0.498,-0.217C0.498,-0.178 0.492,-0.144 0.479,-0.115C0.466,-0.086 0.448,-0.062 0.425,-0.043C0.401,-0.024 0.375,-0.009 0.344,-0C0.313,0.009 0.28,0.014 0.245,0.014C0.216,0.014 0.185,0.011 0.154,0.006C0.123,0.001 0.097,-0.007 0.078,-0.017L0.113,-0.125C0.13,-0.116 0.15,-0.109 0.171,-0.104C0.192,-0.099 0.215,-0.096 0.241,-0.096Z" style="fill:rgb(118,122,2);fill-rule:nonzero;"/>
            </g>
        </g>
        <path d="M118.054,110L100.054,101L118.054,92C113.554,96.5 113.554,105.5 118.054,110Z"/>
        <path d="M229,101L114.454,101" style="fill:none;stroke:black;stroke-width:4px;"/>
        <path d="M218,472.616L236,463.616L218,454.616C222.5,459.116 222.5,468.116 218,472.616Z"/>
        <path d="M221.6,463.616L100.054,463.616" style="fill:none;stroke:black;stroke-width:4px;"/>
        <path d="M112.054,506.336L94.054,497.336L112.054,488.336C107.554,492.836 107.554,501.836 112.054,506.336Z"/>
        <path d="M241,497.336L108.454,497.336" style="fill:none;stroke:black;stroke-width:4px;"/>
        <path d="M297.225,506.336L279.225,497.336L297.225,488.336C292.725,492.836 292.725,501.836 297.225,506.336Z"/>
        <path d="M565.171,497.336L293.625,497.336" style="fill:none;stroke:black;stroke-width:4px;"/>
        <path d="M541.171,475.517L565.171,463.517L541.171,451.517C547.171,457.517 547.171,469.517 541.171,475.517Z"/>
        <path d="M545.971,463.517L285.225,463.517" style="fill:none;stroke:black;stroke-width:4px;"/>
        <path d="M391.171,263.535L409.171,254.535L391.171,245.535C395.671,250.035 395.671,259.035 391.171,263.535Z"/>
        <path d="M394.771,254.535L285.225,254.535" style="fill:none;stroke:black;stroke-width:4px;"/>
        <path d="M303.225,297.9L285.225,288.9L303.225,279.9C298.725,284.4 298.725,293.4 303.225,297.9Z"/>
        <path d="M409.171,288.9L299.625,288.9" style="fill:none;stroke:black;stroke-width:4px;"/>
        <path d="M216,79.251L234,70.251L216,61.251C220.5,65.751 220.5,74.751 216,79.251Z"/>
        <path d="M219.6,70.251L104,70.251" style="fill:none;stroke:black;stroke-width:4px;"/>
    </g>
</svg>
