<?xml version="1.0" encoding="UTF-8" standalone="no"?>
<!DOCTYPE svg PUBLIC "-//W3C//DTD SVG 1.1//EN" "http://www.w3.org/Graphics/SVG/1.1/DTD/svg11.dtd">
<svg width="100%" height="100%" viewBox="0 0 684 352" version="1.1" xmlns="http://www.w3.org/2000/svg" xmlns:xlink="http://www.w3.org/1999/xlink" xml:space="preserve" xmlns:serif="http://www.serif.com/" style="fill-rule:evenodd;clip-rule:evenodd;stroke-linecap:square;stroke-linejoin:round;stroke-miterlimit:10;">
    <rect id="Geometric-Operations" serif:id="Geometric Operations" x="-2911" y="-276" width="6739" height="2861" style="fill:none;"/>
    <g id="Geometric-Operations1" serif:id="Geometric Operations">
        <path d="M16.032,108.36L400.82,144.378" style="fill:none;stroke:rgb(21,183,183);stroke-width:5px;stroke-dasharray:5,15,0,0;"/>
        <path d="M220.988,167.818L400.82,144.378" style="fill:none;stroke:rgb(21,183,183);stroke-width:2px;stroke-dasharray:2,6,0,0;"/>
        <path d="M123.988,167.818L373.82,243.378" style="fill:none;stroke:rgb(21,183,183);stroke-width:2px;stroke-dasharray:2,6,0,0;"/>
        <path d="M197.988,224.818L373.82,243.378" style="fill:none;stroke:rgb(21,183,183);stroke-width:2px;stroke-dasharray:2,6,0,0;"/>
        <path d="M220.988,290.818L373.82,243.378" style="fill:none;stroke:rgb(21,183,183);stroke-width:2px;stroke-dasharray:2,6,0,0;"/>
        <path d="M142.988,332.818L373.82,243.378" style="fill:none;stroke:rgb(21,183,183);stroke-width:2px;stroke-dasharray:2,6,0,0;"/>
        <path d="M55.129,227.89L373.82,243.378" style="fill:none;stroke:rgb(21,183,183);stroke-width:2px;stroke-dasharray:2,6,0,0;"/>
        <path d="M234.73,66.712L400.82,144.378" style="fill:none;stroke:rgb(21,183,183);stroke-width:2px;stroke-dasharray:2,6,0,0;"/>
        <path d="M117.724,72.034L400.82,144.378" style="fill:none;stroke:rgb(21,183,183);stroke-width:2px;stroke-dasharray:2,6,0,0;"/>
        <circle cx="16.032" cy="108.36" r="11.72" style="fill:rgb(21,183,183);"/>
        <circle cx="117.724" cy="72.034" r="11.72" style="fill:rgb(21,183,183);"/>
        <circle cx="55.129" cy="227.89" r="11.72" style="fill:rgb(21,183,183);"/>
        <circle cx="197.414" cy="224.34" r="11.72" style="fill:rgb(21,183,183);"/>
        <circle cx="122.007" cy="167.51" r="11.72" style="fill:rgb(21,183,183);"/>
        <circle cx="220.988" cy="167.818" r="11.72" style="fill:rgb(21,183,183);"/>
        <circle cx="141.895" cy="331.883" r="11.72" style="fill:rgb(21,183,183);"/>
        <circle cx="220.988" cy="289.806" r="11.72" style="fill:rgb(21,183,183);"/>
        <circle cx="234.73" cy="66.712" r="11.72" style="fill:rgb(21,183,183);"/>
        <circle cx="478.619" cy="79.841" r="11.72" style="fill:rgb(247,0,255);"/>
        <circle cx="540.61" cy="336.49" r="11.72" style="fill:rgb(247,0,255);"/>
        <circle cx="400.82" cy="144.378" r="11.72" style="fill:rgb(247,0,255);"/>
        <circle cx="564.432" cy="179.538" r="11.72" style="fill:rgb(247,0,255);"/>
        <circle cx="474.16" cy="264.124" r="11.72" style="fill:rgb(247,0,255);"/>
        <circle cx="373.603" cy="244.053" r="11.72" style="fill:rgb(247,0,255);"/>
        <circle cx="440.263" cy="200.306" r="11.72" style="fill:rgb(247,0,255);"/>
        <circle cx="606.181" cy="62.419" r="11.72" style="fill:rgb(247,0,255);"/>
        <circle cx="662.527" cy="131.913" r="11.72" style="fill:rgb(247,0,255);"/>
        <path d="M179.452,30.041L169.66,30.041L165.676,37.481L159.052,37.481L177.724,3.641L182.332,3.641L186.7,37.481L180.412,37.481L179.452,30.041ZM172.396,24.761L179.212,24.761L178.444,17.273L178.492,11.993L178.252,11.993L176.332,17.321L172.396,24.761Z" style="fill-rule:nonzero;"/>
        <path d="M534.034,4.361C534.642,4.265 535.33,4.169 536.098,4.073C536.866,3.977 537.682,3.897 538.546,3.833C539.41,3.769 540.298,3.721 541.21,3.689C542.122,3.657 543.01,3.641 543.874,3.641C545.346,3.641 546.714,3.793 547.978,4.097C549.242,4.401 550.33,4.873 551.242,5.513C552.154,6.153 552.874,6.977 553.402,7.985C553.93,8.993 554.194,10.201 554.194,11.609C554.194,12.665 554.018,13.681 553.666,14.657C553.314,15.633 552.81,16.505 552.154,17.273C551.498,18.041 550.714,18.681 549.802,19.193C548.89,19.705 547.858,20.041 546.706,20.201L546.706,20.441C547.314,20.569 547.922,20.801 548.53,21.137C549.138,21.473 549.682,21.905 550.162,22.433C550.642,22.961 551.026,23.585 551.314,24.305C551.602,25.025 551.746,25.833 551.746,26.729C551.746,28.777 551.346,30.529 550.546,31.985C549.746,33.441 548.674,34.625 547.33,35.537C545.986,36.449 544.418,37.121 542.626,37.553C540.834,37.985 538.946,38.201 536.962,38.201L534.97,38.201C534.154,38.201 533.282,38.177 532.354,38.129C531.426,38.081 530.498,38.009 529.57,37.913C528.642,37.817 527.794,37.673 527.026,37.481L534.034,4.361ZM534.082,32.489C534.21,32.553 534.442,32.601 534.778,32.633C535.114,32.665 535.482,32.689 535.882,32.705C536.282,32.721 536.69,32.737 537.106,32.753C537.522,32.769 537.874,32.777 538.162,32.777C538.962,32.777 539.786,32.681 540.634,32.489C541.482,32.297 542.25,31.977 542.938,31.529C543.626,31.081 544.194,30.505 544.642,29.801C545.09,29.097 545.314,28.233 545.314,27.209C545.314,26.409 545.138,25.753 544.786,25.241C544.434,24.729 543.97,24.321 543.394,24.017C542.818,23.713 542.154,23.505 541.402,23.393C540.65,23.281 539.874,23.225 539.074,23.225L536.002,23.225L534.082,32.489ZM537.106,18.233L539.17,18.233C539.618,18.233 540.146,18.225 540.754,18.209C541.362,18.193 541.874,18.153 542.29,18.089C542.866,17.993 543.482,17.833 544.138,17.609C544.794,17.385 545.386,17.065 545.914,16.649C546.442,16.233 546.882,15.705 547.234,15.065C547.586,14.425 547.762,13.625 547.762,12.665C547.762,11.289 547.306,10.345 546.394,9.833C545.482,9.321 544.322,9.065 542.914,9.065C542.082,9.065 541.314,9.081 540.61,9.113C539.906,9.145 539.362,9.193 538.978,9.257L537.106,18.233Z" style="fill-rule:nonzero;"/>
    </g>
</svg>
