<?xml version="1.0" encoding="UTF-8" standalone="no"?>
<!DOCTYPE svg PUBLIC "-//W3C//DTD SVG 1.1//EN" "http://www.w3.org/Graphics/SVG/1.1/DTD/svg11.dtd">
<svg width="100%" height="100%" viewBox="0 0 744 479" version="1.1" xmlns="http://www.w3.org/2000/svg" xmlns:xlink="http://www.w3.org/1999/xlink" xml:space="preserve" xmlns:serif="http://www.serif.com/" style="fill-rule:evenodd;clip-rule:evenodd;stroke-linecap:square;stroke-linejoin:round;stroke-miterlimit:10;">
    <g transform="matrix(1,0,0,1,-2939,-12673)">
        <rect id="Geometric-Operations" serif:id="Geometric Operations" x="50" y="10770" width="6739" height="2861" style="fill:none;"/>
        <g id="Geometric-Operations1" serif:id="Geometric Operations">
            <g transform="matrix(1,0,0,1,802,705)">
                <path d="M2467,12187l56.128,10.974" style="fill:none;stroke:rgb(21,183,183);stroke-width:2px;stroke-dasharray:2,6,0,0;"/>
            </g>
            <g transform="matrix(1,0,0,1,802,705)">
                <path d="M2700,12356.9l11.023,56.268" style="fill:none;stroke:rgb(21,183,183);stroke-width:2px;stroke-dasharray:2,6,0,0;"/>
            </g>
            <g transform="matrix(1,0,0,1,802,705)">
                <path d="M2391,12039l1.509,-39.723" style="fill:none;stroke:rgb(21,183,183);stroke-width:2px;stroke-dasharray:2,6,0,0;"/>
            </g>
            <g transform="matrix(1,0,0,1,802,705)">
                <path d="M2240,12053l43,22" style="fill:none;stroke:rgb(21,183,183);stroke-width:2px;stroke-dasharray:2,6,0,0;"/>
            </g>
            <g transform="matrix(1,0,0,1,802,705)">
                <path d="M2227,12184l-56.964,-67.193" style="fill:none;stroke:rgb(247,0,255);stroke-width:2px;stroke-dasharray:2,6,0,0;"/>
            </g>
            <g transform="matrix(1,0,0,1,802,705)">
                <path d="M2324,11998l2.404,47.46" style="fill:none;stroke:rgb(247,0,255);stroke-width:2px;stroke-dasharray:2,6,0,0;"/>
            </g>
            <g transform="matrix(1,0,0,1,802,705)">
                <path d="M2485,12001l-94.683,38.46" style="fill:none;stroke:rgb(247,0,255);stroke-width:2px;stroke-dasharray:2,6,0,0;"/>
            </g>
            <g transform="matrix(1,0,0,1,802,705)">
                <path d="M2536.7,12116.8l-84.56,41.252" style="fill:none;stroke:rgb(247,0,255);stroke-width:2px;stroke-dasharray:2,6,0,0;"/>
            </g>
            <g transform="matrix(1,0,0,1,802,705)">
                <path d="M2502,12324.3l38.441,-29.346" style="fill:none;stroke:rgb(247,0,255);stroke-width:2px;stroke-dasharray:2,6,0,0;"/>
            </g>
            <g transform="matrix(1,0,0,1,802,705)">
                <path d="M2593,12433l13.82,-90.241" style="fill:none;stroke:rgb(247,0,255);stroke-width:2px;stroke-dasharray:2,6,0,0;"/>
            </g>
            <g transform="matrix(1,0,0,1,802,705)">
                <path d="M2767,12404l-38.429,-63.726" style="fill:none;stroke:rgb(247,0,255);stroke-width:2px;stroke-dasharray:2,6,0,0;"/>
            </g>
            <g transform="matrix(1,0,0,1,802,705)">
                <path d="M2867,12303l-46.711,-25.634" style="fill:none;stroke:rgb(247,0,255);stroke-width:2px;stroke-dasharray:2,6,0,0;"/>
            </g>
            <g transform="matrix(0.583236,0,0,0.583236,2474.47,12576.4)">
                <circle cx="817.043" cy="446.457" r="20.095" style="fill:rgb(21,183,183);"/>
            </g>
            <g transform="matrix(0.583236,0,0,0.583236,2564.5,12496.1)">
                <circle cx="817.043" cy="446.457" r="20.095" style="fill:rgb(21,183,183);"/>
            </g>
            <g transform="matrix(0.583236,0,0,0.583236,2713.74,12485.5)">
                <circle cx="817.043" cy="446.457" r="20.095" style="fill:rgb(21,183,183);"/>
            </g>
            <g transform="matrix(0.583236,0,0,0.583236,2793.42,12632.3)">
                <circle cx="817.043" cy="446.457" r="20.095" style="fill:rgb(21,183,183);"/>
            </g>
            <g transform="matrix(0.583236,0,0,0.583236,2892.9,12779.4)">
                <circle cx="817.043" cy="446.457" r="20.095" style="fill:rgb(21,183,183);"/>
            </g>
            <g transform="matrix(0.583236,0,0,0.583236,3023.11,12799.7)">
                <circle cx="817.043" cy="446.457" r="20.095" style="fill:rgb(21,183,183);"/>
            </g>
            <g transform="matrix(0.583236,0,0,0.583236,3137.6,12735.7)">
                <circle cx="817.043" cy="446.457" r="20.095" style="fill:rgb(21,183,183);"/>
            </g>
            <g transform="matrix(0.583236,0,0,0.583236,3194.2,12634.3)">
                <circle cx="817.043" cy="446.457" r="20.095" style="fill:rgb(21,183,183);"/>
            </g>
            <g transform="matrix(0.583236,0,0,0.583236,2650.31,12439.9)">
                <circle cx="817.043" cy="446.457" r="20.095" style="fill:rgb(247,0,255);"/>
            </g>
            <g transform="matrix(0.583236,0,0,0.583236,2808.3,12445.5)">
                <circle cx="817.043" cy="446.457" r="20.095" style="fill:rgb(247,0,255);"/>
            </g>
            <g transform="matrix(0.583236,0,0,0.583236,2861.76,12561.3)">
                <circle cx="817.043" cy="446.457" r="20.095" style="fill:rgb(247,0,255);"/>
            </g>
            <g transform="matrix(0.583236,0,0,0.583236,2825.78,12769.1)">
                <circle cx="817.043" cy="446.457" r="20.095" style="fill:rgb(247,0,255);"/>
            </g>
            <g transform="matrix(0.583236,0,0,0.583236,2919.21,12875.9)">
                <circle cx="817.043" cy="446.457" r="20.095" style="fill:rgb(247,0,255);"/>
            </g>
            <g transform="matrix(0.583236,0,0,0.583236,3091.81,12848.4)">
                <circle cx="817.043" cy="446.457" r="20.095" style="fill:rgb(247,0,255);"/>
            </g>
            <g transform="matrix(1,0,0,1,2610.66,10817.4)">
                <g transform="matrix(48,0,0,48,368.503,1953.88)">
                    <path d="M0.387,-0.155l-0.204,0l-0.083,0.155l-0.138,-0l0.389,-0.705l0.096,0l0.091,0.705l-0.131,-0l-0.02,-0.155Zm-0.147,-0.11l0.142,0l-0.016,-0.156l0.001,-0.11l-0.005,0l-0.04,0.111l-0.082,0.155Z" style="fill:rgb(21,183,183);fill-rule:nonzero;"/>
                </g>
            </g>
            <g transform="matrix(1,0,0,1,2978.24,10929.1)">
                <g transform="matrix(48,0,0,48,368.503,1953.88)">
                    <path d="M0.166,-0.695c0.013,-0.002 0.027,-0.004 0.043,-0.006c0.016,-0.002 0.033,-0.004 0.051,-0.005c0.018,-0.001 0.037,-0.002 0.055,-0.003c0.02,-0.001 0.038,-0.001 0.056,-0.001c0.031,0 0.059,0.003 0.086,0.01c0.026,0.006 0.048,0.016 0.067,0.029c0.019,0.013 0.034,0.031 0.045,0.051c0.011,0.021 0.017,0.047 0.017,0.076c-0,0.022 -0.004,0.043 -0.011,0.064c-0.007,0.02 -0.018,0.038 -0.032,0.054c-0.013,0.016 -0.03,0.029 -0.049,0.04c-0.019,0.011 -0.04,0.018 -0.064,0.021l-0,0.005c0.013,0.003 0.025,0.008 0.038,0.015c0.013,0.007 0.024,0.016 0.034,0.027c0.01,0.011 0.018,0.024 0.024,0.038c0.006,0.016 0.009,0.032 0.009,0.051c0,0.043 -0.008,0.079 -0.025,0.11c-0.017,0.03 -0.039,0.055 -0.067,0.074c-0.028,0.019 -0.061,0.033 -0.098,0.042c-0.037,0.009 -0.077,0.013 -0.118,0.013l-0.041,0c-0.017,0 -0.036,-0 -0.055,-0.001c-0.019,-0.001 -0.039,-0.003 -0.058,-0.005c-0.019,-0.002 -0.037,-0.005 -0.053,-0.009l0.146,-0.69Zm0.001,0.586c0.003,0.001 0.008,0.002 0.015,0.003c0.007,0.001 0.014,0.001 0.023,0.002c0.008,-0 0.016,0 0.025,0.001c0.009,-0 0.016,0 0.022,0c0.017,0 0.034,-0.002 0.051,-0.006c0.018,-0.004 0.034,-0.011 0.049,-0.02c0.014,-0.009 0.026,-0.021 0.035,-0.036c0.009,-0.015 0.014,-0.033 0.014,-0.054c0,-0.017 -0.004,-0.03 -0.011,-0.041c-0.007,-0.011 -0.017,-0.019 -0.029,-0.025c-0.012,-0.007 -0.026,-0.011 -0.041,-0.013c-0.016,-0.003 -0.032,-0.004 -0.049,-0.004l-0.064,0l-0.04,0.193Zm0.063,-0.297l0.043,0c0.009,0 0.02,-0 0.033,-0c0.013,-0.001 0.023,-0.002 0.032,-0.003c0.012,-0.002 0.025,-0.005 0.038,-0.01c0.014,-0.005 0.026,-0.011 0.037,-0.02c0.012,-0.009 0.021,-0.02 0.028,-0.033c0.007,-0.013 0.011,-0.03 0.011,-0.05c-0,-0.029 -0.01,-0.048 -0.029,-0.059c-0.019,-0.011 -0.043,-0.016 -0.072,-0.016c-0.017,0 -0.033,0 -0.048,0.001c-0.015,0.001 -0.026,0.002 -0.034,0.003l-0.039,0.187Z" style="fill:rgb(247,0,255);fill-rule:nonzero;"/>
                </g>
            </g>
            <g transform="matrix(1,0,0,1,802,705)">
                <path d="M2154,12131l87,-77l150,-15l76,148l102,150l131,19.948l113,-65.948l54,-101" style="fill:none;stroke:rgb(21,183,183);stroke-width:5px;"/>
            </g>
            <g transform="matrix(1,0,0,1,802,705)">
                <path d="M2227,12184l97,-186l161,3l52,114l-35,209.348l91,108.652l173,-29l101,-101" style="fill:none;stroke:rgb(247,0,255);stroke-width:5px;"/>
            </g>
            <g transform="matrix(1,0,0,1,802,705)">
                <path d="M2569,12337l-32.394,28.667" style="fill:none;stroke:rgb(21,183,183);stroke-width:2px;stroke-dasharray:2,6,0,0;"/>
            </g>
            <g transform="matrix(1,0,0,1,802,705)">
                <path d="M2813,12291l33.212,32.788" style="fill:none;stroke:rgb(21,183,183);stroke-width:2px;stroke-dasharray:2,6,0,0;"/>
            </g>
            <g transform="matrix(1,0,0,1,802,705)">
                <path d="M2867,12190l0,113" style="fill:none;stroke:rgb(21,183,183);stroke-width:2px;stroke-dasharray:2,6,0,0;"/>
            </g>
            <g transform="matrix(1,0,0,1,802,705)">
                <path d="M2153,12132l74,56" style="fill:none;stroke:rgb(21,183,183);stroke-width:2px;stroke-dasharray:2,6,0,0;"/>
            </g>
            <g transform="matrix(0.583236,0,0,0.583236,3193.74,12748.2)">
                <circle cx="817.043" cy="446.457" r="20.095" style="fill:rgb(247,0,255);"/>
            </g>
            <g transform="matrix(0.583236,0,0,0.583236,2551.29,12633.3)">
                <circle cx="817.043" cy="446.457" r="20.095" style="fill:rgb(247,0,255);"/>
            </g>
        </g>
    </g>
</svg>
