<?xml version="1.0" encoding="UTF-8" standalone="no"?>
<!DOCTYPE svg PUBLIC "-//W3C//DTD SVG 1.1//EN" "http://www.w3.org/Graphics/SVG/1.1/DTD/svg11.dtd">
<svg width="100%" height="100%" viewBox="0 0 684 351" version="1.1" xmlns="http://www.w3.org/2000/svg" xmlns:xlink="http://www.w3.org/1999/xlink" xml:space="preserve" xmlns:serif="http://www.serif.com/" style="fill-rule:evenodd;clip-rule:evenodd;stroke-linecap:square;stroke-linejoin:round;stroke-miterlimit:10;">
    <rect id="Geometric-Operations" serif:id="Geometric Operations" x="-2911" y="-1489" width="6739" height="2861" style="fill:none;"/>
    <g id="Geometric-Operations1" serif:id="Geometric Operations">
        <path d="M662.527,130.548L234.73,65.348" style="fill:none;stroke:black;stroke-width:5px;stroke-dasharray:5,15,0,0;"/>
        <circle cx="16.032" cy="106.995" r="11.72" style="fill:rgb(21,183,183);"/>
        <circle cx="117.724" cy="70.669" r="11.72" style="fill:rgb(21,183,183);"/>
        <circle cx="55.129" cy="226.525" r="11.72" style="fill:rgb(21,183,183);"/>
        <circle cx="197.414" cy="222.975" r="11.72" style="fill:rgb(21,183,183);"/>
        <circle cx="122.007" cy="166.145" r="11.72" style="fill:rgb(21,183,183);"/>
        <circle cx="220.988" cy="166.454" r="11.72" style="fill:rgb(21,183,183);"/>
        <circle cx="141.895" cy="330.518" r="11.72" style="fill:rgb(21,183,183);"/>
        <circle cx="220.988" cy="288.442" r="11.72" style="fill:rgb(21,183,183);"/>
        <circle cx="234.73" cy="65.348" r="11.72" style="fill:rgb(21,183,183);"/>
        <circle cx="478.619" cy="78.477" r="11.72" style="fill:rgb(247,0,255);"/>
        <circle cx="540.61" cy="335.125" r="11.72" style="fill:rgb(247,0,255);"/>
        <circle cx="400.82" cy="143.014" r="11.72" style="fill:rgb(247,0,255);"/>
        <circle cx="564.432" cy="178.174" r="11.72" style="fill:rgb(247,0,255);"/>
        <circle cx="474.16" cy="262.759" r="11.72" style="fill:rgb(247,0,255);"/>
        <circle cx="373.603" cy="242.688" r="11.72" style="fill:rgb(247,0,255);"/>
        <circle cx="440.263" cy="198.942" r="11.72" style="fill:rgb(247,0,255);"/>
        <circle cx="606.181" cy="61.055" r="11.72" style="fill:rgb(247,0,255);"/>
        <circle cx="662.527" cy="130.548" r="11.72" style="fill:rgb(247,0,255);"/>
        <path d="M179.452,32.672L169.66,32.672L165.676,40.112L159.052,40.112L177.724,6.272L182.332,6.272L186.7,40.112L180.412,40.112L179.452,32.672ZM172.396,27.392L179.212,27.392L178.444,19.904L178.492,14.624L178.252,14.624L176.332,19.952L172.396,27.392Z" style="fill-rule:nonzero;"/>
        <path d="M534.034,6.992C534.642,6.896 535.33,6.8 536.098,6.704C536.866,6.608 537.682,6.528 538.546,6.464C539.41,6.4 540.298,6.352 541.21,6.32C542.122,6.288 543.01,6.272 543.874,6.272C545.346,6.272 546.714,6.424 547.978,6.728C549.242,7.032 550.33,7.504 551.242,8.144C552.154,8.784 552.874,9.608 553.402,10.616C553.93,11.624 554.194,12.832 554.194,14.24C554.194,15.296 554.018,16.312 553.666,17.288C553.314,18.264 552.81,19.136 552.154,19.904C551.498,20.672 550.714,21.312 549.802,21.824C548.89,22.336 547.858,22.672 546.706,22.832L546.706,23.072C547.314,23.2 547.922,23.432 548.53,23.768C549.138,24.104 549.682,24.536 550.162,25.064C550.642,25.592 551.026,26.216 551.314,26.936C551.602,27.656 551.746,28.464 551.746,29.36C551.746,31.408 551.346,33.16 550.546,34.616C549.746,36.072 548.674,37.256 547.33,38.168C545.986,39.08 544.418,39.752 542.626,40.184C540.834,40.616 538.946,40.832 536.962,40.832L534.97,40.832C534.154,40.832 533.282,40.808 532.354,40.76C531.426,40.712 530.498,40.64 529.57,40.544C528.642,40.448 527.794,40.304 527.026,40.112L534.034,6.992ZM534.082,35.12C534.21,35.184 534.442,35.232 534.778,35.264C535.114,35.296 535.482,35.32 535.882,35.336C536.282,35.352 536.69,35.368 537.106,35.384C537.522,35.4 537.874,35.408 538.162,35.408C538.962,35.408 539.786,35.312 540.634,35.12C541.482,34.928 542.25,34.608 542.938,34.16C543.626,33.712 544.194,33.136 544.642,32.432C545.09,31.728 545.314,30.864 545.314,29.84C545.314,29.04 545.138,28.384 544.786,27.872C544.434,27.36 543.97,26.952 543.394,26.648C542.818,26.344 542.154,26.136 541.402,26.024C540.65,25.912 539.874,25.856 539.074,25.856L536.002,25.856L534.082,35.12ZM537.106,20.864L539.17,20.864C539.618,20.864 540.146,20.856 540.754,20.84C541.362,20.824 541.874,20.784 542.29,20.72C542.866,20.624 543.482,20.464 544.138,20.24C544.794,20.016 545.386,19.696 545.914,19.28C546.442,18.864 546.882,18.336 547.234,17.696C547.586,17.056 547.762,16.256 547.762,15.296C547.762,13.92 547.306,12.976 546.394,12.464C545.482,11.952 544.322,11.696 542.914,11.696C542.082,11.696 541.314,11.712 540.61,11.744C539.906,11.776 539.362,11.824 538.978,11.888L537.106,20.864Z" style="fill-rule:nonzero;"/>
    </g>
</svg>
