<?xml version="1.0" encoding="UTF-8" standalone="no"?>
<!DOCTYPE svg PUBLIC "-//W3C//DTD SVG 1.1//EN" "http://www.w3.org/Graphics/SVG/1.1/DTD/svg11.dtd">
<svg width="100%" height="100%" viewBox="0 0 684 352" version="1.1" xmlns="http://www.w3.org/2000/svg" xmlns:xlink="http://www.w3.org/1999/xlink" xml:space="preserve" xmlns:serif="http://www.serif.com/" style="fill-rule:evenodd;clip-rule:evenodd;stroke-linecap:square;stroke-linejoin:round;stroke-miterlimit:10;">
    <rect id="Geometric-Operations" serif:id="Geometric Operations" x="-2911" y="-1072" width="6739" height="2861" style="fill:none;"/>
    <g id="Geometric-Operations1" serif:id="Geometric Operations">
        <path d="M662.527,130.7L234.73,65.499" style="fill:none;stroke:rgb(247,0,255);stroke-width:5px;stroke-dasharray:5,15,0,0;"/>
        <path d="M16.032,106.583L400.82,142.602" style="fill:none;stroke:rgb(21,183,183);stroke-width:5px;stroke-dasharray:5,15,0,0;"/>
        <circle cx="16.032" cy="107.146" r="11.72" style="fill:rgb(21,183,183);"/>
        <circle cx="117.724" cy="70.821" r="11.72" style="fill:rgb(21,183,183);"/>
        <circle cx="55.129" cy="226.676" r="11.72" style="fill:rgb(21,183,183);"/>
        <circle cx="197.414" cy="223.127" r="11.72" style="fill:rgb(21,183,183);"/>
        <circle cx="122.007" cy="166.297" r="11.72" style="fill:rgb(21,183,183);"/>
        <circle cx="220.988" cy="166.605" r="11.72" style="fill:rgb(21,183,183);"/>
        <circle cx="141.895" cy="330.669" r="11.72" style="fill:rgb(21,183,183);"/>
        <circle cx="220.988" cy="288.593" r="11.72" style="fill:rgb(21,183,183);"/>
        <circle cx="234.73" cy="65.499" r="11.72" style="fill:rgb(21,183,183);"/>
        <circle cx="478.619" cy="78.628" r="11.72" style="fill:rgb(247,0,255);"/>
        <circle cx="540.61" cy="335.277" r="11.72" style="fill:rgb(247,0,255);"/>
        <circle cx="400.82" cy="143.165" r="11.72" style="fill:rgb(247,0,255);"/>
        <circle cx="564.432" cy="178.325" r="11.72" style="fill:rgb(247,0,255);"/>
        <circle cx="474.16" cy="262.91" r="11.72" style="fill:rgb(247,0,255);"/>
        <circle cx="373.603" cy="242.839" r="11.72" style="fill:rgb(247,0,255);"/>
        <circle cx="440.263" cy="199.093" r="11.72" style="fill:rgb(247,0,255);"/>
        <circle cx="606.181" cy="61.206" r="11.72" style="fill:rgb(247,0,255);"/>
        <circle cx="662.527" cy="130.7" r="11.72" style="fill:rgb(247,0,255);"/>
        <path d="M179.452,32.824L169.66,32.824L165.676,40.264L159.052,40.264L177.724,6.424L182.332,6.424L186.7,40.264L180.412,40.264L179.452,32.824ZM172.396,27.544L179.212,27.544L178.444,20.056L178.492,14.776L178.252,14.776L176.332,20.104L172.396,27.544Z" style="fill-rule:nonzero;"/>
        <path d="M534.034,7.144C534.642,7.048 535.33,6.952 536.098,6.856C536.866,6.76 537.682,6.68 538.546,6.616C539.41,6.552 540.298,6.504 541.21,6.472C542.122,6.44 543.01,6.424 543.874,6.424C545.346,6.424 546.714,6.576 547.978,6.88C549.242,7.184 550.33,7.656 551.242,8.296C552.154,8.936 552.874,9.76 553.402,10.768C553.93,11.776 554.194,12.984 554.194,14.392C554.194,15.448 554.018,16.464 553.666,17.44C553.314,18.416 552.81,19.288 552.154,20.056C551.498,20.824 550.714,21.464 549.802,21.976C548.89,22.488 547.858,22.824 546.706,22.984L546.706,23.224C547.314,23.352 547.922,23.584 548.53,23.92C549.138,24.256 549.682,24.688 550.162,25.216C550.642,25.744 551.026,26.368 551.314,27.088C551.602,27.808 551.746,28.616 551.746,29.512C551.746,31.56 551.346,33.312 550.546,34.768C549.746,36.224 548.674,37.408 547.33,38.32C545.986,39.232 544.418,39.904 542.626,40.336C540.834,40.768 538.946,40.984 536.962,40.984L534.97,40.984C534.154,40.984 533.282,40.96 532.354,40.912C531.426,40.864 530.498,40.792 529.57,40.696C528.642,40.6 527.794,40.456 527.026,40.264L534.034,7.144ZM534.082,35.272C534.21,35.336 534.442,35.384 534.778,35.416C535.114,35.448 535.482,35.472 535.882,35.488C536.282,35.504 536.69,35.52 537.106,35.536C537.522,35.552 537.874,35.56 538.162,35.56C538.962,35.56 539.786,35.464 540.634,35.272C541.482,35.08 542.25,34.76 542.938,34.312C543.626,33.864 544.194,33.288 544.642,32.584C545.09,31.88 545.314,31.016 545.314,29.992C545.314,29.192 545.138,28.536 544.786,28.024C544.434,27.512 543.97,27.104 543.394,26.8C542.818,26.496 542.154,26.288 541.402,26.176C540.65,26.064 539.874,26.008 539.074,26.008L536.002,26.008L534.082,35.272ZM537.106,21.016L539.17,21.016C539.618,21.016 540.146,21.008 540.754,20.992C541.362,20.976 541.874,20.936 542.29,20.872C542.866,20.776 543.482,20.616 544.138,20.392C544.794,20.168 545.386,19.848 545.914,19.432C546.442,19.016 546.882,18.488 547.234,17.848C547.586,17.208 547.762,16.408 547.762,15.448C547.762,14.072 547.306,13.128 546.394,12.616C545.482,12.104 544.322,11.848 542.914,11.848C542.082,11.848 541.314,11.864 540.61,11.896C539.906,11.928 539.362,11.976 538.978,12.04L537.106,21.016Z" style="fill-rule:nonzero;"/>
    </g>
</svg>
