<?xml version="1.0" encoding="UTF-8" standalone="no"?>
<!DOCTYPE svg PUBLIC "-//W3C//DTD SVG 1.1//EN" "http://www.w3.org/Graphics/SVG/1.1/DTD/svg11.dtd">
<svg width="100%" height="100%" viewBox="0 0 587 680" version="1.1" xmlns="http://www.w3.org/2000/svg" xmlns:xlink="http://www.w3.org/1999/xlink" xml:space="preserve" xmlns:serif="http://www.serif.com/" style="fill-rule:evenodd;clip-rule:evenodd;stroke-miterlimit:10;">
    <rect id="Artboard9" x="-162" y="-175" width="2618" height="2846" style="fill:none;"/>
    <path d="M351.84,307.82L461.709,246.49L423.92,309.599L351.84,307.82Z" style="fill:rgb(249,85,185);"/>
    <path d="M562,79L482.204,113.579L523.32,143.597L562,79Z" style="fill:rgb(249,85,185);"/>
    <path d="M33.096,300.35L107.612,269.361L108.243,301.808L33.096,300.35Z" style="fill:rgb(249,85,185);"/>
    <path d="M198,16L260.685,26.849L169.202,66.176L198,16Z" style="fill:rgb(45,231,231);"/>
    <path d="M33.096,300.35L74.009,232.033L107.612,269.361L33.096,300.35Z" style="fill:rgb(45,231,231);"/>
    <path d="M33.523,644.35L69.919,583.904L108.67,645.808L33.523,644.35Z" style="fill:rgb(248,253,112);"/>
    <path d="M348.202,651.72L379.177,594.897L424.347,653.599L348.202,651.72Z" style="fill:rgb(248,253,112);"/>
    <path d="M379.177,594.897L459.497,594.897L424.347,653.599L379.177,594.897Z" style="fill:rgb(144,250,46);"/>
    <path d="M492.638,410.921L562.404,422.797L525.88,484.035L492.638,410.921Z" style="fill:rgb(144,250,46);"/>
    <path d="M198.427,360L268.194,371.876L242.502,417.278L198.427,360Z" style="fill:rgb(144,250,46);"/>
    <path d="M164.694,418.537L198.427,360L243.47,418.537L164.694,418.537Z" style="fill:rgb(248,253,112);"/>
    <path d="M561.352,80.664L482.204,111.674L477.349,64.349L561.352,80.664Z" style="fill:rgb(45,231,231);"/>
    <path d="M35,300L198,16L562,79L423.92,309.599L35,300Z" style="fill:none;stroke:black;stroke-width:4px;"/>
    <path d="M35.427,644L198.427,360L562.427,423L424.347,653.599L35.427,644Z" style="fill:none;stroke:black;stroke-width:4px;"/>
    <circle cx="196.696" cy="16" r="13.5"/>
    <circle cx="197.123" cy="360" r="13.5"/>
    <circle cx="33.096" cy="300.35" r="13.5"/>
    <circle cx="33.523" cy="644.35" r="13.5"/>
    <circle cx="422.939" cy="308.624" r="13.5"/>
    <circle cx="423.366" cy="652.624" r="13.5"/>
    <circle cx="564.425" cy="79.386" r="13.5"/>
    <circle cx="564.852" cy="423.386" r="13.5"/>
    <path d="M33.096,300.35L564.425,79.386" style="fill:none;stroke:black;stroke-width:4px;"/>
    <path d="M198.427,360L424.347,653.599" style="fill:none;stroke:black;stroke-width:4px;"/>
    <g transform="matrix(1,0,0,1,-17181,-11188.1)">
        <g transform="matrix(48,0,0,48,17267.7,11427.4)">
            <path d="M0.379,-0.337C0.362,-0.396 0.335,-0.478 0.237,-0.478C0.115,-0.478 0.037,-0.37 0.037,-0.215C0.037,-0.079 0.073,0.021 0.179,0.021C0.257,0.021 0.313,-0.057 0.36,-0.152L0.368,-0.152C0.37,-0.12 0.369,-0.094 0.371,-0.07C0.373,-0.02 0.389,0.011 0.436,0.011C0.524,0.011 0.562,-0.086 0.575,-0.113L0.549,-0.129C0.533,-0.108 0.516,-0.091 0.484,-0.091C0.424,-0.091 0.414,-0.178 0.414,-0.24C0.414,-0.245 0.459,-0.314 0.523,-0.411L0.547,-0.445L0.547,-0.474L0.431,-0.471C0.418,-0.436 0.405,-0.4 0.385,-0.337L0.379,-0.337ZM0.195,-0.121C0.15,-0.121 0.094,-0.145 0.094,-0.227C0.094,-0.314 0.155,-0.351 0.238,-0.351C0.295,-0.351 0.343,-0.327 0.343,-0.267C0.343,-0.194 0.29,-0.121 0.195,-0.121Z" style="fill-rule:nonzero;"/>
        </g>
        <g transform="matrix(27.984,0,0,27.984,17294.9,11443.4)">
            <path d="M0.043,-0.35C0.043,-0.47 0.063,-0.56 0.102,-0.621C0.14,-0.682 0.197,-0.712 0.272,-0.712C0.353,-0.712 0.411,-0.682 0.448,-0.623C0.484,-0.563 0.502,-0.472 0.502,-0.35C0.502,-0.23 0.483,-0.14 0.444,-0.079C0.405,-0.018 0.347,0.012 0.272,0.012C0.193,0.012 0.135,-0.02 0.098,-0.083C0.061,-0.146 0.043,-0.235 0.043,-0.35ZM0.126,-0.35C0.126,-0.307 0.129,-0.267 0.135,-0.232C0.14,-0.196 0.149,-0.165 0.161,-0.14C0.173,-0.114 0.188,-0.094 0.207,-0.08C0.225,-0.065 0.247,-0.058 0.272,-0.058C0.323,-0.058 0.36,-0.082 0.384,-0.129C0.407,-0.175 0.419,-0.249 0.419,-0.35C0.419,-0.393 0.417,-0.432 0.412,-0.468C0.407,-0.504 0.398,-0.535 0.387,-0.561C0.375,-0.587 0.36,-0.607 0.341,-0.621C0.322,-0.635 0.299,-0.642 0.272,-0.642C0.222,-0.642 0.185,-0.618 0.162,-0.571C0.138,-0.524 0.126,-0.45 0.126,-0.35Z" style="fill-rule:nonzero;"/>
        </g>
    </g>
    <g transform="matrix(1,0,0,1,-17172.5,-10819.5)">
        <g transform="matrix(48,0,0,48,17267.7,11427.4)">
            <path d="M0.379,-0.337C0.362,-0.396 0.335,-0.478 0.237,-0.478C0.115,-0.478 0.037,-0.37 0.037,-0.215C0.037,-0.079 0.073,0.021 0.179,0.021C0.257,0.021 0.313,-0.057 0.36,-0.152L0.368,-0.152C0.37,-0.12 0.369,-0.094 0.371,-0.07C0.373,-0.02 0.389,0.011 0.436,0.011C0.524,0.011 0.562,-0.086 0.575,-0.113L0.549,-0.129C0.533,-0.108 0.516,-0.091 0.484,-0.091C0.424,-0.091 0.414,-0.178 0.414,-0.24C0.414,-0.245 0.459,-0.314 0.523,-0.411L0.547,-0.445L0.547,-0.474L0.431,-0.471C0.418,-0.436 0.405,-0.4 0.385,-0.337L0.379,-0.337ZM0.195,-0.121C0.15,-0.121 0.094,-0.145 0.094,-0.227C0.094,-0.314 0.155,-0.351 0.238,-0.351C0.295,-0.351 0.343,-0.327 0.343,-0.267C0.343,-0.194 0.29,-0.121 0.195,-0.121Z" style="fill-rule:nonzero;"/>
        </g>
        <g transform="matrix(48,0,0,48,17294.9,11427.4)">
            <path d="M0.053,-0.505L0.091,-0.505L0.14,-0.688L0.14,-0.706L0.052,-0.706L0.053,-0.505Z" style="fill-rule:nonzero;"/>
        </g>
        <g transform="matrix(27.984,0,0,27.984,17303.8,11443.4)">
            <path d="M0.043,-0.35C0.043,-0.47 0.063,-0.56 0.102,-0.621C0.14,-0.682 0.197,-0.712 0.272,-0.712C0.353,-0.712 0.411,-0.682 0.448,-0.623C0.484,-0.563 0.502,-0.472 0.502,-0.35C0.502,-0.23 0.483,-0.14 0.444,-0.079C0.405,-0.018 0.347,0.012 0.272,0.012C0.193,0.012 0.135,-0.02 0.098,-0.083C0.061,-0.146 0.043,-0.235 0.043,-0.35ZM0.126,-0.35C0.126,-0.307 0.129,-0.267 0.135,-0.232C0.14,-0.196 0.149,-0.165 0.161,-0.14C0.173,-0.114 0.188,-0.094 0.207,-0.08C0.225,-0.065 0.247,-0.058 0.272,-0.058C0.323,-0.058 0.36,-0.082 0.384,-0.129C0.407,-0.175 0.419,-0.249 0.419,-0.35C0.419,-0.393 0.417,-0.432 0.412,-0.468C0.407,-0.504 0.398,-0.535 0.387,-0.561C0.375,-0.587 0.36,-0.607 0.341,-0.621C0.322,-0.635 0.299,-0.642 0.272,-0.642C0.222,-0.642 0.185,-0.618 0.162,-0.571C0.138,-0.524 0.126,-0.45 0.126,-0.35Z" style="fill-rule:nonzero;"/>
        </g>
    </g>
    <g transform="matrix(1,0,0,1,-17128.6,-11145.4)">
        <g transform="matrix(48,0,0,48,17267.7,11427.4)">
            <path d="M0.379,-0.337C0.362,-0.396 0.335,-0.478 0.237,-0.478C0.115,-0.478 0.037,-0.37 0.037,-0.215C0.037,-0.079 0.073,0.021 0.179,0.021C0.257,0.021 0.313,-0.057 0.36,-0.152L0.368,-0.152C0.37,-0.12 0.369,-0.094 0.371,-0.07C0.373,-0.02 0.389,0.011 0.436,0.011C0.524,0.011 0.562,-0.086 0.575,-0.113L0.549,-0.129C0.533,-0.108 0.516,-0.091 0.484,-0.091C0.424,-0.091 0.414,-0.178 0.414,-0.24C0.414,-0.245 0.459,-0.314 0.523,-0.411L0.547,-0.445L0.547,-0.474L0.431,-0.471C0.418,-0.436 0.405,-0.4 0.385,-0.337L0.379,-0.337ZM0.195,-0.121C0.15,-0.121 0.094,-0.145 0.094,-0.227C0.094,-0.314 0.155,-0.351 0.238,-0.351C0.295,-0.351 0.343,-0.327 0.343,-0.267C0.343,-0.194 0.29,-0.121 0.195,-0.121Z" style="fill-rule:nonzero;"/>
        </g>
        <g transform="matrix(27.984,0,0,27.984,17294.9,11443.4)">
            <path d="M0.234,-0.058C0.257,-0.058 0.278,-0.061 0.297,-0.068C0.316,-0.075 0.333,-0.085 0.347,-0.098C0.361,-0.111 0.372,-0.126 0.38,-0.144C0.388,-0.162 0.392,-0.182 0.392,-0.203C0.392,-0.25 0.378,-0.284 0.351,-0.307C0.323,-0.33 0.285,-0.341 0.236,-0.341L0.162,-0.341L0.162,-0.37L0.306,-0.592L0.352,-0.636L0.287,-0.626L0.089,-0.626L0.089,-0.7L0.446,-0.7L0.446,-0.671L0.287,-0.432L0.252,-0.403L0.252,-0.401L0.286,-0.408C0.313,-0.407 0.337,-0.403 0.36,-0.394C0.383,-0.385 0.402,-0.372 0.419,-0.355C0.436,-0.337 0.449,-0.317 0.458,-0.294C0.467,-0.27 0.472,-0.243 0.472,-0.213C0.472,-0.177 0.466,-0.145 0.453,-0.117C0.44,-0.089 0.423,-0.066 0.402,-0.047C0.38,-0.028 0.354,-0.013 0.325,-0.003C0.296,0.007 0.265,0.012 0.232,0.012C0.202,0.012 0.175,0.01 0.151,0.005C0.127,0 0.106,-0.006 0.088,-0.013L0.109,-0.084C0.124,-0.077 0.142,-0.07 0.164,-0.066C0.185,-0.061 0.208,-0.058 0.234,-0.058Z" style="fill-rule:nonzero;"/>
        </g>
    </g>
    <g transform="matrix(1,0,0,1,-16869.6,-10862.4)">
        <g transform="matrix(48,0,0,48,17267.7,11427.4)">
            <path d="M0.379,-0.337C0.362,-0.396 0.335,-0.478 0.237,-0.478C0.115,-0.478 0.037,-0.37 0.037,-0.215C0.037,-0.079 0.073,0.021 0.179,0.021C0.257,0.021 0.313,-0.057 0.36,-0.152L0.368,-0.152C0.37,-0.12 0.369,-0.094 0.371,-0.07C0.373,-0.02 0.389,0.011 0.436,0.011C0.524,0.011 0.562,-0.086 0.575,-0.113L0.549,-0.129C0.533,-0.108 0.516,-0.091 0.484,-0.091C0.424,-0.091 0.414,-0.178 0.414,-0.24C0.414,-0.245 0.459,-0.314 0.523,-0.411L0.547,-0.445L0.547,-0.474L0.431,-0.471C0.418,-0.436 0.405,-0.4 0.385,-0.337L0.379,-0.337ZM0.195,-0.121C0.15,-0.121 0.094,-0.145 0.094,-0.227C0.094,-0.314 0.155,-0.351 0.238,-0.351C0.295,-0.351 0.343,-0.327 0.343,-0.267C0.343,-0.194 0.29,-0.121 0.195,-0.121Z" style="fill-rule:nonzero;"/>
        </g>
        <g transform="matrix(48,0,0,48,17294.9,11427.4)">
            <path d="M0.053,-0.505L0.091,-0.505L0.14,-0.688L0.14,-0.706L0.052,-0.706L0.053,-0.505Z" style="fill-rule:nonzero;"/>
        </g>
        <g transform="matrix(27.984,0,0,27.984,17303.8,11443.4)">
            <path d="M0.234,-0.058C0.257,-0.058 0.278,-0.061 0.297,-0.068C0.316,-0.075 0.333,-0.085 0.347,-0.098C0.361,-0.111 0.372,-0.126 0.38,-0.144C0.388,-0.162 0.392,-0.182 0.392,-0.203C0.392,-0.25 0.378,-0.284 0.351,-0.307C0.323,-0.33 0.285,-0.341 0.236,-0.341L0.162,-0.341L0.162,-0.37L0.306,-0.592L0.352,-0.636L0.287,-0.626L0.089,-0.626L0.089,-0.7L0.446,-0.7L0.446,-0.671L0.287,-0.432L0.252,-0.403L0.252,-0.401L0.286,-0.408C0.313,-0.407 0.337,-0.403 0.36,-0.394C0.383,-0.385 0.402,-0.372 0.419,-0.355C0.436,-0.337 0.449,-0.317 0.458,-0.294C0.467,-0.27 0.472,-0.243 0.472,-0.213C0.472,-0.177 0.466,-0.145 0.453,-0.117C0.44,-0.089 0.423,-0.066 0.402,-0.047C0.38,-0.028 0.354,-0.013 0.325,-0.003C0.296,0.007 0.265,0.012 0.232,0.012C0.202,0.012 0.175,0.01 0.151,0.005C0.127,0 0.106,-0.006 0.088,-0.013L0.109,-0.084C0.124,-0.077 0.142,-0.07 0.164,-0.066C0.185,-0.061 0.208,-0.058 0.234,-0.058Z" style="fill-rule:nonzero;"/>
        </g>
    </g>
    <g transform="matrix(1,0,0,1,-16909.9,-11172.6)">
        <g transform="matrix(48,0,0,48,17267.7,11427.4)">
            <path d="M0.379,-0.337C0.362,-0.396 0.335,-0.478 0.237,-0.478C0.115,-0.478 0.037,-0.37 0.037,-0.215C0.037,-0.079 0.073,0.021 0.179,0.021C0.257,0.021 0.313,-0.057 0.36,-0.152L0.368,-0.152C0.37,-0.12 0.369,-0.094 0.371,-0.07C0.373,-0.02 0.389,0.011 0.436,0.011C0.524,0.011 0.562,-0.086 0.575,-0.113L0.549,-0.129C0.533,-0.108 0.516,-0.091 0.484,-0.091C0.424,-0.091 0.414,-0.178 0.414,-0.24C0.414,-0.245 0.459,-0.314 0.523,-0.411L0.547,-0.445L0.547,-0.474L0.431,-0.471C0.418,-0.436 0.405,-0.4 0.385,-0.337L0.379,-0.337ZM0.195,-0.121C0.15,-0.121 0.094,-0.145 0.094,-0.227C0.094,-0.314 0.155,-0.351 0.238,-0.351C0.295,-0.351 0.343,-0.327 0.343,-0.267C0.343,-0.194 0.29,-0.121 0.195,-0.121Z" style="fill-rule:nonzero;"/>
        </g>
        <g transform="matrix(27.984,0,0,27.984,17294.9,11443.4)">
            <path d="M0.524,-0.215L0.406,-0.215L0.406,-0L0.328,-0L0.328,-0.215L0.02,-0.215L0.02,-0.248L0.352,-0.711L0.406,-0.711L0.406,-0.285L0.524,-0.285L0.524,-0.215ZM0.328,-0.503L0.338,-0.585L0.335,-0.585L0.3,-0.517L0.159,-0.326L0.111,-0.277L0.181,-0.285L0.328,-0.285L0.328,-0.503Z" style="fill-rule:nonzero;"/>
        </g>
    </g>
    <g transform="matrix(1,0,0,1,-16821,-10956.6)">
        <g transform="matrix(48,0,0,48,17267.7,11427.4)">
            <path d="M0.379,-0.337C0.362,-0.396 0.335,-0.478 0.237,-0.478C0.115,-0.478 0.037,-0.37 0.037,-0.215C0.037,-0.079 0.073,0.021 0.179,0.021C0.257,0.021 0.313,-0.057 0.36,-0.152L0.368,-0.152C0.37,-0.12 0.369,-0.094 0.371,-0.07C0.373,-0.02 0.389,0.011 0.436,0.011C0.524,0.011 0.562,-0.086 0.575,-0.113L0.549,-0.129C0.533,-0.108 0.516,-0.091 0.484,-0.091C0.424,-0.091 0.414,-0.178 0.414,-0.24C0.414,-0.245 0.459,-0.314 0.523,-0.411L0.547,-0.445L0.547,-0.474L0.431,-0.471C0.418,-0.436 0.405,-0.4 0.385,-0.337L0.379,-0.337ZM0.195,-0.121C0.15,-0.121 0.094,-0.145 0.094,-0.227C0.094,-0.314 0.155,-0.351 0.238,-0.351C0.295,-0.351 0.343,-0.327 0.343,-0.267C0.343,-0.194 0.29,-0.121 0.195,-0.121Z" style="fill-rule:nonzero;"/>
        </g>
        <g transform="matrix(48,0,0,48,17294.9,11427.4)">
            <path d="M0.053,-0.505L0.091,-0.505L0.14,-0.688L0.14,-0.706L0.052,-0.706L0.053,-0.505Z" style="fill-rule:nonzero;"/>
        </g>
        <g transform="matrix(27.984,0,0,27.984,17303.8,11443.4)">
            <path d="M0.524,-0.215L0.406,-0.215L0.406,-0L0.328,-0L0.328,-0.215L0.02,-0.215L0.02,-0.248L0.352,-0.711L0.406,-0.711L0.406,-0.285L0.524,-0.285L0.524,-0.215ZM0.328,-0.503L0.338,-0.585L0.335,-0.585L0.3,-0.517L0.159,-0.326L0.111,-0.277L0.181,-0.285L0.328,-0.285L0.328,-0.503Z" style="fill-rule:nonzero;"/>
        </g>
    </g>
    <g transform="matrix(1,0,0,1,-16809,-11271.4)">
        <g transform="matrix(48,0,0,48,17267.7,11427.4)">
            <path d="M0.379,-0.337C0.362,-0.396 0.335,-0.478 0.237,-0.478C0.115,-0.478 0.037,-0.37 0.037,-0.215C0.037,-0.079 0.073,0.021 0.179,0.021C0.257,0.021 0.313,-0.057 0.36,-0.152L0.368,-0.152C0.37,-0.12 0.369,-0.094 0.371,-0.07C0.373,-0.02 0.389,0.011 0.436,0.011C0.524,0.011 0.562,-0.086 0.575,-0.113L0.549,-0.129C0.533,-0.108 0.516,-0.091 0.484,-0.091C0.424,-0.091 0.414,-0.178 0.414,-0.24C0.414,-0.245 0.459,-0.314 0.523,-0.411L0.547,-0.445L0.547,-0.474L0.431,-0.471C0.418,-0.436 0.405,-0.4 0.385,-0.337L0.379,-0.337ZM0.195,-0.121C0.15,-0.121 0.094,-0.145 0.094,-0.227C0.094,-0.314 0.155,-0.351 0.238,-0.351C0.295,-0.351 0.343,-0.327 0.343,-0.267C0.343,-0.194 0.29,-0.121 0.195,-0.121Z" style="fill-rule:nonzero;"/>
        </g>
        <g transform="matrix(27.984,0,0,27.984,17294.9,11443.4)">
            <path d="M0.213,-0.058C0.259,-0.058 0.297,-0.071 0.327,-0.098C0.357,-0.125 0.372,-0.163 0.372,-0.214C0.372,-0.263 0.357,-0.299 0.328,-0.323C0.298,-0.347 0.257,-0.359 0.205,-0.359L0.121,-0.354L0.121,-0.7L0.433,-0.7L0.433,-0.626L0.196,-0.626L0.196,-0.427L0.239,-0.429C0.305,-0.428 0.357,-0.41 0.395,-0.374C0.433,-0.338 0.452,-0.286 0.452,-0.219C0.452,-0.182 0.446,-0.149 0.433,-0.12C0.42,-0.091 0.403,-0.066 0.382,-0.047C0.36,-0.028 0.334,-0.013 0.305,-0.003C0.276,0.007 0.244,0.012 0.211,0.012C0.181,0.012 0.156,0.01 0.135,0.007C0.114,0.004 0.095,-0.001 0.077,-0.008L0.098,-0.076C0.113,-0.07 0.13,-0.066 0.148,-0.063C0.165,-0.059 0.187,-0.058 0.213,-0.058Z" style="fill-rule:nonzero;"/>
        </g>
    </g>
    <g transform="matrix(1,0,0,1,-17001.2,-11006.8)">
        <g transform="matrix(48,0,0,48,17267.7,11427.4)">
            <path d="M0.379,-0.337C0.362,-0.396 0.335,-0.478 0.237,-0.478C0.115,-0.478 0.037,-0.37 0.037,-0.215C0.037,-0.079 0.073,0.021 0.179,0.021C0.257,0.021 0.313,-0.057 0.36,-0.152L0.368,-0.152C0.37,-0.12 0.369,-0.094 0.371,-0.07C0.373,-0.02 0.389,0.011 0.436,0.011C0.524,0.011 0.562,-0.086 0.575,-0.113L0.549,-0.129C0.533,-0.108 0.516,-0.091 0.484,-0.091C0.424,-0.091 0.414,-0.178 0.414,-0.24C0.414,-0.245 0.459,-0.314 0.523,-0.411L0.547,-0.445L0.547,-0.474L0.431,-0.471C0.418,-0.436 0.405,-0.4 0.385,-0.337L0.379,-0.337ZM0.195,-0.121C0.15,-0.121 0.094,-0.145 0.094,-0.227C0.094,-0.314 0.155,-0.351 0.238,-0.351C0.295,-0.351 0.343,-0.327 0.343,-0.267C0.343,-0.194 0.29,-0.121 0.195,-0.121Z" style="fill-rule:nonzero;"/>
        </g>
        <g transform="matrix(48,0,0,48,17294.9,11427.4)">
            <path d="M0.053,-0.505L0.091,-0.505L0.14,-0.688L0.14,-0.706L0.052,-0.706L0.053,-0.505Z" style="fill-rule:nonzero;"/>
        </g>
        <g transform="matrix(27.984,0,0,27.984,17303.8,11443.4)">
            <path d="M0.213,-0.058C0.259,-0.058 0.297,-0.071 0.327,-0.098C0.357,-0.125 0.372,-0.163 0.372,-0.214C0.372,-0.263 0.357,-0.299 0.328,-0.323C0.298,-0.347 0.257,-0.359 0.205,-0.359L0.121,-0.354L0.121,-0.7L0.433,-0.7L0.433,-0.626L0.196,-0.626L0.196,-0.427L0.239,-0.429C0.305,-0.428 0.357,-0.41 0.395,-0.374C0.433,-0.338 0.452,-0.286 0.452,-0.219C0.452,-0.182 0.446,-0.149 0.433,-0.12C0.42,-0.091 0.403,-0.066 0.382,-0.047C0.36,-0.028 0.334,-0.013 0.305,-0.003C0.276,0.007 0.244,0.012 0.211,0.012C0.181,0.012 0.156,0.01 0.135,0.007C0.114,0.004 0.095,-0.001 0.077,-0.008L0.098,-0.076C0.113,-0.07 0.13,-0.066 0.148,-0.063C0.165,-0.059 0.187,-0.058 0.213,-0.058Z" style="fill-rule:nonzero;"/>
        </g>
    </g>
    <g transform="matrix(1,0,0,1,-16847.3,-11331.7)">
        <g transform="matrix(48,0,0,48,17267.7,11427.4)">
            <path d="M0.379,-0.337C0.362,-0.396 0.335,-0.478 0.237,-0.478C0.115,-0.478 0.037,-0.37 0.037,-0.215C0.037,-0.079 0.073,0.021 0.179,0.021C0.257,0.021 0.313,-0.057 0.36,-0.152L0.368,-0.152C0.37,-0.12 0.369,-0.094 0.371,-0.07C0.373,-0.02 0.389,0.011 0.436,0.011C0.524,0.011 0.562,-0.086 0.575,-0.113L0.549,-0.129C0.533,-0.108 0.516,-0.091 0.484,-0.091C0.424,-0.091 0.414,-0.178 0.414,-0.24C0.414,-0.245 0.459,-0.314 0.523,-0.411L0.547,-0.445L0.547,-0.474L0.431,-0.471C0.418,-0.436 0.405,-0.4 0.385,-0.337L0.379,-0.337ZM0.195,-0.121C0.15,-0.121 0.094,-0.145 0.094,-0.227C0.094,-0.314 0.155,-0.351 0.238,-0.351C0.295,-0.351 0.343,-0.327 0.343,-0.267C0.343,-0.194 0.29,-0.121 0.195,-0.121Z" style="fill-rule:nonzero;"/>
        </g>
        <g transform="matrix(27.984,0,0,27.984,17294.9,11443.4)">
            <path d="M0.108,-0.074L0.248,-0.074L0.248,-0.558L0.258,-0.617L0.218,-0.57L0.108,-0.491L0.07,-0.542L0.29,-0.712L0.326,-0.712L0.326,-0.074L0.463,-0.074L0.463,-0L0.108,-0L0.108,-0.074Z" style="fill-rule:nonzero;"/>
        </g>
    </g>
    <g transform="matrix(1,0,0,1,-16977.8,-10819.2)">
        <g transform="matrix(48,0,0,48,17267.7,11427.4)">
            <path d="M0.379,-0.337C0.362,-0.396 0.335,-0.478 0.237,-0.478C0.115,-0.478 0.037,-0.37 0.037,-0.215C0.037,-0.079 0.073,0.021 0.179,0.021C0.257,0.021 0.313,-0.057 0.36,-0.152L0.368,-0.152C0.37,-0.12 0.369,-0.094 0.371,-0.07C0.373,-0.02 0.389,0.011 0.436,0.011C0.524,0.011 0.562,-0.086 0.575,-0.113L0.549,-0.129C0.533,-0.108 0.516,-0.091 0.484,-0.091C0.424,-0.091 0.414,-0.178 0.414,-0.24C0.414,-0.245 0.459,-0.314 0.523,-0.411L0.547,-0.445L0.547,-0.474L0.431,-0.471C0.418,-0.436 0.405,-0.4 0.385,-0.337L0.379,-0.337ZM0.195,-0.121C0.15,-0.121 0.094,-0.145 0.094,-0.227C0.094,-0.314 0.155,-0.351 0.238,-0.351C0.295,-0.351 0.343,-0.327 0.343,-0.267C0.343,-0.194 0.29,-0.121 0.195,-0.121Z" style="fill-rule:nonzero;"/>
        </g>
        <g transform="matrix(48,0,0,48,17294.9,11427.4)">
            <path d="M0.053,-0.505L0.091,-0.505L0.14,-0.688L0.14,-0.706L0.052,-0.706L0.053,-0.505Z" style="fill-rule:nonzero;"/>
        </g>
        <g transform="matrix(27.984,0,0,27.984,17303.8,11443.4)">
            <path d="M0.108,-0.074L0.248,-0.074L0.248,-0.558L0.258,-0.617L0.218,-0.57L0.108,-0.491L0.07,-0.542L0.29,-0.712L0.326,-0.712L0.326,-0.074L0.463,-0.074L0.463,-0L0.108,-0L0.108,-0.074Z" style="fill-rule:nonzero;"/>
        </g>
    </g>
    <g transform="matrix(1,0,0,1,-17060.1,-11351.2)">
        <g transform="matrix(48,0,0,48,17267.7,11427.4)">
            <path d="M0.379,-0.337C0.362,-0.396 0.335,-0.478 0.237,-0.478C0.115,-0.478 0.037,-0.37 0.037,-0.215C0.037,-0.079 0.073,0.021 0.179,0.021C0.257,0.021 0.313,-0.057 0.36,-0.152L0.368,-0.152C0.37,-0.12 0.369,-0.094 0.371,-0.07C0.373,-0.02 0.389,0.011 0.436,0.011C0.524,0.011 0.562,-0.086 0.575,-0.113L0.549,-0.129C0.533,-0.108 0.516,-0.091 0.484,-0.091C0.424,-0.091 0.414,-0.178 0.414,-0.24C0.414,-0.245 0.459,-0.314 0.523,-0.411L0.547,-0.445L0.547,-0.474L0.431,-0.471C0.418,-0.436 0.405,-0.4 0.385,-0.337L0.379,-0.337ZM0.195,-0.121C0.15,-0.121 0.094,-0.145 0.094,-0.227C0.094,-0.314 0.155,-0.351 0.238,-0.351C0.295,-0.351 0.343,-0.327 0.343,-0.267C0.343,-0.194 0.29,-0.121 0.195,-0.121Z" style="fill-rule:nonzero;"/>
        </g>
        <g transform="matrix(27.984,0,0,27.984,17294.9,11443.4)">
            <path d="M0.446,-0.541C0.446,-0.506 0.44,-0.47 0.427,-0.433C0.413,-0.396 0.397,-0.358 0.376,-0.321C0.355,-0.284 0.331,-0.247 0.305,-0.212C0.279,-0.176 0.253,-0.142 0.227,-0.11L0.178,-0.067L0.178,-0.063L0.242,-0.074L0.46,-0.074L0.46,-0L0.062,-0L0.062,-0.029C0.077,-0.044 0.094,-0.063 0.115,-0.086C0.136,-0.109 0.157,-0.134 0.18,-0.162C0.202,-0.189 0.224,-0.219 0.246,-0.25C0.267,-0.28 0.287,-0.312 0.305,-0.344C0.322,-0.376 0.336,-0.408 0.347,-0.439C0.358,-0.47 0.363,-0.5 0.363,-0.528C0.363,-0.561 0.354,-0.588 0.335,-0.61C0.316,-0.631 0.288,-0.642 0.25,-0.642C0.225,-0.642 0.2,-0.637 0.176,-0.627C0.152,-0.616 0.131,-0.604 0.114,-0.591L0.081,-0.648C0.104,-0.668 0.132,-0.684 0.164,-0.695C0.196,-0.706 0.23,-0.712 0.267,-0.712C0.296,-0.712 0.321,-0.708 0.343,-0.7C0.365,-0.691 0.384,-0.679 0.399,-0.664C0.414,-0.649 0.426,-0.631 0.434,-0.61C0.442,-0.588 0.446,-0.566 0.446,-0.541Z" style="fill-rule:nonzero;"/>
        </g>
    </g>
    <g transform="matrix(1,0,0,1,-17091.5,-10964.6)">
        <g transform="matrix(48,0,0,48,17267.7,11427.4)">
            <path d="M0.379,-0.337C0.362,-0.396 0.335,-0.478 0.237,-0.478C0.115,-0.478 0.037,-0.37 0.037,-0.215C0.037,-0.079 0.073,0.021 0.179,0.021C0.257,0.021 0.313,-0.057 0.36,-0.152L0.368,-0.152C0.37,-0.12 0.369,-0.094 0.371,-0.07C0.373,-0.02 0.389,0.011 0.436,0.011C0.524,0.011 0.562,-0.086 0.575,-0.113L0.549,-0.129C0.533,-0.108 0.516,-0.091 0.484,-0.091C0.424,-0.091 0.414,-0.178 0.414,-0.24C0.414,-0.245 0.459,-0.314 0.523,-0.411L0.547,-0.445L0.547,-0.474L0.431,-0.471C0.418,-0.436 0.405,-0.4 0.385,-0.337L0.379,-0.337ZM0.195,-0.121C0.15,-0.121 0.094,-0.145 0.094,-0.227C0.094,-0.314 0.155,-0.351 0.238,-0.351C0.295,-0.351 0.343,-0.327 0.343,-0.267C0.343,-0.194 0.29,-0.121 0.195,-0.121Z" style="fill-rule:nonzero;"/>
        </g>
        <g transform="matrix(48,0,0,48,17294.9,11427.4)">
            <path d="M0.053,-0.505L0.091,-0.505L0.14,-0.688L0.14,-0.706L0.052,-0.706L0.053,-0.505Z" style="fill-rule:nonzero;"/>
        </g>
        <g transform="matrix(27.984,0,0,27.984,17303.8,11443.4)">
            <path d="M0.446,-0.541C0.446,-0.506 0.44,-0.47 0.427,-0.433C0.413,-0.396 0.397,-0.358 0.376,-0.321C0.355,-0.284 0.331,-0.247 0.305,-0.212C0.279,-0.176 0.253,-0.142 0.227,-0.11L0.178,-0.067L0.178,-0.063L0.242,-0.074L0.46,-0.074L0.46,-0L0.062,-0L0.062,-0.029C0.077,-0.044 0.094,-0.063 0.115,-0.086C0.136,-0.109 0.157,-0.134 0.18,-0.162C0.202,-0.189 0.224,-0.219 0.246,-0.25C0.267,-0.28 0.287,-0.312 0.305,-0.344C0.322,-0.376 0.336,-0.408 0.347,-0.439C0.358,-0.47 0.363,-0.5 0.363,-0.528C0.363,-0.561 0.354,-0.588 0.335,-0.61C0.316,-0.631 0.288,-0.642 0.25,-0.642C0.225,-0.642 0.2,-0.637 0.176,-0.627C0.152,-0.616 0.131,-0.604 0.114,-0.591L0.081,-0.648C0.104,-0.668 0.132,-0.684 0.164,-0.695C0.196,-0.706 0.23,-0.712 0.267,-0.712C0.296,-0.712 0.321,-0.708 0.343,-0.7C0.365,-0.691 0.384,-0.679 0.399,-0.664C0.414,-0.649 0.426,-0.631 0.434,-0.61C0.442,-0.588 0.446,-0.566 0.446,-0.541Z" style="fill-rule:nonzero;"/>
        </g>
    </g>
    <g transform="matrix(1,0,0,1,-362.814,-1690.87)">
        <g transform="matrix(48,0,0,48,368.503,1953.88)">
            <path d="M0.057,-0.5L0.152,-0.5L0.167,-0.44L0.171,-0.44C0.188,-0.465 0.209,-0.484 0.233,-0.496C0.256,-0.508 0.285,-0.514 0.319,-0.514C0.382,-0.514 0.429,-0.494 0.46,-0.455C0.491,-0.415 0.507,-0.351 0.507,-0.263C0.507,-0.22 0.502,-0.182 0.492,-0.148C0.482,-0.113 0.467,-0.084 0.448,-0.06C0.428,-0.036 0.404,-0.018 0.376,-0.005C0.347,0.008 0.315,0.014 0.278,0.014C0.257,0.014 0.24,0.012 0.227,0.01C0.214,0.007 0.2,0.002 0.187,-0.005L0.187,0.2L0.057,0.2L0.057,-0.5ZM0.28,-0.404C0.255,-0.404 0.235,-0.398 0.221,-0.385C0.206,-0.372 0.195,-0.353 0.187,-0.328L0.187,-0.12C0.196,-0.113 0.207,-0.107 0.218,-0.103C0.229,-0.098 0.243,-0.096 0.261,-0.096C0.298,-0.096 0.326,-0.109 0.345,-0.136C0.364,-0.162 0.373,-0.205 0.373,-0.266C0.373,-0.31 0.366,-0.344 0.351,-0.368C0.336,-0.392 0.313,-0.404 0.28,-0.404Z" style="fill-rule:nonzero;"/>
        </g>
        <g transform="matrix(27.984,0,0,27.984,394.423,1969.87)">
            <path d="M0.069,-0.5L0.199,-0.5L0.199,-0L0.069,-0L0.069,-0.5ZM0.05,-0.641C0.05,-0.66 0.057,-0.677 0.072,-0.691C0.086,-0.704 0.106,-0.711 0.131,-0.711C0.156,-0.711 0.177,-0.704 0.193,-0.691C0.208,-0.677 0.216,-0.66 0.216,-0.641C0.216,-0.622 0.208,-0.606 0.193,-0.593C0.177,-0.58 0.156,-0.573 0.131,-0.573C0.106,-0.573 0.086,-0.58 0.072,-0.593C0.057,-0.606 0.05,-0.622 0.05,-0.641Z" style="fill-rule:nonzero;"/>
        </g>
    </g>
    <g transform="matrix(1,0,0,1,-363.814,-1347.54)">
        <g transform="matrix(48,0,0,48,368.503,1953.88)">
            <path d="M0.057,-0.5L0.152,-0.5L0.167,-0.44L0.171,-0.44C0.188,-0.465 0.209,-0.484 0.233,-0.496C0.256,-0.508 0.285,-0.514 0.319,-0.514C0.382,-0.514 0.429,-0.494 0.46,-0.455C0.491,-0.415 0.507,-0.351 0.507,-0.263C0.507,-0.22 0.502,-0.182 0.492,-0.148C0.482,-0.113 0.467,-0.084 0.448,-0.06C0.428,-0.036 0.404,-0.018 0.376,-0.005C0.347,0.008 0.315,0.014 0.278,0.014C0.257,0.014 0.24,0.012 0.227,0.01C0.214,0.007 0.2,0.002 0.187,-0.005L0.187,0.2L0.057,0.2L0.057,-0.5ZM0.28,-0.404C0.255,-0.404 0.235,-0.398 0.221,-0.385C0.206,-0.372 0.195,-0.353 0.187,-0.328L0.187,-0.12C0.196,-0.113 0.207,-0.107 0.218,-0.103C0.229,-0.098 0.243,-0.096 0.261,-0.096C0.298,-0.096 0.326,-0.109 0.345,-0.136C0.364,-0.162 0.373,-0.205 0.373,-0.266C0.373,-0.31 0.366,-0.344 0.351,-0.368C0.336,-0.392 0.313,-0.404 0.28,-0.404Z" style="fill-rule:nonzero;"/>
        </g>
        <g transform="matrix(27.984,0,0,27.984,394.423,1969.87)">
            <path d="M0.069,-0.5L0.199,-0.5L0.199,-0L0.069,-0L0.069,-0.5ZM0.05,-0.641C0.05,-0.66 0.057,-0.677 0.072,-0.691C0.086,-0.704 0.106,-0.711 0.131,-0.711C0.156,-0.711 0.177,-0.704 0.193,-0.691C0.208,-0.677 0.216,-0.66 0.216,-0.641C0.216,-0.622 0.208,-0.606 0.193,-0.593C0.177,-0.58 0.156,-0.573 0.131,-0.573C0.106,-0.573 0.086,-0.58 0.072,-0.593C0.057,-0.606 0.05,-0.622 0.05,-0.641Z" style="fill-rule:nonzero;"/>
        </g>
    </g>
    <g transform="matrix(1,0,0,1,150.524,-1909.76)">
        <g transform="matrix(48,0,0,48,368.503,1953.88)">
            <path d="M0.057,-0.5L0.152,-0.5L0.167,-0.44L0.171,-0.44C0.188,-0.465 0.209,-0.484 0.233,-0.496C0.256,-0.508 0.285,-0.514 0.319,-0.514C0.382,-0.514 0.429,-0.494 0.46,-0.455C0.491,-0.415 0.507,-0.351 0.507,-0.263C0.507,-0.22 0.502,-0.182 0.492,-0.148C0.482,-0.113 0.467,-0.084 0.448,-0.06C0.428,-0.036 0.404,-0.018 0.376,-0.005C0.347,0.008 0.315,0.014 0.278,0.014C0.257,0.014 0.24,0.012 0.227,0.01C0.214,0.007 0.2,0.002 0.187,-0.005L0.187,0.2L0.057,0.2L0.057,-0.5ZM0.28,-0.404C0.255,-0.404 0.235,-0.398 0.221,-0.385C0.206,-0.372 0.195,-0.353 0.187,-0.328L0.187,-0.12C0.196,-0.113 0.207,-0.107 0.218,-0.103C0.229,-0.098 0.243,-0.096 0.261,-0.096C0.298,-0.096 0.326,-0.109 0.345,-0.136C0.364,-0.162 0.373,-0.205 0.373,-0.266C0.373,-0.31 0.366,-0.344 0.351,-0.368C0.336,-0.392 0.313,-0.404 0.28,-0.404Z" style="fill-rule:nonzero;"/>
        </g>
        <g transform="matrix(27.984,0,0,27.984,394.423,1969.87)">
            <path d="M0.069,-0.5L0.199,-0.5L0.199,0.021C0.199,0.082 0.187,0.128 0.163,0.16C0.139,0.192 0.101,0.208 0.048,0.208C0.028,0.208 0.007,0.206 -0.016,0.201L-0.016,0.092L-0.003,0.093C0.027,0.093 0.047,0.083 0.056,0.064C0.065,0.045 0.069,0.018 0.069,-0.016L0.069,-0.5ZM0.052,-0.641C0.052,-0.66 0.059,-0.677 0.074,-0.691C0.088,-0.704 0.108,-0.711 0.133,-0.711C0.158,-0.711 0.179,-0.704 0.195,-0.691C0.21,-0.677 0.218,-0.66 0.218,-0.641C0.218,-0.622 0.21,-0.606 0.195,-0.593C0.179,-0.58 0.158,-0.573 0.133,-0.573C0.108,-0.573 0.088,-0.58 0.074,-0.593C0.059,-0.606 0.052,-0.622 0.052,-0.641Z" style="fill-rule:nonzero;"/>
        </g>
    </g>
    <g transform="matrix(1,0,0,1,149.524,-1566.44)">
        <g transform="matrix(48,0,0,48,368.503,1953.88)">
            <path d="M0.057,-0.5L0.152,-0.5L0.167,-0.44L0.171,-0.44C0.188,-0.465 0.209,-0.484 0.233,-0.496C0.256,-0.508 0.285,-0.514 0.319,-0.514C0.382,-0.514 0.429,-0.494 0.46,-0.455C0.491,-0.415 0.507,-0.351 0.507,-0.263C0.507,-0.22 0.502,-0.182 0.492,-0.148C0.482,-0.113 0.467,-0.084 0.448,-0.06C0.428,-0.036 0.404,-0.018 0.376,-0.005C0.347,0.008 0.315,0.014 0.278,0.014C0.257,0.014 0.24,0.012 0.227,0.01C0.214,0.007 0.2,0.002 0.187,-0.005L0.187,0.2L0.057,0.2L0.057,-0.5ZM0.28,-0.404C0.255,-0.404 0.235,-0.398 0.221,-0.385C0.206,-0.372 0.195,-0.353 0.187,-0.328L0.187,-0.12C0.196,-0.113 0.207,-0.107 0.218,-0.103C0.229,-0.098 0.243,-0.096 0.261,-0.096C0.298,-0.096 0.326,-0.109 0.345,-0.136C0.364,-0.162 0.373,-0.205 0.373,-0.266C0.373,-0.31 0.366,-0.344 0.351,-0.368C0.336,-0.392 0.313,-0.404 0.28,-0.404Z" style="fill-rule:nonzero;"/>
        </g>
        <g transform="matrix(27.984,0,0,27.984,394.423,1969.87)">
            <path d="M0.069,-0.5L0.199,-0.5L0.199,0.021C0.199,0.082 0.187,0.128 0.163,0.16C0.139,0.192 0.101,0.208 0.048,0.208C0.028,0.208 0.007,0.206 -0.016,0.201L-0.016,0.092L-0.003,0.093C0.027,0.093 0.047,0.083 0.056,0.064C0.065,0.045 0.069,0.018 0.069,-0.016L0.069,-0.5ZM0.052,-0.641C0.052,-0.66 0.059,-0.677 0.074,-0.691C0.088,-0.704 0.108,-0.711 0.133,-0.711C0.158,-0.711 0.179,-0.704 0.195,-0.691C0.21,-0.677 0.218,-0.66 0.218,-0.641C0.218,-0.622 0.21,-0.606 0.195,-0.593C0.179,-0.58 0.158,-0.573 0.133,-0.573C0.108,-0.573 0.088,-0.58 0.074,-0.593C0.059,-0.606 0.052,-0.622 0.052,-0.641Z" style="fill-rule:nonzero;"/>
        </g>
    </g>
    <g transform="matrix(1,0,0,1,-233.524,-1927.18)">
        <g transform="matrix(48,0,0,48,368.503,1953.88)">
            <path d="M0.057,-0.5L0.152,-0.5L0.167,-0.44L0.171,-0.44C0.188,-0.465 0.209,-0.484 0.233,-0.496C0.256,-0.508 0.285,-0.514 0.319,-0.514C0.382,-0.514 0.429,-0.494 0.46,-0.455C0.491,-0.415 0.507,-0.351 0.507,-0.263C0.507,-0.22 0.502,-0.182 0.492,-0.148C0.482,-0.113 0.467,-0.084 0.448,-0.06C0.428,-0.036 0.404,-0.018 0.376,-0.005C0.347,0.008 0.315,0.014 0.278,0.014C0.257,0.014 0.24,0.012 0.227,0.01C0.214,0.007 0.2,0.002 0.187,-0.005L0.187,0.2L0.057,0.2L0.057,-0.5ZM0.28,-0.404C0.255,-0.404 0.235,-0.398 0.221,-0.385C0.206,-0.372 0.195,-0.353 0.187,-0.328L0.187,-0.12C0.196,-0.113 0.207,-0.107 0.218,-0.103C0.229,-0.098 0.243,-0.096 0.261,-0.096C0.298,-0.096 0.326,-0.109 0.345,-0.136C0.364,-0.162 0.373,-0.205 0.373,-0.266C0.373,-0.31 0.366,-0.344 0.351,-0.368C0.336,-0.392 0.313,-0.404 0.28,-0.404Z" style="fill-rule:nonzero;"/>
        </g>
        <g transform="matrix(27.984,0,0,27.984,394.423,1969.87)">
            <path d="M0.222,-0.207L0.187,-0.207L0.187,-0L0.057,-0L0.057,-0.7L0.187,-0.7L0.187,-0.287L0.217,-0.301L0.331,-0.5L0.474,-0.5L0.354,-0.31L0.303,-0.272L0.358,-0.233L0.493,-0L0.344,-0L0.222,-0.207Z" style="fill-rule:nonzero;"/>
        </g>
    </g>
    <g transform="matrix(1,0,0,1,-234.524,-1583.86)">
        <g transform="matrix(48,0,0,48,368.503,1953.88)">
            <path d="M0.057,-0.5L0.152,-0.5L0.167,-0.44L0.171,-0.44C0.188,-0.465 0.209,-0.484 0.233,-0.496C0.256,-0.508 0.285,-0.514 0.319,-0.514C0.382,-0.514 0.429,-0.494 0.46,-0.455C0.491,-0.415 0.507,-0.351 0.507,-0.263C0.507,-0.22 0.502,-0.182 0.492,-0.148C0.482,-0.113 0.467,-0.084 0.448,-0.06C0.428,-0.036 0.404,-0.018 0.376,-0.005C0.347,0.008 0.315,0.014 0.278,0.014C0.257,0.014 0.24,0.012 0.227,0.01C0.214,0.007 0.2,0.002 0.187,-0.005L0.187,0.2L0.057,0.2L0.057,-0.5ZM0.28,-0.404C0.255,-0.404 0.235,-0.398 0.221,-0.385C0.206,-0.372 0.195,-0.353 0.187,-0.328L0.187,-0.12C0.196,-0.113 0.207,-0.107 0.218,-0.103C0.229,-0.098 0.243,-0.096 0.261,-0.096C0.298,-0.096 0.326,-0.109 0.345,-0.136C0.364,-0.162 0.373,-0.205 0.373,-0.266C0.373,-0.31 0.366,-0.344 0.351,-0.368C0.336,-0.392 0.313,-0.404 0.28,-0.404Z" style="fill-rule:nonzero;"/>
        </g>
        <g transform="matrix(27.984,0,0,27.984,394.423,1969.87)">
            <path d="M0.222,-0.207L0.187,-0.207L0.187,-0L0.057,-0L0.057,-0.7L0.187,-0.7L0.187,-0.287L0.217,-0.301L0.331,-0.5L0.474,-0.5L0.354,-0.31L0.303,-0.272L0.358,-0.233L0.493,-0L0.344,-0L0.222,-0.207Z" style="fill-rule:nonzero;"/>
        </g>
    </g>
    <g transform="matrix(1,0,0,1,82.5476,-1637.73)">
        <g transform="matrix(48,0,0,48,368.503,1953.88)">
            <path d="M0.057,-0.5L0.152,-0.5L0.167,-0.44L0.171,-0.44C0.188,-0.465 0.209,-0.484 0.233,-0.496C0.256,-0.508 0.285,-0.514 0.319,-0.514C0.382,-0.514 0.429,-0.494 0.46,-0.455C0.491,-0.415 0.507,-0.351 0.507,-0.263C0.507,-0.22 0.502,-0.182 0.492,-0.148C0.482,-0.113 0.467,-0.084 0.448,-0.06C0.428,-0.036 0.404,-0.018 0.376,-0.005C0.347,0.008 0.315,0.014 0.278,0.014C0.257,0.014 0.24,0.012 0.227,0.01C0.214,0.007 0.2,0.002 0.187,-0.005L0.187,0.2L0.057,0.2L0.057,-0.5ZM0.28,-0.404C0.255,-0.404 0.235,-0.398 0.221,-0.385C0.206,-0.372 0.195,-0.353 0.187,-0.328L0.187,-0.12C0.196,-0.113 0.207,-0.107 0.218,-0.103C0.229,-0.098 0.243,-0.096 0.261,-0.096C0.298,-0.096 0.326,-0.109 0.345,-0.136C0.364,-0.162 0.373,-0.205 0.373,-0.266C0.373,-0.31 0.366,-0.344 0.351,-0.368C0.336,-0.392 0.313,-0.404 0.28,-0.404Z" style="fill-rule:nonzero;"/>
        </g>
        <g transform="matrix(27.984,0,0,27.984,394.423,1969.87)">
            <path d="M0.191,-0.168C0.191,-0.145 0.194,-0.128 0.2,-0.117C0.206,-0.106 0.216,-0.101 0.229,-0.101C0.237,-0.101 0.245,-0.102 0.253,-0.103C0.26,-0.104 0.27,-0.107 0.281,-0.112L0.295,-0.01C0.284,-0.005 0.268,0.001 0.246,0.006C0.224,0.011 0.201,0.014 0.178,0.014C0.14,0.014 0.111,0.005 0.091,-0.013C0.071,-0.03 0.061,-0.059 0.061,-0.1L0.061,-0.7L0.191,-0.7L0.191,-0.168Z" style="fill-rule:nonzero;"/>
        </g>
    </g>
    <g transform="matrix(1,0,0,1,81.5476,-1294.41)">
        <g transform="matrix(48,0,0,48,368.503,1953.88)">
            <path d="M0.057,-0.5L0.152,-0.5L0.167,-0.44L0.171,-0.44C0.188,-0.465 0.209,-0.484 0.233,-0.496C0.256,-0.508 0.285,-0.514 0.319,-0.514C0.382,-0.514 0.429,-0.494 0.46,-0.455C0.491,-0.415 0.507,-0.351 0.507,-0.263C0.507,-0.22 0.502,-0.182 0.492,-0.148C0.482,-0.113 0.467,-0.084 0.448,-0.06C0.428,-0.036 0.404,-0.018 0.376,-0.005C0.347,0.008 0.315,0.014 0.278,0.014C0.257,0.014 0.24,0.012 0.227,0.01C0.214,0.007 0.2,0.002 0.187,-0.005L0.187,0.2L0.057,0.2L0.057,-0.5ZM0.28,-0.404C0.255,-0.404 0.235,-0.398 0.221,-0.385C0.206,-0.372 0.195,-0.353 0.187,-0.328L0.187,-0.12C0.196,-0.113 0.207,-0.107 0.218,-0.103C0.229,-0.098 0.243,-0.096 0.261,-0.096C0.298,-0.096 0.326,-0.109 0.345,-0.136C0.364,-0.162 0.373,-0.205 0.373,-0.266C0.373,-0.31 0.366,-0.344 0.351,-0.368C0.336,-0.392 0.313,-0.404 0.28,-0.404Z" style="fill-rule:nonzero;"/>
        </g>
        <g transform="matrix(27.984,0,0,27.984,394.423,1969.87)">
            <path d="M0.191,-0.168C0.191,-0.145 0.194,-0.128 0.2,-0.117C0.206,-0.106 0.216,-0.101 0.229,-0.101C0.237,-0.101 0.245,-0.102 0.253,-0.103C0.26,-0.104 0.27,-0.107 0.281,-0.112L0.295,-0.01C0.284,-0.005 0.268,0.001 0.246,0.006C0.224,0.011 0.201,0.014 0.178,0.014C0.14,0.014 0.111,0.005 0.091,-0.013C0.071,-0.03 0.061,-0.059 0.061,-0.1L0.061,-0.7L0.191,-0.7L0.191,-0.168Z" style="fill-rule:nonzero;"/>
        </g>
    </g>
</svg>
