<?xml version="1.0" encoding="UTF-8" standalone="no"?>
<!DOCTYPE svg PUBLIC "-//W3C//DTD SVG 1.1//EN" "http://www.w3.org/Graphics/SVG/1.1/DTD/svg11.dtd">
<svg width="100%" height="100%" viewBox="0 0 557 769" version="1.1" xmlns="http://www.w3.org/2000/svg" xmlns:xlink="http://www.w3.org/1999/xlink" xml:space="preserve" xmlns:serif="http://www.serif.com/" style="fill-rule:evenodd;clip-rule:evenodd;stroke-miterlimit:10;">
    <rect id="Artboard9" x="-855" y="-131" width="2618" height="2846" style="fill:none;"/>
    <path d="M253.707,181.501L256.287,37.464" style="fill:none;stroke:rgb(45,231,231);stroke-width:6px;"/>
    <path d="M266,619.563L256.287,352.308" style="fill:none;stroke:rgb(249,85,185);stroke-width:6px;"/>
    <path d="M253.707,190.154L20,268.98" style="fill:none;stroke:rgb(45,231,231);stroke-width:6px;"/>
    <path d="M253.707,190.154L535.857,343.308" style="fill:none;stroke:rgb(45,231,231);stroke-width:6px;"/>
    <g transform="matrix(1,0,0,1,-365.853,-1732.97)">
        <g transform="matrix(48,0,0,48,368.503,1953.88)">
            <path d="M0.057,-0.5L0.152,-0.5L0.167,-0.44L0.171,-0.44C0.188,-0.465 0.209,-0.484 0.233,-0.496C0.256,-0.508 0.285,-0.514 0.319,-0.514C0.382,-0.514 0.429,-0.494 0.46,-0.455C0.491,-0.415 0.507,-0.351 0.507,-0.263C0.507,-0.22 0.502,-0.182 0.492,-0.148C0.482,-0.113 0.467,-0.084 0.448,-0.06C0.428,-0.036 0.404,-0.018 0.376,-0.005C0.347,0.008 0.315,0.014 0.278,0.014C0.257,0.014 0.24,0.012 0.227,0.01C0.214,0.007 0.2,0.002 0.187,-0.005L0.187,0.2L0.057,0.2L0.057,-0.5ZM0.28,-0.404C0.255,-0.404 0.235,-0.398 0.221,-0.385C0.206,-0.372 0.195,-0.353 0.187,-0.328L0.187,-0.12C0.196,-0.113 0.207,-0.107 0.218,-0.103C0.229,-0.098 0.243,-0.096 0.261,-0.096C0.298,-0.096 0.326,-0.109 0.345,-0.136C0.364,-0.162 0.373,-0.205 0.373,-0.266C0.373,-0.31 0.366,-0.344 0.351,-0.368C0.336,-0.392 0.313,-0.404 0.28,-0.404Z" style="fill-rule:nonzero;"/>
        </g>
        <g transform="matrix(27.984,0,0,27.984,394.423,1969.87)">
            <path d="M0.069,-0.5L0.199,-0.5L0.199,-0L0.069,-0L0.069,-0.5ZM0.05,-0.641C0.05,-0.66 0.057,-0.677 0.072,-0.691C0.086,-0.704 0.106,-0.711 0.131,-0.711C0.156,-0.711 0.177,-0.704 0.193,-0.691C0.208,-0.677 0.216,-0.66 0.216,-0.641C0.216,-0.622 0.208,-0.606 0.193,-0.593C0.177,-0.58 0.156,-0.573 0.131,-0.573C0.106,-0.573 0.086,-0.58 0.072,-0.593C0.057,-0.606 0.05,-0.622 0.05,-0.641Z" style="fill-rule:nonzero;"/>
        </g>
    </g>
    <g transform="matrix(1,0,0,1,-365.853,-1418.13)">
        <g transform="matrix(48,0,0,48,368.503,1953.88)">
            <path d="M0.057,-0.5L0.152,-0.5L0.167,-0.44L0.171,-0.44C0.188,-0.465 0.209,-0.484 0.233,-0.496C0.256,-0.508 0.285,-0.514 0.319,-0.514C0.382,-0.514 0.429,-0.494 0.46,-0.455C0.491,-0.415 0.507,-0.351 0.507,-0.263C0.507,-0.22 0.502,-0.182 0.492,-0.148C0.482,-0.113 0.467,-0.084 0.448,-0.06C0.428,-0.036 0.404,-0.018 0.376,-0.005C0.347,0.008 0.315,0.014 0.278,0.014C0.257,0.014 0.24,0.012 0.227,0.01C0.214,0.007 0.2,0.002 0.187,-0.005L0.187,0.2L0.057,0.2L0.057,-0.5ZM0.28,-0.404C0.255,-0.404 0.235,-0.398 0.221,-0.385C0.206,-0.372 0.195,-0.353 0.187,-0.328L0.187,-0.12C0.196,-0.113 0.207,-0.107 0.218,-0.103C0.229,-0.098 0.243,-0.096 0.261,-0.096C0.298,-0.096 0.326,-0.109 0.345,-0.136C0.364,-0.162 0.373,-0.205 0.373,-0.266C0.373,-0.31 0.366,-0.344 0.351,-0.368C0.336,-0.392 0.313,-0.404 0.28,-0.404Z" style="fill-rule:nonzero;"/>
        </g>
        <g transform="matrix(27.984,0,0,27.984,394.423,1969.87)">
            <path d="M0.069,-0.5L0.199,-0.5L0.199,-0L0.069,-0L0.069,-0.5ZM0.05,-0.641C0.05,-0.66 0.057,-0.677 0.072,-0.691C0.086,-0.704 0.106,-0.711 0.131,-0.711C0.156,-0.711 0.177,-0.704 0.193,-0.691C0.208,-0.677 0.216,-0.66 0.216,-0.641C0.216,-0.622 0.208,-0.606 0.193,-0.593C0.177,-0.58 0.156,-0.573 0.131,-0.573C0.106,-0.573 0.086,-0.58 0.072,-0.593C0.057,-0.606 0.05,-0.622 0.05,-0.641Z" style="fill-rule:nonzero;"/>
        </g>
    </g>
    <g transform="matrix(1,0,0,1,-88.6117,-1921.38)">
        <g transform="matrix(48,0,0,48,368.503,1953.88)">
            <path d="M0.057,-0.5L0.152,-0.5L0.167,-0.44L0.171,-0.44C0.188,-0.465 0.209,-0.484 0.233,-0.496C0.256,-0.508 0.285,-0.514 0.319,-0.514C0.382,-0.514 0.429,-0.494 0.46,-0.455C0.491,-0.415 0.507,-0.351 0.507,-0.263C0.507,-0.22 0.502,-0.182 0.492,-0.148C0.482,-0.113 0.467,-0.084 0.448,-0.06C0.428,-0.036 0.404,-0.018 0.376,-0.005C0.347,0.008 0.315,0.014 0.278,0.014C0.257,0.014 0.24,0.012 0.227,0.01C0.214,0.007 0.2,0.002 0.187,-0.005L0.187,0.2L0.057,0.2L0.057,-0.5ZM0.28,-0.404C0.255,-0.404 0.235,-0.398 0.221,-0.385C0.206,-0.372 0.195,-0.353 0.187,-0.328L0.187,-0.12C0.196,-0.113 0.207,-0.107 0.218,-0.103C0.229,-0.098 0.243,-0.096 0.261,-0.096C0.298,-0.096 0.326,-0.109 0.345,-0.136C0.364,-0.162 0.373,-0.205 0.373,-0.266C0.373,-0.31 0.366,-0.344 0.351,-0.368C0.336,-0.392 0.313,-0.404 0.28,-0.404Z" style="fill-rule:nonzero;"/>
        </g>
        <g transform="matrix(27.984,0,0,27.984,394.423,1969.87)">
            <path d="M0.222,-0.207L0.187,-0.207L0.187,-0L0.057,-0L0.057,-0.7L0.187,-0.7L0.187,-0.287L0.217,-0.301L0.331,-0.5L0.474,-0.5L0.354,-0.31L0.303,-0.272L0.358,-0.233L0.493,-0L0.344,-0L0.222,-0.207Z" style="fill-rule:nonzero;"/>
        </g>
    </g>
    <g transform="matrix(1,0,0,1,-136.487,-1710.48)">
        <g transform="matrix(54,0,0,54,368.503,1953.88)">
            <path d="M0.057,-0.5L0.152,-0.5L0.167,-0.44L0.171,-0.44C0.188,-0.465 0.209,-0.484 0.233,-0.496C0.256,-0.508 0.285,-0.514 0.319,-0.514C0.382,-0.514 0.429,-0.494 0.46,-0.455C0.491,-0.415 0.507,-0.351 0.507,-0.263C0.507,-0.22 0.502,-0.182 0.492,-0.148C0.482,-0.113 0.467,-0.084 0.448,-0.06C0.428,-0.036 0.404,-0.018 0.376,-0.005C0.347,0.008 0.315,0.014 0.278,0.014C0.257,0.014 0.24,0.012 0.227,0.01C0.214,0.007 0.2,0.002 0.187,-0.005L0.187,0.2L0.057,0.2L0.057,-0.5ZM0.28,-0.404C0.255,-0.404 0.235,-0.398 0.221,-0.385C0.206,-0.372 0.195,-0.353 0.187,-0.328L0.187,-0.12C0.196,-0.113 0.207,-0.107 0.218,-0.103C0.229,-0.098 0.243,-0.096 0.261,-0.096C0.298,-0.096 0.326,-0.109 0.345,-0.136C0.364,-0.162 0.373,-0.205 0.373,-0.266C0.373,-0.31 0.366,-0.344 0.351,-0.368C0.336,-0.392 0.313,-0.404 0.28,-0.404Z" style="fill:rgb(15,134,134);fill-rule:nonzero;"/>
        </g>
        <g transform="matrix(31.482,0,0,31.482,397.663,1971.86)">
            <path d="M0.333,-0.378C0.312,-0.385 0.294,-0.389 0.277,-0.389C0.254,-0.389 0.234,-0.383 0.219,-0.371C0.203,-0.358 0.192,-0.342 0.187,-0.323L0.187,-0L0.057,-0L0.057,-0.5L0.158,-0.5L0.173,-0.434L0.177,-0.434C0.188,-0.459 0.204,-0.478 0.223,-0.491C0.242,-0.504 0.265,-0.511 0.291,-0.511C0.308,-0.511 0.328,-0.507 0.35,-0.5L0.333,-0.378Z" style="fill:rgb(15,134,134);fill-rule:nonzero;"/>
        </g>
    </g>
    <g transform="matrix(1,0,0,1,-89.9531,-1363.7)">
        <g transform="matrix(54,0,0,54,368.503,1953.88)">
            <path d="M0.057,-0.5L0.152,-0.5L0.167,-0.44L0.171,-0.44C0.188,-0.465 0.209,-0.484 0.233,-0.496C0.256,-0.508 0.285,-0.514 0.319,-0.514C0.382,-0.514 0.429,-0.494 0.46,-0.455C0.491,-0.415 0.507,-0.351 0.507,-0.263C0.507,-0.22 0.502,-0.182 0.492,-0.148C0.482,-0.113 0.467,-0.084 0.448,-0.06C0.428,-0.036 0.404,-0.018 0.376,-0.005C0.347,0.008 0.315,0.014 0.278,0.014C0.257,0.014 0.24,0.012 0.227,0.01C0.214,0.007 0.2,0.002 0.187,-0.005L0.187,0.2L0.057,0.2L0.057,-0.5ZM0.28,-0.404C0.255,-0.404 0.235,-0.398 0.221,-0.385C0.206,-0.372 0.195,-0.353 0.187,-0.328L0.187,-0.12C0.196,-0.113 0.207,-0.107 0.218,-0.103C0.229,-0.098 0.243,-0.096 0.261,-0.096C0.298,-0.096 0.326,-0.109 0.345,-0.136C0.364,-0.162 0.373,-0.205 0.373,-0.266C0.373,-0.31 0.366,-0.344 0.351,-0.368C0.336,-0.392 0.313,-0.404 0.28,-0.404Z" style="fill:rgb(169,6,106);fill-rule:nonzero;"/>
        </g>
        <g transform="matrix(31.482,0,0,31.482,397.663,1971.86)">
            <path d="M0.333,-0.378C0.312,-0.385 0.294,-0.389 0.277,-0.389C0.254,-0.389 0.234,-0.383 0.219,-0.371C0.203,-0.358 0.192,-0.342 0.187,-0.323L0.187,-0L0.057,-0L0.057,-0.5L0.158,-0.5L0.173,-0.434L0.177,-0.434C0.188,-0.459 0.204,-0.478 0.223,-0.491C0.242,-0.504 0.265,-0.511 0.291,-0.511C0.308,-0.511 0.328,-0.507 0.35,-0.5L0.333,-0.378Z" style="fill:rgb(169,6,106);fill-rule:nonzero;"/>
        </g>
    </g>
    <g transform="matrix(1,0,0,1,-86.6117,-1593.53)">
        <g transform="matrix(48,0,0,48,368.503,1953.88)">
            <path d="M0.057,-0.5L0.152,-0.5L0.167,-0.44L0.171,-0.44C0.188,-0.465 0.209,-0.484 0.233,-0.496C0.256,-0.508 0.285,-0.514 0.319,-0.514C0.382,-0.514 0.429,-0.494 0.46,-0.455C0.491,-0.415 0.507,-0.351 0.507,-0.263C0.507,-0.22 0.502,-0.182 0.492,-0.148C0.482,-0.113 0.467,-0.084 0.448,-0.06C0.428,-0.036 0.404,-0.018 0.376,-0.005C0.347,0.008 0.315,0.014 0.278,0.014C0.257,0.014 0.24,0.012 0.227,0.01C0.214,0.007 0.2,0.002 0.187,-0.005L0.187,0.2L0.057,0.2L0.057,-0.5ZM0.28,-0.404C0.255,-0.404 0.235,-0.398 0.221,-0.385C0.206,-0.372 0.195,-0.353 0.187,-0.328L0.187,-0.12C0.196,-0.113 0.207,-0.107 0.218,-0.103C0.229,-0.098 0.243,-0.096 0.261,-0.096C0.298,-0.096 0.326,-0.109 0.345,-0.136C0.364,-0.162 0.373,-0.205 0.373,-0.266C0.373,-0.31 0.366,-0.344 0.351,-0.368C0.336,-0.392 0.313,-0.404 0.28,-0.404Z" style="fill-rule:nonzero;"/>
        </g>
        <g transform="matrix(27.984,0,0,27.984,394.423,1969.87)">
            <path d="M0.222,-0.207L0.187,-0.207L0.187,-0L0.057,-0L0.057,-0.7L0.187,-0.7L0.187,-0.287L0.217,-0.301L0.331,-0.5L0.474,-0.5L0.354,-0.31L0.303,-0.272L0.358,-0.233L0.493,-0L0.344,-0L0.222,-0.207Z" style="fill-rule:nonzero;"/>
        </g>
    </g>
    <g transform="matrix(1,0,0,1,-179.244,-1204.77)">
        <g transform="matrix(48,0,0,48,368.503,1953.88)">
            <path d="M0.057,-0.5L0.152,-0.5L0.167,-0.44L0.171,-0.44C0.188,-0.465 0.209,-0.484 0.233,-0.496C0.256,-0.508 0.285,-0.514 0.319,-0.514C0.382,-0.514 0.429,-0.494 0.46,-0.455C0.491,-0.415 0.507,-0.351 0.507,-0.263C0.507,-0.22 0.502,-0.182 0.492,-0.148C0.482,-0.113 0.467,-0.084 0.448,-0.06C0.428,-0.036 0.404,-0.018 0.376,-0.005C0.347,0.008 0.315,0.014 0.278,0.014C0.257,0.014 0.24,0.012 0.227,0.01C0.214,0.007 0.2,0.002 0.187,-0.005L0.187,0.2L0.057,0.2L0.057,-0.5ZM0.28,-0.404C0.255,-0.404 0.235,-0.398 0.221,-0.385C0.206,-0.372 0.195,-0.353 0.187,-0.328L0.187,-0.12C0.196,-0.113 0.207,-0.107 0.218,-0.103C0.229,-0.098 0.243,-0.096 0.261,-0.096C0.298,-0.096 0.326,-0.109 0.345,-0.136C0.364,-0.162 0.373,-0.205 0.373,-0.266C0.373,-0.31 0.366,-0.344 0.351,-0.368C0.336,-0.392 0.313,-0.404 0.28,-0.404Z" style="fill-rule:nonzero;"/>
        </g>
        <g transform="matrix(27.984,0,0,27.984,394.423,1969.87)">
            <path d="M0.191,-0.168C0.191,-0.145 0.194,-0.128 0.2,-0.117C0.206,-0.106 0.216,-0.101 0.229,-0.101C0.237,-0.101 0.245,-0.102 0.253,-0.103C0.26,-0.104 0.27,-0.107 0.281,-0.112L0.295,-0.01C0.284,-0.005 0.268,0.001 0.246,0.006C0.224,0.011 0.201,0.014 0.178,0.014C0.14,0.014 0.111,0.005 0.091,-0.013C0.071,-0.03 0.061,-0.059 0.061,-0.1L0.061,-0.7L0.191,-0.7L0.191,-0.168Z" style="fill-rule:nonzero;"/>
        </g>
    </g>
    <g transform="matrix(1,0,0,1,151.119,-1660.23)">
        <g transform="matrix(48,0,0,48,368.503,1953.88)">
            <path d="M0.057,-0.5L0.152,-0.5L0.167,-0.44L0.171,-0.44C0.188,-0.465 0.209,-0.484 0.233,-0.496C0.256,-0.508 0.285,-0.514 0.319,-0.514C0.382,-0.514 0.429,-0.494 0.46,-0.455C0.491,-0.415 0.507,-0.351 0.507,-0.263C0.507,-0.22 0.502,-0.182 0.492,-0.148C0.482,-0.113 0.467,-0.084 0.448,-0.06C0.428,-0.036 0.404,-0.018 0.376,-0.005C0.347,0.008 0.315,0.014 0.278,0.014C0.257,0.014 0.24,0.012 0.227,0.01C0.214,0.007 0.2,0.002 0.187,-0.005L0.187,0.2L0.057,0.2L0.057,-0.5ZM0.28,-0.404C0.255,-0.404 0.235,-0.398 0.221,-0.385C0.206,-0.372 0.195,-0.353 0.187,-0.328L0.187,-0.12C0.196,-0.113 0.207,-0.107 0.218,-0.103C0.229,-0.098 0.243,-0.096 0.261,-0.096C0.298,-0.096 0.326,-0.109 0.345,-0.136C0.364,-0.162 0.373,-0.205 0.373,-0.266C0.373,-0.31 0.366,-0.344 0.351,-0.368C0.336,-0.392 0.313,-0.404 0.28,-0.404Z" style="fill-rule:nonzero;"/>
        </g>
        <g transform="matrix(27.984,0,0,27.984,394.423,1969.87)">
            <path d="M0.069,-0.5L0.199,-0.5L0.199,0.021C0.199,0.082 0.187,0.128 0.163,0.16C0.139,0.192 0.101,0.208 0.048,0.208C0.028,0.208 0.007,0.206 -0.016,0.201L-0.016,0.092L-0.003,0.093C0.027,0.093 0.047,0.083 0.056,0.064C0.065,0.045 0.069,0.018 0.069,-0.016L0.069,-0.5ZM0.052,-0.641C0.052,-0.66 0.059,-0.677 0.074,-0.691C0.088,-0.704 0.108,-0.711 0.133,-0.711C0.158,-0.711 0.179,-0.704 0.195,-0.691C0.21,-0.677 0.218,-0.66 0.218,-0.641C0.218,-0.622 0.21,-0.606 0.195,-0.593C0.179,-0.58 0.158,-0.573 0.133,-0.573C0.108,-0.573 0.088,-0.58 0.074,-0.593C0.059,-0.606 0.052,-0.622 0.052,-0.641Z" style="fill-rule:nonzero;"/>
        </g>
    </g>
    <g transform="matrix(1,0,0,1,151.119,-1345.39)">
        <g transform="matrix(48,0,0,48,368.503,1953.88)">
            <path d="M0.057,-0.5L0.152,-0.5L0.167,-0.44L0.171,-0.44C0.188,-0.465 0.209,-0.484 0.233,-0.496C0.256,-0.508 0.285,-0.514 0.319,-0.514C0.382,-0.514 0.429,-0.494 0.46,-0.455C0.491,-0.415 0.507,-0.351 0.507,-0.263C0.507,-0.22 0.502,-0.182 0.492,-0.148C0.482,-0.113 0.467,-0.084 0.448,-0.06C0.428,-0.036 0.404,-0.018 0.376,-0.005C0.347,0.008 0.315,0.014 0.278,0.014C0.257,0.014 0.24,0.012 0.227,0.01C0.214,0.007 0.2,0.002 0.187,-0.005L0.187,0.2L0.057,0.2L0.057,-0.5ZM0.28,-0.404C0.255,-0.404 0.235,-0.398 0.221,-0.385C0.206,-0.372 0.195,-0.353 0.187,-0.328L0.187,-0.12C0.196,-0.113 0.207,-0.107 0.218,-0.103C0.229,-0.098 0.243,-0.096 0.261,-0.096C0.298,-0.096 0.326,-0.109 0.345,-0.136C0.364,-0.162 0.373,-0.205 0.373,-0.266C0.373,-0.31 0.366,-0.344 0.351,-0.368C0.336,-0.392 0.313,-0.404 0.28,-0.404Z" style="fill-rule:nonzero;"/>
        </g>
        <g transform="matrix(27.984,0,0,27.984,394.423,1969.87)">
            <path d="M0.069,-0.5L0.199,-0.5L0.199,0.021C0.199,0.082 0.187,0.128 0.163,0.16C0.139,0.192 0.101,0.208 0.048,0.208C0.028,0.208 0.007,0.206 -0.016,0.201L-0.016,0.092L-0.003,0.093C0.027,0.093 0.047,0.083 0.056,0.064C0.065,0.045 0.069,0.018 0.069,-0.016L0.069,-0.5ZM0.052,-0.641C0.052,-0.66 0.059,-0.677 0.074,-0.691C0.088,-0.704 0.108,-0.711 0.133,-0.711C0.158,-0.711 0.179,-0.704 0.195,-0.691C0.21,-0.677 0.218,-0.66 0.218,-0.641C0.218,-0.622 0.21,-0.606 0.195,-0.593C0.179,-0.58 0.158,-0.573 0.133,-0.573C0.108,-0.573 0.088,-0.58 0.074,-0.593C0.059,-0.606 0.052,-0.622 0.052,-0.641Z" style="fill-rule:nonzero;"/>
        </g>
    </g>
    <path d="M20,268.175L256,37L537,343.308L20,268.175Z" style="fill:none;stroke:black;stroke-width:4px;"/>
    <path d="M20,583.019L256,351.845L537,658.153L20,583.019Z" style="fill:none;stroke:black;stroke-width:4px;"/>
    <circle cx="20" cy="268.98" r="13.5"/>
    <circle cx="255.049" cy="37.464" r="13.5"/>
    <circle cx="535.857" cy="343.308" r="13.5"/>
    <circle cx="253.707" cy="190.154" r="12.5" style="fill:rgb(15,134,134);"/>
    <path d="M20,583.825L253.707,742L537,658.153L20,583.825Z" style="fill:none;stroke:black;stroke-width:4px;"/>
    <path d="M266,619.192L253.707,742" style="fill:none;stroke:rgb(249,85,185);stroke-width:6px;"/>
    <path d="M265.963,618.563L20,582.825" style="fill:none;stroke:rgb(249,85,185);stroke-width:6px;"/>
    <path d="M268.583,619.563L535.857,658.153" style="fill:none;stroke:rgb(249,85,185);stroke-width:6px;"/>
    <circle cx="266" cy="619.563" r="12.5" style="fill:rgb(169,6,106);"/>
    <circle cx="20" cy="583.825" r="13.5"/>
    <circle cx="255.049" cy="352.308" r="13.5"/>
    <circle cx="252.134" cy="742.486" r="13.5"/>
    <circle cx="535.857" cy="658.153" r="13.5"/>
</svg>
