<?xml version="1.0" encoding="UTF-8" standalone="no"?>
<!DOCTYPE svg PUBLIC "-//W3C//DTD SVG 1.1//EN" "http://www.w3.org/Graphics/SVG/1.1/DTD/svg11.dtd">
<svg width="100%" height="100%" viewBox="0 0 710 996" version="1.1" xmlns="http://www.w3.org/2000/svg" xmlns:xlink="http://www.w3.org/1999/xlink" xml:space="preserve" xmlns:serif="http://www.serif.com/" style="fill-rule:evenodd;clip-rule:evenodd;stroke-linecap:round;stroke-linejoin:round;stroke-miterlimit:10;">
    <g transform="matrix(1,0,0,1,-5455,-7037)">
        <rect id="DEM" x="4792" y="6066" width="3956" height="1997" style="fill:none;"/>
        <g id="DEM1" serif:id="DEM">
            <g id="white-squares" serif:id="white squares">
            </g>
            <g id="Tracing">
            </g>
            <g id="Stream">
            </g>
            <g id="DOTS">
            </g>
            <path d="M5471,7420L5596,7369L5720,7304L5758,7230L5766,7165.5L5471,7165.5L5471,7420Z" style="fill:white;stroke:black;stroke-width:6px;"/>
            <path d="M5471,7665L5596,7547L5673,7462L5734,7420L5806.75,7349L5875,7269L5941,7165.5L5766,7165.5L5758,7230L5720,7304L5596,7369L5471,7420L5471,7665Z" style="fill:rgb(229,252,252);stroke:black;stroke-width:6px;"/>
            <path d="M5706,7837L5766,7604L5893,7450L5984,7329L6022,7165.5L5941,7165.5L5875,7269L5806.75,7349L5738.87,7415.25L5673,7462L5596,7547L5471,7665L5471,7837L5706,7837Z" style="fill:rgb(254,228,255);stroke:black;stroke-width:6px;"/>
            <path d="M5863,7837L6022,7665L6064,7501.25L6093,7359L6142.5,7292.75L6142.5,7165.5L6022,7165.5L5984,7329L5893,7450L5766,7604L5706,7837L5863,7837Z" style="fill:rgb(251,176,255);stroke:black;stroke-width:6px;"/>
            <path d="M5471,7292.75L5587,7261L5642,7165.5L5471,7165.5L5471,7292.75Z" style="fill:rgb(45,231,231);stroke:black;stroke-width:6px;"/>
            <path d="M5471,7420L5596,7369L5720,7304L5758,7230L5766,7165.5L5642,7165.5L5587,7261L5471,7292.75L5471,7420Z" style="fill:rgb(165,245,245);stroke:black;stroke-width:6px;"/>
            <path d="M6142.5,7292.75L6142.5,7837L5863,7837L6022,7665L6064,7501.25L6093,7359L6142.5,7292.75Z" style="fill:rgb(250,112,255);stroke:black;stroke-width:6px;"/>
            <g transform="matrix(1,0,0,1,185,56.1514)">
                <g transform="matrix(84,0,0,84,5332.44,7059.47)">
                    <path d="M0.06,-0.693C0.088,-0.698 0.119,-0.703 0.153,-0.706C0.186,-0.708 0.22,-0.71 0.253,-0.71C0.288,-0.71 0.323,-0.707 0.358,-0.702C0.393,-0.696 0.424,-0.685 0.452,-0.668C0.48,-0.651 0.503,-0.627 0.521,-0.597C0.538,-0.566 0.547,-0.527 0.547,-0.478C0.547,-0.434 0.539,-0.397 0.524,-0.367C0.509,-0.336 0.488,-0.311 0.463,-0.292C0.438,-0.273 0.409,-0.259 0.377,-0.25C0.344,-0.241 0.311,-0.237 0.276,-0.237L0.26,-0.237C0.253,-0.237 0.245,-0.237 0.237,-0.238C0.229,-0.238 0.221,-0.238 0.214,-0.239C0.206,-0.24 0.2,-0.24 0.197,-0.241L0.197,-0L0.06,-0L0.06,-0.693ZM0.264,-0.592C0.251,-0.592 0.238,-0.592 0.226,-0.591C0.214,-0.59 0.204,-0.588 0.197,-0.587L0.197,-0.36C0.2,-0.359 0.204,-0.359 0.209,-0.358C0.214,-0.357 0.22,-0.357 0.226,-0.357C0.232,-0.356 0.238,-0.356 0.244,-0.356L0.256,-0.356C0.274,-0.356 0.292,-0.358 0.31,-0.361C0.327,-0.364 0.343,-0.371 0.357,-0.38C0.371,-0.389 0.382,-0.401 0.391,-0.417C0.399,-0.433 0.403,-0.454 0.403,-0.48C0.403,-0.502 0.399,-0.52 0.391,-0.535C0.383,-0.549 0.373,-0.56 0.36,-0.569C0.347,-0.578 0.332,-0.584 0.315,-0.587C0.298,-0.59 0.281,-0.592 0.264,-0.592Z" style="fill-rule:nonzero;"/>
                </g>
                <g transform="matrix(84,0,0,84,5380.49,7059.47)">
                    <path d="M0.054,-0.471C0.081,-0.483 0.112,-0.493 0.149,-0.5C0.186,-0.507 0.224,-0.51 0.264,-0.51C0.299,-0.51 0.328,-0.506 0.351,-0.498C0.374,-0.489 0.393,-0.477 0.407,-0.462C0.42,-0.447 0.43,-0.428 0.436,-0.407C0.441,-0.386 0.444,-0.362 0.444,-0.335C0.444,-0.306 0.443,-0.276 0.441,-0.247C0.439,-0.217 0.438,-0.188 0.438,-0.159C0.437,-0.13 0.438,-0.102 0.44,-0.076C0.442,-0.049 0.447,-0.023 0.455,0.001L0.349,0.001L0.328,-0.068L0.323,-0.068C0.31,-0.047 0.291,-0.029 0.268,-0.015C0.244,0 0.213,0.008 0.176,0.008C0.153,0.008 0.132,0.005 0.113,-0.003C0.094,-0.01 0.078,-0.02 0.065,-0.033C0.052,-0.046 0.041,-0.061 0.034,-0.079C0.027,-0.096 0.023,-0.116 0.023,-0.138C0.023,-0.169 0.03,-0.195 0.044,-0.216C0.057,-0.237 0.077,-0.254 0.103,-0.267C0.128,-0.28 0.159,-0.289 0.195,-0.294C0.23,-0.299 0.27,-0.3 0.314,-0.298C0.319,-0.335 0.316,-0.362 0.306,-0.379C0.296,-0.395 0.274,-0.403 0.239,-0.403C0.213,-0.403 0.186,-0.4 0.157,-0.395C0.128,-0.39 0.104,-0.383 0.085,-0.374L0.054,-0.471ZM0.219,-0.099C0.245,-0.099 0.266,-0.105 0.281,-0.117C0.296,-0.128 0.308,-0.141 0.315,-0.154L0.315,-0.219C0.294,-0.221 0.275,-0.221 0.256,-0.22C0.237,-0.219 0.22,-0.216 0.205,-0.211C0.19,-0.206 0.179,-0.2 0.17,-0.191C0.161,-0.182 0.157,-0.171 0.157,-0.158C0.157,-0.139 0.163,-0.125 0.174,-0.115C0.185,-0.104 0.2,-0.099 0.219,-0.099Z" style="fill-rule:nonzero;"/>
                </g>
                <g transform="matrix(84,0,0,84,5422.16,7059.47)">
                    <path d="M0.411,-0.031C0.391,-0.016 0.367,-0.005 0.339,0.003C0.31,0.01 0.281,0.014 0.251,0.014C0.211,0.014 0.177,0.008 0.15,-0.005C0.122,-0.018 0.099,-0.036 0.082,-0.059C0.065,-0.082 0.052,-0.109 0.045,-0.142C0.037,-0.175 0.033,-0.211 0.033,-0.25C0.033,-0.335 0.052,-0.4 0.09,-0.446C0.128,-0.491 0.183,-0.514 0.256,-0.514C0.293,-0.514 0.322,-0.511 0.345,-0.505C0.367,-0.499 0.387,-0.491 0.405,-0.482L0.374,-0.376C0.359,-0.383 0.343,-0.389 0.329,-0.393C0.314,-0.397 0.296,-0.399 0.277,-0.399C0.241,-0.399 0.214,-0.387 0.195,-0.364C0.176,-0.34 0.167,-0.302 0.167,-0.25C0.167,-0.229 0.169,-0.209 0.174,-0.191C0.179,-0.173 0.186,-0.157 0.195,-0.144C0.204,-0.131 0.217,-0.12 0.232,-0.113C0.247,-0.105 0.264,-0.101 0.284,-0.101C0.306,-0.101 0.325,-0.104 0.34,-0.11C0.355,-0.115 0.369,-0.122 0.381,-0.13L0.411,-0.031Z" style="fill-rule:nonzero;"/>
                </g>
                <g transform="matrix(84,0,0,84,5458.53,7059.47)">
                    <path d="M0.345,-0.385L0.187,-0.385L0.187,-0L0.057,-0L0.057,-0.5L0.475,-0.5L0.475,-0L0.345,-0L0.345,-0.385Z" style="fill-rule:nonzero;"/>
                </g>
                <g transform="matrix(84,0,0,84,5503.22,7059.47)">
                    <path d="M0.057,-0.5L0.152,-0.5L0.167,-0.44L0.171,-0.44C0.188,-0.465 0.209,-0.484 0.233,-0.496C0.256,-0.508 0.285,-0.514 0.319,-0.514C0.382,-0.514 0.429,-0.494 0.46,-0.455C0.491,-0.415 0.507,-0.351 0.507,-0.263C0.507,-0.22 0.502,-0.182 0.492,-0.148C0.482,-0.113 0.467,-0.084 0.448,-0.06C0.428,-0.036 0.404,-0.018 0.376,-0.005C0.347,0.008 0.315,0.014 0.278,0.014C0.257,0.014 0.24,0.012 0.227,0.01C0.214,0.007 0.2,0.002 0.187,-0.005L0.187,0.2L0.057,0.2L0.057,-0.5ZM0.28,-0.404C0.255,-0.404 0.235,-0.398 0.221,-0.385C0.206,-0.372 0.195,-0.353 0.187,-0.328L0.187,-0.12C0.196,-0.113 0.207,-0.107 0.218,-0.103C0.229,-0.098 0.243,-0.096 0.261,-0.096C0.298,-0.096 0.326,-0.109 0.345,-0.136C0.364,-0.162 0.373,-0.205 0.373,-0.266C0.373,-0.31 0.366,-0.344 0.351,-0.368C0.336,-0.392 0.313,-0.404 0.28,-0.404Z" style="fill-rule:nonzero;"/>
                </g>
                <g transform="matrix(84,0,0,84,5548.58,7059.47)">
                    <path d="M0.457,-0.043C0.437,-0.027 0.41,-0.014 0.376,-0.003C0.341,0.009 0.305,0.014 0.266,0.014C0.185,0.014 0.126,-0.01 0.089,-0.057C0.052,-0.103 0.033,-0.168 0.033,-0.25C0.033,-0.338 0.054,-0.404 0.096,-0.448C0.138,-0.492 0.197,-0.514 0.273,-0.514C0.298,-0.514 0.323,-0.511 0.347,-0.504C0.371,-0.497 0.392,-0.486 0.411,-0.471C0.43,-0.456 0.445,-0.435 0.456,-0.409C0.467,-0.383 0.473,-0.351 0.473,-0.312C0.473,-0.298 0.472,-0.283 0.471,-0.267C0.469,-0.251 0.466,-0.234 0.463,-0.217L0.163,-0.217C0.165,-0.175 0.176,-0.143 0.196,-0.122C0.215,-0.101 0.247,-0.09 0.291,-0.09C0.318,-0.09 0.343,-0.094 0.365,-0.103C0.386,-0.111 0.403,-0.119 0.414,-0.128L0.457,-0.043ZM0.271,-0.41C0.237,-0.41 0.212,-0.4 0.196,-0.38C0.179,-0.359 0.169,-0.332 0.166,-0.298L0.352,-0.298C0.355,-0.334 0.349,-0.362 0.336,-0.381C0.322,-0.4 0.3,-0.41 0.271,-0.41Z" style="fill-rule:nonzero;"/>
                </g>
                <g transform="matrix(84,0,0,84,5591.25,7059.47)">
                    <path d="M0.554,0.114L0.459,0.114L0.444,-0L0.108,-0L0.093,0.114L-0.002,0.114L-0.002,-0.115L0.057,-0.115C0.062,-0.122 0.069,-0.135 0.078,-0.153C0.086,-0.17 0.094,-0.194 0.103,-0.225C0.111,-0.256 0.118,-0.294 0.124,-0.339C0.13,-0.384 0.133,-0.438 0.133,-0.5L0.481,-0.5L0.481,-0.115L0.554,-0.115L0.554,0.114ZM0.351,-0.109L0.351,-0.39L0.246,-0.39C0.245,-0.366 0.242,-0.341 0.239,-0.314C0.236,-0.287 0.232,-0.26 0.227,-0.235C0.222,-0.21 0.216,-0.186 0.209,-0.164C0.202,-0.142 0.195,-0.124 0.187,-0.109L0.351,-0.109Z" style="fill-rule:nonzero;"/>
                </g>
                <g transform="matrix(84,0,0,84,5638.96,7059.47)">
                    <path d="M0.457,-0.043C0.437,-0.027 0.41,-0.014 0.376,-0.003C0.341,0.009 0.305,0.014 0.266,0.014C0.185,0.014 0.126,-0.01 0.089,-0.057C0.052,-0.103 0.033,-0.168 0.033,-0.25C0.033,-0.338 0.054,-0.404 0.096,-0.448C0.138,-0.492 0.197,-0.514 0.273,-0.514C0.298,-0.514 0.323,-0.511 0.347,-0.504C0.371,-0.497 0.392,-0.486 0.411,-0.471C0.43,-0.456 0.445,-0.435 0.456,-0.409C0.467,-0.383 0.473,-0.351 0.473,-0.312C0.473,-0.298 0.472,-0.283 0.471,-0.267C0.469,-0.251 0.466,-0.234 0.463,-0.217L0.163,-0.217C0.165,-0.175 0.176,-0.143 0.196,-0.122C0.215,-0.101 0.247,-0.09 0.291,-0.09C0.318,-0.09 0.343,-0.094 0.365,-0.103C0.386,-0.111 0.403,-0.119 0.414,-0.128L0.457,-0.043ZM0.271,-0.41C0.237,-0.41 0.212,-0.4 0.196,-0.38C0.179,-0.359 0.169,-0.332 0.166,-0.298L0.352,-0.298C0.355,-0.334 0.349,-0.362 0.336,-0.381C0.322,-0.4 0.3,-0.41 0.271,-0.41Z" style="fill-rule:nonzero;"/>
                </g>
                <g transform="matrix(84,0,0,84,5681.63,7059.47)">
                    <path d="M0.329,-0.385L0.23,-0.385C0.226,-0.338 0.221,-0.291 0.216,-0.244C0.211,-0.197 0.202,-0.156 0.191,-0.119C0.179,-0.082 0.163,-0.051 0.143,-0.029C0.123,-0.006 0.097,0.006 0.065,0.006C0.026,0.006 -0.001,0.001 -0.017,-0.009L-0.001,-0.117C0.01,-0.113 0.02,-0.111 0.029,-0.111C0.042,-0.111 0.054,-0.117 0.064,-0.128C0.074,-0.139 0.083,-0.16 0.09,-0.189C0.096,-0.218 0.102,-0.258 0.107,-0.309C0.111,-0.359 0.114,-0.423 0.116,-0.5L0.459,-0.5L0.459,-0L0.329,-0L0.329,-0.385Z" style="fill-rule:nonzero;"/>
                </g>
                <g transform="matrix(84,0,0,84,5724.89,7059.47)">
                    <path d="M0.457,-0.043C0.437,-0.027 0.41,-0.014 0.376,-0.003C0.341,0.009 0.305,0.014 0.266,0.014C0.185,0.014 0.126,-0.01 0.089,-0.057C0.052,-0.103 0.033,-0.168 0.033,-0.25C0.033,-0.338 0.054,-0.404 0.096,-0.448C0.138,-0.492 0.197,-0.514 0.273,-0.514C0.298,-0.514 0.323,-0.511 0.347,-0.504C0.371,-0.497 0.392,-0.486 0.411,-0.471C0.43,-0.456 0.445,-0.435 0.456,-0.409C0.467,-0.383 0.473,-0.351 0.473,-0.312C0.473,-0.298 0.472,-0.283 0.471,-0.267C0.469,-0.251 0.466,-0.234 0.463,-0.217L0.163,-0.217C0.165,-0.175 0.176,-0.143 0.196,-0.122C0.215,-0.101 0.247,-0.09 0.291,-0.09C0.318,-0.09 0.343,-0.094 0.365,-0.103C0.386,-0.111 0.403,-0.119 0.414,-0.128L0.457,-0.043ZM0.271,-0.41C0.237,-0.41 0.212,-0.4 0.196,-0.38C0.179,-0.359 0.169,-0.332 0.166,-0.298L0.352,-0.298C0.355,-0.334 0.349,-0.362 0.336,-0.381C0.322,-0.4 0.3,-0.41 0.271,-0.41Z" style="fill-rule:nonzero;"/>
                </g>
                <g transform="matrix(84,0,0,84,5767.56,7059.47)">
                    <path d="M0.35,-0.196L0.187,-0.196L0.187,-0L0.057,-0L0.057,-0.5L0.187,-0.5L0.187,-0.312L0.35,-0.312L0.35,-0.5L0.48,-0.5L0.48,-0L0.35,-0L0.35,-0.196Z" style="fill-rule:nonzero;"/>
                </g>
                <g transform="matrix(84,0,0,84,5812.67,7059.47)">
                    <path d="M0.358,-0.228L0.363,-0.299L0.36,-0.299L0.317,-0.226L0.139,-0L0.057,-0L0.057,-0.5L0.187,-0.5L0.187,-0.262L0.181,-0.194L0.185,-0.194L0.226,-0.265L0.406,-0.5L0.488,-0.5L0.488,-0L0.358,-0L0.358,-0.228Z" style="fill-rule:nonzero;"/>
                </g>
                <g transform="matrix(84,0,0,84,5858.45,7059.47)">
                    <path d="M0.457,-0.043C0.437,-0.027 0.41,-0.014 0.376,-0.003C0.341,0.009 0.305,0.014 0.266,0.014C0.185,0.014 0.126,-0.01 0.089,-0.057C0.052,-0.103 0.033,-0.168 0.033,-0.25C0.033,-0.338 0.054,-0.404 0.096,-0.448C0.138,-0.492 0.197,-0.514 0.273,-0.514C0.298,-0.514 0.323,-0.511 0.347,-0.504C0.371,-0.497 0.392,-0.486 0.411,-0.471C0.43,-0.456 0.445,-0.435 0.456,-0.409C0.467,-0.383 0.473,-0.351 0.473,-0.312C0.473,-0.298 0.472,-0.283 0.471,-0.267C0.469,-0.251 0.466,-0.234 0.463,-0.217L0.163,-0.217C0.165,-0.175 0.176,-0.143 0.196,-0.122C0.215,-0.101 0.247,-0.09 0.291,-0.09C0.318,-0.09 0.343,-0.094 0.365,-0.103C0.386,-0.111 0.403,-0.119 0.414,-0.128L0.457,-0.043ZM0.271,-0.41C0.237,-0.41 0.212,-0.4 0.196,-0.38C0.179,-0.359 0.169,-0.332 0.166,-0.298L0.352,-0.298C0.355,-0.334 0.349,-0.362 0.336,-0.381C0.322,-0.4 0.3,-0.41 0.271,-0.41Z" style="fill-rule:nonzero;"/>
                </g>
            </g>
            <g transform="matrix(1,0,0,1,242.46,872.519)">
                <g transform="matrix(72,0,0,72,5212.59,7059.47)">
                    <path d="M0.215,-0.324L0.168,-0.324L0.168,-0L0.085,-0L0.085,-0.7L0.168,-0.7L0.168,-0.374L0.213,-0.388L0.448,-0.7L0.544,-0.7L0.31,-0.399L0.268,-0.366L0.319,-0.326L0.575,-0L0.47,-0L0.215,-0.324Z" style="fill-rule:nonzero;"/>
                </g>
                <g transform="matrix(72,0,0,72,5256.51,7059.47)">
                    <path d="M0.069,-0.463C0.094,-0.478 0.124,-0.49 0.158,-0.497C0.191,-0.504 0.226,-0.508 0.263,-0.508C0.298,-0.508 0.326,-0.503 0.347,-0.494C0.368,-0.485 0.384,-0.472 0.395,-0.458C0.406,-0.443 0.413,-0.426 0.417,-0.408C0.42,-0.39 0.422,-0.372 0.422,-0.354C0.422,-0.314 0.421,-0.275 0.419,-0.237C0.417,-0.199 0.416,-0.163 0.416,-0.129C0.416,-0.104 0.417,-0.081 0.419,-0.059C0.421,-0.037 0.425,-0.017 0.43,0.002L0.371,0.002L0.35,-0.068L0.345,-0.068C0.339,-0.059 0.332,-0.049 0.323,-0.041C0.314,-0.032 0.303,-0.024 0.29,-0.017C0.277,-0.01 0.263,-0.004 0.246,0.001C0.229,0.006 0.21,0.008 0.189,0.008C0.168,0.008 0.148,0.005 0.13,-0.002C0.111,-0.009 0.095,-0.018 0.082,-0.031C0.069,-0.043 0.058,-0.058 0.051,-0.075C0.043,-0.092 0.039,-0.112 0.039,-0.134C0.039,-0.163 0.045,-0.188 0.057,-0.208C0.069,-0.227 0.086,-0.243 0.108,-0.255C0.129,-0.266 0.155,-0.275 0.186,-0.28C0.216,-0.285 0.249,-0.287 0.286,-0.287L0.314,-0.287C0.323,-0.287 0.332,-0.286 0.341,-0.285C0.343,-0.305 0.344,-0.323 0.344,-0.339C0.344,-0.376 0.337,-0.401 0.322,-0.416C0.307,-0.431 0.281,-0.438 0.242,-0.438C0.231,-0.438 0.219,-0.437 0.206,-0.436C0.193,-0.434 0.179,-0.432 0.166,-0.429C0.152,-0.426 0.139,-0.422 0.127,-0.418C0.114,-0.413 0.103,-0.408 0.094,-0.403L0.069,-0.463ZM0.211,-0.062C0.23,-0.062 0.246,-0.065 0.261,-0.07C0.276,-0.075 0.288,-0.081 0.299,-0.089C0.31,-0.096 0.319,-0.105 0.326,-0.114C0.333,-0.123 0.338,-0.132 0.341,-0.141L0.341,-0.224C0.332,-0.225 0.322,-0.225 0.313,-0.226C0.303,-0.226 0.293,-0.226 0.284,-0.226C0.263,-0.226 0.243,-0.225 0.224,-0.223C0.204,-0.22 0.187,-0.216 0.172,-0.21C0.157,-0.203 0.145,-0.195 0.136,-0.184C0.127,-0.173 0.122,-0.159 0.122,-0.142C0.122,-0.119 0.13,-0.099 0.147,-0.085C0.164,-0.07 0.185,-0.062 0.211,-0.062Z" style="fill-rule:nonzero;"/>
                </g>
                <g transform="matrix(72,0,0,72,5292.22,7059.47)">
                    <path d="M0.203,-0.225L0.157,-0.225L0.157,-0L0.077,-0L0.077,-0.5L0.157,-0.5L0.157,-0.274L0.2,-0.288L0.36,-0.5L0.447,-0.5L0.292,-0.299L0.25,-0.266L0.302,-0.226L0.469,-0L0.37,-0L0.203,-0.225Z" style="fill-rule:nonzero;"/>
                </g>
                <g transform="matrix(72,0,0,72,5345.86,7059.47)">
                    <path d="M0.125,-0.223L0.125,-0.288L0.195,-0.288C0.207,-0.288 0.219,-0.29 0.231,-0.294C0.242,-0.298 0.253,-0.304 0.262,-0.311C0.271,-0.318 0.279,-0.326 0.285,-0.336C0.29,-0.345 0.293,-0.355 0.293,-0.366C0.293,-0.392 0.284,-0.41 0.266,-0.421C0.248,-0.432 0.221,-0.437 0.185,-0.437C0.159,-0.437 0.135,-0.433 0.114,-0.425C0.092,-0.417 0.075,-0.409 0.063,-0.402L0.04,-0.464C0.06,-0.475 0.084,-0.485 0.111,-0.494C0.137,-0.503 0.17,-0.507 0.207,-0.507C0.318,-0.507 0.373,-0.466 0.373,-0.384C0.373,-0.361 0.366,-0.338 0.351,-0.316C0.335,-0.293 0.314,-0.277 0.286,-0.268L0.286,-0.264C0.325,-0.257 0.353,-0.243 0.369,-0.222C0.384,-0.201 0.392,-0.174 0.392,-0.14C0.392,-0.119 0.388,-0.099 0.379,-0.081C0.37,-0.063 0.357,-0.047 0.34,-0.034C0.323,-0.021 0.301,-0.01 0.275,-0.003C0.248,0.005 0.218,0.009 0.183,0.009C0.149,0.009 0.121,0.006 0.099,-0C0.076,-0.006 0.056,-0.013 0.038,-0.022L0.061,-0.088C0.076,-0.079 0.095,-0.073 0.117,-0.068C0.138,-0.063 0.162,-0.061 0.187,-0.061C0.228,-0.061 0.259,-0.068 0.28,-0.082C0.301,-0.096 0.312,-0.117 0.312,-0.146C0.312,-0.17 0.302,-0.189 0.282,-0.203C0.262,-0.216 0.229,-0.223 0.183,-0.223L0.125,-0.223Z" style="fill-rule:nonzero;"/>
                </g>
                <g transform="matrix(72,0,0,72,5377.61,7059.47)">
                    <path d="M0.383,-0.221L0.157,-0.221L0.157,-0L0.077,-0L0.077,-0.5L0.157,-0.5L0.157,-0.291L0.383,-0.291L0.383,-0.5L0.463,-0.5L0.463,-0L0.383,-0L0.383,-0.221Z" style="fill-rule:nonzero;"/>
                </g>
                <g transform="matrix(72,0,0,72,5416.49,7059.47)">
                    <path d="M0.069,-0.463C0.094,-0.478 0.124,-0.49 0.158,-0.497C0.191,-0.504 0.226,-0.508 0.263,-0.508C0.298,-0.508 0.326,-0.503 0.347,-0.494C0.368,-0.485 0.384,-0.472 0.395,-0.458C0.406,-0.443 0.413,-0.426 0.417,-0.408C0.42,-0.39 0.422,-0.372 0.422,-0.354C0.422,-0.314 0.421,-0.275 0.419,-0.237C0.417,-0.199 0.416,-0.163 0.416,-0.129C0.416,-0.104 0.417,-0.081 0.419,-0.059C0.421,-0.037 0.425,-0.017 0.43,0.002L0.371,0.002L0.35,-0.068L0.345,-0.068C0.339,-0.059 0.332,-0.049 0.323,-0.041C0.314,-0.032 0.303,-0.024 0.29,-0.017C0.277,-0.01 0.263,-0.004 0.246,0.001C0.229,0.006 0.21,0.008 0.189,0.008C0.168,0.008 0.148,0.005 0.13,-0.002C0.111,-0.009 0.095,-0.018 0.082,-0.031C0.069,-0.043 0.058,-0.058 0.051,-0.075C0.043,-0.092 0.039,-0.112 0.039,-0.134C0.039,-0.163 0.045,-0.188 0.057,-0.208C0.069,-0.227 0.086,-0.243 0.108,-0.255C0.129,-0.266 0.155,-0.275 0.186,-0.28C0.216,-0.285 0.249,-0.287 0.286,-0.287L0.314,-0.287C0.323,-0.287 0.332,-0.286 0.341,-0.285C0.343,-0.305 0.344,-0.323 0.344,-0.339C0.344,-0.376 0.337,-0.401 0.322,-0.416C0.307,-0.431 0.281,-0.438 0.242,-0.438C0.231,-0.438 0.219,-0.437 0.206,-0.436C0.193,-0.434 0.179,-0.432 0.166,-0.429C0.152,-0.426 0.139,-0.422 0.127,-0.418C0.114,-0.413 0.103,-0.408 0.094,-0.403L0.069,-0.463ZM0.211,-0.062C0.23,-0.062 0.246,-0.065 0.261,-0.07C0.276,-0.075 0.288,-0.081 0.299,-0.089C0.31,-0.096 0.319,-0.105 0.326,-0.114C0.333,-0.123 0.338,-0.132 0.341,-0.141L0.341,-0.224C0.332,-0.225 0.322,-0.225 0.313,-0.226C0.303,-0.226 0.293,-0.226 0.284,-0.226C0.263,-0.226 0.243,-0.225 0.224,-0.223C0.204,-0.22 0.187,-0.216 0.172,-0.21C0.157,-0.203 0.145,-0.195 0.136,-0.184C0.127,-0.173 0.122,-0.159 0.122,-0.142C0.122,-0.119 0.13,-0.099 0.147,-0.085C0.164,-0.07 0.185,-0.062 0.211,-0.062Z" style="fill-rule:nonzero;"/>
                </g>
                <g transform="matrix(72,0,0,72,5452.2,7059.47)">
                    <path d="M0.129,-0.5L0.129,-0.364C0.129,-0.346 0.13,-0.33 0.132,-0.316C0.134,-0.301 0.138,-0.289 0.144,-0.279C0.15,-0.268 0.159,-0.26 0.17,-0.255C0.181,-0.249 0.196,-0.246 0.215,-0.246C0.245,-0.246 0.27,-0.249 0.289,-0.256C0.308,-0.263 0.323,-0.27 0.333,-0.278L0.333,-0.5L0.413,-0.5L0.413,-0L0.333,-0L0.333,-0.21C0.322,-0.203 0.307,-0.196 0.286,-0.188C0.265,-0.18 0.236,-0.176 0.199,-0.176C0.174,-0.176 0.153,-0.179 0.134,-0.184C0.115,-0.189 0.1,-0.199 0.087,-0.212C0.074,-0.225 0.065,-0.243 0.059,-0.265C0.052,-0.287 0.049,-0.315 0.049,-0.348L0.049,-0.5L0.129,-0.5Z" style="fill-rule:nonzero;"/>
                </g>
                <g transform="matrix(72,0,0,72,5487.48,7059.47)">
                    <path d="M0.442,-0.04C0.422,-0.024 0.397,-0.011 0.367,-0.002C0.336,0.007 0.304,0.012 0.27,0.012C0.232,0.012 0.199,0.006 0.171,-0.007C0.143,-0.019 0.12,-0.037 0.102,-0.06C0.084,-0.083 0.071,-0.11 0.062,-0.142C0.053,-0.174 0.049,-0.21 0.049,-0.25C0.049,-0.335 0.068,-0.4 0.106,-0.445C0.144,-0.49 0.198,-0.512 0.269,-0.512C0.292,-0.512 0.314,-0.51 0.337,-0.505C0.36,-0.5 0.38,-0.49 0.398,-0.476C0.416,-0.462 0.431,-0.442 0.442,-0.417C0.453,-0.391 0.459,-0.357 0.459,-0.315C0.459,-0.293 0.457,-0.269 0.453,-0.242L0.132,-0.242C0.132,-0.213 0.135,-0.187 0.141,-0.164C0.147,-0.141 0.156,-0.122 0.169,-0.107C0.182,-0.091 0.198,-0.079 0.219,-0.071C0.239,-0.062 0.264,-0.058 0.293,-0.058C0.316,-0.058 0.338,-0.062 0.361,-0.07C0.384,-0.078 0.401,-0.087 0.412,-0.098L0.442,-0.04ZM0.27,-0.442C0.231,-0.442 0.199,-0.432 0.176,-0.411C0.152,-0.39 0.138,-0.355 0.133,-0.305L0.381,-0.305C0.381,-0.356 0.371,-0.391 0.352,-0.412C0.333,-0.432 0.305,-0.442 0.27,-0.442Z" style="fill-rule:nonzero;"/>
                </g>
                <g transform="matrix(72,0,0,72,5524.06,7059.47)">
                    <path d="M0.383,-0.221L0.157,-0.221L0.157,-0L0.077,-0L0.077,-0.5L0.157,-0.5L0.157,-0.291L0.383,-0.291L0.383,-0.5L0.463,-0.5L0.463,-0L0.383,-0L0.383,-0.221Z" style="fill-rule:nonzero;"/>
                </g>
                <g transform="matrix(72,0,0,72,5562.94,7059.47)">
                    <path d="M0.389,-0.296L0.392,-0.358L0.389,-0.358L0.348,-0.294L0.123,-0L0.077,-0L0.077,-0.5L0.157,-0.5L0.157,-0.195L0.154,-0.136L0.158,-0.136L0.197,-0.198L0.422,-0.5L0.469,-0.5L0.469,-0L0.389,-0L0.389,-0.296Z" style="fill-rule:nonzero;"/>
                </g>
                <g transform="matrix(72,0,0,72,5602.25,7059.47)">
                    <path d="M0.442,-0.04C0.422,-0.024 0.397,-0.011 0.367,-0.002C0.336,0.007 0.304,0.012 0.27,0.012C0.232,0.012 0.199,0.006 0.171,-0.007C0.143,-0.019 0.12,-0.037 0.102,-0.06C0.084,-0.083 0.071,-0.11 0.062,-0.142C0.053,-0.174 0.049,-0.21 0.049,-0.25C0.049,-0.335 0.068,-0.4 0.106,-0.445C0.144,-0.49 0.198,-0.512 0.269,-0.512C0.292,-0.512 0.314,-0.51 0.337,-0.505C0.36,-0.5 0.38,-0.49 0.398,-0.476C0.416,-0.462 0.431,-0.442 0.442,-0.417C0.453,-0.391 0.459,-0.357 0.459,-0.315C0.459,-0.293 0.457,-0.269 0.453,-0.242L0.132,-0.242C0.132,-0.213 0.135,-0.187 0.141,-0.164C0.147,-0.141 0.156,-0.122 0.169,-0.107C0.182,-0.091 0.198,-0.079 0.219,-0.071C0.239,-0.062 0.264,-0.058 0.293,-0.058C0.316,-0.058 0.338,-0.062 0.361,-0.07C0.384,-0.078 0.401,-0.087 0.412,-0.098L0.442,-0.04ZM0.27,-0.442C0.231,-0.442 0.199,-0.432 0.176,-0.411C0.152,-0.39 0.138,-0.355 0.133,-0.305L0.381,-0.305C0.381,-0.356 0.371,-0.391 0.352,-0.412C0.333,-0.432 0.305,-0.442 0.27,-0.442Z" style="fill-rule:nonzero;"/>
                </g>
                <g transform="matrix(72,0,0,72,5658.05,7059.47)">
                    <path d="M0.125,-0.223L0.125,-0.288L0.195,-0.288C0.207,-0.288 0.219,-0.29 0.231,-0.294C0.242,-0.298 0.253,-0.304 0.262,-0.311C0.271,-0.318 0.279,-0.326 0.285,-0.336C0.29,-0.345 0.293,-0.355 0.293,-0.366C0.293,-0.392 0.284,-0.41 0.266,-0.421C0.248,-0.432 0.221,-0.437 0.185,-0.437C0.159,-0.437 0.135,-0.433 0.114,-0.425C0.092,-0.417 0.075,-0.409 0.063,-0.402L0.04,-0.464C0.06,-0.475 0.084,-0.485 0.111,-0.494C0.137,-0.503 0.17,-0.507 0.207,-0.507C0.318,-0.507 0.373,-0.466 0.373,-0.384C0.373,-0.361 0.366,-0.338 0.351,-0.316C0.335,-0.293 0.314,-0.277 0.286,-0.268L0.286,-0.264C0.325,-0.257 0.353,-0.243 0.369,-0.222C0.384,-0.201 0.392,-0.174 0.392,-0.14C0.392,-0.119 0.388,-0.099 0.379,-0.081C0.37,-0.063 0.357,-0.047 0.34,-0.034C0.323,-0.021 0.301,-0.01 0.275,-0.003C0.248,0.005 0.218,0.009 0.183,0.009C0.149,0.009 0.121,0.006 0.099,-0C0.076,-0.006 0.056,-0.013 0.038,-0.022L0.061,-0.088C0.076,-0.079 0.095,-0.073 0.117,-0.068C0.138,-0.063 0.162,-0.061 0.187,-0.061C0.228,-0.061 0.259,-0.068 0.28,-0.082C0.301,-0.096 0.312,-0.117 0.312,-0.146C0.312,-0.17 0.302,-0.189 0.282,-0.203C0.262,-0.216 0.229,-0.223 0.183,-0.223L0.125,-0.223Z" style="fill-rule:nonzero;"/>
                </g>
                <g transform="matrix(72,0,0,72,5689.8,7059.47)">
                    <path d="M0.069,-0.463C0.094,-0.478 0.124,-0.49 0.158,-0.497C0.191,-0.504 0.226,-0.508 0.263,-0.508C0.298,-0.508 0.326,-0.503 0.347,-0.494C0.368,-0.485 0.384,-0.472 0.395,-0.458C0.406,-0.443 0.413,-0.426 0.417,-0.408C0.42,-0.39 0.422,-0.372 0.422,-0.354C0.422,-0.314 0.421,-0.275 0.419,-0.237C0.417,-0.199 0.416,-0.163 0.416,-0.129C0.416,-0.104 0.417,-0.081 0.419,-0.059C0.421,-0.037 0.425,-0.017 0.43,0.002L0.371,0.002L0.35,-0.068L0.345,-0.068C0.339,-0.059 0.332,-0.049 0.323,-0.041C0.314,-0.032 0.303,-0.024 0.29,-0.017C0.277,-0.01 0.263,-0.004 0.246,0.001C0.229,0.006 0.21,0.008 0.189,0.008C0.168,0.008 0.148,0.005 0.13,-0.002C0.111,-0.009 0.095,-0.018 0.082,-0.031C0.069,-0.043 0.058,-0.058 0.051,-0.075C0.043,-0.092 0.039,-0.112 0.039,-0.134C0.039,-0.163 0.045,-0.188 0.057,-0.208C0.069,-0.227 0.086,-0.243 0.108,-0.255C0.129,-0.266 0.155,-0.275 0.186,-0.28C0.216,-0.285 0.249,-0.287 0.286,-0.287L0.314,-0.287C0.323,-0.287 0.332,-0.286 0.341,-0.285C0.343,-0.305 0.344,-0.323 0.344,-0.339C0.344,-0.376 0.337,-0.401 0.322,-0.416C0.307,-0.431 0.281,-0.438 0.242,-0.438C0.231,-0.438 0.219,-0.437 0.206,-0.436C0.193,-0.434 0.179,-0.432 0.166,-0.429C0.152,-0.426 0.139,-0.422 0.127,-0.418C0.114,-0.413 0.103,-0.408 0.094,-0.403L0.069,-0.463ZM0.211,-0.062C0.23,-0.062 0.246,-0.065 0.261,-0.07C0.276,-0.075 0.288,-0.081 0.299,-0.089C0.31,-0.096 0.319,-0.105 0.326,-0.114C0.333,-0.123 0.338,-0.132 0.341,-0.141L0.341,-0.224C0.332,-0.225 0.322,-0.225 0.313,-0.226C0.303,-0.226 0.293,-0.226 0.284,-0.226C0.263,-0.226 0.243,-0.225 0.224,-0.223C0.204,-0.22 0.187,-0.216 0.172,-0.21C0.157,-0.203 0.145,-0.195 0.136,-0.184C0.127,-0.173 0.122,-0.159 0.122,-0.142C0.122,-0.119 0.13,-0.099 0.147,-0.085C0.164,-0.07 0.185,-0.062 0.211,-0.062Z" style="fill-rule:nonzero;"/>
                </g>
                <g transform="matrix(72,0,0,72,5725.52,7059.47)">
                    <path d="M0.077,-0.499C0.1,-0.5 0.125,-0.502 0.151,-0.504C0.176,-0.506 0.208,-0.507 0.246,-0.507C0.312,-0.507 0.359,-0.497 0.388,-0.477C0.417,-0.456 0.431,-0.425 0.431,-0.384C0.431,-0.361 0.424,-0.338 0.411,-0.316C0.397,-0.293 0.374,-0.277 0.343,-0.266L0.343,-0.262C0.382,-0.255 0.41,-0.241 0.426,-0.221C0.442,-0.201 0.45,-0.174 0.45,-0.141C0.45,-0.089 0.431,-0.051 0.394,-0.028C0.357,-0.005 0.301,0.007 0.226,0.007C0.198,0.007 0.172,0.006 0.148,0.005C0.124,0.003 0.1,0.001 0.077,-0.001L0.077,-0.499ZM0.157,-0.067C0.17,-0.066 0.182,-0.065 0.195,-0.064C0.207,-0.063 0.221,-0.063 0.238,-0.063C0.283,-0.063 0.316,-0.069 0.338,-0.082C0.359,-0.095 0.37,-0.116 0.37,-0.147C0.37,-0.171 0.361,-0.191 0.343,-0.206C0.324,-0.221 0.292,-0.228 0.245,-0.228L0.157,-0.228L0.157,-0.067ZM0.255,-0.289C0.267,-0.289 0.279,-0.291 0.29,-0.295C0.301,-0.299 0.312,-0.305 0.321,-0.312C0.33,-0.319 0.337,-0.327 0.343,-0.336C0.348,-0.345 0.351,-0.355 0.351,-0.366C0.351,-0.393 0.343,-0.411 0.327,-0.422C0.311,-0.432 0.283,-0.437 0.243,-0.437C0.222,-0.437 0.205,-0.437 0.193,-0.436C0.18,-0.435 0.168,-0.435 0.157,-0.434L0.157,-0.289L0.255,-0.289Z" style="fill-rule:nonzero;"/>
                </g>
                <g transform="matrix(72,0,0,72,5761.44,7059.47)">
                    <path d="M0.389,-0.296L0.392,-0.358L0.389,-0.358L0.348,-0.294L0.123,-0L0.077,-0L0.077,-0.5L0.157,-0.5L0.157,-0.195L0.154,-0.136L0.158,-0.136L0.197,-0.198L0.422,-0.5L0.469,-0.5L0.469,-0L0.389,-0L0.389,-0.296Z" style="fill-rule:nonzero;"/>
                </g>
                <g transform="matrix(72,0,0,72,5800.76,7059.47)">
                    <path d="M0.418,-0.033C0.398,-0.018 0.374,-0.007 0.347,0.001C0.32,0.008 0.291,0.012 0.261,0.012C0.222,0.012 0.19,0.006 0.163,-0.007C0.136,-0.019 0.115,-0.037 0.098,-0.06C0.081,-0.083 0.068,-0.11 0.061,-0.143C0.053,-0.175 0.049,-0.211 0.049,-0.25C0.049,-0.335 0.068,-0.4 0.105,-0.445C0.142,-0.49 0.196,-0.512 0.266,-0.512C0.298,-0.512 0.325,-0.51 0.348,-0.505C0.37,-0.5 0.39,-0.492 0.408,-0.483L0.385,-0.414C0.37,-0.423 0.353,-0.43 0.334,-0.435C0.315,-0.44 0.295,-0.442 0.274,-0.442C0.179,-0.442 0.132,-0.378 0.132,-0.25C0.132,-0.225 0.135,-0.2 0.14,-0.178C0.145,-0.155 0.153,-0.134 0.165,-0.117C0.176,-0.099 0.192,-0.085 0.211,-0.074C0.23,-0.063 0.253,-0.058 0.281,-0.058C0.305,-0.058 0.327,-0.062 0.346,-0.069C0.365,-0.076 0.38,-0.085 0.392,-0.094L0.418,-0.033Z" style="fill-rule:nonzero;"/>
                </g>
                <g transform="matrix(72,0,0,72,5833.23,7059.47)">
                    <path d="M0.389,-0.296L0.392,-0.358L0.389,-0.358L0.348,-0.294L0.123,-0L0.077,-0L0.077,-0.5L0.157,-0.5L0.157,-0.195L0.154,-0.136L0.158,-0.136L0.197,-0.198L0.422,-0.5L0.469,-0.5L0.469,-0L0.389,-0L0.389,-0.296Z" style="fill-rule:nonzero;"/>
                </g>
                <g transform="matrix(72,0,0,72,5872.54,7059.47)">
                    <path d="M0.395,-0.43L0.239,-0.43L0.239,-0L0.159,-0L0.159,-0.43L0.003,-0.43L0.003,-0.5L0.395,-0.5L0.395,-0.43Z" style="fill-rule:nonzero;"/>
                </g>
                <g transform="matrix(72,0,0,72,5232.82,7140.04)">
                    <path d="M0.049,-0.25C0.049,-0.335 0.068,-0.4 0.106,-0.445C0.143,-0.49 0.197,-0.512 0.268,-0.512C0.305,-0.512 0.338,-0.506 0.366,-0.494C0.393,-0.481 0.416,-0.464 0.434,-0.441C0.452,-0.418 0.465,-0.39 0.474,-0.358C0.483,-0.325 0.487,-0.289 0.487,-0.25C0.487,-0.165 0.468,-0.1 0.431,-0.056C0.393,-0.011 0.339,0.012 0.268,0.012C0.231,0.012 0.198,0.006 0.171,-0.007C0.143,-0.019 0.12,-0.037 0.102,-0.06C0.084,-0.083 0.071,-0.11 0.062,-0.143C0.053,-0.175 0.049,-0.211 0.049,-0.25ZM0.132,-0.25C0.132,-0.225 0.135,-0.2 0.14,-0.177C0.145,-0.154 0.152,-0.133 0.163,-0.116C0.174,-0.099 0.188,-0.085 0.205,-0.074C0.222,-0.063 0.243,-0.058 0.268,-0.058C0.359,-0.057 0.404,-0.121 0.404,-0.25C0.404,-0.276 0.402,-0.301 0.397,-0.324C0.392,-0.347 0.384,-0.368 0.373,-0.385C0.362,-0.402 0.348,-0.416 0.331,-0.427C0.314,-0.437 0.293,-0.442 0.268,-0.442C0.177,-0.443 0.132,-0.379 0.132,-0.25Z" style="fill-rule:nonzero;"/>
                </g>
                <g transform="matrix(72,0,0,72,5271.41,7140.04)">
                    <path d="M0.395,-0.43L0.239,-0.43L0.239,-0L0.159,-0L0.159,-0.43L0.003,-0.43L0.003,-0.5L0.395,-0.5L0.395,-0.43Z" style="fill-rule:nonzero;"/>
                </g>
                <g transform="matrix(72,0,0,72,5319.22,7140.04)">
                    <path d="M0.49,-0.297L0.496,-0.392L0.491,-0.392L0.455,-0.315L0.334,-0.119L0.306,-0.119L0.18,-0.315L0.147,-0.392L0.143,-0.392L0.151,-0.298L0.151,-0L0.077,-0L0.077,-0.5L0.156,-0.5L0.296,-0.276L0.325,-0.218L0.327,-0.218L0.357,-0.278L0.488,-0.5L0.568,-0.5L0.568,-0L0.49,-0L0.49,-0.297Z" style="fill-rule:nonzero;"/>
                </g>
                <g transform="matrix(72,0,0,72,5365.66,7140.04)">
                    <path d="M0.442,-0.04C0.422,-0.024 0.397,-0.011 0.367,-0.002C0.336,0.007 0.304,0.012 0.27,0.012C0.232,0.012 0.199,0.006 0.171,-0.007C0.143,-0.019 0.12,-0.037 0.102,-0.06C0.084,-0.083 0.071,-0.11 0.062,-0.142C0.053,-0.174 0.049,-0.21 0.049,-0.25C0.049,-0.335 0.068,-0.4 0.106,-0.445C0.144,-0.49 0.198,-0.512 0.269,-0.512C0.292,-0.512 0.314,-0.51 0.337,-0.505C0.36,-0.5 0.38,-0.49 0.398,-0.476C0.416,-0.462 0.431,-0.442 0.442,-0.417C0.453,-0.391 0.459,-0.357 0.459,-0.315C0.459,-0.293 0.457,-0.269 0.453,-0.242L0.132,-0.242C0.132,-0.213 0.135,-0.187 0.141,-0.164C0.147,-0.141 0.156,-0.122 0.169,-0.107C0.182,-0.091 0.198,-0.079 0.219,-0.071C0.239,-0.062 0.264,-0.058 0.293,-0.058C0.316,-0.058 0.338,-0.062 0.361,-0.07C0.384,-0.078 0.401,-0.087 0.412,-0.098L0.442,-0.04ZM0.27,-0.442C0.231,-0.442 0.199,-0.432 0.176,-0.411C0.152,-0.39 0.138,-0.355 0.133,-0.305L0.381,-0.305C0.381,-0.356 0.371,-0.391 0.352,-0.412C0.333,-0.432 0.305,-0.442 0.27,-0.442Z" style="fill-rule:nonzero;"/>
                </g>
                <g transform="matrix(72,0,0,72,5402.24,7140.04)">
                    <path d="M0.418,-0.033C0.398,-0.018 0.374,-0.007 0.347,0.001C0.32,0.008 0.291,0.012 0.261,0.012C0.222,0.012 0.19,0.006 0.163,-0.007C0.136,-0.019 0.115,-0.037 0.098,-0.06C0.081,-0.083 0.068,-0.11 0.061,-0.143C0.053,-0.175 0.049,-0.211 0.049,-0.25C0.049,-0.335 0.068,-0.4 0.105,-0.445C0.142,-0.49 0.196,-0.512 0.266,-0.512C0.298,-0.512 0.325,-0.51 0.348,-0.505C0.37,-0.5 0.39,-0.492 0.408,-0.483L0.385,-0.414C0.37,-0.423 0.353,-0.43 0.334,-0.435C0.315,-0.44 0.295,-0.442 0.274,-0.442C0.179,-0.442 0.132,-0.378 0.132,-0.25C0.132,-0.225 0.135,-0.2 0.14,-0.178C0.145,-0.155 0.153,-0.134 0.165,-0.117C0.176,-0.099 0.192,-0.085 0.211,-0.074C0.23,-0.063 0.253,-0.058 0.281,-0.058C0.305,-0.058 0.327,-0.062 0.346,-0.069C0.365,-0.076 0.38,-0.085 0.392,-0.094L0.418,-0.033Z" style="fill-rule:nonzero;"/>
                </g>
                <g transform="matrix(72,0,0,72,5434.71,7140.04)">
                    <path d="M0.395,-0.43L0.239,-0.43L0.239,-0L0.159,-0L0.159,-0.43L0.003,-0.43L0.003,-0.5L0.395,-0.5L0.395,-0.43Z" style="fill-rule:nonzero;"/>
                </g>
                <g transform="matrix(72,0,0,72,5463.29,7140.04)">
                    <path d="M0.049,-0.25C0.049,-0.335 0.068,-0.4 0.106,-0.445C0.143,-0.49 0.197,-0.512 0.268,-0.512C0.305,-0.512 0.338,-0.506 0.366,-0.494C0.393,-0.481 0.416,-0.464 0.434,-0.441C0.452,-0.418 0.465,-0.39 0.474,-0.358C0.483,-0.325 0.487,-0.289 0.487,-0.25C0.487,-0.165 0.468,-0.1 0.431,-0.056C0.393,-0.011 0.339,0.012 0.268,0.012C0.231,0.012 0.198,0.006 0.171,-0.007C0.143,-0.019 0.12,-0.037 0.102,-0.06C0.084,-0.083 0.071,-0.11 0.062,-0.143C0.053,-0.175 0.049,-0.211 0.049,-0.25ZM0.132,-0.25C0.132,-0.225 0.135,-0.2 0.14,-0.177C0.145,-0.154 0.152,-0.133 0.163,-0.116C0.174,-0.099 0.188,-0.085 0.205,-0.074C0.222,-0.063 0.243,-0.058 0.268,-0.058C0.359,-0.057 0.404,-0.121 0.404,-0.25C0.404,-0.276 0.402,-0.301 0.397,-0.324C0.392,-0.347 0.384,-0.368 0.373,-0.385C0.362,-0.402 0.348,-0.416 0.331,-0.427C0.314,-0.437 0.293,-0.442 0.268,-0.442C0.177,-0.443 0.132,-0.379 0.132,-0.25Z" style="fill-rule:nonzero;"/>
                </g>
                <g transform="matrix(72,0,0,72,5501.88,7140.04)">
                    <path d="M0.378,-0.43L0.157,-0.43L0.157,-0L0.077,-0L0.077,-0.5L0.458,-0.5L0.458,-0L0.378,-0L0.378,-0.43Z" style="fill-rule:nonzero;"/>
                </g>
                <g transform="matrix(72,0,0,72,5540.4,7140.04)">
                    <path d="M0.049,-0.25C0.049,-0.335 0.068,-0.4 0.106,-0.445C0.143,-0.49 0.197,-0.512 0.268,-0.512C0.305,-0.512 0.338,-0.506 0.366,-0.494C0.393,-0.481 0.416,-0.464 0.434,-0.441C0.452,-0.418 0.465,-0.39 0.474,-0.358C0.483,-0.325 0.487,-0.289 0.487,-0.25C0.487,-0.165 0.468,-0.1 0.431,-0.056C0.393,-0.011 0.339,0.012 0.268,0.012C0.231,0.012 0.198,0.006 0.171,-0.007C0.143,-0.019 0.12,-0.037 0.102,-0.06C0.084,-0.083 0.071,-0.11 0.062,-0.143C0.053,-0.175 0.049,-0.211 0.049,-0.25ZM0.132,-0.25C0.132,-0.225 0.135,-0.2 0.14,-0.177C0.145,-0.154 0.152,-0.133 0.163,-0.116C0.174,-0.099 0.188,-0.085 0.205,-0.074C0.222,-0.063 0.243,-0.058 0.268,-0.058C0.359,-0.057 0.404,-0.121 0.404,-0.25C0.404,-0.276 0.402,-0.301 0.397,-0.324C0.392,-0.347 0.384,-0.368 0.373,-0.385C0.362,-0.402 0.348,-0.416 0.331,-0.427C0.314,-0.437 0.293,-0.442 0.268,-0.442C0.177,-0.443 0.132,-0.379 0.132,-0.25Z" style="fill-rule:nonzero;"/>
                </g>
                <g transform="matrix(72,0,0,72,5579,7140.04)">
                    <path d="M0.346,-0.43L0.201,-0.43C0.199,-0.402 0.197,-0.372 0.195,-0.34C0.193,-0.307 0.19,-0.275 0.186,-0.243C0.182,-0.21 0.177,-0.179 0.17,-0.15C0.163,-0.12 0.155,-0.094 0.145,-0.071C0.134,-0.048 0.122,-0.03 0.107,-0.017C0.092,-0.003 0.074,0.004 0.053,0.004C0.04,0.004 0.029,0.003 0.02,0.002C0.011,0.001 0.002,-0.002 -0.005,-0.005L0.007,-0.072C0.015,-0.069 0.024,-0.068 0.033,-0.068C0.046,-0.068 0.058,-0.074 0.069,-0.085C0.08,-0.096 0.089,-0.118 0.097,-0.15C0.105,-0.181 0.112,-0.225 0.117,-0.281C0.122,-0.337 0.126,-0.41 0.128,-0.5L0.426,-0.5L0.426,-0L0.346,-0L0.346,-0.43Z" style="fill-rule:nonzero;"/>
                </g>
                <g transform="matrix(72,0,0,72,5615.21,7140.04)">
                    <path d="M0.049,-0.25C0.049,-0.335 0.068,-0.4 0.106,-0.445C0.143,-0.49 0.197,-0.512 0.268,-0.512C0.305,-0.512 0.338,-0.506 0.366,-0.494C0.393,-0.481 0.416,-0.464 0.434,-0.441C0.452,-0.418 0.465,-0.39 0.474,-0.358C0.483,-0.325 0.487,-0.289 0.487,-0.25C0.487,-0.165 0.468,-0.1 0.431,-0.056C0.393,-0.011 0.339,0.012 0.268,0.012C0.231,0.012 0.198,0.006 0.171,-0.007C0.143,-0.019 0.12,-0.037 0.102,-0.06C0.084,-0.083 0.071,-0.11 0.062,-0.143C0.053,-0.175 0.049,-0.211 0.049,-0.25ZM0.132,-0.25C0.132,-0.225 0.135,-0.2 0.14,-0.177C0.145,-0.154 0.152,-0.133 0.163,-0.116C0.174,-0.099 0.188,-0.085 0.205,-0.074C0.222,-0.063 0.243,-0.058 0.268,-0.058C0.359,-0.057 0.404,-0.121 0.404,-0.25C0.404,-0.276 0.402,-0.301 0.397,-0.324C0.392,-0.347 0.384,-0.368 0.373,-0.385C0.362,-0.402 0.348,-0.416 0.331,-0.427C0.314,-0.437 0.293,-0.442 0.268,-0.442C0.177,-0.443 0.132,-0.379 0.132,-0.25Z" style="fill-rule:nonzero;"/>
                </g>
                <g transform="matrix(72,0,0,72,5653.8,7140.04)">
                    <path d="M0.24,-0.221L0.093,-0L0.001,-0L0.159,-0.229L0.193,-0.259L0.142,-0.297L0.012,-0.5L0.097,-0.5L0.235,-0.284L0.287,-0.284L0.287,-0.5L0.365,-0.5L0.365,-0.274L0.412,-0.288L0.551,-0.5L0.635,-0.5L0.499,-0.297L0.46,-0.265L0.511,-0.225L0.659,-0L0.564,-0L0.417,-0.225L0.365,-0.225L0.365,-0L0.287,-0L0.287,-0.235L0.24,-0.221Z" style="fill-rule:nonzero;"/>
                </g>
                <g transform="matrix(72,0,0,72,5701.25,7140.04)">
                    <path d="M0.442,-0.04C0.422,-0.024 0.397,-0.011 0.367,-0.002C0.336,0.007 0.304,0.012 0.27,0.012C0.232,0.012 0.199,0.006 0.171,-0.007C0.143,-0.019 0.12,-0.037 0.102,-0.06C0.084,-0.083 0.071,-0.11 0.062,-0.142C0.053,-0.174 0.049,-0.21 0.049,-0.25C0.049,-0.335 0.068,-0.4 0.106,-0.445C0.144,-0.49 0.198,-0.512 0.269,-0.512C0.292,-0.512 0.314,-0.51 0.337,-0.505C0.36,-0.5 0.38,-0.49 0.398,-0.476C0.416,-0.462 0.431,-0.442 0.442,-0.417C0.453,-0.391 0.459,-0.357 0.459,-0.315C0.459,-0.293 0.457,-0.269 0.453,-0.242L0.132,-0.242C0.132,-0.213 0.135,-0.187 0.141,-0.164C0.147,-0.141 0.156,-0.122 0.169,-0.107C0.182,-0.091 0.198,-0.079 0.219,-0.071C0.239,-0.062 0.264,-0.058 0.293,-0.058C0.316,-0.058 0.338,-0.062 0.361,-0.07C0.384,-0.078 0.401,-0.087 0.412,-0.098L0.442,-0.04ZM0.27,-0.442C0.231,-0.442 0.199,-0.432 0.176,-0.411C0.152,-0.39 0.138,-0.355 0.133,-0.305L0.381,-0.305C0.381,-0.356 0.371,-0.391 0.352,-0.412C0.333,-0.432 0.305,-0.442 0.27,-0.442Z" style="fill-rule:nonzero;"/>
                </g>
                <g transform="matrix(72,0,0,72,5737.83,7140.04)">
                    <path d="M0.383,-0.221L0.157,-0.221L0.157,-0L0.077,-0L0.077,-0.5L0.157,-0.5L0.157,-0.291L0.383,-0.291L0.383,-0.5L0.463,-0.5L0.463,-0L0.383,-0L0.383,-0.221Z" style="fill-rule:nonzero;"/>
                </g>
                <g transform="matrix(72,0,0,72,5776.71,7140.04)">
                    <path d="M0.389,-0.296L0.392,-0.358L0.389,-0.358L0.348,-0.294L0.123,-0L0.077,-0L0.077,-0.5L0.157,-0.5L0.157,-0.195L0.154,-0.136L0.158,-0.136L0.197,-0.198L0.422,-0.5L0.469,-0.5L0.469,-0L0.389,-0L0.389,-0.296Z" style="fill-rule:nonzero;"/>
                </g>
                <g transform="matrix(72,0,0,72,5816.02,7140.04)">
                    <path d="M0.326,-0.207L0.249,-0.195L0.117,-0L0.02,-0L0.14,-0.171L0.18,-0.208C0.145,-0.213 0.116,-0.227 0.092,-0.25C0.067,-0.273 0.055,-0.303 0.055,-0.342C0.055,-0.372 0.06,-0.398 0.071,-0.419C0.081,-0.44 0.096,-0.458 0.115,-0.472C0.134,-0.486 0.157,-0.496 0.184,-0.503C0.211,-0.509 0.241,-0.512 0.274,-0.512C0.299,-0.512 0.322,-0.51 0.343,-0.507C0.364,-0.504 0.385,-0.5 0.406,-0.496L0.406,-0L0.326,-0L0.326,-0.207ZM0.326,-0.432C0.317,-0.435 0.308,-0.438 0.297,-0.44C0.286,-0.441 0.277,-0.442 0.269,-0.442C0.226,-0.442 0.194,-0.434 0.172,-0.419C0.149,-0.404 0.138,-0.379 0.138,-0.346C0.138,-0.316 0.15,-0.293 0.174,-0.277C0.197,-0.26 0.228,-0.252 0.267,-0.252L0.278,-0.252C0.282,-0.252 0.288,-0.252 0.295,-0.253C0.302,-0.253 0.313,-0.253 0.326,-0.254L0.326,-0.432Z" style="fill-rule:nonzero;"/>
                </g>
                <g transform="matrix(72,0,0,72,5849.5,7140.04)">
                    <path d="M0.15,-0.177C0.149,-0.18 0.149,-0.184 0.149,-0.188L0.149,-0.199C0.149,-0.227 0.153,-0.252 0.162,-0.273C0.17,-0.294 0.18,-0.314 0.193,-0.332C0.205,-0.349 0.218,-0.366 0.233,-0.381C0.247,-0.396 0.26,-0.412 0.273,-0.428C0.285,-0.443 0.295,-0.46 0.304,-0.478C0.312,-0.495 0.316,-0.515 0.316,-0.538C0.316,-0.569 0.307,-0.594 0.29,-0.613C0.272,-0.632 0.242,-0.642 0.201,-0.642C0.177,-0.642 0.153,-0.638 0.128,-0.63C0.103,-0.621 0.082,-0.611 0.064,-0.6L0.037,-0.662C0.062,-0.677 0.089,-0.69 0.117,-0.699C0.145,-0.708 0.18,-0.712 0.221,-0.712C0.25,-0.712 0.276,-0.708 0.299,-0.7C0.321,-0.691 0.339,-0.68 0.355,-0.665C0.37,-0.65 0.381,-0.633 0.388,-0.613C0.395,-0.593 0.399,-0.572 0.399,-0.549C0.399,-0.519 0.395,-0.493 0.386,-0.471C0.377,-0.448 0.365,-0.428 0.352,-0.41C0.338,-0.391 0.323,-0.374 0.308,-0.358C0.292,-0.342 0.277,-0.325 0.264,-0.308C0.25,-0.29 0.239,-0.271 0.23,-0.25C0.221,-0.229 0.216,-0.205 0.216,-0.177L0.15,-0.177ZM0.13,-0.046C0.13,-0.064 0.135,-0.078 0.146,-0.089C0.156,-0.099 0.17,-0.104 0.187,-0.104C0.205,-0.104 0.219,-0.099 0.23,-0.089C0.241,-0.078 0.246,-0.064 0.246,-0.046C0.246,-0.029 0.241,-0.015 0.23,-0.004C0.219,0.007 0.205,0.012 0.187,0.012C0.17,0.012 0.156,0.007 0.146,-0.004C0.135,-0.015 0.13,-0.029 0.13,-0.046Z" style="fill-rule:nonzero;"/>
                </g>
            </g>
            <g transform="matrix(1,0,0,1,-1250.01,430.311)">
                <g transform="matrix(72,0,0,72,7092.42,7285.66)">
                    <path d="M0.071,-0L0.071,-0.11L0.189,-0.11L0.189,-0.39L0.07,-0.39L0.07,-0.5L0.189,-0.5L0.189,-0.528C0.189,-0.559 0.195,-0.586 0.206,-0.609C0.217,-0.632 0.231,-0.65 0.249,-0.665C0.267,-0.68 0.288,-0.691 0.312,-0.698C0.335,-0.705 0.36,-0.708 0.385,-0.708C0.431,-0.708 0.469,-0.704 0.499,-0.697C0.528,-0.689 0.553,-0.679 0.572,-0.668L0.534,-0.569C0.519,-0.576 0.502,-0.583 0.485,-0.589C0.467,-0.595 0.444,-0.598 0.416,-0.598C0.38,-0.598 0.355,-0.59 0.341,-0.574C0.326,-0.557 0.319,-0.533 0.319,-0.5L0.529,-0.5L0.529,-0.39L0.319,-0.39L0.319,-0.11L0.53,-0.11L0.53,-0L0.071,-0Z" style="fill-rule:nonzero;"/>
                </g>
                <g transform="matrix(72,0,0,72,7135.62,7285.66)">
                    <path d="M0.455,0.212C0.408,0.205 0.363,0.19 0.319,0.168C0.275,0.146 0.236,0.116 0.202,0.079C0.168,0.042 0.141,-0.004 0.121,-0.057C0.1,-0.11 0.09,-0.172 0.09,-0.243C0.09,-0.313 0.1,-0.375 0.121,-0.429C0.141,-0.482 0.168,-0.528 0.202,-0.566C0.236,-0.604 0.275,-0.634 0.319,-0.657C0.363,-0.68 0.408,-0.695 0.455,-0.704L0.479,-0.597C0.456,-0.592 0.429,-0.582 0.4,-0.569C0.37,-0.555 0.342,-0.535 0.315,-0.508C0.288,-0.481 0.266,-0.446 0.248,-0.403C0.229,-0.36 0.22,-0.307 0.22,-0.243C0.22,-0.182 0.23,-0.13 0.249,-0.088C0.268,-0.046 0.292,-0.012 0.32,0.016C0.347,0.043 0.376,0.063 0.405,0.077C0.434,0.09 0.459,0.099 0.479,0.103L0.455,0.212Z" style="fill-rule:nonzero;"/>
                </g>
                <g transform="matrix(72,0,0,72,7178.82,7285.66)">
                    <path d="M0.211,-0.258L0.037,-0.5L0.192,-0.5L0.305,-0.333L0.423,-0.5L0.564,-0.5L0.393,-0.26L0.574,-0L0.423,-0L0.296,-0.184L0.167,-0L0.025,-0L0.211,-0.258Z" style="fill-rule:nonzero;"/>
                </g>
                <g transform="matrix(72,0,0,72,7222.02,7285.66)">
                    <path d="M0.218,-0.064C0.218,-0.087 0.226,-0.105 0.241,-0.118C0.256,-0.131 0.274,-0.138 0.297,-0.138C0.334,-0.138 0.361,-0.126 0.38,-0.102C0.399,-0.078 0.408,-0.048 0.408,-0.013C0.408,0.017 0.402,0.044 0.391,0.069C0.379,0.094 0.364,0.115 0.345,0.133C0.326,0.151 0.306,0.166 0.283,0.177C0.26,0.188 0.237,0.196 0.214,0.2L0.187,0.145C0.203,0.141 0.219,0.135 0.236,0.128C0.252,0.121 0.267,0.112 0.28,0.101C0.293,0.09 0.305,0.077 0.314,0.062C0.323,0.047 0.328,0.031 0.329,0.014C0.309,0.018 0.292,0.019 0.278,0.016C0.264,0.012 0.253,0.007 0.244,-0.001C0.235,-0.008 0.228,-0.018 0.224,-0.029C0.22,-0.04 0.218,-0.051 0.218,-0.064Z" style="fill-rule:nonzero;"/>
                </g>
                <g transform="matrix(72,0,0,72,7265.22,7285.66)">
                    <path d="M0.301,-0.141L0.339,-0.141L0.436,-0.5L0.57,-0.5L0.428,-0.049C0.415,-0.012 0.403,0.023 0.391,0.054C0.379,0.085 0.365,0.111 0.349,0.134C0.333,0.157 0.314,0.174 0.293,0.187C0.271,0.199 0.244,0.205 0.213,0.205C0.198,0.205 0.183,0.203 0.17,0.199C0.156,0.195 0.143,0.19 0.132,0.185C0.121,0.179 0.111,0.173 0.102,0.167C0.093,0.16 0.086,0.154 0.081,0.149L0.148,0.06C0.157,0.067 0.167,0.074 0.179,0.081C0.191,0.087 0.202,0.09 0.213,0.09C0.233,0.09 0.249,0.083 0.261,0.069C0.272,0.055 0.283,0.032 0.294,-0L0.223,-0L0.015,-0.5L0.156,-0.5L0.301,-0.141Z" style="fill-rule:nonzero;"/>
                </g>
                <g transform="matrix(72,0,0,72,7308.42,7285.66)">
                    <path d="M0.12,0.103C0.14,0.099 0.165,0.09 0.194,0.077C0.223,0.063 0.252,0.043 0.28,0.016C0.307,-0.012 0.331,-0.046 0.35,-0.088C0.369,-0.13 0.379,-0.182 0.379,-0.243C0.379,-0.307 0.37,-0.36 0.352,-0.403C0.333,-0.446 0.311,-0.481 0.284,-0.508C0.257,-0.535 0.229,-0.555 0.2,-0.569C0.17,-0.582 0.143,-0.592 0.12,-0.597L0.144,-0.704C0.191,-0.695 0.236,-0.68 0.28,-0.657C0.324,-0.634 0.363,-0.604 0.397,-0.566C0.431,-0.528 0.458,-0.482 0.479,-0.429C0.499,-0.375 0.509,-0.313 0.509,-0.243C0.509,-0.172 0.499,-0.11 0.479,-0.057C0.458,-0.004 0.431,0.042 0.397,0.079C0.363,0.116 0.324,0.146 0.28,0.168C0.236,0.19 0.191,0.205 0.144,0.212L0.12,0.103Z" style="fill-rule:nonzero;"/>
                </g>
            </g>
            <g transform="matrix(1,0,0,1,-1482.96,-8.17856)">
                <g transform="matrix(72,0,0,72,7092.42,7285.66)">
                    <path d="M0.071,-0L0.071,-0.11L0.189,-0.11L0.189,-0.39L0.07,-0.39L0.07,-0.5L0.189,-0.5L0.189,-0.528C0.189,-0.559 0.195,-0.586 0.206,-0.609C0.217,-0.632 0.231,-0.65 0.249,-0.665C0.267,-0.68 0.288,-0.691 0.312,-0.698C0.335,-0.705 0.36,-0.708 0.385,-0.708C0.431,-0.708 0.469,-0.704 0.499,-0.697C0.528,-0.689 0.553,-0.679 0.572,-0.668L0.534,-0.569C0.519,-0.576 0.502,-0.583 0.485,-0.589C0.467,-0.595 0.444,-0.598 0.416,-0.598C0.38,-0.598 0.355,-0.59 0.341,-0.574C0.326,-0.557 0.319,-0.533 0.319,-0.5L0.529,-0.5L0.529,-0.39L0.319,-0.39L0.319,-0.11L0.53,-0.11L0.53,-0L0.071,-0Z" style="fill-rule:nonzero;"/>
                </g>
                <g transform="matrix(72,0,0,72,7135.62,7285.66)">
                    <path d="M0.455,0.212C0.408,0.205 0.363,0.19 0.319,0.168C0.275,0.146 0.236,0.116 0.202,0.079C0.168,0.042 0.141,-0.004 0.121,-0.057C0.1,-0.11 0.09,-0.172 0.09,-0.243C0.09,-0.313 0.1,-0.375 0.121,-0.429C0.141,-0.482 0.168,-0.528 0.202,-0.566C0.236,-0.604 0.275,-0.634 0.319,-0.657C0.363,-0.68 0.408,-0.695 0.455,-0.704L0.479,-0.597C0.456,-0.592 0.429,-0.582 0.4,-0.569C0.37,-0.555 0.342,-0.535 0.315,-0.508C0.288,-0.481 0.266,-0.446 0.248,-0.403C0.229,-0.36 0.22,-0.307 0.22,-0.243C0.22,-0.182 0.23,-0.13 0.249,-0.088C0.268,-0.046 0.292,-0.012 0.32,0.016C0.347,0.043 0.376,0.063 0.405,0.077C0.434,0.09 0.459,0.099 0.479,0.103L0.455,0.212Z" style="fill-rule:nonzero;"/>
                </g>
                <g transform="matrix(72,0,0,72,7178.82,7285.66)">
                    <path d="M0.211,-0.258L0.037,-0.5L0.192,-0.5L0.305,-0.333L0.423,-0.5L0.564,-0.5L0.393,-0.26L0.574,-0L0.423,-0L0.296,-0.184L0.167,-0L0.025,-0L0.211,-0.258Z" style="fill-rule:nonzero;"/>
                </g>
                <g transform="matrix(72,0,0,72,7222.02,7285.66)">
                    <path d="M0.218,-0.064C0.218,-0.087 0.226,-0.105 0.241,-0.118C0.256,-0.131 0.274,-0.138 0.297,-0.138C0.334,-0.138 0.361,-0.126 0.38,-0.102C0.399,-0.078 0.408,-0.048 0.408,-0.013C0.408,0.017 0.402,0.044 0.391,0.069C0.379,0.094 0.364,0.115 0.345,0.133C0.326,0.151 0.306,0.166 0.283,0.177C0.26,0.188 0.237,0.196 0.214,0.2L0.187,0.145C0.203,0.141 0.219,0.135 0.236,0.128C0.252,0.121 0.267,0.112 0.28,0.101C0.293,0.09 0.305,0.077 0.314,0.062C0.323,0.047 0.328,0.031 0.329,0.014C0.309,0.018 0.292,0.019 0.278,0.016C0.264,0.012 0.253,0.007 0.244,-0.001C0.235,-0.008 0.228,-0.018 0.224,-0.029C0.22,-0.04 0.218,-0.051 0.218,-0.064Z" style="fill-rule:nonzero;"/>
                </g>
                <g transform="matrix(72,0,0,72,7265.22,7285.66)">
                    <path d="M0.301,-0.141L0.339,-0.141L0.436,-0.5L0.57,-0.5L0.428,-0.049C0.415,-0.012 0.403,0.023 0.391,0.054C0.379,0.085 0.365,0.111 0.349,0.134C0.333,0.157 0.314,0.174 0.293,0.187C0.271,0.199 0.244,0.205 0.213,0.205C0.198,0.205 0.183,0.203 0.17,0.199C0.156,0.195 0.143,0.19 0.132,0.185C0.121,0.179 0.111,0.173 0.102,0.167C0.093,0.16 0.086,0.154 0.081,0.149L0.148,0.06C0.157,0.067 0.167,0.074 0.179,0.081C0.191,0.087 0.202,0.09 0.213,0.09C0.233,0.09 0.249,0.083 0.261,0.069C0.272,0.055 0.283,0.032 0.294,-0L0.223,-0L0.015,-0.5L0.156,-0.5L0.301,-0.141Z" style="fill-rule:nonzero;"/>
                </g>
                <g transform="matrix(72,0,0,72,7308.42,7285.66)">
                    <path d="M0.12,0.103C0.14,0.099 0.165,0.09 0.194,0.077C0.223,0.063 0.252,0.043 0.28,0.016C0.307,-0.012 0.331,-0.046 0.35,-0.088C0.369,-0.13 0.379,-0.182 0.379,-0.243C0.379,-0.307 0.37,-0.36 0.352,-0.403C0.333,-0.446 0.311,-0.481 0.284,-0.508C0.257,-0.535 0.229,-0.555 0.2,-0.569C0.17,-0.582 0.143,-0.592 0.12,-0.597L0.144,-0.704C0.191,-0.695 0.236,-0.68 0.28,-0.657C0.324,-0.634 0.363,-0.604 0.397,-0.566C0.431,-0.528 0.458,-0.482 0.479,-0.429C0.499,-0.375 0.509,-0.313 0.509,-0.243C0.509,-0.172 0.499,-0.11 0.479,-0.057C0.458,-0.004 0.431,0.042 0.397,0.079C0.363,0.116 0.324,0.146 0.28,0.168C0.236,0.19 0.191,0.205 0.144,0.212L0.12,0.103Z" style="fill-rule:nonzero;"/>
                </g>
            </g>
            <g transform="matrix(1,0,0,1,-1238.66,137.941)">
                <g transform="matrix(72,0,0,72,7092.42,7285.66)">
                    <path d="M0.071,-0L0.071,-0.11L0.189,-0.11L0.189,-0.39L0.07,-0.39L0.07,-0.5L0.189,-0.5L0.189,-0.528C0.189,-0.559 0.195,-0.586 0.206,-0.609C0.217,-0.632 0.231,-0.65 0.249,-0.665C0.267,-0.68 0.288,-0.691 0.312,-0.698C0.335,-0.705 0.36,-0.708 0.385,-0.708C0.431,-0.708 0.469,-0.704 0.499,-0.697C0.528,-0.689 0.553,-0.679 0.572,-0.668L0.534,-0.569C0.519,-0.576 0.502,-0.583 0.485,-0.589C0.467,-0.595 0.444,-0.598 0.416,-0.598C0.38,-0.598 0.355,-0.59 0.341,-0.574C0.326,-0.557 0.319,-0.533 0.319,-0.5L0.529,-0.5L0.529,-0.39L0.319,-0.39L0.319,-0.11L0.53,-0.11L0.53,-0L0.071,-0Z" style="fill-rule:nonzero;"/>
                </g>
                <g transform="matrix(72,0,0,72,7135.62,7285.66)">
                    <path d="M0.455,0.212C0.408,0.205 0.363,0.19 0.319,0.168C0.275,0.146 0.236,0.116 0.202,0.079C0.168,0.042 0.141,-0.004 0.121,-0.057C0.1,-0.11 0.09,-0.172 0.09,-0.243C0.09,-0.313 0.1,-0.375 0.121,-0.429C0.141,-0.482 0.168,-0.528 0.202,-0.566C0.236,-0.604 0.275,-0.634 0.319,-0.657C0.363,-0.68 0.408,-0.695 0.455,-0.704L0.479,-0.597C0.456,-0.592 0.429,-0.582 0.4,-0.569C0.37,-0.555 0.342,-0.535 0.315,-0.508C0.288,-0.481 0.266,-0.446 0.248,-0.403C0.229,-0.36 0.22,-0.307 0.22,-0.243C0.22,-0.182 0.23,-0.13 0.249,-0.088C0.268,-0.046 0.292,-0.012 0.32,0.016C0.347,0.043 0.376,0.063 0.405,0.077C0.434,0.09 0.459,0.099 0.479,0.103L0.455,0.212Z" style="fill-rule:nonzero;"/>
                </g>
                <g transform="matrix(72,0,0,72,7178.82,7285.66)">
                    <path d="M0.211,-0.258L0.037,-0.5L0.192,-0.5L0.305,-0.333L0.423,-0.5L0.564,-0.5L0.393,-0.26L0.574,-0L0.423,-0L0.296,-0.184L0.167,-0L0.025,-0L0.211,-0.258Z" style="fill-rule:nonzero;"/>
                </g>
                <g transform="matrix(72,0,0,72,7222.02,7285.66)">
                    <path d="M0.218,-0.064C0.218,-0.087 0.226,-0.105 0.241,-0.118C0.256,-0.131 0.274,-0.138 0.297,-0.138C0.334,-0.138 0.361,-0.126 0.38,-0.102C0.399,-0.078 0.408,-0.048 0.408,-0.013C0.408,0.017 0.402,0.044 0.391,0.069C0.379,0.094 0.364,0.115 0.345,0.133C0.326,0.151 0.306,0.166 0.283,0.177C0.26,0.188 0.237,0.196 0.214,0.2L0.187,0.145C0.203,0.141 0.219,0.135 0.236,0.128C0.252,0.121 0.267,0.112 0.28,0.101C0.293,0.09 0.305,0.077 0.314,0.062C0.323,0.047 0.328,0.031 0.329,0.014C0.309,0.018 0.292,0.019 0.278,0.016C0.264,0.012 0.253,0.007 0.244,-0.001C0.235,-0.008 0.228,-0.018 0.224,-0.029C0.22,-0.04 0.218,-0.051 0.218,-0.064Z" style="fill-rule:nonzero;"/>
                </g>
                <g transform="matrix(72,0,0,72,7265.22,7285.66)">
                    <path d="M0.301,-0.141L0.339,-0.141L0.436,-0.5L0.57,-0.5L0.428,-0.049C0.415,-0.012 0.403,0.023 0.391,0.054C0.379,0.085 0.365,0.111 0.349,0.134C0.333,0.157 0.314,0.174 0.293,0.187C0.271,0.199 0.244,0.205 0.213,0.205C0.198,0.205 0.183,0.203 0.17,0.199C0.156,0.195 0.143,0.19 0.132,0.185C0.121,0.179 0.111,0.173 0.102,0.167C0.093,0.16 0.086,0.154 0.081,0.149L0.148,0.06C0.157,0.067 0.167,0.074 0.179,0.081C0.191,0.087 0.202,0.09 0.213,0.09C0.233,0.09 0.249,0.083 0.261,0.069C0.272,0.055 0.283,0.032 0.294,-0L0.223,-0L0.015,-0.5L0.156,-0.5L0.301,-0.141Z" style="fill-rule:nonzero;"/>
                </g>
                <g transform="matrix(72,0,0,72,7308.42,7285.66)">
                    <path d="M0.12,0.103C0.14,0.099 0.165,0.09 0.194,0.077C0.223,0.063 0.252,0.043 0.28,0.016C0.307,-0.012 0.331,-0.046 0.35,-0.088C0.369,-0.13 0.379,-0.182 0.379,-0.243C0.379,-0.307 0.37,-0.36 0.352,-0.403C0.333,-0.446 0.311,-0.481 0.284,-0.508C0.257,-0.535 0.229,-0.555 0.2,-0.569C0.17,-0.582 0.143,-0.592 0.12,-0.597L0.144,-0.704C0.191,-0.695 0.236,-0.68 0.28,-0.657C0.324,-0.634 0.363,-0.604 0.397,-0.566C0.431,-0.528 0.458,-0.482 0.479,-0.429C0.499,-0.375 0.509,-0.313 0.509,-0.243C0.509,-0.172 0.499,-0.11 0.479,-0.057C0.458,-0.004 0.431,0.042 0.397,0.079C0.363,0.116 0.324,0.146 0.28,0.168C0.236,0.19 0.191,0.205 0.144,0.212L0.12,0.103Z" style="fill-rule:nonzero;"/>
                </g>
            </g>
            <g transform="matrix(1,0,0,1,-4,0)">
                <circle cx="5604.25" cy="7307" r="14.25" style="stroke:black;stroke-width:8px;stroke-linecap:square;"/>
            </g>
            <g transform="matrix(1,0,0,1,240.304,146.12)">
                <circle cx="5604.25" cy="7307" r="14.25" style="stroke:black;stroke-width:8px;stroke-linecap:square;"/>
            </g>
            <g transform="matrix(1,0,0,1,214.063,427.091)">
                <circle cx="5604.25" cy="7307" r="14.25" style="stroke:black;stroke-width:8px;stroke-linecap:square;"/>
            </g>
            <g transform="matrix(0.997285,0,0,1,-1097.29,35.5)">
                <rect x="6588" y="7131.5" width="671.5" height="671.5" style="fill:none;stroke:black;stroke-width:8.01px;"/>
            </g>
        </g>
    </g>
</svg>
