<?xml version="1.0" encoding="UTF-8" standalone="no"?>
<!DOCTYPE svg PUBLIC "-//W3C//DTD SVG 1.1//EN" "http://www.w3.org/Graphics/SVG/1.1/DTD/svg11.dtd">
<svg width="100%" height="100%" viewBox="0 0 422 401" version="1.1" xmlns="http://www.w3.org/2000/svg" xmlns:xlink="http://www.w3.org/1999/xlink" xml:space="preserve" xmlns:serif="http://www.serif.com/" style="fill-rule:evenodd;clip-rule:evenodd;stroke-linecap:square;stroke-linejoin:round;stroke-miterlimit:10;">
    <rect id="Geometric-Operations-2" serif:id="Geometric Operations 2" x="-133" y="-114" width="4299" height="2861" style="fill:none;"/>
    <g id="Geometric-Operations-21" serif:id="Geometric Operations 2">
        <path d="M79.799,273.053L107.015,173.378L184.814,108.841L313,91L340,151L273.899,237.306L180.355,293.124L79.799,273.053Z" style="fill:rgb(45,231,231);fill-opacity:0.51;"/>
        <path d="M268.913,39.125L42.473,227.644L142.2,347.432L368.64,158.913L268.913,39.125Z" style="fill:none;stroke:rgb(247,0,255);stroke-width:5px;"/>
        <circle cx="273.899" cy="237.306" r="8"/>
        <circle cx="200.814" cy="163.062" r="8"/>
        <circle cx="209.899" cy="221.306" r="8"/>
        <circle cx="273.899" cy="127.306" r="8"/>
        <circle cx="180.355" cy="293.124" r="8"/>
        <circle cx="79.799" cy="273.053" r="8"/>
        <circle cx="146.459" cy="229.306" r="8"/>
        <circle cx="312.377" cy="91.419" r="8"/>
        <circle cx="338.723" cy="150.913" r="8"/>
        <path d="M107.015,173.378L185.245,108.781" style="fill:none;stroke:rgb(21,183,183);stroke-width:7px;"/>
        <circle cx="184.814" cy="108.841" r="8"/>
        <circle cx="107.015" cy="173.378" r="8"/>
        <g transform="matrix(1,0,0,1,-241.005,-1571.8)">
            <g transform="matrix(48,0,0,48,368.503,1953.88)">
                <path d="M0.48,0.2L0.35,0.2L0.35,-0.043L0.346,-0.043C0.335,-0.026 0.319,-0.012 0.3,-0.002C0.281,0.009 0.256,0.014 0.225,0.014C0.163,0.014 0.116,-0.007 0.083,-0.049C0.05,-0.091 0.033,-0.155 0.033,-0.24C0.033,-0.329 0.056,-0.397 0.101,-0.443C0.146,-0.489 0.21,-0.512 0.294,-0.512C0.312,-0.512 0.33,-0.511 0.348,-0.51C0.366,-0.508 0.383,-0.506 0.4,-0.503C0.416,-0.5 0.431,-0.496 0.445,-0.493C0.459,-0.489 0.471,-0.485 0.48,-0.482L0.48,0.2ZM0.26,-0.096C0.285,-0.096 0.305,-0.102 0.319,-0.113C0.332,-0.124 0.343,-0.141 0.35,-0.164L0.35,-0.389C0.34,-0.394 0.329,-0.398 0.316,-0.4C0.303,-0.401 0.289,-0.402 0.273,-0.402C0.238,-0.402 0.211,-0.389 0.194,-0.362C0.176,-0.335 0.167,-0.296 0.167,-0.245C0.167,-0.196 0.175,-0.159 0.191,-0.134C0.207,-0.109 0.23,-0.096 0.26,-0.096Z" style="fill:rgb(247,0,255);fill-rule:nonzero;"/>
            </g>
            <g transform="matrix(27.984,0,0,27.984,394.231,1969.87)">
                <path d="M0.04,-0.351C0.04,-0.474 0.061,-0.565 0.103,-0.625C0.145,-0.684 0.205,-0.714 0.284,-0.714C0.368,-0.714 0.43,-0.685 0.469,-0.626C0.508,-0.567 0.528,-0.475 0.528,-0.351C0.528,-0.228 0.507,-0.136 0.465,-0.076C0.422,-0.016 0.362,0.014 0.283,0.014C0.2,0.014 0.138,-0.018 0.099,-0.081C0.06,-0.144 0.04,-0.234 0.04,-0.351ZM0.17,-0.351C0.17,-0.27 0.179,-0.207 0.197,-0.163C0.214,-0.118 0.243,-0.096 0.284,-0.096C0.323,-0.096 0.352,-0.116 0.371,-0.157C0.389,-0.198 0.398,-0.262 0.398,-0.351C0.398,-0.432 0.389,-0.494 0.372,-0.538C0.355,-0.582 0.325,-0.604 0.283,-0.604C0.243,-0.604 0.214,-0.583 0.197,-0.542C0.179,-0.501 0.17,-0.437 0.17,-0.351Z" style="fill:rgb(247,0,255);fill-rule:nonzero;"/>
            </g>
        </g>
        <g transform="matrix(1,0,0,1,-367.005,-1710.8)">
            <g transform="matrix(48,0,0,48,368.503,1953.88)">
                <path d="M0.48,0.2L0.35,0.2L0.35,-0.043L0.346,-0.043C0.335,-0.026 0.319,-0.012 0.3,-0.002C0.281,0.009 0.256,0.014 0.225,0.014C0.163,0.014 0.116,-0.007 0.083,-0.049C0.05,-0.091 0.033,-0.155 0.033,-0.24C0.033,-0.329 0.056,-0.397 0.101,-0.443C0.146,-0.489 0.21,-0.512 0.294,-0.512C0.312,-0.512 0.33,-0.511 0.348,-0.51C0.366,-0.508 0.383,-0.506 0.4,-0.503C0.416,-0.5 0.431,-0.496 0.445,-0.493C0.459,-0.489 0.471,-0.485 0.48,-0.482L0.48,0.2ZM0.26,-0.096C0.285,-0.096 0.305,-0.102 0.319,-0.113C0.332,-0.124 0.343,-0.141 0.35,-0.164L0.35,-0.389C0.34,-0.394 0.329,-0.398 0.316,-0.4C0.303,-0.401 0.289,-0.402 0.273,-0.402C0.238,-0.402 0.211,-0.389 0.194,-0.362C0.176,-0.335 0.167,-0.296 0.167,-0.245C0.167,-0.196 0.175,-0.159 0.191,-0.134C0.207,-0.109 0.23,-0.096 0.26,-0.096Z" style="fill:rgb(247,0,255);fill-rule:nonzero;"/>
            </g>
            <g transform="matrix(27.984,0,0,27.984,394.231,1969.87)">
                <path d="M0.101,-0.11L0.24,-0.11L0.24,-0.505L0.255,-0.573L0.207,-0.514L0.118,-0.453L0.063,-0.528L0.291,-0.712L0.364,-0.712L0.364,-0.11L0.5,-0.11L0.5,-0L0.101,-0L0.101,-0.11Z" style="fill:rgb(247,0,255);fill-rule:nonzero;"/>
            </g>
        </g>
        <g transform="matrix(1,0,0,1,-107.34,-1928.45)">
            <g transform="matrix(48,0,0,48,368.503,1953.88)">
                <path d="M0.48,0.2L0.35,0.2L0.35,-0.043L0.346,-0.043C0.335,-0.026 0.319,-0.012 0.3,-0.002C0.281,0.009 0.256,0.014 0.225,0.014C0.163,0.014 0.116,-0.007 0.083,-0.049C0.05,-0.091 0.033,-0.155 0.033,-0.24C0.033,-0.329 0.056,-0.397 0.101,-0.443C0.146,-0.489 0.21,-0.512 0.294,-0.512C0.312,-0.512 0.33,-0.511 0.348,-0.51C0.366,-0.508 0.383,-0.506 0.4,-0.503C0.416,-0.5 0.431,-0.496 0.445,-0.493C0.459,-0.489 0.471,-0.485 0.48,-0.482L0.48,0.2ZM0.26,-0.096C0.285,-0.096 0.305,-0.102 0.319,-0.113C0.332,-0.124 0.343,-0.141 0.35,-0.164L0.35,-0.389C0.34,-0.394 0.329,-0.398 0.316,-0.4C0.303,-0.401 0.289,-0.402 0.273,-0.402C0.238,-0.402 0.211,-0.389 0.194,-0.362C0.176,-0.335 0.167,-0.296 0.167,-0.245C0.167,-0.196 0.175,-0.159 0.191,-0.134C0.207,-0.109 0.23,-0.096 0.26,-0.096Z" style="fill:rgb(247,0,255);fill-rule:nonzero;"/>
            </g>
            <g transform="matrix(27.984,0,0,27.984,394.231,1969.87)">
                <path d="M0.475,-0.529C0.475,-0.495 0.469,-0.461 0.457,-0.426C0.444,-0.391 0.429,-0.357 0.41,-0.324C0.391,-0.291 0.37,-0.259 0.347,-0.228C0.324,-0.197 0.301,-0.168 0.279,-0.142L0.226,-0.101L0.226,-0.096L0.298,-0.11L0.49,-0.11L0.49,-0L0.069,-0L0.069,-0.067C0.085,-0.084 0.103,-0.103 0.123,-0.126C0.143,-0.148 0.163,-0.171 0.184,-0.197C0.204,-0.222 0.224,-0.247 0.243,-0.274C0.262,-0.301 0.28,-0.327 0.295,-0.355C0.31,-0.382 0.323,-0.408 0.332,-0.433C0.341,-0.458 0.345,-0.482 0.345,-0.505C0.345,-0.532 0.337,-0.555 0.322,-0.573C0.306,-0.59 0.281,-0.599 0.247,-0.599C0.226,-0.599 0.204,-0.595 0.182,-0.586C0.159,-0.577 0.14,-0.565 0.125,-0.551L0.073,-0.643C0.099,-0.664 0.129,-0.682 0.162,-0.695C0.195,-0.708 0.233,-0.714 0.278,-0.714C0.307,-0.714 0.333,-0.71 0.357,-0.702C0.381,-0.694 0.402,-0.682 0.419,-0.667C0.436,-0.652 0.45,-0.632 0.46,-0.61C0.47,-0.587 0.475,-0.56 0.475,-0.529Z" style="fill:rgb(247,0,255);fill-rule:nonzero;"/>
            </g>
        </g>
        <g transform="matrix(1,0,0,1,9.72351,-1782.56)">
            <g transform="matrix(48,0,0,48,368.503,1953.88)">
                <path d="M0.48,0.2L0.35,0.2L0.35,-0.043L0.346,-0.043C0.335,-0.026 0.319,-0.012 0.3,-0.002C0.281,0.009 0.256,0.014 0.225,0.014C0.163,0.014 0.116,-0.007 0.083,-0.049C0.05,-0.091 0.033,-0.155 0.033,-0.24C0.033,-0.329 0.056,-0.397 0.101,-0.443C0.146,-0.489 0.21,-0.512 0.294,-0.512C0.312,-0.512 0.33,-0.511 0.348,-0.51C0.366,-0.508 0.383,-0.506 0.4,-0.503C0.416,-0.5 0.431,-0.496 0.445,-0.493C0.459,-0.489 0.471,-0.485 0.48,-0.482L0.48,0.2ZM0.26,-0.096C0.285,-0.096 0.305,-0.102 0.319,-0.113C0.332,-0.124 0.343,-0.141 0.35,-0.164L0.35,-0.389C0.34,-0.394 0.329,-0.398 0.316,-0.4C0.303,-0.401 0.289,-0.402 0.273,-0.402C0.238,-0.402 0.211,-0.389 0.194,-0.362C0.176,-0.335 0.167,-0.296 0.167,-0.245C0.167,-0.196 0.175,-0.159 0.191,-0.134C0.207,-0.109 0.23,-0.096 0.26,-0.096Z" style="fill:rgb(247,0,255);fill-rule:nonzero;"/>
            </g>
            <g transform="matrix(27.984,0,0,27.984,394.231,1969.87)">
                <path d="M0.241,-0.096C0.282,-0.096 0.314,-0.107 0.336,-0.129C0.357,-0.151 0.368,-0.178 0.368,-0.209C0.368,-0.247 0.357,-0.275 0.334,-0.293C0.311,-0.311 0.276,-0.32 0.227,-0.32L0.155,-0.32L0.155,-0.389L0.276,-0.554L0.333,-0.599L0.254,-0.59L0.086,-0.59L0.086,-0.7L0.468,-0.7L0.468,-0.629L0.327,-0.44L0.283,-0.413L0.283,-0.408L0.325,-0.414C0.348,-0.412 0.371,-0.407 0.392,-0.398C0.413,-0.389 0.431,-0.377 0.447,-0.361C0.462,-0.344 0.475,-0.324 0.484,-0.3C0.493,-0.276 0.498,-0.248 0.498,-0.217C0.498,-0.178 0.492,-0.144 0.479,-0.115C0.466,-0.086 0.448,-0.062 0.425,-0.043C0.401,-0.024 0.375,-0.009 0.344,-0C0.313,0.009 0.28,0.014 0.245,0.014C0.216,0.014 0.185,0.011 0.154,0.006C0.123,0.001 0.097,-0.007 0.078,-0.017L0.113,-0.125C0.13,-0.116 0.15,-0.109 0.171,-0.104C0.192,-0.099 0.215,-0.096 0.241,-0.096Z" style="fill:rgb(247,0,255);fill-rule:nonzero;"/>
            </g>
        </g>
    </g>
</svg>
