<?xml version="1.0" encoding="UTF-8" standalone="no"?>
<!DOCTYPE svg PUBLIC "-//W3C//DTD SVG 1.1//EN" "http://www.w3.org/Graphics/SVG/1.1/DTD/svg11.dtd">
<svg width="100%" height="100%" viewBox="0 0 733 667" version="1.1" xmlns="http://www.w3.org/2000/svg" xmlns:xlink="http://www.w3.org/1999/xlink" xml:space="preserve" xmlns:serif="http://www.serif.com/" style="fill-rule:evenodd;clip-rule:evenodd;stroke-linejoin:round;stroke-miterlimit:10;">
    <rect id="Artboard10" x="-1777" y="-1292" width="8206" height="4260" style="fill:none;"/>
    <g id="Artboard101" serif:id="Artboard10">
        <path d="M129.494,288.654L192.146,183.634L195.217,56.165L304.902,204.277L382.421,156.826L370.128,72.156L460.877,16.828L528.888,122.719L554.165,240.05L665.958,128.028L692.668,297.107L601.731,436.249L574.579,540.395L499.193,510.498L428.983,419.96L344.652,503.747L325.476,616.582L258.538,646.478L234.183,570.291L264.939,486.095L244.621,365.114L169.815,422.738L129.494,288.654Z" style="fill:rgb(217,217,217);stroke:black;stroke-width:6px;"/>
        <path d="M428.328,388.102L429.144,391.798L429.384,391.798L430.056,388.006L434.136,375.526L440.856,375.526L430.824,399.766L427.032,399.766L416.616,375.526L423.864,375.526L428.328,388.102Z" style="fill-rule:nonzero;"/>
        <path d="M244.355,318.67L248.723,330.958L249.587,334.942L249.779,334.942L250.451,330.91L253.523,318.67L259.235,318.67L251.843,342.91L247.235,342.91L242.387,329.47L241.763,326.446L241.523,326.446L240.947,329.518L236.339,342.91L231.587,342.91L223.859,318.67L230.627,318.67L234.131,330.718L234.707,334.99L234.947,334.99L235.763,330.67L239.747,318.67L244.355,318.67Z" style="fill-rule:nonzero;"/>
        <path d="M132.664,464.94C132.664,466.06 132.808,466.876 133.096,467.388C133.384,467.9 133.848,468.156 134.488,468.156C134.872,468.156 135.248,468.124 135.616,468.06C135.984,467.996 136.44,467.852 136.984,467.628L137.656,472.524C137.144,472.78 136.36,473.036 135.304,473.292C134.248,473.548 133.16,473.676 132.04,473.676C130.216,473.676 128.824,473.252 127.864,472.404C126.904,471.556 126.424,470.156 126.424,468.204L126.424,439.404L132.664,439.404L132.664,464.94Z" style="fill:rgb(192,7,121);fill-rule:nonzero;"/>
        <path d="M159.544,470.94C158.584,471.708 157.28,472.356 155.632,472.884C153.984,473.412 152.232,473.676 150.376,473.676C146.504,473.676 143.672,472.548 141.88,470.292C140.088,468.036 139.192,464.94 139.192,461.004C139.192,456.78 140.2,453.612 142.216,451.5C144.232,449.388 147.064,448.332 150.712,448.332C151.928,448.332 153.112,448.492 154.264,448.812C155.416,449.132 156.44,449.66 157.336,450.396C158.232,451.132 158.952,452.124 159.496,453.372C160.04,454.62 160.312,456.172 160.312,458.028C160.312,458.7 160.272,459.42 160.192,460.188C160.112,460.956 159.992,461.756 159.832,462.588L145.432,462.588C145.528,464.604 146.048,466.124 146.992,467.148C147.936,468.172 149.464,468.684 151.576,468.684C152.888,468.684 154.064,468.484 155.104,468.084C156.144,467.684 156.936,467.276 157.48,466.86L159.544,470.94ZM150.616,453.324C148.984,453.324 147.776,453.812 146.992,454.788C146.208,455.764 145.736,457.068 145.576,458.7L154.504,458.7C154.632,456.972 154.368,455.644 153.712,454.716C153.056,453.788 152.024,453.324 150.616,453.324Z" style="fill:rgb(192,7,121);fill-rule:nonzero;"/>
        <path d="M162.52,449.004L165.832,449.004L165.832,447.66C165.832,444.62 166.472,442.42 167.752,441.06C169.032,439.7 170.888,439.02 173.32,439.02C175.88,439.02 178.008,439.324 179.704,439.932L178.504,444.924C177.768,444.668 177.12,444.5 176.56,444.42C176,444.34 175.416,444.3 174.808,444.3C174.168,444.3 173.664,444.396 173.296,444.588C172.928,444.78 172.656,445.076 172.48,445.476C172.304,445.876 172.192,446.372 172.144,446.964C172.096,447.556 172.072,448.236 172.072,449.004L177.352,449.004L177.352,454.284L172.072,454.284L172.072,473.004L165.832,473.004L165.832,454.284L162.52,454.284L162.52,449.004Z" style="fill:rgb(192,7,121);fill-rule:nonzero;"/>
        <path d="M177.64,449.004L180.952,449.004L180.952,444.492L187.192,442.716L187.192,449.004L193.048,449.004L193.048,454.284L187.192,454.284L187.192,463.5C187.192,465.164 187.36,466.356 187.696,467.076C188.032,467.796 188.664,468.156 189.592,468.156C190.232,468.156 190.784,468.092 191.248,467.964C191.712,467.836 192.232,467.644 192.808,467.388L193.912,472.188C193.048,472.604 192.04,472.956 190.888,473.244C189.736,473.532 188.568,473.676 187.384,473.676C185.176,473.676 183.552,473.108 182.512,471.972C181.472,470.836 180.952,468.972 180.952,466.38L180.952,454.284L177.64,454.284L177.64,449.004Z" style="fill:rgb(192,7,121);fill-rule:nonzero;"/>
        <path d="M205.048,483.564C203.576,482.028 202.328,480.34 201.304,478.5C200.28,476.66 199.456,474.772 198.832,472.836C198.208,470.9 197.752,468.948 197.464,466.98C197.176,465.012 197.032,463.132 197.032,461.34C197.032,459.58 197.176,457.724 197.464,455.772C197.752,453.82 198.216,451.86 198.856,449.892C199.496,447.924 200.336,445.996 201.376,444.108C202.416,442.22 203.688,440.46 205.192,438.828L209.224,441.42C208.104,442.924 207.168,444.492 206.416,446.124C205.664,447.756 205.056,449.428 204.592,451.14C204.128,452.852 203.792,454.572 203.584,456.3C203.376,458.028 203.272,459.708 203.272,461.34C203.272,462.876 203.384,464.508 203.608,466.236C203.832,467.964 204.184,469.684 204.664,471.396C205.144,473.108 205.768,474.78 206.536,476.412C207.304,478.044 208.232,479.532 209.32,480.876L205.048,483.564Z" style="fill:rgb(192,7,121);fill-rule:nonzero;"/>
        <path d="M220.888,461.58L221.704,465.276L221.944,465.276L222.616,461.484L226.696,449.004L233.416,449.004L223.384,473.244L219.592,473.244L209.176,449.004L216.424,449.004L220.888,461.58Z" style="fill:rgb(192,7,121);fill-rule:nonzero;"/>
        <path d="M237.496,438.828C238.968,440.364 240.216,442.052 241.24,443.892C242.264,445.732 243.088,447.62 243.712,449.556C244.336,451.492 244.792,453.444 245.08,455.412C245.368,457.38 245.512,459.26 245.512,461.052C245.512,462.812 245.368,464.668 245.08,466.62C244.792,468.572 244.328,470.532 243.688,472.5C243.048,474.468 242.208,476.396 241.168,478.284C240.128,480.172 238.856,481.932 237.352,483.564L233.32,480.924C234.504,479.324 235.48,477.7 236.248,476.052C237.016,474.404 237.624,472.74 238.072,471.06C238.52,469.38 238.832,467.7 239.008,466.02C239.184,464.34 239.272,462.684 239.272,461.052C239.272,459.516 239.152,457.892 238.912,456.18C238.672,454.468 238.312,452.756 237.832,451.044C237.352,449.332 236.736,447.668 235.984,446.052C235.232,444.436 234.328,442.94 233.272,441.564L237.496,438.828Z" style="fill:rgb(192,7,121);fill-rule:nonzero;"/>
        <path d="M207.556,211.005L183.556,199.005L207.556,187.005L207.556,211.005Z" style="fill:rgb(249,85,185);"/>
        <path d="M304.74,199.005L202.756,199.005" style="fill:none;stroke:rgb(249,85,185);stroke-width:4px;"/>
        <path d="M401.459,137.351L377.459,125.351L401.459,113.351L401.459,137.351Z" style="fill:rgb(249,85,185);"/>
        <path d="M529.455,125.351L396.659,125.351" style="fill:none;stroke:rgb(249,85,185);stroke-width:4px;"/>
        <path d="M180.667,252.05L156.667,240.05L180.667,228.05L180.667,252.05Z" style="fill:rgb(249,85,185);"/>
        <path d="M554.165,240.05L175.867,240.05" style="fill:none;stroke:rgb(249,85,185);stroke-width:4px;"/>
        <path d="M162.193,309.892L138.193,297.892L162.193,285.892L162.193,309.892Z" style="fill:rgb(249,85,185);"/>
        <path d="M692.668,297.892L157.393,297.892" style="fill:none;stroke:rgb(249,85,185);stroke-width:4px;"/>
        <path d="M180.667,377.114L156.667,365.114L180.667,353.114L180.667,377.114Z" style="fill:rgb(249,85,185);"/>
        <path d="M244.621,365.114L175.867,365.114" style="fill:none;stroke:rgb(249,85,185);stroke-width:4px;"/>
        <path d="M471,448.249L447,436.249L471,424.249L471,448.249Z" style="fill:rgb(249,85,185);"/>
        <path d="M601.731,436.249L466.2,436.249" style="fill:none;stroke:rgb(249,85,185);stroke-width:4px;"/>
        <path d="M279.099,434.24L255.099,422.24L279.099,410.24L279.099,434.24Z" style="fill:rgb(249,85,185);"/>
        <path d="M429.55,422.24L274.299,422.24" style="fill:none;stroke:rgb(249,85,185);stroke-width:4px;"/>
        <path d="M282.579,514.946L258.579,502.946L282.579,490.946L282.579,514.946Z" style="fill:rgb(249,85,185);"/>
        <path d="M345.891,502.946L277.779,502.946" style="fill:none;stroke:rgb(249,85,185);stroke-width:4px;"/>
        <path d="M244.621,365.114L692.668,297.107" style="fill:none;stroke:black;stroke-width:4px;"/>
        <path d="M429.55,422.24L244.621,365.114" style="fill:none;stroke:black;stroke-width:4px;"/>
        <path d="M304.74,181.496L324.209,216.514L285.271,216.514L304.74,181.496Z" style="fill:rgb(45,231,231);stroke:black;stroke-width:3px;"/>
        <path d="M430.55,446.749L411.081,411.731L450.019,411.731L430.55,446.749Z" style="fill:rgb(249,85,185);stroke:black;stroke-width:3px;"/>
        <path d="M556.436,216.514L575.905,251.532L536.967,251.532L556.436,216.514Z" style="fill:rgb(45,231,231);stroke:black;stroke-width:3px;"/>
        <rect x="183.556" y="44.828" width="23.265" height="23.265" style="fill:rgb(248,253,112);stroke:black;stroke-width:3px;"/>
        <rect x="250.678" y="632.28" width="23.265" height="23.265" style="fill:rgb(144,250,46);stroke:black;stroke-width:3px;"/>
        <rect x="564.459" y="527.996" width="23.265" height="23.265" style="fill:rgb(144,250,46);stroke:black;stroke-width:3px;"/>
        <rect x="448.619" y="7.859" width="23.265" height="23.265" style="fill:rgb(248,253,112);stroke:black;stroke-width:3px;"/>
        <rect x="651.607" y="116.529" width="23.265" height="23.265" style="fill:rgb(248,253,112);stroke:black;stroke-width:3px;"/>
        <circle cx="191.056" cy="185.593" r="10.5" style="fill:white;stroke:black;stroke-width:3px;"/>
        <circle cx="384.055" cy="157.186" r="10.5" style="fill:white;stroke:black;stroke-width:3px;"/>
        <circle cx="529.455" cy="125.098" r="10.5" style="fill:white;stroke:black;stroke-width:3px;"/>
        <circle cx="369.908" cy="73.99" r="10.5" style="fill:white;stroke:black;stroke-width:3px;"/>
        <circle cx="691.531" cy="297.892" r="10.5" style="fill:white;stroke:black;stroke-width:3px;"/>
        <circle cx="601.731" cy="436.249" r="10.5" style="fill:white;stroke:black;stroke-width:3px;"/>
        <circle cx="233.36" cy="571.901" r="10.5" style="fill:white;stroke:black;stroke-width:3px;"/>
        <circle cx="326.112" cy="616.66" r="10.5" style="fill:white;stroke:black;stroke-width:3px;"/>
        <circle cx="345.891" cy="502.946" r="10.5" style="fill:white;stroke:black;stroke-width:3px;"/>
        <circle cx="498.968" cy="510.322" r="10.5" style="fill:white;stroke:black;stroke-width:3px;"/>
        <path d="M264.237,488.016L244.621,365.114" style="fill:none;stroke:rgb(192,7,121);stroke-width:10px;"/>
        <rect x="159.59" y="410.812" width="23.265" height="23.265" style="fill:rgb(144,250,46);stroke:black;stroke-width:3px;"/>
        <circle cx="130.412" cy="288.463" r="10.5" style="fill:white;stroke:black;stroke-width:3px;"/>
        <circle cx="264.237" cy="488.016" r="10.5" style="fill:white;stroke:black;stroke-width:3px;"/>
        <path d="M242.74,388.731L223.271,353.713L262.209,353.713L242.74,388.731Z" style="fill:rgb(249,85,185);stroke:black;stroke-width:3px;"/>
    </g>
</svg>
