<?xml version="1.0" encoding="UTF-8" standalone="no"?>
<!DOCTYPE svg PUBLIC "-//W3C//DTD SVG 1.1//EN" "http://www.w3.org/Graphics/SVG/1.1/DTD/svg11.dtd">
<svg width="100%" height="100%" viewBox="0 0 742 1102" version="1.1" xmlns="http://www.w3.org/2000/svg" xmlns:xlink="http://www.w3.org/1999/xlink" xml:space="preserve" xmlns:serif="http://www.serif.com/" style="fill-rule:evenodd;clip-rule:evenodd;stroke-linejoin:round;stroke-miterlimit:10;">
    <rect id="Spatial-Databases-2" serif:id="Spatial Databases 2" x="-2379.91" y="-210" width="3858" height="5937" style="fill:none;"/>
    <circle cx="236.92" cy="785.886" r="26.576" style="fill:none;stroke:black;stroke-width:6px;"/>
    <circle cx="574.286" cy="803.948" r="26.576" style="fill:none;stroke:black;stroke-width:6px;"/>
    <circle cx="422.85" cy="677.86" r="26.576" style="fill:none;stroke:black;stroke-width:6px;"/>
    <circle cx="162.271" cy="1067.61" r="26.576" style="fill:none;stroke:black;stroke-width:6px;"/>
    <path d="M84.163,14.284L66.523,14.284L66.523,55.9L56.659,55.9L56.659,5.5L94.027,5.5L94.027,55.9L84.163,55.9L84.163,14.284Z" style="fill-rule:nonzero;"/>
    <path d="M102.451,19.9L109.291,19.9L110.371,24.22L110.659,24.22C111.907,22.396 113.383,21.052 115.087,20.188C116.791,19.324 118.867,18.892 121.315,18.892C125.827,18.892 129.211,20.32 131.467,23.176C133.723,26.032 134.851,30.628 134.851,36.964C134.851,40.036 134.491,42.808 133.771,45.28C133.051,47.752 131.983,49.852 130.567,51.58C129.151,53.308 127.423,54.628 125.383,55.54C123.343,56.452 121.003,56.908 118.363,56.908C116.875,56.908 115.651,56.8 114.691,56.584C113.731,56.368 112.771,56.02 111.811,55.54L111.811,70.3L102.451,70.3L102.451,19.9ZM118.507,26.812C116.683,26.812 115.255,27.268 114.223,28.18C113.191,29.092 112.387,30.46 111.811,32.284L111.811,47.26C112.483,47.788 113.215,48.208 114.007,48.52C114.799,48.832 115.843,48.988 117.139,48.988C119.827,48.988 121.843,48.04 123.187,46.144C124.531,44.248 125.203,41.116 125.203,36.748C125.203,33.58 124.675,31.132 123.619,29.404C122.563,27.676 120.859,26.812 118.507,26.812Z" style="fill-rule:nonzero;"/>
    <path d="M139.603,37.9C139.603,31.804 141.091,27.112 144.067,23.824C147.043,20.536 151.219,18.892 156.595,18.892C159.475,18.892 161.971,19.348 164.083,20.26C166.195,21.172 167.947,22.456 169.339,24.112C170.731,25.768 171.775,27.772 172.471,30.124C173.167,32.476 173.515,35.068 173.515,37.9C173.515,43.996 172.039,48.688 169.087,51.976C166.135,55.264 161.971,56.908 156.595,56.908C153.715,56.908 151.219,56.452 149.107,55.54C146.995,54.628 145.231,53.344 143.815,51.688C142.399,50.032 141.343,48.028 140.647,45.676C139.951,43.324 139.603,40.732 139.603,37.9ZM149.251,37.9C149.251,39.484 149.395,40.948 149.683,42.292C149.971,43.636 150.403,44.812 150.979,45.82C151.555,46.828 152.311,47.608 153.247,48.16C154.183,48.712 155.299,48.988 156.595,48.988C159.043,48.988 160.867,48.1 162.067,46.324C163.267,44.548 163.867,41.74 163.867,37.9C163.867,34.588 163.315,31.912 162.211,29.872C161.107,27.832 159.235,26.812 156.595,26.812C154.291,26.812 152.491,27.676 151.195,29.404C149.899,31.132 149.251,33.964 149.251,37.9Z" style="fill-rule:nonzero;"/>
    <path d="M205.483,53.668C204.043,54.724 202.303,55.528 200.263,56.08C198.223,56.632 196.123,56.908 193.963,56.908C191.083,56.908 188.647,56.452 186.655,55.54C184.663,54.628 183.043,53.344 181.795,51.688C180.547,50.032 179.647,48.028 179.095,45.676C178.543,43.324 178.267,40.732 178.267,37.9C178.267,31.804 179.635,27.112 182.371,23.824C185.107,20.536 189.091,18.892 194.323,18.892C196.963,18.892 199.087,19.108 200.695,19.54C202.303,19.972 203.755,20.524 205.051,21.196L202.819,28.828C201.715,28.3 200.623,27.892 199.543,27.604C198.463,27.316 197.227,27.172 195.835,27.172C193.243,27.172 191.275,28.024 189.931,29.728C188.587,31.432 187.915,34.156 187.915,37.9C187.915,39.436 188.083,40.852 188.419,42.148C188.755,43.444 189.259,44.572 189.931,45.532C190.603,46.492 191.479,47.248 192.559,47.8C193.639,48.352 194.899,48.628 196.339,48.628C197.923,48.628 199.267,48.424 200.371,48.016C201.475,47.608 202.459,47.116 203.323,46.54L205.483,53.668Z" style="fill-rule:nonzero;"/>
    <path d="M237.091,28.18L227.083,28.18L227.083,55.9L217.435,55.9L217.435,28.18L207.139,28.18L207.139,19.9L237.091,19.9L237.091,28.18Z" style="fill-rule:nonzero;"/>
    <path d="M239.539,37.9C239.539,31.804 241.027,27.112 244.003,23.824C246.979,20.536 251.155,18.892 256.531,18.892C259.411,18.892 261.907,19.348 264.019,20.26C266.131,21.172 267.883,22.456 269.275,24.112C270.667,25.768 271.711,27.772 272.407,30.124C273.103,32.476 273.451,35.068 273.451,37.9C273.451,43.996 271.975,48.688 269.023,51.976C266.071,55.264 261.907,56.908 256.531,56.908C253.651,56.908 251.155,56.452 249.043,55.54C246.931,54.628 245.167,53.344 243.751,51.688C242.335,50.032 241.279,48.028 240.583,45.676C239.887,43.324 239.539,40.732 239.539,37.9ZM249.187,37.9C249.187,39.484 249.331,40.948 249.619,42.292C249.907,43.636 250.339,44.812 250.915,45.82C251.491,46.828 252.247,47.608 253.183,48.16C254.119,48.712 255.235,48.988 256.531,48.988C258.979,48.988 260.803,48.1 262.003,46.324C263.203,44.548 263.803,41.74 263.803,37.9C263.803,34.588 263.251,31.912 262.147,29.872C261.043,27.832 259.171,26.812 256.531,26.812C254.227,26.812 252.427,27.676 251.131,29.404C249.835,31.132 249.187,33.964 249.187,37.9Z" style="fill-rule:nonzero;"/>
    <path d="M301.603,39.484L301.963,34.372L301.747,34.372L298.651,39.628L285.835,55.9L279.931,55.9L279.931,19.9L289.291,19.9L289.291,37.036L288.859,41.932L289.147,41.932L292.099,36.82L305.059,19.9L310.963,19.9L310.963,55.9L301.603,55.9L301.603,39.484ZM291.595,5.212C291.931,7.084 292.495,8.404 293.287,9.172C294.079,9.94 295.099,10.324 296.347,10.324C297.691,10.324 298.759,9.94 299.551,9.172C300.343,8.404 300.883,7.108 301.171,5.284L308.299,7.084C307.723,10.204 306.307,12.52 304.051,14.032C301.795,15.544 299.155,16.3 296.131,16.3C294.643,16.3 293.203,16.132 291.811,15.796C290.419,15.46 289.171,14.92 288.067,14.176C286.963,13.432 286.027,12.484 285.259,11.332C284.491,10.18 283.963,8.764 283.675,7.084L291.595,5.212Z" style="fill-rule:nonzero;"/>
    <path d="M433.74,34.804L415.308,34.804L415.308,55.9L405.444,55.9L405.444,5.5L415.308,5.5L415.308,26.02L433.74,26.02L433.74,5.5L443.604,5.5L443.604,55.9L433.74,55.9L433.74,34.804Z" style="fill-rule:nonzero;"/>
    <path d="M480.9,52.804C479.46,53.956 477.504,54.928 475.032,55.72C472.56,56.512 469.932,56.908 467.148,56.908C461.34,56.908 457.092,55.216 454.404,51.832C451.716,48.448 450.372,43.804 450.372,37.9C450.372,31.564 451.884,26.812 454.908,23.644C457.932,20.476 462.18,18.892 467.652,18.892C469.476,18.892 471.252,19.132 472.98,19.612C474.708,20.092 476.244,20.884 477.588,21.988C478.932,23.092 480.012,24.58 480.828,26.452C481.644,28.324 482.052,30.652 482.052,33.436C482.052,34.444 481.992,35.524 481.872,36.676C481.752,37.828 481.572,39.028 481.332,40.276L459.732,40.276C459.876,43.3 460.656,45.58 462.072,47.116C463.488,48.652 465.78,49.42 468.948,49.42C470.916,49.42 472.68,49.12 474.24,48.52C475.8,47.92 476.988,47.308 477.804,46.684L480.9,52.804ZM467.508,26.38C465.06,26.38 463.248,27.112 462.072,28.576C460.896,30.04 460.188,31.996 459.948,34.444L473.34,34.444C473.532,31.852 473.136,29.86 472.152,28.468C471.168,27.076 469.62,26.38 467.508,26.38Z" style="fill-rule:nonzero;"/>
    <path d="M509.412,28.18L498.036,28.18L498.036,55.9L488.676,55.9L488.676,19.9L518.772,19.9L518.772,55.9L509.412,55.9L509.412,28.18Z" style="fill-rule:nonzero;"/>
    <path d="M526.98,19.9L533.82,19.9L534.9,24.22L535.188,24.22C536.436,22.396 537.912,21.052 539.616,20.188C541.32,19.324 543.396,18.892 545.844,18.892C550.356,18.892 553.74,20.32 555.996,23.176C558.252,26.032 559.38,30.628 559.38,36.964C559.38,40.036 559.02,42.808 558.3,45.28C557.58,47.752 556.512,49.852 555.096,51.58C553.68,53.308 551.952,54.628 549.912,55.54C547.872,56.452 545.532,56.908 542.892,56.908C541.404,56.908 540.18,56.8 539.22,56.584C538.26,56.368 537.3,56.02 536.34,55.54L536.34,70.3L526.98,70.3L526.98,19.9ZM543.036,26.812C541.212,26.812 539.784,27.268 538.752,28.18C537.72,29.092 536.916,30.46 536.34,32.284L536.34,47.26C537.012,47.788 537.744,48.208 538.536,48.52C539.328,48.832 540.372,48.988 541.668,48.988C544.356,48.988 546.372,48.04 547.716,46.144C549.06,44.248 549.732,41.116 549.732,36.748C549.732,33.58 549.204,31.132 548.148,29.404C547.092,27.676 545.388,26.812 543.036,26.812Z" style="fill-rule:nonzero;"/>
    <path d="M564.132,37.9C564.132,31.804 565.62,27.112 568.596,23.824C571.572,20.536 575.748,18.892 581.124,18.892C584.004,18.892 586.5,19.348 588.612,20.26C590.724,21.172 592.476,22.456 593.868,24.112C595.26,25.768 596.304,27.772 597,30.124C597.696,32.476 598.044,35.068 598.044,37.9C598.044,43.996 596.568,48.688 593.616,51.976C590.664,55.264 586.5,56.908 581.124,56.908C578.244,56.908 575.748,56.452 573.636,55.54C571.524,54.628 569.76,53.344 568.344,51.688C566.928,50.032 565.872,48.028 565.176,45.676C564.48,43.324 564.132,40.732 564.132,37.9ZM573.78,37.9C573.78,39.484 573.924,40.948 574.212,42.292C574.5,43.636 574.932,44.812 575.508,45.82C576.084,46.828 576.84,47.608 577.776,48.16C578.712,48.712 579.828,48.988 581.124,48.988C583.572,48.988 585.396,48.1 586.596,46.324C587.796,44.548 588.396,41.74 588.396,37.9C588.396,34.588 587.844,31.912 586.74,29.872C585.636,27.832 583.764,26.812 581.124,26.812C578.82,26.812 577.02,27.676 575.724,29.404C574.428,31.132 573.78,33.964 573.78,37.9Z" style="fill-rule:nonzero;"/>
    <path d="M630.012,53.668C628.572,54.724 626.832,55.528 624.792,56.08C622.752,56.632 620.652,56.908 618.492,56.908C615.612,56.908 613.176,56.452 611.184,55.54C609.192,54.628 607.572,53.344 606.324,51.688C605.076,50.032 604.176,48.028 603.624,45.676C603.072,43.324 602.796,40.732 602.796,37.9C602.796,31.804 604.164,27.112 606.9,23.824C609.636,20.536 613.62,18.892 618.852,18.892C621.492,18.892 623.616,19.108 625.224,19.54C626.832,19.972 628.284,20.524 629.58,21.196L627.348,28.828C626.244,28.3 625.152,27.892 624.072,27.604C622.992,27.316 621.756,27.172 620.364,27.172C617.772,27.172 615.804,28.024 614.46,29.728C613.116,31.432 612.444,34.156 612.444,37.9C612.444,39.436 612.612,40.852 612.948,42.148C613.284,43.444 613.788,44.572 614.46,45.532C615.132,46.492 616.008,47.248 617.088,47.8C618.168,48.352 619.428,48.628 620.868,48.628C622.452,48.628 623.796,48.424 624.9,48.016C626.004,47.608 626.988,47.116 627.852,46.54L630.012,53.668Z" style="fill-rule:nonzero;"/>
    <path d="M661.62,28.18L651.612,28.18L651.612,55.9L641.964,55.9L641.964,28.18L631.668,28.18L631.668,19.9L661.62,19.9L661.62,28.18Z" style="fill-rule:nonzero;"/>
    <path d="M664.068,37.9C664.068,31.804 665.556,27.112 668.532,23.824C671.508,20.536 675.684,18.892 681.06,18.892C683.94,18.892 686.436,19.348 688.548,20.26C690.66,21.172 692.412,22.456 693.804,24.112C695.196,25.768 696.24,27.772 696.936,30.124C697.632,32.476 697.98,35.068 697.98,37.9C697.98,43.996 696.504,48.688 693.552,51.976C690.6,55.264 686.436,56.908 681.06,56.908C678.18,56.908 675.684,56.452 673.572,55.54C671.46,54.628 669.696,53.344 668.28,51.688C666.864,50.032 665.808,48.028 665.112,45.676C664.416,43.324 664.068,40.732 664.068,37.9ZM673.716,37.9C673.716,39.484 673.86,40.948 674.148,42.292C674.436,43.636 674.868,44.812 675.444,45.82C676.02,46.828 676.776,47.608 677.712,48.16C678.648,48.712 679.764,48.988 681.06,48.988C683.508,48.988 685.332,48.1 686.532,46.324C687.732,44.548 688.332,41.74 688.332,37.9C688.332,34.588 687.78,31.912 686.676,29.872C685.572,27.832 683.7,26.812 681.06,26.812C678.756,26.812 676.956,27.676 675.66,29.404C674.364,31.132 673.716,33.964 673.716,37.9Z" style="fill-rule:nonzero;"/>
    <path d="M726.132,39.484L726.492,34.372L726.276,34.372L723.18,39.628L710.364,55.9L704.46,55.9L704.46,19.9L713.82,19.9L713.82,37.036L713.388,41.932L713.676,41.932L716.628,36.82L729.588,19.9L735.492,19.9L735.492,55.9L726.132,55.9L726.132,39.484ZM716.124,5.212C716.46,7.084 717.024,8.404 717.816,9.172C718.608,9.94 719.628,10.324 720.876,10.324C722.22,10.324 723.288,9.94 724.08,9.172C724.872,8.404 725.412,7.108 725.7,5.284L732.828,7.084C732.252,10.204 730.836,12.52 728.58,14.032C726.324,15.544 723.684,16.3 720.66,16.3C719.172,16.3 717.732,16.132 716.34,15.796C714.948,15.46 713.7,14.92 712.596,14.176C711.492,13.432 710.556,12.484 709.788,11.332C709.02,10.18 708.492,8.764 708.204,7.084L716.124,5.212Z" style="fill-rule:nonzero;"/>
    <path d="M141.186,582.484L121.746,582.484L121.746,624.1L111.882,624.1L111.882,573.7L141.186,573.7L141.186,582.484Z" style="fill-rule:nonzero;"/>
    <path d="M136.074,588.1L142.914,588.1L143.994,592.42L144.282,592.42C145.53,590.596 147.006,589.252 148.71,588.388C150.414,587.524 152.49,587.092 154.938,587.092C159.45,587.092 162.834,588.52 165.09,591.376C167.346,594.232 168.474,598.828 168.474,605.164C168.474,608.236 168.114,611.008 167.394,613.48C166.674,615.952 165.606,618.052 164.19,619.78C162.774,621.508 161.046,622.828 159.006,623.74C156.966,624.652 154.626,625.108 151.986,625.108C150.498,625.108 149.274,625 148.314,624.784C147.354,624.568 146.394,624.22 145.434,623.74L145.434,638.5L136.074,638.5L136.074,588.1ZM152.13,595.012C150.306,595.012 148.878,595.468 147.846,596.38C146.814,597.292 146.01,598.66 145.434,600.484L145.434,615.46C146.106,615.988 146.838,616.408 147.63,616.72C148.422,617.032 149.466,617.188 150.762,617.188C153.45,617.188 155.466,616.24 156.81,614.344C158.154,612.448 158.826,609.316 158.826,604.948C158.826,601.78 158.298,599.332 157.242,597.604C156.186,595.876 154.482,595.012 152.13,595.012Z" style="fill-rule:nonzero;"/>
    <path d="M174.738,590.188C176.658,589.324 178.938,588.64 181.578,588.136C184.218,587.632 186.978,587.38 189.858,587.38C192.354,587.38 194.442,587.68 196.122,588.28C197.802,588.88 199.134,589.732 200.118,590.836C201.102,591.94 201.798,593.26 202.206,594.796C202.614,596.332 202.818,598.06 202.818,599.98C202.818,602.092 202.746,604.216 202.602,606.352C202.458,608.488 202.374,610.588 202.35,612.652C202.326,614.716 202.386,616.72 202.53,618.664C202.674,620.608 203.034,622.444 203.61,624.172L195.978,624.172L194.466,619.204L194.106,619.204C193.146,620.692 191.814,621.976 190.11,623.056C188.406,624.136 186.21,624.676 183.522,624.676C181.842,624.676 180.33,624.424 178.986,623.92C177.642,623.416 176.49,622.696 175.53,621.76C174.57,620.824 173.826,619.72 173.298,618.448C172.77,617.176 172.506,615.748 172.506,614.164C172.506,611.956 172.998,610.096 173.982,608.584C174.966,607.072 176.382,605.848 178.23,604.912C180.078,603.976 182.286,603.328 184.854,602.968C187.422,602.608 190.29,602.5 193.458,602.644C193.794,599.956 193.602,598.024 192.882,596.848C192.162,595.672 190.554,595.084 188.058,595.084C186.186,595.084 184.206,595.276 182.118,595.66C180.03,596.044 178.314,596.548 176.97,597.172L174.738,590.188ZM186.618,616.972C188.49,616.972 189.978,616.552 191.082,615.712C192.186,614.872 193.002,613.972 193.53,613.012L193.53,608.332C192.042,608.188 190.614,608.164 189.246,608.26C187.878,608.356 186.666,608.572 185.61,608.908C184.554,609.244 183.714,609.724 183.09,610.348C182.466,610.972 182.154,611.764 182.154,612.724C182.154,614.068 182.55,615.112 183.342,615.856C184.134,616.6 185.226,616.972 186.618,616.972Z" style="fill-rule:nonzero;"/>
    <path d="M231.762,609.988L220.026,609.988L220.026,624.1L210.666,624.1L210.666,588.1L220.026,588.1L220.026,601.636L231.762,601.636L231.762,588.1L241.122,588.1L241.122,624.1L231.762,624.1L231.762,609.988Z" style="fill-rule:nonzero;"/>
    <path d="M271.002,607.684L271.362,602.572L271.146,602.572L268.05,607.828L255.234,624.1L249.33,624.1L249.33,588.1L258.69,588.1L258.69,605.236L258.258,610.132L258.546,610.132L261.498,605.02L274.458,588.1L280.362,588.1L280.362,624.1L271.002,624.1L271.002,607.684Z" style="fill-rule:nonzero;"/>
    <path d="M296.202,588.1L296.202,596.308C296.202,597.796 296.262,599.08 296.382,600.16C296.502,601.24 296.742,602.128 297.102,602.824C297.462,603.52 297.966,604.036 298.614,604.372C299.262,604.708 300.114,604.876 301.17,604.876C302.562,604.876 303.774,604.708 304.806,604.372C305.838,604.036 306.69,603.628 307.362,603.148L307.362,588.1L316.722,588.1L316.722,624.1L307.362,624.1L307.362,609.988C306.642,610.516 305.538,611.104 304.05,611.752C302.562,612.4 300.57,612.724 298.074,612.724C296.298,612.724 294.714,612.532 293.322,612.148C291.93,611.764 290.754,611.092 289.794,610.132C288.834,609.172 288.102,607.9 287.598,606.316C287.094,604.732 286.842,602.74 286.842,600.34L286.842,588.1L296.202,588.1Z" style="fill-rule:nonzero;"/>
    <path d="M346.026,609.988L334.29,609.988L334.29,624.1L324.93,624.1L324.93,588.1L334.29,588.1L334.29,601.636L346.026,601.636L346.026,588.1L355.386,588.1L355.386,624.1L346.026,624.1L346.026,609.988Z" style="fill-rule:nonzero;"/>
    <path d="M372.954,616.252C374.394,616.54 375.762,616.684 377.058,616.684C379.218,616.684 380.73,616.288 381.594,615.496C382.458,614.704 382.89,613.468 382.89,611.788C382.89,610.252 382.458,609.088 381.594,608.296C380.73,607.504 379.29,607.108 377.274,607.108C375.69,607.108 374.25,607.276 372.954,607.612L372.954,616.252ZM372.954,600.916C374.106,600.724 375.27,600.592 376.446,600.52C377.622,600.448 378.69,600.412 379.65,600.412C382.098,600.412 384.138,600.688 385.77,601.24C387.402,601.792 388.722,602.572 389.73,603.58C390.738,604.588 391.458,605.776 391.89,607.144C392.322,608.512 392.538,609.988 392.538,611.572C392.538,613.732 392.25,615.628 391.674,617.26C391.098,618.892 390.162,620.248 388.866,621.328C387.57,622.408 385.89,623.224 383.826,623.776C381.762,624.328 379.218,624.604 376.194,624.604C373.458,624.604 371.094,624.556 369.102,624.46C367.11,624.364 365.274,624.244 363.594,624.1L363.594,588.1L372.954,588.1L372.954,600.916ZM396.642,588.1L406.002,588.1L406.002,624.1L396.642,624.1L396.642,588.1Z" style="fill-rule:nonzero;"/>
    <path d="M443.01,621.004C441.57,622.156 439.614,623.128 437.142,623.92C434.67,624.712 432.042,625.108 429.258,625.108C423.45,625.108 419.202,623.416 416.514,620.032C413.826,616.648 412.482,612.004 412.482,606.1C412.482,599.764 413.994,595.012 417.018,591.844C420.042,588.676 424.29,587.092 429.762,587.092C431.586,587.092 433.362,587.332 435.09,587.812C436.818,588.292 438.354,589.084 439.698,590.188C441.042,591.292 442.122,592.78 442.938,594.652C443.754,596.524 444.162,598.852 444.162,601.636C444.162,602.644 444.102,603.724 443.982,604.876C443.862,606.028 443.682,607.228 443.442,608.476L421.842,608.476C421.986,611.5 422.766,613.78 424.182,615.316C425.598,616.852 427.89,617.62 431.058,617.62C433.026,617.62 434.79,617.32 436.35,616.72C437.91,616.12 439.098,615.508 439.914,614.884L443.01,621.004ZM429.618,594.58C427.17,594.58 425.358,595.312 424.182,596.776C423.006,598.24 422.298,600.196 422.058,602.644L435.45,602.644C435.642,600.052 435.246,598.06 434.262,596.668C433.278,595.276 431.73,594.58 429.618,594.58Z" style="fill-rule:nonzero;"/>
    <path d="M494.922,596.38L484.914,596.38L484.914,624.1L475.266,624.1L475.266,596.38L464.97,596.38L464.97,588.1L494.922,588.1L494.922,596.38Z" style="fill-rule:nonzero;"/>
    <path d="M497.37,606.1C497.37,600.004 498.858,595.312 501.834,592.024C504.81,588.736 508.986,587.092 514.362,587.092C517.242,587.092 519.738,587.548 521.85,588.46C523.962,589.372 525.714,590.656 527.106,592.312C528.498,593.968 529.542,595.972 530.238,598.324C530.934,600.676 531.282,603.268 531.282,606.1C531.282,612.196 529.806,616.888 526.854,620.176C523.902,623.464 519.738,625.108 514.362,625.108C511.482,625.108 508.986,624.652 506.874,623.74C504.762,622.828 502.998,621.544 501.582,619.888C500.166,618.232 499.11,616.228 498.414,613.876C497.718,611.524 497.37,608.932 497.37,606.1ZM507.018,606.1C507.018,607.684 507.162,609.148 507.45,610.492C507.738,611.836 508.17,613.012 508.746,614.02C509.322,615.028 510.078,615.808 511.014,616.36C511.95,616.912 513.066,617.188 514.362,617.188C516.81,617.188 518.634,616.3 519.834,614.524C521.034,612.748 521.634,609.94 521.634,606.1C521.634,602.788 521.082,600.112 519.978,598.072C518.874,596.032 517.002,595.012 514.362,595.012C512.058,595.012 510.258,595.876 508.962,597.604C507.666,599.332 507.018,602.164 507.018,606.1Z" style="fill-rule:nonzero;"/>
    <path d="M545.394,588.1L545.394,596.308C545.394,597.796 545.454,599.08 545.574,600.16C545.694,601.24 545.934,602.128 546.294,602.824C546.654,603.52 547.158,604.036 547.806,604.372C548.454,604.708 549.306,604.876 550.362,604.876C551.754,604.876 552.966,604.708 553.998,604.372C555.03,604.036 555.882,603.628 556.554,603.148L556.554,588.1L565.914,588.1L565.914,624.1L556.554,624.1L556.554,609.988C555.834,610.516 554.73,611.104 553.242,611.752C551.754,612.4 549.762,612.724 547.266,612.724C545.49,612.724 543.906,612.532 542.514,612.148C541.122,611.764 539.946,611.092 538.986,610.132C538.026,609.172 537.294,607.9 536.79,606.316C536.286,604.732 536.034,602.74 536.034,600.34L536.034,588.1L545.394,588.1Z" style="fill-rule:nonzero;"/>
    <path d="M586.002,609.196L583.482,609.196L583.482,624.1L574.122,624.1L574.122,588.1L583.482,588.1L583.482,603.436L585.714,602.428L594.138,588.1L604.146,588.1L595.434,601.78L591.762,604.516L595.794,607.324L605.514,624.1L594.786,624.1L586.002,609.196Z" style="fill-rule:nonzero;"/>
    <path d="M631.002,607.684L631.362,602.572L631.146,602.572L628.05,607.828L615.234,624.1L609.33,624.1L609.33,588.1L618.69,588.1L618.69,605.236L618.258,610.132L618.546,610.132L621.498,605.02L634.458,588.1L640.362,588.1L640.362,624.1L631.002,624.1L631.002,607.684Z" style="fill-rule:nonzero;"/>
    <path d="M100.788,140.344C100.788,138.904 100.356,137.776 99.492,136.96C98.628,136.144 97.56,135.46 96.288,134.908C95.016,134.356 93.624,133.828 92.112,133.324C90.6,132.82 89.208,132.172 87.936,131.38C86.664,130.588 85.596,129.568 84.732,128.32C83.868,127.072 83.436,125.392 83.436,123.28C83.436,119.824 84.42,117.292 86.388,115.684C88.356,114.076 91.092,113.272 94.596,113.272C97.188,113.272 99.36,113.5 101.112,113.956C102.864,114.412 104.388,114.952 105.684,115.576L104.316,120.328C103.212,119.8 101.88,119.332 100.32,118.924C98.76,118.516 97.092,118.312 95.316,118.312C93.204,118.312 91.656,118.672 90.672,119.392C89.688,120.112 89.196,121.36 89.196,123.136C89.196,124.384 89.628,125.356 90.492,126.052C91.356,126.748 92.424,127.372 93.696,127.924C94.968,128.476 96.36,129.016 97.872,129.544C99.384,130.072 100.776,130.768 102.048,131.632C103.32,132.496 104.388,133.588 105.252,134.908C106.116,136.228 106.548,137.968 106.548,140.128C106.548,141.664 106.296,143.104 105.792,144.448C105.288,145.792 104.508,146.944 103.452,147.904C102.396,148.864 101.088,149.62 99.528,150.172C97.968,150.724 96.132,151 94.02,151C91.284,151 88.956,150.736 87.036,150.208C85.116,149.68 83.508,149.056 82.212,148.336L83.94,143.44C85.044,144.064 86.484,144.64 88.26,145.168C90.036,145.696 91.836,145.96 93.66,145.96C95.724,145.96 97.428,145.552 98.772,144.736C100.116,143.92 100.788,142.456 100.788,140.344Z" style="fill:rgb(176,0,182);fill-rule:nonzero;"/>
    <path d="M489.251,140.344C489.251,138.904 488.819,137.776 487.955,136.96C487.091,136.144 486.023,135.46 484.751,134.908C483.479,134.356 482.087,133.828 480.575,133.324C479.063,132.82 477.671,132.172 476.399,131.38C475.127,130.588 474.059,129.568 473.195,128.32C472.331,127.072 471.899,125.392 471.899,123.28C471.899,119.824 472.883,117.292 474.851,115.684C476.819,114.076 479.555,113.272 483.059,113.272C485.651,113.272 487.823,113.5 489.575,113.956C491.327,114.412 492.851,114.952 494.147,115.576L492.779,120.328C491.675,119.8 490.343,119.332 488.783,118.924C487.223,118.516 485.555,118.312 483.779,118.312C481.667,118.312 480.119,118.672 479.135,119.392C478.151,120.112 477.659,121.36 477.659,123.136C477.659,124.384 478.091,125.356 478.955,126.052C479.819,126.748 480.887,127.372 482.159,127.924C483.431,128.476 484.823,129.016 486.335,129.544C487.847,130.072 489.239,130.768 490.511,131.632C491.783,132.496 492.851,133.588 493.715,134.908C494.579,136.228 495.011,137.968 495.011,140.128C495.011,141.664 494.759,143.104 494.255,144.448C493.751,145.792 492.971,146.944 491.915,147.904C490.859,148.864 489.551,149.62 487.991,150.172C486.431,150.724 484.595,151 482.483,151C479.747,151 477.419,150.736 475.499,150.208C473.579,149.68 471.971,149.056 470.675,148.336L472.403,143.44C473.507,144.064 474.947,144.64 476.723,145.168C478.499,145.696 480.299,145.96 482.123,145.96C484.187,145.96 485.891,145.552 487.235,144.736C488.579,143.92 489.251,142.456 489.251,140.344Z" style="fill:rgb(176,0,182);fill-rule:nonzero;"/>
    <path d="M164.594,356.089C163.154,357.241 161.342,358.153 159.158,358.825C156.974,359.497 154.658,359.833 152.21,359.833C149.474,359.833 147.098,359.389 145.082,358.501C143.066,357.613 141.41,356.341 140.114,354.685C138.818,353.029 137.858,351.049 137.234,348.745C136.61,346.441 136.298,343.849 136.298,340.969C136.298,334.825 137.666,330.145 140.402,326.929C143.138,323.713 147.05,322.105 152.138,322.105C153.77,322.105 155.402,322.285 157.034,322.645C158.666,323.005 160.13,323.689 161.426,324.697C162.722,325.705 163.778,327.133 164.594,328.981C165.41,330.829 165.818,333.265 165.818,336.289C165.818,337.873 165.674,339.625 165.386,341.545L142.274,341.545C142.274,343.657 142.49,345.529 142.922,347.161C143.354,348.793 144.026,350.173 144.938,351.301C145.85,352.429 147.038,353.293 148.502,353.893C149.966,354.493 151.754,354.793 153.866,354.793C155.498,354.793 157.13,354.505 158.762,353.929C160.394,353.353 161.618,352.681 162.434,351.913L164.594,356.089ZM152.21,327.145C149.378,327.145 147.11,327.889 145.406,329.377C143.702,330.865 142.682,333.409 142.346,337.009L160.202,337.009C160.202,333.361 159.506,330.805 158.114,329.341C156.722,327.877 154.754,327.145 152.21,327.145Z" style="fill:rgb(176,0,182);fill-rule:nonzero;"/>
    <path d="M546.057,368.041C544.617,369.193 542.805,370.105 540.621,370.777C538.437,371.449 536.121,371.785 533.673,371.785C530.937,371.785 528.561,371.341 526.545,370.453C524.529,369.565 522.873,368.293 521.577,366.637C520.281,364.981 519.321,363.001 518.697,360.697C518.073,358.393 517.761,355.801 517.761,352.921C517.761,346.777 519.129,342.097 521.865,338.881C524.601,335.665 528.513,334.057 533.601,334.057C535.233,334.057 536.865,334.237 538.497,334.597C540.129,334.957 541.593,335.641 542.889,336.649C544.185,337.657 545.241,339.085 546.057,340.933C546.873,342.781 547.281,345.217 547.281,348.241C547.281,349.825 547.137,351.577 546.849,353.497L523.737,353.497C523.737,355.609 523.953,357.481 524.385,359.113C524.817,360.745 525.489,362.125 526.401,363.253C527.313,364.381 528.501,365.245 529.965,365.845C531.429,366.445 533.217,366.745 535.329,366.745C536.961,366.745 538.593,366.457 540.225,365.881C541.857,365.305 543.081,364.633 543.897,363.865L546.057,368.041ZM533.673,339.097C530.841,339.097 528.573,339.841 526.869,341.329C525.165,342.817 524.145,345.361 523.809,348.961L541.665,348.961C541.665,345.313 540.969,342.757 539.577,341.293C538.185,339.829 536.217,339.097 533.673,339.097Z" style="fill:rgb(176,0,182);fill-rule:nonzero;"/>
    <path d="M110.658,405.769C109.218,406.921 107.406,407.833 105.222,408.505C103.038,409.177 100.722,409.513 98.274,409.513C95.538,409.513 93.162,409.069 91.146,408.181C89.13,407.293 87.474,406.021 86.178,404.365C84.882,402.709 83.922,400.729 83.298,398.425C82.674,396.121 82.362,393.529 82.362,390.649C82.362,384.505 83.73,379.825 86.466,376.609C89.202,373.393 93.114,371.785 98.202,371.785C99.834,371.785 101.466,371.965 103.098,372.325C104.73,372.685 106.194,373.369 107.49,374.377C108.786,375.385 109.842,376.813 110.658,378.661C111.474,380.509 111.882,382.945 111.882,385.969C111.882,387.553 111.738,389.305 111.45,391.225L88.338,391.225C88.338,393.337 88.554,395.209 88.986,396.841C89.418,398.473 90.09,399.853 91.002,400.981C91.914,402.109 93.102,402.973 94.566,403.573C96.03,404.173 97.818,404.473 99.93,404.473C101.562,404.473 103.194,404.185 104.826,403.609C106.458,403.033 107.682,402.361 108.498,401.593L110.658,405.769ZM98.274,376.825C95.442,376.825 93.174,377.569 91.47,379.057C89.766,380.545 88.746,383.089 88.41,386.689L106.266,386.689C106.266,383.041 105.57,380.485 104.178,379.021C102.786,377.557 100.818,376.825 98.274,376.825Z" style="fill:rgb(16,137,137);fill-rule:nonzero;"/>
    <path d="M499.12,405.769C497.68,406.921 495.868,407.833 493.684,408.505C491.5,409.177 489.184,409.513 486.736,409.513C484,409.513 481.624,409.069 479.608,408.181C477.592,407.293 475.936,406.021 474.64,404.365C473.344,402.709 472.384,400.729 471.76,398.425C471.136,396.121 470.824,393.529 470.824,390.649C470.824,384.505 472.192,379.825 474.928,376.609C477.664,373.393 481.576,371.785 486.664,371.785C488.296,371.785 489.928,371.965 491.56,372.325C493.192,372.685 494.656,373.369 495.952,374.377C497.248,375.385 498.304,376.813 499.12,378.661C499.936,380.509 500.344,382.945 500.344,385.969C500.344,387.553 500.2,389.305 499.912,391.225L476.8,391.225C476.8,393.337 477.016,395.209 477.448,396.841C477.88,398.473 478.552,399.853 479.464,400.981C480.376,402.109 481.564,402.973 483.028,403.573C484.492,404.173 486.28,404.473 488.392,404.473C490.024,404.473 491.656,404.185 493.288,403.609C494.92,403.033 496.144,402.361 496.96,401.593L499.12,405.769ZM486.736,376.825C483.904,376.825 481.636,377.569 479.932,379.057C478.228,380.545 477.208,383.089 476.872,386.689L494.728,386.689C494.728,383.041 494.032,380.485 492.64,379.021C491.248,377.557 489.28,376.825 486.736,376.825Z" style="fill:rgb(16,137,137);fill-rule:nonzero;"/>
    <path d="M301.788,349.177C301.788,347.737 301.356,346.609 300.492,345.793C299.628,344.977 298.56,344.293 297.288,343.741C296.016,343.189 294.624,342.661 293.112,342.157C291.6,341.653 290.208,341.005 288.936,340.213C287.664,339.421 286.596,338.401 285.732,337.153C284.868,335.905 284.436,334.225 284.436,332.113C284.436,328.657 285.42,326.125 287.388,324.517C289.356,322.909 292.092,322.105 295.596,322.105C298.188,322.105 300.36,322.333 302.112,322.789C303.864,323.245 305.388,323.785 306.684,324.409L305.316,329.161C304.212,328.633 302.88,328.165 301.32,327.757C299.76,327.349 298.092,327.145 296.316,327.145C294.204,327.145 292.656,327.505 291.672,328.225C290.688,328.945 290.196,330.193 290.196,331.969C290.196,333.217 290.628,334.189 291.492,334.885C292.356,335.581 293.424,336.205 294.696,336.757C295.968,337.309 297.36,337.849 298.872,338.377C300.384,338.905 301.776,339.601 303.048,340.465C304.32,341.329 305.388,342.421 306.252,343.741C307.116,345.061 307.548,346.801 307.548,348.961C307.548,350.497 307.296,351.937 306.792,353.281C306.288,354.625 305.508,355.777 304.452,356.737C303.396,357.697 302.088,358.453 300.528,359.005C298.968,359.557 297.132,359.833 295.02,359.833C292.284,359.833 289.956,359.569 288.036,359.041C286.116,358.513 284.508,357.889 283.212,357.169L284.94,352.273C286.044,352.897 287.484,353.473 289.26,354.001C291.036,354.529 292.836,354.793 294.66,354.793C296.724,354.793 298.428,354.385 299.772,353.569C301.116,352.753 301.788,351.289 301.788,349.177Z" style="fill:rgb(16,137,137);fill-rule:nonzero;"/>
    <path d="M439.251,330.313C439.251,328.873 438.819,327.745 437.955,326.929C437.091,326.113 436.023,325.429 434.751,324.877C433.479,324.325 432.087,323.797 430.575,323.293C429.063,322.789 427.671,322.141 426.399,321.349C425.127,320.557 424.059,319.537 423.195,318.289C422.331,317.041 421.899,315.361 421.899,313.249C421.899,309.793 422.883,307.261 424.851,305.653C426.819,304.045 429.555,303.241 433.059,303.241C435.651,303.241 437.823,303.469 439.575,303.925C441.327,304.381 442.851,304.921 444.147,305.545L442.779,310.297C441.675,309.769 440.343,309.301 438.783,308.893C437.223,308.485 435.555,308.281 433.779,308.281C431.667,308.281 430.119,308.641 429.135,309.361C428.151,310.081 427.659,311.329 427.659,313.105C427.659,314.353 428.091,315.325 428.955,316.021C429.819,316.717 430.887,317.341 432.159,317.893C433.431,318.445 434.823,318.985 436.335,319.513C437.847,320.041 439.239,320.737 440.511,321.601C441.783,322.465 442.851,323.557 443.715,324.877C444.579,326.197 445.011,327.937 445.011,330.097C445.011,331.633 444.759,333.073 444.255,334.417C443.751,335.761 442.971,336.913 441.915,337.873C440.859,338.833 439.551,339.589 437.991,340.141C436.431,340.693 434.595,340.969 432.483,340.969C429.747,340.969 427.419,340.705 425.499,340.177C423.579,339.649 421.971,339.025 420.675,338.305L422.403,333.409C423.507,334.033 424.947,334.609 426.723,335.137C428.499,335.665 430.299,335.929 432.123,335.929C434.187,335.929 435.891,335.521 437.235,334.705C438.579,333.889 439.251,332.425 439.251,330.313Z" style="fill:rgb(16,137,137);fill-rule:nonzero;"/>
    <path d="M144.89,118.271C136.345,116.676 128.112,122.318 126.517,130.864C124.922,139.409 130.565,147.641 139.11,149.236C147.655,150.831 155.888,145.188 157.483,136.643C159.078,128.098 153.435,119.866 144.89,118.271Z" style="fill:rgb(251,133,255);"/>
    <path d="M110.099,331.027C115.587,337.769 114.568,347.698 107.826,353.185C101.084,358.672 91.155,357.653 85.668,350.911C80.181,344.169 81.2,334.241 87.942,328.754C94.684,323.267 104.612,324.285 110.099,331.027Z" style="fill:rgb(251,133,255);"/>
    <path d="M142,133.753C142,133.753 330.838,169 272,228C213.162,287 -6.367,212.877 97.884,340.969" style="fill:none;stroke:rgb(251,133,255);stroke-width:6px;"/>
    <path d="M533.353,118.271C524.807,116.676 516.575,122.318 514.98,130.864C513.385,139.409 519.028,147.641 527.573,149.236C536.118,150.831 544.35,145.188 545.945,136.643C547.54,128.098 541.898,119.866 533.353,118.271Z" style="fill:rgb(251,133,255);"/>
    <path d="M498.562,331.027C504.049,337.769 503.03,347.698 496.289,353.185C489.547,358.672 479.618,357.653 474.131,350.911C468.644,344.169 469.663,334.241 476.405,328.754C483.147,323.267 493.075,324.285 498.562,331.027Z" style="fill:rgb(251,133,255);"/>
    <path d="M530.463,133.753C530.463,133.753 719.301,169 660.463,228C601.625,287 382.096,212.877 486.347,340.969" style="fill:none;stroke:rgb(251,133,255);stroke-width:6px;"/>
    <path d="M100.349,354.424C107.502,353.042 112.187,346.112 110.804,338.959C109.421,331.806 102.492,327.121 95.339,328.504C88.186,329.887 83.501,336.816 84.884,343.969C86.266,351.122 93.196,355.807 100.349,354.424Z" style="fill:none;stroke:rgb(45,231,231);stroke-width:6px;stroke-linejoin:miter;"/>
    <path d="M301.242,278.148C309.439,281.041 313.745,290.045 310.852,298.242C307.959,306.439 298.955,310.745 290.758,307.852C282.561,304.959 278.255,295.955 281.148,287.758C284.041,279.561 293.045,275.255 301.242,278.148Z" style="fill:rgb(45,231,231);"/>
    <path d="M84.884,343.969C84.884,343.969 -29.696,366.117 16,410C61.696,453.883 245.317,547.817 227,405C208.683,262.183 296,293 296,293" style="fill:none;stroke:rgb(45,231,231);stroke-width:6px;"/>
    <path d="M487.386,354.273C494.655,353.794 500.168,347.503 499.689,340.234C499.211,332.964 492.92,327.451 485.65,327.93C478.381,328.409 472.868,334.7 473.347,341.969C473.826,349.239 480.116,354.752 487.386,354.273Z" style="fill:none;stroke:rgb(45,231,231);stroke-width:6px;stroke-linejoin:miter;"/>
    <path d="M473.347,341.969C473.347,341.969 400.469,346.771 404.463,410C405.871,432.287 429.365,458.986 458.66,477.184C510.284,509.252 579.922,514.919 578.463,423.513C577.19,343.814 664.821,412.765 669.374,352.921C676.001,265.817 496.011,333.969 496.011,333.969" style="fill:none;stroke:rgb(45,231,231);stroke-width:6px;"/>
    <path d="M77.782,837.202C73.031,844.481 75.083,854.248 82.362,859C89.641,863.752 99.408,861.7 104.16,854.421C108.911,847.142 106.86,837.374 99.581,832.623C92.302,827.871 82.534,829.923 77.782,837.202Z" style="fill:rgb(45,231,231);"/>
    <path d="M96.137,837.898C123.816,776.445 75.55,693.562 165.818,746C267.016,804.788 319.187,822.688 283.212,868C247.237,913.312 164.396,844.977 176.78,953C182.636,1004.09 27.189,919.5 82.362,859" style="fill:none;stroke:rgb(45,231,231);stroke-width:6px;"/>
    <path d="M151.449,1056.74C145.077,1062.65 144.705,1072.63 150.618,1079C156.531,1085.37 166.504,1085.74 172.876,1079.83C179.248,1073.92 179.62,1063.94 173.707,1057.57C167.794,1051.2 157.821,1050.83 151.449,1056.74Z" style="fill:rgb(255,189,21);"/>
    <path d="M554.177,1013.84C562.451,1011.18 571.333,1015.73 574,1024C576.667,1032.27 572.115,1041.16 563.842,1043.82C555.569,1046.49 546.686,1041.94 544.019,1033.66C541.352,1025.39 545.904,1016.51 554.177,1013.84Z" style="fill:rgb(255,189,21);"/>
    <path d="M169.089,1061.86C251.19,996.187 319.029,1077.62 327,1023C335.562,964.334 322.11,918.876 399,913C542.102,902.064 374.412,1083.1 550.015,1031.73" style="fill:none;stroke:rgb(255,189,21);stroke-width:6px;"/>
    <path d="M231.722,771.515C223.517,774.384 219.184,783.375 222.053,791.58C224.921,799.786 233.912,804.119 242.118,801.25C250.324,798.381 254.657,789.39 251.788,781.185C248.919,772.979 239.928,768.646 231.722,771.515Z" style="fill:rgb(255,133,133);"/>
    <path d="M560.326,796.185C564.639,788.638 574.268,786.012 581.815,790.326C589.362,794.639 591.988,804.268 587.674,811.815C583.361,819.362 573.732,821.988 566.185,817.674C558.638,813.361 556.012,803.732 560.326,796.185Z" style="fill:rgb(255,133,133);"/>
    <path d="M236.92,786.383C291.28,767.378 316.557,662.668 400,729.369C483.443,796.069 547.617,850.162 574,804" style="fill:none;stroke:rgb(255,133,133);stroke-width:6px;"/>
    <path d="M589.6,806.165C590.795,797.555 584.775,789.595 576.165,788.4C567.555,787.205 559.595,793.225 558.4,801.835C557.205,810.445 563.225,818.405 571.835,819.6C580.445,820.795 588.405,814.775 589.6,806.165Z" style="fill:rgb(16,137,137);"/>
    <path d="M569.377,1040.78C562.896,1046.57 552.931,1046.01 547.138,1039.53C541.345,1033.05 541.904,1023.08 548.385,1017.29C554.866,1011.5 564.831,1012.06 570.624,1018.54C576.417,1025.02 575.858,1034.98 569.377,1040.78Z" style="fill:rgb(16,137,137);"/>
    <path d="M574,804C574,804 562.629,885.931 589,912.522C615.371,939.114 590.359,1000.9 558.881,1029.03" style="fill:none;stroke:rgb(16,137,137);stroke-width:6px;"/>
    <path d="M560.647,795.648C556.037,803.018 558.278,812.743 565.648,817.353C573.018,821.963 582.743,819.722 587.353,812.352C591.963,804.982 589.722,795.257 582.352,790.647C574.982,786.037 565.257,788.278 560.647,795.648Z" style="fill:rgb(169,56,255);"/>
    <path d="M412.315,689.571C405.929,683.674 405.532,673.701 411.429,667.315C417.326,660.929 427.299,660.532 433.685,666.429C440.071,672.326 440.468,682.299 434.571,688.685C428.674,695.071 418.701,695.468 412.315,689.571Z" style="fill:rgb(169,56,255);"/>
    <path d="M574,804C574,804 644.795,690.815 558.881,690C472.967,689.185 487.108,737.2 423,678" style="fill:none;stroke:rgb(169,56,255);stroke-width:6px;"/>
</svg>
