<?xml version="1.0" encoding="UTF-8" standalone="no"?>
<!DOCTYPE svg PUBLIC "-//W3C//DTD SVG 1.1//EN" "http://www.w3.org/Graphics/SVG/1.1/DTD/svg11.dtd">
<svg width="100%" height="100%" viewBox="0 0 708 1389" version="1.1" xmlns="http://www.w3.org/2000/svg" xmlns:xlink="http://www.w3.org/1999/xlink" xml:space="preserve" xmlns:serif="http://www.serif.com/" style="fill-rule:evenodd;clip-rule:evenodd;stroke-linejoin:round;stroke-miterlimit:10;">
    <rect id="Spatial-Databases-2" serif:id="Spatial Databases 2" x="-2247.91" y="-2968" width="3858" height="5937" style="fill:none;"/>
    <g transform="matrix(1,0,0,1,-9925.81,293.271)">
        <g transform="matrix(72,0,0,72,10039.8,508.377)">
            <path d="M0.453,-0.293L0.197,-0.293L0.197,-0L0.06,-0L0.06,-0.7L0.197,-0.7L0.197,-0.415L0.453,-0.415L0.453,-0.7L0.59,-0.7L0.59,-0L0.453,-0L0.453,-0.293Z" style="fill-rule:nonzero;"/>
        </g>
        <g transform="matrix(72,0,0,72,10086.7,508.377)">
            <path d="M0.457,-0.043C0.437,-0.027 0.41,-0.014 0.376,-0.003C0.341,0.009 0.305,0.014 0.266,0.014C0.185,0.014 0.126,-0.01 0.089,-0.057C0.052,-0.103 0.033,-0.168 0.033,-0.25C0.033,-0.338 0.054,-0.404 0.096,-0.448C0.138,-0.492 0.197,-0.514 0.273,-0.514C0.298,-0.514 0.323,-0.511 0.347,-0.504C0.371,-0.497 0.392,-0.486 0.411,-0.471C0.43,-0.456 0.445,-0.435 0.456,-0.409C0.467,-0.383 0.473,-0.351 0.473,-0.312C0.473,-0.298 0.472,-0.283 0.471,-0.267C0.469,-0.251 0.466,-0.234 0.463,-0.217L0.163,-0.217C0.165,-0.175 0.176,-0.143 0.196,-0.122C0.215,-0.101 0.247,-0.09 0.291,-0.09C0.318,-0.09 0.343,-0.094 0.365,-0.103C0.386,-0.111 0.403,-0.119 0.414,-0.128L0.457,-0.043ZM0.271,-0.41C0.237,-0.41 0.212,-0.4 0.196,-0.38C0.179,-0.359 0.169,-0.332 0.166,-0.298L0.352,-0.298C0.355,-0.334 0.349,-0.362 0.336,-0.381C0.322,-0.4 0.3,-0.41 0.271,-0.41Z" style="fill-rule:nonzero;"/>
        </g>
        <g transform="matrix(72,0,0,72,10123.3,508.377)">
            <path d="M0.554,0.114L0.459,0.114L0.444,-0L0.108,-0L0.093,0.114L-0.002,0.114L-0.002,-0.115L0.057,-0.115C0.062,-0.122 0.069,-0.135 0.078,-0.153C0.086,-0.17 0.094,-0.194 0.103,-0.225C0.111,-0.256 0.118,-0.294 0.124,-0.339C0.13,-0.384 0.133,-0.438 0.133,-0.5L0.481,-0.5L0.481,-0.115L0.554,-0.115L0.554,0.114ZM0.351,-0.109L0.351,-0.39L0.246,-0.39C0.245,-0.366 0.242,-0.341 0.239,-0.314C0.236,-0.287 0.232,-0.26 0.227,-0.235C0.222,-0.21 0.216,-0.186 0.209,-0.164C0.202,-0.142 0.195,-0.124 0.187,-0.109L0.351,-0.109Z" style="fill-rule:nonzero;"/>
        </g>
        <g transform="matrix(72,0,0,72,10164.2,508.377)">
            <path d="M0.033,-0.25C0.033,-0.335 0.054,-0.4 0.095,-0.446C0.136,-0.491 0.194,-0.514 0.269,-0.514C0.309,-0.514 0.344,-0.508 0.373,-0.495C0.402,-0.482 0.427,-0.464 0.446,-0.442C0.465,-0.419 0.48,-0.391 0.49,-0.358C0.499,-0.325 0.504,-0.289 0.504,-0.25C0.504,-0.165 0.484,-0.1 0.443,-0.055C0.401,-0.009 0.344,0.014 0.269,0.014C0.229,0.014 0.194,0.008 0.165,-0.005C0.136,-0.018 0.111,-0.036 0.092,-0.059C0.072,-0.082 0.057,-0.109 0.048,-0.142C0.038,-0.175 0.033,-0.211 0.033,-0.25ZM0.167,-0.25C0.167,-0.228 0.169,-0.208 0.173,-0.189C0.177,-0.17 0.183,-0.154 0.191,-0.14C0.199,-0.126 0.21,-0.115 0.223,-0.108C0.236,-0.1 0.251,-0.096 0.269,-0.096C0.303,-0.096 0.328,-0.108 0.345,-0.133C0.362,-0.158 0.37,-0.197 0.37,-0.25C0.37,-0.296 0.362,-0.333 0.347,-0.362C0.332,-0.39 0.306,-0.404 0.269,-0.404C0.237,-0.404 0.212,-0.392 0.194,-0.368C0.176,-0.344 0.167,-0.305 0.167,-0.25Z" style="fill-rule:nonzero;"/>
        </g>
        <g transform="matrix(72,0,0,72,10202.9,508.377)">
            <path d="M0.345,-0.385L0.187,-0.385L0.187,-0L0.057,-0L0.057,-0.5L0.475,-0.5L0.475,-0L0.345,-0L0.345,-0.385Z" style="fill-rule:nonzero;"/>
        </g>
        <g transform="matrix(72,0,0,72,10241.2,508.377)">
            <path d="M0.239,-0.219L0.257,-0.141L0.263,-0.141L0.276,-0.22L0.352,-0.5L0.486,-0.5L0.334,-0.049C0.321,-0.012 0.309,0.023 0.298,0.054C0.286,0.085 0.273,0.111 0.259,0.134C0.245,0.157 0.23,0.174 0.213,0.187C0.196,0.199 0.175,0.205 0.152,0.205C0.117,0.205 0.09,0.199 0.069,0.188L0.093,0.084C0.103,0.088 0.113,0.09 0.123,0.09C0.138,0.09 0.153,0.084 0.168,0.071C0.182,0.058 0.193,0.034 0.2,-0L-0.009,-0.5L0.147,-0.5L0.239,-0.219Z" style="fill-rule:nonzero;"/>
        </g>
        <g transform="matrix(72,0,0,72,10275.6,508.377)">
            <path d="M0.411,-0.031C0.391,-0.016 0.367,-0.005 0.339,0.003C0.31,0.01 0.281,0.014 0.251,0.014C0.211,0.014 0.177,0.008 0.15,-0.005C0.122,-0.018 0.099,-0.036 0.082,-0.059C0.065,-0.082 0.052,-0.109 0.045,-0.142C0.037,-0.175 0.033,-0.211 0.033,-0.25C0.033,-0.335 0.052,-0.4 0.09,-0.446C0.128,-0.491 0.183,-0.514 0.256,-0.514C0.293,-0.514 0.322,-0.511 0.345,-0.505C0.367,-0.499 0.387,-0.491 0.405,-0.482L0.374,-0.376C0.359,-0.383 0.343,-0.389 0.329,-0.393C0.314,-0.397 0.296,-0.399 0.277,-0.399C0.241,-0.399 0.214,-0.387 0.195,-0.364C0.176,-0.34 0.167,-0.302 0.167,-0.25C0.167,-0.229 0.169,-0.209 0.174,-0.191C0.179,-0.173 0.186,-0.157 0.195,-0.144C0.204,-0.131 0.217,-0.12 0.232,-0.113C0.247,-0.105 0.264,-0.101 0.284,-0.101C0.306,-0.101 0.325,-0.104 0.34,-0.11C0.355,-0.115 0.369,-0.122 0.381,-0.13L0.411,-0.031Z" style="fill-rule:nonzero;"/>
        </g>
        <g transform="matrix(72,0,0,72,10306.8,508.377)">
            <path d="M0.417,-0.385L0.278,-0.385L0.278,-0L0.144,-0L0.144,-0.385L0.001,-0.385L0.001,-0.5L0.417,-0.5L0.417,-0.385Z" style="fill-rule:nonzero;"/>
        </g>
        <g transform="matrix(72,0,0,72,10336.8,508.377)">
            <path d="M0.358,-0.228L0.363,-0.299L0.36,-0.299L0.317,-0.226L0.139,-0L0.057,-0L0.057,-0.5L0.187,-0.5L0.187,-0.262L0.181,-0.194L0.185,-0.194L0.226,-0.265L0.406,-0.5L0.488,-0.5L0.488,-0L0.358,-0L0.358,-0.228Z" style="fill-rule:nonzero;"/>
        </g>
        <g transform="matrix(72,0,0,72,10376.1,508.377)">
            <path d="M0.485,-0.229L0.493,-0.333L0.488,-0.333L0.448,-0.247L0.354,-0.092L0.307,-0.092L0.204,-0.247L0.166,-0.333L0.16,-0.333L0.173,-0.23L0.173,-0L0.057,-0L0.057,-0.5L0.192,-0.5L0.307,-0.312L0.335,-0.249L0.339,-0.249L0.368,-0.314L0.474,-0.5L0.61,-0.5L0.61,-0L0.485,-0L0.485,-0.229Z" style="fill-rule:nonzero;"/>
        </g>
        <g transform="matrix(72,0,0,72,10424,508.377)">
            <path d="M0.054,-0.471C0.081,-0.483 0.112,-0.493 0.149,-0.5C0.186,-0.507 0.224,-0.51 0.264,-0.51C0.299,-0.51 0.328,-0.506 0.351,-0.498C0.374,-0.489 0.393,-0.477 0.407,-0.462C0.42,-0.447 0.43,-0.428 0.436,-0.407C0.441,-0.386 0.444,-0.362 0.444,-0.335C0.444,-0.306 0.443,-0.276 0.441,-0.247C0.439,-0.217 0.438,-0.188 0.438,-0.159C0.437,-0.13 0.438,-0.102 0.44,-0.076C0.442,-0.049 0.447,-0.023 0.455,0.001L0.349,0.001L0.328,-0.068L0.323,-0.068C0.31,-0.047 0.291,-0.029 0.268,-0.015C0.244,0 0.213,0.008 0.176,0.008C0.153,0.008 0.132,0.005 0.113,-0.003C0.094,-0.01 0.078,-0.02 0.065,-0.033C0.052,-0.046 0.041,-0.061 0.034,-0.079C0.027,-0.096 0.023,-0.116 0.023,-0.138C0.023,-0.169 0.03,-0.195 0.044,-0.216C0.057,-0.237 0.077,-0.254 0.103,-0.267C0.128,-0.28 0.159,-0.289 0.195,-0.294C0.23,-0.299 0.27,-0.3 0.314,-0.298C0.319,-0.335 0.316,-0.362 0.306,-0.379C0.296,-0.395 0.274,-0.403 0.239,-0.403C0.213,-0.403 0.186,-0.4 0.157,-0.395C0.128,-0.39 0.104,-0.383 0.085,-0.374L0.054,-0.471ZM0.219,-0.099C0.245,-0.099 0.266,-0.105 0.281,-0.117C0.296,-0.128 0.308,-0.141 0.315,-0.154L0.315,-0.219C0.294,-0.221 0.275,-0.221 0.256,-0.22C0.237,-0.219 0.22,-0.216 0.205,-0.211C0.19,-0.206 0.179,-0.2 0.17,-0.191C0.161,-0.182 0.157,-0.171 0.157,-0.158C0.157,-0.139 0.163,-0.125 0.174,-0.115C0.185,-0.104 0.2,-0.099 0.219,-0.099Z" style="fill-rule:nonzero;"/>
        </g>
        <g transform="matrix(72,0,0,72,10459.8,508.377)">
            <path d="M0.321,-0.189L0.261,-0.177L0.165,-0L0.01,-0L0.107,-0.157L0.156,-0.194C0.123,-0.199 0.096,-0.215 0.075,-0.241C0.054,-0.266 0.043,-0.298 0.043,-0.337C0.043,-0.398 0.063,-0.442 0.104,-0.471C0.144,-0.5 0.206,-0.514 0.289,-0.514C0.321,-0.514 0.351,-0.512 0.379,-0.509C0.406,-0.506 0.43,-0.502 0.451,-0.498L0.451,-0L0.321,-0L0.321,-0.189ZM0.321,-0.257L0.321,-0.395C0.314,-0.398 0.306,-0.401 0.297,-0.402C0.288,-0.403 0.28,-0.404 0.272,-0.404C0.242,-0.404 0.219,-0.398 0.202,-0.385C0.185,-0.372 0.177,-0.353 0.177,-0.328C0.177,-0.303 0.186,-0.284 0.205,-0.272C0.223,-0.26 0.25,-0.254 0.285,-0.255L0.321,-0.257Z" style="fill-rule:nonzero;"/>
        </g>
        <g transform="matrix(72,0,0,72,9955.64,588.945)">
            <path d="M0.485,-0.229L0.493,-0.333L0.488,-0.333L0.448,-0.247L0.354,-0.092L0.307,-0.092L0.204,-0.247L0.166,-0.333L0.16,-0.333L0.173,-0.23L0.173,-0L0.057,-0L0.057,-0.5L0.192,-0.5L0.307,-0.312L0.335,-0.249L0.339,-0.249L0.368,-0.314L0.474,-0.5L0.61,-0.5L0.61,-0L0.485,-0L0.485,-0.229Z" style="fill-rule:nonzero;"/>
        </g>
        <g transform="matrix(72,0,0,72,10003.6,588.945)">
            <path d="M0.239,-0.219L0.257,-0.141L0.263,-0.141L0.276,-0.22L0.352,-0.5L0.486,-0.5L0.334,-0.049C0.321,-0.012 0.309,0.023 0.298,0.054C0.286,0.085 0.273,0.111 0.259,0.134C0.245,0.157 0.23,0.174 0.213,0.187C0.196,0.199 0.175,0.205 0.152,0.205C0.117,0.205 0.09,0.199 0.069,0.188L0.093,0.084C0.103,0.088 0.113,0.09 0.123,0.09C0.138,0.09 0.153,0.084 0.168,0.071C0.182,0.058 0.193,0.034 0.2,-0L-0.009,-0.5L0.147,-0.5L0.239,-0.219Z" style="fill-rule:nonzero;"/>
        </g>
        <g transform="matrix(72,0,0,72,10038,588.945)">
            <path d="M0.329,-0.385L0.23,-0.385C0.226,-0.338 0.221,-0.291 0.216,-0.244C0.211,-0.197 0.202,-0.156 0.191,-0.119C0.179,-0.082 0.163,-0.051 0.143,-0.029C0.123,-0.006 0.097,0.006 0.065,0.006C0.026,0.006 -0.001,0.001 -0.017,-0.009L-0.001,-0.117C0.01,-0.113 0.02,-0.111 0.029,-0.111C0.042,-0.111 0.054,-0.117 0.064,-0.128C0.074,-0.139 0.083,-0.16 0.09,-0.189C0.096,-0.218 0.102,-0.258 0.107,-0.309C0.111,-0.359 0.114,-0.423 0.116,-0.5L0.459,-0.5L0.459,-0L0.329,-0L0.329,-0.385Z" style="fill-rule:nonzero;"/>
        </g>
        <g transform="matrix(72,0,0,72,10075.1,588.945)">
            <path d="M0.187,-0.109C0.207,-0.105 0.226,-0.103 0.244,-0.103C0.276,-0.103 0.299,-0.109 0.314,-0.12C0.328,-0.131 0.335,-0.148 0.335,-0.171C0.335,-0.214 0.306,-0.236 0.247,-0.236C0.225,-0.236 0.205,-0.234 0.187,-0.229L0.187,-0.109ZM0.187,-0.322C0.203,-0.325 0.219,-0.327 0.236,-0.328C0.252,-0.329 0.267,-0.329 0.28,-0.329C0.315,-0.329 0.344,-0.325 0.368,-0.318C0.392,-0.31 0.412,-0.299 0.427,-0.285C0.442,-0.271 0.452,-0.255 0.459,-0.236C0.466,-0.217 0.469,-0.196 0.469,-0.174C0.469,-0.113 0.451,-0.068 0.415,-0.038C0.379,-0.008 0.318,0.007 0.232,0.007C0.194,0.007 0.161,0.006 0.134,0.005C0.106,0.004 0.08,0.002 0.057,-0L0.057,-0.5L0.187,-0.5L0.187,-0.322Z" style="fill-rule:nonzero;"/>
        </g>
        <g transform="matrix(72,0,0,72,10110.4,588.945)">
            <path d="M0.417,-0.385L0.278,-0.385L0.278,-0L0.144,-0L0.144,-0.385L0.001,-0.385L0.001,-0.5L0.417,-0.5L0.417,-0.385Z" style="fill-rule:nonzero;"/>
        </g>
        <g transform="matrix(72,0,0,72,10140.5,588.945)">
            <path d="M0.358,-0.228L0.363,-0.299L0.36,-0.299L0.317,-0.226L0.139,-0L0.057,-0L0.057,-0.5L0.187,-0.5L0.187,-0.262L0.181,-0.194L0.185,-0.194L0.226,-0.265L0.406,-0.5L0.488,-0.5L0.488,-0L0.358,-0L0.358,-0.228Z" style="fill-rule:nonzero;"/>
        </g>
        <g transform="matrix(72,0,0,72,10179.7,588.945)">
            <path d="M0.345,-0.385L0.187,-0.385L0.187,-0L0.057,-0L0.057,-0.5L0.475,-0.5L0.475,-0L0.345,-0L0.345,-0.385Z" style="fill-rule:nonzero;"/>
        </g>
        <g transform="matrix(72,0,0,72,10218,588.945)">
            <path d="M0.033,-0.25C0.033,-0.335 0.054,-0.4 0.095,-0.446C0.136,-0.491 0.194,-0.514 0.269,-0.514C0.309,-0.514 0.344,-0.508 0.373,-0.495C0.402,-0.482 0.427,-0.464 0.446,-0.442C0.465,-0.419 0.48,-0.391 0.49,-0.358C0.499,-0.325 0.504,-0.289 0.504,-0.25C0.504,-0.165 0.484,-0.1 0.443,-0.055C0.401,-0.009 0.344,0.014 0.269,0.014C0.229,0.014 0.194,0.008 0.165,-0.005C0.136,-0.018 0.111,-0.036 0.092,-0.059C0.072,-0.082 0.057,-0.109 0.048,-0.142C0.038,-0.175 0.033,-0.211 0.033,-0.25ZM0.167,-0.25C0.167,-0.228 0.169,-0.208 0.173,-0.189C0.177,-0.17 0.183,-0.154 0.191,-0.14C0.199,-0.126 0.21,-0.115 0.223,-0.108C0.236,-0.1 0.251,-0.096 0.269,-0.096C0.303,-0.096 0.328,-0.108 0.345,-0.133C0.362,-0.158 0.37,-0.197 0.37,-0.25C0.37,-0.296 0.362,-0.333 0.347,-0.362C0.332,-0.39 0.306,-0.404 0.269,-0.404C0.237,-0.404 0.212,-0.392 0.194,-0.368C0.176,-0.344 0.167,-0.305 0.167,-0.25Z" style="fill-rule:nonzero;"/>
        </g>
        <g transform="matrix(72,0,0,72,10256.7,588.945)">
            <path d="M0.057,-0.499C0.08,-0.501 0.109,-0.503 0.142,-0.505C0.175,-0.507 0.21,-0.508 0.248,-0.508C0.321,-0.508 0.374,-0.498 0.405,-0.477C0.436,-0.456 0.451,-0.424 0.451,-0.382C0.451,-0.359 0.444,-0.336 0.431,-0.314C0.418,-0.292 0.397,-0.276 0.368,-0.266L0.368,-0.262C0.404,-0.254 0.43,-0.24 0.446,-0.22C0.462,-0.199 0.47,-0.173 0.47,-0.141C0.47,-0.091 0.451,-0.054 0.413,-0.029C0.374,-0.004 0.313,0.008 0.228,0.008C0.2,0.008 0.17,0.007 0.139,0.006C0.108,0.004 0.08,0.002 0.057,-0.001L0.057,-0.499ZM0.184,-0.1C0.193,-0.099 0.202,-0.098 0.21,-0.097C0.218,-0.096 0.228,-0.096 0.24,-0.096C0.276,-0.096 0.302,-0.101 0.317,-0.111C0.332,-0.121 0.34,-0.136 0.34,-0.157C0.34,-0.174 0.334,-0.189 0.321,-0.2C0.308,-0.211 0.284,-0.216 0.251,-0.216L0.184,-0.216L0.184,-0.1ZM0.253,-0.296C0.274,-0.296 0.292,-0.301 0.306,-0.312C0.319,-0.322 0.326,-0.335 0.326,-0.351C0.326,-0.368 0.32,-0.382 0.309,-0.391C0.297,-0.4 0.276,-0.404 0.245,-0.404C0.23,-0.404 0.218,-0.404 0.209,-0.403C0.2,-0.402 0.191,-0.402 0.184,-0.401L0.184,-0.296L0.253,-0.296Z" style="fill-rule:nonzero;"/>
        </g>
        <g transform="matrix(72,0,0,72,10293,588.945)">
            <path d="M0.457,-0.043C0.437,-0.027 0.41,-0.014 0.376,-0.003C0.341,0.009 0.305,0.014 0.266,0.014C0.185,0.014 0.126,-0.01 0.089,-0.057C0.052,-0.103 0.033,-0.168 0.033,-0.25C0.033,-0.338 0.054,-0.404 0.096,-0.448C0.138,-0.492 0.197,-0.514 0.273,-0.514C0.298,-0.514 0.323,-0.511 0.347,-0.504C0.371,-0.497 0.392,-0.486 0.411,-0.471C0.43,-0.456 0.445,-0.435 0.456,-0.409C0.467,-0.383 0.473,-0.351 0.473,-0.312C0.473,-0.298 0.472,-0.283 0.471,-0.267C0.469,-0.251 0.466,-0.234 0.463,-0.217L0.163,-0.217C0.165,-0.175 0.176,-0.143 0.196,-0.122C0.215,-0.101 0.247,-0.09 0.291,-0.09C0.318,-0.09 0.343,-0.094 0.365,-0.103C0.386,-0.111 0.403,-0.119 0.414,-0.128L0.457,-0.043ZM0.271,-0.41C0.237,-0.41 0.212,-0.4 0.196,-0.38C0.179,-0.359 0.169,-0.332 0.166,-0.298L0.352,-0.298C0.355,-0.334 0.349,-0.362 0.336,-0.381C0.322,-0.4 0.3,-0.41 0.271,-0.41Z" style="fill-rule:nonzero;"/>
        </g>
        <g transform="matrix(72,0,0,72,10329.6,588.945)">
            <path d="M0.057,-0.5L0.152,-0.5L0.167,-0.44L0.171,-0.44C0.188,-0.465 0.209,-0.484 0.233,-0.496C0.256,-0.508 0.285,-0.514 0.319,-0.514C0.382,-0.514 0.429,-0.494 0.46,-0.455C0.491,-0.415 0.507,-0.351 0.507,-0.263C0.507,-0.22 0.502,-0.182 0.492,-0.148C0.482,-0.113 0.467,-0.084 0.448,-0.06C0.428,-0.036 0.404,-0.018 0.376,-0.005C0.347,0.008 0.315,0.014 0.278,0.014C0.257,0.014 0.24,0.012 0.227,0.01C0.214,0.007 0.2,0.002 0.187,-0.005L0.187,0.2L0.057,0.2L0.057,-0.5ZM0.28,-0.404C0.255,-0.404 0.235,-0.398 0.221,-0.385C0.206,-0.372 0.195,-0.353 0.187,-0.328L0.187,-0.12C0.196,-0.113 0.207,-0.107 0.218,-0.103C0.229,-0.098 0.243,-0.096 0.261,-0.096C0.298,-0.096 0.326,-0.109 0.345,-0.136C0.364,-0.162 0.373,-0.205 0.373,-0.266C0.373,-0.31 0.366,-0.344 0.351,-0.368C0.336,-0.392 0.313,-0.404 0.28,-0.404Z" style="fill-rule:nonzero;"/>
        </g>
        <g transform="matrix(72,0,0,72,10368.5,588.945)">
            <path d="M0.17,-0.256L0.02,-0.5L0.175,-0.5L0.24,-0.393L0.268,-0.323L0.298,-0.393L0.366,-0.5L0.507,-0.5L0.356,-0.26L0.517,-0L0.366,-0L0.289,-0.12L0.259,-0.194L0.227,-0.12L0.15,-0L0.008,-0L0.17,-0.256Z" style="fill-rule:nonzero;"/>
        </g>
        <g transform="matrix(72,0,0,72,10406.3,588.945)">
            <path d="M0.35,-0.196L0.187,-0.196L0.187,-0L0.057,-0L0.057,-0.5L0.187,-0.5L0.187,-0.312L0.35,-0.312L0.35,-0.5L0.48,-0.5L0.48,-0L0.35,-0L0.35,-0.196Z" style="fill-rule:nonzero;"/>
        </g>
        <g transform="matrix(72,0,0,72,10445,588.945)">
            <path d="M0.033,-0.25C0.033,-0.335 0.054,-0.4 0.095,-0.446C0.136,-0.491 0.194,-0.514 0.269,-0.514C0.309,-0.514 0.344,-0.508 0.373,-0.495C0.402,-0.482 0.427,-0.464 0.446,-0.442C0.465,-0.419 0.48,-0.391 0.49,-0.358C0.499,-0.325 0.504,-0.289 0.504,-0.25C0.504,-0.165 0.484,-0.1 0.443,-0.055C0.401,-0.009 0.344,0.014 0.269,0.014C0.229,0.014 0.194,0.008 0.165,-0.005C0.136,-0.018 0.111,-0.036 0.092,-0.059C0.072,-0.082 0.057,-0.109 0.048,-0.142C0.038,-0.175 0.033,-0.211 0.033,-0.25ZM0.167,-0.25C0.167,-0.228 0.169,-0.208 0.173,-0.189C0.177,-0.17 0.183,-0.154 0.191,-0.14C0.199,-0.126 0.21,-0.115 0.223,-0.108C0.236,-0.1 0.251,-0.096 0.269,-0.096C0.303,-0.096 0.328,-0.108 0.345,-0.133C0.362,-0.158 0.37,-0.197 0.37,-0.25C0.37,-0.296 0.362,-0.333 0.347,-0.362C0.332,-0.39 0.306,-0.404 0.269,-0.404C0.237,-0.404 0.212,-0.392 0.194,-0.368C0.176,-0.344 0.167,-0.305 0.167,-0.25Z" style="fill-rule:nonzero;"/>
        </g>
        <g transform="matrix(72,0,0,72,10483.6,588.945)">
            <path d="M0.411,-0.031C0.391,-0.016 0.367,-0.005 0.339,0.003C0.31,0.01 0.281,0.014 0.251,0.014C0.211,0.014 0.177,0.008 0.15,-0.005C0.122,-0.018 0.099,-0.036 0.082,-0.059C0.065,-0.082 0.052,-0.109 0.045,-0.142C0.037,-0.175 0.033,-0.211 0.033,-0.25C0.033,-0.335 0.052,-0.4 0.09,-0.446C0.128,-0.491 0.183,-0.514 0.256,-0.514C0.293,-0.514 0.322,-0.511 0.345,-0.505C0.367,-0.499 0.387,-0.491 0.405,-0.482L0.374,-0.376C0.359,-0.383 0.343,-0.389 0.329,-0.393C0.314,-0.397 0.296,-0.399 0.277,-0.399C0.241,-0.399 0.214,-0.387 0.195,-0.364C0.176,-0.34 0.167,-0.302 0.167,-0.25C0.167,-0.229 0.169,-0.209 0.174,-0.191C0.179,-0.173 0.186,-0.157 0.195,-0.144C0.204,-0.131 0.217,-0.12 0.232,-0.113C0.247,-0.105 0.264,-0.101 0.284,-0.101C0.306,-0.101 0.325,-0.104 0.34,-0.11C0.355,-0.115 0.369,-0.122 0.381,-0.13L0.411,-0.031Z" style="fill-rule:nonzero;"/>
        </g>
        <g transform="matrix(72,0,0,72,10514.8,588.945)">
            <path d="M0.417,-0.385L0.278,-0.385L0.278,-0L0.144,-0L0.144,-0.385L0.001,-0.385L0.001,-0.5L0.417,-0.5L0.417,-0.385Z" style="fill-rule:nonzero;"/>
        </g>
        <g transform="matrix(72,0,0,72,10544.9,588.945)">
            <path d="M0.187,-0.109C0.207,-0.105 0.226,-0.103 0.244,-0.103C0.276,-0.103 0.299,-0.109 0.314,-0.12C0.328,-0.131 0.335,-0.148 0.335,-0.171C0.335,-0.214 0.306,-0.236 0.247,-0.236C0.225,-0.236 0.205,-0.234 0.187,-0.229L0.187,-0.109ZM0.187,-0.322C0.203,-0.325 0.219,-0.327 0.236,-0.328C0.252,-0.329 0.267,-0.329 0.28,-0.329C0.315,-0.329 0.344,-0.325 0.368,-0.318C0.392,-0.31 0.412,-0.299 0.427,-0.285C0.442,-0.271 0.452,-0.255 0.459,-0.236C0.466,-0.217 0.469,-0.196 0.469,-0.174C0.469,-0.113 0.451,-0.068 0.415,-0.038C0.379,-0.008 0.318,0.007 0.232,0.007C0.194,0.007 0.161,0.006 0.134,0.005C0.106,0.004 0.08,0.002 0.057,-0L0.057,-0.5L0.187,-0.5L0.187,-0.322Z" style="fill-rule:nonzero;"/>
        </g>
    </g>
    <g transform="matrix(1,0,0,1,-9925.81,-435.477)">
        <g transform="matrix(72,0,0,72,10077.1,508.377)">
            <path d="M0.674,0.125L0.577,0.125L0.562,-0L0.112,-0L0.097,0.125L0,0.125L0,-0.122L0.074,-0.122C0.079,-0.129 0.086,-0.146 0.097,-0.171C0.108,-0.196 0.118,-0.232 0.129,-0.279C0.14,-0.325 0.149,-0.383 0.156,-0.453C0.163,-0.522 0.167,-0.605 0.166,-0.7L0.585,-0.7L0.585,-0.122L0.674,-0.122L0.674,0.125ZM0.448,-0.122L0.448,-0.578L0.293,-0.578C0.289,-0.459 0.28,-0.362 0.265,-0.287C0.249,-0.211 0.234,-0.156 0.219,-0.122L0.448,-0.122Z" style="fill-rule:nonzero;"/>
        </g>
        <g transform="matrix(72,0,0,72,10126.9,508.377)">
            <path d="M0.033,-0.25C0.033,-0.335 0.054,-0.4 0.095,-0.446C0.136,-0.491 0.194,-0.514 0.269,-0.514C0.309,-0.514 0.344,-0.508 0.373,-0.495C0.402,-0.482 0.427,-0.464 0.446,-0.442C0.465,-0.419 0.48,-0.391 0.49,-0.358C0.499,-0.325 0.504,-0.289 0.504,-0.25C0.504,-0.165 0.484,-0.1 0.443,-0.055C0.401,-0.009 0.344,0.014 0.269,0.014C0.229,0.014 0.194,0.008 0.165,-0.005C0.136,-0.018 0.111,-0.036 0.092,-0.059C0.072,-0.082 0.057,-0.109 0.048,-0.142C0.038,-0.175 0.033,-0.211 0.033,-0.25ZM0.167,-0.25C0.167,-0.228 0.169,-0.208 0.173,-0.189C0.177,-0.17 0.183,-0.154 0.191,-0.14C0.199,-0.126 0.21,-0.115 0.223,-0.108C0.236,-0.1 0.251,-0.096 0.269,-0.096C0.303,-0.096 0.328,-0.108 0.345,-0.133C0.362,-0.158 0.37,-0.197 0.37,-0.25C0.37,-0.296 0.362,-0.333 0.347,-0.362C0.332,-0.39 0.306,-0.404 0.269,-0.404C0.237,-0.404 0.212,-0.392 0.194,-0.368C0.176,-0.344 0.167,-0.305 0.167,-0.25Z" style="fill-rule:nonzero;"/>
        </g>
        <g transform="matrix(72,0,0,72,10165.6,508.377)">
            <path d="M0.345,-0.385L0.187,-0.385L0.187,-0L0.057,-0L0.057,-0.5L0.475,-0.5L0.475,-0L0.345,-0L0.345,-0.385Z" style="fill-rule:nonzero;"/>
        </g>
        <g transform="matrix(72,0,0,72,10203.9,508.377)">
            <path d="M0.239,-0.219L0.257,-0.141L0.263,-0.141L0.276,-0.22L0.352,-0.5L0.486,-0.5L0.334,-0.049C0.321,-0.012 0.309,0.023 0.298,0.054C0.286,0.085 0.273,0.111 0.259,0.134C0.245,0.157 0.23,0.174 0.213,0.187C0.196,0.199 0.175,0.205 0.152,0.205C0.117,0.205 0.09,0.199 0.069,0.188L0.093,0.084C0.103,0.088 0.113,0.09 0.123,0.09C0.138,0.09 0.153,0.084 0.168,0.071C0.182,0.058 0.193,0.034 0.2,-0L-0.009,-0.5L0.147,-0.5L0.239,-0.219Z" style="fill-rule:nonzero;"/>
        </g>
        <g transform="matrix(72,0,0,72,10238.3,508.377)">
            <path d="M0.411,-0.031C0.391,-0.016 0.367,-0.005 0.339,0.003C0.31,0.01 0.281,0.014 0.251,0.014C0.211,0.014 0.177,0.008 0.15,-0.005C0.122,-0.018 0.099,-0.036 0.082,-0.059C0.065,-0.082 0.052,-0.109 0.045,-0.142C0.037,-0.175 0.033,-0.211 0.033,-0.25C0.033,-0.335 0.052,-0.4 0.09,-0.446C0.128,-0.491 0.183,-0.514 0.256,-0.514C0.293,-0.514 0.322,-0.511 0.345,-0.505C0.367,-0.499 0.387,-0.491 0.405,-0.482L0.374,-0.376C0.359,-0.383 0.343,-0.389 0.329,-0.393C0.314,-0.397 0.296,-0.399 0.277,-0.399C0.241,-0.399 0.214,-0.387 0.195,-0.364C0.176,-0.34 0.167,-0.302 0.167,-0.25C0.167,-0.229 0.169,-0.209 0.174,-0.191C0.179,-0.173 0.186,-0.157 0.195,-0.144C0.204,-0.131 0.217,-0.12 0.232,-0.113C0.247,-0.105 0.264,-0.101 0.284,-0.101C0.306,-0.101 0.325,-0.104 0.34,-0.11C0.355,-0.115 0.369,-0.122 0.381,-0.13L0.411,-0.031Z" style="fill-rule:nonzero;"/>
        </g>
        <g transform="matrix(72,0,0,72,10269.5,508.377)">
            <path d="M0.417,-0.385L0.278,-0.385L0.278,-0L0.144,-0L0.144,-0.385L0.001,-0.385L0.001,-0.5L0.417,-0.5L0.417,-0.385Z" style="fill-rule:nonzero;"/>
        </g>
        <g transform="matrix(72,0,0,72,10299.6,508.377)">
            <path d="M0.358,-0.228L0.363,-0.299L0.36,-0.299L0.317,-0.226L0.139,-0L0.057,-0L0.057,-0.5L0.187,-0.5L0.187,-0.262L0.181,-0.194L0.185,-0.194L0.226,-0.265L0.406,-0.5L0.488,-0.5L0.488,-0L0.358,-0L0.358,-0.228Z" style="fill-rule:nonzero;"/>
        </g>
        <g transform="matrix(72,0,0,72,10338.8,508.377)">
            <path d="M0.485,-0.229L0.493,-0.333L0.488,-0.333L0.448,-0.247L0.354,-0.092L0.307,-0.092L0.204,-0.247L0.166,-0.333L0.16,-0.333L0.173,-0.23L0.173,-0L0.057,-0L0.057,-0.5L0.192,-0.5L0.307,-0.312L0.335,-0.249L0.339,-0.249L0.368,-0.314L0.474,-0.5L0.61,-0.5L0.61,-0L0.485,-0L0.485,-0.229Z" style="fill-rule:nonzero;"/>
        </g>
        <g transform="matrix(72,0,0,72,10386.7,508.377)">
            <path d="M0.054,-0.471C0.081,-0.483 0.112,-0.493 0.149,-0.5C0.186,-0.507 0.224,-0.51 0.264,-0.51C0.299,-0.51 0.328,-0.506 0.351,-0.498C0.374,-0.489 0.393,-0.477 0.407,-0.462C0.42,-0.447 0.43,-0.428 0.436,-0.407C0.441,-0.386 0.444,-0.362 0.444,-0.335C0.444,-0.306 0.443,-0.276 0.441,-0.247C0.439,-0.217 0.438,-0.188 0.438,-0.159C0.437,-0.13 0.438,-0.102 0.44,-0.076C0.442,-0.049 0.447,-0.023 0.455,0.001L0.349,0.001L0.328,-0.068L0.323,-0.068C0.31,-0.047 0.291,-0.029 0.268,-0.015C0.244,0 0.213,0.008 0.176,0.008C0.153,0.008 0.132,0.005 0.113,-0.003C0.094,-0.01 0.078,-0.02 0.065,-0.033C0.052,-0.046 0.041,-0.061 0.034,-0.079C0.027,-0.096 0.023,-0.116 0.023,-0.138C0.023,-0.169 0.03,-0.195 0.044,-0.216C0.057,-0.237 0.077,-0.254 0.103,-0.267C0.128,-0.28 0.159,-0.289 0.195,-0.294C0.23,-0.299 0.27,-0.3 0.314,-0.298C0.319,-0.335 0.316,-0.362 0.306,-0.379C0.296,-0.395 0.274,-0.403 0.239,-0.403C0.213,-0.403 0.186,-0.4 0.157,-0.395C0.128,-0.39 0.104,-0.383 0.085,-0.374L0.054,-0.471ZM0.219,-0.099C0.245,-0.099 0.266,-0.105 0.281,-0.117C0.296,-0.128 0.308,-0.141 0.315,-0.154L0.315,-0.219C0.294,-0.221 0.275,-0.221 0.256,-0.22C0.237,-0.219 0.22,-0.216 0.205,-0.211C0.19,-0.206 0.179,-0.2 0.17,-0.191C0.161,-0.182 0.157,-0.171 0.157,-0.158C0.157,-0.139 0.163,-0.125 0.174,-0.115C0.185,-0.104 0.2,-0.099 0.219,-0.099Z" style="fill-rule:nonzero;"/>
        </g>
        <g transform="matrix(72,0,0,72,10422.5,508.377)">
            <path d="M0.321,-0.189L0.261,-0.177L0.165,-0L0.01,-0L0.107,-0.157L0.156,-0.194C0.123,-0.199 0.096,-0.215 0.075,-0.241C0.054,-0.266 0.043,-0.298 0.043,-0.337C0.043,-0.398 0.063,-0.442 0.104,-0.471C0.144,-0.5 0.206,-0.514 0.289,-0.514C0.321,-0.514 0.351,-0.512 0.379,-0.509C0.406,-0.506 0.43,-0.502 0.451,-0.498L0.451,-0L0.321,-0L0.321,-0.189ZM0.321,-0.257L0.321,-0.395C0.314,-0.398 0.306,-0.401 0.297,-0.402C0.288,-0.403 0.28,-0.404 0.272,-0.404C0.242,-0.404 0.219,-0.398 0.202,-0.385C0.185,-0.372 0.177,-0.353 0.177,-0.328C0.177,-0.303 0.186,-0.284 0.205,-0.272C0.223,-0.26 0.25,-0.254 0.285,-0.255L0.321,-0.257Z" style="fill-rule:nonzero;"/>
        </g>
        <g transform="matrix(72,0,0,72,9955.64,588.945)">
            <path d="M0.485,-0.229L0.493,-0.333L0.488,-0.333L0.448,-0.247L0.354,-0.092L0.307,-0.092L0.204,-0.247L0.166,-0.333L0.16,-0.333L0.173,-0.23L0.173,-0L0.057,-0L0.057,-0.5L0.192,-0.5L0.307,-0.312L0.335,-0.249L0.339,-0.249L0.368,-0.314L0.474,-0.5L0.61,-0.5L0.61,-0L0.485,-0L0.485,-0.229Z" style="fill-rule:nonzero;"/>
        </g>
        <g transform="matrix(72,0,0,72,10003.6,588.945)">
            <path d="M0.239,-0.219L0.257,-0.141L0.263,-0.141L0.276,-0.22L0.352,-0.5L0.486,-0.5L0.334,-0.049C0.321,-0.012 0.309,0.023 0.298,0.054C0.286,0.085 0.273,0.111 0.259,0.134C0.245,0.157 0.23,0.174 0.213,0.187C0.196,0.199 0.175,0.205 0.152,0.205C0.117,0.205 0.09,0.199 0.069,0.188L0.093,0.084C0.103,0.088 0.113,0.09 0.123,0.09C0.138,0.09 0.153,0.084 0.168,0.071C0.182,0.058 0.193,0.034 0.2,-0L-0.009,-0.5L0.147,-0.5L0.239,-0.219Z" style="fill-rule:nonzero;"/>
        </g>
        <g transform="matrix(72,0,0,72,10038,588.945)">
            <path d="M0.329,-0.385L0.23,-0.385C0.226,-0.338 0.221,-0.291 0.216,-0.244C0.211,-0.197 0.202,-0.156 0.191,-0.119C0.179,-0.082 0.163,-0.051 0.143,-0.029C0.123,-0.006 0.097,0.006 0.065,0.006C0.026,0.006 -0.001,0.001 -0.017,-0.009L-0.001,-0.117C0.01,-0.113 0.02,-0.111 0.029,-0.111C0.042,-0.111 0.054,-0.117 0.064,-0.128C0.074,-0.139 0.083,-0.16 0.09,-0.189C0.096,-0.218 0.102,-0.258 0.107,-0.309C0.111,-0.359 0.114,-0.423 0.116,-0.5L0.459,-0.5L0.459,-0L0.329,-0L0.329,-0.385Z" style="fill-rule:nonzero;"/>
        </g>
        <g transform="matrix(72,0,0,72,10075.1,588.945)">
            <path d="M0.187,-0.109C0.207,-0.105 0.226,-0.103 0.244,-0.103C0.276,-0.103 0.299,-0.109 0.314,-0.12C0.328,-0.131 0.335,-0.148 0.335,-0.171C0.335,-0.214 0.306,-0.236 0.247,-0.236C0.225,-0.236 0.205,-0.234 0.187,-0.229L0.187,-0.109ZM0.187,-0.322C0.203,-0.325 0.219,-0.327 0.236,-0.328C0.252,-0.329 0.267,-0.329 0.28,-0.329C0.315,-0.329 0.344,-0.325 0.368,-0.318C0.392,-0.31 0.412,-0.299 0.427,-0.285C0.442,-0.271 0.452,-0.255 0.459,-0.236C0.466,-0.217 0.469,-0.196 0.469,-0.174C0.469,-0.113 0.451,-0.068 0.415,-0.038C0.379,-0.008 0.318,0.007 0.232,0.007C0.194,0.007 0.161,0.006 0.134,0.005C0.106,0.004 0.08,0.002 0.057,-0L0.057,-0.5L0.187,-0.5L0.187,-0.322Z" style="fill-rule:nonzero;"/>
        </g>
        <g transform="matrix(72,0,0,72,10110.4,588.945)">
            <path d="M0.417,-0.385L0.278,-0.385L0.278,-0L0.144,-0L0.144,-0.385L0.001,-0.385L0.001,-0.5L0.417,-0.5L0.417,-0.385Z" style="fill-rule:nonzero;"/>
        </g>
        <g transform="matrix(72,0,0,72,10140.5,588.945)">
            <path d="M0.358,-0.228L0.363,-0.299L0.36,-0.299L0.317,-0.226L0.139,-0L0.057,-0L0.057,-0.5L0.187,-0.5L0.187,-0.262L0.181,-0.194L0.185,-0.194L0.226,-0.265L0.406,-0.5L0.488,-0.5L0.488,-0L0.358,-0L0.358,-0.228Z" style="fill-rule:nonzero;"/>
        </g>
        <g transform="matrix(72,0,0,72,10179.7,588.945)">
            <path d="M0.345,-0.385L0.187,-0.385L0.187,-0L0.057,-0L0.057,-0.5L0.475,-0.5L0.475,-0L0.345,-0L0.345,-0.385Z" style="fill-rule:nonzero;"/>
        </g>
        <g transform="matrix(72,0,0,72,10218,588.945)">
            <path d="M0.033,-0.25C0.033,-0.335 0.054,-0.4 0.095,-0.446C0.136,-0.491 0.194,-0.514 0.269,-0.514C0.309,-0.514 0.344,-0.508 0.373,-0.495C0.402,-0.482 0.427,-0.464 0.446,-0.442C0.465,-0.419 0.48,-0.391 0.49,-0.358C0.499,-0.325 0.504,-0.289 0.504,-0.25C0.504,-0.165 0.484,-0.1 0.443,-0.055C0.401,-0.009 0.344,0.014 0.269,0.014C0.229,0.014 0.194,0.008 0.165,-0.005C0.136,-0.018 0.111,-0.036 0.092,-0.059C0.072,-0.082 0.057,-0.109 0.048,-0.142C0.038,-0.175 0.033,-0.211 0.033,-0.25ZM0.167,-0.25C0.167,-0.228 0.169,-0.208 0.173,-0.189C0.177,-0.17 0.183,-0.154 0.191,-0.14C0.199,-0.126 0.21,-0.115 0.223,-0.108C0.236,-0.1 0.251,-0.096 0.269,-0.096C0.303,-0.096 0.328,-0.108 0.345,-0.133C0.362,-0.158 0.37,-0.197 0.37,-0.25C0.37,-0.296 0.362,-0.333 0.347,-0.362C0.332,-0.39 0.306,-0.404 0.269,-0.404C0.237,-0.404 0.212,-0.392 0.194,-0.368C0.176,-0.344 0.167,-0.305 0.167,-0.25Z" style="fill-rule:nonzero;"/>
        </g>
        <g transform="matrix(72,0,0,72,10256.7,588.945)">
            <path d="M0.057,-0.499C0.08,-0.501 0.109,-0.503 0.142,-0.505C0.175,-0.507 0.21,-0.508 0.248,-0.508C0.321,-0.508 0.374,-0.498 0.405,-0.477C0.436,-0.456 0.451,-0.424 0.451,-0.382C0.451,-0.359 0.444,-0.336 0.431,-0.314C0.418,-0.292 0.397,-0.276 0.368,-0.266L0.368,-0.262C0.404,-0.254 0.43,-0.24 0.446,-0.22C0.462,-0.199 0.47,-0.173 0.47,-0.141C0.47,-0.091 0.451,-0.054 0.413,-0.029C0.374,-0.004 0.313,0.008 0.228,0.008C0.2,0.008 0.17,0.007 0.139,0.006C0.108,0.004 0.08,0.002 0.057,-0.001L0.057,-0.499ZM0.184,-0.1C0.193,-0.099 0.202,-0.098 0.21,-0.097C0.218,-0.096 0.228,-0.096 0.24,-0.096C0.276,-0.096 0.302,-0.101 0.317,-0.111C0.332,-0.121 0.34,-0.136 0.34,-0.157C0.34,-0.174 0.334,-0.189 0.321,-0.2C0.308,-0.211 0.284,-0.216 0.251,-0.216L0.184,-0.216L0.184,-0.1ZM0.253,-0.296C0.274,-0.296 0.292,-0.301 0.306,-0.312C0.319,-0.322 0.326,-0.335 0.326,-0.351C0.326,-0.368 0.32,-0.382 0.309,-0.391C0.297,-0.4 0.276,-0.404 0.245,-0.404C0.23,-0.404 0.218,-0.404 0.209,-0.403C0.2,-0.402 0.191,-0.402 0.184,-0.401L0.184,-0.296L0.253,-0.296Z" style="fill-rule:nonzero;"/>
        </g>
        <g transform="matrix(72,0,0,72,10293,588.945)">
            <path d="M0.457,-0.043C0.437,-0.027 0.41,-0.014 0.376,-0.003C0.341,0.009 0.305,0.014 0.266,0.014C0.185,0.014 0.126,-0.01 0.089,-0.057C0.052,-0.103 0.033,-0.168 0.033,-0.25C0.033,-0.338 0.054,-0.404 0.096,-0.448C0.138,-0.492 0.197,-0.514 0.273,-0.514C0.298,-0.514 0.323,-0.511 0.347,-0.504C0.371,-0.497 0.392,-0.486 0.411,-0.471C0.43,-0.456 0.445,-0.435 0.456,-0.409C0.467,-0.383 0.473,-0.351 0.473,-0.312C0.473,-0.298 0.472,-0.283 0.471,-0.267C0.469,-0.251 0.466,-0.234 0.463,-0.217L0.163,-0.217C0.165,-0.175 0.176,-0.143 0.196,-0.122C0.215,-0.101 0.247,-0.09 0.291,-0.09C0.318,-0.09 0.343,-0.094 0.365,-0.103C0.386,-0.111 0.403,-0.119 0.414,-0.128L0.457,-0.043ZM0.271,-0.41C0.237,-0.41 0.212,-0.4 0.196,-0.38C0.179,-0.359 0.169,-0.332 0.166,-0.298L0.352,-0.298C0.355,-0.334 0.349,-0.362 0.336,-0.381C0.322,-0.4 0.3,-0.41 0.271,-0.41Z" style="fill-rule:nonzero;"/>
        </g>
        <g transform="matrix(72,0,0,72,10329.6,588.945)">
            <path d="M0.057,-0.5L0.152,-0.5L0.167,-0.44L0.171,-0.44C0.188,-0.465 0.209,-0.484 0.233,-0.496C0.256,-0.508 0.285,-0.514 0.319,-0.514C0.382,-0.514 0.429,-0.494 0.46,-0.455C0.491,-0.415 0.507,-0.351 0.507,-0.263C0.507,-0.22 0.502,-0.182 0.492,-0.148C0.482,-0.113 0.467,-0.084 0.448,-0.06C0.428,-0.036 0.404,-0.018 0.376,-0.005C0.347,0.008 0.315,0.014 0.278,0.014C0.257,0.014 0.24,0.012 0.227,0.01C0.214,0.007 0.2,0.002 0.187,-0.005L0.187,0.2L0.057,0.2L0.057,-0.5ZM0.28,-0.404C0.255,-0.404 0.235,-0.398 0.221,-0.385C0.206,-0.372 0.195,-0.353 0.187,-0.328L0.187,-0.12C0.196,-0.113 0.207,-0.107 0.218,-0.103C0.229,-0.098 0.243,-0.096 0.261,-0.096C0.298,-0.096 0.326,-0.109 0.345,-0.136C0.364,-0.162 0.373,-0.205 0.373,-0.266C0.373,-0.31 0.366,-0.344 0.351,-0.368C0.336,-0.392 0.313,-0.404 0.28,-0.404Z" style="fill-rule:nonzero;"/>
        </g>
        <g transform="matrix(72,0,0,72,10368.5,588.945)">
            <path d="M0.17,-0.256L0.02,-0.5L0.175,-0.5L0.24,-0.393L0.268,-0.323L0.298,-0.393L0.366,-0.5L0.507,-0.5L0.356,-0.26L0.517,-0L0.366,-0L0.289,-0.12L0.259,-0.194L0.227,-0.12L0.15,-0L0.008,-0L0.17,-0.256Z" style="fill-rule:nonzero;"/>
        </g>
        <g transform="matrix(72,0,0,72,10406.3,588.945)">
            <path d="M0.35,-0.196L0.187,-0.196L0.187,-0L0.057,-0L0.057,-0.5L0.187,-0.5L0.187,-0.312L0.35,-0.312L0.35,-0.5L0.48,-0.5L0.48,-0L0.35,-0L0.35,-0.196Z" style="fill-rule:nonzero;"/>
        </g>
        <g transform="matrix(72,0,0,72,10445,588.945)">
            <path d="M0.033,-0.25C0.033,-0.335 0.054,-0.4 0.095,-0.446C0.136,-0.491 0.194,-0.514 0.269,-0.514C0.309,-0.514 0.344,-0.508 0.373,-0.495C0.402,-0.482 0.427,-0.464 0.446,-0.442C0.465,-0.419 0.48,-0.391 0.49,-0.358C0.499,-0.325 0.504,-0.289 0.504,-0.25C0.504,-0.165 0.484,-0.1 0.443,-0.055C0.401,-0.009 0.344,0.014 0.269,0.014C0.229,0.014 0.194,0.008 0.165,-0.005C0.136,-0.018 0.111,-0.036 0.092,-0.059C0.072,-0.082 0.057,-0.109 0.048,-0.142C0.038,-0.175 0.033,-0.211 0.033,-0.25ZM0.167,-0.25C0.167,-0.228 0.169,-0.208 0.173,-0.189C0.177,-0.17 0.183,-0.154 0.191,-0.14C0.199,-0.126 0.21,-0.115 0.223,-0.108C0.236,-0.1 0.251,-0.096 0.269,-0.096C0.303,-0.096 0.328,-0.108 0.345,-0.133C0.362,-0.158 0.37,-0.197 0.37,-0.25C0.37,-0.296 0.362,-0.333 0.347,-0.362C0.332,-0.39 0.306,-0.404 0.269,-0.404C0.237,-0.404 0.212,-0.392 0.194,-0.368C0.176,-0.344 0.167,-0.305 0.167,-0.25Z" style="fill-rule:nonzero;"/>
        </g>
        <g transform="matrix(72,0,0,72,10483.6,588.945)">
            <path d="M0.411,-0.031C0.391,-0.016 0.367,-0.005 0.339,0.003C0.31,0.01 0.281,0.014 0.251,0.014C0.211,0.014 0.177,0.008 0.15,-0.005C0.122,-0.018 0.099,-0.036 0.082,-0.059C0.065,-0.082 0.052,-0.109 0.045,-0.142C0.037,-0.175 0.033,-0.211 0.033,-0.25C0.033,-0.335 0.052,-0.4 0.09,-0.446C0.128,-0.491 0.183,-0.514 0.256,-0.514C0.293,-0.514 0.322,-0.511 0.345,-0.505C0.367,-0.499 0.387,-0.491 0.405,-0.482L0.374,-0.376C0.359,-0.383 0.343,-0.389 0.329,-0.393C0.314,-0.397 0.296,-0.399 0.277,-0.399C0.241,-0.399 0.214,-0.387 0.195,-0.364C0.176,-0.34 0.167,-0.302 0.167,-0.25C0.167,-0.229 0.169,-0.209 0.174,-0.191C0.179,-0.173 0.186,-0.157 0.195,-0.144C0.204,-0.131 0.217,-0.12 0.232,-0.113C0.247,-0.105 0.264,-0.101 0.284,-0.101C0.306,-0.101 0.325,-0.104 0.34,-0.11C0.355,-0.115 0.369,-0.122 0.381,-0.13L0.411,-0.031Z" style="fill-rule:nonzero;"/>
        </g>
        <g transform="matrix(72,0,0,72,10514.8,588.945)">
            <path d="M0.417,-0.385L0.278,-0.385L0.278,-0L0.144,-0L0.144,-0.385L0.001,-0.385L0.001,-0.5L0.417,-0.5L0.417,-0.385Z" style="fill-rule:nonzero;"/>
        </g>
        <g transform="matrix(72,0,0,72,10544.9,588.945)">
            <path d="M0.187,-0.109C0.207,-0.105 0.226,-0.103 0.244,-0.103C0.276,-0.103 0.299,-0.109 0.314,-0.12C0.328,-0.131 0.335,-0.148 0.335,-0.171C0.335,-0.214 0.306,-0.236 0.247,-0.236C0.225,-0.236 0.205,-0.234 0.187,-0.229L0.187,-0.109ZM0.187,-0.322C0.203,-0.325 0.219,-0.327 0.236,-0.328C0.252,-0.329 0.267,-0.329 0.28,-0.329C0.315,-0.329 0.344,-0.325 0.368,-0.318C0.392,-0.31 0.412,-0.299 0.427,-0.285C0.442,-0.271 0.452,-0.255 0.459,-0.236C0.466,-0.217 0.469,-0.196 0.469,-0.174C0.469,-0.113 0.451,-0.068 0.415,-0.038C0.379,-0.008 0.318,0.007 0.232,0.007C0.194,0.007 0.161,0.006 0.134,0.005C0.106,0.004 0.08,0.002 0.057,-0L0.057,-0.5L0.187,-0.5L0.187,-0.322Z" style="fill-rule:nonzero;"/>
        </g>
    </g>
    <path d="M26.977,1033.06L168.022,951.711L318.022,1087.05L213.022,1197.71L55.022,1183.71L26.977,1033.06Z" style="fill:rgb(255,235,51);stroke:black;stroke-width:8px;"/>
    <path d="M318.022,1087.05L168.022,951.711L387.805,908.711L467.022,1020.71L318.022,1087.05Z" style="fill:rgb(251,133,255);stroke:black;stroke-width:8px;"/>
    <path d="M289.977,376.306L139.977,240.963L359.759,197.963L438.977,309.963L289.977,376.306Z" style="fill:rgb(251,133,255);stroke:black;stroke-width:8px;"/>
    <path d="M318.022,1087.05L441.022,1254.71L686.022,1201.21L467.022,1020.71L318.022,1087.05Z" style="fill:rgb(45,231,231);stroke:black;stroke-width:8px;"/>
    <path d="M318.022,1087.05L441.022,1254.71L271.022,1335.71L213.022,1197.71L318.022,1087.05Z" style="fill:rgb(45,231,231);stroke:black;stroke-width:8px;"/>
    <path d="M55.022,1183.71L141.5,1301.21L271.022,1335.71L213.022,1197.71L55.022,1183.71Z" style="fill:rgb(150,255,21);stroke:black;stroke-width:8px;"/>
    <path d="M26.977,472.963L113.454,590.463L242.977,624.963L289.477,375.855L26.977,472.963Z" style="fill:rgb(150,255,21);stroke:black;stroke-width:8px;"/>
    <path d="M686.022,1201.21L441.022,1254.71L271.022,1335.71L503.022,1370.71L649.022,1311.71L686.022,1201.21Z" style="fill:rgb(45,231,231);stroke:black;stroke-width:8px;"/>
    <path d="M657.977,490.463L412.977,543.963L242.977,624.963L474.977,659.963L620.977,600.963L657.977,490.463Z" style="fill:rgb(45,231,231);stroke:black;stroke-width:8px;"/>
    <path d="M55.022,1183.71L171.022,952.34" style="fill:none;stroke:black;stroke-width:8px;"/>
    <path d="M213.022,1197.71L171.022,954.418" style="fill:none;stroke:black;stroke-width:8px;"/>
    <path d="M318.022,1087.05L387.805,908.711" style="fill:none;stroke:black;stroke-width:8px;"/>
    <path d="M289.977,376.306L359.759,197.963" style="fill:none;stroke:black;stroke-width:8px;"/>
    <path d="M441.022,1254.71L503.022,1370.71" style="fill:none;stroke:black;stroke-width:8px;"/>
    <path d="M412.977,543.963L474.977,659.963" style="fill:none;stroke:black;stroke-width:8px;"/>
    <path d="M441.022,1254.71L646.548,1312.71" style="fill:none;stroke:black;stroke-width:8px;"/>
    <path d="M412.977,543.963L618.502,601.963" style="fill:none;stroke:black;stroke-width:8px;"/>
    <path d="M141.5,1301.21L213.022,1197.71" style="fill:none;stroke:black;stroke-width:8px;"/>
    <path d="M113.454,590.463L290.99,375.855" style="fill:none;stroke:black;stroke-width:8px;"/>
    <path d="M271.022,1335.71L213.022,1197.71" style="fill:none;stroke:black;stroke-width:8px;"/>
    <path d="M213.022,1197.71L441.022,1254.71" style="fill:none;stroke:black;stroke-width:8px;"/>
    <path d="M441.022,1254.71L467.022,1020.71" style="fill:none;stroke:black;stroke-width:8px;"/>
</svg>
