<?xml version="1.0" encoding="UTF-8" standalone="no"?>
<!DOCTYPE svg PUBLIC "-//W3C//DTD SVG 1.1//EN" "http://www.w3.org/Graphics/SVG/1.1/DTD/svg11.dtd">
<svg width="100%" height="100%" viewBox="0 0 1424 1107" version="1.1" xmlns="http://www.w3.org/2000/svg" xmlns:xlink="http://www.w3.org/1999/xlink" xml:space="preserve" xmlns:serif="http://www.serif.com/" style="fill-rule:evenodd;clip-rule:evenodd;stroke-linejoin:round;stroke-miterlimit:10;">
    <rect id="Spatial-Databases-2" serif:id="Spatial Databases 2" x="-2213.91" y="-1449" width="3858" height="5937" style="fill:none;"/>
    <circle cx="228.92" cy="794.197" r="26.576" style="fill:none;stroke:black;stroke-width:6px;"/>
    <circle cx="570.286" cy="806.259" r="26.576" style="fill:none;stroke:black;stroke-width:6px;"/>
    <circle cx="418.85" cy="680.171" r="26.576" style="fill:none;stroke:black;stroke-width:6px;"/>
    <circle cx="158.271" cy="1069.92" r="26.576" style="fill:none;stroke:black;stroke-width:6px;"/>
    <path d="M124.023,714.447C116.543,710.019 106.875,712.497 102.447,719.977C98.019,727.457 100.497,737.125 107.977,741.553C115.457,745.981 125.125,743.503 129.553,736.023C133.981,728.543 131.503,718.875 124.023,714.447Z" style="fill:rgb(45,231,231);"/>
    <path d="M100.669,724.393C102.66,715.931 111.146,710.678 119.607,712.669C128.069,714.66 133.322,723.146 131.331,731.607C129.34,740.069 120.854,745.322 112.393,743.331C103.931,741.34 98.678,732.854 100.669,724.393Z" style="fill:rgb(45,231,231);"/>
    <path d="M116,728L290,831L262,885L177,900L165,970L65,903L88,847L116,728Z" style="fill:none;stroke:rgb(45,231,231);stroke-width:6px;"/>
    <path d="M976.096,151.866C967.605,153.729 962.225,162.135 964.088,170.626C965.951,179.117 974.357,184.497 982.848,182.634C991.338,180.771 996.719,172.365 994.856,163.874C992.993,155.383 984.586,150.003 976.096,151.866Z" style="fill:rgb(45,231,231);"/>
    <path d="M975.511,152.006C983.924,149.82 992.53,154.876 994.716,163.289C996.902,171.702 991.846,180.308 983.433,182.494C975.019,184.68 966.414,179.624 964.228,171.211C962.042,162.798 967.098,154.192 975.511,152.006Z" style="fill:rgb(45,231,231);"/>
    <path d="M979.472,167.25L1131.12,133.97L1153.12,211.929L1082.12,213.33L1024.12,326.97L907.125,257.97L915.125,183.97L979.472,167.25Z" style="fill:none;stroke:rgb(45,231,231);stroke-width:6px;"/>
    <path d="M50.163,16.595L32.523,16.595L32.523,58.211L22.659,58.211L22.659,7.811L60.027,7.811L60.027,58.211L50.163,58.211L50.163,16.595Z" style="fill-rule:nonzero;"/>
    <path d="M68.451,22.211L75.291,22.211L76.371,26.531L76.659,26.531C77.907,24.707 79.383,23.363 81.087,22.499C82.791,21.635 84.867,21.203 87.315,21.203C91.827,21.203 95.211,22.631 97.467,25.487C99.723,28.343 100.851,32.939 100.851,39.275C100.851,42.347 100.491,45.119 99.771,47.591C99.051,50.063 97.983,52.163 96.567,53.891C95.151,55.619 93.423,56.939 91.383,57.851C89.343,58.763 87.003,59.219 84.363,59.219C82.875,59.219 81.651,59.111 80.691,58.895C79.731,58.679 78.771,58.331 77.811,57.851L77.811,72.611L68.451,72.611L68.451,22.211ZM84.507,29.123C82.683,29.123 81.255,29.579 80.223,30.491C79.191,31.403 78.387,32.771 77.811,34.595L77.811,49.571C78.483,50.099 79.215,50.519 80.007,50.831C80.799,51.143 81.843,51.299 83.139,51.299C85.827,51.299 87.843,50.351 89.187,48.455C90.531,46.559 91.203,43.427 91.203,39.059C91.203,35.891 90.675,33.443 89.619,31.715C88.563,29.987 86.859,29.123 84.507,29.123Z" style="fill-rule:nonzero;"/>
    <path d="M105.603,40.211C105.603,34.115 107.091,29.423 110.067,26.135C113.043,22.847 117.219,21.203 122.595,21.203C125.475,21.203 127.971,21.659 130.083,22.571C132.195,23.483 133.947,24.767 135.339,26.423C136.731,28.079 137.775,30.083 138.471,32.435C139.167,34.787 139.515,37.379 139.515,40.211C139.515,46.307 138.039,50.999 135.087,54.287C132.135,57.575 127.971,59.219 122.595,59.219C119.715,59.219 117.219,58.763 115.107,57.851C112.995,56.939 111.231,55.655 109.815,53.999C108.399,52.343 107.343,50.339 106.647,47.987C105.951,45.635 105.603,43.043 105.603,40.211ZM115.251,40.211C115.251,41.795 115.395,43.259 115.683,44.603C115.971,45.947 116.403,47.123 116.979,48.131C117.555,49.139 118.311,49.919 119.247,50.471C120.183,51.023 121.299,51.299 122.595,51.299C125.043,51.299 126.867,50.411 128.067,48.635C129.267,46.859 129.867,44.051 129.867,40.211C129.867,36.899 129.315,34.223 128.211,32.183C127.107,30.143 125.235,29.123 122.595,29.123C120.291,29.123 118.491,29.987 117.195,31.715C115.899,33.443 115.251,36.275 115.251,40.211Z" style="fill-rule:nonzero;"/>
    <path d="M171.483,55.979C170.043,57.035 168.303,57.839 166.263,58.391C164.223,58.943 162.123,59.219 159.963,59.219C157.083,59.219 154.647,58.763 152.655,57.851C150.663,56.939 149.043,55.655 147.795,53.999C146.547,52.343 145.647,50.339 145.095,47.987C144.543,45.635 144.267,43.043 144.267,40.211C144.267,34.115 145.635,29.423 148.371,26.135C151.107,22.847 155.091,21.203 160.323,21.203C162.963,21.203 165.087,21.419 166.695,21.851C168.303,22.283 169.755,22.835 171.051,23.507L168.819,31.139C167.715,30.611 166.623,30.203 165.543,29.915C164.463,29.627 163.227,29.483 161.835,29.483C159.243,29.483 157.275,30.335 155.931,32.039C154.587,33.743 153.915,36.467 153.915,40.211C153.915,41.747 154.083,43.163 154.419,44.459C154.755,45.755 155.259,46.883 155.931,47.843C156.603,48.803 157.479,49.559 158.559,50.111C159.639,50.663 160.899,50.939 162.339,50.939C163.923,50.939 165.267,50.735 166.371,50.327C167.475,49.919 168.459,49.427 169.323,48.851L171.483,55.979Z" style="fill-rule:nonzero;"/>
    <path d="M203.091,30.491L193.083,30.491L193.083,58.211L183.435,58.211L183.435,30.491L173.139,30.491L173.139,22.211L203.091,22.211L203.091,30.491Z" style="fill-rule:nonzero;"/>
    <path d="M205.539,40.211C205.539,34.115 207.027,29.423 210.003,26.135C212.979,22.847 217.155,21.203 222.531,21.203C225.411,21.203 227.907,21.659 230.019,22.571C232.131,23.483 233.883,24.767 235.275,26.423C236.667,28.079 237.711,30.083 238.407,32.435C239.103,34.787 239.451,37.379 239.451,40.211C239.451,46.307 237.975,50.999 235.023,54.287C232.071,57.575 227.907,59.219 222.531,59.219C219.651,59.219 217.155,58.763 215.043,57.851C212.931,56.939 211.167,55.655 209.751,53.999C208.335,52.343 207.279,50.339 206.583,47.987C205.887,45.635 205.539,43.043 205.539,40.211ZM215.187,40.211C215.187,41.795 215.331,43.259 215.619,44.603C215.907,45.947 216.339,47.123 216.915,48.131C217.491,49.139 218.247,49.919 219.183,50.471C220.119,51.023 221.235,51.299 222.531,51.299C224.979,51.299 226.803,50.411 228.003,48.635C229.203,46.859 229.803,44.051 229.803,40.211C229.803,36.899 229.251,34.223 228.147,32.183C227.043,30.143 225.171,29.123 222.531,29.123C220.227,29.123 218.427,29.987 217.131,31.715C215.835,33.443 215.187,36.275 215.187,40.211Z" style="fill-rule:nonzero;"/>
    <path d="M267.603,41.795L267.963,36.683L267.747,36.683L264.651,41.939L251.835,58.211L245.931,58.211L245.931,22.211L255.291,22.211L255.291,39.347L254.859,44.243L255.147,44.243L258.099,39.131L271.059,22.211L276.963,22.211L276.963,58.211L267.603,58.211L267.603,41.795ZM257.595,7.523C257.931,9.395 258.495,10.715 259.287,11.483C260.079,12.251 261.099,12.635 262.347,12.635C263.691,12.635 264.759,12.251 265.551,11.483C266.343,10.715 266.883,9.419 267.171,7.595L274.299,9.395C273.723,12.515 272.307,14.831 270.051,16.343C267.795,17.855 265.155,18.611 262.131,18.611C260.643,18.611 259.203,18.443 257.811,18.107C256.419,17.771 255.171,17.231 254.067,16.487C252.963,15.743 252.027,14.795 251.259,13.643C250.491,12.491 249.963,11.075 249.675,9.395L257.595,7.523Z" style="fill-rule:nonzero;"/>
    <path d="M986.687,35.531L986.687,27.827L989.999,27.827C990.623,27.827 991.259,27.815 991.907,27.791C992.555,27.767 993.191,27.719 993.815,27.647C994.439,27.575 994.943,27.491 995.327,27.395C997.007,27.011 998.447,26.327 999.647,25.343C1000.85,24.359 1001.45,23.027 1001.45,21.347C1001.45,19.043 1000.72,17.471 999.251,16.631C997.787,15.791 995.855,15.371 993.455,15.371C991.295,15.371 989.279,15.659 987.407,16.235C985.535,16.811 984.119,17.363 983.159,17.891L980.639,9.539C981.167,9.251 981.923,8.939 982.907,8.603C983.891,8.267 985.019,7.943 986.291,7.631C987.563,7.319 988.943,7.067 990.431,6.875C991.919,6.683 993.431,6.587 994.967,6.587C997.079,6.587 999.143,6.779 1001.16,7.163C1003.18,7.547 1004.98,8.219 1006.56,9.179C1008.14,10.139 1009.42,11.423 1010.38,13.031C1011.34,14.639 1011.82,16.691 1011.82,19.187C1011.82,21.683 1011.15,23.987 1009.84,26.099C1008.51,28.211 1006.39,29.747 1003.46,30.707L1003.46,31.067C1006.58,31.691 1009.02,33.035 1010.77,35.099C1012.52,37.163 1013.4,39.923 1013.4,43.379C1013.4,46.115 1012.85,48.455 1011.74,50.399C1010.64,52.343 1009.19,53.939 1007.39,55.187C1005.59,56.435 1003.51,57.359 1001.16,57.959C998.807,58.559 996.407,58.859 993.959,58.859C990.791,58.859 987.911,58.595 985.319,58.067C982.727,57.539 980.735,56.915 979.343,56.195L981.863,47.627C982.967,48.155 984.551,48.695 986.615,49.247C988.679,49.799 991.127,50.075 993.959,50.075C995.015,50.075 996.083,49.943 997.163,49.679C998.243,49.415 999.215,48.983 1000.08,48.383C1000.94,47.783 1001.64,47.003 1002.17,46.043C1002.7,45.083 1002.96,43.931 1002.96,42.587C1002.96,40.331 1002.12,38.627 1000.44,37.475C998.759,36.323 995.759,35.699 991.439,35.603C990.863,35.555 990.431,35.531 990.143,35.531L986.687,35.531Z" style="fill-rule:nonzero;"/>
    <path d="M1019.81,23.939C1021.73,23.075 1024.01,22.391 1026.65,21.887C1029.29,21.383 1032.05,21.131 1034.93,21.131C1037.42,21.131 1039.51,21.431 1041.19,22.031C1042.87,22.631 1044.2,23.483 1045.19,24.587C1046.17,25.691 1046.87,27.011 1047.28,28.547C1047.68,30.083 1047.89,31.811 1047.89,33.731C1047.89,35.843 1047.82,37.967 1047.67,40.103C1047.53,42.239 1047.44,44.339 1047.42,46.403C1047.39,48.467 1047.45,50.471 1047.6,52.415C1047.74,54.359 1048.1,56.195 1048.68,57.923L1041.05,57.923L1039.54,52.955L1039.17,52.955C1038.21,54.443 1036.88,55.727 1035.18,56.807C1033.47,57.887 1031.28,58.427 1028.59,58.427C1026.91,58.427 1025.4,58.175 1024.06,57.671C1022.71,57.167 1021.56,56.447 1020.6,55.511C1019.64,54.575 1018.89,53.471 1018.37,52.199C1017.84,50.927 1017.58,49.499 1017.58,47.915C1017.58,45.707 1018.07,43.847 1019.05,42.335C1020.03,40.823 1021.45,39.599 1023.3,38.663C1025.15,37.727 1027.36,37.079 1029.92,36.719C1032.49,36.359 1035.36,36.251 1038.53,36.395C1038.86,33.707 1038.67,31.775 1037.95,30.599C1037.23,29.423 1035.62,28.835 1033.13,28.835C1031.26,28.835 1029.28,29.027 1027.19,29.411C1025.1,29.795 1023.38,30.299 1022.04,30.923L1019.81,23.939ZM1031.69,50.723C1033.56,50.723 1035.05,50.303 1036.15,49.463C1037.26,48.623 1038.07,47.723 1038.6,46.763L1038.6,42.083C1037.11,41.939 1035.68,41.915 1034.32,42.011C1032.95,42.107 1031.74,42.323 1030.68,42.659C1029.62,42.995 1028.78,43.475 1028.16,44.099C1027.54,44.723 1027.22,45.515 1027.22,46.475C1027.22,47.819 1027.62,48.863 1028.41,49.607C1029.2,50.351 1030.3,50.723 1031.69,50.723Z" style="fill-rule:nonzero;"/>
    <path d="M1086.55,41.363L1087.13,33.875L1086.77,33.875L1083.89,40.067L1077.12,51.227L1073.74,51.227L1066.32,40.067L1063.58,33.875L1063.15,33.875L1064.09,41.291L1064.09,57.851L1055.74,57.851L1055.74,21.851L1065.45,21.851L1073.74,35.387L1075.75,39.923L1076.04,39.923L1078.13,35.243L1085.76,21.851L1095.55,21.851L1095.55,57.851L1086.55,57.851L1086.55,41.363Z" style="fill-rule:nonzero;"/>
    <path d="M1115.57,42.947L1113.05,42.947L1113.05,57.851L1103.69,57.851L1103.69,21.851L1113.05,21.851L1113.05,37.187L1115.28,36.179L1123.7,21.851L1133.71,21.851L1125,35.531L1121.33,38.267L1125.36,41.075L1135.08,57.851L1124.35,57.851L1115.57,42.947Z" style="fill-rule:nonzero;"/>
    <path d="M1159.99,43.739L1148.26,43.739L1148.26,57.851L1138.89,57.851L1138.89,21.851L1148.26,21.851L1148.26,35.387L1159.99,35.387L1159.99,21.851L1169.35,21.851L1169.35,57.851L1159.99,57.851L1159.99,43.739Z" style="fill-rule:nonzero;"/>
    <path d="M1190.66,42.083L1191.96,47.699L1192.39,47.699L1193.33,42.011L1198.8,21.851L1208.45,21.851L1197.5,54.323C1196.59,57.011 1195.71,59.471 1194.88,61.703C1194.04,63.935 1193.11,65.867 1192.1,67.499C1191.1,69.131 1189.98,70.391 1188.76,71.279C1187.53,72.167 1186.08,72.611 1184.4,72.611C1181.9,72.611 1179.91,72.203 1178.42,71.387L1180.15,63.899C1180.87,64.187 1181.59,64.331 1182.31,64.331C1183.41,64.331 1184.48,63.863 1185.52,62.927C1186.55,61.991 1187.33,60.299 1187.86,57.851L1172.81,21.851L1184.04,21.851L1190.66,42.083Z" style="fill-rule:nonzero;"/>
    <path d="M1237.89,30.131L1227.89,30.131L1227.89,57.851L1218.24,57.851L1218.24,30.131L1207.94,30.131L1207.94,21.851L1237.89,21.851L1237.89,30.131Z" style="fill-rule:nonzero;"/>
    <path d="M1251.43,50.003C1252.87,50.291 1254.24,50.435 1255.54,50.435C1257.69,50.435 1259.21,50.039 1260.07,49.247C1260.93,48.455 1261.37,47.219 1261.37,45.539C1261.37,44.003 1260.93,42.839 1260.07,42.047C1259.21,41.255 1257.77,40.859 1255.75,40.859C1254.17,40.859 1252.73,41.027 1251.43,41.363L1251.43,50.003ZM1251.43,34.667C1252.58,34.475 1253.75,34.343 1254.92,34.271C1256.1,34.199 1257.17,34.163 1258.13,34.163C1260.58,34.163 1262.62,34.439 1264.25,34.991C1265.88,35.543 1267.2,36.323 1268.21,37.331C1269.21,38.339 1269.93,39.527 1270.37,40.895C1270.8,42.263 1271.02,43.739 1271.02,45.323C1271.02,47.483 1270.73,49.379 1270.15,51.011C1269.58,52.643 1268.64,53.999 1267.34,55.079C1266.05,56.159 1264.37,56.975 1262.3,57.527C1260.24,58.079 1257.69,58.355 1254.67,58.355C1251.93,58.355 1249.57,58.307 1247.58,58.211C1245.59,58.115 1243.75,57.995 1242.07,57.851L1242.07,21.851L1251.43,21.851L1251.43,34.667ZM1275.12,21.851L1284.48,21.851L1284.48,57.851L1275.12,57.851L1275.12,21.851Z" style="fill-rule:nonzero;"/>
    <path d="M1314.36,41.435L1314.72,36.323L1314.5,36.323L1311.41,41.579L1298.59,57.851L1292.69,57.851L1292.69,21.851L1302.05,21.851L1302.05,38.987L1301.62,43.883L1301.9,43.883L1304.86,38.771L1317.82,21.851L1323.72,21.851L1323.72,57.851L1314.36,57.851L1314.36,41.435ZM1304.35,7.163C1304.69,9.035 1305.25,10.355 1306.04,11.123C1306.84,11.891 1307.86,12.275 1309.1,12.275C1310.45,12.275 1311.52,11.891 1312.31,11.123C1313.1,10.355 1313.64,9.059 1313.93,7.235L1321.06,9.035C1320.48,12.155 1319.06,14.471 1316.81,15.983C1314.55,17.495 1311.91,18.251 1308.89,18.251C1307.4,18.251 1305.96,18.083 1304.57,17.747C1303.17,17.411 1301.93,16.871 1300.82,16.127C1299.72,15.383 1298.78,14.435 1298.02,13.283C1297.25,12.131 1296.72,10.715 1296.43,9.035L1304.35,7.163Z" style="fill-rule:nonzero;"/>
    <path d="M960.215,612.915L941.783,612.915L941.783,634.011L931.919,634.011L931.919,583.611L941.783,583.611L941.783,604.131L960.215,604.131L960.215,583.611L970.079,583.611L970.079,634.011L960.215,634.011L960.215,612.915Z" style="fill-rule:nonzero;"/>
    <path d="M1007.38,630.915C1005.94,632.067 1003.98,633.039 1001.51,633.831C999.035,634.623 996.407,635.019 993.623,635.019C987.815,635.019 983.567,633.327 980.879,629.943C978.191,626.559 976.847,621.915 976.847,616.011C976.847,609.675 978.359,604.923 981.383,601.755C984.407,598.587 988.655,597.003 994.127,597.003C995.951,597.003 997.727,597.243 999.455,597.723C1001.18,598.203 1002.72,598.995 1004.06,600.099C1005.41,601.203 1006.49,602.691 1007.3,604.563C1008.12,606.435 1008.53,608.763 1008.53,611.547C1008.53,612.555 1008.47,613.635 1008.35,614.787C1008.23,615.939 1008.05,617.139 1007.81,618.387L986.207,618.387C986.351,621.411 987.131,623.691 988.547,625.227C989.963,626.763 992.255,627.531 995.423,627.531C997.391,627.531 999.155,627.231 1000.72,626.631C1002.27,626.031 1003.46,625.419 1004.28,624.795L1007.38,630.915ZM993.983,604.491C991.535,604.491 989.723,605.223 988.547,606.687C987.371,608.151 986.663,610.107 986.423,612.555L999.815,612.555C1000.01,609.963 999.611,607.971 998.627,606.579C997.643,605.187 996.095,604.491 993.983,604.491Z" style="fill-rule:nonzero;"/>
    <path d="M1037.11,619.107L1037.11,612.555L1041.5,612.555C1043.18,612.555 1044.56,612.219 1045.64,611.547C1046.72,610.875 1047.26,609.987 1047.26,608.883C1047.26,607.587 1046.78,606.663 1045.82,606.111C1044.86,605.559 1043.4,605.283 1041.43,605.283C1039.56,605.283 1037.9,605.523 1036.46,606.003C1035.02,606.483 1033.87,606.987 1033.01,607.515L1030.99,600.387C1032.43,599.571 1034.34,598.863 1036.71,598.263C1039.09,597.663 1041.62,597.363 1044.31,597.363C1048.44,597.363 1051.52,598.131 1053.56,599.667C1055.6,601.203 1056.62,603.435 1056.62,606.363C1056.62,607.179 1056.52,608.007 1056.3,608.847C1056.08,609.687 1055.74,610.491 1055.26,611.259C1054.78,612.027 1054.19,612.711 1053.49,613.311C1052.8,613.911 1051.97,614.379 1051.01,614.715L1051.01,615.003C1053.55,615.579 1055.35,616.599 1056.41,618.063C1057.46,619.527 1057.99,621.483 1057.99,623.931C1057.99,625.467 1057.68,626.895 1057.06,628.215C1056.43,629.535 1055.48,630.675 1054.21,631.635C1052.94,632.595 1051.34,633.363 1049.42,633.939C1047.5,634.515 1045.22,634.803 1042.58,634.803C1039.94,634.803 1037.65,634.527 1035.71,633.975C1033.76,633.423 1032.14,632.787 1030.85,632.067L1032.86,624.795C1033.97,625.419 1035.3,625.923 1036.86,626.307C1038.42,626.691 1040.16,626.883 1042.08,626.883C1046.45,626.883 1048.63,625.491 1048.63,622.707C1048.63,621.459 1048.07,620.547 1046.94,619.971C1045.81,619.395 1043.71,619.107 1040.64,619.107L1037.11,619.107Z" style="fill-rule:nonzero;"/>
    <path d="M1064.26,600.099C1066.17,599.235 1068.45,598.551 1071.1,598.047C1073.74,597.543 1076.5,597.291 1079.38,597.291C1081.87,597.291 1083.96,597.591 1085.64,598.191C1087.32,598.791 1088.65,599.643 1089.63,600.747C1090.62,601.851 1091.32,603.171 1091.72,604.707C1092.13,606.243 1092.34,607.971 1092.34,609.891C1092.34,612.003 1092.26,614.127 1092.12,616.263C1091.97,618.399 1091.89,620.499 1091.87,622.563C1091.84,624.627 1091.9,626.631 1092.05,628.575C1092.19,630.519 1092.55,632.355 1093.13,634.083L1085.5,634.083L1083.98,629.115L1083.62,629.115C1082.66,630.603 1081.33,631.887 1079.63,632.967C1077.92,634.047 1075.73,634.587 1073.04,634.587C1071.36,634.587 1069.85,634.335 1068.5,633.831C1067.16,633.327 1066.01,632.607 1065.05,631.671C1064.09,630.735 1063.34,629.631 1062.82,628.359C1062.29,627.087 1062.02,625.659 1062.02,624.075C1062.02,621.867 1062.52,620.007 1063.5,618.495C1064.48,616.983 1065.9,615.759 1067.75,614.823C1069.6,613.887 1071.8,613.239 1074.37,612.879C1076.94,612.519 1079.81,612.411 1082.97,612.555C1083.31,609.867 1083.12,607.935 1082.4,606.759C1081.68,605.583 1080.07,604.995 1077.58,604.995C1075.7,604.995 1073.72,605.187 1071.63,605.571C1069.55,605.955 1067.83,606.459 1066.49,607.083L1064.26,600.099ZM1076.13,626.883C1078.01,626.883 1079.5,626.463 1080.6,625.623C1081.7,624.783 1082.52,623.883 1083.05,622.923L1083.05,618.243C1081.56,618.099 1080.13,618.075 1078.76,618.171C1077.39,618.267 1076.18,618.483 1075.13,618.819C1074.07,619.155 1073.23,619.635 1072.61,620.259C1071.98,620.883 1071.67,621.675 1071.67,622.635C1071.67,623.979 1072.07,625.023 1072.86,625.767C1073.65,626.511 1074.74,626.883 1076.13,626.883Z" style="fill-rule:nonzero;"/>
    <path d="M1131,617.523L1131.58,610.035L1131.21,610.035L1128.34,616.227L1121.57,627.387L1118.18,627.387L1110.77,616.227L1108.03,610.035L1107.6,610.035L1108.54,617.451L1108.54,634.011L1100.18,634.011L1100.18,598.011L1109.9,598.011L1118.18,611.547L1120.2,616.083L1120.49,616.083L1122.58,611.403L1130.21,598.011L1140,598.011L1140,634.011L1131,634.011L1131,617.523Z" style="fill-rule:nonzero;"/>
    <path d="M1160.02,619.107L1157.5,619.107L1157.5,634.011L1148.13,634.011L1148.13,598.011L1157.5,598.011L1157.5,613.347L1159.73,612.339L1168.15,598.011L1178.16,598.011L1169.45,611.691L1165.78,614.427L1169.81,617.235L1179.53,634.011L1168.8,634.011L1160.02,619.107Z" style="fill-rule:nonzero;"/>
    <path d="M1204.44,619.899L1192.7,619.899L1192.7,634.011L1183.34,634.011L1183.34,598.011L1192.7,598.011L1192.7,611.547L1204.44,611.547L1204.44,598.011L1213.8,598.011L1213.8,634.011L1204.44,634.011L1204.44,619.899Z" style="fill-rule:nonzero;"/>
    <path d="M1235.11,618.243L1236.41,623.859L1236.84,623.859L1237.78,618.171L1243.25,598.011L1252.89,598.011L1241.95,630.483C1241.04,633.171 1240.16,635.631 1239.32,637.863C1238.48,640.095 1237.56,642.027 1236.55,643.659C1235.54,645.291 1234.43,646.551 1233.2,647.439C1231.98,648.327 1230.53,648.771 1228.85,648.771C1226.35,648.771 1224.36,648.363 1222.87,647.547L1224.6,640.059C1225.32,640.347 1226.04,640.491 1226.76,640.491C1227.86,640.491 1228.93,640.023 1229.96,639.087C1231,638.151 1231.78,636.459 1232.3,634.011L1217.26,598.011L1228.49,598.011L1235.11,618.243Z" style="fill-rule:nonzero;"/>
    <path d="M1282.34,606.291L1272.34,606.291L1272.34,634.011L1262.69,634.011L1262.69,606.291L1252.39,606.291L1252.39,598.011L1282.34,598.011L1282.34,606.291Z" style="fill-rule:nonzero;"/>
    <path d="M1295.88,626.163C1297.32,626.451 1298.69,626.595 1299.98,626.595C1302.14,626.595 1303.65,626.199 1304.52,625.407C1305.38,624.615 1305.82,623.379 1305.82,621.699C1305.82,620.163 1305.38,618.999 1304.52,618.207C1303.65,617.415 1302.21,617.019 1300.2,617.019C1298.62,617.019 1297.17,617.187 1295.88,617.523L1295.88,626.163ZM1295.88,610.827C1297.03,610.635 1298.19,610.503 1299.37,610.431C1300.55,610.359 1301.62,610.323 1302.58,610.323C1305.02,610.323 1307.06,610.599 1308.69,611.151C1310.33,611.703 1311.65,612.483 1312.65,613.491C1313.66,614.499 1314.38,615.687 1314.82,617.055C1315.25,618.423 1315.46,619.899 1315.46,621.483C1315.46,623.643 1315.17,625.539 1314.6,627.171C1314.02,628.803 1313.09,630.159 1311.79,631.239C1310.5,632.319 1308.82,633.135 1306.75,633.687C1304.69,634.239 1302.14,634.515 1299.12,634.515C1296.38,634.515 1294.02,634.467 1292.03,634.371C1290.04,634.275 1288.2,634.155 1286.52,634.011L1286.52,598.011L1295.88,598.011L1295.88,610.827ZM1319.57,598.011L1328.93,598.011L1328.93,634.011L1319.57,634.011L1319.57,598.011Z" style="fill-rule:nonzero;"/>
    <path d="M1358.81,617.595L1359.17,612.483L1358.95,612.483L1355.86,617.739L1343.04,634.011L1337.13,634.011L1337.13,598.011L1346.5,598.011L1346.5,615.147L1346.06,620.043L1346.35,620.043L1349.3,614.931L1362.26,598.011L1368.17,598.011L1368.17,634.011L1358.81,634.011L1358.81,617.595ZM1348.8,583.323C1349.13,585.195 1349.7,586.515 1350.49,587.283C1351.28,588.051 1352.3,588.435 1353.55,588.435C1354.89,588.435 1355.96,588.051 1356.76,587.283C1357.55,586.515 1358.09,585.219 1358.38,583.395L1365.5,585.195C1364.93,588.315 1363.51,590.631 1361.26,592.143C1359,593.655 1356.36,594.411 1353.34,594.411C1351.85,594.411 1350.41,594.243 1349.02,593.907C1347.62,593.571 1346.38,593.031 1345.27,592.287C1344.17,591.543 1343.23,590.595 1342.46,589.443C1341.69,588.291 1341.17,586.875 1340.88,585.195L1348.8,583.323Z" style="fill-rule:nonzero;"/>
    <path d="M429.74,37.115L411.308,37.115L411.308,58.211L401.444,58.211L401.444,7.811L411.308,7.811L411.308,28.331L429.74,28.331L429.74,7.811L439.604,7.811L439.604,58.211L429.74,58.211L429.74,37.115Z" style="fill-rule:nonzero;"/>
    <path d="M476.9,55.115C475.46,56.267 473.504,57.239 471.032,58.031C468.56,58.823 465.932,59.219 463.148,59.219C457.34,59.219 453.092,57.527 450.404,54.143C447.716,50.759 446.372,46.115 446.372,40.211C446.372,33.875 447.884,29.123 450.908,25.955C453.932,22.787 458.18,21.203 463.652,21.203C465.476,21.203 467.252,21.443 468.98,21.923C470.708,22.403 472.244,23.195 473.588,24.299C474.932,25.403 476.012,26.891 476.828,28.763C477.644,30.635 478.052,32.963 478.052,35.747C478.052,36.755 477.992,37.835 477.872,38.987C477.752,40.139 477.572,41.339 477.332,42.587L455.732,42.587C455.876,45.611 456.656,47.891 458.072,49.427C459.488,50.963 461.78,51.731 464.948,51.731C466.916,51.731 468.68,51.431 470.24,50.831C471.8,50.231 472.988,49.619 473.804,48.995L476.9,55.115ZM463.508,28.691C461.06,28.691 459.248,29.423 458.072,30.887C456.896,32.351 456.188,34.307 455.948,36.755L469.34,36.755C469.532,34.163 469.136,32.171 468.152,30.779C467.168,29.387 465.62,28.691 463.508,28.691Z" style="fill-rule:nonzero;"/>
    <path d="M505.412,30.491L494.036,30.491L494.036,58.211L484.676,58.211L484.676,22.211L514.772,22.211L514.772,58.211L505.412,58.211L505.412,30.491Z" style="fill-rule:nonzero;"/>
    <path d="M522.98,22.211L529.82,22.211L530.9,26.531L531.188,26.531C532.436,24.707 533.912,23.363 535.616,22.499C537.32,21.635 539.396,21.203 541.844,21.203C546.356,21.203 549.74,22.631 551.996,25.487C554.252,28.343 555.38,32.939 555.38,39.275C555.38,42.347 555.02,45.119 554.3,47.591C553.58,50.063 552.512,52.163 551.096,53.891C549.68,55.619 547.952,56.939 545.912,57.851C543.872,58.763 541.532,59.219 538.892,59.219C537.404,59.219 536.18,59.111 535.22,58.895C534.26,58.679 533.3,58.331 532.34,57.851L532.34,72.611L522.98,72.611L522.98,22.211ZM539.036,29.123C537.212,29.123 535.784,29.579 534.752,30.491C533.72,31.403 532.916,32.771 532.34,34.595L532.34,49.571C533.012,50.099 533.744,50.519 534.536,50.831C535.328,51.143 536.372,51.299 537.668,51.299C540.356,51.299 542.372,50.351 543.716,48.455C545.06,46.559 545.732,43.427 545.732,39.059C545.732,35.891 545.204,33.443 544.148,31.715C543.092,29.987 541.388,29.123 539.036,29.123Z" style="fill-rule:nonzero;"/>
    <path d="M560.132,40.211C560.132,34.115 561.62,29.423 564.596,26.135C567.572,22.847 571.748,21.203 577.124,21.203C580.004,21.203 582.5,21.659 584.612,22.571C586.724,23.483 588.476,24.767 589.868,26.423C591.26,28.079 592.304,30.083 593,32.435C593.696,34.787 594.044,37.379 594.044,40.211C594.044,46.307 592.568,50.999 589.616,54.287C586.664,57.575 582.5,59.219 577.124,59.219C574.244,59.219 571.748,58.763 569.636,57.851C567.524,56.939 565.76,55.655 564.344,53.999C562.928,52.343 561.872,50.339 561.176,47.987C560.48,45.635 560.132,43.043 560.132,40.211ZM569.78,40.211C569.78,41.795 569.924,43.259 570.212,44.603C570.5,45.947 570.932,47.123 571.508,48.131C572.084,49.139 572.84,49.919 573.776,50.471C574.712,51.023 575.828,51.299 577.124,51.299C579.572,51.299 581.396,50.411 582.596,48.635C583.796,46.859 584.396,44.051 584.396,40.211C584.396,36.899 583.844,34.223 582.74,32.183C581.636,30.143 579.764,29.123 577.124,29.123C574.82,29.123 573.02,29.987 571.724,31.715C570.428,33.443 569.78,36.275 569.78,40.211Z" style="fill-rule:nonzero;"/>
    <path d="M626.012,55.979C624.572,57.035 622.832,57.839 620.792,58.391C618.752,58.943 616.652,59.219 614.492,59.219C611.612,59.219 609.176,58.763 607.184,57.851C605.192,56.939 603.572,55.655 602.324,53.999C601.076,52.343 600.176,50.339 599.624,47.987C599.072,45.635 598.796,43.043 598.796,40.211C598.796,34.115 600.164,29.423 602.9,26.135C605.636,22.847 609.62,21.203 614.852,21.203C617.492,21.203 619.616,21.419 621.224,21.851C622.832,22.283 624.284,22.835 625.58,23.507L623.348,31.139C622.244,30.611 621.152,30.203 620.072,29.915C618.992,29.627 617.756,29.483 616.364,29.483C613.772,29.483 611.804,30.335 610.46,32.039C609.116,33.743 608.444,36.467 608.444,40.211C608.444,41.747 608.612,43.163 608.948,44.459C609.284,45.755 609.788,46.883 610.46,47.843C611.132,48.803 612.008,49.559 613.088,50.111C614.168,50.663 615.428,50.939 616.868,50.939C618.452,50.939 619.796,50.735 620.9,50.327C622.004,49.919 622.988,49.427 623.852,48.851L626.012,55.979Z" style="fill-rule:nonzero;"/>
    <path d="M657.62,30.491L647.612,30.491L647.612,58.211L637.964,58.211L637.964,30.491L627.668,30.491L627.668,22.211L657.62,22.211L657.62,30.491Z" style="fill-rule:nonzero;"/>
    <path d="M660.068,40.211C660.068,34.115 661.556,29.423 664.532,26.135C667.508,22.847 671.684,21.203 677.06,21.203C679.94,21.203 682.436,21.659 684.548,22.571C686.66,23.483 688.412,24.767 689.804,26.423C691.196,28.079 692.24,30.083 692.936,32.435C693.632,34.787 693.98,37.379 693.98,40.211C693.98,46.307 692.504,50.999 689.552,54.287C686.6,57.575 682.436,59.219 677.06,59.219C674.18,59.219 671.684,58.763 669.572,57.851C667.46,56.939 665.696,55.655 664.28,53.999C662.864,52.343 661.808,50.339 661.112,47.987C660.416,45.635 660.068,43.043 660.068,40.211ZM669.716,40.211C669.716,41.795 669.86,43.259 670.148,44.603C670.436,45.947 670.868,47.123 671.444,48.131C672.02,49.139 672.776,49.919 673.712,50.471C674.648,51.023 675.764,51.299 677.06,51.299C679.508,51.299 681.332,50.411 682.532,48.635C683.732,46.859 684.332,44.051 684.332,40.211C684.332,36.899 683.78,34.223 682.676,32.183C681.572,30.143 679.7,29.123 677.06,29.123C674.756,29.123 672.956,29.987 671.66,31.715C670.364,33.443 669.716,36.275 669.716,40.211Z" style="fill-rule:nonzero;"/>
    <path d="M722.132,41.795L722.492,36.683L722.276,36.683L719.18,41.939L706.364,58.211L700.46,58.211L700.46,22.211L709.82,22.211L709.82,39.347L709.388,44.243L709.676,44.243L712.628,39.131L725.588,22.211L731.492,22.211L731.492,58.211L722.132,58.211L722.132,41.795ZM712.124,7.523C712.46,9.395 713.024,10.715 713.816,11.483C714.608,12.251 715.628,12.635 716.876,12.635C718.22,12.635 719.288,12.251 720.08,11.483C720.872,10.715 721.412,9.419 721.7,7.595L728.828,9.395C728.252,12.515 726.836,14.831 724.58,16.343C722.324,17.855 719.684,18.611 716.66,18.611C715.172,18.611 713.732,18.443 712.34,18.107C710.948,17.771 709.7,17.231 708.596,16.487C707.492,15.743 706.556,14.795 705.788,13.643C705.02,12.491 704.492,11.075 704.204,9.395L712.124,7.523Z" style="fill-rule:nonzero;"/>
    <path d="M137.186,584.795L117.746,584.795L117.746,626.411L107.882,626.411L107.882,576.011L137.186,576.011L137.186,584.795Z" style="fill-rule:nonzero;"/>
    <path d="M132.074,590.411L138.914,590.411L139.994,594.731L140.282,594.731C141.53,592.907 143.006,591.563 144.71,590.699C146.414,589.835 148.49,589.403 150.938,589.403C155.45,589.403 158.834,590.831 161.09,593.687C163.346,596.543 164.474,601.139 164.474,607.475C164.474,610.547 164.114,613.319 163.394,615.791C162.674,618.263 161.606,620.363 160.19,622.091C158.774,623.819 157.046,625.139 155.006,626.051C152.966,626.963 150.626,627.419 147.986,627.419C146.498,627.419 145.274,627.311 144.314,627.095C143.354,626.879 142.394,626.531 141.434,626.051L141.434,640.811L132.074,640.811L132.074,590.411ZM148.13,597.323C146.306,597.323 144.878,597.779 143.846,598.691C142.814,599.603 142.01,600.971 141.434,602.795L141.434,617.771C142.106,618.299 142.838,618.719 143.63,619.031C144.422,619.343 145.466,619.499 146.762,619.499C149.45,619.499 151.466,618.551 152.81,616.655C154.154,614.759 154.826,611.627 154.826,607.259C154.826,604.091 154.298,601.643 153.242,599.915C152.186,598.187 150.482,597.323 148.13,597.323Z" style="fill-rule:nonzero;"/>
    <path d="M170.738,592.499C172.658,591.635 174.938,590.951 177.578,590.447C180.218,589.943 182.978,589.691 185.858,589.691C188.354,589.691 190.442,589.991 192.122,590.591C193.802,591.191 195.134,592.043 196.118,593.147C197.102,594.251 197.798,595.571 198.206,597.107C198.614,598.643 198.818,600.371 198.818,602.291C198.818,604.403 198.746,606.527 198.602,608.663C198.458,610.799 198.374,612.899 198.35,614.963C198.326,617.027 198.386,619.031 198.53,620.975C198.674,622.919 199.034,624.755 199.61,626.483L191.978,626.483L190.466,621.515L190.106,621.515C189.146,623.003 187.814,624.287 186.11,625.367C184.406,626.447 182.21,626.987 179.522,626.987C177.842,626.987 176.33,626.735 174.986,626.231C173.642,625.727 172.49,625.007 171.53,624.071C170.57,623.135 169.826,622.031 169.298,620.759C168.77,619.487 168.506,618.059 168.506,616.475C168.506,614.267 168.998,612.407 169.982,610.895C170.966,609.383 172.382,608.159 174.23,607.223C176.078,606.287 178.286,605.639 180.854,605.279C183.422,604.919 186.29,604.811 189.458,604.955C189.794,602.267 189.602,600.335 188.882,599.159C188.162,597.983 186.554,597.395 184.058,597.395C182.186,597.395 180.206,597.587 178.118,597.971C176.03,598.355 174.314,598.859 172.97,599.483L170.738,592.499ZM182.618,619.283C184.49,619.283 185.978,618.863 187.082,618.023C188.186,617.183 189.002,616.283 189.53,615.323L189.53,610.643C188.042,610.499 186.614,610.475 185.246,610.571C183.878,610.667 182.666,610.883 181.61,611.219C180.554,611.555 179.714,612.035 179.09,612.659C178.466,613.283 178.154,614.075 178.154,615.035C178.154,616.379 178.55,617.423 179.342,618.167C180.134,618.911 181.226,619.283 182.618,619.283Z" style="fill-rule:nonzero;"/>
    <path d="M227.762,612.299L216.026,612.299L216.026,626.411L206.666,626.411L206.666,590.411L216.026,590.411L216.026,603.947L227.762,603.947L227.762,590.411L237.122,590.411L237.122,626.411L227.762,626.411L227.762,612.299Z" style="fill-rule:nonzero;"/>
    <path d="M267.002,609.995L267.362,604.883L267.146,604.883L264.05,610.139L251.234,626.411L245.33,626.411L245.33,590.411L254.69,590.411L254.69,607.547L254.258,612.443L254.546,612.443L257.498,607.331L270.458,590.411L276.362,590.411L276.362,626.411L267.002,626.411L267.002,609.995Z" style="fill-rule:nonzero;"/>
    <path d="M292.202,590.411L292.202,598.619C292.202,600.107 292.262,601.391 292.382,602.471C292.502,603.551 292.742,604.439 293.102,605.135C293.462,605.831 293.966,606.347 294.614,606.683C295.262,607.019 296.114,607.187 297.17,607.187C298.562,607.187 299.774,607.019 300.806,606.683C301.838,606.347 302.69,605.939 303.362,605.459L303.362,590.411L312.722,590.411L312.722,626.411L303.362,626.411L303.362,612.299C302.642,612.827 301.538,613.415 300.05,614.063C298.562,614.711 296.57,615.035 294.074,615.035C292.298,615.035 290.714,614.843 289.322,614.459C287.93,614.075 286.754,613.403 285.794,612.443C284.834,611.483 284.102,610.211 283.598,608.627C283.094,607.043 282.842,605.051 282.842,602.651L282.842,590.411L292.202,590.411Z" style="fill-rule:nonzero;"/>
    <path d="M342.026,612.299L330.29,612.299L330.29,626.411L320.93,626.411L320.93,590.411L330.29,590.411L330.29,603.947L342.026,603.947L342.026,590.411L351.386,590.411L351.386,626.411L342.026,626.411L342.026,612.299Z" style="fill-rule:nonzero;"/>
    <path d="M368.954,618.563C370.394,618.851 371.762,618.995 373.058,618.995C375.218,618.995 376.73,618.599 377.594,617.807C378.458,617.015 378.89,615.779 378.89,614.099C378.89,612.563 378.458,611.399 377.594,610.607C376.73,609.815 375.29,609.419 373.274,609.419C371.69,609.419 370.25,609.587 368.954,609.923L368.954,618.563ZM368.954,603.227C370.106,603.035 371.27,602.903 372.446,602.831C373.622,602.759 374.69,602.723 375.65,602.723C378.098,602.723 380.138,602.999 381.77,603.551C383.402,604.103 384.722,604.883 385.73,605.891C386.738,606.899 387.458,608.087 387.89,609.455C388.322,610.823 388.538,612.299 388.538,613.883C388.538,616.043 388.25,617.939 387.674,619.571C387.098,621.203 386.162,622.559 384.866,623.639C383.57,624.719 381.89,625.535 379.826,626.087C377.762,626.639 375.218,626.915 372.194,626.915C369.458,626.915 367.094,626.867 365.102,626.771C363.11,626.675 361.274,626.555 359.594,626.411L359.594,590.411L368.954,590.411L368.954,603.227ZM392.642,590.411L402.002,590.411L402.002,626.411L392.642,626.411L392.642,590.411Z" style="fill-rule:nonzero;"/>
    <path d="M439.01,623.315C437.57,624.467 435.614,625.439 433.142,626.231C430.67,627.023 428.042,627.419 425.258,627.419C419.45,627.419 415.202,625.727 412.514,622.343C409.826,618.959 408.482,614.315 408.482,608.411C408.482,602.075 409.994,597.323 413.018,594.155C416.042,590.987 420.29,589.403 425.762,589.403C427.586,589.403 429.362,589.643 431.09,590.123C432.818,590.603 434.354,591.395 435.698,592.499C437.042,593.603 438.122,595.091 438.938,596.963C439.754,598.835 440.162,601.163 440.162,603.947C440.162,604.955 440.102,606.035 439.982,607.187C439.862,608.339 439.682,609.539 439.442,610.787L417.842,610.787C417.986,613.811 418.766,616.091 420.182,617.627C421.598,619.163 423.89,619.931 427.058,619.931C429.026,619.931 430.79,619.631 432.35,619.031C433.91,618.431 435.098,617.819 435.914,617.195L439.01,623.315ZM425.618,596.891C423.17,596.891 421.358,597.623 420.182,599.087C419.006,600.551 418.298,602.507 418.058,604.955L431.45,604.955C431.642,602.363 431.246,600.371 430.262,598.979C429.278,597.587 427.73,596.891 425.618,596.891Z" style="fill-rule:nonzero;"/>
    <path d="M490.922,598.691L480.914,598.691L480.914,626.411L471.266,626.411L471.266,598.691L460.97,598.691L460.97,590.411L490.922,590.411L490.922,598.691Z" style="fill-rule:nonzero;"/>
    <path d="M493.37,608.411C493.37,602.315 494.858,597.623 497.834,594.335C500.81,591.047 504.986,589.403 510.362,589.403C513.242,589.403 515.738,589.859 517.85,590.771C519.962,591.683 521.714,592.967 523.106,594.623C524.498,596.279 525.542,598.283 526.238,600.635C526.934,602.987 527.282,605.579 527.282,608.411C527.282,614.507 525.806,619.199 522.854,622.487C519.902,625.775 515.738,627.419 510.362,627.419C507.482,627.419 504.986,626.963 502.874,626.051C500.762,625.139 498.998,623.855 497.582,622.199C496.166,620.543 495.11,618.539 494.414,616.187C493.718,613.835 493.37,611.243 493.37,608.411ZM503.018,608.411C503.018,609.995 503.162,611.459 503.45,612.803C503.738,614.147 504.17,615.323 504.746,616.331C505.322,617.339 506.078,618.119 507.014,618.671C507.95,619.223 509.066,619.499 510.362,619.499C512.81,619.499 514.634,618.611 515.834,616.835C517.034,615.059 517.634,612.251 517.634,608.411C517.634,605.099 517.082,602.423 515.978,600.383C514.874,598.343 513.002,597.323 510.362,597.323C508.058,597.323 506.258,598.187 504.962,599.915C503.666,601.643 503.018,604.475 503.018,608.411Z" style="fill-rule:nonzero;"/>
    <path d="M541.394,590.411L541.394,598.619C541.394,600.107 541.454,601.391 541.574,602.471C541.694,603.551 541.934,604.439 542.294,605.135C542.654,605.831 543.158,606.347 543.806,606.683C544.454,607.019 545.306,607.187 546.362,607.187C547.754,607.187 548.966,607.019 549.998,606.683C551.03,606.347 551.882,605.939 552.554,605.459L552.554,590.411L561.914,590.411L561.914,626.411L552.554,626.411L552.554,612.299C551.834,612.827 550.73,613.415 549.242,614.063C547.754,614.711 545.762,615.035 543.266,615.035C541.49,615.035 539.906,614.843 538.514,614.459C537.122,614.075 535.946,613.403 534.986,612.443C534.026,611.483 533.294,610.211 532.79,608.627C532.286,607.043 532.034,605.051 532.034,602.651L532.034,590.411L541.394,590.411Z" style="fill-rule:nonzero;"/>
    <path d="M582.002,611.507L579.482,611.507L579.482,626.411L570.122,626.411L570.122,590.411L579.482,590.411L579.482,605.747L581.714,604.739L590.138,590.411L600.146,590.411L591.434,604.091L587.762,606.827L591.794,609.635L601.514,626.411L590.786,626.411L582.002,611.507Z" style="fill-rule:nonzero;"/>
    <path d="M627.002,609.995L627.362,604.883L627.146,604.883L624.05,610.139L611.234,626.411L605.33,626.411L605.33,590.411L614.69,590.411L614.69,607.547L614.258,612.443L614.546,612.443L617.498,607.331L630.458,590.411L636.362,590.411L636.362,626.411L627.002,626.411L627.002,609.995Z" style="fill-rule:nonzero;"/>
    <path d="M96.788,142.655C96.788,141.215 96.356,140.087 95.492,139.271C94.628,138.455 93.56,137.771 92.288,137.219C91.016,136.667 89.624,136.139 88.112,135.635C86.6,135.131 85.208,134.483 83.936,133.691C82.664,132.899 81.596,131.879 80.732,130.631C79.868,129.383 79.436,127.703 79.436,125.591C79.436,122.135 80.42,119.603 82.388,117.995C84.356,116.387 87.092,115.583 90.596,115.583C93.188,115.583 95.36,115.811 97.112,116.267C98.864,116.723 100.388,117.263 101.684,117.887L100.316,122.639C99.212,122.111 97.88,121.643 96.32,121.235C94.76,120.827 93.092,120.623 91.316,120.623C89.204,120.623 87.656,120.983 86.672,121.703C85.688,122.423 85.196,123.671 85.196,125.447C85.196,126.695 85.628,127.667 86.492,128.363C87.356,129.059 88.424,129.683 89.696,130.235C90.968,130.787 92.36,131.327 93.872,131.855C95.384,132.383 96.776,133.079 98.048,133.943C99.32,134.807 100.388,135.899 101.252,137.219C102.116,138.539 102.548,140.279 102.548,142.439C102.548,143.975 102.296,145.415 101.792,146.759C101.288,148.103 100.508,149.255 99.452,150.215C98.396,151.175 97.088,151.931 95.528,152.483C93.968,153.035 92.132,153.311 90.02,153.311C87.284,153.311 84.956,153.047 83.036,152.519C81.116,151.991 79.508,151.367 78.212,150.647L79.94,145.751C81.044,146.375 82.484,146.951 84.26,147.479C86.036,148.007 87.836,148.271 89.66,148.271C91.724,148.271 93.428,147.863 94.772,147.047C96.116,146.231 96.788,144.767 96.788,142.655Z" style="fill:rgb(176,0,182);fill-rule:nonzero;"/>
    <path d="M485.251,142.655C485.251,141.215 484.819,140.087 483.955,139.271C483.091,138.455 482.023,137.771 480.751,137.219C479.479,136.667 478.087,136.139 476.575,135.635C475.063,135.131 473.671,134.483 472.399,133.691C471.127,132.899 470.059,131.879 469.195,130.631C468.331,129.383 467.899,127.703 467.899,125.591C467.899,122.135 468.883,119.603 470.851,117.995C472.819,116.387 475.555,115.583 479.059,115.583C481.651,115.583 483.823,115.811 485.575,116.267C487.327,116.723 488.851,117.263 490.147,117.887L488.779,122.639C487.675,122.111 486.343,121.643 484.783,121.235C483.223,120.827 481.555,120.623 479.779,120.623C477.667,120.623 476.119,120.983 475.135,121.703C474.151,122.423 473.659,123.671 473.659,125.447C473.659,126.695 474.091,127.667 474.955,128.363C475.819,129.059 476.887,129.683 478.159,130.235C479.431,130.787 480.823,131.327 482.335,131.855C483.847,132.383 485.239,133.079 486.511,133.943C487.783,134.807 488.851,135.899 489.715,137.219C490.579,138.539 491.011,140.279 491.011,142.439C491.011,143.975 490.759,145.415 490.255,146.759C489.751,148.103 488.971,149.255 487.915,150.215C486.859,151.175 485.551,151.931 483.991,152.483C482.431,153.035 480.595,153.311 478.483,153.311C475.747,153.311 473.419,153.047 471.499,152.519C469.579,151.991 467.971,151.367 466.675,150.647L468.403,145.751C469.507,146.375 470.947,146.951 472.723,147.479C474.499,148.007 476.299,148.271 478.123,148.271C480.187,148.271 481.891,147.863 483.235,147.047C484.579,146.231 485.251,144.767 485.251,142.655Z" style="fill:rgb(176,0,182);fill-rule:nonzero;"/>
    <path d="M160.594,358.4C159.154,359.552 157.342,360.464 155.158,361.136C152.974,361.808 150.658,362.144 148.21,362.144C145.474,362.144 143.098,361.7 141.082,360.812C139.066,359.924 137.41,358.652 136.114,356.996C134.818,355.34 133.858,353.36 133.234,351.056C132.61,348.752 132.298,346.16 132.298,343.28C132.298,337.136 133.666,332.456 136.402,329.24C139.138,326.024 143.05,324.416 148.138,324.416C149.77,324.416 151.402,324.596 153.034,324.956C154.666,325.316 156.13,326 157.426,327.008C158.722,328.016 159.778,329.444 160.594,331.292C161.41,333.14 161.818,335.576 161.818,338.6C161.818,340.184 161.674,341.936 161.386,343.856L138.274,343.856C138.274,345.968 138.49,347.84 138.922,349.472C139.354,351.104 140.026,352.484 140.938,353.612C141.85,354.74 143.038,355.604 144.502,356.204C145.966,356.804 147.754,357.104 149.866,357.104C151.498,357.104 153.13,356.816 154.762,356.24C156.394,355.664 157.618,354.992 158.434,354.224L160.594,358.4ZM148.21,329.456C145.378,329.456 143.11,330.2 141.406,331.688C139.702,333.176 138.682,335.72 138.346,339.32L156.202,339.32C156.202,335.672 155.506,333.116 154.114,331.652C152.722,330.188 150.754,329.456 148.21,329.456Z" style="fill:rgb(176,0,182);fill-rule:nonzero;"/>
    <path d="M542.057,370.352C540.617,371.504 538.805,372.416 536.621,373.088C534.437,373.76 532.121,374.096 529.673,374.096C526.937,374.096 524.561,373.652 522.545,372.764C520.529,371.876 518.873,370.604 517.577,368.948C516.281,367.292 515.321,365.312 514.697,363.008C514.073,360.704 513.761,358.112 513.761,355.232C513.761,349.088 515.129,344.408 517.865,341.192C520.601,337.976 524.513,336.368 529.601,336.368C531.233,336.368 532.865,336.548 534.497,336.908C536.129,337.268 537.593,337.952 538.889,338.96C540.185,339.968 541.241,341.396 542.057,343.244C542.873,345.092 543.281,347.528 543.281,350.552C543.281,352.136 543.137,353.888 542.849,355.808L519.737,355.808C519.737,357.92 519.953,359.792 520.385,361.424C520.817,363.056 521.489,364.436 522.401,365.564C523.313,366.692 524.501,367.556 525.965,368.156C527.429,368.756 529.217,369.056 531.329,369.056C532.961,369.056 534.593,368.768 536.225,368.192C537.857,367.616 539.081,366.944 539.897,366.176L542.057,370.352ZM529.673,341.408C526.841,341.408 524.573,342.152 522.869,343.64C521.165,345.128 520.145,347.672 519.809,351.272L537.665,351.272C537.665,347.624 536.969,345.068 535.577,343.604C534.185,342.14 532.217,341.408 529.673,341.408Z" style="fill:rgb(176,0,182);fill-rule:nonzero;"/>
    <path d="M106.658,408.08C105.218,409.232 103.406,410.144 101.222,410.816C99.038,411.488 96.722,411.824 94.274,411.824C91.538,411.824 89.162,411.38 87.146,410.492C85.13,409.604 83.474,408.332 82.178,406.676C80.882,405.02 79.922,403.04 79.298,400.736C78.674,398.432 78.362,395.84 78.362,392.96C78.362,386.816 79.73,382.136 82.466,378.92C85.202,375.704 89.114,374.096 94.202,374.096C95.834,374.096 97.466,374.276 99.098,374.636C100.73,374.996 102.194,375.68 103.49,376.688C104.786,377.696 105.842,379.124 106.658,380.972C107.474,382.82 107.882,385.256 107.882,388.28C107.882,389.864 107.738,391.616 107.45,393.536L84.338,393.536C84.338,395.648 84.554,397.52 84.986,399.152C85.418,400.784 86.09,402.164 87.002,403.292C87.914,404.42 89.102,405.284 90.566,405.884C92.03,406.484 93.818,406.784 95.93,406.784C97.562,406.784 99.194,406.496 100.826,405.92C102.458,405.344 103.682,404.672 104.498,403.904L106.658,408.08ZM94.274,379.136C91.442,379.136 89.174,379.88 87.47,381.368C85.766,382.856 84.746,385.4 84.41,389L102.266,389C102.266,385.352 101.57,382.796 100.178,381.332C98.786,379.868 96.818,379.136 94.274,379.136Z" style="fill:rgb(16,137,137);fill-rule:nonzero;"/>
    <path d="M495.12,408.08C493.68,409.232 491.868,410.144 489.684,410.816C487.5,411.488 485.184,411.824 482.736,411.824C480,411.824 477.624,411.38 475.608,410.492C473.592,409.604 471.936,408.332 470.64,406.676C469.344,405.02 468.384,403.04 467.76,400.736C467.136,398.432 466.824,395.84 466.824,392.96C466.824,386.816 468.192,382.136 470.928,378.92C473.664,375.704 477.576,374.096 482.664,374.096C484.296,374.096 485.928,374.276 487.56,374.636C489.192,374.996 490.656,375.68 491.952,376.688C493.248,377.696 494.304,379.124 495.12,380.972C495.936,382.82 496.344,385.256 496.344,388.28C496.344,389.864 496.2,391.616 495.912,393.536L472.8,393.536C472.8,395.648 473.016,397.52 473.448,399.152C473.88,400.784 474.552,402.164 475.464,403.292C476.376,404.42 477.564,405.284 479.028,405.884C480.492,406.484 482.28,406.784 484.392,406.784C486.024,406.784 487.656,406.496 489.288,405.92C490.92,405.344 492.144,404.672 492.96,403.904L495.12,408.08ZM482.736,379.136C479.904,379.136 477.636,379.88 475.932,381.368C474.228,382.856 473.208,385.4 472.872,389L490.728,389C490.728,385.352 490.032,382.796 488.64,381.332C487.248,379.868 485.28,379.136 482.736,379.136Z" style="fill:rgb(16,137,137);fill-rule:nonzero;"/>
    <path d="M297.788,351.488C297.788,350.048 297.356,348.92 296.492,348.104C295.628,347.288 294.56,346.604 293.288,346.052C292.016,345.5 290.624,344.972 289.112,344.468C287.6,343.964 286.208,343.316 284.936,342.524C283.664,341.732 282.596,340.712 281.732,339.464C280.868,338.216 280.436,336.536 280.436,334.424C280.436,330.968 281.42,328.436 283.388,326.828C285.356,325.22 288.092,324.416 291.596,324.416C294.188,324.416 296.36,324.644 298.112,325.1C299.864,325.556 301.388,326.096 302.684,326.72L301.316,331.472C300.212,330.944 298.88,330.476 297.32,330.068C295.76,329.66 294.092,329.456 292.316,329.456C290.204,329.456 288.656,329.816 287.672,330.536C286.688,331.256 286.196,332.504 286.196,334.28C286.196,335.528 286.628,336.5 287.492,337.196C288.356,337.892 289.424,338.516 290.696,339.068C291.968,339.62 293.36,340.16 294.872,340.688C296.384,341.216 297.776,341.912 299.048,342.776C300.32,343.64 301.388,344.732 302.252,346.052C303.116,347.372 303.548,349.112 303.548,351.272C303.548,352.808 303.296,354.248 302.792,355.592C302.288,356.936 301.508,358.088 300.452,359.048C299.396,360.008 298.088,360.764 296.528,361.316C294.968,361.868 293.132,362.144 291.02,362.144C288.284,362.144 285.956,361.88 284.036,361.352C282.116,360.824 280.508,360.2 279.212,359.48L280.94,354.584C282.044,355.208 283.484,355.784 285.26,356.312C287.036,356.84 288.836,357.104 290.66,357.104C292.724,357.104 294.428,356.696 295.772,355.88C297.116,355.064 297.788,353.6 297.788,351.488Z" style="fill:rgb(16,137,137);fill-rule:nonzero;"/>
    <path d="M435.251,332.624C435.251,331.184 434.819,330.056 433.955,329.24C433.091,328.424 432.023,327.74 430.751,327.188C429.479,326.636 428.087,326.108 426.575,325.604C425.063,325.1 423.671,324.452 422.399,323.66C421.127,322.868 420.059,321.848 419.195,320.6C418.331,319.352 417.899,317.672 417.899,315.56C417.899,312.104 418.883,309.572 420.851,307.964C422.819,306.356 425.555,305.552 429.059,305.552C431.651,305.552 433.823,305.78 435.575,306.236C437.327,306.692 438.851,307.232 440.147,307.856L438.779,312.608C437.675,312.08 436.343,311.612 434.783,311.204C433.223,310.796 431.555,310.592 429.779,310.592C427.667,310.592 426.119,310.952 425.135,311.672C424.151,312.392 423.659,313.64 423.659,315.416C423.659,316.664 424.091,317.636 424.955,318.332C425.819,319.028 426.887,319.652 428.159,320.204C429.431,320.756 430.823,321.296 432.335,321.824C433.847,322.352 435.239,323.048 436.511,323.912C437.783,324.776 438.851,325.868 439.715,327.188C440.579,328.508 441.011,330.248 441.011,332.408C441.011,333.944 440.759,335.384 440.255,336.728C439.751,338.072 438.971,339.224 437.915,340.184C436.859,341.144 435.551,341.9 433.991,342.452C432.431,343.004 430.595,343.28 428.483,343.28C425.747,343.28 423.419,343.016 421.499,342.488C419.579,341.96 417.971,341.336 416.675,340.616L418.403,335.72C419.507,336.344 420.947,336.92 422.723,337.448C424.499,337.976 426.299,338.24 428.123,338.24C430.187,338.24 431.891,337.832 433.235,337.016C434.579,336.2 435.251,334.736 435.251,332.624Z" style="fill:rgb(16,137,137);fill-rule:nonzero;"/>
    <path d="M1190.6,227.868C1188.78,236.367 1194.2,244.748 1202.7,246.572C1211.19,248.396 1219.58,242.976 1221.4,234.477C1223.22,225.977 1217.8,217.597 1209.3,215.773C1200.81,213.949 1192.42,219.369 1190.6,227.868Z" style="fill:rgb(251,133,255);"/>
    <path d="M1191.86,224.229C1195.69,216.427 1205.14,213.203 1212.94,217.036C1220.75,220.868 1223.97,230.314 1220.14,238.116C1216.31,245.918 1206.86,249.141 1199.06,245.309C1191.25,241.477 1188.03,232.031 1191.86,224.229Z" style="fill:rgb(251,133,255);"/>
    <path d="M1206,231.172L1232,110L1412,219L1380,269L1293,282L1285,355.232L1183,278L1206,231.172Z" style="fill:none;stroke:rgb(251,133,255);stroke-width:6px;"/>
    <path d="M219.306,781.416C212.131,786.323 210.29,796.133 215.198,803.308C220.105,810.482 229.915,812.323 237.089,807.416C244.264,802.508 246.105,792.699 241.197,785.524C236.29,778.349 226.481,776.508 219.306,781.416Z" style="fill:rgb(255,133,133);"/>
    <path d="M564.4,791.7C572.292,788.057 581.658,791.507 585.3,799.4C588.943,807.292 585.493,816.658 577.6,820.3C569.708,823.943 560.342,820.493 556.7,812.6C553.057,804.708 556.507,795.342 564.4,791.7Z" style="fill:rgb(255,133,133);"/>
    <path d="M228.198,794.416L356,707L532,824L571,806" style="fill:none;stroke:rgb(255,133,133);stroke-width:6px;"/>
    <path d="M996.506,786.1C989.331,791.007 987.491,800.817 992.398,807.992C997.306,815.166 1007.12,817.007 1014.29,812.1C1021.47,807.192 1023.31,797.383 1018.4,790.208C1013.49,783.033 1003.68,781.192 996.506,786.1Z" style="fill:rgb(255,133,133);"/>
    <path d="M1343.58,795.394C1351.46,791.739 1360.84,795.175 1364.49,803.062C1368.15,810.949 1364.71,820.319 1356.82,823.974C1348.94,827.629 1339.57,824.193 1335.91,816.306C1332.26,808.419 1335.69,799.049 1343.58,795.394Z" style="fill:rgb(255,133,133);"/>
    <path d="M1005.4,799.1L1133.2,711.684L1309.2,828.684L1350.2,809.684" style="fill:none;stroke:rgb(255,133,133);stroke-width:6px;"/>
    <path d="M145.529,122.231C137.894,118.075 128.322,120.9 124.166,128.535C120.011,136.171 122.836,145.743 130.471,149.898C138.106,154.054 147.678,151.229 151.834,143.593C155.989,135.958 153.164,126.386 145.529,122.231Z" style="fill:rgb(251,133,255);"/>
    <path d="M111.018,329.588C115.815,336.837 113.825,346.617 106.576,351.415C99.327,356.212 89.547,354.222 84.75,346.973C79.952,339.724 81.943,329.943 89.192,325.146C96.441,320.349 106.221,322.339 111.018,329.588Z" style="fill:rgb(251,133,255);"/>
    <path d="M138,136.064L279.362,213L66.198,290.401L97.884,338.28" style="fill:none;stroke:rgb(251,133,255);stroke-width:6px;"/>
    <path d="M103.875,349.26C110.214,345.669 112.445,337.608 108.855,331.269C105.264,324.93 97.203,322.699 90.864,326.289C84.525,329.88 82.293,337.941 85.884,344.28C89.474,350.619 97.536,352.851 103.875,349.26Z" style="fill:none;stroke:rgb(45,231,231);stroke-width:6px;stroke-linejoin:miter;"/>
    <path d="M286.994,280.378C295.235,277.615 304.17,282.063 306.933,290.305C309.696,298.547 305.248,307.481 297.006,310.244C288.765,313.007 279.83,308.559 277.067,300.317C274.304,292.076 278.752,283.141 286.994,280.378Z" style="fill:rgb(45,231,231);"/>
    <path d="M85.884,344.28L1.236,392.228L184.846,483.409L232.461,315.272L292,295.311" style="fill:none;stroke:rgb(45,231,231);stroke-width:6px;"/>
    <path d="M467.402,348.251C470.145,356.5 479.069,360.969 487.317,358.225C495.566,355.482 500.035,346.558 497.292,338.31C494.548,330.061 485.624,325.592 477.376,328.335C469.127,331.079 464.658,340.003 467.402,348.251Z" style="fill:rgb(251,133,255);"/>
    <path d="M518.983,149.925C511.333,145.797 508.474,136.235 512.602,128.585C516.73,120.935 526.292,118.076 533.942,122.204C541.592,126.332 544.451,135.894 540.324,143.544C536.196,151.194 526.633,154.053 518.983,149.925Z" style="fill:rgb(251,133,255);"/>
    <path d="M482.347,343.28L460.025,276.17L667.395,212.112L526.463,136.064" style="fill:none;stroke:rgb(251,133,255);stroke-width:6px;"/>
    <path d="M479.634,330.201C472.517,331.755 468,338.796 469.554,345.913C471.109,353.031 478.149,357.547 485.267,355.993C492.384,354.438 496.901,347.398 495.347,340.28C493.792,333.163 486.752,328.646 479.634,330.201Z" style="fill:none;stroke:rgb(45,231,231);stroke-width:6px;stroke-linejoin:miter;"/>
    <path d="M495.347,340.28L634,310L656,387.96L585,389.36L527,503L410,434L418,360L468.347,347.28" style="fill:none;stroke:rgb(45,231,231);stroke-width:6px;"/>
    <path d="M1025.15,358.665C1016.64,356.924 1008.31,362.424 1006.57,370.941C1004.83,379.457 1010.33,387.785 1018.85,389.527C1027.36,391.268 1035.69,385.767 1037.43,377.251C1039.17,368.735 1033.67,360.406 1025.15,358.665Z" style="fill:rgb(110,195,0);"/>
    <path d="M1024.79,358.596C1033.35,360.138 1039.04,368.335 1037.5,376.89C1035.96,385.445 1027.76,391.138 1019.21,389.596C1010.65,388.054 1004.96,379.856 1006.5,371.301C1008.04,362.747 1016.24,357.053 1024.79,358.596Z" style="fill:rgb(110,195,0);"/>
    <path d="M1022,374.096L1090,388L1183,355.232L1279,440L1183.38,472L946,415L966,364L1022,374.096Z" style="fill:none;stroke:rgb(110,195,0);stroke-width:6px;"/>
    <path d="M427.036,666.766C419.561,662.33 409.89,664.799 405.455,672.275C401.019,679.751 403.488,689.421 410.964,693.856C418.439,698.292 428.11,695.823 432.545,688.348C436.981,680.872 434.512,671.201 427.036,666.766Z" style="fill:rgb(169,56,255);"/>
    <path d="M585.628,811.838C582.406,819.911 573.236,823.85 565.162,820.628C557.089,817.406 553.15,808.236 556.372,800.162C559.594,792.089 568.764,788.15 576.838,791.372C584.911,794.594 588.85,803.764 585.628,811.838Z" style="fill:rgb(169,56,255);"/>
    <path d="M419,680.311L468.888,709.909L573,694.66L596.017,743.311L571,806" style="fill:none;stroke:rgb(169,56,255);stroke-width:6px;"/>
    <path d="M1204.24,671.45C1196.76,667.014 1187.09,669.483 1182.65,676.959C1178.22,684.435 1180.69,694.105 1188.16,698.541C1195.64,702.976 1205.31,700.507 1209.75,693.032C1214.18,685.556 1211.71,675.885 1204.24,671.45Z" style="fill:rgb(169,56,255);"/>
    <path d="M1361.76,817.08C1358.45,825.116 1349.23,828.949 1341.19,825.634C1333.16,822.32 1329.33,813.105 1332.64,805.069C1335.95,797.033 1345.17,793.2 1353.21,796.514C1361.24,799.829 1365.08,809.044 1361.76,817.08Z" style="fill:rgb(169,56,255);"/>
    <path d="M1196.2,684.995L1246.09,714.593L1350.2,699.344L1373.22,747.995L1347.2,811.074" style="fill:none;stroke:rgb(169,56,255);stroke-width:6px;"/>
    <path d="M151.651,1055.59C143.696,1059.09 140.082,1068.39 143.586,1076.35C147.09,1084.3 156.394,1087.92 164.349,1084.41C172.304,1080.91 175.918,1071.61 172.414,1063.65C168.91,1055.7 159.606,1052.08 151.651,1055.59Z" style="fill:rgb(255,189,21);"/>
    <path d="M553.855,1015.4C562.466,1014.21 570.419,1020.24 571.603,1028.86C572.787,1037.47 566.757,1045.42 558.145,1046.6C549.534,1047.79 541.581,1041.76 540.397,1033.14C539.213,1024.53 545.243,1016.58 553.855,1015.4Z" style="fill:rgb(255,189,21);"/>
    <path d="M158,1070L232.92,1037L320,1042L353,922L452,923L476,1042L556,1031" style="fill:none;stroke:rgb(255,189,21);stroke-width:6px;"/>
    <path d="M927.763,1061.31C919.83,1064.86 916.273,1074.19 919.826,1082.12C923.379,1090.06 932.704,1093.61 940.638,1090.06C948.571,1086.51 952.128,1077.18 948.575,1069.25C945.022,1061.31 935.697,1057.76 927.763,1061.31Z" style="fill:rgb(255,189,21);"/>
    <path d="M1331.06,1020.08C1339.67,1018.9 1347.62,1024.93 1348.8,1033.54C1349.99,1042.15 1343.96,1050.1 1335.35,1051.29C1326.73,1052.47 1318.78,1046.44 1317.6,1037.83C1316.41,1029.22 1322.44,1021.26 1331.06,1020.08Z" style="fill:rgb(255,189,21);"/>
    <path d="M934.2,1075.68L1010.12,1041.68L1097.2,1046.68L1130.2,926.684L1229.2,927.684L1253.2,1046.68L1333.2,1035.68" style="fill:none;stroke:rgb(255,189,21);stroke-width:6px;"/>
    <path d="M542.532,1022.83C538.025,1030.27 540.401,1039.96 547.834,1044.47C555.267,1048.97 564.961,1046.6 569.468,1039.17C573.975,1031.73 571.599,1022.04 564.166,1017.53C556.733,1013.02 547.039,1015.4 542.532,1022.83Z" style="fill:rgb(16,137,137);"/>
    <path d="M555.254,806.358C555.057,797.667 561.952,790.452 570.642,790.254C579.333,790.057 586.548,796.952 586.746,805.642C586.943,814.333 580.048,821.548 571.358,821.746C562.667,821.943 555.452,815.048 555.254,806.358Z" style="fill:rgb(16,137,137);"/>
    <path d="M556,1031L596.017,965L573,894L571,806" style="fill:none;stroke:rgb(16,137,137);stroke-width:6px;"/>
    <path d="M1319.73,1027.52C1315.23,1034.95 1317.6,1044.64 1325.04,1049.15C1332.47,1053.66 1342.16,1051.28 1346.67,1043.85C1351.17,1036.42 1348.8,1026.72 1341.37,1022.22C1333.93,1017.71 1324.24,1020.09 1319.73,1027.52Z" style="fill:rgb(16,137,137);"/>
    <path d="M1331.46,811.613C1331.16,802.926 1337.97,795.631 1346.66,795.333C1355.35,795.036 1362.64,801.848 1362.94,810.535C1363.24,819.223 1356.43,826.518 1347.74,826.815C1339.05,827.113 1331.76,820.301 1331.46,811.613Z" style="fill:rgb(16,137,137);"/>
    <path d="M1333.2,1035.68L1373.22,969.684L1350.2,898.684L1347.2,811.074" style="fill:none;stroke:rgb(16,137,137);stroke-width:6px;"/>
    <path d="M918.551,1073.9C917.569,1082.54 923.783,1090.35 932.42,1091.33C941.056,1092.32 948.867,1086.1 949.849,1077.46C950.832,1068.83 944.618,1061.02 935.981,1060.04C927.344,1059.05 919.534,1065.27 918.551,1073.9Z" style="fill:rgb(110,195,0);"/>
    <path d="M992.887,789.276C997.702,782.039 1007.49,780.072 1014.72,784.887C1021.96,789.702 1023.93,799.487 1019.11,806.724C1014.3,813.961 1004.51,815.928 997.276,811.113C990.039,806.298 988.072,796.513 992.887,789.276Z" style="fill:rgb(110,195,0);"/>
    <path d="M934.2,1075.68L946,972L904.125,826L931,794.074L982,834.074L1006,798" style="fill:none;stroke:rgb(110,195,0);stroke-width:6px;"/>
    <path d="M1017.76,845.405C1009.71,842.137 1000.52,846.024 997.249,854.079C993.981,862.134 997.867,871.327 1005.92,874.595C1013.98,877.863 1023.17,873.976 1026.44,865.921C1029.71,857.866 1025.82,848.673 1017.76,845.405Z" style="fill:rgb(45,231,231);"/>
    <path d="M1001.9,847.784C1008.64,842.297 1018.57,843.317 1024.06,850.059C1029.55,856.802 1028.53,866.73 1021.78,872.216C1015.04,877.703 1005.11,876.683 999.627,869.941C994.14,863.198 995.16,853.27 1001.9,847.784Z" style="fill:rgb(45,231,231);"/>
    <path d="M1011.84,860L1071,884L1075,954L1011.84,966L959,903L1011.84,860Z" style="fill:none;stroke:rgb(45,231,231);stroke-width:6px;"/>
</svg>
