<?xml version="1.0" encoding="UTF-8" standalone="no"?>
<!DOCTYPE svg PUBLIC "-//W3C//DTD SVG 1.1//EN" "http://www.w3.org/Graphics/SVG/1.1/DTD/svg11.dtd">
<svg width="100%" height="100%" viewBox="0 0 691 1294" version="1.1" xmlns="http://www.w3.org/2000/svg" xmlns:xlink="http://www.w3.org/1999/xlink" xml:space="preserve" xmlns:serif="http://www.serif.com/" style="fill-rule:evenodd;clip-rule:evenodd;stroke-linejoin:round;stroke-miterlimit:10;">
    <rect id="Spatial-Databases-2" serif:id="Spatial Databases 2" x="-3050.91" y="-2968" width="3858" height="5937" style="fill:none;"/>
    <g transform="matrix(1,0,0,1,-9923.6,-447.477)">
        <g transform="matrix(72,0,0,72,10069.5,508.377)">
            <path d="M0.674,0.125L0.577,0.125L0.562,-0L0.112,-0L0.097,0.125L0,0.125L0,-0.122L0.074,-0.122C0.079,-0.129 0.086,-0.146 0.097,-0.171C0.108,-0.196 0.118,-0.232 0.129,-0.279C0.14,-0.325 0.149,-0.383 0.156,-0.453C0.163,-0.522 0.167,-0.605 0.166,-0.7L0.585,-0.7L0.585,-0.122L0.674,-0.122L0.674,0.125ZM0.448,-0.122L0.448,-0.578L0.293,-0.578C0.289,-0.459 0.28,-0.362 0.265,-0.287C0.249,-0.211 0.234,-0.156 0.219,-0.122L0.448,-0.122Z" style="fill-rule:nonzero;"/>
        </g>
        <g transform="matrix(72,0,0,72,10119.3,508.377)">
            <path d="M0.033,-0.25C0.033,-0.335 0.054,-0.4 0.095,-0.446C0.136,-0.491 0.194,-0.514 0.269,-0.514C0.309,-0.514 0.344,-0.508 0.373,-0.495C0.402,-0.482 0.427,-0.464 0.446,-0.442C0.465,-0.419 0.48,-0.391 0.49,-0.358C0.499,-0.325 0.504,-0.289 0.504,-0.25C0.504,-0.165 0.484,-0.1 0.443,-0.055C0.401,-0.009 0.344,0.014 0.269,0.014C0.229,0.014 0.194,0.008 0.165,-0.005C0.136,-0.018 0.111,-0.036 0.092,-0.059C0.072,-0.082 0.057,-0.109 0.048,-0.142C0.038,-0.175 0.033,-0.211 0.033,-0.25ZM0.167,-0.25C0.167,-0.228 0.169,-0.208 0.173,-0.189C0.177,-0.17 0.183,-0.154 0.191,-0.14C0.199,-0.126 0.21,-0.115 0.223,-0.108C0.236,-0.1 0.251,-0.096 0.269,-0.096C0.303,-0.096 0.328,-0.108 0.345,-0.133C0.362,-0.158 0.37,-0.197 0.37,-0.25C0.37,-0.296 0.362,-0.333 0.347,-0.362C0.332,-0.39 0.306,-0.404 0.269,-0.404C0.237,-0.404 0.212,-0.392 0.194,-0.368C0.176,-0.344 0.167,-0.305 0.167,-0.25Z" style="fill-rule:nonzero;"/>
        </g>
        <g transform="matrix(72,0,0,72,10157.9,508.377)">
            <path d="M0.345,-0.385L0.187,-0.385L0.187,-0L0.057,-0L0.057,-0.5L0.475,-0.5L0.475,-0L0.345,-0L0.345,-0.385Z" style="fill-rule:nonzero;"/>
        </g>
        <g transform="matrix(72,0,0,72,10196.2,508.377)">
            <path d="M0.239,-0.219L0.257,-0.141L0.263,-0.141L0.276,-0.22L0.352,-0.5L0.486,-0.5L0.334,-0.049C0.321,-0.012 0.309,0.023 0.298,0.054C0.286,0.085 0.273,0.111 0.259,0.134C0.245,0.157 0.23,0.174 0.213,0.187C0.196,0.199 0.175,0.205 0.152,0.205C0.117,0.205 0.09,0.199 0.069,0.188L0.093,0.084C0.103,0.088 0.113,0.09 0.123,0.09C0.138,0.09 0.153,0.084 0.168,0.071C0.182,0.058 0.193,0.034 0.2,-0L-0.009,-0.5L0.147,-0.5L0.239,-0.219Z" style="fill-rule:nonzero;"/>
        </g>
        <g transform="matrix(72,0,0,72,10230.6,508.377)">
            <path d="M0.411,-0.031C0.391,-0.016 0.367,-0.005 0.339,0.003C0.31,0.01 0.281,0.014 0.251,0.014C0.211,0.014 0.177,0.008 0.15,-0.005C0.122,-0.018 0.099,-0.036 0.082,-0.059C0.065,-0.082 0.052,-0.109 0.045,-0.142C0.037,-0.175 0.033,-0.211 0.033,-0.25C0.033,-0.335 0.052,-0.4 0.09,-0.446C0.128,-0.491 0.183,-0.514 0.256,-0.514C0.293,-0.514 0.322,-0.511 0.345,-0.505C0.367,-0.499 0.387,-0.491 0.405,-0.482L0.374,-0.376C0.359,-0.383 0.343,-0.389 0.329,-0.393C0.314,-0.397 0.296,-0.399 0.277,-0.399C0.241,-0.399 0.214,-0.387 0.195,-0.364C0.176,-0.34 0.167,-0.302 0.167,-0.25C0.167,-0.229 0.169,-0.209 0.174,-0.191C0.179,-0.173 0.186,-0.157 0.195,-0.144C0.204,-0.131 0.217,-0.12 0.232,-0.113C0.247,-0.105 0.264,-0.101 0.284,-0.101C0.306,-0.101 0.325,-0.104 0.34,-0.11C0.355,-0.115 0.369,-0.122 0.381,-0.13L0.411,-0.031Z" style="fill-rule:nonzero;"/>
        </g>
        <g transform="matrix(72,0,0,72,10261.8,508.377)">
            <path d="M0.417,-0.385L0.278,-0.385L0.278,-0L0.144,-0L0.144,-0.385L0.001,-0.385L0.001,-0.5L0.417,-0.5L0.417,-0.385Z" style="fill-rule:nonzero;"/>
        </g>
        <g transform="matrix(72,0,0,72,10291.9,508.377)">
            <path d="M0.358,-0.228L0.363,-0.299L0.36,-0.299L0.317,-0.226L0.139,-0L0.057,-0L0.057,-0.5L0.187,-0.5L0.187,-0.262L0.181,-0.194L0.185,-0.194L0.226,-0.265L0.406,-0.5L0.488,-0.5L0.488,-0L0.358,-0L0.358,-0.228Z" style="fill-rule:nonzero;"/>
        </g>
        <g transform="matrix(72,0,0,72,10331.2,508.377)">
            <path d="M0.485,-0.229L0.493,-0.333L0.488,-0.333L0.448,-0.247L0.354,-0.092L0.307,-0.092L0.204,-0.247L0.166,-0.333L0.16,-0.333L0.173,-0.23L0.173,-0L0.057,-0L0.057,-0.5L0.192,-0.5L0.307,-0.312L0.335,-0.249L0.339,-0.249L0.368,-0.314L0.474,-0.5L0.61,-0.5L0.61,-0L0.485,-0L0.485,-0.229Z" style="fill-rule:nonzero;"/>
        </g>
        <g transform="matrix(72,0,0,72,10379.1,508.377)">
            <path d="M0.187,-0.109C0.207,-0.105 0.226,-0.103 0.244,-0.103C0.274,-0.103 0.295,-0.109 0.307,-0.12C0.319,-0.131 0.325,-0.148 0.325,-0.171C0.325,-0.192 0.319,-0.209 0.307,-0.22C0.295,-0.231 0.275,-0.236 0.247,-0.236C0.225,-0.236 0.205,-0.234 0.187,-0.229L0.187,-0.109ZM0.187,-0.322C0.203,-0.325 0.219,-0.327 0.236,-0.328C0.252,-0.329 0.267,-0.329 0.28,-0.329C0.314,-0.329 0.342,-0.325 0.365,-0.318C0.388,-0.31 0.406,-0.299 0.42,-0.285C0.434,-0.271 0.444,-0.255 0.45,-0.236C0.456,-0.217 0.459,-0.196 0.459,-0.174C0.459,-0.144 0.455,-0.118 0.447,-0.095C0.439,-0.072 0.426,-0.054 0.408,-0.039C0.39,-0.024 0.367,-0.012 0.338,-0.005C0.309,0.003 0.274,0.007 0.232,0.007C0.194,0.007 0.161,0.006 0.134,0.005C0.106,0.004 0.08,0.002 0.057,-0L0.057,-0.5L0.187,-0.5L0.187,-0.322ZM0.516,-0.5L0.646,-0.5L0.646,-0L0.516,-0L0.516,-0.5Z" style="fill-rule:nonzero;"/>
        </g>
        <g transform="matrix(72,0,0,72,10429.7,508.377)">
            <path d="M0.457,-0.043C0.437,-0.027 0.41,-0.014 0.376,-0.003C0.341,0.009 0.305,0.014 0.266,0.014C0.185,0.014 0.126,-0.01 0.089,-0.057C0.052,-0.103 0.033,-0.168 0.033,-0.25C0.033,-0.338 0.054,-0.404 0.096,-0.448C0.138,-0.492 0.197,-0.514 0.273,-0.514C0.298,-0.514 0.323,-0.511 0.347,-0.504C0.371,-0.497 0.392,-0.486 0.411,-0.471C0.43,-0.456 0.445,-0.435 0.456,-0.409C0.467,-0.383 0.473,-0.351 0.473,-0.312C0.473,-0.298 0.472,-0.283 0.471,-0.267C0.469,-0.251 0.466,-0.234 0.463,-0.217L0.163,-0.217C0.165,-0.175 0.176,-0.143 0.196,-0.122C0.215,-0.101 0.247,-0.09 0.291,-0.09C0.318,-0.09 0.343,-0.094 0.365,-0.103C0.386,-0.111 0.403,-0.119 0.414,-0.128L0.457,-0.043ZM0.271,-0.41C0.237,-0.41 0.212,-0.4 0.196,-0.38C0.179,-0.359 0.169,-0.332 0.166,-0.298L0.352,-0.298C0.355,-0.334 0.349,-0.362 0.336,-0.381C0.322,-0.4 0.3,-0.41 0.271,-0.41Z" style="fill-rule:nonzero;"/>
        </g>
        <g transform="matrix(72,0,0,72,10001.7,588.945)">
            <path d="M0.485,-0.229L0.493,-0.333L0.488,-0.333L0.448,-0.247L0.354,-0.092L0.307,-0.092L0.204,-0.247L0.166,-0.333L0.16,-0.333L0.173,-0.23L0.173,-0L0.057,-0L0.057,-0.5L0.192,-0.5L0.307,-0.312L0.335,-0.249L0.339,-0.249L0.368,-0.314L0.474,-0.5L0.61,-0.5L0.61,-0L0.485,-0L0.485,-0.229Z" style="fill-rule:nonzero;"/>
        </g>
        <g transform="matrix(72,0,0,72,10049.7,588.945)">
            <path d="M0.239,-0.219L0.257,-0.141L0.263,-0.141L0.276,-0.22L0.352,-0.5L0.486,-0.5L0.334,-0.049C0.321,-0.012 0.309,0.023 0.298,0.054C0.286,0.085 0.273,0.111 0.259,0.134C0.245,0.157 0.23,0.174 0.213,0.187C0.196,0.199 0.175,0.205 0.152,0.205C0.117,0.205 0.09,0.199 0.069,0.188L0.093,0.084C0.103,0.088 0.113,0.09 0.123,0.09C0.138,0.09 0.153,0.084 0.168,0.071C0.182,0.058 0.193,0.034 0.2,-0L-0.009,-0.5L0.147,-0.5L0.239,-0.219Z" style="fill-rule:nonzero;"/>
        </g>
        <g transform="matrix(72,0,0,72,10084.1,588.945)">
            <path d="M0.329,-0.385L0.23,-0.385C0.226,-0.338 0.221,-0.291 0.216,-0.244C0.211,-0.197 0.202,-0.156 0.191,-0.119C0.179,-0.082 0.163,-0.051 0.143,-0.029C0.123,-0.006 0.097,0.006 0.065,0.006C0.026,0.006 -0.001,0.001 -0.017,-0.009L-0.001,-0.117C0.01,-0.113 0.02,-0.111 0.029,-0.111C0.042,-0.111 0.054,-0.117 0.064,-0.128C0.074,-0.139 0.083,-0.16 0.09,-0.189C0.096,-0.218 0.102,-0.258 0.107,-0.309C0.111,-0.359 0.114,-0.423 0.116,-0.5L0.459,-0.5L0.459,-0L0.329,-0L0.329,-0.385Z" style="fill-rule:nonzero;"/>
        </g>
        <g transform="matrix(72,0,0,72,10121.2,588.945)">
            <path d="M0.187,-0.109C0.207,-0.105 0.226,-0.103 0.244,-0.103C0.276,-0.103 0.299,-0.109 0.314,-0.12C0.328,-0.131 0.335,-0.148 0.335,-0.171C0.335,-0.214 0.306,-0.236 0.247,-0.236C0.225,-0.236 0.205,-0.234 0.187,-0.229L0.187,-0.109ZM0.187,-0.322C0.203,-0.325 0.219,-0.327 0.236,-0.328C0.252,-0.329 0.267,-0.329 0.28,-0.329C0.315,-0.329 0.344,-0.325 0.368,-0.318C0.392,-0.31 0.412,-0.299 0.427,-0.285C0.442,-0.271 0.452,-0.255 0.459,-0.236C0.466,-0.217 0.469,-0.196 0.469,-0.174C0.469,-0.113 0.451,-0.068 0.415,-0.038C0.379,-0.008 0.318,0.007 0.232,0.007C0.194,0.007 0.161,0.006 0.134,0.005C0.106,0.004 0.08,0.002 0.057,-0L0.057,-0.5L0.187,-0.5L0.187,-0.322Z" style="fill-rule:nonzero;"/>
        </g>
        <g transform="matrix(72,0,0,72,10156.5,588.945)">
            <path d="M0.417,-0.385L0.278,-0.385L0.278,-0L0.144,-0L0.144,-0.385L0.001,-0.385L0.001,-0.5L0.417,-0.5L0.417,-0.385Z" style="fill-rule:nonzero;"/>
        </g>
        <g transform="matrix(72,0,0,72,10186.5,588.945)">
            <path d="M0.358,-0.228L0.363,-0.299L0.36,-0.299L0.317,-0.226L0.139,-0L0.057,-0L0.057,-0.5L0.187,-0.5L0.187,-0.262L0.181,-0.194L0.185,-0.194L0.226,-0.265L0.406,-0.5L0.488,-0.5L0.488,-0L0.358,-0L0.358,-0.228Z" style="fill-rule:nonzero;"/>
        </g>
        <g transform="matrix(72,0,0,72,10225.8,588.945)">
            <path d="M0.345,-0.385L0.187,-0.385L0.187,-0L0.057,-0L0.057,-0.5L0.475,-0.5L0.475,-0L0.345,-0L0.345,-0.385Z" style="fill-rule:nonzero;"/>
        </g>
        <g transform="matrix(72,0,0,72,10264.1,588.945)">
            <path d="M0.033,-0.25C0.033,-0.335 0.054,-0.4 0.095,-0.446C0.136,-0.491 0.194,-0.514 0.269,-0.514C0.309,-0.514 0.344,-0.508 0.373,-0.495C0.402,-0.482 0.427,-0.464 0.446,-0.442C0.465,-0.419 0.48,-0.391 0.49,-0.358C0.499,-0.325 0.504,-0.289 0.504,-0.25C0.504,-0.165 0.484,-0.1 0.443,-0.055C0.401,-0.009 0.344,0.014 0.269,0.014C0.229,0.014 0.194,0.008 0.165,-0.005C0.136,-0.018 0.111,-0.036 0.092,-0.059C0.072,-0.082 0.057,-0.109 0.048,-0.142C0.038,-0.175 0.033,-0.211 0.033,-0.25ZM0.167,-0.25C0.167,-0.228 0.169,-0.208 0.173,-0.189C0.177,-0.17 0.183,-0.154 0.191,-0.14C0.199,-0.126 0.21,-0.115 0.223,-0.108C0.236,-0.1 0.251,-0.096 0.269,-0.096C0.303,-0.096 0.328,-0.108 0.345,-0.133C0.362,-0.158 0.37,-0.197 0.37,-0.25C0.37,-0.296 0.362,-0.333 0.347,-0.362C0.332,-0.39 0.306,-0.404 0.269,-0.404C0.237,-0.404 0.212,-0.392 0.194,-0.368C0.176,-0.344 0.167,-0.305 0.167,-0.25Z" style="fill-rule:nonzero;"/>
        </g>
        <g transform="matrix(72,0,0,72,10302.8,588.945)">
            <path d="M0.329,-0.385L0.23,-0.385C0.226,-0.338 0.221,-0.291 0.216,-0.244C0.211,-0.197 0.202,-0.156 0.191,-0.119C0.179,-0.082 0.163,-0.051 0.143,-0.029C0.123,-0.006 0.097,0.006 0.065,0.006C0.026,0.006 -0.001,0.001 -0.017,-0.009L-0.001,-0.117C0.01,-0.113 0.02,-0.111 0.029,-0.111C0.042,-0.111 0.054,-0.117 0.064,-0.128C0.074,-0.139 0.083,-0.16 0.09,-0.189C0.096,-0.218 0.102,-0.258 0.107,-0.309C0.111,-0.359 0.114,-0.423 0.116,-0.5L0.459,-0.5L0.459,-0L0.329,-0L0.329,-0.385Z" style="fill-rule:nonzero;"/>
        </g>
        <g transform="matrix(72,0,0,72,10339.8,588.945)">
            <path d="M0.358,-0.228L0.363,-0.299L0.36,-0.299L0.317,-0.226L0.139,-0L0.057,-0L0.057,-0.5L0.187,-0.5L0.187,-0.262L0.181,-0.194L0.185,-0.194L0.226,-0.265L0.406,-0.5L0.488,-0.5L0.488,-0L0.358,-0L0.358,-0.228Z" style="fill-rule:nonzero;"/>
        </g>
        <g transform="matrix(72,0,0,72,10379.1,588.945)">
            <path d="M0.38,-0.385L0.191,-0.385L0.191,-0L0.057,-0L0.057,-0.5L0.38,-0.5L0.38,-0.385Z" style="fill-rule:nonzero;"/>
        </g>
        <g transform="matrix(72,0,0,72,10406.1,588.945)">
            <path d="M0.033,-0.25C0.033,-0.335 0.054,-0.4 0.095,-0.446C0.136,-0.491 0.194,-0.514 0.269,-0.514C0.309,-0.514 0.344,-0.508 0.373,-0.495C0.402,-0.482 0.427,-0.464 0.446,-0.442C0.465,-0.419 0.48,-0.391 0.49,-0.358C0.499,-0.325 0.504,-0.289 0.504,-0.25C0.504,-0.165 0.484,-0.1 0.443,-0.055C0.401,-0.009 0.344,0.014 0.269,0.014C0.229,0.014 0.194,0.008 0.165,-0.005C0.136,-0.018 0.111,-0.036 0.092,-0.059C0.072,-0.082 0.057,-0.109 0.048,-0.142C0.038,-0.175 0.033,-0.211 0.033,-0.25ZM0.167,-0.25C0.167,-0.228 0.169,-0.208 0.173,-0.189C0.177,-0.17 0.183,-0.154 0.191,-0.14C0.199,-0.126 0.21,-0.115 0.223,-0.108C0.236,-0.1 0.251,-0.096 0.269,-0.096C0.303,-0.096 0.328,-0.108 0.345,-0.133C0.362,-0.158 0.37,-0.197 0.37,-0.25C0.37,-0.296 0.362,-0.333 0.347,-0.362C0.332,-0.39 0.306,-0.404 0.269,-0.404C0.237,-0.404 0.212,-0.392 0.194,-0.368C0.176,-0.344 0.167,-0.305 0.167,-0.25Z" style="fill-rule:nonzero;"/>
        </g>
        <g transform="matrix(72,0,0,72,10444.8,588.945)">
            <path d="M0.35,-0.196L0.187,-0.196L0.187,-0L0.057,-0L0.057,-0.5L0.187,-0.5L0.187,-0.312L0.35,-0.312L0.35,-0.5L0.48,-0.5L0.48,-0L0.35,-0L0.35,-0.196Z" style="fill-rule:nonzero;"/>
        </g>
        <g transform="matrix(72,0,0,72,10483.5,588.945)">
            <path d="M0.187,-0.109C0.207,-0.105 0.226,-0.103 0.244,-0.103C0.274,-0.103 0.295,-0.109 0.307,-0.12C0.319,-0.131 0.325,-0.148 0.325,-0.171C0.325,-0.192 0.319,-0.209 0.307,-0.22C0.295,-0.231 0.275,-0.236 0.247,-0.236C0.225,-0.236 0.205,-0.234 0.187,-0.229L0.187,-0.109ZM0.187,-0.322C0.203,-0.325 0.219,-0.327 0.236,-0.328C0.252,-0.329 0.267,-0.329 0.28,-0.329C0.314,-0.329 0.342,-0.325 0.365,-0.318C0.388,-0.31 0.406,-0.299 0.42,-0.285C0.434,-0.271 0.444,-0.255 0.45,-0.236C0.456,-0.217 0.459,-0.196 0.459,-0.174C0.459,-0.144 0.455,-0.118 0.447,-0.095C0.439,-0.072 0.426,-0.054 0.408,-0.039C0.39,-0.024 0.367,-0.012 0.338,-0.005C0.309,0.003 0.274,0.007 0.232,0.007C0.194,0.007 0.161,0.006 0.134,0.005C0.106,0.004 0.08,0.002 0.057,-0L0.057,-0.5L0.187,-0.5L0.187,-0.322ZM0.516,-0.5L0.646,-0.5L0.646,-0L0.516,-0L0.516,-0.5Z" style="fill-rule:nonzero;"/>
        </g>
    </g>
    <g transform="matrix(1,0,0,1,-9923.6,230.445)">
        <g transform="matrix(72,0,0,72,10032.2,508.377)">
            <path d="M0.453,-0.293L0.197,-0.293L0.197,-0L0.06,-0L0.06,-0.7L0.197,-0.7L0.197,-0.415L0.453,-0.415L0.453,-0.7L0.59,-0.7L0.59,-0L0.453,-0L0.453,-0.293Z" style="fill-rule:nonzero;"/>
        </g>
        <g transform="matrix(72,0,0,72,10079.1,508.377)">
            <path d="M0.457,-0.043C0.437,-0.027 0.41,-0.014 0.376,-0.003C0.341,0.009 0.305,0.014 0.266,0.014C0.185,0.014 0.126,-0.01 0.089,-0.057C0.052,-0.103 0.033,-0.168 0.033,-0.25C0.033,-0.338 0.054,-0.404 0.096,-0.448C0.138,-0.492 0.197,-0.514 0.273,-0.514C0.298,-0.514 0.323,-0.511 0.347,-0.504C0.371,-0.497 0.392,-0.486 0.411,-0.471C0.43,-0.456 0.445,-0.435 0.456,-0.409C0.467,-0.383 0.473,-0.351 0.473,-0.312C0.473,-0.298 0.472,-0.283 0.471,-0.267C0.469,-0.251 0.466,-0.234 0.463,-0.217L0.163,-0.217C0.165,-0.175 0.176,-0.143 0.196,-0.122C0.215,-0.101 0.247,-0.09 0.291,-0.09C0.318,-0.09 0.343,-0.094 0.365,-0.103C0.386,-0.111 0.403,-0.119 0.414,-0.128L0.457,-0.043ZM0.271,-0.41C0.237,-0.41 0.212,-0.4 0.196,-0.38C0.179,-0.359 0.169,-0.332 0.166,-0.298L0.352,-0.298C0.355,-0.334 0.349,-0.362 0.336,-0.381C0.322,-0.4 0.3,-0.41 0.271,-0.41Z" style="fill-rule:nonzero;"/>
        </g>
        <g transform="matrix(72,0,0,72,10115.7,508.377)">
            <path d="M0.554,0.114L0.459,0.114L0.444,-0L0.108,-0L0.093,0.114L-0.002,0.114L-0.002,-0.115L0.057,-0.115C0.062,-0.122 0.069,-0.135 0.078,-0.153C0.086,-0.17 0.094,-0.194 0.103,-0.225C0.111,-0.256 0.118,-0.294 0.124,-0.339C0.13,-0.384 0.133,-0.438 0.133,-0.5L0.481,-0.5L0.481,-0.115L0.554,-0.115L0.554,0.114ZM0.351,-0.109L0.351,-0.39L0.246,-0.39C0.245,-0.366 0.242,-0.341 0.239,-0.314C0.236,-0.287 0.232,-0.26 0.227,-0.235C0.222,-0.21 0.216,-0.186 0.209,-0.164C0.202,-0.142 0.195,-0.124 0.187,-0.109L0.351,-0.109Z" style="fill-rule:nonzero;"/>
        </g>
        <g transform="matrix(72,0,0,72,10156.6,508.377)">
            <path d="M0.033,-0.25C0.033,-0.335 0.054,-0.4 0.095,-0.446C0.136,-0.491 0.194,-0.514 0.269,-0.514C0.309,-0.514 0.344,-0.508 0.373,-0.495C0.402,-0.482 0.427,-0.464 0.446,-0.442C0.465,-0.419 0.48,-0.391 0.49,-0.358C0.499,-0.325 0.504,-0.289 0.504,-0.25C0.504,-0.165 0.484,-0.1 0.443,-0.055C0.401,-0.009 0.344,0.014 0.269,0.014C0.229,0.014 0.194,0.008 0.165,-0.005C0.136,-0.018 0.111,-0.036 0.092,-0.059C0.072,-0.082 0.057,-0.109 0.048,-0.142C0.038,-0.175 0.033,-0.211 0.033,-0.25ZM0.167,-0.25C0.167,-0.228 0.169,-0.208 0.173,-0.189C0.177,-0.17 0.183,-0.154 0.191,-0.14C0.199,-0.126 0.21,-0.115 0.223,-0.108C0.236,-0.1 0.251,-0.096 0.269,-0.096C0.303,-0.096 0.328,-0.108 0.345,-0.133C0.362,-0.158 0.37,-0.197 0.37,-0.25C0.37,-0.296 0.362,-0.333 0.347,-0.362C0.332,-0.39 0.306,-0.404 0.269,-0.404C0.237,-0.404 0.212,-0.392 0.194,-0.368C0.176,-0.344 0.167,-0.305 0.167,-0.25Z" style="fill-rule:nonzero;"/>
        </g>
        <g transform="matrix(72,0,0,72,10195.2,508.377)">
            <path d="M0.345,-0.385L0.187,-0.385L0.187,-0L0.057,-0L0.057,-0.5L0.475,-0.5L0.475,-0L0.345,-0L0.345,-0.385Z" style="fill-rule:nonzero;"/>
        </g>
        <g transform="matrix(72,0,0,72,10233.5,508.377)">
            <path d="M0.239,-0.219L0.257,-0.141L0.263,-0.141L0.276,-0.22L0.352,-0.5L0.486,-0.5L0.334,-0.049C0.321,-0.012 0.309,0.023 0.298,0.054C0.286,0.085 0.273,0.111 0.259,0.134C0.245,0.157 0.23,0.174 0.213,0.187C0.196,0.199 0.175,0.205 0.152,0.205C0.117,0.205 0.09,0.199 0.069,0.188L0.093,0.084C0.103,0.088 0.113,0.09 0.123,0.09C0.138,0.09 0.153,0.084 0.168,0.071C0.182,0.058 0.193,0.034 0.2,-0L-0.009,-0.5L0.147,-0.5L0.239,-0.219Z" style="fill-rule:nonzero;"/>
        </g>
        <g transform="matrix(72,0,0,72,10267.9,508.377)">
            <path d="M0.411,-0.031C0.391,-0.016 0.367,-0.005 0.339,0.003C0.31,0.01 0.281,0.014 0.251,0.014C0.211,0.014 0.177,0.008 0.15,-0.005C0.122,-0.018 0.099,-0.036 0.082,-0.059C0.065,-0.082 0.052,-0.109 0.045,-0.142C0.037,-0.175 0.033,-0.211 0.033,-0.25C0.033,-0.335 0.052,-0.4 0.09,-0.446C0.128,-0.491 0.183,-0.514 0.256,-0.514C0.293,-0.514 0.322,-0.511 0.345,-0.505C0.367,-0.499 0.387,-0.491 0.405,-0.482L0.374,-0.376C0.359,-0.383 0.343,-0.389 0.329,-0.393C0.314,-0.397 0.296,-0.399 0.277,-0.399C0.241,-0.399 0.214,-0.387 0.195,-0.364C0.176,-0.34 0.167,-0.302 0.167,-0.25C0.167,-0.229 0.169,-0.209 0.174,-0.191C0.179,-0.173 0.186,-0.157 0.195,-0.144C0.204,-0.131 0.217,-0.12 0.232,-0.113C0.247,-0.105 0.264,-0.101 0.284,-0.101C0.306,-0.101 0.325,-0.104 0.34,-0.11C0.355,-0.115 0.369,-0.122 0.381,-0.13L0.411,-0.031Z" style="fill-rule:nonzero;"/>
        </g>
        <g transform="matrix(72,0,0,72,10299.1,508.377)">
            <path d="M0.417,-0.385L0.278,-0.385L0.278,-0L0.144,-0L0.144,-0.385L0.001,-0.385L0.001,-0.5L0.417,-0.5L0.417,-0.385Z" style="fill-rule:nonzero;"/>
        </g>
        <g transform="matrix(72,0,0,72,10329.2,508.377)">
            <path d="M0.358,-0.228L0.363,-0.299L0.36,-0.299L0.317,-0.226L0.139,-0L0.057,-0L0.057,-0.5L0.187,-0.5L0.187,-0.262L0.181,-0.194L0.185,-0.194L0.226,-0.265L0.406,-0.5L0.488,-0.5L0.488,-0L0.358,-0L0.358,-0.228Z" style="fill-rule:nonzero;"/>
        </g>
        <g transform="matrix(72,0,0,72,10368.5,508.377)">
            <path d="M0.485,-0.229L0.493,-0.333L0.488,-0.333L0.448,-0.247L0.354,-0.092L0.307,-0.092L0.204,-0.247L0.166,-0.333L0.16,-0.333L0.173,-0.23L0.173,-0L0.057,-0L0.057,-0.5L0.192,-0.5L0.307,-0.312L0.335,-0.249L0.339,-0.249L0.368,-0.314L0.474,-0.5L0.61,-0.5L0.61,-0L0.485,-0L0.485,-0.229Z" style="fill-rule:nonzero;"/>
        </g>
        <g transform="matrix(72,0,0,72,10416.4,508.377)">
            <path d="M0.187,-0.109C0.207,-0.105 0.226,-0.103 0.244,-0.103C0.274,-0.103 0.295,-0.109 0.307,-0.12C0.319,-0.131 0.325,-0.148 0.325,-0.171C0.325,-0.192 0.319,-0.209 0.307,-0.22C0.295,-0.231 0.275,-0.236 0.247,-0.236C0.225,-0.236 0.205,-0.234 0.187,-0.229L0.187,-0.109ZM0.187,-0.322C0.203,-0.325 0.219,-0.327 0.236,-0.328C0.252,-0.329 0.267,-0.329 0.28,-0.329C0.314,-0.329 0.342,-0.325 0.365,-0.318C0.388,-0.31 0.406,-0.299 0.42,-0.285C0.434,-0.271 0.444,-0.255 0.45,-0.236C0.456,-0.217 0.459,-0.196 0.459,-0.174C0.459,-0.144 0.455,-0.118 0.447,-0.095C0.439,-0.072 0.426,-0.054 0.408,-0.039C0.39,-0.024 0.367,-0.012 0.338,-0.005C0.309,0.003 0.274,0.007 0.232,0.007C0.194,0.007 0.161,0.006 0.134,0.005C0.106,0.004 0.08,0.002 0.057,-0L0.057,-0.5L0.187,-0.5L0.187,-0.322ZM0.516,-0.5L0.646,-0.5L0.646,-0L0.516,-0L0.516,-0.5Z" style="fill-rule:nonzero;"/>
        </g>
        <g transform="matrix(72,0,0,72,10467,508.377)">
            <path d="M0.457,-0.043C0.437,-0.027 0.41,-0.014 0.376,-0.003C0.341,0.009 0.305,0.014 0.266,0.014C0.185,0.014 0.126,-0.01 0.089,-0.057C0.052,-0.103 0.033,-0.168 0.033,-0.25C0.033,-0.338 0.054,-0.404 0.096,-0.448C0.138,-0.492 0.197,-0.514 0.273,-0.514C0.298,-0.514 0.323,-0.511 0.347,-0.504C0.371,-0.497 0.392,-0.486 0.411,-0.471C0.43,-0.456 0.445,-0.435 0.456,-0.409C0.467,-0.383 0.473,-0.351 0.473,-0.312C0.473,-0.298 0.472,-0.283 0.471,-0.267C0.469,-0.251 0.466,-0.234 0.463,-0.217L0.163,-0.217C0.165,-0.175 0.176,-0.143 0.196,-0.122C0.215,-0.101 0.247,-0.09 0.291,-0.09C0.318,-0.09 0.343,-0.094 0.365,-0.103C0.386,-0.111 0.403,-0.119 0.414,-0.128L0.457,-0.043ZM0.271,-0.41C0.237,-0.41 0.212,-0.4 0.196,-0.38C0.179,-0.359 0.169,-0.332 0.166,-0.298L0.352,-0.298C0.355,-0.334 0.349,-0.362 0.336,-0.381C0.322,-0.4 0.3,-0.41 0.271,-0.41Z" style="fill-rule:nonzero;"/>
        </g>
        <g transform="matrix(72,0,0,72,10001.7,588.945)">
            <path d="M0.485,-0.229L0.493,-0.333L0.488,-0.333L0.448,-0.247L0.354,-0.092L0.307,-0.092L0.204,-0.247L0.166,-0.333L0.16,-0.333L0.173,-0.23L0.173,-0L0.057,-0L0.057,-0.5L0.192,-0.5L0.307,-0.312L0.335,-0.249L0.339,-0.249L0.368,-0.314L0.474,-0.5L0.61,-0.5L0.61,-0L0.485,-0L0.485,-0.229Z" style="fill-rule:nonzero;"/>
        </g>
        <g transform="matrix(72,0,0,72,10049.7,588.945)">
            <path d="M0.239,-0.219L0.257,-0.141L0.263,-0.141L0.276,-0.22L0.352,-0.5L0.486,-0.5L0.334,-0.049C0.321,-0.012 0.309,0.023 0.298,0.054C0.286,0.085 0.273,0.111 0.259,0.134C0.245,0.157 0.23,0.174 0.213,0.187C0.196,0.199 0.175,0.205 0.152,0.205C0.117,0.205 0.09,0.199 0.069,0.188L0.093,0.084C0.103,0.088 0.113,0.09 0.123,0.09C0.138,0.09 0.153,0.084 0.168,0.071C0.182,0.058 0.193,0.034 0.2,-0L-0.009,-0.5L0.147,-0.5L0.239,-0.219Z" style="fill-rule:nonzero;"/>
        </g>
        <g transform="matrix(72,0,0,72,10084.1,588.945)">
            <path d="M0.329,-0.385L0.23,-0.385C0.226,-0.338 0.221,-0.291 0.216,-0.244C0.211,-0.197 0.202,-0.156 0.191,-0.119C0.179,-0.082 0.163,-0.051 0.143,-0.029C0.123,-0.006 0.097,0.006 0.065,0.006C0.026,0.006 -0.001,0.001 -0.017,-0.009L-0.001,-0.117C0.01,-0.113 0.02,-0.111 0.029,-0.111C0.042,-0.111 0.054,-0.117 0.064,-0.128C0.074,-0.139 0.083,-0.16 0.09,-0.189C0.096,-0.218 0.102,-0.258 0.107,-0.309C0.111,-0.359 0.114,-0.423 0.116,-0.5L0.459,-0.5L0.459,-0L0.329,-0L0.329,-0.385Z" style="fill-rule:nonzero;"/>
        </g>
        <g transform="matrix(72,0,0,72,10121.2,588.945)">
            <path d="M0.187,-0.109C0.207,-0.105 0.226,-0.103 0.244,-0.103C0.276,-0.103 0.299,-0.109 0.314,-0.12C0.328,-0.131 0.335,-0.148 0.335,-0.171C0.335,-0.214 0.306,-0.236 0.247,-0.236C0.225,-0.236 0.205,-0.234 0.187,-0.229L0.187,-0.109ZM0.187,-0.322C0.203,-0.325 0.219,-0.327 0.236,-0.328C0.252,-0.329 0.267,-0.329 0.28,-0.329C0.315,-0.329 0.344,-0.325 0.368,-0.318C0.392,-0.31 0.412,-0.299 0.427,-0.285C0.442,-0.271 0.452,-0.255 0.459,-0.236C0.466,-0.217 0.469,-0.196 0.469,-0.174C0.469,-0.113 0.451,-0.068 0.415,-0.038C0.379,-0.008 0.318,0.007 0.232,0.007C0.194,0.007 0.161,0.006 0.134,0.005C0.106,0.004 0.08,0.002 0.057,-0L0.057,-0.5L0.187,-0.5L0.187,-0.322Z" style="fill-rule:nonzero;"/>
        </g>
        <g transform="matrix(72,0,0,72,10156.5,588.945)">
            <path d="M0.417,-0.385L0.278,-0.385L0.278,-0L0.144,-0L0.144,-0.385L0.001,-0.385L0.001,-0.5L0.417,-0.5L0.417,-0.385Z" style="fill-rule:nonzero;"/>
        </g>
        <g transform="matrix(72,0,0,72,10186.5,588.945)">
            <path d="M0.358,-0.228L0.363,-0.299L0.36,-0.299L0.317,-0.226L0.139,-0L0.057,-0L0.057,-0.5L0.187,-0.5L0.187,-0.262L0.181,-0.194L0.185,-0.194L0.226,-0.265L0.406,-0.5L0.488,-0.5L0.488,-0L0.358,-0L0.358,-0.228Z" style="fill-rule:nonzero;"/>
        </g>
        <g transform="matrix(72,0,0,72,10225.8,588.945)">
            <path d="M0.345,-0.385L0.187,-0.385L0.187,-0L0.057,-0L0.057,-0.5L0.475,-0.5L0.475,-0L0.345,-0L0.345,-0.385Z" style="fill-rule:nonzero;"/>
        </g>
        <g transform="matrix(72,0,0,72,10264.1,588.945)">
            <path d="M0.033,-0.25C0.033,-0.335 0.054,-0.4 0.095,-0.446C0.136,-0.491 0.194,-0.514 0.269,-0.514C0.309,-0.514 0.344,-0.508 0.373,-0.495C0.402,-0.482 0.427,-0.464 0.446,-0.442C0.465,-0.419 0.48,-0.391 0.49,-0.358C0.499,-0.325 0.504,-0.289 0.504,-0.25C0.504,-0.165 0.484,-0.1 0.443,-0.055C0.401,-0.009 0.344,0.014 0.269,0.014C0.229,0.014 0.194,0.008 0.165,-0.005C0.136,-0.018 0.111,-0.036 0.092,-0.059C0.072,-0.082 0.057,-0.109 0.048,-0.142C0.038,-0.175 0.033,-0.211 0.033,-0.25ZM0.167,-0.25C0.167,-0.228 0.169,-0.208 0.173,-0.189C0.177,-0.17 0.183,-0.154 0.191,-0.14C0.199,-0.126 0.21,-0.115 0.223,-0.108C0.236,-0.1 0.251,-0.096 0.269,-0.096C0.303,-0.096 0.328,-0.108 0.345,-0.133C0.362,-0.158 0.37,-0.197 0.37,-0.25C0.37,-0.296 0.362,-0.333 0.347,-0.362C0.332,-0.39 0.306,-0.404 0.269,-0.404C0.237,-0.404 0.212,-0.392 0.194,-0.368C0.176,-0.344 0.167,-0.305 0.167,-0.25Z" style="fill-rule:nonzero;"/>
        </g>
        <g transform="matrix(72,0,0,72,10302.8,588.945)">
            <path d="M0.329,-0.385L0.23,-0.385C0.226,-0.338 0.221,-0.291 0.216,-0.244C0.211,-0.197 0.202,-0.156 0.191,-0.119C0.179,-0.082 0.163,-0.051 0.143,-0.029C0.123,-0.006 0.097,0.006 0.065,0.006C0.026,0.006 -0.001,0.001 -0.017,-0.009L-0.001,-0.117C0.01,-0.113 0.02,-0.111 0.029,-0.111C0.042,-0.111 0.054,-0.117 0.064,-0.128C0.074,-0.139 0.083,-0.16 0.09,-0.189C0.096,-0.218 0.102,-0.258 0.107,-0.309C0.111,-0.359 0.114,-0.423 0.116,-0.5L0.459,-0.5L0.459,-0L0.329,-0L0.329,-0.385Z" style="fill-rule:nonzero;"/>
        </g>
        <g transform="matrix(72,0,0,72,10339.8,588.945)">
            <path d="M0.358,-0.228L0.363,-0.299L0.36,-0.299L0.317,-0.226L0.139,-0L0.057,-0L0.057,-0.5L0.187,-0.5L0.187,-0.262L0.181,-0.194L0.185,-0.194L0.226,-0.265L0.406,-0.5L0.488,-0.5L0.488,-0L0.358,-0L0.358,-0.228Z" style="fill-rule:nonzero;"/>
        </g>
        <g transform="matrix(72,0,0,72,10379.1,588.945)">
            <path d="M0.38,-0.385L0.191,-0.385L0.191,-0L0.057,-0L0.057,-0.5L0.38,-0.5L0.38,-0.385Z" style="fill-rule:nonzero;"/>
        </g>
        <g transform="matrix(72,0,0,72,10406.1,588.945)">
            <path d="M0.033,-0.25C0.033,-0.335 0.054,-0.4 0.095,-0.446C0.136,-0.491 0.194,-0.514 0.269,-0.514C0.309,-0.514 0.344,-0.508 0.373,-0.495C0.402,-0.482 0.427,-0.464 0.446,-0.442C0.465,-0.419 0.48,-0.391 0.49,-0.358C0.499,-0.325 0.504,-0.289 0.504,-0.25C0.504,-0.165 0.484,-0.1 0.443,-0.055C0.401,-0.009 0.344,0.014 0.269,0.014C0.229,0.014 0.194,0.008 0.165,-0.005C0.136,-0.018 0.111,-0.036 0.092,-0.059C0.072,-0.082 0.057,-0.109 0.048,-0.142C0.038,-0.175 0.033,-0.211 0.033,-0.25ZM0.167,-0.25C0.167,-0.228 0.169,-0.208 0.173,-0.189C0.177,-0.17 0.183,-0.154 0.191,-0.14C0.199,-0.126 0.21,-0.115 0.223,-0.108C0.236,-0.1 0.251,-0.096 0.269,-0.096C0.303,-0.096 0.328,-0.108 0.345,-0.133C0.362,-0.158 0.37,-0.197 0.37,-0.25C0.37,-0.296 0.362,-0.333 0.347,-0.362C0.332,-0.39 0.306,-0.404 0.269,-0.404C0.237,-0.404 0.212,-0.392 0.194,-0.368C0.176,-0.344 0.167,-0.305 0.167,-0.25Z" style="fill-rule:nonzero;"/>
        </g>
        <g transform="matrix(72,0,0,72,10444.8,588.945)">
            <path d="M0.35,-0.196L0.187,-0.196L0.187,-0L0.057,-0L0.057,-0.5L0.187,-0.5L0.187,-0.312L0.35,-0.312L0.35,-0.5L0.48,-0.5L0.48,-0L0.35,-0L0.35,-0.196Z" style="fill-rule:nonzero;"/>
        </g>
        <g transform="matrix(72,0,0,72,10483.5,588.945)">
            <path d="M0.187,-0.109C0.207,-0.105 0.226,-0.103 0.244,-0.103C0.274,-0.103 0.295,-0.109 0.307,-0.12C0.319,-0.131 0.325,-0.148 0.325,-0.171C0.325,-0.192 0.319,-0.209 0.307,-0.22C0.295,-0.231 0.275,-0.236 0.247,-0.236C0.225,-0.236 0.205,-0.234 0.187,-0.229L0.187,-0.109ZM0.187,-0.322C0.203,-0.325 0.219,-0.327 0.236,-0.328C0.252,-0.329 0.267,-0.329 0.28,-0.329C0.314,-0.329 0.342,-0.325 0.365,-0.318C0.388,-0.31 0.406,-0.299 0.42,-0.285C0.434,-0.271 0.444,-0.255 0.45,-0.236C0.456,-0.217 0.459,-0.196 0.459,-0.174C0.459,-0.144 0.455,-0.118 0.447,-0.095C0.439,-0.072 0.426,-0.054 0.408,-0.039C0.39,-0.024 0.367,-0.012 0.338,-0.005C0.309,0.003 0.274,0.007 0.232,0.007C0.194,0.007 0.161,0.006 0.134,0.005C0.106,0.004 0.08,0.002 0.057,-0L0.057,-0.5L0.187,-0.5L0.187,-0.322ZM0.516,-0.5L0.646,-0.5L0.646,-0L0.516,-0L0.516,-0.5Z" style="fill-rule:nonzero;"/>
        </g>
    </g>
    <path d="M57.273,337.731L133.094,202.988L243.841,311.731L57.273,337.731Z" style="fill:rgb(251,133,255);stroke:black;stroke-width:8px;"/>
    <path d="M243.841,311.731L293,360L270,527L130,566.556L17.225,414L57.273,337.731L172.557,423L243.841,311.731Z" style="fill:rgb(45,231,231);stroke:black;stroke-width:8px;"/>
    <path d="M52.225,960.961L143.69,883L295.157,912.897L314.305,991.502L274.64,1074.29L132.348,1089.56L52.225,960.961Z" style="fill:rgb(251,133,255);stroke:black;stroke-width:8px;"/>
    <path d="M143.69,883L137.385,986.278L248.826,1006.57L295.157,912.897L143.69,883Z" style="fill:white;stroke:black;stroke-width:8px;"/>
    <path d="M388,270.36L488,182L663,311.731L654,543L509,439.144L420,463.278L388,270.36ZM438,337.731L488,254L627,337.731L588,439.144L525.5,392L449,393L438,337.731Z" style="fill:rgb(45,231,231);stroke:black;stroke-width:8px;"/>
    <path d="M485,337.731L500,300L582,337.731L573,386L532.5,346.572L490,360L485,337.731Z" style="fill:rgb(251,133,255);stroke:black;stroke-width:8px;"/>
    <path d="M438,517L512,478L582,543L485,566.556L438,517Z" style="fill:rgb(255,235,51);stroke:black;stroke-width:8px;"/>
    <path d="M438,997L582,883L663,1011L582,1138L438,997Z" style="fill:rgb(45,231,231);stroke:black;stroke-width:8px;"/>
    <path d="M458,1159L550.5,1010.5L663,1138L606.385,1278L510,1276L458,1159Z" style="fill:rgb(251,133,255);stroke:black;stroke-width:8px;"/>
    <path d="M513.103,1070.54L582,1138L615.984,1084.72" style="fill:none;stroke:black;stroke-width:8px;stroke-dasharray:8,8;"/>
    <path d="M52.225,1185L96,1104.27L183.265,1192L137.385,1278L71,1278L52.225,1185Z" style="fill:rgb(150,255,21);stroke:black;stroke-width:8px;"/>
    <path d="M241,1191.13L334,1104.27L394,1246L295.157,1278L241,1191.13Z" style="fill:rgb(255,235,51);stroke:black;stroke-width:8px;"/>
    <path d="M183.265,1192L241,1191.13" style="fill:none;stroke:black;stroke-width:8px;"/>
</svg>
