<?xml version="1.0" encoding="UTF-8" standalone="no"?>
<!DOCTYPE svg PUBLIC "-//W3C//DTD SVG 1.1//EN" "http://www.w3.org/Graphics/SVG/1.1/DTD/svg11.dtd">
<svg width="100%" height="100%" viewBox="0 0 2205 921" version="1.1" xmlns="http://www.w3.org/2000/svg" xmlns:xlink="http://www.w3.org/1999/xlink" xml:space="preserve" xmlns:serif="http://www.serif.com/" style="fill-rule:evenodd;clip-rule:evenodd;stroke-linecap:round;stroke-linejoin:round;stroke-miterlimit:1.5;">
    <rect id="Artboard7" x="-170" y="-982" width="4375" height="2153" style="fill:none;"/>
    <g id="Artboard71" serif:id="Artboard7">
        <rect x="280.898" y="279.86" width="136.584" height="136.584" style="fill:rgb(251,137,255);fill-opacity:0.83;stroke:black;stroke-width:4px;"/>
        <rect x="1371.93" y="272.665" width="136.584" height="136.584" style="fill:rgb(252,157,255);fill-opacity:0.83;stroke:black;stroke-width:4px;"/>
        <rect x="556.594" y="773.82" width="136.584" height="136.584" style="fill:rgb(250,112,255);fill-opacity:0.83;stroke:black;stroke-width:4px;"/>
        <rect x="554.066" y="279.86" width="136.584" height="136.584" style="fill:rgb(251,137,255);fill-opacity:0.83;stroke:black;stroke-width:4px;"/>
        <rect x="1645.1" y="272.665" width="136.584" height="136.584" style="fill:rgb(136,229,48);fill-opacity:0.83;stroke:black;stroke-width:4px;"/>
        <rect x="829.763" y="773.82" width="136.584" height="136.584" style="fill:rgb(250,112,255);fill-opacity:0.83;stroke:black;stroke-width:4px;"/>
        <rect x="417.482" y="279.86" width="136.584" height="136.584" style="fill:rgb(45,231,231);fill-opacity:0.83;stroke:black;stroke-width:4px;"/>
        <rect x="1508.52" y="272.665" width="136.584" height="136.584" style="fill:rgb(45,231,231);fill-opacity:0.83;stroke:black;stroke-width:4px;"/>
        <rect x="693.179" y="773.82" width="136.584" height="136.584" style="fill:rgb(81,235,235);fill-opacity:0.83;stroke:black;stroke-width:4px;"/>
        <rect x="417.482" y="142.986" width="136.584" height="136.584" style="fill:white;fill-opacity:0.83;stroke:black;stroke-width:4px;"/>
        <rect x="1508.52" y="135.791" width="136.584" height="136.584" style="fill:rgb(253,229,255);fill-opacity:0.83;stroke:black;stroke-width:4px;"/>
        <rect x="148.179" y="773.82" width="136.584" height="136.584" style="fill:white;fill-opacity:0.83;stroke:black;stroke-width:4px;"/>
        <rect x="417.482" y="553.012" width="136.584" height="136.584" style="fill:rgb(244,251,46);fill-opacity:0.83;stroke:black;stroke-width:4px;"/>
        <rect x="1508.52" y="545.817" width="136.584" height="136.584" style="fill:white;fill-opacity:0.83;stroke:black;stroke-width:4px;"/>
        <rect x="1784.52" y="772.934" width="136.584" height="136.584" style="fill:rgb(246,252,82);fill-opacity:0.83;stroke:black;stroke-width:4px;"/>
        <rect x="417.482" y="416.532" width="136.584" height="136.584" style="fill:white;fill-opacity:0.83;stroke:black;stroke-width:4px;"/>
        <rect x="1508.52" y="409.337" width="136.584" height="136.584" style="fill:rgb(253,229,255);fill-opacity:0.83;stroke:black;stroke-width:4px;"/>
        <rect x="1238.18" y="772.934" width="136.584" height="136.584" style="fill:white;fill-opacity:0.83;stroke:black;stroke-width:4px;"/>
        <rect x="690.651" y="279.86" width="136.584" height="136.584" style="fill:rgb(253,223,255);fill-opacity:0.83;stroke:black;stroke-width:4px;"/>
        <rect x="1781.68" y="272.665" width="136.584" height="136.584" style="fill:rgb(136,229,48);fill-opacity:0.83;stroke:black;stroke-width:4px;"/>
        <rect x="966.347" y="773.82" width="136.584" height="136.584" style="fill:rgb(253,216,255);fill-opacity:0.83;stroke:black;stroke-width:4px;"/>
        <rect x="280.898" y="142.986" width="136.584" height="136.584" style="fill:white;fill-opacity:0.83;stroke:black;stroke-width:4px;"/>
        <rect x="1371.93" y="135.791" width="136.584" height="136.584" style="fill:rgb(252,157,255);fill-opacity:0.83;stroke:black;stroke-width:4px;"/>
        <rect x="11.594" y="773.82" width="136.584" height="136.584" style="fill:white;fill-opacity:0.83;stroke:black;stroke-width:4px;"/>
        <rect x="280.898" y="553.012" width="136.584" height="136.584" style="fill:rgb(111,224,5);fill-opacity:0.83;stroke:black;stroke-width:4px;"/>
        <rect x="1371.93" y="545.817" width="136.584" height="136.584" style="fill:white;fill-opacity:0.83;stroke:black;stroke-width:4px;"/>
        <rect x="1647.93" y="772.934" width="136.584" height="136.584" style="fill:rgb(136,229,48);fill-opacity:0.83;stroke:black;stroke-width:4px;"/>
        <rect x="280.898" y="416.532" width="136.584" height="136.584" style="fill:white;fill-opacity:0.83;stroke:black;stroke-width:4px;"/>
        <rect x="1371.93" y="409.337" width="136.584" height="136.584" style="fill:white;fill-opacity:0.83;stroke:black;stroke-width:4px;"/>
        <rect x="1101.59" y="772.934" width="136.584" height="136.584" style="fill:white;fill-opacity:0.83;stroke:black;stroke-width:4px;"/>
        <rect x="554.066" y="142.986" width="136.584" height="136.584" style="fill:white;fill-opacity:0.83;stroke:black;stroke-width:4px;"/>
        <rect x="1645.1" y="135.791" width="136.584" height="136.584" style="fill:rgb(244,251,46);fill-opacity:0.83;stroke:black;stroke-width:4px;"/>
        <rect x="284.763" y="773.82" width="136.584" height="136.584" style="fill:white;fill-opacity:0.83;stroke:black;stroke-width:4px;"/>
        <rect x="554.066" y="553.012" width="136.584" height="136.584" style="fill:rgb(111,224,5);fill-opacity:0.83;stroke:black;stroke-width:4px;"/>
        <rect x="1645.1" y="545.817" width="136.584" height="136.584" style="fill:white;fill-opacity:0.83;stroke:black;stroke-width:4px;"/>
        <rect x="1921.1" y="772.934" width="136.584" height="136.584" style="fill:rgb(136,229,48);fill-opacity:0.83;stroke:black;stroke-width:4px;"/>
        <rect x="554.066" y="416.532" width="136.584" height="136.584" style="fill:white;fill-opacity:0.83;stroke:black;stroke-width:4px;"/>
        <rect x="1645.1" y="409.337" width="136.584" height="136.584" style="fill:white;fill-opacity:0.83;stroke:black;stroke-width:4px;"/>
        <rect x="1374.76" y="772.934" width="136.584" height="136.584" style="fill:white;fill-opacity:0.83;stroke:black;stroke-width:4px;"/>
        <rect x="690.651" y="142.986" width="136.584" height="136.584" style="fill:rgb(253,223,255);fill-opacity:0.83;stroke:black;stroke-width:4px;"/>
        <rect x="1781.68" y="135.791" width="136.584" height="136.584" style="fill:rgb(209,253,170);fill-opacity:0.83;stroke:black;stroke-width:4px;"/>
        <rect x="421.347" y="773.82" width="136.584" height="136.584" style="fill:rgb(253,216,255);fill-opacity:0.83;stroke:black;stroke-width:4px;"/>
        <rect x="690.651" y="553.012" width="136.584" height="136.584" style="fill:rgb(189,252,130);fill-opacity:0.83;stroke:black;stroke-width:4px;"/>
        <rect x="1781.68" y="545.817" width="136.584" height="136.584" style="fill:white;fill-opacity:0.83;stroke:black;stroke-width:4px;"/>
        <rect x="2057.68" y="772.934" width="136.584" height="136.584" style="fill:rgb(200,253,152);fill-opacity:0.83;stroke:black;stroke-width:4px;"/>
        <rect x="690.651" y="416.532" width="136.584" height="136.584" style="fill:rgb(189,252,130);fill-opacity:0.83;stroke:black;stroke-width:4px;"/>
        <rect x="1781.68" y="409.337" width="136.584" height="136.584" style="fill:rgb(209,253,170);fill-opacity:0.83;stroke:black;stroke-width:4px;"/>
        <rect x="1511.35" y="772.934" width="136.584" height="136.584" style="fill:rgb(200,253,152);fill-opacity:0.83;stroke:black;stroke-width:4px;"/>
        <path d="M338.942,224.718L346.726,224.718L346.726,202.598L347.566,198.79L344.878,202.094L339.894,205.51L336.814,201.31L349.582,191.006L353.67,191.006L353.67,224.718L361.286,224.718L361.286,230.878L338.942,230.878L338.942,224.718Z" style="fill-rule:nonzero;"/>
        <path d="M1430.12,627.885L1437.9,627.885L1437.9,605.765L1438.74,601.957L1436.05,605.261L1431.07,608.677L1427.99,604.477L1440.76,594.173L1444.84,594.173L1444.84,627.885L1452.46,627.885L1452.46,634.045L1430.12,634.045L1430.12,627.885Z" style="fill-rule:nonzero;"/>
        <path d="M69.638,855.552L77.422,855.552L77.422,833.432L78.262,829.624L75.574,832.928L70.59,836.344L67.51,832.144L80.278,821.84L84.366,821.84L84.366,855.552L91.982,855.552L91.982,861.712L69.638,861.712L69.638,855.552Z" style="fill-rule:nonzero;"/>
        <path d="M344.466,360.211C346.93,360.211 348.815,359.614 350.122,358.419C351.429,357.224 352.082,355.582 352.082,353.491C352.082,351.251 351.317,349.608 349.786,348.563C348.255,347.518 346.071,346.995 343.234,346.995L338.81,347.163L338.81,326.667L358.074,326.667L358.074,333.499L345.082,333.499L345.082,341.059L347.378,340.835C349.207,340.91 350.859,341.246 352.334,341.843C353.809,342.44 355.069,343.271 356.114,344.335C357.159,345.399 357.962,346.687 358.522,348.199C359.082,349.711 359.362,351.4 359.362,353.267C359.362,355.47 358.989,357.411 358.242,359.091C357.495,360.771 356.459,362.171 355.134,363.291C353.809,364.411 352.25,365.251 350.458,365.811C348.666,366.371 346.706,366.651 344.578,366.651C342.898,366.651 341.302,366.511 339.79,366.231C338.278,365.951 336.999,365.568 335.954,365.083L337.914,359.035C338.773,359.408 339.715,359.698 340.742,359.903C341.769,360.108 343.01,360.211 344.466,360.211Z" style="fill-rule:nonzero;"/>
        <path d="M1437.03,354.509C1439.5,354.509 1441.38,353.912 1442.69,352.717C1443.99,351.523 1444.65,349.88 1444.65,347.789C1444.65,345.549 1443.88,343.907 1442.35,342.861C1440.82,341.816 1438.64,341.293 1435.8,341.293L1431.38,341.461L1431.38,320.965L1450.64,320.965L1450.64,327.797L1437.65,327.797L1437.65,335.357L1439.94,335.133C1441.77,335.208 1443.42,335.544 1444.9,336.141C1446.37,336.739 1447.63,337.569 1448.68,338.633C1449.73,339.697 1450.53,340.985 1451.09,342.497C1451.65,344.009 1451.93,345.699 1451.93,347.565C1451.93,349.768 1451.55,351.709 1450.81,353.389C1450.06,355.069 1449.03,356.469 1447.7,357.589C1446.37,358.709 1444.82,359.549 1443.02,360.109C1441.23,360.669 1439.27,360.949 1437.14,360.949C1435.46,360.949 1433.87,360.809 1432.36,360.529C1430.84,360.249 1429.57,359.867 1428.52,359.381L1430.48,353.333C1431.34,353.707 1432.28,353.996 1433.31,354.201C1434.33,354.407 1435.58,354.509 1437.03,354.509Z" style="fill-rule:nonzero;"/>
        <path d="M620.162,854.17C622.626,854.17 624.512,853.573 625.818,852.378C627.125,851.184 627.778,849.541 627.778,847.45C627.778,845.21 627.013,843.568 625.482,842.522C623.952,841.477 621.768,840.954 618.93,840.954L614.506,841.122L614.506,820.626L633.77,820.626L633.77,827.458L620.778,827.458L620.778,835.018L623.074,834.794C624.904,834.869 626.556,835.205 628.03,835.802C629.505,836.4 630.765,837.23 631.81,838.294C632.856,839.358 633.658,840.646 634.218,842.158C634.778,843.67 635.058,845.36 635.058,847.226C635.058,849.429 634.685,851.37 633.938,853.05C633.192,854.73 632.156,856.13 630.83,857.25C629.505,858.37 627.946,859.21 626.154,859.77C624.362,860.33 622.402,860.61 620.274,860.61C618.594,860.61 616.998,860.47 615.486,860.19C613.974,859.91 612.696,859.528 611.65,859.042L613.61,852.994C614.469,853.368 615.412,853.657 616.438,853.862C617.465,854.068 618.706,854.17 620.162,854.17Z" style="fill-rule:nonzero;"/>
        <path d="M334.666,478.625C334.666,476.721 334.955,474.966 335.534,473.361C336.113,471.756 336.953,470.384 338.054,469.245C339.155,468.106 340.499,467.21 342.086,466.557C343.673,465.904 345.493,465.577 347.546,465.577C351.765,465.577 355.078,466.837 357.486,469.357C359.894,471.877 361.098,475.545 361.098,480.361C361.098,484.692 360.547,488.434 359.446,491.589C358.345,494.744 356.87,497.376 355.022,499.485C353.174,501.594 351.037,503.209 348.61,504.329C346.183,505.449 343.626,506.121 340.938,506.345L339.37,500.633C341.423,500.372 343.253,499.868 344.858,499.121C346.463,498.374 347.845,497.45 349.002,496.349C350.159,495.248 351.102,493.997 351.83,492.597C352.558,491.197 353.071,489.694 353.37,488.089C352.474,489.06 351.513,489.732 350.486,490.105C349.459,490.478 348.087,490.665 346.37,490.665C344.951,490.665 343.542,490.422 342.142,489.937C340.742,489.452 339.491,488.714 338.39,487.725C337.289,486.736 336.393,485.485 335.702,483.973C335.011,482.461 334.666,480.678 334.666,478.625ZM341.722,478.233C341.722,480.361 342.319,481.966 343.514,483.049C344.709,484.132 346.202,484.673 347.994,484.673C349.525,484.673 350.775,484.43 351.746,483.945C352.717,483.46 353.463,482.862 353.986,482.153C354.098,481.369 354.154,480.622 354.154,479.913C354.154,478.868 354.023,477.841 353.762,476.833C353.501,475.825 353.099,474.929 352.558,474.145C352.017,473.361 351.326,472.736 350.486,472.269C349.646,471.802 348.647,471.569 347.49,471.569C345.661,471.569 344.242,472.157 343.234,473.333C342.226,474.509 341.722,476.142 341.722,478.233Z" style="fill-rule:nonzero;"/>
        <path d="M1700.18,606.773C1700.18,604.869 1700.47,603.114 1701.04,601.509C1701.62,599.904 1702.46,598.532 1703.56,597.393C1704.67,596.254 1706.01,595.358 1707.6,594.705C1709.18,594.052 1711,593.725 1713.06,593.725C1717.28,593.725 1720.59,594.985 1723,597.505C1725.4,600.025 1726.61,603.693 1726.61,608.509C1726.61,612.84 1726.06,616.582 1724.96,619.737C1723.86,622.892 1722.38,625.524 1720.53,627.633C1718.68,629.742 1716.55,631.357 1714.12,632.477C1711.69,633.597 1709.14,634.269 1706.45,634.493L1704.88,628.781C1706.93,628.52 1708.76,628.016 1710.37,627.269C1711.97,626.522 1713.36,625.598 1714.51,624.497C1715.67,623.396 1716.61,622.145 1717.34,620.745C1718.07,619.345 1718.58,617.842 1718.88,616.237C1717.98,617.208 1717.02,617.88 1716,618.253C1714.97,618.626 1713.6,618.813 1711.88,618.813C1710.46,618.813 1709.05,618.57 1707.65,618.085C1706.25,617.6 1705,616.862 1703.9,615.873C1702.8,614.884 1701.9,613.633 1701.21,612.121C1700.52,610.609 1700.18,608.826 1700.18,606.773ZM1707.23,606.381C1707.23,608.509 1707.83,610.114 1709.02,611.197C1710.22,612.28 1711.71,612.821 1713.5,612.821C1715.04,612.821 1716.29,612.578 1717.26,612.093C1718.23,611.608 1718.97,611.01 1719.5,610.301C1719.61,609.517 1719.66,608.77 1719.66,608.061C1719.66,607.016 1719.53,605.989 1719.27,604.981C1719.01,603.973 1718.61,603.077 1718.07,602.293C1717.53,601.509 1716.84,600.884 1716,600.417C1715.16,599.95 1714.16,599.717 1713,599.717C1711.17,599.717 1709.75,600.305 1708.74,601.481C1707.74,602.657 1707.23,604.29 1707.23,606.381Z" style="fill-rule:nonzero;"/>
        <path d="M1155.36,835.027C1155.36,833.123 1155.65,831.369 1156.23,829.763C1156.81,828.158 1157.65,826.786 1158.75,825.647C1159.85,824.509 1161.2,823.613 1162.78,822.959C1164.37,822.306 1166.19,821.979 1168.24,821.979C1172.46,821.979 1175.77,823.239 1178.18,825.759C1180.59,828.279 1181.79,831.947 1181.79,836.763C1181.79,841.094 1181.24,844.837 1180.14,847.991C1179.04,851.146 1177.57,853.778 1175.72,855.887C1173.87,857.997 1171.73,859.611 1169.31,860.731C1166.88,861.851 1164.32,862.523 1161.63,862.747L1160.07,857.035C1162.12,856.774 1163.95,856.27 1165.55,855.523C1167.16,854.777 1168.54,853.853 1169.7,852.751C1170.86,851.65 1171.8,850.399 1172.53,848.999C1173.25,847.599 1173.77,846.097 1174.07,844.491C1173.17,845.462 1172.21,846.134 1171.18,846.507C1170.16,846.881 1168.78,847.067 1167.07,847.067C1165.65,847.067 1164.24,846.825 1162.84,846.339C1161.44,845.854 1160.19,845.117 1159.09,844.127C1157.99,843.138 1157.09,841.887 1156.4,840.375C1155.71,838.863 1155.36,837.081 1155.36,835.027ZM1162.42,834.635C1162.42,836.763 1163.02,838.369 1164.21,839.451C1165.4,840.534 1166.9,841.075 1168.69,841.075C1170.22,841.075 1171.47,840.833 1172.44,840.347C1173.41,839.862 1174.16,839.265 1174.68,838.555C1174.79,837.771 1174.85,837.025 1174.85,836.315C1174.85,835.27 1174.72,834.243 1174.46,833.235C1174.2,832.227 1173.8,831.331 1173.25,830.547C1172.71,829.763 1172.02,829.138 1171.18,828.671C1170.34,828.205 1169.34,827.971 1168.19,827.971C1166.36,827.971 1164.94,828.559 1163.93,829.735C1162.92,830.911 1162.42,832.545 1162.42,834.635Z" style="fill-rule:nonzero;"/>
        <path d="M323.262,634.296L331.046,634.296L331.046,612.176L331.886,608.368L329.198,611.672L324.214,615.088L321.134,610.888L333.902,600.584L337.99,600.584L337.99,634.296L345.606,634.296L345.606,640.456L323.262,640.456L323.262,634.296Z" style="fill-rule:nonzero;"/>
        <path d="M362.854,635.08C365.169,635.08 366.933,634.464 368.146,633.232C369.359,632 369.966,630.507 369.966,628.752C369.966,626.624 369.331,625.056 368.062,624.048C366.793,623.04 364.795,622.536 362.07,622.536L358.038,622.536L358.038,618.672L364.814,609.432L368.006,606.912L363.582,607.416L354.174,607.416L354.174,601.256L375.566,601.256L375.566,605.232L367.67,615.816L365.206,617.328L365.206,617.608L367.558,617.272C368.865,617.384 370.106,617.683 371.282,618.168C372.458,618.653 373.485,619.353 374.362,620.268C375.239,621.183 375.939,622.312 376.462,623.656C376.985,625 377.246,626.549 377.246,628.304C377.246,630.507 376.882,632.411 376.154,634.016C375.426,635.621 374.418,636.965 373.13,638.048C371.842,639.131 370.339,639.933 368.622,640.456C366.905,640.979 365.057,641.24 363.078,641.24C361.435,641.24 359.737,641.091 357.982,640.792C356.227,640.493 354.809,640.064 353.726,639.504L355.686,633.456C356.657,633.941 357.73,634.333 358.906,634.632C360.082,634.931 361.398,635.08 362.854,635.08Z" style="fill-rule:nonzero;"/>
        <path d="M1686.62,354.341L1694.41,354.341L1694.41,332.221L1695.25,328.413L1692.56,331.717L1687.58,335.133L1684.5,330.933L1697.26,320.629L1701.35,320.629L1701.35,354.341L1708.97,354.341L1708.97,360.501L1686.62,360.501L1686.62,354.341Z" style="fill-rule:nonzero;"/>
        <path d="M1726.22,355.125C1728.53,355.125 1730.3,354.509 1731.51,353.277C1732.72,352.045 1733.33,350.552 1733.33,348.797C1733.33,346.669 1732.69,345.101 1731.42,344.093C1730.15,343.085 1728.16,342.581 1725.43,342.581L1721.4,342.581L1721.4,338.717L1728.18,329.477L1731.37,326.957L1726.94,327.461L1717.54,327.461L1717.54,321.301L1738.93,321.301L1738.93,325.277L1731.03,335.861L1728.57,337.373L1728.57,337.653L1730.92,337.317C1732.23,337.429 1733.47,337.728 1734.64,338.213C1735.82,338.699 1736.85,339.399 1737.72,340.313C1738.6,341.228 1739.3,342.357 1739.82,343.701C1740.35,345.045 1740.61,346.595 1740.61,348.349C1740.61,350.552 1740.24,352.456 1739.52,354.061C1738.79,355.667 1737.78,357.011 1736.49,358.093C1735.2,359.176 1733.7,359.979 1731.98,360.501C1730.27,361.024 1728.42,361.285 1726.44,361.285C1724.8,361.285 1723.1,361.136 1721.34,360.837C1719.59,360.539 1718.17,360.109 1717.09,359.549L1719.05,353.501C1720.02,353.987 1721.09,354.379 1722.27,354.677C1723.44,354.976 1724.76,355.125 1726.22,355.125Z" style="fill-rule:nonzero;"/>
        <path d="M1690.3,854.218L1698.08,854.218L1698.08,832.098L1698.92,828.29L1696.23,831.594L1691.25,835.01L1688.17,830.81L1700.94,820.506L1705.02,820.506L1705.02,854.218L1712.64,854.218L1712.64,860.378L1690.3,860.378L1690.3,854.218Z" style="fill-rule:nonzero;"/>
        <path d="M1729.89,855.002C1732.2,855.002 1733.97,854.386 1735.18,853.154C1736.39,851.922 1737,850.429 1737,848.674C1737,846.546 1736.37,844.978 1735.1,843.97C1733.83,842.962 1731.83,842.458 1729.1,842.458L1725.07,842.458L1725.07,838.594L1731.85,829.354L1735.04,826.834L1730.62,827.338L1721.21,827.338L1721.21,821.178L1742.6,821.178L1742.6,825.154L1734.7,835.738L1732.24,837.25L1732.24,837.53L1734.59,837.194C1735.9,837.306 1737.14,837.605 1738.32,838.09C1739.49,838.576 1740.52,839.276 1741.4,840.19C1742.27,841.105 1742.97,842.234 1743.5,843.578C1744.02,844.922 1744.28,846.472 1744.28,848.226C1744.28,850.429 1743.92,852.333 1743.19,853.938C1742.46,855.544 1741.45,856.888 1740.16,857.97C1738.88,859.053 1737.37,859.856 1735.66,860.378C1733.94,860.901 1732.09,861.162 1730.11,861.162C1728.47,861.162 1726.77,861.013 1725.02,860.714C1723.26,860.416 1721.84,859.986 1720.76,859.426L1722.72,853.378C1723.69,853.864 1724.76,854.256 1725.94,854.554C1727.12,854.853 1728.43,855.002 1729.89,855.002Z" style="fill-rule:nonzero;"/>
        <path d="M497.45,354.715C497.45,356.544 497.142,358.243 496.526,359.811C495.91,361.379 495.042,362.742 493.922,363.899C492.802,365.056 491.449,365.971 489.862,366.643C488.276,367.315 486.53,367.651 484.626,367.651C482.685,367.651 480.902,367.343 479.278,366.727C477.654,366.111 476.245,365.187 475.05,363.955C473.856,362.723 472.922,361.174 472.25,359.307C471.578,357.44 471.242,355.275 471.242,352.811C471.242,349.115 471.774,345.774 472.838,342.787C473.902,339.8 475.34,337.196 477.15,334.975C478.961,332.754 481.07,330.962 483.478,329.599C485.886,328.236 488.434,327.331 491.122,326.883L492.746,332.651C490.88,332.95 489.162,333.528 487.594,334.387C486.026,335.246 484.636,336.272 483.422,337.467C482.209,338.662 481.182,339.996 480.342,341.471C479.502,342.946 478.914,344.467 478.578,346.035C479.325,345.102 480.296,344.308 481.49,343.655C482.685,343.002 484.178,342.675 485.97,342.675C487.65,342.675 489.2,342.936 490.618,343.459C492.037,343.982 493.25,344.756 494.258,345.783C495.266,346.81 496.05,348.07 496.61,349.563C497.17,351.056 497.45,352.774 497.45,354.715ZM490.394,355.107C490.394,350.926 488.341,348.835 484.234,348.835C482.741,348.835 481.481,349.171 480.454,349.843C479.428,350.515 478.709,351.299 478.298,352.195C478.224,352.606 478.186,352.96 478.186,353.259L478.186,354.155C478.186,355.051 478.317,355.938 478.578,356.815C478.84,357.692 479.222,358.476 479.726,359.167C480.23,359.858 480.874,360.418 481.658,360.847C482.442,361.276 483.376,361.491 484.458,361.491C486.213,361.491 487.641,360.894 488.742,359.699C489.844,358.504 490.394,356.974 490.394,355.107Z" style="fill-rule:nonzero;"/>
        <path d="M1584.23,348.013C1584.23,349.843 1583.93,351.541 1583.31,353.109C1582.69,354.677 1581.83,356.04 1580.71,357.197C1579.59,358.355 1578.23,359.269 1576.65,359.941C1575.06,360.613 1573.31,360.949 1571.41,360.949C1569.47,360.949 1567.69,360.641 1566.06,360.025C1564.44,359.409 1563.03,358.485 1561.83,357.253C1560.64,356.021 1559.71,354.472 1559.03,352.605C1558.36,350.739 1558.03,348.573 1558.03,346.109C1558.03,342.413 1558.56,339.072 1559.62,336.085C1560.69,333.099 1562.12,330.495 1563.93,328.273C1565.74,326.052 1567.85,324.26 1570.26,322.897C1572.67,321.535 1575.22,320.629 1577.91,320.181L1579.53,325.949C1577.66,326.248 1575.95,326.827 1574.38,327.685C1572.81,328.544 1571.42,329.571 1570.21,330.765C1568.99,331.96 1567.97,333.295 1567.13,334.769C1566.29,336.244 1565.7,337.765 1565.36,339.333C1566.11,338.4 1567.08,337.607 1568.27,336.953C1569.47,336.3 1570.96,335.973 1572.75,335.973C1574.43,335.973 1575.98,336.235 1577.4,336.757C1578.82,337.28 1580.03,338.055 1581.04,339.081C1582.05,340.108 1582.83,341.368 1583.39,342.861C1583.95,344.355 1584.23,346.072 1584.23,348.013ZM1577.18,348.405C1577.18,344.224 1575.12,342.133 1571.02,342.133C1569.52,342.133 1568.26,342.469 1567.24,343.141C1566.21,343.813 1565.49,344.597 1565.08,345.493C1565.01,345.904 1564.97,346.259 1564.97,346.557L1564.97,347.453C1564.97,348.349 1565.1,349.236 1565.36,350.113C1565.62,350.991 1566.01,351.775 1566.51,352.465C1567.01,353.156 1567.66,353.716 1568.44,354.145C1569.23,354.575 1570.16,354.789 1571.24,354.789C1573,354.789 1574.42,354.192 1575.53,352.997C1576.63,351.803 1577.18,350.272 1577.18,348.405Z" style="fill-rule:nonzero;"/>
        <path d="M773.147,848.674C773.147,850.504 772.839,852.202 772.223,853.77C771.607,855.338 770.739,856.701 769.619,857.858C768.499,859.016 767.145,859.93 765.559,860.602C763.972,861.274 762.227,861.61 760.323,861.61C758.381,861.61 756.599,861.302 754.975,860.686C753.351,860.07 751.941,859.146 750.747,857.914C749.552,856.682 748.619,855.133 747.947,853.266C747.275,851.4 746.939,849.234 746.939,846.77C746.939,843.074 747.471,839.733 748.535,836.746C749.599,833.76 751.036,831.156 752.847,828.934C754.657,826.713 756.767,824.921 759.175,823.558C761.583,822.196 764.131,821.29 766.819,820.842L768.443,826.61C766.576,826.909 764.859,827.488 763.291,828.346C761.723,829.205 760.332,830.232 759.119,831.426C757.905,832.621 756.879,833.956 756.039,835.43C755.199,836.905 754.611,838.426 754.275,839.994C755.021,839.061 755.992,838.268 757.187,837.614C758.381,836.961 759.875,836.634 761.667,836.634C763.347,836.634 764.896,836.896 766.315,837.418C767.733,837.941 768.947,838.716 769.955,839.742C770.963,840.769 771.747,842.029 772.307,843.522C772.867,845.016 773.147,846.733 773.147,848.674ZM766.091,849.066C766.091,844.885 764.037,842.794 759.931,842.794C758.437,842.794 757.177,843.13 756.151,843.802C755.124,844.474 754.405,845.258 753.995,846.154C753.92,846.565 753.883,846.92 753.883,847.218L753.883,848.114C753.883,849.01 754.013,849.897 754.275,850.774C754.536,851.652 754.919,852.436 755.423,853.126C755.927,853.817 756.571,854.377 757.355,854.806C758.139,855.236 759.072,855.45 760.155,855.45C761.909,855.45 763.337,854.853 764.439,853.658C765.54,852.464 766.091,850.933 766.091,849.066Z" style="fill-rule:nonzero;"/>
        <path d="M459.006,498.832L466.79,498.832L466.79,476.712L467.63,472.904L464.942,476.208L459.958,479.624L456.878,475.424L469.646,465.12L473.734,465.12L473.734,498.832L481.35,498.832L481.35,504.992L459.006,504.992L459.006,498.832Z" style="fill-rule:nonzero;"/>
        <path d="M487.342,485.336C487.342,478.467 488.518,473.362 490.87,470.02C493.222,466.679 496.601,465.008 501.006,465.008C505.71,465.008 509.164,466.66 511.366,469.964C513.569,473.268 514.67,478.392 514.67,485.336C514.67,492.243 513.485,497.376 511.114,500.736C508.744,504.096 505.356,505.776 500.95,505.776C496.284,505.776 492.849,504.012 490.646,500.484C488.444,496.956 487.342,491.907 487.342,485.336ZM494.622,485.336C494.622,489.891 495.117,493.41 496.106,495.892C497.096,498.375 498.729,499.616 501.006,499.616C503.209,499.616 504.824,498.478 505.85,496.2C506.877,493.923 507.39,490.302 507.39,485.336C507.39,480.819 506.905,477.328 505.934,474.864C504.964,472.4 503.302,471.168 500.95,471.168C498.71,471.168 497.096,472.326 496.106,474.64C495.117,476.955 494.622,480.52 494.622,485.336Z" style="fill-rule:nonzero;"/>
        <path d="M1686.62,491.069L1694.41,491.069L1694.41,468.949L1695.25,465.141L1692.56,468.445L1687.58,471.861L1684.5,467.661L1697.26,457.357L1701.35,457.357L1701.35,491.069L1708.97,491.069L1708.97,497.229L1686.62,497.229L1686.62,491.069Z" style="fill-rule:nonzero;"/>
        <path d="M1714.96,477.573C1714.96,470.704 1716.14,465.598 1718.49,462.257C1720.84,458.916 1724.22,457.245 1728.62,457.245C1733.33,457.245 1736.78,458.897 1738.98,462.201C1741.19,465.505 1742.29,470.629 1742.29,477.573C1742.29,484.48 1741.1,489.613 1738.73,492.973C1736.36,496.333 1732.97,498.013 1728.57,498.013C1723.9,498.013 1720.47,496.249 1718.26,492.721C1716.06,489.193 1714.96,484.144 1714.96,477.573ZM1722.24,477.573C1722.24,482.128 1722.74,485.646 1723.72,488.129C1724.71,490.612 1726.35,491.853 1728.62,491.853C1730.83,491.853 1732.44,490.714 1733.47,488.437C1734.5,486.16 1735.01,482.538 1735.01,477.573C1735.01,473.056 1734.52,469.565 1733.55,467.101C1732.58,464.637 1730.92,463.405 1728.57,463.405C1726.33,463.405 1724.71,464.562 1723.72,466.877C1722.74,469.192 1722.24,472.757 1722.24,477.573Z" style="fill-rule:nonzero;"/>
        <path d="M1279.7,855.235L1287.49,855.235L1287.49,833.115L1288.33,829.307L1285.64,832.611L1280.65,836.027L1277.58,831.827L1290.34,821.523L1294.43,821.523L1294.43,855.235L1302.05,855.235L1302.05,861.395L1279.7,861.395L1279.7,855.235Z" style="fill-rule:nonzero;"/>
        <path d="M1308.04,841.739C1308.04,834.869 1309.21,829.764 1311.57,826.423C1313.92,823.081 1317.3,821.411 1321.7,821.411C1326.41,821.411 1329.86,823.063 1332.06,826.367C1334.27,829.671 1335.37,834.795 1335.37,841.739C1335.37,848.645 1334.18,853.779 1331.81,857.139C1329.44,860.499 1326.05,862.179 1321.65,862.179C1316.98,862.179 1313.55,860.415 1311.34,856.887C1309.14,853.359 1308.04,848.309 1308.04,841.739ZM1315.32,841.739C1315.32,846.293 1315.81,849.812 1316.8,852.295C1317.79,854.777 1319.42,856.019 1321.7,856.019C1323.9,856.019 1325.52,854.88 1326.55,852.603C1327.57,850.325 1328.09,846.704 1328.09,841.739C1328.09,837.221 1327.6,833.731 1326.63,831.267C1325.66,828.803 1324,827.571 1321.65,827.571C1319.41,827.571 1317.79,828.728 1316.8,831.043C1315.81,833.357 1315.32,836.923 1315.32,841.739Z" style="fill-rule:nonzero;"/>
        <path d="M457.606,635.08L465.39,635.08L465.39,612.96L466.23,609.152L463.542,612.456L458.558,615.872L455.478,611.672L468.246,601.368L472.334,601.368L472.334,635.08L479.95,635.08L479.95,641.24L457.606,641.24L457.606,635.08Z" style="fill-rule:nonzero;"/>
        <path d="M514.67,630.32L508.51,630.32L508.51,641.24L501.734,641.24L501.734,630.32L484.766,630.32L484.766,626.176L502.518,601.76L508.51,601.76L508.51,624.496L514.67,624.496L514.67,630.32ZM501.734,615.928L502.238,611.224L502.014,611.224L500.11,615.256L494.286,622.816L491.486,624.944L495.07,624.496L501.734,624.496L501.734,615.928Z" style="fill-rule:nonzero;"/>
        <path d="M1686.62,217.859L1694.41,217.859L1694.41,195.739L1695.25,191.931L1692.56,195.235L1687.58,198.651L1684.5,194.451L1697.26,184.147L1701.35,184.147L1701.35,217.859L1708.97,217.859L1708.97,224.019L1686.62,224.019L1686.62,217.859Z" style="fill-rule:nonzero;"/>
        <path d="M1743.69,213.099L1737.53,213.099L1737.53,224.019L1730.75,224.019L1730.75,213.099L1713.78,213.099L1713.78,208.955L1731.54,184.539L1737.53,184.539L1737.53,207.275L1743.69,207.275L1743.69,213.099ZM1730.75,198.707L1731.26,194.003L1731.03,194.003L1729.13,198.035L1723.3,205.595L1720.5,207.723L1724.09,207.275L1730.75,207.275L1730.75,198.707Z" style="fill-rule:nonzero;"/>
        <path d="M1824.64,855.002L1832.42,855.002L1832.42,832.882L1833.26,829.074L1830.58,832.378L1825.59,835.794L1822.51,831.594L1835.28,821.29L1839.37,821.29L1839.37,855.002L1846.98,855.002L1846.98,861.162L1824.64,861.162L1824.64,855.002Z" style="fill-rule:nonzero;"/>
        <path d="M1881.7,850.242L1875.54,850.242L1875.54,861.162L1868.77,861.162L1868.77,850.242L1851.8,850.242L1851.8,846.098L1869.55,821.682L1875.54,821.682L1875.54,844.418L1881.7,844.418L1881.7,850.242ZM1868.77,835.85L1869.27,831.146L1869.05,831.146L1867.14,835.178L1861.32,842.738L1858.52,844.866L1862.1,844.418L1868.77,844.418L1868.77,835.85Z" style="fill-rule:nonzero;"/>
        <path d="M619.831,225.502C622.146,225.502 623.91,224.886 625.123,223.654C626.337,222.422 626.943,220.929 626.943,219.174C626.943,217.046 626.309,215.478 625.039,214.47C623.77,213.462 621.773,212.958 619.047,212.958L615.015,212.958L615.015,209.094L621.791,199.854L624.983,197.334L620.559,197.838L611.151,197.838L611.151,191.678L632.543,191.678L632.543,195.654L624.647,206.238L622.183,207.75L622.183,208.03L624.535,207.694C625.842,207.806 627.083,208.105 628.259,208.59C629.435,209.076 630.462,209.776 631.339,210.69C632.217,211.605 632.917,212.734 633.439,214.078C633.962,215.422 634.223,216.972 634.223,218.726C634.223,220.929 633.859,222.833 633.131,224.438C632.403,226.044 631.395,227.388 630.107,228.47C628.819,229.553 627.317,230.356 625.599,230.878C623.882,231.401 622.034,231.662 620.055,231.662C618.413,231.662 616.714,231.513 614.959,231.214C613.205,230.916 611.786,230.486 610.703,229.926L612.663,223.878C613.634,224.364 614.707,224.756 615.883,225.054C617.059,225.353 618.375,225.502 619.831,225.502Z" style="fill-rule:nonzero;"/>
        <path d="M1570.35,628.669C1572.66,628.669 1574.42,628.053 1575.64,626.821C1576.85,625.589 1577.46,624.096 1577.46,622.341C1577.46,620.213 1576.82,618.645 1575.55,617.637C1574.28,616.629 1572.29,616.125 1569.56,616.125L1565.53,616.125L1565.53,612.261L1572.31,603.021L1575.5,600.501L1571.07,601.005L1561.67,601.005L1561.67,594.845L1583.06,594.845L1583.06,598.821L1575.16,609.405L1572.7,610.917L1572.7,611.197L1575.05,610.861C1576.36,610.973 1577.6,611.272 1578.77,611.757C1579.95,612.242 1580.98,612.942 1581.85,613.857C1582.73,614.772 1583.43,615.901 1583.95,617.245C1584.48,618.589 1584.74,620.138 1584.74,621.893C1584.74,624.096 1584.37,626 1583.65,627.605C1582.92,629.21 1581.91,630.554 1580.62,631.637C1579.33,632.72 1577.83,633.522 1576.11,634.045C1574.4,634.568 1572.55,634.829 1570.57,634.829C1568.93,634.829 1567.23,634.68 1565.47,634.381C1563.72,634.082 1562.3,633.653 1561.22,633.093L1563.18,627.045C1564.15,627.53 1565.22,627.922 1566.4,628.221C1567.57,628.52 1568.89,628.669 1570.35,628.669Z" style="fill-rule:nonzero;"/>
        <path d="M350.528,856.336C352.842,856.336 354.606,855.72 355.82,854.488C357.033,853.256 357.64,851.762 357.64,850.008C357.64,847.88 357.005,846.312 355.736,845.304C354.466,844.296 352.469,843.792 349.744,843.792L345.712,843.792L345.712,839.928L352.488,830.688L355.68,828.168L351.256,828.672L341.848,828.672L341.848,822.512L363.24,822.512L363.24,826.488L355.344,837.072L352.88,838.584L352.88,838.864L355.232,838.528C356.538,838.64 357.78,838.938 358.956,839.424C360.132,839.909 361.158,840.609 362.036,841.524C362.913,842.438 363.613,843.568 364.136,844.912C364.658,846.256 364.92,847.805 364.92,849.56C364.92,851.762 364.556,853.666 363.828,855.272C363.1,856.877 362.092,858.221 360.804,859.304C359.516,860.386 358.013,861.189 356.296,861.712C354.578,862.234 352.73,862.496 350.752,862.496C349.109,862.496 347.41,862.346 345.656,862.048C343.901,861.749 342.482,861.32 341.4,860.76L343.36,854.712C344.33,855.197 345.404,855.589 346.58,855.888C347.756,856.186 349.072,856.336 350.528,856.336Z" style="fill-rule:nonzero;"/>
        <path d="M612.159,366.835L624.983,336.651L627.447,333.907L624.087,334.467L609.695,334.467L609.695,327.635L634.951,327.635L634.951,329.763L619.271,366.835L612.159,366.835Z" style="fill-rule:nonzero;"/>
        <path d="M1429.14,223.683L1441.96,193.499L1444.42,190.755L1441.06,191.315L1426.67,191.315L1426.67,184.483L1451.93,184.483L1451.93,186.611L1436.25,223.683L1429.14,223.683Z" style="fill-rule:nonzero;"/>
        <path d="M887.856,860.794L900.68,830.61L903.144,827.866L899.784,828.426L885.392,828.426L885.392,821.594L910.648,821.594L910.648,823.722L894.968,860.794L887.856,860.794Z" style="fill-rule:nonzero;"/>
        <path d="M773.268,219.958L767.108,219.958L767.108,230.878L760.332,230.878L760.332,219.958L743.364,219.958L743.364,215.814L761.116,191.398L767.108,191.398L767.108,214.134L773.268,214.134L773.268,219.958ZM760.332,205.566L760.836,200.862L760.612,200.862L758.708,204.894L752.884,212.454L750.084,214.582L753.668,214.134L760.332,214.134L760.332,205.566Z" style="fill-rule:nonzero;"/>
        <path d="M1587.93,486.701L1581.77,486.701L1581.77,497.621L1574.99,497.621L1574.99,486.701L1558.03,486.701L1558.03,482.557L1575.78,458.141L1581.77,458.141L1581.77,480.877L1587.93,480.877L1587.93,486.701ZM1574.99,472.309L1575.5,467.605L1575.27,467.605L1573.37,471.637L1567.55,479.197L1564.75,481.325L1568.33,480.877L1574.99,480.877L1574.99,472.309Z" style="fill-rule:nonzero;"/>
        <path d="M503.964,850.792L497.804,850.792L497.804,861.712L491.028,861.712L491.028,850.792L474.06,850.792L474.06,846.648L491.812,822.232L497.804,822.232L497.804,844.968L503.964,844.968L503.964,850.792ZM491.028,836.4L491.532,831.696L491.308,831.696L489.404,835.728L483.58,843.288L480.78,845.416L484.364,844.968L491.028,844.968L491.028,836.4Z" style="fill-rule:nonzero;"/>
        <path d="M496.358,201.254C496.358,203.158 496.013,205.081 495.322,207.022C494.632,208.964 493.754,210.868 492.69,212.734C491.626,214.601 490.45,216.402 489.162,218.138C487.874,219.874 486.614,221.47 485.382,222.926L482.414,225.222L482.414,225.502L486.446,224.718L497.198,224.718L497.198,230.878L473.622,230.878L473.622,227.126C474.518,226.193 475.526,225.101 476.646,223.85C477.766,222.6 478.896,221.274 480.034,219.874C481.173,218.474 482.284,217.028 483.366,215.534C484.449,214.041 485.42,212.538 486.278,211.026C487.137,209.514 487.818,208.049 488.322,206.63C488.826,205.212 489.078,203.868 489.078,202.598C489.078,201.068 488.64,199.808 487.762,198.818C486.885,197.829 485.494,197.334 483.59,197.334C482.396,197.334 481.173,197.586 479.922,198.09C478.672,198.594 477.617,199.238 476.758,200.022L473.846,194.87C475.302,193.676 476.954,192.714 478.802,191.986C480.65,191.258 482.825,190.894 485.326,190.894C486.932,190.894 488.406,191.118 489.75,191.566C491.094,192.014 492.252,192.668 493.222,193.526C494.193,194.385 494.958,195.458 495.518,196.746C496.078,198.034 496.358,199.537 496.358,201.254Z" style="fill-rule:nonzero;"/>
        <path d="M1450.72,467.997C1450.72,469.901 1450.38,471.824 1449.69,473.765C1449,475.706 1448.12,477.61 1447.06,479.477C1445.99,481.344 1444.82,483.145 1443.53,484.881C1442.24,486.617 1440.98,488.213 1439.75,489.669L1436.78,491.965L1436.78,492.245L1440.81,491.461L1451.56,491.461L1451.56,497.621L1427.99,497.621L1427.99,493.869C1428.88,492.936 1429.89,491.844 1431.01,490.593C1432.13,489.342 1433.26,488.017 1434.4,486.617C1435.54,485.217 1436.65,483.77 1437.73,482.277C1438.81,480.784 1439.79,479.281 1440.64,477.769C1441.5,476.257 1442.18,474.792 1442.69,473.373C1443.19,471.954 1443.44,470.61 1443.44,469.341C1443.44,467.81 1443.01,466.55 1442.13,465.561C1441.25,464.572 1439.86,464.077 1437.96,464.077C1436.76,464.077 1435.54,464.329 1434.29,464.833C1433.04,465.337 1431.98,465.981 1431.12,466.765L1428.21,461.613C1429.67,460.418 1431.32,459.457 1433.17,458.729C1435.02,458.001 1437.19,457.637 1439.69,457.637C1441.3,457.637 1442.77,457.861 1444.12,458.309C1445.46,458.757 1446.62,459.41 1447.59,460.269C1448.56,461.128 1449.32,462.201 1449.88,463.489C1450.44,464.777 1450.72,466.28 1450.72,467.997Z" style="fill-rule:nonzero;"/>
        <path d="M227.055,832.088C227.055,833.992 226.709,835.914 226.019,837.856C225.328,839.797 224.451,841.701 223.387,843.568C222.323,845.434 221.147,847.236 219.859,848.972C218.571,850.708 217.311,852.304 216.079,853.76L213.111,856.056L213.111,856.336L217.143,855.552L227.895,855.552L227.895,861.712L204.319,861.712L204.319,857.96C205.215,857.026 206.223,855.934 207.343,854.684C208.463,853.433 209.592,852.108 210.731,850.708C211.869,849.308 212.98,847.861 214.063,846.368C215.145,844.874 216.116,843.372 216.975,841.86C217.833,840.348 218.515,838.882 219.019,837.464C219.523,836.045 219.775,834.701 219.775,833.432C219.775,831.901 219.336,830.641 218.459,829.652C217.581,828.662 216.191,828.168 214.287,828.168C213.092,828.168 211.869,828.42 210.619,828.924C209.368,829.428 208.313,830.072 207.455,830.856L204.543,825.704C205.999,824.509 207.651,823.548 209.499,822.82C211.347,822.092 213.521,821.728 216.023,821.728C217.628,821.728 219.103,821.952 220.447,822.4C221.791,822.848 222.948,823.501 223.919,824.36C224.889,825.218 225.655,826.292 226.215,827.58C226.775,828.868 227.055,830.37 227.055,832.088Z" style="fill-rule:nonzero;"/>
        <path d="M746.455,357.291C746.455,355.984 746.623,354.818 746.959,353.791C747.295,352.764 747.771,351.831 748.387,350.991C749.003,350.151 749.731,349.395 750.571,348.723C751.411,348.051 752.316,347.435 753.287,346.875C751.458,345.718 750.02,344.383 748.975,342.871C747.93,341.359 747.407,339.483 747.407,337.243C747.407,335.787 747.678,334.424 748.219,333.155C748.76,331.886 749.544,330.784 750.571,329.851C751.598,328.918 752.839,328.19 754.295,327.667C755.751,327.144 757.394,326.883 759.223,326.883C760.903,326.883 762.434,327.107 763.815,327.555C765.196,328.003 766.382,328.638 767.371,329.459C768.36,330.28 769.126,331.279 769.667,332.455C770.208,333.631 770.479,334.928 770.479,336.347C770.479,338.55 769.984,340.416 768.995,341.947C768.006,343.478 766.559,344.878 764.655,346.147C766.895,347.454 768.584,348.891 769.723,350.459C770.862,352.027 771.431,354.043 771.431,356.507C771.431,358.187 771.123,359.708 770.507,361.071C769.891,362.434 769.023,363.6 767.903,364.571C766.783,365.542 765.439,366.298 763.871,366.839C762.303,367.38 760.586,367.651 758.719,367.651C756.852,367.651 755.163,367.399 753.651,366.895C752.139,366.391 750.851,365.691 749.787,364.795C748.723,363.899 747.902,362.816 747.323,361.547C746.744,360.278 746.455,358.859 746.455,357.291ZM764.487,356.563C764.487,355.704 764.282,354.92 763.871,354.211C763.46,353.502 762.928,352.858 762.275,352.279C761.622,351.7 760.894,351.168 760.091,350.683C759.288,350.198 758.476,349.731 757.655,349.283C755.9,350.291 754.696,351.383 754.043,352.559C753.39,353.735 753.063,354.902 753.063,356.059C753.063,357.552 753.576,358.831 754.603,359.895C755.63,360.959 757.058,361.491 758.887,361.491C760.567,361.491 761.92,361.08 762.947,360.259C763.974,359.438 764.487,358.206 764.487,356.563ZM754.351,337.355C754.351,338.251 754.519,339.035 754.855,339.707C755.191,340.379 755.648,340.967 756.227,341.471C756.806,341.975 757.459,342.442 758.187,342.871C758.915,343.3 759.671,343.702 760.455,344.075C762.695,342.171 763.815,340.08 763.815,337.803C763.815,336.235 763.358,335.05 762.443,334.247C761.528,333.444 760.418,333.043 759.111,333.043C757.468,333.043 756.264,333.472 755.499,334.331C754.734,335.19 754.351,336.198 754.351,337.355Z" style="fill-rule:nonzero;"/>
        <path d="M1561.22,214.891C1561.22,213.585 1561.39,212.418 1561.72,211.391C1562.06,210.365 1562.53,209.431 1563.15,208.591C1563.77,207.751 1564.49,206.995 1565.33,206.323C1566.17,205.651 1567.08,205.035 1568.05,204.475C1566.22,203.318 1564.78,201.983 1563.74,200.471C1562.69,198.959 1562.17,197.083 1562.17,194.843C1562.17,193.387 1562.44,192.025 1562.98,190.755C1563.52,189.486 1564.31,188.385 1565.33,187.451C1566.36,186.518 1567.6,185.79 1569.06,185.267C1570.51,184.745 1572.16,184.483 1573.99,184.483C1575.67,184.483 1577.2,184.707 1578.58,185.155C1579.96,185.603 1581.14,186.238 1582.13,187.059C1583.12,187.881 1583.89,188.879 1584.43,190.055C1584.97,191.231 1585.24,192.529 1585.24,193.947C1585.24,196.15 1584.75,198.017 1583.76,199.547C1582.77,201.078 1581.32,202.478 1579.42,203.747C1581.66,205.054 1583.35,206.491 1584.49,208.059C1585.62,209.627 1586.19,211.643 1586.19,214.107C1586.19,215.787 1585.89,217.309 1585.27,218.671C1584.65,220.034 1583.79,221.201 1582.67,222.171C1581.55,223.142 1580.2,223.898 1578.63,224.439C1577.07,224.981 1575.35,225.251 1573.48,225.251C1571.62,225.251 1569.93,224.999 1568.41,224.495C1566.9,223.991 1565.61,223.291 1564.55,222.395C1563.49,221.499 1562.66,220.417 1562.09,219.147C1561.51,217.878 1561.22,216.459 1561.22,214.891ZM1579.25,214.163C1579.25,213.305 1579.04,212.521 1578.63,211.811C1578.22,211.102 1577.69,210.458 1577.04,209.879C1576.38,209.301 1575.66,208.769 1574.85,208.283C1574.05,207.798 1573.24,207.331 1572.42,206.883C1570.66,207.891 1569.46,208.983 1568.81,210.159C1568.15,211.335 1567.83,212.502 1567.83,213.659C1567.83,215.153 1568.34,216.431 1569.37,217.495C1570.39,218.559 1571.82,219.091 1573.65,219.091C1575.33,219.091 1576.68,218.681 1577.71,217.859C1578.74,217.038 1579.25,215.806 1579.25,214.163ZM1569.11,194.955C1569.11,195.851 1569.28,196.635 1569.62,197.307C1569.95,197.979 1570.41,198.567 1570.99,199.071C1571.57,199.575 1572.22,200.042 1572.95,200.471C1573.68,200.901 1574.43,201.302 1575.22,201.675C1577.46,199.771 1578.58,197.681 1578.58,195.403C1578.58,193.835 1578.12,192.65 1577.21,191.847C1576.29,191.045 1575.18,190.643 1573.87,190.643C1572.23,190.643 1571.03,191.073 1570.26,191.931C1569.5,192.79 1569.11,193.798 1569.11,194.955Z" style="fill-rule:nonzero;"/>
        <path d="M1022.15,851.25C1022.15,849.944 1022.32,848.777 1022.65,847.75C1022.99,846.724 1023.47,845.79 1024.08,844.95C1024.7,844.11 1025.43,843.354 1026.27,842.682C1027.11,842.01 1028.01,841.394 1028.98,840.834C1027.15,839.677 1025.72,838.342 1024.67,836.83C1023.63,835.318 1023.1,833.442 1023.1,831.202C1023.1,829.746 1023.37,828.384 1023.92,827.114C1024.46,825.845 1025.24,824.744 1026.27,823.81C1027.29,822.877 1028.54,822.149 1029.99,821.626C1031.45,821.104 1033.09,820.842 1034.92,820.842C1036.6,820.842 1038.13,821.066 1039.51,821.514C1040.89,821.962 1042.08,822.597 1043.07,823.418C1044.06,824.24 1044.82,825.238 1045.36,826.414C1045.9,827.59 1046.17,828.888 1046.17,830.306C1046.17,832.509 1045.68,834.376 1044.69,835.906C1043.7,837.437 1042.26,838.837 1040.35,840.106C1042.59,841.413 1044.28,842.85 1045.42,844.418C1046.56,845.986 1047.13,848.002 1047.13,850.466C1047.13,852.146 1046.82,853.668 1046.2,855.03C1045.59,856.393 1044.72,857.56 1043.6,858.53C1042.48,859.501 1041.13,860.257 1039.57,860.798C1038,861.34 1036.28,861.61 1034.41,861.61C1032.55,861.61 1030.86,861.358 1029.35,860.854C1027.84,860.35 1026.55,859.65 1025.48,858.754C1024.42,857.858 1023.6,856.776 1023.02,855.506C1022.44,854.237 1022.15,852.818 1022.15,851.25ZM1040.18,850.522C1040.18,849.664 1039.98,848.88 1039.57,848.17C1039.16,847.461 1038.62,846.817 1037.97,846.238C1037.32,845.66 1036.59,845.128 1035.79,844.642C1034.99,844.157 1034.17,843.69 1033.35,843.242C1031.6,844.25 1030.39,845.342 1029.74,846.518C1029.09,847.694 1028.76,848.861 1028.76,850.018C1028.76,851.512 1029.27,852.79 1030.3,853.854C1031.33,854.918 1032.75,855.45 1034.58,855.45C1036.26,855.45 1037.62,855.04 1038.64,854.218C1039.67,853.397 1040.18,852.165 1040.18,850.522ZM1030.05,831.314C1030.05,832.21 1030.21,832.994 1030.55,833.666C1030.89,834.338 1031.35,834.926 1031.92,835.43C1032.5,835.934 1033.15,836.401 1033.88,836.83C1034.61,837.26 1035.37,837.661 1036.15,838.034C1038.39,836.13 1039.51,834.04 1039.51,831.762C1039.51,830.194 1039.05,829.009 1038.14,828.206C1037.22,827.404 1036.11,827.002 1034.81,827.002C1033.16,827.002 1031.96,827.432 1031.19,828.29C1030.43,829.149 1030.05,830.157 1030.05,831.314Z" style="fill-rule:nonzero;"/>
        <path d="M596.375,499.616L604.159,499.616L604.159,477.496L604.999,473.688L602.311,476.992L597.327,480.408L594.247,476.208L607.015,465.904L611.103,465.904L611.103,499.616L618.719,499.616L618.719,505.776L596.375,505.776L596.375,499.616Z" style="fill-rule:nonzero;"/>
        <path d="M628.127,499.616L635.911,499.616L635.911,477.496L636.751,473.688L634.063,476.992L629.079,480.408L625.999,476.208L638.767,465.904L642.855,465.904L642.855,499.616L650.471,499.616L650.471,505.776L628.127,505.776L628.127,499.616Z" style="fill-rule:nonzero;"/>
        <path d="M1823.99,628.333L1831.78,628.333L1831.78,606.213L1832.62,602.405L1829.93,605.709L1824.94,609.125L1821.87,604.925L1834.63,594.621L1838.72,594.621L1838.72,628.333L1846.34,628.333L1846.34,634.493L1823.99,634.493L1823.99,628.333Z" style="fill-rule:nonzero;"/>
        <path d="M1855.75,628.333L1863.53,628.333L1863.53,606.213L1864.37,602.405L1861.68,605.709L1856.7,609.125L1853.62,604.925L1866.38,594.621L1870.47,594.621L1870.47,628.333L1878.09,628.333L1878.09,634.493L1855.75,634.493L1855.75,628.333Z" style="fill-rule:nonzero;"/>
        <path d="M1417.07,856.019L1424.86,856.019L1424.86,833.899L1425.69,830.091L1423.01,833.395L1418.02,836.811L1414.94,832.611L1427.71,822.307L1431.8,822.307L1431.8,856.019L1439.41,856.019L1439.41,862.179L1417.07,862.179L1417.07,856.019Z" style="fill-rule:nonzero;"/>
        <path d="M1448.82,856.019L1456.61,856.019L1456.61,833.899L1457.45,830.091L1454.76,833.395L1449.78,836.811L1446.69,832.611L1459.46,822.307L1463.55,822.307L1463.55,856.019L1471.17,856.019L1471.17,862.179L1448.82,862.179L1448.82,856.019Z" style="fill-rule:nonzero;"/>
        <path d="M733.239,499.616L741.023,499.616L741.023,477.496L741.863,473.688L739.175,476.992L734.191,480.408L731.111,476.208L743.879,465.904L747.967,465.904L747.967,499.616L755.583,499.616L755.583,505.776L733.239,505.776L733.239,499.616Z" style="fill-rule:nonzero;"/>
        <path d="M785.935,476.152C785.935,478.056 785.59,479.979 784.899,481.92C784.208,483.862 783.331,485.766 782.267,487.632C781.203,489.499 780.027,491.3 778.739,493.036C777.451,494.772 776.191,496.368 774.959,497.824L771.991,500.12L771.991,500.4L776.023,499.616L786.775,499.616L786.775,505.776L763.199,505.776L763.199,502.024C764.095,501.091 765.103,499.999 766.223,498.748C767.343,497.498 768.472,496.172 769.611,494.772C770.75,493.372 771.86,491.926 772.943,490.432C774.026,488.939 774.996,487.436 775.855,485.924C776.714,484.412 777.395,482.947 777.899,481.528C778.403,480.11 778.655,478.766 778.655,477.496C778.655,475.966 778.216,474.706 777.339,473.716C776.462,472.727 775.071,472.232 773.167,472.232C771.972,472.232 770.75,472.484 769.499,472.988C768.248,473.492 767.194,474.136 766.335,474.92L763.423,469.768C764.879,468.574 766.531,467.612 768.379,466.884C770.227,466.156 772.402,465.792 774.903,465.792C776.508,465.792 777.983,466.016 779.327,466.464C780.671,466.912 781.828,467.566 782.799,468.424C783.77,469.283 784.535,470.356 785.095,471.644C785.655,472.932 785.935,474.435 785.935,476.152Z" style="fill-rule:nonzero;"/>
        <path d="M1823.99,491.853L1831.78,491.853L1831.78,469.733L1832.62,465.925L1829.93,469.229L1824.94,472.645L1821.87,468.445L1834.63,458.141L1838.72,458.141L1838.72,491.853L1846.34,491.853L1846.34,498.013L1823.99,498.013L1823.99,491.853Z" style="fill-rule:nonzero;"/>
        <path d="M1876.69,468.389C1876.69,470.293 1876.34,472.216 1875.65,474.157C1874.96,476.098 1874.09,478.002 1873.02,479.869C1871.96,481.736 1870.78,483.537 1869.49,485.273C1868.2,487.009 1866.94,488.605 1865.71,490.061L1862.75,492.357L1862.75,492.637L1866.78,491.853L1877.53,491.853L1877.53,498.013L1853.95,498.013L1853.95,494.261C1854.85,493.328 1855.86,492.236 1856.98,490.985C1858.1,489.734 1859.23,488.409 1860.37,487.009C1861.5,485.609 1862.61,484.162 1863.7,482.669C1864.78,481.176 1865.75,479.673 1866.61,478.161C1867.47,476.649 1868.15,475.184 1868.65,473.765C1869.16,472.346 1869.41,471.002 1869.41,469.733C1869.41,468.202 1868.97,466.942 1868.09,465.953C1867.22,464.964 1865.83,464.469 1863.92,464.469C1862.73,464.469 1861.5,464.721 1860.25,465.225C1859,465.729 1857.95,466.373 1857.09,467.157L1854.18,462.005C1855.63,460.81 1857.29,459.849 1859.13,459.121C1860.98,458.393 1863.15,458.029 1865.66,458.029C1867.26,458.029 1868.74,458.253 1870.08,458.701C1871.42,459.149 1872.58,459.802 1873.55,460.661C1874.52,461.52 1875.29,462.593 1875.85,463.881C1876.41,465.169 1876.69,466.672 1876.69,468.389Z" style="fill-rule:nonzero;"/>
        <path d="M1553.93,856.019L1561.72,856.019L1561.72,833.899L1562.56,830.091L1559.87,833.395L1554.89,836.811L1551.81,832.611L1564.58,822.307L1568.66,822.307L1568.66,856.019L1576.28,856.019L1576.28,862.179L1553.93,862.179L1553.93,856.019Z" style="fill-rule:nonzero;"/>
        <path d="M1606.63,832.555C1606.63,834.459 1606.29,836.381 1605.6,838.323C1604.9,840.264 1604.03,842.168 1602.96,844.035C1601.9,845.901 1600.72,847.703 1599.43,849.439C1598.15,851.175 1596.89,852.771 1595.65,854.227L1592.69,856.523L1592.69,856.803L1596.72,856.019L1607.47,856.019L1607.47,862.179L1583.89,862.179L1583.89,858.427C1584.79,857.493 1585.8,856.401 1586.92,855.151C1588.04,853.9 1589.17,852.575 1590.31,851.175C1591.45,849.775 1592.56,848.328 1593.64,846.835C1594.72,845.341 1595.69,843.839 1596.55,842.327C1597.41,840.815 1598.09,839.349 1598.6,837.931C1599.1,836.512 1599.35,835.168 1599.35,833.899C1599.35,832.368 1598.91,831.108 1598.04,830.119C1597.16,829.129 1595.77,828.635 1593.86,828.635C1592.67,828.635 1591.45,828.887 1590.19,829.391C1588.94,829.895 1587.89,830.539 1587.03,831.323L1584.12,826.171C1585.58,824.976 1587.23,824.015 1589.08,823.287C1590.92,822.559 1593.1,822.195 1595.6,822.195C1597.2,822.195 1598.68,822.419 1600.02,822.867C1601.37,823.315 1602.53,823.968 1603.5,824.827C1604.47,825.685 1605.23,826.759 1605.79,828.047C1606.35,829.335 1606.63,830.837 1606.63,832.555Z" style="fill-rule:nonzero;"/>
        <path d="M732.399,635.192L740.183,635.192L740.183,613.072L741.023,609.264L738.335,612.568L733.351,615.984L730.271,611.784L743.039,601.48L747.127,601.48L747.127,635.192L754.743,635.192L754.743,641.352L732.399,641.352L732.399,635.192Z" style="fill-rule:nonzero;"/>
        <path d="M787.615,629.2C787.615,631.029 787.307,632.728 786.691,634.296C786.075,635.864 785.207,637.227 784.087,638.384C782.967,639.541 781.614,640.456 780.027,641.128C778.44,641.8 776.695,642.136 774.791,642.136C772.85,642.136 771.067,641.828 769.443,641.212C767.819,640.596 766.41,639.672 765.215,638.44C764.02,637.208 763.087,635.659 762.415,633.792C761.743,631.925 761.407,629.76 761.407,627.296C761.407,623.6 761.939,620.259 763.003,617.272C764.067,614.285 765.504,611.681 767.315,609.46C769.126,607.239 771.235,605.447 773.643,604.084C776.051,602.721 778.599,601.816 781.287,601.368L782.911,607.136C781.044,607.435 779.327,608.013 777.759,608.872C776.191,609.731 774.8,610.757 773.587,611.952C772.374,613.147 771.347,614.481 770.507,615.956C769.667,617.431 769.079,618.952 768.743,620.52C769.49,619.587 770.46,618.793 771.655,618.14C772.85,617.487 774.343,617.16 776.135,617.16C777.815,617.16 779.364,617.421 780.783,617.944C782.202,618.467 783.415,619.241 784.423,620.268C785.431,621.295 786.215,622.555 786.775,624.048C787.335,625.541 787.615,627.259 787.615,629.2ZM780.559,629.592C780.559,625.411 778.506,623.32 774.399,623.32C772.906,623.32 771.646,623.656 770.619,624.328C769.592,625 768.874,625.784 768.463,626.68C768.388,627.091 768.351,627.445 768.351,627.744L768.351,628.64C768.351,629.536 768.482,630.423 768.743,631.3C769.004,632.177 769.387,632.961 769.891,633.652C770.395,634.343 771.039,634.903 771.823,635.332C772.607,635.761 773.54,635.976 774.623,635.976C776.378,635.976 777.806,635.379 778.907,634.184C780.008,632.989 780.559,631.459 780.559,629.592Z" style="fill-rule:nonzero;"/>
        <path d="M1823.99,217.971L1831.78,217.971L1831.78,195.851L1832.62,192.043L1829.93,195.347L1824.94,198.763L1821.87,194.563L1834.63,184.259L1838.72,184.259L1838.72,217.971L1846.34,217.971L1846.34,224.131L1823.99,224.131L1823.99,217.971Z" style="fill-rule:nonzero;"/>
        <path d="M1879.21,211.979C1879.21,213.809 1878.9,215.507 1878.29,217.075C1877.67,218.643 1876.8,220.006 1875.68,221.163C1874.56,222.321 1873.21,223.235 1871.62,223.907C1870.03,224.579 1868.29,224.915 1866.38,224.915C1864.44,224.915 1862.66,224.607 1861.04,223.991C1859.41,223.375 1858,222.451 1856.81,221.219C1855.61,219.987 1854.68,218.438 1854.01,216.571C1853.34,214.705 1853,212.539 1853,210.075C1853,206.379 1853.53,203.038 1854.6,200.051C1855.66,197.065 1857.1,194.461 1858.91,192.239C1860.72,190.018 1862.83,188.226 1865.24,186.863C1867.64,185.501 1870.19,184.595 1872.88,184.147L1874.51,189.915C1872.64,190.214 1870.92,190.793 1869.35,191.651C1867.79,192.51 1866.39,193.537 1865.18,194.731C1863.97,195.926 1862.94,197.261 1862.1,198.735C1861.26,200.21 1860.67,201.731 1860.34,203.299C1861.08,202.366 1862.05,201.573 1863.25,200.919C1864.44,200.266 1865.94,199.939 1867.73,199.939C1869.41,199.939 1870.96,200.201 1872.38,200.723C1873.8,201.246 1875.01,202.021 1876.02,203.047C1877.03,204.074 1877.81,205.334 1878.37,206.827C1878.93,208.321 1879.21,210.038 1879.21,211.979ZM1872.15,212.371C1872.15,208.19 1870.1,206.099 1865.99,206.099C1864.5,206.099 1863.24,206.435 1862.21,207.107C1861.19,207.779 1860.47,208.563 1860.06,209.459C1859.98,209.87 1859.94,210.225 1859.94,210.523L1859.94,211.419C1859.94,212.315 1860.08,213.202 1860.34,214.079C1860.6,214.957 1860.98,215.741 1861.49,216.431C1861.99,217.122 1862.63,217.682 1863.42,218.111C1864.2,218.541 1865.13,218.755 1866.22,218.755C1867.97,218.755 1869.4,218.158 1870.5,216.963C1871.6,215.769 1872.15,214.238 1872.15,212.371Z" style="fill-rule:nonzero;"/>
        <path d="M2099.43,855.114L2107.22,855.114L2107.22,832.994L2108.06,829.186L2105.37,832.49L2100.39,835.906L2097.3,831.706L2110.07,821.402L2114.16,821.402L2114.16,855.114L2121.78,855.114L2121.78,861.274L2099.43,861.274L2099.43,855.114Z" style="fill-rule:nonzero;"/>
        <path d="M2154.65,849.122C2154.65,850.952 2154.34,852.65 2153.72,854.218C2153.11,855.786 2152.24,857.149 2151.12,858.306C2150,859.464 2148.65,860.378 2147.06,861.05C2145.47,861.722 2143.73,862.058 2141.82,862.058C2139.88,862.058 2138.1,861.75 2136.48,861.134C2134.85,860.518 2133.44,859.594 2132.25,858.362C2131.05,857.13 2130.12,855.581 2129.45,853.714C2128.78,851.848 2128.44,849.682 2128.44,847.218C2128.44,843.522 2128.97,840.181 2130.04,837.194C2131.1,834.208 2132.54,831.604 2134.35,829.382C2136.16,827.161 2138.27,825.369 2140.68,824.006C2143.09,822.644 2145.63,821.738 2148.32,821.29L2149.95,827.058C2148.08,827.357 2146.36,827.936 2144.79,828.794C2143.22,829.653 2141.83,830.68 2140.62,831.874C2139.41,833.069 2138.38,834.404 2137.54,835.878C2136.7,837.353 2136.11,838.874 2135.78,840.442C2136.52,839.509 2137.49,838.716 2138.69,838.062C2139.88,837.409 2141.38,837.082 2143.17,837.082C2144.85,837.082 2146.4,837.344 2147.82,837.866C2149.24,838.389 2150.45,839.164 2151.46,840.19C2152.47,841.217 2153.25,842.477 2153.81,843.97C2154.37,845.464 2154.65,847.181 2154.65,849.122ZM2147.59,849.514C2147.59,845.333 2145.54,843.242 2141.43,843.242C2139.94,843.242 2138.68,843.578 2137.65,844.25C2136.63,844.922 2135.91,845.706 2135.5,846.602C2135.42,847.013 2135.39,847.368 2135.39,847.666L2135.39,848.562C2135.39,849.458 2135.51,850.345 2135.78,851.222C2136.04,852.1 2136.42,852.884 2136.93,853.574C2137.43,854.265 2138.07,854.825 2138.86,855.254C2139.64,855.684 2140.57,855.898 2141.66,855.898C2143.41,855.898 2144.84,855.301 2145.94,854.106C2147.04,852.912 2147.59,851.381 2147.59,849.514Z" style="fill-rule:nonzero;"/>
        <path d="M596.767,634.296L604.551,634.296L604.551,612.176L605.391,608.368L602.703,611.672L597.719,615.088L594.639,610.888L607.407,600.584L611.495,600.584L611.495,634.296L619.111,634.296L619.111,640.456L596.767,640.456L596.767,634.296Z" style="fill-rule:nonzero;"/>
        <path d="M635.183,634.8C637.647,634.8 639.532,634.203 640.839,633.008C642.145,631.813 642.799,630.171 642.799,628.08C642.799,625.84 642.033,624.197 640.503,623.152C638.972,622.107 636.788,621.584 633.951,621.584L629.527,621.752L629.527,601.256L648.791,601.256L648.791,608.088L635.799,608.088L635.799,615.648L638.095,615.424C639.924,615.499 641.576,615.835 643.051,616.432C644.525,617.029 645.785,617.86 646.831,618.924C647.876,619.988 648.679,621.276 649.239,622.788C649.799,624.3 650.079,625.989 650.079,627.856C650.079,630.059 649.705,632 648.959,633.68C648.212,635.36 647.176,636.76 645.851,637.88C644.525,639 642.967,639.84 641.175,640.4C639.383,640.96 637.423,641.24 635.295,641.24C633.615,641.24 632.019,641.1 630.507,640.82C628.995,640.54 627.716,640.157 626.671,639.672L628.631,633.624C629.489,633.997 630.432,634.287 631.459,634.492C632.485,634.697 633.727,634.8 635.183,634.8Z" style="fill-rule:nonzero;"/>
        <path d="M1823.99,354.341L1831.78,354.341L1831.78,332.221L1832.62,328.413L1829.93,331.717L1824.94,335.133L1821.87,330.933L1834.63,320.629L1838.72,320.629L1838.72,354.341L1846.34,354.341L1846.34,360.501L1823.99,360.501L1823.99,354.341Z" style="fill-rule:nonzero;"/>
        <path d="M1862.41,354.845C1864.87,354.845 1866.76,354.248 1868.07,353.053C1869.37,351.859 1870.03,350.216 1870.03,348.125C1870.03,345.885 1869.26,344.243 1867.73,343.197C1866.2,342.152 1864.01,341.629 1861.18,341.629L1856.75,341.797L1856.75,321.301L1876.02,321.301L1876.02,328.133L1863.03,328.133L1863.03,335.693L1865.32,335.469C1867.15,335.544 1868.8,335.88 1870.28,336.477C1871.75,337.075 1873.01,337.905 1874.06,338.969C1875.1,340.033 1875.9,341.321 1876.47,342.833C1877.03,344.345 1877.31,346.035 1877.31,347.901C1877.31,350.104 1876.93,352.045 1876.18,353.725C1875.44,355.405 1874.4,356.805 1873.08,357.925C1871.75,359.045 1870.19,359.885 1868.4,360.445C1866.61,361.005 1864.65,361.285 1862.52,361.285C1860.84,361.285 1859.25,361.145 1857.73,360.865C1856.22,360.585 1854.94,360.203 1853.9,359.717L1855.86,353.669C1856.72,354.043 1857.66,354.332 1858.68,354.537C1859.71,354.743 1860.95,354.845 1862.41,354.845Z" style="fill-rule:nonzero;"/>
        <path d="M1963.8,854.218L1971.58,854.218L1971.58,832.098L1972.42,828.29L1969.74,831.594L1964.75,835.01L1961.67,830.81L1974.44,820.506L1978.53,820.506L1978.53,854.218L1986.14,854.218L1986.14,860.378L1963.8,860.378L1963.8,854.218Z" style="fill-rule:nonzero;"/>
        <path d="M2002.22,854.722C2004.68,854.722 2006.57,854.125 2007.87,852.93C2009.18,851.736 2009.83,850.093 2009.83,848.002C2009.83,845.762 2009.07,844.12 2007.54,843.074C2006.01,842.029 2003.82,841.506 2000.98,841.506L1996.56,841.674L1996.56,821.178L2015.82,821.178L2015.82,828.01L2002.83,828.01L2002.83,835.57L2005.13,835.346C2006.96,835.421 2008.61,835.757 2010.08,836.354C2011.56,836.952 2012.82,837.782 2013.86,838.846C2014.91,839.91 2015.71,841.198 2016.27,842.71C2016.83,844.222 2017.11,845.912 2017.11,847.778C2017.11,849.981 2016.74,851.922 2015.99,853.602C2015.25,855.282 2014.21,856.682 2012.88,857.802C2011.56,858.922 2010,859.762 2008.21,860.322C2006.42,860.882 2004.46,861.162 2002.33,861.162C2000.65,861.162 1999.05,861.022 1997.54,860.742C1996.03,860.462 1994.75,860.08 1993.7,859.594L1995.66,853.546C1996.52,853.92 1997.47,854.209 1998.49,854.414C1999.52,854.62 2000.76,854.722 2002.22,854.722Z" style="fill-rule:nonzero;"/>
        <path d="M194.006,30.651L183.278,30.651C183.086,35.211 182.87,39.363 182.63,43.107C182.39,46.851 182.066,50.223 181.658,53.223C181.25,56.223 180.71,58.875 180.038,61.179C179.366,63.483 178.502,65.475 177.446,67.155C176.774,68.259 176.018,69.171 175.178,69.891C174.338,70.611 173.462,71.187 172.55,71.619C171.638,72.051 170.738,72.351 169.85,72.519C168.962,72.687 168.134,72.771 167.366,72.771C166.262,72.771 165.338,72.687 164.594,72.519C163.85,72.351 163.118,72.099 162.398,71.763L163.478,63.267C163.766,63.363 164.054,63.435 164.342,63.483C164.63,63.531 164.918,63.555 165.206,63.555C165.974,63.555 166.73,63.363 167.474,62.979C168.218,62.595 168.854,61.947 169.382,61.035C170.102,59.979 170.726,58.431 171.254,56.391C171.782,54.351 172.25,51.747 172.658,48.579C173.066,45.411 173.39,41.631 173.63,37.239C173.87,32.847 174.038,27.723 174.134,21.867L203.87,21.867L203.87,72.267L194.006,72.267L194.006,30.651Z" style="fill-rule:nonzero;"/>
        <path d="M233.966,55.851L234.326,50.739L234.11,50.739L231.014,55.995L218.198,72.267L212.294,72.267L212.294,36.267L221.654,36.267L221.654,53.403L221.222,58.299L221.51,58.299L224.462,53.187L237.422,36.267L243.326,36.267L243.326,72.267L233.966,72.267L233.966,55.851Z" style="fill-rule:nonzero;"/>
        <path d="M272.63,58.155L260.894,58.155L260.894,72.267L251.534,72.267L251.534,36.267L260.894,36.267L260.894,49.803L272.63,49.803L272.63,36.267L281.99,36.267L281.99,72.267L272.63,72.267L272.63,58.155Z" style="fill-rule:nonzero;"/>
        <path d="M318.998,69.171C317.558,70.323 315.602,71.295 313.13,72.087C310.658,72.879 308.03,73.275 305.246,73.275C299.438,73.275 295.19,71.583 292.502,68.199C289.814,64.815 288.47,60.171 288.47,54.267C288.47,47.931 289.982,43.179 293.006,40.011C296.03,36.843 300.278,35.259 305.75,35.259C307.574,35.259 309.35,35.499 311.078,35.979C312.806,36.459 314.342,37.251 315.686,38.355C317.03,39.459 318.11,40.947 318.926,42.819C319.742,44.691 320.15,47.019 320.15,49.803C320.15,50.811 320.09,51.891 319.97,53.043C319.85,54.195 319.67,55.395 319.43,56.643L297.83,56.643C297.974,59.667 298.754,61.947 300.17,63.483C301.586,65.019 303.878,65.787 307.046,65.787C309.014,65.787 310.778,65.487 312.338,64.887C313.898,64.287 315.086,63.675 315.902,63.051L318.998,69.171ZM305.606,42.747C303.158,42.747 301.346,43.479 300.17,44.943C298.994,46.407 298.286,48.363 298.046,50.811L311.438,50.811C311.63,48.219 311.234,46.227 310.25,44.835C309.266,43.443 307.718,42.747 305.606,42.747Z" style="fill-rule:nonzero;"/>
        <path d="M348.446,55.851L348.806,50.739L348.59,50.739L345.494,55.995L332.678,72.267L326.774,72.267L326.774,36.267L336.134,36.267L336.134,53.403L335.702,58.299L335.99,58.299L338.942,53.187L351.902,36.267L357.806,36.267L357.806,72.267L348.446,72.267L348.446,55.851ZM338.438,21.579C338.774,23.451 339.338,24.771 340.13,25.539C340.922,26.307 341.942,26.691 343.19,26.691C344.534,26.691 345.602,26.307 346.394,25.539C347.186,24.771 347.726,23.475 348.014,21.651L355.142,23.451C354.566,26.571 353.15,28.887 350.894,30.399C348.638,31.911 345.998,32.667 342.974,32.667C341.486,32.667 340.046,32.499 338.654,32.163C337.262,31.827 336.014,31.287 334.91,30.543C333.806,29.799 332.87,28.851 332.102,27.699C331.334,26.547 330.806,25.131 330.518,23.451L338.438,21.579Z" style="fill-rule:nonzero;"/>
        <path d="M387.11,58.155L375.374,58.155L375.374,72.267L366.014,72.267L366.014,36.267L375.374,36.267L375.374,49.803L387.11,49.803L387.11,36.267L396.47,36.267L396.47,72.267L387.11,72.267L387.11,58.155Z" style="fill-rule:nonzero;"/>
        <path d="M402.95,54.267C402.95,48.171 404.438,43.479 407.414,40.191C410.39,36.903 414.566,35.259 419.942,35.259C422.822,35.259 425.318,35.715 427.43,36.627C429.542,37.539 431.294,38.823 432.686,40.479C434.078,42.135 435.122,44.139 435.818,46.491C436.514,48.843 436.862,51.435 436.862,54.267C436.862,60.363 435.386,65.055 432.434,68.343C429.482,71.631 425.318,73.275 419.942,73.275C417.062,73.275 414.566,72.819 412.454,71.907C410.342,70.995 408.578,69.711 407.162,68.055C405.746,66.399 404.69,64.395 403.994,62.043C403.298,59.691 402.95,57.099 402.95,54.267ZM412.598,54.267C412.598,55.851 412.742,57.315 413.03,58.659C413.318,60.003 413.75,61.179 414.326,62.187C414.902,63.195 415.658,63.975 416.594,64.527C417.53,65.079 418.646,65.355 419.942,65.355C422.39,65.355 424.214,64.467 425.414,62.691C426.614,60.915 427.214,58.107 427.214,54.267C427.214,50.955 426.662,48.279 425.558,46.239C424.454,44.199 422.582,43.179 419.942,43.179C417.638,43.179 415.838,44.043 414.542,45.771C413.246,47.499 412.598,50.331 412.598,54.267Z" style="fill-rule:nonzero;"/>
        <path d="M472.142,69.171C470.702,70.323 468.746,71.295 466.274,72.087C463.802,72.879 461.174,73.275 458.39,73.275C452.582,73.275 448.334,71.583 445.646,68.199C442.958,64.815 441.614,60.171 441.614,54.267C441.614,47.931 443.126,43.179 446.15,40.011C449.174,36.843 453.422,35.259 458.894,35.259C460.718,35.259 462.494,35.499 464.222,35.979C465.95,36.459 467.486,37.251 468.83,38.355C470.174,39.459 471.254,40.947 472.07,42.819C472.886,44.691 473.294,47.019 473.294,49.803C473.294,50.811 473.234,51.891 473.114,53.043C472.994,54.195 472.814,55.395 472.574,56.643L450.974,56.643C451.118,59.667 451.898,61.947 453.314,63.483C454.73,65.019 457.022,65.787 460.19,65.787C462.158,65.787 463.922,65.487 465.482,64.887C467.042,64.287 468.23,63.675 469.046,63.051L472.142,69.171ZM458.75,42.747C456.302,42.747 454.49,43.479 453.314,44.943C452.138,46.407 451.43,48.363 451.19,50.811L464.582,50.811C464.774,48.219 464.378,46.227 463.394,44.835C462.41,43.443 460.862,42.747 458.75,42.747Z" style="fill-rule:nonzero;"/>
        <path d="M511.238,56.499L512.534,62.115L512.966,62.115L513.902,56.427L519.374,36.267L529.022,36.267L518.078,68.739C517.166,71.427 516.29,73.887 515.45,76.119C514.61,78.351 513.686,80.283 512.678,81.915C511.67,83.547 510.554,84.807 509.33,85.695C508.106,86.583 506.654,87.027 504.974,87.027C502.478,87.027 500.486,86.619 498.998,85.803L500.726,78.315C501.446,78.603 502.166,78.747 502.886,78.747C503.99,78.747 505.058,78.279 506.09,77.343C507.122,76.407 507.902,74.715 508.43,72.267L493.382,36.267L504.614,36.267L511.238,56.499Z" style="fill-rule:nonzero;"/>
        <path d="M553.286,44.547L541.91,44.547L541.91,72.267L532.55,72.267L532.55,36.267L562.646,36.267L562.646,72.267L553.286,72.267L553.286,44.547Z" style="fill-rule:nonzero;"/>
        <path d="M569.126,54.267C569.126,48.171 570.614,43.479 573.59,40.191C576.566,36.903 580.742,35.259 586.118,35.259C588.998,35.259 591.494,35.715 593.606,36.627C595.718,37.539 597.47,38.823 598.862,40.479C600.254,42.135 601.298,44.139 601.994,46.491C602.69,48.843 603.038,51.435 603.038,54.267C603.038,60.363 601.562,65.055 598.61,68.343C595.658,71.631 591.494,73.275 586.118,73.275C583.238,73.275 580.742,72.819 578.63,71.907C576.518,70.995 574.754,69.711 573.338,68.055C571.922,66.399 570.866,64.395 570.17,62.043C569.474,59.691 569.126,57.099 569.126,54.267ZM578.774,54.267C578.774,55.851 578.918,57.315 579.206,58.659C579.494,60.003 579.926,61.179 580.502,62.187C581.078,63.195 581.834,63.975 582.77,64.527C583.706,65.079 584.822,65.355 586.118,65.355C588.566,65.355 590.39,64.467 591.59,62.691C592.79,60.915 593.39,58.107 593.39,54.267C593.39,50.955 592.838,48.279 591.734,46.239C590.63,44.199 588.758,43.179 586.118,43.179C583.814,43.179 582.014,44.043 580.718,45.771C579.422,47.499 578.774,50.331 578.774,54.267Z" style="fill-rule:nonzero;"/>
        <path d="M609.518,36.267L616.358,36.267L617.438,40.587L617.726,40.587C618.974,38.763 620.45,37.419 622.154,36.555C623.858,35.691 625.934,35.259 628.382,35.259C632.894,35.259 636.278,36.687 638.534,39.543C640.79,42.399 641.918,46.995 641.918,53.331C641.918,56.403 641.558,59.175 640.838,61.647C640.118,64.119 639.05,66.219 637.634,67.947C636.218,69.675 634.49,70.995 632.45,71.907C630.41,72.819 628.07,73.275 625.43,73.275C623.942,73.275 622.718,73.167 621.758,72.951C620.798,72.735 619.838,72.387 618.878,71.907L618.878,86.667L609.518,86.667L609.518,36.267ZM625.574,43.179C623.75,43.179 622.322,43.635 621.29,44.547C620.258,45.459 619.454,46.827 618.878,48.651L618.878,63.627C619.55,64.155 620.282,64.575 621.074,64.887C621.866,65.199 622.91,65.355 624.206,65.355C626.894,65.355 628.91,64.407 630.254,62.511C631.598,60.615 632.27,57.483 632.27,53.115C632.27,49.947 631.742,47.499 630.686,45.771C629.63,44.043 627.926,43.179 625.574,43.179Z" style="fill-rule:nonzero;"/>
        <path d="M667.406,58.659L663.086,59.523L656.174,72.267L645.014,72.267L651.998,60.963L655.526,58.299C653.174,57.915 651.23,56.799 649.694,54.951C648.158,53.103 647.39,50.787 647.39,48.003C647.39,43.635 648.842,40.419 651.746,38.355C654.65,36.291 659.102,35.259 665.102,35.259C667.406,35.259 669.554,35.379 671.546,35.619C673.538,35.859 675.278,36.123 676.766,36.411L676.766,72.267L667.406,72.267L667.406,58.659ZM667.406,53.763L667.406,43.827C666.878,43.587 666.302,43.419 665.678,43.323C665.054,43.227 664.454,43.179 663.878,43.179C661.718,43.179 660.038,43.635 658.838,44.547C657.638,45.459 657.038,46.827 657.038,48.651C657.038,50.475 657.698,51.819 659.018,52.683C660.338,53.547 662.27,53.955 664.814,53.907L667.406,53.763Z" style="fill-rule:nonzero;"/>
        <path d="M720.398,80.475L713.558,80.475L712.478,72.267L688.286,72.267L687.206,80.475L680.366,80.475L680.366,63.987L684.614,63.987C684.998,63.459 685.49,62.559 686.09,61.287C686.69,60.015 687.29,58.275 687.89,56.067C688.49,53.859 689.006,51.123 689.438,47.859C689.87,44.595 690.086,40.731 690.086,36.267L715.142,36.267L715.142,63.987L720.398,63.987L720.398,80.475ZM705.782,64.419L705.782,44.187L698.222,44.187C698.126,45.915 697.958,47.751 697.718,49.695C697.478,51.639 697.178,53.523 696.818,55.347C696.458,57.171 696.038,58.875 695.558,60.459C695.078,62.043 694.55,63.363 693.974,64.419L705.782,64.419Z" style="fill-rule:nonzero;"/>
        <path d="M723.782,54.267C723.782,48.171 725.27,43.479 728.246,40.191C731.222,36.903 735.398,35.259 740.774,35.259C743.654,35.259 746.15,35.715 748.262,36.627C750.374,37.539 752.126,38.823 753.518,40.479C754.91,42.135 755.954,44.139 756.65,46.491C757.346,48.843 757.694,51.435 757.694,54.267C757.694,60.363 756.218,65.055 753.266,68.343C750.314,71.631 746.15,73.275 740.774,73.275C737.894,73.275 735.398,72.819 733.286,71.907C731.174,70.995 729.41,69.711 727.994,68.055C726.578,66.399 725.522,64.395 724.826,62.043C724.13,59.691 723.782,57.099 723.782,54.267ZM733.43,54.267C733.43,55.851 733.574,57.315 733.862,58.659C734.15,60.003 734.582,61.179 735.158,62.187C735.734,63.195 736.49,63.975 737.426,64.527C738.362,65.079 739.478,65.355 740.774,65.355C743.222,65.355 745.046,64.467 746.246,62.691C747.446,60.915 748.046,58.107 748.046,54.267C748.046,50.955 747.494,48.279 746.39,46.239C745.286,44.199 743.414,43.179 740.774,43.179C738.47,43.179 736.67,44.043 735.374,45.771C734.078,47.499 733.43,50.331 733.43,54.267Z" style="fill-rule:nonzero;"/>
        <path d="M771.806,36.267L771.806,44.475C771.806,45.963 771.866,47.247 771.986,48.327C772.106,49.407 772.346,50.295 772.706,50.991C773.066,51.687 773.57,52.203 774.218,52.539C774.866,52.875 775.718,53.043 776.774,53.043C778.166,53.043 779.378,52.875 780.41,52.539C781.442,52.203 782.294,51.795 782.966,51.315L782.966,36.267L792.326,36.267L792.326,72.267L782.966,72.267L782.966,58.155C782.246,58.683 781.142,59.271 779.654,59.919C778.166,60.567 776.174,60.891 773.678,60.891C771.902,60.891 770.318,60.699 768.926,60.315C767.534,59.931 766.358,59.259 765.398,58.299C764.438,57.339 763.706,56.067 763.202,54.483C762.698,52.899 762.446,50.907 762.446,48.507L762.446,36.267L771.806,36.267Z" style="fill-rule:nonzero;"/>
        <path d="M829.334,69.171C827.894,70.323 825.938,71.295 823.466,72.087C820.994,72.879 818.366,73.275 815.582,73.275C809.774,73.275 805.526,71.583 802.838,68.199C800.15,64.815 798.806,60.171 798.806,54.267C798.806,47.931 800.318,43.179 803.342,40.011C806.366,36.843 810.614,35.259 816.086,35.259C817.91,35.259 819.686,35.499 821.414,35.979C823.142,36.459 824.678,37.251 826.022,38.355C827.366,39.459 828.446,40.947 829.262,42.819C830.078,44.691 830.486,47.019 830.486,49.803C830.486,50.811 830.426,51.891 830.306,53.043C830.186,54.195 830.006,55.395 829.766,56.643L808.166,56.643C808.31,59.667 809.09,61.947 810.506,63.483C811.922,65.019 814.214,65.787 817.382,65.787C819.35,65.787 821.114,65.487 822.674,64.887C824.234,64.287 825.422,63.675 826.238,63.051L829.334,69.171ZM815.942,42.747C813.494,42.747 811.682,43.479 810.506,44.943C809.33,46.407 808.622,48.363 808.382,50.811L821.774,50.811C821.966,48.219 821.57,46.227 820.586,44.835C819.602,43.443 818.054,42.747 815.942,42.747Z" style="fill-rule:nonzero;"/>
        <path d="M858.206,58.155L846.47,58.155L846.47,72.267L837.11,72.267L837.11,36.267L846.47,36.267L846.47,49.803L858.206,49.803L858.206,36.267L867.566,36.267L867.566,72.267L858.206,72.267L858.206,58.155Z" style="fill-rule:nonzero;"/>
        <path d="M897.446,55.851L897.806,50.739L897.59,50.739L894.494,55.995L881.678,72.267L875.774,72.267L875.774,36.267L885.134,36.267L885.134,53.403L884.702,58.299L884.99,58.299L887.942,53.187L900.902,36.267L906.806,36.267L906.806,72.267L897.446,72.267L897.446,55.851Z" style="fill-rule:nonzero;"/>
        <path d="M943.814,69.171C942.374,70.323 940.418,71.295 937.946,72.087C935.474,72.879 932.846,73.275 930.062,73.275C924.254,73.275 920.006,71.583 917.318,68.199C914.63,64.815 913.286,60.171 913.286,54.267C913.286,47.931 914.798,43.179 917.822,40.011C920.846,36.843 925.094,35.259 930.566,35.259C932.39,35.259 934.166,35.499 935.894,35.979C937.622,36.459 939.158,37.251 940.502,38.355C941.846,39.459 942.926,40.947 943.742,42.819C944.558,44.691 944.966,47.019 944.966,49.803C944.966,50.811 944.906,51.891 944.786,53.043C944.666,54.195 944.486,55.395 944.246,56.643L922.646,56.643C922.79,59.667 923.57,61.947 924.986,63.483C926.402,65.019 928.694,65.787 931.862,65.787C933.83,65.787 935.594,65.487 937.154,64.887C938.714,64.287 939.902,63.675 940.718,63.051L943.814,69.171ZM930.422,42.747C927.974,42.747 926.162,43.479 924.986,44.943C923.81,46.407 923.102,48.363 922.862,50.811L936.254,50.811C936.446,48.219 936.05,46.227 935.066,44.835C934.082,43.443 932.534,42.747 930.422,42.747Z" style="fill-rule:nonzero;"/>
        <path d="M1412.24,63.259L1433.55,33.451L1437.29,30.427L1412.24,30.427L1412.24,21.643L1447.16,21.643L1447.16,30.427L1425.7,60.523L1422.03,63.259L1447.16,63.259L1447.16,72.043L1412.24,72.043L1412.24,63.259Z" style="fill-rule:nonzero;"/>
        <rect x="1449.03" y="47.203" width="18.072" height="8.28" style="fill-rule:nonzero;"/>
        <path d="M1488.27,56.275L1489.57,61.891L1490,61.891L1490.93,56.203L1496.41,36.043L1506.05,36.043L1495.11,68.515C1494.2,71.203 1493.32,73.663 1492.48,75.895C1491.64,78.127 1490.72,80.059 1489.71,81.691C1488.7,83.323 1487.59,84.583 1486.36,85.471C1485.14,86.359 1483.69,86.803 1482.01,86.803C1479.51,86.803 1477.52,86.395 1476.03,85.579L1477.76,78.091C1478.48,78.379 1479.2,78.523 1479.92,78.523C1481.02,78.523 1482.09,78.055 1483.12,77.119C1484.15,76.183 1484.93,74.491 1485.46,72.043L1470.41,36.043L1481.65,36.043L1488.27,56.275Z" style="fill-rule:nonzero;"/>
        <path d="M1530.32,44.323L1518.94,44.323L1518.94,72.043L1509.58,72.043L1509.58,36.043L1539.68,36.043L1539.68,72.043L1530.32,72.043L1530.32,44.323Z" style="fill-rule:nonzero;"/>
        <path d="M1546.16,54.043C1546.16,47.947 1547.65,43.255 1550.62,39.967C1553.6,36.679 1557.77,35.035 1563.15,35.035C1566.03,35.035 1568.53,35.491 1570.64,36.403C1572.75,37.315 1574.5,38.599 1575.89,40.255C1577.29,41.911 1578.33,43.915 1579.03,46.267C1579.72,48.619 1580.07,51.211 1580.07,54.043C1580.07,60.139 1578.59,64.831 1575.64,68.119C1572.69,71.407 1568.53,73.051 1563.15,73.051C1560.27,73.051 1557.77,72.595 1555.66,71.683C1553.55,70.771 1551.79,69.487 1550.37,67.831C1548.95,66.175 1547.9,64.171 1547.2,61.819C1546.51,59.467 1546.16,56.875 1546.16,54.043ZM1555.81,54.043C1555.81,55.627 1555.95,57.091 1556.24,58.435C1556.53,59.779 1556.96,60.955 1557.53,61.963C1558.11,62.971 1558.87,63.751 1559.8,64.303C1560.74,64.855 1561.85,65.131 1563.15,65.131C1565.6,65.131 1567.42,64.243 1568.62,62.467C1569.82,60.691 1570.42,57.883 1570.42,54.043C1570.42,50.731 1569.87,48.055 1568.77,46.015C1567.66,43.975 1565.79,42.955 1563.15,42.955C1560.85,42.955 1559.05,43.819 1557.75,45.547C1556.45,47.275 1555.81,50.107 1555.81,54.043Z" style="fill-rule:nonzero;"/>
        <path d="M1586.55,36.043L1593.39,36.043L1594.47,40.363L1594.76,40.363C1596.01,38.539 1597.48,37.195 1599.19,36.331C1600.89,35.467 1602.97,35.035 1605.41,35.035C1609.93,35.035 1613.31,36.463 1615.57,39.319C1617.82,42.175 1618.95,46.771 1618.95,53.107C1618.95,56.179 1618.59,58.951 1617.87,61.423C1617.15,63.895 1616.08,65.995 1614.67,67.723C1613.25,69.451 1611.52,70.771 1609.48,71.683C1607.44,72.595 1605.1,73.051 1602.46,73.051C1600.97,73.051 1599.75,72.943 1598.79,72.727C1597.83,72.511 1596.87,72.163 1595.91,71.683L1595.91,86.443L1586.55,86.443L1586.55,36.043ZM1602.61,42.955C1600.78,42.955 1599.35,43.411 1598.32,44.323C1597.29,45.235 1596.49,46.603 1595.91,48.427L1595.91,63.403C1596.58,63.931 1597.31,64.351 1598.11,64.663C1598.9,64.975 1599.94,65.131 1601.24,65.131C1603.93,65.131 1605.94,64.183 1607.29,62.287C1608.63,60.391 1609.3,57.259 1609.3,52.891C1609.3,49.723 1608.77,47.275 1607.72,45.547C1606.66,43.819 1604.96,42.955 1602.61,42.955Z" style="fill-rule:nonzero;"/>
        <path d="M1644.44,58.435L1640.12,59.299L1633.21,72.043L1622.05,72.043L1629.03,60.739L1632.56,58.075C1630.21,57.691 1628.26,56.575 1626.73,54.727C1625.19,52.879 1624.42,50.563 1624.42,47.779C1624.42,43.411 1625.87,40.195 1628.78,38.131C1631.68,36.067 1636.13,35.035 1642.13,35.035C1644.44,35.035 1646.59,35.155 1648.58,35.395C1650.57,35.635 1652.31,35.899 1653.8,36.187L1653.8,72.043L1644.44,72.043L1644.44,58.435ZM1644.44,53.539L1644.44,43.603C1643.91,43.363 1643.33,43.195 1642.71,43.099C1642.09,43.003 1641.49,42.955 1640.91,42.955C1638.75,42.955 1637.07,43.411 1635.87,44.323C1634.67,45.235 1634.07,46.603 1634.07,48.427C1634.07,50.251 1634.73,51.595 1636.05,52.459C1637.37,53.323 1639.3,53.731 1641.85,53.683L1644.44,53.539Z" style="fill-rule:nonzero;"/>
        <path d="M1697.43,80.251L1690.59,80.251L1689.51,72.043L1665.32,72.043L1664.24,80.251L1657.4,80.251L1657.4,63.763L1661.65,63.763C1662.03,63.235 1662.52,62.335 1663.12,61.063C1663.72,59.791 1664.32,58.051 1664.92,55.843C1665.52,53.635 1666.04,50.899 1666.47,47.635C1666.9,44.371 1667.12,40.507 1667.12,36.043L1692.17,36.043L1692.17,63.763L1697.43,63.763L1697.43,80.251ZM1682.81,64.195L1682.81,43.963L1675.25,43.963C1675.16,45.691 1674.99,47.527 1674.75,49.471C1674.51,51.415 1674.21,53.299 1673.85,55.123C1673.49,56.947 1673.07,58.651 1672.59,60.235C1672.11,61.819 1671.58,63.139 1671.01,64.195L1682.81,64.195Z" style="fill-rule:nonzero;"/>
        <path d="M1700.81,54.043C1700.81,47.947 1702.3,43.255 1705.28,39.967C1708.25,36.679 1712.43,35.035 1717.81,35.035C1720.69,35.035 1723.18,35.491 1725.29,36.403C1727.41,37.315 1729.16,38.599 1730.55,40.255C1731.94,41.911 1732.99,43.915 1733.68,46.267C1734.38,48.619 1734.73,51.211 1734.73,54.043C1734.73,60.139 1733.25,64.831 1730.3,68.119C1727.35,71.407 1723.18,73.051 1717.81,73.051C1714.93,73.051 1712.43,72.595 1710.32,71.683C1708.21,70.771 1706.44,69.487 1705.03,67.831C1703.61,66.175 1702.55,64.171 1701.86,61.819C1701.16,59.467 1700.81,56.875 1700.81,54.043ZM1710.46,54.043C1710.46,55.627 1710.61,57.091 1710.89,58.435C1711.18,59.779 1711.61,60.955 1712.19,61.963C1712.77,62.971 1713.52,63.751 1714.46,64.303C1715.39,64.855 1716.51,65.131 1717.81,65.131C1720.25,65.131 1722.08,64.243 1723.28,62.467C1724.48,60.691 1725.08,57.883 1725.08,54.043C1725.08,50.731 1724.53,48.055 1723.42,46.015C1722.32,43.975 1720.45,42.955 1717.81,42.955C1715.5,42.955 1713.7,43.819 1712.41,45.547C1711.11,47.275 1710.46,50.107 1710.46,54.043Z" style="fill-rule:nonzero;"/>
        <path d="M1748.84,36.043L1748.84,44.251C1748.84,45.739 1748.9,47.023 1749.02,48.103C1749.14,49.183 1749.38,50.071 1749.74,50.767C1750.1,51.463 1750.6,51.979 1751.25,52.315C1751.9,52.651 1752.75,52.819 1753.81,52.819C1755.2,52.819 1756.41,52.651 1757.44,52.315C1758.47,51.979 1759.33,51.571 1760,51.091L1760,36.043L1769.36,36.043L1769.36,72.043L1760,72.043L1760,57.931C1759.28,58.459 1758.17,59.047 1756.69,59.695C1755.2,60.343 1753.21,60.667 1750.71,60.667C1748.93,60.667 1747.35,60.475 1745.96,60.091C1744.57,59.707 1743.39,59.035 1742.43,58.075C1741.47,57.115 1740.74,55.843 1740.23,54.259C1739.73,52.675 1739.48,50.683 1739.48,48.283L1739.48,36.043L1748.84,36.043Z" style="fill-rule:nonzero;"/>
        <path d="M1806.37,68.947C1804.93,70.099 1802.97,71.071 1800.5,71.863C1798.03,72.655 1795.4,73.051 1792.61,73.051C1786.81,73.051 1782.56,71.359 1779.87,67.975C1777.18,64.591 1775.84,59.947 1775.84,54.043C1775.84,47.707 1777.35,42.955 1780.37,39.787C1783.4,36.619 1787.65,35.035 1793.12,35.035C1794.94,35.035 1796.72,35.275 1798.45,35.755C1800.17,36.235 1801.71,37.027 1803.05,38.131C1804.4,39.235 1805.48,40.723 1806.29,42.595C1807.11,44.467 1807.52,46.795 1807.52,49.579C1807.52,50.587 1807.46,51.667 1807.34,52.819C1807.22,53.971 1807.04,55.171 1806.8,56.419L1785.2,56.419C1785.34,59.443 1786.12,61.723 1787.54,63.259C1788.95,64.795 1791.25,65.563 1794.41,65.563C1796.38,65.563 1798.15,65.263 1799.71,64.663C1801.27,64.063 1802.45,63.451 1803.27,62.827L1806.37,68.947ZM1792.97,42.523C1790.53,42.523 1788.71,43.255 1787.54,44.719C1786.36,46.183 1785.65,48.139 1785.41,50.587L1798.81,50.587C1799,47.995 1798.6,46.003 1797.62,44.611C1796.63,43.219 1795.09,42.523 1792.97,42.523Z" style="fill-rule:nonzero;"/>
        <path d="M1835.24,57.931L1823.5,57.931L1823.5,72.043L1814.14,72.043L1814.14,36.043L1823.5,36.043L1823.5,49.579L1835.24,49.579L1835.24,36.043L1844.6,36.043L1844.6,72.043L1835.24,72.043L1835.24,57.931Z" style="fill-rule:nonzero;"/>
        <path d="M1874.48,55.627L1874.84,50.515L1874.62,50.515L1871.53,55.771L1858.71,72.043L1852.81,72.043L1852.81,36.043L1862.17,36.043L1862.17,53.179L1861.73,58.075L1862.02,58.075L1864.97,52.963L1877.93,36.043L1883.84,36.043L1883.84,72.043L1874.48,72.043L1874.48,55.627Z" style="fill-rule:nonzero;"/>
        <path d="M1920.85,68.947C1919.41,70.099 1917.45,71.071 1914.98,71.863C1912.51,72.655 1909.88,73.051 1907.09,73.051C1901.29,73.051 1897.04,71.359 1894.35,67.975C1891.66,64.591 1890.32,59.947 1890.32,54.043C1890.32,47.707 1891.83,42.955 1894.85,39.787C1897.88,36.619 1902.13,35.035 1907.6,35.035C1909.42,35.035 1911.2,35.275 1912.93,35.755C1914.65,36.235 1916.19,37.027 1917.53,38.131C1918.88,39.235 1919.96,40.723 1920.77,42.595C1921.59,44.467 1922,46.795 1922,49.579C1922,50.587 1921.94,51.667 1921.82,52.819C1921.7,53.971 1921.52,55.171 1921.28,56.419L1899.68,56.419C1899.82,59.443 1900.6,61.723 1902.02,63.259C1903.43,64.795 1905.73,65.563 1908.89,65.563C1910.86,65.563 1912.63,65.263 1914.19,64.663C1915.75,64.063 1916.93,63.451 1917.75,62.827L1920.85,68.947ZM1907.45,42.523C1905.01,42.523 1903.19,43.255 1902.02,44.719C1900.84,46.183 1900.13,48.139 1899.89,50.587L1913.29,50.587C1913.48,47.995 1913.08,46.003 1912.1,44.611C1911.11,43.219 1909.57,42.523 1907.45,42.523Z" style="fill-rule:nonzero;"/>
    </g>
</svg>
