<?xml version="1.0" encoding="UTF-8" standalone="no"?>
<!DOCTYPE svg PUBLIC "-//W3C//DTD SVG 1.1//EN" "http://www.w3.org/Graphics/SVG/1.1/DTD/svg11.dtd">
<svg width="100%" height="100%" viewBox="0 0 1400 823" version="1.1" xmlns="http://www.w3.org/2000/svg" xmlns:xlink="http://www.w3.org/1999/xlink" xml:space="preserve" xmlns:serif="http://www.serif.com/" style="fill-rule:evenodd;clip-rule:evenodd;stroke-linejoin:round;stroke-miterlimit:10;">
    <rect id="Artboard8" x="-2202" y="-133" width="5544" height="2861" style="fill:none;"/>
    <g id="Artboard81" serif:id="Artboard8">
        <path d="M682.506,164.899L745.506,196.399L682.506,227.899L682.506,164.899Z" style="fill:rgb(179,179,179);"/>
        <path d="M611.383,196.399L695.106,196.399" style="fill:none;stroke:rgb(179,179,179);stroke-width:14px;"/>
        <path d="M819.036,284.547L951.523,66.547L1246.04,188.547L1140.52,554.547L819.036,284.547Z" style="fill:none;stroke:rgb(45,231,231);stroke-width:8px;"/>
        <path d="M62.289,284.547L194.775,66.547L489.289,188.547L383.769,554.547L62.289,284.547Z" style="fill:rgb(45,231,231);stroke:black;stroke-width:8px;"/>
        <path d="M798.951,526.324L1091.95,236.324L1360.95,374.324L1246.04,737.324L798.951,526.324Z" style="fill:none;stroke:rgb(250,112,255);stroke-width:8px;"/>
        <path d="M42.203,526.324L335.203,236.324L604.203,374.324L489.289,737.324L42.203,526.324Z" style="fill:rgb(249,85,185);stroke:black;stroke-width:8px;"/>
        <path d="M867.838,268.379L845.196,282.778L847.262,256.025L867.838,268.379Z"/>
        <path d="M959.196,92.9C959.196,92.9 882.786,220.169 855.079,266.317" style="fill:none;stroke:black;stroke-width:4px;stroke-linecap:square;"/>
        <path d="M1118.17,492.753L1128.95,517.324L1102.82,511.207L1118.17,492.753Z"/>
        <path d="M861.951,295.324C861.951,295.324 1058.18,458.478 1114.19,505.049" style="fill:none;stroke:black;stroke-width:4px;"/>
        <path d="M1199.67,223.968L1217.95,204.324L1222.7,230.734L1199.67,223.968Z"/>
        <path d="M1134.95,486.824C1134.95,486.824 1194.11,285.465 1212.54,222.746" style="fill:none;stroke:black;stroke-width:4px;"/>
        <path d="M989.139,113.505L971.951,92.9L998.748,91.513L989.139,113.505Z"/>
        <path d="M1210.95,197.324C1210.95,197.324 1044.76,124.711 989.545,100.587" style="fill:none;stroke:black;stroke-width:4px;"/>
        <path d="M863.348,508.665L837.951,517.324L846.261,491.811L863.348,508.665Z"/>
        <path d="M1091.45,260.324C1091.45,260.324 903.887,450.478 851.434,503.655" style="fill:none;stroke:black;stroke-width:4px;"/>
        <path d="M1213.41,686.194L1229.95,707.324L1203.12,707.877L1213.41,686.194Z"/>
        <path d="M856.951,530.324C856.951,530.324 1139.09,664.206 1212.61,699.093" style="fill:none;stroke:black;stroke-width:4px;"/>
        <path d="M1316.31,408.123L1334.95,388.824L1339.2,415.318L1316.31,408.123Z"/>
        <path d="M1238.95,694.324C1238.95,694.324 1308.48,473.061 1329.19,407.141" style="fill:none;stroke:black;stroke-width:4px;"/>
        <path d="M1118.01,287.819L1101.95,266.324L1128.78,266.372L1118.01,287.819Z"/>
        <path d="M1328.95,380.324C1328.95,380.324 1171.99,301.5 1119.11,274.941" style="fill:none;stroke:black;stroke-width:4px;"/>
        <path d="M806.72,318.901L795.951,294.324L822.074,300.455L806.72,318.901Z"/>
        <path d="M1110.95,556.521C1110.95,556.521 872.963,358.427 810.708,306.607" style="fill:none;stroke:black;stroke-width:4px;"/>
        <path d="M916.304,52.716L938.951,38.324L936.876,65.077L916.304,52.716Z"/>
        <path d="M795.951,276.324C795.951,276.324 896.69,108.66 929.062,54.782" style="fill:none;stroke:black;stroke-width:4px;"/>
        <path d="M1250.26,152.151L1267.95,172.324L1241.2,174.374L1250.26,152.151Z"/>
        <path d="M958.951,46.324C958.951,46.324 1184.44,138.272 1250.17,165.075" style="fill:none;stroke:black;stroke-width:4px;"/>
        <path d="M1179.05,550.513L1160.95,570.324L1155.96,543.96L1179.05,550.513Z"/>
        <path d="M1267.95,193.324C1267.95,193.324 1187.69,476.116 1166.19,551.854" style="fill:none;stroke:black;stroke-width:4px;"/>
        <path d="M1061.45,213.687L1086.95,205.324L1078.34,230.739L1061.45,213.687Z"/>
        <path d="M772.951,516.324C772.951,516.324 1012.96,278.608 1073.31,218.835" style="fill:none;stroke:black;stroke-width:4px;"/>
        <path d="M1369.15,337.134L1384.95,358.824L1358.12,358.448L1369.15,337.134Z"/>
        <path d="M1101.95,212.324C1101.95,212.324 1306.73,318.334 1367.9,349.998" style="fill:none;stroke:black;stroke-width:4px;"/>
        <path d="M1289.71,717.904L1270.95,737.09L1266.86,710.571L1289.71,717.904Z"/>
        <path d="M1384.95,381.824C1384.95,381.824 1300.13,646.16 1276.82,718.808" style="fill:none;stroke:black;stroke-width:4px;"/>
        <path d="M811.579,575.383L794.951,554.324L821.775,553.657L811.579,575.383Z"/>
        <path d="M1242.45,764.324C1242.45,764.324 894.777,601.17 812.332,562.481" style="fill:none;stroke:black;stroke-width:4px;"/>
        <circle cx="820.031" cy="284.966" r="13.5"/>
        <circle cx="952.657" cy="67.971" r="13.5"/>
        <circle cx="1245.11" cy="190.341" r="13.5"/>
        <circle cx="1138.47" cy="555.373" r="13.5"/>
        <circle cx="1092.46" cy="239.343" r="13.5"/>
        <circle cx="1360.32" cy="377.043" r="13.5"/>
        <circle cx="1245.61" cy="737.09" r="13.5"/>
        <circle cx="799.475" cy="526.607" r="13.5"/>
    </g>
</svg>
