<?xml version="1.0" encoding="UTF-8" standalone="no"?>
<!DOCTYPE svg PUBLIC "-//W3C//DTD SVG 1.1//EN" "http://www.w3.org/Graphics/SVG/1.1/DTD/svg11.dtd">
<svg width="100%" height="100%" viewBox="0 0 888 936" version="1.1" xmlns="http://www.w3.org/2000/svg" xmlns:xlink="http://www.w3.org/1999/xlink" xml:space="preserve" xmlns:serif="http://www.serif.com/" style="fill-rule:evenodd;clip-rule:evenodd;stroke-linecap:square;stroke-linejoin:round;stroke-miterlimit:10;">
    <rect id="Geometric-Operations-2" serif:id="Geometric Operations 2" x="-161" y="-1606" width="4299" height="2861" style="fill:none;"/>
    <g id="Geometric-Operations-21" serif:id="Geometric Operations 2">
        <g transform="matrix(1,0,0,1,-7707.78,-11444)">
            <g transform="matrix(96,0,0,96,7788.35,11561.2)">
                <path d="M0.401,-0.178C0.401,-0.206 0.393,-0.229 0.376,-0.247C0.359,-0.264 0.339,-0.28 0.314,-0.294C0.289,-0.307 0.261,-0.32 0.232,-0.332C0.203,-0.344 0.175,-0.359 0.151,-0.376C0.126,-0.393 0.105,-0.413 0.088,-0.439C0.071,-0.464 0.063,-0.495 0.063,-0.534C0.063,-0.589 0.082,-0.632 0.12,-0.664C0.158,-0.696 0.212,-0.712 0.282,-0.712C0.323,-0.712 0.36,-0.709 0.393,-0.703C0.426,-0.697 0.452,-0.689 0.471,-0.68L0.446,-0.607C0.431,-0.614 0.408,-0.621 0.379,-0.628C0.349,-0.635 0.315,-0.638 0.278,-0.638C0.234,-0.638 0.201,-0.628 0.179,-0.609C0.157,-0.589 0.146,-0.566 0.146,-0.539C0.146,-0.513 0.154,-0.491 0.171,-0.474C0.188,-0.457 0.209,-0.441 0.234,-0.428C0.259,-0.414 0.286,-0.4 0.315,-0.387C0.344,-0.374 0.372,-0.358 0.397,-0.341C0.422,-0.323 0.442,-0.302 0.459,-0.277C0.476,-0.252 0.484,-0.222 0.484,-0.185C0.484,-0.155 0.479,-0.128 0.468,-0.104C0.457,-0.08 0.442,-0.059 0.421,-0.042C0.4,-0.025 0.375,-0.011 0.346,-0.002C0.317,0.007 0.283,0.012 0.246,0.012C0.196,0.012 0.155,0.008 0.122,0.001C0.089,-0.007 0.064,-0.016 0.046,-0.025L0.074,-0.1C0.089,-0.091 0.112,-0.083 0.142,-0.075C0.172,-0.066 0.206,-0.062 0.243,-0.062C0.265,-0.062 0.286,-0.064 0.305,-0.069C0.324,-0.073 0.341,-0.08 0.355,-0.09C0.369,-0.099 0.38,-0.111 0.389,-0.126C0.397,-0.141 0.401,-0.158 0.401,-0.178Z" style="fill:rgb(21,183,183);fill-rule:nonzero;"/>
            </g>
            <g transform="matrix(55.968,0,0,55.968,7839.32,11593.2)">
                <path d="M0.101,-0.11L0.24,-0.11L0.24,-0.505L0.255,-0.573L0.207,-0.514L0.118,-0.453L0.063,-0.528L0.291,-0.712L0.364,-0.712L0.364,-0.11L0.5,-0.11L0.5,-0L0.101,-0L0.101,-0.11Z" style="fill:rgb(21,183,183);fill-rule:nonzero;"/>
            </g>
        </g>
        <g transform="matrix(1,0,0,1,-7009.78,-11444)">
            <g transform="matrix(96,0,0,96,7788.35,11561.2)">
                <path d="M0.401,-0.178C0.401,-0.206 0.393,-0.229 0.376,-0.247C0.359,-0.264 0.339,-0.28 0.314,-0.294C0.289,-0.307 0.261,-0.32 0.232,-0.332C0.203,-0.344 0.175,-0.359 0.151,-0.376C0.126,-0.393 0.105,-0.413 0.088,-0.439C0.071,-0.464 0.063,-0.495 0.063,-0.534C0.063,-0.589 0.082,-0.632 0.12,-0.664C0.158,-0.696 0.212,-0.712 0.282,-0.712C0.323,-0.712 0.36,-0.709 0.393,-0.703C0.426,-0.697 0.452,-0.689 0.471,-0.68L0.446,-0.607C0.431,-0.614 0.408,-0.621 0.379,-0.628C0.349,-0.635 0.315,-0.638 0.278,-0.638C0.234,-0.638 0.201,-0.628 0.179,-0.609C0.157,-0.589 0.146,-0.566 0.146,-0.539C0.146,-0.513 0.154,-0.491 0.171,-0.474C0.188,-0.457 0.209,-0.441 0.234,-0.428C0.259,-0.414 0.286,-0.4 0.315,-0.387C0.344,-0.374 0.372,-0.358 0.397,-0.341C0.422,-0.323 0.442,-0.302 0.459,-0.277C0.476,-0.252 0.484,-0.222 0.484,-0.185C0.484,-0.155 0.479,-0.128 0.468,-0.104C0.457,-0.08 0.442,-0.059 0.421,-0.042C0.4,-0.025 0.375,-0.011 0.346,-0.002C0.317,0.007 0.283,0.012 0.246,0.012C0.196,0.012 0.155,0.008 0.122,0.001C0.089,-0.007 0.064,-0.016 0.046,-0.025L0.074,-0.1C0.089,-0.091 0.112,-0.083 0.142,-0.075C0.172,-0.066 0.206,-0.062 0.243,-0.062C0.265,-0.062 0.286,-0.064 0.305,-0.069C0.324,-0.073 0.341,-0.08 0.355,-0.09C0.369,-0.099 0.38,-0.111 0.389,-0.126C0.397,-0.141 0.401,-0.158 0.401,-0.178Z" style="fill:rgb(249,85,185);fill-rule:nonzero;"/>
            </g>
            <g transform="matrix(55.968,0,0,55.968,7839.32,11593.2)">
                <path d="M0.475,-0.529C0.475,-0.495 0.469,-0.461 0.457,-0.426C0.444,-0.391 0.429,-0.357 0.41,-0.324C0.391,-0.291 0.37,-0.259 0.347,-0.228C0.324,-0.197 0.301,-0.168 0.279,-0.142L0.226,-0.101L0.226,-0.096L0.298,-0.11L0.49,-0.11L0.49,-0L0.069,-0L0.069,-0.067C0.085,-0.084 0.103,-0.103 0.123,-0.126C0.143,-0.148 0.163,-0.171 0.184,-0.197C0.204,-0.222 0.224,-0.247 0.243,-0.274C0.262,-0.301 0.28,-0.327 0.295,-0.355C0.31,-0.382 0.323,-0.408 0.332,-0.433C0.341,-0.458 0.345,-0.482 0.345,-0.505C0.345,-0.532 0.337,-0.555 0.322,-0.573C0.306,-0.59 0.281,-0.599 0.247,-0.599C0.226,-0.599 0.204,-0.595 0.182,-0.586C0.159,-0.577 0.14,-0.565 0.125,-0.551L0.073,-0.643C0.099,-0.664 0.129,-0.682 0.162,-0.695C0.195,-0.708 0.233,-0.714 0.278,-0.714C0.307,-0.714 0.333,-0.71 0.357,-0.702C0.381,-0.694 0.402,-0.682 0.419,-0.667C0.436,-0.652 0.45,-0.632 0.46,-0.61C0.47,-0.587 0.475,-0.56 0.475,-0.529Z" style="fill:rgb(249,85,185);fill-rule:nonzero;"/>
            </g>
        </g>
        <g>
            <path d="M30.85,459.729L75.264,266.655L292.436,346.808L262.405,510.793L30.85,459.729Z" style="fill:rgb(45,231,231);fill-opacity:0.5;stroke:rgb(21,183,183);stroke-width:8px;"/>
            <path d="M30.85,459.729L72.631,678.094L226.975,771.426L391.601,722.567L262.405,510.793L30.85,459.729Z" style="fill:rgb(45,231,231);fill-opacity:0.5;stroke:rgb(21,183,183);stroke-width:8px;"/>
            <path d="M292.436,346.808L75.264,266.655L287.787,82.756L522.628,203.513L378.787,240.372L292.436,346.808Z" style="fill:rgb(45,231,231);fill-opacity:0.5;stroke:rgb(21,183,183);stroke-width:8px;"/>
            <path d="M292.436,346.808L262.405,510.793L391.601,722.567L610.519,637.744L453.28,451.398L292.436,346.808Z" style="fill:rgb(45,231,231);fill-opacity:0.5;stroke:rgb(21,183,183);stroke-width:8px;"/>
            <path d="M610.519,637.744L453.28,451.398L639.803,274.395L755.078,344.128L749.198,499.943L610.519,637.744Z" style="fill:rgb(45,231,231);fill-opacity:0.5;stroke:rgb(21,183,183);stroke-width:8px;"/>
            <path d="M287.787,82.756L499.64,29.155L696.869,113.308L755.078,344.128L522.628,203.513L287.787,82.756Z" style="fill:rgb(45,231,231);fill-opacity:0.5;stroke:rgb(21,183,183);stroke-width:8px;"/>
            <path d="M453.28,451.398L639.491,273.855L522.628,203.513L378.787,240.372L292.436,346.808L453.28,451.398Z" style="fill:rgb(45,231,231);fill-opacity:0.5;stroke:rgb(21,183,183);stroke-width:8px;"/>
            <circle cx="75.574" cy="266.029" r="20" style="fill:rgb(21,183,183);"/>
            <circle cx="290.159" cy="84.178" r="20" style="fill:rgb(21,183,183);"/>
            <circle cx="497.718" cy="30.428" r="20" style="fill:rgb(21,183,183);"/>
            <circle cx="694.916" cy="110.462" r="20" style="fill:rgb(21,183,183);"/>
            <circle cx="752.924" cy="343.51" r="20" style="fill:rgb(21,183,183);"/>
            <circle cx="640.708" cy="271.886" r="20" style="fill:rgb(21,183,183);"/>
            <circle cx="522.476" cy="205.394" r="20" style="fill:rgb(21,183,183);"/>
            <circle cx="378.003" cy="239.941" r="20" style="fill:rgb(21,183,183);"/>
            <circle cx="294.907" cy="351.859" r="20" style="fill:rgb(21,183,183);"/>
            <circle cx="259.958" cy="513.82" r="20" style="fill:rgb(21,183,183);"/>
            <circle cx="389.487" cy="720.746" r="20" style="fill:rgb(21,183,183);"/>
            <circle cx="610.398" cy="638.91" r="20" style="fill:rgb(21,183,183);"/>
            <circle cx="453.579" cy="454.814" r="20" style="fill:rgb(21,183,183);"/>
            <circle cx="748.335" cy="503.587" r="20" style="fill:rgb(21,183,183);"/>
            <circle cx="28.507" cy="460.832" r="20" style="fill:rgb(21,183,183);"/>
            <circle cx="69.688" cy="676.865" r="20" style="fill:rgb(21,183,183);"/>
            <circle cx="224.111" cy="774.301" r="20" style="fill:rgb(21,183,183);"/>
            <path d="M183,436L234,231L428.985,306.116L606.993,455.5L397,510.793L183,436Z" style="fill:rgb(249,85,185);fill-opacity:0.26;stroke:rgb(249,85,185);stroke-width:8px;"/>
            <path d="M234,231L462,111L662,186.641L428.985,306.116L234,231Z" style="fill:rgb(249,85,185);fill-opacity:0.26;stroke:rgb(249,85,185);stroke-width:8px;"/>
            <path d="M606.993,455.5L428.985,306.116L662,186.641L787,209L843,398L606.993,455.5Z" style="fill:rgb(249,85,185);fill-opacity:0.26;stroke:rgb(249,85,185);stroke-width:8px;"/>
            <path d="M397,510.793L183,436L210,617L397,780L489,724L397,510.793Z" style="fill:rgb(249,85,185);fill-opacity:0.26;stroke:rgb(249,85,185);stroke-width:8px;"/>
            <path d="M489,724L397,510.793L606.993,455.5L702,550L659,700L489,724Z" style="fill:rgb(249,85,185);fill-opacity:0.26;stroke:rgb(249,85,185);stroke-width:8px;"/>
            <path d="M606.993,455.5L843,398L843,595L702,547.448L606.993,455.5Z" style="fill:rgb(249,85,185);fill-opacity:0.26;stroke:rgb(249,85,185);stroke-width:8px;"/>
            <path d="M397,778L489,838L659,860L659,700L489,724L397,778Z" style="fill:rgb(249,85,185);fill-opacity:0.26;stroke:rgb(249,85,185);stroke-width:8px;"/>
            <path d="M659,860L826,780L843,595L702,550L659,700L659,860Z" style="fill:rgb(249,85,185);fill-opacity:0.26;stroke:rgb(249,85,185);stroke-width:8px;"/>
            <circle cx="453.579" cy="111.015" r="20" style="fill:rgb(249,85,185);"/>
            <circle cx="657.088" cy="185.475" r="20" style="fill:rgb(249,85,185);"/>
            <circle cx="784.075" cy="210.338" r="20" style="fill:rgb(249,85,185);"/>
            <circle cx="841.544" cy="399.631" r="20" style="fill:rgb(249,85,185);"/>
            <circle cx="841.98" cy="594.45" r="20" style="fill:rgb(249,85,185);"/>
            <circle cx="699.882" cy="549.397" r="20" style="fill:rgb(249,85,185);"/>
            <circle cx="824.671" cy="780.22" r="20" style="fill:rgb(249,85,185);"/>
            <circle cx="658.082" cy="863.596" r="20" style="fill:rgb(249,85,185);"/>
            <circle cx="657.974" cy="701.114" r="20" style="fill:rgb(249,85,185);"/>
            <circle cx="490.3" cy="722.154" r="20" style="fill:rgb(249,85,185);"/>
            <circle cx="397.456" cy="783.669" r="20" style="fill:rgb(249,85,185);"/>
            <circle cx="489.853" cy="837.499" r="20" style="fill:rgb(249,85,185);"/>
            <circle cx="209.012" cy="620.876" r="20" style="fill:rgb(249,85,185);"/>
            <circle cx="185.871" cy="436.506" r="20" style="fill:rgb(249,85,185);"/>
            <circle cx="234.02" cy="233.564" r="20" style="fill:rgb(249,85,185);"/>
            <circle cx="432.013" cy="306.851" r="20" style="fill:rgb(249,85,185);"/>
            <circle cx="611.82" cy="458.802" r="20" style="fill:rgb(249,85,185);"/>
            <circle cx="395.842" cy="513.811" r="20" style="fill:rgb(249,85,185);"/>
        </g>
    </g>
</svg>
