<?xml version="1.0" encoding="UTF-8" standalone="no"?>
<!DOCTYPE svg PUBLIC "-//W3C//DTD SVG 1.1//EN" "http://www.w3.org/Graphics/SVG/1.1/DTD/svg11.dtd">
<svg width="100%" height="100%" viewBox="0 0 1379 823" version="1.1" xmlns="http://www.w3.org/2000/svg" xmlns:xlink="http://www.w3.org/1999/xlink" xml:space="preserve" xmlns:serif="http://www.serif.com/" style="fill-rule:evenodd;clip-rule:evenodd;stroke-linejoin:round;stroke-miterlimit:10;">
    <rect id="Artboard8" x="-3880" y="-133" width="5544" height="2861" style="fill:none;"/>
    <g id="Artboard81" serif:id="Artboard8">
        <path d="M688.532,164.899L751.532,196.399L688.532,227.899L688.532,164.899Z" style="fill:rgb(179,179,179);"/>
        <path d="M617.409,196.399L701.132,196.399" style="fill:none;stroke:rgb(179,179,179);stroke-width:14px;"/>
        <path d="M69.57,283.255L202.056,65.255L496.57,187.255L391.05,553.255L69.57,283.255Z" style="fill:none;stroke:rgb(45,231,231);stroke-width:8px;"/>
        <path d="M797.58,283.255L930.066,65.255L1224.58,187.255L1119.06,553.255L797.58,283.255Z" style="fill:none;stroke:rgb(127,127,127);stroke-width:8px;"/>
        <path d="M49.484,525.033L342.484,235.033L611.484,373.033L496.57,736.033L49.484,525.033Z" style="fill:none;stroke:rgb(250,112,255);stroke-width:8px;"/>
        <path d="M777.494,525.033L1070.49,235.033L1339.49,373.033L1224.58,736.033L777.494,525.033Z" style="fill:none;stroke:rgb(127,127,127);stroke-width:8px;"/>
        <path d="M118.371,267.087L95.729,281.487L97.795,254.734L118.371,267.087Z"/>
        <path d="M209.729,91.608C209.729,91.608 133.319,218.877 105.612,265.026" style="fill:none;stroke:black;stroke-width:4px;stroke-linecap:square;"/>
        <path d="M846.381,267.087L823.74,281.487L825.805,254.734L846.381,267.087Z" style="fill:rgb(21,183,183);"/>
        <path d="M937.74,91.608C937.74,91.608 861.329,218.877 833.623,265.026" style="fill:none;stroke:rgb(21,183,183);stroke-width:4px;stroke-linecap:square;"/>
        <path d="M168.702,325.169L179.484,349.741L153.358,343.624L168.702,325.169Z"/>
        <path d="M112.484,294.033C112.484,294.033 144.992,321.062 164.72,337.465" style="fill:none;stroke:black;stroke-width:4px;"/>
        <path d="M896.712,325.169L907.494,349.741L881.368,343.624L896.712,325.169Z" style="fill:rgb(21,183,183);"/>
        <path d="M840.494,294.033C840.494,294.033 873.002,321.062 892.731,337.465" style="fill:none;stroke:rgb(21,183,183);stroke-width:4px;"/>
        <path d="M376.37,500.064L386.479,523.099L361.985,517.364L376.37,500.064Z"/>
        <path d="M222.479,386.74C222.479,386.74 333.1,478.717 372.638,511.591" style="fill:none;stroke:black;stroke-width:5px;"/>
        <path d="M1104.38,500.064L1114.49,523.099L1090,517.364L1104.38,500.064Z" style="fill:rgb(118,122,2);"/>
        <path d="M950.489,386.74C950.489,386.74 1061.11,478.717 1100.65,511.591" style="fill:none;stroke:rgb(118,122,2);stroke-width:5px;"/>
        <path d="M417.402,334.325L435.681,314.681L440.429,341.091L417.402,334.325Z"/>
        <path d="M385.484,485.533C385.484,485.533 417.293,377.265 430.269,333.103" style="fill:none;stroke:black;stroke-width:4px;"/>
        <path d="M1145.41,334.325L1163.69,314.681L1168.44,341.091L1145.41,334.325Z" style="fill:rgb(118,122,2);"/>
        <path d="M1113.49,485.533C1113.49,485.533 1145.3,377.265 1158.28,333.103" style="fill:none;stroke:rgb(118,122,2);stroke-width:4px;"/>
        <path d="M451.544,227.765L469.822,208.121L474.57,234.53L451.544,227.765Z"/>
        <path d="M452.825,265.973C452.825,265.973 459.434,243.478 464.41,226.542" style="fill:none;stroke:black;stroke-width:4px;"/>
        <path d="M1179.55,227.765L1197.83,208.121L1202.58,234.53L1179.55,227.765Z" style="fill:rgb(21,183,183);"/>
        <path d="M1180.84,265.973C1180.84,265.973 1187.44,243.478 1192.42,226.542" style="fill:none;stroke:rgb(21,183,183);stroke-width:4px;"/>
        <path d="M239.672,112.214L222.484,91.608L249.281,90.221L239.672,112.214Z"/>
        <path d="M461.484,196.033C461.484,196.033 295.292,123.42 240.078,99.296" style="fill:none;stroke:black;stroke-width:4px;"/>
        <path d="M967.682,112.214L950.494,91.608L977.291,90.221L967.682,112.214Z" style="fill:rgb(21,183,183);"/>
        <path d="M1189.49,196.033C1189.49,196.033 1023.3,123.42 968.088,99.296" style="fill:none;stroke:rgb(21,183,183);stroke-width:4px;"/>
        <path d="M255.92,363.373L230.523,372.033L238.833,346.519L255.92,363.373Z"/>
        <path d="M341.984,259.033C341.984,259.033 273.672,328.288 244.006,358.364" style="fill:none;stroke:black;stroke-width:4px;"/>
        <path d="M983.93,363.373L958.533,372.033L966.844,346.519L983.93,363.373Z" style="fill:rgb(118,122,2);"/>
        <path d="M1069.99,259.033C1069.99,259.033 1001.68,328.288 972.016,358.364" style="fill:none;stroke:rgb(118,122,2);stroke-width:4px;"/>
        <path d="M107.905,518.416L84.095,526.535L91.886,502.616L107.905,518.416Z"/>
        <path d="M195.556,413.535C195.556,413.535 125.928,484.125 96.736,513.72" style="fill:none;stroke:black;stroke-width:5px;"/>
        <path d="M835.915,518.416L812.106,526.535L819.897,502.616L835.915,518.416Z" style="fill:rgb(250,112,255);"/>
        <path d="M923.567,413.535C923.567,413.535 853.938,484.125 824.746,513.72" style="fill:none;stroke:rgb(250,112,255);stroke-width:5px;"/>
        <path d="M463.946,684.902L480.484,706.033L453.657,706.585L463.946,684.902Z"/>
        <path d="M107.484,529.033C107.484,529.033 389.618,662.914 463.138,697.801" style="fill:none;stroke:black;stroke-width:4px;"/>
        <path d="M1191.96,684.902L1208.49,706.033L1181.67,706.585L1191.96,684.902Z" style="fill:rgb(250,112,255);"/>
        <path d="M835.494,529.033C835.494,529.033 1117.63,662.914 1191.15,697.801" style="fill:none;stroke:rgb(250,112,255);stroke-width:4px;"/>
        <path d="M566.841,406.831L585.484,387.533L589.737,414.026L566.841,406.831Z"/>
        <path d="M489.484,693.033C489.484,693.033 559.014,471.769 579.728,405.85" style="fill:none;stroke:black;stroke-width:4px;"/>
        <path d="M1294.85,406.831L1313.49,387.533L1317.75,414.026L1294.85,406.831Z" style="fill:rgb(250,112,255);"/>
        <path d="M1217.49,693.033C1217.49,693.033 1287.02,471.769 1307.74,405.85" style="fill:none;stroke:rgb(250,112,255);stroke-width:4px;"/>
        <path d="M500.868,352.98L484.806,331.485L511.639,331.533L500.868,352.98Z"/>
        <path d="M579.484,379.033C579.484,379.033 529.25,353.805 501.964,340.102" style="fill:none;stroke:black;stroke-width:4px;"/>
        <path d="M1228.88,352.98L1212.82,331.485L1239.65,331.533L1228.88,352.98Z" style="fill:rgb(250,112,255);"/>
        <path d="M1307.49,379.033C1307.49,379.033 1257.26,353.805 1229.97,340.102" style="fill:none;stroke:rgb(250,112,255);stroke-width:4px;"/>
        <path d="M366.517,285.4L350.455,263.905L377.287,263.952L366.517,285.4Z"/>
        <path d="M435.681,306.706C435.681,306.706 392.502,285.021 367.613,272.522" style="fill:none;stroke:black;stroke-width:4px;"/>
        <path d="M1094.53,285.4L1078.46,263.905L1105.3,263.952L1094.53,285.4Z" style="fill:rgb(118,122,2);"/>
        <path d="M1163.69,306.706C1163.69,306.706 1120.51,285.021 1095.62,272.522" style="fill:none;stroke:rgb(118,122,2);stroke-width:4px;"/>
        <path d="M209.498,444.334L198.729,419.757L224.852,425.888L209.498,444.334Z"/>
        <path d="M361.484,555.229C361.484,555.229 253.571,465.406 213.486,432.04" style="fill:none;stroke:black;stroke-width:4px;"/>
        <path d="M937.509,444.334L926.74,419.757L952.863,425.888L937.509,444.334Z" style="fill:rgb(250,112,255);"/>
        <path d="M1089.49,555.229C1089.49,555.229 981.581,465.406 941.496,432.04" style="fill:none;stroke:rgb(250,112,255);stroke-width:4px;"/>
        <path d="M73.873,328.514L63.777,305.473L88.268,311.221L73.873,328.514Z"/>
        <path d="M160.532,386.009C160.532,386.009 104.354,339.248 77.612,316.989" style="fill:none;stroke:black;stroke-width:5px;"/>
        <path d="M166.837,51.425L189.484,37.033L187.409,63.785L166.837,51.425Z"/>
        <path d="M46.484,275.033C46.484,275.033 147.223,107.368 179.595,53.49" style="fill:none;stroke:black;stroke-width:4px;"/>
        <path d="M500.791,150.859L518.484,171.033L491.729,173.082L500.791,150.859Z"/>
        <path d="M209.484,45.033C209.484,45.033 434.975,136.98 500.705,163.783" style="fill:none;stroke:black;stroke-width:4px;"/>
        <path d="M512.563,256.844L494.466,276.656L489.475,250.291L512.563,256.844Z"/>
        <path d="M518.484,192.033C518.484,192.033 506.776,233.285 499.708,258.185" style="fill:none;stroke:black;stroke-width:4px;"/>
        <path d="M436.29,518.977L418.193,538.788L413.202,512.424L436.29,518.977Z"/>
        <path d="M476.837,332.165C476.837,332.165 437.819,469.641 423.435,520.318" style="fill:none;stroke:black;stroke-width:4px;"/>
        <path d="M1164.3,518.977L1146.2,538.788L1141.21,512.424L1164.3,518.977Z" style="fill:rgb(250,112,255);"/>
        <path d="M1204.85,332.165C1204.85,332.165 1165.83,469.641 1151.45,520.318" style="fill:none;stroke:rgb(250,112,255);stroke-width:4px;"/>
        <path d="M127.233,395.385L152.729,387.022L144.122,412.437L127.233,395.385Z"/>
        <path d="M23.484,515.033C23.484,515.033 105.869,433.435 139.088,400.533" style="fill:none;stroke:black;stroke-width:4px;"/>
        <path d="M300.899,228.491L324.802,220.65L316.732,244.477L300.899,228.491Z"/>
        <path d="M195.556,348.661C195.556,348.661 279.376,265.642 312.013,233.317" style="fill:none;stroke:black;stroke-width:5px;"/>
        <path d="M1028.91,228.491L1052.81,220.65L1044.74,244.477L1028.91,228.491Z" style="fill:rgb(21,183,183);"/>
        <path d="M923.567,348.661C923.567,348.661 1007.39,265.642 1040.02,233.317" style="fill:none;stroke:rgb(21,183,183);stroke-width:5px;"/>
        <path d="M430.984,238.157L446.781,259.847L419.95,259.471L430.984,238.157Z"/>
        <path d="M352.484,211.033C352.484,211.033 402.562,236.957 429.73,251.02" style="fill:none;stroke:black;stroke-width:4px;"/>
        <path d="M1158.99,238.157L1174.79,259.847L1147.96,259.471L1158.99,238.157Z" style="fill:rgb(21,183,183);"/>
        <path d="M1080.49,211.033C1080.49,211.033 1130.57,236.957 1157.74,251.02" style="fill:none;stroke:rgb(21,183,183);stroke-width:4px;"/>
        <path d="M596.586,327.972L612.383,349.662L585.553,349.285L596.586,327.972Z"/>
        <path d="M497.086,289.977C497.086,289.977 563.246,324.225 595.332,340.835" style="fill:none;stroke:black;stroke-width:4px;"/>
        <path d="M540.243,716.613L521.484,735.799L517.391,709.28L540.243,716.613Z"/>
        <path d="M635.484,380.533C635.484,380.533 550.662,644.869 527.35,717.517" style="fill:none;stroke:black;stroke-width:4px;"/>
        <path d="M62.113,574.092L45.484,553.033L72.308,552.365L62.113,574.092Z"/>
        <path d="M492.984,763.033C492.984,763.033 145.311,599.879 62.865,561.189" style="fill:none;stroke:black;stroke-width:4px;"/>
        <circle cx="190.773" cy="384.207" r="13.5"/>
        <circle cx="918.784" cy="384.207" r="13.5"/>
        <circle cx="70.564" cy="283.674" r="13.5"/>
        <circle cx="798.574" cy="283.674" r="13.5"/>
        <circle cx="203.19" cy="66.679" r="13.5"/>
        <circle cx="931.2" cy="66.679" r="13.5"/>
        <circle cx="495.647" cy="189.05" r="13.5"/>
        <circle cx="1223.66" cy="189.05" r="13.5"/>
        <circle cx="465.291" cy="298.956" r="13.5"/>
        <circle cx="1193.3" cy="298.956" r="13.5"/>
        <circle cx="389.006" cy="554.081" r="13.5"/>
        <circle cx="1117.02" cy="554.081" r="13.5"/>
        <circle cx="342.991" cy="238.051" r="13.5"/>
        <circle cx="1071" cy="238.051" r="13.5"/>
        <circle cx="610.848" cy="375.751" r="13.5"/>
        <circle cx="1338.86" cy="375.751" r="13.5"/>
        <circle cx="496.146" cy="735.799" r="13.5"/>
        <circle cx="1224.16" cy="735.799" r="13.5"/>
        <circle cx="50.008" cy="525.316" r="13.5"/>
        <circle cx="778.019" cy="525.316" r="13.5"/>
    </g>
</svg>
