<?xml version="1.0" encoding="UTF-8" standalone="no"?>
<!DOCTYPE svg PUBLIC "-//W3C//DTD SVG 1.1//EN" "http://www.w3.org/Graphics/SVG/1.1/DTD/svg11.dtd">
<svg width="100%" height="100%" viewBox="0 0 349 427" version="1.1" xmlns="http://www.w3.org/2000/svg" xmlns:xlink="http://www.w3.org/1999/xlink" xml:space="preserve" xmlns:serif="http://www.serif.com/" style="fill-rule:evenodd;clip-rule:evenodd;stroke-linejoin:round;stroke-miterlimit:1.5;">
    <rect id="Geometric-Operations" serif:id="Geometric Operations" x="-791" y="-701" width="6739" height="2861" style="fill:none;"/>
    <g id="Geometric-Operations1" serif:id="Geometric Operations">
        <path d="M14.423,415.292L316.909,19.825" style="fill:none;stroke:black;stroke-width:2px;stroke-dasharray:2,4,0,0;"/>
        <circle cx="250.759" cy="105.277" r="11.72"/>
        <circle cx="84.98" cy="322.292" r="11.72"/>
        <path d="M223.819,123.067L246.409,111.997L241.711,136.71L223.819,123.067Z"/>
        <path d="M86.047,322.292C86.047,322.292 199.381,173.669 235.494,126.31" style="fill:none;stroke:black;stroke-width:5px;"/>
        <g transform="matrix(1,0,0,1,-294.28,-1578.05)">
            <g transform="matrix(48,0,0,48,368.503,1953.88)">
                <path d="M0.196,-0.527C0.198,-0.522 0.2,-0.516 0.203,-0.507C0.205,-0.498 0.207,-0.489 0.208,-0.48C0.215,-0.487 0.224,-0.494 0.232,-0.501C0.241,-0.507 0.251,-0.513 0.262,-0.518C0.272,-0.523 0.284,-0.528 0.298,-0.531C0.311,-0.534 0.326,-0.536 0.342,-0.536C0.385,-0.536 0.42,-0.528 0.449,-0.514C0.477,-0.499 0.5,-0.479 0.517,-0.455C0.534,-0.431 0.547,-0.403 0.554,-0.371C0.561,-0.339 0.565,-0.306 0.565,-0.271C0.565,-0.234 0.56,-0.198 0.55,-0.163C0.54,-0.129 0.525,-0.099 0.505,-0.073C0.485,-0.046 0.46,-0.025 0.429,-0.01C0.399,0.006 0.363,0.014 0.322,0.014C0.281,0.014 0.244,0.001 0.212,-0.024L0.212,0.221L0.085,0.221L0.085,-0.427C0.085,-0.429 0.085,-0.434 0.085,-0.442C0.085,-0.45 0.085,-0.459 0.084,-0.469C0.084,-0.478 0.083,-0.489 0.082,-0.5C0.081,-0.51 0.079,-0.52 0.077,-0.527L0.196,-0.527ZM0.312,-0.44C0.295,-0.44 0.278,-0.438 0.262,-0.434C0.247,-0.43 0.23,-0.423 0.212,-0.414L0.212,-0.112C0.221,-0.105 0.23,-0.099 0.239,-0.095C0.247,-0.091 0.256,-0.088 0.265,-0.086C0.274,-0.084 0.283,-0.083 0.292,-0.083C0.302,-0.083 0.311,-0.083 0.321,-0.083C0.34,-0.083 0.357,-0.088 0.371,-0.099C0.385,-0.11 0.396,-0.124 0.405,-0.142C0.414,-0.16 0.42,-0.18 0.424,-0.203C0.429,-0.226 0.431,-0.249 0.431,-0.273C0.431,-0.297 0.428,-0.319 0.424,-0.34C0.419,-0.36 0.412,-0.378 0.403,-0.393C0.393,-0.408 0.381,-0.419 0.366,-0.427C0.351,-0.436 0.333,-0.44 0.312,-0.44Z" style="fill-rule:nonzero;"/>
            </g>
            <g transform="matrix(27.984,0,0,27.984,398.409,1969.87)">
                <path d="M0.164,-0.099L0.164,-0.634L0.041,-0.567L0.041,-0.679L0.198,-0.765L0.297,-0.765L0.297,-0.099L0.406,-0.099L0.406,-0L0.045,-0L0.045,-0.099L0.164,-0.099Z" style="fill-rule:nonzero;"/>
            </g>
        </g>
        <g transform="matrix(1,0,0,1,-86.9945,-1842.74)">
            <g transform="matrix(48,0,0,48,368.503,1953.88)">
                <path d="M0.196,-0.527C0.198,-0.522 0.2,-0.516 0.203,-0.507C0.205,-0.498 0.207,-0.489 0.208,-0.48C0.215,-0.487 0.224,-0.494 0.232,-0.501C0.241,-0.507 0.251,-0.513 0.262,-0.518C0.272,-0.523 0.284,-0.528 0.298,-0.531C0.311,-0.534 0.326,-0.536 0.342,-0.536C0.385,-0.536 0.42,-0.528 0.449,-0.514C0.477,-0.499 0.5,-0.479 0.517,-0.455C0.534,-0.431 0.547,-0.403 0.554,-0.371C0.561,-0.339 0.565,-0.306 0.565,-0.271C0.565,-0.234 0.56,-0.198 0.55,-0.163C0.54,-0.129 0.525,-0.099 0.505,-0.073C0.485,-0.046 0.46,-0.025 0.429,-0.01C0.399,0.006 0.363,0.014 0.322,0.014C0.281,0.014 0.244,0.001 0.212,-0.024L0.212,0.221L0.085,0.221L0.085,-0.427C0.085,-0.429 0.085,-0.434 0.085,-0.442C0.085,-0.45 0.085,-0.459 0.084,-0.469C0.084,-0.478 0.083,-0.489 0.082,-0.5C0.081,-0.51 0.079,-0.52 0.077,-0.527L0.196,-0.527ZM0.312,-0.44C0.295,-0.44 0.278,-0.438 0.262,-0.434C0.247,-0.43 0.23,-0.423 0.212,-0.414L0.212,-0.112C0.221,-0.105 0.23,-0.099 0.239,-0.095C0.247,-0.091 0.256,-0.088 0.265,-0.086C0.274,-0.084 0.283,-0.083 0.292,-0.083C0.302,-0.083 0.311,-0.083 0.321,-0.083C0.34,-0.083 0.357,-0.088 0.371,-0.099C0.385,-0.11 0.396,-0.124 0.405,-0.142C0.414,-0.16 0.42,-0.18 0.424,-0.203C0.429,-0.226 0.431,-0.249 0.431,-0.273C0.431,-0.297 0.428,-0.319 0.424,-0.34C0.419,-0.36 0.412,-0.378 0.403,-0.393C0.393,-0.408 0.381,-0.419 0.366,-0.427C0.351,-0.436 0.333,-0.44 0.312,-0.44Z" style="fill-rule:nonzero;"/>
            </g>
            <g transform="matrix(27.984,0,0,27.984,398.409,1969.87)">
                <path d="M0.541,-0L0.058,-0L0.058,-0.059C0.058,-0.087 0.063,-0.113 0.073,-0.135C0.083,-0.156 0.097,-0.176 0.114,-0.194C0.13,-0.212 0.149,-0.229 0.171,-0.244C0.192,-0.259 0.214,-0.275 0.236,-0.29C0.259,-0.305 0.281,-0.32 0.302,-0.336C0.323,-0.353 0.342,-0.371 0.359,-0.39C0.376,-0.41 0.389,-0.432 0.4,-0.457C0.41,-0.482 0.415,-0.511 0.415,-0.543C0.415,-0.568 0.411,-0.59 0.404,-0.607C0.396,-0.625 0.386,-0.639 0.374,-0.65C0.362,-0.661 0.347,-0.668 0.331,-0.673C0.315,-0.678 0.298,-0.681 0.28,-0.681C0.251,-0.681 0.225,-0.676 0.201,-0.668C0.178,-0.659 0.158,-0.648 0.141,-0.635L0.073,-0.727C0.086,-0.736 0.1,-0.744 0.114,-0.751C0.129,-0.758 0.144,-0.764 0.161,-0.77C0.178,-0.775 0.197,-0.779 0.217,-0.781C0.237,-0.784 0.26,-0.786 0.285,-0.786C0.323,-0.786 0.359,-0.781 0.392,-0.77C0.425,-0.76 0.453,-0.745 0.477,-0.726C0.501,-0.707 0.52,-0.684 0.533,-0.656C0.547,-0.629 0.554,-0.598 0.554,-0.564C0.554,-0.532 0.549,-0.503 0.539,-0.476C0.528,-0.449 0.515,-0.424 0.499,-0.401C0.482,-0.378 0.463,-0.357 0.442,-0.337C0.42,-0.318 0.399,-0.3 0.377,-0.283C0.355,-0.266 0.333,-0.25 0.312,-0.236C0.29,-0.221 0.271,-0.207 0.255,-0.193C0.238,-0.179 0.225,-0.166 0.215,-0.153C0.205,-0.139 0.2,-0.126 0.2,-0.112L0.541,-0.112L0.541,-0Z" style="fill-rule:nonzero;"/>
            </g>
        </g>
        <path d="M335.43,7.395L338.516,7.395L333.946,33.684C333.894,33.945 333.868,34.199 333.868,34.446C333.868,34.98 334.021,35.328 334.327,35.491C334.633,35.654 335.092,35.735 335.704,35.735C335.808,35.735 335.961,35.729 336.163,35.716C336.364,35.703 336.569,35.683 336.778,35.657L336.915,37.454C336.667,37.558 336.39,37.662 336.084,37.766C335.778,37.871 335.463,37.965 335.137,38.05C334.812,38.134 334.489,38.203 334.17,38.255C333.851,38.307 333.555,38.333 333.282,38.333C332.943,38.333 332.611,38.291 332.286,38.206C331.96,38.121 331.674,37.975 331.426,37.766C331.179,37.558 330.98,37.278 330.831,36.927C330.681,36.575 330.606,36.132 330.606,35.598C330.606,35.247 330.645,34.856 330.723,34.427L335.43,7.395Z" style="fill-rule:nonzero;"/>
    </g>
</svg>
