<?xml version="1.0" encoding="UTF-8" standalone="no"?>
<!DOCTYPE svg PUBLIC "-//W3C//DTD SVG 1.1//EN" "http://www.w3.org/Graphics/SVG/1.1/DTD/svg11.dtd">
<svg width="100%" height="100%" viewBox="0 0 316 293" version="1.1" xmlns="http://www.w3.org/2000/svg" xmlns:xlink="http://www.w3.org/1999/xlink" xml:space="preserve" xmlns:serif="http://www.serif.com/" style="fill-rule:evenodd;clip-rule:evenodd;stroke-linecap:round;stroke-linejoin:round;stroke-miterlimit:10;">
    <g transform="matrix(1,0,0,1,-80,-3538)">
        <rect id="Vector-analysis" serif:id="Vector analysis" x="0" y="3502" width="2985" height="2387" style="fill:none;"/>
        <g id="Vector-analysis1" serif:id="Vector analysis">
            <g transform="matrix(0.698525,0,0,0.698525,-2462.84,2493.64)">
                <path d="M3737.95,1743.64L3772.93,1662.76L3858.86,1620.72L3914.34,1639.32L3958,1726L3896.06,1790.2L3808.01,1805.66L3737.95,1743.64Z" style="fill:rgb(217,217,217);"/>
            </g>
            <g transform="matrix(0.698525,0,0,0.698525,-2462.84,2493.64)">
                <path d="M3737.95,1743.64L3772.93,1662.76L3858.86,1620.72L3914.34,1639.32L3958,1726L3896.06,1790.2L3808.01,1805.66L3737.95,1743.64Z" style="fill:none;stroke:black;stroke-width:4.29px;"/>
            </g>
            <g transform="matrix(1,0,0,1,49.7538,-7.15902)">
                <g transform="matrix(24,0,0,24,71.3849,3700.15)">
                    <path d="M0.096,-0.325C0.096,-0.331 0.096,-0.339 0.096,-0.349C0.095,-0.358 0.095,-0.368 0.094,-0.379C0.093,-0.389 0.092,-0.399 0.092,-0.409C0.09,-0.419 0.089,-0.428 0.088,-0.435L0.021,-0.435L0.021,-0.5L0.154,-0.5L0.164,-0.43L0.169,-0.43C0.187,-0.453 0.21,-0.473 0.238,-0.489C0.265,-0.504 0.299,-0.512 0.339,-0.512C0.41,-0.512 0.464,-0.492 0.5,-0.453C0.536,-0.414 0.554,-0.349 0.554,-0.26C0.554,-0.218 0.548,-0.18 0.536,-0.147C0.523,-0.113 0.506,-0.084 0.483,-0.061C0.46,-0.038 0.433,-0.02 0.401,-0.007C0.369,0.006 0.334,0.012 0.295,0.012C0.281,0.012 0.269,0.012 0.258,0.011C0.247,0.01 0.237,0.008 0.228,0.007C0.219,0.005 0.21,0.003 0.201,-0C0.192,-0.003 0.183,-0.006 0.173,-0.01L0.173,0.2L0.096,0.2L0.096,-0.325ZM0.326,-0.439C0.306,-0.439 0.287,-0.435 0.27,-0.428C0.252,-0.421 0.236,-0.411 0.223,-0.399C0.209,-0.387 0.198,-0.374 0.189,-0.359C0.18,-0.344 0.175,-0.33 0.173,-0.315L0.173,-0.087C0.188,-0.077 0.204,-0.069 0.223,-0.064C0.241,-0.058 0.265,-0.055 0.295,-0.055C0.348,-0.055 0.391,-0.073 0.423,-0.108C0.455,-0.142 0.471,-0.194 0.471,-0.261C0.471,-0.318 0.46,-0.362 0.438,-0.393C0.415,-0.424 0.378,-0.439 0.326,-0.439Z" style="fill-rule:nonzero;"/>
                </g>
                <g transform="matrix(13.992,0,0,13.992,85.7849,3708.14)">
                    <path d="M0.055,-0.35C0.055,-0.407 0.06,-0.458 0.07,-0.503C0.08,-0.548 0.095,-0.586 0.115,-0.617C0.135,-0.648 0.16,-0.671 0.191,-0.688C0.222,-0.704 0.258,-0.712 0.3,-0.712C0.345,-0.712 0.383,-0.704 0.414,-0.688C0.445,-0.672 0.47,-0.649 0.489,-0.618C0.508,-0.587 0.522,-0.55 0.531,-0.505C0.54,-0.46 0.544,-0.408 0.544,-0.35C0.544,-0.293 0.539,-0.243 0.529,-0.198C0.519,-0.153 0.504,-0.115 0.484,-0.084C0.464,-0.053 0.439,-0.029 0.408,-0.013C0.377,0.004 0.341,0.012 0.299,0.012C0.255,0.012 0.218,0.003 0.187,-0.015C0.156,-0.032 0.13,-0.057 0.111,-0.089C0.091,-0.121 0.077,-0.159 0.068,-0.204C0.059,-0.248 0.055,-0.297 0.055,-0.35ZM0.462,-0.35C0.462,-0.385 0.46,-0.419 0.456,-0.451L0.159,-0.18C0.17,-0.142 0.187,-0.112 0.21,-0.089C0.233,-0.066 0.262,-0.055 0.299,-0.055C0.358,-0.055 0.4,-0.079 0.425,-0.128C0.45,-0.177 0.462,-0.251 0.462,-0.35ZM0.138,-0.35C0.138,-0.333 0.139,-0.317 0.14,-0.302C0.141,-0.287 0.142,-0.272 0.143,-0.257L0.441,-0.527C0.43,-0.563 0.413,-0.592 0.391,-0.613C0.368,-0.634 0.338,-0.645 0.3,-0.645C0.241,-0.645 0.199,-0.62 0.175,-0.572C0.15,-0.523 0.138,-0.449 0.138,-0.35Z" style="fill-rule:nonzero;"/>
                </g>
            </g>
            <g transform="matrix(1,0,0,1,50.2156,31.5366)">
                <g transform="matrix(24,0,0,24,71.3849,3700.15)">
                    <path d="M0.096,-0.325C0.096,-0.331 0.096,-0.339 0.096,-0.349C0.095,-0.358 0.095,-0.368 0.094,-0.379C0.093,-0.389 0.092,-0.399 0.092,-0.409C0.09,-0.419 0.089,-0.428 0.088,-0.435L0.021,-0.435L0.021,-0.5L0.154,-0.5L0.164,-0.43L0.169,-0.43C0.187,-0.453 0.21,-0.473 0.238,-0.489C0.265,-0.504 0.299,-0.512 0.339,-0.512C0.41,-0.512 0.464,-0.492 0.5,-0.453C0.536,-0.414 0.554,-0.349 0.554,-0.26C0.554,-0.218 0.548,-0.18 0.536,-0.147C0.523,-0.113 0.506,-0.084 0.483,-0.061C0.46,-0.038 0.433,-0.02 0.401,-0.007C0.369,0.006 0.334,0.012 0.295,0.012C0.281,0.012 0.269,0.012 0.258,0.011C0.247,0.01 0.237,0.008 0.228,0.007C0.219,0.005 0.21,0.003 0.201,-0C0.192,-0.003 0.183,-0.006 0.173,-0.01L0.173,0.2L0.096,0.2L0.096,-0.325ZM0.326,-0.439C0.306,-0.439 0.287,-0.435 0.27,-0.428C0.252,-0.421 0.236,-0.411 0.223,-0.399C0.209,-0.387 0.198,-0.374 0.189,-0.359C0.18,-0.344 0.175,-0.33 0.173,-0.315L0.173,-0.087C0.188,-0.077 0.204,-0.069 0.223,-0.064C0.241,-0.058 0.265,-0.055 0.295,-0.055C0.348,-0.055 0.391,-0.073 0.423,-0.108C0.455,-0.142 0.471,-0.194 0.471,-0.261C0.471,-0.318 0.46,-0.362 0.438,-0.393C0.415,-0.424 0.378,-0.439 0.326,-0.439Z" style="fill-rule:nonzero;"/>
                </g>
                <g transform="matrix(13.992,0,0,13.992,85.7849,3708.14)">
                    <path d="M0.124,-0L0.43,-0.628L0.069,-0.628L0.069,-0.7L0.511,-0.7L0.511,-0.635L0.206,-0L0.124,-0Z" style="fill-rule:nonzero;"/>
                </g>
            </g>
            <g transform="matrix(1,0,0,1,70.479,-55.6321)">
                <g transform="matrix(24,0,0,24,71.3849,3700.15)">
                    <path d="M0.096,-0.325C0.096,-0.331 0.096,-0.339 0.096,-0.349C0.095,-0.358 0.095,-0.368 0.094,-0.379C0.093,-0.389 0.092,-0.399 0.092,-0.409C0.09,-0.419 0.089,-0.428 0.088,-0.435L0.021,-0.435L0.021,-0.5L0.154,-0.5L0.164,-0.43L0.169,-0.43C0.187,-0.453 0.21,-0.473 0.238,-0.489C0.265,-0.504 0.299,-0.512 0.339,-0.512C0.41,-0.512 0.464,-0.492 0.5,-0.453C0.536,-0.414 0.554,-0.349 0.554,-0.26C0.554,-0.218 0.548,-0.18 0.536,-0.147C0.523,-0.113 0.506,-0.084 0.483,-0.061C0.46,-0.038 0.433,-0.02 0.401,-0.007C0.369,0.006 0.334,0.012 0.295,0.012C0.281,0.012 0.269,0.012 0.258,0.011C0.247,0.01 0.237,0.008 0.228,0.007C0.219,0.005 0.21,0.003 0.201,-0C0.192,-0.003 0.183,-0.006 0.173,-0.01L0.173,0.2L0.096,0.2L0.096,-0.325ZM0.326,-0.439C0.306,-0.439 0.287,-0.435 0.27,-0.428C0.252,-0.421 0.236,-0.411 0.223,-0.399C0.209,-0.387 0.198,-0.374 0.189,-0.359C0.18,-0.344 0.175,-0.33 0.173,-0.315L0.173,-0.087C0.188,-0.077 0.204,-0.069 0.223,-0.064C0.241,-0.058 0.265,-0.055 0.295,-0.055C0.348,-0.055 0.391,-0.073 0.423,-0.108C0.455,-0.142 0.471,-0.194 0.471,-0.261C0.471,-0.318 0.46,-0.362 0.438,-0.393C0.415,-0.424 0.378,-0.439 0.326,-0.439Z" style="fill-rule:nonzero;"/>
                </g>
                <g transform="matrix(13.992,0,0,13.992,85.7849,3708.14)">
                    <path d="M0.127,-0.072L0.284,-0.072L0.284,-0.598L0.124,-0.486L0.085,-0.543L0.305,-0.7L0.361,-0.7L0.361,-0.072L0.515,-0.072L0.515,-0L0.127,-0L0.127,-0.072Z" style="fill-rule:nonzero;"/>
                </g>
            </g>
            <g transform="matrix(1,0,0,1,4.00786,-143.264)">
                <g transform="matrix(24,0,0,24,79.7801,3700.15)">
                    <path d="M0.22,-0.359L0.022,-0.7L0.182,-0.7L0.284,-0.51L0.307,-0.459L0.329,-0.51L0.433,-0.7L0.588,-0.7L0.387,-0.358L0.594,-0L0.434,-0L0.327,-0.2L0.3,-0.254L0.274,-0.2L0.162,-0L0.007,-0L0.22,-0.359Z" style="fill-rule:nonzero;"/>
                </g>
            </g>
            <g transform="matrix(1,0,0,1,300.008,129.248)">
                <g transform="matrix(24,0,0,24,79.7801,3700.15)">
                    <path d="M0.22,-0.359L0.022,-0.7L0.182,-0.7L0.284,-0.51L0.307,-0.459L0.329,-0.51L0.433,-0.7L0.588,-0.7L0.387,-0.358L0.594,-0L0.434,-0L0.327,-0.2L0.3,-0.254L0.274,-0.2L0.162,-0L0.007,-0L0.22,-0.359Z" style="fill-rule:nonzero;"/>
                </g>
            </g>
            <g transform="matrix(1,0,0,1,153.364,-90.8927)">
                <g transform="matrix(24,0,0,24,71.3849,3700.15)">
                    <path d="M0.096,-0.325C0.096,-0.331 0.096,-0.339 0.096,-0.349C0.095,-0.358 0.095,-0.368 0.094,-0.379C0.093,-0.389 0.092,-0.399 0.092,-0.409C0.09,-0.419 0.089,-0.428 0.088,-0.435L0.021,-0.435L0.021,-0.5L0.154,-0.5L0.164,-0.43L0.169,-0.43C0.187,-0.453 0.21,-0.473 0.238,-0.489C0.265,-0.504 0.299,-0.512 0.339,-0.512C0.41,-0.512 0.464,-0.492 0.5,-0.453C0.536,-0.414 0.554,-0.349 0.554,-0.26C0.554,-0.218 0.548,-0.18 0.536,-0.147C0.523,-0.113 0.506,-0.084 0.483,-0.061C0.46,-0.038 0.433,-0.02 0.401,-0.007C0.369,0.006 0.334,0.012 0.295,0.012C0.281,0.012 0.269,0.012 0.258,0.011C0.247,0.01 0.237,0.008 0.228,0.007C0.219,0.005 0.21,0.003 0.201,-0C0.192,-0.003 0.183,-0.006 0.173,-0.01L0.173,0.2L0.096,0.2L0.096,-0.325ZM0.326,-0.439C0.306,-0.439 0.287,-0.435 0.27,-0.428C0.252,-0.421 0.236,-0.411 0.223,-0.399C0.209,-0.387 0.198,-0.374 0.189,-0.359C0.18,-0.344 0.175,-0.33 0.173,-0.315L0.173,-0.087C0.188,-0.077 0.204,-0.069 0.223,-0.064C0.241,-0.058 0.265,-0.055 0.295,-0.055C0.348,-0.055 0.391,-0.073 0.423,-0.108C0.455,-0.142 0.471,-0.194 0.471,-0.261C0.471,-0.318 0.46,-0.362 0.438,-0.393C0.415,-0.424 0.378,-0.439 0.326,-0.439Z" style="fill-rule:nonzero;"/>
                </g>
                <g transform="matrix(13.992,0,0,13.992,85.7849,3708.14)">
                    <path d="M0.5,-0.523C0.5,-0.462 0.471,-0.393 0.413,-0.318C0.355,-0.243 0.274,-0.161 0.17,-0.072L0.522,-0.072L0.522,-0L0.078,-0L0.078,-0.072C0.091,-0.084 0.108,-0.1 0.13,-0.119C0.152,-0.138 0.176,-0.16 0.201,-0.184C0.226,-0.207 0.252,-0.233 0.279,-0.26C0.305,-0.287 0.329,-0.315 0.35,-0.344C0.371,-0.373 0.389,-0.401 0.402,-0.43C0.415,-0.459 0.422,-0.486 0.422,-0.513C0.422,-0.553 0.411,-0.585 0.391,-0.608C0.37,-0.631 0.338,-0.642 0.296,-0.642C0.26,-0.642 0.23,-0.638 0.205,-0.63C0.18,-0.622 0.158,-0.61 0.138,-0.595L0.104,-0.65C0.134,-0.671 0.166,-0.687 0.2,-0.697C0.233,-0.707 0.27,-0.712 0.31,-0.712C0.373,-0.712 0.42,-0.695 0.452,-0.661C0.484,-0.627 0.5,-0.581 0.5,-0.523Z" style="fill-rule:nonzero;"/>
                </g>
            </g>
            <g transform="matrix(1,0,0,1,206.169,-69.0128)">
                <g transform="matrix(24,0,0,24,71.3849,3700.15)">
                    <path d="M0.096,-0.325C0.096,-0.331 0.096,-0.339 0.096,-0.349C0.095,-0.358 0.095,-0.368 0.094,-0.379C0.093,-0.389 0.092,-0.399 0.092,-0.409C0.09,-0.419 0.089,-0.428 0.088,-0.435L0.021,-0.435L0.021,-0.5L0.154,-0.5L0.164,-0.43L0.169,-0.43C0.187,-0.453 0.21,-0.473 0.238,-0.489C0.265,-0.504 0.299,-0.512 0.339,-0.512C0.41,-0.512 0.464,-0.492 0.5,-0.453C0.536,-0.414 0.554,-0.349 0.554,-0.26C0.554,-0.218 0.548,-0.18 0.536,-0.147C0.523,-0.113 0.506,-0.084 0.483,-0.061C0.46,-0.038 0.433,-0.02 0.401,-0.007C0.369,0.006 0.334,0.012 0.295,0.012C0.281,0.012 0.269,0.012 0.258,0.011C0.247,0.01 0.237,0.008 0.228,0.007C0.219,0.005 0.21,0.003 0.201,-0C0.192,-0.003 0.183,-0.006 0.173,-0.01L0.173,0.2L0.096,0.2L0.096,-0.325ZM0.326,-0.439C0.306,-0.439 0.287,-0.435 0.27,-0.428C0.252,-0.421 0.236,-0.411 0.223,-0.399C0.209,-0.387 0.198,-0.374 0.189,-0.359C0.18,-0.344 0.175,-0.33 0.173,-0.315L0.173,-0.087C0.188,-0.077 0.204,-0.069 0.223,-0.064C0.241,-0.058 0.265,-0.055 0.295,-0.055C0.348,-0.055 0.391,-0.073 0.423,-0.108C0.455,-0.142 0.471,-0.194 0.471,-0.261C0.471,-0.318 0.46,-0.362 0.438,-0.393C0.415,-0.424 0.378,-0.439 0.326,-0.439Z" style="fill-rule:nonzero;"/>
                </g>
                <g transform="matrix(13.992,0,0,13.992,85.7849,3708.14)">
                    <path d="M0.248,-0.057C0.275,-0.057 0.299,-0.061 0.322,-0.068C0.344,-0.075 0.363,-0.084 0.38,-0.097C0.397,-0.11 0.41,-0.125 0.419,-0.143C0.428,-0.161 0.433,-0.181 0.433,-0.203C0.433,-0.249 0.417,-0.282 0.385,-0.302C0.352,-0.321 0.309,-0.331 0.254,-0.331L0.19,-0.331L0.19,-0.379L0.387,-0.628L0.088,-0.628L0.088,-0.7L0.483,-0.7L0.483,-0.628L0.286,-0.397L0.302,-0.397C0.333,-0.397 0.361,-0.393 0.386,-0.384C0.411,-0.375 0.433,-0.363 0.452,-0.347C0.471,-0.331 0.485,-0.312 0.496,-0.289C0.506,-0.266 0.511,-0.241 0.511,-0.212C0.511,-0.176 0.504,-0.144 0.49,-0.116C0.476,-0.088 0.457,-0.065 0.433,-0.046C0.409,-0.027 0.381,-0.012 0.349,-0.003C0.316,0.007 0.282,0.012 0.245,0.012C0.211,0.012 0.182,0.01 0.157,0.005C0.132,-0 0.109,-0.007 0.088,-0.014L0.108,-0.084C0.125,-0.076 0.146,-0.07 0.169,-0.065C0.192,-0.059 0.219,-0.057 0.248,-0.057Z" style="fill-rule:nonzero;"/>
                </g>
            </g>
            <g transform="matrix(1,0,0,1,240.251,3.14888)">
                <g transform="matrix(24,0,0,24,71.3849,3700.15)">
                    <path d="M0.096,-0.325C0.096,-0.331 0.096,-0.339 0.096,-0.349C0.095,-0.358 0.095,-0.368 0.094,-0.379C0.093,-0.389 0.092,-0.399 0.092,-0.409C0.09,-0.419 0.089,-0.428 0.088,-0.435L0.021,-0.435L0.021,-0.5L0.154,-0.5L0.164,-0.43L0.169,-0.43C0.187,-0.453 0.21,-0.473 0.238,-0.489C0.265,-0.504 0.299,-0.512 0.339,-0.512C0.41,-0.512 0.464,-0.492 0.5,-0.453C0.536,-0.414 0.554,-0.349 0.554,-0.26C0.554,-0.218 0.548,-0.18 0.536,-0.147C0.523,-0.113 0.506,-0.084 0.483,-0.061C0.46,-0.038 0.433,-0.02 0.401,-0.007C0.369,0.006 0.334,0.012 0.295,0.012C0.281,0.012 0.269,0.012 0.258,0.011C0.247,0.01 0.237,0.008 0.228,0.007C0.219,0.005 0.21,0.003 0.201,-0C0.192,-0.003 0.183,-0.006 0.173,-0.01L0.173,0.2L0.096,0.2L0.096,-0.325ZM0.326,-0.439C0.306,-0.439 0.287,-0.435 0.27,-0.428C0.252,-0.421 0.236,-0.411 0.223,-0.399C0.209,-0.387 0.198,-0.374 0.189,-0.359C0.18,-0.344 0.175,-0.33 0.173,-0.315L0.173,-0.087C0.188,-0.077 0.204,-0.069 0.223,-0.064C0.241,-0.058 0.265,-0.055 0.295,-0.055C0.348,-0.055 0.391,-0.073 0.423,-0.108C0.455,-0.142 0.471,-0.194 0.471,-0.261C0.471,-0.318 0.46,-0.362 0.438,-0.393C0.415,-0.424 0.378,-0.439 0.326,-0.439Z" style="fill-rule:nonzero;"/>
                </g>
                <g transform="matrix(13.992,0,0,13.992,85.7849,3708.14)">
                    <path d="M0.58,-0.218L0.445,-0.218L0.445,-0L0.367,-0L0.367,-0.218L0.044,-0.218L0.044,-0.276L0.379,-0.7L0.445,-0.7L0.445,-0.284L0.58,-0.284L0.58,-0.218ZM0.367,-0.575L0.136,-0.284L0.367,-0.284L0.367,-0.575Z" style="fill-rule:nonzero;"/>
                </g>
            </g>
            <g transform="matrix(1,0,0,1,194.832,65.481)">
                <g transform="matrix(24,0,0,24,71.3849,3700.15)">
                    <path d="M0.096,-0.325C0.096,-0.331 0.096,-0.339 0.096,-0.349C0.095,-0.358 0.095,-0.368 0.094,-0.379C0.093,-0.389 0.092,-0.399 0.092,-0.409C0.09,-0.419 0.089,-0.428 0.088,-0.435L0.021,-0.435L0.021,-0.5L0.154,-0.5L0.164,-0.43L0.169,-0.43C0.187,-0.453 0.21,-0.473 0.238,-0.489C0.265,-0.504 0.299,-0.512 0.339,-0.512C0.41,-0.512 0.464,-0.492 0.5,-0.453C0.536,-0.414 0.554,-0.349 0.554,-0.26C0.554,-0.218 0.548,-0.18 0.536,-0.147C0.523,-0.113 0.506,-0.084 0.483,-0.061C0.46,-0.038 0.433,-0.02 0.401,-0.007C0.369,0.006 0.334,0.012 0.295,0.012C0.281,0.012 0.269,0.012 0.258,0.011C0.247,0.01 0.237,0.008 0.228,0.007C0.219,0.005 0.21,0.003 0.201,-0C0.192,-0.003 0.183,-0.006 0.173,-0.01L0.173,0.2L0.096,0.2L0.096,-0.325ZM0.326,-0.439C0.306,-0.439 0.287,-0.435 0.27,-0.428C0.252,-0.421 0.236,-0.411 0.223,-0.399C0.209,-0.387 0.198,-0.374 0.189,-0.359C0.18,-0.344 0.175,-0.33 0.173,-0.315L0.173,-0.087C0.188,-0.077 0.204,-0.069 0.223,-0.064C0.241,-0.058 0.265,-0.055 0.295,-0.055C0.348,-0.055 0.391,-0.073 0.423,-0.108C0.455,-0.142 0.471,-0.194 0.471,-0.261C0.471,-0.318 0.46,-0.362 0.438,-0.393C0.415,-0.424 0.378,-0.439 0.326,-0.439Z" style="fill-rule:nonzero;"/>
                </g>
                <g transform="matrix(13.992,0,0,13.992,85.7849,3708.14)">
                    <path d="M0.256,-0.058C0.281,-0.058 0.305,-0.061 0.326,-0.068C0.347,-0.074 0.366,-0.084 0.381,-0.097C0.396,-0.11 0.407,-0.126 0.416,-0.145C0.424,-0.164 0.428,-0.187 0.428,-0.213C0.428,-0.261 0.411,-0.298 0.377,-0.323C0.342,-0.347 0.295,-0.36 0.236,-0.36L0.142,-0.355L0.142,-0.7L0.485,-0.7L0.485,-0.628L0.217,-0.628L0.217,-0.425L0.267,-0.427C0.341,-0.427 0.399,-0.409 0.442,-0.373C0.485,-0.337 0.506,-0.286 0.506,-0.219C0.506,-0.182 0.5,-0.149 0.487,-0.12C0.474,-0.091 0.456,-0.067 0.433,-0.048C0.41,-0.028 0.384,-0.013 0.353,-0.003C0.321,0.007 0.288,0.012 0.251,0.012C0.231,0.012 0.212,0.011 0.194,0.008C0.176,0.005 0.16,0.001 0.145,-0.004C0.13,-0.008 0.117,-0.013 0.107,-0.018C0.095,-0.023 0.088,-0.027 0.083,-0.031L0.115,-0.096C0.126,-0.089 0.144,-0.081 0.167,-0.072C0.19,-0.063 0.22,-0.058 0.256,-0.058Z" style="fill-rule:nonzero;"/>
                </g>
            </g>
            <g transform="matrix(1,0,0,1,129.535,75.7049)">
                <g transform="matrix(24,0,0,24,71.3849,3700.15)">
                    <path d="M0.096,-0.325C0.096,-0.331 0.096,-0.339 0.096,-0.349C0.095,-0.358 0.095,-0.368 0.094,-0.379C0.093,-0.389 0.092,-0.399 0.092,-0.409C0.09,-0.419 0.089,-0.428 0.088,-0.435L0.021,-0.435L0.021,-0.5L0.154,-0.5L0.164,-0.43L0.169,-0.43C0.187,-0.453 0.21,-0.473 0.238,-0.489C0.265,-0.504 0.299,-0.512 0.339,-0.512C0.41,-0.512 0.464,-0.492 0.5,-0.453C0.536,-0.414 0.554,-0.349 0.554,-0.26C0.554,-0.218 0.548,-0.18 0.536,-0.147C0.523,-0.113 0.506,-0.084 0.483,-0.061C0.46,-0.038 0.433,-0.02 0.401,-0.007C0.369,0.006 0.334,0.012 0.295,0.012C0.281,0.012 0.269,0.012 0.258,0.011C0.247,0.01 0.237,0.008 0.228,0.007C0.219,0.005 0.21,0.003 0.201,-0C0.192,-0.003 0.183,-0.006 0.173,-0.01L0.173,0.2L0.096,0.2L0.096,-0.325ZM0.326,-0.439C0.306,-0.439 0.287,-0.435 0.27,-0.428C0.252,-0.421 0.236,-0.411 0.223,-0.399C0.209,-0.387 0.198,-0.374 0.189,-0.359C0.18,-0.344 0.175,-0.33 0.173,-0.315L0.173,-0.087C0.188,-0.077 0.204,-0.069 0.223,-0.064C0.241,-0.058 0.265,-0.055 0.295,-0.055C0.348,-0.055 0.391,-0.073 0.423,-0.108C0.455,-0.142 0.471,-0.194 0.471,-0.261C0.471,-0.318 0.46,-0.362 0.438,-0.393C0.415,-0.424 0.378,-0.439 0.326,-0.439Z" style="fill-rule:nonzero;"/>
                </g>
                <g transform="matrix(13.992,0,0,13.992,85.7849,3708.14)">
                    <path d="M0.539,-0.211C0.539,-0.182 0.534,-0.155 0.524,-0.128C0.513,-0.101 0.498,-0.078 0.478,-0.057C0.458,-0.036 0.433,-0.02 0.404,-0.007C0.375,0.006 0.341,0.012 0.302,0.012C0.266,0.012 0.233,0.006 0.204,-0.005C0.175,-0.016 0.149,-0.033 0.128,-0.054C0.107,-0.075 0.09,-0.1 0.079,-0.131C0.067,-0.162 0.061,-0.196 0.061,-0.234C0.061,-0.297 0.07,-0.356 0.089,-0.412C0.107,-0.468 0.133,-0.517 0.166,-0.56C0.199,-0.603 0.238,-0.637 0.284,-0.664C0.329,-0.691 0.379,-0.707 0.434,-0.712L0.448,-0.648C0.406,-0.643 0.368,-0.63 0.333,-0.611C0.298,-0.592 0.267,-0.568 0.241,-0.539C0.215,-0.51 0.194,-0.479 0.178,-0.444C0.161,-0.409 0.151,-0.374 0.146,-0.338C0.151,-0.347 0.159,-0.356 0.17,-0.365C0.18,-0.374 0.192,-0.383 0.207,-0.39C0.221,-0.397 0.237,-0.402 0.255,-0.407C0.272,-0.412 0.291,-0.414 0.312,-0.414C0.347,-0.414 0.379,-0.409 0.407,-0.4C0.435,-0.39 0.459,-0.376 0.479,-0.359C0.498,-0.341 0.513,-0.32 0.524,-0.295C0.534,-0.27 0.539,-0.242 0.539,-0.211ZM0.457,-0.203C0.457,-0.25 0.444,-0.285 0.418,-0.31C0.392,-0.335 0.352,-0.347 0.298,-0.347C0.279,-0.347 0.261,-0.345 0.244,-0.34C0.227,-0.335 0.212,-0.329 0.199,-0.322C0.186,-0.314 0.174,-0.305 0.164,-0.295C0.154,-0.285 0.146,-0.275 0.141,-0.265C0.14,-0.256 0.139,-0.248 0.139,-0.243L0.139,-0.224C0.139,-0.204 0.142,-0.184 0.149,-0.164C0.156,-0.143 0.166,-0.125 0.18,-0.109C0.193,-0.093 0.21,-0.08 0.231,-0.07C0.252,-0.06 0.276,-0.055 0.304,-0.055C0.327,-0.055 0.347,-0.059 0.366,-0.067C0.385,-0.075 0.401,-0.086 0.415,-0.099C0.428,-0.112 0.439,-0.128 0.446,-0.146C0.453,-0.164 0.457,-0.183 0.457,-0.203Z" style="fill-rule:nonzero;"/>
                </g>
            </g>
            <g transform="matrix(1,-0,-0,1,80,3538)">
                <path d="M17,37.4L11,25.4L5,37.4L17,37.4Z"/>
                <path d="M280.6,277L292.6,283L280.6,289L280.6,277Z"/>
                <path d="M11,35L11,283L283,283" style="fill:none;stroke:black;stroke-width:2px;stroke-linecap:square;stroke-linejoin:miter;"/>
            </g>
            <g transform="matrix(0.642194,0,0,0.642194,53.0296,1328.04)">
                <circle cx="148.208" cy="3711.62" r="8.384" style="fill:white;stroke:black;stroke-width:4.67px;stroke-linecap:square;stroke-linejoin:miter;"/>
            </g>
            <g transform="matrix(0.642194,0,0,0.642194,77.5934,1271.38)">
                <circle cx="148.208" cy="3711.62" r="8.384" style="fill:white;stroke:black;stroke-width:4.67px;stroke-linecap:square;stroke-linejoin:miter;"/>
            </g>
            <g transform="matrix(0.642194,0,0,0.642194,137.408,1242.67)">
                <circle cx="148.208" cy="3711.62" r="8.384" style="fill:white;stroke:black;stroke-width:4.67px;stroke-linecap:square;stroke-linejoin:miter;"/>
            </g>
            <g transform="matrix(0.642194,0,0,0.642194,176.927,1255.92)">
                <circle cx="148.208" cy="3711.62" r="8.384" style="fill:white;stroke:black;stroke-width:4.67px;stroke-linecap:square;stroke-linejoin:miter;"/>
            </g>
            <g transform="matrix(0.642194,0,0,0.642194,207.061,1316.44)">
                <circle cx="148.208" cy="3711.62" r="8.384" style="fill:white;stroke:black;stroke-width:4.67px;stroke-linecap:square;stroke-linejoin:miter;"/>
            </g>
            <g transform="matrix(0.642194,0,0,0.642194,162.403,1360.56)">
                <circle cx="148.208" cy="3711.62" r="8.384" style="fill:white;stroke:black;stroke-width:4.67px;stroke-linecap:square;stroke-linejoin:miter;"/>
            </g>
            <g transform="matrix(0.642194,0,0,0.642194,101.426,1371.26)">
                <circle cx="148.208" cy="3711.62" r="8.384" style="fill:white;stroke:black;stroke-width:4.67px;stroke-linecap:square;stroke-linejoin:miter;"/>
            </g>
        </g>
    </g>
</svg>
