<?xml version="1.0" encoding="UTF-8" standalone="no"?>
<!DOCTYPE svg PUBLIC "-//W3C//DTD SVG 1.1//EN" "http://www.w3.org/Graphics/SVG/1.1/DTD/svg11.dtd">
<svg width="100%" height="100%" viewBox="0 0 1008 484" version="1.1" xmlns="http://www.w3.org/2000/svg" xmlns:xlink="http://www.w3.org/1999/xlink" xml:space="preserve" xmlns:serif="http://www.serif.com/" style="fill-rule:evenodd;clip-rule:evenodd;stroke-linecap:square;stroke-linejoin:round;stroke-miterlimit:10;">
    <rect id="Geometric-Operations" serif:id="Geometric Operations" x="-4983" y="-1403" width="6739" height="2861" style="fill:none;"/>
    <g id="Geometric-Operations1" serif:id="Geometric Operations">
        <path d="M35.259,284.593L115.92,59.967L353.52,108.488L397.907,313.315L209.644,416.727L35.259,284.593Z" style="fill:rgb(217,217,217);stroke:black;stroke-width:5px;"/>
        <path d="M637.906,286.378L718.567,61.753L956.167,110.274L813.554,232.101L812.291,418.513L637.906,286.378Z" style="fill:rgb(217,217,217);stroke:black;stroke-width:5px;"/>
        <g transform="matrix(1,0,0,1,-368.571,-1711.97)">
            <g transform="matrix(48,0,0,48,368.503,1953.88)">
                <path d="M0.057,-0.5L0.152,-0.5L0.167,-0.44L0.171,-0.44C0.188,-0.465 0.209,-0.484 0.233,-0.496C0.256,-0.508 0.285,-0.514 0.319,-0.514C0.382,-0.514 0.429,-0.494 0.46,-0.455C0.491,-0.415 0.507,-0.351 0.507,-0.263C0.507,-0.22 0.502,-0.182 0.492,-0.148C0.482,-0.113 0.467,-0.084 0.448,-0.06C0.428,-0.036 0.404,-0.018 0.376,-0.005C0.347,0.008 0.315,0.014 0.278,0.014C0.257,0.014 0.24,0.012 0.227,0.01C0.214,0.007 0.2,0.002 0.187,-0.005L0.187,0.2L0.057,0.2L0.057,-0.5ZM0.28,-0.404C0.255,-0.404 0.235,-0.398 0.221,-0.385C0.206,-0.372 0.195,-0.353 0.187,-0.328L0.187,-0.12C0.196,-0.113 0.207,-0.107 0.218,-0.103C0.229,-0.098 0.243,-0.096 0.261,-0.096C0.298,-0.096 0.326,-0.109 0.345,-0.136C0.364,-0.162 0.373,-0.205 0.373,-0.266C0.373,-0.31 0.366,-0.344 0.351,-0.368C0.336,-0.392 0.313,-0.404 0.28,-0.404Z" style="fill-rule:nonzero;"/>
            </g>
            <g transform="matrix(27.984,0,0,27.984,394.423,1969.87)">
                <path d="M0.04,-0.351C0.04,-0.474 0.061,-0.565 0.103,-0.625C0.145,-0.684 0.205,-0.714 0.284,-0.714C0.368,-0.714 0.43,-0.685 0.469,-0.626C0.508,-0.567 0.528,-0.475 0.528,-0.351C0.528,-0.228 0.507,-0.136 0.465,-0.076C0.422,-0.016 0.362,0.014 0.283,0.014C0.2,0.014 0.138,-0.018 0.099,-0.081C0.06,-0.144 0.04,-0.234 0.04,-0.351ZM0.17,-0.351C0.17,-0.27 0.179,-0.207 0.197,-0.163C0.214,-0.118 0.243,-0.096 0.284,-0.096C0.323,-0.096 0.352,-0.116 0.371,-0.157C0.389,-0.198 0.398,-0.262 0.398,-0.351C0.398,-0.432 0.389,-0.494 0.372,-0.538C0.355,-0.582 0.325,-0.604 0.283,-0.604C0.243,-0.604 0.214,-0.583 0.197,-0.542C0.179,-0.501 0.17,-0.437 0.17,-0.351Z" style="fill-rule:nonzero;"/>
            </g>
        </g>
        <g transform="matrix(1,0,0,1,234.076,-1710.19)">
            <g transform="matrix(48,0,0,48,368.503,1953.88)">
                <path d="M0.057,-0.5L0.152,-0.5L0.167,-0.44L0.171,-0.44C0.188,-0.465 0.209,-0.484 0.233,-0.496C0.256,-0.508 0.285,-0.514 0.319,-0.514C0.382,-0.514 0.429,-0.494 0.46,-0.455C0.491,-0.415 0.507,-0.351 0.507,-0.263C0.507,-0.22 0.502,-0.182 0.492,-0.148C0.482,-0.113 0.467,-0.084 0.448,-0.06C0.428,-0.036 0.404,-0.018 0.376,-0.005C0.347,0.008 0.315,0.014 0.278,0.014C0.257,0.014 0.24,0.012 0.227,0.01C0.214,0.007 0.2,0.002 0.187,-0.005L0.187,0.2L0.057,0.2L0.057,-0.5ZM0.28,-0.404C0.255,-0.404 0.235,-0.398 0.221,-0.385C0.206,-0.372 0.195,-0.353 0.187,-0.328L0.187,-0.12C0.196,-0.113 0.207,-0.107 0.218,-0.103C0.229,-0.098 0.243,-0.096 0.261,-0.096C0.298,-0.096 0.326,-0.109 0.345,-0.136C0.364,-0.162 0.373,-0.205 0.373,-0.266C0.373,-0.31 0.366,-0.344 0.351,-0.368C0.336,-0.392 0.313,-0.404 0.28,-0.404Z" style="fill-rule:nonzero;"/>
            </g>
            <g transform="matrix(27.984,0,0,27.984,394.423,1969.87)">
                <path d="M0.04,-0.351C0.04,-0.474 0.061,-0.565 0.103,-0.625C0.145,-0.684 0.205,-0.714 0.284,-0.714C0.368,-0.714 0.43,-0.685 0.469,-0.626C0.508,-0.567 0.528,-0.475 0.528,-0.351C0.528,-0.228 0.507,-0.136 0.465,-0.076C0.422,-0.016 0.362,0.014 0.283,0.014C0.2,0.014 0.138,-0.018 0.099,-0.081C0.06,-0.144 0.04,-0.234 0.04,-0.351ZM0.17,-0.351C0.17,-0.27 0.179,-0.207 0.197,-0.163C0.214,-0.118 0.243,-0.096 0.284,-0.096C0.323,-0.096 0.352,-0.116 0.371,-0.157C0.389,-0.198 0.398,-0.262 0.398,-0.351C0.398,-0.432 0.389,-0.494 0.372,-0.538C0.355,-0.582 0.325,-0.604 0.283,-0.604C0.243,-0.604 0.214,-0.583 0.197,-0.542C0.179,-0.501 0.17,-0.437 0.17,-0.351Z" style="fill-rule:nonzero;"/>
            </g>
        </g>
        <g transform="matrix(1,0,0,1,-303.345,-1923.65)">
            <g transform="matrix(48,0,0,48,368.503,1953.88)">
                <path d="M0.057,-0.5L0.152,-0.5L0.167,-0.44L0.171,-0.44C0.188,-0.465 0.209,-0.484 0.233,-0.496C0.256,-0.508 0.285,-0.514 0.319,-0.514C0.382,-0.514 0.429,-0.494 0.46,-0.455C0.491,-0.415 0.507,-0.351 0.507,-0.263C0.507,-0.22 0.502,-0.182 0.492,-0.148C0.482,-0.113 0.467,-0.084 0.448,-0.06C0.428,-0.036 0.404,-0.018 0.376,-0.005C0.347,0.008 0.315,0.014 0.278,0.014C0.257,0.014 0.24,0.012 0.227,0.01C0.214,0.007 0.2,0.002 0.187,-0.005L0.187,0.2L0.057,0.2L0.057,-0.5ZM0.28,-0.404C0.255,-0.404 0.235,-0.398 0.221,-0.385C0.206,-0.372 0.195,-0.353 0.187,-0.328L0.187,-0.12C0.196,-0.113 0.207,-0.107 0.218,-0.103C0.229,-0.098 0.243,-0.096 0.261,-0.096C0.298,-0.096 0.326,-0.109 0.345,-0.136C0.364,-0.162 0.373,-0.205 0.373,-0.266C0.373,-0.31 0.366,-0.344 0.351,-0.368C0.336,-0.392 0.313,-0.404 0.28,-0.404Z" style="fill-rule:nonzero;"/>
            </g>
            <g transform="matrix(27.984,0,0,27.984,394.423,1969.87)">
                <path d="M0.101,-0.11L0.24,-0.11L0.24,-0.505L0.255,-0.573L0.207,-0.514L0.118,-0.453L0.063,-0.528L0.291,-0.712L0.364,-0.712L0.364,-0.11L0.5,-0.11L0.5,-0L0.101,-0L0.101,-0.11Z" style="fill-rule:nonzero;"/>
            </g>
        </g>
        <g transform="matrix(1,0,0,1,294.302,-1926.38)">
            <g transform="matrix(48,0,0,48,368.503,1953.88)">
                <path d="M0.057,-0.5L0.152,-0.5L0.167,-0.44L0.171,-0.44C0.188,-0.465 0.209,-0.484 0.233,-0.496C0.256,-0.508 0.285,-0.514 0.319,-0.514C0.382,-0.514 0.429,-0.494 0.46,-0.455C0.491,-0.415 0.507,-0.351 0.507,-0.263C0.507,-0.22 0.502,-0.182 0.492,-0.148C0.482,-0.113 0.467,-0.084 0.448,-0.06C0.428,-0.036 0.404,-0.018 0.376,-0.005C0.347,0.008 0.315,0.014 0.278,0.014C0.257,0.014 0.24,0.012 0.227,0.01C0.214,0.007 0.2,0.002 0.187,-0.005L0.187,0.2L0.057,0.2L0.057,-0.5ZM0.28,-0.404C0.255,-0.404 0.235,-0.398 0.221,-0.385C0.206,-0.372 0.195,-0.353 0.187,-0.328L0.187,-0.12C0.196,-0.113 0.207,-0.107 0.218,-0.103C0.229,-0.098 0.243,-0.096 0.261,-0.096C0.298,-0.096 0.326,-0.109 0.345,-0.136C0.364,-0.162 0.373,-0.205 0.373,-0.266C0.373,-0.31 0.366,-0.344 0.351,-0.368C0.336,-0.392 0.313,-0.404 0.28,-0.404Z" style="fill-rule:nonzero;"/>
            </g>
            <g transform="matrix(27.984,0,0,27.984,394.423,1969.87)">
                <path d="M0.101,-0.11L0.24,-0.11L0.24,-0.505L0.255,-0.573L0.207,-0.514L0.118,-0.453L0.063,-0.528L0.291,-0.712L0.364,-0.712L0.364,-0.11L0.5,-0.11L0.5,-0L0.101,-0L0.101,-0.11Z" style="fill-rule:nonzero;"/>
            </g>
        </g>
        <g transform="matrix(1,0,0,1,-2.30879,-1871.92)">
            <g transform="matrix(48,0,0,48,368.503,1953.88)">
                <path d="M0.057,-0.5L0.152,-0.5L0.167,-0.44L0.171,-0.44C0.188,-0.465 0.209,-0.484 0.233,-0.496C0.256,-0.508 0.285,-0.514 0.319,-0.514C0.382,-0.514 0.429,-0.494 0.46,-0.455C0.491,-0.415 0.507,-0.351 0.507,-0.263C0.507,-0.22 0.502,-0.182 0.492,-0.148C0.482,-0.113 0.467,-0.084 0.448,-0.06C0.428,-0.036 0.404,-0.018 0.376,-0.005C0.347,0.008 0.315,0.014 0.278,0.014C0.257,0.014 0.24,0.012 0.227,0.01C0.214,0.007 0.2,0.002 0.187,-0.005L0.187,0.2L0.057,0.2L0.057,-0.5ZM0.28,-0.404C0.255,-0.404 0.235,-0.398 0.221,-0.385C0.206,-0.372 0.195,-0.353 0.187,-0.328L0.187,-0.12C0.196,-0.113 0.207,-0.107 0.218,-0.103C0.229,-0.098 0.243,-0.096 0.261,-0.096C0.298,-0.096 0.326,-0.109 0.345,-0.136C0.364,-0.162 0.373,-0.205 0.373,-0.266C0.373,-0.31 0.366,-0.344 0.351,-0.368C0.336,-0.392 0.313,-0.404 0.28,-0.404Z" style="fill-rule:nonzero;"/>
            </g>
            <g transform="matrix(27.984,0,0,27.984,394.423,1969.87)">
                <path d="M0.475,-0.529C0.475,-0.495 0.469,-0.461 0.457,-0.426C0.444,-0.391 0.429,-0.357 0.41,-0.324C0.391,-0.291 0.37,-0.259 0.347,-0.228C0.324,-0.197 0.301,-0.168 0.279,-0.142L0.226,-0.101L0.226,-0.096L0.298,-0.11L0.49,-0.11L0.49,-0L0.069,-0L0.069,-0.067C0.085,-0.084 0.103,-0.103 0.123,-0.126C0.143,-0.148 0.163,-0.171 0.184,-0.197C0.204,-0.222 0.224,-0.247 0.243,-0.274C0.262,-0.301 0.28,-0.327 0.295,-0.355C0.31,-0.382 0.323,-0.408 0.332,-0.433C0.341,-0.458 0.345,-0.482 0.345,-0.505C0.345,-0.532 0.337,-0.555 0.322,-0.573C0.306,-0.59 0.281,-0.599 0.247,-0.599C0.226,-0.599 0.204,-0.595 0.182,-0.586C0.159,-0.577 0.14,-0.565 0.125,-0.551L0.073,-0.643C0.099,-0.664 0.129,-0.682 0.162,-0.695C0.195,-0.708 0.233,-0.714 0.278,-0.714C0.307,-0.714 0.333,-0.71 0.357,-0.702C0.381,-0.694 0.402,-0.682 0.419,-0.667C0.436,-0.652 0.45,-0.632 0.46,-0.61C0.47,-0.587 0.475,-0.56 0.475,-0.529Z" style="fill-rule:nonzero;"/>
            </g>
        </g>
        <path d="M300.794,294.584L306.494,294.584L307.394,298.184L307.634,298.184C308.674,296.664 309.904,295.544 311.324,294.824C312.744,294.104 314.474,293.744 316.514,293.744C320.274,293.744 323.094,294.934 324.974,297.314C326.854,299.694 327.794,303.524 327.794,308.804C327.794,311.364 327.494,313.674 326.894,315.734C326.294,317.794 325.404,319.544 324.224,320.984C323.044,322.424 321.604,323.524 319.904,324.284C318.204,325.044 316.254,325.424 314.054,325.424C312.814,325.424 311.794,325.334 310.994,325.154C310.194,324.974 309.394,324.684 308.594,324.284L308.594,336.584L300.794,336.584L300.794,294.584ZM314.174,300.344C312.654,300.344 311.464,300.724 310.604,301.484C309.744,302.244 309.074,303.384 308.594,304.904L308.594,317.384C309.154,317.824 309.764,318.174 310.424,318.434C311.084,318.694 311.954,318.824 313.034,318.824C315.274,318.824 316.954,318.034 318.074,316.454C319.194,314.874 319.754,312.264 319.754,308.624C319.754,305.984 319.314,303.944 318.434,302.504C317.554,301.064 316.134,300.344 314.174,300.344Z" style="fill:rgb(21,183,183);fill-rule:nonzero;"/>
        <g transform="matrix(1,0,0,1,-247.709,-1741.5)">
            <g transform="matrix(60,0,0,60,368.503,1953.88)">
                <path d="M0.066,-0.385C0.066,-0.514 0.087,-0.612 0.128,-0.681C0.17,-0.749 0.229,-0.783 0.308,-0.783C0.385,-0.783 0.445,-0.749 0.486,-0.681C0.528,-0.612 0.548,-0.514 0.548,-0.386C0.548,-0.257 0.528,-0.159 0.486,-0.09C0.445,-0.022 0.385,0.012 0.308,0.012C0.227,0.012 0.167,-0.021 0.127,-0.087C0.087,-0.153 0.066,-0.253 0.066,-0.385ZM0.166,-0.428L0.449,-0.428C0.449,-0.51 0.436,-0.578 0.409,-0.631C0.383,-0.684 0.349,-0.711 0.307,-0.711C0.266,-0.711 0.232,-0.684 0.206,-0.631C0.179,-0.578 0.166,-0.51 0.166,-0.428ZM0.449,-0.355L0.166,-0.355C0.166,-0.266 0.179,-0.195 0.205,-0.141C0.23,-0.087 0.264,-0.06 0.307,-0.06C0.348,-0.06 0.382,-0.088 0.409,-0.143C0.435,-0.198 0.449,-0.269 0.449,-0.355Z" style="fill:rgb(21,183,183);fill-rule:nonzero;"/>
            </g>
            <g transform="matrix(34.98,0,0,34.98,405.358,1973.86)">
                <path d="M0.043,-0.35C0.043,-0.47 0.063,-0.56 0.102,-0.621C0.14,-0.682 0.197,-0.712 0.272,-0.712C0.353,-0.712 0.411,-0.682 0.448,-0.623C0.484,-0.563 0.502,-0.472 0.502,-0.35C0.502,-0.23 0.483,-0.14 0.444,-0.079C0.405,-0.018 0.347,0.012 0.272,0.012C0.193,0.012 0.135,-0.02 0.098,-0.083C0.061,-0.146 0.043,-0.235 0.043,-0.35ZM0.126,-0.35C0.126,-0.307 0.129,-0.267 0.135,-0.232C0.14,-0.196 0.149,-0.165 0.161,-0.14C0.173,-0.114 0.188,-0.094 0.207,-0.08C0.225,-0.065 0.247,-0.058 0.272,-0.058C0.323,-0.058 0.36,-0.082 0.384,-0.129C0.407,-0.175 0.419,-0.249 0.419,-0.35C0.419,-0.393 0.417,-0.432 0.412,-0.468C0.407,-0.504 0.398,-0.535 0.387,-0.561C0.375,-0.587 0.36,-0.607 0.341,-0.621C0.322,-0.635 0.299,-0.642 0.272,-0.642C0.222,-0.642 0.185,-0.618 0.162,-0.571C0.138,-0.524 0.126,-0.45 0.126,-0.35Z" style="fill:rgb(21,183,183);fill-rule:nonzero;"/>
            </g>
        </g>
        <g transform="matrix(1,0,0,1,14.5131,-1723.67)">
            <g transform="matrix(60,0,0,60,368.503,1953.88)">
                <path d="M0.066,-0.385C0.066,-0.514 0.087,-0.612 0.128,-0.681C0.17,-0.749 0.229,-0.783 0.308,-0.783C0.385,-0.783 0.445,-0.749 0.486,-0.681C0.528,-0.612 0.548,-0.514 0.548,-0.386C0.548,-0.257 0.528,-0.159 0.486,-0.09C0.445,-0.022 0.385,0.012 0.308,0.012C0.227,0.012 0.167,-0.021 0.127,-0.087C0.087,-0.153 0.066,-0.253 0.066,-0.385ZM0.166,-0.428L0.449,-0.428C0.449,-0.51 0.436,-0.578 0.409,-0.631C0.383,-0.684 0.349,-0.711 0.307,-0.711C0.266,-0.711 0.232,-0.684 0.206,-0.631C0.179,-0.578 0.166,-0.51 0.166,-0.428ZM0.449,-0.355L0.166,-0.355C0.166,-0.266 0.179,-0.195 0.205,-0.141C0.23,-0.087 0.264,-0.06 0.307,-0.06C0.348,-0.06 0.382,-0.088 0.409,-0.143C0.435,-0.198 0.449,-0.269 0.449,-0.355Z" style="fill:rgb(21,183,183);fill-rule:nonzero;"/>
            </g>
            <g transform="matrix(34.98,0,0,34.98,405.358,1973.86)">
                <path d="M0.446,-0.541C0.446,-0.506 0.44,-0.47 0.427,-0.433C0.413,-0.396 0.397,-0.358 0.376,-0.321C0.355,-0.284 0.331,-0.247 0.305,-0.212C0.279,-0.176 0.253,-0.142 0.227,-0.11L0.178,-0.067L0.178,-0.063L0.242,-0.074L0.46,-0.074L0.46,-0L0.062,-0L0.062,-0.029C0.077,-0.044 0.094,-0.063 0.115,-0.086C0.136,-0.109 0.157,-0.134 0.18,-0.162C0.202,-0.189 0.224,-0.219 0.246,-0.25C0.267,-0.28 0.287,-0.312 0.305,-0.344C0.322,-0.376 0.336,-0.408 0.347,-0.439C0.358,-0.47 0.363,-0.5 0.363,-0.528C0.363,-0.561 0.354,-0.588 0.335,-0.61C0.316,-0.631 0.288,-0.642 0.25,-0.642C0.225,-0.642 0.2,-0.637 0.176,-0.627C0.152,-0.616 0.131,-0.604 0.114,-0.591L0.081,-0.648C0.104,-0.668 0.132,-0.684 0.164,-0.695C0.196,-0.706 0.23,-0.712 0.267,-0.712C0.296,-0.712 0.321,-0.708 0.343,-0.7C0.365,-0.691 0.384,-0.679 0.399,-0.664C0.414,-0.649 0.426,-0.631 0.434,-0.61C0.442,-0.588 0.446,-0.566 0.446,-0.541Z" style="fill:rgb(21,183,183);fill-rule:nonzero;"/>
            </g>
        </g>
        <g transform="matrix(1,0,0,1,320.147,-1720.98)">
            <g transform="matrix(60,0,0,60,368.503,1953.88)">
                <path d="M0.066,-0.385C0.066,-0.514 0.087,-0.612 0.128,-0.681C0.17,-0.749 0.229,-0.783 0.308,-0.783C0.385,-0.783 0.445,-0.749 0.486,-0.681C0.528,-0.612 0.548,-0.514 0.548,-0.386C0.548,-0.257 0.528,-0.159 0.486,-0.09C0.445,-0.022 0.385,0.012 0.308,0.012C0.227,0.012 0.167,-0.021 0.127,-0.087C0.087,-0.153 0.066,-0.253 0.066,-0.385ZM0.166,-0.428L0.449,-0.428C0.449,-0.51 0.436,-0.578 0.409,-0.631C0.383,-0.684 0.349,-0.711 0.307,-0.711C0.266,-0.711 0.232,-0.684 0.206,-0.631C0.179,-0.578 0.166,-0.51 0.166,-0.428ZM0.449,-0.355L0.166,-0.355C0.166,-0.266 0.179,-0.195 0.205,-0.141C0.23,-0.087 0.264,-0.06 0.307,-0.06C0.348,-0.06 0.382,-0.088 0.409,-0.143C0.435,-0.198 0.449,-0.269 0.449,-0.355Z" style="fill:rgb(21,183,183);fill-rule:nonzero;"/>
            </g>
            <g transform="matrix(34.98,0,0,34.98,405.358,1973.86)">
                <path d="M0.043,-0.35C0.043,-0.47 0.063,-0.56 0.102,-0.621C0.14,-0.682 0.197,-0.712 0.272,-0.712C0.353,-0.712 0.411,-0.682 0.448,-0.623C0.484,-0.563 0.502,-0.472 0.502,-0.35C0.502,-0.23 0.483,-0.14 0.444,-0.079C0.405,-0.018 0.347,0.012 0.272,0.012C0.193,0.012 0.135,-0.02 0.098,-0.083C0.061,-0.146 0.043,-0.235 0.043,-0.35ZM0.126,-0.35C0.126,-0.307 0.129,-0.267 0.135,-0.232C0.14,-0.196 0.149,-0.165 0.161,-0.14C0.173,-0.114 0.188,-0.094 0.207,-0.08C0.225,-0.065 0.247,-0.058 0.272,-0.058C0.323,-0.058 0.36,-0.082 0.384,-0.129C0.407,-0.175 0.419,-0.249 0.419,-0.35C0.419,-0.393 0.417,-0.432 0.412,-0.468C0.407,-0.504 0.398,-0.535 0.387,-0.561C0.375,-0.587 0.36,-0.607 0.341,-0.621C0.322,-0.635 0.299,-0.642 0.272,-0.642C0.222,-0.642 0.185,-0.618 0.162,-0.571C0.138,-0.524 0.126,-0.45 0.126,-0.35Z" style="fill:rgb(21,183,183);fill-rule:nonzero;"/>
            </g>
        </g>
        <g transform="matrix(1,0,0,1,567.031,-1730.42)">
            <g transform="matrix(60,0,0,60,368.503,1953.88)">
                <path d="M0.066,-0.385C0.066,-0.514 0.087,-0.612 0.128,-0.681C0.17,-0.749 0.229,-0.783 0.308,-0.783C0.385,-0.783 0.445,-0.749 0.486,-0.681C0.528,-0.612 0.548,-0.514 0.548,-0.386C0.548,-0.257 0.528,-0.159 0.486,-0.09C0.445,-0.022 0.385,0.012 0.308,0.012C0.227,0.012 0.167,-0.021 0.127,-0.087C0.087,-0.153 0.066,-0.253 0.066,-0.385ZM0.166,-0.428L0.449,-0.428C0.449,-0.51 0.436,-0.578 0.409,-0.631C0.383,-0.684 0.349,-0.711 0.307,-0.711C0.266,-0.711 0.232,-0.684 0.206,-0.631C0.179,-0.578 0.166,-0.51 0.166,-0.428ZM0.449,-0.355L0.166,-0.355C0.166,-0.266 0.179,-0.195 0.205,-0.141C0.23,-0.087 0.264,-0.06 0.307,-0.06C0.348,-0.06 0.382,-0.088 0.409,-0.143C0.435,-0.198 0.449,-0.269 0.449,-0.355Z" style="fill:rgb(255,0,0);fill-rule:nonzero;"/>
            </g>
            <g transform="matrix(34.98,0,0,34.98,405.358,1973.86)">
                <path d="M0.446,-0.541C0.446,-0.506 0.44,-0.47 0.427,-0.433C0.413,-0.396 0.397,-0.358 0.376,-0.321C0.355,-0.284 0.331,-0.247 0.305,-0.212C0.279,-0.176 0.253,-0.142 0.227,-0.11L0.178,-0.067L0.178,-0.063L0.242,-0.074L0.46,-0.074L0.46,-0L0.062,-0L0.062,-0.029C0.077,-0.044 0.094,-0.063 0.115,-0.086C0.136,-0.109 0.157,-0.134 0.18,-0.162C0.202,-0.189 0.224,-0.219 0.246,-0.25C0.267,-0.28 0.287,-0.312 0.305,-0.344C0.322,-0.376 0.336,-0.408 0.347,-0.439C0.358,-0.47 0.363,-0.5 0.363,-0.528C0.363,-0.561 0.354,-0.588 0.335,-0.61C0.316,-0.631 0.288,-0.642 0.25,-0.642C0.225,-0.642 0.2,-0.637 0.176,-0.627C0.152,-0.616 0.131,-0.604 0.114,-0.591L0.081,-0.648C0.104,-0.668 0.132,-0.684 0.164,-0.695C0.196,-0.706 0.23,-0.712 0.267,-0.712C0.296,-0.712 0.321,-0.708 0.343,-0.7C0.365,-0.691 0.384,-0.679 0.399,-0.664C0.414,-0.649 0.426,-0.631 0.434,-0.61C0.442,-0.588 0.446,-0.566 0.446,-0.541Z" style="fill:rgb(255,0,0);fill-rule:nonzero;"/>
            </g>
        </g>
        <path d="M912.518,296.355L918.218,296.355L919.118,299.955L919.358,299.955C920.398,298.435 921.628,297.315 923.048,296.595C924.468,295.875 926.198,295.515 928.238,295.515C931.998,295.515 934.818,296.705 936.698,299.085C938.578,301.465 939.518,305.295 939.518,310.575C939.518,313.135 939.218,315.445 938.618,317.505C938.018,319.565 937.128,321.315 935.948,322.755C934.768,324.195 933.328,325.295 931.628,326.055C929.928,326.815 927.978,327.195 925.778,327.195C924.538,327.195 923.518,327.105 922.718,326.925C921.918,326.745 921.118,326.455 920.318,326.055L920.318,338.355L912.518,338.355L912.518,296.355ZM925.898,302.115C924.378,302.115 923.188,302.495 922.328,303.255C921.468,304.015 920.798,305.155 920.318,306.675L920.318,319.155C920.878,319.595 921.488,319.945 922.148,320.205C922.808,320.465 923.678,320.595 924.758,320.595C926.998,320.595 928.678,319.805 929.798,318.225C930.918,316.645 931.478,314.035 931.478,310.395C931.478,307.755 931.038,305.715 930.158,304.275C929.278,302.835 927.858,302.115 925.898,302.115Z" style="fill:rgb(255,0,0);fill-rule:nonzero;"/>
        <g transform="matrix(1,0,0,1,597.338,-1865.14)">
            <g transform="matrix(48,0,0,48,368.503,1953.88)">
                <path d="M0.057,-0.5L0.152,-0.5L0.167,-0.44L0.171,-0.44C0.188,-0.465 0.209,-0.484 0.233,-0.496C0.256,-0.508 0.285,-0.514 0.319,-0.514C0.382,-0.514 0.429,-0.494 0.46,-0.455C0.491,-0.415 0.507,-0.351 0.507,-0.263C0.507,-0.22 0.502,-0.182 0.492,-0.148C0.482,-0.113 0.467,-0.084 0.448,-0.06C0.428,-0.036 0.404,-0.018 0.376,-0.005C0.347,0.008 0.315,0.014 0.278,0.014C0.257,0.014 0.24,0.012 0.227,0.01C0.214,0.007 0.2,0.002 0.187,-0.005L0.187,0.2L0.057,0.2L0.057,-0.5ZM0.28,-0.404C0.255,-0.404 0.235,-0.398 0.221,-0.385C0.206,-0.372 0.195,-0.353 0.187,-0.328L0.187,-0.12C0.196,-0.113 0.207,-0.107 0.218,-0.103C0.229,-0.098 0.243,-0.096 0.261,-0.096C0.298,-0.096 0.326,-0.109 0.345,-0.136C0.364,-0.162 0.373,-0.205 0.373,-0.266C0.373,-0.31 0.366,-0.344 0.351,-0.368C0.336,-0.392 0.313,-0.404 0.28,-0.404Z" style="fill-rule:nonzero;"/>
            </g>
            <g transform="matrix(27.984,0,0,27.984,394.423,1969.87)">
                <path d="M0.475,-0.529C0.475,-0.495 0.469,-0.461 0.457,-0.426C0.444,-0.391 0.429,-0.357 0.41,-0.324C0.391,-0.291 0.37,-0.259 0.347,-0.228C0.324,-0.197 0.301,-0.168 0.279,-0.142L0.226,-0.101L0.226,-0.096L0.298,-0.11L0.49,-0.11L0.49,-0L0.069,-0L0.069,-0.067C0.085,-0.084 0.103,-0.103 0.123,-0.126C0.143,-0.148 0.163,-0.171 0.184,-0.197C0.204,-0.222 0.224,-0.247 0.243,-0.274C0.262,-0.301 0.28,-0.327 0.295,-0.355C0.31,-0.382 0.323,-0.408 0.332,-0.433C0.341,-0.458 0.345,-0.482 0.345,-0.505C0.345,-0.532 0.337,-0.555 0.322,-0.573C0.306,-0.59 0.281,-0.599 0.247,-0.599C0.226,-0.599 0.204,-0.595 0.182,-0.586C0.159,-0.577 0.14,-0.565 0.125,-0.551L0.073,-0.643C0.099,-0.664 0.129,-0.682 0.162,-0.695C0.195,-0.708 0.233,-0.714 0.278,-0.714C0.307,-0.714 0.333,-0.71 0.357,-0.702C0.381,-0.694 0.402,-0.682 0.419,-0.667C0.436,-0.652 0.45,-0.632 0.46,-0.61C0.47,-0.587 0.475,-0.56 0.475,-0.529Z" style="fill-rule:nonzero;"/>
            </g>
        </g>
        <g transform="matrix(1,0,0,1,51.9318,-1608.71)">
            <g transform="matrix(48,0,0,48,368.503,1953.88)">
                <path d="M0.057,-0.5L0.152,-0.5L0.167,-0.44L0.171,-0.44C0.188,-0.465 0.209,-0.484 0.233,-0.496C0.256,-0.508 0.285,-0.514 0.319,-0.514C0.382,-0.514 0.429,-0.494 0.46,-0.455C0.491,-0.415 0.507,-0.351 0.507,-0.263C0.507,-0.22 0.502,-0.182 0.492,-0.148C0.482,-0.113 0.467,-0.084 0.448,-0.06C0.428,-0.036 0.404,-0.018 0.376,-0.005C0.347,0.008 0.315,0.014 0.278,0.014C0.257,0.014 0.24,0.012 0.227,0.01C0.214,0.007 0.2,0.002 0.187,-0.005L0.187,0.2L0.057,0.2L0.057,-0.5ZM0.28,-0.404C0.255,-0.404 0.235,-0.398 0.221,-0.385C0.206,-0.372 0.195,-0.353 0.187,-0.328L0.187,-0.12C0.196,-0.113 0.207,-0.107 0.218,-0.103C0.229,-0.098 0.243,-0.096 0.261,-0.096C0.298,-0.096 0.326,-0.109 0.345,-0.136C0.364,-0.162 0.373,-0.205 0.373,-0.266C0.373,-0.31 0.366,-0.344 0.351,-0.368C0.336,-0.392 0.313,-0.404 0.28,-0.404Z" style="fill-rule:nonzero;"/>
            </g>
            <g transform="matrix(27.984,0,0,27.984,394.423,1969.87)">
                <path d="M0.241,-0.096C0.282,-0.096 0.314,-0.107 0.336,-0.129C0.357,-0.151 0.368,-0.178 0.368,-0.209C0.368,-0.247 0.357,-0.275 0.334,-0.293C0.311,-0.311 0.276,-0.32 0.227,-0.32L0.155,-0.32L0.155,-0.389L0.276,-0.554L0.333,-0.599L0.254,-0.59L0.086,-0.59L0.086,-0.7L0.468,-0.7L0.468,-0.629L0.327,-0.44L0.283,-0.413L0.283,-0.408L0.325,-0.414C0.348,-0.412 0.371,-0.407 0.392,-0.398C0.413,-0.389 0.431,-0.377 0.447,-0.361C0.462,-0.344 0.475,-0.324 0.484,-0.3C0.493,-0.276 0.498,-0.248 0.498,-0.217C0.498,-0.178 0.492,-0.144 0.479,-0.115C0.466,-0.086 0.448,-0.062 0.425,-0.043C0.401,-0.024 0.375,-0.009 0.344,-0C0.313,0.009 0.28,0.014 0.245,0.014C0.216,0.014 0.185,0.011 0.154,0.006C0.123,0.001 0.097,-0.007 0.078,-0.017L0.113,-0.125C0.13,-0.116 0.15,-0.109 0.171,-0.104C0.192,-0.099 0.215,-0.096 0.241,-0.096Z" style="fill-rule:nonzero;"/>
            </g>
        </g>
        <g transform="matrix(1,0,0,1,387.267,-1730.12)">
            <g transform="matrix(48,0,0,48,368.503,1953.88)">
                <path d="M0.057,-0.5L0.152,-0.5L0.167,-0.44L0.171,-0.44C0.188,-0.465 0.209,-0.484 0.233,-0.496C0.256,-0.508 0.285,-0.514 0.319,-0.514C0.382,-0.514 0.429,-0.494 0.46,-0.455C0.491,-0.415 0.507,-0.351 0.507,-0.263C0.507,-0.22 0.502,-0.182 0.492,-0.148C0.482,-0.113 0.467,-0.084 0.448,-0.06C0.428,-0.036 0.404,-0.018 0.376,-0.005C0.347,0.008 0.315,0.014 0.278,0.014C0.257,0.014 0.24,0.012 0.227,0.01C0.214,0.007 0.2,0.002 0.187,-0.005L0.187,0.2L0.057,0.2L0.057,-0.5ZM0.28,-0.404C0.255,-0.404 0.235,-0.398 0.221,-0.385C0.206,-0.372 0.195,-0.353 0.187,-0.328L0.187,-0.12C0.196,-0.113 0.207,-0.107 0.218,-0.103C0.229,-0.098 0.243,-0.096 0.261,-0.096C0.298,-0.096 0.326,-0.109 0.345,-0.136C0.364,-0.162 0.373,-0.205 0.373,-0.266C0.373,-0.31 0.366,-0.344 0.351,-0.368C0.336,-0.392 0.313,-0.404 0.28,-0.404Z" style="fill-rule:nonzero;"/>
            </g>
            <g transform="matrix(27.984,0,0,27.984,394.423,1969.87)">
                <path d="M0.241,-0.096C0.282,-0.096 0.314,-0.107 0.336,-0.129C0.357,-0.151 0.368,-0.178 0.368,-0.209C0.368,-0.247 0.357,-0.275 0.334,-0.293C0.311,-0.311 0.276,-0.32 0.227,-0.32L0.155,-0.32L0.155,-0.389L0.276,-0.554L0.333,-0.599L0.254,-0.59L0.086,-0.59L0.086,-0.7L0.468,-0.7L0.468,-0.629L0.327,-0.44L0.283,-0.413L0.283,-0.408L0.325,-0.414C0.348,-0.412 0.371,-0.407 0.392,-0.398C0.413,-0.389 0.431,-0.377 0.447,-0.361C0.462,-0.344 0.475,-0.324 0.484,-0.3C0.493,-0.276 0.498,-0.248 0.498,-0.217C0.498,-0.178 0.492,-0.144 0.479,-0.115C0.466,-0.086 0.448,-0.062 0.425,-0.043C0.401,-0.024 0.375,-0.009 0.344,-0C0.313,0.009 0.28,0.014 0.245,0.014C0.216,0.014 0.185,0.011 0.154,0.006C0.123,0.001 0.097,-0.007 0.078,-0.017L0.113,-0.125C0.13,-0.116 0.15,-0.109 0.171,-0.104C0.192,-0.099 0.215,-0.096 0.241,-0.096Z" style="fill-rule:nonzero;"/>
            </g>
        </g>
        <g transform="matrix(1,0,0,1,-172.024,-1489.16)">
            <g transform="matrix(48,0,0,48,368.503,1953.88)">
                <path d="M0.057,-0.5L0.152,-0.5L0.167,-0.44L0.171,-0.44C0.188,-0.465 0.209,-0.484 0.233,-0.496C0.256,-0.508 0.285,-0.514 0.319,-0.514C0.382,-0.514 0.429,-0.494 0.46,-0.455C0.491,-0.415 0.507,-0.351 0.507,-0.263C0.507,-0.22 0.502,-0.182 0.492,-0.148C0.482,-0.113 0.467,-0.084 0.448,-0.06C0.428,-0.036 0.404,-0.018 0.376,-0.005C0.347,0.008 0.315,0.014 0.278,0.014C0.257,0.014 0.24,0.012 0.227,0.01C0.214,0.007 0.2,0.002 0.187,-0.005L0.187,0.2L0.057,0.2L0.057,-0.5ZM0.28,-0.404C0.255,-0.404 0.235,-0.398 0.221,-0.385C0.206,-0.372 0.195,-0.353 0.187,-0.328L0.187,-0.12C0.196,-0.113 0.207,-0.107 0.218,-0.103C0.229,-0.098 0.243,-0.096 0.261,-0.096C0.298,-0.096 0.326,-0.109 0.345,-0.136C0.364,-0.162 0.373,-0.205 0.373,-0.266C0.373,-0.31 0.366,-0.344 0.351,-0.368C0.336,-0.392 0.313,-0.404 0.28,-0.404Z" style="fill-rule:nonzero;"/>
            </g>
            <g transform="matrix(27.984,0,0,27.984,394.423,1969.87)">
                <path d="M0.553,-0.195L0.443,-0.195L0.443,-0L0.322,-0L0.322,-0.195L0.019,-0.195L0.019,-0.269L0.336,-0.705L0.443,-0.705L0.443,-0.299L0.553,-0.299L0.553,-0.195ZM0.322,-0.452L0.331,-0.536L0.327,-0.536L0.293,-0.464L0.189,-0.329L0.139,-0.291L0.203,-0.299L0.322,-0.299L0.322,-0.452Z" style="fill-rule:nonzero;"/>
            </g>
        </g>
        <g transform="matrix(1,0,0,1,430.432,-1489.16)">
            <g transform="matrix(48,0,0,48,368.503,1953.88)">
                <path d="M0.057,-0.5L0.152,-0.5L0.167,-0.44L0.171,-0.44C0.188,-0.465 0.209,-0.484 0.233,-0.496C0.256,-0.508 0.285,-0.514 0.319,-0.514C0.382,-0.514 0.429,-0.494 0.46,-0.455C0.491,-0.415 0.507,-0.351 0.507,-0.263C0.507,-0.22 0.502,-0.182 0.492,-0.148C0.482,-0.113 0.467,-0.084 0.448,-0.06C0.428,-0.036 0.404,-0.018 0.376,-0.005C0.347,0.008 0.315,0.014 0.278,0.014C0.257,0.014 0.24,0.012 0.227,0.01C0.214,0.007 0.2,0.002 0.187,-0.005L0.187,0.2L0.057,0.2L0.057,-0.5ZM0.28,-0.404C0.255,-0.404 0.235,-0.398 0.221,-0.385C0.206,-0.372 0.195,-0.353 0.187,-0.328L0.187,-0.12C0.196,-0.113 0.207,-0.107 0.218,-0.103C0.229,-0.098 0.243,-0.096 0.261,-0.096C0.298,-0.096 0.326,-0.109 0.345,-0.136C0.364,-0.162 0.373,-0.205 0.373,-0.266C0.373,-0.31 0.366,-0.344 0.351,-0.368C0.336,-0.392 0.313,-0.404 0.28,-0.404Z" style="fill-rule:nonzero;"/>
            </g>
            <g transform="matrix(27.984,0,0,27.984,394.423,1969.87)">
                <path d="M0.553,-0.195L0.443,-0.195L0.443,-0L0.322,-0L0.322,-0.195L0.019,-0.195L0.019,-0.269L0.336,-0.705L0.443,-0.705L0.443,-0.299L0.553,-0.299L0.553,-0.195ZM0.322,-0.452L0.331,-0.536L0.327,-0.536L0.293,-0.464L0.189,-0.329L0.139,-0.291L0.203,-0.299L0.322,-0.299L0.322,-0.452Z" style="fill-rule:nonzero;"/>
            </g>
        </g>
        <g transform="matrix(1,0,0,1,-368.963,-1623.61)">
            <g transform="matrix(48,0,0,48,368.503,1953.88)">
                <path d="M0.057,-0.5L0.152,-0.5L0.167,-0.44L0.171,-0.44C0.188,-0.465 0.209,-0.484 0.233,-0.496C0.256,-0.508 0.285,-0.514 0.319,-0.514C0.382,-0.514 0.429,-0.494 0.46,-0.455C0.491,-0.415 0.507,-0.351 0.507,-0.263C0.507,-0.22 0.502,-0.182 0.492,-0.148C0.482,-0.113 0.467,-0.084 0.448,-0.06C0.428,-0.036 0.404,-0.018 0.376,-0.005C0.347,0.008 0.315,0.014 0.278,0.014C0.257,0.014 0.24,0.012 0.227,0.01C0.214,0.007 0.2,0.002 0.187,-0.005L0.187,0.2L0.057,0.2L0.057,-0.5ZM0.28,-0.404C0.255,-0.404 0.235,-0.398 0.221,-0.385C0.206,-0.372 0.195,-0.353 0.187,-0.328L0.187,-0.12C0.196,-0.113 0.207,-0.107 0.218,-0.103C0.229,-0.098 0.243,-0.096 0.261,-0.096C0.298,-0.096 0.326,-0.109 0.345,-0.136C0.364,-0.162 0.373,-0.205 0.373,-0.266C0.373,-0.31 0.366,-0.344 0.351,-0.368C0.336,-0.392 0.313,-0.404 0.28,-0.404Z" style="fill-rule:nonzero;"/>
            </g>
            <g transform="matrix(27.984,0,0,27.984,394.423,1969.87)">
                <path d="M0.22,-0.101C0.264,-0.101 0.298,-0.112 0.321,-0.133C0.344,-0.154 0.356,-0.184 0.356,-0.221C0.356,-0.261 0.342,-0.29 0.315,-0.309C0.288,-0.328 0.249,-0.337 0.198,-0.337L0.119,-0.334L0.119,-0.7L0.463,-0.7L0.463,-0.578L0.231,-0.578L0.231,-0.443L0.272,-0.447C0.305,-0.446 0.334,-0.44 0.361,-0.429C0.387,-0.418 0.409,-0.404 0.428,-0.385C0.447,-0.366 0.461,-0.342 0.471,-0.316C0.481,-0.289 0.486,-0.258 0.486,-0.225C0.486,-0.186 0.479,-0.151 0.466,-0.121C0.453,-0.091 0.434,-0.066 0.411,-0.046C0.387,-0.026 0.359,-0.011 0.327,-0.001C0.295,0.009 0.26,0.014 0.222,0.014C0.192,0.014 0.164,0.012 0.137,0.007C0.11,0.002 0.087,-0.005 0.068,-0.014L0.103,-0.122C0.118,-0.115 0.135,-0.11 0.154,-0.107C0.172,-0.103 0.194,-0.101 0.22,-0.101Z" style="fill-rule:nonzero;"/>
            </g>
        </g>
        <g transform="matrix(1,0,0,1,236.256,-1623.61)">
            <g transform="matrix(48,0,0,48,368.503,1953.88)">
                <path d="M0.057,-0.5L0.152,-0.5L0.167,-0.44L0.171,-0.44C0.188,-0.465 0.209,-0.484 0.233,-0.496C0.256,-0.508 0.285,-0.514 0.319,-0.514C0.382,-0.514 0.429,-0.494 0.46,-0.455C0.491,-0.415 0.507,-0.351 0.507,-0.263C0.507,-0.22 0.502,-0.182 0.492,-0.148C0.482,-0.113 0.467,-0.084 0.448,-0.06C0.428,-0.036 0.404,-0.018 0.376,-0.005C0.347,0.008 0.315,0.014 0.278,0.014C0.257,0.014 0.24,0.012 0.227,0.01C0.214,0.007 0.2,0.002 0.187,-0.005L0.187,0.2L0.057,0.2L0.057,-0.5ZM0.28,-0.404C0.255,-0.404 0.235,-0.398 0.221,-0.385C0.206,-0.372 0.195,-0.353 0.187,-0.328L0.187,-0.12C0.196,-0.113 0.207,-0.107 0.218,-0.103C0.229,-0.098 0.243,-0.096 0.261,-0.096C0.298,-0.096 0.326,-0.109 0.345,-0.136C0.364,-0.162 0.373,-0.205 0.373,-0.266C0.373,-0.31 0.366,-0.344 0.351,-0.368C0.336,-0.392 0.313,-0.404 0.28,-0.404Z" style="fill-rule:nonzero;"/>
            </g>
            <g transform="matrix(27.984,0,0,27.984,394.423,1969.87)">
                <path d="M0.22,-0.101C0.264,-0.101 0.298,-0.112 0.321,-0.133C0.344,-0.154 0.356,-0.184 0.356,-0.221C0.356,-0.261 0.342,-0.29 0.315,-0.309C0.288,-0.328 0.249,-0.337 0.198,-0.337L0.119,-0.334L0.119,-0.7L0.463,-0.7L0.463,-0.578L0.231,-0.578L0.231,-0.443L0.272,-0.447C0.305,-0.446 0.334,-0.44 0.361,-0.429C0.387,-0.418 0.409,-0.404 0.428,-0.385C0.447,-0.366 0.461,-0.342 0.471,-0.316C0.481,-0.289 0.486,-0.258 0.486,-0.225C0.486,-0.186 0.479,-0.151 0.466,-0.121C0.453,-0.091 0.434,-0.066 0.411,-0.046C0.387,-0.026 0.359,-0.011 0.327,-0.001C0.295,0.009 0.26,0.014 0.222,0.014C0.192,0.014 0.164,0.012 0.137,0.007C0.11,0.002 0.087,-0.005 0.068,-0.014L0.103,-0.122C0.118,-0.115 0.135,-0.11 0.154,-0.107C0.172,-0.103 0.194,-0.101 0.22,-0.101Z" style="fill-rule:nonzero;"/>
            </g>
        </g>
        <path d="M42.827,277.596C47.4,282.17 47.4,289.597 42.827,294.171C38.253,298.745 30.826,298.745 26.252,294.171C21.678,289.597 21.678,282.17 26.252,277.596C30.826,273.022 38.253,273.022 42.827,277.596Z"/>
        <path d="M645.474,279.382C650.048,283.956 650.048,291.383 645.474,295.957C640.9,300.531 633.473,300.531 628.899,295.957C624.325,291.383 624.325,283.956 628.899,279.382C633.473,274.808 640.9,274.808 645.474,279.382Z"/>
        <path d="M124.243,53.04C128.817,57.614 128.817,65.041 124.243,69.614C119.669,74.188 112.242,74.188 107.668,69.614C103.094,65.041 103.094,57.614 107.668,53.04C112.242,48.466 119.669,48.466 124.243,53.04Z"/>
        <path d="M726.89,54.826C731.464,59.4 731.464,66.827 726.89,71.4C722.316,75.974 714.889,75.974 710.315,71.4C705.742,66.827 705.742,59.4 710.315,54.826C714.889,50.252 722.316,50.252 726.89,54.826Z"/>
        <path d="M359.852,100.953C364.426,105.527 364.426,112.954 359.852,117.528C355.278,122.102 347.851,122.102 343.278,117.528C338.704,112.954 338.704,105.527 343.278,100.953C347.851,96.379 355.278,96.379 359.852,100.953Z"/>
        <path d="M962.499,102.739C967.073,107.313 967.073,114.74 962.499,119.314C957.925,123.888 950.499,123.888 945.925,119.314C941.351,114.74 941.351,107.313 945.925,102.739C950.499,98.165 957.925,98.165 962.499,102.739Z"/>
        <path d="M405.795,305.892C410.369,310.465 410.369,317.892 405.795,322.466C401.221,327.04 393.794,327.04 389.22,322.466C384.646,317.892 384.646,310.465 389.22,305.892C393.794,301.318 401.221,301.318 405.795,305.892Z"/>
        <path d="M821.929,226.792C826.503,231.366 826.503,238.793 821.929,243.367C817.355,247.941 809.928,247.941 805.354,243.367C800.781,238.793 800.781,231.366 805.354,226.792C809.928,222.218 817.355,222.218 821.929,226.792Z"/>
        <path d="M217.713,406.929C222.287,411.503 222.287,418.93 217.713,423.504C213.139,428.078 205.712,428.078 201.138,423.504C196.564,418.93 196.564,411.503 201.138,406.929C205.712,402.356 213.139,402.356 217.713,406.929Z"/>
        <path d="M820.36,408.715C824.934,413.289 824.934,420.716 820.36,425.29C815.786,429.864 808.359,429.864 803.785,425.29C799.212,420.716 799.212,413.289 803.785,408.715C808.359,404.141 815.786,404.141 820.36,408.715Z"/>
        <path d="M74.109,291.737L46.257,285.884L72.051,273.855L74.109,291.737Z" style="fill:rgb(21,183,183);"/>
        <path d="M300.794,256.584C300.794,256.584 129.06,276.352 67.715,283.414" style="fill:none;stroke:rgb(21,183,183);stroke-width:6px;"/>
        <path d="M676.574,293.083L648.797,286.884L674.738,275.177L676.574,293.083Z" style="fill:rgb(21,183,183);"/>
        <path d="M905.334,260.584C905.334,260.584 731.99,278.355 670.284,284.681" style="fill:none;stroke:rgb(21,183,183);stroke-width:6px;"/>
        <path d="M135.807,96.789L123.673,71.045L148.827,84.36L135.807,96.789Z" style="fill:rgb(21,183,183);"/>
        <path d="M300.794,256.584C300.794,256.584 181.261,131.369 138.588,86.669" style="fill:none;stroke:rgb(21,183,183);stroke-width:6px;"/>
        <path d="M737.494,95.72L725.213,70.045L750.443,83.216L737.494,95.72Z" style="fill:rgb(21,183,183);"/>
        <path d="M905.334,256.584C905.334,256.584 783.469,130.377 740.217,85.583" style="fill:none;stroke:rgb(21,183,183);stroke-width:6px;"/>
        <path d="M328.693,142.885L345.673,120.045L345.792,148.505L328.693,142.885Z" style="fill:rgb(21,183,183);"/>
        <path d="M300.794,256.584C300.794,256.584 326.399,178.683 338.929,140.565" style="fill:none;stroke:rgb(21,183,183);stroke-width:6px;"/>
        <path d="M933.232,142.885L950.213,120.045L950.332,148.505L933.232,142.885Z" style="fill:rgb(21,183,183);"/>
        <path d="M905.334,256.584C905.334,256.584 930.939,178.683 943.469,140.565" style="fill:none;stroke:rgb(21,183,183);stroke-width:6px;"/>
        <path d="M368.421,286.44L387,308L359.201,301.899L368.421,286.44Z" style="fill:rgb(21,183,183);"/>
        <path d="M300.794,256.584C300.794,256.584 343.112,281.824 368.449,296.936" style="fill:none;stroke:rgb(21,183,183);stroke-width:6px;"/>
        <path d="M237.735,385.958L216.583,405L222.079,377.075L237.735,385.958Z" style="fill:rgb(21,183,183);"/>
        <path d="M300.794,256.584C300.794,256.584 249.899,346.282 227.242,386.213" style="fill:none;stroke:rgb(21,183,183);stroke-width:6px;"/>
        <path d="M840.578,388.3L819.123,407L825.067,379.167L840.578,388.3Z" style="fill:rgb(21,183,183);"/>
        <path d="M905.334,260.584C905.334,260.584 853.301,348.954 830.082,388.387" style="fill:none;stroke:rgb(21,183,183);stroke-width:6px;"/>
        <path d="M849.715,254.869L826,239.133L854.413,237.493L849.715,254.869Z" style="fill:rgb(255,0,0);"/>
        <path d="M905.334,260.584C905.334,260.584 870.356,251.127 846.851,244.771" style="fill:none;stroke:rgb(255,0,0);stroke-width:6px;"/>
        <circle cx="300.794" cy="256.584" r="16.72" style="fill:rgb(21,183,183);"/>
        <path d="M374.718,274.288L358.931,286.77L358.418,266.652L374.718,274.288Z" style="fill:rgb(21,183,183);"/>
        <path d="M322.253,188.498C349.139,197.146 368.617,222.378 368.617,252.122C368.617,259.683 367.359,266.951 365.04,273.73" style="fill:none;stroke:rgb(21,183,183);stroke-width:3px;stroke-linecap:round;stroke-miterlimit:1.5;stroke-dasharray:3,9,0,0;"/>
        <circle cx="905.727" cy="260.584" r="16.72" style="fill:rgb(255,0,0);"/>
        <path d="M840.078,218.843L842.123,238.864L856.912,225.216L840.078,218.843Z" style="fill:rgb(255,0,0);"/>
        <path d="M847.221,225.397C858.246,203.725 880.765,188.864 906.727,188.864C913.433,188.864 919.91,189.856 926.018,191.7" style="fill:none;stroke:rgb(255,0,0);stroke-width:3px;stroke-linecap:round;stroke-miterlimit:1.5;stroke-dasharray:3,9,0,0;"/>
        <path d="M205.12,183.078L223.94,175.948L218.352,195.282L205.12,183.078Z" style="fill:rgb(21,183,183);"/>
        <path d="M190.024,268.637C189.597,264.677 189.378,260.656 189.378,256.584C189.378,230.054 198.671,205.677 214.177,186.533" style="fill:none;stroke:rgb(21,183,183);stroke-width:3px;stroke-dasharray:3,9,0,0;"/>
        <path d="M760.077,133.391L779.065,126.725L773.005,145.915L760.077,133.391Z" style="fill:rgb(21,183,183);"/>
        <path d="M724.232,276.578C723.543,270.176 723.189,263.675 723.189,257.091C723.189,211.005 740.533,168.938 769.046,137.067" style="fill:none;stroke:rgb(21,183,183);stroke-width:3px;stroke-dasharray:3,9,0,0;"/>
    </g>
</svg>
