<?xml version="1.0" encoding="UTF-8" standalone="no"?>
<!DOCTYPE svg PUBLIC "-//W3C//DTD SVG 1.1//EN" "http://www.w3.org/Graphics/SVG/1.1/DTD/svg11.dtd">
<svg width="100%" height="100%" viewBox="0 0 305 380" version="1.1" xmlns="http://www.w3.org/2000/svg" xmlns:xlink="http://www.w3.org/1999/xlink" xml:space="preserve" xmlns:serif="http://www.serif.com/" style="fill-rule:evenodd;clip-rule:evenodd;stroke-linejoin:round;stroke-miterlimit:1.5;">
    <rect id="Geometric-Operations" serif:id="Geometric Operations" x="-1884" y="-1635" width="6739" height="2861" style="fill:none;"/>
    <g id="Geometric-Operations1" serif:id="Geometric Operations">
        <circle cx="207.147" cy="49.811" r="11.72"/>
        <circle cx="41.368" cy="266.826" r="11.72"/>
        <path d="M42.435,266.826L202.796,56.531" style="fill:none;stroke:black;stroke-width:5px;"/>
        <path d="M243.816,40.176L237.576,40.176L237.576,28.512L237.384,28.512C236.84,29.344 236.104,30.008 235.176,30.504C234.248,31 233.048,31.248 231.576,31.248C228.6,31.248 226.32,30.24 224.736,28.224C223.152,26.208 222.36,23.152 222.36,19.056C222.36,14.768 223.44,11.52 225.6,9.312C227.76,7.104 230.856,6 234.888,6C235.752,6 236.616,6.04 237.48,6.12C238.344,6.2 239.168,6.312 239.952,6.456C240.736,6.6 241.464,6.76 242.136,6.936C242.808,7.112 243.368,7.28 243.816,7.44L243.816,40.176ZM233.256,25.968C234.472,25.968 235.408,25.696 236.064,25.152C236.72,24.608 237.224,23.792 237.576,22.704L237.576,11.904C237.096,11.648 236.552,11.48 235.944,11.4C235.336,11.32 234.648,11.28 233.88,11.28C232.184,11.28 230.912,11.92 230.064,13.2C229.216,14.48 228.792,16.352 228.792,18.816C228.792,21.152 229.176,22.928 229.944,24.144C230.712,25.36 231.816,25.968 233.256,25.968Z" style="fill-rule:nonzero;"/>
        <path d="M85.276,120.233L89.836,120.233L90.556,123.113L90.748,123.113C91.58,121.897 92.564,121.001 93.7,120.425C94.836,119.849 96.22,119.561 97.852,119.561C100.86,119.561 103.116,120.513 104.62,122.417C106.124,124.321 106.876,127.385 106.876,131.609C106.876,133.657 106.636,135.505 106.156,137.153C105.676,138.801 104.964,140.201 104.02,141.353C103.076,142.505 101.924,143.385 100.564,143.993C99.204,144.601 97.644,144.905 95.884,144.905C94.892,144.905 94.076,144.833 93.436,144.689C92.796,144.545 92.156,144.313 91.516,143.993L91.516,153.833L85.276,153.833L85.276,120.233ZM95.98,124.841C94.764,124.841 93.812,125.145 93.124,125.753C92.436,126.361 91.9,127.273 91.516,128.489L91.516,138.473C91.964,138.825 92.452,139.105 92.98,139.313C93.508,139.521 94.204,139.625 95.068,139.625C96.86,139.625 98.204,138.993 99.1,137.729C99.996,136.465 100.444,134.377 100.444,131.465C100.444,129.353 100.092,127.721 99.388,126.569C98.684,125.417 97.548,124.841 95.98,124.841Z" style="fill:rgb(21,183,183);fill-rule:nonzero;"/>
        <path d="M23.06,296.384C22.068,296.032 21.172,295.856 20.372,295.856C19.252,295.856 18.316,296.152 17.564,296.744C16.812,297.336 16.308,298.096 16.052,299.024L16.052,314.528L9.812,314.528L9.812,290.528L14.66,290.528L15.38,293.696L15.572,293.696C16.116,292.512 16.852,291.6 17.78,290.96C18.708,290.32 19.796,290 21.044,290C21.876,290 22.82,290.176 23.876,290.528L23.06,296.384Z" style="fill-rule:nonzero;"/>
        <g transform="matrix(1,0,0,1,-338.97,-1592.8)">
            <g transform="matrix(40,0,0,40,368.503,1953.88)">
                <path d="M0.203,-0.256L0.096,-0.5L0.181,-0.5L0.24,-0.362L0.258,-0.305L0.299,-0.362L0.42,-0.5L0.511,-0.5L0.299,-0.26L0.418,-0L0.333,-0L0.265,-0.152L0.245,-0.212L0.203,-0.152L0.069,-0L-0.022,-0L0.203,-0.256Z" style="fill-rule:nonzero;"/>
            </g>
            <g transform="matrix(23.32,0,0,23.32,387.863,1967.2)">
                <path d="M0.362,-0.434C0.356,-0.435 0.35,-0.436 0.344,-0.437C0.337,-0.438 0.331,-0.438 0.326,-0.438C0.292,-0.438 0.263,-0.427 0.238,-0.406C0.213,-0.385 0.194,-0.359 0.18,-0.328L0.111,-0L0.036,-0L0.142,-0.5L0.194,-0.5L0.194,-0.414L0.198,-0.414C0.206,-0.427 0.215,-0.439 0.224,-0.45C0.233,-0.46 0.244,-0.47 0.255,-0.479C0.266,-0.488 0.279,-0.495 0.292,-0.5C0.305,-0.505 0.32,-0.507 0.336,-0.507C0.351,-0.507 0.366,-0.505 0.382,-0.5L0.362,-0.434Z" style="fill-rule:nonzero;"/>
            </g>
        </g>
        <g transform="matrix(1,0,0,1,-94.0481,-1677.2)">
            <g transform="matrix(40,0,0,40,368.503,1953.88)">
                <path d="M0.194,-0.176L0.199,-0.08L0.204,-0.08L0.242,-0.177L0.408,-0.5L0.488,-0.5L0.252,-0.054C0.235,-0.021 0.218,0.011 0.201,0.042C0.184,0.073 0.166,0.1 0.148,0.125C0.13,0.149 0.111,0.168 0.092,0.183C0.073,0.198 0.053,0.205 0.032,0.205C0.021,0.205 0.011,0.204 0.003,0.203C-0.006,0.202 -0.013,0.199 -0.02,0.196L0.004,0.127C0.011,0.13 0.019,0.131 0.028,0.131C0.047,0.131 0.067,0.121 0.086,0.101C0.105,0.081 0.127,0.047 0.151,-0L0.065,-0.5L0.145,-0.5L0.194,-0.176Z" style="fill-rule:nonzero;"/>
            </g>
            <g transform="matrix(23.32,0,0,23.32,386.063,1967.2)">
                <path d="M0.362,-0.434C0.356,-0.435 0.35,-0.436 0.344,-0.437C0.337,-0.438 0.331,-0.438 0.326,-0.438C0.292,-0.438 0.263,-0.427 0.238,-0.406C0.213,-0.385 0.194,-0.359 0.18,-0.328L0.111,-0L0.036,-0L0.142,-0.5L0.194,-0.5L0.194,-0.414L0.198,-0.414C0.206,-0.427 0.215,-0.439 0.224,-0.45C0.233,-0.46 0.244,-0.47 0.255,-0.479C0.266,-0.488 0.279,-0.495 0.292,-0.5C0.305,-0.505 0.32,-0.507 0.336,-0.507C0.351,-0.507 0.366,-0.505 0.382,-0.5L0.362,-0.434Z" style="fill-rule:nonzero;"/>
            </g>
        </g>
        <g transform="matrix(1,0,0,1,-94.0481,-1899.39)">
            <g transform="matrix(40,0,0,40,368.503,1953.88)">
                <path d="M0.194,-0.176L0.199,-0.08L0.204,-0.08L0.242,-0.177L0.408,-0.5L0.488,-0.5L0.252,-0.054C0.235,-0.021 0.218,0.011 0.201,0.042C0.184,0.073 0.166,0.1 0.148,0.125C0.13,0.149 0.111,0.168 0.092,0.183C0.073,0.198 0.053,0.205 0.032,0.205C0.021,0.205 0.011,0.204 0.003,0.203C-0.006,0.202 -0.013,0.199 -0.02,0.196L0.004,0.127C0.011,0.13 0.019,0.131 0.028,0.131C0.047,0.131 0.067,0.121 0.086,0.101C0.105,0.081 0.127,0.047 0.151,-0L0.065,-0.5L0.145,-0.5L0.194,-0.176Z" style="fill-rule:nonzero;"/>
            </g>
            <g transform="matrix(23.32,0,0,23.32,386.063,1967.2)">
                <path d="M0.34,0.2L0.265,0.2L0.326,-0.084L0.322,-0.084C0.314,-0.073 0.305,-0.062 0.295,-0.051C0.284,-0.04 0.273,-0.029 0.26,-0.02C0.247,-0.011 0.232,-0.003 0.216,0.003C0.2,0.009 0.183,0.012 0.165,0.012C0.144,0.012 0.125,0.008 0.11,0.001C0.095,-0.007 0.082,-0.018 0.073,-0.032C0.064,-0.045 0.057,-0.061 0.053,-0.08C0.048,-0.099 0.046,-0.119 0.046,-0.141C0.046,-0.186 0.053,-0.23 0.068,-0.274C0.083,-0.318 0.103,-0.357 0.129,-0.392C0.155,-0.427 0.186,-0.455 0.222,-0.477C0.258,-0.498 0.298,-0.509 0.341,-0.509C0.355,-0.509 0.369,-0.508 0.384,-0.506C0.398,-0.504 0.411,-0.501 0.424,-0.499C0.437,-0.496 0.448,-0.492 0.459,-0.489C0.47,-0.485 0.478,-0.481 0.484,-0.477L0.34,0.2ZM0.186,-0.052C0.203,-0.052 0.22,-0.057 0.237,-0.067C0.254,-0.077 0.269,-0.09 0.284,-0.105C0.299,-0.119 0.312,-0.135 0.323,-0.153C0.334,-0.169 0.343,-0.185 0.35,-0.199L0.4,-0.43C0.389,-0.436 0.377,-0.44 0.362,-0.442C0.347,-0.444 0.333,-0.445 0.322,-0.445C0.296,-0.445 0.271,-0.437 0.248,-0.42C0.224,-0.403 0.203,-0.381 0.185,-0.354C0.167,-0.326 0.153,-0.294 0.142,-0.259C0.131,-0.223 0.126,-0.186 0.126,-0.148C0.126,-0.116 0.131,-0.092 0.142,-0.076C0.152,-0.06 0.167,-0.052 0.186,-0.052Z" style="fill-rule:nonzero;"/>
            </g>
        </g>
        <g transform="matrix(1,0,0,1,-172.79,-1595.13)">
            <g transform="matrix(40,0,0,40,368.503,1953.88)">
                <path d="M0.203,-0.256L0.096,-0.5L0.181,-0.5L0.24,-0.362L0.258,-0.305L0.299,-0.362L0.42,-0.5L0.511,-0.5L0.299,-0.26L0.418,-0L0.333,-0L0.265,-0.152L0.245,-0.212L0.203,-0.152L0.069,-0L-0.022,-0L0.203,-0.256Z" style="fill-rule:nonzero;"/>
            </g>
            <g transform="matrix(23.32,0,0,23.32,387.863,1967.2)">
                <path d="M0.34,0.2L0.265,0.2L0.326,-0.084L0.322,-0.084C0.314,-0.073 0.305,-0.062 0.295,-0.051C0.284,-0.04 0.273,-0.029 0.26,-0.02C0.247,-0.011 0.232,-0.003 0.216,0.003C0.2,0.009 0.183,0.012 0.165,0.012C0.144,0.012 0.125,0.008 0.11,0.001C0.095,-0.007 0.082,-0.018 0.073,-0.032C0.064,-0.045 0.057,-0.061 0.053,-0.08C0.048,-0.099 0.046,-0.119 0.046,-0.141C0.046,-0.186 0.053,-0.23 0.068,-0.274C0.083,-0.318 0.103,-0.357 0.129,-0.392C0.155,-0.427 0.186,-0.455 0.222,-0.477C0.258,-0.498 0.298,-0.509 0.341,-0.509C0.355,-0.509 0.369,-0.508 0.384,-0.506C0.398,-0.504 0.411,-0.501 0.424,-0.499C0.437,-0.496 0.448,-0.492 0.459,-0.489C0.47,-0.485 0.478,-0.481 0.484,-0.477L0.34,0.2ZM0.186,-0.052C0.203,-0.052 0.22,-0.057 0.237,-0.067C0.254,-0.077 0.269,-0.09 0.284,-0.105C0.299,-0.119 0.312,-0.135 0.323,-0.153C0.334,-0.169 0.343,-0.185 0.35,-0.199L0.4,-0.43C0.389,-0.436 0.377,-0.44 0.362,-0.442C0.347,-0.444 0.333,-0.445 0.322,-0.445C0.296,-0.445 0.271,-0.437 0.248,-0.42C0.224,-0.403 0.203,-0.381 0.185,-0.354C0.167,-0.326 0.153,-0.294 0.142,-0.259C0.131,-0.223 0.126,-0.186 0.126,-0.148C0.126,-0.116 0.131,-0.092 0.142,-0.076C0.152,-0.06 0.167,-0.052 0.186,-0.052Z" style="fill-rule:nonzero;"/>
            </g>
        </g>
        <circle cx="116.645" cy="168.553" r="11.72" style="fill:rgb(21,183,183);"/>
        <path d="M41.435,326L41.435,6" style="fill:none;stroke:black;stroke-width:2px;stroke-linecap:square;stroke-miterlimit:10;stroke-dasharray:2,6,0,0;"/>
        <path d="M206.925,326L206.925,6" style="fill:none;stroke:black;stroke-width:2px;stroke-linecap:square;stroke-miterlimit:10;stroke-dasharray:2,6,0,0;"/>
        <path d="M265,50L2.42,50" style="fill:none;stroke:black;stroke-width:2px;stroke-linecap:square;stroke-miterlimit:10;stroke-dasharray:2,6,0,0;"/>
        <path d="M265,267.494L2.42,267.494" style="fill:none;stroke:black;stroke-width:2px;stroke-linecap:square;stroke-miterlimit:10;stroke-dasharray:2,6,0,0;"/>
    </g>
</svg>
