<?xml version="1.0" encoding="UTF-8" standalone="no"?>
<!DOCTYPE svg PUBLIC "-//W3C//DTD SVG 1.1//EN" "http://www.w3.org/Graphics/SVG/1.1/DTD/svg11.dtd">
<svg width="100%" height="100%" viewBox="0 0 332 181" version="1.1" xmlns="http://www.w3.org/2000/svg" xmlns:xlink="http://www.w3.org/1999/xlink" xml:space="preserve" xmlns:serif="http://www.serif.com/" style="fill-rule:evenodd;clip-rule:evenodd;stroke-linecap:round;stroke-linejoin:round;stroke-miterlimit:10;">
    <g transform="matrix(1,0,0,1,-445,-3599)">
        <rect id="Vector-analysis" serif:id="Vector analysis" x="0" y="3502" width="2985" height="2387" style="fill:none;"/>
        <g id="Vector-analysis1" serif:id="Vector analysis">
            <g transform="matrix(1.01386,0,0,1.01386,-3340.26,1961.47)">
                <path d="M3737.95,1743.64L3740.92,1698.04L3772.93,1662.76L3824.01,1716.34L3858.86,1620.72L3914.34,1639.32L3908.27,1721.78L3952.51,1691.93L3957.62,1646.11L3981.31,1617.23L4011.18,1632.65L3997.58,1694.58L3963.73,1760.83L3912.94,1752.24L3896.06,1790.2L3823.12,1739.81L3786.73,1751.33L3737.95,1743.64Z" style="fill:rgb(217,217,217);stroke:black;stroke-width:2.96px;"/>
            </g>
            <g id="dashed">
            </g>
            <g transform="matrix(1.45142,0,0,1.45142,-237.739,-1673.52)">
                <g transform="matrix(0.688979,-0,-0,0.688979,470.393,3632.66)">
                    <path d="M324.564,78.391L331.743,81.98L324.564,85.569L324.564,78.391Z"/>
                    <path d="M36.731,81.98L326,81.98" style="fill:none;stroke:black;stroke-width:1px;stroke-linecap:square;stroke-linejoin:miter;"/>
                </g>
            </g>
            <g transform="matrix(1.45142,0,0,1.45142,-237.739,-1673.52)">
                <g transform="matrix(0.688979,-0,-0,0.688979,470.393,3632.66)">
                    <path d="M326,43.093L331.384,46.682L326,50.271L326,43.093Z" style="fill:none;stroke:black;stroke-width:1px;stroke-linecap:butt;stroke-linejoin:miter;"/>
                    <path d="M83.919,46.682L326,46.682" style="fill:none;stroke:black;stroke-width:1px;stroke-linecap:square;stroke-linejoin:miter;"/>
                </g>
            </g>
            <g transform="matrix(1.45142,0,0,1.45142,-237.739,-1701.1)">
                <g transform="matrix(0.688979,-0,-0,0.688979,470.393,3651.66)">
                    <path d="M326,144.241L331.384,147.83L326,151.419L326,144.241Z" style="fill:none;stroke:black;stroke-width:1px;stroke-linecap:butt;stroke-linejoin:miter;"/>
                    <path d="M83.022,147.83L326,147.83" style="fill:none;stroke:black;stroke-width:1px;stroke-linecap:square;stroke-linejoin:miter;"/>
                </g>
            </g>
            <g transform="matrix(0.932096,0,0,0.932096,343.587,221.399)">
                <circle cx="148.208" cy="3711.62" r="8.384" style="fill:rgb(251,133,255);stroke:black;stroke-width:3.22px;stroke-linecap:square;stroke-linejoin:miter;"/>
            </g>
            <g transform="matrix(0.59716,0,0,0.592392,428.309,1482.25)">
                <circle cx="148.208" cy="3711.62" r="8.384" style="stroke:rgb(251,133,255);stroke-width:5.04px;stroke-linecap:square;stroke-linejoin:miter;"/>
            </g>
            <g transform="matrix(0.59716,0,0,0.592392,455.894,1482.25)">
                <circle cx="148.208" cy="3711.62" r="8.384" style="stroke:rgb(251,133,255);stroke-width:5.04px;stroke-linecap:square;stroke-linejoin:miter;"/>
            </g>
            <g transform="matrix(0.59716,0,0,0.592392,534.595,1482.25)">
                <circle cx="148.208" cy="3711.62" r="8.384" style="stroke:rgb(251,133,255);stroke-width:5.04px;stroke-linecap:square;stroke-linejoin:miter;"/>
            </g>
            <g transform="matrix(0.59716,0,0,0.592392,571.581,1482.25)">
                <circle cx="148.208" cy="3711.62" r="8.384" style="stroke:rgb(251,133,255);stroke-width:5.04px;stroke-linecap:square;stroke-linejoin:miter;"/>
            </g>
            <g transform="matrix(0.59716,0,0,0.592392,623.698,1482.25)">
                <circle cx="148.208" cy="3711.62" r="8.384" style="stroke:rgb(251,133,255);stroke-width:5.04px;stroke-linecap:square;stroke-linejoin:miter;"/>
            </g>
            <g transform="matrix(0.932096,0,0,0.932096,390.775,186.101)">
                <circle cx="148.208" cy="3711.62" r="8.384" style="fill:rgb(45,231,231);stroke:black;stroke-width:3.22px;stroke-linecap:square;stroke-linejoin:miter;"/>
            </g>
            <g transform="matrix(0.585878,0,0,0.585878,470.254,1471.13)">
                <circle cx="148.208" cy="3711.62" r="8.384" style="stroke:rgb(45,231,231);stroke-width:5.12px;stroke-linecap:square;stroke-linejoin:miter;"/>
            </g>
            <g transform="matrix(0.585878,0,0,0.585878,539.538,1471.13)">
                <circle cx="148.208" cy="3711.62" r="8.384" style="stroke:rgb(45,231,231);stroke-width:5.12px;stroke-linecap:square;stroke-linejoin:miter;"/>
            </g>
            <g transform="matrix(0.585878,0,0,0.585878,583.971,1471.13)">
                <circle cx="148.208" cy="3711.62" r="8.384" style="stroke:rgb(45,231,231);stroke-width:5.12px;stroke-linecap:square;stroke-linejoin:miter;"/>
            </g>
            <g transform="matrix(0.585878,0,0,0.585878,633.223,1471.13)">
                <circle cx="148.208" cy="3711.62" r="8.384" style="stroke:rgb(45,231,231);stroke-width:5.12px;stroke-linecap:square;stroke-linejoin:miter;"/>
            </g>
            <g transform="matrix(1.45142,0,0,1.45142,-237.739,-1673.52)">
                <g transform="matrix(0.688979,-0,-0,0.688979,470.393,3632.66)">
                    <path d="M324.564,104.587L331.743,108.176L324.564,111.766L324.564,104.587Z"/>
                    <path d="M139.991,108.176L326,108.176" style="fill:none;stroke:black;stroke-width:1px;stroke-linecap:square;stroke-linejoin:miter;"/>
                </g>
            </g>
            <g transform="matrix(0.932096,0,0,0.932096,389.878,287.249)">
                <circle cx="148.208" cy="3711.62" r="8.384" style="fill:rgb(255,235,51);stroke:black;stroke-width:3.22px;stroke-linecap:square;stroke-linejoin:miter;"/>
            </g>
            <g transform="matrix(0.585878,0,0,0.585878,479.316,1572.28)">
                <circle cx="148.208" cy="3711.62" r="8.384" style="stroke:rgb(255,235,51);stroke-width:5.12px;stroke-linecap:square;stroke-linejoin:miter;"/>
            </g>
            <g transform="matrix(0.585878,0,0,0.585878,535.859,1572.28)">
                <circle cx="148.208" cy="3711.62" r="8.384" style="stroke:rgb(255,235,51);stroke-width:5.12px;stroke-linecap:square;stroke-linejoin:miter;"/>
            </g>
            <g transform="matrix(0.585878,0,0,0.585878,591.623,1572.28)">
                <circle cx="148.208" cy="3711.62" r="8.384" style="stroke:rgb(255,235,51);stroke-width:5.12px;stroke-linecap:square;stroke-linejoin:miter;"/>
            </g>
            <g transform="matrix(0.932096,0,0,0.932096,446.847,247.595)">
                <circle cx="148.208" cy="3711.62" r="8.384" style="fill:rgb(150,255,21);stroke:black;stroke-width:3.22px;stroke-linecap:square;stroke-linejoin:miter;"/>
            </g>
            <g transform="matrix(0.585878,0,0,0.585878,535.562,1532.62)">
                <circle cx="148.208" cy="3711.62" r="8.384" style="stroke:rgb(150,255,21);stroke-width:5.12px;stroke-linecap:square;stroke-linejoin:miter;"/>
            </g>
            <g transform="matrix(0.585878,0,0,0.585878,612.316,1532.62)">
                <circle cx="148.208" cy="3711.62" r="8.384" style="stroke:rgb(150,255,21);stroke-width:5.12px;stroke-linecap:square;stroke-linejoin:miter;"/>
            </g>
            <g transform="matrix(1.45142,0,0,1.45142,-191.294,-1644.5)">
                <g transform="matrix(12,0,0,12,508.319,3636.58)">
                    <path d="M0.127,-0.072L0.284,-0.072L0.284,-0.598L0.124,-0.486L0.085,-0.543L0.305,-0.7L0.361,-0.7L0.361,-0.072L0.515,-0.072L0.515,-0L0.127,-0L0.127,-0.072Z" style="fill-rule:nonzero;"/>
                </g>
            </g>
            <g transform="matrix(1.45142,0,0,1.45142,-222.104,-1607.93)">
                <g transform="matrix(12,0,0,12,508.319,3636.58)">
                    <path d="M0.127,-0.072L0.284,-0.072L0.284,-0.598L0.124,-0.486L0.085,-0.543L0.305,-0.7L0.361,-0.7L0.361,-0.072L0.515,-0.072L0.515,-0L0.127,-0L0.127,-0.072Z" style="fill-rule:nonzero;"/>
                </g>
            </g>
            <g transform="matrix(1.45142,0,0,1.45142,-180.013,-1508.28)">
                <g transform="matrix(12,0,0,12,508.319,3636.58)">
                    <path d="M0.127,-0.072L0.284,-0.072L0.284,-0.598L0.124,-0.486L0.085,-0.543L0.305,-0.7L0.361,-0.7L0.361,-0.072L0.515,-0.072L0.515,-0L0.127,-0L0.127,-0.072Z" style="fill-rule:nonzero;"/>
                </g>
            </g>
            <g transform="matrix(1.45142,0,0,1.45142,-129.664,-1549.62)">
                <g transform="matrix(12,0,0,12,508.319,3636.58)">
                    <path d="M0.127,-0.072L0.284,-0.072L0.284,-0.598L0.124,-0.486L0.085,-0.543L0.305,-0.7L0.361,-0.7L0.361,-0.072L0.515,-0.072L0.515,-0L0.127,-0L0.127,-0.072Z" style="fill-rule:nonzero;"/>
                </g>
            </g>
            <g transform="matrix(1.45142,0,0,1.45142,-112.922,-1549.62)">
                <g transform="matrix(12,0,0,12,508.319,3636.58)">
                    <path d="M0.5,-0.523C0.5,-0.462 0.471,-0.393 0.413,-0.318C0.355,-0.243 0.274,-0.161 0.17,-0.072L0.522,-0.072L0.522,-0L0.078,-0L0.078,-0.072C0.091,-0.084 0.108,-0.1 0.13,-0.119C0.152,-0.138 0.176,-0.16 0.201,-0.184C0.226,-0.207 0.252,-0.233 0.279,-0.26C0.305,-0.287 0.329,-0.315 0.35,-0.344C0.371,-0.373 0.389,-0.401 0.402,-0.43C0.415,-0.459 0.422,-0.486 0.422,-0.513C0.422,-0.553 0.411,-0.585 0.391,-0.608C0.37,-0.631 0.338,-0.642 0.296,-0.642C0.26,-0.642 0.23,-0.638 0.205,-0.63C0.18,-0.622 0.158,-0.61 0.138,-0.595L0.104,-0.65C0.134,-0.671 0.166,-0.687 0.2,-0.697C0.233,-0.707 0.27,-0.712 0.31,-0.712C0.373,-0.712 0.42,-0.695 0.452,-0.661C0.484,-0.627 0.5,-0.581 0.5,-0.523Z" style="fill-rule:nonzero;"/>
                </g>
            </g>
            <g transform="matrix(1.45142,0,0,1.45142,-33.6552,-1549.62)">
                <g transform="matrix(14,0,0,14,507.119,3636.58)">
                    <path d="M0.248,-0.096C0.27,-0.096 0.29,-0.099 0.309,-0.105C0.327,-0.11 0.343,-0.118 0.356,-0.129C0.369,-0.139 0.379,-0.151 0.386,-0.165C0.393,-0.178 0.397,-0.193 0.397,-0.209C0.397,-0.229 0.393,-0.246 0.385,-0.26C0.376,-0.273 0.365,-0.284 0.35,-0.292C0.335,-0.3 0.318,-0.306 0.297,-0.309C0.276,-0.312 0.254,-0.314 0.23,-0.314L0.174,-0.314L0.174,-0.385L0.342,-0.59L0.089,-0.59L0.089,-0.7L0.497,-0.7L0.497,-0.609L0.321,-0.408L0.344,-0.408C0.367,-0.408 0.39,-0.404 0.412,-0.396C0.434,-0.388 0.454,-0.376 0.471,-0.36C0.488,-0.344 0.501,-0.324 0.512,-0.3C0.522,-0.276 0.527,-0.248 0.527,-0.217C0.527,-0.179 0.519,-0.146 0.504,-0.117C0.488,-0.088 0.467,-0.064 0.442,-0.045C0.416,-0.025 0.386,-0.01 0.353,-0.001C0.32,0.009 0.285,0.014 0.25,0.014C0.22,0.014 0.19,0.011 0.16,0.006C0.13,0.001 0.101,-0.008 0.073,-0.019L0.108,-0.127C0.114,-0.124 0.122,-0.12 0.133,-0.117C0.143,-0.114 0.155,-0.11 0.168,-0.107C0.181,-0.104 0.194,-0.101 0.208,-0.099C0.221,-0.097 0.235,-0.096 0.248,-0.096Z" style="fill-rule:nonzero;"/>
                </g>
            </g>
            <g transform="matrix(1.45142,0,0,1.45142,-105.756,-1644.5)">
                <g transform="matrix(12,0,0,12,508.319,3636.58)">
                    <path d="M0.5,-0.523C0.5,-0.462 0.471,-0.393 0.413,-0.318C0.355,-0.243 0.274,-0.161 0.17,-0.072L0.522,-0.072L0.522,-0L0.078,-0L0.078,-0.072C0.091,-0.084 0.108,-0.1 0.13,-0.119C0.152,-0.138 0.176,-0.16 0.201,-0.184C0.226,-0.207 0.252,-0.233 0.279,-0.26C0.305,-0.287 0.329,-0.315 0.35,-0.344C0.371,-0.373 0.389,-0.401 0.402,-0.43C0.415,-0.459 0.422,-0.486 0.422,-0.513C0.422,-0.553 0.411,-0.585 0.391,-0.608C0.37,-0.631 0.338,-0.642 0.296,-0.642C0.26,-0.642 0.23,-0.638 0.205,-0.63C0.18,-0.622 0.158,-0.61 0.138,-0.595L0.104,-0.65C0.134,-0.671 0.166,-0.687 0.2,-0.697C0.233,-0.707 0.27,-0.712 0.31,-0.712C0.373,-0.712 0.42,-0.695 0.452,-0.661C0.484,-0.627 0.5,-0.581 0.5,-0.523Z" style="fill-rule:nonzero;"/>
                </g>
            </g>
            <g transform="matrix(1.45142,0,0,1.45142,-204.784,-1607.68)">
                <g transform="matrix(12,0,0,12,508.319,3636.58)">
                    <path d="M0.5,-0.523C0.5,-0.462 0.471,-0.393 0.413,-0.318C0.355,-0.243 0.274,-0.161 0.17,-0.072L0.522,-0.072L0.522,-0L0.078,-0L0.078,-0.072C0.091,-0.084 0.108,-0.1 0.13,-0.119C0.152,-0.138 0.176,-0.16 0.201,-0.184C0.226,-0.207 0.252,-0.233 0.279,-0.26C0.305,-0.287 0.329,-0.315 0.35,-0.344C0.371,-0.373 0.389,-0.401 0.402,-0.43C0.415,-0.459 0.422,-0.486 0.422,-0.513C0.422,-0.553 0.411,-0.585 0.391,-0.608C0.37,-0.631 0.338,-0.642 0.296,-0.642C0.26,-0.642 0.23,-0.638 0.205,-0.63C0.18,-0.622 0.158,-0.61 0.138,-0.595L0.104,-0.65C0.134,-0.671 0.166,-0.687 0.2,-0.697C0.233,-0.707 0.27,-0.712 0.31,-0.712C0.373,-0.712 0.42,-0.695 0.452,-0.661C0.484,-0.627 0.5,-0.581 0.5,-0.523Z" style="fill-rule:nonzero;"/>
                </g>
            </g>
            <g transform="matrix(1.45142,0,0,1.45142,-114.955,-1508.16)">
                <g transform="matrix(12,0,0,12,508.319,3636.58)">
                    <path d="M0.5,-0.523C0.5,-0.462 0.471,-0.393 0.413,-0.318C0.355,-0.243 0.274,-0.161 0.17,-0.072L0.522,-0.072L0.522,-0L0.078,-0L0.078,-0.072C0.091,-0.084 0.108,-0.1 0.13,-0.119C0.152,-0.138 0.176,-0.16 0.201,-0.184C0.226,-0.207 0.252,-0.233 0.279,-0.26C0.305,-0.287 0.329,-0.315 0.35,-0.344C0.371,-0.373 0.389,-0.401 0.402,-0.43C0.415,-0.459 0.422,-0.486 0.422,-0.513C0.422,-0.553 0.411,-0.585 0.391,-0.608C0.37,-0.631 0.338,-0.642 0.296,-0.642C0.26,-0.642 0.23,-0.638 0.205,-0.63C0.18,-0.622 0.158,-0.61 0.138,-0.595L0.104,-0.65C0.134,-0.671 0.166,-0.687 0.2,-0.697C0.233,-0.707 0.27,-0.712 0.31,-0.712C0.373,-0.712 0.42,-0.695 0.452,-0.661C0.484,-0.627 0.5,-0.581 0.5,-0.523Z" style="fill-rule:nonzero;"/>
                </g>
            </g>
            <g transform="matrix(1.45142,0,0,1.45142,-80.6609,-1644.5)">
                <g transform="matrix(12,0,0,12,508.319,3636.58)">
                    <path d="M0.248,-0.057C0.275,-0.057 0.299,-0.061 0.322,-0.068C0.344,-0.075 0.363,-0.084 0.38,-0.097C0.397,-0.11 0.41,-0.125 0.419,-0.143C0.428,-0.161 0.433,-0.181 0.433,-0.203C0.433,-0.249 0.417,-0.282 0.385,-0.302C0.352,-0.321 0.309,-0.331 0.254,-0.331L0.19,-0.331L0.19,-0.379L0.387,-0.628L0.088,-0.628L0.088,-0.7L0.483,-0.7L0.483,-0.628L0.286,-0.397L0.302,-0.397C0.333,-0.397 0.361,-0.393 0.386,-0.384C0.411,-0.375 0.433,-0.363 0.452,-0.347C0.471,-0.331 0.485,-0.312 0.496,-0.289C0.506,-0.266 0.511,-0.241 0.511,-0.212C0.511,-0.176 0.504,-0.144 0.49,-0.116C0.476,-0.088 0.457,-0.065 0.433,-0.046C0.409,-0.027 0.381,-0.012 0.349,-0.003C0.316,0.007 0.282,0.012 0.245,0.012C0.211,0.012 0.182,0.01 0.157,0.005C0.132,-0 0.109,-0.007 0.088,-0.014L0.108,-0.084C0.125,-0.076 0.146,-0.07 0.169,-0.065C0.192,-0.059 0.219,-0.057 0.248,-0.057Z" style="fill-rule:nonzero;"/>
                </g>
            </g>
            <g transform="matrix(1.45142,0,0,1.45142,-108.569,-1607.68)">
                <g transform="matrix(12,0,0,12,508.319,3636.58)">
                    <path d="M0.248,-0.057C0.275,-0.057 0.299,-0.061 0.322,-0.068C0.344,-0.075 0.363,-0.084 0.38,-0.097C0.397,-0.11 0.41,-0.125 0.419,-0.143C0.428,-0.161 0.433,-0.181 0.433,-0.203C0.433,-0.249 0.417,-0.282 0.385,-0.302C0.352,-0.321 0.309,-0.331 0.254,-0.331L0.19,-0.331L0.19,-0.379L0.387,-0.628L0.088,-0.628L0.088,-0.7L0.483,-0.7L0.483,-0.628L0.286,-0.397L0.302,-0.397C0.333,-0.397 0.361,-0.393 0.386,-0.384C0.411,-0.375 0.433,-0.363 0.452,-0.347C0.471,-0.331 0.485,-0.312 0.496,-0.289C0.506,-0.266 0.511,-0.241 0.511,-0.212C0.511,-0.176 0.504,-0.144 0.49,-0.116C0.476,-0.088 0.457,-0.065 0.433,-0.046C0.409,-0.027 0.381,-0.012 0.349,-0.003C0.316,0.007 0.282,0.012 0.245,0.012C0.211,0.012 0.182,0.01 0.157,0.005C0.132,-0 0.109,-0.007 0.088,-0.014L0.108,-0.084C0.125,-0.076 0.146,-0.07 0.169,-0.065C0.192,-0.059 0.219,-0.057 0.248,-0.057Z" style="fill-rule:nonzero;"/>
                </g>
            </g>
            <g transform="matrix(1.45142,0,0,1.45142,-73.7348,-1508.52)">
                <g transform="matrix(12,0,0,12,508.319,3636.58)">
                    <path d="M0.248,-0.057C0.275,-0.057 0.299,-0.061 0.322,-0.068C0.344,-0.075 0.363,-0.084 0.38,-0.097C0.397,-0.11 0.41,-0.125 0.419,-0.143C0.428,-0.161 0.433,-0.181 0.433,-0.203C0.433,-0.249 0.417,-0.282 0.385,-0.302C0.352,-0.321 0.309,-0.331 0.254,-0.331L0.19,-0.331L0.19,-0.379L0.387,-0.628L0.088,-0.628L0.088,-0.7L0.483,-0.7L0.483,-0.628L0.286,-0.397L0.302,-0.397C0.333,-0.397 0.361,-0.393 0.386,-0.384C0.411,-0.375 0.433,-0.363 0.452,-0.347C0.471,-0.331 0.485,-0.312 0.496,-0.289C0.506,-0.266 0.511,-0.241 0.511,-0.212C0.511,-0.176 0.504,-0.144 0.49,-0.116C0.476,-0.088 0.457,-0.065 0.433,-0.046C0.409,-0.027 0.381,-0.012 0.349,-0.003C0.316,0.007 0.282,0.012 0.245,0.012C0.211,0.012 0.182,0.01 0.157,0.005C0.132,-0 0.109,-0.007 0.088,-0.014L0.108,-0.084C0.125,-0.076 0.146,-0.07 0.169,-0.065C0.192,-0.059 0.219,-0.057 0.248,-0.057Z" style="fill-rule:nonzero;"/>
                </g>
            </g>
            <g transform="matrix(1.45142,0,0,1.45142,-7.30785,-1643.04)">
                <g transform="matrix(14,0,0,14,507.119,3636.58)">
                    <path d="M0.577,-0.195L0.457,-0.195L0.457,-0L0.336,-0L0.336,-0.195L0.033,-0.195L0.033,-0.284L0.35,-0.705L0.457,-0.705L0.457,-0.299L0.577,-0.299L0.577,-0.195ZM0.336,-0.521L0.162,-0.299L0.336,-0.299L0.336,-0.521Z" style="fill-rule:nonzero;"/>
                </g>
            </g>
            <g transform="matrix(1.45142,0,0,1.45142,-88.9186,-1607.44)">
                <g transform="matrix(12,0,0,12,508.319,3636.58)">
                    <path d="M0.58,-0.218L0.445,-0.218L0.445,-0L0.367,-0L0.367,-0.218L0.044,-0.218L0.044,-0.276L0.379,-0.7L0.445,-0.7L0.445,-0.284L0.58,-0.284L0.58,-0.218ZM0.367,-0.575L0.136,-0.284L0.367,-0.284L0.367,-0.575Z" style="fill-rule:nonzero;"/>
                </g>
            </g>
            <g transform="matrix(1.45142,0,0,1.45142,-51.1816,-1508.16)">
                <g transform="matrix(14,0,0,14,507.119,3636.58)">
                    <path d="M0.577,-0.195L0.457,-0.195L0.457,-0L0.336,-0L0.336,-0.195L0.033,-0.195L0.033,-0.284L0.35,-0.705L0.457,-0.705L0.457,-0.299L0.577,-0.299L0.577,-0.195ZM0.336,-0.521L0.162,-0.299L0.336,-0.299L0.336,-0.521Z" style="fill-rule:nonzero;"/>
                </g>
            </g>
            <g transform="matrix(1.45142,0,0,1.45142,-15.4781,-1604.54)">
                <g transform="matrix(14,0,0,14,507.119,3636.58)">
                    <path d="M0.237,-0.101C0.259,-0.101 0.279,-0.104 0.298,-0.109C0.317,-0.114 0.333,-0.122 0.347,-0.132C0.36,-0.142 0.371,-0.154 0.379,-0.169C0.386,-0.184 0.39,-0.2 0.39,-0.219C0.39,-0.256 0.376,-0.285 0.347,-0.306C0.318,-0.327 0.274,-0.337 0.216,-0.337C0.209,-0.337 0.2,-0.337 0.191,-0.337C0.181,-0.336 0.172,-0.336 0.163,-0.335C0.153,-0.334 0.143,-0.334 0.132,-0.334L0.132,-0.7L0.494,-0.7L0.494,-0.58L0.244,-0.58L0.244,-0.443C0.249,-0.443 0.255,-0.443 0.26,-0.444L0.285,-0.445C0.318,-0.445 0.349,-0.44 0.378,-0.431C0.407,-0.421 0.432,-0.406 0.453,-0.387C0.474,-0.368 0.491,-0.344 0.503,-0.317C0.514,-0.289 0.52,-0.258 0.52,-0.225C0.52,-0.186 0.513,-0.151 0.498,-0.122C0.483,-0.092 0.463,-0.067 0.438,-0.047C0.413,-0.027 0.383,-0.012 0.35,-0.002C0.317,0.009 0.281,0.014 0.243,0.014C0.228,0.014 0.213,0.012 0.196,0.01C0.179,0.007 0.163,0.003 0.147,-0.002C0.131,-0.006 0.116,-0.011 0.103,-0.016C0.089,-0.021 0.077,-0.026 0.068,-0.031L0.11,-0.135C0.121,-0.128 0.139,-0.121 0.163,-0.113C0.186,-0.105 0.211,-0.101 0.237,-0.101Z" style="fill-rule:nonzero;"/>
                </g>
            </g>
        </g>
    </g>
</svg>
