<?xml version="1.0" encoding="UTF-8" standalone="no"?>
<!DOCTYPE svg PUBLIC "-//W3C//DTD SVG 1.1//EN" "http://www.w3.org/Graphics/SVG/1.1/DTD/svg11.dtd">
<svg width="100%" height="100%" viewBox="0 0 1156 563" version="1.1" xmlns="http://www.w3.org/2000/svg" xmlns:xlink="http://www.w3.org/1999/xlink" xml:space="preserve" xmlns:serif="http://www.serif.com/" style="fill-rule:evenodd;clip-rule:evenodd;stroke-linecap:square;stroke-linejoin:round;stroke-miterlimit:10;">
    <rect id="Geometric-Operations" serif:id="Geometric Operations" x="-4923" y="-756" width="6739" height="2861" style="fill:none;"/>
    <g id="Geometric-Operations1" serif:id="Geometric Operations">
        <path d="M39,486.48L201.309,34.48" style="fill:none;stroke:black;stroke-width:2px;stroke-dasharray:2,4,0,0;"/>
        <path d="M641.647,488.266L803.956,36.266" style="fill:none;stroke:black;stroke-width:2px;stroke-dasharray:2,4,0,0;"/>
        <path d="M15.47,62.323L550,171.48" style="fill:none;stroke:black;stroke-width:2px;stroke-dasharray:2,4,0,0;"/>
        <path d="M618.117,64.109L1152.65,173.266" style="fill:none;stroke:black;stroke-width:2px;stroke-dasharray:2,4,0,0;"/>
        <path d="M393.099,34.48L504.052,546.48" style="fill:none;stroke:black;stroke-width:2px;stroke-dasharray:2,4,0,0;"/>
        <path d="M550,-296.085L102,-50" style="fill:none;stroke:black;stroke-width:2px;stroke-dasharray:2,4,0,0;"/>
        <path d="M550,300.395L102,546.48" style="fill:none;stroke:black;stroke-width:2px;stroke-dasharray:2,4,0,0;"/>
        <path d="M407,554.057L15.47,257.387" style="fill:none;stroke:black;stroke-width:2px;stroke-dasharray:2,4,0,0;"/>
        <path d="M1009.65,555.843L618.117,259.173" style="fill:none;stroke:black;stroke-width:2px;stroke-dasharray:2,4,0,0;"/>
        <path d="M98.632,320.404L179.293,95.778L416.893,144.299L461.28,349.126L273.016,452.538L98.632,320.404Z" style="fill:rgb(217,217,217);stroke:black;stroke-width:5px;"/>
        <path d="M701.279,322.19L781.94,97.564L1019.54,146.085L876.927,267.912L875.664,454.324L701.279,322.19Z" style="fill:rgb(217,217,217);stroke:black;stroke-width:5px;"/>
        <path d="M320.76,267.229L349.447,288.269L313.873,288.649L320.76,267.229Z" style="fill:rgb(21,183,183);"/>
        <path d="M137.604,220.158C137.604,220.158 267.318,261.864 323.743,280.005" style="fill:none;stroke:rgb(21,183,183);stroke-width:5px;stroke-dasharray:5,10,0,0;"/>
        <path d="M925.693,271.229L954.38,292.269L918.806,292.649L925.693,271.229Z" style="fill:rgb(21,183,183);"/>
        <path d="M742.537,224.158C742.537,224.158 872.251,265.864 928.675,284.005" style="fill:none;stroke:rgb(21,183,183);stroke-width:5px;stroke-dasharray:5,10,0,0;"/>
        <path d="M386.119,243.961L368.167,274.675L364.1,239.333L386.119,243.961Z" style="fill:rgb(21,183,183);"/>
        <path d="M395.565,144.331C395.565,144.331 381.728,210.158 373.721,248.252" style="fill:none;stroke:rgb(21,183,183);stroke-width:5px;stroke-dasharray:5,10,0,0;"/>
        <path d="M991.052,247.961L973.1,278.675L969.033,243.333L991.052,247.961Z" style="fill:rgb(21,183,183);"/>
        <path d="M1000.5,148.331C1000.5,148.331 986.661,214.158 978.654,252.252" style="fill:none;stroke:rgb(21,183,183);stroke-width:5px;stroke-dasharray:5,10,0,0;"/>
        <path d="M417.231,292.139L381.866,288.269L412.479,270.146L417.231,292.139Z" style="fill:rgb(21,183,183);"/>
        <path d="M440.163,275.675C440.163,275.675 423.69,279.234 408.257,282.568" style="fill:none;stroke:rgb(21,183,183);stroke-width:5px;stroke-dasharray:5,10,0,0;"/>
        <path d="M949.212,259.604L957.893,281.675L937.706,269.227L949.212,259.604Z" style="fill:rgb(255,0,0);"/>
        <path d="M921.095,237.675C921.095,237.675 935.555,254.964 946.346,267.867" style="fill:none;stroke:rgb(255,0,0);stroke-width:5px;stroke-dasharray:5,10,0,0;"/>
        <path d="M378.827,340.949L372.373,305.963L398.527,330.08L378.827,340.949Z" style="fill:rgb(21,183,183);"/>
        <path d="M409.025,372.395C409.025,372.395 395.948,348.693 385.416,329.604" style="fill:none;stroke:rgb(21,183,183);stroke-width:5px;stroke-dasharray:5,10,0,0;"/>
        <path d="M929.88,289.463L952.38,296.963L929.88,304.463L929.88,289.463Z" style="fill:rgb(255,0,0);"/>
        <path d="M881.957,296.963L934.38,296.963" style="fill:none;stroke:rgb(255,0,0);stroke-width:5px;stroke-dasharray:5,10,0,0;"/>
        <path d="M324.877,325.451L353.961,304.963L342.987,338.804L324.877,325.451Z" style="fill:rgb(21,183,183);"/>
        <path d="M258.799,434.028C258.799,434.028 310.82,363.473 337.938,326.695" style="fill:none;stroke:rgb(21,183,183);stroke-width:5px;stroke-dasharray:5,10,0,0;"/>
        <path d="M929.81,329.451L958.893,308.963L947.919,342.804L929.81,329.451Z" style="fill:rgb(21,183,183);"/>
        <path d="M863.731,438.028C863.731,438.028 915.753,367.473 942.87,330.695" style="fill:none;stroke:rgb(21,183,183);stroke-width:5px;stroke-dasharray:5,10,0,0;"/>
        <g transform="matrix(1,0,0,1,-305.198,-1676.16)">
            <g transform="matrix(48,0,0,48,368.503,1953.88)">
                <path d="M0.057,-0.5L0.152,-0.5L0.167,-0.44L0.171,-0.44C0.188,-0.465 0.209,-0.484 0.233,-0.496C0.256,-0.508 0.285,-0.514 0.319,-0.514C0.382,-0.514 0.429,-0.494 0.46,-0.455C0.491,-0.415 0.507,-0.351 0.507,-0.263C0.507,-0.22 0.502,-0.182 0.492,-0.148C0.482,-0.113 0.467,-0.084 0.448,-0.06C0.428,-0.036 0.404,-0.018 0.376,-0.005C0.347,0.008 0.315,0.014 0.278,0.014C0.257,0.014 0.24,0.012 0.227,0.01C0.214,0.007 0.2,0.002 0.187,-0.005L0.187,0.2L0.057,0.2L0.057,-0.5ZM0.28,-0.404C0.255,-0.404 0.235,-0.398 0.221,-0.385C0.206,-0.372 0.195,-0.353 0.187,-0.328L0.187,-0.12C0.196,-0.113 0.207,-0.107 0.218,-0.103C0.229,-0.098 0.243,-0.096 0.261,-0.096C0.298,-0.096 0.326,-0.109 0.345,-0.136C0.364,-0.162 0.373,-0.205 0.373,-0.266C0.373,-0.31 0.366,-0.344 0.351,-0.368C0.336,-0.392 0.313,-0.404 0.28,-0.404Z" style="fill-rule:nonzero;"/>
            </g>
            <g transform="matrix(27.984,0,0,27.984,394.423,1969.87)">
                <path d="M0.04,-0.351C0.04,-0.474 0.061,-0.565 0.103,-0.625C0.145,-0.684 0.205,-0.714 0.284,-0.714C0.368,-0.714 0.43,-0.685 0.469,-0.626C0.508,-0.567 0.528,-0.475 0.528,-0.351C0.528,-0.228 0.507,-0.136 0.465,-0.076C0.422,-0.016 0.362,0.014 0.283,0.014C0.2,0.014 0.138,-0.018 0.099,-0.081C0.06,-0.144 0.04,-0.234 0.04,-0.351ZM0.17,-0.351C0.17,-0.27 0.179,-0.207 0.197,-0.163C0.214,-0.118 0.243,-0.096 0.284,-0.096C0.323,-0.096 0.352,-0.116 0.371,-0.157C0.389,-0.198 0.398,-0.262 0.398,-0.351C0.398,-0.432 0.389,-0.494 0.372,-0.538C0.355,-0.582 0.325,-0.604 0.283,-0.604C0.243,-0.604 0.214,-0.583 0.197,-0.542C0.179,-0.501 0.17,-0.437 0.17,-0.351Z" style="fill-rule:nonzero;"/>
            </g>
        </g>
        <g transform="matrix(1,0,0,1,297.449,-1674.37)">
            <g transform="matrix(48,0,0,48,368.503,1953.88)">
                <path d="M0.057,-0.5L0.152,-0.5L0.167,-0.44L0.171,-0.44C0.188,-0.465 0.209,-0.484 0.233,-0.496C0.256,-0.508 0.285,-0.514 0.319,-0.514C0.382,-0.514 0.429,-0.494 0.46,-0.455C0.491,-0.415 0.507,-0.351 0.507,-0.263C0.507,-0.22 0.502,-0.182 0.492,-0.148C0.482,-0.113 0.467,-0.084 0.448,-0.06C0.428,-0.036 0.404,-0.018 0.376,-0.005C0.347,0.008 0.315,0.014 0.278,0.014C0.257,0.014 0.24,0.012 0.227,0.01C0.214,0.007 0.2,0.002 0.187,-0.005L0.187,0.2L0.057,0.2L0.057,-0.5ZM0.28,-0.404C0.255,-0.404 0.235,-0.398 0.221,-0.385C0.206,-0.372 0.195,-0.353 0.187,-0.328L0.187,-0.12C0.196,-0.113 0.207,-0.107 0.218,-0.103C0.229,-0.098 0.243,-0.096 0.261,-0.096C0.298,-0.096 0.326,-0.109 0.345,-0.136C0.364,-0.162 0.373,-0.205 0.373,-0.266C0.373,-0.31 0.366,-0.344 0.351,-0.368C0.336,-0.392 0.313,-0.404 0.28,-0.404Z" style="fill-rule:nonzero;"/>
            </g>
            <g transform="matrix(27.984,0,0,27.984,394.423,1969.87)">
                <path d="M0.04,-0.351C0.04,-0.474 0.061,-0.565 0.103,-0.625C0.145,-0.684 0.205,-0.714 0.284,-0.714C0.368,-0.714 0.43,-0.685 0.469,-0.626C0.508,-0.567 0.528,-0.475 0.528,-0.351C0.528,-0.228 0.507,-0.136 0.465,-0.076C0.422,-0.016 0.362,0.014 0.283,0.014C0.2,0.014 0.138,-0.018 0.099,-0.081C0.06,-0.144 0.04,-0.234 0.04,-0.351ZM0.17,-0.351C0.17,-0.27 0.179,-0.207 0.197,-0.163C0.214,-0.118 0.243,-0.096 0.284,-0.096C0.323,-0.096 0.352,-0.116 0.371,-0.157C0.389,-0.198 0.398,-0.262 0.398,-0.351C0.398,-0.432 0.389,-0.494 0.372,-0.538C0.355,-0.582 0.325,-0.604 0.283,-0.604C0.243,-0.604 0.214,-0.583 0.197,-0.542C0.179,-0.501 0.17,-0.437 0.17,-0.351Z" style="fill-rule:nonzero;"/>
            </g>
        </g>
        <g transform="matrix(1,0,0,1,-239.972,-1897.84)">
            <g transform="matrix(48,0,0,48,368.503,1953.88)">
                <path d="M0.057,-0.5L0.152,-0.5L0.167,-0.44L0.171,-0.44C0.188,-0.465 0.209,-0.484 0.233,-0.496C0.256,-0.508 0.285,-0.514 0.319,-0.514C0.382,-0.514 0.429,-0.494 0.46,-0.455C0.491,-0.415 0.507,-0.351 0.507,-0.263C0.507,-0.22 0.502,-0.182 0.492,-0.148C0.482,-0.113 0.467,-0.084 0.448,-0.06C0.428,-0.036 0.404,-0.018 0.376,-0.005C0.347,0.008 0.315,0.014 0.278,0.014C0.257,0.014 0.24,0.012 0.227,0.01C0.214,0.007 0.2,0.002 0.187,-0.005L0.187,0.2L0.057,0.2L0.057,-0.5ZM0.28,-0.404C0.255,-0.404 0.235,-0.398 0.221,-0.385C0.206,-0.372 0.195,-0.353 0.187,-0.328L0.187,-0.12C0.196,-0.113 0.207,-0.107 0.218,-0.103C0.229,-0.098 0.243,-0.096 0.261,-0.096C0.298,-0.096 0.326,-0.109 0.345,-0.136C0.364,-0.162 0.373,-0.205 0.373,-0.266C0.373,-0.31 0.366,-0.344 0.351,-0.368C0.336,-0.392 0.313,-0.404 0.28,-0.404Z" style="fill-rule:nonzero;"/>
            </g>
            <g transform="matrix(27.984,0,0,27.984,394.423,1969.87)">
                <path d="M0.101,-0.11L0.24,-0.11L0.24,-0.505L0.255,-0.573L0.207,-0.514L0.118,-0.453L0.063,-0.528L0.291,-0.712L0.364,-0.712L0.364,-0.11L0.5,-0.11L0.5,-0L0.101,-0L0.101,-0.11Z" style="fill-rule:nonzero;"/>
            </g>
        </g>
        <g transform="matrix(1,0,0,1,362.675,-1896.06)">
            <g transform="matrix(48,0,0,48,368.503,1953.88)">
                <path d="M0.057,-0.5L0.152,-0.5L0.167,-0.44L0.171,-0.44C0.188,-0.465 0.209,-0.484 0.233,-0.496C0.256,-0.508 0.285,-0.514 0.319,-0.514C0.382,-0.514 0.429,-0.494 0.46,-0.455C0.491,-0.415 0.507,-0.351 0.507,-0.263C0.507,-0.22 0.502,-0.182 0.492,-0.148C0.482,-0.113 0.467,-0.084 0.448,-0.06C0.428,-0.036 0.404,-0.018 0.376,-0.005C0.347,0.008 0.315,0.014 0.278,0.014C0.257,0.014 0.24,0.012 0.227,0.01C0.214,0.007 0.2,0.002 0.187,-0.005L0.187,0.2L0.057,0.2L0.057,-0.5ZM0.28,-0.404C0.255,-0.404 0.235,-0.398 0.221,-0.385C0.206,-0.372 0.195,-0.353 0.187,-0.328L0.187,-0.12C0.196,-0.113 0.207,-0.107 0.218,-0.103C0.229,-0.098 0.243,-0.096 0.261,-0.096C0.298,-0.096 0.326,-0.109 0.345,-0.136C0.364,-0.162 0.373,-0.205 0.373,-0.266C0.373,-0.31 0.366,-0.344 0.351,-0.368C0.336,-0.392 0.313,-0.404 0.28,-0.404Z" style="fill-rule:nonzero;"/>
            </g>
            <g transform="matrix(27.984,0,0,27.984,394.423,1969.87)">
                <path d="M0.101,-0.11L0.24,-0.11L0.24,-0.505L0.255,-0.573L0.207,-0.514L0.118,-0.453L0.063,-0.528L0.291,-0.712L0.364,-0.712L0.364,-0.11L0.5,-0.11L0.5,-0L0.101,-0L0.101,-0.11Z" style="fill-rule:nonzero;"/>
            </g>
        </g>
        <g transform="matrix(1,0,0,1,61.0641,-1846.11)">
            <g transform="matrix(48,0,0,48,368.503,1953.88)">
                <path d="M0.057,-0.5L0.152,-0.5L0.167,-0.44L0.171,-0.44C0.188,-0.465 0.209,-0.484 0.233,-0.496C0.256,-0.508 0.285,-0.514 0.319,-0.514C0.382,-0.514 0.429,-0.494 0.46,-0.455C0.491,-0.415 0.507,-0.351 0.507,-0.263C0.507,-0.22 0.502,-0.182 0.492,-0.148C0.482,-0.113 0.467,-0.084 0.448,-0.06C0.428,-0.036 0.404,-0.018 0.376,-0.005C0.347,0.008 0.315,0.014 0.278,0.014C0.257,0.014 0.24,0.012 0.227,0.01C0.214,0.007 0.2,0.002 0.187,-0.005L0.187,0.2L0.057,0.2L0.057,-0.5ZM0.28,-0.404C0.255,-0.404 0.235,-0.398 0.221,-0.385C0.206,-0.372 0.195,-0.353 0.187,-0.328L0.187,-0.12C0.196,-0.113 0.207,-0.107 0.218,-0.103C0.229,-0.098 0.243,-0.096 0.261,-0.096C0.298,-0.096 0.326,-0.109 0.345,-0.136C0.364,-0.162 0.373,-0.205 0.373,-0.266C0.373,-0.31 0.366,-0.344 0.351,-0.368C0.336,-0.392 0.313,-0.404 0.28,-0.404Z" style="fill-rule:nonzero;"/>
            </g>
            <g transform="matrix(27.984,0,0,27.984,394.423,1969.87)">
                <path d="M0.475,-0.529C0.475,-0.495 0.469,-0.461 0.457,-0.426C0.444,-0.391 0.429,-0.357 0.41,-0.324C0.391,-0.291 0.37,-0.259 0.347,-0.228C0.324,-0.197 0.301,-0.168 0.279,-0.142L0.226,-0.101L0.226,-0.096L0.298,-0.11L0.49,-0.11L0.49,-0L0.069,-0L0.069,-0.067C0.085,-0.084 0.103,-0.103 0.123,-0.126C0.143,-0.148 0.163,-0.171 0.184,-0.197C0.204,-0.222 0.224,-0.247 0.243,-0.274C0.262,-0.301 0.28,-0.327 0.295,-0.355C0.31,-0.382 0.323,-0.408 0.332,-0.433C0.341,-0.458 0.345,-0.482 0.345,-0.505C0.345,-0.532 0.337,-0.555 0.322,-0.573C0.306,-0.59 0.281,-0.599 0.247,-0.599C0.226,-0.599 0.204,-0.595 0.182,-0.586C0.159,-0.577 0.14,-0.565 0.125,-0.551L0.073,-0.643C0.099,-0.664 0.129,-0.682 0.162,-0.695C0.195,-0.708 0.233,-0.714 0.278,-0.714C0.307,-0.714 0.333,-0.71 0.357,-0.702C0.381,-0.694 0.402,-0.682 0.419,-0.667C0.436,-0.652 0.45,-0.632 0.46,-0.61C0.47,-0.587 0.475,-0.56 0.475,-0.529Z" style="fill-rule:nonzero;"/>
            </g>
        </g>
        <path d="M333.947,219.594L339.647,219.594L340.547,223.194L340.787,223.194C341.827,221.674 343.057,220.554 344.477,219.834C345.897,219.114 347.627,218.754 349.667,218.754C353.427,218.754 356.247,219.944 358.127,222.324C360.007,224.704 360.947,228.534 360.947,233.814C360.947,236.374 360.647,238.684 360.047,240.744C359.447,242.804 358.557,244.554 357.377,245.994C356.197,247.434 354.757,248.534 353.057,249.294C351.357,250.054 349.407,250.434 347.207,250.434C345.967,250.434 344.947,250.344 344.147,250.164C343.347,249.984 342.547,249.694 341.747,249.294L341.747,261.594L333.947,261.594L333.947,219.594ZM347.327,225.354C345.807,225.354 344.617,225.734 343.757,226.494C342.897,227.254 342.227,228.394 341.747,229.914L341.747,242.394C342.307,242.834 342.917,243.184 343.577,243.444C344.237,243.704 345.107,243.834 346.187,243.834C348.427,243.834 350.107,243.044 351.227,241.464C352.347,239.884 352.907,237.274 352.907,233.634C352.907,230.994 352.467,228.954 351.587,227.514C350.707,226.074 349.287,225.354 347.327,225.354Z" style="fill-rule:nonzero;"/>
        <path d="M990.755,306.948L996.455,306.948L997.355,310.548L997.595,310.548C998.635,309.028 999.865,307.908 1001.28,307.188C1002.71,306.468 1004.44,306.108 1006.48,306.108C1010.24,306.108 1013.06,307.298 1014.94,309.678C1016.82,312.058 1017.75,315.888 1017.75,321.168C1017.75,323.728 1017.46,326.038 1016.86,328.098C1016.25,330.158 1015.37,331.908 1014.19,333.348C1013,334.788 1011.57,335.888 1009.87,336.648C1008.17,337.408 1006.22,337.788 1004.01,337.788C1002.77,337.788 1001.75,337.698 1000.96,337.518C1000.15,337.338 999.355,337.048 998.555,336.648L998.555,348.948L990.755,348.948L990.755,306.948ZM1004.13,312.708C1002.62,312.708 1001.43,313.088 1000.57,313.848C999.705,314.608 999.035,315.748 998.555,317.268L998.555,329.748C999.115,330.188 999.725,330.538 1000.38,330.798C1001.05,331.058 1001.92,331.188 1003,331.188C1005.24,331.188 1006.92,330.398 1008.03,328.818C1009.15,327.238 1009.72,324.628 1009.72,320.988C1009.72,318.348 1009.27,316.308 1008.39,314.868C1007.51,313.428 1006.1,312.708 1004.13,312.708Z" style="fill-rule:nonzero;"/>
        <g transform="matrix(1,0,0,1,663.711,-1844.33)">
            <g transform="matrix(48,0,0,48,368.503,1953.88)">
                <path d="M0.057,-0.5L0.152,-0.5L0.167,-0.44L0.171,-0.44C0.188,-0.465 0.209,-0.484 0.233,-0.496C0.256,-0.508 0.285,-0.514 0.319,-0.514C0.382,-0.514 0.429,-0.494 0.46,-0.455C0.491,-0.415 0.507,-0.351 0.507,-0.263C0.507,-0.22 0.502,-0.182 0.492,-0.148C0.482,-0.113 0.467,-0.084 0.448,-0.06C0.428,-0.036 0.404,-0.018 0.376,-0.005C0.347,0.008 0.315,0.014 0.278,0.014C0.257,0.014 0.24,0.012 0.227,0.01C0.214,0.007 0.2,0.002 0.187,-0.005L0.187,0.2L0.057,0.2L0.057,-0.5ZM0.28,-0.404C0.255,-0.404 0.235,-0.398 0.221,-0.385C0.206,-0.372 0.195,-0.353 0.187,-0.328L0.187,-0.12C0.196,-0.113 0.207,-0.107 0.218,-0.103C0.229,-0.098 0.243,-0.096 0.261,-0.096C0.298,-0.096 0.326,-0.109 0.345,-0.136C0.364,-0.162 0.373,-0.205 0.373,-0.266C0.373,-0.31 0.366,-0.344 0.351,-0.368C0.336,-0.392 0.313,-0.404 0.28,-0.404Z" style="fill-rule:nonzero;"/>
            </g>
            <g transform="matrix(27.984,0,0,27.984,394.423,1969.87)">
                <path d="M0.475,-0.529C0.475,-0.495 0.469,-0.461 0.457,-0.426C0.444,-0.391 0.429,-0.357 0.41,-0.324C0.391,-0.291 0.37,-0.259 0.347,-0.228C0.324,-0.197 0.301,-0.168 0.279,-0.142L0.226,-0.101L0.226,-0.096L0.298,-0.11L0.49,-0.11L0.49,-0L0.069,-0L0.069,-0.067C0.085,-0.084 0.103,-0.103 0.123,-0.126C0.143,-0.148 0.163,-0.171 0.184,-0.197C0.204,-0.222 0.224,-0.247 0.243,-0.274C0.262,-0.301 0.28,-0.327 0.295,-0.355C0.31,-0.382 0.323,-0.408 0.332,-0.433C0.341,-0.458 0.345,-0.482 0.345,-0.505C0.345,-0.532 0.337,-0.555 0.322,-0.573C0.306,-0.59 0.281,-0.599 0.247,-0.599C0.226,-0.599 0.204,-0.595 0.182,-0.586C0.159,-0.577 0.14,-0.565 0.125,-0.551L0.073,-0.643C0.099,-0.664 0.129,-0.682 0.162,-0.695C0.195,-0.708 0.233,-0.714 0.278,-0.714C0.307,-0.714 0.333,-0.71 0.357,-0.702C0.381,-0.694 0.402,-0.682 0.419,-0.667C0.436,-0.652 0.45,-0.632 0.46,-0.61C0.47,-0.587 0.475,-0.56 0.475,-0.529Z" style="fill-rule:nonzero;"/>
            </g>
        </g>
        <g transform="matrix(1,0,0,1,121.305,-1572.89)">
            <g transform="matrix(48,0,0,48,368.503,1953.88)">
                <path d="M0.057,-0.5L0.152,-0.5L0.167,-0.44L0.171,-0.44C0.188,-0.465 0.209,-0.484 0.233,-0.496C0.256,-0.508 0.285,-0.514 0.319,-0.514C0.382,-0.514 0.429,-0.494 0.46,-0.455C0.491,-0.415 0.507,-0.351 0.507,-0.263C0.507,-0.22 0.502,-0.182 0.492,-0.148C0.482,-0.113 0.467,-0.084 0.448,-0.06C0.428,-0.036 0.404,-0.018 0.376,-0.005C0.347,0.008 0.315,0.014 0.278,0.014C0.257,0.014 0.24,0.012 0.227,0.01C0.214,0.007 0.2,0.002 0.187,-0.005L0.187,0.2L0.057,0.2L0.057,-0.5ZM0.28,-0.404C0.255,-0.404 0.235,-0.398 0.221,-0.385C0.206,-0.372 0.195,-0.353 0.187,-0.328L0.187,-0.12C0.196,-0.113 0.207,-0.107 0.218,-0.103C0.229,-0.098 0.243,-0.096 0.261,-0.096C0.298,-0.096 0.326,-0.109 0.345,-0.136C0.364,-0.162 0.373,-0.205 0.373,-0.266C0.373,-0.31 0.366,-0.344 0.351,-0.368C0.336,-0.392 0.313,-0.404 0.28,-0.404Z" style="fill-rule:nonzero;"/>
            </g>
            <g transform="matrix(27.984,0,0,27.984,394.423,1969.87)">
                <path d="M0.241,-0.096C0.282,-0.096 0.314,-0.107 0.336,-0.129C0.357,-0.151 0.368,-0.178 0.368,-0.209C0.368,-0.247 0.357,-0.275 0.334,-0.293C0.311,-0.311 0.276,-0.32 0.227,-0.32L0.155,-0.32L0.155,-0.389L0.276,-0.554L0.333,-0.599L0.254,-0.59L0.086,-0.59L0.086,-0.7L0.468,-0.7L0.468,-0.629L0.327,-0.44L0.283,-0.413L0.283,-0.408L0.325,-0.414C0.348,-0.412 0.371,-0.407 0.392,-0.398C0.413,-0.389 0.431,-0.377 0.447,-0.361C0.462,-0.344 0.475,-0.324 0.484,-0.3C0.493,-0.276 0.498,-0.248 0.498,-0.217C0.498,-0.178 0.492,-0.144 0.479,-0.115C0.466,-0.086 0.448,-0.062 0.425,-0.043C0.401,-0.024 0.375,-0.009 0.344,-0C0.313,0.009 0.28,0.014 0.245,0.014C0.216,0.014 0.185,0.011 0.154,0.006C0.123,0.001 0.097,-0.007 0.078,-0.017L0.113,-0.125C0.13,-0.116 0.15,-0.109 0.171,-0.104C0.192,-0.099 0.215,-0.096 0.241,-0.096Z" style="fill-rule:nonzero;"/>
            </g>
        </g>
        <g transform="matrix(1,0,0,1,460.051,-1723.49)">
            <g transform="matrix(48,0,0,48,368.503,1953.88)">
                <path d="M0.057,-0.5L0.152,-0.5L0.167,-0.44L0.171,-0.44C0.188,-0.465 0.209,-0.484 0.233,-0.496C0.256,-0.508 0.285,-0.514 0.319,-0.514C0.382,-0.514 0.429,-0.494 0.46,-0.455C0.491,-0.415 0.507,-0.351 0.507,-0.263C0.507,-0.22 0.502,-0.182 0.492,-0.148C0.482,-0.113 0.467,-0.084 0.448,-0.06C0.428,-0.036 0.404,-0.018 0.376,-0.005C0.347,0.008 0.315,0.014 0.278,0.014C0.257,0.014 0.24,0.012 0.227,0.01C0.214,0.007 0.2,0.002 0.187,-0.005L0.187,0.2L0.057,0.2L0.057,-0.5ZM0.28,-0.404C0.255,-0.404 0.235,-0.398 0.221,-0.385C0.206,-0.372 0.195,-0.353 0.187,-0.328L0.187,-0.12C0.196,-0.113 0.207,-0.107 0.218,-0.103C0.229,-0.098 0.243,-0.096 0.261,-0.096C0.298,-0.096 0.326,-0.109 0.345,-0.136C0.364,-0.162 0.373,-0.205 0.373,-0.266C0.373,-0.31 0.366,-0.344 0.351,-0.368C0.336,-0.392 0.313,-0.404 0.28,-0.404Z" style="fill-rule:nonzero;"/>
            </g>
            <g transform="matrix(27.984,0,0,27.984,394.423,1969.87)">
                <path d="M0.241,-0.096C0.282,-0.096 0.314,-0.107 0.336,-0.129C0.357,-0.151 0.368,-0.178 0.368,-0.209C0.368,-0.247 0.357,-0.275 0.334,-0.293C0.311,-0.311 0.276,-0.32 0.227,-0.32L0.155,-0.32L0.155,-0.389L0.276,-0.554L0.333,-0.599L0.254,-0.59L0.086,-0.59L0.086,-0.7L0.468,-0.7L0.468,-0.629L0.327,-0.44L0.283,-0.413L0.283,-0.408L0.325,-0.414C0.348,-0.412 0.371,-0.407 0.392,-0.398C0.413,-0.389 0.431,-0.377 0.447,-0.361C0.462,-0.344 0.475,-0.324 0.484,-0.3C0.493,-0.276 0.498,-0.248 0.498,-0.217C0.498,-0.178 0.492,-0.144 0.479,-0.115C0.466,-0.086 0.448,-0.062 0.425,-0.043C0.401,-0.024 0.375,-0.009 0.344,-0C0.313,0.009 0.28,0.014 0.245,0.014C0.216,0.014 0.185,0.011 0.154,0.006C0.123,0.001 0.097,-0.007 0.078,-0.017L0.113,-0.125C0.13,-0.116 0.15,-0.109 0.171,-0.104C0.192,-0.099 0.215,-0.096 0.241,-0.096Z" style="fill-rule:nonzero;"/>
            </g>
        </g>
        <g transform="matrix(1,0,0,1,-109.651,-1444.13)">
            <g transform="matrix(48,0,0,48,368.503,1953.88)">
                <path d="M0.057,-0.5L0.152,-0.5L0.167,-0.44L0.171,-0.44C0.188,-0.465 0.209,-0.484 0.233,-0.496C0.256,-0.508 0.285,-0.514 0.319,-0.514C0.382,-0.514 0.429,-0.494 0.46,-0.455C0.491,-0.415 0.507,-0.351 0.507,-0.263C0.507,-0.22 0.502,-0.182 0.492,-0.148C0.482,-0.113 0.467,-0.084 0.448,-0.06C0.428,-0.036 0.404,-0.018 0.376,-0.005C0.347,0.008 0.315,0.014 0.278,0.014C0.257,0.014 0.24,0.012 0.227,0.01C0.214,0.007 0.2,0.002 0.187,-0.005L0.187,0.2L0.057,0.2L0.057,-0.5ZM0.28,-0.404C0.255,-0.404 0.235,-0.398 0.221,-0.385C0.206,-0.372 0.195,-0.353 0.187,-0.328L0.187,-0.12C0.196,-0.113 0.207,-0.107 0.218,-0.103C0.229,-0.098 0.243,-0.096 0.261,-0.096C0.298,-0.096 0.326,-0.109 0.345,-0.136C0.364,-0.162 0.373,-0.205 0.373,-0.266C0.373,-0.31 0.366,-0.344 0.351,-0.368C0.336,-0.392 0.313,-0.404 0.28,-0.404Z" style="fill-rule:nonzero;"/>
            </g>
            <g transform="matrix(27.984,0,0,27.984,394.423,1969.87)">
                <path d="M0.553,-0.195L0.443,-0.195L0.443,-0L0.322,-0L0.322,-0.195L0.019,-0.195L0.019,-0.269L0.336,-0.705L0.443,-0.705L0.443,-0.299L0.553,-0.299L0.553,-0.195ZM0.322,-0.452L0.331,-0.536L0.327,-0.536L0.293,-0.464L0.189,-0.329L0.139,-0.291L0.203,-0.299L0.322,-0.299L0.322,-0.452Z" style="fill-rule:nonzero;"/>
            </g>
        </g>
        <g transform="matrix(1,0,0,1,450.512,-1457.35)">
            <g transform="matrix(48,0,0,48,368.503,1953.88)">
                <path d="M0.057,-0.5L0.152,-0.5L0.167,-0.44L0.171,-0.44C0.188,-0.465 0.209,-0.484 0.233,-0.496C0.256,-0.508 0.285,-0.514 0.319,-0.514C0.382,-0.514 0.429,-0.494 0.46,-0.455C0.491,-0.415 0.507,-0.351 0.507,-0.263C0.507,-0.22 0.502,-0.182 0.492,-0.148C0.482,-0.113 0.467,-0.084 0.448,-0.06C0.428,-0.036 0.404,-0.018 0.376,-0.005C0.347,0.008 0.315,0.014 0.278,0.014C0.257,0.014 0.24,0.012 0.227,0.01C0.214,0.007 0.2,0.002 0.187,-0.005L0.187,0.2L0.057,0.2L0.057,-0.5ZM0.28,-0.404C0.255,-0.404 0.235,-0.398 0.221,-0.385C0.206,-0.372 0.195,-0.353 0.187,-0.328L0.187,-0.12C0.196,-0.113 0.207,-0.107 0.218,-0.103C0.229,-0.098 0.243,-0.096 0.261,-0.096C0.298,-0.096 0.326,-0.109 0.345,-0.136C0.364,-0.162 0.373,-0.205 0.373,-0.266C0.373,-0.31 0.366,-0.344 0.351,-0.368C0.336,-0.392 0.313,-0.404 0.28,-0.404Z" style="fill-rule:nonzero;"/>
            </g>
            <g transform="matrix(27.984,0,0,27.984,394.423,1969.87)">
                <path d="M0.553,-0.195L0.443,-0.195L0.443,-0L0.322,-0L0.322,-0.195L0.019,-0.195L0.019,-0.269L0.336,-0.705L0.443,-0.705L0.443,-0.299L0.553,-0.299L0.553,-0.195ZM0.322,-0.452L0.331,-0.536L0.327,-0.536L0.293,-0.464L0.189,-0.329L0.139,-0.291L0.203,-0.299L0.322,-0.299L0.322,-0.452Z" style="fill-rule:nonzero;"/>
            </g>
        </g>
        <g transform="matrix(1,0,0,1,-325.59,-1615.59)">
            <g transform="matrix(48,0,0,48,368.503,1953.88)">
                <path d="M0.057,-0.5L0.152,-0.5L0.167,-0.44L0.171,-0.44C0.188,-0.465 0.209,-0.484 0.233,-0.496C0.256,-0.508 0.285,-0.514 0.319,-0.514C0.382,-0.514 0.429,-0.494 0.46,-0.455C0.491,-0.415 0.507,-0.351 0.507,-0.263C0.507,-0.22 0.502,-0.182 0.492,-0.148C0.482,-0.113 0.467,-0.084 0.448,-0.06C0.428,-0.036 0.404,-0.018 0.376,-0.005C0.347,0.008 0.315,0.014 0.278,0.014C0.257,0.014 0.24,0.012 0.227,0.01C0.214,0.007 0.2,0.002 0.187,-0.005L0.187,0.2L0.057,0.2L0.057,-0.5ZM0.28,-0.404C0.255,-0.404 0.235,-0.398 0.221,-0.385C0.206,-0.372 0.195,-0.353 0.187,-0.328L0.187,-0.12C0.196,-0.113 0.207,-0.107 0.218,-0.103C0.229,-0.098 0.243,-0.096 0.261,-0.096C0.298,-0.096 0.326,-0.109 0.345,-0.136C0.364,-0.162 0.373,-0.205 0.373,-0.266C0.373,-0.31 0.366,-0.344 0.351,-0.368C0.336,-0.392 0.313,-0.404 0.28,-0.404Z" style="fill-rule:nonzero;"/>
            </g>
            <g transform="matrix(27.984,0,0,27.984,394.423,1969.87)">
                <path d="M0.22,-0.101C0.264,-0.101 0.298,-0.112 0.321,-0.133C0.344,-0.154 0.356,-0.184 0.356,-0.221C0.356,-0.261 0.342,-0.29 0.315,-0.309C0.288,-0.328 0.249,-0.337 0.198,-0.337L0.119,-0.334L0.119,-0.7L0.463,-0.7L0.463,-0.578L0.231,-0.578L0.231,-0.443L0.272,-0.447C0.305,-0.446 0.334,-0.44 0.361,-0.429C0.387,-0.418 0.409,-0.404 0.428,-0.385C0.447,-0.366 0.461,-0.342 0.471,-0.316C0.481,-0.289 0.486,-0.258 0.486,-0.225C0.486,-0.186 0.479,-0.151 0.466,-0.121C0.453,-0.091 0.434,-0.066 0.411,-0.046C0.387,-0.026 0.359,-0.011 0.327,-0.001C0.295,0.009 0.26,0.014 0.222,0.014C0.192,0.014 0.164,0.012 0.137,0.007C0.11,0.002 0.087,-0.005 0.068,-0.014L0.103,-0.122C0.118,-0.115 0.135,-0.11 0.154,-0.107C0.172,-0.103 0.194,-0.101 0.22,-0.101Z" style="fill-rule:nonzero;"/>
            </g>
        </g>
        <g transform="matrix(1,0,0,1,277.057,-1613.8)">
            <g transform="matrix(48,0,0,48,368.503,1953.88)">
                <path d="M0.057,-0.5L0.152,-0.5L0.167,-0.44L0.171,-0.44C0.188,-0.465 0.209,-0.484 0.233,-0.496C0.256,-0.508 0.285,-0.514 0.319,-0.514C0.382,-0.514 0.429,-0.494 0.46,-0.455C0.491,-0.415 0.507,-0.351 0.507,-0.263C0.507,-0.22 0.502,-0.182 0.492,-0.148C0.482,-0.113 0.467,-0.084 0.448,-0.06C0.428,-0.036 0.404,-0.018 0.376,-0.005C0.347,0.008 0.315,0.014 0.278,0.014C0.257,0.014 0.24,0.012 0.227,0.01C0.214,0.007 0.2,0.002 0.187,-0.005L0.187,0.2L0.057,0.2L0.057,-0.5ZM0.28,-0.404C0.255,-0.404 0.235,-0.398 0.221,-0.385C0.206,-0.372 0.195,-0.353 0.187,-0.328L0.187,-0.12C0.196,-0.113 0.207,-0.107 0.218,-0.103C0.229,-0.098 0.243,-0.096 0.261,-0.096C0.298,-0.096 0.326,-0.109 0.345,-0.136C0.364,-0.162 0.373,-0.205 0.373,-0.266C0.373,-0.31 0.366,-0.344 0.351,-0.368C0.336,-0.392 0.313,-0.404 0.28,-0.404Z" style="fill-rule:nonzero;"/>
            </g>
            <g transform="matrix(27.984,0,0,27.984,394.423,1969.87)">
                <path d="M0.22,-0.101C0.264,-0.101 0.298,-0.112 0.321,-0.133C0.344,-0.154 0.356,-0.184 0.356,-0.221C0.356,-0.261 0.342,-0.29 0.315,-0.309C0.288,-0.328 0.249,-0.337 0.198,-0.337L0.119,-0.334L0.119,-0.7L0.463,-0.7L0.463,-0.578L0.231,-0.578L0.231,-0.443L0.272,-0.447C0.305,-0.446 0.334,-0.44 0.361,-0.429C0.387,-0.418 0.409,-0.404 0.428,-0.385C0.447,-0.366 0.461,-0.342 0.471,-0.316C0.481,-0.289 0.486,-0.258 0.486,-0.225C0.486,-0.186 0.479,-0.151 0.466,-0.121C0.453,-0.091 0.434,-0.066 0.411,-0.046C0.387,-0.026 0.359,-0.011 0.327,-0.001C0.295,0.009 0.26,0.014 0.222,0.014C0.192,0.014 0.164,0.012 0.137,0.007C0.11,0.002 0.087,-0.005 0.068,-0.014L0.103,-0.122C0.118,-0.115 0.135,-0.11 0.154,-0.107C0.172,-0.103 0.194,-0.101 0.22,-0.101Z" style="fill-rule:nonzero;"/>
            </g>
        </g>
        <path d="M106.199,313.407C110.773,317.981 110.773,325.408 106.199,329.982C101.626,334.556 94.199,334.556 89.625,329.982C85.051,325.408 85.051,317.981 89.625,313.407C94.199,308.834 101.626,308.834 106.199,313.407Z"/>
        <path d="M708.847,315.193C713.42,319.767 713.42,327.194 708.847,331.768C704.273,336.342 696.846,336.342 692.272,331.768C687.698,327.194 687.698,319.767 692.272,315.193C696.846,310.619 704.273,310.619 708.847,315.193Z"/>
        <path d="M187.616,88.851C192.19,93.425 192.19,100.852 187.616,105.426C183.042,109.999 175.615,109.999 171.041,105.426C166.467,100.852 166.467,93.425 171.041,88.851C175.615,84.277 183.042,84.277 187.616,88.851Z"/>
        <path d="M790.263,90.637C794.837,95.211 794.837,102.638 790.263,107.211C785.689,111.785 778.262,111.785 773.688,107.211C769.114,102.638 769.114,95.211 773.688,90.637C778.262,86.063 785.689,86.063 790.263,90.637Z"/>
        <path d="M423.225,136.764C427.799,141.338 427.799,148.765 423.225,153.339C418.651,157.913 411.224,157.913 406.65,153.339C402.077,148.765 402.077,141.338 406.65,136.764C411.224,132.19 418.651,132.19 423.225,136.764Z"/>
        <path d="M1025.87,138.55C1030.45,143.124 1030.45,150.551 1025.87,155.125C1021.3,159.699 1013.87,159.699 1009.3,155.125C1004.72,150.551 1004.72,143.124 1009.3,138.55C1013.87,133.976 1021.3,133.976 1025.87,138.55Z"/>
        <path d="M469.168,341.703C473.742,346.276 473.742,353.703 469.168,358.277C464.594,362.851 457.167,362.851 452.593,358.277C448.019,353.703 448.019,346.276 452.593,341.703C457.167,337.129 464.594,337.129 469.168,341.703Z"/>
        <path d="M885.302,262.603C889.876,267.177 889.876,274.604 885.302,279.178C880.728,283.752 873.301,283.752 868.727,279.178C864.153,274.604 864.153,267.177 868.727,262.603C873.301,258.029 880.728,258.029 885.302,262.603Z"/>
        <path d="M281.086,442.74C285.66,447.314 285.66,454.741 281.086,459.315C276.512,463.889 269.085,463.889 264.511,459.315C259.937,454.741 259.937,447.314 264.511,442.74C269.085,438.167 276.512,438.167 281.086,442.74Z"/>
        <path d="M883.733,444.526C888.307,449.1 888.307,456.527 883.733,461.101C879.159,465.675 871.732,465.675 867.158,461.101C862.584,456.527 862.584,449.1 867.158,444.526C871.732,439.953 879.159,439.953 883.733,444.526Z"/>
        <path d="M1152.65,27.266L701.279,425.223" style="fill:none;stroke:black;stroke-width:2px;stroke-dasharray:2,4,0,0;"/>
        <path d="M880.382,36.181L873.647,555.843" style="fill:none;stroke:black;stroke-width:2px;stroke-dasharray:2,4,0,0;"/>
        <circle cx="364.167" cy="292.395" r="16.72" style="fill:rgb(247,0,255);"/>
        <circle cx="969.1" cy="296.395" r="16.72" style="fill:rgb(247,0,255);"/>
    </g>
</svg>
