<?xml version="1.0" encoding="UTF-8" standalone="no"?>
<!DOCTYPE svg PUBLIC "-//W3C//DTD SVG 1.1//EN" "http://www.w3.org/Graphics/SVG/1.1/DTD/svg11.dtd">
<svg width="100%" height="100%" viewBox="0 0 787 1218" version="1.1" xmlns="http://www.w3.org/2000/svg" xmlns:xlink="http://www.w3.org/1999/xlink" xml:space="preserve" xmlns:serif="http://www.serif.com/" style="fill-rule:evenodd;clip-rule:evenodd;stroke-linejoin:round;stroke-miterlimit:10;">
    <rect id="Spatial-Databases-2" serif:id="Spatial Databases 2" x="-1089.91" y="-3139" width="3858" height="5937" style="fill:none;"/>
    <path d="M43.954,501.899C45.778,501.467 47.746,501.179 49.858,501.035C51.97,500.891 54.058,500.819 56.122,500.819C58.33,500.819 60.574,501.035 62.854,501.467C65.134,501.899 67.21,502.691 69.082,503.843C70.954,504.995 72.478,506.579 73.654,508.595C74.83,510.611 75.418,513.179 75.418,516.299C75.418,519.371 74.866,521.963 73.762,524.075C72.658,526.187 71.194,527.903 69.37,529.223C67.546,530.543 65.458,531.491 63.106,532.067C60.754,532.643 58.33,532.931 55.834,532.931L54.646,532.931C54.094,532.931 53.518,532.919 52.918,532.895C52.318,532.871 51.73,532.835 51.154,532.787C50.578,532.739 50.17,532.691 49.93,532.643L49.93,551.795L43.954,551.795L43.954,501.899ZM56.266,506.003C55.018,506.003 53.818,506.027 52.666,506.075C51.514,506.123 50.602,506.243 49.93,506.435L49.93,527.315C50.17,527.411 50.554,527.471 51.082,527.495C51.61,527.519 52.162,527.543 52.738,527.567C53.314,527.591 53.866,527.603 54.394,527.603L55.546,527.603C57.178,527.603 58.798,527.447 60.406,527.135C62.014,526.823 63.466,526.259 64.762,525.443C66.058,524.627 67.102,523.475 67.894,521.987C68.686,520.499 69.082,518.603 69.082,516.299C69.082,514.331 68.71,512.687 67.966,511.367C67.222,510.047 66.238,508.991 65.014,508.199C63.79,507.407 62.41,506.843 60.874,506.507C59.338,506.171 57.802,506.003 56.266,506.003Z" style="fill-rule:nonzero;"/>
    <path d="M83.41,526.595C83.41,518.243 84.886,511.811 87.838,507.299C90.79,502.787 95.338,500.531 101.482,500.531C104.842,500.531 107.686,501.155 110.014,502.403C112.342,503.651 114.226,505.415 115.666,507.695C117.106,509.975 118.138,512.711 118.762,515.903C119.386,519.095 119.698,522.659 119.698,526.595C119.698,534.947 118.222,541.379 115.27,545.891C112.318,550.403 107.722,552.659 101.482,552.659C98.17,552.659 95.362,552.035 93.058,550.787C90.754,549.539 88.882,547.775 87.442,545.495C86.002,543.215 84.97,540.479 84.346,537.287C83.722,534.095 83.41,530.531 83.41,526.595ZM89.746,526.595C89.746,529.379 89.926,532.019 90.286,534.515C90.646,537.011 91.282,539.207 92.194,541.103C93.106,542.999 94.306,544.511 95.794,545.639C97.282,546.767 99.178,547.331 101.482,547.331C105.61,547.331 108.622,545.651 110.518,542.291C112.414,538.931 113.362,533.699 113.362,526.595C113.362,523.859 113.182,521.231 112.822,518.711C112.462,516.191 111.826,513.983 110.914,512.087C110.002,510.191 108.778,508.679 107.242,507.551C105.706,506.423 103.786,505.859 101.482,505.859C97.402,505.859 94.426,507.551 92.554,510.935C90.682,514.319 89.746,519.539 89.746,526.595Z" style="fill-rule:nonzero;"/>
    <path d="M129.634,501.395L135.61,501.395L135.61,546.467L155.986,546.467L155.986,533.939L161.314,533.939L161.314,551.795L129.634,551.795L129.634,501.395Z" style="fill-rule:nonzero;"/>
    <path d="M185.002,532.499L167.002,501.395L173.986,501.395L188.386,526.307L188.458,526.307L202.498,501.395L208.906,501.395L190.978,532.427L190.978,551.795L185.002,551.795L185.002,532.499Z" style="fill-rule:nonzero;"/>
    <path d="M242.458,528.683L219.85,528.683L219.85,551.795L213.874,551.795L213.874,501.395L219.85,501.395L219.85,523.355L242.458,523.355L242.458,501.395L248.434,501.395L248.434,551.795L242.458,551.795L242.458,528.683Z" style="fill-rule:nonzero;"/>
    <path d="M260.458,501.395L290.05,501.395L290.05,506.723L266.434,506.723L266.434,523.211L288.25,523.211L288.25,528.539L266.434,528.539L266.434,546.467L290.41,546.467L290.41,551.795L260.458,551.795L260.458,501.395Z" style="fill-rule:nonzero;"/>
    <path d="M301.714,501.395C303.538,501.155 305.446,500.999 307.438,500.927C309.43,500.855 311.122,500.819 312.514,500.819C316.882,500.819 320.542,501.443 323.494,502.691C326.446,503.939 328.822,505.679 330.622,507.911C332.422,510.143 333.718,512.819 334.51,515.939C335.302,519.059 335.698,522.491 335.698,526.235C335.698,529.643 335.338,532.919 334.618,536.063C333.898,539.207 332.65,541.991 330.874,544.415C329.098,546.839 326.71,548.783 323.71,550.247C320.71,551.711 316.954,552.443 312.442,552.443C311.818,552.443 311.002,552.431 309.994,552.407C308.986,552.383 307.954,552.335 306.898,552.263C305.842,552.191 304.834,552.131 303.874,552.083C302.914,552.035 302.194,551.963 301.714,551.867L301.714,501.395ZM312.802,506.147C312.13,506.147 311.278,506.171 310.246,506.219C309.214,506.267 308.362,506.363 307.69,506.507L307.69,546.827C307.93,546.875 308.278,546.911 308.734,546.935L311.542,547.079C311.998,547.103 312.37,547.115 312.658,547.115C316.162,547.115 319.006,546.539 321.19,545.387C323.374,544.235 325.066,542.687 326.266,540.743C327.466,538.799 328.282,536.567 328.714,534.047C329.146,531.527 329.362,528.923 329.362,526.235C329.362,523.883 329.17,521.519 328.786,519.143C328.402,516.767 327.622,514.619 326.446,512.699C325.27,510.779 323.59,509.207 321.406,507.983C319.222,506.759 316.354,506.147 312.802,506.147Z" style="fill-rule:nonzero;"/>
    <path d="M346.354,501.899C348.178,501.563 350.278,501.299 352.654,501.107C355.03,500.915 357.202,500.819 359.17,500.819C361.378,500.819 363.478,501.059 365.47,501.539C367.462,502.019 369.214,502.811 370.726,503.915C372.238,505.019 373.45,506.459 374.362,508.235C375.274,510.011 375.73,512.171 375.73,514.715C375.73,516.683 375.406,518.423 374.758,519.935C374.11,521.447 373.318,522.743 372.382,523.823C371.446,524.903 370.474,525.779 369.466,526.451C368.458,527.123 367.594,527.603 366.874,527.891L380.194,551.795L373.21,551.795L361.33,529.619L352.33,529.619L352.33,551.795L346.354,551.795L346.354,501.899ZM359.314,506.003L357.37,506.003C356.698,506.003 356.05,506.027 355.426,506.075C354.802,506.123 354.214,506.171 353.662,506.219C353.11,506.267 352.666,506.339 352.33,506.435L352.33,525.011L357.946,525.011C361.258,525.011 363.994,524.195 366.154,522.563C368.314,520.931 369.394,518.387 369.394,514.931C369.394,512.339 368.506,510.203 366.73,508.523C364.954,506.843 362.482,506.003 359.314,506.003Z" style="fill-rule:nonzero;"/>
    <path d="M413.386,537.827L394.018,537.827L389.41,551.795L383.506,551.795L400.354,501.395L407.41,501.395L424.402,551.795L418.138,551.795L413.386,537.827ZM395.89,532.643L411.73,532.643L404.314,508.955L403.45,508.955L395.89,532.643Z" style="fill-rule:nonzero;"/>
    <path d="M432.034,501.395L438.01,501.395L438.01,546.467L458.386,546.467L458.386,533.939L463.714,533.939L463.714,551.795L432.034,551.795L432.034,501.395Z" style="fill-rule:nonzero;"/>
    <path d="M479.554,544.667C480.994,545.435 482.614,546.071 484.414,546.575C486.214,547.079 488.026,547.331 489.85,547.331C491.434,547.331 492.922,547.175 494.314,546.863C495.706,546.551 496.918,546.047 497.95,545.351C498.982,544.655 499.798,543.779 500.398,542.723C500.998,541.667 501.298,540.419 501.298,538.979C501.298,537.011 500.638,535.403 499.318,534.155C497.998,532.907 496.354,531.803 494.386,530.843C492.418,529.883 490.282,528.947 487.978,528.035C485.674,527.123 483.538,526.043 481.57,524.795C479.602,523.547 477.958,522.023 476.638,520.223C475.318,518.423 474.658,516.131 474.658,513.347C474.658,511.379 475.054,509.603 475.846,508.019C476.638,506.435 477.754,505.091 479.194,503.987C480.634,502.883 482.374,502.031 484.414,501.431C486.454,500.831 488.722,500.531 491.218,500.531C494.098,500.531 496.714,500.735 499.066,501.143C501.418,501.551 503.29,502.091 504.682,502.763L504.826,502.691L504.826,502.835L504.898,502.835L504.826,503.051L504.826,514.571L499.498,514.571L499.498,506.867C498.298,506.579 496.978,506.339 495.538,506.147C494.098,505.955 492.562,505.859 490.93,505.859C489.346,505.859 487.918,506.051 486.646,506.435C485.374,506.819 484.294,507.335 483.406,507.983C482.518,508.631 481.834,509.387 481.354,510.251C480.874,511.115 480.634,512.027 480.634,512.987C480.634,514.859 481.294,516.419 482.614,517.667C483.934,518.915 485.578,520.031 487.546,521.015C489.514,521.999 491.65,522.971 493.954,523.931C496.258,524.891 498.394,526.007 500.362,527.279C502.33,528.551 503.974,530.075 505.294,531.851C506.614,533.627 507.274,535.835 507.274,538.475C507.274,540.635 506.878,542.579 506.086,544.307C505.294,546.035 504.166,547.523 502.702,548.771C501.238,550.019 499.438,550.979 497.302,551.651C495.166,552.323 492.754,552.659 490.066,552.659C488.242,552.659 486.514,552.515 484.882,552.227C483.25,551.939 481.75,551.579 480.382,551.147C479.014,550.715 477.79,550.259 476.71,549.779C475.63,549.299 474.778,548.891 474.154,548.555L474.226,548.339L474.226,536.675L479.554,536.675L479.554,544.667Z" style="fill-rule:nonzero;"/>
    <path d="M545.074,501.395L550.834,501.395L550.834,535.019C550.834,538.043 550.438,540.659 549.646,542.867C548.854,545.075 547.738,546.887 546.298,548.303C544.858,549.719 543.106,550.763 541.042,551.435C538.978,552.107 536.698,552.443 534.202,552.443C528.25,552.443 523.774,551.099 520.774,548.411C517.774,545.723 516.274,541.643 516.274,536.171L516.274,501.395L522.25,501.395L522.25,533.363C522.25,535.907 522.502,538.055 523.006,539.807C523.51,541.559 524.254,542.975 525.238,544.055C526.222,545.135 527.47,545.915 528.982,546.395C530.494,546.875 532.258,547.115 534.274,547.115C538.162,547.115 540.934,546.047 542.59,543.911C544.246,541.775 545.074,538.259 545.074,533.363L545.074,501.395Z" style="fill-rule:nonzero;"/>
    <path d="M562.354,501.899C564.178,501.563 566.278,501.299 568.654,501.107C571.03,500.915 573.202,500.819 575.17,500.819C577.378,500.819 579.478,501.059 581.47,501.539C583.462,502.019 585.214,502.811 586.726,503.915C588.238,505.019 589.45,506.459 590.362,508.235C591.274,510.011 591.73,512.171 591.73,514.715C591.73,516.683 591.406,518.423 590.758,519.935C590.11,521.447 589.318,522.743 588.382,523.823C587.446,524.903 586.474,525.779 585.466,526.451C584.458,527.123 583.594,527.603 582.874,527.891L596.194,551.795L589.21,551.795L577.33,529.619L568.33,529.619L568.33,551.795L562.354,551.795L562.354,501.899ZM575.314,506.003L573.37,506.003C572.698,506.003 572.05,506.027 571.426,506.075C570.802,506.123 570.214,506.171 569.662,506.219C569.11,506.267 568.666,506.339 568.33,506.435L568.33,525.011L573.946,525.011C577.258,525.011 579.994,524.195 582.154,522.563C584.314,520.931 585.394,518.387 585.394,514.931C585.394,512.339 584.506,510.203 582.73,508.523C580.954,506.843 578.482,506.003 575.314,506.003Z" style="fill-rule:nonzero;"/>
    <path d="M606.778,501.395L635.65,501.395L635.65,506.723L612.754,506.723L612.754,523.931L634.21,523.931L634.21,529.259L612.754,529.259L612.754,551.795L606.778,551.795L606.778,501.395Z" style="fill-rule:nonzero;"/>
    <path d="M672.586,537.827L653.218,537.827L648.61,551.795L642.706,551.795L659.554,501.395L666.61,501.395L683.602,551.795L677.338,551.795L672.586,537.827ZM655.09,532.643L670.93,532.643L663.514,508.955L662.65,508.955L655.09,532.643Z" style="fill-rule:nonzero;"/>
    <path d="M717.73,506.867C716.914,506.531 716.014,506.279 715.03,506.111C714.046,505.943 712.858,505.859 711.466,505.859C709.498,505.859 707.566,506.219 705.67,506.939C703.774,507.659 702.094,508.835 700.63,510.467C699.166,512.099 697.99,514.235 697.102,516.875C696.214,519.515 695.77,522.755 695.77,526.595C695.77,530.051 696.166,533.075 696.958,535.667C697.75,538.259 698.854,540.419 700.27,542.147C701.686,543.875 703.39,545.171 705.382,546.035C707.374,546.899 709.594,547.331 712.042,547.331C713.29,547.331 714.454,547.223 715.534,547.007C716.614,546.791 717.61,546.491 718.522,546.107L718.522,538.907L723.85,538.907L723.85,548.627L723.922,548.771C722.482,549.875 720.658,550.799 718.45,551.543C716.242,552.287 713.554,552.659 710.386,552.659C707.362,552.659 704.566,552.143 701.998,551.111C699.43,550.079 697.21,548.507 695.338,546.395C693.466,544.283 692.014,541.583 690.982,538.295C689.95,535.007 689.434,531.107 689.434,526.595C689.434,521.891 690.01,517.895 691.162,514.607C692.314,511.319 693.874,508.631 695.842,506.543C697.81,504.455 700.102,502.931 702.718,501.971C705.334,501.011 708.13,500.531 711.106,500.531C712.738,500.531 714.154,500.591 715.354,500.711C716.554,500.831 717.61,500.999 718.522,501.215C719.434,501.431 720.238,501.707 720.934,502.043C721.63,502.379 722.314,502.763 722.986,503.195L723.058,503.195L723.058,514.571L717.73,514.571L717.73,506.867Z" style="fill-rule:nonzero;"/>
    <path d="M735.658,501.395L765.25,501.395L765.25,506.723L741.634,506.723L741.634,523.211L763.45,523.211L763.45,528.539L741.634,528.539L741.634,546.467L765.61,546.467L765.61,551.795L735.658,551.795L735.658,501.395Z" style="fill-rule:nonzero;"/>
    <path d="M344,1151.92L381.44,1151.92L381.44,1165.1L376.112,1165.1L376.112,1157.25L365.672,1157.25L365.672,1197L373.592,1197L373.592,1202.33L351.776,1202.33L351.776,1197L359.696,1197L359.696,1157.25L349.328,1157.25L349.328,1165.1L344,1165.1L344,1151.92Z" style="fill-rule:nonzero;"/>
    <path d="M388.64,1151.92L423.2,1151.92L423.2,1157.25L408.872,1157.25L408.872,1197L423.2,1197L423.2,1202.33L388.64,1202.33L388.64,1197L402.896,1197L402.896,1157.25L388.64,1157.25L388.64,1151.92Z" style="fill-rule:nonzero;"/>
    <path d="M441.632,1170.79L437.744,1163.52L437.456,1163.52L438.176,1170.79L438.176,1202.33L432.56,1202.33L432.56,1151.92L436.448,1151.92L456.752,1183.32L460.496,1190.23L460.856,1190.23L460.064,1183.32L460.064,1151.92L465.68,1151.92L465.68,1202.33L461.792,1202.33L441.632,1170.79Z" style="fill-rule:nonzero;"/>
    <path d="M43.954,128.347L185,47L335,182.343L230,293L72,279L43.954,128.347Z" style="fill:rgb(255,235,51);stroke:black;stroke-width:8px;"/>
    <path d="M43.954,776.717L185,695.371L335,830.714L230,941.371L72,927.371L43.954,776.717Z" style="fill:rgb(45,231,231);stroke:black;stroke-width:8px;"/>
    <path d="M335,182.343L185,47L404.782,4L484,116L335,182.343Z" style="fill:rgb(255,235,51);stroke:black;stroke-width:8px;"/>
    <path d="M335,830.714L185,695.371L404.782,652.371L484,764.371L335,830.714Z" style="fill:rgb(45,231,231);stroke:black;stroke-width:8px;"/>
    <path d="M404.782,4L704,47L484,116L404.782,4Z" style="fill:rgb(255,235,51);stroke:black;stroke-width:8px;"/>
    <path d="M404.782,652.371L704,695.371L484,764.371L404.782,652.371Z" style="fill:rgb(45,231,231);stroke:black;stroke-width:8px;"/>
    <path d="M704,47L729.61,187L703,296.5L484,116L704,47Z" style="fill:rgb(255,235,51);stroke:black;stroke-width:8px;"/>
    <path d="M704,695.371L729.61,835.371L703,944.871L484,764.371L704,695.371Z" style="fill:rgb(45,231,231);stroke:black;stroke-width:8px;"/>
    <path d="M335,182.343L458,350L703,296.5L484,116L335,182.343Z" style="fill:rgb(255,235,51);stroke:black;stroke-width:8px;"/>
    <path d="M335,830.714L458,998.371L703,944.871L484,764.371L335,830.714Z" style="fill:rgb(45,231,231);stroke:black;stroke-width:8px;"/>
    <path d="M335,182.343L458,350L230,293L335,182.343Z" style="fill:rgb(255,235,51);stroke:black;stroke-width:8px;"/>
    <path d="M335,830.714L458,998.371L230,941.371L335,830.714Z" style="fill:rgb(45,231,231);stroke:black;stroke-width:8px;"/>
    <path d="M72,279L158.477,396.5L288,431L458,350L230,293L72,279Z" style="fill:rgb(255,235,51);stroke:black;stroke-width:8px;"/>
    <path d="M72,927.371L158.477,1044.87L288,1079.37L458,998.371L230,941.371L72,927.371Z" style="fill:rgb(45,231,231);stroke:black;stroke-width:8px;"/>
    <path d="M703,296.5L458,350L288,431L520,466L666,407L703,296.5Z" style="fill:rgb(255,235,51);stroke:black;stroke-width:8px;"/>
    <path d="M703,944.871L458,998.371L288,1079.37L520,1114.37L666,1055.37L703,944.871Z" style="fill:rgb(45,231,231);stroke:black;stroke-width:8px;"/>
    <path d="M205.483,120.549L194.838,94.457L222.099,101.597L205.483,120.549Z"/>
    <path d="M283,171.75L210,107.75" style="fill:none;stroke:black;stroke-width:3px;"/>
    <path d="M328.917,121.004L340.764,146.573L313.201,140.709L328.917,121.004Z"/>
    <path d="M241,67L325,134" style="fill:none;stroke:black;stroke-width:3px;"/>
    <path d="M275.158,340.401L253.326,322.583L280.679,315.808L275.158,340.401Z"/>
    <path d="M371,349L273,327" style="fill:none;stroke:black;stroke-width:3px;"/>
    <path d="M368.845,290.599L390.673,308.421L363.319,315.191L368.845,290.599Z"/>
    <path d="M282,284L371,304" style="fill:none;stroke:black;stroke-width:3px;"/>
    <path d="M596.747,278.859L624.145,285.453L602.431,303.415L596.747,278.859Z"/>
    <path d="M496.5,315L604.5,290" style="fill:none;stroke:black;stroke-width:3px;"/>
    <path d="M518.805,375.105L491.377,368.638L513.007,350.576L518.805,375.105Z"/>
    <path d="M621,338L511,364" style="fill:none;stroke:black;stroke-width:3px;"/>
    <path d="M580.344,50.545L608.197,54.83L588.057,74.541L580.344,50.545Z"/>
    <path d="M505,88L589,61" style="fill:none;stroke:black;stroke-width:3px;"/>
    <path d="M559.108,131.667L531.275,127.254L551.505,107.636L559.108,131.667Z"/>
    <path d="M639,93.172L550.5,121.172" style="fill:none;stroke:black;stroke-width:3px;"/>
    <path d="M72,927.371L188,696" style="fill:none;stroke:black;stroke-width:8px;"/>
    <path d="M230,941.371L188,698.077" style="fill:none;stroke:black;stroke-width:8px;"/>
    <path d="M335,830.714L404.782,652.371" style="fill:none;stroke:black;stroke-width:8px;"/>
    <path d="M484,764.371L458,998.371" style="fill:none;stroke:black;stroke-width:8px;"/>
    <path d="M484,764.371L729.61,835.371" style="fill:none;stroke:black;stroke-width:8px;"/>
    <path d="M458,998.371L520,1114.37" style="fill:none;stroke:black;stroke-width:8px;"/>
    <path d="M458,998.371L663.525,1056.37" style="fill:none;stroke:black;stroke-width:8px;"/>
    <path d="M158.477,1044.87L230,941.371" style="fill:none;stroke:black;stroke-width:8px;"/>
    <path d="M288,1079.37L230,941.371" style="fill:none;stroke:black;stroke-width:8px;"/>
</svg>
