<?xml version="1.0" encoding="UTF-8" standalone="no"?>
<!DOCTYPE svg PUBLIC "-//W3C//DTD SVG 1.1//EN" "http://www.w3.org/Graphics/SVG/1.1/DTD/svg11.dtd">
<svg width="100%" height="100%" viewBox="0 0 718 430" version="1.1" xmlns="http://www.w3.org/2000/svg" xmlns:xlink="http://www.w3.org/1999/xlink" xml:space="preserve" xmlns:serif="http://www.serif.com/" style="fill-rule:evenodd;clip-rule:evenodd;stroke-linejoin:round;stroke-miterlimit:10;">
    <rect id="polygon_triangulation" x="-1792" y="-2082" width="8206" height="4260" style="fill:none;"/>
    <g id="polygon_triangulation1" serif:id="polygon_triangulation">
        <g transform="matrix(1,0,0,1,228.891,-1685.89)">
            <g transform="matrix(48,0,0,48,368.503,1953.88)">
                <path d="M0.23,-0.238L0.247,-0.161L0.252,-0.161L0.266,-0.24L0.351,-0.5L0.491,-0.5L0.282,0.005L0.203,0.005L-0.014,-0.5L0.137,-0.5L0.23,-0.238Z" style="fill-rule:nonzero;"/>
            </g>
            <g transform="matrix(27.984,0,0,27.984,391.399,1969.87)">
                <path d="M0.069,-0.5L0.199,-0.5L0.199,-0L0.069,-0L0.069,-0.5ZM0.05,-0.641C0.05,-0.66 0.057,-0.677 0.072,-0.691C0.086,-0.704 0.106,-0.711 0.131,-0.711C0.156,-0.711 0.177,-0.704 0.193,-0.691C0.208,-0.677 0.216,-0.66 0.216,-0.641C0.216,-0.622 0.208,-0.606 0.193,-0.593C0.177,-0.58 0.156,-0.573 0.131,-0.573C0.106,-0.573 0.086,-0.58 0.072,-0.593C0.057,-0.606 0.05,-0.622 0.05,-0.641Z" style="fill-rule:nonzero;"/>
            </g>
        </g>
        <path d="M92,163L112.599,161.606L120.016,173.981L152.404,184.194L191,193L278,200L292,177L232,148L281,111L279,21L346,73L387,127L518,163L583,257L522,288L697,405L560,376L491,333L367,315L277,268L211,257L206,240L186,229L148,237L162,254L142,258L100.926,252.116L59,252L40,241L25,209L52,203L62,185L78,198L114,208L91,182L92,163Z" style="fill:rgb(217,217,217);stroke:black;stroke-width:4px;"/>
        <path d="M460.666,117.205L447.766,117.205L444.586,126.505L436.366,126.505L451.486,84.205L457.546,84.205L472.666,126.505L464.026,126.505L460.666,117.205ZM449.866,110.605L458.866,110.605L455.746,101.245L454.486,94.645L454.186,94.645L452.926,101.305L449.866,110.605Z" style="fill-rule:nonzero;"/>
        <path d="M278,201L277.937,269.489L522,289L278,201Z" style="fill:rgb(248,253,112);stroke:black;stroke-width:1px;"/>
        <g id="TIN-vertices" serif:id="TIN vertices">
            <circle cx="278.5" cy="21" r="6"/>
            <circle cx="346.05" cy="71.924" r="6"/>
            <circle cx="385.853" cy="126.861" r="6"/>
            <circle cx="517.962" cy="162.818" r="6"/>
            <circle cx="582.099" cy="255.635" r="6"/>
            <circle cx="522.499" cy="286.896" r="6"/>
            <circle cx="696.102" cy="403.856" r="6"/>
            <circle cx="559.851" cy="374.786" r="6"/>
            <circle cx="491.409" cy="334.518" r="6"/>
            <circle cx="369.165" cy="315.409" r="6"/>
            <circle cx="277.766" cy="268.879" r="6"/>
            <circle cx="210.353" cy="258.488" r="6"/>
            <circle cx="206.586" cy="240.858" r="6"/>
            <circle cx="185.295" cy="229.612" r="6"/>
            <circle cx="148.113" cy="236.678" r="6"/>
            <circle cx="161.253" cy="252.116" r="6"/>
            <circle cx="143.606" cy="258.921" r="6"/>
            <circle cx="102.203" cy="251.941" r="6"/>
            <circle cx="59.388" cy="252.023" r="6"/>
            <circle cx="40.879" cy="240.595" r="6"/>
            <circle cx="26.063" cy="208.004" r="6"/>
            <circle cx="50.952" cy="203.339" r="6"/>
            <circle cx="62.719" cy="185.078" r="6"/>
            <circle cx="76.979" cy="198.219" r="6"/>
            <circle cx="113.448" cy="208.29" r="6"/>
            <circle cx="91.335" cy="182.005" r="6"/>
            <circle cx="92.835" cy="162.671" r="6"/>
            <circle cx="111.943" cy="160.338" r="6"/>
            <circle cx="120.457" cy="173.865" r="6"/>
            <circle cx="152.118" cy="184.871" r="6"/>
            <circle cx="192" cy="193" r="6"/>
            <circle cx="292.061" cy="176.479" r="6"/>
            <circle cx="411.743" cy="216.58" r="8" style="fill:rgb(246,9,9);"/>
            <circle cx="259.932" cy="240.049" r="5" style="fill:rgb(21,183,183);"/>
            <circle cx="384.052" cy="292.633" r="5" style="fill:rgb(21,183,183);"/>
            <circle cx="473.145" cy="312.863" r="5" style="fill:rgb(21,183,183);"/>
            <circle cx="521.514" cy="329.976" r="5" style="fill:rgb(21,183,183);"/>
            <circle cx="582.035" cy="353.451" r="5" style="fill:rgb(21,183,183);"/>
            <circle cx="467.554" cy="251.942" r="5" style="fill:rgb(21,183,183);"/>
            <circle cx="357.002" cy="181.463" r="5" style="fill:rgb(21,183,183);"/>
            <circle cx="466.268" cy="205.081" r="5" style="fill:rgb(21,183,183);"/>
            <circle cx="354.336" cy="165.362" r="5" style="fill:rgb(21,183,183);"/>
            <circle cx="385.361" cy="145.25" r="5" style="fill:rgb(21,183,183);"/>
            <circle cx="292.559" cy="128.434" r="5" style="fill:rgb(21,183,183);"/>
            <circle cx="338.979" cy="101.337" r="5" style="fill:rgb(21,183,183);"/>
            <circle cx="303.225" cy="69.745" r="5" style="fill:rgb(21,183,183);"/>
            <circle cx="214.573" cy="207.133" r="5" style="fill:rgb(21,183,183);"/>
            <circle cx="225.046" cy="223.247" r="5" style="fill:rgb(21,183,183);"/>
            <circle cx="232.476" cy="233.026" r="5" style="fill:rgb(21,183,183);"/>
            <circle cx="178.072" cy="204.032" r="5" style="fill:rgb(21,183,183);"/>
            <circle cx="148.186" cy="207.328" r="5" style="fill:rgb(21,183,183);"/>
            <circle cx="128.366" cy="189.117" r="5" style="fill:rgb(21,183,183);"/>
            <circle cx="108.962" cy="188.501" r="5" style="fill:rgb(21,183,183);"/>
            <circle cx="108.327" cy="173.526" r="5" style="fill:rgb(21,183,183);"/>
            <circle cx="63.062" cy="196.064" r="5" style="fill:rgb(21,183,183);"/>
            <circle cx="79.789" cy="203.455" r="5" style="fill:rgb(21,183,183);"/>
            <circle cx="58.153" cy="208.494" r="5" style="fill:rgb(21,183,183);"/>
            <circle cx="111.438" cy="215.811" r="5" style="fill:rgb(21,183,183);"/>
            <circle cx="117.016" cy="225.511" r="5" style="fill:rgb(21,183,183);"/>
            <circle cx="66.012" cy="229.857" r="5" style="fill:rgb(21,183,183);"/>
            <circle cx="76.982" cy="244.464" r="5" style="fill:rgb(21,183,183);"/>
            <circle cx="113.421" cy="246.189" r="5" style="fill:rgb(21,183,183);"/>
            <circle cx="134.859" cy="248.399" r="5" style="fill:rgb(21,183,183);"/>
            <circle cx="149.062" cy="248.985" r="5" style="fill:rgb(21,183,183);"/>
            <circle cx="99.415" cy="168.403" r="5" style="fill:rgb(21,183,183);"/>
            <circle cx="236" cy="148" r="6"/>
            <circle cx="280.601" cy="110.623" r="6"/>
            <circle cx="277.861" cy="199.957" r="6"/>
            <circle cx="331.847" cy="246.586" r="5" style="fill:rgb(16,138,138);"/>
        </g>
        <g id="TIN-edges" serif:id="TIN edges">
            <path d="M113.385,209.29L185.937,230" style="fill:none;stroke:black;stroke-width:1px;"/>
            <path d="M90.937,183L112.536,162.606" style="fill:none;stroke:black;stroke-width:1px;"/>
            <path d="M90.937,183L119.953,174.981" style="fill:none;stroke:black;stroke-width:1px;"/>
            <path d="M113.937,209L119.953,174.981" style="fill:none;stroke:black;stroke-width:1px;"/>
            <path d="M113.385,209.29L152.341,185.194" style="fill:none;stroke:black;stroke-width:1px;"/>
            <path d="M152.341,185.194L185.937,230" style="fill:none;stroke:black;stroke-width:1px;"/>
            <path d="M190.937,194L185.937,230" style="fill:none;stroke:black;stroke-width:1px;"/>
            <path d="M185.937,230L277.937,201" style="fill:none;stroke:black;stroke-width:1px;"/>
            <path d="M205.937,241L277.937,201" style="fill:none;stroke:black;stroke-width:1px;"/>
            <path d="M210.29,259.488L277.937,201" style="fill:none;stroke:black;stroke-width:1px;"/>
            <path d="M368.937,317L522.937,288" style="fill:none;stroke:black;stroke-width:1px;"/>
            <path d="M522.937,288L491.937,336" style="fill:none;stroke:black;stroke-width:1px;"/>
            <path d="M522.937,288L559.937,376" style="fill:none;stroke:black;stroke-width:1px;"/>
            <path d="M280.537,111.623L345.937,73" style="fill:none;stroke:black;stroke-width:1px;"/>
            <path d="M280.537,111.623L385.79,127.861" style="fill:none;stroke:black;stroke-width:1px;"/>
            <path d="M229.937,149L385.79,127.861" style="fill:none;stroke:black;stroke-width:1px;"/>
            <path d="M229.937,149L518.937,164" style="fill:none;stroke:black;stroke-width:1px;"/>
            <path d="M291.998,177.479L518.937,164" style="fill:none;stroke:black;stroke-width:1px;"/>
            <path d="M277.937,201L517.704,163.936" style="fill:none;stroke:black;stroke-width:1px;"/>
            <path d="M277.937,201L582.937,258" style="fill:none;stroke:black;stroke-width:1px;"/>
            <path d="M51.937,204L76.916,199.219" style="fill:none;stroke:black;stroke-width:1px;"/>
            <path d="M51.937,205.219L113.385,209.29" style="fill:none;stroke:black;stroke-width:1px;"/>
            <path d="M26,209.764L113.385,209.004" style="fill:none;stroke:black;stroke-width:1px;"/>
            <path d="M26,209.004L185.937,230" style="fill:none;stroke:black;stroke-width:1px;"/>
            <path d="M26,209.004L148.05,238.137" style="fill:none;stroke:black;stroke-width:1px;"/>
            <path d="M148.05,238.137L39.937,242" style="fill:none;stroke:black;stroke-width:1px;"/>
            <path d="M59.325,253.023L148.05,238.137" style="fill:none;stroke:black;stroke-width:1px;"/>
            <path d="M102.14,252.941L148.05,238.137" style="fill:none;stroke:black;stroke-width:1px;"/>
            <path d="M143.543,259.921L148.05,238.137" style="fill:none;stroke:black;stroke-width:1px;"/>
            <path d="M277.937,201L522.436,288.746" style="fill:none;stroke:black;stroke-width:1px;"/>
            <path d="M277.937,201L277.937,269" style="fill:none;stroke:black;stroke-width:1px;"/>
            <path d="M277.702,269L522.937,288" style="fill:none;stroke:black;stroke-width:1px;"/>
        </g>
        <path d="M451.516,210.3C450.316,211.18 448.866,211.85 447.166,212.31C445.466,212.77 443.716,213 441.916,213C439.516,213 437.486,212.62 435.826,211.86C434.166,211.1 432.816,210.03 431.776,208.65C430.736,207.27 429.986,205.6 429.526,203.64C429.066,201.68 428.836,199.52 428.836,197.16C428.836,192.08 429.976,188.17 432.256,185.43C434.536,182.69 437.856,181.32 442.216,181.32C444.416,181.32 446.186,181.5 447.526,181.86C448.866,182.22 450.076,182.68 451.156,183.24L449.296,189.6C448.376,189.16 447.466,188.82 446.566,188.58C445.666,188.34 444.636,188.22 443.476,188.22C441.316,188.22 439.676,188.93 438.556,190.35C437.436,191.77 436.876,194.04 436.876,197.16C436.876,198.44 437.016,199.62 437.296,200.7C437.576,201.78 437.996,202.72 438.556,203.52C439.116,204.32 439.846,204.95 440.746,205.41C441.646,205.87 442.696,206.1 443.896,206.1C445.216,206.1 446.336,205.93 447.256,205.59C448.176,205.25 448.996,204.84 449.716,204.36L451.516,210.3Z" style="fill:rgb(246,9,9);fill-rule:nonzero;"/>
        <g transform="matrix(1,0,0,1,-71.6164,-1707.9)">
            <g transform="matrix(48,0,0,48,368.503,1953.88)">
                <path d="M0.418,-0.033C0.398,-0.018 0.374,-0.007 0.347,0.001C0.32,0.008 0.291,0.012 0.261,0.012C0.222,0.012 0.19,0.006 0.163,-0.007C0.136,-0.019 0.115,-0.037 0.098,-0.06C0.081,-0.083 0.068,-0.11 0.061,-0.143C0.053,-0.175 0.049,-0.211 0.049,-0.25C0.049,-0.335 0.068,-0.4 0.105,-0.445C0.142,-0.49 0.196,-0.512 0.266,-0.512C0.298,-0.512 0.325,-0.51 0.348,-0.505C0.37,-0.5 0.39,-0.492 0.408,-0.483L0.385,-0.414C0.37,-0.423 0.353,-0.43 0.334,-0.435C0.315,-0.44 0.295,-0.442 0.274,-0.442C0.179,-0.442 0.132,-0.378 0.132,-0.25C0.132,-0.225 0.135,-0.2 0.14,-0.178C0.145,-0.155 0.153,-0.134 0.165,-0.117C0.176,-0.099 0.192,-0.085 0.211,-0.074C0.23,-0.063 0.253,-0.058 0.281,-0.058C0.305,-0.058 0.327,-0.062 0.346,-0.069C0.365,-0.076 0.38,-0.085 0.392,-0.094L0.418,-0.033Z" style="fill:rgb(16,138,138);fill-rule:nonzero;"/>
            </g>
            <g transform="matrix(27.984,0,0,27.984,390.151,1969.87)">
                <path d="M0.093,-0.5L0.173,-0.5L0.173,0.027C0.173,0.089 0.162,0.135 0.141,0.166C0.12,0.197 0.086,0.212 0.039,0.212C0.034,0.212 0.029,0.212 0.024,0.212C0.019,0.211 0.014,0.211 0.009,0.21L0.009,0.142C0.028,0.142 0.043,0.139 0.054,0.134C0.065,0.128 0.073,0.119 0.079,0.107C0.085,0.095 0.089,0.08 0.091,0.062C0.092,0.043 0.093,0.022 0.093,-0.003L0.093,-0.5ZM0.076,-0.652C0.076,-0.667 0.081,-0.681 0.092,-0.692C0.102,-0.703 0.115,-0.708 0.131,-0.708C0.147,-0.708 0.161,-0.703 0.172,-0.692C0.183,-0.681 0.189,-0.667 0.189,-0.652C0.189,-0.637 0.183,-0.624 0.172,-0.614C0.161,-0.604 0.147,-0.599 0.131,-0.599C0.115,-0.599 0.102,-0.604 0.092,-0.614C0.081,-0.624 0.076,-0.637 0.076,-0.652Z" style="fill:rgb(16,138,138);fill-rule:nonzero;"/>
            </g>
        </g>
        <g transform="matrix(1,0,0,1,-15.7859,-1698.12)">
            <g transform="matrix(36,0,0,36,368.503,1953.88)">
                <path d="M0.011,-0.5L0.089,-0.5L0.089,-0.599L0.169,-0.622L0.169,-0.5L0.305,-0.5L0.305,-0.43L0.169,-0.43L0.169,-0.153C0.169,-0.118 0.173,-0.094 0.182,-0.08C0.191,-0.065 0.205,-0.058 0.226,-0.058C0.243,-0.058 0.258,-0.06 0.27,-0.064C0.282,-0.067 0.295,-0.072 0.31,-0.078L0.328,-0.017C0.31,-0.008 0.29,-0.001 0.269,0.004C0.248,0.009 0.225,0.012 0.2,0.012C0.159,0.012 0.131,0.001 0.114,-0.023C0.097,-0.046 0.089,-0.084 0.089,-0.138L0.089,-0.43L0.011,-0.43L0.011,-0.5Z" style="fill:rgb(118,122,2);fill-rule:nonzero;"/>
            </g>
            <g transform="matrix(20.988,0,0,20.988,380.707,1965.87)">
                <path d="M0.093,-0.5L0.173,-0.5L0.173,0.027C0.173,0.089 0.162,0.135 0.141,0.166C0.12,0.197 0.086,0.212 0.039,0.212C0.034,0.212 0.029,0.212 0.024,0.212C0.019,0.211 0.014,0.211 0.009,0.21L0.009,0.142C0.028,0.142 0.043,0.139 0.054,0.134C0.065,0.128 0.073,0.119 0.079,0.107C0.085,0.095 0.089,0.08 0.091,0.062C0.092,0.043 0.093,0.022 0.093,-0.003L0.093,-0.5ZM0.076,-0.652C0.076,-0.667 0.081,-0.681 0.092,-0.692C0.102,-0.703 0.115,-0.708 0.131,-0.708C0.147,-0.708 0.161,-0.703 0.172,-0.692C0.183,-0.681 0.189,-0.667 0.189,-0.652C0.189,-0.637 0.183,-0.624 0.172,-0.614C0.161,-0.604 0.147,-0.599 0.131,-0.599C0.115,-0.599 0.102,-0.604 0.092,-0.614C0.081,-0.624 0.076,-0.637 0.076,-0.652Z" style="fill:rgb(118,122,2);fill-rule:nonzero;"/>
            </g>
        </g>
    </g>
</svg>
