<?xml version="1.0" encoding="UTF-8" standalone="no"?>
<!DOCTYPE svg PUBLIC "-//W3C//DTD SVG 1.1//EN" "http://www.w3.org/Graphics/SVG/1.1/DTD/svg11.dtd">
<svg width="100%" height="100%" viewBox="0 0 650 641" version="1.1" xmlns="http://www.w3.org/2000/svg" xmlns:xlink="http://www.w3.org/1999/xlink" xml:space="preserve" xmlns:serif="http://www.serif.com/" style="fill-rule:evenodd;clip-rule:evenodd;stroke-linejoin:round;stroke-miterlimit:10;">
    <rect id="Artboard10" x="-923" y="-1269" width="8206" height="4260" style="fill:none;"/>
    <g id="Artboard101" serif:id="Artboard10">
        <path d="M208.234,192.185L285.753,144.734L273.46,60.064L364.209,4.735L432.221,110.626L457.497,227.957L208.234,192.185Z" style="fill:rgb(45,231,231);stroke:black;stroke-width:6px;"/>
        <path d="M95.478,145.193L98.549,44.072L208.234,192.185L457.497,227.957L32.827,276.561L95.478,145.193Z" style="fill:rgb(248,253,112);stroke:black;stroke-width:6px;"/>
        <path d="M32.827,276.561L457.497,227.957L569.355,116.346L596,285.014L147.953,353.022L73.147,410.646L32.827,276.561Z" style="fill:rgb(249,85,185);stroke:black;stroke-width:6px;"/>
        <path d="M147.953,353.022L596,285.014L508.618,407.868L477.911,528.302L402.525,498.406L332.315,407.868L147.953,353.022Z" style="fill:rgb(144,250,46);stroke:black;stroke-width:6px;"/>
        <path d="M147.953,353.022L168.271,474.003L137.515,558.198L161.87,634.385L228.808,604.489L247.984,491.655L332.315,406.658L147.953,353.022Z" style="fill:rgb(249,185,45);stroke:black;stroke-width:6px;"/>
        <path d="M147.953,353.022L596,285.014" style="fill:none;stroke:black;stroke-width:6px;"/>
        <path d="M332.315,407.868L147.953,353.022" style="fill:none;stroke:black;stroke-width:6px;"/>
        <path d="M32.827,276.561L457.497,227.957" style="fill:none;stroke:black;stroke-width:6px;"/>
        <path d="M208.234,192.185L457.497,227.957" style="fill:none;stroke:black;stroke-width:6px;"/>
        <path d="M5,25L14,7L23,25L5,25Z"/>
        <path d="M14,637L14,21.4" style="fill:none;stroke:black;stroke-width:3px;"/>
        <path d="M43.915,27.256L32.827,7L37.483,7L45.355,21.688L46.171,24.616L46.219,24.616L47.083,21.592L54.619,7L58.891,7L47.899,27.208L47.899,40.6L43.915,40.6L43.915,27.256Z" style="fill-rule:nonzero;"/>
        <path d="M626.189,129.707C626.093,130.251 626.045,130.699 626.045,131.051C626.045,131.659 626.149,132.099 626.357,132.371C626.565,132.643 626.845,132.779 627.197,132.779C627.837,132.779 628.373,132.739 628.805,132.659C629.237,132.579 629.757,132.427 630.365,132.203L630.365,134.939C630.077,135.099 629.741,135.235 629.357,135.347C628.973,135.459 628.581,135.547 628.181,135.611C627.781,135.675 627.381,135.731 626.981,135.779C626.581,135.827 626.221,135.851 625.901,135.851C624.781,135.851 623.885,135.595 623.213,135.083C622.541,134.571 622.205,133.627 622.205,132.251C622.205,131.611 622.301,130.827 622.493,129.899L628.445,101.819L632.045,101.819L626.189,129.707Z" style="fill-rule:nonzero;"/>
        <path d="M639.629,101.819L643.181,101.819L639.821,111.083L637.661,111.083L639.629,101.819Z" style="fill-rule:nonzero;"/>
        <path d="M626.189,309.432C626.093,309.976 626.045,310.424 626.045,310.776C626.045,311.384 626.149,311.824 626.357,312.096C626.565,312.368 626.845,312.504 627.197,312.504C627.837,312.504 628.373,312.464 628.805,312.384C629.237,312.304 629.757,312.152 630.365,311.928L630.365,314.664C630.077,314.824 629.741,314.96 629.357,315.072C628.973,315.184 628.581,315.272 628.181,315.336C627.781,315.4 627.381,315.456 626.981,315.504C626.581,315.552 626.221,315.576 625.901,315.576C624.781,315.576 623.885,315.32 623.213,314.808C622.541,314.296 622.205,313.352 622.205,311.976C622.205,311.336 622.301,310.552 622.493,309.624L628.445,281.544L632.045,281.544L626.189,309.432Z" style="fill-rule:nonzero;"/>
        <path d="M639.629,281.544L643.181,281.544L639.821,290.808L637.661,290.808L639.629,281.544Z" style="fill-rule:nonzero;"/>
        <path d="M626.189,483.527C626.093,484.071 626.045,484.519 626.045,484.871C626.045,485.479 626.149,485.919 626.357,486.191C626.565,486.463 626.845,486.599 627.197,486.599C627.837,486.599 628.373,486.559 628.805,486.479C629.237,486.399 629.757,486.247 630.365,486.023L630.365,488.759C630.077,488.919 629.741,489.055 629.357,489.167C628.973,489.279 628.581,489.367 628.181,489.431C627.781,489.495 627.381,489.551 626.981,489.599C626.581,489.647 626.221,489.671 625.901,489.671C624.781,489.671 623.885,489.415 623.213,488.903C622.541,488.391 622.205,487.447 622.205,486.071C622.205,485.431 622.301,484.647 622.493,483.719L628.445,455.639L632.045,455.639L626.189,483.527Z" style="fill-rule:nonzero;"/>
        <path d="M639.629,455.639L643.181,455.639L639.821,464.903L637.661,464.903L639.629,455.639Z" style="fill-rule:nonzero;"/>
        <path d="M626.189,225.274C626.093,225.818 626.045,226.266 626.045,226.618C626.045,227.226 626.149,227.666 626.357,227.938C626.565,228.21 626.845,228.346 627.197,228.346C627.837,228.346 628.373,228.306 628.805,228.226C629.237,228.146 629.757,227.994 630.365,227.77L630.365,230.506C630.077,230.666 629.741,230.802 629.357,230.914C628.973,231.026 628.581,231.114 628.181,231.178C627.781,231.242 627.381,231.298 626.981,231.346C626.581,231.394 626.221,231.418 625.901,231.418C624.781,231.418 623.885,231.162 623.213,230.65C622.541,230.138 622.205,229.194 622.205,227.818C622.205,227.178 622.301,226.394 622.493,225.466L628.445,197.386L632.045,197.386L626.189,225.274Z" style="fill-rule:nonzero;"/>
        <path d="M639.629,197.386L643.181,197.386L639.821,206.65L637.661,206.65L639.629,197.386Z" style="fill-rule:nonzero;"/>
        <path d="M626.189,397.999C626.093,398.543 626.045,398.991 626.045,399.343C626.045,399.951 626.149,400.391 626.357,400.663C626.565,400.935 626.845,401.071 627.197,401.071C627.837,401.071 628.373,401.031 628.805,400.951C629.237,400.871 629.757,400.719 630.365,400.495L630.365,403.231C630.077,403.391 629.741,403.527 629.357,403.639C628.973,403.751 628.581,403.839 628.181,403.903C627.781,403.967 627.381,404.023 626.981,404.071C626.581,404.119 626.221,404.143 625.901,404.143C624.781,404.143 623.885,403.887 623.213,403.375C622.541,402.863 622.205,401.919 622.205,400.543C622.205,399.903 622.301,399.119 622.493,398.191L628.445,370.111L632.045,370.111L626.189,397.999Z" style="fill-rule:nonzero;"/>
        <path d="M639.629,370.111L643.181,370.111L639.821,379.375L637.661,379.375L639.629,370.111Z" style="fill-rule:nonzero;"/>
        <path d="M626.189,572.095C626.093,572.639 626.045,573.087 626.045,573.439C626.045,574.047 626.149,574.487 626.357,574.759C626.565,575.031 626.845,575.167 627.197,575.167C627.837,575.167 628.373,575.127 628.805,575.047C629.237,574.967 629.757,574.815 630.365,574.591L630.365,577.327C630.077,577.487 629.741,577.623 629.357,577.735C628.973,577.847 628.581,577.935 628.181,577.999C627.781,578.063 627.381,578.119 626.981,578.167C626.581,578.215 626.221,578.239 625.901,578.239C624.781,578.239 623.885,577.983 623.213,577.471C622.541,576.959 622.205,576.015 622.205,574.639C622.205,573.999 622.301,573.215 622.493,572.287L628.445,544.207L632.045,544.207L626.189,572.095Z" style="fill-rule:nonzero;"/>
        <path d="M639.629,544.207L643.181,544.207L639.821,553.471L637.661,553.471L639.629,544.207Z" style="fill-rule:nonzero;"/>
        <path d="M37.647,625.685C37.455,626.613 37.463,627.301 37.671,627.749C37.879,628.197 38.223,628.421 38.703,628.421C39.599,628.421 40.447,628.245 41.247,627.893L41.103,632.165C40.527,632.517 39.695,632.805 38.607,633.029C37.519,633.253 36.447,633.365 35.391,633.365C34.015,633.365 32.967,633.101 32.247,632.573C31.527,632.045 31.167,631.061 31.167,629.621C31.167,628.885 31.263,628.037 31.455,627.077L37.359,599.189L43.263,599.189L37.647,625.685Z" style="fill-rule:nonzero;"/>
        <path d="M14,119L612.205,119" style="fill:none;stroke:black;stroke-width:3px;stroke-dasharray:6,9,0,0;"/>
        <path d="M14,213.927L612.205,213.927" style="fill:none;stroke:black;stroke-width:3px;stroke-dasharray:6,9,0,0;"/>
        <path d="M14,387.095L612.205,387.095" style="fill:none;stroke:black;stroke-width:3px;stroke-dasharray:6,9,0,0;"/>
        <path d="M14,300.511L612.205,300.511" style="fill:none;stroke:black;stroke-width:3px;stroke-dasharray:6,9,0,0;"/>
        <path d="M14,473.679L612.205,473.679" style="fill:none;stroke:black;stroke-width:3px;stroke-dasharray:6,9,0,0;"/>
        <path d="M14,560.263L612.205,560.263" style="fill:none;stroke:black;stroke-width:3px;stroke-dasharray:6,9,0,0;"/>
    </g>
</svg>
