<?xml version="1.0" encoding="UTF-8" standalone="no"?>
<!DOCTYPE svg PUBLIC "-//W3C//DTD SVG 1.1//EN" "http://www.w3.org/Graphics/SVG/1.1/DTD/svg11.dtd">
<svg width="100%" height="100%" viewBox="0 0 1410 726" version="1.1" xmlns="http://www.w3.org/2000/svg" xmlns:xlink="http://www.w3.org/1999/xlink" xml:space="preserve" xmlns:serif="http://www.serif.com/" style="fill-rule:evenodd;clip-rule:evenodd;stroke-linejoin:round;stroke-miterlimit:10;">
    <rect id="Artboard10" x="-256" y="-2996" width="8206" height="4260" style="fill:none;"/>
    <g id="Artboard101" serif:id="Artboard10">
        <path d="M239.752,197.025L317.271,149.574L304.978,64.905L395.727,9.576L463.739,115.467L489.015,232.798L239.752,197.025Z" style="fill:rgb(45,231,231);stroke:black;stroke-width:6px;"/>
        <path d="M106.996,167.599L110.067,66.478L219.752,214.591L469.015,250.363L44.345,298.968L106.996,167.599Z" style="fill:rgb(248,253,112);stroke:black;stroke-width:6px;"/>
        <path d="M64.345,316.533L489.015,267.929L600.873,156.318L627.518,324.986L179.471,392.994L104.665,450.618L64.345,316.533Z" style="fill:rgb(249,85,185);stroke:black;stroke-width:6px;"/>
        <path d="M199.471,410.559L647.518,342.552L560.136,465.405L529.429,585.839L454.043,555.943L383.833,465.405L199.471,410.559Z" style="fill:rgb(144,250,46);stroke:black;stroke-width:6px;"/>
        <path d="M179.471,428.125L199.789,549.106L169.033,633.301L193.388,709.489L260.326,679.592L279.502,566.758L363.833,481.761L179.471,428.125Z" style="fill:rgb(249,185,45);stroke:black;stroke-width:6px;"/>
        <path d="M780.324,299.008L842.976,193.988L846.047,66.519L955.732,214.631L1033.25,167.18L1020.96,82.511L1111.71,27.182L1179.72,133.073L1204.99,250.404L1316.79,138.382L1343.5,307.461L1256.12,430.315L1225.41,550.749L1150.02,520.853L1079.81,430.315L995.482,514.102L976.306,626.936L909.368,656.832L885.013,580.645L915.769,496.45L895.451,375.469L820.645,433.093L780.324,299.008Z" style="fill:rgb(217,217,217);stroke:black;stroke-width:6px;"/>
        <path d="M179.243,392.994L627.291,324.986" style="fill:none;stroke:black;stroke-width:3px;"/>
        <path d="M106.783,167.14L219.525,214.591" style="fill:none;stroke:black;stroke-width:3px;"/>
        <path d="M317.044,149.574L395.5,9.576" style="fill:none;stroke:black;stroke-width:3px;"/>
        <path d="M317.044,149.574L463.511,115.467" style="fill:none;stroke:black;stroke-width:3px;"/>
        <path d="M488.787,232.798L317.044,149.574" style="fill:none;stroke:black;stroke-width:3px;"/>
        <path d="M219.525,214.591L44.117,298.968" style="fill:none;stroke:black;stroke-width:3px;"/>
        <path d="M64.117,316.533L179.243,392.994" style="fill:none;stroke:black;stroke-width:3px;"/>
        <path d="M488.787,267.929L627.291,324.986" style="fill:none;stroke:black;stroke-width:3px;"/>
        <path d="M183.154,392.994L488.787,267.929" style="fill:none;stroke:black;stroke-width:3px;"/>
        <path d="M383.606,465.405L647.518,342.552" style="fill:none;stroke:black;stroke-width:3px;"/>
        <path d="M383.606,465.405L559.908,465.405" style="fill:none;stroke:black;stroke-width:3px;"/>
        <path d="M453.816,555.943L559.908,465.405" style="fill:none;stroke:black;stroke-width:3px;"/>
        <path d="M279.275,566.758L183.154,429.288" style="fill:none;stroke:black;stroke-width:3px;"/>
        <path d="M199.562,549.106L279.275,566.758" style="fill:none;stroke:black;stroke-width:3px;"/>
        <path d="M168.805,633.301L279.275,566.758" style="fill:none;stroke:black;stroke-width:3px;"/>
        <path d="M168.805,633.301L260.099,679.592" style="fill:none;stroke:black;stroke-width:3px;"/>
        <path d="M842.976,193.988L955.732,214.631" style="fill:none;stroke:black;stroke-width:3px;"/>
        <path d="M780.324,299.008L955.732,214.631" style="fill:none;stroke:black;stroke-width:3px;"/>
        <path d="M1033.25,167.18L1111.71,27.182" style="fill:none;stroke:black;stroke-width:3px;"/>
        <path d="M1033.25,167.18L1179.72,133.073" style="fill:none;stroke:black;stroke-width:3px;"/>
        <path d="M1033.25,167.18L1204.99,250.404" style="fill:none;stroke:black;stroke-width:3px;"/>
        <path d="M955.732,214.631L1204.99,250.404" style="fill:none;stroke:black;stroke-width:3px;"/>
        <path d="M780.324,299.008L1204.99,250.404" style="fill:none;stroke:black;stroke-width:3px;"/>
        <path d="M1204.99,250.404L1343.5,307.461" style="fill:none;stroke:black;stroke-width:3px;"/>
        <path d="M780.324,299.008L895.451,375.469" style="fill:none;stroke:black;stroke-width:3px;"/>
        <path d="M895.451,375.469L1204.99,250.404" style="fill:none;stroke:black;stroke-width:3px;"/>
        <path d="M895.451,375.469L1343.5,307.461" style="fill:none;stroke:black;stroke-width:3px;"/>
        <path d="M895.451,375.469L1079.81,430.315" style="fill:none;stroke:black;stroke-width:3px;"/>
        <path d="M1079.81,430.315L1343.5,307.461" style="fill:none;stroke:black;stroke-width:3px;"/>
        <path d="M1079.81,430.315L1256.12,430.315" style="fill:none;stroke:black;stroke-width:3px;"/>
        <path d="M1150.02,520.853L1256.12,430.315" style="fill:none;stroke:black;stroke-width:3px;"/>
        <path d="M995.482,514.102L895.451,375.469" style="fill:none;stroke:black;stroke-width:3px;"/>
        <path d="M915.769,496.45L995.482,514.102" style="fill:none;stroke:black;stroke-width:3px;"/>
        <path d="M885.013,580.645L995.482,514.102" style="fill:none;stroke:black;stroke-width:3px;"/>
        <path d="M885.013,580.645L976.306,626.936" style="fill:none;stroke:black;stroke-width:3px;"/>
        <path d="M747.152,116.684L789.152,137.684L747.152,158.684L747.152,116.684Z" style="fill:rgb(179,179,179);"/>
        <path d="M655.028,137.684L755.552,137.684" style="fill:none;stroke:rgb(179,179,179);stroke-width:14px;"/>
    </g>
</svg>
