<?xml version="1.0" encoding="UTF-8" standalone="no"?>
<!DOCTYPE svg PUBLIC "-//W3C//DTD SVG 1.1//EN" "http://www.w3.org/Graphics/SVG/1.1/DTD/svg11.dtd">
<svg width="100%" height="100%" viewBox="0 0 1241 577" version="1.1" xmlns="http://www.w3.org/2000/svg" xmlns:xlink="http://www.w3.org/1999/xlink" xml:space="preserve" xmlns:serif="http://www.serif.com/" style="fill-rule:evenodd;clip-rule:evenodd;stroke-linejoin:round;stroke-miterlimit:10;">
    <rect id="Geometric-Operations-2" serif:id="Geometric Operations 2" x="-3005" y="-70" width="4299" height="2861" style="fill:none;"/>
    <g id="Geometric-Operations-21" serif:id="Geometric Operations 2">
        <path d="M653.184,194.578L792.895,164.129L806.122,307.419L665.158,487.754L590.423,366.853L653.184,194.578Z" style="fill:rgb(250,112,255);stroke:black;stroke-width:4px;"/>
        <path d="M1071.03,194.578L1210.75,164.129L1223.97,307.419L1083.01,487.754L1008.27,366.853L1071.03,194.578Z" style="fill:rgb(250,112,255);stroke:black;stroke-width:4px;"/>
        <g transform="matrix(1,0,0,1,-7852.98,-11821.5)">
            <g transform="matrix(60,0,0,60,8403.67,11970.9)">
                <path d="M0.011,-0.5L0.08,-0.5L0.08,-0.528C0.08,-0.591 0.093,-0.637 0.12,-0.666C0.147,-0.694 0.185,-0.708 0.236,-0.708C0.289,-0.708 0.334,-0.702 0.369,-0.689L0.344,-0.585C0.329,-0.59 0.315,-0.594 0.304,-0.596C0.292,-0.597 0.28,-0.598 0.267,-0.598C0.254,-0.598 0.243,-0.596 0.236,-0.592C0.228,-0.588 0.222,-0.582 0.219,-0.574C0.215,-0.565 0.213,-0.555 0.212,-0.543C0.211,-0.53 0.21,-0.516 0.21,-0.5L0.32,-0.5L0.32,-0.39L0.21,-0.39L0.21,-0L0.08,-0L0.08,-0.39L0.011,-0.39L0.011,-0.5Z" style="fill-rule:nonzero;"/>
            </g>
            <g transform="matrix(34.98,0,0,34.98,8422.93,11990.9)">
                <path d="M0.04,-0.351C0.04,-0.474 0.061,-0.565 0.103,-0.625C0.145,-0.684 0.205,-0.714 0.284,-0.714C0.368,-0.714 0.43,-0.685 0.469,-0.626C0.508,-0.567 0.528,-0.475 0.528,-0.351C0.528,-0.228 0.507,-0.136 0.465,-0.076C0.422,-0.016 0.362,0.014 0.283,0.014C0.2,0.014 0.138,-0.018 0.099,-0.081C0.06,-0.144 0.04,-0.234 0.04,-0.351ZM0.17,-0.351C0.17,-0.27 0.179,-0.207 0.197,-0.163C0.214,-0.118 0.243,-0.096 0.284,-0.096C0.323,-0.096 0.352,-0.116 0.371,-0.157C0.389,-0.198 0.398,-0.262 0.398,-0.351C0.398,-0.432 0.389,-0.494 0.372,-0.538C0.355,-0.582 0.325,-0.604 0.283,-0.604C0.243,-0.604 0.214,-0.583 0.197,-0.542C0.179,-0.501 0.17,-0.437 0.17,-0.351Z" style="fill-rule:nonzero;"/>
            </g>
        </g>
        <path d="M123.726,15.197L111.186,15.197C110.786,23.197 110.256,29.847 109.596,35.147C108.936,40.447 107.946,44.577 106.626,47.537C105.746,49.457 104.706,50.857 103.506,51.737C102.306,52.617 101.006,53.057 99.606,53.057C98.886,53.057 98.266,53.007 97.746,52.907C97.226,52.807 96.726,52.657 96.246,52.457L96.906,48.137C97.306,48.257 97.726,48.317 98.166,48.317C98.846,48.317 99.516,48.097 100.176,47.657C100.836,47.217 101.486,46.397 102.126,45.197C102.686,44.117 103.216,42.677 103.716,40.877C104.216,39.077 104.656,36.797 105.036,34.037C105.416,31.277 105.726,27.987 105.966,24.167C106.206,20.347 106.386,15.877 106.506,10.757L128.706,10.757L128.706,52.757L123.726,52.757L123.726,15.197Z" style="fill-rule:nonzero;"/>
        <path d="M157.146,34.997L157.326,31.277L157.146,31.277L154.686,35.117L141.186,52.757L138.426,52.757L138.426,22.757L143.226,22.757L143.226,41.057L143.046,44.597L143.286,44.597L145.626,40.877L159.126,22.757L161.946,22.757L161.946,52.757L157.146,52.757L157.146,34.997Z" style="fill-rule:nonzero;"/>
        <path d="M189.546,39.497L175.986,39.497L175.986,52.757L171.186,52.757L171.186,22.757L175.986,22.757L175.986,35.297L189.546,35.297L189.546,22.757L194.346,22.757L194.346,52.757L189.546,52.757L189.546,39.497Z" style="fill-rule:nonzero;"/>
        <path d="M222.306,34.997L222.486,31.277L222.306,31.277L219.846,35.117L206.346,52.757L203.586,52.757L203.586,22.757L208.386,22.757L208.386,41.057L208.206,44.597L208.446,44.597L210.786,40.877L224.286,22.757L227.106,22.757L227.106,52.757L222.306,52.757L222.306,34.997Z" style="fill-rule:nonzero;"/>
        <path d="M255.066,34.997L255.246,31.277L255.066,31.277L252.606,35.117L239.106,52.757L236.346,52.757L236.346,22.757L241.146,22.757L241.146,41.057L240.966,44.597L241.206,44.597L243.546,40.877L257.046,22.757L259.866,22.757L259.866,52.757L255.066,52.757L255.066,34.997Z" style="fill-rule:nonzero;"/>
        <path d="M535.651,10.757C537.171,10.397 538.811,10.157 540.571,10.037C542.331,9.917 544.071,9.857 545.791,9.857C547.631,9.857 549.501,10.037 551.401,10.397C553.301,10.757 555.031,11.417 556.591,12.377C558.151,13.337 559.421,14.657 560.401,16.337C561.381,18.017 561.871,20.157 561.871,22.757C561.871,25.317 561.411,27.477 560.491,29.237C559.571,30.997 558.351,32.427 556.831,33.527C555.311,34.627 553.571,35.417 551.611,35.897C549.651,36.377 547.631,36.617 545.551,36.617L544.561,36.617C544.101,36.617 543.621,36.607 543.121,36.587C542.621,36.567 542.131,36.537 541.651,36.497C541.171,36.457 540.831,36.417 540.631,36.377L540.631,52.337L535.651,52.337L535.651,10.757ZM545.911,14.177C544.871,14.177 543.871,14.197 542.911,14.237C541.951,14.277 541.191,14.377 540.631,14.537L540.631,31.937C540.831,32.017 541.151,32.067 541.591,32.087C542.031,32.107 542.491,32.127 542.971,32.147C543.451,32.167 543.911,32.177 544.351,32.177L545.311,32.177C546.671,32.177 548.021,32.047 549.361,31.787C550.701,31.527 551.911,31.057 552.991,30.377C554.071,29.697 554.941,28.737 555.601,27.497C556.261,26.257 556.591,24.677 556.591,22.757C556.591,21.117 556.281,19.747 555.661,18.647C555.041,17.547 554.221,16.667 553.201,16.007C552.181,15.347 551.031,14.877 549.751,14.597C548.471,14.317 547.191,14.177 545.911,14.177Z" style="fill-rule:nonzero;"/>
        <path d="M568.231,24.557C569.751,23.637 571.521,22.957 573.541,22.517C575.561,22.077 577.671,21.857 579.871,21.857C581.951,21.857 583.621,22.137 584.881,22.697C586.141,23.257 587.101,23.987 587.761,24.887C588.421,25.787 588.861,26.777 589.081,27.857C589.301,28.937 589.411,30.017 589.411,31.097C589.411,33.497 589.351,35.837 589.231,38.117C589.111,40.397 589.051,42.557 589.051,44.597C589.051,46.077 589.111,47.477 589.231,48.797C589.351,50.117 589.571,51.337 589.891,52.457L586.351,52.457L585.091,48.257L584.791,48.257C584.431,48.817 583.981,49.367 583.441,49.907C582.901,50.447 582.251,50.927 581.491,51.347C580.731,51.767 579.851,52.117 578.851,52.397C577.851,52.677 576.711,52.817 575.431,52.817C574.151,52.817 572.961,52.617 571.861,52.217C570.761,51.817 569.811,51.247 569.011,50.507C568.211,49.767 567.581,48.877 567.121,47.837C566.661,46.797 566.431,45.617 566.431,44.297C566.431,42.537 566.791,41.067 567.511,39.887C568.231,38.707 569.241,37.767 570.541,37.067C571.841,36.367 573.401,35.867 575.221,35.567C577.041,35.267 579.051,35.117 581.251,35.117L582.901,35.117C583.441,35.117 583.991,35.157 584.551,35.237C584.671,34.037 584.731,32.957 584.731,31.997C584.731,29.797 584.291,28.257 583.411,27.377C582.531,26.497 580.931,26.057 578.611,26.057C577.931,26.057 577.201,26.107 576.421,26.207C575.641,26.307 574.841,26.447 574.021,26.627C573.201,26.807 572.421,27.027 571.681,27.287C570.941,27.547 570.291,27.837 569.731,28.157L568.231,24.557ZM576.751,48.617C577.871,48.617 578.871,48.467 579.751,48.167C580.631,47.867 581.391,47.487 582.031,47.027C582.671,46.567 583.201,46.057 583.621,45.497C584.041,44.937 584.351,44.397 584.551,43.877L584.551,38.897C583.991,38.857 583.421,38.827 582.841,38.807C582.261,38.787 581.691,38.777 581.131,38.777C579.891,38.777 578.681,38.847 577.501,38.987C576.321,39.127 575.281,39.387 574.381,39.767C573.481,40.147 572.761,40.667 572.221,41.327C571.681,41.987 571.411,42.817 571.411,43.817C571.411,45.217 571.911,46.367 572.911,47.267C573.911,48.167 575.191,48.617 576.751,48.617Z" style="fill-rule:nonzero;"/>
        <path d="M601.351,38.957L601.351,35.057L605.551,35.057C606.271,35.057 606.981,34.937 607.681,34.697C608.381,34.457 609.011,34.127 609.571,33.707C610.131,33.287 610.581,32.787 610.921,32.207C611.261,31.627 611.431,31.017 611.431,30.377C611.431,28.817 610.891,27.717 609.811,27.077C608.731,26.437 607.111,26.117 604.951,26.117C603.391,26.117 601.961,26.357 600.661,26.837C599.361,27.317 598.351,27.777 597.631,28.217L596.251,24.497C597.451,23.817 598.861,23.217 600.481,22.697C602.101,22.177 604.031,21.917 606.271,21.917C612.911,21.917 616.231,24.377 616.231,29.297C616.231,30.697 615.781,32.067 614.881,33.407C613.981,34.747 612.691,35.697 611.011,36.257L611.011,36.497C613.371,36.937 615.021,37.777 615.961,39.017C616.901,40.257 617.371,41.897 617.371,43.937C617.371,45.217 617.111,46.397 616.591,47.477C616.071,48.557 615.291,49.497 614.251,50.297C613.211,51.097 611.901,51.727 610.321,52.187C608.741,52.647 606.911,52.877 604.831,52.877C602.791,52.877 601.101,52.697 599.761,52.337C598.421,51.977 597.211,51.537 596.131,51.017L597.511,47.057C598.431,47.577 599.541,47.977 600.841,48.257C602.141,48.537 603.551,48.677 605.071,48.677C607.511,48.677 609.371,48.257 610.651,47.417C611.931,46.577 612.571,45.297 612.571,43.577C612.571,42.137 611.971,41.007 610.771,40.187C609.571,39.367 607.591,38.957 604.831,38.957L601.351,38.957Z" style="fill-rule:nonzero;"/>
        <path d="M627.691,27.677C629.011,25.757 630.471,24.407 632.071,23.627C633.671,22.847 635.671,22.457 638.071,22.457C641.751,22.457 644.581,23.657 646.561,26.057C648.541,28.457 649.531,31.997 649.531,36.677C649.531,42.077 648.381,46.157 646.081,48.917C643.781,51.677 640.571,53.057 636.451,53.057C632.051,53.057 628.751,51.537 626.551,48.497C624.351,45.457 623.251,40.677 623.251,34.157C623.251,30.717 623.421,27.777 623.761,25.337C624.101,22.897 624.601,20.837 625.261,19.157C625.921,17.477 626.721,16.137 627.661,15.137C628.601,14.137 629.661,13.347 630.841,12.767C632.021,12.187 633.311,11.777 634.711,11.537C636.111,11.297 637.611,11.097 639.211,10.937C641.291,10.737 642.921,10.507 644.101,10.247C645.281,9.987 646.231,9.517 646.951,8.837L647.491,13.157C647.091,13.517 646.651,13.817 646.171,14.057C645.691,14.297 645.111,14.497 644.431,14.657C643.751,14.817 642.941,14.957 642.001,15.077C641.061,15.197 639.971,15.297 638.731,15.377C637.011,15.497 635.501,15.707 634.201,16.007C632.901,16.307 631.781,16.887 630.841,17.747C629.901,18.607 629.161,19.827 628.621,21.407C628.081,22.987 627.711,25.077 627.511,27.677L627.691,27.677ZM628.231,37.397C628.231,38.917 628.391,40.377 628.711,41.777C629.031,43.177 629.521,44.407 630.181,45.467C630.841,46.527 631.691,47.357 632.731,47.957C633.771,48.557 634.991,48.857 636.391,48.857C639.151,48.857 641.201,47.867 642.541,45.887C643.881,43.907 644.551,40.977 644.551,37.097C644.551,35.577 644.411,34.177 644.131,32.897C643.851,31.617 643.411,30.507 642.811,29.567C642.211,28.627 641.451,27.907 640.531,27.407C639.611,26.907 638.511,26.657 637.231,26.657C634.111,26.617 631.831,27.527 630.391,29.387C628.951,31.247 628.231,33.917 628.231,37.397Z" style="fill-rule:nonzero;"/>
        <path d="M675.811,34.577L675.991,30.857L675.811,30.857L673.351,34.697L659.851,52.337L657.091,52.337L657.091,22.337L661.891,22.337L661.891,40.637L661.711,44.177L661.951,44.177L664.291,40.457L677.791,22.337L680.611,22.337L680.611,52.337L675.811,52.337L675.811,34.577Z" style="fill-rule:nonzero;"/>
        <path d="M711.751,49.937C710.551,50.897 709.041,51.657 707.221,52.217C705.401,52.777 703.471,53.057 701.431,53.057C699.151,53.057 697.171,52.687 695.491,51.947C693.811,51.207 692.431,50.147 691.351,48.767C690.271,47.387 689.471,45.737 688.951,43.817C688.431,41.897 688.171,39.737 688.171,37.337C688.171,32.217 689.311,28.317 691.591,25.637C693.871,22.957 697.131,21.617 701.371,21.617C702.731,21.617 704.091,21.767 705.451,22.067C706.811,22.367 708.031,22.937 709.111,23.777C710.191,24.617 711.071,25.807 711.751,27.347C712.431,28.887 712.771,30.917 712.771,33.437C712.771,34.757 712.651,36.217 712.411,37.817L693.151,37.817C693.151,39.577 693.331,41.137 693.691,42.497C694.051,43.857 694.611,45.007 695.371,45.947C696.131,46.887 697.121,47.607 698.341,48.107C699.561,48.607 701.051,48.857 702.811,48.857C704.171,48.857 705.531,48.617 706.891,48.137C708.251,47.657 709.271,47.097 709.951,46.457L711.751,49.937ZM701.431,25.817C699.071,25.817 697.181,26.437 695.761,27.677C694.341,28.917 693.491,31.037 693.211,34.037L708.091,34.037C708.091,30.997 707.511,28.867 706.351,27.647C705.191,26.427 703.551,25.817 701.431,25.817Z" style="fill-rule:nonzero;"/>
        <path d="M738.691,39.077L725.131,39.077L725.131,52.337L720.331,52.337L720.331,22.337L725.131,22.337L725.131,34.877L738.691,34.877L738.691,22.337L743.491,22.337L743.491,52.337L738.691,52.337L738.691,39.077Z" style="fill-rule:nonzero;"/>
        <path d="M771.451,34.577L771.631,30.857L771.451,30.857L768.991,34.697L755.491,52.337L752.731,52.337L752.731,22.337L757.531,22.337L757.531,40.637L757.351,44.177L757.591,44.177L759.931,40.457L773.431,22.337L776.251,22.337L776.251,52.337L771.451,52.337L771.451,34.577Z" style="fill-rule:nonzero;"/>
        <path d="M807.391,49.937C806.191,50.897 804.681,51.657 802.861,52.217C801.041,52.777 799.111,53.057 797.071,53.057C794.791,53.057 792.811,52.687 791.131,51.947C789.451,51.207 788.071,50.147 786.991,48.767C785.911,47.387 785.111,45.737 784.591,43.817C784.071,41.897 783.811,39.737 783.811,37.337C783.811,32.217 784.951,28.317 787.231,25.637C789.511,22.957 792.771,21.617 797.011,21.617C798.371,21.617 799.731,21.767 801.091,22.067C802.451,22.367 803.671,22.937 804.751,23.777C805.831,24.617 806.711,25.807 807.391,27.347C808.071,28.887 808.411,30.917 808.411,33.437C808.411,34.757 808.291,36.217 808.051,37.817L788.791,37.817C788.791,39.577 788.971,41.137 789.331,42.497C789.691,43.857 790.251,45.007 791.011,45.947C791.771,46.887 792.761,47.607 793.981,48.107C795.201,48.607 796.691,48.857 798.451,48.857C799.811,48.857 801.171,48.617 802.531,48.137C803.891,47.657 804.911,47.097 805.591,46.457L807.391,49.937ZM797.071,25.817C794.711,25.817 792.821,26.437 791.401,27.677C789.981,28.917 789.131,31.037 788.851,34.037L803.731,34.037C803.731,30.997 803.151,28.867 801.991,27.647C800.831,26.427 799.191,25.817 797.071,25.817Z" style="fill-rule:nonzero;"/>
        <path d="M990.105,14.777L970.725,14.777L970.725,52.337L965.745,52.337L965.745,10.337L995.085,10.337L995.085,52.337L990.105,52.337L990.105,14.777Z" style="fill-rule:nonzero;"/>
        <path d="M1003.12,37.337C1003.12,32.257 1004.25,28.367 1006.51,25.667C1008.77,22.967 1012.02,21.617 1016.26,21.617C1018.5,21.617 1020.46,21.987 1022.12,22.727C1023.77,23.467 1025.14,24.527 1026.22,25.907C1027.31,27.287 1028.11,28.947 1028.62,30.887C1029.14,32.827 1029.4,34.977 1029.4,37.337C1029.4,42.417 1028.28,46.307 1026.02,49.007C1023.75,51.707 1020.5,53.057 1016.26,53.057C1014.02,53.057 1012.08,52.687 1010.42,51.947C1008.75,51.207 1007.38,50.147 1006.31,48.767C1005.23,47.387 1004.43,45.727 1003.9,43.787C1003.38,41.847 1003.12,39.697 1003.12,37.337ZM1008.11,37.337C1008.11,38.857 1008.25,40.317 1008.56,41.717C1008.86,43.117 1009.33,44.337 1009.97,45.377C1010.61,46.417 1011.45,47.257 1012.49,47.897C1013.52,48.537 1014.78,48.857 1016.26,48.857C1021.71,48.897 1024.42,45.057 1024.42,37.337C1024.42,35.777 1024.28,34.297 1023.98,32.897C1023.68,31.497 1023.21,30.277 1022.57,29.237C1021.93,28.197 1021.09,27.367 1020.05,26.747C1019,26.127 1017.75,25.817 1016.26,25.817C1010.83,25.777 1008.11,29.617 1008.11,37.337Z" style="fill-rule:nonzero;"/>
        <path d="M1053.11,26.537L1044.4,26.537C1044.29,28.217 1044.16,30.027 1044.05,31.967C1043.92,33.907 1043.75,35.847 1043.51,37.787C1043.27,39.727 1042.94,41.587 1042.55,43.367C1042.14,45.147 1041.63,46.717 1041.02,48.077C1040.39,49.437 1039.63,50.527 1038.74,51.347C1037.84,52.167 1036.77,52.577 1035.53,52.577C1034.77,52.577 1034.11,52.537 1033.55,52.457C1032.99,52.377 1032.49,52.237 1032.05,52.037L1032.77,48.017C1033.25,48.177 1033.77,48.257 1034.33,48.257C1035.12,48.257 1035.85,47.917 1036.49,47.237C1037.12,46.557 1037.68,45.267 1038.16,43.367C1038.64,41.467 1039.05,38.837 1039.37,35.477C1039.68,32.117 1039.9,27.737 1040.03,22.337L1057.9,22.337L1057.9,52.337L1053.11,52.337L1053.11,26.537Z" style="fill-rule:nonzero;"/>
        <path d="M1085.87,34.577L1086.05,30.857L1085.87,30.857L1083.4,34.697L1069.9,52.337L1067.14,52.337L1067.14,22.337L1071.94,22.337L1071.94,40.637L1071.77,44.177L1072.01,44.177L1074.35,40.457L1087.85,22.337L1090.66,22.337L1090.66,52.337L1085.87,52.337L1085.87,34.577Z" style="fill-rule:nonzero;"/>
        <path d="M1117.42,26.537L1104.7,26.537L1104.7,52.337L1099.9,52.337L1099.9,22.337L1117.42,22.337L1117.42,26.537Z" style="fill-rule:nonzero;"/>
        <path d="M1120.37,37.337C1120.37,32.257 1121.5,28.367 1123.76,25.667C1126.02,22.967 1129.27,21.617 1133.51,21.617C1135.75,21.617 1137.69,21.987 1139.36,22.727C1141.02,23.467 1142.38,24.527 1143.46,25.907C1144.55,27.287 1145.35,28.947 1145.87,30.887C1146.38,32.827 1146.64,34.977 1146.64,37.337C1146.64,42.417 1145.52,46.307 1143.26,49.007C1141,51.707 1137.75,53.057 1133.51,53.057C1131.27,53.057 1129.32,52.687 1127.65,51.947C1126,51.207 1124.62,50.147 1123.55,48.767C1122.46,47.387 1121.66,45.727 1121.14,43.787C1120.62,41.847 1120.37,39.697 1120.37,37.337ZM1125.35,37.337C1125.35,38.857 1125.5,40.317 1125.8,41.717C1126.1,43.117 1126.57,44.337 1127.2,45.377C1127.85,46.417 1128.68,47.257 1129.73,47.897C1130.77,48.537 1132.03,48.857 1133.51,48.857C1138.94,48.897 1141.66,45.057 1141.66,37.337C1141.66,35.777 1141.52,34.297 1141.21,32.897C1140.91,31.497 1140.44,30.277 1139.81,29.237C1139.16,28.197 1138.33,27.367 1137.29,26.747C1136.25,26.127 1134.99,25.817 1133.51,25.817C1128.07,25.777 1125.35,29.617 1125.35,37.337Z" style="fill-rule:nonzero;"/>
        <path d="M1172.57,39.077L1159.01,39.077L1159.01,52.337L1154.2,52.337L1154.2,22.337L1159.01,22.337L1159.01,34.877L1172.57,34.877L1172.57,22.337L1177.37,22.337L1177.37,52.337L1172.57,52.337L1172.57,39.077Z" style="fill-rule:nonzero;"/>
        <path d="M1191.4,48.137C1192.88,48.377 1194.31,48.497 1195.66,48.497C1198.18,48.497 1199.94,48.007 1200.94,47.027C1201.94,46.047 1202.44,44.657 1202.44,42.857C1202.44,41.257 1201.95,39.937 1200.98,38.897C1200,37.857 1198.29,37.337 1195.85,37.337C1195.16,37.337 1194.42,37.357 1193.62,37.397C1192.83,37.437 1192.09,37.557 1191.4,37.757L1191.4,48.137ZM1191.4,33.797C1192.37,33.637 1193.29,33.527 1194.16,33.467C1195.05,33.407 1195.88,33.377 1196.68,33.377C1198.73,33.377 1200.43,33.607 1201.82,34.067C1203.19,34.527 1204.31,35.157 1205.14,35.957C1205.99,36.757 1206.58,37.707 1206.91,38.807C1207.26,39.907 1207.42,41.077 1207.42,42.317C1207.42,45.957 1206.41,48.597 1204.39,50.237C1202.38,51.877 1199.11,52.697 1194.59,52.697C1192.03,52.697 1189.37,52.577 1186.61,52.337L1186.61,22.337L1191.4,22.337L1191.4,33.797ZM1212.16,22.337L1216.96,22.337L1216.96,52.337L1212.16,52.337L1212.16,22.337Z" style="fill-rule:nonzero;"/>
        <path d="M590.423,366.853L653.184,194.578L504.87,226.902L590.423,366.853Z" style="fill:rgb(45,231,231);stroke:black;stroke-width:4px;"/>
        <path d="M1008.27,366.853L1071.03,194.578L922.719,226.902L1008.27,366.853Z" style="fill:rgb(45,231,231);stroke:black;stroke-width:4px;"/>
        <circle cx="451.276" cy="239.107" r="10.5"/>
        <circle cx="473.103" cy="176.456" r="10.5"/>
        <circle cx="505.096" cy="226.574" r="10.5"/>
        <circle cx="652.671" cy="194.876" r="10.5"/>
        <circle cx="680.901" cy="119.401" r="10.5"/>
        <circle cx="792.461" cy="164.496" r="10.5"/>
        <circle cx="785.565" cy="92.222" r="10.5"/>
        <circle cx="843.582" cy="152.806" r="10.5"/>
        <circle cx="853.396" cy="247.937" r="10.5"/>
        <circle cx="807.196" cy="306.725" r="10.5"/>
        <circle cx="817.259" cy="415.156" r="10.5"/>
        <circle cx="665.255" cy="487.559" r="10.5"/>
        <circle cx="630.918" cy="531.76" r="10.5"/>
        <circle cx="701.526" cy="546.454" r="10.5"/>
        <circle cx="591.006" cy="366.853" r="10.5"/>
        <circle cx="560.6" cy="447.06" r="10.5"/>
        <path d="M33.124,176L261.124,546" style="fill:none;stroke:black;stroke-width:4px;"/>
        <path d="M473.361,176L701.361,546" style="fill:none;stroke:black;stroke-width:4px;"/>
        <path d="M120.624,448L240.48,119" style="fill:none;stroke:black;stroke-width:4px;"/>
        <path d="M560.861,448L680.718,119" style="fill:none;stroke:black;stroke-width:4px;"/>
        <path d="M9.124,239L403.722,153" style="fill:none;stroke:black;stroke-width:4px;"/>
        <path d="M449.361,239L843.96,153" style="fill:none;stroke:black;stroke-width:4px;"/>
        <path d="M346,92L375.722,414" style="fill:none;stroke:black;stroke-width:4px;"/>
        <path d="M786.238,92L815.96,414" style="fill:none;stroke:black;stroke-width:4px;"/>
        <path d="M189.552,533L412.722,247.5" style="fill:none;stroke:black;stroke-width:4px;"/>
        <path d="M629.79,533L852.96,247.5" style="fill:none;stroke:black;stroke-width:4px;"/>
        <g transform="matrix(1,0,0,1,-7839.19,-11693.1)">
            <g transform="matrix(60,0,0,60,8403.67,11970.9)">
                <path d="M0.011,-0.5L0.08,-0.5L0.08,-0.528C0.08,-0.591 0.093,-0.637 0.12,-0.666C0.147,-0.694 0.185,-0.708 0.236,-0.708C0.289,-0.708 0.334,-0.702 0.369,-0.689L0.344,-0.585C0.329,-0.59 0.315,-0.594 0.304,-0.596C0.292,-0.597 0.28,-0.598 0.267,-0.598C0.254,-0.598 0.243,-0.596 0.236,-0.592C0.228,-0.588 0.222,-0.582 0.219,-0.574C0.215,-0.565 0.213,-0.555 0.212,-0.543C0.211,-0.53 0.21,-0.516 0.21,-0.5L0.32,-0.5L0.32,-0.39L0.21,-0.39L0.21,-0L0.08,-0L0.08,-0.39L0.011,-0.39L0.011,-0.5Z" style="fill-rule:nonzero;"/>
            </g>
            <g transform="matrix(34.98,0,0,34.98,8422.93,11990.9)">
                <path d="M0.101,-0.11L0.24,-0.11L0.24,-0.505L0.255,-0.573L0.207,-0.514L0.118,-0.453L0.063,-0.528L0.291,-0.712L0.364,-0.712L0.364,-0.11L0.5,-0.11L0.5,-0L0.101,-0L0.101,-0.11Z" style="fill-rule:nonzero;"/>
            </g>
        </g>
        <g transform="matrix(1,0,0,1,-7433.69,-11695.8)">
            <g transform="matrix(60,0,0,60,8403.67,11970.9)">
                <path d="M0.405,-0.155L0.19,-0.155L0.137,-0L0,-0L0.252,-0.705L0.353,-0.705L0.605,-0L0.461,-0L0.405,-0.155ZM0.225,-0.265L0.375,-0.265L0.323,-0.421L0.302,-0.531L0.297,-0.531L0.276,-0.42L0.225,-0.265Z" style="fill-rule:nonzero;"/>
            </g>
            <g transform="matrix(34.98,0,0,34.98,8439.97,11990.9)">
                <path d="M0.101,-0.11L0.24,-0.11L0.24,-0.505L0.255,-0.573L0.207,-0.514L0.118,-0.453L0.063,-0.528L0.291,-0.712L0.364,-0.712L0.364,-0.11L0.5,-0.11L0.5,-0L0.101,-0L0.101,-0.11Z" style="fill-rule:nonzero;"/>
            </g>
        </g>
        <g transform="matrix(1,0,0,1,-7314.08,-11660.7)">
            <g transform="matrix(60,0,0,60,8403.67,11970.9)">
                <path d="M0.405,-0.155L0.19,-0.155L0.137,-0L0,-0L0.252,-0.705L0.353,-0.705L0.605,-0L0.461,-0L0.405,-0.155ZM0.225,-0.265L0.375,-0.265L0.323,-0.421L0.302,-0.531L0.297,-0.531L0.276,-0.42L0.225,-0.265Z" style="fill-rule:nonzero;"/>
            </g>
            <g transform="matrix(34.98,0,0,34.98,8439.97,11990.9)">
                <path d="M0.475,-0.529C0.475,-0.495 0.469,-0.461 0.457,-0.426C0.444,-0.391 0.429,-0.357 0.41,-0.324C0.391,-0.291 0.37,-0.259 0.347,-0.228C0.324,-0.197 0.301,-0.168 0.279,-0.142L0.226,-0.101L0.226,-0.096L0.298,-0.11L0.49,-0.11L0.49,-0L0.069,-0L0.069,-0.067C0.085,-0.084 0.103,-0.103 0.123,-0.126C0.143,-0.148 0.163,-0.171 0.184,-0.197C0.204,-0.222 0.224,-0.247 0.243,-0.274C0.262,-0.301 0.28,-0.327 0.295,-0.355C0.31,-0.382 0.323,-0.408 0.332,-0.433C0.341,-0.458 0.345,-0.482 0.345,-0.505C0.345,-0.532 0.337,-0.555 0.322,-0.573C0.306,-0.59 0.281,-0.599 0.247,-0.599C0.226,-0.599 0.204,-0.595 0.182,-0.586C0.159,-0.577 0.14,-0.565 0.125,-0.551L0.073,-0.643C0.099,-0.664 0.129,-0.682 0.162,-0.695C0.195,-0.708 0.233,-0.714 0.278,-0.714C0.307,-0.714 0.333,-0.71 0.357,-0.702C0.381,-0.694 0.402,-0.682 0.419,-0.667C0.436,-0.652 0.45,-0.632 0.46,-0.61C0.47,-0.587 0.475,-0.56 0.475,-0.529Z" style="fill-rule:nonzero;"/>
            </g>
        </g>
        <g transform="matrix(1,0,0,1,-7717.11,-11655.7)">
            <g transform="matrix(60,0,0,60,8403.67,11970.9)">
                <path d="M0.011,-0.5L0.08,-0.5L0.08,-0.528C0.08,-0.591 0.093,-0.637 0.12,-0.666C0.147,-0.694 0.185,-0.708 0.236,-0.708C0.289,-0.708 0.334,-0.702 0.369,-0.689L0.344,-0.585C0.329,-0.59 0.315,-0.594 0.304,-0.596C0.292,-0.597 0.28,-0.598 0.267,-0.598C0.254,-0.598 0.243,-0.596 0.236,-0.592C0.228,-0.588 0.222,-0.582 0.219,-0.574C0.215,-0.565 0.213,-0.555 0.212,-0.543C0.211,-0.53 0.21,-0.516 0.21,-0.5L0.32,-0.5L0.32,-0.39L0.21,-0.39L0.21,-0L0.08,-0L0.08,-0.39L0.011,-0.39L0.011,-0.5Z" style="fill-rule:nonzero;"/>
            </g>
            <g transform="matrix(34.98,0,0,34.98,8422.93,11990.9)">
                <path d="M0.475,-0.529C0.475,-0.495 0.469,-0.461 0.457,-0.426C0.444,-0.391 0.429,-0.357 0.41,-0.324C0.391,-0.291 0.37,-0.259 0.347,-0.228C0.324,-0.197 0.301,-0.168 0.279,-0.142L0.226,-0.101L0.226,-0.096L0.298,-0.11L0.49,-0.11L0.49,-0L0.069,-0L0.069,-0.067C0.085,-0.084 0.103,-0.103 0.123,-0.126C0.143,-0.148 0.163,-0.171 0.184,-0.197C0.204,-0.222 0.224,-0.247 0.243,-0.274C0.262,-0.301 0.28,-0.327 0.295,-0.355C0.31,-0.382 0.323,-0.408 0.332,-0.433C0.341,-0.458 0.345,-0.482 0.345,-0.505C0.345,-0.532 0.337,-0.555 0.322,-0.573C0.306,-0.59 0.281,-0.599 0.247,-0.599C0.226,-0.599 0.204,-0.595 0.182,-0.586C0.159,-0.577 0.14,-0.565 0.125,-0.551L0.073,-0.643C0.099,-0.664 0.129,-0.682 0.162,-0.695C0.195,-0.708 0.233,-0.714 0.278,-0.714C0.307,-0.714 0.333,-0.71 0.357,-0.702C0.381,-0.694 0.402,-0.682 0.419,-0.667C0.436,-0.652 0.45,-0.632 0.46,-0.61C0.47,-0.587 0.475,-0.56 0.475,-0.529Z" style="fill-rule:nonzero;"/>
            </g>
        </g>
    </g>
</svg>
