<?xml version="1.0" encoding="UTF-8" standalone="no"?>
<!DOCTYPE svg PUBLIC "-//W3C//DTD SVG 1.1//EN" "http://www.w3.org/Graphics/SVG/1.1/DTD/svg11.dtd">
<svg width="100%" height="100%" viewBox="0 0 1205 186" version="1.1" xmlns="http://www.w3.org/2000/svg" xmlns:xlink="http://www.w3.org/1999/xlink" xml:space="preserve" xmlns:serif="http://www.serif.com/" style="fill-rule:evenodd;clip-rule:evenodd;stroke-linejoin:bevel;stroke-miterlimit:10;">
    <rect id="Artboard7" x="-170" y="-68" width="4375" height="2153" style="fill:none;"/>
    <g id="Artboard71" serif:id="Artboard7">
        <path d="M20.812,96.968L26.092,96.968L26.092,101.72C26.188,101.752 26.284,101.784 26.38,101.816C27.116,102.136 27.924,102.4 28.804,102.608C29.684,102.816 30.62,102.92 31.612,102.92C33.404,102.92 34.796,102.56 35.788,101.84C36.78,101.12 37.276,100.152 37.276,98.936C37.276,97.848 36.868,96.968 36.052,96.296C35.236,95.624 34.228,95.032 33.028,94.52C31.828,94.008 30.516,93.496 29.092,92.984C27.668,92.472 26.356,91.824 25.156,91.04C23.956,90.256 22.948,89.272 22.132,88.088C21.316,86.904 20.908,85.368 20.908,83.48C20.908,82.04 21.188,80.72 21.748,79.52C22.308,78.32 23.092,77.288 24.1,76.424C25.108,75.56 26.316,74.888 27.724,74.408C29.132,73.928 30.7,73.688 32.428,73.688C34.38,73.688 36.3,73.864 38.188,74.216C40.076,74.568 41.58,75.048 42.7,75.656L42.7,85.4L37.42,85.4L37.42,80.072C37.324,80.072 37.228,80.056 37.132,80.024C36.428,79.832 35.668,79.68 34.852,79.568C34.036,79.456 33.228,79.4 32.428,79.4C30.892,79.4 29.684,79.704 28.804,80.312C27.924,80.92 27.484,81.736 27.484,82.76C27.484,83.816 27.892,84.68 28.708,85.352C29.524,86.024 30.532,86.632 31.732,87.176C32.932,87.72 34.244,88.264 35.668,88.808C37.092,89.352 38.404,90.016 39.604,90.8C40.804,91.584 41.812,92.568 42.628,93.752C43.444,94.936 43.852,96.424 43.852,98.216C43.852,99.944 43.532,101.456 42.892,102.752C42.252,104.048 41.356,105.136 40.204,106.016C39.052,106.896 37.692,107.552 36.124,107.984C34.556,108.416 32.86,108.632 31.036,108.632C29.82,108.632 28.692,108.536 27.652,108.344C26.612,108.152 25.652,107.912 24.772,107.624C23.892,107.336 23.116,107.032 22.444,106.712C21.772,106.392 21.228,106.12 20.812,105.896L20.812,96.968Z" style="fill-rule:nonzero;"/>
        <path d="M49.852,74.36L71.884,74.36L71.884,80.216L56.428,80.216L56.428,88.04L70.684,88.04L70.684,93.896L56.428,93.896L56.428,102.104L72.124,102.104L72.124,107.96L49.852,107.96L49.852,74.36Z" style="fill-rule:nonzero;"/>
        <path d="M95.164,94.28L101.116,94.28L101.116,107.96L79.036,107.96L79.036,74.36L85.612,74.36L85.612,102.104L95.164,102.104L95.164,94.28Z" style="fill-rule:nonzero;"/>
        <path d="M107.452,74.36L129.484,74.36L129.484,80.216L114.028,80.216L114.028,88.04L128.284,88.04L128.284,93.896L114.028,93.896L114.028,102.104L129.724,102.104L129.724,107.96L107.452,107.96L107.452,74.36Z" style="fill-rule:nonzero;"/>
        <path d="M154.204,96.68L159.484,96.68L159.484,106.28C158.46,107.016 157.156,107.592 155.572,108.008C153.988,108.424 152.364,108.632 150.7,108.632C148.588,108.632 146.58,108.32 144.676,107.696C142.772,107.072 141.1,106.064 139.66,104.672C138.22,103.28 137.068,101.472 136.204,99.248C135.34,97.024 134.908,94.328 134.908,91.16C134.908,87.864 135.396,85.104 136.372,82.88C137.348,80.656 138.604,78.864 140.14,77.504C141.676,76.144 143.388,75.168 145.276,74.576C147.164,73.984 149.02,73.688 150.844,73.688C152.764,73.688 154.388,73.848 155.716,74.168C157.044,74.488 158.14,74.856 159.004,75.272L159.004,85.256L153.724,85.256L153.724,79.784C152.732,79.624 151.708,79.544 150.652,79.544C149.404,79.544 148.244,79.776 147.172,80.24C146.1,80.704 145.164,81.416 144.364,82.376C143.564,83.336 142.94,84.544 142.492,86C142.044,87.456 141.82,89.176 141.82,91.16C141.82,92.888 142.028,94.464 142.444,95.888C142.86,97.312 143.468,98.536 144.268,99.56C145.068,100.584 146.044,101.376 147.196,101.936C148.348,102.496 149.66,102.776 151.132,102.776C152.188,102.776 153.212,102.68 154.204,102.488L154.204,96.68Z" style="fill-rule:nonzero;"/>
        <path d="M167.356,102.68L172.828,102.68L172.828,79.64L168.22,79.64L168.22,85.448L162.94,85.448L162.94,74.36L189.244,74.36L189.244,85.448L183.964,85.448L183.964,79.64L179.404,79.64L179.404,102.68L184.828,102.68L184.828,107.96L167.356,107.96L167.356,102.68Z" style="fill-rule:nonzero;"/>
        <path d="M229.804,104.792C229.804,103.672 230.156,102.784 230.86,102.128C231.564,101.472 232.492,101.144 233.644,101.144C234.86,101.144 235.82,101.472 236.524,102.128C237.228,102.784 237.58,103.672 237.58,104.792C237.58,105.912 237.228,106.808 236.524,107.48C235.82,108.152 234.86,108.488 233.644,108.488C232.492,108.488 231.564,108.152 230.86,107.48C230.156,106.808 229.804,105.912 229.804,104.792Z" style="fill-rule:nonzero;"/>
        <path d="M258.604,104.792C258.604,103.672 258.956,102.784 259.66,102.128C260.364,101.472 261.292,101.144 262.444,101.144C263.66,101.144 264.62,101.472 265.324,102.128C266.028,102.784 266.38,103.672 266.38,104.792C266.38,105.912 266.028,106.808 265.324,107.48C264.62,108.152 263.66,108.488 262.444,108.488C261.292,108.488 260.364,108.152 259.66,107.48C258.956,106.808 258.604,105.912 258.604,104.792Z" style="fill-rule:nonzero;"/>
        <path d="M287.404,104.792C287.404,103.672 287.756,102.784 288.46,102.128C289.164,101.472 290.092,101.144 291.244,101.144C292.46,101.144 293.42,101.472 294.124,102.128C294.828,102.784 295.18,103.672 295.18,104.792C295.18,105.912 294.828,106.808 294.124,107.48C293.42,108.152 292.46,108.488 291.244,108.488C290.092,108.488 289.164,108.152 288.46,107.48C287.756,106.808 287.404,105.912 287.404,104.792Z" style="fill-rule:nonzero;"/>
        <path d="M909.268,56.36L960.268,5.16L1037.27,56.36L978.268,125.96L909.268,56.36Z" style="fill:rgb(45,231,231);stroke:black;stroke-width:1.7px;"/>
        <path d="M401.5,70.91L442,91.16L401.5,111.41L401.5,70.91Z"/>
        <path d="M340,91.16L409.6,91.16" style="fill:none;stroke:black;stroke-width:9px;"/>
        <path d="M818.071,70.91L858.571,91.16L818.071,111.41L818.071,70.91Z"/>
        <path d="M756.571,91.16L826.171,91.16" style="fill:none;stroke:black;stroke-width:9px;"/>
        <path d="M572.106,16.964C574.091,10.384 585.685,5.16 599.5,5.16C613.315,5.16 624.909,10.384 626.894,16.964C633.146,11.986 646.786,11.669 658.75,16.682C670.714,21.695 677.155,30.426 674.341,36.845C683.186,34.803 695.216,39.477 702.124,48.16C709.032,56.843 708.594,66.742 701.735,71.279C710.802,72.72 718,81.134 718,91.16C718,101.186 710.802,109.6 701.735,111.041C708.594,115.578 709.032,125.477 702.124,134.16C695.216,142.843 683.186,147.518 674.341,145.475C677.155,151.894 670.714,160.625 658.75,165.638C646.786,170.651 633.146,170.334 626.894,165.356C624.909,171.936 613.315,177.16 599.5,177.16C585.685,177.16 574.091,171.936 572.106,165.356C565.854,170.334 552.214,170.651 540.25,165.638C528.286,160.625 521.845,151.894 524.659,145.475C515.814,147.518 503.784,142.843 496.876,134.16C489.968,125.477 490.406,115.578 497.265,111.041C488.198,109.6 481,101.186 481,91.16C481,81.134 488.198,72.72 497.265,71.279C490.406,66.742 489.968,56.843 496.876,48.16C503.784,39.477 515.814,34.803 524.659,36.845C521.845,30.426 528.286,21.695 540.25,16.682C552.214,11.669 565.854,11.986 572.106,16.964Z" style="fill:rgb(194,194,194);stroke:black;stroke-width:1.7px;"/>
        <path d="M591.916,104.936C591.852,104.424 591.804,103.928 591.772,103.448C591.74,102.968 591.724,102.472 591.724,101.96C591.724,99.144 592.172,96.712 593.068,94.664C593.964,92.616 595.1,90.84 596.476,89.336C597.852,87.832 599.34,86.52 600.94,85.4C602.54,84.28 604.028,83.16 605.404,82.04C606.78,80.92 607.916,79.768 608.812,78.584C609.708,77.4 610.156,75.976 610.156,74.312C610.156,72.072 609.228,70.28 607.372,68.936C605.516,67.592 602.636,66.92 598.732,66.92C596.748,66.92 594.924,67.208 593.26,67.784C591.596,68.36 590.06,69.048 588.652,69.848C587.244,70.648 585.996,71.48 584.908,72.344C583.82,73.208 582.86,73.928 582.028,74.504L575.98,66.44C577.516,64.776 579.26,63.304 581.212,62.024C583.164,60.744 585.228,59.688 587.404,58.856C589.58,58.024 591.82,57.4 594.124,56.984C596.428,56.568 598.7,56.36 600.94,56.36C607.916,56.36 613.34,57.816 617.212,60.728C621.084,63.64 623.02,67.56 623.02,72.488C623.02,75.752 622.524,78.456 621.532,80.6C620.54,82.744 619.276,84.568 617.74,86.072C616.204,87.576 614.556,88.904 612.796,90.056C611.036,91.208 609.404,92.44 607.9,93.752C606.396,95.064 605.132,96.584 604.108,98.312C603.084,100.04 602.572,102.248 602.572,104.936L591.916,104.936ZM589.996,118.568C589.996,116.328 590.7,114.552 592.108,113.24C593.516,111.928 595.372,111.272 597.676,111.272C600.108,111.272 602.028,111.928 603.436,113.24C604.844,114.552 605.548,116.328 605.548,118.568C605.548,120.808 604.844,122.6 603.436,123.944C602.028,125.288 600.108,125.96 597.676,125.96C595.372,125.96 593.516,125.288 592.108,123.944C590.7,122.6 589.996,120.808 589.996,118.568Z" style="fill-rule:nonzero;"/>
        <path d="M1086.27,80.16L1061.27,166.16L1142.27,166.16L1135.27,114.96L1195.27,45.36L1111.27,45.36L1086.27,80.16Z" style="fill:rgb(250,112,255);stroke:black;stroke-width:1.7px;"/>
    </g>
</svg>
