<?xml version="1.0" encoding="UTF-8" standalone="no"?>
<!DOCTYPE svg PUBLIC "-//W3C//DTD SVG 1.1//EN" "http://www.w3.org/Graphics/SVG/1.1/DTD/svg11.dtd">
<svg width="100%" height="100%" viewBox="0 0 633 469" version="1.1" xmlns="http://www.w3.org/2000/svg" xmlns:xlink="http://www.w3.org/1999/xlink" xml:space="preserve" xmlns:serif="http://www.serif.com/" style="fill-rule:evenodd;clip-rule:evenodd;stroke-linecap:round;stroke-linejoin:round;stroke-miterlimit:1.5;">
    <g transform="matrix(1,0,0,1,-132,-2694)">
        <g id="Raster-details" serif:id="Raster details" transform="matrix(1,0,0,1,0,-0.693644)">
            <rect x="4" y="2668.69" width="927" height="553.306" style="fill:none;"/>
            <g transform="matrix(1,0,0,1,-1047.04,2406.4)">
                <g transform="matrix(0.608724,0,0,0.608724,605.316,173.761)">
                    <rect x="1408.73" y="376.404" width="125.464" height="125.464" style="fill:none;stroke:black;stroke-width:8.21px;"/>
                </g>
                <g transform="matrix(0.608724,0,0,0.608724,605.316,326.506)">
                    <rect x="1408.73" y="376.404" width="125.464" height="125.464" style="fill:none;stroke:black;stroke-width:8.21px;"/>
                </g>
                <g transform="matrix(0.608724,0,0,0.608724,605.316,402.879)">
                    <rect x="1408.73" y="376.404" width="125.464" height="125.464" style="fill:none;stroke:black;stroke-width:8.21px;"/>
                </g>
                <g transform="matrix(0.608724,0,0,0.608724,758.061,173.761)">
                    <rect x="1408.73" y="376.404" width="125.464" height="125.464" style="fill:none;stroke:black;stroke-width:8.21px;"/>
                </g>
                <g transform="matrix(0.608724,0,0,0.608724,758.061,250.134)">
                    <rect x="1408.73" y="376.404" width="125.464" height="125.464" style="fill:none;stroke:black;stroke-width:8.21px;"/>
                </g>
                <g transform="matrix(0.608724,0,0,0.608724,758.061,326.506)">
                    <rect x="1408.73" y="376.404" width="125.464" height="125.464" style="fill:none;stroke:black;stroke-width:8.21px;"/>
                </g>
                <g transform="matrix(0.608724,0,0,0.608724,758.061,402.879)">
                    <rect x="1408.73" y="376.404" width="125.464" height="125.464" style="fill:none;stroke:black;stroke-width:8.21px;"/>
                </g>
                <g transform="matrix(0.608724,0,0,0.608724,681.689,173.761)">
                    <rect x="1408.73" y="376.404" width="125.464" height="125.464" style="fill:none;stroke:black;stroke-width:8.21px;"/>
                </g>
                <g transform="matrix(0.608724,0,0,0.608724,681.689,250.134)">
                    <rect x="1408.73" y="376.404" width="125.464" height="125.464" style="fill:none;stroke:black;stroke-width:8.21px;"/>
                </g>
                <g transform="matrix(0.608724,0,0,0.608724,681.689,326.506)">
                    <rect x="1408.73" y="376.404" width="125.464" height="125.464" style="fill:none;stroke:black;stroke-width:8.21px;"/>
                </g>
                <g transform="matrix(0.608724,0,0,0.608724,681.689,402.879)">
                    <rect x="1408.73" y="376.404" width="125.464" height="125.464" style="fill:none;stroke:black;stroke-width:8.21px;"/>
                </g>
                <g transform="matrix(0.608724,0,0,0.608724,834.434,173.761)">
                    <rect x="1408.73" y="376.404" width="125.464" height="125.464" style="fill:none;stroke:black;stroke-width:8.21px;"/>
                </g>
                <g transform="matrix(0.608724,0,0,0.608724,834.434,250.134)">
                    <rect x="1408.73" y="376.404" width="125.464" height="125.464" style="fill:none;stroke:black;stroke-width:8.21px;"/>
                </g>
                <g transform="matrix(0.608724,0,0,0.608724,834.434,326.506)">
                    <rect x="1408.73" y="376.404" width="125.464" height="125.464" style="fill:none;stroke:black;stroke-width:8.21px;"/>
                </g>
                <g transform="matrix(0.608724,0,0,0.608724,834.434,402.879)">
                    <rect x="1408.73" y="376.404" width="125.464" height="125.464" style="fill:none;stroke:black;stroke-width:8.21px;"/>
                </g>
            </g>
            <g transform="matrix(1,0,0,1,-1047.04,2406.4)">
                <g transform="matrix(0.583236,0,0,0.583236,986.312,142.498)">
                    <circle cx="817.043" cy="446.457" r="20.095"/>
                </g>
                <g transform="matrix(0.583236,0,0,0.583236,986.312,219.008)">
                    <circle cx="817.043" cy="446.457" r="20.095"/>
                </g>
                <g transform="matrix(0.583236,0,0,0.583236,986.312,295.289)">
                    <circle cx="817.043" cy="446.457" r="20.095"/>
                </g>
                <g transform="matrix(0.583236,0,0,0.583236,986.312,371.735)">
                    <circle cx="817.043" cy="446.457" r="20.095"/>
                </g>
                <g transform="matrix(0.583236,0,0,0.583236,986.312,448.168)">
                    <circle cx="817.043" cy="446.457" r="20.095"/>
                </g>
                <g transform="matrix(0.583236,0,0,0.583236,1062.33,142.498)">
                    <circle cx="817.043" cy="446.457" r="20.095"/>
                </g>
                <g transform="matrix(0.583236,0,0,0.583236,1062.33,219.008)">
                    <circle cx="817.043" cy="446.457" r="20.095"/>
                </g>
                <g transform="matrix(0.583236,0,0,0.583236,1062.33,295.289)">
                    <circle cx="817.043" cy="446.457" r="20.095"/>
                </g>
                <g transform="matrix(0.583236,0,0,0.583236,1062.33,371.735)">
                    <circle cx="817.043" cy="446.457" r="20.095"/>
                </g>
                <g transform="matrix(0.583236,0,0,0.583236,1062.33,448.168)">
                    <circle cx="817.043" cy="446.457" r="20.095"/>
                </g>
                <g transform="matrix(0.583236,0,0,0.583236,1138.38,142.498)">
                    <circle cx="817.043" cy="446.457" r="20.095"/>
                </g>
                <g transform="matrix(0.583236,0,0,0.583236,1138.38,219.008)">
                    <circle cx="817.043" cy="446.457" r="20.095"/>
                </g>
                <g transform="matrix(0.583236,0,0,0.583236,1138.38,295.289)">
                    <circle cx="817.043" cy="446.457" r="20.095"/>
                </g>
                <g transform="matrix(0.583236,0,0,0.583236,1138.38,371.735)">
                    <circle cx="817.043" cy="446.457" r="20.095"/>
                </g>
                <g transform="matrix(0.583236,0,0,0.583236,1138.38,448.168)">
                    <circle cx="817.043" cy="446.457" r="20.095"/>
                </g>
                <g transform="matrix(0.583236,0,0,0.583236,1215.55,142.498)">
                    <circle cx="817.043" cy="446.457" r="20.095"/>
                </g>
                <g transform="matrix(0.583236,0,0,0.583236,1215.55,219.008)">
                    <circle cx="817.043" cy="446.457" r="20.095"/>
                </g>
                <g transform="matrix(0.583236,0,0,0.583236,1215.55,295.289)">
                    <circle cx="817.043" cy="446.457" r="20.095"/>
                </g>
                <g transform="matrix(0.583236,0,0,0.583236,1215.55,371.735)">
                    <circle cx="817.043" cy="446.457" r="20.095"/>
                </g>
                <g transform="matrix(0.583236,0,0,0.583236,1215.55,448.168)">
                    <circle cx="817.043" cy="446.457" r="20.095"/>
                </g>
                <g transform="matrix(0.583236,0,0,0.583236,1292.04,142.498)">
                    <circle cx="817.043" cy="446.457" r="20.095"/>
                </g>
                <g transform="matrix(0.583236,0,0,0.583236,1292.04,219.008)">
                    <circle cx="817.043" cy="446.457" r="20.095"/>
                </g>
                <g transform="matrix(0.583236,0,0,0.583236,1292.04,295.289)">
                    <circle cx="817.043" cy="446.457" r="20.095"/>
                </g>
                <g transform="matrix(0.583236,0,0,0.583236,1292.04,371.735)">
                    <circle cx="817.043" cy="446.457" r="20.095"/>
                </g>
                <g transform="matrix(0.583236,0,0,0.583236,1292.04,448.168)">
                    <circle cx="817.043" cy="446.457" r="20.095"/>
                </g>
            </g>
            <g transform="matrix(1,0,0,1,-905.149,2161.74)">
                <path d="M1357,930.925L1420.07,972.104L1548.63,960.843L1608.47,923.648L1632.73,807.211L1616.56,715.032L1553.49,638.215L1436.24,630.129L1339.21,661.664L1314.95,807.211L1357,930.925Z" style="fill:none;stroke:black;stroke-width:8px;stroke-linecap:butt;stroke-linejoin:miter;stroke-miterlimit:1;"/>
            </g>
        </g>
    </g>
</svg>
