<?xml version="1.0" encoding="UTF-8" standalone="no"?>
<!DOCTYPE svg PUBLIC "-//W3C//DTD SVG 1.1//EN" "http://www.w3.org/Graphics/SVG/1.1/DTD/svg11.dtd">
<svg width="100%" height="100%" viewBox="0 0 1527 470" version="1.1" xmlns="http://www.w3.org/2000/svg" xmlns:xlink="http://www.w3.org/1999/xlink" xml:space="preserve" xmlns:serif="http://www.serif.com/" style="fill-rule:evenodd;clip-rule:evenodd;stroke-linecap:round;stroke-linejoin:round;stroke-miterlimit:1.5;">
    <g transform="matrix(1,0,0,1,-3122,-3599)">
        <rect id="Raster-analysis" serif:id="Raster analysis" x="3056" y="3502" width="1633" height="2460" style="fill:none;"/>
        <g id="Raster-analysis1" serif:id="Raster analysis">
            <g transform="matrix(1,0,0,1,1670.42,3316.71)">
                <g>
                    <g transform="matrix(0.608724,0,0,0.608724,605.316,173.761)">
                        <rect x="1408.73" y="376.404" width="125.464" height="125.464" style="fill:rgb(150,255,21);stroke:black;stroke-width:6.57px;"/>
                    </g>
                    <g transform="matrix(0.608724,0,0,0.608724,605.316,326.506)">
                        <rect x="1408.73" y="376.404" width="125.464" height="125.464" style="fill:rgb(150,255,21);stroke:black;stroke-width:6.57px;"/>
                    </g>
                    <g transform="matrix(0.608724,0,0,0.608724,605.316,402.879)">
                        <rect x="1408.73" y="376.404" width="125.464" height="125.464" style="fill:rgb(150,255,21);stroke:black;stroke-width:6.57px;"/>
                    </g>
                    <g transform="matrix(0.608724,0,0,0.608724,758.061,173.761)">
                        <rect x="1408.73" y="376.404" width="125.464" height="125.464" style="fill:rgb(150,255,21);stroke:black;stroke-width:6.57px;"/>
                    </g>
                    <g transform="matrix(0.608724,0,0,0.608724,758.061,250.134)">
                        <rect x="1408.73" y="376.404" width="125.464" height="125.464" style="fill:rgb(150,255,21);stroke:black;stroke-width:6.57px;"/>
                    </g>
                    <g transform="matrix(0.608724,0,0,0.608724,758.061,326.506)">
                        <rect x="1408.73" y="376.404" width="125.464" height="125.464" style="fill:rgb(150,255,21);stroke:black;stroke-width:6.57px;"/>
                    </g>
                    <g transform="matrix(0.608724,0,0,0.608724,758.061,402.879)">
                        <rect x="1408.73" y="376.404" width="125.464" height="125.464" style="fill:rgb(150,255,21);stroke:black;stroke-width:6.57px;"/>
                    </g>
                    <g transform="matrix(0.608724,0,0,0.608724,681.689,173.761)">
                        <rect x="1408.73" y="376.404" width="125.464" height="125.464" style="fill:rgb(150,255,21);stroke:black;stroke-width:6.57px;"/>
                    </g>
                    <g transform="matrix(0.608724,0,0,0.608724,681.689,250.134)">
                        <rect x="1408.73" y="376.404" width="125.464" height="125.464" style="fill:rgb(150,255,21);stroke:black;stroke-width:6.57px;"/>
                    </g>
                    <g transform="matrix(0.608724,0,0,0.608724,681.689,326.506)">
                        <rect x="1408.73" y="376.404" width="125.464" height="125.464" style="fill:rgb(150,255,21);stroke:black;stroke-width:6.57px;"/>
                    </g>
                    <g transform="matrix(0.608724,0,0,0.608724,681.689,402.879)">
                        <rect x="1408.73" y="376.404" width="125.464" height="125.464" style="fill:rgb(150,255,21);stroke:black;stroke-width:6.57px;"/>
                    </g>
                    <g transform="matrix(0.608724,0,0,0.608724,834.434,173.761)">
                        <rect x="1408.73" y="376.404" width="125.464" height="125.464" style="fill:rgb(150,255,21);stroke:black;stroke-width:6.57px;"/>
                    </g>
                    <g transform="matrix(0.608724,0,0,0.608724,834.434,250.134)">
                        <rect x="1408.73" y="376.404" width="125.464" height="125.464" style="fill:rgb(150,255,21);stroke:black;stroke-width:6.57px;"/>
                    </g>
                    <g transform="matrix(0.608724,0,0,0.608724,834.434,326.506)">
                        <rect x="1408.73" y="376.404" width="125.464" height="125.464" style="fill:rgb(150,255,21);stroke:black;stroke-width:6.57px;"/>
                    </g>
                    <g transform="matrix(0.608724,0,0,0.608724,834.434,402.879)">
                        <rect x="1408.73" y="376.404" width="125.464" height="125.464" style="fill:rgb(150,255,21);stroke:black;stroke-width:6.57px;"/>
                    </g>
                    <g transform="matrix(0.608724,0,0,0.608724,605.316,250.134)">
                        <rect x="1408.73" y="376.404" width="125.464" height="125.464" style="fill:rgb(150,255,21);stroke:black;stroke-width:6.57px;"/>
                    </g>
                </g>
            </g>
            <g transform="matrix(1,0,0,1,2445.62,3320.28)">
                <g>
                    <g transform="matrix(0.489167,0,0,0.608724,773.739,173.761)">
                        <rect x="1408.73" y="376.404" width="125.464" height="125.464" style="fill:rgb(45,231,231);stroke:black;stroke-width:7.24px;"/>
                    </g>
                    <g transform="matrix(0.489167,0,0,0.784073,773.739,238.504)">
                        <rect x="1408.73" y="376.404" width="125.464" height="125.464" style="fill:rgb(45,231,231);stroke:black;stroke-width:6.12px;"/>
                    </g>
                    <g transform="matrix(0.489167,0,0,0.608724,773.739,402.879)">
                        <rect x="1408.73" y="376.404" width="125.464" height="125.464" style="fill:rgb(45,231,231);stroke:black;stroke-width:7.24px;"/>
                    </g>
                    <g transform="matrix(0.983334,0,0,0.608724,218.337,173.761)">
                        <rect x="1408.73" y="376.404" width="125.464" height="125.464" style="fill:rgb(45,231,231);stroke:black;stroke-width:4.89px;"/>
                    </g>
                    <g transform="matrix(0.983334,0,0,0.433374,218.337,316.136)">
                        <rect x="1408.73" y="376.404" width="125.464" height="125.464" style="fill:rgb(45,231,231);stroke:black;stroke-width:5.26px;"/>
                    </g>
                    <g transform="matrix(0.983334,0,0,0.784073,218.337,238.504)">
                        <rect x="1408.73" y="376.404" width="125.464" height="125.464" style="fill:rgb(45,231,231);stroke:black;stroke-width:4.5px;"/>
                    </g>
                    <g transform="matrix(0.983334,0,0,0.608724,218.337,402.879)">
                        <rect x="1408.73" y="376.404" width="125.464" height="125.464" style="fill:rgb(45,231,231);stroke:black;stroke-width:4.89px;"/>
                    </g>
                    <g transform="matrix(0.632635,0,0,0.608724,633.004,173.761)">
                        <rect x="1408.73" y="376.404" width="125.464" height="125.464" style="fill:rgb(45,231,231);stroke:black;stroke-width:6.44px;"/>
                    </g>
                    <g transform="matrix(0.632635,0,0,0.433374,633.004,316.136)">
                        <rect x="1408.73" y="376.404" width="125.464" height="125.464" style="fill:rgb(45,231,231);stroke:black;stroke-width:7.38px;"/>
                    </g>
                    <g transform="matrix(0.632635,0,0,0.784073,633.004,238.504)">
                        <rect x="1408.73" y="376.404" width="125.464" height="125.464" style="fill:rgb(45,231,231);stroke:black;stroke-width:5.61px;"/>
                    </g>
                    <g transform="matrix(0.632635,0,0,0.608724,633.004,402.879)">
                        <rect x="1408.73" y="376.404" width="125.464" height="125.464" style="fill:rgb(45,231,231);stroke:black;stroke-width:6.44px;"/>
                    </g>
                    <g transform="matrix(0.329758,0,0,0.608724,1262.42,173.761)">
                        <rect x="1408.73" y="376.404" width="125.464" height="125.464" style="fill:rgb(45,231,231);stroke:black;stroke-width:8.17px;"/>
                    </g>
                    <g transform="matrix(0.329758,0,0,0.433374,1262.42,316.136)">
                        <rect x="1408.73" y="376.404" width="125.464" height="125.464" style="fill:rgb(45,231,231);stroke:black;stroke-width:10.39px;"/>
                    </g>
                    <g transform="matrix(0.329758,0,0,0.784073,1262.42,238.504)">
                        <rect x="1408.73" y="376.404" width="125.464" height="125.464" style="fill:rgb(45,231,231);stroke:black;stroke-width:6.65px;"/>
                    </g>
                    <g transform="matrix(0.329758,0,0,0.608724,1262.42,402.879)">
                        <rect x="1408.73" y="376.404" width="125.464" height="125.464" style="fill:rgb(45,231,231);stroke:black;stroke-width:8.17px;"/>
                    </g>
                    <g transform="matrix(0.489167,0,0,0.433374,773.739,316.136)">
                        <rect x="1408.73" y="376.404" width="125.464" height="125.464" style="fill:rgb(45,231,231);stroke:black;stroke-width:8.66px;"/>
                    </g>
                </g>
            </g>
            <g transform="matrix(0.984808,-0.173648,-0.184793,1.04801,2176.93,3570.57)">
                <g>
                    <g transform="matrix(0.608724,0,0,0.608724,605.316,173.761)">
                        <rect x="1408.73" y="376.404" width="125.464" height="125.464" style="fill:rgb(250,112,255);stroke:black;stroke-width:7.84px;"/>
                    </g>
                    <g transform="matrix(0.608724,0,0,0.608724,605.316,326.506)">
                        <rect x="1408.73" y="376.404" width="125.464" height="125.464" style="fill:rgb(250,112,255);stroke:black;stroke-width:7.84px;"/>
                    </g>
                    <g transform="matrix(0.608724,0,0,0.608724,605.316,402.879)">
                        <rect x="1408.73" y="376.404" width="125.464" height="125.464" style="fill:rgb(250,112,255);stroke:black;stroke-width:7.84px;"/>
                    </g>
                    <g transform="matrix(0.608724,0,0,0.608724,758.061,173.761)">
                        <rect x="1408.73" y="376.404" width="125.464" height="125.464" style="fill:rgb(250,112,255);stroke:black;stroke-width:7.84px;"/>
                    </g>
                    <g transform="matrix(0.608724,0,0,0.608724,758.061,250.134)">
                        <rect x="1408.73" y="376.404" width="125.464" height="125.464" style="fill:rgb(250,112,255);stroke:black;stroke-width:7.84px;"/>
                    </g>
                    <g transform="matrix(0.608724,0,0,0.608724,758.061,326.506)">
                        <rect x="1408.73" y="376.404" width="125.464" height="125.464" style="fill:rgb(250,112,255);stroke:black;stroke-width:7.84px;"/>
                    </g>
                    <g transform="matrix(0.608724,0,0,0.608724,758.061,402.879)">
                        <rect x="1408.73" y="376.404" width="125.464" height="125.464" style="fill:rgb(250,112,255);stroke:black;stroke-width:7.84px;"/>
                    </g>
                    <g transform="matrix(0.608724,0,0,0.608724,681.689,173.761)">
                        <rect x="1408.73" y="376.404" width="125.464" height="125.464" style="fill:rgb(250,112,255);stroke:black;stroke-width:7.84px;"/>
                    </g>
                    <g transform="matrix(0.608724,0,0,0.608724,681.689,250.134)">
                        <rect x="1408.73" y="376.404" width="125.464" height="125.464" style="fill:rgb(250,112,255);stroke:black;stroke-width:7.84px;"/>
                    </g>
                    <g transform="matrix(0.608724,0,0,0.608724,681.689,326.506)">
                        <rect x="1408.73" y="376.404" width="125.464" height="125.464" style="fill:rgb(250,112,255);stroke:black;stroke-width:7.84px;"/>
                    </g>
                    <g transform="matrix(0.608724,0,0,0.608724,681.689,402.879)">
                        <rect x="1408.73" y="376.404" width="125.464" height="125.464" style="fill:rgb(250,112,255);stroke:black;stroke-width:7.84px;"/>
                    </g>
                    <g transform="matrix(0.608724,0,0,0.608724,834.434,173.761)">
                        <rect x="1408.73" y="376.404" width="125.464" height="125.464" style="fill:rgb(250,112,255);stroke:black;stroke-width:7.84px;"/>
                    </g>
                    <g transform="matrix(0.608724,0,0,0.608724,834.434,250.134)">
                        <rect x="1408.73" y="376.404" width="125.464" height="125.464" style="fill:rgb(250,112,255);stroke:black;stroke-width:7.84px;"/>
                    </g>
                    <g transform="matrix(0.608724,0,0,0.608724,834.434,326.506)">
                        <rect x="1408.73" y="376.404" width="125.464" height="125.464" style="fill:rgb(250,112,255);stroke:black;stroke-width:7.84px;"/>
                    </g>
                    <g transform="matrix(0.608724,0,0,0.608724,834.434,402.879)">
                        <rect x="1408.73" y="376.404" width="125.464" height="125.464" style="fill:rgb(250,112,255);stroke:black;stroke-width:7.84px;"/>
                    </g>
                    <g transform="matrix(0.608724,0,0,0.608724,605.316,250.134)">
                        <rect x="1408.73" y="376.404" width="125.464" height="125.464" style="fill:rgb(250,112,255);stroke:black;stroke-width:7.84px;"/>
                    </g>
                </g>
            </g>
            <g transform="matrix(1,0,0,1,562,-860.833)">
                <path d="M3792,4584C3792,4584 3709.35,4717.13 3723,4889.49" style="fill:none;stroke:black;stroke-width:4px;stroke-miterlimit:10;"/>
            </g>
            <g transform="matrix(1,0,0,1,562,-861.127)">
                <path d="M3723,4889.49C3723,4889.49 3898.8,4940.96 4067.77,4864.3C4098.27,4714.73 4045,4584 4045,4584C3908.29,4627.26 3792,4584 3792,4584C3792,4584 3709.35,4717.13 3723,4889.49" style="fill:rgb(255,235,51);stroke:black;stroke-width:4px;stroke-miterlimit:10;"/>
            </g>
            <g transform="matrix(1,0,0,1,562,-860.833)">
                <path d="M4045,4584C4045,4584 4098.27,4714.73 4067.77,4864.3" style="fill:none;stroke:black;stroke-width:4px;stroke-miterlimit:10;"/>
            </g>
            <g transform="matrix(1,0,0,1,562,-860.833)">
                <path d="M3792,4584C3792,4584 3908.29,4627.26 4045,4584" style="fill:none;stroke:black;stroke-width:4px;stroke-miterlimit:10;"/>
            </g>
            <g transform="matrix(1,0,0,1,562,-860.833)">
                <path d="M3723,4889.49C3723,4889.49 3898.8,4940.96 4067.77,4864.3" style="fill:none;stroke:black;stroke-width:4px;stroke-miterlimit:10;"/>
            </g>
            <g transform="matrix(0.783664,0,0,1,1409.71,-860.833)">
                <path d="M3918.5,4603.23C3918.5,4603.23 3871.78,4763.7 3895.41,4905.1" style="fill:none;stroke:black;stroke-width:4.45px;stroke-miterlimit:10;"/>
            </g>
            <g transform="matrix(1,0,0,1,562,-860.833)">
                <path d="M3851.26,4598.05C3851.26,4598.05 3788.06,4737.81 3803.78,4903.55" style="fill:none;stroke:black;stroke-width:4px;stroke-miterlimit:10;"/>
            </g>
            <g transform="matrix(1,0,0,1,562,-860.833)">
                <path d="M3974.01,4599.67C3974.01,4599.67 4002.76,4718.84 3984.67,4892.52" style="fill:none;stroke:black;stroke-width:4px;stroke-miterlimit:10;"/>
            </g>
            <g transform="matrix(1,0,0,1,562,-860.833)">
                <path d="M3735.21,4732C3735.21,4732 3918.6,4783.9 4074.83,4718.34" style="fill:none;stroke:black;stroke-width:4px;stroke-miterlimit:10;"/>
            </g>
            <g transform="matrix(1,0,0,1,562,-860.833)">
                <path d="M3756.74,4659.94C3756.74,4659.94 3907.01,4714.47 4064.45,4651.23" style="fill:none;stroke:black;stroke-width:4px;stroke-miterlimit:10;"/>
            </g>
            <g transform="matrix(1,0,0,1,562,-860.833)">
                <path d="M3722.96,4812.07C3722.96,4812.07 3900.47,4866.77 4076.72,4790.53" style="fill:none;stroke:black;stroke-width:4px;stroke-miterlimit:10;"/>
            </g>
            <g transform="matrix(1.90554,0,0,1.90554,1835.9,3035.36)">
                <g transform="matrix(21.7258,0,0,21.7258,706.373,314.999)">
                    <path d="M0.06,-0.693C0.088,-0.698 0.119,-0.703 0.153,-0.706C0.186,-0.708 0.22,-0.71 0.253,-0.71C0.288,-0.71 0.323,-0.707 0.358,-0.702C0.393,-0.696 0.424,-0.685 0.452,-0.668C0.48,-0.651 0.503,-0.627 0.521,-0.597C0.538,-0.566 0.547,-0.527 0.547,-0.478C0.547,-0.434 0.539,-0.397 0.524,-0.367C0.509,-0.336 0.488,-0.311 0.463,-0.292C0.438,-0.273 0.409,-0.259 0.377,-0.25C0.344,-0.241 0.311,-0.237 0.276,-0.237L0.26,-0.237C0.253,-0.237 0.245,-0.237 0.237,-0.238C0.229,-0.238 0.221,-0.238 0.214,-0.239C0.206,-0.24 0.2,-0.24 0.197,-0.241L0.197,-0L0.06,-0L0.06,-0.693ZM0.264,-0.592C0.251,-0.592 0.238,-0.592 0.226,-0.591C0.214,-0.59 0.204,-0.588 0.197,-0.587L0.197,-0.36C0.2,-0.359 0.204,-0.359 0.209,-0.358C0.214,-0.357 0.22,-0.357 0.226,-0.357C0.232,-0.356 0.238,-0.356 0.244,-0.356L0.256,-0.356C0.274,-0.356 0.292,-0.358 0.31,-0.361C0.327,-0.364 0.343,-0.371 0.357,-0.38C0.371,-0.389 0.382,-0.401 0.391,-0.417C0.399,-0.433 0.403,-0.454 0.403,-0.48C0.403,-0.502 0.399,-0.52 0.391,-0.535C0.383,-0.549 0.373,-0.56 0.36,-0.569C0.347,-0.578 0.332,-0.584 0.315,-0.587C0.298,-0.59 0.281,-0.592 0.264,-0.592Z" style="fill-rule:nonzero;"/>
                </g>
                <g transform="matrix(21.7258,0,0,21.7258,718.8,314.999)">
                    <path d="M0.457,-0.043C0.437,-0.027 0.41,-0.014 0.376,-0.003C0.341,0.009 0.305,0.014 0.266,0.014C0.185,0.014 0.126,-0.01 0.089,-0.057C0.052,-0.103 0.033,-0.168 0.033,-0.25C0.033,-0.338 0.054,-0.404 0.096,-0.448C0.138,-0.492 0.197,-0.514 0.273,-0.514C0.298,-0.514 0.323,-0.511 0.347,-0.504C0.371,-0.497 0.392,-0.486 0.411,-0.471C0.43,-0.456 0.445,-0.435 0.456,-0.409C0.467,-0.383 0.473,-0.351 0.473,-0.312C0.473,-0.298 0.472,-0.283 0.471,-0.267C0.469,-0.251 0.466,-0.234 0.463,-0.217L0.163,-0.217C0.165,-0.175 0.176,-0.143 0.196,-0.122C0.215,-0.101 0.247,-0.09 0.291,-0.09C0.318,-0.09 0.343,-0.094 0.365,-0.103C0.386,-0.111 0.403,-0.119 0.414,-0.128L0.457,-0.043ZM0.271,-0.41C0.237,-0.41 0.212,-0.4 0.196,-0.38C0.179,-0.359 0.169,-0.332 0.166,-0.298L0.352,-0.298C0.355,-0.334 0.349,-0.362 0.336,-0.381C0.322,-0.4 0.3,-0.41 0.271,-0.41Z" style="fill-rule:nonzero;"/>
                </g>
                <g transform="matrix(21.7258,0,0,21.7258,729.837,314.999)">
                    <path d="M0.38,-0.385L0.191,-0.385L0.191,-0L0.057,-0L0.057,-0.5L0.38,-0.5L0.38,-0.385Z" style="fill-rule:nonzero;"/>
                </g>
                <g transform="matrix(21.7258,0,0,21.7258,738.006,314.999)">
                    <path d="M0.239,-0.219L0.257,-0.141L0.263,-0.141L0.276,-0.22L0.352,-0.5L0.486,-0.5L0.334,-0.049C0.321,-0.012 0.309,0.023 0.298,0.054C0.286,0.085 0.273,0.111 0.259,0.134C0.245,0.157 0.23,0.174 0.213,0.187C0.196,0.199 0.175,0.205 0.152,0.205C0.117,0.205 0.09,0.199 0.069,0.188L0.093,0.084C0.103,0.088 0.113,0.09 0.123,0.09C0.138,0.09 0.153,0.084 0.168,0.071C0.182,0.058 0.193,0.034 0.2,-0L-0.009,-0.5L0.147,-0.5L0.239,-0.219Z" style="fill-rule:nonzero;"/>
                </g>
                <g transform="matrix(21.7258,0,0,21.7258,748.391,314.999)">
                    <path d="M0.329,-0.385L0.23,-0.385C0.226,-0.338 0.221,-0.291 0.216,-0.244C0.211,-0.197 0.202,-0.156 0.191,-0.119C0.179,-0.082 0.163,-0.051 0.143,-0.029C0.123,-0.006 0.097,0.006 0.065,0.006C0.026,0.006 -0.001,0.001 -0.017,-0.009L-0.001,-0.117C0.01,-0.113 0.02,-0.111 0.029,-0.111C0.042,-0.111 0.054,-0.117 0.064,-0.128C0.074,-0.139 0.083,-0.16 0.09,-0.189C0.096,-0.218 0.102,-0.258 0.107,-0.309C0.111,-0.359 0.114,-0.423 0.116,-0.5L0.459,-0.5L0.459,-0L0.329,-0L0.329,-0.385Z" style="fill-rule:nonzero;"/>
                </g>
                <g transform="matrix(21.7258,0,0,21.7258,759.58,314.999)">
                    <path d="M0.321,-0.189L0.261,-0.177L0.165,-0L0.01,-0L0.107,-0.157L0.156,-0.194C0.123,-0.199 0.096,-0.215 0.075,-0.241C0.054,-0.266 0.043,-0.298 0.043,-0.337C0.043,-0.398 0.063,-0.442 0.104,-0.471C0.144,-0.5 0.206,-0.514 0.289,-0.514C0.321,-0.514 0.351,-0.512 0.379,-0.509C0.406,-0.506 0.43,-0.502 0.451,-0.498L0.451,-0L0.321,-0L0.321,-0.189ZM0.321,-0.257L0.321,-0.395C0.314,-0.398 0.306,-0.401 0.297,-0.402C0.288,-0.403 0.28,-0.404 0.272,-0.404C0.242,-0.404 0.219,-0.398 0.202,-0.385C0.185,-0.372 0.177,-0.353 0.177,-0.328C0.177,-0.303 0.186,-0.284 0.205,-0.272C0.223,-0.26 0.25,-0.254 0.285,-0.255L0.321,-0.257Z" style="fill-rule:nonzero;"/>
                </g>
                <g transform="matrix(21.7258,0,0,21.7258,770.508,314.999)">
                    <path d="M0.057,-0.5L0.152,-0.5L0.167,-0.44L0.171,-0.44C0.188,-0.465 0.209,-0.484 0.233,-0.496C0.256,-0.508 0.285,-0.514 0.319,-0.514C0.382,-0.514 0.429,-0.494 0.46,-0.455C0.491,-0.415 0.507,-0.351 0.507,-0.263C0.507,-0.22 0.502,-0.182 0.492,-0.148C0.482,-0.113 0.467,-0.084 0.448,-0.06C0.428,-0.036 0.404,-0.018 0.376,-0.005C0.347,0.008 0.315,0.014 0.278,0.014C0.257,0.014 0.24,0.012 0.227,0.01C0.214,0.007 0.2,0.002 0.187,-0.005L0.187,0.2L0.057,0.2L0.057,-0.5ZM0.28,-0.404C0.255,-0.404 0.235,-0.398 0.221,-0.385C0.206,-0.372 0.195,-0.353 0.187,-0.328L0.187,-0.12C0.196,-0.113 0.207,-0.107 0.218,-0.103C0.229,-0.098 0.243,-0.096 0.261,-0.096C0.298,-0.096 0.326,-0.109 0.345,-0.136C0.364,-0.162 0.373,-0.205 0.373,-0.266C0.373,-0.31 0.366,-0.344 0.351,-0.368C0.336,-0.392 0.313,-0.404 0.28,-0.404Z" style="fill-rule:nonzero;"/>
                </g>
                <g transform="matrix(21.7258,0,0,21.7258,782.24,314.999)">
                    <path d="M0.35,-0.196L0.187,-0.196L0.187,-0L0.057,-0L0.057,-0.5L0.187,-0.5L0.187,-0.312L0.35,-0.312L0.35,-0.5L0.48,-0.5L0.48,-0L0.35,-0L0.35,-0.196Z" style="fill-rule:nonzero;"/>
                </g>
                <g transform="matrix(21.7258,0,0,21.7258,793.906,314.999)">
                    <path d="M0.054,-0.471C0.081,-0.483 0.112,-0.493 0.149,-0.5C0.186,-0.507 0.224,-0.51 0.264,-0.51C0.299,-0.51 0.328,-0.506 0.351,-0.498C0.374,-0.489 0.393,-0.477 0.407,-0.462C0.42,-0.447 0.43,-0.428 0.436,-0.407C0.441,-0.386 0.444,-0.362 0.444,-0.335C0.444,-0.306 0.443,-0.276 0.441,-0.247C0.439,-0.217 0.438,-0.188 0.438,-0.159C0.437,-0.13 0.438,-0.102 0.44,-0.076C0.442,-0.049 0.447,-0.023 0.455,0.001L0.349,0.001L0.328,-0.068L0.323,-0.068C0.31,-0.047 0.291,-0.029 0.268,-0.015C0.244,0 0.213,0.008 0.176,0.008C0.153,0.008 0.132,0.005 0.113,-0.003C0.094,-0.01 0.078,-0.02 0.065,-0.033C0.052,-0.046 0.041,-0.061 0.034,-0.079C0.027,-0.096 0.023,-0.116 0.023,-0.138C0.023,-0.169 0.03,-0.195 0.044,-0.216C0.057,-0.237 0.077,-0.254 0.103,-0.267C0.128,-0.28 0.159,-0.289 0.195,-0.294C0.23,-0.299 0.27,-0.3 0.314,-0.298C0.319,-0.335 0.316,-0.362 0.306,-0.379C0.296,-0.395 0.274,-0.403 0.239,-0.403C0.213,-0.403 0.186,-0.4 0.157,-0.395C0.128,-0.39 0.104,-0.383 0.085,-0.374L0.054,-0.471ZM0.219,-0.099C0.245,-0.099 0.266,-0.105 0.281,-0.117C0.296,-0.128 0.308,-0.141 0.315,-0.154L0.315,-0.219C0.294,-0.221 0.275,-0.221 0.256,-0.22C0.237,-0.219 0.22,-0.216 0.205,-0.211C0.19,-0.206 0.179,-0.2 0.17,-0.191C0.161,-0.182 0.157,-0.171 0.157,-0.158C0.157,-0.139 0.163,-0.125 0.174,-0.115C0.185,-0.104 0.2,-0.099 0.219,-0.099Z" style="fill-rule:nonzero;"/>
                </g>
                <g transform="matrix(21.7258,0,0,21.7258,804.682,314.999)">
                    <path d="M0.321,-0.189L0.261,-0.177L0.165,-0L0.01,-0L0.107,-0.157L0.156,-0.194C0.123,-0.199 0.096,-0.215 0.075,-0.241C0.054,-0.266 0.043,-0.298 0.043,-0.337C0.043,-0.398 0.063,-0.442 0.104,-0.471C0.144,-0.5 0.206,-0.514 0.289,-0.514C0.321,-0.514 0.351,-0.512 0.379,-0.509C0.406,-0.506 0.43,-0.502 0.451,-0.498L0.451,-0L0.321,-0L0.321,-0.189ZM0.321,-0.257L0.321,-0.395C0.314,-0.398 0.306,-0.401 0.297,-0.402C0.288,-0.403 0.28,-0.404 0.272,-0.404C0.242,-0.404 0.219,-0.398 0.202,-0.385C0.185,-0.372 0.177,-0.353 0.177,-0.328C0.177,-0.303 0.186,-0.284 0.205,-0.272C0.223,-0.26 0.25,-0.254 0.285,-0.255L0.321,-0.257Z" style="fill-rule:nonzero;"/>
                </g>
            </g>
            <g transform="matrix(1.90554,0,0,1.90554,1835.9,3087.33)">
                <g transform="matrix(21.7258,0,0,21.7258,725.59,314.999)">
                    <path d="M0.085,-0.693C0.11,-0.698 0.139,-0.701 0.173,-0.704C0.206,-0.707 0.236,-0.708 0.263,-0.708C0.294,-0.708 0.323,-0.705 0.351,-0.698C0.378,-0.691 0.403,-0.68 0.424,-0.665C0.444,-0.65 0.461,-0.63 0.474,-0.605C0.487,-0.58 0.493,-0.55 0.493,-0.515C0.493,-0.46 0.478,-0.416 0.448,-0.382C0.418,-0.348 0.38,-0.325 0.334,-0.314L0.382,-0.277L0.556,-0L0.459,-0L0.266,-0.302L0.168,-0.317L0.168,-0L0.085,-0L0.085,-0.693ZM0.265,-0.636L0.238,-0.636C0.229,-0.636 0.22,-0.636 0.211,-0.635C0.202,-0.634 0.194,-0.634 0.187,-0.633C0.179,-0.632 0.173,-0.631 0.168,-0.63L0.168,-0.372L0.246,-0.372C0.292,-0.372 0.33,-0.383 0.36,-0.406C0.39,-0.429 0.405,-0.464 0.405,-0.512C0.405,-0.548 0.393,-0.578 0.368,-0.601C0.343,-0.624 0.309,-0.636 0.265,-0.636Z" style="fill-rule:nonzero;"/>
                </g>
                <g transform="matrix(21.7258,0,0,21.7258,737.474,314.999)">
                    <path d="M0.442,-0.04C0.422,-0.024 0.397,-0.011 0.367,-0.002C0.336,0.007 0.304,0.012 0.27,0.012C0.232,0.012 0.199,0.006 0.171,-0.007C0.143,-0.019 0.12,-0.037 0.102,-0.06C0.084,-0.083 0.071,-0.11 0.062,-0.142C0.053,-0.174 0.049,-0.21 0.049,-0.25C0.049,-0.335 0.068,-0.4 0.106,-0.445C0.144,-0.49 0.198,-0.512 0.269,-0.512C0.292,-0.512 0.314,-0.51 0.337,-0.505C0.36,-0.5 0.38,-0.49 0.398,-0.476C0.416,-0.462 0.431,-0.442 0.442,-0.417C0.453,-0.391 0.459,-0.357 0.459,-0.315C0.459,-0.293 0.457,-0.269 0.453,-0.242L0.132,-0.242C0.132,-0.213 0.135,-0.187 0.141,-0.164C0.147,-0.141 0.156,-0.122 0.169,-0.107C0.182,-0.091 0.198,-0.079 0.219,-0.071C0.239,-0.062 0.264,-0.058 0.293,-0.058C0.316,-0.058 0.338,-0.062 0.361,-0.07C0.384,-0.078 0.401,-0.087 0.412,-0.098L0.442,-0.04ZM0.27,-0.442C0.231,-0.442 0.199,-0.432 0.176,-0.411C0.152,-0.39 0.138,-0.355 0.133,-0.305L0.381,-0.305C0.381,-0.356 0.371,-0.391 0.352,-0.412C0.333,-0.432 0.305,-0.442 0.27,-0.442Z" style="fill-rule:nonzero;"/>
                </g>
                <g transform="matrix(21.7258,0,0,21.7258,748.51,314.999)">
                    <path d="M0.46,0.023C0.46,0.088 0.443,0.135 0.409,0.166C0.374,0.197 0.323,0.212 0.256,0.212C0.216,0.212 0.184,0.21 0.16,0.205C0.135,0.2 0.114,0.193 0.097,0.185L0.118,0.117C0.133,0.123 0.15,0.129 0.169,0.134C0.188,0.139 0.212,0.142 0.242,0.142C0.27,0.142 0.293,0.14 0.311,0.135C0.328,0.13 0.342,0.121 0.353,0.11C0.364,0.098 0.371,0.083 0.375,0.065C0.379,0.046 0.381,0.024 0.381,-0.001L0.381,-0.049L0.377,-0.049C0.364,-0.03 0.347,-0.015 0.326,-0.005C0.305,0.006 0.278,0.011 0.245,0.011C0.178,0.011 0.128,-0.01 0.097,-0.052C0.065,-0.094 0.049,-0.159 0.049,-0.248C0.049,-0.333 0.069,-0.398 0.11,-0.443C0.151,-0.487 0.211,-0.509 0.29,-0.509C0.328,-0.509 0.361,-0.506 0.388,-0.5C0.415,-0.494 0.439,-0.487 0.46,-0.479L0.46,0.023ZM0.259,-0.059C0.293,-0.059 0.32,-0.068 0.339,-0.085C0.358,-0.101 0.372,-0.128 0.38,-0.164L0.38,-0.42C0.353,-0.433 0.319,-0.439 0.278,-0.439C0.233,-0.439 0.197,-0.424 0.171,-0.393C0.145,-0.362 0.132,-0.314 0.132,-0.249C0.132,-0.221 0.134,-0.195 0.139,-0.172C0.144,-0.149 0.151,-0.129 0.161,-0.112C0.171,-0.095 0.184,-0.082 0.2,-0.073C0.216,-0.064 0.236,-0.059 0.259,-0.059Z" style="fill-rule:nonzero;"/>
                </g>
                <g transform="matrix(21.7258,0,0,21.7258,760.177,314.999)">
                    <path d="M0.149,-0.5L0.149,-0.215C0.149,-0.189 0.151,-0.166 0.154,-0.147C0.157,-0.127 0.162,-0.111 0.169,-0.098C0.176,-0.085 0.186,-0.075 0.199,-0.068C0.212,-0.061 0.228,-0.058 0.247,-0.058C0.265,-0.058 0.281,-0.061 0.295,-0.067C0.309,-0.072 0.322,-0.08 0.333,-0.09C0.343,-0.1 0.353,-0.112 0.362,-0.125C0.37,-0.138 0.377,-0.151 0.382,-0.166L0.382,-0.5L0.462,-0.5L0.462,-0.142C0.462,-0.118 0.463,-0.093 0.465,-0.068C0.466,-0.042 0.469,-0.019 0.473,-0L0.418,-0L0.398,-0.079L0.393,-0.079C0.378,-0.053 0.357,-0.031 0.331,-0.014C0.305,0.003 0.272,0.012 0.232,0.012C0.205,0.012 0.182,0.009 0.162,0.003C0.141,-0.004 0.124,-0.015 0.111,-0.031C0.097,-0.047 0.087,-0.069 0.08,-0.096C0.073,-0.123 0.069,-0.157 0.069,-0.198L0.069,-0.5L0.149,-0.5Z" style="fill-rule:nonzero;"/>
                </g>
                <g transform="matrix(21.7258,0,0,21.7258,771.887,314.999)">
                    <path d="M0.166,-0.123C0.166,-0.1 0.17,-0.083 0.178,-0.073C0.186,-0.063 0.197,-0.058 0.212,-0.058C0.221,-0.058 0.23,-0.059 0.24,-0.06C0.25,-0.061 0.261,-0.064 0.274,-0.069L0.283,-0.006C0.272,-0.001 0.258,0.004 0.239,0.007C0.22,0.01 0.203,0.012 0.189,0.012C0.159,0.012 0.134,0.004 0.115,-0.014C0.096,-0.031 0.086,-0.059 0.086,-0.1L0.086,-0.7L0.166,-0.7L0.166,-0.123Z" style="fill-rule:nonzero;"/>
                </g>
                <g transform="matrix(21.7258,0,0,21.7258,778.231,314.999)">
                    <path d="M0.069,-0.463C0.094,-0.478 0.124,-0.49 0.158,-0.497C0.191,-0.504 0.226,-0.508 0.263,-0.508C0.298,-0.508 0.326,-0.503 0.347,-0.494C0.368,-0.485 0.384,-0.472 0.395,-0.458C0.406,-0.443 0.413,-0.426 0.417,-0.408C0.42,-0.39 0.422,-0.372 0.422,-0.354C0.422,-0.314 0.421,-0.275 0.419,-0.237C0.417,-0.199 0.416,-0.163 0.416,-0.129C0.416,-0.104 0.417,-0.081 0.419,-0.059C0.421,-0.037 0.425,-0.017 0.43,0.002L0.371,0.002L0.35,-0.068L0.345,-0.068C0.339,-0.059 0.332,-0.049 0.323,-0.041C0.314,-0.032 0.303,-0.024 0.29,-0.017C0.277,-0.01 0.263,-0.004 0.246,0.001C0.229,0.006 0.21,0.008 0.189,0.008C0.168,0.008 0.148,0.005 0.13,-0.002C0.111,-0.009 0.095,-0.018 0.082,-0.031C0.069,-0.043 0.058,-0.058 0.051,-0.075C0.043,-0.092 0.039,-0.112 0.039,-0.134C0.039,-0.163 0.045,-0.188 0.057,-0.208C0.069,-0.227 0.086,-0.243 0.108,-0.255C0.129,-0.266 0.155,-0.275 0.186,-0.28C0.216,-0.285 0.249,-0.287 0.286,-0.287L0.314,-0.287C0.323,-0.287 0.332,-0.286 0.341,-0.285C0.343,-0.305 0.344,-0.323 0.344,-0.339C0.344,-0.376 0.337,-0.401 0.322,-0.416C0.307,-0.431 0.281,-0.438 0.242,-0.438C0.231,-0.438 0.219,-0.437 0.206,-0.436C0.193,-0.434 0.179,-0.432 0.166,-0.429C0.152,-0.426 0.139,-0.422 0.127,-0.418C0.114,-0.413 0.103,-0.408 0.094,-0.403L0.069,-0.463ZM0.211,-0.062C0.23,-0.062 0.246,-0.065 0.261,-0.07C0.276,-0.075 0.288,-0.081 0.299,-0.089C0.31,-0.096 0.319,-0.105 0.326,-0.114C0.333,-0.123 0.338,-0.132 0.341,-0.141L0.341,-0.224C0.332,-0.225 0.322,-0.225 0.313,-0.226C0.303,-0.226 0.293,-0.226 0.284,-0.226C0.263,-0.226 0.243,-0.225 0.224,-0.223C0.204,-0.22 0.187,-0.216 0.172,-0.21C0.157,-0.203 0.145,-0.195 0.136,-0.184C0.127,-0.173 0.122,-0.159 0.122,-0.142C0.122,-0.119 0.13,-0.099 0.147,-0.085C0.164,-0.07 0.185,-0.062 0.211,-0.062Z" style="fill-rule:nonzero;"/>
                </g>
                <g transform="matrix(21.7258,0,0,21.7258,789.007,314.999)">
                    <path d="M0.313,-0.423C0.293,-0.43 0.274,-0.433 0.256,-0.433C0.227,-0.433 0.205,-0.425 0.188,-0.41C0.171,-0.394 0.161,-0.374 0.157,-0.35L0.157,-0L0.077,-0L0.077,-0.5L0.133,-0.5L0.148,-0.439L0.152,-0.439C0.165,-0.462 0.18,-0.479 0.198,-0.492C0.215,-0.504 0.238,-0.51 0.265,-0.51C0.284,-0.51 0.306,-0.507 0.33,-0.5L0.313,-0.423Z" style="fill-rule:nonzero;"/>
                </g>
            </g>
            <g transform="matrix(1.90554,0,0,1.90554,2235.43,3087.33)">
                <g transform="matrix(21.7258,0,0,21.7258,733.335,314.999)">
                    <path d="M0.418,-0.194L0.16,-0.194L0.09,-0L0.008,-0L0.273,-0.711L0.311,-0.711L0.577,-0L0.49,-0L0.418,-0.194ZM0.187,-0.266L0.393,-0.266L0.315,-0.479L0.29,-0.585L0.289,-0.585L0.264,-0.477L0.187,-0.266Z" style="fill-rule:nonzero;"/>
                </g>
                <g transform="matrix(21.7258,0,0,21.7258,746.044,314.999)">
                    <path d="M0.022,-0.5L0.1,-0.5L0.1,-0.528C0.1,-0.559 0.102,-0.585 0.108,-0.608C0.113,-0.631 0.121,-0.649 0.132,-0.664C0.143,-0.678 0.158,-0.689 0.176,-0.696C0.194,-0.703 0.216,-0.706 0.243,-0.706C0.264,-0.706 0.283,-0.705 0.3,-0.702C0.316,-0.699 0.333,-0.694 0.351,-0.687L0.333,-0.62C0.318,-0.627 0.303,-0.631 0.29,-0.633C0.276,-0.635 0.263,-0.636 0.251,-0.636C0.234,-0.636 0.22,-0.633 0.211,-0.628C0.201,-0.623 0.194,-0.615 0.19,-0.605C0.185,-0.594 0.183,-0.582 0.182,-0.567C0.181,-0.552 0.18,-0.534 0.18,-0.514L0.18,-0.5L0.313,-0.5L0.313,-0.43L0.18,-0.43L0.18,-0L0.1,-0L0.1,-0.43L0.022,-0.43L0.022,-0.5Z" style="fill-rule:nonzero;"/>
                </g>
                <g transform="matrix(21.7258,0,0,21.7258,752.975,314.999)">
                    <path d="M0.022,-0.5L0.1,-0.5L0.1,-0.528C0.1,-0.559 0.102,-0.585 0.108,-0.608C0.113,-0.631 0.121,-0.649 0.132,-0.664C0.143,-0.678 0.158,-0.689 0.176,-0.696C0.194,-0.703 0.216,-0.706 0.243,-0.706C0.264,-0.706 0.283,-0.705 0.3,-0.702C0.316,-0.699 0.333,-0.694 0.351,-0.687L0.333,-0.62C0.318,-0.627 0.303,-0.631 0.29,-0.633C0.276,-0.635 0.263,-0.636 0.251,-0.636C0.234,-0.636 0.22,-0.633 0.211,-0.628C0.201,-0.623 0.194,-0.615 0.19,-0.605C0.185,-0.594 0.183,-0.582 0.182,-0.567C0.181,-0.552 0.18,-0.534 0.18,-0.514L0.18,-0.5L0.313,-0.5L0.313,-0.43L0.18,-0.43L0.18,-0L0.1,-0L0.1,-0.43L0.022,-0.43L0.022,-0.5Z" style="fill-rule:nonzero;"/>
                </g>
                <g transform="matrix(21.7258,0,0,21.7258,759.905,314.999)">
                    <path d="M0.094,-0.5L0.174,-0.5L0.174,-0L0.094,-0L0.094,-0.5ZM0.077,-0.652C0.077,-0.667 0.082,-0.681 0.093,-0.692C0.103,-0.703 0.116,-0.708 0.132,-0.708C0.148,-0.708 0.162,-0.703 0.173,-0.692C0.184,-0.681 0.19,-0.667 0.19,-0.652C0.19,-0.637 0.184,-0.624 0.173,-0.614C0.162,-0.604 0.148,-0.599 0.132,-0.599C0.116,-0.599 0.103,-0.604 0.093,-0.614C0.082,-0.624 0.077,-0.637 0.077,-0.652Z" style="fill-rule:nonzero;"/>
                </g>
                <g transform="matrix(21.7258,0,0,21.7258,765.728,314.999)">
                    <path d="M0.398,-0L0.398,-0.285C0.398,-0.337 0.391,-0.376 0.376,-0.403C0.361,-0.429 0.333,-0.442 0.293,-0.442C0.258,-0.442 0.229,-0.433 0.206,-0.414C0.183,-0.395 0.166,-0.371 0.157,-0.342L0.157,-0L0.077,-0L0.077,-0.5L0.133,-0.5L0.148,-0.439L0.152,-0.439C0.168,-0.46 0.19,-0.478 0.217,-0.492C0.244,-0.505 0.276,-0.512 0.313,-0.512C0.34,-0.512 0.364,-0.509 0.385,-0.503C0.406,-0.496 0.423,-0.485 0.437,-0.469C0.45,-0.453 0.46,-0.432 0.468,-0.405C0.475,-0.378 0.478,-0.343 0.478,-0.302L0.478,-0L0.398,-0Z" style="fill-rule:nonzero;"/>
                </g>
                <g transform="matrix(21.7258,0,0,21.7258,777.612,314.999)">
                    <path d="M0.442,-0.04C0.422,-0.024 0.397,-0.011 0.367,-0.002C0.336,0.007 0.304,0.012 0.27,0.012C0.232,0.012 0.199,0.006 0.171,-0.007C0.143,-0.019 0.12,-0.037 0.102,-0.06C0.084,-0.083 0.071,-0.11 0.062,-0.142C0.053,-0.174 0.049,-0.21 0.049,-0.25C0.049,-0.335 0.068,-0.4 0.106,-0.445C0.144,-0.49 0.198,-0.512 0.269,-0.512C0.292,-0.512 0.314,-0.51 0.337,-0.505C0.36,-0.5 0.38,-0.49 0.398,-0.476C0.416,-0.462 0.431,-0.442 0.442,-0.417C0.453,-0.391 0.459,-0.357 0.459,-0.315C0.459,-0.293 0.457,-0.269 0.453,-0.242L0.132,-0.242C0.132,-0.213 0.135,-0.187 0.141,-0.164C0.147,-0.141 0.156,-0.122 0.169,-0.107C0.182,-0.091 0.198,-0.079 0.219,-0.071C0.239,-0.062 0.264,-0.058 0.293,-0.058C0.316,-0.058 0.338,-0.062 0.361,-0.07C0.384,-0.078 0.401,-0.087 0.412,-0.098L0.442,-0.04ZM0.27,-0.442C0.231,-0.442 0.199,-0.432 0.176,-0.411C0.152,-0.39 0.138,-0.355 0.133,-0.305L0.381,-0.305C0.381,-0.356 0.371,-0.391 0.352,-0.412C0.333,-0.432 0.305,-0.442 0.27,-0.442Z" style="fill-rule:nonzero;"/>
                </g>
            </g>
            <g transform="matrix(1.90554,0,0,1.90554,2612.64,3087.33)">
                <g transform="matrix(21.7258,0,0,21.7258,711.413,314.999)">
                    <path d="M0.085,-0.693C0.11,-0.698 0.139,-0.701 0.173,-0.704C0.206,-0.707 0.236,-0.708 0.263,-0.708C0.294,-0.708 0.323,-0.705 0.351,-0.698C0.378,-0.691 0.403,-0.68 0.424,-0.665C0.444,-0.65 0.461,-0.63 0.474,-0.605C0.487,-0.58 0.493,-0.55 0.493,-0.515C0.493,-0.46 0.478,-0.416 0.448,-0.382C0.418,-0.348 0.38,-0.325 0.334,-0.314L0.382,-0.277L0.556,-0L0.459,-0L0.266,-0.302L0.168,-0.317L0.168,-0L0.085,-0L0.085,-0.693ZM0.265,-0.636L0.238,-0.636C0.229,-0.636 0.22,-0.636 0.211,-0.635C0.202,-0.634 0.194,-0.634 0.187,-0.633C0.179,-0.632 0.173,-0.631 0.168,-0.63L0.168,-0.372L0.246,-0.372C0.292,-0.372 0.33,-0.383 0.36,-0.406C0.39,-0.429 0.405,-0.464 0.405,-0.512C0.405,-0.548 0.393,-0.578 0.368,-0.601C0.343,-0.624 0.309,-0.636 0.265,-0.636Z" style="fill-rule:nonzero;"/>
                </g>
                <g transform="matrix(21.7258,0,0,21.7258,723.297,314.999)">
                    <path d="M0.442,-0.04C0.422,-0.024 0.397,-0.011 0.367,-0.002C0.336,0.007 0.304,0.012 0.27,0.012C0.232,0.012 0.199,0.006 0.171,-0.007C0.143,-0.019 0.12,-0.037 0.102,-0.06C0.084,-0.083 0.071,-0.11 0.062,-0.142C0.053,-0.174 0.049,-0.21 0.049,-0.25C0.049,-0.335 0.068,-0.4 0.106,-0.445C0.144,-0.49 0.198,-0.512 0.269,-0.512C0.292,-0.512 0.314,-0.51 0.337,-0.505C0.36,-0.5 0.38,-0.49 0.398,-0.476C0.416,-0.462 0.431,-0.442 0.442,-0.417C0.453,-0.391 0.459,-0.357 0.459,-0.315C0.459,-0.293 0.457,-0.269 0.453,-0.242L0.132,-0.242C0.132,-0.213 0.135,-0.187 0.141,-0.164C0.147,-0.141 0.156,-0.122 0.169,-0.107C0.182,-0.091 0.198,-0.079 0.219,-0.071C0.239,-0.062 0.264,-0.058 0.293,-0.058C0.316,-0.058 0.338,-0.062 0.361,-0.07C0.384,-0.078 0.401,-0.087 0.412,-0.098L0.442,-0.04ZM0.27,-0.442C0.231,-0.442 0.199,-0.432 0.176,-0.411C0.152,-0.39 0.138,-0.355 0.133,-0.305L0.381,-0.305C0.381,-0.356 0.371,-0.391 0.352,-0.412C0.333,-0.432 0.305,-0.442 0.27,-0.442Z" style="fill-rule:nonzero;"/>
                </g>
                <g transform="matrix(21.7258,0,0,21.7258,734.334,314.999)">
                    <path d="M0.418,-0.033C0.398,-0.018 0.374,-0.007 0.347,0.001C0.32,0.008 0.291,0.012 0.261,0.012C0.222,0.012 0.19,0.006 0.163,-0.007C0.136,-0.019 0.115,-0.037 0.098,-0.06C0.081,-0.083 0.068,-0.11 0.061,-0.143C0.053,-0.175 0.049,-0.211 0.049,-0.25C0.049,-0.335 0.068,-0.4 0.105,-0.445C0.142,-0.49 0.196,-0.512 0.266,-0.512C0.298,-0.512 0.325,-0.51 0.348,-0.505C0.37,-0.5 0.39,-0.492 0.408,-0.483L0.385,-0.414C0.37,-0.423 0.353,-0.43 0.334,-0.435C0.315,-0.44 0.295,-0.442 0.274,-0.442C0.179,-0.442 0.132,-0.378 0.132,-0.25C0.132,-0.225 0.135,-0.2 0.14,-0.178C0.145,-0.155 0.153,-0.134 0.165,-0.117C0.176,-0.099 0.192,-0.085 0.211,-0.074C0.23,-0.063 0.253,-0.058 0.281,-0.058C0.305,-0.058 0.327,-0.062 0.346,-0.069C0.365,-0.076 0.38,-0.085 0.392,-0.094L0.418,-0.033Z" style="fill-rule:nonzero;"/>
                </g>
                <g transform="matrix(21.7258,0,0,21.7258,744.133,314.999)">
                    <path d="M0.011,-0.5L0.089,-0.5L0.089,-0.599L0.169,-0.622L0.169,-0.5L0.305,-0.5L0.305,-0.43L0.169,-0.43L0.169,-0.153C0.169,-0.118 0.173,-0.094 0.182,-0.08C0.191,-0.065 0.205,-0.058 0.226,-0.058C0.243,-0.058 0.258,-0.06 0.27,-0.064C0.282,-0.067 0.295,-0.072 0.31,-0.078L0.328,-0.017C0.31,-0.008 0.29,-0.001 0.269,0.004C0.248,0.009 0.225,0.012 0.2,0.012C0.159,0.012 0.131,0.001 0.114,-0.023C0.097,-0.046 0.089,-0.084 0.089,-0.138L0.089,-0.43L0.011,-0.43L0.011,-0.5Z" style="fill-rule:nonzero;"/>
                </g>
                <g transform="matrix(21.7258,0,0,21.7258,751.498,314.999)">
                    <path d="M0.094,-0.5L0.174,-0.5L0.174,-0L0.094,-0L0.094,-0.5ZM0.077,-0.652C0.077,-0.667 0.082,-0.681 0.093,-0.692C0.103,-0.703 0.116,-0.708 0.132,-0.708C0.148,-0.708 0.162,-0.703 0.173,-0.692C0.184,-0.681 0.19,-0.667 0.19,-0.652C0.19,-0.637 0.184,-0.624 0.173,-0.614C0.162,-0.604 0.148,-0.599 0.132,-0.599C0.116,-0.599 0.103,-0.604 0.093,-0.614C0.082,-0.624 0.077,-0.637 0.077,-0.652Z" style="fill-rule:nonzero;"/>
                </g>
                <g transform="matrix(21.7258,0,0,21.7258,757.32,314.999)">
                    <path d="M0.166,-0.123C0.166,-0.1 0.17,-0.083 0.178,-0.073C0.186,-0.063 0.197,-0.058 0.212,-0.058C0.221,-0.058 0.23,-0.059 0.24,-0.06C0.25,-0.061 0.261,-0.064 0.274,-0.069L0.283,-0.006C0.272,-0.001 0.258,0.004 0.239,0.007C0.22,0.01 0.203,0.012 0.189,0.012C0.159,0.012 0.134,0.004 0.115,-0.014C0.096,-0.031 0.086,-0.059 0.086,-0.1L0.086,-0.7L0.166,-0.7L0.166,-0.123Z" style="fill-rule:nonzero;"/>
                </g>
                <g transform="matrix(21.7258,0,0,21.7258,763.664,314.999)">
                    <path d="M0.094,-0.5L0.174,-0.5L0.174,-0L0.094,-0L0.094,-0.5ZM0.077,-0.652C0.077,-0.667 0.082,-0.681 0.093,-0.692C0.103,-0.703 0.116,-0.708 0.132,-0.708C0.148,-0.708 0.162,-0.703 0.173,-0.692C0.184,-0.681 0.19,-0.667 0.19,-0.652C0.19,-0.637 0.184,-0.624 0.173,-0.614C0.162,-0.604 0.148,-0.599 0.132,-0.599C0.116,-0.599 0.103,-0.604 0.093,-0.614C0.082,-0.624 0.077,-0.637 0.077,-0.652Z" style="fill-rule:nonzero;"/>
                </g>
                <g transform="matrix(21.7258,0,0,21.7258,769.487,314.999)">
                    <path d="M0.398,-0L0.398,-0.285C0.398,-0.337 0.391,-0.376 0.376,-0.403C0.361,-0.429 0.333,-0.442 0.293,-0.442C0.258,-0.442 0.229,-0.433 0.206,-0.414C0.183,-0.395 0.166,-0.371 0.157,-0.342L0.157,-0L0.077,-0L0.077,-0.5L0.133,-0.5L0.148,-0.439L0.152,-0.439C0.168,-0.46 0.19,-0.478 0.217,-0.492C0.244,-0.505 0.276,-0.512 0.313,-0.512C0.34,-0.512 0.364,-0.509 0.385,-0.503C0.406,-0.496 0.423,-0.485 0.437,-0.469C0.45,-0.453 0.46,-0.432 0.468,-0.405C0.475,-0.378 0.478,-0.343 0.478,-0.302L0.478,-0L0.398,-0Z" style="fill-rule:nonzero;"/>
                </g>
                <g transform="matrix(21.7258,0,0,21.7258,781.371,314.999)">
                    <path d="M0.442,-0.04C0.422,-0.024 0.397,-0.011 0.367,-0.002C0.336,0.007 0.304,0.012 0.27,0.012C0.232,0.012 0.199,0.006 0.171,-0.007C0.143,-0.019 0.12,-0.037 0.102,-0.06C0.084,-0.083 0.071,-0.11 0.062,-0.142C0.053,-0.174 0.049,-0.21 0.049,-0.25C0.049,-0.335 0.068,-0.4 0.106,-0.445C0.144,-0.49 0.198,-0.512 0.269,-0.512C0.292,-0.512 0.314,-0.51 0.337,-0.505C0.36,-0.5 0.38,-0.49 0.398,-0.476C0.416,-0.462 0.431,-0.442 0.442,-0.417C0.453,-0.391 0.459,-0.357 0.459,-0.315C0.459,-0.293 0.457,-0.269 0.453,-0.242L0.132,-0.242C0.132,-0.213 0.135,-0.187 0.141,-0.164C0.147,-0.141 0.156,-0.122 0.169,-0.107C0.182,-0.091 0.198,-0.079 0.219,-0.071C0.239,-0.062 0.264,-0.058 0.293,-0.058C0.316,-0.058 0.338,-0.062 0.361,-0.07C0.384,-0.078 0.401,-0.087 0.412,-0.098L0.442,-0.04ZM0.27,-0.442C0.231,-0.442 0.199,-0.432 0.176,-0.411C0.152,-0.39 0.138,-0.355 0.133,-0.305L0.381,-0.305C0.381,-0.356 0.371,-0.391 0.352,-0.412C0.333,-0.432 0.305,-0.442 0.27,-0.442Z" style="fill-rule:nonzero;"/>
                </g>
                <g transform="matrix(21.7258,0,0,21.7258,792.407,314.999)">
                    <path d="M0.069,-0.463C0.094,-0.478 0.124,-0.49 0.158,-0.497C0.191,-0.504 0.226,-0.508 0.263,-0.508C0.298,-0.508 0.326,-0.503 0.347,-0.494C0.368,-0.485 0.384,-0.472 0.395,-0.458C0.406,-0.443 0.413,-0.426 0.417,-0.408C0.42,-0.39 0.422,-0.372 0.422,-0.354C0.422,-0.314 0.421,-0.275 0.419,-0.237C0.417,-0.199 0.416,-0.163 0.416,-0.129C0.416,-0.104 0.417,-0.081 0.419,-0.059C0.421,-0.037 0.425,-0.017 0.43,0.002L0.371,0.002L0.35,-0.068L0.345,-0.068C0.339,-0.059 0.332,-0.049 0.323,-0.041C0.314,-0.032 0.303,-0.024 0.29,-0.017C0.277,-0.01 0.263,-0.004 0.246,0.001C0.229,0.006 0.21,0.008 0.189,0.008C0.168,0.008 0.148,0.005 0.13,-0.002C0.111,-0.009 0.095,-0.018 0.082,-0.031C0.069,-0.043 0.058,-0.058 0.051,-0.075C0.043,-0.092 0.039,-0.112 0.039,-0.134C0.039,-0.163 0.045,-0.188 0.057,-0.208C0.069,-0.227 0.086,-0.243 0.108,-0.255C0.129,-0.266 0.155,-0.275 0.186,-0.28C0.216,-0.285 0.249,-0.287 0.286,-0.287L0.314,-0.287C0.323,-0.287 0.332,-0.286 0.341,-0.285C0.343,-0.305 0.344,-0.323 0.344,-0.339C0.344,-0.376 0.337,-0.401 0.322,-0.416C0.307,-0.431 0.281,-0.438 0.242,-0.438C0.231,-0.438 0.219,-0.437 0.206,-0.436C0.193,-0.434 0.179,-0.432 0.166,-0.429C0.152,-0.426 0.139,-0.422 0.127,-0.418C0.114,-0.413 0.103,-0.408 0.094,-0.403L0.069,-0.463ZM0.211,-0.062C0.23,-0.062 0.246,-0.065 0.261,-0.07C0.276,-0.075 0.288,-0.081 0.299,-0.089C0.31,-0.096 0.319,-0.105 0.326,-0.114C0.333,-0.123 0.338,-0.132 0.341,-0.141L0.341,-0.224C0.332,-0.225 0.322,-0.225 0.313,-0.226C0.303,-0.226 0.293,-0.226 0.284,-0.226C0.263,-0.226 0.243,-0.225 0.224,-0.223C0.204,-0.22 0.187,-0.216 0.172,-0.21C0.157,-0.203 0.145,-0.195 0.136,-0.184C0.127,-0.173 0.122,-0.159 0.122,-0.142C0.122,-0.119 0.13,-0.099 0.147,-0.085C0.164,-0.07 0.185,-0.062 0.211,-0.062Z" style="fill-rule:nonzero;"/>
                </g>
                <g transform="matrix(21.7258,0,0,21.7258,803.183,314.999)">
                    <path d="M0.313,-0.423C0.293,-0.43 0.274,-0.433 0.256,-0.433C0.227,-0.433 0.205,-0.425 0.188,-0.41C0.171,-0.394 0.161,-0.374 0.157,-0.35L0.157,-0L0.077,-0L0.077,-0.5L0.133,-0.5L0.148,-0.439L0.152,-0.439C0.165,-0.462 0.18,-0.479 0.198,-0.492C0.215,-0.504 0.238,-0.51 0.265,-0.51C0.284,-0.51 0.306,-0.507 0.33,-0.5L0.313,-0.423Z" style="fill-rule:nonzero;"/>
                </g>
            </g>
            <g transform="matrix(1.90554,0,0,1.90554,3027.65,3087.33)">
                <g transform="matrix(21.7258,0,0,21.7258,710.468,314.999)">
                    <path d="M0.533,-0.029C0.513,-0.014 0.488,-0.003 0.457,0.003C0.426,0.009 0.394,0.012 0.359,0.012C0.317,0.012 0.278,0.005 0.241,-0.01C0.204,-0.024 0.172,-0.046 0.145,-0.075C0.118,-0.104 0.096,-0.142 0.08,-0.188C0.064,-0.233 0.056,-0.287 0.056,-0.35C0.056,-0.415 0.065,-0.471 0.083,-0.517C0.1,-0.562 0.124,-0.6 0.153,-0.629C0.182,-0.658 0.214,-0.679 0.25,-0.692C0.286,-0.705 0.323,-0.712 0.36,-0.712C0.4,-0.712 0.433,-0.71 0.458,-0.706C0.483,-0.701 0.505,-0.695 0.523,-0.688L0.503,-0.615C0.471,-0.63 0.425,-0.638 0.366,-0.638C0.339,-0.638 0.312,-0.633 0.285,-0.623C0.258,-0.613 0.235,-0.597 0.214,-0.574C0.193,-0.551 0.176,-0.522 0.163,-0.485C0.15,-0.448 0.144,-0.403 0.144,-0.35C0.144,-0.302 0.15,-0.26 0.162,-0.224C0.174,-0.188 0.191,-0.158 0.212,-0.134C0.233,-0.11 0.257,-0.092 0.286,-0.08C0.314,-0.068 0.345,-0.062 0.378,-0.062C0.408,-0.062 0.434,-0.065 0.457,-0.071C0.479,-0.077 0.498,-0.085 0.513,-0.094L0.533,-0.029Z" style="fill-rule:nonzero;"/>
                </g>
                <g transform="matrix(21.7258,0,0,21.7258,722.874,314.999)">
                    <path d="M0.149,-0.5L0.149,-0.215C0.149,-0.189 0.151,-0.166 0.154,-0.147C0.157,-0.127 0.162,-0.111 0.169,-0.098C0.176,-0.085 0.186,-0.075 0.199,-0.068C0.212,-0.061 0.228,-0.058 0.247,-0.058C0.265,-0.058 0.281,-0.061 0.295,-0.067C0.309,-0.072 0.322,-0.08 0.333,-0.09C0.343,-0.1 0.353,-0.112 0.362,-0.125C0.37,-0.138 0.377,-0.151 0.382,-0.166L0.382,-0.5L0.462,-0.5L0.462,-0.142C0.462,-0.118 0.463,-0.093 0.465,-0.068C0.466,-0.042 0.469,-0.019 0.473,-0L0.418,-0L0.398,-0.079L0.393,-0.079C0.378,-0.053 0.357,-0.031 0.331,-0.014C0.305,0.003 0.272,0.012 0.232,0.012C0.205,0.012 0.182,0.009 0.162,0.003C0.141,-0.004 0.124,-0.015 0.111,-0.031C0.097,-0.047 0.087,-0.069 0.08,-0.096C0.073,-0.123 0.069,-0.157 0.069,-0.198L0.069,-0.5L0.149,-0.5Z" style="fill-rule:nonzero;"/>
                </g>
                <g transform="matrix(21.7258,0,0,21.7258,734.584,314.999)">
                    <path d="M0.313,-0.423C0.293,-0.43 0.274,-0.433 0.256,-0.433C0.227,-0.433 0.205,-0.425 0.188,-0.41C0.171,-0.394 0.161,-0.374 0.157,-0.35L0.157,-0L0.077,-0L0.077,-0.5L0.133,-0.5L0.148,-0.439L0.152,-0.439C0.165,-0.462 0.18,-0.479 0.198,-0.492C0.215,-0.504 0.238,-0.51 0.265,-0.51C0.284,-0.51 0.306,-0.507 0.33,-0.5L0.313,-0.423Z" style="fill-rule:nonzero;"/>
                </g>
                <g transform="matrix(21.7258,0,0,21.7258,741.971,314.999)">
                    <path d="M0.221,-0.207L0.249,-0.112L0.25,-0.112L0.275,-0.209L0.387,-0.5L0.473,-0.5L0.26,0.011L0.226,0.011L0.009,-0.5L0.101,-0.5L0.221,-0.207Z" style="fill-rule:nonzero;"/>
                </g>
                <g transform="matrix(21.7258,0,0,21.7258,752.443,314.999)">
                    <path d="M0.094,-0.5L0.174,-0.5L0.174,-0L0.094,-0L0.094,-0.5ZM0.077,-0.652C0.077,-0.667 0.082,-0.681 0.093,-0.692C0.103,-0.703 0.116,-0.708 0.132,-0.708C0.148,-0.708 0.162,-0.703 0.173,-0.692C0.184,-0.681 0.19,-0.667 0.19,-0.652C0.19,-0.637 0.184,-0.624 0.173,-0.614C0.162,-0.604 0.148,-0.599 0.132,-0.599C0.116,-0.599 0.103,-0.604 0.093,-0.614C0.082,-0.624 0.077,-0.637 0.077,-0.652Z" style="fill-rule:nonzero;"/>
                </g>
                <g transform="matrix(21.7258,0,0,21.7258,758.265,314.999)">
                    <path d="M0.166,-0.123C0.166,-0.1 0.17,-0.083 0.178,-0.073C0.186,-0.063 0.197,-0.058 0.212,-0.058C0.221,-0.058 0.23,-0.059 0.24,-0.06C0.25,-0.061 0.261,-0.064 0.274,-0.069L0.283,-0.006C0.272,-0.001 0.258,0.004 0.239,0.007C0.22,0.01 0.203,0.012 0.189,0.012C0.159,0.012 0.134,0.004 0.115,-0.014C0.096,-0.031 0.086,-0.059 0.086,-0.1L0.086,-0.7L0.166,-0.7L0.166,-0.123Z" style="fill-rule:nonzero;"/>
                </g>
                <g transform="matrix(21.7258,0,0,21.7258,764.609,314.999)">
                    <path d="M0.094,-0.5L0.174,-0.5L0.174,-0L0.094,-0L0.094,-0.5ZM0.077,-0.652C0.077,-0.667 0.082,-0.681 0.093,-0.692C0.103,-0.703 0.116,-0.708 0.132,-0.708C0.148,-0.708 0.162,-0.703 0.173,-0.692C0.184,-0.681 0.19,-0.667 0.19,-0.652C0.19,-0.637 0.184,-0.624 0.173,-0.614C0.162,-0.604 0.148,-0.599 0.132,-0.599C0.116,-0.599 0.103,-0.604 0.093,-0.614C0.082,-0.624 0.077,-0.637 0.077,-0.652Z" style="fill-rule:nonzero;"/>
                </g>
                <g transform="matrix(21.7258,0,0,21.7258,770.432,314.999)">
                    <path d="M0.398,-0L0.398,-0.285C0.398,-0.337 0.391,-0.376 0.376,-0.403C0.361,-0.429 0.333,-0.442 0.293,-0.442C0.258,-0.442 0.229,-0.433 0.206,-0.414C0.183,-0.395 0.166,-0.371 0.157,-0.342L0.157,-0L0.077,-0L0.077,-0.5L0.133,-0.5L0.148,-0.439L0.152,-0.439C0.168,-0.46 0.19,-0.478 0.217,-0.492C0.244,-0.505 0.276,-0.512 0.313,-0.512C0.34,-0.512 0.364,-0.509 0.385,-0.503C0.406,-0.496 0.423,-0.485 0.437,-0.469C0.45,-0.453 0.46,-0.432 0.468,-0.405C0.475,-0.378 0.478,-0.343 0.478,-0.302L0.478,-0L0.398,-0Z" style="fill-rule:nonzero;"/>
                </g>
                <g transform="matrix(21.7258,0,0,21.7258,782.316,314.999)">
                    <path d="M0.442,-0.04C0.422,-0.024 0.397,-0.011 0.367,-0.002C0.336,0.007 0.304,0.012 0.27,0.012C0.232,0.012 0.199,0.006 0.171,-0.007C0.143,-0.019 0.12,-0.037 0.102,-0.06C0.084,-0.083 0.071,-0.11 0.062,-0.142C0.053,-0.174 0.049,-0.21 0.049,-0.25C0.049,-0.335 0.068,-0.4 0.106,-0.445C0.144,-0.49 0.198,-0.512 0.269,-0.512C0.292,-0.512 0.314,-0.51 0.337,-0.505C0.36,-0.5 0.38,-0.49 0.398,-0.476C0.416,-0.462 0.431,-0.442 0.442,-0.417C0.453,-0.391 0.459,-0.357 0.459,-0.315C0.459,-0.293 0.457,-0.269 0.453,-0.242L0.132,-0.242C0.132,-0.213 0.135,-0.187 0.141,-0.164C0.147,-0.141 0.156,-0.122 0.169,-0.107C0.182,-0.091 0.198,-0.079 0.219,-0.071C0.239,-0.062 0.264,-0.058 0.293,-0.058C0.316,-0.058 0.338,-0.062 0.361,-0.07C0.384,-0.078 0.401,-0.087 0.412,-0.098L0.442,-0.04ZM0.27,-0.442C0.231,-0.442 0.199,-0.432 0.176,-0.411C0.152,-0.39 0.138,-0.355 0.133,-0.305L0.381,-0.305C0.381,-0.356 0.371,-0.391 0.352,-0.412C0.333,-0.432 0.305,-0.442 0.27,-0.442Z" style="fill-rule:nonzero;"/>
                </g>
                <g transform="matrix(21.7258,0,0,21.7258,793.352,314.999)">
                    <path d="M0.069,-0.463C0.094,-0.478 0.124,-0.49 0.158,-0.497C0.191,-0.504 0.226,-0.508 0.263,-0.508C0.298,-0.508 0.326,-0.503 0.347,-0.494C0.368,-0.485 0.384,-0.472 0.395,-0.458C0.406,-0.443 0.413,-0.426 0.417,-0.408C0.42,-0.39 0.422,-0.372 0.422,-0.354C0.422,-0.314 0.421,-0.275 0.419,-0.237C0.417,-0.199 0.416,-0.163 0.416,-0.129C0.416,-0.104 0.417,-0.081 0.419,-0.059C0.421,-0.037 0.425,-0.017 0.43,0.002L0.371,0.002L0.35,-0.068L0.345,-0.068C0.339,-0.059 0.332,-0.049 0.323,-0.041C0.314,-0.032 0.303,-0.024 0.29,-0.017C0.277,-0.01 0.263,-0.004 0.246,0.001C0.229,0.006 0.21,0.008 0.189,0.008C0.168,0.008 0.148,0.005 0.13,-0.002C0.111,-0.009 0.095,-0.018 0.082,-0.031C0.069,-0.043 0.058,-0.058 0.051,-0.075C0.043,-0.092 0.039,-0.112 0.039,-0.134C0.039,-0.163 0.045,-0.188 0.057,-0.208C0.069,-0.227 0.086,-0.243 0.108,-0.255C0.129,-0.266 0.155,-0.275 0.186,-0.28C0.216,-0.285 0.249,-0.287 0.286,-0.287L0.314,-0.287C0.323,-0.287 0.332,-0.286 0.341,-0.285C0.343,-0.305 0.344,-0.323 0.344,-0.339C0.344,-0.376 0.337,-0.401 0.322,-0.416C0.307,-0.431 0.281,-0.438 0.242,-0.438C0.231,-0.438 0.219,-0.437 0.206,-0.436C0.193,-0.434 0.179,-0.432 0.166,-0.429C0.152,-0.426 0.139,-0.422 0.127,-0.418C0.114,-0.413 0.103,-0.408 0.094,-0.403L0.069,-0.463ZM0.211,-0.062C0.23,-0.062 0.246,-0.065 0.261,-0.07C0.276,-0.075 0.288,-0.081 0.299,-0.089C0.31,-0.096 0.319,-0.105 0.326,-0.114C0.333,-0.123 0.338,-0.132 0.341,-0.141L0.341,-0.224C0.332,-0.225 0.322,-0.225 0.313,-0.226C0.303,-0.226 0.293,-0.226 0.284,-0.226C0.263,-0.226 0.243,-0.225 0.224,-0.223C0.204,-0.22 0.187,-0.216 0.172,-0.21C0.157,-0.203 0.145,-0.195 0.136,-0.184C0.127,-0.173 0.122,-0.159 0.122,-0.142C0.122,-0.119 0.13,-0.099 0.147,-0.085C0.164,-0.07 0.185,-0.062 0.211,-0.062Z" style="fill-rule:nonzero;"/>
                </g>
                <g transform="matrix(21.7258,0,0,21.7258,804.128,314.999)">
                    <path d="M0.313,-0.423C0.293,-0.43 0.274,-0.433 0.256,-0.433C0.227,-0.433 0.205,-0.425 0.188,-0.41C0.171,-0.394 0.161,-0.374 0.157,-0.35L0.157,-0L0.077,-0L0.077,-0.5L0.133,-0.5L0.148,-0.439L0.152,-0.439C0.165,-0.462 0.18,-0.479 0.198,-0.492C0.215,-0.504 0.238,-0.51 0.265,-0.51C0.284,-0.51 0.306,-0.507 0.33,-0.5L0.313,-0.423Z" style="fill-rule:nonzero;"/>
                </g>
            </g>
            <g transform="matrix(1.90554,0,0,1.90554,2235.21,3035.36)">
                <g transform="matrix(21.7258,0,0,21.7258,710.773,314.999)">
                    <path d="M0.405,-0.155L0.19,-0.155L0.137,-0L0,-0L0.252,-0.705L0.353,-0.705L0.605,-0L0.461,-0L0.405,-0.155ZM0.225,-0.265L0.375,-0.265L0.323,-0.421L0.302,-0.531L0.297,-0.531L0.276,-0.42L0.225,-0.265Z" style="fill-rule:nonzero;"/>
                </g>
                <g transform="matrix(21.7258,0,0,21.7258,723.917,314.999)">
                    <path d="M0.286,0.006C0.275,0.01 0.263,0.012 0.251,0.013C0.238,0.014 0.227,0.014 0.217,0.014C0.156,0.014 0.11,-0.008 0.077,-0.051C0.044,-0.094 0.028,-0.161 0.028,-0.25C0.028,-0.335 0.046,-0.4 0.082,-0.444C0.118,-0.488 0.17,-0.51 0.238,-0.51C0.257,-0.51 0.273,-0.509 0.286,-0.506L0.286,-0.7L0.414,-0.7L0.414,-0.505C0.426,-0.507 0.437,-0.508 0.446,-0.509C0.455,-0.51 0.464,-0.51 0.473,-0.51C0.539,-0.51 0.589,-0.491 0.622,-0.452C0.655,-0.413 0.672,-0.349 0.672,-0.26C0.672,-0.218 0.668,-0.18 0.659,-0.147C0.65,-0.113 0.636,-0.084 0.619,-0.06C0.602,-0.036 0.58,-0.018 0.556,-0.005C0.531,0.008 0.502,0.014 0.469,0.014C0.463,0.014 0.454,0.014 0.443,0.013C0.431,0.012 0.421,0.01 0.414,0.007L0.414,0.2L0.286,0.2L0.286,0.006ZM0.444,-0.407C0.437,-0.407 0.432,-0.407 0.427,-0.406C0.422,-0.405 0.415,-0.403 0.408,-0.402L0.408,-0.092C0.413,-0.091 0.42,-0.09 0.427,-0.09C0.434,-0.089 0.441,-0.089 0.449,-0.089C0.481,-0.089 0.505,-0.102 0.52,-0.129C0.535,-0.155 0.542,-0.199 0.542,-0.26C0.542,-0.312 0.535,-0.349 0.52,-0.373C0.505,-0.396 0.48,-0.407 0.444,-0.407ZM0.251,-0.089C0.258,-0.089 0.265,-0.089 0.272,-0.091C0.278,-0.091 0.285,-0.093 0.292,-0.094L0.292,-0.403C0.279,-0.406 0.266,-0.407 0.253,-0.407C0.222,-0.407 0.199,-0.395 0.183,-0.372C0.166,-0.348 0.158,-0.307 0.158,-0.25C0.158,-0.198 0.166,-0.158 0.181,-0.131C0.196,-0.103 0.219,-0.089 0.251,-0.089Z" style="fill-rule:nonzero;"/>
                </g>
                <g transform="matrix(21.7258,0,0,21.7258,739.125,314.999)">
                    <path d="M0.286,0.006C0.275,0.01 0.263,0.012 0.251,0.013C0.238,0.014 0.227,0.014 0.217,0.014C0.156,0.014 0.11,-0.008 0.077,-0.051C0.044,-0.094 0.028,-0.161 0.028,-0.25C0.028,-0.335 0.046,-0.4 0.082,-0.444C0.118,-0.488 0.17,-0.51 0.238,-0.51C0.257,-0.51 0.273,-0.509 0.286,-0.506L0.286,-0.7L0.414,-0.7L0.414,-0.505C0.426,-0.507 0.437,-0.508 0.446,-0.509C0.455,-0.51 0.464,-0.51 0.473,-0.51C0.539,-0.51 0.589,-0.491 0.622,-0.452C0.655,-0.413 0.672,-0.349 0.672,-0.26C0.672,-0.218 0.668,-0.18 0.659,-0.147C0.65,-0.113 0.636,-0.084 0.619,-0.06C0.602,-0.036 0.58,-0.018 0.556,-0.005C0.531,0.008 0.502,0.014 0.469,0.014C0.463,0.014 0.454,0.014 0.443,0.013C0.431,0.012 0.421,0.01 0.414,0.007L0.414,0.2L0.286,0.2L0.286,0.006ZM0.444,-0.407C0.437,-0.407 0.432,-0.407 0.427,-0.406C0.422,-0.405 0.415,-0.403 0.408,-0.402L0.408,-0.092C0.413,-0.091 0.42,-0.09 0.427,-0.09C0.434,-0.089 0.441,-0.089 0.449,-0.089C0.481,-0.089 0.505,-0.102 0.52,-0.129C0.535,-0.155 0.542,-0.199 0.542,-0.26C0.542,-0.312 0.535,-0.349 0.52,-0.373C0.505,-0.396 0.48,-0.407 0.444,-0.407ZM0.251,-0.089C0.258,-0.089 0.265,-0.089 0.272,-0.091C0.278,-0.091 0.285,-0.093 0.292,-0.094L0.292,-0.403C0.279,-0.406 0.266,-0.407 0.253,-0.407C0.222,-0.407 0.199,-0.395 0.183,-0.372C0.166,-0.348 0.158,-0.307 0.158,-0.25C0.158,-0.198 0.166,-0.158 0.181,-0.131C0.196,-0.103 0.219,-0.089 0.251,-0.089Z" style="fill-rule:nonzero;"/>
                </g>
                <g transform="matrix(21.7258,0,0,21.7258,754.333,314.999)">
                    <path d="M0.358,-0.228L0.363,-0.299L0.36,-0.299L0.317,-0.226L0.139,-0L0.057,-0L0.057,-0.5L0.187,-0.5L0.187,-0.262L0.181,-0.194L0.185,-0.194L0.226,-0.265L0.406,-0.5L0.488,-0.5L0.488,-0L0.358,-0L0.358,-0.228Z" style="fill-rule:nonzero;"/>
                </g>
                <g transform="matrix(21.7258,0,0,21.7258,766.173,314.999)">
                    <path d="M0.35,-0.196L0.187,-0.196L0.187,-0L0.057,-0L0.057,-0.5L0.187,-0.5L0.187,-0.312L0.35,-0.312L0.35,-0.5L0.48,-0.5L0.48,-0L0.35,-0L0.35,-0.196Z" style="fill-rule:nonzero;"/>
                </g>
                <g transform="matrix(21.7258,0,0,21.7258,777.84,314.999)">
                    <path d="M0.35,-0.196L0.187,-0.196L0.187,-0L0.057,-0L0.057,-0.5L0.187,-0.5L0.187,-0.312L0.35,-0.312L0.35,-0.5L0.48,-0.5L0.48,-0L0.35,-0L0.35,-0.196Z" style="fill-rule:nonzero;"/>
                </g>
                <g transform="matrix(21.7258,0,0,21.7258,789.507,314.999)">
                    <path d="M0.054,-0.471C0.081,-0.483 0.112,-0.493 0.149,-0.5C0.186,-0.507 0.224,-0.51 0.264,-0.51C0.299,-0.51 0.328,-0.506 0.351,-0.498C0.374,-0.489 0.393,-0.477 0.407,-0.462C0.42,-0.447 0.43,-0.428 0.436,-0.407C0.441,-0.386 0.444,-0.362 0.444,-0.335C0.444,-0.306 0.443,-0.276 0.441,-0.247C0.439,-0.217 0.438,-0.188 0.438,-0.159C0.437,-0.13 0.438,-0.102 0.44,-0.076C0.442,-0.049 0.447,-0.023 0.455,0.001L0.349,0.001L0.328,-0.068L0.323,-0.068C0.31,-0.047 0.291,-0.029 0.268,-0.015C0.244,0 0.213,0.008 0.176,0.008C0.153,0.008 0.132,0.005 0.113,-0.003C0.094,-0.01 0.078,-0.02 0.065,-0.033C0.052,-0.046 0.041,-0.061 0.034,-0.079C0.027,-0.096 0.023,-0.116 0.023,-0.138C0.023,-0.169 0.03,-0.195 0.044,-0.216C0.057,-0.237 0.077,-0.254 0.103,-0.267C0.128,-0.28 0.159,-0.289 0.195,-0.294C0.23,-0.299 0.27,-0.3 0.314,-0.298C0.319,-0.335 0.316,-0.362 0.306,-0.379C0.296,-0.395 0.274,-0.403 0.239,-0.403C0.213,-0.403 0.186,-0.4 0.157,-0.395C0.128,-0.39 0.104,-0.383 0.085,-0.374L0.054,-0.471ZM0.219,-0.099C0.245,-0.099 0.266,-0.105 0.281,-0.117C0.296,-0.128 0.308,-0.141 0.315,-0.154L0.315,-0.219C0.294,-0.221 0.275,-0.221 0.256,-0.22C0.237,-0.219 0.22,-0.216 0.205,-0.211C0.19,-0.206 0.179,-0.2 0.17,-0.191C0.161,-0.182 0.157,-0.171 0.157,-0.158C0.157,-0.139 0.163,-0.125 0.174,-0.115C0.185,-0.104 0.2,-0.099 0.219,-0.099Z" style="fill-rule:nonzero;"/>
                </g>
                <g transform="matrix(21.7258,0,0,21.7258,800.283,314.999)">
                    <path d="M0.321,-0.189L0.261,-0.177L0.165,-0L0.01,-0L0.107,-0.157L0.156,-0.194C0.123,-0.199 0.096,-0.215 0.075,-0.241C0.054,-0.266 0.043,-0.298 0.043,-0.337C0.043,-0.398 0.063,-0.442 0.104,-0.471C0.144,-0.5 0.206,-0.514 0.289,-0.514C0.321,-0.514 0.351,-0.512 0.379,-0.509C0.406,-0.506 0.43,-0.502 0.451,-0.498L0.451,-0L0.321,-0L0.321,-0.189ZM0.321,-0.257L0.321,-0.395C0.314,-0.398 0.306,-0.401 0.297,-0.402C0.288,-0.403 0.28,-0.404 0.272,-0.404C0.242,-0.404 0.219,-0.398 0.202,-0.385C0.185,-0.372 0.177,-0.353 0.177,-0.328C0.177,-0.303 0.186,-0.284 0.205,-0.272C0.223,-0.26 0.25,-0.254 0.285,-0.255L0.321,-0.257Z" style="fill-rule:nonzero;"/>
                </g>
            </g>
            <g transform="matrix(1.90554,0,0,1.90554,2583.94,3035.41)">
                <g transform="matrix(21.7258,0,0,21.7258,699.298,314.999)">
                    <path d="M0.06,-0.693C0.088,-0.698 0.119,-0.703 0.153,-0.706C0.186,-0.708 0.22,-0.71 0.253,-0.71C0.288,-0.71 0.323,-0.707 0.358,-0.702C0.393,-0.696 0.424,-0.685 0.452,-0.668C0.48,-0.651 0.503,-0.627 0.521,-0.597C0.538,-0.566 0.547,-0.527 0.547,-0.478C0.547,-0.434 0.539,-0.397 0.524,-0.367C0.509,-0.336 0.488,-0.311 0.463,-0.292C0.438,-0.273 0.409,-0.259 0.377,-0.25C0.344,-0.241 0.311,-0.237 0.276,-0.237L0.26,-0.237C0.253,-0.237 0.245,-0.237 0.237,-0.238C0.229,-0.238 0.221,-0.238 0.214,-0.239C0.206,-0.24 0.2,-0.24 0.197,-0.241L0.197,-0L0.06,-0L0.06,-0.693ZM0.264,-0.592C0.251,-0.592 0.238,-0.592 0.226,-0.591C0.214,-0.59 0.204,-0.588 0.197,-0.587L0.197,-0.36C0.2,-0.359 0.204,-0.359 0.209,-0.358C0.214,-0.357 0.22,-0.357 0.226,-0.357C0.232,-0.356 0.238,-0.356 0.244,-0.356L0.256,-0.356C0.274,-0.356 0.292,-0.358 0.31,-0.361C0.327,-0.364 0.343,-0.371 0.357,-0.38C0.371,-0.389 0.382,-0.401 0.391,-0.417C0.399,-0.433 0.403,-0.454 0.403,-0.48C0.403,-0.502 0.399,-0.52 0.391,-0.535C0.383,-0.549 0.373,-0.56 0.36,-0.569C0.347,-0.578 0.332,-0.584 0.315,-0.587C0.298,-0.59 0.281,-0.592 0.264,-0.592Z" style="fill-rule:nonzero;"/>
                </g>
                <g transform="matrix(21.7258,0,0,21.7258,711.725,314.999)">
                    <path d="M0.457,-0.043C0.437,-0.027 0.41,-0.014 0.376,-0.003C0.341,0.009 0.305,0.014 0.266,0.014C0.185,0.014 0.126,-0.01 0.089,-0.057C0.052,-0.103 0.033,-0.168 0.033,-0.25C0.033,-0.338 0.054,-0.404 0.096,-0.448C0.138,-0.492 0.197,-0.514 0.273,-0.514C0.298,-0.514 0.323,-0.511 0.347,-0.504C0.371,-0.497 0.392,-0.486 0.411,-0.471C0.43,-0.456 0.445,-0.435 0.456,-0.409C0.467,-0.383 0.473,-0.351 0.473,-0.312C0.473,-0.298 0.472,-0.283 0.471,-0.267C0.469,-0.251 0.466,-0.234 0.463,-0.217L0.163,-0.217C0.165,-0.175 0.176,-0.143 0.196,-0.122C0.215,-0.101 0.247,-0.09 0.291,-0.09C0.318,-0.09 0.343,-0.094 0.365,-0.103C0.386,-0.111 0.403,-0.119 0.414,-0.128L0.457,-0.043ZM0.271,-0.41C0.237,-0.41 0.212,-0.4 0.196,-0.38C0.179,-0.359 0.169,-0.332 0.166,-0.298L0.352,-0.298C0.355,-0.334 0.349,-0.362 0.336,-0.381C0.322,-0.4 0.3,-0.41 0.271,-0.41Z" style="fill-rule:nonzero;"/>
                </g>
                <g transform="matrix(21.7258,0,0,21.7258,722.761,314.999)">
                    <path d="M0.222,-0.207L0.187,-0.207L0.187,-0L0.057,-0L0.057,-0.5L0.187,-0.5L0.187,-0.287L0.218,-0.301L0.335,-0.5L0.474,-0.5L0.353,-0.31L0.302,-0.272L0.358,-0.233L0.493,-0L0.344,-0L0.222,-0.207Z" style="fill-rule:nonzero;"/>
                </g>
                <g transform="matrix(21.7258,0,0,21.7258,733.385,314.999)">
                    <path d="M0.417,-0.385L0.278,-0.385L0.278,-0L0.144,-0L0.144,-0.385L0.001,-0.385L0.001,-0.5L0.417,-0.5L0.417,-0.385Z" style="fill-rule:nonzero;"/>
                </g>
                <g transform="matrix(21.7258,0,0,21.7258,742.467,314.999)">
                    <path d="M0.358,-0.228L0.363,-0.299L0.36,-0.299L0.317,-0.226L0.139,-0L0.057,-0L0.057,-0.5L0.187,-0.5L0.187,-0.262L0.181,-0.194L0.185,-0.194L0.226,-0.265L0.406,-0.5L0.488,-0.5L0.488,-0L0.358,-0L0.358,-0.228Z" style="fill-rule:nonzero;"/>
                </g>
                <g transform="matrix(21.7258,0,0,21.7258,754.307,314.999)">
                    <path d="M0.329,-0.385L0.23,-0.385C0.226,-0.338 0.221,-0.291 0.216,-0.244C0.211,-0.197 0.202,-0.156 0.191,-0.119C0.179,-0.082 0.163,-0.051 0.143,-0.029C0.123,-0.006 0.097,0.006 0.065,0.006C0.026,0.006 -0.001,0.001 -0.017,-0.009L-0.001,-0.117C0.01,-0.113 0.02,-0.111 0.029,-0.111C0.042,-0.111 0.054,-0.117 0.064,-0.128C0.074,-0.139 0.083,-0.16 0.09,-0.189C0.096,-0.218 0.102,-0.258 0.107,-0.309C0.111,-0.359 0.114,-0.423 0.116,-0.5L0.459,-0.5L0.459,-0L0.329,-0L0.329,-0.385Z" style="fill-rule:nonzero;"/>
                </g>
                <g transform="matrix(21.7258,0,0,21.7258,765.496,314.999)">
                    <path d="M0.358,-0.228L0.363,-0.299L0.36,-0.299L0.317,-0.226L0.139,-0L0.057,-0L0.057,-0.5L0.187,-0.5L0.187,-0.262L0.181,-0.194L0.185,-0.194L0.226,-0.265L0.406,-0.5L0.488,-0.5L0.488,-0L0.358,-0L0.358,-0.228Z" style="fill-rule:nonzero;"/>
                </g>
                <g transform="matrix(21.7258,0,0,21.7258,777.337,314.999)">
                    <path d="M0.35,-0.196L0.187,-0.196L0.187,-0L0.057,-0L0.057,-0.5L0.187,-0.5L0.187,-0.312L0.35,-0.312L0.35,-0.5L0.48,-0.5L0.48,-0L0.35,-0L0.35,-0.196Z" style="fill-rule:nonzero;"/>
                </g>
                <g transform="matrix(21.7258,0,0,21.7258,789.004,314.999)">
                    <path d="M0.457,-0.043C0.437,-0.027 0.41,-0.014 0.376,-0.003C0.341,0.009 0.305,0.014 0.266,0.014C0.185,0.014 0.126,-0.01 0.089,-0.057C0.052,-0.103 0.033,-0.168 0.033,-0.25C0.033,-0.338 0.054,-0.404 0.096,-0.448C0.138,-0.492 0.197,-0.514 0.273,-0.514C0.298,-0.514 0.323,-0.511 0.347,-0.504C0.371,-0.497 0.392,-0.486 0.411,-0.471C0.43,-0.456 0.445,-0.435 0.456,-0.409C0.467,-0.383 0.473,-0.351 0.473,-0.312C0.473,-0.298 0.472,-0.283 0.471,-0.267C0.469,-0.251 0.466,-0.234 0.463,-0.217L0.163,-0.217C0.165,-0.175 0.176,-0.143 0.196,-0.122C0.215,-0.101 0.247,-0.09 0.291,-0.09C0.318,-0.09 0.343,-0.094 0.365,-0.103C0.386,-0.111 0.403,-0.119 0.414,-0.128L0.457,-0.043ZM0.271,-0.41C0.237,-0.41 0.212,-0.4 0.196,-0.38C0.179,-0.359 0.169,-0.332 0.166,-0.298L0.352,-0.298C0.355,-0.334 0.349,-0.362 0.336,-0.381C0.322,-0.4 0.3,-0.41 0.271,-0.41Z" style="fill-rule:nonzero;"/>
                </g>
                <g transform="matrix(21.7258,0,0,21.7258,800.04,314.999)">
                    <path d="M0.358,-0.228L0.363,-0.299L0.36,-0.299L0.317,-0.226L0.139,-0L0.057,-0L0.057,-0.5L0.187,-0.5L0.187,-0.262L0.181,-0.194L0.185,-0.194L0.226,-0.265L0.406,-0.5L0.488,-0.5L0.488,-0L0.358,-0L0.358,-0.228ZM0.219,-0.704C0.224,-0.678 0.232,-0.66 0.243,-0.649C0.254,-0.638 0.268,-0.633 0.285,-0.633C0.304,-0.633 0.319,-0.638 0.33,-0.649C0.341,-0.66 0.348,-0.678 0.352,-0.703L0.451,-0.678C0.443,-0.635 0.423,-0.603 0.392,-0.582C0.361,-0.561 0.324,-0.55 0.282,-0.55C0.261,-0.55 0.241,-0.552 0.222,-0.557C0.203,-0.562 0.185,-0.569 0.17,-0.58C0.155,-0.59 0.142,-0.603 0.131,-0.619C0.12,-0.635 0.113,-0.655 0.109,-0.678L0.219,-0.704Z" style="fill-rule:nonzero;"/>
                </g>
                <g transform="matrix(21.7258,0,0,21.7258,811.881,314.999)">
                    <path d="M0.35,-0.196L0.187,-0.196L0.187,-0L0.057,-0L0.057,-0.5L0.187,-0.5L0.187,-0.312L0.35,-0.312L0.35,-0.5L0.48,-0.5L0.48,-0L0.35,-0L0.35,-0.196Z" style="fill-rule:nonzero;"/>
                </g>
                <g transform="matrix(21.7258,0,0,21.7258,823.548,314.999)">
                    <path d="M0.054,-0.471C0.081,-0.483 0.112,-0.493 0.149,-0.5C0.186,-0.507 0.224,-0.51 0.264,-0.51C0.299,-0.51 0.328,-0.506 0.351,-0.498C0.374,-0.489 0.393,-0.477 0.407,-0.462C0.42,-0.447 0.43,-0.428 0.436,-0.407C0.441,-0.386 0.444,-0.362 0.444,-0.335C0.444,-0.306 0.443,-0.276 0.441,-0.247C0.439,-0.217 0.438,-0.188 0.438,-0.159C0.437,-0.13 0.438,-0.102 0.44,-0.076C0.442,-0.049 0.447,-0.023 0.455,0.001L0.349,0.001L0.328,-0.068L0.323,-0.068C0.31,-0.047 0.291,-0.029 0.268,-0.015C0.244,0 0.213,0.008 0.176,0.008C0.153,0.008 0.132,0.005 0.113,-0.003C0.094,-0.01 0.078,-0.02 0.065,-0.033C0.052,-0.046 0.041,-0.061 0.034,-0.079C0.027,-0.096 0.023,-0.116 0.023,-0.138C0.023,-0.169 0.03,-0.195 0.044,-0.216C0.057,-0.237 0.077,-0.254 0.103,-0.267C0.128,-0.28 0.159,-0.289 0.195,-0.294C0.23,-0.299 0.27,-0.3 0.314,-0.298C0.319,-0.335 0.316,-0.362 0.306,-0.379C0.296,-0.395 0.274,-0.403 0.239,-0.403C0.213,-0.403 0.186,-0.4 0.157,-0.395C0.128,-0.39 0.104,-0.383 0.085,-0.374L0.054,-0.471ZM0.219,-0.099C0.245,-0.099 0.266,-0.105 0.281,-0.117C0.296,-0.128 0.308,-0.141 0.315,-0.154L0.315,-0.219C0.294,-0.221 0.275,-0.221 0.256,-0.22C0.237,-0.219 0.22,-0.216 0.205,-0.211C0.19,-0.206 0.179,-0.2 0.17,-0.191C0.161,-0.182 0.157,-0.171 0.157,-0.158C0.157,-0.139 0.163,-0.125 0.174,-0.115C0.185,-0.104 0.2,-0.099 0.219,-0.099Z" style="fill-rule:nonzero;"/>
                </g>
                <g transform="matrix(21.7258,0,0,21.7258,834.324,314.999)">
                    <path d="M0.321,-0.189L0.261,-0.177L0.165,-0L0.01,-0L0.107,-0.157L0.156,-0.194C0.123,-0.199 0.096,-0.215 0.075,-0.241C0.054,-0.266 0.043,-0.298 0.043,-0.337C0.043,-0.398 0.063,-0.442 0.104,-0.471C0.144,-0.5 0.206,-0.514 0.289,-0.514C0.321,-0.514 0.351,-0.512 0.379,-0.509C0.406,-0.506 0.43,-0.502 0.451,-0.498L0.451,-0L0.321,-0L0.321,-0.189ZM0.321,-0.257L0.321,-0.395C0.314,-0.398 0.306,-0.401 0.297,-0.402C0.288,-0.403 0.28,-0.404 0.272,-0.404C0.242,-0.404 0.219,-0.398 0.202,-0.385C0.185,-0.372 0.177,-0.353 0.177,-0.328C0.177,-0.303 0.186,-0.284 0.205,-0.272C0.223,-0.26 0.25,-0.254 0.285,-0.255L0.321,-0.257Z" style="fill-rule:nonzero;"/>
                </g>
            </g>
            <g transform="matrix(1.90554,0,0,1.90554,3006.51,3035.41)">
                <g transform="matrix(21.7258,0,0,21.7258,696.962,314.999)">
                    <path d="M0.233,-0.299L0.197,-0.299L0.197,-0L0.06,-0L0.06,-0.7L0.197,-0.7L0.197,-0.39L0.229,-0.404L0.422,-0.7L0.578,-0.7L0.374,-0.406L0.32,-0.368L0.376,-0.329L0.609,-0L0.44,-0L0.233,-0.299Z" style="fill-rule:nonzero;"/>
                </g>
                <g transform="matrix(21.7258,0,0,21.7258,710.432,314.999)">
                    <path d="M0.057,-0.5L0.152,-0.5L0.167,-0.44L0.171,-0.44C0.188,-0.465 0.209,-0.484 0.233,-0.496C0.256,-0.508 0.285,-0.514 0.319,-0.514C0.382,-0.514 0.429,-0.494 0.46,-0.455C0.491,-0.415 0.507,-0.351 0.507,-0.263C0.507,-0.22 0.502,-0.182 0.492,-0.148C0.482,-0.113 0.467,-0.084 0.448,-0.06C0.428,-0.036 0.404,-0.018 0.376,-0.005C0.347,0.008 0.315,0.014 0.278,0.014C0.257,0.014 0.24,0.012 0.227,0.01C0.214,0.007 0.2,0.002 0.187,-0.005L0.187,0.2L0.057,0.2L0.057,-0.5ZM0.28,-0.404C0.255,-0.404 0.235,-0.398 0.221,-0.385C0.206,-0.372 0.195,-0.353 0.187,-0.328L0.187,-0.12C0.196,-0.113 0.207,-0.107 0.218,-0.103C0.229,-0.098 0.243,-0.096 0.261,-0.096C0.298,-0.096 0.326,-0.109 0.345,-0.136C0.364,-0.162 0.373,-0.205 0.373,-0.266C0.373,-0.31 0.366,-0.344 0.351,-0.368C0.336,-0.392 0.313,-0.404 0.28,-0.404Z" style="fill-rule:nonzero;"/>
                </g>
                <g transform="matrix(21.7258,0,0,21.7258,722.164,314.999)">
                    <path d="M0.358,-0.228L0.363,-0.299L0.36,-0.299L0.317,-0.226L0.139,-0L0.057,-0L0.057,-0.5L0.187,-0.5L0.187,-0.262L0.181,-0.194L0.185,-0.194L0.226,-0.265L0.406,-0.5L0.488,-0.5L0.488,-0L0.358,-0L0.358,-0.228Z" style="fill-rule:nonzero;"/>
                </g>
                <g transform="matrix(21.7258,0,0,21.7258,734.005,314.999)">
                    <path d="M0.057,-0.499C0.08,-0.501 0.109,-0.503 0.142,-0.505C0.175,-0.507 0.21,-0.508 0.248,-0.508C0.321,-0.508 0.374,-0.498 0.405,-0.477C0.436,-0.456 0.451,-0.424 0.451,-0.382C0.451,-0.359 0.444,-0.336 0.431,-0.314C0.418,-0.292 0.397,-0.276 0.368,-0.266L0.368,-0.262C0.404,-0.254 0.43,-0.24 0.446,-0.22C0.462,-0.199 0.47,-0.173 0.47,-0.141C0.47,-0.091 0.451,-0.054 0.413,-0.029C0.374,-0.004 0.313,0.008 0.228,0.008C0.2,0.008 0.17,0.007 0.139,0.006C0.108,0.004 0.08,0.002 0.057,-0.001L0.057,-0.499ZM0.184,-0.1C0.193,-0.099 0.202,-0.098 0.21,-0.097C0.218,-0.096 0.228,-0.096 0.24,-0.096C0.276,-0.096 0.302,-0.101 0.317,-0.111C0.332,-0.121 0.34,-0.136 0.34,-0.157C0.34,-0.174 0.334,-0.189 0.321,-0.2C0.308,-0.211 0.284,-0.216 0.251,-0.216L0.184,-0.216L0.184,-0.1ZM0.253,-0.296C0.274,-0.296 0.292,-0.301 0.306,-0.312C0.319,-0.322 0.326,-0.335 0.326,-0.351C0.326,-0.368 0.32,-0.382 0.309,-0.391C0.297,-0.4 0.276,-0.404 0.245,-0.404C0.23,-0.404 0.218,-0.404 0.209,-0.403C0.2,-0.402 0.191,-0.402 0.184,-0.401L0.184,-0.296L0.253,-0.296Z" style="fill-rule:nonzero;"/>
                </g>
                <g transform="matrix(21.7258,0,0,21.7258,744.976,314.999)">
                    <path d="M0.033,-0.25C0.033,-0.335 0.054,-0.4 0.095,-0.446C0.136,-0.491 0.194,-0.514 0.269,-0.514C0.309,-0.514 0.344,-0.508 0.373,-0.495C0.402,-0.482 0.427,-0.464 0.446,-0.442C0.465,-0.419 0.48,-0.391 0.49,-0.358C0.499,-0.325 0.504,-0.289 0.504,-0.25C0.504,-0.165 0.484,-0.1 0.443,-0.055C0.401,-0.009 0.344,0.014 0.269,0.014C0.229,0.014 0.194,0.008 0.165,-0.005C0.136,-0.018 0.111,-0.036 0.092,-0.059C0.072,-0.082 0.057,-0.109 0.048,-0.142C0.038,-0.175 0.033,-0.211 0.033,-0.25ZM0.167,-0.25C0.167,-0.228 0.169,-0.208 0.173,-0.189C0.177,-0.17 0.183,-0.154 0.191,-0.14C0.199,-0.126 0.21,-0.115 0.223,-0.108C0.236,-0.1 0.251,-0.096 0.269,-0.096C0.303,-0.096 0.328,-0.108 0.345,-0.133C0.362,-0.158 0.37,-0.197 0.37,-0.25C0.37,-0.296 0.362,-0.333 0.347,-0.362C0.332,-0.39 0.306,-0.404 0.269,-0.404C0.237,-0.404 0.212,-0.392 0.194,-0.368C0.176,-0.344 0.167,-0.305 0.167,-0.25Z" style="fill-rule:nonzero;"/>
                </g>
                <g transform="matrix(21.7258,0,0,21.7258,756.643,314.999)">
                    <path d="M0.329,-0.385L0.23,-0.385C0.226,-0.338 0.221,-0.291 0.216,-0.244C0.211,-0.197 0.202,-0.156 0.191,-0.119C0.179,-0.082 0.163,-0.051 0.143,-0.029C0.123,-0.006 0.097,0.006 0.065,0.006C0.026,0.006 -0.001,0.001 -0.017,-0.009L-0.001,-0.117C0.01,-0.113 0.02,-0.111 0.029,-0.111C0.042,-0.111 0.054,-0.117 0.064,-0.128C0.074,-0.139 0.083,-0.16 0.09,-0.189C0.096,-0.218 0.102,-0.258 0.107,-0.309C0.111,-0.359 0.114,-0.423 0.116,-0.5L0.459,-0.5L0.459,-0L0.329,-0L0.329,-0.385Z" style="fill-rule:nonzero;"/>
                </g>
                <g transform="matrix(21.7258,0,0,21.7258,767.832,314.999)">
                    <path d="M0.358,-0.228L0.363,-0.299L0.36,-0.299L0.317,-0.226L0.139,-0L0.057,-0L0.057,-0.5L0.187,-0.5L0.187,-0.262L0.181,-0.194L0.185,-0.194L0.226,-0.265L0.406,-0.5L0.488,-0.5L0.488,-0L0.358,-0L0.358,-0.228Z" style="fill-rule:nonzero;"/>
                </g>
                <g transform="matrix(21.7258,0,0,21.7258,779.672,314.999)">
                    <path d="M0.35,-0.196L0.187,-0.196L0.187,-0L0.057,-0L0.057,-0.5L0.187,-0.5L0.187,-0.312L0.35,-0.312L0.35,-0.5L0.48,-0.5L0.48,-0L0.35,-0L0.35,-0.196Z" style="fill-rule:nonzero;"/>
                </g>
                <g transform="matrix(21.7258,0,0,21.7258,791.339,314.999)">
                    <path d="M0.457,-0.043C0.437,-0.027 0.41,-0.014 0.376,-0.003C0.341,0.009 0.305,0.014 0.266,0.014C0.185,0.014 0.126,-0.01 0.089,-0.057C0.052,-0.103 0.033,-0.168 0.033,-0.25C0.033,-0.338 0.054,-0.404 0.096,-0.448C0.138,-0.492 0.197,-0.514 0.273,-0.514C0.298,-0.514 0.323,-0.511 0.347,-0.504C0.371,-0.497 0.392,-0.486 0.411,-0.471C0.43,-0.456 0.445,-0.435 0.456,-0.409C0.467,-0.383 0.473,-0.351 0.473,-0.312C0.473,-0.298 0.472,-0.283 0.471,-0.267C0.469,-0.251 0.466,-0.234 0.463,-0.217L0.163,-0.217C0.165,-0.175 0.176,-0.143 0.196,-0.122C0.215,-0.101 0.247,-0.09 0.291,-0.09C0.318,-0.09 0.343,-0.094 0.365,-0.103C0.386,-0.111 0.403,-0.119 0.414,-0.128L0.457,-0.043ZM0.271,-0.41C0.237,-0.41 0.212,-0.4 0.196,-0.38C0.179,-0.359 0.169,-0.332 0.166,-0.298L0.352,-0.298C0.355,-0.334 0.349,-0.362 0.336,-0.381C0.322,-0.4 0.3,-0.41 0.271,-0.41Z" style="fill-rule:nonzero;"/>
                </g>
                <g transform="matrix(21.7258,0,0,21.7258,802.376,314.999)">
                    <path d="M0.358,-0.228L0.363,-0.299L0.36,-0.299L0.317,-0.226L0.139,-0L0.057,-0L0.057,-0.5L0.187,-0.5L0.187,-0.262L0.181,-0.194L0.185,-0.194L0.226,-0.265L0.406,-0.5L0.488,-0.5L0.488,-0L0.358,-0L0.358,-0.228ZM0.219,-0.704C0.224,-0.678 0.232,-0.66 0.243,-0.649C0.254,-0.638 0.268,-0.633 0.285,-0.633C0.304,-0.633 0.319,-0.638 0.33,-0.649C0.341,-0.66 0.348,-0.678 0.352,-0.703L0.451,-0.678C0.443,-0.635 0.423,-0.603 0.392,-0.582C0.361,-0.561 0.324,-0.55 0.282,-0.55C0.261,-0.55 0.241,-0.552 0.222,-0.557C0.203,-0.562 0.185,-0.569 0.17,-0.58C0.155,-0.59 0.142,-0.603 0.131,-0.619C0.12,-0.635 0.113,-0.655 0.109,-0.678L0.219,-0.704Z" style="fill-rule:nonzero;"/>
                </g>
                <g transform="matrix(21.7258,0,0,21.7258,814.216,314.999)">
                    <path d="M0.35,-0.196L0.187,-0.196L0.187,-0L0.057,-0L0.057,-0.5L0.187,-0.5L0.187,-0.312L0.35,-0.312L0.35,-0.5L0.48,-0.5L0.48,-0L0.35,-0L0.35,-0.196Z" style="fill-rule:nonzero;"/>
                </g>
                <g transform="matrix(21.7258,0,0,21.7258,825.883,314.999)">
                    <path d="M0.054,-0.471C0.081,-0.483 0.112,-0.493 0.149,-0.5C0.186,-0.507 0.224,-0.51 0.264,-0.51C0.299,-0.51 0.328,-0.506 0.351,-0.498C0.374,-0.489 0.393,-0.477 0.407,-0.462C0.42,-0.447 0.43,-0.428 0.436,-0.407C0.441,-0.386 0.444,-0.362 0.444,-0.335C0.444,-0.306 0.443,-0.276 0.441,-0.247C0.439,-0.217 0.438,-0.188 0.438,-0.159C0.437,-0.13 0.438,-0.102 0.44,-0.076C0.442,-0.049 0.447,-0.023 0.455,0.001L0.349,0.001L0.328,-0.068L0.323,-0.068C0.31,-0.047 0.291,-0.029 0.268,-0.015C0.244,0 0.213,0.008 0.176,0.008C0.153,0.008 0.132,0.005 0.113,-0.003C0.094,-0.01 0.078,-0.02 0.065,-0.033C0.052,-0.046 0.041,-0.061 0.034,-0.079C0.027,-0.096 0.023,-0.116 0.023,-0.138C0.023,-0.169 0.03,-0.195 0.044,-0.216C0.057,-0.237 0.077,-0.254 0.103,-0.267C0.128,-0.28 0.159,-0.289 0.195,-0.294C0.23,-0.299 0.27,-0.3 0.314,-0.298C0.319,-0.335 0.316,-0.362 0.306,-0.379C0.296,-0.395 0.274,-0.403 0.239,-0.403C0.213,-0.403 0.186,-0.4 0.157,-0.395C0.128,-0.39 0.104,-0.383 0.085,-0.374L0.054,-0.471ZM0.219,-0.099C0.245,-0.099 0.266,-0.105 0.281,-0.117C0.296,-0.128 0.308,-0.141 0.315,-0.154L0.315,-0.219C0.294,-0.221 0.275,-0.221 0.256,-0.22C0.237,-0.219 0.22,-0.216 0.205,-0.211C0.19,-0.206 0.179,-0.2 0.17,-0.191C0.161,-0.182 0.157,-0.171 0.157,-0.158C0.157,-0.139 0.163,-0.125 0.174,-0.115C0.185,-0.104 0.2,-0.099 0.219,-0.099Z" style="fill-rule:nonzero;"/>
                </g>
                <g transform="matrix(21.7258,0,0,21.7258,836.659,314.999)">
                    <path d="M0.321,-0.189L0.261,-0.177L0.165,-0L0.01,-0L0.107,-0.157L0.156,-0.194C0.123,-0.199 0.096,-0.215 0.075,-0.241C0.054,-0.266 0.043,-0.298 0.043,-0.337C0.043,-0.398 0.063,-0.442 0.104,-0.471C0.144,-0.5 0.206,-0.514 0.289,-0.514C0.321,-0.514 0.351,-0.512 0.379,-0.509C0.406,-0.506 0.43,-0.502 0.451,-0.498L0.451,-0L0.321,-0L0.321,-0.189ZM0.321,-0.257L0.321,-0.395C0.314,-0.398 0.306,-0.401 0.297,-0.402C0.288,-0.403 0.28,-0.404 0.272,-0.404C0.242,-0.404 0.219,-0.398 0.202,-0.385C0.185,-0.372 0.177,-0.353 0.177,-0.328C0.177,-0.303 0.186,-0.284 0.205,-0.272C0.223,-0.26 0.25,-0.254 0.285,-0.255L0.321,-0.257Z" style="fill-rule:nonzero;"/>
                </g>
            </g>
        </g>
    </g>
</svg>
