<?xml version="1.0" encoding="UTF-8" standalone="no"?>
<!DOCTYPE svg PUBLIC "-//W3C//DTD SVG 1.1//EN" "http://www.w3.org/Graphics/SVG/1.1/DTD/svg11.dtd">
<svg width="100%" height="100%" viewBox="0 0 617 465" version="1.1" xmlns="http://www.w3.org/2000/svg" xmlns:xlink="http://www.w3.org/1999/xlink" xml:space="preserve" xmlns:serif="http://www.serif.com/" style="fill-rule:evenodd;clip-rule:evenodd;stroke-linecap:round;stroke-linejoin:round;stroke-miterlimit:1.5;">
    <rect id="Raster-details" serif:id="Raster details" x="-144" y="-22.96" width="927" height="553.306" style="fill:none;"/>
    <rect x="229.802" y="309.306" width="76.373" height="76.373" style="fill:rgb(252,206,254);stroke:rgb(243,5,255);stroke-width:6px;"/>
    <rect x="267.802" y="194.007" width="76.373" height="76.373" style="fill:rgb(205,255,254);stroke:rgb(0,235,231);stroke-width:10px;"/>
    <g id="Pixels">
        <rect x="229.802" y="309.306" width="76.373" height="76.373" style="fill:none;stroke:black;stroke-width:2px;"/>
        <rect x="229.802" y="80.188" width="76.373" height="76.373" style="fill:none;stroke:black;stroke-width:1.5px;"/>
        <rect x="229.802" y="156.561" width="76.373" height="76.373" style="fill:none;stroke:black;stroke-width:1.5px;"/>
        <rect x="229.802" y="232.934" width="76.373" height="76.373" style="fill:none;stroke:black;stroke-width:1.5px;"/>
        <rect x="229.802" y="385.851" width="76.373" height="76.373" style="fill:none;stroke:black;stroke-width:1.5px;"/>
        <rect x="382.547" y="80.188" width="76.373" height="76.373" style="fill:none;stroke:black;stroke-width:1.5px;"/>
        <rect x="382.547" y="156.561" width="76.373" height="76.373" style="fill:none;stroke:black;stroke-width:1.5px;"/>
        <rect x="382.547" y="232.934" width="76.373" height="76.373" style="fill:none;stroke:black;stroke-width:1.5px;"/>
        <rect x="382.547" y="309.306" width="76.373" height="76.373" style="fill:none;stroke:black;stroke-width:1.5px;"/>
        <rect x="382.547" y="385.851" width="76.373" height="76.373" style="fill:none;stroke:black;stroke-width:1.5px;"/>
        <rect x="306.174" y="80.188" width="76.373" height="76.373" style="fill:none;stroke:black;stroke-width:1.5px;"/>
        <rect x="306.174" y="156.561" width="76.373" height="76.373" style="fill:none;stroke:black;stroke-width:1.5px;"/>
        <rect x="306.174" y="232.934" width="76.373" height="76.373" style="fill:none;stroke:black;stroke-width:1.5px;"/>
        <rect x="306.174" y="309.306" width="76.373" height="76.373" style="fill:none;stroke:black;stroke-width:1.5px;"/>
        <rect x="306.174" y="385.851" width="76.373" height="76.373" style="fill:none;stroke:black;stroke-width:1.5px;"/>
        <rect x="458.92" y="80.188" width="76.373" height="76.373" style="fill:none;stroke:black;stroke-width:1.5px;"/>
        <rect x="535.208" y="80.188" width="76.373" height="76.373" style="fill:none;stroke:black;stroke-width:1.5px;"/>
        <rect x="458.92" y="156.561" width="76.373" height="76.373" style="fill:none;stroke:black;stroke-width:1.5px;"/>
        <rect x="535.208" y="156.561" width="76.373" height="76.373" style="fill:none;stroke:black;stroke-width:1.5px;"/>
        <rect x="458.92" y="232.934" width="76.373" height="76.373" style="fill:none;stroke:black;stroke-width:1.5px;"/>
        <rect x="535.208" y="232.934" width="76.373" height="76.373" style="fill:none;stroke:black;stroke-width:1.5px;"/>
        <rect x="458.92" y="309.306" width="76.373" height="76.373" style="fill:none;stroke:black;stroke-width:1.5px;"/>
        <rect x="458.92" y="385.851" width="76.373" height="76.373" style="fill:none;stroke:black;stroke-width:1.5px;"/>
        <rect x="535.208" y="309.306" width="76.373" height="76.373" style="fill:none;stroke:black;stroke-width:1.5px;"/>
        <rect x="535.208" y="385.851" width="76.373" height="76.373" style="fill:none;stroke:black;stroke-width:1.5px;"/>
    </g>
    <g>
        <rect x="267.802" y="117.634" width="76.373" height="76.373" style="fill:none;stroke:black;stroke-width:5px;"/>
        <rect x="267.802" y="270.379" width="76.373" height="76.373" style="fill:none;stroke:black;stroke-width:5px;"/>
        <rect x="267.802" y="346.752" width="76.373" height="76.373" style="fill:none;stroke:black;stroke-width:5px;"/>
        <rect x="420.547" y="117.634" width="76.373" height="76.373" style="fill:none;stroke:black;stroke-width:5px;"/>
        <rect x="420.547" y="194.007" width="76.373" height="76.373" style="fill:none;stroke:black;stroke-width:5px;"/>
        <rect x="420.547" y="270.379" width="76.373" height="76.373" style="fill:none;stroke:black;stroke-width:5px;"/>
        <rect x="420.547" y="346.752" width="76.373" height="76.373" style="fill:none;stroke:black;stroke-width:5px;"/>
        <rect x="344.174" y="117.634" width="76.373" height="76.373" style="fill:none;stroke:black;stroke-width:5px;"/>
        <rect x="344.174" y="194.007" width="76.373" height="76.373" style="fill:none;stroke:black;stroke-width:5px;"/>
        <rect x="344.174" y="270.379" width="76.373" height="76.373" style="fill:none;stroke:black;stroke-width:5px;"/>
        <rect x="344.174" y="346.752" width="76.373" height="76.373" style="fill:none;stroke:black;stroke-width:5px;"/>
        <rect x="496.92" y="117.634" width="76.373" height="76.373" style="fill:none;stroke:black;stroke-width:5px;"/>
        <rect x="496.92" y="194.007" width="76.373" height="76.373" style="fill:none;stroke:black;stroke-width:5px;"/>
        <rect x="496.92" y="270.379" width="76.373" height="76.373" style="fill:none;stroke:black;stroke-width:5px;"/>
        <rect x="496.92" y="346.752" width="76.373" height="76.373" style="fill:none;stroke:black;stroke-width:5px;"/>
        <rect x="267.802" y="194.007" width="76.373" height="76.373" style="fill:none;stroke:black;stroke-width:4px;"/>
    </g>
    <g>
        <circle cx="267.802" cy="117.634" r="11.72"/>
        <circle cx="267.802" cy="194.144" r="11.72"/>
        <circle cx="267.802" cy="270.425" r="11.72"/>
        <circle cx="267.802" cy="346.871" r="11.72"/>
        <circle cx="267.802" cy="423.305" r="11.72"/>
        <circle cx="343.82" cy="117.634" r="11.72"/>
        <circle cx="343.82" cy="194.144" r="11.72"/>
        <circle cx="343.82" cy="270.425" r="11.72"/>
        <circle cx="343.82" cy="346.871" r="11.72"/>
        <circle cx="343.82" cy="423.305" r="11.72"/>
        <circle cx="419.867" cy="117.634" r="11.72"/>
        <circle cx="419.867" cy="194.144" r="11.72"/>
        <circle cx="419.867" cy="270.425" r="11.72"/>
        <circle cx="419.867" cy="346.871" r="11.72"/>
        <circle cx="419.867" cy="423.305" r="11.72"/>
        <circle cx="497.042" cy="117.634" r="11.72"/>
        <circle cx="497.042" cy="194.144" r="11.72"/>
        <circle cx="497.042" cy="270.425" r="11.72"/>
        <circle cx="497.042" cy="346.871" r="11.72"/>
        <circle cx="497.042" cy="423.305" r="11.72"/>
        <circle cx="573.528" cy="117.634" r="11.72"/>
        <circle cx="573.528" cy="194.144" r="11.72"/>
        <circle cx="573.528" cy="270.425" r="11.72"/>
        <circle cx="573.528" cy="346.871" r="11.72"/>
        <circle cx="573.528" cy="423.305" r="11.72"/>
    </g>
    <g id="Labels">
        <rect x="5.353" y="334.453" width="172.738" height="107" style="fill:rgb(252,206,254);"/>
        <rect x="48.099" y="213.454" width="129.992" height="63" style="fill:rgb(205,255,254);stroke:rgb(205,255,254);stroke-width:1.2px;stroke-miterlimit:10;"/>
        <path d="M92.339,114.052L93.483,117.968L93.703,117.968L94.583,113.92L100.479,97.816L104.219,97.816L96.431,117.836C95.639,119.919 94.943,121.657 94.341,123.05C93.74,124.444 93.131,125.573 92.515,126.438C91.899,127.304 91.239,127.92 90.535,128.286C89.831,128.653 88.966,128.836 87.939,128.836C86.971,128.836 86.201,128.756 85.629,128.594C85.057,128.433 84.522,128.191 84.023,127.868L85.123,124.832C85.71,125.155 86.253,125.36 86.751,125.448C87.25,125.536 87.705,125.58 88.115,125.58C88.937,125.58 89.626,125.162 90.183,124.326C90.741,123.49 91.225,122.251 91.635,120.608L80.239,97.816L84.463,97.816L92.339,114.052Z" style="fill-rule:nonzero;"/>
        <path d="M107.475,118.804L107.475,115.944L110.555,115.944C111.083,115.944 111.604,115.856 112.117,115.68C112.631,115.504 113.093,115.262 113.503,114.954C113.914,114.646 114.244,114.28 114.493,113.854C114.743,113.429 114.867,112.982 114.867,112.512C114.867,111.368 114.471,110.562 113.679,110.092C112.887,109.623 111.699,109.388 110.115,109.388C108.971,109.388 107.923,109.564 106.969,109.916C106.016,110.268 105.275,110.606 104.747,110.928L103.735,108.2C104.615,107.702 105.649,107.262 106.837,106.88C108.025,106.499 109.441,106.308 111.083,106.308C115.953,106.308 118.387,108.112 118.387,111.72C118.387,112.747 118.057,113.752 117.397,114.734C116.737,115.717 115.791,116.414 114.559,116.824L114.559,117C116.29,117.323 117.5,117.939 118.189,118.848C118.879,119.758 119.223,120.96 119.223,122.456C119.223,123.395 119.033,124.26 118.651,125.052C118.27,125.844 117.698,126.534 116.935,127.12C116.173,127.707 115.212,128.169 114.053,128.506C112.895,128.844 111.553,129.012 110.027,129.012C108.531,129.012 107.292,128.88 106.309,128.616C105.327,128.352 104.439,128.03 103.647,127.648L104.659,124.744C105.334,125.126 106.148,125.419 107.101,125.624C108.055,125.83 109.089,125.932 110.203,125.932C111.993,125.932 113.357,125.624 114.295,125.008C115.234,124.392 115.703,123.454 115.703,122.192C115.703,121.136 115.263,120.308 114.383,119.706C113.503,119.105 112.051,118.804 110.027,118.804L107.475,118.804Z" style="fill-rule:nonzero;"/>
        <path d="M140.827,126.856C139.947,127.56 138.84,128.118 137.505,128.528C136.171,128.939 134.755,129.144 133.259,129.144C131.587,129.144 130.135,128.873 128.903,128.33C127.671,127.788 126.659,127.01 125.867,125.998C125.075,124.986 124.489,123.776 124.107,122.368C123.726,120.96 123.535,119.376 123.535,117.616C123.535,113.862 124.371,111.002 126.043,109.036C127.715,107.071 130.106,106.088 133.215,106.088C134.213,106.088 135.21,106.198 136.207,106.418C137.205,106.638 138.099,107.056 138.891,107.672C139.683,108.288 140.329,109.161 140.827,110.29C141.326,111.42 141.575,112.908 141.575,114.756C141.575,115.724 141.487,116.795 141.311,117.968L127.187,117.968C127.187,119.259 127.319,120.403 127.583,121.4C127.847,122.398 128.258,123.241 128.815,123.93C129.373,124.62 130.099,125.148 130.993,125.514C131.888,125.881 132.981,126.064 134.271,126.064C135.269,126.064 136.266,125.888 137.263,125.536C138.261,125.184 139.009,124.774 139.507,124.304L140.827,126.856ZM133.259,109.168C131.529,109.168 130.143,109.623 129.101,110.532C128.06,111.442 127.437,112.996 127.231,115.196L138.143,115.196C138.143,112.967 137.718,111.405 136.867,110.51C136.017,109.616 134.814,109.168 133.259,109.168Z" style="fill-rule:nonzero;"/>
        <path d="M158.955,109.696L152.575,109.696C152.487,110.928 152.399,112.256 152.311,113.678C152.223,115.101 152.091,116.524 151.915,117.946C151.739,119.369 151.505,120.733 151.211,122.038C150.918,123.344 150.544,124.495 150.089,125.492C149.635,126.49 149.077,127.289 148.417,127.89C147.757,128.492 146.973,128.792 146.063,128.792C145.506,128.792 145.022,128.763 144.611,128.704C144.201,128.646 143.834,128.543 143.511,128.396L144.039,125.448C144.391,125.566 144.773,125.624 145.183,125.624C145.77,125.624 146.298,125.375 146.767,124.876C147.237,124.378 147.647,123.432 147.999,122.038C148.351,120.645 148.645,118.716 148.879,116.252C149.114,113.788 149.275,110.576 149.363,106.616L162.475,106.616L162.475,128.616L158.955,128.616L158.955,109.696Z" style="fill-rule:nonzero;"/>
        <path d="M240.082,125.361L258.082,116.361L240.082,107.361L240.082,125.361Z"/>
        <path d="M243.682,116.361L192.091,116.361" style="fill:none;stroke:black;stroke-width:4px;stroke-linecap:butt;stroke-dasharray:4,4;"/>
        <path d="M541.414,98.301L550.291,116.361L559.413,98.423L541.414,98.301Z"/>
        <path d="M550.389,101.962C550.507,84.672 550.688,57.974 550.688,57.974" style="fill:none;stroke:black;stroke-width:4px;stroke-linecap:butt;stroke-dasharray:4,4;"/>
        <path d="M79.931,230.007L67.083,230.007L67.083,257.551L63.431,257.551L63.431,226.751L79.931,226.751L79.931,230.007Z" style="fill-rule:nonzero;"/>
        <path d="M77.687,235.551L80.107,235.551L80.767,238.191L80.943,238.191C81.618,237.164 82.491,236.38 83.561,235.837C84.632,235.294 85.857,235.023 87.235,235.023C90.169,235.023 92.354,235.888 93.791,237.619C95.229,239.35 95.947,242.18 95.947,246.111C95.947,247.959 95.705,249.624 95.221,251.105C94.737,252.586 94.055,253.84 93.175,254.867C92.295,255.894 91.232,256.686 89.985,257.243C88.739,257.8 87.353,258.079 85.827,258.079C84.742,258.079 83.884,258.013 83.253,257.881C82.623,257.749 81.941,257.522 81.207,257.199L81.207,266.351L77.687,266.351L77.687,235.551ZM86.575,238.103C85.079,238.103 83.899,238.492 83.033,239.269C82.168,240.046 81.559,241.227 81.207,242.811L81.207,253.723C81.735,254.134 82.337,254.449 83.011,254.669C83.686,254.889 84.581,254.999 85.695,254.999C87.719,254.999 89.325,254.244 90.513,252.733C91.701,251.222 92.295,249 92.295,246.067C92.295,244.864 92.193,243.772 91.987,242.789C91.782,241.806 91.452,240.97 90.997,240.281C90.543,239.592 89.956,239.056 89.237,238.675C88.519,238.294 87.631,238.103 86.575,238.103Z" style="fill-rule:nonzero;"/>
        <path d="M101.139,237.179C102.254,236.504 103.552,236.006 105.033,235.683C106.515,235.36 108.062,235.199 109.675,235.199C111.201,235.199 112.425,235.404 113.349,235.815C114.273,236.226 114.977,236.761 115.461,237.421C115.945,238.081 116.268,238.807 116.429,239.599C116.591,240.391 116.671,241.183 116.671,241.975C116.671,243.735 116.627,245.451 116.539,247.123C116.451,248.795 116.407,250.379 116.407,251.875C116.407,252.96 116.451,253.987 116.539,254.955C116.627,255.923 116.789,256.818 117.023,257.639L114.427,257.639L113.503,254.559L113.283,254.559C113.019,254.97 112.689,255.373 112.293,255.769C111.897,256.165 111.421,256.517 110.863,256.825C110.306,257.133 109.661,257.39 108.927,257.595C108.194,257.8 107.358,257.903 106.419,257.903C105.481,257.903 104.608,257.756 103.801,257.463C102.995,257.17 102.298,256.752 101.711,256.209C101.125,255.666 100.663,255.014 100.325,254.251C99.988,253.488 99.819,252.623 99.819,251.655C99.819,250.364 100.083,249.286 100.611,248.421C101.139,247.556 101.88,246.866 102.833,246.353C103.787,245.84 104.931,245.473 106.265,245.253C107.6,245.033 109.074,244.923 110.687,244.923L111.897,244.923C112.293,244.923 112.697,244.952 113.107,245.011C113.195,244.131 113.239,243.339 113.239,242.635C113.239,241.022 112.917,239.892 112.271,239.247C111.626,238.602 110.453,238.279 108.751,238.279C108.253,238.279 107.717,238.316 107.145,238.389C106.573,238.462 105.987,238.565 105.385,238.697C104.784,238.829 104.212,238.99 103.669,239.181C103.127,239.372 102.65,239.584 102.239,239.819L101.139,237.179ZM107.387,254.823C108.209,254.823 108.942,254.713 109.587,254.493C110.233,254.273 110.79,253.994 111.259,253.657C111.729,253.32 112.117,252.946 112.425,252.535C112.733,252.124 112.961,251.728 113.107,251.347L113.107,247.695C112.697,247.666 112.279,247.644 111.853,247.629C111.428,247.614 111.01,247.607 110.599,247.607C109.69,247.607 108.803,247.658 107.937,247.761C107.072,247.864 106.309,248.054 105.649,248.333C104.989,248.612 104.461,248.993 104.065,249.477C103.669,249.961 103.471,250.57 103.471,251.303C103.471,252.33 103.838,253.173 104.571,253.833C105.305,254.493 106.243,254.823 107.387,254.823Z" style="fill-rule:nonzero;"/>
        <path d="M136.779,247.827L126.835,247.827L126.835,257.551L123.315,257.551L123.315,235.551L126.835,235.551L126.835,244.747L136.779,244.747L136.779,235.551L140.299,235.551L140.299,257.551L136.779,257.551L136.779,247.827Z" style="fill-rule:nonzero;"/>
        <path d="M150.595,254.471C151.681,254.647 152.722,254.735 153.719,254.735C155.567,254.735 156.931,254.376 157.811,253.657C158.691,252.938 159.131,251.919 159.131,250.599C159.131,249.426 158.706,248.458 157.855,247.695C157.005,246.932 155.67,246.551 153.851,246.551C153.353,246.551 152.81,246.566 152.223,246.595C151.637,246.624 151.094,246.712 150.595,246.859L150.595,254.471ZM150.595,243.955C151.299,243.838 151.974,243.757 152.619,243.713C153.265,243.669 153.881,243.647 154.467,243.647C155.993,243.647 157.283,243.816 158.339,244.153C159.395,244.49 160.253,244.952 160.913,245.539C161.573,246.126 162.05,246.822 162.343,247.629C162.637,248.436 162.783,249.294 162.783,250.203C162.783,252.872 161.984,254.808 160.385,256.011C158.787,257.214 156.301,257.815 152.927,257.815C151.05,257.815 149.099,257.727 147.075,257.551L147.075,235.551L150.595,235.551L150.595,243.955Z" style="fill-rule:nonzero;"/>
        <g transform="matrix(1,0,0,1,-1433.29,-157.057)">
            <g transform="matrix(44,0,0,44,1456.49,537.012)">
                <path d="M0.484,-0L0.401,-0L0.401,-0.305L0.298,-0.283L0.124,-0L0.026,-0L0.182,-0.249L0.243,-0.292C0.219,-0.297 0.197,-0.306 0.177,-0.317C0.156,-0.328 0.138,-0.341 0.124,-0.359C0.109,-0.376 0.097,-0.395 0.089,-0.418C0.08,-0.441 0.076,-0.467 0.076,-0.496C0.076,-0.537 0.083,-0.571 0.097,-0.598C0.11,-0.624 0.129,-0.646 0.153,-0.663C0.176,-0.679 0.204,-0.691 0.236,-0.698C0.267,-0.705 0.301,-0.708 0.336,-0.708C0.359,-0.708 0.383,-0.707 0.409,-0.705C0.434,-0.703 0.459,-0.699 0.484,-0.693L0.484,-0ZM0.332,-0.636C0.31,-0.636 0.289,-0.634 0.269,-0.63C0.249,-0.625 0.231,-0.618 0.216,-0.607C0.2,-0.596 0.187,-0.582 0.178,-0.564C0.169,-0.546 0.164,-0.523 0.164,-0.496C0.164,-0.471 0.169,-0.449 0.178,-0.431C0.187,-0.413 0.199,-0.398 0.214,-0.387C0.229,-0.375 0.247,-0.366 0.268,-0.361C0.288,-0.356 0.31,-0.353 0.333,-0.353L0.401,-0.353L0.401,-0.63C0.392,-0.632 0.382,-0.634 0.372,-0.635C0.362,-0.636 0.349,-0.636 0.332,-0.636Z" style="fill-rule:nonzero;"/>
            </g>
            <g transform="matrix(44,0,0,44,1481.53,537.012)">
                <path d="M0.129,-0.5L0.129,-0.364C0.129,-0.346 0.13,-0.33 0.132,-0.316C0.134,-0.301 0.138,-0.289 0.144,-0.279C0.15,-0.268 0.159,-0.26 0.17,-0.255C0.181,-0.249 0.196,-0.246 0.215,-0.246C0.245,-0.246 0.27,-0.249 0.289,-0.256C0.308,-0.263 0.323,-0.27 0.333,-0.278L0.333,-0.5L0.413,-0.5L0.413,-0L0.333,-0L0.333,-0.21C0.322,-0.203 0.307,-0.196 0.286,-0.188C0.265,-0.18 0.236,-0.176 0.199,-0.176C0.174,-0.176 0.153,-0.179 0.134,-0.184C0.115,-0.189 0.1,-0.199 0.087,-0.212C0.074,-0.225 0.065,-0.243 0.059,-0.265C0.052,-0.287 0.049,-0.315 0.049,-0.348L0.049,-0.5L0.129,-0.5Z" style="fill-rule:nonzero;"/>
            </g>
            <g transform="matrix(44,0,0,44,1503.09,537.012)">
                <path d="M0.442,-0.04C0.422,-0.024 0.397,-0.011 0.367,-0.002C0.336,0.007 0.304,0.012 0.27,0.012C0.232,0.012 0.199,0.006 0.171,-0.007C0.143,-0.019 0.12,-0.037 0.102,-0.06C0.084,-0.083 0.071,-0.11 0.062,-0.142C0.053,-0.174 0.049,-0.21 0.049,-0.25C0.049,-0.335 0.068,-0.4 0.106,-0.445C0.144,-0.49 0.198,-0.512 0.269,-0.512C0.292,-0.512 0.314,-0.51 0.337,-0.505C0.36,-0.5 0.38,-0.49 0.398,-0.476C0.416,-0.462 0.431,-0.442 0.442,-0.417C0.453,-0.391 0.459,-0.357 0.459,-0.315C0.459,-0.293 0.457,-0.269 0.453,-0.242L0.132,-0.242C0.132,-0.213 0.135,-0.187 0.141,-0.164C0.147,-0.141 0.156,-0.122 0.169,-0.107C0.182,-0.091 0.198,-0.079 0.219,-0.071C0.239,-0.062 0.264,-0.058 0.293,-0.058C0.316,-0.058 0.338,-0.062 0.361,-0.07C0.384,-0.078 0.401,-0.087 0.412,-0.098L0.442,-0.04ZM0.27,-0.442C0.231,-0.442 0.199,-0.432 0.176,-0.411C0.152,-0.39 0.138,-0.355 0.133,-0.305L0.381,-0.305C0.381,-0.356 0.371,-0.391 0.352,-0.412C0.333,-0.432 0.305,-0.442 0.27,-0.442Z" style="fill-rule:nonzero;"/>
            </g>
            <g transform="matrix(44,0,0,44,1525.44,537.012)">
                <path d="M0.389,-0.296L0.392,-0.358L0.389,-0.358L0.348,-0.294L0.123,-0L0.077,-0L0.077,-0.5L0.157,-0.5L0.157,-0.195L0.154,-0.136L0.158,-0.136L0.197,-0.198L0.422,-0.5L0.469,-0.5L0.469,-0L0.389,-0L0.389,-0.296ZM0.192,-0.702C0.199,-0.671 0.21,-0.65 0.227,-0.638C0.243,-0.626 0.262,-0.62 0.283,-0.62C0.304,-0.62 0.323,-0.626 0.34,-0.639C0.357,-0.652 0.368,-0.672 0.374,-0.701L0.434,-0.682C0.428,-0.643 0.411,-0.614 0.383,-0.593C0.354,-0.572 0.32,-0.562 0.281,-0.562C0.263,-0.562 0.245,-0.564 0.228,-0.569C0.21,-0.574 0.194,-0.581 0.18,-0.59C0.166,-0.599 0.154,-0.611 0.144,-0.626C0.134,-0.641 0.127,-0.658 0.124,-0.678L0.192,-0.702Z" style="fill-rule:nonzero;"/>
            </g>
            <g transform="matrix(44,0,0,44,1549.46,537.012)">
                <path d="M0.203,-0.225L0.157,-0.225L0.157,-0L0.077,-0L0.077,-0.5L0.157,-0.5L0.157,-0.274L0.2,-0.288L0.36,-0.5L0.447,-0.5L0.292,-0.299L0.25,-0.266L0.302,-0.226L0.469,-0L0.37,-0L0.203,-0.225Z" style="fill-rule:nonzero;"/>
            </g>
            <g transform="matrix(44,0,0,44,1570.49,537.012)">
                <path d="M0.069,-0.463C0.094,-0.478 0.124,-0.49 0.158,-0.497C0.191,-0.504 0.226,-0.508 0.263,-0.508C0.298,-0.508 0.326,-0.503 0.347,-0.494C0.368,-0.485 0.384,-0.472 0.395,-0.458C0.406,-0.443 0.413,-0.426 0.417,-0.408C0.42,-0.39 0.422,-0.372 0.422,-0.354C0.422,-0.314 0.421,-0.275 0.419,-0.237C0.417,-0.199 0.416,-0.163 0.416,-0.129C0.416,-0.104 0.417,-0.081 0.419,-0.059C0.421,-0.037 0.425,-0.017 0.43,0.002L0.371,0.002L0.35,-0.068L0.345,-0.068C0.339,-0.059 0.332,-0.049 0.323,-0.041C0.314,-0.032 0.303,-0.024 0.29,-0.017C0.277,-0.01 0.263,-0.004 0.246,0.001C0.229,0.006 0.21,0.008 0.189,0.008C0.168,0.008 0.148,0.005 0.13,-0.002C0.111,-0.009 0.095,-0.018 0.082,-0.031C0.069,-0.043 0.058,-0.058 0.051,-0.075C0.043,-0.092 0.039,-0.112 0.039,-0.134C0.039,-0.163 0.045,-0.188 0.057,-0.208C0.069,-0.227 0.086,-0.243 0.108,-0.255C0.129,-0.266 0.155,-0.275 0.186,-0.28C0.216,-0.285 0.249,-0.287 0.286,-0.287L0.314,-0.287C0.323,-0.287 0.332,-0.286 0.341,-0.285C0.343,-0.305 0.344,-0.323 0.344,-0.339C0.344,-0.376 0.337,-0.401 0.322,-0.416C0.307,-0.431 0.281,-0.438 0.242,-0.438C0.231,-0.438 0.219,-0.437 0.206,-0.436C0.193,-0.434 0.179,-0.432 0.166,-0.429C0.152,-0.426 0.139,-0.422 0.127,-0.418C0.114,-0.413 0.103,-0.408 0.094,-0.403L0.069,-0.463ZM0.211,-0.062C0.23,-0.062 0.246,-0.065 0.261,-0.07C0.276,-0.075 0.288,-0.081 0.299,-0.089C0.31,-0.096 0.319,-0.105 0.326,-0.114C0.333,-0.123 0.338,-0.132 0.341,-0.141L0.341,-0.224C0.332,-0.225 0.322,-0.225 0.313,-0.226C0.303,-0.226 0.293,-0.226 0.284,-0.226C0.263,-0.226 0.243,-0.225 0.224,-0.223C0.204,-0.22 0.187,-0.216 0.172,-0.21C0.157,-0.203 0.145,-0.195 0.136,-0.184C0.127,-0.173 0.122,-0.159 0.122,-0.142C0.122,-0.119 0.13,-0.099 0.147,-0.085C0.164,-0.07 0.185,-0.062 0.211,-0.062Z" style="fill-rule:nonzero;"/>
            </g>
            <g transform="matrix(36,0,0,36,1451.59,577.296)">
                <path d="M0.227,0.22C0.196,0.188 0.17,0.153 0.149,0.115C0.128,0.076 0.111,0.037 0.098,-0.004C0.085,-0.044 0.075,-0.085 0.069,-0.126C0.063,-0.167 0.06,-0.206 0.06,-0.243C0.06,-0.28 0.063,-0.318 0.069,-0.359C0.075,-0.4 0.085,-0.44 0.098,-0.482C0.111,-0.523 0.129,-0.563 0.151,-0.602C0.172,-0.641 0.199,-0.678 0.23,-0.712L0.278,-0.677C0.251,-0.643 0.229,-0.608 0.212,-0.572C0.194,-0.535 0.18,-0.498 0.169,-0.461C0.158,-0.424 0.151,-0.387 0.147,-0.35C0.142,-0.313 0.14,-0.277 0.14,-0.243C0.14,-0.211 0.142,-0.176 0.148,-0.139C0.153,-0.101 0.161,-0.063 0.172,-0.026C0.183,0.012 0.197,0.049 0.215,0.085C0.232,0.121 0.253,0.154 0.278,0.183L0.227,0.22Z" style="fill-rule:nonzero;"/>
            </g>
            <g transform="matrix(36,0,0,36,1461.67,577.296)">
                <path d="M0.378,-0.43L0.157,-0.43L0.157,-0L0.077,-0L0.077,-0.5L0.458,-0.5L0.458,-0L0.378,-0L0.378,-0.43Z" style="fill-rule:nonzero;"/>
            </g>
            <g transform="matrix(36,0,0,36,1480.93,577.296)">
                <path d="M0.389,-0.296L0.392,-0.358L0.389,-0.358L0.348,-0.294L0.123,-0L0.077,-0L0.077,-0.5L0.157,-0.5L0.157,-0.195L0.154,-0.136L0.158,-0.136L0.197,-0.198L0.422,-0.5L0.469,-0.5L0.469,-0L0.389,-0L0.389,-0.296Z" style="fill-rule:nonzero;"/>
            </g>
            <g transform="matrix(36,0,0,36,1500.59,577.296)">
                <path d="M0.203,-0.225L0.157,-0.225L0.157,-0L0.077,-0L0.077,-0.5L0.157,-0.5L0.157,-0.274L0.2,-0.288L0.36,-0.5L0.447,-0.5L0.292,-0.299L0.25,-0.266L0.302,-0.226L0.469,-0L0.37,-0L0.203,-0.225Z" style="fill-rule:nonzero;"/>
            </g>
            <g transform="matrix(36,0,0,36,1517.8,577.296)">
                <path d="M0.418,-0.033C0.398,-0.018 0.374,-0.007 0.347,0.001C0.32,0.008 0.291,0.012 0.261,0.012C0.222,0.012 0.19,0.006 0.163,-0.007C0.136,-0.019 0.115,-0.037 0.098,-0.06C0.081,-0.083 0.068,-0.11 0.061,-0.143C0.053,-0.175 0.049,-0.211 0.049,-0.25C0.049,-0.335 0.068,-0.4 0.105,-0.445C0.142,-0.49 0.196,-0.512 0.266,-0.512C0.298,-0.512 0.325,-0.51 0.348,-0.505C0.37,-0.5 0.39,-0.492 0.408,-0.483L0.385,-0.414C0.37,-0.423 0.353,-0.43 0.334,-0.435C0.315,-0.44 0.295,-0.442 0.274,-0.442C0.179,-0.442 0.132,-0.378 0.132,-0.25C0.132,-0.225 0.135,-0.2 0.14,-0.178C0.145,-0.155 0.153,-0.134 0.165,-0.117C0.176,-0.099 0.192,-0.085 0.211,-0.074C0.23,-0.063 0.253,-0.058 0.281,-0.058C0.305,-0.058 0.327,-0.062 0.346,-0.069C0.365,-0.076 0.38,-0.085 0.392,-0.094L0.418,-0.033Z" style="fill-rule:nonzero;"/>
            </g>
            <g transform="matrix(36,0,0,36,1534.03,577.296)">
                <path d="M0.442,-0.04C0.422,-0.024 0.397,-0.011 0.367,-0.002C0.336,0.007 0.304,0.012 0.27,0.012C0.232,0.012 0.199,0.006 0.171,-0.007C0.143,-0.019 0.12,-0.037 0.102,-0.06C0.084,-0.083 0.071,-0.11 0.062,-0.142C0.053,-0.174 0.049,-0.21 0.049,-0.25C0.049,-0.335 0.068,-0.4 0.106,-0.445C0.144,-0.49 0.198,-0.512 0.269,-0.512C0.292,-0.512 0.314,-0.51 0.337,-0.505C0.36,-0.5 0.38,-0.49 0.398,-0.476C0.416,-0.462 0.431,-0.442 0.442,-0.417C0.453,-0.391 0.459,-0.357 0.459,-0.315C0.459,-0.293 0.457,-0.269 0.453,-0.242L0.132,-0.242C0.132,-0.213 0.135,-0.187 0.141,-0.164C0.147,-0.141 0.156,-0.122 0.169,-0.107C0.182,-0.091 0.198,-0.079 0.219,-0.071C0.239,-0.062 0.264,-0.058 0.293,-0.058C0.316,-0.058 0.338,-0.062 0.361,-0.07C0.384,-0.078 0.401,-0.087 0.412,-0.098L0.442,-0.04ZM0.27,-0.442C0.231,-0.442 0.199,-0.432 0.176,-0.411C0.152,-0.39 0.138,-0.355 0.133,-0.305L0.381,-0.305C0.381,-0.356 0.371,-0.391 0.352,-0.412C0.333,-0.432 0.305,-0.442 0.27,-0.442Z" style="fill-rule:nonzero;"/>
            </g>
            <g transform="matrix(36,0,0,36,1552.32,577.296)">
                <path d="M0.346,-0.43L0.201,-0.43C0.199,-0.402 0.197,-0.372 0.195,-0.34C0.193,-0.307 0.19,-0.275 0.186,-0.243C0.182,-0.21 0.177,-0.179 0.17,-0.15C0.163,-0.12 0.155,-0.094 0.145,-0.071C0.134,-0.048 0.122,-0.03 0.107,-0.017C0.092,-0.003 0.074,0.004 0.053,0.004C0.04,0.004 0.029,0.003 0.02,0.002C0.011,0.001 0.002,-0.002 -0.005,-0.005L0.007,-0.072C0.015,-0.069 0.024,-0.068 0.033,-0.068C0.046,-0.068 0.058,-0.074 0.069,-0.085C0.08,-0.096 0.089,-0.118 0.097,-0.15C0.105,-0.181 0.112,-0.225 0.117,-0.281C0.122,-0.337 0.126,-0.41 0.128,-0.5L0.426,-0.5L0.426,-0L0.346,-0L0.346,-0.43Z" style="fill-rule:nonzero;"/>
            </g>
            <g transform="matrix(36,0,0,36,1570.43,577.296)">
                <path d="M0.157,-0.07C0.182,-0.066 0.205,-0.064 0.228,-0.064C0.27,-0.064 0.301,-0.072 0.321,-0.089C0.341,-0.105 0.351,-0.128 0.351,-0.158C0.351,-0.185 0.341,-0.207 0.322,-0.224C0.303,-0.241 0.272,-0.25 0.231,-0.25C0.22,-0.25 0.207,-0.25 0.194,-0.249C0.181,-0.248 0.168,-0.246 0.157,-0.243L0.157,-0.07ZM0.157,-0.309C0.173,-0.312 0.188,-0.314 0.203,-0.315C0.218,-0.316 0.232,-0.316 0.245,-0.316C0.28,-0.316 0.309,-0.312 0.333,-0.305C0.357,-0.297 0.377,-0.286 0.392,-0.273C0.407,-0.26 0.417,-0.244 0.424,-0.226C0.431,-0.207 0.434,-0.188 0.434,-0.167C0.434,-0.106 0.416,-0.062 0.38,-0.035C0.343,-0.008 0.287,0.006 0.21,0.006C0.167,0.006 0.123,0.004 0.077,-0L0.077,-0.5L0.157,-0.5L0.157,-0.309Z" style="fill-rule:nonzero;"/>
            </g>
            <g transform="matrix(36,0,0,36,1587.13,577.296)">
                <path d="M0.053,-0.712C0.084,-0.68 0.11,-0.645 0.131,-0.607C0.152,-0.568 0.169,-0.529 0.183,-0.489C0.196,-0.448 0.205,-0.407 0.211,-0.367C0.217,-0.325 0.22,-0.286 0.22,-0.249C0.22,-0.212 0.217,-0.174 0.211,-0.133C0.205,-0.092 0.195,-0.052 0.182,-0.011C0.169,0.031 0.151,0.071 0.13,0.11C0.108,0.149 0.081,0.186 0.05,0.22L0.002,0.185C0.029,0.151 0.051,0.116 0.069,0.079C0.087,0.042 0.101,0.005 0.112,-0.032C0.122,-0.069 0.129,-0.106 0.134,-0.143C0.138,-0.18 0.14,-0.215 0.14,-0.249C0.14,-0.281 0.137,-0.316 0.132,-0.353C0.127,-0.39 0.118,-0.428 0.108,-0.466C0.096,-0.504 0.082,-0.541 0.065,-0.577C0.048,-0.613 0.027,-0.646 0.002,-0.675L0.053,-0.712Z" style="fill-rule:nonzero;"/>
            </g>
        </g>
        <path d="M492.63,7.448C493.745,7.184 494.948,7.008 496.238,6.92C497.529,6.832 498.805,6.788 500.066,6.788C501.416,6.788 502.787,6.92 504.18,7.184C505.574,7.448 506.842,7.932 507.986,8.636C509.13,9.34 510.062,10.308 510.78,11.54C511.499,12.772 511.858,14.342 511.858,16.248C511.858,18.126 511.521,19.71 510.846,21C510.172,22.291 509.277,23.34 508.162,24.146C507.048,24.953 505.772,25.532 504.334,25.884C502.897,26.236 501.416,26.412 499.89,26.412L499.164,26.412C498.827,26.412 498.475,26.405 498.108,26.39C497.742,26.376 497.382,26.354 497.03,26.324C496.678,26.295 496.429,26.266 496.282,26.236L496.282,37.94L492.63,37.94L492.63,7.448ZM500.154,9.956C499.392,9.956 498.658,9.971 497.954,10C497.25,10.03 496.693,10.103 496.282,10.22L496.282,22.98C496.429,23.039 496.664,23.076 496.986,23.09C497.309,23.105 497.646,23.12 497.998,23.134C498.35,23.149 498.688,23.156 499.01,23.156L499.714,23.156C500.712,23.156 501.702,23.061 502.684,22.87C503.667,22.68 504.554,22.335 505.346,21.836C506.138,21.338 506.776,20.634 507.26,19.724C507.744,18.815 507.986,17.656 507.986,16.248C507.986,15.046 507.759,14.041 507.304,13.234C506.85,12.428 506.248,11.782 505.5,11.298C504.752,10.814 503.909,10.47 502.97,10.264C502.032,10.059 501.093,9.956 500.154,9.956Z" style="fill-rule:nonzero;"/>
        <path d="M532.934,36.18C532.054,36.884 530.947,37.442 529.612,37.852C528.278,38.263 526.862,38.468 525.366,38.468C523.694,38.468 522.242,38.197 521.01,37.654C519.778,37.112 518.766,36.334 517.974,35.322C517.182,34.31 516.596,33.1 516.214,31.692C515.833,30.284 515.642,28.7 515.642,26.94C515.642,23.186 516.478,20.326 518.15,18.36C519.822,16.395 522.213,15.412 525.322,15.412C526.32,15.412 527.317,15.522 528.314,15.742C529.312,15.962 530.206,16.38 530.998,16.996C531.79,17.612 532.436,18.485 532.934,19.614C533.433,20.744 533.682,22.232 533.682,24.08C533.682,25.048 533.594,26.119 533.418,27.292L519.294,27.292C519.294,28.583 519.426,29.727 519.69,30.724C519.954,31.722 520.365,32.565 520.922,33.254C521.48,33.944 522.206,34.472 523.1,34.838C523.995,35.205 525.088,35.388 526.378,35.388C527.376,35.388 528.373,35.212 529.37,34.86C530.368,34.508 531.116,34.098 531.614,33.628L532.934,36.18ZM525.366,18.492C523.636,18.492 522.25,18.947 521.208,19.856C520.167,20.766 519.544,22.32 519.338,24.52L530.25,24.52C530.25,22.291 529.825,20.729 528.974,19.834C528.124,18.94 526.921,18.492 525.366,18.492Z" style="fill-rule:nonzero;"/>
        <path d="M541.25,19.856C542.218,18.448 543.289,17.458 544.462,16.886C545.636,16.314 547.102,16.028 548.862,16.028C551.561,16.028 553.636,16.908 555.088,18.668C556.54,20.428 557.266,23.024 557.266,26.456C557.266,30.416 556.423,33.408 554.736,35.432C553.05,37.456 550.696,38.468 547.674,38.468C544.448,38.468 542.028,37.354 540.414,35.124C538.801,32.895 537.994,29.39 537.994,24.608C537.994,22.086 538.119,19.93 538.368,18.14C538.618,16.351 538.984,14.84 539.468,13.608C539.952,12.376 540.539,11.394 541.228,10.66C541.918,9.927 542.695,9.348 543.56,8.922C544.426,8.497 545.372,8.196 546.398,8.02C547.425,7.844 548.525,7.698 549.698,7.58C551.224,7.434 552.419,7.265 553.284,7.074C554.15,6.884 554.846,6.539 555.374,6.04L555.77,9.208C555.477,9.472 555.154,9.692 554.802,9.868C554.45,10.044 554.025,10.191 553.526,10.308C553.028,10.426 552.434,10.528 551.744,10.616C551.055,10.704 550.256,10.778 549.346,10.836C548.085,10.924 546.978,11.078 546.024,11.298C545.071,11.518 544.25,11.944 543.56,12.574C542.871,13.205 542.328,14.1 541.932,15.258C541.536,16.417 541.265,17.95 541.118,19.856L541.25,19.856ZM541.646,26.984C541.646,28.099 541.764,29.17 541.998,30.196C542.233,31.223 542.592,32.125 543.076,32.902C543.56,33.68 544.184,34.288 544.946,34.728C545.709,35.168 546.604,35.388 547.63,35.388C549.654,35.388 551.158,34.662 552.14,33.21C553.123,31.758 553.614,29.61 553.614,26.764C553.614,25.65 553.512,24.623 553.306,23.684C553.101,22.746 552.778,21.932 552.338,21.242C551.898,20.553 551.341,20.025 550.666,19.658C549.992,19.292 549.185,19.108 548.246,19.108C545.958,19.079 544.286,19.746 543.23,21.11C542.174,22.474 541.646,24.432 541.646,26.984Z" style="fill-rule:nonzero;"/>
        <path d="M562.81,15.94L565.23,15.94L565.89,18.58L566.066,18.58C566.741,17.554 567.614,16.769 568.684,16.226C569.755,15.684 570.98,15.412 572.358,15.412C575.292,15.412 577.477,16.278 578.914,18.008C580.352,19.739 581.07,22.57 581.07,26.5C581.07,28.348 580.828,30.013 580.344,31.494C579.86,32.976 579.178,34.23 578.298,35.256C577.418,36.283 576.355,37.075 575.108,37.632C573.862,38.19 572.476,38.468 570.95,38.468C569.865,38.468 569.007,38.402 568.376,38.27C567.746,38.138 567.064,37.911 566.33,37.588L566.33,46.74L562.81,46.74L562.81,15.94ZM571.698,18.492C570.202,18.492 569.022,18.881 568.156,19.658C567.291,20.436 566.682,21.616 566.33,23.2L566.33,34.112C566.858,34.523 567.46,34.838 568.134,35.058C568.809,35.278 569.704,35.388 570.818,35.388C572.842,35.388 574.448,34.633 575.636,33.122C576.824,31.612 577.418,29.39 577.418,26.456C577.418,25.254 577.316,24.161 577.11,23.178C576.905,22.196 576.575,21.36 576.12,20.67C575.666,19.981 575.079,19.446 574.36,19.064C573.642,18.683 572.754,18.492 571.698,18.492Z" style="fill-rule:nonzero;"/>
        <path d="M585.382,26.94C585.382,23.215 586.211,20.362 587.868,18.382C589.526,16.402 591.909,15.412 595.018,15.412C596.661,15.412 598.091,15.684 599.308,16.226C600.526,16.769 601.53,17.546 602.322,18.558C603.114,19.57 603.701,20.788 604.082,22.21C604.464,23.633 604.654,25.21 604.654,26.94C604.654,30.666 603.826,33.518 602.168,35.498C600.511,37.478 598.128,38.468 595.018,38.468C593.376,38.468 591.946,38.197 590.728,37.654C589.511,37.112 588.506,36.334 587.714,35.322C586.922,34.31 586.336,33.093 585.954,31.67C585.573,30.248 585.382,28.671 585.382,26.94ZM589.034,26.94C589.034,28.055 589.144,29.126 589.364,30.152C589.584,31.179 589.929,32.074 590.398,32.836C590.868,33.599 591.484,34.215 592.246,34.684C593.009,35.154 593.933,35.388 595.018,35.388C599.008,35.418 601.002,32.602 601.002,26.94C601.002,25.796 600.892,24.711 600.672,23.684C600.452,22.658 600.108,21.763 599.638,21C599.169,20.238 598.553,19.629 597.79,19.174C597.028,18.72 596.104,18.492 595.018,18.492C591.029,18.463 589.034,21.279 589.034,26.94Z" style="fill-rule:nonzero;"/>
        <path d="M236.417,358.953L254.417,367.953L236.417,376.953L236.417,358.953Z"/>
        <path d="M192.091,367.953L240.017,367.953" style="fill:none;stroke:black;stroke-width:4px;stroke-linecap:butt;stroke-dasharray:4,4;"/>
        <path d="M280.988,236.11L298.988,245.11L280.988,254.11L280.988,236.11Z"/>
        <path d="M192.091,245.11L284.588,245.11" style="fill:none;stroke:black;stroke-width:4px;stroke-linecap:butt;stroke-dasharray:4,4;"/>
    </g>
</svg>
