<?xml version="1.0" encoding="UTF-8" standalone="no"?>
<!DOCTYPE svg PUBLIC "-//W3C//DTD SVG 1.1//EN" "http://www.w3.org/Graphics/SVG/1.1/DTD/svg11.dtd">
<svg width="100%" height="100%" viewBox="0 0 283 208" version="1.1" xmlns="http://www.w3.org/2000/svg" xmlns:xlink="http://www.w3.org/1999/xlink" xml:space="preserve" xmlns:serif="http://www.serif.com/" style="fill-rule:evenodd;clip-rule:evenodd;stroke-miterlimit:10;">
    <g transform="matrix(1,0,0,1,-2279,-4383)">
        <rect id="Vector-analysis" serif:id="Vector analysis" x="0" y="3502" width="2985" height="2387" style="fill:none;"/>
        <g id="Vector-analysis1" serif:id="Vector analysis">
            <g id="Voronoy_colored">
            </g>
            <g id="Dots">
            </g>
            <g id="Outer-dots" serif:id="Outer dots">
            </g>
            <g id="dashed">
            </g>
            <g id="dots-2" serif:id="dots 2">
            </g>
            <g id="dots">
            </g>
            <g transform="matrix(1,0,0,1,101,0)">
                <rect x="2258" y="4386.77" width="198.857" height="198.857" style="fill:white;stroke:black;stroke-width:3px;"/>
            </g>
            <g transform="matrix(1,0,0,1,101,0)">
                <path d="M2258,4526L2283,4494L2318,4474L2345,4471L2375,4470L2401,4456.2L2410,4430L2402,4412L2383,4386.77L2399,4386.77L2411,4405L2421,4421.49L2426,4434L2434,4443L2439,4448L2443,4456.2L2429,4467L2413,4470L2391,4474L2357.43,4486.2L2329,4493L2314,4507L2303,4519L2296,4544L2301,4571L2315,4585.63L2258,4585.63L2258,4526Z" style="fill:rgb(45,231,231);stroke:black;stroke-width:3px;"/>
            </g>
            <g transform="matrix(1,0,0,1,101,0)">
                <path d="M2258,4526L2283,4494L2318,4474L2332,4426L2307,4421.49L2291,4408L2282,4386.77L2258,4386.77L2258,4526Z" style="fill:rgb(150,255,21);stroke:black;stroke-width:3px;"/>
            </g>
            <g transform="matrix(1,0,0,1,101,0)">
                <path d="M2345,4471L2318,4474L2332,4426L2357.43,4432L2371,4420L2402,4412L2410,4430L2400.65,4456.39L2375,4470L2345,4471Z" style="fill:rgb(255,140,25);stroke:black;stroke-width:3px;"/>
            </g>
            <g transform="matrix(1,0,0,1,101,0)">
                <path d="M2315,4585.63L2301,4571L2315,4544L2340,4526L2365,4526L2397,4520L2420,4500L2456.86,4486.2L2456.86,4585.63L2315,4585.63Z" style="fill:rgb(150,255,21);stroke:black;stroke-width:3px;"/>
            </g>
            <g transform="matrix(1,0,0,1,101,0)">
                <path d="M2282,4386.77L2291,4408L2307,4421.49L2332,4426L2357.43,4432L2371,4420L2402,4412L2383,4386.77L2282,4386.77Z" style="fill:rgb(169,169,169);stroke:black;stroke-width:3px;"/>
            </g>
            <g transform="matrix(1,0,0,1,101,0)">
                <path d="M2301,4571L2315,4544L2340,4526L2365,4526L2397,4520L2420,4500L2456.86,4486.2L2456.86,4386.77L2399,4386.77L2413.66,4409.39L2421,4421.49L2426,4434L2439,4448L2442.76,4456.39L2429,4467L2391,4474L2357.43,4486.2L2329,4493L2303,4519L2296,4544L2301,4571Z" style="fill:rgb(251,133,255);stroke:black;stroke-width:3px;stroke-linejoin:round;"/>
            </g>
            <g transform="matrix(1.01109,0,0,1,-3.71476,45)">
                <path d="M2465.08,4509.33L2462.18,4509.33C2462.14,4509.89 2462.1,4510.49 2462.06,4511.14C2462.02,4511.79 2461.96,4512.44 2461.88,4513.08C2461.8,4513.73 2461.69,4514.35 2461.56,4514.94C2461.43,4515.53 2461.26,4516.06 2461.05,4516.51C2460.84,4516.97 2460.59,4517.33 2460.29,4517.6C2459.99,4517.88 2459.63,4518.01 2459.22,4518.01C2458.97,4518.01 2458.75,4518 2458.56,4517.97C2458.37,4517.94 2458.21,4517.9 2458.06,4517.83L2458.3,4516.49C2458.46,4516.55 2458.63,4516.57 2458.82,4516.57C2459.09,4516.57 2459.33,4516.46 2459.54,4516.23C2459.75,4516.01 2459.94,4515.57 2460.1,4514.94C2460.26,4514.31 2460.39,4513.43 2460.5,4512.31C2460.61,4511.19 2460.68,4509.73 2460.72,4507.93L2466.68,4507.93L2466.68,4517.93L2465.08,4517.93L2465.08,4509.33Z" style="fill-rule:nonzero;stroke:black;stroke-width:0.99px;stroke-linejoin:round;stroke-miterlimit:2;"/>
                <path d="M2477.06,4517.13C2476.66,4517.45 2476.16,4517.7 2475.55,4517.89C2474.94,4518.08 2474.3,4518.17 2473.62,4518.17C2472.86,4518.17 2472.2,4518.05 2471.64,4517.8C2471.08,4517.56 2470.62,4517.2 2470.26,4516.74C2469.9,4516.28 2469.63,4515.73 2469.46,4515.09C2469.29,4514.45 2469.2,4513.73 2469.2,4512.93C2469.2,4511.23 2469.58,4509.93 2470.34,4509.03C2471.1,4508.14 2472.19,4507.69 2473.6,4507.69C2474.05,4507.69 2474.51,4507.74 2474.96,4507.84C2475.41,4507.94 2475.82,4508.13 2476.18,4508.41C2476.54,4508.69 2476.83,4509.09 2477.06,4509.6C2477.29,4510.11 2477.4,4510.79 2477.4,4511.63C2477.4,4512.07 2477.36,4512.56 2477.28,4513.09L2470.86,4513.09C2470.86,4513.68 2470.92,4514.2 2471.04,4514.65C2471.16,4515.11 2471.35,4515.49 2471.6,4515.8C2471.85,4516.11 2472.18,4516.36 2472.59,4516.52C2473,4516.69 2473.49,4516.77 2474.08,4516.77C2474.53,4516.77 2474.99,4516.69 2475.44,4516.53C2475.89,4516.37 2476.23,4516.19 2476.46,4515.97L2477.06,4517.13ZM2473.62,4509.09C2472.83,4509.09 2472.2,4509.3 2471.73,4509.71C2471.26,4510.12 2470.97,4510.83 2470.88,4511.83L2475.84,4511.83C2475.84,4510.82 2475.65,4510.11 2475.26,4509.7C2474.87,4509.3 2474.33,4509.09 2473.62,4509.09Z" style="fill-rule:nonzero;stroke:black;stroke-width:0.99px;stroke-linejoin:round;stroke-miterlimit:2;"/>
                <path d="M2486.74,4517.27C2486.34,4517.57 2485.87,4517.79 2485.32,4517.94C2484.77,4518.1 2484.2,4518.17 2483.6,4518.17C2482.83,4518.17 2482.17,4518.05 2481.64,4517.8C2481.11,4517.56 2480.67,4517.2 2480.33,4516.74C2479.99,4516.28 2479.74,4515.73 2479.59,4515.08C2479.44,4514.44 2479.36,4513.72 2479.36,4512.93C2479.36,4511.24 2479.73,4509.94 2480.48,4509.04C2481.23,4508.14 2482.3,4507.69 2483.7,4507.69C2484.34,4507.69 2484.88,4507.74 2485.33,4507.84C2485.78,4507.94 2486.18,4508.09 2486.54,4508.27L2486.08,4509.65C2485.77,4509.48 2485.43,4509.34 2485.06,4509.24C2484.69,4509.14 2484.29,4509.09 2483.86,4509.09C2481.97,4509.09 2481.02,4510.37 2481.02,4512.93C2481.02,4513.44 2481.07,4513.92 2481.17,4514.38C2481.27,4514.84 2481.44,4515.25 2481.67,4515.6C2481.9,4515.95 2482.21,4516.24 2482.59,4516.45C2482.97,4516.66 2483.44,4516.77 2484,4516.77C2484.48,4516.77 2484.91,4516.7 2485.29,4516.55C2485.67,4516.4 2485.98,4516.24 2486.22,4516.05L2486.74,4517.27Z" style="fill-rule:nonzero;stroke:black;stroke-width:0.99px;stroke-linejoin:round;stroke-miterlimit:2;"/>
            </g>
            <g transform="matrix(1.01109,0,0,1,-109.261,-64.7886)">
                <path d="M2465.08,4509.33L2462.18,4509.33C2462.14,4509.89 2462.1,4510.49 2462.06,4511.14C2462.02,4511.79 2461.96,4512.44 2461.88,4513.08C2461.8,4513.73 2461.69,4514.35 2461.56,4514.94C2461.43,4515.53 2461.26,4516.06 2461.05,4516.51C2460.84,4516.97 2460.59,4517.33 2460.29,4517.6C2459.99,4517.88 2459.63,4518.01 2459.22,4518.01C2458.97,4518.01 2458.75,4518 2458.56,4517.97C2458.37,4517.94 2458.21,4517.9 2458.06,4517.83L2458.3,4516.49C2458.46,4516.55 2458.63,4516.57 2458.82,4516.57C2459.09,4516.57 2459.33,4516.46 2459.54,4516.23C2459.75,4516.01 2459.94,4515.57 2460.1,4514.94C2460.26,4514.31 2460.39,4513.43 2460.5,4512.31C2460.61,4511.19 2460.68,4509.73 2460.72,4507.93L2466.68,4507.93L2466.68,4517.93L2465.08,4517.93L2465.08,4509.33Z" style="fill-rule:nonzero;stroke:black;stroke-width:0.99px;stroke-linejoin:round;stroke-miterlimit:2;"/>
                <path d="M2477.06,4517.13C2476.66,4517.45 2476.16,4517.7 2475.55,4517.89C2474.94,4518.08 2474.3,4518.17 2473.62,4518.17C2472.86,4518.17 2472.2,4518.05 2471.64,4517.8C2471.08,4517.56 2470.62,4517.2 2470.26,4516.74C2469.9,4516.28 2469.63,4515.73 2469.46,4515.09C2469.29,4514.45 2469.2,4513.73 2469.2,4512.93C2469.2,4511.23 2469.58,4509.93 2470.34,4509.03C2471.1,4508.14 2472.19,4507.69 2473.6,4507.69C2474.05,4507.69 2474.51,4507.74 2474.96,4507.84C2475.41,4507.94 2475.82,4508.13 2476.18,4508.41C2476.54,4508.69 2476.83,4509.09 2477.06,4509.6C2477.29,4510.11 2477.4,4510.79 2477.4,4511.63C2477.4,4512.07 2477.36,4512.56 2477.28,4513.09L2470.86,4513.09C2470.86,4513.68 2470.92,4514.2 2471.04,4514.65C2471.16,4515.11 2471.35,4515.49 2471.6,4515.8C2471.85,4516.11 2472.18,4516.36 2472.59,4516.52C2473,4516.69 2473.49,4516.77 2474.08,4516.77C2474.53,4516.77 2474.99,4516.69 2475.44,4516.53C2475.89,4516.37 2476.23,4516.19 2476.46,4515.97L2477.06,4517.13ZM2473.62,4509.09C2472.83,4509.09 2472.2,4509.3 2471.73,4509.71C2471.26,4510.12 2470.97,4510.83 2470.88,4511.83L2475.84,4511.83C2475.84,4510.82 2475.65,4510.11 2475.26,4509.7C2474.87,4509.3 2474.33,4509.09 2473.62,4509.09Z" style="fill-rule:nonzero;stroke:black;stroke-width:0.99px;stroke-linejoin:round;stroke-miterlimit:2;"/>
                <path d="M2486.74,4517.27C2486.34,4517.57 2485.87,4517.79 2485.32,4517.94C2484.77,4518.1 2484.2,4518.17 2483.6,4518.17C2482.83,4518.17 2482.17,4518.05 2481.64,4517.8C2481.11,4517.56 2480.67,4517.2 2480.33,4516.74C2479.99,4516.28 2479.74,4515.73 2479.59,4515.08C2479.44,4514.44 2479.36,4513.72 2479.36,4512.93C2479.36,4511.24 2479.73,4509.94 2480.48,4509.04C2481.23,4508.14 2482.3,4507.69 2483.7,4507.69C2484.34,4507.69 2484.88,4507.74 2485.33,4507.84C2485.78,4507.94 2486.18,4508.09 2486.54,4508.27L2486.08,4509.65C2485.77,4509.48 2485.43,4509.34 2485.06,4509.24C2484.69,4509.14 2484.29,4509.09 2483.86,4509.09C2481.97,4509.09 2481.02,4510.37 2481.02,4512.93C2481.02,4513.44 2481.07,4513.92 2481.17,4514.38C2481.27,4514.84 2481.44,4515.25 2481.67,4515.6C2481.9,4515.95 2482.21,4516.24 2482.59,4516.45C2482.97,4516.66 2483.44,4516.77 2484,4516.77C2484.48,4516.77 2484.91,4516.7 2485.29,4516.55C2485.67,4516.4 2485.98,4516.24 2486.22,4516.05L2486.74,4517.27Z" style="fill-rule:nonzero;stroke:black;stroke-width:0.99px;stroke-linejoin:round;stroke-miterlimit:2;"/>
            </g>
            <g transform="matrix(0.998467,-0.159264,0.157517,0.987516,-704.415,439.882)">
                <path d="M2469.39,4517.27C2468.99,4517.57 2468.52,4517.79 2467.97,4517.94C2467.42,4518.1 2466.85,4518.17 2466.25,4518.17C2465.48,4518.17 2464.82,4518.05 2464.29,4517.8C2463.76,4517.56 2463.32,4517.2 2462.98,4516.74C2462.64,4516.28 2462.39,4515.73 2462.24,4515.08C2462.09,4514.44 2462.01,4513.72 2462.01,4512.93C2462.01,4511.24 2462.38,4509.94 2463.13,4509.04C2463.88,4508.14 2464.95,4507.69 2466.35,4507.69C2466.99,4507.69 2467.53,4507.74 2467.98,4507.84C2468.43,4507.94 2468.83,4508.09 2469.19,4508.27L2468.73,4509.65C2468.42,4509.48 2468.08,4509.34 2467.71,4509.24C2467.34,4509.14 2466.94,4509.09 2466.51,4509.09C2464.62,4509.09 2463.67,4510.37 2463.67,4512.93C2463.67,4513.44 2463.72,4513.92 2463.82,4514.38C2463.92,4514.84 2464.09,4515.25 2464.32,4515.6C2464.55,4515.95 2464.86,4516.24 2465.24,4516.45C2465.62,4516.66 2466.09,4516.77 2466.65,4516.77C2467.13,4516.77 2467.56,4516.7 2467.94,4516.55C2468.32,4516.4 2468.63,4516.24 2468.87,4516.05L2469.39,4517.27Z" style="fill-rule:nonzero;stroke:black;stroke-width:0.99px;stroke-linejoin:round;stroke-miterlimit:2;"/>
                <path d="M2476.61,4503.69L2477.87,4504.25L2470.57,4520.73L2469.31,4520.17L2476.61,4503.69Z" style="fill-rule:nonzero;stroke:black;stroke-width:0.99px;stroke-linejoin:round;stroke-miterlimit:2;"/>
                <path d="M2481.29,4512.81L2477.93,4507.93L2479.89,4507.93L2481.79,4510.69L2482.35,4511.83L2482.93,4510.69L2484.87,4507.93L2486.67,4507.93L2483.29,4512.73L2486.87,4517.93L2484.97,4517.93L2482.85,4514.89L2482.25,4513.69L2481.63,4514.89L2479.47,4517.93L2477.69,4517.93L2481.29,4512.81Z" style="fill-rule:nonzero;stroke:black;stroke-width:0.99px;stroke-linejoin:round;stroke-miterlimit:2;"/>
            </g>
            <g transform="matrix(0.611066,-0.805543,0.796708,0.604364,-2713.53,3773.7)">
                <path d="M2448.36,4507.93L2449.45,4507.93L2449.76,4509.13L2449.84,4509.13C2450.14,4508.66 2450.54,4508.31 2451.03,4508.06C2451.51,4507.82 2452.07,4507.69 2452.7,4507.69C2454.03,4507.69 2455.02,4508.09 2455.68,4508.87C2456.33,4509.66 2456.66,4510.94 2456.66,4512.73C2456.66,4513.57 2456.55,4514.33 2456.33,4515C2456.11,4515.68 2455.8,4516.24 2455.39,4516.71C2454.99,4517.18 2454.51,4517.54 2453.95,4517.79C2453.38,4518.05 2452.75,4518.17 2452.05,4518.17C2451.56,4518.17 2451.17,4518.14 2450.89,4518.08C2450.6,4518.02 2450.29,4517.92 2449.95,4517.77L2449.95,4521.93L2448.36,4521.93L2448.36,4507.93ZM2452.39,4509.09C2451.72,4509.09 2451.18,4509.27 2450.78,4509.62C2450.39,4509.98 2450.12,4510.51 2449.95,4511.23L2449.95,4516.19C2450.2,4516.38 2450.47,4516.52 2450.78,4516.62C2451.08,4516.72 2451.49,4516.77 2451.99,4516.77C2452.91,4516.77 2453.64,4516.43 2454.18,4515.74C2454.72,4515.06 2454.99,4514.05 2454.99,4512.71C2454.99,4512.16 2454.95,4511.67 2454.86,4511.22C2454.76,4510.78 2454.61,4510.4 2454.41,4510.08C2454.2,4509.77 2453.93,4509.53 2453.61,4509.35C2453.28,4509.18 2452.88,4509.09 2452.39,4509.09Z" style="fill-rule:nonzero;stroke:black;stroke-width:0.99px;stroke-linejoin:round;stroke-miterlimit:2;"/>
                <path d="M2466.47,4517.13C2466.08,4517.45 2465.57,4517.7 2464.97,4517.89C2464.36,4518.08 2463.72,4518.17 2463.03,4518.17C2462.28,4518.17 2461.62,4518.05 2461.05,4517.8C2460.49,4517.56 2460.03,4517.2 2459.68,4516.74C2459.32,4516.28 2459.05,4515.73 2458.88,4515.09C2458.7,4514.45 2458.62,4513.73 2458.62,4512.93C2458.62,4511.23 2458.99,4509.93 2459.76,4509.03C2460.51,4508.14 2461.6,4507.69 2463.01,4507.69C2463.47,4507.69 2463.92,4507.74 2464.38,4507.84C2464.83,4507.94 2465.24,4508.13 2465.6,4508.41C2465.95,4508.69 2466.25,4509.09 2466.47,4509.6C2466.7,4510.11 2466.82,4510.79 2466.82,4511.63C2466.82,4512.07 2466.78,4512.56 2466.7,4513.09L2460.28,4513.09C2460.28,4513.68 2460.34,4514.2 2460.45,4514.65C2460.58,4515.11 2460.76,4515.49 2461.01,4515.8C2461.27,4516.11 2461.6,4516.36 2462.01,4516.52C2462.41,4516.69 2462.91,4516.77 2463.49,4516.77C2463.95,4516.77 2464.4,4516.69 2464.86,4516.53C2465.31,4516.37 2465.65,4516.19 2465.88,4515.97L2466.47,4517.13ZM2463.03,4509.09C2462.25,4509.09 2461.62,4509.3 2461.14,4509.71C2460.67,4510.12 2460.39,4510.83 2460.3,4511.83L2465.26,4511.83C2465.26,4510.82 2465.06,4510.11 2464.68,4509.7C2464.29,4509.3 2463.74,4509.09 2463.03,4509.09Z" style="fill-rule:nonzero;stroke:black;stroke-width:0.99px;stroke-linejoin:round;stroke-miterlimit:2;"/>
                <path d="M2471.86,4513.43L2470.93,4513.43L2470.93,4517.93L2469.34,4517.93L2469.34,4507.93L2470.93,4507.93L2470.93,4512.45L2471.8,4512.17L2474.99,4507.93L2476.74,4507.93L2473.64,4511.95L2472.8,4512.61L2473.84,4513.41L2477.18,4517.93L2475.2,4517.93L2471.86,4513.43Z" style="fill-rule:nonzero;stroke:black;stroke-width:0.99px;stroke-linejoin:round;stroke-miterlimit:2;"/>
                <path d="M2478.74,4508.67C2479.24,4508.36 2479.83,4508.14 2480.51,4507.99C2481.18,4507.85 2481.88,4507.77 2482.62,4507.77C2483.31,4507.77 2483.87,4507.86 2484.28,4508.05C2484.7,4508.24 2485.03,4508.48 2485.24,4508.78C2485.47,4509.08 2485.61,4509.41 2485.68,4509.77C2485.76,4510.13 2485.8,4510.49 2485.8,4510.85C2485.8,4511.65 2485.78,4512.43 2485.74,4513.19C2485.7,4513.95 2485.68,4514.67 2485.68,4515.35C2485.68,4515.85 2485.7,4516.31 2485.74,4516.75C2485.78,4517.19 2485.85,4517.6 2485.95,4517.97L2484.78,4517.97L2484.36,4516.57L2484.26,4516.57C2484.14,4516.76 2483.99,4516.94 2483.8,4517.12C2483.62,4517.3 2483.41,4517.46 2483.16,4517.6C2482.9,4517.74 2482.61,4517.86 2482.28,4517.95C2481.94,4518.05 2481.56,4518.09 2481.14,4518.09C2480.71,4518.09 2480.31,4518.03 2479.95,4517.89C2479.58,4517.76 2479.26,4517.57 2478.99,4517.32C2478.73,4517.07 2478.52,4516.78 2478.37,4516.43C2478.21,4516.09 2478.14,4515.69 2478.14,4515.25C2478.14,4514.66 2478.26,4514.18 2478.49,4513.78C2478.74,4513.39 2479.07,4513.07 2479.51,4512.84C2479.94,4512.61 2480.46,4512.44 2481.07,4512.34C2481.67,4512.24 2482.34,4512.19 2483.08,4512.19L2483.62,4512.19C2483.8,4512.19 2483.99,4512.2 2484.18,4512.23C2484.22,4511.83 2484.24,4511.47 2484.24,4511.15C2484.24,4510.42 2484.09,4509.9 2483.8,4509.61C2483.5,4509.32 2482.97,4509.17 2482.2,4509.17C2481.97,4509.17 2481.72,4509.19 2481.47,4509.22C2481.2,4509.26 2480.94,4509.3 2480.66,4509.36C2480.39,4509.42 2480.13,4509.49 2479.89,4509.58C2479.64,4509.67 2479.42,4509.77 2479.24,4509.87L2478.74,4508.67ZM2481.58,4516.69C2481.95,4516.69 2482.28,4516.64 2482.58,4516.54C2482.87,4516.44 2483.12,4516.32 2483.34,4516.16C2483.55,4516.01 2483.72,4515.84 2483.87,4515.65C2484.01,4515.47 2484.11,4515.28 2484.18,4515.11L2484.18,4513.45C2483.99,4513.44 2483.8,4513.43 2483.61,4513.42C2483.41,4513.41 2483.22,4513.41 2483.03,4513.41C2482.62,4513.41 2482.22,4513.44 2481.83,4513.48C2481.43,4513.53 2481.09,4513.61 2480.78,4513.74C2480.49,4513.87 2480.24,4514.04 2480.07,4514.26C2479.89,4514.48 2479.8,4514.76 2479.8,4515.09C2479.8,4515.56 2479.96,4515.94 2480.3,4516.24C2480.63,4516.54 2481.05,4516.69 2481.58,4516.69Z" style="fill-rule:nonzero;stroke:black;stroke-width:0.99px;stroke-linejoin:round;stroke-miterlimit:2;"/>
            </g>
            <g transform="matrix(1.01109,0,0,1,-63.9071,-110.032)">
                <path d="M2439.41,4513.47L2439.41,4512.17L2440.81,4512.17C2441.05,4512.17 2441.28,4512.13 2441.52,4512.05C2441.75,4511.97 2441.96,4511.86 2442.15,4511.72C2442.33,4511.58 2442.48,4511.41 2442.6,4511.22C2442.71,4511.03 2442.77,4510.82 2442.77,4510.61C2442.77,4510.09 2442.59,4509.73 2442.23,4509.51C2441.87,4509.3 2441.33,4509.19 2440.61,4509.19C2440.09,4509.19 2439.61,4509.27 2439.18,4509.43C2438.74,4509.59 2438.41,4509.74 2438.17,4509.89L2437.71,4508.65C2438.11,4508.43 2438.58,4508.23 2439.12,4508.05C2439.66,4507.88 2440.3,4507.79 2441.05,4507.79C2443.26,4507.79 2444.37,4508.61 2444.37,4510.25C2444.37,4510.72 2444.22,4511.18 2443.92,4511.62C2443.62,4512.07 2443.19,4512.39 2442.63,4512.57L2442.63,4512.65C2443.41,4512.8 2443.96,4513.08 2444.28,4513.49C2444.59,4513.9 2444.75,4514.45 2444.75,4515.13C2444.75,4515.56 2444.66,4515.95 2444.49,4516.31C2444.31,4516.67 2444.05,4516.98 2443.71,4517.25C2443.36,4517.52 2442.92,4517.73 2442.4,4517.88C2441.87,4518.03 2441.26,4518.11 2440.57,4518.11C2439.89,4518.11 2439.32,4518.05 2438.88,4517.93C2438.43,4517.81 2438.03,4517.66 2437.67,4517.49L2438.13,4516.17C2438.43,4516.35 2438.8,4516.48 2439.24,4516.57C2439.67,4516.66 2440.14,4516.71 2440.65,4516.71C2441.46,4516.71 2442.08,4516.57 2442.51,4516.29C2442.93,4516.01 2443.15,4515.59 2443.15,4515.01C2443.15,4514.53 2442.95,4514.15 2442.55,4513.88C2442.15,4513.61 2441.49,4513.47 2440.57,4513.47L2439.41,4513.47Z" style="fill-rule:nonzero;stroke:black;stroke-width:0.99px;stroke-linejoin:round;stroke-miterlimit:2;"/>
                <path d="M2447.11,4508.67C2447.61,4508.36 2448.2,4508.14 2448.88,4507.99C2449.55,4507.85 2450.25,4507.77 2450.99,4507.77C2451.68,4507.77 2452.24,4507.86 2452.66,4508.05C2453.08,4508.24 2453.4,4508.48 2453.62,4508.78C2453.84,4509.08 2453.98,4509.41 2454.06,4509.77C2454.13,4510.13 2454.17,4510.49 2454.17,4510.85C2454.17,4511.65 2454.15,4512.43 2454.11,4513.19C2454.07,4513.95 2454.05,4514.67 2454.05,4515.35C2454.05,4515.85 2454.07,4516.31 2454.11,4516.75C2454.15,4517.19 2454.22,4517.6 2454.33,4517.97L2453.15,4517.97L2452.73,4516.57L2452.63,4516.57C2452.51,4516.76 2452.36,4516.94 2452.18,4517.12C2452,4517.3 2451.78,4517.46 2451.53,4517.6C2451.27,4517.74 2450.98,4517.86 2450.65,4517.95C2450.31,4518.05 2449.93,4518.09 2449.51,4518.09C2449.08,4518.09 2448.68,4518.03 2448.32,4517.89C2447.95,4517.76 2447.63,4517.57 2447.37,4517.32C2447.1,4517.07 2446.89,4516.78 2446.74,4516.43C2446.58,4516.09 2446.51,4515.69 2446.51,4515.25C2446.51,4514.66 2446.63,4514.18 2446.87,4513.78C2447.11,4513.39 2447.44,4513.07 2447.88,4512.84C2448.31,4512.61 2448.83,4512.44 2449.44,4512.34C2450.04,4512.24 2450.71,4512.19 2451.45,4512.19L2452,4512.19C2452.18,4512.19 2452.36,4512.2 2452.55,4512.23C2452.59,4511.83 2452.61,4511.47 2452.61,4511.15C2452.61,4510.42 2452.46,4509.9 2452.17,4509.61C2451.87,4509.32 2451.34,4509.17 2450.57,4509.17C2450.34,4509.17 2450.1,4509.19 2449.84,4509.22C2449.58,4509.26 2449.31,4509.3 2449.04,4509.36C2448.76,4509.42 2448.5,4509.49 2448.26,4509.58C2448.01,4509.67 2447.79,4509.77 2447.61,4509.87L2447.11,4508.67ZM2449.95,4516.69C2450.32,4516.69 2450.65,4516.64 2450.95,4516.54C2451.24,4516.44 2451.49,4516.32 2451.71,4516.16C2451.92,4516.01 2452.1,4515.84 2452.24,4515.65C2452.38,4515.47 2452.48,4515.28 2452.55,4515.11L2452.55,4513.45C2452.36,4513.44 2452.17,4513.43 2451.98,4513.42C2451.78,4513.41 2451.59,4513.41 2451.41,4513.41C2450.99,4513.41 2450.59,4513.44 2450.2,4513.48C2449.8,4513.53 2449.46,4513.61 2449.16,4513.74C2448.86,4513.87 2448.62,4514.04 2448.44,4514.26C2448.26,4514.48 2448.17,4514.76 2448.17,4515.09C2448.17,4515.56 2448.33,4515.94 2448.67,4516.24C2449,4516.54 2449.43,4516.69 2449.95,4516.69Z" style="fill-rule:nonzero;stroke:black;stroke-width:0.99px;stroke-linejoin:round;stroke-miterlimit:2;"/>
                <path d="M2457.19,4507.95C2457.65,4507.93 2458.14,4507.89 2458.66,4507.85C2459.17,4507.81 2459.81,4507.79 2460.57,4507.79C2461.89,4507.79 2462.83,4507.99 2463.41,4508.4C2463.98,4508.81 2464.27,4509.43 2464.27,4510.25C2464.27,4510.72 2464.13,4511.18 2463.86,4511.62C2463.58,4512.07 2463.13,4512.4 2462.51,4512.61L2462.51,4512.69C2463.29,4512.84 2463.85,4513.11 2464.17,4513.51C2464.49,4513.91 2464.65,4514.44 2464.65,4515.11C2464.65,4516.15 2464.27,4516.9 2463.53,4517.37C2462.78,4517.84 2461.66,4518.07 2460.17,4518.07C2459.61,4518.07 2459.09,4518.06 2458.61,4518.02C2458.13,4517.99 2457.65,4517.95 2457.19,4517.91L2457.19,4507.95ZM2458.79,4516.59C2459.04,4516.62 2459.29,4516.64 2459.54,4516.65C2459.78,4516.66 2460.07,4516.67 2460.41,4516.67C2461.3,4516.67 2461.96,4516.55 2462.4,4516.29C2462.83,4516.04 2463.05,4515.61 2463.05,4514.99C2463.05,4514.51 2462.86,4514.12 2462.5,4513.82C2462.13,4513.52 2461.48,4513.37 2460.55,4513.37L2458.79,4513.37L2458.79,4516.59ZM2460.75,4512.15C2460.99,4512.15 2461.22,4512.11 2461.45,4512.03C2461.67,4511.95 2461.88,4511.84 2462.06,4511.7C2462.24,4511.56 2462.38,4511.4 2462.5,4511.21C2462.61,4511.03 2462.67,4510.82 2462.67,4510.61C2462.67,4510.08 2462.51,4509.71 2462.19,4509.5C2461.87,4509.3 2461.31,4509.19 2460.51,4509.19C2460.08,4509.19 2459.74,4509.2 2459.5,4509.21C2459.25,4509.23 2459.01,4509.24 2458.79,4509.25L2458.79,4512.15L2460.75,4512.15Z" style="fill-rule:nonzero;stroke:black;stroke-width:0.99px;stroke-linejoin:round;stroke-miterlimit:2;"/>
                <path d="M2466.61,4512.93C2466.61,4511.24 2466.98,4509.94 2467.74,4509.04C2468.49,4508.14 2469.57,4507.69 2470.99,4507.69C2471.73,4507.69 2472.38,4507.82 2472.94,4508.06C2473.49,4508.31 2473.95,4508.66 2474.31,4509.12C2474.67,4509.58 2474.93,4510.14 2475.11,4510.78C2475.28,4511.43 2475.37,4512.15 2475.37,4512.93C2475.37,4514.62 2474.99,4515.92 2474.24,4516.82C2473.48,4517.72 2472.4,4518.17 2470.99,4518.17C2470.24,4518.17 2469.59,4518.05 2469.04,4517.8C2468.48,4517.56 2468.03,4517.2 2467.67,4516.74C2467.31,4516.28 2467.04,4515.73 2466.87,4515.08C2466.69,4514.44 2466.61,4513.72 2466.61,4512.93ZM2468.27,4512.93C2468.27,4513.44 2468.32,4513.93 2468.42,4514.39C2468.52,4514.86 2468.67,4515.27 2468.89,4515.61C2469.1,4515.96 2469.38,4516.24 2469.73,4516.45C2470.07,4516.66 2470.49,4516.77 2470.99,4516.77C2472.8,4516.78 2473.71,4515.51 2473.71,4512.93C2473.71,4512.41 2473.66,4511.92 2473.56,4511.45C2473.46,4510.98 2473.3,4510.58 2473.09,4510.23C2472.87,4509.89 2472.59,4509.61 2472.25,4509.4C2471.9,4509.19 2471.48,4509.09 2470.99,4509.09C2469.17,4509.08 2468.27,4510.36 2468.27,4512.93Z" style="fill-rule:nonzero;stroke:black;stroke-width:0.99px;stroke-linejoin:round;stroke-miterlimit:2;"/>
                <path d="M2486.73,4520.47L2485.65,4520.47L2485.35,4517.93L2477.83,4517.93L2477.53,4520.47L2476.45,4520.47L2476.45,4516.53L2477.63,4516.53C2477.73,4516.39 2477.87,4516.12 2478.05,4515.74C2478.22,4515.36 2478.39,4514.83 2478.56,4514.14C2478.72,4513.45 2478.87,4512.6 2479,4511.58C2479.12,4510.56 2479.2,4509.35 2479.23,4507.93L2485.27,4507.93L2485.27,4516.53L2486.73,4516.53L2486.73,4520.47ZM2483.67,4516.53L2483.67,4509.33L2480.67,4509.33C2480.64,4509.89 2480.59,4510.5 2480.53,4511.16C2480.46,4511.82 2480.37,4512.48 2480.26,4513.14C2480.14,4513.8 2480,4514.43 2479.83,4515.01C2479.65,4515.6 2479.45,4516.11 2479.23,4516.53L2483.67,4516.53Z" style="fill-rule:nonzero;stroke:black;stroke-width:0.99px;stroke-linejoin:round;stroke-miterlimit:2;"/>
            </g>
            <g transform="matrix(0.97613,-0.263572,0.260682,0.965425,-1114.65,740.338)">
                <path d="M2444.08,4509.33L2439.84,4509.33L2439.84,4517.93L2438.24,4517.93L2438.24,4507.93L2444.08,4507.93L2444.08,4509.33Z" style="fill-rule:nonzero;stroke:black;stroke-width:0.99px;stroke-linejoin:round;stroke-miterlimit:2;"/>
                <path d="M2445.06,4512.93C2445.06,4511.24 2445.44,4509.94 2446.19,4509.04C2446.95,4508.14 2448.03,4507.69 2449.44,4507.69C2450.19,4507.69 2450.84,4507.82 2451.39,4508.06C2451.95,4508.31 2452.4,4508.66 2452.76,4509.12C2453.12,4509.58 2453.39,4510.14 2453.56,4510.78C2453.74,4511.43 2453.82,4512.15 2453.82,4512.93C2453.82,4514.62 2453.45,4515.92 2452.69,4516.82C2451.94,4517.72 2450.86,4518.17 2449.44,4518.17C2448.7,4518.17 2448.05,4518.05 2447.49,4517.8C2446.94,4517.56 2446.48,4517.2 2446.12,4516.74C2445.76,4516.28 2445.5,4515.73 2445.32,4515.08C2445.15,4514.44 2445.06,4513.72 2445.06,4512.93ZM2446.72,4512.93C2446.72,4513.44 2446.77,4513.93 2446.87,4514.39C2446.97,4514.86 2447.13,4515.27 2447.34,4515.61C2447.56,4515.96 2447.84,4516.24 2448.18,4516.45C2448.53,4516.66 2448.95,4516.77 2449.44,4516.77C2451.26,4516.78 2452.16,4515.51 2452.16,4512.93C2452.16,4512.41 2452.11,4511.92 2452.01,4511.45C2451.91,4510.98 2451.76,4510.58 2451.54,4510.23C2451.33,4509.89 2451.05,4509.61 2450.7,4509.4C2450.36,4509.19 2449.94,4509.09 2449.44,4509.09C2447.63,4509.08 2446.72,4510.36 2446.72,4512.93Z" style="fill-rule:nonzero;stroke:black;stroke-width:0.99px;stroke-linejoin:round;stroke-miterlimit:2;"/>
                <path d="M2456.34,4507.93L2457.44,4507.93L2457.74,4509.13L2457.82,4509.13C2458.13,4508.66 2458.53,4508.31 2459.01,4508.06C2459.5,4507.82 2460.06,4507.69 2460.68,4507.69C2462.02,4507.69 2463.01,4508.09 2463.66,4508.87C2464.32,4509.66 2464.64,4510.94 2464.64,4512.73C2464.64,4513.57 2464.53,4514.33 2464.31,4515C2464.09,4515.68 2463.78,4516.24 2463.38,4516.71C2462.98,4517.18 2462.5,4517.54 2461.93,4517.79C2461.37,4518.05 2460.74,4518.17 2460.04,4518.17C2459.55,4518.17 2459.16,4518.14 2458.87,4518.08C2458.59,4518.02 2458.28,4517.92 2457.94,4517.77L2457.94,4521.93L2456.34,4521.93L2456.34,4507.93ZM2460.38,4509.09C2459.7,4509.09 2459.17,4509.27 2458.77,4509.62C2458.38,4509.98 2458.1,4510.51 2457.94,4511.23L2457.94,4516.19C2458.18,4516.38 2458.46,4516.52 2458.76,4516.62C2459.07,4516.72 2459.48,4516.77 2459.98,4516.77C2460.9,4516.77 2461.63,4516.43 2462.17,4515.74C2462.71,4515.06 2462.98,4514.05 2462.98,4512.71C2462.98,4512.16 2462.94,4511.67 2462.84,4511.22C2462.75,4510.78 2462.6,4510.4 2462.39,4510.08C2462.19,4509.77 2461.92,4509.53 2461.59,4509.35C2461.27,4509.18 2460.86,4509.09 2460.38,4509.09Z" style="fill-rule:nonzero;stroke:black;stroke-width:0.99px;stroke-linejoin:round;stroke-miterlimit:2;"/>
                <path d="M2466.6,4512.93C2466.6,4511.24 2466.98,4509.94 2467.73,4509.04C2468.49,4508.14 2469.57,4507.69 2470.98,4507.69C2471.73,4507.69 2472.38,4507.82 2472.93,4508.06C2473.49,4508.31 2473.94,4508.66 2474.3,4509.12C2474.66,4509.58 2474.93,4510.14 2475.1,4510.78C2475.28,4511.43 2475.36,4512.15 2475.36,4512.93C2475.36,4514.62 2474.99,4515.92 2474.23,4516.82C2473.48,4517.72 2472.4,4518.17 2470.98,4518.17C2470.24,4518.17 2469.59,4518.05 2469.03,4517.8C2468.48,4517.56 2468.02,4517.2 2467.66,4516.74C2467.3,4516.28 2467.04,4515.73 2466.86,4515.08C2466.69,4514.44 2466.6,4513.72 2466.6,4512.93ZM2468.26,4512.93C2468.26,4513.44 2468.31,4513.93 2468.41,4514.39C2468.51,4514.86 2468.67,4515.27 2468.88,4515.61C2469.1,4515.96 2469.38,4516.24 2469.72,4516.45C2470.07,4516.66 2470.49,4516.77 2470.98,4516.77C2472.8,4516.78 2473.7,4515.51 2473.7,4512.93C2473.7,4512.41 2473.65,4511.92 2473.55,4511.45C2473.45,4510.98 2473.3,4510.58 2473.08,4510.23C2472.87,4509.89 2472.59,4509.61 2472.24,4509.4C2471.9,4509.19 2471.48,4509.09 2470.98,4509.09C2469.17,4509.08 2468.26,4510.36 2468.26,4512.93Z" style="fill-rule:nonzero;stroke:black;stroke-width:0.99px;stroke-linejoin:round;stroke-miterlimit:2;"/>
                <path d="M2486.72,4520.47L2485.64,4520.47L2485.34,4517.93L2477.82,4517.93L2477.52,4520.47L2476.44,4520.47L2476.44,4516.53L2477.62,4516.53C2477.73,4516.39 2477.87,4516.12 2478.04,4515.74C2478.22,4515.36 2478.39,4514.83 2478.55,4514.14C2478.72,4513.45 2478.87,4512.6 2478.99,4511.58C2479.12,4510.56 2479.2,4509.35 2479.22,4507.93L2485.26,4507.93L2485.26,4516.53L2486.72,4516.53L2486.72,4520.47ZM2483.66,4516.53L2483.66,4509.33L2480.66,4509.33C2480.64,4509.89 2480.59,4510.5 2480.52,4511.16C2480.46,4511.82 2480.37,4512.48 2480.25,4513.14C2480.14,4513.8 2480,4514.43 2479.82,4515.01C2479.65,4515.6 2479.45,4516.11 2479.22,4516.53L2483.66,4516.53Z" style="fill-rule:nonzero;stroke:black;stroke-width:0.99px;stroke-linejoin:round;stroke-miterlimit:2;"/>
            </g>
            <g transform="matrix(1,0,0,1,200.313,0)">
                <rect x="2258" y="4386.77" width="99.429" height="99.429" style="fill:white;fill-opacity:0.64;stroke:rgb(255,0,0);stroke-width:3px;stroke-linejoin:round;"/>
            </g>
            <g transform="matrix(1,0,0,1,101,99.4286)">
                <rect x="2258" y="4386.77" width="99.429" height="99.429" style="fill:white;fill-opacity:0.64;stroke:rgb(255,0,0);stroke-width:3px;stroke-linejoin:round;"/>
            </g>
            <g transform="matrix(1,0,0,1,200.313,99.4286)">
                <rect x="2258" y="4386.77" width="99.429" height="99.429" style="fill:white;fill-opacity:0.64;stroke:rgb(255,0,0);stroke-width:3px;stroke-linejoin:round;"/>
            </g>
            <g transform="matrix(1,0,0,1,101,0)">
                <rect x="2258" y="4386.77" width="99.429" height="99.429" style="fill:none;stroke:rgb(255,0,0);stroke-width:6px;stroke-linejoin:round;"/>
            </g>
            <g transform="matrix(1,0,0,1,0,-4)">
                <path d="M2339.81,4440.2L2359,4440.2" style="fill:none;stroke:rgb(255,0,0);stroke-width:2px;stroke-linejoin:round;"/>
            </g>
            <g transform="matrix(1,0,0,1,9,-50)">
                <g transform="matrix(0.711107,0,0,0.711107,664.247,1322.35)">
                    <circle cx="2303.81" cy="4449.19" r="39.807" style="fill:white;stroke:black;stroke-width:2.81px;stroke-linejoin:round;"/>
                </g>
                <path d="M2302.5,4457.89L2302.5,4486.2L2282.45,4506.18L2288.37,4510.73L2293.93,4513.19L2302.5,4514.51L2308.98,4513.76L2316.23,4510.95L2322.51,4506.22L2326.7,4500.89L2329.5,4494.72L2330.81,4486.2L2330.15,4480.1L2327.99,4473.89L2324.92,4468.93L2320.63,4464.46L2315.94,4461.29L2309.64,4458.8L2302.5,4457.89Z" style="fill:rgb(150,255,21);stroke:black;stroke-width:2px;stroke-linejoin:round;"/>
                <path d="M2282.45,4506.18L2302.5,4486.2L2275.93,4476.43C2272.22,4488.74 2274.53,4498.61 2282.45,4506.18Z" style="fill:rgb(169,169,169);stroke:black;stroke-width:2px;stroke-linejoin:round;"/>
                <path d="M2302.5,4486.2L2275.93,4476.43C2277.79,4468.93 2286.7,4461.61 2292.97,4459.54L2302.5,4486.2Z" style="fill:rgb(255,140,25);stroke:black;stroke-width:2px;stroke-linejoin:round;"/>
                <path d="M2302.5,4486.2L2302.5,4457.89C2301.02,4457.65 2293.53,4458.87 2292.97,4459.54L2302.5,4486.2Z" style="fill:rgb(45,231,231);stroke:black;stroke-width:2px;stroke-linejoin:round;"/>
            </g>
        </g>
    </g>
</svg>
