<?xml version="1.0" encoding="UTF-8" standalone="no"?>
<!DOCTYPE svg PUBLIC "-//W3C//DTD SVG 1.1//EN" "http://www.w3.org/Graphics/SVG/1.1/DTD/svg11.dtd">
<svg width="100%" height="100%" viewBox="0 0 977 795" version="1.1" xmlns="http://www.w3.org/2000/svg" xmlns:xlink="http://www.w3.org/1999/xlink" xml:space="preserve" xmlns:serif="http://www.serif.com/" style="fill-rule:evenodd;clip-rule:evenodd;stroke-linecap:round;stroke-linejoin:round;stroke-miterlimit:1.5;">
    <g transform="matrix(1,0,0,1,-1190,-6183)">
        <rect id="Resampling" x="0" y="6042" width="2985" height="2039" style="fill:none;"/>
        <g id="Resampling1" serif:id="Resampling">
            <g transform="matrix(0.41897,0,0,0.41897,1290.19,6883.01)">
                <circle cx="207.5" cy="164.5" r="18.5" style="stroke:white;stroke-width:1.15px;"/>
            </g>
            <g transform="matrix(0.48,0,0,0.48,917.646,6157.16)">
                <g transform="matrix(83.3333,0,0,83.3333,1003.14,1677.54)">
                    <path d="M0.513,-0.474L0.519,-0.554L0.515,-0.554L0.472,-0.472L0.134,-0L0.085,-0L0.085,-0.7L0.168,-0.7L0.168,-0.22L0.161,-0.141L0.165,-0.141L0.209,-0.223L0.547,-0.7L0.596,-0.7L0.596,-0L0.513,-0L0.513,-0.474Z" style="fill-rule:nonzero;"/>
                </g>
                <g transform="matrix(83.3333,0,0,83.3333,1059.89,1677.54)">
                    <path d="M0.418,-0.033C0.398,-0.018 0.374,-0.007 0.347,0.001C0.32,0.008 0.291,0.012 0.261,0.012C0.222,0.012 0.19,0.006 0.163,-0.007C0.136,-0.019 0.115,-0.037 0.098,-0.06C0.081,-0.083 0.068,-0.11 0.061,-0.143C0.053,-0.175 0.049,-0.211 0.049,-0.25C0.049,-0.335 0.068,-0.4 0.105,-0.445C0.142,-0.49 0.196,-0.512 0.266,-0.512C0.298,-0.512 0.325,-0.51 0.348,-0.505C0.37,-0.5 0.39,-0.492 0.408,-0.483L0.385,-0.414C0.37,-0.423 0.353,-0.43 0.334,-0.435C0.315,-0.44 0.295,-0.442 0.274,-0.442C0.179,-0.442 0.132,-0.378 0.132,-0.25C0.132,-0.225 0.135,-0.2 0.14,-0.178C0.145,-0.155 0.153,-0.134 0.165,-0.117C0.176,-0.099 0.192,-0.085 0.211,-0.074C0.23,-0.063 0.253,-0.058 0.281,-0.058C0.305,-0.058 0.327,-0.062 0.346,-0.069C0.365,-0.076 0.38,-0.085 0.392,-0.094L0.418,-0.033Z" style="fill-rule:nonzero;"/>
                </g>
                <g transform="matrix(83.3333,0,0,83.3333,1096.14,1677.54)">
                    <path d="M0.208,-0.256L0.04,-0.5L0.138,-0.5L0.233,-0.362L0.261,-0.305L0.29,-0.362L0.387,-0.5L0.477,-0.5L0.308,-0.26L0.487,-0L0.392,-0L0.286,-0.152L0.256,-0.212L0.225,-0.152L0.117,-0L0.028,-0L0.208,-0.256Z" style="fill-rule:nonzero;"/>
                </g>
                <g transform="matrix(83.3333,0,0,83.3333,1137.22,1677.54)">
                    <path d="M0.049,-0.25C0.049,-0.335 0.068,-0.4 0.106,-0.445C0.143,-0.49 0.197,-0.512 0.268,-0.512C0.305,-0.512 0.338,-0.506 0.366,-0.494C0.393,-0.481 0.416,-0.464 0.434,-0.441C0.452,-0.418 0.465,-0.39 0.474,-0.358C0.483,-0.325 0.487,-0.289 0.487,-0.25C0.487,-0.165 0.468,-0.1 0.431,-0.056C0.393,-0.011 0.339,0.012 0.268,0.012C0.231,0.012 0.198,0.006 0.171,-0.007C0.143,-0.019 0.12,-0.037 0.102,-0.06C0.084,-0.083 0.071,-0.11 0.062,-0.143C0.053,-0.175 0.049,-0.211 0.049,-0.25ZM0.132,-0.25C0.132,-0.225 0.135,-0.2 0.14,-0.177C0.145,-0.154 0.152,-0.133 0.163,-0.116C0.174,-0.099 0.188,-0.085 0.205,-0.074C0.222,-0.063 0.243,-0.058 0.268,-0.058C0.359,-0.057 0.404,-0.121 0.404,-0.25C0.404,-0.276 0.402,-0.301 0.397,-0.324C0.392,-0.347 0.384,-0.368 0.373,-0.385C0.362,-0.402 0.348,-0.416 0.331,-0.427C0.314,-0.437 0.293,-0.442 0.268,-0.442C0.177,-0.443 0.132,-0.379 0.132,-0.25Z" style="fill-rule:nonzero;"/>
                </g>
                <g transform="matrix(83.3333,0,0,83.3333,1181.39,1677.54)">
                    <path d="M0.519,0.127L0.465,0.127L0.45,-0L0.074,-0L0.059,0.127L0.005,0.127L0.005,-0.07L0.064,-0.07C0.069,-0.077 0.076,-0.091 0.085,-0.11C0.094,-0.129 0.102,-0.155 0.111,-0.19C0.119,-0.224 0.126,-0.267 0.133,-0.318C0.139,-0.369 0.143,-0.429 0.144,-0.5L0.446,-0.5L0.446,-0.07L0.519,-0.07L0.519,0.127ZM0.366,-0.07L0.366,-0.43L0.216,-0.43C0.215,-0.402 0.212,-0.372 0.209,-0.339C0.206,-0.306 0.201,-0.273 0.196,-0.24C0.19,-0.207 0.183,-0.175 0.174,-0.146C0.165,-0.117 0.155,-0.091 0.144,-0.07L0.366,-0.07Z" style="fill-rule:nonzero;"/>
                </g>
                <g transform="matrix(83.3333,0,0,83.3333,1226.47,1677.54)">
                    <path d="M0.383,-0.221L0.157,-0.221L0.157,-0L0.077,-0L0.077,-0.5L0.157,-0.5L0.157,-0.291L0.383,-0.291L0.383,-0.5L0.463,-0.5L0.463,-0L0.383,-0L0.383,-0.221Z" style="fill-rule:nonzero;"/>
                </g>
                <g transform="matrix(83.3333,0,0,83.3333,1271.47,1677.54)">
                    <path d="M0.157,-0.07C0.182,-0.066 0.205,-0.064 0.228,-0.064C0.27,-0.064 0.299,-0.072 0.316,-0.089C0.333,-0.105 0.341,-0.128 0.341,-0.158C0.341,-0.185 0.333,-0.207 0.317,-0.224C0.3,-0.241 0.272,-0.25 0.231,-0.25C0.22,-0.25 0.207,-0.25 0.194,-0.249C0.181,-0.248 0.168,-0.246 0.157,-0.243L0.157,-0.07ZM0.157,-0.309C0.173,-0.312 0.188,-0.314 0.203,-0.315C0.218,-0.316 0.232,-0.316 0.245,-0.316C0.279,-0.316 0.308,-0.312 0.331,-0.305C0.354,-0.297 0.372,-0.286 0.386,-0.273C0.4,-0.26 0.41,-0.244 0.416,-0.226C0.421,-0.207 0.424,-0.188 0.424,-0.167C0.424,-0.106 0.407,-0.062 0.374,-0.035C0.34,-0.008 0.285,0.006 0.21,0.006C0.167,0.006 0.123,0.004 0.077,-0L0.077,-0.5L0.157,-0.5L0.157,-0.309ZM0.503,-0.5L0.583,-0.5L0.583,-0L0.503,-0L0.503,-0.5Z" style="fill-rule:nonzero;"/>
                </g>
                <g transform="matrix(83.3333,0,0,83.3333,1326.47,1677.54)">
                    <path d="M0.442,-0.04C0.422,-0.024 0.397,-0.011 0.367,-0.002C0.336,0.007 0.304,0.012 0.27,0.012C0.232,0.012 0.199,0.006 0.171,-0.007C0.143,-0.019 0.12,-0.037 0.102,-0.06C0.084,-0.083 0.071,-0.11 0.062,-0.142C0.053,-0.174 0.049,-0.21 0.049,-0.25C0.049,-0.335 0.068,-0.4 0.106,-0.445C0.144,-0.49 0.198,-0.512 0.269,-0.512C0.292,-0.512 0.314,-0.51 0.337,-0.505C0.36,-0.5 0.38,-0.49 0.398,-0.476C0.416,-0.462 0.431,-0.442 0.442,-0.417C0.453,-0.391 0.459,-0.357 0.459,-0.315C0.459,-0.293 0.457,-0.269 0.453,-0.242L0.132,-0.242C0.132,-0.213 0.135,-0.187 0.141,-0.164C0.147,-0.141 0.156,-0.122 0.169,-0.107C0.182,-0.091 0.198,-0.079 0.219,-0.071C0.239,-0.062 0.264,-0.058 0.293,-0.058C0.316,-0.058 0.338,-0.062 0.361,-0.07C0.384,-0.078 0.401,-0.087 0.412,-0.098L0.442,-0.04ZM0.27,-0.442C0.231,-0.442 0.199,-0.432 0.176,-0.411C0.152,-0.39 0.138,-0.355 0.133,-0.305L0.381,-0.305C0.381,-0.356 0.371,-0.391 0.352,-0.412C0.333,-0.432 0.305,-0.442 0.27,-0.442Z" style="fill-rule:nonzero;"/>
                </g>
                <g transform="matrix(83.3333,0,0,83.3333,1391.05,1677.54)">
                    <path d="M0.224,-0.176L0.252,-0.08L0.257,-0.08L0.279,-0.177L0.376,-0.5L0.457,-0.5L0.309,-0.051C0.298,-0.018 0.286,0.013 0.276,0.044C0.265,0.075 0.252,0.102 0.239,0.126C0.226,0.15 0.211,0.169 0.194,0.184C0.177,0.198 0.158,0.205 0.136,0.205C0.112,0.205 0.092,0.202 0.077,0.195L0.091,0.126C0.1,0.129 0.108,0.131 0.116,0.131C0.135,0.131 0.153,0.121 0.17,0.102C0.187,0.082 0.202,0.048 0.213,-0L0.012,-0.5L0.104,-0.5L0.224,-0.176Z" style="fill-rule:nonzero;"/>
                </g>
                <g transform="matrix(83.3333,0,0,83.3333,1429.89,1677.54)">
                    <path d="M0.125,-0.223L0.125,-0.288L0.195,-0.288C0.207,-0.288 0.219,-0.29 0.231,-0.294C0.242,-0.298 0.253,-0.304 0.262,-0.311C0.271,-0.318 0.279,-0.326 0.285,-0.336C0.29,-0.345 0.293,-0.355 0.293,-0.366C0.293,-0.392 0.284,-0.41 0.266,-0.421C0.248,-0.432 0.221,-0.437 0.185,-0.437C0.159,-0.437 0.135,-0.433 0.114,-0.425C0.092,-0.417 0.075,-0.409 0.063,-0.402L0.04,-0.464C0.06,-0.475 0.084,-0.485 0.111,-0.494C0.137,-0.503 0.17,-0.507 0.207,-0.507C0.318,-0.507 0.373,-0.466 0.373,-0.384C0.373,-0.361 0.366,-0.338 0.351,-0.316C0.335,-0.293 0.314,-0.277 0.286,-0.268L0.286,-0.264C0.325,-0.257 0.353,-0.243 0.369,-0.222C0.384,-0.201 0.392,-0.174 0.392,-0.14C0.392,-0.119 0.388,-0.099 0.379,-0.081C0.37,-0.063 0.357,-0.047 0.34,-0.034C0.323,-0.021 0.301,-0.01 0.275,-0.003C0.248,0.005 0.218,0.009 0.183,0.009C0.149,0.009 0.121,0.006 0.099,-0C0.076,-0.006 0.056,-0.013 0.038,-0.022L0.061,-0.088C0.076,-0.079 0.095,-0.073 0.117,-0.068C0.138,-0.063 0.162,-0.061 0.187,-0.061C0.228,-0.061 0.259,-0.068 0.28,-0.082C0.301,-0.096 0.312,-0.117 0.312,-0.146C0.312,-0.17 0.302,-0.189 0.282,-0.203C0.262,-0.216 0.229,-0.223 0.183,-0.223L0.125,-0.223Z" style="fill-rule:nonzero;"/>
                </g>
                <g transform="matrix(83.3333,0,0,83.3333,1466.64,1677.54)">
                    <path d="M0.346,-0.43L0.201,-0.43C0.199,-0.402 0.197,-0.372 0.195,-0.34C0.193,-0.307 0.19,-0.275 0.186,-0.243C0.182,-0.21 0.177,-0.179 0.17,-0.15C0.163,-0.12 0.155,-0.094 0.145,-0.071C0.134,-0.048 0.122,-0.03 0.107,-0.017C0.092,-0.003 0.074,0.004 0.053,0.004C0.04,0.004 0.029,0.003 0.02,0.002C0.011,0.001 0.002,-0.002 -0.005,-0.005L0.007,-0.072C0.015,-0.069 0.024,-0.068 0.033,-0.068C0.046,-0.068 0.058,-0.074 0.069,-0.085C0.08,-0.096 0.089,-0.118 0.097,-0.15C0.105,-0.181 0.112,-0.225 0.117,-0.281C0.122,-0.337 0.126,-0.41 0.128,-0.5L0.426,-0.5L0.426,-0L0.346,-0L0.346,-0.43Z" style="fill-rule:nonzero;"/>
                </g>
                <g transform="matrix(83.3333,0,0,83.3333,1508.55,1677.54)">
                    <path d="M0.157,-0.07C0.182,-0.066 0.205,-0.064 0.228,-0.064C0.27,-0.064 0.299,-0.072 0.316,-0.089C0.333,-0.105 0.341,-0.128 0.341,-0.158C0.341,-0.185 0.333,-0.207 0.317,-0.224C0.3,-0.241 0.272,-0.25 0.231,-0.25C0.22,-0.25 0.207,-0.25 0.194,-0.249C0.181,-0.248 0.168,-0.246 0.157,-0.243L0.157,-0.07ZM0.157,-0.309C0.173,-0.312 0.188,-0.314 0.203,-0.315C0.218,-0.316 0.232,-0.316 0.245,-0.316C0.279,-0.316 0.308,-0.312 0.331,-0.305C0.354,-0.297 0.372,-0.286 0.386,-0.273C0.4,-0.26 0.41,-0.244 0.416,-0.226C0.421,-0.207 0.424,-0.188 0.424,-0.167C0.424,-0.106 0.407,-0.062 0.374,-0.035C0.34,-0.008 0.285,0.006 0.21,0.006C0.167,0.006 0.123,0.004 0.077,-0L0.077,-0.5L0.157,-0.5L0.157,-0.309ZM0.503,-0.5L0.583,-0.5L0.583,-0L0.503,-0L0.503,-0.5Z" style="fill-rule:nonzero;"/>
                </g>
            </g>
            <g transform="matrix(0.48,0,0,0.48,1275.27,6157.16)">
                <g transform="matrix(83.3333,0,0,83.3333,1003.14,1677.54)">
                    <path d="M0.504,-0.321L0.168,-0.321L0.168,-0L0.085,-0L0.085,-0.7L0.168,-0.7L0.168,-0.395L0.504,-0.395L0.504,-0.7L0.587,-0.7L0.587,-0L0.504,-0L0.504,-0.321Z" style="fill-rule:nonzero;"/>
                </g>
                <g transform="matrix(83.3333,0,0,83.3333,1059.14,1677.54)">
                    <path d="M0.049,-0.25C0.049,-0.335 0.068,-0.4 0.106,-0.445C0.143,-0.49 0.197,-0.512 0.268,-0.512C0.305,-0.512 0.338,-0.506 0.366,-0.494C0.393,-0.481 0.416,-0.464 0.434,-0.441C0.452,-0.418 0.465,-0.39 0.474,-0.358C0.483,-0.325 0.487,-0.289 0.487,-0.25C0.487,-0.165 0.468,-0.1 0.431,-0.056C0.393,-0.011 0.339,0.012 0.268,0.012C0.231,0.012 0.198,0.006 0.171,-0.007C0.143,-0.019 0.12,-0.037 0.102,-0.06C0.084,-0.083 0.071,-0.11 0.062,-0.143C0.053,-0.175 0.049,-0.211 0.049,-0.25ZM0.132,-0.25C0.132,-0.225 0.135,-0.2 0.14,-0.177C0.145,-0.154 0.152,-0.133 0.163,-0.116C0.174,-0.099 0.188,-0.085 0.205,-0.074C0.222,-0.063 0.243,-0.058 0.268,-0.058C0.359,-0.057 0.404,-0.121 0.404,-0.25C0.404,-0.276 0.402,-0.301 0.397,-0.324C0.392,-0.347 0.384,-0.368 0.373,-0.385C0.362,-0.402 0.348,-0.416 0.331,-0.427C0.314,-0.437 0.293,-0.442 0.268,-0.442C0.177,-0.443 0.132,-0.379 0.132,-0.25Z" style="fill-rule:nonzero;"/>
                </g>
                <g transform="matrix(83.3333,0,0,83.3333,1103.8,1677.54)">
                    <path d="M0.077,-0.499C0.1,-0.5 0.125,-0.502 0.151,-0.504C0.176,-0.506 0.208,-0.507 0.246,-0.507C0.312,-0.507 0.359,-0.497 0.388,-0.477C0.417,-0.456 0.431,-0.425 0.431,-0.384C0.431,-0.361 0.424,-0.338 0.411,-0.316C0.397,-0.293 0.374,-0.277 0.343,-0.266L0.343,-0.262C0.382,-0.255 0.41,-0.241 0.426,-0.221C0.442,-0.201 0.45,-0.174 0.45,-0.141C0.45,-0.089 0.431,-0.051 0.394,-0.028C0.357,-0.005 0.301,0.007 0.226,0.007C0.198,0.007 0.172,0.006 0.148,0.005C0.124,0.003 0.1,0.001 0.077,-0.001L0.077,-0.499ZM0.157,-0.067C0.17,-0.066 0.182,-0.065 0.195,-0.064C0.207,-0.063 0.221,-0.063 0.238,-0.063C0.283,-0.063 0.316,-0.069 0.338,-0.082C0.359,-0.095 0.37,-0.116 0.37,-0.147C0.37,-0.171 0.361,-0.191 0.343,-0.206C0.324,-0.221 0.292,-0.228 0.245,-0.228L0.157,-0.228L0.157,-0.067ZM0.255,-0.289C0.267,-0.289 0.279,-0.291 0.29,-0.295C0.301,-0.299 0.312,-0.305 0.321,-0.312C0.33,-0.319 0.337,-0.327 0.343,-0.336C0.348,-0.345 0.351,-0.355 0.351,-0.366C0.351,-0.393 0.343,-0.411 0.327,-0.422C0.311,-0.432 0.283,-0.437 0.243,-0.437C0.222,-0.437 0.205,-0.437 0.193,-0.436C0.18,-0.435 0.168,-0.435 0.157,-0.434L0.157,-0.289L0.255,-0.289Z" style="fill-rule:nonzero;"/>
                </g>
                <g transform="matrix(83.3333,0,0,83.3333,1145.39,1677.54)">
                    <path d="M0.157,-0.07C0.182,-0.066 0.205,-0.064 0.228,-0.064C0.27,-0.064 0.299,-0.072 0.316,-0.089C0.333,-0.105 0.341,-0.128 0.341,-0.158C0.341,-0.185 0.333,-0.207 0.317,-0.224C0.3,-0.241 0.272,-0.25 0.231,-0.25C0.22,-0.25 0.207,-0.25 0.194,-0.249C0.181,-0.248 0.168,-0.246 0.157,-0.243L0.157,-0.07ZM0.157,-0.309C0.173,-0.312 0.188,-0.314 0.203,-0.315C0.218,-0.316 0.232,-0.316 0.245,-0.316C0.279,-0.316 0.308,-0.312 0.331,-0.305C0.354,-0.297 0.372,-0.286 0.386,-0.273C0.4,-0.26 0.41,-0.244 0.416,-0.226C0.421,-0.207 0.424,-0.188 0.424,-0.167C0.424,-0.106 0.407,-0.062 0.374,-0.035C0.34,-0.008 0.285,0.006 0.21,0.006C0.167,0.006 0.123,0.004 0.077,-0L0.077,-0.5L0.157,-0.5L0.157,-0.309ZM0.503,-0.5L0.583,-0.5L0.583,-0L0.503,-0L0.503,-0.5Z" style="fill-rule:nonzero;"/>
                </g>
                <g transform="matrix(83.3333,0,0,83.3333,1200.39,1677.54)">
                    <path d="M0.442,-0.04C0.422,-0.024 0.397,-0.011 0.367,-0.002C0.336,0.007 0.304,0.012 0.27,0.012C0.232,0.012 0.199,0.006 0.171,-0.007C0.143,-0.019 0.12,-0.037 0.102,-0.06C0.084,-0.083 0.071,-0.11 0.062,-0.142C0.053,-0.174 0.049,-0.21 0.049,-0.25C0.049,-0.335 0.068,-0.4 0.106,-0.445C0.144,-0.49 0.198,-0.512 0.269,-0.512C0.292,-0.512 0.314,-0.51 0.337,-0.505C0.36,-0.5 0.38,-0.49 0.398,-0.476C0.416,-0.462 0.431,-0.442 0.442,-0.417C0.453,-0.391 0.459,-0.357 0.459,-0.315C0.459,-0.293 0.457,-0.269 0.453,-0.242L0.132,-0.242C0.132,-0.213 0.135,-0.187 0.141,-0.164C0.147,-0.141 0.156,-0.122 0.169,-0.107C0.182,-0.091 0.198,-0.079 0.219,-0.071C0.239,-0.062 0.264,-0.058 0.293,-0.058C0.316,-0.058 0.338,-0.062 0.361,-0.07C0.384,-0.078 0.401,-0.087 0.412,-0.098L0.442,-0.04ZM0.27,-0.442C0.231,-0.442 0.199,-0.432 0.176,-0.411C0.152,-0.39 0.138,-0.355 0.133,-0.305L0.381,-0.305C0.381,-0.356 0.371,-0.391 0.352,-0.412C0.333,-0.432 0.305,-0.442 0.27,-0.442Z" style="fill-rule:nonzero;"/>
                </g>
                <g transform="matrix(83.3333,0,0,83.3333,1264.97,1677.54)">
                    <path d="M0.224,-0.176L0.252,-0.08L0.257,-0.08L0.279,-0.177L0.376,-0.5L0.457,-0.5L0.309,-0.051C0.298,-0.018 0.286,0.013 0.276,0.044C0.265,0.075 0.252,0.102 0.239,0.126C0.226,0.15 0.211,0.169 0.194,0.184C0.177,0.198 0.158,0.205 0.136,0.205C0.112,0.205 0.092,0.202 0.077,0.195L0.091,0.126C0.1,0.129 0.108,0.131 0.116,0.131C0.135,0.131 0.153,0.121 0.17,0.102C0.187,0.082 0.202,0.048 0.213,-0L0.012,-0.5L0.104,-0.5L0.224,-0.176Z" style="fill-rule:nonzero;"/>
                </g>
                <g transform="matrix(83.3333,0,0,83.3333,1303.8,1677.54)">
                    <path d="M0.125,-0.223L0.125,-0.288L0.195,-0.288C0.207,-0.288 0.219,-0.29 0.231,-0.294C0.242,-0.298 0.253,-0.304 0.262,-0.311C0.271,-0.318 0.279,-0.326 0.285,-0.336C0.29,-0.345 0.293,-0.355 0.293,-0.366C0.293,-0.392 0.284,-0.41 0.266,-0.421C0.248,-0.432 0.221,-0.437 0.185,-0.437C0.159,-0.437 0.135,-0.433 0.114,-0.425C0.092,-0.417 0.075,-0.409 0.063,-0.402L0.04,-0.464C0.06,-0.475 0.084,-0.485 0.111,-0.494C0.137,-0.503 0.17,-0.507 0.207,-0.507C0.318,-0.507 0.373,-0.466 0.373,-0.384C0.373,-0.361 0.366,-0.338 0.351,-0.316C0.335,-0.293 0.314,-0.277 0.286,-0.268L0.286,-0.264C0.325,-0.257 0.353,-0.243 0.369,-0.222C0.384,-0.201 0.392,-0.174 0.392,-0.14C0.392,-0.119 0.388,-0.099 0.379,-0.081C0.37,-0.063 0.357,-0.047 0.34,-0.034C0.323,-0.021 0.301,-0.01 0.275,-0.003C0.248,0.005 0.218,0.009 0.183,0.009C0.149,0.009 0.121,0.006 0.099,-0C0.076,-0.006 0.056,-0.013 0.038,-0.022L0.061,-0.088C0.076,-0.079 0.095,-0.073 0.117,-0.068C0.138,-0.063 0.162,-0.061 0.187,-0.061C0.228,-0.061 0.259,-0.068 0.28,-0.082C0.301,-0.096 0.312,-0.117 0.312,-0.146C0.312,-0.17 0.302,-0.189 0.282,-0.203C0.262,-0.216 0.229,-0.223 0.183,-0.223L0.125,-0.223Z" style="fill-rule:nonzero;"/>
                </g>
                <g transform="matrix(83.3333,0,0,83.3333,1340.55,1677.54)">
                    <path d="M0.346,-0.43L0.201,-0.43C0.199,-0.402 0.197,-0.372 0.195,-0.34C0.193,-0.307 0.19,-0.275 0.186,-0.243C0.182,-0.21 0.177,-0.179 0.17,-0.15C0.163,-0.12 0.155,-0.094 0.145,-0.071C0.134,-0.048 0.122,-0.03 0.107,-0.017C0.092,-0.003 0.074,0.004 0.053,0.004C0.04,0.004 0.029,0.003 0.02,0.002C0.011,0.001 0.002,-0.002 -0.005,-0.005L0.007,-0.072C0.015,-0.069 0.024,-0.068 0.033,-0.068C0.046,-0.068 0.058,-0.074 0.069,-0.085C0.08,-0.096 0.089,-0.118 0.097,-0.15C0.105,-0.181 0.112,-0.225 0.117,-0.281C0.122,-0.337 0.126,-0.41 0.128,-0.5L0.426,-0.5L0.426,-0L0.346,-0L0.346,-0.43Z" style="fill-rule:nonzero;"/>
                </g>
                <g transform="matrix(83.3333,0,0,83.3333,1382.47,1677.54)">
                    <path d="M0.157,-0.07C0.182,-0.066 0.205,-0.064 0.228,-0.064C0.27,-0.064 0.299,-0.072 0.316,-0.089C0.333,-0.105 0.341,-0.128 0.341,-0.158C0.341,-0.185 0.333,-0.207 0.317,-0.224C0.3,-0.241 0.272,-0.25 0.231,-0.25C0.22,-0.25 0.207,-0.25 0.194,-0.249C0.181,-0.248 0.168,-0.246 0.157,-0.243L0.157,-0.07ZM0.157,-0.309C0.173,-0.312 0.188,-0.314 0.203,-0.315C0.218,-0.316 0.232,-0.316 0.245,-0.316C0.279,-0.316 0.308,-0.312 0.331,-0.305C0.354,-0.297 0.372,-0.286 0.386,-0.273C0.4,-0.26 0.41,-0.244 0.416,-0.226C0.421,-0.207 0.424,-0.188 0.424,-0.167C0.424,-0.106 0.407,-0.062 0.374,-0.035C0.34,-0.008 0.285,0.006 0.21,0.006C0.167,0.006 0.123,0.004 0.077,-0L0.077,-0.5L0.157,-0.5L0.157,-0.309ZM0.503,-0.5L0.583,-0.5L0.583,-0L0.503,-0L0.503,-0.5Z" style="fill-rule:nonzero;"/>
                </g>
            </g>
            <g transform="matrix(0.161301,0,0,0.161301,1696.88,6924.97)">
                <circle cx="207.5" cy="164.5" r="18.5" style="fill:rgb(255,0,0);stroke:rgb(255,0,0);stroke-width:51.66px;"/>
            </g>
            <g id="RED">
            </g>
            <g transform="matrix(0.41897,0,0,0.41897,1087.89,6275.69)">
                <g transform="matrix(1,0,0,1,-83.8425,-148)">
                    <rect x="346" y="294" width="326" height="326" style="fill:white;stroke:black;stroke-width:2.39px;"/>
                </g>
                <g transform="matrix(1,0,0,1,-83.8425,-474.692)">
                    <rect x="346" y="294" width="326" height="326" style="fill:white;stroke:black;stroke-width:2.39px;"/>
                </g>
                <g transform="matrix(1,0,0,1,-83.8425,503.96)">
                    <rect x="346" y="294" width="326" height="326" style="fill:white;stroke:black;stroke-width:2.39px;"/>
                </g>
                <g transform="matrix(1,0,0,1,-83.8425,178.209)">
                    <rect x="346" y="294" width="326" height="326" style="fill:white;stroke:black;stroke-width:2.39px;"/>
                </g>
                <g transform="matrix(1,0,0,1,-83.8425,830.168)">
                    <rect x="346" y="294" width="326" height="326" style="fill:white;stroke:black;stroke-width:2.39px;"/>
                </g>
                <g transform="matrix(1,0,0,1,568.157,-148)">
                    <rect x="346" y="294" width="326" height="326" style="fill:white;stroke:black;stroke-width:2.39px;"/>
                </g>
                <g transform="matrix(1,0,0,1,568.157,830.168)">
                    <rect x="346" y="294" width="326" height="326" style="fill:white;stroke:black;stroke-width:2.39px;"/>
                </g>
                <g transform="matrix(1,0,0,1,1220.16,-148)">
                    <rect x="346" y="294" width="326" height="326" style="fill:white;stroke:black;stroke-width:2.39px;"/>
                </g>
                <g transform="matrix(1,0,0,1,1220.16,830.168)">
                    <rect x="346" y="294" width="326" height="326" style="fill:white;stroke:black;stroke-width:2.39px;"/>
                </g>
                <g transform="matrix(1,0,0,1,242.157,-148)">
                    <rect x="346" y="294" width="326" height="326" style="fill:white;stroke:black;stroke-width:2.39px;"/>
                </g>
                <g transform="matrix(1,0,0,1,242.157,830.168)">
                    <rect x="346" y="294" width="326" height="326" style="fill:white;stroke:black;stroke-width:2.39px;"/>
                </g>
                <g transform="matrix(1,0,0,1,894.157,-148)">
                    <rect x="346" y="294" width="326" height="326" style="fill:white;stroke:black;stroke-width:2.39px;"/>
                </g>
                <g transform="matrix(1,0,0,1,894.157,-474.692)">
                    <rect x="346" y="294" width="326" height="326" style="fill:white;stroke:black;stroke-width:2.39px;"/>
                </g>
                <g transform="matrix(1,0,0,1,894.157,503.96)">
                    <rect x="346" y="294" width="326" height="326" style="fill:white;stroke:black;stroke-width:2.39px;"/>
                </g>
                <g transform="matrix(1,0,0,1,894.157,178.209)">
                    <rect x="346" y="294" width="326" height="326" style="fill:white;stroke:black;stroke-width:2.39px;"/>
                </g>
                <g transform="matrix(1,0,0,1,894.157,830.168)">
                    <rect x="346" y="294" width="326" height="326" style="fill:white;stroke:black;stroke-width:2.39px;"/>
                </g>
                <g transform="matrix(1,0,0,1,1546.16,-148)">
                    <rect x="346" y="294" width="326" height="326" style="fill:white;stroke:black;stroke-width:2.39px;"/>
                </g>
                <g transform="matrix(1,0,0,1,1871.01,-148)">
                    <rect x="346" y="294" width="326" height="326" style="fill:white;stroke:black;stroke-width:2.39px;"/>
                </g>
                <g transform="matrix(1,0,0,1,1871.01,-474.692)">
                    <rect x="346" y="294" width="326" height="326" style="fill:white;stroke:black;stroke-width:2.39px;"/>
                </g>
                <g transform="matrix(1,0,0,1,1871.01,503.96)">
                    <rect x="346" y="294" width="326" height="326" style="fill:white;stroke:black;stroke-width:2.39px;"/>
                </g>
                <g transform="matrix(1,0,0,1,1871.01,178.209)">
                    <rect x="346" y="294" width="326" height="326" style="fill:white;stroke:black;stroke-width:2.39px;"/>
                </g>
                <g transform="matrix(1,0,0,1,1546.16,830.168)">
                    <rect x="346" y="294" width="326" height="326" style="fill:white;stroke:black;stroke-width:2.39px;"/>
                </g>
                <g transform="matrix(1,0,0,1,1871.01,830.168)">
                    <rect x="346" y="294" width="326" height="326" style="fill:white;stroke:black;stroke-width:2.39px;"/>
                </g>
                <g transform="matrix(1,0,0,1,568.157,-474.692)">
                    <rect x="346" y="294" width="326" height="326" style="fill:rgb(219,219,219);stroke:black;stroke-width:19.89px;"/>
                </g>
                <g transform="matrix(1,0,0,1,568.157,503.96)">
                    <rect x="346" y="294" width="326" height="326" style="fill:rgb(219,219,219);stroke:black;stroke-width:19.89px;"/>
                </g>
                <g transform="matrix(1,0,0,1,568.157,178.209)">
                    <rect x="346" y="294" width="326" height="326" style="fill:rgb(219,219,219);stroke:black;stroke-width:19.89px;"/>
                </g>
                <g transform="matrix(1,0,0,1,1220.16,-474.692)">
                    <rect x="346" y="294" width="326" height="326" style="fill:rgb(219,219,219);stroke:black;stroke-width:19.89px;"/>
                </g>
                <g transform="matrix(1,0,0,1,1220.16,503.96)">
                    <rect x="346" y="294" width="326" height="326" style="fill:rgb(219,219,219);stroke:black;stroke-width:19.89px;"/>
                </g>
                <g transform="matrix(1,0,0,1,1220.16,178.209)">
                    <rect x="346" y="294" width="326" height="326" style="fill:rgb(219,219,219);stroke:black;stroke-width:19.89px;"/>
                </g>
                <g transform="matrix(1,0,0,1,242.157,-474.692)">
                    <rect x="346" y="294" width="326" height="326" style="fill:rgb(219,219,219);stroke:black;stroke-width:19.89px;"/>
                </g>
                <g transform="matrix(1,0,0,1,242.157,503.96)">
                    <rect x="346" y="294" width="326" height="326" style="fill:rgb(219,219,219);stroke:black;stroke-width:19.89px;"/>
                </g>
                <g transform="matrix(1,0,0,1,242.157,178.209)">
                    <rect x="346" y="294" width="326" height="326" style="fill:rgb(219,219,219);stroke:black;stroke-width:19.89px;"/>
                </g>
                <g transform="matrix(1,0,0,1,1546.16,-474.692)">
                    <rect x="346" y="294" width="326" height="326" style="fill:rgb(219,219,219);stroke:black;stroke-width:19.89px;"/>
                </g>
                <g transform="matrix(1,0,0,1,1546.16,503.96)">
                    <rect x="346" y="294" width="326" height="326" style="fill:rgb(219,219,219);stroke:black;stroke-width:19.89px;"/>
                </g>
                <g transform="matrix(1,0,0,1,1546.16,178.209)">
                    <rect x="346" y="294" width="326" height="326" style="fill:rgb(219,219,219);stroke:black;stroke-width:19.89px;"/>
                </g>
            </g>
            <g transform="matrix(0.41897,0,0,0.41897,1156.19,6207.4)">
                <g transform="matrix(1,0,0,1,54.6575,-18.5)">
                    <circle cx="207.5" cy="164.5" r="18.5" style="stroke:white;stroke-width:2.39px;"/>
                </g>
                <g transform="matrix(1,0,0,1,706.284,-18.5)">
                    <circle cx="207.5" cy="164.5" r="18.5" style="stroke:white;stroke-width:2.39px;"/>
                </g>
                <g transform="matrix(1,0,0,1,1358.76,-18.5)">
                    <circle cx="207.5" cy="164.5" r="18.5" style="stroke:white;stroke-width:2.39px;"/>
                </g>
                <g transform="matrix(1,0,0,1,2010.37,-18.5)">
                    <circle cx="207.5" cy="164.5" r="18.5" style="stroke:white;stroke-width:2.39px;"/>
                </g>
                <g transform="matrix(1,0,0,1,54.6575,306.233)">
                    <circle cx="207.5" cy="164.5" r="18.5" style="stroke:white;stroke-width:2.39px;"/>
                </g>
                <g transform="matrix(1,0,0,1,706.284,306.233)">
                    <circle cx="207.5" cy="164.5" r="18.5" style="stroke:white;stroke-width:2.39px;"/>
                </g>
                <g transform="matrix(1,0,0,1,1358.76,306.233)">
                    <circle cx="207.5" cy="164.5" r="18.5" style="stroke:white;stroke-width:2.39px;"/>
                </g>
                <g transform="matrix(1,0,0,1,2010.37,306.233)">
                    <circle cx="207.5" cy="164.5" r="18.5" style="stroke:white;stroke-width:2.39px;"/>
                </g>
                <g transform="matrix(1,0,0,1,54.6575,633.697)">
                    <circle cx="207.5" cy="164.5" r="18.5" style="stroke:white;stroke-width:2.39px;"/>
                </g>
                <g transform="matrix(1,0,0,1,706.284,633.697)">
                    <circle cx="207.5" cy="164.5" r="18.5" style="stroke:white;stroke-width:2.39px;"/>
                </g>
                <g transform="matrix(1,0,0,1,1358.76,633.697)">
                    <circle cx="207.5" cy="164.5" r="18.5" style="stroke:white;stroke-width:2.39px;"/>
                </g>
                <g transform="matrix(1,0,0,1,2010.37,633.697)">
                    <circle cx="207.5" cy="164.5" r="18.5" style="stroke:white;stroke-width:2.39px;"/>
                </g>
                <g transform="matrix(1,0,0,1,54.6575,960.091)">
                    <circle cx="207.5" cy="164.5" r="18.5" style="stroke:white;stroke-width:2.39px;"/>
                </g>
                <g transform="matrix(1,0,0,1,706.284,960.091)">
                    <circle cx="207.5" cy="164.5" r="18.5" style="stroke:white;stroke-width:2.39px;"/>
                </g>
                <g transform="matrix(1,0,0,1,1358.76,960.091)">
                    <circle cx="207.5" cy="164.5" r="18.5" style="stroke:white;stroke-width:2.39px;"/>
                </g>
                <g transform="matrix(1,0,0,1,2010.37,960.091)">
                    <circle cx="207.5" cy="164.5" r="18.5" style="stroke:white;stroke-width:2.39px;"/>
                </g>
                <g transform="matrix(1,0,0,1,54.6575,1284.35)">
                    <circle cx="207.5" cy="164.5" r="18.5" style="stroke:white;stroke-width:2.39px;"/>
                </g>
                <g transform="matrix(1,0,0,1,706.284,1284.35)">
                    <circle cx="207.5" cy="164.5" r="18.5" style="stroke:white;stroke-width:2.39px;"/>
                </g>
                <g transform="matrix(1,0,0,1,1358.76,1284.35)">
                    <circle cx="207.5" cy="164.5" r="18.5" style="stroke:white;stroke-width:2.39px;"/>
                </g>
                <g transform="matrix(1,0,0,1,2010.37,1284.35)">
                    <circle cx="207.5" cy="164.5" r="18.5" style="stroke:white;stroke-width:2.39px;"/>
                </g>
                <g transform="matrix(1,0,0,1,381.202,-18.5)">
                    <circle cx="207.5" cy="164.5" r="18.5" style="stroke:white;stroke-width:2.39px;"/>
                </g>
                <g transform="matrix(1,0,0,1,1032.83,-18.5)">
                    <circle cx="207.5" cy="164.5" r="18.5" style="stroke:white;stroke-width:2.39px;"/>
                </g>
                <g transform="matrix(1,0,0,1,1685.3,-18.5)">
                    <circle cx="207.5" cy="164.5" r="18.5" style="stroke:white;stroke-width:2.39px;"/>
                </g>
                <g transform="matrix(1,0,0,1,381.202,306.233)">
                    <circle cx="207.5" cy="164.5" r="18.5" style="stroke:white;stroke-width:2.39px;"/>
                </g>
                <g transform="matrix(1,0,0,1,1032.83,306.233)">
                    <circle cx="207.5" cy="164.5" r="18.5" style="stroke:white;stroke-width:2.39px;"/>
                </g>
                <g transform="matrix(1,0,0,1,1685.3,306.233)">
                    <circle cx="207.5" cy="164.5" r="18.5" style="stroke:white;stroke-width:2.39px;"/>
                </g>
                <g transform="matrix(1,0,0,1,381.202,633.697)">
                    <circle cx="207.5" cy="164.5" r="18.5" style="stroke:white;stroke-width:2.39px;"/>
                </g>
                <g transform="matrix(1,0,0,1,1032.83,633.697)">
                    <circle cx="207.5" cy="164.5" r="18.5" style="stroke:white;stroke-width:2.39px;"/>
                </g>
                <g transform="matrix(1,0,0,1,1685.3,633.697)">
                    <circle cx="207.5" cy="164.5" r="18.5" style="stroke:white;stroke-width:2.39px;"/>
                </g>
                <g transform="matrix(1,0,0,1,381.202,960.091)">
                    <circle cx="207.5" cy="164.5" r="18.5" style="stroke:white;stroke-width:2.39px;"/>
                </g>
                <g transform="matrix(1,0,0,1,1032.83,960.091)">
                    <circle cx="207.5" cy="164.5" r="18.5" style="stroke:white;stroke-width:2.39px;"/>
                </g>
                <g transform="matrix(1,0,0,1,1685.3,960.091)">
                    <circle cx="207.5" cy="164.5" r="18.5" style="stroke:white;stroke-width:2.39px;"/>
                </g>
                <g transform="matrix(1,0,0,1,381.202,1284.35)">
                    <circle cx="207.5" cy="164.5" r="18.5" style="stroke:white;stroke-width:2.39px;"/>
                </g>
                <g transform="matrix(1,0,0,1,1032.83,1284.35)">
                    <circle cx="207.5" cy="164.5" r="18.5" style="stroke:white;stroke-width:2.39px;"/>
                </g>
                <g transform="matrix(1,0,0,1,1685.3,1284.35)">
                    <circle cx="207.5" cy="164.5" r="18.5" style="stroke:white;stroke-width:2.39px;"/>
                </g>
            </g>
            <g id="RED1" serif:id="RED" transform="matrix(0.48,0,0,0.48,1080.26,6152.47)">
                <g transform="matrix(0.872855,0,0,0.872855,423.662,168.982)">
                    <circle cx="207.5" cy="164.5" r="18.5" style="fill:rgb(255,0,0);stroke:rgb(255,0,0);stroke-width:19.89px;"/>
                </g>
                <g transform="matrix(0.872855,0,0,0.872855,423.662,595.975)">
                    <circle cx="207.5" cy="164.5" r="18.5" style="fill:rgb(255,0,0);stroke:rgb(255,0,0);stroke-width:19.89px;"/>
                </g>
                <g transform="matrix(0.872855,0,0,0.872855,423.662,1025.82)">
                    <circle cx="207.5" cy="164.5" r="18.5" style="fill:rgb(255,0,0);stroke:rgb(255,0,0);stroke-width:19.89px;"/>
                </g>
                <g transform="matrix(0.872855,0,0,0.872855,847.973,168.982)">
                    <circle cx="207.5" cy="164.5" r="18.5" style="fill:rgb(255,0,0);stroke:rgb(255,0,0);stroke-width:19.89px;"/>
                </g>
                <g transform="matrix(0.872855,0,0,0.872855,847.973,595.975)">
                    <circle cx="207.5" cy="164.5" r="18.5" style="fill:rgb(255,0,0);stroke:rgb(255,0,0);stroke-width:19.89px;"/>
                </g>
                <g transform="matrix(0.872855,0,0,0.872855,847.973,1025.82)">
                    <circle cx="207.5" cy="164.5" r="18.5" style="fill:rgb(255,0,0);stroke:rgb(255,0,0);stroke-width:19.89px;"/>
                </g>
                <g transform="matrix(0.872855,0,0,0.872855,1280.22,168.982)">
                    <circle cx="207.5" cy="164.5" r="18.5" style="fill:rgb(255,0,0);stroke:rgb(255,0,0);stroke-width:19.89px;"/>
                </g>
                <g transform="matrix(0.872855,0,0,0.872855,1280.22,595.975)">
                    <circle cx="207.5" cy="164.5" r="18.5" style="fill:rgb(255,0,0);stroke:rgb(255,0,0);stroke-width:19.89px;"/>
                </g>
                <g transform="matrix(0.872855,0,0,0.872855,1280.22,1025.82)">
                    <circle cx="207.5" cy="164.5" r="18.5" style="fill:rgb(255,0,0);stroke:rgb(255,0,0);stroke-width:19.89px;"/>
                </g>
                <g transform="matrix(0.872855,0,0,0.872855,1695.42,168.982)">
                    <circle cx="207.5" cy="164.5" r="18.5" style="fill:rgb(255,0,0);stroke:rgb(255,0,0);stroke-width:19.89px;"/>
                </g>
                <g transform="matrix(0.872855,0,0,0.872855,1695.42,595.975)">
                    <circle cx="207.5" cy="164.5" r="18.5" style="fill:rgb(255,0,0);stroke:rgb(255,0,0);stroke-width:19.89px;"/>
                </g>
                <g transform="matrix(0.872855,0,0,0.872855,1695.42,1025.82)">
                    <circle cx="207.5" cy="164.5" r="18.5" style="fill:rgb(255,0,0);stroke:rgb(255,0,0);stroke-width:19.89px;"/>
                </g>
            </g>
            <g id="RED2" serif:id="RED">
            </g>
        </g>
    </g>
</svg>
