<?xml version="1.0" encoding="UTF-8" standalone="no"?>
<!DOCTYPE svg PUBLIC "-//W3C//DTD SVG 1.1//EN" "http://www.w3.org/Graphics/SVG/1.1/DTD/svg11.dtd">
<svg width="100%" height="100%" viewBox="0 0 446 469" version="1.1" xmlns="http://www.w3.org/2000/svg" xmlns:xlink="http://www.w3.org/1999/xlink" xml:space="preserve" xmlns:serif="http://www.serif.com/" style="fill-rule:evenodd;clip-rule:evenodd;stroke-linecap:round;stroke-linejoin:round;stroke-miterlimit:10;">
    <g transform="matrix(1,0,0,1,-6799,-65)">
        <g id="Attribute" transform="matrix(1.90372,0,0,0.999018,1107.92,-8.99116)">
            <rect x="2388" y="9" width="1641" height="1018" style="fill:none;"/>
            <g transform="matrix(0.525288,0,0,0.657155,1851.03,41.1437)">
                <rect x="2500" y="106.496" width="110" height="65.504" style="fill:rgb(255,153,0);stroke:black;stroke-width:3.55px;"/>
            </g>
            <g transform="matrix(0.525288,0,0,0.657155,1792.02,296.063)">
                <rect x="2500" y="106.496" width="110" height="65.504" style="fill:rgb(255,153,0);stroke:black;stroke-width:3.55px;"/>
            </g>
            <g transform="matrix(0.525288,0,0,0.657155,1851.03,84.1941)">
                <rect x="2500" y="106.496" width="110" height="65.504" style="fill:rgb(204,75,0);stroke:black;stroke-width:3.55px;"/>
            </g>
            <g transform="matrix(0.525288,0,0,0.657155,1792.02,339.113)">
                <rect x="2500" y="106.496" width="110" height="65.504" style="fill:rgb(204,75,0);stroke:black;stroke-width:3.55px;"/>
            </g>
            <g transform="matrix(0.525288,0,0,0.657155,1851.03,127.435)">
                <rect x="2500" y="106.496" width="110" height="65.504" style="fill:rgb(138,66,30);stroke:black;stroke-width:3.55px;"/>
            </g>
            <g transform="matrix(0.525288,0,0,0.657155,1792.02,382.354)">
                <rect x="2500" y="106.496" width="110" height="65.504" style="fill:rgb(138,66,30);stroke:black;stroke-width:3.55px;"/>
            </g>
            <g transform="matrix(0.525288,0,0,0.657155,1851.03,170.53)">
                <rect x="2500" y="106.496" width="110" height="65.504" style="fill:rgb(255,115,0);stroke:black;stroke-width:3.55px;"/>
            </g>
            <g transform="matrix(0.525288,0,0,0.657155,1792.02,425.45)">
                <rect x="2500" y="106.496" width="110" height="65.504" style="fill:rgb(255,115,0);stroke:black;stroke-width:3.55px;"/>
            </g>
            <g transform="matrix(-0.525288,9.16745e-17,-5.64727e-17,-0.657155,4419.78,353.595)">
                <rect x="2500" y="106.496" width="110" height="65.504" style="fill:rgb(89,89,89);stroke:black;stroke-width:3.55px;"/>
            </g>
            <g transform="matrix(-0.525288,-1.53496e-16,2.79928e-17,-0.657155,4361.73,353.595)">
                <rect x="2500" y="106.496" width="110" height="65.504" style="fill:rgb(200,200,200);stroke:black;stroke-width:3.55px;"/>
            </g>
            <g transform="matrix(-0.525288,-1.53496e-16,2.79928e-17,-0.657155,4418.46,608.273)">
                <rect x="2500" y="106.496" width="110" height="65.504" style="fill:rgb(200,200,200);stroke:black;stroke-width:3.55px;"/>
            </g>
            <g transform="matrix(-0.525288,9.16745e-17,-5.64727e-17,-0.657155,4419.78,310.499)">
                <rect x="2500" y="106.496" width="110" height="65.504" style="fill:rgb(216,216,216);stroke:black;stroke-width:3.55px;"/>
            </g>
            <g transform="matrix(-0.525288,-1.53496e-16,2.79928e-17,-0.657155,4361.73,310.499)">
                <rect x="2500" y="106.496" width="110" height="65.504" style="fill:rgb(77,77,77);stroke:black;stroke-width:3.55px;"/>
            </g>
            <g transform="matrix(-0.525288,-1.53496e-16,2.79928e-17,-0.657155,4418.46,565.177)">
                <rect x="2500" y="106.496" width="110" height="65.504" style="fill:rgb(77,77,77);stroke:black;stroke-width:3.55px;"/>
            </g>
            <g transform="matrix(-0.525288,-1.53496e-16,2.79928e-17,-0.657155,4361.73,267.403)">
                <rect x="2500" y="106.496" width="110" height="65.504" style="fill:rgb(164,164,164);stroke:black;stroke-width:3.55px;"/>
            </g>
            <g transform="matrix(-0.525288,-1.53496e-16,2.79928e-17,-0.657155,4418.46,522.081)">
                <rect x="2500" y="106.496" width="110" height="65.504" style="fill:rgb(164,164,164);stroke:black;stroke-width:3.55px;"/>
            </g>
            <g transform="matrix(-0.525288,9.16745e-17,-5.64727e-17,-0.657155,4419.78,267.403)">
                <rect x="2500" y="106.496" width="110" height="65.504" style="fill:rgb(102,102,102);stroke:black;stroke-width:3.55px;"/>
            </g>
            <g transform="matrix(-0.525288,-1.53496e-16,2.79928e-17,-0.657155,4361.73,224.353)">
                <rect x="2500" y="106.496" width="110" height="65.504" style="fill:rgb(150,150,150);stroke:black;stroke-width:3.55px;"/>
            </g>
            <g transform="matrix(-0.525288,-1.53496e-16,2.79928e-17,-0.657155,4418.46,479.031)">
                <rect x="2500" y="106.496" width="110" height="65.504" style="fill:rgb(150,150,150);stroke:black;stroke-width:3.55px;"/>
            </g>
            <g transform="matrix(-0.525288,9.16745e-17,-5.64727e-17,-0.657155,4419.78,224.353)">
                <rect x="2500" y="106.496" width="110" height="65.504" style="fill:rgb(153,153,153);stroke:black;stroke-width:3.55px;"/>
            </g>
            <g transform="matrix(-0.525288,9.16745e-17,-5.64727e-17,-0.657155,4477.56,353.595)">
                <rect x="2500" y="106.496" width="110" height="65.504" style="fill:rgb(45,231,231);stroke:black;stroke-width:3.55px;"/>
            </g>
            <g transform="matrix(-0.525288,9.16745e-17,-5.64727e-17,-0.657155,4477.56,310.499)">
                <rect x="2500" y="106.496" width="110" height="65.504" style="fill:rgb(229,242,13);stroke:black;stroke-width:3.55px;"/>
            </g>
            <g transform="matrix(0.525288,3.09106e-17,1.42399e-17,0.657155,1793.34,41.3379)">
                <rect x="2500" y="106.496" width="110" height="65.504" style="fill:rgb(251,133,255);stroke:black;stroke-width:3.55px;"/>
            </g>
            <g transform="matrix(0.525288,3.09106e-17,1.42399e-17,0.657155,1793.34,84.3883)">
                <rect x="2500" y="106.496" width="110" height="65.504" style="fill:rgb(251,133,255);stroke:black;stroke-width:3.55px;"/>
            </g>
            <g transform="matrix(0.525288,0,0,1.00098,1663.84,18.1449)">
                <g transform="matrix(32,0,0,32,2790.57,126.659)">
                    <path d="M0.196,-0.32L0.42,-0.32L0.311,-0.669L0.196,-0.32ZM0.276,-0.765L0.357,-0.765L0.611,-0L0.519,-0L0.438,-0.261L0.179,-0.261L0.097,-0L0.015,-0L0.276,-0.765Z" style="fill-rule:nonzero;"/>
                </g>
            </g>
            <g transform="matrix(0.525288,0,0,1.00098,1725.03,17.1439)">
                <g transform="matrix(32,0,0,32,2790.57,126.659)">
                    <rect x="0.073" y="-0.765" width="0.083" height="0.765" style="fill-rule:nonzero;"/>
                </g>
            </g>
            <g transform="matrix(0.525288,0,0,1.00098,1666.01,272.063)">
                <g transform="matrix(32,0,0,32,2790.57,126.659)">
                    <rect x="0.073" y="-0.765" width="0.083" height="0.765" style="fill-rule:nonzero;"/>
                </g>
            </g>
            <g transform="matrix(0.525288,0,0,1.00098,1722.93,147.905)">
                <g transform="matrix(32,0,0,32,2790.57,126.659)">
                    <rect x="0.073" y="-0.765" width="0.083" height="0.765" style="fill-rule:nonzero;"/>
                </g>
                <g transform="matrix(32,0,0,32,2797.91,126.659)">
                    <rect x="0.073" y="-0.765" width="0.083" height="0.765" style="fill-rule:nonzero;"/>
                </g>
            </g>
            <g transform="matrix(0.525288,0,0,1.00098,1663.91,402.825)">
                <g transform="matrix(32,0,0,32,2790.57,126.659)">
                    <rect x="0.073" y="-0.765" width="0.083" height="0.765" style="fill-rule:nonzero;"/>
                </g>
                <g transform="matrix(32,0,0,32,2797.91,126.659)">
                    <rect x="0.073" y="-0.765" width="0.083" height="0.765" style="fill-rule:nonzero;"/>
                </g>
            </g>
            <g transform="matrix(0.525288,0,0,1.00098,1721.88,61.9088)">
                <g transform="matrix(32,0,0,32,2790.57,126.659)">
                    <rect x="0.073" y="-0.765" width="0.083" height="0.765" style="fill-rule:nonzero;"/>
                </g>
                <g transform="matrix(32,0,0,32,2797.91,126.659)">
                    <rect x="0.073" y="-0.765" width="0.083" height="0.765" style="fill-rule:nonzero;"/>
                </g>
                <g transform="matrix(32,0,0,32,2805.25,126.659)">
                    <rect x="0.073" y="-0.765" width="0.083" height="0.765" style="fill-rule:nonzero;"/>
                </g>
            </g>
            <g transform="matrix(0.525288,0,0,1.00098,1662.86,316.828)">
                <g transform="matrix(32,0,0,32,2790.57,126.659)">
                    <rect x="0.073" y="-0.765" width="0.083" height="0.765" style="fill-rule:nonzero;"/>
                </g>
                <g transform="matrix(32,0,0,32,2797.91,126.659)">
                    <rect x="0.073" y="-0.765" width="0.083" height="0.765" style="fill-rule:nonzero;"/>
                </g>
                <g transform="matrix(32,0,0,32,2805.25,126.659)">
                    <rect x="0.073" y="-0.765" width="0.083" height="0.765" style="fill-rule:nonzero;"/>
                </g>
            </g>
            <g transform="matrix(0.525288,0,0,1.00098,1720.83,104.171)">
                <g transform="matrix(32,0,0,32,2790.57,126.659)">
                    <rect x="0.073" y="-0.765" width="0.083" height="0.765" style="fill-rule:nonzero;"/>
                </g>
                <g transform="matrix(32,0,0,32,2797.91,126.659)">
                    <path d="M0.5,-0.765L0.588,-0.765L0.337,-0L0.257,-0L0.015,-0.765L0.104,-0.765L0.301,-0.12L0.5,-0.765Z" style="fill-rule:nonzero;"/>
                </g>
            </g>
            <g transform="matrix(0.525288,0,0,1.00098,1661.81,359.09)">
                <g transform="matrix(32,0,0,32,2790.57,126.659)">
                    <rect x="0.073" y="-0.765" width="0.083" height="0.765" style="fill-rule:nonzero;"/>
                </g>
                <g transform="matrix(32,0,0,32,2797.91,126.659)">
                    <path d="M0.5,-0.765L0.588,-0.765L0.337,-0L0.257,-0L0.015,-0.765L0.104,-0.765L0.301,-0.12L0.5,-0.765Z" style="fill-rule:nonzero;"/>
                </g>
            </g>
            <g transform="matrix(0.525288,0,0,1.00098,1663.84,61.3957)">
                <g transform="matrix(32,0,0,32,2790.57,126.659)">
                    <path d="M0.196,-0.32L0.42,-0.32L0.311,-0.669L0.196,-0.32ZM0.276,-0.765L0.357,-0.765L0.611,-0L0.519,-0L0.438,-0.261L0.179,-0.261L0.097,-0L0.015,-0L0.276,-0.765Z" style="fill-rule:nonzero;"/>
                </g>
            </g>
            <g transform="matrix(0.525288,0,0,1.00098,1663.84,105.607)">
                <g transform="matrix(32,0,0,32,2790.57,126.659)">
                    <path d="M0.156,-0.703L0.156,-0.432L0.256,-0.432C0.306,-0.432 0.348,-0.444 0.384,-0.467C0.42,-0.491 0.438,-0.523 0.438,-0.564C0.438,-0.612 0.423,-0.646 0.395,-0.669C0.367,-0.691 0.318,-0.703 0.247,-0.703L0.156,-0.703ZM0.156,-0.368L0.156,-0.063L0.288,-0.063C0.344,-0.063 0.388,-0.076 0.42,-0.1C0.453,-0.125 0.469,-0.159 0.469,-0.204C0.469,-0.253 0.453,-0.292 0.422,-0.323C0.39,-0.353 0.343,-0.368 0.282,-0.368L0.156,-0.368ZM0.292,-0.765C0.364,-0.765 0.419,-0.749 0.459,-0.716C0.5,-0.683 0.52,-0.636 0.52,-0.575C0.52,-0.526 0.504,-0.488 0.474,-0.46C0.443,-0.432 0.413,-0.415 0.384,-0.41C0.424,-0.403 0.462,-0.382 0.5,-0.348C0.537,-0.314 0.555,-0.262 0.555,-0.191C0.555,-0.136 0.532,-0.091 0.487,-0.054C0.441,-0.018 0.375,-0 0.29,-0L0.073,-0L0.073,-0.765L0.292,-0.765Z" style="fill-rule:nonzero;"/>
                </g>
            </g>
            <g transform="matrix(0.525288,0,0,1.00098,1663.84,148.476)">
                <g transform="matrix(32,0,0,32,2790.57,126.659)">
                    <path d="M0.627,-0.11C0.602,-0.076 0.57,-0.046 0.533,-0.023C0.497,0 0.444,0.012 0.377,0.012C0.281,0.012 0.205,-0.025 0.148,-0.1C0.092,-0.175 0.063,-0.271 0.063,-0.389C0.063,-0.499 0.091,-0.592 0.145,-0.669C0.199,-0.747 0.28,-0.785 0.386,-0.785C0.43,-0.785 0.469,-0.779 0.503,-0.767C0.537,-0.754 0.569,-0.732 0.6,-0.699L0.547,-0.644C0.525,-0.667 0.499,-0.685 0.472,-0.697C0.444,-0.709 0.414,-0.715 0.381,-0.715C0.309,-0.715 0.252,-0.684 0.212,-0.622C0.171,-0.56 0.151,-0.487 0.151,-0.402C0.151,-0.291 0.174,-0.206 0.219,-0.147C0.265,-0.088 0.317,-0.058 0.375,-0.058C0.431,-0.058 0.472,-0.067 0.498,-0.084C0.523,-0.102 0.546,-0.126 0.567,-0.155L0.627,-0.11Z" style="fill-rule:nonzero;"/>
                </g>
            </g>
            <g transform="matrix(9.40197e-18,0.292595,-0.525288,6.12925e-17,3820.24,-609.704)">
                <g transform="matrix(2.09479e-16,-1,3.42105,6.12323e-17,2336.91,1581.59)">
                    <path d="M68.674,5.004L57.424,27.504L46.174,5.004L68.674,5.004Z"/>
                    <path d="M57.424,8.504L57.424,9.504" style="fill:none;stroke:black;stroke-width:5px;stroke-linecap:butt;stroke-linejoin:miter;stroke-miterlimit:1;stroke-dasharray:5,5;"/>
                </g>
            </g>
            <g transform="matrix(9.40197e-18,0.292595,-0.525288,6.12925e-17,3993.68,-609.704)">
                <g transform="matrix(2.09479e-16,-1,3.42105,6.12323e-17,2336.91,1911.76)">
                    <path d="M398.843,5.004L387.593,27.504L376.343,5.004L398.843,5.004Z"/>
                    <path d="M387.593,8.504L387.593,9.504" style="fill:none;stroke:black;stroke-width:5px;stroke-linecap:butt;stroke-linejoin:miter;stroke-miterlimit:1;stroke-dasharray:5,5;"/>
                </g>
            </g>
            <g transform="matrix(9.40197e-18,0.292595,-0.525288,6.12925e-17,3907.19,-381.293)">
                <g transform="matrix(2.09479e-16,-1,3.42105,6.12323e-17,1556.27,1747.1)">
                    <path d="M240.938,235.48L222.938,262.48L204.938,235.48L240.938,235.48Z" style="fill:none;stroke:black;stroke-width:8px;stroke-linecap:butt;stroke-linejoin:miter;"/>
                    <path d="M222.938,234.691L222.938,235.48" style="fill:none;stroke:black;stroke-width:8px;stroke-linecap:butt;stroke-linejoin:miter;stroke-miterlimit:1;stroke-dasharray:8,8;"/>
                </g>
            </g>
            <g transform="matrix(0.525288,0,0,1.00098,-632.425,9)">
                <path d="M6897.46,274.341L7005.46,356.649" style="fill:none;stroke:black;stroke-width:2px;stroke-linecap:butt;"/>
            </g>
            <g transform="matrix(0.525288,0,0,1.00098,-632.425,9)">
                <path d="M7337.8,274.341L7227.8,356.649" style="fill:none;stroke:black;stroke-width:2px;stroke-linecap:butt;"/>
            </g>
        </g>
    </g>
</svg>
