<?xml version="1.0" encoding="UTF-8" standalone="no"?>
<!DOCTYPE svg PUBLIC "-//W3C//DTD SVG 1.1//EN" "http://www.w3.org/Graphics/SVG/1.1/DTD/svg11.dtd">
<svg width="100%" height="100%" viewBox="0 0 813 399" version="1.1" xmlns="http://www.w3.org/2000/svg" xmlns:xlink="http://www.w3.org/1999/xlink" xml:space="preserve" xmlns:serif="http://www.serif.com/" style="fill-rule:evenodd;clip-rule:evenodd;stroke-linejoin:round;stroke-miterlimit:10;">
    <rect id="Spatial-Databases-2" serif:id="Spatial Databases 2" x="-371.911" y="-4462" width="3858" height="5937" style="fill:none;"/>
    <path d="M563.279,203.107L563.279,201.367L591.539,184.147L593.819,187.867L569.999,201.967L593.879,215.827L591.599,219.427L563.279,203.107Z" style="fill:rgb(0,106,255);fill-rule:nonzero;"/>
    <path d="M617.519,179.407L627.239,179.407L627.239,211.147C627.239,211.507 627.259,211.957 627.299,212.497C627.339,213.037 627.389,213.607 627.449,214.207C627.509,214.807 627.579,215.397 627.659,215.977C627.739,216.557 627.819,217.067 627.899,217.507L631.919,217.507L631.919,221.407L623.939,221.407L623.339,216.787L623.099,216.787C622.219,218.307 620.909,219.577 619.169,220.597C617.429,221.617 615.419,222.127 613.139,222.127C608.619,222.127 605.289,220.857 603.149,218.317C601.009,215.777 599.939,211.827 599.939,206.467C599.939,203.947 600.299,201.717 601.019,199.777C601.739,197.837 602.769,196.217 604.109,194.917C605.449,193.617 607.059,192.627 608.939,191.947C610.819,191.267 612.919,190.927 615.239,190.927C616.079,190.927 616.829,190.947 617.489,190.987C618.149,191.027 618.759,191.087 619.319,191.167C619.879,191.247 620.409,191.357 620.909,191.497C621.409,191.637 621.959,191.787 622.559,191.947L622.559,183.427L617.519,183.427L617.519,179.407ZM613.919,218.107C616.359,218.107 618.279,217.477 619.679,216.217C621.079,214.957 622.039,213.067 622.559,210.547L622.559,196.627C621.679,196.027 620.689,195.587 619.589,195.307C618.489,195.027 617.039,194.887 615.239,194.887C612.039,194.887 609.519,195.817 607.679,197.677C605.839,199.537 604.919,202.467 604.919,206.467C604.919,208.107 605.069,209.637 605.369,211.057C605.669,212.477 606.169,213.707 606.869,214.747C607.569,215.787 608.499,216.607 609.659,217.207C610.819,217.807 612.239,218.107 613.919,218.107Z" style="fill:rgb(0,106,255);fill-rule:nonzero;"/>
    <path d="M638.879,221.407L638.879,217.387L649.319,217.387L649.319,195.427L638.879,195.427L638.879,191.407L654.119,191.407L654.119,217.387L664.319,217.387L664.319,221.407L638.879,221.407ZM647.699,182.887C647.699,181.807 648.059,180.877 648.779,180.097C649.499,179.317 650.419,178.927 651.539,178.927C652.699,178.927 653.669,179.317 654.449,180.097C655.229,180.877 655.619,181.807 655.619,182.887C655.619,183.927 655.229,184.807 654.449,185.527C653.669,186.247 652.699,186.607 651.539,186.607C650.419,186.607 649.499,186.247 648.779,185.527C648.059,184.807 647.699,183.927 647.699,182.887Z" style="fill:rgb(0,106,255);fill-rule:nonzero;"/>
    <path d="M700.019,222.907C700.019,224.787 699.659,226.437 698.939,227.857C698.219,229.277 697.229,230.447 695.969,231.367C694.709,232.287 693.239,232.977 691.559,233.437C689.879,233.897 688.059,234.127 686.099,234.127C683.739,234.127 681.679,233.887 679.919,233.407C678.159,232.927 676.639,232.307 675.359,231.547L677.639,227.287C677.999,227.607 678.469,227.917 679.049,228.217C679.629,228.517 680.299,228.797 681.059,229.057C681.819,229.317 682.629,229.527 683.489,229.687C684.349,229.847 685.199,229.927 686.039,229.927C687.799,229.927 689.269,229.767 690.449,229.447C691.629,229.127 692.579,228.627 693.299,227.947C694.019,227.267 694.539,226.387 694.859,225.307C695.179,224.227 695.339,222.907 695.339,221.347L695.339,217.987L695.099,217.987C694.179,219.307 692.999,220.327 691.559,221.047C690.119,221.767 688.259,222.127 685.979,222.127C681.419,222.127 678.069,220.857 675.929,218.317C673.789,215.777 672.719,211.827 672.719,206.467C672.719,201.347 674.079,197.477 676.799,194.857C679.519,192.237 683.559,190.927 688.919,190.927C691.399,190.927 693.509,191.097 695.249,191.437C696.989,191.777 698.579,192.207 700.019,192.727L700.019,222.907ZM686.639,218.107C689.079,218.107 690.999,217.477 692.399,216.217C693.799,214.957 694.779,213.027 695.339,210.427L695.339,196.207C693.579,195.367 691.119,194.947 687.959,194.947C684.759,194.947 682.239,195.887 680.399,197.767C678.559,199.647 677.639,202.527 677.639,206.407C677.639,208.127 677.799,209.697 678.119,211.117C678.439,212.537 678.949,213.767 679.649,214.807C680.349,215.847 681.269,216.657 682.409,217.237C683.549,217.817 684.959,218.107 686.639,218.107Z" style="fill:rgb(0,106,255);fill-rule:nonzero;"/>
    <path d="M710.879,221.407L710.879,217.387L721.319,217.387L721.319,195.427L710.879,195.427L710.879,191.407L726.119,191.407L726.119,217.387L736.319,217.387L736.319,221.407L710.879,221.407ZM719.699,182.887C719.699,181.807 720.059,180.877 720.779,180.097C721.499,179.317 722.419,178.927 723.539,178.927C724.699,178.927 725.669,179.317 726.449,180.097C727.229,180.877 727.619,181.807 727.619,182.887C727.619,183.927 727.229,184.807 726.449,185.527C725.669,186.247 724.699,186.607 723.539,186.607C722.419,186.607 721.499,186.247 720.779,185.527C720.059,184.807 719.699,183.927 719.699,182.887Z" style="fill:rgb(0,106,255);fill-rule:nonzero;"/>
    <path d="M742.439,191.407L749.579,191.407L749.579,185.467L754.259,184.147L754.259,191.407L770.279,191.407L770.279,195.427L754.259,195.427L754.259,209.587C754.259,212.507 754.969,214.667 756.389,216.067C757.809,217.467 759.839,218.167 762.479,218.167C764.279,218.167 765.849,217.827 767.189,217.147C768.529,216.467 769.739,215.727 770.819,214.927L772.379,218.467C770.979,219.587 769.309,220.487 767.369,221.167C765.429,221.847 763.439,222.187 761.399,222.187C759.799,222.187 758.289,221.957 756.869,221.497C755.449,221.037 754.199,220.327 753.119,219.367C752.039,218.407 751.179,217.177 750.539,215.677C749.899,214.177 749.579,212.387 749.579,210.307L749.579,195.427L742.439,195.427L742.439,191.407Z" style="fill:rgb(0,106,255);fill-rule:nonzero;"/>
    <path d="M781.559,219.427L779.279,215.827L803.159,201.967L779.339,187.867L781.619,184.147L809.879,201.367L809.879,203.107L781.559,219.427Z" style="fill:rgb(0,106,255);fill-rule:nonzero;"/>
    <path d="M10.803,207.107L10.803,205.367L39.063,188.147L41.343,191.867L17.523,205.967L41.403,219.827L39.123,223.427L10.803,207.107Z" style="fill:rgb(0,204,0);fill-rule:nonzero;"/>
    <path d="M70.383,217.307C70.383,216.027 69.883,215.037 68.883,214.337C67.883,213.637 66.643,213.077 65.163,212.657C63.683,212.237 62.073,211.847 60.333,211.487C58.593,211.127 56.983,210.647 55.503,210.047C54.023,209.447 52.783,208.637 51.783,207.617C50.783,206.597 50.283,205.167 50.283,203.327C50.283,201.807 50.613,200.507 51.273,199.427C51.933,198.347 52.803,197.457 53.883,196.757C54.963,196.057 56.223,195.537 57.663,195.197C59.103,194.857 60.603,194.687 62.163,194.687C64.963,194.687 67.373,195.037 69.393,195.737C71.413,196.437 73.023,197.167 74.223,197.927L72.303,201.707C70.983,200.987 69.553,200.297 68.013,199.637C66.473,198.977 64.543,198.647 62.223,198.647C61.343,198.647 60.473,198.737 59.613,198.917C58.753,199.097 57.973,199.367 57.273,199.727C56.573,200.087 56.013,200.557 55.593,201.137C55.173,201.717 54.963,202.427 54.963,203.267C54.963,204.307 55.463,205.107 56.463,205.667C57.463,206.227 58.703,206.697 60.183,207.077C61.663,207.457 63.273,207.817 65.013,208.157C66.753,208.497 68.363,208.987 69.843,209.627C71.323,210.267 72.563,211.127 73.563,212.207C74.563,213.287 75.063,214.747 75.063,216.587C75.063,219.347 73.973,221.627 71.793,223.427C69.613,225.227 66.343,226.127 61.983,226.127C60.663,226.127 59.363,226.007 58.083,225.767C56.803,225.527 55.603,225.207 54.483,224.807C53.363,224.407 52.343,223.957 51.423,223.457C50.503,222.957 49.743,222.447 49.143,221.927L51.543,218.027C52.023,218.507 52.663,218.997 53.463,219.497C54.263,219.997 55.143,220.447 56.103,220.847C57.063,221.247 58.093,221.567 59.193,221.807C60.293,222.047 61.403,222.167 62.523,222.167C63.603,222.167 64.613,222.077 65.553,221.897C66.493,221.717 67.323,221.437 68.043,221.057C68.763,220.677 69.333,220.177 69.753,219.557C70.173,218.937 70.383,218.187 70.383,217.307Z" style="fill:rgb(0,204,0);fill-rule:nonzero;"/>
    <path d="M86.403,225.407L86.403,221.387L96.843,221.387L96.843,199.427L86.403,199.427L86.403,195.407L101.643,195.407L101.643,221.387L111.843,221.387L111.843,225.407L86.403,225.407ZM95.223,186.887C95.223,185.807 95.583,184.877 96.303,184.097C97.023,183.317 97.943,182.927 99.063,182.927C100.223,182.927 101.193,183.317 101.973,184.097C102.753,184.877 103.143,185.807 103.143,186.887C103.143,187.927 102.753,188.807 101.973,189.527C101.193,190.247 100.223,190.607 99.063,190.607C97.943,190.607 97.023,190.247 96.303,189.527C95.583,188.807 95.223,187.927 95.223,186.887Z" style="fill:rgb(0,204,0);fill-rule:nonzero;"/>
    <path d="M147.543,226.907C147.543,228.787 147.183,230.437 146.463,231.857C145.743,233.277 144.753,234.447 143.493,235.367C142.233,236.287 140.763,236.977 139.083,237.437C137.403,237.897 135.583,238.127 133.623,238.127C131.263,238.127 129.203,237.887 127.443,237.407C125.683,236.927 124.163,236.307 122.883,235.547L125.163,231.287C125.523,231.607 125.993,231.917 126.573,232.217C127.153,232.517 127.823,232.797 128.583,233.057C129.343,233.317 130.153,233.527 131.013,233.687C131.873,233.847 132.723,233.927 133.563,233.927C135.323,233.927 136.793,233.767 137.973,233.447C139.153,233.127 140.103,232.627 140.823,231.947C141.543,231.267 142.063,230.387 142.383,229.307C142.703,228.227 142.863,226.907 142.863,225.347L142.863,221.987L142.623,221.987C141.703,223.307 140.523,224.327 139.083,225.047C137.643,225.767 135.783,226.127 133.503,226.127C128.943,226.127 125.593,224.857 123.453,222.317C121.313,219.777 120.243,215.827 120.243,210.467C120.243,205.347 121.603,201.477 124.323,198.857C127.043,196.237 131.083,194.927 136.443,194.927C138.923,194.927 141.033,195.097 142.773,195.437C144.513,195.777 146.103,196.207 147.543,196.727L147.543,226.907ZM134.163,222.107C136.603,222.107 138.523,221.477 139.923,220.217C141.323,218.957 142.303,217.027 142.863,214.427L142.863,200.207C141.103,199.367 138.643,198.947 135.483,198.947C132.283,198.947 129.763,199.887 127.923,201.767C126.083,203.647 125.163,206.527 125.163,210.407C125.163,212.127 125.323,213.697 125.643,215.117C125.963,216.537 126.473,217.767 127.173,218.807C127.873,219.847 128.793,220.657 129.933,221.237C131.073,221.817 132.483,222.107 134.163,222.107Z" style="fill:rgb(0,204,0);fill-rule:nonzero;"/>
    <path d="M157.683,205.907C157.683,205.547 157.673,205.077 157.653,204.497C157.633,203.917 157.603,203.317 157.563,202.697C157.523,202.077 157.473,201.467 157.413,200.867C157.353,200.267 157.283,199.747 157.203,199.307L153.183,199.307L153.183,195.407L161.223,195.407L161.763,200.267L162.063,200.267C162.463,199.587 162.993,198.917 163.653,198.257C164.313,197.597 165.083,196.997 165.963,196.457C166.843,195.917 167.823,195.487 168.903,195.167C169.983,194.847 171.123,194.687 172.323,194.687C174.163,194.687 175.793,194.887 177.213,195.287C178.633,195.687 179.813,196.397 180.753,197.417C181.693,198.437 182.403,199.817 182.883,201.557C183.363,203.297 183.603,205.507 183.603,208.187L183.603,225.407L178.923,225.407L178.923,209.087C178.923,205.767 178.383,203.267 177.303,201.587C176.223,199.907 174.263,199.067 171.423,199.067C170.383,199.067 169.373,199.277 168.393,199.697C167.413,200.117 166.523,200.667 165.723,201.347C164.923,202.027 164.223,202.817 163.623,203.717C163.023,204.617 162.583,205.567 162.303,206.567L162.303,225.407L157.683,225.407L157.683,205.907Z" style="fill:rgb(0,204,0);fill-rule:nonzero;"/>
    <path d="M193.083,223.427L190.803,219.827L214.683,205.967L190.863,191.867L193.143,188.147L221.403,205.367L221.403,207.107L193.083,223.427Z" style="fill:rgb(0,204,0);fill-rule:nonzero;"/>
    <path d="M67.679,367.107L67.679,365.367L95.939,348.147L98.219,351.867L74.399,365.967L98.279,379.827L95.999,383.427L67.679,367.107Z" style="fill:rgb(255,0,0);fill-rule:nonzero;"/>
    <path d="M122.759,355.407L131.279,355.407L131.279,375.867C131.279,377.827 131.399,379.707 131.639,381.507L135.659,381.507L135.659,385.407L127.679,385.407L127.499,380.307L127.259,380.307C126.219,382.027 124.839,383.427 123.119,384.507C121.399,385.587 119.319,386.127 116.879,386.127C115.039,386.127 113.469,385.917 112.169,385.497C110.869,385.077 109.799,384.347 108.959,383.307C108.119,382.267 107.499,380.877 107.099,379.137C106.699,377.397 106.499,375.227 106.499,372.627L106.499,359.427L102.479,359.427L102.479,355.407L111.179,355.407L111.179,371.667C111.179,373.307 111.249,374.777 111.389,376.077C111.529,377.377 111.819,378.477 112.259,379.377C112.699,380.277 113.349,380.957 114.209,381.417C115.069,381.877 116.219,382.107 117.659,382.107C119.739,382.107 121.549,381.427 123.089,380.067C124.629,378.707 125.799,377.007 126.599,374.967L126.599,359.427L122.759,359.427L122.759,355.407Z" style="fill:rgb(255,0,0);fill-rule:nonzero;"/>
    <path d="M142.559,365.907C142.559,365.547 142.549,365.077 142.529,364.497C142.509,363.917 142.479,363.317 142.439,362.697C142.399,362.077 142.349,361.467 142.289,360.867C142.229,360.267 142.159,359.747 142.079,359.307L138.059,359.307L138.059,355.407L146.099,355.407L146.639,360.267L146.939,360.267C147.339,359.587 147.869,358.917 148.529,358.257C149.189,357.597 149.959,356.997 150.839,356.457C151.719,355.917 152.699,355.487 153.779,355.167C154.859,354.847 155.999,354.687 157.199,354.687C159.039,354.687 160.669,354.887 162.089,355.287C163.509,355.687 164.689,356.397 165.629,357.417C166.569,358.437 167.279,359.817 167.759,361.557C168.239,363.297 168.479,365.507 168.479,368.187L168.479,385.407L163.799,385.407L163.799,369.087C163.799,365.767 163.259,363.267 162.179,361.587C161.099,359.907 159.139,359.067 156.299,359.067C155.259,359.067 154.249,359.277 153.269,359.697C152.289,360.117 151.399,360.667 150.599,361.347C149.799,362.027 149.099,362.817 148.499,363.717C147.899,364.617 147.459,365.567 147.179,366.567L147.179,385.407L142.559,385.407L142.559,365.907Z" style="fill:rgb(255,0,0);fill-rule:nonzero;"/>
    <path d="M199.259,377.307C199.259,376.027 198.759,375.037 197.759,374.337C196.759,373.637 195.519,373.077 194.039,372.657C192.559,372.237 190.949,371.847 189.209,371.487C187.469,371.127 185.859,370.647 184.379,370.047C182.899,369.447 181.659,368.637 180.659,367.617C179.659,366.597 179.159,365.167 179.159,363.327C179.159,361.807 179.489,360.507 180.149,359.427C180.809,358.347 181.679,357.457 182.759,356.757C183.839,356.057 185.099,355.537 186.539,355.197C187.979,354.857 189.479,354.687 191.039,354.687C193.839,354.687 196.249,355.037 198.269,355.737C200.289,356.437 201.899,357.167 203.099,357.927L201.179,361.707C199.859,360.987 198.429,360.297 196.889,359.637C195.349,358.977 193.419,358.647 191.099,358.647C190.219,358.647 189.349,358.737 188.489,358.917C187.629,359.097 186.849,359.367 186.149,359.727C185.449,360.087 184.889,360.557 184.469,361.137C184.049,361.717 183.839,362.427 183.839,363.267C183.839,364.307 184.339,365.107 185.339,365.667C186.339,366.227 187.579,366.697 189.059,367.077C190.539,367.457 192.149,367.817 193.889,368.157C195.629,368.497 197.239,368.987 198.719,369.627C200.199,370.267 201.439,371.127 202.439,372.207C203.439,373.287 203.939,374.747 203.939,376.587C203.939,379.347 202.849,381.627 200.669,383.427C198.489,385.227 195.219,386.127 190.859,386.127C189.539,386.127 188.239,386.007 186.959,385.767C185.679,385.527 184.479,385.207 183.359,384.807C182.239,384.407 181.219,383.957 180.299,383.457C179.379,382.957 178.619,382.447 178.019,381.927L180.419,378.027C180.899,378.507 181.539,378.997 182.339,379.497C183.139,379.997 184.019,380.447 184.979,380.847C185.939,381.247 186.969,381.567 188.069,381.807C189.169,382.047 190.279,382.167 191.399,382.167C192.479,382.167 193.489,382.077 194.429,381.897C195.369,381.717 196.199,381.437 196.919,381.057C197.639,380.677 198.209,380.177 198.629,379.557C199.049,378.937 199.259,378.187 199.259,377.307Z" style="fill:rgb(255,0,0);fill-rule:nonzero;"/>
    <path d="M215.279,385.407L215.279,381.387L225.719,381.387L225.719,359.427L215.279,359.427L215.279,355.407L230.519,355.407L230.519,381.387L240.719,381.387L240.719,385.407L215.279,385.407ZM224.099,346.887C224.099,345.807 224.459,344.877 225.179,344.097C225.899,343.317 226.819,342.927 227.939,342.927C229.099,342.927 230.069,343.317 230.849,344.097C231.629,344.877 232.019,345.807 232.019,346.887C232.019,347.927 231.629,348.807 230.849,349.527C230.069,350.247 229.099,350.607 227.939,350.607C226.819,350.607 225.899,350.247 225.179,349.527C224.459,348.807 224.099,347.927 224.099,346.887Z" style="fill:rgb(255,0,0);fill-rule:nonzero;"/>
    <path d="M276.419,386.907C276.419,388.787 276.059,390.437 275.339,391.857C274.619,393.277 273.629,394.447 272.369,395.367C271.109,396.287 269.639,396.977 267.959,397.437C266.279,397.897 264.459,398.127 262.499,398.127C260.139,398.127 258.079,397.887 256.319,397.407C254.559,396.927 253.039,396.307 251.759,395.547L254.039,391.287C254.399,391.607 254.869,391.917 255.449,392.217C256.029,392.517 256.699,392.797 257.459,393.057C258.219,393.317 259.029,393.527 259.889,393.687C260.749,393.847 261.599,393.927 262.439,393.927C264.199,393.927 265.669,393.767 266.849,393.447C268.029,393.127 268.979,392.627 269.699,391.947C270.419,391.267 270.939,390.387 271.259,389.307C271.579,388.227 271.739,386.907 271.739,385.347L271.739,381.987L271.499,381.987C270.579,383.307 269.399,384.327 267.959,385.047C266.519,385.767 264.659,386.127 262.379,386.127C257.819,386.127 254.469,384.857 252.329,382.317C250.189,379.777 249.119,375.827 249.119,370.467C249.119,365.347 250.479,361.477 253.199,358.857C255.919,356.237 259.959,354.927 265.319,354.927C267.799,354.927 269.909,355.097 271.649,355.437C273.389,355.777 274.979,356.207 276.419,356.727L276.419,386.907ZM263.039,382.107C265.479,382.107 267.399,381.477 268.799,380.217C270.199,378.957 271.179,377.027 271.739,374.427L271.739,360.207C269.979,359.367 267.519,358.947 264.359,358.947C261.159,358.947 258.639,359.887 256.799,361.767C254.959,363.647 254.039,366.527 254.039,370.407C254.039,372.127 254.199,373.697 254.519,375.117C254.839,376.537 255.349,377.767 256.049,378.807C256.749,379.847 257.669,380.657 258.809,381.237C259.949,381.817 261.359,382.107 263.039,382.107Z" style="fill:rgb(255,0,0);fill-rule:nonzero;"/>
    <path d="M286.559,365.907C286.559,365.547 286.549,365.077 286.529,364.497C286.509,363.917 286.479,363.317 286.439,362.697C286.399,362.077 286.349,361.467 286.289,360.867C286.229,360.267 286.159,359.747 286.079,359.307L282.059,359.307L282.059,355.407L290.099,355.407L290.639,360.267L290.939,360.267C291.339,359.587 291.869,358.917 292.529,358.257C293.189,357.597 293.959,356.997 294.839,356.457C295.719,355.917 296.699,355.487 297.779,355.167C298.859,354.847 299.999,354.687 301.199,354.687C303.039,354.687 304.669,354.887 306.089,355.287C307.509,355.687 308.689,356.397 309.629,357.417C310.569,358.437 311.279,359.817 311.759,361.557C312.239,363.297 312.479,365.507 312.479,368.187L312.479,385.407L307.799,385.407L307.799,369.087C307.799,365.767 307.259,363.267 306.179,361.587C305.099,359.907 303.139,359.067 300.299,359.067C299.259,359.067 298.249,359.277 297.269,359.697C296.289,360.117 295.399,360.667 294.599,361.347C293.799,362.027 293.099,362.817 292.499,363.717C291.899,364.617 291.459,365.567 291.179,366.567L291.179,385.407L286.559,385.407L286.559,365.907Z" style="fill:rgb(255,0,0);fill-rule:nonzero;"/>
    <path d="M348.719,381.627C347.999,382.267 347.149,382.867 346.169,383.427C345.189,383.987 344.119,384.467 342.959,384.867C341.799,385.267 340.589,385.577 339.329,385.797C338.069,386.017 336.799,386.127 335.519,386.127C333.119,386.127 330.999,385.757 329.159,385.017C327.319,384.277 325.779,383.217 324.539,381.837C323.299,380.457 322.359,378.807 321.719,376.887C321.079,374.967 320.759,372.807 320.759,370.407C320.759,367.887 321.109,365.647 321.809,363.687C322.509,361.727 323.519,360.087 324.839,358.767C326.159,357.447 327.759,356.437 329.639,355.737C331.519,355.037 333.619,354.687 335.939,354.687C337.619,354.687 339.279,354.907 340.919,355.347C342.559,355.787 344.009,356.617 345.269,357.837C346.529,359.057 347.499,360.737 348.179,362.877C348.859,365.017 349.099,367.787 348.899,371.187L325.679,371.187C325.679,374.787 326.649,377.477 328.589,379.257C330.529,381.037 333.119,381.927 336.359,381.927C337.439,381.927 338.509,381.797 339.569,381.537C340.629,381.277 341.639,380.967 342.599,380.607C343.559,380.247 344.409,379.847 345.149,379.407C345.889,378.967 346.459,378.567 346.859,378.207L348.719,381.627ZM336.059,358.647C334.739,358.647 333.489,358.787 332.309,359.067C331.129,359.347 330.089,359.817 329.189,360.477C328.289,361.137 327.549,361.997 326.969,363.057C326.389,364.117 326.019,365.427 325.859,366.987L344.519,366.987C344.319,364.347 343.469,362.297 341.969,360.837C340.469,359.377 338.499,358.647 336.059,358.647Z" style="fill:rgb(255,0,0);fill-rule:nonzero;"/>
    <path d="M373.919,343.407L383.639,343.407L383.639,375.147C383.639,375.507 383.659,375.957 383.699,376.497C383.739,377.037 383.789,377.607 383.849,378.207C383.909,378.807 383.979,379.397 384.059,379.977C384.139,380.557 384.219,381.067 384.299,381.507L388.319,381.507L388.319,385.407L380.339,385.407L379.739,380.787L379.499,380.787C378.619,382.307 377.309,383.577 375.569,384.597C373.829,385.617 371.819,386.127 369.539,386.127C365.019,386.127 361.689,384.857 359.549,382.317C357.409,379.777 356.339,375.827 356.339,370.467C356.339,367.947 356.699,365.717 357.419,363.777C358.139,361.837 359.169,360.217 360.509,358.917C361.849,357.617 363.459,356.627 365.339,355.947C367.219,355.267 369.319,354.927 371.639,354.927C372.479,354.927 373.229,354.947 373.889,354.987C374.549,355.027 375.159,355.087 375.719,355.167C376.279,355.247 376.809,355.357 377.309,355.497C377.809,355.637 378.359,355.787 378.959,355.947L378.959,347.427L373.919,347.427L373.919,343.407ZM370.319,382.107C372.759,382.107 374.679,381.477 376.079,380.217C377.479,378.957 378.439,377.067 378.959,374.547L378.959,360.627C378.079,360.027 377.089,359.587 375.989,359.307C374.889,359.027 373.439,358.887 371.639,358.887C368.439,358.887 365.919,359.817 364.079,361.677C362.239,363.537 361.319,366.467 361.319,370.467C361.319,372.107 361.469,373.637 361.769,375.057C362.069,376.477 362.569,377.707 363.269,378.747C363.969,379.787 364.899,380.607 366.059,381.207C367.219,381.807 368.639,382.107 370.319,382.107Z" style="fill:rgb(255,0,0);fill-rule:nonzero;"/>
    <path d="M431.279,385.407L431.279,381.387L441.719,381.387L441.719,359.427L431.279,359.427L431.279,355.407L446.519,355.407L446.519,381.387L456.719,381.387L456.719,385.407L431.279,385.407ZM440.099,346.887C440.099,345.807 440.459,344.877 441.179,344.097C441.899,343.317 442.819,342.927 443.939,342.927C445.099,342.927 446.069,343.317 446.849,344.097C447.629,344.877 448.019,345.807 448.019,346.887C448.019,347.927 447.629,348.807 446.849,349.527C446.069,350.247 445.099,350.607 443.939,350.607C442.819,350.607 441.899,350.247 441.179,349.527C440.459,348.807 440.099,347.927 440.099,346.887Z" style="fill:rgb(255,0,0);fill-rule:nonzero;"/>
    <path d="M466.559,365.907C466.559,365.547 466.549,365.077 466.529,364.497C466.509,363.917 466.479,363.317 466.439,362.697C466.399,362.077 466.349,361.467 466.289,360.867C466.229,360.267 466.159,359.747 466.079,359.307L462.059,359.307L462.059,355.407L470.099,355.407L470.639,360.267L470.939,360.267C471.339,359.587 471.869,358.917 472.529,358.257C473.189,357.597 473.959,356.997 474.839,356.457C475.719,355.917 476.699,355.487 477.779,355.167C478.859,354.847 479.999,354.687 481.199,354.687C483.039,354.687 484.669,354.887 486.089,355.287C487.509,355.687 488.689,356.397 489.629,357.417C490.569,358.437 491.279,359.817 491.759,361.557C492.239,363.297 492.479,365.507 492.479,368.187L492.479,385.407L487.799,385.407L487.799,369.087C487.799,365.767 487.259,363.267 486.179,361.587C485.099,359.907 483.139,359.067 480.299,359.067C479.259,359.067 478.249,359.277 477.269,359.697C476.289,360.117 475.399,360.667 474.599,361.347C473.799,362.027 473.099,362.817 472.499,363.717C471.899,364.617 471.459,365.567 471.179,366.567L471.179,385.407L466.559,385.407L466.559,365.907Z" style="fill:rgb(255,0,0);fill-rule:nonzero;"/>
    <path d="M498.839,355.407L505.979,355.407L505.979,349.467L510.659,348.147L510.659,355.407L526.679,355.407L526.679,359.427L510.659,359.427L510.659,373.587C510.659,376.507 511.369,378.667 512.789,380.067C514.209,381.467 516.239,382.167 518.879,382.167C520.679,382.167 522.249,381.827 523.589,381.147C524.929,380.467 526.139,379.727 527.219,378.927L528.779,382.467C527.379,383.587 525.709,384.487 523.769,385.167C521.829,385.847 519.839,386.187 517.799,386.187C516.199,386.187 514.689,385.957 513.269,385.497C511.849,385.037 510.599,384.327 509.519,383.367C508.439,382.407 507.579,381.177 506.939,379.677C506.299,378.177 505.979,376.387 505.979,374.307L505.979,359.427L498.839,359.427L498.839,355.407Z" style="fill:rgb(255,0,0);fill-rule:nonzero;"/>
    <path d="M564.719,381.627C563.999,382.267 563.149,382.867 562.169,383.427C561.189,383.987 560.119,384.467 558.959,384.867C557.799,385.267 556.589,385.577 555.329,385.797C554.069,386.017 552.799,386.127 551.519,386.127C549.119,386.127 546.999,385.757 545.159,385.017C543.319,384.277 541.779,383.217 540.539,381.837C539.299,380.457 538.359,378.807 537.719,376.887C537.079,374.967 536.759,372.807 536.759,370.407C536.759,367.887 537.109,365.647 537.809,363.687C538.509,361.727 539.519,360.087 540.839,358.767C542.159,357.447 543.759,356.437 545.639,355.737C547.519,355.037 549.619,354.687 551.939,354.687C553.619,354.687 555.279,354.907 556.919,355.347C558.559,355.787 560.009,356.617 561.269,357.837C562.529,359.057 563.499,360.737 564.179,362.877C564.859,365.017 565.099,367.787 564.899,371.187L541.679,371.187C541.679,374.787 542.649,377.477 544.589,379.257C546.529,381.037 549.119,381.927 552.359,381.927C553.439,381.927 554.509,381.797 555.569,381.537C556.629,381.277 557.639,380.967 558.599,380.607C559.559,380.247 560.409,379.847 561.149,379.407C561.889,378.967 562.459,378.567 562.859,378.207L564.719,381.627ZM552.059,358.647C550.739,358.647 549.489,358.787 548.309,359.067C547.129,359.347 546.089,359.817 545.189,360.477C544.289,361.137 543.549,361.997 542.969,363.057C542.389,364.117 542.019,365.427 541.859,366.987L560.519,366.987C560.319,364.347 559.469,362.297 557.969,360.837C556.469,359.377 554.499,358.647 552.059,358.647Z" style="fill:rgb(255,0,0);fill-rule:nonzero;"/>
    <path d="M600.419,386.907C600.419,388.787 600.059,390.437 599.339,391.857C598.619,393.277 597.629,394.447 596.369,395.367C595.109,396.287 593.639,396.977 591.959,397.437C590.279,397.897 588.459,398.127 586.499,398.127C584.139,398.127 582.079,397.887 580.319,397.407C578.559,396.927 577.039,396.307 575.759,395.547L578.039,391.287C578.399,391.607 578.869,391.917 579.449,392.217C580.029,392.517 580.699,392.797 581.459,393.057C582.219,393.317 583.029,393.527 583.889,393.687C584.749,393.847 585.599,393.927 586.439,393.927C588.199,393.927 589.669,393.767 590.849,393.447C592.029,393.127 592.979,392.627 593.699,391.947C594.419,391.267 594.939,390.387 595.259,389.307C595.579,388.227 595.739,386.907 595.739,385.347L595.739,381.987L595.499,381.987C594.579,383.307 593.399,384.327 591.959,385.047C590.519,385.767 588.659,386.127 586.379,386.127C581.819,386.127 578.469,384.857 576.329,382.317C574.189,379.777 573.119,375.827 573.119,370.467C573.119,365.347 574.479,361.477 577.199,358.857C579.919,356.237 583.959,354.927 589.319,354.927C591.799,354.927 593.909,355.097 595.649,355.437C597.389,355.777 598.979,356.207 600.419,356.727L600.419,386.907ZM587.039,382.107C589.479,382.107 591.399,381.477 592.799,380.217C594.199,378.957 595.179,377.027 595.739,374.427L595.739,360.207C593.979,359.367 591.519,358.947 588.359,358.947C585.159,358.947 582.639,359.887 580.799,361.767C578.959,363.647 578.039,366.527 578.039,370.407C578.039,372.127 578.199,373.697 578.519,375.117C578.839,376.537 579.349,377.767 580.049,378.807C580.749,379.847 581.669,380.657 582.809,381.237C583.949,381.817 585.359,382.107 587.039,382.107Z" style="fill:rgb(255,0,0);fill-rule:nonzero;"/>
    <path d="M636.719,381.627C635.999,382.267 635.149,382.867 634.169,383.427C633.189,383.987 632.119,384.467 630.959,384.867C629.799,385.267 628.589,385.577 627.329,385.797C626.069,386.017 624.799,386.127 623.519,386.127C621.119,386.127 618.999,385.757 617.159,385.017C615.319,384.277 613.779,383.217 612.539,381.837C611.299,380.457 610.359,378.807 609.719,376.887C609.079,374.967 608.759,372.807 608.759,370.407C608.759,367.887 609.109,365.647 609.809,363.687C610.509,361.727 611.519,360.087 612.839,358.767C614.159,357.447 615.759,356.437 617.639,355.737C619.519,355.037 621.619,354.687 623.939,354.687C625.619,354.687 627.279,354.907 628.919,355.347C630.559,355.787 632.009,356.617 633.269,357.837C634.529,359.057 635.499,360.737 636.179,362.877C636.859,365.017 637.099,367.787 636.899,371.187L613.679,371.187C613.679,374.787 614.649,377.477 616.589,379.257C618.529,381.037 621.119,381.927 624.359,381.927C625.439,381.927 626.509,381.797 627.569,381.537C628.629,381.277 629.639,380.967 630.599,380.607C631.559,380.247 632.409,379.847 633.149,379.407C633.889,378.967 634.459,378.567 634.859,378.207L636.719,381.627ZM624.059,358.647C622.739,358.647 621.489,358.787 620.309,359.067C619.129,359.347 618.089,359.817 617.189,360.477C616.289,361.137 615.549,361.997 614.969,363.057C614.389,364.117 614.019,365.427 613.859,366.987L632.519,366.987C632.319,364.347 631.469,362.297 629.969,360.837C628.469,359.377 626.499,358.647 624.059,358.647Z" style="fill:rgb(255,0,0);fill-rule:nonzero;"/>
    <path d="M644.939,385.407L644.939,381.387L653.039,381.387L653.039,359.427L644.939,359.427L644.939,355.407L656.159,355.407L657.119,359.307L657.419,359.307C658.779,358.067 660.299,357.007 661.979,356.127C663.659,355.247 665.659,354.807 667.979,354.807C669.339,354.807 670.429,355.067 671.249,355.587C672.069,356.107 672.709,356.867 673.169,357.867C673.629,358.867 673.939,360.077 674.099,361.497C674.259,362.917 674.339,364.527 674.339,366.327L670.139,366.387C670.139,363.827 669.889,361.947 669.389,360.747C668.889,359.547 667.979,358.947 666.659,358.947C665.419,358.947 664.299,359.127 663.299,359.487C662.299,359.847 661.429,360.287 660.689,360.807C659.949,361.327 659.319,361.847 658.799,362.367C658.279,362.887 657.899,363.327 657.659,363.687L657.659,381.387L669.179,381.387L669.179,385.407L644.939,385.407Z" style="fill:rgb(255,0,0);fill-rule:nonzero;"/>
    <path d="M681.959,383.427L679.679,379.827L703.559,365.967L679.739,351.867L682.019,348.147L710.279,365.367L710.279,367.107L681.959,383.427Z" style="fill:rgb(255,0,0);fill-rule:nonzero;"/>
    <g transform="matrix(1,0,0,1,-10801,-4982.18)">
        <g transform="matrix(60,0,0,60,10902,5022.66)">
            <path d="M0.045,-0.305L0.045,-0.334L0.516,-0.621L0.554,-0.559L0.157,-0.324L0.555,-0.093L0.517,-0.033L0.045,-0.305Z" style="fill-rule:nonzero;"/>
        </g>
        <g transform="matrix(60,0,0,60,10938,5022.66)">
            <path d="M0.402,-0.138C0.402,-0.151 0.394,-0.162 0.378,-0.17C0.361,-0.178 0.341,-0.185 0.317,-0.192C0.293,-0.199 0.267,-0.206 0.238,-0.213C0.209,-0.22 0.183,-0.229 0.159,-0.242C0.135,-0.254 0.115,-0.27 0.099,-0.289C0.082,-0.308 0.074,-0.332 0.074,-0.362C0.074,-0.387 0.08,-0.408 0.091,-0.427C0.101,-0.446 0.117,-0.462 0.136,-0.475C0.155,-0.488 0.177,-0.497 0.204,-0.504C0.23,-0.511 0.258,-0.514 0.289,-0.514C0.322,-0.514 0.35,-0.512 0.375,-0.507C0.4,-0.502 0.421,-0.497 0.44,-0.49C0.458,-0.483 0.474,-0.476 0.487,-0.468C0.5,-0.459 0.511,-0.452 0.52,-0.445L0.465,-0.356C0.455,-0.362 0.444,-0.368 0.431,-0.375C0.418,-0.381 0.404,-0.387 0.39,-0.392C0.375,-0.397 0.36,-0.402 0.345,-0.405C0.329,-0.408 0.313,-0.41 0.298,-0.41C0.27,-0.41 0.247,-0.406 0.23,-0.399C0.213,-0.392 0.204,-0.38 0.204,-0.365C0.204,-0.353 0.212,-0.343 0.229,-0.336C0.245,-0.329 0.265,-0.322 0.289,-0.316C0.313,-0.309 0.339,-0.302 0.368,-0.295C0.397,-0.288 0.423,-0.278 0.447,-0.267C0.471,-0.255 0.491,-0.24 0.508,-0.221C0.524,-0.202 0.532,-0.178 0.532,-0.149C0.532,-0.098 0.514,-0.058 0.477,-0.03C0.44,-0.001 0.385,0.014 0.312,0.014C0.255,0.014 0.205,0.006 0.164,-0.012C0.122,-0.028 0.088,-0.048 0.063,-0.071L0.123,-0.165C0.132,-0.158 0.143,-0.15 0.158,-0.141C0.172,-0.132 0.188,-0.123 0.206,-0.116C0.224,-0.109 0.243,-0.102 0.264,-0.098C0.284,-0.092 0.304,-0.09 0.324,-0.09C0.345,-0.09 0.364,-0.094 0.379,-0.101C0.394,-0.108 0.402,-0.121 0.402,-0.138Z" style="fill-rule:nonzero;"/>
        </g>
        <g transform="matrix(60,0,0,60,10974,5022.66)">
            <path d="M0.059,-0.11L0.235,-0.11L0.235,-0.39L0.059,-0.39L0.059,-0.5L0.365,-0.5L0.365,-0.11L0.55,-0.11L0.55,-0L0.059,-0L0.059,-0.11ZM0.211,-0.636C0.211,-0.657 0.219,-0.674 0.234,-0.689C0.249,-0.704 0.271,-0.711 0.298,-0.711C0.326,-0.711 0.348,-0.704 0.365,-0.689C0.382,-0.674 0.39,-0.657 0.39,-0.636C0.39,-0.615 0.382,-0.597 0.365,-0.584C0.348,-0.57 0.326,-0.563 0.298,-0.563C0.271,-0.563 0.249,-0.57 0.234,-0.584C0.219,-0.597 0.211,-0.615 0.211,-0.636Z" style="fill-rule:nonzero;"/>
        </g>
        <g transform="matrix(60,0,0,60,11010,5022.66)">
            <path d="M0.53,-0C0.53,0.036 0.524,0.067 0.512,0.094C0.499,0.121 0.482,0.143 0.461,0.161C0.439,0.178 0.413,0.191 0.384,0.2C0.354,0.208 0.321,0.212 0.286,0.212C0.262,0.212 0.24,0.21 0.219,0.207C0.198,0.203 0.178,0.198 0.161,0.192C0.143,0.186 0.127,0.18 0.114,0.173C0.101,0.166 0.09,0.159 0.082,0.152L0.132,0.06C0.148,0.071 0.167,0.081 0.19,0.091C0.212,0.1 0.24,0.105 0.274,0.105C0.316,0.105 0.348,0.095 0.37,0.076C0.392,0.057 0.403,0.029 0.403,-0.007L0.403,-0.039L0.399,-0.039C0.387,-0.023 0.369,-0.011 0.346,-0.004C0.323,0.004 0.296,0.008 0.265,0.008C0.233,0.008 0.204,0.003 0.177,-0.007C0.15,-0.017 0.126,-0.032 0.106,-0.053C0.086,-0.073 0.07,-0.099 0.06,-0.13C0.049,-0.161 0.043,-0.198 0.043,-0.24C0.043,-0.284 0.05,-0.323 0.063,-0.357C0.076,-0.391 0.094,-0.42 0.118,-0.443C0.141,-0.466 0.169,-0.483 0.203,-0.495C0.236,-0.506 0.272,-0.512 0.313,-0.512C0.334,-0.512 0.356,-0.511 0.377,-0.51C0.398,-0.508 0.419,-0.506 0.438,-0.503C0.456,-0.5 0.474,-0.497 0.49,-0.494C0.506,-0.49 0.519,-0.486 0.53,-0.482L0.53,-0ZM0.29,-0.096C0.315,-0.096 0.338,-0.102 0.359,-0.113C0.379,-0.124 0.393,-0.141 0.4,-0.164L0.4,-0.389C0.391,-0.393 0.378,-0.396 0.361,-0.399C0.343,-0.401 0.327,-0.402 0.312,-0.402C0.293,-0.402 0.276,-0.399 0.26,-0.393C0.243,-0.387 0.229,-0.378 0.217,-0.365C0.204,-0.352 0.195,-0.335 0.188,-0.316C0.181,-0.296 0.177,-0.272 0.177,-0.245C0.177,-0.221 0.18,-0.2 0.186,-0.181C0.192,-0.162 0.2,-0.147 0.211,-0.134C0.222,-0.121 0.234,-0.112 0.247,-0.106C0.26,-0.099 0.275,-0.096 0.29,-0.096Z" style="fill-rule:nonzero;"/>
        </g>
        <g transform="matrix(60,0,0,60,11046,5022.66)">
            <path d="M0.012,-0.5L0.187,-0.5L0.202,-0.434L0.206,-0.434C0.221,-0.455 0.243,-0.474 0.272,-0.49C0.301,-0.506 0.335,-0.514 0.375,-0.514C0.4,-0.514 0.423,-0.511 0.445,-0.504C0.466,-0.497 0.485,-0.486 0.5,-0.471C0.515,-0.456 0.528,-0.435 0.537,-0.409C0.546,-0.382 0.55,-0.35 0.55,-0.311L0.55,-0L0.42,-0L0.42,-0.284C0.42,-0.325 0.411,-0.354 0.393,-0.372C0.374,-0.39 0.351,-0.399 0.323,-0.399C0.298,-0.399 0.276,-0.392 0.256,-0.378C0.235,-0.363 0.221,-0.345 0.214,-0.324L0.214,-0L0.084,-0L0.084,-0.39L0.012,-0.39L0.012,-0.5Z" style="fill-rule:nonzero;"/>
        </g>
        <g transform="matrix(60,0,0,60,11082,5022.66)">
            <path d="M0.534,-0.053C0.525,-0.045 0.514,-0.037 0.501,-0.03C0.487,-0.022 0.471,-0.015 0.453,-0.008C0.434,-0.001 0.414,0.004 0.392,0.008C0.37,0.012 0.347,0.014 0.322,0.014C0.279,0.014 0.241,0.008 0.208,-0.004C0.174,-0.016 0.145,-0.034 0.122,-0.057C0.099,-0.08 0.081,-0.107 0.069,-0.14C0.056,-0.172 0.05,-0.209 0.05,-0.25C0.05,-0.294 0.057,-0.333 0.071,-0.366C0.085,-0.399 0.104,-0.426 0.129,-0.448C0.153,-0.47 0.181,-0.487 0.214,-0.498C0.247,-0.509 0.282,-0.514 0.32,-0.514C0.345,-0.514 0.372,-0.511 0.399,-0.504C0.426,-0.497 0.45,-0.486 0.473,-0.47C0.496,-0.453 0.514,-0.431 0.529,-0.404C0.543,-0.377 0.55,-0.342 0.55,-0.3C0.55,-0.271 0.547,-0.24 0.54,-0.207L0.18,-0.207C0.181,-0.186 0.185,-0.168 0.194,-0.153C0.202,-0.138 0.213,-0.126 0.227,-0.117C0.24,-0.108 0.256,-0.101 0.274,-0.097C0.291,-0.092 0.31,-0.09 0.33,-0.09C0.37,-0.09 0.403,-0.095 0.429,-0.104C0.454,-0.113 0.475,-0.125 0.491,-0.138L0.534,-0.053ZM0.318,-0.41C0.301,-0.41 0.284,-0.408 0.269,-0.403C0.254,-0.398 0.24,-0.392 0.228,-0.383C0.215,-0.374 0.205,-0.362 0.197,-0.349C0.189,-0.336 0.184,-0.321 0.183,-0.304L0.429,-0.304C0.429,-0.337 0.42,-0.363 0.402,-0.382C0.383,-0.401 0.355,-0.41 0.318,-0.41Z" style="fill-rule:nonzero;"/>
        </g>
        <g transform="matrix(60,0,0,60,11118,5022.66)">
            <path d="M0.306,-0.7L0.515,-0.7L0.515,-0.268C0.515,-0.218 0.518,-0.169 0.523,-0.12C0.523,-0.117 0.523,-0.113 0.524,-0.11L0.588,-0.11L0.588,-0L0.427,-0L0.414,-0.064L0.41,-0.064C0.403,-0.052 0.394,-0.041 0.383,-0.032C0.372,-0.023 0.359,-0.015 0.345,-0.008C0.331,-0 0.316,0.005 0.299,0.009C0.282,0.012 0.266,0.014 0.249,0.014C0.218,0.014 0.188,0.009 0.161,-0.001C0.133,-0.011 0.109,-0.027 0.088,-0.048C0.067,-0.069 0.051,-0.095 0.039,-0.128C0.027,-0.16 0.021,-0.198 0.021,-0.242C0.021,-0.285 0.028,-0.323 0.041,-0.356C0.054,-0.389 0.071,-0.418 0.095,-0.441C0.118,-0.464 0.145,-0.481 0.176,-0.494C0.207,-0.506 0.242,-0.512 0.279,-0.512C0.3,-0.512 0.319,-0.511 0.338,-0.509C0.356,-0.506 0.372,-0.502 0.385,-0.497L0.385,-0.59L0.306,-0.59L0.306,-0.7ZM0.279,-0.096C0.304,-0.096 0.327,-0.102 0.347,-0.115C0.366,-0.127 0.379,-0.145 0.385,-0.168L0.385,-0.38C0.376,-0.387 0.363,-0.393 0.347,-0.397C0.33,-0.4 0.313,-0.402 0.295,-0.402C0.277,-0.402 0.26,-0.399 0.243,-0.393C0.226,-0.387 0.211,-0.378 0.198,-0.365C0.185,-0.352 0.174,-0.335 0.167,-0.314C0.159,-0.293 0.155,-0.268 0.155,-0.238C0.155,-0.195 0.166,-0.161 0.187,-0.135C0.208,-0.109 0.239,-0.096 0.279,-0.096Z" style="fill-rule:nonzero;"/>
        </g>
        <g transform="matrix(60,0,0,60,11190,5022.66)">
            <path d="M0.059,-0.11L0.235,-0.11L0.235,-0.39L0.059,-0.39L0.059,-0.5L0.365,-0.5L0.365,-0.11L0.55,-0.11L0.55,-0L0.059,-0L0.059,-0.11ZM0.211,-0.636C0.211,-0.657 0.219,-0.674 0.234,-0.689C0.249,-0.704 0.271,-0.711 0.298,-0.711C0.326,-0.711 0.348,-0.704 0.365,-0.689C0.382,-0.674 0.39,-0.657 0.39,-0.636C0.39,-0.615 0.382,-0.597 0.365,-0.584C0.348,-0.57 0.326,-0.563 0.298,-0.563C0.271,-0.563 0.249,-0.57 0.234,-0.584C0.219,-0.597 0.211,-0.615 0.211,-0.636Z" style="fill-rule:nonzero;"/>
        </g>
        <g transform="matrix(60,0,0,60,11226,5022.66)">
            <path d="M0.012,-0.5L0.187,-0.5L0.202,-0.434L0.206,-0.434C0.221,-0.455 0.243,-0.474 0.272,-0.49C0.301,-0.506 0.335,-0.514 0.375,-0.514C0.4,-0.514 0.423,-0.511 0.445,-0.504C0.466,-0.497 0.485,-0.486 0.5,-0.471C0.515,-0.456 0.528,-0.435 0.537,-0.409C0.546,-0.382 0.55,-0.35 0.55,-0.311L0.55,-0L0.42,-0L0.42,-0.284C0.42,-0.325 0.411,-0.354 0.393,-0.372C0.374,-0.39 0.351,-0.399 0.323,-0.399C0.298,-0.399 0.276,-0.392 0.256,-0.378C0.235,-0.363 0.221,-0.345 0.214,-0.324L0.214,-0L0.084,-0L0.084,-0.39L0.012,-0.39L0.012,-0.5Z" style="fill-rule:nonzero;"/>
        </g>
        <g transform="matrix(60,0,0,60,11262,5022.66)">
            <path d="M0.116,-0.39L0.017,-0.39L0.017,-0.5L0.116,-0.5L0.116,-0.614L0.246,-0.651L0.246,-0.5L0.508,-0.5L0.508,-0.39L0.246,-0.39L0.246,-0.247C0.246,-0.196 0.256,-0.159 0.275,-0.136C0.294,-0.113 0.321,-0.101 0.356,-0.101C0.374,-0.101 0.39,-0.103 0.405,-0.108C0.42,-0.112 0.433,-0.117 0.445,-0.124C0.456,-0.131 0.467,-0.138 0.477,-0.146C0.486,-0.154 0.495,-0.161 0.503,-0.168L0.563,-0.078C0.552,-0.065 0.538,-0.053 0.521,-0.042C0.503,-0.031 0.485,-0.021 0.466,-0.013C0.446,-0.004 0.425,0.002 0.404,0.007C0.383,0.012 0.362,0.014 0.341,0.014C0.266,0.014 0.21,-0.007 0.173,-0.049C0.135,-0.09 0.116,-0.156 0.116,-0.247L0.116,-0.39Z" style="fill-rule:nonzero;"/>
        </g>
        <g transform="matrix(60,0,0,60,11298,5022.66)">
            <path d="M0.534,-0.053C0.525,-0.045 0.514,-0.037 0.501,-0.03C0.487,-0.022 0.471,-0.015 0.453,-0.008C0.434,-0.001 0.414,0.004 0.392,0.008C0.37,0.012 0.347,0.014 0.322,0.014C0.279,0.014 0.241,0.008 0.208,-0.004C0.174,-0.016 0.145,-0.034 0.122,-0.057C0.099,-0.08 0.081,-0.107 0.069,-0.14C0.056,-0.172 0.05,-0.209 0.05,-0.25C0.05,-0.294 0.057,-0.333 0.071,-0.366C0.085,-0.399 0.104,-0.426 0.129,-0.448C0.153,-0.47 0.181,-0.487 0.214,-0.498C0.247,-0.509 0.282,-0.514 0.32,-0.514C0.345,-0.514 0.372,-0.511 0.399,-0.504C0.426,-0.497 0.45,-0.486 0.473,-0.47C0.496,-0.453 0.514,-0.431 0.529,-0.404C0.543,-0.377 0.55,-0.342 0.55,-0.3C0.55,-0.271 0.547,-0.24 0.54,-0.207L0.18,-0.207C0.181,-0.186 0.185,-0.168 0.194,-0.153C0.202,-0.138 0.213,-0.126 0.227,-0.117C0.24,-0.108 0.256,-0.101 0.274,-0.097C0.291,-0.092 0.31,-0.09 0.33,-0.09C0.37,-0.09 0.403,-0.095 0.429,-0.104C0.454,-0.113 0.475,-0.125 0.491,-0.138L0.534,-0.053ZM0.318,-0.41C0.301,-0.41 0.284,-0.408 0.269,-0.403C0.254,-0.398 0.24,-0.392 0.228,-0.383C0.215,-0.374 0.205,-0.362 0.197,-0.349C0.189,-0.336 0.184,-0.321 0.183,-0.304L0.429,-0.304C0.429,-0.337 0.42,-0.363 0.402,-0.382C0.383,-0.401 0.355,-0.41 0.318,-0.41Z" style="fill-rule:nonzero;"/>
        </g>
        <g transform="matrix(60,0,0,60,11334,5022.66)">
            <path d="M0.53,-0C0.53,0.036 0.524,0.067 0.512,0.094C0.499,0.121 0.482,0.143 0.461,0.161C0.439,0.178 0.413,0.191 0.384,0.2C0.354,0.208 0.321,0.212 0.286,0.212C0.262,0.212 0.24,0.21 0.219,0.207C0.198,0.203 0.178,0.198 0.161,0.192C0.143,0.186 0.127,0.18 0.114,0.173C0.101,0.166 0.09,0.159 0.082,0.152L0.132,0.06C0.148,0.071 0.167,0.081 0.19,0.091C0.212,0.1 0.24,0.105 0.274,0.105C0.316,0.105 0.348,0.095 0.37,0.076C0.392,0.057 0.403,0.029 0.403,-0.007L0.403,-0.039L0.399,-0.039C0.387,-0.023 0.369,-0.011 0.346,-0.004C0.323,0.004 0.296,0.008 0.265,0.008C0.233,0.008 0.204,0.003 0.177,-0.007C0.15,-0.017 0.126,-0.032 0.106,-0.053C0.086,-0.073 0.07,-0.099 0.06,-0.13C0.049,-0.161 0.043,-0.198 0.043,-0.24C0.043,-0.284 0.05,-0.323 0.063,-0.357C0.076,-0.391 0.094,-0.42 0.118,-0.443C0.141,-0.466 0.169,-0.483 0.203,-0.495C0.236,-0.506 0.272,-0.512 0.313,-0.512C0.334,-0.512 0.356,-0.511 0.377,-0.51C0.398,-0.508 0.419,-0.506 0.438,-0.503C0.456,-0.5 0.474,-0.497 0.49,-0.494C0.506,-0.49 0.519,-0.486 0.53,-0.482L0.53,-0ZM0.29,-0.096C0.315,-0.096 0.338,-0.102 0.359,-0.113C0.379,-0.124 0.393,-0.141 0.4,-0.164L0.4,-0.389C0.391,-0.393 0.378,-0.396 0.361,-0.399C0.343,-0.401 0.327,-0.402 0.312,-0.402C0.293,-0.402 0.276,-0.399 0.26,-0.393C0.243,-0.387 0.229,-0.378 0.217,-0.365C0.204,-0.352 0.195,-0.335 0.188,-0.316C0.181,-0.296 0.177,-0.272 0.177,-0.245C0.177,-0.221 0.18,-0.2 0.186,-0.181C0.192,-0.162 0.2,-0.147 0.211,-0.134C0.222,-0.121 0.234,-0.112 0.247,-0.106C0.26,-0.099 0.275,-0.096 0.29,-0.096Z" style="fill-rule:nonzero;"/>
        </g>
        <g transform="matrix(60,0,0,60,11370,5022.66)">
            <path d="M0.534,-0.053C0.525,-0.045 0.514,-0.037 0.501,-0.03C0.487,-0.022 0.471,-0.015 0.453,-0.008C0.434,-0.001 0.414,0.004 0.392,0.008C0.37,0.012 0.347,0.014 0.322,0.014C0.279,0.014 0.241,0.008 0.208,-0.004C0.174,-0.016 0.145,-0.034 0.122,-0.057C0.099,-0.08 0.081,-0.107 0.069,-0.14C0.056,-0.172 0.05,-0.209 0.05,-0.25C0.05,-0.294 0.057,-0.333 0.071,-0.366C0.085,-0.399 0.104,-0.426 0.129,-0.448C0.153,-0.47 0.181,-0.487 0.214,-0.498C0.247,-0.509 0.282,-0.514 0.32,-0.514C0.345,-0.514 0.372,-0.511 0.399,-0.504C0.426,-0.497 0.45,-0.486 0.473,-0.47C0.496,-0.453 0.514,-0.431 0.529,-0.404C0.543,-0.377 0.55,-0.342 0.55,-0.3C0.55,-0.271 0.547,-0.24 0.54,-0.207L0.18,-0.207C0.181,-0.186 0.185,-0.168 0.194,-0.153C0.202,-0.138 0.213,-0.126 0.227,-0.117C0.24,-0.108 0.256,-0.101 0.274,-0.097C0.291,-0.092 0.31,-0.09 0.33,-0.09C0.37,-0.09 0.403,-0.095 0.429,-0.104C0.454,-0.113 0.475,-0.125 0.491,-0.138L0.534,-0.053ZM0.318,-0.41C0.301,-0.41 0.284,-0.408 0.269,-0.403C0.254,-0.398 0.24,-0.392 0.228,-0.383C0.215,-0.374 0.205,-0.362 0.197,-0.349C0.189,-0.336 0.184,-0.321 0.183,-0.304L0.429,-0.304C0.429,-0.337 0.42,-0.363 0.402,-0.382C0.383,-0.401 0.355,-0.41 0.318,-0.41Z" style="fill-rule:nonzero;"/>
        </g>
        <g transform="matrix(60,0,0,60,11406,5022.66)">
            <path d="M0.039,-0.11L0.163,-0.11L0.163,-0.39L0.039,-0.39L0.039,-0.5L0.264,-0.5L0.279,-0.434L0.283,-0.434C0.302,-0.456 0.323,-0.474 0.347,-0.489C0.371,-0.504 0.399,-0.511 0.431,-0.511C0.471,-0.511 0.502,-0.496 0.526,-0.467C0.549,-0.438 0.56,-0.389 0.56,-0.32L0.443,-0.32C0.443,-0.344 0.44,-0.362 0.433,-0.373C0.426,-0.384 0.414,-0.389 0.399,-0.389C0.372,-0.389 0.351,-0.382 0.335,-0.369C0.318,-0.356 0.304,-0.34 0.293,-0.323L0.293,-0.11L0.51,-0.11L0.51,-0L0.039,-0L0.039,-0.11Z" style="fill-rule:nonzero;"/>
        </g>
        <g transform="matrix(60,0,0,60,11442,5022.66)">
            <path d="M0.083,-0.033L0.045,-0.093L0.443,-0.324L0.046,-0.559L0.084,-0.621L0.555,-0.334L0.555,-0.305L0.083,-0.033Z" style="fill-rule:nonzero;"/>
        </g>
    </g>
    <rect x="398.646" y="137.527" width="77.02" height="132" style="fill:none;stroke:rgb(0,106,255);stroke-width:2px;"/>
    <rect x="321.609" y="123.844" width="166.075" height="159.038" style="fill:none;stroke:rgb(255,0,0);stroke-width:2px;"/>
    <rect x="238.609" y="108.844" width="264.075" height="192.683" style="fill:none;stroke:black;stroke-width:4px;"/>
    <g transform="matrix(1,0,0,1,-10967.9,-5028.91)">
        <g transform="matrix(128,0,0,128,11213.2,5274.57)">
            <rect x="0.088" y="-0.325" width="0.424" height="0.074" style="fill:rgb(0,204,0);fill-rule:nonzero;"/>
        </g>
        <g transform="matrix(128,0,0,128,11290,5274.57)">
            <path d="M0.5,-0.523C0.5,-0.462 0.471,-0.393 0.413,-0.318C0.355,-0.243 0.274,-0.161 0.17,-0.072L0.522,-0.072L0.522,-0L0.078,-0L0.078,-0.072C0.091,-0.084 0.108,-0.1 0.13,-0.119C0.152,-0.138 0.176,-0.16 0.201,-0.184C0.226,-0.207 0.252,-0.233 0.279,-0.26C0.305,-0.287 0.329,-0.315 0.35,-0.344C0.371,-0.373 0.389,-0.401 0.402,-0.43C0.415,-0.459 0.422,-0.486 0.422,-0.513C0.422,-0.553 0.411,-0.585 0.391,-0.608C0.37,-0.631 0.338,-0.642 0.296,-0.642C0.26,-0.642 0.23,-0.638 0.205,-0.63C0.18,-0.622 0.158,-0.61 0.138,-0.595L0.104,-0.65C0.134,-0.671 0.166,-0.687 0.2,-0.697C0.233,-0.707 0.27,-0.712 0.31,-0.712C0.373,-0.712 0.42,-0.695 0.452,-0.661C0.484,-0.627 0.5,-0.581 0.5,-0.523Z" style="fill-rule:nonzero;"/>
        </g>
        <g transform="matrix(128,0,0,128,11366.8,5274.57)">
            <path d="M0.256,-0.058C0.281,-0.058 0.305,-0.061 0.326,-0.068C0.347,-0.074 0.366,-0.084 0.381,-0.097C0.396,-0.11 0.407,-0.126 0.416,-0.145C0.424,-0.164 0.428,-0.187 0.428,-0.213C0.428,-0.261 0.411,-0.298 0.377,-0.323C0.342,-0.347 0.295,-0.36 0.236,-0.36L0.142,-0.355L0.142,-0.7L0.485,-0.7L0.485,-0.628L0.217,-0.628L0.217,-0.425L0.267,-0.427C0.341,-0.427 0.399,-0.409 0.442,-0.373C0.485,-0.337 0.506,-0.286 0.506,-0.219C0.506,-0.182 0.5,-0.149 0.487,-0.12C0.474,-0.091 0.456,-0.067 0.433,-0.048C0.41,-0.028 0.384,-0.013 0.353,-0.003C0.321,0.007 0.288,0.012 0.251,0.012C0.231,0.012 0.212,0.011 0.194,0.008C0.176,0.005 0.16,0.001 0.145,-0.004C0.13,-0.008 0.117,-0.013 0.107,-0.018C0.095,-0.023 0.088,-0.027 0.083,-0.031L0.115,-0.096C0.126,-0.089 0.144,-0.081 0.167,-0.072C0.19,-0.063 0.22,-0.058 0.256,-0.058Z" style="fill-rule:nonzero;"/>
        </g>
    </g>
    <path d="M404.184,338.152L404.184,282.152" style="fill:none;stroke:rgb(255,0,0);stroke-width:2px;"/>
    <path d="M371.975,109.209L371.975,53.209" style="fill:none;stroke:black;stroke-width:4px;"/>
    <path d="M551.683,203.527L475.667,203.527" style="fill:none;stroke:rgb(0,106,255);stroke-width:2px;"/>
</svg>
