<?xml version="1.0" encoding="UTF-8" standalone="no"?>
<!DOCTYPE svg PUBLIC "-//W3C//DTD SVG 1.1//EN" "http://www.w3.org/Graphics/SVG/1.1/DTD/svg11.dtd">
<svg width="100%" height="100%" viewBox="0 0 1196 335" version="1.1" xmlns="http://www.w3.org/2000/svg" xmlns:xlink="http://www.w3.org/1999/xlink" xml:space="preserve" xmlns:serif="http://www.serif.com/" style="fill-rule:evenodd;clip-rule:evenodd;stroke-linecap:round;stroke-linejoin:round;stroke-miterlimit:10;">
    <rect id="Spatial-Databases-2" serif:id="Spatial Databases 2" x="-67.911" y="-98" width="3858" height="5937" style="fill:none;"/>
    <path d="M938.255,168.251L1181.75,120.841L1082.24,6.706L938.255,168.251Z" style="fill:rgb(194,194,194);fill-opacity:0.49;stroke:black;stroke-width:7px;stroke-dasharray:21,14,0,0;"/>
    <path d="M938.255,168.251L1181.75,120.841L1124.38,230.294L938.255,168.251Z" style="fill:rgb(194,194,194);fill-opacity:0.49;stroke:black;stroke-width:7px;stroke-dasharray:21,14,0,0;"/>
    <circle cx="127.5" cy="120.5" r="13.5"/>
    <path d="M318.43,120.5L529.57,120.5" style="fill:none;stroke:black;stroke-width:7px;stroke-linecap:butt;stroke-linejoin:miter;"/>
    <path d="M746.5,34.57L853,206.43L640,206.43L746.5,34.57Z" style="fill:rgb(194,194,194);stroke:black;stroke-width:7px;stroke-linejoin:miter;"/>
    <path d="M938.255,168.251L1082.24,6.706L1124.38,230.294L938.255,168.251Z" style="fill:rgb(194,194,194);fill-opacity:0.49;stroke:black;stroke-width:7px;"/>
    <path d="M1082.24,6.706L1181.75,120.841L1124.38,230.294L1082.24,6.706Z" style="fill:rgb(115,115,115);fill-opacity:0.49;stroke:black;stroke-width:7px;"/>
    <g transform="matrix(1,0,0,1,-10143,-229.304)">
        <g transform="matrix(47.8554,0,0,47.8554,10147.7,508.377)">
            <path d="M0.043,-0.35C0.043,-0.47 0.063,-0.56 0.102,-0.621C0.14,-0.682 0.197,-0.712 0.272,-0.712C0.353,-0.712 0.411,-0.682 0.448,-0.623C0.484,-0.563 0.502,-0.472 0.502,-0.35C0.502,-0.23 0.483,-0.14 0.444,-0.079C0.405,-0.018 0.347,0.012 0.272,0.012C0.193,0.012 0.135,-0.02 0.098,-0.083C0.061,-0.146 0.043,-0.235 0.043,-0.35ZM0.126,-0.35C0.126,-0.307 0.129,-0.267 0.135,-0.232C0.14,-0.196 0.149,-0.165 0.161,-0.14C0.173,-0.114 0.188,-0.094 0.207,-0.08C0.225,-0.065 0.247,-0.058 0.272,-0.058C0.323,-0.058 0.36,-0.082 0.384,-0.129C0.407,-0.175 0.419,-0.249 0.419,-0.35C0.419,-0.393 0.417,-0.432 0.412,-0.468C0.407,-0.504 0.398,-0.535 0.387,-0.561C0.375,-0.587 0.36,-0.607 0.341,-0.621C0.322,-0.635 0.299,-0.642 0.272,-0.642C0.222,-0.642 0.185,-0.618 0.162,-0.571C0.138,-0.524 0.126,-0.45 0.126,-0.35Z" style="fill-rule:nonzero;"/>
        </g>
        <g transform="matrix(47.8554,0,0,47.8554,10173.8,508.377)">
            <rect x="0.059" y="-0.325" width="0.242" height="0.074" style="fill-rule:nonzero;"/>
        </g>
        <g transform="matrix(47.8554,0,0,47.8554,10191.1,508.377)">
            <path d="M0.418,-0.033C0.398,-0.018 0.374,-0.007 0.347,0.001C0.32,0.008 0.291,0.012 0.261,0.012C0.222,0.012 0.19,0.006 0.163,-0.007C0.136,-0.019 0.115,-0.037 0.098,-0.06C0.081,-0.083 0.068,-0.11 0.061,-0.143C0.053,-0.175 0.049,-0.211 0.049,-0.25C0.049,-0.335 0.068,-0.4 0.105,-0.445C0.142,-0.49 0.196,-0.512 0.266,-0.512C0.298,-0.512 0.325,-0.51 0.348,-0.505C0.37,-0.5 0.39,-0.492 0.408,-0.483L0.385,-0.414C0.37,-0.423 0.353,-0.43 0.334,-0.435C0.315,-0.44 0.295,-0.442 0.274,-0.442C0.179,-0.442 0.132,-0.378 0.132,-0.25C0.132,-0.225 0.135,-0.2 0.14,-0.178C0.145,-0.155 0.153,-0.134 0.165,-0.117C0.176,-0.099 0.192,-0.085 0.211,-0.074C0.23,-0.063 0.253,-0.058 0.281,-0.058C0.305,-0.058 0.327,-0.062 0.346,-0.069C0.365,-0.076 0.38,-0.085 0.392,-0.094L0.418,-0.033Z" style="fill-rule:nonzero;"/>
        </g>
        <g transform="matrix(47.8554,0,0,47.8554,10212.6,508.377)">
            <path d="M0.389,-0.296L0.392,-0.358L0.389,-0.358L0.348,-0.294L0.123,-0L0.077,-0L0.077,-0.5L0.157,-0.5L0.157,-0.195L0.154,-0.136L0.158,-0.136L0.197,-0.198L0.422,-0.5L0.469,-0.5L0.469,-0L0.389,-0L0.389,-0.296Z" style="fill-rule:nonzero;"/>
        </g>
        <g transform="matrix(47.8554,0,0,47.8554,10238.8,508.377)">
            <path d="M0.49,-0.297L0.496,-0.392L0.491,-0.392L0.455,-0.315L0.334,-0.119L0.306,-0.119L0.18,-0.315L0.147,-0.392L0.143,-0.392L0.151,-0.298L0.151,-0L0.077,-0L0.077,-0.5L0.156,-0.5L0.296,-0.276L0.325,-0.218L0.327,-0.218L0.357,-0.278L0.488,-0.5L0.568,-0.5L0.568,-0L0.49,-0L0.49,-0.297Z" style="fill-rule:nonzero;"/>
        </g>
        <g transform="matrix(47.8554,0,0,47.8554,10269.6,508.377)">
            <path d="M0.378,-0.43L0.157,-0.43L0.157,-0L0.077,-0L0.077,-0.5L0.458,-0.5L0.458,-0L0.378,-0L0.378,-0.43Z" style="fill-rule:nonzero;"/>
        </g>
        <g transform="matrix(47.8554,0,0,47.8554,10295.2,508.377)">
            <path d="M0.346,-0.43L0.201,-0.43C0.199,-0.402 0.197,-0.372 0.195,-0.34C0.193,-0.307 0.19,-0.275 0.186,-0.243C0.182,-0.21 0.177,-0.179 0.17,-0.15C0.163,-0.12 0.155,-0.094 0.145,-0.071C0.134,-0.048 0.122,-0.03 0.107,-0.017C0.092,-0.003 0.074,0.004 0.053,0.004C0.04,0.004 0.029,0.003 0.02,0.002C0.011,0.001 0.002,-0.002 -0.005,-0.005L0.007,-0.072C0.015,-0.069 0.024,-0.068 0.033,-0.068C0.046,-0.068 0.058,-0.074 0.069,-0.085C0.08,-0.096 0.089,-0.118 0.097,-0.15C0.105,-0.181 0.112,-0.225 0.117,-0.281C0.122,-0.337 0.126,-0.41 0.128,-0.5L0.426,-0.5L0.426,-0L0.346,-0L0.346,-0.43Z" style="fill-rule:nonzero;"/>
        </g>
        <g transform="matrix(47.8554,0,0,47.8554,10319.3,508.377)">
            <path d="M0.442,-0.04C0.422,-0.024 0.397,-0.011 0.367,-0.002C0.336,0.007 0.304,0.012 0.27,0.012C0.232,0.012 0.199,0.006 0.171,-0.007C0.143,-0.019 0.12,-0.037 0.102,-0.06C0.084,-0.083 0.071,-0.11 0.062,-0.142C0.053,-0.174 0.049,-0.21 0.049,-0.25C0.049,-0.335 0.068,-0.4 0.106,-0.445C0.144,-0.49 0.198,-0.512 0.269,-0.512C0.292,-0.512 0.314,-0.51 0.337,-0.505C0.36,-0.5 0.38,-0.49 0.398,-0.476C0.416,-0.462 0.431,-0.442 0.442,-0.417C0.453,-0.391 0.459,-0.357 0.459,-0.315C0.459,-0.293 0.457,-0.269 0.453,-0.242L0.132,-0.242C0.132,-0.213 0.135,-0.187 0.141,-0.164C0.147,-0.141 0.156,-0.122 0.169,-0.107C0.182,-0.091 0.198,-0.079 0.219,-0.071C0.239,-0.062 0.264,-0.058 0.293,-0.058C0.316,-0.058 0.338,-0.062 0.361,-0.07C0.384,-0.078 0.401,-0.087 0.412,-0.098L0.442,-0.04ZM0.27,-0.442C0.231,-0.442 0.199,-0.432 0.176,-0.411C0.152,-0.39 0.138,-0.355 0.133,-0.305L0.381,-0.305C0.381,-0.356 0.371,-0.391 0.352,-0.412C0.333,-0.432 0.305,-0.442 0.27,-0.442Z" style="fill-rule:nonzero;"/>
        </g>
        <g transform="matrix(47.8554,0,0,47.8554,10343.6,508.377)">
            <path d="M0.203,-0.225L0.157,-0.225L0.157,-0L0.077,-0L0.077,-0.5L0.157,-0.5L0.157,-0.274L0.2,-0.288L0.36,-0.5L0.447,-0.5L0.292,-0.299L0.25,-0.266L0.302,-0.226L0.469,-0L0.37,-0L0.203,-0.225Z" style="fill-rule:nonzero;"/>
        </g>
        <g transform="matrix(47.8554,0,0,47.8554,10366.5,508.377)">
            <path d="M0.418,-0.033C0.398,-0.018 0.374,-0.007 0.347,0.001C0.32,0.008 0.291,0.012 0.261,0.012C0.222,0.012 0.19,0.006 0.163,-0.007C0.136,-0.019 0.115,-0.037 0.098,-0.06C0.081,-0.083 0.068,-0.11 0.061,-0.143C0.053,-0.175 0.049,-0.211 0.049,-0.25C0.049,-0.335 0.068,-0.4 0.105,-0.445C0.142,-0.49 0.196,-0.512 0.266,-0.512C0.298,-0.512 0.325,-0.51 0.348,-0.505C0.37,-0.5 0.39,-0.492 0.408,-0.483L0.385,-0.414C0.37,-0.423 0.353,-0.43 0.334,-0.435C0.315,-0.44 0.295,-0.442 0.274,-0.442C0.179,-0.442 0.132,-0.378 0.132,-0.25C0.132,-0.225 0.135,-0.2 0.14,-0.178C0.145,-0.155 0.153,-0.134 0.165,-0.117C0.176,-0.099 0.192,-0.085 0.211,-0.074C0.23,-0.063 0.253,-0.058 0.281,-0.058C0.305,-0.058 0.327,-0.062 0.346,-0.069C0.365,-0.076 0.38,-0.085 0.392,-0.094L0.418,-0.033Z" style="fill-rule:nonzero;"/>
        </g>
        <g transform="matrix(40,0,0,40,10203.6,553.137)">
            <path d="M0.145,0.218C0.109,0.165 0.085,0.115 0.073,0.066C0.06,0.017 0.054,-0.03 0.054,-0.073C0.054,-0.142 0.062,-0.207 0.077,-0.269C0.092,-0.331 0.113,-0.389 0.139,-0.443C0.165,-0.497 0.195,-0.547 0.229,-0.592C0.263,-0.636 0.299,-0.676 0.336,-0.71L0.373,-0.675C0.336,-0.634 0.302,-0.59 0.273,-0.544C0.243,-0.497 0.217,-0.449 0.196,-0.399C0.175,-0.349 0.159,-0.298 0.148,-0.245C0.137,-0.192 0.132,-0.138 0.132,-0.085C0.132,-0.042 0.136,0.002 0.146,0.047C0.155,0.092 0.17,0.138 0.191,0.183L0.145,0.218Z" style="fill-rule:nonzero;"/>
        </g>
        <g transform="matrix(40,0,0,40,10214.3,553.137)">
            <path d="M0.305,-0L0.365,-0.283C0.37,-0.306 0.374,-0.327 0.377,-0.345C0.38,-0.363 0.381,-0.379 0.381,-0.392C0.381,-0.41 0.378,-0.424 0.371,-0.434C0.364,-0.443 0.353,-0.448 0.337,-0.448C0.32,-0.448 0.304,-0.444 0.288,-0.435C0.272,-0.426 0.257,-0.416 0.243,-0.403C0.229,-0.39 0.216,-0.376 0.205,-0.361C0.193,-0.346 0.184,-0.333 0.177,-0.321L0.111,-0L0.036,-0L0.142,-0.5L0.195,-0.5L0.189,-0.414L0.193,-0.414C0.204,-0.425 0.215,-0.436 0.228,-0.448C0.24,-0.459 0.254,-0.47 0.269,-0.479C0.284,-0.488 0.3,-0.496 0.318,-0.503C0.335,-0.509 0.355,-0.512 0.376,-0.512C0.406,-0.512 0.426,-0.503 0.437,-0.484C0.447,-0.465 0.452,-0.439 0.452,-0.406C0.462,-0.419 0.474,-0.431 0.487,-0.444C0.5,-0.457 0.515,-0.468 0.531,-0.478C0.546,-0.488 0.563,-0.496 0.58,-0.503C0.597,-0.509 0.615,-0.512 0.632,-0.512C0.663,-0.512 0.686,-0.505 0.703,-0.491C0.719,-0.476 0.727,-0.45 0.727,-0.411C0.727,-0.383 0.722,-0.346 0.712,-0.3L0.649,-0L0.574,-0L0.637,-0.301C0.641,-0.32 0.644,-0.338 0.647,-0.353C0.649,-0.368 0.65,-0.382 0.65,-0.393C0.65,-0.411 0.646,-0.425 0.639,-0.434C0.632,-0.443 0.619,-0.448 0.602,-0.448C0.588,-0.448 0.573,-0.444 0.558,-0.435C0.542,-0.426 0.527,-0.414 0.512,-0.401C0.497,-0.388 0.484,-0.373 0.473,-0.358C0.461,-0.343 0.452,-0.328 0.445,-0.315L0.38,-0L0.305,-0Z" style="fill-rule:nonzero;"/>
        </g>
        <g transform="matrix(40,0,0,40,10244.8,553.137)">
            <path d="M0.05,-0.156C0.05,-0.209 0.057,-0.257 0.071,-0.301C0.084,-0.344 0.103,-0.382 0.127,-0.413C0.151,-0.444 0.179,-0.469 0.211,-0.486C0.242,-0.503 0.276,-0.512 0.312,-0.512C0.34,-0.512 0.364,-0.507 0.384,-0.499C0.403,-0.49 0.419,-0.477 0.432,-0.462C0.444,-0.446 0.453,-0.428 0.458,-0.408C0.463,-0.387 0.466,-0.366 0.466,-0.344C0.466,-0.294 0.46,-0.247 0.447,-0.204C0.434,-0.161 0.416,-0.123 0.393,-0.091C0.37,-0.059 0.343,-0.034 0.312,-0.016C0.281,0.003 0.248,0.012 0.212,0.012C0.182,0.012 0.157,0.007 0.137,-0.003C0.116,-0.012 0.099,-0.025 0.087,-0.041C0.074,-0.057 0.064,-0.075 0.059,-0.095C0.053,-0.115 0.05,-0.135 0.05,-0.156ZM0.13,-0.174C0.13,-0.135 0.137,-0.105 0.152,-0.084C0.167,-0.063 0.19,-0.052 0.222,-0.052C0.244,-0.052 0.265,-0.06 0.285,-0.076C0.304,-0.091 0.322,-0.112 0.337,-0.139C0.352,-0.166 0.364,-0.196 0.373,-0.231C0.382,-0.265 0.386,-0.301 0.386,-0.338C0.386,-0.372 0.38,-0.399 0.368,-0.419C0.355,-0.438 0.332,-0.448 0.297,-0.448C0.275,-0.448 0.254,-0.44 0.234,-0.426C0.214,-0.411 0.196,-0.39 0.181,-0.365C0.165,-0.34 0.153,-0.311 0.144,-0.278C0.135,-0.245 0.13,-0.21 0.13,-0.174Z" style="fill-rule:nonzero;"/>
        </g>
        <g transform="matrix(40,0,0,40,10264.7,553.137)">
            <path d="M0.185,-0.5L0.156,-0.364C0.151,-0.341 0.149,-0.321 0.149,-0.304C0.149,-0.285 0.154,-0.269 0.163,-0.258C0.171,-0.246 0.188,-0.24 0.213,-0.24C0.242,-0.24 0.267,-0.244 0.286,-0.253C0.305,-0.261 0.321,-0.269 0.332,-0.277L0.38,-0.5L0.456,-0.5L0.35,-0L0.274,-0L0.318,-0.21C0.307,-0.203 0.29,-0.196 0.269,-0.188C0.248,-0.18 0.221,-0.176 0.189,-0.176C0.171,-0.176 0.155,-0.178 0.14,-0.182C0.125,-0.185 0.113,-0.191 0.103,-0.2C0.092,-0.208 0.084,-0.219 0.078,-0.233C0.072,-0.247 0.069,-0.264 0.069,-0.285C0.067,-0.309 0.08,-0.381 0.109,-0.5L0.185,-0.5Z" style="fill-rule:nonzero;"/>
        </g>
        <g transform="matrix(40,0,0,40,10283.5,553.137)">
            <path d="M0.211,-0.225L0.157,-0.225L0.11,-0L0.035,-0L0.141,-0.5L0.216,-0.5L0.168,-0.274L0.209,-0.287L0.395,-0.5L0.485,-0.5L0.302,-0.299L0.256,-0.266L0.296,-0.226L0.408,-0L0.324,-0L0.211,-0.225Z" style="fill-rule:nonzero;"/>
        </g>
        <g transform="matrix(40,0,0,40,10302.1,553.137)">
            <path d="M0.414,-0.197C0.409,-0.172 0.405,-0.147 0.403,-0.122C0.401,-0.097 0.4,-0.073 0.4,-0.051L0.4,-0.023C0.4,-0.014 0.401,-0.005 0.402,0.002L0.346,0.002L0.332,-0.085L0.328,-0.085C0.32,-0.074 0.31,-0.062 0.299,-0.051C0.287,-0.039 0.274,-0.028 0.26,-0.019C0.246,-0.01 0.231,-0.002 0.215,0.004C0.199,0.009 0.182,0.012 0.164,0.012C0.085,0.012 0.045,-0.04 0.045,-0.143C0.045,-0.186 0.05,-0.229 0.062,-0.273C0.073,-0.317 0.09,-0.357 0.113,-0.392C0.135,-0.427 0.165,-0.456 0.202,-0.479C0.238,-0.502 0.282,-0.513 0.333,-0.513C0.352,-0.513 0.375,-0.511 0.402,-0.507C0.429,-0.502 0.454,-0.496 0.477,-0.489L0.414,-0.197ZM0.187,-0.052C0.203,-0.052 0.218,-0.056 0.233,-0.064C0.248,-0.071 0.262,-0.081 0.275,-0.092C0.288,-0.103 0.299,-0.116 0.309,-0.129C0.319,-0.141 0.327,-0.154 0.333,-0.165L0.389,-0.435C0.369,-0.444 0.344,-0.449 0.313,-0.449C0.282,-0.449 0.255,-0.44 0.232,-0.422C0.209,-0.404 0.189,-0.381 0.173,-0.352C0.157,-0.323 0.145,-0.29 0.137,-0.253C0.129,-0.216 0.125,-0.18 0.125,-0.143C0.125,-0.118 0.13,-0.096 0.14,-0.079C0.15,-0.061 0.166,-0.052 0.187,-0.052Z" style="fill-rule:nonzero;"/>
        </g>
        <g transform="matrix(40,0,0,40,10321.5,553.137)">
            <path d="M0.137,-0.71C0.152,-0.689 0.165,-0.666 0.176,-0.641C0.187,-0.616 0.195,-0.591 0.202,-0.566C0.209,-0.541 0.214,-0.516 0.217,-0.491C0.22,-0.466 0.221,-0.442 0.221,-0.421C0.221,-0.353 0.214,-0.288 0.199,-0.226C0.184,-0.163 0.163,-0.105 0.138,-0.051C0.112,0.004 0.082,0.054 0.049,0.099C0.015,0.144 -0.02,0.184 -0.057,0.218L-0.095,0.183C-0.062,0.149 -0.032,0.109 -0.004,0.064C0.025,0.019 0.05,-0.029 0.072,-0.08C0.094,-0.13 0.111,-0.182 0.124,-0.236C0.137,-0.289 0.143,-0.342 0.143,-0.393C0.143,-0.457 0.139,-0.511 0.131,-0.556C0.122,-0.601 0.108,-0.641 0.087,-0.677L0.137,-0.71Z" style="fill-rule:nonzero;"/>
        </g>
    </g>
    <g transform="matrix(1,0,0,1,-9851.05,-229.304)">
        <g transform="matrix(47.8554,0,0,47.8554,10147.7,508.377)">
            <path d="M0.108,-0.074L0.248,-0.074L0.248,-0.558L0.258,-0.617L0.218,-0.57L0.108,-0.491L0.07,-0.542L0.29,-0.712L0.326,-0.712L0.326,-0.074L0.463,-0.074L0.463,-0L0.108,-0L0.108,-0.074Z" style="fill-rule:nonzero;"/>
        </g>
        <g transform="matrix(47.8554,0,0,47.8554,10173.8,508.377)">
            <rect x="0.059" y="-0.325" width="0.242" height="0.074" style="fill-rule:nonzero;"/>
        </g>
        <g transform="matrix(47.8554,0,0,47.8554,10191.1,508.377)">
            <path d="M0.418,-0.033C0.398,-0.018 0.374,-0.007 0.347,0.001C0.32,0.008 0.291,0.012 0.261,0.012C0.222,0.012 0.19,0.006 0.163,-0.007C0.136,-0.019 0.115,-0.037 0.098,-0.06C0.081,-0.083 0.068,-0.11 0.061,-0.143C0.053,-0.175 0.049,-0.211 0.049,-0.25C0.049,-0.335 0.068,-0.4 0.105,-0.445C0.142,-0.49 0.196,-0.512 0.266,-0.512C0.298,-0.512 0.325,-0.51 0.348,-0.505C0.37,-0.5 0.39,-0.492 0.408,-0.483L0.385,-0.414C0.37,-0.423 0.353,-0.43 0.334,-0.435C0.315,-0.44 0.295,-0.442 0.274,-0.442C0.179,-0.442 0.132,-0.378 0.132,-0.25C0.132,-0.225 0.135,-0.2 0.14,-0.178C0.145,-0.155 0.153,-0.134 0.165,-0.117C0.176,-0.099 0.192,-0.085 0.211,-0.074C0.23,-0.063 0.253,-0.058 0.281,-0.058C0.305,-0.058 0.327,-0.062 0.346,-0.069C0.365,-0.076 0.38,-0.085 0.392,-0.094L0.418,-0.033Z" style="fill-rule:nonzero;"/>
        </g>
        <g transform="matrix(47.8554,0,0,47.8554,10212.6,508.377)">
            <path d="M0.389,-0.296L0.392,-0.358L0.389,-0.358L0.348,-0.294L0.123,-0L0.077,-0L0.077,-0.5L0.157,-0.5L0.157,-0.195L0.154,-0.136L0.158,-0.136L0.197,-0.198L0.422,-0.5L0.469,-0.5L0.469,-0L0.389,-0L0.389,-0.296Z" style="fill-rule:nonzero;"/>
        </g>
        <g transform="matrix(47.8554,0,0,47.8554,10238.8,508.377)">
            <path d="M0.49,-0.297L0.496,-0.392L0.491,-0.392L0.455,-0.315L0.334,-0.119L0.306,-0.119L0.18,-0.315L0.147,-0.392L0.143,-0.392L0.151,-0.298L0.151,-0L0.077,-0L0.077,-0.5L0.156,-0.5L0.296,-0.276L0.325,-0.218L0.327,-0.218L0.357,-0.278L0.488,-0.5L0.568,-0.5L0.568,-0L0.49,-0L0.49,-0.297Z" style="fill-rule:nonzero;"/>
        </g>
        <g transform="matrix(47.8554,0,0,47.8554,10269.6,508.377)">
            <path d="M0.378,-0.43L0.157,-0.43L0.157,-0L0.077,-0L0.077,-0.5L0.458,-0.5L0.458,-0L0.378,-0L0.378,-0.43Z" style="fill-rule:nonzero;"/>
        </g>
        <g transform="matrix(47.8554,0,0,47.8554,10295.2,508.377)">
            <path d="M0.346,-0.43L0.201,-0.43C0.199,-0.402 0.197,-0.372 0.195,-0.34C0.193,-0.307 0.19,-0.275 0.186,-0.243C0.182,-0.21 0.177,-0.179 0.17,-0.15C0.163,-0.12 0.155,-0.094 0.145,-0.071C0.134,-0.048 0.122,-0.03 0.107,-0.017C0.092,-0.003 0.074,0.004 0.053,0.004C0.04,0.004 0.029,0.003 0.02,0.002C0.011,0.001 0.002,-0.002 -0.005,-0.005L0.007,-0.072C0.015,-0.069 0.024,-0.068 0.033,-0.068C0.046,-0.068 0.058,-0.074 0.069,-0.085C0.08,-0.096 0.089,-0.118 0.097,-0.15C0.105,-0.181 0.112,-0.225 0.117,-0.281C0.122,-0.337 0.126,-0.41 0.128,-0.5L0.426,-0.5L0.426,-0L0.346,-0L0.346,-0.43Z" style="fill-rule:nonzero;"/>
        </g>
        <g transform="matrix(47.8554,0,0,47.8554,10319.3,508.377)">
            <path d="M0.442,-0.04C0.422,-0.024 0.397,-0.011 0.367,-0.002C0.336,0.007 0.304,0.012 0.27,0.012C0.232,0.012 0.199,0.006 0.171,-0.007C0.143,-0.019 0.12,-0.037 0.102,-0.06C0.084,-0.083 0.071,-0.11 0.062,-0.142C0.053,-0.174 0.049,-0.21 0.049,-0.25C0.049,-0.335 0.068,-0.4 0.106,-0.445C0.144,-0.49 0.198,-0.512 0.269,-0.512C0.292,-0.512 0.314,-0.51 0.337,-0.505C0.36,-0.5 0.38,-0.49 0.398,-0.476C0.416,-0.462 0.431,-0.442 0.442,-0.417C0.453,-0.391 0.459,-0.357 0.459,-0.315C0.459,-0.293 0.457,-0.269 0.453,-0.242L0.132,-0.242C0.132,-0.213 0.135,-0.187 0.141,-0.164C0.147,-0.141 0.156,-0.122 0.169,-0.107C0.182,-0.091 0.198,-0.079 0.219,-0.071C0.239,-0.062 0.264,-0.058 0.293,-0.058C0.316,-0.058 0.338,-0.062 0.361,-0.07C0.384,-0.078 0.401,-0.087 0.412,-0.098L0.442,-0.04ZM0.27,-0.442C0.231,-0.442 0.199,-0.432 0.176,-0.411C0.152,-0.39 0.138,-0.355 0.133,-0.305L0.381,-0.305C0.381,-0.356 0.371,-0.391 0.352,-0.412C0.333,-0.432 0.305,-0.442 0.27,-0.442Z" style="fill-rule:nonzero;"/>
        </g>
        <g transform="matrix(47.8554,0,0,47.8554,10343.6,508.377)">
            <path d="M0.203,-0.225L0.157,-0.225L0.157,-0L0.077,-0L0.077,-0.5L0.157,-0.5L0.157,-0.274L0.2,-0.288L0.36,-0.5L0.447,-0.5L0.292,-0.299L0.25,-0.266L0.302,-0.226L0.469,-0L0.37,-0L0.203,-0.225Z" style="fill-rule:nonzero;"/>
        </g>
        <g transform="matrix(47.8554,0,0,47.8554,10366.5,508.377)">
            <path d="M0.418,-0.033C0.398,-0.018 0.374,-0.007 0.347,0.001C0.32,0.008 0.291,0.012 0.261,0.012C0.222,0.012 0.19,0.006 0.163,-0.007C0.136,-0.019 0.115,-0.037 0.098,-0.06C0.081,-0.083 0.068,-0.11 0.061,-0.143C0.053,-0.175 0.049,-0.211 0.049,-0.25C0.049,-0.335 0.068,-0.4 0.105,-0.445C0.142,-0.49 0.196,-0.512 0.266,-0.512C0.298,-0.512 0.325,-0.51 0.348,-0.505C0.37,-0.5 0.39,-0.492 0.408,-0.483L0.385,-0.414C0.37,-0.423 0.353,-0.43 0.334,-0.435C0.315,-0.44 0.295,-0.442 0.274,-0.442C0.179,-0.442 0.132,-0.378 0.132,-0.25C0.132,-0.225 0.135,-0.2 0.14,-0.178C0.145,-0.155 0.153,-0.134 0.165,-0.117C0.176,-0.099 0.192,-0.085 0.211,-0.074C0.23,-0.063 0.253,-0.058 0.281,-0.058C0.305,-0.058 0.327,-0.062 0.346,-0.069C0.365,-0.076 0.38,-0.085 0.392,-0.094L0.418,-0.033Z" style="fill-rule:nonzero;"/>
        </g>
        <g transform="matrix(40,0,0,40,10185,553.137)">
            <path d="M0.145,0.218C0.109,0.165 0.085,0.115 0.073,0.066C0.06,0.017 0.054,-0.03 0.054,-0.073C0.054,-0.142 0.062,-0.207 0.077,-0.269C0.092,-0.331 0.113,-0.389 0.139,-0.443C0.165,-0.497 0.195,-0.547 0.229,-0.592C0.263,-0.636 0.299,-0.676 0.336,-0.71L0.373,-0.675C0.336,-0.634 0.302,-0.59 0.273,-0.544C0.243,-0.497 0.217,-0.449 0.196,-0.399C0.175,-0.349 0.159,-0.298 0.148,-0.245C0.137,-0.192 0.132,-0.138 0.132,-0.085C0.132,-0.042 0.136,0.002 0.146,0.047C0.155,0.092 0.17,0.138 0.191,0.183L0.145,0.218Z" style="fill-rule:nonzero;"/>
        </g>
        <g transform="matrix(40,0,0,40,10195.7,553.137)">
            <path d="M0.05,-0.156C0.05,-0.209 0.057,-0.257 0.071,-0.301C0.084,-0.344 0.103,-0.382 0.127,-0.413C0.151,-0.444 0.179,-0.469 0.211,-0.486C0.242,-0.503 0.276,-0.512 0.312,-0.512C0.34,-0.512 0.364,-0.507 0.384,-0.499C0.403,-0.49 0.419,-0.477 0.432,-0.462C0.444,-0.446 0.453,-0.428 0.458,-0.408C0.463,-0.387 0.466,-0.366 0.466,-0.344C0.466,-0.294 0.46,-0.247 0.447,-0.204C0.434,-0.161 0.416,-0.123 0.393,-0.091C0.37,-0.059 0.343,-0.034 0.312,-0.016C0.281,0.003 0.248,0.012 0.212,0.012C0.182,0.012 0.157,0.007 0.137,-0.003C0.116,-0.012 0.099,-0.025 0.087,-0.041C0.074,-0.057 0.064,-0.075 0.059,-0.095C0.053,-0.115 0.05,-0.135 0.05,-0.156ZM0.13,-0.174C0.13,-0.135 0.137,-0.105 0.152,-0.084C0.167,-0.063 0.19,-0.052 0.222,-0.052C0.244,-0.052 0.265,-0.06 0.285,-0.076C0.304,-0.091 0.322,-0.112 0.337,-0.139C0.352,-0.166 0.364,-0.196 0.373,-0.231C0.382,-0.265 0.386,-0.301 0.386,-0.338C0.386,-0.372 0.38,-0.399 0.368,-0.419C0.355,-0.438 0.332,-0.448 0.297,-0.448C0.275,-0.448 0.254,-0.44 0.234,-0.426C0.214,-0.411 0.196,-0.39 0.181,-0.365C0.165,-0.34 0.153,-0.311 0.144,-0.278C0.135,-0.245 0.13,-0.21 0.13,-0.174Z" style="fill-rule:nonzero;"/>
        </g>
        <g transform="matrix(40,0,0,40,10215.6,553.137)">
            <path d="M0.305,-0L0.365,-0.283C0.37,-0.306 0.374,-0.327 0.377,-0.345C0.38,-0.363 0.381,-0.379 0.381,-0.392C0.381,-0.41 0.378,-0.424 0.371,-0.434C0.364,-0.443 0.353,-0.448 0.337,-0.448C0.32,-0.448 0.304,-0.444 0.288,-0.435C0.272,-0.426 0.257,-0.416 0.243,-0.403C0.229,-0.39 0.216,-0.376 0.205,-0.361C0.193,-0.346 0.184,-0.333 0.177,-0.321L0.111,-0L0.036,-0L0.142,-0.5L0.195,-0.5L0.189,-0.414L0.193,-0.414C0.204,-0.425 0.215,-0.436 0.228,-0.448C0.24,-0.459 0.254,-0.47 0.269,-0.479C0.284,-0.488 0.3,-0.496 0.318,-0.503C0.335,-0.509 0.355,-0.512 0.376,-0.512C0.406,-0.512 0.426,-0.503 0.437,-0.484C0.447,-0.465 0.452,-0.439 0.452,-0.406C0.462,-0.419 0.474,-0.431 0.487,-0.444C0.5,-0.457 0.515,-0.468 0.531,-0.478C0.546,-0.488 0.563,-0.496 0.58,-0.503C0.597,-0.509 0.615,-0.512 0.632,-0.512C0.663,-0.512 0.686,-0.505 0.703,-0.491C0.719,-0.476 0.727,-0.45 0.727,-0.411C0.727,-0.383 0.722,-0.346 0.712,-0.3L0.649,-0L0.574,-0L0.637,-0.301C0.641,-0.32 0.644,-0.338 0.647,-0.353C0.649,-0.368 0.65,-0.382 0.65,-0.393C0.65,-0.411 0.646,-0.425 0.639,-0.434C0.632,-0.443 0.619,-0.448 0.602,-0.448C0.588,-0.448 0.573,-0.444 0.558,-0.435C0.542,-0.426 0.527,-0.414 0.512,-0.401C0.497,-0.388 0.484,-0.373 0.473,-0.358C0.461,-0.343 0.452,-0.328 0.445,-0.315L0.38,-0L0.305,-0Z" style="fill-rule:nonzero;"/>
        </g>
        <g transform="matrix(40,0,0,40,10246.1,553.137)">
            <path d="M0.144,-0.5L0.196,-0.5L0.191,-0.414L0.195,-0.414C0.204,-0.426 0.215,-0.438 0.227,-0.45C0.238,-0.461 0.251,-0.472 0.265,-0.481C0.279,-0.49 0.294,-0.498 0.311,-0.504C0.328,-0.509 0.346,-0.512 0.365,-0.512C0.381,-0.512 0.396,-0.51 0.41,-0.505C0.424,-0.5 0.436,-0.491 0.447,-0.48C0.458,-0.468 0.466,-0.452 0.473,-0.433C0.479,-0.414 0.482,-0.39 0.482,-0.362C0.482,-0.303 0.474,-0.251 0.458,-0.205C0.442,-0.158 0.421,-0.119 0.395,-0.087C0.369,-0.055 0.34,-0.031 0.308,-0.014C0.275,0.004 0.243,0.012 0.211,0.012C0.188,0.012 0.167,0.01 0.15,0.006C0.132,0.001 0.12,-0.003 0.114,-0.008L0.07,0.2L-0.005,0.2L0.144,-0.5ZM0.337,-0.448C0.319,-0.448 0.302,-0.443 0.286,-0.434C0.269,-0.425 0.254,-0.413 0.241,-0.4C0.227,-0.386 0.215,-0.371 0.204,-0.356C0.193,-0.34 0.185,-0.325 0.178,-0.312L0.129,-0.075C0.14,-0.066 0.152,-0.06 0.164,-0.057C0.176,-0.054 0.189,-0.052 0.203,-0.052C0.229,-0.052 0.254,-0.059 0.278,-0.074C0.301,-0.088 0.322,-0.108 0.341,-0.135C0.36,-0.162 0.375,-0.194 0.386,-0.231C0.397,-0.268 0.402,-0.31 0.402,-0.356C0.402,-0.383 0.397,-0.405 0.386,-0.422C0.375,-0.439 0.358,-0.448 0.337,-0.448Z" style="fill-rule:nonzero;"/>
        </g>
        <g transform="matrix(40,0,0,40,10266.4,553.137)">
            <path d="M0.389,-0.049C0.366,-0.029 0.338,-0.014 0.307,-0.004C0.275,0.007 0.243,0.012 0.211,0.012C0.158,0.012 0.118,-0.003 0.091,-0.034C0.064,-0.065 0.05,-0.107 0.05,-0.162C0.05,-0.217 0.058,-0.266 0.073,-0.309C0.088,-0.352 0.109,-0.389 0.134,-0.419C0.159,-0.449 0.187,-0.472 0.219,-0.488C0.25,-0.504 0.283,-0.512 0.316,-0.512C0.34,-0.512 0.361,-0.509 0.379,-0.502C0.396,-0.495 0.411,-0.487 0.422,-0.476C0.433,-0.464 0.442,-0.452 0.447,-0.438C0.452,-0.423 0.455,-0.408 0.455,-0.392C0.455,-0.345 0.432,-0.308 0.386,-0.281C0.34,-0.254 0.273,-0.24 0.185,-0.24C0.177,-0.24 0.169,-0.24 0.16,-0.241C0.151,-0.241 0.142,-0.241 0.133,-0.242C0.13,-0.229 0.128,-0.217 0.127,-0.206C0.126,-0.195 0.125,-0.185 0.125,-0.176C0.125,-0.139 0.133,-0.11 0.15,-0.087C0.167,-0.064 0.193,-0.052 0.228,-0.052C0.257,-0.052 0.284,-0.057 0.309,-0.067C0.333,-0.076 0.352,-0.086 0.365,-0.097L0.389,-0.049ZM0.304,-0.448C0.267,-0.448 0.236,-0.436 0.209,-0.411C0.182,-0.386 0.161,-0.348 0.147,-0.298C0.172,-0.298 0.199,-0.299 0.226,-0.3C0.253,-0.301 0.278,-0.305 0.301,-0.311C0.323,-0.316 0.341,-0.325 0.356,-0.338C0.371,-0.35 0.378,-0.367 0.378,-0.389C0.378,-0.396 0.377,-0.403 0.375,-0.41C0.372,-0.417 0.368,-0.423 0.363,-0.429C0.358,-0.434 0.35,-0.439 0.341,-0.443C0.331,-0.446 0.319,-0.448 0.304,-0.448Z" style="fill-rule:nonzero;"/>
        </g>
        <g transform="matrix(40,0,0,40,10284.9,553.137)">
            <path d="M0.12,-0.224L0.133,-0.286L0.199,-0.286C0.21,-0.286 0.223,-0.289 0.236,-0.294C0.249,-0.299 0.261,-0.307 0.272,-0.316C0.283,-0.325 0.292,-0.336 0.299,-0.348C0.306,-0.359 0.31,-0.372 0.31,-0.385C0.31,-0.406 0.304,-0.421 0.291,-0.43C0.278,-0.439 0.255,-0.443 0.221,-0.443C0.197,-0.443 0.176,-0.44 0.159,-0.435C0.141,-0.43 0.124,-0.423 0.109,-0.416L0.093,-0.475C0.114,-0.486 0.138,-0.495 0.164,-0.5C0.189,-0.505 0.219,-0.507 0.252,-0.507C0.301,-0.507 0.337,-0.498 0.358,-0.481C0.379,-0.463 0.39,-0.437 0.39,-0.404C0.39,-0.387 0.387,-0.371 0.381,-0.356C0.375,-0.341 0.367,-0.328 0.357,-0.317C0.346,-0.305 0.335,-0.295 0.322,-0.287C0.309,-0.279 0.295,-0.273 0.281,-0.268L0.281,-0.264C0.31,-0.259 0.33,-0.248 0.342,-0.232C0.353,-0.215 0.359,-0.196 0.359,-0.175C0.359,-0.146 0.353,-0.12 0.341,-0.097C0.329,-0.074 0.313,-0.055 0.293,-0.04C0.272,-0.024 0.248,-0.012 0.221,-0.004C0.193,0.005 0.163,0.009 0.131,0.009C0.104,0.009 0.079,0.006 0.054,-0.001C0.029,-0.008 0.01,-0.016 -0.004,-0.027L0.028,-0.087C0.041,-0.078 0.058,-0.071 0.078,-0.065C0.098,-0.058 0.12,-0.055 0.144,-0.055C0.183,-0.055 0.215,-0.065 0.242,-0.085C0.268,-0.104 0.281,-0.131 0.281,-0.165C0.281,-0.185 0.273,-0.2 0.257,-0.21C0.241,-0.219 0.214,-0.224 0.175,-0.224L0.12,-0.224Z" style="fill-rule:nonzero;"/>
        </g>
        <g transform="matrix(40,0,0,40,10301.7,553.137)">
            <path d="M0.05,-0.156C0.05,-0.209 0.057,-0.257 0.071,-0.301C0.084,-0.344 0.103,-0.382 0.127,-0.413C0.151,-0.444 0.179,-0.469 0.211,-0.486C0.242,-0.503 0.276,-0.512 0.312,-0.512C0.34,-0.512 0.364,-0.507 0.384,-0.499C0.403,-0.49 0.419,-0.477 0.432,-0.462C0.444,-0.446 0.453,-0.428 0.458,-0.408C0.463,-0.387 0.466,-0.366 0.466,-0.344C0.466,-0.294 0.46,-0.247 0.447,-0.204C0.434,-0.161 0.416,-0.123 0.393,-0.091C0.37,-0.059 0.343,-0.034 0.312,-0.016C0.281,0.003 0.248,0.012 0.212,0.012C0.182,0.012 0.157,0.007 0.137,-0.003C0.116,-0.012 0.099,-0.025 0.087,-0.041C0.074,-0.057 0.064,-0.075 0.059,-0.095C0.053,-0.115 0.05,-0.135 0.05,-0.156ZM0.13,-0.174C0.13,-0.135 0.137,-0.105 0.152,-0.084C0.167,-0.063 0.19,-0.052 0.222,-0.052C0.244,-0.052 0.265,-0.06 0.285,-0.076C0.304,-0.091 0.322,-0.112 0.337,-0.139C0.352,-0.166 0.364,-0.196 0.373,-0.231C0.382,-0.265 0.386,-0.301 0.386,-0.338C0.386,-0.372 0.38,-0.399 0.368,-0.419C0.355,-0.438 0.332,-0.448 0.297,-0.448C0.275,-0.448 0.254,-0.44 0.234,-0.426C0.214,-0.411 0.196,-0.39 0.181,-0.365C0.165,-0.34 0.153,-0.311 0.144,-0.278C0.135,-0.245 0.13,-0.21 0.13,-0.174Z" style="fill-rule:nonzero;"/>
        </g>
        <g transform="matrix(40,0,0,40,10321.6,553.137)">
            <path d="M0.211,-0.225L0.157,-0.225L0.11,-0L0.035,-0L0.141,-0.5L0.216,-0.5L0.168,-0.274L0.209,-0.287L0.395,-0.5L0.485,-0.5L0.302,-0.299L0.256,-0.266L0.296,-0.226L0.408,-0L0.324,-0L0.211,-0.225Z" style="fill-rule:nonzero;"/>
        </g>
        <g transform="matrix(40,0,0,40,10340.1,553.137)">
            <path d="M0.137,-0.71C0.152,-0.689 0.165,-0.666 0.176,-0.641C0.187,-0.616 0.195,-0.591 0.202,-0.566C0.209,-0.541 0.214,-0.516 0.217,-0.491C0.22,-0.466 0.221,-0.442 0.221,-0.421C0.221,-0.353 0.214,-0.288 0.199,-0.226C0.184,-0.163 0.163,-0.105 0.138,-0.051C0.112,0.004 0.082,0.054 0.049,0.099C0.015,0.144 -0.02,0.184 -0.057,0.218L-0.095,0.183C-0.062,0.149 -0.032,0.109 -0.004,0.064C0.025,0.019 0.05,-0.029 0.072,-0.08C0.094,-0.13 0.111,-0.182 0.124,-0.236C0.137,-0.289 0.143,-0.342 0.143,-0.393C0.143,-0.457 0.139,-0.511 0.131,-0.556C0.122,-0.601 0.108,-0.641 0.087,-0.677L0.137,-0.71Z" style="fill-rule:nonzero;"/>
        </g>
    </g>
    <g transform="matrix(1,0,0,1,-9522.3,-229.304)">
        <g transform="matrix(47.8554,0,0,47.8554,10147.7,508.377)">
            <path d="M0.446,-0.541C0.446,-0.506 0.44,-0.47 0.427,-0.433C0.413,-0.396 0.397,-0.358 0.376,-0.321C0.355,-0.284 0.331,-0.247 0.305,-0.212C0.279,-0.176 0.253,-0.142 0.227,-0.11L0.178,-0.067L0.178,-0.063L0.242,-0.074L0.46,-0.074L0.46,-0L0.062,-0L0.062,-0.029C0.077,-0.044 0.094,-0.063 0.115,-0.086C0.136,-0.109 0.157,-0.134 0.18,-0.162C0.202,-0.189 0.224,-0.219 0.246,-0.25C0.267,-0.28 0.287,-0.312 0.305,-0.344C0.322,-0.376 0.336,-0.408 0.347,-0.439C0.358,-0.47 0.363,-0.5 0.363,-0.528C0.363,-0.561 0.354,-0.588 0.335,-0.61C0.316,-0.631 0.288,-0.642 0.25,-0.642C0.225,-0.642 0.2,-0.637 0.176,-0.627C0.152,-0.616 0.131,-0.604 0.114,-0.591L0.081,-0.648C0.104,-0.668 0.132,-0.684 0.164,-0.695C0.196,-0.706 0.23,-0.712 0.267,-0.712C0.296,-0.712 0.321,-0.708 0.343,-0.7C0.365,-0.691 0.384,-0.679 0.399,-0.664C0.414,-0.649 0.426,-0.631 0.434,-0.61C0.442,-0.588 0.446,-0.566 0.446,-0.541Z" style="fill-rule:nonzero;"/>
        </g>
        <g transform="matrix(47.8554,0,0,47.8554,10173.8,508.377)">
            <rect x="0.059" y="-0.325" width="0.242" height="0.074" style="fill-rule:nonzero;"/>
        </g>
        <g transform="matrix(47.8554,0,0,47.8554,10191.1,508.377)">
            <path d="M0.418,-0.033C0.398,-0.018 0.374,-0.007 0.347,0.001C0.32,0.008 0.291,0.012 0.261,0.012C0.222,0.012 0.19,0.006 0.163,-0.007C0.136,-0.019 0.115,-0.037 0.098,-0.06C0.081,-0.083 0.068,-0.11 0.061,-0.143C0.053,-0.175 0.049,-0.211 0.049,-0.25C0.049,-0.335 0.068,-0.4 0.105,-0.445C0.142,-0.49 0.196,-0.512 0.266,-0.512C0.298,-0.512 0.325,-0.51 0.348,-0.505C0.37,-0.5 0.39,-0.492 0.408,-0.483L0.385,-0.414C0.37,-0.423 0.353,-0.43 0.334,-0.435C0.315,-0.44 0.295,-0.442 0.274,-0.442C0.179,-0.442 0.132,-0.378 0.132,-0.25C0.132,-0.225 0.135,-0.2 0.14,-0.178C0.145,-0.155 0.153,-0.134 0.165,-0.117C0.176,-0.099 0.192,-0.085 0.211,-0.074C0.23,-0.063 0.253,-0.058 0.281,-0.058C0.305,-0.058 0.327,-0.062 0.346,-0.069C0.365,-0.076 0.38,-0.085 0.392,-0.094L0.418,-0.033Z" style="fill-rule:nonzero;"/>
        </g>
        <g transform="matrix(47.8554,0,0,47.8554,10212.6,508.377)">
            <path d="M0.389,-0.296L0.392,-0.358L0.389,-0.358L0.348,-0.294L0.123,-0L0.077,-0L0.077,-0.5L0.157,-0.5L0.157,-0.195L0.154,-0.136L0.158,-0.136L0.197,-0.198L0.422,-0.5L0.469,-0.5L0.469,-0L0.389,-0L0.389,-0.296Z" style="fill-rule:nonzero;"/>
        </g>
        <g transform="matrix(47.8554,0,0,47.8554,10238.8,508.377)">
            <path d="M0.49,-0.297L0.496,-0.392L0.491,-0.392L0.455,-0.315L0.334,-0.119L0.306,-0.119L0.18,-0.315L0.147,-0.392L0.143,-0.392L0.151,-0.298L0.151,-0L0.077,-0L0.077,-0.5L0.156,-0.5L0.296,-0.276L0.325,-0.218L0.327,-0.218L0.357,-0.278L0.488,-0.5L0.568,-0.5L0.568,-0L0.49,-0L0.49,-0.297Z" style="fill-rule:nonzero;"/>
        </g>
        <g transform="matrix(47.8554,0,0,47.8554,10269.6,508.377)">
            <path d="M0.378,-0.43L0.157,-0.43L0.157,-0L0.077,-0L0.077,-0.5L0.458,-0.5L0.458,-0L0.378,-0L0.378,-0.43Z" style="fill-rule:nonzero;"/>
        </g>
        <g transform="matrix(47.8554,0,0,47.8554,10295.2,508.377)">
            <path d="M0.346,-0.43L0.201,-0.43C0.199,-0.402 0.197,-0.372 0.195,-0.34C0.193,-0.307 0.19,-0.275 0.186,-0.243C0.182,-0.21 0.177,-0.179 0.17,-0.15C0.163,-0.12 0.155,-0.094 0.145,-0.071C0.134,-0.048 0.122,-0.03 0.107,-0.017C0.092,-0.003 0.074,0.004 0.053,0.004C0.04,0.004 0.029,0.003 0.02,0.002C0.011,0.001 0.002,-0.002 -0.005,-0.005L0.007,-0.072C0.015,-0.069 0.024,-0.068 0.033,-0.068C0.046,-0.068 0.058,-0.074 0.069,-0.085C0.08,-0.096 0.089,-0.118 0.097,-0.15C0.105,-0.181 0.112,-0.225 0.117,-0.281C0.122,-0.337 0.126,-0.41 0.128,-0.5L0.426,-0.5L0.426,-0L0.346,-0L0.346,-0.43Z" style="fill-rule:nonzero;"/>
        </g>
        <g transform="matrix(47.8554,0,0,47.8554,10319.3,508.377)">
            <path d="M0.442,-0.04C0.422,-0.024 0.397,-0.011 0.367,-0.002C0.336,0.007 0.304,0.012 0.27,0.012C0.232,0.012 0.199,0.006 0.171,-0.007C0.143,-0.019 0.12,-0.037 0.102,-0.06C0.084,-0.083 0.071,-0.11 0.062,-0.142C0.053,-0.174 0.049,-0.21 0.049,-0.25C0.049,-0.335 0.068,-0.4 0.106,-0.445C0.144,-0.49 0.198,-0.512 0.269,-0.512C0.292,-0.512 0.314,-0.51 0.337,-0.505C0.36,-0.5 0.38,-0.49 0.398,-0.476C0.416,-0.462 0.431,-0.442 0.442,-0.417C0.453,-0.391 0.459,-0.357 0.459,-0.315C0.459,-0.293 0.457,-0.269 0.453,-0.242L0.132,-0.242C0.132,-0.213 0.135,-0.187 0.141,-0.164C0.147,-0.141 0.156,-0.122 0.169,-0.107C0.182,-0.091 0.198,-0.079 0.219,-0.071C0.239,-0.062 0.264,-0.058 0.293,-0.058C0.316,-0.058 0.338,-0.062 0.361,-0.07C0.384,-0.078 0.401,-0.087 0.412,-0.098L0.442,-0.04ZM0.27,-0.442C0.231,-0.442 0.199,-0.432 0.176,-0.411C0.152,-0.39 0.138,-0.355 0.133,-0.305L0.381,-0.305C0.381,-0.356 0.371,-0.391 0.352,-0.412C0.333,-0.432 0.305,-0.442 0.27,-0.442Z" style="fill-rule:nonzero;"/>
        </g>
        <g transform="matrix(47.8554,0,0,47.8554,10343.6,508.377)">
            <path d="M0.203,-0.225L0.157,-0.225L0.157,-0L0.077,-0L0.077,-0.5L0.157,-0.5L0.157,-0.274L0.2,-0.288L0.36,-0.5L0.447,-0.5L0.292,-0.299L0.25,-0.266L0.302,-0.226L0.469,-0L0.37,-0L0.203,-0.225Z" style="fill-rule:nonzero;"/>
        </g>
        <g transform="matrix(47.8554,0,0,47.8554,10366.5,508.377)">
            <path d="M0.418,-0.033C0.398,-0.018 0.374,-0.007 0.347,0.001C0.32,0.008 0.291,0.012 0.261,0.012C0.222,0.012 0.19,0.006 0.163,-0.007C0.136,-0.019 0.115,-0.037 0.098,-0.06C0.081,-0.083 0.068,-0.11 0.061,-0.143C0.053,-0.175 0.049,-0.211 0.049,-0.25C0.049,-0.335 0.068,-0.4 0.105,-0.445C0.142,-0.49 0.196,-0.512 0.266,-0.512C0.298,-0.512 0.325,-0.51 0.348,-0.505C0.37,-0.5 0.39,-0.492 0.408,-0.483L0.385,-0.414C0.37,-0.423 0.353,-0.43 0.334,-0.435C0.315,-0.44 0.295,-0.442 0.274,-0.442C0.179,-0.442 0.132,-0.378 0.132,-0.25C0.132,-0.225 0.135,-0.2 0.14,-0.178C0.145,-0.155 0.153,-0.134 0.165,-0.117C0.176,-0.099 0.192,-0.085 0.211,-0.074C0.23,-0.063 0.253,-0.058 0.281,-0.058C0.305,-0.058 0.327,-0.062 0.346,-0.069C0.365,-0.076 0.38,-0.085 0.392,-0.094L0.418,-0.033Z" style="fill-rule:nonzero;"/>
        </g>
        <g transform="matrix(40,0,0,40,10146.9,553.137)">
            <path d="M0.145,0.218C0.109,0.165 0.085,0.115 0.073,0.066C0.06,0.017 0.054,-0.03 0.054,-0.073C0.054,-0.142 0.062,-0.207 0.077,-0.269C0.092,-0.331 0.113,-0.389 0.139,-0.443C0.165,-0.497 0.195,-0.547 0.229,-0.592C0.263,-0.636 0.299,-0.676 0.336,-0.71L0.373,-0.675C0.336,-0.634 0.302,-0.59 0.273,-0.544C0.243,-0.497 0.217,-0.449 0.196,-0.399C0.175,-0.349 0.159,-0.298 0.148,-0.245C0.137,-0.192 0.132,-0.138 0.132,-0.085C0.132,-0.042 0.136,0.002 0.146,0.047C0.155,0.092 0.17,0.138 0.191,0.183L0.145,0.218Z" style="fill-rule:nonzero;"/>
        </g>
        <g transform="matrix(40,0,0,40,10157.6,553.137)">
            <path d="M0.305,-0L0.365,-0.283C0.37,-0.306 0.374,-0.327 0.377,-0.345C0.38,-0.363 0.381,-0.379 0.381,-0.392C0.381,-0.41 0.378,-0.424 0.371,-0.434C0.364,-0.443 0.353,-0.448 0.337,-0.448C0.32,-0.448 0.304,-0.444 0.288,-0.435C0.272,-0.426 0.257,-0.416 0.243,-0.403C0.229,-0.39 0.216,-0.376 0.205,-0.361C0.193,-0.346 0.184,-0.333 0.177,-0.321L0.111,-0L0.036,-0L0.142,-0.5L0.195,-0.5L0.189,-0.414L0.193,-0.414C0.204,-0.425 0.215,-0.436 0.228,-0.448C0.24,-0.459 0.254,-0.47 0.269,-0.479C0.284,-0.488 0.3,-0.496 0.318,-0.503C0.335,-0.509 0.355,-0.512 0.376,-0.512C0.406,-0.512 0.426,-0.503 0.437,-0.484C0.447,-0.465 0.452,-0.439 0.452,-0.406C0.462,-0.419 0.474,-0.431 0.487,-0.444C0.5,-0.457 0.515,-0.468 0.531,-0.478C0.546,-0.488 0.563,-0.496 0.58,-0.503C0.597,-0.509 0.615,-0.512 0.632,-0.512C0.663,-0.512 0.686,-0.505 0.703,-0.491C0.719,-0.476 0.727,-0.45 0.727,-0.411C0.727,-0.383 0.722,-0.346 0.712,-0.3L0.649,-0L0.574,-0L0.637,-0.301C0.641,-0.32 0.644,-0.338 0.647,-0.353C0.649,-0.368 0.65,-0.382 0.65,-0.393C0.65,-0.411 0.646,-0.425 0.639,-0.434C0.632,-0.443 0.619,-0.448 0.602,-0.448C0.588,-0.448 0.573,-0.444 0.558,-0.435C0.542,-0.426 0.527,-0.414 0.512,-0.401C0.497,-0.388 0.484,-0.373 0.473,-0.358C0.461,-0.343 0.452,-0.328 0.445,-0.315L0.38,-0L0.305,-0Z" style="fill-rule:nonzero;"/>
        </g>
        <g transform="matrix(40,0,0,40,10188.1,553.137)">
            <path d="M0.144,-0.5L0.196,-0.5L0.191,-0.414L0.195,-0.414C0.204,-0.426 0.215,-0.438 0.227,-0.45C0.238,-0.461 0.251,-0.472 0.265,-0.481C0.279,-0.49 0.294,-0.498 0.311,-0.504C0.328,-0.509 0.346,-0.512 0.365,-0.512C0.381,-0.512 0.396,-0.51 0.41,-0.505C0.424,-0.5 0.436,-0.491 0.447,-0.48C0.458,-0.468 0.466,-0.452 0.473,-0.433C0.479,-0.414 0.482,-0.39 0.482,-0.362C0.482,-0.303 0.474,-0.251 0.458,-0.205C0.442,-0.158 0.421,-0.119 0.395,-0.087C0.369,-0.055 0.34,-0.031 0.308,-0.014C0.275,0.004 0.243,0.012 0.211,0.012C0.188,0.012 0.167,0.01 0.15,0.006C0.132,0.001 0.12,-0.003 0.114,-0.008L0.07,0.2L-0.005,0.2L0.144,-0.5ZM0.337,-0.448C0.319,-0.448 0.302,-0.443 0.286,-0.434C0.269,-0.425 0.254,-0.413 0.241,-0.4C0.227,-0.386 0.215,-0.371 0.204,-0.356C0.193,-0.34 0.185,-0.325 0.178,-0.312L0.129,-0.075C0.14,-0.066 0.152,-0.06 0.164,-0.057C0.176,-0.054 0.189,-0.052 0.203,-0.052C0.229,-0.052 0.254,-0.059 0.278,-0.074C0.301,-0.088 0.322,-0.108 0.341,-0.135C0.36,-0.162 0.375,-0.194 0.386,-0.231C0.397,-0.268 0.402,-0.31 0.402,-0.356C0.402,-0.383 0.397,-0.405 0.386,-0.422C0.375,-0.439 0.358,-0.448 0.337,-0.448Z" style="fill-rule:nonzero;"/>
        </g>
        <g transform="matrix(40,0,0,40,10208.4,553.137)">
            <path d="M0.389,-0.049C0.366,-0.029 0.338,-0.014 0.307,-0.004C0.275,0.007 0.243,0.012 0.211,0.012C0.158,0.012 0.118,-0.003 0.091,-0.034C0.064,-0.065 0.05,-0.107 0.05,-0.162C0.05,-0.217 0.058,-0.266 0.073,-0.309C0.088,-0.352 0.109,-0.389 0.134,-0.419C0.159,-0.449 0.187,-0.472 0.219,-0.488C0.25,-0.504 0.283,-0.512 0.316,-0.512C0.34,-0.512 0.361,-0.509 0.379,-0.502C0.396,-0.495 0.411,-0.487 0.422,-0.476C0.433,-0.464 0.442,-0.452 0.447,-0.438C0.452,-0.423 0.455,-0.408 0.455,-0.392C0.455,-0.345 0.432,-0.308 0.386,-0.281C0.34,-0.254 0.273,-0.24 0.185,-0.24C0.177,-0.24 0.169,-0.24 0.16,-0.241C0.151,-0.241 0.142,-0.241 0.133,-0.242C0.13,-0.229 0.128,-0.217 0.127,-0.206C0.126,-0.195 0.125,-0.185 0.125,-0.176C0.125,-0.139 0.133,-0.11 0.15,-0.087C0.167,-0.064 0.193,-0.052 0.228,-0.052C0.257,-0.052 0.284,-0.057 0.309,-0.067C0.333,-0.076 0.352,-0.086 0.365,-0.097L0.389,-0.049ZM0.304,-0.448C0.267,-0.448 0.236,-0.436 0.209,-0.411C0.182,-0.386 0.161,-0.348 0.147,-0.298C0.172,-0.298 0.199,-0.299 0.226,-0.3C0.253,-0.301 0.278,-0.305 0.301,-0.311C0.323,-0.316 0.341,-0.325 0.356,-0.338C0.371,-0.35 0.378,-0.367 0.378,-0.389C0.378,-0.396 0.377,-0.403 0.375,-0.41C0.372,-0.417 0.368,-0.423 0.363,-0.429C0.358,-0.434 0.35,-0.439 0.341,-0.443C0.331,-0.446 0.319,-0.448 0.304,-0.448Z" style="fill-rule:nonzero;"/>
        </g>
        <g transform="matrix(40,0,0,40,10226.9,553.137)">
            <path d="M0.194,-0.176L0.199,-0.08L0.204,-0.08L0.242,-0.177L0.408,-0.5L0.488,-0.5L0.252,-0.054C0.235,-0.021 0.218,0.011 0.201,0.042C0.184,0.073 0.166,0.1 0.148,0.125C0.13,0.149 0.111,0.168 0.092,0.183C0.073,0.198 0.053,0.205 0.032,0.205C0.021,0.205 0.011,0.204 0.003,0.203C-0.006,0.202 -0.013,0.199 -0.02,0.196L0.004,0.127C0.011,0.13 0.019,0.131 0.028,0.131C0.047,0.131 0.067,0.121 0.086,0.101C0.105,0.081 0.127,0.047 0.151,-0L0.065,-0.5L0.145,-0.5L0.194,-0.176Z" style="fill-rule:nonzero;"/>
        </g>
        <g transform="matrix(40,0,0,40,10244.5,553.137)">
            <path d="M0.027,-0.12C0.027,-0.152 0.034,-0.178 0.048,-0.198C0.062,-0.218 0.08,-0.235 0.101,-0.248C0.122,-0.261 0.145,-0.272 0.17,-0.281C0.195,-0.29 0.218,-0.299 0.239,-0.308C0.26,-0.317 0.278,-0.327 0.292,-0.339C0.306,-0.35 0.313,-0.366 0.313,-0.385C0.313,-0.406 0.307,-0.421 0.296,-0.43C0.284,-0.439 0.264,-0.443 0.235,-0.443C0.21,-0.443 0.188,-0.44 0.17,-0.435C0.151,-0.429 0.135,-0.422 0.12,-0.415L0.105,-0.474C0.126,-0.485 0.15,-0.494 0.175,-0.499C0.2,-0.504 0.227,-0.507 0.255,-0.507C0.282,-0.507 0.304,-0.504 0.322,-0.498C0.339,-0.492 0.353,-0.484 0.364,-0.474C0.375,-0.464 0.382,-0.452 0.387,-0.439C0.391,-0.426 0.393,-0.412 0.393,-0.397C0.393,-0.365 0.386,-0.339 0.372,-0.32C0.358,-0.3 0.34,-0.284 0.319,-0.272C0.298,-0.259 0.275,-0.249 0.25,-0.241C0.225,-0.233 0.202,-0.224 0.181,-0.215C0.16,-0.206 0.142,-0.195 0.128,-0.182C0.114,-0.169 0.107,-0.151 0.107,-0.129C0.107,-0.106 0.115,-0.087 0.13,-0.073C0.145,-0.059 0.164,-0.052 0.189,-0.052C0.214,-0.052 0.238,-0.056 0.262,-0.065C0.286,-0.074 0.305,-0.083 0.318,-0.092L0.338,-0.043C0.317,-0.026 0.293,-0.012 0.264,-0.003C0.235,0.007 0.208,0.012 0.184,0.012C0.151,0.012 0.125,0.008 0.105,-0.002C0.084,-0.011 0.068,-0.022 0.057,-0.035C0.045,-0.048 0.037,-0.063 0.033,-0.078C0.029,-0.093 0.027,-0.107 0.027,-0.12Z" style="fill-rule:nonzero;"/>
        </g>
        <g transform="matrix(40,0,0,40,10260.9,553.137)">
            <path d="M0.05,-0.156C0.05,-0.209 0.057,-0.257 0.071,-0.301C0.084,-0.344 0.103,-0.382 0.127,-0.413C0.151,-0.444 0.179,-0.469 0.211,-0.486C0.242,-0.503 0.276,-0.512 0.312,-0.512C0.34,-0.512 0.364,-0.507 0.384,-0.499C0.403,-0.49 0.419,-0.477 0.432,-0.462C0.444,-0.446 0.453,-0.428 0.458,-0.408C0.463,-0.387 0.466,-0.366 0.466,-0.344C0.466,-0.294 0.46,-0.247 0.447,-0.204C0.434,-0.161 0.416,-0.123 0.393,-0.091C0.37,-0.059 0.343,-0.034 0.312,-0.016C0.281,0.003 0.248,0.012 0.212,0.012C0.182,0.012 0.157,0.007 0.137,-0.003C0.116,-0.012 0.099,-0.025 0.087,-0.041C0.074,-0.057 0.064,-0.075 0.059,-0.095C0.053,-0.115 0.05,-0.135 0.05,-0.156ZM0.13,-0.174C0.13,-0.135 0.137,-0.105 0.152,-0.084C0.167,-0.063 0.19,-0.052 0.222,-0.052C0.244,-0.052 0.265,-0.06 0.285,-0.076C0.304,-0.091 0.322,-0.112 0.337,-0.139C0.352,-0.166 0.364,-0.196 0.373,-0.231C0.382,-0.265 0.386,-0.301 0.386,-0.338C0.386,-0.372 0.38,-0.399 0.368,-0.419C0.355,-0.438 0.332,-0.448 0.297,-0.448C0.275,-0.448 0.254,-0.44 0.234,-0.426C0.214,-0.411 0.196,-0.39 0.181,-0.365C0.165,-0.34 0.153,-0.311 0.144,-0.278C0.135,-0.245 0.13,-0.21 0.13,-0.174Z" style="fill-rule:nonzero;"/>
        </g>
        <g transform="matrix(40,0,0,40,10280.9,553.137)">
            <path d="M0.388,-0.436L0.254,-0.436C0.237,-0.365 0.22,-0.302 0.205,-0.247C0.19,-0.192 0.173,-0.147 0.156,-0.11C0.138,-0.073 0.118,-0.044 0.097,-0.025C0.076,-0.006 0.05,0.004 0.02,0.004C0.009,0.004 -0.002,0.003 -0.011,0.002C-0.02,0.001 -0.027,-0.002 -0.033,-0.005L-0.01,-0.069C-0.002,-0.067 0.006,-0.066 0.013,-0.066C0.028,-0.066 0.042,-0.071 0.055,-0.082C0.067,-0.093 0.081,-0.114 0.095,-0.145C0.109,-0.176 0.124,-0.22 0.141,-0.277C0.157,-0.334 0.176,-0.408 0.198,-0.5L0.476,-0.5L0.37,-0L0.295,-0L0.388,-0.436Z" style="fill-rule:nonzero;"/>
        </g>
        <g transform="matrix(40,0,0,40,10300.5,553.137)">
            <path d="M0.14,-0.132C0.138,-0.123 0.137,-0.115 0.137,-0.108C0.137,-0.093 0.142,-0.081 0.152,-0.072C0.161,-0.063 0.177,-0.058 0.198,-0.058C0.217,-0.058 0.234,-0.061 0.251,-0.068C0.267,-0.074 0.281,-0.083 0.294,-0.094C0.307,-0.105 0.317,-0.119 0.324,-0.135C0.331,-0.151 0.335,-0.169 0.335,-0.189C0.335,-0.212 0.329,-0.229 0.317,-0.239C0.304,-0.249 0.282,-0.254 0.25,-0.254C0.233,-0.254 0.217,-0.252 0.204,-0.249C0.191,-0.245 0.178,-0.241 0.166,-0.237L0.14,-0.132ZM0.18,-0.303C0.181,-0.303 0.182,-0.303 0.183,-0.304C0.183,-0.304 0.184,-0.304 0.185,-0.304C0.198,-0.307 0.212,-0.31 0.227,-0.313C0.242,-0.315 0.258,-0.316 0.276,-0.316C0.305,-0.316 0.329,-0.313 0.347,-0.307C0.365,-0.301 0.379,-0.293 0.389,-0.283C0.399,-0.273 0.406,-0.261 0.41,-0.248C0.413,-0.235 0.415,-0.221 0.415,-0.207C0.415,-0.172 0.409,-0.141 0.396,-0.115C0.383,-0.088 0.365,-0.066 0.344,-0.048C0.322,-0.03 0.297,-0.017 0.269,-0.008C0.241,0.002 0.212,0.006 0.182,0.006C0.159,0.006 0.139,0.003 0.124,-0.002C0.109,-0.007 0.096,-0.014 0.087,-0.024C0.077,-0.033 0.07,-0.043 0.066,-0.055C0.062,-0.066 0.06,-0.078 0.06,-0.09C0.06,-0.099 0.061,-0.109 0.063,-0.119L0.152,-0.5L0.227,-0.5L0.18,-0.303Z" style="fill-rule:nonzero;"/>
        </g>
        <g transform="matrix(40,0,0,40,10318.4,553.137)">
            <path d="M0.373,-0.22L0.157,-0.22L0.11,-0L0.035,-0L0.141,-0.5L0.216,-0.5L0.172,-0.292L0.388,-0.292L0.432,-0.5L0.507,-0.5L0.401,-0L0.326,-0L0.373,-0.22Z" style="fill-rule:nonzero;"/>
        </g>
        <g transform="matrix(40,0,0,40,10339.2,553.137)">
            <path d="M0.213,-0.5L0.143,-0.167C0.139,-0.149 0.137,-0.132 0.137,-0.117C0.137,-0.098 0.141,-0.083 0.148,-0.071C0.155,-0.058 0.169,-0.052 0.188,-0.052C0.204,-0.052 0.22,-0.056 0.237,-0.064C0.253,-0.072 0.269,-0.082 0.284,-0.095C0.299,-0.108 0.312,-0.122 0.325,-0.137C0.337,-0.152 0.347,-0.167 0.355,-0.182L0.422,-0.5L0.497,-0.5L0.434,-0.203C0.431,-0.192 0.429,-0.178 0.426,-0.162C0.423,-0.145 0.421,-0.128 0.419,-0.11C0.416,-0.092 0.414,-0.075 0.413,-0.058C0.412,-0.041 0.411,-0.026 0.411,-0.013L0.411,-0L0.352,-0L0.352,-0.095L0.348,-0.095C0.338,-0.082 0.327,-0.069 0.314,-0.056C0.301,-0.043 0.286,-0.032 0.271,-0.022C0.255,-0.012 0.238,-0.004 0.22,0.003C0.202,0.009 0.183,0.012 0.163,0.012C0.148,0.012 0.135,0.01 0.123,0.007C0.11,0.004 0.099,-0.002 0.09,-0.011C0.081,-0.019 0.073,-0.03 0.068,-0.044C0.063,-0.057 0.06,-0.075 0.06,-0.096C0.06,-0.119 0.063,-0.146 0.07,-0.175L0.138,-0.5L0.213,-0.5Z" style="fill-rule:nonzero;"/>
        </g>
        <g transform="matrix(40,0,0,40,10359.7,553.137)">
            <path d="M0.211,-0.225L0.157,-0.225L0.11,-0L0.035,-0L0.141,-0.5L0.216,-0.5L0.168,-0.274L0.209,-0.287L0.395,-0.5L0.485,-0.5L0.302,-0.299L0.256,-0.266L0.296,-0.226L0.408,-0L0.324,-0L0.211,-0.225Z" style="fill-rule:nonzero;"/>
        </g>
        <g transform="matrix(40,0,0,40,10378.2,553.137)">
            <path d="M0.137,-0.71C0.152,-0.689 0.165,-0.666 0.176,-0.641C0.187,-0.616 0.195,-0.591 0.202,-0.566C0.209,-0.541 0.214,-0.516 0.217,-0.491C0.22,-0.466 0.221,-0.442 0.221,-0.421C0.221,-0.353 0.214,-0.288 0.199,-0.226C0.184,-0.163 0.163,-0.105 0.138,-0.051C0.112,0.004 0.082,0.054 0.049,0.099C0.015,0.144 -0.02,0.184 -0.057,0.218L-0.095,0.183C-0.062,0.149 -0.032,0.109 -0.004,0.064C0.025,0.019 0.05,-0.029 0.072,-0.08C0.094,-0.13 0.111,-0.182 0.124,-0.236C0.137,-0.289 0.143,-0.342 0.143,-0.393C0.143,-0.457 0.139,-0.511 0.131,-0.556C0.122,-0.601 0.108,-0.641 0.087,-0.677L0.137,-0.71Z" style="fill-rule:nonzero;"/>
        </g>
    </g>
    <g transform="matrix(1,0,0,1,-9204.75,-229.304)">
        <g transform="matrix(47.8554,0,0,47.8554,10147.7,508.377)">
            <path d="M0.234,-0.058C0.257,-0.058 0.278,-0.061 0.297,-0.068C0.316,-0.075 0.333,-0.085 0.347,-0.098C0.361,-0.111 0.372,-0.126 0.38,-0.144C0.388,-0.162 0.392,-0.182 0.392,-0.203C0.392,-0.25 0.378,-0.284 0.351,-0.307C0.323,-0.33 0.285,-0.341 0.236,-0.341L0.162,-0.341L0.162,-0.37L0.306,-0.592L0.352,-0.636L0.287,-0.626L0.089,-0.626L0.089,-0.7L0.446,-0.7L0.446,-0.671L0.287,-0.432L0.252,-0.403L0.252,-0.401L0.286,-0.408C0.313,-0.407 0.337,-0.403 0.36,-0.394C0.383,-0.385 0.402,-0.372 0.419,-0.355C0.436,-0.337 0.449,-0.317 0.458,-0.294C0.467,-0.27 0.472,-0.243 0.472,-0.213C0.472,-0.177 0.466,-0.145 0.453,-0.117C0.44,-0.089 0.423,-0.066 0.402,-0.047C0.38,-0.028 0.354,-0.013 0.325,-0.003C0.296,0.007 0.265,0.012 0.232,0.012C0.202,0.012 0.175,0.01 0.151,0.005C0.127,0 0.106,-0.006 0.088,-0.013L0.109,-0.084C0.124,-0.077 0.142,-0.07 0.164,-0.066C0.185,-0.061 0.208,-0.058 0.234,-0.058Z" style="fill-rule:nonzero;"/>
        </g>
        <g transform="matrix(47.8554,0,0,47.8554,10173.8,508.377)">
            <rect x="0.059" y="-0.325" width="0.242" height="0.074" style="fill-rule:nonzero;"/>
        </g>
        <g transform="matrix(47.8554,0,0,47.8554,10191.1,508.377)">
            <path d="M0.418,-0.033C0.398,-0.018 0.374,-0.007 0.347,0.001C0.32,0.008 0.291,0.012 0.261,0.012C0.222,0.012 0.19,0.006 0.163,-0.007C0.136,-0.019 0.115,-0.037 0.098,-0.06C0.081,-0.083 0.068,-0.11 0.061,-0.143C0.053,-0.175 0.049,-0.211 0.049,-0.25C0.049,-0.335 0.068,-0.4 0.105,-0.445C0.142,-0.49 0.196,-0.512 0.266,-0.512C0.298,-0.512 0.325,-0.51 0.348,-0.505C0.37,-0.5 0.39,-0.492 0.408,-0.483L0.385,-0.414C0.37,-0.423 0.353,-0.43 0.334,-0.435C0.315,-0.44 0.295,-0.442 0.274,-0.442C0.179,-0.442 0.132,-0.378 0.132,-0.25C0.132,-0.225 0.135,-0.2 0.14,-0.178C0.145,-0.155 0.153,-0.134 0.165,-0.117C0.176,-0.099 0.192,-0.085 0.211,-0.074C0.23,-0.063 0.253,-0.058 0.281,-0.058C0.305,-0.058 0.327,-0.062 0.346,-0.069C0.365,-0.076 0.38,-0.085 0.392,-0.094L0.418,-0.033Z" style="fill-rule:nonzero;"/>
        </g>
        <g transform="matrix(47.8554,0,0,47.8554,10212.6,508.377)">
            <path d="M0.389,-0.296L0.392,-0.358L0.389,-0.358L0.348,-0.294L0.123,-0L0.077,-0L0.077,-0.5L0.157,-0.5L0.157,-0.195L0.154,-0.136L0.158,-0.136L0.197,-0.198L0.422,-0.5L0.469,-0.5L0.469,-0L0.389,-0L0.389,-0.296Z" style="fill-rule:nonzero;"/>
        </g>
        <g transform="matrix(47.8554,0,0,47.8554,10238.8,508.377)">
            <path d="M0.49,-0.297L0.496,-0.392L0.491,-0.392L0.455,-0.315L0.334,-0.119L0.306,-0.119L0.18,-0.315L0.147,-0.392L0.143,-0.392L0.151,-0.298L0.151,-0L0.077,-0L0.077,-0.5L0.156,-0.5L0.296,-0.276L0.325,-0.218L0.327,-0.218L0.357,-0.278L0.488,-0.5L0.568,-0.5L0.568,-0L0.49,-0L0.49,-0.297Z" style="fill-rule:nonzero;"/>
        </g>
        <g transform="matrix(47.8554,0,0,47.8554,10269.6,508.377)">
            <path d="M0.378,-0.43L0.157,-0.43L0.157,-0L0.077,-0L0.077,-0.5L0.458,-0.5L0.458,-0L0.378,-0L0.378,-0.43Z" style="fill-rule:nonzero;"/>
        </g>
        <g transform="matrix(47.8554,0,0,47.8554,10295.2,508.377)">
            <path d="M0.346,-0.43L0.201,-0.43C0.199,-0.402 0.197,-0.372 0.195,-0.34C0.193,-0.307 0.19,-0.275 0.186,-0.243C0.182,-0.21 0.177,-0.179 0.17,-0.15C0.163,-0.12 0.155,-0.094 0.145,-0.071C0.134,-0.048 0.122,-0.03 0.107,-0.017C0.092,-0.003 0.074,0.004 0.053,0.004C0.04,0.004 0.029,0.003 0.02,0.002C0.011,0.001 0.002,-0.002 -0.005,-0.005L0.007,-0.072C0.015,-0.069 0.024,-0.068 0.033,-0.068C0.046,-0.068 0.058,-0.074 0.069,-0.085C0.08,-0.096 0.089,-0.118 0.097,-0.15C0.105,-0.181 0.112,-0.225 0.117,-0.281C0.122,-0.337 0.126,-0.41 0.128,-0.5L0.426,-0.5L0.426,-0L0.346,-0L0.346,-0.43Z" style="fill-rule:nonzero;"/>
        </g>
        <g transform="matrix(47.8554,0,0,47.8554,10319.3,508.377)">
            <path d="M0.442,-0.04C0.422,-0.024 0.397,-0.011 0.367,-0.002C0.336,0.007 0.304,0.012 0.27,0.012C0.232,0.012 0.199,0.006 0.171,-0.007C0.143,-0.019 0.12,-0.037 0.102,-0.06C0.084,-0.083 0.071,-0.11 0.062,-0.142C0.053,-0.174 0.049,-0.21 0.049,-0.25C0.049,-0.335 0.068,-0.4 0.106,-0.445C0.144,-0.49 0.198,-0.512 0.269,-0.512C0.292,-0.512 0.314,-0.51 0.337,-0.505C0.36,-0.5 0.38,-0.49 0.398,-0.476C0.416,-0.462 0.431,-0.442 0.442,-0.417C0.453,-0.391 0.459,-0.357 0.459,-0.315C0.459,-0.293 0.457,-0.269 0.453,-0.242L0.132,-0.242C0.132,-0.213 0.135,-0.187 0.141,-0.164C0.147,-0.141 0.156,-0.122 0.169,-0.107C0.182,-0.091 0.198,-0.079 0.219,-0.071C0.239,-0.062 0.264,-0.058 0.293,-0.058C0.316,-0.058 0.338,-0.062 0.361,-0.07C0.384,-0.078 0.401,-0.087 0.412,-0.098L0.442,-0.04ZM0.27,-0.442C0.231,-0.442 0.199,-0.432 0.176,-0.411C0.152,-0.39 0.138,-0.355 0.133,-0.305L0.381,-0.305C0.381,-0.356 0.371,-0.391 0.352,-0.412C0.333,-0.432 0.305,-0.442 0.27,-0.442Z" style="fill-rule:nonzero;"/>
        </g>
        <g transform="matrix(47.8554,0,0,47.8554,10343.6,508.377)">
            <path d="M0.203,-0.225L0.157,-0.225L0.157,-0L0.077,-0L0.077,-0.5L0.157,-0.5L0.157,-0.274L0.2,-0.288L0.36,-0.5L0.447,-0.5L0.292,-0.299L0.25,-0.266L0.302,-0.226L0.469,-0L0.37,-0L0.203,-0.225Z" style="fill-rule:nonzero;"/>
        </g>
        <g transform="matrix(47.8554,0,0,47.8554,10366.5,508.377)">
            <path d="M0.418,-0.033C0.398,-0.018 0.374,-0.007 0.347,0.001C0.32,0.008 0.291,0.012 0.261,0.012C0.222,0.012 0.19,0.006 0.163,-0.007C0.136,-0.019 0.115,-0.037 0.098,-0.06C0.081,-0.083 0.068,-0.11 0.061,-0.143C0.053,-0.175 0.049,-0.211 0.049,-0.25C0.049,-0.335 0.068,-0.4 0.105,-0.445C0.142,-0.49 0.196,-0.512 0.266,-0.512C0.298,-0.512 0.325,-0.51 0.348,-0.505C0.37,-0.5 0.39,-0.492 0.408,-0.483L0.385,-0.414C0.37,-0.423 0.353,-0.43 0.334,-0.435C0.315,-0.44 0.295,-0.442 0.274,-0.442C0.179,-0.442 0.132,-0.378 0.132,-0.25C0.132,-0.225 0.135,-0.2 0.14,-0.178C0.145,-0.155 0.153,-0.134 0.165,-0.117C0.176,-0.099 0.192,-0.085 0.211,-0.074C0.23,-0.063 0.253,-0.058 0.281,-0.058C0.305,-0.058 0.327,-0.062 0.346,-0.069C0.365,-0.076 0.38,-0.085 0.392,-0.094L0.418,-0.033Z" style="fill-rule:nonzero;"/>
        </g>
        <g transform="matrix(40,0,0,40,10168.7,553.137)">
            <path d="M0.145,0.218C0.109,0.165 0.085,0.115 0.073,0.066C0.06,0.017 0.054,-0.03 0.054,-0.073C0.054,-0.142 0.062,-0.207 0.077,-0.269C0.092,-0.331 0.113,-0.389 0.139,-0.443C0.165,-0.497 0.195,-0.547 0.229,-0.592C0.263,-0.636 0.299,-0.676 0.336,-0.71L0.373,-0.675C0.336,-0.634 0.302,-0.59 0.273,-0.544C0.243,-0.497 0.217,-0.449 0.196,-0.399C0.175,-0.349 0.159,-0.298 0.148,-0.245C0.137,-0.192 0.132,-0.138 0.132,-0.085C0.132,-0.042 0.136,0.002 0.146,0.047C0.155,0.092 0.17,0.138 0.191,0.183L0.145,0.218Z" style="fill-rule:nonzero;"/>
        </g>
        <g transform="matrix(40,0,0,40,10179.4,553.137)">
            <path d="M0.305,-0L0.365,-0.283C0.37,-0.306 0.374,-0.327 0.377,-0.345C0.38,-0.363 0.381,-0.379 0.381,-0.392C0.381,-0.41 0.378,-0.424 0.371,-0.434C0.364,-0.443 0.353,-0.448 0.337,-0.448C0.32,-0.448 0.304,-0.444 0.288,-0.435C0.272,-0.426 0.257,-0.416 0.243,-0.403C0.229,-0.39 0.216,-0.376 0.205,-0.361C0.193,-0.346 0.184,-0.333 0.177,-0.321L0.111,-0L0.036,-0L0.142,-0.5L0.195,-0.5L0.189,-0.414L0.193,-0.414C0.204,-0.425 0.215,-0.436 0.228,-0.448C0.24,-0.459 0.254,-0.47 0.269,-0.479C0.284,-0.488 0.3,-0.496 0.318,-0.503C0.335,-0.509 0.355,-0.512 0.376,-0.512C0.406,-0.512 0.426,-0.503 0.437,-0.484C0.447,-0.465 0.452,-0.439 0.452,-0.406C0.462,-0.419 0.474,-0.431 0.487,-0.444C0.5,-0.457 0.515,-0.468 0.531,-0.478C0.546,-0.488 0.563,-0.496 0.58,-0.503C0.597,-0.509 0.615,-0.512 0.632,-0.512C0.663,-0.512 0.686,-0.505 0.703,-0.491C0.719,-0.476 0.727,-0.45 0.727,-0.411C0.727,-0.383 0.722,-0.346 0.712,-0.3L0.649,-0L0.574,-0L0.637,-0.301C0.641,-0.32 0.644,-0.338 0.647,-0.353C0.649,-0.368 0.65,-0.382 0.65,-0.393C0.65,-0.411 0.646,-0.425 0.639,-0.434C0.632,-0.443 0.619,-0.448 0.602,-0.448C0.588,-0.448 0.573,-0.444 0.558,-0.435C0.542,-0.426 0.527,-0.414 0.512,-0.401C0.497,-0.388 0.484,-0.373 0.473,-0.358C0.461,-0.343 0.452,-0.328 0.445,-0.315L0.38,-0L0.305,-0Z" style="fill-rule:nonzero;"/>
        </g>
        <g transform="matrix(40,0,0,40,10209.9,553.137)">
            <path d="M0.389,-0.049C0.366,-0.029 0.338,-0.014 0.307,-0.004C0.275,0.007 0.243,0.012 0.211,0.012C0.158,0.012 0.118,-0.003 0.091,-0.034C0.064,-0.065 0.05,-0.107 0.05,-0.162C0.05,-0.217 0.058,-0.266 0.073,-0.309C0.088,-0.352 0.109,-0.389 0.134,-0.419C0.159,-0.449 0.187,-0.472 0.219,-0.488C0.25,-0.504 0.283,-0.512 0.316,-0.512C0.34,-0.512 0.361,-0.509 0.379,-0.502C0.396,-0.495 0.411,-0.487 0.422,-0.476C0.433,-0.464 0.442,-0.452 0.447,-0.438C0.452,-0.423 0.455,-0.408 0.455,-0.392C0.455,-0.345 0.432,-0.308 0.386,-0.281C0.34,-0.254 0.273,-0.24 0.185,-0.24C0.177,-0.24 0.169,-0.24 0.16,-0.241C0.151,-0.241 0.142,-0.241 0.133,-0.242C0.13,-0.229 0.128,-0.217 0.127,-0.206C0.126,-0.195 0.125,-0.185 0.125,-0.176C0.125,-0.139 0.133,-0.11 0.15,-0.087C0.167,-0.064 0.193,-0.052 0.228,-0.052C0.257,-0.052 0.284,-0.057 0.309,-0.067C0.333,-0.076 0.352,-0.086 0.365,-0.097L0.389,-0.049ZM0.304,-0.448C0.267,-0.448 0.236,-0.436 0.209,-0.411C0.182,-0.386 0.161,-0.348 0.147,-0.298C0.172,-0.298 0.199,-0.299 0.226,-0.3C0.253,-0.301 0.278,-0.305 0.301,-0.311C0.323,-0.316 0.341,-0.325 0.356,-0.338C0.371,-0.35 0.378,-0.367 0.378,-0.389C0.378,-0.396 0.377,-0.403 0.375,-0.41C0.372,-0.417 0.368,-0.423 0.363,-0.429C0.358,-0.434 0.35,-0.439 0.341,-0.443C0.331,-0.446 0.319,-0.448 0.304,-0.448Z" style="fill-rule:nonzero;"/>
        </g>
        <g transform="matrix(40,0,0,40,10228.4,553.137)">
            <path d="M0.305,-0L0.365,-0.283C0.37,-0.306 0.374,-0.327 0.377,-0.345C0.38,-0.363 0.381,-0.379 0.381,-0.392C0.381,-0.41 0.378,-0.424 0.371,-0.434C0.364,-0.443 0.353,-0.448 0.337,-0.448C0.32,-0.448 0.304,-0.444 0.288,-0.435C0.272,-0.426 0.257,-0.416 0.243,-0.403C0.229,-0.39 0.216,-0.376 0.205,-0.361C0.193,-0.346 0.184,-0.333 0.177,-0.321L0.111,-0L0.036,-0L0.142,-0.5L0.195,-0.5L0.189,-0.414L0.193,-0.414C0.204,-0.425 0.215,-0.436 0.228,-0.448C0.24,-0.459 0.254,-0.47 0.269,-0.479C0.284,-0.488 0.3,-0.496 0.318,-0.503C0.335,-0.509 0.355,-0.512 0.376,-0.512C0.406,-0.512 0.426,-0.503 0.437,-0.484C0.447,-0.465 0.452,-0.439 0.452,-0.406C0.462,-0.419 0.474,-0.431 0.487,-0.444C0.5,-0.457 0.515,-0.468 0.531,-0.478C0.546,-0.488 0.563,-0.496 0.58,-0.503C0.597,-0.509 0.615,-0.512 0.632,-0.512C0.663,-0.512 0.686,-0.505 0.703,-0.491C0.719,-0.476 0.727,-0.45 0.727,-0.411C0.727,-0.383 0.722,-0.346 0.712,-0.3L0.649,-0L0.574,-0L0.637,-0.301C0.641,-0.32 0.644,-0.338 0.647,-0.353C0.649,-0.368 0.65,-0.382 0.65,-0.393C0.65,-0.411 0.646,-0.425 0.639,-0.434C0.632,-0.443 0.619,-0.448 0.602,-0.448C0.588,-0.448 0.573,-0.444 0.558,-0.435C0.542,-0.426 0.527,-0.414 0.512,-0.401C0.497,-0.388 0.484,-0.373 0.473,-0.358C0.461,-0.343 0.452,-0.328 0.445,-0.315L0.38,-0L0.305,-0Z" style="fill-rule:nonzero;"/>
        </g>
        <g transform="matrix(40,0,0,40,10258.9,553.137)">
            <path d="M0.144,-0.5L0.196,-0.5L0.191,-0.414L0.195,-0.414C0.204,-0.426 0.215,-0.438 0.227,-0.45C0.238,-0.461 0.251,-0.472 0.265,-0.481C0.279,-0.49 0.294,-0.498 0.311,-0.504C0.328,-0.509 0.346,-0.512 0.365,-0.512C0.381,-0.512 0.396,-0.51 0.41,-0.505C0.424,-0.5 0.436,-0.491 0.447,-0.48C0.458,-0.468 0.466,-0.452 0.473,-0.433C0.479,-0.414 0.482,-0.39 0.482,-0.362C0.482,-0.303 0.474,-0.251 0.458,-0.205C0.442,-0.158 0.421,-0.119 0.395,-0.087C0.369,-0.055 0.34,-0.031 0.308,-0.014C0.275,0.004 0.243,0.012 0.211,0.012C0.188,0.012 0.167,0.01 0.15,0.006C0.132,0.001 0.12,-0.003 0.114,-0.008L0.07,0.2L-0.005,0.2L0.144,-0.5ZM0.337,-0.448C0.319,-0.448 0.302,-0.443 0.286,-0.434C0.269,-0.425 0.254,-0.413 0.241,-0.4C0.227,-0.386 0.215,-0.371 0.204,-0.356C0.193,-0.34 0.185,-0.325 0.178,-0.312L0.129,-0.075C0.14,-0.066 0.152,-0.06 0.164,-0.057C0.176,-0.054 0.189,-0.052 0.203,-0.052C0.229,-0.052 0.254,-0.059 0.278,-0.074C0.301,-0.088 0.322,-0.108 0.341,-0.135C0.36,-0.162 0.375,-0.194 0.386,-0.231C0.397,-0.268 0.402,-0.31 0.402,-0.356C0.402,-0.383 0.397,-0.405 0.386,-0.422C0.375,-0.439 0.358,-0.448 0.337,-0.448Z" style="fill-rule:nonzero;"/>
        </g>
        <g transform="matrix(40,0,0,40,10279.2,553.137)">
            <path d="M0.414,-0.197C0.409,-0.172 0.405,-0.147 0.403,-0.122C0.401,-0.097 0.4,-0.073 0.4,-0.051L0.4,-0.023C0.4,-0.014 0.401,-0.005 0.402,0.002L0.346,0.002L0.332,-0.085L0.328,-0.085C0.32,-0.074 0.31,-0.062 0.299,-0.051C0.287,-0.039 0.274,-0.028 0.26,-0.019C0.246,-0.01 0.231,-0.002 0.215,0.004C0.199,0.009 0.182,0.012 0.164,0.012C0.085,0.012 0.045,-0.04 0.045,-0.143C0.045,-0.186 0.05,-0.229 0.062,-0.273C0.073,-0.317 0.09,-0.357 0.113,-0.392C0.135,-0.427 0.165,-0.456 0.202,-0.479C0.238,-0.502 0.282,-0.513 0.333,-0.513C0.352,-0.513 0.375,-0.511 0.402,-0.507C0.429,-0.502 0.454,-0.496 0.477,-0.489L0.414,-0.197ZM0.187,-0.052C0.203,-0.052 0.218,-0.056 0.233,-0.064C0.248,-0.071 0.262,-0.081 0.275,-0.092C0.288,-0.103 0.299,-0.116 0.309,-0.129C0.319,-0.141 0.327,-0.154 0.333,-0.165L0.389,-0.435C0.369,-0.444 0.344,-0.449 0.313,-0.449C0.282,-0.449 0.255,-0.44 0.232,-0.422C0.209,-0.404 0.189,-0.381 0.173,-0.352C0.157,-0.323 0.145,-0.29 0.137,-0.253C0.129,-0.216 0.125,-0.18 0.125,-0.143C0.125,-0.118 0.13,-0.096 0.14,-0.079C0.15,-0.061 0.166,-0.052 0.187,-0.052Z" style="fill-rule:nonzero;"/>
        </g>
        <g transform="matrix(40,0,0,40,10298.7,553.137)">
            <path d="M0.124,-0.283L0.323,-0.283C0.324,-0.29 0.325,-0.297 0.326,-0.304C0.327,-0.311 0.327,-0.318 0.327,-0.326C0.327,-0.368 0.319,-0.399 0.302,-0.419C0.285,-0.438 0.262,-0.448 0.231,-0.448C0.2,-0.448 0.175,-0.444 0.155,-0.438C0.134,-0.431 0.117,-0.423 0.104,-0.415L0.084,-0.467C0.107,-0.482 0.132,-0.493 0.159,-0.501C0.186,-0.508 0.216,-0.512 0.249,-0.512C0.276,-0.512 0.3,-0.508 0.32,-0.5C0.339,-0.492 0.356,-0.481 0.369,-0.467C0.382,-0.452 0.391,-0.435 0.398,-0.416C0.404,-0.397 0.407,-0.376 0.407,-0.353C0.407,-0.285 0.399,-0.228 0.384,-0.181C0.369,-0.134 0.348,-0.097 0.323,-0.069C0.298,-0.04 0.269,-0.02 0.237,-0.007C0.204,0.006 0.171,0.012 0.138,0.012C0.071,0.012 0.022,0.002 -0.009,-0.019L0.024,-0.08C0.037,-0.071 0.054,-0.065 0.075,-0.06C0.095,-0.055 0.116,-0.052 0.137,-0.052C0.183,-0.052 0.222,-0.066 0.253,-0.095C0.284,-0.124 0.305,-0.166 0.318,-0.222L0.111,-0.222L0.124,-0.283Z" style="fill-rule:nonzero;"/>
        </g>
        <g transform="matrix(40,0,0,40,10316.3,553.137)">
            <path d="M0.305,-0.505C0.328,-0.505 0.345,-0.503 0.359,-0.499C0.372,-0.494 0.383,-0.489 0.392,-0.482L0.397,-0.482C0.394,-0.533 0.375,-0.573 0.342,-0.603C0.308,-0.633 0.262,-0.648 0.204,-0.648L0.218,-0.712C0.267,-0.712 0.307,-0.705 0.34,-0.69C0.373,-0.675 0.399,-0.655 0.419,-0.63C0.439,-0.605 0.453,-0.575 0.462,-0.541C0.47,-0.507 0.474,-0.471 0.474,-0.432C0.474,-0.362 0.467,-0.3 0.454,-0.245C0.44,-0.19 0.421,-0.143 0.397,-0.105C0.373,-0.067 0.345,-0.038 0.313,-0.018C0.28,0.002 0.245,0.012 0.208,0.012C0.154,0.012 0.114,-0.005 0.089,-0.038C0.064,-0.071 0.051,-0.117 0.051,-0.176C0.051,-0.218 0.057,-0.259 0.069,-0.298C0.08,-0.337 0.097,-0.372 0.119,-0.403C0.141,-0.434 0.168,-0.458 0.199,-0.477C0.23,-0.496 0.266,-0.505 0.305,-0.505ZM0.299,-0.441C0.278,-0.441 0.257,-0.434 0.237,-0.421C0.217,-0.408 0.199,-0.389 0.184,-0.365C0.168,-0.341 0.155,-0.312 0.146,-0.279C0.136,-0.245 0.131,-0.208 0.131,-0.168C0.131,-0.135 0.138,-0.108 0.151,-0.086C0.164,-0.063 0.186,-0.052 0.216,-0.052C0.249,-0.052 0.276,-0.064 0.299,-0.087C0.322,-0.11 0.34,-0.139 0.354,-0.175C0.368,-0.21 0.378,-0.247 0.385,-0.289C0.391,-0.33 0.394,-0.368 0.394,-0.403C0.383,-0.416 0.37,-0.426 0.356,-0.432C0.341,-0.438 0.322,-0.441 0.299,-0.441Z" style="fill-rule:nonzero;"/>
        </g>
        <g transform="matrix(40,0,0,40,10336.1,553.137)">
            <path d="M0.144,-0.5L0.196,-0.5L0.191,-0.414L0.195,-0.414C0.204,-0.426 0.215,-0.438 0.227,-0.45C0.238,-0.461 0.251,-0.472 0.265,-0.481C0.279,-0.49 0.294,-0.498 0.311,-0.504C0.328,-0.509 0.346,-0.512 0.365,-0.512C0.381,-0.512 0.396,-0.51 0.41,-0.505C0.424,-0.5 0.436,-0.491 0.447,-0.48C0.458,-0.468 0.466,-0.452 0.473,-0.433C0.479,-0.414 0.482,-0.39 0.482,-0.362C0.482,-0.303 0.474,-0.251 0.458,-0.205C0.442,-0.158 0.421,-0.119 0.395,-0.087C0.369,-0.055 0.34,-0.031 0.308,-0.014C0.275,0.004 0.243,0.012 0.211,0.012C0.188,0.012 0.167,0.01 0.15,0.006C0.132,0.001 0.12,-0.003 0.114,-0.008L0.07,0.2L-0.005,0.2L0.144,-0.5ZM0.337,-0.448C0.319,-0.448 0.302,-0.443 0.286,-0.434C0.269,-0.425 0.254,-0.413 0.241,-0.4C0.227,-0.386 0.215,-0.371 0.204,-0.356C0.193,-0.34 0.185,-0.325 0.178,-0.312L0.129,-0.075C0.14,-0.066 0.152,-0.06 0.164,-0.057C0.176,-0.054 0.189,-0.052 0.203,-0.052C0.229,-0.052 0.254,-0.059 0.278,-0.074C0.301,-0.088 0.322,-0.108 0.341,-0.135C0.36,-0.162 0.375,-0.194 0.386,-0.231C0.397,-0.268 0.402,-0.31 0.402,-0.356C0.402,-0.383 0.397,-0.405 0.386,-0.422C0.375,-0.439 0.358,-0.448 0.337,-0.448Z" style="fill-rule:nonzero;"/>
        </g>
        <g transform="matrix(40,0,0,40,10356.4,553.137)">
            <path d="M0.137,-0.71C0.152,-0.689 0.165,-0.666 0.176,-0.641C0.187,-0.616 0.195,-0.591 0.202,-0.566C0.209,-0.541 0.214,-0.516 0.217,-0.491C0.22,-0.466 0.221,-0.442 0.221,-0.421C0.221,-0.353 0.214,-0.288 0.199,-0.226C0.184,-0.163 0.163,-0.105 0.138,-0.051C0.112,0.004 0.082,0.054 0.049,0.099C0.015,0.144 -0.02,0.184 -0.057,0.218L-0.095,0.183C-0.062,0.149 -0.032,0.109 -0.004,0.064C0.025,0.019 0.05,-0.029 0.072,-0.08C0.094,-0.13 0.111,-0.182 0.124,-0.236C0.137,-0.289 0.143,-0.342 0.143,-0.393C0.143,-0.457 0.139,-0.511 0.131,-0.556C0.122,-0.601 0.108,-0.641 0.087,-0.677L0.137,-0.71Z" style="fill-rule:nonzero;"/>
        </g>
    </g>
</svg>
