<?xml version="1.0" encoding="UTF-8" standalone="no"?>
<!DOCTYPE svg PUBLIC "-//W3C//DTD SVG 1.1//EN" "http://www.w3.org/Graphics/SVG/1.1/DTD/svg11.dtd">
<svg width="100%" height="100%" viewBox="0 0 1215 653" version="1.1" xmlns="http://www.w3.org/2000/svg" xmlns:xlink="http://www.w3.org/1999/xlink" xml:space="preserve" xmlns:serif="http://www.serif.com/" style="fill-rule:evenodd;clip-rule:evenodd;stroke-linecap:round;stroke-linejoin:round;stroke-miterlimit:1.5;">
    <g transform="matrix(1,0,0,1,-78,-896)">
        <g id="Artboard1" transform="matrix(1,0,0,1,1532,0)">
            <rect x="-1532" y="755" width="1476" height="1019" style="fill:none;"/>
            <g transform="matrix(0.862489,0,0,0.862489,-2049.36,696.997)">
                <circle cx="817.043" cy="446.457" r="20.095"/>
            </g>
            <g transform="matrix(1,0,0,1,-1739,-11.5601)">
                <path d="M944.316,1159.73L1003.71,1042.55L1117.61,1076.46L1117.61,1170.57L1050.45,1219.22L944.316,1159.73ZM1030.96,1084L1017,1112L1050,1130.88L1075,1095L1030.96,1084Z" style="fill:rgb(194,194,194);stroke:black;stroke-width:6px;"/>
            </g>
            <g transform="matrix(0.862489,0,0,0.862489,-2057.85,1012.2)">
                <circle cx="817.043" cy="446.457" r="20.095"/>
            </g>
            <g transform="matrix(0.862489,0,0,0.862489,-2010.55,1067.05)">
                <circle cx="817.043" cy="446.457" r="20.095"/>
            </g>
            <g transform="matrix(0.862489,0,0,0.862489,-2078.33,1098.41)">
                <circle cx="817.043" cy="446.457" r="20.095"/>
            </g>
            <g transform="matrix(0.862489,0,0,0.862489,-1948.97,1024.63)">
                <path d="M1507.43,553.423L1460.19,589.736L1337.14,520.762L1357.5,482.861L1507.43,553.423Z" style="fill:rgb(194,194,194);stroke:black;stroke-width:6.96px;"/>
            </g>
            <g transform="matrix(0.223229,-0.833101,0.833101,0.223229,-1086.8,2531)">
                <path d="M1507.43,553.423L1460.19,589.736L1337.14,520.762L1357.5,482.861L1507.43,553.423Z" style="fill:rgb(194,194,194);stroke:black;stroke-width:6.96px;"/>
            </g>
            <g transform="matrix(0.862489,0,0,0.862489,-1948.97,1024.63)">
                <path d="M1369.75,456.425L1406.01,384.901L1538.06,424.224L1538.06,533.335L1369.75,456.425Z" style="fill:rgb(194,194,194);stroke:black;stroke-width:6.96px;"/>
            </g>
            <g transform="matrix(1.90554,0,0,1.90554,-2738.15,388.382)">
                <g transform="matrix(21.7258,0,0,21.7258,704.749,314.999)">
                    <path d="M0.085,-0.693C0.11,-0.699 0.138,-0.703 0.167,-0.705C0.196,-0.707 0.225,-0.708 0.254,-0.708C0.285,-0.708 0.316,-0.705 0.348,-0.699C0.379,-0.693 0.408,-0.682 0.434,-0.666C0.46,-0.65 0.481,-0.628 0.498,-0.6C0.514,-0.572 0.522,-0.536 0.522,-0.493C0.522,-0.45 0.514,-0.414 0.499,-0.385C0.484,-0.356 0.463,-0.332 0.438,-0.314C0.413,-0.295 0.384,-0.282 0.351,-0.274C0.318,-0.266 0.285,-0.262 0.25,-0.262L0.234,-0.262C0.226,-0.262 0.218,-0.262 0.21,-0.263C0.201,-0.263 0.193,-0.263 0.185,-0.264C0.177,-0.265 0.171,-0.265 0.168,-0.266L0.168,-0L0.085,-0L0.085,-0.693ZM0.256,-0.636C0.239,-0.636 0.222,-0.636 0.206,-0.635C0.19,-0.634 0.177,-0.633 0.168,-0.63L0.168,-0.34C0.171,-0.339 0.177,-0.338 0.184,-0.338C0.191,-0.337 0.199,-0.337 0.207,-0.337C0.215,-0.336 0.223,-0.336 0.23,-0.336L0.246,-0.336C0.269,-0.336 0.291,-0.338 0.314,-0.343C0.336,-0.347 0.356,-0.355 0.374,-0.366C0.392,-0.377 0.407,-0.393 0.418,-0.414C0.428,-0.435 0.434,-0.461 0.434,-0.493C0.434,-0.52 0.429,-0.543 0.419,-0.562C0.408,-0.58 0.395,-0.595 0.378,-0.606C0.361,-0.616 0.341,-0.624 0.32,-0.629C0.299,-0.634 0.277,-0.636 0.256,-0.636Z" style="fill-rule:nonzero;"/>
                </g>
                <g transform="matrix(21.7258,0,0,21.7258,716.894,314.999)">
                    <path d="M0.056,-0.35C0.056,-0.467 0.081,-0.556 0.13,-0.619C0.179,-0.681 0.25,-0.712 0.341,-0.712C0.39,-0.712 0.433,-0.703 0.469,-0.686C0.505,-0.669 0.535,-0.644 0.559,-0.613C0.582,-0.581 0.6,-0.543 0.611,-0.499C0.622,-0.454 0.628,-0.405 0.628,-0.35C0.628,-0.233 0.603,-0.144 0.554,-0.082C0.504,-0.019 0.433,0.012 0.341,0.012C0.292,0.012 0.25,0.003 0.215,-0.014C0.179,-0.031 0.149,-0.056 0.126,-0.088C0.102,-0.119 0.084,-0.157 0.073,-0.202C0.062,-0.246 0.056,-0.295 0.056,-0.35ZM0.144,-0.35C0.144,-0.311 0.148,-0.275 0.156,-0.24C0.163,-0.205 0.175,-0.175 0.191,-0.149C0.207,-0.122 0.228,-0.101 0.253,-0.086C0.278,-0.07 0.307,-0.062 0.341,-0.062C0.403,-0.062 0.452,-0.086 0.487,-0.133C0.522,-0.18 0.54,-0.252 0.54,-0.35C0.54,-0.388 0.536,-0.425 0.529,-0.46C0.521,-0.495 0.509,-0.525 0.493,-0.552C0.476,-0.578 0.456,-0.599 0.431,-0.615C0.405,-0.63 0.376,-0.638 0.341,-0.638C0.28,-0.638 0.232,-0.615 0.197,-0.568C0.162,-0.521 0.144,-0.448 0.144,-0.35Z" style="fill-rule:nonzero;"/>
                </g>
                <g transform="matrix(21.7258,0,0,21.7258,731.754,314.999)">
                    <rect x="0.104" y="-0.7" width="0.083" height="0.7" style="fill-rule:nonzero;"/>
                </g>
                <g transform="matrix(21.7258,0,0,21.7258,738.077,314.999)">
                    <path d="M0.211,-0.458L0.157,-0.559L0.153,-0.559L0.163,-0.458L0.163,-0L0.085,-0L0.085,-0.711L0.129,-0.711L0.464,-0.244L0.516,-0.148L0.521,-0.148L0.51,-0.244L0.51,-0.7L0.588,-0.7L0.588,0.011L0.544,0.011L0.211,-0.458Z" style="fill-rule:nonzero;"/>
                </g>
                <g transform="matrix(21.7258,0,0,21.7258,752.698,314.999)">
                    <path d="M0.537,-0.626L0.319,-0.626L0.319,-0L0.236,-0L0.236,-0.626L0.018,-0.626L0.018,-0.7L0.537,-0.7L0.537,-0.626Z" style="fill-rule:nonzero;"/>
                </g>
            </g>
            <g transform="matrix(1.90554,0,0,1.90554,-2746.15,330.327)">
                <g transform="matrix(21.7258,0,0,21.7258,707.954,314.999)">
                    <path d="M0.557,-0.578L0.353,-0.578L0.353,-0L0.216,-0L0.216,-0.578L0.011,-0.578L0.011,-0.7L0.557,-0.7L0.557,-0.578Z" style="fill-rule:nonzero;"/>
                </g>
                <g transform="matrix(21.7258,0,0,21.7258,717.513,314.999)">
                    <path d="M0.033,-0.25C0.033,-0.335 0.054,-0.4 0.095,-0.446C0.136,-0.491 0.194,-0.514 0.269,-0.514C0.309,-0.514 0.344,-0.508 0.373,-0.495C0.402,-0.482 0.427,-0.464 0.446,-0.442C0.465,-0.419 0.48,-0.391 0.49,-0.358C0.499,-0.325 0.504,-0.289 0.504,-0.25C0.504,-0.165 0.484,-0.1 0.443,-0.055C0.401,-0.009 0.344,0.014 0.269,0.014C0.229,0.014 0.194,0.008 0.165,-0.005C0.136,-0.018 0.111,-0.036 0.092,-0.059C0.072,-0.082 0.057,-0.109 0.048,-0.142C0.038,-0.175 0.033,-0.211 0.033,-0.25ZM0.167,-0.25C0.167,-0.228 0.169,-0.208 0.173,-0.189C0.177,-0.17 0.183,-0.154 0.191,-0.14C0.199,-0.126 0.21,-0.115 0.223,-0.108C0.236,-0.1 0.251,-0.096 0.269,-0.096C0.303,-0.096 0.328,-0.108 0.345,-0.133C0.362,-0.158 0.37,-0.197 0.37,-0.25C0.37,-0.296 0.362,-0.333 0.347,-0.362C0.332,-0.39 0.306,-0.404 0.269,-0.404C0.237,-0.404 0.212,-0.392 0.194,-0.368C0.176,-0.344 0.167,-0.305 0.167,-0.25Z" style="fill-rule:nonzero;"/>
                </g>
                <g transform="matrix(21.7258,0,0,21.7258,729.18,314.999)">
                    <path d="M0.163,-0.5L0.163,-0.386C0.163,-0.365 0.164,-0.347 0.166,-0.333C0.167,-0.318 0.171,-0.305 0.176,-0.296C0.181,-0.286 0.188,-0.279 0.197,-0.274C0.206,-0.269 0.217,-0.267 0.232,-0.267C0.251,-0.267 0.268,-0.269 0.283,-0.274C0.297,-0.279 0.309,-0.284 0.318,-0.291L0.318,-0.5L0.448,-0.5L0.448,-0L0.318,-0L0.318,-0.196C0.308,-0.189 0.293,-0.181 0.272,-0.172C0.251,-0.163 0.224,-0.158 0.189,-0.158C0.164,-0.158 0.142,-0.161 0.123,-0.166C0.104,-0.171 0.087,-0.181 0.074,-0.194C0.061,-0.207 0.05,-0.225 0.044,-0.247C0.037,-0.269 0.033,-0.297 0.033,-0.33L0.033,-0.5L0.163,-0.5Z" style="fill-rule:nonzero;"/>
                </g>
                <g transform="matrix(21.7258,0,0,21.7258,740.151,314.999)">
                    <path d="M0.222,-0.207L0.187,-0.207L0.187,-0L0.057,-0L0.057,-0.5L0.187,-0.5L0.187,-0.287L0.218,-0.301L0.335,-0.5L0.474,-0.5L0.353,-0.31L0.302,-0.272L0.358,-0.233L0.493,-0L0.344,-0L0.222,-0.207Z" style="fill-rule:nonzero;"/>
                </g>
                <g transform="matrix(21.7258,0,0,21.7258,750.775,314.999)">
                    <path d="M0.054,-0.471C0.081,-0.483 0.112,-0.493 0.149,-0.5C0.186,-0.507 0.224,-0.51 0.264,-0.51C0.299,-0.51 0.328,-0.506 0.351,-0.498C0.374,-0.489 0.393,-0.477 0.407,-0.462C0.42,-0.447 0.43,-0.428 0.436,-0.407C0.441,-0.386 0.444,-0.362 0.444,-0.335C0.444,-0.306 0.443,-0.276 0.441,-0.247C0.439,-0.217 0.438,-0.188 0.438,-0.159C0.437,-0.13 0.438,-0.102 0.44,-0.076C0.442,-0.049 0.447,-0.023 0.455,0.001L0.349,0.001L0.328,-0.068L0.323,-0.068C0.31,-0.047 0.291,-0.029 0.268,-0.015C0.244,0 0.213,0.008 0.176,0.008C0.153,0.008 0.132,0.005 0.113,-0.003C0.094,-0.01 0.078,-0.02 0.065,-0.033C0.052,-0.046 0.041,-0.061 0.034,-0.079C0.027,-0.096 0.023,-0.116 0.023,-0.138C0.023,-0.169 0.03,-0.195 0.044,-0.216C0.057,-0.237 0.077,-0.254 0.103,-0.267C0.128,-0.28 0.159,-0.289 0.195,-0.294C0.23,-0.299 0.27,-0.3 0.314,-0.298C0.319,-0.335 0.316,-0.362 0.306,-0.379C0.296,-0.395 0.274,-0.403 0.239,-0.403C0.213,-0.403 0.186,-0.4 0.157,-0.395C0.128,-0.39 0.104,-0.383 0.085,-0.374L0.054,-0.471ZM0.219,-0.099C0.245,-0.099 0.266,-0.105 0.281,-0.117C0.296,-0.128 0.308,-0.141 0.315,-0.154L0.315,-0.219C0.294,-0.221 0.275,-0.221 0.256,-0.22C0.237,-0.219 0.22,-0.216 0.205,-0.211C0.19,-0.206 0.179,-0.2 0.17,-0.191C0.161,-0.182 0.157,-0.171 0.157,-0.158C0.157,-0.139 0.163,-0.125 0.174,-0.115C0.185,-0.104 0.2,-0.099 0.219,-0.099Z" style="fill-rule:nonzero;"/>
                </g>
            </g>
            <g transform="matrix(1.90554,0,0,1.90554,-2781.01,664.257)">
                <g transform="matrix(21.7258,0,0,21.7258,696.998,314.999)">
                    <path d="M0.603,-0.363L0.618,-0.502L0.612,-0.502L0.569,-0.39L0.42,-0.129L0.376,-0.129L0.219,-0.391L0.175,-0.502L0.17,-0.502L0.19,-0.364L0.19,-0L0.06,-0L0.06,-0.7L0.185,-0.7L0.372,-0.38L0.405,-0.3L0.409,-0.3L0.439,-0.382L0.616,-0.7L0.74,-0.7L0.74,-0L0.603,-0L0.603,-0.363Z" style="fill-rule:nonzero;"/>
                </g>
                <g transform="matrix(21.7258,0,0,21.7258,714.378,314.999)">
                    <path d="M0.239,-0.219L0.257,-0.141L0.263,-0.141L0.276,-0.22L0.352,-0.5L0.486,-0.5L0.334,-0.049C0.321,-0.012 0.309,0.023 0.298,0.054C0.286,0.085 0.273,0.111 0.259,0.134C0.245,0.157 0.23,0.174 0.213,0.187C0.196,0.199 0.175,0.205 0.152,0.205C0.117,0.205 0.09,0.199 0.069,0.188L0.093,0.084C0.103,0.088 0.113,0.09 0.123,0.09C0.138,0.09 0.153,0.084 0.168,0.071C0.182,0.058 0.193,0.034 0.2,-0L-0.009,-0.5L0.147,-0.5L0.239,-0.219Z" style="fill-rule:nonzero;"/>
                </g>
                <g transform="matrix(21.7258,0,0,21.7258,724.763,314.999)">
                    <path d="M0.329,-0.385L0.23,-0.385C0.226,-0.338 0.221,-0.291 0.216,-0.244C0.211,-0.197 0.202,-0.156 0.191,-0.119C0.179,-0.082 0.163,-0.051 0.143,-0.029C0.123,-0.006 0.097,0.006 0.065,0.006C0.026,0.006 -0.001,0.001 -0.017,-0.009L-0.001,-0.117C0.01,-0.113 0.02,-0.111 0.029,-0.111C0.042,-0.111 0.054,-0.117 0.064,-0.128C0.074,-0.139 0.083,-0.16 0.09,-0.189C0.096,-0.218 0.102,-0.258 0.107,-0.309C0.111,-0.359 0.114,-0.423 0.116,-0.5L0.459,-0.5L0.459,-0L0.329,-0L0.329,-0.385Z" style="fill-rule:nonzero;"/>
                </g>
                <g transform="matrix(21.7258,0,0,21.7258,735.952,314.999)">
                    <path d="M0.187,-0.109C0.207,-0.105 0.226,-0.103 0.244,-0.103C0.276,-0.103 0.299,-0.109 0.314,-0.12C0.328,-0.131 0.335,-0.148 0.335,-0.171C0.335,-0.214 0.306,-0.236 0.247,-0.236C0.225,-0.236 0.205,-0.234 0.187,-0.229L0.187,-0.109ZM0.187,-0.322C0.203,-0.325 0.219,-0.327 0.236,-0.328C0.252,-0.329 0.267,-0.329 0.28,-0.329C0.315,-0.329 0.344,-0.325 0.368,-0.318C0.392,-0.31 0.412,-0.299 0.427,-0.285C0.442,-0.271 0.452,-0.255 0.459,-0.236C0.466,-0.217 0.469,-0.196 0.469,-0.174C0.469,-0.113 0.451,-0.068 0.415,-0.038C0.379,-0.008 0.318,0.007 0.232,0.007C0.194,0.007 0.161,0.006 0.134,0.005C0.106,0.004 0.08,0.002 0.057,-0L0.057,-0.5L0.187,-0.5L0.187,-0.322Z" style="fill-rule:nonzero;"/>
                </g>
                <g transform="matrix(21.7258,0,0,21.7258,746.598,314.999)">
                    <path d="M0.417,-0.385L0.278,-0.385L0.278,-0L0.144,-0L0.144,-0.385L0.001,-0.385L0.001,-0.5L0.417,-0.5L0.417,-0.385Z" style="fill-rule:nonzero;"/>
                </g>
                <g transform="matrix(21.7258,0,0,21.7258,755.679,314.999)">
                    <path d="M0.358,-0.228L0.363,-0.299L0.36,-0.299L0.317,-0.226L0.139,-0L0.057,-0L0.057,-0.5L0.187,-0.5L0.187,-0.262L0.181,-0.194L0.185,-0.194L0.226,-0.265L0.406,-0.5L0.488,-0.5L0.488,-0L0.358,-0L0.358,-0.228Z" style="fill-rule:nonzero;"/>
                </g>
                <g transform="matrix(21.7258,0,0,21.7258,767.52,314.999)">
                    <path d="M0.417,-0.385L0.278,-0.385L0.278,-0L0.144,-0L0.144,-0.385L0.001,-0.385L0.001,-0.5L0.417,-0.5L0.417,-0.385Z" style="fill-rule:nonzero;"/>
                </g>
                <g transform="matrix(21.7258,0,0,21.7258,776.601,314.999)">
                    <path d="M0.033,-0.25C0.033,-0.335 0.054,-0.4 0.095,-0.446C0.136,-0.491 0.194,-0.514 0.269,-0.514C0.309,-0.514 0.344,-0.508 0.373,-0.495C0.402,-0.482 0.427,-0.464 0.446,-0.442C0.465,-0.419 0.48,-0.391 0.49,-0.358C0.499,-0.325 0.504,-0.289 0.504,-0.25C0.504,-0.165 0.484,-0.1 0.443,-0.055C0.401,-0.009 0.344,0.014 0.269,0.014C0.229,0.014 0.194,0.008 0.165,-0.005C0.136,-0.018 0.111,-0.036 0.092,-0.059C0.072,-0.082 0.057,-0.109 0.048,-0.142C0.038,-0.175 0.033,-0.211 0.033,-0.25ZM0.167,-0.25C0.167,-0.228 0.169,-0.208 0.173,-0.189C0.177,-0.17 0.183,-0.154 0.191,-0.14C0.199,-0.126 0.21,-0.115 0.223,-0.108C0.236,-0.1 0.251,-0.096 0.269,-0.096C0.303,-0.096 0.328,-0.108 0.345,-0.133C0.362,-0.158 0.37,-0.197 0.37,-0.25C0.37,-0.296 0.362,-0.333 0.347,-0.362C0.332,-0.39 0.306,-0.404 0.269,-0.404C0.237,-0.404 0.212,-0.392 0.194,-0.368C0.176,-0.344 0.167,-0.305 0.167,-0.25Z" style="fill-rule:nonzero;"/>
                </g>
                <g transform="matrix(21.7258,0,0,21.7258,788.268,314.999)">
                    <path d="M0.163,-0.5L0.163,-0.386C0.163,-0.365 0.164,-0.347 0.166,-0.333C0.167,-0.318 0.171,-0.305 0.176,-0.296C0.181,-0.286 0.188,-0.279 0.197,-0.274C0.206,-0.269 0.217,-0.267 0.232,-0.267C0.251,-0.267 0.268,-0.269 0.283,-0.274C0.297,-0.279 0.309,-0.284 0.318,-0.291L0.318,-0.5L0.448,-0.5L0.448,-0L0.318,-0L0.318,-0.196C0.308,-0.189 0.293,-0.181 0.272,-0.172C0.251,-0.163 0.224,-0.158 0.189,-0.158C0.164,-0.158 0.142,-0.161 0.123,-0.166C0.104,-0.171 0.087,-0.181 0.074,-0.194C0.061,-0.207 0.05,-0.225 0.044,-0.247C0.037,-0.269 0.033,-0.297 0.033,-0.33L0.033,-0.5L0.163,-0.5Z" style="fill-rule:nonzero;"/>
                </g>
                <g transform="matrix(21.7258,0,0,21.7258,799.239,314.999)">
                    <path d="M0.222,-0.207L0.187,-0.207L0.187,-0L0.057,-0L0.057,-0.5L0.187,-0.5L0.187,-0.287L0.218,-0.301L0.335,-0.5L0.474,-0.5L0.353,-0.31L0.302,-0.272L0.358,-0.233L0.493,-0L0.344,-0L0.222,-0.207Z" style="fill-rule:nonzero;"/>
                </g>
                <g transform="matrix(21.7258,0,0,21.7258,809.863,314.999)">
                    <path d="M0.054,-0.471C0.081,-0.483 0.112,-0.493 0.149,-0.5C0.186,-0.507 0.224,-0.51 0.264,-0.51C0.299,-0.51 0.328,-0.506 0.351,-0.498C0.374,-0.489 0.393,-0.477 0.407,-0.462C0.42,-0.447 0.43,-0.428 0.436,-0.407C0.441,-0.386 0.444,-0.362 0.444,-0.335C0.444,-0.306 0.443,-0.276 0.441,-0.247C0.439,-0.217 0.438,-0.188 0.438,-0.159C0.437,-0.13 0.438,-0.102 0.44,-0.076C0.442,-0.049 0.447,-0.023 0.455,0.001L0.349,0.001L0.328,-0.068L0.323,-0.068C0.31,-0.047 0.291,-0.029 0.268,-0.015C0.244,0 0.213,0.008 0.176,0.008C0.153,0.008 0.132,0.005 0.113,-0.003C0.094,-0.01 0.078,-0.02 0.065,-0.033C0.052,-0.046 0.041,-0.061 0.034,-0.079C0.027,-0.096 0.023,-0.116 0.023,-0.138C0.023,-0.169 0.03,-0.195 0.044,-0.216C0.057,-0.237 0.077,-0.254 0.103,-0.267C0.128,-0.28 0.159,-0.289 0.195,-0.294C0.23,-0.299 0.27,-0.3 0.314,-0.298C0.319,-0.335 0.316,-0.362 0.306,-0.379C0.296,-0.395 0.274,-0.403 0.239,-0.403C0.213,-0.403 0.186,-0.4 0.157,-0.395C0.128,-0.39 0.104,-0.383 0.085,-0.374L0.054,-0.471ZM0.219,-0.099C0.245,-0.099 0.266,-0.105 0.281,-0.117C0.296,-0.128 0.308,-0.141 0.315,-0.154L0.315,-0.219C0.294,-0.221 0.275,-0.221 0.256,-0.22C0.237,-0.219 0.22,-0.216 0.205,-0.211C0.19,-0.206 0.179,-0.2 0.17,-0.191C0.161,-0.182 0.157,-0.171 0.157,-0.158C0.157,-0.139 0.163,-0.125 0.174,-0.115C0.185,-0.104 0.2,-0.099 0.219,-0.099Z" style="fill-rule:nonzero;"/>
                </g>
            </g>
            <g transform="matrix(1.90554,0,0,1.90554,-2430.94,330.327)">
                <g transform="matrix(21.7258,0,0,21.7258,704.847,314.999)">
                    <path d="M0.426,-0.578L0.277,-0.578C0.274,-0.515 0.271,-0.457 0.268,-0.405C0.265,-0.353 0.26,-0.306 0.255,-0.265C0.249,-0.223 0.241,-0.186 0.232,-0.154C0.223,-0.122 0.211,-0.094 0.196,-0.071C0.187,-0.056 0.176,-0.043 0.165,-0.033C0.153,-0.023 0.141,-0.015 0.128,-0.009C0.115,-0.003 0.103,0.001 0.091,0.004C0.078,0.006 0.067,0.007 0.056,0.007C0.041,0.007 0.028,0.006 0.018,0.004C0.007,0.001 -0.003,-0.002 -0.013,-0.007L0.002,-0.125C0.006,-0.124 0.01,-0.123 0.014,-0.122C0.018,-0.121 0.022,-0.121 0.026,-0.121C0.037,-0.121 0.047,-0.124 0.058,-0.129C0.068,-0.134 0.077,-0.143 0.084,-0.156C0.094,-0.171 0.103,-0.192 0.11,-0.221C0.117,-0.249 0.124,-0.285 0.13,-0.329C0.135,-0.373 0.14,-0.426 0.143,-0.487C0.146,-0.548 0.149,-0.619 0.15,-0.7L0.563,-0.7L0.563,-0L0.426,-0L0.426,-0.578Z" style="fill-rule:nonzero;"/>
                </g>
                <g transform="matrix(21.7258,0,0,21.7258,718.382,314.999)">
                    <path d="M0.358,-0.228L0.363,-0.299L0.36,-0.299L0.317,-0.226L0.139,-0L0.057,-0L0.057,-0.5L0.187,-0.5L0.187,-0.262L0.181,-0.194L0.185,-0.194L0.226,-0.265L0.406,-0.5L0.488,-0.5L0.488,-0L0.358,-0L0.358,-0.228Z" style="fill-rule:nonzero;"/>
                </g>
                <g transform="matrix(21.7258,0,0,21.7258,730.223,314.999)">
                    <path d="M0.35,-0.196L0.187,-0.196L0.187,-0L0.057,-0L0.057,-0.5L0.187,-0.5L0.187,-0.312L0.35,-0.312L0.35,-0.5L0.48,-0.5L0.48,-0L0.35,-0L0.35,-0.196Z" style="fill-rule:nonzero;"/>
                </g>
                <g transform="matrix(21.7258,0,0,21.7258,741.889,314.999)">
                    <path d="M0.358,-0.228L0.363,-0.299L0.36,-0.299L0.317,-0.226L0.139,-0L0.057,-0L0.057,-0.5L0.187,-0.5L0.187,-0.262L0.181,-0.194L0.185,-0.194L0.226,-0.265L0.406,-0.5L0.488,-0.5L0.488,-0L0.358,-0L0.358,-0.228Z" style="fill-rule:nonzero;"/>
                </g>
                <g transform="matrix(21.7258,0,0,21.7258,753.73,314.999)">
                    <path d="M0.321,-0.189L0.261,-0.177L0.165,-0L0.01,-0L0.107,-0.157L0.156,-0.194C0.123,-0.199 0.096,-0.215 0.075,-0.241C0.054,-0.266 0.043,-0.298 0.043,-0.337C0.043,-0.398 0.063,-0.442 0.104,-0.471C0.144,-0.5 0.206,-0.514 0.289,-0.514C0.321,-0.514 0.351,-0.512 0.379,-0.509C0.406,-0.506 0.43,-0.502 0.451,-0.498L0.451,-0L0.321,-0L0.321,-0.189ZM0.321,-0.257L0.321,-0.395C0.314,-0.398 0.306,-0.401 0.297,-0.402C0.288,-0.403 0.28,-0.404 0.272,-0.404C0.242,-0.404 0.219,-0.398 0.202,-0.385C0.185,-0.372 0.177,-0.353 0.177,-0.328C0.177,-0.303 0.186,-0.284 0.205,-0.272C0.223,-0.26 0.25,-0.254 0.285,-0.255L0.321,-0.257Z" style="fill-rule:nonzero;"/>
                </g>
            </g>
            <g transform="matrix(1.90554,0,0,1.90554,-2489.94,664.257)">
                <g transform="matrix(21.7258,0,0,21.7258,701.721,314.999)">
                    <path d="M0.603,-0.363L0.618,-0.502L0.612,-0.502L0.569,-0.39L0.42,-0.129L0.376,-0.129L0.219,-0.391L0.175,-0.502L0.17,-0.502L0.19,-0.364L0.19,-0L0.06,-0L0.06,-0.7L0.185,-0.7L0.372,-0.38L0.405,-0.3L0.409,-0.3L0.439,-0.382L0.616,-0.7L0.74,-0.7L0.74,-0L0.603,-0L0.603,-0.363Z" style="fill-rule:nonzero;"/>
                </g>
                <g transform="matrix(21.7258,0,0,21.7258,719.102,314.999)">
                    <path d="M0.239,-0.219L0.257,-0.141L0.263,-0.141L0.276,-0.22L0.352,-0.5L0.486,-0.5L0.334,-0.049C0.321,-0.012 0.309,0.023 0.298,0.054C0.286,0.085 0.273,0.111 0.259,0.134C0.245,0.157 0.23,0.174 0.213,0.187C0.196,0.199 0.175,0.205 0.152,0.205C0.117,0.205 0.09,0.199 0.069,0.188L0.093,0.084C0.103,0.088 0.113,0.09 0.123,0.09C0.138,0.09 0.153,0.084 0.168,0.071C0.182,0.058 0.193,0.034 0.2,-0L-0.009,-0.5L0.147,-0.5L0.239,-0.219Z" style="fill-rule:nonzero;"/>
                </g>
                <g transform="matrix(21.7258,0,0,21.7258,729.487,314.999)">
                    <path d="M0.329,-0.385L0.23,-0.385C0.226,-0.338 0.221,-0.291 0.216,-0.244C0.211,-0.197 0.202,-0.156 0.191,-0.119C0.179,-0.082 0.163,-0.051 0.143,-0.029C0.123,-0.006 0.097,0.006 0.065,0.006C0.026,0.006 -0.001,0.001 -0.017,-0.009L-0.001,-0.117C0.01,-0.113 0.02,-0.111 0.029,-0.111C0.042,-0.111 0.054,-0.117 0.064,-0.128C0.074,-0.139 0.083,-0.16 0.09,-0.189C0.096,-0.218 0.102,-0.258 0.107,-0.309C0.111,-0.359 0.114,-0.423 0.116,-0.5L0.459,-0.5L0.459,-0L0.329,-0L0.329,-0.385Z" style="fill-rule:nonzero;"/>
                </g>
                <g transform="matrix(21.7258,0,0,21.7258,740.676,314.999)">
                    <path d="M0.187,-0.109C0.207,-0.105 0.226,-0.103 0.244,-0.103C0.276,-0.103 0.299,-0.109 0.314,-0.12C0.328,-0.131 0.335,-0.148 0.335,-0.171C0.335,-0.214 0.306,-0.236 0.247,-0.236C0.225,-0.236 0.205,-0.234 0.187,-0.229L0.187,-0.109ZM0.187,-0.322C0.203,-0.325 0.219,-0.327 0.236,-0.328C0.252,-0.329 0.267,-0.329 0.28,-0.329C0.315,-0.329 0.344,-0.325 0.368,-0.318C0.392,-0.31 0.412,-0.299 0.427,-0.285C0.442,-0.271 0.452,-0.255 0.459,-0.236C0.466,-0.217 0.469,-0.196 0.469,-0.174C0.469,-0.113 0.451,-0.068 0.415,-0.038C0.379,-0.008 0.318,0.007 0.232,0.007C0.194,0.007 0.161,0.006 0.134,0.005C0.106,0.004 0.08,0.002 0.057,-0L0.057,-0.5L0.187,-0.5L0.187,-0.322Z" style="fill-rule:nonzero;"/>
                </g>
                <g transform="matrix(21.7258,0,0,21.7258,751.321,314.999)">
                    <path d="M0.417,-0.385L0.278,-0.385L0.278,-0L0.144,-0L0.144,-0.385L0.001,-0.385L0.001,-0.5L0.417,-0.5L0.417,-0.385Z" style="fill-rule:nonzero;"/>
                </g>
                <g transform="matrix(21.7258,0,0,21.7258,760.403,314.999)">
                    <path d="M0.358,-0.228L0.363,-0.299L0.36,-0.299L0.317,-0.226L0.139,-0L0.057,-0L0.057,-0.5L0.187,-0.5L0.187,-0.262L0.181,-0.194L0.185,-0.194L0.226,-0.265L0.406,-0.5L0.488,-0.5L0.488,-0L0.358,-0L0.358,-0.228Z" style="fill-rule:nonzero;"/>
                </g>
                <g transform="matrix(21.7258,0,0,21.7258,772.243,314.999)">
                    <path d="M0.329,-0.385L0.23,-0.385C0.226,-0.338 0.221,-0.291 0.216,-0.244C0.211,-0.197 0.202,-0.156 0.191,-0.119C0.179,-0.082 0.163,-0.051 0.143,-0.029C0.123,-0.006 0.097,0.006 0.065,0.006C0.026,0.006 -0.001,0.001 -0.017,-0.009L-0.001,-0.117C0.01,-0.113 0.02,-0.111 0.029,-0.111C0.042,-0.111 0.054,-0.117 0.064,-0.128C0.074,-0.139 0.083,-0.16 0.09,-0.189C0.096,-0.218 0.102,-0.258 0.107,-0.309C0.111,-0.359 0.114,-0.423 0.116,-0.5L0.459,-0.5L0.459,-0L0.329,-0L0.329,-0.385Z" style="fill-rule:nonzero;"/>
                </g>
                <g transform="matrix(21.7258,0,0,21.7258,783.432,314.999)">
                    <path d="M0.358,-0.228L0.363,-0.299L0.36,-0.299L0.317,-0.226L0.139,-0L0.057,-0L0.057,-0.5L0.187,-0.5L0.187,-0.262L0.181,-0.194L0.185,-0.194L0.226,-0.265L0.406,-0.5L0.488,-0.5L0.488,-0L0.358,-0L0.358,-0.228Z" style="fill-rule:nonzero;"/>
                </g>
                <g transform="matrix(21.7258,0,0,21.7258,795.273,314.999)">
                    <path d="M0.35,-0.196L0.187,-0.196L0.187,-0L0.057,-0L0.057,-0.5L0.187,-0.5L0.187,-0.312L0.35,-0.312L0.35,-0.5L0.48,-0.5L0.48,-0L0.35,-0L0.35,-0.196Z" style="fill-rule:nonzero;"/>
                </g>
                <g transform="matrix(21.7258,0,0,21.7258,806.94,314.999)">
                    <path d="M0.358,-0.228L0.363,-0.299L0.36,-0.299L0.317,-0.226L0.139,-0L0.057,-0L0.057,-0.5L0.187,-0.5L0.187,-0.262L0.181,-0.194L0.185,-0.194L0.226,-0.265L0.406,-0.5L0.488,-0.5L0.488,-0L0.358,-0L0.358,-0.228Z" style="fill-rule:nonzero;"/>
                </g>
                <g transform="matrix(21.7258,0,0,21.7258,818.78,314.999)">
                    <path d="M0.321,-0.189L0.261,-0.177L0.165,-0L0.01,-0L0.107,-0.157L0.156,-0.194C0.123,-0.199 0.096,-0.215 0.075,-0.241C0.054,-0.266 0.043,-0.298 0.043,-0.337C0.043,-0.398 0.063,-0.442 0.104,-0.471C0.144,-0.5 0.206,-0.514 0.289,-0.514C0.321,-0.514 0.351,-0.512 0.379,-0.509C0.406,-0.506 0.43,-0.502 0.451,-0.498L0.451,-0L0.321,-0L0.321,-0.189ZM0.321,-0.257L0.321,-0.395C0.314,-0.398 0.306,-0.401 0.297,-0.402C0.288,-0.403 0.28,-0.404 0.272,-0.404C0.242,-0.404 0.219,-0.398 0.202,-0.385C0.185,-0.372 0.177,-0.353 0.177,-0.328C0.177,-0.303 0.186,-0.284 0.205,-0.272C0.223,-0.26 0.25,-0.254 0.285,-0.255L0.321,-0.257Z" style="fill-rule:nonzero;"/>
                </g>
            </g>
            <g transform="matrix(1.90554,0,0,1.90554,-2104.52,330.327)">
                <g transform="matrix(21.7258,0,0,21.7258,694.712,314.999)">
                    <path d="M0.442,-0.578L0.197,-0.578L0.197,-0L0.06,-0L0.06,-0.7L0.579,-0.7L0.579,-0L0.442,-0L0.442,-0.578Z" style="fill-rule:nonzero;"/>
                </g>
                <g transform="matrix(21.7258,0,0,21.7258,708.595,314.999)">
                    <path d="M0.033,-0.25C0.033,-0.335 0.054,-0.4 0.095,-0.446C0.136,-0.491 0.194,-0.514 0.269,-0.514C0.309,-0.514 0.344,-0.508 0.373,-0.495C0.402,-0.482 0.427,-0.464 0.446,-0.442C0.465,-0.419 0.48,-0.391 0.49,-0.358C0.499,-0.325 0.504,-0.289 0.504,-0.25C0.504,-0.165 0.484,-0.1 0.443,-0.055C0.401,-0.009 0.344,0.014 0.269,0.014C0.229,0.014 0.194,0.008 0.165,-0.005C0.136,-0.018 0.111,-0.036 0.092,-0.059C0.072,-0.082 0.057,-0.109 0.048,-0.142C0.038,-0.175 0.033,-0.211 0.033,-0.25ZM0.167,-0.25C0.167,-0.228 0.169,-0.208 0.173,-0.189C0.177,-0.17 0.183,-0.154 0.191,-0.14C0.199,-0.126 0.21,-0.115 0.223,-0.108C0.236,-0.1 0.251,-0.096 0.269,-0.096C0.303,-0.096 0.328,-0.108 0.345,-0.133C0.362,-0.158 0.37,-0.197 0.37,-0.25C0.37,-0.296 0.362,-0.333 0.347,-0.362C0.332,-0.39 0.306,-0.404 0.269,-0.404C0.237,-0.404 0.212,-0.392 0.194,-0.368C0.176,-0.344 0.167,-0.305 0.167,-0.25Z" style="fill-rule:nonzero;"/>
                </g>
                <g transform="matrix(21.7258,0,0,21.7258,720.261,314.999)">
                    <path d="M0.329,-0.385L0.23,-0.385C0.226,-0.338 0.221,-0.291 0.216,-0.244C0.211,-0.197 0.202,-0.156 0.191,-0.119C0.179,-0.082 0.163,-0.051 0.143,-0.029C0.123,-0.006 0.097,0.006 0.065,0.006C0.026,0.006 -0.001,0.001 -0.017,-0.009L-0.001,-0.117C0.01,-0.113 0.02,-0.111 0.029,-0.111C0.042,-0.111 0.054,-0.117 0.064,-0.128C0.074,-0.139 0.083,-0.16 0.09,-0.189C0.096,-0.218 0.102,-0.258 0.107,-0.309C0.111,-0.359 0.114,-0.423 0.116,-0.5L0.459,-0.5L0.459,-0L0.329,-0L0.329,-0.385Z" style="fill-rule:nonzero;"/>
                </g>
                <g transform="matrix(21.7258,0,0,21.7258,731.45,314.999)">
                    <path d="M0.358,-0.228L0.363,-0.299L0.36,-0.299L0.317,-0.226L0.139,-0L0.057,-0L0.057,-0.5L0.187,-0.5L0.187,-0.262L0.181,-0.194L0.185,-0.194L0.226,-0.265L0.406,-0.5L0.488,-0.5L0.488,-0L0.358,-0L0.358,-0.228Z" style="fill-rule:nonzero;"/>
                </g>
                <g transform="matrix(21.7258,0,0,21.7258,743.291,314.999)">
                    <path d="M0.38,-0.385L0.191,-0.385L0.191,-0L0.057,-0L0.057,-0.5L0.38,-0.5L0.38,-0.385Z" style="fill-rule:nonzero;"/>
                </g>
                <g transform="matrix(21.7258,0,0,21.7258,751.46,314.999)">
                    <path d="M0.033,-0.25C0.033,-0.335 0.054,-0.4 0.095,-0.446C0.136,-0.491 0.194,-0.514 0.269,-0.514C0.309,-0.514 0.344,-0.508 0.373,-0.495C0.402,-0.482 0.427,-0.464 0.446,-0.442C0.465,-0.419 0.48,-0.391 0.49,-0.358C0.499,-0.325 0.504,-0.289 0.504,-0.25C0.504,-0.165 0.484,-0.1 0.443,-0.055C0.401,-0.009 0.344,0.014 0.269,0.014C0.229,0.014 0.194,0.008 0.165,-0.005C0.136,-0.018 0.111,-0.036 0.092,-0.059C0.072,-0.082 0.057,-0.109 0.048,-0.142C0.038,-0.175 0.033,-0.211 0.033,-0.25ZM0.167,-0.25C0.167,-0.228 0.169,-0.208 0.173,-0.189C0.177,-0.17 0.183,-0.154 0.191,-0.14C0.199,-0.126 0.21,-0.115 0.223,-0.108C0.236,-0.1 0.251,-0.096 0.269,-0.096C0.303,-0.096 0.328,-0.108 0.345,-0.133C0.362,-0.158 0.37,-0.197 0.37,-0.25C0.37,-0.296 0.362,-0.333 0.347,-0.362C0.332,-0.39 0.306,-0.404 0.269,-0.404C0.237,-0.404 0.212,-0.392 0.194,-0.368C0.176,-0.344 0.167,-0.305 0.167,-0.25Z" style="fill-rule:nonzero;"/>
                </g>
                <g transform="matrix(21.7258,0,0,21.7258,763.126,314.999)">
                    <path d="M0.35,-0.196L0.187,-0.196L0.187,-0L0.057,-0L0.057,-0.5L0.187,-0.5L0.187,-0.312L0.35,-0.312L0.35,-0.5L0.48,-0.5L0.48,-0L0.35,-0L0.35,-0.196Z" style="fill-rule:nonzero;"/>
                </g>
            </g>
            <g transform="matrix(1.90554,0,0,1.90554,-1855.75,329.327)">
                <g transform="matrix(21.7258,0,0,21.7258,693.402,314.999)">
                    <path d="M0.467,-0.578L0.197,-0.578L0.197,-0L0.06,-0L0.06,-0.7L0.467,-0.7L0.467,-0.578Z" style="fill-rule:nonzero;"/>
                </g>
                <g transform="matrix(21.7258,0,0,21.7258,700.767,314.999)">
                    <path d="M0.457,-0.043C0.437,-0.027 0.41,-0.014 0.376,-0.003C0.341,0.009 0.305,0.014 0.266,0.014C0.185,0.014 0.126,-0.01 0.089,-0.057C0.052,-0.103 0.033,-0.168 0.033,-0.25C0.033,-0.338 0.054,-0.404 0.096,-0.448C0.138,-0.492 0.197,-0.514 0.273,-0.514C0.298,-0.514 0.323,-0.511 0.347,-0.504C0.371,-0.497 0.392,-0.486 0.411,-0.471C0.43,-0.456 0.445,-0.435 0.456,-0.409C0.467,-0.383 0.473,-0.351 0.473,-0.312C0.473,-0.298 0.472,-0.283 0.471,-0.267C0.469,-0.251 0.466,-0.234 0.463,-0.217L0.163,-0.217C0.165,-0.175 0.176,-0.143 0.196,-0.122C0.215,-0.101 0.247,-0.09 0.291,-0.09C0.318,-0.09 0.343,-0.094 0.365,-0.103C0.386,-0.111 0.403,-0.119 0.414,-0.128L0.457,-0.043ZM0.271,-0.41C0.237,-0.41 0.212,-0.4 0.196,-0.38C0.179,-0.359 0.169,-0.332 0.166,-0.298L0.352,-0.298C0.355,-0.334 0.349,-0.362 0.336,-0.381C0.322,-0.4 0.3,-0.41 0.271,-0.41Z" style="fill-rule:nonzero;"/>
                </g>
                <g transform="matrix(21.7258,0,0,21.7258,711.804,314.999)">
                    <path d="M0.033,-0.25C0.033,-0.335 0.054,-0.4 0.095,-0.446C0.136,-0.491 0.194,-0.514 0.269,-0.514C0.309,-0.514 0.344,-0.508 0.373,-0.495C0.402,-0.482 0.427,-0.464 0.446,-0.442C0.465,-0.419 0.48,-0.391 0.49,-0.358C0.499,-0.325 0.504,-0.289 0.504,-0.25C0.504,-0.165 0.484,-0.1 0.443,-0.055C0.401,-0.009 0.344,0.014 0.269,0.014C0.229,0.014 0.194,0.008 0.165,-0.005C0.136,-0.018 0.111,-0.036 0.092,-0.059C0.072,-0.082 0.057,-0.109 0.048,-0.142C0.038,-0.175 0.033,-0.211 0.033,-0.25ZM0.167,-0.25C0.167,-0.228 0.169,-0.208 0.173,-0.189C0.177,-0.17 0.183,-0.154 0.191,-0.14C0.199,-0.126 0.21,-0.115 0.223,-0.108C0.236,-0.1 0.251,-0.096 0.269,-0.096C0.303,-0.096 0.328,-0.108 0.345,-0.133C0.362,-0.158 0.37,-0.197 0.37,-0.25C0.37,-0.296 0.362,-0.333 0.347,-0.362C0.332,-0.39 0.306,-0.404 0.269,-0.404C0.237,-0.404 0.212,-0.392 0.194,-0.368C0.176,-0.344 0.167,-0.305 0.167,-0.25Z" style="fill-rule:nonzero;"/>
                </g>
                <g transform="matrix(21.7258,0,0,21.7258,723.471,314.999)">
                    <path d="M0.485,-0.229L0.493,-0.333L0.488,-0.333L0.448,-0.247L0.354,-0.092L0.307,-0.092L0.204,-0.247L0.166,-0.333L0.16,-0.333L0.173,-0.23L0.173,-0L0.057,-0L0.057,-0.5L0.192,-0.5L0.307,-0.312L0.335,-0.249L0.339,-0.249L0.368,-0.314L0.474,-0.5L0.61,-0.5L0.61,-0L0.485,-0L0.485,-0.229Z" style="fill-rule:nonzero;"/>
                </g>
                <g transform="matrix(21.7258,0,0,21.7258,737.94,314.999)">
                    <path d="M0.457,-0.043C0.437,-0.027 0.41,-0.014 0.376,-0.003C0.341,0.009 0.305,0.014 0.266,0.014C0.185,0.014 0.126,-0.01 0.089,-0.057C0.052,-0.103 0.033,-0.168 0.033,-0.25C0.033,-0.338 0.054,-0.404 0.096,-0.448C0.138,-0.492 0.197,-0.514 0.273,-0.514C0.298,-0.514 0.323,-0.511 0.347,-0.504C0.371,-0.497 0.392,-0.486 0.411,-0.471C0.43,-0.456 0.445,-0.435 0.456,-0.409C0.467,-0.383 0.473,-0.351 0.473,-0.312C0.473,-0.298 0.472,-0.283 0.471,-0.267C0.469,-0.251 0.466,-0.234 0.463,-0.217L0.163,-0.217C0.165,-0.175 0.176,-0.143 0.196,-0.122C0.215,-0.101 0.247,-0.09 0.291,-0.09C0.318,-0.09 0.343,-0.094 0.365,-0.103C0.386,-0.111 0.403,-0.119 0.414,-0.128L0.457,-0.043ZM0.271,-0.41C0.237,-0.41 0.212,-0.4 0.196,-0.38C0.179,-0.359 0.169,-0.332 0.166,-0.298L0.352,-0.298C0.355,-0.334 0.349,-0.362 0.336,-0.381C0.322,-0.4 0.3,-0.41 0.271,-0.41Z" style="fill-rule:nonzero;"/>
                </g>
                <g transform="matrix(21.7258,0,0,21.7258,748.977,314.999)">
                    <path d="M0.417,-0.385L0.278,-0.385L0.278,-0L0.144,-0L0.144,-0.385L0.001,-0.385L0.001,-0.5L0.417,-0.5L0.417,-0.385Z" style="fill-rule:nonzero;"/>
                </g>
                <g transform="matrix(21.7258,0,0,21.7258,758.058,314.999)">
                    <path d="M0.057,-0.5L0.152,-0.5L0.167,-0.44L0.171,-0.44C0.188,-0.465 0.209,-0.484 0.233,-0.496C0.256,-0.508 0.285,-0.514 0.319,-0.514C0.382,-0.514 0.429,-0.494 0.46,-0.455C0.491,-0.415 0.507,-0.351 0.507,-0.263C0.507,-0.22 0.502,-0.182 0.492,-0.148C0.482,-0.113 0.467,-0.084 0.448,-0.06C0.428,-0.036 0.404,-0.018 0.376,-0.005C0.347,0.008 0.315,0.014 0.278,0.014C0.257,0.014 0.24,0.012 0.227,0.01C0.214,0.007 0.2,0.002 0.187,-0.005L0.187,0.2L0.057,0.2L0.057,-0.5ZM0.28,-0.404C0.255,-0.404 0.235,-0.398 0.221,-0.385C0.206,-0.372 0.195,-0.353 0.187,-0.328L0.187,-0.12C0.196,-0.113 0.207,-0.107 0.218,-0.103C0.229,-0.098 0.243,-0.096 0.261,-0.096C0.298,-0.096 0.326,-0.109 0.345,-0.136C0.364,-0.162 0.373,-0.205 0.373,-0.266C0.373,-0.31 0.366,-0.344 0.351,-0.368C0.336,-0.392 0.313,-0.404 0.28,-0.404Z" style="fill-rule:nonzero;"/>
                </g>
                <g transform="matrix(21.7258,0,0,21.7258,769.79,314.999)">
                    <path d="M0.358,-0.228L0.363,-0.299L0.36,-0.299L0.317,-0.226L0.139,-0L0.057,-0L0.057,-0.5L0.187,-0.5L0.187,-0.262L0.181,-0.194L0.185,-0.194L0.226,-0.265L0.406,-0.5L0.488,-0.5L0.488,-0L0.358,-0L0.358,-0.228Z" style="fill-rule:nonzero;"/>
                </g>
                <g transform="matrix(21.7258,0,0,21.7258,781.631,314.999)">
                    <path d="M0.163,-0.5L0.163,-0.386C0.163,-0.365 0.164,-0.347 0.166,-0.333C0.167,-0.318 0.171,-0.305 0.176,-0.296C0.181,-0.286 0.188,-0.279 0.197,-0.274C0.206,-0.269 0.217,-0.267 0.232,-0.267C0.251,-0.267 0.268,-0.269 0.283,-0.274C0.297,-0.279 0.309,-0.284 0.318,-0.291L0.318,-0.5L0.448,-0.5L0.448,-0L0.318,-0L0.318,-0.196C0.308,-0.189 0.293,-0.181 0.272,-0.172C0.251,-0.163 0.224,-0.158 0.189,-0.158C0.164,-0.158 0.142,-0.161 0.123,-0.166C0.104,-0.171 0.087,-0.181 0.074,-0.194C0.061,-0.207 0.05,-0.225 0.044,-0.247C0.037,-0.269 0.033,-0.297 0.033,-0.33L0.033,-0.5L0.163,-0.5Z" style="fill-rule:nonzero;"/>
                </g>
                <g transform="matrix(21.7258,0,0,21.7258,792.602,314.999)">
                    <path d="M0.457,-0.043C0.437,-0.027 0.41,-0.014 0.376,-0.003C0.341,0.009 0.305,0.014 0.266,0.014C0.185,0.014 0.126,-0.01 0.089,-0.057C0.052,-0.103 0.033,-0.168 0.033,-0.25C0.033,-0.338 0.054,-0.404 0.096,-0.448C0.138,-0.492 0.197,-0.514 0.273,-0.514C0.298,-0.514 0.323,-0.511 0.347,-0.504C0.371,-0.497 0.392,-0.486 0.411,-0.471C0.43,-0.456 0.445,-0.435 0.456,-0.409C0.467,-0.383 0.473,-0.351 0.473,-0.312C0.473,-0.298 0.472,-0.283 0.471,-0.267C0.469,-0.251 0.466,-0.234 0.463,-0.217L0.163,-0.217C0.165,-0.175 0.176,-0.143 0.196,-0.122C0.215,-0.101 0.247,-0.09 0.291,-0.09C0.318,-0.09 0.343,-0.094 0.365,-0.103C0.386,-0.111 0.403,-0.119 0.414,-0.128L0.457,-0.043ZM0.271,-0.41C0.237,-0.41 0.212,-0.4 0.196,-0.38C0.179,-0.359 0.169,-0.332 0.166,-0.298L0.352,-0.298C0.355,-0.334 0.349,-0.362 0.336,-0.381C0.322,-0.4 0.3,-0.41 0.271,-0.41Z" style="fill-rule:nonzero;"/>
                </g>
                <g transform="matrix(21.7258,0,0,21.7258,803.639,314.999)">
                    <path d="M0.411,-0.031C0.391,-0.016 0.367,-0.005 0.339,0.003C0.31,0.01 0.281,0.014 0.251,0.014C0.211,0.014 0.177,0.008 0.15,-0.005C0.122,-0.018 0.099,-0.036 0.082,-0.059C0.065,-0.082 0.052,-0.109 0.045,-0.142C0.037,-0.175 0.033,-0.211 0.033,-0.25C0.033,-0.335 0.052,-0.4 0.09,-0.446C0.128,-0.491 0.183,-0.514 0.256,-0.514C0.293,-0.514 0.322,-0.511 0.345,-0.505C0.367,-0.499 0.387,-0.491 0.405,-0.482L0.374,-0.376C0.359,-0.383 0.343,-0.389 0.329,-0.393C0.314,-0.397 0.296,-0.399 0.277,-0.399C0.241,-0.399 0.214,-0.387 0.195,-0.364C0.176,-0.34 0.167,-0.302 0.167,-0.25C0.167,-0.229 0.169,-0.209 0.174,-0.191C0.179,-0.173 0.186,-0.157 0.195,-0.144C0.204,-0.131 0.217,-0.12 0.232,-0.113C0.247,-0.105 0.264,-0.101 0.284,-0.101C0.306,-0.101 0.325,-0.104 0.34,-0.11C0.355,-0.115 0.369,-0.122 0.381,-0.13L0.411,-0.031Z" style="fill-rule:nonzero;"/>
                </g>
                <g transform="matrix(21.7258,0,0,21.7258,813.046,314.999)">
                    <path d="M0.222,-0.207L0.187,-0.207L0.187,-0L0.057,-0L0.057,-0.5L0.187,-0.5L0.187,-0.287L0.218,-0.301L0.335,-0.5L0.474,-0.5L0.353,-0.31L0.302,-0.272L0.358,-0.233L0.493,-0L0.344,-0L0.222,-0.207Z" style="fill-rule:nonzero;"/>
                </g>
                <g transform="matrix(21.7258,0,0,21.7258,823.67,314.999)">
                    <path d="M0.054,-0.471C0.081,-0.483 0.112,-0.493 0.149,-0.5C0.186,-0.507 0.224,-0.51 0.264,-0.51C0.299,-0.51 0.328,-0.506 0.351,-0.498C0.374,-0.489 0.393,-0.477 0.407,-0.462C0.42,-0.447 0.43,-0.428 0.436,-0.407C0.441,-0.386 0.444,-0.362 0.444,-0.335C0.444,-0.306 0.443,-0.276 0.441,-0.247C0.439,-0.217 0.438,-0.188 0.438,-0.159C0.437,-0.13 0.438,-0.102 0.44,-0.076C0.442,-0.049 0.447,-0.023 0.455,0.001L0.349,0.001L0.328,-0.068L0.323,-0.068C0.31,-0.047 0.291,-0.029 0.268,-0.015C0.244,0 0.213,0.008 0.176,0.008C0.153,0.008 0.132,0.005 0.113,-0.003C0.094,-0.01 0.078,-0.02 0.065,-0.033C0.052,-0.046 0.041,-0.061 0.034,-0.079C0.027,-0.096 0.023,-0.116 0.023,-0.138C0.023,-0.169 0.03,-0.195 0.044,-0.216C0.057,-0.237 0.077,-0.254 0.103,-0.267C0.128,-0.28 0.159,-0.289 0.195,-0.294C0.23,-0.299 0.27,-0.3 0.314,-0.298C0.319,-0.335 0.316,-0.362 0.306,-0.379C0.296,-0.395 0.274,-0.403 0.239,-0.403C0.213,-0.403 0.186,-0.4 0.157,-0.395C0.128,-0.39 0.104,-0.383 0.085,-0.374L0.054,-0.471ZM0.219,-0.099C0.245,-0.099 0.266,-0.105 0.281,-0.117C0.296,-0.128 0.308,-0.141 0.315,-0.154L0.315,-0.219C0.294,-0.221 0.275,-0.221 0.256,-0.22C0.237,-0.219 0.22,-0.216 0.205,-0.211C0.19,-0.206 0.179,-0.2 0.17,-0.191C0.161,-0.182 0.157,-0.171 0.157,-0.158C0.157,-0.139 0.163,-0.125 0.174,-0.115C0.185,-0.104 0.2,-0.099 0.219,-0.099Z" style="fill-rule:nonzero;"/>
                </g>
                <g transform="matrix(21.7258,0,0,21.7258,834.446,314.999)">
                    <path d="M0.321,-0.189L0.261,-0.177L0.165,-0L0.01,-0L0.107,-0.157L0.156,-0.194C0.123,-0.199 0.096,-0.215 0.075,-0.241C0.054,-0.266 0.043,-0.298 0.043,-0.337C0.043,-0.398 0.063,-0.442 0.104,-0.471C0.144,-0.5 0.206,-0.514 0.289,-0.514C0.321,-0.514 0.351,-0.512 0.379,-0.509C0.406,-0.506 0.43,-0.502 0.451,-0.498L0.451,-0L0.321,-0L0.321,-0.189ZM0.321,-0.257L0.321,-0.395C0.314,-0.398 0.306,-0.401 0.297,-0.402C0.288,-0.403 0.28,-0.404 0.272,-0.404C0.242,-0.404 0.219,-0.398 0.202,-0.385C0.185,-0.372 0.177,-0.353 0.177,-0.328C0.177,-0.303 0.186,-0.284 0.205,-0.272C0.223,-0.26 0.25,-0.254 0.285,-0.255L0.321,-0.257Z" style="fill-rule:nonzero;"/>
                </g>
                <g transform="matrix(21.7258,0,0,21.7258,718.767,339.31)">
                    <path d="M0.222,-0.207L0.187,-0.207L0.187,-0L0.057,-0L0.057,-0.5L0.187,-0.5L0.187,-0.287L0.218,-0.301L0.335,-0.5L0.474,-0.5L0.353,-0.31L0.302,-0.272L0.358,-0.233L0.493,-0L0.344,-0L0.222,-0.207Z" style="fill-rule:nonzero;"/>
                </g>
                <g transform="matrix(21.7258,0,0,21.7258,729.391,339.31)">
                    <path d="M0.033,-0.25C0.033,-0.335 0.054,-0.4 0.095,-0.446C0.136,-0.491 0.194,-0.514 0.269,-0.514C0.309,-0.514 0.344,-0.508 0.373,-0.495C0.402,-0.482 0.427,-0.464 0.446,-0.442C0.465,-0.419 0.48,-0.391 0.49,-0.358C0.499,-0.325 0.504,-0.289 0.504,-0.25C0.504,-0.165 0.484,-0.1 0.443,-0.055C0.401,-0.009 0.344,0.014 0.269,0.014C0.229,0.014 0.194,0.008 0.165,-0.005C0.136,-0.018 0.111,-0.036 0.092,-0.059C0.072,-0.082 0.057,-0.109 0.048,-0.142C0.038,-0.175 0.033,-0.211 0.033,-0.25ZM0.167,-0.25C0.167,-0.228 0.169,-0.208 0.173,-0.189C0.177,-0.17 0.183,-0.154 0.191,-0.14C0.199,-0.126 0.21,-0.115 0.223,-0.108C0.236,-0.1 0.251,-0.096 0.269,-0.096C0.303,-0.096 0.328,-0.108 0.345,-0.133C0.362,-0.158 0.37,-0.197 0.37,-0.25C0.37,-0.296 0.362,-0.333 0.347,-0.362C0.332,-0.39 0.306,-0.404 0.269,-0.404C0.237,-0.404 0.212,-0.392 0.194,-0.368C0.176,-0.344 0.167,-0.305 0.167,-0.25Z" style="fill-rule:nonzero;"/>
                </g>
                <g transform="matrix(21.7258,0,0,21.7258,741.058,339.31)">
                    <path d="M0.329,-0.385L0.23,-0.385C0.226,-0.338 0.221,-0.291 0.216,-0.244C0.211,-0.197 0.202,-0.156 0.191,-0.119C0.179,-0.082 0.163,-0.051 0.143,-0.029C0.123,-0.006 0.097,0.006 0.065,0.006C0.026,0.006 -0.001,0.001 -0.017,-0.009L-0.001,-0.117C0.01,-0.113 0.02,-0.111 0.029,-0.111C0.042,-0.111 0.054,-0.117 0.064,-0.128C0.074,-0.139 0.083,-0.16 0.09,-0.189C0.096,-0.218 0.102,-0.258 0.107,-0.309C0.111,-0.359 0.114,-0.423 0.116,-0.5L0.459,-0.5L0.459,-0L0.329,-0L0.329,-0.385Z" style="fill-rule:nonzero;"/>
                </g>
                <g transform="matrix(21.7258,0,0,21.7258,752.247,339.31)">
                    <path d="M0.329,-0.385L0.23,-0.385C0.226,-0.338 0.221,-0.291 0.216,-0.244C0.211,-0.197 0.202,-0.156 0.191,-0.119C0.179,-0.082 0.163,-0.051 0.143,-0.029C0.123,-0.006 0.097,0.006 0.065,0.006C0.026,0.006 -0.001,0.001 -0.017,-0.009L-0.001,-0.117C0.01,-0.113 0.02,-0.111 0.029,-0.111C0.042,-0.111 0.054,-0.117 0.064,-0.128C0.074,-0.139 0.083,-0.16 0.09,-0.189C0.096,-0.218 0.102,-0.258 0.107,-0.309C0.111,-0.359 0.114,-0.423 0.116,-0.5L0.459,-0.5L0.459,-0L0.329,-0L0.329,-0.385Z" style="fill-rule:nonzero;"/>
                </g>
                <g transform="matrix(21.7258,0,0,21.7258,763.435,339.31)">
                    <path d="M0.457,-0.043C0.437,-0.027 0.41,-0.014 0.376,-0.003C0.341,0.009 0.305,0.014 0.266,0.014C0.185,0.014 0.126,-0.01 0.089,-0.057C0.052,-0.103 0.033,-0.168 0.033,-0.25C0.033,-0.338 0.054,-0.404 0.096,-0.448C0.138,-0.492 0.197,-0.514 0.273,-0.514C0.298,-0.514 0.323,-0.511 0.347,-0.504C0.371,-0.497 0.392,-0.486 0.411,-0.471C0.43,-0.456 0.445,-0.435 0.456,-0.409C0.467,-0.383 0.473,-0.351 0.473,-0.312C0.473,-0.298 0.472,-0.283 0.471,-0.267C0.469,-0.251 0.466,-0.234 0.463,-0.217L0.163,-0.217C0.165,-0.175 0.176,-0.143 0.196,-0.122C0.215,-0.101 0.247,-0.09 0.291,-0.09C0.318,-0.09 0.343,-0.094 0.365,-0.103C0.386,-0.111 0.403,-0.119 0.414,-0.128L0.457,-0.043ZM0.271,-0.41C0.237,-0.41 0.212,-0.4 0.196,-0.38C0.179,-0.359 0.169,-0.332 0.166,-0.298L0.352,-0.298C0.355,-0.334 0.349,-0.362 0.336,-0.381C0.322,-0.4 0.3,-0.41 0.271,-0.41Z" style="fill-rule:nonzero;"/>
                </g>
                <g transform="matrix(21.7258,0,0,21.7258,774.472,339.31)">
                    <path d="M0.222,-0.207L0.187,-0.207L0.187,-0L0.057,-0L0.057,-0.5L0.187,-0.5L0.187,-0.287L0.218,-0.301L0.335,-0.5L0.474,-0.5L0.353,-0.31L0.302,-0.272L0.358,-0.233L0.493,-0L0.344,-0L0.222,-0.207Z" style="fill-rule:nonzero;"/>
                </g>
                <g transform="matrix(21.7258,0,0,21.7258,785.096,339.31)">
                    <path d="M0.545,0.114L0.45,0.114L0.435,-0L0.057,-0L0.057,-0.5L0.187,-0.5L0.187,-0.115L0.342,-0.115L0.342,-0.5L0.472,-0.5L0.472,-0.115L0.545,-0.115L0.545,0.114Z" style="fill-rule:nonzero;"/>
                </g>
                <g transform="matrix(21.7258,0,0,21.7258,797.241,339.31)">
                    <path d="M0.358,-0.228L0.363,-0.299L0.36,-0.299L0.317,-0.226L0.139,-0L0.057,-0L0.057,-0.5L0.187,-0.5L0.187,-0.262L0.181,-0.194L0.185,-0.194L0.226,-0.265L0.406,-0.5L0.488,-0.5L0.488,-0L0.358,-0L0.358,-0.228Z" style="fill-rule:nonzero;"/>
                </g>
                <g transform="matrix(21.7258,0,0,21.7258,809.081,339.31)">
                    <path d="M0.321,-0.189L0.261,-0.177L0.165,-0L0.01,-0L0.107,-0.157L0.156,-0.194C0.123,-0.199 0.096,-0.215 0.075,-0.241C0.054,-0.266 0.043,-0.298 0.043,-0.337C0.043,-0.398 0.063,-0.442 0.104,-0.471C0.144,-0.5 0.206,-0.514 0.289,-0.514C0.321,-0.514 0.351,-0.512 0.379,-0.509C0.406,-0.506 0.43,-0.502 0.451,-0.498L0.451,-0L0.321,-0L0.321,-0.189ZM0.321,-0.257L0.321,-0.395C0.314,-0.398 0.306,-0.401 0.297,-0.402C0.288,-0.403 0.28,-0.404 0.272,-0.404C0.242,-0.404 0.219,-0.398 0.202,-0.385C0.185,-0.372 0.177,-0.353 0.177,-0.328C0.177,-0.303 0.186,-0.284 0.205,-0.272C0.223,-0.26 0.25,-0.254 0.285,-0.255L0.321,-0.257Z" style="fill-rule:nonzero;"/>
                </g>
            </g>
            <g transform="matrix(1.90554,0,0,1.90554,-2155.09,664.257)">
                <g transform="matrix(21.7258,0,0,21.7258,692.1,314.999)">
                    <path d="M0.603,-0.363L0.618,-0.502L0.612,-0.502L0.569,-0.39L0.42,-0.129L0.376,-0.129L0.219,-0.391L0.175,-0.502L0.17,-0.502L0.19,-0.364L0.19,-0L0.06,-0L0.06,-0.7L0.185,-0.7L0.372,-0.38L0.405,-0.3L0.409,-0.3L0.439,-0.382L0.616,-0.7L0.74,-0.7L0.74,-0L0.603,-0L0.603,-0.363Z" style="fill-rule:nonzero;"/>
                </g>
                <g transform="matrix(21.7258,0,0,21.7258,709.481,314.999)">
                    <path d="M0.239,-0.219L0.257,-0.141L0.263,-0.141L0.276,-0.22L0.352,-0.5L0.486,-0.5L0.334,-0.049C0.321,-0.012 0.309,0.023 0.298,0.054C0.286,0.085 0.273,0.111 0.259,0.134C0.245,0.157 0.23,0.174 0.213,0.187C0.196,0.199 0.175,0.205 0.152,0.205C0.117,0.205 0.09,0.199 0.069,0.188L0.093,0.084C0.103,0.088 0.113,0.09 0.123,0.09C0.138,0.09 0.153,0.084 0.168,0.071C0.182,0.058 0.193,0.034 0.2,-0L-0.009,-0.5L0.147,-0.5L0.239,-0.219Z" style="fill-rule:nonzero;"/>
                </g>
                <g transform="matrix(21.7258,0,0,21.7258,719.866,314.999)">
                    <path d="M0.329,-0.385L0.23,-0.385C0.226,-0.338 0.221,-0.291 0.216,-0.244C0.211,-0.197 0.202,-0.156 0.191,-0.119C0.179,-0.082 0.163,-0.051 0.143,-0.029C0.123,-0.006 0.097,0.006 0.065,0.006C0.026,0.006 -0.001,0.001 -0.017,-0.009L-0.001,-0.117C0.01,-0.113 0.02,-0.111 0.029,-0.111C0.042,-0.111 0.054,-0.117 0.064,-0.128C0.074,-0.139 0.083,-0.16 0.09,-0.189C0.096,-0.218 0.102,-0.258 0.107,-0.309C0.111,-0.359 0.114,-0.423 0.116,-0.5L0.459,-0.5L0.459,-0L0.329,-0L0.329,-0.385Z" style="fill-rule:nonzero;"/>
                </g>
                <g transform="matrix(21.7258,0,0,21.7258,731.055,314.999)">
                    <path d="M0.187,-0.109C0.207,-0.105 0.226,-0.103 0.244,-0.103C0.276,-0.103 0.299,-0.109 0.314,-0.12C0.328,-0.131 0.335,-0.148 0.335,-0.171C0.335,-0.214 0.306,-0.236 0.247,-0.236C0.225,-0.236 0.205,-0.234 0.187,-0.229L0.187,-0.109ZM0.187,-0.322C0.203,-0.325 0.219,-0.327 0.236,-0.328C0.252,-0.329 0.267,-0.329 0.28,-0.329C0.315,-0.329 0.344,-0.325 0.368,-0.318C0.392,-0.31 0.412,-0.299 0.427,-0.285C0.442,-0.271 0.452,-0.255 0.459,-0.236C0.466,-0.217 0.469,-0.196 0.469,-0.174C0.469,-0.113 0.451,-0.068 0.415,-0.038C0.379,-0.008 0.318,0.007 0.232,0.007C0.194,0.007 0.161,0.006 0.134,0.005C0.106,0.004 0.08,0.002 0.057,-0L0.057,-0.5L0.187,-0.5L0.187,-0.322Z" style="fill-rule:nonzero;"/>
                </g>
                <g transform="matrix(21.7258,0,0,21.7258,741.7,314.999)">
                    <path d="M0.417,-0.385L0.278,-0.385L0.278,-0L0.144,-0L0.144,-0.385L0.001,-0.385L0.001,-0.5L0.417,-0.5L0.417,-0.385Z" style="fill-rule:nonzero;"/>
                </g>
                <g transform="matrix(21.7258,0,0,21.7258,750.782,314.999)">
                    <path d="M0.358,-0.228L0.363,-0.299L0.36,-0.299L0.317,-0.226L0.139,-0L0.057,-0L0.057,-0.5L0.187,-0.5L0.187,-0.262L0.181,-0.194L0.185,-0.194L0.226,-0.265L0.406,-0.5L0.488,-0.5L0.488,-0L0.358,-0L0.358,-0.228Z" style="fill-rule:nonzero;"/>
                </g>
                <g transform="matrix(21.7258,0,0,21.7258,762.622,314.999)">
                    <path d="M0.345,-0.385L0.187,-0.385L0.187,-0L0.057,-0L0.057,-0.5L0.475,-0.5L0.475,-0L0.345,-0L0.345,-0.385Z" style="fill-rule:nonzero;"/>
                </g>
                <g transform="matrix(21.7258,0,0,21.7258,774.18,314.999)">
                    <path d="M0.033,-0.25C0.033,-0.335 0.054,-0.4 0.095,-0.446C0.136,-0.491 0.194,-0.514 0.269,-0.514C0.309,-0.514 0.344,-0.508 0.373,-0.495C0.402,-0.482 0.427,-0.464 0.446,-0.442C0.465,-0.419 0.48,-0.391 0.49,-0.358C0.499,-0.325 0.504,-0.289 0.504,-0.25C0.504,-0.165 0.484,-0.1 0.443,-0.055C0.401,-0.009 0.344,0.014 0.269,0.014C0.229,0.014 0.194,0.008 0.165,-0.005C0.136,-0.018 0.111,-0.036 0.092,-0.059C0.072,-0.082 0.057,-0.109 0.048,-0.142C0.038,-0.175 0.033,-0.211 0.033,-0.25ZM0.167,-0.25C0.167,-0.228 0.169,-0.208 0.173,-0.189C0.177,-0.17 0.183,-0.154 0.191,-0.14C0.199,-0.126 0.21,-0.115 0.223,-0.108C0.236,-0.1 0.251,-0.096 0.269,-0.096C0.303,-0.096 0.328,-0.108 0.345,-0.133C0.362,-0.158 0.37,-0.197 0.37,-0.25C0.37,-0.296 0.362,-0.333 0.347,-0.362C0.332,-0.39 0.306,-0.404 0.269,-0.404C0.237,-0.404 0.212,-0.392 0.194,-0.368C0.176,-0.344 0.167,-0.305 0.167,-0.25Z" style="fill-rule:nonzero;"/>
                </g>
                <g transform="matrix(21.7258,0,0,21.7258,785.847,314.999)">
                    <path d="M0.329,-0.385L0.23,-0.385C0.226,-0.338 0.221,-0.291 0.216,-0.244C0.211,-0.197 0.202,-0.156 0.191,-0.119C0.179,-0.082 0.163,-0.051 0.143,-0.029C0.123,-0.006 0.097,0.006 0.065,0.006C0.026,0.006 -0.001,0.001 -0.017,-0.009L-0.001,-0.117C0.01,-0.113 0.02,-0.111 0.029,-0.111C0.042,-0.111 0.054,-0.117 0.064,-0.128C0.074,-0.139 0.083,-0.16 0.09,-0.189C0.096,-0.218 0.102,-0.258 0.107,-0.309C0.111,-0.359 0.114,-0.423 0.116,-0.5L0.459,-0.5L0.459,-0L0.329,-0L0.329,-0.385Z" style="fill-rule:nonzero;"/>
                </g>
                <g transform="matrix(21.7258,0,0,21.7258,797.036,314.999)">
                    <path d="M0.358,-0.228L0.363,-0.299L0.36,-0.299L0.317,-0.226L0.139,-0L0.057,-0L0.057,-0.5L0.187,-0.5L0.187,-0.262L0.181,-0.194L0.185,-0.194L0.226,-0.265L0.406,-0.5L0.488,-0.5L0.488,-0L0.358,-0L0.358,-0.228Z" style="fill-rule:nonzero;"/>
                </g>
                <g transform="matrix(21.7258,0,0,21.7258,808.877,314.999)">
                    <path d="M0.38,-0.385L0.191,-0.385L0.191,-0L0.057,-0L0.057,-0.5L0.38,-0.5L0.38,-0.385Z" style="fill-rule:nonzero;"/>
                </g>
                <g transform="matrix(21.7258,0,0,21.7258,817.046,314.999)">
                    <path d="M0.033,-0.25C0.033,-0.335 0.054,-0.4 0.095,-0.446C0.136,-0.491 0.194,-0.514 0.269,-0.514C0.309,-0.514 0.344,-0.508 0.373,-0.495C0.402,-0.482 0.427,-0.464 0.446,-0.442C0.465,-0.419 0.48,-0.391 0.49,-0.358C0.499,-0.325 0.504,-0.289 0.504,-0.25C0.504,-0.165 0.484,-0.1 0.443,-0.055C0.401,-0.009 0.344,0.014 0.269,0.014C0.229,0.014 0.194,0.008 0.165,-0.005C0.136,-0.018 0.111,-0.036 0.092,-0.059C0.072,-0.082 0.057,-0.109 0.048,-0.142C0.038,-0.175 0.033,-0.211 0.033,-0.25ZM0.167,-0.25C0.167,-0.228 0.169,-0.208 0.173,-0.189C0.177,-0.17 0.183,-0.154 0.191,-0.14C0.199,-0.126 0.21,-0.115 0.223,-0.108C0.236,-0.1 0.251,-0.096 0.269,-0.096C0.303,-0.096 0.328,-0.108 0.345,-0.133C0.362,-0.158 0.37,-0.197 0.37,-0.25C0.37,-0.296 0.362,-0.333 0.347,-0.362C0.332,-0.39 0.306,-0.404 0.269,-0.404C0.237,-0.404 0.212,-0.392 0.194,-0.368C0.176,-0.344 0.167,-0.305 0.167,-0.25Z" style="fill-rule:nonzero;"/>
                </g>
                <g transform="matrix(21.7258,0,0,21.7258,828.712,314.999)">
                    <path d="M0.35,-0.196L0.187,-0.196L0.187,-0L0.057,-0L0.057,-0.5L0.187,-0.5L0.187,-0.312L0.35,-0.312L0.35,-0.5L0.48,-0.5L0.48,-0L0.35,-0L0.35,-0.196Z" style="fill-rule:nonzero;"/>
                </g>
            </g>
            <g transform="matrix(1.90554,0,0,1.90554,-2788.56,719.422)">
                <g transform="matrix(21.7258,0,0,21.7258,703.619,314.999)">
                    <path d="M0.623,-0.47L0.633,-0.575L0.628,-0.575L0.59,-0.479L0.408,-0.163L0.383,-0.163L0.19,-0.48L0.154,-0.575L0.149,-0.575L0.163,-0.471L0.163,-0L0.085,-0L0.085,-0.7L0.147,-0.7L0.366,-0.342L0.399,-0.264L0.401,-0.264L0.432,-0.344L0.641,-0.7L0.706,-0.7L0.706,-0L0.623,-0L0.623,-0.47Z" style="fill-rule:nonzero;"/>
                </g>
                <g transform="matrix(21.7258,0,0,21.7258,720.804,314.999)">
                    <path d="M0.487,-0.7L0.567,-0.7L0.567,-0.233C0.567,-0.191 0.562,-0.155 0.551,-0.124C0.54,-0.093 0.524,-0.068 0.504,-0.049C0.483,-0.029 0.459,-0.014 0.43,-0.005C0.401,0.004 0.37,0.009 0.335,0.009C0.252,0.009 0.19,-0.01 0.148,-0.047C0.106,-0.084 0.085,-0.141 0.085,-0.217L0.085,-0.7L0.168,-0.7L0.168,-0.256C0.168,-0.221 0.171,-0.191 0.179,-0.167C0.186,-0.142 0.196,-0.123 0.21,-0.108C0.224,-0.093 0.242,-0.082 0.263,-0.075C0.284,-0.068 0.308,-0.065 0.336,-0.065C0.39,-0.065 0.429,-0.08 0.452,-0.11C0.475,-0.139 0.487,-0.188 0.487,-0.256L0.487,-0.7Z" style="fill-rule:nonzero;"/>
                </g>
                <g transform="matrix(21.7258,0,0,21.7258,734.97,314.999)">
                    <path d="M0.499,-0L0.085,-0L0.085,-0.7L0.168,-0.7L0.168,-0.074L0.499,-0.074L0.499,-0Z" style="fill-rule:nonzero;"/>
                </g>
                <g transform="matrix(21.7258,0,0,21.7258,743.551,314.999)">
                    <path d="M0.537,-0.626L0.319,-0.626L0.319,-0L0.236,-0L0.236,-0.626L0.018,-0.626L0.018,-0.7L0.537,-0.7L0.537,-0.626Z" style="fill-rule:nonzero;"/>
                </g>
                <g transform="matrix(21.7258,0,0,21.7258,755.609,314.999)">
                    <rect x="0.104" y="-0.7" width="0.083" height="0.7" style="fill-rule:nonzero;"/>
                </g>
                <g transform="matrix(21.7258,0,0,21.7258,761.931,314.999)">
                    <path d="M0.085,-0.693C0.11,-0.699 0.138,-0.703 0.167,-0.705C0.196,-0.707 0.225,-0.708 0.254,-0.708C0.285,-0.708 0.316,-0.705 0.348,-0.699C0.379,-0.693 0.408,-0.682 0.434,-0.666C0.46,-0.65 0.481,-0.628 0.498,-0.6C0.514,-0.572 0.522,-0.536 0.522,-0.493C0.522,-0.45 0.514,-0.414 0.499,-0.385C0.484,-0.356 0.463,-0.332 0.438,-0.314C0.413,-0.295 0.384,-0.282 0.351,-0.274C0.318,-0.266 0.285,-0.262 0.25,-0.262L0.234,-0.262C0.226,-0.262 0.218,-0.262 0.21,-0.263C0.201,-0.263 0.193,-0.263 0.185,-0.264C0.177,-0.265 0.171,-0.265 0.168,-0.266L0.168,-0L0.085,-0L0.085,-0.693ZM0.256,-0.636C0.239,-0.636 0.222,-0.636 0.206,-0.635C0.19,-0.634 0.177,-0.633 0.168,-0.63L0.168,-0.34C0.171,-0.339 0.177,-0.338 0.184,-0.338C0.191,-0.337 0.199,-0.337 0.207,-0.337C0.215,-0.336 0.223,-0.336 0.23,-0.336L0.246,-0.336C0.269,-0.336 0.291,-0.338 0.314,-0.343C0.336,-0.347 0.356,-0.355 0.374,-0.366C0.392,-0.377 0.407,-0.393 0.418,-0.414C0.428,-0.435 0.434,-0.461 0.434,-0.493C0.434,-0.52 0.429,-0.543 0.419,-0.562C0.408,-0.58 0.395,-0.595 0.378,-0.606C0.361,-0.616 0.341,-0.624 0.32,-0.629C0.299,-0.634 0.277,-0.636 0.256,-0.636Z" style="fill-rule:nonzero;"/>
                </g>
                <g transform="matrix(21.7258,0,0,21.7258,774.076,314.999)">
                    <path d="M0.056,-0.35C0.056,-0.467 0.081,-0.556 0.13,-0.619C0.179,-0.681 0.25,-0.712 0.341,-0.712C0.39,-0.712 0.433,-0.703 0.469,-0.686C0.505,-0.669 0.535,-0.644 0.559,-0.613C0.582,-0.581 0.6,-0.543 0.611,-0.499C0.622,-0.454 0.628,-0.405 0.628,-0.35C0.628,-0.233 0.603,-0.144 0.554,-0.082C0.504,-0.019 0.433,0.012 0.341,0.012C0.292,0.012 0.25,0.003 0.215,-0.014C0.179,-0.031 0.149,-0.056 0.126,-0.088C0.102,-0.119 0.084,-0.157 0.073,-0.202C0.062,-0.246 0.056,-0.295 0.056,-0.35ZM0.144,-0.35C0.144,-0.311 0.148,-0.275 0.156,-0.24C0.163,-0.205 0.175,-0.175 0.191,-0.149C0.207,-0.122 0.228,-0.101 0.253,-0.086C0.278,-0.07 0.307,-0.062 0.341,-0.062C0.403,-0.062 0.452,-0.086 0.487,-0.133C0.522,-0.18 0.54,-0.252 0.54,-0.35C0.54,-0.388 0.536,-0.425 0.529,-0.46C0.521,-0.495 0.509,-0.525 0.493,-0.552C0.476,-0.578 0.456,-0.599 0.431,-0.615C0.405,-0.63 0.376,-0.638 0.341,-0.638C0.28,-0.638 0.232,-0.615 0.197,-0.568C0.162,-0.521 0.144,-0.448 0.144,-0.35Z" style="fill-rule:nonzero;"/>
                </g>
                <g transform="matrix(21.7258,0,0,21.7258,788.937,314.999)">
                    <rect x="0.104" y="-0.7" width="0.083" height="0.7" style="fill-rule:nonzero;"/>
                </g>
                <g transform="matrix(21.7258,0,0,21.7258,795.259,314.999)">
                    <path d="M0.211,-0.458L0.157,-0.559L0.153,-0.559L0.163,-0.458L0.163,-0L0.085,-0L0.085,-0.711L0.129,-0.711L0.464,-0.244L0.516,-0.148L0.521,-0.148L0.51,-0.244L0.51,-0.7L0.588,-0.7L0.588,0.011L0.544,0.011L0.211,-0.458Z" style="fill-rule:nonzero;"/>
                </g>
                <g transform="matrix(21.7258,0,0,21.7258,809.88,314.999)">
                    <path d="M0.537,-0.626L0.319,-0.626L0.319,-0L0.236,-0L0.236,-0.626L0.018,-0.626L0.018,-0.7L0.537,-0.7L0.537,-0.626Z" style="fill-rule:nonzero;"/>
                </g>
            </g>
            <g transform="matrix(1.90554,0,0,1.90554,-2483.59,390.155)">
                <g transform="matrix(21.7258,0,0,21.7258,705.277,314.999)">
                    <path d="M0.499,-0L0.085,-0L0.085,-0.7L0.168,-0.7L0.168,-0.074L0.499,-0.074L0.499,-0Z" style="fill-rule:nonzero;"/>
                </g>
                <g transform="matrix(21.7258,0,0,21.7258,716.509,314.999)">
                    <rect x="0.104" y="-0.7" width="0.083" height="0.7" style="fill-rule:nonzero;"/>
                </g>
                <g transform="matrix(21.7258,0,0,21.7258,722.831,314.999)">
                    <path d="M0.211,-0.458L0.157,-0.559L0.153,-0.559L0.163,-0.458L0.163,-0L0.085,-0L0.085,-0.711L0.129,-0.711L0.464,-0.244L0.516,-0.148L0.521,-0.148L0.51,-0.244L0.51,-0.7L0.588,-0.7L0.588,0.011L0.544,0.011L0.211,-0.458Z" style="fill-rule:nonzero;"/>
                </g>
                <g transform="matrix(21.7258,0,0,21.7258,737.452,314.999)">
                    <path d="M0.085,-0.7L0.466,-0.7L0.466,-0.626L0.168,-0.626L0.168,-0.397L0.441,-0.397L0.441,-0.323L0.168,-0.323L0.168,-0.074L0.471,-0.074L0.471,-0L0.085,-0L0.085,-0.7Z" style="fill-rule:nonzero;"/>
                </g>
                <g transform="matrix(21.7258,0,0,21.7258,749.098,314.999)">
                    <path d="M0.401,-0.178C0.401,-0.206 0.393,-0.229 0.376,-0.247C0.359,-0.264 0.339,-0.28 0.314,-0.294C0.289,-0.307 0.261,-0.32 0.232,-0.332C0.203,-0.344 0.175,-0.359 0.151,-0.376C0.126,-0.393 0.105,-0.413 0.088,-0.439C0.071,-0.464 0.063,-0.495 0.063,-0.534C0.063,-0.589 0.082,-0.632 0.12,-0.664C0.158,-0.696 0.212,-0.712 0.282,-0.712C0.323,-0.712 0.36,-0.709 0.393,-0.703C0.426,-0.697 0.452,-0.689 0.471,-0.68L0.446,-0.607C0.431,-0.614 0.408,-0.621 0.379,-0.628C0.349,-0.635 0.315,-0.638 0.278,-0.638C0.234,-0.638 0.201,-0.628 0.179,-0.609C0.157,-0.589 0.146,-0.566 0.146,-0.539C0.146,-0.513 0.154,-0.491 0.171,-0.474C0.188,-0.457 0.209,-0.441 0.234,-0.428C0.259,-0.414 0.286,-0.4 0.315,-0.387C0.344,-0.374 0.372,-0.358 0.397,-0.341C0.422,-0.323 0.442,-0.302 0.459,-0.277C0.476,-0.252 0.484,-0.222 0.484,-0.185C0.484,-0.155 0.479,-0.128 0.468,-0.104C0.457,-0.08 0.442,-0.059 0.421,-0.042C0.4,-0.025 0.375,-0.011 0.346,-0.002C0.317,0.007 0.283,0.012 0.246,0.012C0.196,0.012 0.155,0.008 0.122,0.001C0.089,-0.007 0.064,-0.016 0.046,-0.025L0.074,-0.1C0.089,-0.091 0.112,-0.083 0.142,-0.075C0.172,-0.066 0.206,-0.062 0.243,-0.062C0.265,-0.062 0.286,-0.064 0.305,-0.069C0.324,-0.073 0.341,-0.08 0.355,-0.09C0.369,-0.099 0.38,-0.111 0.389,-0.126C0.397,-0.141 0.401,-0.158 0.401,-0.178Z" style="fill-rule:nonzero;"/>
                </g>
                <g transform="matrix(21.7258,0,0,21.7258,760.634,314.999)">
                    <path d="M0.537,-0.626L0.319,-0.626L0.319,-0L0.236,-0L0.236,-0.626L0.018,-0.626L0.018,-0.7L0.537,-0.7L0.537,-0.626Z" style="fill-rule:nonzero;"/>
                </g>
                <g transform="matrix(21.7258,0,0,21.7258,772.692,314.999)">
                    <path d="M0.085,-0.693C0.11,-0.698 0.139,-0.701 0.173,-0.704C0.206,-0.707 0.236,-0.708 0.263,-0.708C0.294,-0.708 0.323,-0.705 0.351,-0.698C0.378,-0.691 0.403,-0.68 0.424,-0.665C0.444,-0.65 0.461,-0.63 0.474,-0.605C0.487,-0.58 0.493,-0.55 0.493,-0.515C0.493,-0.46 0.478,-0.416 0.448,-0.382C0.418,-0.348 0.38,-0.325 0.334,-0.314L0.382,-0.277L0.556,-0L0.459,-0L0.266,-0.302L0.168,-0.317L0.168,-0L0.085,-0L0.085,-0.693ZM0.265,-0.636L0.238,-0.636C0.229,-0.636 0.22,-0.636 0.211,-0.635C0.202,-0.634 0.194,-0.634 0.187,-0.633C0.179,-0.632 0.173,-0.631 0.168,-0.63L0.168,-0.372L0.246,-0.372C0.292,-0.372 0.33,-0.383 0.36,-0.406C0.39,-0.429 0.405,-0.464 0.405,-0.512C0.405,-0.548 0.393,-0.578 0.368,-0.601C0.343,-0.624 0.309,-0.636 0.265,-0.636Z" style="fill-rule:nonzero;"/>
                </g>
                <g transform="matrix(21.7258,0,0,21.7258,785.619,314.999)">
                    <rect x="0.104" y="-0.7" width="0.083" height="0.7" style="fill-rule:nonzero;"/>
                </g>
                <g transform="matrix(21.7258,0,0,21.7258,791.941,314.999)">
                    <path d="M0.211,-0.458L0.157,-0.559L0.153,-0.559L0.163,-0.458L0.163,-0L0.085,-0L0.085,-0.711L0.129,-0.711L0.464,-0.244L0.516,-0.148L0.521,-0.148L0.51,-0.244L0.51,-0.7L0.588,-0.7L0.588,0.011L0.544,0.011L0.211,-0.458Z" style="fill-rule:nonzero;"/>
                </g>
                <g transform="matrix(21.7258,0,0,21.7258,806.562,314.999)">
                    <path d="M0.321,-0.349L0.556,-0.349L0.556,-0.041C0.545,-0.033 0.533,-0.026 0.518,-0.019C0.502,-0.012 0.487,-0.007 0.47,-0.002C0.452,0.003 0.435,0.006 0.417,0.009C0.398,0.011 0.38,0.012 0.363,0.012C0.318,0.012 0.277,0.005 0.24,-0.01C0.203,-0.024 0.17,-0.046 0.143,-0.076C0.116,-0.105 0.094,-0.143 0.079,-0.189C0.064,-0.234 0.056,-0.288 0.056,-0.35C0.056,-0.415 0.065,-0.47 0.084,-0.516C0.103,-0.562 0.127,-0.6 0.157,-0.629C0.187,-0.658 0.221,-0.679 0.258,-0.692C0.295,-0.705 0.333,-0.712 0.37,-0.712C0.41,-0.712 0.443,-0.71 0.469,-0.706C0.495,-0.701 0.517,-0.695 0.535,-0.688L0.514,-0.615C0.482,-0.63 0.436,-0.638 0.377,-0.638C0.349,-0.638 0.321,-0.633 0.294,-0.624C0.266,-0.614 0.241,-0.598 0.219,-0.575C0.197,-0.552 0.179,-0.523 0.165,-0.486C0.151,-0.449 0.144,-0.404 0.144,-0.35C0.144,-0.301 0.15,-0.258 0.161,-0.222C0.172,-0.186 0.188,-0.156 0.209,-0.133C0.229,-0.109 0.253,-0.091 0.282,-0.08C0.311,-0.068 0.342,-0.062 0.376,-0.062C0.419,-0.062 0.455,-0.07 0.485,-0.087L0.485,-0.282L0.321,-0.302L0.321,-0.349Z" style="fill-rule:nonzero;"/>
                </g>
            </g>
            <g transform="matrix(1.90554,0,0,1.90554,-2538.36,719.422)">
                <g transform="matrix(21.7258,0,0,21.7258,706.439,314.999)">
                    <path d="M0.623,-0.47L0.633,-0.575L0.628,-0.575L0.59,-0.479L0.408,-0.163L0.383,-0.163L0.19,-0.48L0.154,-0.575L0.149,-0.575L0.163,-0.471L0.163,-0L0.085,-0L0.085,-0.7L0.147,-0.7L0.366,-0.342L0.399,-0.264L0.401,-0.264L0.432,-0.344L0.641,-0.7L0.706,-0.7L0.706,-0L0.623,-0L0.623,-0.47Z" style="fill-rule:nonzero;"/>
                </g>
                <g transform="matrix(21.7258,0,0,21.7258,723.624,314.999)">
                    <path d="M0.487,-0.7L0.567,-0.7L0.567,-0.233C0.567,-0.191 0.562,-0.155 0.551,-0.124C0.54,-0.093 0.524,-0.068 0.504,-0.049C0.483,-0.029 0.459,-0.014 0.43,-0.005C0.401,0.004 0.37,0.009 0.335,0.009C0.252,0.009 0.19,-0.01 0.148,-0.047C0.106,-0.084 0.085,-0.141 0.085,-0.217L0.085,-0.7L0.168,-0.7L0.168,-0.256C0.168,-0.221 0.171,-0.191 0.179,-0.167C0.186,-0.142 0.196,-0.123 0.21,-0.108C0.224,-0.093 0.242,-0.082 0.263,-0.075C0.284,-0.068 0.308,-0.065 0.336,-0.065C0.39,-0.065 0.429,-0.08 0.452,-0.11C0.475,-0.139 0.487,-0.188 0.487,-0.256L0.487,-0.7Z" style="fill-rule:nonzero;"/>
                </g>
                <g transform="matrix(21.7258,0,0,21.7258,737.789,314.999)">
                    <path d="M0.499,-0L0.085,-0L0.085,-0.7L0.168,-0.7L0.168,-0.074L0.499,-0.074L0.499,-0Z" style="fill-rule:nonzero;"/>
                </g>
                <g transform="matrix(21.7258,0,0,21.7258,746.371,314.999)">
                    <path d="M0.537,-0.626L0.319,-0.626L0.319,-0L0.236,-0L0.236,-0.626L0.018,-0.626L0.018,-0.7L0.537,-0.7L0.537,-0.626Z" style="fill-rule:nonzero;"/>
                </g>
                <g transform="matrix(21.7258,0,0,21.7258,758.429,314.999)">
                    <rect x="0.104" y="-0.7" width="0.083" height="0.7" style="fill-rule:nonzero;"/>
                </g>
                <g transform="matrix(21.7258,0,0,21.7258,764.751,314.999)">
                    <path d="M0.499,-0L0.085,-0L0.085,-0.7L0.168,-0.7L0.168,-0.074L0.499,-0.074L0.499,-0Z" style="fill-rule:nonzero;"/>
                </g>
                <g transform="matrix(21.7258,0,0,21.7258,775.983,314.999)">
                    <rect x="0.104" y="-0.7" width="0.083" height="0.7" style="fill-rule:nonzero;"/>
                </g>
                <g transform="matrix(21.7258,0,0,21.7258,782.305,314.999)">
                    <path d="M0.211,-0.458L0.157,-0.559L0.153,-0.559L0.163,-0.458L0.163,-0L0.085,-0L0.085,-0.711L0.129,-0.711L0.464,-0.244L0.516,-0.148L0.521,-0.148L0.51,-0.244L0.51,-0.7L0.588,-0.7L0.588,0.011L0.544,0.011L0.211,-0.458Z" style="fill-rule:nonzero;"/>
                </g>
                <g transform="matrix(21.7258,0,0,21.7258,796.927,314.999)">
                    <path d="M0.085,-0.7L0.466,-0.7L0.466,-0.626L0.168,-0.626L0.168,-0.397L0.441,-0.397L0.441,-0.323L0.168,-0.323L0.168,-0.074L0.471,-0.074L0.471,-0L0.085,-0L0.085,-0.7Z" style="fill-rule:nonzero;"/>
                </g>
                <g transform="matrix(21.7258,0,0,21.7258,808.572,314.999)">
                    <path d="M0.401,-0.178C0.401,-0.206 0.393,-0.229 0.376,-0.247C0.359,-0.264 0.339,-0.28 0.314,-0.294C0.289,-0.307 0.261,-0.32 0.232,-0.332C0.203,-0.344 0.175,-0.359 0.151,-0.376C0.126,-0.393 0.105,-0.413 0.088,-0.439C0.071,-0.464 0.063,-0.495 0.063,-0.534C0.063,-0.589 0.082,-0.632 0.12,-0.664C0.158,-0.696 0.212,-0.712 0.282,-0.712C0.323,-0.712 0.36,-0.709 0.393,-0.703C0.426,-0.697 0.452,-0.689 0.471,-0.68L0.446,-0.607C0.431,-0.614 0.408,-0.621 0.379,-0.628C0.349,-0.635 0.315,-0.638 0.278,-0.638C0.234,-0.638 0.201,-0.628 0.179,-0.609C0.157,-0.589 0.146,-0.566 0.146,-0.539C0.146,-0.513 0.154,-0.491 0.171,-0.474C0.188,-0.457 0.209,-0.441 0.234,-0.428C0.259,-0.414 0.286,-0.4 0.315,-0.387C0.344,-0.374 0.372,-0.358 0.397,-0.341C0.422,-0.323 0.442,-0.302 0.459,-0.277C0.476,-0.252 0.484,-0.222 0.484,-0.185C0.484,-0.155 0.479,-0.128 0.468,-0.104C0.457,-0.08 0.442,-0.059 0.421,-0.042C0.4,-0.025 0.375,-0.011 0.346,-0.002C0.317,0.007 0.283,0.012 0.246,0.012C0.196,0.012 0.155,0.008 0.122,0.001C0.089,-0.007 0.064,-0.016 0.046,-0.025L0.074,-0.1C0.089,-0.091 0.112,-0.083 0.142,-0.075C0.172,-0.066 0.206,-0.062 0.243,-0.062C0.265,-0.062 0.286,-0.064 0.305,-0.069C0.324,-0.073 0.341,-0.08 0.355,-0.09C0.369,-0.099 0.38,-0.111 0.389,-0.126C0.397,-0.141 0.401,-0.158 0.401,-0.178Z" style="fill-rule:nonzero;"/>
                </g>
                <g transform="matrix(21.7258,0,0,21.7258,820.108,314.999)">
                    <path d="M0.537,-0.626L0.319,-0.626L0.319,-0L0.236,-0L0.236,-0.626L0.018,-0.626L0.018,-0.7L0.537,-0.7L0.537,-0.626Z" style="fill-rule:nonzero;"/>
                </g>
                <g transform="matrix(21.7258,0,0,21.7258,832.166,314.999)">
                    <path d="M0.085,-0.693C0.11,-0.698 0.139,-0.701 0.173,-0.704C0.206,-0.707 0.236,-0.708 0.263,-0.708C0.294,-0.708 0.323,-0.705 0.351,-0.698C0.378,-0.691 0.403,-0.68 0.424,-0.665C0.444,-0.65 0.461,-0.63 0.474,-0.605C0.487,-0.58 0.493,-0.55 0.493,-0.515C0.493,-0.46 0.478,-0.416 0.448,-0.382C0.418,-0.348 0.38,-0.325 0.334,-0.314L0.382,-0.277L0.556,-0L0.459,-0L0.266,-0.302L0.168,-0.317L0.168,-0L0.085,-0L0.085,-0.693ZM0.265,-0.636L0.238,-0.636C0.229,-0.636 0.22,-0.636 0.211,-0.635C0.202,-0.634 0.194,-0.634 0.187,-0.633C0.179,-0.632 0.173,-0.631 0.168,-0.63L0.168,-0.372L0.246,-0.372C0.292,-0.372 0.33,-0.383 0.36,-0.406C0.39,-0.429 0.405,-0.464 0.405,-0.512C0.405,-0.548 0.393,-0.578 0.368,-0.601C0.343,-0.624 0.309,-0.636 0.265,-0.636Z" style="fill-rule:nonzero;"/>
                </g>
                <g transform="matrix(21.7258,0,0,21.7258,845.093,314.999)">
                    <rect x="0.104" y="-0.7" width="0.083" height="0.7" style="fill-rule:nonzero;"/>
                </g>
                <g transform="matrix(21.7258,0,0,21.7258,851.415,314.999)">
                    <path d="M0.211,-0.458L0.157,-0.559L0.153,-0.559L0.163,-0.458L0.163,-0L0.085,-0L0.085,-0.711L0.129,-0.711L0.464,-0.244L0.516,-0.148L0.521,-0.148L0.51,-0.244L0.51,-0.7L0.588,-0.7L0.588,0.011L0.544,0.011L0.211,-0.458Z" style="fill-rule:nonzero;"/>
                </g>
                <g transform="matrix(21.7258,0,0,21.7258,866.037,314.999)">
                    <path d="M0.321,-0.349L0.556,-0.349L0.556,-0.041C0.545,-0.033 0.533,-0.026 0.518,-0.019C0.502,-0.012 0.487,-0.007 0.47,-0.002C0.452,0.003 0.435,0.006 0.417,0.009C0.398,0.011 0.38,0.012 0.363,0.012C0.318,0.012 0.277,0.005 0.24,-0.01C0.203,-0.024 0.17,-0.046 0.143,-0.076C0.116,-0.105 0.094,-0.143 0.079,-0.189C0.064,-0.234 0.056,-0.288 0.056,-0.35C0.056,-0.415 0.065,-0.47 0.084,-0.516C0.103,-0.562 0.127,-0.6 0.157,-0.629C0.187,-0.658 0.221,-0.679 0.258,-0.692C0.295,-0.705 0.333,-0.712 0.37,-0.712C0.41,-0.712 0.443,-0.71 0.469,-0.706C0.495,-0.701 0.517,-0.695 0.535,-0.688L0.514,-0.615C0.482,-0.63 0.436,-0.638 0.377,-0.638C0.349,-0.638 0.321,-0.633 0.294,-0.624C0.266,-0.614 0.241,-0.598 0.219,-0.575C0.197,-0.552 0.179,-0.523 0.165,-0.486C0.151,-0.449 0.144,-0.404 0.144,-0.35C0.144,-0.301 0.15,-0.258 0.161,-0.222C0.172,-0.186 0.188,-0.156 0.209,-0.133C0.229,-0.109 0.253,-0.091 0.282,-0.08C0.311,-0.068 0.342,-0.062 0.376,-0.062C0.419,-0.062 0.455,-0.07 0.485,-0.087L0.485,-0.282L0.321,-0.302L0.321,-0.349Z" style="fill-rule:nonzero;"/>
                </g>
            </g>
            <g transform="matrix(1.90554,0,0,1.90554,-2151.09,390.155)">
                <g transform="matrix(21.7258,0,0,21.7258,717.139,314.999)">
                    <path d="M0.085,-0.693C0.11,-0.699 0.138,-0.703 0.167,-0.705C0.196,-0.707 0.225,-0.708 0.254,-0.708C0.285,-0.708 0.316,-0.705 0.348,-0.699C0.379,-0.693 0.408,-0.682 0.434,-0.666C0.46,-0.65 0.481,-0.628 0.498,-0.6C0.514,-0.572 0.522,-0.536 0.522,-0.493C0.522,-0.45 0.514,-0.414 0.499,-0.385C0.484,-0.356 0.463,-0.332 0.438,-0.314C0.413,-0.295 0.384,-0.282 0.351,-0.274C0.318,-0.266 0.285,-0.262 0.25,-0.262L0.234,-0.262C0.226,-0.262 0.218,-0.262 0.21,-0.263C0.201,-0.263 0.193,-0.263 0.185,-0.264C0.177,-0.265 0.171,-0.265 0.168,-0.266L0.168,-0L0.085,-0L0.085,-0.693ZM0.256,-0.636C0.239,-0.636 0.222,-0.636 0.206,-0.635C0.19,-0.634 0.177,-0.633 0.168,-0.63L0.168,-0.34C0.171,-0.339 0.177,-0.338 0.184,-0.338C0.191,-0.337 0.199,-0.337 0.207,-0.337C0.215,-0.336 0.223,-0.336 0.23,-0.336L0.246,-0.336C0.269,-0.336 0.291,-0.338 0.314,-0.343C0.336,-0.347 0.356,-0.355 0.374,-0.366C0.392,-0.377 0.407,-0.393 0.418,-0.414C0.428,-0.435 0.434,-0.461 0.434,-0.493C0.434,-0.52 0.429,-0.543 0.419,-0.562C0.408,-0.58 0.395,-0.595 0.378,-0.606C0.361,-0.616 0.341,-0.624 0.32,-0.629C0.299,-0.634 0.277,-0.636 0.256,-0.636Z" style="fill-rule:nonzero;"/>
                </g>
                <g transform="matrix(21.7258,0,0,21.7258,729.284,314.999)">
                    <path d="M0.056,-0.35C0.056,-0.467 0.081,-0.556 0.13,-0.619C0.179,-0.681 0.25,-0.712 0.341,-0.712C0.39,-0.712 0.433,-0.703 0.469,-0.686C0.505,-0.669 0.535,-0.644 0.559,-0.613C0.582,-0.581 0.6,-0.543 0.611,-0.499C0.622,-0.454 0.628,-0.405 0.628,-0.35C0.628,-0.233 0.603,-0.144 0.554,-0.082C0.504,-0.019 0.433,0.012 0.341,0.012C0.292,0.012 0.25,0.003 0.215,-0.014C0.179,-0.031 0.149,-0.056 0.126,-0.088C0.102,-0.119 0.084,-0.157 0.073,-0.202C0.062,-0.246 0.056,-0.295 0.056,-0.35ZM0.144,-0.35C0.144,-0.311 0.148,-0.275 0.156,-0.24C0.163,-0.205 0.175,-0.175 0.191,-0.149C0.207,-0.122 0.228,-0.101 0.253,-0.086C0.278,-0.07 0.307,-0.062 0.341,-0.062C0.403,-0.062 0.452,-0.086 0.487,-0.133C0.522,-0.18 0.54,-0.252 0.54,-0.35C0.54,-0.388 0.536,-0.425 0.529,-0.46C0.521,-0.495 0.509,-0.525 0.493,-0.552C0.476,-0.578 0.456,-0.599 0.431,-0.615C0.405,-0.63 0.376,-0.638 0.341,-0.638C0.28,-0.638 0.232,-0.615 0.197,-0.568C0.162,-0.521 0.144,-0.448 0.144,-0.35Z" style="fill-rule:nonzero;"/>
                </g>
                <g transform="matrix(21.7258,0,0,21.7258,744.144,314.999)">
                    <path d="M0.499,-0L0.085,-0L0.085,-0.7L0.168,-0.7L0.168,-0.074L0.499,-0.074L0.499,-0Z" style="fill-rule:nonzero;"/>
                </g>
                <g transform="matrix(21.7258,0,0,21.7258,753.095,314.999)">
                    <path d="M0.239,-0.278L0.008,-0.7L0.105,-0.7L0.269,-0.394L0.286,-0.333L0.287,-0.333L0.305,-0.396L0.462,-0.7L0.551,-0.7L0.322,-0.279L0.322,-0L0.239,-0L0.239,-0.278Z" style="fill-rule:nonzero;"/>
                </g>
                <g transform="matrix(21.7258,0,0,21.7258,765.218,314.999)">
                    <path d="M0.321,-0.349L0.556,-0.349L0.556,-0.041C0.545,-0.033 0.533,-0.026 0.518,-0.019C0.502,-0.012 0.487,-0.007 0.47,-0.002C0.452,0.003 0.435,0.006 0.417,0.009C0.398,0.011 0.38,0.012 0.363,0.012C0.318,0.012 0.277,0.005 0.24,-0.01C0.203,-0.024 0.17,-0.046 0.143,-0.076C0.116,-0.105 0.094,-0.143 0.079,-0.189C0.064,-0.234 0.056,-0.288 0.056,-0.35C0.056,-0.415 0.065,-0.47 0.084,-0.516C0.103,-0.562 0.127,-0.6 0.157,-0.629C0.187,-0.658 0.221,-0.679 0.258,-0.692C0.295,-0.705 0.333,-0.712 0.37,-0.712C0.41,-0.712 0.443,-0.71 0.469,-0.706C0.495,-0.701 0.517,-0.695 0.535,-0.688L0.514,-0.615C0.482,-0.63 0.436,-0.638 0.377,-0.638C0.349,-0.638 0.321,-0.633 0.294,-0.624C0.266,-0.614 0.241,-0.598 0.219,-0.575C0.197,-0.552 0.179,-0.523 0.165,-0.486C0.151,-0.449 0.144,-0.404 0.144,-0.35C0.144,-0.301 0.15,-0.258 0.161,-0.222C0.172,-0.186 0.188,-0.156 0.209,-0.133C0.229,-0.109 0.253,-0.091 0.282,-0.08C0.311,-0.068 0.342,-0.062 0.376,-0.062C0.419,-0.062 0.455,-0.07 0.485,-0.087L0.485,-0.282L0.321,-0.302L0.321,-0.349Z" style="fill-rule:nonzero;"/>
                </g>
                <g transform="matrix(21.7258,0,0,21.7258,778.514,314.999)">
                    <path d="M0.056,-0.35C0.056,-0.467 0.081,-0.556 0.13,-0.619C0.179,-0.681 0.25,-0.712 0.341,-0.712C0.39,-0.712 0.433,-0.703 0.469,-0.686C0.505,-0.669 0.535,-0.644 0.559,-0.613C0.582,-0.581 0.6,-0.543 0.611,-0.499C0.622,-0.454 0.628,-0.405 0.628,-0.35C0.628,-0.233 0.603,-0.144 0.554,-0.082C0.504,-0.019 0.433,0.012 0.341,0.012C0.292,0.012 0.25,0.003 0.215,-0.014C0.179,-0.031 0.149,-0.056 0.126,-0.088C0.102,-0.119 0.084,-0.157 0.073,-0.202C0.062,-0.246 0.056,-0.295 0.056,-0.35ZM0.144,-0.35C0.144,-0.311 0.148,-0.275 0.156,-0.24C0.163,-0.205 0.175,-0.175 0.191,-0.149C0.207,-0.122 0.228,-0.101 0.253,-0.086C0.278,-0.07 0.307,-0.062 0.341,-0.062C0.403,-0.062 0.452,-0.086 0.487,-0.133C0.522,-0.18 0.54,-0.252 0.54,-0.35C0.54,-0.388 0.536,-0.425 0.529,-0.46C0.521,-0.495 0.509,-0.525 0.493,-0.552C0.476,-0.578 0.456,-0.599 0.431,-0.615C0.405,-0.63 0.376,-0.638 0.341,-0.638C0.28,-0.638 0.232,-0.615 0.197,-0.568C0.162,-0.521 0.144,-0.448 0.144,-0.35Z" style="fill-rule:nonzero;"/>
                </g>
                <g transform="matrix(21.7258,0,0,21.7258,793.375,314.999)">
                    <path d="M0.211,-0.458L0.157,-0.559L0.153,-0.559L0.163,-0.458L0.163,-0L0.085,-0L0.085,-0.711L0.129,-0.711L0.464,-0.244L0.516,-0.148L0.521,-0.148L0.51,-0.244L0.51,-0.7L0.588,-0.7L0.588,0.011L0.544,0.011L0.211,-0.458Z" style="fill-rule:nonzero;"/>
                </g>
            </g>
            <g transform="matrix(1.90554,0,0,1.90554,-2192.93,719.422)">
                <g transform="matrix(21.7258,0,0,21.7258,711.515,314.999)">
                    <path d="M0.623,-0.47L0.633,-0.575L0.628,-0.575L0.59,-0.479L0.408,-0.163L0.383,-0.163L0.19,-0.48L0.154,-0.575L0.149,-0.575L0.163,-0.471L0.163,-0L0.085,-0L0.085,-0.7L0.147,-0.7L0.366,-0.342L0.399,-0.264L0.401,-0.264L0.432,-0.344L0.641,-0.7L0.706,-0.7L0.706,-0L0.623,-0L0.623,-0.47Z" style="fill-rule:nonzero;"/>
                </g>
                <g transform="matrix(21.7258,0,0,21.7258,728.7,314.999)">
                    <path d="M0.487,-0.7L0.567,-0.7L0.567,-0.233C0.567,-0.191 0.562,-0.155 0.551,-0.124C0.54,-0.093 0.524,-0.068 0.504,-0.049C0.483,-0.029 0.459,-0.014 0.43,-0.005C0.401,0.004 0.37,0.009 0.335,0.009C0.252,0.009 0.19,-0.01 0.148,-0.047C0.106,-0.084 0.085,-0.141 0.085,-0.217L0.085,-0.7L0.168,-0.7L0.168,-0.256C0.168,-0.221 0.171,-0.191 0.179,-0.167C0.186,-0.142 0.196,-0.123 0.21,-0.108C0.224,-0.093 0.242,-0.082 0.263,-0.075C0.284,-0.068 0.308,-0.065 0.336,-0.065C0.39,-0.065 0.429,-0.08 0.452,-0.11C0.475,-0.139 0.487,-0.188 0.487,-0.256L0.487,-0.7Z" style="fill-rule:nonzero;"/>
                </g>
                <g transform="matrix(21.7258,0,0,21.7258,742.866,314.999)">
                    <path d="M0.499,-0L0.085,-0L0.085,-0.7L0.168,-0.7L0.168,-0.074L0.499,-0.074L0.499,-0Z" style="fill-rule:nonzero;"/>
                </g>
                <g transform="matrix(21.7258,0,0,21.7258,751.447,314.999)">
                    <path d="M0.537,-0.626L0.319,-0.626L0.319,-0L0.236,-0L0.236,-0.626L0.018,-0.626L0.018,-0.7L0.537,-0.7L0.537,-0.626Z" style="fill-rule:nonzero;"/>
                </g>
                <g transform="matrix(21.7258,0,0,21.7258,763.505,314.999)">
                    <rect x="0.104" y="-0.7" width="0.083" height="0.7" style="fill-rule:nonzero;"/>
                </g>
                <g transform="matrix(21.7258,0,0,21.7258,769.827,314.999)">
                    <path d="M0.085,-0.693C0.11,-0.699 0.138,-0.703 0.167,-0.705C0.196,-0.707 0.225,-0.708 0.254,-0.708C0.285,-0.708 0.316,-0.705 0.348,-0.699C0.379,-0.693 0.408,-0.682 0.434,-0.666C0.46,-0.65 0.481,-0.628 0.498,-0.6C0.514,-0.572 0.522,-0.536 0.522,-0.493C0.522,-0.45 0.514,-0.414 0.499,-0.385C0.484,-0.356 0.463,-0.332 0.438,-0.314C0.413,-0.295 0.384,-0.282 0.351,-0.274C0.318,-0.266 0.285,-0.262 0.25,-0.262L0.234,-0.262C0.226,-0.262 0.218,-0.262 0.21,-0.263C0.201,-0.263 0.193,-0.263 0.185,-0.264C0.177,-0.265 0.171,-0.265 0.168,-0.266L0.168,-0L0.085,-0L0.085,-0.693ZM0.256,-0.636C0.239,-0.636 0.222,-0.636 0.206,-0.635C0.19,-0.634 0.177,-0.633 0.168,-0.63L0.168,-0.34C0.171,-0.339 0.177,-0.338 0.184,-0.338C0.191,-0.337 0.199,-0.337 0.207,-0.337C0.215,-0.336 0.223,-0.336 0.23,-0.336L0.246,-0.336C0.269,-0.336 0.291,-0.338 0.314,-0.343C0.336,-0.347 0.356,-0.355 0.374,-0.366C0.392,-0.377 0.407,-0.393 0.418,-0.414C0.428,-0.435 0.434,-0.461 0.434,-0.493C0.434,-0.52 0.429,-0.543 0.419,-0.562C0.408,-0.58 0.395,-0.595 0.378,-0.606C0.361,-0.616 0.341,-0.624 0.32,-0.629C0.299,-0.634 0.277,-0.636 0.256,-0.636Z" style="fill-rule:nonzero;"/>
                </g>
                <g transform="matrix(21.7258,0,0,21.7258,781.972,314.999)">
                    <path d="M0.056,-0.35C0.056,-0.467 0.081,-0.556 0.13,-0.619C0.179,-0.681 0.25,-0.712 0.341,-0.712C0.39,-0.712 0.433,-0.703 0.469,-0.686C0.505,-0.669 0.535,-0.644 0.559,-0.613C0.582,-0.581 0.6,-0.543 0.611,-0.499C0.622,-0.454 0.628,-0.405 0.628,-0.35C0.628,-0.233 0.603,-0.144 0.554,-0.082C0.504,-0.019 0.433,0.012 0.341,0.012C0.292,0.012 0.25,0.003 0.215,-0.014C0.179,-0.031 0.149,-0.056 0.126,-0.088C0.102,-0.119 0.084,-0.157 0.073,-0.202C0.062,-0.246 0.056,-0.295 0.056,-0.35ZM0.144,-0.35C0.144,-0.311 0.148,-0.275 0.156,-0.24C0.163,-0.205 0.175,-0.175 0.191,-0.149C0.207,-0.122 0.228,-0.101 0.253,-0.086C0.278,-0.07 0.307,-0.062 0.341,-0.062C0.403,-0.062 0.452,-0.086 0.487,-0.133C0.522,-0.18 0.54,-0.252 0.54,-0.35C0.54,-0.388 0.536,-0.425 0.529,-0.46C0.521,-0.495 0.509,-0.525 0.493,-0.552C0.476,-0.578 0.456,-0.599 0.431,-0.615C0.405,-0.63 0.376,-0.638 0.341,-0.638C0.28,-0.638 0.232,-0.615 0.197,-0.568C0.162,-0.521 0.144,-0.448 0.144,-0.35Z" style="fill-rule:nonzero;"/>
                </g>
                <g transform="matrix(21.7258,0,0,21.7258,796.833,314.999)">
                    <path d="M0.499,-0L0.085,-0L0.085,-0.7L0.168,-0.7L0.168,-0.074L0.499,-0.074L0.499,-0Z" style="fill-rule:nonzero;"/>
                </g>
                <g transform="matrix(21.7258,0,0,21.7258,805.784,314.999)">
                    <path d="M0.239,-0.278L0.008,-0.7L0.105,-0.7L0.269,-0.394L0.286,-0.333L0.287,-0.333L0.305,-0.396L0.462,-0.7L0.551,-0.7L0.322,-0.279L0.322,-0L0.239,-0L0.239,-0.278Z" style="fill-rule:nonzero;"/>
                </g>
                <g transform="matrix(21.7258,0,0,21.7258,817.907,314.999)">
                    <path d="M0.321,-0.349L0.556,-0.349L0.556,-0.041C0.545,-0.033 0.533,-0.026 0.518,-0.019C0.502,-0.012 0.487,-0.007 0.47,-0.002C0.452,0.003 0.435,0.006 0.417,0.009C0.398,0.011 0.38,0.012 0.363,0.012C0.318,0.012 0.277,0.005 0.24,-0.01C0.203,-0.024 0.17,-0.046 0.143,-0.076C0.116,-0.105 0.094,-0.143 0.079,-0.189C0.064,-0.234 0.056,-0.288 0.056,-0.35C0.056,-0.415 0.065,-0.47 0.084,-0.516C0.103,-0.562 0.127,-0.6 0.157,-0.629C0.187,-0.658 0.221,-0.679 0.258,-0.692C0.295,-0.705 0.333,-0.712 0.37,-0.712C0.41,-0.712 0.443,-0.71 0.469,-0.706C0.495,-0.701 0.517,-0.695 0.535,-0.688L0.514,-0.615C0.482,-0.63 0.436,-0.638 0.377,-0.638C0.349,-0.638 0.321,-0.633 0.294,-0.624C0.266,-0.614 0.241,-0.598 0.219,-0.575C0.197,-0.552 0.179,-0.523 0.165,-0.486C0.151,-0.449 0.144,-0.404 0.144,-0.35C0.144,-0.301 0.15,-0.258 0.161,-0.222C0.172,-0.186 0.188,-0.156 0.209,-0.133C0.229,-0.109 0.253,-0.091 0.282,-0.08C0.311,-0.068 0.342,-0.062 0.376,-0.062C0.419,-0.062 0.455,-0.07 0.485,-0.087L0.485,-0.282L0.321,-0.302L0.321,-0.349Z" style="fill-rule:nonzero;"/>
                </g>
                <g transform="matrix(21.7258,0,0,21.7258,831.203,314.999)">
                    <path d="M0.056,-0.35C0.056,-0.467 0.081,-0.556 0.13,-0.619C0.179,-0.681 0.25,-0.712 0.341,-0.712C0.39,-0.712 0.433,-0.703 0.469,-0.686C0.505,-0.669 0.535,-0.644 0.559,-0.613C0.582,-0.581 0.6,-0.543 0.611,-0.499C0.622,-0.454 0.628,-0.405 0.628,-0.35C0.628,-0.233 0.603,-0.144 0.554,-0.082C0.504,-0.019 0.433,0.012 0.341,0.012C0.292,0.012 0.25,0.003 0.215,-0.014C0.179,-0.031 0.149,-0.056 0.126,-0.088C0.102,-0.119 0.084,-0.157 0.073,-0.202C0.062,-0.246 0.056,-0.295 0.056,-0.35ZM0.144,-0.35C0.144,-0.311 0.148,-0.275 0.156,-0.24C0.163,-0.205 0.175,-0.175 0.191,-0.149C0.207,-0.122 0.228,-0.101 0.253,-0.086C0.278,-0.07 0.307,-0.062 0.341,-0.062C0.403,-0.062 0.452,-0.086 0.487,-0.133C0.522,-0.18 0.54,-0.252 0.54,-0.35C0.54,-0.388 0.536,-0.425 0.529,-0.46C0.521,-0.495 0.509,-0.525 0.493,-0.552C0.476,-0.578 0.456,-0.599 0.431,-0.615C0.405,-0.63 0.376,-0.638 0.341,-0.638C0.28,-0.638 0.232,-0.615 0.197,-0.568C0.162,-0.521 0.144,-0.448 0.144,-0.35Z" style="fill-rule:nonzero;"/>
                </g>
                <g transform="matrix(21.7258,0,0,21.7258,846.063,314.999)">
                    <path d="M0.211,-0.458L0.157,-0.559L0.153,-0.559L0.163,-0.458L0.163,-0L0.085,-0L0.085,-0.711L0.129,-0.711L0.464,-0.244L0.516,-0.148L0.521,-0.148L0.51,-0.244L0.51,-0.7L0.588,-0.7L0.588,0.011L0.544,0.011L0.211,-0.458Z" style="fill-rule:nonzero;"/>
                </g>
            </g>
            <g transform="matrix(0.862489,0,0,0.862489,-1954.47,646.523)">
                <path d="M882.144,576.74L930.341,499.911L1037.77,466.135L1098.36,536.828L1198.19,546.773L1251.58,473.589" style="fill:none;stroke:black;stroke-width:6.96px;"/>
            </g>
            <g transform="matrix(0.862489,0,0,0.862489,-1951.47,993.712)">
                <path d="M882.144,576.74L930.341,499.911L1037.77,466.135" style="fill:none;stroke:black;stroke-width:6.96px;"/>
            </g>
            <g transform="matrix(0.862489,0,0,0.862489,-1951.47,993.712)">
                <path d="M1098.36,536.828L1198.19,546.773L1251.58,473.589" style="fill:none;stroke:black;stroke-width:6.96px;"/>
            </g>
            <g transform="matrix(0.862489,0,0,0.862489,-1136.21,748.249)">
                <circle cx="817.043" cy="446.457" r="20.095"/>
            </g>
            <g transform="matrix(0.862489,0,0,0.862489,-1012.88,823.357)">
                <circle cx="817.043" cy="446.457" r="20.095"/>
            </g>
            <g transform="matrix(0.861928,0.0311057,-0.0311057,0.861928,-1182.87,933.996)">
                <circle cx="817.043" cy="446.457" r="20.095"/>
            </g>
            <g transform="matrix(0.733582,-0.453592,0.453592,0.733582,-1637.53,1647.17)">
                <path d="M1369.75,456.425L1406.01,384.901L1538.06,424.224L1538.06,533.335L1369.75,456.425Z" style="fill:rgb(194,194,194);stroke:black;stroke-width:6.96px;"/>
            </g>
            <g transform="matrix(1.90554,-1.31517e-17,0,1.90554,-1849.74,438.155)">
                <g transform="matrix(21.7258,0,0,21.7258,710.936,316.637)">
                    <path d="M0.629,-0.033C0.603,-0.023 0.568,-0.013 0.525,-0.003C0.482,0.007 0.432,0.012 0.375,0.012C0.278,0.012 0.202,-0.025 0.147,-0.1C0.091,-0.175 0.063,-0.271 0.063,-0.389C0.063,-0.499 0.091,-0.592 0.145,-0.669C0.199,-0.747 0.276,-0.785 0.375,-0.785C0.43,-0.785 0.472,-0.779 0.503,-0.767C0.533,-0.754 0.565,-0.732 0.6,-0.699L0.547,-0.644C0.522,-0.668 0.497,-0.686 0.472,-0.698C0.447,-0.709 0.414,-0.715 0.373,-0.715C0.306,-0.715 0.252,-0.684 0.212,-0.622C0.171,-0.56 0.151,-0.487 0.151,-0.402C0.151,-0.291 0.174,-0.206 0.219,-0.147C0.265,-0.088 0.32,-0.058 0.384,-0.058C0.414,-0.058 0.442,-0.06 0.47,-0.065C0.499,-0.069 0.524,-0.075 0.546,-0.082L0.546,-0.368L0.629,-0.368L0.629,-0.033Z" style="fill-rule:nonzero;"/>
                </g>
                <g transform="matrix(21.7258,0,0,21.7258,725.342,316.637)">
                    <path d="M0.482,-0.698L0.156,-0.698L0.156,-0.437L0.416,-0.437L0.416,-0.373L0.156,-0.373L0.156,-0.067L0.497,-0.067L0.497,-0L0.073,-0L0.073,-0.765L0.482,-0.765L0.482,-0.698Z" style="fill-rule:nonzero;"/>
                </g>
                <g transform="matrix(21.7258,0,0,21.7258,737.085,316.637)">
                    <path d="M0.405,-0.058C0.469,-0.058 0.526,-0.087 0.576,-0.146C0.626,-0.205 0.651,-0.291 0.651,-0.405C0.651,-0.478 0.632,-0.548 0.592,-0.615C0.553,-0.681 0.492,-0.715 0.409,-0.715C0.329,-0.715 0.266,-0.685 0.22,-0.625C0.174,-0.566 0.151,-0.489 0.151,-0.397C0.151,-0.288 0.175,-0.205 0.224,-0.146C0.272,-0.087 0.332,-0.058 0.405,-0.058ZM0.401,0.012C0.293,0.012 0.21,-0.025 0.151,-0.1C0.093,-0.175 0.063,-0.274 0.063,-0.397C0.063,-0.509 0.096,-0.601 0.162,-0.675C0.228,-0.748 0.31,-0.785 0.407,-0.785C0.513,-0.785 0.594,-0.748 0.652,-0.675C0.71,-0.601 0.739,-0.504 0.739,-0.383C0.739,-0.271 0.707,-0.177 0.643,-0.101C0.579,-0.026 0.498,0.012 0.401,0.012Z" style="fill-rule:nonzero;"/>
                </g>
                <g transform="matrix(21.7258,0,0,21.7258,754.525,316.637)">
                    <path d="M0.427,-0L0.351,-0L0.157,-0.577L0.157,-0L0.074,-0L0.074,-0.765L0.16,-0.765L0.389,-0.085L0.615,-0.765L0.701,-0.765L0.701,-0L0.618,-0L0.618,-0.577L0.427,-0Z" style="fill-rule:nonzero;"/>
                </g>
                <g transform="matrix(21.7258,0,0,21.7258,771.371,316.637)">
                    <path d="M0.482,-0.698L0.156,-0.698L0.156,-0.437L0.416,-0.437L0.416,-0.373L0.156,-0.373L0.156,-0.067L0.497,-0.067L0.497,-0L0.073,-0L0.073,-0.765L0.482,-0.765L0.482,-0.698Z" style="fill-rule:nonzero;"/>
                </g>
                <g transform="matrix(21.7258,0,0,21.7258,783.115,316.637)">
                    <path d="M0.573,-0.695L0.335,-0.695L0.335,-0L0.252,-0L0.252,-0.695L0.016,-0.695L0.016,-0.765L0.573,-0.765L0.573,-0.695Z" style="fill-rule:nonzero;"/>
                </g>
                <g transform="matrix(21.7258,0,0,21.7258,795.908,316.637)">
                    <path d="M0.156,-0.389L0.236,-0.389C0.301,-0.389 0.352,-0.404 0.387,-0.434C0.423,-0.463 0.441,-0.501 0.441,-0.548C0.441,-0.601 0.426,-0.64 0.396,-0.664C0.366,-0.687 0.317,-0.699 0.249,-0.699L0.156,-0.699L0.156,-0.389ZM0.156,-0L0.073,-0L0.073,-0.765L0.281,-0.765C0.362,-0.765 0.423,-0.746 0.464,-0.708C0.506,-0.67 0.526,-0.616 0.526,-0.546C0.526,-0.5 0.51,-0.458 0.479,-0.419C0.447,-0.381 0.41,-0.356 0.368,-0.344L0.582,-0L0.483,-0L0.286,-0.328C0.281,-0.327 0.238,-0.327 0.156,-0.326L0.156,-0Z" style="fill-rule:nonzero;"/>
                </g>
                <g transform="matrix(21.7258,0,0,21.7258,808.766,316.637)">
                    <path d="M0.248,-0L0.248,-0.349L0.023,-0.765L0.113,-0.765L0.291,-0.421L0.469,-0.765L0.559,-0.765L0.332,-0.357L0.332,-0L0.248,-0Z" style="fill-rule:nonzero;"/>
                </g>
                <g transform="matrix(21.7258,0,0,21.7258,700.821,339.254)">
                    <path d="M0.627,-0.11C0.602,-0.076 0.57,-0.046 0.533,-0.023C0.497,0 0.444,0.012 0.377,0.012C0.281,0.012 0.205,-0.025 0.148,-0.1C0.092,-0.175 0.063,-0.271 0.063,-0.389C0.063,-0.499 0.091,-0.592 0.145,-0.669C0.199,-0.747 0.28,-0.785 0.386,-0.785C0.43,-0.785 0.469,-0.779 0.503,-0.767C0.537,-0.754 0.569,-0.732 0.6,-0.699L0.547,-0.644C0.525,-0.667 0.499,-0.685 0.472,-0.697C0.444,-0.709 0.414,-0.715 0.381,-0.715C0.309,-0.715 0.252,-0.684 0.212,-0.622C0.171,-0.56 0.151,-0.487 0.151,-0.402C0.151,-0.291 0.174,-0.206 0.219,-0.147C0.265,-0.088 0.317,-0.058 0.375,-0.058C0.431,-0.058 0.472,-0.067 0.498,-0.084C0.523,-0.102 0.546,-0.126 0.567,-0.155L0.627,-0.11Z" style="fill-rule:nonzero;"/>
                </g>
                <g transform="matrix(21.7258,0,0,21.7258,715.227,339.254)">
                    <path d="M0.405,-0.058C0.469,-0.058 0.526,-0.087 0.576,-0.146C0.626,-0.205 0.651,-0.291 0.651,-0.405C0.651,-0.478 0.632,-0.548 0.592,-0.615C0.553,-0.681 0.492,-0.715 0.409,-0.715C0.329,-0.715 0.266,-0.685 0.22,-0.625C0.174,-0.566 0.151,-0.489 0.151,-0.397C0.151,-0.288 0.175,-0.205 0.224,-0.146C0.272,-0.087 0.332,-0.058 0.405,-0.058ZM0.401,0.012C0.293,0.012 0.21,-0.025 0.151,-0.1C0.093,-0.175 0.063,-0.274 0.063,-0.397C0.063,-0.509 0.096,-0.601 0.162,-0.675C0.228,-0.748 0.31,-0.785 0.407,-0.785C0.513,-0.785 0.594,-0.748 0.652,-0.675C0.71,-0.601 0.739,-0.504 0.739,-0.383C0.739,-0.271 0.707,-0.177 0.643,-0.101C0.579,-0.026 0.498,0.012 0.401,0.012Z" style="fill-rule:nonzero;"/>
                </g>
                <g transform="matrix(21.7258,0,0,21.7258,732.667,339.254)">
                    <path d="M0.501,-0L0.073,-0L0.073,-0.765L0.156,-0.765L0.156,-0.067L0.501,-0.067L0.501,-0Z" style="fill-rule:nonzero;"/>
                </g>
                <g transform="matrix(21.7258,0,0,21.7258,743.89,339.254)">
                    <path d="M0.501,-0L0.073,-0L0.073,-0.765L0.156,-0.765L0.156,-0.067L0.501,-0.067L0.501,-0Z" style="fill-rule:nonzero;"/>
                </g>
                <g transform="matrix(21.7258,0,0,21.7258,755.114,339.254)">
                    <path d="M0.482,-0.698L0.156,-0.698L0.156,-0.437L0.416,-0.437L0.416,-0.373L0.156,-0.373L0.156,-0.067L0.497,-0.067L0.497,-0L0.073,-0L0.073,-0.765L0.482,-0.765L0.482,-0.698Z" style="fill-rule:nonzero;"/>
                </g>
                <g transform="matrix(21.7258,0,0,21.7258,766.857,339.254)">
                    <path d="M0.627,-0.11C0.602,-0.076 0.57,-0.046 0.533,-0.023C0.497,0 0.444,0.012 0.377,0.012C0.281,0.012 0.205,-0.025 0.148,-0.1C0.092,-0.175 0.063,-0.271 0.063,-0.389C0.063,-0.499 0.091,-0.592 0.145,-0.669C0.199,-0.747 0.28,-0.785 0.386,-0.785C0.43,-0.785 0.469,-0.779 0.503,-0.767C0.537,-0.754 0.569,-0.732 0.6,-0.699L0.547,-0.644C0.525,-0.667 0.499,-0.685 0.472,-0.697C0.444,-0.709 0.414,-0.715 0.381,-0.715C0.309,-0.715 0.252,-0.684 0.212,-0.622C0.171,-0.56 0.151,-0.487 0.151,-0.402C0.151,-0.291 0.174,-0.206 0.219,-0.147C0.265,-0.088 0.317,-0.058 0.375,-0.058C0.431,-0.058 0.472,-0.067 0.498,-0.084C0.523,-0.102 0.546,-0.126 0.567,-0.155L0.627,-0.11Z" style="fill-rule:nonzero;"/>
                </g>
                <g transform="matrix(21.7258,0,0,21.7258,781.264,339.254)">
                    <path d="M0.573,-0.695L0.335,-0.695L0.335,-0L0.252,-0L0.252,-0.695L0.016,-0.695L0.016,-0.765L0.573,-0.765L0.573,-0.695Z" style="fill-rule:nonzero;"/>
                </g>
                <g transform="matrix(21.7258,0,0,21.7258,794.057,339.254)">
                    <rect x="0.073" y="-0.765" width="0.083" height="0.765" style="fill-rule:nonzero;"/>
                </g>
                <g transform="matrix(21.7258,0,0,21.7258,799.043,339.254)">
                    <path d="M0.405,-0.058C0.469,-0.058 0.526,-0.087 0.576,-0.146C0.626,-0.205 0.651,-0.291 0.651,-0.405C0.651,-0.478 0.632,-0.548 0.592,-0.615C0.553,-0.681 0.492,-0.715 0.409,-0.715C0.329,-0.715 0.266,-0.685 0.22,-0.625C0.174,-0.566 0.151,-0.489 0.151,-0.397C0.151,-0.288 0.175,-0.205 0.224,-0.146C0.272,-0.087 0.332,-0.058 0.405,-0.058ZM0.401,0.012C0.293,0.012 0.21,-0.025 0.151,-0.1C0.093,-0.175 0.063,-0.274 0.063,-0.397C0.063,-0.509 0.096,-0.601 0.162,-0.675C0.228,-0.748 0.31,-0.785 0.407,-0.785C0.513,-0.785 0.594,-0.748 0.652,-0.675C0.71,-0.601 0.739,-0.504 0.739,-0.383C0.739,-0.271 0.707,-0.177 0.643,-0.101C0.579,-0.026 0.498,0.012 0.401,0.012Z" style="fill-rule:nonzero;"/>
                </g>
                <g transform="matrix(21.7258,0,0,21.7258,816.483,339.254)">
                    <path d="M0.156,-0.628L0.156,-0L0.073,-0L0.073,-0.765L0.156,-0.765L0.536,-0.134L0.536,-0.765L0.619,-0.765L0.619,-0L0.54,-0L0.156,-0.628Z" style="fill-rule:nonzero;"/>
                </g>
            </g>
            <g transform="matrix(0.862489,0,0,0.862489,-1203.25,748.686)">
                <path d="M882.144,576.74L930.341,499.911L1037.77,466.135" style="fill:none;stroke:black;stroke-width:6.96px;"/>
            </g>
            <g transform="matrix(-0.746938,-0.431245,0.431245,-0.746938,60.6413,2205.13)">
                <path d="M882.144,576.74L944.266,464.484L1037.77,466.135" style="fill:none;stroke:black;stroke-width:6.96px;"/>
            </g>
        </g>
    </g>
</svg>
