<?xml version="1.0" encoding="UTF-8" standalone="no"?>
<!DOCTYPE svg PUBLIC "-//W3C//DTD SVG 1.1//EN" "http://www.w3.org/Graphics/SVG/1.1/DTD/svg11.dtd">
<svg width="100%" height="100%" viewBox="0 0 1465 996" version="1.1" xmlns="http://www.w3.org/2000/svg" xmlns:xlink="http://www.w3.org/1999/xlink" xml:space="preserve" xmlns:serif="http://www.serif.com/" style="fill-rule:evenodd;clip-rule:evenodd;stroke-linecap:square;stroke-linejoin:round;stroke-miterlimit:10;">
    <g transform="matrix(1,0,0,1,-6949,-7037)">
        <rect id="DEM" x="4792" y="6066" width="3956" height="1997" style="fill:none;"/>
        <g id="DEM1" serif:id="DEM">
            <g>
                <path d="M7893.65,7165.5L8012.22,7165.5L7931.93,7280L7809.71,7355.33L7725.78,7369L7725.78,7287L7809.71,7268.21L7893.65,7165.5Z" style="fill:rgb(249,185,45);stroke:black;stroke-width:4px;"/>
                <path d="M7725.78,7492.86L7838.1,7443.37L7931.93,7369L8061.53,7165.5L8012.22,7165.5L7931.93,7280L7807,7357L7725.78,7369L7725.78,7492.86Z" style="fill:rgb(244,251,46);stroke:black;stroke-width:4px;"/>
                <path d="M7725.78,7568L7725.78,7492.86L7838.1,7443.37L7931.93,7369L8061.53,7165.5L8104,7165.5L8012.22,7369L7893.65,7476.36L7725.78,7568Z" style="fill:rgb(144,250,46);stroke:black;stroke-width:4px;"/>
                <path d="M7725.78,7287L7814,7267.25L7893.65,7165.5L7725.78,7165.5L7725.78,7287Z" style="fill:rgb(255,11,11);stroke:black;stroke-width:4px;"/>
                <path d="M7725.78,7728L7971.39,7564L8045.22,7554L8082,7630L8028.72,7709L7986,7837L7725.78,7837L7725.78,7728Z" style="fill:rgb(249,185,45);stroke:black;stroke-width:4px;"/>
                <path d="M8061.53,7837L8124,7651L8122,7520L8139,7369L8274,7165.5L8397.27,7165.5L8397.27,7406L8316,7582L8233,7755L8217,7837L8061.53,7837Z" style="fill:rgb(144,250,46);stroke:black;stroke-width:4px;"/>
                <path d="M8217,7837L8397.27,7837L8397.27,7406L8233,7755L8217,7837Z" style="fill:rgb(59,251,225);stroke:black;stroke-width:4px;"/>
                <path d="M8104,7165.5L8274,7165.5L8139,7369L8122,7520L8124,7651L8061.53,7837L7986,7837L8028.72,7709L8082,7630L8045.22,7554L7971.39,7564L7725.78,7728L7725.78,7568L7893.65,7476.36L8013.23,7366.75L8104,7165.5Z" style="fill:rgb(244,251,46);stroke:black;stroke-width:4px;"/>
            </g>
            <g id="white-squares" serif:id="white squares">
            </g>
            <g id="Tracing">
            </g>
            <g id="Stream">
            </g>
            <g id="DOTS">
            </g>
            <g transform="matrix(1,0,0,1,377.809,34)">
                <rect x="6588" y="7131.5" width="671.5" height="671.5" style="fill:white;stroke:black;stroke-width:8px;stroke-linecap:round;"/>
            </g>
            <g transform="matrix(1,0,0,1,1137.77,34)">
                <rect x="6588" y="7131.5" width="671.5" height="671.5" style="fill:none;stroke:black;stroke-width:8px;stroke-linecap:round;"/>
            </g>
            <g transform="matrix(1,0,0,1,2384.8,56.1514)">
                <g transform="matrix(84,0,0,84,5434.5,7059.47)">
                    <path d="M0.06,-0.693C0.088,-0.698 0.119,-0.703 0.153,-0.706C0.186,-0.708 0.22,-0.71 0.253,-0.71C0.288,-0.71 0.323,-0.707 0.358,-0.702C0.393,-0.696 0.424,-0.685 0.452,-0.668C0.48,-0.651 0.503,-0.627 0.521,-0.597C0.538,-0.566 0.547,-0.527 0.547,-0.478C0.547,-0.434 0.539,-0.397 0.524,-0.367C0.509,-0.336 0.488,-0.311 0.463,-0.292C0.438,-0.273 0.409,-0.259 0.377,-0.25C0.344,-0.241 0.311,-0.237 0.276,-0.237L0.26,-0.237C0.253,-0.237 0.245,-0.237 0.237,-0.238C0.229,-0.238 0.221,-0.238 0.214,-0.239C0.206,-0.24 0.2,-0.24 0.197,-0.241L0.197,-0L0.06,-0L0.06,-0.693ZM0.264,-0.592C0.251,-0.592 0.238,-0.592 0.226,-0.591C0.214,-0.59 0.204,-0.588 0.197,-0.587L0.197,-0.36C0.2,-0.359 0.204,-0.359 0.209,-0.358C0.214,-0.357 0.22,-0.357 0.226,-0.357C0.232,-0.356 0.238,-0.356 0.244,-0.356L0.256,-0.356C0.274,-0.356 0.292,-0.358 0.31,-0.361C0.327,-0.364 0.343,-0.371 0.357,-0.38C0.371,-0.389 0.382,-0.401 0.391,-0.417C0.399,-0.433 0.403,-0.454 0.403,-0.48C0.403,-0.502 0.399,-0.52 0.391,-0.535C0.383,-0.549 0.373,-0.56 0.36,-0.569C0.347,-0.578 0.332,-0.584 0.315,-0.587C0.298,-0.59 0.281,-0.592 0.264,-0.592Z" style="fill-rule:nonzero;"/>
                </g>
                <g transform="matrix(84,0,0,84,5482.55,7059.47)">
                    <path d="M0.054,-0.471C0.081,-0.483 0.112,-0.493 0.149,-0.5C0.186,-0.507 0.224,-0.51 0.264,-0.51C0.299,-0.51 0.328,-0.506 0.351,-0.498C0.374,-0.489 0.393,-0.477 0.407,-0.462C0.42,-0.447 0.43,-0.428 0.436,-0.407C0.441,-0.386 0.444,-0.362 0.444,-0.335C0.444,-0.306 0.443,-0.276 0.441,-0.247C0.439,-0.217 0.438,-0.188 0.438,-0.159C0.437,-0.13 0.438,-0.102 0.44,-0.076C0.442,-0.049 0.447,-0.023 0.455,0.001L0.349,0.001L0.328,-0.068L0.323,-0.068C0.31,-0.047 0.291,-0.029 0.268,-0.015C0.244,0 0.213,0.008 0.176,0.008C0.153,0.008 0.132,0.005 0.113,-0.003C0.094,-0.01 0.078,-0.02 0.065,-0.033C0.052,-0.046 0.041,-0.061 0.034,-0.079C0.027,-0.096 0.023,-0.116 0.023,-0.138C0.023,-0.169 0.03,-0.195 0.044,-0.216C0.057,-0.237 0.077,-0.254 0.103,-0.267C0.128,-0.28 0.159,-0.289 0.195,-0.294C0.23,-0.299 0.27,-0.3 0.314,-0.298C0.319,-0.335 0.316,-0.362 0.306,-0.379C0.296,-0.395 0.274,-0.403 0.239,-0.403C0.213,-0.403 0.186,-0.4 0.157,-0.395C0.128,-0.39 0.104,-0.383 0.085,-0.374L0.054,-0.471ZM0.219,-0.099C0.245,-0.099 0.266,-0.105 0.281,-0.117C0.296,-0.128 0.308,-0.141 0.315,-0.154L0.315,-0.219C0.294,-0.221 0.275,-0.221 0.256,-0.22C0.237,-0.219 0.22,-0.216 0.205,-0.211C0.19,-0.206 0.179,-0.2 0.17,-0.191C0.161,-0.182 0.157,-0.171 0.157,-0.158C0.157,-0.139 0.163,-0.125 0.174,-0.115C0.185,-0.104 0.2,-0.099 0.219,-0.099Z" style="fill-rule:nonzero;"/>
                </g>
                <g transform="matrix(84,0,0,84,5524.22,7059.47)">
                    <path d="M0.109,-0.207L0.109,-0.298L0.17,-0.298C0.193,-0.298 0.213,-0.303 0.228,-0.312C0.243,-0.321 0.25,-0.334 0.25,-0.349C0.25,-0.367 0.243,-0.38 0.23,-0.388C0.217,-0.395 0.196,-0.399 0.169,-0.399C0.143,-0.399 0.12,-0.396 0.1,-0.389C0.08,-0.382 0.064,-0.375 0.052,-0.368L0.024,-0.467C0.044,-0.478 0.071,-0.488 0.104,-0.497C0.136,-0.505 0.172,-0.509 0.209,-0.509C0.266,-0.509 0.309,-0.498 0.338,-0.477C0.366,-0.456 0.38,-0.425 0.38,-0.384C0.38,-0.373 0.379,-0.361 0.376,-0.35C0.373,-0.338 0.368,-0.327 0.361,-0.316C0.354,-0.305 0.346,-0.296 0.337,-0.288C0.327,-0.279 0.315,-0.273 0.302,-0.268L0.302,-0.264C0.337,-0.256 0.362,-0.242 0.377,-0.222C0.392,-0.201 0.399,-0.174 0.399,-0.14C0.399,-0.119 0.395,-0.099 0.386,-0.081C0.377,-0.062 0.364,-0.046 0.347,-0.033C0.329,-0.02 0.307,-0.009 0.28,-0.001C0.253,0.007 0.222,0.011 0.185,0.011C0.148,0.011 0.117,0.007 0.09,-0.001C0.063,-0.008 0.04,-0.017 0.022,-0.027L0.05,-0.128C0.065,-0.119 0.084,-0.112 0.106,-0.107C0.127,-0.102 0.151,-0.099 0.178,-0.099C0.239,-0.099 0.269,-0.118 0.269,-0.157C0.269,-0.174 0.261,-0.187 0.246,-0.195C0.23,-0.203 0.201,-0.207 0.158,-0.207L0.109,-0.207Z" style="fill-rule:nonzero;"/>
                </g>
                <g transform="matrix(84,0,0,84,5560.5,7059.47)">
                    <path d="M0.485,-0.229L0.493,-0.333L0.488,-0.333L0.448,-0.247L0.354,-0.092L0.307,-0.092L0.204,-0.247L0.166,-0.333L0.16,-0.333L0.173,-0.23L0.173,-0L0.057,-0L0.057,-0.5L0.192,-0.5L0.307,-0.312L0.335,-0.249L0.339,-0.249L0.368,-0.314L0.474,-0.5L0.61,-0.5L0.61,-0L0.485,-0L0.485,-0.229Z" style="fill-rule:nonzero;"/>
                </g>
                <g transform="matrix(84,0,0,84,5616.45,7059.47)">
                    <path d="M0.457,-0.043C0.437,-0.027 0.41,-0.014 0.376,-0.003C0.341,0.009 0.305,0.014 0.266,0.014C0.185,0.014 0.126,-0.01 0.089,-0.057C0.052,-0.103 0.033,-0.168 0.033,-0.25C0.033,-0.338 0.054,-0.404 0.096,-0.448C0.138,-0.492 0.197,-0.514 0.273,-0.514C0.298,-0.514 0.323,-0.511 0.347,-0.504C0.371,-0.497 0.392,-0.486 0.411,-0.471C0.43,-0.456 0.445,-0.435 0.456,-0.409C0.467,-0.383 0.473,-0.351 0.473,-0.312C0.473,-0.298 0.472,-0.283 0.471,-0.267C0.469,-0.251 0.466,-0.234 0.463,-0.217L0.163,-0.217C0.165,-0.175 0.176,-0.143 0.196,-0.122C0.215,-0.101 0.247,-0.09 0.291,-0.09C0.318,-0.09 0.343,-0.094 0.365,-0.103C0.386,-0.111 0.403,-0.119 0.414,-0.128L0.457,-0.043ZM0.271,-0.41C0.237,-0.41 0.212,-0.4 0.196,-0.38C0.179,-0.359 0.169,-0.332 0.166,-0.298L0.352,-0.298C0.355,-0.334 0.349,-0.362 0.336,-0.381C0.322,-0.4 0.3,-0.41 0.271,-0.41Z" style="fill-rule:nonzero;"/>
                </g>
                <g transform="matrix(84,0,0,84,5659.12,7059.47)">
                    <path d="M0.769,0.13L0.675,0.13L0.66,-0L0.057,-0L0.057,-0.5L0.187,-0.5L0.187,-0.115L0.312,-0.115L0.312,-0.5L0.442,-0.5L0.442,-0.115L0.567,-0.115L0.567,-0.5L0.697,-0.5L0.697,-0.115L0.769,-0.115L0.769,0.13Z" style="fill-rule:nonzero;"/>
                </g>
                <g transform="matrix(84,0,0,84,5724.89,7059.47)">
                    <path d="M0.457,-0.043C0.437,-0.027 0.41,-0.014 0.376,-0.003C0.341,0.009 0.305,0.014 0.266,0.014C0.185,0.014 0.126,-0.01 0.089,-0.057C0.052,-0.103 0.033,-0.168 0.033,-0.25C0.033,-0.338 0.054,-0.404 0.096,-0.448C0.138,-0.492 0.197,-0.514 0.273,-0.514C0.298,-0.514 0.323,-0.511 0.347,-0.504C0.371,-0.497 0.392,-0.486 0.411,-0.471C0.43,-0.456 0.445,-0.435 0.456,-0.409C0.467,-0.383 0.473,-0.351 0.473,-0.312C0.473,-0.298 0.472,-0.283 0.471,-0.267C0.469,-0.251 0.466,-0.234 0.463,-0.217L0.163,-0.217C0.165,-0.175 0.176,-0.143 0.196,-0.122C0.215,-0.101 0.247,-0.09 0.291,-0.09C0.318,-0.09 0.343,-0.094 0.365,-0.103C0.386,-0.111 0.403,-0.119 0.414,-0.128L0.457,-0.043ZM0.271,-0.41C0.237,-0.41 0.212,-0.4 0.196,-0.38C0.179,-0.359 0.169,-0.332 0.166,-0.298L0.352,-0.298C0.355,-0.334 0.349,-0.362 0.336,-0.381C0.322,-0.4 0.3,-0.41 0.271,-0.41Z" style="fill-rule:nonzero;"/>
                </g>
                <g transform="matrix(84,0,0,84,5767.56,7059.47)">
                    <path d="M0.35,-0.196L0.187,-0.196L0.187,-0L0.057,-0L0.057,-0.5L0.187,-0.5L0.187,-0.312L0.35,-0.312L0.35,-0.5L0.48,-0.5L0.48,-0L0.35,-0L0.35,-0.196Z" style="fill-rule:nonzero;"/>
                </g>
                <g transform="matrix(84,0,0,84,5812.67,7059.47)">
                    <path d="M0.358,-0.228L0.363,-0.299L0.36,-0.299L0.317,-0.226L0.139,-0L0.057,-0L0.057,-0.5L0.187,-0.5L0.187,-0.262L0.181,-0.194L0.185,-0.194L0.226,-0.265L0.406,-0.5L0.488,-0.5L0.488,-0L0.358,-0L0.358,-0.228Z" style="fill-rule:nonzero;"/>
                </g>
                <g transform="matrix(84,0,0,84,5858.45,7059.47)">
                    <path d="M0.457,-0.043C0.437,-0.027 0.41,-0.014 0.376,-0.003C0.341,0.009 0.305,0.014 0.266,0.014C0.185,0.014 0.126,-0.01 0.089,-0.057C0.052,-0.103 0.033,-0.168 0.033,-0.25C0.033,-0.338 0.054,-0.404 0.096,-0.448C0.138,-0.492 0.197,-0.514 0.273,-0.514C0.298,-0.514 0.323,-0.511 0.347,-0.504C0.371,-0.497 0.392,-0.486 0.411,-0.471C0.43,-0.456 0.445,-0.435 0.456,-0.409C0.467,-0.383 0.473,-0.351 0.473,-0.312C0.473,-0.298 0.472,-0.283 0.471,-0.267C0.469,-0.251 0.466,-0.234 0.463,-0.217L0.163,-0.217C0.165,-0.175 0.176,-0.143 0.196,-0.122C0.215,-0.101 0.247,-0.09 0.291,-0.09C0.318,-0.09 0.343,-0.094 0.365,-0.103C0.386,-0.111 0.403,-0.119 0.414,-0.128L0.457,-0.043ZM0.271,-0.41C0.237,-0.41 0.212,-0.4 0.196,-0.38C0.179,-0.359 0.169,-0.332 0.166,-0.298L0.352,-0.298C0.355,-0.334 0.349,-0.362 0.336,-0.381C0.322,-0.4 0.3,-0.41 0.271,-0.41Z" style="fill-rule:nonzero;"/>
                </g>
            </g>
            <g transform="matrix(1,0,0,1,1674.73,56.1514)">
                <g transform="matrix(84,0,0,84,5339.5,7059.47)">
                    <path d="M0.467,-0.578L0.197,-0.578L0.197,-0L0.06,-0L0.06,-0.7L0.467,-0.7L0.467,-0.578Z" style="fill-rule:nonzero;"/>
                </g>
                <g transform="matrix(84,0,0,84,5367.98,7059.47)">
                    <path d="M0.457,-0.043C0.437,-0.027 0.41,-0.014 0.376,-0.003C0.341,0.009 0.305,0.014 0.266,0.014C0.185,0.014 0.126,-0.01 0.089,-0.057C0.052,-0.103 0.033,-0.168 0.033,-0.25C0.033,-0.338 0.054,-0.404 0.096,-0.448C0.138,-0.492 0.197,-0.514 0.273,-0.514C0.298,-0.514 0.323,-0.511 0.347,-0.504C0.371,-0.497 0.392,-0.486 0.411,-0.471C0.43,-0.456 0.445,-0.435 0.456,-0.409C0.467,-0.383 0.473,-0.351 0.473,-0.312C0.473,-0.298 0.472,-0.283 0.471,-0.267C0.469,-0.251 0.466,-0.234 0.463,-0.217L0.163,-0.217C0.165,-0.175 0.176,-0.143 0.196,-0.122C0.215,-0.101 0.247,-0.09 0.291,-0.09C0.318,-0.09 0.343,-0.094 0.365,-0.103C0.386,-0.111 0.403,-0.119 0.414,-0.128L0.457,-0.043ZM0.271,-0.41C0.237,-0.41 0.212,-0.4 0.196,-0.38C0.179,-0.359 0.169,-0.332 0.166,-0.298L0.352,-0.298C0.355,-0.334 0.349,-0.362 0.336,-0.381C0.322,-0.4 0.3,-0.41 0.271,-0.41Z" style="fill-rule:nonzero;"/>
                </g>
                <g transform="matrix(84,0,0,84,5410.65,7059.47)">
                    <path d="M0.417,-0.385L0.278,-0.385L0.278,-0L0.144,-0L0.144,-0.385L0.001,-0.385L0.001,-0.5L0.417,-0.5L0.417,-0.385Z" style="fill-rule:nonzero;"/>
                </g>
                <g transform="matrix(84,0,0,84,5445.76,7059.47)">
                    <path d="M0.457,-0.043C0.437,-0.027 0.41,-0.014 0.376,-0.003C0.341,0.009 0.305,0.014 0.266,0.014C0.185,0.014 0.126,-0.01 0.089,-0.057C0.052,-0.103 0.033,-0.168 0.033,-0.25C0.033,-0.338 0.054,-0.404 0.096,-0.448C0.138,-0.492 0.197,-0.514 0.273,-0.514C0.298,-0.514 0.323,-0.511 0.347,-0.504C0.371,-0.497 0.392,-0.486 0.411,-0.471C0.43,-0.456 0.445,-0.435 0.456,-0.409C0.467,-0.383 0.473,-0.351 0.473,-0.312C0.473,-0.298 0.472,-0.283 0.471,-0.267C0.469,-0.251 0.466,-0.234 0.463,-0.217L0.163,-0.217C0.165,-0.175 0.176,-0.143 0.196,-0.122C0.215,-0.101 0.247,-0.09 0.291,-0.09C0.318,-0.09 0.343,-0.094 0.365,-0.103C0.386,-0.111 0.403,-0.119 0.414,-0.128L0.457,-0.043ZM0.271,-0.41C0.237,-0.41 0.212,-0.4 0.196,-0.38C0.179,-0.359 0.169,-0.332 0.166,-0.298L0.352,-0.298C0.355,-0.334 0.349,-0.362 0.336,-0.381C0.322,-0.4 0.3,-0.41 0.271,-0.41Z" style="fill-rule:nonzero;"/>
                </g>
                <g transform="matrix(84,0,0,84,5488.43,7059.47)">
                    <path d="M0.057,-0.5L0.152,-0.5L0.167,-0.44L0.171,-0.44C0.188,-0.465 0.209,-0.484 0.233,-0.496C0.256,-0.508 0.285,-0.514 0.319,-0.514C0.382,-0.514 0.429,-0.494 0.46,-0.455C0.491,-0.415 0.507,-0.351 0.507,-0.263C0.507,-0.22 0.502,-0.182 0.492,-0.148C0.482,-0.113 0.467,-0.084 0.448,-0.06C0.428,-0.036 0.404,-0.018 0.376,-0.005C0.347,0.008 0.315,0.014 0.278,0.014C0.257,0.014 0.24,0.012 0.227,0.01C0.214,0.007 0.2,0.002 0.187,-0.005L0.187,0.2L0.057,0.2L0.057,-0.5ZM0.28,-0.404C0.255,-0.404 0.235,-0.398 0.221,-0.385C0.206,-0.372 0.195,-0.353 0.187,-0.328L0.187,-0.12C0.196,-0.113 0.207,-0.107 0.218,-0.103C0.229,-0.098 0.243,-0.096 0.261,-0.096C0.298,-0.096 0.326,-0.109 0.345,-0.136C0.364,-0.162 0.373,-0.205 0.373,-0.266C0.373,-0.31 0.366,-0.344 0.351,-0.368C0.336,-0.392 0.313,-0.404 0.28,-0.404Z" style="fill-rule:nonzero;"/>
                </g>
                <g transform="matrix(84,0,0,84,5533.79,7059.47)">
                    <path d="M0.033,-0.25C0.033,-0.335 0.054,-0.4 0.095,-0.446C0.136,-0.491 0.194,-0.514 0.269,-0.514C0.309,-0.514 0.344,-0.508 0.373,-0.495C0.402,-0.482 0.427,-0.464 0.446,-0.442C0.465,-0.419 0.48,-0.391 0.49,-0.358C0.499,-0.325 0.504,-0.289 0.504,-0.25C0.504,-0.165 0.484,-0.1 0.443,-0.055C0.401,-0.009 0.344,0.014 0.269,0.014C0.229,0.014 0.194,0.008 0.165,-0.005C0.136,-0.018 0.111,-0.036 0.092,-0.059C0.072,-0.082 0.057,-0.109 0.048,-0.142C0.038,-0.175 0.033,-0.211 0.033,-0.25ZM0.167,-0.25C0.167,-0.228 0.169,-0.208 0.173,-0.189C0.177,-0.17 0.183,-0.154 0.191,-0.14C0.199,-0.126 0.21,-0.115 0.223,-0.108C0.236,-0.1 0.251,-0.096 0.269,-0.096C0.303,-0.096 0.328,-0.108 0.345,-0.133C0.362,-0.158 0.37,-0.197 0.37,-0.25C0.37,-0.296 0.362,-0.333 0.347,-0.362C0.332,-0.39 0.306,-0.404 0.269,-0.404C0.237,-0.404 0.212,-0.392 0.194,-0.368C0.176,-0.344 0.167,-0.305 0.167,-0.25Z" style="fill-rule:nonzero;"/>
                </g>
                <g transform="matrix(84,0,0,84,5578.9,7059.47)">
                    <path d="M0.38,-0.385L0.191,-0.385L0.191,-0L0.057,-0L0.057,-0.5L0.38,-0.5L0.38,-0.385Z" style="fill-rule:nonzero;"/>
                </g>
                <g transform="matrix(84,0,0,84,5610.48,7059.47)">
                    <path d="M0.457,-0.043C0.437,-0.027 0.41,-0.014 0.376,-0.003C0.341,0.009 0.305,0.014 0.266,0.014C0.185,0.014 0.126,-0.01 0.089,-0.057C0.052,-0.103 0.033,-0.168 0.033,-0.25C0.033,-0.338 0.054,-0.404 0.096,-0.448C0.138,-0.492 0.197,-0.514 0.273,-0.514C0.298,-0.514 0.323,-0.511 0.347,-0.504C0.371,-0.497 0.392,-0.486 0.411,-0.471C0.43,-0.456 0.445,-0.435 0.456,-0.409C0.467,-0.383 0.473,-0.351 0.473,-0.312C0.473,-0.298 0.472,-0.283 0.471,-0.267C0.469,-0.251 0.466,-0.234 0.463,-0.217L0.163,-0.217C0.165,-0.175 0.176,-0.143 0.196,-0.122C0.215,-0.101 0.247,-0.09 0.291,-0.09C0.318,-0.09 0.343,-0.094 0.365,-0.103C0.386,-0.111 0.403,-0.119 0.414,-0.128L0.457,-0.043ZM0.271,-0.41C0.237,-0.41 0.212,-0.4 0.196,-0.38C0.179,-0.359 0.169,-0.332 0.166,-0.298L0.352,-0.298C0.355,-0.334 0.349,-0.362 0.336,-0.381C0.322,-0.4 0.3,-0.41 0.271,-0.41Z" style="fill-rule:nonzero;"/>
                </g>
                <g transform="matrix(84,0,0,84,5653.16,7059.47)">
                    <path d="M0.35,-0.196L0.187,-0.196L0.187,-0L0.057,-0L0.057,-0.5L0.187,-0.5L0.187,-0.312L0.35,-0.312L0.35,-0.5L0.48,-0.5L0.48,-0L0.35,-0L0.35,-0.196Z" style="fill-rule:nonzero;"/>
                </g>
                <g transform="matrix(84,0,0,84,5698.26,7059.47)">
                    <path d="M0.35,-0.196L0.187,-0.196L0.187,-0L0.057,-0L0.057,-0.5L0.187,-0.5L0.187,-0.312L0.35,-0.312L0.35,-0.5L0.48,-0.5L0.48,-0L0.35,-0L0.35,-0.196Z" style="fill-rule:nonzero;"/>
                </g>
                <g transform="matrix(84,0,0,84,5743.37,7059.47)">
                    <path d="M0.033,-0.25C0.033,-0.335 0.054,-0.4 0.095,-0.446C0.136,-0.491 0.194,-0.514 0.269,-0.514C0.309,-0.514 0.344,-0.508 0.373,-0.495C0.402,-0.482 0.427,-0.464 0.446,-0.442C0.465,-0.419 0.48,-0.391 0.49,-0.358C0.499,-0.325 0.504,-0.289 0.504,-0.25C0.504,-0.165 0.484,-0.1 0.443,-0.055C0.401,-0.009 0.344,0.014 0.269,0.014C0.229,0.014 0.194,0.008 0.165,-0.005C0.136,-0.018 0.111,-0.036 0.092,-0.059C0.072,-0.082 0.057,-0.109 0.048,-0.142C0.038,-0.175 0.033,-0.211 0.033,-0.25ZM0.167,-0.25C0.167,-0.228 0.169,-0.208 0.173,-0.189C0.177,-0.17 0.183,-0.154 0.191,-0.14C0.199,-0.126 0.21,-0.115 0.223,-0.108C0.236,-0.1 0.251,-0.096 0.269,-0.096C0.303,-0.096 0.328,-0.108 0.345,-0.133C0.362,-0.158 0.37,-0.197 0.37,-0.25C0.37,-0.296 0.362,-0.333 0.347,-0.362C0.332,-0.39 0.306,-0.404 0.269,-0.404C0.237,-0.404 0.212,-0.392 0.194,-0.368C0.176,-0.344 0.167,-0.305 0.167,-0.25Z" style="fill-rule:nonzero;"/>
                </g>
                <g transform="matrix(84,0,0,84,5788.48,7059.47)">
                    <path d="M0.411,-0.031C0.391,-0.016 0.367,-0.005 0.339,0.003C0.31,0.01 0.281,0.014 0.251,0.014C0.211,0.014 0.177,0.008 0.15,-0.005C0.122,-0.018 0.099,-0.036 0.082,-0.059C0.065,-0.082 0.052,-0.109 0.045,-0.142C0.037,-0.175 0.033,-0.211 0.033,-0.25C0.033,-0.335 0.052,-0.4 0.09,-0.446C0.128,-0.491 0.183,-0.514 0.256,-0.514C0.293,-0.514 0.322,-0.511 0.345,-0.505C0.367,-0.499 0.387,-0.491 0.405,-0.482L0.374,-0.376C0.359,-0.383 0.343,-0.389 0.329,-0.393C0.314,-0.397 0.296,-0.399 0.277,-0.399C0.241,-0.399 0.214,-0.387 0.195,-0.364C0.176,-0.34 0.167,-0.302 0.167,-0.25C0.167,-0.229 0.169,-0.209 0.174,-0.191C0.179,-0.173 0.186,-0.157 0.195,-0.144C0.204,-0.131 0.217,-0.12 0.232,-0.113C0.247,-0.105 0.264,-0.101 0.284,-0.101C0.306,-0.101 0.325,-0.104 0.34,-0.11C0.355,-0.115 0.369,-0.122 0.381,-0.13L0.411,-0.031Z" style="fill-rule:nonzero;"/>
                </g>
                <g transform="matrix(84,0,0,84,5824.85,7059.47)">
                    <path d="M0.417,-0.385L0.278,-0.385L0.278,-0L0.144,-0L0.144,-0.385L0.001,-0.385L0.001,-0.5L0.417,-0.5L0.417,-0.385Z" style="fill-rule:nonzero;"/>
                </g>
                <g transform="matrix(84,0,0,84,5859.96,7059.47)">
                    <path d="M0.187,-0.109C0.207,-0.105 0.226,-0.103 0.244,-0.103C0.276,-0.103 0.299,-0.109 0.314,-0.12C0.328,-0.131 0.335,-0.148 0.335,-0.171C0.335,-0.214 0.306,-0.236 0.247,-0.236C0.225,-0.236 0.205,-0.234 0.187,-0.229L0.187,-0.109ZM0.187,-0.322C0.203,-0.325 0.219,-0.327 0.236,-0.328C0.252,-0.329 0.267,-0.329 0.28,-0.329C0.315,-0.329 0.344,-0.325 0.368,-0.318C0.392,-0.31 0.412,-0.299 0.427,-0.285C0.442,-0.271 0.452,-0.255 0.459,-0.236C0.466,-0.217 0.469,-0.196 0.469,-0.174C0.469,-0.113 0.451,-0.068 0.415,-0.038C0.379,-0.008 0.318,0.007 0.232,0.007C0.194,0.007 0.161,0.006 0.134,0.005C0.106,0.004 0.08,0.002 0.057,-0L0.057,-0.5L0.187,-0.5L0.187,-0.322Z" style="fill-rule:nonzero;"/>
                </g>
            </g>
            <g transform="matrix(1,0,0,1,2495.37,872.519)">
                <g transform="matrix(72,0,0,72,5308.67,7059.47)">
                    <path d="M0.056,-0.35C0.056,-0.467 0.081,-0.556 0.13,-0.619C0.179,-0.681 0.25,-0.712 0.341,-0.712C0.39,-0.712 0.433,-0.703 0.469,-0.686C0.505,-0.669 0.535,-0.644 0.559,-0.613C0.582,-0.581 0.6,-0.543 0.611,-0.499C0.622,-0.454 0.628,-0.405 0.628,-0.35C0.628,-0.233 0.603,-0.144 0.554,-0.082C0.504,-0.019 0.433,0.012 0.341,0.012C0.292,0.012 0.25,0.003 0.215,-0.014C0.179,-0.031 0.149,-0.056 0.126,-0.088C0.102,-0.119 0.084,-0.157 0.073,-0.202C0.062,-0.246 0.056,-0.295 0.056,-0.35ZM0.144,-0.35C0.144,-0.311 0.148,-0.275 0.156,-0.24C0.163,-0.205 0.175,-0.175 0.191,-0.149C0.207,-0.122 0.228,-0.101 0.253,-0.086C0.278,-0.07 0.307,-0.062 0.341,-0.062C0.403,-0.062 0.452,-0.086 0.487,-0.133C0.522,-0.18 0.54,-0.252 0.54,-0.35C0.54,-0.388 0.536,-0.425 0.529,-0.46C0.521,-0.495 0.509,-0.525 0.493,-0.552C0.476,-0.578 0.456,-0.599 0.431,-0.615C0.405,-0.63 0.376,-0.638 0.341,-0.638C0.28,-0.638 0.232,-0.615 0.197,-0.568C0.162,-0.521 0.144,-0.448 0.144,-0.35Z" style="fill-rule:nonzero;"/>
                </g>
                <g transform="matrix(72,0,0,72,5357.92,7059.47)">
                    <path d="M0.395,-0.43L0.239,-0.43L0.239,-0L0.159,-0L0.159,-0.43L0.003,-0.43L0.003,-0.5L0.395,-0.5L0.395,-0.43Z" style="fill-rule:nonzero;"/>
                </g>
                <g transform="matrix(72,0,0,72,5405.73,7059.47)">
                    <path d="M0.129,-0.5L0.129,-0.364C0.129,-0.346 0.13,-0.33 0.132,-0.316C0.134,-0.301 0.138,-0.289 0.144,-0.279C0.15,-0.268 0.159,-0.26 0.17,-0.255C0.181,-0.249 0.196,-0.246 0.215,-0.246C0.245,-0.246 0.27,-0.249 0.289,-0.256C0.308,-0.263 0.323,-0.27 0.333,-0.278L0.333,-0.5L0.413,-0.5L0.413,-0L0.333,-0L0.333,-0.21C0.322,-0.203 0.307,-0.196 0.286,-0.188C0.265,-0.18 0.236,-0.176 0.199,-0.176C0.174,-0.176 0.153,-0.179 0.134,-0.184C0.115,-0.189 0.1,-0.199 0.087,-0.212C0.074,-0.225 0.065,-0.243 0.059,-0.265C0.052,-0.287 0.049,-0.315 0.049,-0.348L0.049,-0.5L0.129,-0.5Z" style="fill-rule:nonzero;"/>
                </g>
                <g transform="matrix(72,0,0,72,5441.01,7059.47)">
                    <path d="M0.442,-0.04C0.422,-0.024 0.397,-0.011 0.367,-0.002C0.336,0.007 0.304,0.012 0.27,0.012C0.232,0.012 0.199,0.006 0.171,-0.007C0.143,-0.019 0.12,-0.037 0.102,-0.06C0.084,-0.083 0.071,-0.11 0.062,-0.142C0.053,-0.174 0.049,-0.21 0.049,-0.25C0.049,-0.335 0.068,-0.4 0.106,-0.445C0.144,-0.49 0.198,-0.512 0.269,-0.512C0.292,-0.512 0.314,-0.51 0.337,-0.505C0.36,-0.5 0.38,-0.49 0.398,-0.476C0.416,-0.462 0.431,-0.442 0.442,-0.417C0.453,-0.391 0.459,-0.357 0.459,-0.315C0.459,-0.293 0.457,-0.269 0.453,-0.242L0.132,-0.242C0.132,-0.213 0.135,-0.187 0.141,-0.164C0.147,-0.141 0.156,-0.122 0.169,-0.107C0.182,-0.091 0.198,-0.079 0.219,-0.071C0.239,-0.062 0.264,-0.058 0.293,-0.058C0.316,-0.058 0.338,-0.062 0.361,-0.07C0.384,-0.078 0.401,-0.087 0.412,-0.098L0.442,-0.04ZM0.27,-0.442C0.231,-0.442 0.199,-0.432 0.176,-0.411C0.152,-0.39 0.138,-0.355 0.133,-0.305L0.381,-0.305C0.381,-0.356 0.371,-0.391 0.352,-0.412C0.333,-0.432 0.305,-0.442 0.27,-0.442Z" style="fill-rule:nonzero;"/>
                </g>
                <g transform="matrix(72,0,0,72,5477.58,7059.47)">
                    <path d="M0.369,-0.43L0.157,-0.43L0.157,-0L0.077,-0L0.077,-0.5L0.369,-0.5L0.369,-0.43Z" style="fill-rule:nonzero;"/>
                </g>
                <g transform="matrix(72,0,0,72,5504.15,7059.47)">
                    <path d="M0.049,-0.25C0.049,-0.335 0.068,-0.4 0.106,-0.445C0.143,-0.49 0.197,-0.512 0.268,-0.512C0.305,-0.512 0.338,-0.506 0.366,-0.494C0.393,-0.481 0.416,-0.464 0.434,-0.441C0.452,-0.418 0.465,-0.39 0.474,-0.358C0.483,-0.325 0.487,-0.289 0.487,-0.25C0.487,-0.165 0.468,-0.1 0.431,-0.056C0.393,-0.011 0.339,0.012 0.268,0.012C0.231,0.012 0.198,0.006 0.171,-0.007C0.143,-0.019 0.12,-0.037 0.102,-0.06C0.084,-0.083 0.071,-0.11 0.062,-0.143C0.053,-0.175 0.049,-0.211 0.049,-0.25ZM0.132,-0.25C0.132,-0.225 0.135,-0.2 0.14,-0.177C0.145,-0.154 0.152,-0.133 0.163,-0.116C0.174,-0.099 0.188,-0.085 0.205,-0.074C0.222,-0.063 0.243,-0.058 0.268,-0.058C0.359,-0.057 0.404,-0.121 0.404,-0.25C0.404,-0.276 0.402,-0.301 0.397,-0.324C0.392,-0.347 0.384,-0.368 0.373,-0.385C0.362,-0.402 0.348,-0.416 0.331,-0.427C0.314,-0.437 0.293,-0.442 0.268,-0.442C0.177,-0.443 0.132,-0.379 0.132,-0.25Z" style="fill-rule:nonzero;"/>
                </g>
                <g transform="matrix(72,0,0,72,5561.97,7059.47)">
                    <path d="M0.125,-0.223L0.125,-0.288L0.195,-0.288C0.207,-0.288 0.219,-0.29 0.231,-0.294C0.242,-0.298 0.253,-0.304 0.262,-0.311C0.271,-0.318 0.279,-0.326 0.285,-0.336C0.29,-0.345 0.293,-0.355 0.293,-0.366C0.293,-0.392 0.284,-0.41 0.266,-0.421C0.248,-0.432 0.221,-0.437 0.185,-0.437C0.159,-0.437 0.135,-0.433 0.114,-0.425C0.092,-0.417 0.075,-0.409 0.063,-0.402L0.04,-0.464C0.06,-0.475 0.084,-0.485 0.111,-0.494C0.137,-0.503 0.17,-0.507 0.207,-0.507C0.318,-0.507 0.373,-0.466 0.373,-0.384C0.373,-0.361 0.366,-0.338 0.351,-0.316C0.335,-0.293 0.314,-0.277 0.286,-0.268L0.286,-0.264C0.325,-0.257 0.353,-0.243 0.369,-0.222C0.384,-0.201 0.392,-0.174 0.392,-0.14C0.392,-0.119 0.388,-0.099 0.379,-0.081C0.37,-0.063 0.357,-0.047 0.34,-0.034C0.323,-0.021 0.301,-0.01 0.275,-0.003C0.248,0.005 0.218,0.009 0.183,0.009C0.149,0.009 0.121,0.006 0.099,-0C0.076,-0.006 0.056,-0.013 0.038,-0.022L0.061,-0.088C0.076,-0.079 0.095,-0.073 0.117,-0.068C0.138,-0.063 0.162,-0.061 0.187,-0.061C0.228,-0.061 0.259,-0.068 0.28,-0.082C0.301,-0.096 0.312,-0.117 0.312,-0.146C0.312,-0.17 0.302,-0.189 0.282,-0.203C0.262,-0.216 0.229,-0.223 0.183,-0.223L0.125,-0.223Z" style="fill-rule:nonzero;"/>
                </g>
                <g transform="matrix(72,0,0,72,5593.72,7059.47)">
                    <path d="M0.069,-0.463C0.094,-0.478 0.124,-0.49 0.158,-0.497C0.191,-0.504 0.226,-0.508 0.263,-0.508C0.298,-0.508 0.326,-0.503 0.347,-0.494C0.368,-0.485 0.384,-0.472 0.395,-0.458C0.406,-0.443 0.413,-0.426 0.417,-0.408C0.42,-0.39 0.422,-0.372 0.422,-0.354C0.422,-0.314 0.421,-0.275 0.419,-0.237C0.417,-0.199 0.416,-0.163 0.416,-0.129C0.416,-0.104 0.417,-0.081 0.419,-0.059C0.421,-0.037 0.425,-0.017 0.43,0.002L0.371,0.002L0.35,-0.068L0.345,-0.068C0.339,-0.059 0.332,-0.049 0.323,-0.041C0.314,-0.032 0.303,-0.024 0.29,-0.017C0.277,-0.01 0.263,-0.004 0.246,0.001C0.229,0.006 0.21,0.008 0.189,0.008C0.168,0.008 0.148,0.005 0.13,-0.002C0.111,-0.009 0.095,-0.018 0.082,-0.031C0.069,-0.043 0.058,-0.058 0.051,-0.075C0.043,-0.092 0.039,-0.112 0.039,-0.134C0.039,-0.163 0.045,-0.188 0.057,-0.208C0.069,-0.227 0.086,-0.243 0.108,-0.255C0.129,-0.266 0.155,-0.275 0.186,-0.28C0.216,-0.285 0.249,-0.287 0.286,-0.287L0.314,-0.287C0.323,-0.287 0.332,-0.286 0.341,-0.285C0.343,-0.305 0.344,-0.323 0.344,-0.339C0.344,-0.376 0.337,-0.401 0.322,-0.416C0.307,-0.431 0.281,-0.438 0.242,-0.438C0.231,-0.438 0.219,-0.437 0.206,-0.436C0.193,-0.434 0.179,-0.432 0.166,-0.429C0.152,-0.426 0.139,-0.422 0.127,-0.418C0.114,-0.413 0.103,-0.408 0.094,-0.403L0.069,-0.463ZM0.211,-0.062C0.23,-0.062 0.246,-0.065 0.261,-0.07C0.276,-0.075 0.288,-0.081 0.299,-0.089C0.31,-0.096 0.319,-0.105 0.326,-0.114C0.333,-0.123 0.338,-0.132 0.341,-0.141L0.341,-0.224C0.332,-0.225 0.322,-0.225 0.313,-0.226C0.303,-0.226 0.293,-0.226 0.284,-0.226C0.263,-0.226 0.243,-0.225 0.224,-0.223C0.204,-0.22 0.187,-0.216 0.172,-0.21C0.157,-0.203 0.145,-0.195 0.136,-0.184C0.127,-0.173 0.122,-0.159 0.122,-0.142C0.122,-0.119 0.13,-0.099 0.147,-0.085C0.164,-0.07 0.185,-0.062 0.211,-0.062Z" style="fill-rule:nonzero;"/>
                </g>
                <g transform="matrix(72,0,0,72,5629.43,7059.47)">
                    <path d="M0.077,-0.499C0.1,-0.5 0.125,-0.502 0.151,-0.504C0.176,-0.506 0.208,-0.507 0.246,-0.507C0.312,-0.507 0.359,-0.497 0.388,-0.477C0.417,-0.456 0.431,-0.425 0.431,-0.384C0.431,-0.361 0.424,-0.338 0.411,-0.316C0.397,-0.293 0.374,-0.277 0.343,-0.266L0.343,-0.262C0.382,-0.255 0.41,-0.241 0.426,-0.221C0.442,-0.201 0.45,-0.174 0.45,-0.141C0.45,-0.089 0.431,-0.051 0.394,-0.028C0.357,-0.005 0.301,0.007 0.226,0.007C0.198,0.007 0.172,0.006 0.148,0.005C0.124,0.003 0.1,0.001 0.077,-0.001L0.077,-0.499ZM0.157,-0.067C0.17,-0.066 0.182,-0.065 0.195,-0.064C0.207,-0.063 0.221,-0.063 0.238,-0.063C0.283,-0.063 0.316,-0.069 0.338,-0.082C0.359,-0.095 0.37,-0.116 0.37,-0.147C0.37,-0.171 0.361,-0.191 0.343,-0.206C0.324,-0.221 0.292,-0.228 0.245,-0.228L0.157,-0.228L0.157,-0.067ZM0.255,-0.289C0.267,-0.289 0.279,-0.291 0.29,-0.295C0.301,-0.299 0.312,-0.305 0.321,-0.312C0.33,-0.319 0.337,-0.327 0.343,-0.336C0.348,-0.345 0.351,-0.355 0.351,-0.366C0.351,-0.393 0.343,-0.411 0.327,-0.422C0.311,-0.432 0.283,-0.437 0.243,-0.437C0.222,-0.437 0.205,-0.437 0.193,-0.436C0.18,-0.435 0.168,-0.435 0.157,-0.434L0.157,-0.289L0.255,-0.289Z" style="fill-rule:nonzero;"/>
                </g>
                <g transform="matrix(72,0,0,72,5665.36,7059.47)">
                    <path d="M0.389,-0.296L0.392,-0.358L0.389,-0.358L0.348,-0.294L0.123,-0L0.077,-0L0.077,-0.5L0.157,-0.5L0.157,-0.195L0.154,-0.136L0.158,-0.136L0.197,-0.198L0.422,-0.5L0.469,-0.5L0.469,-0L0.389,-0L0.389,-0.296Z" style="fill-rule:nonzero;"/>
                </g>
                <g transform="matrix(72,0,0,72,5704.67,7059.47)">
                    <path d="M0.418,-0.033C0.398,-0.018 0.374,-0.007 0.347,0.001C0.32,0.008 0.291,0.012 0.261,0.012C0.222,0.012 0.19,0.006 0.163,-0.007C0.136,-0.019 0.115,-0.037 0.098,-0.06C0.081,-0.083 0.068,-0.11 0.061,-0.143C0.053,-0.175 0.049,-0.211 0.049,-0.25C0.049,-0.335 0.068,-0.4 0.105,-0.445C0.142,-0.49 0.196,-0.512 0.266,-0.512C0.298,-0.512 0.325,-0.51 0.348,-0.505C0.37,-0.5 0.39,-0.492 0.408,-0.483L0.385,-0.414C0.37,-0.423 0.353,-0.43 0.334,-0.435C0.315,-0.44 0.295,-0.442 0.274,-0.442C0.179,-0.442 0.132,-0.378 0.132,-0.25C0.132,-0.225 0.135,-0.2 0.14,-0.178C0.145,-0.155 0.153,-0.134 0.165,-0.117C0.176,-0.099 0.192,-0.085 0.211,-0.074C0.23,-0.063 0.253,-0.058 0.281,-0.058C0.305,-0.058 0.327,-0.062 0.346,-0.069C0.365,-0.076 0.38,-0.085 0.392,-0.094L0.418,-0.033Z" style="fill-rule:nonzero;"/>
                </g>
                <g transform="matrix(72,0,0,72,5737.14,7059.47)">
                    <path d="M0.389,-0.296L0.392,-0.358L0.389,-0.358L0.348,-0.294L0.123,-0L0.077,-0L0.077,-0.5L0.157,-0.5L0.157,-0.195L0.154,-0.136L0.158,-0.136L0.197,-0.198L0.422,-0.5L0.469,-0.5L0.469,-0L0.389,-0L0.389,-0.296Z" style="fill-rule:nonzero;"/>
                </g>
                <g transform="matrix(72,0,0,72,5776.46,7059.47)">
                    <path d="M0.395,-0.43L0.239,-0.43L0.239,-0L0.159,-0L0.159,-0.43L0.003,-0.43L0.003,-0.5L0.395,-0.5L0.395,-0.43Z" style="fill-rule:nonzero;"/>
                </g>
                <g transform="matrix(72,0,0,72,5343.66,7140.04)">
                    <path d="M0.077,-0.5L0.132,-0.5L0.147,-0.44L0.151,-0.44C0.166,-0.463 0.186,-0.481 0.211,-0.494C0.235,-0.506 0.263,-0.512 0.294,-0.512C0.361,-0.512 0.41,-0.492 0.443,-0.453C0.476,-0.414 0.492,-0.349 0.492,-0.26C0.492,-0.218 0.487,-0.18 0.476,-0.147C0.464,-0.113 0.449,-0.084 0.429,-0.061C0.409,-0.038 0.385,-0.02 0.357,-0.007C0.328,0.006 0.297,0.012 0.262,0.012C0.237,0.012 0.218,0.011 0.204,0.008C0.189,0.005 0.174,-0.001 0.157,-0.008L0.157,0.2L0.077,0.2L0.077,-0.5ZM0.279,-0.442C0.245,-0.442 0.218,-0.433 0.199,-0.416C0.179,-0.398 0.165,-0.371 0.157,-0.335L0.157,-0.087C0.169,-0.078 0.183,-0.07 0.198,-0.066C0.213,-0.061 0.234,-0.058 0.259,-0.058C0.305,-0.058 0.341,-0.075 0.369,-0.11C0.396,-0.144 0.409,-0.194 0.409,-0.261C0.409,-0.288 0.407,-0.313 0.402,-0.336C0.397,-0.358 0.39,-0.377 0.38,-0.393C0.369,-0.408 0.356,-0.42 0.34,-0.429C0.323,-0.438 0.303,-0.442 0.279,-0.442Z" style="fill-rule:nonzero;"/>
                </g>
                <g transform="matrix(72,0,0,72,5382.62,7140.04)">
                    <path d="M0.069,-0.463C0.094,-0.478 0.124,-0.49 0.158,-0.497C0.191,-0.504 0.226,-0.508 0.263,-0.508C0.298,-0.508 0.326,-0.503 0.347,-0.494C0.368,-0.485 0.384,-0.472 0.395,-0.458C0.406,-0.443 0.413,-0.426 0.417,-0.408C0.42,-0.39 0.422,-0.372 0.422,-0.354C0.422,-0.314 0.421,-0.275 0.419,-0.237C0.417,-0.199 0.416,-0.163 0.416,-0.129C0.416,-0.104 0.417,-0.081 0.419,-0.059C0.421,-0.037 0.425,-0.017 0.43,0.002L0.371,0.002L0.35,-0.068L0.345,-0.068C0.339,-0.059 0.332,-0.049 0.323,-0.041C0.314,-0.032 0.303,-0.024 0.29,-0.017C0.277,-0.01 0.263,-0.004 0.246,0.001C0.229,0.006 0.21,0.008 0.189,0.008C0.168,0.008 0.148,0.005 0.13,-0.002C0.111,-0.009 0.095,-0.018 0.082,-0.031C0.069,-0.043 0.058,-0.058 0.051,-0.075C0.043,-0.092 0.039,-0.112 0.039,-0.134C0.039,-0.163 0.045,-0.188 0.057,-0.208C0.069,-0.227 0.086,-0.243 0.108,-0.255C0.129,-0.266 0.155,-0.275 0.186,-0.28C0.216,-0.285 0.249,-0.287 0.286,-0.287L0.314,-0.287C0.323,-0.287 0.332,-0.286 0.341,-0.285C0.343,-0.305 0.344,-0.323 0.344,-0.339C0.344,-0.376 0.337,-0.401 0.322,-0.416C0.307,-0.431 0.281,-0.438 0.242,-0.438C0.231,-0.438 0.219,-0.437 0.206,-0.436C0.193,-0.434 0.179,-0.432 0.166,-0.429C0.152,-0.426 0.139,-0.422 0.127,-0.418C0.114,-0.413 0.103,-0.408 0.094,-0.403L0.069,-0.463ZM0.211,-0.062C0.23,-0.062 0.246,-0.065 0.261,-0.07C0.276,-0.075 0.288,-0.081 0.299,-0.089C0.31,-0.096 0.319,-0.105 0.326,-0.114C0.333,-0.123 0.338,-0.132 0.341,-0.141L0.341,-0.224C0.332,-0.225 0.322,-0.225 0.313,-0.226C0.303,-0.226 0.293,-0.226 0.284,-0.226C0.263,-0.226 0.243,-0.225 0.224,-0.223C0.204,-0.22 0.187,-0.216 0.172,-0.21C0.157,-0.203 0.145,-0.195 0.136,-0.184C0.127,-0.173 0.122,-0.159 0.122,-0.142C0.122,-0.119 0.13,-0.099 0.147,-0.085C0.164,-0.07 0.185,-0.062 0.211,-0.062Z" style="fill-rule:nonzero;"/>
                </g>
                <g transform="matrix(72,0,0,72,5418.33,7140.04)">
                    <path d="M0.125,-0.223L0.125,-0.288L0.195,-0.288C0.207,-0.288 0.219,-0.29 0.231,-0.294C0.242,-0.298 0.253,-0.304 0.262,-0.311C0.271,-0.318 0.279,-0.326 0.285,-0.336C0.29,-0.345 0.293,-0.355 0.293,-0.366C0.293,-0.392 0.284,-0.41 0.266,-0.421C0.248,-0.432 0.221,-0.437 0.185,-0.437C0.159,-0.437 0.135,-0.433 0.114,-0.425C0.092,-0.417 0.075,-0.409 0.063,-0.402L0.04,-0.464C0.06,-0.475 0.084,-0.485 0.111,-0.494C0.137,-0.503 0.17,-0.507 0.207,-0.507C0.318,-0.507 0.373,-0.466 0.373,-0.384C0.373,-0.361 0.366,-0.338 0.351,-0.316C0.335,-0.293 0.314,-0.277 0.286,-0.268L0.286,-0.264C0.325,-0.257 0.353,-0.243 0.369,-0.222C0.384,-0.201 0.392,-0.174 0.392,-0.14C0.392,-0.119 0.388,-0.099 0.379,-0.081C0.37,-0.063 0.357,-0.047 0.34,-0.034C0.323,-0.021 0.301,-0.01 0.275,-0.003C0.248,0.005 0.218,0.009 0.183,0.009C0.149,0.009 0.121,0.006 0.099,-0C0.076,-0.006 0.056,-0.013 0.038,-0.022L0.061,-0.088C0.076,-0.079 0.095,-0.073 0.117,-0.068C0.138,-0.063 0.162,-0.061 0.187,-0.061C0.228,-0.061 0.259,-0.068 0.28,-0.082C0.301,-0.096 0.312,-0.117 0.312,-0.146C0.312,-0.17 0.302,-0.189 0.282,-0.203C0.262,-0.216 0.229,-0.223 0.183,-0.223L0.125,-0.223Z" style="fill-rule:nonzero;"/>
                </g>
                <g transform="matrix(72,0,0,72,5450.08,7140.04)">
                    <path d="M0.49,-0.297L0.496,-0.392L0.491,-0.392L0.455,-0.315L0.334,-0.119L0.306,-0.119L0.18,-0.315L0.147,-0.392L0.143,-0.392L0.151,-0.298L0.151,-0L0.077,-0L0.077,-0.5L0.156,-0.5L0.296,-0.276L0.325,-0.218L0.327,-0.218L0.357,-0.278L0.488,-0.5L0.568,-0.5L0.568,-0L0.49,-0L0.49,-0.297Z" style="fill-rule:nonzero;"/>
                </g>
                <g transform="matrix(72,0,0,72,5496.52,7140.04)">
                    <path d="M0.442,-0.04C0.422,-0.024 0.397,-0.011 0.367,-0.002C0.336,0.007 0.304,0.012 0.27,0.012C0.232,0.012 0.199,0.006 0.171,-0.007C0.143,-0.019 0.12,-0.037 0.102,-0.06C0.084,-0.083 0.071,-0.11 0.062,-0.142C0.053,-0.174 0.049,-0.21 0.049,-0.25C0.049,-0.335 0.068,-0.4 0.106,-0.445C0.144,-0.49 0.198,-0.512 0.269,-0.512C0.292,-0.512 0.314,-0.51 0.337,-0.505C0.36,-0.5 0.38,-0.49 0.398,-0.476C0.416,-0.462 0.431,-0.442 0.442,-0.417C0.453,-0.391 0.459,-0.357 0.459,-0.315C0.459,-0.293 0.457,-0.269 0.453,-0.242L0.132,-0.242C0.132,-0.213 0.135,-0.187 0.141,-0.164C0.147,-0.141 0.156,-0.122 0.169,-0.107C0.182,-0.091 0.198,-0.079 0.219,-0.071C0.239,-0.062 0.264,-0.058 0.293,-0.058C0.316,-0.058 0.338,-0.062 0.361,-0.07C0.384,-0.078 0.401,-0.087 0.412,-0.098L0.442,-0.04ZM0.27,-0.442C0.231,-0.442 0.199,-0.432 0.176,-0.411C0.152,-0.39 0.138,-0.355 0.133,-0.305L0.381,-0.305C0.381,-0.356 0.371,-0.391 0.352,-0.412C0.333,-0.432 0.305,-0.442 0.27,-0.442Z" style="fill-rule:nonzero;"/>
                </g>
                <g transform="matrix(72,0,0,72,5533.1,7140.04)">
                    <path d="M0.731,0.13L0.677,0.13L0.662,-0L0.077,-0L0.077,-0.5L0.157,-0.5L0.157,-0.07L0.328,-0.07L0.328,-0.5L0.408,-0.5L0.408,-0.07L0.579,-0.07L0.579,-0.5L0.659,-0.5L0.659,-0.07L0.731,-0.07L0.731,0.13Z" style="fill-rule:nonzero;"/>
                </g>
                <g transform="matrix(72,0,0,72,5587.31,7140.04)">
                    <path d="M0.442,-0.04C0.422,-0.024 0.397,-0.011 0.367,-0.002C0.336,0.007 0.304,0.012 0.27,0.012C0.232,0.012 0.199,0.006 0.171,-0.007C0.143,-0.019 0.12,-0.037 0.102,-0.06C0.084,-0.083 0.071,-0.11 0.062,-0.142C0.053,-0.174 0.049,-0.21 0.049,-0.25C0.049,-0.335 0.068,-0.4 0.106,-0.445C0.144,-0.49 0.198,-0.512 0.269,-0.512C0.292,-0.512 0.314,-0.51 0.337,-0.505C0.36,-0.5 0.38,-0.49 0.398,-0.476C0.416,-0.462 0.431,-0.442 0.442,-0.417C0.453,-0.391 0.459,-0.357 0.459,-0.315C0.459,-0.293 0.457,-0.269 0.453,-0.242L0.132,-0.242C0.132,-0.213 0.135,-0.187 0.141,-0.164C0.147,-0.141 0.156,-0.122 0.169,-0.107C0.182,-0.091 0.198,-0.079 0.219,-0.071C0.239,-0.062 0.264,-0.058 0.293,-0.058C0.316,-0.058 0.338,-0.062 0.361,-0.07C0.384,-0.078 0.401,-0.087 0.412,-0.098L0.442,-0.04ZM0.27,-0.442C0.231,-0.442 0.199,-0.432 0.176,-0.411C0.152,-0.39 0.138,-0.355 0.133,-0.305L0.381,-0.305C0.381,-0.356 0.371,-0.391 0.352,-0.412C0.333,-0.432 0.305,-0.442 0.27,-0.442Z" style="fill-rule:nonzero;"/>
                </g>
                <g transform="matrix(72,0,0,72,5623.89,7140.04)">
                    <path d="M0.383,-0.221L0.157,-0.221L0.157,-0L0.077,-0L0.077,-0.5L0.157,-0.5L0.157,-0.291L0.383,-0.291L0.383,-0.5L0.463,-0.5L0.463,-0L0.383,-0L0.383,-0.221Z" style="fill-rule:nonzero;"/>
                </g>
                <g transform="matrix(72,0,0,72,5662.77,7140.04)">
                    <path d="M0.389,-0.296L0.392,-0.358L0.389,-0.358L0.348,-0.294L0.123,-0L0.077,-0L0.077,-0.5L0.157,-0.5L0.157,-0.195L0.154,-0.136L0.158,-0.136L0.197,-0.198L0.422,-0.5L0.469,-0.5L0.469,-0L0.389,-0L0.389,-0.296Z" style="fill-rule:nonzero;"/>
                </g>
                <g transform="matrix(72,0,0,72,5702.08,7140.04)">
                    <path d="M0.442,-0.04C0.422,-0.024 0.397,-0.011 0.367,-0.002C0.336,0.007 0.304,0.012 0.27,0.012C0.232,0.012 0.199,0.006 0.171,-0.007C0.143,-0.019 0.12,-0.037 0.102,-0.06C0.084,-0.083 0.071,-0.11 0.062,-0.142C0.053,-0.174 0.049,-0.21 0.049,-0.25C0.049,-0.335 0.068,-0.4 0.106,-0.445C0.144,-0.49 0.198,-0.512 0.269,-0.512C0.292,-0.512 0.314,-0.51 0.337,-0.505C0.36,-0.5 0.38,-0.49 0.398,-0.476C0.416,-0.462 0.431,-0.442 0.442,-0.417C0.453,-0.391 0.459,-0.357 0.459,-0.315C0.459,-0.293 0.457,-0.269 0.453,-0.242L0.132,-0.242C0.132,-0.213 0.135,-0.187 0.141,-0.164C0.147,-0.141 0.156,-0.122 0.169,-0.107C0.182,-0.091 0.198,-0.079 0.219,-0.071C0.239,-0.062 0.264,-0.058 0.293,-0.058C0.316,-0.058 0.338,-0.062 0.361,-0.07C0.384,-0.078 0.401,-0.087 0.412,-0.098L0.442,-0.04ZM0.27,-0.442C0.231,-0.442 0.199,-0.432 0.176,-0.411C0.152,-0.39 0.138,-0.355 0.133,-0.305L0.381,-0.305C0.381,-0.356 0.371,-0.391 0.352,-0.412C0.333,-0.432 0.305,-0.442 0.27,-0.442Z" style="fill-rule:nonzero;"/>
                </g>
                <g transform="matrix(72,0,0,72,5738.66,7140.04)">
                    <path d="M0.15,-0.177C0.149,-0.18 0.149,-0.184 0.149,-0.188L0.149,-0.199C0.149,-0.227 0.153,-0.252 0.162,-0.273C0.17,-0.294 0.18,-0.314 0.193,-0.332C0.205,-0.349 0.218,-0.366 0.233,-0.381C0.247,-0.396 0.26,-0.412 0.273,-0.428C0.285,-0.443 0.295,-0.46 0.304,-0.478C0.312,-0.495 0.316,-0.515 0.316,-0.538C0.316,-0.569 0.307,-0.594 0.29,-0.613C0.272,-0.632 0.242,-0.642 0.201,-0.642C0.177,-0.642 0.153,-0.638 0.128,-0.63C0.103,-0.621 0.082,-0.611 0.064,-0.6L0.037,-0.662C0.062,-0.677 0.089,-0.69 0.117,-0.699C0.145,-0.708 0.18,-0.712 0.221,-0.712C0.25,-0.712 0.276,-0.708 0.299,-0.7C0.321,-0.691 0.339,-0.68 0.355,-0.665C0.37,-0.65 0.381,-0.633 0.388,-0.613C0.395,-0.593 0.399,-0.572 0.399,-0.549C0.399,-0.519 0.395,-0.493 0.386,-0.471C0.377,-0.448 0.365,-0.428 0.352,-0.41C0.338,-0.391 0.323,-0.374 0.308,-0.358C0.292,-0.342 0.277,-0.325 0.264,-0.308C0.25,-0.29 0.239,-0.271 0.23,-0.25C0.221,-0.229 0.216,-0.205 0.216,-0.177L0.15,-0.177ZM0.13,-0.046C0.13,-0.064 0.135,-0.078 0.146,-0.089C0.156,-0.099 0.17,-0.104 0.187,-0.104C0.205,-0.104 0.219,-0.099 0.23,-0.089C0.241,-0.078 0.246,-0.064 0.246,-0.046C0.246,-0.029 0.241,-0.015 0.23,-0.004C0.219,0.007 0.205,0.012 0.187,0.012C0.17,0.012 0.156,0.007 0.146,-0.004C0.135,-0.015 0.13,-0.029 0.13,-0.046Z" style="fill-rule:nonzero;"/>
                </g>
            </g>
            <g transform="matrix(1,0,0,1,1743.96,872.519)">
                <g transform="matrix(72,0,0,72,5252.76,7059.47)">
                    <path d="M0.215,-0.324L0.168,-0.324L0.168,-0L0.085,-0L0.085,-0.7L0.168,-0.7L0.168,-0.374L0.213,-0.388L0.448,-0.7L0.544,-0.7L0.31,-0.399L0.268,-0.366L0.319,-0.326L0.575,-0L0.47,-0L0.215,-0.324Z" style="fill-rule:nonzero;"/>
                </g>
                <g transform="matrix(72,0,0,72,5296.68,7059.47)">
                    <path d="M0.069,-0.463C0.094,-0.478 0.124,-0.49 0.158,-0.497C0.191,-0.504 0.226,-0.508 0.263,-0.508C0.298,-0.508 0.326,-0.503 0.347,-0.494C0.368,-0.485 0.384,-0.472 0.395,-0.458C0.406,-0.443 0.413,-0.426 0.417,-0.408C0.42,-0.39 0.422,-0.372 0.422,-0.354C0.422,-0.314 0.421,-0.275 0.419,-0.237C0.417,-0.199 0.416,-0.163 0.416,-0.129C0.416,-0.104 0.417,-0.081 0.419,-0.059C0.421,-0.037 0.425,-0.017 0.43,0.002L0.371,0.002L0.35,-0.068L0.345,-0.068C0.339,-0.059 0.332,-0.049 0.323,-0.041C0.314,-0.032 0.303,-0.024 0.29,-0.017C0.277,-0.01 0.263,-0.004 0.246,0.001C0.229,0.006 0.21,0.008 0.189,0.008C0.168,0.008 0.148,0.005 0.13,-0.002C0.111,-0.009 0.095,-0.018 0.082,-0.031C0.069,-0.043 0.058,-0.058 0.051,-0.075C0.043,-0.092 0.039,-0.112 0.039,-0.134C0.039,-0.163 0.045,-0.188 0.057,-0.208C0.069,-0.227 0.086,-0.243 0.108,-0.255C0.129,-0.266 0.155,-0.275 0.186,-0.28C0.216,-0.285 0.249,-0.287 0.286,-0.287L0.314,-0.287C0.323,-0.287 0.332,-0.286 0.341,-0.285C0.343,-0.305 0.344,-0.323 0.344,-0.339C0.344,-0.376 0.337,-0.401 0.322,-0.416C0.307,-0.431 0.281,-0.438 0.242,-0.438C0.231,-0.438 0.219,-0.437 0.206,-0.436C0.193,-0.434 0.179,-0.432 0.166,-0.429C0.152,-0.426 0.139,-0.422 0.127,-0.418C0.114,-0.413 0.103,-0.408 0.094,-0.403L0.069,-0.463ZM0.211,-0.062C0.23,-0.062 0.246,-0.065 0.261,-0.07C0.276,-0.075 0.288,-0.081 0.299,-0.089C0.31,-0.096 0.319,-0.105 0.326,-0.114C0.333,-0.123 0.338,-0.132 0.341,-0.141L0.341,-0.224C0.332,-0.225 0.322,-0.225 0.313,-0.226C0.303,-0.226 0.293,-0.226 0.284,-0.226C0.263,-0.226 0.243,-0.225 0.224,-0.223C0.204,-0.22 0.187,-0.216 0.172,-0.21C0.157,-0.203 0.145,-0.195 0.136,-0.184C0.127,-0.173 0.122,-0.159 0.122,-0.142C0.122,-0.119 0.13,-0.099 0.147,-0.085C0.164,-0.07 0.185,-0.062 0.211,-0.062Z" style="fill-rule:nonzero;"/>
                </g>
                <g transform="matrix(72,0,0,72,5332.4,7059.47)">
                    <path d="M0.203,-0.225L0.157,-0.225L0.157,-0L0.077,-0L0.077,-0.5L0.157,-0.5L0.157,-0.274L0.2,-0.288L0.36,-0.5L0.447,-0.5L0.292,-0.299L0.25,-0.266L0.302,-0.226L0.469,-0L0.37,-0L0.203,-0.225Z" style="fill-rule:nonzero;"/>
                </g>
                <g transform="matrix(72,0,0,72,5386.04,7059.47)">
                    <path d="M0.49,-0.297L0.496,-0.392L0.491,-0.392L0.455,-0.315L0.334,-0.119L0.306,-0.119L0.18,-0.315L0.147,-0.392L0.143,-0.392L0.151,-0.298L0.151,-0L0.077,-0L0.077,-0.5L0.156,-0.5L0.296,-0.276L0.325,-0.218L0.327,-0.218L0.357,-0.278L0.488,-0.5L0.568,-0.5L0.568,-0L0.49,-0L0.49,-0.297Z" style="fill-rule:nonzero;"/>
                </g>
                <g transform="matrix(72,0,0,72,5432.48,7059.47)">
                    <path d="M0.442,-0.04C0.422,-0.024 0.397,-0.011 0.367,-0.002C0.336,0.007 0.304,0.012 0.27,0.012C0.232,0.012 0.199,0.006 0.171,-0.007C0.143,-0.019 0.12,-0.037 0.102,-0.06C0.084,-0.083 0.071,-0.11 0.062,-0.142C0.053,-0.174 0.049,-0.21 0.049,-0.25C0.049,-0.335 0.068,-0.4 0.106,-0.445C0.144,-0.49 0.198,-0.512 0.269,-0.512C0.292,-0.512 0.314,-0.51 0.337,-0.505C0.36,-0.5 0.38,-0.49 0.398,-0.476C0.416,-0.462 0.431,-0.442 0.442,-0.417C0.453,-0.391 0.459,-0.357 0.459,-0.315C0.459,-0.293 0.457,-0.269 0.453,-0.242L0.132,-0.242C0.132,-0.213 0.135,-0.187 0.141,-0.164C0.147,-0.141 0.156,-0.122 0.169,-0.107C0.182,-0.091 0.198,-0.079 0.219,-0.071C0.239,-0.062 0.264,-0.058 0.293,-0.058C0.316,-0.058 0.338,-0.062 0.361,-0.07C0.384,-0.078 0.401,-0.087 0.412,-0.098L0.442,-0.04ZM0.27,-0.442C0.231,-0.442 0.199,-0.432 0.176,-0.411C0.152,-0.39 0.138,-0.355 0.133,-0.305L0.381,-0.305C0.381,-0.356 0.371,-0.391 0.352,-0.412C0.333,-0.432 0.305,-0.442 0.27,-0.442Z" style="fill-rule:nonzero;"/>
                </g>
                <g transform="matrix(72,0,0,72,5469.05,7059.47)">
                    <path d="M0.383,-0.221L0.157,-0.221L0.157,-0L0.077,-0L0.077,-0.5L0.157,-0.5L0.157,-0.291L0.383,-0.291L0.383,-0.5L0.463,-0.5L0.463,-0L0.383,-0L0.383,-0.221Z" style="fill-rule:nonzero;"/>
                </g>
                <g transform="matrix(72,0,0,72,5507.93,7059.47)">
                    <path d="M0.326,-0.207L0.249,-0.195L0.117,-0L0.02,-0L0.14,-0.171L0.18,-0.208C0.145,-0.213 0.116,-0.227 0.092,-0.25C0.067,-0.273 0.055,-0.303 0.055,-0.342C0.055,-0.372 0.06,-0.398 0.071,-0.419C0.081,-0.44 0.096,-0.458 0.115,-0.472C0.134,-0.486 0.157,-0.496 0.184,-0.503C0.211,-0.509 0.241,-0.512 0.274,-0.512C0.299,-0.512 0.322,-0.51 0.343,-0.507C0.364,-0.504 0.385,-0.5 0.406,-0.496L0.406,-0L0.326,-0L0.326,-0.207ZM0.326,-0.432C0.317,-0.435 0.308,-0.438 0.297,-0.44C0.286,-0.441 0.277,-0.442 0.269,-0.442C0.226,-0.442 0.194,-0.434 0.172,-0.419C0.149,-0.404 0.138,-0.379 0.138,-0.346C0.138,-0.316 0.15,-0.293 0.174,-0.277C0.197,-0.26 0.228,-0.252 0.267,-0.252L0.278,-0.252C0.282,-0.252 0.288,-0.252 0.295,-0.253C0.302,-0.253 0.313,-0.253 0.326,-0.254L0.326,-0.432Z" style="fill-rule:nonzero;"/>
                </g>
                <g transform="matrix(72,0,0,72,5542.13,7059.47)">
                    <path d="M0.442,-0.04C0.422,-0.024 0.397,-0.011 0.367,-0.002C0.336,0.007 0.304,0.012 0.27,0.012C0.232,0.012 0.199,0.006 0.171,-0.007C0.143,-0.019 0.12,-0.037 0.102,-0.06C0.084,-0.083 0.071,-0.11 0.062,-0.142C0.053,-0.174 0.049,-0.21 0.049,-0.25C0.049,-0.335 0.068,-0.4 0.106,-0.445C0.144,-0.49 0.198,-0.512 0.269,-0.512C0.292,-0.512 0.314,-0.51 0.337,-0.505C0.36,-0.5 0.38,-0.49 0.398,-0.476C0.416,-0.462 0.431,-0.442 0.442,-0.417C0.453,-0.391 0.459,-0.357 0.459,-0.315C0.459,-0.293 0.457,-0.269 0.453,-0.242L0.132,-0.242C0.132,-0.213 0.135,-0.187 0.141,-0.164C0.147,-0.141 0.156,-0.122 0.169,-0.107C0.182,-0.091 0.198,-0.079 0.219,-0.071C0.239,-0.062 0.264,-0.058 0.293,-0.058C0.316,-0.058 0.338,-0.062 0.361,-0.07C0.384,-0.078 0.401,-0.087 0.412,-0.098L0.442,-0.04ZM0.27,-0.442C0.231,-0.442 0.199,-0.432 0.176,-0.411C0.152,-0.39 0.138,-0.355 0.133,-0.305L0.381,-0.305C0.381,-0.356 0.371,-0.391 0.352,-0.412C0.333,-0.432 0.305,-0.442 0.27,-0.442Z" style="fill-rule:nonzero;"/>
                </g>
                <g transform="matrix(72,0,0,72,5578.71,7059.47)">
                    <path d="M0.395,-0.43L0.239,-0.43L0.239,-0L0.159,-0L0.159,-0.43L0.003,-0.43L0.003,-0.5L0.395,-0.5L0.395,-0.43Z" style="fill-rule:nonzero;"/>
                </g>
                <g transform="matrix(72,0,0,72,5607.29,7059.47)">
                    <path d="M0.418,-0.033C0.398,-0.018 0.374,-0.007 0.347,0.001C0.32,0.008 0.291,0.012 0.261,0.012C0.222,0.012 0.19,0.006 0.163,-0.007C0.136,-0.019 0.115,-0.037 0.098,-0.06C0.081,-0.083 0.068,-0.11 0.061,-0.143C0.053,-0.175 0.049,-0.211 0.049,-0.25C0.049,-0.335 0.068,-0.4 0.105,-0.445C0.142,-0.49 0.196,-0.512 0.266,-0.512C0.298,-0.512 0.325,-0.51 0.348,-0.505C0.37,-0.5 0.39,-0.492 0.408,-0.483L0.385,-0.414C0.37,-0.423 0.353,-0.43 0.334,-0.435C0.315,-0.44 0.295,-0.442 0.274,-0.442C0.179,-0.442 0.132,-0.378 0.132,-0.25C0.132,-0.225 0.135,-0.2 0.14,-0.178C0.145,-0.155 0.153,-0.134 0.165,-0.117C0.176,-0.099 0.192,-0.085 0.211,-0.074C0.23,-0.063 0.253,-0.058 0.281,-0.058C0.305,-0.058 0.327,-0.062 0.346,-0.069C0.365,-0.076 0.38,-0.085 0.392,-0.094L0.418,-0.033Z" style="fill-rule:nonzero;"/>
                </g>
                <g transform="matrix(72,0,0,72,5639.76,7059.47)">
                    <path d="M0.326,-0.207L0.249,-0.195L0.117,-0L0.02,-0L0.14,-0.171L0.18,-0.208C0.145,-0.213 0.116,-0.227 0.092,-0.25C0.067,-0.273 0.055,-0.303 0.055,-0.342C0.055,-0.372 0.06,-0.398 0.071,-0.419C0.081,-0.44 0.096,-0.458 0.115,-0.472C0.134,-0.486 0.157,-0.496 0.184,-0.503C0.211,-0.509 0.241,-0.512 0.274,-0.512C0.299,-0.512 0.322,-0.51 0.343,-0.507C0.364,-0.504 0.385,-0.5 0.406,-0.496L0.406,-0L0.326,-0L0.326,-0.207ZM0.326,-0.432C0.317,-0.435 0.308,-0.438 0.297,-0.44C0.286,-0.441 0.277,-0.442 0.269,-0.442C0.226,-0.442 0.194,-0.434 0.172,-0.419C0.149,-0.404 0.138,-0.379 0.138,-0.346C0.138,-0.316 0.15,-0.293 0.174,-0.277C0.197,-0.26 0.228,-0.252 0.267,-0.252L0.278,-0.252C0.282,-0.252 0.288,-0.252 0.295,-0.253C0.302,-0.253 0.313,-0.253 0.326,-0.254L0.326,-0.432Z" style="fill-rule:nonzero;"/>
                </g>
                <g transform="matrix(72,0,0,72,5693.19,7059.47)">
                    <path d="M0.418,-0.033C0.398,-0.018 0.374,-0.007 0.347,0.001C0.32,0.008 0.291,0.012 0.261,0.012C0.222,0.012 0.19,0.006 0.163,-0.007C0.136,-0.019 0.115,-0.037 0.098,-0.06C0.081,-0.083 0.068,-0.11 0.061,-0.143C0.053,-0.175 0.049,-0.211 0.049,-0.25C0.049,-0.335 0.068,-0.4 0.105,-0.445C0.142,-0.49 0.196,-0.512 0.266,-0.512C0.298,-0.512 0.325,-0.51 0.348,-0.505C0.37,-0.5 0.39,-0.492 0.408,-0.483L0.385,-0.414C0.37,-0.423 0.353,-0.43 0.334,-0.435C0.315,-0.44 0.295,-0.442 0.274,-0.442C0.179,-0.442 0.132,-0.378 0.132,-0.25C0.132,-0.225 0.135,-0.2 0.14,-0.178C0.145,-0.155 0.153,-0.134 0.165,-0.117C0.176,-0.099 0.192,-0.085 0.211,-0.074C0.23,-0.063 0.253,-0.058 0.281,-0.058C0.305,-0.058 0.327,-0.062 0.346,-0.069C0.365,-0.076 0.38,-0.085 0.392,-0.094L0.418,-0.033Z" style="fill-rule:nonzero;"/>
                </g>
                <g transform="matrix(72,0,0,72,5725.66,7059.47)">
                    <path d="M0.077,-0.499C0.1,-0.5 0.125,-0.502 0.151,-0.504C0.176,-0.506 0.208,-0.507 0.246,-0.507C0.312,-0.507 0.359,-0.497 0.388,-0.477C0.417,-0.456 0.431,-0.425 0.431,-0.384C0.431,-0.361 0.424,-0.338 0.411,-0.316C0.397,-0.293 0.374,-0.277 0.343,-0.266L0.343,-0.262C0.382,-0.255 0.41,-0.241 0.426,-0.221C0.442,-0.201 0.45,-0.174 0.45,-0.141C0.45,-0.089 0.431,-0.051 0.394,-0.028C0.357,-0.005 0.301,0.007 0.226,0.007C0.198,0.007 0.172,0.006 0.148,0.005C0.124,0.003 0.1,0.001 0.077,-0.001L0.077,-0.499ZM0.157,-0.067C0.17,-0.066 0.182,-0.065 0.195,-0.064C0.207,-0.063 0.221,-0.063 0.238,-0.063C0.283,-0.063 0.316,-0.069 0.338,-0.082C0.359,-0.095 0.37,-0.116 0.37,-0.147C0.37,-0.171 0.361,-0.191 0.343,-0.206C0.324,-0.221 0.292,-0.228 0.245,-0.228L0.157,-0.228L0.157,-0.067ZM0.255,-0.289C0.267,-0.289 0.279,-0.291 0.29,-0.295C0.301,-0.299 0.312,-0.305 0.321,-0.312C0.33,-0.319 0.337,-0.327 0.343,-0.336C0.348,-0.345 0.351,-0.355 0.351,-0.366C0.351,-0.393 0.343,-0.411 0.327,-0.422C0.311,-0.432 0.283,-0.437 0.243,-0.437C0.222,-0.437 0.205,-0.437 0.193,-0.436C0.18,-0.435 0.168,-0.435 0.157,-0.434L0.157,-0.289L0.255,-0.289Z" style="fill-rule:nonzero;"/>
                </g>
                <g transform="matrix(72,0,0,72,5761.59,7059.47)">
                    <path d="M0.326,-0.207L0.249,-0.195L0.117,-0L0.02,-0L0.14,-0.171L0.18,-0.208C0.145,-0.213 0.116,-0.227 0.092,-0.25C0.067,-0.273 0.055,-0.303 0.055,-0.342C0.055,-0.372 0.06,-0.398 0.071,-0.419C0.081,-0.44 0.096,-0.458 0.115,-0.472C0.134,-0.486 0.157,-0.496 0.184,-0.503C0.211,-0.509 0.241,-0.512 0.274,-0.512C0.299,-0.512 0.322,-0.51 0.343,-0.507C0.364,-0.504 0.385,-0.5 0.406,-0.496L0.406,-0L0.326,-0L0.326,-0.207ZM0.326,-0.432C0.317,-0.435 0.308,-0.438 0.297,-0.44C0.286,-0.441 0.277,-0.442 0.269,-0.442C0.226,-0.442 0.194,-0.434 0.172,-0.419C0.149,-0.404 0.138,-0.379 0.138,-0.346C0.138,-0.316 0.15,-0.293 0.174,-0.277C0.197,-0.26 0.228,-0.252 0.267,-0.252L0.278,-0.252C0.282,-0.252 0.288,-0.252 0.295,-0.253C0.302,-0.253 0.313,-0.253 0.326,-0.254L0.326,-0.432Z" style="fill-rule:nonzero;"/>
                </g>
                <g transform="matrix(72,0,0,72,5795.79,7059.47)">
                    <path d="M0.125,-0.223L0.125,-0.288L0.195,-0.288C0.207,-0.288 0.219,-0.29 0.231,-0.294C0.242,-0.298 0.253,-0.304 0.262,-0.311C0.271,-0.318 0.279,-0.326 0.285,-0.336C0.29,-0.345 0.293,-0.355 0.293,-0.366C0.293,-0.392 0.284,-0.41 0.266,-0.421C0.248,-0.432 0.221,-0.437 0.185,-0.437C0.159,-0.437 0.135,-0.433 0.114,-0.425C0.092,-0.417 0.075,-0.409 0.063,-0.402L0.04,-0.464C0.06,-0.475 0.084,-0.485 0.111,-0.494C0.137,-0.503 0.17,-0.507 0.207,-0.507C0.318,-0.507 0.373,-0.466 0.373,-0.384C0.373,-0.361 0.366,-0.338 0.351,-0.316C0.335,-0.293 0.314,-0.277 0.286,-0.268L0.286,-0.264C0.325,-0.257 0.353,-0.243 0.369,-0.222C0.384,-0.201 0.392,-0.174 0.392,-0.14C0.392,-0.119 0.388,-0.099 0.379,-0.081C0.37,-0.063 0.357,-0.047 0.34,-0.034C0.323,-0.021 0.301,-0.01 0.275,-0.003C0.248,0.005 0.218,0.009 0.183,0.009C0.149,0.009 0.121,0.006 0.099,-0C0.076,-0.006 0.056,-0.013 0.038,-0.022L0.061,-0.088C0.076,-0.079 0.095,-0.073 0.117,-0.068C0.138,-0.063 0.162,-0.061 0.187,-0.061C0.228,-0.061 0.259,-0.068 0.28,-0.082C0.301,-0.096 0.312,-0.117 0.312,-0.146C0.312,-0.17 0.302,-0.189 0.282,-0.203C0.262,-0.216 0.229,-0.223 0.183,-0.223L0.125,-0.223Z" style="fill-rule:nonzero;"/>
                </g>
                <g transform="matrix(72,0,0,72,5827.54,7059.47)">
                    <path d="M0.157,-0.07C0.182,-0.066 0.205,-0.064 0.228,-0.064C0.27,-0.064 0.301,-0.072 0.321,-0.089C0.341,-0.105 0.351,-0.128 0.351,-0.158C0.351,-0.185 0.341,-0.207 0.322,-0.224C0.303,-0.241 0.272,-0.25 0.231,-0.25C0.22,-0.25 0.207,-0.25 0.194,-0.249C0.181,-0.248 0.168,-0.246 0.157,-0.243L0.157,-0.07ZM0.157,-0.309C0.173,-0.312 0.188,-0.314 0.203,-0.315C0.218,-0.316 0.232,-0.316 0.245,-0.316C0.28,-0.316 0.309,-0.312 0.333,-0.305C0.357,-0.297 0.377,-0.286 0.392,-0.273C0.407,-0.26 0.417,-0.244 0.424,-0.226C0.431,-0.207 0.434,-0.188 0.434,-0.167C0.434,-0.106 0.416,-0.062 0.38,-0.035C0.343,-0.008 0.287,0.006 0.21,0.006C0.167,0.006 0.123,0.004 0.077,-0L0.077,-0.5L0.157,-0.5L0.157,-0.309Z" style="fill-rule:nonzero;"/>
                </g>
                <g transform="matrix(72,0,0,72,5259.53,7140.04)">
                    <path d="M0.49,-0.297L0.496,-0.392L0.491,-0.392L0.455,-0.315L0.334,-0.119L0.306,-0.119L0.18,-0.315L0.147,-0.392L0.143,-0.392L0.151,-0.298L0.151,-0L0.077,-0L0.077,-0.5L0.156,-0.5L0.296,-0.276L0.325,-0.218L0.327,-0.218L0.357,-0.278L0.488,-0.5L0.568,-0.5L0.568,-0L0.49,-0L0.49,-0.297Z" style="fill-rule:nonzero;"/>
                </g>
                <g transform="matrix(72,0,0,72,5305.97,7140.04)">
                    <path d="M0.442,-0.04C0.422,-0.024 0.397,-0.011 0.367,-0.002C0.336,0.007 0.304,0.012 0.27,0.012C0.232,0.012 0.199,0.006 0.171,-0.007C0.143,-0.019 0.12,-0.037 0.102,-0.06C0.084,-0.083 0.071,-0.11 0.062,-0.142C0.053,-0.174 0.049,-0.21 0.049,-0.25C0.049,-0.335 0.068,-0.4 0.106,-0.445C0.144,-0.49 0.198,-0.512 0.269,-0.512C0.292,-0.512 0.314,-0.51 0.337,-0.505C0.36,-0.5 0.38,-0.49 0.398,-0.476C0.416,-0.462 0.431,-0.442 0.442,-0.417C0.453,-0.391 0.459,-0.357 0.459,-0.315C0.459,-0.293 0.457,-0.269 0.453,-0.242L0.132,-0.242C0.132,-0.213 0.135,-0.187 0.141,-0.164C0.147,-0.141 0.156,-0.122 0.169,-0.107C0.182,-0.091 0.198,-0.079 0.219,-0.071C0.239,-0.062 0.264,-0.058 0.293,-0.058C0.316,-0.058 0.338,-0.062 0.361,-0.07C0.384,-0.078 0.401,-0.087 0.412,-0.098L0.442,-0.04ZM0.27,-0.442C0.231,-0.442 0.199,-0.432 0.176,-0.411C0.152,-0.39 0.138,-0.355 0.133,-0.305L0.381,-0.305C0.381,-0.356 0.371,-0.391 0.352,-0.412C0.333,-0.432 0.305,-0.442 0.27,-0.442Z" style="fill-rule:nonzero;"/>
                </g>
                <g transform="matrix(72,0,0,72,5342.55,7140.04)">
                    <path d="M0.24,-0.221L0.093,-0L0.001,-0L0.159,-0.229L0.193,-0.259L0.142,-0.297L0.012,-0.5L0.097,-0.5L0.235,-0.284L0.287,-0.284L0.287,-0.5L0.365,-0.5L0.365,-0.274L0.412,-0.288L0.551,-0.5L0.635,-0.5L0.499,-0.297L0.46,-0.265L0.511,-0.225L0.659,-0L0.564,-0L0.417,-0.225L0.365,-0.225L0.365,-0L0.287,-0L0.287,-0.235L0.24,-0.221Z" style="fill-rule:nonzero;"/>
                </g>
                <g transform="matrix(72,0,0,72,5390,7140.04)">
                    <path d="M0.519,0.127L0.465,0.127L0.45,-0L0.074,-0L0.059,0.127L0.005,0.127L0.005,-0.07L0.064,-0.07C0.069,-0.077 0.076,-0.091 0.085,-0.11C0.094,-0.129 0.102,-0.155 0.111,-0.19C0.119,-0.224 0.126,-0.267 0.133,-0.318C0.139,-0.369 0.143,-0.429 0.144,-0.5L0.446,-0.5L0.446,-0.07L0.519,-0.07L0.519,0.127ZM0.366,-0.07L0.366,-0.43L0.216,-0.43C0.215,-0.402 0.212,-0.372 0.209,-0.339C0.206,-0.306 0.201,-0.273 0.196,-0.24C0.19,-0.207 0.183,-0.175 0.174,-0.146C0.165,-0.117 0.155,-0.091 0.144,-0.07L0.366,-0.07Z" style="fill-rule:nonzero;"/>
                </g>
                <g transform="matrix(72,0,0,72,5428.95,7140.04)">
                    <path d="M0.224,-0.176L0.252,-0.08L0.257,-0.08L0.279,-0.177L0.376,-0.5L0.457,-0.5L0.309,-0.051C0.298,-0.018 0.286,0.013 0.276,0.044C0.265,0.075 0.252,0.102 0.239,0.126C0.226,0.15 0.211,0.169 0.194,0.184C0.177,0.198 0.158,0.205 0.136,0.205C0.112,0.205 0.092,0.202 0.077,0.195L0.091,0.126C0.1,0.129 0.108,0.131 0.116,0.131C0.135,0.131 0.153,0.121 0.17,0.102C0.187,0.082 0.202,0.048 0.213,-0L0.012,-0.5L0.104,-0.5L0.224,-0.176Z" style="fill-rule:nonzero;"/>
                </g>
                <g transform="matrix(72,0,0,72,5481.72,7140.04)">
                    <path d="M0.326,-0.207L0.249,-0.195L0.117,-0L0.02,-0L0.14,-0.171L0.18,-0.208C0.145,-0.213 0.116,-0.227 0.092,-0.25C0.067,-0.273 0.055,-0.303 0.055,-0.342C0.055,-0.372 0.06,-0.398 0.071,-0.419C0.081,-0.44 0.096,-0.458 0.115,-0.472C0.134,-0.486 0.157,-0.496 0.184,-0.503C0.211,-0.509 0.241,-0.512 0.274,-0.512C0.299,-0.512 0.322,-0.51 0.343,-0.507C0.364,-0.504 0.385,-0.5 0.406,-0.496L0.406,-0L0.326,-0L0.326,-0.207ZM0.326,-0.432C0.317,-0.435 0.308,-0.438 0.297,-0.44C0.286,-0.441 0.277,-0.442 0.269,-0.442C0.226,-0.442 0.194,-0.434 0.172,-0.419C0.149,-0.404 0.138,-0.379 0.138,-0.346C0.138,-0.316 0.15,-0.293 0.174,-0.277C0.197,-0.26 0.228,-0.252 0.267,-0.252L0.278,-0.252C0.282,-0.252 0.288,-0.252 0.295,-0.253C0.302,-0.253 0.313,-0.253 0.326,-0.254L0.326,-0.432Z" style="fill-rule:nonzero;"/>
                </g>
                <g transform="matrix(72,0,0,72,5515.92,7140.04)">
                    <path d="M0.077,-0.499C0.1,-0.5 0.125,-0.502 0.151,-0.504C0.176,-0.506 0.208,-0.507 0.246,-0.507C0.312,-0.507 0.359,-0.497 0.388,-0.477C0.417,-0.456 0.431,-0.425 0.431,-0.384C0.431,-0.361 0.424,-0.338 0.411,-0.316C0.397,-0.293 0.374,-0.277 0.343,-0.266L0.343,-0.262C0.382,-0.255 0.41,-0.241 0.426,-0.221C0.442,-0.201 0.45,-0.174 0.45,-0.141C0.45,-0.089 0.431,-0.051 0.394,-0.028C0.357,-0.005 0.301,0.007 0.226,0.007C0.198,0.007 0.172,0.006 0.148,0.005C0.124,0.003 0.1,0.001 0.077,-0.001L0.077,-0.499ZM0.157,-0.067C0.17,-0.066 0.182,-0.065 0.195,-0.064C0.207,-0.063 0.221,-0.063 0.238,-0.063C0.283,-0.063 0.316,-0.069 0.338,-0.082C0.359,-0.095 0.37,-0.116 0.37,-0.147C0.37,-0.171 0.361,-0.191 0.343,-0.206C0.324,-0.221 0.292,-0.228 0.245,-0.228L0.157,-0.228L0.157,-0.067ZM0.255,-0.289C0.267,-0.289 0.279,-0.291 0.29,-0.295C0.301,-0.299 0.312,-0.305 0.321,-0.312C0.33,-0.319 0.337,-0.327 0.343,-0.336C0.348,-0.345 0.351,-0.355 0.351,-0.366C0.351,-0.393 0.343,-0.411 0.327,-0.422C0.311,-0.432 0.283,-0.437 0.243,-0.437C0.222,-0.437 0.205,-0.437 0.193,-0.436C0.18,-0.435 0.168,-0.435 0.157,-0.434L0.157,-0.289L0.255,-0.289Z" style="fill-rule:nonzero;"/>
                </g>
                <g transform="matrix(72,0,0,72,5551.85,7140.04)">
                    <path d="M0.346,-0.43L0.201,-0.43C0.199,-0.402 0.197,-0.372 0.195,-0.34C0.193,-0.307 0.19,-0.275 0.186,-0.243C0.182,-0.21 0.177,-0.179 0.17,-0.15C0.163,-0.12 0.155,-0.094 0.145,-0.071C0.134,-0.048 0.122,-0.03 0.107,-0.017C0.092,-0.003 0.074,0.004 0.053,0.004C0.04,0.004 0.029,0.003 0.02,0.002C0.011,0.001 0.002,-0.002 -0.005,-0.005L0.007,-0.072C0.015,-0.069 0.024,-0.068 0.033,-0.068C0.046,-0.068 0.058,-0.074 0.069,-0.085C0.08,-0.096 0.089,-0.118 0.097,-0.15C0.105,-0.181 0.112,-0.225 0.117,-0.281C0.122,-0.337 0.126,-0.41 0.128,-0.5L0.426,-0.5L0.426,-0L0.346,-0L0.346,-0.43Z" style="fill-rule:nonzero;"/>
                </g>
                <g transform="matrix(72,0,0,72,5588.07,7140.04)">
                    <path d="M0.442,-0.04C0.422,-0.024 0.397,-0.011 0.367,-0.002C0.336,0.007 0.304,0.012 0.27,0.012C0.232,0.012 0.199,0.006 0.171,-0.007C0.143,-0.019 0.12,-0.037 0.102,-0.06C0.084,-0.083 0.071,-0.11 0.062,-0.142C0.053,-0.174 0.049,-0.21 0.049,-0.25C0.049,-0.335 0.068,-0.4 0.106,-0.445C0.144,-0.49 0.198,-0.512 0.269,-0.512C0.292,-0.512 0.314,-0.51 0.337,-0.505C0.36,-0.5 0.38,-0.49 0.398,-0.476C0.416,-0.462 0.431,-0.442 0.442,-0.417C0.453,-0.391 0.459,-0.357 0.459,-0.315C0.459,-0.293 0.457,-0.269 0.453,-0.242L0.132,-0.242C0.132,-0.213 0.135,-0.187 0.141,-0.164C0.147,-0.141 0.156,-0.122 0.169,-0.107C0.182,-0.091 0.198,-0.079 0.219,-0.071C0.239,-0.062 0.264,-0.058 0.293,-0.058C0.316,-0.058 0.338,-0.062 0.361,-0.07C0.384,-0.078 0.401,-0.087 0.412,-0.098L0.442,-0.04ZM0.27,-0.442C0.231,-0.442 0.199,-0.432 0.176,-0.411C0.152,-0.39 0.138,-0.355 0.133,-0.305L0.381,-0.305C0.381,-0.356 0.371,-0.391 0.352,-0.412C0.333,-0.432 0.305,-0.442 0.27,-0.442Z" style="fill-rule:nonzero;"/>
                </g>
                <g transform="matrix(72,0,0,72,5624.64,7140.04)">
                    <path d="M0.383,-0.221L0.157,-0.221L0.157,-0L0.077,-0L0.077,-0.5L0.157,-0.5L0.157,-0.291L0.383,-0.291L0.383,-0.5L0.463,-0.5L0.463,-0L0.383,-0L0.383,-0.221Z" style="fill-rule:nonzero;"/>
                </g>
                <g transform="matrix(72,0,0,72,5663.52,7140.04)">
                    <path d="M0.389,-0.296L0.392,-0.358L0.389,-0.358L0.348,-0.294L0.123,-0L0.077,-0L0.077,-0.5L0.157,-0.5L0.157,-0.195L0.154,-0.136L0.158,-0.136L0.197,-0.198L0.422,-0.5L0.469,-0.5L0.469,-0L0.389,-0L0.389,-0.296Z" style="fill-rule:nonzero;"/>
                </g>
                <g transform="matrix(72,0,0,72,5702.84,7140.04)">
                    <path d="M0.326,-0.207L0.249,-0.195L0.117,-0L0.02,-0L0.14,-0.171L0.18,-0.208C0.145,-0.213 0.116,-0.227 0.092,-0.25C0.067,-0.273 0.055,-0.303 0.055,-0.342C0.055,-0.372 0.06,-0.398 0.071,-0.419C0.081,-0.44 0.096,-0.458 0.115,-0.472C0.134,-0.486 0.157,-0.496 0.184,-0.503C0.211,-0.509 0.241,-0.512 0.274,-0.512C0.299,-0.512 0.322,-0.51 0.343,-0.507C0.364,-0.504 0.385,-0.5 0.406,-0.496L0.406,-0L0.326,-0L0.326,-0.207ZM0.326,-0.432C0.317,-0.435 0.308,-0.438 0.297,-0.44C0.286,-0.441 0.277,-0.442 0.269,-0.442C0.226,-0.442 0.194,-0.434 0.172,-0.419C0.149,-0.404 0.138,-0.379 0.138,-0.346C0.138,-0.316 0.15,-0.293 0.174,-0.277C0.197,-0.26 0.228,-0.252 0.267,-0.252L0.278,-0.252C0.282,-0.252 0.288,-0.252 0.295,-0.253C0.302,-0.253 0.313,-0.253 0.326,-0.254L0.326,-0.432Z" style="fill-rule:nonzero;"/>
                </g>
                <g transform="matrix(72,0,0,72,5737.04,7140.04)">
                    <path d="M0.49,-0.297L0.496,-0.392L0.491,-0.392L0.455,-0.315L0.334,-0.119L0.306,-0.119L0.18,-0.315L0.147,-0.392L0.143,-0.392L0.151,-0.298L0.151,-0L0.077,-0L0.077,-0.5L0.156,-0.5L0.296,-0.276L0.325,-0.218L0.327,-0.218L0.357,-0.278L0.488,-0.5L0.568,-0.5L0.568,-0L0.49,-0L0.49,-0.297Z" style="fill-rule:nonzero;"/>
                </g>
                <g transform="matrix(72,0,0,72,5783.48,7140.04)">
                    <path d="M0.389,-0.296L0.392,-0.358L0.389,-0.358L0.348,-0.294L0.123,-0L0.077,-0L0.077,-0.5L0.157,-0.5L0.157,-0.195L0.154,-0.136L0.158,-0.136L0.197,-0.198L0.422,-0.5L0.469,-0.5L0.469,-0L0.389,-0L0.389,-0.296Z" style="fill-rule:nonzero;"/>
                </g>
                <g transform="matrix(72,0,0,72,5822.79,7140.04)">
                    <path d="M0.15,-0.177C0.149,-0.18 0.149,-0.184 0.149,-0.188L0.149,-0.199C0.149,-0.227 0.153,-0.252 0.162,-0.273C0.17,-0.294 0.18,-0.314 0.193,-0.332C0.205,-0.349 0.218,-0.366 0.233,-0.381C0.247,-0.396 0.26,-0.412 0.273,-0.428C0.285,-0.443 0.295,-0.46 0.304,-0.478C0.312,-0.495 0.316,-0.515 0.316,-0.538C0.316,-0.569 0.307,-0.594 0.29,-0.613C0.272,-0.632 0.242,-0.642 0.201,-0.642C0.177,-0.642 0.153,-0.638 0.128,-0.63C0.103,-0.621 0.082,-0.611 0.064,-0.6L0.037,-0.662C0.062,-0.677 0.089,-0.69 0.117,-0.699C0.145,-0.708 0.18,-0.712 0.221,-0.712C0.25,-0.712 0.276,-0.708 0.299,-0.7C0.321,-0.691 0.339,-0.68 0.355,-0.665C0.37,-0.65 0.381,-0.633 0.388,-0.613C0.395,-0.593 0.399,-0.572 0.399,-0.549C0.399,-0.519 0.395,-0.493 0.386,-0.471C0.377,-0.448 0.365,-0.428 0.352,-0.41C0.338,-0.391 0.323,-0.374 0.308,-0.358C0.292,-0.342 0.277,-0.325 0.264,-0.308C0.25,-0.29 0.239,-0.271 0.23,-0.25C0.221,-0.229 0.216,-0.205 0.216,-0.177L0.15,-0.177ZM0.13,-0.046C0.13,-0.064 0.135,-0.078 0.146,-0.089C0.156,-0.099 0.17,-0.104 0.187,-0.104C0.205,-0.104 0.219,-0.099 0.23,-0.089C0.241,-0.078 0.246,-0.064 0.246,-0.046C0.246,-0.029 0.241,-0.015 0.23,-0.004C0.219,0.007 0.205,0.012 0.187,0.012C0.17,0.012 0.156,0.007 0.146,-0.004C0.135,-0.015 0.13,-0.029 0.13,-0.046Z" style="fill-rule:nonzero;"/>
                </g>
            </g>
            <g transform="matrix(1.34921,0,0,1.34921,-2679.05,-2546.35)">
                <path d="M7563,7372C7528.23,7372 7500,7343.77 7500,7309C7500,7274.23 7528.23,7246 7563,7246L7563,7372Z" style="fill:rgb(255,78,78);stroke:black;stroke-width:2.96px;stroke-linecap:round;"/>
            </g>
            <g transform="matrix(1.34921,0,0,1.34921,-2696.98,-2184.2)">
                <path d="M7563,7372C7528.23,7372 7500,7343.77 7500,7309C7500,7274.23 7528.23,7246 7563,7246L7563,7372Z" style="fill:rgb(255,78,78);stroke:black;stroke-width:2.96px;stroke-linecap:round;"/>
            </g>
            <g transform="matrix(1.32103,0,0,1.32103,-2828.17,-2373.68)">
                <path d="M7563,7372C7528.23,7372 7500,7343.77 7500,7309C7500,7274.23 7528.23,7246 7563,7246L7563,7372Z" style="fill:rgb(255,153,153);stroke:black;stroke-width:3.03px;stroke-linecap:round;"/>
            </g>
            <g transform="matrix(1.26984,0,0,1.26984,-2302.25,-1575.03)">
                <path d="M7563,7372C7528.23,7372 7500,7343.77 7500,7309C7500,7274.23 7528.23,7246 7563,7246L7563,7372Z" style="fill:rgb(255,153,153);stroke:black;stroke-width:3.15px;stroke-linecap:round;"/>
            </g>
            <g transform="matrix(1.3254,0,0,1.3254,-2699.42,-2252.85)">
                <path d="M7563,7372C7528.23,7372 7500,7343.77 7500,7309C7500,7274.23 7528.23,7246 7563,7246L7563,7372Z" style="fill:rgb(255,216,216);stroke:black;stroke-width:3.02px;stroke-linecap:round;"/>
            </g>
            <g transform="matrix(1.34921,0,0,1.34921,-3112.27,-2334.28)">
                <path d="M7563,7372C7528.23,7372 7500,7343.77 7500,7309C7500,7274.23 7528.23,7246 7563,7246L7563,7372Z" style="fill:rgb(255,216,216);stroke:black;stroke-width:2.96px;stroke-linecap:round;"/>
            </g>
            <g transform="matrix(1.34921,0,0,1.34921,-2679.05,-2546.35)">
                <path d="M7563,7246C7597.77,7246 7626,7274.23 7626,7309C7626,7343.77 7597.77,7372 7563,7372L7563,7246Z" style="fill:rgb(0,179,30);stroke:black;stroke-width:2.96px;stroke-linecap:round;"/>
            </g>
            <g transform="matrix(1.34921,0,0,1.34921,-2696.98,-2184.2)">
                <path d="M7563,7246C7597.77,7246 7626,7274.23 7626,7309C7626,7343.77 7597.77,7372 7563,7372L7563,7246Z" style="fill:rgb(177,246,188);stroke:black;stroke-width:2.96px;stroke-linecap:round;"/>
            </g>
            <g transform="matrix(1.32103,0,0,1.32103,-2828.17,-2373.68)">
                <path d="M7563,7246C7597.77,7246 7626,7274.23 7626,7309C7626,7343.77 7597.77,7372 7563,7372L7563,7246Z" style="fill:rgb(118,239,138);stroke:black;stroke-width:3.03px;stroke-linecap:round;"/>
            </g>
            <g transform="matrix(1.26984,0,0,1.26984,-2302.25,-1575.03)">
                <path d="M7563,7246C7597.77,7246 7626,7274.23 7626,7309C7626,7343.77 7597.77,7372 7563,7372L7563,7246Z" style="fill:rgb(118,239,138);stroke:black;stroke-width:3.15px;stroke-linecap:round;"/>
            </g>
            <g transform="matrix(1.3254,0,0,1.3254,-2699.42,-2252.85)">
                <path d="M7563,7246C7597.77,7246 7626,7274.23 7626,7309C7626,7343.77 7597.77,7372 7563,7372L7563,7246Z" style="fill:rgb(177,246,188);stroke:black;stroke-width:3.02px;stroke-linecap:round;"/>
            </g>
            <g transform="matrix(1.34921,0,0,1.34921,-3112.27,-2334.28)">
                <path d="M7563,7246C7597.77,7246 7626,7274.23 7626,7309C7626,7343.77 7597.77,7372 7563,7372L7563,7246Z" style="fill:rgb(0,179,30);stroke:black;stroke-width:2.96px;stroke-linecap:round;"/>
            </g>
            <path d="M6965.81,7316L7153.78,7415L7296.68,7587.07L7510.33,7530.07L7637.31,7419.07" style="fill:none;stroke:black;stroke-width:7px;stroke-dasharray:7,21,0,0;"/>
            <g transform="matrix(1,0,0,1,-66.8551,-123.987)">
                <g transform="matrix(84,0,0,84,7527.35,7465.71)">
                    <path d="M0.068,-0.167C0.068,-0.209 0.079,-0.246 0.101,-0.277C0.123,-0.308 0.157,-0.336 0.204,-0.361C0.187,-0.371 0.172,-0.382 0.158,-0.393C0.143,-0.404 0.131,-0.416 0.12,-0.43C0.109,-0.444 0.1,-0.46 0.094,-0.477C0.087,-0.494 0.084,-0.514 0.084,-0.537C0.084,-0.563 0.089,-0.587 0.098,-0.608C0.107,-0.629 0.12,-0.648 0.137,-0.663C0.154,-0.678 0.174,-0.69 0.198,-0.699C0.221,-0.708 0.248,-0.712 0.278,-0.712C0.306,-0.712 0.331,-0.708 0.354,-0.7C0.377,-0.692 0.396,-0.681 0.412,-0.667C0.427,-0.653 0.439,-0.636 0.448,-0.617C0.457,-0.598 0.461,-0.576 0.461,-0.553C0.461,-0.515 0.452,-0.482 0.435,-0.453C0.418,-0.424 0.389,-0.395 0.349,-0.367C0.366,-0.357 0.383,-0.346 0.399,-0.334C0.414,-0.322 0.428,-0.309 0.44,-0.294C0.451,-0.279 0.46,-0.263 0.467,-0.245C0.474,-0.226 0.477,-0.205 0.477,-0.182C0.477,-0.153 0.472,-0.127 0.463,-0.104C0.454,-0.08 0.44,-0.06 0.422,-0.043C0.404,-0.026 0.382,-0.012 0.356,-0.003C0.33,0.007 0.3,0.012 0.267,0.012C0.235,0.012 0.207,0.007 0.182,-0.002C0.157,-0.011 0.136,-0.024 0.12,-0.04C0.102,-0.056 0.09,-0.075 0.081,-0.097C0.072,-0.118 0.068,-0.142 0.068,-0.167ZM0.399,-0.177C0.399,-0.197 0.395,-0.215 0.387,-0.23C0.379,-0.245 0.369,-0.258 0.356,-0.271C0.343,-0.283 0.328,-0.294 0.311,-0.304C0.294,-0.314 0.277,-0.324 0.259,-0.333C0.218,-0.31 0.189,-0.285 0.172,-0.257C0.155,-0.229 0.146,-0.202 0.146,-0.177C0.146,-0.161 0.149,-0.146 0.154,-0.131C0.159,-0.116 0.167,-0.104 0.178,-0.093C0.189,-0.082 0.202,-0.074 0.218,-0.068C0.233,-0.061 0.251,-0.058 0.272,-0.058C0.289,-0.058 0.305,-0.061 0.32,-0.066C0.335,-0.07 0.349,-0.078 0.361,-0.088C0.372,-0.097 0.382,-0.11 0.389,-0.125C0.396,-0.139 0.399,-0.157 0.399,-0.177ZM0.162,-0.539C0.162,-0.52 0.166,-0.504 0.173,-0.49C0.18,-0.475 0.19,-0.462 0.203,-0.451C0.215,-0.44 0.229,-0.429 0.245,-0.42C0.261,-0.41 0.278,-0.401 0.295,-0.392C0.325,-0.415 0.347,-0.438 0.362,-0.461C0.376,-0.484 0.383,-0.509 0.383,-0.536C0.383,-0.57 0.373,-0.596 0.352,-0.615C0.331,-0.633 0.305,-0.642 0.276,-0.642C0.258,-0.642 0.242,-0.639 0.228,-0.633C0.214,-0.627 0.202,-0.619 0.192,-0.61C0.182,-0.601 0.174,-0.59 0.17,-0.578C0.165,-0.565 0.162,-0.552 0.162,-0.539Z" style="fill-rule:nonzero;"/>
                </g>
            </g>
            <g transform="matrix(1,0,0,1,-80.4537,239.354)">
                <g transform="matrix(84,0,0,84,7527.35,7465.71)">
                    <path d="M0.068,-0.167C0.068,-0.209 0.079,-0.246 0.101,-0.277C0.123,-0.308 0.157,-0.336 0.204,-0.361C0.187,-0.371 0.172,-0.382 0.158,-0.393C0.143,-0.404 0.131,-0.416 0.12,-0.43C0.109,-0.444 0.1,-0.46 0.094,-0.477C0.087,-0.494 0.084,-0.514 0.084,-0.537C0.084,-0.563 0.089,-0.587 0.098,-0.608C0.107,-0.629 0.12,-0.648 0.137,-0.663C0.154,-0.678 0.174,-0.69 0.198,-0.699C0.221,-0.708 0.248,-0.712 0.278,-0.712C0.306,-0.712 0.331,-0.708 0.354,-0.7C0.377,-0.692 0.396,-0.681 0.412,-0.667C0.427,-0.653 0.439,-0.636 0.448,-0.617C0.457,-0.598 0.461,-0.576 0.461,-0.553C0.461,-0.515 0.452,-0.482 0.435,-0.453C0.418,-0.424 0.389,-0.395 0.349,-0.367C0.366,-0.357 0.383,-0.346 0.399,-0.334C0.414,-0.322 0.428,-0.309 0.44,-0.294C0.451,-0.279 0.46,-0.263 0.467,-0.245C0.474,-0.226 0.477,-0.205 0.477,-0.182C0.477,-0.153 0.472,-0.127 0.463,-0.104C0.454,-0.08 0.44,-0.06 0.422,-0.043C0.404,-0.026 0.382,-0.012 0.356,-0.003C0.33,0.007 0.3,0.012 0.267,0.012C0.235,0.012 0.207,0.007 0.182,-0.002C0.157,-0.011 0.136,-0.024 0.12,-0.04C0.102,-0.056 0.09,-0.075 0.081,-0.097C0.072,-0.118 0.068,-0.142 0.068,-0.167ZM0.399,-0.177C0.399,-0.197 0.395,-0.215 0.387,-0.23C0.379,-0.245 0.369,-0.258 0.356,-0.271C0.343,-0.283 0.328,-0.294 0.311,-0.304C0.294,-0.314 0.277,-0.324 0.259,-0.333C0.218,-0.31 0.189,-0.285 0.172,-0.257C0.155,-0.229 0.146,-0.202 0.146,-0.177C0.146,-0.161 0.149,-0.146 0.154,-0.131C0.159,-0.116 0.167,-0.104 0.178,-0.093C0.189,-0.082 0.202,-0.074 0.218,-0.068C0.233,-0.061 0.251,-0.058 0.272,-0.058C0.289,-0.058 0.305,-0.061 0.32,-0.066C0.335,-0.07 0.349,-0.078 0.361,-0.088C0.372,-0.097 0.382,-0.11 0.389,-0.125C0.396,-0.139 0.399,-0.157 0.399,-0.177ZM0.162,-0.539C0.162,-0.52 0.166,-0.504 0.173,-0.49C0.18,-0.475 0.19,-0.462 0.203,-0.451C0.215,-0.44 0.229,-0.429 0.245,-0.42C0.261,-0.41 0.278,-0.401 0.295,-0.392C0.325,-0.415 0.347,-0.438 0.362,-0.461C0.376,-0.484 0.383,-0.509 0.383,-0.536C0.383,-0.57 0.373,-0.596 0.352,-0.615C0.331,-0.633 0.305,-0.642 0.276,-0.642C0.258,-0.642 0.242,-0.639 0.228,-0.633C0.214,-0.627 0.202,-0.619 0.192,-0.61C0.182,-0.601 0.174,-0.59 0.17,-0.578C0.165,-0.565 0.162,-0.552 0.162,-0.539Z" style="fill-rule:nonzero;"/>
                </g>
            </g>
            <g transform="matrix(1,0,0,1,17.6591,-123.987)">
                <g transform="matrix(84,0,0,84,7527.35,7465.71)">
                    <path d="M0.11,-0L0.361,-0.586L0.405,-0.635L0.346,-0.626L0.061,-0.626L0.061,-0.7L0.479,-0.7L0.479,-0.673L0.191,-0L0.11,-0Z" style="fill-rule:nonzero;"/>
                </g>
            </g>
            <g transform="matrix(1,0,0,1,-415.206,90.7536)">
                <g transform="matrix(84,0,0,84,7527.35,7465.71)">
                    <path d="M0.11,-0L0.361,-0.586L0.405,-0.635L0.346,-0.626L0.061,-0.626L0.061,-0.7L0.479,-0.7L0.479,-0.673L0.191,-0L0.11,-0Z" style="fill-rule:nonzero;"/>
                </g>
            </g>
            <g transform="matrix(1,0,0,1,-424.542,-152.419)">
                <g transform="matrix(84,0,0,84,7527.35,7465.71)">
                    <path d="M0.234,-0.058C0.257,-0.058 0.278,-0.061 0.297,-0.068C0.316,-0.075 0.333,-0.085 0.347,-0.098C0.361,-0.111 0.372,-0.126 0.38,-0.144C0.388,-0.162 0.392,-0.182 0.392,-0.203C0.392,-0.25 0.378,-0.284 0.351,-0.307C0.323,-0.33 0.285,-0.341 0.236,-0.341L0.162,-0.341L0.162,-0.37L0.306,-0.592L0.352,-0.636L0.287,-0.626L0.089,-0.626L0.089,-0.7L0.446,-0.7L0.446,-0.671L0.287,-0.432L0.252,-0.403L0.252,-0.401L0.286,-0.408C0.313,-0.407 0.337,-0.403 0.36,-0.394C0.383,-0.385 0.402,-0.372 0.419,-0.355C0.436,-0.337 0.449,-0.317 0.458,-0.294C0.467,-0.27 0.472,-0.243 0.472,-0.213C0.472,-0.177 0.466,-0.145 0.453,-0.117C0.44,-0.089 0.423,-0.066 0.402,-0.047C0.38,-0.028 0.354,-0.013 0.325,-0.003C0.296,0.007 0.265,0.012 0.232,0.012C0.202,0.012 0.175,0.01 0.151,0.005C0.127,0 0.106,-0.006 0.088,-0.013L0.109,-0.084C0.124,-0.077 0.142,-0.07 0.164,-0.066C0.185,-0.061 0.208,-0.058 0.234,-0.058Z" style="fill-rule:nonzero;"/>
                </g>
            </g>
            <g transform="matrix(1,0,0,1,-284.628,270.514)">
                <g transform="matrix(84,0,0,84,7527.35,7465.71)">
                    <path d="M0.234,-0.058C0.257,-0.058 0.278,-0.061 0.297,-0.068C0.316,-0.075 0.333,-0.085 0.347,-0.098C0.361,-0.111 0.372,-0.126 0.38,-0.144C0.388,-0.162 0.392,-0.182 0.392,-0.203C0.392,-0.25 0.378,-0.284 0.351,-0.307C0.323,-0.33 0.285,-0.341 0.236,-0.341L0.162,-0.341L0.162,-0.37L0.306,-0.592L0.352,-0.636L0.287,-0.626L0.089,-0.626L0.089,-0.7L0.446,-0.7L0.446,-0.671L0.287,-0.432L0.252,-0.403L0.252,-0.401L0.286,-0.408C0.313,-0.407 0.337,-0.403 0.36,-0.394C0.383,-0.385 0.402,-0.372 0.419,-0.355C0.436,-0.337 0.449,-0.317 0.458,-0.294C0.467,-0.27 0.472,-0.243 0.472,-0.213C0.472,-0.177 0.466,-0.145 0.453,-0.117C0.44,-0.089 0.423,-0.066 0.402,-0.047C0.38,-0.028 0.354,-0.013 0.325,-0.003C0.296,0.007 0.265,0.012 0.232,0.012C0.202,0.012 0.175,0.01 0.151,0.005C0.127,0 0.106,-0.006 0.088,-0.013L0.109,-0.084C0.124,-0.077 0.142,-0.07 0.164,-0.066C0.185,-0.061 0.208,-0.058 0.234,-0.058Z" style="fill-rule:nonzero;"/>
                </g>
            </g>
            <g transform="matrix(1,0,0,1,-348.27,-152.419)">
                <g transform="matrix(84,0,0,84,7527.35,7465.71)">
                    <path d="M0.524,-0.215L0.406,-0.215L0.406,-0L0.328,-0L0.328,-0.215L0.02,-0.215L0.02,-0.248L0.352,-0.711L0.406,-0.711L0.406,-0.285L0.524,-0.285L0.524,-0.215ZM0.328,-0.503L0.338,-0.585L0.335,-0.585L0.3,-0.517L0.159,-0.326L0.111,-0.277L0.181,-0.285L0.328,-0.285L0.328,-0.503Z" style="fill-rule:nonzero;"/>
                </g>
            </g>
            <g transform="matrix(1,0,0,1,-208.356,270.514)">
                <g transform="matrix(84,0,0,84,7527.35,7465.71)">
                    <path d="M0.524,-0.215L0.406,-0.215L0.406,-0L0.328,-0L0.328,-0.215L0.02,-0.215L0.02,-0.248L0.352,-0.711L0.406,-0.711L0.406,-0.285L0.524,-0.285L0.524,-0.215ZM0.328,-0.503L0.338,-0.585L0.335,-0.585L0.3,-0.517L0.159,-0.326L0.111,-0.277L0.181,-0.285L0.328,-0.285L0.328,-0.503Z" style="fill-rule:nonzero;"/>
                </g>
            </g>
            <g transform="matrix(1,0,0,1,-260.373,-3.83406)">
                <g transform="matrix(84,0,0,84,7527.35,7465.71)">
                    <path d="M0.108,-0.074L0.248,-0.074L0.248,-0.558L0.258,-0.617L0.218,-0.57L0.108,-0.491L0.07,-0.542L0.29,-0.712L0.326,-0.712L0.326,-0.074L0.463,-0.074L0.463,-0L0.108,-0L0.108,-0.074Z" style="fill-rule:nonzero;"/>
                </g>
            </g>
            <g transform="matrix(1,0,0,1,-495.158,91.0786)">
                <g transform="matrix(84,0,0,84,7527.35,7465.71)">
                    <path d="M0.108,-0.074L0.248,-0.074L0.248,-0.558L0.258,-0.617L0.218,-0.57L0.108,-0.491L0.07,-0.542L0.29,-0.712L0.326,-0.712L0.326,-0.074L0.463,-0.074L0.463,-0L0.108,-0L0.108,-0.074Z" style="fill-rule:nonzero;"/>
                </g>
            </g>
            <g transform="matrix(1,0,0,1,-184.502,-3.83406)">
                <g transform="matrix(84,0,0,84,7527.35,7465.71)">
                    <path d="M0.446,-0.541C0.446,-0.506 0.44,-0.47 0.427,-0.433C0.413,-0.396 0.397,-0.358 0.376,-0.321C0.355,-0.284 0.331,-0.247 0.305,-0.212C0.279,-0.176 0.253,-0.142 0.227,-0.11L0.178,-0.067L0.178,-0.063L0.242,-0.074L0.46,-0.074L0.46,-0L0.062,-0L0.062,-0.029C0.077,-0.044 0.094,-0.063 0.115,-0.086C0.136,-0.109 0.157,-0.134 0.18,-0.162C0.202,-0.189 0.224,-0.219 0.246,-0.25C0.267,-0.28 0.287,-0.312 0.305,-0.344C0.322,-0.376 0.336,-0.408 0.347,-0.439C0.358,-0.47 0.363,-0.5 0.363,-0.528C0.363,-0.561 0.354,-0.588 0.335,-0.61C0.316,-0.631 0.288,-0.642 0.25,-0.642C0.225,-0.642 0.2,-0.637 0.176,-0.627C0.152,-0.616 0.131,-0.604 0.114,-0.591L0.081,-0.648C0.104,-0.668 0.132,-0.684 0.164,-0.695C0.196,-0.706 0.23,-0.712 0.267,-0.712C0.296,-0.712 0.321,-0.708 0.343,-0.7C0.365,-0.691 0.384,-0.679 0.399,-0.664C0.414,-0.649 0.426,-0.631 0.434,-0.61C0.442,-0.588 0.446,-0.566 0.446,-0.541Z" style="fill-rule:nonzero;"/>
                </g>
            </g>
            <g transform="matrix(1,0,0,1,-5.03865,239.822)">
                <g transform="matrix(84,0,0,84,7527.35,7465.71)">
                    <path d="M0.446,-0.541C0.446,-0.506 0.44,-0.47 0.427,-0.433C0.413,-0.396 0.397,-0.358 0.376,-0.321C0.355,-0.284 0.331,-0.247 0.305,-0.212C0.279,-0.176 0.253,-0.142 0.227,-0.11L0.178,-0.067L0.178,-0.063L0.242,-0.074L0.46,-0.074L0.46,-0L0.062,-0L0.062,-0.029C0.077,-0.044 0.094,-0.063 0.115,-0.086C0.136,-0.109 0.157,-0.134 0.18,-0.162C0.202,-0.189 0.224,-0.219 0.246,-0.25C0.267,-0.28 0.287,-0.312 0.305,-0.344C0.322,-0.376 0.336,-0.408 0.347,-0.439C0.358,-0.47 0.363,-0.5 0.363,-0.528C0.363,-0.561 0.354,-0.588 0.335,-0.61C0.316,-0.631 0.288,-0.642 0.25,-0.642C0.225,-0.642 0.2,-0.637 0.176,-0.627C0.152,-0.616 0.131,-0.604 0.114,-0.591L0.081,-0.648C0.104,-0.668 0.132,-0.684 0.164,-0.695C0.196,-0.706 0.23,-0.712 0.267,-0.712C0.296,-0.712 0.321,-0.708 0.343,-0.7C0.365,-0.691 0.384,-0.679 0.399,-0.664C0.414,-0.649 0.426,-0.631 0.434,-0.61C0.442,-0.588 0.446,-0.566 0.446,-0.541Z" style="fill-rule:nonzero;"/>
                </g>
            </g>
            <g transform="matrix(1,0,0,1,54.7397,-18.6646)">
                <g transform="matrix(72,0,0,72,7222.02,7285.66)">
                    <path d="M0.33,-0.5L0.516,-0.5L0.516,-0.11L0.592,-0.11L0.592,-0L0.434,-0L0.411,-0.074L0.407,-0.074C0.392,-0.049 0.369,-0.028 0.338,-0.011C0.307,0.006 0.273,0.014 0.236,0.014C0.211,0.014 0.188,0.011 0.167,0.004C0.146,-0.003 0.128,-0.014 0.113,-0.029C0.098,-0.044 0.087,-0.065 0.079,-0.091C0.071,-0.117 0.067,-0.15 0.067,-0.189L0.067,-0.39L0.01,-0.39L0.01,-0.5L0.197,-0.5L0.197,-0.216C0.197,-0.175 0.204,-0.146 0.217,-0.128C0.23,-0.11 0.25,-0.101 0.278,-0.101C0.303,-0.101 0.325,-0.108 0.345,-0.123C0.364,-0.138 0.378,-0.156 0.386,-0.177L0.386,-0.39L0.33,-0.39L0.33,-0.5Z" style="fill:rgb(255,7,7);fill-rule:nonzero;"/>
                </g>
                <g transform="matrix(72,0,0,72,7265.22,7285.66)">
                    <path d="M0.064,-0.378C0.095,-0.403 0.124,-0.421 0.149,-0.431C0.173,-0.44 0.197,-0.445 0.218,-0.445C0.237,-0.445 0.255,-0.442 0.272,-0.437C0.289,-0.431 0.305,-0.425 0.32,-0.419C0.335,-0.412 0.351,-0.406 0.366,-0.401C0.381,-0.395 0.396,-0.392 0.411,-0.392C0.423,-0.392 0.435,-0.394 0.448,-0.398C0.461,-0.402 0.474,-0.41 0.488,-0.421L0.535,-0.318C0.511,-0.3 0.489,-0.287 0.469,-0.28C0.449,-0.273 0.43,-0.269 0.413,-0.269C0.394,-0.269 0.377,-0.272 0.361,-0.278C0.345,-0.284 0.33,-0.291 0.315,-0.298C0.3,-0.305 0.284,-0.312 0.269,-0.318C0.254,-0.324 0.237,-0.327 0.22,-0.327C0.204,-0.327 0.187,-0.324 0.169,-0.317C0.15,-0.31 0.13,-0.297 0.108,-0.278L0.064,-0.378Z" style="fill-rule:nonzero;"/>
                </g>
                <g transform="matrix(72,0,0,72,7308.42,7285.66)">
                    <path d="M0.313,-0.151L0.32,-0.151L0.432,-0.5L0.572,-0.5L0.381,-0L0.242,-0L0.027,-0.5L0.178,-0.5L0.313,-0.151Z" style="fill:rgb(33,153,0);fill-rule:nonzero;"/>
                </g>
            </g>
            <g transform="matrix(1,0,0,1,-164.674,485.818)">
                <g transform="matrix(72,0,0,72,7171.65,7285.66)">
                    <path d="M0.33,-0.5L0.516,-0.5L0.516,-0.11L0.592,-0.11L0.592,-0L0.434,-0L0.411,-0.074L0.407,-0.074C0.392,-0.049 0.369,-0.028 0.338,-0.011C0.307,0.006 0.273,0.014 0.236,0.014C0.211,0.014 0.188,0.011 0.167,0.004C0.146,-0.003 0.128,-0.014 0.113,-0.029C0.098,-0.044 0.087,-0.065 0.079,-0.091C0.071,-0.117 0.067,-0.15 0.067,-0.189L0.067,-0.39L0.01,-0.39L0.01,-0.5L0.197,-0.5L0.197,-0.216C0.197,-0.175 0.204,-0.146 0.217,-0.128C0.23,-0.11 0.25,-0.101 0.278,-0.101C0.303,-0.101 0.325,-0.108 0.345,-0.123C0.364,-0.138 0.378,-0.156 0.386,-0.177L0.386,-0.39L0.33,-0.39L0.33,-0.5Z" style="fill:rgb(255,7,7);fill-rule:nonzero;"/>
                </g>
                <g transform="matrix(72,0,0,72,7214.85,7285.66)">
                    <path d="M0.064,-0.378C0.095,-0.403 0.124,-0.421 0.149,-0.431C0.173,-0.44 0.197,-0.445 0.218,-0.445C0.237,-0.445 0.255,-0.442 0.272,-0.437C0.289,-0.431 0.305,-0.425 0.32,-0.419C0.335,-0.412 0.351,-0.406 0.366,-0.401C0.381,-0.395 0.396,-0.392 0.411,-0.392C0.423,-0.392 0.435,-0.394 0.448,-0.398C0.461,-0.402 0.474,-0.41 0.488,-0.421L0.535,-0.318C0.511,-0.3 0.489,-0.287 0.469,-0.28C0.449,-0.273 0.43,-0.269 0.413,-0.269C0.394,-0.269 0.377,-0.272 0.361,-0.278C0.345,-0.284 0.33,-0.291 0.315,-0.298C0.3,-0.305 0.284,-0.312 0.269,-0.318C0.254,-0.324 0.237,-0.327 0.22,-0.327C0.204,-0.327 0.187,-0.324 0.169,-0.317C0.15,-0.31 0.13,-0.297 0.108,-0.278L0.064,-0.378Z" style="fill-rule:nonzero;"/>
                </g>
                <g transform="matrix(72,0,0,72,7258.05,7285.66)">
                    <path d="M0.313,-0.151L0.32,-0.151L0.432,-0.5L0.572,-0.5L0.381,-0L0.242,-0L0.027,-0.5L0.178,-0.5L0.313,-0.151Z" style="fill:rgb(33,153,0);fill-rule:nonzero;"/>
                </g>
                <g transform="matrix(41.976,0,0,41.976,7301.25,7261.69)">
                    <rect x="0.154" y="-0.345" width="0.291" height="0.115" style="fill-rule:nonzero;"/>
                </g>
                <g transform="matrix(41.976,0,0,41.976,7326.43,7261.69)">
                    <path d="M0.106,-0.11L0.259,-0.11L0.259,-0.547L0.127,-0.446L0.067,-0.526L0.295,-0.7L0.383,-0.7L0.383,-0.11L0.533,-0.11L0.533,-0L0.106,-0L0.106,-0.11Z" style="fill-rule:nonzero;"/>
                </g>
            </g>
            <g transform="matrix(0.825,0,0,0.825,1363.21,1279.3)">
                <circle cx="7870" cy="7296" r="20"/>
            </g>
            <g transform="matrix(0.825,0,0,0.825,1335.46,1172.37)">
                <circle cx="7870" cy="7296" r="20"/>
            </g>
            <g transform="matrix(0.825,0,0,0.825,1404.89,1220.74)">
                <circle cx="7870" cy="7296" r="20"/>
            </g>
            <g transform="matrix(0.825,0,0,0.825,1302.21,1364.82)">
                <circle cx="7870" cy="7296" r="20"/>
            </g>
            <g transform="matrix(0.825,0,0,0.825,1318.71,1312.3)">
                <circle cx="7870" cy="7296" r="20"/>
            </g>
            <g transform="matrix(0.825,0,0,0.825,1379.71,1364.82)">
                <circle cx="7870" cy="7296" r="20"/>
            </g>
            <g transform="matrix(0.825,0,0,0.825,1312.21,1195.09)">
                <circle cx="7870" cy="7296" r="20"/>
            </g>
            <g transform="matrix(0.825,0,0,0.825,1522.54,1200.18)">
                <circle cx="7870" cy="7296" r="20"/>
            </g>
            <g transform="matrix(0.825,0,0,0.825,1459.37,1248.57)">
                <circle cx="7870" cy="7296" r="20"/>
            </g>
            <g transform="matrix(0.825,0,0,0.825,1369.8,1654.35)">
                <circle cx="7870" cy="7296" r="20"/>
            </g>
            <g transform="matrix(0.825,0,0,0.825,1495.14,1596.29)">
                <circle cx="7870" cy="7296" r="20"/>
            </g>
            <g transform="matrix(0.825,0,0,0.825,1434.19,1640.29)">
                <circle cx="7870" cy="7296" r="20"/>
            </g>
            <g transform="matrix(0.825,0,0,0.825,1434.19,1730.71)">
                <circle cx="7870" cy="7296" r="20"/>
            </g>
            <g transform="matrix(0.825,0,0,0.825,1314.86,1686.34)">
                <circle cx="7870" cy="7296" r="20"/>
            </g>
            <g transform="matrix(0.825,0,0,0.825,1275.97,1751.19)">
                <circle cx="7870" cy="7296" r="20"/>
            </g>
            <g transform="matrix(0.825,0,0,0.825,1395.6,1722.42)">
                <circle cx="7870" cy="7296" r="20"/>
            </g>
            <g transform="matrix(0.825,0,0,0.825,1522.27,1437.36)">
                <circle cx="7870" cy="7296" r="20"/>
            </g>
            <g transform="matrix(0.825,0,0,0.825,1267.53,1320.14)">
                <circle cx="7870" cy="7296" r="20"/>
            </g>
            <g transform="matrix(0.825,0,0,0.825,1396.21,1542.34)">
                <circle cx="7870" cy="7296" r="20"/>
            </g>
            <g transform="matrix(0.825,0,0,0.825,1702.86,1262.89)">
                <circle cx="7870" cy="7296" r="20"/>
            </g>
            <g transform="matrix(0.825,0,0,0.825,1803.46,1254.93)">
                <circle cx="7870" cy="7296" r="20"/>
            </g>
            <g transform="matrix(0.825,0,0,0.825,1585.27,1465.55)">
                <circle cx="7870" cy="7296" r="20"/>
            </g>
            <g transform="matrix(0.825,0,0,0.825,1269.21,1602.55)">
                <circle cx="7870" cy="7296" r="20"/>
            </g>
            <g transform="matrix(0.825,0,0,0.825,1670.01,1734.43)">
                <circle cx="7870" cy="7296" r="20"/>
            </g>
            <g transform="matrix(0.825,0,0,0.825,1578.27,1392.81)">
                <circle cx="7870" cy="7296" r="20"/>
            </g>
            <g transform="matrix(0.825,0,0,0.825,1803.46,1376.31)">
                <circle cx="7870" cy="7296" r="20"/>
            </g>
            <g transform="matrix(0.825,0,0,0.825,1442.49,1194.26)">
                <circle cx="7870" cy="7296" r="20"/>
            </g>
            <g transform="matrix(0.825,0,0,0.825,1367.91,1182.33)">
                <circle cx="7870" cy="7296" r="20"/>
            </g>
            <g transform="matrix(0.825,0,0,0.825,1310.26,1236.62)">
                <circle cx="7870" cy="7296" r="20"/>
            </g>
            <g transform="matrix(0.825,0,0,0.825,1408.32,1291.01)">
                <circle cx="7870" cy="7296" r="20"/>
            </g>
            <g transform="matrix(0.825,0,0,0.825,1402.38,1783.93)">
                <circle cx="7870" cy="7296" r="20"/>
            </g>
            <g transform="matrix(0.825,0,0,0.825,1489.27,1509.34)">
                <circle cx="7870" cy="7296" r="20"/>
            </g>
            <g transform="matrix(0.825,0,0,0.825,1319.31,1776.91)">
                <circle cx="7870" cy="7296" r="20"/>
            </g>
            <g transform="matrix(0.825,0,0,0.825,1285.71,1219.36)">
                <circle cx="7870" cy="7296" r="20"/>
            </g>
            <g transform="matrix(0.825,0,0,0.825,1264.67,1195.64)">
                <circle cx="7870" cy="7296" r="20"/>
            </g>
            <g transform="matrix(0.825,0,0,0.825,1266.85,1265.05)">
                <circle cx="7870" cy="7296" r="20"/>
            </g>
            <g transform="matrix(0.825,0,0,0.825,1349.83,1215.17)">
                <circle cx="7870" cy="7296" r="20"/>
            </g>
            <g transform="matrix(0.825,0,0,0.825,1626.46,1201.94)">
                <circle cx="7870" cy="7296" r="20"/>
            </g>
            <g transform="matrix(0.825,0,0,0.825,1599.22,1295.8)">
                <circle cx="7870" cy="7296" r="20"/>
            </g>
            <g transform="matrix(0.825,0,0,0.825,1719.46,1185.44)">
                <circle cx="7870" cy="7296" r="20"/>
            </g>
            <g transform="matrix(0.825,0,0,0.825,1659.46,1312.3)">
                <circle cx="7870" cy="7296" r="20"/>
            </g>
            <g transform="matrix(0.825,0,0,0.825,1478.64,1653.34)">
                <circle cx="7870" cy="7296" r="20"/>
            </g>
            <g transform="matrix(0.825,0,0,0.825,1472.26,1767.69)">
                <circle cx="7870" cy="7296" r="20"/>
            </g>
            <g transform="matrix(0.825,0,0,0.825,1417.71,1686.03)">
                <circle cx="7870" cy="7296" r="20"/>
            </g>
            <g transform="matrix(0.825,0,0,0.825,1308.97,1268.63)">
                <circle cx="7870" cy="7296" r="20"/>
            </g>
            <g transform="matrix(0.825,0,0,0.825,1279.21,1162.8)">
                <circle cx="7870" cy="7296" r="20"/>
            </g>
            <g transform="matrix(0.825,0,0,0.825,1346.33,1734.39)">
                <circle cx="7870" cy="7296" r="20"/>
            </g>
            <g transform="matrix(0.825,0,0,0.825,1819.96,1767.43)">
                <circle cx="7870" cy="7296" r="20"/>
            </g>
            <g transform="matrix(0.825,0,0,0.825,1719.46,1509.34)">
                <circle cx="7870" cy="7296" r="20"/>
            </g>
            <g transform="matrix(0.825,0,0,0.825,1770.46,1608.56)">
                <circle cx="7870" cy="7296" r="20"/>
            </g>
            <g transform="matrix(0.825,0,0,0.825,1618.27,1526.39)">
                <circle cx="7870" cy="7296" r="20"/>
            </g>
            <g transform="matrix(0.825,0,0,0.825,1363.21,1470.36)">
                <circle cx="7870" cy="7296" r="20"/>
            </g>
            <g transform="matrix(0.825,0,0,0.825,1535.96,1742.6)">
                <circle cx="7870" cy="7296" r="20"/>
            </g>
        </g>
    </g>
</svg>
