<?xml version="1.0" encoding="UTF-8" standalone="no"?>
<!DOCTYPE svg PUBLIC "-//W3C//DTD SVG 1.1//EN" "http://www.w3.org/Graphics/SVG/1.1/DTD/svg11.dtd">
<svg width="100%" height="100%" viewBox="0 0 449 507" version="1.1" xmlns="http://www.w3.org/2000/svg" xmlns:xlink="http://www.w3.org/1999/xlink" xml:space="preserve" xmlns:serif="http://www.serif.com/" style="fill-rule:evenodd;clip-rule:evenodd;stroke-miterlimit:10;">
    <rect id="polygon_triangulation" x="-6141" y="-332" width="8206" height="4260" style="fill:none;"/>
    <g id="polygon_triangulation1" serif:id="polygon_triangulation">
        <g id="TIN-vertices" serif:id="TIN vertices">
        </g>
        <g id="TIN-edges" serif:id="TIN edges">
        </g>
        <g id="halos">
        </g>
        <g id="halos1" serif:id="halos">
        </g>
        <g id="digits">
        </g>
        <g id="digits1" serif:id="digits">
        </g>
        <path d="M23.424,15.316L23.616,13.132L23.496,13.132L22.368,15.388L16.104,24.628L13.632,24.628L13.632,7.828L16.92,7.828L16.92,16.972L16.68,19.228L16.824,19.228L18,16.9L24.264,7.828L26.712,7.828L26.712,24.628L23.424,24.628L23.424,15.316Z" style="fill-rule:nonzero;"/>
        <path d="M41.472,27.364L39.192,27.364L38.832,24.628L30.768,24.628L30.408,27.364L28.128,27.364L28.128,21.868L29.544,21.868C29.672,21.692 29.836,21.392 30.036,20.968C30.236,20.544 30.436,19.964 30.636,19.228C30.836,18.492 31.008,17.58 31.152,16.492C31.296,15.404 31.368,14.116 31.368,12.628L39.72,12.628L39.72,21.868L41.472,21.868L41.472,27.364ZM36.6,22.012L36.6,15.268L34.08,15.268C34.048,15.844 33.992,16.456 33.912,17.104C33.832,17.752 33.732,18.38 33.612,18.988C33.492,19.596 33.352,20.164 33.192,20.692C33.032,21.22 32.856,21.66 32.664,22.012L36.6,22.012Z" style="fill-rule:nonzero;"/>
        <path d="M52.776,23.596C52.296,23.98 51.644,24.304 50.82,24.568C49.996,24.832 49.12,24.964 48.192,24.964C46.256,24.964 44.84,24.4 43.944,23.272C43.048,22.144 42.6,20.596 42.6,18.628C42.6,16.516 43.104,14.932 44.112,13.876C45.12,12.82 46.536,12.292 48.36,12.292C48.968,12.292 49.56,12.372 50.136,12.532C50.712,12.692 51.224,12.956 51.672,13.324C52.12,13.692 52.48,14.188 52.752,14.812C53.024,15.436 53.16,16.212 53.16,17.14C53.16,17.476 53.14,17.836 53.1,18.22C53.06,18.604 53,19.004 52.92,19.42L45.72,19.42C45.768,20.428 46.028,21.188 46.5,21.7C46.972,22.212 47.736,22.468 48.792,22.468C49.448,22.468 50.036,22.368 50.556,22.168C51.076,21.968 51.472,21.764 51.744,21.556L52.776,23.596ZM48.312,14.788C47.496,14.788 46.892,15.032 46.5,15.52C46.108,16.008 45.872,16.66 45.792,17.476L50.256,17.476C50.32,16.612 50.188,15.948 49.86,15.484C49.532,15.02 49.016,14.788 48.312,14.788Z" style="fill-rule:nonzero;"/>
        <path d="M62.4,19.924L58.488,19.924L58.488,24.628L55.368,24.628L55.368,12.628L58.488,12.628L58.488,17.14L62.4,17.14L62.4,12.628L65.52,12.628L65.52,24.628L62.4,24.628L62.4,19.924Z" style="fill-rule:nonzero;"/>
        <path d="M76.896,15.388L73.56,15.388L73.56,24.628L70.344,24.628L70.344,15.388L66.912,15.388L66.912,12.628L76.896,12.628L76.896,15.388Z" style="fill-rule:nonzero;"/>
        <path d="M85.512,19.156L85.632,17.452L85.56,17.452L84.528,19.204L80.256,24.628L78.288,24.628L78.288,12.628L81.408,12.628L81.408,18.34L81.264,19.972L81.36,19.972L82.344,18.268L86.664,12.628L88.632,12.628L88.632,24.628L85.512,24.628L85.512,19.156Z" style="fill-rule:nonzero;"/>
        <path d="M96.864,24.772C96.592,24.868 96.308,24.924 96.012,24.94C95.716,24.956 95.448,24.964 95.208,24.964C93.752,24.964 92.632,24.444 91.848,23.404C91.064,22.364 90.672,20.772 90.672,18.628C90.672,16.58 91.104,15.028 91.968,13.972C92.832,12.916 94.08,12.388 95.712,12.388C96.16,12.388 96.544,12.42 96.864,12.484L96.864,7.828L99.936,7.828L99.936,12.508C100.224,12.46 100.48,12.428 100.704,12.412C100.928,12.396 101.144,12.388 101.352,12.388C102.936,12.388 104.128,12.856 104.928,13.792C105.728,14.728 106.128,16.26 106.128,18.388C106.128,19.396 106.02,20.304 105.804,21.112C105.588,21.92 105.272,22.612 104.856,23.188C104.44,23.764 103.932,24.204 103.332,24.508C102.732,24.812 102.04,24.964 101.256,24.964C101.112,24.964 100.9,24.952 100.62,24.928C100.34,24.904 100.112,24.86 99.936,24.796L99.936,29.428L96.864,29.428L96.864,24.772ZM100.656,14.86C100.496,14.86 100.356,14.872 100.236,14.896C100.116,14.92 99.968,14.948 99.792,14.98L99.792,22.42C99.92,22.452 100.068,22.472 100.236,22.48C100.404,22.488 100.584,22.492 100.776,22.492C101.544,22.492 102.108,22.176 102.468,21.544C102.828,20.912 103.008,19.86 103.008,18.388C103.008,17.14 102.832,16.24 102.48,15.688C102.128,15.136 101.52,14.86 100.656,14.86ZM96.024,22.492C96.2,22.492 96.364,22.48 96.516,22.456C96.668,22.432 96.832,22.404 97.008,22.372L97.008,14.956C96.704,14.892 96.392,14.86 96.072,14.86C95.336,14.86 94.772,15.144 94.38,15.712C93.988,16.28 93.792,17.252 93.792,18.628C93.792,19.876 93.972,20.832 94.332,21.496C94.692,22.16 95.256,22.492 96.024,22.492Z" style="fill-rule:nonzero;"/>
        <path d="M115.392,19.156L115.512,17.452L115.44,17.452L114.408,19.204L110.136,24.628L108.168,24.628L108.168,12.628L111.288,12.628L111.288,18.34L111.144,19.972L111.24,19.972L112.224,18.268L116.544,12.628L118.512,12.628L118.512,24.628L115.392,24.628L115.392,19.156Z" style="fill-rule:nonzero;"/>
        <path d="M125.208,19.66L124.368,19.66L124.368,24.628L121.248,24.628L121.248,12.628L124.368,12.628L124.368,17.74L125.112,17.404L127.92,12.628L131.256,12.628L128.352,17.188L127.128,18.1L128.472,19.036L131.712,24.628L128.136,24.628L125.208,19.66Z" style="fill-rule:nonzero;"/>
        <path d="M132.912,13.324C133.552,13.036 134.312,12.808 135.192,12.64C136.072,12.472 136.992,12.388 137.952,12.388C138.784,12.388 139.48,12.488 140.04,12.688C140.6,12.888 141.044,13.172 141.372,13.54C141.7,13.908 141.932,14.348 142.068,14.86C142.204,15.372 142.272,15.948 142.272,16.588C142.272,17.292 142.248,18 142.2,18.712C142.152,19.424 142.124,20.124 142.116,20.812C142.108,21.5 142.128,22.168 142.176,22.816C142.224,23.464 142.344,24.076 142.536,24.652L139.992,24.652L139.488,22.996L139.368,22.996C139.048,23.492 138.604,23.92 138.036,24.28C137.468,24.64 136.736,24.82 135.84,24.82C135.28,24.82 134.776,24.736 134.328,24.568C133.88,24.4 133.496,24.16 133.176,23.848C132.856,23.536 132.608,23.168 132.432,22.744C132.256,22.32 132.168,21.844 132.168,21.316C132.168,20.58 132.332,19.96 132.66,19.456C132.988,18.952 133.46,18.544 134.076,18.232C134.692,17.92 135.428,17.704 136.284,17.584C137.14,17.464 138.096,17.428 139.152,17.476C139.264,16.58 139.2,15.936 138.96,15.544C138.72,15.152 138.184,14.956 137.352,14.956C136.728,14.956 136.068,15.02 135.372,15.148C134.676,15.276 134.104,15.444 133.656,15.652L132.912,13.324ZM136.872,22.252C137.496,22.252 137.992,22.112 138.36,21.832C138.728,21.552 139,21.252 139.176,20.932L139.176,19.372C138.68,19.324 138.204,19.316 137.748,19.348C137.292,19.38 136.888,19.452 136.536,19.564C136.184,19.676 135.904,19.836 135.696,20.044C135.488,20.252 135.384,20.516 135.384,20.836C135.384,21.284 135.516,21.632 135.78,21.88C136.044,22.128 136.408,22.252 136.872,22.252Z" style="fill-rule:nonzero;"/>
        <path d="M156.6,27.364L154.32,27.364L153.96,24.628L144.888,24.628L144.888,12.628L148.008,12.628L148.008,21.868L151.728,21.868L151.728,12.628L154.848,12.628L154.848,21.868L156.6,21.868L156.6,27.364Z" style="fill-rule:nonzero;"/>
        <path d="M165.528,19.156L165.648,17.452L165.576,17.452L164.544,19.204L160.272,24.628L158.304,24.628L158.304,12.628L161.424,12.628L161.424,18.34L161.28,19.972L161.376,19.972L162.36,18.268L166.68,12.628L168.648,12.628L168.648,24.628L165.528,24.628L165.528,19.156Z" style="fill-rule:nonzero;"/>
        <path d="M177.72,20.092L176.28,20.38L173.976,24.628L170.256,24.628L172.584,20.86L173.76,19.972C172.976,19.844 172.328,19.472 171.816,18.856C171.304,18.24 171.048,17.468 171.048,16.54C171.048,15.084 171.532,14.012 172.5,13.324C173.468,12.636 174.952,12.292 176.952,12.292C177.72,12.292 178.436,12.332 179.1,12.412C179.764,12.492 180.344,12.58 180.84,12.676L180.84,24.628L177.72,24.628L177.72,20.092ZM177.72,18.46L177.72,15.148C177.544,15.068 177.352,15.012 177.144,14.98C176.936,14.948 176.736,14.932 176.544,14.932C175.824,14.932 175.264,15.084 174.864,15.388C174.464,15.692 174.264,16.148 174.264,16.756C174.264,17.364 174.484,17.812 174.924,18.1C175.364,18.388 176.008,18.524 176.856,18.508L177.72,18.46Z" style="fill-rule:nonzero;"/>
        <path d="M247.451,7.828L257.795,7.828L257.795,10.756L250.739,10.756L250.739,14.26C251.011,14.212 251.343,14.164 251.735,14.116C252.127,14.068 252.515,14.044 252.899,14.044C253.795,14.044 254.619,14.132 255.371,14.308C256.123,14.484 256.767,14.776 257.303,15.184C257.839,15.592 258.259,16.128 258.563,16.792C258.867,17.456 259.019,18.268 259.019,19.228C259.019,20.172 258.863,20.996 258.551,21.7C258.239,22.404 257.791,22.988 257.207,23.452C256.623,23.916 255.919,24.268 255.095,24.508C254.271,24.748 253.347,24.868 252.323,24.868C252.051,24.868 251.711,24.86 251.303,24.844C250.895,24.828 250.463,24.804 250.007,24.772C249.551,24.74 249.099,24.7 248.651,24.652C248.203,24.604 247.803,24.54 247.451,24.46L247.451,7.828ZM252.563,22.156C252.979,22.156 253.367,22.104 253.727,22C254.087,21.896 254.403,21.736 254.675,21.52C254.947,21.304 255.163,21.028 255.323,20.692C255.483,20.356 255.563,19.948 255.563,19.468C255.563,18.892 255.475,18.428 255.299,18.076C255.123,17.724 254.883,17.448 254.579,17.248C254.275,17.048 253.927,16.916 253.535,16.852C253.143,16.788 252.723,16.756 252.275,16.756C252.051,16.756 251.771,16.776 251.435,16.816C251.099,16.856 250.867,16.892 250.739,16.924L250.739,22.036C250.915,22.084 251.183,22.116 251.543,22.132C251.903,22.148 252.243,22.156 252.563,22.156Z" style="fill-rule:nonzero;"/>
        <path d="M267.587,15.388L265.211,15.388C265.115,16.524 265.003,17.652 264.875,18.772C264.747,19.892 264.543,20.896 264.263,21.784C263.983,22.672 263.603,23.392 263.123,23.944C262.643,24.496 262.019,24.772 261.251,24.772C260.323,24.772 259.667,24.652 259.283,24.412L259.667,21.82C259.923,21.916 260.163,21.964 260.387,21.964C260.707,21.964 260.987,21.828 261.227,21.556C261.467,21.284 261.671,20.796 261.839,20.092C262.007,19.388 262.143,18.432 262.247,17.224C262.351,16.016 262.427,14.484 262.475,12.628L270.707,12.628L270.707,24.628L267.587,24.628L267.587,15.388Z" style="fill-rule:nonzero;"/>
        <path d="M280.643,19.156L280.763,17.452L280.691,17.452L279.659,19.204L275.387,24.628L273.419,24.628L273.419,12.628L276.539,12.628L276.539,18.34L276.395,19.972L276.491,19.972L277.475,18.268L281.795,12.628L283.763,12.628L283.763,24.628L280.643,24.628L280.643,19.156Z" style="fill-rule:nonzero;"/>
        <path d="M290.939,19.756L288.491,24.628L284.987,24.628L288.131,19.132L288.947,18.412L287.723,17.5L285.251,12.628L288.587,12.628L290.819,17.5L291.851,17.5L291.851,12.628L294.827,12.628L294.827,17.74L295.739,17.404L297.995,12.628L301.307,12.628L298.691,17.5L297.755,18.268L298.979,19.228L301.883,24.628L298.307,24.628L295.859,19.66L294.827,19.66L294.827,24.628L291.851,24.628L291.851,19.42L290.939,19.756Z" style="fill-rule:nonzero;"/>
        <path d="M303.059,13.324C303.699,13.036 304.459,12.808 305.339,12.64C306.219,12.472 307.139,12.388 308.099,12.388C308.931,12.388 309.627,12.488 310.187,12.688C310.747,12.888 311.191,13.172 311.519,13.54C311.847,13.908 312.079,14.348 312.215,14.86C312.351,15.372 312.419,15.948 312.419,16.588C312.419,17.292 312.395,18 312.347,18.712C312.299,19.424 312.271,20.124 312.263,20.812C312.255,21.5 312.275,22.168 312.323,22.816C312.371,23.464 312.491,24.076 312.683,24.652L310.139,24.652L309.635,22.996L309.515,22.996C309.195,23.492 308.751,23.92 308.183,24.28C307.615,24.64 306.883,24.82 305.987,24.82C305.427,24.82 304.923,24.736 304.475,24.568C304.027,24.4 303.643,24.16 303.323,23.848C303.003,23.536 302.755,23.168 302.579,22.744C302.403,22.32 302.315,21.844 302.315,21.316C302.315,20.58 302.479,19.96 302.807,19.456C303.135,18.952 303.607,18.544 304.223,18.232C304.839,17.92 305.575,17.704 306.431,17.584C307.287,17.464 308.243,17.428 309.299,17.476C309.411,16.58 309.347,15.936 309.107,15.544C308.867,15.152 308.331,14.956 307.499,14.956C306.875,14.956 306.215,15.02 305.519,15.148C304.823,15.276 304.251,15.444 303.803,15.652L303.059,13.324ZM307.019,22.252C307.643,22.252 308.139,22.112 308.507,21.832C308.875,21.552 309.147,21.252 309.323,20.932L309.323,19.372C308.827,19.324 308.351,19.316 307.895,19.348C307.439,19.38 307.035,19.452 306.683,19.564C306.331,19.676 306.051,19.836 305.843,20.044C305.635,20.252 305.531,20.516 305.531,20.836C305.531,21.284 305.663,21.632 305.927,21.88C306.191,22.128 306.555,22.252 307.019,22.252Z" style="fill-rule:nonzero;"/>
        <path d="M322.259,19.156L322.379,17.452L322.307,17.452L321.275,19.204L317.003,24.628L315.035,24.628L315.035,12.628L318.155,12.628L318.155,18.34L318.011,19.972L318.107,19.972L319.091,18.268L323.411,12.628L325.379,12.628L325.379,24.628L322.259,24.628L322.259,19.156ZM318.923,7.732C319.035,8.356 319.223,8.796 319.487,9.052C319.751,9.308 320.091,9.436 320.507,9.436C320.955,9.436 321.311,9.308 321.575,9.052C321.839,8.796 322.019,8.364 322.115,7.756L324.491,8.356C324.299,9.396 323.827,10.168 323.075,10.672C322.323,11.176 321.443,11.428 320.435,11.428C319.939,11.428 319.459,11.372 318.995,11.26C318.531,11.148 318.115,10.968 317.747,10.72C317.379,10.472 317.067,10.156 316.811,9.772C316.555,9.388 316.379,8.916 316.283,8.356L318.923,7.732Z" style="fill-rule:nonzero;"/>
        <path d="M328.115,24.628L328.115,12.628L331.235,12.628L331.235,21.868L334.235,21.868L334.235,12.628L337.355,12.628L337.355,21.868L340.355,21.868L340.355,12.628L343.475,12.628L343.475,24.628L328.115,24.628Z" style="fill-rule:nonzero;"/>
        <path d="M353.435,19.156L353.555,17.452L353.483,17.452L352.451,19.204L348.179,24.628L346.211,24.628L346.211,12.628L349.331,12.628L349.331,18.34L349.187,19.972L349.283,19.972L350.267,18.268L354.587,12.628L356.555,12.628L356.555,24.628L353.435,24.628L353.435,19.156Z" style="fill-rule:nonzero;"/>
        <path d="M366.515,19.156L366.635,17.452L366.563,17.452L365.531,19.204L361.259,24.628L359.291,24.628L359.291,12.628L362.411,12.628L362.411,18.34L362.267,19.972L362.363,19.972L363.347,18.268L367.667,12.628L369.635,12.628L369.635,24.628L366.515,24.628L366.515,19.156ZM363.179,7.732C363.291,8.356 363.479,8.796 363.743,9.052C364.007,9.308 364.347,9.436 364.763,9.436C365.211,9.436 365.567,9.308 365.831,9.052C366.095,8.796 366.275,8.364 366.371,7.756L368.747,8.356C368.555,9.396 368.083,10.168 367.331,10.672C366.579,11.176 365.699,11.428 364.691,11.428C364.195,11.428 363.715,11.372 363.251,11.26C362.787,11.148 362.371,10.968 362.003,10.72C361.635,10.472 361.323,10.156 361.067,9.772C360.811,9.388 360.635,8.916 360.539,8.356L363.179,7.732Z" style="fill-rule:nonzero;"/>
        <path d="M386.939,23.884C386.459,24.236 385.879,24.504 385.199,24.688C384.519,24.872 383.819,24.964 383.099,24.964C382.139,24.964 381.327,24.812 380.663,24.508C379.999,24.204 379.459,23.776 379.043,23.224C378.627,22.672 378.327,22.004 378.143,21.22C377.959,20.436 377.867,19.572 377.867,18.628C377.867,16.596 378.323,15.032 379.235,13.936C380.147,12.84 381.475,12.292 383.219,12.292C384.099,12.292 384.807,12.364 385.343,12.508C385.879,12.652 386.363,12.836 386.795,13.06L386.051,15.604C385.683,15.428 385.319,15.292 384.959,15.196C384.599,15.1 384.187,15.052 383.723,15.052C382.859,15.052 382.203,15.336 381.755,15.904C381.307,16.472 381.083,17.38 381.083,18.628C381.083,19.14 381.139,19.612 381.251,20.044C381.363,20.476 381.531,20.852 381.755,21.172C381.979,21.492 382.271,21.744 382.631,21.928C382.991,22.112 383.411,22.204 383.891,22.204C384.419,22.204 384.867,22.136 385.235,22C385.603,21.864 385.931,21.7 386.219,21.508L386.939,23.884Z" style="fill-rule:nonzero;"/>
        <path d="M388.259,18.628C388.259,16.596 388.755,15.032 389.747,13.936C390.739,12.84 392.131,12.292 393.923,12.292C394.883,12.292 395.715,12.444 396.419,12.748C397.123,13.052 397.707,13.48 398.171,14.032C398.635,14.584 398.983,15.252 399.215,16.036C399.447,16.82 399.563,17.684 399.563,18.628C399.563,20.66 399.071,22.224 398.087,23.32C397.103,24.416 395.715,24.964 393.923,24.964C392.963,24.964 392.131,24.812 391.427,24.508C390.723,24.204 390.135,23.776 389.663,23.224C389.191,22.672 388.839,22.004 388.607,21.22C388.375,20.436 388.259,19.572 388.259,18.628ZM391.475,18.628C391.475,19.156 391.523,19.644 391.619,20.092C391.715,20.54 391.859,20.932 392.051,21.268C392.243,21.604 392.495,21.864 392.807,22.048C393.119,22.232 393.491,22.324 393.923,22.324C394.739,22.324 395.347,22.028 395.747,21.436C396.147,20.844 396.347,19.908 396.347,18.628C396.347,17.524 396.163,16.632 395.795,15.952C395.427,15.272 394.803,14.932 393.923,14.932C393.155,14.932 392.555,15.22 392.123,15.796C391.691,16.372 391.475,17.316 391.475,18.628Z" style="fill-rule:nonzero;"/>
        <path d="M410.219,23.884C409.739,24.236 409.159,24.504 408.479,24.688C407.799,24.872 407.099,24.964 406.379,24.964C405.419,24.964 404.607,24.812 403.943,24.508C403.279,24.204 402.739,23.776 402.323,23.224C401.907,22.672 401.607,22.004 401.423,21.22C401.239,20.436 401.147,19.572 401.147,18.628C401.147,16.596 401.603,15.032 402.515,13.936C403.427,12.84 404.755,12.292 406.499,12.292C407.379,12.292 408.087,12.364 408.623,12.508C409.159,12.652 409.643,12.836 410.075,13.06L409.331,15.604C408.963,15.428 408.599,15.292 408.239,15.196C407.879,15.1 407.467,15.052 407.003,15.052C406.139,15.052 405.483,15.336 405.035,15.904C404.587,16.472 404.363,17.38 404.363,18.628C404.363,19.14 404.419,19.612 404.531,20.044C404.643,20.476 404.811,20.852 405.035,21.172C405.259,21.492 405.551,21.744 405.911,21.928C406.271,22.112 406.691,22.204 407.171,22.204C407.699,22.204 408.147,22.136 408.515,22C408.883,21.864 409.211,21.7 409.499,21.508L410.219,23.884Z" style="fill-rule:nonzero;"/>
        <path d="M421.715,23.596C421.235,23.98 420.583,24.304 419.759,24.568C418.935,24.832 418.059,24.964 417.131,24.964C415.195,24.964 413.779,24.4 412.883,23.272C411.987,22.144 411.539,20.596 411.539,18.628C411.539,16.516 412.043,14.932 413.051,13.876C414.059,12.82 415.475,12.292 417.299,12.292C417.907,12.292 418.499,12.372 419.075,12.532C419.651,12.692 420.163,12.956 420.611,13.324C421.059,13.692 421.419,14.188 421.691,14.812C421.963,15.436 422.099,16.212 422.099,17.14C422.099,17.476 422.079,17.836 422.039,18.22C421.999,18.604 421.939,19.004 421.859,19.42L414.659,19.42C414.707,20.428 414.967,21.188 415.439,21.7C415.911,22.212 416.675,22.468 417.731,22.468C418.387,22.468 418.975,22.368 419.495,22.168C420.015,21.968 420.411,21.764 420.683,21.556L421.715,23.596ZM417.251,14.788C416.435,14.788 415.831,15.032 415.439,15.52C415.047,16.008 414.811,16.66 414.731,17.476L419.195,17.476C419.259,16.612 419.127,15.948 418.799,15.484C418.471,15.02 417.955,14.788 417.251,14.788Z" style="fill-rule:nonzero;"/>
        <path d="M436.235,27.364L433.955,27.364L433.595,24.628L425.531,24.628L425.171,27.364L422.891,27.364L422.891,21.868L424.307,21.868C424.435,21.692 424.599,21.392 424.799,20.968C424.999,20.544 425.199,19.964 425.399,19.228C425.599,18.492 425.771,17.58 425.915,16.492C426.059,15.404 426.131,14.116 426.131,12.628L434.483,12.628L434.483,21.868L436.235,21.868L436.235,27.364ZM431.363,22.012L431.363,15.268L428.843,15.268C428.811,15.844 428.755,16.456 428.675,17.104C428.595,17.752 428.495,18.38 428.375,18.988C428.255,19.596 428.115,20.164 427.955,20.692C427.795,21.22 427.619,21.66 427.427,22.012L431.363,22.012Z" style="fill-rule:nonzero;"/>
        <path d="M175.312,288.185L172.984,288.185L172.624,285.185L161.824,285.185L161.464,288.185L159.136,288.185L159.136,282.257L160.912,282.257C161.024,282.081 161.208,281.689 161.464,281.081C161.72,280.473 161.976,279.613 162.232,278.501C162.488,277.389 162.704,275.997 162.88,274.325C163.056,272.653 163.136,270.673 163.12,268.385L173.176,268.385L173.176,282.257L175.312,282.257L175.312,288.185ZM169.888,282.257L169.888,271.313L166.168,271.313C166.072,274.161 165.844,276.493 165.484,278.309C165.124,280.125 164.76,281.441 164.392,282.257L169.888,282.257Z" style="fill-rule:nonzero;"/>
        <path d="M184.312,279.713L184.432,278.009L184.36,278.009L183.328,279.761L179.056,285.185L177.088,285.185L177.088,273.185L180.208,273.185L180.208,278.897L180.064,280.529L180.16,280.529L181.144,278.825L185.464,273.185L187.432,273.185L187.432,285.185L184.312,285.185L184.312,279.713Z" style="fill-rule:nonzero;"/>
        <path d="M190.096,273.881C190.736,273.593 191.496,273.365 192.376,273.197C193.256,273.029 194.176,272.945 195.136,272.945C195.968,272.945 196.664,273.045 197.224,273.245C197.784,273.445 198.228,273.729 198.556,274.097C198.884,274.465 199.116,274.905 199.252,275.417C199.388,275.929 199.456,276.505 199.456,277.145C199.456,277.849 199.432,278.557 199.384,279.269C199.336,279.981 199.308,280.681 199.3,281.369C199.292,282.057 199.312,282.725 199.36,283.373C199.408,284.021 199.528,284.633 199.72,285.209L197.176,285.209L196.672,283.553L196.552,283.553C196.232,284.049 195.788,284.477 195.22,284.837C194.652,285.197 193.92,285.377 193.024,285.377C192.464,285.377 191.96,285.293 191.512,285.125C191.064,284.957 190.68,284.717 190.36,284.405C190.04,284.093 189.792,283.725 189.616,283.301C189.44,282.877 189.352,282.401 189.352,281.873C189.352,281.137 189.516,280.517 189.844,280.013C190.172,279.509 190.644,279.101 191.26,278.789C191.876,278.477 192.612,278.261 193.468,278.141C194.324,278.021 195.28,277.985 196.336,278.033C196.448,277.137 196.384,276.493 196.144,276.101C195.904,275.709 195.368,275.513 194.536,275.513C193.912,275.513 193.252,275.577 192.556,275.705C191.86,275.833 191.288,276.001 190.84,276.209L190.096,273.881ZM194.056,282.809C194.68,282.809 195.176,282.669 195.544,282.389C195.912,282.109 196.184,281.809 196.36,281.489L196.36,279.929C195.864,279.881 195.388,279.873 194.932,279.905C194.476,279.937 194.072,280.009 193.72,280.121C193.368,280.233 193.088,280.393 192.88,280.601C192.672,280.809 192.568,281.073 192.568,281.393C192.568,281.841 192.7,282.189 192.964,282.437C193.228,282.685 193.592,282.809 194.056,282.809Z" style="fill-rule:nonzero;"/>
        <path d="M208.984,275.945L205.192,275.945L205.192,285.185L202.072,285.185L202.072,273.185L212.104,273.185L212.104,285.185L208.984,285.185L208.984,275.945Z" style="fill-rule:nonzero;"/>
        <path d="M214.768,273.881C215.408,273.593 216.168,273.365 217.048,273.197C217.928,273.029 218.848,272.945 219.808,272.945C220.64,272.945 221.336,273.045 221.896,273.245C222.456,273.445 222.9,273.729 223.228,274.097C223.556,274.465 223.788,274.905 223.924,275.417C224.06,275.929 224.128,276.505 224.128,277.145C224.128,277.849 224.104,278.557 224.056,279.269C224.008,279.981 223.98,280.681 223.972,281.369C223.964,282.057 223.984,282.725 224.032,283.373C224.08,284.021 224.2,284.633 224.392,285.209L221.848,285.209L221.344,283.553L221.224,283.553C220.904,284.049 220.46,284.477 219.892,284.837C219.324,285.197 218.592,285.377 217.696,285.377C217.136,285.377 216.632,285.293 216.184,285.125C215.736,284.957 215.352,284.717 215.032,284.405C214.712,284.093 214.464,283.725 214.288,283.301C214.112,282.877 214.024,282.401 214.024,281.873C214.024,281.137 214.188,280.517 214.516,280.013C214.844,279.509 215.316,279.101 215.932,278.789C216.548,278.477 217.284,278.261 218.14,278.141C218.996,278.021 219.952,277.985 221.008,278.033C221.12,277.137 221.056,276.493 220.816,276.101C220.576,275.709 220.04,275.513 219.208,275.513C218.584,275.513 217.924,275.577 217.228,275.705C216.532,275.833 215.96,276.001 215.512,276.209L214.768,273.881ZM218.728,282.809C219.352,282.809 219.848,282.669 220.216,282.389C220.584,282.109 220.856,281.809 221.032,281.489L221.032,279.929C220.536,279.881 220.06,279.873 219.604,279.905C219.148,279.937 218.744,280.009 218.392,280.121C218.04,280.233 217.76,280.393 217.552,280.601C217.344,280.809 217.24,281.073 217.24,281.393C217.24,281.841 217.372,282.189 217.636,282.437C217.9,282.685 218.264,282.809 218.728,282.809Z" style="fill-rule:nonzero;"/>
        <path d="M227.992,280.217L227.992,278.033L229.456,278.033C230.016,278.033 230.476,277.921 230.836,277.697C231.196,277.473 231.376,277.177 231.376,276.809C231.376,276.377 231.216,276.069 230.896,275.885C230.576,275.701 230.088,275.609 229.432,275.609C228.808,275.609 228.256,275.689 227.776,275.849C227.296,276.009 226.912,276.177 226.624,276.353L225.952,273.977C226.432,273.705 227.068,273.469 227.86,273.269C228.652,273.069 229.496,272.969 230.392,272.969C231.768,272.969 232.796,273.225 233.476,273.737C234.156,274.249 234.496,274.993 234.496,275.969C234.496,276.241 234.46,276.517 234.388,276.797C234.316,277.077 234.2,277.345 234.04,277.601C233.88,277.857 233.684,278.085 233.452,278.285C233.22,278.485 232.944,278.641 232.624,278.753L232.624,278.849C233.472,279.041 234.072,279.381 234.424,279.869C234.776,280.357 234.952,281.009 234.952,281.825C234.952,282.337 234.848,282.813 234.64,283.253C234.432,283.693 234.116,284.073 233.692,284.393C233.268,284.713 232.736,284.969 232.096,285.161C231.456,285.353 230.696,285.449 229.816,285.449C228.936,285.449 228.172,285.357 227.524,285.173C226.876,284.989 226.336,284.777 225.904,284.537L226.576,282.113C226.944,282.321 227.388,282.489 227.908,282.617C228.428,282.745 229.008,282.809 229.648,282.809C231.104,282.809 231.832,282.345 231.832,281.417C231.832,281.001 231.644,280.697 231.268,280.505C230.892,280.313 230.192,280.217 229.168,280.217L227.992,280.217Z" style="fill-rule:nonzero;"/>
        <path d="M236.536,279.185C236.536,277.153 237.032,275.589 238.024,274.493C239.016,273.397 240.408,272.849 242.2,272.849C243.16,272.849 243.992,273.001 244.696,273.305C245.4,273.609 245.984,274.037 246.448,274.589C246.912,275.141 247.26,275.809 247.492,276.593C247.724,277.377 247.84,278.241 247.84,279.185C247.84,281.217 247.348,282.781 246.364,283.877C245.38,284.973 243.992,285.521 242.2,285.521C241.24,285.521 240.408,285.369 239.704,285.065C239,284.761 238.412,284.333 237.94,283.781C237.468,283.229 237.116,282.561 236.884,281.777C236.652,280.993 236.536,280.129 236.536,279.185ZM239.752,279.185C239.752,279.713 239.8,280.201 239.896,280.649C239.992,281.097 240.136,281.489 240.328,281.825C240.52,282.161 240.772,282.421 241.084,282.605C241.396,282.789 241.768,282.881 242.2,282.881C243.016,282.881 243.624,282.585 244.024,281.993C244.424,281.401 244.624,280.465 244.624,279.185C244.624,278.081 244.44,277.189 244.072,276.509C243.704,275.829 243.08,275.489 242.2,275.489C241.432,275.489 240.832,275.777 240.4,276.353C239.968,276.929 239.752,277.873 239.752,279.185Z" style="fill-rule:nonzero;"/>
        <path d="M257.032,280.481L253.12,280.481L253.12,285.185L250,285.185L250,273.185L253.12,273.185L253.12,277.697L257.032,277.697L257.032,273.185L260.152,273.185L260.152,285.185L257.032,285.185L257.032,280.481Z" style="fill-rule:nonzero;"/>
        <rect x="4.736" y="44.129" width="198.857" height="198.857" style="fill:white;fill-opacity:0.29;stroke:black;stroke-width:1px;"/>
        <path d="M4.736,183.358L29.736,151.358L64.736,131.358L78.736,83.358L53.736,78.843L37.736,65.358L28.736,44.129L4.736,44.129L4.736,183.358Z" style="fill:rgb(150,255,21);fill-opacity:0.3;stroke:black;stroke-opacity:0.5;stroke-width:0.9px;"/>
        <path d="M91.736,128.358L64.736,131.358L78.736,83.358L104.165,89.358L117.736,77.358L148.736,69.358L156.736,87.358L147.387,113.743L121.736,127.358L91.736,128.358Z" style="fill:rgb(255,140,25);fill-opacity:0.3;stroke:black;stroke-opacity:0.5;stroke-width:0.9px;"/>
        <path d="M61.736,242.986L47.736,228.358L61.736,201.358L86.736,183.358L111.736,183.358L143.736,177.358L166.736,157.358L203.594,143.558L203.594,242.986L61.736,242.986Z" style="fill:rgb(150,255,21);fill-opacity:0.3;stroke:black;stroke-opacity:0.5;stroke-width:0.9px;"/>
        <path d="M28.736,44.129L37.736,65.358L53.736,78.843L78.736,83.358L104.165,89.358L117.736,77.358L148.736,69.358L129.736,44.129L28.736,44.129Z" style="fill:rgb(169,169,169);fill-opacity:0.3;stroke:black;stroke-opacity:0.5;stroke-width:0.9px;"/>
        <path d="M47.736,228.358L61.736,201.358L86.736,183.358L111.736,183.358L143.736,177.358L166.736,157.358L203.594,143.558L203.594,44.129L145.736,44.129L160.397,66.743L167.736,78.843L172.736,91.358L185.736,105.358L189.496,113.743L175.736,124.358L137.736,131.358L104.165,143.558L75.736,150.358L49.736,176.358L42.736,201.358L47.736,228.358Z" style="fill:rgb(251,133,255);fill-opacity:0.3;stroke:black;stroke-width:1px;stroke-linejoin:round;"/>
        <path d="M134.436,211.689L131.504,211.689C131.463,212.249 131.423,212.853 131.382,213.499C131.342,214.146 131.281,214.793 131.2,215.439C131.119,216.086 131.012,216.706 130.877,217.299C130.742,217.893 130.57,218.416 130.361,218.869C130.152,219.323 129.896,219.686 129.593,219.959C129.289,220.233 128.929,220.369 128.511,220.369C128.255,220.369 128.032,220.356 127.844,220.329C127.655,220.303 127.486,220.256 127.338,220.189L127.581,218.849C127.742,218.903 127.918,218.929 128.106,218.929C128.376,218.929 128.619,218.816 128.834,218.589C129.05,218.363 129.239,217.933 129.401,217.299C129.562,216.666 129.697,215.789 129.805,214.669C129.913,213.549 129.987,212.089 130.027,210.289L136.054,210.289L136.054,220.289L134.436,220.289L134.436,211.689Z" style="fill-rule:nonzero;"/>
        <path d="M146.549,219.489C146.144,219.809 145.635,220.063 145.022,220.249C144.409,220.436 143.758,220.529 143.071,220.529C142.302,220.529 141.635,220.406 141.069,220.159C140.502,219.913 140.037,219.559 139.673,219.099C139.309,218.639 139.04,218.089 138.864,217.449C138.689,216.809 138.602,216.089 138.602,215.289C138.602,213.583 138.986,212.283 139.754,211.389C140.523,210.496 141.621,210.049 143.05,210.049C143.509,210.049 143.967,210.099 144.425,210.199C144.884,210.299 145.295,210.489 145.659,210.769C146.023,211.049 146.319,211.446 146.549,211.959C146.778,212.473 146.892,213.149 146.892,213.989C146.892,214.429 146.852,214.916 146.771,215.449L140.28,215.449C140.28,216.036 140.341,216.556 140.462,217.009C140.583,217.463 140.772,217.846 141.028,218.159C141.284,218.473 141.618,218.713 142.029,218.879C142.44,219.046 142.942,219.129 143.536,219.129C143.994,219.129 144.452,219.049 144.911,218.889C145.369,218.729 145.713,218.543 145.942,218.329L146.549,219.489ZM143.071,211.449C142.275,211.449 141.638,211.656 141.16,212.069C140.681,212.483 140.395,213.189 140.3,214.189L145.315,214.189C145.315,213.176 145.12,212.466 144.729,212.059C144.338,211.653 143.785,211.449 143.071,211.449Z" style="fill-rule:nonzero;"/>
        <path d="M156.336,219.629C155.932,219.923 155.453,220.146 154.9,220.299C154.348,220.453 153.768,220.529 153.161,220.529C152.379,220.529 151.719,220.406 151.179,220.159C150.64,219.913 150.199,219.559 149.855,219.099C149.511,218.639 149.262,218.086 149.107,217.439C148.952,216.793 148.874,216.076 148.874,215.289C148.874,213.596 149.252,212.299 150.007,211.399C150.762,210.499 151.847,210.049 153.262,210.049C153.909,210.049 154.459,210.099 154.91,210.199C155.362,210.299 155.77,210.443 156.134,210.629L155.669,212.009C155.359,211.836 155.015,211.699 154.637,211.599C154.26,211.499 153.855,211.449 153.424,211.449C151.51,211.449 150.553,212.729 150.553,215.289C150.553,215.796 150.603,216.279 150.704,216.739C150.805,217.199 150.974,217.606 151.21,217.959C151.446,218.313 151.756,218.596 152.14,218.809C152.524,219.023 152.999,219.129 153.566,219.129C154.051,219.129 154.486,219.056 154.87,218.909C155.254,218.763 155.568,218.596 155.81,218.409L156.336,219.629Z" style="fill-rule:nonzero;"/>
        <path d="M28.89,101.901L25.958,101.901C25.917,102.461 25.877,103.064 25.836,103.711C25.796,104.357 25.735,105.004 25.654,105.651C25.574,106.297 25.466,106.917 25.331,107.511C25.196,108.104 25.024,108.627 24.815,109.081C24.606,109.534 24.35,109.897 24.047,110.171C23.744,110.444 23.383,110.581 22.965,110.581C22.709,110.581 22.486,110.567 22.298,110.541C22.109,110.514 21.94,110.467 21.792,110.401L22.035,109.061C22.197,109.114 22.372,109.141 22.561,109.141C22.83,109.141 23.073,109.027 23.289,108.801C23.504,108.574 23.693,108.144 23.855,107.511C24.017,106.877 24.151,106.001 24.259,104.881C24.367,103.761 24.441,102.301 24.482,100.501L30.508,100.501L30.508,110.501L28.89,110.501L28.89,101.901Z" style="fill-rule:nonzero;"/>
        <path d="M41.003,109.701C40.598,110.021 40.089,110.274 39.476,110.461C38.863,110.647 38.212,110.741 37.525,110.741C36.756,110.741 36.089,110.617 35.523,110.371C34.956,110.124 34.491,109.771 34.127,109.311C33.763,108.851 33.494,108.301 33.319,107.661C33.143,107.021 33.056,106.301 33.056,105.501C33.056,103.794 33.44,102.494 34.208,101.601C34.977,100.707 36.075,100.261 37.504,100.261C37.963,100.261 38.421,100.311 38.88,100.411C39.338,100.511 39.749,100.701 40.113,100.981C40.477,101.261 40.774,101.657 41.003,102.171C41.232,102.684 41.347,103.361 41.347,104.201C41.347,104.641 41.306,105.127 41.225,105.661L34.734,105.661C34.734,106.247 34.795,106.767 34.916,107.221C35.037,107.674 35.226,108.057 35.482,108.371C35.738,108.684 36.072,108.924 36.483,109.091C36.894,109.257 37.397,109.341 37.99,109.341C38.448,109.341 38.906,109.261 39.365,109.101C39.823,108.941 40.167,108.754 40.396,108.541L41.003,109.701ZM37.525,101.661C36.729,101.661 36.092,101.867 35.614,102.281C35.135,102.694 34.849,103.401 34.754,104.401L39.769,104.401C39.769,103.387 39.574,102.677 39.183,102.271C38.792,101.864 38.239,101.661 37.525,101.661Z" style="fill-rule:nonzero;"/>
        <path d="M50.79,109.841C50.386,110.134 49.907,110.357 49.354,110.511C48.802,110.664 48.222,110.741 47.615,110.741C46.833,110.741 46.173,110.617 45.634,110.371C45.094,110.124 44.653,109.771 44.309,109.311C43.965,108.851 43.716,108.297 43.561,107.651C43.406,107.004 43.328,106.287 43.328,105.501C43.328,103.807 43.706,102.511 44.461,101.611C45.216,100.711 46.301,100.261 47.716,100.261C48.364,100.261 48.913,100.311 49.365,100.411C49.816,100.511 50.224,100.654 50.588,100.841L50.123,102.221C49.813,102.047 49.469,101.911 49.092,101.811C48.714,101.711 48.31,101.661 47.878,101.661C45.964,101.661 45.007,102.941 45.007,105.501C45.007,106.007 45.057,106.491 45.158,106.951C45.259,107.411 45.428,107.817 45.664,108.171C45.9,108.524 46.21,108.807 46.594,109.021C46.978,109.234 47.454,109.341 48.02,109.341C48.505,109.341 48.94,109.267 49.324,109.121C49.708,108.974 50.022,108.807 50.264,108.621L50.79,109.841Z" style="fill-rule:nonzero;"/>
        <path d="M118.474,164.834C118.121,165.188 117.683,165.484 117.162,165.722C116.64,165.961 116.08,166.128 115.48,166.223C114.708,166.346 114.037,166.329 113.465,166.17C112.894,166.011 112.402,165.732 111.99,165.332C111.578,164.932 111.245,164.424 110.99,163.81C110.735,163.196 110.545,162.501 110.422,161.724C110.155,160.052 110.323,158.712 110.927,157.704C111.531,156.696 112.532,156.081 113.929,155.858C114.569,155.756 115.119,155.719 115.581,155.747C116.042,155.774 116.468,155.851 116.857,155.978L116.615,157.414C116.281,157.292 115.92,157.211 115.532,157.172C115.143,157.133 114.736,157.147 114.31,157.215C112.419,157.517 111.676,158.931 112.079,161.459C112.159,161.96 112.285,162.429 112.457,162.867C112.629,163.306 112.86,163.681 113.149,163.993C113.437,164.304 113.788,164.535 114.201,164.685C114.614,164.836 115.1,164.866 115.659,164.777C116.139,164.7 116.556,164.56 116.913,164.354C117.269,164.149 117.552,163.935 117.762,163.712L118.474,164.834Z" style="fill-rule:nonzero;"/>
        <path d="M123.544,150.274L124.89,150.626L120.197,168.063L118.851,167.711L123.544,150.274Z" style="fill-rule:nonzero;"/>
        <path d="M129.653,158.535L125.53,154.251L127.487,153.939L129.818,156.362L130.557,157.398L130.957,156.18L132.459,153.145L134.256,152.859L131.637,158.137L136.031,162.702L134.134,163.005L131.538,160.34L130.75,159.251L130.32,160.535L128.642,163.881L126.865,164.164L129.653,158.535Z" style="fill-rule:nonzero;"/>
        <path d="M48.286,60.798L48.286,59.498L49.701,59.498C49.944,59.498 50.183,59.458 50.419,59.378C50.655,59.298 50.867,59.188 51.056,59.048C51.245,58.908 51.396,58.741 51.511,58.548C51.626,58.354 51.683,58.151 51.683,57.938C51.683,57.418 51.501,57.051 51.137,56.838C50.773,56.624 50.227,56.518 49.499,56.518C48.973,56.518 48.491,56.598 48.053,56.758C47.615,56.918 47.275,57.071 47.032,57.218L46.567,55.978C46.971,55.751 47.446,55.551 47.992,55.378C48.538,55.204 49.189,55.118 49.944,55.118C52.182,55.118 53.301,55.938 53.301,57.578C53.301,58.044 53.149,58.501 52.846,58.948C52.542,59.394 52.108,59.711 51.541,59.898L51.541,59.978C52.337,60.124 52.893,60.404 53.21,60.818C53.526,61.231 53.685,61.778 53.685,62.458C53.685,62.884 53.597,63.278 53.422,63.638C53.247,63.998 52.984,64.311 52.633,64.578C52.283,64.844 51.841,65.054 51.309,65.208C50.776,65.361 50.16,65.438 49.459,65.438C48.771,65.438 48.201,65.378 47.75,65.258C47.298,65.138 46.89,64.991 46.526,64.818L46.991,63.498C47.302,63.671 47.676,63.804 48.114,63.898C48.552,63.991 49.027,64.038 49.539,64.038C50.362,64.038 50.989,63.898 51.42,63.618C51.851,63.338 52.067,62.911 52.067,62.338C52.067,61.858 51.865,61.481 51.46,61.208C51.056,60.934 50.389,60.798 49.459,60.798L48.286,60.798Z" style="fill-rule:nonzero;"/>
        <path d="M56.071,55.998C56.583,55.691 57.18,55.464 57.861,55.318C58.541,55.171 59.253,55.098 59.994,55.098C60.695,55.098 61.258,55.191 61.683,55.378C62.107,55.564 62.431,55.808 62.653,56.108C62.876,56.408 63.024,56.738 63.098,57.098C63.172,57.458 63.209,57.818 63.209,58.178C63.209,58.978 63.189,59.758 63.149,60.518C63.108,61.278 63.088,61.998 63.088,62.678C63.088,63.171 63.108,63.638 63.149,64.078C63.189,64.518 63.263,64.924 63.371,65.298L62.178,65.298L61.753,63.898L61.652,63.898C61.531,64.084 61.379,64.268 61.197,64.448C61.015,64.628 60.796,64.788 60.54,64.928C60.284,65.068 59.987,65.184 59.65,65.278C59.313,65.371 58.929,65.418 58.498,65.418C58.066,65.418 57.665,65.351 57.294,65.218C56.924,65.084 56.604,64.894 56.334,64.648C56.064,64.401 55.852,64.104 55.697,63.758C55.542,63.411 55.464,63.018 55.464,62.578C55.464,61.991 55.586,61.501 55.828,61.108C56.071,60.714 56.411,60.401 56.85,60.168C57.288,59.934 57.814,59.768 58.427,59.668C59.04,59.568 59.718,59.518 60.459,59.518L61.015,59.518C61.197,59.518 61.383,59.531 61.571,59.558C61.612,59.158 61.632,58.798 61.632,58.478C61.632,57.744 61.484,57.231 61.187,56.938C60.891,56.644 60.351,56.498 59.569,56.498C59.34,56.498 59.094,56.514 58.831,56.548C58.568,56.581 58.299,56.628 58.022,56.688C57.746,56.748 57.483,56.821 57.234,56.908C56.984,56.994 56.765,57.091 56.577,57.198L56.071,55.998ZM58.943,64.018C59.32,64.018 59.657,63.968 59.954,63.868C60.25,63.768 60.506,63.641 60.722,63.488C60.938,63.334 61.116,63.164 61.258,62.978C61.399,62.791 61.504,62.611 61.571,62.438L61.571,60.778C61.383,60.764 61.191,60.754 60.995,60.748C60.8,60.741 60.607,60.738 60.419,60.738C60.001,60.738 59.593,60.761 59.195,60.808C58.798,60.854 58.447,60.941 58.144,61.068C57.84,61.194 57.598,61.368 57.416,61.588C57.234,61.808 57.143,62.084 57.143,62.418C57.143,62.884 57.311,63.268 57.648,63.568C57.985,63.868 58.417,64.018 58.943,64.018Z" style="fill-rule:nonzero;"/>
        <path d="M66.263,55.278C66.735,55.251 67.23,55.218 67.749,55.178C68.268,55.138 68.912,55.118 69.68,55.118C71.015,55.118 71.972,55.321 72.552,55.728C73.131,56.134 73.421,56.751 73.421,57.578C73.421,58.044 73.283,58.501 73.007,58.948C72.73,59.394 72.275,59.724 71.642,59.938L71.642,60.018C72.437,60.164 72.997,60.438 73.32,60.838C73.644,61.238 73.806,61.771 73.806,62.438C73.806,63.478 73.428,64.231 72.673,64.698C71.918,65.164 70.786,65.398 69.276,65.398C68.71,65.398 68.184,65.381 67.699,65.348C67.213,65.314 66.735,65.278 66.263,65.238L66.263,55.278ZM67.881,63.918C68.137,63.944 68.389,63.964 68.639,63.978C68.888,63.991 69.182,63.998 69.519,63.998C70.422,63.998 71.092,63.871 71.531,63.618C71.969,63.364 72.188,62.931 72.188,62.318C72.188,61.838 72.002,61.448 71.632,61.148C71.261,60.848 70.604,60.698 69.66,60.698L67.881,60.698L67.881,63.918ZM69.862,59.478C70.105,59.478 70.341,59.438 70.57,59.358C70.799,59.278 71.005,59.168 71.187,59.028C71.369,58.888 71.517,58.724 71.632,58.538C71.746,58.351 71.804,58.151 71.804,57.938C71.804,57.404 71.642,57.034 71.318,56.828C70.995,56.621 70.429,56.518 69.62,56.518C69.188,56.518 68.848,56.524 68.598,56.538C68.349,56.551 68.11,56.564 67.881,56.578L67.881,59.478L69.862,59.478Z" style="fill-rule:nonzero;"/>
        <path d="M75.787,60.258C75.787,58.564 76.168,57.268 76.93,56.368C77.692,55.468 78.787,55.018 80.216,55.018C80.971,55.018 81.628,55.141 82.187,55.388C82.747,55.634 83.209,55.988 83.573,56.448C83.937,56.908 84.206,57.461 84.382,58.108C84.557,58.754 84.644,59.471 84.644,60.258C84.644,61.951 84.264,63.248 83.502,64.148C82.74,65.048 81.645,65.498 80.216,65.498C79.461,65.498 78.804,65.374 78.244,65.128C77.685,64.881 77.223,64.528 76.859,64.068C76.495,63.608 76.225,63.054 76.05,62.408C75.875,61.761 75.787,61.044 75.787,60.258ZM77.466,60.258C77.466,60.764 77.516,61.251 77.617,61.718C77.718,62.184 77.877,62.591 78.093,62.938C78.308,63.284 78.591,63.564 78.942,63.778C79.292,63.991 79.717,64.098 80.216,64.098C82.049,64.111 82.966,62.831 82.966,60.258C82.966,59.738 82.915,59.244 82.814,58.778C82.713,58.311 82.555,57.904 82.339,57.558C82.123,57.211 81.84,56.934 81.49,56.728C81.139,56.521 80.715,56.418 80.216,56.418C78.382,56.404 77.466,57.684 77.466,60.258Z" style="fill-rule:nonzero;"/>
        <path d="M96.13,67.798L95.038,67.798L94.735,65.258L87.132,65.258L86.828,67.798L85.736,67.798L85.736,63.858L86.929,63.858C87.037,63.711 87.179,63.448 87.354,63.068C87.529,62.688 87.701,62.154 87.87,61.468C88.038,60.781 88.187,59.928 88.315,58.908C88.443,57.888 88.52,56.671 88.547,55.258L94.654,55.258L94.654,63.858L96.13,63.858L96.13,67.798ZM93.036,63.858L93.036,56.658L90.003,56.658C89.976,57.218 89.929,57.828 89.862,58.488C89.794,59.148 89.703,59.808 89.589,60.468C89.474,61.128 89.329,61.751 89.154,62.338C88.979,62.924 88.776,63.431 88.547,63.858L93.036,63.858Z" style="fill-rule:nonzero;"/>
        <path d="M92.329,106.923L88.191,108.04L90.432,116.343L88.871,116.765L86.264,107.11L91.964,105.571L92.329,106.923Z" style="fill-rule:nonzero;"/>
        <path d="M94.224,110.14C93.783,108.505 93.813,107.154 94.313,106.087C94.814,105.019 95.754,104.299 97.134,103.927C97.863,103.73 98.529,103.678 99.134,103.77C99.738,103.862 100.276,104.083 100.747,104.432C101.219,104.781 101.623,105.245 101.961,105.824C102.299,106.402 102.57,107.071 102.775,107.831C103.217,109.466 103.187,110.817 102.686,111.884C102.186,112.952 101.245,113.672 99.866,114.044C99.137,114.241 98.47,114.293 97.866,114.201C97.261,114.109 96.724,113.888 96.252,113.539C95.781,113.19 95.376,112.726 95.039,112.147C94.701,111.568 94.429,110.899 94.224,110.14ZM95.845,109.702C95.977,110.191 96.153,110.648 96.372,111.072C96.591,111.496 96.85,111.848 97.149,112.126C97.447,112.405 97.794,112.601 98.188,112.716C98.582,112.83 99.019,112.823 99.501,112.693C101.274,112.228 101.826,110.753 101.155,108.268C101.019,107.766 100.842,107.303 100.623,106.879C100.403,106.455 100.144,106.104 99.846,105.825C99.547,105.547 99.202,105.354 98.81,105.245C98.417,105.137 97.98,105.148 97.499,105.278C95.725,105.743 95.174,107.218 95.845,109.702Z" style="fill-rule:nonzero;"/>
        <path d="M103.932,102.34L105.005,102.05L105.611,103.129L105.689,103.108C105.867,102.577 106.161,102.128 106.572,101.761C106.983,101.395 107.494,101.129 108.106,100.964C109.407,100.613 110.479,100.731 111.322,101.318C112.165,101.905 112.819,103.061 113.285,104.786C113.504,105.597 113.594,106.356 113.555,107.065C113.515,107.773 113.361,108.405 113.092,108.961C112.824,109.516 112.446,109.991 111.959,110.385C111.472,110.779 110.89,111.068 110.213,111.25C109.731,111.38 109.343,111.454 109.047,111.472C108.752,111.489 108.422,111.471 108.059,111.418L109.143,115.434L107.581,115.856L103.932,102.34ZM108.178,102.395C107.514,102.574 107.036,102.886 106.744,103.331C106.452,103.776 106.322,104.367 106.354,105.104L107.647,109.892C107.93,110.009 108.234,110.076 108.559,110.091C108.885,110.107 109.295,110.048 109.789,109.915C110.687,109.672 111.31,109.148 111.658,108.343C112.007,107.538 112.007,106.491 111.659,105.204C111.517,104.676 111.342,104.209 111.134,103.803C110.927,103.396 110.681,103.069 110.398,102.821C110.114,102.573 109.791,102.408 109.427,102.327C109.063,102.246 108.646,102.268 108.178,102.395Z" style="fill-rule:nonzero;"/>
        <path d="M115.25,104.463C114.809,102.828 114.838,101.477 115.339,100.409C115.84,99.342 116.78,98.622 118.16,98.249C118.889,98.052 119.555,98 120.16,98.092C120.764,98.185 121.302,98.406 121.773,98.755C122.245,99.104 122.649,99.568 122.987,100.146C123.325,100.725 123.596,101.394 123.801,102.154C124.243,103.788 124.213,105.14 123.712,106.207C123.211,107.274 122.271,107.994 120.892,108.367C120.163,108.564 119.496,108.616 118.892,108.524C118.287,108.431 117.749,108.211 117.278,107.861C116.807,107.512 116.402,107.048 116.064,106.47C115.727,105.891 115.455,105.222 115.25,104.463ZM116.871,104.025C117.003,104.514 117.178,104.971 117.398,105.395C117.617,105.819 117.876,106.17 118.174,106.449C118.473,106.727 118.819,106.924 119.213,107.038C119.607,107.153 120.045,107.145 120.527,107.015C122.3,106.55 122.852,105.076 122.181,102.591C122.045,102.089 121.868,101.626 121.649,101.202C121.429,100.778 121.17,100.426 120.872,100.148C120.573,99.869 120.228,99.676 119.835,99.568C119.443,99.46 119.006,99.471 118.525,99.601C116.751,100.066 116.2,101.541 116.871,104.025Z" style="fill-rule:nonzero;"/>
        <path d="M136.856,106.439L135.801,106.723L134.846,104.35L127.506,106.332L127.875,108.864L126.821,109.148L125.794,105.344L126.946,105.033C127.012,104.864 127.08,104.573 127.15,104.16C127.22,103.748 127.247,103.188 127.23,102.481C127.214,101.774 127.135,100.912 126.993,99.894C126.85,98.875 126.608,97.681 126.266,96.309L132.161,94.717L134.403,103.02L135.828,102.635L136.856,106.439ZM132.841,103.441L130.965,96.49L128.036,97.281C128.156,97.829 128.27,98.43 128.377,99.085C128.484,99.74 128.568,100.4 128.629,101.067C128.691,101.735 128.713,102.374 128.697,102.986C128.681,103.598 128.617,104.14 128.507,104.612L132.841,103.441Z" style="fill-rule:nonzero;"/>
        <path d="M4.736,183.358L29.736,151.358L64.736,131.358L91.736,128.358L121.736,127.358L147.736,113.558L156.736,87.358L148.736,69.358L129.736,44.129L145.736,44.129L157.736,62.358L167.736,78.843L172.736,91.358L180.736,100.358L185.736,105.358L189.736,113.558L175.736,124.358L159.736,127.358L137.736,131.358L104.165,143.558L75.736,150.358L60.736,164.358L49.736,176.358L42.736,201.358L47.736,228.358L61.736,242.986L4.736,242.986L4.736,183.358Z" style="fill:rgb(45,231,231);stroke:black;stroke-width:3px;"/>
        <circle cx="24.203" cy="219.005" r="5" style="fill:rgb(255,0,0);"/>
        <path d="M28.65,166.459L30.165,165.277L31.142,166.037L31.206,165.987C31.171,165.372 31.268,164.823 31.497,164.339C31.727,163.855 32.113,163.402 32.655,162.979C33.654,162.2 34.647,161.928 35.635,162.163C36.623,162.399 37.658,163.211 38.74,164.598C39.265,165.271 39.659,165.94 39.922,166.606C40.185,167.272 40.308,167.916 40.289,168.54C40.271,169.163 40.114,169.75 39.818,170.302C39.522,170.855 39.082,171.359 38.497,171.815C38.168,172.072 37.878,172.26 37.629,172.378C37.379,172.497 37.107,172.587 36.813,172.647L39.335,175.88L37.262,177.497L28.65,166.459ZM33.387,165.199C32.983,165.514 32.744,165.861 32.672,166.239C32.599,166.617 32.655,167.055 32.839,167.554L35.398,170.834C35.637,170.833 35.871,170.799 36.1,170.73C36.328,170.662 36.586,170.516 36.873,170.292C37.468,169.827 37.753,169.272 37.726,168.624C37.7,167.977 37.314,167.175 36.567,166.218C36.026,165.524 35.491,165.079 34.961,164.883C34.432,164.687 33.907,164.793 33.387,165.199Z" style="fill-rule:nonzero;"/>
        <path d="M49.259,161.972C49.137,162.473 48.87,163.024 48.458,163.625C48.046,164.225 47.532,164.766 46.915,165.247C45.629,166.25 44.399,166.614 43.226,166.337C42.053,166.06 40.961,165.275 39.953,163.982C38.87,162.595 38.393,161.293 38.521,160.077C38.649,158.86 39.319,157.78 40.531,156.834C40.935,156.519 41.369,156.265 41.834,156.071C42.298,155.878 42.774,155.786 43.26,155.796C43.746,155.805 44.24,155.944 44.74,156.213C45.241,156.482 45.729,156.922 46.205,157.531C46.377,157.752 46.548,157.999 46.719,158.272C46.889,158.545 47.054,158.839 47.214,159.154L42.431,162.886C42.98,163.523 43.542,163.888 44.118,163.979C44.694,164.071 45.333,163.843 46.034,163.296C46.47,162.956 46.809,162.585 47.052,162.185C47.295,161.784 47.454,161.444 47.528,161.167L49.259,161.972ZM41.779,158.499C41.236,158.922 40.96,159.395 40.95,159.919C40.94,160.443 41.117,160.994 41.482,161.571L44.448,159.257C44.047,158.657 43.619,158.289 43.164,158.154C42.708,158.019 42.246,158.134 41.779,158.499Z" style="fill-rule:nonzero;"/>
        <path d="M51.594,155.99L51.036,156.426L53.583,159.69L51.51,161.307L45.359,153.423L47.431,151.805L50.052,155.164L50.374,154.558L49.791,149.964L52.007,148.235L52.415,152.736L52.07,153.97L53.442,153.888L58.461,155.883L56.086,157.737L51.594,155.99Z" style="fill-rule:nonzero;"/>
        <path d="M53.464,147.834C53.741,147.313 54.129,146.77 54.628,146.203C55.126,145.637 55.694,145.105 56.332,144.607C56.885,144.176 57.398,143.881 57.873,143.722C58.347,143.563 58.788,143.52 59.194,143.591C59.601,143.663 59.98,143.832 60.333,144.098C60.686,144.364 61.027,144.707 61.355,145.127C61.715,145.59 62.062,146.067 62.396,146.56C62.729,147.053 63.069,147.527 63.416,147.983C63.764,148.44 64.119,148.868 64.483,149.269C64.848,149.67 65.241,150.01 65.664,150.289L63.974,151.607L62.79,150.78L62.71,150.843C62.752,151.334 62.677,151.846 62.484,152.377C62.291,152.908 61.897,153.405 61.302,153.87C60.93,154.16 60.552,154.366 60.168,154.488C59.784,154.61 59.406,154.651 59.034,154.612C58.661,154.573 58.308,154.459 57.974,154.272C57.639,154.085 57.337,153.818 57.066,153.471C56.689,152.987 56.48,152.495 56.44,151.994C56.399,151.493 56.504,150.98 56.753,150.456C57.002,149.931 57.38,149.408 57.887,148.885C58.395,148.363 59.011,147.844 59.737,147.328C59.352,146.681 58.98,146.291 58.619,146.158C58.259,146.025 57.802,146.174 57.25,146.605C56.835,146.929 56.43,147.313 56.033,147.758C55.636,148.202 55.342,148.609 55.151,148.978L53.464,147.834ZM60.671,151.648C61.085,151.324 61.343,150.975 61.444,150.6C61.545,150.226 61.572,149.888 61.525,149.586L60.725,148.561C60.371,148.787 60.051,149.028 59.764,149.286C59.478,149.543 59.246,149.8 59.07,150.056C58.893,150.312 58.789,150.562 58.758,150.806C58.726,151.051 58.793,151.278 58.957,151.488C59.186,151.783 59.452,151.943 59.755,151.969C60.057,151.995 60.363,151.888 60.671,151.648Z" style="fill-rule:nonzero;"/>
        <path d="M21.275,198.702C21.167,197.593 21.221,196.649 21.437,195.87C21.652,195.092 21.949,194.42 22.326,193.854C22.704,193.289 23.135,192.798 23.621,192.382C24.106,191.966 24.559,191.566 24.979,191.182C25.4,190.798 25.751,190.398 26.031,189.982C26.311,189.566 26.452,189.07 26.452,188.494C26.452,187.748 26.241,187.15 25.821,186.702C25.4,186.254 24.65,186.03 23.572,186.03C23.227,186.03 22.86,186.068 22.472,186.142C22.084,186.217 21.695,186.324 21.307,186.462C20.919,186.601 20.547,186.761 20.191,186.942C19.835,187.124 19.517,187.31 19.236,187.502L17.619,184.43C18.438,183.876 19.382,183.417 20.45,183.054C21.517,182.692 22.806,182.51 24.316,182.51C26.344,182.51 27.929,182.996 29.072,183.966C30.216,184.937 30.787,186.244 30.787,187.886C30.787,188.974 30.642,189.876 30.35,190.59C30.059,191.305 29.698,191.913 29.266,192.414C28.835,192.916 28.361,193.358 27.843,193.742C27.325,194.126 26.851,194.537 26.419,194.974C25.988,195.412 25.621,195.918 25.319,196.494C25.017,197.07 24.866,197.806 24.866,198.702L21.275,198.702ZM20.628,203.246C20.628,202.5 20.865,201.908 21.34,201.47C21.814,201.033 22.44,200.814 23.216,200.814C24.036,200.814 24.683,201.033 25.157,201.47C25.632,201.908 25.869,202.5 25.869,203.246C25.869,203.993 25.632,204.59 25.157,205.038C24.683,205.486 24.036,205.71 23.216,205.71C22.44,205.71 21.814,205.486 21.34,205.038C20.865,204.59 20.628,203.993 20.628,203.246Z" style="fill:rgb(255,0,0);fill-rule:nonzero;"/>
        <path d="M195.604,409.359C195.496,408.249 195.55,407.305 195.766,406.527C195.981,405.748 196.278,405.076 196.655,404.511C197.033,403.945 197.464,403.455 197.949,403.039C198.435,402.623 198.888,402.223 199.308,401.839C199.729,401.455 200.079,401.055 200.36,400.639C200.64,400.223 200.781,399.727 200.781,399.151C200.781,398.404 200.57,397.807 200.15,397.359C199.729,396.911 198.979,396.687 197.901,396.687C197.556,396.687 197.189,396.724 196.801,396.799C196.413,396.873 196.024,396.98 195.636,397.119C195.248,397.257 194.876,397.417 194.52,397.599C194.164,397.78 193.846,397.967 193.565,398.159L191.948,395.087C192.767,394.532 193.711,394.073 194.779,393.711C195.846,393.348 197.135,393.167 198.645,393.167C200.673,393.167 202.258,393.652 203.401,394.623C204.544,395.593 205.116,396.9 205.116,398.543C205.116,399.631 204.97,400.532 204.679,401.247C204.388,401.961 204.027,402.569 203.595,403.071C203.164,403.572 202.689,404.015 202.172,404.399C201.654,404.783 201.18,405.193 200.748,405.631C200.317,406.068 199.95,406.575 199.648,407.151C199.346,407.727 199.195,408.463 199.195,409.359L195.604,409.359ZM194.957,413.903C194.957,413.156 195.194,412.564 195.668,412.127C196.143,411.689 196.769,411.471 197.545,411.471C198.365,411.471 199.012,411.689 199.486,412.127C199.961,412.564 200.198,413.156 200.198,413.903C200.198,414.649 199.961,415.247 199.486,415.695C199.012,416.143 198.365,416.367 197.545,416.367C196.769,416.367 196.143,416.143 195.668,415.695C195.194,415.247 194.957,414.649 194.957,413.903Z" style="fill:rgb(255,0,0);fill-rule:nonzero;"/>
        <path d="M368.924,96.554C368.816,95.444 368.87,94.5 369.085,93.722C369.301,92.943 369.598,92.271 369.975,91.706C370.353,91.14 370.784,90.65 371.269,90.234C371.755,89.818 372.208,89.418 372.628,89.034C373.049,88.65 373.399,88.25 373.68,87.834C373.96,87.418 374.1,86.922 374.1,86.346C374.1,85.599 373.89,85.002 373.469,84.554C373.049,84.106 372.299,83.882 371.221,83.882C370.876,83.882 370.509,83.919 370.121,83.994C369.732,84.068 369.344,84.175 368.956,84.314C368.568,84.452 368.196,84.612 367.84,84.794C367.484,84.975 367.166,85.162 366.885,85.354L365.267,82.282C366.087,81.727 367.031,81.268 368.099,80.906C369.166,80.543 370.455,80.362 371.965,80.362C373.992,80.362 375.578,80.847 376.721,81.818C377.864,82.788 378.436,84.095 378.436,85.738C378.436,86.826 378.29,87.727 377.999,88.442C377.708,89.156 377.347,89.764 376.915,90.266C376.484,90.767 376.009,91.21 375.492,91.594C374.974,91.978 374.499,92.388 374.068,92.826C373.637,93.263 373.27,93.77 372.968,94.346C372.666,94.922 372.515,95.658 372.515,96.554L368.924,96.554ZM368.276,101.098C368.276,100.351 368.514,99.759 368.988,99.322C369.463,98.884 370.088,98.666 370.865,98.666C371.685,98.666 372.332,98.884 372.806,99.322C373.281,99.759 373.518,100.351 373.518,101.098C373.518,101.844 373.281,102.442 372.806,102.89C372.332,103.338 371.685,103.562 370.865,103.562C370.088,103.562 369.463,103.338 368.988,102.89C368.514,102.442 368.276,101.844 368.276,101.098Z" style="fill:rgb(255,0,0);fill-rule:nonzero;"/>
        <path d="M209.644,362.665L263.569,308.763L332.57,380.446L294.301,402.118L267.048,370.444L242.115,374.89L209.644,362.665Z" style="fill:rgb(250,112,255);stroke:black;stroke-width:3px;stroke-linejoin:bevel;"/>
        <path d="M353.199,371.99L431.486,422.915L374.15,492.655L320.394,474.754L356.475,446.137L353.199,371.99Z" style="fill:rgb(144,250,46);fill-opacity:0.3;stroke:black;stroke-width:1px;stroke-linejoin:bevel;"/>
        <path d="M84.234,414.029L172.963,422.726L224.569,456.937L160.207,477.811L138.173,440.122L94.685,461.576L84.234,414.029Z" style="fill:rgb(244,251,46);stroke:black;stroke-width:3px;stroke-linejoin:bevel;"/>
        <path d="M152.379,299.954L86.745,338.052L51.26,386.667L16.089,310.036L152.379,299.954Z" style="fill:rgb(45,231,231);fill-opacity:0.3;stroke:black;stroke-width:1px;stroke-linejoin:bevel;"/>
        <rect x="103.922" y="333.468" width="189.219" height="165.798" style="fill:none;stroke:rgb(255,0,0);stroke-width:4px;"/>
        <circle cx="269.563" cy="51.631" r="3.549" style="fill:rgb(191,191,191);"/>
        <path d="M407.848,117.653C408.828,119.35 408.246,121.522 406.549,122.501C404.853,123.481 402.681,122.899 401.702,121.202C400.722,119.506 401.304,117.334 403.001,116.354C404.697,115.375 406.869,115.957 407.848,117.653Z" style="fill:rgb(191,191,191);"/>
        <path d="M268.133,197.691C269.113,195.995 271.285,195.413 272.981,196.392C274.678,197.371 275.26,199.544 274.28,201.24C273.301,202.936 271.129,203.518 269.432,202.539C267.736,201.56 267.154,199.387 268.133,197.691Z" style="fill:rgb(191,191,191);"/>
        <circle cx="359.387" cy="136.261" r="3.549"/>
        <path d="M379.469,237.758C380.448,239.455 379.866,241.627 378.17,242.606C376.474,243.586 374.301,243.004 373.322,241.307C372.343,239.611 372.925,237.439 374.621,236.459C376.317,235.48 378.489,236.062 379.469,237.758Z" style="fill:rgb(191,191,191);"/>
        <path d="M386.337,162.216C387.317,160.52 389.489,159.938 391.185,160.917C392.882,161.896 393.464,164.069 392.484,165.765C391.505,167.461 389.333,168.043 387.636,167.064C385.94,166.085 385.358,163.912 386.337,162.216Z"/>
        <circle cx="273.474" cy="73.214" r="3.549" style="fill:rgb(191,191,191);"/>
        <path d="M391.112,131.832C392.091,133.528 391.509,135.7 389.813,136.679C388.117,137.659 385.944,137.077 384.965,135.381C383.986,133.684 384.568,131.512 386.264,130.533C387.96,129.553 390.133,130.135 391.112,131.832Z" style="fill:rgb(191,191,191);"/>
        <path d="M288.78,205.096C289.76,203.4 291.932,202.818 293.628,203.797C295.325,204.776 295.907,206.949 294.927,208.645C293.948,210.341 291.776,210.923 290.079,209.944C288.383,208.965 287.801,206.792 288.78,205.096Z"/>
        <circle cx="285.364" cy="57.576" r="3.549" style="fill:rgb(191,191,191);"/>
        <path d="M410.6,134.31C411.58,136.006 410.998,138.178 409.301,139.158C407.605,140.137 405.433,139.555 404.453,137.859C403.474,136.163 404.056,133.99 405.752,133.011C407.449,132.032 409.621,132.614 410.6,134.31Z" style="fill:rgb(191,191,191);"/>
        <path d="M281.183,186.98C282.162,185.283 284.334,184.701 286.031,185.681C287.727,186.66 288.309,188.832 287.33,190.529C286.35,192.225 284.178,192.807 282.482,191.828C280.785,190.848 280.203,188.676 281.183,186.98Z"/>
        <circle cx="288.751" cy="108.092" r="3.549" style="fill:rgb(191,191,191);"/>
        <path d="M368.545,162.501C369.525,164.198 368.943,166.37 367.246,167.349C365.55,168.329 363.378,167.747 362.398,166.05C361.419,164.354 362.001,162.182 363.697,161.202C365.394,160.223 367.566,160.805 368.545,162.501Z"/>
        <path d="M278.519,249.649C279.498,247.953 281.671,247.371 283.367,248.35C285.063,249.329 285.645,251.502 284.666,253.198C283.687,254.894 281.514,255.476 279.818,254.497C278.122,253.518 277.54,251.345 278.519,249.649Z" style="fill:rgb(191,191,191);"/>
        <circle cx="335.607" cy="71.686" r="3.549" style="fill:rgb(191,191,191);"/>
        <path d="M423.502,184.876C424.481,186.572 423.899,188.745 422.203,189.724C420.507,190.703 418.335,190.121 417.355,188.425C416.376,186.729 416.958,184.556 418.654,183.577C420.35,182.598 422.523,183.18 423.502,184.876Z" style="fill:rgb(191,191,191);"/>
        <path d="M318.523,150.523C319.503,148.827 321.675,148.245 323.371,149.224C325.068,150.204 325.65,152.376 324.67,154.072C323.691,155.768 321.519,156.35 319.822,155.371C318.126,154.392 317.544,152.219 318.523,150.523Z"/>
        <circle cx="293.483" cy="78.659" r="3.549" style="fill:rgb(191,191,191);"/>
        <path d="M398.22,145.369C399.199,147.065 398.617,149.237 396.921,150.217C395.224,151.196 393.052,150.614 392.073,148.918C391.093,147.222 391.675,145.049 393.372,144.07C395.068,143.091 397.24,143.673 398.22,145.369Z" style="fill:rgb(191,191,191);"/>
        <path d="M302.3,174.107C303.279,172.41 305.452,171.828 307.148,172.808C308.844,173.787 309.426,175.959 308.447,177.655C307.468,179.352 305.295,179.934 303.599,178.954C301.903,177.975 301.321,175.803 302.3,174.107Z"/>
        <circle cx="307.942" cy="130.316" r="3.549"/>
        <path d="M358.895,190.232C359.874,191.929 359.292,194.101 357.596,195.08C355.899,196.06 353.727,195.478 352.748,193.781C351.768,192.085 352.35,189.913 354.047,188.933C355.743,187.954 357.915,188.536 358.895,190.232Z"/>
        <path d="M355.466,203.797C356.445,202.101 358.617,201.519 360.314,202.498C362.01,203.477 362.592,205.649 361.613,207.346C360.633,209.042 358.461,209.624 356.765,208.645C355.068,207.665 354.486,205.493 355.466,203.797Z"/>
        <circle cx="347.497" cy="117.656" r="3.549"/>
        <path d="M407.848,225.868C408.828,227.564 408.246,229.736 406.549,230.716C404.853,231.695 402.681,231.113 401.702,229.417C400.722,227.72 401.304,225.548 403.001,224.569C404.697,223.589 406.869,224.172 407.848,225.868Z" style="fill:rgb(191,191,191);"/>
        <path d="M389.811,70.939C390.79,69.243 392.963,68.661 394.659,69.64C396.355,70.62 396.937,72.792 395.958,74.488C394.979,76.184 392.806,76.766 391.11,75.787C389.414,74.808 388.832,72.635 389.811,70.939Z" style="fill:rgb(191,191,191);"/>
        <circle cx="272.081" cy="136.261" r="3.549" style="fill:rgb(191,191,191);"/>
        <path d="M337.865,160.966C339.497,163.793 338.527,167.414 335.7,169.046C332.873,170.678 329.252,169.708 327.62,166.881C325.988,164.054 326.958,160.433 329.785,158.801C332.612,157.169 336.233,158.139 337.865,160.966Z" style="fill:rgb(255,0,0);"/>
        <path d="M342.684,237.825C343.664,236.129 345.836,235.547 347.532,236.526C349.229,237.506 349.811,239.678 348.831,241.374C347.852,243.07 345.68,243.652 343.983,242.673C342.287,241.694 341.705,239.521 342.684,237.825Z" style="fill:rgb(191,191,191);"/>
        <circle cx="332.742" cy="163.99" r="60.217" style="fill:none;stroke:rgb(255,0,0);stroke-width:3px;stroke-linejoin:round;"/>
    </g>
</svg>
