<?xml version="1.0" encoding="UTF-8" standalone="no"?>
<!DOCTYPE svg PUBLIC "-//W3C//DTD SVG 1.1//EN" "http://www.w3.org/Graphics/SVG/1.1/DTD/svg11.dtd">
<svg width="100%" height="100%" viewBox="0 0 2234 458" version="1.1" xmlns="http://www.w3.org/2000/svg" xmlns:xlink="http://www.w3.org/1999/xlink" xml:space="preserve" xmlns:serif="http://www.serif.com/" style="fill-rule:evenodd;clip-rule:evenodd;stroke-linecap:square;stroke-linejoin:round;stroke-miterlimit:10;">
    <rect id="Clementini-Points-Polygons" serif:id="Clementini Points-Polygons" x="-209" y="-2390" width="2683.8" height="4517.66" style="fill:none;"/>
    <circle cx="128.288" cy="117.797" r="26" style="fill:rgb(247,0,255);"/>
    <path d="M144.285,36.534L150.658,36.534L150.658,42.27C150.774,42.308 150.89,42.347 151.006,42.386C151.895,42.772 152.87,43.091 153.932,43.342C154.994,43.593 156.124,43.718 157.322,43.718C159.485,43.718 161.165,43.284 162.362,42.415C163.56,41.546 164.158,40.377 164.158,38.909C164.158,37.596 163.666,36.534 162.681,35.723C161.696,34.911 160.479,34.197 159.031,33.579C157.582,32.961 155.999,32.343 154.28,31.725C152.561,31.107 150.977,30.325 149.529,29.378C148.08,28.432 146.863,27.244 145.878,25.815C144.894,24.386 144.401,22.532 144.401,20.253C144.401,18.515 144.739,16.921 145.415,15.473C146.091,14.024 147.037,12.779 148.254,11.736C149.471,10.693 150.929,9.882 152.628,9.302C154.328,8.723 156.221,8.433 158.306,8.433C160.663,8.433 162.98,8.646 165.259,9.07C167.538,9.495 169.354,10.075 170.706,10.809L170.706,22.57L164.332,22.57L164.332,16.139C164.216,16.139 164.1,16.12 163.985,16.081C163.135,15.849 162.217,15.666 161.232,15.531C160.247,15.396 159.272,15.328 158.306,15.328C156.452,15.328 154.994,15.695 153.932,16.429C152.87,17.163 152.339,18.148 152.339,19.384C152.339,20.658 152.831,21.701 153.816,22.512C154.801,23.324 156.018,24.057 157.466,24.714C158.915,25.371 160.499,26.027 162.217,26.684C163.936,27.341 165.52,28.142 166.968,29.089C168.417,30.035 169.634,31.223 170.619,32.652C171.604,34.081 172.096,35.877 172.096,38.04C172.096,40.126 171.71,41.951 170.937,43.515C170.165,45.08 169.083,46.393 167.693,47.455C166.302,48.518 164.661,49.309 162.768,49.831C160.875,50.352 158.828,50.613 156.626,50.613C155.158,50.613 153.797,50.497 152.542,50.265C151.286,50.034 150.127,49.744 149.065,49.396C148.003,49.049 147.066,48.682 146.255,48.295C145.444,47.909 144.787,47.581 144.285,47.311L144.285,36.534Z" style="fill-rule:nonzero;"/>
    <path d="M182.12,43.429L188.725,43.429L188.725,15.618L183.163,15.618L183.163,22.628L176.789,22.628L176.789,9.244L208.54,9.244L208.54,22.628L202.167,22.628L202.167,15.618L196.662,15.618L196.662,43.429L203.21,43.429L203.21,49.802L182.12,49.802L182.12,43.429Z" style="fill-rule:nonzero;"/>
    <rect x="214.566" y="56.581" width="25.725" height="6.2" style="fill-rule:nonzero;"/>
    <path d="M248.866,9.244L275.46,9.244L275.46,16.313L256.804,16.313L256.804,25.757L274.012,25.757L274.012,32.826L256.804,32.826L256.804,42.733L275.75,42.733L275.75,49.802L248.866,49.802L248.866,9.244Z" style="fill-rule:nonzero;"/>
    <path d="M310.282,61.39L302.749,61.39L302.749,47.311L302.518,47.311C301.861,48.315 300.78,49.116 299.273,49.715C297.767,50.314 296.125,50.613 294.348,50.613C292.571,50.613 290.93,50.304 289.423,49.686C287.917,49.068 286.623,48.151 285.541,46.934C284.46,45.717 283.61,44.182 282.992,42.328C282.374,40.474 282.065,38.33 282.065,35.896C282.065,33.347 282.461,31.087 283.253,29.118C284.045,27.148 285.155,25.496 286.584,24.164C288.014,22.831 289.723,21.827 291.712,21.151C293.701,20.475 295.913,20.137 298.346,20.137C299.543,20.137 300.731,20.185 301.909,20.282C303.087,20.378 304.208,20.514 305.27,20.687C306.332,20.861 307.298,21.054 308.167,21.267C309.036,21.479 309.741,21.682 310.282,21.875L310.282,61.39ZM296.376,44.24C297.844,44.24 299.167,43.911 300.345,43.255C301.523,42.598 302.325,41.613 302.749,40.3L302.749,27.437C302.17,27.128 301.446,26.897 300.577,26.742C299.708,26.588 298.81,26.51 297.883,26.51C295.449,26.51 293.498,27.283 292.031,28.828C290.563,30.373 289.829,32.633 289.829,35.607C289.829,38.426 290.408,40.57 291.567,42.038C292.726,43.506 294.329,44.24 296.376,44.24Z" style="fill-rule:nonzero;"/>
    <path d="M333.457,20.832L344.234,20.832L344.234,43.429L348.638,43.429L348.638,49.802L339.483,49.802L338.15,45.514L337.919,45.514C337.03,46.982 335.698,48.199 333.921,49.165C332.144,50.13 330.174,50.613 328.011,50.613C326.543,50.613 325.201,50.42 323.984,50.034C322.768,49.647 321.734,49.01 320.885,48.122C320.035,47.233 319.378,46.036 318.915,44.529C318.451,43.023 318.219,41.13 318.219,38.851L318.219,27.206L314.917,27.206L314.917,20.832L325.751,20.832L325.751,37.287C325.751,39.643 326.128,41.343 326.881,42.386C327.634,43.429 328.822,43.95 330.445,43.95C331.874,43.95 333.158,43.525 334.297,42.675C335.437,41.826 336.238,40.783 336.702,39.547L336.702,27.206L333.457,27.206L333.457,20.832Z" style="fill-rule:nonzero;"/>
    <path d="M354.316,22.802C355.861,22.107 357.647,21.508 359.675,21.006C361.703,20.504 364.107,20.253 366.888,20.253C368.897,20.253 370.606,20.494 372.016,20.977C373.426,21.46 374.565,22.145 375.434,23.034C376.304,23.922 376.931,24.985 377.318,26.221C377.704,27.457 377.897,28.847 377.897,30.392C377.897,32.362 377.829,34.042 377.694,35.433C377.559,36.823 377.491,38.06 377.491,39.141C377.491,39.952 377.53,40.86 377.607,41.864C377.684,42.405 377.742,42.926 377.781,43.429L381.547,43.429L381.547,49.802L371.929,49.802L371.176,45.862L370.886,45.862C370.114,47.059 369.013,48.093 367.584,48.962C366.155,49.831 364.223,50.265 361.79,50.265C358.893,50.265 356.595,49.493 354.895,47.948C353.195,46.403 352.346,44.356 352.346,41.806C352.346,40.184 352.645,38.784 353.244,37.606C353.842,36.428 354.711,35.462 355.851,34.709C356.99,33.955 358.362,33.395 359.965,33.028C361.568,32.661 363.354,32.478 365.324,32.478C366.019,32.478 366.753,32.517 367.526,32.594C368.298,32.671 369.245,32.748 370.365,32.826C370.442,32.439 370.481,32.053 370.481,31.667L370.481,30.566C370.481,29.098 370.056,28.046 369.206,27.408C368.356,26.771 367.101,26.452 365.44,26.452C363.47,26.452 361.693,26.703 360.11,27.206C358.526,27.708 357.193,28.21 356.112,28.712L354.316,22.802ZM364.223,44.066C366.077,44.066 367.468,43.728 368.395,43.052C369.322,42.376 369.998,41.652 370.423,40.879L370.423,37.403C370.036,37.326 369.457,37.239 368.685,37.142C367.912,37.046 367.082,36.997 366.193,36.997C365.459,36.997 364.725,37.065 363.991,37.2C363.258,37.335 362.601,37.548 362.022,37.837C361.442,38.127 360.979,38.504 360.631,38.967C360.283,39.431 360.11,39.991 360.11,40.647C360.11,41.729 360.428,42.569 361.066,43.168C361.703,43.767 362.755,44.066 364.223,44.066Z" style="fill-rule:nonzero;"/>
    <path d="M388.905,9.244L401.247,9.244L401.247,36.012C401.247,38.987 401.613,41.053 402.347,42.212C403.081,43.371 404.259,43.95 405.882,43.95C407.079,43.95 408.064,43.824 408.837,43.573C409.609,43.322 410.382,42.965 411.154,42.502L413.993,47.716C413.337,48.141 412.68,48.537 412.023,48.904C411.367,49.271 410.671,49.58 409.937,49.831C409.204,50.082 408.402,50.275 407.533,50.41C406.664,50.545 405.689,50.613 404.607,50.613C400.976,50.613 398.253,49.686 396.438,47.832C394.622,45.978 393.714,43.351 393.714,39.952L393.714,15.618L388.905,15.618L388.905,9.244Z" style="fill-rule:nonzero;"/>
    <path d="M441.92,41.806C441.92,41.034 441.447,40.416 440.5,39.952C439.554,39.489 438.386,39.064 436.995,38.678C435.605,38.291 434.079,37.895 432.418,37.49C430.757,37.084 429.231,36.524 427.841,35.81C426.45,35.095 425.282,34.187 424.335,33.086C423.389,31.986 422.916,30.566 422.916,28.828C422.916,27.399 423.235,26.143 423.872,25.062C424.509,23.98 425.378,23.063 426.479,22.31C427.58,21.556 428.893,20.987 430.419,20.6C431.945,20.214 433.596,20.021 435.373,20.021C437.266,20.021 438.926,20.156 440.356,20.427C441.785,20.697 443.03,21.025 444.093,21.412C445.155,21.798 446.063,22.232 446.816,22.715C447.569,23.198 448.216,23.633 448.757,24.019L445.57,29.175C444.991,28.828 444.324,28.471 443.571,28.104C442.818,27.737 442.026,27.399 441.196,27.09C440.365,26.781 439.496,26.53 438.588,26.336C437.681,26.143 436.783,26.047 435.894,26.047C434.272,26.047 432.959,26.259 431.954,26.684C430.95,27.109 430.448,27.766 430.448,28.654C430.448,29.349 430.921,29.909 431.867,30.334C432.814,30.759 433.982,31.155 435.373,31.522C436.763,31.889 438.289,32.285 439.95,32.71C441.611,33.135 443.137,33.685 444.527,34.361C445.918,35.037 447.086,35.916 448.033,36.997C448.979,38.079 449.452,39.469 449.452,41.169C449.452,44.105 448.38,46.412 446.236,48.093C444.093,49.773 440.916,50.613 436.705,50.613C433.384,50.613 430.516,50.121 428.101,49.136C425.687,48.151 423.746,47.001 422.279,45.688L425.755,40.242C426.257,40.667 426.923,41.14 427.754,41.661C428.584,42.183 429.521,42.656 430.564,43.081C431.607,43.506 432.717,43.863 433.895,44.153C435.073,44.443 436.242,44.587 437.401,44.587C438.637,44.587 439.699,44.375 440.587,43.95C441.476,43.525 441.92,42.811 441.92,41.806Z" style="fill-rule:nonzero;"/>
    <path d="M707.115,36.534L713.488,36.534L713.488,42.27C713.604,42.308 713.72,42.347 713.836,42.386C714.724,42.772 715.699,43.091 716.762,43.342C717.824,43.593 718.954,43.718 720.151,43.718C722.314,43.718 723.994,43.284 725.192,42.415C726.389,41.546 726.988,40.377 726.988,38.909C726.988,37.596 726.495,36.534 725.511,35.723C724.526,34.911 723.309,34.197 721.86,33.579C720.412,32.961 718.828,32.343 717.109,31.725C715.39,31.107 713.807,30.325 712.358,29.378C710.91,28.432 709.693,27.244 708.708,25.815C707.723,24.386 707.231,22.532 707.231,20.253C707.231,18.515 707.569,16.921 708.245,15.473C708.921,14.024 709.867,12.779 711.084,11.736C712.3,10.693 713.758,9.882 715.458,9.302C717.158,8.723 719.05,8.433 721.136,8.433C723.492,8.433 725.81,8.646 728.089,9.07C730.368,9.495 732.183,10.075 733.535,10.809L733.535,22.57L727.162,22.57L727.162,16.139C727.046,16.139 726.93,16.12 726.814,16.081C725.964,15.849 725.047,15.666 724.062,15.531C723.077,15.396 722.102,15.328 721.136,15.328C719.282,15.328 717.824,15.695 716.762,16.429C715.699,17.163 715.168,18.148 715.168,19.384C715.168,20.658 715.661,21.701 716.646,22.512C717.631,23.324 718.847,24.057 720.296,24.714C721.744,25.371 723.328,26.027 725.047,26.684C726.766,27.341 728.35,28.142 729.798,29.089C731.247,30.035 732.463,31.223 733.448,32.652C734.433,34.081 734.926,35.877 734.926,38.04C734.926,40.126 734.539,41.951 733.767,43.515C732.994,45.08 731.913,46.393 730.522,47.455C729.132,48.518 727.49,49.309 725.597,49.831C723.705,50.352 721.658,50.613 719.456,50.613C717.988,50.613 716.626,50.497 715.371,50.265C714.116,50.034 712.957,49.744 711.895,49.396C710.833,49.049 709.896,48.682 709.085,48.295C708.274,47.909 707.617,47.581 707.115,47.311L707.115,36.534Z" style="fill-rule:nonzero;"/>
    <path d="M744.949,43.429L751.554,43.429L751.554,15.618L745.992,15.618L745.992,22.628L739.619,22.628L739.619,9.244L771.37,9.244L771.37,22.628L764.996,22.628L764.996,15.618L759.492,15.618L759.492,43.429L766.039,43.429L766.039,49.802L744.949,49.802L744.949,43.429Z" style="fill-rule:nonzero;"/>
    <rect x="777.395" y="56.581" width="25.725" height="6.2" style="fill-rule:nonzero;"/>
    <path d="M810.537,9.244C810.884,9.206 811.493,9.148 812.362,9.07C813.231,8.993 814.216,8.926 815.317,8.868C816.417,8.81 817.557,8.761 818.735,8.723C819.913,8.684 820.966,8.665 821.893,8.665C825.485,8.665 828.459,9.186 830.815,10.229C833.172,11.272 835.035,12.711 836.407,14.546C837.778,16.381 838.734,18.544 839.275,21.035C839.815,23.526 840.086,26.24 840.086,29.175C840.086,31.841 839.815,34.448 839.275,36.997C838.734,39.547 837.758,41.816 836.349,43.805C834.939,45.794 832.988,47.397 830.497,48.614C828.005,49.831 824.809,50.439 820.908,50.439C820.29,50.439 819.498,50.42 818.532,50.381C817.567,50.343 816.582,50.294 815.577,50.236C814.573,50.179 813.607,50.121 812.68,50.063C811.753,50.005 811.039,49.937 810.537,49.86L810.537,9.244ZM822.182,15.734C821.449,15.734 820.734,15.762 820.039,15.82C819.343,15.878 818.822,15.927 818.474,15.965L818.474,43.139C818.629,43.177 818.861,43.206 819.17,43.226L821.082,43.342C821.391,43.361 821.642,43.371 821.835,43.371C824.075,43.371 825.862,42.955 827.194,42.125C828.527,41.294 829.521,40.203 830.178,38.851C830.835,37.499 831.26,35.974 831.453,34.274C831.646,32.575 831.742,30.875 831.742,29.175C831.742,27.708 831.656,26.182 831.482,24.598C831.308,23.015 830.902,21.566 830.265,20.253C829.628,18.94 828.672,17.858 827.397,17.008C826.122,16.158 824.384,15.734 822.182,15.734Z" style="fill-rule:nonzero;"/>
    <path d="M845.822,43.429L856.019,43.429L856.019,27.206L845.822,27.206L845.822,20.832L863.551,20.832L863.551,43.429L874.27,43.429L874.27,49.802L845.822,49.802L845.822,43.429ZM854.629,12.952C854.629,11.755 855.073,10.731 855.961,9.882C856.85,9.032 858.086,8.607 859.669,8.607C861.292,8.607 862.586,9.032 863.551,9.882C864.517,10.731 865,11.755 865,12.952C865,14.188 864.517,15.202 863.551,15.994C862.586,16.786 861.292,17.182 859.669,17.182C858.086,17.182 856.85,16.786 855.961,15.994C855.073,15.202 854.629,14.188 854.629,12.952Z" style="fill-rule:nonzero;"/>
    <path d="M900.459,41.806C900.459,41.034 899.985,40.416 899.039,39.952C898.093,39.489 896.924,39.064 895.534,38.678C894.143,38.291 892.617,37.895 890.957,37.49C889.296,37.084 887.77,36.524 886.379,35.81C884.989,35.095 883.82,34.187 882.874,33.086C881.928,31.986 881.454,30.566 881.454,28.828C881.454,27.399 881.773,26.143 882.41,25.062C883.048,23.98 883.917,23.063 885.018,22.31C886.119,21.556 887.432,20.987 888.958,20.6C890.483,20.214 892.135,20.021 893.911,20.021C895.804,20.021 897.465,20.156 898.894,20.427C900.323,20.697 901.569,21.025 902.631,21.412C903.694,21.798 904.601,22.232 905.354,22.715C906.108,23.198 906.755,23.633 907.295,24.019L904.109,29.175C903.529,28.828 902.863,28.471 902.11,28.104C901.357,27.737 900.565,27.399 899.734,27.09C898.904,26.781 898.035,26.53 897.127,26.336C896.219,26.143 895.321,26.047 894.433,26.047C892.811,26.047 891.497,26.259 890.493,26.684C889.489,27.109 888.987,27.766 888.987,28.654C888.987,29.349 889.46,29.909 890.406,30.334C891.352,30.759 892.521,31.155 893.911,31.522C895.302,31.889 896.828,32.285 898.489,32.71C900.15,33.135 901.675,33.685 903.066,34.361C904.456,35.037 905.625,35.916 906.571,36.997C907.518,38.079 907.991,39.469 907.991,41.169C907.991,44.105 906.919,46.412 904.775,48.093C902.631,49.773 899.454,50.613 895.244,50.613C891.922,50.613 889.054,50.121 886.64,49.136C884.226,48.151 882.285,47.001 880.817,45.688L884.294,40.242C884.796,40.667 885.462,41.14 886.292,41.661C887.123,42.183 888.06,42.656 889.102,43.081C890.145,43.506 891.256,43.863 892.434,44.153C893.612,44.443 894.781,44.587 895.939,44.587C897.175,44.587 898.238,44.375 899.126,43.95C900.014,43.525 900.459,42.811 900.459,41.806Z" style="fill-rule:nonzero;"/>
    <path d="M917.377,20.832L938.699,20.832L938.699,47.542C938.699,51.984 937.54,55.48 935.222,58.029C932.905,60.579 929.428,61.853 924.793,61.853C922.9,61.853 921.104,61.564 919.405,60.984C917.705,60.405 916.237,59.555 915.001,58.435L918.362,52.873C918.787,53.22 919.55,53.655 920.65,54.176C921.751,54.698 922.997,54.959 924.388,54.959C925.315,54.959 926.193,54.814 927.024,54.524C927.854,54.234 928.579,53.751 929.197,53.075C929.815,52.4 930.297,51.521 930.645,50.439C930.993,49.358 931.166,48.006 931.166,46.383L931.166,27.206L917.377,27.206L917.377,20.832ZM926.821,12.952C926.821,11.755 927.265,10.731 928.154,9.882C929.042,9.032 930.278,8.607 931.862,8.607C933.484,8.607 934.778,9.032 935.744,9.882C936.709,10.731 937.192,11.755 937.192,12.952C937.192,14.188 936.709,15.202 935.744,15.994C934.778,16.786 933.484,17.182 931.862,17.182C930.278,17.182 929.042,16.786 928.154,15.994C927.265,15.202 926.821,14.188 926.821,12.952Z" style="fill-rule:nonzero;"/>
    <path d="M948.722,35.317C948.722,32.884 949.089,30.721 949.823,28.828C950.557,26.935 951.6,25.332 952.952,24.019C954.304,22.706 955.916,21.711 957.79,21.035C959.663,20.359 961.759,20.021 964.076,20.021C966.51,20.021 968.682,20.388 970.594,21.122C972.506,21.856 974.119,22.889 975.432,24.222C976.746,25.554 977.74,27.167 978.416,29.06C979.092,30.952 979.43,33.038 979.43,35.317C979.43,37.751 979.063,39.914 978.329,41.806C977.595,43.699 976.552,45.302 975.2,46.615C973.849,47.929 972.236,48.923 970.363,49.599C968.489,50.275 966.394,50.613 964.076,50.613C961.643,50.613 959.47,50.246 957.558,49.512C955.646,48.778 954.033,47.745 952.72,46.412C951.407,45.08 950.412,43.467 949.736,41.575C949.06,39.682 948.722,37.596 948.722,35.317ZM956.486,35.317C956.486,36.592 956.66,37.77 957.007,38.851C957.355,39.933 957.857,40.879 958.514,41.69C959.171,42.502 959.962,43.129 960.889,43.573C961.816,44.018 962.879,44.24 964.076,44.24C966.316,44.24 968.142,43.525 969.551,42.096C970.961,40.667 971.666,38.407 971.666,35.317C971.666,32.652 971.01,30.498 969.696,28.857C968.383,27.215 966.51,26.394 964.076,26.394C962.995,26.394 961.99,26.559 961.063,26.887C960.136,27.215 959.335,27.746 958.659,28.48C957.983,29.214 957.452,30.141 957.065,31.261C956.679,32.381 956.486,33.733 956.486,35.317Z" style="fill-rule:nonzero;"/>
    <path d="M984.876,43.429L995.074,43.429L995.074,27.206L984.876,27.206L984.876,20.832L1002.61,20.832L1002.61,43.429L1013.33,43.429L1013.33,49.802L984.876,49.802L984.876,43.429ZM993.683,12.952C993.683,11.755 994.127,10.731 995.016,9.882C995.904,9.032 997.14,8.607 998.724,8.607C1000.35,8.607 1001.64,9.032 1002.61,9.882C1003.57,10.731 1004.05,11.755 1004.05,12.952C1004.05,14.188 1003.57,15.202 1002.61,15.994C1001.64,16.786 1000.35,17.182 998.724,17.182C997.14,17.182 995.904,16.786 995.016,15.994C994.127,15.202 993.683,14.188 993.683,12.952Z" style="fill-rule:nonzero;"/>
    <path d="M1016.92,20.832L1027.06,20.832L1027.92,24.656L1028.16,24.656C1029.05,23.42 1030.32,22.339 1031.98,21.412C1033.64,20.485 1035.63,20.021 1037.95,20.021C1039.38,20.021 1040.72,20.214 1041.98,20.6C1043.23,20.987 1044.3,21.624 1045.19,22.512C1046.08,23.401 1046.79,24.608 1047.31,26.134C1047.83,27.659 1048.09,29.542 1048.09,31.783L1048.09,49.802L1040.56,49.802L1040.56,33.347C1040.56,30.991 1040.03,29.291 1038.96,28.248C1037.9,27.206 1036.56,26.684 1034.94,26.684C1033.51,26.684 1032.2,27.099 1031.03,27.93C1029.85,28.76 1029.05,29.793 1028.62,31.03L1028.62,49.802L1021.09,49.802L1021.09,27.206L1016.92,27.206L1016.92,20.832Z" style="fill-rule:nonzero;"/>
    <path d="M1057.71,27.206L1051.97,27.206L1051.97,20.832L1057.71,20.832L1057.71,14.227L1065.24,12.083L1065.24,20.832L1080.42,20.832L1080.42,27.206L1065.24,27.206L1065.24,35.491C1065.24,38.465 1065.8,40.619 1066.92,41.951C1068.04,43.284 1069.6,43.95 1071.61,43.95C1072.65,43.95 1073.6,43.824 1074.45,43.573C1075.3,43.322 1076.06,43.004 1076.74,42.617C1077.41,42.231 1078.03,41.806 1078.59,41.343C1079.15,40.879 1079.66,40.454 1080.13,40.068L1083.61,45.283C1082.95,46.055 1082.13,46.76 1081.14,47.397C1080.16,48.035 1079.1,48.595 1077.96,49.078C1076.82,49.56 1075.63,49.937 1074.39,50.207C1073.16,50.478 1071.94,50.613 1070.74,50.613C1066.42,50.613 1063.16,49.406 1060.98,46.992C1058.8,44.578 1057.71,40.744 1057.71,35.491L1057.71,27.206Z" style="fill-rule:nonzero;"/>
    <path d="M1544.53,36.534L1550.91,36.534L1550.91,42.27C1551.02,42.308 1551.14,42.347 1551.26,42.386C1552.14,42.772 1553.12,43.091 1554.18,43.342C1555.24,43.593 1556.37,43.718 1557.57,43.718C1559.73,43.718 1561.41,43.284 1562.61,42.415C1563.81,41.546 1564.41,40.377 1564.41,38.909C1564.41,37.596 1563.91,36.534 1562.93,35.723C1561.94,34.911 1560.73,34.197 1559.28,33.579C1557.83,32.961 1556.25,32.343 1554.53,31.725C1552.81,31.107 1551.23,30.325 1549.78,29.378C1548.33,28.432 1547.11,27.244 1546.13,25.815C1545.14,24.386 1544.65,22.532 1544.65,20.253C1544.65,18.515 1544.99,16.921 1545.66,15.473C1546.34,14.024 1547.29,12.779 1548.5,11.736C1549.72,10.693 1551.18,9.882 1552.88,9.302C1554.58,8.723 1556.47,8.433 1558.56,8.433C1560.91,8.433 1563.23,8.646 1565.51,9.07C1567.79,9.495 1569.6,10.075 1570.95,10.809L1570.95,22.57L1564.58,22.57L1564.58,16.139C1564.47,16.139 1564.35,16.12 1564.23,16.081C1563.38,15.849 1562.47,15.666 1561.48,15.531C1560.5,15.396 1559.52,15.328 1558.56,15.328C1556.7,15.328 1555.24,15.695 1554.18,16.429C1553.12,17.163 1552.59,18.148 1552.59,19.384C1552.59,20.658 1553.08,21.701 1554.07,22.512C1555.05,23.324 1556.27,24.057 1557.72,24.714C1559.16,25.371 1560.75,26.027 1562.47,26.684C1564.18,27.341 1565.77,28.142 1567.22,29.089C1568.66,30.035 1569.88,31.223 1570.87,32.652C1571.85,34.081 1572.34,35.877 1572.34,38.04C1572.34,40.126 1571.96,41.951 1571.19,43.515C1570.41,45.08 1569.33,46.393 1567.94,47.455C1566.55,48.518 1564.91,49.309 1563.02,49.831C1561.12,50.352 1559.08,50.613 1556.88,50.613C1555.41,50.613 1554.05,50.497 1552.79,50.265C1551.54,50.034 1550.38,49.744 1549.31,49.396C1548.25,49.049 1547.32,48.682 1546.5,48.295C1545.69,47.909 1545.04,47.581 1544.53,47.311L1544.53,36.534Z" style="fill-rule:nonzero;"/>
    <path d="M1582.37,43.429L1588.97,43.429L1588.97,15.618L1583.41,15.618L1583.41,22.628L1577.04,22.628L1577.04,9.244L1608.79,9.244L1608.79,22.628L1602.41,22.628L1602.41,15.618L1596.91,15.618L1596.91,43.429L1603.46,43.429L1603.46,49.802L1582.37,49.802L1582.37,43.429Z" style="fill-rule:nonzero;"/>
    <rect x="1614.81" y="56.581" width="25.725" height="6.2" style="fill-rule:nonzero;"/>
    <path d="M1651.89,43.429L1658.5,43.429L1658.5,15.618L1652.94,15.618L1652.94,22.628L1646.57,22.628L1646.57,9.244L1678.32,9.244L1678.32,22.628L1671.94,22.628L1671.94,15.618L1666.44,15.618L1666.44,43.429L1672.99,43.429L1672.99,49.802L1651.89,49.802L1651.89,43.429Z" style="fill-rule:nonzero;"/>
    <path d="M1681.85,35.317C1681.85,32.884 1682.22,30.721 1682.95,28.828C1683.68,26.935 1684.73,25.332 1686.08,24.019C1687.43,22.706 1689.04,21.711 1690.92,21.035C1692.79,20.359 1694.89,20.021 1697.2,20.021C1699.64,20.021 1701.81,20.388 1703.72,21.122C1705.63,21.856 1707.25,22.889 1708.56,24.222C1709.87,25.554 1710.87,27.167 1711.54,29.06C1712.22,30.952 1712.56,33.038 1712.56,35.317C1712.56,37.751 1712.19,39.914 1711.46,41.806C1710.72,43.699 1709.68,45.302 1708.33,46.615C1706.98,47.929 1705.36,48.923 1703.49,49.599C1701.62,50.275 1699.52,50.613 1697.2,50.613C1694.77,50.613 1692.6,50.246 1690.69,49.512C1688.77,48.778 1687.16,47.745 1685.85,46.412C1684.54,45.08 1683.54,43.467 1682.86,41.575C1682.19,39.682 1681.85,37.596 1681.85,35.317ZM1689.61,35.317C1689.61,36.592 1689.79,37.77 1690.13,38.851C1690.48,39.933 1690.99,40.879 1691.64,41.69C1692.3,42.502 1693.09,43.129 1694.02,43.573C1694.94,44.018 1696.01,44.24 1697.2,44.24C1699.44,44.24 1701.27,43.525 1702.68,42.096C1704.09,40.667 1704.79,38.407 1704.79,35.317C1704.79,32.652 1704.14,30.498 1702.82,28.857C1701.51,27.215 1699.64,26.394 1697.2,26.394C1696.12,26.394 1695.12,26.559 1694.19,26.887C1693.26,27.215 1692.46,27.746 1691.79,28.48C1691.11,29.214 1690.58,30.141 1690.19,31.261C1689.81,32.381 1689.61,33.733 1689.61,35.317Z" style="fill-rule:nonzero;"/>
    <path d="M1733.71,20.832L1744.48,20.832L1744.48,43.429L1748.89,43.429L1748.89,49.802L1739.73,49.802L1738.4,45.514L1738.17,45.514C1737.28,46.982 1735.95,48.199 1734.17,49.165C1732.39,50.13 1730.42,50.613 1728.26,50.613C1726.79,50.613 1725.45,50.42 1724.23,50.034C1723.02,49.647 1721.98,49.01 1721.13,48.122C1720.28,47.233 1719.63,46.036 1719.16,44.529C1718.7,43.023 1718.47,41.13 1718.47,38.851L1718.47,27.206L1715.16,27.206L1715.16,20.832L1726,20.832L1726,37.287C1726,39.643 1726.38,41.343 1727.13,42.386C1727.88,43.429 1729.07,43.95 1730.69,43.95C1732.12,43.95 1733.41,43.525 1734.55,42.675C1735.68,41.826 1736.49,40.783 1736.95,39.547L1736.95,27.206L1733.71,27.206L1733.71,20.832Z" style="fill-rule:nonzero;"/>
    <path d="M1780.98,47.021C1779.4,48.218 1777.55,49.116 1775.42,49.715C1773.3,50.314 1771.08,50.613 1768.76,50.613C1766.25,50.613 1764.02,50.246 1762.07,49.512C1760.12,48.778 1758.48,47.745 1757.14,46.412C1755.81,45.08 1754.8,43.467 1754.1,41.575C1753.4,39.682 1753.06,37.596 1753.06,35.317C1753.06,32.884 1753.46,30.721 1754.27,28.828C1755.09,26.935 1756.22,25.332 1757.66,24.019C1759.11,22.706 1760.82,21.711 1762.79,21.035C1764.76,20.359 1766.9,20.021 1769.22,20.021C1771.39,20.021 1773.41,20.272 1775.31,20.774C1777.2,21.276 1778.65,21.759 1779.65,22.223L1779.65,32.42L1773.28,32.42L1773.28,27.09C1772.08,26.819 1770.88,26.684 1769.69,26.684C1768.61,26.684 1767.53,26.848 1766.47,27.177C1765.41,27.505 1764.46,28.026 1763.63,28.741C1762.8,29.456 1762.12,30.354 1761.6,31.435C1761.08,32.517 1760.82,33.811 1760.82,35.317C1760.82,36.553 1761.03,37.693 1761.46,38.735C1761.88,39.778 1762.48,40.686 1763.26,41.459C1764.03,42.231 1764.98,42.84 1766.12,43.284C1767.26,43.728 1768.53,43.95 1769.92,43.95C1772.12,43.95 1773.92,43.641 1775.34,43.023C1776.75,42.405 1777.8,41.864 1778.49,41.401L1780.98,47.021Z" style="fill-rule:nonzero;"/>
    <path d="M1784.11,9.244L1795.82,9.244L1795.82,24.077L1796.05,24.077C1796.98,22.841 1798.21,21.856 1799.76,21.122C1801.3,20.388 1803.12,20.021 1805.2,20.021C1806.67,20.021 1808.02,20.214 1809.26,20.6C1810.5,20.987 1811.56,21.624 1812.44,22.512C1813.33,23.401 1814.03,24.608 1814.53,26.134C1815.03,27.659 1815.28,29.542 1815.28,31.783L1815.28,49.802L1807.75,49.802L1807.75,33.347C1807.75,30.991 1807.25,29.291 1806.25,28.248C1805.24,27.206 1803.93,26.684 1802.31,26.684C1800.88,26.684 1799.56,27.119 1798.37,27.988C1797.17,28.857 1796.32,29.967 1795.82,31.319L1795.82,49.802L1788.29,49.802L1788.29,15.618L1784.11,15.618L1784.11,9.244Z" style="fill-rule:nonzero;"/>
    <path d="M1849.82,46.731C1849.31,47.195 1848.67,47.648 1847.88,48.093C1847.08,48.537 1846.16,48.952 1845.09,49.338C1844.03,49.725 1842.86,50.034 1841.59,50.265C1840.31,50.497 1838.96,50.613 1837.53,50.613C1835.06,50.613 1832.85,50.265 1830.9,49.57C1828.95,48.875 1827.3,47.861 1825.94,46.528C1824.59,45.196 1823.56,43.593 1822.85,41.719C1822.13,39.846 1821.77,37.712 1821.77,35.317C1821.77,32.768 1822.18,30.537 1822.99,28.625C1823.8,26.713 1824.91,25.12 1826.32,23.845C1827.73,22.57 1829.38,21.614 1831.28,20.977C1833.17,20.34 1835.22,20.021 1837.42,20.021C1838.88,20.021 1840.4,20.214 1841.97,20.6C1843.53,20.987 1844.97,21.653 1846.28,22.599C1847.6,23.546 1848.67,24.811 1849.5,26.394C1850.33,27.978 1850.74,29.987 1850.74,32.42C1850.74,34.081 1850.55,35.877 1850.16,37.808L1829.31,37.808C1829.34,39.044 1829.61,40.087 1830.09,40.937C1830.57,41.787 1831.21,42.482 1832,43.023C1832.79,43.564 1833.7,43.96 1834.72,44.211C1835.75,44.462 1836.84,44.587 1838,44.587C1840.31,44.587 1842.22,44.317 1843.7,43.776C1845.19,43.235 1846.4,42.579 1847.33,41.806L1849.82,46.731ZM1837.3,26.047C1836.3,26.047 1835.35,26.182 1834.46,26.452C1833.57,26.723 1832.77,27.119 1832.06,27.64C1831.34,28.162 1830.75,28.809 1830.29,29.581C1829.83,30.354 1829.56,31.223 1829.48,32.188L1843.73,32.188C1843.73,30.296 1843.2,28.799 1842.14,27.698C1841.08,26.597 1839.47,26.047 1837.3,26.047Z" style="fill-rule:nonzero;"/>
    <path d="M1876.93,41.806C1876.93,41.034 1876.46,40.416 1875.51,39.952C1874.57,39.489 1873.4,39.064 1872.01,38.678C1870.62,38.291 1869.09,37.895 1867.43,37.49C1865.77,37.084 1864.24,36.524 1862.85,35.81C1861.46,35.095 1860.29,34.187 1859.35,33.086C1858.4,31.986 1857.93,30.566 1857.93,28.828C1857.93,27.399 1858.25,26.143 1858.88,25.062C1859.52,23.98 1860.39,23.063 1861.49,22.31C1862.59,21.556 1863.9,20.987 1865.43,20.6C1866.96,20.214 1868.61,20.021 1870.38,20.021C1872.28,20.021 1873.94,20.156 1875.37,20.427C1876.8,20.697 1878.04,21.025 1879.11,21.412C1880.17,21.798 1881.08,22.232 1881.83,22.715C1882.58,23.198 1883.23,23.633 1883.77,24.019L1880.58,29.175C1880,28.828 1879.34,28.471 1878.58,28.104C1877.83,27.737 1877.04,27.399 1876.21,27.09C1875.38,26.781 1874.51,26.53 1873.6,26.336C1872.69,26.143 1871.8,26.047 1870.91,26.047C1869.28,26.047 1867.97,26.259 1866.97,26.684C1865.96,27.109 1865.46,27.766 1865.46,28.654C1865.46,29.349 1865.93,29.909 1866.88,30.334C1867.83,30.759 1868.99,31.155 1870.38,31.522C1871.78,31.889 1873.3,32.285 1874.96,32.71C1876.62,33.135 1878.15,33.685 1879.54,34.361C1880.93,35.037 1882.1,35.916 1883.05,36.997C1883.99,38.079 1884.46,39.469 1884.46,41.169C1884.46,44.105 1883.39,46.412 1881.25,48.093C1879.11,49.773 1875.93,50.613 1871.72,50.613C1868.4,50.613 1865.53,50.121 1863.11,49.136C1860.7,48.151 1858.76,47.001 1857.29,45.688L1860.77,40.242C1861.27,40.667 1861.93,41.14 1862.77,41.661C1863.6,42.183 1864.53,42.656 1865.58,43.081C1866.62,43.506 1867.73,43.863 1868.91,44.153C1870.09,44.443 1871.25,44.587 1872.41,44.587C1873.65,44.587 1874.71,44.375 1875.6,43.95C1876.49,43.525 1876.93,42.811 1876.93,41.806Z" style="fill-rule:nonzero;"/>
    <circle cx="128.288" cy="117.797" r="18" style="fill:rgb(21,183,183);"/>
    <path d="M2197.95,275.198L2064.39,408.759" style="fill:none;stroke:rgb(21,183,183);stroke-width:10px;"/>
    <path d="M2052.32,396.689C2059.35,389.664 2070.75,389.664 2077.78,396.689C2084.8,403.714 2084.8,415.12 2077.78,422.145C2070.75,429.17 2059.35,429.17 2052.32,422.145C2045.3,415.12 2045.3,403.714 2052.32,396.689Z" style="fill:rgb(247,0,255);"/>
    <path d="M318.409,331.541L362.651,254.911L451.136,254.911L495.379,331.541L451.136,408.171L362.651,408.171L318.409,331.541Z" style="fill:rgb(198,237,237);stroke:rgb(21,183,183);stroke-width:6px;"/>
    <path d="M618.376,317.827L672.033,224.891L779.345,224.891L833.002,317.827L779.345,410.763L672.033,410.763L618.376,317.827Z" style="fill:rgb(198,237,237);stroke:rgb(21,183,183);stroke-width:6px;"/>
    <path d="M1323.05,367.966L1357.75,307.864L1427.15,307.864L1461.85,367.966L1427.15,428.068L1357.75,428.068L1323.05,367.966Z" style="fill:rgb(198,237,237);stroke:rgb(21,183,183);stroke-width:6px;"/>
    <path d="M19.219,297.348L84.778,183.797L215.895,183.797L281.453,297.348L215.895,410.898L84.778,410.898L19.219,297.348Z" style="fill:rgb(198,237,237);stroke:rgb(21,183,183);stroke-width:6px;"/>
    <path d="M1513.07,367.966L1547.77,307.864L1617.17,307.864L1651.87,367.966L1617.17,428.068L1547.77,428.068L1513.07,367.966Z" style="fill:rgb(198,237,237);stroke:rgb(21,183,183);stroke-width:6px;"/>
    <path d="M25.752,297.348L87.927,189.657L212.278,189.657L274.453,297.348L212.278,405.038L87.927,405.038L25.752,297.348Z" style="fill:rgb(253,194,255);fill-opacity:0.5;stroke:rgb(247,0,255);stroke-width:6px;"/>
    <path d="M762.565,150.884L795.351,94.097L860.923,94.097L893.709,150.884L860.923,207.671L795.351,207.671L762.565,150.884Z" style="fill:rgb(253,194,255);fill-opacity:0.5;stroke:rgb(247,0,255);stroke-width:6px;"/>
    <path d="M1407.09,269.722L1428.29,232.998L1470.69,232.998L1491.9,269.722L1470.69,306.447L1428.29,306.447L1407.09,269.722Z" style="fill:rgb(253,194,255);fill-opacity:0.5;stroke:rgb(247,0,255);stroke-width:6px;"/>
    <path d="M1621.78,315.771L1642.99,279.047L1685.39,279.047L1706.59,315.771L1685.39,352.496L1642.99,352.496L1621.78,315.771Z" style="fill:rgb(253,194,255);fill-opacity:0.5;stroke:rgb(247,0,255);stroke-width:6px;"/>
    <path d="M732.281,150.914C731.343,152.307 730.181,153.443 728.795,154.322C727.408,155.201 725.881,155.641 724.214,155.641C722.639,155.641 721.145,155.26 719.732,154.498C718.319,153.736 717.242,152.665 716.5,151.285C715.757,149.905 715.386,148.303 715.386,146.481C715.386,143.616 716.308,141.119 718.15,138.99C719.992,136.861 722.418,135.797 725.425,135.797C728.967,135.797 731.614,137.278 733.365,140.24C735.116,143.203 735.992,146.969 735.992,151.539C735.992,156.591 734.879,160.585 732.652,163.522C730.425,166.458 727.411,167.926 723.609,167.926C721.565,167.926 719.579,167.62 717.652,167.008L717.652,163.356C719.813,164.371 721.851,164.879 723.765,164.879C726.474,164.879 728.57,163.635 730.054,161.149C731.539,158.662 732.281,155.51 732.281,151.695L732.281,150.914ZM725.152,138.824C724.175,138.824 723.192,139.114 722.203,139.693C721.213,140.273 720.435,141.162 719.869,142.359C719.302,143.557 719.019,144.872 719.019,146.305C719.019,148.141 719.498,149.651 720.455,150.836C721.412,152.021 722.776,152.613 724.546,152.613C726.382,152.613 727.89,151.927 729.068,150.553C730.246,149.179 730.836,147.516 730.836,145.563C730.836,143.583 730.259,141.966 729.107,140.709C727.955,139.453 726.636,138.824 725.152,138.824Z" style="fill:rgb(128,128,128);fill-rule:nonzero;"/>
    <path d="M267.755,221.864L267.755,198.466C266.662,199.338 265.6,200.08 264.572,200.692C263.543,201.304 262.13,201.929 260.334,202.567L260.334,199.286C263.185,198.075 265.659,196.506 267.755,194.579L271.388,194.579L271.388,221.864L278.673,221.864L278.673,224.891L260.334,224.891L260.334,221.864L267.755,221.864Z" style="fill:rgb(128,128,128);fill-rule:nonzero;"/>
    <path d="M286.896,224.891L286.896,222.177C286.896,220.054 287.137,218.27 287.619,216.825C288.1,215.38 288.947,213.772 290.158,212.001C291.369,210.23 292.339,208.863 293.068,207.899L296.232,203.72L297.365,202.255C298.224,201.096 298.966,199.755 299.591,198.231L283.869,198.231L283.869,194.579L303.107,194.579L303.107,197.001C303.107,197.964 302.915,198.856 302.531,199.677C302.147,200.497 300.985,202.248 299.044,204.931C298.576,205.569 298.113,206.207 297.658,206.845L295.627,209.696C294.324,211.532 293.361,212.997 292.736,214.091C292.111,215.184 291.639,216.324 291.32,217.509C291.001,218.694 290.841,220.25 290.841,222.177L290.841,224.891L286.896,224.891Z" style="fill:rgb(128,128,128);fill-rule:nonzero;"/>
    <path d="M2168.59,413.492L2168.59,405.016L2155.72,405.016L2155.72,401.969L2168.59,383.18L2172.24,383.18L2172.24,401.969L2177.85,401.969L2177.85,405.016L2172.24,405.016L2172.24,413.492L2168.59,413.492ZM2168.59,401.969L2168.59,388.687L2159.58,401.969L2168.59,401.969Z" style="fill:rgb(128,128,128);fill-rule:nonzero;"/>
    <path d="M468.801,130.191L266.518,130.191" style="fill:none;stroke:rgb(21,183,183);stroke-width:10px;"/>
    <path d="M469.478,120.191L267.195,120.191" style="fill:none;stroke:rgb(247,0,255);stroke-width:10px;"/>
    <path d="M1014.56,307.449C1019.53,298.846 1030.55,295.893 1039.15,300.861C1047.75,305.828 1050.7,316.846 1045.74,325.449C1040.77,334.053 1029.75,337.005 1021.15,332.038C1012.55,327.07 1009.59,316.053 1014.56,307.449Z" style="fill:rgb(21,183,183);"/>
    <path d="M1079.31,195.301C1084.28,186.698 1095.29,183.745 1103.9,188.713C1112.5,193.68 1115.45,204.698 1110.49,213.301C1105.52,221.905 1094.5,224.857 1085.9,219.89C1077.29,214.922 1074.34,203.905 1079.31,195.301Z" style="fill:rgb(247,0,255);"/>
    <path d="M512.837,252.477C517.804,243.874 528.822,240.922 537.425,245.889C546.029,250.856 548.981,261.874 544.014,270.477C539.047,279.081 528.029,282.033 519.425,277.066C510.822,272.098 507.87,261.081 512.837,252.477Z" style="fill:rgb(247,0,255);"/>
    <path d="M886.709,341.252L992.781,157.531" style="fill:none;stroke:rgb(247,0,255);stroke-width:10px;"/>
    <path d="M933.457,341.252L1039.53,157.531" style="fill:none;stroke:rgb(21,183,183);stroke-width:10px;"/>
    <path d="M1470.97,114.202L1389.42,114.202L1332.05,143.125L1332.05,241.397" style="fill:none;stroke:rgb(21,183,183);stroke-width:10px;"/>
    <path d="M1624.5,241.397L1681.87,212.474L1681.87,114.202" style="fill:none;stroke:rgb(21,183,183);stroke-width:10px;"/>
    <path d="M1470.97,114.202L1332.05,241.397" style="fill:none;stroke:rgb(247,0,255);stroke-width:10px;"/>
    <path d="M1542.95,241.397L1681.87,114.202" style="fill:none;stroke:rgb(247,0,255);stroke-width:10px;"/>
    <rect x="1795.9" y="331.826" width="140.949" height="103.091" style="fill:rgb(251,133,255);fill-opacity:0.5;stroke:rgb(251,133,255);stroke-width:6px;"/>
    <rect x="1795.9" y="137.826" width="140.949" height="103.091" style="fill:rgb(251,133,255);fill-opacity:0.5;stroke:rgb(251,133,255);stroke-width:6px;"/>
    <path d="M1795.9,383.372L1770.58,383.372L1761.54,303.088L1830.81,303.088L1828.07,331.826" style="fill:none;stroke:rgb(21,183,183);stroke-width:10px;"/>
    <path d="M1795.64,189.372L1770.32,189.372L1761.28,109.088L1816.07,109.088" style="fill:none;stroke:rgb(21,183,183);stroke-width:10px;"/>
    <path d="M203.917,135.797L185.577,135.797L185.577,132.457C185.577,131.598 185.753,130.677 186.105,129.693C186.456,128.71 187.127,127.607 188.116,126.383C189.106,125.159 190.154,123.981 191.261,122.848L193.331,120.738C193.748,120.309 194.659,119.313 196.066,117.75C197.472,116.188 198.4,114.99 198.849,114.156C199.298,113.323 199.523,112.503 199.523,111.695C199.523,110.393 199.002,109.387 197.96,108.678C196.918,107.968 195.747,107.613 194.445,107.613C193.702,107.613 192.872,107.698 191.954,107.867C191.036,108.037 190.232,108.235 189.542,108.463C188.852,108.691 187.732,109.156 186.183,109.859L186.183,106.637C187.823,105.856 189.467,105.318 191.114,105.025C192.762,104.733 194.119,104.586 195.187,104.586C196.762,104.586 198.211,104.843 199.532,105.358C200.854,105.872 201.837,106.669 202.482,107.75C203.126,108.831 203.448,109.983 203.448,111.207C203.448,112.574 203.035,113.974 202.208,115.406C201.381,116.839 199.822,118.681 197.53,120.934L195.304,123.141L193.429,124.977C192.244,126.175 191.287,127.333 190.558,128.453C189.829,129.573 189.425,130.908 189.347,132.457L203.917,132.457L203.917,135.797Z" style="fill:rgb(128,128,128);fill-rule:nonzero;"/>
    <path d="M510.376,135.338L510.376,132.623C510.376,130.501 510.617,128.717 511.099,127.272C511.581,125.826 512.427,124.218 513.638,122.447C514.849,120.677 515.819,119.309 516.548,118.346L519.712,114.166L520.845,112.701C521.704,111.542 522.446,110.201 523.071,108.678L507.349,108.678L507.349,105.025L526.587,105.025L526.587,107.447C526.587,108.411 526.395,109.303 526.011,110.123C525.627,110.943 524.465,112.695 522.525,115.377C522.056,116.015 521.594,116.653 521.138,117.291L519.107,120.143C517.805,121.979 516.841,123.443 516.216,124.537C515.591,125.631 515.119,126.77 514.8,127.955C514.481,129.14 514.321,130.696 514.321,132.623L514.321,135.338L510.376,135.338Z" style="fill:rgb(128,128,128);fill-rule:nonzero;"/>
    <path d="M530.982,134.791L530.982,130.963C533.963,132.473 536.548,133.229 538.736,133.229C540.741,133.229 542.398,132.62 543.706,131.402C545.015,130.185 545.669,128.619 545.669,126.705C545.669,124.778 544.95,123.209 543.511,121.998C542.072,120.787 539.627,120.182 536.177,120.182L534.165,120.182L534.165,117.154L536.958,117.154C539.497,117.154 541.333,116.585 542.466,115.445C543.599,114.306 544.165,113.04 544.165,111.647C544.165,110.384 543.703,109.319 542.778,108.453C541.854,107.587 540.435,107.154 538.521,107.154C536.372,107.154 534.061,107.76 531.587,108.971L531.587,105.514C534.061,104.589 536.327,104.127 538.384,104.127C542.069,104.127 544.611,104.853 546.011,106.305C547.411,107.757 548.111,109.413 548.111,111.275C548.111,112.656 547.739,113.951 546.997,115.162C546.255,116.373 544.888,117.454 542.896,118.404C544.653,118.925 545.982,119.563 546.88,120.318C547.778,121.074 548.459,121.966 548.921,122.994C549.383,124.023 549.614,125.175 549.614,126.451C549.614,129.29 548.563,131.634 546.46,133.483C544.357,135.331 541.639,136.256 538.306,136.256C537.342,136.256 536.291,136.184 535.152,136.041C534.012,135.898 532.622,135.481 530.982,134.791Z" style="fill:rgb(128,128,128);fill-rule:nonzero;"/>
    <path d="M1001.23,135.797L1001.23,127.32L988.36,127.32L988.36,124.274L1001.23,105.484L1004.88,105.484L1004.88,124.274L1010.49,124.274L1010.49,127.32L1004.88,127.32L1004.88,135.797L1001.23,135.797ZM1001.23,124.274L1001.23,110.992L992.227,124.274L1001.23,124.274Z" style="fill:rgb(128,128,128);fill-rule:nonzero;"/>
    <path d="M1029.71,119.703C1028.77,121.096 1027.61,122.233 1026.22,123.111C1024.84,123.99 1023.31,124.43 1021.64,124.43C1020.07,124.43 1018.57,124.049 1017.16,123.287C1015.75,122.525 1014.67,121.455 1013.93,120.074C1013.18,118.694 1012.81,117.093 1012.81,115.27C1012.81,112.405 1013.73,109.908 1015.58,107.779C1017.42,105.65 1019.84,104.586 1022.85,104.586C1026.39,104.586 1029.04,106.067 1030.79,109.029C1032.54,111.992 1033.42,115.758 1033.42,120.328C1033.42,125.38 1032.31,129.374 1030.08,132.311C1027.85,135.247 1024.84,136.715 1021.04,136.715C1018.99,136.715 1017.01,136.409 1015.08,135.797L1015.08,132.145C1017.24,133.16 1019.28,133.668 1021.19,133.668C1023.9,133.668 1026,132.425 1027.48,129.938C1028.96,127.451 1029.71,124.3 1029.71,120.484L1029.71,119.703ZM1022.58,107.613C1021.6,107.613 1020.62,107.903 1019.63,108.483C1018.64,109.062 1017.86,109.951 1017.3,111.149C1016.73,112.346 1016.45,113.662 1016.45,115.094C1016.45,116.93 1016.92,118.44 1017.88,119.625C1018.84,120.81 1020.2,121.402 1021.97,121.402C1023.81,121.402 1025.32,120.716 1026.5,119.342C1027.67,117.968 1028.26,116.305 1028.26,114.352C1028.26,112.372 1027.69,110.755 1026.53,109.498C1025.38,108.242 1024.06,107.613 1022.58,107.613Z" style="fill:rgb(128,128,128);fill-rule:nonzero;"/>
    <path d="M1086.95,283.625L1086.95,260.227C1085.86,261.099 1084.8,261.841 1083.77,262.453C1082.74,263.065 1081.33,263.69 1079.53,264.328L1079.53,261.047C1082.38,259.836 1084.86,258.267 1086.95,256.34L1090.59,256.34L1090.59,283.625L1097.87,283.625L1097.87,286.653L1079.53,286.653L1079.53,283.625L1086.95,283.625Z" style="fill:rgb(128,128,128);fill-rule:nonzero;"/>
    <path d="M1132.9,425.362L1132.9,421.534C1135.88,423.045 1138.46,423.8 1140.65,423.8C1142.66,423.8 1144.31,423.191 1145.62,421.974C1146.93,420.756 1147.59,419.19 1147.59,417.276C1147.59,415.349 1146.87,413.78 1145.43,412.569C1143.99,411.358 1141.54,410.753 1138.09,410.753L1136.08,410.753L1136.08,407.726L1138.87,407.726C1141.41,407.726 1143.25,407.156 1144.38,406.017C1145.51,404.877 1146.08,403.611 1146.08,402.218C1146.08,400.955 1145.62,399.89 1144.69,399.024C1143.77,398.159 1142.35,397.726 1140.44,397.726C1138.29,397.726 1135.98,398.331 1133.5,399.542L1133.5,396.085C1135.98,395.161 1138.24,394.698 1140.3,394.698C1143.99,394.698 1146.53,395.424 1147.93,396.876C1149.33,398.328 1150.03,399.985 1150.03,401.847C1150.03,403.227 1149.65,404.523 1148.91,405.733C1148.17,406.944 1146.8,408.025 1144.81,408.976C1146.57,409.496 1147.9,410.134 1148.8,410.89C1149.69,411.645 1150.37,412.537 1150.84,413.565C1151.3,414.594 1151.53,415.746 1151.53,417.023C1151.53,419.861 1150.48,422.205 1148.38,424.054C1146.27,425.903 1143.56,426.827 1140.22,426.827C1139.26,426.827 1138.21,426.756 1137.07,426.612C1135.93,426.469 1134.54,426.052 1132.9,425.362Z" style="fill:rgb(128,128,128);fill-rule:nonzero;"/>
    <path d="M1260.3,162.663C1261.23,161.27 1262.4,160.134 1263.78,159.255C1265.17,158.376 1266.7,157.936 1268.36,157.936C1269.94,157.936 1271.43,158.32 1272.85,159.089C1274.26,159.857 1275.34,160.928 1276.08,162.302C1276.82,163.675 1277.19,165.274 1277.19,167.096C1277.19,169.974 1276.27,172.477 1274.43,174.606C1272.59,176.735 1270.16,177.8 1267.15,177.8C1263.61,177.8 1260.96,176.318 1259.21,173.356C1257.46,170.394 1256.59,166.628 1256.59,162.057C1256.59,157.005 1257.7,153.011 1259.92,150.075C1262.15,147.139 1265.17,145.671 1268.97,145.671C1271.01,145.671 1273,145.97 1274.92,146.569L1274.92,150.241C1272.76,149.212 1270.73,148.698 1268.81,148.698C1266.1,148.698 1264.01,149.942 1262.52,152.428C1261.04,154.915 1260.3,158.067 1260.3,161.882L1260.3,162.663ZM1267.42,174.772C1268.4,174.772 1269.38,174.483 1270.38,173.903C1271.36,173.324 1272.14,172.432 1272.71,171.227C1273.28,170.023 1273.56,168.711 1273.56,167.292C1273.56,165.443 1273.08,163.926 1272.12,162.741C1271.17,161.556 1269.8,160.964 1268.03,160.964C1266.19,160.964 1264.69,161.65 1263.51,163.024C1262.33,164.398 1261.74,166.068 1261.74,168.034C1261.74,170.013 1262.32,171.631 1263.47,172.887C1264.62,174.144 1265.94,174.772 1267.42,174.772Z" style="fill:rgb(128,128,128);fill-rule:nonzero;"/>
    <path d="M1287.56,160.534L1286.9,160.046C1285.97,159.395 1285.07,158.434 1284.18,157.165C1283.3,155.895 1282.86,154.499 1282.86,152.975C1282.86,150.957 1283.65,149.235 1285.24,147.809C1286.83,146.384 1288.85,145.671 1291.29,145.671C1292.79,145.671 1294.14,145.941 1295.34,146.481C1296.53,147.022 1297.46,147.819 1298.11,148.874C1298.76,149.928 1299.09,151.081 1299.09,152.331C1299.09,153.19 1298.94,154.02 1298.64,154.821C1298.34,155.622 1297.89,156.416 1297.3,157.204C1296.71,157.992 1295.53,159.102 1293.77,160.534L1295.41,161.843C1297.33,163.405 1298.62,164.753 1299.28,165.886C1299.94,167.018 1300.28,168.288 1300.28,169.694C1300.28,171.882 1299.48,173.779 1297.89,175.387C1296.31,176.996 1293.92,177.8 1290.75,177.8C1287.56,177.8 1285.17,177.048 1283.58,175.544C1281.99,174.04 1281.19,172.175 1281.19,169.948C1281.19,166.628 1283.32,163.49 1287.56,160.534ZM1291.29,158.678C1293.13,157.285 1294.28,156.12 1294.74,155.182C1295.2,154.245 1295.43,153.372 1295.43,152.565C1295.43,151.589 1295,150.7 1294.14,149.899C1293.29,149.098 1292.18,148.698 1290.82,148.698C1289.37,148.698 1288.26,149.134 1287.49,150.007C1286.73,150.879 1286.35,151.784 1286.35,152.721C1286.35,153.633 1286.67,154.492 1287.31,155.3C1287.95,156.107 1288.97,157.012 1290.38,158.014L1291.29,158.678ZM1290.3,162.468C1286.86,165.111 1285.14,167.585 1285.14,169.889C1285.14,171.257 1285.71,172.409 1286.84,173.346C1287.97,174.284 1289.31,174.753 1290.86,174.753C1292.28,174.753 1293.55,174.303 1294.67,173.405C1295.79,172.507 1296.35,171.387 1296.35,170.046C1296.35,168.731 1295.67,167.396 1294.31,166.042C1292.95,164.688 1292,163.802 1291.47,163.386L1290.3,162.468Z" style="fill:rgb(128,128,128);fill-rule:nonzero;"/>
    <path d="M1566.93,133.024C1567.87,131.631 1569.03,130.495 1570.42,129.616C1571.8,128.737 1573.33,128.298 1575,128.298C1576.57,128.298 1578.07,128.682 1579.48,129.45C1580.89,130.218 1581.97,131.289 1582.71,132.663C1583.45,134.037 1583.83,135.635 1583.83,137.458C1583.83,140.336 1582.9,142.839 1581.06,144.968C1579.22,147.097 1576.79,148.161 1573.79,148.161C1570.24,148.161 1567.6,146.68 1565.85,143.718C1564.1,140.755 1563.22,136.989 1563.22,132.419C1563.22,127.367 1564.33,123.373 1566.56,120.436C1568.79,117.5 1571.8,116.032 1575.6,116.032C1577.65,116.032 1579.63,116.332 1581.56,116.931L1581.56,120.602C1579.4,119.574 1577.36,119.06 1575.45,119.06C1572.74,119.06 1570.64,120.303 1569.16,122.79C1567.67,125.277 1566.93,128.428 1566.93,132.243L1566.93,133.024ZM1574.06,145.134C1575.04,145.134 1576.02,144.844 1577.01,144.265C1578,143.685 1578.78,142.793 1579.34,141.589C1579.91,140.384 1580.19,139.073 1580.19,137.653C1580.19,135.804 1579.71,134.287 1578.76,133.102C1577.8,131.918 1576.43,131.325 1574.66,131.325C1572.83,131.325 1571.32,132.012 1570.14,133.386C1568.97,134.759 1568.38,136.429 1568.38,138.395C1568.38,140.375 1568.95,141.992 1570.1,143.249C1571.26,144.505 1572.58,145.134 1574.06,145.134Z" style="fill:rgb(128,128,128);fill-rule:nonzero;"/>
    <path d="M1603.51,131.149C1602.58,132.543 1601.41,133.679 1600.03,134.558C1598.64,135.436 1597.11,135.876 1595.45,135.876C1593.87,135.876 1592.38,135.495 1590.96,134.733C1589.55,133.972 1588.47,132.901 1587.73,131.52C1586.99,130.14 1586.62,128.539 1586.62,126.716C1586.62,123.851 1587.54,121.354 1589.38,119.226C1591.22,117.097 1593.65,116.032 1596.66,116.032C1600.2,116.032 1602.85,117.513 1604.6,120.476C1606.35,123.438 1607.22,127.204 1607.22,131.774C1607.22,136.826 1606.11,140.821 1603.88,143.757C1601.66,146.693 1598.64,148.161 1594.84,148.161C1592.8,148.161 1590.81,147.855 1588.88,147.243L1588.88,143.591C1591.05,144.606 1593.08,145.114 1595,145.114C1597.7,145.114 1599.8,143.871 1601.29,141.384C1602.77,138.897 1603.51,135.746 1603.51,131.931L1603.51,131.149ZM1596.38,119.06C1595.41,119.06 1594.42,119.349 1593.43,119.929C1592.44,120.508 1591.67,121.397 1591.1,122.595C1590.53,123.793 1590.25,125.108 1590.25,126.54C1590.25,128.376 1590.73,129.886 1591.69,131.071C1592.64,132.256 1594.01,132.849 1595.78,132.849C1597.61,132.849 1599.12,132.162 1600.3,130.788C1601.48,129.414 1602.07,127.751 1602.07,125.798C1602.07,123.819 1601.49,122.201 1600.34,120.944C1599.19,119.688 1597.87,119.06 1596.38,119.06Z" style="fill:rgb(128,128,128);fill-rule:nonzero;"/>
    <path d="M2012.33,195.851L2049.14,132.097L2122.76,132.097L2159.56,195.851L2122.76,259.605L2049.14,259.605L2012.33,195.851Z" style="fill:rgb(198,237,237);stroke:rgb(21,183,183);stroke-width:6px;"/>
    <path d="M2080.12,118.097L2080.12,115.382C2080.12,113.259 2080.36,111.476 2080.84,110.03C2081.32,108.585 2082.17,106.977 2083.38,105.206C2084.59,103.435 2085.56,102.068 2086.29,101.104L2089.45,96.925L2090.59,95.46C2091.45,94.301 2092.19,92.96 2092.81,91.436L2077.09,91.436L2077.09,87.784L2096.33,87.784L2096.33,90.206C2096.33,91.17 2096.14,92.061 2095.75,92.882C2095.37,93.702 2094.21,95.453 2092.27,98.136C2091.8,98.774 2091.34,99.412 2090.88,100.05L2088.85,102.901C2087.55,104.737 2086.58,106.202 2085.96,107.296C2085.33,108.39 2084.86,109.529 2084.54,110.714C2084.22,111.899 2084.06,113.455 2084.06,115.382L2084.06,118.097L2080.12,118.097Z" style="fill:rgb(128,128,128);fill-rule:nonzero;"/>
    <path d="M1274.47,427.889L1274.47,404.49C1273.38,405.363 1272.31,406.105 1271.29,406.717C1270.26,407.329 1268.84,407.954 1267.05,408.592L1267.05,405.311C1269.9,404.1 1272.37,402.531 1274.47,400.603L1278.1,400.603L1278.1,427.889L1285.39,427.889L1285.39,430.916L1267.05,430.916L1267.05,427.889L1274.47,427.889Z" style="fill:rgb(128,128,128);fill-rule:nonzero;"/>
    <path d="M1299.37,399.705C1302.82,399.705 1305.45,401.154 1307.26,404.051C1309.07,406.948 1309.98,410.851 1309.98,415.76C1309.98,420.682 1309.07,424.591 1307.26,427.488C1305.45,430.385 1302.82,431.834 1299.37,431.834C1295.93,431.834 1293.31,430.385 1291.49,427.488C1289.67,424.591 1288.77,420.682 1288.77,415.76C1288.77,410.851 1289.67,406.948 1291.49,404.051C1293.31,401.154 1295.93,399.705 1299.37,399.705ZM1293.45,422.244L1303.94,405.818C1303.28,404.607 1302.56,403.79 1301.78,403.367C1301.01,402.944 1300.2,402.732 1299.37,402.732C1297.2,402.732 1295.54,403.94 1294.41,406.355C1293.28,408.771 1292.71,411.834 1292.71,415.545C1292.71,416.391 1292.74,417.303 1292.79,418.279C1292.84,419.256 1293.06,420.577 1293.45,422.244ZM1305.25,409.432L1294.84,425.955C1295.4,426.906 1296.04,427.618 1296.77,428.094C1297.5,428.569 1298.32,428.807 1299.21,428.807C1301.69,428.807 1303.45,427.423 1304.49,424.656C1305.53,421.889 1306.05,418.82 1306.05,415.447C1306.05,413.364 1305.78,411.359 1305.25,409.432Z" style="fill:rgb(128,128,128);fill-rule:nonzero;"/>
    <path d="M1659.76,427.889L1659.76,404.49C1658.67,405.363 1657.61,406.105 1656.58,406.717C1655.55,407.329 1654.13,407.954 1652.34,408.592L1652.34,405.311C1655.19,404.1 1657.66,402.531 1659.76,400.603L1663.39,400.603L1663.39,427.889L1670.68,427.889L1670.68,430.916L1652.34,430.916L1652.34,427.889L1659.76,427.889Z" style="fill:rgb(128,128,128);fill-rule:nonzero;"/>
    <path d="M1683.76,427.889L1683.76,404.49C1682.67,405.363 1681.61,406.105 1680.58,406.717C1679.55,407.329 1678.14,407.954 1676.34,408.592L1676.34,405.311C1679.19,404.1 1681.67,402.531 1683.76,400.603L1687.4,400.603L1687.4,427.889L1694.68,427.889L1694.68,430.916L1676.34,430.916L1676.34,427.889L1683.76,427.889Z" style="fill:rgb(128,128,128);fill-rule:nonzero;"/>
    <path d="M1961.86,414.295L1961.86,410.467C1964.85,411.977 1967.43,412.732 1969.62,412.732C1971.62,412.732 1973.28,412.124 1974.59,410.906C1975.9,409.689 1976.55,408.123 1976.55,406.209C1976.55,404.282 1975.83,402.713 1974.39,401.502C1972.96,400.291 1970.51,399.686 1967.06,399.686L1965.05,399.686L1965.05,396.658L1967.84,396.658C1970.38,396.658 1972.22,396.088 1973.35,394.949C1974.48,393.81 1975.05,392.544 1975.05,391.15C1975.05,389.887 1974.59,388.823 1973.66,387.957C1972.74,387.091 1971.32,386.658 1969.4,386.658C1967.26,386.658 1964.94,387.264 1962.47,388.475L1962.47,385.018C1964.94,384.093 1967.21,383.631 1969.27,383.631C1972.95,383.631 1975.49,384.357 1976.89,385.809C1978.29,387.26 1978.99,388.917 1978.99,390.779C1978.99,392.159 1978.62,393.455 1977.88,394.666C1977.14,395.877 1975.77,396.958 1973.78,397.908C1975.54,398.429 1976.86,399.067 1977.76,399.822C1978.66,400.577 1979.34,401.469 1979.8,402.498C1980.27,403.527 1980.5,404.679 1980.5,405.955C1980.5,408.794 1979.45,411.137 1977.34,412.986C1975.24,414.835 1972.52,415.76 1969.19,415.76C1968.23,415.76 1967.17,415.688 1966.03,415.545C1964.89,415.402 1963.51,414.985 1961.86,414.295Z" style="fill:rgb(128,128,128);fill-rule:nonzero;"/>
    <path d="M1995.03,383.631C1998.48,383.631 2001.11,385.079 2002.92,387.977C2004.73,390.874 2005.63,394.777 2005.63,399.686C2005.63,404.607 2004.73,408.517 2002.92,411.414C2001.11,414.311 1998.48,415.76 1995.03,415.76C1991.59,415.76 1988.96,414.311 1987.15,411.414C1985.33,408.517 1984.42,404.607 1984.42,399.686C1984.42,394.777 1985.33,390.874 1987.15,387.977C1988.96,385.079 1991.59,383.631 1995.03,383.631ZM1989.11,406.17L1999.6,389.744C1998.93,388.533 1998.22,387.716 1997.44,387.293C1996.67,386.87 1995.86,386.658 1995.03,386.658C1992.85,386.658 1991.2,387.866 1990.07,390.281C1988.93,392.697 1988.37,395.76 1988.37,399.471C1988.37,400.317 1988.39,401.228 1988.45,402.205C1988.5,403.182 1988.72,404.503 1989.11,406.17ZM2000.91,393.357L1990.5,409.881C1991.06,410.831 1991.7,411.544 1992.43,412.019C1993.16,412.495 1993.97,412.732 1994.87,412.732C1997.35,412.732 1999.1,411.349 2000.15,408.582C2001.19,405.815 2001.71,402.745 2001.71,399.373C2001.71,397.29 2001.44,395.284 2000.91,393.357Z" style="fill:rgb(128,128,128);fill-rule:nonzero;"/>
    <path d="M1918.68,118.448L1918.68,114.62C1921.66,116.13 1924.25,116.886 1926.43,116.886C1928.44,116.886 1930.1,116.277 1931.4,115.06C1932.71,113.842 1933.37,112.276 1933.37,110.362C1933.37,108.435 1932.65,106.866 1931.21,105.655C1929.77,104.444 1927.33,103.839 1923.88,103.839L1921.86,103.839L1921.86,100.811L1924.66,100.811C1927.2,100.811 1929.03,100.242 1930.16,99.102C1931.3,97.963 1931.86,96.697 1931.86,95.304C1931.86,94.041 1931.4,92.976 1930.48,92.11C1929.55,91.244 1928.13,90.811 1926.22,90.811C1924.07,90.811 1921.76,91.417 1919.29,92.628L1919.29,89.171C1921.76,88.246 1924.03,87.784 1926.08,87.784C1929.77,87.784 1932.31,88.51 1933.71,89.962C1935.11,91.414 1935.81,93.071 1935.81,94.933C1935.81,96.313 1935.44,97.608 1934.7,98.819C1933.95,100.03 1932.59,101.111 1930.6,102.061C1932.35,102.582 1933.68,103.22 1934.58,103.976C1935.48,104.731 1936.16,105.623 1936.62,106.651C1937.08,107.68 1937.31,108.832 1937.31,110.108C1937.31,112.947 1936.26,115.291 1934.16,117.14C1932.06,118.989 1929.34,119.913 1926.01,119.913C1925.04,119.913 1923.99,119.841 1922.85,119.698C1921.71,119.555 1920.32,119.138 1918.68,118.448Z" style="fill:rgb(128,128,128);fill-rule:nonzero;"/>
    <path d="M1950.95,115.968L1950.95,92.569C1949.85,93.442 1948.79,94.184 1947.76,94.796C1946.73,95.408 1945.32,96.033 1943.52,96.671L1943.52,93.39C1946.38,92.179 1948.85,90.61 1950.95,88.683L1954.58,88.683L1954.58,115.968L1961.86,115.968L1961.86,118.995L1943.52,118.995L1943.52,115.968L1950.95,115.968Z" style="fill:rgb(128,128,128);fill-rule:nonzero;"/>
    <path d="M1034.86,410.068L845.976,410.068" style="fill:none;stroke:rgb(21,183,183);stroke-width:10px;"/>
    <circle cx="1094.9" cy="409.068" r="18" style="fill:rgb(247,0,255);"/>
    <path d="M2128.46,147.705C2135.48,140.681 2146.89,140.681 2153.91,147.705C2160.94,154.73 2160.94,166.136 2153.91,173.161C2146.89,180.186 2135.48,180.186 2128.46,173.161C2121.43,166.136 2121.43,154.73 2128.46,147.705Z" style="fill:rgb(247,0,255);"/>
    <path d="M521.89,333.178C522.827,331.785 523.989,330.649 525.376,329.77C526.763,328.891 528.29,328.452 529.956,328.452C531.532,328.452 533.026,328.836 534.439,329.604C535.851,330.372 536.929,331.443 537.671,332.817C538.413,334.191 538.784,335.789 538.784,337.612C538.784,340.489 537.863,342.993 536.021,345.122C534.178,347.251 531.753,348.315 528.745,348.315C525.204,348.315 522.557,346.834 520.806,343.872C519.055,340.909 518.179,337.143 518.179,332.573C518.179,327.521 519.292,323.527 521.519,320.59C523.745,317.654 526.76,316.186 530.562,316.186C532.606,316.186 534.592,316.486 536.519,317.084L536.519,320.756C534.357,319.728 532.32,319.213 530.405,319.213C527.697,319.213 525.601,320.457 524.116,322.944C522.632,325.431 521.89,328.582 521.89,332.397L521.89,333.178ZM529.019,345.288C529.995,345.288 530.978,344.998 531.968,344.418C532.958,343.839 533.736,342.947 534.302,341.743C534.868,340.538 535.152,339.226 535.152,337.807C535.152,335.958 534.673,334.441 533.716,333.256C532.759,332.071 531.395,331.479 529.624,331.479C527.788,331.479 526.281,332.166 525.103,333.54C523.924,334.913 523.335,336.583 523.335,338.549C523.335,340.529 523.911,342.146 525.064,343.403C526.216,344.659 527.534,345.288 529.019,345.288Z" style="fill:rgb(128,128,128);fill-rule:nonzero;"/>
</svg>
