<?xml version="1.0" encoding="UTF-8" standalone="no"?>
<!DOCTYPE svg PUBLIC "-//W3C//DTD SVG 1.1//EN" "http://www.w3.org/Graphics/SVG/1.1/DTD/svg11.dtd">
<svg width="100%" height="100%" viewBox="0 0 610 452" version="1.1" xmlns="http://www.w3.org/2000/svg" xmlns:xlink="http://www.w3.org/1999/xlink" xml:space="preserve" xmlns:serif="http://www.serif.com/" style="fill-rule:evenodd;clip-rule:evenodd;stroke-linecap:square;stroke-linejoin:bevel;stroke-miterlimit:10;">
    <rect id="TIN-details" serif:id="TIN details" x="-184" y="-102" width="927" height="553.306" style="fill:none;"/>
    <path d="M277.952,195.497L372.557,203.583L315.147,259.376L277.952,195.497Z" style="fill:rgb(205,255,254);stroke:rgb(0,255,251);stroke-width:8px;"/>
    <g id="TIN">
        <path d="M383.069,360.45L412.178,287.676L438.862,339.426L383.069,360.45Z" style="fill:none;stroke:rgb(35,35,35);stroke-width:5px;"/>
        <path d="M438.862,339.426L487.377,280.399L511.635,349.129L438.862,339.426Z" style="fill:none;stroke:rgb(35,35,35);stroke-width:5px;"/>
        <path d="M319.999,319.212L412.178,287.676L383.069,360.45L319.999,319.212Z" style="fill:none;stroke:rgb(35,35,35);stroke-width:5px;"/>
        <path d="M487.377,280.399L571.471,311.934L511.635,349.129L487.377,280.399Z" style="fill:none;stroke:rgb(35,35,35);stroke-width:5px;"/>
        <path d="M412.178,287.676L487.377,280.399L438.862,339.426L412.178,287.676Z" style="fill:none;stroke:rgb(35,35,35);stroke-width:5px;"/>
        <path d="M487.377,280.399L548.022,256.141L571.471,311.934L487.377,280.399Z" style="fill:none;stroke:rgb(35,35,35);stroke-width:5px;"/>
        <path d="M501.123,240.778L548.022,256.141L487.377,280.399L501.123,240.778Z" style="fill:none;stroke:rgb(35,35,35);stroke-width:5px;"/>
        <path d="M315.147,259.376L412.178,287.676L319.999,319.212L315.147,259.376Z" style="fill:none;stroke:rgb(35,35,35);stroke-width:5px;"/>
        <path d="M438.862,232.692L487.377,280.399L412.178,287.676L438.862,232.692Z" style="fill:none;stroke:rgb(35,35,35);stroke-width:5px;"/>
        <path d="M438.862,232.692L501.123,240.778L487.377,280.399L438.862,232.692Z" style="fill:none;stroke:rgb(35,35,35);stroke-width:5px;"/>
        <path d="M438.862,232.692L480.1,206.009L501.123,240.778L438.862,232.692Z" style="fill:none;stroke:rgb(35,35,35);stroke-width:5px;"/>
        <path d="M315.147,259.376L372.557,203.583L412.178,287.676L315.147,259.376Z" style="fill:none;stroke:rgb(35,35,35);stroke-width:5px;"/>
        <path d="M372.557,203.583L438.862,232.692L412.178,287.676L372.557,203.583Z" style="fill:none;stroke:rgb(35,35,35);stroke-width:5px;"/>
        <path d="M595.728,195.497L571.471,311.934L548.022,256.141L595.728,195.497Z" style="fill:none;stroke:rgb(35,35,35);stroke-width:5px;"/>
        <path d="M501.123,240.778L535.893,192.263L548.022,256.141L501.123,240.778Z" style="fill:none;stroke:rgb(35,35,35);stroke-width:5px;"/>
        <path d="M535.893,192.263L595.728,195.497L548.022,256.141L535.893,192.263Z" style="fill:none;stroke:rgb(35,35,35);stroke-width:5px;"/>
        <path d="M480.1,206.009L535.893,192.263L501.123,240.778L480.1,206.009Z" style="fill:none;stroke:rgb(35,35,35);stroke-width:5px;"/>
        <path d="M438.862,232.692L451.799,169.622L480.1,206.009L438.862,232.692Z" style="fill:none;stroke:rgb(35,35,35);stroke-width:5px;"/>
        <path d="M502.74,165.579L535.893,192.263L480.1,206.009L502.74,165.579Z" style="fill:none;stroke:rgb(35,35,35);stroke-width:5px;"/>
        <path d="M277.952,195.497L372.557,203.583L315.147,259.376L277.952,195.497Z" style="fill:none;stroke:rgb(35,35,35);stroke-width:5px;"/>
        <path d="M372.557,203.583L451.799,169.622L438.862,232.692L372.557,203.583Z" style="fill:none;stroke:rgb(35,35,35);stroke-width:5px;"/>
        <path d="M451.799,169.622L502.74,165.579L480.1,206.009L451.799,169.622Z" style="fill:none;stroke:rgb(35,35,35);stroke-width:5px;"/>
        <path d="M319.999,319.212L277.952,195.497L315.147,259.376L319.999,319.212Z" style="fill:none;stroke:rgb(35,35,35);stroke-width:5px;"/>
        <path d="M379.026,130.81L451.799,169.622L372.557,203.583L379.026,130.81Z" style="fill:none;stroke:rgb(35,35,35);stroke-width:5px;"/>
        <path d="M312.721,123.532L372.557,203.583L277.952,195.497L312.721,123.532Z" style="fill:none;stroke:rgb(35,35,35);stroke-width:5px;"/>
        <path d="M312.721,123.532L379.026,130.81L372.557,203.583L312.721,123.532Z" style="fill:none;stroke:rgb(35,35,35);stroke-width:5px;"/>
        <path d="M510.018,121.915L535.893,192.263L502.74,165.579L510.018,121.915Z" style="fill:none;stroke:rgb(35,35,35);stroke-width:5px;"/>
        <path d="M535.893,192.263L579.557,103.318L595.728,195.497L535.893,192.263Z" style="fill:none;stroke:rgb(35,35,35);stroke-width:5px;"/>
        <path d="M451.799,169.622L510.018,121.915L502.74,165.579L451.799,169.622Z" style="fill:none;stroke:rgb(35,35,35);stroke-width:5px;"/>
        <path d="M379.026,130.81L438.862,104.126L451.799,169.622L379.026,130.81Z" style="fill:none;stroke:rgb(35,35,35);stroke-width:5px;"/>
        <path d="M510.018,121.915L579.557,103.318L535.893,192.263L510.018,121.915Z" style="fill:none;stroke:rgb(35,35,35);stroke-width:5px;"/>
        <path d="M438.862,104.126L510.018,121.915L451.799,169.622L438.862,104.126Z" style="fill:none;stroke:rgb(35,35,35);stroke-width:5px;"/>
        <path d="M312.721,123.532L365.28,62.888L379.026,130.81L312.721,123.532Z" style="fill:none;stroke:rgb(35,35,35);stroke-width:5px;"/>
        <path d="M365.28,62.888L438.862,104.126L379.026,130.81L365.28,62.888Z" style="fill:none;stroke:rgb(35,35,35);stroke-width:5px;"/>
        <path d="M302.21,49.951L365.28,62.888L312.721,123.532L302.21,49.951Z" style="fill:none;stroke:rgb(35,35,35);stroke-width:5px;"/>
        <path d="M516.486,26.501L579.557,103.318L510.018,121.915L516.486,26.501Z" style="fill:none;stroke:rgb(35,35,35);stroke-width:5px;"/>
        <path d="M438.862,104.126L516.486,26.501L510.018,121.915L438.862,104.126Z" style="fill:none;stroke:rgb(35,35,35);stroke-width:5px;"/>
        <path d="M399.241,18.415L438.862,104.126L365.28,62.888L399.241,18.415Z" style="fill:none;stroke:rgb(35,35,35);stroke-width:5px;"/>
        <path d="M399.241,18.415L516.486,26.501L438.862,104.126L399.241,18.415Z" style="fill:none;stroke:rgb(35,35,35);stroke-width:5px;"/>
        <path d="M277.952,195.497L302.21,49.951L312.721,123.532L277.952,195.497Z" style="fill:none;stroke:rgb(35,35,35);stroke-width:5px;"/>
        <path d="M302.21,49.951L399.241,18.415L365.28,62.888L302.21,49.951Z" style="fill:none;stroke:rgb(35,35,35);stroke-width:5px;"/>
        <path d="M438.862,339.426L511.635,349.129L383.069,360.45L438.862,339.426Z" style="fill:none;stroke:rgb(35,35,35);stroke-width:5.67px;"/>
    </g>
    <g id="Dots">
        <path d="M323.982,123.532C323.982,129.747 318.936,134.793 312.721,134.793C306.506,134.793 301.461,129.747 301.461,123.532C301.461,117.317 306.506,112.272 312.721,112.272C318.936,112.272 323.982,117.317 323.982,123.532Z"/>
        <path d="M376.54,62.888C376.54,69.103 371.495,74.149 365.28,74.149C359.065,74.149 354.019,69.103 354.019,62.888C354.019,56.673 359.065,51.627 365.28,51.627C371.495,51.627 376.54,56.673 376.54,62.888Z"/>
        <path d="M450.122,104.126C450.122,110.341 445.077,115.387 438.862,115.387C432.647,115.387 427.601,110.341 427.601,104.126C427.601,97.911 432.647,92.865 438.862,92.865C445.077,92.865 450.122,97.911 450.122,104.126Z"/>
        <path d="M521.278,121.915C521.278,128.13 516.233,133.176 510.018,133.176C503.803,133.176 498.757,128.13 498.757,121.915C498.757,115.7 503.803,110.655 510.018,110.655C516.233,110.655 521.278,115.7 521.278,121.915Z"/>
        <path d="M547.153,192.263C547.153,198.478 542.108,203.523 535.893,203.523C529.678,203.523 524.632,198.478 524.632,192.263C524.632,186.048 529.678,181.002 535.893,181.002C542.108,181.002 547.153,186.048 547.153,192.263Z"/>
        <path d="M463.06,169.622C463.06,175.837 458.014,180.883 451.799,180.883C445.584,180.883 440.538,175.837 440.538,169.622C440.538,163.407 445.584,158.361 451.799,158.361C458.014,158.361 463.06,163.407 463.06,169.622Z"/>
        <path d="M390.287,130.81C390.287,137.025 385.241,142.07 379.026,142.07C372.811,142.07 367.765,137.025 367.765,130.81C367.765,124.595 372.811,119.549 379.026,119.549C385.241,119.549 390.287,124.595 390.287,130.81Z"/>
        <path d="M383.818,203.583C383.818,209.798 378.772,214.844 372.557,214.844C366.342,214.844 361.296,209.798 361.296,203.583C361.296,197.368 366.342,192.322 372.557,192.322C378.772,192.322 383.818,197.368 383.818,203.583Z"/>
        <path d="M423.439,287.676C423.439,293.891 418.393,298.937 412.178,298.937C405.963,298.937 400.917,293.891 400.917,287.676C400.917,281.462 405.963,276.416 412.178,276.416C418.393,276.416 423.439,281.462 423.439,287.676Z"/>
        <path d="M498.638,280.399C498.638,286.614 493.592,291.66 487.377,291.66C481.162,291.66 476.116,286.614 476.116,280.399C476.116,274.184 481.162,269.138 487.377,269.138C493.592,269.138 498.638,274.184 498.638,280.399Z"/>
        <path d="M512.384,240.778C512.384,246.993 507.338,252.039 501.123,252.039C494.908,252.039 489.863,246.993 489.863,240.778C489.863,234.563 494.908,229.517 501.123,229.517C507.338,229.517 512.384,234.563 512.384,240.778Z"/>
        <path d="M559.282,256.141C559.282,262.356 554.236,267.402 548.022,267.402C541.807,267.402 536.761,262.356 536.761,256.141C536.761,249.926 541.807,244.881 548.022,244.881C554.236,244.881 559.282,249.926 559.282,256.141Z"/>
        <path d="M326.408,259.376C326.408,265.591 321.362,270.636 315.147,270.636C308.932,270.636 303.886,265.591 303.886,259.376C303.886,253.161 308.932,248.115 315.147,248.115C321.362,248.115 326.408,253.161 326.408,259.376Z"/>
        <path d="M450.122,232.692C450.122,238.907 445.077,243.953 438.862,243.953C432.647,243.953 427.601,238.907 427.601,232.692C427.601,226.477 432.647,221.432 438.862,221.432C445.077,221.432 450.122,226.477 450.122,232.692Z"/>
        <path d="M491.361,206.009C491.361,212.224 486.315,217.269 480.1,217.269C473.885,217.269 468.839,212.224 468.839,206.009C468.839,199.794 473.885,194.748 480.1,194.748C486.315,194.748 491.361,199.794 491.361,206.009Z"/>
        <path d="M514.001,165.579C514.001,171.794 508.955,176.84 502.74,176.84C496.525,176.84 491.48,171.794 491.48,165.579C491.48,159.364 496.525,154.318 502.74,154.318C508.955,154.318 514.001,159.364 514.001,165.579Z"/>
        <path d="M450.122,339.426C450.122,345.641 445.077,350.687 438.862,350.687C432.647,350.687 427.601,345.641 427.601,339.426C427.601,333.211 432.647,328.166 438.862,328.166C445.077,328.166 450.122,333.211 450.122,339.426Z"/>
    </g>
    <g id="Outer-dots" serif:id="Outer dots">
        <path d="M313.47,49.951C313.47,56.165 308.425,61.211 302.21,61.211C295.995,61.211 290.949,56.165 290.949,49.951C290.949,43.736 295.995,38.69 302.21,38.69C308.425,38.69 313.47,43.736 313.47,49.951Z"/>
        <path d="M410.501,18.415C410.501,24.63 405.456,29.676 399.241,29.676C393.026,29.676 387.98,24.63 387.98,18.415C387.98,12.201 393.026,7.155 399.241,7.155C405.456,7.155 410.501,12.201 410.501,18.415Z"/>
        <path d="M527.747,26.501C527.747,32.716 522.701,37.762 516.486,37.762C510.272,37.762 505.226,32.716 505.226,26.501C505.226,20.286 510.272,15.241 516.486,15.241C522.701,15.241 527.747,20.286 527.747,26.501Z"/>
        <path d="M590.817,103.318C590.817,109.533 585.772,114.578 579.557,114.578C573.342,114.578 568.296,109.533 568.296,103.318C568.296,97.103 573.342,92.057 579.557,92.057C585.772,92.057 590.817,97.103 590.817,103.318Z"/>
        <path d="M606.989,195.497C606.989,201.712 601.943,206.758 595.728,206.758C589.514,206.758 584.468,201.712 584.468,195.497C584.468,189.282 589.514,184.236 595.728,184.236C601.943,184.236 606.989,189.282 606.989,195.497Z"/>
        <path d="M289.213,195.497C289.213,201.712 284.167,206.758 277.952,206.758C271.737,206.758 266.691,201.712 266.691,195.497C266.691,189.282 271.737,184.236 277.952,184.236C284.167,184.236 289.213,189.282 289.213,195.497Z"/>
        <path d="M582.731,311.934C582.731,318.149 577.686,323.195 571.471,323.195C565.256,323.195 560.21,318.149 560.21,311.934C560.21,305.719 565.256,300.674 571.471,300.674C577.686,300.674 582.731,305.719 582.731,311.934Z"/>
        <path d="M522.896,349.129C522.896,355.344 517.85,360.39 511.635,360.39C505.42,360.39 500.374,355.344 500.374,349.129C500.374,342.915 505.42,337.869 511.635,337.869C517.85,337.869 522.896,342.915 522.896,349.129Z"/>
        <path d="M394.33,360.45C394.33,366.665 389.284,371.71 383.069,371.71C376.854,371.71 371.808,366.665 371.808,360.45C371.808,354.235 376.854,349.189 383.069,349.189C389.284,349.189 394.33,354.235 394.33,360.45Z"/>
        <path d="M331.259,319.212C331.259,325.427 326.214,330.472 319.999,330.472C313.784,330.472 308.738,325.427 308.738,319.212C308.738,312.997 313.784,307.951 319.999,307.951C326.214,307.951 331.259,312.997 331.259,319.212Z"/>
    </g>
    <g id="Labels">
        <rect x="73" y="258.37" width="126.182" height="56.236" style="fill:rgb(205,255,254);"/>
        <g>
            <path d="M200.233,195.925L266.024,195.925" style="fill:none;"/>
            <path d="M248.024,186.925L266.024,195.925L248.024,204.925L248.024,186.925Z" style="fill:rgb(38,38,38);"/>
            <path d="M200.233,195.925L251.624,195.925" style="fill:none;stroke:rgb(38,38,38);stroke-width:4px;stroke-linecap:butt;stroke-linejoin:round;stroke-miterlimit:1.5;stroke-dasharray:4,4;"/>
        </g>
        <path d="M321.974,340.697L342,338.706L331.577,355.922L321.974,340.697Z" style="fill:rgb(38,38,38);"/>
        <path d="M206,376.248C256.237,376.966 288.667,371.077 329.82,346.389" style="fill:none;stroke:rgb(38,38,38);stroke-width:4px;stroke-linecap:butt;stroke-linejoin:round;stroke-miterlimit:1.5;stroke-dasharray:4,4;"/>
        <path d="M319.999,319.212L383.069,360.39L511.635,349.129L571.471,311.934L595.728,195.497L579.557,103.318L516.486,26.501L399.241,18.415L302.21,49.951L277.952,195.497L319.999,319.212Z" style="fill:none;stroke:black;stroke-width:8px;stroke-linecap:butt;stroke-linejoin:miter;stroke-miterlimit:1;"/>
        <path d="M306.076,228.671L325.255,222.573L318.626,241.575L306.076,228.671Z"/>
        <path d="M199.182,284.166C243.513,282.704 281.632,263.346 314.932,232.613" style="fill:none;stroke:black;stroke-width:4px;stroke-linecap:butt;stroke-linejoin:round;stroke-miterlimit:1.5;stroke-dasharray:4,4;"/>
        <path d="M315.096,175.317L312.839,195.315L298.195,181.511L315.096,175.317Z"/>
        <path d="M203.182,104.424C254.194,103.582 287.186,130.189 307.884,181.794" style="fill:none;stroke:black;stroke-width:4px;stroke-linecap:butt;stroke-linejoin:round;stroke-miterlimit:1.5;stroke-dasharray:4,4;"/>
        <g transform="matrix(1,0,0,1,-1567.75,-148.758)">
            <g transform="matrix(44,0,0,44,1574.24,537.012)">
                <path d="M0.507,-0.54C0.507,-0.523 0.504,-0.506 0.499,-0.489C0.494,-0.472 0.486,-0.456 0.475,-0.441C0.464,-0.426 0.451,-0.412 0.434,-0.401C0.417,-0.39 0.398,-0.381 0.375,-0.375L0.375,-0.371C0.395,-0.368 0.414,-0.362 0.433,-0.354C0.451,-0.346 0.467,-0.335 0.481,-0.321C0.495,-0.307 0.506,-0.29 0.515,-0.27C0.524,-0.25 0.528,-0.226 0.528,-0.199C0.528,-0.163 0.521,-0.132 0.506,-0.106C0.491,-0.079 0.471,-0.058 0.447,-0.041C0.422,-0.024 0.394,-0.012 0.363,-0.004C0.332,0.004 0.3,0.008 0.267,0.008L0.227,0.008C0.212,0.008 0.196,0.008 0.179,0.007C0.162,0.006 0.146,0.004 0.129,0.003C0.112,0.001 0.098,-0.002 0.085,-0.005L0.085,-0.694C0.11,-0.698 0.138,-0.701 0.171,-0.704C0.204,-0.707 0.239,-0.708 0.278,-0.708C0.304,-0.708 0.331,-0.706 0.358,-0.702C0.385,-0.697 0.409,-0.689 0.431,-0.677C0.453,-0.664 0.471,-0.647 0.486,-0.625C0.5,-0.603 0.507,-0.575 0.507,-0.54ZM0.275,-0.064C0.296,-0.064 0.317,-0.067 0.337,-0.072C0.357,-0.077 0.375,-0.085 0.39,-0.096C0.405,-0.107 0.418,-0.12 0.427,-0.136C0.436,-0.152 0.44,-0.171 0.44,-0.193C0.44,-0.22 0.435,-0.242 0.424,-0.259C0.413,-0.276 0.398,-0.289 0.381,-0.298C0.363,-0.307 0.343,-0.314 0.321,-0.317C0.299,-0.32 0.277,-0.322 0.255,-0.322L0.168,-0.322L0.168,-0.071C0.173,-0.07 0.179,-0.069 0.188,-0.068C0.197,-0.067 0.206,-0.067 0.216,-0.066C0.226,-0.065 0.236,-0.065 0.247,-0.065C0.258,-0.064 0.267,-0.064 0.275,-0.064ZM0.22,-0.392C0.231,-0.392 0.245,-0.392 0.261,-0.393C0.277,-0.394 0.29,-0.395 0.301,-0.396C0.317,-0.401 0.332,-0.408 0.346,-0.416C0.36,-0.423 0.373,-0.432 0.384,-0.443C0.395,-0.453 0.403,-0.465 0.41,-0.479C0.416,-0.492 0.419,-0.507 0.419,-0.523C0.419,-0.545 0.415,-0.563 0.407,-0.578C0.398,-0.592 0.387,-0.603 0.373,-0.612C0.359,-0.621 0.343,-0.627 0.325,-0.631C0.307,-0.634 0.289,-0.636 0.27,-0.636C0.248,-0.636 0.228,-0.636 0.21,-0.635C0.191,-0.634 0.177,-0.632 0.168,-0.63L0.168,-0.392L0.22,-0.392Z" style="fill-rule:nonzero;"/>
            </g>
            <g transform="matrix(44,0,0,44,1599.94,537.012)">
                <path d="M0.157,-0.07C0.182,-0.066 0.205,-0.064 0.228,-0.064C0.27,-0.064 0.299,-0.072 0.316,-0.089C0.333,-0.105 0.341,-0.128 0.341,-0.158C0.341,-0.185 0.333,-0.207 0.317,-0.224C0.3,-0.241 0.272,-0.25 0.231,-0.25C0.22,-0.25 0.207,-0.25 0.194,-0.249C0.181,-0.248 0.168,-0.246 0.157,-0.243L0.157,-0.07ZM0.157,-0.309C0.173,-0.312 0.188,-0.314 0.203,-0.315C0.218,-0.316 0.232,-0.316 0.245,-0.316C0.279,-0.316 0.308,-0.312 0.331,-0.305C0.354,-0.297 0.372,-0.286 0.386,-0.273C0.4,-0.26 0.41,-0.244 0.416,-0.226C0.421,-0.207 0.424,-0.188 0.424,-0.167C0.424,-0.106 0.407,-0.062 0.374,-0.035C0.34,-0.008 0.285,0.006 0.21,0.006C0.167,0.006 0.123,0.004 0.077,-0L0.077,-0.5L0.157,-0.5L0.157,-0.309ZM0.503,-0.5L0.583,-0.5L0.583,-0L0.503,-0L0.503,-0.5Z" style="fill-rule:nonzero;"/>
            </g>
            <g transform="matrix(44,0,0,44,1628.98,537.012)">
                <path d="M0.378,-0.43L0.157,-0.43L0.157,-0L0.077,-0L0.077,-0.5L0.458,-0.5L0.458,-0L0.378,-0L0.378,-0.43Z" style="fill-rule:nonzero;"/>
            </g>
            <g transform="matrix(44,0,0,44,1652.52,537.012)">
                <path d="M0.224,-0.176L0.252,-0.08L0.257,-0.08L0.279,-0.177L0.376,-0.5L0.457,-0.5L0.309,-0.051C0.298,-0.018 0.286,0.013 0.276,0.044C0.265,0.075 0.252,0.102 0.239,0.126C0.226,0.15 0.211,0.169 0.194,0.184C0.177,0.198 0.158,0.205 0.136,0.205C0.112,0.205 0.092,0.202 0.077,0.195L0.091,0.126C0.1,0.129 0.108,0.131 0.116,0.131C0.135,0.131 0.153,0.121 0.17,0.102C0.187,0.082 0.202,0.048 0.213,-0L0.012,-0.5L0.104,-0.5L0.224,-0.176Z" style="fill-rule:nonzero;"/>
            </g>
            <g transform="matrix(44,0,0,44,1673.02,537.012)">
                <path d="M0.203,-0.225L0.157,-0.225L0.157,-0L0.077,-0L0.077,-0.5L0.157,-0.5L0.157,-0.274L0.2,-0.288L0.36,-0.5L0.447,-0.5L0.292,-0.299L0.25,-0.266L0.302,-0.226L0.469,-0L0.37,-0L0.203,-0.225Z" style="fill-rule:nonzero;"/>
            </g>
            <g transform="matrix(44,0,0,44,1694.06,537.012)">
                <path d="M0.346,-0.43L0.201,-0.43C0.199,-0.402 0.197,-0.372 0.195,-0.34C0.193,-0.307 0.19,-0.275 0.186,-0.243C0.182,-0.21 0.177,-0.179 0.17,-0.15C0.163,-0.12 0.155,-0.094 0.145,-0.071C0.134,-0.048 0.122,-0.03 0.107,-0.017C0.092,-0.003 0.074,0.004 0.053,0.004C0.04,0.004 0.029,0.003 0.02,0.002C0.011,0.001 0.002,-0.002 -0.005,-0.005L0.007,-0.072C0.015,-0.069 0.024,-0.068 0.033,-0.068C0.046,-0.068 0.058,-0.074 0.069,-0.085C0.08,-0.096 0.089,-0.118 0.097,-0.15C0.105,-0.181 0.112,-0.225 0.117,-0.281C0.122,-0.337 0.126,-0.41 0.128,-0.5L0.426,-0.5L0.426,-0L0.346,-0L0.346,-0.43Z" style="fill-rule:nonzero;"/>
            </g>
            <g transform="matrix(44,0,0,44,1716.19,537.012)">
                <path d="M0.069,-0.463C0.094,-0.478 0.124,-0.49 0.158,-0.497C0.191,-0.504 0.226,-0.508 0.263,-0.508C0.298,-0.508 0.326,-0.503 0.347,-0.494C0.368,-0.485 0.384,-0.472 0.395,-0.458C0.406,-0.443 0.413,-0.426 0.417,-0.408C0.42,-0.39 0.422,-0.372 0.422,-0.354C0.422,-0.314 0.421,-0.275 0.419,-0.237C0.417,-0.199 0.416,-0.163 0.416,-0.129C0.416,-0.104 0.417,-0.081 0.419,-0.059C0.421,-0.037 0.425,-0.017 0.43,0.002L0.371,0.002L0.35,-0.068L0.345,-0.068C0.339,-0.059 0.332,-0.049 0.323,-0.041C0.314,-0.032 0.303,-0.024 0.29,-0.017C0.277,-0.01 0.263,-0.004 0.246,0.001C0.229,0.006 0.21,0.008 0.189,0.008C0.168,0.008 0.148,0.005 0.13,-0.002C0.111,-0.009 0.095,-0.018 0.082,-0.031C0.069,-0.043 0.058,-0.058 0.051,-0.075C0.043,-0.092 0.039,-0.112 0.039,-0.134C0.039,-0.163 0.045,-0.188 0.057,-0.208C0.069,-0.227 0.086,-0.243 0.108,-0.255C0.129,-0.266 0.155,-0.275 0.186,-0.28C0.216,-0.285 0.249,-0.287 0.286,-0.287L0.314,-0.287C0.323,-0.287 0.332,-0.286 0.341,-0.285C0.343,-0.305 0.344,-0.323 0.344,-0.339C0.344,-0.376 0.337,-0.401 0.322,-0.416C0.307,-0.431 0.281,-0.438 0.242,-0.438C0.231,-0.438 0.219,-0.437 0.206,-0.436C0.193,-0.434 0.179,-0.432 0.166,-0.429C0.152,-0.426 0.139,-0.422 0.127,-0.418C0.114,-0.413 0.103,-0.408 0.094,-0.403L0.069,-0.463ZM0.211,-0.062C0.23,-0.062 0.246,-0.065 0.261,-0.07C0.276,-0.075 0.288,-0.081 0.299,-0.089C0.31,-0.096 0.319,-0.105 0.326,-0.114C0.333,-0.123 0.338,-0.132 0.341,-0.141L0.341,-0.224C0.332,-0.225 0.322,-0.225 0.313,-0.226C0.303,-0.226 0.293,-0.226 0.284,-0.226C0.263,-0.226 0.243,-0.225 0.224,-0.223C0.204,-0.22 0.187,-0.216 0.172,-0.21C0.157,-0.203 0.145,-0.195 0.136,-0.184C0.127,-0.173 0.122,-0.159 0.122,-0.142C0.122,-0.119 0.13,-0.099 0.147,-0.085C0.164,-0.07 0.185,-0.062 0.211,-0.062Z" style="fill-rule:nonzero;"/>
            </g>
            <g transform="matrix(44,0,0,44,1738.01,537.012)">
                <path d="M0.326,-0.207L0.249,-0.195L0.117,-0L0.02,-0L0.14,-0.171L0.18,-0.208C0.145,-0.213 0.116,-0.227 0.092,-0.25C0.067,-0.273 0.055,-0.303 0.055,-0.342C0.055,-0.372 0.06,-0.398 0.071,-0.419C0.081,-0.44 0.096,-0.458 0.115,-0.472C0.134,-0.486 0.157,-0.496 0.184,-0.503C0.211,-0.509 0.241,-0.512 0.274,-0.512C0.299,-0.512 0.322,-0.51 0.343,-0.507C0.364,-0.504 0.385,-0.5 0.406,-0.496L0.406,-0L0.326,-0L0.326,-0.207ZM0.326,-0.432C0.317,-0.435 0.308,-0.438 0.297,-0.44C0.286,-0.441 0.277,-0.442 0.269,-0.442C0.226,-0.442 0.194,-0.434 0.172,-0.419C0.149,-0.404 0.138,-0.379 0.138,-0.346C0.138,-0.316 0.15,-0.293 0.174,-0.277C0.197,-0.26 0.228,-0.252 0.267,-0.252L0.278,-0.252C0.282,-0.252 0.288,-0.252 0.295,-0.253C0.302,-0.253 0.313,-0.253 0.326,-0.254L0.326,-0.432Z" style="fill-rule:nonzero;"/>
            </g>
            <g transform="matrix(44,0,0,44,1578.03,586.248)">
                <path d="M0.049,-0.25C0.049,-0.335 0.068,-0.4 0.106,-0.445C0.143,-0.49 0.197,-0.512 0.268,-0.512C0.305,-0.512 0.338,-0.506 0.366,-0.494C0.393,-0.481 0.416,-0.464 0.434,-0.441C0.452,-0.418 0.465,-0.39 0.474,-0.358C0.483,-0.325 0.487,-0.289 0.487,-0.25C0.487,-0.165 0.468,-0.1 0.431,-0.056C0.393,-0.011 0.339,0.012 0.268,0.012C0.231,0.012 0.198,0.006 0.171,-0.007C0.143,-0.019 0.12,-0.037 0.102,-0.06C0.084,-0.083 0.071,-0.11 0.062,-0.143C0.053,-0.175 0.049,-0.211 0.049,-0.25ZM0.132,-0.25C0.132,-0.225 0.135,-0.2 0.14,-0.177C0.145,-0.154 0.152,-0.133 0.163,-0.116C0.174,-0.099 0.188,-0.085 0.205,-0.074C0.222,-0.063 0.243,-0.058 0.268,-0.058C0.359,-0.057 0.404,-0.121 0.404,-0.25C0.404,-0.276 0.402,-0.301 0.397,-0.324C0.392,-0.347 0.384,-0.368 0.373,-0.385C0.362,-0.402 0.348,-0.416 0.331,-0.427C0.314,-0.437 0.293,-0.442 0.268,-0.442C0.177,-0.443 0.132,-0.379 0.132,-0.25Z" style="fill-rule:nonzero;"/>
            </g>
            <g transform="matrix(44,0,0,44,1601.61,586.248)">
                <path d="M0.123,-0.411C0.145,-0.443 0.169,-0.466 0.196,-0.479C0.223,-0.492 0.256,-0.498 0.296,-0.498C0.357,-0.498 0.405,-0.478 0.438,-0.438C0.47,-0.398 0.487,-0.339 0.487,-0.261C0.487,-0.171 0.468,-0.103 0.43,-0.057C0.391,-0.011 0.338,0.012 0.269,0.012C0.196,0.012 0.141,-0.013 0.104,-0.064C0.067,-0.115 0.049,-0.194 0.049,-0.303C0.049,-0.36 0.052,-0.409 0.058,-0.45C0.063,-0.491 0.072,-0.525 0.083,-0.553C0.094,-0.581 0.107,-0.603 0.123,-0.62C0.138,-0.637 0.156,-0.65 0.176,-0.66C0.195,-0.669 0.217,-0.676 0.24,-0.68C0.263,-0.684 0.288,-0.687 0.315,-0.69C0.35,-0.693 0.377,-0.697 0.397,-0.702C0.416,-0.706 0.432,-0.714 0.444,-0.725L0.453,-0.653C0.446,-0.647 0.439,-0.642 0.431,-0.638C0.423,-0.634 0.413,-0.631 0.402,-0.628C0.391,-0.625 0.377,-0.623 0.362,-0.621C0.346,-0.619 0.328,-0.617 0.307,-0.616C0.278,-0.614 0.253,-0.611 0.232,-0.606C0.21,-0.6 0.191,-0.591 0.176,-0.577C0.16,-0.562 0.148,-0.542 0.139,-0.516C0.13,-0.489 0.123,-0.454 0.12,-0.411L0.123,-0.411ZM0.132,-0.249C0.132,-0.224 0.135,-0.199 0.14,-0.176C0.145,-0.153 0.154,-0.132 0.165,-0.115C0.175,-0.097 0.19,-0.083 0.207,-0.073C0.224,-0.063 0.245,-0.058 0.268,-0.058C0.314,-0.058 0.348,-0.075 0.371,-0.108C0.393,-0.14 0.404,-0.189 0.404,-0.254C0.404,-0.279 0.402,-0.303 0.397,-0.324C0.392,-0.345 0.385,-0.364 0.375,-0.38C0.365,-0.395 0.352,-0.407 0.337,-0.416C0.322,-0.424 0.303,-0.428 0.282,-0.428C0.23,-0.429 0.192,-0.413 0.168,-0.383C0.144,-0.352 0.132,-0.307 0.132,-0.249Z" style="fill-rule:nonzero;"/>
            </g>
            <g transform="matrix(44,0,0,44,1625.2,586.248)">
                <path d="M0.049,-0.25C0.049,-0.335 0.068,-0.4 0.106,-0.445C0.143,-0.49 0.197,-0.512 0.268,-0.512C0.305,-0.512 0.338,-0.506 0.366,-0.494C0.393,-0.481 0.416,-0.464 0.434,-0.441C0.452,-0.418 0.465,-0.39 0.474,-0.358C0.483,-0.325 0.487,-0.289 0.487,-0.25C0.487,-0.165 0.468,-0.1 0.431,-0.056C0.393,-0.011 0.339,0.012 0.268,0.012C0.231,0.012 0.198,0.006 0.171,-0.007C0.143,-0.019 0.12,-0.037 0.102,-0.06C0.084,-0.083 0.071,-0.11 0.062,-0.143C0.053,-0.175 0.049,-0.211 0.049,-0.25ZM0.132,-0.25C0.132,-0.225 0.135,-0.2 0.14,-0.177C0.145,-0.154 0.152,-0.133 0.163,-0.116C0.174,-0.099 0.188,-0.085 0.205,-0.074C0.222,-0.063 0.243,-0.058 0.268,-0.058C0.359,-0.057 0.404,-0.121 0.404,-0.25C0.404,-0.276 0.402,-0.301 0.397,-0.324C0.392,-0.347 0.384,-0.368 0.373,-0.385C0.362,-0.402 0.348,-0.416 0.331,-0.427C0.314,-0.437 0.293,-0.442 0.268,-0.442C0.177,-0.443 0.132,-0.379 0.132,-0.25Z" style="fill-rule:nonzero;"/>
            </g>
            <g transform="matrix(44,0,0,44,1648.78,586.248)">
                <path d="M0.346,-0.43L0.201,-0.43C0.199,-0.402 0.197,-0.372 0.195,-0.34C0.193,-0.307 0.19,-0.275 0.186,-0.243C0.182,-0.21 0.177,-0.179 0.17,-0.15C0.163,-0.12 0.155,-0.094 0.145,-0.071C0.134,-0.048 0.122,-0.03 0.107,-0.017C0.092,-0.003 0.074,0.004 0.053,0.004C0.04,0.004 0.029,0.003 0.02,0.002C0.011,0.001 0.002,-0.002 -0.005,-0.005L0.007,-0.072C0.015,-0.069 0.024,-0.068 0.033,-0.068C0.046,-0.068 0.058,-0.074 0.069,-0.085C0.08,-0.096 0.089,-0.118 0.097,-0.15C0.105,-0.181 0.112,-0.225 0.117,-0.281C0.122,-0.337 0.126,-0.41 0.128,-0.5L0.426,-0.5L0.426,-0L0.346,-0L0.346,-0.43Z" style="fill-rule:nonzero;"/>
            </g>
            <g transform="matrix(44,0,0,44,1670.91,586.248)">
                <path d="M0.049,-0.25C0.049,-0.335 0.068,-0.4 0.106,-0.445C0.143,-0.49 0.197,-0.512 0.268,-0.512C0.305,-0.512 0.338,-0.506 0.366,-0.494C0.393,-0.481 0.416,-0.464 0.434,-0.441C0.452,-0.418 0.465,-0.39 0.474,-0.358C0.483,-0.325 0.487,-0.289 0.487,-0.25C0.487,-0.165 0.468,-0.1 0.431,-0.056C0.393,-0.011 0.339,0.012 0.268,0.012C0.231,0.012 0.198,0.006 0.171,-0.007C0.143,-0.019 0.12,-0.037 0.102,-0.06C0.084,-0.083 0.071,-0.11 0.062,-0.143C0.053,-0.175 0.049,-0.211 0.049,-0.25ZM0.132,-0.25C0.132,-0.225 0.135,-0.2 0.14,-0.177C0.145,-0.154 0.152,-0.133 0.163,-0.116C0.174,-0.099 0.188,-0.085 0.205,-0.074C0.222,-0.063 0.243,-0.058 0.268,-0.058C0.359,-0.057 0.404,-0.121 0.404,-0.25C0.404,-0.276 0.402,-0.301 0.397,-0.324C0.392,-0.347 0.384,-0.368 0.373,-0.385C0.362,-0.402 0.348,-0.416 0.331,-0.427C0.314,-0.437 0.293,-0.442 0.268,-0.442C0.177,-0.443 0.132,-0.379 0.132,-0.25Z" style="fill-rule:nonzero;"/>
            </g>
            <g transform="matrix(44,0,0,44,1694.5,586.248)">
                <path d="M0.129,-0.5L0.129,-0.364C0.129,-0.346 0.13,-0.33 0.132,-0.316C0.134,-0.301 0.138,-0.289 0.144,-0.279C0.15,-0.268 0.159,-0.26 0.17,-0.255C0.181,-0.249 0.196,-0.246 0.215,-0.246C0.245,-0.246 0.27,-0.249 0.289,-0.256C0.308,-0.263 0.323,-0.27 0.333,-0.278L0.333,-0.5L0.413,-0.5L0.413,-0L0.333,-0L0.333,-0.21C0.322,-0.203 0.307,-0.196 0.286,-0.188C0.265,-0.18 0.236,-0.176 0.199,-0.176C0.174,-0.176 0.153,-0.179 0.134,-0.184C0.115,-0.189 0.1,-0.199 0.087,-0.212C0.074,-0.225 0.065,-0.243 0.059,-0.265C0.052,-0.287 0.049,-0.315 0.049,-0.348L0.049,-0.5L0.129,-0.5Z" style="fill-rule:nonzero;"/>
            </g>
            <g transform="matrix(44,0,0,44,1716.06,586.248)">
                <path d="M0.203,-0.225L0.157,-0.225L0.157,-0L0.077,-0L0.077,-0.5L0.157,-0.5L0.157,-0.274L0.2,-0.288L0.36,-0.5L0.447,-0.5L0.292,-0.299L0.25,-0.266L0.302,-0.226L0.469,-0L0.37,-0L0.203,-0.225Z" style="fill-rule:nonzero;"/>
            </g>
            <g transform="matrix(44,0,0,44,1737.09,586.248)">
                <path d="M0.069,-0.463C0.094,-0.478 0.124,-0.49 0.158,-0.497C0.191,-0.504 0.226,-0.508 0.263,-0.508C0.298,-0.508 0.326,-0.503 0.347,-0.494C0.368,-0.485 0.384,-0.472 0.395,-0.458C0.406,-0.443 0.413,-0.426 0.417,-0.408C0.42,-0.39 0.422,-0.372 0.422,-0.354C0.422,-0.314 0.421,-0.275 0.419,-0.237C0.417,-0.199 0.416,-0.163 0.416,-0.129C0.416,-0.104 0.417,-0.081 0.419,-0.059C0.421,-0.037 0.425,-0.017 0.43,0.002L0.371,0.002L0.35,-0.068L0.345,-0.068C0.339,-0.059 0.332,-0.049 0.323,-0.041C0.314,-0.032 0.303,-0.024 0.29,-0.017C0.277,-0.01 0.263,-0.004 0.246,0.001C0.229,0.006 0.21,0.008 0.189,0.008C0.168,0.008 0.148,0.005 0.13,-0.002C0.111,-0.009 0.095,-0.018 0.082,-0.031C0.069,-0.043 0.058,-0.058 0.051,-0.075C0.043,-0.092 0.039,-0.112 0.039,-0.134C0.039,-0.163 0.045,-0.188 0.057,-0.208C0.069,-0.227 0.086,-0.243 0.108,-0.255C0.129,-0.266 0.155,-0.275 0.186,-0.28C0.216,-0.285 0.249,-0.287 0.286,-0.287L0.314,-0.287C0.323,-0.287 0.332,-0.286 0.341,-0.285C0.343,-0.305 0.344,-0.323 0.344,-0.339C0.344,-0.376 0.337,-0.401 0.322,-0.416C0.307,-0.431 0.281,-0.438 0.242,-0.438C0.231,-0.438 0.219,-0.437 0.206,-0.436C0.193,-0.434 0.179,-0.432 0.166,-0.429C0.152,-0.426 0.139,-0.422 0.127,-0.418C0.114,-0.413 0.103,-0.408 0.094,-0.403L0.069,-0.463ZM0.211,-0.062C0.23,-0.062 0.246,-0.065 0.261,-0.07C0.276,-0.075 0.288,-0.081 0.299,-0.089C0.31,-0.096 0.319,-0.105 0.326,-0.114C0.333,-0.123 0.338,-0.132 0.341,-0.141L0.341,-0.224C0.332,-0.225 0.322,-0.225 0.313,-0.226C0.303,-0.226 0.293,-0.226 0.284,-0.226C0.263,-0.226 0.243,-0.225 0.224,-0.223C0.204,-0.22 0.187,-0.216 0.172,-0.21C0.157,-0.203 0.145,-0.195 0.136,-0.184C0.127,-0.173 0.122,-0.159 0.122,-0.142C0.122,-0.119 0.13,-0.099 0.147,-0.085C0.164,-0.07 0.185,-0.062 0.211,-0.062Z" style="fill-rule:nonzero;"/>
            </g>
        </g>
        <path d="M79.111,83.838C80.226,83.574 81.429,83.398 82.719,83.31C84.01,83.222 85.286,83.178 86.547,83.178C87.897,83.178 89.268,83.31 90.661,83.574C92.055,83.838 93.323,84.322 94.467,85.026C95.611,85.73 96.543,86.698 97.261,87.93C97.98,89.162 98.339,90.732 98.339,92.638C98.339,94.516 98.002,96.1 97.327,97.39C96.653,98.681 95.758,99.73 94.643,100.536C93.529,101.343 92.253,101.922 90.815,102.274C89.378,102.626 87.897,102.802 86.371,102.802L85.645,102.802C85.308,102.802 84.956,102.795 84.589,102.78C84.223,102.766 83.863,102.744 83.511,102.714C83.159,102.685 82.91,102.656 82.763,102.626L82.763,114.33L79.111,114.33L79.111,83.838ZM86.635,86.346C85.873,86.346 85.139,86.361 84.435,86.39C83.731,86.42 83.174,86.493 82.763,86.61L82.763,99.37C82.91,99.429 83.145,99.466 83.467,99.48C83.79,99.495 84.127,99.51 84.479,99.524C84.831,99.539 85.169,99.546 85.491,99.546L86.195,99.546C87.193,99.546 88.183,99.451 89.165,99.26C90.148,99.07 91.035,98.725 91.827,98.226C92.619,97.728 93.257,97.024 93.741,96.114C94.225,95.205 94.467,94.046 94.467,92.638C94.467,91.436 94.24,90.431 93.785,89.624C93.331,88.818 92.729,88.172 91.981,87.688C91.233,87.204 90.39,86.86 89.451,86.654C88.513,86.449 87.574,86.346 86.635,86.346Z" style="fill-rule:nonzero;"/>
        <path d="M119.415,112.57C118.535,113.274 117.428,113.832 116.093,114.242C114.759,114.653 113.343,114.858 111.847,114.858C110.175,114.858 108.723,114.587 107.491,114.044C106.259,113.502 105.247,112.724 104.455,111.712C103.663,110.7 103.077,109.49 102.695,108.082C102.314,106.674 102.123,105.09 102.123,103.33C102.123,99.576 102.959,96.716 104.631,94.75C106.303,92.785 108.694,91.802 111.803,91.802C112.801,91.802 113.798,91.912 114.795,92.132C115.793,92.352 116.687,92.77 117.479,93.386C118.271,94.002 118.917,94.875 119.415,96.004C119.914,97.134 120.163,98.622 120.163,100.47C120.163,101.438 120.075,102.509 119.899,103.682L105.775,103.682C105.775,104.973 105.907,106.117 106.171,107.114C106.435,108.112 106.846,108.955 107.403,109.644C107.961,110.334 108.687,110.862 109.581,111.228C110.476,111.595 111.569,111.778 112.859,111.778C113.857,111.778 114.854,111.602 115.851,111.25C116.849,110.898 117.597,110.488 118.095,110.018L119.415,112.57ZM111.847,94.882C110.117,94.882 108.731,95.337 107.689,96.246C106.648,97.156 106.025,98.71 105.819,100.91L116.731,100.91C116.731,98.681 116.306,97.119 115.455,96.224C114.605,95.33 113.402,94.882 111.847,94.882Z" style="fill-rule:nonzero;"/>
        <path d="M127.731,96.246C128.699,94.838 129.77,93.848 130.943,93.276C132.117,92.704 133.583,92.418 135.343,92.418C138.042,92.418 140.117,93.298 141.569,95.058C143.021,96.818 143.747,99.414 143.747,102.846C143.747,106.806 142.904,109.798 141.217,111.822C139.531,113.846 137.177,114.858 134.155,114.858C130.929,114.858 128.509,113.744 126.895,111.514C125.282,109.285 124.475,105.78 124.475,100.998C124.475,98.476 124.6,96.32 124.849,94.53C125.099,92.741 125.465,91.23 125.949,89.998C126.433,88.766 127.02,87.784 127.709,87.05C128.399,86.317 129.176,85.738 130.041,85.312C130.907,84.887 131.853,84.586 132.879,84.41C133.906,84.234 135.006,84.088 136.179,83.97C137.705,83.824 138.9,83.655 139.765,83.464C140.631,83.274 141.327,82.929 141.855,82.43L142.251,85.598C141.958,85.862 141.635,86.082 141.283,86.258C140.931,86.434 140.506,86.581 140.007,86.698C139.509,86.816 138.915,86.918 138.225,87.006C137.536,87.094 136.737,87.168 135.827,87.226C134.566,87.314 133.459,87.468 132.505,87.688C131.552,87.908 130.731,88.334 130.041,88.964C129.352,89.595 128.809,90.49 128.413,91.648C128.017,92.807 127.746,94.34 127.599,96.246L127.731,96.246ZM128.127,103.374C128.127,104.489 128.245,105.56 128.479,106.586C128.714,107.613 129.073,108.515 129.557,109.292C130.041,110.07 130.665,110.678 131.427,111.118C132.19,111.558 133.085,111.778 134.111,111.778C136.135,111.778 137.639,111.052 138.621,109.6C139.604,108.148 140.095,106 140.095,103.154C140.095,102.04 139.993,101.013 139.787,100.074C139.582,99.136 139.259,98.322 138.819,97.632C138.379,96.943 137.822,96.415 137.147,96.048C136.473,95.682 135.666,95.498 134.727,95.498C132.439,95.469 130.767,96.136 129.711,97.5C128.655,98.864 128.127,100.822 128.127,103.374Z" style="fill-rule:nonzero;"/>
        <path d="M149.291,92.33L151.711,92.33L152.371,94.97L152.547,94.97C153.222,93.944 154.095,93.159 155.165,92.616C156.236,92.074 157.461,91.802 158.839,91.802C161.773,91.802 163.958,92.668 165.395,94.398C166.833,96.129 167.551,98.96 167.551,102.89C167.551,104.738 167.309,106.403 166.825,107.884C166.341,109.366 165.659,110.62 164.779,111.646C163.899,112.673 162.836,113.465 161.589,114.022C160.343,114.58 158.957,114.858 157.431,114.858C156.346,114.858 155.488,114.792 154.857,114.66C154.227,114.528 153.545,114.301 152.811,113.978L152.811,123.13L149.291,123.13L149.291,92.33ZM158.179,94.882C156.683,94.882 155.503,95.271 154.637,96.048C153.772,96.826 153.163,98.006 152.811,99.59L152.811,110.502C153.339,110.913 153.941,111.228 154.615,111.448C155.29,111.668 156.185,111.778 157.299,111.778C159.323,111.778 160.929,111.023 162.117,109.512C163.305,108.002 163.899,105.78 163.899,102.846C163.899,101.644 163.797,100.551 163.591,99.568C163.386,98.586 163.056,97.75 162.601,97.06C162.147,96.371 161.56,95.836 160.841,95.454C160.123,95.073 159.235,94.882 158.179,94.882Z" style="fill-rule:nonzero;"/>
        <path d="M171.863,103.33C171.863,99.605 172.692,96.752 174.349,94.772C176.007,92.792 178.39,91.802 181.499,91.802C183.142,91.802 184.572,92.074 185.789,92.616C187.007,93.159 188.011,93.936 188.803,94.948C189.595,95.96 190.182,97.178 190.563,98.6C190.945,100.023 191.135,101.6 191.135,103.33C191.135,107.056 190.307,109.908 188.649,111.888C186.992,113.868 184.609,114.858 181.499,114.858C179.857,114.858 178.427,114.587 177.209,114.044C175.992,113.502 174.987,112.724 174.195,111.712C173.403,110.7 172.817,109.483 172.435,108.06C172.054,106.638 171.863,105.061 171.863,103.33ZM175.515,103.33C175.515,104.445 175.625,105.516 175.845,106.542C176.065,107.569 176.41,108.464 176.879,109.226C177.349,109.989 177.965,110.605 178.727,111.074C179.49,111.544 180.414,111.778 181.499,111.778C185.489,111.808 187.483,108.992 187.483,103.33C187.483,102.186 187.373,101.101 187.153,100.074C186.933,99.048 186.589,98.153 186.119,97.39C185.65,96.628 185.034,96.019 184.271,95.564C183.509,95.11 182.585,94.882 181.499,94.882C177.51,94.853 175.515,97.669 175.515,103.33Z" style="fill-rule:nonzero;"/>
        <path d="M42.015,184.202C42.015,184.935 41.898,185.683 41.663,186.446C41.429,187.209 41.077,187.92 40.607,188.58C40.138,189.24 39.537,189.819 38.803,190.318C38.07,190.817 37.205,191.198 36.207,191.462L36.207,191.638C37.087,191.785 37.931,192.034 38.737,192.386C39.544,192.738 40.255,193.222 40.871,193.838C41.487,194.454 41.986,195.202 42.367,196.082C42.749,196.962 42.939,198.003 42.939,199.206C42.939,200.79 42.609,202.161 41.949,203.32C41.289,204.479 40.424,205.425 39.353,206.158C38.283,206.891 37.058,207.434 35.679,207.786C34.301,208.138 32.893,208.314 31.455,208.314L29.695,208.314C29.021,208.314 28.317,208.292 27.583,208.248C26.85,208.204 26.117,208.145 25.383,208.072C24.65,207.999 24.005,207.889 23.447,207.742L23.447,177.426C24.533,177.25 25.794,177.103 27.231,176.986C28.669,176.869 30.238,176.81 31.939,176.81C33.083,176.81 34.249,176.905 35.437,177.096C36.625,177.287 37.703,177.653 38.671,178.196C39.639,178.739 40.439,179.494 41.069,180.462C41.7,181.43 42.015,182.677 42.015,184.202ZM31.807,205.146C32.746,205.146 33.655,205.036 34.535,204.816C35.415,204.596 36.193,204.244 36.867,203.76C37.542,203.276 38.077,202.682 38.473,201.978C38.869,201.274 39.067,200.438 39.067,199.47C39.067,198.267 38.825,197.299 38.341,196.566C37.857,195.833 37.227,195.261 36.449,194.85C35.672,194.439 34.799,194.161 33.831,194.014C32.863,193.867 31.895,193.794 30.927,193.794L27.099,193.794L27.099,204.838C27.305,204.897 27.598,204.941 27.979,204.97C28.361,204.999 28.771,205.029 29.211,205.058C29.651,205.087 30.106,205.109 30.575,205.124C31.045,205.139 31.455,205.146 31.807,205.146ZM29.387,190.714C29.886,190.714 30.487,190.699 31.191,190.67C31.895,190.641 32.482,190.597 32.951,190.538C33.655,190.303 34.315,190.017 34.931,189.68C35.547,189.343 36.097,188.947 36.581,188.492C37.065,188.037 37.447,187.509 37.725,186.908C38.004,186.307 38.143,185.654 38.143,184.95C38.143,183.982 37.96,183.183 37.593,182.552C37.227,181.921 36.735,181.415 36.119,181.034C35.503,180.653 34.799,180.381 34.007,180.22C33.215,180.059 32.409,179.978 31.587,179.978C30.619,179.978 29.732,180 28.925,180.044C28.119,180.088 27.51,180.154 27.099,180.242L27.099,190.714L29.387,190.714Z" style="fill-rule:nonzero;"/>
        <path d="M64.851,206.202C63.971,206.906 62.864,207.463 61.529,207.874C60.195,208.285 58.779,208.49 57.283,208.49C55.611,208.49 54.159,208.219 52.927,207.676C51.695,207.133 50.683,206.356 49.891,205.344C49.099,204.332 48.513,203.122 48.131,201.714C47.75,200.306 47.559,198.722 47.559,196.962C47.559,193.207 48.395,190.347 50.067,188.382C51.739,186.417 54.13,185.434 57.239,185.434C58.237,185.434 59.234,185.544 60.231,185.764C61.229,185.984 62.123,186.402 62.915,187.018C63.707,187.634 64.353,188.507 64.851,189.636C65.35,190.765 65.599,192.254 65.599,194.102C65.599,195.07 65.511,196.141 65.335,197.314L51.211,197.314C51.211,198.605 51.343,199.749 51.607,200.746C51.871,201.743 52.282,202.587 52.839,203.276C53.397,203.965 54.123,204.493 55.017,204.86C55.912,205.227 57.005,205.41 58.295,205.41C59.293,205.41 60.29,205.234 61.287,204.882C62.285,204.53 63.033,204.119 63.531,203.65L64.851,206.202ZM57.283,188.514C55.553,188.514 54.167,188.969 53.125,189.878C52.084,190.787 51.461,192.342 51.255,194.542L62.167,194.542C62.167,192.313 61.742,190.751 60.891,189.856C60.041,188.961 58.838,188.514 57.283,188.514Z" style="fill-rule:nonzero;"/>
        <path d="M71.143,185.962L73.563,185.962L74.223,188.602L74.399,188.602C75.074,187.575 75.947,186.791 77.017,186.248C78.088,185.705 79.313,185.434 80.691,185.434C83.625,185.434 85.81,186.299 87.247,188.03C88.685,189.761 89.403,192.591 89.403,196.522C89.403,198.37 89.161,200.035 88.677,201.516C88.193,202.997 87.511,204.251 86.631,205.278C85.751,206.305 84.688,207.097 83.441,207.654C82.195,208.211 80.809,208.49 79.283,208.49C78.198,208.49 77.34,208.424 76.709,208.292C76.079,208.16 75.397,207.933 74.663,207.61L74.663,216.762L71.143,216.762L71.143,185.962ZM80.031,188.514C78.535,188.514 77.355,188.903 76.489,189.68C75.624,190.457 75.015,191.638 74.663,193.222L74.663,204.134C75.191,204.545 75.793,204.86 76.467,205.08C77.142,205.3 78.037,205.41 79.151,205.41C81.175,205.41 82.781,204.655 83.969,203.144C85.157,201.633 85.751,199.411 85.751,196.478C85.751,195.275 85.649,194.183 85.443,193.2C85.238,192.217 84.908,191.381 84.453,190.692C83.999,190.003 83.412,189.467 82.693,189.086C81.975,188.705 81.087,188.514 80.031,188.514Z" style="fill-rule:nonzero;"/>
        <path d="M94.947,207.962L94.947,185.962L98.467,185.962L98.467,204.882L105.991,204.882L105.991,185.962L109.511,185.962L109.511,204.882L117.035,204.882L117.035,185.962L120.555,185.962L120.555,207.962L94.947,207.962Z" style="fill-rule:nonzero;"/>
        <path d="M141.059,194.938L141.191,192.21L141.059,192.21L139.255,195.026L129.355,207.962L127.331,207.962L127.331,185.962L130.851,185.962L130.851,199.382L130.719,201.978L130.895,201.978L132.611,199.25L142.511,185.962L144.579,185.962L144.579,207.962L141.059,207.962L141.059,194.938Z" style="fill-rule:nonzero;"/>
        <path d="M164.819,198.238L154.875,198.238L154.875,207.962L151.355,207.962L151.355,185.962L154.875,185.962L154.875,195.158L164.819,195.158L164.819,185.962L168.339,185.962L168.339,207.962L164.819,207.962L164.819,198.238Z" style="fill-rule:nonzero;"/>
        <path d="M174.763,187.59C175.878,186.915 177.176,186.417 178.657,186.094C180.139,185.771 181.686,185.61 183.299,185.61C184.825,185.61 186.049,185.815 186.973,186.226C187.897,186.637 188.601,187.172 189.085,187.832C189.569,188.492 189.892,189.218 190.053,190.01C190.215,190.802 190.295,191.594 190.295,192.386C190.295,194.146 190.251,195.862 190.163,197.534C190.075,199.206 190.031,200.79 190.031,202.286C190.031,203.371 190.075,204.398 190.163,205.366C190.251,206.334 190.413,207.229 190.647,208.05L188.051,208.05L187.127,204.97L186.907,204.97C186.643,205.381 186.313,205.784 185.917,206.18C185.521,206.576 185.045,206.928 184.487,207.236C183.93,207.544 183.285,207.801 182.551,208.006C181.818,208.211 180.982,208.314 180.043,208.314C179.105,208.314 178.232,208.167 177.425,207.874C176.619,207.581 175.922,207.163 175.335,206.62C174.749,206.077 174.287,205.425 173.949,204.662C173.612,203.899 173.443,203.034 173.443,202.066C173.443,200.775 173.707,199.697 174.235,198.832C174.763,197.967 175.504,197.277 176.457,196.764C177.411,196.251 178.555,195.884 179.889,195.664C181.224,195.444 182.698,195.334 184.311,195.334L185.521,195.334C185.917,195.334 186.321,195.363 186.731,195.422C186.819,194.542 186.863,193.75 186.863,193.046C186.863,191.433 186.541,190.303 185.895,189.658C185.25,189.013 184.077,188.69 182.375,188.69C181.877,188.69 181.341,188.727 180.769,188.8C180.197,188.873 179.611,188.976 179.009,189.108C178.408,189.24 177.836,189.401 177.293,189.592C176.751,189.783 176.274,189.995 175.863,190.23L174.763,187.59ZM181.011,205.234C181.833,205.234 182.566,205.124 183.211,204.904C183.857,204.684 184.414,204.405 184.883,204.068C185.353,203.731 185.741,203.357 186.049,202.946C186.357,202.535 186.585,202.139 186.731,201.758L186.731,198.106C186.321,198.077 185.903,198.055 185.477,198.04C185.052,198.025 184.634,198.018 184.223,198.018C183.314,198.018 182.427,198.069 181.561,198.172C180.696,198.275 179.933,198.465 179.273,198.744C178.613,199.023 178.085,199.404 177.689,199.888C177.293,200.372 177.095,200.981 177.095,201.714C177.095,202.741 177.462,203.584 178.195,204.244C178.929,204.904 179.867,205.234 181.011,205.234Z" style="fill-rule:nonzero;"/>
        <path d="M104.172,272.262L91.324,272.262L91.324,299.806L87.672,299.806L87.672,269.006L104.172,269.006L104.172,272.262Z" style="fill-rule:nonzero;"/>
        <path d="M101.928,277.806L104.348,277.806L105.008,280.446L105.184,280.446C105.859,279.419 106.731,278.635 107.802,278.092C108.873,277.549 110.097,277.278 111.476,277.278C114.409,277.278 116.595,278.143 118.032,279.874C119.469,281.605 120.188,284.435 120.188,288.366C120.188,290.214 119.946,291.879 119.462,293.36C118.978,294.841 118.296,296.095 117.416,297.122C116.536,298.149 115.473,298.941 114.226,299.498C112.979,300.055 111.593,300.334 110.068,300.334C108.983,300.334 108.125,300.268 107.494,300.136C106.863,300.004 106.181,299.777 105.448,299.454L105.448,308.606L101.928,308.606L101.928,277.806ZM110.816,280.358C109.32,280.358 108.139,280.747 107.274,281.524C106.409,282.301 105.8,283.482 105.448,285.066L105.448,295.978C105.976,296.389 106.577,296.704 107.252,296.924C107.927,297.144 108.821,297.254 109.936,297.254C111.96,297.254 113.566,296.499 114.754,294.988C115.942,293.477 116.536,291.255 116.536,288.322C116.536,287.119 116.433,286.027 116.228,285.044C116.023,284.061 115.693,283.225 115.238,282.536C114.783,281.847 114.197,281.311 113.478,280.93C112.759,280.549 111.872,280.358 110.816,280.358Z" style="fill-rule:nonzero;"/>
        <path d="M125.38,279.434C126.495,278.759 127.793,278.261 129.274,277.938C130.755,277.615 132.303,277.454 133.916,277.454C135.441,277.454 136.666,277.659 137.59,278.07C138.514,278.481 139.218,279.016 139.702,279.676C140.186,280.336 140.509,281.062 140.67,281.854C140.831,282.646 140.912,283.438 140.912,284.23C140.912,285.99 140.868,287.706 140.78,289.378C140.692,291.05 140.648,292.634 140.648,294.13C140.648,295.215 140.692,296.242 140.78,297.21C140.868,298.178 141.029,299.073 141.264,299.894L138.668,299.894L137.744,296.814L137.524,296.814C137.26,297.225 136.93,297.628 136.534,298.024C136.138,298.42 135.661,298.772 135.104,299.08C134.547,299.388 133.901,299.645 133.168,299.85C132.435,300.055 131.599,300.158 130.66,300.158C129.721,300.158 128.849,300.011 128.042,299.718C127.235,299.425 126.539,299.007 125.952,298.464C125.365,297.921 124.903,297.269 124.566,296.506C124.229,295.743 124.06,294.878 124.06,293.91C124.06,292.619 124.324,291.541 124.852,290.676C125.38,289.811 126.121,289.121 127.074,288.608C128.027,288.095 129.171,287.728 130.506,287.508C131.841,287.288 133.315,287.178 134.928,287.178L136.138,287.178C136.534,287.178 136.937,287.207 137.348,287.266C137.436,286.386 137.48,285.594 137.48,284.89C137.48,283.277 137.157,282.147 136.512,281.502C135.867,280.857 134.693,280.534 132.992,280.534C132.493,280.534 131.958,280.571 131.386,280.644C130.814,280.717 130.227,280.82 129.626,280.952C129.025,281.084 128.453,281.245 127.91,281.436C127.367,281.627 126.891,281.839 126.48,282.074L125.38,279.434ZM131.628,297.078C132.449,297.078 133.183,296.968 133.828,296.748C134.473,296.528 135.031,296.249 135.5,295.912C135.969,295.575 136.358,295.201 136.666,294.79C136.974,294.379 137.201,293.983 137.348,293.602L137.348,289.95C136.937,289.921 136.519,289.899 136.094,289.884C135.669,289.869 135.251,289.862 134.84,289.862C133.931,289.862 133.043,289.913 132.178,290.016C131.313,290.119 130.55,290.309 129.89,290.588C129.23,290.867 128.702,291.248 128.306,291.732C127.91,292.216 127.712,292.825 127.712,293.558C127.712,294.585 128.079,295.428 128.812,296.088C129.545,296.748 130.484,297.078 131.628,297.078Z" style="fill-rule:nonzero;"/>
        <path d="M161.02,290.082L151.076,290.082L151.076,299.806L147.556,299.806L147.556,277.806L151.076,277.806L151.076,287.002L161.02,287.002L161.02,277.806L164.54,277.806L164.54,299.806L161.02,299.806L161.02,290.082Z" style="fill-rule:nonzero;"/>
        <path d="M174.836,296.726C175.921,296.902 176.963,296.99 177.96,296.99C179.808,296.99 181.172,296.631 182.052,295.912C182.932,295.193 183.372,294.174 183.372,292.854C183.372,291.681 182.947,290.713 182.096,289.95C181.245,289.187 179.911,288.806 178.092,288.806C177.593,288.806 177.051,288.821 176.464,288.85C175.877,288.879 175.335,288.967 174.836,289.114L174.836,296.726ZM174.836,286.21C175.54,286.093 176.215,286.012 176.86,285.968C177.505,285.924 178.121,285.902 178.708,285.902C180.233,285.902 181.524,286.071 182.58,286.408C183.636,286.745 184.494,287.207 185.154,287.794C185.814,288.381 186.291,289.077 186.584,289.884C186.877,290.691 187.024,291.549 187.024,292.458C187.024,295.127 186.225,297.063 184.626,298.266C183.027,299.469 180.541,300.07 177.168,300.07C175.291,300.07 173.34,299.982 171.316,299.806L171.316,277.806L174.836,277.806L174.836,286.21Z" style="fill-rule:nonzero;"/>
    </g>
</svg>
