<?xml version="1.0" encoding="UTF-8" standalone="no"?>
<!DOCTYPE svg PUBLIC "-//W3C//DTD SVG 1.1//EN" "http://www.w3.org/Graphics/SVG/1.1/DTD/svg11.dtd">
<svg width="100%" height="100%" viewBox="0 0 1192 892" version="1.1" xmlns="http://www.w3.org/2000/svg" xmlns:xlink="http://www.w3.org/1999/xlink" xml:space="preserve" xmlns:serif="http://www.serif.com/" style="fill-rule:evenodd;clip-rule:evenodd;stroke-miterlimit:10;">
    <rect id="Artboard9" x="-1398" y="-82" width="2618" height="2846" style="fill:none;"/>
    <path d="M44.483,792.893L408,575.294" style="fill:none;stroke:rgb(191,191,191);stroke-width:4px;"/>
    <path d="M601.5,714L1138,792.893" style="fill:none;stroke:rgb(191,191,191);stroke-width:4px;"/>
    <path d="M1138.56,791L814,532" style="fill:none;stroke:rgb(191,191,191);stroke-width:4px;"/>
    <path d="M686,355L602,88" style="fill:none;stroke:rgb(191,191,191);stroke-width:4px;"/>
    <path d="M449,403L602,88" style="fill:none;stroke:rgb(191,191,191);stroke-width:4px;"/>
    <path d="M44.483,792.893L449,403" style="fill:none;stroke:rgb(191,191,191);stroke-width:4px;"/>
    <path d="M44.483,792.893L601.5,714" style="fill:none;stroke:rgb(191,191,191);stroke-width:4px;"/>
    <path d="M602,88L815,534" style="fill:none;stroke:rgb(191,191,191);stroke-width:4px;"/>
    <g transform="matrix(1,0,0,1,-356.971,-1096.62)">
        <g transform="matrix(60,0,0,60,368.503,1953.88)">
            <path d="M0.057,-0.5L0.152,-0.5L0.167,-0.44L0.171,-0.44C0.188,-0.465 0.209,-0.484 0.233,-0.496C0.256,-0.508 0.285,-0.514 0.319,-0.514C0.382,-0.514 0.429,-0.494 0.46,-0.455C0.491,-0.415 0.507,-0.351 0.507,-0.263C0.507,-0.22 0.502,-0.182 0.492,-0.148C0.482,-0.113 0.467,-0.084 0.448,-0.06C0.428,-0.036 0.404,-0.018 0.376,-0.005C0.347,0.008 0.315,0.014 0.278,0.014C0.257,0.014 0.24,0.012 0.227,0.01C0.214,0.007 0.2,0.002 0.187,-0.005L0.187,0.2L0.057,0.2L0.057,-0.5ZM0.28,-0.404C0.255,-0.404 0.235,-0.398 0.221,-0.385C0.206,-0.372 0.195,-0.353 0.187,-0.328L0.187,-0.12C0.196,-0.113 0.207,-0.107 0.218,-0.103C0.229,-0.098 0.243,-0.096 0.261,-0.096C0.298,-0.096 0.326,-0.109 0.345,-0.136C0.364,-0.162 0.373,-0.205 0.373,-0.266C0.373,-0.31 0.366,-0.344 0.351,-0.368C0.336,-0.392 0.313,-0.404 0.28,-0.404Z" style="fill:rgb(128,128,128);fill-rule:nonzero;"/>
        </g>
        <g transform="matrix(34.98,0,0,34.98,400.903,1973.86)">
            <rect x="0.054" y="-0.345" width="0.251" height="0.115" style="fill:rgb(128,128,128);fill-rule:nonzero;"/>
        </g>
        <g transform="matrix(34.98,0,0,34.98,413.495,1973.86)">
            <path d="M0.101,-0.11L0.24,-0.11L0.24,-0.505L0.255,-0.573L0.207,-0.514L0.118,-0.453L0.063,-0.528L0.291,-0.712L0.364,-0.712L0.364,-0.11L0.5,-0.11L0.5,-0L0.101,-0L0.101,-0.11Z" style="fill:rgb(128,128,128);fill-rule:nonzero;"/>
        </g>
    </g>
    <g transform="matrix(1,0,0,1,748.106,-1096.62)">
        <g transform="matrix(60,0,0,60,368.503,1953.88)">
            <path d="M0.057,-0.5L0.152,-0.5L0.167,-0.44L0.171,-0.44C0.188,-0.465 0.209,-0.484 0.233,-0.496C0.256,-0.508 0.285,-0.514 0.319,-0.514C0.382,-0.514 0.429,-0.494 0.46,-0.455C0.491,-0.415 0.507,-0.351 0.507,-0.263C0.507,-0.22 0.502,-0.182 0.492,-0.148C0.482,-0.113 0.467,-0.084 0.448,-0.06C0.428,-0.036 0.404,-0.018 0.376,-0.005C0.347,0.008 0.315,0.014 0.278,0.014C0.257,0.014 0.24,0.012 0.227,0.01C0.214,0.007 0.2,0.002 0.187,-0.005L0.187,0.2L0.057,0.2L0.057,-0.5ZM0.28,-0.404C0.255,-0.404 0.235,-0.398 0.221,-0.385C0.206,-0.372 0.195,-0.353 0.187,-0.328L0.187,-0.12C0.196,-0.113 0.207,-0.107 0.218,-0.103C0.229,-0.098 0.243,-0.096 0.261,-0.096C0.298,-0.096 0.326,-0.109 0.345,-0.136C0.364,-0.162 0.373,-0.205 0.373,-0.266C0.373,-0.31 0.366,-0.344 0.351,-0.368C0.336,-0.392 0.313,-0.404 0.28,-0.404Z" style="fill:rgb(128,128,128);fill-rule:nonzero;"/>
        </g>
        <g transform="matrix(34.98,0,0,34.98,400.903,1973.86)">
            <rect x="0.054" y="-0.345" width="0.251" height="0.115" style="fill:rgb(128,128,128);fill-rule:nonzero;"/>
        </g>
        <g transform="matrix(34.98,0,0,34.98,413.495,1973.86)">
            <path d="M0.475,-0.529C0.475,-0.495 0.469,-0.461 0.457,-0.426C0.444,-0.391 0.429,-0.357 0.41,-0.324C0.391,-0.291 0.37,-0.259 0.347,-0.228C0.324,-0.197 0.301,-0.168 0.279,-0.142L0.226,-0.101L0.226,-0.096L0.298,-0.11L0.49,-0.11L0.49,-0L0.069,-0L0.069,-0.067C0.085,-0.084 0.103,-0.103 0.123,-0.126C0.143,-0.148 0.163,-0.171 0.184,-0.197C0.204,-0.222 0.224,-0.247 0.243,-0.274C0.262,-0.301 0.28,-0.327 0.295,-0.355C0.31,-0.382 0.323,-0.408 0.332,-0.433C0.341,-0.458 0.345,-0.482 0.345,-0.505C0.345,-0.532 0.337,-0.555 0.322,-0.573C0.306,-0.59 0.281,-0.599 0.247,-0.599C0.226,-0.599 0.204,-0.595 0.182,-0.586C0.159,-0.577 0.14,-0.565 0.125,-0.551L0.073,-0.643C0.099,-0.664 0.129,-0.682 0.162,-0.695C0.195,-0.708 0.233,-0.714 0.278,-0.714C0.307,-0.714 0.333,-0.71 0.357,-0.702C0.381,-0.694 0.402,-0.682 0.419,-0.667C0.436,-0.652 0.45,-0.632 0.46,-0.61C0.47,-0.587 0.475,-0.56 0.475,-0.529Z" style="fill:rgb(128,128,128);fill-rule:nonzero;"/>
        </g>
    </g>
    <g transform="matrix(1,0,0,1,202.01,-1911.91)">
        <g transform="matrix(60,0,0,60,368.503,1953.88)">
            <path d="M0.057,-0.5L0.152,-0.5L0.167,-0.44L0.171,-0.44C0.188,-0.465 0.209,-0.484 0.233,-0.496C0.256,-0.508 0.285,-0.514 0.319,-0.514C0.382,-0.514 0.429,-0.494 0.46,-0.455C0.491,-0.415 0.507,-0.351 0.507,-0.263C0.507,-0.22 0.502,-0.182 0.492,-0.148C0.482,-0.113 0.467,-0.084 0.448,-0.06C0.428,-0.036 0.404,-0.018 0.376,-0.005C0.347,0.008 0.315,0.014 0.278,0.014C0.257,0.014 0.24,0.012 0.227,0.01C0.214,0.007 0.2,0.002 0.187,-0.005L0.187,0.2L0.057,0.2L0.057,-0.5ZM0.28,-0.404C0.255,-0.404 0.235,-0.398 0.221,-0.385C0.206,-0.372 0.195,-0.353 0.187,-0.328L0.187,-0.12C0.196,-0.113 0.207,-0.107 0.218,-0.103C0.229,-0.098 0.243,-0.096 0.261,-0.096C0.298,-0.096 0.326,-0.109 0.345,-0.136C0.364,-0.162 0.373,-0.205 0.373,-0.266C0.373,-0.31 0.366,-0.344 0.351,-0.368C0.336,-0.392 0.313,-0.404 0.28,-0.404Z" style="fill:rgb(128,128,128);fill-rule:nonzero;"/>
        </g>
        <g transform="matrix(34.98,0,0,34.98,400.903,1973.86)">
            <rect x="0.054" y="-0.345" width="0.251" height="0.115" style="fill:rgb(128,128,128);fill-rule:nonzero;"/>
        </g>
        <g transform="matrix(34.98,0,0,34.98,413.495,1973.86)">
            <path d="M0.241,-0.096C0.282,-0.096 0.314,-0.107 0.336,-0.129C0.357,-0.151 0.368,-0.178 0.368,-0.209C0.368,-0.247 0.357,-0.275 0.334,-0.293C0.311,-0.311 0.276,-0.32 0.227,-0.32L0.155,-0.32L0.155,-0.389L0.276,-0.554L0.333,-0.599L0.254,-0.59L0.086,-0.59L0.086,-0.7L0.468,-0.7L0.468,-0.629L0.327,-0.44L0.283,-0.413L0.283,-0.408L0.325,-0.414C0.348,-0.412 0.371,-0.407 0.392,-0.398C0.413,-0.389 0.431,-0.377 0.447,-0.361C0.462,-0.344 0.475,-0.324 0.484,-0.3C0.493,-0.276 0.498,-0.248 0.498,-0.217C0.498,-0.178 0.492,-0.144 0.479,-0.115C0.466,-0.086 0.448,-0.062 0.425,-0.043C0.401,-0.024 0.375,-0.009 0.344,-0C0.313,0.009 0.28,0.014 0.245,0.014C0.216,0.014 0.185,0.011 0.154,0.006C0.123,0.001 0.097,-0.007 0.078,-0.017L0.113,-0.125C0.13,-0.116 0.15,-0.109 0.171,-0.104C0.192,-0.099 0.215,-0.096 0.241,-0.096Z" style="fill:rgb(128,128,128);fill-rule:nonzero;"/>
        </g>
    </g>
    <path d="M768.599,612.729C771.287,612.217 774.247,611.817 777.479,611.529C780.711,611.241 783.927,611.097 787.127,611.097C790.455,611.097 793.799,611.369 797.159,611.913C800.519,612.457 803.543,613.545 806.231,615.177C808.919,616.809 811.111,619.081 812.807,621.993C814.503,624.905 815.351,628.697 815.351,633.369C815.351,637.593 814.615,641.161 813.143,644.073C811.671,646.985 809.719,649.369 807.287,651.225C804.855,653.081 802.087,654.425 798.983,655.257C795.879,656.089 792.663,656.505 789.335,656.505L787.799,656.505C787.095,656.505 786.359,656.489 785.591,656.457C784.823,656.425 784.071,656.377 783.335,656.313C782.599,656.249 782.071,656.185 781.751,656.121L781.751,679.257L768.599,679.257L768.599,612.729ZM788.183,622.425C786.903,622.425 785.687,622.473 784.535,622.569C783.383,622.665 782.455,622.777 781.751,622.905L781.751,644.697C782.007,644.761 782.391,644.825 782.903,644.889C783.415,644.953 783.959,645.001 784.535,645.033C785.111,645.065 785.671,645.081 786.215,645.081L787.415,645.081C789.143,645.081 790.855,644.921 792.551,644.601C794.247,644.281 795.767,643.689 797.111,642.825C798.455,641.961 799.527,640.761 800.327,639.225C801.127,637.689 801.527,635.673 801.527,633.177C801.527,631.065 801.143,629.321 800.375,627.945C799.607,626.569 798.599,625.465 797.351,624.633C796.103,623.801 794.679,623.225 793.079,622.905C791.479,622.585 789.847,622.425 788.183,622.425Z" style="fill-rule:nonzero;"/>
    <circle cx="408" cy="574.895" r="13.5"/>
    <circle cx="449.581" cy="402.944" r="13.5"/>
    <circle cx="685.44" cy="356.003" r="13.5"/>
    <circle cx="812.553" cy="531.807" r="13.5"/>
    <circle cx="601.247" cy="714" r="13.5"/>
    <circle cx="530.075" cy="490.124" r="13.5"/>
    <circle cx="601.247" cy="579.698" r="13.5"/>
    <circle cx="655.894" cy="476.624" r="13.5"/>
    <path d="M408,575.294L449,403L686,355L814,532L601.247,714L408,575.294Z" style="fill:none;stroke:black;stroke-width:6px;"/>
    <path d="M408.095,574.895L530.075,490.124L449,403" style="fill:none;stroke:black;stroke-width:6px;"/>
    <path d="M686,355L655.894,476.624L814,532" style="fill:none;stroke:black;stroke-width:6px;"/>
    <path d="M530.075,490.124L655.894,476.624L602,580L530.075,490.124Z" style="fill:none;stroke:black;stroke-width:6px;"/>
    <path d="M408,575.294L602,580L601.247,714" style="fill:none;stroke:black;stroke-width:6px;"/>
    <path d="M602,580L814,534.5" style="fill:none;stroke:black;stroke-width:6px;"/>
    <path d="M530.075,488.947L686,355" style="fill:none;stroke:black;stroke-width:6px;"/>
    <path d="M601.247,88L48,791L1138,791L601.247,88Z" style="fill:none;stroke:rgb(191,191,191);stroke-width:4px;"/>
    <circle cx="601.5" cy="88" r="13.5" style="fill:rgb(128,128,128);"/>
    <circle cx="44.483" cy="792.893" r="13.5" style="fill:rgb(128,128,128);"/>
    <circle cx="1138.56" cy="792.893" r="13.5" style="fill:rgb(128,128,128);"/>
</svg>
