<?xml version="1.0" encoding="UTF-8" standalone="no"?>
<!DOCTYPE svg PUBLIC "-//W3C//DTD SVG 1.1//EN" "http://www.w3.org/Graphics/SVG/1.1/DTD/svg11.dtd">
<svg width="100%" height="100%" viewBox="0 0 646 500" version="1.1" xmlns="http://www.w3.org/2000/svg" xmlns:xlink="http://www.w3.org/1999/xlink" xml:space="preserve" xmlns:serif="http://www.serif.com/" style="fill-rule:evenodd;clip-rule:evenodd;stroke-linecap:square;stroke-linejoin:bevel;stroke-miterlimit:10;">
    <rect id="TIN-details" serif:id="TIN details" x="-184" y="-21" width="927" height="553.306" style="fill:none;"/>
    <path d="M348.68,182.599L328.13,164.789L343.112,91.756L412.953,145.09L397.464,172.726L348.68,182.599Z" style="fill:rgb(252,206,254);fill-rule:nonzero;stroke:rgb(250,112,255);stroke-width:6px;"/>
    <path id="Outline" d="M516.486,107.501L579.557,184.318L595.728,276.497L571.471,392.934L511.635,430.129L383.069,441.45L319.999,400.212L277.952,276.497L302.21,130.951L399.241,99.415L516.486,107.501Z" style="fill:none;stroke:black;stroke-width:8px;stroke-linecap:round;stroke-linejoin:round;"/>
    <path d="M314,205L379.026,211.81" style="fill:none;stroke:rgb(45,231,231);stroke-width:10px;stroke-linecap:butt;stroke-linejoin:miter;"/>
    <path d="M277.952,276.497L372.557,284.583L315.147,340.376L277.952,276.497Z" style="fill:rgb(205,255,254);"/>
    <g id="TIN">
        <path d="M383.069,441.45L412.178,368.676L438.862,420.426L383.069,441.45Z" style="fill:none;stroke:rgb(35,35,35);stroke-width:3px;"/>
        <path d="M438.862,420.426L487.377,361.399L511.635,430.129L438.862,420.426Z" style="fill:none;stroke:rgb(35,35,35);stroke-width:3px;"/>
        <path d="M319.999,400.212L412.178,368.676L383.069,441.45L319.999,400.212Z" style="fill:none;stroke:rgb(35,35,35);stroke-width:3px;"/>
        <path d="M487.377,361.399L571.471,392.934L511.635,430.129L487.377,361.399Z" style="fill:none;stroke:rgb(35,35,35);stroke-width:3px;"/>
        <path d="M412.178,368.676L487.377,361.399L438.862,420.426L412.178,368.676Z" style="fill:none;stroke:rgb(35,35,35);stroke-width:3px;"/>
        <path d="M487.377,361.399L548.022,337.141L571.471,392.934L487.377,361.399Z" style="fill:none;stroke:rgb(35,35,35);stroke-width:3px;"/>
        <path d="M501.123,321.778L548.022,337.141L487.377,361.399L501.123,321.778Z" style="fill:none;stroke:rgb(35,35,35);stroke-width:3px;"/>
        <path d="M315.147,340.376L412.178,368.676L319.999,400.212L315.147,340.376Z" style="fill:none;stroke:rgb(35,35,35);stroke-width:3px;"/>
        <path d="M438.862,313.692L487.377,361.399L412.178,368.676L438.862,313.692Z" style="fill:none;stroke:rgb(35,35,35);stroke-width:3px;"/>
        <path d="M438.862,313.692L501.123,321.778L487.377,361.399L438.862,313.692Z" style="fill:none;stroke:rgb(35,35,35);stroke-width:3px;"/>
        <path d="M438.862,313.692L480.1,287.009L501.123,321.778L438.862,313.692Z" style="fill:none;stroke:rgb(35,35,35);stroke-width:3px;"/>
        <path d="M315.147,340.376L372.557,284.583L412.178,368.676L315.147,340.376Z" style="fill:none;stroke:rgb(35,35,35);stroke-width:3px;"/>
        <path d="M372.557,284.583L438.862,313.692L412.178,368.676L372.557,284.583Z" style="fill:none;stroke:rgb(35,35,35);stroke-width:3px;"/>
        <path d="M595.728,276.497L571.471,392.934L548.022,337.141L595.728,276.497Z" style="fill:none;stroke:rgb(35,35,35);stroke-width:3px;"/>
        <path d="M501.123,321.778L535.893,273.263L548.022,337.141L501.123,321.778Z" style="fill:none;stroke:rgb(35,35,35);stroke-width:3px;"/>
        <path d="M535.893,273.263L595.728,276.497L548.022,337.141L535.893,273.263Z" style="fill:none;stroke:rgb(35,35,35);stroke-width:3px;"/>
        <path d="M480.1,287.009L535.893,273.263L501.123,321.778L480.1,287.009Z" style="fill:none;stroke:rgb(35,35,35);stroke-width:3px;"/>
        <path d="M438.862,313.692L451.799,250.622L480.1,287.009L438.862,313.692Z" style="fill:none;stroke:rgb(35,35,35);stroke-width:3px;"/>
        <path d="M502.74,246.579L535.893,273.263L480.1,287.009L502.74,246.579Z" style="fill:none;stroke:rgb(35,35,35);stroke-width:3px;"/>
        <path d="M277.952,276.497L372.557,284.583L315.147,340.376L277.952,276.497Z" style="fill:none;stroke:rgb(35,35,35);stroke-width:3px;"/>
        <path d="M372.557,284.583L451.799,250.622L438.862,313.692L372.557,284.583Z" style="fill:none;stroke:rgb(35,35,35);stroke-width:3px;"/>
        <path d="M451.799,250.622L502.74,246.579L480.1,287.009L451.799,250.622Z" style="fill:none;stroke:rgb(35,35,35);stroke-width:3px;"/>
        <path d="M319.999,400.212L277.952,276.497L315.147,340.376L319.999,400.212Z" style="fill:none;stroke:rgb(35,35,35);stroke-width:3px;"/>
        <path d="M379.026,211.81L451.799,250.622L372.557,284.583L379.026,211.81Z" style="fill:none;stroke:rgb(35,35,35);stroke-width:3px;"/>
        <path d="M312.721,204.532L372.557,284.583L277.952,276.497L312.721,204.532Z" style="fill:none;stroke:rgb(35,35,35);stroke-width:3px;"/>
        <path d="M312.721,204.532L379.026,211.81L372.557,284.583L312.721,204.532Z" style="fill:none;stroke:rgb(35,35,35);stroke-width:3px;"/>
        <path d="M510.018,202.915L535.893,273.263L502.74,246.579L510.018,202.915Z" style="fill:none;stroke:rgb(35,35,35);stroke-width:3px;"/>
        <path d="M535.893,273.263L579.557,184.318L595.728,276.497L535.893,273.263Z" style="fill:none;stroke:rgb(35,35,35);stroke-width:3px;"/>
        <path d="M451.799,250.622L510.018,202.915L502.74,246.579L451.799,250.622Z" style="fill:none;stroke:rgb(35,35,35);stroke-width:3px;"/>
        <path d="M379.026,211.81L438.862,185.126L451.799,250.622L379.026,211.81Z" style="fill:none;stroke:rgb(35,35,35);stroke-width:3px;"/>
        <path d="M510.018,202.915L579.557,184.318L535.893,273.263L510.018,202.915Z" style="fill:none;stroke:rgb(35,35,35);stroke-width:3px;"/>
        <path d="M438.862,185.126L510.018,202.915L451.799,250.622L438.862,185.126Z" style="fill:none;stroke:rgb(35,35,35);stroke-width:3px;"/>
        <path d="M312.721,204.532L365.28,143.888L379.026,211.81L312.721,204.532Z" style="fill:none;stroke:rgb(35,35,35);stroke-width:3px;"/>
        <path d="M365.28,143.888L438.862,185.126L379.026,211.81L365.28,143.888Z" style="fill:none;stroke:rgb(35,35,35);stroke-width:3px;"/>
        <path d="M302.21,130.951L365.28,143.888L312.721,204.532L302.21,130.951Z" style="fill:none;stroke:rgb(35,35,35);stroke-width:3px;"/>
        <path d="M516.486,107.501L579.557,184.318L510.018,202.915L516.486,107.501Z" style="fill:none;stroke:rgb(35,35,35);stroke-width:3px;"/>
        <path d="M438.862,185.126L516.486,107.501L510.018,202.915L438.862,185.126Z" style="fill:none;stroke:rgb(35,35,35);stroke-width:3px;"/>
        <path d="M399.241,99.415L438.862,185.126L365.28,143.888L399.241,99.415Z" style="fill:none;stroke:rgb(35,35,35);stroke-width:3px;"/>
        <path d="M399.241,99.415L516.486,107.501L438.862,185.126L399.241,99.415Z" style="fill:none;stroke:rgb(35,35,35);stroke-width:3px;"/>
        <path d="M277.952,276.497L302.21,130.951L312.721,204.532L277.952,276.497Z" style="fill:none;stroke:rgb(35,35,35);stroke-width:3px;"/>
        <path d="M302.21,130.951L399.241,99.415L365.28,143.888L302.21,130.951Z" style="fill:none;stroke:rgb(35,35,35);stroke-width:3px;"/>
        <path d="M438.862,420.426L511.635,430.129L383.069,441.45L438.862,420.426Z" style="fill:none;stroke:rgb(35,35,35);stroke-width:3px;"/>
    </g>
    <g id="Voronoy">
        <path d="M246.174,176.497L246.174,65.212L334.485,65.212L343.112,91.756L328.13,164.789L246.174,176.497Z" style="fill:none;fill-rule:nonzero;stroke:rgb(35,35,35);stroke-width:1.5px;"/>
        <path d="M412.953,145.09L343.112,91.756L334.485,65.212L460.501,65.212L456.377,125.017L412.953,145.09Z" style="fill:none;fill-rule:nonzero;stroke:rgb(35,35,35);stroke-width:1.5px;"/>
        <path d="M534.908,156.676L484.628,153.268L456.377,125.017L460.501,65.212L627.506,65.212L627.506,80.648L534.908,156.676Z" style="fill:none;fill-rule:nonzero;stroke:rgb(35,35,35);stroke-width:1.5px;"/>
        <path d="M568.028,233.848L553.661,226.795L534.908,156.676L627.506,80.648L627.506,223.414L568.028,233.848Z" style="fill:none;fill-rule:nonzero;stroke:rgb(35,35,35);stroke-width:1.5px;"/>
        <path d="M627.506,343.863L615.887,341.442L564.402,300.94L568.028,233.848L627.506,223.414L627.506,343.863Z" style="fill:none;fill-rule:nonzero;stroke:rgb(35,35,35);stroke-width:1.5px;"/>
        <path d="M581.412,475.653L525.95,386.431L529.15,377.897L615.887,341.442L627.506,343.863L627.506,475.653L581.412,475.653Z" style="fill:none;fill-rule:nonzero;stroke:rgb(35,35,35);stroke-width:1.5px;"/>
        <path d="M246.174,475.653L246.174,376.083L360.069,366.848L369.261,393.718L315.688,475.653L246.174,475.653Z" style="fill:none;fill-rule:nonzero;stroke:rgb(35,35,35);stroke-width:1.5px;"/>
        <path d="M246.174,337.769L246.174,216.762L327.353,255.983L324.249,292.308L246.174,337.769Z" style="fill:none;fill-rule:nonzero;stroke:rgb(35,35,35);stroke-width:1.5px;"/>
        <path d="M327.353,255.983L246.174,216.762L246.174,176.497L328.13,164.789L348.68,182.599L341.812,245.176L327.353,255.983Z" style="fill:none;fill-rule:nonzero;stroke:rgb(35,35,35);stroke-width:1.5px;"/>
        <path d="M419.843,222.909L397.464,172.726L412.953,145.09L456.377,125.017L484.628,153.268L469.679,213.065L419.843,222.909Z" style="fill:none;fill-rule:nonzero;stroke:rgb(35,35,35);stroke-width:1.5px;"/>
        <path d="M542.748,230.809L474.961,219.511L469.679,213.065L484.628,153.268L534.908,156.676L553.661,226.795L542.748,230.809Z" style="fill:none;fill-rule:nonzero;stroke:rgb(35,35,35);stroke-width:1.5px;"/>
        <path d="M531.893,307.113L510.944,292.099L506.836,275.427L542.748,230.809L553.661,226.795L568.028,233.848L564.402,300.94L531.893,307.113Z" style="fill:none;fill-rule:nonzero;stroke:rgb(35,35,35);stroke-width:1.5px;"/>
        <path d="M448.073,282.72L415.822,276.104L404.973,250.79L419.843,222.909L469.679,213.065L474.961,219.511L478.123,259.347L448.073,282.72Z" style="fill:none;fill-rule:nonzero;stroke:rgb(35,35,35);stroke-width:1.5px;"/>
        <path d="M404.973,250.79L341.812,245.176L348.68,182.599L397.464,172.726L419.843,222.909L404.973,250.79Z" style="fill:none;fill-rule:nonzero;stroke:rgb(35,35,35);stroke-width:1.5px;"/>
        <path d="M368.522,337.865L324.249,292.308L327.353,255.983L341.812,245.176L404.973,250.79L415.822,276.104L393.971,325.874L368.522,337.865Z" style="fill:none;fill-rule:nonzero;stroke:rgb(35,35,35);stroke-width:1.5px;"/>
        <path d="M401.853,406.755L369.261,393.718L360.069,366.848L368.522,337.865L393.971,325.874L448.551,352.361L451.345,381.235L401.853,406.755Z" style="fill:none;fill-rule:nonzero;stroke:rgb(35,35,35);stroke-width:1.5px;"/>
        <path d="M478.18,403.291L451.345,381.235L448.551,352.361L468.074,332.507L517.91,349.797L529.15,377.897L525.95,386.431L478.18,403.291Z" style="fill:none;fill-rule:nonzero;stroke:rgb(35,35,35);stroke-width:1.5px;"/>
        <path d="M517.91,349.797L468.074,332.507L470.116,316.786L510.944,292.099L531.893,307.113L517.91,349.797Z" style="fill:none;fill-rule:nonzero;stroke:rgb(35,35,35);stroke-width:1.5px;"/>
        <path d="M529.15,377.897L517.91,349.797L531.893,307.113L564.402,300.94L615.887,341.442L529.15,377.897Z" style="fill:none;fill-rule:nonzero;stroke:rgb(35,35,35);stroke-width:1.5px;"/>
        <path d="M246.174,376.083L246.174,337.769L324.249,292.308L368.522,337.865L360.069,366.848L246.174,376.083Z" style="fill:none;fill-rule:nonzero;stroke:rgb(35,35,35);stroke-width:1.5px;"/>
        <path d="M448.551,352.361L393.971,325.874L415.822,276.104L448.073,282.72L470.116,316.786L468.074,332.507L448.551,352.361Z" style="fill:none;fill-rule:nonzero;stroke:rgb(35,35,35);stroke-width:1.5px;"/>
        <path d="M470.116,316.786L448.073,282.72L478.123,259.347L506.836,275.427L510.944,292.099L470.116,316.786Z" style="fill:none;fill-rule:nonzero;stroke:rgb(35,35,35);stroke-width:1.5px;"/>
        <path d="M506.836,275.427L478.123,259.347L474.961,219.511L542.748,230.809L506.836,275.427Z" style="fill:none;fill-rule:nonzero;stroke:rgb(35,35,35);stroke-width:1.5px;"/>
        <path d="M468.532,475.653L478.18,403.291L525.95,386.431L581.412,475.653L468.532,475.653Z" style="fill:none;fill-rule:nonzero;stroke:rgb(35,35,35);stroke-width:1.5px;"/>
        <path d="M315.688,475.653L369.261,393.718L401.853,406.755L427.814,475.653L315.688,475.653Z" style="fill:none;fill-rule:nonzero;stroke:rgb(35,35,35);stroke-width:1.5px;"/>
        <path d="M427.814,475.653L401.853,406.755L451.345,381.235L478.18,403.291L468.532,475.653L427.814,475.653Z" style="fill:none;fill-rule:nonzero;stroke:rgb(35,35,35);stroke-width:1.5px;"/>
    </g>
    <g id="Inner-TIN-dots" serif:id="Inner TIN dots">
        <path d="M323.982,204.532C323.982,210.747 318.936,215.793 312.721,215.793C306.506,215.793 301.461,210.747 301.461,204.532C301.461,198.317 306.506,193.272 312.721,193.272C318.936,193.272 323.982,198.317 323.982,204.532Z"/>
        <path d="M376.54,143.888C376.54,150.103 371.495,155.149 365.28,155.149C359.065,155.149 354.019,150.103 354.019,143.888C354.019,137.673 359.065,132.627 365.28,132.627C371.495,132.627 376.54,137.673 376.54,143.888Z"/>
        <path d="M450.122,185.126C450.122,191.341 445.077,196.387 438.862,196.387C432.647,196.387 427.601,191.341 427.601,185.126C427.601,178.911 432.647,173.865 438.862,173.865C445.077,173.865 450.122,178.911 450.122,185.126Z"/>
        <path d="M521.278,202.915C521.278,209.13 516.233,214.176 510.018,214.176C503.803,214.176 498.757,209.13 498.757,202.915C498.757,196.7 503.803,191.655 510.018,191.655C516.233,191.655 521.278,196.7 521.278,202.915Z"/>
        <path d="M547.153,273.263C547.153,279.478 542.108,284.523 535.893,284.523C529.678,284.523 524.632,279.478 524.632,273.263C524.632,267.048 529.678,262.002 535.893,262.002C542.108,262.002 547.153,267.048 547.153,273.263Z"/>
        <path d="M463.06,250.622C463.06,256.837 458.014,261.883 451.799,261.883C445.584,261.883 440.538,256.837 440.538,250.622C440.538,244.407 445.584,239.361 451.799,239.361C458.014,239.361 463.06,244.407 463.06,250.622Z"/>
        <path d="M390.287,211.81C390.287,218.025 385.241,223.07 379.026,223.07C372.811,223.07 367.765,218.025 367.765,211.81C367.765,205.595 372.811,200.549 379.026,200.549C385.241,200.549 390.287,205.595 390.287,211.81Z"/>
        <path d="M383.818,284.583C383.818,290.798 378.772,295.844 372.557,295.844C366.342,295.844 361.296,290.798 361.296,284.583C361.296,278.368 366.342,273.322 372.557,273.322C378.772,273.322 383.818,278.368 383.818,284.583Z"/>
        <path d="M423.439,368.676C423.439,374.891 418.393,379.937 412.178,379.937C405.963,379.937 400.917,374.891 400.917,368.676C400.917,362.462 405.963,357.416 412.178,357.416C418.393,357.416 423.439,362.462 423.439,368.676Z"/>
        <path d="M498.638,361.399C498.638,367.614 493.592,372.66 487.377,372.66C481.162,372.66 476.116,367.614 476.116,361.399C476.116,355.184 481.162,350.138 487.377,350.138C493.592,350.138 498.638,355.184 498.638,361.399Z"/>
        <path d="M512.384,321.778C512.384,327.993 507.338,333.039 501.123,333.039C494.908,333.039 489.863,327.993 489.863,321.778C489.863,315.563 494.908,310.517 501.123,310.517C507.338,310.517 512.384,315.563 512.384,321.778Z"/>
        <path d="M559.282,337.141C559.282,343.356 554.236,348.402 548.022,348.402C541.807,348.402 536.761,343.356 536.761,337.141C536.761,330.926 541.807,325.881 548.022,325.881C554.236,325.881 559.282,330.926 559.282,337.141Z"/>
        <path d="M326.408,340.376C326.408,346.591 321.362,351.636 315.147,351.636C308.932,351.636 303.886,346.591 303.886,340.376C303.886,334.161 308.932,329.115 315.147,329.115C321.362,329.115 326.408,334.161 326.408,340.376Z"/>
        <path d="M450.122,313.692C450.122,319.907 445.077,324.953 438.862,324.953C432.647,324.953 427.601,319.907 427.601,313.692C427.601,307.477 432.647,302.432 438.862,302.432C445.077,302.432 450.122,307.477 450.122,313.692Z"/>
        <path d="M491.361,287.009C491.361,293.224 486.315,298.269 480.1,298.269C473.885,298.269 468.839,293.224 468.839,287.009C468.839,280.794 473.885,275.748 480.1,275.748C486.315,275.748 491.361,280.794 491.361,287.009Z"/>
        <path d="M514.001,246.579C514.001,252.794 508.955,257.84 502.74,257.84C496.525,257.84 491.48,252.794 491.48,246.579C491.48,240.364 496.525,235.318 502.74,235.318C508.955,235.318 514.001,240.364 514.001,246.579Z"/>
        <path d="M450.122,420.426C450.122,426.641 445.077,431.687 438.862,431.687C432.647,431.687 427.601,426.641 427.601,420.426C427.601,414.211 432.647,409.166 438.862,409.166C445.077,409.166 450.122,414.211 450.122,420.426Z"/>
    </g>
    <g id="Outer-TIN-dots" serif:id="Outer TIN dots">
        <path d="M313.47,130.951C313.47,137.165 308.425,142.211 302.21,142.211C295.995,142.211 290.949,137.165 290.949,130.951C290.949,124.736 295.995,119.69 302.21,119.69C308.425,119.69 313.47,124.736 313.47,130.951Z" style="stroke:rgb(45,231,231);stroke-width:5px;stroke-linecap:butt;stroke-linejoin:round;stroke-miterlimit:2;"/>
        <path d="M410.501,99.415C410.501,105.63 405.456,110.676 399.241,110.676C393.026,110.676 387.98,105.63 387.98,99.415C387.98,93.201 393.026,88.155 399.241,88.155C405.456,88.155 410.501,93.201 410.501,99.415Z"/>
        <path d="M527.747,107.501C527.747,113.716 522.701,118.762 516.486,118.762C510.272,118.762 505.226,113.716 505.226,107.501C505.226,101.286 510.272,96.241 516.486,96.241C522.701,96.241 527.747,101.286 527.747,107.501Z"/>
        <path d="M590.817,184.318C590.817,190.533 585.772,195.578 579.557,195.578C573.342,195.578 568.296,190.533 568.296,184.318C568.296,178.103 573.342,173.057 579.557,173.057C585.772,173.057 590.817,178.103 590.817,184.318Z"/>
        <path d="M606.989,276.497C606.989,282.712 601.943,287.758 595.728,287.758C589.514,287.758 584.468,282.712 584.468,276.497C584.468,270.282 589.514,265.236 595.728,265.236C601.943,265.236 606.989,270.282 606.989,276.497Z"/>
        <path d="M289.213,276.497C289.213,282.712 284.167,287.758 277.952,287.758C271.737,287.758 266.691,282.712 266.691,276.497C266.691,270.282 271.737,265.236 277.952,265.236C284.167,265.236 289.213,270.282 289.213,276.497Z"/>
        <path d="M582.731,392.934C582.731,399.149 577.686,404.195 571.471,404.195C565.256,404.195 560.21,399.149 560.21,392.934C560.21,386.719 565.256,381.674 571.471,381.674C577.686,381.674 582.731,386.719 582.731,392.934Z"/>
        <path d="M522.896,430.129C522.896,436.344 517.85,441.39 511.635,441.39C505.42,441.39 500.374,436.344 500.374,430.129C500.374,423.915 505.42,418.869 511.635,418.869C517.85,418.869 522.896,423.915 522.896,430.129Z"/>
        <path d="M394.33,441.45C394.33,447.665 389.284,452.71 383.069,452.71C376.854,452.71 371.808,447.665 371.808,441.45C371.808,435.235 376.854,430.189 383.069,430.189C389.284,430.189 394.33,435.235 394.33,441.45Z"/>
        <path d="M331.259,400.212C331.259,406.427 326.214,411.472 319.999,411.472C313.784,411.472 308.738,406.427 308.738,400.212C308.738,393.997 313.784,388.951 319.999,388.951C326.214,388.951 331.259,393.997 331.259,400.212Z"/>
    </g>
    <path d="M319.999,400.212L383.069,441.39L511.635,430.129L571.471,392.934L595.728,276.497L579.557,184.318L516.486,107.501L399.241,99.415L302.21,130.951L277.952,276.497L319.999,400.212Z" style="fill:none;stroke:black;stroke-width:6px;stroke-linecap:butt;stroke-linejoin:miter;stroke-miterlimit:1;"/>
    <g id="TIN-Labels" serif:id="TIN Labels">
        <rect x="73" y="298.37" width="126.182" height="56.236" style="fill:rgb(205,255,254);"/>
        <rect x="288.356" y="1.315" width="338.182" height="56.236" style="fill:rgb(205,255,254);"/>
        <g>
            <path d="M200.233,129.925L279.5,129.925" style="fill:none;"/>
            <path d="M261.5,120.925L279.5,129.925L261.5,138.925L261.5,120.925Z" style="fill:rgb(38,38,38);"/>
            <path d="M200.233,129.925L265.1,129.925" style="fill:none;stroke:rgb(38,38,38);stroke-width:4px;stroke-linecap:butt;stroke-linejoin:round;stroke-miterlimit:1.5;stroke-dasharray:4,4;"/>
        </g>
        <g>
            <path d="M395.856,57.552L395.856,149.354" style="fill:none;"/>
            <path d="M404.856,131.354L395.856,149.354L386.856,131.354L404.856,131.354Z" style="fill:rgb(38,38,38);"/>
            <path d="M395.856,57.552L395.856,134.954" style="fill:none;stroke:rgb(38,38,38);stroke-width:4px;stroke-linecap:butt;stroke-linejoin:round;stroke-miterlimit:1.5;stroke-dasharray:4,4;"/>
        </g>
        <path d="M337.65,220.074L357.5,216.762L348.239,234.629L337.65,220.074Z" style="fill:rgb(38,38,38);"/>
        <path d="M202.233,251.458C262.267,250.483 309.569,248.347 345.855,225.234" style="fill:none;stroke:rgb(38,38,38);stroke-width:4px;stroke-linecap:butt;stroke-linejoin:round;stroke-miterlimit:1.5;stroke-dasharray:4,4;"/>
        <path d="M321.974,421.697L342,419.706L331.577,436.922L321.974,421.697Z" style="fill:rgb(38,38,38);"/>
        <path d="M206,457.248C256.237,457.966 288.667,452.077 329.82,427.389" style="fill:none;stroke:rgb(38,38,38);stroke-width:4px;stroke-linecap:butt;stroke-linejoin:round;stroke-miterlimit:1.5;stroke-dasharray:4,4;"/>
        <path d="M305.135,303.115L325.255,303.573L312.817,319.394L305.135,303.115Z"/>
        <path d="M206.182,328.806C250.655,327.339 271.564,327.943 312.232,309.718" style="fill:none;stroke:black;stroke-width:4px;stroke-linecap:butt;stroke-linejoin:round;stroke-miterlimit:1.5;stroke-dasharray:4,4;"/>
        <g transform="matrix(1,0,0,1,-1567.75,-93.7585)">
            <g transform="matrix(44,0,0,44,1574.24,537.012)">
                <path d="M0.507,-0.54C0.507,-0.523 0.504,-0.506 0.499,-0.489C0.494,-0.472 0.486,-0.456 0.475,-0.441C0.464,-0.426 0.451,-0.412 0.434,-0.401C0.417,-0.39 0.398,-0.381 0.375,-0.375L0.375,-0.371C0.395,-0.368 0.414,-0.362 0.433,-0.354C0.451,-0.346 0.467,-0.335 0.481,-0.321C0.495,-0.307 0.506,-0.29 0.515,-0.27C0.524,-0.25 0.528,-0.226 0.528,-0.199C0.528,-0.163 0.521,-0.132 0.506,-0.106C0.491,-0.079 0.471,-0.058 0.447,-0.041C0.422,-0.024 0.394,-0.012 0.363,-0.004C0.332,0.004 0.3,0.008 0.267,0.008L0.227,0.008C0.212,0.008 0.196,0.008 0.179,0.007C0.162,0.006 0.146,0.004 0.129,0.003C0.112,0.001 0.098,-0.002 0.085,-0.005L0.085,-0.694C0.11,-0.698 0.138,-0.701 0.171,-0.704C0.204,-0.707 0.239,-0.708 0.278,-0.708C0.304,-0.708 0.331,-0.706 0.358,-0.702C0.385,-0.697 0.409,-0.689 0.431,-0.677C0.453,-0.664 0.471,-0.647 0.486,-0.625C0.5,-0.603 0.507,-0.575 0.507,-0.54ZM0.275,-0.064C0.296,-0.064 0.317,-0.067 0.337,-0.072C0.357,-0.077 0.375,-0.085 0.39,-0.096C0.405,-0.107 0.418,-0.12 0.427,-0.136C0.436,-0.152 0.44,-0.171 0.44,-0.193C0.44,-0.22 0.435,-0.242 0.424,-0.259C0.413,-0.276 0.398,-0.289 0.381,-0.298C0.363,-0.307 0.343,-0.314 0.321,-0.317C0.299,-0.32 0.277,-0.322 0.255,-0.322L0.168,-0.322L0.168,-0.071C0.173,-0.07 0.179,-0.069 0.188,-0.068C0.197,-0.067 0.206,-0.067 0.216,-0.066C0.226,-0.065 0.236,-0.065 0.247,-0.065C0.258,-0.064 0.267,-0.064 0.275,-0.064ZM0.22,-0.392C0.231,-0.392 0.245,-0.392 0.261,-0.393C0.277,-0.394 0.29,-0.395 0.301,-0.396C0.317,-0.401 0.332,-0.408 0.346,-0.416C0.36,-0.423 0.373,-0.432 0.384,-0.443C0.395,-0.453 0.403,-0.465 0.41,-0.479C0.416,-0.492 0.419,-0.507 0.419,-0.523C0.419,-0.545 0.415,-0.563 0.407,-0.578C0.398,-0.592 0.387,-0.603 0.373,-0.612C0.359,-0.621 0.343,-0.627 0.325,-0.631C0.307,-0.634 0.289,-0.636 0.27,-0.636C0.248,-0.636 0.228,-0.636 0.21,-0.635C0.191,-0.634 0.177,-0.632 0.168,-0.63L0.168,-0.392L0.22,-0.392Z" style="fill-rule:nonzero;"/>
            </g>
            <g transform="matrix(44,0,0,44,1599.94,537.012)">
                <path d="M0.157,-0.07C0.182,-0.066 0.205,-0.064 0.228,-0.064C0.27,-0.064 0.299,-0.072 0.316,-0.089C0.333,-0.105 0.341,-0.128 0.341,-0.158C0.341,-0.185 0.333,-0.207 0.317,-0.224C0.3,-0.241 0.272,-0.25 0.231,-0.25C0.22,-0.25 0.207,-0.25 0.194,-0.249C0.181,-0.248 0.168,-0.246 0.157,-0.243L0.157,-0.07ZM0.157,-0.309C0.173,-0.312 0.188,-0.314 0.203,-0.315C0.218,-0.316 0.232,-0.316 0.245,-0.316C0.279,-0.316 0.308,-0.312 0.331,-0.305C0.354,-0.297 0.372,-0.286 0.386,-0.273C0.4,-0.26 0.41,-0.244 0.416,-0.226C0.421,-0.207 0.424,-0.188 0.424,-0.167C0.424,-0.106 0.407,-0.062 0.374,-0.035C0.34,-0.008 0.285,0.006 0.21,0.006C0.167,0.006 0.123,0.004 0.077,-0L0.077,-0.5L0.157,-0.5L0.157,-0.309ZM0.503,-0.5L0.583,-0.5L0.583,-0L0.503,-0L0.503,-0.5Z" style="fill-rule:nonzero;"/>
            </g>
            <g transform="matrix(44,0,0,44,1628.98,537.012)">
                <path d="M0.378,-0.43L0.157,-0.43L0.157,-0L0.077,-0L0.077,-0.5L0.458,-0.5L0.458,-0L0.378,-0L0.378,-0.43Z" style="fill-rule:nonzero;"/>
            </g>
            <g transform="matrix(44,0,0,44,1652.52,537.012)">
                <path d="M0.224,-0.176L0.252,-0.08L0.257,-0.08L0.279,-0.177L0.376,-0.5L0.457,-0.5L0.309,-0.051C0.298,-0.018 0.286,0.013 0.276,0.044C0.265,0.075 0.252,0.102 0.239,0.126C0.226,0.15 0.211,0.169 0.194,0.184C0.177,0.198 0.158,0.205 0.136,0.205C0.112,0.205 0.092,0.202 0.077,0.195L0.091,0.126C0.1,0.129 0.108,0.131 0.116,0.131C0.135,0.131 0.153,0.121 0.17,0.102C0.187,0.082 0.202,0.048 0.213,-0L0.012,-0.5L0.104,-0.5L0.224,-0.176Z" style="fill-rule:nonzero;"/>
            </g>
            <g transform="matrix(44,0,0,44,1673.02,537.012)">
                <path d="M0.203,-0.225L0.157,-0.225L0.157,-0L0.077,-0L0.077,-0.5L0.157,-0.5L0.157,-0.274L0.2,-0.288L0.36,-0.5L0.447,-0.5L0.292,-0.299L0.25,-0.266L0.302,-0.226L0.469,-0L0.37,-0L0.203,-0.225Z" style="fill-rule:nonzero;"/>
            </g>
            <g transform="matrix(44,0,0,44,1694.06,537.012)">
                <path d="M0.346,-0.43L0.201,-0.43C0.199,-0.402 0.197,-0.372 0.195,-0.34C0.193,-0.307 0.19,-0.275 0.186,-0.243C0.182,-0.21 0.177,-0.179 0.17,-0.15C0.163,-0.12 0.155,-0.094 0.145,-0.071C0.134,-0.048 0.122,-0.03 0.107,-0.017C0.092,-0.003 0.074,0.004 0.053,0.004C0.04,0.004 0.029,0.003 0.02,0.002C0.011,0.001 0.002,-0.002 -0.005,-0.005L0.007,-0.072C0.015,-0.069 0.024,-0.068 0.033,-0.068C0.046,-0.068 0.058,-0.074 0.069,-0.085C0.08,-0.096 0.089,-0.118 0.097,-0.15C0.105,-0.181 0.112,-0.225 0.117,-0.281C0.122,-0.337 0.126,-0.41 0.128,-0.5L0.426,-0.5L0.426,-0L0.346,-0L0.346,-0.43Z" style="fill-rule:nonzero;"/>
            </g>
            <g transform="matrix(44,0,0,44,1716.19,537.012)">
                <path d="M0.069,-0.463C0.094,-0.478 0.124,-0.49 0.158,-0.497C0.191,-0.504 0.226,-0.508 0.263,-0.508C0.298,-0.508 0.326,-0.503 0.347,-0.494C0.368,-0.485 0.384,-0.472 0.395,-0.458C0.406,-0.443 0.413,-0.426 0.417,-0.408C0.42,-0.39 0.422,-0.372 0.422,-0.354C0.422,-0.314 0.421,-0.275 0.419,-0.237C0.417,-0.199 0.416,-0.163 0.416,-0.129C0.416,-0.104 0.417,-0.081 0.419,-0.059C0.421,-0.037 0.425,-0.017 0.43,0.002L0.371,0.002L0.35,-0.068L0.345,-0.068C0.339,-0.059 0.332,-0.049 0.323,-0.041C0.314,-0.032 0.303,-0.024 0.29,-0.017C0.277,-0.01 0.263,-0.004 0.246,0.001C0.229,0.006 0.21,0.008 0.189,0.008C0.168,0.008 0.148,0.005 0.13,-0.002C0.111,-0.009 0.095,-0.018 0.082,-0.031C0.069,-0.043 0.058,-0.058 0.051,-0.075C0.043,-0.092 0.039,-0.112 0.039,-0.134C0.039,-0.163 0.045,-0.188 0.057,-0.208C0.069,-0.227 0.086,-0.243 0.108,-0.255C0.129,-0.266 0.155,-0.275 0.186,-0.28C0.216,-0.285 0.249,-0.287 0.286,-0.287L0.314,-0.287C0.323,-0.287 0.332,-0.286 0.341,-0.285C0.343,-0.305 0.344,-0.323 0.344,-0.339C0.344,-0.376 0.337,-0.401 0.322,-0.416C0.307,-0.431 0.281,-0.438 0.242,-0.438C0.231,-0.438 0.219,-0.437 0.206,-0.436C0.193,-0.434 0.179,-0.432 0.166,-0.429C0.152,-0.426 0.139,-0.422 0.127,-0.418C0.114,-0.413 0.103,-0.408 0.094,-0.403L0.069,-0.463ZM0.211,-0.062C0.23,-0.062 0.246,-0.065 0.261,-0.07C0.276,-0.075 0.288,-0.081 0.299,-0.089C0.31,-0.096 0.319,-0.105 0.326,-0.114C0.333,-0.123 0.338,-0.132 0.341,-0.141L0.341,-0.224C0.332,-0.225 0.322,-0.225 0.313,-0.226C0.303,-0.226 0.293,-0.226 0.284,-0.226C0.263,-0.226 0.243,-0.225 0.224,-0.223C0.204,-0.22 0.187,-0.216 0.172,-0.21C0.157,-0.203 0.145,-0.195 0.136,-0.184C0.127,-0.173 0.122,-0.159 0.122,-0.142C0.122,-0.119 0.13,-0.099 0.147,-0.085C0.164,-0.07 0.185,-0.062 0.211,-0.062Z" style="fill-rule:nonzero;"/>
            </g>
            <g transform="matrix(44,0,0,44,1738.01,537.012)">
                <path d="M0.326,-0.207L0.249,-0.195L0.117,-0L0.02,-0L0.14,-0.171L0.18,-0.208C0.145,-0.213 0.116,-0.227 0.092,-0.25C0.067,-0.273 0.055,-0.303 0.055,-0.342C0.055,-0.372 0.06,-0.398 0.071,-0.419C0.081,-0.44 0.096,-0.458 0.115,-0.472C0.134,-0.486 0.157,-0.496 0.184,-0.503C0.211,-0.509 0.241,-0.512 0.274,-0.512C0.299,-0.512 0.322,-0.51 0.343,-0.507C0.364,-0.504 0.385,-0.5 0.406,-0.496L0.406,-0L0.326,-0L0.326,-0.207ZM0.326,-0.432C0.317,-0.435 0.308,-0.438 0.297,-0.44C0.286,-0.441 0.277,-0.442 0.269,-0.442C0.226,-0.442 0.194,-0.434 0.172,-0.419C0.149,-0.404 0.138,-0.379 0.138,-0.346C0.138,-0.316 0.15,-0.293 0.174,-0.277C0.197,-0.26 0.228,-0.252 0.267,-0.252L0.278,-0.252C0.282,-0.252 0.288,-0.252 0.295,-0.253C0.302,-0.253 0.313,-0.253 0.326,-0.254L0.326,-0.432Z" style="fill-rule:nonzero;"/>
            </g>
            <g transform="matrix(44,0,0,44,1578.03,586.248)">
                <path d="M0.049,-0.25C0.049,-0.335 0.068,-0.4 0.106,-0.445C0.143,-0.49 0.197,-0.512 0.268,-0.512C0.305,-0.512 0.338,-0.506 0.366,-0.494C0.393,-0.481 0.416,-0.464 0.434,-0.441C0.452,-0.418 0.465,-0.39 0.474,-0.358C0.483,-0.325 0.487,-0.289 0.487,-0.25C0.487,-0.165 0.468,-0.1 0.431,-0.056C0.393,-0.011 0.339,0.012 0.268,0.012C0.231,0.012 0.198,0.006 0.171,-0.007C0.143,-0.019 0.12,-0.037 0.102,-0.06C0.084,-0.083 0.071,-0.11 0.062,-0.143C0.053,-0.175 0.049,-0.211 0.049,-0.25ZM0.132,-0.25C0.132,-0.225 0.135,-0.2 0.14,-0.177C0.145,-0.154 0.152,-0.133 0.163,-0.116C0.174,-0.099 0.188,-0.085 0.205,-0.074C0.222,-0.063 0.243,-0.058 0.268,-0.058C0.359,-0.057 0.404,-0.121 0.404,-0.25C0.404,-0.276 0.402,-0.301 0.397,-0.324C0.392,-0.347 0.384,-0.368 0.373,-0.385C0.362,-0.402 0.348,-0.416 0.331,-0.427C0.314,-0.437 0.293,-0.442 0.268,-0.442C0.177,-0.443 0.132,-0.379 0.132,-0.25Z" style="fill-rule:nonzero;"/>
            </g>
            <g transform="matrix(44,0,0,44,1601.61,586.248)">
                <path d="M0.123,-0.411C0.145,-0.443 0.169,-0.466 0.196,-0.479C0.223,-0.492 0.256,-0.498 0.296,-0.498C0.357,-0.498 0.405,-0.478 0.438,-0.438C0.47,-0.398 0.487,-0.339 0.487,-0.261C0.487,-0.171 0.468,-0.103 0.43,-0.057C0.391,-0.011 0.338,0.012 0.269,0.012C0.196,0.012 0.141,-0.013 0.104,-0.064C0.067,-0.115 0.049,-0.194 0.049,-0.303C0.049,-0.36 0.052,-0.409 0.058,-0.45C0.063,-0.491 0.072,-0.525 0.083,-0.553C0.094,-0.581 0.107,-0.603 0.123,-0.62C0.138,-0.637 0.156,-0.65 0.176,-0.66C0.195,-0.669 0.217,-0.676 0.24,-0.68C0.263,-0.684 0.288,-0.687 0.315,-0.69C0.35,-0.693 0.377,-0.697 0.397,-0.702C0.416,-0.706 0.432,-0.714 0.444,-0.725L0.453,-0.653C0.446,-0.647 0.439,-0.642 0.431,-0.638C0.423,-0.634 0.413,-0.631 0.402,-0.628C0.391,-0.625 0.377,-0.623 0.362,-0.621C0.346,-0.619 0.328,-0.617 0.307,-0.616C0.278,-0.614 0.253,-0.611 0.232,-0.606C0.21,-0.6 0.191,-0.591 0.176,-0.577C0.16,-0.562 0.148,-0.542 0.139,-0.516C0.13,-0.489 0.123,-0.454 0.12,-0.411L0.123,-0.411ZM0.132,-0.249C0.132,-0.224 0.135,-0.199 0.14,-0.176C0.145,-0.153 0.154,-0.132 0.165,-0.115C0.175,-0.097 0.19,-0.083 0.207,-0.073C0.224,-0.063 0.245,-0.058 0.268,-0.058C0.314,-0.058 0.348,-0.075 0.371,-0.108C0.393,-0.14 0.404,-0.189 0.404,-0.254C0.404,-0.279 0.402,-0.303 0.397,-0.324C0.392,-0.345 0.385,-0.364 0.375,-0.38C0.365,-0.395 0.352,-0.407 0.337,-0.416C0.322,-0.424 0.303,-0.428 0.282,-0.428C0.23,-0.429 0.192,-0.413 0.168,-0.383C0.144,-0.352 0.132,-0.307 0.132,-0.249Z" style="fill-rule:nonzero;"/>
            </g>
            <g transform="matrix(44,0,0,44,1625.2,586.248)">
                <path d="M0.049,-0.25C0.049,-0.335 0.068,-0.4 0.106,-0.445C0.143,-0.49 0.197,-0.512 0.268,-0.512C0.305,-0.512 0.338,-0.506 0.366,-0.494C0.393,-0.481 0.416,-0.464 0.434,-0.441C0.452,-0.418 0.465,-0.39 0.474,-0.358C0.483,-0.325 0.487,-0.289 0.487,-0.25C0.487,-0.165 0.468,-0.1 0.431,-0.056C0.393,-0.011 0.339,0.012 0.268,0.012C0.231,0.012 0.198,0.006 0.171,-0.007C0.143,-0.019 0.12,-0.037 0.102,-0.06C0.084,-0.083 0.071,-0.11 0.062,-0.143C0.053,-0.175 0.049,-0.211 0.049,-0.25ZM0.132,-0.25C0.132,-0.225 0.135,-0.2 0.14,-0.177C0.145,-0.154 0.152,-0.133 0.163,-0.116C0.174,-0.099 0.188,-0.085 0.205,-0.074C0.222,-0.063 0.243,-0.058 0.268,-0.058C0.359,-0.057 0.404,-0.121 0.404,-0.25C0.404,-0.276 0.402,-0.301 0.397,-0.324C0.392,-0.347 0.384,-0.368 0.373,-0.385C0.362,-0.402 0.348,-0.416 0.331,-0.427C0.314,-0.437 0.293,-0.442 0.268,-0.442C0.177,-0.443 0.132,-0.379 0.132,-0.25Z" style="fill-rule:nonzero;"/>
            </g>
            <g transform="matrix(44,0,0,44,1648.78,586.248)">
                <path d="M0.346,-0.43L0.201,-0.43C0.199,-0.402 0.197,-0.372 0.195,-0.34C0.193,-0.307 0.19,-0.275 0.186,-0.243C0.182,-0.21 0.177,-0.179 0.17,-0.15C0.163,-0.12 0.155,-0.094 0.145,-0.071C0.134,-0.048 0.122,-0.03 0.107,-0.017C0.092,-0.003 0.074,0.004 0.053,0.004C0.04,0.004 0.029,0.003 0.02,0.002C0.011,0.001 0.002,-0.002 -0.005,-0.005L0.007,-0.072C0.015,-0.069 0.024,-0.068 0.033,-0.068C0.046,-0.068 0.058,-0.074 0.069,-0.085C0.08,-0.096 0.089,-0.118 0.097,-0.15C0.105,-0.181 0.112,-0.225 0.117,-0.281C0.122,-0.337 0.126,-0.41 0.128,-0.5L0.426,-0.5L0.426,-0L0.346,-0L0.346,-0.43Z" style="fill-rule:nonzero;"/>
            </g>
            <g transform="matrix(44,0,0,44,1670.91,586.248)">
                <path d="M0.049,-0.25C0.049,-0.335 0.068,-0.4 0.106,-0.445C0.143,-0.49 0.197,-0.512 0.268,-0.512C0.305,-0.512 0.338,-0.506 0.366,-0.494C0.393,-0.481 0.416,-0.464 0.434,-0.441C0.452,-0.418 0.465,-0.39 0.474,-0.358C0.483,-0.325 0.487,-0.289 0.487,-0.25C0.487,-0.165 0.468,-0.1 0.431,-0.056C0.393,-0.011 0.339,0.012 0.268,0.012C0.231,0.012 0.198,0.006 0.171,-0.007C0.143,-0.019 0.12,-0.037 0.102,-0.06C0.084,-0.083 0.071,-0.11 0.062,-0.143C0.053,-0.175 0.049,-0.211 0.049,-0.25ZM0.132,-0.25C0.132,-0.225 0.135,-0.2 0.14,-0.177C0.145,-0.154 0.152,-0.133 0.163,-0.116C0.174,-0.099 0.188,-0.085 0.205,-0.074C0.222,-0.063 0.243,-0.058 0.268,-0.058C0.359,-0.057 0.404,-0.121 0.404,-0.25C0.404,-0.276 0.402,-0.301 0.397,-0.324C0.392,-0.347 0.384,-0.368 0.373,-0.385C0.362,-0.402 0.348,-0.416 0.331,-0.427C0.314,-0.437 0.293,-0.442 0.268,-0.442C0.177,-0.443 0.132,-0.379 0.132,-0.25Z" style="fill-rule:nonzero;"/>
            </g>
            <g transform="matrix(44,0,0,44,1694.5,586.248)">
                <path d="M0.129,-0.5L0.129,-0.364C0.129,-0.346 0.13,-0.33 0.132,-0.316C0.134,-0.301 0.138,-0.289 0.144,-0.279C0.15,-0.268 0.159,-0.26 0.17,-0.255C0.181,-0.249 0.196,-0.246 0.215,-0.246C0.245,-0.246 0.27,-0.249 0.289,-0.256C0.308,-0.263 0.323,-0.27 0.333,-0.278L0.333,-0.5L0.413,-0.5L0.413,-0L0.333,-0L0.333,-0.21C0.322,-0.203 0.307,-0.196 0.286,-0.188C0.265,-0.18 0.236,-0.176 0.199,-0.176C0.174,-0.176 0.153,-0.179 0.134,-0.184C0.115,-0.189 0.1,-0.199 0.087,-0.212C0.074,-0.225 0.065,-0.243 0.059,-0.265C0.052,-0.287 0.049,-0.315 0.049,-0.348L0.049,-0.5L0.129,-0.5Z" style="fill-rule:nonzero;"/>
            </g>
            <g transform="matrix(44,0,0,44,1716.06,586.248)">
                <path d="M0.203,-0.225L0.157,-0.225L0.157,-0L0.077,-0L0.077,-0.5L0.157,-0.5L0.157,-0.274L0.2,-0.288L0.36,-0.5L0.447,-0.5L0.292,-0.299L0.25,-0.266L0.302,-0.226L0.469,-0L0.37,-0L0.203,-0.225Z" style="fill-rule:nonzero;"/>
            </g>
            <g transform="matrix(44,0,0,44,1737.09,586.248)">
                <path d="M0.069,-0.463C0.094,-0.478 0.124,-0.49 0.158,-0.497C0.191,-0.504 0.226,-0.508 0.263,-0.508C0.298,-0.508 0.326,-0.503 0.347,-0.494C0.368,-0.485 0.384,-0.472 0.395,-0.458C0.406,-0.443 0.413,-0.426 0.417,-0.408C0.42,-0.39 0.422,-0.372 0.422,-0.354C0.422,-0.314 0.421,-0.275 0.419,-0.237C0.417,-0.199 0.416,-0.163 0.416,-0.129C0.416,-0.104 0.417,-0.081 0.419,-0.059C0.421,-0.037 0.425,-0.017 0.43,0.002L0.371,0.002L0.35,-0.068L0.345,-0.068C0.339,-0.059 0.332,-0.049 0.323,-0.041C0.314,-0.032 0.303,-0.024 0.29,-0.017C0.277,-0.01 0.263,-0.004 0.246,0.001C0.229,0.006 0.21,0.008 0.189,0.008C0.168,0.008 0.148,0.005 0.13,-0.002C0.111,-0.009 0.095,-0.018 0.082,-0.031C0.069,-0.043 0.058,-0.058 0.051,-0.075C0.043,-0.092 0.039,-0.112 0.039,-0.134C0.039,-0.163 0.045,-0.188 0.057,-0.208C0.069,-0.227 0.086,-0.243 0.108,-0.255C0.129,-0.266 0.155,-0.275 0.186,-0.28C0.216,-0.285 0.249,-0.287 0.286,-0.287L0.314,-0.287C0.323,-0.287 0.332,-0.286 0.341,-0.285C0.343,-0.305 0.344,-0.323 0.344,-0.339C0.344,-0.376 0.337,-0.401 0.322,-0.416C0.307,-0.431 0.281,-0.438 0.242,-0.438C0.231,-0.438 0.219,-0.437 0.206,-0.436C0.193,-0.434 0.179,-0.432 0.166,-0.429C0.152,-0.426 0.139,-0.422 0.127,-0.418C0.114,-0.413 0.103,-0.408 0.094,-0.403L0.069,-0.463ZM0.211,-0.062C0.23,-0.062 0.246,-0.065 0.261,-0.07C0.276,-0.075 0.288,-0.081 0.299,-0.089C0.31,-0.096 0.319,-0.105 0.326,-0.114C0.333,-0.123 0.338,-0.132 0.341,-0.141L0.341,-0.224C0.332,-0.225 0.322,-0.225 0.313,-0.226C0.303,-0.226 0.293,-0.226 0.284,-0.226C0.263,-0.226 0.243,-0.225 0.224,-0.223C0.204,-0.22 0.187,-0.216 0.172,-0.21C0.157,-0.203 0.145,-0.195 0.136,-0.184C0.127,-0.173 0.122,-0.159 0.122,-0.142C0.122,-0.119 0.13,-0.099 0.147,-0.085C0.164,-0.07 0.185,-0.062 0.211,-0.062Z" style="fill-rule:nonzero;"/>
            </g>
        </g>
        <path d="M120.027,127.398L121.171,131.314L121.391,131.314L122.271,127.266L128.167,111.162L131.907,111.162L124.119,131.182C123.327,133.265 122.631,135.003 122.029,136.396C121.428,137.789 120.819,138.919 120.203,139.784C119.587,140.649 118.927,141.265 118.223,141.632C117.519,141.999 116.654,142.182 115.627,142.182C114.659,142.182 113.889,142.101 113.317,141.94C112.745,141.779 112.21,141.537 111.711,141.214L112.811,138.178C113.398,138.501 113.941,138.706 114.439,138.794C114.938,138.882 115.393,138.926 115.803,138.926C116.625,138.926 117.314,138.508 117.871,137.672C118.429,136.836 118.913,135.597 119.323,133.954L107.927,111.162L112.151,111.162L120.027,127.398Z" style="fill-rule:nonzero;"/>
        <path d="M135.163,132.15L135.163,129.29L138.243,129.29C138.771,129.29 139.292,129.202 139.805,129.026C140.319,128.85 140.781,128.608 141.191,128.3C141.602,127.992 141.932,127.625 142.181,127.2C142.431,126.775 142.555,126.327 142.555,125.858C142.555,124.714 142.159,123.907 141.367,123.438C140.575,122.969 139.387,122.734 137.803,122.734C136.659,122.734 135.611,122.91 134.657,123.262C133.704,123.614 132.963,123.951 132.435,124.274L131.423,121.546C132.303,121.047 133.337,120.607 134.525,120.226C135.713,119.845 137.129,119.654 138.771,119.654C143.641,119.654 146.075,121.458 146.075,125.066C146.075,126.093 145.745,127.097 145.085,128.08C144.425,129.063 143.479,129.759 142.247,130.17L142.247,130.346C143.978,130.669 145.188,131.285 145.877,132.194C146.567,133.103 146.911,134.306 146.911,135.802C146.911,136.741 146.721,137.606 146.339,138.398C145.958,139.19 145.386,139.879 144.623,140.466C143.861,141.053 142.9,141.515 141.741,141.852C140.583,142.189 139.241,142.358 137.715,142.358C136.219,142.358 134.98,142.226 133.997,141.962C133.015,141.698 132.127,141.375 131.335,140.994L132.347,138.09C133.022,138.471 133.836,138.765 134.789,138.97C135.743,139.175 136.777,139.278 137.891,139.278C139.681,139.278 141.045,138.97 141.983,138.354C142.922,137.738 143.391,136.799 143.391,135.538C143.391,134.482 142.951,133.653 142.071,133.052C141.191,132.451 139.739,132.15 137.715,132.15L135.163,132.15Z" style="fill-rule:nonzero;"/>
        <path d="M168.515,140.202C167.635,140.906 166.528,141.463 165.193,141.874C163.859,142.285 162.443,142.49 160.947,142.49C159.275,142.49 157.823,142.219 156.591,141.676C155.359,141.133 154.347,140.356 153.555,139.344C152.763,138.332 152.177,137.122 151.795,135.714C151.414,134.306 151.223,132.722 151.223,130.962C151.223,127.207 152.059,124.347 153.731,122.382C155.403,120.417 157.794,119.434 160.903,119.434C161.901,119.434 162.898,119.544 163.895,119.764C164.893,119.984 165.787,120.402 166.579,121.018C167.371,121.634 168.017,122.507 168.515,123.636C169.014,124.765 169.263,126.254 169.263,128.102C169.263,129.07 169.175,130.141 168.999,131.314L154.875,131.314C154.875,132.605 155.007,133.749 155.271,134.746C155.535,135.743 155.946,136.587 156.503,137.276C157.061,137.965 157.787,138.493 158.681,138.86C159.576,139.227 160.669,139.41 161.959,139.41C162.957,139.41 163.954,139.234 164.951,138.882C165.949,138.53 166.697,138.119 167.195,137.65L168.515,140.202ZM160.947,122.514C159.217,122.514 157.831,122.969 156.789,123.878C155.748,124.787 155.125,126.342 154.919,128.542L165.831,128.542C165.831,126.313 165.406,124.751 164.555,123.856C163.705,122.961 162.502,122.514 160.947,122.514Z" style="fill-rule:nonzero;"/>
        <path d="M186.643,123.042L180.263,123.042C180.175,124.274 180.087,125.601 179.999,127.024C179.911,128.447 179.779,129.869 179.603,131.292C179.427,132.715 179.193,134.079 178.899,135.384C178.606,136.689 178.232,137.841 177.777,138.838C177.323,139.835 176.765,140.635 176.105,141.236C175.445,141.837 174.661,142.138 173.751,142.138C173.194,142.138 172.71,142.109 172.299,142.05C171.889,141.991 171.522,141.889 171.199,141.742L171.727,138.794C172.079,138.911 172.461,138.97 172.871,138.97C173.458,138.97 173.986,138.721 174.455,138.222C174.925,137.723 175.335,136.777 175.687,135.384C176.039,133.991 176.333,132.062 176.567,129.598C176.802,127.134 176.963,123.922 177.051,119.962L190.163,119.962L190.163,141.962L186.643,141.962L186.643,123.042Z" style="fill-rule:nonzero;"/>
        <path d="M318.853,42.031L315.201,42.031L315.201,28.611L310.669,29.579L303.013,42.031L298.701,42.031L305.565,31.075L308.249,29.183C307.193,28.948 306.218,28.589 305.323,28.105C304.429,27.621 303.651,27.005 302.991,26.257C302.331,25.509 301.818,24.636 301.451,23.639C301.085,22.641 300.901,21.497 300.901,20.207C300.901,18.417 301.202,16.929 301.803,15.741C302.405,14.553 303.226,13.599 304.267,12.881C305.309,12.162 306.526,11.649 307.919,11.341C309.313,11.033 310.787,10.879 312.341,10.879C313.339,10.879 314.402,10.923 315.531,11.011C316.661,11.099 317.768,11.275 318.853,11.539L318.853,42.031ZM312.165,14.047C311.197,14.047 310.273,14.142 309.393,14.333C308.513,14.523 307.729,14.853 307.039,15.323C306.35,15.792 305.8,16.423 305.389,17.215C304.979,18.007 304.773,19.004 304.773,20.207C304.773,21.321 304.971,22.275 305.367,23.067C305.763,23.859 306.299,24.511 306.973,25.025C307.648,25.538 308.433,25.912 309.327,26.147C310.222,26.381 311.183,26.499 312.209,26.499L315.201,26.499L315.201,14.311C314.791,14.223 314.365,14.157 313.925,14.113C313.485,14.069 312.899,14.047 312.165,14.047Z" style="fill-rule:nonzero;"/>
        <path d="M328.269,20.031L328.269,26.015C328.269,26.807 328.313,27.518 328.401,28.149C328.489,28.779 328.665,29.322 328.929,29.777C329.193,30.231 329.575,30.583 330.073,30.833C330.572,31.082 331.232,31.207 332.053,31.207C333.373,31.207 334.459,31.06 335.309,30.767C336.16,30.473 336.805,30.151 337.245,29.799L337.245,20.031L340.765,20.031L340.765,42.031L337.245,42.031L337.245,32.791C336.776,33.084 336.079,33.407 335.155,33.759C334.231,34.111 332.963,34.287 331.349,34.287C330.264,34.287 329.311,34.169 328.489,33.935C327.668,33.7 326.979,33.289 326.421,32.703C325.864,32.116 325.446,31.339 325.167,30.371C324.889,29.403 324.749,28.185 324.749,26.719L324.749,20.031L328.269,20.031Z" style="fill-rule:nonzero;"/>
        <path d="M363.601,40.271C362.721,40.975 361.614,41.532 360.279,41.943C358.945,42.353 357.529,42.559 356.033,42.559C354.361,42.559 352.909,42.287 351.677,41.745C350.445,41.202 349.433,40.425 348.641,39.413C347.849,38.401 347.263,37.191 346.881,35.783C346.5,34.375 346.309,32.791 346.309,31.031C346.309,27.276 347.145,24.416 348.817,22.451C350.489,20.485 352.88,19.503 355.989,19.503C356.987,19.503 357.984,19.613 358.981,19.833C359.979,20.053 360.873,20.471 361.665,21.087C362.457,21.703 363.103,22.575 363.601,23.705C364.1,24.834 364.349,26.323 364.349,28.171C364.349,29.139 364.261,30.209 364.085,31.383L349.961,31.383C349.961,32.673 350.093,33.817 350.357,34.815C350.621,35.812 351.032,36.655 351.589,37.345C352.147,38.034 352.873,38.562 353.767,38.929C354.662,39.295 355.755,39.479 357.045,39.479C358.043,39.479 359.04,39.303 360.037,38.951C361.035,38.599 361.783,38.188 362.281,37.719L363.601,40.271ZM356.033,22.583C354.303,22.583 352.917,23.037 351.875,23.947C350.834,24.856 350.211,26.411 350.005,28.611L360.917,28.611C360.917,26.381 360.492,24.819 359.641,23.925C358.791,23.03 357.588,22.583 356.033,22.583Z" style="fill-rule:nonzero;"/>
        <path d="M383.621,29.007L383.753,26.279L383.621,26.279L381.817,29.095L371.917,42.031L369.893,42.031L369.893,20.031L373.413,20.031L373.413,33.451L373.281,36.047L373.457,36.047L375.173,33.319L385.073,20.031L387.141,20.031L387.141,42.031L383.621,42.031L383.621,29.007ZM374.953,11.143C375.247,12.492 375.753,13.431 376.471,13.959C377.19,14.487 378.019,14.751 378.957,14.751C379.896,14.751 380.732,14.472 381.465,13.915C382.199,13.357 382.697,12.448 382.961,11.187L385.601,12.023C385.337,13.724 384.582,15.029 383.335,15.939C382.089,16.848 380.6,17.303 378.869,17.303C378.077,17.303 377.293,17.2 376.515,16.995C375.738,16.789 375.041,16.481 374.425,16.071C373.809,15.66 373.281,15.132 372.841,14.487C372.401,13.841 372.108,13.079 371.961,12.199L374.953,11.143Z" style="fill-rule:nonzero;"/>
        <path d="M399.461,32.131L397.437,32.131L397.437,42.031L393.917,42.031L393.917,20.031L397.437,20.031L397.437,29.975L399.329,29.359L406.369,20.031L410.197,20.031L403.377,28.875L401.529,30.327L403.817,32.087L411.165,42.031L406.809,42.031L399.461,32.131Z" style="fill-rule:nonzero;"/>
        <path d="M414.597,21.659C415.712,20.984 417.01,20.485 418.491,20.163C419.973,19.84 421.52,19.679 423.133,19.679C424.659,19.679 425.883,19.884 426.807,20.295C427.731,20.705 428.435,21.241 428.919,21.901C429.403,22.561 429.726,23.287 429.887,24.079C430.049,24.871 430.129,25.663 430.129,26.455C430.129,28.215 430.085,29.931 429.997,31.603C429.909,33.275 429.865,34.859 429.865,36.355C429.865,37.44 429.909,38.467 429.997,39.435C430.085,40.403 430.247,41.297 430.481,42.119L427.885,42.119L426.961,39.039L426.741,39.039C426.477,39.449 426.147,39.853 425.751,40.249C425.355,40.645 424.879,40.997 424.321,41.305C423.764,41.613 423.119,41.869 422.385,42.075C421.652,42.28 420.816,42.383 419.877,42.383C418.939,42.383 418.066,42.236 417.259,41.943C416.453,41.649 415.756,41.231 415.169,40.689C414.583,40.146 414.121,39.493 413.783,38.731C413.446,37.968 413.277,37.103 413.277,36.135C413.277,34.844 413.541,33.766 414.069,32.901C414.597,32.035 415.338,31.346 416.291,30.833C417.245,30.319 418.389,29.953 419.723,29.733C421.058,29.513 422.532,29.403 424.145,29.403L425.355,29.403C425.751,29.403 426.155,29.432 426.565,29.491C426.653,28.611 426.697,27.819 426.697,27.115C426.697,25.501 426.375,24.372 425.729,23.727C425.084,23.081 423.911,22.759 422.209,22.759C421.711,22.759 421.175,22.795 420.603,22.869C420.031,22.942 419.445,23.045 418.843,23.177C418.242,23.309 417.67,23.47 417.127,23.661C416.585,23.851 416.108,24.064 415.697,24.299L414.597,21.659ZM420.845,39.303C421.667,39.303 422.4,39.193 423.045,38.973C423.691,38.753 424.248,38.474 424.717,38.137C425.187,37.799 425.575,37.425 425.883,37.015C426.191,36.604 426.419,36.208 426.565,35.827L426.565,32.175C426.155,32.145 425.737,32.123 425.311,32.109C424.886,32.094 424.468,32.087 424.057,32.087C423.148,32.087 422.261,32.138 421.395,32.241C420.53,32.343 419.767,32.534 419.107,32.813C418.447,33.091 417.919,33.473 417.523,33.957C417.127,34.441 416.929,35.049 416.929,35.783C416.929,36.809 417.296,37.653 418.029,38.313C418.763,38.973 419.701,39.303 420.845,39.303Z" style="fill-rule:nonzero;"/>
        <path d="M455.121,51.711C453.772,50.303 452.628,48.755 451.689,47.069C450.751,45.382 449.995,43.651 449.423,41.877C448.851,40.102 448.433,38.313 448.169,36.509C447.905,34.705 447.773,32.981 447.773,31.339C447.773,29.725 447.905,28.024 448.169,26.235C448.433,24.445 448.859,22.649 449.445,20.845C450.032,19.041 450.802,17.273 451.755,15.543C452.709,13.812 453.875,12.199 455.253,10.703L457.365,12.243C456.192,13.739 455.217,15.286 454.439,16.885C453.662,18.483 453.039,20.104 452.569,21.747C452.1,23.389 451.77,25.025 451.579,26.653C451.389,28.281 451.293,29.843 451.293,31.339C451.293,32.747 451.403,34.279 451.623,35.937C451.843,37.594 452.195,39.251 452.679,40.909C453.163,42.566 453.794,44.187 454.571,45.771C455.349,47.355 456.28,48.792 457.365,50.083L455.121,51.711Z" style="fill-rule:nonzero;"/>
        <path d="M459.609,31.031C459.609,27.305 460.438,24.453 462.095,22.473C463.753,20.493 466.136,19.503 469.245,19.503C470.888,19.503 472.318,19.774 473.535,20.317C474.753,20.859 475.757,21.637 476.549,22.649C477.341,23.661 477.928,24.878 478.309,26.301C478.691,27.723 478.881,29.3 478.881,31.031C478.881,34.756 478.053,37.609 476.395,39.589C474.738,41.569 472.355,42.559 469.245,42.559C467.603,42.559 466.173,42.287 464.955,41.745C463.738,41.202 462.733,40.425 461.941,39.413C461.149,38.401 460.563,37.183 460.181,35.761C459.8,34.338 459.609,32.761 459.609,31.031ZM463.261,31.031C463.261,32.145 463.371,33.216 463.591,34.243C463.811,35.269 464.156,36.164 464.625,36.927C465.095,37.689 465.711,38.305 466.473,38.775C467.236,39.244 468.16,39.479 469.245,39.479C473.235,39.508 475.229,36.692 475.229,31.031C475.229,29.887 475.119,28.801 474.899,27.775C474.679,26.748 474.335,25.853 473.865,25.091C473.396,24.328 472.78,23.719 472.017,23.265C471.255,22.81 470.331,22.583 469.245,22.583C465.256,22.553 463.261,25.369 463.261,31.031Z" style="fill-rule:nonzero;"/>
        <path d="M486.449,23.947C487.417,22.539 488.488,21.549 489.661,20.977C490.835,20.405 492.301,20.119 494.061,20.119C496.76,20.119 498.835,20.999 500.287,22.759C501.739,24.519 502.465,27.115 502.465,30.547C502.465,34.507 501.622,37.499 499.935,39.523C498.249,41.547 495.895,42.559 492.873,42.559C489.647,42.559 487.227,41.444 485.613,39.215C484,36.985 483.193,33.48 483.193,28.699C483.193,26.176 483.318,24.02 483.567,22.231C483.817,20.441 484.183,18.931 484.667,17.699C485.151,16.467 485.738,15.484 486.427,14.751C487.117,14.017 487.894,13.438 488.759,13.013C489.625,12.587 490.571,12.287 491.597,12.111C492.624,11.935 493.724,11.788 494.897,11.671C496.423,11.524 497.618,11.355 498.483,11.165C499.349,10.974 500.045,10.629 500.573,10.131L500.969,13.299C500.676,13.563 500.353,13.783 500.001,13.959C499.649,14.135 499.224,14.281 498.725,14.399C498.227,14.516 497.633,14.619 496.943,14.707C496.254,14.795 495.455,14.868 494.545,14.927C493.284,15.015 492.177,15.169 491.223,15.389C490.27,15.609 489.449,16.034 488.759,16.665C488.07,17.295 487.527,18.19 487.131,19.349C486.735,20.507 486.464,22.04 486.317,23.947L486.449,23.947ZM486.845,31.075C486.845,32.189 486.963,33.26 487.197,34.287C487.432,35.313 487.791,36.215 488.275,36.993C488.759,37.77 489.383,38.379 490.145,38.819C490.908,39.259 491.803,39.479 492.829,39.479C494.853,39.479 496.357,38.753 497.339,37.301C498.322,35.849 498.813,33.7 498.813,30.855C498.813,29.74 498.711,28.713 498.505,27.775C498.3,26.836 497.977,26.022 497.537,25.333C497.097,24.643 496.54,24.115 495.865,23.749C495.191,23.382 494.384,23.199 493.445,23.199C491.157,23.169 489.485,23.837 488.429,25.201C487.373,26.565 486.845,28.523 486.845,31.075Z" style="fill-rule:nonzero;"/>
        <path d="M519.845,23.111L513.465,23.111C513.377,24.343 513.289,25.67 513.201,27.093C513.113,28.515 512.981,29.938 512.805,31.361C512.629,32.783 512.395,34.147 512.101,35.453C511.808,36.758 511.434,37.909 510.979,38.907C510.525,39.904 509.967,40.703 509.307,41.305C508.647,41.906 507.863,42.207 506.953,42.207C506.396,42.207 505.912,42.177 505.501,42.119C505.091,42.06 504.724,41.957 504.401,41.811L504.929,38.863C505.281,38.98 505.663,39.039 506.073,39.039C506.66,39.039 507.188,38.789 507.657,38.291C508.127,37.792 508.537,36.846 508.889,35.453C509.241,34.059 509.535,32.131 509.769,29.667C510.004,27.203 510.165,23.991 510.253,20.031L523.365,20.031L523.365,42.031L519.845,42.031L519.845,23.111Z" style="fill-rule:nonzero;"/>
        <path d="M529.789,21.659C530.904,20.984 532.202,20.485 533.683,20.163C535.165,19.84 536.712,19.679 538.325,19.679C539.851,19.679 541.075,19.884 541.999,20.295C542.923,20.705 543.627,21.241 544.111,21.901C544.595,22.561 544.918,23.287 545.079,24.079C545.241,24.871 545.321,25.663 545.321,26.455C545.321,28.215 545.277,29.931 545.189,31.603C545.101,33.275 545.057,34.859 545.057,36.355C545.057,37.44 545.101,38.467 545.189,39.435C545.277,40.403 545.439,41.297 545.673,42.119L543.077,42.119L542.153,39.039L541.933,39.039C541.669,39.449 541.339,39.853 540.943,40.249C540.547,40.645 540.071,40.997 539.513,41.305C538.956,41.613 538.311,41.869 537.577,42.075C536.844,42.28 536.008,42.383 535.069,42.383C534.131,42.383 533.258,42.236 532.451,41.943C531.645,41.649 530.948,41.231 530.361,40.689C529.775,40.146 529.313,39.493 528.975,38.731C528.638,37.968 528.469,37.103 528.469,36.135C528.469,34.844 528.733,33.766 529.261,32.901C529.789,32.035 530.53,31.346 531.483,30.833C532.437,30.319 533.581,29.953 534.915,29.733C536.25,29.513 537.724,29.403 539.337,29.403L540.547,29.403C540.943,29.403 541.347,29.432 541.757,29.491C541.845,28.611 541.889,27.819 541.889,27.115C541.889,25.501 541.567,24.372 540.921,23.727C540.276,23.081 539.103,22.759 537.401,22.759C536.903,22.759 536.367,22.795 535.795,22.869C535.223,22.942 534.637,23.045 534.035,23.177C533.434,23.309 532.862,23.47 532.319,23.661C531.777,23.851 531.3,24.064 530.889,24.299L529.789,21.659ZM536.037,39.303C536.859,39.303 537.592,39.193 538.237,38.973C538.883,38.753 539.44,38.474 539.909,38.137C540.379,37.799 540.767,37.425 541.075,37.015C541.383,36.604 541.611,36.208 541.757,35.827L541.757,32.175C541.347,32.145 540.929,32.123 540.503,32.109C540.078,32.094 539.66,32.087 539.249,32.087C538.34,32.087 537.453,32.138 536.587,32.241C535.722,32.343 534.959,32.534 534.299,32.813C533.639,33.091 533.111,33.473 532.715,33.957C532.319,34.441 532.121,35.049 532.121,35.783C532.121,36.809 532.488,37.653 533.221,38.313C533.955,38.973 534.893,39.303 536.037,39.303Z" style="fill-rule:nonzero;"/>
        <path d="M566.969,40.579C566.089,41.224 565.048,41.715 563.845,42.053C562.643,42.39 561.381,42.559 560.061,42.559C558.36,42.559 556.923,42.287 555.749,41.745C554.576,41.202 553.615,40.425 552.867,39.413C552.119,38.401 551.577,37.183 551.239,35.761C550.902,34.338 550.733,32.761 550.733,31.031C550.733,27.305 551.555,24.453 553.197,22.473C554.84,20.493 557.201,19.503 560.281,19.503C561.689,19.503 562.885,19.613 563.867,19.833C564.85,20.053 565.737,20.368 566.529,20.779L565.517,23.815C564.843,23.433 564.095,23.133 563.273,22.913C562.452,22.693 561.572,22.583 560.633,22.583C556.468,22.583 554.385,25.399 554.385,31.031C554.385,32.145 554.495,33.209 554.715,34.221C554.935,35.233 555.302,36.127 555.815,36.905C556.329,37.682 557.003,38.305 557.839,38.775C558.675,39.244 559.709,39.479 560.941,39.479C561.997,39.479 562.943,39.317 563.779,38.995C564.615,38.672 565.297,38.305 565.825,37.895L566.969,40.579Z" style="fill-rule:nonzero;"/>
        <path d="M585.801,23.111L578.937,23.111L578.937,42.031L575.417,42.031L575.417,23.111L568.553,23.111L568.553,20.031L585.801,20.031L585.801,23.111Z" style="fill-rule:nonzero;"/>
        <path d="M592.797,38.951C593.883,39.127 594.924,39.215 595.921,39.215C597.769,39.215 599.133,38.855 600.013,38.137C600.893,37.418 601.333,36.399 601.333,35.079C601.333,33.905 600.908,32.937 600.057,32.175C599.207,31.412 597.872,31.031 596.053,31.031C595.555,31.031 595.012,31.045 594.425,31.075C593.839,31.104 593.296,31.192 592.797,31.339L592.797,38.951ZM592.797,28.435C593.501,28.317 594.176,28.237 594.821,28.193C595.467,28.149 596.083,28.127 596.669,28.127C598.195,28.127 599.485,28.295 600.541,28.633C601.597,28.97 602.455,29.432 603.115,30.019C603.775,30.605 604.252,31.302 604.545,32.109C604.839,32.915 604.985,33.773 604.985,34.683C604.985,37.352 604.186,39.288 602.587,40.491C600.989,41.693 598.503,42.295 595.129,42.295C593.252,42.295 591.301,42.207 589.277,42.031L589.277,20.031L592.797,20.031L592.797,28.435Z" style="fill-rule:nonzero;"/>
        <path d="M608.637,10.703C609.987,12.111 611.131,13.658 612.069,15.345C613.008,17.031 613.763,18.762 614.335,20.537C614.907,22.311 615.325,24.101 615.589,25.905C615.853,27.709 615.985,29.432 615.985,31.075C615.985,32.688 615.853,34.389 615.589,36.179C615.325,37.968 614.9,39.765 614.313,41.569C613.727,43.373 612.957,45.14 612.003,46.871C611.05,48.601 609.884,50.215 608.505,51.711L606.393,50.171C607.567,48.675 608.549,47.12 609.341,45.507C610.133,43.893 610.757,42.265 611.211,40.623C611.666,38.98 611.989,37.352 612.179,35.739C612.37,34.125 612.465,32.571 612.465,31.075C612.465,29.667 612.348,28.141 612.113,26.499C611.879,24.856 611.519,23.199 611.035,21.527C610.551,19.855 609.928,18.227 609.165,16.643C608.403,15.059 607.479,13.621 606.393,12.331L608.637,10.703Z" style="fill-rule:nonzero;"/>
        <path d="M78.623,231.111C79.738,230.847 80.941,230.671 82.231,230.583C83.522,230.495 84.798,230.451 86.059,230.451C87.409,230.451 88.78,230.583 90.173,230.847C91.567,231.111 92.835,231.595 93.979,232.299C95.123,233.003 96.055,233.971 96.773,235.203C97.492,236.435 97.851,238.004 97.851,239.911C97.851,241.788 97.514,243.372 96.839,244.663C96.165,245.953 95.27,247.002 94.155,247.809C93.041,248.615 91.765,249.195 90.327,249.547C88.89,249.899 87.409,250.075 85.883,250.075L85.157,250.075C84.82,250.075 84.468,250.067 84.101,250.053C83.735,250.038 83.375,250.016 83.023,249.987C82.671,249.957 82.422,249.928 82.275,249.899L82.275,261.603L78.623,261.603L78.623,231.111ZM86.147,233.619C85.385,233.619 84.651,233.633 83.947,233.663C83.243,233.692 82.686,233.765 82.275,233.883L82.275,246.643C82.422,246.701 82.657,246.738 82.979,246.753C83.302,246.767 83.639,246.782 83.991,246.797C84.343,246.811 84.681,246.819 85.003,246.819L85.707,246.819C86.705,246.819 87.695,246.723 88.677,246.533C89.66,246.342 90.547,245.997 91.339,245.499C92.131,245 92.769,244.296 93.253,243.387C93.737,242.477 93.979,241.319 93.979,239.911C93.979,238.708 93.752,237.703 93.297,236.897C92.843,236.09 92.241,235.445 91.493,234.961C90.745,234.477 89.902,234.132 88.963,233.927C88.025,233.721 87.086,233.619 86.147,233.619Z" style="fill-rule:nonzero;"/>
        <path d="M118.927,259.843C118.047,260.547 116.94,261.104 115.605,261.515C114.271,261.925 112.855,262.131 111.359,262.131C109.687,262.131 108.235,261.859 107.003,261.317C105.771,260.774 104.759,259.997 103.967,258.985C103.175,257.973 102.589,256.763 102.207,255.355C101.826,253.947 101.635,252.363 101.635,250.603C101.635,246.848 102.471,243.988 104.143,242.023C105.815,240.057 108.206,239.075 111.315,239.075C112.313,239.075 113.31,239.185 114.307,239.405C115.305,239.625 116.199,240.043 116.991,240.659C117.783,241.275 118.429,242.147 118.927,243.277C119.426,244.406 119.675,245.895 119.675,247.743C119.675,248.711 119.587,249.781 119.411,250.955L105.287,250.955C105.287,252.245 105.419,253.389 105.683,254.387C105.947,255.384 106.358,256.227 106.915,256.917C107.473,257.606 108.199,258.134 109.093,258.501C109.988,258.867 111.081,259.051 112.371,259.051C113.369,259.051 114.366,258.875 115.363,258.523C116.361,258.171 117.109,257.76 117.607,257.291L118.927,259.843ZM111.359,242.155C109.629,242.155 108.243,242.609 107.201,243.519C106.16,244.428 105.537,245.983 105.331,248.183L116.243,248.183C116.243,245.953 115.818,244.391 114.967,243.497C114.117,242.602 112.914,242.155 111.359,242.155Z" style="fill-rule:nonzero;"/>
        <path d="M127.243,243.519C128.211,242.111 129.282,241.121 130.455,240.549C131.629,239.977 133.095,239.691 134.855,239.691C137.554,239.691 139.629,240.571 141.081,242.331C142.533,244.091 143.259,246.687 143.259,250.119C143.259,254.079 142.416,257.071 140.729,259.095C139.043,261.119 136.689,262.131 133.667,262.131C130.441,262.131 128.021,261.016 126.407,258.787C124.794,256.557 123.987,253.052 123.987,248.271C123.987,245.748 124.112,243.592 124.361,241.803C124.611,240.013 124.977,238.503 125.461,237.271C125.945,236.039 126.532,235.056 127.221,234.323C127.911,233.589 128.688,233.01 129.553,232.585C130.419,232.159 131.365,231.859 132.391,231.683C133.418,231.507 134.518,231.36 135.691,231.243C137.217,231.096 138.412,230.927 139.277,230.737C140.143,230.546 140.839,230.201 141.367,229.703L141.763,232.871C141.47,233.135 141.147,233.355 140.795,233.531C140.443,233.707 140.018,233.853 139.519,233.971C139.021,234.088 138.427,234.191 137.737,234.279C137.048,234.367 136.249,234.44 135.339,234.499C134.078,234.587 132.971,234.741 132.017,234.961C131.064,235.181 130.243,235.606 129.553,236.237C128.864,236.867 128.321,237.762 127.925,238.921C127.529,240.079 127.258,241.612 127.111,243.519L127.243,243.519ZM127.639,250.647C127.639,251.761 127.757,252.832 127.991,253.859C128.226,254.885 128.585,255.787 129.069,256.565C129.553,257.342 130.177,257.951 130.939,258.391C131.702,258.831 132.597,259.051 133.623,259.051C135.647,259.051 137.151,258.325 138.133,256.873C139.116,255.421 139.607,253.272 139.607,250.427C139.607,249.312 139.505,248.285 139.299,247.347C139.094,246.408 138.771,245.594 138.331,244.905C137.891,244.215 137.334,243.687 136.659,243.321C135.985,242.954 135.178,242.771 134.239,242.771C131.951,242.741 130.279,243.409 129.223,244.773C128.167,246.137 127.639,248.095 127.639,250.647Z" style="fill-rule:nonzero;"/>
        <path d="M148.803,239.603L151.223,239.603L151.883,242.243L152.059,242.243C152.734,241.216 153.607,240.431 154.677,239.889C155.748,239.346 156.973,239.075 158.351,239.075C161.285,239.075 163.47,239.94 164.907,241.671C166.345,243.401 167.063,246.232 167.063,250.163C167.063,252.011 166.821,253.675 166.337,255.157C165.853,256.638 165.171,257.892 164.291,258.919C163.411,259.945 162.348,260.737 161.101,261.295C159.855,261.852 158.469,262.131 156.943,262.131C155.858,262.131 155,262.065 154.369,261.933C153.739,261.801 153.057,261.573 152.323,261.251L152.323,270.403L148.803,270.403L148.803,239.603ZM157.691,242.155C156.195,242.155 155.015,242.543 154.149,243.321C153.284,244.098 152.675,245.279 152.323,246.863L152.323,257.775C152.851,258.185 153.453,258.501 154.127,258.721C154.802,258.941 155.697,259.051 156.811,259.051C158.835,259.051 160.441,258.295 161.629,256.785C162.817,255.274 163.411,253.052 163.411,250.119C163.411,248.916 163.309,247.823 163.103,246.841C162.898,245.858 162.568,245.022 162.113,244.333C161.659,243.643 161.072,243.108 160.353,242.727C159.635,242.345 158.747,242.155 157.691,242.155Z" style="fill-rule:nonzero;"/>
        <path d="M171.375,250.603C171.375,246.877 172.204,244.025 173.861,242.045C175.519,240.065 177.902,239.075 181.011,239.075C182.654,239.075 184.084,239.346 185.301,239.889C186.519,240.431 187.523,241.209 188.315,242.221C189.107,243.233 189.694,244.45 190.075,245.873C190.457,247.295 190.647,248.872 190.647,250.603C190.647,254.328 189.819,257.181 188.161,259.161C186.504,261.141 184.121,262.131 181.011,262.131C179.369,262.131 177.939,261.859 176.721,261.317C175.504,260.774 174.499,259.997 173.707,258.985C172.915,257.973 172.329,256.755 171.947,255.333C171.566,253.91 171.375,252.333 171.375,250.603ZM175.027,250.603C175.027,251.717 175.137,252.788 175.357,253.815C175.577,254.841 175.922,255.736 176.391,256.499C176.861,257.261 177.477,257.877 178.239,258.347C179.002,258.816 179.926,259.051 181.011,259.051C185.001,259.08 186.995,256.264 186.995,250.603C186.995,249.459 186.885,248.373 186.665,247.347C186.445,246.32 186.101,245.425 185.631,244.663C185.162,243.9 184.546,243.291 183.783,242.837C183.021,242.382 182.097,242.155 181.011,242.155C177.022,242.125 175.027,244.941 175.027,250.603Z" style="fill-rule:nonzero;"/>
        <path d="M104.172,312.262L91.324,312.262L91.324,339.806L87.672,339.806L87.672,309.006L104.172,309.006L104.172,312.262Z" style="fill-rule:nonzero;"/>
        <path d="M101.928,317.806L104.348,317.806L105.008,320.446L105.184,320.446C105.859,319.419 106.731,318.635 107.802,318.092C108.873,317.549 110.097,317.278 111.476,317.278C114.409,317.278 116.595,318.143 118.032,319.874C119.469,321.605 120.188,324.435 120.188,328.366C120.188,330.214 119.946,331.879 119.462,333.36C118.978,334.841 118.296,336.095 117.416,337.122C116.536,338.149 115.473,338.941 114.226,339.498C112.979,340.055 111.593,340.334 110.068,340.334C108.983,340.334 108.125,340.268 107.494,340.136C106.863,340.004 106.181,339.777 105.448,339.454L105.448,348.606L101.928,348.606L101.928,317.806ZM110.816,320.358C109.32,320.358 108.139,320.747 107.274,321.524C106.409,322.301 105.8,323.482 105.448,325.066L105.448,335.978C105.976,336.389 106.577,336.704 107.252,336.924C107.927,337.144 108.821,337.254 109.936,337.254C111.96,337.254 113.566,336.499 114.754,334.988C115.942,333.477 116.536,331.255 116.536,328.322C116.536,327.119 116.433,326.027 116.228,325.044C116.023,324.061 115.693,323.225 115.238,322.536C114.783,321.847 114.197,321.311 113.478,320.93C112.759,320.549 111.872,320.358 110.816,320.358Z" style="fill-rule:nonzero;"/>
        <path d="M125.38,319.434C126.495,318.759 127.793,318.261 129.274,317.938C130.755,317.615 132.303,317.454 133.916,317.454C135.441,317.454 136.666,317.659 137.59,318.07C138.514,318.481 139.218,319.016 139.702,319.676C140.186,320.336 140.509,321.062 140.67,321.854C140.831,322.646 140.912,323.438 140.912,324.23C140.912,325.99 140.868,327.706 140.78,329.378C140.692,331.05 140.648,332.634 140.648,334.13C140.648,335.215 140.692,336.242 140.78,337.21C140.868,338.178 141.029,339.073 141.264,339.894L138.668,339.894L137.744,336.814L137.524,336.814C137.26,337.225 136.93,337.628 136.534,338.024C136.138,338.42 135.661,338.772 135.104,339.08C134.547,339.388 133.901,339.645 133.168,339.85C132.435,340.055 131.599,340.158 130.66,340.158C129.721,340.158 128.849,340.011 128.042,339.718C127.235,339.425 126.539,339.007 125.952,338.464C125.365,337.921 124.903,337.269 124.566,336.506C124.229,335.743 124.06,334.878 124.06,333.91C124.06,332.619 124.324,331.541 124.852,330.676C125.38,329.811 126.121,329.121 127.074,328.608C128.027,328.095 129.171,327.728 130.506,327.508C131.841,327.288 133.315,327.178 134.928,327.178L136.138,327.178C136.534,327.178 136.937,327.207 137.348,327.266C137.436,326.386 137.48,325.594 137.48,324.89C137.48,323.277 137.157,322.147 136.512,321.502C135.867,320.857 134.693,320.534 132.992,320.534C132.493,320.534 131.958,320.571 131.386,320.644C130.814,320.717 130.227,320.82 129.626,320.952C129.025,321.084 128.453,321.245 127.91,321.436C127.367,321.627 126.891,321.839 126.48,322.074L125.38,319.434ZM131.628,337.078C132.449,337.078 133.183,336.968 133.828,336.748C134.473,336.528 135.031,336.249 135.5,335.912C135.969,335.575 136.358,335.201 136.666,334.79C136.974,334.379 137.201,333.983 137.348,333.602L137.348,329.95C136.937,329.921 136.519,329.899 136.094,329.884C135.669,329.869 135.251,329.862 134.84,329.862C133.931,329.862 133.043,329.913 132.178,330.016C131.313,330.119 130.55,330.309 129.89,330.588C129.23,330.867 128.702,331.248 128.306,331.732C127.91,332.216 127.712,332.825 127.712,333.558C127.712,334.585 128.079,335.428 128.812,336.088C129.545,336.748 130.484,337.078 131.628,337.078Z" style="fill-rule:nonzero;"/>
        <path d="M161.02,330.082L151.076,330.082L151.076,339.806L147.556,339.806L147.556,317.806L151.076,317.806L151.076,327.002L161.02,327.002L161.02,317.806L164.54,317.806L164.54,339.806L161.02,339.806L161.02,330.082Z" style="fill-rule:nonzero;"/>
        <path d="M174.836,336.726C175.921,336.902 176.963,336.99 177.96,336.99C179.808,336.99 181.172,336.631 182.052,335.912C182.932,335.193 183.372,334.174 183.372,332.854C183.372,331.681 182.947,330.713 182.096,329.95C181.245,329.187 179.911,328.806 178.092,328.806C177.593,328.806 177.051,328.821 176.464,328.85C175.877,328.879 175.335,328.967 174.836,329.114L174.836,336.726ZM174.836,326.21C175.54,326.093 176.215,326.012 176.86,325.968C177.505,325.924 178.121,325.902 178.708,325.902C180.233,325.902 181.524,326.071 182.58,326.408C183.636,326.745 184.494,327.207 185.154,327.794C185.814,328.381 186.291,329.077 186.584,329.884C186.877,330.691 187.024,331.549 187.024,332.458C187.024,335.127 186.225,337.063 184.626,338.266C183.027,339.469 180.541,340.07 177.168,340.07C175.291,340.07 173.34,339.982 171.316,339.806L171.316,317.806L174.836,317.806L174.836,326.21Z" style="fill-rule:nonzero;"/>
    </g>
</svg>
