<?xml version="1.0" encoding="UTF-8" standalone="no"?>
<!DOCTYPE svg PUBLIC "-//W3C//DTD SVG 1.1//EN" "http://www.w3.org/Graphics/SVG/1.1/DTD/svg11.dtd">
<svg width="100%" height="100%" viewBox="0 0 662 520" version="1.1" xmlns="http://www.w3.org/2000/svg" xmlns:xlink="http://www.w3.org/1999/xlink" xml:space="preserve" xmlns:serif="http://www.serif.com/" style="fill-rule:evenodd;clip-rule:evenodd;stroke-linecap:round;stroke-linejoin:round;stroke-miterlimit:10;">
    <g transform="matrix(1,0,0,1,-161,-2048)">
        <rect id="TIN-details" serif:id="TIN details" x="4" y="1978" width="1456" height="1086" style="fill:none;"/>
        <g id="TIN-details1" serif:id="TIN details">
            <path id="Outline" d="M704.486,2152.85L767.557,2229.66L783.728,2321.84L759.471,2438.28L699.635,2475.48L571.069,2486.8L507.999,2445.56L465.952,2321.84L490.21,2176.3L587.241,2144.76L704.486,2152.85Z" style="fill:none;stroke:black;stroke-width:8px;"/>
            <g id="Dots" transform="matrix(0.869743,0,0,0.550305,-722.283,700.778)">
                <g transform="matrix(4.12996e-32,7.21876,-4.56746,6.52731e-32,3664.14,916.256)">
                    <circle cx="263.028" cy="494.361" r="2.835"/>
                </g>
                <g transform="matrix(4.12996e-32,7.21876,-4.56746,6.52731e-32,3377.26,330.318)">
                    <circle cx="328.931" cy="418.319" r="2.835"/>
                </g>
                <g transform="matrix(4.12996e-32,7.21876,-4.56746,6.52731e-32,3698.03,-260.776)">
                    <circle cx="421.194" cy="470.028" r="2.835"/>
                </g>
                <g transform="matrix(4.12996e-32,7.21876,-4.56746,6.52731e-32,3881.73,-872.524)">
                    <ellipse cx="510.417" cy="492.333" rx="2.835" ry="2.835"/>
                </g>
                <g transform="matrix(4.12996e-32,7.21876,-4.56746,6.52731e-32,4314.36,-978.899)">
                    <circle cx="542.861" cy="580.542" r="2.835"/>
                </g>
                <g transform="matrix(4.12996e-32,7.21876,-4.56746,6.52731e-32,4088.01,-258.863)">
                    <circle cx="437.417" cy="552.153" r="2.835"/>
                </g>
                <g transform="matrix(4.12996e-32,7.21876,-4.56746,6.52731e-32,3782.06,329.32)">
                    <circle cx="346.167" cy="503.486" r="2.835"/>
                </g>
                <g transform="matrix(4.12996e-32,7.21876,-4.56746,6.52731e-32,4191.4,520.114)">
                    <circle cx="338.056" cy="594.736" r="2.835"/>
                </g>
                <g transform="matrix(4.12996e-32,7.21876,-4.56746,6.52731e-32,4718.57,314.295)">
                    <circle cx="387.736" cy="700.181" r="2.835"/>
                </g>
                <g transform="matrix(4.12996e-32,7.21876,-4.56746,6.52731e-32,4763.35,-379.598)">
                    <circle cx="482.028" cy="691.056" r="2.835"/>
                </g>
                <g transform="matrix(4.12996e-32,7.21876,-4.56746,6.52731e-32,4552.24,-576.02)">
                    <circle cx="499.264" cy="641.375" r="2.835"/>
                </g>
                <g transform="matrix(4.12996e-32,7.21876,-4.56746,6.52731e-32,4694.15,-972.605)">
                    <circle cx="558.069" cy="660.639" r="2.835"/>
                </g>
                <g transform="matrix(4.12996e-32,7.21876,-4.56746,6.52731e-32,4444.92,1141.15)">
                    <circle cx="266.069" cy="664.694" r="2.835"/>
                </g>
                <g transform="matrix(4.12996e-32,7.21876,-4.56746,6.52731e-32,4434.35,-27.1487)">
                    <circle cx="421.194" cy="631.236" r="2.835"/>
                </g>
                <g transform="matrix(4.12996e-32,7.21876,-4.56746,6.52731e-32,4328.94,-448.907)">
                    <circle cx="472.903" cy="597.778" r="2.835"/>
                </g>
                <g transform="matrix(4.12996e-32,7.21876,-4.56746,6.52731e-32,4123.43,-727.307)">
                    <circle cx="501.292" cy="547.083" r="2.835"/>
                </g>
                <g transform="matrix(4.12996e-32,7.21876,-4.56746,6.52731e-32,5045.62,166.806)">
                    <ellipse cx="421.194" cy="765.069" rx="2.835" ry="2.835"/>
                </g>
            </g>
            <g id="Outer-dots" serif:id="Outer dots">
                <g transform="matrix(3.59201e-32,3.97252,-3.97252,3.59201e-32,2087.55,1183.78)">
                    <circle cx="249.847" cy="402.097" r="2.835"/>
                </g>
                <g transform="matrix(3.59201e-32,3.97252,-3.97252,3.59201e-32,2027.5,668.918)">
                    <circle cx="371.514" cy="362.556" r="2.835"/>
                </g>
                <g transform="matrix(3.59201e-32,3.97252,-3.97252,3.59201e-32,2185.02,92.9887)">
                    <circle cx="518.528" cy="372.694" r="2.835"/>
                </g>
                <g transform="matrix(3.59201e-32,3.97252,-3.97252,3.59201e-32,2630.72,-144.355)">
                    <circle cx="597.611" cy="469.014" r="2.835"/>
                </g>
                <g transform="matrix(3.59201e-32,3.97252,-3.97252,3.59201e-32,3106.05,-132.729)">
                    <circle cx="617.889" cy="584.597" r="2.835"/>
                </g>
                <g transform="matrix(3.59201e-32,3.97252,-3.97252,3.59201e-32,2788.27,1450.15)">
                    <circle cx="219.431" cy="584.597" r="2.835"/>
                </g>
                <g transform="matrix(3.59201e-32,3.97252,-3.97252,3.59201e-32,3661.78,104.539)">
                    <circle cx="587.472" cy="730.597" r="2.835"/>
                </g>
                <g transform="matrix(3.59201e-32,3.97252,-3.97252,3.59201e-32,3787.22,439.783)">
                    <circle cx="512.444" cy="777.236" r="2.835"/>
                </g>
                <g transform="matrix(3.59201e-32,3.97252,-3.97252,3.59201e-32,3715.04,1091.51)">
                    <circle cx="351.236" cy="791.431" r="2.835"/>
                </g>
                <g transform="matrix(3.59201e-32,3.97252,-3.97252,3.59201e-32,3446.56,1364.43)">
                    <circle cx="272.153" cy="739.722" r="2.835"/>
                </g>
            </g>
        </g>
    </g>
</svg>
