<?xml version="1.0" encoding="UTF-8" standalone="no"?>
<!DOCTYPE svg PUBLIC "-//W3C//DTD SVG 1.1//EN" "http://www.w3.org/Graphics/SVG/1.1/DTD/svg11.dtd">
<svg width="100%" height="100%" viewBox="0 0 153 207" version="1.1" xmlns="http://www.w3.org/2000/svg" xmlns:xlink="http://www.w3.org/1999/xlink" xml:space="preserve" xmlns:serif="http://www.serif.com/" style="fill-rule:evenodd;clip-rule:evenodd;stroke-linejoin:round;stroke-miterlimit:1.5;">
    <g transform="matrix(1,0,0,1,-6607,-3882)">
        <g id="Artboard2" transform="matrix(1,0,0,1,0,-0.319317)">
            <rect x="5322" y="3318.32" width="1962" height="1184" style="fill:none;"/>
            <g transform="matrix(1.52209,0,0,1.52209,5549.14,3435.41)">
                <g transform="matrix(24.7733,0,0,24.7733,705.055,317.132)">
                    <path d="M0.222,-0.231L0.238,-0.115L0.239,-0.115L0.256,-0.233L0.4,-0.7L0.44,-0.7L0.585,-0.231L0.602,-0.115L0.603,-0.115L0.621,-0.233L0.739,-0.7L0.82,-0.7L0.625,0.011L0.579,0.011L0.437,-0.458L0.419,-0.564L0.414,-0.564L0.396,-0.457L0.254,0.011L0.208,0.011L0.008,-0.7L0.096,-0.7L0.222,-0.231Z" style="fill-rule:nonzero;"/>
                </g>
                <g transform="matrix(24.7733,0,0,24.7733,725.567,317.132)">
                    <rect x="0.104" y="-0.7" width="0.083" height="0.7" style="fill-rule:nonzero;"/>
                </g>
                <g transform="matrix(24.7733,0,0,24.7733,732.776,317.132)">
                    <path d="M0.537,-0.626L0.319,-0.626L0.319,-0L0.236,-0L0.236,-0.626L0.018,-0.626L0.018,-0.7L0.537,-0.7L0.537,-0.626Z" style="fill-rule:nonzero;"/>
                </g>
                <g transform="matrix(24.7733,0,0,24.7733,746.526,317.132)">
                    <path d="M0.504,-0.321L0.168,-0.321L0.168,-0L0.085,-0L0.085,-0.7L0.168,-0.7L0.168,-0.395L0.504,-0.395L0.504,-0.7L0.587,-0.7L0.587,-0L0.504,-0L0.504,-0.321Z" style="fill-rule:nonzero;"/>
                </g>
                <g transform="matrix(24.7733,0,0,24.7733,763.173,317.132)">
                    <rect x="0.104" y="-0.7" width="0.083" height="0.7" style="fill-rule:nonzero;"/>
                </g>
                <g transform="matrix(24.7733,0,0,24.7733,770.382,317.132)">
                    <path d="M0.211,-0.458L0.157,-0.559L0.153,-0.559L0.163,-0.458L0.163,-0L0.085,-0L0.085,-0.711L0.129,-0.711L0.464,-0.244L0.516,-0.148L0.521,-0.148L0.51,-0.244L0.51,-0.7L0.588,-0.7L0.588,0.011L0.544,0.011L0.211,-0.458Z" style="fill-rule:nonzero;"/>
                </g>
            </g>
            <g transform="matrix(1,0,0,1,-10.9157,1.17724)">
                <g transform="matrix(1.64352,0,0,1.64352,5520.55,453.714)">
                    <rect x="684" y="2145" width="39.714" height="39.714" style="fill:rgb(224,224,224);stroke:black;stroke-width:4.87px;"/>
                </g>
                <g transform="matrix(3.37326,0,0,3.37326,4321.32,-3290.47)">
                    <rect x="684" y="2145" width="39.714" height="39.714" style="fill:none;stroke:black;stroke-width:1.19px;"/>
                </g>
                <g transform="matrix(0.798768,0,0,0.798768,6372.78,2459.22)">
                    <g transform="matrix(36,0,0,36,368.503,1953.88)">
                        <path d="M0.292,-0.766L0.412,-0.766L0.683,-0L0.525,-0L0.446,-0.239L0.219,-0.239L0.143,-0L0.016,-0L0.292,-0.766ZM0.247,-0.337L0.421,-0.337L0.336,-0.614L0.247,-0.337Z" style="fill-rule:nonzero;"/>
                    </g>
                </g>
                <g transform="matrix(0.798768,0,0,0.798768,6431.66,2459.34)">
                    <g transform="matrix(36,0,0,36,368.503,1953.88)">
                        <path d="M0.318,-0.765C0.356,-0.765 0.391,-0.761 0.422,-0.752C0.453,-0.744 0.48,-0.731 0.501,-0.715C0.523,-0.699 0.54,-0.679 0.551,-0.655C0.563,-0.631 0.569,-0.604 0.569,-0.573C0.569,-0.554 0.565,-0.535 0.557,-0.517C0.55,-0.499 0.539,-0.482 0.526,-0.467C0.513,-0.452 0.498,-0.439 0.48,-0.427C0.463,-0.416 0.444,-0.408 0.424,-0.403C0.444,-0.399 0.465,-0.393 0.486,-0.383C0.507,-0.374 0.526,-0.361 0.543,-0.345C0.561,-0.328 0.575,-0.309 0.586,-0.285C0.597,-0.262 0.603,-0.235 0.603,-0.204C0.603,-0.178 0.597,-0.153 0.586,-0.128C0.575,-0.104 0.558,-0.082 0.535,-0.063C0.513,-0.044 0.485,-0.028 0.452,-0.017C0.418,-0.006 0.38,-0 0.337,-0L0.073,-0L0.074,-0.765L0.318,-0.765ZM0.208,-0.341L0.208,-0.099L0.311,-0.099C0.337,-0.099 0.36,-0.102 0.38,-0.109C0.4,-0.116 0.416,-0.125 0.429,-0.136C0.442,-0.147 0.451,-0.16 0.458,-0.174C0.464,-0.187 0.467,-0.201 0.467,-0.216C0.467,-0.233 0.464,-0.249 0.458,-0.264C0.451,-0.279 0.442,-0.293 0.429,-0.304C0.416,-0.315 0.399,-0.324 0.379,-0.331C0.358,-0.337 0.334,-0.341 0.305,-0.341L0.208,-0.341ZM0.208,-0.667L0.208,-0.439L0.279,-0.439C0.303,-0.439 0.325,-0.442 0.344,-0.446C0.364,-0.451 0.381,-0.458 0.395,-0.468C0.409,-0.477 0.419,-0.489 0.427,-0.504C0.434,-0.518 0.438,-0.535 0.438,-0.555C0.438,-0.574 0.435,-0.59 0.43,-0.604C0.424,-0.618 0.415,-0.63 0.402,-0.639C0.388,-0.648 0.371,-0.655 0.35,-0.66C0.328,-0.664 0.301,-0.667 0.27,-0.667L0.208,-0.667Z" style="fill-rule:nonzero;"/>
                    </g>
                </g>
            </g>
            <g transform="matrix(0.88568,0,0,0.897788,4596.53,2247.34)">
                <path d="M1632.73,1504L2509.34,1504L2509.34,2097.05L1353.14,2097.05L1353.14,1775.28L1632.73,1775.28L1632.73,1504Z" style="fill:none;stroke:black;stroke-width:5.61px;stroke-dasharray:5.61,11.21,0,0;"/>
            </g>
        </g>
    </g>
</svg>
