<?xml version="1.0" encoding="UTF-8" standalone="no"?>
<!DOCTYPE svg PUBLIC "-//W3C//DTD SVG 1.1//EN" "http://www.w3.org/Graphics/SVG/1.1/DTD/svg11.dtd">
<svg width="100%" height="100%" viewBox="0 0 1336 982" version="1.1" xmlns="http://www.w3.org/2000/svg" xmlns:xlink="http://www.w3.org/1999/xlink" xml:space="preserve" xmlns:serif="http://www.serif.com/" style="fill-rule:evenodd;clip-rule:evenodd;stroke-miterlimit:10;">
    <rect id="Artboard7" x="-2698" y="0" width="4375" height="2153" style="fill:none;"/>
    <clipPath id="_clip1">
        <rect id="Artboard71" serif:id="Artboard7" x="-2698" y="0" width="4375" height="2153"/>
    </clipPath>
    <g clip-path="url(#_clip1)">
        <g id="Linear-matrix" serif:id="Linear matrix">
        </g>
        <g id="Guilbert-matrix" serif:id="Guilbert matrix">
        </g>
        <g id="Guilbert-row" serif:id="Guilbert row">
        </g>
        <path d="M413.802,915.746L398.106,915.746L398.106,960.818L392.13,960.818L392.13,915.746L376.434,915.746L376.434,910.418L413.802,910.418L413.802,915.746Z" style="fill-rule:nonzero;"/>
        <path d="M409.41,942.818C409.41,936.722 410.766,932.054 413.478,928.814C416.19,925.574 420.09,923.954 425.178,923.954C427.866,923.954 430.206,924.398 432.198,925.286C434.19,926.174 435.834,927.446 437.13,929.102C438.426,930.758 439.386,932.75 440.01,935.078C440.634,937.406 440.946,939.986 440.946,942.818C440.946,948.914 439.59,953.582 436.878,956.822C434.166,960.062 430.266,961.682 425.178,961.682C422.49,961.682 420.15,961.238 418.158,960.35C416.166,959.462 414.522,958.19 413.226,956.534C411.93,954.878 410.97,952.886 410.346,950.558C409.722,948.23 409.41,945.65 409.41,942.818ZM415.386,942.818C415.386,944.642 415.566,946.394 415.926,948.074C416.286,949.754 416.85,951.218 417.618,952.466C418.386,953.714 419.394,954.722 420.642,955.49C421.89,956.258 423.402,956.642 425.178,956.642C431.706,956.69 434.97,952.082 434.97,942.818C434.97,940.946 434.79,939.17 434.43,937.49C434.07,935.81 433.506,934.346 432.738,933.098C431.97,931.85 430.962,930.854 429.714,930.11C428.466,929.366 426.954,928.994 425.178,928.994C418.65,928.946 415.386,933.554 415.386,942.818Z" style="fill-rule:nonzero;"/>
        <path d="M471.69,929.858L455.778,929.858L455.778,960.818L450.018,960.818L450.018,924.818L477.45,924.818L477.45,960.818L471.69,960.818L471.69,929.858Z" style="fill-rule:nonzero;"/>
        <path d="M486.522,942.818C486.522,936.722 487.878,932.054 490.59,928.814C493.302,925.574 497.202,923.954 502.29,923.954C504.978,923.954 507.318,924.398 509.31,925.286C511.302,926.174 512.946,927.446 514.242,929.102C515.538,930.758 516.498,932.75 517.122,935.078C517.746,937.406 518.058,939.986 518.058,942.818C518.058,948.914 516.702,953.582 513.99,956.822C511.278,960.062 507.378,961.682 502.29,961.682C499.602,961.682 497.262,961.238 495.27,960.35C493.278,959.462 491.634,958.19 490.338,956.534C489.042,954.878 488.082,952.886 487.458,950.558C486.834,948.23 486.522,945.65 486.522,942.818ZM492.498,942.818C492.498,944.642 492.678,946.394 493.038,948.074C493.398,949.754 493.962,951.218 494.73,952.466C495.498,953.714 496.506,954.722 497.754,955.49C499.002,956.258 500.514,956.642 502.29,956.642C508.818,956.69 512.082,952.082 512.082,942.818C512.082,940.946 511.902,939.17 511.542,937.49C511.182,935.81 510.618,934.346 509.85,933.098C509.082,931.85 508.074,930.854 506.826,930.11C505.578,929.366 504.066,928.994 502.29,928.994C495.762,928.946 492.498,933.554 492.498,942.818Z" style="fill-rule:nonzero;"/>
        <path d="M546.498,929.858L536.058,929.858C535.914,931.874 535.77,934.046 535.626,936.374C535.482,938.702 535.266,941.03 534.978,943.358C534.69,945.686 534.306,947.918 533.826,950.054C533.346,952.19 532.734,954.074 531.99,955.706C531.246,957.338 530.334,958.646 529.254,959.63C528.174,960.614 526.89,961.106 525.402,961.106C524.49,961.106 523.698,961.058 523.026,960.962C522.354,960.866 521.754,960.698 521.226,960.458L522.09,955.634C522.666,955.826 523.29,955.922 523.962,955.922C524.922,955.922 525.786,955.514 526.554,954.698C527.322,953.882 527.994,952.334 528.57,950.054C529.146,947.774 529.626,944.618 530.01,940.586C530.394,936.554 530.658,931.298 530.802,924.818L552.258,924.818L552.258,960.818L546.498,960.818L546.498,929.858Z" style="fill-rule:nonzero;"/>
        <path d="M561.33,942.818C561.33,936.722 562.686,932.054 565.398,928.814C568.11,925.574 572.01,923.954 577.098,923.954C579.786,923.954 582.126,924.398 584.118,925.286C586.11,926.174 587.754,927.446 589.05,929.102C590.346,930.758 591.306,932.75 591.93,935.078C592.554,937.406 592.866,939.986 592.866,942.818C592.866,948.914 591.51,953.582 588.798,956.822C586.086,960.062 582.186,961.682 577.098,961.682C574.41,961.682 572.07,961.238 570.078,960.35C568.086,959.462 566.442,958.19 565.146,956.534C563.85,954.878 562.89,952.886 562.266,950.558C561.642,948.23 561.33,945.65 561.33,942.818ZM567.306,942.818C567.306,944.642 567.486,946.394 567.846,948.074C568.206,949.754 568.77,951.218 569.538,952.466C570.306,953.714 571.314,954.722 572.562,955.49C573.81,956.258 575.322,956.642 577.098,956.642C583.626,956.69 586.89,952.082 586.89,942.818C586.89,940.946 586.71,939.17 586.35,937.49C585.99,935.81 585.426,934.346 584.658,933.098C583.89,931.85 582.882,930.854 581.634,930.11C580.386,929.366 578.874,928.994 577.098,928.994C570.57,928.946 567.306,933.554 567.306,942.818Z" style="fill-rule:nonzero;"/>
        <path d="M622.962,929.858L607.698,929.858L607.698,960.818L601.938,960.818L601.938,924.818L622.962,924.818L622.962,929.858Z" style="fill-rule:nonzero;"/>
        <path d="M650.97,939.506L651.186,935.042L650.97,935.042L648.018,939.65L631.818,960.818L628.506,960.818L628.506,924.818L634.266,924.818L634.266,946.778L634.05,951.026L634.338,951.026L637.146,946.562L653.346,924.818L656.73,924.818L656.73,960.818L650.97,960.818L650.97,939.506Z" style="fill-rule:nonzero;"/>
        <path d="M671.562,924.818L671.562,934.61C671.562,935.906 671.634,937.07 671.778,938.102C671.922,939.134 672.21,940.022 672.642,940.766C673.074,941.51 673.698,942.086 674.514,942.494C675.33,942.902 676.41,943.106 677.754,943.106C679.914,943.106 681.69,942.866 683.082,942.386C684.474,941.906 685.53,941.378 686.25,940.802L686.25,924.818L692.01,924.818L692.01,960.818L686.25,960.818L686.25,945.698C685.482,946.178 684.342,946.706 682.83,947.282C681.318,947.858 679.242,948.146 676.602,948.146C674.826,948.146 673.266,947.954 671.922,947.57C670.578,947.186 669.45,946.514 668.538,945.554C667.626,944.594 666.942,943.322 666.486,941.738C666.03,940.154 665.802,938.162 665.802,935.762L665.802,924.818L671.562,924.818Z" style="fill-rule:nonzero;"/>
        <path d="M729.378,957.938C727.938,959.09 726.126,960.002 723.942,960.674C721.758,961.346 719.442,961.682 716.994,961.682C714.258,961.682 711.882,961.238 709.866,960.35C707.85,959.462 706.194,958.19 704.898,956.534C703.602,954.878 702.642,952.898 702.018,950.594C701.394,948.29 701.082,945.698 701.082,942.818C701.082,936.674 702.45,931.994 705.186,928.778C707.922,925.562 711.834,923.954 716.922,923.954C718.554,923.954 720.186,924.134 721.818,924.494C723.45,924.854 724.914,925.538 726.21,926.546C727.506,927.554 728.562,928.982 729.378,930.83C730.194,932.678 730.602,935.114 730.602,938.138C730.602,939.722 730.458,941.474 730.17,943.394L707.058,943.394C707.058,945.506 707.274,947.378 707.706,949.01C708.138,950.642 708.81,952.022 709.722,953.15C710.634,954.278 711.822,955.142 713.286,955.742C714.75,956.342 716.538,956.642 718.65,956.642C720.282,956.642 721.914,956.354 723.546,955.778C725.178,955.202 726.402,954.53 727.218,953.762L729.378,957.938ZM716.994,928.994C714.162,928.994 711.894,929.738 710.19,931.226C708.486,932.714 707.466,935.258 707.13,938.858L724.986,938.858C724.986,935.21 724.29,932.654 722.898,931.19C721.506,929.726 719.538,928.994 716.994,928.994Z" style="fill-rule:nonzero;"/>
        <path d="M764.226,958.442C762.786,959.498 761.082,960.302 759.114,960.854C757.146,961.406 755.082,961.682 752.922,961.682C750.138,961.682 747.786,961.238 745.866,960.35C743.946,959.462 742.374,958.19 741.15,956.534C739.926,954.878 739.038,952.886 738.486,950.558C737.934,948.23 737.658,945.65 737.658,942.818C737.658,936.722 739.002,932.054 741.69,928.814C744.378,925.574 748.242,923.954 753.282,923.954C755.586,923.954 757.542,924.134 759.15,924.494C760.758,924.854 762.21,925.37 763.506,926.042L761.85,931.01C760.746,930.386 759.522,929.894 758.178,929.534C756.834,929.174 755.394,928.994 753.858,928.994C747.042,928.994 743.634,933.602 743.634,942.818C743.634,944.642 743.814,946.382 744.174,948.038C744.534,949.694 745.134,951.158 745.974,952.43C746.814,953.702 747.918,954.722 749.286,955.49C750.654,956.258 752.346,956.642 754.362,956.642C756.09,956.642 757.638,956.378 759.006,955.85C760.374,955.322 761.49,954.722 762.354,954.05L764.226,958.442Z" style="fill-rule:nonzero;"/>
        <path d="M781.218,944.618L777.906,944.618L777.906,960.818L772.146,960.818L772.146,924.818L777.906,924.818L777.906,941.09L781.002,940.082L792.522,924.818L798.786,924.818L787.626,939.29L784.602,941.666L788.346,944.546L800.37,960.818L793.242,960.818L781.218,944.618Z" style="fill-rule:nonzero;"/>
        <path d="M805.986,927.482C807.81,926.378 809.934,925.562 812.358,925.034C814.782,924.506 817.314,924.242 819.954,924.242C822.45,924.242 824.454,924.578 825.966,925.25C827.478,925.922 828.63,926.798 829.422,927.878C830.214,928.958 830.742,930.146 831.006,931.442C831.27,932.738 831.402,934.034 831.402,935.33C831.402,938.21 831.33,941.018 831.186,943.754C831.042,946.49 830.97,949.082 830.97,951.53C830.97,953.306 831.042,954.986 831.186,956.57C831.33,958.154 831.594,959.618 831.978,960.962L827.73,960.962L826.218,955.922L825.858,955.922C825.426,956.594 824.886,957.254 824.238,957.902C823.59,958.55 822.81,959.126 821.898,959.63C820.986,960.134 819.93,960.554 818.73,960.89C817.53,961.226 816.162,961.394 814.626,961.394C813.09,961.394 811.662,961.154 810.342,960.674C809.022,960.194 807.882,959.51 806.922,958.622C805.962,957.734 805.206,956.666 804.654,955.418C804.102,954.17 803.826,952.754 803.826,951.17C803.826,949.058 804.258,947.294 805.122,945.878C805.986,944.462 807.198,943.334 808.758,942.494C810.318,941.654 812.19,941.054 814.374,940.694C816.558,940.334 818.97,940.154 821.61,940.154L823.59,940.154C824.238,940.154 824.898,940.202 825.57,940.298C825.714,938.858 825.786,937.562 825.786,936.41C825.786,933.77 825.258,931.922 824.202,930.866C823.146,929.81 821.226,929.282 818.442,929.282C817.626,929.282 816.75,929.342 815.814,929.462C814.878,929.582 813.918,929.75 812.934,929.966C811.95,930.182 811.014,930.446 810.126,930.758C809.238,931.07 808.458,931.418 807.786,931.802L805.986,927.482ZM816.21,956.354C817.554,956.354 818.754,956.174 819.81,955.814C820.866,955.454 821.778,954.998 822.546,954.446C823.314,953.894 823.95,953.282 824.454,952.61C824.958,951.938 825.33,951.29 825.57,950.666L825.57,944.69C824.898,944.642 824.214,944.606 823.518,944.582C822.822,944.558 822.138,944.546 821.466,944.546C819.978,944.546 818.526,944.63 817.11,944.798C815.694,944.966 814.446,945.278 813.366,945.734C812.286,946.19 811.422,946.814 810.774,947.606C810.126,948.398 809.802,949.394 809.802,950.594C809.802,952.274 810.402,953.654 811.602,954.734C812.802,955.814 814.338,956.354 816.21,956.354Z" style="fill-rule:nonzero;"/>
        <path d="M860.202,945.914L854.658,946.778L845.154,960.818L838.17,960.818L846.81,948.506L849.69,945.842C847.194,945.458 845.07,944.45 843.318,942.818C841.566,941.186 840.69,938.978 840.69,936.194C840.69,934.034 841.062,932.186 841.806,930.65C842.55,929.114 843.618,927.842 845.01,926.834C846.402,925.826 848.058,925.094 849.978,924.638C851.898,924.182 854.058,923.954 856.458,923.954C858.234,923.954 859.89,924.074 861.426,924.314C862.962,924.554 864.474,924.818 865.962,925.106L865.962,960.818L860.202,960.818L860.202,945.914ZM860.202,929.714C859.578,929.474 858.882,929.294 858.114,929.174C857.346,929.054 856.674,928.994 856.098,928.994C853.026,928.994 850.686,929.546 849.078,930.65C847.47,931.754 846.666,933.506 846.666,935.906C846.666,938.066 847.518,939.734 849.222,940.91C850.926,942.086 853.17,942.674 855.954,942.674L856.746,942.674C857.034,942.674 857.442,942.662 857.97,942.638C858.498,942.614 859.242,942.578 860.202,942.53L860.202,929.714Z" style="fill-rule:nonzero;"/>
        <path d="M916.722,929.858L901.458,929.858L901.458,960.818L895.698,960.818L895.698,924.818L916.722,924.818L916.722,929.858Z" style="fill-rule:nonzero;"/>
        <path d="M922.266,924.818L926.226,924.818L927.306,929.138L927.594,929.138C928.698,927.458 930.126,926.174 931.878,925.286C933.63,924.398 935.634,923.954 937.89,923.954C942.69,923.954 946.266,925.37 948.618,928.202C950.97,931.034 952.146,935.666 952.146,942.098C952.146,945.122 951.75,947.846 950.958,950.27C950.166,952.694 949.05,954.746 947.61,956.426C946.17,958.106 944.43,959.402 942.39,960.314C940.35,961.226 938.082,961.682 935.586,961.682C933.81,961.682 932.406,961.574 931.374,961.358C930.342,961.142 929.226,960.77 928.026,960.242L928.026,975.218L922.266,975.218L922.266,924.818ZM936.81,928.994C934.362,928.994 932.43,929.63 931.014,930.902C929.598,932.174 928.602,934.106 928.026,936.698L928.026,954.554C928.89,955.226 929.874,955.742 930.978,956.102C932.082,956.462 933.546,956.642 935.37,956.642C938.682,956.642 941.31,955.406 943.254,952.934C945.198,950.462 946.17,946.826 946.17,942.026C946.17,940.058 946.002,938.27 945.666,936.662C945.33,935.054 944.79,933.686 944.046,932.558C943.302,931.43 942.342,930.554 941.166,929.93C939.99,929.306 938.538,928.994 936.81,928.994Z" style="fill-rule:nonzero;"/>
        <path d="M960.642,927.482C962.466,926.378 964.59,925.562 967.014,925.034C969.438,924.506 971.97,924.242 974.61,924.242C977.106,924.242 979.11,924.578 980.622,925.25C982.134,925.922 983.286,926.798 984.078,927.878C984.87,928.958 985.398,930.146 985.662,931.442C985.926,932.738 986.058,934.034 986.058,935.33C986.058,938.21 985.986,941.018 985.842,943.754C985.698,946.49 985.626,949.082 985.626,951.53C985.626,953.306 985.698,954.986 985.842,956.57C985.986,958.154 986.25,959.618 986.634,960.962L982.386,960.962L980.874,955.922L980.514,955.922C980.082,956.594 979.542,957.254 978.894,957.902C978.246,958.55 977.466,959.126 976.554,959.63C975.642,960.134 974.586,960.554 973.386,960.89C972.186,961.226 970.818,961.394 969.282,961.394C967.746,961.394 966.318,961.154 964.998,960.674C963.678,960.194 962.538,959.51 961.578,958.622C960.618,957.734 959.862,956.666 959.31,955.418C958.758,954.17 958.482,952.754 958.482,951.17C958.482,949.058 958.914,947.294 959.778,945.878C960.642,944.462 961.854,943.334 963.414,942.494C964.974,941.654 966.846,941.054 969.03,940.694C971.214,940.334 973.626,940.154 976.266,940.154L978.246,940.154C978.894,940.154 979.554,940.202 980.226,940.298C980.37,938.858 980.442,937.562 980.442,936.41C980.442,933.77 979.914,931.922 978.858,930.866C977.802,929.81 975.882,929.282 973.098,929.282C972.282,929.282 971.406,929.342 970.47,929.462C969.534,929.582 968.574,929.75 967.59,929.966C966.606,930.182 965.67,930.446 964.782,930.758C963.894,931.07 963.114,931.418 962.442,931.802L960.642,927.482ZM970.866,956.354C972.21,956.354 973.41,956.174 974.466,955.814C975.522,955.454 976.434,954.998 977.202,954.446C977.97,953.894 978.606,953.282 979.11,952.61C979.614,951.938 979.986,951.29 980.226,950.666L980.226,944.69C979.554,944.642 978.87,944.606 978.174,944.582C977.478,944.558 976.794,944.546 976.122,944.546C974.634,944.546 973.182,944.63 971.766,944.798C970.35,944.966 969.102,945.278 968.022,945.734C966.942,946.19 966.078,946.814 965.43,947.606C964.782,948.398 964.458,949.394 964.458,950.594C964.458,952.274 965.058,953.654 966.258,954.734C967.458,955.814 968.994,956.354 970.866,956.354Z" style="fill-rule:nonzero;"/>
        <path d="M1018.96,944.906L1002.69,944.906L1002.69,960.818L996.93,960.818L996.93,924.818L1002.69,924.818L1002.69,939.866L1018.96,939.866L1018.96,924.818L1024.72,924.818L1024.72,960.818L1018.96,960.818L1018.96,944.906Z" style="fill-rule:nonzero;"/>
        <path d="M1058.27,939.506L1058.49,935.042L1058.27,935.042L1055.32,939.65L1039.12,960.818L1035.81,960.818L1035.81,924.818L1041.57,924.818L1041.57,946.778L1041.35,951.026L1041.64,951.026L1044.45,946.562L1060.65,924.818L1064.03,924.818L1064.03,960.818L1058.27,960.818L1058.27,939.506Z" style="fill-rule:nonzero;"/>
        <path d="M1107.45,969.962L1103.56,969.962L1102.48,960.818L1075.12,960.818L1075.12,924.818L1080.88,924.818L1080.88,955.778L1096.51,955.778L1096.51,924.818L1102.27,924.818L1102.27,955.778L1107.45,955.778L1107.45,969.962Z" style="fill-rule:nonzero;"/>
        <path d="M1114,927.482C1115.83,926.378 1117.95,925.562 1120.37,925.034C1122.8,924.506 1125.33,924.242 1127.97,924.242C1130.47,924.242 1132.47,924.578 1133.98,925.25C1135.49,925.922 1136.65,926.798 1137.44,927.878C1138.23,928.958 1138.76,930.146 1139.02,931.442C1139.29,932.738 1139.42,934.034 1139.42,935.33C1139.42,938.21 1139.35,941.018 1139.2,943.754C1139.06,946.49 1138.99,949.082 1138.99,951.53C1138.99,953.306 1139.06,954.986 1139.2,956.57C1139.35,958.154 1139.61,959.618 1139.99,960.962L1135.75,960.962L1134.23,955.922L1133.87,955.922C1133.44,956.594 1132.9,957.254 1132.25,957.902C1131.61,958.55 1130.83,959.126 1129.91,959.63C1129,960.134 1127.95,960.554 1126.75,960.89C1125.55,961.226 1124.18,961.394 1122.64,961.394C1121.11,961.394 1119.68,961.154 1118.36,960.674C1117.04,960.194 1115.9,959.51 1114.94,958.622C1113.98,957.734 1113.22,956.666 1112.67,955.418C1112.12,954.17 1111.84,952.754 1111.84,951.17C1111.84,949.058 1112.27,947.294 1113.14,945.878C1114,944.462 1115.21,943.334 1116.77,942.494C1118.33,941.654 1120.21,941.054 1122.39,940.694C1124.57,940.334 1126.99,940.154 1129.63,940.154L1131.61,940.154C1132.25,940.154 1132.91,940.202 1133.59,940.298C1133.73,938.858 1133.8,937.562 1133.8,936.41C1133.8,933.77 1133.27,931.922 1132.22,930.866C1131.16,929.81 1129.24,929.282 1126.46,929.282C1125.64,929.282 1124.77,929.342 1123.83,929.462C1122.89,929.582 1121.93,929.75 1120.95,929.966C1119.97,930.182 1119.03,930.446 1118.14,930.758C1117.25,931.07 1116.47,931.418 1115.8,931.802L1114,927.482ZM1124.23,956.354C1125.57,956.354 1126.77,956.174 1127.83,955.814C1128.88,955.454 1129.79,954.998 1130.56,954.446C1131.33,953.894 1131.97,953.282 1132.47,952.61C1132.97,951.938 1133.35,951.29 1133.59,950.666L1133.59,944.69C1132.91,944.642 1132.23,944.606 1131.53,944.582C1130.84,944.558 1130.15,944.546 1129.48,944.546C1127.99,944.546 1126.54,944.63 1125.13,944.798C1123.71,944.966 1122.46,945.278 1121.38,945.734C1120.3,946.19 1119.44,946.814 1118.79,947.606C1118.14,948.398 1117.82,949.394 1117.82,950.594C1117.82,952.274 1118.42,953.654 1119.62,954.734C1120.82,955.814 1122.35,956.354 1124.23,956.354Z" style="fill-rule:nonzero;"/>
        <path d="M412.026,389.006L391.002,389.006L391.002,434.078L385.026,434.078L385.026,383.678L412.026,383.678L412.026,389.006Z" style="fill-rule:nonzero;"/>
        <path d="M434.634,431.198C433.194,432.35 431.382,433.262 429.198,433.934C427.014,434.606 424.698,434.942 422.25,434.942C419.514,434.942 417.138,434.498 415.122,433.61C413.106,432.722 411.45,431.45 410.154,429.794C408.858,428.138 407.898,426.158 407.274,423.854C406.65,421.55 406.338,418.958 406.338,416.078C406.338,409.934 407.706,405.254 410.442,402.038C413.178,398.822 417.09,397.214 422.178,397.214C423.81,397.214 425.442,397.394 427.074,397.754C428.706,398.114 430.17,398.798 431.466,399.806C432.762,400.814 433.818,402.242 434.634,404.09C435.45,405.938 435.858,408.374 435.858,411.398C435.858,412.982 435.714,414.734 435.426,416.654L412.314,416.654C412.314,418.766 412.53,420.638 412.962,422.27C413.394,423.902 414.066,425.282 414.978,426.41C415.89,427.538 417.078,428.402 418.542,429.002C420.006,429.602 421.794,429.902 423.906,429.902C425.538,429.902 427.17,429.614 428.802,429.038C430.434,428.462 431.658,427.79 432.474,427.022L434.634,431.198ZM422.25,402.254C419.418,402.254 417.15,402.998 415.446,404.486C413.742,405.974 412.722,408.518 412.386,412.118L430.242,412.118C430.242,408.47 429.546,405.914 428.154,404.45C426.762,402.986 424.794,402.254 422.25,402.254Z" style="fill-rule:nonzero;"/>
        <path d="M442.914,416.078C442.914,409.982 444.27,405.314 446.982,402.074C449.694,398.834 453.594,397.214 458.682,397.214C461.37,397.214 463.71,397.658 465.702,398.546C467.694,399.434 469.338,400.706 470.634,402.362C471.93,404.018 472.89,406.01 473.514,408.338C474.138,410.666 474.45,413.246 474.45,416.078C474.45,422.174 473.094,426.842 470.382,430.082C467.67,433.322 463.77,434.942 458.682,434.942C455.994,434.942 453.654,434.498 451.662,433.61C449.67,432.722 448.026,431.45 446.73,429.794C445.434,428.138 444.474,426.146 443.85,423.818C443.226,421.49 442.914,418.91 442.914,416.078ZM448.89,416.078C448.89,417.902 449.07,419.654 449.43,421.334C449.79,423.014 450.354,424.478 451.122,425.726C451.89,426.974 452.898,427.982 454.146,428.75C455.394,429.518 456.906,429.902 458.682,429.902C465.21,429.95 468.474,425.342 468.474,416.078C468.474,414.206 468.294,412.43 467.934,410.75C467.574,409.07 467.01,407.606 466.242,406.358C465.474,405.11 464.466,404.114 463.218,403.37C461.97,402.626 460.458,402.254 458.682,402.254C452.154,402.206 448.89,406.814 448.89,416.078Z" style="fill-rule:nonzero;"/>
        <path d="M513.258,412.694L513.69,405.854L513.33,405.854L510.738,411.398L502.026,425.51L500.01,425.51L490.938,411.398L488.562,405.854L488.274,405.854L488.85,412.622L488.85,434.078L483.522,434.078L483.522,398.078L489.21,398.078L499.29,414.206L501.378,418.382L501.522,418.382L503.682,414.062L513.114,398.078L518.874,398.078L518.874,434.078L513.258,434.078L513.258,412.694Z" style="fill-rule:nonzero;"/>
        <path d="M556.242,431.198C554.802,432.35 552.99,433.262 550.806,433.934C548.622,434.606 546.306,434.942 543.858,434.942C541.122,434.942 538.746,434.498 536.73,433.61C534.714,432.722 533.058,431.45 531.762,429.794C530.466,428.138 529.506,426.158 528.882,423.854C528.258,421.55 527.946,418.958 527.946,416.078C527.946,409.934 529.314,405.254 532.05,402.038C534.786,398.822 538.698,397.214 543.786,397.214C545.418,397.214 547.05,397.394 548.682,397.754C550.314,398.114 551.778,398.798 553.074,399.806C554.37,400.814 555.426,402.242 556.242,404.09C557.058,405.938 557.466,408.374 557.466,411.398C557.466,412.982 557.322,414.734 557.034,416.654L533.922,416.654C533.922,418.766 534.138,420.638 534.57,422.27C535.002,423.902 535.674,425.282 536.586,426.41C537.498,427.538 538.686,428.402 540.15,429.002C541.614,429.602 543.402,429.902 545.514,429.902C547.146,429.902 548.778,429.614 550.41,429.038C552.042,428.462 553.266,427.79 554.082,427.022L556.242,431.198ZM543.858,402.254C541.026,402.254 538.758,402.998 537.054,404.486C535.35,405.974 534.33,408.518 533.994,412.118L551.85,412.118C551.85,408.47 551.154,405.914 549.762,404.45C548.37,402.986 546.402,402.254 543.858,402.254Z" style="fill-rule:nonzero;"/>
        <path d="M589.434,403.118L578.202,403.118L578.202,434.078L572.442,434.078L572.442,403.118L561.21,403.118L561.21,398.078L589.434,398.078L589.434,403.118Z" style="fill-rule:nonzero;"/>
        <path d="M595.122,398.078L599.082,398.078L600.162,402.398L600.45,402.398C601.554,400.718 602.982,399.434 604.734,398.546C606.486,397.658 608.49,397.214 610.746,397.214C615.546,397.214 619.122,398.63 621.474,401.462C623.826,404.294 625.002,408.926 625.002,415.358C625.002,418.382 624.606,421.106 623.814,423.53C623.022,425.954 621.906,428.006 620.466,429.686C619.026,431.366 617.286,432.662 615.246,433.574C613.206,434.486 610.938,434.942 608.442,434.942C606.666,434.942 605.262,434.834 604.23,434.618C603.198,434.402 602.082,434.03 600.882,433.502L600.882,448.478L595.122,448.478L595.122,398.078ZM609.666,402.254C607.218,402.254 605.286,402.89 603.87,404.162C602.454,405.434 601.458,407.366 600.882,409.958L600.882,427.814C601.746,428.486 602.73,429.002 603.834,429.362C604.938,429.722 606.402,429.902 608.226,429.902C611.538,429.902 614.166,428.666 616.11,426.194C618.054,423.722 619.026,420.086 619.026,415.286C619.026,413.318 618.858,411.53 618.522,409.922C618.186,408.314 617.646,406.946 616.902,405.818C616.158,404.69 615.198,403.814 614.022,403.19C612.846,402.566 611.394,402.254 609.666,402.254Z" style="fill-rule:nonzero;"/>
        <path d="M656.538,412.766L656.754,408.302L656.538,408.302L653.586,412.91L637.386,434.078L634.074,434.078L634.074,398.078L639.834,398.078L639.834,420.038L639.618,424.286L639.906,424.286L642.714,419.822L658.914,398.078L662.298,398.078L662.298,434.078L656.538,434.078L656.538,412.766Z" style="fill-rule:nonzero;"/>
        <path d="M677.13,398.078L677.13,407.87C677.13,409.166 677.202,410.33 677.346,411.362C677.49,412.394 677.778,413.282 678.21,414.026C678.642,414.77 679.266,415.346 680.082,415.754C680.898,416.162 681.978,416.366 683.322,416.366C685.482,416.366 687.258,416.126 688.65,415.646C690.042,415.166 691.098,414.638 691.818,414.062L691.818,398.078L697.578,398.078L697.578,434.078L691.818,434.078L691.818,418.958C691.05,419.438 689.91,419.966 688.398,420.542C686.886,421.118 684.81,421.406 682.17,421.406C680.394,421.406 678.834,421.214 677.49,420.83C676.146,420.446 675.018,419.774 674.106,418.814C673.194,417.854 672.51,416.582 672.054,414.998C671.598,413.414 671.37,411.422 671.37,409.022L671.37,398.078L677.13,398.078Z" style="fill-rule:nonzero;"/>
        <path d="M734.946,431.198C733.506,432.35 731.694,433.262 729.51,433.934C727.326,434.606 725.01,434.942 722.562,434.942C719.826,434.942 717.45,434.498 715.434,433.61C713.418,432.722 711.762,431.45 710.466,429.794C709.17,428.138 708.21,426.158 707.586,423.854C706.962,421.55 706.65,418.958 706.65,416.078C706.65,409.934 708.018,405.254 710.754,402.038C713.49,398.822 717.402,397.214 722.49,397.214C724.122,397.214 725.754,397.394 727.386,397.754C729.018,398.114 730.482,398.798 731.778,399.806C733.074,400.814 734.13,402.242 734.946,404.09C735.762,405.938 736.17,408.374 736.17,411.398C736.17,412.982 736.026,414.734 735.738,416.654L712.626,416.654C712.626,418.766 712.842,420.638 713.274,422.27C713.706,423.902 714.378,425.282 715.29,426.41C716.202,427.538 717.39,428.402 718.854,429.002C720.318,429.602 722.106,429.902 724.218,429.902C725.85,429.902 727.482,429.614 729.114,429.038C730.746,428.462 731.97,427.79 732.786,427.022L734.946,431.198ZM722.562,402.254C719.73,402.254 717.462,402.998 715.758,404.486C714.054,405.974 713.034,408.518 712.698,412.118L730.554,412.118C730.554,408.47 729.858,405.914 728.466,404.45C727.074,402.986 725.106,402.254 722.562,402.254Z" style="fill-rule:nonzero;"/>
        <path d="M769.794,431.702C768.354,432.758 766.65,433.562 764.682,434.114C762.714,434.666 760.65,434.942 758.49,434.942C755.706,434.942 753.354,434.498 751.434,433.61C749.514,432.722 747.942,431.45 746.718,429.794C745.494,428.138 744.606,426.146 744.054,423.818C743.502,421.49 743.226,418.91 743.226,416.078C743.226,409.982 744.57,405.314 747.258,402.074C749.946,398.834 753.81,397.214 758.85,397.214C761.154,397.214 763.11,397.394 764.718,397.754C766.326,398.114 767.778,398.63 769.074,399.302L767.418,404.27C766.314,403.646 765.09,403.154 763.746,402.794C762.402,402.434 760.962,402.254 759.426,402.254C752.61,402.254 749.202,406.862 749.202,416.078C749.202,417.902 749.382,419.642 749.742,421.298C750.102,422.954 750.702,424.418 751.542,425.69C752.382,426.962 753.486,427.982 754.854,428.75C756.222,429.518 757.914,429.902 759.93,429.902C761.658,429.902 763.206,429.638 764.574,429.11C765.942,428.582 767.058,427.982 767.922,427.31L769.794,431.702Z" style="fill-rule:nonzero;"/>
        <path d="M786.786,417.878L783.474,417.878L783.474,434.078L777.714,434.078L777.714,398.078L783.474,398.078L783.474,414.35L786.57,413.342L798.09,398.078L804.354,398.078L793.194,412.55L790.17,414.926L793.914,417.806L805.938,434.078L798.81,434.078L786.786,417.878Z" style="fill-rule:nonzero;"/>
        <path d="M834.594,412.766L834.81,408.302L834.594,408.302L831.642,412.91L815.442,434.078L812.13,434.078L812.13,398.078L817.89,398.078L817.89,420.038L817.674,424.286L817.962,424.286L820.77,419.822L836.97,398.078L840.354,398.078L840.354,434.078L834.594,434.078L834.594,412.766Z" style="fill-rule:nonzero;"/>
        <path d="M873.906,412.766L874.122,408.302L873.906,408.302L870.954,412.91L854.754,434.078L851.442,434.078L851.442,398.078L857.202,398.078L857.202,420.038L856.986,424.286L857.274,424.286L860.082,419.822L876.282,398.078L879.666,398.078L879.666,434.078L873.906,434.078L873.906,412.766ZM859.722,383.534C860.202,385.742 861.03,387.278 862.206,388.142C863.382,389.006 864.738,389.438 866.274,389.438C867.81,389.438 869.178,388.982 870.378,388.07C871.578,387.158 872.394,385.67 872.826,383.606L877.146,384.974C876.714,387.758 875.478,389.894 873.438,391.382C871.398,392.87 868.962,393.614 866.13,393.614C864.834,393.614 863.55,393.446 862.278,393.11C861.006,392.774 859.866,392.27 858.858,391.598C857.85,390.926 856.986,390.062 856.266,389.006C855.546,387.95 855.066,386.702 854.826,385.262L859.722,383.534Z" style="fill-rule:nonzero;"/>
        <path d="M907.962,416.078C907.962,409.982 909.318,405.314 912.03,402.074C914.742,398.834 918.642,397.214 923.73,397.214C926.418,397.214 928.758,397.658 930.75,398.546C932.742,399.434 934.386,400.706 935.682,402.362C936.978,404.018 937.938,406.01 938.562,408.338C939.186,410.666 939.498,413.246 939.498,416.078C939.498,422.174 938.142,426.842 935.43,430.082C932.718,433.322 928.818,434.942 923.73,434.942C921.042,434.942 918.702,434.498 916.71,433.61C914.718,432.722 913.074,431.45 911.778,429.794C910.482,428.138 909.522,426.146 908.898,423.818C908.274,421.49 907.962,418.91 907.962,416.078ZM913.938,416.078C913.938,417.902 914.118,419.654 914.478,421.334C914.838,423.014 915.402,424.478 916.17,425.726C916.938,426.974 917.946,427.982 919.194,428.75C920.442,429.518 921.954,429.902 923.73,429.902C930.258,429.95 933.522,425.342 933.522,416.078C933.522,414.206 933.342,412.43 932.982,410.75C932.622,409.07 932.058,407.606 931.29,406.358C930.522,405.11 929.514,404.114 928.266,403.37C927.018,402.626 925.506,402.254 923.73,402.254C917.202,402.206 913.938,406.814 913.938,416.078Z" style="fill-rule:nonzero;"/>
        <path d="M951.882,404.486C953.466,402.182 955.218,400.562 957.138,399.626C959.058,398.69 961.458,398.222 964.338,398.222C968.754,398.222 972.15,399.662 974.526,402.542C976.902,405.422 978.09,409.67 978.09,415.286C978.09,421.766 976.71,426.662 973.95,429.974C971.19,433.286 967.338,434.942 962.394,434.942C957.114,434.942 953.154,433.118 950.514,429.47C947.874,425.822 946.554,420.086 946.554,412.262C946.554,408.134 946.758,404.606 947.166,401.678C947.574,398.75 948.174,396.278 948.966,394.262C949.758,392.246 950.718,390.638 951.846,389.438C952.974,388.238 954.246,387.29 955.662,386.594C957.078,385.898 958.626,385.406 960.306,385.118C961.986,384.83 963.786,384.59 965.706,384.398C968.202,384.158 970.158,383.882 971.574,383.57C972.99,383.258 974.13,382.694 974.994,381.878L975.642,387.062C975.162,387.494 974.634,387.854 974.058,388.142C973.482,388.43 972.786,388.67 971.97,388.862C971.154,389.054 970.182,389.222 969.054,389.366C967.926,389.51 966.618,389.63 965.13,389.726C963.066,389.87 961.254,390.122 959.694,390.482C958.134,390.842 956.79,391.538 955.662,392.57C954.534,393.602 953.646,395.066 952.998,396.962C952.35,398.858 951.906,401.366 951.666,404.486L951.882,404.486ZM952.53,416.15C952.53,417.974 952.722,419.726 953.106,421.406C953.49,423.086 954.078,424.562 954.87,425.834C955.662,427.106 956.682,428.102 957.93,428.822C959.178,429.542 960.642,429.902 962.322,429.902C965.634,429.902 968.094,428.714 969.702,426.338C971.31,423.962 972.114,420.446 972.114,415.79C972.114,413.966 971.946,412.286 971.61,410.75C971.274,409.214 970.746,407.882 970.026,406.754C969.306,405.626 968.394,404.762 967.29,404.162C966.186,403.562 964.866,403.262 963.33,403.262C959.586,403.214 956.85,404.306 955.122,406.538C953.394,408.77 952.53,411.974 952.53,416.15Z" style="fill-rule:nonzero;"/>
        <path d="M995.37,429.038C997.242,429.326 998.922,429.47 1000.41,429.47C1003.43,429.47 1005.67,428.882 1007.11,427.706C1008.55,426.53 1009.27,424.862 1009.27,422.702C1009.27,420.782 1008.57,419.198 1007.18,417.95C1005.79,416.702 1003.6,416.078 1000.63,416.078C999.81,416.078 998.946,416.102 998.034,416.15C997.122,416.198 996.234,416.342 995.37,416.582L995.37,429.038ZM995.37,411.83C996.522,411.638 997.614,411.506 998.646,411.434C999.678,411.362 1000.67,411.326 1001.63,411.326C1004.13,411.326 1006.24,411.602 1007.97,412.154C1009.7,412.706 1011.1,413.462 1012.18,414.422C1013.26,415.382 1014.04,416.522 1014.52,417.842C1015,419.162 1015.24,420.566 1015.24,422.054C1015.24,426.422 1013.93,429.59 1011.32,431.558C1008.7,433.526 1004.63,434.51 999.114,434.51C997.53,434.51 995.97,434.474 994.434,434.402C992.898,434.33 991.29,434.222 989.61,434.078L989.61,403.118L981.69,403.118L981.69,398.078L995.37,398.078L995.37,411.83Z" style="fill-rule:nonzero;"/>
        <path d="M1049.23,431.198C1047.79,432.35 1045.97,433.262 1043.79,433.934C1041.61,434.606 1039.29,434.942 1036.84,434.942C1034.11,434.942 1031.73,434.498 1029.71,433.61C1027.7,432.722 1026.04,431.45 1024.75,429.794C1023.45,428.138 1022.49,426.158 1021.87,423.854C1021.24,421.55 1020.93,418.958 1020.93,416.078C1020.93,409.934 1022.3,405.254 1025.03,402.038C1027.77,398.822 1031.68,397.214 1036.77,397.214C1038.4,397.214 1040.03,397.394 1041.67,397.754C1043.3,398.114 1044.76,398.798 1046.06,399.806C1047.35,400.814 1048.41,402.242 1049.23,404.09C1050.04,405.938 1050.45,408.374 1050.45,411.398C1050.45,412.982 1050.31,414.734 1050.02,416.654L1026.91,416.654C1026.91,418.766 1027.12,420.638 1027.55,422.27C1027.99,423.902 1028.66,425.282 1029.57,426.41C1030.48,427.538 1031.67,428.402 1033.13,429.002C1034.6,429.602 1036.39,429.902 1038.5,429.902C1040.13,429.902 1041.76,429.614 1043.39,429.038C1045.03,428.462 1046.25,427.79 1047.07,427.022L1049.23,431.198ZM1036.84,402.254C1034.01,402.254 1031.74,402.998 1030.04,404.486C1028.33,405.974 1027.31,408.518 1026.98,412.118L1044.83,412.118C1044.83,408.47 1044.14,405.914 1042.75,404.45C1041.35,402.986 1039.39,402.254 1036.84,402.254Z" style="fill-rule:nonzero;"/>
        <path d="M1068.59,417.878L1065.28,417.878L1065.28,434.078L1059.52,434.078L1059.52,398.078L1065.28,398.078L1065.28,414.35L1068.38,413.342L1079.9,398.078L1086.16,398.078L1075,412.55L1071.98,414.926L1075.72,417.806L1087.75,434.078L1080.62,434.078L1068.59,417.878Z" style="fill-rule:nonzero;"/>
        <path d="M1116.83,403.118L1105.6,403.118L1105.6,434.078L1099.84,434.078L1099.84,403.118L1088.61,403.118L1088.61,398.078L1116.83,398.078L1116.83,403.118Z" style="fill-rule:nonzero;"/>
        <circle cx="39.5" cy="642.209" r="21.5" style="fill-opacity:0.83;stroke:rgb(250,112,255);stroke-width:14px;"/>
        <circle cx="39.5" cy="144.243" r="14.5" style="fill-opacity:0.83;"/>
        <path d="M181,726.65L474.853,600.767L727.178,645.591" style="fill:none;stroke:rgb(250,112,255);stroke-width:24px;"/>
        <path d="M829,702.754L1033,512.969L1279,628.045L1127,849.448L829,702.754ZM960,668.746L1076,598.43L1157,702.754L1059,747.16L960,668.746Z" style="fill:rgb(194,194,194);stroke:rgb(250,112,255);stroke-width:24px;"/>
        <path d="M181,726.65L474.853,600.767L727.178,645.591" style="fill:none;stroke:black;stroke-width:7px;"/>
        <path d="M181,229.911L474.853,104.028L727.178,148.851" style="fill:none;stroke:black;stroke-width:7px;"/>
        <path d="M181,1311.74L474.853,1185.86L727.178,1230.68" style="fill:none;stroke:black;stroke-width:7px;"/>
        <path d="M829,702.754L1033,512.969L1279,628.045L1127,849.448L829,702.754ZM960,668.746L1076,598.43L1157,702.754L1059,747.16L960,668.746Z" style="fill:none;stroke:black;stroke-width:7px;"/>
        <path d="M829,206.014L1033,16.23L1279,131.305L1127,352.709L829,206.014ZM960,172.006L1076,101.691L1157,206.014L1059,250.421L960,172.006Z" style="fill:rgb(194,194,194);stroke:black;stroke-width:7px;"/>
        <path d="M105,942.818L301,942.818" style="fill:none;stroke:rgb(250,112,255);stroke-width:20px;"/>
        <path d="M105,416.078L301,416.078" style="fill:none;stroke:black;stroke-width:7px;"/>
    </g>
</svg>
