<?xml version="1.0" encoding="UTF-8" standalone="no"?>
<!DOCTYPE svg PUBLIC "-//W3C//DTD SVG 1.1//EN" "http://www.w3.org/Graphics/SVG/1.1/DTD/svg11.dtd">
<svg width="100%" height="100%" viewBox="0 0 151 207" version="1.1" xmlns="http://www.w3.org/2000/svg" xmlns:xlink="http://www.w3.org/1999/xlink" xml:space="preserve" xmlns:serif="http://www.serif.com/" style="fill-rule:evenodd;clip-rule:evenodd;stroke-linejoin:round;stroke-miterlimit:1.5;">
    <g transform="matrix(1,0,0,1,-6083,-3882)">
        <g id="Artboard2" transform="matrix(1,0,0,1,0,-0.319317)">
            <rect x="5322" y="3318.32" width="1962" height="1184" style="fill:none;"/>
            <g transform="matrix(1.52209,0,0,1.52209,5022.93,3432.81)">
                <g transform="matrix(24.7733,0,0,24.7733,694.725,317.132)">
                    <path d="M0.533,-0.029C0.513,-0.014 0.488,-0.003 0.457,0.003C0.426,0.009 0.394,0.012 0.359,0.012C0.317,0.012 0.278,0.005 0.241,-0.01C0.204,-0.024 0.172,-0.046 0.145,-0.075C0.118,-0.104 0.096,-0.142 0.08,-0.188C0.064,-0.233 0.056,-0.287 0.056,-0.35C0.056,-0.415 0.065,-0.471 0.083,-0.517C0.1,-0.562 0.124,-0.6 0.153,-0.629C0.182,-0.658 0.214,-0.679 0.25,-0.692C0.286,-0.705 0.323,-0.712 0.36,-0.712C0.4,-0.712 0.433,-0.71 0.458,-0.706C0.483,-0.701 0.505,-0.695 0.523,-0.688L0.503,-0.615C0.471,-0.63 0.425,-0.638 0.366,-0.638C0.339,-0.638 0.312,-0.633 0.285,-0.623C0.258,-0.613 0.235,-0.597 0.214,-0.574C0.193,-0.551 0.176,-0.522 0.163,-0.485C0.15,-0.448 0.144,-0.403 0.144,-0.35C0.144,-0.302 0.15,-0.26 0.162,-0.224C0.174,-0.188 0.191,-0.158 0.212,-0.134C0.233,-0.11 0.257,-0.092 0.286,-0.08C0.314,-0.068 0.345,-0.062 0.378,-0.062C0.408,-0.062 0.434,-0.065 0.457,-0.071C0.479,-0.077 0.498,-0.085 0.513,-0.094L0.533,-0.029Z" style="fill-rule:nonzero;"/>
                </g>
                <g transform="matrix(24.7733,0,0,24.7733,708.87,317.132)">
                    <path d="M0.056,-0.35C0.056,-0.467 0.081,-0.556 0.13,-0.619C0.179,-0.681 0.25,-0.712 0.341,-0.712C0.39,-0.712 0.433,-0.703 0.469,-0.686C0.505,-0.669 0.535,-0.644 0.559,-0.613C0.582,-0.581 0.6,-0.543 0.611,-0.499C0.622,-0.454 0.628,-0.405 0.628,-0.35C0.628,-0.233 0.603,-0.144 0.554,-0.082C0.504,-0.019 0.433,0.012 0.341,0.012C0.292,0.012 0.25,0.003 0.215,-0.014C0.179,-0.031 0.149,-0.056 0.126,-0.088C0.102,-0.119 0.084,-0.157 0.073,-0.202C0.062,-0.246 0.056,-0.295 0.056,-0.35ZM0.144,-0.35C0.144,-0.311 0.148,-0.275 0.156,-0.24C0.163,-0.205 0.175,-0.175 0.191,-0.149C0.207,-0.122 0.228,-0.101 0.253,-0.086C0.278,-0.07 0.307,-0.062 0.341,-0.062C0.403,-0.062 0.452,-0.086 0.487,-0.133C0.522,-0.18 0.54,-0.252 0.54,-0.35C0.54,-0.388 0.536,-0.425 0.529,-0.46C0.521,-0.495 0.509,-0.525 0.493,-0.552C0.476,-0.578 0.456,-0.599 0.431,-0.615C0.405,-0.63 0.376,-0.638 0.341,-0.638C0.28,-0.638 0.232,-0.615 0.197,-0.568C0.162,-0.521 0.144,-0.448 0.144,-0.35Z" style="fill-rule:nonzero;"/>
                </g>
                <g transform="matrix(24.7733,0,0,24.7733,725.815,317.132)">
                    <path d="M0.267,-0.219L0.291,-0.113L0.292,-0.113L0.318,-0.221L0.487,-0.7L0.57,-0.7L0.305,0.011L0.268,0.011L-0.002,-0.7L0.089,-0.7L0.267,-0.219Z" style="fill-rule:nonzero;"/>
                </g>
                <g transform="matrix(24.7733,0,0,24.7733,739.886,317.132)">
                    <path d="M0.085,-0.7L0.466,-0.7L0.466,-0.626L0.168,-0.626L0.168,-0.397L0.441,-0.397L0.441,-0.323L0.168,-0.323L0.168,-0.074L0.471,-0.074L0.471,-0L0.085,-0L0.085,-0.7Z" style="fill-rule:nonzero;"/>
                </g>
                <g transform="matrix(24.7733,0,0,24.7733,753.165,317.132)">
                    <path d="M0.085,-0.693C0.11,-0.698 0.139,-0.701 0.173,-0.704C0.206,-0.707 0.236,-0.708 0.263,-0.708C0.294,-0.708 0.323,-0.705 0.351,-0.698C0.378,-0.691 0.403,-0.68 0.424,-0.665C0.444,-0.65 0.461,-0.63 0.474,-0.605C0.487,-0.58 0.493,-0.55 0.493,-0.515C0.493,-0.46 0.478,-0.416 0.448,-0.382C0.418,-0.348 0.38,-0.325 0.334,-0.314L0.382,-0.277L0.556,-0L0.459,-0L0.266,-0.302L0.168,-0.317L0.168,-0L0.085,-0L0.085,-0.693ZM0.265,-0.636L0.238,-0.636C0.229,-0.636 0.22,-0.636 0.211,-0.635C0.202,-0.634 0.194,-0.634 0.187,-0.633C0.179,-0.632 0.173,-0.631 0.168,-0.63L0.168,-0.372L0.246,-0.372C0.292,-0.372 0.33,-0.383 0.36,-0.406C0.39,-0.429 0.405,-0.464 0.405,-0.512C0.405,-0.548 0.393,-0.578 0.368,-0.601C0.343,-0.624 0.309,-0.636 0.265,-0.636Z" style="fill-rule:nonzero;"/>
                </g>
                <g transform="matrix(24.7733,0,0,24.7733,767.905,317.132)">
                    <path d="M0.085,-0.7L0.466,-0.7L0.466,-0.626L0.168,-0.626L0.168,-0.397L0.441,-0.397L0.441,-0.323L0.168,-0.323L0.168,-0.074L0.471,-0.074L0.471,-0L0.085,-0L0.085,-0.7Z" style="fill-rule:nonzero;"/>
                </g>
                <g transform="matrix(24.7733,0,0,24.7733,781.184,317.132)">
                    <path d="M0.085,-0.7C0.098,-0.702 0.112,-0.704 0.128,-0.705C0.143,-0.705 0.16,-0.706 0.177,-0.707C0.194,-0.707 0.21,-0.707 0.227,-0.708C0.243,-0.708 0.258,-0.708 0.272,-0.708C0.328,-0.708 0.377,-0.699 0.418,-0.682C0.459,-0.665 0.492,-0.641 0.519,-0.61C0.546,-0.579 0.566,-0.541 0.579,-0.498C0.592,-0.455 0.598,-0.407 0.598,-0.355C0.598,-0.308 0.592,-0.262 0.58,-0.219C0.567,-0.175 0.548,-0.136 0.521,-0.103C0.494,-0.069 0.46,-0.042 0.417,-0.022C0.374,-0.001 0.323,0.009 0.262,0.009C0.251,0.009 0.238,0.009 0.221,0.009C0.204,0.008 0.186,0.008 0.168,0.007C0.15,0.006 0.133,0.005 0.118,0.004C0.103,0.003 0.092,0.002 0.085,0.001L0.085,-0.7ZM0.274,-0.634L0.246,-0.634C0.235,-0.634 0.225,-0.634 0.215,-0.633C0.205,-0.632 0.196,-0.632 0.188,-0.631C0.179,-0.63 0.173,-0.63 0.168,-0.629L0.168,-0.069C0.171,-0.068 0.178,-0.068 0.187,-0.068L0.245,-0.066C0.254,-0.065 0.261,-0.065 0.264,-0.065C0.311,-0.065 0.35,-0.073 0.382,-0.089C0.413,-0.105 0.439,-0.127 0.458,-0.154C0.476,-0.181 0.49,-0.212 0.498,-0.247C0.506,-0.282 0.51,-0.318 0.51,-0.355C0.51,-0.388 0.506,-0.421 0.499,-0.454C0.492,-0.487 0.479,-0.516 0.461,-0.543C0.443,-0.57 0.419,-0.592 0.389,-0.609C0.358,-0.626 0.32,-0.634 0.274,-0.634Z" style="fill-rule:nonzero;"/>
                </g>
            </g>
            <g transform="matrix(1,0,0,1,-2.4037,-1.17724)">
                <g transform="matrix(1.64352,0,0,1.64352,4969.86,456.069)">
                    <rect x="684" y="2145" width="39.714" height="39.714" style="fill:rgb(224,224,224);stroke:black;stroke-width:4.87px;"/>
                </g>
                <g transform="matrix(3.37326,0,0,3.37326,3786.61,-3288.12)">
                    <rect x="684" y="2145" width="39.714" height="39.714" style="fill:none;stroke:black;stroke-width:1.19px;"/>
                </g>
                <g transform="matrix(0.798768,0,0,0.798768,5822.41,2461.66)">
                    <g transform="matrix(36,0,0,36,368.503,1953.88)">
                        <path d="M0.292,-0.766L0.412,-0.766L0.683,-0L0.525,-0L0.446,-0.239L0.219,-0.239L0.143,-0L0.016,-0L0.292,-0.766ZM0.247,-0.337L0.421,-0.337L0.336,-0.614L0.247,-0.337Z" style="fill-rule:nonzero;"/>
                    </g>
                </g>
                <g transform="matrix(0.798768,0,0,0.798768,5891.55,2461.82)">
                    <g transform="matrix(36,0,0,36,368.503,1953.88)">
                        <path d="M0.318,-0.765C0.356,-0.765 0.391,-0.761 0.422,-0.752C0.453,-0.744 0.48,-0.731 0.501,-0.715C0.523,-0.699 0.54,-0.679 0.551,-0.655C0.563,-0.631 0.569,-0.604 0.569,-0.573C0.569,-0.554 0.565,-0.535 0.557,-0.517C0.55,-0.499 0.539,-0.482 0.526,-0.467C0.513,-0.452 0.498,-0.439 0.48,-0.427C0.463,-0.416 0.444,-0.408 0.424,-0.403C0.444,-0.399 0.465,-0.393 0.486,-0.383C0.507,-0.374 0.526,-0.361 0.543,-0.345C0.561,-0.328 0.575,-0.309 0.586,-0.285C0.597,-0.262 0.603,-0.235 0.603,-0.204C0.603,-0.178 0.597,-0.153 0.586,-0.128C0.575,-0.104 0.558,-0.082 0.535,-0.063C0.513,-0.044 0.485,-0.028 0.452,-0.017C0.418,-0.006 0.38,-0 0.337,-0L0.073,-0L0.074,-0.765L0.318,-0.765ZM0.208,-0.341L0.208,-0.099L0.311,-0.099C0.337,-0.099 0.36,-0.102 0.38,-0.109C0.4,-0.116 0.416,-0.125 0.429,-0.136C0.442,-0.147 0.451,-0.16 0.458,-0.174C0.464,-0.187 0.467,-0.201 0.467,-0.216C0.467,-0.233 0.464,-0.249 0.458,-0.264C0.451,-0.279 0.442,-0.293 0.429,-0.304C0.416,-0.315 0.399,-0.324 0.379,-0.331C0.358,-0.337 0.334,-0.341 0.305,-0.341L0.208,-0.341ZM0.208,-0.667L0.208,-0.439L0.279,-0.439C0.303,-0.439 0.325,-0.442 0.344,-0.446C0.364,-0.451 0.381,-0.458 0.395,-0.468C0.409,-0.477 0.419,-0.489 0.427,-0.504C0.434,-0.518 0.438,-0.535 0.438,-0.555C0.438,-0.574 0.435,-0.59 0.43,-0.604C0.424,-0.618 0.415,-0.63 0.402,-0.639C0.388,-0.648 0.371,-0.655 0.35,-0.66C0.328,-0.664 0.301,-0.667 0.27,-0.667L0.208,-0.667Z" style="fill-rule:nonzero;"/>
                    </g>
                </g>
            </g>
            <g transform="matrix(0.88568,0,0,0.897788,4596.53,2247.34)">
                <path d="M1632.73,1504L2509.34,1504L2509.34,2097.05L1353.14,2097.05L1353.14,1775.28L1632.73,1775.28L1632.73,1504Z" style="fill:none;stroke:black;stroke-width:5.61px;stroke-dasharray:5.61,11.21,0,0;"/>
            </g>
        </g>
    </g>
</svg>
