<?xml version="1.0" encoding="UTF-8" standalone="no"?>
<!DOCTYPE svg PUBLIC "-//W3C//DTD SVG 1.1//EN" "http://www.w3.org/Graphics/SVG/1.1/DTD/svg11.dtd">
<svg width="100%" height="100%" viewBox="0 0 1014 477" version="1.1" xmlns="http://www.w3.org/2000/svg" xmlns:xlink="http://www.w3.org/1999/xlink" xml:space="preserve" xmlns:serif="http://www.serif.com/" style="fill-rule:evenodd;clip-rule:evenodd;stroke-linejoin:round;stroke-miterlimit:10;">
    <g transform="matrix(1,0,0,1,-1543,-8906)">
        <rect id="Networks" x="0" y="8209" width="2985" height="2153" style="fill:none;"/>
        <g id="Networks1" serif:id="Networks">
            <path d="M1664.01,9023.84L1575,8994" style="fill:none;stroke:black;stroke-width:12px;"/>
            <path d="M1900.16,9280.11L2000,9266.01" style="fill:none;stroke:black;stroke-width:12px;"/>
            <g transform="matrix(0.981533,0,0,1,119.345,0)">
                <path d="M1575,9023L1636.7,9300.5" style="fill:none;stroke:rgb(5,126,255);stroke-width:13.12px;"/>
            </g>
            <g transform="matrix(0.981533,0,0,1,119.345,0)">
                <path d="M1636.7,9300.5L1575,9354" style="fill:none;stroke:black;stroke-width:12.11px;"/>
            </g>
            <g transform="matrix(0.981533,0,0,1,238.831,0)">
                <path d="M1575,8943L1575,9354" style="fill:none;stroke:black;stroke-width:12.11px;"/>
            </g>
            <g transform="matrix(0.981533,0,0,1,354.949,0)">
                <path d="M1615.75,8943L1575,9023" style="fill:none;stroke:black;stroke-width:12.11px;"/>
            </g>
            <g transform="matrix(0.981533,0,0,1,354.949,0)">
                <path d="M1575,9023L1575,9282.51" style="fill:none;stroke:rgb(5,126,255);stroke-width:13.12px;"/>
            </g>
            <g transform="matrix(1.28076,0,0,1,-442.197,-411)">
                <path d="M1575,9354L1906.99,9354" style="fill:none;stroke:rgb(255,112,112);stroke-width:11.31px;"/>
            </g>
            <g transform="matrix(1.28076,0,0,1,-442.197,-331.004)">
                <path d="M1645.91,9354L1829.32,9354" style="fill:none;stroke:rgb(5,126,255);stroke-width:11.31px;"/>
            </g>
            <g transform="matrix(1.28076,0,0,1,-442.197,-79.4384)">
                <path d="M1692.76,9379.94L1829.43,9361.94" style="fill:none;stroke:rgb(5,126,255);stroke-width:11.31px;"/>
            </g>
            <g transform="matrix(1.28076,0,0,1,-442.197,-146.62)">
                <path d="M1575,9354L1906.99,9354" style="fill:none;stroke:black;stroke-width:10.44px;"/>
            </g>
            <g transform="matrix(1.28076,0,0,1,-442.197,-255.386)">
                <path d="M1575,9354L1906.99,9392" style="fill:none;stroke:black;stroke-width:10.44px;"/>
            </g>
            <g transform="matrix(5.97247e-17,0.975379,-0.975379,5.97247e-17,11190.1,6980.65)">
                <circle cx="2215" cy="9098.61" r="223.386" style="fill:white;stroke:rgb(255,112,112);stroke-width:12.3px;"/>
            </g>
            <g transform="matrix(3.72477e-17,0.608301,-0.608301,3.72477e-17,7850.19,7793.73)">
                <circle cx="2215" cy="9098.61" r="223.386" style="fill:white;stroke:rgb(5,126,255);stroke-width:19.73px;"/>
            </g>
            <g transform="matrix(6.12323e-17,1,-1,6.12323e-17,11456.6,6825.61)">
                <path d="M2315.5,8923.23L2315.5,9359" style="fill:none;stroke:black;stroke-width:12px;"/>
            </g>
            <g transform="matrix(6.12323e-17,1,-1,6.12323e-17,11456.6,6825.61)">
                <path d="M2315.5,9121.11L2514.46,9052.22" style="fill:none;stroke:black;stroke-width:12px;"/>
            </g>
            <g transform="matrix(6.12323e-17,1,-1,6.12323e-17,11456.6,6825.61)">
                <path d="M2315.5,9191.11L2514.46,9236.64" style="fill:none;stroke:black;stroke-width:12px;"/>
            </g>
            <g transform="matrix(6.12323e-17,1,-1,6.12323e-17,11456.6,6825.61)">
                <path d="M2315.5,9121.11L2111.47,9064.53" style="fill:none;stroke:black;stroke-width:12px;"/>
            </g>
            <g transform="matrix(6.12323e-17,1,-1,6.12323e-17,11456.6,6825.61)">
                <path d="M2315.5,9191.11L2135.7,9264.15" style="fill:none;stroke:black;stroke-width:12px;"/>
            </g>
            <g transform="matrix(6.12323e-17,1,-1,6.12323e-17,11456.6,6825.61)">
                <path d="M2257.78,9264.15L2220.55,9338.26" style="fill:none;stroke:black;stroke-width:12px;"/>
            </g>
            <g transform="matrix(6.12323e-17,1,-1,6.12323e-17,11456.6,6825.61)">
                <path d="M2371.29,9266.1L2422.31,9331.03" style="fill:none;stroke:black;stroke-width:12px;"/>
            </g>
            <g transform="matrix(6.12323e-17,1,-1,6.12323e-17,11456.6,6825.61)">
                <path d="M2384.79,9024.22L2427.58,8953.08" style="fill:none;stroke:black;stroke-width:12px;"/>
            </g>
            <g transform="matrix(6.12323e-17,1,-1,6.12323e-17,11456.6,6825.61)">
                <path d="M2226.31,9038.63L2148.99,9000.64" style="fill:none;stroke:black;stroke-width:12px;"/>
            </g>
            <g transform="matrix(0.981533,0,0,1,29.0855,0)">
                <path d="M1575,8943L1575,9354" style="fill:none;stroke:rgb(255,112,112);stroke-width:13.12px;"/>
            </g>
            <g transform="matrix(0.981533,0,0,1,454.291,0)">
                <path d="M1575,8943L1575,9354" style="fill:none;stroke:rgb(255,112,112);stroke-width:13.12px;"/>
            </g>
            <g transform="matrix(1.28076,0,0,1,-442.197,0)">
                <path d="M1575,9354L1906.99,9354" style="fill:none;stroke:rgb(255,112,112);stroke-width:11.31px;"/>
            </g>
            <g transform="matrix(0.701891,0,0,0.701891,1001.52,8629.64)">
                <circle cx="817.043" cy="446.457" r="20.095" style="fill:white;stroke:black;stroke-width:5.7px;stroke-linecap:round;stroke-miterlimit:1.5;"/>
            </g>
            <g transform="matrix(0.701891,0,0,0.701891,1001.52,9041.05)">
                <circle cx="817.043" cy="446.457" r="20.095" style="fill:white;stroke:black;stroke-width:5.7px;stroke-linecap:round;stroke-miterlimit:1.5;"/>
            </g>
            <g transform="matrix(0.701891,0,0,0.701891,1001.52,8895.55)">
                <circle cx="817.043" cy="446.457" r="20.095" style="fill:white;stroke:black;stroke-width:5.7px;stroke-linecap:round;stroke-miterlimit:1.5;"/>
            </g>
            <g transform="matrix(0.701891,0,0,0.701891,1001.52,8786.92)">
                <circle cx="817.043" cy="446.457" r="20.095" style="fill:white;stroke:black;stroke-width:5.7px;stroke-linecap:round;stroke-miterlimit:1.5;"/>
            </g>
            <g transform="matrix(0.701891,0,0,0.701891,1210.8,8629.64)">
                <circle cx="817.043" cy="446.457" r="20.095" style="fill:white;stroke:black;stroke-width:5.7px;stroke-linecap:round;stroke-miterlimit:1.5;"/>
            </g>
            <g transform="matrix(0.701891,0,0,0.701891,1425.97,8629.64)">
                <circle cx="817.043" cy="446.457" r="20.095" style="fill:white;stroke:black;stroke-width:5.7px;stroke-linecap:round;stroke-miterlimit:1.5;"/>
            </g>
            <g transform="matrix(0.701891,0,0,0.701891,1425.97,9041.05)">
                <circle cx="817.043" cy="446.457" r="20.095" style="fill:white;stroke:black;stroke-width:5.7px;stroke-linecap:round;stroke-miterlimit:1.5;"/>
            </g>
            <g transform="matrix(0.701891,0,0,0.701891,1092.4,9041.05)">
                <circle cx="817.043" cy="446.457" r="20.095" style="fill:white;stroke:black;stroke-width:5.7px;stroke-linecap:round;stroke-miterlimit:1.5;"/>
            </g>
            <g transform="matrix(0.701891,0,0,0.701891,1211.24,9041.05)">
                <circle cx="817.043" cy="446.457" r="20.095" style="fill:white;stroke:black;stroke-width:5.7px;stroke-linecap:round;stroke-miterlimit:1.5;"/>
            </g>
            <g transform="matrix(0.701891,0,0,0.701891,1365.74,8629.64)">
                <circle cx="817.043" cy="446.457" r="20.095" style="fill:white;stroke:black;stroke-width:5.7px;stroke-linecap:round;stroke-miterlimit:1.5;"/>
            </g>
            <g transform="matrix(0.701891,0,0,0.701891,1545.23,8732.8)">
                <circle cx="817.043" cy="446.457" r="20.095" style="fill:white;stroke:black;stroke-width:5.7px;stroke-linecap:round;stroke-miterlimit:1.5;"/>
            </g>
            <g transform="matrix(0.701891,0,0,0.701891,1552.11,8934.56)">
                <circle cx="817.043" cy="446.457" r="20.095" style="fill:white;stroke:black;stroke-width:5.7px;stroke-linecap:round;stroke-miterlimit:1.5;"/>
            </g>
            <g transform="matrix(0.701891,0,0,0.701891,1574.27,8685.59)">
                <circle cx="817.043" cy="446.457" r="20.095" style="fill:white;stroke:black;stroke-width:5.7px;stroke-linecap:round;stroke-miterlimit:1.5;"/>
            </g>
            <g transform="matrix(0.701891,0,0,0.701891,1528.14,8872.46)">
                <circle cx="817.043" cy="446.457" r="20.095" style="fill:white;stroke:black;stroke-width:5.7px;stroke-linecap:round;stroke-miterlimit:1.5;"/>
            </g>
            <g transform="matrix(0.701891,0,0,0.701891,1892.01,8987.8)">
                <circle cx="817.043" cy="446.457" r="20.095" style="fill:white;stroke:black;stroke-width:5.7px;stroke-linecap:round;stroke-miterlimit:1.5;"/>
            </g>
            <g transform="matrix(0.701891,0,0,0.701891,1937.25,8731.04)">
                <circle cx="817.043" cy="446.457" r="20.095" style="fill:white;stroke:black;stroke-width:5.7px;stroke-linecap:round;stroke-miterlimit:1.5;"/>
            </g>
            <g transform="matrix(0.701891,0,0,0.701891,1618.8,8647.95)">
                <circle cx="817.043" cy="446.457" r="20.095" style="fill:white;stroke:black;stroke-width:5.7px;stroke-linecap:round;stroke-miterlimit:1.5;"/>
            </g>
            <g transform="matrix(0.701891,0,0,0.701891,1818.77,8623.08)">
                <circle cx="817.043" cy="446.457" r="20.095" style="fill:white;stroke:black;stroke-width:5.7px;stroke-linecap:round;stroke-miterlimit:1.5;"/>
            </g>
            <g transform="matrix(0.701891,0,0,0.701891,1960.1,8827.66)">
                <circle cx="817.043" cy="446.457" r="20.095" style="fill:white;stroke:black;stroke-width:5.7px;stroke-linecap:round;stroke-miterlimit:1.5;"/>
            </g>
            <g transform="matrix(0.701891,0,0,0.701891,1930.93,8938.27)">
                <circle cx="817.043" cy="446.457" r="20.095" style="fill:white;stroke:black;stroke-width:5.7px;stroke-linecap:round;stroke-miterlimit:1.5;"/>
            </g>
            <g transform="matrix(0.701891,0,0,0.701891,1882.5,8658.84)">
                <circle cx="817.043" cy="446.457" r="20.095" style="fill:white;stroke:black;stroke-width:5.7px;stroke-linecap:round;stroke-miterlimit:1.5;"/>
            </g>
            <g transform="matrix(0.701891,0,0,0.701891,1832.54,9028.03)">
                <circle cx="817.043" cy="446.457" r="20.095" style="fill:white;stroke:black;stroke-width:5.7px;stroke-linecap:round;stroke-miterlimit:1.5;"/>
            </g>
            <g transform="matrix(0.701891,0,0,0.701891,1646.5,9026.71)">
                <circle cx="817.043" cy="446.457" r="20.095" style="fill:white;stroke:black;stroke-width:5.7px;stroke-linecap:round;stroke-miterlimit:1.5;"/>
            </g>
            <g transform="matrix(0.701891,0,0,0.701891,1522.57,8827.96)">
                <circle cx="817.043" cy="446.457" r="20.095" style="fill:white;stroke:black;stroke-width:5.7px;stroke-linecap:round;stroke-miterlimit:1.5;"/>
            </g>
            <g transform="matrix(0.701891,0,0,0.701891,1688.32,8825.98)">
                <circle cx="817.043" cy="446.457" r="20.095" style="fill:white;stroke:black;stroke-width:5.7px;stroke-linecap:round;stroke-miterlimit:1.5;"/>
            </g>
            <g transform="matrix(0.701891,0,0,0.701891,1761.55,8826.26)">
                <circle cx="817.043" cy="446.457" r="20.095" style="fill:white;stroke:black;stroke-width:5.7px;stroke-linecap:round;stroke-miterlimit:1.5;"/>
            </g>
            <g transform="matrix(0.701891,0,0,0.701891,1878,8826.26)">
                <circle cx="817.043" cy="446.457" r="20.095" style="fill:white;stroke:black;stroke-width:5.7px;stroke-linecap:round;stroke-miterlimit:1.5;"/>
            </g>
            <g transform="matrix(0.701891,0,0,0.701891,1858.61,8896.52)">
                <circle cx="817.043" cy="446.457" r="20.095" style="fill:white;stroke:black;stroke-width:5.7px;stroke-linecap:round;stroke-miterlimit:1.5;"/>
            </g>
            <g transform="matrix(0.701891,0,0,0.701891,1846.33,8739.24)">
                <circle cx="817.043" cy="446.457" r="20.095" style="fill:white;stroke:black;stroke-width:5.7px;stroke-linecap:round;stroke-miterlimit:1.5;"/>
            </g>
            <g transform="matrix(0.701891,0,0,0.701891,1803.85,8949.69)">
                <circle cx="817.043" cy="446.457" r="20.095" style="fill:white;stroke:black;stroke-width:5.7px;stroke-linecap:round;stroke-miterlimit:1.5;"/>
            </g>
            <g transform="matrix(0.701891,0,0,0.701891,1605.22,8827.41)">
                <circle cx="817.043" cy="446.457" r="20.095" style="fill:white;stroke:black;stroke-width:5.7px;stroke-linecap:round;stroke-miterlimit:1.5;"/>
            </g>
            <g transform="matrix(0.701891,0,0,0.701891,1618.8,8768.33)">
                <circle cx="817.043" cy="446.457" r="20.095" style="fill:white;stroke:black;stroke-width:5.7px;stroke-linecap:round;stroke-miterlimit:1.5;"/>
            </g>
            <g transform="matrix(0.701891,0,0,0.701891,1617.04,8883.54)">
                <circle cx="817.043" cy="446.457" r="20.095" style="fill:white;stroke:black;stroke-width:5.7px;stroke-linecap:round;stroke-miterlimit:1.5;"/>
            </g>
            <g transform="matrix(0.701891,0,0,0.701891,1650.82,8725.14)">
                <circle cx="817.043" cy="446.457" r="20.095" style="fill:white;stroke:black;stroke-width:5.7px;stroke-linecap:round;stroke-miterlimit:1.5;"/>
            </g>
            <g transform="matrix(0.701891,0,0,0.701891,1795.84,8702.76)">
                <circle cx="817.043" cy="446.457" r="20.095" style="fill:white;stroke:black;stroke-width:5.7px;stroke-linecap:round;stroke-miterlimit:1.5;"/>
            </g>
            <g transform="matrix(0.701891,0,0,0.701891,1426.43,8823.75)">
                <circle cx="817.043" cy="446.457" r="20.095" style="fill:white;stroke:black;stroke-width:5.7px;stroke-linecap:round;stroke-miterlimit:1.5;"/>
            </g>
            <g transform="matrix(0.701891,0,0,0.701891,1090.54,8710.48)">
                <circle cx="817.043" cy="446.457" r="20.095" style="fill:white;stroke:black;stroke-width:5.7px;stroke-linecap:round;stroke-miterlimit:1.5;"/>
            </g>
            <g transform="matrix(0.701891,0,0,0.701891,1000.99,8683.52)">
                <circle cx="817.043" cy="446.457" r="20.095" style="fill:white;stroke:black;stroke-width:5.7px;stroke-linecap:round;stroke-miterlimit:1.5;"/>
            </g>
            <g transform="matrix(0.701891,0,0,0.701891,1424.1,8953.62)">
                <circle cx="817.043" cy="446.457" r="20.095" style="fill:white;stroke:black;stroke-width:5.7px;stroke-linecap:round;stroke-miterlimit:1.5;"/>
            </g>
            <g transform="matrix(0.701891,0,0,0.701891,1326.68,8710.48)">
                <circle cx="817.043" cy="446.457" r="20.095" style="fill:white;stroke:black;stroke-width:5.7px;stroke-linecap:round;stroke-miterlimit:1.5;"/>
            </g>
            <g transform="matrix(0.701891,0,0,0.701891,1326.68,8813.22)">
                <circle cx="817.043" cy="446.457" r="20.095" style="fill:white;stroke:black;stroke-width:5.7px;stroke-linecap:round;stroke-miterlimit:1.5;"/>
            </g>
            <g transform="matrix(0.701891,0,0,0.701891,1326.68,8893.58)">
                <circle cx="817.043" cy="446.457" r="20.095" style="fill:white;stroke:black;stroke-width:5.7px;stroke-linecap:round;stroke-miterlimit:1.5;"/>
            </g>
            <g transform="matrix(0.701891,0,0,0.701891,1326.68,8966.75)">
                <circle cx="817.043" cy="446.457" r="20.095" style="fill:white;stroke:black;stroke-width:5.7px;stroke-linecap:round;stroke-miterlimit:1.5;"/>
            </g>
            <g transform="matrix(0.701891,0,0,0.701891,1154.16,8985.39)">
                <circle cx="817.043" cy="446.457" r="20.095" style="fill:white;stroke:black;stroke-width:5.7px;stroke-linecap:round;stroke-miterlimit:1.5;"/>
            </g>
            <g transform="matrix(0.701891,0,0,0.701891,1210.81,8980.4)">
                <circle cx="817.043" cy="446.457" r="20.095" style="fill:white;stroke:black;stroke-width:5.7px;stroke-linecap:round;stroke-miterlimit:1.5;"/>
            </g>
            <g transform="matrix(0.701891,0,0,0.701891,1211.43,8894.46)">
                <circle cx="817.043" cy="446.457" r="20.095" style="fill:white;stroke:black;stroke-width:5.7px;stroke-linecap:round;stroke-miterlimit:1.5;"/>
            </g>
            <g transform="matrix(0.701891,0,0,0.701891,1130.96,8894.57)">
                <circle cx="817.043" cy="446.457" r="20.095" style="fill:white;stroke:black;stroke-width:5.7px;stroke-linecap:round;stroke-miterlimit:1.5;"/>
            </g>
            <g transform="matrix(0.701891,0,0,0.701891,1108.36,8795.33)">
                <circle cx="817.043" cy="446.457" r="20.095" style="fill:white;stroke:black;stroke-width:5.7px;stroke-linecap:round;stroke-miterlimit:1.5;"/>
            </g>
            <g transform="matrix(0.701891,0,0,0.701891,1211.58,8802.78)">
                <circle cx="817.043" cy="446.457" r="20.095" style="fill:white;stroke:black;stroke-width:5.7px;stroke-linecap:round;stroke-miterlimit:1.5;"/>
            </g>
            <g transform="matrix(0.701891,0,0,0.701891,1210.21,8708.87)">
                <circle cx="817.043" cy="446.457" r="20.095" style="fill:white;stroke:black;stroke-width:5.7px;stroke-linecap:round;stroke-miterlimit:1.5;"/>
            </g>
            <g transform="matrix(0.701891,0,0,0.701891,1426.43,8893.35)">
                <circle cx="817.043" cy="446.457" r="20.095" style="fill:white;stroke:black;stroke-width:5.7px;stroke-linecap:round;stroke-miterlimit:1.5;"/>
            </g>
        </g>
    </g>
</svg>
