<?xml version="1.0" encoding="UTF-8" standalone="no"?>
<!DOCTYPE svg PUBLIC "-//W3C//DTD SVG 1.1//EN" "http://www.w3.org/Graphics/SVG/1.1/DTD/svg11.dtd">
<svg width="100%" height="100%" viewBox="0 0 1014 488" version="1.1" xmlns="http://www.w3.org/2000/svg" xmlns:xlink="http://www.w3.org/1999/xlink" xml:space="preserve" xmlns:serif="http://www.serif.com/" style="fill-rule:evenodd;clip-rule:evenodd;stroke-linecap:round;stroke-linejoin:round;stroke-miterlimit:10;">
    <g transform="matrix(1,0,0,1,-1543,-9526)">
        <rect id="Networks" x="0" y="8209" width="2985" height="2153" style="fill:none;"/>
        <g id="Networks1" serif:id="Networks">
            <g transform="matrix(1,0,0,1,0,623.895)">
                <path d="M1664.01,9023.84L1575,8994" style="fill:none;stroke:black;stroke-width:12px;"/>
            </g>
            <g transform="matrix(1,0,0,1,0,623.895)">
                <path d="M1900.86,9282.51L2000,9266.01" style="fill:none;stroke:black;stroke-width:12px;"/>
            </g>
            <g transform="matrix(0.981533,0,0,1,119.345,623.895)">
                <path d="M1575,9023L1636.7,9300.5" style="fill:none;stroke:black;stroke-width:13.12px;"/>
            </g>
            <g transform="matrix(0.981533,0,0,1,119.345,623.895)">
                <path d="M1636.7,9300.5L1575,9354" style="fill:none;stroke:black;stroke-width:12.11px;"/>
            </g>
            <g transform="matrix(0.981533,0,0,1,238.831,623.895)">
                <path d="M1575,8943L1575,9354" style="fill:none;stroke:black;stroke-width:12.11px;"/>
            </g>
            <g transform="matrix(0.981533,0,0,1,354.949,623.895)">
                <path d="M1615.75,8943L1575,9023" style="fill:none;stroke:black;stroke-width:12.11px;"/>
            </g>
            <g transform="matrix(0.981533,0,0,1,354.949,623.895)">
                <path d="M1575,9023L1575,9282.51" style="fill:none;stroke:black;stroke-width:13.12px;"/>
            </g>
            <g transform="matrix(1.28076,0,0,1,-442.197,212.895)">
                <path d="M1575,9354L1906.99,9354" style="fill:none;stroke:black;stroke-width:11.31px;"/>
            </g>
            <g transform="matrix(1.28076,0,0,1,-442.197,292.891)">
                <path d="M1645.91,9354L1829.32,9354" style="fill:none;stroke:black;stroke-width:11.31px;"/>
            </g>
            <g transform="matrix(1.28076,0,0,1,-442.197,544.456)">
                <path d="M1692.76,9379.94L1829.43,9361.94" style="fill:none;stroke:black;stroke-width:11.31px;"/>
            </g>
            <g transform="matrix(1.28076,0,0,1,-442.197,477.275)">
                <path d="M1575,9354L1906.99,9354" style="fill:none;stroke:black;stroke-width:10.44px;"/>
            </g>
            <g transform="matrix(1.28076,0,0,1,-442.197,368.509)">
                <path d="M1575,9354L1906.99,9392" style="fill:none;stroke:black;stroke-width:10.44px;"/>
            </g>
            <g transform="matrix(5.97247e-17,0.975379,-0.975379,5.97247e-17,11190.1,7604.54)">
                <circle cx="2215" cy="9098.61" r="223.386" style="fill:white;stroke:black;stroke-width:12.3px;"/>
            </g>
            <g transform="matrix(3.72477e-17,0.608301,-0.608301,3.72477e-17,7850.19,8417.62)">
                <circle cx="2215" cy="9098.61" r="223.386" style="fill:white;stroke:black;stroke-width:19.73px;"/>
            </g>
            <g transform="matrix(6.12323e-17,1,-1,6.12323e-17,11456.6,7449.51)">
                <path d="M2315.5,8923.23L2315.5,9359" style="fill:none;stroke:black;stroke-width:12px;"/>
            </g>
            <g transform="matrix(6.12323e-17,1,-1,6.12323e-17,11456.6,7449.51)">
                <path d="M2315.5,9121.11L2514.46,9052.22" style="fill:none;stroke:black;stroke-width:12px;"/>
            </g>
            <g transform="matrix(6.12323e-17,1,-1,6.12323e-17,11456.6,7449.51)">
                <path d="M2315.5,9191.11L2514.46,9236.64" style="fill:none;stroke:black;stroke-width:12px;"/>
            </g>
            <g transform="matrix(6.12323e-17,1,-1,6.12323e-17,11456.6,7449.51)">
                <path d="M2315.5,9121.11L2111.47,9064.53" style="fill:none;stroke:black;stroke-width:12px;"/>
            </g>
            <g transform="matrix(6.12323e-17,1,-1,6.12323e-17,11456.6,7449.51)">
                <path d="M2315.5,9191.11L2135.7,9264.15" style="fill:none;stroke:black;stroke-width:12px;"/>
            </g>
            <g transform="matrix(6.12323e-17,1,-1,6.12323e-17,11456.6,7449.51)">
                <path d="M2257.78,9264.15L2220.55,9338.26" style="fill:none;stroke:black;stroke-width:12px;"/>
            </g>
            <g transform="matrix(6.12323e-17,1,-1,6.12323e-17,11456.6,7449.51)">
                <path d="M2371.29,9266.1L2422.31,9331.03" style="fill:none;stroke:black;stroke-width:12px;"/>
            </g>
            <g transform="matrix(6.12323e-17,1,-1,6.12323e-17,11456.6,7449.51)">
                <path d="M2384.79,9024.22L2427.58,8953.08" style="fill:none;stroke:black;stroke-width:12px;"/>
            </g>
            <g transform="matrix(6.12323e-17,1,-1,6.12323e-17,11456.6,7449.51)">
                <path d="M2226.31,9038.63L2148.99,9000.64" style="fill:none;stroke:black;stroke-width:12px;"/>
            </g>
            <g transform="matrix(0.981533,0,0,1,29.0855,623.895)">
                <path d="M1575,8943L1575,9354" style="fill:none;stroke:black;stroke-width:13.12px;"/>
            </g>
            <g transform="matrix(0.981533,0,0,1,454.291,623.895)">
                <path d="M1575,8943L1575,9354" style="fill:none;stroke:black;stroke-width:13.12px;"/>
            </g>
            <g transform="matrix(1.28076,0,0,1,-442.197,623.895)">
                <path d="M1575,9354L1906.99,9354" style="fill:none;stroke:black;stroke-width:11.31px;"/>
            </g>
        </g>
    </g>
</svg>
