<?xml version="1.0" encoding="UTF-8" standalone="no"?>
<!DOCTYPE svg PUBLIC "-//W3C//DTD SVG 1.1//EN" "http://www.w3.org/Graphics/SVG/1.1/DTD/svg11.dtd">
<svg width="100%" height="100%" viewBox="0 0 442 628" version="1.1" xmlns="http://www.w3.org/2000/svg" xmlns:xlink="http://www.w3.org/1999/xlink" xml:space="preserve" xmlns:serif="http://www.serif.com/" style="fill-rule:evenodd;clip-rule:evenodd;stroke-linecap:square;stroke-linejoin:round;stroke-miterlimit:10;">
    <rect id="Geometric-Operations-2" serif:id="Geometric Operations 2" x="-2236" y="-841" width="4299" height="2861" style="fill:none;"/>
    <g id="Geometric-Operations-21" serif:id="Geometric Operations 2">
        <rect x="6" y="407.516" width="386" height="208.484" style="fill:rgb(217,217,217);stroke:rgb(21,183,183);stroke-width:8px;"/>
        <path d="M392,14L6,14L6,408.034L392,408.034L392,14ZM342.5,56.5L225.5,56.5L225.5,173.5L342.5,173.5L342.5,56.5Z" style="fill:rgb(248,253,112);stroke:rgb(21,183,183);stroke-width:8px;"/>
        <rect x="6" y="14" width="386" height="394.034" style="fill:rgb(248,253,112);stroke:rgb(21,183,183);stroke-width:8px;"/>
        <path d="M167,114L44,114L44,237L167,237L167,114ZM351.119,194L228.119,194L228.119,317L351.119,317L351.119,194Z" style="fill:white;stroke:rgb(21,183,183);stroke-width:8px;"/>
        <circle cx="392" cy="408.034" r="15.5"/>
        <path d="M297.934,370.35L288.67,358.638L293.47,358.638L300.382,367.662L307.486,358.638L311.806,358.638L302.542,370.158L312.382,382.638L307.774,382.638L300.142,372.798L292.366,382.638L287.998,382.638L297.934,370.35Z" style="fill-rule:nonzero;"/>
        <path d="M325.582,379.998C325.582,379.038 325.894,378.262 326.518,377.67C327.142,377.078 327.95,376.782 328.942,376.782C330.158,376.782 331.102,377.206 331.774,378.054C332.446,378.902 332.782,380.094 332.782,381.63C332.782,382.878 332.574,383.974 332.158,384.918C331.742,385.862 331.222,386.662 330.598,387.318C329.974,387.974 329.302,388.502 328.582,388.902C327.862,389.302 327.198,389.598 326.59,389.79L325.39,387.918C326.542,387.47 327.534,386.83 328.366,385.998C329.198,385.166 329.614,384.158 329.614,382.974C329.166,383.07 328.814,383.118 328.558,383.118C327.63,383.118 326.902,382.854 326.374,382.326C325.846,381.798 325.582,381.022 325.582,379.998Z" style="fill-rule:nonzero;"/>
        <path d="M358.318,378.942L360.142,378.942L366.094,358.638L369.982,358.638L363.31,380.19C362.958,381.31 362.598,382.582 362.23,384.006C361.862,385.43 361.342,386.766 360.67,388.014C359.998,389.262 359.086,390.318 357.934,391.182C356.782,392.046 355.278,392.478 353.422,392.478C353.006,392.478 352.566,392.43 352.102,392.334C351.638,392.238 351.182,392.118 350.734,391.974C350.286,391.83 349.87,391.662 349.486,391.47C349.102,391.278 348.814,391.086 348.622,390.894L349.966,387.438C350.158,387.598 350.422,387.758 350.758,387.918C351.094,388.078 351.462,388.214 351.862,388.326C352.262,388.438 352.654,388.534 353.038,388.614C353.422,388.694 353.742,388.734 353.998,388.734C356.398,388.734 358.03,386.702 358.894,382.638L355.678,382.638L345.598,358.638L349.918,358.638L358.318,378.942Z" style="fill-rule:nonzero;"/>
        <path d="M422.983,373.734L424.999,380.574L425.071,380.574L426.871,373.59L434.935,352.638L441.127,352.638L425.791,389.43L423.343,389.43L407.719,352.638L414.343,352.638L422.983,373.734Z" style="fill-rule:nonzero;"/>
        <path d="M84.256,466.974L90.496,466.974L90.496,477.454L90.696,477.454C91.523,476.521 92.483,475.794 93.576,475.274C94.669,474.754 96.029,474.494 97.656,474.494C98.936,474.494 100.049,474.627 100.996,474.894C101.943,475.161 102.716,475.627 103.316,476.294C103.916,476.961 104.363,477.874 104.656,479.034C104.949,480.194 105.096,481.667 105.096,483.454L105.096,494.974L101.976,494.974L101.976,484.054C101.976,482.907 101.909,481.907 101.776,481.054C101.643,480.201 101.383,479.487 100.996,478.914C100.609,478.341 100.083,477.907 99.416,477.614C98.749,477.321 97.896,477.174 96.856,477.174C96.136,477.174 95.429,477.301 94.736,477.554C94.043,477.807 93.409,478.154 92.836,478.594C92.263,479.034 91.769,479.567 91.356,480.194C90.943,480.821 90.656,481.507 90.496,482.254L90.496,494.974L87.416,494.974L87.416,469.654L84.256,469.654L84.256,466.974Z" style="fill-rule:nonzero;"/>
        <path d="M112.416,476.534C113.563,475.867 114.856,475.387 116.296,475.094C117.736,474.801 119.149,474.654 120.536,474.654C121.896,474.654 123.009,474.867 123.876,475.294C124.743,475.721 125.423,476.274 125.916,476.954C126.409,477.634 126.743,478.407 126.916,479.274C127.089,480.141 127.176,481.014 127.176,481.894C127.176,482.907 127.149,483.987 127.096,485.134C127.043,486.281 127.003,487.427 126.976,488.574C126.976,489.907 127.056,491.174 127.216,492.374L129.896,492.374L129.896,494.974L124.576,494.974L124.216,491.974L124.016,491.974C123.856,492.214 123.616,492.521 123.296,492.894C122.976,493.267 122.556,493.634 122.036,493.994C121.516,494.354 120.883,494.667 120.136,494.934C119.389,495.201 118.509,495.334 117.496,495.334C115.523,495.334 113.963,494.827 112.816,493.814C111.669,492.801 111.096,491.414 111.096,489.654C111.096,488.294 111.396,487.161 111.996,486.254C112.596,485.347 113.456,484.654 114.576,484.174C115.696,483.694 117.049,483.414 118.636,483.334C120.223,483.254 122.003,483.361 123.976,483.654C124.109,482.427 124.129,481.407 124.036,480.594C123.943,479.781 123.729,479.134 123.396,478.654C123.063,478.174 122.596,477.834 121.996,477.634C121.396,477.434 120.656,477.334 119.776,477.334C118.576,477.334 117.429,477.501 116.336,477.834C115.243,478.167 114.269,478.507 113.416,478.854L112.416,476.534ZM118.296,492.654C119.043,492.654 119.736,492.534 120.376,492.294C121.016,492.054 121.576,491.747 122.056,491.374C122.536,491.001 122.936,490.594 123.256,490.154C123.576,489.714 123.816,489.294 123.976,488.894L123.976,486.094C122.589,485.854 121.309,485.734 120.136,485.734C118.963,485.734 117.949,485.861 117.096,486.114C116.243,486.367 115.576,486.761 115.096,487.294C114.616,487.827 114.376,488.521 114.376,489.374C114.376,490.254 114.676,491.021 115.276,491.674C115.876,492.327 116.883,492.654 118.296,492.654Z" style="fill-rule:nonzero;"/>
        <path d="M136.856,466.974L143.496,466.974L143.496,488.254C143.496,489.881 143.769,491.027 144.316,491.694C144.863,492.361 145.669,492.694 146.736,492.694C147.483,492.694 148.196,492.561 148.876,492.294C149.556,492.027 150.309,491.574 151.136,490.934L152.576,493.134C152.149,493.507 151.683,493.841 151.176,494.134C150.669,494.427 150.149,494.674 149.616,494.874C149.083,495.074 148.549,495.227 148.016,495.334C147.483,495.441 146.989,495.494 146.536,495.494C145.549,495.494 144.669,495.367 143.896,495.114C143.123,494.861 142.476,494.454 141.956,493.894C141.436,493.334 141.043,492.594 140.776,491.674C140.509,490.754 140.376,489.614 140.376,488.254L140.376,469.654L136.856,469.654L136.856,466.974Z" style="fill-rule:nonzero;"/>
        <path d="M159.616,494.974L159.616,492.294L164.376,492.294L164.376,477.654L159.616,477.654L159.616,474.974L164.376,474.974L164.376,473.854C164.376,471.347 165.029,469.534 166.336,468.414C167.643,467.294 169.509,466.734 171.936,466.734C172.816,466.734 173.603,466.787 174.296,466.894C174.989,467.001 175.736,467.214 176.536,467.534L175.816,470.134C175.123,469.841 174.456,469.647 173.816,469.554C173.176,469.461 172.589,469.414 172.056,469.414C170.296,469.414 169.096,469.847 168.456,470.714C167.816,471.581 167.496,473.001 167.496,474.974L175.776,474.974L175.776,477.654L167.496,477.654L167.496,492.294L175.776,492.294L175.776,494.974L159.616,494.974Z" style="fill-rule:nonzero;"/>
        <path d="M201.256,492.454C200.776,492.881 200.209,493.281 199.556,493.654C198.903,494.027 198.189,494.347 197.416,494.614C196.643,494.881 195.836,495.087 194.996,495.234C194.156,495.381 193.309,495.454 192.456,495.454C190.856,495.454 189.443,495.207 188.216,494.714C186.989,494.221 185.963,493.514 185.136,492.594C184.309,491.674 183.683,490.574 183.256,489.294C182.829,488.014 182.616,486.574 182.616,484.974C182.616,483.294 182.849,481.801 183.316,480.494C183.783,479.187 184.456,478.094 185.336,477.214C186.216,476.334 187.283,475.661 188.536,475.194C189.789,474.727 191.189,474.494 192.736,474.494C193.856,474.494 194.963,474.641 196.056,474.934C197.149,475.227 198.116,475.781 198.956,476.594C199.796,477.407 200.443,478.527 200.896,479.954C201.349,481.381 201.509,483.227 201.376,485.494L185.896,485.494C185.896,487.894 186.543,489.687 187.836,490.874C189.129,492.061 190.856,492.654 193.016,492.654C193.736,492.654 194.449,492.567 195.156,492.394C195.863,492.221 196.536,492.014 197.176,491.774C197.816,491.534 198.383,491.267 198.876,490.974C199.369,490.681 199.749,490.414 200.016,490.174L201.256,492.454ZM192.816,477.134C191.936,477.134 191.103,477.227 190.316,477.414C189.529,477.601 188.836,477.914 188.236,478.354C187.636,478.794 187.143,479.367 186.756,480.074C186.369,480.781 186.123,481.654 186.016,482.694L198.456,482.694C198.323,480.934 197.756,479.567 196.756,478.594C195.756,477.621 194.443,477.134 192.816,477.134Z" style="fill-rule:nonzero;"/>
        <path d="M218.056,466.974L224.536,466.974L224.536,488.134C224.536,488.374 224.549,488.674 224.576,489.034C224.603,489.394 224.636,489.774 224.676,490.174C224.716,490.574 224.763,490.967 224.816,491.354C224.869,491.741 224.923,492.081 224.976,492.374L227.656,492.374L227.656,494.974L222.336,494.974L221.936,491.894L221.776,491.894C221.189,492.907 220.316,493.754 219.156,494.434C217.996,495.114 216.656,495.454 215.136,495.454C212.123,495.454 209.903,494.607 208.476,492.914C207.049,491.221 206.336,488.587 206.336,485.014C206.336,483.334 206.576,481.847 207.056,480.554C207.536,479.261 208.223,478.181 209.116,477.314C210.009,476.447 211.083,475.787 212.336,475.334C213.589,474.881 214.989,474.654 216.536,474.654C217.096,474.654 217.596,474.667 218.036,474.694C218.476,474.721 218.883,474.761 219.256,474.814C219.629,474.867 219.983,474.941 220.316,475.034C220.649,475.127 221.016,475.227 221.416,475.334L221.416,469.654L218.056,469.654L218.056,466.974ZM215.656,492.774C217.283,492.774 218.563,492.354 219.496,491.514C220.429,490.674 221.069,489.414 221.416,487.734L221.416,478.454C220.829,478.054 220.169,477.761 219.436,477.574C218.703,477.387 217.736,477.294 216.536,477.294C214.403,477.294 212.723,477.914 211.496,479.154C210.269,480.394 209.656,482.347 209.656,485.014C209.656,486.107 209.756,487.127 209.956,488.074C210.156,489.021 210.489,489.841 210.956,490.534C211.423,491.227 212.043,491.774 212.816,492.174C213.589,492.574 214.536,492.774 215.656,492.774Z" style="fill-rule:nonzero;"/>
        <path d="M249.056,495.974C249.056,497.227 248.816,498.327 248.336,499.274C247.856,500.221 247.196,501.001 246.356,501.614C245.516,502.227 244.536,502.687 243.416,502.994C242.296,503.301 241.083,503.454 239.776,503.454C238.203,503.454 236.829,503.294 235.656,502.974C234.483,502.654 233.469,502.241 232.616,501.734L234.136,498.894C234.376,499.107 234.689,499.314 235.076,499.514C235.463,499.714 235.909,499.901 236.416,500.074C236.923,500.247 237.463,500.387 238.036,500.494C238.609,500.601 239.176,500.654 239.736,500.654C240.909,500.654 241.889,500.547 242.676,500.334C243.463,500.121 244.096,499.787 244.576,499.334C245.056,498.881 245.403,498.294 245.616,497.574C245.829,496.854 245.936,495.974 245.936,494.934L245.936,492.694L245.776,492.694C245.163,493.574 244.376,494.254 243.416,494.734C242.456,495.214 241.216,495.454 239.696,495.454C236.656,495.454 234.423,494.607 232.996,492.914C231.569,491.221 230.856,488.587 230.856,485.014C230.856,481.601 231.763,479.021 233.576,477.274C235.389,475.527 238.083,474.654 241.656,474.654C243.309,474.654 244.716,474.767 245.876,474.994C247.036,475.221 248.096,475.507 249.056,475.854L249.056,495.974ZM240.136,492.774C241.763,492.774 243.043,492.354 243.976,491.514C244.909,490.674 245.563,489.387 245.936,487.654L245.936,478.174C244.763,477.614 243.123,477.334 241.016,477.334C238.883,477.334 237.203,477.961 235.976,479.214C234.749,480.467 234.136,482.387 234.136,484.974C234.136,486.121 234.243,487.167 234.456,488.114C234.669,489.061 235.009,489.881 235.476,490.574C235.943,491.267 236.556,491.807 237.316,492.194C238.076,492.581 239.016,492.774 240.136,492.774Z" style="fill-rule:nonzero;"/>
        <path d="M273.256,492.454C272.776,492.881 272.209,493.281 271.556,493.654C270.903,494.027 270.189,494.347 269.416,494.614C268.643,494.881 267.836,495.087 266.996,495.234C266.156,495.381 265.309,495.454 264.456,495.454C262.856,495.454 261.443,495.207 260.216,494.714C258.989,494.221 257.963,493.514 257.136,492.594C256.309,491.674 255.683,490.574 255.256,489.294C254.829,488.014 254.616,486.574 254.616,484.974C254.616,483.294 254.849,481.801 255.316,480.494C255.783,479.187 256.456,478.094 257.336,477.214C258.216,476.334 259.283,475.661 260.536,475.194C261.789,474.727 263.189,474.494 264.736,474.494C265.856,474.494 266.963,474.641 268.056,474.934C269.149,475.227 270.116,475.781 270.956,476.594C271.796,477.407 272.443,478.527 272.896,479.954C273.349,481.381 273.509,483.227 273.376,485.494L257.896,485.494C257.896,487.894 258.543,489.687 259.836,490.874C261.129,492.061 262.856,492.654 265.016,492.654C265.736,492.654 266.449,492.567 267.156,492.394C267.863,492.221 268.536,492.014 269.176,491.774C269.816,491.534 270.383,491.267 270.876,490.974C271.369,490.681 271.749,490.414 272.016,490.174L273.256,492.454ZM264.816,477.134C263.936,477.134 263.103,477.227 262.316,477.414C261.529,477.601 260.836,477.914 260.236,478.354C259.636,478.794 259.143,479.367 258.756,480.074C258.369,480.781 258.123,481.654 258.016,482.694L270.456,482.694C270.323,480.934 269.756,479.567 268.756,478.594C267.756,477.621 266.443,477.134 264.816,477.134Z" style="fill-rule:nonzero;"/>
        <path d="M293.376,503.454C291.589,503.001 289.916,502.327 288.356,501.434C286.796,500.541 285.436,499.374 284.276,497.934C283.116,496.494 282.196,494.734 281.516,492.654C280.836,490.574 280.496,488.107 280.496,485.254C280.496,482.427 280.843,479.954 281.536,477.834C282.229,475.714 283.163,473.914 284.336,472.434C285.509,470.954 286.876,469.767 288.436,468.874C289.996,467.981 291.643,467.347 293.376,466.974L294.376,469.494C292.803,469.947 291.363,470.541 290.056,471.274C288.749,472.007 287.623,472.981 286.676,474.194C285.729,475.407 284.996,476.914 284.476,478.714C283.956,480.514 283.696,482.694 283.696,485.254C283.696,487.841 284.009,490.047 284.636,491.874C285.263,493.701 286.089,495.221 287.116,496.434C288.143,497.647 289.289,498.594 290.556,499.274C291.823,499.954 293.096,500.427 294.376,500.694L293.376,503.454Z" style="fill-rule:nonzero;"/>
        <path d="M312.176,491.094L312.616,491.094L318.896,474.974L322.376,474.974L313.936,494.974L310.416,494.974L301.816,474.974L305.496,474.974L312.176,491.094Z" style="fill-rule:nonzero;"/>
        <path d="M329.816,500.694C331.096,500.427 332.369,499.954 333.636,499.274C334.903,498.594 336.049,497.647 337.076,496.434C338.103,495.221 338.929,493.701 339.556,491.874C340.183,490.047 340.496,487.841 340.496,485.254C340.496,482.694 340.236,480.514 339.716,478.714C339.196,476.914 338.463,475.407 337.516,474.194C336.569,472.981 335.443,472.007 334.136,471.274C332.829,470.541 331.389,469.947 329.816,469.494L330.816,466.974C332.549,467.347 334.196,467.981 335.756,468.874C337.316,469.767 338.683,470.954 339.856,472.434C341.029,473.914 341.963,475.714 342.656,477.834C343.349,479.954 343.696,482.427 343.696,485.254C343.696,488.107 343.356,490.574 342.676,492.654C341.996,494.734 341.076,496.494 339.916,497.934C338.756,499.374 337.396,500.541 335.836,501.434C334.276,502.327 332.603,503.001 330.816,503.454L329.816,500.694Z" style="fill-rule:nonzero;"/>
        <g transform="matrix(1,0,0,1,-7765.59,-11254.1)">
            <g transform="matrix(36,0,0,36,7788.35,11561.2)">
                <path d="M0.105,-0L0.105,-0.067L0.279,-0.067L0.279,-0.433L0.105,-0.433L0.105,-0.5L0.359,-0.5L0.359,-0.067L0.529,-0.067L0.529,-0L0.105,-0ZM0.252,-0.642C0.252,-0.66 0.258,-0.676 0.27,-0.689C0.282,-0.701 0.297,-0.708 0.316,-0.708C0.335,-0.708 0.352,-0.701 0.365,-0.689C0.378,-0.676 0.384,-0.66 0.384,-0.642C0.384,-0.625 0.378,-0.61 0.365,-0.598C0.352,-0.586 0.335,-0.58 0.316,-0.58C0.297,-0.58 0.282,-0.586 0.27,-0.598C0.258,-0.61 0.252,-0.625 0.252,-0.642Z" style="fill:rgb(249,85,185);fill-rule:nonzero;"/>
            </g>
            <g transform="matrix(36,0,0,36,7809.95,11561.2)">
                <path d="M0.093,-0.325C0.093,-0.331 0.093,-0.339 0.093,-0.349C0.092,-0.358 0.092,-0.368 0.091,-0.379C0.09,-0.389 0.089,-0.399 0.089,-0.409C0.088,-0.419 0.086,-0.428 0.085,-0.435L0.018,-0.435L0.018,-0.5L0.152,-0.5L0.161,-0.419L0.166,-0.419C0.173,-0.43 0.182,-0.442 0.193,-0.453C0.204,-0.464 0.216,-0.474 0.231,-0.483C0.246,-0.492 0.262,-0.499 0.28,-0.504C0.298,-0.509 0.317,-0.512 0.337,-0.512C0.368,-0.512 0.395,-0.509 0.419,-0.502C0.442,-0.495 0.462,-0.484 0.478,-0.467C0.493,-0.45 0.505,-0.427 0.513,-0.398C0.521,-0.369 0.525,-0.332 0.525,-0.287L0.525,-0L0.447,-0L0.447,-0.272C0.447,-0.327 0.438,-0.369 0.42,-0.397C0.402,-0.425 0.369,-0.439 0.322,-0.439C0.305,-0.439 0.288,-0.436 0.272,-0.429C0.255,-0.422 0.24,-0.412 0.227,-0.401C0.214,-0.39 0.202,-0.377 0.192,-0.362C0.182,-0.347 0.175,-0.331 0.17,-0.314L0.17,-0L0.093,-0L0.093,-0.325Z" style="fill:rgb(249,85,185);fill-rule:nonzero;"/>
            </g>
            <g transform="matrix(36,0,0,36,7831.55,11561.2)">
                <path d="M0.093,-0.325C0.093,-0.331 0.093,-0.339 0.093,-0.349C0.092,-0.358 0.092,-0.368 0.091,-0.379C0.09,-0.389 0.089,-0.399 0.089,-0.409C0.088,-0.419 0.086,-0.428 0.085,-0.435L0.018,-0.435L0.018,-0.5L0.152,-0.5L0.161,-0.419L0.166,-0.419C0.173,-0.43 0.182,-0.442 0.193,-0.453C0.204,-0.464 0.216,-0.474 0.231,-0.483C0.246,-0.492 0.262,-0.499 0.28,-0.504C0.298,-0.509 0.317,-0.512 0.337,-0.512C0.368,-0.512 0.395,-0.509 0.419,-0.502C0.442,-0.495 0.462,-0.484 0.478,-0.467C0.493,-0.45 0.505,-0.427 0.513,-0.398C0.521,-0.369 0.525,-0.332 0.525,-0.287L0.525,-0L0.447,-0L0.447,-0.272C0.447,-0.327 0.438,-0.369 0.42,-0.397C0.402,-0.425 0.369,-0.439 0.322,-0.439C0.305,-0.439 0.288,-0.436 0.272,-0.429C0.255,-0.422 0.24,-0.412 0.227,-0.401C0.214,-0.39 0.202,-0.377 0.192,-0.362C0.182,-0.347 0.175,-0.331 0.17,-0.314L0.17,-0L0.093,-0L0.093,-0.325Z" style="fill:rgb(249,85,185);fill-rule:nonzero;"/>
            </g>
            <g transform="matrix(36,0,0,36,7853.15,11561.2)">
                <path d="M0.529,-0.063C0.517,-0.052 0.503,-0.042 0.487,-0.033C0.47,-0.024 0.452,-0.016 0.433,-0.009C0.414,-0.002 0.394,0.003 0.373,0.007C0.352,0.01 0.33,0.012 0.309,0.012C0.269,0.012 0.234,0.006 0.203,-0.007C0.172,-0.019 0.147,-0.037 0.126,-0.06C0.105,-0.083 0.09,-0.11 0.079,-0.142C0.068,-0.174 0.063,-0.21 0.063,-0.25C0.063,-0.292 0.069,-0.329 0.081,-0.362C0.092,-0.395 0.109,-0.422 0.131,-0.444C0.153,-0.466 0.18,-0.483 0.211,-0.495C0.242,-0.506 0.277,-0.512 0.316,-0.512C0.344,-0.512 0.372,-0.508 0.399,-0.501C0.426,-0.494 0.451,-0.48 0.472,-0.46C0.493,-0.439 0.509,-0.411 0.52,-0.376C0.531,-0.34 0.535,-0.294 0.532,-0.237L0.145,-0.237C0.145,-0.177 0.161,-0.132 0.194,-0.103C0.226,-0.073 0.269,-0.058 0.323,-0.058C0.341,-0.058 0.359,-0.06 0.377,-0.065C0.394,-0.069 0.411,-0.074 0.427,-0.08C0.443,-0.086 0.457,-0.093 0.47,-0.1C0.482,-0.107 0.491,-0.114 0.498,-0.12L0.529,-0.063ZM0.318,-0.446C0.296,-0.446 0.275,-0.444 0.256,-0.439C0.236,-0.434 0.219,-0.427 0.204,-0.416C0.189,-0.405 0.176,-0.39 0.167,-0.373C0.157,-0.355 0.151,-0.333 0.148,-0.307L0.459,-0.307C0.456,-0.351 0.442,-0.385 0.417,-0.41C0.392,-0.434 0.359,-0.446 0.318,-0.446Z" style="fill:rgb(249,85,185);fill-rule:nonzero;"/>
            </g>
            <g transform="matrix(36,0,0,36,7874.75,11561.2)">
                <path d="M0.066,-0L0.066,-0.067L0.201,-0.067L0.201,-0.433L0.066,-0.433L0.066,-0.5L0.253,-0.5L0.269,-0.435L0.274,-0.435C0.297,-0.456 0.322,-0.473 0.35,-0.488C0.378,-0.503 0.411,-0.51 0.45,-0.51C0.473,-0.51 0.491,-0.506 0.505,-0.497C0.518,-0.488 0.529,-0.476 0.537,-0.459C0.544,-0.442 0.549,-0.422 0.552,-0.399C0.555,-0.375 0.556,-0.348 0.556,-0.318L0.486,-0.317C0.486,-0.36 0.482,-0.391 0.474,-0.411C0.465,-0.431 0.45,-0.441 0.428,-0.441C0.407,-0.441 0.389,-0.438 0.372,-0.432C0.355,-0.426 0.341,-0.419 0.329,-0.41C0.316,-0.401 0.306,-0.393 0.297,-0.384C0.288,-0.375 0.282,-0.368 0.278,-0.362L0.278,-0.067L0.47,-0.067L0.47,-0L0.066,-0Z" style="fill:rgb(249,85,185);fill-rule:nonzero;"/>
            </g>
            <g transform="matrix(36,0,0,36,7896.35,11561.2)">
                <path d="M0.432,0.212C0.387,0.201 0.345,0.184 0.307,0.162C0.268,0.139 0.234,0.11 0.205,0.074C0.175,0.038 0.153,-0.006 0.136,-0.058C0.119,-0.11 0.11,-0.172 0.11,-0.243C0.11,-0.314 0.119,-0.376 0.136,-0.429C0.153,-0.482 0.177,-0.527 0.206,-0.564C0.235,-0.6 0.27,-0.63 0.309,-0.653C0.347,-0.675 0.389,-0.691 0.432,-0.7L0.457,-0.637C0.418,-0.626 0.382,-0.611 0.349,-0.593C0.316,-0.574 0.288,-0.55 0.265,-0.52C0.241,-0.489 0.223,-0.452 0.21,-0.407C0.197,-0.362 0.19,-0.307 0.19,-0.243C0.19,-0.178 0.198,-0.123 0.214,-0.078C0.229,-0.032 0.25,0.006 0.276,0.037C0.301,0.067 0.33,0.091 0.362,0.108C0.393,0.125 0.425,0.136 0.457,0.143L0.432,0.212Z" style="fill:rgb(249,85,185);fill-rule:nonzero;"/>
            </g>
            <g transform="matrix(36,0,0,36,7917.95,11561.2)">
                <path d="M0.088,-0L0.088,-0.067L0.207,-0.067L0.207,-0.433L0.088,-0.433L0.088,-0.5L0.207,-0.5L0.207,-0.528C0.207,-0.591 0.223,-0.636 0.256,-0.664C0.289,-0.692 0.335,-0.706 0.396,-0.706C0.418,-0.706 0.438,-0.705 0.455,-0.702C0.472,-0.699 0.491,-0.694 0.511,-0.686L0.493,-0.621C0.476,-0.628 0.459,-0.633 0.443,-0.636C0.427,-0.638 0.412,-0.639 0.399,-0.639C0.355,-0.639 0.325,-0.628 0.309,-0.607C0.293,-0.585 0.285,-0.549 0.285,-0.5L0.492,-0.5L0.492,-0.433L0.285,-0.433L0.285,-0.067L0.492,-0.067L0.492,-0L0.088,-0Z" style="fill:rgb(249,85,185);fill-rule:nonzero;"/>
            </g>
            <g transform="matrix(36,0,0,36,7939.55,11561.2)">
                <path d="M0.143,0.143C0.175,0.136 0.207,0.125 0.239,0.108C0.27,0.091 0.299,0.067 0.325,0.037C0.35,0.006 0.371,-0.032 0.387,-0.078C0.402,-0.123 0.41,-0.178 0.41,-0.243C0.41,-0.307 0.404,-0.362 0.391,-0.407C0.378,-0.452 0.359,-0.489 0.336,-0.52C0.312,-0.55 0.284,-0.574 0.251,-0.593C0.218,-0.611 0.182,-0.626 0.143,-0.637L0.168,-0.7C0.211,-0.691 0.253,-0.675 0.292,-0.653C0.331,-0.63 0.365,-0.6 0.394,-0.564C0.423,-0.527 0.447,-0.482 0.464,-0.429C0.481,-0.376 0.49,-0.314 0.49,-0.243C0.49,-0.172 0.482,-0.11 0.465,-0.058C0.448,-0.006 0.425,0.038 0.396,0.074C0.367,0.11 0.332,0.139 0.294,0.162C0.255,0.184 0.213,0.201 0.168,0.212L0.143,0.143Z" style="fill:rgb(249,85,185);fill-rule:nonzero;"/>
            </g>
            <g transform="matrix(20.988,0,0,20.988,7961.15,11573.2)">
                <path d="M0.055,-0.35C0.055,-0.407 0.06,-0.458 0.07,-0.503C0.08,-0.548 0.095,-0.586 0.115,-0.617C0.135,-0.648 0.16,-0.671 0.191,-0.688C0.222,-0.704 0.258,-0.712 0.3,-0.712C0.345,-0.712 0.383,-0.704 0.414,-0.688C0.445,-0.672 0.47,-0.649 0.489,-0.618C0.508,-0.587 0.522,-0.55 0.531,-0.505C0.54,-0.46 0.544,-0.408 0.544,-0.35C0.544,-0.293 0.539,-0.243 0.529,-0.198C0.519,-0.153 0.504,-0.115 0.484,-0.084C0.464,-0.053 0.439,-0.029 0.408,-0.013C0.377,0.004 0.341,0.012 0.299,0.012C0.255,0.012 0.218,0.003 0.187,-0.015C0.156,-0.032 0.13,-0.057 0.111,-0.089C0.091,-0.121 0.077,-0.159 0.068,-0.204C0.059,-0.248 0.055,-0.297 0.055,-0.35ZM0.462,-0.35C0.462,-0.385 0.46,-0.419 0.456,-0.451L0.159,-0.18C0.17,-0.142 0.187,-0.112 0.21,-0.089C0.233,-0.066 0.262,-0.055 0.299,-0.055C0.358,-0.055 0.4,-0.079 0.425,-0.128C0.45,-0.177 0.462,-0.251 0.462,-0.35ZM0.138,-0.35C0.138,-0.333 0.139,-0.317 0.14,-0.302C0.141,-0.287 0.142,-0.272 0.143,-0.257L0.441,-0.527C0.43,-0.563 0.413,-0.592 0.391,-0.613C0.368,-0.634 0.338,-0.645 0.3,-0.645C0.241,-0.645 0.199,-0.62 0.175,-0.572C0.15,-0.523 0.138,-0.449 0.138,-0.35Z" style="fill:rgb(249,85,185);fill-rule:nonzero;"/>
            </g>
        </g>
        <path d="M108.117,75.257C108.117,72.03 108.957,69.477 110.637,67.597C112.317,65.717 114.717,64.777 117.837,64.777C119.517,64.777 120.963,65.05 122.177,65.597C123.39,66.144 124.397,66.884 125.197,67.817C125.997,68.75 126.59,69.857 126.977,71.137C127.363,72.417 127.557,73.79 127.557,75.257C127.557,76.857 127.343,78.304 126.917,79.597C126.49,80.89 125.863,81.99 125.037,82.897C124.21,83.804 123.19,84.504 121.977,84.997C120.763,85.49 119.383,85.737 117.837,85.737C116.183,85.737 114.743,85.464 113.517,84.917C112.29,84.37 111.277,83.63 110.477,82.697C109.677,81.764 109.083,80.657 108.697,79.377C108.31,78.097 108.117,76.724 108.117,75.257ZM111.437,75.257C111.437,76.19 111.55,77.124 111.777,78.057C112.003,78.99 112.37,79.83 112.877,80.577C113.383,81.324 114.043,81.924 114.857,82.377C115.67,82.83 116.663,83.057 117.837,83.057C119.97,83.057 121.577,82.397 122.657,81.077C123.737,79.757 124.277,77.817 124.277,75.257C124.277,74.297 124.163,73.357 123.937,72.437C123.71,71.517 123.337,70.684 122.817,69.937C122.297,69.19 121.63,68.59 120.817,68.137C120.003,67.684 119.01,67.457 117.837,67.457C115.703,67.457 114.103,68.11 113.037,69.417C111.97,70.724 111.437,72.67 111.437,75.257Z" style="fill-rule:nonzero;"/>
        <path d="M144.357,65.257L150.037,65.257L150.037,78.897C150.037,80.204 150.117,81.457 150.277,82.657L152.957,82.657L152.957,85.257L147.637,85.257L147.517,81.857L147.357,81.857C146.663,83.004 145.743,83.937 144.597,84.657C143.45,85.377 142.063,85.737 140.437,85.737C139.21,85.737 138.163,85.597 137.297,85.317C136.43,85.037 135.717,84.55 135.157,83.857C134.597,83.164 134.183,82.237 133.917,81.077C133.65,79.917 133.517,78.47 133.517,76.737L133.517,67.937L130.837,67.937L130.837,65.257L136.637,65.257L136.637,76.097C136.637,77.19 136.683,78.17 136.777,79.037C136.87,79.904 137.063,80.637 137.357,81.237C137.65,81.837 138.083,82.29 138.657,82.597C139.23,82.904 139.997,83.057 140.957,83.057C142.343,83.057 143.55,82.604 144.577,81.697C145.603,80.79 146.383,79.657 146.917,78.297L146.917,67.937L144.357,67.937L144.357,65.257Z" style="fill-rule:nonzero;"/>
        <path d="M155.077,65.257L159.837,65.257L159.837,61.297L162.957,60.417L162.957,65.257L173.637,65.257L173.637,67.937L162.957,67.937L162.957,77.377C162.957,79.324 163.43,80.764 164.377,81.697C165.323,82.63 166.677,83.097 168.437,83.097C169.637,83.097 170.683,82.87 171.577,82.417C172.47,81.964 173.277,81.47 173.997,80.937L175.037,83.297C174.103,84.044 172.99,84.644 171.697,85.097C170.403,85.55 169.077,85.777 167.717,85.777C166.65,85.777 165.643,85.624 164.697,85.317C163.75,85.01 162.917,84.537 162.197,83.897C161.477,83.257 160.903,82.437 160.477,81.437C160.05,80.437 159.837,79.244 159.837,77.857L159.837,67.937L155.077,67.937L155.077,65.257Z" style="fill-rule:nonzero;"/>
        <path d="M198.997,82.737C198.517,83.164 197.95,83.564 197.297,83.937C196.643,84.31 195.93,84.63 195.157,84.897C194.383,85.164 193.577,85.37 192.737,85.517C191.897,85.664 191.05,85.737 190.197,85.737C188.597,85.737 187.183,85.49 185.957,84.997C184.73,84.504 183.703,83.797 182.877,82.877C182.05,81.957 181.423,80.857 180.997,79.577C180.57,78.297 180.357,76.857 180.357,75.257C180.357,73.577 180.59,72.084 181.057,70.777C181.523,69.47 182.197,68.377 183.077,67.497C183.957,66.617 185.023,65.944 186.277,65.477C187.53,65.01 188.93,64.777 190.477,64.777C191.597,64.777 192.703,64.924 193.797,65.217C194.89,65.51 195.857,66.064 196.697,66.877C197.537,67.69 198.183,68.81 198.637,70.237C199.09,71.664 199.25,73.51 199.117,75.777L183.637,75.777C183.637,78.177 184.283,79.97 185.577,81.157C186.87,82.344 188.597,82.937 190.757,82.937C191.477,82.937 192.19,82.85 192.897,82.677C193.603,82.504 194.277,82.297 194.917,82.057C195.557,81.817 196.123,81.55 196.617,81.257C197.11,80.964 197.49,80.697 197.757,80.457L198.997,82.737ZM190.557,67.417C189.677,67.417 188.843,67.51 188.057,67.697C187.27,67.884 186.577,68.197 185.977,68.637C185.377,69.077 184.883,69.65 184.497,70.357C184.11,71.064 183.863,71.937 183.757,72.977L196.197,72.977C196.063,71.217 195.497,69.85 194.497,68.877C193.497,67.904 192.183,67.417 190.557,67.417Z" style="fill-rule:nonzero;"/>
        <path d="M204.477,85.257L204.477,82.577L209.877,82.577L209.877,67.937L204.477,67.937L204.477,65.257L211.957,65.257L212.597,67.857L212.797,67.857C213.703,67.03 214.717,66.324 215.837,65.737C216.957,65.15 218.29,64.857 219.837,64.857C220.743,64.857 221.47,65.03 222.017,65.377C222.563,65.724 222.99,66.23 223.297,66.897C223.603,67.564 223.81,68.37 223.917,69.317C224.023,70.264 224.077,71.337 224.077,72.537L221.277,72.577C221.277,70.87 221.11,69.617 220.777,68.817C220.443,68.017 219.837,67.617 218.957,67.617C218.13,67.617 217.383,67.737 216.717,67.977C216.05,68.217 215.47,68.51 214.977,68.857C214.483,69.204 214.063,69.55 213.717,69.897C213.37,70.244 213.117,70.537 212.957,70.777L212.957,82.577L220.637,82.577L220.637,85.257L204.477,85.257Z" style="fill-rule:nonzero;"/>
        <path d="M243.117,93.737C241.33,93.284 239.657,92.61 238.097,91.717C236.537,90.824 235.177,89.657 234.017,88.217C232.857,86.777 231.937,85.017 231.257,82.937C230.577,80.857 230.237,78.39 230.237,75.537C230.237,72.71 230.583,70.237 231.277,68.117C231.97,65.997 232.903,64.197 234.077,62.717C235.25,61.237 236.617,60.05 238.177,59.157C239.737,58.264 241.383,57.63 243.117,57.257L244.117,59.777C242.543,60.23 241.103,60.824 239.797,61.557C238.49,62.29 237.363,63.264 236.417,64.477C235.47,65.69 234.737,67.197 234.217,68.997C233.697,70.797 233.437,72.977 233.437,75.537C233.437,78.124 233.75,80.33 234.377,82.157C235.003,83.984 235.83,85.504 236.857,86.717C237.883,87.93 239.03,88.877 240.297,89.557C241.563,90.237 242.837,90.71 244.117,90.977L243.117,93.737Z" style="fill-rule:nonzero;"/>
        <path d="M253.357,85.257L253.357,82.577L258.117,82.577L258.117,67.937L253.357,67.937L253.357,65.257L258.117,65.257L258.117,64.137C258.117,61.63 258.77,59.817 260.077,58.697C261.383,57.577 263.25,57.017 265.677,57.017C266.557,57.017 267.343,57.07 268.037,57.177C268.73,57.284 269.477,57.497 270.277,57.817L269.557,60.417C268.863,60.124 268.197,59.93 267.557,59.837C266.917,59.744 266.33,59.697 265.797,59.697C264.037,59.697 262.837,60.13 262.197,60.997C261.557,61.864 261.237,63.284 261.237,65.257L269.517,65.257L269.517,67.937L261.237,67.937L261.237,82.577L269.517,82.577L269.517,85.257L253.357,85.257Z" style="fill-rule:nonzero;"/>
        <path d="M279.557,90.977C280.837,90.71 282.11,90.237 283.377,89.557C284.643,88.877 285.79,87.93 286.817,86.717C287.843,85.504 288.67,83.984 289.297,82.157C289.923,80.33 290.237,78.124 290.237,75.537C290.237,72.977 289.977,70.797 289.457,68.997C288.937,67.197 288.203,65.69 287.257,64.477C286.31,63.264 285.183,62.29 283.877,61.557C282.57,60.824 281.13,60.23 279.557,59.777L280.557,57.257C282.29,57.63 283.937,58.264 285.497,59.157C287.057,60.05 288.423,61.237 289.597,62.717C290.77,64.197 291.703,65.997 292.397,68.117C293.09,70.237 293.437,72.71 293.437,75.537C293.437,78.39 293.097,80.857 292.417,82.937C291.737,85.017 290.817,86.777 289.657,88.217C288.497,89.657 287.137,90.824 285.577,91.717C284.017,92.61 282.343,93.284 280.557,93.737L279.557,90.977Z" style="fill-rule:nonzero;"/>
        <g transform="matrix(1,0,0,1,-7594.57,-11417.4)">
            <g transform="matrix(36,0,0,36,7788.35,11561.2)">
                <path d="M0.105,-0L0.105,-0.067L0.279,-0.067L0.279,-0.433L0.105,-0.433L0.105,-0.5L0.359,-0.5L0.359,-0.067L0.529,-0.067L0.529,-0L0.105,-0ZM0.252,-0.642C0.252,-0.66 0.258,-0.676 0.27,-0.689C0.282,-0.701 0.297,-0.708 0.316,-0.708C0.335,-0.708 0.352,-0.701 0.365,-0.689C0.378,-0.676 0.384,-0.66 0.384,-0.642C0.384,-0.625 0.378,-0.61 0.365,-0.598C0.352,-0.586 0.335,-0.58 0.316,-0.58C0.297,-0.58 0.282,-0.586 0.27,-0.598C0.258,-0.61 0.252,-0.625 0.252,-0.642Z" style="fill:rgb(249,85,185);fill-rule:nonzero;"/>
            </g>
            <g transform="matrix(36,0,0,36,7809.95,11561.2)">
                <path d="M0.093,-0.325C0.093,-0.331 0.093,-0.339 0.093,-0.349C0.092,-0.358 0.092,-0.368 0.091,-0.379C0.09,-0.389 0.089,-0.399 0.089,-0.409C0.088,-0.419 0.086,-0.428 0.085,-0.435L0.018,-0.435L0.018,-0.5L0.152,-0.5L0.161,-0.419L0.166,-0.419C0.173,-0.43 0.182,-0.442 0.193,-0.453C0.204,-0.464 0.216,-0.474 0.231,-0.483C0.246,-0.492 0.262,-0.499 0.28,-0.504C0.298,-0.509 0.317,-0.512 0.337,-0.512C0.368,-0.512 0.395,-0.509 0.419,-0.502C0.442,-0.495 0.462,-0.484 0.478,-0.467C0.493,-0.45 0.505,-0.427 0.513,-0.398C0.521,-0.369 0.525,-0.332 0.525,-0.287L0.525,-0L0.447,-0L0.447,-0.272C0.447,-0.327 0.438,-0.369 0.42,-0.397C0.402,-0.425 0.369,-0.439 0.322,-0.439C0.305,-0.439 0.288,-0.436 0.272,-0.429C0.255,-0.422 0.24,-0.412 0.227,-0.401C0.214,-0.39 0.202,-0.377 0.192,-0.362C0.182,-0.347 0.175,-0.331 0.17,-0.314L0.17,-0L0.093,-0L0.093,-0.325Z" style="fill:rgb(249,85,185);fill-rule:nonzero;"/>
            </g>
            <g transform="matrix(36,0,0,36,7831.55,11561.2)">
                <path d="M0.093,-0.325C0.093,-0.331 0.093,-0.339 0.093,-0.349C0.092,-0.358 0.092,-0.368 0.091,-0.379C0.09,-0.389 0.089,-0.399 0.089,-0.409C0.088,-0.419 0.086,-0.428 0.085,-0.435L0.018,-0.435L0.018,-0.5L0.152,-0.5L0.161,-0.419L0.166,-0.419C0.173,-0.43 0.182,-0.442 0.193,-0.453C0.204,-0.464 0.216,-0.474 0.231,-0.483C0.246,-0.492 0.262,-0.499 0.28,-0.504C0.298,-0.509 0.317,-0.512 0.337,-0.512C0.368,-0.512 0.395,-0.509 0.419,-0.502C0.442,-0.495 0.462,-0.484 0.478,-0.467C0.493,-0.45 0.505,-0.427 0.513,-0.398C0.521,-0.369 0.525,-0.332 0.525,-0.287L0.525,-0L0.447,-0L0.447,-0.272C0.447,-0.327 0.438,-0.369 0.42,-0.397C0.402,-0.425 0.369,-0.439 0.322,-0.439C0.305,-0.439 0.288,-0.436 0.272,-0.429C0.255,-0.422 0.24,-0.412 0.227,-0.401C0.214,-0.39 0.202,-0.377 0.192,-0.362C0.182,-0.347 0.175,-0.331 0.17,-0.314L0.17,-0L0.093,-0L0.093,-0.325Z" style="fill:rgb(249,85,185);fill-rule:nonzero;"/>
            </g>
            <g transform="matrix(36,0,0,36,7853.15,11561.2)">
                <path d="M0.529,-0.063C0.517,-0.052 0.503,-0.042 0.487,-0.033C0.47,-0.024 0.452,-0.016 0.433,-0.009C0.414,-0.002 0.394,0.003 0.373,0.007C0.352,0.01 0.33,0.012 0.309,0.012C0.269,0.012 0.234,0.006 0.203,-0.007C0.172,-0.019 0.147,-0.037 0.126,-0.06C0.105,-0.083 0.09,-0.11 0.079,-0.142C0.068,-0.174 0.063,-0.21 0.063,-0.25C0.063,-0.292 0.069,-0.329 0.081,-0.362C0.092,-0.395 0.109,-0.422 0.131,-0.444C0.153,-0.466 0.18,-0.483 0.211,-0.495C0.242,-0.506 0.277,-0.512 0.316,-0.512C0.344,-0.512 0.372,-0.508 0.399,-0.501C0.426,-0.494 0.451,-0.48 0.472,-0.46C0.493,-0.439 0.509,-0.411 0.52,-0.376C0.531,-0.34 0.535,-0.294 0.532,-0.237L0.145,-0.237C0.145,-0.177 0.161,-0.132 0.194,-0.103C0.226,-0.073 0.269,-0.058 0.323,-0.058C0.341,-0.058 0.359,-0.06 0.377,-0.065C0.394,-0.069 0.411,-0.074 0.427,-0.08C0.443,-0.086 0.457,-0.093 0.47,-0.1C0.482,-0.107 0.491,-0.114 0.498,-0.12L0.529,-0.063ZM0.318,-0.446C0.296,-0.446 0.275,-0.444 0.256,-0.439C0.236,-0.434 0.219,-0.427 0.204,-0.416C0.189,-0.405 0.176,-0.39 0.167,-0.373C0.157,-0.355 0.151,-0.333 0.148,-0.307L0.459,-0.307C0.456,-0.351 0.442,-0.385 0.417,-0.41C0.392,-0.434 0.359,-0.446 0.318,-0.446Z" style="fill:rgb(249,85,185);fill-rule:nonzero;"/>
            </g>
            <g transform="matrix(36,0,0,36,7874.75,11561.2)">
                <path d="M0.066,-0L0.066,-0.067L0.201,-0.067L0.201,-0.433L0.066,-0.433L0.066,-0.5L0.253,-0.5L0.269,-0.435L0.274,-0.435C0.297,-0.456 0.322,-0.473 0.35,-0.488C0.378,-0.503 0.411,-0.51 0.45,-0.51C0.473,-0.51 0.491,-0.506 0.505,-0.497C0.518,-0.488 0.529,-0.476 0.537,-0.459C0.544,-0.442 0.549,-0.422 0.552,-0.399C0.555,-0.375 0.556,-0.348 0.556,-0.318L0.486,-0.317C0.486,-0.36 0.482,-0.391 0.474,-0.411C0.465,-0.431 0.45,-0.441 0.428,-0.441C0.407,-0.441 0.389,-0.438 0.372,-0.432C0.355,-0.426 0.341,-0.419 0.329,-0.41C0.316,-0.401 0.306,-0.393 0.297,-0.384C0.288,-0.375 0.282,-0.368 0.278,-0.362L0.278,-0.067L0.47,-0.067L0.47,-0L0.066,-0Z" style="fill:rgb(249,85,185);fill-rule:nonzero;"/>
            </g>
            <g transform="matrix(36,0,0,36,7896.35,11561.2)">
                <path d="M0.432,0.212C0.387,0.201 0.345,0.184 0.307,0.162C0.268,0.139 0.234,0.11 0.205,0.074C0.175,0.038 0.153,-0.006 0.136,-0.058C0.119,-0.11 0.11,-0.172 0.11,-0.243C0.11,-0.314 0.119,-0.376 0.136,-0.429C0.153,-0.482 0.177,-0.527 0.206,-0.564C0.235,-0.6 0.27,-0.63 0.309,-0.653C0.347,-0.675 0.389,-0.691 0.432,-0.7L0.457,-0.637C0.418,-0.626 0.382,-0.611 0.349,-0.593C0.316,-0.574 0.288,-0.55 0.265,-0.52C0.241,-0.489 0.223,-0.452 0.21,-0.407C0.197,-0.362 0.19,-0.307 0.19,-0.243C0.19,-0.178 0.198,-0.123 0.214,-0.078C0.229,-0.032 0.25,0.006 0.276,0.037C0.301,0.067 0.33,0.091 0.362,0.108C0.393,0.125 0.425,0.136 0.457,0.143L0.432,0.212Z" style="fill:rgb(249,85,185);fill-rule:nonzero;"/>
            </g>
            <g transform="matrix(36,0,0,36,7917.95,11561.2)">
                <path d="M0.088,-0L0.088,-0.067L0.207,-0.067L0.207,-0.433L0.088,-0.433L0.088,-0.5L0.207,-0.5L0.207,-0.528C0.207,-0.591 0.223,-0.636 0.256,-0.664C0.289,-0.692 0.335,-0.706 0.396,-0.706C0.418,-0.706 0.438,-0.705 0.455,-0.702C0.472,-0.699 0.491,-0.694 0.511,-0.686L0.493,-0.621C0.476,-0.628 0.459,-0.633 0.443,-0.636C0.427,-0.638 0.412,-0.639 0.399,-0.639C0.355,-0.639 0.325,-0.628 0.309,-0.607C0.293,-0.585 0.285,-0.549 0.285,-0.5L0.492,-0.5L0.492,-0.433L0.285,-0.433L0.285,-0.067L0.492,-0.067L0.492,-0L0.088,-0Z" style="fill:rgb(249,85,185);fill-rule:nonzero;"/>
            </g>
            <g transform="matrix(36,0,0,36,7939.55,11561.2)">
                <path d="M0.143,0.143C0.175,0.136 0.207,0.125 0.239,0.108C0.27,0.091 0.299,0.067 0.325,0.037C0.35,0.006 0.371,-0.032 0.387,-0.078C0.402,-0.123 0.41,-0.178 0.41,-0.243C0.41,-0.307 0.404,-0.362 0.391,-0.407C0.378,-0.452 0.359,-0.489 0.336,-0.52C0.312,-0.55 0.284,-0.574 0.251,-0.593C0.218,-0.611 0.182,-0.626 0.143,-0.637L0.168,-0.7C0.211,-0.691 0.253,-0.675 0.292,-0.653C0.331,-0.63 0.365,-0.6 0.394,-0.564C0.423,-0.527 0.447,-0.482 0.464,-0.429C0.481,-0.376 0.49,-0.314 0.49,-0.243C0.49,-0.172 0.482,-0.11 0.465,-0.058C0.448,-0.006 0.425,0.038 0.396,0.074C0.367,0.11 0.332,0.139 0.294,0.162C0.255,0.184 0.213,0.201 0.168,0.212L0.143,0.143Z" style="fill:rgb(249,85,185);fill-rule:nonzero;"/>
            </g>
            <g transform="matrix(20.988,0,0,20.988,7961.15,11573.2)">
                <path d="M0.127,-0.072L0.284,-0.072L0.284,-0.598L0.124,-0.486L0.085,-0.543L0.305,-0.7L0.361,-0.7L0.361,-0.072L0.515,-0.072L0.515,-0L0.127,-0L0.127,-0.072Z" style="fill:rgb(249,85,185);fill-rule:nonzero;"/>
            </g>
        </g>
        <path d="M53.532,454.222L26.532,440.722L53.532,427.222L53.532,454.222Z"/>
        <path d="M371.468,440.722L48.132,440.722" style="fill:none;stroke:black;stroke-width:6px;"/>
        <path d="M53.532,51.817L26.532,38.317L53.532,24.817L53.532,51.817Z"/>
        <path d="M377.388,38.317L48.132,38.317" style="fill:none;stroke:black;stroke-width:6px;"/>
        <path d="M76.632,273L49.632,259.5L76.632,246L76.632,273Z" style="fill:rgb(249,85,185);"/>
        <path d="M162.567,259.5L71.232,259.5" style="fill:none;stroke:rgb(249,85,185);stroke-width:6px;"/>
        <path d="M324.119,157L351.119,170.5L324.119,184L324.119,157Z" style="fill:rgb(249,85,185);"/>
        <path d="M224.877,170.5L329.519,170.5" style="fill:none;stroke:rgb(249,85,185);stroke-width:6px;"/>
        <path d="M188.392,352.638L193.36,352.638L193.36,350.622C193.36,346.062 194.32,342.762 196.24,340.722C198.16,338.682 200.944,337.662 204.592,337.662C208.432,337.662 211.624,338.118 214.168,339.03L212.368,346.518C211.264,346.134 210.292,345.882 209.452,345.762C208.612,345.642 207.736,345.582 206.824,345.582C205.864,345.582 205.108,345.726 204.556,346.014C204.004,346.302 203.596,346.746 203.332,347.346C203.068,347.946 202.9,348.69 202.828,349.578C202.756,350.466 202.72,351.486 202.72,352.638L210.64,352.638L210.64,360.558L202.72,360.558L202.72,388.638L193.36,388.638L193.36,360.558L188.392,360.558L188.392,352.638Z" style="fill:rgb(118,122,2);fill-rule:nonzero;"/>
    </g>
</svg>
